<svg width="1440" height="664" viewBox="0 0 1440 664" fill="none" xmlns="http://www.w3.org/2000/svg">
<path d="M0 0V663.557" stroke="#E4E4E7" stroke-width="0.5"/>
<path d="M32 0V663.557" stroke="#E4E4E7" stroke-width="0.5"/>
<path d="M64 0V663.557" stroke="#E4E4E7" stroke-width="0.5"/>
<path d="M96 0V663.557" stroke="#E4E4E7" stroke-width="0.5"/>
<path d="M128 0V663.557" stroke="#E4E4E7" stroke-width="0.5"/>
<path d="M160 0V663.557" stroke="#E4E4E7" stroke-width="0.5"/>
<path d="M192 0V663.557" stroke="#E4E4E7" stroke-width="0.5"/>
<path d="M224 0V663.557" stroke="#E4E4E7" stroke-width="0.5"/>
<path d="M256 0V663.557" stroke="#E4E4E7" stroke-width="0.5"/>
<path d="M288 0V663.557" stroke="#E4E4E7" stroke-width="0.5"/>
<path d="M320 0V663.557" stroke="#E4E4E7" stroke-width="0.5"/>
<path d="M352 0V663.557" stroke="#E4E4E7" stroke-width="0.5"/>
<path d="M384 0V663.557" stroke="#E4E4E7" stroke-width="0.5"/>
<path d="M416 0V663.557" stroke="#E4E4E7" stroke-width="0.5"/>
<path d="M448 0V663.557" stroke="#E4E4E7" stroke-width="0.5"/>
<path d="M480 0V663.557" stroke="#E4E4E7" stroke-width="0.5"/>
<path d="M512 0V663.557" stroke="#E4E4E7" stroke-width="0.5"/>
<path d="M544 0V663.557" stroke="#E4E4E7" stroke-width="0.5"/>
<path d="M576 0V663.557" stroke="#E4E4E7" stroke-width="0.5"/>
<path d="M608 0V663.557" stroke="#E4E4E7" stroke-width="0.5"/>
<path d="M640 0V663.557" stroke="#E4E4E7" stroke-width="0.5"/>
<path d="M672 0V663.557" stroke="#E4E4E7" stroke-width="0.5"/>
<path d="M704 0V663.557" stroke="#E4E4E7" stroke-width="0.5"/>
<path d="M736 0V663.557" stroke="#E4E4E7" stroke-width="0.5"/>
<path d="M768 0V663.557" stroke="#E4E4E7" stroke-width="0.5"/>
<path d="M800 0V663.557" stroke="#E4E4E7" stroke-width="0.5"/>
<path d="M832 0V663.557" stroke="#E4E4E7" stroke-width="0.5"/>
<path d="M864 0V663.557" stroke="#E4E4E7" stroke-width="0.5"/>
<path d="M896 0V663.557" stroke="#E4E4E7" stroke-width="0.5"/>
<path d="M928 0V663.557" stroke="#E4E4E7" stroke-width="0.5"/>
<path d="M960 0V663.557" stroke="#E4E4E7" stroke-width="0.5"/>
<path d="M992 0V663.557" stroke="#E4E4E7" stroke-width="0.5"/>
<path d="M1024 0V663.557" stroke="#E4E4E7" stroke-width="0.5"/>
<path d="M1056 0V663.557" stroke="#E4E4E7" stroke-width="0.5"/>
<path d="M1088 0V663.557" stroke="#E4E4E7" stroke-width="0.5"/>
<path d="M1120 0V663.557" stroke="#E4E4E7" stroke-width="0.5"/>
<path d="M1152 0V663.557" stroke="#E4E4E7" stroke-width="0.5"/>
<path d="M1184 0V663.557" stroke="#E4E4E7" stroke-width="0.5"/>
<path d="M1216 0V663.557" stroke="#E4E4E7" stroke-width="0.5"/>
<path d="M1248 0V663.557" stroke="#E4E4E7" stroke-width="0.5"/>
<path d="M1280 0V663.557" stroke="#E4E4E7" stroke-width="0.5"/>
<path d="M1312 0V663.557" stroke="#E4E4E7" stroke-width="0.5"/>
<path d="M1344 0V663.557" stroke="#E4E4E7" stroke-width="0.5"/>
<path d="M1376 0V663.557" stroke="#E4E4E7" stroke-width="0.5"/>
<path d="M1408 0V663.557" stroke="#E4E4E7" stroke-width="0.5"/>
<path d="M1440 0L6.38828e-05 -6.29444e-05" stroke="#E4E4E7" stroke-width="0.5"/>
<path d="M1440 32L6.38828e-05 31.9999" stroke="#E4E4E7" stroke-width="0.5"/>
<path d="M1440 64.0002L6.38828e-05 64.0002" stroke="#E4E4E7" stroke-width="0.5"/>
<path d="M1440 96.0002L6.38828e-05 96.0002" stroke="#E4E4E7" stroke-width="0.5"/>
<path d="M1440 128L6.38828e-05 128" stroke="#E4E4E7" stroke-width="0.5"/>
<path d="M1440 160L6.38828e-05 160" stroke="#E4E4E7" stroke-width="0.5"/>
<path d="M1440 192L6.38828e-05 192" stroke="#E4E4E7" stroke-width="0.5"/>
<path d="M1440 224L6.38828e-05 224" stroke="#E4E4E7" stroke-width="0.5"/>
<path d="M1440 256L6.38828e-05 256" stroke="#E4E4E7" stroke-width="0.5"/>
<path d="M1440 288.001L6.38828e-05 288.001" stroke="#E4E4E7" stroke-width="0.5"/>
<path d="M1440 320.001L6.38828e-05 320.001" stroke="#E4E4E7" stroke-width="0.5"/>
<path d="M1440 352.001L6.38828e-05 352.001" stroke="#E4E4E7" stroke-width="0.5"/>
<path d="M1440 384.001L6.38828e-05 384.001" stroke="#E4E4E7" stroke-width="0.5"/>
<path d="M1440 416.001L6.38828e-05 416.001" stroke="#E4E4E7" stroke-width="0.5"/>
<path d="M1440 448.001L6.38828e-05 448.001" stroke="#E4E4E7" stroke-width="0.5"/>
<path d="M1440 480.001L6.38828e-05 480.001" stroke="#E4E4E7" stroke-width="0.5"/>
<path d="M1440 512.001L6.38828e-05 512.001" stroke="#E4E4E7" stroke-width="0.5"/>
<path d="M1440 544.001L6.38828e-05 544.001" stroke="#E4E4E7" stroke-width="0.5"/>
<path d="M1440 576.001L-4.9591e-05 576.001" stroke="#E4E4E7" stroke-width="0.5"/>
<path d="M1440 608.001L6.38828e-05 608.001" stroke="#E4E4E7" stroke-width="0.5"/>
<path d="M1440 640.001L6.38828e-05 640.001" stroke="#E4E4E7" stroke-width="0.5"/>
<rect x="-0.000488281" y="664" width="663.999" height="1024.08" transform="rotate(-90 -0.000488281 664)" fill="url(#paint0_linear_3012_55724)"/>
<rect x="1440" width="663.557" height="95.9995" transform="rotate(90 1440 0)" fill="url(#paint1_linear_3012_55724)"/>
<rect width="1440" height="185.109" transform="matrix(1 0 0 -1 -0.000488281 664)" fill="url(#paint2_linear_3012_55724)"/>
<rect x="-0.000488281" width="1440" height="94.6025" fill="url(#paint3_linear_3012_55724)"/>
<defs>
<linearGradient id="paint0_linear_3012_55724" x1="331.999" y1="664" x2="331.999" y2="1688.08" gradientUnits="userSpaceOnUse">
<stop offset="0.643398" stop-color="#FAFAFA"/>
<stop offset="1" stop-color="#FAFAFA" stop-opacity="0"/>
</linearGradient>
<linearGradient id="paint1_linear_3012_55724" x1="1771.78" y1="0" x2="1771.78" y2="95.9995" gradientUnits="userSpaceOnUse">
<stop offset="0.51887" stop-color="#FAFAFA"/>
<stop offset="1" stop-color="#FAFAFA" stop-opacity="0"/>
</linearGradient>
<linearGradient id="paint2_linear_3012_55724" x1="720" y1="0" x2="720" y2="185.109" gradientUnits="userSpaceOnUse">
<stop offset="0.311698" stop-color="#FAFAFA"/>
<stop offset="1" stop-color="#FAFAFA" stop-opacity="0"/>
</linearGradient>
<linearGradient id="paint3_linear_3012_55724" x1="720" y1="0" x2="720" y2="94.6025" gradientUnits="userSpaceOnUse">
<stop offset="0.741324" stop-color="#FAFAFA"/>
<stop offset="1" stop-color="#FAFAFA" stop-opacity="0"/>
</linearGradient>
</defs>
</svg>
