<svg width="364" height="144" viewBox="0 0 364 144" fill="none" xmlns="http://www.w3.org/2000/svg">
<rect x="83.7539" y="6.86034" width="201.511" height="130" rx="8" stroke="#D97706"/>
<rect width="21" height="12" transform="translate(173.967 0.860367)" fill="#FAFAFA"/>
<path d="M183.266 6.96657C183.199 6.89963 183.199 6.7911 183.266 6.72416L186.72 3.2818C186.787 3.21486 186.896 3.21486 186.963 3.2818L190.416 6.72418C190.484 6.79112 190.484 6.89965 190.416 6.96659L186.963 10.409C186.896 10.4759 186.787 10.4759 186.72 10.409L183.266 6.96657Z" fill="#2563EB"/>
<path d="M184.608 0.910571C184.541 0.843632 184.432 0.843632 184.365 0.910571L178.517 6.73916C178.45 6.8061 178.45 6.91463 178.517 6.98157L184.365 12.8102C184.432 12.8771 184.541 12.8771 184.608 12.8102L185.572 11.8494C185.639 11.7825 185.639 11.674 185.572 11.607L180.909 6.95923C180.842 6.89229 180.842 6.78377 180.909 6.71683L185.55 2.09137C185.617 2.02443 185.617 1.9159 185.55 1.84896L184.608 0.910571Z" fill="#2563EB"/>
<path d="M105.855 107.115H104.383V106.212H105.805C106.211 106.212 106.549 106.138 106.82 105.99C107.094 105.839 107.299 105.615 107.438 105.318C107.576 105.018 107.645 104.645 107.645 104.197C107.645 103.754 107.576 103.384 107.438 103.087C107.299 102.791 107.096 102.568 106.828 102.42C106.562 102.271 106.23 102.197 105.832 102.197H104.352V101.295H105.895C106.473 101.295 106.969 101.41 107.383 101.642C107.797 101.874 108.115 102.207 108.336 102.642C108.56 103.077 108.672 103.595 108.672 104.197C108.672 104.804 108.56 105.326 108.336 105.763C108.115 106.198 107.793 106.533 107.371 106.767C106.952 106.999 106.447 107.115 105.855 107.115ZM104.93 101.295V107.115H103.887V101.295H104.93ZM111.551 107.205C111.111 107.205 110.732 107.112 110.414 106.927C110.099 106.742 109.855 106.482 109.684 106.146C109.514 105.81 109.43 105.414 109.43 104.959C109.43 104.508 109.513 104.114 109.68 103.775C109.849 103.436 110.087 103.172 110.395 102.982C110.704 102.789 111.068 102.693 111.484 102.693C111.75 102.693 112.003 102.736 112.242 102.822C112.484 102.908 112.698 103.041 112.883 103.22C113.07 103.4 113.216 103.629 113.32 103.908C113.427 104.184 113.48 104.513 113.48 104.896V105.216H109.91V104.525H112.977L112.5 104.728C112.5 104.483 112.462 104.268 112.387 104.084C112.311 103.896 112.198 103.75 112.047 103.646C111.898 103.542 111.712 103.49 111.488 103.49C111.264 103.49 111.074 103.543 110.918 103.65C110.762 103.754 110.642 103.895 110.559 104.072C110.478 104.246 110.438 104.442 110.438 104.658V105.134C110.438 105.41 110.484 105.643 110.578 105.834C110.672 106.024 110.803 106.167 110.973 106.263C111.142 106.36 111.339 106.408 111.562 106.408C111.711 106.408 111.845 106.387 111.965 106.345C112.087 106.301 112.193 106.237 112.281 106.154C112.37 106.068 112.436 105.964 112.48 105.841L113.414 106.033C113.344 106.267 113.224 106.473 113.055 106.65C112.885 106.824 112.673 106.961 112.418 107.06C112.165 107.156 111.876 107.205 111.551 107.205ZM115.445 107.115L113.82 102.748H114.906L115.703 105.123C115.797 105.401 115.878 105.681 115.945 105.962C116.013 106.244 116.082 106.529 116.152 106.818H115.898C115.971 106.529 116.04 106.244 116.105 105.962C116.173 105.681 116.253 105.401 116.344 105.123L117.137 102.748H118.215L116.582 107.115H115.445ZM121.441 107.193C120.931 107.193 120.474 107.074 120.07 106.837C119.667 106.6 119.348 106.259 119.113 105.814C118.882 105.369 118.766 104.834 118.766 104.209C118.766 103.581 118.882 103.045 119.113 102.599C119.348 102.151 119.667 101.809 120.07 101.572C120.474 101.335 120.931 101.216 121.441 101.216C121.949 101.216 122.404 101.335 122.805 101.572C123.208 101.809 123.526 102.151 123.758 102.599C123.992 103.045 124.109 103.581 124.109 104.209C124.109 104.834 123.992 105.37 123.758 105.818C123.526 106.263 123.208 106.604 122.805 106.841C122.404 107.076 121.949 107.193 121.441 107.193ZM121.441 106.259C121.757 106.259 122.035 106.181 122.277 106.025C122.522 105.866 122.714 105.634 122.852 105.33C122.99 105.022 123.059 104.649 123.059 104.209C123.059 103.763 122.99 103.388 122.852 103.084C122.714 102.776 122.522 102.545 122.277 102.388C122.035 102.229 121.757 102.15 121.441 102.15C121.124 102.15 120.842 102.229 120.598 102.388C120.353 102.547 120.16 102.78 120.02 103.087C119.882 103.392 119.812 103.766 119.812 104.209C119.812 104.649 119.882 105.021 120.02 105.326C120.16 105.63 120.353 105.862 120.598 106.021C120.842 106.18 121.124 106.259 121.441 106.259ZM125.051 108.748V102.748H126.043V103.47H126.109C126.161 103.366 126.236 103.254 126.332 103.134C126.428 103.015 126.559 102.912 126.723 102.826C126.889 102.737 127.102 102.693 127.359 102.693C127.698 102.693 128.003 102.779 128.273 102.951C128.544 103.123 128.759 103.377 128.918 103.712C129.079 104.046 129.16 104.455 129.16 104.939C129.16 105.418 129.082 105.826 128.926 106.162C128.77 106.498 128.555 106.754 128.281 106.931C128.01 107.106 127.702 107.193 127.355 107.193C127.108 107.193 126.901 107.151 126.734 107.068C126.568 106.982 126.435 106.879 126.336 106.759C126.237 106.64 126.161 106.528 126.109 106.423H126.066V108.748H125.051ZM127.082 106.357C127.309 106.357 127.499 106.296 127.652 106.173C127.806 106.048 127.922 105.879 128 105.666C128.078 105.449 128.117 105.206 128.117 104.935C128.117 104.664 128.078 104.423 128 104.212C127.924 103.999 127.81 103.832 127.656 103.712C127.503 103.59 127.311 103.529 127.082 103.529C126.858 103.529 126.669 103.587 126.516 103.705C126.362 103.822 126.245 103.986 126.164 104.197C126.086 104.405 126.047 104.651 126.047 104.935C126.047 105.219 126.086 105.468 126.164 105.681C126.245 105.895 126.362 106.061 126.516 106.181C126.672 106.298 126.861 106.357 127.082 106.357ZM131.695 107.205C131.359 107.205 131.062 107.156 130.805 107.06C130.547 106.964 130.335 106.823 130.168 106.638C130.004 106.453 129.897 106.229 129.848 105.966L130.797 105.787C130.857 106.003 130.962 106.164 131.113 106.271C131.267 106.375 131.467 106.427 131.715 106.427C131.965 106.427 132.163 106.378 132.309 106.279C132.457 106.177 132.531 106.052 132.531 105.904C132.531 105.779 132.483 105.676 132.387 105.595C132.29 105.512 132.142 105.448 131.941 105.404L131.195 105.244C130.784 105.155 130.477 105.009 130.273 104.806C130.07 104.603 129.969 104.341 129.969 104.021C129.969 103.75 130.043 103.516 130.191 103.318C130.34 103.12 130.546 102.966 130.809 102.857C131.074 102.748 131.382 102.693 131.73 102.693C132.061 102.693 132.345 102.74 132.582 102.834C132.822 102.927 133.014 103.059 133.16 103.228C133.309 103.395 133.411 103.591 133.469 103.818L132.562 103.998C132.513 103.844 132.423 103.715 132.293 103.611C132.163 103.504 131.979 103.451 131.742 103.451C131.526 103.451 131.345 103.499 131.199 103.595C131.056 103.689 130.984 103.81 130.984 103.959C130.984 104.086 131.033 104.192 131.129 104.275C131.225 104.358 131.384 104.423 131.605 104.47L132.348 104.627C132.762 104.715 133.069 104.857 133.27 105.052C133.47 105.248 133.57 105.499 133.57 105.806C133.57 106.082 133.491 106.326 133.332 106.537C133.173 106.745 132.952 106.909 132.668 107.029C132.387 107.146 132.062 107.205 131.695 107.205Z" fill="#2563EB"/>
<rect x="92.6016" y="43.1148" width="52" height="52" rx="26" fill="#FAFAFA"/>
<rect x="92.6016" y="43.1148" width="52" height="52" rx="26" stroke="#2563EB"/>
<path d="M115.687 72.3007C114.626 73.9911 112.745 75.1148 110.602 75.1148C107.288 75.1148 104.602 72.4285 104.602 69.1148C104.602 65.8011 107.288 63.1148 110.602 63.1148C111.82 63.1148 113.431 63.7311 114.17 64.385C114.898 65.0295 122.259 73.1995 122.472 73.4358C122.479 73.4432 122.48 73.4445 122.487 73.4516L122.786 73.7453C123.823 74.6009 125.152 75.1148 126.602 75.1148C129.915 75.1148 132.602 72.4285 132.602 69.1148C132.602 65.8011 129.915 63.1148 126.602 63.1148C124.719 63.1148 123.039 63.9816 121.939 65.3378" stroke="#2563EB" stroke-width="1.5" stroke-linecap="round"/>
<rect width="16" height="12" transform="translate(110.602 38.1148)" fill="#FAFAFA"/>
<path d="M116.082 45.6812V44.6929C116.207 44.4898 116.329 44.2997 116.449 44.1226C116.572 43.9429 116.701 43.7659 116.836 43.5914C116.974 43.4169 117.128 43.232 117.297 43.0367L118.824 41.2945H120.121L117.652 44.0797L117.574 44.0523L116.082 45.6812ZM115.328 47.1148V41.2945H116.371V43.0211L116.352 44.4234L116.371 44.9351V47.1148H115.328ZM118.93 47.1148L117.078 44.3765L117.734 43.5914L120.16 47.1148H118.93ZM121.922 41.2945V47.1148H120.906V41.2945H121.922Z" fill="#2563EB"/>
<path d="M169.213 101.295V107.115H168.17V101.295H169.213ZM171.357 104.556V107.115H170.342V102.748H171.303L171.318 103.826H171.236C171.359 103.448 171.538 103.166 171.775 102.978C172.012 102.788 172.309 102.693 172.666 102.693C172.965 102.693 173.227 102.757 173.451 102.884C173.675 103.012 173.848 103.198 173.971 103.443C174.096 103.688 174.158 103.986 174.158 104.337V107.115H173.143V104.494C173.143 104.202 173.067 103.973 172.916 103.806C172.765 103.64 172.557 103.556 172.291 103.556C172.111 103.556 171.951 103.595 171.811 103.673C171.67 103.752 171.559 103.866 171.479 104.017C171.398 104.166 171.357 104.345 171.357 104.556ZM177.537 102.748V103.545H174.779V102.748H177.537ZM175.58 107.115V102.33C175.58 102.038 175.64 101.796 175.76 101.603C175.882 101.41 176.046 101.266 176.252 101.17C176.46 101.071 176.688 101.021 176.936 101.021C177.115 101.021 177.274 101.035 177.412 101.064C177.55 101.093 177.652 101.119 177.717 101.142L177.51 101.931C177.465 101.918 177.411 101.905 177.346 101.892C177.283 101.877 177.209 101.869 177.123 101.869C176.933 101.869 176.796 101.916 176.713 102.009C176.632 102.103 176.592 102.236 176.592 102.408V107.115H175.58ZM178.35 107.115V102.748H179.334V103.478H179.381C179.459 103.225 179.596 103.031 179.791 102.896C179.986 102.758 180.209 102.689 180.459 102.689C180.516 102.689 180.58 102.692 180.65 102.697C180.721 102.702 180.781 102.709 180.83 102.716V103.65C180.788 103.637 180.721 103.625 180.627 103.615C180.533 103.604 180.441 103.599 180.35 103.599C180.162 103.599 179.993 103.64 179.842 103.72C179.693 103.801 179.576 103.913 179.49 104.056C179.407 104.197 179.365 104.36 179.365 104.545V107.115H178.35ZM182.963 107.193C182.622 107.193 182.316 107.106 182.045 106.931C181.774 106.754 181.559 106.498 181.4 106.162C181.244 105.826 181.166 105.418 181.166 104.939C181.166 104.455 181.247 104.046 181.408 103.712C181.57 103.377 181.786 103.123 182.057 102.951C182.33 102.779 182.635 102.693 182.971 102.693C183.229 102.693 183.439 102.736 183.604 102.822C183.77 102.908 183.902 103.012 183.998 103.134C184.094 103.254 184.167 103.366 184.217 103.47H184.264V102.748H185.275V107.115H184.268V106.423H184.217C184.167 106.528 184.092 106.641 183.99 106.763C183.891 106.883 183.758 106.985 183.592 107.068C183.425 107.151 183.215 107.193 182.963 107.193ZM183.248 106.357C183.469 106.357 183.657 106.298 183.811 106.181C183.964 106.061 184.081 105.895 184.162 105.681C184.243 105.468 184.283 105.219 184.283 104.935C184.283 104.651 184.243 104.405 184.162 104.197C184.084 103.986 183.968 103.822 183.814 103.705C183.661 103.587 183.472 103.529 183.248 103.529C183.019 103.529 182.826 103.59 182.67 103.712C182.516 103.832 182.4 103.998 182.322 104.209C182.244 104.42 182.205 104.662 182.205 104.935C182.205 105.206 182.244 105.449 182.322 105.666C182.403 105.879 182.52 106.048 182.674 106.173C182.83 106.296 183.021 106.357 183.248 106.357ZM188.889 107.193C188.378 107.193 187.921 107.074 187.518 106.837C187.114 106.6 186.795 106.259 186.561 105.814C186.329 105.369 186.213 104.834 186.213 104.209C186.213 103.581 186.329 103.045 186.561 102.599C186.795 102.151 187.114 101.809 187.518 101.572C187.921 101.335 188.378 101.216 188.889 101.216C189.396 101.216 189.851 101.335 190.252 101.572C190.656 101.809 190.973 102.151 191.205 102.599C191.439 103.045 191.557 103.581 191.557 104.209C191.557 104.834 191.439 105.37 191.205 105.818C190.973 106.263 190.656 106.604 190.252 106.841C189.851 107.076 189.396 107.193 188.889 107.193ZM188.889 106.259C189.204 106.259 189.482 106.181 189.725 106.025C189.969 105.866 190.161 105.634 190.299 105.33C190.437 105.022 190.506 104.649 190.506 104.209C190.506 103.763 190.437 103.388 190.299 103.084C190.161 102.776 189.969 102.545 189.725 102.388C189.482 102.229 189.204 102.15 188.889 102.15C188.571 102.15 188.29 102.229 188.045 102.388C187.8 102.547 187.607 102.78 187.467 103.087C187.329 103.392 187.26 103.766 187.26 104.209C187.26 104.649 187.329 105.021 187.467 105.326C187.607 105.63 187.8 105.862 188.045 106.021C188.29 106.18 188.571 106.259 188.889 106.259ZM192.498 108.748V102.748H193.49V103.47H193.557C193.609 103.366 193.683 103.254 193.779 103.134C193.876 103.015 194.006 102.912 194.17 102.826C194.337 102.737 194.549 102.693 194.807 102.693C195.145 102.693 195.45 102.779 195.721 102.951C195.992 103.123 196.206 103.377 196.365 103.712C196.527 104.046 196.607 104.455 196.607 104.939C196.607 105.418 196.529 105.826 196.373 106.162C196.217 106.498 196.002 106.754 195.729 106.931C195.458 107.106 195.149 107.193 194.803 107.193C194.555 107.193 194.348 107.151 194.182 107.068C194.015 106.982 193.882 106.879 193.783 106.759C193.684 106.64 193.609 106.528 193.557 106.423H193.514V108.748H192.498ZM194.529 106.357C194.756 106.357 194.946 106.296 195.1 106.173C195.253 106.048 195.369 105.879 195.447 105.666C195.525 105.449 195.564 105.206 195.564 104.935C195.564 104.664 195.525 104.423 195.447 104.212C195.372 103.999 195.257 103.832 195.104 103.712C194.95 103.59 194.758 103.529 194.529 103.529C194.305 103.529 194.117 103.587 193.963 103.705C193.809 103.822 193.692 103.986 193.611 104.197C193.533 104.405 193.494 104.651 193.494 104.935C193.494 105.219 193.533 105.468 193.611 105.681C193.692 105.895 193.809 106.061 193.963 106.181C194.119 106.298 194.308 106.357 194.529 106.357ZM199.143 107.205C198.807 107.205 198.51 107.156 198.252 107.06C197.994 106.964 197.782 106.823 197.615 106.638C197.451 106.453 197.344 106.229 197.295 105.966L198.244 105.787C198.304 106.003 198.41 106.164 198.561 106.271C198.714 106.375 198.915 106.427 199.162 106.427C199.412 106.427 199.61 106.378 199.756 106.279C199.904 106.177 199.979 106.052 199.979 105.904C199.979 105.779 199.93 105.676 199.834 105.595C199.738 105.512 199.589 105.448 199.389 105.404L198.643 105.244C198.231 105.155 197.924 105.009 197.721 104.806C197.518 104.603 197.416 104.341 197.416 104.021C197.416 103.75 197.49 103.516 197.639 103.318C197.787 103.12 197.993 102.966 198.256 102.857C198.521 102.748 198.829 102.693 199.178 102.693C199.508 102.693 199.792 102.74 200.029 102.834C200.269 102.927 200.462 103.059 200.607 103.228C200.756 103.395 200.859 103.591 200.916 103.818L200.01 103.998C199.96 103.844 199.87 103.715 199.74 103.611C199.61 103.504 199.426 103.451 199.189 103.451C198.973 103.451 198.792 103.499 198.646 103.595C198.503 103.689 198.432 103.81 198.432 103.959C198.432 104.086 198.48 104.192 198.576 104.275C198.673 104.358 198.831 104.423 199.053 104.47L199.795 104.627C200.209 104.715 200.516 104.857 200.717 105.052C200.917 105.248 201.018 105.499 201.018 105.806C201.018 106.082 200.938 106.326 200.779 106.537C200.62 106.745 200.399 106.909 200.115 107.029C199.834 107.146 199.51 107.205 199.143 107.205Z" fill="#2563EB"/>
<rect x="158.467" y="43.1148" width="52" height="52" rx="26" fill="#FAFAFA"/>
<rect x="158.467" y="43.1148" width="52" height="52" rx="26" stroke="#2563EB"/>
<path fill-rule="evenodd" clip-rule="evenodd" d="M183.582 58.8627C183.728 58.716 183.921 58.6428 184.113 58.643H184.114C184.336 58.643 184.536 58.7399 184.674 58.8937L187.092 61.3119C187.385 61.6048 187.385 62.0796 187.092 62.3725C186.799 62.6654 186.324 62.6654 186.031 62.3725L184.864 61.2054V65.8421C185.09 65.7841 185.319 65.7372 185.55 65.7019C186.644 65.5351 187.761 65.6306 188.811 65.9805C189.861 66.3304 190.812 66.9247 191.587 67.7144C191.757 67.8879 191.918 68.0699 192.068 68.2593L196.032 64.2957H194.352C193.938 64.2957 193.602 63.9599 193.602 63.5457C193.602 63.1315 193.938 62.7957 194.352 62.7957H197.815C198 62.7957 198.179 62.8645 198.316 62.988C198.331 63.0008 198.346 63.0143 198.36 63.0284C198.545 63.2129 198.613 63.4697 198.565 63.7076L198.565 67.0083C198.565 67.4226 198.229 67.7583 197.815 67.7583C197.401 67.7583 197.065 67.4226 197.065 67.0083V65.3842L193.103 69.3461C193.031 69.4176 192.949 69.4716 192.861 69.5082C193.023 69.8342 193.159 70.1733 193.268 70.5226C193.598 71.5786 193.672 72.6979 193.484 73.7883C193.297 74.8786 192.853 75.9088 192.189 76.7939L192.181 76.8045L192.181 76.8044C191.947 77.1055 191.695 77.3903 191.442 77.6537C190.052 79.0983 188.082 79.5866 186.243 79.5866H179.747H179.746C179.021 79.5859 178.305 79.431 177.644 79.1322C176.983 78.8333 176.394 78.3974 175.915 77.8533C175.435 77.3092 175.077 76.6694 174.864 75.9763C174.651 75.2833 174.588 74.5528 174.679 73.8335C174.769 73.1141 175.012 72.4223 175.391 71.8039C175.626 71.4199 175.91 71.0696 176.236 70.7616L171.868 66.3944L171.868 68.0181C171.868 68.4323 171.533 68.7681 171.118 68.7681C170.704 68.7681 170.368 68.4323 170.368 68.0181L170.368 64.7181C170.32 64.48 170.389 64.2231 170.573 64.0385C170.586 64.0261 170.598 64.0142 170.611 64.0028C170.749 63.8762 170.93 63.8055 171.118 63.8055H174.581C174.995 63.8055 175.331 64.1413 175.331 64.5555C175.331 64.9697 174.995 65.3055 174.581 65.3055L172.901 65.3055L177.314 69.7184C177.371 69.7754 177.417 69.8393 177.452 69.9074C177.897 69.6831 178.374 69.5246 178.868 69.4379C179.374 69.3491 179.89 69.3374 180.398 69.4021C180.902 68.4259 181.629 67.5823 182.52 66.9399C182.79 66.7458 183.072 66.5718 183.364 66.4188V61.202L182.193 62.3725C181.9 62.6654 181.426 62.6654 181.133 62.3725C180.84 62.0796 180.84 61.6048 181.133 61.3119L183.582 58.8627ZM185.776 67.1848C186.635 67.0538 187.513 67.1288 188.337 67.4035C189.161 67.6782 189.908 68.1448 190.516 68.7649C191.125 69.385 191.577 70.1407 191.836 70.9699C192.095 71.7991 192.153 72.6779 192.006 73.534C191.859 74.388 191.512 75.1949 190.993 75.8887C190.797 76.1398 190.583 76.3832 190.361 76.6138C189.359 77.6556 187.854 78.0866 186.243 78.0866H179.748C179.235 78.0861 178.729 77.9767 178.262 77.7655C177.795 77.5543 177.379 77.2463 177.04 76.8618C176.702 76.4773 176.448 76.0252 176.298 75.5355C176.147 75.0458 176.103 74.5296 176.167 74.0213C176.231 73.513 176.403 73.0242 176.67 72.5872C176.938 72.1503 177.295 71.7752 177.719 71.487C178.142 71.1988 178.622 71.0039 179.127 70.9154C179.363 70.8739 179.603 70.8562 179.841 70.8622C179.695 71.4292 179.62 72.0143 179.62 72.604C179.62 73.0182 179.956 73.354 180.37 73.3541C180.784 73.3541 181.12 73.0184 181.12 72.6041C181.12 71.7354 181.327 70.8792 181.723 70.106C182.119 69.3328 182.693 68.6647 183.397 68.1568C184.102 67.6489 184.917 67.3158 185.776 67.1848Z" fill="#2563EB"/>
<rect width="16" height="12" transform="translate(176.467 38.1148)" fill="#FAFAFA"/>
<path d="M181.947 45.6812V44.6929C182.072 44.4898 182.195 44.2997 182.314 44.1226C182.437 43.9429 182.566 43.7659 182.701 43.5914C182.839 43.4169 182.993 43.232 183.162 43.0367L184.689 41.2945H185.986L183.518 44.0797L183.439 44.0523L181.947 45.6812ZM181.193 47.1148V41.2945H182.236V43.0211L182.217 44.4234L182.236 44.9351V47.1148H181.193ZM184.795 47.1148L182.943 44.3765L183.6 43.5914L186.025 47.1148H184.795ZM187.787 41.2945V47.1148H186.771V41.2945H187.787Z" fill="#2563EB"/>
<path d="M230.369 107.115H228.896V106.212H230.318C230.725 106.212 231.063 106.138 231.334 105.99C231.607 105.839 231.813 105.615 231.951 105.318C232.089 105.018 232.158 104.645 232.158 104.197C232.158 103.754 232.089 103.384 231.951 103.087C231.813 102.791 231.61 102.568 231.342 102.42C231.076 102.271 230.744 102.197 230.346 102.197H228.865V101.295H230.408C230.986 101.295 231.482 101.41 231.896 101.642C232.311 101.874 232.628 102.207 232.85 102.642C233.074 103.077 233.186 103.595 233.186 104.197C233.186 104.804 233.074 105.326 232.85 105.763C232.628 106.198 232.307 106.533 231.885 106.767C231.465 106.999 230.96 107.115 230.369 107.115ZM229.443 101.295V107.115H228.4V101.295H229.443ZM234.135 107.115V102.748H235.15V107.115H234.135ZM234.643 102.13C234.481 102.13 234.342 102.076 234.225 101.966C234.11 101.857 234.053 101.727 234.053 101.576C234.053 101.42 234.11 101.288 234.225 101.181C234.342 101.072 234.481 101.017 234.643 101.017C234.807 101.017 234.946 101.072 235.061 101.181C235.178 101.288 235.236 101.42 235.236 101.576C235.236 101.727 235.178 101.857 235.061 101.966C234.946 102.076 234.807 102.13 234.643 102.13ZM237.881 107.205C237.545 107.205 237.248 107.156 236.99 107.06C236.732 106.964 236.52 106.823 236.354 106.638C236.189 106.453 236.083 106.229 236.033 105.966L236.982 105.787C237.042 106.003 237.148 106.164 237.299 106.271C237.452 106.375 237.653 106.427 237.9 106.427C238.15 106.427 238.348 106.378 238.494 106.279C238.643 106.177 238.717 106.052 238.717 105.904C238.717 105.779 238.669 105.676 238.572 105.595C238.476 105.512 238.327 105.448 238.127 105.404L237.381 105.244C236.969 105.155 236.662 105.009 236.459 104.806C236.256 104.603 236.154 104.341 236.154 104.021C236.154 103.75 236.229 103.516 236.377 103.318C236.525 103.12 236.731 102.966 236.994 102.857C237.26 102.748 237.567 102.693 237.916 102.693C238.247 102.693 238.531 102.74 238.768 102.834C239.007 102.927 239.2 103.059 239.346 103.228C239.494 103.395 239.597 103.591 239.654 103.818L238.748 103.998C238.699 103.844 238.609 103.715 238.479 103.611C238.348 103.504 238.165 103.451 237.928 103.451C237.712 103.451 237.531 103.499 237.385 103.595C237.242 103.689 237.17 103.81 237.17 103.959C237.17 104.086 237.218 104.192 237.314 104.275C237.411 104.358 237.57 104.423 237.791 104.47L238.533 104.627C238.947 104.715 239.255 104.857 239.455 105.052C239.656 105.248 239.756 105.499 239.756 105.806C239.756 106.082 239.676 106.326 239.518 106.537C239.359 106.745 239.137 106.909 238.854 107.029C238.572 107.146 238.248 107.205 237.881 107.205ZM242.646 102.748V103.545H240.166V102.748H242.646ZM240.787 101.709H241.803V105.884C241.803 106.043 241.837 106.16 241.904 106.236C241.972 106.309 242.083 106.345 242.236 106.345C242.283 106.345 242.344 106.34 242.42 106.33C242.498 106.317 242.561 106.305 242.607 106.295L242.768 107.08C242.656 107.114 242.541 107.137 242.424 107.15C242.307 107.166 242.195 107.173 242.088 107.173C241.669 107.173 241.347 107.069 241.123 106.861C240.899 106.653 240.787 106.356 240.787 105.97V101.709ZM243.455 107.115V102.748H244.439V103.478H244.486C244.564 103.225 244.701 103.031 244.896 102.896C245.092 102.758 245.314 102.689 245.564 102.689C245.622 102.689 245.686 102.692 245.756 102.697C245.826 102.702 245.886 102.709 245.936 102.716V103.65C245.894 103.637 245.826 103.625 245.732 103.615C245.639 103.604 245.546 103.599 245.455 103.599C245.268 103.599 245.098 103.64 244.947 103.72C244.799 103.801 244.682 103.913 244.596 104.056C244.512 104.197 244.471 104.36 244.471 104.545V107.115H243.455ZM246.713 107.115V102.748H247.729V107.115H246.713ZM247.221 102.13C247.059 102.13 246.92 102.076 246.803 101.966C246.688 101.857 246.631 101.727 246.631 101.576C246.631 101.42 246.688 101.288 246.803 101.181C246.92 101.072 247.059 101.017 247.221 101.017C247.385 101.017 247.524 101.072 247.639 101.181C247.756 101.288 247.814 101.42 247.814 101.576C247.814 101.727 247.756 101.857 247.639 101.966C247.524 102.076 247.385 102.13 247.221 102.13ZM251.111 107.193C250.864 107.193 250.657 107.151 250.49 107.068C250.324 106.982 250.191 106.879 250.092 106.759C249.993 106.64 249.917 106.528 249.865 106.423H249.799V107.115H248.807V101.295H249.822V103.47H249.865C249.917 103.366 249.992 103.254 250.088 103.134C250.184 103.015 250.314 102.912 250.479 102.826C250.645 102.737 250.857 102.693 251.115 102.693C251.454 102.693 251.758 102.779 252.029 102.951C252.3 103.123 252.515 103.377 252.674 103.712C252.835 104.046 252.916 104.455 252.916 104.939C252.916 105.418 252.838 105.826 252.682 106.162C252.525 106.498 252.311 106.754 252.037 106.931C251.766 107.106 251.458 107.193 251.111 107.193ZM250.838 106.357C251.064 106.357 251.255 106.296 251.408 106.173C251.562 106.048 251.678 105.879 251.756 105.666C251.834 105.449 251.873 105.206 251.873 104.935C251.873 104.664 251.834 104.423 251.756 104.212C251.68 103.999 251.566 103.832 251.412 103.712C251.258 103.59 251.067 103.529 250.838 103.529C250.614 103.529 250.425 103.587 250.271 103.705C250.118 103.822 250.001 103.986 249.92 104.197C249.842 104.405 249.803 104.651 249.803 104.935C249.803 105.219 249.842 105.468 249.92 105.681C250.001 105.895 250.118 106.061 250.271 106.181C250.428 106.298 250.617 106.357 250.838 106.357ZM255.295 107.17C254.995 107.17 254.732 107.106 254.506 106.978C254.282 106.85 254.107 106.664 253.982 106.42C253.86 106.172 253.799 105.874 253.799 105.525V102.748H254.814V105.369C254.814 105.66 254.89 105.89 255.041 106.056C255.195 106.223 255.404 106.306 255.67 106.306C255.85 106.306 256.01 106.267 256.15 106.189C256.291 106.111 256.4 105.996 256.479 105.845C256.559 105.694 256.6 105.515 256.6 105.306V102.748H257.619V107.115H256.654L256.643 106.037H256.721C256.598 106.417 256.417 106.701 256.178 106.888C255.938 107.076 255.644 107.17 255.295 107.17ZM260.717 102.748V103.545H258.236V102.748H260.717ZM258.857 101.709H259.873V105.884C259.873 106.043 259.907 106.16 259.975 106.236C260.042 106.309 260.153 106.345 260.307 106.345C260.354 106.345 260.415 106.34 260.49 106.33C260.568 106.317 260.631 106.305 260.678 106.295L260.838 107.08C260.726 107.114 260.611 107.137 260.494 107.15C260.377 107.166 260.265 107.173 260.158 107.173C259.739 107.173 259.417 107.069 259.193 106.861C258.969 106.653 258.857 106.356 258.857 105.97V101.709ZM261.525 107.115V102.748H262.541V107.115H261.525ZM262.033 102.13C261.872 102.13 261.732 102.076 261.615 101.966C261.501 101.857 261.443 101.727 261.443 101.576C261.443 101.42 261.501 101.288 261.615 101.181C261.732 101.072 261.872 101.017 262.033 101.017C262.197 101.017 262.337 101.072 262.451 101.181C262.568 101.288 262.627 101.42 262.627 101.576C262.627 101.727 262.568 101.857 262.451 101.966C262.337 102.076 262.197 102.13 262.033 102.13ZM265.514 107.205C265.089 107.205 264.721 107.111 264.408 106.923C264.096 106.733 263.854 106.47 263.682 106.134C263.512 105.796 263.428 105.403 263.428 104.955C263.428 104.502 263.512 104.106 263.682 103.767C263.854 103.426 264.096 103.162 264.408 102.974C264.721 102.787 265.089 102.693 265.514 102.693C265.941 102.693 266.311 102.787 266.623 102.974C266.936 103.162 267.176 103.426 267.346 103.767C267.518 104.106 267.604 104.502 267.604 104.955C267.604 105.403 267.518 105.796 267.346 106.134C267.176 106.47 266.936 106.733 266.623 106.923C266.311 107.111 265.941 107.205 265.514 107.205ZM265.514 106.38C265.751 106.38 265.947 106.317 266.104 106.189C266.262 106.061 266.38 105.89 266.455 105.673C266.533 105.457 266.572 105.216 266.572 104.951C266.572 104.683 266.533 104.44 266.455 104.224C266.38 104.008 266.262 103.836 266.104 103.709C265.947 103.581 265.751 103.517 265.514 103.517C265.277 103.517 265.08 103.581 264.924 103.709C264.77 103.836 264.654 104.008 264.576 104.224C264.501 104.438 264.463 104.68 264.463 104.951C264.463 105.216 264.501 105.457 264.576 105.673C264.654 105.89 264.77 106.061 264.924 106.189C265.08 106.317 265.277 106.38 265.514 106.38ZM269.51 104.556V107.115H268.494V102.748H269.455L269.471 103.826H269.389C269.511 103.448 269.691 103.166 269.928 102.978C270.165 102.788 270.462 102.693 270.818 102.693C271.118 102.693 271.38 102.757 271.604 102.884C271.827 103.012 272.001 103.198 272.123 103.443C272.248 103.688 272.311 103.986 272.311 104.337V107.115H271.295V104.494C271.295 104.202 271.219 103.973 271.068 103.806C270.917 103.64 270.709 103.556 270.443 103.556C270.264 103.556 270.104 103.595 269.963 103.673C269.822 103.752 269.712 103.866 269.631 104.017C269.55 104.166 269.51 104.345 269.51 104.556Z" fill="#2563EB"/>
<rect x="224.334" y="43.1148" width="52" height="52" rx="26" fill="#FAFAFA"/>
<rect x="224.334" y="43.1148" width="52" height="52" rx="26" stroke="#2563EB"/>
<path d="M248.437 71.0115L239.334 65.7011L252.989 58.1148L261.334 63.4252L248.437 71.0115Z" stroke="#2563EB" stroke-width="1.5" stroke-linejoin="round"/>
<path d="M248.438 80.1148V71.0113L261.334 63.4251V72.5286L248.438 80.1148Z" stroke="#2563EB" stroke-width="1.5" stroke-linejoin="round"/>
<path d="M239.334 74.8043V65.7008L248.437 71.0111V80.1146L239.334 74.8043Z" stroke="#2563EB" stroke-width="1.5" stroke-linejoin="round"/>
<path d="M252.986 68.7926L252.986 77.0804" stroke="#2563EB" stroke-width="1.5" stroke-linecap="round" stroke-linejoin="round"/>
<path d="M257.543 66.0443L257.543 74.4762" stroke="#2563EB" stroke-width="1.5" stroke-linecap="round" stroke-linejoin="round"/>
<rect width="16" height="12" transform="translate(242.334 38.1148)" fill="#FAFAFA"/>
<path d="M247.814 45.6812V44.6929C247.939 44.4898 248.062 44.2997 248.182 44.1226C248.304 43.9429 248.433 43.7659 248.568 43.5914C248.706 43.4169 248.86 43.232 249.029 43.0367L250.557 41.2945H251.854L249.385 44.0797L249.307 44.0523L247.814 45.6812ZM247.061 47.1148V41.2945H248.104V43.0211L248.084 44.4234L248.104 44.9351V47.1148H247.061ZM250.662 47.1148L248.811 44.3765L249.467 43.5914L251.893 47.1148H250.662ZM253.654 41.2945V47.1148H252.639V41.2945H253.654Z" fill="#2563EB"/>
<rect width="21" height="12.9404" transform="translate(173.967 130.39)" fill="#FAFAFA"/>
<path d="M183.009 138.453C182.479 139.299 181.538 139.86 180.467 139.86C178.81 139.86 177.467 138.517 177.467 136.86C177.467 135.204 178.81 133.86 180.467 133.86C181.076 133.86 181.882 134.168 182.251 134.495C182.61 134.813 186.188 138.784 186.395 139.013C186.402 139.021 186.408 139.027 186.415 139.034L186.559 139.176C187.077 139.603 187.742 139.86 188.467 139.86C190.124 139.86 191.467 138.517 191.467 136.86C191.467 135.204 190.124 133.86 188.467 133.86C187.526 133.86 186.686 134.294 186.136 134.972" stroke="#2563EB" stroke-linecap="round"/>
<path d="M328.243 70.7496H286.539" stroke="#D97706" stroke-dasharray="2 2"/>
<path d="M286.539 61.8094H292.739C301.144 61.8094 308.653 56.5534 311.53 48.6555L316.075 36.1816C317.938 31.0673 322.8 27.6639 328.243 27.6639V27.6639" stroke="#D97706" stroke-dasharray="2 2"/>
<path d="M286.539 79.6896H292.739C301.144 79.6896 308.653 84.9455 311.53 92.8435L316.075 105.317C317.938 110.432 322.8 113.835 328.243 113.835V113.835" stroke="#D97706" stroke-dasharray="2 2"/>
<rect x="327.59" y="12.222" width="34.939" height="34.939" rx="4" fill="#EEEEF0"/>
<path fill-rule="evenodd" clip-rule="evenodd" d="M341.568 28.3825C341.568 28.5794 341.589 28.739 341.626 28.8561C341.669 28.9732 341.722 29.1009 341.796 29.2392C341.823 29.2818 341.834 29.3244 341.834 29.3616C341.834 29.4148 341.802 29.468 341.733 29.5213L341.397 29.7448C341.349 29.7767 341.302 29.7927 341.259 29.7927C341.206 29.7927 341.153 29.766 341.099 29.7182C341.025 29.6383 340.961 29.5532 340.908 29.468C340.855 29.3776 340.801 29.2765 340.743 29.1541C340.328 29.6437 339.806 29.8884 339.178 29.8884C338.731 29.8884 338.375 29.7607 338.114 29.5053C337.853 29.2499 337.72 28.9093 337.72 28.4836C337.72 28.0313 337.88 27.6641 338.204 27.3874C338.529 27.1107 338.96 26.9723 339.508 26.9723C339.689 26.9723 339.875 26.9883 340.072 27.0149C340.269 27.0415 340.471 27.084 340.684 27.1319V26.7435C340.684 26.339 340.599 26.057 340.434 25.892C340.264 25.7271 339.977 25.6473 339.567 25.6473C339.381 25.6473 339.189 25.6685 338.992 25.7164C338.795 25.7643 338.604 25.8229 338.417 25.8974C338.332 25.9346 338.268 25.9559 338.231 25.9665C338.194 25.9772 338.167 25.9825 338.146 25.9825C338.071 25.9825 338.034 25.9293 338.034 25.8175V25.5568C338.034 25.4717 338.045 25.4078 338.071 25.3705C338.098 25.3333 338.146 25.296 338.22 25.2588C338.407 25.163 338.63 25.0832 338.891 25.0193C339.152 24.9502 339.428 24.9182 339.721 24.9182C340.354 24.9182 340.817 25.0619 341.115 25.3493C341.408 25.6366 341.557 26.073 341.557 26.6583V28.3825H341.568ZM339.407 29.1913C339.583 29.1913 339.764 29.1594 339.955 29.0955C340.147 29.0317 340.317 28.9146 340.461 28.755C340.546 28.6539 340.61 28.5421 340.642 28.4144C340.674 28.2867 340.695 28.1324 340.695 27.9514V27.7279C340.541 27.6907 340.376 27.6588 340.205 27.6375C340.035 27.6162 339.87 27.6055 339.705 27.6055C339.349 27.6055 339.088 27.6747 338.912 27.8184C338.737 27.9621 338.651 28.1643 338.651 28.4304C338.651 28.6805 338.715 28.8667 338.848 28.9944C338.976 29.1275 339.162 29.1913 339.407 29.1913ZM343.68 29.766C343.584 29.766 343.521 29.7501 343.478 29.7128C343.435 29.6809 343.398 29.6064 343.366 29.5053L342.116 25.3918C342.084 25.2854 342.068 25.2162 342.068 25.179C342.068 25.0938 342.11 25.0459 342.196 25.0459H342.717C342.818 25.0459 342.887 25.0619 342.925 25.0992C342.967 25.1311 342.999 25.2056 343.031 25.3067L343.925 28.8295L344.755 25.3067C344.782 25.2003 344.814 25.1311 344.856 25.0992C344.899 25.0672 344.973 25.0459 345.069 25.0459H345.495C345.596 25.0459 345.665 25.0619 345.708 25.0992C345.75 25.1311 345.788 25.2056 345.809 25.3067L346.65 28.872L347.57 25.3067C347.602 25.2003 347.639 25.1311 347.677 25.0992C347.719 25.0672 347.788 25.0459 347.884 25.0459H348.379C348.464 25.0459 348.512 25.0885 348.512 25.179C348.512 25.2017 348.508 25.2244 348.504 25.2505L348.501 25.2641C348.496 25.296 348.485 25.3386 348.464 25.3972L347.182 29.5106C347.15 29.617 347.113 29.6862 347.07 29.7182C347.027 29.7501 346.958 29.7714 346.868 29.7714H346.41C346.309 29.7714 346.24 29.7554 346.197 29.7182C346.155 29.6809 346.117 29.6117 346.096 29.5053L345.271 26.073L344.452 29.5C344.425 29.6064 344.393 29.6756 344.351 29.7128C344.308 29.7501 344.234 29.766 344.138 29.766H343.68ZM350.518 29.9097C350.242 29.9097 349.965 29.8778 349.699 29.8139C349.433 29.7501 349.225 29.6809 349.087 29.6011C349.002 29.5532 348.943 29.5 348.922 29.4521C348.901 29.4042 348.89 29.351 348.89 29.3031V29.0317C348.89 28.9199 348.932 28.8667 349.012 28.8667C349.044 28.8667 349.076 28.872 349.108 28.8827C349.129 28.8896 349.156 28.9009 349.187 28.9137L349.187 28.9138C349.204 28.9208 349.222 28.9284 349.241 28.9359C349.422 29.0157 349.619 29.0796 349.826 29.1222C350.039 29.1647 350.247 29.186 350.46 29.186C350.795 29.186 351.056 29.1275 351.237 29.0104C351.418 28.8933 351.513 28.723 351.513 28.5049C351.513 28.3559 351.465 28.2335 351.37 28.1324C351.274 28.0313 351.093 27.9408 350.832 27.8557L350.061 27.6162C349.672 27.4938 349.385 27.3129 349.209 27.0734C349.034 26.8393 348.943 26.5785 348.943 26.3018C348.943 26.0783 348.991 25.8814 349.087 25.7111C349.183 25.5408 349.31 25.3918 349.47 25.2748C349.63 25.1524 349.811 25.0619 350.023 24.998C350.236 24.9342 350.46 24.9076 350.694 24.9076C350.811 24.9076 350.933 24.9129 351.05 24.9289C351.173 24.9448 351.285 24.9661 351.396 24.9874C351.503 25.014 351.604 25.0406 351.7 25.0725C351.795 25.1045 351.87 25.1364 351.923 25.1683C351.998 25.2109 352.051 25.2535 352.083 25.3014C352.115 25.3439 352.131 25.4025 352.131 25.477V25.7271C352.131 25.8388 352.088 25.8974 352.008 25.8974C351.966 25.8974 351.897 25.8761 351.806 25.8335C351.503 25.6952 351.162 25.626 350.784 25.626C350.481 25.626 350.242 25.6739 350.077 25.775C349.912 25.8761 349.826 26.0304 349.826 26.2486C349.826 26.3976 349.88 26.5253 349.986 26.6264C350.093 26.7275 350.289 26.8286 350.571 26.9191L351.327 27.1585C351.71 27.2809 351.987 27.4512 352.152 27.6694C352.317 27.8876 352.397 28.1377 352.397 28.4144C352.397 28.6432 352.349 28.8508 352.258 29.0317C352.163 29.2126 352.035 29.3723 351.87 29.5C351.705 29.633 351.508 29.7288 351.279 29.798C351.04 29.8725 350.79 29.9097 350.518 29.9097ZM351.524 32.4959C349.773 33.789 347.23 34.4754 345.042 34.4754C341.977 34.4754 339.215 33.342 337.129 31.4582C336.965 31.3092 337.114 31.107 337.31 31.224C339.567 32.5331 342.35 33.326 345.229 33.326C347.171 33.326 349.305 32.9216 351.269 32.0914C351.561 31.9584 351.811 32.283 351.524 32.4959ZM350.204 31.5966C350.774 31.5274 352.029 31.3784 352.253 31.6657C352.476 31.9478 352.003 33.1344 351.79 33.6613C351.726 33.8209 351.864 33.8848 352.008 33.7624C352.945 32.9748 353.19 31.3305 352.998 31.091C352.806 30.8569 351.162 30.6547 350.162 31.3571C350.007 31.4688 350.034 31.6178 350.204 31.5966Z" fill="#2563EB"/>
<rect x="328.227" y="53.5855" width="34.939" height="34.939" rx="4" fill="#EEEEF0"/>
<path fill-rule="evenodd" clip-rule="evenodd" d="M345.695 79.055C350.114 79.055 353.695 75.4733 353.695 71.055C353.695 66.6367 350.114 63.055 345.695 63.055C341.278 63.055 337.697 66.6346 337.695 71.051H340.739C340.741 68.3157 342.959 66.099 345.695 66.099C348.432 66.099 350.651 68.3179 350.651 71.055C350.651 73.7922 348.432 76.0111 345.695 76.0111L345.686 76.0111V79.055L345.695 79.055ZM345.686 72.8577H342.592V75.9513H345.686V72.8577ZM342.592 75.9614H340.215V73.9734H338.227V75.9614H340.215V78.3387H342.592V75.9614Z" fill="#2563EB"/>
<rect x="328.227" y="96.6713" width="34.939" height="34.939" rx="4" fill="#EEEEF0"/>
<g clip-path="url(#clip0_4973_61729)">
<path fill-rule="evenodd" clip-rule="evenodd" d="M346.129 106.483C345.855 106.351 345.536 106.351 345.261 106.483L339.681 109.17C339.407 109.302 339.207 109.552 339.14 109.849L337.761 115.888C337.694 116.184 337.765 116.496 337.955 116.734L341.816 121.576C342.006 121.814 342.294 121.953 342.598 121.953H348.792C349.097 121.953 349.384 121.814 349.574 121.576L353.436 116.734C353.626 116.496 353.697 116.184 353.629 115.888L352.251 109.849C352.183 109.552 351.984 109.302 351.71 109.17L346.129 106.483ZM345.457 109.006C345.518 108.938 345.604 108.896 345.695 108.891L345.696 108.889C345.787 108.894 345.873 108.935 345.934 109.003C345.995 109.071 346.027 109.161 346.023 109.252V109.345C346.014 109.45 345.999 109.553 345.978 109.656C345.946 109.852 345.934 110.051 345.941 110.249C345.954 110.316 345.992 110.374 346.047 110.413C346.048 110.418 346.048 110.425 346.049 110.434C346.051 110.468 346.055 110.524 346.055 110.558C347.089 110.652 348.054 111.118 348.77 111.87L348.894 111.781C348.961 111.792 349.03 111.785 349.092 111.759C349.252 111.641 349.4 111.507 349.533 111.361C349.601 111.28 349.674 111.204 349.751 111.132C349.771 111.114 349.801 111.091 349.824 111.074C349.856 111.039 349.895 111.012 349.939 110.995C349.982 110.977 350.029 110.968 350.076 110.97C350.123 110.972 350.17 110.984 350.212 111.005C350.254 111.027 350.291 111.057 350.32 111.093C350.35 111.13 350.371 111.173 350.382 111.218C350.394 111.264 350.396 111.312 350.387 111.358C350.379 111.404 350.36 111.448 350.333 111.487C350.307 111.526 350.272 111.558 350.231 111.582C350.225 111.587 350.218 111.593 350.21 111.599C350.193 111.614 350.174 111.629 350.159 111.64C350.071 111.698 349.98 111.751 349.887 111.798C349.714 111.896 349.551 112.011 349.4 112.141C349.356 112.192 349.334 112.258 349.339 112.326L349.222 112.43C349.802 113.294 350.045 114.341 349.904 115.373L350.036 115.411C350.068 115.472 350.117 115.522 350.177 115.557C350.368 115.608 350.565 115.64 350.763 115.653C350.868 115.656 350.972 115.664 351.076 115.679C351.094 115.682 351.117 115.688 351.138 115.693C351.15 115.696 351.161 115.699 351.172 115.701C351.217 115.707 351.26 115.723 351.299 115.747C351.338 115.77 351.371 115.802 351.397 115.84C351.423 115.877 351.441 115.919 351.449 115.964C351.458 116.009 351.457 116.055 351.447 116.099C351.437 116.144 351.418 116.185 351.391 116.222C351.364 116.259 351.329 116.289 351.289 116.312C351.25 116.334 351.206 116.348 351.161 116.353C351.115 116.358 351.07 116.353 351.026 116.339H351.015C351.006 116.337 350.996 116.335 350.986 116.333C350.967 116.329 350.946 116.325 350.93 116.321C350.832 116.288 350.735 116.251 350.64 116.207C350.456 116.133 350.265 116.077 350.07 116.04C350.002 116.037 349.937 116.062 349.887 116.107C349.864 116.102 349.79 116.089 349.747 116.082C349.431 117.078 348.758 117.922 347.859 118.454C347.875 118.499 347.893 118.544 347.914 118.586C347.88 118.645 347.871 118.714 347.888 118.78C347.968 118.962 348.065 119.136 348.179 119.299C348.242 119.382 348.301 119.469 348.355 119.56C348.366 119.58 348.38 119.61 348.392 119.635C348.394 119.639 348.396 119.643 348.397 119.647C348.421 119.687 348.435 119.73 348.44 119.776C348.446 119.821 348.441 119.867 348.428 119.91C348.415 119.954 348.392 119.994 348.362 120.028C348.333 120.063 348.296 120.091 348.255 120.11C348.213 120.13 348.169 120.14 348.123 120.142C348.078 120.143 348.032 120.135 347.99 120.117C347.948 120.1 347.91 120.074 347.878 120.041C347.847 120.009 347.822 119.97 347.806 119.927C347.794 119.902 347.777 119.867 347.766 119.843C347.728 119.745 347.696 119.645 347.671 119.544C347.614 119.353 347.539 119.169 347.446 118.994C347.406 118.939 347.346 118.903 347.279 118.892C347.269 118.879 347.246 118.837 347.226 118.801C347.219 118.788 347.212 118.776 347.206 118.766C346.234 119.135 345.159 119.132 344.188 118.758L344.116 118.893C344.063 118.903 344.014 118.929 343.976 118.967C343.864 119.15 343.779 119.348 343.722 119.554C343.696 119.656 343.665 119.756 343.628 119.854C343.62 119.871 343.61 119.891 343.601 119.91C343.596 119.92 343.591 119.929 343.587 119.938C343.571 119.981 343.547 120.02 343.515 120.053C343.484 120.086 343.445 120.112 343.403 120.129C343.361 120.147 343.315 120.155 343.27 120.154C343.224 120.153 343.179 120.142 343.138 120.122C343.096 120.103 343.06 120.075 343.03 120.04C343 120.005 342.978 119.965 342.964 119.921C342.951 119.877 342.947 119.831 342.953 119.786C342.958 119.741 342.973 119.697 342.997 119.658C343.001 119.648 343.006 119.638 343.011 119.626C343.021 119.607 343.03 119.585 343.039 119.57C343.092 119.479 343.151 119.392 343.214 119.308C343.33 119.141 343.429 118.962 343.511 118.776C343.52 118.713 343.509 118.648 343.482 118.591L343.541 118.445C342.645 117.917 341.974 117.08 341.653 116.09L341.508 116.115C341.453 116.076 341.387 116.053 341.32 116.049C341.125 116.086 340.934 116.142 340.75 116.217C340.655 116.26 340.558 116.297 340.459 116.329C340.442 116.334 340.419 116.339 340.397 116.344C340.389 116.345 340.382 116.347 340.375 116.348H340.363C340.32 116.362 340.274 116.367 340.229 116.362C340.184 116.358 340.14 116.344 340.1 116.321C340.061 116.299 340.026 116.268 339.999 116.231C339.972 116.195 339.953 116.153 339.943 116.109C339.932 116.064 339.932 116.018 339.94 115.974C339.949 115.929 339.967 115.886 339.993 115.849C340.019 115.812 340.052 115.78 340.091 115.756C340.13 115.732 340.173 115.717 340.218 115.711H340.223L340.228 115.709C340.254 115.703 340.287 115.695 340.31 115.69C340.414 115.676 340.519 115.667 340.624 115.665C340.822 115.652 341.018 115.619 341.21 115.568C341.267 115.531 341.315 115.481 341.35 115.423L341.488 115.383C341.339 114.351 341.577 113.3 342.155 112.432L342.05 112.339C342.047 112.271 342.024 112.206 341.985 112.15C341.834 112.02 341.671 111.906 341.498 111.808C341.405 111.76 341.315 111.708 341.228 111.65C341.215 111.64 341.2 111.628 341.185 111.616C341.176 111.609 341.168 111.601 341.16 111.595H341.155C341.08 111.542 341.03 111.461 341.015 111.371C341 111.28 341.021 111.188 341.074 111.113C341.106 111.075 341.146 111.044 341.191 111.024C341.236 111.004 341.286 110.995 341.335 110.997C341.418 111.001 341.498 111.031 341.563 111.083C341.566 111.085 341.569 111.087 341.572 111.09C341.593 111.106 341.618 111.126 341.636 111.141C341.713 111.213 341.785 111.29 341.854 111.37C341.987 111.517 342.135 111.65 342.294 111.769C342.354 111.8 342.424 111.807 342.489 111.788C342.5 111.794 342.525 111.812 342.551 111.831C342.571 111.845 342.592 111.86 342.607 111.871C343.182 111.26 343.926 110.835 344.745 110.65C344.939 110.606 345.137 110.576 345.336 110.56L345.344 110.421C345.394 110.376 345.431 110.317 345.45 110.252C345.457 110.053 345.445 109.854 345.413 109.658C345.392 109.556 345.377 109.452 345.368 109.347V109.264V109.255C345.364 109.163 345.396 109.074 345.457 109.006ZM345.188 113.143L345.286 111.428C345.169 111.442 345.054 111.462 344.939 111.488C344.327 111.626 343.765 111.932 343.317 112.372L344.724 113.361C344.766 113.391 344.815 113.409 344.866 113.413C344.918 113.418 344.97 113.409 345.016 113.386C345.063 113.364 345.103 113.33 345.132 113.287C345.161 113.245 345.178 113.195 345.181 113.143H345.188ZM348.066 112.372C347.534 111.851 346.845 111.519 346.106 111.428L346.205 113.146C346.208 113.197 346.225 113.247 346.254 113.29C346.284 113.333 346.323 113.367 346.37 113.389C346.417 113.411 346.469 113.421 346.52 113.416C346.572 113.412 346.621 113.393 346.663 113.363H346.668L348.066 112.372ZM344.089 114.162L342.804 113.013V113.013C342.414 113.651 342.246 114.401 342.329 115.145L343.976 114.67V114.664C344.025 114.65 344.07 114.622 344.106 114.585C344.142 114.547 344.166 114.5 344.178 114.45C344.19 114.399 344.187 114.347 344.172 114.297C344.156 114.248 344.127 114.203 344.089 114.169V114.162ZM349.069 115.138C349.141 114.395 348.968 113.649 348.577 113.013L348.579 113.019L347.302 114.162C347.263 114.197 347.234 114.241 347.219 114.291C347.203 114.34 347.201 114.393 347.212 114.443C347.224 114.494 347.249 114.54 347.284 114.578C347.32 114.616 347.365 114.643 347.415 114.658V114.665L349.069 115.138ZM345.958 114.247H345.432L345.103 114.655L345.221 115.164L345.695 115.392L346.167 115.164L346.285 114.656L345.958 114.247ZM347.185 115.652C347.163 115.648 347.141 115.646 347.119 115.647V115.652C347.072 115.655 347.027 115.668 346.987 115.692C346.948 115.716 346.914 115.749 346.889 115.788C346.865 115.828 346.85 115.872 346.846 115.919C346.843 115.965 346.85 116.011 346.868 116.054L347.529 117.652C348.159 117.248 348.637 116.647 348.888 115.942L347.185 115.652ZM344.392 115.691C344.351 115.668 344.305 115.655 344.258 115.654L344.256 115.65C344.237 115.65 344.218 115.652 344.199 115.655L342.511 115.942C342.764 116.643 343.242 117.241 343.87 117.643L344.524 116.062L344.519 116.056C344.537 116.012 344.544 115.965 344.54 115.918C344.535 115.871 344.52 115.826 344.494 115.786C344.468 115.747 344.433 115.714 344.392 115.691ZM345.838 116.385C345.791 116.358 345.738 116.345 345.684 116.347V116.35C345.634 116.352 345.585 116.367 345.542 116.393C345.499 116.42 345.464 116.458 345.44 116.502L344.61 118.003C345.204 118.206 345.843 118.239 346.455 118.098C346.567 118.073 346.678 118.042 346.787 118.005L345.955 116.499H345.949C345.923 116.451 345.885 116.412 345.838 116.385Z" fill="#2563EB"/>
</g>
<rect x="0.833984" y="8.12592" width="41.4092" height="41.4092" rx="4" fill="#EEEEF0"/>
<path fill-rule="evenodd" clip-rule="evenodd" d="M19.0974 19.7189C19.0974 18.3996 20.1669 17.3302 21.4861 17.3302C22.8053 17.3302 23.8748 18.3996 23.8748 19.7189C23.8748 21.0381 22.8053 22.1075 21.4861 22.1075C20.1669 22.1075 19.0974 21.0381 19.0974 19.7189ZM21.4861 16.3302C19.6146 16.3302 18.0974 17.8473 18.0974 19.7189C18.0974 20.8927 18.6943 21.9272 19.6011 22.5353C18.8769 22.8833 18.2639 23.4254 17.8296 24.0937H14.0254C13.7492 24.0937 13.5254 24.3176 13.5254 24.5937V31.8308C13.5254 32.107 13.7492 32.3308 14.0254 32.3308H29.0415C29.3176 32.3308 29.5415 32.107 29.5415 31.8308V24.5937C29.5415 24.3176 29.3176 24.0937 29.0415 24.0937H25.1424C24.7081 23.4255 24.0951 22.8834 23.371 22.5354C24.2779 21.9273 24.8748 20.8928 24.8748 19.7189C24.8748 17.8473 23.3576 16.3302 21.4861 16.3302ZM21.486 23.1076C22.4142 23.1076 23.2548 23.4841 23.863 24.0937H19.1089C19.7171 23.4841 20.5577 23.1076 21.486 23.1076ZM14.5254 25.0937V31.3308H28.5415V25.0937H14.5254ZM22.6902 26.5093C22.7846 26.2498 22.6507 25.9629 22.3912 25.8685C22.1317 25.7742 21.8448 25.908 21.7504 26.1676L20.3876 29.9153C20.2933 30.1748 20.4271 30.4617 20.6867 30.556C20.9462 30.6504 21.2331 30.5165 21.3274 30.257L22.6902 26.5093ZM20.1723 27.5234C20.3675 27.3281 20.3675 27.0115 20.1723 26.8163C19.977 26.621 19.6604 26.621 19.4652 26.8163L18.4226 27.8589C18.2273 28.0541 18.2273 28.3707 18.4226 28.566L19.4652 29.6085C19.6604 29.8038 19.977 29.8038 20.1723 29.6085C20.3675 29.4133 20.3675 29.0967 20.1723 28.9014L19.4833 28.2124L20.1723 27.5234ZM22.9055 26.8163C23.1008 26.621 23.4173 26.621 23.6126 26.8163L24.6552 27.8589C24.8505 28.0541 24.8505 28.3707 24.6552 28.566L23.6126 29.6085C23.4173 29.8038 23.1008 29.8038 22.9055 29.6085C22.7102 29.4133 22.7102 29.0967 22.9055 28.9014L23.5945 28.2124L22.9055 27.5234C22.7102 27.3281 22.7102 27.0115 22.9055 26.8163Z" fill="#2563EB"/>
<path d="M11.843 40.3305H10.8572V37.4214H11.8629C12.1518 37.4214 12.3999 37.4797 12.6072 37.5961C12.8156 37.7117 12.9756 37.8779 13.0874 38.0947C13.1991 38.3116 13.255 38.571 13.255 38.8731C13.255 39.1762 13.1986 39.4366 13.0859 39.6544C12.9742 39.8722 12.8127 40.0393 12.6016 40.1558C12.3913 40.2723 12.1385 40.3305 11.843 40.3305ZM11.3842 39.8745H11.8175C12.0201 39.8745 12.1892 39.8376 12.3246 39.7638C12.46 39.6889 12.5618 39.5777 12.63 39.4299C12.6982 39.2813 12.7322 39.0957 12.7322 38.8731C12.7322 38.6506 12.6982 38.4659 12.63 38.3191C12.5618 38.1714 12.4609 38.0611 12.3274 37.9882C12.1948 37.9143 12.0301 37.8774 11.8331 37.8774H11.3842V39.8745ZM14.6989 40.3731C14.4801 40.3731 14.2912 40.3277 14.1321 40.2368C13.974 40.1449 13.8523 40.0152 13.767 39.8476C13.6818 39.679 13.6392 39.4806 13.6392 39.2524C13.6392 39.028 13.6818 38.831 13.767 38.6615C13.8532 38.491 13.9735 38.3584 14.1278 38.2638C14.2822 38.1681 14.4635 38.1203 14.6719 38.1203C14.8063 38.1203 14.9332 38.1421 15.0526 38.1856C15.1728 38.2282 15.2789 38.2945 15.3707 38.3845C15.4635 38.4745 15.5365 38.589 15.5895 38.7282C15.6425 38.8665 15.669 39.0313 15.669 39.2226V39.3802H13.8807V39.0336H15.1761C15.1752 38.9352 15.1539 38.8476 15.1122 38.7709C15.0705 38.6932 15.0123 38.6321 14.9375 38.5876C14.8636 38.5431 14.7775 38.5209 14.679 38.5209C14.5739 38.5209 14.4815 38.5464 14.402 38.5976C14.3224 38.6477 14.2604 38.714 14.2159 38.7964C14.1723 38.8779 14.1501 38.9674 14.1491 39.0649V39.3674C14.1491 39.4943 14.1723 39.6032 14.2188 39.6941C14.2652 39.7841 14.33 39.8532 14.4134 39.9015C14.4967 39.9489 14.5942 39.9726 14.706 39.9726C14.7808 39.9726 14.8485 39.9621 14.9091 39.9413C14.9697 39.9195 15.0223 39.8878 15.0668 39.8461C15.1113 39.8045 15.1449 39.7529 15.1676 39.6913L15.6477 39.7453C15.6174 39.8722 15.5597 39.983 15.4744 40.0777C15.3902 40.1714 15.2822 40.2443 15.1506 40.2964C15.0189 40.3476 14.8684 40.3731 14.6989 40.3731ZM17.9904 38.1487L17.2134 40.3305H16.6452L15.8683 38.1487H16.4165L16.918 39.7694H16.9407L17.4435 38.1487H17.9904ZM19.2379 40.3731C19.0192 40.3731 18.8303 40.3277 18.6712 40.2368C18.513 40.1449 18.3913 40.0152 18.3061 39.8476C18.2209 39.679 18.1783 39.4806 18.1783 39.2524C18.1783 39.028 18.2209 38.831 18.3061 38.6615C18.3923 38.491 18.5125 38.3584 18.6669 38.2638C18.8213 38.1681 19.0026 38.1203 19.2109 38.1203C19.3454 38.1203 19.4723 38.1421 19.5916 38.1856C19.7119 38.2282 19.8179 38.2945 19.9098 38.3845C20.0026 38.4745 20.0755 38.589 20.1286 38.7282C20.1816 38.8665 20.2081 39.0313 20.2081 39.2226V39.3802H18.4197V39.0336H19.7152C19.7143 38.9352 19.6929 38.8476 19.6513 38.7709C19.6096 38.6932 19.5514 38.6321 19.4766 38.5876C19.4027 38.5431 19.3165 38.5209 19.218 38.5209C19.1129 38.5209 19.0206 38.5464 18.9411 38.5976C18.8615 38.6477 18.7995 38.714 18.755 38.7964C18.7114 38.8779 18.6892 38.9674 18.6882 39.0649V39.3674C18.6882 39.4943 18.7114 39.6032 18.7578 39.6941C18.8042 39.7841 18.8691 39.8532 18.9524 39.9015C19.0357 39.9489 19.1333 39.9726 19.245 39.9726C19.3198 39.9726 19.3875 39.9621 19.4482 39.9413C19.5088 39.9195 19.5613 39.8878 19.6058 39.8461C19.6503 39.8045 19.6839 39.7529 19.7067 39.6913L20.1868 39.7453C20.1565 39.8722 20.0987 39.983 20.0135 40.0777C19.9292 40.1714 19.8213 40.2443 19.6896 40.2964C19.558 40.3476 19.4074 40.3731 19.2379 40.3731ZM21.1573 37.4214V40.3305H20.6431V37.4214H21.1573ZM22.6378 40.3731C22.4247 40.3731 22.2401 40.3263 22.0838 40.2325C21.9276 40.1388 21.8063 40.0076 21.7202 39.839C21.6349 39.6705 21.5923 39.4735 21.5923 39.2481C21.5923 39.0227 21.6349 38.8253 21.7202 38.6558C21.8063 38.4863 21.9276 38.3547 22.0838 38.2609C22.2401 38.1672 22.4247 38.1203 22.6378 38.1203C22.8509 38.1203 23.0355 38.1672 23.1918 38.2609C23.348 38.3547 23.4688 38.4863 23.554 38.6558C23.6402 38.8253 23.6832 39.0227 23.6832 39.2481C23.6832 39.4735 23.6402 39.6705 23.554 39.839C23.4688 40.0076 23.348 40.1388 23.1918 40.2325C23.0355 40.3263 22.8509 40.3731 22.6378 40.3731ZM22.6406 39.9612C22.7562 39.9612 22.8527 39.9295 22.9304 39.866C23.008 39.8016 23.0658 39.7155 23.1037 39.6075C23.1425 39.4995 23.1619 39.3793 23.1619 39.2467C23.1619 39.1132 23.1425 38.9924 23.1037 38.8845C23.0658 38.7756 23.008 38.6889 22.9304 38.6245C22.8527 38.5602 22.7562 38.528 22.6406 38.528C22.5223 38.528 22.4238 38.5602 22.3452 38.6245C22.2675 38.6889 22.2093 38.7756 22.1705 38.8845C22.1326 38.9924 22.1136 39.1132 22.1136 39.2467C22.1136 39.3793 22.1326 39.4995 22.1705 39.6075C22.2093 39.7155 22.2675 39.8016 22.3452 39.866C22.4238 39.9295 22.5223 39.9612 22.6406 39.9612ZM24.1197 41.1487V38.1487H24.6254V38.5095H24.6552C24.6817 38.4565 24.7191 38.4001 24.7674 38.3405C24.8157 38.2799 24.881 38.2282 24.9634 38.1856C25.0458 38.1421 25.1509 38.1203 25.2788 38.1203C25.4473 38.1203 25.5993 38.1634 25.7347 38.2495C25.8711 38.3348 25.979 38.4612 26.0586 38.6288C26.1391 38.7955 26.1793 39 26.1793 39.2424C26.1793 39.482 26.14 39.6856 26.0614 39.8532C25.9828 40.0209 25.8758 40.1487 25.7404 40.2368C25.605 40.3248 25.4516 40.3689 25.2802 40.3689C25.1552 40.3689 25.0515 40.348 24.9691 40.3064C24.8867 40.2647 24.8204 40.2145 24.7702 40.1558C24.721 40.0961 24.6826 40.0398 24.6552 39.9868H24.6339V41.1487H24.1197ZM24.6239 39.2396C24.6239 39.3807 24.6438 39.5043 24.6836 39.6103C24.7243 39.7164 24.7826 39.7993 24.8583 39.8589C24.935 39.9176 25.0278 39.947 25.1367 39.947C25.2504 39.947 25.3455 39.9167 25.4222 39.8561C25.4989 39.7945 25.5567 39.7107 25.5955 39.6047C25.6353 39.4977 25.6552 39.376 25.6552 39.2396C25.6552 39.1042 25.6358 38.9839 25.5969 38.8788C25.5581 38.7737 25.5004 38.6913 25.4237 38.6316C25.3469 38.572 25.2513 38.5422 25.1367 38.5422C25.0269 38.5422 24.9336 38.571 24.8569 38.6288C24.7802 38.6866 24.7219 38.7675 24.6822 38.8717C24.6433 38.9759 24.6239 39.0985 24.6239 39.2396ZM27.5856 40.3731C27.3668 40.3731 27.1779 40.3277 27.0188 40.2368C26.8607 40.1449 26.739 40.0152 26.6538 39.8476C26.5685 39.679 26.5259 39.4806 26.5259 39.2524C26.5259 39.028 26.5685 38.831 26.6538 38.6615C26.7399 38.491 26.8602 38.3584 27.0146 38.2638C27.1689 38.1681 27.3503 38.1203 27.5586 38.1203C27.6931 38.1203 27.82 38.1421 27.9393 38.1856C28.0595 38.2282 28.1656 38.2945 28.2575 38.3845C28.3503 38.4745 28.4232 38.589 28.4762 38.7282C28.5292 38.8665 28.5558 39.0313 28.5558 39.2226V39.3802H26.7674V39.0336H28.0629C28.0619 38.9352 28.0406 38.8476 27.9989 38.7709C27.9573 38.6932 27.899 38.6321 27.8242 38.5876C27.7504 38.5431 27.6642 38.5209 27.5657 38.5209C27.4606 38.5209 27.3683 38.5464 27.2887 38.5976C27.2092 38.6477 27.1471 38.714 27.1026 38.7964C27.0591 38.8779 27.0368 38.9674 27.0359 39.0649V39.3674C27.0359 39.4943 27.0591 39.6032 27.1055 39.6941C27.1519 39.7841 27.2167 39.8532 27.3001 39.9015C27.3834 39.9489 27.4809 39.9726 27.5927 39.9726C27.6675 39.9726 27.7352 39.9621 27.7958 39.9413C27.8564 39.9195 27.909 39.8878 27.9535 39.8461C27.998 39.8045 28.0316 39.7529 28.0543 39.6913L28.5344 39.7453C28.5041 39.8722 28.4464 39.983 28.3612 40.0777C28.2769 40.1714 28.1689 40.2443 28.0373 40.2964C27.9057 40.3476 27.7551 40.3731 27.5856 40.3731ZM28.9908 40.3305V38.1487H29.4893V38.5123H29.5121C29.5518 38.3864 29.62 38.2893 29.7166 38.2211C29.8142 38.152 29.9254 38.1174 30.0504 38.1174C30.0788 38.1174 30.1106 38.1189 30.1456 38.1217C30.1816 38.1236 30.2114 38.1269 30.2351 38.1316V38.6047C30.2133 38.5971 30.1787 38.5905 30.1314 38.5848C30.085 38.5781 30.04 38.5748 29.9964 38.5748C29.9027 38.5748 29.8184 38.5952 29.7436 38.6359C29.6697 38.6757 29.6115 38.7311 29.5689 38.8021C29.5263 38.8731 29.505 38.955 29.505 39.0478V40.3305H28.9908ZM32.3011 38.7254L31.8324 38.7765C31.8191 38.7292 31.7959 38.6847 31.7628 38.643C31.7306 38.6013 31.687 38.5677 31.6321 38.5422C31.5772 38.5166 31.5099 38.5038 31.4304 38.5038C31.3234 38.5038 31.2334 38.527 31.1605 38.5734C31.0885 38.6198 31.053 38.6799 31.054 38.7538C31.053 38.8173 31.0762 38.8689 31.1236 38.9086C31.1719 38.9484 31.2514 38.9811 31.3622 39.0066L31.7344 39.0862C31.9408 39.1307 32.0942 39.2013 32.1946 39.2978C32.2959 39.3944 32.3471 39.5209 32.348 39.6771C32.3471 39.8144 32.3068 39.9356 32.2273 40.0407C32.1487 40.1449 32.0393 40.2263 31.8991 40.2851C31.759 40.3438 31.598 40.3731 31.4162 40.3731C31.1491 40.3731 30.9342 40.3173 30.7713 40.2055C30.6084 40.0928 30.5114 39.9361 30.4801 39.7353L30.9815 39.687C31.0043 39.7855 31.0526 39.8599 31.1264 39.9101C31.2003 39.9602 31.2964 39.9853 31.4148 39.9853C31.5369 39.9853 31.6349 39.9602 31.7088 39.9101C31.7836 39.8599 31.821 39.7978 31.821 39.724C31.821 39.6615 31.7969 39.6099 31.7486 39.5691C31.7012 39.5284 31.6274 39.4972 31.527 39.4754L31.1548 39.3973C30.9455 39.3537 30.7907 39.2803 30.6903 39.1771C30.59 39.0729 30.5402 38.9413 30.5412 38.7822C30.5402 38.6477 30.5767 38.5313 30.6506 38.4328C30.7254 38.3334 30.8291 38.2566 30.9616 38.2027C31.0952 38.1477 31.2491 38.1203 31.4233 38.1203C31.679 38.1203 31.8802 38.1747 32.027 38.2836C32.1747 38.3925 32.2661 38.5398 32.3011 38.7254Z" fill="#2563EB"/>
<rect x="0.833984" y="94.2972" width="41.4092" height="41.4092" rx="4" fill="#EEEEF0"/>
<path fill-rule="evenodd" clip-rule="evenodd" d="M19.0974 105.89C19.0974 104.571 20.1669 103.501 21.4861 103.501C22.8053 103.501 23.8748 104.571 23.8748 105.89C23.8748 107.209 22.8053 108.279 21.4861 108.279C20.1669 108.279 19.0974 107.209 19.0974 105.89ZM21.4861 102.501C19.6146 102.501 18.0974 104.019 18.0974 105.89C18.0974 107.064 18.6943 108.098 19.6011 108.707C18.8769 109.055 18.2639 109.597 17.8296 110.265H14.0254C13.7492 110.265 13.5254 110.489 13.5254 110.765V118.002C13.5254 118.278 13.7492 118.502 14.0254 118.502H29.0415C29.3176 118.502 29.5415 118.278 29.5415 118.002V110.765C29.5415 110.489 29.3176 110.265 29.0415 110.265H25.1424C24.7081 109.597 24.0951 109.055 23.371 108.707C24.2779 108.099 24.8748 107.064 24.8748 105.89C24.8748 104.019 23.3576 102.501 21.4861 102.501ZM21.486 109.279C22.4142 109.279 23.2548 109.655 23.863 110.265H19.1089C19.7171 109.655 20.5577 109.279 21.486 109.279ZM14.5254 111.265V117.502H28.5415V111.265H14.5254ZM22.6902 112.681C22.7846 112.421 22.6507 112.134 22.3912 112.04C22.1317 111.945 21.8448 112.079 21.7504 112.339L20.3876 116.087C20.2933 116.346 20.4271 116.633 20.6867 116.727C20.9462 116.822 21.2331 116.688 21.3274 116.428L22.6902 112.681ZM20.1723 113.695C20.3675 113.499 20.3675 113.183 20.1723 112.988C19.977 112.792 19.6604 112.792 19.4652 112.988L18.4226 114.03C18.2273 114.225 18.2273 114.542 18.4226 114.737L19.4652 115.78C19.6604 115.975 19.977 115.975 20.1723 115.78C20.3675 115.585 20.3675 115.268 20.1723 115.073L19.4833 114.384L20.1723 113.695ZM22.9055 112.988C23.1008 112.792 23.4173 112.792 23.6126 112.988L24.6552 114.03C24.8505 114.225 24.8505 114.542 24.6552 114.737L23.6126 115.78C23.4173 115.975 23.1008 115.975 22.9055 115.78C22.7102 115.585 22.7102 115.268 22.9055 115.073L23.5945 114.384L22.9055 113.695C22.7102 113.499 22.7102 113.183 22.9055 112.988Z" fill="#2563EB"/>
<path d="M8.83185 126.502V123.593H9.92276C10.1462 123.593 10.3337 123.634 10.4853 123.718C10.6377 123.801 10.7528 123.916 10.8304 124.061C10.909 124.206 10.9483 124.371 10.9483 124.556C10.9483 124.742 10.909 124.908 10.8304 125.053C10.7518 125.198 10.6358 125.312 10.4824 125.395C10.329 125.478 10.1401 125.519 9.91566 125.519H9.19265V125.086H9.84464C9.97532 125.086 10.0823 125.063 10.1657 125.017C10.249 124.972 10.3105 124.909 10.3503 124.83C10.391 124.75 10.4114 124.659 10.4114 124.556C10.4114 124.453 10.391 124.362 10.3503 124.283C10.3105 124.204 10.2485 124.143 10.1642 124.1C10.0809 124.055 9.97343 124.033 9.8418 124.033H9.35884V126.502H8.83185ZM11.8975 123.593V126.502H11.3833V123.593H11.8975ZM13.0542 126.546C12.9159 126.546 12.7914 126.521 12.6806 126.472C12.5707 126.422 12.4836 126.348 12.4192 126.25C12.3558 126.153 12.324 126.033 12.324 125.89C12.324 125.766 12.3468 125.665 12.3922 125.584C12.4377 125.504 12.4997 125.439 12.5783 125.391C12.6569 125.343 12.7454 125.306 12.8439 125.282C12.9434 125.256 13.0461 125.238 13.1522 125.226C13.28 125.213 13.3837 125.201 13.4632 125.191C13.5428 125.179 13.6006 125.162 13.6365 125.14C13.6735 125.116 13.6919 125.079 13.6919 125.03V125.022C13.6919 124.915 13.6602 124.832 13.5968 124.773C13.5333 124.714 13.4419 124.685 13.3226 124.685C13.1967 124.685 13.0968 124.712 13.0229 124.767C12.95 124.822 12.9007 124.887 12.8752 124.962L12.3951 124.894C12.4329 124.761 12.4954 124.65 12.5826 124.561C12.6697 124.471 12.7762 124.404 12.9022 124.36C13.0281 124.314 13.1673 124.292 13.3198 124.292C13.4249 124.292 13.5295 124.304 13.6337 124.328C13.7379 124.353 13.833 124.394 13.9192 124.451C14.0054 124.507 14.0745 124.583 14.1266 124.679C14.1796 124.776 14.2061 124.897 14.2061 125.042V126.502H13.7118V126.202H13.6948C13.6635 126.263 13.6195 126.319 13.5627 126.373C13.5068 126.425 13.4363 126.467 13.351 126.499C13.2667 126.53 13.1678 126.546 13.0542 126.546ZM13.1877 126.168C13.2909 126.168 13.3804 126.148 13.4561 126.107C13.5319 126.065 13.5901 126.01 13.6309 125.942C13.6725 125.874 13.6934 125.8 13.6934 125.719V125.462C13.6773 125.475 13.6498 125.488 13.611 125.499C13.5731 125.51 13.5305 125.52 13.4831 125.529C13.4358 125.537 13.3889 125.545 13.3425 125.551C13.2961 125.558 13.2559 125.564 13.2218 125.569C13.1451 125.579 13.0764 125.596 13.0158 125.62C12.9552 125.643 12.9074 125.676 12.8723 125.719C12.8373 125.761 12.8198 125.815 12.8198 125.881C12.8198 125.976 12.8543 126.047 12.9235 126.096C12.9926 126.144 13.0807 126.168 13.1877 126.168ZM15.8127 124.32V124.718H14.5584V124.32H15.8127ZM14.8681 123.797H15.3823V125.846C15.3823 125.915 15.3927 125.968 15.4135 126.005C15.4353 126.041 15.4637 126.065 15.4988 126.078C15.5338 126.092 15.5726 126.098 15.6152 126.098C15.6474 126.098 15.6768 126.096 15.7033 126.091C15.7308 126.087 15.7516 126.082 15.7658 126.078L15.8525 126.48C15.825 126.49 15.7857 126.5 15.7346 126.512C15.6844 126.523 15.6228 126.53 15.5499 126.532C15.4211 126.535 15.3051 126.516 15.2019 126.473C15.0987 126.43 15.0167 126.363 14.9561 126.272C14.8965 126.181 14.8671 126.067 14.8681 125.931V123.797ZM17.3478 124.32V124.718H16.0581V124.32H17.3478ZM16.3805 126.502V124.114C16.3805 123.967 16.4108 123.845 16.4714 123.748C16.533 123.65 16.6154 123.577 16.7186 123.529C16.8218 123.48 16.9364 123.456 17.0623 123.456C17.1513 123.456 17.2304 123.463 17.2995 123.478C17.3687 123.492 17.4198 123.505 17.4529 123.516L17.3507 123.914C17.3289 123.907 17.3014 123.9 17.2683 123.894C17.2351 123.886 17.1982 123.882 17.1575 123.882C17.0618 123.882 16.9941 123.906 16.9544 123.952C16.9155 123.998 16.8961 124.063 16.8961 124.148V126.502H16.3805ZM18.6202 126.544C18.4071 126.544 18.2225 126.498 18.0662 126.404C17.91 126.31 17.7888 126.179 17.7026 126.01C17.6174 125.842 17.5748 125.645 17.5748 125.419C17.5748 125.194 17.6174 124.997 17.7026 124.827C17.7888 124.658 17.91 124.526 18.0662 124.432C18.2225 124.338 18.4071 124.292 18.6202 124.292C18.8333 124.292 19.0179 124.338 19.1742 124.432C19.3304 124.526 19.4512 124.658 19.5364 124.827C19.6226 124.997 19.6657 125.194 19.6657 125.419C19.6657 125.645 19.6226 125.842 19.5364 126.01C19.4512 126.179 19.3304 126.31 19.1742 126.404C19.0179 126.498 18.8333 126.544 18.6202 126.544ZM18.623 126.132C18.7386 126.132 18.8352 126.101 18.9128 126.037C18.9905 125.973 19.0482 125.887 19.0861 125.779C19.1249 125.671 19.1444 125.551 19.1444 125.418C19.1444 125.284 19.1249 125.164 19.0861 125.056C19.0482 124.947 18.9905 124.86 18.9128 124.796C18.8352 124.731 18.7386 124.699 18.623 124.699C18.5047 124.699 18.4062 124.731 18.3276 124.796C18.2499 124.86 18.1917 124.947 18.1529 125.056C18.115 125.164 18.0961 125.284 18.0961 125.418C18.0961 125.551 18.115 125.671 18.1529 125.779C18.1917 125.887 18.2499 125.973 18.3276 126.037C18.4062 126.101 18.5047 126.132 18.623 126.132ZM20.1021 126.502V124.32H20.6007V124.684H20.6234C20.6632 124.558 20.7314 124.461 20.8279 124.392C20.9255 124.323 21.0368 124.289 21.1618 124.289C21.1902 124.289 21.2219 124.29 21.2569 124.293C21.2929 124.295 21.3227 124.298 21.3464 124.303V124.776C21.3246 124.768 21.2901 124.762 21.2427 124.756C21.1963 124.749 21.1513 124.746 21.1078 124.746C21.014 124.746 20.9297 124.766 20.8549 124.807C20.7811 124.847 20.7228 124.902 20.6802 124.973C20.6376 125.044 20.6163 125.126 20.6163 125.219V126.502H20.1021ZM21.688 126.502V124.32H22.1795V124.691H22.2051C22.2505 124.566 22.3258 124.468 22.4309 124.398C22.536 124.327 22.6615 124.292 22.8074 124.292C22.9551 124.292 23.0796 124.328 23.1809 124.399C23.2832 124.471 23.3552 124.568 23.3968 124.691H23.4196C23.4679 124.569 23.5493 124.473 23.6639 124.401C23.7794 124.328 23.9163 124.292 24.0744 124.292C24.2752 124.292 24.439 124.355 24.5659 124.482C24.6928 124.609 24.7562 124.794 24.7562 125.037V126.502H24.2406V125.117C24.2406 124.981 24.2046 124.882 24.1326 124.82C24.0607 124.757 23.9726 124.725 23.8684 124.725C23.7444 124.725 23.6473 124.764 23.5772 124.841C23.5081 124.918 23.4735 125.018 23.4735 125.141V126.502H22.9693V125.096C22.9693 124.983 22.9352 124.893 22.867 124.826C22.7998 124.758 22.7117 124.725 22.6028 124.725C22.5289 124.725 22.4617 124.744 22.4011 124.782C22.3405 124.819 22.2922 124.871 22.2562 124.939C22.2202 125.007 22.2022 125.085 22.2022 125.175V126.502H21.688ZM26.2928 126.502V123.593H28.1848V124.034H26.8198V124.824H28.0868V125.266H26.8198V126.06H28.1962V126.502H26.2928ZM29.214 125.223V126.502H28.6998V124.32H29.1912V124.691H29.2168C29.267 124.569 29.347 124.471 29.4569 124.399C29.5676 124.328 29.7045 124.292 29.8674 124.292C30.0179 124.292 30.1491 124.324 30.2608 124.388C30.3735 124.453 30.4606 124.546 30.5222 124.668C30.5847 124.79 30.6155 124.938 30.6145 125.113V126.502H30.1003V125.192C30.1003 125.046 30.0624 124.932 29.9867 124.85C29.9119 124.767 29.8082 124.726 29.6756 124.726C29.5856 124.726 29.5056 124.746 29.4355 124.786C29.3664 124.825 29.312 124.881 29.2722 124.955C29.2334 125.029 29.214 125.118 29.214 125.223ZM32.0861 127.365C31.9015 127.365 31.7428 127.34 31.6103 127.29C31.4777 127.241 31.3712 127.175 31.2907 127.091C31.2102 127.008 31.1543 126.916 31.123 126.814L31.5861 126.702C31.6069 126.745 31.6373 126.787 31.677 126.828C31.7168 126.871 31.7703 126.906 31.8375 126.934C31.9057 126.962 31.9914 126.976 32.0946 126.976C32.2405 126.976 32.3612 126.941 32.4569 126.87C32.5525 126.8 32.6003 126.684 32.6003 126.523V126.11H32.5748C32.5482 126.163 32.5094 126.217 32.4583 126.273C32.4081 126.329 32.3413 126.376 32.258 126.414C32.1756 126.452 32.0719 126.471 31.9469 126.471C31.7793 126.471 31.6273 126.431 31.4909 126.353C31.3555 126.273 31.2476 126.155 31.1671 125.998C31.0875 125.839 31.0478 125.641 31.0478 125.404C31.0478 125.164 31.0875 124.962 31.1671 124.797C31.2476 124.632 31.356 124.506 31.4924 124.421C31.6287 124.335 31.7807 124.292 31.9483 124.292C32.0762 124.292 32.1813 124.313 32.2637 124.357C32.347 124.399 32.4133 124.451 32.4625 124.512C32.5118 124.571 32.5492 124.628 32.5748 124.681H32.6032V124.32H33.1103V126.537C33.1103 126.724 33.0658 126.878 32.9767 127C32.8877 127.123 32.766 127.214 32.6117 127.274C32.4573 127.335 32.2821 127.365 32.0861 127.365ZM32.0904 126.067C32.1993 126.067 32.2921 126.041 32.3688 125.988C32.4455 125.935 32.5037 125.858 32.5435 125.759C32.5833 125.659 32.6032 125.54 32.6032 125.401C32.6032 125.264 32.5833 125.143 32.5435 125.04C32.5047 124.937 32.4469 124.857 32.3702 124.8C32.2944 124.742 32.2012 124.713 32.0904 124.713C31.9758 124.713 31.8801 124.743 31.8034 124.803C31.7267 124.863 31.669 124.944 31.6301 125.049C31.5913 125.152 31.5719 125.269 31.5719 125.401C31.5719 125.534 31.5913 125.651 31.6301 125.752C31.6699 125.851 31.7282 125.929 31.8049 125.985C31.8825 126.04 31.9777 126.067 32.0904 126.067ZM33.954 126.533C33.8678 126.533 33.794 126.503 33.7324 126.442C33.6709 126.382 33.6406 126.308 33.6415 126.221C33.6406 126.135 33.6709 126.062 33.7324 126.002C33.794 125.941 33.8678 125.911 33.954 125.911C34.0373 125.911 34.1098 125.941 34.1713 126.002C34.2338 126.062 34.2656 126.135 34.2665 126.221C34.2656 126.278 34.2504 126.331 34.2211 126.378C34.1926 126.426 34.1548 126.463 34.1074 126.492C34.061 126.519 34.0099 126.533 33.954 126.533Z" fill="#2563EB"/>
<path d="M83.668 62.976H77.4684C69.0627 62.976 61.554 57.7201 58.6767 49.8221L54.1322 37.3482C52.269 32.234 47.4068 28.8305 41.9637 28.8305V28.8305" stroke="#D97706" stroke-dasharray="2 2"/>
<path d="M83.668 80.8563H77.4684C69.0627 80.8563 61.554 86.1122 58.6767 94.0101L54.1322 106.484C52.269 111.598 47.4068 115.002 41.9637 115.002V115.002" stroke="#D97706" stroke-dasharray="2 2"/>
<defs>
<clipPath id="clip0_4973_61729">
<rect width="16" height="16" fill="white" transform="translate(337.695 106.141)"/>
</clipPath>
</defs>
</svg>
