<svg width="364" height="144" viewBox="0 0 364 144" fill="none" xmlns="http://www.w3.org/2000/svg">
<rect x="83.7549" y="6.86032" width="201.511" height="130" rx="8" stroke="#D97706"/>
<rect width="21" height="12" transform="translate(173.968 0.860352)" fill="#FAFAFA"/>
<path d="M183.267 6.96656C183.2 6.89962 183.2 6.79109 183.267 6.72415L186.72 3.28179C186.788 3.21485 186.897 3.21485 186.964 3.28179L190.417 6.72417C190.485 6.79111 190.485 6.89964 190.417 6.96658L186.964 10.4089C186.897 10.4759 186.788 10.4759 186.721 10.4089L183.267 6.96656Z" fill="#2563EB"/>
<path d="M184.609 0.910556C184.542 0.843617 184.433 0.843617 184.366 0.910556L178.518 6.73915C178.451 6.80609 178.451 6.91462 178.518 6.98156L184.366 12.8101C184.433 12.8771 184.542 12.8771 184.609 12.8101L185.573 11.8494C185.64 11.7825 185.64 11.6739 185.573 11.607L180.91 6.95922C180.843 6.89228 180.843 6.78375 180.91 6.71681L185.551 2.09136C185.618 2.02442 185.618 1.91589 185.551 1.84895L184.609 0.910556Z" fill="#2563EB"/>
<path d="M105.856 107.115H104.383V106.212H105.805C106.211 106.212 106.55 106.138 106.821 105.99C107.094 105.839 107.3 105.615 107.438 105.318C107.576 105.018 107.645 104.645 107.645 104.197C107.645 103.754 107.576 103.384 107.438 103.087C107.3 102.791 107.097 102.568 106.829 102.419C106.563 102.271 106.231 102.197 105.833 102.197H104.352V101.294H105.895C106.473 101.294 106.969 101.41 107.383 101.642C107.797 101.874 108.115 102.207 108.336 102.642C108.56 103.077 108.672 103.595 108.672 104.197C108.672 104.804 108.56 105.326 108.336 105.763C108.115 106.198 107.793 106.533 107.372 106.767C106.952 106.999 106.447 107.115 105.856 107.115ZM104.93 101.294V107.115H103.887V101.294H104.93ZM111.551 107.205C111.111 107.205 110.732 107.112 110.415 106.927C110.099 106.742 109.856 106.482 109.684 106.146C109.515 105.81 109.43 105.414 109.43 104.959C109.43 104.508 109.514 104.113 109.68 103.775C109.849 103.436 110.088 103.172 110.395 102.982C110.705 102.789 111.068 102.693 111.485 102.693C111.75 102.693 112.003 102.736 112.243 102.822C112.485 102.908 112.698 103.041 112.883 103.22C113.071 103.4 113.217 103.629 113.321 103.908C113.428 104.184 113.481 104.513 113.481 104.896V105.216H109.911V104.525H112.977L112.5 104.728C112.5 104.483 112.463 104.268 112.387 104.084C112.312 103.896 112.198 103.75 112.047 103.646C111.899 103.542 111.713 103.49 111.489 103.49C111.265 103.49 111.075 103.543 110.918 103.65C110.762 103.754 110.642 103.895 110.559 104.072C110.478 104.246 110.438 104.442 110.438 104.658V105.134C110.438 105.41 110.485 105.643 110.579 105.834C110.672 106.024 110.804 106.167 110.973 106.263C111.142 106.36 111.339 106.408 111.563 106.408C111.711 106.408 111.846 106.387 111.965 106.345C112.088 106.301 112.193 106.237 112.282 106.154C112.37 106.068 112.437 105.964 112.481 105.841L113.415 106.033C113.344 106.267 113.224 106.473 113.055 106.65C112.886 106.824 112.674 106.961 112.418 107.06C112.166 107.156 111.877 107.205 111.551 107.205ZM115.446 107.115L113.821 102.748H114.907L115.704 105.123C115.797 105.401 115.878 105.681 115.946 105.962C116.014 106.244 116.083 106.529 116.153 106.818H115.899C115.972 106.529 116.041 106.244 116.106 105.962C116.174 105.681 116.253 105.401 116.344 105.123L117.137 102.748H118.215L116.583 107.115H115.446ZM121.442 107.193C120.931 107.193 120.474 107.074 120.071 106.837C119.667 106.6 119.348 106.259 119.114 105.814C118.882 105.369 118.766 104.834 118.766 104.209C118.766 103.581 118.882 103.044 119.114 102.599C119.348 102.151 119.667 101.809 120.071 101.572C120.474 101.335 120.931 101.216 121.442 101.216C121.95 101.216 122.404 101.335 122.805 101.572C123.209 101.809 123.527 102.151 123.758 102.599C123.993 103.044 124.11 103.581 124.11 104.209C124.11 104.834 123.993 105.37 123.758 105.818C123.527 106.263 123.209 106.604 122.805 106.841C122.404 107.076 121.95 107.193 121.442 107.193ZM121.442 106.259C121.757 106.259 122.036 106.181 122.278 106.025C122.523 105.866 122.714 105.634 122.852 105.33C122.99 105.022 123.059 104.649 123.059 104.209C123.059 103.763 122.99 103.388 122.852 103.084C122.714 102.776 122.523 102.544 122.278 102.388C122.036 102.229 121.757 102.15 121.442 102.15C121.124 102.15 120.843 102.229 120.598 102.388C120.353 102.547 120.161 102.78 120.02 103.087C119.882 103.392 119.813 103.766 119.813 104.209C119.813 104.649 119.882 105.021 120.02 105.326C120.161 105.63 120.353 105.862 120.598 106.021C120.843 106.18 121.124 106.259 121.442 106.259ZM125.051 108.748V102.748H126.043V103.47H126.11C126.162 103.366 126.236 103.254 126.333 103.134C126.429 103.015 126.559 102.912 126.723 102.826C126.89 102.737 127.102 102.693 127.36 102.693C127.698 102.693 128.003 102.779 128.274 102.951C128.545 103.123 128.76 103.376 128.918 103.712C129.08 104.046 129.161 104.455 129.161 104.939C129.161 105.418 129.083 105.826 128.926 106.162C128.77 106.498 128.555 106.754 128.282 106.931C128.011 107.106 127.702 107.193 127.356 107.193C127.109 107.193 126.902 107.151 126.735 107.068C126.568 106.982 126.435 106.879 126.336 106.759C126.237 106.64 126.162 106.528 126.11 106.423H126.067V108.748H125.051ZM127.083 106.357C127.309 106.357 127.499 106.296 127.653 106.173C127.806 106.048 127.922 105.879 128 105.666C128.079 105.449 128.118 105.206 128.118 104.935C128.118 104.664 128.079 104.423 128 104.212C127.925 103.999 127.81 103.832 127.657 103.712C127.503 103.59 127.312 103.529 127.083 103.529C126.859 103.529 126.67 103.587 126.516 103.705C126.362 103.822 126.245 103.986 126.165 104.197C126.086 104.405 126.047 104.651 126.047 104.935C126.047 105.219 126.086 105.468 126.165 105.681C126.245 105.895 126.362 106.061 126.516 106.181C126.672 106.298 126.861 106.357 127.083 106.357ZM131.696 107.205C131.36 107.205 131.063 107.156 130.805 107.06C130.547 106.964 130.335 106.823 130.168 106.638C130.004 106.453 129.898 106.229 129.848 105.966L130.797 105.787C130.857 106.003 130.963 106.164 131.114 106.271C131.267 106.375 131.468 106.427 131.715 106.427C131.965 106.427 132.163 106.378 132.309 106.279C132.458 106.177 132.532 106.052 132.532 105.904C132.532 105.779 132.484 105.676 132.387 105.595C132.291 105.512 132.142 105.448 131.942 105.404L131.196 105.244C130.784 105.155 130.477 105.009 130.274 104.806C130.071 104.603 129.969 104.341 129.969 104.021C129.969 103.75 130.043 103.516 130.192 103.318C130.34 103.12 130.546 102.966 130.809 102.857C131.075 102.748 131.382 102.693 131.731 102.693C132.062 102.693 132.346 102.74 132.583 102.834C132.822 102.927 133.015 103.059 133.161 103.228C133.309 103.395 133.412 103.591 133.469 103.818L132.563 103.998C132.514 103.844 132.424 103.715 132.293 103.611C132.163 103.504 131.98 103.451 131.743 103.451C131.527 103.451 131.346 103.499 131.2 103.595C131.056 103.689 130.985 103.81 130.985 103.959C130.985 104.086 131.033 104.192 131.129 104.275C131.226 104.358 131.385 104.423 131.606 104.47L132.348 104.626C132.762 104.715 133.069 104.857 133.27 105.052C133.471 105.248 133.571 105.499 133.571 105.806C133.571 106.082 133.491 106.326 133.333 106.537C133.174 106.745 132.952 106.909 132.668 107.029C132.387 107.146 132.063 107.205 131.696 107.205Z" fill="#2563EB"/>
<rect x="92.6021" y="43.1148" width="52" height="52" rx="26" fill="#FAFAFA"/>
<rect x="92.6021" y="43.1148" width="52" height="52" rx="26" stroke="#2563EB"/>
<path d="M115.687 72.3006C114.626 73.991 112.745 75.1148 110.602 75.1148C107.288 75.1148 104.602 72.4285 104.602 69.1148C104.602 65.8011 107.288 63.1148 110.602 63.1148C111.821 63.1148 113.432 63.731 114.17 64.385C114.898 65.0294 122.259 73.1995 122.472 73.4357C122.479 73.4432 122.481 73.4445 122.488 73.4515L122.786 73.7452C123.823 74.6008 125.153 75.1148 126.602 75.1148C129.916 75.1148 132.602 72.4285 132.602 69.1148C132.602 65.8011 129.916 63.1148 126.602 63.1148C124.72 63.1148 123.04 63.9816 121.94 65.3378" stroke="#2563EB" stroke-width="1.5" stroke-linecap="round"/>
<rect width="16" height="12" transform="translate(110.602 38.1148)" fill="#FAFAFA"/>
<path d="M116.083 45.6812V44.6929C116.208 44.4898 116.33 44.2997 116.45 44.1226C116.572 43.9429 116.701 43.7658 116.836 43.5913C116.974 43.4169 117.128 43.232 117.297 43.0367L118.825 41.2945H120.122L117.653 44.0796L117.575 44.0523L116.083 45.6812ZM115.329 47.1148V41.2945H116.372V43.021L116.352 44.4234L116.372 44.9351V47.1148H115.329ZM118.93 47.1148L117.079 44.3765L117.735 43.5913L120.161 47.1148H118.93ZM121.922 41.2945V47.1148H120.907V41.2945H121.922Z" fill="#2563EB"/>
<path d="M169.214 101.294V107.115H168.171V101.294H169.214ZM171.359 104.556V107.115H170.343V102.748H171.304L171.32 103.826H171.238C171.36 103.448 171.54 103.166 171.777 102.978C172.014 102.788 172.311 102.693 172.667 102.693C172.967 102.693 173.229 102.757 173.453 102.884C173.677 103.012 173.85 103.198 173.972 103.443C174.097 103.688 174.16 103.986 174.16 104.337V107.115H173.144V104.494C173.144 104.202 173.069 103.973 172.917 103.806C172.766 103.64 172.558 103.556 172.292 103.556C172.113 103.556 171.953 103.595 171.812 103.673C171.671 103.751 171.561 103.866 171.48 104.017C171.399 104.166 171.359 104.345 171.359 104.556ZM177.539 102.748V103.544H174.781V102.748H177.539ZM175.582 107.115V102.33C175.582 102.038 175.641 101.796 175.761 101.603C175.884 101.41 176.048 101.266 176.253 101.169C176.462 101.071 176.69 101.021 176.937 101.021C177.117 101.021 177.276 101.035 177.414 101.064C177.552 101.093 177.653 101.119 177.718 101.142L177.511 101.931C177.467 101.918 177.412 101.905 177.347 101.892C177.285 101.876 177.21 101.869 177.125 101.869C176.934 101.869 176.798 101.916 176.714 102.009C176.634 102.103 176.593 102.236 176.593 102.408V107.115H175.582ZM178.351 107.115V102.748H179.335V103.478H179.382C179.46 103.225 179.597 103.031 179.792 102.896C179.988 102.758 180.21 102.689 180.46 102.689C180.518 102.689 180.582 102.692 180.652 102.697C180.722 102.702 180.782 102.709 180.832 102.716V103.65C180.79 103.637 180.722 103.625 180.628 103.615C180.535 103.604 180.442 103.599 180.351 103.599C180.164 103.599 179.994 103.64 179.843 103.72C179.695 103.801 179.578 103.913 179.492 104.056C179.408 104.197 179.367 104.36 179.367 104.544V107.115H178.351ZM182.964 107.193C182.623 107.193 182.317 107.106 182.046 106.931C181.776 106.754 181.561 106.498 181.402 106.162C181.246 105.826 181.167 105.418 181.167 104.939C181.167 104.455 181.248 104.046 181.41 103.712C181.571 103.376 181.787 103.123 182.058 102.951C182.332 102.779 182.636 102.693 182.972 102.693C183.23 102.693 183.441 102.736 183.605 102.822C183.772 102.908 183.903 103.012 184 103.134C184.096 103.254 184.169 103.366 184.218 103.47H184.265V102.748H185.277V107.115H184.269V106.423H184.218C184.169 106.528 184.093 106.641 183.992 106.763C183.893 106.883 183.76 106.985 183.593 107.068C183.427 107.151 183.217 107.193 182.964 107.193ZM183.25 106.357C183.471 106.357 183.658 106.298 183.812 106.181C183.966 106.061 184.083 105.895 184.164 105.681C184.244 105.468 184.285 105.219 184.285 104.935C184.285 104.651 184.244 104.405 184.164 104.197C184.085 103.986 183.97 103.822 183.816 103.705C183.662 103.587 183.473 103.529 183.25 103.529C183.02 103.529 182.828 103.59 182.671 103.712C182.518 103.832 182.402 103.998 182.324 104.209C182.246 104.419 182.207 104.662 182.207 104.935C182.207 105.206 182.246 105.449 182.324 105.666C182.404 105.879 182.522 106.048 182.675 106.173C182.832 106.296 183.023 106.357 183.25 106.357ZM188.89 107.193C188.38 107.193 187.923 107.074 187.519 106.837C187.115 106.6 186.796 106.259 186.562 105.814C186.33 105.369 186.214 104.834 186.214 104.209C186.214 103.581 186.33 103.044 186.562 102.599C186.796 102.151 187.115 101.809 187.519 101.572C187.923 101.335 188.38 101.216 188.89 101.216C189.398 101.216 189.852 101.335 190.253 101.572C190.657 101.809 190.975 102.151 191.207 102.599C191.441 103.044 191.558 103.581 191.558 104.209C191.558 104.834 191.441 105.37 191.207 105.818C190.975 106.263 190.657 106.604 190.253 106.841C189.852 107.076 189.398 107.193 188.89 107.193ZM188.89 106.259C189.205 106.259 189.484 106.181 189.726 106.025C189.971 105.866 190.162 105.634 190.3 105.33C190.438 105.022 190.507 104.649 190.507 104.209C190.507 103.763 190.438 103.388 190.3 103.084C190.162 102.776 189.971 102.544 189.726 102.388C189.484 102.229 189.205 102.15 188.89 102.15C188.572 102.15 188.291 102.229 188.046 102.388C187.802 102.547 187.609 102.78 187.468 103.087C187.33 103.392 187.261 103.766 187.261 104.209C187.261 104.649 187.33 105.021 187.468 105.326C187.609 105.63 187.802 105.862 188.046 106.021C188.291 106.18 188.572 106.259 188.89 106.259ZM192.5 108.748V102.748H193.492V103.47H193.558C193.61 103.366 193.684 103.254 193.781 103.134C193.877 103.015 194.007 102.912 194.171 102.826C194.338 102.737 194.55 102.693 194.808 102.693C195.147 102.693 195.451 102.779 195.722 102.951C195.993 103.123 196.208 103.376 196.367 103.712C196.528 104.046 196.609 104.455 196.609 104.939C196.609 105.418 196.531 105.826 196.375 106.162C196.218 106.498 196.003 106.754 195.73 106.931C195.459 107.106 195.151 107.193 194.804 107.193C194.557 107.193 194.35 107.151 194.183 107.068C194.016 106.982 193.884 106.879 193.785 106.759C193.686 106.64 193.61 106.528 193.558 106.423H193.515V108.748H192.5ZM194.531 106.357C194.757 106.357 194.947 106.296 195.101 106.173C195.255 106.048 195.371 105.879 195.449 105.666C195.527 105.449 195.566 105.206 195.566 104.935C195.566 104.664 195.527 104.423 195.449 104.212C195.373 103.999 195.259 103.832 195.105 103.712C194.951 103.59 194.76 103.529 194.531 103.529C194.307 103.529 194.118 103.587 193.964 103.705C193.811 103.822 193.694 103.986 193.613 104.197C193.535 104.405 193.496 104.651 193.496 104.935C193.496 105.219 193.535 105.468 193.613 105.681C193.694 105.895 193.811 106.061 193.964 106.181C194.121 106.298 194.309 106.357 194.531 106.357ZM199.144 107.205C198.808 107.205 198.511 107.156 198.253 107.06C197.996 106.964 197.783 106.823 197.617 106.638C197.453 106.453 197.346 106.229 197.296 105.966L198.246 105.787C198.306 106.003 198.411 106.164 198.562 106.271C198.716 106.375 198.916 106.427 199.164 106.427C199.414 106.427 199.611 106.378 199.757 106.279C199.906 106.177 199.98 106.052 199.98 105.904C199.98 105.779 199.932 105.676 199.835 105.595C199.739 105.512 199.591 105.448 199.39 105.404L198.644 105.244C198.233 105.155 197.925 105.009 197.722 104.806C197.519 104.603 197.417 104.341 197.417 104.021C197.417 103.75 197.492 103.516 197.64 103.318C197.789 103.12 197.994 102.966 198.257 102.857C198.523 102.748 198.83 102.693 199.179 102.693C199.51 102.693 199.794 102.74 200.031 102.834C200.27 102.927 200.463 103.059 200.609 103.228C200.757 103.395 200.86 103.591 200.917 103.818L200.011 103.998C199.962 103.844 199.872 103.715 199.742 103.611C199.611 103.504 199.428 103.451 199.191 103.451C198.975 103.451 198.794 103.499 198.648 103.595C198.505 103.689 198.433 103.81 198.433 103.959C198.433 104.086 198.481 104.192 198.578 104.275C198.674 104.358 198.833 104.423 199.054 104.47L199.796 104.626C200.21 104.715 200.518 104.857 200.718 105.052C200.919 105.248 201.019 105.499 201.019 105.806C201.019 106.082 200.94 106.326 200.781 106.537C200.622 106.745 200.401 106.909 200.117 107.029C199.835 107.146 199.511 107.205 199.144 107.205Z" fill="#2563EB"/>
<rect x="158.468" y="43.1148" width="52" height="52" rx="26" fill="#FAFAFA"/>
<rect x="158.468" y="43.1148" width="52" height="52" rx="26" stroke="#2563EB"/>
<path fill-rule="evenodd" clip-rule="evenodd" d="M183.584 58.8626C183.73 58.716 183.923 58.6428 184.115 58.643H184.116C184.338 58.643 184.538 58.7398 184.675 58.8937L187.094 61.3118C187.387 61.6047 187.387 62.0796 187.094 62.3725C186.801 62.6654 186.326 62.6654 186.033 62.3725L184.866 61.2053V65.8421C185.092 65.784 185.321 65.7372 185.552 65.7019C186.646 65.5351 187.763 65.6306 188.813 65.9804C189.863 66.3303 190.814 66.9246 191.589 67.7143C191.759 67.8879 191.92 68.0698 192.07 68.2593L196.034 64.2957H194.354C193.94 64.2957 193.604 63.9599 193.604 63.5457C193.604 63.1314 193.94 62.7957 194.354 62.7957H197.817C198.002 62.7957 198.181 62.8645 198.318 62.988C198.333 63.0008 198.348 63.0142 198.362 63.0284C198.546 63.2129 198.615 63.4696 198.567 63.7076L198.567 67.0083C198.567 67.4225 198.231 67.7583 197.817 67.7583C197.403 67.7583 197.067 67.4225 197.067 67.0083V65.3842L193.105 69.346C193.033 69.4176 192.951 69.4716 192.863 69.5082C193.024 69.8342 193.161 70.1733 193.27 70.5226C193.6 71.5786 193.674 72.6979 193.486 73.7882C193.299 74.8786 192.855 75.9088 192.191 76.7939L192.183 76.8045L192.183 76.8044C191.949 77.1054 191.697 77.3903 191.444 77.6536C190.054 79.0982 188.084 79.5866 186.245 79.5866H179.749H179.748C179.023 79.5859 178.306 79.431 177.646 79.1321C176.985 78.8333 176.396 78.3973 175.916 77.8532C175.437 77.3091 175.079 76.6693 174.866 75.9763C174.653 75.2832 174.59 74.5528 174.681 73.8334C174.771 73.1141 175.014 72.4222 175.393 71.8039C175.628 71.4198 175.912 71.0695 176.238 70.7615L171.87 66.3944L171.87 68.0181C171.87 68.4323 171.535 68.7681 171.12 68.7681C170.706 68.7681 170.37 68.4323 170.37 68.0181L170.37 64.718C170.322 64.48 170.391 64.2231 170.575 64.0385C170.588 64.026 170.6 64.0141 170.613 64.0028C170.751 63.8761 170.932 63.8054 171.12 63.8054H174.583C174.997 63.8054 175.333 64.1412 175.333 64.5554C175.333 64.9696 174.997 65.3054 174.583 65.3054L172.903 65.3054L177.316 69.7184C177.373 69.7754 177.419 69.8393 177.453 69.9074C177.899 69.683 178.376 69.5245 178.87 69.4379C179.376 69.349 179.892 69.3373 180.4 69.4021C180.904 68.4259 181.631 67.5822 182.522 66.9398C182.792 66.7458 183.074 66.5718 183.366 66.4187V61.2019L182.195 62.3725C181.902 62.6654 181.427 62.6654 181.135 62.3725C180.842 62.0796 180.842 61.6047 181.135 61.3118L183.584 58.8626ZM185.778 67.1847C186.637 67.0538 187.514 67.1287 188.339 67.4035C189.163 67.6782 189.91 68.1448 190.518 68.7649C191.127 69.3849 191.579 70.1407 191.838 70.9698C192.097 71.799 192.155 72.6779 192.008 73.534C191.861 74.3879 191.514 75.1949 190.995 75.8887C190.799 76.1398 190.585 76.3832 190.363 76.6138C189.361 77.6556 187.856 78.0866 186.245 78.0866H179.75C179.237 78.0861 178.731 77.9766 178.264 77.7654C177.797 77.5543 177.381 77.2462 177.042 76.8618C176.703 76.4773 176.45 76.0252 176.3 75.5355C176.149 75.0457 176.105 74.5296 176.169 74.0213C176.233 73.513 176.405 73.0241 176.672 72.5872C176.94 72.1502 177.297 71.7752 177.721 71.487C178.144 71.1987 178.624 71.0039 179.129 70.9153C179.365 70.8739 179.605 70.8562 179.843 70.8621C179.697 71.4292 179.622 72.0143 179.622 72.604C179.622 73.0182 179.958 73.354 180.372 73.354C180.786 73.3541 181.122 73.0183 181.122 72.6041C181.122 71.7354 181.329 70.8792 181.725 70.106C182.121 69.3327 182.695 68.6646 183.399 68.1568C184.104 67.6489 184.919 67.3157 185.778 67.1847Z" fill="#2563EB"/>
<rect width="16" height="12" transform="translate(176.469 38.1148)" fill="#FAFAFA"/>
<path d="M181.949 45.6812V44.6929C182.074 44.4898 182.197 44.2997 182.316 44.1226C182.439 43.9429 182.568 43.7658 182.703 43.5913C182.841 43.4169 182.995 43.232 183.164 43.0367L184.691 41.2945H185.988L183.52 44.0796L183.441 44.0523L181.949 45.6812ZM181.195 47.1148V41.2945H182.238V43.021L182.219 44.4234L182.238 44.9351V47.1148H181.195ZM184.797 47.1148L182.945 44.3765L183.602 43.5913L186.027 47.1148H184.797ZM187.789 41.2945V47.1148H186.773V41.2945H187.789Z" fill="#2563EB"/>
<path d="M230.369 107.115H228.896V106.212H230.318C230.725 106.212 231.063 106.138 231.334 105.99C231.607 105.839 231.813 105.615 231.951 105.318C232.089 105.018 232.158 104.645 232.158 104.197C232.158 103.754 232.089 103.384 231.951 103.087C231.813 102.791 231.61 102.568 231.342 102.419C231.076 102.271 230.744 102.197 230.346 102.197H228.865V101.294H230.408C230.986 101.294 231.482 101.41 231.896 101.642C232.311 101.874 232.628 102.207 232.85 102.642C233.074 103.077 233.186 103.595 233.186 104.197C233.186 104.804 233.074 105.326 232.85 105.763C232.628 106.198 232.307 106.533 231.885 106.767C231.465 106.999 230.96 107.115 230.369 107.115ZM229.443 101.294V107.115H228.4V101.294H229.443ZM234.135 107.115V102.748H235.15V107.115H234.135ZM234.643 102.13C234.481 102.13 234.342 102.076 234.225 101.966C234.11 101.857 234.053 101.727 234.053 101.576C234.053 101.419 234.11 101.288 234.225 101.181C234.342 101.072 234.481 101.017 234.643 101.017C234.807 101.017 234.946 101.072 235.061 101.181C235.178 101.288 235.236 101.419 235.236 101.576C235.236 101.727 235.178 101.857 235.061 101.966C234.946 102.076 234.807 102.13 234.643 102.13ZM237.881 107.205C237.545 107.205 237.248 107.156 236.99 107.06C236.732 106.964 236.52 106.823 236.354 106.638C236.189 106.453 236.083 106.229 236.033 105.966L236.982 105.787C237.042 106.003 237.148 106.164 237.299 106.271C237.452 106.375 237.653 106.427 237.9 106.427C238.15 106.427 238.348 106.378 238.494 106.279C238.643 106.177 238.717 106.052 238.717 105.904C238.717 105.779 238.669 105.676 238.572 105.595C238.476 105.512 238.327 105.448 238.127 105.404L237.381 105.244C236.969 105.155 236.662 105.009 236.459 104.806C236.256 104.603 236.154 104.341 236.154 104.021C236.154 103.75 236.229 103.516 236.377 103.318C236.525 103.12 236.731 102.966 236.994 102.857C237.26 102.748 237.567 102.693 237.916 102.693C238.247 102.693 238.531 102.74 238.768 102.834C239.007 102.927 239.2 103.059 239.346 103.228C239.494 103.395 239.597 103.591 239.654 103.818L238.748 103.998C238.699 103.844 238.609 103.715 238.479 103.611C238.348 103.504 238.165 103.451 237.928 103.451C237.712 103.451 237.531 103.499 237.385 103.595C237.242 103.689 237.17 103.81 237.17 103.959C237.17 104.086 237.218 104.192 237.314 104.275C237.411 104.358 237.57 104.423 237.791 104.47L238.533 104.626C238.947 104.715 239.255 104.857 239.455 105.052C239.656 105.248 239.756 105.499 239.756 105.806C239.756 106.082 239.676 106.326 239.518 106.537C239.359 106.745 239.137 106.909 238.854 107.029C238.572 107.146 238.248 107.205 237.881 107.205ZM242.646 102.748V103.544H240.166V102.748H242.646ZM240.787 101.709H241.803V105.884C241.803 106.043 241.837 106.16 241.904 106.236C241.972 106.309 242.083 106.345 242.236 106.345C242.283 106.345 242.344 106.34 242.42 106.33C242.498 106.317 242.561 106.305 242.607 106.294L242.768 107.08C242.656 107.113 242.541 107.137 242.424 107.15C242.307 107.166 242.195 107.173 242.088 107.173C241.669 107.173 241.347 107.069 241.123 106.861C240.899 106.653 240.787 106.356 240.787 105.97V101.709ZM243.455 107.115V102.748H244.439V103.478H244.486C244.564 103.225 244.701 103.031 244.896 102.896C245.092 102.758 245.314 102.689 245.564 102.689C245.622 102.689 245.686 102.692 245.756 102.697C245.826 102.702 245.886 102.709 245.936 102.716V103.65C245.894 103.637 245.826 103.625 245.732 103.615C245.639 103.604 245.546 103.599 245.455 103.599C245.268 103.599 245.098 103.64 244.947 103.72C244.799 103.801 244.682 103.913 244.596 104.056C244.512 104.197 244.471 104.36 244.471 104.544V107.115H243.455ZM246.713 107.115V102.748H247.729V107.115H246.713ZM247.221 102.13C247.059 102.13 246.92 102.076 246.803 101.966C246.688 101.857 246.631 101.727 246.631 101.576C246.631 101.419 246.688 101.288 246.803 101.181C246.92 101.072 247.059 101.017 247.221 101.017C247.385 101.017 247.524 101.072 247.639 101.181C247.756 101.288 247.814 101.419 247.814 101.576C247.814 101.727 247.756 101.857 247.639 101.966C247.524 102.076 247.385 102.13 247.221 102.13ZM251.111 107.193C250.864 107.193 250.657 107.151 250.49 107.068C250.324 106.982 250.191 106.879 250.092 106.759C249.993 106.64 249.917 106.528 249.865 106.423H249.799V107.115H248.807V101.294H249.822V103.47H249.865C249.917 103.366 249.992 103.254 250.088 103.134C250.184 103.015 250.314 102.912 250.479 102.826C250.645 102.737 250.857 102.693 251.115 102.693C251.454 102.693 251.758 102.779 252.029 102.951C252.3 103.123 252.515 103.376 252.674 103.712C252.835 104.046 252.916 104.455 252.916 104.939C252.916 105.418 252.838 105.826 252.682 106.162C252.525 106.498 252.311 106.754 252.037 106.931C251.766 107.106 251.458 107.193 251.111 107.193ZM250.838 106.357C251.064 106.357 251.255 106.296 251.408 106.173C251.562 106.048 251.678 105.879 251.756 105.666C251.834 105.449 251.873 105.206 251.873 104.935C251.873 104.664 251.834 104.423 251.756 104.212C251.68 103.999 251.566 103.832 251.412 103.712C251.258 103.59 251.067 103.529 250.838 103.529C250.614 103.529 250.425 103.587 250.271 103.705C250.118 103.822 250.001 103.986 249.92 104.197C249.842 104.405 249.803 104.651 249.803 104.935C249.803 105.219 249.842 105.468 249.92 105.681C250.001 105.895 250.118 106.061 250.271 106.181C250.428 106.298 250.617 106.357 250.838 106.357ZM255.295 107.169C254.995 107.169 254.732 107.106 254.506 106.978C254.282 106.85 254.107 106.664 253.982 106.419C253.86 106.172 253.799 105.874 253.799 105.525V102.748H254.814V105.369C254.814 105.66 254.89 105.89 255.041 106.056C255.195 106.223 255.404 106.306 255.67 106.306C255.85 106.306 256.01 106.267 256.15 106.189C256.291 106.111 256.4 105.996 256.479 105.845C256.559 105.694 256.6 105.515 256.6 105.306V102.748H257.619V107.115H256.654L256.643 106.037H256.721C256.598 106.417 256.417 106.701 256.178 106.888C255.938 107.076 255.644 107.169 255.295 107.169ZM260.717 102.748V103.544H258.236V102.748H260.717ZM258.857 101.709H259.873V105.884C259.873 106.043 259.907 106.16 259.975 106.236C260.042 106.309 260.153 106.345 260.307 106.345C260.354 106.345 260.415 106.34 260.49 106.33C260.568 106.317 260.631 106.305 260.678 106.294L260.838 107.08C260.726 107.113 260.611 107.137 260.494 107.15C260.377 107.166 260.265 107.173 260.158 107.173C259.739 107.173 259.417 107.069 259.193 106.861C258.969 106.653 258.857 106.356 258.857 105.97V101.709ZM261.525 107.115V102.748H262.541V107.115H261.525ZM262.033 102.13C261.872 102.13 261.732 102.076 261.615 101.966C261.501 101.857 261.443 101.727 261.443 101.576C261.443 101.419 261.501 101.288 261.615 101.181C261.732 101.072 261.872 101.017 262.033 101.017C262.197 101.017 262.337 101.072 262.451 101.181C262.568 101.288 262.627 101.419 262.627 101.576C262.627 101.727 262.568 101.857 262.451 101.966C262.337 102.076 262.197 102.13 262.033 102.13ZM265.514 107.205C265.089 107.205 264.721 107.111 264.408 106.923C264.096 106.733 263.854 106.47 263.682 106.134C263.512 105.796 263.428 105.403 263.428 104.955C263.428 104.501 263.512 104.106 263.682 103.767C263.854 103.426 264.096 103.162 264.408 102.974C264.721 102.787 265.089 102.693 265.514 102.693C265.941 102.693 266.311 102.787 266.623 102.974C266.936 103.162 267.176 103.426 267.346 103.767C267.518 104.106 267.604 104.501 267.604 104.955C267.604 105.403 267.518 105.796 267.346 106.134C267.176 106.47 266.936 106.733 266.623 106.923C266.311 107.111 265.941 107.205 265.514 107.205ZM265.514 106.38C265.751 106.38 265.947 106.317 266.104 106.189C266.262 106.061 266.38 105.89 266.455 105.673C266.533 105.457 266.572 105.216 266.572 104.951C266.572 104.682 266.533 104.44 266.455 104.224C266.38 104.008 266.262 103.836 266.104 103.709C265.947 103.581 265.751 103.517 265.514 103.517C265.277 103.517 265.08 103.581 264.924 103.709C264.77 103.836 264.654 104.008 264.576 104.224C264.501 104.438 264.463 104.68 264.463 104.951C264.463 105.216 264.501 105.457 264.576 105.673C264.654 105.89 264.77 106.061 264.924 106.189C265.08 106.317 265.277 106.38 265.514 106.38ZM269.51 104.556V107.115H268.494V102.748H269.455L269.471 103.826H269.389C269.511 103.448 269.691 103.166 269.928 102.978C270.165 102.788 270.462 102.693 270.818 102.693C271.118 102.693 271.38 102.757 271.604 102.884C271.827 103.012 272.001 103.198 272.123 103.443C272.248 103.688 272.311 103.986 272.311 104.337V107.115H271.295V104.494C271.295 104.202 271.219 103.973 271.068 103.806C270.917 103.64 270.709 103.556 270.443 103.556C270.264 103.556 270.104 103.595 269.963 103.673C269.822 103.751 269.712 103.866 269.631 104.017C269.55 104.166 269.51 104.345 269.51 104.556Z" fill="#2563EB"/>
<rect x="224.334" y="43.1148" width="52" height="52" rx="26" fill="#FAFAFA"/>
<rect x="224.334" y="43.1148" width="52" height="52" rx="26" stroke="#2563EB"/>
<path d="M248.437 71.0114L239.334 65.701L252.989 58.1148L261.334 63.4252L248.437 71.0114Z" stroke="#2563EB" stroke-width="1.5" stroke-linejoin="round"/>
<path d="M248.438 80.1148V71.0113L261.334 63.4251V72.5285L248.438 80.1148Z" stroke="#2563EB" stroke-width="1.5" stroke-linejoin="round"/>
<path d="M239.334 74.8042V65.7007L248.437 71.0111V80.1146L239.334 74.8042Z" stroke="#2563EB" stroke-width="1.5" stroke-linejoin="round"/>
<path d="M252.987 68.7925L252.987 77.0804" stroke="#2563EB" stroke-width="1.5" stroke-linecap="round" stroke-linejoin="round"/>
<path d="M257.542 66.0443L257.542 74.4762" stroke="#2563EB" stroke-width="1.5" stroke-linecap="round" stroke-linejoin="round"/>
<rect width="16" height="12" transform="translate(242.334 38.1148)" fill="#FAFAFA"/>
<path d="M247.814 45.6812V44.6929C247.939 44.4898 248.062 44.2997 248.182 44.1226C248.304 43.9429 248.433 43.7658 248.568 43.5913C248.706 43.4169 248.86 43.232 249.029 43.0367L250.557 41.2945H251.854L249.385 44.0796L249.307 44.0523L247.814 45.6812ZM247.061 47.1148V41.2945H248.104V43.021L248.084 44.4234L248.104 44.9351V47.1148H247.061ZM250.662 47.1148L248.811 44.3765L249.467 43.5913L251.893 47.1148H250.662ZM253.654 41.2945V47.1148H252.639V41.2945H253.654Z" fill="#2563EB"/>
<rect width="21" height="12.9404" transform="translate(173.968 130.39)" fill="#FAFAFA"/>
<path d="M183.01 138.453C182.48 139.298 181.539 139.86 180.468 139.86C178.811 139.86 177.468 138.517 177.468 136.86C177.468 135.203 178.811 133.86 180.468 133.86C181.077 133.86 181.883 134.168 182.252 134.495C182.611 134.813 186.189 138.784 186.396 139.013C186.403 139.021 186.409 139.027 186.416 139.034L186.56 139.176C187.078 139.603 187.743 139.86 188.468 139.86C190.125 139.86 191.468 138.517 191.468 136.86C191.468 135.203 190.125 133.86 188.468 133.86C187.527 133.86 186.687 134.294 186.137 134.972" stroke="#2563EB" stroke-linecap="round"/>
<path d="M328.243 70.7496H286.539" stroke="#D97706" stroke-dasharray="2 2"/>
<path d="M286.539 61.8094H292.739C301.144 61.8094 308.653 56.5534 311.53 48.6555L316.075 36.1816C317.938 31.0673 322.8 27.6638 328.243 27.6639V27.6639" stroke="#D97706" stroke-dasharray="2 2"/>
<path d="M286.539 79.6896H292.739C301.144 79.6896 308.653 84.9455 311.53 92.8434L316.075 105.317C317.938 110.432 322.8 113.835 328.243 113.835V113.835" stroke="#D97706" stroke-dasharray="2 2"/>
<rect x="327.589" y="12.222" width="34.939" height="34.939" rx="4" fill="#EEEEF0"/>
<path fill-rule="evenodd" clip-rule="evenodd" d="M341.568 28.3825C341.568 28.5794 341.589 28.739 341.626 28.8561C341.669 28.9732 341.722 29.1009 341.796 29.2392C341.823 29.2818 341.834 29.3244 341.834 29.3616C341.834 29.4148 341.802 29.4681 341.733 29.5213L341.397 29.7448C341.349 29.7767 341.302 29.7927 341.259 29.7927C341.206 29.7927 341.153 29.7661 341.099 29.7182C341.025 29.6383 340.961 29.5532 340.908 29.4681C340.855 29.3776 340.801 29.2765 340.743 29.1541C340.328 29.6437 339.806 29.8885 339.178 29.8885C338.731 29.8885 338.375 29.7607 338.114 29.5053C337.853 29.2499 337.72 28.9093 337.72 28.4836C337.72 28.0313 337.88 27.6641 338.204 27.3874C338.529 27.1107 338.96 26.9723 339.508 26.9723C339.689 26.9723 339.875 26.9883 340.072 27.0149C340.269 27.0415 340.471 27.0841 340.684 27.132V26.7435C340.684 26.3391 340.599 26.057 340.434 25.8921C340.264 25.7271 339.977 25.6473 339.567 25.6473C339.381 25.6473 339.189 25.6686 338.992 25.7165C338.795 25.7643 338.604 25.8229 338.417 25.8974C338.332 25.9346 338.268 25.9559 338.231 25.9666C338.194 25.9772 338.167 25.9825 338.146 25.9825C338.071 25.9825 338.034 25.9293 338.034 25.8176V25.5568C338.034 25.4717 338.045 25.4078 338.071 25.3706C338.098 25.3333 338.146 25.2961 338.22 25.2588C338.407 25.163 338.63 25.0832 338.891 25.0193C339.152 24.9502 339.428 24.9182 339.721 24.9182C340.354 24.9182 340.817 25.0619 341.115 25.3493C341.408 25.6366 341.557 26.073 341.557 26.6583V28.3825H341.568ZM339.407 29.1913C339.583 29.1913 339.764 29.1594 339.955 29.0956C340.147 29.0317 340.317 28.9146 340.461 28.755C340.546 28.6539 340.61 28.5421 340.642 28.4144C340.674 28.2867 340.695 28.1324 340.695 27.9515V27.728C340.541 27.6907 340.376 27.6588 340.205 27.6375C340.035 27.6162 339.87 27.6056 339.705 27.6056C339.349 27.6056 339.088 27.6747 338.912 27.8184C338.737 27.9621 338.651 28.1643 338.651 28.4304C338.651 28.6805 338.715 28.8667 338.848 28.9945C338.976 29.1275 339.162 29.1913 339.407 29.1913ZM343.68 29.7661C343.584 29.7661 343.521 29.7501 343.478 29.7128C343.435 29.6809 343.398 29.6064 343.366 29.5053L342.116 25.3918C342.084 25.2854 342.068 25.2162 342.068 25.179C342.068 25.0938 342.11 25.0459 342.196 25.0459H342.717C342.818 25.0459 342.887 25.0619 342.925 25.0992C342.967 25.1311 342.999 25.2056 343.031 25.3067L343.925 28.8295L344.755 25.3067C344.782 25.2003 344.814 25.1311 344.856 25.0992C344.899 25.0672 344.973 25.0459 345.069 25.0459H345.495C345.596 25.0459 345.665 25.0619 345.708 25.0992C345.75 25.1311 345.788 25.2056 345.809 25.3067L346.65 28.8721L347.57 25.3067C347.602 25.2003 347.639 25.1311 347.677 25.0992C347.719 25.0672 347.788 25.0459 347.884 25.0459H348.379C348.464 25.0459 348.512 25.0885 348.512 25.179C348.512 25.2017 348.508 25.2244 348.504 25.2505L348.501 25.2641C348.496 25.2961 348.485 25.3386 348.464 25.3972L347.182 29.5106C347.15 29.6171 347.113 29.6862 347.07 29.7182C347.027 29.7501 346.958 29.7714 346.868 29.7714H346.41C346.309 29.7714 346.24 29.7554 346.197 29.7182C346.155 29.6809 346.117 29.6117 346.096 29.5053L345.271 26.073L344.452 29.5C344.425 29.6064 344.393 29.6756 344.351 29.7128C344.308 29.7501 344.234 29.7661 344.138 29.7661H343.68ZM350.518 29.9097C350.242 29.9097 349.965 29.8778 349.699 29.814C349.433 29.7501 349.225 29.6809 349.087 29.6011C349.002 29.5532 348.943 29.5 348.922 29.4521C348.901 29.4042 348.89 29.351 348.89 29.3031V29.0317C348.89 28.92 348.932 28.8667 349.012 28.8667C349.044 28.8667 349.076 28.8721 349.108 28.8827C349.129 28.8896 349.156 28.9009 349.187 28.9138L349.187 28.9138C349.204 28.9208 349.222 28.9284 349.241 28.9359C349.422 29.0157 349.619 29.0796 349.826 29.1222C350.039 29.1647 350.247 29.186 350.46 29.186C350.795 29.186 351.056 29.1275 351.237 29.0104C351.418 28.8933 351.513 28.7231 351.513 28.5049C351.513 28.3559 351.465 28.2335 351.37 28.1324C351.274 28.0313 351.093 27.9408 350.832 27.8557L350.061 27.6162C349.672 27.4938 349.385 27.3129 349.209 27.0734C349.034 26.8393 348.943 26.5785 348.943 26.3018C348.943 26.0783 348.991 25.8814 349.087 25.7111C349.183 25.5408 349.31 25.3918 349.47 25.2748C349.63 25.1524 349.811 25.0619 350.023 24.9981C350.236 24.9342 350.46 24.9076 350.694 24.9076C350.811 24.9076 350.933 24.9129 351.05 24.9289C351.173 24.9448 351.285 24.9661 351.396 24.9874C351.503 25.014 351.604 25.0406 351.7 25.0726C351.795 25.1045 351.87 25.1364 351.923 25.1683C351.998 25.2109 352.051 25.2535 352.083 25.3014C352.115 25.344 352.131 25.4025 352.131 25.477V25.7271C352.131 25.8388 352.088 25.8974 352.008 25.8974C351.966 25.8974 351.897 25.8761 351.806 25.8335C351.503 25.6952 351.162 25.626 350.784 25.626C350.481 25.626 350.242 25.6739 350.077 25.775C349.912 25.8761 349.826 26.0304 349.826 26.2486C349.826 26.3976 349.88 26.5253 349.986 26.6264C350.093 26.7275 350.289 26.8286 350.571 26.9191L351.327 27.1586C351.71 27.281 351.987 27.4512 352.152 27.6694C352.317 27.8876 352.397 28.1377 352.397 28.4144C352.397 28.6432 352.349 28.8508 352.258 29.0317C352.163 29.2126 352.035 29.3723 351.87 29.5C351.705 29.633 351.508 29.7288 351.279 29.798C351.04 29.8725 350.79 29.9097 350.518 29.9097ZM351.524 32.4959C349.773 33.789 347.23 34.4754 345.042 34.4754C341.977 34.4754 339.215 33.342 337.129 31.4582C336.965 31.3092 337.114 31.107 337.31 31.2241C339.567 32.5331 342.35 33.326 345.229 33.326C347.171 33.326 349.305 32.9216 351.269 32.0914C351.561 31.9584 351.811 32.283 351.524 32.4959ZM350.204 31.5966C350.774 31.5274 352.029 31.3784 352.253 31.6657C352.476 31.9478 352.003 33.1345 351.79 33.6613C351.726 33.8209 351.864 33.8848 352.008 33.7624C352.945 32.9748 353.19 31.3305 352.998 31.091C352.806 30.8569 351.162 30.6547 350.162 31.3571C350.007 31.4688 350.034 31.6178 350.204 31.5966Z" fill="#2563EB"/>
<rect x="328.227" y="53.5855" width="34.939" height="34.939" rx="4" fill="#EEEEF0"/>
<path fill-rule="evenodd" clip-rule="evenodd" d="M345.696 79.055C350.115 79.055 353.696 75.4733 353.696 71.055C353.696 66.6367 350.115 63.055 345.696 63.055C341.279 63.055 337.698 66.6346 337.696 71.051H340.74C340.742 68.3157 342.96 66.0989 345.696 66.0989C348.433 66.0989 350.652 68.3178 350.652 71.055C350.652 73.7921 348.433 76.011 345.696 76.011L345.687 76.011V79.055L345.696 79.055ZM345.687 72.8577H342.593V75.9513H345.687V72.8577ZM342.593 75.9614H340.216V73.9734H338.228V75.9614H340.216V78.3386H342.593V75.9614Z" fill="#2563EB"/>
<rect x="328.227" y="96.6713" width="34.939" height="34.939" rx="4" fill="#EEEEF0"/>
<g clip-path="url(#clip0_4973_58800)">
<path fill-rule="evenodd" clip-rule="evenodd" d="M346.13 106.483C345.856 106.351 345.537 106.351 345.262 106.483L339.682 109.17C339.408 109.302 339.208 109.552 339.141 109.849L337.762 115.887C337.695 116.184 337.766 116.496 337.955 116.734L341.817 121.576C342.007 121.814 342.295 121.953 342.599 121.953H348.793C349.098 121.953 349.385 121.814 349.575 121.576L353.437 116.734C353.627 116.496 353.698 116.184 353.63 115.887L352.252 109.849C352.184 109.552 351.985 109.302 351.711 109.17L346.13 106.483ZM345.458 109.006C345.519 108.938 345.605 108.896 345.696 108.891L345.697 108.889C345.788 108.894 345.874 108.935 345.935 109.003C345.996 109.071 346.028 109.161 346.024 109.252V109.345C346.015 109.45 346 109.553 345.979 109.656C345.947 109.852 345.935 110.051 345.942 110.249C345.955 110.316 345.993 110.374 346.048 110.413C346.049 110.418 346.049 110.425 346.05 110.434C346.052 110.468 346.056 110.524 346.056 110.558C347.09 110.652 348.055 111.118 348.771 111.87L348.895 111.781C348.962 111.792 349.031 111.785 349.093 111.759C349.253 111.641 349.401 111.507 349.534 111.361C349.602 111.28 349.675 111.204 349.752 111.132C349.772 111.114 349.802 111.091 349.825 111.074C349.857 111.039 349.896 111.012 349.94 110.995C349.983 110.977 350.03 110.968 350.077 110.97C350.124 110.972 350.171 110.984 350.213 111.005C350.255 111.027 350.292 111.057 350.321 111.093C350.351 111.13 350.372 111.173 350.383 111.218C350.395 111.264 350.396 111.312 350.388 111.358C350.38 111.404 350.361 111.448 350.334 111.487C350.308 111.526 350.273 111.558 350.232 111.582C350.226 111.587 350.219 111.593 350.211 111.599C350.194 111.614 350.174 111.629 350.16 111.64C350.072 111.698 349.981 111.751 349.888 111.798C349.715 111.896 349.552 112.011 349.401 112.14C349.357 112.192 349.335 112.258 349.34 112.326L349.223 112.43C349.803 113.294 350.046 114.341 349.905 115.373L350.037 115.411C350.069 115.472 350.118 115.522 350.178 115.557C350.369 115.608 350.566 115.64 350.764 115.653C350.869 115.656 350.973 115.664 351.077 115.679C351.095 115.682 351.118 115.688 351.139 115.693C351.151 115.696 351.162 115.699 351.173 115.701C351.218 115.707 351.261 115.723 351.3 115.747C351.339 115.77 351.372 115.802 351.398 115.84C351.424 115.877 351.442 115.919 351.45 115.964C351.459 116.009 351.458 116.055 351.448 116.099C351.438 116.144 351.419 116.185 351.392 116.222C351.365 116.259 351.33 116.289 351.29 116.312C351.251 116.334 351.207 116.348 351.162 116.353C351.116 116.358 351.071 116.353 351.027 116.339H351.016C351.007 116.337 350.997 116.335 350.987 116.333C350.968 116.329 350.947 116.325 350.931 116.321C350.833 116.288 350.736 116.251 350.641 116.207C350.457 116.133 350.266 116.077 350.071 116.04C350.003 116.037 349.938 116.062 349.888 116.107C349.865 116.102 349.791 116.089 349.748 116.082C349.432 117.078 348.759 117.922 347.86 118.454C347.876 118.499 347.894 118.544 347.915 118.586C347.881 118.645 347.872 118.714 347.889 118.78C347.969 118.962 348.066 119.136 348.18 119.299C348.243 119.382 348.302 119.469 348.356 119.559C348.367 119.58 348.381 119.61 348.393 119.635C348.395 119.639 348.397 119.643 348.398 119.647C348.421 119.687 348.436 119.73 348.441 119.776C348.447 119.821 348.442 119.867 348.429 119.91C348.416 119.954 348.393 119.994 348.363 120.028C348.333 120.063 348.297 120.091 348.256 120.11C348.214 120.13 348.17 120.14 348.124 120.142C348.079 120.143 348.033 120.134 347.991 120.117C347.949 120.1 347.911 120.074 347.879 120.041C347.848 120.009 347.823 119.97 347.807 119.927C347.795 119.902 347.778 119.867 347.767 119.843C347.729 119.745 347.697 119.645 347.672 119.544C347.615 119.353 347.54 119.169 347.447 118.994C347.407 118.939 347.347 118.903 347.28 118.892C347.27 118.879 347.247 118.837 347.227 118.801C347.22 118.788 347.213 118.776 347.207 118.766C346.235 119.135 345.16 119.132 344.189 118.758L344.117 118.893C344.064 118.903 344.015 118.928 343.977 118.967C343.865 119.15 343.78 119.348 343.723 119.554C343.697 119.656 343.666 119.756 343.629 119.854C343.621 119.871 343.611 119.891 343.602 119.91C343.597 119.92 343.592 119.929 343.588 119.938C343.572 119.981 343.548 120.02 343.516 120.053C343.485 120.086 343.446 120.112 343.404 120.129C343.362 120.147 343.316 120.155 343.271 120.154C343.225 120.153 343.18 120.142 343.139 120.122C343.097 120.103 343.061 120.075 343.031 120.04C343.001 120.005 342.979 119.965 342.965 119.921C342.952 119.877 342.948 119.831 342.954 119.786C342.959 119.741 342.974 119.697 342.998 119.658C343.002 119.648 343.007 119.638 343.012 119.626C343.022 119.606 343.031 119.585 343.04 119.57C343.093 119.479 343.152 119.392 343.215 119.308C343.331 119.141 343.43 118.962 343.512 118.776C343.521 118.713 343.51 118.648 343.483 118.591L343.542 118.445C342.646 117.917 341.975 117.08 341.654 116.09L341.509 116.115C341.454 116.076 341.388 116.053 341.321 116.049C341.126 116.086 340.935 116.142 340.751 116.217C340.656 116.26 340.559 116.297 340.46 116.329C340.443 116.334 340.42 116.339 340.398 116.344C340.39 116.345 340.383 116.347 340.376 116.348H340.364C340.321 116.362 340.275 116.367 340.23 116.362C340.185 116.358 340.141 116.344 340.101 116.321C340.062 116.299 340.027 116.268 340 116.231C339.973 116.195 339.954 116.153 339.944 116.109C339.933 116.064 339.933 116.018 339.941 115.974C339.95 115.929 339.968 115.886 339.994 115.849C340.02 115.812 340.053 115.78 340.092 115.756C340.131 115.732 340.174 115.717 340.219 115.711H340.224L340.229 115.709C340.255 115.703 340.288 115.695 340.311 115.69C340.415 115.676 340.52 115.667 340.625 115.665C340.823 115.652 341.019 115.619 341.211 115.568C341.268 115.531 341.316 115.481 341.351 115.423L341.489 115.383C341.34 114.351 341.578 113.3 342.156 112.432L342.051 112.339C342.048 112.271 342.025 112.206 341.986 112.15C341.835 112.02 341.672 111.906 341.499 111.808C341.406 111.76 341.316 111.707 341.229 111.65C341.216 111.64 341.201 111.628 341.186 111.616C341.177 111.608 341.169 111.601 341.161 111.595H341.156C341.081 111.542 341.031 111.461 341.016 111.371C341.001 111.28 341.022 111.188 341.075 111.113C341.107 111.075 341.147 111.044 341.192 111.024C341.237 111.004 341.287 110.995 341.336 110.997C341.419 111.001 341.499 111.031 341.564 111.083C341.567 111.085 341.57 111.087 341.573 111.09C341.594 111.106 341.619 111.126 341.637 111.141C341.714 111.213 341.786 111.29 341.855 111.37C341.988 111.517 342.136 111.65 342.295 111.769C342.355 111.8 342.425 111.807 342.49 111.788C342.501 111.794 342.526 111.812 342.552 111.831C342.572 111.845 342.593 111.86 342.608 111.871C343.183 111.26 343.927 110.835 344.746 110.65C344.94 110.606 345.138 110.576 345.337 110.56L345.345 110.421C345.395 110.376 345.432 110.317 345.451 110.252C345.458 110.053 345.446 109.854 345.414 109.658C345.393 109.556 345.378 109.452 345.369 109.347V109.264V109.255C345.365 109.163 345.397 109.074 345.458 109.006ZM345.189 113.143L345.287 111.428C345.17 111.442 345.055 111.462 344.94 111.488C344.328 111.626 343.766 111.932 343.318 112.372L344.725 113.361C344.767 113.391 344.816 113.409 344.867 113.413C344.919 113.418 344.97 113.409 345.017 113.386C345.064 113.364 345.104 113.33 345.133 113.287C345.162 113.245 345.179 113.195 345.182 113.143H345.189ZM348.067 112.372C347.535 111.851 346.846 111.519 346.107 111.428L346.206 113.146C346.209 113.197 346.226 113.247 346.255 113.29C346.285 113.333 346.324 113.367 346.371 113.389C346.418 113.411 346.47 113.421 346.521 113.416C346.573 113.412 346.622 113.393 346.664 113.363H346.669L348.067 112.372ZM344.09 114.162L342.805 113.013V113.013C342.415 113.651 342.247 114.401 342.33 115.145L343.977 114.67V114.664C344.026 114.65 344.071 114.622 344.107 114.585C344.143 114.547 344.167 114.5 344.179 114.45C344.191 114.399 344.188 114.347 344.173 114.297C344.157 114.248 344.128 114.203 344.09 114.169V114.162ZM349.07 115.138C349.142 114.395 348.969 113.649 348.578 113.013L348.58 113.019L347.303 114.162C347.264 114.197 347.235 114.241 347.22 114.291C347.204 114.34 347.202 114.393 347.213 114.443C347.225 114.494 347.25 114.54 347.285 114.578C347.321 114.616 347.366 114.643 347.416 114.658V114.665L349.07 115.138ZM345.959 114.247H345.433L345.104 114.655L345.222 115.164L345.695 115.392L346.168 115.164L346.286 114.656L345.959 114.247ZM347.186 115.652C347.164 115.648 347.142 115.646 347.12 115.647V115.652C347.073 115.655 347.028 115.668 346.988 115.692C346.948 115.716 346.915 115.749 346.89 115.788C346.866 115.828 346.851 115.872 346.847 115.919C346.844 115.965 346.851 116.011 346.869 116.054L347.53 117.652C348.16 117.248 348.638 116.647 348.889 115.942L347.186 115.652ZM344.393 115.691C344.352 115.668 344.306 115.655 344.259 115.654L344.257 115.65C344.238 115.65 344.219 115.652 344.2 115.655L342.512 115.942C342.765 116.643 343.243 117.241 343.871 117.643L344.525 116.062L344.52 116.056C344.538 116.012 344.545 115.965 344.541 115.918C344.536 115.871 344.521 115.826 344.495 115.786C344.469 115.747 344.434 115.714 344.393 115.691ZM345.839 116.385C345.792 116.358 345.739 116.345 345.685 116.347V116.35C345.635 116.352 345.586 116.367 345.543 116.393C345.5 116.42 345.465 116.458 345.441 116.502L344.611 118.003C345.205 118.206 345.844 118.239 346.456 118.098C346.568 118.073 346.679 118.042 346.788 118.005L345.956 116.498H345.95C345.924 116.451 345.886 116.412 345.839 116.385Z" fill="#2563EB"/>
</g>
<rect x="0.834961" y="8.12592" width="41.4092" height="41.4092" rx="4" fill="#EEEEF0"/>
<path fill-rule="evenodd" clip-rule="evenodd" d="M19.0984 19.7188C19.0984 18.3996 20.1679 17.3302 21.4871 17.3302C22.8063 17.3302 23.8758 18.3996 23.8758 19.7188C23.8758 21.0381 22.8063 22.1075 21.4871 22.1075C20.1679 22.1075 19.0984 21.0381 19.0984 19.7188ZM21.4871 16.3302C19.6156 16.3302 18.0984 17.8473 18.0984 19.7188C18.0984 20.8927 18.6953 21.9271 19.6021 22.5353C18.8779 22.8833 18.2649 23.4254 17.8305 24.0937H14.0264C13.7502 24.0937 13.5264 24.3176 13.5264 24.5937V31.8308C13.5264 32.1069 13.7502 32.3308 14.0264 32.3308H29.0425C29.3186 32.3308 29.5425 32.1069 29.5425 31.8308V24.5937C29.5425 24.3176 29.3186 24.0937 29.0425 24.0937H25.1433C24.709 23.4255 24.0961 22.8833 23.372 22.5353C24.2788 21.9272 24.8758 20.8928 24.8758 19.7188C24.8758 17.8473 23.3586 16.3302 21.4871 16.3302ZM21.4869 23.1076C22.4152 23.1076 23.2558 23.4841 23.864 24.0937H19.1099C19.7181 23.4841 20.5587 23.1076 21.4869 23.1076ZM14.5264 25.0937V31.3308H28.5425V25.0937H14.5264ZM22.6912 26.5093C22.7856 26.2498 22.6517 25.9629 22.3922 25.8685C22.1327 25.7741 21.8458 25.908 21.7514 26.1675L20.3886 29.9152C20.2942 30.1748 20.4281 30.4616 20.6876 30.556C20.9472 30.6504 21.234 30.5165 21.3284 30.257L22.6912 26.5093ZM20.1733 27.5234C20.3685 27.3281 20.3685 27.0115 20.1733 26.8163C19.978 26.621 19.6614 26.621 19.4662 26.8163L18.4236 27.8588C18.2283 28.0541 18.2283 28.3707 18.4236 28.5659L19.4662 29.6085C19.6614 29.8038 19.978 29.8038 20.1733 29.6085C20.3685 29.4133 20.3685 29.0967 20.1733 28.9014L19.4842 28.2124L20.1733 27.5234ZM22.9065 26.8163C23.1017 26.621 23.4183 26.621 23.6136 26.8163L24.6562 27.8588C24.8514 28.0541 24.8514 28.3707 24.6562 28.5659L23.6136 29.6085C23.4183 29.8038 23.1017 29.8038 22.9065 29.6085C22.7112 29.4133 22.7112 29.0967 22.9065 28.9014L23.5955 28.2124L22.9065 27.5234C22.7112 27.3281 22.7112 27.0115 22.9065 26.8163Z" fill="#2563EB"/>
<path d="M11.8435 40.3305H10.8577V37.4214H11.8634C12.1522 37.4214 12.4003 37.4797 12.6077 37.5961C12.8161 37.7117 12.9761 37.8779 13.0878 38.0947C13.1996 38.3116 13.2555 38.571 13.2555 38.8731C13.2555 39.1761 13.1991 39.4366 13.0864 39.6544C12.9747 39.8722 12.8132 40.0393 12.6021 40.1558C12.3918 40.2723 12.139 40.3305 11.8435 40.3305ZM11.3847 39.8745H11.818C12.0206 39.8745 12.1896 39.8376 12.3251 39.7637C12.4605 39.6889 12.5623 39.5777 12.6305 39.4299C12.6986 39.2813 12.7327 39.0957 12.7327 38.8731C12.7327 38.6506 12.6986 38.4659 12.6305 38.3191C12.5623 38.1714 12.4614 38.0611 12.3279 37.9882C12.1953 37.9143 12.0306 37.8774 11.8336 37.8774H11.3847V39.8745ZM14.6994 40.3731C14.4806 40.3731 14.2917 40.3277 14.1326 40.2368C13.9744 40.1449 13.8528 40.0152 13.7675 39.8476C13.6823 39.679 13.6397 39.4806 13.6397 39.2524C13.6397 39.0279 13.6823 38.831 13.7675 38.6615C13.8537 38.491 13.974 38.3584 14.1283 38.2637C14.2827 38.1681 14.464 38.1203 14.6724 38.1203C14.8068 38.1203 14.9337 38.1421 15.053 38.1856C15.1733 38.2282 15.2794 38.2945 15.3712 38.3845C15.464 38.4744 15.5369 38.589 15.59 38.7282C15.643 38.8665 15.6695 39.0313 15.6695 39.2226V39.3802H13.8812V39.0336H15.1766C15.1757 38.9351 15.1544 38.8476 15.1127 38.7708C15.071 38.6932 15.0128 38.6321 14.938 38.5876C14.8641 38.5431 14.778 38.5208 14.6795 38.5208C14.5744 38.5208 14.482 38.5464 14.4025 38.5976C14.3229 38.6477 14.2609 38.714 14.2164 38.7964C14.1728 38.8779 14.1506 38.9673 14.1496 39.0649V39.3674C14.1496 39.4943 14.1728 39.6032 14.2192 39.6941C14.2656 39.7841 14.3305 39.8532 14.4138 39.9015C14.4972 39.9489 14.5947 39.9726 14.7065 39.9726C14.7813 39.9726 14.849 39.9621 14.9096 39.9413C14.9702 39.9195 15.0227 39.8878 15.0672 39.8461C15.1118 39.8045 15.1454 39.7529 15.1681 39.6913L15.6482 39.7453C15.6179 39.8722 15.5601 39.983 15.4749 40.0777C15.3906 40.1714 15.2827 40.2443 15.1511 40.2964C15.0194 40.3476 14.8689 40.3731 14.6994 40.3731ZM17.9909 38.1487L17.2139 40.3305H16.6457L15.8687 38.1487H16.417L16.9185 39.7694H16.9412L17.444 38.1487H17.9909ZM19.2384 40.3731C19.0197 40.3731 18.8307 40.3277 18.6717 40.2368C18.5135 40.1449 18.3918 40.0152 18.3066 39.8476C18.2214 39.679 18.1788 39.4806 18.1788 39.2524C18.1788 39.0279 18.2214 38.831 18.3066 38.6615C18.3928 38.491 18.513 38.3584 18.6674 38.2637C18.8217 38.1681 19.0031 38.1203 19.2114 38.1203C19.3459 38.1203 19.4728 38.1421 19.5921 38.1856C19.7124 38.2282 19.8184 38.2945 19.9103 38.3845C20.0031 38.4744 20.076 38.589 20.129 38.7282C20.1821 38.8665 20.2086 39.0313 20.2086 39.2226V39.3802H18.4202V39.0336H19.7157C19.7147 38.9351 19.6934 38.8476 19.6518 38.7708C19.6101 38.6932 19.5519 38.6321 19.4771 38.5876C19.4032 38.5431 19.317 38.5208 19.2185 38.5208C19.1134 38.5208 19.0211 38.5464 18.9415 38.5976C18.862 38.6477 18.8 38.714 18.7555 38.7964C18.7119 38.8779 18.6896 38.9673 18.6887 39.0649V39.3674C18.6887 39.4943 18.7119 39.6032 18.7583 39.6941C18.8047 39.7841 18.8696 39.8532 18.9529 39.9015C19.0362 39.9489 19.1338 39.9726 19.2455 39.9726C19.3203 39.9726 19.388 39.9621 19.4486 39.9413C19.5092 39.9195 19.5618 39.8878 19.6063 39.8461C19.6508 39.8045 19.6844 39.7529 19.7072 39.6913L20.1873 39.7453C20.157 39.8722 20.0992 39.983 20.014 40.0777C19.9297 40.1714 19.8217 40.2443 19.6901 40.2964C19.5585 40.3476 19.4079 40.3731 19.2384 40.3731ZM21.1578 37.4214V40.3305H20.6436V37.4214H21.1578ZM22.6383 40.3731C22.4252 40.3731 22.2405 40.3262 22.0843 40.2325C21.928 40.1387 21.8068 40.0076 21.7207 39.839C21.6354 39.6705 21.5928 39.4735 21.5928 39.2481C21.5928 39.0227 21.6354 38.8253 21.7207 38.6558C21.8068 38.4863 21.928 38.3547 22.0843 38.2609C22.2405 38.1672 22.4252 38.1203 22.6383 38.1203C22.8513 38.1203 23.036 38.1672 23.1922 38.2609C23.3485 38.3547 23.4692 38.4863 23.5545 38.6558C23.6406 38.8253 23.6837 39.0227 23.6837 39.2481C23.6837 39.4735 23.6406 39.6705 23.5545 39.839C23.4692 40.0076 23.3485 40.1387 23.1922 40.2325C23.036 40.3262 22.8513 40.3731 22.6383 40.3731ZM22.6411 39.9612C22.7566 39.9612 22.8532 39.9295 22.9309 39.866C23.0085 39.8016 23.0663 39.7154 23.1042 39.6075C23.143 39.4995 23.1624 39.3793 23.1624 39.2467C23.1624 39.1132 23.143 38.9924 23.1042 38.8845C23.0663 38.7756 23.0085 38.6889 22.9309 38.6245C22.8532 38.5601 22.7566 38.5279 22.6411 38.5279C22.5227 38.5279 22.4243 38.5601 22.3457 38.6245C22.268 38.6889 22.2098 38.7756 22.1709 38.8845C22.1331 38.9924 22.1141 39.1132 22.1141 39.2467C22.1141 39.3793 22.1331 39.4995 22.1709 39.6075C22.2098 39.7154 22.268 39.8016 22.3457 39.866C22.4243 39.9295 22.5227 39.9612 22.6411 39.9612ZM24.1202 41.1487V38.1487H24.6258V38.5095H24.6557C24.6822 38.4565 24.7196 38.4001 24.7679 38.3404C24.8162 38.2798 24.8815 38.2282 24.9639 38.1856C25.0463 38.1421 25.1514 38.1203 25.2793 38.1203C25.4478 38.1203 25.5998 38.1634 25.7352 38.2495C25.8716 38.3348 25.9795 38.4612 26.0591 38.6288C26.1396 38.7955 26.1798 39 26.1798 39.2424C26.1798 39.482 26.1405 39.6856 26.0619 39.8532C25.9833 40.0208 25.8763 40.1487 25.7409 40.2368C25.6055 40.3248 25.4521 40.3689 25.2807 40.3689C25.1557 40.3689 25.052 40.348 24.9696 40.3064C24.8872 40.2647 24.8209 40.2145 24.7707 40.1558C24.7215 40.0961 24.6831 40.0398 24.6557 39.9868H24.6344V41.1487H24.1202ZM24.6244 39.2396C24.6244 39.3807 24.6443 39.5043 24.6841 39.6103C24.7248 39.7164 24.783 39.7993 24.8588 39.8589C24.9355 39.9176 25.0283 39.947 25.1372 39.947C25.2508 39.947 25.346 39.9167 25.4227 39.8561C25.4994 39.7945 25.5572 39.7107 25.596 39.6047C25.6358 39.4976 25.6557 39.376 25.6557 39.2396C25.6557 39.1042 25.6363 38.9839 25.5974 38.8788C25.5586 38.7737 25.5008 38.6913 25.4241 38.6316C25.3474 38.572 25.2518 38.5422 25.1372 38.5422C25.0274 38.5422 24.9341 38.571 24.8574 38.6288C24.7807 38.6866 24.7224 38.7675 24.6827 38.8717C24.6438 38.9759 24.6244 39.0985 24.6244 39.2396ZM27.5861 40.3731C27.3673 40.3731 27.1784 40.3277 27.0193 40.2368C26.8612 40.1449 26.7395 40.0152 26.6543 39.8476C26.569 39.679 26.5264 39.4806 26.5264 39.2524C26.5264 39.0279 26.569 38.831 26.6543 38.6615C26.7404 38.491 26.8607 38.3584 27.015 38.2637C27.1694 38.1681 27.3507 38.1203 27.5591 38.1203C27.6936 38.1203 27.8204 38.1421 27.9398 38.1856C28.06 38.2282 28.1661 38.2945 28.2579 38.3845C28.3507 38.4744 28.4237 38.589 28.4767 38.7282C28.5297 38.8665 28.5562 39.0313 28.5562 39.2226V39.3802H26.7679V39.0336H28.0633C28.0624 38.9351 28.0411 38.8476 27.9994 38.7708C27.9578 38.6932 27.8995 38.6321 27.8247 38.5876C27.7508 38.5431 27.6647 38.5208 27.5662 38.5208C27.4611 38.5208 27.3687 38.5464 27.2892 38.5976C27.2097 38.6477 27.1476 38.714 27.1031 38.7964C27.0596 38.8779 27.0373 38.9673 27.0364 39.0649V39.3674C27.0364 39.4943 27.0596 39.6032 27.106 39.6941C27.1524 39.7841 27.2172 39.8532 27.3006 39.9015C27.3839 39.9489 27.4814 39.9726 27.5932 39.9726C27.668 39.9726 27.7357 39.9621 27.7963 39.9413C27.8569 39.9195 27.9095 39.8878 27.954 39.8461C27.9985 39.8045 28.0321 39.7529 28.0548 39.6913L28.5349 39.7453C28.5046 39.8722 28.4469 39.983 28.3616 40.0777C28.2774 40.1714 28.1694 40.2443 28.0378 40.2964C27.9061 40.3476 27.7556 40.3731 27.5861 40.3731ZM28.9913 40.3305V38.1487H29.4898V38.5123H29.5126C29.5523 38.3864 29.6205 38.2893 29.7171 38.2211C29.8146 38.152 29.9259 38.1174 30.0509 38.1174C30.0793 38.1174 30.111 38.1189 30.1461 38.1217C30.1821 38.1236 30.2119 38.1269 30.2356 38.1316V38.6047C30.2138 38.5971 30.1792 38.5904 30.1319 38.5848C30.0855 38.5781 30.0405 38.5748 29.9969 38.5748C29.9032 38.5748 29.8189 38.5952 29.7441 38.6359C29.6702 38.6757 29.612 38.7311 29.5694 38.8021C29.5268 38.8731 29.5055 38.955 29.5055 39.0478V40.3305H28.9913ZM32.3016 38.7254L31.8329 38.7765C31.8196 38.7292 31.7964 38.6847 31.7633 38.643C31.7311 38.6013 31.6875 38.5677 31.6326 38.5422C31.5777 38.5166 31.5104 38.5038 31.4309 38.5038C31.3239 38.5038 31.2339 38.527 31.161 38.5734C31.089 38.6198 31.0535 38.6799 31.0545 38.7538C31.0535 38.8172 31.0767 38.8689 31.1241 38.9086C31.1724 38.9484 31.2519 38.9811 31.3627 39.0066L31.7349 39.0862C31.9413 39.1307 32.0947 39.2012 32.1951 39.2978C32.2964 39.3944 32.3476 39.5208 32.3485 39.6771C32.3476 39.8144 32.3073 39.9356 32.2278 40.0407C32.1492 40.1449 32.0398 40.2263 31.8996 40.2851C31.7595 40.3438 31.5985 40.3731 31.4167 40.3731C31.1496 40.3731 30.9347 40.3172 30.7718 40.2055C30.6089 40.0928 30.5119 39.9361 30.4806 39.7353L30.982 39.687C31.0047 39.7855 31.053 39.8599 31.1269 39.9101C31.2008 39.9602 31.2969 39.9853 31.4153 39.9853C31.5374 39.9853 31.6354 39.9602 31.7093 39.9101C31.7841 39.8599 31.8215 39.7978 31.8215 39.724C31.8215 39.6615 31.7974 39.6099 31.7491 39.5691C31.7017 39.5284 31.6279 39.4972 31.5275 39.4754L31.1553 39.3973C30.946 39.3537 30.7912 39.2803 30.6908 39.1771C30.5905 39.0729 30.5407 38.9413 30.5417 38.7822C30.5407 38.6477 30.5772 38.5313 30.6511 38.4328C30.7259 38.3333 30.8296 38.2566 30.9621 38.2027C31.0957 38.1477 31.2495 38.1203 31.4238 38.1203C31.6795 38.1203 31.8807 38.1747 32.0275 38.2836C32.1752 38.3925 32.2666 38.5398 32.3016 38.7254Z" fill="#2563EB"/>
<rect x="0.834961" y="94.2972" width="41.4092" height="41.4092" rx="4" fill="#EEEEF0"/>
<path fill-rule="evenodd" clip-rule="evenodd" d="M19.0984 105.89C19.0984 104.571 20.1679 103.501 21.4871 103.501C22.8063 103.501 23.8758 104.571 23.8758 105.89C23.8758 107.209 22.8063 108.279 21.4871 108.279C20.1679 108.279 19.0984 107.209 19.0984 105.89ZM21.4871 102.501C19.6156 102.501 18.0984 104.019 18.0984 105.89C18.0984 107.064 18.6953 108.098 19.6021 108.707C18.8779 109.055 18.2649 109.597 17.8305 110.265H14.0264C13.7502 110.265 13.5264 110.489 13.5264 110.765V118.002C13.5264 118.278 13.7502 118.502 14.0264 118.502H29.0425C29.3186 118.502 29.5425 118.278 29.5425 118.002V110.765C29.5425 110.489 29.3186 110.265 29.0425 110.265H25.1433C24.709 109.597 24.0961 109.055 23.372 108.707C24.2788 108.099 24.8758 107.064 24.8758 105.89C24.8758 104.019 23.3586 102.501 21.4871 102.501ZM21.4869 109.279C22.4152 109.279 23.2558 109.655 23.864 110.265H19.1099C19.7181 109.655 20.5587 109.279 21.4869 109.279ZM14.5264 111.265V117.502H28.5425V111.265H14.5264ZM22.6912 112.681C22.7856 112.421 22.6517 112.134 22.3922 112.04C22.1327 111.945 21.8458 112.079 21.7514 112.339L20.3886 116.087C20.2942 116.346 20.4281 116.633 20.6876 116.727C20.9472 116.822 21.234 116.688 21.3284 116.428L22.6912 112.681ZM20.1733 113.695C20.3685 113.499 20.3685 113.183 20.1733 112.988C19.978 112.792 19.6614 112.792 19.4662 112.988L18.4236 114.03C18.2283 114.225 18.2283 114.542 18.4236 114.737L19.4662 115.78C19.6614 115.975 19.978 115.975 20.1733 115.78C20.3685 115.585 20.3685 115.268 20.1733 115.073L19.4842 114.384L20.1733 113.695ZM22.9065 112.988C23.1017 112.792 23.4183 112.792 23.6136 112.988L24.6562 114.03C24.8514 114.225 24.8514 114.542 24.6562 114.737L23.6136 115.78C23.4183 115.975 23.1017 115.975 22.9065 115.78C22.7112 115.585 22.7112 115.268 22.9065 115.073L23.5955 114.384L22.9065 113.695C22.7112 113.499 22.7112 113.183 22.9065 112.988Z" fill="#2563EB"/>
<path d="M8.83234 126.502V123.593H9.92325C10.1467 123.593 10.3342 123.634 10.4858 123.718C10.6382 123.801 10.7533 123.916 10.8309 124.061C10.9095 124.206 10.9488 124.371 10.9488 124.556C10.9488 124.742 10.9095 124.908 10.8309 125.053C10.7523 125.198 10.6363 125.312 10.4829 125.395C10.3295 125.478 10.1406 125.519 9.91615 125.519H9.19314V125.086H9.84513C9.97581 125.086 10.0828 125.063 10.1661 125.017C10.2495 124.972 10.311 124.909 10.3508 124.83C10.3915 124.75 10.4119 124.659 10.4119 124.556C10.4119 124.453 10.3915 124.362 10.3508 124.283C10.311 124.204 10.249 124.143 10.1647 124.1C10.0814 124.055 9.97391 124.033 9.84229 124.033H9.35933V126.502H8.83234ZM11.898 123.593V126.502H11.3838V123.593H11.898ZM13.0546 126.546C12.9164 126.546 12.7919 126.521 12.6811 126.472C12.5712 126.422 12.4841 126.348 12.4197 126.25C12.3563 126.153 12.3245 126.033 12.3245 125.89C12.3245 125.766 12.3473 125.665 12.3927 125.584C12.4382 125.504 12.5002 125.439 12.5788 125.391C12.6574 125.343 12.7459 125.306 12.8444 125.282C12.9438 125.256 13.0466 125.238 13.1527 125.226C13.2805 125.213 13.3842 125.201 13.4637 125.191C13.5433 125.179 13.601 125.162 13.637 125.14C13.674 125.116 13.6924 125.079 13.6924 125.03V125.022C13.6924 124.915 13.6607 124.832 13.5973 124.773C13.5338 124.714 13.4424 124.685 13.3231 124.685C13.1972 124.685 13.0973 124.712 13.0234 124.767C12.9505 124.822 12.9012 124.887 12.8757 124.962L12.3956 124.894C12.4334 124.761 12.4959 124.65 12.5831 124.561C12.6702 124.471 12.7767 124.404 12.9027 124.36C13.0286 124.314 13.1678 124.292 13.3203 124.292C13.4254 124.292 13.53 124.304 13.6342 124.328C13.7384 124.353 13.8335 124.394 13.9197 124.451C14.0059 124.507 14.075 124.583 14.1271 124.679C14.1801 124.776 14.2066 124.897 14.2066 125.042V126.502H13.7123V126.202H13.6953C13.664 126.263 13.62 126.319 13.5632 126.373C13.5073 126.425 13.4367 126.467 13.3515 126.499C13.2672 126.53 13.1683 126.546 13.0546 126.546ZM13.1882 126.168C13.2914 126.168 13.3809 126.148 13.4566 126.107C13.5324 126.065 13.5906 126.01 13.6313 125.942C13.673 125.874 13.6938 125.8 13.6938 125.719V125.462C13.6777 125.475 13.6503 125.488 13.6115 125.499C13.5736 125.51 13.531 125.52 13.4836 125.529C13.4363 125.537 13.3894 125.545 13.343 125.551C13.2966 125.558 13.2563 125.564 13.2223 125.569C13.1456 125.579 13.0769 125.596 13.0163 125.62C12.9557 125.643 12.9079 125.676 12.8728 125.719C12.8378 125.761 12.8203 125.815 12.8203 125.881C12.8203 125.976 12.8548 126.047 12.924 126.096C12.9931 126.144 13.0812 126.168 13.1882 126.168ZM15.8132 124.32V124.718H14.5589V124.32H15.8132ZM14.8686 123.797H15.3828V125.846C15.3828 125.915 15.3932 125.968 15.414 126.005C15.4358 126.041 15.4642 126.065 15.4992 126.078C15.5343 126.092 15.5731 126.098 15.6157 126.098C15.6479 126.098 15.6773 126.096 15.7038 126.091C15.7313 126.087 15.7521 126.082 15.7663 126.078L15.8529 126.48C15.8255 126.49 15.7862 126.5 15.735 126.512C15.6849 126.523 15.6233 126.53 15.5504 126.532C15.4216 126.535 15.3056 126.516 15.2024 126.473C15.0992 126.43 15.0172 126.363 14.9566 126.272C14.897 126.181 14.8676 126.067 14.8686 125.931V123.797ZM17.3483 124.32V124.718H16.0585V124.32H17.3483ZM16.381 126.502V124.114C16.381 123.967 16.4113 123.845 16.4719 123.748C16.5335 123.65 16.6158 123.577 16.7191 123.529C16.8223 123.48 16.9369 123.456 17.0628 123.456C17.1518 123.456 17.2309 123.463 17.3 123.478C17.3692 123.492 17.4203 123.505 17.4534 123.516L17.3512 123.914C17.3294 123.907 17.3019 123.9 17.2688 123.894C17.2356 123.886 17.1987 123.882 17.158 123.882C17.0623 123.882 16.9946 123.906 16.9549 123.952C16.916 123.998 16.8966 124.063 16.8966 124.148V126.502H16.381ZM18.6207 126.544C18.4076 126.544 18.223 126.498 18.0667 126.404C17.9105 126.31 17.7893 126.179 17.7031 126.01C17.6179 125.842 17.5752 125.645 17.5752 125.419C17.5752 125.194 17.6179 124.997 17.7031 124.827C17.7893 124.658 17.9105 124.526 18.0667 124.432C18.223 124.338 18.4076 124.292 18.6207 124.292C18.8338 124.292 19.0184 124.338 19.1747 124.432C19.3309 124.526 19.4517 124.658 19.5369 124.827C19.6231 124.997 19.6661 125.194 19.6661 125.419C19.6661 125.645 19.6231 125.842 19.5369 126.01C19.4517 126.179 19.3309 126.31 19.1747 126.404C19.0184 126.498 18.8338 126.544 18.6207 126.544ZM18.6235 126.132C18.7391 126.132 18.8357 126.101 18.9133 126.037C18.991 125.973 19.0487 125.887 19.0866 125.779C19.1254 125.671 19.1448 125.551 19.1448 125.418C19.1448 125.284 19.1254 125.164 19.0866 125.056C19.0487 124.947 18.991 124.86 18.9133 124.796C18.8357 124.731 18.7391 124.699 18.6235 124.699C18.5052 124.699 18.4067 124.731 18.3281 124.796C18.2504 124.86 18.1922 124.947 18.1534 125.056C18.1155 125.164 18.0965 125.284 18.0965 125.418C18.0965 125.551 18.1155 125.671 18.1534 125.779C18.1922 125.887 18.2504 125.973 18.3281 126.037C18.4067 126.101 18.5052 126.132 18.6235 126.132ZM20.1026 126.502V124.32H20.6012V124.684H20.6239C20.6637 124.558 20.7318 124.461 20.8284 124.392C20.926 124.323 21.0372 124.289 21.1622 124.289C21.1907 124.289 21.2224 124.29 21.2574 124.293C21.2934 124.295 21.3232 124.298 21.3469 124.303V124.776C21.3251 124.768 21.2906 124.762 21.2432 124.756C21.1968 124.749 21.1518 124.746 21.1083 124.746C21.0145 124.746 20.9302 124.766 20.8554 124.807C20.7816 124.847 20.7233 124.902 20.6807 124.973C20.6381 125.044 20.6168 125.126 20.6168 125.219V126.502H20.1026ZM21.6885 126.502V124.32H22.18V124.691H22.2056C22.251 124.566 22.3263 124.468 22.4314 124.398C22.5365 124.327 22.662 124.292 22.8078 124.292C22.9556 124.292 23.0801 124.328 23.1814 124.399C23.2837 124.471 23.3557 124.568 23.3973 124.691H23.4201C23.4684 124.569 23.5498 124.473 23.6644 124.401C23.7799 124.328 23.9167 124.292 24.0749 124.292C24.2756 124.292 24.4395 124.355 24.5664 124.482C24.6933 124.609 24.7567 124.794 24.7567 125.037V126.502H24.2411V125.117C24.2411 124.981 24.2051 124.882 24.1331 124.82C24.0612 124.757 23.9731 124.725 23.8689 124.725C23.7449 124.725 23.6478 124.764 23.5777 124.841C23.5086 124.918 23.474 125.018 23.474 125.141V126.502H22.9698V125.096C22.9698 124.983 22.9357 124.893 22.8675 124.826C22.8003 124.758 22.7122 124.725 22.6033 124.725C22.5294 124.725 22.4622 124.744 22.4016 124.782C22.341 124.819 22.2927 124.871 22.2567 124.939C22.2207 125.007 22.2027 125.085 22.2027 125.175V126.502H21.6885ZM26.2933 126.502V123.593H28.1853V124.034H26.8203V124.824H28.0873V125.266H26.8203V126.06H28.1967V126.502H26.2933ZM29.2144 125.223V126.502H28.7002V124.32H29.1917V124.691H29.2173C29.2675 124.569 29.3475 124.471 29.4573 124.399C29.5681 124.328 29.705 124.292 29.8679 124.292C30.0184 124.292 30.1496 124.324 30.2613 124.388C30.374 124.453 30.4611 124.546 30.5227 124.668C30.5852 124.79 30.616 124.938 30.615 125.113V126.502H30.1008V125.192C30.1008 125.046 30.0629 124.932 29.9872 124.85C29.9124 124.767 29.8087 124.726 29.6761 124.726C29.5861 124.726 29.5061 124.746 29.436 124.786C29.3669 124.825 29.3125 124.881 29.2727 124.955C29.2339 125.029 29.2144 125.118 29.2144 125.223ZM32.0866 127.365C31.9019 127.365 31.7433 127.34 31.6108 127.29C31.4782 127.241 31.3716 127.175 31.2911 127.091C31.2107 127.008 31.1548 126.916 31.1235 126.814L31.5866 126.702C31.6074 126.745 31.6377 126.787 31.6775 126.828C31.7173 126.871 31.7708 126.906 31.838 126.934C31.9062 126.962 31.9919 126.976 32.0951 126.976C32.241 126.976 32.3617 126.941 32.4573 126.87C32.553 126.8 32.6008 126.684 32.6008 126.523V126.11H32.5752C32.5487 126.163 32.5099 126.217 32.4588 126.273C32.4086 126.329 32.3418 126.376 32.2585 126.414C32.1761 126.452 32.0724 126.471 31.9474 126.471C31.7798 126.471 31.6278 126.431 31.4914 126.353C31.356 126.273 31.2481 126.155 31.1676 125.998C31.088 125.839 31.0483 125.641 31.0483 125.404C31.0483 125.164 31.088 124.962 31.1676 124.797C31.2481 124.632 31.3565 124.506 31.4929 124.421C31.6292 124.335 31.7812 124.292 31.9488 124.292C32.0767 124.292 32.1818 124.313 32.2642 124.357C32.3475 124.399 32.4138 124.451 32.463 124.512C32.5123 124.571 32.5497 124.628 32.5752 124.681H32.6036V124.32H33.1108V126.537C33.1108 126.724 33.0662 126.878 32.9772 127C32.8882 127.123 32.7665 127.214 32.6122 127.274C32.4578 127.335 32.2826 127.365 32.0866 127.365ZM32.0909 126.067C32.1998 126.067 32.2926 126.041 32.3693 125.988C32.446 125.935 32.5042 125.858 32.544 125.759C32.5838 125.659 32.6036 125.54 32.6036 125.401C32.6036 125.264 32.5838 125.143 32.544 125.04C32.5052 124.937 32.4474 124.857 32.3707 124.8C32.2949 124.742 32.2017 124.713 32.0909 124.713C31.9763 124.713 31.8806 124.743 31.8039 124.803C31.7272 124.863 31.6695 124.944 31.6306 125.049C31.5918 125.152 31.5724 125.269 31.5724 125.401C31.5724 125.534 31.5918 125.651 31.6306 125.752C31.6704 125.851 31.7286 125.929 31.8054 125.985C31.883 126.04 31.9782 126.067 32.0909 126.067ZM33.9545 126.533C33.8683 126.533 33.7945 126.503 33.7329 126.442C33.6714 126.382 33.6411 126.308 33.642 126.221C33.6411 126.135 33.6714 126.062 33.7329 126.002C33.7945 125.941 33.8683 125.911 33.9545 125.911C34.0378 125.911 34.1103 125.941 34.1718 126.002C34.2343 126.062 34.2661 126.135 34.267 126.221C34.2661 126.278 34.2509 126.331 34.2215 126.378C34.1931 126.426 34.1553 126.463 34.1079 126.492C34.0615 126.519 34.0104 126.533 33.9545 126.533Z" fill="#2563EB"/>
<path d="M83.6685 62.976H77.4689C69.0632 62.976 61.5545 57.72 58.6772 49.8221L54.1327 37.3482C52.2695 32.2339 47.4073 28.8305 41.9642 28.8305V28.8305" stroke="#D97706" stroke-dasharray="2 2"/>
<path d="M83.6685 80.8563H77.4689C69.0632 80.8563 61.5545 86.1122 58.6772 94.0101L54.1327 106.484C52.2695 111.598 47.4073 115.002 41.9641 115.002V115.002" stroke="#D97706" stroke-dasharray="2 2"/>
<defs>
<clipPath id="clip0_4973_58800">
<rect width="16" height="16" fill="white" transform="translate(337.696 106.141)"/>
</clipPath>
</defs>
</svg>
