<svg width="282" height="112" viewBox="0 0 282 112" fill="none" xmlns="http://www.w3.org/2000/svg">
<rect x="64.957" y="5.60214" width="155.974" height="100.623" rx="8" stroke="#D97706"/>
<rect width="16.2544" height="12" transform="translate(134.783 0.958008)" fill="#FAFAFA"/>
<path d="M141.709 7.06421C141.642 6.99727 141.642 6.88874 141.709 6.8218L145.163 3.37944C145.23 3.3125 145.339 3.3125 145.406 3.37944L148.86 6.82182C148.927 6.88876 148.927 6.99729 148.86 7.06423L145.406 10.5066C145.339 10.5735 145.23 10.5735 145.163 10.5066L141.709 7.06421Z" fill="#2563EB"/>
<path d="M143.051 1.00821C142.984 0.941273 142.875 0.941273 142.808 1.00821L136.961 6.8368C136.893 6.90374 136.893 7.01227 136.961 7.07921L142.808 12.9078C142.875 12.9747 142.984 12.9747 143.051 12.9078L144.015 11.9471C144.083 11.8801 144.083 11.7716 144.015 11.7047L139.352 7.05688C139.285 6.98994 139.285 6.88141 139.352 6.81447L143.993 2.18901C144.06 2.12207 144.06 2.01354 143.993 1.9466L143.051 1.00821Z" fill="#2563EB"/>
<path d="M82.6709 80.7714H81.5664V80.0947H82.6328C82.9375 80.0947 83.1914 80.039 83.3945 79.9277C83.5996 79.8144 83.7539 79.6464 83.8574 79.4238C83.9609 79.1992 84.0127 78.9189 84.0127 78.5829C84.0127 78.2509 83.9609 77.9736 83.8574 77.7509C83.7539 77.5283 83.6016 77.3613 83.4004 77.2499C83.2012 77.1386 82.9521 77.0829 82.6533 77.0829H81.543V76.4062H82.7002C83.1338 76.4062 83.5059 76.4931 83.8164 76.6669C84.127 76.8408 84.3652 77.0908 84.5312 77.4169C84.6992 77.7431 84.7832 78.1318 84.7832 78.5829C84.7832 79.038 84.6992 79.4296 84.5312 79.7578C84.3652 80.0839 84.124 80.3349 83.8076 80.5107C83.4932 80.6845 83.1143 80.7714 82.6709 80.7714ZM81.9766 76.4062V80.7714H81.1943V76.4062H81.9766ZM86.9424 80.8388C86.6123 80.8388 86.3281 80.7695 86.0898 80.6308C85.8535 80.4921 85.6709 80.2968 85.542 80.0449C85.415 79.7929 85.3516 79.496 85.3516 79.1542C85.3516 78.8163 85.4141 78.5204 85.5391 78.2665C85.666 78.0126 85.8447 77.8144 86.0752 77.6718C86.3076 77.5273 86.5801 77.455 86.8926 77.455C87.0918 77.455 87.2812 77.4872 87.4609 77.5517C87.6426 77.6161 87.8027 77.7158 87.9414 77.8505C88.082 77.9853 88.1914 78.1572 88.2695 78.3661C88.3496 78.5732 88.3896 78.8203 88.3896 79.1074V79.3476H85.7119V78.829H88.0117L87.6543 78.9814C87.6543 78.7978 87.626 78.6367 87.5693 78.498C87.5127 78.3574 87.4277 78.248 87.3145 78.1699C87.2031 78.0917 87.0635 78.0527 86.8955 78.0527C86.7275 78.0527 86.585 78.0927 86.4678 78.1728C86.3506 78.2509 86.2607 78.3564 86.1982 78.4892C86.1377 78.6201 86.1074 78.7665 86.1074 78.9286V79.2861C86.1074 79.4931 86.1426 79.6679 86.2129 79.8105C86.2832 79.9531 86.3818 80.0605 86.5088 80.1328C86.6357 80.205 86.7832 80.2411 86.9512 80.2411C87.0625 80.2411 87.1631 80.2255 87.2529 80.1943C87.3447 80.1611 87.4238 80.1132 87.4902 80.0507C87.5566 79.9863 87.6064 79.9081 87.6396 79.8163L88.3398 79.9599C88.2871 80.1357 88.1973 80.29 88.0703 80.4228C87.9434 80.5536 87.7842 80.6562 87.5928 80.7304C87.4033 80.8027 87.1865 80.8388 86.9424 80.8388ZM89.8633 80.7714L88.6445 77.496H89.459L90.0566 79.2773C90.127 79.4863 90.1875 79.6962 90.2383 79.9072C90.2891 80.1181 90.3408 80.332 90.3936 80.5488H90.2031C90.2578 80.332 90.3096 80.1181 90.3584 79.9072C90.4092 79.6962 90.4688 79.4863 90.5371 79.2773L91.1318 77.496H91.9404L90.7158 80.7714H89.8633ZM94.3604 80.83C93.9775 80.83 93.6348 80.7411 93.332 80.5634C93.0293 80.3857 92.79 80.1298 92.6143 79.7958C92.4404 79.4619 92.3535 79.0605 92.3535 78.5917C92.3535 78.121 92.4404 77.7187 92.6143 77.3847C92.79 77.0488 93.0293 76.7919 93.332 76.6142C93.6348 76.4365 93.9775 76.3476 94.3604 76.3476C94.7412 76.3476 95.082 76.4365 95.3828 76.6142C95.6855 76.7919 95.9238 77.0488 96.0977 77.3847C96.2734 77.7187 96.3613 78.121 96.3613 78.5917C96.3613 79.0605 96.2734 79.4628 96.0977 79.7988C95.9238 80.1328 95.6855 80.3886 95.3828 80.5663C95.082 80.7421 94.7412 80.83 94.3604 80.83ZM94.3604 80.1298C94.5967 80.1298 94.8057 80.0712 94.9873 79.954C95.1709 79.8349 95.3145 79.6611 95.418 79.4326C95.5215 79.2021 95.5732 78.9218 95.5732 78.5917C95.5732 78.2578 95.5215 77.9765 95.418 77.748C95.3145 77.5175 95.1709 77.3437 94.9873 77.2265C94.8057 77.1074 94.5967 77.0478 94.3604 77.0478C94.1221 77.0478 93.9111 77.1074 93.7275 77.2265C93.5439 77.3456 93.3994 77.5204 93.2939 77.7509C93.1904 77.9794 93.1387 78.2597 93.1387 78.5917C93.1387 78.9218 93.1904 79.2011 93.2939 79.4296C93.3994 79.6581 93.5439 79.832 93.7275 79.9511C93.9111 80.0703 94.1221 80.1298 94.3604 80.1298ZM97.0674 81.996V77.496H97.8115V78.038H97.8613C97.9004 77.9599 97.9561 77.8759 98.0283 77.7861C98.1006 77.6962 98.1982 77.6191 98.3213 77.5546C98.4463 77.4882 98.6055 77.455 98.7988 77.455C99.0527 77.455 99.2812 77.5195 99.4844 77.6484C99.6875 77.7773 99.8486 77.9677 99.9678 78.2197C100.089 78.4697 100.149 78.7763 100.149 79.1396C100.149 79.499 100.091 79.8046 99.9736 80.0566C99.8564 80.3085 99.6953 80.5009 99.4902 80.6337C99.2871 80.7646 99.0557 80.83 98.7959 80.83C98.6104 80.83 98.4551 80.7988 98.3301 80.7363C98.2051 80.6718 98.1055 80.5947 98.0312 80.5048C97.957 80.415 97.9004 80.331 97.8613 80.2529H97.8291V81.996H97.0674ZM98.5908 80.2031C98.7607 80.2031 98.9033 80.1572 99.0186 80.0654C99.1338 79.9716 99.2207 79.8447 99.2793 79.6845C99.3379 79.5224 99.3672 79.3398 99.3672 79.1367C99.3672 78.9335 99.3379 78.7529 99.2793 78.5947C99.2227 78.4345 99.1367 78.3095 99.0215 78.2197C98.9062 78.1279 98.7627 78.082 98.5908 78.082C98.4229 78.082 98.2812 78.1259 98.166 78.2138C98.0508 78.3017 97.9629 78.4247 97.9023 78.5829C97.8438 78.7392 97.8145 78.9238 97.8145 79.1367C97.8145 79.3495 97.8438 79.5361 97.9023 79.6962C97.9629 79.8564 98.0508 79.9814 98.166 80.0712C98.2832 80.1591 98.4248 80.2031 98.5908 80.2031ZM102.051 80.8388C101.799 80.8388 101.576 80.8027 101.383 80.7304C101.189 80.6581 101.03 80.5527 100.905 80.414C100.782 80.2753 100.702 80.1074 100.665 79.9101L101.377 79.7753C101.422 79.9374 101.501 80.0585 101.614 80.1386C101.729 80.2167 101.88 80.2558 102.065 80.2558C102.253 80.2558 102.401 80.2187 102.511 80.1445C102.622 80.0683 102.678 79.9745 102.678 79.8632C102.678 79.7695 102.642 79.6923 102.569 79.6318C102.497 79.5693 102.386 79.5214 102.235 79.4882L101.676 79.3681C101.367 79.3017 101.137 79.1923 100.984 79.04C100.832 78.8876 100.756 78.6913 100.756 78.4511C100.756 78.248 100.812 78.0722 100.923 77.9238C101.034 77.7753 101.188 77.6601 101.386 77.5781C101.585 77.496 101.815 77.455 102.077 77.455C102.325 77.455 102.538 77.4902 102.716 77.5605C102.896 77.6308 103.04 77.7294 103.149 77.8564C103.261 77.9814 103.338 78.1288 103.381 78.2988L102.701 78.4335C102.664 78.3183 102.597 78.2216 102.499 78.1435C102.401 78.0634 102.264 78.0234 102.086 78.0234C101.924 78.0234 101.788 78.0595 101.679 78.1318C101.571 78.2021 101.518 78.2929 101.518 78.4042C101.518 78.4999 101.554 78.579 101.626 78.6415C101.698 78.704 101.817 78.7529 101.983 78.788L102.54 78.9052C102.851 78.9716 103.081 79.0781 103.231 79.2245C103.382 79.371 103.457 79.5595 103.457 79.79C103.457 79.997 103.397 80.1796 103.278 80.3378C103.159 80.4941 102.993 80.6171 102.78 80.707C102.569 80.7949 102.326 80.8388 102.051 80.8388Z" fill="#2563EB"/>
<rect x="73.2305" y="32.7714" width="38" height="38" rx="19" fill="#FAFAFA"/>
<rect x="73.2305" y="32.7714" width="38" height="38" rx="19" stroke="#2563EB"/>
<path d="M90.1485 54.047C89.3905 55.2545 88.0471 56.0571 86.5162 56.0571C84.1492 56.0571 82.2305 54.1384 82.2305 51.7714C82.2305 49.4045 84.1492 47.4857 86.5162 47.4857C87.3866 47.4857 88.5374 47.9259 89.065 48.393C89.582 48.8506 94.7813 54.6207 94.9918 54.8543C94.9985 54.8617 95.0019 54.8651 95.009 54.8721L95.2191 55.0789C95.9599 55.69 96.9094 56.0571 97.9448 56.0571C100.312 56.0571 102.23 54.1384 102.23 51.7714C102.23 49.4045 100.312 47.4857 97.9448 47.4857C96.6002 47.4857 95.4003 48.1049 94.6146 49.0736" stroke="#2563EB" stroke-linecap="round"/>
<rect width="14" height="8" transform="translate(85.2305 31.7714)" fill="#FAFAFA"/>
<path d="M90.3408 36.6962V35.955C90.4346 35.8027 90.5264 35.6601 90.6162 35.5273C90.708 35.3925 90.8047 35.2597 90.9062 35.1288C91.0098 34.998 91.125 34.8593 91.252 34.7128L92.3975 33.4062H93.3701L91.5186 35.4951L91.46 35.4745L90.3408 36.6962ZM89.7754 37.7714V33.4062H90.5576V34.7011L90.543 35.7529L90.5576 36.1367V37.7714H89.7754ZM92.4766 37.7714L91.0879 35.7177L91.5801 35.1288L93.3994 37.7714H92.4766ZM94.7207 33.4062V37.7714H93.959V33.4062H94.7207Z" fill="#2563EB"/>
<path d="M131.47 76.4062V80.7714H130.688V76.4062H131.47ZM133.078 78.8525V80.7714H132.316V77.496H133.037L133.049 78.3046H132.987C133.079 78.0214 133.214 77.8095 133.392 77.6689C133.569 77.5263 133.792 77.455 134.06 77.455C134.284 77.455 134.48 77.5029 134.648 77.5986C134.816 77.6943 134.946 77.8339 135.038 78.0175C135.132 78.2011 135.179 78.4247 135.179 78.6884V80.7714H134.417V78.8056C134.417 78.5869 134.36 78.415 134.247 78.29C134.134 78.165 133.978 78.1025 133.778 78.1025C133.644 78.1025 133.523 78.1318 133.418 78.1904C133.312 78.249 133.229 78.3349 133.169 78.4482C133.108 78.5595 133.078 78.6943 133.078 78.8525ZM137.713 77.496V78.0937H135.645V77.496H137.713ZM136.245 80.7714V77.1826C136.245 76.9638 136.29 76.7822 136.38 76.6376C136.472 76.4931 136.595 76.3847 136.749 76.3124C136.905 76.2382 137.076 76.2011 137.262 76.2011C137.396 76.2011 137.516 76.2119 137.619 76.2333C137.723 76.2548 137.799 76.2744 137.848 76.2919L137.692 76.8837C137.659 76.874 137.618 76.8642 137.569 76.8544C137.522 76.8427 137.467 76.8369 137.402 76.8369C137.26 76.8369 137.157 76.872 137.095 76.9423C137.034 77.0126 137.004 77.1122 137.004 77.2411V80.7714H136.245ZM138.322 80.7714V77.496H139.061V78.0439H139.096C139.154 77.8544 139.257 77.7089 139.403 77.6074C139.55 77.5038 139.717 77.4521 139.904 77.4521C139.947 77.4521 139.995 77.454 140.048 77.4579C140.101 77.4619 140.146 77.4667 140.183 77.4726V78.1728C140.151 78.163 140.101 78.1542 140.03 78.1464C139.96 78.1386 139.891 78.1347 139.822 78.1347C139.682 78.1347 139.555 78.165 139.441 78.2255C139.33 78.2861 139.242 78.3701 139.178 78.4775C139.115 78.5829 139.084 78.705 139.084 78.8437V80.7714H138.322ZM141.782 80.83C141.526 80.83 141.297 80.7646 141.094 80.6337C140.891 80.5009 140.729 80.3085 140.61 80.0566C140.493 79.8046 140.435 79.499 140.435 79.1396C140.435 78.7763 140.495 78.4697 140.616 78.2197C140.737 77.9677 140.899 77.7773 141.103 77.6484C141.308 77.5195 141.536 77.455 141.788 77.455C141.981 77.455 142.14 77.4872 142.263 77.5517C142.388 77.6161 142.486 77.6943 142.559 77.7861C142.631 77.8759 142.686 77.9599 142.723 78.038H142.758V77.496H143.517V80.7714H142.761V80.2529H142.723C142.686 80.331 142.629 80.416 142.553 80.5078C142.479 80.5976 142.379 80.6738 142.254 80.7363C142.129 80.7988 141.972 80.83 141.782 80.83ZM141.996 80.2031C142.162 80.2031 142.303 80.1591 142.418 80.0712C142.533 79.9814 142.621 79.8564 142.682 79.6962C142.742 79.5361 142.772 79.3495 142.772 79.1367C142.772 78.9238 142.742 78.7392 142.682 78.5829C142.623 78.4247 142.536 78.3017 142.421 78.2138C142.306 78.1259 142.164 78.082 141.996 78.082C141.824 78.082 141.68 78.1279 141.562 78.2197C141.447 78.3095 141.36 78.4335 141.302 78.5917C141.243 78.7499 141.214 78.9316 141.214 79.1367C141.214 79.3398 141.243 79.5224 141.302 79.6845C141.362 79.8447 141.45 79.9716 141.565 80.0654C141.683 80.1572 141.826 80.2031 141.996 80.2031ZM146.227 80.83C145.844 80.83 145.501 80.7411 145.198 80.5634C144.896 80.3857 144.656 80.1298 144.48 79.7958C144.307 79.4619 144.22 79.0605 144.22 78.5917C144.22 78.121 144.307 77.7187 144.48 77.3847C144.656 77.0488 144.896 76.7919 145.198 76.6142C145.501 76.4365 145.844 76.3476 146.227 76.3476C146.607 76.3476 146.948 76.4365 147.249 76.6142C147.552 76.7919 147.79 77.0488 147.964 77.3847C148.14 77.7187 148.228 78.121 148.228 78.5917C148.228 79.0605 148.14 79.4628 147.964 79.7988C147.79 80.1328 147.552 80.3886 147.249 80.5663C146.948 80.7421 146.607 80.83 146.227 80.83ZM146.227 80.1298C146.463 80.1298 146.672 80.0712 146.854 79.954C147.037 79.8349 147.181 79.6611 147.284 79.4326C147.388 79.2021 147.439 78.9218 147.439 78.5917C147.439 78.2578 147.388 77.9765 147.284 77.748C147.181 77.5175 147.037 77.3437 146.854 77.2265C146.672 77.1074 146.463 77.0478 146.227 77.0478C145.988 77.0478 145.777 77.1074 145.594 77.2265C145.41 77.3456 145.266 77.5204 145.16 77.7509C145.057 77.9794 145.005 78.2597 145.005 78.5917C145.005 78.9218 145.057 79.2011 145.16 79.4296C145.266 79.6581 145.41 79.832 145.594 79.9511C145.777 80.0703 145.988 80.1298 146.227 80.1298ZM148.934 81.996V77.496H149.678V78.038H149.728C149.767 77.9599 149.822 77.8759 149.895 77.7861C149.967 77.6962 150.064 77.6191 150.188 77.5546C150.312 77.4882 150.472 77.455 150.665 77.455C150.919 77.455 151.147 77.5195 151.351 77.6484C151.554 77.7773 151.715 77.9677 151.834 78.2197C151.955 78.4697 152.016 78.7763 152.016 79.1396C152.016 79.499 151.957 79.8046 151.84 80.0566C151.723 80.3085 151.562 80.5009 151.356 80.6337C151.153 80.7646 150.922 80.83 150.662 80.83C150.477 80.83 150.321 80.7988 150.196 80.7363C150.071 80.6718 149.972 80.5947 149.897 80.5048C149.823 80.415 149.767 80.331 149.728 80.2529H149.695V81.996H148.934ZM150.457 80.2031C150.627 80.2031 150.77 80.1572 150.885 80.0654C151 79.9716 151.087 79.8447 151.146 79.6845C151.204 79.5224 151.233 79.3398 151.233 79.1367C151.233 78.9335 151.204 78.7529 151.146 78.5947C151.089 78.4345 151.003 78.3095 150.888 78.2197C150.772 78.1279 150.629 78.082 150.457 78.082C150.289 78.082 150.147 78.1259 150.032 78.2138C149.917 78.3017 149.829 78.4247 149.769 78.5829C149.71 78.7392 149.681 78.9238 149.681 79.1367C149.681 79.3495 149.71 79.5361 149.769 79.6962C149.829 79.8564 149.917 79.9814 150.032 80.0712C150.149 80.1591 150.291 80.2031 150.457 80.2031ZM153.917 80.8388C153.665 80.8388 153.442 80.8027 153.249 80.7304C153.056 80.6581 152.896 80.5527 152.771 80.414C152.648 80.2753 152.568 80.1074 152.531 79.9101L153.243 79.7753C153.288 79.9374 153.367 80.0585 153.48 80.1386C153.596 80.2167 153.746 80.2558 153.932 80.2558C154.119 80.2558 154.268 80.2187 154.377 80.1445C154.488 80.0683 154.544 79.9745 154.544 79.8632C154.544 79.7695 154.508 79.6923 154.436 79.6318C154.363 79.5693 154.252 79.5214 154.102 79.4882L153.542 79.3681C153.233 79.3017 153.003 79.1923 152.851 79.04C152.698 78.8876 152.622 78.6913 152.622 78.4511C152.622 78.248 152.678 78.0722 152.789 77.9238C152.9 77.7753 153.055 77.6601 153.252 77.5781C153.451 77.496 153.682 77.455 153.943 77.455C154.191 77.455 154.404 77.4902 154.582 77.5605C154.762 77.6308 154.906 77.7294 155.016 77.8564C155.127 77.9814 155.204 78.1288 155.247 78.2988L154.567 78.4335C154.53 78.3183 154.463 78.2216 154.365 78.1435C154.268 78.0634 154.13 78.0234 153.952 78.0234C153.79 78.0234 153.654 78.0595 153.545 78.1318C153.438 78.2021 153.384 78.2929 153.384 78.4042C153.384 78.4999 153.42 78.579 153.492 78.6415C153.564 78.704 153.684 78.7529 153.85 78.788L154.406 78.9052C154.717 78.9716 154.947 79.0781 155.098 79.2245C155.248 79.371 155.323 79.5595 155.323 79.79C155.323 79.997 155.264 80.1796 155.145 80.3378C155.025 80.4941 154.859 80.6171 154.646 80.707C154.436 80.7949 154.192 80.8388 153.917 80.8388Z" fill="#2563EB"/>
<rect x="123.91" y="32.7714" width="38" height="38" rx="19" fill="#FAFAFA"/>
<rect x="123.91" y="32.7714" width="38" height="38" rx="19" stroke="#2563EB"/>
<path fill-rule="evenodd" clip-rule="evenodd" d="M142.704 43.4035C142.576 43.4033 142.448 43.4521 142.35 43.55L140.368 45.5321C140.172 45.7274 140.172 46.0439 140.368 46.2392C140.563 46.4345 140.88 46.4345 141.075 46.2392L142.205 45.1091V49.6523C141.951 49.7814 141.706 49.9303 141.473 50.098C140.761 50.6116 140.18 51.2872 139.78 52.0691L139.754 52.1203C139.33 52.0581 138.897 52.0639 138.473 52.1383C138.111 52.2018 137.76 52.3144 137.431 52.4721C137.411 52.441 137.388 52.4115 137.36 52.3844L133.606 48.6304H135.221C135.498 48.6304 135.721 48.4065 135.721 48.1304C135.721 47.8543 135.498 47.6304 135.221 47.6304H132.42C132.287 47.6304 132.16 47.6831 132.066 47.7768C132.059 47.7845 132.051 47.7923 132.044 47.8004C131.931 47.9222 131.889 48.0868 131.92 48.2398L131.92 50.9318C131.92 51.208 132.144 51.4318 132.42 51.4318C132.696 51.4318 132.92 51.208 132.92 50.9318L132.92 49.3581L136.581 53.0189C136.247 53.2985 135.96 53.6308 135.732 54.0036C135.433 54.4911 135.242 55.0365 135.17 55.6036C135.099 56.1708 135.149 56.7466 135.317 57.293C135.485 57.8394 135.767 58.3438 136.145 58.7728C136.523 59.2017 136.987 59.5454 137.508 59.781C138.029 60.0166 138.594 60.1388 139.166 60.1393H139.166H144.423C145.895 60.1393 147.457 59.7482 148.554 58.6078C148.757 58.3969 148.958 58.1692 149.145 57.929L149.145 57.929L149.15 57.922C149.677 57.2192 150.029 56.4013 150.178 55.5356C150.327 54.6698 150.268 53.7811 150.006 52.9427C149.892 52.5753 149.739 52.2222 149.553 51.8886L152.894 48.5476V50.1146C152.894 50.3907 153.118 50.6146 153.394 50.6146C153.67 50.6146 153.894 50.3907 153.894 50.1146V47.4523C153.938 47.2857 153.895 47.1008 153.764 46.9702C153.734 46.9407 153.702 46.9156 153.668 46.895C153.587 46.842 153.492 46.8131 153.394 46.8131H150.592C150.316 46.8131 150.092 47.037 150.092 47.3131C150.092 47.5893 150.316 47.8131 150.592 47.8131L152.214 47.8131L148.977 51.0503C148.88 50.934 148.778 50.8214 148.672 50.713C148.057 50.0859 147.301 49.6141 146.468 49.3363C145.635 49.0585 144.747 48.9827 143.879 49.1151C143.651 49.1499 143.426 49.1988 143.205 49.2612V45.1121L144.332 46.2392C144.527 46.4345 144.844 46.4345 145.039 46.2392C145.234 46.0439 145.234 45.7274 145.039 45.5321L143.081 43.574C142.989 43.4695 142.855 43.4035 142.705 43.4035H142.704ZM146.152 50.285C145.469 50.0573 144.741 49.9951 144.029 50.1037C143.318 50.2122 142.642 50.4884 142.058 50.9093C141.474 51.3303 140.998 51.884 140.67 52.5248C140.342 53.1657 140.171 53.8754 140.171 54.5953C140.17 54.8715 139.947 55.0953 139.67 55.0953C139.394 55.0953 139.17 54.8714 139.171 54.5952C139.171 54.0828 139.242 53.5747 139.38 53.085C139.136 53.068 138.889 53.0806 138.646 53.1233C138.222 53.1975 137.82 53.361 137.464 53.6028C137.109 53.8446 136.809 54.1592 136.585 54.5258C136.36 54.8924 136.216 55.3025 136.163 55.7289C136.109 56.1553 136.146 56.5883 136.273 56.9992C136.399 57.41 136.611 57.7893 136.895 58.1118C137.179 58.4343 137.529 58.6928 137.92 58.8699C138.312 59.0471 138.737 59.1389 139.167 59.1393H144.423C145.744 59.1393 146.995 58.7864 147.833 57.9146C148.015 57.7255 148.191 57.5254 148.353 57.3185C148.783 56.7433 149.071 56.0742 149.193 55.366C149.315 54.6565 149.267 53.9281 149.052 53.2408C148.837 52.5536 148.462 51.9272 147.958 51.4133C147.454 50.8994 146.835 50.5127 146.152 50.285Z" fill="#2563EB"/>
<rect width="14" height="8" transform="translate(135.91 31.7714)" fill="#FAFAFA"/>
<path d="M141.021 36.6962V35.955C141.114 35.8027 141.206 35.6601 141.296 35.5273C141.388 35.3925 141.484 35.2597 141.586 35.1288C141.689 34.998 141.805 34.8593 141.932 34.7128L143.077 33.4062H144.05L142.198 35.4951L142.14 35.4745L141.021 36.6962ZM140.455 37.7714V33.4062H141.237V34.7011L141.223 35.7529L141.237 36.1367V37.7714H140.455ZM143.156 37.7714L141.768 35.7177L142.26 35.1288L144.079 37.7714H143.156ZM145.4 33.4062V37.7714H144.639V33.4062H145.4Z" fill="#2563EB"/>
<path d="M178.618 80.7714H177.514V80.0947H178.58C178.885 80.0947 179.139 80.039 179.342 79.9277C179.547 79.8144 179.701 79.6464 179.805 79.4238C179.908 79.1992 179.96 78.9189 179.96 78.5829C179.96 78.2509 179.908 77.9736 179.805 77.7509C179.701 77.5283 179.549 77.3613 179.348 77.2499C179.148 77.1386 178.899 77.0829 178.601 77.0829H177.49V76.4062H178.647C179.081 76.4062 179.453 76.4931 179.764 76.6669C180.074 76.8408 180.312 77.0908 180.479 77.4169C180.646 77.7431 180.73 78.1318 180.73 78.5829C180.73 79.038 180.646 79.4296 180.479 79.7578C180.312 80.0839 180.071 80.3349 179.755 80.5107C179.44 80.6845 179.062 80.7714 178.618 80.7714ZM177.924 76.4062V80.7714H177.142V76.4062H177.924ZM181.442 80.7714V77.496H182.204V80.7714H181.442ZM181.823 77.0331C181.702 77.0331 181.598 76.9921 181.51 76.9101C181.424 76.8281 181.381 76.7304 181.381 76.6171C181.381 76.4999 181.424 76.4013 181.51 76.3212C181.598 76.2392 181.702 76.1982 181.823 76.1982C181.946 76.1982 182.051 76.2392 182.137 76.3212C182.225 76.4013 182.269 76.4999 182.269 76.6171C182.269 76.7304 182.225 76.8281 182.137 76.9101C182.051 76.9921 181.946 77.0331 181.823 77.0331ZM184.252 80.8388C184 80.8388 183.777 80.8027 183.584 80.7304C183.391 80.6581 183.231 80.5527 183.106 80.414C182.983 80.2753 182.903 80.1074 182.866 79.9101L183.578 79.7753C183.623 79.9374 183.702 80.0585 183.815 80.1386C183.931 80.2167 184.081 80.2558 184.267 80.2558C184.454 80.2558 184.603 80.2187 184.712 80.1445C184.823 80.0683 184.879 79.9745 184.879 79.8632C184.879 79.7695 184.843 79.6923 184.771 79.6318C184.698 79.5693 184.587 79.5214 184.437 79.4882L183.877 79.3681C183.568 79.3017 183.338 79.1923 183.186 79.04C183.033 78.8876 182.957 78.6913 182.957 78.4511C182.957 78.248 183.013 78.0722 183.124 77.9238C183.235 77.7753 183.39 77.6601 183.587 77.5781C183.786 77.496 184.017 77.455 184.278 77.455C184.526 77.455 184.739 77.4902 184.917 77.5605C185.097 77.6308 185.241 77.7294 185.351 77.8564C185.462 77.9814 185.539 78.1288 185.582 78.2988L184.902 78.4335C184.865 78.3183 184.798 78.2216 184.7 78.1435C184.603 78.0634 184.465 78.0234 184.287 78.0234C184.125 78.0234 183.989 78.0595 183.88 78.1318C183.772 78.2021 183.719 78.2929 183.719 78.4042C183.719 78.4999 183.755 78.579 183.827 78.6415C183.899 78.704 184.019 78.7529 184.185 78.788L184.741 78.9052C185.052 78.9716 185.282 79.0781 185.433 79.2245C185.583 79.371 185.658 79.5595 185.658 79.79C185.658 79.997 185.599 80.1796 185.479 80.3378C185.36 80.4941 185.194 80.6171 184.981 80.707C184.771 80.7949 184.527 80.8388 184.252 80.8388ZM187.826 77.496V78.0937H185.966V77.496H187.826ZM186.432 76.7167H187.193V79.8486C187.193 79.9677 187.219 80.0556 187.27 80.1122C187.32 80.1669 187.403 80.1943 187.519 80.1943C187.554 80.1943 187.6 80.1904 187.656 80.1826C187.715 80.1728 187.762 80.164 187.797 80.1562L187.917 80.7451C187.833 80.7704 187.747 80.788 187.659 80.7978C187.571 80.8095 187.487 80.8154 187.407 80.8154C187.093 80.8154 186.852 80.7372 186.684 80.581C186.516 80.4247 186.432 80.2021 186.432 79.913V76.7167ZM188.433 80.7714V77.496H189.171V78.0439H189.206C189.265 77.8544 189.367 77.7089 189.514 77.6074C189.66 77.5038 189.827 77.4521 190.015 77.4521C190.058 77.4521 190.105 77.454 190.158 77.4579C190.211 77.4619 190.256 77.4667 190.293 77.4726V78.1728C190.262 78.163 190.211 78.1542 190.141 78.1464C190.07 78.1386 190.001 78.1347 189.933 78.1347C189.792 78.1347 189.665 78.165 189.552 78.2255C189.44 78.2861 189.353 78.3701 189.288 78.4775C189.226 78.5829 189.194 78.705 189.194 78.8437V80.7714H188.433ZM190.876 80.7714V77.496H191.638V80.7714H190.876ZM191.257 77.0331C191.136 77.0331 191.031 76.9921 190.943 76.9101C190.857 76.8281 190.814 76.7304 190.814 76.6171C190.814 76.4999 190.857 76.4013 190.943 76.3212C191.031 76.2392 191.136 76.1982 191.257 76.1982C191.38 76.1982 191.484 76.2392 191.57 76.3212C191.658 76.4013 191.702 76.4999 191.702 76.6171C191.702 76.7304 191.658 76.8281 191.57 76.9101C191.484 76.9921 191.38 77.0331 191.257 77.0331ZM194.175 80.83C193.989 80.83 193.834 80.7988 193.709 80.7363C193.584 80.6718 193.484 80.5947 193.41 80.5048C193.336 80.415 193.279 80.331 193.24 80.2529H193.19V80.7714H192.446V76.4062H193.208V78.038H193.24C193.279 77.9599 193.335 77.8759 193.407 77.7861C193.479 77.6962 193.577 77.6191 193.7 77.5546C193.825 77.4882 193.984 77.455 194.178 77.455C194.432 77.455 194.66 77.5195 194.863 77.6484C195.066 77.7773 195.228 77.9677 195.347 78.2197C195.468 78.4697 195.528 78.7763 195.528 79.1396C195.528 79.499 195.47 79.8046 195.353 80.0566C195.235 80.3085 195.074 80.5009 194.869 80.6337C194.666 80.7646 194.435 80.83 194.175 80.83ZM193.97 80.2031C194.14 80.2031 194.282 80.1572 194.397 80.0654C194.513 79.9716 194.6 79.8447 194.658 79.6845C194.717 79.5224 194.746 79.3398 194.746 79.1367C194.746 78.9335 194.717 78.7529 194.658 78.5947C194.602 78.4345 194.516 78.3095 194.4 78.2197C194.285 78.1279 194.142 78.082 193.97 78.082C193.802 78.082 193.66 78.1259 193.545 78.2138C193.43 78.3017 193.342 78.4247 193.281 78.5829C193.223 78.7392 193.193 78.9238 193.193 79.1367C193.193 79.3495 193.223 79.5361 193.281 79.6962C193.342 79.8564 193.43 79.9814 193.545 80.0712C193.662 80.1591 193.804 80.2031 193.97 80.2031ZM197.312 80.8124C197.088 80.8124 196.891 80.7646 196.721 80.6689C196.553 80.5732 196.422 80.4335 196.328 80.2499C196.236 80.0644 196.19 79.8408 196.19 79.579V77.496H196.952V79.4619C196.952 79.6806 197.009 79.8525 197.122 79.9775C197.237 80.1025 197.395 80.165 197.594 80.165C197.729 80.165 197.849 80.1357 197.954 80.0771C198.06 80.0185 198.142 79.9326 198.2 79.8193C198.261 79.706 198.291 79.5712 198.291 79.415V77.496H199.056V80.7714H198.332L198.323 79.9628H198.382C198.29 80.248 198.154 80.4609 197.975 80.6015C197.795 80.7421 197.574 80.8124 197.312 80.8124ZM201.379 77.496V78.0937H199.519V77.496H201.379ZM199.984 76.7167H200.746V79.8486C200.746 79.9677 200.771 80.0556 200.822 80.1122C200.873 80.1669 200.956 80.1943 201.071 80.1943C201.106 80.1943 201.152 80.1904 201.209 80.1826C201.268 80.1728 201.314 80.164 201.35 80.1562L201.47 80.7451C201.386 80.7704 201.3 80.788 201.212 80.7978C201.124 80.8095 201.04 80.8154 200.96 80.8154C200.646 80.8154 200.404 80.7372 200.236 80.581C200.068 80.4247 199.984 80.2021 199.984 79.913V76.7167ZM201.985 80.7714V77.496H202.747V80.7714H201.985ZM202.366 77.0331C202.245 77.0331 202.141 76.9921 202.053 76.9101C201.967 76.8281 201.924 76.7304 201.924 76.6171C201.924 76.4999 201.967 76.4013 202.053 76.3212C202.141 76.2392 202.245 76.1982 202.366 76.1982C202.489 76.1982 202.594 76.2392 202.68 76.3212C202.768 76.4013 202.812 76.4999 202.812 76.6171C202.812 76.7304 202.768 76.8281 202.68 76.9101C202.594 76.9921 202.489 77.0331 202.366 77.0331ZM204.977 80.8388C204.658 80.8388 204.382 80.7685 204.147 80.6279C203.913 80.4853 203.731 80.288 203.603 80.0361C203.476 79.7822 203.412 79.4872 203.412 79.1513C203.412 78.8115 203.476 78.5146 203.603 78.2607C203.731 78.0048 203.913 77.8066 204.147 77.666C204.382 77.5253 204.658 77.455 204.977 77.455C205.297 77.455 205.574 77.5253 205.809 77.666C206.043 77.8066 206.224 78.0048 206.351 78.2607C206.479 78.5146 206.544 78.8115 206.544 79.1513C206.544 79.4872 206.479 79.7822 206.351 80.0361C206.224 80.288 206.043 80.4853 205.809 80.6279C205.574 80.7685 205.297 80.8388 204.977 80.8388ZM204.977 80.2206C205.154 80.2206 205.302 80.1728 205.419 80.0771C205.538 79.9814 205.626 79.8525 205.683 79.6904C205.741 79.5283 205.771 79.3476 205.771 79.1484C205.771 78.9472 205.741 78.7656 205.683 78.6035C205.626 78.4413 205.538 78.3124 205.419 78.2167C205.302 78.121 205.154 78.0732 204.977 78.0732C204.799 78.0732 204.651 78.121 204.534 78.2167C204.419 78.3124 204.332 78.4413 204.273 78.6035C204.217 78.7636 204.188 78.9453 204.188 79.1484C204.188 79.3476 204.217 79.5283 204.273 79.6904C204.332 79.8525 204.419 79.9814 204.534 80.0771C204.651 80.1728 204.799 80.2206 204.977 80.2206ZM207.974 78.8525V80.7714H207.212V77.496H207.933L207.944 78.3046H207.883C207.975 78.0214 208.109 77.8095 208.287 77.6689C208.465 77.5263 208.688 77.455 208.955 77.455C209.18 77.455 209.376 77.5029 209.544 77.5986C209.712 77.6943 209.842 77.8339 209.934 78.0175C210.027 78.2011 210.074 78.4247 210.074 78.6884V80.7714H209.312V78.8056C209.312 78.5869 209.256 78.415 209.143 78.29C209.029 78.165 208.873 78.1025 208.674 78.1025C208.539 78.1025 208.419 78.1318 208.313 78.1904C208.208 78.249 208.125 78.3349 208.064 78.4482C208.004 78.5595 207.974 78.6943 207.974 78.8525Z" fill="#2563EB"/>
<rect x="174.592" y="32.7714" width="38" height="38" rx="19" fill="#FAFAFA"/>
<rect x="174.592" y="32.7714" width="38" height="38" rx="19" stroke="#2563EB"/>
<path d="M192.04 53.3232L184.592 48.9784L195.764 42.7717L202.591 47.1164L192.04 53.3232Z" stroke="#2563EB" stroke-linejoin="round"/>
<path d="M192.039 60.7712V53.3231L202.591 47.1164V54.5644L192.039 60.7712Z" stroke="#2563EB" stroke-linejoin="round"/>
<path d="M184.592 56.4263V48.9782L192.04 53.3229V60.771L184.592 56.4263Z" stroke="#2563EB" stroke-linejoin="round"/>
<path d="M195.762 51.5077L195.762 58.2885" stroke="#2563EB" stroke-linecap="round" stroke-linejoin="round"/>
<path d="M199.49 49.2592L199.49 56.1579" stroke="#2563EB" stroke-linecap="round" stroke-linejoin="round"/>
<rect width="14" height="8" transform="translate(186.592 31.7714)" fill="#FAFAFA"/>
<path d="M191.702 36.6962V35.955C191.796 35.8027 191.888 35.6601 191.978 35.5273C192.069 35.3925 192.166 35.2597 192.268 35.1288C192.371 34.998 192.486 34.8593 192.613 34.7128L193.759 33.4062H194.731L192.88 35.4951L192.821 35.4745L191.702 36.6962ZM191.137 37.7714V33.4062H191.919V34.7011L191.904 35.7529L191.919 36.1367V37.7714H191.137ZM193.838 37.7714L192.449 35.7177L192.941 35.1288L194.761 37.7714H193.838ZM196.082 33.4062V37.7714H195.32V33.4062H196.082Z" fill="#2563EB"/>
<rect width="16.2544" height="10.0161" transform="translate(134.783 101.217)" fill="#FAFAFA"/>
<path d="M141.453 107.818C140.922 108.663 139.982 109.225 138.91 109.225C137.253 109.225 135.91 107.882 135.91 106.225C135.91 104.568 137.253 103.225 138.91 103.225C139.519 103.225 140.325 103.533 140.694 103.86C141.053 104.177 144.632 108.148 144.838 108.378C144.845 108.385 144.851 108.391 144.858 108.398L145.002 108.54C145.521 108.968 146.185 109.225 146.91 109.225C148.567 109.225 149.91 107.882 149.91 106.225C149.91 104.568 148.567 103.225 146.91 103.225C145.969 103.225 145.129 103.658 144.579 104.336" stroke="#2563EB" stroke-linecap="round"/>
<path d="M254.196 55.0538H221.916" stroke="#D97706" stroke-dasharray="2 2"/>
<path d="M221.916 48.1339H223.551C231.957 48.1339 239.465 42.8779 242.343 34.98L244.777 28.2975C246.219 24.3389 249.983 21.7045 254.196 21.7045V21.7045" stroke="#D97706" stroke-dasharray="2 2"/>
<path d="M221.916 61.9735H223.551C231.957 61.9735 239.465 67.2295 242.343 75.1274L244.777 81.8099C246.219 85.7685 249.983 88.4028 254.196 88.4028V88.4028" stroke="#D97706" stroke-dasharray="2 2"/>
<rect x="253.689" y="9.75226" width="27.0435" height="27.0435" rx="4" fill="#EEEEF0"/>
<path fill-rule="evenodd" clip-rule="evenodd" d="M263.72 21.965C263.72 22.1619 263.741 22.3215 263.778 22.4386C263.821 22.5556 263.874 22.6834 263.949 22.8217C263.975 22.8643 263.986 22.9069 263.986 22.9441C263.986 22.9973 263.954 23.0505 263.885 23.1037L263.55 23.3272C263.502 23.3592 263.454 23.3751 263.411 23.3751C263.358 23.3751 263.305 23.3485 263.252 23.3006C263.177 23.2208 263.113 23.1357 263.06 23.0505C263.007 22.9601 262.954 22.859 262.895 22.7366C262.48 23.2261 261.959 23.4709 261.331 23.4709C260.884 23.4709 260.527 23.3432 260.266 23.0878C260.006 22.8324 259.873 22.4918 259.873 22.0661C259.873 21.6137 260.032 21.2466 260.357 20.9699C260.681 20.6931 261.112 20.5548 261.661 20.5548C261.841 20.5548 262.028 20.5707 262.225 20.5974C262.422 20.624 262.624 20.6665 262.837 20.7144V20.326C262.837 19.9215 262.751 19.6395 262.586 19.4745C262.416 19.3096 262.129 19.2297 261.719 19.2297C261.533 19.2297 261.341 19.251 261.144 19.2989C260.947 19.3468 260.756 19.4054 260.57 19.4799C260.485 19.5171 260.421 19.5384 260.383 19.549C260.346 19.5597 260.32 19.565 260.298 19.565C260.224 19.565 260.187 19.5118 260.187 19.4V19.1393C260.187 19.0541 260.197 18.9903 260.224 18.953C260.25 18.9158 260.298 18.8785 260.373 18.8413C260.559 18.7455 260.783 18.6657 261.043 18.6018C261.304 18.5326 261.581 18.5007 261.873 18.5007C262.507 18.5007 262.97 18.6444 263.268 18.9317C263.56 19.2191 263.709 19.6555 263.709 20.2408V21.965H263.72ZM261.559 22.7738C261.735 22.7738 261.916 22.7419 262.108 22.678C262.299 22.6142 262.469 22.4971 262.613 22.3375C262.698 22.2364 262.762 22.1246 262.794 21.9969C262.826 21.8692 262.847 21.7149 262.847 21.5339V21.3104C262.693 21.2732 262.528 21.2412 262.358 21.22C262.187 21.1987 262.022 21.188 261.857 21.188C261.501 21.188 261.24 21.2572 261.065 21.4009C260.889 21.5446 260.804 21.7468 260.804 22.0129C260.804 22.263 260.868 22.4492 261.001 22.5769C261.128 22.71 261.315 22.7738 261.559 22.7738ZM265.833 23.3485C265.737 23.3485 265.673 23.3326 265.63 23.2953C265.588 23.2634 265.551 23.1889 265.519 23.0878L264.268 18.9743C264.236 18.8679 264.22 18.7987 264.22 18.7615C264.22 18.6763 264.263 18.6284 264.348 18.6284H264.869C264.97 18.6284 265.04 18.6444 265.077 18.6816C265.119 18.7136 265.151 18.7881 265.183 18.8892L266.077 22.412L266.907 18.8892C266.934 18.7827 266.966 18.7136 267.009 18.6816C267.051 18.6497 267.126 18.6284 267.221 18.6284H267.647C267.748 18.6284 267.817 18.6444 267.86 18.6816C267.903 18.7136 267.94 18.7881 267.961 18.8892L268.802 22.4545L269.723 18.8892C269.754 18.7827 269.792 18.7136 269.829 18.6816C269.872 18.6497 269.941 18.6284 270.036 18.6284H270.531C270.617 18.6284 270.664 18.671 270.664 18.7615C270.664 18.7842 270.661 18.8069 270.656 18.833L270.654 18.8466C270.648 18.8785 270.638 18.9211 270.617 18.9796L269.334 23.0931C269.302 23.1995 269.265 23.2687 269.222 23.3006C269.18 23.3326 269.111 23.3539 269.02 23.3539H268.562C268.461 23.3539 268.392 23.3379 268.35 23.3006C268.307 23.2634 268.27 23.1942 268.248 23.0878L267.424 19.6555L266.604 23.0825C266.578 23.1889 266.546 23.2581 266.503 23.2953C266.46 23.3326 266.386 23.3485 266.29 23.3485H265.833ZM272.671 23.4922C272.394 23.4922 272.117 23.4603 271.851 23.3964C271.585 23.3326 271.377 23.2634 271.239 23.1836C271.154 23.1357 271.095 23.0825 271.074 23.0346C271.053 22.9867 271.042 22.9335 271.042 22.8856V22.6142C271.042 22.5024 271.085 22.4492 271.165 22.4492C271.197 22.4492 271.228 22.4545 271.26 22.4652C271.281 22.472 271.308 22.4834 271.339 22.4962L271.339 22.4962C271.356 22.5033 271.375 22.5109 271.393 22.5184C271.574 22.5982 271.771 22.6621 271.979 22.7046C272.192 22.7472 272.399 22.7685 272.612 22.7685C272.947 22.7685 273.208 22.71 273.389 22.5929C273.57 22.4758 273.666 22.3055 273.666 22.0874C273.666 21.9384 273.618 21.816 273.522 21.7149C273.426 21.6137 273.245 21.5233 272.985 21.4381L272.213 21.1987C271.824 21.0763 271.537 20.8954 271.362 20.6559C271.186 20.4217 271.095 20.161 271.095 19.8843C271.095 19.6608 271.143 19.4639 271.239 19.2936C271.335 19.1233 271.463 18.9743 271.622 18.8572C271.782 18.7349 271.963 18.6444 272.176 18.5805C272.389 18.5167 272.612 18.4901 272.846 18.4901C272.963 18.4901 273.086 18.4954 273.203 18.5114C273.325 18.5273 273.437 18.5486 273.549 18.5699C273.655 18.5965 273.756 18.6231 273.852 18.655C273.948 18.687 274.022 18.7189 274.075 18.7508C274.15 18.7934 274.203 18.836 274.235 18.8839C274.267 18.9264 274.283 18.985 274.283 19.0595V19.3096C274.283 19.4213 274.24 19.4799 274.161 19.4799C274.118 19.4799 274.049 19.4586 273.958 19.416C273.655 19.2776 273.314 19.2085 272.937 19.2085C272.633 19.2085 272.394 19.2564 272.229 19.3575C272.064 19.4586 271.979 19.6129 271.979 19.8311C271.979 19.9801 272.032 20.1078 272.138 20.2089C272.245 20.31 272.442 20.4111 272.724 20.5016L273.479 20.741C273.863 20.8634 274.139 21.0337 274.304 21.2519C274.469 21.4701 274.549 21.7202 274.549 21.9969C274.549 22.2257 274.501 22.4332 274.411 22.6142C274.315 22.7951 274.187 22.9547 274.022 23.0825C273.857 23.2155 273.66 23.3113 273.432 23.3805C273.192 23.455 272.942 23.4922 272.671 23.4922ZM273.676 26.0783C271.926 27.3715 269.382 28.0579 267.195 28.0579C264.13 28.0579 261.368 26.9245 259.282 25.0407C259.117 24.8917 259.266 24.6895 259.463 24.8065C261.719 26.1156 264.502 26.9085 267.381 26.9085C269.323 26.9085 271.457 26.5041 273.421 25.6739C273.714 25.5409 273.964 25.8655 273.676 26.0783ZM272.357 25.179C272.926 25.1099 274.182 24.9609 274.405 25.2482C274.629 25.5303 274.155 26.7169 273.942 27.2438C273.878 27.4034 274.017 27.4673 274.161 27.3449C275.097 26.5573 275.342 24.913 275.15 24.6735C274.959 24.4394 273.314 24.2371 272.314 24.9396C272.16 25.0513 272.186 25.2003 272.357 25.179Z" fill="#2563EB"/>
<rect x="254.184" y="41.7684" width="27.0435" height="27.0435" rx="4" fill="#EEEEF0"/>
<path fill-rule="evenodd" clip-rule="evenodd" d="M267.705 63.2902C272.123 63.2902 275.705 59.7084 275.705 55.2902C275.705 50.8719 272.123 47.2902 267.705 47.2902C263.288 47.2902 259.707 50.8697 259.705 55.2862H262.749C262.751 52.5509 264.969 50.3341 267.705 50.3341C270.442 50.3341 272.661 52.553 272.661 55.2902C272.661 58.0273 270.442 60.2462 267.705 60.2462L267.695 60.2462V63.2902L267.705 63.2902ZM267.695 57.0929H264.602V60.1865H267.695V57.0929ZM264.602 60.1965H262.225V58.2086H260.237V60.1965H262.224V62.5738H264.602V60.1965Z" fill="#2563EB"/>
<rect x="254.184" y="75.1177" width="27.0435" height="27.0435" rx="4" fill="#EEEEF0"/>
<g clip-path="url(#clip0_4973_62323)">
<path fill-rule="evenodd" clip-rule="evenodd" d="M268.139 80.9815C267.865 80.8494 267.545 80.8494 267.271 80.9815L261.691 83.669C261.416 83.801 261.217 84.0507 261.149 84.3474L259.771 90.3862C259.703 90.6829 259.775 90.9942 259.964 91.2322L263.826 96.0749C264.016 96.3128 264.304 96.4514 264.608 96.4514H270.802C271.106 96.4514 271.394 96.3128 271.584 96.0749L275.446 91.2322C275.636 90.9942 275.707 90.6829 275.639 90.3862L274.261 84.3474C274.193 84.0507 273.994 83.801 273.72 83.669L268.139 80.9815ZM267.467 83.5042C267.528 83.4362 267.614 83.3951 267.705 83.3901L267.706 83.3879C267.797 83.393 267.883 83.434 267.944 83.502C268.005 83.5701 268.037 83.6596 268.033 83.751V83.844C268.023 83.9483 268.008 84.0521 267.987 84.1548C267.956 84.3509 267.944 84.5496 267.95 84.7481C267.963 84.8144 268.002 84.8731 268.057 84.9115C268.058 84.9164 268.058 84.9239 268.059 84.9329C268.061 84.9665 268.065 85.0224 268.065 85.0567C269.099 85.1506 270.064 85.6167 270.78 86.3683L270.904 86.2797C270.971 86.2911 271.039 86.2835 271.102 86.2579C271.262 86.1396 271.409 86.0061 271.543 85.8592C271.611 85.7788 271.684 85.7024 271.761 85.6304C271.781 85.613 271.811 85.5898 271.834 85.5723C271.866 85.538 271.905 85.5111 271.949 85.4932C271.992 85.4754 272.039 85.4671 272.086 85.469C272.133 85.4708 272.179 85.4828 272.221 85.504C272.263 85.5252 272.3 85.5552 272.33 85.592C272.359 85.6287 272.381 85.6714 272.392 85.717C272.404 85.7627 272.405 85.8103 272.397 85.8566C272.388 85.903 272.37 85.9469 272.343 85.9856C272.316 86.0243 272.281 86.0567 272.241 86.0807C272.234 86.0859 272.227 86.0917 272.22 86.0977C272.202 86.1123 272.183 86.1279 272.168 86.1388C272.081 86.1967 271.99 86.2496 271.897 86.2971C271.724 86.395 271.561 86.5096 271.41 86.6392C271.366 86.6904 271.344 86.7569 271.348 86.8243L271.232 86.9282C271.812 87.7927 272.055 88.8401 271.913 89.8715L272.046 89.91C272.078 89.9707 272.127 90.021 272.186 90.0553C272.378 90.1064 272.574 90.1388 272.773 90.1518C272.877 90.1543 272.982 90.1628 273.086 90.1773C273.104 90.1805 273.126 90.1862 273.148 90.1915C273.16 90.1945 273.171 90.1974 273.181 90.1998C273.226 90.2059 273.27 90.2214 273.309 90.2453C273.347 90.2691 273.381 90.3007 273.407 90.3382C273.433 90.3756 273.451 90.4181 273.459 90.4628C273.468 90.5075 273.467 90.5535 273.457 90.5979C273.447 90.6423 273.428 90.6841 273.4 90.7207C273.373 90.7573 273.339 90.7878 273.299 90.8103C273.26 90.8328 273.216 90.8469 273.171 90.8515C273.125 90.8562 273.079 90.8514 273.036 90.8374H273.025C273.016 90.8355 273.006 90.8335 272.996 90.8316C272.976 90.8276 272.956 90.8236 272.94 90.8192C272.841 90.787 272.744 90.7492 272.65 90.7059C272.466 90.6317 272.275 90.5755 272.08 90.5382C272.012 90.5359 271.947 90.5602 271.897 90.6057C271.873 90.6006 271.799 90.5876 271.757 90.581C271.44 91.5766 270.768 92.4208 269.869 92.9529C269.884 92.998 269.903 93.0422 269.924 93.085C269.89 93.1436 269.881 93.213 269.898 93.2782C269.978 93.4603 270.075 93.6342 270.189 93.7974C270.252 93.8809 270.311 93.9679 270.364 94.0582C270.375 94.0785 270.39 94.1088 270.401 94.1335C270.403 94.1379 270.405 94.1421 270.407 94.146C270.43 94.1853 270.445 94.229 270.45 94.2742C270.455 94.3195 270.451 94.3653 270.438 94.4089C270.424 94.4524 270.402 94.4926 270.372 94.5271C270.342 94.5615 270.306 94.5893 270.264 94.6088C270.223 94.6283 270.178 94.639 270.133 94.6402C270.087 94.6414 270.042 94.6332 270 94.6159C269.958 94.5987 269.92 94.5729 269.888 94.5401C269.856 94.5073 269.832 94.4684 269.816 94.4256C269.804 94.4002 269.786 94.3661 269.775 94.3421C269.738 94.244 269.706 94.1439 269.68 94.0422C269.624 93.8521 269.548 93.6679 269.456 93.4924C269.416 93.438 269.356 93.4015 269.289 93.3908C269.279 93.3779 269.256 93.3355 269.235 93.2994C269.228 93.2867 269.222 93.2748 269.216 93.2651C268.243 93.6334 267.169 93.6305 266.198 93.2571L266.125 93.3915C266.072 93.4013 266.023 93.4272 265.985 93.4656C265.874 93.6486 265.788 93.8463 265.732 94.0531C265.706 94.1548 265.675 94.2549 265.637 94.353C265.63 94.3695 265.62 94.3898 265.61 94.4091C265.606 94.4187 265.601 94.428 265.597 94.4365C265.581 94.4795 265.557 94.5187 265.525 94.5517C265.493 94.5846 265.455 94.6106 265.413 94.628C265.371 94.6453 265.325 94.6536 265.279 94.6524C265.234 94.6512 265.189 94.6404 265.148 94.6208C265.106 94.6012 265.07 94.5732 265.04 94.5386C265.01 94.5039 264.988 94.4634 264.974 94.4197C264.961 94.376 264.957 94.3299 264.962 94.2846C264.968 94.2392 264.983 94.1955 265.006 94.1562C265.011 94.147 265.016 94.1362 265.021 94.125C265.03 94.1052 265.04 94.0841 265.049 94.0683C265.102 93.9779 265.161 93.8906 265.224 93.8069C265.34 93.6393 265.439 93.461 265.521 93.2746C265.529 93.2113 265.519 93.1469 265.491 93.0894L265.551 92.9441C264.655 92.4161 263.983 91.5784 263.663 90.589L263.518 90.6137C263.462 90.5746 263.397 90.5517 263.33 90.5476C263.135 90.5849 262.944 90.6411 262.759 90.7154C262.665 90.7584 262.568 90.796 262.469 90.828C262.452 90.8328 262.428 90.8377 262.407 90.8422C262.399 90.8438 262.392 90.8453 262.385 90.8468H262.373C262.33 90.8608 262.284 90.8656 262.239 90.861C262.193 90.8563 262.15 90.8423 262.11 90.8197C262.07 90.7972 262.036 90.7667 262.009 90.7301C261.982 90.6936 261.962 90.6518 261.952 90.6073C261.942 90.5629 261.941 90.5169 261.95 90.4722C261.959 90.4275 261.977 90.3851 262.002 90.3476C262.028 90.3102 262.062 90.2785 262.101 90.2547C262.139 90.2309 262.183 90.2154 262.228 90.2092H262.233L262.238 90.2081C262.264 90.2017 262.297 90.1937 262.32 90.1889C262.424 90.1744 262.529 90.1659 262.634 90.1635C262.832 90.1504 263.028 90.118 263.22 90.0669C263.277 90.0296 263.325 89.98 263.36 89.9216L263.497 89.8817C263.349 88.8495 263.586 87.7988 264.165 86.9311L264.06 86.8374C264.056 86.7696 264.034 86.7042 263.995 86.6486C263.844 86.519 263.681 86.4044 263.508 86.3066C263.415 86.259 263.325 86.2062 263.237 86.1482C263.225 86.139 263.21 86.1266 263.195 86.1142C263.186 86.1072 263.178 86.1001 263.17 86.0938H263.165C263.09 86.0404 263.04 85.9597 263.025 85.8693C263.01 85.7789 263.031 85.6863 263.084 85.6116C263.115 85.5732 263.155 85.5427 263.201 85.5227C263.246 85.5026 263.295 85.4935 263.345 85.4961C263.428 85.4995 263.508 85.5296 263.573 85.5818C263.576 85.5839 263.578 85.5861 263.581 85.5884C263.603 85.6048 263.628 85.6246 263.645 85.6399C263.722 85.7119 263.795 85.7882 263.863 85.8686C263.997 86.0156 264.145 86.1491 264.304 86.2673C264.364 86.2989 264.434 86.3056 264.499 86.2862C264.509 86.2924 264.534 86.3105 264.561 86.3295C264.581 86.344 264.601 86.359 264.617 86.3697C265.192 85.7588 265.936 85.3337 266.754 85.149C266.949 85.1049 267.147 85.0746 267.346 85.0582L267.354 84.9195C267.404 84.8743 267.441 84.8156 267.46 84.7503C267.467 84.5518 267.455 84.3531 267.423 84.157C267.402 84.0543 267.387 83.9505 267.378 83.8461V83.7626V83.7532C267.374 83.6618 267.405 83.5723 267.467 83.5042ZM267.198 87.6421L267.295 85.9267C267.179 85.9409 267.063 85.961 266.949 85.987C266.336 86.1247 265.775 86.4308 265.327 86.8708L266.733 87.8599C266.775 87.8897 266.825 87.9077 266.876 87.9121C266.928 87.9165 266.979 87.9072 267.026 87.885C267.072 87.8628 267.112 87.8286 267.141 87.7859C267.17 87.7432 267.187 87.6936 267.191 87.6421H267.198ZM270.076 86.8708C269.544 86.3496 268.855 86.0179 268.115 85.9267L268.215 87.6442C268.218 87.6958 268.235 87.7456 268.264 87.7884C268.293 87.8312 268.333 87.8655 268.38 87.8877C268.427 87.9099 268.478 87.9193 268.53 87.9148C268.581 87.9103 268.631 87.8921 268.673 87.8621H268.678L270.076 86.8708ZM266.099 88.6602L264.814 87.5113V87.5121C264.423 88.1501 264.256 88.9 264.339 89.6435L265.985 89.1686V89.1627C266.035 89.1483 266.08 89.1209 266.116 89.0832C266.151 89.0455 266.176 88.999 266.188 88.9485C266.199 88.8979 266.197 88.8452 266.182 88.7958C266.166 88.7464 266.137 88.7021 266.099 88.6675V88.6602ZM271.079 89.637C271.151 88.8937 270.978 88.1474 270.587 87.5113L270.589 87.5179L269.311 88.6609C269.273 88.6956 269.244 88.7399 269.228 88.7893C269.213 88.8387 269.211 88.8914 269.222 88.9419C269.234 88.9925 269.259 89.039 269.294 89.0767C269.33 89.1143 269.375 89.1418 269.425 89.1562V89.1635L271.079 89.637ZM267.968 88.7459H267.441L267.113 89.154L267.231 89.6624L267.704 89.8904L268.177 89.6631L268.295 89.1548L267.968 88.7459ZM269.194 90.1504C269.173 90.1462 269.151 90.1445 269.128 90.1453V90.1504C269.082 90.1532 269.037 90.167 268.997 90.1907C268.957 90.2145 268.924 90.2474 268.899 90.2868C268.875 90.3262 268.86 90.3709 268.856 90.4172C268.852 90.4634 268.86 90.5099 268.878 90.5527L269.539 92.1504C270.169 91.747 270.647 91.1456 270.897 90.4409L269.194 90.1504ZM266.402 90.1895C266.361 90.1665 266.315 90.1538 266.268 90.1526L266.266 90.1489C266.247 90.1488 266.228 90.1505 266.209 90.154L264.521 90.4409C264.774 91.142 265.252 91.7399 265.88 92.1417L266.534 90.5607L266.529 90.5542C266.547 90.5106 266.554 90.4634 266.549 90.4164C266.545 90.3695 266.529 90.3243 266.504 90.2848C266.478 90.2453 266.443 90.2126 266.402 90.1895ZM267.848 90.8838C267.801 90.857 267.748 90.8437 267.694 90.8454V90.8483C267.644 90.8502 267.594 90.8653 267.551 90.892C267.509 90.9188 267.473 90.9563 267.449 91.0008L266.619 92.5019C267.214 92.7043 267.853 92.7372 268.465 92.597C268.577 92.5716 268.688 92.5406 268.797 92.5041L267.965 90.9972H267.958C267.933 90.9499 267.894 90.9106 267.848 90.8838Z" fill="#2563EB"/>
</g>
<rect x="0.775391" y="6.58174" width="32.0515" height="32.0515" rx="4" fill="#EEEEF0"/>
<path fill-rule="evenodd" clip-rule="evenodd" d="M14.3592 13.4959C14.3592 12.1766 15.4286 11.1072 16.7478 11.1072C18.0671 11.1072 19.1365 12.1766 19.1365 13.4959C19.1365 14.8151 18.0671 15.8845 16.7478 15.8845C15.4286 15.8845 14.3592 14.8151 14.3592 13.4959ZM16.7478 10.1072C14.8763 10.1072 13.3592 11.6244 13.3592 13.4959C13.3592 14.6697 13.956 15.7042 14.8628 16.3123C14.1386 16.6603 13.5256 17.2024 13.0913 17.8707H9.28711C9.01097 17.8707 8.78711 18.0946 8.78711 18.3707V25.6078C8.78711 25.884 9.01097 26.1078 9.28711 26.1078H24.3032C24.5794 26.1078 24.8032 25.884 24.8032 25.6078V18.3707C24.8032 18.0946 24.5794 17.8707 24.3032 17.8707H20.4041C19.9698 17.2025 19.3568 16.6604 18.6327 16.3124C19.5396 15.7043 20.1365 14.6698 20.1365 13.4959C20.1365 11.6244 18.6193 10.1072 16.7478 10.1072ZM16.7477 16.8846C17.6759 16.8846 18.5165 17.2611 19.1247 17.8707H14.3706C14.9788 17.2611 15.8195 16.8846 16.7477 16.8846ZM9.78711 18.8707V25.1078H23.8032V18.8707H9.78711ZM17.952 20.2863C18.0463 20.0268 17.9124 19.7399 17.6529 19.6455C17.3934 19.5512 17.1065 19.685 17.0122 19.9446L15.6494 23.6923C15.555 23.9518 15.6889 24.2387 15.9484 24.333C16.2079 24.4274 16.4948 24.2935 16.5891 24.034L17.952 20.2863ZM15.434 21.3004C15.6293 21.1051 15.6293 20.7885 15.434 20.5933C15.2387 20.398 14.9222 20.398 14.7269 20.5933L13.6843 21.6359C13.489 21.8311 13.489 22.1477 13.6843 22.343L14.7269 23.3855C14.9222 23.5808 15.2387 23.5808 15.434 23.3855C15.6293 23.1903 15.6293 22.8737 15.434 22.6784L14.745 21.9894L15.434 21.3004ZM18.1672 20.5933C18.3625 20.398 18.6791 20.398 18.8743 20.5933L19.9169 21.6359C20.1122 21.8311 20.1122 22.1477 19.9169 22.343L18.8743 23.3855C18.6791 23.5808 18.3625 23.5808 18.1672 23.3855C17.972 23.1903 17.972 22.8737 18.1672 22.6784L18.8563 21.9894L18.1672 21.3004C17.972 21.1051 17.972 20.7885 18.1672 20.5933Z" fill="#2563EB"/>
<path d="M7.10476 34.1075H6.11896V31.1984H7.12464C7.41347 31.1984 7.66158 31.2567 7.86896 31.3731C8.0773 31.4887 8.23733 31.6549 8.34908 31.8717C8.46082 32.0886 8.51669 32.348 8.51669 32.6501C8.51669 32.9532 8.46035 33.2136 8.34766 33.4314C8.23591 33.6492 8.07446 33.8163 7.86328 33.9328C7.65305 34.0493 7.40021 34.1075 7.10476 34.1075ZM6.64595 33.6515H7.07919C7.28184 33.6515 7.45088 33.6146 7.58629 33.5408C7.72171 33.4659 7.82351 33.3547 7.89169 33.2069C7.95987 33.0583 7.99396 32.8727 7.99396 32.6501C7.99396 32.4276 7.95987 32.2429 7.89169 32.0961C7.82351 31.9484 7.72266 31.8381 7.58913 31.7652C7.45656 31.6913 7.29179 31.6544 7.09482 31.6544H6.64595V33.6515ZM9.96058 34.1501C9.74183 34.1501 9.55291 34.1047 9.39382 34.0138C9.23568 33.9219 9.11399 33.7922 9.02876 33.6246C8.94354 33.456 8.90092 33.2576 8.90092 33.0294C8.90092 32.805 8.94354 32.608 9.02876 32.4385C9.11494 32.268 9.2352 32.1354 9.38956 32.0408C9.54392 31.9451 9.72526 31.8973 9.93359 31.8973C10.0681 31.8973 10.195 31.9191 10.3143 31.9626C10.4345 32.0052 10.5406 32.0715 10.6325 32.1615C10.7253 32.2515 10.7982 32.366 10.8512 32.5052C10.9042 32.6435 10.9308 32.8083 10.9308 32.9996V33.1572H9.1424V32.8106H10.4379C10.4369 32.7122 10.4156 32.6246 10.3739 32.5479C10.3323 32.4702 10.274 32.4091 10.1992 32.3646C10.1254 32.3201 10.0392 32.2979 9.9407 32.2979C9.83558 32.2979 9.74325 32.3234 9.66371 32.3746C9.58416 32.4247 9.52214 32.491 9.47763 32.5734C9.43407 32.6549 9.41181 32.7444 9.41087 32.8419V33.1444C9.41087 33.2713 9.43407 33.3802 9.48047 33.4711C9.52687 33.5611 9.59174 33.6302 9.67507 33.6785C9.7584 33.7259 9.85594 33.7496 9.96768 33.7496C10.0425 33.7496 10.1102 33.7391 10.1708 33.7183C10.2314 33.6965 10.284 33.6648 10.3285 33.6231C10.373 33.5815 10.4066 33.5299 10.4293 33.4683L10.9094 33.5223C10.8791 33.6492 10.8214 33.76 10.7362 33.8547C10.6519 33.9484 10.5439 34.0213 10.4123 34.0734C10.2807 34.1246 10.1301 34.1501 9.96058 34.1501ZM13.2521 31.9257L12.4751 34.1075H11.907L11.13 31.9257H11.6783L12.1797 33.5464H12.2024L12.7053 31.9257H13.2521ZM14.4996 34.1501C14.2809 34.1501 14.092 34.1047 13.9329 34.0138C13.7747 33.9219 13.6531 33.7922 13.5678 33.6246C13.4826 33.456 13.44 33.2576 13.44 33.0294C13.44 32.805 13.4826 32.608 13.5678 32.4385C13.654 32.268 13.7743 32.1354 13.9286 32.0408C14.083 31.9451 14.2643 31.8973 14.4727 31.8973C14.6071 31.8973 14.734 31.9191 14.8533 31.9626C14.9736 32.0052 15.0797 32.0715 15.1715 32.1615C15.2643 32.2515 15.3372 32.366 15.3903 32.5052C15.4433 32.6435 15.4698 32.8083 15.4698 32.9996V33.1572H13.6815V32.8106H14.9769C14.976 32.7122 14.9547 32.6246 14.913 32.5479C14.8713 32.4702 14.8131 32.4091 14.7383 32.3646C14.6644 32.3201 14.5782 32.2979 14.4798 32.2979C14.3746 32.2979 14.2823 32.3234 14.2028 32.3746C14.1232 32.4247 14.0612 32.491 14.0167 32.5734C13.9731 32.6549 13.9509 32.7444 13.9499 32.8419V33.1444C13.9499 33.2713 13.9731 33.3802 14.0195 33.4711C14.0659 33.5611 14.1308 33.6302 14.2141 33.6785C14.2975 33.7259 14.395 33.7496 14.5067 33.7496C14.5816 33.7496 14.6493 33.7391 14.7099 33.7183C14.7705 33.6965 14.823 33.6648 14.8675 33.6231C14.9121 33.5815 14.9457 33.5299 14.9684 33.4683L15.4485 33.5223C15.4182 33.6492 15.3604 33.76 15.2752 33.8547C15.1909 33.9484 15.083 34.0213 14.9513 34.0734C14.8197 34.1246 14.6692 34.1501 14.4996 34.1501ZM16.419 31.1984V34.1075H15.9048V31.1984H16.419ZM17.8995 34.1501C17.6864 34.1501 17.5018 34.1033 17.3455 34.0095C17.1893 33.9158 17.0681 33.7846 16.9819 33.616C16.8967 33.4475 16.854 33.2505 16.854 33.0251C16.854 32.7997 16.8967 32.6023 16.9819 32.4328C17.0681 32.2633 17.1893 32.1317 17.3455 32.0379C17.5018 31.9442 17.6864 31.8973 17.8995 31.8973C18.1126 31.8973 18.2972 31.9442 18.4535 32.0379C18.6097 32.1317 18.7305 32.2633 18.8157 32.4328C18.9019 32.6023 18.945 32.7997 18.945 33.0251C18.945 33.2505 18.9019 33.4475 18.8157 33.616C18.7305 33.7846 18.6097 33.9158 18.4535 34.0095C18.2972 34.1033 18.1126 34.1501 17.8995 34.1501ZM17.9023 33.7382C18.0179 33.7382 18.1145 33.7065 18.1921 33.643C18.2698 33.5786 18.3275 33.4925 18.3654 33.3845C18.4042 33.2765 18.4237 33.1563 18.4237 33.0237C18.4237 32.8902 18.4042 32.7694 18.3654 32.6615C18.3275 32.5526 18.2698 32.4659 18.1921 32.4015C18.1145 32.3372 18.0179 32.305 17.9023 32.305C17.784 32.305 17.6855 32.3372 17.6069 32.4015C17.5292 32.4659 17.471 32.5526 17.4322 32.6615C17.3943 32.7694 17.3754 32.8902 17.3754 33.0237C17.3754 33.1563 17.3943 33.2765 17.4322 33.3845C17.471 33.4925 17.5292 33.5786 17.6069 33.643C17.6855 33.7065 17.784 33.7382 17.9023 33.7382ZM19.3814 34.9257V31.9257H19.8871V32.2865H19.9169C19.9434 32.2335 19.9808 32.1771 20.0291 32.1175C20.0774 32.0569 20.1428 32.0052 20.2251 31.9626C20.3075 31.9191 20.4126 31.8973 20.5405 31.8973C20.709 31.8973 20.861 31.9404 20.9964 32.0265C21.1328 32.1118 21.2408 32.2382 21.3203 32.4058C21.4008 32.5725 21.4411 32.777 21.4411 33.0194C21.4411 33.259 21.4018 33.4626 21.3232 33.6302C21.2446 33.7979 21.1375 33.9257 21.0021 34.0138C20.8667 34.1018 20.7133 34.1459 20.5419 34.1459C20.4169 34.1459 20.3132 34.125 20.2308 34.0834C20.1484 34.0417 20.0821 33.9915 20.032 33.9328C19.9827 33.8731 19.9444 33.8168 19.9169 33.7638H19.8956V34.9257H19.3814ZM19.8857 33.0166C19.8857 33.1577 19.9055 33.2813 19.9453 33.3873C19.986 33.4934 20.0443 33.5763 20.12 33.6359C20.1967 33.6946 20.2895 33.724 20.3984 33.724C20.5121 33.724 20.6072 33.6937 20.6839 33.6331C20.7607 33.5715 20.8184 33.4877 20.8572 33.3817C20.897 33.2747 20.9169 33.153 20.9169 33.0166C20.9169 32.8812 20.8975 32.7609 20.8587 32.6558C20.8198 32.5507 20.7621 32.4683 20.6854 32.4086C20.6087 32.349 20.513 32.3192 20.3984 32.3192C20.2886 32.3192 20.1953 32.348 20.1186 32.4058C20.0419 32.4636 19.9837 32.5445 19.9439 32.6487C19.9051 32.7529 19.8857 32.8755 19.8857 33.0166ZM22.8473 34.1501C22.6286 34.1501 22.4396 34.1047 22.2805 34.0138C22.1224 33.9219 22.0007 33.7922 21.9155 33.6246C21.8303 33.456 21.7876 33.2576 21.7876 33.0294C21.7876 32.805 21.8303 32.608 21.9155 32.4385C22.0017 32.268 22.1219 32.1354 22.2763 32.0408C22.4306 31.9451 22.612 31.8973 22.8203 31.8973C22.9548 31.8973 23.0817 31.9191 23.201 31.9626C23.3213 32.0052 23.4273 32.0715 23.5192 32.1615C23.612 32.2515 23.6849 32.366 23.7379 32.5052C23.791 32.6435 23.8175 32.8083 23.8175 32.9996V33.1572H22.0291V32.8106H23.3246C23.3236 32.7122 23.3023 32.6246 23.2607 32.5479C23.219 32.4702 23.1607 32.4091 23.0859 32.3646C23.0121 32.3201 22.9259 32.2979 22.8274 32.2979C22.7223 32.2979 22.63 32.3234 22.5504 32.3746C22.4709 32.4247 22.4089 32.491 22.3643 32.5734C22.3208 32.6549 22.2985 32.7444 22.2976 32.8419V33.1444C22.2976 33.2713 22.3208 33.3802 22.3672 33.4711C22.4136 33.5611 22.4785 33.6302 22.5618 33.6785C22.6451 33.7259 22.7427 33.7496 22.8544 33.7496C22.9292 33.7496 22.9969 33.7391 23.0575 33.7183C23.1181 33.6965 23.1707 33.6648 23.2152 33.6231C23.2597 33.5815 23.2933 33.5299 23.3161 33.4683L23.7962 33.5223C23.7659 33.6492 23.7081 33.76 23.6229 33.8547C23.5386 33.9484 23.4306 34.0213 23.299 34.0734C23.1674 34.1246 23.0168 34.1501 22.8473 34.1501ZM24.2525 34.1075V31.9257H24.7511V32.2893H24.7738C24.8136 32.1634 24.8817 32.0663 24.9783 31.9981C25.0759 31.929 25.1871 31.8944 25.3121 31.8944C25.3406 31.8944 25.3723 31.8959 25.4073 31.8987C25.4433 31.9006 25.4731 31.9039 25.4968 31.9086V32.3817C25.475 32.3741 25.4405 32.3675 25.3931 32.3618C25.3467 32.3551 25.3017 32.3518 25.2582 32.3518C25.1644 32.3518 25.0801 32.3722 25.0053 32.4129C24.9315 32.4527 24.8732 32.5081 24.8306 32.5791C24.788 32.6501 24.7667 32.732 24.7667 32.8248V34.1075H24.2525ZM27.5629 32.5024L27.0941 32.5535C27.0808 32.5062 27.0576 32.4617 27.0245 32.42C26.9923 32.3783 26.9487 32.3447 26.8938 32.3192C26.8389 32.2936 26.7717 32.2808 26.6921 32.2808C26.5851 32.2808 26.4951 32.304 26.4222 32.3504C26.3503 32.3968 26.3147 32.4569 26.3157 32.5308C26.3147 32.5943 26.3379 32.6459 26.3853 32.6856C26.4336 32.7254 26.5131 32.7581 26.6239 32.7836L26.9961 32.8632C27.2025 32.9077 27.3559 32.9783 27.4563 33.0748C27.5576 33.1714 27.6088 33.2979 27.6097 33.4541C27.6088 33.5914 27.5685 33.7126 27.489 33.8177C27.4104 33.9219 27.301 34.0033 27.1609 34.0621C27.0207 34.1208 26.8597 34.1501 26.6779 34.1501C26.4109 34.1501 26.1959 34.0943 26.033 33.9825C25.8701 33.8698 25.7731 33.7131 25.7418 33.5123L26.2433 33.464C26.266 33.5625 26.3143 33.6369 26.3881 33.6871C26.462 33.7372 26.5581 33.7623 26.6765 33.7623C26.7987 33.7623 26.8967 33.7372 26.9705 33.6871C27.0453 33.6369 27.0827 33.5748 27.0827 33.501C27.0827 33.4385 27.0586 33.3869 27.0103 33.3461C26.9629 33.3054 26.8891 33.2742 26.7887 33.2524L26.4165 33.1743C26.2073 33.1307 26.0524 33.0573 25.9521 32.9541C25.8517 32.8499 25.802 32.7183 25.8029 32.5592C25.802 32.4247 25.8384 32.3083 25.9123 32.2098C25.9871 32.1104 26.0908 32.0336 26.2234 31.9797C26.3569 31.9247 26.5108 31.8973 26.685 31.8973C26.9407 31.8973 27.1419 31.9517 27.2887 32.0606C27.4364 32.1695 27.5278 32.3168 27.5629 32.5024Z" fill="#2563EB"/>
<rect x="0.775391" y="73.2801" width="32.0515" height="32.0515" rx="4" fill="#EEEEF0"/>
<path fill-rule="evenodd" clip-rule="evenodd" d="M14.3592 80.1942C14.3592 78.875 15.4286 77.8055 16.7478 77.8055C18.0671 77.8055 19.1365 78.875 19.1365 80.1942C19.1365 81.5134 18.0671 82.5828 16.7478 82.5828C15.4286 82.5828 14.3592 81.5134 14.3592 80.1942ZM16.7478 76.8055C14.8763 76.8055 13.3592 78.3227 13.3592 80.1942C13.3592 81.368 13.956 82.4025 14.8628 83.0106C14.1386 83.3586 13.5256 83.9008 13.0913 84.5691H9.28711C9.01097 84.5691 8.78711 84.7929 8.78711 85.0691V92.3061C8.78711 92.5823 9.01097 92.8061 9.28711 92.8061H24.3032C24.5794 92.8061 24.8032 92.5823 24.8032 92.3061V85.0691C24.8032 84.7929 24.5794 84.5691 24.3032 84.5691H20.4041C19.9698 83.9008 19.3568 83.3587 18.6327 83.0107C19.5396 82.4026 20.1365 81.3681 20.1365 80.1942C20.1365 78.3227 18.6193 76.8055 16.7478 76.8055ZM16.7477 83.5829C17.6759 83.5829 18.5165 83.9595 19.1247 84.5691H14.3706C14.9788 83.9594 15.8195 83.5829 16.7477 83.5829ZM9.78711 85.5691V91.8061H23.8032V85.5691H9.78711ZM17.952 86.9846C18.0463 86.7251 17.9124 86.4382 17.6529 86.3438C17.3934 86.2495 17.1065 86.3834 17.0122 86.6429L15.6494 90.3906C15.555 90.6501 15.6889 90.937 15.9484 91.0314C16.2079 91.1257 16.4948 90.9918 16.5891 90.7323L17.952 86.9846ZM15.434 87.9987C15.6293 87.8034 15.6293 87.4869 15.434 87.2916C15.2387 87.0963 14.9222 87.0963 14.7269 87.2916L13.6843 88.3342C13.489 88.5294 13.489 88.846 13.6843 89.0413L14.7269 90.0839C14.9222 90.2791 15.2387 90.2791 15.434 90.0839C15.6293 89.8886 15.6293 89.572 15.434 89.3768L14.745 88.6877L15.434 87.9987ZM18.1672 87.2916C18.3625 87.0963 18.6791 87.0963 18.8743 87.2916L19.9169 88.3342C20.1122 88.5294 20.1122 88.846 19.9169 89.0413L18.8743 90.0839C18.6791 90.2791 18.3625 90.2791 18.1672 90.0839C17.972 89.8886 17.972 89.572 18.1672 89.3768L18.8563 88.6877L18.1672 87.9987C17.972 87.8034 17.972 87.4869 18.1672 87.2916Z" fill="#2563EB"/>
<path d="M4.09357 100.806V97.8967H5.18448C5.40797 97.8967 5.59547 97.9384 5.74698 98.0217C5.89944 98.1051 6.0145 98.2197 6.09215 98.3655C6.17075 98.5104 6.21005 98.6751 6.21005 98.8598C6.21005 99.0464 6.17075 99.2121 6.09215 99.357C6.01355 99.5019 5.89755 99.616 5.74414 99.6993C5.59073 99.7817 5.40181 99.8229 5.17738 99.8229H4.45437V99.3896H5.10636C5.23704 99.3896 5.34405 99.3669 5.42738 99.3215C5.51071 99.276 5.57227 99.2135 5.61204 99.134C5.65276 99.0544 5.67312 98.963 5.67312 98.8598C5.67312 98.7566 5.65276 98.6657 5.61204 98.5871C5.57227 98.5085 5.51024 98.4474 5.42596 98.4038C5.34263 98.3593 5.23514 98.3371 5.10352 98.3371H4.62056V100.806H4.09357ZM7.15927 97.8967V100.806H6.64506V97.8967H7.15927ZM8.31587 100.85C8.17762 100.85 8.05309 100.825 7.94229 100.776C7.83245 100.726 7.74532 100.652 7.68093 100.554C7.61748 100.457 7.58576 100.337 7.58576 100.194C7.58576 100.071 7.60849 99.9687 7.65394 99.8882C7.6994 99.8077 7.76142 99.7433 7.84002 99.695C7.91862 99.6467 8.00716 99.6103 8.10565 99.5857C8.20508 99.5601 8.30782 99.5416 8.41388 99.5303C8.54173 99.517 8.64542 99.5052 8.72496 99.4948C8.80451 99.4834 8.86228 99.4663 8.89826 99.4436C8.93519 99.4199 8.95366 99.3835 8.95366 99.3342V99.3257C8.95366 99.2187 8.92193 99.1359 8.85849 99.0771C8.79504 99.0184 8.70366 98.9891 8.58434 98.9891C8.45839 98.9891 8.35849 99.0165 8.28462 99.0715C8.21171 99.1264 8.16246 99.1912 8.1369 99.2661L7.65678 99.1979C7.69466 99.0653 7.75716 98.9545 7.84428 98.8655C7.9314 98.7755 8.03794 98.7083 8.16388 98.6638C8.28983 98.6183 8.42904 98.5956 8.5815 98.5956C8.68661 98.5956 8.79125 98.6079 8.89542 98.6325C8.99959 98.6572 9.09476 98.6979 9.18093 98.7547C9.2671 98.8106 9.33623 98.8868 9.38832 98.9834C9.44135 99.08 9.46786 99.2007 9.46786 99.3456V100.806H8.97354V100.506H8.9565C8.92525 100.567 8.88121 100.624 8.8244 100.677C8.76853 100.729 8.69798 100.771 8.61275 100.803C8.52847 100.834 8.42951 100.85 8.31587 100.85ZM8.4494 100.472C8.55262 100.472 8.6421 100.452 8.71786 100.411C8.79362 100.369 8.85186 100.314 8.89258 100.246C8.93424 100.178 8.95508 100.104 8.95508 100.023V99.7661C8.93898 99.7793 8.91152 99.7916 8.87269 99.803C8.83481 99.8144 8.7922 99.8243 8.74485 99.8328C8.6975 99.8413 8.65063 99.8489 8.60423 99.8555C8.55782 99.8622 8.51758 99.8679 8.48349 99.8726C8.40678 99.883 8.33813 99.9001 8.27752 99.9237C8.21692 99.9474 8.16909 99.9805 8.13406 100.023C8.09902 100.065 8.0815 100.119 8.0815 100.185C8.0815 100.28 8.11606 100.351 8.18519 100.4C8.25432 100.448 8.34239 100.472 8.4494 100.472ZM11.0744 98.624V99.0217H9.82013V98.624H11.0744ZM10.1298 98.1013H10.644V100.15C10.644 100.219 10.6544 100.272 10.6752 100.309C10.697 100.345 10.7254 100.369 10.7605 100.383C10.7955 100.396 10.8343 100.402 10.877 100.402C10.9092 100.402 10.9385 100.4 10.965 100.395C10.9925 100.391 11.0133 100.386 11.0275 100.383L11.1142 100.785C11.0867 100.794 11.0474 100.804 10.9963 100.816C10.9461 100.827 10.8845 100.834 10.8116 100.836C10.6828 100.839 10.5668 100.82 10.4636 100.777C10.3604 100.734 10.2785 100.667 10.2179 100.576C10.1582 100.485 10.1288 100.371 10.1298 100.235V98.1013ZM12.6096 98.624V99.0217H11.3198V98.624H12.6096ZM11.6422 100.806V98.418C11.6422 98.2713 11.6725 98.1491 11.7331 98.0516C11.7947 97.954 11.8771 97.8811 11.9803 97.8328C12.0835 97.7845 12.1981 97.7604 12.324 97.7604C12.4131 97.7604 12.4921 97.7675 12.5613 97.7817C12.6304 97.7959 12.6815 97.8087 12.7147 97.82L12.6124 98.2178C12.5906 98.2111 12.5632 98.2045 12.53 98.1979C12.4969 98.1903 12.4599 98.1865 12.4192 98.1865C12.3236 98.1865 12.2559 98.2097 12.2161 98.2561C12.1773 98.3016 12.1578 98.3669 12.1578 98.4521V100.806H11.6422ZM13.8819 100.848C13.6689 100.848 13.4842 100.802 13.3279 100.708C13.1717 100.614 13.0505 100.483 12.9643 100.314C12.8791 100.146 12.8365 99.9488 12.8365 99.7234C12.8365 99.4981 12.8791 99.3006 12.9643 99.1311C13.0505 98.9616 13.1717 98.83 13.3279 98.7362C13.4842 98.6425 13.6689 98.5956 13.8819 98.5956C14.095 98.5956 14.2797 98.6425 14.4359 98.7362C14.5922 98.83 14.7129 98.9616 14.7981 99.1311C14.8843 99.3006 14.9274 99.4981 14.9274 99.7234C14.9274 99.9488 14.8843 100.146 14.7981 100.314C14.7129 100.483 14.5922 100.614 14.4359 100.708C14.2797 100.802 14.095 100.848 13.8819 100.848ZM13.8848 100.437C14.0003 100.437 14.0969 100.405 14.1745 100.341C14.2522 100.277 14.31 100.191 14.3478 100.083C14.3867 99.9749 14.4061 99.8546 14.4061 99.722C14.4061 99.5885 14.3867 99.4678 14.3478 99.3598C14.31 99.2509 14.2522 99.1643 14.1745 99.0999C14.0969 99.0355 14.0003 99.0033 13.8848 99.0033C13.7664 99.0033 13.6679 99.0355 13.5893 99.0999C13.5117 99.1643 13.4534 99.2509 13.4146 99.3598C13.3767 99.4678 13.3578 99.5885 13.3578 99.722C13.3578 99.8546 13.3767 99.9749 13.4146 100.083C13.4534 100.191 13.5117 100.277 13.5893 100.341C13.6679 100.405 13.7664 100.437 13.8848 100.437ZM15.3638 100.806V98.624H15.8624V98.9877H15.8851C15.9249 98.8617 15.9931 98.7646 16.0897 98.6965C16.1872 98.6273 16.2985 98.5928 16.4235 98.5928C16.4519 98.5928 16.4836 98.5942 16.5186 98.597C16.5546 98.5989 16.5845 98.6022 16.6081 98.607V99.08C16.5864 99.0724 16.5518 99.0658 16.5044 99.0601C16.458 99.0535 16.4131 99.0502 16.3695 99.0502C16.2757 99.0502 16.1915 99.0705 16.1167 99.1112C16.0428 99.151 15.9846 99.2064 15.9419 99.2774C15.8993 99.3484 15.878 99.4304 15.878 99.5232V100.806H15.3638ZM16.9498 100.806V98.624H17.4412V98.9948H17.4668C17.5123 98.8698 17.5875 98.7722 17.6926 98.7021C17.7978 98.6311 17.9232 98.5956 18.0691 98.5956C18.2168 98.5956 18.3413 98.6316 18.4426 98.7036C18.5449 98.7746 18.6169 98.8716 18.6586 98.9948H18.6813C18.7296 98.8735 18.811 98.7769 18.9256 98.705C19.0411 98.6321 19.178 98.5956 19.3361 98.5956C19.5369 98.5956 19.7007 98.6591 19.8276 98.7859C19.9545 98.9128 20.0179 99.098 20.0179 99.3413V100.806H19.5023V99.4209C19.5023 99.2855 19.4663 99.1865 19.3944 99.124C19.3224 99.0606 19.2343 99.0288 19.1301 99.0288C19.0061 99.0288 18.909 99.0677 18.839 99.1453C18.7698 99.222 18.7353 99.3219 18.7353 99.445V100.806H18.231V99.3996C18.231 99.2869 18.1969 99.1969 18.1287 99.1297C18.0615 99.0625 17.9734 99.0288 17.8645 99.0288C17.7907 99.0288 17.7234 99.0478 17.6628 99.0857C17.6022 99.1226 17.5539 99.1752 17.5179 99.2433C17.4819 99.3106 17.464 99.3892 17.464 99.4791V100.806H16.9498ZM21.5545 100.806V97.8967H23.4466V98.3385H22.0815V99.1283H23.3485V99.57H22.0815V100.364H23.4579V100.806H21.5545ZM24.4757 99.5274V100.806H23.9615V98.624H24.4529V98.9948H24.4785C24.5287 98.8726 24.6087 98.7755 24.7186 98.7036C24.8294 98.6316 24.9662 98.5956 25.1291 98.5956C25.2797 98.5956 25.4108 98.6278 25.5225 98.6922C25.6352 98.7566 25.7224 98.8499 25.7839 98.972C25.8464 99.0942 25.8772 99.2424 25.8762 99.4166V100.806H25.362V99.4962C25.362 99.3503 25.3242 99.2362 25.2484 99.1538C25.1736 99.0715 25.0699 99.0303 24.9373 99.0303C24.8474 99.0303 24.7673 99.0502 24.6973 99.0899C24.6281 99.1287 24.5737 99.1851 24.5339 99.259C24.4951 99.3328 24.4757 99.4223 24.4757 99.5274ZM27.3478 101.669C27.1632 101.669 27.0046 101.644 26.872 101.594C26.7394 101.545 26.6329 101.479 26.5524 101.395C26.4719 101.312 26.416 101.22 26.3848 101.118L26.8478 101.006C26.8687 101.049 26.899 101.091 26.9387 101.133C26.9785 101.175 27.032 101.21 27.0993 101.238C27.1674 101.266 27.2531 101.28 27.3564 101.28C27.5022 101.28 27.6229 101.245 27.7186 101.174C27.8142 101.104 27.862 100.988 27.862 100.827V100.414H27.8365C27.81 100.467 27.7711 100.521 27.72 100.577C27.6698 100.633 27.603 100.68 27.5197 100.718C27.4373 100.756 27.3336 100.775 27.2086 100.775C27.041 100.775 26.889 100.735 26.7527 100.657C26.6172 100.577 26.5093 100.459 26.4288 100.302C26.3493 100.143 26.3095 99.9455 26.3095 99.7078C26.3095 99.4682 26.3493 99.2661 26.4288 99.1013C26.5093 98.9356 26.6177 98.8101 26.7541 98.7249C26.8904 98.6387 27.0424 98.5956 27.21 98.5956C27.3379 98.5956 27.443 98.6174 27.5254 98.6609C27.6087 98.7036 27.675 98.7552 27.7243 98.8158C27.7735 98.8754 27.8109 98.9318 27.8365 98.9848H27.8649V98.624H28.372V100.841C28.372 101.028 28.3275 101.182 28.2385 101.304C28.1494 101.427 28.0278 101.518 27.8734 101.579C27.719 101.639 27.5439 101.669 27.3478 101.669ZM27.3521 100.371C27.461 100.371 27.5538 100.345 27.6305 100.292C27.7072 100.239 27.7654 100.162 27.8052 100.063C27.845 99.9635 27.8649 99.8442 27.8649 99.705C27.8649 99.5677 27.845 99.4474 27.8052 99.3442C27.7664 99.241 27.7086 99.1609 27.6319 99.1041C27.5562 99.0464 27.4629 99.0175 27.3521 99.0175C27.2375 99.0175 27.1419 99.0473 27.0652 99.107C26.9885 99.1666 26.9307 99.2485 26.8919 99.3527C26.853 99.4559 26.8336 99.5734 26.8336 99.705C26.8336 99.8385 26.853 99.9555 26.8919 100.056C26.9316 100.155 26.9899 100.233 27.0666 100.289C27.1442 100.344 27.2394 100.371 27.3521 100.371ZM29.2157 100.837C29.1296 100.837 29.0557 100.807 28.9941 100.746C28.9326 100.686 28.9023 100.612 28.9032 100.525C28.9023 100.439 28.9326 100.366 28.9941 100.306C29.0557 100.245 29.1296 100.215 29.2157 100.215C29.2991 100.215 29.3715 100.245 29.4331 100.306C29.4956 100.366 29.5273 100.439 29.5282 100.525C29.5273 100.582 29.5121 100.635 29.4828 100.682C29.4544 100.73 29.4165 100.767 29.3691 100.796C29.3227 100.823 29.2716 100.837 29.2157 100.837Z" fill="#2563EB"/>
<path d="M64.8906 49.0368H63.2557C54.85 49.0368 47.3413 43.7809 44.4639 35.8829L42.0294 29.2004C40.5872 25.2418 36.8237 22.6075 32.6106 22.6075V22.6075" stroke="#D97706" stroke-dasharray="2 2"/>
<path d="M64.8906 62.8765H63.2557C54.85 62.8765 47.3413 68.1325 44.4639 76.0304L42.0294 82.7129C40.5872 86.6715 36.8237 89.3058 32.6106 89.3058V89.3058" stroke="#D97706" stroke-dasharray="2 2"/>
<defs>
<clipPath id="clip0_4973_62323">
<rect width="16" height="16" fill="white" transform="translate(259.705 80.6394)"/>
</clipPath>
</defs>
</svg>
