<svg width="214" height="83" viewBox="0 0 214 83" fill="none" xmlns="http://www.w3.org/2000/svg">
<rect x="51.9805" y="3.84192" width="116.621" height="75.2354" rx="8" stroke="#D97706"/>
<rect width="12.1534" height="8" transform="translate(104.188 0.369507)" fill="#FAFAFA"/>
<path d="M109.465 4.44031C109.42 4.39568 109.42 4.32333 109.465 4.2787L111.767 1.9838C111.812 1.93917 111.885 1.93917 111.93 1.9838L114.232 4.27872C114.277 4.32334 114.277 4.3957 114.232 4.44032L111.93 6.73523C111.885 6.77986 111.812 6.77986 111.767 6.73523L109.465 4.44031Z" fill="#2563EB"/>
<path d="M110.36 0.402977C110.315 0.35835 110.242 0.35835 110.198 0.402977L106.299 4.2887C106.254 4.33333 106.254 4.40568 106.299 4.45031L110.198 8.33604C110.242 8.38066 110.315 8.38066 110.36 8.33604L111.002 7.69555C111.047 7.65092 111.047 7.57857 111.002 7.53394L107.894 4.43542C107.849 4.39079 107.849 4.31844 107.894 4.27381L110.987 1.19018C111.032 1.14555 111.032 1.0732 110.987 1.02857L110.36 0.402977Z" fill="#2563EB"/>
<path d="M63.1475 62.475H62.043V61.7982H63.1094C63.4141 61.7982 63.668 61.7426 63.8711 61.6312C64.0762 61.5179 64.2305 61.35 64.334 61.1273C64.4375 60.9027 64.4893 60.6224 64.4893 60.2865C64.4893 59.9545 64.4375 59.6771 64.334 59.4545C64.2305 59.2318 64.0781 59.0648 63.877 58.9535C63.6777 58.8422 63.4287 58.7865 63.1299 58.7865H62.0195V58.1097H63.1768C63.6104 58.1097 63.9824 58.1967 64.293 58.3705C64.6035 58.5443 64.8418 58.7943 65.0078 59.1205C65.1758 59.4467 65.2598 59.8353 65.2598 60.2865C65.2598 60.7416 65.1758 61.1332 65.0078 61.4613C64.8418 61.7875 64.6006 62.0385 64.2842 62.2142C63.9697 62.3881 63.5908 62.475 63.1475 62.475ZM62.4531 58.1097V62.475H61.6709V58.1097H62.4531ZM67.4189 62.5424C67.0889 62.5424 66.8047 62.473 66.5664 62.3344C66.3301 62.1957 66.1475 62.0004 66.0186 61.7484C65.8916 61.4965 65.8281 61.1996 65.8281 60.8578C65.8281 60.5199 65.8906 60.224 66.0156 59.9701C66.1426 59.7162 66.3213 59.5179 66.5518 59.3754C66.7842 59.2308 67.0566 59.1586 67.3691 59.1586C67.5684 59.1586 67.7578 59.1908 67.9375 59.2552C68.1191 59.3197 68.2793 59.4193 68.418 59.5541C68.5586 59.6888 68.668 59.8607 68.7461 60.0697C68.8262 60.2767 68.8662 60.5238 68.8662 60.8109V61.0511H66.1885V60.5326H68.4883L68.1309 60.6849C68.1309 60.5013 68.1025 60.3402 68.0459 60.2015C67.9893 60.0609 67.9043 59.9515 67.791 59.8734C67.6797 59.7953 67.54 59.7562 67.3721 59.7562C67.2041 59.7562 67.0615 59.7963 66.9443 59.8763C66.8271 59.9545 66.7373 60.0599 66.6748 60.1927C66.6143 60.3236 66.584 60.4701 66.584 60.6322V60.9896C66.584 61.1967 66.6191 61.3715 66.6895 61.514C66.7598 61.6566 66.8584 61.764 66.9854 61.8363C67.1123 61.9086 67.2598 61.9447 67.4277 61.9447C67.5391 61.9447 67.6396 61.9291 67.7295 61.8978C67.8213 61.8646 67.9004 61.8168 67.9668 61.7543C68.0332 61.6898 68.083 61.6117 68.1162 61.5199L68.8164 61.6635C68.7637 61.8392 68.6738 61.9935 68.5469 62.1263C68.4199 62.2572 68.2607 62.3597 68.0693 62.434C67.8799 62.5062 67.6631 62.5424 67.4189 62.5424ZM70.3398 62.475L69.1211 59.1996H69.9355L70.5332 60.9808C70.6035 61.1898 70.6641 61.3998 70.7148 61.6107C70.7656 61.8217 70.8174 62.0355 70.8701 62.2523H70.6797C70.7344 62.0355 70.7861 61.8217 70.835 61.6107C70.8857 61.3998 70.9453 61.1898 71.0137 60.9808L71.6084 59.1996H72.417L71.1924 62.475H70.3398ZM74.8369 62.5336C74.4541 62.5336 74.1113 62.4447 73.8086 62.267C73.5059 62.0892 73.2666 61.8334 73.0908 61.4994C72.917 61.1654 72.8301 60.764 72.8301 60.2953C72.8301 59.8246 72.917 59.4222 73.0908 59.0883C73.2666 58.7523 73.5059 58.4955 73.8086 58.3177C74.1113 58.14 74.4541 58.0511 74.8369 58.0511C75.2178 58.0511 75.5586 58.14 75.8594 58.3177C76.1621 58.4955 76.4004 58.7523 76.5742 59.0883C76.75 59.4222 76.8379 59.8246 76.8379 60.2953C76.8379 60.764 76.75 61.1664 76.5742 61.5023C76.4004 61.8363 76.1621 62.0922 75.8594 62.2699C75.5586 62.4457 75.2178 62.5336 74.8369 62.5336ZM74.8369 61.8334C75.0732 61.8334 75.2822 61.7748 75.4639 61.6576C75.6475 61.5385 75.791 61.3646 75.8945 61.1361C75.998 60.9056 76.0498 60.6254 76.0498 60.2953C76.0498 59.9613 75.998 59.6801 75.8945 59.4515C75.791 59.2211 75.6475 59.0472 75.4639 58.9301C75.2822 58.8109 75.0732 58.7513 74.8369 58.7513C74.5986 58.7513 74.3877 58.8109 74.2041 58.9301C74.0205 59.0492 73.876 59.224 73.7705 59.4545C73.667 59.683 73.6152 59.9633 73.6152 60.2953C73.6152 60.6254 73.667 60.9047 73.7705 61.1332C73.876 61.3617 74.0205 61.5355 74.2041 61.6547C74.3877 61.7738 74.5986 61.8334 74.8369 61.8334ZM77.5439 63.6996V59.1996H78.2881V59.7416H78.3379C78.377 59.6635 78.4326 59.5795 78.5049 59.4896C78.5771 59.3998 78.6748 59.3226 78.7979 59.2582C78.9229 59.1918 79.082 59.1586 79.2754 59.1586C79.5293 59.1586 79.7578 59.223 79.9609 59.3519C80.1641 59.4808 80.3252 59.6713 80.4443 59.9232C80.5654 60.1732 80.626 60.4799 80.626 60.8431C80.626 61.2025 80.5674 61.5082 80.4502 61.7601C80.333 62.0121 80.1719 62.2045 79.9668 62.3373C79.7637 62.4681 79.5322 62.5336 79.2725 62.5336C79.0869 62.5336 78.9316 62.5023 78.8066 62.4398C78.6816 62.3754 78.582 62.2982 78.5078 62.2084C78.4336 62.1185 78.377 62.0345 78.3379 61.9564H78.3057V63.6996H77.5439ZM79.0674 61.9066C79.2373 61.9066 79.3799 61.8607 79.4951 61.7689C79.6104 61.6752 79.6973 61.5482 79.7559 61.3881C79.8145 61.226 79.8438 61.0433 79.8438 60.8402C79.8438 60.6371 79.8145 60.4564 79.7559 60.2982C79.6992 60.1381 79.6133 60.0131 79.498 59.9232C79.3828 59.8314 79.2393 59.7855 79.0674 59.7855C78.8994 59.7855 78.7578 59.8295 78.6426 59.9174C78.5273 60.0052 78.4395 60.1283 78.3789 60.2865C78.3203 60.4427 78.291 60.6273 78.291 60.8402C78.291 61.0531 78.3203 61.2396 78.3789 61.3998C78.4395 61.5599 78.5273 61.6849 78.6426 61.7748C78.7598 61.8627 78.9014 61.9066 79.0674 61.9066ZM82.5273 62.5424C82.2754 62.5424 82.0527 62.5062 81.8594 62.434C81.666 62.3617 81.5068 62.2562 81.3818 62.1176C81.2588 61.9789 81.1787 61.8109 81.1416 61.6136L81.8535 61.4789C81.8984 61.641 81.9775 61.7621 82.0908 61.8422C82.2061 61.9203 82.3564 61.9594 82.542 61.9594C82.7295 61.9594 82.8779 61.9222 82.9873 61.848C83.0986 61.7719 83.1543 61.6781 83.1543 61.5668C83.1543 61.473 83.1182 61.3959 83.0459 61.3353C82.9736 61.2728 82.8623 61.225 82.7119 61.1918L82.1523 61.0717C81.8438 61.0052 81.6133 60.8959 81.4609 60.7435C81.3086 60.5912 81.2324 60.3949 81.2324 60.1547C81.2324 59.9515 81.2881 59.7758 81.3994 59.6273C81.5107 59.4789 81.665 59.3636 81.8623 59.2816C82.0615 59.1996 82.292 59.1586 82.5537 59.1586C82.8018 59.1586 83.0146 59.1937 83.1924 59.264C83.3721 59.3344 83.5166 59.433 83.626 59.5599C83.7373 59.6849 83.8145 59.8324 83.8574 60.0023L83.1777 60.1371C83.1406 60.0219 83.0732 59.9252 82.9756 59.847C82.8779 59.767 82.7402 59.7269 82.5625 59.7269C82.4004 59.7269 82.2646 59.7631 82.1553 59.8353C82.0479 59.9056 81.9941 59.9965 81.9941 60.1078C81.9941 60.2035 82.0303 60.2826 82.1025 60.3451C82.1748 60.4076 82.2939 60.4564 82.46 60.4916L83.0166 60.6088C83.3271 60.6752 83.5576 60.7816 83.708 60.9281C83.8584 61.0746 83.9336 61.2631 83.9336 61.4935C83.9336 61.7006 83.874 61.8832 83.7549 62.0414C83.6357 62.1976 83.4697 62.3207 83.2568 62.4105C83.0459 62.4984 82.8027 62.5424 82.5273 62.5424Z" fill="#2563EB"/>
<rect x="58.707" y="24.475" width="28" height="28" rx="14" fill="#FAFAFA"/>
<rect x="58.707" y="24.475" width="28" height="28" rx="14" stroke="#2563EB"/>
<path d="M71.2497 40.0679C70.719 40.9131 69.7786 41.475 68.707 41.475C67.0502 41.475 65.707 40.1318 65.707 38.475C65.707 36.8181 67.0502 35.475 68.707 35.475C69.3163 35.475 70.1219 35.7831 70.4912 36.1101C70.8499 36.4276 74.4284 40.3982 74.6352 40.6277C74.6419 40.6352 74.6481 40.6416 74.6552 40.6486L74.7991 40.7902C75.3176 41.218 75.9823 41.475 76.707 41.475C78.3639 41.475 79.707 40.1318 79.707 38.475C79.707 36.8181 78.3639 35.475 76.707 35.475C75.7659 35.475 74.9259 35.9084 74.3759 36.5865" stroke="#2563EB" stroke-linecap="round"/>
<rect width="10" height="8" transform="translate(67.707 20.475)" fill="#FAFAFA"/>
<path d="M70.8174 25.3998V24.6586C70.9111 24.5062 71.0029 24.3636 71.0928 24.2308C71.1846 24.0961 71.2812 23.9633 71.3828 23.8324C71.4863 23.7015 71.6016 23.5629 71.7285 23.4164L72.874 22.1097H73.8467L71.9951 24.1986L71.9365 24.1781L70.8174 25.3998ZM70.252 26.475V22.1097H71.0342V23.4047L71.0195 24.4564L71.0342 24.8402V26.475H70.252ZM72.9531 26.475L71.5645 24.4213L72.0566 23.8324L73.876 26.475H72.9531ZM75.1973 22.1097V26.475H74.4355V22.1097H75.1973Z" fill="#2563EB"/>
<path d="M98.8252 58.1097V62.475H98.043V58.1097H98.8252ZM100.434 60.556V62.475H99.6719V59.1996H100.393L100.404 60.0082H100.343C100.435 59.725 100.569 59.5131 100.747 59.3724C100.925 59.2299 101.147 59.1586 101.415 59.1586C101.64 59.1586 101.836 59.2064 102.004 59.3021C102.172 59.3978 102.302 59.5375 102.394 59.7211C102.487 59.9047 102.534 60.1283 102.534 60.392V62.475H101.772V60.5092C101.772 60.2904 101.716 60.1185 101.603 59.9935C101.489 59.8685 101.333 59.806 101.134 59.806C100.999 59.806 100.879 59.8353 100.773 59.8939C100.668 59.9525 100.585 60.0385 100.524 60.1517C100.464 60.2631 100.434 60.3978 100.434 60.556ZM105.068 59.1996V59.7972H103V59.1996H105.068ZM103.601 62.475V58.8861C103.601 58.6674 103.646 58.4857 103.735 58.3412C103.827 58.1967 103.95 58.0883 104.104 58.016C104.261 57.9418 104.432 57.9047 104.617 57.9047C104.752 57.9047 104.871 57.9154 104.975 57.9369C105.078 57.9584 105.154 57.9779 105.203 57.9955L105.048 58.5873C105.015 58.5775 104.974 58.5677 104.925 58.558C104.878 58.5463 104.822 58.5404 104.758 58.5404C104.615 58.5404 104.513 58.5756 104.45 58.6459C104.39 58.7162 104.359 58.8158 104.359 58.9447V62.475H103.601ZM105.678 62.475V59.1996H106.416V59.7474H106.451C106.51 59.558 106.612 59.4125 106.759 59.3109C106.905 59.2074 107.072 59.1556 107.26 59.1556C107.303 59.1556 107.351 59.1576 107.403 59.1615C107.456 59.1654 107.501 59.1703 107.538 59.1761V59.8763C107.507 59.8666 107.456 59.8578 107.386 59.85C107.315 59.8422 107.246 59.8383 107.178 59.8383C107.037 59.8383 106.91 59.8685 106.797 59.9291C106.686 59.9896 106.598 60.0736 106.533 60.181C106.471 60.2865 106.439 60.4086 106.439 60.5472V62.475H105.678ZM109.138 62.5336C108.882 62.5336 108.652 62.4681 108.449 62.3373C108.246 62.2045 108.085 62.0121 107.966 61.7601C107.849 61.5082 107.79 61.2025 107.79 60.8431C107.79 60.4799 107.851 60.1732 107.972 59.9232C108.093 59.6713 108.255 59.4808 108.458 59.3519C108.663 59.223 108.892 59.1586 109.144 59.1586C109.337 59.1586 109.495 59.1908 109.618 59.2552C109.743 59.3197 109.842 59.3978 109.914 59.4896C109.986 59.5795 110.041 59.6635 110.078 59.7416H110.113V59.1996H110.872V62.475H110.116V61.9564H110.078C110.041 62.0345 109.984 62.1195 109.908 62.2113C109.834 62.3011 109.734 62.3773 109.609 62.4398C109.484 62.5023 109.327 62.5336 109.138 62.5336ZM109.352 61.9066C109.518 61.9066 109.658 61.8627 109.773 61.7748C109.889 61.6849 109.977 61.5599 110.037 61.3998C110.098 61.2396 110.128 61.0531 110.128 60.8402C110.128 60.6273 110.098 60.4427 110.037 60.2865C109.979 60.1283 109.892 60.0052 109.776 59.9174C109.661 59.8295 109.52 59.7855 109.352 59.7855C109.18 59.7855 109.035 59.8314 108.918 59.9232C108.803 60.0131 108.716 60.1371 108.657 60.2953C108.599 60.4535 108.569 60.6351 108.569 60.8402C108.569 61.0433 108.599 61.226 108.657 61.3881C108.718 61.5482 108.806 61.6752 108.921 61.7689C109.038 61.8607 109.182 61.9066 109.352 61.9066ZM113.582 62.5336C113.199 62.5336 112.856 62.4447 112.554 62.267C112.251 62.0892 112.012 61.8334 111.836 61.4994C111.662 61.1654 111.575 60.764 111.575 60.2953C111.575 59.8246 111.662 59.4222 111.836 59.0883C112.012 58.7523 112.251 58.4955 112.554 58.3177C112.856 58.14 113.199 58.0511 113.582 58.0511C113.963 58.0511 114.304 58.14 114.604 58.3177C114.907 58.4955 115.146 58.7523 115.319 59.0883C115.495 59.4222 115.583 59.8246 115.583 60.2953C115.583 60.764 115.495 61.1664 115.319 61.5023C115.146 61.8363 114.907 62.0922 114.604 62.2699C114.304 62.4457 113.963 62.5336 113.582 62.5336ZM113.582 61.8334C113.818 61.8334 114.027 61.7748 114.209 61.6576C114.393 61.5385 114.536 61.3646 114.64 61.1361C114.743 60.9056 114.795 60.6254 114.795 60.2953C114.795 59.9613 114.743 59.6801 114.64 59.4515C114.536 59.2211 114.393 59.0472 114.209 58.9301C114.027 58.8109 113.818 58.7513 113.582 58.7513C113.344 58.7513 113.133 58.8109 112.949 58.9301C112.766 59.0492 112.621 59.224 112.516 59.4545C112.412 59.683 112.36 59.9633 112.36 60.2953C112.36 60.6254 112.412 60.9047 112.516 61.1332C112.621 61.3617 112.766 61.5355 112.949 61.6547C113.133 61.7738 113.344 61.8334 113.582 61.8334ZM116.289 63.6996V59.1996H117.033V59.7416H117.083C117.122 59.6635 117.178 59.5795 117.25 59.4896C117.322 59.3998 117.42 59.3226 117.543 59.2582C117.668 59.1918 117.827 59.1586 118.021 59.1586C118.274 59.1586 118.503 59.223 118.706 59.3519C118.909 59.4808 119.07 59.6713 119.189 59.9232C119.311 60.1732 119.371 60.4799 119.371 60.8431C119.371 61.2025 119.312 61.5082 119.195 61.7601C119.078 62.0121 118.917 62.2045 118.712 62.3373C118.509 62.4681 118.277 62.5336 118.018 62.5336C117.832 62.5336 117.677 62.5023 117.552 62.4398C117.427 62.3754 117.327 62.2982 117.253 62.2084C117.179 62.1185 117.122 62.0345 117.083 61.9564H117.051V63.6996H116.289ZM117.812 61.9066C117.982 61.9066 118.125 61.8607 118.24 61.7689C118.355 61.6752 118.442 61.5482 118.501 61.3881C118.56 61.226 118.589 61.0433 118.589 60.8402C118.589 60.6371 118.56 60.4564 118.501 60.2982C118.444 60.1381 118.358 60.0131 118.243 59.9232C118.128 59.8314 117.984 59.7855 117.812 59.7855C117.645 59.7855 117.503 59.8295 117.388 59.9174C117.272 60.0052 117.185 60.1283 117.124 60.2865C117.065 60.4427 117.036 60.6273 117.036 60.8402C117.036 61.0531 117.065 61.2396 117.124 61.3998C117.185 61.5599 117.272 61.6849 117.388 61.7748C117.505 61.8627 117.646 61.9066 117.812 61.9066ZM121.272 62.5424C121.021 62.5424 120.798 62.5062 120.604 62.434C120.411 62.3617 120.252 62.2562 120.127 62.1176C120.004 61.9789 119.924 61.8109 119.887 61.6136L120.599 61.4789C120.644 61.641 120.723 61.7621 120.836 61.8422C120.951 61.9203 121.102 61.9594 121.287 61.9594C121.475 61.9594 121.623 61.9222 121.732 61.848C121.844 61.7719 121.899 61.6781 121.899 61.5668C121.899 61.473 121.863 61.3959 121.791 61.3353C121.719 61.2728 121.607 61.225 121.457 61.1918L120.897 61.0717C120.589 61.0052 120.358 60.8959 120.206 60.7435C120.054 60.5912 119.978 60.3949 119.978 60.1547C119.978 59.9515 120.033 59.7758 120.145 59.6273C120.256 59.4789 120.41 59.3636 120.607 59.2816C120.807 59.1996 121.037 59.1586 121.299 59.1586C121.547 59.1586 121.76 59.1937 121.938 59.264C122.117 59.3344 122.262 59.433 122.371 59.5599C122.482 59.6849 122.56 59.8324 122.603 60.0023L121.923 60.1371C121.886 60.0219 121.818 59.9252 121.721 59.847C121.623 59.767 121.485 59.7269 121.308 59.7269C121.146 59.7269 121.01 59.7631 120.9 59.8353C120.793 59.9056 120.739 59.9965 120.739 60.1078C120.739 60.2035 120.775 60.2826 120.848 60.3451C120.92 60.4076 121.039 60.4564 121.205 60.4916L121.762 60.6088C122.072 60.6752 122.303 60.7816 122.453 60.9281C122.604 61.0746 122.679 61.2631 122.679 61.4935C122.679 61.7006 122.619 61.8832 122.5 62.0414C122.381 62.1976 122.215 62.3207 122.002 62.4105C121.791 62.4984 121.548 62.5424 121.272 62.5424Z" fill="#2563EB"/>
<rect x="96.2656" y="24.475" width="28" height="28" rx="14" fill="#FAFAFA"/>
<rect x="96.2656" y="24.475" width="28" height="28" rx="14" stroke="#2563EB"/>
<path fill-rule="evenodd" clip-rule="evenodd" d="M110.098 31.6062C109.97 31.606 109.842 31.6548 109.744 31.7526L108.139 33.3571C107.944 33.5524 107.944 33.8689 108.139 34.0642C108.335 34.2595 108.651 34.2595 108.846 34.0642L109.599 33.3117V36.702C109.408 36.8022 109.223 36.9161 109.047 37.0431C108.463 37.4636 107.987 38.0154 107.657 38.6538C107.325 38.6121 106.988 38.6201 106.658 38.6781C106.381 38.7266 106.113 38.8092 105.859 38.9237C105.853 38.917 105.847 38.9103 105.84 38.9038L102.964 36.0276H104.04C104.316 36.0276 104.54 35.8038 104.54 35.5276C104.54 35.2515 104.316 35.0276 104.04 35.0276H101.773C101.641 35.0276 101.514 35.0803 101.42 35.1741C101.412 35.1823 101.404 35.1908 101.396 35.1996C101.288 35.3182 101.247 35.4763 101.273 35.6247L101.273 37.7945C101.273 38.0707 101.497 38.2945 101.773 38.2945C102.05 38.2945 102.273 38.0707 102.273 37.7945L102.273 36.7514L105.002 39.48C104.758 39.6981 104.546 39.9514 104.374 40.2321C104.125 40.6382 103.966 41.0926 103.906 41.565C103.847 42.0375 103.888 42.5173 104.028 42.9725C104.168 43.4277 104.403 43.8479 104.718 44.2052C105.033 44.5626 105.42 44.8489 105.854 45.0452C106.288 45.2415 106.758 45.3432 107.235 45.3437H107.235H111.491C112.696 45.3437 113.99 45.0235 114.903 44.0748C115.069 43.902 115.234 43.7152 115.387 43.5177L115.387 43.5178L115.393 43.5107C115.828 42.9298 116.12 42.2537 116.243 41.538C116.366 40.8224 116.317 40.0877 116.101 39.3946C116.013 39.114 115.899 38.8434 115.76 38.5864L118.248 36.0989L118.248 37.133C118.248 37.4091 118.472 37.633 118.748 37.633C119.024 37.633 119.248 37.4091 119.248 37.133L119.248 35.0046C119.293 34.8377 119.249 34.6521 119.118 34.5211C119.076 34.4792 119.029 34.4462 118.978 34.4223C118.908 34.3857 118.829 34.3661 118.748 34.3661H116.481C116.205 34.3661 115.981 34.59 115.981 34.8661C115.981 35.1422 116.205 35.3661 116.481 35.3661H117.566L115.182 37.7507C115.122 37.6826 115.061 37.6162 114.998 37.5515C114.489 37.0331 113.865 36.6431 113.176 36.4135C112.487 36.1838 111.753 36.1211 111.035 36.2306C110.888 36.2531 110.742 36.2826 110.599 36.3191V33.3149L111.348 34.0642C111.543 34.2595 111.86 34.2595 112.055 34.0642C112.251 33.8689 112.251 33.5524 112.055 33.3571L110.475 31.777C110.384 31.6723 110.249 31.6062 110.099 31.6062L110.098 31.6062ZM112.859 37.3621C112.321 37.1826 111.747 37.1336 111.186 37.2192C110.625 37.3048 110.092 37.5225 109.631 37.8544C109.171 38.1863 108.796 38.6229 108.537 39.1282C108.278 39.6336 108.143 40.1931 108.143 40.7608C108.143 41.037 107.919 41.2608 107.643 41.2608C107.367 41.2607 107.143 41.0369 107.143 40.7607C107.143 40.3774 107.192 39.9969 107.286 39.6281C107.134 39.625 106.981 39.6366 106.83 39.6631C106.501 39.7208 106.188 39.848 105.911 40.0362C105.635 40.2243 105.401 40.4691 105.227 40.7543C105.052 41.0395 104.94 41.3585 104.898 41.6903C104.856 42.0221 104.886 42.359 104.984 42.6786C105.082 42.9982 105.247 43.2933 105.468 43.5443C105.689 43.7952 105.961 43.9963 106.266 44.1341C106.571 44.2719 106.901 44.3434 107.236 44.3437H111.491C112.545 44.3437 113.528 44.0617 114.182 43.3815C114.327 43.2306 114.467 43.0715 114.595 42.9073C114.934 42.4539 115.161 41.9266 115.257 41.3685C115.354 40.809 115.315 40.2347 115.146 39.6928C114.977 39.1509 114.681 38.657 114.284 38.2518C113.886 37.8466 113.398 37.5417 112.859 37.3621Z" fill="#2563EB"/>
<rect width="10" height="8" transform="translate(105.266 20.475)" fill="#FAFAFA"/>
<path d="M108.376 25.3998V24.6586C108.47 24.5062 108.562 24.3636 108.651 24.2308C108.743 24.0961 108.84 23.9633 108.941 23.8324C109.045 23.7015 109.16 23.5629 109.287 23.4164L110.433 22.1097H111.405L109.554 24.1986L109.495 24.1781L108.376 25.3998ZM107.811 26.475V22.1097H108.593V23.4047L108.578 24.4564L108.593 24.8402V26.475H107.811ZM110.512 26.475L109.123 24.4213L109.615 23.8324L111.435 26.475H110.512ZM112.756 22.1097V26.475H111.994V22.1097H112.756Z" fill="#2563EB"/>
<path d="M132.847 62.475H131.742V61.7982H132.809C133.113 61.7982 133.367 61.7426 133.57 61.6312C133.775 61.5179 133.93 61.35 134.033 61.1273C134.137 60.9027 134.188 60.6224 134.188 60.2865C134.188 59.9545 134.137 59.6771 134.033 59.4545C133.93 59.2318 133.777 59.0648 133.576 58.9535C133.377 58.8422 133.128 58.7865 132.829 58.7865H131.719V58.1097H132.876C133.31 58.1097 133.682 58.1967 133.992 58.3705C134.303 58.5443 134.541 58.7943 134.707 59.1205C134.875 59.4467 134.959 59.8353 134.959 60.2865C134.959 60.7416 134.875 61.1332 134.707 61.4613C134.541 61.7875 134.3 62.0385 133.983 62.2142C133.669 62.3881 133.29 62.475 132.847 62.475ZM132.152 58.1097V62.475H131.37V58.1097H132.152ZM135.671 62.475V59.1996H136.433V62.475H135.671ZM136.052 58.7367C135.931 58.7367 135.826 58.6957 135.738 58.6136C135.652 58.5316 135.609 58.434 135.609 58.3207C135.609 58.2035 135.652 58.1049 135.738 58.0248C135.826 57.9427 135.931 57.9017 136.052 57.9017C136.175 57.9017 136.279 57.9427 136.365 58.0248C136.453 58.1049 136.497 58.2035 136.497 58.3207C136.497 58.434 136.453 58.5316 136.365 58.6136C136.279 58.6957 136.175 58.7367 136.052 58.7367ZM138.48 62.5424C138.229 62.5424 138.006 62.5062 137.812 62.434C137.619 62.3617 137.46 62.2562 137.335 62.1176C137.212 61.9789 137.132 61.8109 137.095 61.6136L137.807 61.4789C137.852 61.641 137.931 61.7621 138.044 61.8422C138.159 61.9203 138.31 61.9594 138.495 61.9594C138.683 61.9594 138.831 61.9222 138.94 61.848C139.052 61.7719 139.107 61.6781 139.107 61.5668C139.107 61.473 139.071 61.3959 138.999 61.3353C138.927 61.2728 138.815 61.225 138.665 61.1918L138.105 61.0717C137.797 61.0052 137.566 60.8959 137.414 60.7435C137.262 60.5912 137.186 60.3949 137.186 60.1547C137.186 59.9515 137.241 59.7758 137.353 59.6273C137.464 59.4789 137.618 59.3636 137.815 59.2816C138.015 59.1996 138.245 59.1586 138.507 59.1586C138.755 59.1586 138.968 59.1937 139.146 59.264C139.325 59.3344 139.47 59.433 139.579 59.5599C139.69 59.6849 139.768 59.8324 139.811 60.0023L139.131 60.1371C139.094 60.0219 139.026 59.9252 138.929 59.847C138.831 59.767 138.693 59.7269 138.516 59.7269C138.354 59.7269 138.218 59.7631 138.108 59.8353C138.001 59.9056 137.947 59.9965 137.947 60.1078C137.947 60.2035 137.983 60.2826 138.056 60.3451C138.128 60.4076 138.247 60.4564 138.413 60.4916L138.97 60.6088C139.28 60.6752 139.511 60.7816 139.661 60.9281C139.812 61.0746 139.887 61.2631 139.887 61.4935C139.887 61.7006 139.827 61.8832 139.708 62.0414C139.589 62.1976 139.423 62.3207 139.21 62.4105C138.999 62.4984 138.756 62.5424 138.48 62.5424ZM142.055 59.1996V59.7972H140.194V59.1996H142.055ZM140.66 58.4203H141.422V61.5521C141.422 61.6713 141.447 61.7592 141.498 61.8158C141.549 61.8705 141.632 61.8978 141.747 61.8978C141.782 61.8978 141.828 61.8939 141.885 61.8861C141.943 61.8763 141.99 61.8676 142.025 61.8597L142.146 62.4486C142.062 62.474 141.976 62.4916 141.888 62.5013C141.8 62.5131 141.716 62.5189 141.636 62.5189C141.321 62.5189 141.08 62.4408 140.912 62.2845C140.744 62.1283 140.66 61.9056 140.66 61.6166V58.4203ZM142.661 62.475V59.1996H143.399V59.7474H143.435C143.493 59.558 143.596 59.4125 143.742 59.3109C143.889 59.2074 144.056 59.1556 144.243 59.1556C144.286 59.1556 144.334 59.1576 144.387 59.1615C144.439 59.1654 144.484 59.1703 144.521 59.1761V59.8763C144.49 59.8666 144.439 59.8578 144.369 59.85C144.299 59.8422 144.229 59.8383 144.161 59.8383C144.021 59.8383 143.894 59.8685 143.78 59.9291C143.669 59.9896 143.581 60.0736 143.517 60.181C143.454 60.2865 143.423 60.4086 143.423 60.5472V62.475H142.661ZM145.104 62.475V59.1996H145.866V62.475H145.104ZM145.485 58.7367C145.364 58.7367 145.26 58.6957 145.172 58.6136C145.086 58.5316 145.043 58.434 145.043 58.3207C145.043 58.2035 145.086 58.1049 145.172 58.0248C145.26 57.9427 145.364 57.9017 145.485 57.9017C145.608 57.9017 145.713 57.9427 145.799 58.0248C145.887 58.1049 145.931 58.2035 145.931 58.3207C145.931 58.434 145.887 58.5316 145.799 58.6136C145.713 58.6957 145.608 58.7367 145.485 58.7367ZM148.403 62.5336C148.218 62.5336 148.062 62.5023 147.938 62.4398C147.812 62.3754 147.713 62.2982 147.639 62.2084C147.564 62.1185 147.508 62.0345 147.469 61.9564H147.419V62.475H146.675V58.1097H147.437V59.7416H147.469C147.508 59.6635 147.563 59.5795 147.636 59.4896C147.708 59.3998 147.806 59.3226 147.929 59.2582C148.054 59.1918 148.213 59.1586 148.406 59.1586C148.66 59.1586 148.889 59.223 149.092 59.3519C149.295 59.4808 149.456 59.6713 149.575 59.9232C149.696 60.1732 149.757 60.4799 149.757 60.8431C149.757 61.2025 149.698 61.5082 149.581 61.7601C149.464 62.0121 149.303 62.2045 149.098 62.3373C148.895 62.4681 148.663 62.5336 148.403 62.5336ZM148.198 61.9066C148.368 61.9066 148.511 61.8607 148.626 61.7689C148.741 61.6752 148.828 61.5482 148.887 61.3881C148.945 61.226 148.975 61.0433 148.975 60.8402C148.975 60.6371 148.945 60.4564 148.887 60.2982C148.83 60.1381 148.744 60.0131 148.629 59.9232C148.514 59.8314 148.37 59.7855 148.198 59.7855C148.03 59.7855 147.889 59.8295 147.773 59.9174C147.658 60.0052 147.57 60.1283 147.51 60.2865C147.451 60.4427 147.422 60.6273 147.422 60.8402C147.422 61.0531 147.451 61.2396 147.51 61.3998C147.57 61.5599 147.658 61.6849 147.773 61.7748C147.891 61.8627 148.032 61.9066 148.198 61.9066ZM151.541 62.516C151.316 62.516 151.119 62.4681 150.949 62.3724C150.781 62.2767 150.65 62.1371 150.557 61.9535C150.465 61.7679 150.419 61.5443 150.419 61.2826V59.1996H151.181V61.1654C151.181 61.3842 151.237 61.556 151.351 61.681C151.466 61.806 151.623 61.8685 151.822 61.8685C151.957 61.8685 152.077 61.8392 152.183 61.7806C152.288 61.722 152.37 61.6361 152.429 61.5228C152.489 61.4095 152.52 61.2748 152.52 61.1185V59.1996H153.284V62.475H152.561L152.552 61.6664H152.61C152.519 61.9515 152.383 62.1644 152.203 62.3051C152.023 62.4457 151.803 62.516 151.541 62.516ZM155.607 59.1996V59.7972H153.747V59.1996H155.607ZM154.213 58.4203H154.975V61.5521C154.975 61.6713 155 61.7592 155.051 61.8158C155.102 61.8705 155.185 61.8978 155.3 61.8978C155.335 61.8978 155.381 61.8939 155.438 61.8861C155.496 61.8763 155.543 61.8676 155.578 61.8597L155.698 62.4486C155.614 62.474 155.528 62.4916 155.44 62.5013C155.353 62.5131 155.269 62.5189 155.188 62.5189C154.874 62.5189 154.633 62.4408 154.465 62.2845C154.297 62.1283 154.213 61.9056 154.213 61.6166V58.4203ZM156.214 62.475V59.1996H156.976V62.475H156.214ZM156.595 58.7367C156.474 58.7367 156.369 58.6957 156.281 58.6136C156.195 58.5316 156.152 58.434 156.152 58.3207C156.152 58.2035 156.195 58.1049 156.281 58.0248C156.369 57.9427 156.474 57.9017 156.595 57.9017C156.718 57.9017 156.822 57.9427 156.908 58.0248C156.996 58.1049 157.04 58.2035 157.04 58.3207C157.04 58.434 156.996 58.5316 156.908 58.6136C156.822 58.6957 156.718 58.7367 156.595 58.7367ZM159.205 62.5424C158.887 62.5424 158.61 62.472 158.376 62.3314C158.142 62.1888 157.96 61.9916 157.831 61.7396C157.704 61.4857 157.641 61.1908 157.641 60.8549C157.641 60.515 157.704 60.2181 157.831 59.9642C157.96 59.7084 158.142 59.5101 158.376 59.3695C158.61 59.2289 158.887 59.1586 159.205 59.1586C159.525 59.1586 159.803 59.2289 160.037 59.3695C160.271 59.5101 160.452 59.7084 160.579 59.9642C160.708 60.2181 160.772 60.515 160.772 60.8549C160.772 61.1908 160.708 61.4857 160.579 61.7396C160.452 61.9916 160.271 62.1888 160.037 62.3314C159.803 62.472 159.525 62.5424 159.205 62.5424ZM159.205 61.9242C159.383 61.9242 159.53 61.8763 159.647 61.7806C159.767 61.6849 159.854 61.556 159.911 61.3939C159.97 61.2318 159.999 61.0511 159.999 60.8519C159.999 60.6508 159.97 60.4691 159.911 60.307C159.854 60.1449 159.767 60.016 159.647 59.9203C159.53 59.8246 159.383 59.7767 159.205 59.7767C159.027 59.7767 158.88 59.8246 158.763 59.9203C158.647 60.016 158.561 60.1449 158.502 60.307C158.445 60.4672 158.417 60.6488 158.417 60.8519C158.417 61.0511 158.445 61.2318 158.502 61.3939C158.561 61.556 158.647 61.6849 158.763 61.7806C158.88 61.8763 159.027 61.9242 159.205 61.9242ZM162.202 60.556V62.475H161.44V59.1996H162.161L162.173 60.0082H162.111C162.203 59.725 162.338 59.5131 162.516 59.3724C162.693 59.2299 162.916 59.1586 163.184 59.1586C163.408 59.1586 163.604 59.2064 163.772 59.3021C163.94 59.3978 164.07 59.5375 164.162 59.7211C164.256 59.9047 164.303 60.1283 164.303 60.392V62.475H163.541V60.5092C163.541 60.2904 163.484 60.1185 163.371 59.9935C163.258 59.8685 163.102 59.806 162.902 59.806C162.768 59.806 162.647 59.8353 162.542 59.8939C162.437 59.9525 162.354 60.0385 162.293 60.1517C162.232 60.2631 162.202 60.3978 162.202 60.556Z" fill="#2563EB"/>
<rect x="133.82" y="24.475" width="28" height="28" rx="14" fill="#FAFAFA"/>
<rect x="133.82" y="24.475" width="28" height="28" rx="14" stroke="#2563EB"/>
<path d="M146.613 39.6819L140.82 36.3026L149.51 31.475L154.82 34.8543L146.613 39.6819Z" stroke="#2563EB" stroke-linejoin="round"/>
<path d="M146.613 45.4749V39.6818L154.82 34.8542V40.6473L146.613 45.4749Z" stroke="#2563EB" stroke-linejoin="round"/>
<path d="M140.82 42.0955V36.3024L146.613 39.6817V45.4748L140.82 42.0955Z" stroke="#2563EB" stroke-linejoin="round"/>
<path d="M149.508 38.2699L149.508 43.5439" stroke="#2563EB" stroke-linecap="round" stroke-linejoin="round"/>
<path d="M152.41 36.521L152.41 41.8867" stroke="#2563EB" stroke-linecap="round" stroke-linejoin="round"/>
<rect width="10" height="8" transform="translate(142.82 20.475)" fill="#FAFAFA"/>
<path d="M145.931 25.3998V24.6586C146.024 24.5062 146.116 24.3636 146.206 24.2308C146.298 24.0961 146.395 23.9633 146.496 23.8324C146.6 23.7015 146.715 23.5629 146.842 23.4164L147.987 22.1097H148.96L147.108 24.1986L147.05 24.1781L145.931 25.3998ZM145.365 26.475V22.1097H146.147V23.4047L146.133 24.4564L146.147 24.8402V26.475H145.365ZM148.066 26.475L146.678 24.4213L147.17 23.8324L148.989 26.475H148.066ZM150.311 22.1097V26.475H149.549V22.1097H150.311Z" fill="#2563EB"/>
<rect width="12.1534" height="7.48903" transform="translate(104.188 75.3328)" fill="#FAFAFA"/>
<path d="M109.433 79.9876C109.13 80.4705 108.592 80.7916 107.98 80.7916C107.033 80.7916 106.266 80.0241 106.266 79.0773C106.266 78.1305 107.033 77.363 107.98 77.363C108.328 77.363 108.788 77.5391 108.999 77.726C109.203 77.9057 111.212 80.1346 111.364 80.3033C111.37 80.3107 111.376 80.3169 111.383 80.3239L111.461 80.4003C111.757 80.6448 112.137 80.7916 112.551 80.7916C113.498 80.7916 114.266 80.0241 114.266 79.0773C114.266 78.1305 113.498 77.363 112.551 77.363C112.014 77.363 111.534 77.6107 111.219 77.9982" stroke="#2563EB" stroke-width="0.5" stroke-linecap="round"/>
<path d="M193.472 40.8168H169.336" stroke="#D97706" stroke-dasharray="2 2"/>
<path d="M169.336 35.6429H170.51C176.824 35.6429 182.464 31.6949 184.626 25.7623L186.429 20.8112C187.508 17.8514 190.322 15.8817 193.472 15.8817V15.8817" stroke="#D97706" stroke-dasharray="2 2"/>
<path d="M169.336 45.9908H170.51C176.824 45.9908 182.464 49.9388 184.626 55.8714L186.429 60.8224C187.508 63.7822 190.322 65.752 193.472 65.752V65.752" stroke="#D97706" stroke-dasharray="2 2"/>
<rect x="193.094" y="6.94495" width="20.2204" height="20.2204" rx="4" fill="#EEEEF0"/>
<path fill-rule="evenodd" clip-rule="evenodd" d="M200.585 16.0735C200.585 16.2211 200.601 16.3409 200.629 16.4287C200.661 16.5165 200.701 16.6123 200.757 16.716C200.776 16.7479 200.784 16.7799 200.784 16.8078C200.784 16.8477 200.76 16.8876 200.709 16.9275L200.457 17.0952C200.421 17.1191 200.385 17.1311 200.353 17.1311C200.313 17.1311 200.274 17.1111 200.234 17.0752C200.178 17.0154 200.13 16.9515 200.09 16.8876C200.05 16.8198 200.01 16.744 199.966 16.6522C199.655 17.0193 199.264 17.2029 198.793 17.2029C198.458 17.2029 198.19 17.1071 197.995 16.9156C197.799 16.724 197.699 16.4686 197.699 16.1493C197.699 15.81 197.819 15.5347 198.063 15.3271C198.306 15.1196 198.629 15.0158 199.04 15.0158C199.176 15.0158 199.316 15.0278 199.463 15.0478C199.611 15.0677 199.763 15.0996 199.922 15.1356V14.8442C199.922 14.5409 199.859 14.3294 199.735 14.2056C199.607 14.0819 199.392 14.022 199.084 14.022C198.945 14.022 198.801 14.038 198.653 14.0739C198.506 14.1098 198.362 14.1537 198.222 14.2096C198.158 14.2376 198.11 14.2535 198.082 14.2615C198.055 14.2695 198.035 14.2735 198.019 14.2735C197.963 14.2735 197.935 14.2336 197.935 14.1498V13.9542C197.935 13.8903 197.943 13.8424 197.963 13.8145C197.983 13.7866 198.019 13.7586 198.075 13.7307C198.214 13.6589 198.382 13.599 198.577 13.5511C198.773 13.4992 198.98 13.4753 199.2 13.4753C199.675 13.4753 200.022 13.583 200.246 13.7985C200.465 14.0141 200.577 14.3413 200.577 14.7803V16.0735H200.585ZM198.965 16.6801C199.096 16.6801 199.232 16.6562 199.376 16.6083C199.519 16.5604 199.647 16.4726 199.755 16.3528C199.819 16.277 199.866 16.1932 199.89 16.0974C199.914 16.0016 199.93 15.8859 199.93 15.7502V15.5826C199.815 15.5546 199.691 15.5307 199.563 15.5147C199.435 15.4987 199.312 15.4908 199.188 15.4908C198.921 15.4908 198.725 15.5426 198.593 15.6504C198.462 15.7582 198.398 15.9098 198.398 16.1094C198.398 16.297 198.446 16.4366 198.545 16.5324C198.641 16.6322 198.781 16.6801 198.965 16.6801ZM202.169 17.1111C202.098 17.1111 202.05 17.0992 202.018 17.0712C201.986 17.0473 201.958 16.9914 201.934 16.9156L200.996 13.8305C200.972 13.7507 200.96 13.6988 200.96 13.6708C200.96 13.607 200.992 13.5711 201.056 13.5711H201.447C201.523 13.5711 201.575 13.583 201.603 13.611C201.635 13.6349 201.658 13.6908 201.682 13.7666L202.353 16.4087L202.976 13.7666C202.995 13.6868 203.019 13.6349 203.051 13.611C203.083 13.587 203.139 13.5711 203.211 13.5711H203.53C203.606 13.5711 203.658 13.583 203.69 13.611C203.722 13.6349 203.75 13.6908 203.766 13.7666L204.396 16.4406L205.087 13.7666C205.111 13.6868 205.139 13.6349 205.167 13.611C205.199 13.587 205.25 13.5711 205.322 13.5711H205.693C205.757 13.5711 205.793 13.603 205.793 13.6708C205.793 13.6879 205.79 13.7049 205.787 13.7244L205.787 13.7244L205.785 13.7347C205.781 13.7586 205.773 13.7906 205.757 13.8345L204.795 16.9196C204.772 16.9994 204.744 17.0513 204.712 17.0752C204.68 17.0992 204.628 17.1151 204.56 17.1151H204.217C204.141 17.1151 204.089 17.1032 204.057 17.0752C204.025 17.0473 203.997 16.9954 203.981 16.9156L203.363 14.3413L202.748 16.9116C202.728 16.9914 202.704 17.0433 202.672 17.0712C202.64 17.0992 202.584 17.1111 202.513 17.1111H202.169ZM207.298 17.2189C207.09 17.2189 206.883 17.1949 206.683 17.1471C206.484 17.0992 206.328 17.0473 206.224 16.9874C206.16 16.9515 206.117 16.9116 206.101 16.8757C206.085 16.8397 206.077 16.7998 206.077 16.7639V16.5604C206.077 16.4766 206.109 16.4366 206.168 16.4366C206.192 16.4366 206.216 16.4406 206.24 16.4486C206.256 16.4538 206.276 16.4622 206.299 16.4719L206.299 16.4719C206.312 16.4772 206.326 16.4829 206.34 16.4885C206.476 16.5484 206.623 16.5963 206.779 16.6282C206.939 16.6601 207.094 16.6761 207.254 16.6761C207.505 16.6761 207.701 16.6322 207.837 16.5444C207.972 16.4566 208.044 16.3289 208.044 16.1653C208.044 16.0535 208.008 15.9617 207.936 15.8859C207.865 15.81 207.729 15.7422 207.533 15.6783L206.955 15.4987C206.663 15.4069 206.448 15.2713 206.316 15.0917C206.184 14.916 206.117 14.7205 206.117 14.5129C206.117 14.3453 206.152 14.1977 206.224 14.0699C206.296 13.9422 206.392 13.8305 206.512 13.7427C206.631 13.6509 206.767 13.583 206.927 13.5351C207.086 13.4872 207.254 13.4673 207.43 13.4673C207.517 13.4673 207.609 13.4713 207.697 13.4832C207.789 13.4952 207.873 13.5112 207.956 13.5271L207.956 13.5272C208.036 13.5471 208.112 13.5671 208.184 13.591C208.256 13.615 208.312 13.6389 208.352 13.6628C208.407 13.6948 208.447 13.7267 208.471 13.7626C208.495 13.7946 208.507 13.8385 208.507 13.8943V14.0819C208.507 14.1657 208.475 14.2096 208.415 14.2096C208.383 14.2096 208.332 14.1937 208.264 14.1617C208.036 14.058 207.781 14.0061 207.497 14.0061C207.27 14.0061 207.09 14.042 206.967 14.1178C206.843 14.1937 206.779 14.3094 206.779 14.473C206.779 14.5848 206.819 14.6806 206.899 14.7564C206.979 14.8322 207.126 14.9081 207.338 14.9759L207.905 15.1555C208.192 15.2473 208.399 15.375 208.523 15.5387C208.647 15.7023 208.707 15.8899 208.707 16.0974C208.707 16.269 208.671 16.4247 208.603 16.5604C208.531 16.6961 208.435 16.8158 208.312 16.9116C208.188 17.0114 208.04 17.0832 207.869 17.1351C207.689 17.191 207.501 17.2189 207.298 17.2189ZM208.052 19.1585C206.739 20.1283 204.831 20.6432 203.191 20.6432C200.892 20.6432 198.821 19.7931 197.256 18.3802C197.133 18.2685 197.244 18.1168 197.392 18.2046C199.084 19.1864 201.172 19.7811 203.331 19.7811C204.787 19.7811 206.388 19.4778 207.861 18.8552C208.08 18.7554 208.268 18.9989 208.052 19.1585ZM207.062 18.484C207.489 18.4321 208.431 18.3204 208.599 18.5359C208.767 18.7474 208.411 19.6374 208.252 20.0326C208.204 20.1523 208.308 20.2002 208.415 20.1084C209.118 19.5177 209.301 18.2845 209.158 18.1049C209.014 17.9293 207.781 17.7776 207.03 18.3044C206.915 18.3882 206.935 18.5 207.062 18.484Z" fill="#2563EB"/>
<rect x="193.461" y="30.8834" width="20.2204" height="20.2204" rx="4" fill="#EEEEF0"/>
<path fill-rule="evenodd" clip-rule="evenodd" d="M203.57 46.9937C206.884 46.9937 209.57 44.3074 209.57 40.9937C209.57 37.6799 206.884 34.9937 203.57 34.9937C200.258 34.9937 197.572 37.6783 197.57 40.9907H199.853C199.855 38.9392 201.518 37.2766 203.57 37.2766C205.623 37.2766 207.287 38.9408 207.287 40.9937C207.287 43.0465 205.623 44.7107 203.57 44.7107L203.563 44.7107V46.9936L203.57 46.9937ZM203.563 42.3457H201.243V44.6659H203.563V42.3457ZM201.243 44.6734H199.46V43.1825H197.969V44.6734H199.46V46.4564H201.243V44.6734Z" fill="#2563EB"/>
<rect x="193.461" y="55.8186" width="20.2204" height="20.2204" rx="4" fill="#EEEEF0"/>
<g clip-path="url(#clip0_4975_63084)">
<path fill-rule="evenodd" clip-rule="evenodd" d="M204.004 60.2376C203.729 60.1055 203.41 60.1055 203.136 60.2376L199.167 62.1487C198.893 62.2808 198.694 62.5305 198.626 62.8272L197.646 67.1215C197.578 67.4182 197.65 67.7296 197.839 67.9675L200.586 71.4113C200.775 71.6492 201.063 71.7878 201.367 71.7878H205.772C206.076 71.7878 206.364 71.6492 206.554 71.4113L209.3 67.9675C209.49 67.7296 209.561 67.4182 209.493 67.1215L208.513 62.8272C208.446 62.5305 208.246 62.2808 207.972 62.1487L204.004 60.2376ZM203.391 62.0774C203.437 62.0264 203.501 61.9956 203.57 61.9918L203.57 61.9902C203.639 61.994 203.703 62.0247 203.749 62.0758C203.795 62.1268 203.819 62.1939 203.815 62.2625V62.3322C203.809 62.4105 203.797 62.4883 203.782 62.5653C203.758 62.7124 203.749 62.8614 203.754 63.0103C203.763 63.06 203.792 63.104 203.834 63.1329C203.834 63.1366 203.835 63.1422 203.835 63.149C203.837 63.1742 203.84 63.2161 203.84 63.2418C204.615 63.3122 205.339 63.6617 205.876 64.2254L205.969 64.159C206.019 64.1675 206.071 64.1619 206.118 64.1427C206.237 64.0539 206.348 63.9538 206.448 63.8436C206.499 63.7833 206.554 63.7261 206.612 63.6721C206.627 63.659 206.649 63.6416 206.666 63.6285C206.69 63.6028 206.72 63.5825 206.752 63.5691C206.785 63.5558 206.82 63.5496 206.856 63.551C206.891 63.5524 206.926 63.5613 206.957 63.5772C206.989 63.5931 207.016 63.6156 207.038 63.6432C207.061 63.6708 207.076 63.7028 207.085 63.737C207.094 63.7712 207.095 63.8069 207.089 63.8417C207.082 63.8764 207.069 63.9094 207.048 63.9384C207.028 63.9674 207.002 63.9917 206.972 64.0098C206.967 64.0137 206.962 64.018 206.956 64.0225C206.943 64.0335 206.928 64.0452 206.917 64.0533C206.852 64.0968 206.784 64.1364 206.714 64.1721C206.584 64.2455 206.462 64.3314 206.349 64.4286C206.316 64.4671 206.299 64.5169 206.302 64.5675L206.215 64.6454C206.65 65.2938 206.832 66.0793 206.726 66.8529L206.825 66.8817C206.849 66.9272 206.886 66.965 206.931 66.9907C207.075 67.0291 207.222 67.0533 207.37 67.0631C207.449 67.065 207.528 67.0713 207.606 67.0822C207.619 67.0846 207.636 67.0889 207.652 67.0929C207.661 67.0951 207.669 67.0973 207.677 67.0991C207.711 67.1037 207.743 67.1153 207.772 67.1332C207.802 67.151 207.827 67.1748 207.846 67.2029C207.866 67.2309 207.879 67.2628 207.885 67.2963C207.892 67.3298 207.891 67.3644 207.884 67.3977C207.876 67.431 207.862 67.4623 207.841 67.4897C207.821 67.5172 207.795 67.5401 207.765 67.557C207.736 67.5738 207.703 67.5844 207.669 67.5879C207.635 67.5914 207.601 67.5878 207.568 67.5773H207.559C207.553 67.5758 207.545 67.5744 207.538 67.5729C207.523 67.57 207.508 67.5669 207.496 67.5637C207.422 67.5395 207.349 67.5111 207.278 67.4787C207.14 67.423 206.997 67.3808 206.851 67.3529C206.8 67.3512 206.751 67.3694 206.714 67.4035C206.696 67.3997 206.641 67.3899 206.609 67.385C206.371 68.1317 205.867 68.7648 205.193 69.1639C205.204 69.1977 205.218 69.2309 205.234 69.263C205.209 69.3069 205.202 69.359 205.215 69.4079C205.274 69.5445 205.347 69.6749 205.432 69.7973C205.48 69.8599 205.524 69.9252 205.564 69.9928C205.573 70.0081 205.583 70.0308 205.592 70.0493C205.594 70.0526 205.595 70.0558 205.596 70.0587C205.614 70.0882 205.625 70.121 205.629 70.1549C205.633 70.1888 205.629 70.2232 205.619 70.2559C205.609 70.2885 205.592 70.3187 205.57 70.3445C205.548 70.3703 205.52 70.3912 205.489 70.4058C205.458 70.4204 205.425 70.4285 205.391 70.4294C205.357 70.4303 205.323 70.4241 205.291 70.4112C205.259 70.3983 205.231 70.3789 205.207 70.3543C205.183 70.3297 205.165 70.3005 205.153 70.2684C205.15 70.262 205.146 70.2548 205.143 70.2474C205.136 70.2329 205.128 70.2177 205.123 70.2058C205.094 70.1323 205.071 70.0571 205.051 69.9809C205.009 69.8383 204.952 69.7002 204.883 69.5686C204.853 69.5277 204.808 69.5003 204.758 69.4923C204.75 69.4826 204.733 69.4509 204.718 69.4238C204.712 69.4142 204.707 69.4053 204.703 69.3981C203.974 69.6743 203.168 69.6721 202.44 69.3921L202.385 69.4928C202.345 69.5002 202.309 69.5196 202.28 69.5484C202.196 69.6856 202.132 69.834 202.09 69.989C202.071 70.0653 202.047 70.1404 202.019 70.214C202.014 70.2263 202.006 70.2416 201.999 70.256C201.995 70.2632 201.992 70.2703 201.989 70.2766C201.977 70.3088 201.959 70.3382 201.935 70.363C201.911 70.3877 201.882 70.4072 201.851 70.4202C201.819 70.4332 201.785 70.4395 201.751 70.4385C201.716 70.4376 201.683 70.4295 201.652 70.4148C201.621 70.4001 201.593 70.3791 201.571 70.3531C201.548 70.3272 201.532 70.2968 201.522 70.264C201.512 70.2312 201.509 70.1967 201.513 70.1626C201.517 70.1286 201.528 70.0958 201.546 70.0664C201.549 70.0595 201.553 70.0514 201.557 70.043C201.564 70.0281 201.571 70.0123 201.577 70.0005C201.618 69.9326 201.662 69.8672 201.709 69.8044C201.796 69.6787 201.87 69.545 201.931 69.4052C201.938 69.3577 201.93 69.3094 201.91 69.2663L201.954 69.1573C201.282 68.7613 200.779 68.133 200.538 67.391L200.429 67.4095C200.388 67.3802 200.339 67.363 200.288 67.36C200.142 67.3879 199.999 67.43 199.861 67.4858C199.79 67.518 199.717 67.5462 199.643 67.5702C199.63 67.5738 199.612 67.5775 199.596 67.5809C199.59 67.5821 199.585 67.5832 199.58 67.5844H199.571C199.538 67.5948 199.504 67.5985 199.47 67.595C199.436 67.5915 199.403 67.5809 199.374 67.564C199.344 67.5471 199.318 67.5243 199.298 67.4968C199.277 67.4694 199.263 67.438 199.255 67.4047C199.248 67.3714 199.247 67.3369 199.254 67.3034C199.26 67.2698 199.273 67.238 199.293 67.2099C199.312 67.1819 199.337 67.1581 199.366 67.1403C199.396 67.1224 199.428 67.1108 199.462 67.1061H199.466L199.469 67.1053C199.489 67.1005 199.514 67.0945 199.531 67.0909C199.609 67.08 199.688 67.0737 199.766 67.0718C199.915 67.062 200.062 67.0378 200.206 66.9994C200.249 66.9714 200.285 66.9342 200.311 66.8905L200.414 66.8605C200.303 66.0864 200.481 65.2983 200.915 64.6476L200.836 64.5773C200.833 64.5264 200.816 64.4774 200.787 64.4357C200.674 64.3385 200.552 64.2526 200.422 64.1791C200.352 64.1435 200.284 64.1039 200.219 64.0604C200.21 64.0535 200.198 64.0441 200.187 64.0349C200.181 64.0296 200.174 64.0243 200.168 64.0196H200.165C200.109 63.9795 200.071 63.919 200.06 63.8512C200.048 63.7834 200.064 63.7139 200.104 63.6579C200.128 63.6291 200.158 63.6063 200.191 63.5912C200.225 63.5762 200.263 63.5694 200.3 63.5713C200.362 63.5739 200.422 63.5964 200.471 63.6356C200.473 63.6372 200.475 63.6388 200.477 63.6405C200.493 63.6528 200.512 63.6677 200.525 63.6791C200.583 63.7331 200.637 63.7904 200.688 63.8507C200.789 63.9609 200.899 64.061 201.019 64.1497C201.064 64.1734 201.116 64.1785 201.165 64.1639C201.173 64.1685 201.192 64.1821 201.211 64.1963C201.226 64.2072 201.242 64.2185 201.254 64.2265C201.685 63.7684 202.243 63.4495 202.857 63.311C203.003 63.2779 203.151 63.2551 203.3 63.2429L203.306 63.1388C203.344 63.105 203.372 63.0609 203.386 63.0119C203.391 62.8631 203.382 62.714 203.358 62.567C203.343 62.49 203.331 62.4121 203.325 62.3338V62.2712V62.2641C203.321 62.1956 203.345 62.1284 203.391 62.0774ZM203.19 65.1808L203.263 63.8943C203.175 63.9049 203.089 63.92 203.003 63.9395C202.543 64.0427 202.122 64.2723 201.786 64.6023L202.841 65.3442C202.873 65.3665 202.91 65.38 202.948 65.3833C202.987 65.3866 203.025 65.3796 203.06 65.363C203.095 65.3463 203.125 65.3207 203.147 65.2887C203.169 65.2566 203.182 65.2194 203.184 65.1808H203.19ZM205.348 64.6023C204.949 64.2115 204.432 63.9627 203.877 63.8943L203.952 65.1824C203.955 65.2211 203.967 65.2585 203.989 65.2906C204.011 65.3227 204.041 65.3484 204.076 65.365C204.111 65.3817 204.15 65.3887 204.188 65.3853C204.227 65.3819 204.264 65.3683 204.296 65.3458H204.3L205.348 64.6023ZM202.365 65.9444L201.401 65.0827V65.0833C201.108 65.5618 200.983 66.1242 201.045 66.6819L202.28 66.3256V66.3213C202.317 66.3105 202.351 66.2899 202.378 66.2616C202.405 66.2334 202.423 66.1985 202.432 66.1606C202.441 66.1227 202.439 66.0831 202.427 66.0461C202.415 66.009 202.394 65.9758 202.365 65.9498V65.9444ZM206.1 66.677C206.154 66.1195 206.024 65.5598 205.731 65.0827L205.733 65.0876L204.775 65.9449C204.746 65.9709 204.724 66.0041 204.712 66.0412C204.701 66.0782 204.699 66.1178 204.708 66.1557C204.716 66.1936 204.735 66.2285 204.762 66.2567C204.788 66.285 204.822 66.3056 204.86 66.3164V66.3218L206.1 66.677ZM203.767 66.0087H203.372L203.126 66.3148L203.214 66.696L203.569 66.867L203.924 66.6966L204.012 66.3153L203.767 66.0087ZM204.687 67.062C204.671 67.0589 204.654 67.0576 204.637 67.0582V67.062C204.603 67.0641 204.569 67.0745 204.539 67.0923C204.509 67.1101 204.484 67.1348 204.465 67.1643C204.447 67.1939 204.436 67.2274 204.433 67.2621C204.43 67.2968 204.436 67.3317 204.449 67.3638L204.945 68.562C205.417 68.2595 205.776 67.8085 205.964 67.2799L204.687 67.062ZM202.593 67.0914C202.562 67.0741 202.527 67.0646 202.492 67.0637L202.49 67.0609C202.476 67.0608 202.462 67.0621 202.448 67.0648L201.181 67.2799C201.372 67.8057 201.73 68.2541 202.201 68.5555L202.691 67.3698L202.687 67.3649C202.701 67.3322 202.706 67.2968 202.703 67.2616C202.7 67.2264 202.688 67.1925 202.669 67.1628C202.65 67.1332 202.623 67.1087 202.593 67.0914ZM203.677 67.6121C203.642 67.592 203.602 67.582 203.562 67.5833V67.5854C203.524 67.5869 203.487 67.5982 203.455 67.6183C203.422 67.6383 203.396 67.6664 203.378 67.6998L202.755 68.8256C203.201 68.9774 203.68 69.0021 204.139 68.897C204.224 68.8779 204.307 68.8547 204.389 68.8273L203.765 67.6971H203.76C203.741 67.6616 203.712 67.6322 203.677 67.6121Z" fill="#2563EB"/>
</g>
<rect x="0.320312" y="4.57434" width="27.5028" height="29" rx="4" fill="#EEEEF0"/>
<path fill-rule="evenodd" clip-rule="evenodd" d="M11.7466 11.5392C11.7466 10.2813 12.7664 9.2616 14.0242 9.2616C15.2821 9.2616 16.3018 10.2813 16.3018 11.5392C16.3018 12.7971 15.2821 13.8168 14.0242 13.8168C12.7664 13.8168 11.7466 12.7971 11.7466 11.5392ZM14.0242 8.7616C12.4902 8.7616 11.2466 10.0052 11.2466 11.5392C11.2466 12.6318 11.8775 13.577 12.7948 14.0306C12.0125 14.3125 11.3552 14.8558 10.9282 15.5547H7.49609C7.35802 15.5547 7.24609 15.6666 7.24609 15.8047V22.1371C7.24609 22.2752 7.35802 22.3871 7.49609 22.3871H20.6352C20.7733 22.3871 20.8852 22.2752 20.8852 22.1371V15.8047C20.8852 15.6666 20.7733 15.5547 20.6352 15.5547H17.12C16.693 14.8559 16.0358 14.3126 15.2535 14.0306C16.1709 13.5771 16.8018 12.6318 16.8018 11.5392C16.8018 10.0052 15.5582 8.7616 14.0242 8.7616ZM16.5155 15.5547H11.5327C12.1038 14.8022 13.0074 14.3168 14.0241 14.3168C15.0408 14.3168 15.9444 14.8022 16.5155 15.5547ZM7.74609 16.0547V21.8871H20.3852V16.0547H7.74609ZM14.9016 17.4167C14.9488 17.287 14.8819 17.1435 14.7521 17.0964C14.6223 17.0492 14.4789 17.1161 14.4317 17.2459L13.2393 20.5251C13.1921 20.6549 13.259 20.7983 13.3888 20.8455C13.5185 20.8927 13.662 20.8257 13.7092 20.696L14.9016 17.4167ZM12.742 18.2356C12.8397 18.1379 12.8397 17.9796 12.742 17.882C12.6444 17.7844 12.4861 17.7844 12.3885 17.882L11.4762 18.7943C11.3786 18.8919 11.3786 19.0502 11.4762 19.1478L12.3885 20.0601C12.4861 20.1577 12.6444 20.1577 12.742 20.0601C12.8397 19.9624 12.8397 19.8041 12.742 19.7065L12.0066 18.971L12.742 18.2356ZM15.3988 17.882C15.4964 17.7844 15.6547 17.7844 15.7523 17.882L16.6646 18.7943C16.7622 18.8919 16.7622 19.0502 16.6646 19.1478L15.7523 20.0601C15.6547 20.1577 15.4964 20.1577 15.3988 20.0601C15.3011 19.9624 15.3011 19.8041 15.3988 19.7065L16.1343 18.971L15.3988 18.2356C15.3011 18.1379 15.3011 17.9796 15.3988 17.882Z" fill="#2563EB"/>
<path d="M4.37429 28.5743H3.38849V25.6652H4.39418C4.683 25.6652 4.93111 25.7235 5.13849 25.84C5.34683 25.9555 5.50687 26.1217 5.61861 26.3385C5.73035 26.5554 5.78622 26.8149 5.78622 27.117C5.78622 27.42 5.72988 27.6804 5.61719 27.8982C5.50545 28.116 5.34399 28.2831 5.13281 28.3996C4.92259 28.5161 4.66974 28.5743 4.37429 28.5743ZM3.91548 28.1184H4.34872C4.55137 28.1184 4.72041 28.0814 4.85582 28.0076C4.99124 27.9328 5.09304 27.8215 5.16122 27.6738C5.2294 27.5251 5.26349 27.3395 5.26349 27.117C5.26349 26.8944 5.2294 26.7098 5.16122 26.563C5.09304 26.4152 4.99219 26.3049 4.85866 26.232C4.72609 26.1581 4.56132 26.1212 4.36435 26.1212H3.91548V28.1184ZM7.23011 28.617C7.01136 28.617 6.82244 28.5715 6.66335 28.4806C6.50521 28.3887 6.38352 28.259 6.2983 28.0914C6.21307 27.9228 6.17045 27.7244 6.17045 27.4962C6.17045 27.2718 6.21307 27.0748 6.2983 26.9053C6.38447 26.7349 6.50473 26.6023 6.65909 26.5076C6.81345 26.4119 6.99479 26.3641 7.20312 26.3641C7.33759 26.3641 7.46449 26.3859 7.58381 26.4295C7.70407 26.4721 7.81013 26.5384 7.90199 26.6283C7.99479 26.7183 8.06771 26.8329 8.12074 26.9721C8.17377 27.1103 8.20028 27.2751 8.20028 27.4664V27.6241H6.41193V27.2775H7.70739C7.70644 27.179 7.68513 27.0914 7.64347 27.0147C7.6018 26.937 7.54356 26.876 7.46875 26.8314C7.39489 26.7869 7.30871 26.7647 7.21023 26.7647C7.10511 26.7647 7.01278 26.7902 6.93324 26.8414C6.85369 26.8916 6.79167 26.9579 6.74716 27.0402C6.7036 27.1217 6.68134 27.2112 6.6804 27.3087V27.6113C6.6804 27.7382 6.7036 27.8471 6.75 27.938C6.7964 28.0279 6.86127 28.0971 6.9446 28.1454C7.02794 28.1927 7.12547 28.2164 7.23722 28.2164C7.31203 28.2164 7.37973 28.206 7.44034 28.1851C7.50095 28.1634 7.5535 28.1316 7.59801 28.09C7.64252 28.0483 7.67614 27.9967 7.69886 27.9351L8.17898 27.9891C8.14867 28.116 8.09091 28.2268 8.00568 28.3215C7.9214 28.4152 7.81345 28.4882 7.68182 28.5402C7.55019 28.5914 7.39962 28.617 7.23011 28.617ZM10.5217 26.3925L9.74467 28.5743H9.17649L8.3995 26.3925H8.9478L9.44922 28.0133H9.47195L9.97479 26.3925H10.5217ZM11.7692 28.617C11.5504 28.617 11.3615 28.5715 11.2024 28.4806C11.0443 28.3887 10.9226 28.259 10.8374 28.0914C10.7521 27.9228 10.7095 27.7244 10.7095 27.4962C10.7095 27.2718 10.7521 27.0748 10.8374 26.9053C10.9235 26.7349 11.0438 26.6023 11.1982 26.5076C11.3525 26.4119 11.5339 26.3641 11.7422 26.3641C11.8767 26.3641 12.0036 26.3859 12.1229 26.4295C12.2431 26.4721 12.3492 26.5384 12.4411 26.6283C12.5339 26.7183 12.6068 26.8329 12.6598 26.9721C12.7128 27.1103 12.7393 27.2751 12.7393 27.4664V27.6241H10.951V27.2775H12.2464C12.2455 27.179 12.2242 27.0914 12.1825 27.0147C12.1409 26.937 12.0826 26.876 12.0078 26.8314C11.9339 26.7869 11.8478 26.7647 11.7493 26.7647C11.6442 26.7647 11.5518 26.7902 11.4723 26.8414C11.3928 26.8916 11.3307 26.9579 11.2862 27.0402C11.2427 27.1217 11.2204 27.2112 11.2195 27.3087V27.6113C11.2195 27.7382 11.2427 27.8471 11.2891 27.938C11.3355 28.0279 11.4003 28.0971 11.4837 28.1454C11.567 28.1927 11.6645 28.2164 11.7763 28.2164C11.8511 28.2164 11.9188 28.206 11.9794 28.1851C12.04 28.1634 12.0926 28.1316 12.1371 28.09C12.1816 28.0483 12.2152 27.9967 12.2379 27.9351L12.718 27.9891C12.6877 28.116 12.63 28.2268 12.5447 28.3215C12.4605 28.4152 12.3525 28.4882 12.2209 28.5402C12.0893 28.5914 11.9387 28.617 11.7692 28.617ZM13.6886 25.6652V28.5743H13.1744V25.6652H13.6886ZM15.169 28.617C14.956 28.617 14.7713 28.5701 14.6151 28.4763C14.4588 28.3826 14.3376 28.2514 14.2514 28.0829C14.1662 27.9143 14.1236 27.7173 14.1236 27.492C14.1236 27.2666 14.1662 27.0691 14.2514 26.8996C14.3376 26.7301 14.4588 26.5985 14.6151 26.5047C14.7713 26.411 14.956 26.3641 15.169 26.3641C15.3821 26.3641 15.5668 26.411 15.723 26.5047C15.8793 26.5985 16 26.7301 16.0852 26.8996C16.1714 27.0691 16.2145 27.2666 16.2145 27.492C16.2145 27.7173 16.1714 27.9143 16.0852 28.0829C16 28.2514 15.8793 28.3826 15.723 28.4763C15.5668 28.5701 15.3821 28.617 15.169 28.617ZM15.1719 28.205C15.2874 28.205 15.384 28.1733 15.4616 28.1099C15.5393 28.0455 15.5971 27.9593 15.6349 27.8513C15.6738 27.7434 15.6932 27.6231 15.6932 27.4905C15.6932 27.357 15.6738 27.2363 15.6349 27.1283C15.5971 27.0194 15.5393 26.9328 15.4616 26.8684C15.384 26.804 15.2874 26.7718 15.1719 26.7718C15.0535 26.7718 14.955 26.804 14.8764 26.8684C14.7988 26.9328 14.7405 27.0194 14.7017 27.1283C14.6638 27.2363 14.6449 27.357 14.6449 27.4905C14.6449 27.6231 14.6638 27.7434 14.7017 27.8513C14.7405 27.9593 14.7988 28.0455 14.8764 28.1099C14.955 28.1733 15.0535 28.205 15.1719 28.205ZM16.6509 29.3925V26.3925H17.1566V26.7533H17.1864C17.2129 26.7003 17.2504 26.6439 17.2987 26.5843C17.3469 26.5237 17.4123 26.4721 17.4947 26.4295C17.5771 26.3859 17.6822 26.3641 17.81 26.3641C17.9786 26.3641 18.1306 26.4072 18.266 26.4934C18.4023 26.5786 18.5103 26.705 18.5898 26.8726C18.6703 27.0393 18.7106 27.2438 18.7106 27.4863C18.7106 27.7259 18.6713 27.9295 18.5927 28.0971C18.5141 28.2647 18.4071 28.3925 18.2717 28.4806C18.1362 28.5687 17.9828 28.6127 17.8114 28.6127C17.6864 28.6127 17.5827 28.5919 17.5004 28.5502C17.418 28.5085 17.3517 28.4583 17.3015 28.3996C17.2522 28.34 17.2139 28.2836 17.1864 28.2306H17.1651V29.3925H16.6509ZM17.1552 27.4834C17.1552 27.6245 17.1751 27.7481 17.2148 27.8542C17.2556 27.9602 17.3138 28.0431 17.3896 28.1027C17.4663 28.1615 17.5591 28.1908 17.668 28.1908C17.7816 28.1908 17.8768 28.1605 17.9535 28.0999C18.0302 28.0384 18.0879 27.9545 18.1268 27.8485C18.1665 27.7415 18.1864 27.6198 18.1864 27.4834C18.1864 27.348 18.167 27.2277 18.1282 27.1226C18.0894 27.0175 18.0316 26.9351 17.9549 26.8755C17.8782 26.8158 17.7826 26.786 17.668 26.786C17.5581 26.786 17.4648 26.8149 17.3881 26.8726C17.3114 26.9304 17.2532 27.0114 17.2134 27.1155C17.1746 27.2197 17.1552 27.3423 17.1552 27.4834ZM20.1168 28.617C19.8981 28.617 19.7092 28.5715 19.5501 28.4806C19.3919 28.3887 19.2702 28.259 19.185 28.0914C19.0998 27.9228 19.0572 27.7244 19.0572 27.4962C19.0572 27.2718 19.0998 27.0748 19.185 26.9053C19.2712 26.7349 19.3915 26.6023 19.5458 26.5076C19.7002 26.4119 19.8815 26.3641 20.0898 26.3641C20.2243 26.3641 20.3512 26.3859 20.4705 26.4295C20.5908 26.4721 20.6969 26.5384 20.7887 26.6283C20.8815 26.7183 20.9544 26.8329 21.0075 26.9721C21.0605 27.1103 21.087 27.2751 21.087 27.4664V27.6241H19.2987V27.2775H20.5941C20.5932 27.179 20.5719 27.0914 20.5302 27.0147C20.4885 26.937 20.4303 26.876 20.3555 26.8314C20.2816 26.7869 20.1954 26.7647 20.0969 26.7647C19.9918 26.7647 19.8995 26.7902 19.82 26.8414C19.7404 26.8916 19.6784 26.9579 19.6339 27.0402C19.5903 27.1217 19.5681 27.2112 19.5671 27.3087V27.6113C19.5671 27.7382 19.5903 27.8471 19.6367 27.938C19.6831 28.0279 19.748 28.0971 19.8313 28.1454C19.9147 28.1927 20.0122 28.2164 20.1239 28.2164C20.1987 28.2164 20.2665 28.206 20.3271 28.1851C20.3877 28.1634 20.4402 28.1316 20.4847 28.09C20.5292 28.0483 20.5629 27.9967 20.5856 27.9351L21.0657 27.9891C21.0354 28.116 20.9776 28.2268 20.8924 28.3215C20.8081 28.4152 20.7002 28.4882 20.5685 28.5402C20.4369 28.5914 20.2863 28.617 20.1168 28.617ZM21.522 28.5743V26.3925H22.0206V26.7562H22.0433C22.0831 26.6302 22.1513 26.5331 22.2479 26.465C22.3454 26.3958 22.4567 26.3613 22.5817 26.3613C22.6101 26.3613 22.6418 26.3627 22.6768 26.3655C22.7128 26.3674 22.7427 26.3707 22.7663 26.3755V26.8485C22.7446 26.8409 22.71 26.8343 22.6626 26.8286C22.6162 26.822 22.5713 26.8187 22.5277 26.8187C22.4339 26.8187 22.3497 26.839 22.2749 26.8797C22.201 26.9195 22.1428 26.9749 22.1001 27.0459C22.0575 27.117 22.0362 27.1989 22.0362 27.2917V28.5743H21.522ZM24.8324 26.9692L24.3636 27.0204C24.3504 26.973 24.3272 26.9285 24.294 26.8868C24.2618 26.8452 24.2183 26.8116 24.1634 26.786C24.1084 26.7604 24.0412 26.7476 23.9616 26.7476C23.8546 26.7476 23.7647 26.7708 23.6918 26.8172C23.6198 26.8636 23.5843 26.9238 23.5852 26.9976C23.5843 27.0611 23.6075 27.1127 23.6548 27.1525C23.7031 27.1922 23.7827 27.2249 23.8935 27.2505L24.2656 27.33C24.4721 27.3745 24.6255 27.4451 24.7259 27.5417C24.8272 27.6383 24.8783 27.7647 24.8793 27.9209C24.8783 28.0582 24.8381 28.1795 24.7585 28.2846C24.6799 28.3887 24.5705 28.4702 24.4304 28.5289C24.2902 28.5876 24.1293 28.617 23.9474 28.617C23.6804 28.617 23.4654 28.5611 23.3026 28.4493C23.1397 28.3367 23.0426 28.1799 23.0114 27.9792L23.5128 27.9309C23.5355 28.0294 23.5838 28.1037 23.6577 28.1539C23.7315 28.2041 23.8277 28.2292 23.946 28.2292C24.0682 28.2292 24.1662 28.2041 24.2401 28.1539C24.3149 28.1037 24.3523 28.0417 24.3523 27.9678C24.3523 27.9053 24.3281 27.8537 24.2798 27.813C24.2325 27.7723 24.1586 27.741 24.0582 27.7192L23.6861 27.6411C23.4768 27.5975 23.322 27.5242 23.2216 27.4209C23.1212 27.3168 23.0715 27.1851 23.0724 27.026C23.0715 26.8916 23.108 26.7751 23.1818 26.6766C23.2566 26.5772 23.3603 26.5005 23.4929 26.4465C23.6264 26.3916 23.7803 26.3641 23.9545 26.3641C24.2102 26.3641 24.4115 26.4186 24.5582 26.5275C24.706 26.6364 24.7973 26.7836 24.8324 26.9692Z" fill="#2563EB"/>
<rect x="0.320312" y="52.2173" width="30" height="29" rx="4" fill="#EEEEF0"/>
<path fill-rule="evenodd" clip-rule="evenodd" d="M12.9966 59.1821C12.9966 57.9243 14.0164 56.9045 15.2742 56.9045C16.5321 56.9045 17.5518 57.9243 17.5518 59.1821C17.5518 60.44 16.5321 61.4597 15.2742 61.4597C14.0164 61.4597 12.9966 60.44 12.9966 59.1821ZM15.2742 56.4045C13.7402 56.4045 12.4966 57.6481 12.4966 59.1821C12.4966 60.2747 13.1275 61.22 14.0448 61.6735C13.2625 61.9555 12.6052 62.4988 12.1782 63.1976H8.74609C8.60802 63.1976 8.49609 63.3096 8.49609 63.4476V69.7801C8.49609 69.9182 8.60802 70.0301 8.74609 70.0301H21.8852C22.0233 70.0301 22.1352 69.9182 22.1352 69.7801V63.4476C22.1352 63.3096 22.0233 63.1976 21.8852 63.1976H18.37C17.943 62.4988 17.2858 61.9555 16.5035 61.6736C17.4209 61.2201 18.0518 60.2748 18.0518 59.1821C18.0518 57.6481 16.8082 56.4045 15.2742 56.4045ZM17.7655 63.1976H12.7827C13.3538 62.4452 14.2574 61.9598 15.2741 61.9598C16.2908 61.9598 17.1944 62.4452 17.7655 63.1976ZM8.99609 63.6976V69.5301H21.6352V63.6976H8.99609ZM16.1516 65.0597C16.1988 64.9299 16.1319 64.7865 16.0021 64.7393C15.8723 64.6921 15.7289 64.7591 15.6817 64.8888L14.4893 68.1681C14.4421 68.2978 14.509 68.4413 14.6388 68.4884C14.7685 68.5356 14.912 68.4687 14.9592 68.3389L16.1516 65.0597ZM13.992 65.8785C14.0897 65.7809 14.0897 65.6226 13.992 65.5249C13.8944 65.4273 13.7361 65.4273 13.6385 65.5249L12.7262 66.4372C12.6286 66.5348 12.6286 66.6931 12.7262 66.7908L13.6385 67.703C13.7361 67.8006 13.8944 67.8006 13.992 67.703C14.0897 67.6054 14.0897 67.4471 13.992 67.3495L13.2566 66.614L13.992 65.8785ZM16.6488 65.5249C16.7464 65.4273 16.9047 65.4273 17.0023 65.5249L17.9146 66.4372C18.0122 66.5348 18.0122 66.6931 17.9146 66.7908L17.0023 67.703C16.9047 67.8006 16.7464 67.8006 16.6488 67.703C16.5511 67.6054 16.5511 67.4471 16.6488 67.3495L17.3843 66.614L16.6488 65.8785C16.5511 65.7809 16.5511 65.6226 16.6488 65.5249Z" fill="#2563EB"/>
<path d="M2.6131 76.2173V73.3082H3.70401C3.9275 73.3082 4.115 73.3499 4.26651 73.4332C4.41898 73.5165 4.53403 73.6311 4.61168 73.7769C4.69028 73.9218 4.72958 74.0866 4.72958 74.2713C4.72958 74.4578 4.69028 74.6235 4.61168 74.7684C4.53308 74.9133 4.41708 75.0274 4.26367 75.1108C4.11026 75.1931 3.92134 75.2343 3.69691 75.2343H2.9739V74.8011H3.62589C3.75657 74.8011 3.86358 74.7784 3.94691 74.7329C4.03024 74.6875 4.0918 74.625 4.13157 74.5454C4.17229 74.4659 4.19265 74.3745 4.19265 74.2713C4.19265 74.168 4.17229 74.0771 4.13157 73.9985C4.0918 73.9199 4.02977 73.8589 3.94549 73.8153C3.86216 73.7708 3.75468 73.7485 3.62305 73.7485H3.14009V76.2173H2.6131ZM5.6788 73.3082V76.2173H5.1646V73.3082H5.6788ZM6.8354 76.2613C6.69715 76.2613 6.57262 76.2367 6.46183 76.1875C6.35198 76.1373 6.26486 76.0634 6.20046 75.9659C6.13701 75.8683 6.10529 75.7481 6.10529 75.6051C6.10529 75.482 6.12802 75.3802 6.17347 75.2997C6.21893 75.2192 6.28095 75.1548 6.35955 75.1065C6.43815 75.0582 6.52669 75.0217 6.62518 74.9971C6.72461 74.9715 6.82736 74.9531 6.93342 74.9417C7.06126 74.9285 7.16495 74.9166 7.2445 74.9062C7.32404 74.8948 7.38181 74.8778 7.41779 74.8551C7.45472 74.8314 7.47319 74.7949 7.47319 74.7457V74.7372C7.47319 74.6302 7.44147 74.5473 7.37802 74.4886C7.31457 74.4299 7.22319 74.4005 7.10387 74.4005C6.97792 74.4005 6.87802 74.428 6.80415 74.4829C6.73124 74.5378 6.682 74.6027 6.65643 74.6775L6.17631 74.6093C6.21419 74.4768 6.27669 74.366 6.36381 74.2769C6.45094 74.187 6.55747 74.1197 6.68342 74.0752C6.80936 74.0298 6.94857 74.0071 7.10103 74.0071C7.20614 74.0071 7.31078 74.0194 7.41495 74.044C7.51912 74.0686 7.61429 74.1093 7.70046 74.1661C7.78664 74.222 7.85576 74.2983 7.90785 74.3948C7.96088 74.4914 7.98739 74.6122 7.98739 74.7571V76.2173H7.49308V75.9176H7.47603C7.44478 75.9782 7.40075 76.035 7.34393 76.088C7.28806 76.1401 7.21751 76.1822 7.13228 76.2144C7.048 76.2457 6.94904 76.2613 6.8354 76.2613ZM6.96893 75.8835C7.07215 75.8835 7.16164 75.8631 7.23739 75.8224C7.31315 75.7807 7.37139 75.7258 7.41211 75.6576C7.45378 75.5894 7.47461 75.5151 7.47461 75.4346V75.1775C7.45851 75.1908 7.43105 75.2031 7.39222 75.2144C7.35434 75.2258 7.31173 75.2358 7.26438 75.2443C7.21703 75.2528 7.17016 75.2604 7.12376 75.267C7.07736 75.2736 7.03711 75.2793 7.00302 75.284C6.92631 75.2945 6.85766 75.3115 6.79705 75.3352C6.73645 75.3589 6.68862 75.392 6.65359 75.4346C6.61855 75.4763 6.60103 75.5303 6.60103 75.5965C6.60103 75.6912 6.63559 75.7627 6.70472 75.811C6.77385 75.8593 6.86192 75.8835 6.96893 75.8835ZM9.59393 74.0355V74.4332H8.33967V74.0355H9.59393ZM8.64933 73.5127H9.16353V75.561C9.16353 75.6302 9.17395 75.6832 9.19478 75.7201C9.21656 75.7561 9.24497 75.7807 9.28001 75.794C9.31505 75.8072 9.35387 75.8139 9.39648 75.8139C9.42868 75.8139 9.45804 75.8115 9.48455 75.8068C9.51201 75.802 9.53285 75.7978 9.54705 75.794L9.6337 76.196C9.60624 76.2054 9.56694 76.2159 9.5158 76.2272C9.46561 76.2386 9.40406 76.2452 9.33114 76.2471C9.20236 76.2509 9.08635 76.2315 8.98313 76.1889C8.87991 76.1453 8.798 76.0781 8.73739 75.9872C8.67773 75.8963 8.64838 75.7826 8.64933 75.6463V73.5127ZM11.1291 74.0355V74.4332H9.83931V74.0355H11.1291ZM10.1618 76.2173V73.8295C10.1618 73.6827 10.1921 73.5606 10.2527 73.463C10.3142 73.3655 10.3966 73.2926 10.4998 73.2443C10.603 73.196 10.7176 73.1718 10.8436 73.1718C10.9326 73.1718 11.0117 73.1789 11.0808 73.1931C11.1499 73.2073 11.2011 73.2201 11.2342 73.2315L11.1319 73.6292C11.1101 73.6226 11.0827 73.616 11.0495 73.6093C11.0164 73.6018 10.9795 73.598 10.9387 73.598C10.8431 73.598 10.7754 73.6212 10.7356 73.6676C10.6968 73.713 10.6774 73.7784 10.6774 73.8636V76.2173H10.1618ZM12.4015 76.2599C12.1884 76.2599 12.0037 76.213 11.8475 76.1193C11.6912 76.0255 11.57 75.8944 11.4838 75.7258C11.3986 75.5572 11.356 75.3603 11.356 75.1349C11.356 74.9095 11.3986 74.7121 11.4838 74.5426C11.57 74.3731 11.6912 74.2414 11.8475 74.1477C12.0037 74.0539 12.1884 74.0071 12.4015 74.0071C12.6145 74.0071 12.7992 74.0539 12.9554 74.1477C13.1117 74.2414 13.2324 74.3731 13.3176 74.5426C13.4038 74.7121 13.4469 74.9095 13.4469 75.1349C13.4469 75.3603 13.4038 75.5572 13.3176 75.7258C13.2324 75.8944 13.1117 76.0255 12.9554 76.1193C12.7992 76.213 12.6145 76.2599 12.4015 76.2599ZM12.4043 75.848C12.5198 75.848 12.6164 75.8162 12.6941 75.7528C12.7717 75.6884 12.8295 75.6022 12.8674 75.4943C12.9062 75.3863 12.9256 75.2661 12.9256 75.1335C12.9256 75 12.9062 74.8792 12.8674 74.7713C12.8295 74.6624 12.7717 74.5757 12.6941 74.5113C12.6164 74.4469 12.5198 74.4147 12.4043 74.4147C12.2859 74.4147 12.1874 74.4469 12.1088 74.5113C12.0312 74.5757 11.973 74.6624 11.9341 74.7713C11.8962 74.8792 11.8773 75 11.8773 75.1335C11.8773 75.2661 11.8962 75.3863 11.9341 75.4943C11.973 75.6022 12.0312 75.6884 12.1088 75.7528C12.1874 75.8162 12.2859 75.848 12.4043 75.848ZM13.8833 76.2173V74.0355H14.3819V74.3991H14.4047C14.4444 74.2732 14.5126 74.1761 14.6092 74.1079C14.7067 74.0388 14.818 74.0042 14.943 74.0042C14.9714 74.0042 15.0031 74.0056 15.0382 74.0085C15.0742 74.0104 15.104 74.0137 15.1277 74.0184V74.4914C15.1059 74.4839 15.0713 74.4772 15.024 74.4715C14.9776 74.4649 14.9326 74.4616 14.889 74.4616C14.7953 74.4616 14.711 74.482 14.6362 74.5227C14.5623 74.5625 14.5041 74.6179 14.4615 74.6889C14.4189 74.7599 14.3975 74.8418 14.3975 74.9346V76.2173H13.8833ZM15.4693 76.2173V74.0355H15.9608V74.4062H15.9863C16.0318 74.2812 16.1071 74.1837 16.2122 74.1136C16.3173 74.0426 16.4428 74.0071 16.5886 74.0071C16.7363 74.0071 16.8609 74.043 16.9622 74.115C17.0645 74.186 17.1364 74.2831 17.1781 74.4062H17.2008C17.2491 74.285 17.3306 74.1884 17.4451 74.1164C17.5607 74.0435 17.6975 74.0071 17.8556 74.0071C18.0564 74.0071 18.2202 74.0705 18.3471 74.1974C18.474 74.3243 18.5375 74.5094 18.5375 74.7528V76.2173H18.0218V74.8323C18.0218 74.6969 17.9859 74.598 17.9139 74.5355C17.8419 74.472 17.7538 74.4403 17.6497 74.4403C17.5256 74.4403 17.4286 74.4791 17.3585 74.5568C17.2894 74.6335 17.2548 74.7334 17.2548 74.8565V76.2173H16.7505V74.811C16.7505 74.6983 16.7164 74.6084 16.6483 74.5411C16.581 74.4739 16.493 74.4403 16.3841 74.4403C16.3102 74.4403 16.243 74.4592 16.1824 74.4971C16.1217 74.534 16.0734 74.5866 16.0375 74.6548C16.0015 74.722 15.9835 74.8006 15.9835 74.8906V76.2173H15.4693ZM20.074 76.2173V73.3082H21.9661V73.75H20.601V74.5397H21.8681V74.9815H20.601V75.7755H21.9775V76.2173H20.074ZM22.9952 74.9389V76.2173H22.481V74.0355H22.9725V74.4062H22.998C23.0482 74.284 23.1283 74.187 23.2381 74.115C23.3489 74.043 23.4857 74.0071 23.6486 74.0071C23.7992 74.0071 23.9303 74.0393 24.0421 74.1036C24.1548 74.168 24.2419 74.2613 24.3034 74.3835C24.3659 74.5056 24.3967 74.6538 24.3958 74.8281V76.2173H23.8816V74.9076C23.8816 74.7618 23.8437 74.6477 23.7679 74.5653C23.6931 74.4829 23.5894 74.4417 23.4569 74.4417C23.3669 74.4417 23.2869 74.4616 23.2168 74.5014C23.1477 74.5402 23.0932 74.5965 23.0534 74.6704C23.0146 74.7443 22.9952 74.8338 22.9952 74.9389ZM25.8674 77.0809C25.6827 77.0809 25.5241 77.0558 25.3915 77.0056C25.2589 76.9564 25.1524 76.8901 25.0719 76.8068C24.9914 76.7234 24.9355 76.6311 24.9043 76.5298L25.3674 76.4176C25.3882 76.4602 25.4185 76.5023 25.4583 76.544C25.498 76.5866 25.5516 76.6216 25.6188 76.6491C25.687 76.6775 25.7727 76.6917 25.8759 76.6917C26.0217 76.6917 26.1425 76.6562 26.2381 76.5852C26.3337 76.5151 26.3816 76.3996 26.3816 76.2386V75.8252H26.356C26.3295 75.8783 26.2907 75.9327 26.2395 75.9886C26.1893 76.0445 26.1226 76.0913 26.0392 76.1292C25.9569 76.1671 25.8532 76.186 25.7282 76.186C25.5605 76.186 25.4086 76.1467 25.2722 76.0681C25.1368 75.9886 25.0288 75.8702 24.9483 75.713C24.8688 75.5549 24.829 75.357 24.829 75.1193C24.829 74.8797 24.8688 74.6775 24.9483 74.5127C25.0288 74.347 25.1373 74.2215 25.2736 74.1363C25.41 74.0501 25.562 74.0071 25.7296 74.0071C25.8574 74.0071 25.9625 74.0288 26.0449 74.0724C26.1283 74.115 26.1945 74.1666 26.2438 74.2272C26.293 74.2869 26.3304 74.3432 26.356 74.3963H26.3844V74.0355H26.8915V76.2528C26.8915 76.4393 26.847 76.5937 26.758 76.7159C26.669 76.838 26.5473 76.9294 26.3929 76.99C26.2386 77.0506 26.0634 77.0809 25.8674 77.0809ZM25.8716 75.7826C25.9805 75.7826 26.0733 75.7561 26.15 75.7031C26.2267 75.6501 26.285 75.5738 26.3248 75.4744C26.3645 75.375 26.3844 75.2556 26.3844 75.1164C26.3844 74.9791 26.3645 74.8589 26.3248 74.7556C26.2859 74.6524 26.2282 74.5724 26.1515 74.5156C26.0757 74.4578 25.9824 74.4289 25.8716 74.4289C25.757 74.4289 25.6614 74.4588 25.5847 74.5184C25.508 74.5781 25.4502 74.66 25.4114 74.7642C25.3726 74.8674 25.3532 74.9848 25.3532 75.1164C25.3532 75.25 25.3726 75.3669 25.4114 75.4673C25.4512 75.5667 25.5094 75.6444 25.5861 75.7002C25.6638 75.7552 25.7589 75.7826 25.8716 75.7826ZM27.7353 76.2485C27.6491 76.2485 27.5752 76.2182 27.5137 76.1576C27.4521 76.097 27.4218 76.0232 27.4228 75.936C27.4218 75.8508 27.4521 75.7779 27.5137 75.7173C27.5752 75.6567 27.6491 75.6264 27.7353 75.6264C27.8186 75.6264 27.891 75.6567 27.9526 75.7173C28.0151 75.7779 28.0468 75.8508 28.0478 75.936C28.0468 75.9938 28.0317 76.0464 28.0023 76.0937C27.9739 76.1411 27.936 76.1789 27.8887 76.2073C27.8423 76.2348 27.7911 76.2485 27.7353 76.2485Z" fill="#2563EB"/>
<path d="M51.9297 36.3179H50.7556C44.4416 36.3179 38.8014 32.3699 36.6401 26.4373L34.8364 21.4863C33.758 18.5265 30.9441 16.5568 27.794 16.5568V16.5568" stroke="#D97706" stroke-dasharray="2 2"/>
<path d="M51.9297 46.6658H50.7556C44.4416 46.6658 38.8014 50.6139 36.6401 56.5464L34.8364 61.4975C33.7581 64.4573 30.9441 66.427 27.794 66.427V66.427" stroke="#D97706" stroke-dasharray="2 2"/>
<defs>
<clipPath id="clip0_4975_63084">
<rect width="12" height="12" fill="white" transform="translate(197.57 59.9288)"/>
</clipPath>
</defs>
</svg>
