<svg width="640" height="352" viewBox="0 0 640 352" fill="none" xmlns="http://www.w3.org/2000/svg">
<g clip-path="url(#clip0_2901_15550)">
<rect width="640" height="352" fill="#F4F4F5"/>
<path d="M318.285 306.055L318.285 420.096" stroke="#D97706" stroke-dasharray="4 4"/>
<path d="M226.331 116.013L194.359 145.895C190.313 149.677 188.016 154.968 188.016 160.506V212.868" stroke="#D97706" stroke-dasharray="4 4"/>
<path d="M417.917 116.013L449.889 145.895C453.936 149.677 456.233 154.968 456.233 160.506V212.868" stroke="#D97706" stroke-dasharray="4 4"/>
<path d="M234.395 252.712L294.268 308.672C298.314 312.454 300.611 317.745 300.611 323.283V420.096" stroke="#D97706" stroke-dasharray="4 4"/>
<path d="M401.656 264.08L346.281 315.836C342.235 319.618 339.938 324.909 339.938 330.448V420.096" stroke="#D97706" stroke-dasharray="4 4"/>
<path d="M304.529 88.3331L247.653 145.209C244.957 147.904 240.593 147.904 237.908 145.209L180.823 88.1233C178.127 85.4275 178.127 81.0637 180.823 78.3783L237.698 21.5029C240.394 18.807 244.758 18.807 247.443 21.5029L304.529 78.5881C307.224 81.2735 307.224 85.6373 304.529 88.3331Z" fill="#EFF6FF" stroke="#2563EB"/>
<path fill-rule="evenodd" clip-rule="evenodd" d="M252.941 65.6943C247.824 65.6943 243.676 69.8425 243.676 74.9594C243.676 80.0764 247.824 84.2245 252.941 84.2245C258.058 84.2245 262.206 80.0764 262.206 74.9594C262.206 69.8425 258.058 65.6943 252.941 65.6943ZM241.676 74.9594C241.676 68.7379 246.72 63.6943 252.941 63.6943C259.163 63.6943 264.206 68.7379 264.206 74.9594C264.206 81.181 259.163 86.2245 252.941 86.2245C246.72 86.2245 241.676 81.181 241.676 74.9594ZM252.941 67.9713C253.493 67.9713 253.941 68.419 253.941 68.9713V69.6824H255.508C256.06 69.6824 256.508 70.1301 256.508 70.6824C256.508 71.2347 256.06 71.6824 255.508 71.6824H251.658C251.356 71.6824 251.067 71.8023 250.853 72.0158C250.64 72.2294 250.52 72.519 250.52 72.8209C250.52 73.1229 250.64 73.4125 250.853 73.626C251.067 73.8395 251.356 73.9595 251.658 73.9595H254.224C255.057 73.9595 255.855 74.2902 256.444 74.8788C257.032 75.4673 257.363 76.2657 257.363 77.098C257.363 77.9304 257.032 78.7288 256.444 79.3173C255.855 79.9059 255.057 80.2366 254.224 80.2366H253.941V80.9466C253.941 81.4989 253.493 81.9466 252.941 81.9466C252.389 81.9466 251.941 81.4989 251.941 80.9466V80.2366H250.375C249.823 80.2366 249.375 79.7889 249.375 79.2366C249.375 78.6843 249.823 78.2366 250.375 78.2366H252.922L252.941 78.2364L252.96 78.2366H254.224C254.526 78.2366 254.816 78.1167 255.03 77.9031C255.243 77.6896 255.363 77.4 255.363 77.098C255.363 76.7961 255.243 76.5065 255.03 76.293C254.816 76.0794 254.526 75.9595 254.224 75.9595H251.658C250.826 75.9595 250.027 75.6288 249.439 75.0402C248.85 74.4516 248.52 73.6533 248.52 72.8209C248.52 71.9885 248.85 71.1902 249.439 70.6016C250.027 70.013 250.826 69.6824 251.658 69.6824H251.941V68.9713C251.941 68.419 252.389 67.9713 252.941 67.9713ZM262.206 101.017V84.8132C262.959 84.1049 263.631 83.3113 264.206 82.4477V102.017C264.206 102.569 263.759 103.017 263.206 103.017H222.147C221.594 103.017 221.147 102.569 221.147 102.017V81.7004C221.146 81.6854 221.146 81.6703 221.146 81.6552C221.146 81.64 221.146 81.625 221.147 81.61V73.5908C221.147 73.0386 221.594 72.5908 222.147 72.5908H239.622C239.507 73.2426 239.439 73.9105 239.421 74.5908H223.147V80.6552H240.67C240.996 81.3565 241.38 82.0253 241.817 82.6552H223.147V101.017H262.206ZM250.572 94.7008C250.019 94.7008 249.572 95.1485 249.572 95.7008C249.572 96.2531 250.019 96.7008 250.572 96.7008H256.888C257.441 96.7008 257.888 96.2531 257.888 95.7008C257.888 95.1485 257.441 94.7008 256.888 94.7008H250.572ZM240.096 95.7008C240.096 95.1485 240.544 94.7008 241.096 94.7008H244.253C244.806 94.7008 245.253 95.1485 245.253 95.7008C245.253 96.2531 244.806 96.7008 244.253 96.7008H241.096C240.544 96.7008 240.096 96.2531 240.096 95.7008Z" fill="#2563EB"/>
<path fill-rule="evenodd" clip-rule="evenodd" d="M243.677 74.9525C243.677 69.8356 247.825 65.6874 252.942 65.6874C258.059 65.6874 262.207 69.8356 262.207 74.9525C262.207 80.0695 258.059 84.2176 252.942 84.2176C247.825 84.2176 243.677 80.0695 243.677 74.9525ZM252.942 63.6874C246.72 63.6874 241.677 68.731 241.677 74.9525C241.677 81.1741 246.72 86.2176 252.942 86.2176C259.163 86.2176 264.207 81.1741 264.207 74.9525C264.207 68.731 259.163 63.6874 252.942 63.6874ZM253.941 68.9641C253.941 68.4118 253.494 67.9641 252.941 67.9641C252.389 67.9641 251.941 68.4118 251.941 68.9641V69.6753H251.659C250.826 69.6753 250.028 70.006 249.439 70.5946C248.851 71.1832 248.52 71.9815 248.52 72.8139C248.52 73.6463 248.851 74.4446 249.439 75.0332C250.028 75.6218 250.826 75.9525 251.659 75.9525H254.225C254.527 75.9525 254.816 76.0724 255.03 76.2859C255.243 76.4995 255.363 76.7891 255.363 77.091C255.363 77.393 255.243 77.6826 255.03 77.8961C254.816 78.1096 254.527 78.2296 254.225 78.2296H252.959C252.953 78.2295 252.947 78.2294 252.941 78.2294C252.936 78.2294 252.93 78.2295 252.924 78.2296H250.375C249.823 78.2296 249.375 78.6773 249.375 79.2296C249.375 79.7819 249.823 80.2296 250.375 80.2296H251.941V80.9412C251.941 81.4935 252.389 81.9412 252.941 81.9412C253.494 81.9412 253.941 81.4935 253.941 80.9412V80.2296H254.225C255.057 80.2296 255.856 79.8989 256.444 79.3103C257.033 78.7217 257.363 77.9234 257.363 77.091C257.363 76.2586 257.033 75.4603 256.444 74.8717C255.856 74.2831 255.057 73.9525 254.225 73.9525H251.659C251.357 73.9525 251.067 73.8325 250.853 73.619C250.64 73.4055 250.52 73.1159 250.52 72.8139C250.52 72.5119 250.64 72.2223 250.853 72.0088C251.067 71.7953 251.357 71.6753 251.659 71.6753H252.908C252.919 71.6757 252.93 71.6759 252.941 71.6759C252.953 71.6759 252.964 71.6757 252.975 71.6753H255.508C256.06 71.6753 256.508 71.2276 256.508 70.6753C256.508 70.123 256.06 69.6753 255.508 69.6753H253.941V68.9641Z" fill="#2563EB"/>
<path d="M336.447 90.9237L393.326 147.799C396.022 150.495 400.386 150.495 403.071 147.799L460.16 90.7139C462.856 88.018 462.856 83.6543 460.16 80.9689L403.281 24.0934C400.585 21.3976 396.221 21.3976 393.535 24.0934L336.447 81.1787C333.761 83.8641 333.761 88.2278 336.447 90.9237Z" fill="#EFF6FF" stroke="#2563EB"/>
<path fill-rule="evenodd" clip-rule="evenodd" d="M405.566 67.739C405.843 67.2607 406.454 67.0968 406.932 67.373L413.478 71.1519C413.707 71.2845 413.875 71.5029 413.944 71.7591C414.012 72.0152 413.976 72.2882 413.844 72.5179L411.935 75.8241C413.302 77.3576 414.364 79.1706 415.024 81.1675H418.838C419.39 81.1675 419.838 81.6152 419.838 82.1675V89.7253C419.838 90.2775 419.39 90.7253 418.838 90.7253H415.023C414.363 92.722 413.301 94.5348 411.934 96.0682L413.844 99.3748C413.976 99.6045 414.012 99.8774 413.943 100.134C413.875 100.39 413.707 100.608 413.478 100.741L406.932 104.52C406.703 104.652 406.43 104.688 406.174 104.62C405.917 104.551 405.699 104.383 405.566 104.154L403.659 100.849C402.661 101.055 401.629 101.163 400.573 101.163C399.516 101.163 398.484 101.055 397.487 100.849L395.579 104.154C395.446 104.383 395.228 104.551 394.972 104.62C394.715 104.688 394.442 104.652 394.213 104.52L387.667 100.741C387.189 100.465 387.025 99.8531 387.301 99.3748L389.211 96.068C388 94.7097 387.028 93.1322 386.364 91.4018H388.531C389.178 92.8288 390.073 94.1209 391.16 95.2236C391.476 95.5441 391.539 96.036 391.314 96.4256L389.534 99.5088L394.347 102.288L396.125 99.2076C396.35 98.8182 396.807 98.6267 397.242 98.7397C398.305 99.0155 399.421 99.1626 400.573 99.1626C401.724 99.1626 402.84 99.0156 403.903 98.7397C404.338 98.6268 404.795 98.8182 405.02 99.2077L406.798 102.288L411.612 99.5088L409.832 96.4258C409.607 96.0362 409.67 95.5443 409.985 95.2238C411.547 93.6395 412.711 91.6644 413.317 89.46C413.437 89.026 413.831 88.7253 414.281 88.7253H417.838V83.1675H414.282C413.832 83.1675 413.437 82.8667 413.317 82.4326C412.711 80.2282 411.547 78.2528 409.986 76.6684C409.67 76.348 409.607 75.8561 409.832 75.4664L411.612 72.3839L406.798 69.605L405.021 72.6844C404.796 73.0739 404.339 73.2653 403.903 73.1523C402.84 72.8765 401.724 72.7294 400.573 72.7294C399.421 72.7294 398.305 72.8765 397.242 73.1524C396.807 73.2654 396.349 73.0739 396.125 72.6845L394.347 69.605L389.533 72.3839L391.313 75.4666C391.538 75.8563 391.475 76.3482 391.159 76.6686C390.095 77.7487 389.215 79.0105 388.571 80.4027H386.398C387.061 78.7068 388.02 77.1596 389.21 75.8243L387.301 72.5179C387.169 72.2882 387.133 72.0152 387.201 71.7591C387.27 71.5029 387.438 71.2845 387.667 71.1519L394.213 67.373C394.691 67.0968 395.303 67.2607 395.579 67.739L397.486 71.0428C398.484 70.8372 399.516 70.7294 400.573 70.7294C401.629 70.7294 402.662 70.8372 403.659 71.0427L405.566 67.739ZM400.426 79.4094C402.628 79.4094 404.577 80.4984 405.762 82.1691H402.21C400.124 82.1691 398.432 83.8602 398.432 85.9462C398.432 88.0322 400.124 89.7232 402.21 89.7232H405.762C404.577 91.3941 402.628 92.4833 400.426 92.4833C397.879 92.4833 395.671 91.0275 394.591 88.8983C394.587 88.8884 394.582 88.8787 394.577 88.869L394.564 88.8443C394.343 88.3978 393.833 88.1894 393.372 88.333H381.164C379.846 88.333 378.778 87.2644 378.778 85.9463C378.778 84.6281 379.846 83.5595 381.164 83.5595L393.691 83.5595C394.096 83.5595 394.445 83.318 394.602 82.9709C394.609 82.9591 394.616 82.947 394.622 82.9348C395.713 80.8379 397.903 79.4094 400.426 79.4094ZM407.801 84.0884C407.679 84.1368 407.554 84.1597 407.431 84.1597L407.431 84.1691H402.21C401.228 84.1691 400.432 84.9647 400.432 85.9462C400.432 86.9276 401.228 87.7232 402.21 87.7232H407.431L407.431 87.7331C407.554 87.733 407.679 87.7559 407.801 87.8043C408.314 88.0086 408.564 88.5902 408.36 89.1033C407.105 92.2537 404.027 94.4833 400.426 94.4833C397.313 94.4833 394.592 92.8178 393.101 90.333H381.164C378.742 90.333 376.778 88.369 376.778 85.9463C376.778 83.5235 378.742 81.5595 381.164 81.5595L393.101 81.5595C394.592 79.075 397.314 77.4094 400.426 77.4094C404.027 77.4094 407.105 79.639 408.36 82.7894C408.564 83.3025 408.314 83.8841 407.801 84.0884Z" fill="#2563EB"/>
<path d="M266.245 228.502L212.389 282.358C209.836 284.91 205.704 284.91 203.162 282.358L149.107 228.303C146.554 225.751 146.554 221.618 149.107 219.076L202.963 165.22C205.516 162.667 209.648 162.667 212.19 165.22L266.245 219.274C268.798 221.817 268.798 225.949 266.245 228.502Z" fill="#EFF6FF" stroke="#2563EB"/>
<path d="M203.9 227.565L185.776 216.992L212.962 201.889L229.576 212.461L203.9 227.565Z" stroke="#2563EB" stroke-width="2" stroke-linejoin="round"/>
<path d="M203.9 245.689V227.565L229.576 212.461V230.585L203.9 245.689Z" stroke="#2563EB" stroke-width="2" stroke-linejoin="round"/>
<path d="M185.776 235.116V216.992L203.9 227.565V245.689L185.776 235.116Z" stroke="#2563EB" stroke-width="2" stroke-linejoin="round"/>
<path d="M212.962 223.147L212.962 239.647" stroke="#2563EB" stroke-width="2" stroke-linecap="round" stroke-linejoin="round"/>
<path d="M222.024 217.675L222.024 234.462" stroke="#2563EB" stroke-width="2" stroke-linecap="round" stroke-linejoin="round"/>
<path d="M369.931 232.157L426.81 289.033C429.506 291.729 433.87 291.729 436.555 289.033L493.644 231.948C496.34 229.252 496.34 224.888 493.644 222.203L436.765 165.327C434.069 162.631 429.705 162.631 427.019 165.327L369.931 222.412C367.245 225.098 367.245 229.462 369.931 232.157Z" fill="#EFF6FF" stroke="#2563EB"/>
<path d="M431.791 227.18C442.878 227.18 451.866 222.278 451.866 216.23C451.866 210.183 442.878 205.28 431.791 205.28C420.704 205.28 411.716 210.183 411.716 216.23C411.716 222.278 420.704 227.18 431.791 227.18Z" stroke="#2563EB" stroke-width="2" stroke-linecap="round" stroke-linejoin="round"/>
<path d="M411.716 216.23V227.18C411.716 233.228 420.704 238.13 431.791 238.13C442.878 238.13 451.866 233.228 451.866 227.18V216.23" stroke="#2563EB" stroke-width="2" stroke-linecap="round" stroke-linejoin="round"/>
<path d="M411.716 227.18V238.13C411.716 244.178 420.704 249.08 431.791 249.08C442.878 249.08 451.866 244.178 451.866 238.13V227.18" stroke="#2563EB" stroke-width="2" stroke-linecap="round" stroke-linejoin="round"/>
<path d="M256.187 303.283L313.062 360.158C315.758 362.854 320.122 362.854 322.807 360.158L379.892 303.073C382.588 300.377 382.588 296.013 379.892 293.328L323.017 236.452C320.321 233.756 315.957 233.756 313.272 236.452L256.187 293.538C253.491 296.233 253.491 300.597 256.187 303.283Z" fill="white" stroke="#D97706"/>
<path d="M318.038 320.205C330.133 320.205 339.938 310.4 339.938 298.305C339.938 286.21 330.133 276.405 318.038 276.405C305.943 276.405 296.138 286.21 296.138 298.305C296.138 310.4 305.943 320.205 318.038 320.205Z" stroke="#111827" stroke-width="2" stroke-miterlimit="10"/>
<path d="M296.138 298.305H339.938" stroke="#111827" stroke-width="2" stroke-linecap="round" stroke-linejoin="round"/>
<path d="M318.038 319.617C323.077 319.617 327.163 310.075 327.163 298.305C327.163 286.535 323.077 276.993 318.038 276.993C312.998 276.993 308.913 286.535 308.913 298.305C308.913 310.075 312.998 319.617 318.038 319.617Z" stroke="#111827" stroke-width="2" stroke-miterlimit="10"/>
</g>
<defs>
<clipPath id="clip0_2901_15550">
<rect width="640" height="352" fill="white"/>
</clipPath>
</defs>
</svg>
