<svg width="548" height="306" viewBox="0 0 548 306" fill="none" xmlns="http://www.w3.org/2000/svg">
<g filter="url(#filter0_dd_2618_8365)">
<g clip-path="url(#clip0_2618_8365)">
<rect x="17" y="14.918" width="514" height="340" rx="4" fill="white"/>
<rect x="33" y="30.918" width="231" height="36" rx="4" stroke="#E4E4E7"/>
<path fill-rule="evenodd" clip-rule="evenodd" d="M54.9453 56.7989C58.4235 55.93 61 52.7845 61 49.0371C61 44.6188 57.4183 41.0371 53 41.0371C48.5817 41.0371 45 44.6188 45 49.0371C45 52.7841 47.5761 55.9295 51.0538 56.7987C51.0267 56.668 51.0125 56.5325 51.0125 56.3937V54.6694C50.4123 54.8465 49.0786 54.9424 48.4507 53.9293C48.3264 53.5998 47.9681 52.8729 47.53 52.6015C46.9824 52.2623 47.1639 52.1569 47.2452 52.1103C47.458 52.0543 47.9922 52.0559 48.4265 52.5094C48.5089 52.5999 48.6921 52.8128 48.7657 52.9407L48.7716 52.9509C48.8802 53.1412 49.4649 54.1649 51.024 53.5707L51.0809 53.5535C51.1782 53.1928 51.3745 52.8727 51.6389 52.6242C51.2479 52.5675 50.8795 52.4872 50.5417 52.387C49.0249 52.008 47.9138 50.6515 47.9139 48.7859C47.914 47.7778 48.2298 46.992 48.7458 46.3794C48.4267 45.6439 48.6733 44.7085 48.8388 44.3286C49.5662 44.2337 50.5862 44.8488 50.9595 45.1045C51.5668 44.9597 52.2669 44.8843 53.0444 44.8843C53.7741 44.8843 54.4645 44.9607 55.0721 45.0997C55.4796 44.8307 56.4475 44.2342 57.1763 44.3362C57.3419 44.6931 57.5911 45.5816 57.3 46.3428C57.8327 46.9951 58.1557 47.85 58.1557 48.7859C58.1557 50.2755 57.3316 51.5884 56.153 52.1463C55.6507 52.3648 55.0409 52.5315 54.364 52.6277C54.7474 52.99 54.9867 53.5032 54.9867 54.0723V56.3937C54.9867 56.5326 54.9724 56.6681 54.9453 56.7989Z" fill="#111827"/>
<path d="M74.233 53.918V43.7362H75.4659V48.7873H75.5852L80.1591 43.7362H81.7699L77.4943 48.3299L81.7699 53.918H80.2784L76.7386 49.185L75.4659 50.6168V53.918H74.233ZM84.38 43.7362V53.918H83.2067V43.7362H84.38ZM89.6312 54.0771C88.9418 54.0771 88.3369 53.913 87.8166 53.5849C87.2995 53.2567 86.8952 52.7977 86.6035 52.2077C86.3152 51.6178 86.171 50.9284 86.171 50.1396C86.171 49.3441 86.3152 48.6497 86.6035 48.0565C86.8952 47.4632 87.2995 47.0025 87.8166 46.6744C88.3369 46.3462 88.9418 46.1822 89.6312 46.1822C90.3206 46.1822 90.9238 46.3462 91.4409 46.6744C91.9612 47.0025 92.3656 47.4632 92.6539 48.0565C92.9456 48.6497 93.0914 49.3441 93.0914 50.1396C93.0914 50.9284 92.9456 51.6178 92.6539 52.2077C92.3656 52.7977 91.9612 53.2567 91.4409 53.5849C90.9238 53.913 90.3206 54.0771 89.6312 54.0771ZM89.6312 53.0231C90.1549 53.0231 90.5858 52.8888 90.9238 52.6204C91.2619 52.3519 91.5121 51.9989 91.6745 51.5614C91.8369 51.1239 91.9181 50.65 91.9181 50.1396C91.9181 49.6291 91.8369 49.1535 91.6745 48.7127C91.5121 48.2719 91.2619 47.9156 90.9238 47.6438C90.5858 47.372 90.1549 47.2362 89.6312 47.2362C89.1075 47.2362 88.6767 47.372 88.3386 47.6438C88.0005 47.9156 87.7503 48.2719 87.5879 48.7127C87.4255 49.1535 87.3443 49.6291 87.3443 50.1396C87.3443 50.65 87.4255 51.1239 87.5879 51.5614C87.7503 51.9989 88.0005 52.3519 88.3386 52.6204C88.6767 52.8888 89.1075 53.0231 89.6312 53.0231ZM99.695 50.7958V46.2816H100.868V53.918H99.695V52.6254H99.6154C99.4364 53.0131 99.158 53.3429 98.7802 53.6147C98.4023 53.8832 97.9251 54.0174 97.3484 54.0174C96.8711 54.0174 96.4469 53.913 96.0756 53.7042C95.7044 53.4921 95.4128 53.1739 95.2006 52.7496C94.9885 52.3221 94.8825 51.7835 94.8825 51.1339V46.2816H96.0558V51.0543C96.0558 51.6112 96.2115 52.0553 96.5231 52.3867C96.8379 52.7182 97.239 52.8839 97.7262 52.8839C98.0179 52.8839 98.3145 52.8093 98.6161 52.6602C98.921 52.511 99.1763 52.2823 99.3817 51.9741C99.5906 51.6658 99.695 51.2731 99.695 50.7958ZM105.901 54.0771C105.264 54.0771 104.703 53.9163 104.215 53.5948C103.728 53.27 103.347 52.8126 103.072 52.2227C102.797 51.6294 102.659 50.9284 102.659 50.1197C102.659 49.3176 102.797 48.6216 103.072 48.0316C103.347 47.4416 103.73 46.9859 104.22 46.6644C104.711 46.3429 105.278 46.1822 105.921 46.1822C106.418 46.1822 106.811 46.265 107.099 46.4308C107.391 46.5932 107.613 46.7788 107.765 46.9876C107.921 47.1931 108.042 47.3621 108.128 47.4947H108.227V43.7362H109.401V53.918H108.267V52.7447H108.128C108.042 52.8839 107.919 53.0595 107.76 53.2717C107.601 53.4805 107.374 53.6677 107.079 53.8335C106.784 53.9959 106.391 54.0771 105.901 54.0771ZM106.06 53.0231C106.53 53.0231 106.928 52.9004 107.253 52.6552C107.578 52.4066 107.825 52.0636 107.994 51.6261C108.163 51.1853 108.247 50.6765 108.247 50.0998C108.247 49.5297 108.164 49.0309 107.999 48.6033C107.833 48.1725 107.588 47.8377 107.263 47.5991C106.938 47.3571 106.537 47.2362 106.06 47.2362C105.563 47.2362 105.148 47.3638 104.817 47.619C104.489 47.8709 104.242 48.2139 104.076 48.6481C103.914 49.079 103.833 49.5629 103.833 50.0998C103.833 50.6433 103.915 51.1372 104.081 51.5813C104.25 52.0221 104.499 52.3735 104.827 52.6353C105.158 52.8938 105.569 53.0231 106.06 53.0231ZM112.886 43.7362V53.918H111.713V43.7362H112.886ZM115.035 53.918V46.2816H116.208V53.918H115.035ZM115.631 45.0089C115.403 45.0089 115.205 44.931 115.04 44.7752C114.877 44.6194 114.796 44.4322 114.796 44.2134C114.796 43.9947 114.877 43.8074 115.04 43.6516C115.205 43.4959 115.403 43.418 115.631 43.418C115.86 43.418 116.056 43.4959 116.218 43.6516C116.384 43.8074 116.467 43.9947 116.467 44.2134C116.467 44.4322 116.384 44.6194 116.218 44.7752C116.056 44.931 115.86 45.0089 115.631 45.0089ZM121.678 46.2816V47.2759H117.721V46.2816H121.678ZM118.874 44.4521H120.047V51.7305C120.047 52.0619 120.095 52.3105 120.192 52.4762C120.291 52.6386 120.417 52.748 120.569 52.8043C120.725 52.8574 120.889 52.8839 121.062 52.8839C121.191 52.8839 121.297 52.8772 121.38 52.864C121.463 52.8474 121.529 52.8342 121.579 52.8242L121.817 53.8782C121.738 53.908 121.627 53.9379 121.484 53.9677C121.342 54.0008 121.161 54.0174 120.942 54.0174C120.611 54.0174 120.286 53.9461 119.968 53.8036C119.653 53.6611 119.391 53.444 119.182 53.1523C118.977 52.8607 118.874 52.4928 118.874 52.0487V44.4521ZM126.563 54.0771C125.827 54.0771 125.192 53.9147 124.659 53.5898C124.128 53.2617 123.719 52.8043 123.431 52.2177C123.146 51.6277 123.003 50.9416 123.003 50.1594C123.003 49.3772 123.146 48.6879 123.431 48.0913C123.719 47.4914 124.12 47.024 124.634 46.6893C125.151 46.3512 125.754 46.1822 126.443 46.1822C126.841 46.1822 127.234 46.2485 127.622 46.381C128.009 46.5136 128.362 46.729 128.681 47.0273C128.999 47.3223 129.252 47.7134 129.441 48.2006C129.63 48.6879 129.725 49.2878 129.725 50.0004V50.4975H123.838V49.4833H128.531C128.531 49.0524 128.445 48.668 128.273 48.3299C128.104 47.9918 127.862 47.725 127.547 47.5295C127.235 47.3339 126.868 47.2362 126.443 47.2362C125.976 47.2362 125.572 47.3522 125.23 47.5842C124.892 47.8129 124.632 48.1112 124.45 48.479C124.267 48.8469 124.176 49.2414 124.176 49.6623V50.3384C124.176 50.9151 124.276 51.404 124.475 51.805C124.677 52.2028 124.957 52.506 125.315 52.7148C125.673 52.9203 126.089 53.0231 126.563 53.0231C126.871 53.0231 127.149 52.98 127.398 52.8938C127.65 52.8043 127.867 52.6718 128.049 52.4961C128.231 52.3171 128.372 52.0951 128.472 51.8299L129.605 52.1481C129.486 52.5326 129.285 52.8706 129.004 53.1623C128.722 53.4506 128.374 53.676 127.96 53.8384C127.545 53.9975 127.08 54.0771 126.563 54.0771Z" fill="#111827"/>
<path d="M243.646 51.5644L238.854 46.7715C238.539 46.4565 238.762 45.918 239.207 45.918H248.793C249.238 45.918 249.461 46.4565 249.146 46.7715L244.354 51.5644C244.158 51.7597 243.842 51.7597 243.646 51.5644Z" fill="#111827"/>
<g clip-path="url(#clip1_2618_8365)">
<rect x="284" y="30.918" width="231" height="36" rx="4" fill="white"/>
<path d="M301.146 54.7093C304.816 54.7093 307.792 51.7339 307.792 48.0636C307.792 44.3933 304.816 41.418 301.146 41.418C297.475 41.418 294.5 44.3933 294.5 48.0636C294.5 51.7339 297.475 54.7093 301.146 54.7093Z" stroke="#111827" stroke-linecap="round" stroke-linejoin="round"/>
<path d="M305.845 52.763L309.5 56.4179" stroke="#111827" stroke-linecap="round" stroke-linejoin="round"/>
<path d="M330.801 46.2816C330.741 45.7778 330.5 45.3867 330.075 45.1083C329.651 44.8299 329.131 44.6907 328.514 44.6907C328.063 44.6907 327.669 44.7636 327.331 44.9094C326.996 45.0553 326.734 45.2558 326.545 45.511C326.36 45.7662 326.267 46.0562 326.267 46.381C326.267 46.6528 326.332 46.8865 326.461 47.082C326.594 47.2743 326.763 47.435 326.968 47.5643C327.174 47.6902 327.389 47.7946 327.614 47.8775C327.84 47.957 328.047 48.0217 328.236 48.0714L329.27 48.3498C329.535 48.4194 329.83 48.5155 330.155 48.6381C330.483 48.7608 330.796 48.9281 331.094 49.1403C331.396 49.3491 331.645 49.6175 331.84 49.9457C332.036 50.2738 332.134 50.6765 332.134 51.1538C332.134 51.704 331.989 52.2011 331.701 52.6452C331.416 53.0894 330.998 53.4424 330.448 53.7042C329.901 53.966 329.237 54.0969 328.455 54.0969C327.725 54.0969 327.094 53.9793 326.56 53.744C326.03 53.5086 325.612 53.1805 325.308 52.7596C325.006 52.3387 324.835 51.8498 324.795 51.293H326.068C326.101 51.6774 326.231 51.9956 326.456 52.2475C326.685 52.4961 326.973 52.6817 327.321 52.8043C327.672 52.9237 328.05 52.9833 328.455 52.9833C328.925 52.9833 329.348 52.9071 329.722 52.7546C330.097 52.5988 330.393 52.3834 330.612 52.1083C330.831 51.8299 330.94 51.5051 330.94 51.1339C330.94 50.7958 330.846 50.5207 330.657 50.3086C330.468 50.0965 330.219 49.9241 329.911 49.7915C329.603 49.659 329.27 49.543 328.912 49.4435L327.659 49.0856C326.864 48.8569 326.234 48.5304 325.77 48.1062C325.306 47.6819 325.074 47.1268 325.074 46.4407C325.074 45.8706 325.228 45.3735 325.536 44.9492C325.848 44.5217 326.265 44.1902 326.789 43.9549C327.316 43.7163 327.904 43.5969 328.554 43.5969C329.21 43.5969 329.794 43.7146 330.304 43.9499C330.814 44.1819 331.219 44.5001 331.517 44.9045C331.819 45.3088 331.978 45.7679 331.994 46.2816H330.801ZM337.203 54.0771C336.468 54.0771 335.833 53.9147 335.299 53.5898C334.769 53.2617 334.36 52.8043 334.071 52.2177C333.786 51.6277 333.644 50.9416 333.644 50.1594C333.644 49.3772 333.786 48.6879 334.071 48.0913C334.36 47.4914 334.761 47.024 335.274 46.6893C335.791 46.3512 336.395 46.1822 337.084 46.1822C337.482 46.1822 337.874 46.2485 338.262 46.381C338.65 46.5136 339.003 46.729 339.321 47.0273C339.639 47.3223 339.893 47.7134 340.082 48.2006C340.271 48.6879 340.365 49.2878 340.365 50.0004V50.4975H334.479V49.4833H339.172C339.172 49.0524 339.086 48.668 338.914 48.3299C338.744 47.9918 338.503 47.725 338.188 47.5295C337.876 47.3339 337.508 47.2362 337.084 47.2362C336.617 47.2362 336.212 47.3522 335.871 47.5842C335.533 47.8129 335.273 48.1112 335.09 48.479C334.908 48.8469 334.817 49.2414 334.817 49.6623V50.3384C334.817 50.9151 334.916 51.404 335.115 51.805C335.317 52.2028 335.597 52.506 335.955 52.7148C336.313 52.9203 336.729 53.0231 337.203 53.0231C337.512 53.0231 337.79 52.98 338.039 52.8938C338.29 52.8043 338.508 52.6718 338.69 52.4961C338.872 52.3171 339.013 52.0951 339.112 51.8299L340.246 52.1481C340.127 52.5326 339.926 52.8706 339.644 53.1623C339.363 53.4506 339.015 53.676 338.6 53.8384C338.186 53.9975 337.72 54.0771 337.203 54.0771ZM344.397 54.0969C343.913 54.0969 343.474 54.0058 343.08 53.8235C342.685 53.6379 342.372 53.3711 342.14 53.0231C341.908 52.6718 341.792 52.2475 341.792 51.7504C341.792 51.3129 341.878 50.9582 342.051 50.6864C342.223 50.4113 342.453 50.1959 342.742 50.0401C343.03 49.8844 343.348 49.7683 343.696 49.6921C344.048 49.6126 344.401 49.5496 344.755 49.5032C345.219 49.4435 345.595 49.3988 345.884 49.369C346.175 49.3358 346.387 49.2811 346.52 49.2049C346.656 49.1287 346.724 48.9961 346.724 48.8072V48.7674C346.724 48.2769 346.59 47.8957 346.321 47.6239C346.056 47.3522 345.653 47.2163 345.113 47.2163C344.553 47.2163 344.114 47.3389 343.796 47.5842C343.477 47.8294 343.254 48.0913 343.124 48.3697L342.011 47.9719C342.21 47.5079 342.475 47.1467 342.806 46.8881C343.141 46.6263 343.506 46.444 343.9 46.3413C344.298 46.2352 344.689 46.1822 345.073 46.1822C345.319 46.1822 345.6 46.212 345.919 46.2717C346.24 46.328 346.55 46.4457 346.848 46.6246C347.15 46.8036 347.4 47.0737 347.599 47.435C347.798 47.7963 347.897 48.2802 347.897 48.8867V53.918H346.724V52.8839H346.664C346.585 53.0496 346.452 53.2269 346.267 53.4158C346.081 53.6048 345.834 53.7655 345.526 53.8981C345.218 54.0307 344.841 54.0969 344.397 54.0969ZM344.576 53.043C345.04 53.043 345.431 52.9518 345.749 52.7695C346.071 52.5872 346.313 52.3519 346.475 52.0636C346.641 51.7752 346.724 51.4719 346.724 51.1538V50.0799C346.674 50.1396 346.565 50.1942 346.396 50.244C346.23 50.2904 346.038 50.3318 345.819 50.3683C345.604 50.4014 345.393 50.4312 345.188 50.4577C344.985 50.4809 344.821 50.5008 344.695 50.5174C344.391 50.5572 344.106 50.6218 343.84 50.7113C343.579 50.7975 343.366 50.9284 343.204 51.104C343.045 51.2764 342.965 51.5117 342.965 51.81C342.965 52.2177 343.116 52.5259 343.418 52.7347C343.723 52.9402 344.109 53.043 344.576 53.043ZM350.039 53.918V46.2816H351.172V47.435H351.252C351.391 47.0572 351.643 46.7506 352.007 46.5153C352.372 46.2799 352.783 46.1623 353.24 46.1623C353.327 46.1623 353.434 46.1639 353.564 46.1673C353.693 46.1706 353.791 46.1755 353.857 46.1822V47.3754C353.817 47.3654 353.726 47.3505 353.583 47.3306C353.444 47.3074 353.297 47.2958 353.141 47.2958C352.77 47.2958 352.438 47.3737 352.147 47.5295C351.858 47.6819 351.63 47.8941 351.461 48.1658C351.295 48.4343 351.212 48.7409 351.212 49.0856V53.918H350.039ZM358.118 54.0771C357.402 54.0771 356.785 53.908 356.268 53.57C355.751 53.2319 355.353 52.7662 355.075 52.1729C354.797 51.5797 354.657 50.9019 354.657 50.1396C354.657 49.364 354.8 48.6796 355.085 48.0863C355.373 47.4897 355.774 47.024 356.288 46.6893C356.805 46.3512 357.408 46.1822 358.098 46.1822C358.635 46.1822 359.118 46.2816 359.549 46.4805C359.98 46.6793 360.333 46.9577 360.608 47.3157C360.883 47.6737 361.054 48.0913 361.12 48.5685H359.947C359.858 48.2205 359.659 47.9123 359.35 47.6438C359.046 47.372 358.635 47.2362 358.118 47.2362C357.66 47.2362 357.259 47.3555 356.914 47.5941C356.573 47.8294 356.306 48.1625 356.114 48.5934C355.925 49.021 355.831 49.5231 355.831 50.0998C355.831 50.6897 355.923 51.2035 356.109 51.641C356.298 52.0785 356.563 52.4182 356.904 52.6602C357.249 52.9021 357.654 53.0231 358.118 53.0231C358.422 53.0231 358.699 52.9701 358.948 52.864C359.196 52.7579 359.407 52.6055 359.579 52.4066C359.752 52.2077 359.874 51.9691 359.947 51.6907H361.12C361.054 52.1415 360.89 52.5475 360.628 52.9087C360.37 53.2667 360.027 53.5517 359.599 53.7638C359.175 53.9727 358.681 54.0771 358.118 54.0771ZM364.009 49.3242V53.918H362.836V43.7362H364.009V47.4748H364.108C364.287 47.0804 364.556 46.7672 364.914 46.5352C365.275 46.2998 365.756 46.1822 366.355 46.1822C366.876 46.1822 367.332 46.2866 367.723 46.4954C368.114 46.7009 368.417 47.0174 368.632 47.445C368.851 47.8692 368.961 48.4094 368.961 49.0657V53.918H367.787V49.1452C367.787 48.5387 367.63 48.0697 367.315 47.7383C367.003 47.4035 366.571 47.2362 366.017 47.2362C365.633 47.2362 365.288 47.3174 364.983 47.4798C364.682 47.6422 364.443 47.8791 364.267 48.1907C364.095 48.5022 364.009 48.8801 364.009 49.3242Z" fill="#9CA3AF"/>
</g>
<rect x="284" y="30.918" width="231" height="36" rx="4" stroke="#E4E4E7"/>
<rect x="37.9019" y="105.988" width="4.34127" height="4.34127" transform="rotate(-45 37.9019 105.988)" stroke="#111827" stroke-linejoin="round"/>
<rect x="37.9019" y="115.848" width="4.34127" height="4.34127" transform="rotate(-45 37.9019 115.848)" stroke="#111827" stroke-linejoin="round"/>
<rect x="42.8606" y="110.942" width="4.34127" height="4.34127" transform="rotate(-45 42.8606 110.942)" stroke="#111827" stroke-linejoin="round"/>
<rect x="33" y="110.942" width="4.34127" height="4.34127" transform="rotate(-45 33 110.942)" stroke="#111827" stroke-linejoin="round"/>
<path d="M58.1477 116.918V105.282H60.2045V109.634H60.2898C60.3958 109.422 60.5455 109.196 60.7386 108.958C60.9318 108.715 61.1932 108.509 61.5227 108.338C61.8523 108.164 62.2727 108.077 62.7841 108.077C63.4583 108.077 64.0663 108.249 64.608 108.594C65.1534 108.935 65.5852 109.441 65.9034 110.111C66.2254 110.778 66.3864 111.596 66.3864 112.566C66.3864 113.524 66.2292 114.338 65.9148 115.009C65.6004 115.679 65.1723 116.191 64.6307 116.543C64.089 116.895 63.4754 117.071 62.7898 117.071C62.2898 117.071 61.875 116.988 61.5455 116.821C61.2159 116.655 60.9508 116.454 60.75 116.219C60.553 115.98 60.3996 115.755 60.2898 115.543H60.1705V116.918H58.1477ZM60.1648 112.554C60.1648 113.119 60.2443 113.613 60.4034 114.037C60.5663 114.462 60.7992 114.793 61.1023 115.032C61.4091 115.266 61.7803 115.384 62.2159 115.384C62.6705 115.384 63.0511 115.263 63.358 115.02C63.6648 114.774 63.8958 114.439 64.0511 114.015C64.2102 113.587 64.2898 113.1 64.2898 112.554C64.2898 112.013 64.2121 111.532 64.0568 111.111C63.9015 110.691 63.6705 110.361 63.3636 110.123C63.0568 109.884 62.6742 109.765 62.2159 109.765C61.7765 109.765 61.4034 109.88 61.0966 110.111C60.7898 110.342 60.5568 110.666 60.3977 111.083C60.2424 111.499 60.1648 111.99 60.1648 112.554ZM70.1918 105.282V116.918H68.1349V105.282H70.1918ZM76.1136 117.088C75.2614 117.088 74.5227 116.901 73.8977 116.526C73.2727 116.151 72.7879 115.626 72.4432 114.952C72.1023 114.278 71.9318 113.49 71.9318 112.588C71.9318 111.687 72.1023 110.897 72.4432 110.219C72.7879 109.541 73.2727 109.015 73.8977 108.64C74.5227 108.265 75.2614 108.077 76.1136 108.077C76.9659 108.077 77.7045 108.265 78.3295 108.64C78.9545 109.015 79.4375 109.541 79.7784 110.219C80.1231 110.897 80.2955 111.687 80.2955 112.588C80.2955 113.49 80.1231 114.278 79.7784 114.952C79.4375 115.626 78.9545 116.151 78.3295 116.526C77.7045 116.901 76.9659 117.088 76.1136 117.088ZM76.125 115.441C76.5871 115.441 76.9735 115.314 77.2841 115.06C77.5947 114.802 77.8258 114.458 77.9773 114.026C78.1326 113.594 78.2102 113.113 78.2102 112.583C78.2102 112.049 78.1326 111.566 77.9773 111.134C77.8258 110.698 77.5947 110.352 77.2841 110.094C76.9735 109.837 76.5871 109.708 76.125 109.708C75.6515 109.708 75.2576 109.837 74.9432 110.094C74.6326 110.352 74.3996 110.698 74.2443 111.134C74.0928 111.566 74.017 112.049 74.017 112.583C74.017 113.113 74.0928 113.594 74.2443 114.026C74.3996 114.458 74.6326 114.802 74.9432 115.06C75.2576 115.314 75.6515 115.441 76.125 115.441ZM85.8366 120.373C85.098 120.373 84.4635 120.272 83.9332 120.071C83.4029 119.874 82.9768 119.609 82.6548 119.276C82.3329 118.943 82.1094 118.573 81.9844 118.168L83.8366 117.719C83.92 117.89 84.0412 118.058 84.2003 118.225C84.3594 118.395 84.5734 118.535 84.8423 118.645C85.1151 118.759 85.4579 118.816 85.8707 118.816C86.4541 118.816 86.937 118.674 87.3196 118.39C87.7022 118.109 87.8935 117.647 87.8935 117.003V115.35H87.7912C87.6851 115.562 87.5298 115.78 87.3253 116.003C87.1245 116.227 86.8575 116.414 86.5241 116.566C86.1946 116.717 85.7798 116.793 85.2798 116.793C84.6094 116.793 84.0014 116.636 83.456 116.321C82.9143 116.003 82.4825 115.53 82.1605 114.901C81.8423 114.268 81.6832 113.477 81.6832 112.526C81.6832 111.568 81.8423 110.759 82.1605 110.1C82.4825 109.437 82.9162 108.935 83.4616 108.594C84.0071 108.249 84.6151 108.077 85.2855 108.077C85.7969 108.077 86.2173 108.164 86.5469 108.338C86.8802 108.509 87.1454 108.715 87.3423 108.958C87.5393 109.196 87.6889 109.422 87.7912 109.634H87.9048V108.191H89.9332V117.06C89.9332 117.806 89.7552 118.424 89.3991 118.912C89.0431 119.401 88.5563 119.766 87.9389 120.009C87.3215 120.251 86.6207 120.373 85.8366 120.373ZM85.8537 115.179C86.2893 115.179 86.6605 115.073 86.9673 114.861C87.2741 114.649 87.5071 114.344 87.6662 113.946C87.8253 113.549 87.9048 113.071 87.9048 112.515C87.9048 111.965 87.8253 111.484 87.6662 111.071C87.5109 110.658 87.2798 110.338 86.973 110.111C86.67 109.88 86.2969 109.765 85.8537 109.765C85.3954 109.765 85.0128 109.884 84.706 110.123C84.3991 110.361 84.1681 110.689 84.0128 111.105C83.8575 111.518 83.7798 111.988 83.7798 112.515C83.7798 113.049 83.8575 113.516 84.0128 113.918C84.1719 114.316 84.4048 114.626 84.7116 114.85C85.0223 115.069 85.4029 115.179 85.8537 115.179Z" fill="#111827"/>
<path fill-rule="evenodd" clip-rule="evenodd" d="M106 103.856C103.816 103.856 102.046 105.626 102.046 107.81V109.382C102.046 109.382 102.046 109.382 102.046 109.382H99.7832C99.5071 109.382 99.2832 109.606 99.2832 109.882V117.48C99.2832 117.756 99.5071 117.98 99.7832 117.98H112.217C112.493 117.98 112.717 117.756 112.717 117.48V109.882C112.717 109.606 112.493 109.382 112.217 109.382H109.954C109.954 109.382 109.954 109.382 109.954 109.382V107.81C109.954 105.626 108.184 103.856 106 103.856ZM103.046 107.81C103.046 106.178 104.369 104.856 106 104.856C107.631 104.856 108.954 106.178 108.954 107.81V109.382H103.046V107.81ZM100.283 116.98V110.382H111.717V116.98H100.283Z" fill="#111827"/>
<path d="M125.236 116.057C124.652 116.057 124.127 115.941 123.66 115.709C123.192 115.477 122.818 115.159 122.536 114.755C122.254 114.35 122.1 113.89 122.074 113.373H123.267C123.313 113.833 123.522 114.214 123.893 114.516C124.268 114.814 124.715 114.963 125.236 114.963C125.653 114.963 126.025 114.866 126.349 114.67C126.678 114.475 126.934 114.206 127.12 113.865C127.309 113.52 127.403 113.131 127.403 112.696C127.403 112.252 127.306 111.856 127.11 111.508C126.918 111.157 126.653 110.88 126.315 110.678C125.977 110.476 125.59 110.373 125.156 110.37C124.845 110.366 124.525 110.414 124.197 110.514C123.869 110.61 123.598 110.734 123.386 110.887L122.233 110.748L122.849 105.736H128.139V106.83H123.884L123.526 109.833H123.585C123.794 109.667 124.056 109.529 124.371 109.42C124.686 109.311 125.014 109.256 125.355 109.256C125.978 109.256 126.533 109.405 127.021 109.703C127.511 109.998 127.896 110.403 128.174 110.917C128.456 111.43 128.597 112.017 128.597 112.676C128.597 113.326 128.451 113.906 128.159 114.417C127.871 114.924 127.473 115.325 126.966 115.62C126.459 115.911 125.882 116.057 125.236 116.057ZM133.813 105.597C134.231 105.6 134.648 105.68 135.066 105.836C135.483 105.991 135.865 106.25 136.209 106.611C136.554 106.969 136.831 107.458 137.04 108.078C137.248 108.698 137.353 109.475 137.353 110.409C137.353 111.314 137.267 112.118 137.094 112.821C136.925 113.52 136.68 114.11 136.358 114.591C136.04 115.071 135.653 115.436 135.195 115.684C134.741 115.933 134.227 116.057 133.654 116.057C133.084 116.057 132.575 115.944 132.128 115.719C131.684 115.49 131.319 115.174 131.034 114.77C130.752 114.362 130.572 113.89 130.492 113.353H131.705C131.814 113.82 132.032 114.206 132.356 114.511C132.684 114.813 133.117 114.963 133.654 114.963C134.439 114.963 135.059 114.62 135.513 113.934C135.971 113.248 136.199 112.279 136.199 111.026H136.12C135.934 111.304 135.714 111.545 135.459 111.747C135.203 111.949 134.92 112.105 134.608 112.214C134.297 112.324 133.965 112.378 133.614 112.378C133.031 112.378 132.496 112.234 132.008 111.946C131.524 111.654 131.137 111.255 130.845 110.748C130.557 110.237 130.412 109.654 130.412 108.998C130.412 108.374 130.552 107.804 130.83 107.287C131.112 106.767 131.506 106.353 132.013 106.044C132.524 105.736 133.124 105.587 133.813 105.597ZM133.813 106.691C133.395 106.691 133.019 106.795 132.684 107.004C132.353 107.209 132.09 107.488 131.894 107.839C131.702 108.187 131.606 108.573 131.606 108.998C131.606 109.422 131.698 109.808 131.884 110.156C132.073 110.501 132.33 110.776 132.655 110.981C132.983 111.183 133.356 111.284 133.773 111.284C134.088 111.284 134.381 111.223 134.653 111.1C134.925 110.975 135.162 110.804 135.364 110.588C135.57 110.37 135.73 110.123 135.846 109.848C135.962 109.569 136.02 109.279 136.02 108.978C136.02 108.58 135.924 108.207 135.732 107.859C135.543 107.511 135.281 107.229 134.947 107.014C134.615 106.798 134.237 106.691 133.813 106.691ZM142.887 105.736V115.918H141.654V107.029H141.595L139.109 108.679V107.426L141.654 105.736H142.887ZM148.719 116.077C148.083 116.077 147.521 115.916 147.034 115.595C146.547 115.27 146.165 114.813 145.89 114.223C145.615 113.629 145.478 112.928 145.478 112.12C145.478 111.318 145.615 110.622 145.89 110.032C146.165 109.442 146.548 108.986 147.039 108.664C147.529 108.343 148.096 108.182 148.739 108.182C149.236 108.182 149.629 108.265 149.917 108.431C150.209 108.593 150.431 108.779 150.583 108.988C150.739 109.193 150.86 109.362 150.946 109.495H151.046V105.736H152.219V115.918H151.086V114.745H150.946C150.86 114.884 150.738 115.06 150.578 115.272C150.419 115.48 150.192 115.668 149.897 115.833C149.602 115.996 149.21 116.077 148.719 116.077ZM148.878 115.023C149.349 115.023 149.747 114.9 150.071 114.655C150.396 114.407 150.643 114.064 150.812 113.626C150.981 113.185 151.066 112.676 151.066 112.1C151.066 111.53 150.983 111.031 150.817 110.603C150.651 110.172 150.406 109.838 150.081 109.599C149.757 109.357 149.355 109.236 148.878 109.236C148.381 109.236 147.967 109.364 147.635 109.619C147.307 109.871 147.06 110.214 146.895 110.648C146.732 111.079 146.651 111.563 146.651 112.1C146.651 112.643 146.734 113.137 146.9 113.581C147.069 114.022 147.317 114.373 147.645 114.635C147.977 114.894 148.388 115.023 148.878 115.023ZM160.716 116.097C160.232 116.097 159.792 116.006 159.398 115.824C159.004 115.638 158.69 115.371 158.458 115.023C158.226 114.672 158.11 114.248 158.11 113.75C158.11 113.313 158.197 112.958 158.369 112.686C158.541 112.411 158.772 112.196 159.06 112.04C159.348 111.884 159.667 111.768 160.015 111.692C160.366 111.613 160.719 111.55 161.074 111.503C161.538 111.444 161.914 111.399 162.202 111.369C162.494 111.336 162.706 111.281 162.838 111.205C162.974 111.129 163.042 110.996 163.042 110.807V110.767C163.042 110.277 162.908 109.896 162.64 109.624C162.374 109.352 161.972 109.216 161.431 109.216C160.871 109.216 160.432 109.339 160.114 109.584C159.796 109.829 159.572 110.091 159.443 110.37L158.329 109.972C158.528 109.508 158.793 109.147 159.125 108.888C159.459 108.626 159.824 108.444 160.218 108.341C160.616 108.235 161.007 108.182 161.392 108.182C161.637 108.182 161.919 108.212 162.237 108.272C162.558 108.328 162.868 108.446 163.167 108.625C163.468 108.804 163.718 109.074 163.917 109.435C164.116 109.796 164.216 110.28 164.216 110.887V115.918H163.042V114.884H162.983C162.903 115.05 162.77 115.227 162.585 115.416C162.399 115.605 162.152 115.766 161.844 115.898C161.536 116.031 161.16 116.097 160.716 116.097ZM160.895 115.043C161.359 115.043 161.75 114.952 162.068 114.77C162.389 114.587 162.631 114.352 162.794 114.064C162.959 113.775 163.042 113.472 163.042 113.154V112.08C162.993 112.14 162.883 112.194 162.714 112.244C162.548 112.29 162.356 112.332 162.137 112.368C161.922 112.401 161.712 112.431 161.506 112.458C161.304 112.481 161.14 112.501 161.014 112.517C160.709 112.557 160.424 112.622 160.159 112.711C159.897 112.797 159.685 112.928 159.522 113.104C159.363 113.276 159.284 113.512 159.284 113.81C159.284 114.218 159.435 114.526 159.736 114.735C160.041 114.94 160.427 115.043 160.895 115.043ZM169.439 118.941C168.873 118.941 168.385 118.868 167.978 118.722C167.57 118.579 167.23 118.391 166.959 118.155C166.69 117.923 166.476 117.675 166.317 117.409L167.252 116.753C167.358 116.892 167.492 117.051 167.655 117.23C167.817 117.413 168.039 117.57 168.321 117.703C168.606 117.839 168.979 117.907 169.439 117.907C170.056 117.907 170.565 117.757 170.966 117.459C171.367 117.161 171.567 116.694 171.567 116.057V114.506H171.468C171.382 114.645 171.259 114.818 171.1 115.023C170.944 115.225 170.719 115.406 170.424 115.565C170.132 115.721 169.738 115.799 169.241 115.799C168.624 115.799 168.071 115.653 167.58 115.361C167.093 115.069 166.707 114.645 166.422 114.088C166.14 113.532 165.999 112.855 165.999 112.06C165.999 111.278 166.137 110.597 166.412 110.017C166.687 109.433 167.07 108.983 167.56 108.664C168.051 108.343 168.617 108.182 169.26 108.182C169.758 108.182 170.152 108.265 170.444 108.431C170.739 108.593 170.964 108.779 171.12 108.988C171.279 109.193 171.402 109.362 171.488 109.495H171.607V108.282H172.741V116.137C172.741 116.793 172.591 117.327 172.293 117.738C171.998 118.152 171.6 118.455 171.1 118.647C170.603 118.843 170.049 118.941 169.439 118.941ZM169.4 114.745C169.87 114.745 170.268 114.637 170.593 114.422C170.918 114.206 171.165 113.896 171.334 113.492C171.503 113.087 171.587 112.604 171.587 112.04C171.587 111.49 171.504 111.004 171.339 110.583C171.173 110.163 170.928 109.833 170.603 109.594C170.278 109.355 169.877 109.236 169.4 109.236C168.903 109.236 168.488 109.362 168.157 109.614C167.829 109.866 167.582 110.204 167.416 110.628C167.254 111.052 167.172 111.523 167.172 112.04C167.172 112.57 167.255 113.039 167.421 113.447C167.59 113.851 167.839 114.17 168.167 114.402C168.498 114.63 168.909 114.745 169.4 114.745ZM177.991 116.077C177.301 116.077 176.696 115.913 176.176 115.585C175.659 115.257 175.255 114.798 174.963 114.208C174.675 113.618 174.53 112.928 174.53 112.14C174.53 111.344 174.675 110.65 174.963 110.056C175.255 109.463 175.659 109.002 176.176 108.674C176.696 108.346 177.301 108.182 177.991 108.182C178.68 108.182 179.283 108.346 179.8 108.674C180.321 109.002 180.725 109.463 181.013 110.056C181.305 110.65 181.451 111.344 181.451 112.14C181.451 112.928 181.305 113.618 181.013 114.208C180.725 114.798 180.321 115.257 179.8 115.585C179.283 115.913 178.68 116.077 177.991 116.077ZM177.991 115.023C178.514 115.023 178.945 114.889 179.283 114.62C179.621 114.352 179.872 113.999 180.034 113.561C180.196 113.124 180.278 112.65 180.278 112.14C180.278 111.629 180.196 111.154 180.034 110.713C179.872 110.272 179.621 109.916 179.283 109.644C178.945 109.372 178.514 109.236 177.991 109.236C177.467 109.236 177.036 109.372 176.698 109.644C176.36 109.916 176.11 110.272 175.947 110.713C175.785 111.154 175.704 111.629 175.704 112.14C175.704 112.65 175.785 113.124 175.947 113.561C176.11 113.999 176.36 114.352 176.698 114.62C177.036 114.889 177.467 115.023 177.991 115.023Z" fill="#111827"/>
<rect x="499" y="102.918" width="16" height="16" rx="8" fill="white"/>
<rect x="499" y="102.918" width="16" height="16" rx="8" stroke="#E4E4E7"/>
<rect x="37.9019" y="161.988" width="4.34127" height="4.34127" transform="rotate(-45 37.9019 161.988)" stroke="#111827" stroke-linejoin="round"/>
<rect x="37.9019" y="171.848" width="4.34127" height="4.34127" transform="rotate(-45 37.9019 171.848)" stroke="#111827" stroke-linejoin="round"/>
<rect x="42.8606" y="166.942" width="4.34127" height="4.34127" transform="rotate(-45 42.8606 166.942)" stroke="#111827" stroke-linejoin="round"/>
<rect x="33" y="166.942" width="4.34127" height="4.34127" transform="rotate(-45 33 166.942)" stroke="#111827" stroke-linejoin="round"/>
<path d="M58.0568 176.191V164.191H60.0795V165.634H60.1989C60.3049 165.422 60.4545 165.196 60.6477 164.958C60.8409 164.715 61.1023 164.509 61.4318 164.338C61.7614 164.164 62.1818 164.077 62.6932 164.077C63.3674 164.077 63.9754 164.249 64.517 164.594C65.0625 164.935 65.4943 165.441 65.8125 166.111C66.1345 166.778 66.2955 167.596 66.2955 168.566C66.2955 169.524 66.1383 170.338 65.8239 171.009C65.5095 171.679 65.0814 172.191 64.5398 172.543C63.9981 172.895 63.3845 173.071 62.6989 173.071C62.1989 173.071 61.7841 172.988 61.4545 172.821C61.125 172.655 60.8598 172.454 60.6591 172.219C60.4621 171.98 60.3087 171.755 60.1989 171.543H60.1136V176.191H58.0568ZM60.0739 168.554C60.0739 169.119 60.1534 169.613 60.3125 170.037C60.4754 170.462 60.7083 170.793 61.0114 171.032C61.3182 171.266 61.6894 171.384 62.125 171.384C62.5795 171.384 62.9602 171.263 63.267 171.02C63.5739 170.774 63.8049 170.439 63.9602 170.015C64.1193 169.587 64.1989 169.1 64.1989 168.554C64.1989 168.013 64.1212 167.532 63.9659 167.111C63.8106 166.691 63.5795 166.361 63.2727 166.123C62.9659 165.884 62.5833 165.765 62.125 165.765C61.6856 165.765 61.3125 165.88 61.0057 166.111C60.6989 166.342 60.4659 166.666 60.3068 167.083C60.1515 167.499 60.0739 167.99 60.0739 168.554ZM70.1136 161.282V172.918H68.0568V161.282H70.1136ZM74.7401 173.094C74.187 173.094 73.6889 172.996 73.2457 172.799C72.8063 172.598 72.4579 172.302 72.2003 171.912C71.9465 171.522 71.8196 171.041 71.8196 170.469C71.8196 169.977 71.9105 169.569 72.0923 169.248C72.2741 168.926 72.5223 168.668 72.8366 168.475C73.151 168.282 73.5052 168.136 73.8991 168.037C74.2969 167.935 74.7079 167.861 75.1321 167.816C75.6435 167.763 76.0582 167.715 76.3764 167.674C76.6946 167.628 76.9257 167.56 77.0696 167.469C77.2173 167.374 77.2912 167.229 77.2912 167.032V166.998C77.2912 166.569 77.1643 166.238 76.9105 166.003C76.6567 165.768 76.2912 165.651 75.8139 165.651C75.3101 165.651 74.9105 165.761 74.6151 165.98C74.3234 166.2 74.1264 166.46 74.0241 166.759L72.1037 166.486C72.2552 165.956 72.5052 165.513 72.8537 165.157C73.2022 164.797 73.6283 164.528 74.1321 164.35C74.6359 164.168 75.1927 164.077 75.8026 164.077C76.223 164.077 76.6416 164.126 77.0582 164.225C77.4749 164.323 77.8556 164.486 78.2003 164.713C78.545 164.937 78.8215 165.242 79.0298 165.628C79.242 166.015 79.348 166.498 79.348 167.077V172.918H77.3707V171.719H77.3026C77.1776 171.962 77.0014 172.189 76.7741 172.401C76.5507 172.609 76.2685 172.778 75.9276 172.907C75.5904 173.032 75.1946 173.094 74.7401 173.094ZM75.2741 171.583C75.687 171.583 76.045 171.501 76.348 171.338C76.651 171.172 76.884 170.952 77.0469 170.679C77.2135 170.407 77.2969 170.109 77.2969 169.787V168.759C77.2325 168.812 77.1226 168.861 76.9673 168.907C76.8158 168.952 76.6454 168.992 76.456 169.026C76.2666 169.06 76.0791 169.09 75.8935 169.117C75.7079 169.143 75.5469 169.166 75.4105 169.185C75.1037 169.227 74.8291 169.295 74.5866 169.39C74.3442 169.484 74.1529 169.617 74.0128 169.787C73.8726 169.954 73.8026 170.17 73.8026 170.435C73.8026 170.814 73.9408 171.1 74.2173 171.293C74.4938 171.486 74.8461 171.583 75.2741 171.583ZM83.098 164.191L84.8594 167.412L86.6491 164.191H88.8253L86.1946 168.554L88.8707 172.918H86.706L84.8594 169.776L83.0298 172.918H80.848L83.5071 168.554L80.9162 164.191H83.098ZM93.8949 173.088C93.0426 173.088 92.304 172.901 91.679 172.526C91.054 172.151 90.5691 171.626 90.2244 170.952C89.8835 170.278 89.7131 169.49 89.7131 168.588C89.7131 167.687 89.8835 166.897 90.2244 166.219C90.5691 165.541 91.054 165.015 91.679 164.64C92.304 164.265 93.0426 164.077 93.8949 164.077C94.7472 164.077 95.4858 164.265 96.1108 164.64C96.7358 165.015 97.2188 165.541 97.5597 166.219C97.9044 166.897 98.0767 167.687 98.0767 168.588C98.0767 169.49 97.9044 170.278 97.5597 170.952C97.2188 171.626 96.7358 172.151 96.1108 172.526C95.4858 172.901 94.7472 173.088 93.8949 173.088ZM93.9062 171.441C94.3684 171.441 94.7547 171.314 95.0653 171.06C95.3759 170.802 95.607 170.458 95.7585 170.026C95.9138 169.594 95.9915 169.113 95.9915 168.583C95.9915 168.049 95.9138 167.566 95.7585 167.134C95.607 166.698 95.3759 166.352 95.0653 166.094C94.7547 165.837 94.3684 165.708 93.9062 165.708C93.4328 165.708 93.0388 165.837 92.7244 166.094C92.4138 166.352 92.1809 166.698 92.0256 167.134C91.8741 167.566 91.7983 168.049 91.7983 168.583C91.7983 169.113 91.8741 169.594 92.0256 170.026C92.1809 170.458 92.4138 170.802 92.7244 171.06C93.0388 171.314 93.4328 171.441 93.9062 171.441ZM101.879 167.804V172.918H99.8224V164.191H101.788V165.674H101.891C102.091 165.185 102.411 164.797 102.851 164.509C103.294 164.221 103.841 164.077 104.493 164.077C105.095 164.077 105.62 164.206 106.067 164.463C106.518 164.721 106.866 165.094 107.112 165.583C107.362 166.071 107.485 166.664 107.482 167.361V172.918H105.425V167.679C105.425 167.096 105.273 166.64 104.97 166.31C104.671 165.98 104.256 165.816 103.726 165.816C103.366 165.816 103.046 165.895 102.766 166.054C102.489 166.21 102.271 166.435 102.112 166.73C101.957 167.026 101.879 167.384 101.879 167.804ZM109.572 172.918V164.191H111.629V172.918H109.572ZM110.607 162.952C110.281 162.952 110 162.844 109.766 162.628C109.531 162.408 109.413 162.145 109.413 161.838C109.413 161.528 109.531 161.265 109.766 161.049C110 160.829 110.281 160.719 110.607 160.719C110.936 160.719 111.216 160.829 111.447 161.049C111.682 161.265 111.8 161.528 111.8 161.838C111.8 162.145 111.682 162.408 111.447 162.628C111.216 162.844 110.936 162.952 110.607 162.952ZM117.551 173.088C116.68 173.088 115.932 172.897 115.307 172.515C114.686 172.132 114.206 171.604 113.869 170.929C113.536 170.251 113.369 169.471 113.369 168.588C113.369 167.702 113.54 166.92 113.881 166.242C114.222 165.56 114.703 165.03 115.324 164.651C115.949 164.268 116.688 164.077 117.54 164.077C118.248 164.077 118.875 164.208 119.42 164.469C119.97 164.727 120.407 165.092 120.733 165.566C121.059 166.035 121.244 166.585 121.29 167.213H119.324C119.244 166.793 119.055 166.443 118.756 166.162C118.46 165.878 118.064 165.736 117.568 165.736C117.148 165.736 116.778 165.85 116.46 166.077C116.142 166.301 115.894 166.623 115.716 167.043C115.542 167.463 115.455 167.967 115.455 168.554C115.455 169.149 115.542 169.66 115.716 170.088C115.89 170.513 116.134 170.84 116.449 171.071C116.767 171.299 117.14 171.412 117.568 171.412C117.871 171.412 118.142 171.355 118.381 171.242C118.623 171.124 118.826 170.956 118.989 170.736C119.152 170.516 119.263 170.249 119.324 169.935H121.29C121.241 170.552 121.059 171.1 120.744 171.577C120.43 172.051 120.002 172.422 119.46 172.691C118.919 172.956 118.282 173.088 117.551 173.088Z" fill="#111827"/>
<path fill-rule="evenodd" clip-rule="evenodd" d="M137 159.856C134.816 159.856 133.046 161.626 133.046 163.81V165.382C133.046 165.382 133.046 165.382 133.046 165.382H130.783C130.507 165.382 130.283 165.606 130.283 165.882V173.48C130.283 173.756 130.507 173.98 130.783 173.98H143.217C143.493 173.98 143.717 173.756 143.717 173.48V165.882C143.717 165.606 143.493 165.382 143.217 165.382H140.954C140.954 165.382 140.954 165.382 140.954 165.382V163.81C140.954 161.626 139.184 159.856 137 159.856ZM134.046 163.81C134.046 162.178 135.369 160.856 137 160.856C138.631 160.856 139.954 162.178 139.954 163.81V165.382H134.046V163.81ZM131.283 172.98V166.382H142.717V172.98H131.283Z" fill="#111827"/>
<path d="M156.295 161.597C156.713 161.6 157.131 161.68 157.548 161.836C157.966 161.991 158.347 162.25 158.692 162.611C159.036 162.969 159.313 163.458 159.522 164.078C159.731 164.698 159.835 165.475 159.835 166.409C159.835 167.314 159.749 168.118 159.577 168.821C159.408 169.52 159.162 170.11 158.841 170.591C158.523 171.071 158.135 171.436 157.678 171.684C157.223 171.933 156.71 172.057 156.136 172.057C155.566 172.057 155.058 171.944 154.61 171.719C154.166 171.49 153.801 171.174 153.516 170.77C153.235 170.362 153.054 169.89 152.974 169.353H154.188C154.297 169.82 154.514 170.206 154.839 170.511C155.167 170.813 155.599 170.963 156.136 170.963C156.922 170.963 157.542 170.62 157.996 169.934C158.453 169.248 158.682 168.279 158.682 167.026H158.602C158.417 167.304 158.196 167.545 157.941 167.747C157.686 167.949 157.402 168.105 157.091 168.214C156.779 168.324 156.448 168.378 156.097 168.378C155.513 168.378 154.978 168.234 154.491 167.946C154.007 167.654 153.619 167.255 153.327 166.748C153.039 166.237 152.895 165.654 152.895 164.998C152.895 164.374 153.034 163.804 153.312 163.287C153.594 162.767 153.989 162.353 154.496 162.044C155.006 161.736 155.606 161.587 156.295 161.597ZM156.295 162.691C155.878 162.691 155.502 162.795 155.167 163.004C154.835 163.209 154.572 163.488 154.376 163.839C154.184 164.187 154.088 164.573 154.088 164.998C154.088 165.422 154.181 165.808 154.366 166.156C154.555 166.501 154.812 166.776 155.137 166.981C155.465 167.183 155.838 167.284 156.256 167.284C156.571 167.284 156.864 167.223 157.136 167.1C157.407 166.975 157.644 166.804 157.847 166.588C158.052 166.37 158.213 166.123 158.329 165.848C158.445 165.569 158.503 165.279 158.503 164.978C158.503 164.58 158.407 164.207 158.214 163.859C158.026 163.511 157.764 163.229 157.429 163.014C157.098 162.798 156.72 162.691 156.295 162.691ZM165.37 161.736V171.918H164.137V163.029H164.077L161.591 164.679V163.426L164.137 161.736H165.37ZM171.202 172.077C170.565 172.077 170.003 171.916 169.516 171.595C169.029 171.27 168.648 170.813 168.373 170.223C168.098 169.629 167.96 168.928 167.96 168.12C167.96 167.318 168.098 166.622 168.373 166.032C168.648 165.442 169.031 164.986 169.521 164.664C170.012 164.343 170.578 164.182 171.221 164.182C171.719 164.182 172.111 164.265 172.4 164.431C172.691 164.593 172.913 164.779 173.066 164.988C173.222 165.193 173.343 165.362 173.429 165.495H173.528V161.736H174.702V171.918H173.568V170.745H173.429C173.343 170.884 173.22 171.06 173.061 171.272C172.902 171.48 172.675 171.668 172.38 171.833C172.085 171.996 171.692 172.077 171.202 172.077ZM171.361 171.023C171.831 171.023 172.229 170.9 172.554 170.655C172.879 170.407 173.126 170.064 173.295 169.626C173.464 169.185 173.548 168.676 173.548 168.1C173.548 167.53 173.465 167.031 173.3 166.603C173.134 166.172 172.889 165.838 172.564 165.599C172.239 165.357 171.838 165.236 171.361 165.236C170.863 165.236 170.449 165.364 170.118 165.619C169.79 165.871 169.543 166.214 169.377 166.648C169.215 167.079 169.133 167.563 169.133 168.1C169.133 168.643 169.216 169.137 169.382 169.581C169.551 170.022 169.8 170.373 170.128 170.635C170.459 170.894 170.87 171.023 171.361 171.023ZM183.198 172.097C182.714 172.097 182.275 172.006 181.881 171.824C181.486 171.638 181.173 171.371 180.941 171.023C180.709 170.672 180.593 170.248 180.593 169.75C180.593 169.313 180.679 168.958 180.851 168.686C181.024 168.411 181.254 168.196 181.542 168.04C181.831 167.884 182.149 167.768 182.497 167.692C182.848 167.613 183.201 167.55 183.556 167.503C184.02 167.444 184.396 167.399 184.684 167.369C184.976 167.336 185.188 167.281 185.321 167.205C185.457 167.129 185.525 166.996 185.525 166.807V166.767C185.525 166.277 185.39 165.896 185.122 165.624C184.857 165.352 184.454 165.216 183.914 165.216C183.354 165.216 182.915 165.339 182.596 165.584C182.278 165.829 182.055 166.091 181.925 166.37L180.812 165.972C181.01 165.508 181.276 165.147 181.607 164.888C181.942 164.626 182.306 164.444 182.701 164.341C183.099 164.235 183.49 164.182 183.874 164.182C184.119 164.182 184.401 164.212 184.719 164.272C185.041 164.328 185.351 164.446 185.649 164.625C185.951 164.804 186.201 165.074 186.4 165.435C186.599 165.796 186.698 166.28 186.698 166.887V171.918H185.525V170.884H185.465C185.385 171.05 185.253 171.227 185.067 171.416C184.882 171.605 184.635 171.766 184.327 171.898C184.018 172.031 183.642 172.097 183.198 172.097ZM183.377 171.043C183.841 171.043 184.232 170.952 184.55 170.77C184.872 170.587 185.114 170.352 185.276 170.064C185.442 169.775 185.525 169.472 185.525 169.154V168.08C185.475 168.14 185.366 168.194 185.197 168.244C185.031 168.29 184.839 168.332 184.62 168.368C184.404 168.401 184.194 168.431 183.988 168.458C183.786 168.481 183.622 168.501 183.496 168.517C183.191 168.557 182.906 168.622 182.641 168.711C182.379 168.797 182.167 168.928 182.005 169.104C181.846 169.276 181.766 169.512 181.766 169.81C181.766 170.218 181.917 170.526 182.219 170.735C182.523 170.94 182.91 171.043 183.377 171.043ZM191.922 174.941C191.355 174.941 190.868 174.868 190.46 174.722C190.053 174.579 189.713 174.391 189.441 174.155C189.173 173.923 188.959 173.675 188.8 173.409L189.734 172.753C189.84 172.892 189.975 173.051 190.137 173.23C190.299 173.413 190.522 173.57 190.803 173.703C191.088 173.839 191.461 173.907 191.922 173.907C192.538 173.907 193.047 173.757 193.448 173.459C193.849 173.161 194.05 172.694 194.05 172.057V170.506H193.95C193.864 170.645 193.741 170.818 193.582 171.023C193.427 171.225 193.201 171.406 192.906 171.565C192.615 171.721 192.22 171.799 191.723 171.799C191.107 171.799 190.553 171.653 190.062 171.361C189.575 171.069 189.189 170.645 188.904 170.088C188.622 169.532 188.482 168.855 188.482 168.06C188.482 167.278 188.619 166.597 188.894 166.017C189.169 165.433 189.552 164.983 190.043 164.664C190.533 164.343 191.1 164.182 191.743 164.182C192.24 164.182 192.634 164.265 192.926 164.431C193.221 164.593 193.446 164.779 193.602 164.988C193.761 165.193 193.884 165.362 193.97 165.495H194.089V164.282H195.223V172.137C195.223 172.793 195.074 173.327 194.776 173.738C194.481 174.152 194.083 174.455 193.582 174.647C193.085 174.843 192.532 174.941 191.922 174.941ZM191.882 170.745C192.353 170.745 192.75 170.637 193.075 170.422C193.4 170.206 193.647 169.896 193.816 169.492C193.985 169.087 194.07 168.604 194.07 168.04C194.07 167.49 193.987 167.004 193.821 166.583C193.655 166.163 193.41 165.833 193.085 165.594C192.76 165.355 192.359 165.236 191.882 165.236C191.385 165.236 190.971 165.362 190.639 165.614C190.311 165.866 190.064 166.204 189.898 166.628C189.736 167.052 189.655 167.523 189.655 168.04C189.655 168.57 189.738 169.039 189.903 169.447C190.072 169.851 190.321 170.17 190.649 170.402C190.981 170.63 191.392 170.745 191.882 170.745ZM200.473 172.077C199.784 172.077 199.179 171.913 198.658 171.585C198.141 171.257 197.737 170.798 197.445 170.208C197.157 169.618 197.013 168.928 197.013 168.14C197.013 167.344 197.157 166.65 197.445 166.056C197.737 165.463 198.141 165.002 198.658 164.674C199.179 164.346 199.784 164.182 200.473 164.182C201.162 164.182 201.766 164.346 202.283 164.674C202.803 165.002 203.207 165.463 203.496 166.056C203.787 166.65 203.933 167.344 203.933 168.14C203.933 168.928 203.787 169.618 203.496 170.208C203.207 170.798 202.803 171.257 202.283 171.585C201.766 171.913 201.162 172.077 200.473 172.077ZM200.473 171.023C200.997 171.023 201.428 170.889 201.766 170.62C202.104 170.352 202.354 169.999 202.516 169.561C202.679 169.124 202.76 168.65 202.76 168.14C202.76 167.629 202.679 167.154 202.516 166.713C202.354 166.272 202.104 165.916 201.766 165.644C201.428 165.372 200.997 165.236 200.473 165.236C199.949 165.236 199.518 165.372 199.18 165.644C198.842 165.916 198.592 166.272 198.43 166.713C198.267 167.154 198.186 167.629 198.186 168.14C198.186 168.65 198.267 169.124 198.43 169.561C198.592 169.999 198.842 170.352 199.18 170.62C199.518 170.889 199.949 171.023 200.473 171.023Z" fill="#111827"/>
<rect x="499" y="158.918" width="16" height="16" rx="8" fill="white"/>
<rect x="499" y="158.918" width="16" height="16" rx="8" stroke="#E4E4E7"/>
<rect x="37.9019" y="217.988" width="4.34127" height="4.34127" transform="rotate(-45 37.9019 217.988)" stroke="#111827" stroke-linejoin="round"/>
<rect x="37.9019" y="227.848" width="4.34127" height="4.34127" transform="rotate(-45 37.9019 227.848)" stroke="#111827" stroke-linejoin="round"/>
<rect x="42.8606" y="222.942" width="4.34127" height="4.34127" transform="rotate(-45 42.8606 222.942)" stroke="#111827" stroke-linejoin="round"/>
<rect x="33" y="222.942" width="4.34127" height="4.34127" transform="rotate(-45 33 222.942)" stroke="#111827" stroke-linejoin="round"/>
<path d="M64.9545 222.498L63.0795 222.702C63.0265 222.513 62.9337 222.335 62.8011 222.168C62.6723 222.001 62.4981 221.867 62.2784 221.765C62.0587 221.662 61.7898 221.611 61.4716 221.611C61.0436 221.611 60.6837 221.704 60.392 221.89C60.1042 222.075 59.9621 222.316 59.9659 222.611C59.9621 222.865 60.0549 223.071 60.2443 223.23C60.4375 223.39 60.7557 223.52 61.1989 223.623L62.6875 223.941C63.5133 224.119 64.1269 224.401 64.5284 224.787C64.9337 225.174 65.1383 225.679 65.142 226.304C65.1383 226.854 64.9773 227.338 64.6591 227.759C64.3447 228.176 63.9072 228.501 63.3466 228.736C62.786 228.971 62.142 229.088 61.4148 229.088C60.3466 229.088 59.4867 228.865 58.8352 228.418C58.1837 227.967 57.7955 227.34 57.6705 226.537L59.6761 226.344C59.767 226.738 59.9602 227.035 60.2557 227.236C60.5511 227.437 60.9356 227.537 61.4091 227.537C61.8977 227.537 62.2898 227.437 62.5852 227.236C62.8845 227.035 63.0341 226.787 63.0341 226.492C63.0341 226.242 62.9375 226.035 62.7443 225.873C62.5549 225.71 62.2595 225.585 61.858 225.498L60.3693 225.185C59.5322 225.011 58.9129 224.717 58.5114 224.304C58.1098 223.888 57.911 223.361 57.9148 222.725C57.911 222.187 58.0568 221.721 58.3523 221.327C58.6515 220.929 59.0663 220.623 59.5966 220.407C60.1307 220.187 60.7462 220.077 61.4432 220.077C62.4659 220.077 63.2708 220.295 63.858 220.73C64.4489 221.166 64.8144 221.755 64.9545 222.498ZM71.196 220.191V221.782H66.179V220.191H71.196ZM67.4176 218.1H69.4744V226.293C69.4744 226.569 69.5161 226.782 69.5994 226.929C69.6866 227.073 69.8002 227.172 69.9403 227.225C70.0805 227.278 70.2358 227.304 70.4062 227.304C70.535 227.304 70.6525 227.295 70.7585 227.276C70.8684 227.257 70.9517 227.24 71.0085 227.225L71.3551 228.833C71.2453 228.871 71.0881 228.912 70.8835 228.958C70.6828 229.003 70.4366 229.03 70.1449 229.037C69.6297 229.052 69.1657 228.975 68.7528 228.804C68.34 228.63 68.0123 228.361 67.7699 227.998C67.5313 227.634 67.4138 227.179 67.4176 226.634V218.1ZM76.6293 229.088C75.777 229.088 75.0384 228.901 74.4134 228.526C73.7884 228.151 73.3035 227.626 72.9588 226.952C72.6179 226.278 72.4474 225.49 72.4474 224.588C72.4474 223.687 72.6179 222.897 72.9588 222.219C73.3035 221.541 73.7884 221.015 74.4134 220.64C75.0384 220.265 75.777 220.077 76.6293 220.077C77.4815 220.077 78.2202 220.265 78.8452 220.64C79.4702 221.015 79.9531 221.541 80.294 222.219C80.6387 222.897 80.8111 223.687 80.8111 224.588C80.8111 225.49 80.6387 226.278 80.294 226.952C79.9531 227.626 79.4702 228.151 78.8452 228.526C78.2202 228.901 77.4815 229.088 76.6293 229.088ZM76.6406 227.441C77.1027 227.441 77.4891 227.314 77.7997 227.06C78.1103 226.802 78.3414 226.458 78.4929 226.026C78.6482 225.594 78.7259 225.113 78.7259 224.583C78.7259 224.049 78.6482 223.566 78.4929 223.134C78.3414 222.698 78.1103 222.352 77.7997 222.094C77.4891 221.837 77.1027 221.708 76.6406 221.708C76.1671 221.708 75.7732 221.837 75.4588 222.094C75.1482 222.352 74.9152 222.698 74.7599 223.134C74.6084 223.566 74.5327 224.049 74.5327 224.583C74.5327 225.113 74.6084 225.594 74.7599 226.026C74.9152 226.458 75.1482 226.802 75.4588 227.06C75.7732 227.314 76.1671 227.441 76.6406 227.441ZM82.5568 228.918V220.191H84.5511V221.645H84.642C84.8011 221.141 85.0739 220.753 85.4602 220.48C85.8504 220.204 86.2955 220.066 86.7955 220.066C86.9091 220.066 87.036 220.071 87.1761 220.083C87.3201 220.09 87.4394 220.104 87.5341 220.123V222.015C87.447 221.984 87.3087 221.958 87.1193 221.935C86.9337 221.908 86.7538 221.895 86.5795 221.895C86.2045 221.895 85.8674 221.977 85.5682 222.14C85.2727 222.299 85.0398 222.52 84.8693 222.804C84.6989 223.088 84.6136 223.416 84.6136 223.787V228.918H82.5568ZM91.2557 229.094C90.7027 229.094 90.2045 228.996 89.7614 228.799C89.322 228.598 88.9735 228.302 88.7159 227.912C88.4621 227.522 88.3352 227.041 88.3352 226.469C88.3352 225.977 88.4261 225.569 88.608 225.248C88.7898 224.926 89.0379 224.668 89.3523 224.475C89.6667 224.282 90.0208 224.136 90.4148 224.037C90.8125 223.935 91.2235 223.861 91.6477 223.816C92.1591 223.763 92.5739 223.715 92.892 223.674C93.2102 223.628 93.4413 223.56 93.5852 223.469C93.733 223.374 93.8068 223.229 93.8068 223.032V222.998C93.8068 222.569 93.6799 222.238 93.4261 222.003C93.1723 221.768 92.8068 221.651 92.3295 221.651C91.8258 221.651 91.4261 221.761 91.1307 221.98C90.839 222.2 90.642 222.46 90.5398 222.759L88.6193 222.486C88.7708 221.956 89.0208 221.513 89.3693 221.157C89.7178 220.797 90.1439 220.528 90.6477 220.35C91.1515 220.168 91.7083 220.077 92.3182 220.077C92.7386 220.077 93.1572 220.126 93.5739 220.225C93.9905 220.323 94.3712 220.486 94.7159 220.713C95.0606 220.937 95.3371 221.242 95.5455 221.628C95.7576 222.015 95.8636 222.498 95.8636 223.077V228.918H93.8864V227.719H93.8182C93.6932 227.962 93.517 228.189 93.2898 228.401C93.0663 228.609 92.7841 228.778 92.4432 228.907C92.1061 229.032 91.7102 229.094 91.2557 229.094ZM91.7898 227.583C92.2027 227.583 92.5606 227.501 92.8636 227.338C93.1667 227.172 93.3996 226.952 93.5625 226.679C93.7292 226.407 93.8125 226.109 93.8125 225.787V224.759C93.7481 224.812 93.6383 224.861 93.483 224.907C93.3314 224.952 93.161 224.992 92.9716 225.026C92.7822 225.06 92.5947 225.09 92.4091 225.117C92.2235 225.143 92.0625 225.166 91.9261 225.185C91.6193 225.227 91.3447 225.295 91.1023 225.39C90.8598 225.484 90.6686 225.617 90.5284 225.787C90.3883 225.954 90.3182 226.17 90.3182 226.435C90.3182 226.814 90.4564 227.1 90.733 227.293C91.0095 227.486 91.3617 227.583 91.7898 227.583ZM101.727 232.373C100.989 232.373 100.354 232.272 99.8239 232.071C99.2936 231.874 98.8674 231.609 98.5455 231.276C98.2235 230.943 98 230.573 97.875 230.168L99.7273 229.719C99.8106 229.89 99.9318 230.058 100.091 230.225C100.25 230.395 100.464 230.535 100.733 230.645C101.006 230.759 101.348 230.816 101.761 230.816C102.345 230.816 102.828 230.674 103.21 230.39C103.593 230.109 103.784 229.647 103.784 229.003V227.35H103.682C103.576 227.562 103.42 227.78 103.216 228.003C103.015 228.227 102.748 228.414 102.415 228.566C102.085 228.717 101.67 228.793 101.17 228.793C100.5 228.793 99.892 228.636 99.3466 228.321C98.8049 228.003 98.3731 227.53 98.0511 226.901C97.733 226.268 97.5739 225.477 97.5739 224.526C97.5739 223.568 97.733 222.759 98.0511 222.1C98.3731 221.437 98.8068 220.935 99.3523 220.594C99.8977 220.249 100.506 220.077 101.176 220.077C101.688 220.077 102.108 220.164 102.438 220.338C102.771 220.509 103.036 220.715 103.233 220.958C103.43 221.196 103.58 221.422 103.682 221.634H103.795V220.191H105.824V229.06C105.824 229.806 105.646 230.424 105.29 230.912C104.934 231.401 104.447 231.766 103.83 232.009C103.212 232.251 102.511 232.373 101.727 232.373ZM101.744 227.179C102.18 227.179 102.551 227.073 102.858 226.861C103.165 226.649 103.398 226.344 103.557 225.946C103.716 225.549 103.795 225.071 103.795 224.515C103.795 223.965 103.716 223.484 103.557 223.071C103.402 222.658 103.17 222.338 102.864 222.111C102.561 221.88 102.188 221.765 101.744 221.765C101.286 221.765 100.903 221.884 100.597 222.123C100.29 222.361 100.059 222.689 99.9034 223.105C99.7481 223.518 99.6705 223.988 99.6705 224.515C99.6705 225.049 99.7481 225.516 99.9034 225.918C100.063 226.316 100.295 226.626 100.602 226.85C100.913 227.069 101.294 227.179 101.744 227.179ZM111.795 229.088C110.92 229.088 110.165 228.907 109.528 228.543C108.896 228.176 108.409 227.657 108.068 226.986C107.727 226.312 107.557 225.518 107.557 224.605C107.557 223.708 107.727 222.92 108.068 222.242C108.413 221.56 108.894 221.03 109.511 220.651C110.129 220.268 110.854 220.077 111.688 220.077C112.225 220.077 112.733 220.164 113.21 220.338C113.691 220.509 114.116 220.774 114.483 221.134C114.854 221.494 115.146 221.952 115.358 222.509C115.57 223.062 115.676 223.721 115.676 224.486V225.117H108.523V223.73H113.705C113.701 223.337 113.616 222.986 113.449 222.679C113.282 222.369 113.049 222.124 112.75 221.946C112.455 221.768 112.11 221.679 111.716 221.679C111.295 221.679 110.926 221.782 110.608 221.986C110.29 222.187 110.042 222.452 109.864 222.782C109.689 223.107 109.6 223.465 109.597 223.855V225.066C109.597 225.573 109.689 226.009 109.875 226.373C110.061 226.732 110.32 227.009 110.653 227.202C110.987 227.391 111.377 227.486 111.824 227.486C112.123 227.486 112.394 227.444 112.636 227.361C112.879 227.274 113.089 227.147 113.267 226.98C113.445 226.814 113.58 226.607 113.67 226.361L115.591 226.577C115.47 227.085 115.239 227.528 114.898 227.907C114.561 228.282 114.129 228.573 113.602 228.782C113.076 228.986 112.473 229.088 111.795 229.088Z" fill="#111827"/>
<path fill-rule="evenodd" clip-rule="evenodd" d="M132 215.856C129.816 215.856 128.046 217.626 128.046 219.81V221.382C128.046 221.382 128.046 221.382 128.046 221.382H125.783C125.507 221.382 125.283 221.606 125.283 221.882V229.48C125.283 229.756 125.507 229.98 125.783 229.98H138.217C138.493 229.98 138.717 229.756 138.717 229.48V221.882C138.717 221.606 138.493 221.382 138.217 221.382H135.954C135.954 221.382 135.954 221.382 135.954 221.382V219.81C135.954 217.626 134.184 215.856 132 215.856ZM129.046 219.81C129.046 218.178 130.369 216.856 132 216.856C133.631 216.856 134.954 218.178 134.954 219.81V221.382H129.046V219.81ZM126.283 228.98V222.382H137.717V228.98H126.283Z" fill="#111827"/>
<path d="M151.236 228.057C150.652 228.057 150.127 227.941 149.66 227.709C149.192 227.477 148.818 227.159 148.536 226.755C148.254 226.35 148.1 225.89 148.074 225.373H149.267C149.313 225.833 149.522 226.214 149.893 226.516C150.268 226.814 150.715 226.963 151.236 226.963C151.653 226.963 152.025 226.866 152.349 226.67C152.678 226.475 152.934 226.206 153.12 225.865C153.309 225.52 153.403 225.131 153.403 224.696C153.403 224.252 153.306 223.856 153.11 223.508C152.918 223.157 152.653 222.88 152.315 222.678C151.977 222.476 151.59 222.373 151.156 222.37C150.845 222.366 150.525 222.414 150.197 222.514C149.869 222.61 149.598 222.734 149.386 222.887L148.233 222.748L148.849 217.736H154.139V218.83H149.884L149.526 221.833H149.585C149.794 221.667 150.056 221.529 150.371 221.42C150.686 221.311 151.014 221.256 151.355 221.256C151.978 221.256 152.533 221.405 153.021 221.703C153.511 221.998 153.896 222.403 154.174 222.917C154.456 223.43 154.597 224.017 154.597 224.676C154.597 225.326 154.451 225.906 154.159 226.417C153.871 226.924 153.473 227.325 152.966 227.62C152.459 227.911 151.882 228.057 151.236 228.057ZM159.813 217.597C160.231 217.6 160.648 217.68 161.066 217.836C161.483 217.991 161.865 218.25 162.209 218.611C162.554 218.969 162.831 219.458 163.04 220.078C163.248 220.698 163.353 221.475 163.353 222.409C163.353 223.314 163.267 224.118 163.094 224.821C162.925 225.52 162.68 226.11 162.358 226.591C162.04 227.071 161.653 227.436 161.195 227.684C160.741 227.933 160.227 228.057 159.654 228.057C159.084 228.057 158.575 227.944 158.128 227.719C157.684 227.49 157.319 227.174 157.034 226.77C156.752 226.362 156.572 225.89 156.492 225.353H157.705C157.814 225.82 158.032 226.206 158.356 226.511C158.684 226.813 159.117 226.963 159.654 226.963C160.439 226.963 161.059 226.62 161.513 225.934C161.971 225.248 162.199 224.279 162.199 223.026H162.12C161.934 223.304 161.714 223.545 161.459 223.747C161.203 223.949 160.92 224.105 160.608 224.214C160.297 224.324 159.965 224.378 159.614 224.378C159.031 224.378 158.496 224.234 158.008 223.946C157.524 223.654 157.137 223.255 156.845 222.748C156.557 222.237 156.412 221.654 156.412 220.998C156.412 220.374 156.552 219.804 156.83 219.287C157.112 218.767 157.506 218.353 158.013 218.044C158.524 217.736 159.124 217.587 159.813 217.597ZM159.813 218.691C159.395 218.691 159.019 218.795 158.684 219.004C158.353 219.209 158.09 219.488 157.894 219.839C157.702 220.187 157.606 220.573 157.606 220.998C157.606 221.422 157.698 221.808 157.884 222.156C158.073 222.501 158.33 222.776 158.655 222.981C158.983 223.183 159.356 223.284 159.773 223.284C160.088 223.284 160.381 223.223 160.653 223.1C160.925 222.975 161.162 222.804 161.364 222.588C161.57 222.37 161.73 222.123 161.846 221.848C161.962 221.569 162.02 221.279 162.02 220.978C162.02 220.58 161.924 220.207 161.732 219.859C161.543 219.511 161.281 219.229 160.947 219.014C160.615 218.798 160.237 218.691 159.813 218.691ZM168.211 228.077C167.575 228.077 167.013 227.916 166.526 227.595C166.039 227.27 165.658 226.813 165.382 226.223C165.107 225.629 164.97 224.928 164.97 224.12C164.97 223.318 165.107 222.622 165.382 222.032C165.658 221.442 166.04 220.986 166.531 220.664C167.021 220.343 167.588 220.182 168.231 220.182C168.728 220.182 169.121 220.265 169.409 220.431C169.701 220.593 169.923 220.779 170.076 220.988C170.231 221.193 170.352 221.362 170.439 221.495H170.538V217.736H171.711V227.918H170.578V226.745H170.439C170.352 226.884 170.23 227.06 170.071 227.272C169.912 227.48 169.685 227.668 169.39 227.833C169.095 227.996 168.702 228.077 168.211 228.077ZM168.37 227.023C168.841 227.023 169.239 226.9 169.564 226.655C169.888 226.407 170.135 226.064 170.304 225.626C170.473 225.185 170.558 224.676 170.558 224.1C170.558 223.53 170.475 223.031 170.309 222.603C170.144 222.172 169.898 221.838 169.574 221.599C169.249 221.357 168.848 221.236 168.37 221.236C167.873 221.236 167.459 221.364 167.127 221.619C166.799 221.871 166.552 222.214 166.387 222.648C166.224 223.079 166.143 223.563 166.143 224.1C166.143 224.643 166.226 225.137 166.392 225.581C166.561 226.022 166.809 226.373 167.137 226.635C167.469 226.894 167.88 227.023 168.37 227.023ZM180.208 228.097C179.724 228.097 179.285 228.006 178.89 227.824C178.496 227.638 178.183 227.371 177.951 227.023C177.719 226.672 177.603 226.248 177.603 225.75C177.603 225.313 177.689 224.958 177.861 224.686C178.033 224.411 178.264 224.196 178.552 224.04C178.841 223.884 179.159 223.768 179.507 223.692C179.858 223.613 180.211 223.55 180.566 223.503C181.03 223.444 181.406 223.399 181.694 223.369C181.986 223.336 182.198 223.281 182.331 223.205C182.467 223.129 182.534 222.996 182.534 222.807V222.767C182.534 222.277 182.4 221.896 182.132 221.624C181.867 221.352 181.464 221.216 180.924 221.216C180.364 221.216 179.924 221.339 179.606 221.584C179.288 221.829 179.064 222.091 178.935 222.37L177.821 221.972C178.02 221.508 178.285 221.147 178.617 220.888C178.952 220.626 179.316 220.444 179.711 220.341C180.108 220.235 180.499 220.182 180.884 220.182C181.129 220.182 181.411 220.212 181.729 220.272C182.051 220.328 182.36 220.446 182.659 220.625C182.96 220.804 183.211 221.074 183.409 221.435C183.608 221.796 183.708 222.28 183.708 222.887V227.918H182.534V226.884H182.475C182.395 227.05 182.263 227.227 182.077 227.416C181.891 227.605 181.645 227.766 181.336 227.898C181.028 228.031 180.652 228.097 180.208 228.097ZM180.387 227.043C180.851 227.043 181.242 226.952 181.56 226.77C181.882 226.587 182.123 226.352 182.286 226.064C182.452 225.775 182.534 225.472 182.534 225.154V224.08C182.485 224.14 182.375 224.194 182.206 224.244C182.041 224.29 181.848 224.332 181.63 224.368C181.414 224.401 181.204 224.431 180.998 224.458C180.796 224.481 180.632 224.501 180.506 224.517C180.201 224.557 179.916 224.622 179.651 224.711C179.389 224.797 179.177 224.928 179.015 225.104C178.855 225.276 178.776 225.512 178.776 225.81C178.776 226.218 178.927 226.526 179.228 226.735C179.533 226.94 179.919 227.043 180.387 227.043ZM188.932 230.941C188.365 230.941 187.878 230.868 187.47 230.722C187.062 230.579 186.723 230.391 186.451 230.155C186.182 229.923 185.969 229.675 185.809 229.409L186.744 228.753C186.85 228.892 186.984 229.051 187.147 229.23C187.309 229.413 187.531 229.57 187.813 229.703C188.098 229.839 188.471 229.907 188.932 229.907C189.548 229.907 190.057 229.757 190.458 229.459C190.859 229.161 191.059 228.694 191.059 228.057V226.506H190.96C190.874 226.645 190.751 226.818 190.592 227.023C190.436 227.225 190.211 227.406 189.916 227.565C189.624 227.721 189.23 227.799 188.733 227.799C188.116 227.799 187.563 227.653 187.072 227.361C186.585 227.069 186.199 226.645 185.914 226.088C185.632 225.532 185.491 224.855 185.491 224.06C185.491 223.278 185.629 222.597 185.904 222.017C186.179 221.433 186.562 220.983 187.052 220.664C187.543 220.343 188.11 220.182 188.753 220.182C189.25 220.182 189.644 220.265 189.936 220.431C190.231 220.593 190.456 220.779 190.612 220.988C190.771 221.193 190.894 221.362 190.98 221.495H191.099V220.282H192.233V228.137C192.233 228.793 192.084 229.327 191.785 229.738C191.49 230.152 191.093 230.455 190.592 230.647C190.095 230.843 189.541 230.941 188.932 230.941ZM188.892 226.745C189.363 226.745 189.76 226.637 190.085 226.422C190.41 226.206 190.657 225.896 190.826 225.492C190.995 225.087 191.079 224.604 191.079 224.04C191.079 223.49 190.997 223.004 190.831 222.583C190.665 222.163 190.42 221.833 190.095 221.594C189.77 221.355 189.369 221.236 188.892 221.236C188.395 221.236 187.98 221.362 187.649 221.614C187.321 221.866 187.074 222.204 186.908 222.628C186.746 223.052 186.665 223.523 186.665 224.04C186.665 224.57 186.747 225.039 186.913 225.447C187.082 225.851 187.331 226.17 187.659 226.402C187.99 226.63 188.401 226.745 188.892 226.745ZM197.483 228.077C196.793 228.077 196.189 227.913 195.668 227.585C195.151 227.257 194.747 226.798 194.455 226.208C194.167 225.618 194.023 224.928 194.023 224.14C194.023 223.344 194.167 222.65 194.455 222.056C194.747 221.463 195.151 221.002 195.668 220.674C196.189 220.346 196.793 220.182 197.483 220.182C198.172 220.182 198.775 220.346 199.292 220.674C199.813 221.002 200.217 221.463 200.506 222.056C200.797 222.65 200.943 223.344 200.943 224.14C200.943 224.928 200.797 225.618 200.506 226.208C200.217 226.798 199.813 227.257 199.292 227.585C198.775 227.913 198.172 228.077 197.483 228.077ZM197.483 227.023C198.006 227.023 198.437 226.889 198.775 226.62C199.113 226.352 199.364 225.999 199.526 225.561C199.689 225.124 199.77 224.65 199.77 224.14C199.77 223.629 199.689 223.154 199.526 222.713C199.364 222.272 199.113 221.916 198.775 221.644C198.437 221.372 198.006 221.236 197.483 221.236C196.959 221.236 196.528 221.372 196.19 221.644C195.852 221.916 195.602 222.272 195.439 222.713C195.277 223.154 195.196 223.629 195.196 224.14C195.196 224.65 195.277 225.124 195.439 225.561C195.602 225.999 195.852 226.352 196.19 226.62C196.528 226.889 196.959 227.023 197.483 227.023Z" fill="#111827"/>
<rect x="499" y="214.918" width="16" height="16" rx="8" fill="white"/>
<rect x="499" y="214.918" width="16" height="16" rx="8" stroke="#E4E4E7"/>
<rect x="37.9019" y="273.988" width="4.34127" height="4.34127" transform="rotate(-45 37.9019 273.988)" stroke="#111827" stroke-linejoin="round"/>
<rect x="37.9019" y="283.848" width="4.34127" height="4.34127" transform="rotate(-45 37.9019 283.848)" stroke="#111827" stroke-linejoin="round"/>
<rect x="42.8606" y="278.942" width="4.34127" height="4.34127" transform="rotate(-45 42.8606 278.942)" stroke="#111827" stroke-linejoin="round"/>
<rect x="33" y="278.942" width="4.34127" height="4.34127" transform="rotate(-45 33 278.942)" stroke="#111827" stroke-linejoin="round"/>
<path d="M62.4148 276.191V277.782H57.3977V276.191H62.4148ZM58.6364 274.1H60.6932V282.293C60.6932 282.569 60.7348 282.782 60.8182 282.929C60.9053 283.073 61.0189 283.172 61.1591 283.225C61.2992 283.278 61.4545 283.304 61.625 283.304C61.7538 283.304 61.8712 283.295 61.9773 283.276C62.0871 283.257 62.1705 283.24 62.2273 283.225L62.5739 284.833C62.464 284.871 62.3068 284.912 62.1023 284.958C61.9015 285.003 61.6553 285.03 61.3636 285.037C60.8485 285.052 60.3845 284.975 59.9716 284.804C59.5587 284.63 59.2311 284.361 58.9886 283.998C58.75 283.634 58.6326 283.179 58.6364 282.634V274.1ZM69.6974 281.248V276.191H71.7543V284.918H69.7599V283.367H69.669C69.4721 283.855 69.1482 284.255 68.6974 284.566C68.2505 284.876 67.6993 285.032 67.044 285.032C66.4721 285.032 65.9664 284.905 65.527 284.651C65.0914 284.393 64.7505 284.02 64.5043 283.532C64.258 283.039 64.1349 282.444 64.1349 281.748V276.191H66.1918V281.429C66.1918 281.982 66.3433 282.422 66.6463 282.748C66.9493 283.073 67.3471 283.236 67.8395 283.236C68.1425 283.236 68.4361 283.162 68.7202 283.015C69.0043 282.867 69.2372 282.647 69.419 282.355C69.6046 282.06 69.6974 281.691 69.6974 281.248ZM73.8693 284.918V276.191H75.8636V277.645H75.9545C76.1136 277.141 76.3864 276.753 76.7727 276.48C77.1629 276.204 77.608 276.066 78.108 276.066C78.2216 276.066 78.3485 276.071 78.4886 276.083C78.6326 276.09 78.7519 276.104 78.8466 276.123V278.015C78.7595 277.984 78.6212 277.958 78.4318 277.935C78.2462 277.908 78.0663 277.895 77.892 277.895C77.517 277.895 77.1799 277.977 76.8807 278.14C76.5852 278.299 76.3523 278.52 76.1818 278.804C76.0114 279.088 75.9261 279.416 75.9261 279.787V284.918H73.8693ZM80.304 284.918V273.282H82.3608V277.634H82.446C82.5521 277.422 82.7017 277.196 82.8949 276.958C83.0881 276.715 83.3494 276.509 83.679 276.338C84.0085 276.164 84.429 276.077 84.9403 276.077C85.6146 276.077 86.2225 276.249 86.7642 276.594C87.3097 276.935 87.7415 277.441 88.0597 278.111C88.3816 278.778 88.5426 279.596 88.5426 280.566C88.5426 281.524 88.3854 282.338 88.071 283.009C87.7566 283.679 87.3286 284.191 86.7869 284.543C86.2453 284.895 85.6316 285.071 84.946 285.071C84.446 285.071 84.0313 284.988 83.7017 284.821C83.3722 284.655 83.107 284.454 82.9062 284.219C82.7093 283.98 82.5559 283.755 82.446 283.543H82.3267V284.918H80.304ZM82.321 280.554C82.321 281.119 82.4006 281.613 82.5597 282.037C82.7225 282.462 82.9555 282.793 83.2585 283.032C83.5653 283.266 83.9366 283.384 84.3722 283.384C84.8267 283.384 85.2074 283.263 85.5142 283.02C85.821 282.774 86.0521 282.439 86.2074 282.015C86.3665 281.587 86.446 281.1 86.446 280.554C86.446 280.013 86.3684 279.532 86.2131 279.111C86.0578 278.691 85.8267 278.361 85.5199 278.123C85.2131 277.884 84.8305 277.765 84.3722 277.765C83.9328 277.765 83.5597 277.88 83.2528 278.111C82.946 278.342 82.7131 278.666 82.554 279.083C82.3987 279.499 82.321 279.99 82.321 280.554ZM94.098 285.088C93.2457 285.088 92.5071 284.901 91.8821 284.526C91.2571 284.151 90.7723 283.626 90.4276 282.952C90.0866 282.278 89.9162 281.49 89.9162 280.588C89.9162 279.687 90.0866 278.897 90.4276 278.219C90.7723 277.541 91.2571 277.015 91.8821 276.64C92.5071 276.265 93.2457 276.077 94.098 276.077C94.9503 276.077 95.6889 276.265 96.3139 276.64C96.9389 277.015 97.4219 277.541 97.7628 278.219C98.1075 278.897 98.2798 279.687 98.2798 280.588C98.2798 281.49 98.1075 282.278 97.7628 282.952C97.4219 283.626 96.9389 284.151 96.3139 284.526C95.6889 284.901 94.9503 285.088 94.098 285.088ZM94.1094 283.441C94.5715 283.441 94.9579 283.314 95.2685 283.06C95.5791 282.802 95.8101 282.458 95.9616 282.026C96.117 281.594 96.1946 281.113 96.1946 280.583C96.1946 280.049 96.117 279.566 95.9616 279.134C95.8101 278.698 95.5791 278.352 95.2685 278.094C94.9579 277.837 94.5715 277.708 94.1094 277.708C93.6359 277.708 93.242 277.837 92.9276 278.094C92.617 278.352 92.384 278.698 92.2287 279.134C92.0772 279.566 92.0014 280.049 92.0014 280.583C92.0014 281.113 92.0772 281.594 92.2287 282.026C92.384 282.458 92.617 282.802 92.9276 283.06C93.242 283.314 93.6359 283.441 94.1094 283.441Z" fill="#111827"/>
<path fill-rule="evenodd" clip-rule="evenodd" d="M114 271.856C111.816 271.856 110.046 273.626 110.046 275.81V277.382C110.046 277.382 110.046 277.382 110.046 277.382H107.783C107.507 277.382 107.283 277.606 107.283 277.882V285.48C107.283 285.756 107.507 285.98 107.783 285.98H120.217C120.493 285.98 120.717 285.756 120.717 285.48V277.882C120.717 277.606 120.493 277.382 120.217 277.382H117.954C117.954 277.382 117.954 277.382 117.954 277.382V275.81C117.954 273.626 116.184 271.856 114 271.856ZM111.046 275.81C111.046 274.178 112.369 272.856 114 272.856C115.631 272.856 116.954 274.178 116.954 275.81V277.382H111.046V275.81ZM108.283 284.98V278.382H119.717V284.98H108.283Z" fill="#111827"/>
<path d="M133.435 284.057C133.017 284.051 132.599 283.971 132.182 283.819C131.764 283.666 131.383 283.409 131.038 283.048C130.694 282.683 130.417 282.191 130.208 281.571C129.999 280.948 129.895 280.166 129.895 279.225C129.895 278.323 129.979 277.525 130.148 276.828C130.317 276.129 130.563 275.541 130.884 275.064C131.206 274.583 131.594 274.218 132.048 273.97C132.505 273.721 133.02 273.597 133.594 273.597C134.164 273.597 134.671 273.711 135.115 273.94C135.563 274.165 135.927 274.48 136.209 274.885C136.491 275.289 136.673 275.755 136.756 276.282H135.543C135.43 275.824 135.211 275.445 134.886 275.143C134.562 274.842 134.131 274.691 133.594 274.691C132.805 274.691 132.183 275.034 131.729 275.72C131.279 276.406 131.052 277.369 131.048 278.608H131.128C131.313 278.327 131.534 278.086 131.789 277.887C132.048 277.685 132.333 277.529 132.644 277.42C132.956 277.311 133.286 277.256 133.634 277.256C134.217 277.256 134.75 277.402 135.234 277.694C135.718 277.982 136.106 278.381 136.398 278.892C136.689 279.399 136.835 279.98 136.835 280.637C136.835 281.266 136.694 281.843 136.413 282.367C136.131 282.887 135.735 283.301 135.224 283.61C134.717 283.915 134.121 284.064 133.435 284.057ZM133.435 282.963C133.852 282.963 134.227 282.859 134.558 282.65C134.893 282.441 135.156 282.161 135.349 281.81C135.544 281.459 135.642 281.068 135.642 280.637C135.642 280.216 135.548 279.833 135.359 279.488C135.173 279.14 134.916 278.864 134.588 278.658C134.263 278.453 133.892 278.35 133.474 278.35C133.16 278.35 132.866 278.413 132.594 278.539C132.323 278.661 132.084 278.83 131.879 279.046C131.676 279.261 131.517 279.508 131.401 279.787C131.285 280.062 131.227 280.352 131.227 280.657C131.227 281.061 131.322 281.439 131.511 281.79C131.703 282.141 131.965 282.425 132.296 282.64C132.631 282.856 133.01 282.963 133.435 282.963ZM142.37 273.736V283.918H141.137V275.029H141.077L138.591 276.679V275.426L141.137 273.736H142.37ZM148.202 284.077C147.565 284.077 147.003 283.916 146.516 283.595C146.029 283.27 145.648 282.813 145.373 282.223C145.098 281.629 144.96 280.928 144.96 280.12C144.96 279.318 145.098 278.622 145.373 278.032C145.648 277.442 146.031 276.986 146.521 276.664C147.012 276.343 147.578 276.182 148.221 276.182C148.719 276.182 149.111 276.265 149.4 276.431C149.691 276.593 149.913 276.779 150.066 276.988C150.222 277.193 150.343 277.362 150.429 277.495H150.528V273.736H151.702V283.918H150.568V282.745H150.429C150.343 282.884 150.22 283.06 150.061 283.272C149.902 283.48 149.675 283.668 149.38 283.833C149.085 283.996 148.692 284.077 148.202 284.077ZM148.361 283.023C148.831 283.023 149.229 282.9 149.554 282.655C149.879 282.407 150.126 282.064 150.295 281.626C150.464 281.185 150.548 280.676 150.548 280.1C150.548 279.53 150.465 279.031 150.3 278.603C150.134 278.172 149.889 277.838 149.564 277.599C149.239 277.357 148.838 277.236 148.361 277.236C147.863 277.236 147.449 277.364 147.118 277.619C146.79 277.871 146.543 278.214 146.377 278.648C146.215 279.079 146.133 279.563 146.133 280.1C146.133 280.643 146.216 281.137 146.382 281.581C146.551 282.022 146.8 282.373 147.128 282.635C147.459 282.894 147.87 283.023 148.361 283.023ZM160.198 284.097C159.714 284.097 159.275 284.006 158.881 283.824C158.486 283.638 158.173 283.371 157.941 283.023C157.709 282.672 157.593 282.248 157.593 281.75C157.593 281.313 157.679 280.958 157.851 280.686C158.024 280.411 158.254 280.196 158.542 280.04C158.831 279.884 159.149 279.768 159.497 279.692C159.848 279.613 160.201 279.55 160.556 279.503C161.02 279.444 161.396 279.399 161.684 279.369C161.976 279.336 162.188 279.281 162.321 279.205C162.457 279.129 162.525 278.996 162.525 278.807V278.767C162.525 278.277 162.39 277.896 162.122 277.624C161.857 277.352 161.454 277.216 160.914 277.216C160.354 277.216 159.915 277.339 159.596 277.584C159.278 277.829 159.055 278.091 158.925 278.37L157.812 277.972C158.01 277.508 158.276 277.147 158.607 276.888C158.942 276.626 159.306 276.444 159.701 276.341C160.099 276.235 160.49 276.182 160.874 276.182C161.119 276.182 161.401 276.212 161.719 276.272C162.041 276.328 162.351 276.446 162.649 276.625C162.951 276.804 163.201 277.074 163.4 277.435C163.599 277.796 163.698 278.28 163.698 278.887V283.918H162.525V282.884H162.465C162.385 283.05 162.253 283.227 162.067 283.416C161.882 283.605 161.635 283.766 161.327 283.898C161.018 284.031 160.642 284.097 160.198 284.097ZM160.377 283.043C160.841 283.043 161.232 282.952 161.55 282.77C161.872 282.587 162.114 282.352 162.276 282.064C162.442 281.775 162.525 281.472 162.525 281.154V280.08C162.475 280.14 162.366 280.194 162.197 280.244C162.031 280.29 161.839 280.332 161.62 280.368C161.404 280.401 161.194 280.431 160.988 280.458C160.786 280.481 160.622 280.501 160.496 280.517C160.191 280.557 159.906 280.622 159.641 280.711C159.379 280.797 159.167 280.928 159.005 281.104C158.846 281.276 158.766 281.512 158.766 281.81C158.766 282.218 158.917 282.526 159.219 282.735C159.523 282.94 159.91 283.043 160.377 283.043ZM168.922 286.941C168.355 286.941 167.868 286.868 167.46 286.722C167.053 286.579 166.713 286.391 166.441 286.155C166.173 285.923 165.959 285.675 165.8 285.409L166.734 284.753C166.84 284.892 166.975 285.051 167.137 285.23C167.299 285.413 167.522 285.57 167.803 285.703C168.088 285.839 168.461 285.907 168.922 285.907C169.538 285.907 170.047 285.757 170.448 285.459C170.849 285.161 171.05 284.694 171.05 284.057V282.506H170.95C170.864 282.645 170.741 282.818 170.582 283.023C170.427 283.225 170.201 283.406 169.906 283.565C169.615 283.721 169.22 283.799 168.723 283.799C168.107 283.799 167.553 283.653 167.062 283.361C166.575 283.069 166.189 282.645 165.904 282.088C165.622 281.532 165.482 280.855 165.482 280.06C165.482 279.278 165.619 278.597 165.894 278.017C166.169 277.433 166.552 276.983 167.043 276.664C167.533 276.343 168.1 276.182 168.743 276.182C169.24 276.182 169.634 276.265 169.926 276.431C170.221 276.593 170.446 276.779 170.602 276.988C170.761 277.193 170.884 277.362 170.97 277.495H171.089V276.282H172.223V284.137C172.223 284.793 172.074 285.327 171.776 285.738C171.481 286.152 171.083 286.455 170.582 286.647C170.085 286.843 169.532 286.941 168.922 286.941ZM168.882 282.745C169.353 282.745 169.75 282.637 170.075 282.422C170.4 282.206 170.647 281.896 170.816 281.492C170.985 281.087 171.07 280.604 171.07 280.04C171.07 279.49 170.987 279.004 170.821 278.583C170.655 278.163 170.41 277.833 170.085 277.594C169.76 277.355 169.359 277.236 168.882 277.236C168.385 277.236 167.971 277.362 167.639 277.614C167.311 277.866 167.064 278.204 166.898 278.628C166.736 279.052 166.655 279.523 166.655 280.04C166.655 280.57 166.738 281.039 166.903 281.447C167.072 281.851 167.321 282.17 167.649 282.402C167.981 282.63 168.392 282.745 168.882 282.745ZM177.473 284.077C176.784 284.077 176.179 283.913 175.658 283.585C175.141 283.257 174.737 282.798 174.445 282.208C174.157 281.618 174.013 280.928 174.013 280.14C174.013 279.344 174.157 278.65 174.445 278.056C174.737 277.463 175.141 277.002 175.658 276.674C176.179 276.346 176.784 276.182 177.473 276.182C178.162 276.182 178.766 276.346 179.283 276.674C179.803 277.002 180.207 277.463 180.496 278.056C180.787 278.65 180.933 279.344 180.933 280.14C180.933 280.928 180.787 281.618 180.496 282.208C180.207 282.798 179.803 283.257 179.283 283.585C178.766 283.913 178.162 284.077 177.473 284.077ZM177.473 283.023C177.997 283.023 178.428 282.889 178.766 282.62C179.104 282.352 179.354 281.999 179.516 281.561C179.679 281.124 179.76 280.65 179.76 280.14C179.76 279.629 179.679 279.154 179.516 278.713C179.354 278.272 179.104 277.916 178.766 277.644C178.428 277.372 177.997 277.236 177.473 277.236C176.949 277.236 176.518 277.372 176.18 277.644C175.842 277.916 175.592 278.272 175.43 278.713C175.267 279.154 175.186 279.629 175.186 280.14C175.186 280.65 175.267 281.124 175.43 281.561C175.592 281.999 175.842 282.352 176.18 282.62C176.518 282.889 176.949 283.023 177.473 283.023Z" fill="#111827"/>
<rect x="499" y="270.918" width="16" height="16" rx="8" fill="white"/>
<rect x="499" y="270.918" width="16" height="16" rx="8" stroke="#E4E4E7"/>
</g>
<rect x="17" y="14.918" width="514" height="340" rx="4" stroke="#E4E4E7"/>
</g>
<defs>
<filter id="filter0_dd_2618_8365" x="0.5" y="0.417969" width="547" height="373" filterUnits="userSpaceOnUse" color-interpolation-filters="sRGB">
<feFlood flood-opacity="0" result="BackgroundImageFix"/>
<feColorMatrix in="SourceAlpha" type="matrix" values="0 0 0 0 0 0 0 0 0 0 0 0 0 0 0 0 0 0 127 0" result="hardAlpha"/>
<feOffset dy="2"/>
<feGaussianBlur stdDeviation="8"/>
<feColorMatrix type="matrix" values="0 0 0 0 0.129412 0 0 0 0 0.168627 0 0 0 0 0.211765 0 0 0 0.08 0"/>
<feBlend mode="normal" in2="BackgroundImageFix" result="effect1_dropShadow_2618_8365"/>
<feColorMatrix in="SourceAlpha" type="matrix" values="0 0 0 0 0 0 0 0 0 0 0 0 0 0 0 0 0 0 127 0" result="hardAlpha"/>
<feMorphology radius="1" operator="dilate" in="SourceAlpha" result="effect2_dropShadow_2618_8365"/>
<feOffset/>
<feColorMatrix type="matrix" values="0 0 0 0 0.0235294 0 0 0 0 0.172549 0 0 0 0 0.321569 0 0 0 0.1 0"/>
<feBlend mode="normal" in2="effect1_dropShadow_2618_8365" result="effect2_dropShadow_2618_8365"/>
<feBlend mode="normal" in="SourceGraphic" in2="effect2_dropShadow_2618_8365" result="shape"/>
</filter>
<clipPath id="clip0_2618_8365">
<rect x="17" y="14.918" width="514" height="340" rx="4" fill="white"/>
</clipPath>
<clipPath id="clip1_2618_8365">
<rect x="284" y="30.918" width="231" height="36" rx="4" fill="white"/>
</clipPath>
</defs>
</svg>
