<svg width="640" height="352" viewBox="0 0 640 352" fill="none" xmlns="http://www.w3.org/2000/svg">
<rect width="640" height="352" fill="#F4F4F5"/>
<path d="M164.258 144.25L210.715 97.7935" stroke="#D97706" stroke-dasharray="4 4"/>
<path d="M157.046 212.956L203.503 259.412" stroke="#D97706" stroke-dasharray="4 4"/>
<path d="M198.293 179.144L454.633 179.144" stroke="#D97706" stroke-dasharray="4 4"/>
<path d="M251.699 258.537L303.456 203.162C307.238 199.115 312.528 196.818 318.067 196.818L436.951 196.818" stroke="#D97706" stroke-dasharray="4 4"/>
<path d="M251.699 95.7726L303.419 153.791C307.214 158.048 312.646 160.483 318.349 160.483L439.852 160.483" stroke="#D97706" stroke-dasharray="4 4"/>
<path d="M281.586 277.616L235.39 323.812C233.201 326.001 229.656 326.001 227.475 323.812L181.109 277.446C178.92 275.256 178.92 271.712 181.109 269.531L227.305 223.335C229.495 221.145 233.039 221.145 235.22 223.335L281.586 269.701C283.776 271.882 283.776 275.426 281.586 277.616Z" fill="white" stroke="#D97706"/>
<path fill-rule="evenodd" clip-rule="evenodd" d="M225.441 262.745C225.441 259.551 228.03 256.962 231.224 256.962C234.418 256.962 237.007 259.551 237.007 262.745C237.007 265.938 234.418 268.528 231.224 268.528C228.03 268.528 225.441 265.938 225.441 262.745ZM231.224 254.962C226.926 254.962 223.441 258.446 223.441 262.745C223.441 265.553 224.929 268.014 227.159 269.383C225.334 270.19 223.794 271.525 222.733 273.191H213.705C213.153 273.191 212.705 273.639 212.705 274.191V291.185C212.705 291.737 213.153 292.185 213.705 292.185H248.965C249.517 292.185 249.965 291.737 249.965 291.185V274.191C249.965 273.639 249.517 273.191 248.965 273.191H239.714C238.653 271.525 237.114 270.191 235.289 269.383C237.519 268.015 239.007 265.553 239.007 262.745C239.007 258.446 235.523 254.962 231.224 254.962ZM237.21 273.191H225.237C226.713 271.555 228.849 270.528 231.224 270.528C233.599 270.528 235.735 271.555 237.21 273.191ZM214.705 275.191V290.185H247.965V275.191L214.705 275.191ZM233.888 278.63C234.077 278.111 233.809 277.537 233.29 277.348C232.771 277.16 232.197 277.427 232.008 277.946L228.808 286.746C228.62 287.266 228.887 287.839 229.406 288.028C229.925 288.217 230.499 287.949 230.688 287.43L233.888 278.63ZM228.016 280.947C228.407 280.557 228.407 279.924 228.016 279.533C227.626 279.143 226.992 279.143 226.602 279.533L224.154 281.981C223.763 282.372 223.763 283.005 224.154 283.396L226.602 285.844C226.992 286.234 227.626 286.234 228.016 285.844C228.407 285.453 228.407 284.82 228.016 284.429L226.275 282.688L228.016 280.947ZM234.68 279.533C235.071 279.143 235.704 279.143 236.094 279.533L238.542 281.981C238.933 282.372 238.933 283.005 238.542 283.396L236.094 285.844C235.704 286.234 235.071 286.234 234.68 285.844C234.29 285.453 234.29 284.82 234.68 284.429L236.421 282.688L234.68 280.947C234.29 280.557 234.29 279.924 234.68 279.533Z" fill="#111827"/>
<path d="M181.195 85.6049L229.983 134.391C232.296 136.703 236.039 136.703 238.343 134.391L287.312 85.4249C289.624 83.1125 289.624 79.3695 287.312 77.066L238.523 28.2803C236.21 25.9679 232.467 25.9679 230.163 28.2803L181.195 77.246C178.891 79.5494 178.891 83.2925 181.195 85.6049Z" fill="white" stroke="#D97706"/>
<path d="M234.256 100.12C244.631 100.12 253.041 91.7101 253.041 81.3355C253.041 70.9608 244.631 62.5505 234.256 62.5505C223.882 62.5505 215.472 70.9608 215.472 81.3355C215.472 91.7101 223.882 100.12 234.256 100.12Z" stroke="#111827" stroke-width="2" stroke-miterlimit="10"/>
<path d="M216.541 75.0739H251.971" stroke="#111827" stroke-width="2" stroke-linecap="round" stroke-linejoin="round"/>
<path d="M216.542 87.5972H251.972" stroke="#111827" stroke-width="2" stroke-linecap="round" stroke-linejoin="round"/>
<path d="M234.256 99.6162C238.579 99.6162 242.084 91.4316 242.084 81.3355C242.084 71.2394 238.579 63.0548 234.256 63.0548C229.934 63.0548 226.429 71.2394 226.429 81.3355C226.429 91.4316 229.934 99.6162 234.256 99.6162Z" stroke="#111827" stroke-width="2" stroke-miterlimit="10"/>
<path d="M418.587 184.471L475.466 241.347C478.162 244.043 482.526 244.043 485.212 241.347L542.3 184.262C544.996 181.566 544.996 177.202 542.3 174.517L485.421 117.641C482.725 114.945 478.361 114.945 475.676 117.641L418.587 174.726C415.901 177.412 415.901 181.776 418.587 184.471Z" fill="#3B82F6" stroke="#2563EB"/>
<g clipPath="url(#clip0_2619_8474)">
<path d="M498.229 198.966C500.112 201.653 500.796 204.417 499.761 205.142C498.727 205.866 496.363 204.275 494.481 201.588C493.789 200.599 493.262 199.599 492.92 198.696C489.829 200.76 486.255 202.059 482.498 202.439C482.715 203.348 482.846 204.409 482.846 205.556C482.846 208.836 481.822 211.494 480.557 211.494C479.293 211.494 478.269 208.836 478.269 205.556C478.269 204.433 478.394 203.398 478.603 202.503C474.822 202.238 471.21 201.04 468.058 199.07C467.719 199.875 467.256 200.73 466.657 201.588C464.775 204.275 462.412 205.866 461.377 205.142C460.342 204.417 461.027 201.653 462.909 198.966C463.54 198.065 464.224 197.303 464.895 196.693C463.593 195.525 462.414 194.204 461.396 192.739L464.401 190.648C467.997 195.819 473.903 198.904 480.196 198.904C486.506 198.904 492.417 195.808 496.013 190.621L499.021 192.707C498.09 194.049 497.024 195.265 495.858 196.359C496.649 197.003 497.476 197.891 498.229 198.966ZM465.147 162.528C463.556 163.918 462.142 165.53 460.96 167.359L464.034 169.345C467.596 163.832 473.638 160.541 480.199 160.541C486.976 160.541 493.126 164.001 496.644 169.794L499.772 167.893C498.609 165.979 497.197 164.287 495.601 162.827C496.468 162.172 497.395 161.215 498.229 160.022C500.112 157.335 500.796 154.571 499.761 153.846C498.727 153.122 496.363 154.713 494.481 157.4C493.695 158.52 493.134 159.645 492.805 160.64C489.725 158.605 486.161 157.346 482.378 156.993C482.667 155.999 482.846 154.774 482.846 153.429C482.846 150.152 481.822 147.494 480.557 147.494C479.293 147.494 478.269 150.152 478.269 153.432C478.269 154.745 478.437 155.948 478.715 156.929C474.937 157.17 471.344 158.333 468.208 160.263C467.866 159.365 467.344 158.378 466.657 157.4C464.778 154.713 462.414 153.125 461.38 153.849C460.345 154.574 461.029 157.338 462.912 160.025C463.62 161.036 464.398 161.891 465.147 162.528ZM449.701 188.325H454.107V181.716H459.078V188.328H463.484V171.671H459.08V177.871H454.107V171.671H449.701V188.325ZM467.176 171.671V188.325H478.194V184.635H471.582V181.662H477.015V177.973H471.582V175.358H477.937V171.668L467.176 171.671ZM481.421 171.671V188.325H492.131V184.635H485.827V171.671H481.421ZM495 171.671V188.325H499.048V183.405C499.048 182.978 499.026 182.51 498.983 181.996C498.941 181.483 498.892 180.959 498.842 180.422C498.791 179.884 498.729 179.358 498.663 178.847C498.593 178.334 498.534 177.874 498.483 177.465H498.585L499.916 181.36L502.224 186.972H503.863L506.167 181.36L507.55 177.465H507.651C507.6 177.874 507.539 178.336 507.472 178.85C507.402 179.363 507.344 179.887 507.293 180.424C507.242 180.962 507.194 181.489 507.151 181.999C507.108 182.512 507.087 182.98 507.087 183.408V188.328H511.194V171.671H506.633L504.122 178.59L503.2 181.307H503.098L502.176 178.59L499.561 171.671H495Z" fill="white"/>
</g>
<path d="M97.412 183.177L146.198 231.962C148.51 234.275 152.253 234.275 154.557 231.962L203.522 182.997C205.835 180.684 205.835 176.941 203.522 174.638L154.737 125.852C152.424 123.54 148.681 123.54 146.378 125.852L97.412 174.818C95.0996 177.13 95.0996 180.873 97.412 183.177Z" fill="white" stroke="#D97706"/>
<path d="M147.227 182.146L131.681 173.077L155 160.122L169.251 169.191L147.227 182.146Z" stroke="#111827" stroke-width="2" stroke-linejoin="round"/>
<path d="M147.227 197.692V182.146L169.251 169.191V184.737L147.227 197.692Z" stroke="#111827" stroke-width="2" stroke-linejoin="round"/>
<path d="M131.681 188.623V173.077L147.227 182.146V197.692L131.681 188.623Z" stroke="#111827" stroke-width="2" stroke-linejoin="round"/>
<path d="M155 178.357L155 192.51" stroke="#111827" stroke-width="2" stroke-linecap="round" stroke-linejoin="round"/>
<path d="M162.773 173.663L162.773 188.062" stroke="#111827" stroke-width="2" stroke-linecap="round" stroke-linejoin="round"/>
<defs>
<clipPath id="clip0_2619_8474">
<rect width="64" height="64" fill="white" transform="translate(448.448 147.494)"/>
</clipPath>
</defs>
</svg>
