<svg width="514" height="416" viewBox="0 0 514 416" fill="none" xmlns="http://www.w3.org/2000/svg">
<path d="M288.911 165.943L333.875 210.907" stroke="#D97706" stroke-dasharray="4 4"/>
<path d="M222.413 158.962L177.449 203.927" stroke="#D97706" stroke-dasharray="4 4"/>
<path d="M255.137 208.453V388.996" stroke="#D97706" stroke-dasharray="4 4"/>
<path d="M82.229 136.338L101.427 148.145C107.345 151.784 110.95 158.234 110.95 165.181V202.099" stroke="#D97706" stroke-dasharray="4 4"/>
<path d="M435.478 136.338L416.28 148.145C410.363 151.784 406.757 158.234 406.757 165.181V202.099" stroke="#D97706" stroke-dasharray="4 4"/>
<path d="M166.138 94.6821L135.397 123.414C131.351 127.196 129.054 132.487 129.054 138.025V188.425" stroke="#D97706" stroke-dasharray="4 4"/>
<path d="M351.569 94.6821L382.31 123.414C386.356 127.196 388.653 132.487 388.653 138.025V188.425" stroke="#D97706" stroke-dasharray="4 4"/>
<path d="M178.296 237.992L231.688 287.896C235.735 291.678 238.031 296.968 238.031 302.507V388.996" stroke="#D97706" stroke-dasharray="4 4"/>
<path d="M335.831 237.992L282.438 287.896C278.392 291.678 276.095 296.968 276.095 302.507V388.996" stroke="#D97706" stroke-dasharray="4 4"/>
<path d="M241.823 67.892L186.775 122.94C184.166 125.549 179.942 125.549 177.343 122.94L122.092 67.6889C119.483 65.0797 119.483 60.8561 122.092 58.257L177.14 3.20889C179.75 0.59964 183.973 0.59964 186.572 3.20889L241.823 58.4601C244.433 61.0592 244.433 65.2827 241.823 67.892Z" fill="#EFF6FF" stroke="#2563EB"/>
<path d="M178.303 66.729L160.761 56.4963L187.074 41.8782L203.154 52.1109L178.303 66.729Z" stroke="#2563EB" stroke-width="2" stroke-linejoin="round"/>
<path d="M178.303 84.2706V66.7288L203.154 52.1108V69.6524L178.303 84.2706Z" stroke="#2563EB" stroke-width="2" stroke-linejoin="round"/>
<path d="M160.761 74.0381V56.4963L178.303 66.729V84.2708L160.761 74.0381Z" stroke="#2563EB" stroke-width="2" stroke-linejoin="round"/>
<path d="M187.074 62.4534L187.074 78.4234" stroke="#2563EB" stroke-width="2" stroke-linecap="round" stroke-linejoin="round"/>
<path d="M195.845 57.1572L195.845 73.4049" stroke="#2563EB" stroke-width="2" stroke-linecap="round" stroke-linejoin="round"/>
<path d="M272.716 70.3993L327.767 125.447C330.377 128.057 334.601 128.057 337.2 125.447L392.454 70.1962C395.064 67.587 395.064 63.3634 392.454 60.7643L337.403 5.71622C334.793 3.10696 330.57 3.10696 327.97 5.71622L272.716 60.9674C270.117 63.5665 270.117 67.79 272.716 70.3993Z" fill="#EFF6FF" stroke="#2563EB"/>
<path d="M328.934 69.2363L311.393 59.0036L337.705 44.3855L353.785 54.6182L328.934 69.2363Z" stroke="#2563EB" stroke-width="2" stroke-linejoin="round"/>
<path d="M328.934 86.7779V69.2361L353.785 54.6182V72.1598L328.934 86.7779Z" stroke="#2563EB" stroke-width="2" stroke-linejoin="round"/>
<path d="M311.393 76.5454V59.0037L328.934 69.2364V86.7781L311.393 76.5454Z" stroke="#2563EB" stroke-width="2" stroke-linejoin="round"/>
<path d="M337.705 64.9607L337.705 80.9307" stroke="#2563EB" stroke-width="2" stroke-linecap="round" stroke-linejoin="round"/>
<path d="M346.476 59.6646L346.476 75.9122" stroke="#2563EB" stroke-width="2" stroke-linecap="round" stroke-linejoin="round"/>
<path d="M2.95694 113.671L58.0051 168.719C60.6143 171.328 64.8379 171.328 67.437 168.719L122.688 113.468C125.297 110.858 125.297 106.635 122.688 104.036L67.64 48.9877C65.0308 46.3784 60.8072 46.3784 58.2081 48.9877L2.95694 104.239C0.347687 106.848 0.347687 111.072 2.95694 113.671Z" fill="#EFF6FF" stroke="#2563EB"/>
<path d="M62.8225 108.853C73.5534 108.853 82.2525 104.108 82.2525 98.2551C82.2525 92.4019 73.5534 87.657 62.8225 87.657C52.0917 87.657 43.3926 92.4019 43.3926 98.2551C43.3926 104.108 52.0917 108.853 62.8225 108.853Z" stroke="#2563EB" stroke-width="2" stroke-linecap="round" stroke-linejoin="round"/>
<path d="M43.3926 98.2551V108.853C43.3926 114.706 52.0917 119.451 62.8225 119.451C73.5534 119.451 82.2525 114.706 82.2525 108.853V98.2551" stroke="#2563EB" stroke-width="2" stroke-linecap="round" stroke-linejoin="round"/>
<path d="M43.3926 108.853V119.451C43.3926 125.305 52.0917 130.05 62.8225 130.05C73.5534 130.05 82.2525 125.305 82.2525 119.451V108.853" stroke="#2563EB" stroke-width="2" stroke-linecap="round" stroke-linejoin="round"/>
<path d="M391.312 113.67L446.36 168.718C448.969 171.328 453.193 171.328 455.792 168.718L511.043 113.467C513.652 110.858 513.652 106.634 511.043 104.035L455.995 48.9872C453.386 46.378 449.162 46.378 446.563 48.9872L391.312 104.238C388.703 106.848 388.703 111.071 391.312 113.67Z" fill="#EFF6FF" stroke="#2563EB"/>
<path d="M451.178 108.853C461.909 108.853 470.608 104.108 470.608 98.2549C470.608 92.4017 461.909 87.6567 451.178 87.6567C440.447 87.6567 431.748 92.4017 431.748 98.2549C431.748 104.108 440.447 108.853 451.178 108.853Z" stroke="#2563EB" stroke-width="2" stroke-linecap="round" stroke-linejoin="round"/>
<path d="M431.748 98.2549V108.853C431.748 114.706 440.447 119.451 451.178 119.451C461.909 119.451 470.608 114.706 470.608 108.853V98.2549" stroke="#2563EB" stroke-width="2" stroke-linecap="round" stroke-linejoin="round"/>
<path d="M431.748 108.853V119.451C431.748 125.304 440.447 130.049 451.178 130.049C461.909 130.049 470.608 125.304 470.608 119.451V108.853" stroke="#2563EB" stroke-width="2" stroke-linecap="round" stroke-linejoin="round"/>
<path d="M204.77 218.075L152.644 270.201C150.173 272.672 146.174 272.672 143.713 270.201L91.3953 217.883C88.9246 215.412 88.9246 211.413 91.3953 208.952L143.521 156.826C145.991 154.356 149.991 154.356 152.452 156.826L204.77 209.144C207.24 211.605 207.24 215.605 204.77 218.075Z" fill="white" stroke="#D97706"/>
<path fill-rule="evenodd" clip-rule="evenodd" d="M141.289 201.295C141.289 197.62 144.268 194.641 147.943 194.641C151.618 194.641 154.597 197.62 154.597 201.295C154.597 204.97 151.618 207.949 147.943 207.949C144.268 207.949 141.289 204.97 141.289 201.295ZM147.943 192.641C143.164 192.641 139.289 196.516 139.289 201.295C139.289 204.507 141.04 207.311 143.639 208.804C141.48 209.701 139.662 211.254 138.433 213.211H128.176C127.623 213.211 127.176 213.659 127.176 214.211V233.386C127.176 233.938 127.623 234.386 128.176 234.386H167.961C168.514 234.386 168.961 233.938 168.961 233.386V214.211C168.961 213.659 168.514 213.211 167.961 213.211H157.452C156.223 211.254 154.406 209.702 152.247 208.804C154.846 207.311 156.597 204.508 156.597 201.295C156.597 196.516 152.722 192.641 147.943 192.641ZM154.98 213.211H140.905C142.597 211.214 145.123 209.949 147.943 209.949C150.763 209.949 153.288 211.214 154.98 213.211ZM129.176 215.211V232.386H166.961V215.211H129.176ZM150.828 219.176C151.017 218.656 150.749 218.083 150.23 217.894C149.711 217.705 149.137 217.973 148.949 218.492L145.338 228.422C145.149 228.941 145.417 229.515 145.936 229.703C146.455 229.892 147.029 229.624 147.217 229.105L150.828 219.176ZM144.232 221.744C144.623 221.353 144.623 220.72 144.232 220.33C143.842 219.939 143.209 219.939 142.818 220.33L140.056 223.092C139.868 223.279 139.763 223.534 139.763 223.799C139.763 224.064 139.868 224.319 140.056 224.506L142.818 227.268C143.209 227.659 143.842 227.659 144.232 227.268C144.623 226.878 144.623 226.245 144.232 225.854L142.177 223.799L144.232 221.744ZM151.933 220.33C152.324 219.939 152.957 219.939 153.348 220.33L156.11 223.092C156.297 223.279 156.403 223.534 156.403 223.799C156.403 224.064 156.297 224.319 156.11 224.506L153.348 227.268C152.957 227.659 152.324 227.659 151.933 227.268C151.543 226.878 151.543 226.245 151.933 225.854L153.989 223.799L151.933 221.744C151.543 221.353 151.543 220.72 151.933 220.33Z" fill="#111827"/>
<path d="M305.124 221.613L360.176 276.662C362.785 279.271 367.009 279.271 369.608 276.662L424.863 221.41C427.472 218.801 427.472 214.578 424.863 211.978L369.811 156.93C367.202 154.321 362.978 154.321 360.379 156.93L305.124 212.182C302.525 214.781 302.525 219.004 305.124 221.613Z" fill="white" stroke="#D97706"/>
<path d="M364.997 237.992C376.703 237.992 386.193 228.502 386.193 216.796C386.193 205.09 376.703 195.6 364.997 195.6C353.291 195.6 343.801 205.09 343.801 216.796C343.801 228.502 353.291 237.992 364.997 237.992Z" stroke="#111827" stroke-width="2" stroke-miterlimit="10"/>
<path d="M345.008 209.73H384.986" stroke="#111827" stroke-width="2" stroke-linecap="round" stroke-linejoin="round"/>
<path d="M345.009 223.861H384.987" stroke="#111827" stroke-width="2" stroke-linecap="round" stroke-linejoin="round"/>
<path d="M364.997 237.423C369.875 237.423 373.829 228.188 373.829 216.796C373.829 205.404 369.875 196.169 364.997 196.169C360.119 196.169 356.165 205.404 356.165 216.796C356.165 228.188 360.119 237.423 364.997 237.423Z" stroke="#111827" stroke-width="2" stroke-miterlimit="10"/>
<path d="M194.926 357.743L249.978 412.791C252.587 415.4 256.811 415.4 259.41 412.791L314.665 357.54C317.274 354.93 317.274 350.707 314.665 348.108L259.613 293.06C257.004 290.45 252.78 290.45 250.181 293.06L194.926 348.311C192.327 350.91 192.327 355.134 194.926 357.743Z" fill="#3B82F6" stroke="#2563EB"/>
<g clip-path="url(#clip0_3012_55814)">
<path d="M272.01 371.772C273.831 374.372 274.494 377.048 273.492 377.749C272.491 378.45 270.203 376.911 268.382 374.31C267.712 373.353 267.202 372.385 266.871 371.51C263.879 373.508 260.419 374.765 256.784 375.133C256.993 376.013 257.12 377.04 257.12 378.15C257.12 381.325 256.129 383.897 254.905 383.897C253.681 383.897 252.69 381.325 252.69 378.15C252.69 377.063 252.812 376.062 253.014 375.195C249.355 374.939 245.859 373.78 242.808 371.872C242.479 372.651 242.031 373.479 241.452 374.31C239.63 376.911 237.343 378.45 236.341 377.749C235.34 377.048 236.002 374.372 237.824 371.772C238.435 370.899 239.097 370.162 239.747 369.572C238.486 368.441 237.345 367.163 236.359 365.745L239.268 363.721C242.748 368.726 248.464 371.712 254.556 371.712C260.663 371.712 266.384 368.715 269.864 363.695L272.776 365.714C271.875 367.013 270.843 368.19 269.714 369.249C270.48 369.872 271.28 370.731 272.01 371.772ZM239.99 336.504C238.45 337.85 237.081 339.41 235.937 341.18L238.913 343.103C242.36 337.767 248.208 334.581 254.558 334.581C261.118 334.581 267.07 337.93 270.475 343.537L273.503 341.698C272.377 339.845 271.011 338.207 269.466 336.794C270.304 336.16 271.202 335.234 272.01 334.079C273.831 331.479 274.494 328.803 273.492 328.102C272.491 327.401 270.203 328.94 268.382 331.541C267.621 332.625 267.078 333.715 266.759 334.677C263.778 332.708 260.329 331.489 256.667 331.148C256.947 330.185 257.12 329 257.12 327.698C257.12 324.526 256.129 321.954 254.905 321.954C253.681 321.954 252.69 324.526 252.69 327.701C252.69 328.971 252.853 330.136 253.122 331.086C249.466 331.318 245.988 332.444 242.953 334.312C242.621 333.443 242.117 332.488 241.452 331.541C239.633 328.94 237.345 327.403 236.344 328.105C235.342 328.806 236.005 331.481 237.826 334.082C238.512 335.06 239.265 335.888 239.99 336.504ZM225.041 361.473H229.305V355.076H234.116V361.475H238.38V345.354H234.118V351.355H229.305V345.354H225.041V361.473ZM241.954 345.354V361.473H252.618V357.902H246.218V355.024H251.476V351.453H246.218V348.922H252.369V345.351L241.954 345.354ZM255.741 345.354V361.473H266.107V357.902H260.005V345.354H255.741ZM268.884 345.354V361.473H272.801V356.711C272.801 356.297 272.781 355.844 272.739 355.348C272.698 354.851 272.651 354.344 272.602 353.823C272.553 353.303 272.494 352.794 272.429 352.299C272.362 351.802 272.305 351.357 272.255 350.961H272.354L273.642 354.732L275.876 360.163H277.462L279.692 354.732L281.03 350.961H281.129C281.079 351.357 281.02 351.805 280.955 352.302C280.888 352.799 280.831 353.306 280.782 353.826C280.733 354.346 280.686 354.856 280.645 355.35C280.603 355.847 280.583 356.3 280.583 356.714V361.475H284.557V345.354H280.143L277.713 352.051L276.82 354.68H276.722L275.829 352.051L273.298 345.354H268.884Z" fill="white"/>
</g>
<path d="M195.035 159.791L250.083 214.839C252.692 217.448 256.915 217.448 259.515 214.839L314.766 159.588C317.375 156.979 317.375 152.755 314.766 150.156L259.718 95.1078C257.108 92.4986 252.885 92.4986 250.286 95.1078L195.035 150.359C192.425 152.968 192.425 157.192 195.035 159.791Z" fill="white" stroke="#D97706"/>
<path d="M251.244 158.628L233.702 148.395L260.015 133.777L276.095 144.01L251.244 158.628Z" stroke="#111827" stroke-width="2" stroke-linejoin="round"/>
<path d="M251.244 176.169V158.627L276.095 144.01V161.551L251.244 176.169Z" stroke="#111827" stroke-width="2" stroke-linejoin="round"/>
<path d="M233.702 165.937V148.395L251.244 158.628V176.169L233.702 165.937Z" stroke="#111827" stroke-width="2" stroke-linejoin="round"/>
<path d="M260.015 154.352L260.015 170.322" stroke="#111827" stroke-width="2" stroke-linecap="round" stroke-linejoin="round"/>
<path d="M268.786 149.056L268.786 165.304" stroke="#111827" stroke-width="2" stroke-linecap="round" stroke-linejoin="round"/>
<defs>
<clipPath id="clip0_3012_55814">
<rect width="61.9438" height="61.9437" fill="white" transform="translate(223.827 321.954)"/>
</clipPath>
</defs>
</svg>
