<svg width="408" height="317" viewBox="0 0 408 317" fill="none" xmlns="http://www.w3.org/2000/svg">
<g filter="url(#filter0_dd_4665_104789)">
<rect x="16.5" y="14.4902" width="227.638" height="313" rx="8.5" fill="#F4F4F5"/>
<rect x="16.5" y="14.4902" width="227.638" height="313" rx="8.5" stroke="#D4D4D8"/>
<path d="M42.1279 55.9902V45.8047H43.9258L47.7607 51.8682C47.8883 52.0687 48.0319 52.3079 48.1914 52.5859C48.3509 52.8639 48.5195 53.1784 48.6973 53.5293C48.875 53.8757 49.0505 54.2539 49.2236 54.6641H49.0322C48.9912 54.2767 48.9593 53.8939 48.9365 53.5156C48.9183 53.1328 48.9046 52.7751 48.8955 52.4424C48.8864 52.1097 48.8818 51.8294 48.8818 51.6016V45.8047H50.4609V55.9902H48.6562L45.2178 50.5693C45.0355 50.2731 44.8555 49.9746 44.6777 49.6738C44.5046 49.373 44.3109 49.0267 44.0967 48.6348C43.887 48.2383 43.6296 47.7575 43.3242 47.1924H43.5703C43.5931 47.6937 43.6159 48.1631 43.6387 48.6006C43.6615 49.0335 43.6774 49.4186 43.6865 49.7559C43.7002 50.0885 43.707 50.3551 43.707 50.5557V55.9902H42.1279ZM55.4443 56.1406C54.8291 56.1406 54.2799 55.9834 53.7969 55.6689C53.3184 55.3499 52.9401 54.8965 52.6621 54.3086C52.3887 53.7161 52.252 53.0098 52.252 52.1895C52.252 51.36 52.391 50.6514 52.6689 50.0635C52.9515 49.4756 53.3343 49.0267 53.8174 48.7168C54.305 48.4069 54.8542 48.252 55.4648 48.252C55.9342 48.252 56.3125 48.3294 56.5996 48.4844C56.8913 48.6393 57.1169 48.8239 57.2764 49.0381C57.4404 49.2477 57.5658 49.4323 57.6523 49.5918H57.748V48.3477H59.2383V55.9902H57.7549V54.7939H57.6523C57.5658 54.958 57.4382 55.1471 57.2695 55.3613C57.1009 55.571 56.8708 55.7533 56.5791 55.9082C56.2874 56.0632 55.9092 56.1406 55.4443 56.1406ZM55.793 54.8623C56.2214 54.8623 56.5814 54.7484 56.873 54.5205C57.1693 54.2926 57.3926 53.9782 57.543 53.5771C57.6934 53.1715 57.7686 52.7044 57.7686 52.1758C57.7686 51.6426 57.6934 51.18 57.543 50.7881C57.3926 50.3916 57.1693 50.084 56.873 49.8652C56.5814 49.6419 56.2214 49.5303 55.793 49.5303C55.3509 49.5303 54.9818 49.6465 54.6855 49.8789C54.3893 50.1068 54.166 50.4212 54.0156 50.8223C53.8652 51.2188 53.79 51.6699 53.79 52.1758C53.79 52.6816 53.8652 53.1374 54.0156 53.543C54.166 53.9486 54.3893 54.2699 54.6855 54.5068C54.9863 54.7438 55.3555 54.8623 55.793 54.8623ZM61.2617 55.9902V48.3477H62.6904L62.7314 50.1182H62.6152C62.7246 49.6852 62.8932 49.3298 63.1211 49.0518C63.349 48.7738 63.6156 48.5664 63.9209 48.4297C64.2262 48.2884 64.5452 48.2178 64.8779 48.2178C65.4339 48.2178 65.8828 48.391 66.2246 48.7373C66.5664 49.0791 66.7965 49.5576 66.915 50.1729H66.7236C66.8239 49.7536 66.9971 49.3981 67.2432 49.1064C67.4893 48.8148 67.7855 48.5938 68.1318 48.4434C68.4827 48.293 68.8564 48.2178 69.2529 48.2178C69.7041 48.2178 70.112 48.3158 70.4766 48.5117C70.8457 48.7077 71.1374 48.9993 71.3516 49.3867C71.5658 49.7741 71.6729 50.2572 71.6729 50.8359V55.9902H70.1621V50.9863C70.1621 50.4759 70.0208 50.1068 69.7383 49.8789C69.4557 49.651 69.1208 49.5371 68.7334 49.5371C68.4189 49.5371 68.1478 49.6032 67.9199 49.7354C67.6921 49.8675 67.5166 50.0521 67.3936 50.2891C67.2705 50.5215 67.209 50.7904 67.209 51.0957V55.9902H65.7256V50.8906C65.7256 50.4805 65.5934 50.1523 65.3291 49.9062C65.0693 49.6602 64.7367 49.5371 64.3311 49.5371C64.0531 49.5371 63.7933 49.6032 63.5518 49.7354C63.3148 49.863 63.1234 50.0544 62.9775 50.3096C62.8363 50.5602 62.7656 50.8701 62.7656 51.2393V55.9902H61.2617ZM76.998 56.1475C76.2461 56.1475 75.5967 55.9857 75.0498 55.6621C74.5029 55.3385 74.0814 54.8828 73.7852 54.2949C73.4935 53.707 73.3477 53.0166 73.3477 52.2236C73.3477 51.4398 73.4912 50.7493 73.7783 50.1523C74.07 49.5553 74.4801 49.0905 75.0088 48.7578C75.5374 48.4206 76.1572 48.252 76.8682 48.252C77.3057 48.252 77.7272 48.3249 78.1328 48.4707C78.5384 48.612 78.903 48.8353 79.2266 49.1406C79.5501 49.446 79.8053 49.8424 79.9922 50.3301C80.1836 50.8132 80.2793 51.401 80.2793 52.0938V52.627H74.1885V51.5059H79.5068L78.8027 51.875C78.8027 51.4056 78.7298 50.9932 78.584 50.6377C78.4382 50.2777 78.2217 49.9974 77.9346 49.7969C77.652 49.5964 77.2965 49.4961 76.8682 49.4961C76.4443 49.4961 76.082 49.5986 75.7812 49.8037C75.4805 50.0088 75.2503 50.2799 75.0908 50.6172C74.9359 50.9499 74.8584 51.3145 74.8584 51.7109V52.4766C74.8584 53.0007 74.9473 53.445 75.125 53.8096C75.3073 54.1696 75.5602 54.443 75.8838 54.6299C76.2074 54.8122 76.5833 54.9033 77.0117 54.9033C77.2943 54.9033 77.5495 54.8646 77.7773 54.7871C78.0052 54.7051 78.2012 54.5843 78.3652 54.4248C78.5339 54.2607 78.6615 54.0602 78.748 53.8232L80.1631 54.1582C80.04 54.5501 79.8327 54.8965 79.541 55.1973C79.2539 55.498 78.8939 55.7327 78.4609 55.9014C78.0326 56.0654 77.5449 56.1475 76.998 56.1475Z" fill="#111827"/>
<g clip-path="url(#clip0_4665_104789)">
<rect x="41" y="66.9902" width="178.638" height="36" rx="4" fill="white"/>
<path d="M53.4092 89.9902H50.9482V88.8418H53.3271C54.1566 88.8418 54.8424 88.6846 55.3848 88.3701C55.9316 88.0511 56.3395 87.5954 56.6084 87.0029C56.8773 86.4105 57.0117 85.7018 57.0117 84.877C57.0117 84.0612 56.8773 83.3617 56.6084 82.7783C56.3441 82.1904 55.9476 81.7393 55.4189 81.4248C54.8949 81.1104 54.2386 80.9531 53.4502 80.9531H50.8936V79.8047H53.5391C54.5326 79.8047 55.3802 80.0075 56.082 80.4131C56.7884 80.8187 57.3285 81.402 57.7021 82.1631C58.0804 82.9196 58.2695 83.8242 58.2695 84.877C58.2695 85.9388 58.0804 86.8525 57.7021 87.6182C57.3239 88.3792 56.7725 88.9648 56.0479 89.375C55.3232 89.7852 54.4437 89.9902 53.4092 89.9902ZM51.5293 79.8047V89.9902H50.2305V79.8047H51.5293ZM63.3965 90.1543C62.6582 90.1543 62.0202 89.9902 61.4824 89.6621C60.9492 89.334 60.5368 88.876 60.2451 88.2881C59.958 87.7002 59.8145 87.0143 59.8145 86.2305C59.8145 85.4466 59.9557 84.7562 60.2383 84.1592C60.5208 83.5622 60.9196 83.0951 61.4346 82.7578C61.9541 82.4206 62.5602 82.252 63.2529 82.252C63.6585 82.252 64.0573 82.3203 64.4492 82.457C64.8457 82.5892 65.2035 82.8057 65.5225 83.1064C65.846 83.4027 66.1035 83.7946 66.2949 84.2822C66.4863 84.7699 66.582 85.3669 66.582 86.0732V86.5859H60.6484V85.5469H65.9189L65.3447 85.9297C65.3447 85.4284 65.265 84.984 65.1055 84.5967C64.9505 84.2048 64.7181 83.8994 64.4082 83.6807C64.0983 83.4574 63.7132 83.3457 63.2529 83.3457C62.7926 83.3457 62.3984 83.4596 62.0703 83.6875C61.7422 83.9108 61.4915 84.2048 61.3184 84.5693C61.1452 84.9294 61.0586 85.3167 61.0586 85.7314V86.4219C61.0586 86.987 61.1566 87.4678 61.3525 87.8643C61.5485 88.2562 61.8219 88.5547 62.1729 88.7598C62.5283 88.9603 62.9385 89.0605 63.4033 89.0605C63.7041 89.0605 63.9775 89.0173 64.2236 88.9307C64.4697 88.8441 64.6816 88.7142 64.8594 88.541C65.0371 88.3633 65.1738 88.1445 65.2695 87.8848L66.459 88.2129C66.3405 88.5957 66.14 88.9329 65.8574 89.2246C65.5749 89.5163 65.224 89.7441 64.8047 89.9082C64.39 90.0723 63.9206 90.1543 63.3965 90.1543ZM70.2803 89.9902L67.3613 82.3477H68.708L70.335 86.8799C70.5081 87.3493 70.654 87.8187 70.7725 88.2881C70.8955 88.7529 71.0231 89.2041 71.1553 89.6416H70.7041C70.8363 89.2041 70.9616 88.7529 71.0801 88.2881C71.2031 87.8187 71.349 87.3493 71.5176 86.8799L73.1445 82.3477H74.4912L71.5723 89.9902H70.2803ZM82.9951 90.1543C82.3024 90.1543 81.694 89.9902 81.1699 89.6621C80.6504 89.334 80.2448 88.8737 79.9531 88.2812C79.6615 87.6888 79.5156 87.0007 79.5156 86.2168C79.5156 85.4193 79.6615 84.7243 79.9531 84.1318C80.2448 83.5348 80.6504 83.0723 81.1699 82.7441C81.694 82.416 82.3024 82.252 82.9951 82.252C83.3643 82.252 83.7129 82.2998 84.041 82.3955C84.3691 82.4912 84.6676 82.6302 84.9365 82.8125C85.21 82.9902 85.4447 83.2113 85.6406 83.4756C85.8366 83.7354 85.987 84.0316 86.0918 84.3643L84.9092 84.6992C84.8545 84.5033 84.7702 84.3232 84.6562 84.1592C84.5423 83.9951 84.4033 83.8538 84.2393 83.7354C84.0798 83.6123 83.8952 83.5189 83.6855 83.4551C83.4759 83.3867 83.2458 83.3525 82.9951 83.3525C82.4847 83.3525 82.0654 83.487 81.7373 83.7559C81.4092 84.0202 81.1654 84.3688 81.0059 84.8018C80.8464 85.2347 80.7666 85.7064 80.7666 86.2168C80.7666 86.7181 80.8464 87.1852 81.0059 87.6182C81.1654 88.0465 81.4092 88.3929 81.7373 88.6572C82.0654 88.9215 82.4847 89.0537 82.9951 89.0537C83.2503 89.0537 83.485 89.0195 83.6992 88.9512C83.9134 88.8828 84.1025 88.7871 84.2666 88.6641C84.4352 88.5365 84.5765 88.3861 84.6904 88.2129C84.8044 88.0397 84.8887 87.8506 84.9434 87.6455L86.1191 87.9805C86.0189 88.3223 85.8685 88.6276 85.668 88.8965C85.472 89.1608 85.2373 89.3887 84.9639 89.5801C84.6904 89.7669 84.3874 89.9082 84.0547 90.0039C83.722 90.1042 83.3688 90.1543 82.9951 90.1543ZM89.1133 79.8047V89.9902H87.8828V79.8047H89.1133ZM93.8643 90.0859C93.3493 90.0859 92.8958 89.9811 92.5039 89.7715C92.1165 89.5573 91.8135 89.236 91.5947 88.8076C91.3805 88.3792 91.2734 87.8438 91.2734 87.2012V82.3477H92.5039V87.0986C92.5039 87.6865 92.6589 88.1468 92.9688 88.4795C93.2786 88.8122 93.7002 88.9785 94.2334 88.9785C94.598 88.9785 94.9238 88.8988 95.2109 88.7393C95.5026 88.5798 95.7327 88.3473 95.9014 88.042C96.07 87.7321 96.1543 87.3607 96.1543 86.9277V82.3477H97.3916V89.9902H96.2021V88.1377H96.3662C96.1292 88.8532 95.792 89.3568 95.3545 89.6484C94.9215 89.9401 94.4248 90.0859 93.8643 90.0859ZM102.156 90.1543C101.632 90.1543 101.165 90.0791 100.755 89.9287C100.349 89.7738 100.014 89.5459 99.75 89.2451C99.4857 88.9443 99.3079 88.5752 99.2168 88.1377L100.386 87.8574C100.495 88.2767 100.7 88.5843 101.001 88.7803C101.306 88.9762 101.687 89.0742 102.143 89.0742C102.676 89.0742 103.1 88.9603 103.414 88.7324C103.733 88.5046 103.893 88.2334 103.893 87.9189C103.893 87.6546 103.799 87.4359 103.612 87.2627C103.43 87.085 103.15 86.9528 102.771 86.8662L101.5 86.5654C100.807 86.4014 100.292 86.1484 99.9551 85.8066C99.6178 85.4603 99.4492 85.0182 99.4492 84.4805C99.4492 84.043 99.5723 83.6579 99.8184 83.3252C100.064 82.988 100.399 82.7259 100.823 82.5391C101.252 82.3477 101.737 82.252 102.279 82.252C102.803 82.252 103.248 82.3317 103.612 82.4912C103.981 82.6462 104.28 82.8626 104.508 83.1406C104.74 83.4141 104.913 83.7308 105.027 84.0908L103.913 84.3779C103.808 84.1045 103.633 83.8561 103.387 83.6328C103.145 83.4095 102.778 83.2979 102.286 83.2979C101.83 83.2979 101.45 83.4027 101.145 83.6123C100.844 83.8219 100.693 84.0863 100.693 84.4053C100.693 84.6878 100.796 84.9157 101.001 85.0889C101.206 85.2575 101.532 85.3942 101.979 85.499L103.134 85.7725C103.826 85.9365 104.339 86.1917 104.672 86.5381C105.005 86.8799 105.171 87.3128 105.171 87.8369C105.171 88.2835 105.043 88.6823 104.788 89.0332C104.537 89.3796 104.184 89.653 103.729 89.8535C103.277 90.054 102.753 90.1543 102.156 90.1543ZM109.963 82.3477V83.4004H106.012V82.3477H109.963ZM107.16 80.5293H108.391V88.0078C108.391 88.3496 108.459 88.6003 108.596 88.7598C108.737 88.9147 108.969 88.9922 109.293 88.9922C109.37 88.9922 109.468 88.9831 109.587 88.9648C109.71 88.9466 109.822 88.9284 109.922 88.9102L110.175 89.9492C110.047 89.9948 109.901 90.029 109.737 90.0518C109.578 90.0745 109.418 90.0859 109.259 90.0859C108.598 90.0859 108.083 89.9128 107.714 89.5664C107.345 89.2155 107.16 88.7279 107.16 88.1035V80.5293ZM114.611 90.1543C113.873 90.1543 113.235 89.9902 112.697 89.6621C112.164 89.334 111.752 88.876 111.46 88.2881C111.173 87.7002 111.029 87.0143 111.029 86.2305C111.029 85.4466 111.171 84.7562 111.453 84.1592C111.736 83.5622 112.134 83.0951 112.649 82.7578C113.169 82.4206 113.775 82.252 114.468 82.252C114.873 82.252 115.272 82.3203 115.664 82.457C116.061 82.5892 116.418 82.8057 116.737 83.1064C117.061 83.4027 117.318 83.7946 117.51 84.2822C117.701 84.7699 117.797 85.3669 117.797 86.0732V86.5859H111.863V85.5469H117.134L116.56 85.9297C116.56 85.4284 116.48 84.984 116.32 84.5967C116.165 84.2048 115.933 83.8994 115.623 83.6807C115.313 83.4574 114.928 83.3457 114.468 83.3457C114.007 83.3457 113.613 83.4596 113.285 83.6875C112.957 83.9108 112.706 84.2048 112.533 84.5693C112.36 84.9294 112.273 85.3167 112.273 85.7314V86.4219C112.273 86.987 112.371 87.4678 112.567 87.8643C112.763 88.2562 113.037 88.5547 113.388 88.7598C113.743 88.9603 114.153 89.0605 114.618 89.0605C114.919 89.0605 115.192 89.0173 115.438 88.9307C115.685 88.8441 115.896 88.7142 116.074 88.541C116.252 88.3633 116.389 88.1445 116.484 87.8848L117.674 88.2129C117.555 88.5957 117.355 88.9329 117.072 89.2246C116.79 89.5163 116.439 89.7441 116.02 89.9082C115.605 90.0723 115.135 90.1543 114.611 90.1543ZM119.561 89.9902V82.3477H120.75V83.5234H120.832C120.973 83.1361 121.224 82.8262 121.584 82.5938C121.949 82.3568 122.359 82.2383 122.814 82.2383C122.906 82.2383 123.013 82.2406 123.136 82.2451C123.263 82.2497 123.364 82.2542 123.437 82.2588V83.4961C123.4 83.487 123.309 83.4733 123.163 83.4551C123.017 83.4368 122.862 83.4277 122.698 83.4277C122.334 83.4277 122.006 83.5052 121.714 83.6602C121.427 83.8105 121.201 84.0202 121.037 84.2891C120.873 84.5534 120.791 84.8587 120.791 85.2051V89.9902H119.561ZM132.036 90.127C131.371 90.127 130.781 90.013 130.266 89.7852C129.751 89.5573 129.34 89.2406 129.035 88.835C128.734 88.4294 128.573 87.9577 128.55 87.4199H129.862C129.89 87.7435 129.999 88.0238 130.19 88.2607C130.386 88.4932 130.642 88.6732 130.956 88.8008C131.275 88.9238 131.628 88.9854 132.016 88.9854C132.444 88.9854 132.822 88.9124 133.15 88.7666C133.483 88.6162 133.745 88.4066 133.937 88.1377C134.128 87.8688 134.224 87.5589 134.224 87.208C134.224 86.8389 134.13 86.5153 133.943 86.2373C133.761 85.9548 133.494 85.7337 133.144 85.5742C132.793 85.4147 132.364 85.335 131.858 85.335H131.031V84.207H131.858C132.255 84.207 132.604 84.1364 132.904 83.9951C133.21 83.8493 133.447 83.6465 133.615 83.3867C133.784 83.127 133.868 82.8216 133.868 82.4707C133.868 82.1335 133.793 81.8395 133.643 81.5889C133.497 81.3382 133.287 81.1445 133.014 81.0078C132.74 80.8665 132.419 80.7959 132.05 80.7959C131.703 80.7959 131.378 80.8597 131.072 80.9873C130.771 81.1104 130.523 81.2881 130.327 81.5205C130.136 81.7529 130.033 82.0355 130.02 82.3682H128.769C128.787 81.835 128.946 81.3656 129.247 80.96C129.548 80.5544 129.944 80.2376 130.437 80.0098C130.933 79.7819 131.48 79.668 132.077 79.668C132.711 79.668 133.255 79.7956 133.711 80.0508C134.171 80.306 134.524 80.641 134.771 81.0557C135.017 81.4704 135.14 81.9193 135.14 82.4023C135.14 82.9766 134.987 83.4642 134.682 83.8652C134.381 84.2663 133.971 84.5443 133.451 84.6992V84.7812C133.884 84.8496 134.253 84.9954 134.559 85.2188C134.868 85.4421 135.103 85.7246 135.263 86.0664C135.427 86.4082 135.509 86.7933 135.509 87.2217C135.509 87.7777 135.358 88.2744 135.058 88.7119C134.757 89.1494 134.344 89.4958 133.82 89.751C133.296 90.0016 132.701 90.127 132.036 90.127Z" fill="#111827"/>
</g>
<rect x="41" y="66.9902" width="178.638" height="36" rx="4" stroke="#E4E4E7"/>
<path d="M42.1279 139.99V129.805H43.9258L47.7607 135.868C47.8883 136.069 48.0319 136.308 48.1914 136.586C48.3509 136.864 48.5195 137.178 48.6973 137.529C48.875 137.876 49.0505 138.254 49.2236 138.664H49.0322C48.9912 138.277 48.9593 137.894 48.9365 137.516C48.9183 137.133 48.9046 136.775 48.8955 136.442C48.8864 136.11 48.8818 135.829 48.8818 135.602V129.805H50.4609V139.99H48.6562L45.2178 134.569C45.0355 134.273 44.8555 133.975 44.6777 133.674C44.5046 133.373 44.3109 133.027 44.0967 132.635C43.887 132.238 43.6296 131.757 43.3242 131.192H43.5703C43.5931 131.694 43.6159 132.163 43.6387 132.601C43.6615 133.034 43.6774 133.419 43.6865 133.756C43.7002 134.089 43.707 134.355 43.707 134.556V139.99H42.1279ZM55.8203 140.147C55.1048 140.147 54.4782 139.983 53.9404 139.655C53.4072 139.327 52.9925 138.867 52.6963 138.274C52.4001 137.682 52.252 136.994 52.252 136.21C52.252 135.417 52.4001 134.724 52.6963 134.132C52.9925 133.535 53.4072 133.072 53.9404 132.744C54.4782 132.416 55.1048 132.252 55.8203 132.252C56.5404 132.252 57.167 132.416 57.7002 132.744C58.238 133.072 58.6549 133.535 58.9512 134.132C59.2474 134.724 59.3955 135.417 59.3955 136.21C59.3955 136.994 59.2474 137.682 58.9512 138.274C58.6549 138.867 58.238 139.327 57.7002 139.655C57.167 139.983 56.5404 140.147 55.8203 140.147ZM55.8203 138.876C56.2852 138.876 56.668 138.755 56.9688 138.514C57.2741 138.268 57.4997 137.944 57.6455 137.543C57.7959 137.137 57.8711 136.693 57.8711 136.21C57.8711 135.722 57.7959 135.276 57.6455 134.87C57.4997 134.46 57.2741 134.134 56.9688 133.893C56.668 133.646 56.2852 133.523 55.8203 133.523C55.36 133.523 54.9795 133.646 54.6787 133.893C54.3779 134.134 54.1523 134.458 54.002 134.863C53.8561 135.269 53.7832 135.718 53.7832 136.21C53.7832 136.693 53.8561 137.137 54.002 137.543C54.1523 137.944 54.3779 138.268 54.6787 138.514C54.9795 138.755 55.36 138.876 55.8203 138.876ZM63.9141 140.141C63.2943 140.141 62.7428 139.983 62.2598 139.669C61.7767 139.35 61.3984 138.896 61.125 138.309C60.8516 137.716 60.7148 137.01 60.7148 136.189C60.7148 135.36 60.8538 134.651 61.1318 134.063C61.4098 133.476 61.7904 133.027 62.2734 132.717C62.7565 132.407 63.3034 132.252 63.9141 132.252C64.388 132.252 64.7686 132.332 65.0557 132.491C65.3473 132.646 65.5752 132.828 65.7393 133.038C65.9033 133.248 66.0286 133.432 66.1152 133.592H66.1973V129.805H67.7012V139.99H66.2383V138.794H66.1152C66.0286 138.958 65.901 139.145 65.7324 139.354C65.5638 139.564 65.3337 139.749 65.042 139.908C64.7503 140.063 64.3743 140.141 63.9141 140.141ZM64.2422 138.862C64.6706 138.862 65.0306 138.748 65.3223 138.521C65.6185 138.293 65.8418 137.978 65.9922 137.577C66.1471 137.172 66.2246 136.704 66.2246 136.176C66.2246 135.643 66.1494 135.18 65.999 134.788C65.8486 134.392 65.6253 134.084 65.3291 133.865C65.0374 133.642 64.6751 133.53 64.2422 133.53C63.8001 133.53 63.431 133.646 63.1348 133.879C62.8431 134.111 62.6221 134.428 62.4717 134.829C62.3258 135.226 62.2529 135.674 62.2529 136.176C62.2529 136.682 62.3281 137.137 62.4785 137.543C62.6289 137.949 62.8522 138.27 63.1484 138.507C63.4447 138.744 63.8092 138.862 64.2422 138.862ZM73.0195 140.147C72.2676 140.147 71.6182 139.986 71.0713 139.662C70.5244 139.339 70.1029 138.883 69.8066 138.295C69.515 137.707 69.3691 137.017 69.3691 136.224C69.3691 135.44 69.5127 134.749 69.7998 134.152C70.0915 133.555 70.5016 133.09 71.0303 132.758C71.5589 132.421 72.1787 132.252 72.8896 132.252C73.3271 132.252 73.7487 132.325 74.1543 132.471C74.5599 132.612 74.9245 132.835 75.248 133.141C75.5716 133.446 75.8268 133.842 76.0137 134.33C76.2051 134.813 76.3008 135.401 76.3008 136.094V136.627H70.21V135.506H75.5283L74.8242 135.875C74.8242 135.406 74.7513 134.993 74.6055 134.638C74.4596 134.278 74.2432 133.997 73.9561 133.797C73.6735 133.596 73.318 133.496 72.8896 133.496C72.4658 133.496 72.1035 133.599 71.8027 133.804C71.502 134.009 71.2718 134.28 71.1123 134.617C70.9574 134.95 70.8799 135.314 70.8799 135.711V136.477C70.8799 137.001 70.9688 137.445 71.1465 137.81C71.3288 138.17 71.5817 138.443 71.9053 138.63C72.2288 138.812 72.6048 138.903 73.0332 138.903C73.3158 138.903 73.571 138.865 73.7988 138.787C74.0267 138.705 74.2227 138.584 74.3867 138.425C74.5553 138.261 74.6829 138.06 74.7695 137.823L76.1846 138.158C76.0615 138.55 75.8542 138.896 75.5625 139.197C75.2754 139.498 74.9154 139.733 74.4824 139.901C74.054 140.065 73.5664 140.147 73.0195 140.147ZM77.9551 142.848V132.348H79.418V133.592H79.541C79.6322 133.432 79.7575 133.248 79.917 133.038C80.0811 132.828 80.3066 132.646 80.5938 132.491C80.8854 132.332 81.2705 132.252 81.749 132.252C82.3597 132.252 82.9043 132.407 83.3828 132.717C83.8659 133.027 84.2464 133.476 84.5244 134.063C84.8024 134.651 84.9414 135.36 84.9414 136.189C84.9414 137.01 84.8047 137.716 84.5312 138.309C84.2578 138.896 83.8796 139.35 83.3965 139.669C82.918 139.983 82.3688 140.141 81.749 140.141C81.2887 140.141 80.9105 140.063 80.6143 139.908C80.3226 139.749 80.0924 139.564 79.9238 139.354C79.7598 139.145 79.6322 138.958 79.541 138.794H79.459V142.848H77.9551ZM81.4141 138.862C81.8516 138.862 82.2184 138.744 82.5146 138.507C82.8109 138.27 83.0319 137.949 83.1777 137.543C83.3281 137.137 83.4033 136.682 83.4033 136.176C83.4033 135.674 83.3281 135.226 83.1777 134.829C83.0319 134.428 82.8109 134.111 82.5146 133.879C82.223 133.646 81.8561 133.53 81.4141 133.53C80.9857 133.53 80.6234 133.642 80.3271 133.865C80.0309 134.084 79.8076 134.392 79.6572 134.788C79.5068 135.18 79.4316 135.643 79.4316 136.176C79.4316 136.704 79.5068 137.172 79.6572 137.577C79.8122 137.978 80.0378 138.293 80.334 138.521C80.6302 138.748 80.9902 138.862 81.4141 138.862ZM89.8223 140.147C89.1068 140.147 88.4801 139.983 87.9424 139.655C87.4092 139.327 86.9945 138.867 86.6982 138.274C86.402 137.682 86.2539 136.994 86.2539 136.21C86.2539 135.417 86.402 134.724 86.6982 134.132C86.9945 133.535 87.4092 133.072 87.9424 132.744C88.4801 132.416 89.1068 132.252 89.8223 132.252C90.5423 132.252 91.1689 132.416 91.7021 132.744C92.2399 133.072 92.6569 133.535 92.9531 134.132C93.2493 134.724 93.3975 135.417 93.3975 136.21C93.3975 136.994 93.2493 137.682 92.9531 138.274C92.6569 138.867 92.2399 139.327 91.7021 139.655C91.1689 139.983 90.5423 140.147 89.8223 140.147ZM89.8223 138.876C90.2871 138.876 90.6699 138.755 90.9707 138.514C91.276 138.268 91.5016 137.944 91.6475 137.543C91.7979 137.137 91.873 136.693 91.873 136.21C91.873 135.722 91.7979 135.276 91.6475 134.87C91.5016 134.46 91.276 134.134 90.9707 133.893C90.6699 133.646 90.2871 133.523 89.8223 133.523C89.362 133.523 88.9814 133.646 88.6807 133.893C88.3799 134.134 88.1543 134.458 88.0039 134.863C87.8581 135.269 87.7852 135.718 87.7852 136.21C87.7852 136.693 87.8581 137.137 88.0039 137.543C88.1543 137.944 88.3799 138.268 88.6807 138.514C88.9814 138.755 89.362 138.876 89.8223 138.876ZM98.2852 140.147C97.5697 140.147 96.943 139.983 96.4053 139.655C95.8721 139.327 95.4574 138.867 95.1611 138.274C94.8649 137.682 94.7168 136.994 94.7168 136.21C94.7168 135.417 94.8649 134.724 95.1611 134.132C95.4574 133.535 95.8721 133.072 96.4053 132.744C96.943 132.416 97.5697 132.252 98.2852 132.252C99.0052 132.252 99.6318 132.416 100.165 132.744C100.703 133.072 101.12 133.535 101.416 134.132C101.712 134.724 101.86 135.417 101.86 136.21C101.86 136.994 101.712 137.682 101.416 138.274C101.12 138.867 100.703 139.327 100.165 139.655C99.6318 139.983 99.0052 140.147 98.2852 140.147ZM98.2852 138.876C98.75 138.876 99.1328 138.755 99.4336 138.514C99.7389 138.268 99.9645 137.944 100.11 137.543C100.261 137.137 100.336 136.693 100.336 136.21C100.336 135.722 100.261 135.276 100.11 134.87C99.9645 134.46 99.7389 134.134 99.4336 133.893C99.1328 133.646 98.75 133.523 98.2852 133.523C97.8249 133.523 97.4443 133.646 97.1436 133.893C96.8428 134.134 96.6172 134.458 96.4668 134.863C96.321 135.269 96.248 135.718 96.248 136.21C96.248 136.693 96.321 137.137 96.4668 137.543C96.6172 137.944 96.8428 138.268 97.1436 138.514C97.4443 138.755 97.8249 138.876 98.2852 138.876ZM105.039 129.805V139.99H103.535V129.805H105.039ZM114.466 129.805V139.99H112.921V131.22H112.853L110.433 132.983V131.418L112.661 129.805H114.466Z" fill="#111827"/>
<g clip-path="url(#clip1_4665_104789)">
<rect x="41" y="150.99" width="178.638" height="36" rx="4" fill="white"/>
<path d="M50.2305 173.99V163.805H52.0762L54.585 170.23C54.6442 170.381 54.7103 170.57 54.7832 170.798C54.8607 171.021 54.9404 171.265 55.0225 171.529C55.109 171.794 55.1911 172.058 55.2686 172.322C55.346 172.582 55.4144 172.824 55.4736 173.047H55.1865C55.2503 172.837 55.321 172.605 55.3984 172.35C55.4759 172.09 55.5557 171.828 55.6377 171.563C55.7243 171.295 55.8063 171.044 55.8838 170.812C55.9613 170.579 56.0296 170.385 56.0889 170.23L58.5635 163.805H60.416V173.99H59.1377V168.173C59.1377 167.963 59.1377 167.724 59.1377 167.455C59.1423 167.186 59.1468 166.904 59.1514 166.607C59.1605 166.311 59.1673 166.01 59.1719 165.705C59.181 165.4 59.1878 165.104 59.1924 164.816H59.3018C59.2061 165.131 59.1035 165.452 58.9941 165.78C58.8893 166.104 58.7845 166.418 58.6797 166.724C58.5794 167.024 58.4837 167.3 58.3926 167.551C58.3014 167.801 58.224 168.009 58.1602 168.173L55.8838 173.99H54.7559L52.4453 168.173C52.3815 168.013 52.3063 167.813 52.2197 167.571C52.1331 167.325 52.0374 167.054 51.9326 166.758C51.8324 166.457 51.7275 166.143 51.6182 165.814C51.5088 165.482 51.3971 165.149 51.2832 164.816H51.4062C51.4154 165.072 51.4222 165.347 51.4268 165.644C51.4359 165.94 51.4427 166.241 51.4473 166.546C51.4518 166.847 51.4564 167.138 51.4609 167.421C51.4655 167.699 51.4678 167.95 51.4678 168.173V173.99H50.2305ZM62.7266 173.99V166.348H63.957V173.99H62.7266ZM63.3486 165.097C63.1162 165.097 62.9157 165.017 62.7471 164.857C62.5785 164.698 62.4941 164.507 62.4941 164.283C62.4941 164.055 62.5785 163.864 62.7471 163.709C62.9157 163.549 63.1162 163.47 63.3486 163.47C63.5856 163.47 63.7884 163.549 63.957 163.709C64.1257 163.864 64.21 164.055 64.21 164.283C64.21 164.507 64.1257 164.698 63.957 164.857C63.7884 165.017 63.5856 165.097 63.3486 165.097ZM67.3477 169.41V173.99H66.1172V166.348H67.2998L67.3066 168.2H67.1357C67.3682 167.494 67.6986 166.993 68.127 166.696C68.5599 166.4 69.0658 166.252 69.6445 166.252C70.1595 166.252 70.6107 166.359 70.998 166.573C71.3854 166.783 71.6862 167.102 71.9004 167.53C72.1191 167.954 72.2285 168.49 72.2285 169.137V173.99H70.998V169.239C70.998 168.651 70.8431 168.191 70.5332 167.858C70.2279 167.526 69.8086 167.359 69.2754 167.359C68.9108 167.359 68.5827 167.439 68.291 167.599C67.9993 167.758 67.7692 167.991 67.6006 168.296C67.432 168.601 67.3477 168.973 67.3477 169.41ZM78.2988 173.99V173.054L81.6826 169.383C82.0609 168.973 82.3753 168.613 82.626 168.303C82.8766 167.993 83.0658 167.699 83.1934 167.421C83.321 167.138 83.3848 166.84 83.3848 166.525C83.3848 166.17 83.3005 165.862 83.1318 165.603C82.9632 165.343 82.7354 165.145 82.4482 165.008C82.1611 164.867 81.8353 164.796 81.4707 164.796C81.0833 164.796 80.7461 164.876 80.459 165.035C80.1764 165.19 79.9577 165.411 79.8027 165.698C79.6478 165.981 79.5703 166.313 79.5703 166.696H78.3262C78.3262 166.095 78.4652 165.566 78.7432 165.11C79.0212 164.655 79.3994 164.301 79.8779 164.051C80.3564 163.796 80.8988 163.668 81.5049 163.668C82.111 163.668 82.6465 163.796 83.1113 164.051C83.5807 164.301 83.9476 164.641 84.2119 165.069C84.4808 165.498 84.6152 165.979 84.6152 166.512C84.6152 166.881 84.5492 167.241 84.417 167.592C84.2848 167.938 84.0524 168.332 83.7197 168.774C83.387 169.216 82.9199 169.757 82.3184 170.395L80.0898 172.767V172.849H84.7861V173.99H78.2988ZM92.0391 169.41V173.99H90.8086V166.348H91.9912L91.998 168.2H91.8271C92.0596 167.494 92.39 166.993 92.8184 166.696C93.2513 166.4 93.7572 166.252 94.3359 166.252C94.8509 166.252 95.3021 166.359 95.6895 166.573C96.0768 166.783 96.3776 167.102 96.5918 167.53C96.8105 167.954 96.9199 168.49 96.9199 169.137V173.99H95.6895V169.239C95.6895 168.651 95.5345 168.191 95.2246 167.858C94.9193 167.526 94.5 167.359 93.9668 167.359C93.6022 167.359 93.2741 167.439 92.9824 167.599C92.6908 167.758 92.4606 167.991 92.292 168.296C92.1234 168.601 92.0391 168.973 92.0391 169.41ZM102.19 174.154C101.498 174.154 100.889 173.99 100.365 173.662C99.8457 173.334 99.4401 172.874 99.1484 172.281C98.8568 171.689 98.7109 171.001 98.7109 170.217C98.7109 169.419 98.8568 168.724 99.1484 168.132C99.4401 167.535 99.8457 167.072 100.365 166.744C100.889 166.416 101.498 166.252 102.19 166.252C102.888 166.252 103.498 166.416 104.022 166.744C104.547 167.072 104.954 167.535 105.246 168.132C105.538 168.724 105.684 169.419 105.684 170.217C105.684 171.001 105.538 171.689 105.246 172.281C104.954 172.874 104.547 173.334 104.022 173.662C103.498 173.99 102.888 174.154 102.19 174.154ZM102.19 173.054C102.705 173.054 103.129 172.922 103.462 172.657C103.795 172.393 104.041 172.047 104.2 171.618C104.36 171.185 104.439 170.718 104.439 170.217C104.439 169.711 104.36 169.242 104.2 168.809C104.041 168.371 103.795 168.02 103.462 167.756C103.129 167.487 102.705 167.353 102.19 167.353C101.68 167.353 101.261 167.487 100.933 167.756C100.604 168.02 100.361 168.369 100.201 168.802C100.042 169.235 99.9619 169.706 99.9619 170.217C99.9619 170.718 100.042 171.185 100.201 171.618C100.361 172.047 100.604 172.393 100.933 172.657C101.261 172.922 101.68 173.054 102.19 173.054ZM110.339 174.154C109.705 174.154 109.145 173.993 108.657 173.669C108.17 173.345 107.789 172.887 107.516 172.295C107.242 171.702 107.105 171.001 107.105 170.189C107.105 169.383 107.242 168.686 107.516 168.098C107.794 167.505 108.176 167.049 108.664 166.73C109.152 166.411 109.712 166.252 110.346 166.252C110.842 166.252 111.237 166.334 111.528 166.498C111.82 166.662 112.043 166.849 112.198 167.059C112.358 167.264 112.479 167.435 112.561 167.571H112.656V163.805H113.887V173.99H112.697V172.808H112.561C112.479 172.949 112.355 173.127 112.191 173.341C112.032 173.55 111.804 173.74 111.508 173.908C111.216 174.072 110.826 174.154 110.339 174.154ZM110.523 173.054C110.988 173.054 111.38 172.933 111.699 172.691C112.018 172.445 112.26 172.106 112.424 171.673C112.588 171.24 112.67 170.741 112.67 170.176C112.67 169.611 112.588 169.118 112.424 168.699C112.264 168.275 112.025 167.945 111.706 167.708C111.387 167.471 110.993 167.353 110.523 167.353C110.04 167.353 109.637 167.478 109.313 167.729C108.994 167.979 108.755 168.319 108.596 168.747C108.436 169.171 108.356 169.647 108.356 170.176C108.356 170.709 108.436 171.194 108.596 171.632C108.76 172.065 109.004 172.411 109.327 172.671C109.651 172.926 110.049 173.054 110.523 173.054ZM119.26 174.154C118.521 174.154 117.883 173.99 117.346 173.662C116.812 173.334 116.4 172.876 116.108 172.288C115.821 171.7 115.678 171.014 115.678 170.23C115.678 169.447 115.819 168.756 116.102 168.159C116.384 167.562 116.783 167.095 117.298 166.758C117.817 166.421 118.424 166.252 119.116 166.252C119.522 166.252 119.921 166.32 120.312 166.457C120.709 166.589 121.067 166.806 121.386 167.106C121.709 167.403 121.967 167.795 122.158 168.282C122.35 168.77 122.445 169.367 122.445 170.073V170.586H116.512V169.547H121.782L121.208 169.93C121.208 169.428 121.128 168.984 120.969 168.597C120.814 168.205 120.581 167.899 120.271 167.681C119.962 167.457 119.576 167.346 119.116 167.346C118.656 167.346 118.262 167.46 117.934 167.688C117.605 167.911 117.355 168.205 117.182 168.569C117.008 168.929 116.922 169.317 116.922 169.731V170.422C116.922 170.987 117.02 171.468 117.216 171.864C117.412 172.256 117.685 172.555 118.036 172.76C118.392 172.96 118.802 173.061 119.267 173.061C119.567 173.061 119.841 173.017 120.087 172.931C120.333 172.844 120.545 172.714 120.723 172.541C120.9 172.363 121.037 172.145 121.133 171.885L122.322 172.213C122.204 172.596 122.003 172.933 121.721 173.225C121.438 173.516 121.087 173.744 120.668 173.908C120.253 174.072 119.784 174.154 119.26 174.154ZM126.807 174.154C126.283 174.154 125.815 174.079 125.405 173.929C125 173.774 124.665 173.546 124.4 173.245C124.136 172.944 123.958 172.575 123.867 172.138L125.036 171.857C125.146 172.277 125.351 172.584 125.651 172.78C125.957 172.976 126.337 173.074 126.793 173.074C127.326 173.074 127.75 172.96 128.064 172.732C128.383 172.505 128.543 172.233 128.543 171.919C128.543 171.655 128.45 171.436 128.263 171.263C128.08 171.085 127.8 170.953 127.422 170.866L126.15 170.565C125.458 170.401 124.943 170.148 124.605 169.807C124.268 169.46 124.1 169.018 124.1 168.48C124.1 168.043 124.223 167.658 124.469 167.325C124.715 166.988 125.05 166.726 125.474 166.539C125.902 166.348 126.387 166.252 126.93 166.252C127.454 166.252 127.898 166.332 128.263 166.491C128.632 166.646 128.93 166.863 129.158 167.141C129.391 167.414 129.564 167.731 129.678 168.091L128.563 168.378C128.459 168.104 128.283 167.856 128.037 167.633C127.796 167.41 127.429 167.298 126.937 167.298C126.481 167.298 126.1 167.403 125.795 167.612C125.494 167.822 125.344 168.086 125.344 168.405C125.344 168.688 125.446 168.916 125.651 169.089C125.856 169.257 126.182 169.394 126.629 169.499L127.784 169.772C128.477 169.937 128.99 170.192 129.322 170.538C129.655 170.88 129.821 171.313 129.821 171.837C129.821 172.284 129.694 172.682 129.438 173.033C129.188 173.38 128.835 173.653 128.379 173.854C127.928 174.054 127.404 174.154 126.807 174.154Z" fill="#9CA3AF"/>
</g>
<rect x="41" y="150.99" width="178.638" height="36" rx="4" stroke="#E4E4E7"/>
<g clip-path="url(#clip2_4665_104789)">
<rect x="41" y="206.99" width="178.638" height="36" rx="4" fill="white"/>
<path d="M50.2305 229.99V219.805H52.0762L54.585 226.23C54.6442 226.381 54.7103 226.57 54.7832 226.798C54.8607 227.021 54.9404 227.265 55.0225 227.529C55.109 227.794 55.1911 228.058 55.2686 228.322C55.346 228.582 55.4144 228.824 55.4736 229.047H55.1865C55.2503 228.837 55.321 228.605 55.3984 228.35C55.4759 228.09 55.5557 227.828 55.6377 227.563C55.7243 227.295 55.8063 227.044 55.8838 226.812C55.9613 226.579 56.0296 226.385 56.0889 226.23L58.5635 219.805H60.416V229.99H59.1377V224.173C59.1377 223.963 59.1377 223.724 59.1377 223.455C59.1423 223.186 59.1468 222.904 59.1514 222.607C59.1605 222.311 59.1673 222.01 59.1719 221.705C59.181 221.4 59.1878 221.104 59.1924 220.816H59.3018C59.2061 221.131 59.1035 221.452 58.9941 221.78C58.8893 222.104 58.7845 222.418 58.6797 222.724C58.5794 223.024 58.4837 223.3 58.3926 223.551C58.3014 223.801 58.224 224.009 58.1602 224.173L55.8838 229.99H54.7559L52.4453 224.173C52.3815 224.013 52.3063 223.813 52.2197 223.571C52.1331 223.325 52.0374 223.054 51.9326 222.758C51.8324 222.457 51.7275 222.143 51.6182 221.814C51.5088 221.482 51.3971 221.149 51.2832 220.816H51.4062C51.4154 221.072 51.4222 221.347 51.4268 221.644C51.4359 221.94 51.4427 222.241 51.4473 222.546C51.4518 222.847 51.4564 223.138 51.4609 223.421C51.4655 223.699 51.4678 223.95 51.4678 224.173V229.99H50.2305ZM65.584 230.154C64.9551 230.154 64.3968 229.993 63.9092 229.669C63.4261 229.345 63.0456 228.887 62.7676 228.295C62.4941 227.702 62.3574 227.001 62.3574 226.189C62.3574 225.383 62.4964 224.686 62.7744 224.098C63.0524 223.505 63.4352 223.049 63.9229 222.73C64.415 222.411 64.9779 222.252 65.6113 222.252C66.1035 222.252 66.4954 222.334 66.7871 222.498C67.0788 222.658 67.3021 222.842 67.457 223.052C67.612 223.261 67.7305 223.435 67.8125 223.571H67.915V222.348H69.1387V229.99H67.9219V228.808H67.8125C67.7305 228.949 67.6074 229.127 67.4434 229.341C67.2839 229.555 67.056 229.744 66.7598 229.908C66.4635 230.072 66.0716 230.154 65.584 230.154ZM65.7891 229.054C66.2539 229.054 66.6458 228.933 66.9648 228.691C67.2839 228.445 67.5254 228.106 67.6895 227.673C67.8535 227.24 67.9355 226.741 67.9355 226.176C67.9355 225.611 67.8535 225.118 67.6895 224.699C67.5299 224.275 67.2907 223.945 66.9717 223.708C66.6527 223.471 66.2585 223.353 65.7891 223.353C65.306 223.353 64.9027 223.478 64.5791 223.729C64.2555 223.975 64.0117 224.312 63.8477 224.74C63.6882 225.164 63.6084 225.643 63.6084 226.176C63.6084 226.709 63.6904 227.194 63.8545 227.632C64.0186 228.065 64.2624 228.411 64.5859 228.671C64.9095 228.926 65.3105 229.054 65.7891 229.054ZM70.6631 229.99L73.6777 225.595L73.6709 226.538L70.8203 222.348H72.2559L73.2061 223.831C73.4521 224.214 73.6641 224.572 73.8418 224.904C74.0241 225.237 74.2109 225.558 74.4023 225.868H73.7598C73.9557 225.558 74.1335 225.237 74.293 224.904C74.457 224.572 74.6644 224.214 74.915 223.831L75.8857 222.348H77.2939L74.4297 226.593V225.684L77.417 229.99H75.9883L74.8672 228.274C74.6257 227.901 74.416 227.554 74.2383 227.235C74.0651 226.912 73.8851 226.602 73.6982 226.306H74.3477C74.1608 226.602 73.9876 226.912 73.8281 227.235C73.6686 227.554 73.4658 227.901 73.2197 228.274L72.085 229.99H70.6631ZM86.0781 230.127C85.4811 230.127 84.9456 230.011 84.4717 229.778C83.9977 229.541 83.6195 229.22 83.3369 228.814C83.0544 228.404 82.9017 227.939 82.8789 227.42H84.1367C84.1641 227.721 84.2666 227.99 84.4443 228.227C84.6221 228.464 84.8522 228.65 85.1348 228.787C85.4219 228.919 85.7363 228.985 86.0781 228.985C86.4883 228.985 86.8529 228.89 87.1719 228.698C87.4954 228.507 87.7484 228.243 87.9307 227.905C88.113 227.568 88.2041 227.185 88.2041 226.757C88.2041 226.319 88.1084 225.927 87.917 225.581C87.7256 225.235 87.4635 224.964 87.1309 224.768C86.8027 224.567 86.4245 224.467 85.9961 224.467C85.6816 224.467 85.3626 224.517 85.0391 224.617C84.7155 224.717 84.4535 224.845 84.2529 225L83.0361 224.85L83.6377 219.805H88.9971V220.946H84.7314L84.3828 223.92H84.4375C84.6471 223.747 84.9115 223.605 85.2305 223.496C85.5495 223.382 85.8844 223.325 86.2354 223.325C86.7002 223.325 87.1286 223.41 87.5205 223.578C87.917 223.747 88.2611 223.986 88.5527 224.296C88.8444 224.601 89.07 224.961 89.2295 225.376C89.3936 225.791 89.4756 226.244 89.4756 226.736C89.4756 227.388 89.3275 227.969 89.0312 228.479C88.7396 228.99 88.3385 229.393 87.8281 229.689C87.3177 229.981 86.7344 230.127 86.0781 230.127ZM96.5645 225.41V229.99H95.334V222.348H96.5166L96.5234 224.2H96.3525C96.585 223.494 96.9154 222.993 97.3438 222.696C97.7767 222.4 98.2826 222.252 98.8613 222.252C99.3763 222.252 99.8275 222.359 100.215 222.573C100.602 222.783 100.903 223.102 101.117 223.53C101.336 223.954 101.445 224.49 101.445 225.137V229.99H100.215V225.239C100.215 224.651 100.06 224.191 99.75 223.858C99.4447 223.526 99.0254 223.359 98.4922 223.359C98.1276 223.359 97.7995 223.439 97.5078 223.599C97.2161 223.758 96.986 223.991 96.8174 224.296C96.6488 224.601 96.5645 224.973 96.5645 225.41ZM106.716 230.154C106.023 230.154 105.415 229.99 104.891 229.662C104.371 229.334 103.965 228.874 103.674 228.281C103.382 227.689 103.236 227.001 103.236 226.217C103.236 225.419 103.382 224.724 103.674 224.132C103.965 223.535 104.371 223.072 104.891 222.744C105.415 222.416 106.023 222.252 106.716 222.252C107.413 222.252 108.024 222.416 108.548 222.744C109.072 223.072 109.48 223.535 109.771 224.132C110.063 224.724 110.209 225.419 110.209 226.217C110.209 227.001 110.063 227.689 109.771 228.281C109.48 228.874 109.072 229.334 108.548 229.662C108.024 229.99 107.413 230.154 106.716 230.154ZM106.716 229.054C107.231 229.054 107.655 228.922 107.987 228.657C108.32 228.393 108.566 228.047 108.726 227.618C108.885 227.185 108.965 226.718 108.965 226.217C108.965 225.711 108.885 225.242 108.726 224.809C108.566 224.371 108.32 224.02 107.987 223.756C107.655 223.487 107.231 223.353 106.716 223.353C106.205 223.353 105.786 223.487 105.458 223.756C105.13 224.02 104.886 224.369 104.727 224.802C104.567 225.235 104.487 225.706 104.487 226.217C104.487 226.718 104.567 227.185 104.727 227.618C104.886 228.047 105.13 228.393 105.458 228.657C105.786 228.922 106.205 229.054 106.716 229.054ZM114.864 230.154C114.231 230.154 113.67 229.993 113.183 229.669C112.695 229.345 112.314 228.887 112.041 228.295C111.768 227.702 111.631 227.001 111.631 226.189C111.631 225.383 111.768 224.686 112.041 224.098C112.319 223.505 112.702 223.049 113.189 222.73C113.677 222.411 114.238 222.252 114.871 222.252C115.368 222.252 115.762 222.334 116.054 222.498C116.345 222.662 116.569 222.849 116.724 223.059C116.883 223.264 117.004 223.435 117.086 223.571H117.182V219.805H118.412V229.99H117.223V228.808H117.086C117.004 228.949 116.881 229.127 116.717 229.341C116.557 229.55 116.329 229.74 116.033 229.908C115.742 230.072 115.352 230.154 114.864 230.154ZM115.049 229.054C115.514 229.054 115.906 228.933 116.225 228.691C116.544 228.445 116.785 228.106 116.949 227.673C117.113 227.24 117.195 226.741 117.195 226.176C117.195 225.611 117.113 225.118 116.949 224.699C116.79 224.275 116.55 223.945 116.231 223.708C115.912 223.471 115.518 223.353 115.049 223.353C114.566 223.353 114.162 223.478 113.839 223.729C113.52 223.979 113.281 224.319 113.121 224.747C112.962 225.171 112.882 225.647 112.882 226.176C112.882 226.709 112.962 227.194 113.121 227.632C113.285 228.065 113.529 228.411 113.853 228.671C114.176 228.926 114.575 229.054 115.049 229.054ZM123.785 230.154C123.047 230.154 122.409 229.99 121.871 229.662C121.338 229.334 120.925 228.876 120.634 228.288C120.347 227.7 120.203 227.014 120.203 226.23C120.203 225.447 120.344 224.756 120.627 224.159C120.91 223.562 121.308 223.095 121.823 222.758C122.343 222.421 122.949 222.252 123.642 222.252C124.047 222.252 124.446 222.32 124.838 222.457C125.234 222.589 125.592 222.806 125.911 223.106C126.235 223.403 126.492 223.795 126.684 224.282C126.875 224.77 126.971 225.367 126.971 226.073V226.586H121.037V225.547H126.308L125.733 225.93C125.733 225.428 125.654 224.984 125.494 224.597C125.339 224.205 125.107 223.899 124.797 223.681C124.487 223.457 124.102 223.346 123.642 223.346C123.181 223.346 122.787 223.46 122.459 223.688C122.131 223.911 121.88 224.205 121.707 224.569C121.534 224.929 121.447 225.317 121.447 225.731V226.422C121.447 226.987 121.545 227.468 121.741 227.864C121.937 228.256 122.211 228.555 122.562 228.76C122.917 228.96 123.327 229.061 123.792 229.061C124.093 229.061 124.366 229.017 124.612 228.931C124.858 228.844 125.07 228.714 125.248 228.541C125.426 228.363 125.562 228.145 125.658 227.885L126.848 228.213C126.729 228.596 126.529 228.933 126.246 229.225C125.964 229.516 125.613 229.744 125.193 229.908C124.779 230.072 124.309 230.154 123.785 230.154ZM131.332 230.154C130.808 230.154 130.341 230.079 129.931 229.929C129.525 229.774 129.19 229.546 128.926 229.245C128.661 228.944 128.484 228.575 128.393 228.138L129.562 227.857C129.671 228.277 129.876 228.584 130.177 228.78C130.482 228.976 130.863 229.074 131.318 229.074C131.852 229.074 132.275 228.96 132.59 228.732C132.909 228.505 133.068 228.233 133.068 227.919C133.068 227.655 132.975 227.436 132.788 227.263C132.606 227.085 132.326 226.953 131.947 226.866L130.676 226.565C129.983 226.401 129.468 226.148 129.131 225.807C128.794 225.46 128.625 225.018 128.625 224.48C128.625 224.043 128.748 223.658 128.994 223.325C129.24 222.988 129.575 222.726 129.999 222.539C130.427 222.348 130.913 222.252 131.455 222.252C131.979 222.252 132.424 222.332 132.788 222.491C133.157 222.646 133.456 222.863 133.684 223.141C133.916 223.414 134.089 223.731 134.203 224.091L133.089 224.378C132.984 224.104 132.809 223.856 132.562 223.633C132.321 223.41 131.954 223.298 131.462 223.298C131.006 223.298 130.626 223.403 130.32 223.612C130.02 223.822 129.869 224.086 129.869 224.405C129.869 224.688 129.972 224.916 130.177 225.089C130.382 225.257 130.708 225.394 131.154 225.499L132.31 225.772C133.002 225.937 133.515 226.192 133.848 226.538C134.18 226.88 134.347 227.313 134.347 227.837C134.347 228.284 134.219 228.682 133.964 229.033C133.713 229.38 133.36 229.653 132.904 229.854C132.453 230.054 131.929 230.154 131.332 230.154Z" fill="#9CA3AF"/>
</g>
<rect x="41" y="206.99" width="178.638" height="36" rx="4" stroke="#E4E4E7"/>
<rect x="41" y="262.99" width="178.638" height="40" rx="4" fill="#3B82F6"/>
<rect x="41" y="262.99" width="178.638" height="40" rx="4" stroke="#2563EB"/>
<path d="M110.437 289.146C109.421 289.146 108.517 288.907 107.726 288.428C106.934 287.949 106.309 287.264 105.851 286.373C105.397 285.477 105.171 284.412 105.171 283.178C105.171 281.938 105.397 280.873 105.851 279.982C106.309 279.087 106.934 278.399 107.726 277.92C108.522 277.436 109.426 277.193 110.437 277.193C111.051 277.193 111.629 277.282 112.171 277.459C112.713 277.636 113.194 277.896 113.616 278.24C114.043 278.579 114.397 278.99 114.679 279.475C114.96 279.959 115.15 280.511 115.249 281.131H113.46C113.382 280.756 113.252 280.425 113.069 280.139C112.887 279.852 112.66 279.61 112.39 279.412C112.124 279.209 111.827 279.058 111.499 278.959C111.171 278.86 110.822 278.811 110.452 278.811C109.775 278.811 109.171 278.98 108.64 279.318C108.108 279.657 107.692 280.152 107.39 280.803C107.088 281.454 106.937 282.245 106.937 283.178C106.937 284.11 107.088 284.902 107.39 285.553C107.697 286.199 108.116 286.691 108.647 287.029C109.179 287.363 109.78 287.529 110.452 287.529C110.817 287.529 111.163 287.48 111.491 287.381C111.825 287.277 112.124 287.126 112.39 286.928C112.66 286.73 112.887 286.488 113.069 286.201C113.257 285.915 113.387 285.584 113.46 285.209H115.249C115.16 285.792 114.981 286.324 114.71 286.803C114.439 287.282 114.09 287.699 113.663 288.053C113.241 288.402 112.757 288.673 112.21 288.865C111.668 289.053 111.077 289.146 110.437 289.146ZM117.171 288.99V280.311H118.819V281.701H118.905C119.067 281.232 119.343 280.865 119.733 280.6C120.129 280.329 120.585 280.193 121.101 280.193C121.21 280.193 121.332 280.199 121.468 280.209C121.608 280.214 121.723 280.222 121.812 280.232V281.857C121.749 281.842 121.629 281.824 121.452 281.803C121.275 281.782 121.095 281.771 120.913 281.771C120.528 281.771 120.179 281.855 119.866 282.021C119.559 282.183 119.317 282.412 119.14 282.709C118.968 283.001 118.882 283.342 118.882 283.732V288.99H117.171ZM126.733 289.17C125.879 289.17 125.142 288.985 124.522 288.615C123.903 288.245 123.426 287.727 123.093 287.061C122.759 286.389 122.593 285.605 122.593 284.709C122.593 283.818 122.757 283.035 123.085 282.357C123.418 281.68 123.884 281.152 124.483 280.771C125.088 280.386 125.791 280.193 126.593 280.193C127.103 280.193 127.59 280.277 128.054 280.443C128.522 280.61 128.939 280.87 129.304 281.225C129.668 281.579 129.957 282.032 130.171 282.584C130.384 283.136 130.491 283.798 130.491 284.568V285.162H123.53V283.881H129.608L128.812 284.303C128.812 283.771 128.726 283.303 128.554 282.896C128.387 282.49 128.14 282.175 127.812 281.951C127.489 281.722 127.085 281.607 126.601 281.607C126.116 281.607 125.702 281.725 125.358 281.959C125.02 282.188 124.759 282.495 124.577 282.881C124.395 283.261 124.304 283.68 124.304 284.139V284.99C124.304 285.579 124.405 286.081 124.608 286.498C124.812 286.91 125.095 287.222 125.46 287.436C125.83 287.649 126.259 287.756 126.749 287.756C127.077 287.756 127.371 287.709 127.632 287.615C127.897 287.521 128.124 287.381 128.312 287.193C128.499 287.006 128.642 286.777 128.741 286.506L130.351 286.85C130.22 287.308 129.989 287.712 129.655 288.061C129.322 288.41 128.908 288.683 128.413 288.881C127.918 289.074 127.358 289.17 126.733 289.17ZM135.554 289.162C134.856 289.162 134.231 288.982 133.679 288.623C133.132 288.258 132.702 287.74 132.39 287.068C132.077 286.396 131.921 285.597 131.921 284.67C131.921 283.732 132.08 282.93 132.397 282.264C132.715 281.592 133.15 281.079 133.702 280.725C134.254 280.37 134.879 280.193 135.577 280.193C136.098 280.193 136.522 280.279 136.851 280.451C137.184 280.618 137.447 280.821 137.64 281.061C137.832 281.295 137.981 281.511 138.085 281.709H138.179V280.311H139.882V288.99H138.194V287.639H138.085C137.981 287.837 137.827 288.055 137.624 288.295C137.426 288.535 137.16 288.74 136.827 288.912C136.494 289.079 136.069 289.162 135.554 289.162ZM135.952 287.701C136.437 287.701 136.848 287.574 137.187 287.318C137.525 287.063 137.78 286.706 137.952 286.248C138.129 285.79 138.218 285.258 138.218 284.654C138.218 284.05 138.129 283.524 137.952 283.076C137.78 282.628 137.525 282.279 137.187 282.029C136.853 281.779 136.442 281.654 135.952 281.654C135.452 281.654 135.033 281.785 134.694 282.045C134.356 282.3 134.101 282.654 133.929 283.107C133.757 283.555 133.671 284.071 133.671 284.654C133.671 285.238 133.757 285.758 133.929 286.217C134.106 286.675 134.364 287.037 134.702 287.303C135.041 287.568 135.457 287.701 135.952 287.701ZM145.921 280.311V281.701H141.179V280.311H145.921ZM142.468 278.209H144.179V286.646C144.179 286.995 144.252 287.251 144.397 287.412C144.543 287.568 144.785 287.646 145.124 287.646C145.218 287.646 145.338 287.639 145.483 287.623C145.629 287.602 145.754 287.581 145.858 287.561L146.132 288.936C145.955 288.993 145.762 289.032 145.554 289.053C145.345 289.079 145.142 289.092 144.944 289.092C144.153 289.092 143.541 288.894 143.108 288.498C142.681 288.097 142.468 287.529 142.468 286.795V278.209ZM151.155 289.17C150.301 289.17 149.564 288.985 148.944 288.615C148.325 288.245 147.848 287.727 147.515 287.061C147.181 286.389 147.015 285.605 147.015 284.709C147.015 283.818 147.179 283.035 147.507 282.357C147.84 281.68 148.306 281.152 148.905 280.771C149.509 280.386 150.213 280.193 151.015 280.193C151.525 280.193 152.012 280.277 152.476 280.443C152.944 280.61 153.361 280.87 153.726 281.225C154.09 281.579 154.379 282.032 154.593 282.584C154.806 283.136 154.913 283.798 154.913 284.568V285.162H147.952V283.881H154.03L153.233 284.303C153.233 283.771 153.147 283.303 152.976 282.896C152.809 282.49 152.562 282.175 152.233 281.951C151.91 281.722 151.507 281.607 151.022 281.607C150.538 281.607 150.124 281.725 149.78 281.959C149.442 282.188 149.181 282.495 148.999 282.881C148.817 283.261 148.726 283.68 148.726 284.139V284.99C148.726 285.579 148.827 286.081 149.03 286.498C149.233 286.91 149.517 287.222 149.882 287.436C150.252 287.649 150.681 287.756 151.171 287.756C151.499 287.756 151.793 287.709 152.054 287.615C152.319 287.521 152.546 287.381 152.733 287.193C152.921 287.006 153.064 286.777 153.163 286.506L154.772 286.85C154.642 287.308 154.41 287.712 154.077 288.061C153.744 288.41 153.33 288.683 152.835 288.881C152.34 289.074 151.78 289.17 151.155 289.17Z" fill="white"/>
<rect x="301.48" y="125.98" width="90.0194" height="90.0194" rx="3.5" fill="white"/>
<rect x="301.48" y="125.98" width="90.0194" height="90.0194" rx="3.5" stroke="#E4E4E7"/>
<g clip-path="url(#clip3_4665_104789)">
<path fill-rule="evenodd" clip-rule="evenodd" d="M346.925 141.698C346.65 141.566 346.331 141.566 346.057 141.698L322.743 152.926C322.469 153.058 322.27 153.307 322.202 153.604L316.444 178.832C316.376 179.128 316.447 179.44 316.637 179.678L332.771 199.909C332.96 200.147 333.248 200.285 333.553 200.285H359.429C359.733 200.285 360.021 200.147 360.211 199.909L376.344 179.678C376.534 179.44 376.605 179.128 376.537 178.832L370.779 153.604C370.712 153.307 370.513 153.058 370.238 152.926L346.925 141.698ZM345.597 151.733C345.827 151.478 346.148 151.324 346.491 151.305L346.493 151.297C346.836 151.316 347.157 151.47 347.387 151.725C347.617 151.98 347.736 152.316 347.719 152.659V153.007C347.685 153.399 347.629 153.788 347.55 154.173C347.432 154.908 347.385 155.653 347.411 156.398C347.459 156.647 347.603 156.866 347.811 157.011C347.812 157.029 347.815 157.057 347.817 157.091C347.826 157.217 347.841 157.427 347.841 157.555C351.718 157.907 355.336 159.655 358.021 162.473L358.487 162.141C358.737 162.184 358.995 162.156 359.23 162.06C359.828 161.616 360.382 161.115 360.883 160.564C361.139 160.263 361.412 159.977 361.7 159.707C361.776 159.641 361.888 159.554 361.972 159.489C362.093 159.36 362.241 159.259 362.404 159.192C362.568 159.125 362.743 159.094 362.92 159.101C363.096 159.108 363.269 159.153 363.427 159.232C363.585 159.312 363.723 159.424 363.834 159.562C363.944 159.7 364.024 159.86 364.067 160.031C364.111 160.202 364.117 160.381 364.085 160.555C364.053 160.729 363.985 160.893 363.884 161.038C363.783 161.183 363.652 161.305 363.5 161.395C363.476 161.415 363.449 161.436 363.422 161.459C363.355 161.514 363.284 161.572 363.228 161.613C362.9 161.83 362.56 162.028 362.209 162.207C361.561 162.574 360.95 163.003 360.385 163.489C360.22 163.682 360.137 163.931 360.153 164.184L359.718 164.573C361.893 167.815 362.802 171.743 362.272 175.611L362.768 175.755C362.889 175.983 363.072 176.171 363.296 176.3C364.015 176.492 364.751 176.613 365.494 176.662C365.887 176.671 366.28 176.703 366.67 176.757C366.736 176.769 366.821 176.791 366.901 176.811C366.945 176.822 366.989 176.833 367.027 176.842C367.196 176.865 367.359 176.923 367.504 177.012C367.65 177.102 367.775 177.22 367.872 177.361C367.97 177.501 368.036 177.66 368.069 177.828C368.101 177.995 368.098 178.168 368.06 178.335C368.023 178.501 367.95 178.658 367.849 178.795C367.747 178.932 367.617 179.047 367.469 179.131C367.321 179.215 367.156 179.268 366.986 179.286C366.816 179.303 366.645 179.285 366.482 179.233H366.439C366.405 179.225 366.369 179.218 366.332 179.211C366.258 179.196 366.183 179.181 366.123 179.165C365.752 179.044 365.388 178.902 365.033 178.74C364.343 178.461 363.627 178.25 362.896 178.111C362.643 178.102 362.396 178.193 362.209 178.364C362.122 178.345 361.844 178.296 361.687 178.271C360.498 182.005 357.978 185.17 354.606 187.166C354.663 187.335 354.732 187.501 354.81 187.661C354.684 187.881 354.65 188.141 354.715 188.386C355.014 189.069 355.379 189.721 355.804 190.333C356.043 190.646 356.263 190.972 356.463 191.31C356.505 191.387 356.558 191.5 356.602 191.593C356.61 191.609 356.617 191.625 356.624 191.64C356.71 191.787 356.765 191.951 356.785 192.121C356.805 192.29 356.789 192.462 356.738 192.626C356.688 192.789 356.604 192.94 356.492 193.069C356.38 193.198 356.243 193.302 356.088 193.375C355.934 193.448 355.766 193.489 355.595 193.493C355.425 193.498 355.255 193.467 355.097 193.402C354.938 193.338 354.795 193.241 354.677 193.118C354.558 192.995 354.466 192.849 354.407 192.688C354.392 192.656 354.374 192.62 354.355 192.583C354.319 192.511 354.282 192.435 354.255 192.375C354.114 192.008 353.995 191.632 353.898 191.251C353.685 190.538 353.403 189.847 353.056 189.189C352.906 188.985 352.681 188.848 352.43 188.808C352.394 188.759 352.305 188.601 352.23 188.465C352.203 188.418 352.178 188.373 352.158 188.337C348.51 189.718 344.481 189.707 340.84 188.307L340.567 188.811C340.368 188.847 340.185 188.944 340.042 189.088C339.623 189.775 339.303 190.516 339.091 191.291C338.995 191.673 338.877 192.048 338.737 192.416C338.71 192.478 338.672 192.554 338.636 192.626C338.618 192.662 338.6 192.698 338.585 192.729C338.526 192.89 338.435 193.038 338.316 193.161C338.197 193.285 338.054 193.382 337.895 193.447C337.737 193.512 337.566 193.544 337.395 193.539C337.223 193.534 337.055 193.494 336.9 193.42C336.745 193.347 336.607 193.242 336.496 193.112C336.384 192.982 336.3 192.83 336.25 192.666C336.2 192.502 336.185 192.33 336.206 192.16C336.227 191.989 336.283 191.825 336.371 191.678C336.388 191.644 336.406 191.603 336.426 191.561C336.461 191.487 336.497 191.408 336.529 191.349C336.729 191.009 336.949 190.682 337.188 190.368C337.621 189.74 337.993 189.071 338.299 188.372C338.332 188.135 338.294 187.893 338.19 187.678L338.413 187.133C335.053 185.153 332.535 182.011 331.333 178.301L330.788 178.394C330.581 178.247 330.336 178.161 330.083 178.146C329.351 178.286 328.635 178.497 327.945 178.775C327.59 178.936 327.226 179.077 326.856 179.197C326.791 179.215 326.704 179.234 326.622 179.251C326.593 179.257 326.566 179.262 326.54 179.268H326.496C326.334 179.321 326.162 179.339 325.992 179.321C325.822 179.304 325.658 179.251 325.509 179.166C325.361 179.082 325.232 178.968 325.13 178.83C325.028 178.693 324.956 178.537 324.918 178.37C324.88 178.203 324.877 178.031 324.909 177.863C324.942 177.696 325.009 177.536 325.106 177.396C325.203 177.256 325.329 177.137 325.474 177.048C325.62 176.958 325.782 176.9 325.951 176.877H325.97L325.988 176.873C326.086 176.849 326.21 176.819 326.297 176.801C326.687 176.746 327.08 176.715 327.474 176.705C328.216 176.656 328.952 176.535 329.671 176.343C329.885 176.204 330.065 176.017 330.197 175.799L330.712 175.649C330.154 171.778 331.046 167.838 333.214 164.584L332.822 164.233C332.808 163.978 332.724 163.733 332.577 163.525C332.012 163.039 331.401 162.609 330.753 162.242C330.403 162.064 330.064 161.866 329.737 161.648C329.69 161.614 329.633 161.567 329.577 161.521C329.545 161.494 329.513 161.468 329.484 161.444H329.464C329.185 161.244 328.997 160.941 328.94 160.602C328.883 160.263 328.963 159.916 329.162 159.636C329.28 159.492 329.429 159.378 329.599 159.302C329.769 159.227 329.954 159.193 330.14 159.203C330.452 159.216 330.752 159.328 330.995 159.524C331.005 159.532 331.016 159.54 331.027 159.549C331.107 159.61 331.203 159.685 331.267 159.742C331.556 160.012 331.829 160.298 332.084 160.6C332.585 161.151 333.139 161.651 333.737 162.095C333.962 162.213 334.224 162.239 334.467 162.166C334.507 162.189 334.601 162.257 334.699 162.328C334.774 162.382 334.852 162.439 334.911 162.479C337.067 160.188 339.858 158.594 342.926 157.901C343.656 157.736 344.397 157.622 345.143 157.561L345.172 157.04C345.363 156.871 345.501 156.651 345.57 156.406C345.597 155.662 345.551 154.916 345.434 154.181C345.355 153.796 345.299 153.407 345.265 153.015V152.702V152.667C345.248 152.324 345.367 151.988 345.597 151.733ZM344.59 167.25L344.955 160.818C344.518 160.871 344.084 160.946 343.656 161.044C341.358 161.56 339.251 162.708 337.572 164.358L342.847 168.067C343.005 168.179 343.19 168.246 343.383 168.263C343.575 168.279 343.769 168.244 343.944 168.161C344.119 168.078 344.268 167.95 344.377 167.79C344.485 167.629 344.55 167.443 344.562 167.25H344.59ZM355.382 164.358C353.386 162.404 350.802 161.16 348.029 160.818L348.402 167.258C348.415 167.452 348.479 167.639 348.588 167.799C348.697 167.96 348.846 168.088 349.022 168.171C349.197 168.255 349.391 168.29 349.584 168.273C349.777 168.256 349.963 168.188 350.121 168.075H350.14L355.382 164.358ZM340.467 171.068L335.649 166.76V166.763C334.184 169.155 333.558 171.967 333.868 174.756L340.042 172.975V172.953C340.229 172.899 340.397 172.796 340.531 172.654C340.664 172.513 340.758 172.339 340.801 172.149C340.844 171.96 340.836 171.762 340.777 171.577C340.719 171.391 340.611 171.225 340.467 171.095V171.068ZM359.143 174.731C359.411 171.944 358.763 169.145 357.297 166.76L357.305 166.784L352.514 171.071C352.37 171.201 352.262 171.367 352.204 171.552C352.145 171.738 352.137 171.935 352.18 172.125C352.223 172.314 352.317 172.489 352.45 172.63C352.584 172.771 352.753 172.874 352.939 172.928V172.955L359.143 174.731ZM347.476 171.39H345.502L344.271 172.92L344.712 174.826L346.488 175.681L348.261 174.829L348.702 172.923L347.476 171.39ZM352.076 176.656C351.994 176.641 351.911 176.634 351.828 176.637V176.656C351.654 176.667 351.486 176.719 351.336 176.808C351.187 176.897 351.061 177.02 350.969 177.168C350.877 177.316 350.821 177.483 350.807 177.657C350.793 177.83 350.821 178.005 350.889 178.165L353.367 184.156C355.729 182.644 357.522 180.389 358.462 177.746L352.076 176.656ZM341.605 176.803C341.451 176.717 341.278 176.669 341.101 176.665L341.093 176.651C341.022 176.65 340.951 176.657 340.881 176.67L334.549 177.746C335.5 180.375 337.292 182.617 339.647 184.124L342.098 178.195L342.079 178.171C342.146 178.007 342.173 177.83 342.157 177.654C342.141 177.478 342.082 177.309 341.986 177.16C341.89 177.012 341.759 176.89 341.605 176.803ZM347.026 179.407C346.851 179.306 346.651 179.256 346.45 179.263V179.274C346.26 179.281 346.076 179.337 345.915 179.438C345.754 179.538 345.622 179.678 345.532 179.845L342.419 185.474C344.648 186.233 347.044 186.357 349.339 185.831C349.76 185.736 350.177 185.62 350.586 185.483L347.465 179.832H347.441C347.345 179.654 347.201 179.507 347.026 179.407Z" fill="#111827"/>
</g>
<path d="M278.804 165.198L284.596 170.991L278.804 176.783" stroke="#9CA3AF" stroke-width="2" stroke-linecap="round" stroke-linejoin="round"/>
<path d="M284.597 170.991H262.752" stroke="#9CA3AF" stroke-width="2" stroke-linecap="round" stroke-linejoin="round"/>
</g>
<defs>
<filter id="filter0_dd_4665_104789" x="0" y="-0.00976562" width="408" height="346" filterUnits="userSpaceOnUse" color-interpolation-filters="sRGB">
<feFlood flood-opacity="0" result="BackgroundImageFix"/>
<feColorMatrix in="SourceAlpha" type="matrix" values="0 0 0 0 0 0 0 0 0 0 0 0 0 0 0 0 0 0 127 0" result="hardAlpha"/>
<feOffset dy="2"/>
<feGaussianBlur stdDeviation="8"/>
<feColorMatrix type="matrix" values="0 0 0 0 0.129412 0 0 0 0 0.168627 0 0 0 0 0.211765 0 0 0 0.08 0"/>
<feBlend mode="normal" in2="BackgroundImageFix" result="effect1_dropShadow_4665_104789"/>
<feColorMatrix in="SourceAlpha" type="matrix" values="0 0 0 0 0 0 0 0 0 0 0 0 0 0 0 0 0 0 127 0" result="hardAlpha"/>
<feMorphology radius="1" operator="dilate" in="SourceAlpha" result="effect2_dropShadow_4665_104789"/>
<feOffset/>
<feColorMatrix type="matrix" values="0 0 0 0 0.0235294 0 0 0 0 0.172549 0 0 0 0 0.321569 0 0 0 0.1 0"/>
<feBlend mode="normal" in2="effect1_dropShadow_4665_104789" result="effect2_dropShadow_4665_104789"/>
<feBlend mode="normal" in="SourceGraphic" in2="effect2_dropShadow_4665_104789" result="shape"/>
</filter>
<clipPath id="clip0_4665_104789">
<rect x="41" y="66.9902" width="178.638" height="36" rx="4" fill="white"/>
</clipPath>
<clipPath id="clip1_4665_104789">
<rect x="41" y="150.99" width="178.638" height="36" rx="4" fill="white"/>
</clipPath>
<clipPath id="clip2_4665_104789">
<rect x="41" y="206.99" width="178.638" height="36" rx="4" fill="white"/>
</clipPath>
<clipPath id="clip3_4665_104789">
<rect width="60" height="60" fill="white" transform="translate(316.49 140.99)"/>
</clipPath>
</defs>
</svg>
