<svg width="513" height="322" viewBox="0 0 513 322" fill="none" xmlns="http://www.w3.org/2000/svg">
<g filter="url(#filter0_dd_4665_101828)">
<rect x="16.5" y="15.1465" width="276.294" height="313" rx="8.5" fill="#F4F4F5"/>
<rect x="16.5" y="15.1465" width="276.294" height="313" rx="8.5" stroke="#D4D4D8"/>
<path d="M42.1279 56.6465V46.4609H43.9258L47.7607 52.5244C47.8883 52.7249 48.0319 52.9642 48.1914 53.2422C48.3509 53.5202 48.5195 53.8346 48.6973 54.1855C48.875 54.5319 49.0505 54.9102 49.2236 55.3203H49.0322C48.9912 54.9329 48.9593 54.5501 48.9365 54.1719C48.9183 53.7891 48.9046 53.4313 48.8955 53.0986C48.8864 52.766 48.8818 52.4857 48.8818 52.2578V46.4609H50.4609V56.6465H48.6562L45.2178 51.2256C45.0355 50.9294 44.8555 50.6309 44.6777 50.3301C44.5046 50.0293 44.3109 49.6829 44.0967 49.291C43.887 48.8945 43.6296 48.4137 43.3242 47.8486H43.5703C43.5931 48.3499 43.6159 48.8193 43.6387 49.2568C43.6615 49.6898 43.6774 50.0749 43.6865 50.4121C43.7002 50.7448 43.707 51.0114 43.707 51.2119V56.6465H42.1279ZM55.4443 56.7969C54.8291 56.7969 54.2799 56.6396 53.7969 56.3252C53.3184 56.0062 52.9401 55.5527 52.6621 54.9648C52.3887 54.3724 52.252 53.666 52.252 52.8457C52.252 52.0163 52.391 51.3076 52.6689 50.7197C52.9515 50.1318 53.3343 49.6829 53.8174 49.373C54.305 49.0632 54.8542 48.9082 55.4648 48.9082C55.9342 48.9082 56.3125 48.9857 56.5996 49.1406C56.8913 49.2956 57.1169 49.4801 57.2764 49.6943C57.4404 49.904 57.5658 50.0885 57.6523 50.248H57.748V49.0039H59.2383V56.6465H57.7549V55.4502H57.6523C57.5658 55.6143 57.4382 55.8034 57.2695 56.0176C57.1009 56.2272 56.8708 56.4095 56.5791 56.5645C56.2874 56.7194 55.9092 56.7969 55.4443 56.7969ZM55.793 55.5186C56.2214 55.5186 56.5814 55.4046 56.873 55.1768C57.1693 54.9489 57.3926 54.6344 57.543 54.2334C57.6934 53.8278 57.7686 53.3607 57.7686 52.832C57.7686 52.2988 57.6934 51.8363 57.543 51.4443C57.3926 51.0479 57.1693 50.7402 56.873 50.5215C56.5814 50.2982 56.2214 50.1865 55.793 50.1865C55.3509 50.1865 54.9818 50.3027 54.6855 50.5352C54.3893 50.763 54.166 51.0775 54.0156 51.4785C53.8652 51.875 53.79 52.3262 53.79 52.832C53.79 53.3379 53.8652 53.7936 54.0156 54.1992C54.166 54.6048 54.3893 54.9261 54.6855 55.1631C54.9863 55.4001 55.3555 55.5186 55.793 55.5186ZM61.2617 56.6465V49.0039H62.6904L62.7314 50.7744H62.6152C62.7246 50.3415 62.8932 49.986 63.1211 49.708C63.349 49.43 63.6156 49.2227 63.9209 49.0859C64.2262 48.9447 64.5452 48.874 64.8779 48.874C65.4339 48.874 65.8828 49.0472 66.2246 49.3936C66.5664 49.7354 66.7965 50.2139 66.915 50.8291H66.7236C66.8239 50.4098 66.9971 50.0544 67.2432 49.7627C67.4893 49.471 67.7855 49.25 68.1318 49.0996C68.4827 48.9492 68.8564 48.874 69.2529 48.874C69.7041 48.874 70.112 48.972 70.4766 49.168C70.8457 49.3639 71.1374 49.6556 71.3516 50.043C71.5658 50.4303 71.6729 50.9134 71.6729 51.4922V56.6465H70.1621V51.6426C70.1621 51.1322 70.0208 50.763 69.7383 50.5352C69.4557 50.3073 69.1208 50.1934 68.7334 50.1934C68.4189 50.1934 68.1478 50.2594 67.9199 50.3916C67.6921 50.5238 67.5166 50.7083 67.3936 50.9453C67.2705 51.1777 67.209 51.4466 67.209 51.752V56.6465H65.7256V51.5469C65.7256 51.1367 65.5934 50.8086 65.3291 50.5625C65.0693 50.3164 64.7367 50.1934 64.3311 50.1934C64.0531 50.1934 63.7933 50.2594 63.5518 50.3916C63.3148 50.5192 63.1234 50.7106 62.9775 50.9658C62.8363 51.2165 62.7656 51.5264 62.7656 51.8955V56.6465H61.2617ZM76.998 56.8037C76.2461 56.8037 75.5967 56.6419 75.0498 56.3184C74.5029 55.9948 74.0814 55.5391 73.7852 54.9512C73.4935 54.3633 73.3477 53.6729 73.3477 52.8799C73.3477 52.096 73.4912 51.4056 73.7783 50.8086C74.07 50.2116 74.4801 49.7467 75.0088 49.4141C75.5374 49.0768 76.1572 48.9082 76.8682 48.9082C77.3057 48.9082 77.7272 48.9811 78.1328 49.127C78.5384 49.2682 78.903 49.4915 79.2266 49.7969C79.5501 50.1022 79.8053 50.4987 79.9922 50.9863C80.1836 51.4694 80.2793 52.0573 80.2793 52.75V53.2832H74.1885V52.1621H79.5068L78.8027 52.5312C78.8027 52.0618 78.7298 51.6494 78.584 51.2939C78.4382 50.9339 78.2217 50.6536 77.9346 50.4531C77.652 50.2526 77.2965 50.1523 76.8682 50.1523C76.4443 50.1523 76.082 50.2549 75.7812 50.46C75.4805 50.665 75.2503 50.9362 75.0908 51.2734C74.9359 51.6061 74.8584 51.9707 74.8584 52.3672V53.1328C74.8584 53.6569 74.9473 54.1012 75.125 54.4658C75.3073 54.8258 75.5602 55.0993 75.8838 55.2861C76.2074 55.4684 76.5833 55.5596 77.0117 55.5596C77.2943 55.5596 77.5495 55.5208 77.7773 55.4434C78.0052 55.3613 78.2012 55.2406 78.3652 55.0811C78.5339 54.917 78.6615 54.7165 78.748 54.4795L80.1631 54.8145C80.04 55.2064 79.8327 55.5527 79.541 55.8535C79.2539 56.1543 78.8939 56.389 78.4609 56.5576C78.0326 56.7217 77.5449 56.8037 76.998 56.8037Z" fill="#111827"/>
<g clip-path="url(#clip0_4665_101828)">
<rect x="41" y="67.6465" width="227.294" height="36" rx="4" fill="white"/>
<path d="M53.4092 90.6465H50.9482V89.498H53.3271C54.1566 89.498 54.8424 89.3408 55.3848 89.0264C55.9316 88.7074 56.3395 88.2516 56.6084 87.6592C56.8773 87.0667 57.0117 86.3581 57.0117 85.5332C57.0117 84.7174 56.8773 84.0179 56.6084 83.4346C56.3441 82.8467 55.9476 82.3955 55.4189 82.0811C54.8949 81.7666 54.2386 81.6094 53.4502 81.6094H50.8936V80.4609H53.5391C54.5326 80.4609 55.3802 80.6637 56.082 81.0693C56.7884 81.4749 57.3285 82.0583 57.7021 82.8193C58.0804 83.5758 58.2695 84.4805 58.2695 85.5332C58.2695 86.5951 58.0804 87.5088 57.7021 88.2744C57.3239 89.0355 56.7725 89.6211 56.0479 90.0312C55.3232 90.4414 54.4437 90.6465 53.4092 90.6465ZM51.5293 80.4609V90.6465H50.2305V80.4609H51.5293ZM63.3965 90.8105C62.6582 90.8105 62.0202 90.6465 61.4824 90.3184C60.9492 89.9902 60.5368 89.5322 60.2451 88.9443C59.958 88.3564 59.8145 87.6706 59.8145 86.8867C59.8145 86.1029 59.9557 85.4124 60.2383 84.8154C60.5208 84.2184 60.9196 83.7513 61.4346 83.4141C61.9541 83.0768 62.5602 82.9082 63.2529 82.9082C63.6585 82.9082 64.0573 82.9766 64.4492 83.1133C64.8457 83.2454 65.2035 83.4619 65.5225 83.7627C65.846 84.0589 66.1035 84.4508 66.2949 84.9385C66.4863 85.4261 66.582 86.0231 66.582 86.7295V87.2422H60.6484V86.2031H65.9189L65.3447 86.5859C65.3447 86.0846 65.265 85.6403 65.1055 85.2529C64.9505 84.861 64.7181 84.5557 64.4082 84.3369C64.0983 84.1136 63.7132 84.002 63.2529 84.002C62.7926 84.002 62.3984 84.1159 62.0703 84.3438C61.7422 84.5671 61.4915 84.861 61.3184 85.2256C61.1452 85.5856 61.0586 85.973 61.0586 86.3877V87.0781C61.0586 87.6432 61.1566 88.124 61.3525 88.5205C61.5485 88.9124 61.8219 89.2109 62.1729 89.416C62.5283 89.6165 62.9385 89.7168 63.4033 89.7168C63.7041 89.7168 63.9775 89.6735 64.2236 89.5869C64.4697 89.5003 64.6816 89.3704 64.8594 89.1973C65.0371 89.0195 65.1738 88.8008 65.2695 88.541L66.459 88.8691C66.3405 89.252 66.14 89.5892 65.8574 89.8809C65.5749 90.1725 65.224 90.4004 64.8047 90.5645C64.39 90.7285 63.9206 90.8105 63.3965 90.8105ZM70.2803 90.6465L67.3613 83.0039H68.708L70.335 87.5361C70.5081 88.0055 70.654 88.4749 70.7725 88.9443C70.8955 89.4092 71.0231 89.8604 71.1553 90.2979H70.7041C70.8363 89.8604 70.9616 89.4092 71.0801 88.9443C71.2031 88.4749 71.349 88.0055 71.5176 87.5361L73.1445 83.0039H74.4912L71.5723 90.6465H70.2803ZM82.9951 90.8105C82.3024 90.8105 81.694 90.6465 81.1699 90.3184C80.6504 89.9902 80.2448 89.5299 79.9531 88.9375C79.6615 88.3451 79.5156 87.6569 79.5156 86.873C79.5156 86.0755 79.6615 85.3805 79.9531 84.7881C80.2448 84.1911 80.6504 83.7285 81.1699 83.4004C81.694 83.0723 82.3024 82.9082 82.9951 82.9082C83.3643 82.9082 83.7129 82.9561 84.041 83.0518C84.3691 83.1475 84.6676 83.2865 84.9365 83.4688C85.21 83.6465 85.4447 83.8675 85.6406 84.1318C85.8366 84.3916 85.987 84.6878 86.0918 85.0205L84.9092 85.3555C84.8545 85.1595 84.7702 84.9795 84.6562 84.8154C84.5423 84.6514 84.4033 84.5101 84.2393 84.3916C84.0798 84.2686 83.8952 84.1751 83.6855 84.1113C83.4759 84.043 83.2458 84.0088 82.9951 84.0088C82.4847 84.0088 82.0654 84.1432 81.7373 84.4121C81.4092 84.6764 81.1654 85.0251 81.0059 85.458C80.8464 85.891 80.7666 86.3626 80.7666 86.873C80.7666 87.3743 80.8464 87.8415 81.0059 88.2744C81.1654 88.7028 81.4092 89.0492 81.7373 89.3135C82.0654 89.5778 82.4847 89.71 82.9951 89.71C83.2503 89.71 83.485 89.6758 83.6992 89.6074C83.9134 89.5391 84.1025 89.4434 84.2666 89.3203C84.4352 89.1927 84.5765 89.0423 84.6904 88.8691C84.8044 88.696 84.8887 88.5068 84.9434 88.3018L86.1191 88.6367C86.0189 88.9785 85.8685 89.2839 85.668 89.5527C85.472 89.8171 85.2373 90.0449 84.9639 90.2363C84.6904 90.4232 84.3874 90.5645 84.0547 90.6602C83.722 90.7604 83.3688 90.8105 82.9951 90.8105ZM89.1133 80.4609V90.6465H87.8828V80.4609H89.1133ZM93.8643 90.7422C93.3493 90.7422 92.8958 90.6374 92.5039 90.4277C92.1165 90.2135 91.8135 89.8923 91.5947 89.4639C91.3805 89.0355 91.2734 88.5 91.2734 87.8574V83.0039H92.5039V87.7549C92.5039 88.3428 92.6589 88.8031 92.9688 89.1357C93.2786 89.4684 93.7002 89.6348 94.2334 89.6348C94.598 89.6348 94.9238 89.555 95.2109 89.3955C95.5026 89.236 95.7327 89.0036 95.9014 88.6982C96.07 88.3883 96.1543 88.0169 96.1543 87.584V83.0039H97.3916V90.6465H96.2021V88.7939H96.3662C96.1292 89.5094 95.792 90.013 95.3545 90.3047C94.9215 90.5964 94.4248 90.7422 93.8643 90.7422ZM102.156 90.8105C101.632 90.8105 101.165 90.7354 100.755 90.585C100.349 90.43 100.014 90.2021 99.75 89.9014C99.4857 89.6006 99.3079 89.2314 99.2168 88.7939L100.386 88.5137C100.495 88.9329 100.7 89.2406 101.001 89.4365C101.306 89.6325 101.687 89.7305 102.143 89.7305C102.676 89.7305 103.1 89.6165 103.414 89.3887C103.733 89.1608 103.893 88.8896 103.893 88.5752C103.893 88.3109 103.799 88.0921 103.612 87.9189C103.43 87.7412 103.15 87.609 102.771 87.5225L101.5 87.2217C100.807 87.0576 100.292 86.8047 99.9551 86.4629C99.6178 86.1165 99.4492 85.6745 99.4492 85.1367C99.4492 84.6992 99.5723 84.3141 99.8184 83.9814C100.064 83.6442 100.399 83.3822 100.823 83.1953C101.252 83.0039 101.737 82.9082 102.279 82.9082C102.803 82.9082 103.248 82.988 103.612 83.1475C103.981 83.3024 104.28 83.5189 104.508 83.7969C104.74 84.0703 104.913 84.387 105.027 84.7471L103.913 85.0342C103.808 84.7607 103.633 84.5124 103.387 84.2891C103.145 84.0658 102.778 83.9541 102.286 83.9541C101.83 83.9541 101.45 84.0589 101.145 84.2686C100.844 84.4782 100.693 84.7425 100.693 85.0615C100.693 85.3441 100.796 85.5719 101.001 85.7451C101.206 85.9137 101.532 86.0505 101.979 86.1553L103.134 86.4287C103.826 86.5928 104.339 86.848 104.672 87.1943C105.005 87.5361 105.171 87.9691 105.171 88.4932C105.171 88.9398 105.043 89.3385 104.788 89.6895C104.537 90.0358 104.184 90.3092 103.729 90.5098C103.277 90.7103 102.753 90.8105 102.156 90.8105ZM109.963 83.0039V84.0566H106.012V83.0039H109.963ZM107.16 81.1855H108.391V88.6641C108.391 89.0059 108.459 89.2565 108.596 89.416C108.737 89.571 108.969 89.6484 109.293 89.6484C109.37 89.6484 109.468 89.6393 109.587 89.6211C109.71 89.6029 109.822 89.5846 109.922 89.5664L110.175 90.6055C110.047 90.651 109.901 90.6852 109.737 90.708C109.578 90.7308 109.418 90.7422 109.259 90.7422C108.598 90.7422 108.083 90.569 107.714 90.2227C107.345 89.8717 107.16 89.3841 107.16 88.7598V81.1855ZM114.611 90.8105C113.873 90.8105 113.235 90.6465 112.697 90.3184C112.164 89.9902 111.752 89.5322 111.46 88.9443C111.173 88.3564 111.029 87.6706 111.029 86.8867C111.029 86.1029 111.171 85.4124 111.453 84.8154C111.736 84.2184 112.134 83.7513 112.649 83.4141C113.169 83.0768 113.775 82.9082 114.468 82.9082C114.873 82.9082 115.272 82.9766 115.664 83.1133C116.061 83.2454 116.418 83.4619 116.737 83.7627C117.061 84.0589 117.318 84.4508 117.51 84.9385C117.701 85.4261 117.797 86.0231 117.797 86.7295V87.2422H111.863V86.2031H117.134L116.56 86.5859C116.56 86.0846 116.48 85.6403 116.32 85.2529C116.165 84.861 115.933 84.5557 115.623 84.3369C115.313 84.1136 114.928 84.002 114.468 84.002C114.007 84.002 113.613 84.1159 113.285 84.3438C112.957 84.5671 112.706 84.861 112.533 85.2256C112.36 85.5856 112.273 85.973 112.273 86.3877V87.0781C112.273 87.6432 112.371 88.124 112.567 88.5205C112.763 88.9124 113.037 89.2109 113.388 89.416C113.743 89.6165 114.153 89.7168 114.618 89.7168C114.919 89.7168 115.192 89.6735 115.438 89.5869C115.685 89.5003 115.896 89.3704 116.074 89.1973C116.252 89.0195 116.389 88.8008 116.484 88.541L117.674 88.8691C117.555 89.252 117.355 89.5892 117.072 89.8809C116.79 90.1725 116.439 90.4004 116.02 90.5645C115.605 90.7285 115.135 90.8105 114.611 90.8105ZM119.561 90.6465V83.0039H120.75V84.1797H120.832C120.973 83.7923 121.224 83.4824 121.584 83.25C121.949 83.013 122.359 82.8945 122.814 82.8945C122.906 82.8945 123.013 82.8968 123.136 82.9014C123.263 82.9059 123.364 82.9105 123.437 82.915V84.1523C123.4 84.1432 123.309 84.1296 123.163 84.1113C123.017 84.0931 122.862 84.084 122.698 84.084C122.334 84.084 122.006 84.1615 121.714 84.3164C121.427 84.4668 121.201 84.6764 121.037 84.9453C120.873 85.2096 120.791 85.515 120.791 85.8613V90.6465H119.561ZM132.036 90.7832C131.371 90.7832 130.781 90.6693 130.266 90.4414C129.751 90.2135 129.34 89.8968 129.035 89.4912C128.734 89.0856 128.573 88.6139 128.55 88.0762H129.862C129.89 88.3997 129.999 88.68 130.19 88.917C130.386 89.1494 130.642 89.3294 130.956 89.457C131.275 89.5801 131.628 89.6416 132.016 89.6416C132.444 89.6416 132.822 89.5687 133.15 89.4229C133.483 89.2725 133.745 89.0628 133.937 88.7939C134.128 88.5251 134.224 88.2152 134.224 87.8643C134.224 87.4951 134.13 87.1715 133.943 86.8936C133.761 86.611 133.494 86.39 133.144 86.2305C132.793 86.071 132.364 85.9912 131.858 85.9912H131.031V84.8633H131.858C132.255 84.8633 132.604 84.7926 132.904 84.6514C133.21 84.5055 133.447 84.3027 133.615 84.043C133.784 83.7832 133.868 83.4779 133.868 83.127C133.868 82.7897 133.793 82.4958 133.643 82.2451C133.497 81.9945 133.287 81.8008 133.014 81.6641C132.74 81.5228 132.419 81.4521 132.05 81.4521C131.703 81.4521 131.378 81.516 131.072 81.6436C130.771 81.7666 130.523 81.9443 130.327 82.1768C130.136 82.4092 130.033 82.6917 130.02 83.0244H128.769C128.787 82.4912 128.946 82.0218 129.247 81.6162C129.548 81.2106 129.944 80.8939 130.437 80.666C130.933 80.4382 131.48 80.3242 132.077 80.3242C132.711 80.3242 133.255 80.4518 133.711 80.707C134.171 80.9622 134.524 81.2972 134.771 81.7119C135.017 82.1266 135.14 82.5755 135.14 83.0586C135.14 83.6328 134.987 84.1204 134.682 84.5215C134.381 84.9225 133.971 85.2005 133.451 85.3555V85.4375C133.884 85.5059 134.253 85.6517 134.559 85.875C134.868 86.0983 135.103 86.3809 135.263 86.7227C135.427 87.0645 135.509 87.4495 135.509 87.8779C135.509 88.4339 135.358 88.9307 135.058 89.3682C134.757 89.8057 134.344 90.152 133.82 90.4072C133.296 90.6579 132.701 90.7832 132.036 90.7832Z" fill="#111827"/>
</g>
<rect x="41" y="67.6465" width="227.294" height="36" rx="4" stroke="#E4E4E7"/>
<path d="M42.1279 140.646V130.461H43.9258L47.7607 136.524C47.8883 136.725 48.0319 136.964 48.1914 137.242C48.3509 137.52 48.5195 137.835 48.6973 138.186C48.875 138.532 49.0505 138.91 49.2236 139.32H49.0322C48.9912 138.933 48.9593 138.55 48.9365 138.172C48.9183 137.789 48.9046 137.431 48.8955 137.099C48.8864 136.766 48.8818 136.486 48.8818 136.258V130.461H50.4609V140.646H48.6562L45.2178 135.226C45.0355 134.929 44.8555 134.631 44.6777 134.33C44.5046 134.029 44.3109 133.683 44.0967 133.291C43.887 132.895 43.6296 132.414 43.3242 131.849H43.5703C43.5931 132.35 43.6159 132.819 43.6387 133.257C43.6615 133.69 43.6774 134.075 43.6865 134.412C43.7002 134.745 43.707 135.011 43.707 135.212V140.646H42.1279ZM55.8203 140.804C55.1048 140.804 54.4782 140.64 53.9404 140.312C53.4072 139.983 52.9925 139.523 52.6963 138.931C52.4001 138.338 52.252 137.65 52.252 136.866C52.252 136.073 52.4001 135.381 52.6963 134.788C52.9925 134.191 53.4072 133.729 53.9404 133.4C54.4782 133.072 55.1048 132.908 55.8203 132.908C56.5404 132.908 57.167 133.072 57.7002 133.4C58.238 133.729 58.6549 134.191 58.9512 134.788C59.2474 135.381 59.3955 136.073 59.3955 136.866C59.3955 137.65 59.2474 138.338 58.9512 138.931C58.6549 139.523 58.238 139.983 57.7002 140.312C57.167 140.64 56.5404 140.804 55.8203 140.804ZM55.8203 139.532C56.2852 139.532 56.668 139.411 56.9688 139.17C57.2741 138.924 57.4997 138.6 57.6455 138.199C57.7959 137.794 57.8711 137.349 57.8711 136.866C57.8711 136.379 57.7959 135.932 57.6455 135.526C57.4997 135.116 57.2741 134.79 56.9688 134.549C56.668 134.303 56.2852 134.18 55.8203 134.18C55.36 134.18 54.9795 134.303 54.6787 134.549C54.3779 134.79 54.1523 135.114 54.002 135.52C53.8561 135.925 53.7832 136.374 53.7832 136.866C53.7832 137.349 53.8561 137.794 54.002 138.199C54.1523 138.6 54.3779 138.924 54.6787 139.17C54.9795 139.411 55.36 139.532 55.8203 139.532ZM63.9141 140.797C63.2943 140.797 62.7428 140.64 62.2598 140.325C61.7767 140.006 61.3984 139.553 61.125 138.965C60.8516 138.372 60.7148 137.666 60.7148 136.846C60.7148 136.016 60.8538 135.308 61.1318 134.72C61.4098 134.132 61.7904 133.683 62.2734 133.373C62.7565 133.063 63.3034 132.908 63.9141 132.908C64.388 132.908 64.7686 132.988 65.0557 133.147C65.3473 133.302 65.5752 133.485 65.7393 133.694C65.9033 133.904 66.0286 134.089 66.1152 134.248H66.1973V130.461H67.7012V140.646H66.2383V139.45H66.1152C66.0286 139.614 65.901 139.801 65.7324 140.011C65.5638 140.22 65.3337 140.405 65.042 140.564C64.7503 140.719 64.3743 140.797 63.9141 140.797ZM64.2422 139.519C64.6706 139.519 65.0306 139.405 65.3223 139.177C65.6185 138.949 65.8418 138.634 65.9922 138.233C66.1471 137.828 66.2246 137.361 66.2246 136.832C66.2246 136.299 66.1494 135.836 65.999 135.444C65.8486 135.048 65.6253 134.74 65.3291 134.521C65.0374 134.298 64.6751 134.187 64.2422 134.187C63.8001 134.187 63.431 134.303 63.1348 134.535C62.8431 134.768 62.6221 135.084 62.4717 135.485C62.3258 135.882 62.2529 136.331 62.2529 136.832C62.2529 137.338 62.3281 137.794 62.4785 138.199C62.6289 138.605 62.8522 138.926 63.1484 139.163C63.4447 139.4 63.8092 139.519 64.2422 139.519ZM73.0195 140.804C72.2676 140.804 71.6182 140.642 71.0713 140.318C70.5244 139.995 70.1029 139.539 69.8066 138.951C69.515 138.363 69.3691 137.673 69.3691 136.88C69.3691 136.096 69.5127 135.406 69.7998 134.809C70.0915 134.212 70.5016 133.747 71.0303 133.414C71.5589 133.077 72.1787 132.908 72.8896 132.908C73.3271 132.908 73.7487 132.981 74.1543 133.127C74.5599 133.268 74.9245 133.492 75.248 133.797C75.5716 134.102 75.8268 134.499 76.0137 134.986C76.2051 135.469 76.3008 136.057 76.3008 136.75V137.283H70.21V136.162H75.5283L74.8242 136.531C74.8242 136.062 74.7513 135.649 74.6055 135.294C74.4596 134.934 74.2432 134.654 73.9561 134.453C73.6735 134.253 73.318 134.152 72.8896 134.152C72.4658 134.152 72.1035 134.255 71.8027 134.46C71.502 134.665 71.2718 134.936 71.1123 135.273C70.9574 135.606 70.8799 135.971 70.8799 136.367V137.133C70.8799 137.657 70.9688 138.101 71.1465 138.466C71.3288 138.826 71.5817 139.099 71.9053 139.286C72.2288 139.468 72.6048 139.56 73.0332 139.56C73.3158 139.56 73.571 139.521 73.7988 139.443C74.0267 139.361 74.2227 139.241 74.3867 139.081C74.5553 138.917 74.6829 138.716 74.7695 138.479L76.1846 138.814C76.0615 139.206 75.8542 139.553 75.5625 139.854C75.2754 140.154 74.9154 140.389 74.4824 140.558C74.054 140.722 73.5664 140.804 73.0195 140.804ZM77.9551 143.504V133.004H79.418V134.248H79.541C79.6322 134.089 79.7575 133.904 79.917 133.694C80.0811 133.485 80.3066 133.302 80.5938 133.147C80.8854 132.988 81.2705 132.908 81.749 132.908C82.3597 132.908 82.9043 133.063 83.3828 133.373C83.8659 133.683 84.2464 134.132 84.5244 134.72C84.8024 135.308 84.9414 136.016 84.9414 136.846C84.9414 137.666 84.8047 138.372 84.5312 138.965C84.2578 139.553 83.8796 140.006 83.3965 140.325C82.918 140.64 82.3688 140.797 81.749 140.797C81.2887 140.797 80.9105 140.719 80.6143 140.564C80.3226 140.405 80.0924 140.22 79.9238 140.011C79.7598 139.801 79.6322 139.614 79.541 139.45H79.459V143.504H77.9551ZM81.4141 139.519C81.8516 139.519 82.2184 139.4 82.5146 139.163C82.8109 138.926 83.0319 138.605 83.1777 138.199C83.3281 137.794 83.4033 137.338 83.4033 136.832C83.4033 136.331 83.3281 135.882 83.1777 135.485C83.0319 135.084 82.8109 134.768 82.5146 134.535C82.223 134.303 81.8561 134.187 81.4141 134.187C80.9857 134.187 80.6234 134.298 80.3271 134.521C80.0309 134.74 79.8076 135.048 79.6572 135.444C79.5068 135.836 79.4316 136.299 79.4316 136.832C79.4316 137.361 79.5068 137.828 79.6572 138.233C79.8122 138.634 80.0378 138.949 80.334 139.177C80.6302 139.405 80.9902 139.519 81.4141 139.519ZM89.8223 140.804C89.1068 140.804 88.4801 140.64 87.9424 140.312C87.4092 139.983 86.9945 139.523 86.6982 138.931C86.402 138.338 86.2539 137.65 86.2539 136.866C86.2539 136.073 86.402 135.381 86.6982 134.788C86.9945 134.191 87.4092 133.729 87.9424 133.4C88.4801 133.072 89.1068 132.908 89.8223 132.908C90.5423 132.908 91.1689 133.072 91.7021 133.4C92.2399 133.729 92.6569 134.191 92.9531 134.788C93.2493 135.381 93.3975 136.073 93.3975 136.866C93.3975 137.65 93.2493 138.338 92.9531 138.931C92.6569 139.523 92.2399 139.983 91.7021 140.312C91.1689 140.64 90.5423 140.804 89.8223 140.804ZM89.8223 139.532C90.2871 139.532 90.6699 139.411 90.9707 139.17C91.276 138.924 91.5016 138.6 91.6475 138.199C91.7979 137.794 91.873 137.349 91.873 136.866C91.873 136.379 91.7979 135.932 91.6475 135.526C91.5016 135.116 91.276 134.79 90.9707 134.549C90.6699 134.303 90.2871 134.18 89.8223 134.18C89.362 134.18 88.9814 134.303 88.6807 134.549C88.3799 134.79 88.1543 135.114 88.0039 135.52C87.8581 135.925 87.7852 136.374 87.7852 136.866C87.7852 137.349 87.8581 137.794 88.0039 138.199C88.1543 138.6 88.3799 138.924 88.6807 139.17C88.9814 139.411 89.362 139.532 89.8223 139.532ZM98.2852 140.804C97.5697 140.804 96.943 140.64 96.4053 140.312C95.8721 139.983 95.4574 139.523 95.1611 138.931C94.8649 138.338 94.7168 137.65 94.7168 136.866C94.7168 136.073 94.8649 135.381 95.1611 134.788C95.4574 134.191 95.8721 133.729 96.4053 133.4C96.943 133.072 97.5697 132.908 98.2852 132.908C99.0052 132.908 99.6318 133.072 100.165 133.4C100.703 133.729 101.12 134.191 101.416 134.788C101.712 135.381 101.86 136.073 101.86 136.866C101.86 137.65 101.712 138.338 101.416 138.931C101.12 139.523 100.703 139.983 100.165 140.312C99.6318 140.64 99.0052 140.804 98.2852 140.804ZM98.2852 139.532C98.75 139.532 99.1328 139.411 99.4336 139.17C99.7389 138.924 99.9645 138.6 100.11 138.199C100.261 137.794 100.336 137.349 100.336 136.866C100.336 136.379 100.261 135.932 100.11 135.526C99.9645 135.116 99.7389 134.79 99.4336 134.549C99.1328 134.303 98.75 134.18 98.2852 134.18C97.8249 134.18 97.4443 134.303 97.1436 134.549C96.8428 134.79 96.6172 135.114 96.4668 135.52C96.321 135.925 96.248 136.374 96.248 136.866C96.248 137.349 96.321 137.794 96.4668 138.199C96.6172 138.6 96.8428 138.924 97.1436 139.17C97.4443 139.411 97.8249 139.532 98.2852 139.532ZM105.039 130.461V140.646H103.535V130.461H105.039ZM114.466 130.461V140.646H112.921V131.876H112.853L110.433 133.64V132.074L112.661 130.461H114.466Z" fill="#111827"/>
<g clip-path="url(#clip1_4665_101828)">
<rect x="41" y="151.646" width="227.294" height="36" rx="4" fill="white"/>
<path d="M50.2305 174.646V164.461H52.0762L54.585 170.887C54.6442 171.037 54.7103 171.226 54.7832 171.454C54.8607 171.677 54.9404 171.921 55.0225 172.186C55.109 172.45 55.1911 172.714 55.2686 172.979C55.346 173.238 55.4144 173.48 55.4736 173.703H55.1865C55.2503 173.493 55.321 173.261 55.3984 173.006C55.4759 172.746 55.5557 172.484 55.6377 172.22C55.7243 171.951 55.8063 171.7 55.8838 171.468C55.9613 171.235 56.0296 171.042 56.0889 170.887L58.5635 164.461H60.416V174.646H59.1377V168.829C59.1377 168.619 59.1377 168.38 59.1377 168.111C59.1423 167.842 59.1468 167.56 59.1514 167.264C59.1605 166.967 59.1673 166.667 59.1719 166.361C59.181 166.056 59.1878 165.76 59.1924 165.473H59.3018C59.2061 165.787 59.1035 166.108 58.9941 166.437C58.8893 166.76 58.7845 167.075 58.6797 167.38C58.5794 167.681 58.4837 167.956 58.3926 168.207C58.3014 168.458 58.224 168.665 58.1602 168.829L55.8838 174.646H54.7559L52.4453 168.829C52.3815 168.67 52.3063 168.469 52.2197 168.228C52.1331 167.981 52.0374 167.71 51.9326 167.414C51.8324 167.113 51.7275 166.799 51.6182 166.471C51.5088 166.138 51.3971 165.805 51.2832 165.473H51.4062C51.4154 165.728 51.4222 166.004 51.4268 166.3C51.4359 166.596 51.4427 166.897 51.4473 167.202C51.4518 167.503 51.4564 167.795 51.4609 168.077C51.4655 168.355 51.4678 168.606 51.4678 168.829V174.646H50.2305ZM62.7266 174.646V167.004H63.957V174.646H62.7266ZM63.3486 165.753C63.1162 165.753 62.9157 165.673 62.7471 165.514C62.5785 165.354 62.4941 165.163 62.4941 164.939C62.4941 164.712 62.5785 164.52 62.7471 164.365C62.9157 164.206 63.1162 164.126 63.3486 164.126C63.5856 164.126 63.7884 164.206 63.957 164.365C64.1257 164.52 64.21 164.712 64.21 164.939C64.21 165.163 64.1257 165.354 63.957 165.514C63.7884 165.673 63.5856 165.753 63.3486 165.753ZM67.3477 170.066V174.646H66.1172V167.004H67.2998L67.3066 168.856H67.1357C67.3682 168.15 67.6986 167.649 68.127 167.353C68.5599 167.056 69.0658 166.908 69.6445 166.908C70.1595 166.908 70.6107 167.015 70.998 167.229C71.3854 167.439 71.6862 167.758 71.9004 168.187C72.1191 168.61 72.2285 169.146 72.2285 169.793V174.646H70.998V169.896C70.998 169.308 70.8431 168.847 70.5332 168.515C70.2279 168.182 69.8086 168.016 69.2754 168.016C68.9108 168.016 68.5827 168.095 68.291 168.255C67.9993 168.414 67.7692 168.647 67.6006 168.952C67.432 169.257 67.3477 169.629 67.3477 170.066ZM78.2988 174.646V173.71L81.6826 170.039C82.0609 169.629 82.3753 169.269 82.626 168.959C82.8766 168.649 83.0658 168.355 83.1934 168.077C83.321 167.795 83.3848 167.496 83.3848 167.182C83.3848 166.826 83.3005 166.519 83.1318 166.259C82.9632 165.999 82.7354 165.801 82.4482 165.664C82.1611 165.523 81.8353 165.452 81.4707 165.452C81.0833 165.452 80.7461 165.532 80.459 165.691C80.1764 165.846 79.9577 166.067 79.8027 166.354C79.6478 166.637 79.5703 166.97 79.5703 167.353H78.3262C78.3262 166.751 78.4652 166.222 78.7432 165.767C79.0212 165.311 79.3994 164.958 79.8779 164.707C80.3564 164.452 80.8988 164.324 81.5049 164.324C82.111 164.324 82.6465 164.452 83.1113 164.707C83.5807 164.958 83.9476 165.297 84.2119 165.726C84.4808 166.154 84.6152 166.635 84.6152 167.168C84.6152 167.537 84.5492 167.897 84.417 168.248C84.2848 168.594 84.0524 168.989 83.7197 169.431C83.387 169.873 82.9199 170.413 82.3184 171.051L80.0898 173.423V173.505H84.7861V174.646H78.2988ZM92.0391 170.066V174.646H90.8086V167.004H91.9912L91.998 168.856H91.8271C92.0596 168.15 92.39 167.649 92.8184 167.353C93.2513 167.056 93.7572 166.908 94.3359 166.908C94.8509 166.908 95.3021 167.015 95.6895 167.229C96.0768 167.439 96.3776 167.758 96.5918 168.187C96.8105 168.61 96.9199 169.146 96.9199 169.793V174.646H95.6895V169.896C95.6895 169.308 95.5345 168.847 95.2246 168.515C94.9193 168.182 94.5 168.016 93.9668 168.016C93.6022 168.016 93.2741 168.095 92.9824 168.255C92.6908 168.414 92.4606 168.647 92.292 168.952C92.1234 169.257 92.0391 169.629 92.0391 170.066ZM102.19 174.811C101.498 174.811 100.889 174.646 100.365 174.318C99.8457 173.99 99.4401 173.53 99.1484 172.938C98.8568 172.345 98.7109 171.657 98.7109 170.873C98.7109 170.076 98.8568 169.381 99.1484 168.788C99.4401 168.191 99.8457 167.729 100.365 167.4C100.889 167.072 101.498 166.908 102.19 166.908C102.888 166.908 103.498 167.072 104.022 167.4C104.547 167.729 104.954 168.191 105.246 168.788C105.538 169.381 105.684 170.076 105.684 170.873C105.684 171.657 105.538 172.345 105.246 172.938C104.954 173.53 104.547 173.99 104.022 174.318C103.498 174.646 102.888 174.811 102.19 174.811ZM102.19 173.71C102.705 173.71 103.129 173.578 103.462 173.313C103.795 173.049 104.041 172.703 104.2 172.274C104.36 171.841 104.439 171.374 104.439 170.873C104.439 170.367 104.36 169.898 104.2 169.465C104.041 169.027 103.795 168.676 103.462 168.412C103.129 168.143 102.705 168.009 102.19 168.009C101.68 168.009 101.261 168.143 100.933 168.412C100.604 168.676 100.361 169.025 100.201 169.458C100.042 169.891 99.9619 170.363 99.9619 170.873C99.9619 171.374 100.042 171.841 100.201 172.274C100.361 172.703 100.604 173.049 100.933 173.313C101.261 173.578 101.68 173.71 102.19 173.71ZM110.339 174.811C109.705 174.811 109.145 174.649 108.657 174.325C108.17 174.002 107.789 173.544 107.516 172.951C107.242 172.359 107.105 171.657 107.105 170.846C107.105 170.039 107.242 169.342 107.516 168.754C107.794 168.161 108.176 167.706 108.664 167.387C109.152 167.068 109.712 166.908 110.346 166.908C110.842 166.908 111.237 166.99 111.528 167.154C111.82 167.318 112.043 167.505 112.198 167.715C112.358 167.92 112.479 168.091 112.561 168.228H112.656V164.461H113.887V174.646H112.697V173.464H112.561C112.479 173.605 112.355 173.783 112.191 173.997C112.032 174.207 111.804 174.396 111.508 174.564C111.216 174.729 110.826 174.811 110.339 174.811ZM110.523 173.71C110.988 173.71 111.38 173.589 111.699 173.348C112.018 173.102 112.26 172.762 112.424 172.329C112.588 171.896 112.67 171.397 112.67 170.832C112.67 170.267 112.588 169.775 112.424 169.355C112.264 168.932 112.025 168.601 111.706 168.364C111.387 168.127 110.993 168.009 110.523 168.009C110.04 168.009 109.637 168.134 109.313 168.385C108.994 168.635 108.755 168.975 108.596 169.403C108.436 169.827 108.356 170.303 108.356 170.832C108.356 171.365 108.436 171.851 108.596 172.288C108.76 172.721 109.004 173.067 109.327 173.327C109.651 173.582 110.049 173.71 110.523 173.71ZM119.26 174.811C118.521 174.811 117.883 174.646 117.346 174.318C116.812 173.99 116.4 173.532 116.108 172.944C115.821 172.356 115.678 171.671 115.678 170.887C115.678 170.103 115.819 169.412 116.102 168.815C116.384 168.218 116.783 167.751 117.298 167.414C117.817 167.077 118.424 166.908 119.116 166.908C119.522 166.908 119.921 166.977 120.312 167.113C120.709 167.245 121.067 167.462 121.386 167.763C121.709 168.059 121.967 168.451 122.158 168.938C122.35 169.426 122.445 170.023 122.445 170.729V171.242H116.512V170.203H121.782L121.208 170.586C121.208 170.085 121.128 169.64 120.969 169.253C120.814 168.861 120.581 168.556 120.271 168.337C119.962 168.114 119.576 168.002 119.116 168.002C118.656 168.002 118.262 168.116 117.934 168.344C117.605 168.567 117.355 168.861 117.182 169.226C117.008 169.586 116.922 169.973 116.922 170.388V171.078C116.922 171.643 117.02 172.124 117.216 172.521C117.412 172.912 117.685 173.211 118.036 173.416C118.392 173.617 118.802 173.717 119.267 173.717C119.567 173.717 119.841 173.674 120.087 173.587C120.333 173.5 120.545 173.37 120.723 173.197C120.9 173.02 121.037 172.801 121.133 172.541L122.322 172.869C122.204 173.252 122.003 173.589 121.721 173.881C121.438 174.173 121.087 174.4 120.668 174.564C120.253 174.729 119.784 174.811 119.26 174.811ZM126.807 174.811C126.283 174.811 125.815 174.735 125.405 174.585C125 174.43 124.665 174.202 124.4 173.901C124.136 173.601 123.958 173.231 123.867 172.794L125.036 172.514C125.146 172.933 125.351 173.241 125.651 173.437C125.957 173.632 126.337 173.73 126.793 173.73C127.326 173.73 127.75 173.617 128.064 173.389C128.383 173.161 128.543 172.89 128.543 172.575C128.543 172.311 128.45 172.092 128.263 171.919C128.08 171.741 127.8 171.609 127.422 171.522L126.15 171.222C125.458 171.058 124.943 170.805 124.605 170.463C124.268 170.117 124.1 169.674 124.1 169.137C124.1 168.699 124.223 168.314 124.469 167.981C124.715 167.644 125.05 167.382 125.474 167.195C125.902 167.004 126.387 166.908 126.93 166.908C127.454 166.908 127.898 166.988 128.263 167.147C128.632 167.302 128.93 167.519 129.158 167.797C129.391 168.07 129.564 168.387 129.678 168.747L128.563 169.034C128.459 168.761 128.283 168.512 128.037 168.289C127.796 168.066 127.429 167.954 126.937 167.954C126.481 167.954 126.1 168.059 125.795 168.269C125.494 168.478 125.344 168.743 125.344 169.062C125.344 169.344 125.446 169.572 125.651 169.745C125.856 169.914 126.182 170.05 126.629 170.155L127.784 170.429C128.477 170.593 128.99 170.848 129.322 171.194C129.655 171.536 129.821 171.969 129.821 172.493C129.821 172.94 129.694 173.339 129.438 173.689C129.188 174.036 128.835 174.309 128.379 174.51C127.928 174.71 127.404 174.811 126.807 174.811Z" fill="#9CA3AF"/>
</g>
<rect x="41" y="151.646" width="227.294" height="36" rx="4" stroke="#E4E4E7"/>
<g clip-path="url(#clip2_4665_101828)">
<rect x="41" y="207.646" width="227.294" height="36" rx="4" fill="white"/>
<path d="M50.2305 230.646V220.461H52.0762L54.585 226.887C54.6442 227.037 54.7103 227.226 54.7832 227.454C54.8607 227.677 54.9404 227.921 55.0225 228.186C55.109 228.45 55.1911 228.714 55.2686 228.979C55.346 229.238 55.4144 229.48 55.4736 229.703H55.1865C55.2503 229.493 55.321 229.261 55.3984 229.006C55.4759 228.746 55.5557 228.484 55.6377 228.22C55.7243 227.951 55.8063 227.7 55.8838 227.468C55.9613 227.235 56.0296 227.042 56.0889 226.887L58.5635 220.461H60.416V230.646H59.1377V224.829C59.1377 224.619 59.1377 224.38 59.1377 224.111C59.1423 223.842 59.1468 223.56 59.1514 223.264C59.1605 222.967 59.1673 222.667 59.1719 222.361C59.181 222.056 59.1878 221.76 59.1924 221.473H59.3018C59.2061 221.787 59.1035 222.108 58.9941 222.437C58.8893 222.76 58.7845 223.075 58.6797 223.38C58.5794 223.681 58.4837 223.956 58.3926 224.207C58.3014 224.458 58.224 224.665 58.1602 224.829L55.8838 230.646H54.7559L52.4453 224.829C52.3815 224.67 52.3063 224.469 52.2197 224.228C52.1331 223.981 52.0374 223.71 51.9326 223.414C51.8324 223.113 51.7275 222.799 51.6182 222.471C51.5088 222.138 51.3971 221.805 51.2832 221.473H51.4062C51.4154 221.728 51.4222 222.004 51.4268 222.3C51.4359 222.596 51.4427 222.897 51.4473 223.202C51.4518 223.503 51.4564 223.795 51.4609 224.077C51.4655 224.355 51.4678 224.606 51.4678 224.829V230.646H50.2305ZM65.584 230.811C64.9551 230.811 64.3968 230.649 63.9092 230.325C63.4261 230.002 63.0456 229.544 62.7676 228.951C62.4941 228.359 62.3574 227.657 62.3574 226.846C62.3574 226.039 62.4964 225.342 62.7744 224.754C63.0524 224.161 63.4352 223.706 63.9229 223.387C64.415 223.068 64.9779 222.908 65.6113 222.908C66.1035 222.908 66.4954 222.99 66.7871 223.154C67.0788 223.314 67.3021 223.498 67.457 223.708C67.612 223.918 67.7305 224.091 67.8125 224.228H67.915V223.004H69.1387V230.646H67.9219V229.464H67.8125C67.7305 229.605 67.6074 229.783 67.4434 229.997C67.2839 230.211 67.056 230.4 66.7598 230.564C66.4635 230.729 66.0716 230.811 65.584 230.811ZM65.7891 229.71C66.2539 229.71 66.6458 229.589 66.9648 229.348C67.2839 229.102 67.5254 228.762 67.6895 228.329C67.8535 227.896 67.9355 227.397 67.9355 226.832C67.9355 226.267 67.8535 225.775 67.6895 225.355C67.5299 224.932 67.2907 224.601 66.9717 224.364C66.6527 224.127 66.2585 224.009 65.7891 224.009C65.306 224.009 64.9027 224.134 64.5791 224.385C64.2555 224.631 64.0117 224.968 63.8477 225.396C63.6882 225.82 63.6084 226.299 63.6084 226.832C63.6084 227.365 63.6904 227.851 63.8545 228.288C64.0186 228.721 64.2624 229.067 64.5859 229.327C64.9095 229.582 65.3105 229.71 65.7891 229.71ZM70.6631 230.646L73.6777 226.251L73.6709 227.194L70.8203 223.004H72.2559L73.2061 224.487C73.4521 224.87 73.6641 225.228 73.8418 225.561C74.0241 225.893 74.2109 226.215 74.4023 226.524H73.7598C73.9557 226.215 74.1335 225.893 74.293 225.561C74.457 225.228 74.6644 224.87 74.915 224.487L75.8857 223.004H77.2939L74.4297 227.249V226.34L77.417 230.646H75.9883L74.8672 228.931C74.6257 228.557 74.416 228.211 74.2383 227.892C74.0651 227.568 73.8851 227.258 73.6982 226.962H74.3477C74.1608 227.258 73.9876 227.568 73.8281 227.892C73.6686 228.211 73.4658 228.557 73.2197 228.931L72.085 230.646H70.6631ZM86.0781 230.783C85.4811 230.783 84.9456 230.667 84.4717 230.435C83.9977 230.198 83.6195 229.876 83.3369 229.471C83.0544 229.061 82.9017 228.596 82.8789 228.076H84.1367C84.1641 228.377 84.2666 228.646 84.4443 228.883C84.6221 229.12 84.8522 229.307 85.1348 229.443C85.4219 229.576 85.7363 229.642 86.0781 229.642C86.4883 229.642 86.8529 229.546 87.1719 229.354C87.4954 229.163 87.7484 228.899 87.9307 228.562C88.113 228.224 88.2041 227.841 88.2041 227.413C88.2041 226.976 88.1084 226.584 87.917 226.237C87.7256 225.891 87.4635 225.62 87.1309 225.424C86.8027 225.223 86.4245 225.123 85.9961 225.123C85.6816 225.123 85.3626 225.173 85.0391 225.273C84.7155 225.374 84.4535 225.501 84.2529 225.656L83.0361 225.506L83.6377 220.461H88.9971V221.603H84.7314L84.3828 224.576H84.4375C84.6471 224.403 84.9115 224.262 85.2305 224.152C85.5495 224.038 85.8844 223.981 86.2354 223.981C86.7002 223.981 87.1286 224.066 87.5205 224.234C87.917 224.403 88.2611 224.642 88.5527 224.952C88.8444 225.257 89.07 225.618 89.2295 226.032C89.3936 226.447 89.4756 226.9 89.4756 227.393C89.4756 228.044 89.3275 228.625 89.0312 229.136C88.7396 229.646 88.3385 230.049 87.8281 230.346C87.3177 230.637 86.7344 230.783 86.0781 230.783ZM96.5645 226.066V230.646H95.334V223.004H96.5166L96.5234 224.856H96.3525C96.585 224.15 96.9154 223.649 97.3438 223.353C97.7767 223.056 98.2826 222.908 98.8613 222.908C99.3763 222.908 99.8275 223.015 100.215 223.229C100.602 223.439 100.903 223.758 101.117 224.187C101.336 224.61 101.445 225.146 101.445 225.793V230.646H100.215V225.896C100.215 225.308 100.06 224.847 99.75 224.515C99.4447 224.182 99.0254 224.016 98.4922 224.016C98.1276 224.016 97.7995 224.095 97.5078 224.255C97.2161 224.414 96.986 224.647 96.8174 224.952C96.6488 225.257 96.5645 225.629 96.5645 226.066ZM106.716 230.811C106.023 230.811 105.415 230.646 104.891 230.318C104.371 229.99 103.965 229.53 103.674 228.938C103.382 228.345 103.236 227.657 103.236 226.873C103.236 226.076 103.382 225.381 103.674 224.788C103.965 224.191 104.371 223.729 104.891 223.4C105.415 223.072 106.023 222.908 106.716 222.908C107.413 222.908 108.024 223.072 108.548 223.4C109.072 223.729 109.48 224.191 109.771 224.788C110.063 225.381 110.209 226.076 110.209 226.873C110.209 227.657 110.063 228.345 109.771 228.938C109.48 229.53 109.072 229.99 108.548 230.318C108.024 230.646 107.413 230.811 106.716 230.811ZM106.716 229.71C107.231 229.71 107.655 229.578 107.987 229.313C108.32 229.049 108.566 228.703 108.726 228.274C108.885 227.841 108.965 227.374 108.965 226.873C108.965 226.367 108.885 225.898 108.726 225.465C108.566 225.027 108.32 224.676 107.987 224.412C107.655 224.143 107.231 224.009 106.716 224.009C106.205 224.009 105.786 224.143 105.458 224.412C105.13 224.676 104.886 225.025 104.727 225.458C104.567 225.891 104.487 226.363 104.487 226.873C104.487 227.374 104.567 227.841 104.727 228.274C104.886 228.703 105.13 229.049 105.458 229.313C105.786 229.578 106.205 229.71 106.716 229.71ZM114.864 230.811C114.231 230.811 113.67 230.649 113.183 230.325C112.695 230.002 112.314 229.544 112.041 228.951C111.768 228.359 111.631 227.657 111.631 226.846C111.631 226.039 111.768 225.342 112.041 224.754C112.319 224.161 112.702 223.706 113.189 223.387C113.677 223.068 114.238 222.908 114.871 222.908C115.368 222.908 115.762 222.99 116.054 223.154C116.345 223.318 116.569 223.505 116.724 223.715C116.883 223.92 117.004 224.091 117.086 224.228H117.182V220.461H118.412V230.646H117.223V229.464H117.086C117.004 229.605 116.881 229.783 116.717 229.997C116.557 230.207 116.329 230.396 116.033 230.564C115.742 230.729 115.352 230.811 114.864 230.811ZM115.049 229.71C115.514 229.71 115.906 229.589 116.225 229.348C116.544 229.102 116.785 228.762 116.949 228.329C117.113 227.896 117.195 227.397 117.195 226.832C117.195 226.267 117.113 225.775 116.949 225.355C116.79 224.932 116.55 224.601 116.231 224.364C115.912 224.127 115.518 224.009 115.049 224.009C114.566 224.009 114.162 224.134 113.839 224.385C113.52 224.635 113.281 224.975 113.121 225.403C112.962 225.827 112.882 226.303 112.882 226.832C112.882 227.365 112.962 227.851 113.121 228.288C113.285 228.721 113.529 229.067 113.853 229.327C114.176 229.582 114.575 229.71 115.049 229.71ZM123.785 230.811C123.047 230.811 122.409 230.646 121.871 230.318C121.338 229.99 120.925 229.532 120.634 228.944C120.347 228.356 120.203 227.671 120.203 226.887C120.203 226.103 120.344 225.412 120.627 224.815C120.91 224.218 121.308 223.751 121.823 223.414C122.343 223.077 122.949 222.908 123.642 222.908C124.047 222.908 124.446 222.977 124.838 223.113C125.234 223.245 125.592 223.462 125.911 223.763C126.235 224.059 126.492 224.451 126.684 224.938C126.875 225.426 126.971 226.023 126.971 226.729V227.242H121.037V226.203H126.308L125.733 226.586C125.733 226.085 125.654 225.64 125.494 225.253C125.339 224.861 125.107 224.556 124.797 224.337C124.487 224.114 124.102 224.002 123.642 224.002C123.181 224.002 122.787 224.116 122.459 224.344C122.131 224.567 121.88 224.861 121.707 225.226C121.534 225.586 121.447 225.973 121.447 226.388V227.078C121.447 227.643 121.545 228.124 121.741 228.521C121.937 228.912 122.211 229.211 122.562 229.416C122.917 229.617 123.327 229.717 123.792 229.717C124.093 229.717 124.366 229.674 124.612 229.587C124.858 229.5 125.07 229.37 125.248 229.197C125.426 229.02 125.562 228.801 125.658 228.541L126.848 228.869C126.729 229.252 126.529 229.589 126.246 229.881C125.964 230.173 125.613 230.4 125.193 230.564C124.779 230.729 124.309 230.811 123.785 230.811ZM131.332 230.811C130.808 230.811 130.341 230.735 129.931 230.585C129.525 230.43 129.19 230.202 128.926 229.901C128.661 229.601 128.484 229.231 128.393 228.794L129.562 228.514C129.671 228.933 129.876 229.241 130.177 229.437C130.482 229.632 130.863 229.73 131.318 229.73C131.852 229.73 132.275 229.617 132.59 229.389C132.909 229.161 133.068 228.89 133.068 228.575C133.068 228.311 132.975 228.092 132.788 227.919C132.606 227.741 132.326 227.609 131.947 227.522L130.676 227.222C129.983 227.058 129.468 226.805 129.131 226.463C128.794 226.117 128.625 225.674 128.625 225.137C128.625 224.699 128.748 224.314 128.994 223.981C129.24 223.644 129.575 223.382 129.999 223.195C130.427 223.004 130.913 222.908 131.455 222.908C131.979 222.908 132.424 222.988 132.788 223.147C133.157 223.302 133.456 223.519 133.684 223.797C133.916 224.07 134.089 224.387 134.203 224.747L133.089 225.034C132.984 224.761 132.809 224.512 132.562 224.289C132.321 224.066 131.954 223.954 131.462 223.954C131.006 223.954 130.626 224.059 130.32 224.269C130.02 224.478 129.869 224.743 129.869 225.062C129.869 225.344 129.972 225.572 130.177 225.745C130.382 225.914 130.708 226.05 131.154 226.155L132.31 226.429C133.002 226.593 133.515 226.848 133.848 227.194C134.18 227.536 134.347 227.969 134.347 228.493C134.347 228.94 134.219 229.339 133.964 229.689C133.713 230.036 133.36 230.309 132.904 230.51C132.453 230.71 131.929 230.811 131.332 230.811Z" fill="#9CA3AF"/>
</g>
<rect x="41" y="207.646" width="227.294" height="36" rx="4" stroke="#E4E4E7"/>
<rect x="41" y="263.646" width="227.294" height="40" rx="4" fill="#3B82F6"/>
<rect x="41" y="263.646" width="227.294" height="40" rx="4" stroke="#2563EB"/>
<path d="M134.764 289.803C133.749 289.803 132.845 289.563 132.053 289.084C131.262 288.605 130.637 287.92 130.178 287.029C129.725 286.133 129.499 285.068 129.499 283.834C129.499 282.594 129.725 281.529 130.178 280.639C130.637 279.743 131.262 279.055 132.053 278.576C132.85 278.092 133.754 277.85 134.764 277.85C135.379 277.85 135.957 277.938 136.499 278.115C137.04 278.292 137.522 278.553 137.944 278.896C138.371 279.235 138.725 279.646 139.006 280.131C139.288 280.615 139.478 281.167 139.577 281.787H137.788C137.709 281.412 137.579 281.081 137.397 280.795C137.215 280.508 136.988 280.266 136.717 280.068C136.452 279.865 136.155 279.714 135.827 279.615C135.499 279.516 135.15 279.467 134.78 279.467C134.103 279.467 133.499 279.636 132.967 279.975C132.436 280.313 132.019 280.808 131.717 281.459C131.415 282.11 131.264 282.902 131.264 283.834C131.264 284.766 131.415 285.558 131.717 286.209C132.025 286.855 132.444 287.347 132.975 287.686C133.506 288.019 134.108 288.186 134.78 288.186C135.144 288.186 135.491 288.136 135.819 288.037C136.152 287.933 136.452 287.782 136.717 287.584C136.988 287.386 137.215 287.144 137.397 286.857C137.584 286.571 137.715 286.24 137.788 285.865H139.577C139.488 286.449 139.308 286.98 139.038 287.459C138.767 287.938 138.418 288.355 137.991 288.709C137.569 289.058 137.084 289.329 136.538 289.521C135.996 289.709 135.405 289.803 134.764 289.803ZM141.499 289.646V280.967H143.147V282.357H143.233C143.394 281.889 143.67 281.521 144.061 281.256C144.457 280.985 144.913 280.85 145.428 280.85C145.538 280.85 145.66 280.855 145.795 280.865C145.936 280.87 146.051 280.878 146.139 280.889V282.514C146.077 282.498 145.957 282.48 145.78 282.459C145.603 282.438 145.423 282.428 145.241 282.428C144.855 282.428 144.506 282.511 144.194 282.678C143.887 282.839 143.644 283.068 143.467 283.365C143.295 283.657 143.209 283.998 143.209 284.389V289.646H141.499ZM151.061 289.826C150.207 289.826 149.47 289.641 148.85 289.271C148.23 288.902 147.754 288.383 147.42 287.717C147.087 287.045 146.92 286.261 146.92 285.365C146.92 284.475 147.084 283.691 147.413 283.014C147.746 282.337 148.212 281.808 148.811 281.428C149.415 281.042 150.118 280.85 150.92 280.85C151.431 280.85 151.918 280.933 152.381 281.1C152.85 281.266 153.267 281.527 153.631 281.881C153.996 282.235 154.285 282.688 154.499 283.24C154.712 283.792 154.819 284.454 154.819 285.225V285.818H147.858V284.537H153.936L153.139 284.959C153.139 284.428 153.053 283.959 152.881 283.553C152.715 283.146 152.467 282.831 152.139 282.607C151.816 282.378 151.413 282.264 150.928 282.264C150.444 282.264 150.03 282.381 149.686 282.615C149.347 282.844 149.087 283.152 148.905 283.537C148.722 283.917 148.631 284.337 148.631 284.795V285.646C148.631 286.235 148.733 286.738 148.936 287.154C149.139 287.566 149.423 287.878 149.788 288.092C150.157 288.305 150.587 288.412 151.077 288.412C151.405 288.412 151.699 288.365 151.959 288.271C152.225 288.178 152.452 288.037 152.639 287.85C152.827 287.662 152.97 287.433 153.069 287.162L154.678 287.506C154.548 287.964 154.316 288.368 153.983 288.717C153.65 289.066 153.236 289.339 152.741 289.537C152.246 289.73 151.686 289.826 151.061 289.826ZM159.881 289.818C159.183 289.818 158.558 289.639 158.006 289.279C157.459 288.915 157.03 288.396 156.717 287.725C156.405 287.053 156.249 286.253 156.249 285.326C156.249 284.389 156.407 283.587 156.725 282.92C157.043 282.248 157.478 281.735 158.03 281.381C158.582 281.027 159.207 280.85 159.905 280.85C160.426 280.85 160.85 280.936 161.178 281.107C161.512 281.274 161.775 281.477 161.967 281.717C162.16 281.951 162.308 282.167 162.413 282.365H162.506V280.967H164.209V289.646H162.522V288.295H162.413C162.308 288.493 162.155 288.712 161.952 288.951C161.754 289.191 161.488 289.396 161.155 289.568C160.821 289.735 160.397 289.818 159.881 289.818ZM160.28 288.357C160.764 288.357 161.176 288.23 161.514 287.975C161.853 287.719 162.108 287.363 162.28 286.904C162.457 286.446 162.545 285.915 162.545 285.311C162.545 284.706 162.457 284.18 162.28 283.732C162.108 283.285 161.853 282.936 161.514 282.686C161.181 282.436 160.769 282.311 160.28 282.311C159.78 282.311 159.361 282.441 159.022 282.701C158.683 282.956 158.428 283.311 158.256 283.764C158.084 284.212 157.999 284.727 157.999 285.311C157.999 285.894 158.084 286.415 158.256 286.873C158.433 287.331 158.691 287.693 159.03 287.959C159.368 288.225 159.785 288.357 160.28 288.357ZM170.249 280.967V282.357H165.506V280.967H170.249ZM166.795 278.865H168.506V287.303C168.506 287.652 168.579 287.907 168.725 288.068C168.871 288.225 169.113 288.303 169.452 288.303C169.545 288.303 169.665 288.295 169.811 288.279C169.957 288.258 170.082 288.238 170.186 288.217L170.459 289.592C170.282 289.649 170.09 289.688 169.881 289.709C169.673 289.735 169.47 289.748 169.272 289.748C168.48 289.748 167.868 289.55 167.436 289.154C167.009 288.753 166.795 288.186 166.795 287.451V278.865ZM175.483 289.826C174.629 289.826 173.892 289.641 173.272 289.271C172.652 288.902 172.176 288.383 171.842 287.717C171.509 287.045 171.342 286.261 171.342 285.365C171.342 284.475 171.506 283.691 171.834 283.014C172.168 282.337 172.634 281.808 173.233 281.428C173.837 281.042 174.54 280.85 175.342 280.85C175.853 280.85 176.34 280.933 176.803 281.1C177.272 281.266 177.689 281.527 178.053 281.881C178.418 282.235 178.707 282.688 178.92 283.24C179.134 283.792 179.241 284.454 179.241 285.225V285.818H172.28V284.537H178.358L177.561 284.959C177.561 284.428 177.475 283.959 177.303 283.553C177.137 283.146 176.889 282.831 176.561 282.607C176.238 282.378 175.834 282.264 175.35 282.264C174.866 282.264 174.452 282.381 174.108 282.615C173.769 282.844 173.509 283.152 173.327 283.537C173.144 283.917 173.053 284.337 173.053 284.795V285.646C173.053 286.235 173.155 286.738 173.358 287.154C173.561 287.566 173.845 287.878 174.209 288.092C174.579 288.305 175.009 288.412 175.499 288.412C175.827 288.412 176.121 288.365 176.381 288.271C176.647 288.178 176.874 288.037 177.061 287.85C177.249 287.662 177.392 287.433 177.491 287.162L179.1 287.506C178.97 287.964 178.738 288.368 178.405 288.717C178.071 289.066 177.657 289.339 177.163 289.537C176.668 289.73 176.108 289.826 175.483 289.826Z" fill="white"/>
<rect x="382.794" y="105.971" width="113.706" height="113.706" rx="3.5" fill="white"/>
<rect x="382.794" y="105.971" width="113.706" height="113.706" rx="3.5" stroke="#E4E4E7"/>
<g clip-path="url(#clip3_4665_101828)">
<path fill-rule="evenodd" clip-rule="evenodd" d="M440.081 133.532C439.807 133.4 439.487 133.4 439.213 133.532L415.899 144.759C415.625 144.891 415.426 145.141 415.358 145.438L409.6 170.665C409.533 170.962 409.604 171.273 409.793 171.511L425.927 191.742C426.117 191.98 426.404 192.118 426.709 192.118H452.585C452.889 192.118 453.177 191.98 453.367 191.742L469.501 171.511C469.69 171.273 469.761 170.962 469.694 170.665L463.936 145.438C463.868 145.141 463.669 144.891 463.395 144.759L440.081 133.532ZM438.753 143.567C438.983 143.311 439.304 143.158 439.647 143.139L439.65 143.13C439.992 143.149 440.314 143.303 440.543 143.558C440.773 143.814 440.892 144.149 440.875 144.492V144.841C440.841 145.232 440.785 145.621 440.706 146.006C440.588 146.742 440.541 147.487 440.567 148.231C440.616 148.48 440.759 148.7 440.968 148.844C440.969 148.862 440.971 148.89 440.973 148.924C440.982 149.05 440.998 149.26 440.998 149.389C444.875 149.741 448.492 151.488 451.177 154.307L451.643 153.975C451.894 154.017 452.151 153.989 452.386 153.893C452.985 153.449 453.538 152.949 454.039 152.398C454.295 152.096 454.568 151.81 454.856 151.54C454.933 151.475 455.044 151.387 455.129 151.322C455.25 151.193 455.397 151.092 455.56 151.025C455.724 150.959 455.9 150.928 456.076 150.934C456.253 150.941 456.426 150.986 456.583 151.066C456.741 151.145 456.88 151.258 456.99 151.396C457.101 151.533 457.18 151.693 457.223 151.865C457.267 152.036 457.273 152.214 457.241 152.388C457.21 152.562 457.141 152.727 457.04 152.872C456.939 153.017 456.808 153.138 456.657 153.228C456.632 153.248 456.606 153.27 456.579 153.292C456.512 153.347 456.44 153.406 456.384 153.446C456.056 153.664 455.716 153.862 455.366 154.04C454.717 154.407 454.106 154.837 453.541 155.323C453.376 155.515 453.293 155.764 453.31 156.017L452.874 156.407C455.049 159.648 455.958 163.576 455.428 167.444L455.924 167.588C456.045 167.816 456.229 168.005 456.452 168.133C457.171 168.325 457.907 168.446 458.65 168.495C459.044 168.504 459.436 168.536 459.826 168.591C459.893 168.603 459.977 168.624 460.057 168.644C460.102 168.655 460.145 168.666 460.183 168.675C460.352 168.698 460.515 168.756 460.66 168.846C460.806 168.935 460.931 169.054 461.029 169.194C461.126 169.334 461.193 169.493 461.225 169.661C461.257 169.829 461.255 170.001 461.217 170.168C461.179 170.334 461.107 170.491 461.005 170.628C460.903 170.766 460.774 170.88 460.625 170.964C460.477 171.049 460.312 171.102 460.143 171.119C459.973 171.137 459.801 171.118 459.639 171.066H459.595C459.561 171.059 459.525 171.052 459.488 171.044C459.415 171.029 459.339 171.014 459.279 170.998C458.908 170.877 458.544 170.735 458.19 170.573C457.499 170.295 456.783 170.084 456.052 169.944C455.799 169.936 455.553 170.027 455.366 170.197C455.279 170.178 455.001 170.129 454.843 170.105C453.654 173.838 451.134 177.004 447.762 178.999C447.82 179.168 447.888 179.334 447.966 179.495C447.841 179.714 447.806 179.974 447.871 180.219C448.17 180.902 448.535 181.554 448.96 182.166C449.199 182.479 449.419 182.806 449.62 183.144C449.661 183.22 449.715 183.334 449.758 183.426C449.766 183.443 449.773 183.459 449.78 183.473C449.867 183.621 449.921 183.784 449.941 183.954C449.961 184.124 449.945 184.296 449.895 184.459C449.844 184.622 449.76 184.773 449.648 184.902C449.537 185.031 449.399 185.136 449.245 185.209C449.09 185.282 448.922 185.322 448.752 185.327C448.581 185.331 448.411 185.3 448.253 185.236C448.095 185.171 447.952 185.074 447.833 184.951C447.714 184.828 447.623 184.682 447.563 184.522C447.548 184.49 447.53 184.454 447.512 184.417C447.476 184.344 447.438 184.268 447.411 184.209C447.271 183.841 447.151 183.465 447.054 183.084C446.841 182.371 446.56 181.681 446.213 181.022C446.062 180.818 445.837 180.681 445.586 180.641C445.55 180.593 445.462 180.434 445.386 180.299C445.36 180.251 445.335 180.206 445.314 180.17C441.666 181.551 437.637 181.54 433.996 180.14L433.724 180.644C433.524 180.681 433.341 180.778 433.198 180.922C432.78 181.608 432.46 182.35 432.248 183.125C432.151 183.506 432.033 183.882 431.894 184.25C431.866 184.311 431.828 184.388 431.792 184.46C431.774 184.496 431.756 184.531 431.741 184.563C431.682 184.724 431.591 184.871 431.472 184.995C431.353 185.118 431.21 185.216 431.051 185.281C430.893 185.346 430.722 185.377 430.551 185.372C430.38 185.368 430.211 185.327 430.056 185.254C429.901 185.18 429.764 185.075 429.652 184.945C429.54 184.816 429.456 184.664 429.407 184.5C429.357 184.336 429.342 184.163 429.362 183.993C429.383 183.823 429.439 183.659 429.527 183.512C429.544 183.477 429.563 183.436 429.582 183.394C429.617 183.32 429.654 183.241 429.685 183.182C429.886 182.843 430.106 182.515 430.344 182.202C430.777 181.573 431.149 180.905 431.455 180.205C431.488 179.968 431.45 179.727 431.346 179.511L431.569 178.966C428.21 176.986 425.691 173.845 424.489 170.135L423.944 170.227C423.737 170.08 423.493 169.995 423.239 169.979C422.508 170.119 421.792 170.33 421.101 170.609C420.746 170.77 420.383 170.911 420.012 171.031C419.947 171.049 419.86 171.067 419.778 171.084C419.75 171.09 419.722 171.096 419.696 171.101H419.652C419.49 171.154 419.318 171.172 419.148 171.154C418.978 171.137 418.814 171.084 418.666 171C418.517 170.915 418.388 170.801 418.286 170.664C418.184 170.527 418.112 170.37 418.074 170.203C418.036 170.037 418.033 169.864 418.066 169.697C418.098 169.529 418.165 169.37 418.262 169.229C418.359 169.089 418.485 168.97 418.63 168.881C418.776 168.792 418.938 168.734 419.108 168.71H419.127L419.144 168.706C419.242 168.682 419.366 168.652 419.454 168.634C419.844 168.58 420.236 168.548 420.63 168.539C421.373 168.49 422.109 168.368 422.828 168.177C423.042 168.037 423.221 167.851 423.353 167.632L423.868 167.482C423.311 163.612 424.202 159.671 426.371 156.417L425.979 156.066C425.965 155.812 425.88 155.566 425.733 155.358C425.168 154.872 424.557 154.442 423.909 154.075C423.559 153.897 423.22 153.699 422.893 153.482C422.846 153.447 422.79 153.4 422.734 153.354C422.702 153.328 422.67 153.301 422.64 153.277H422.621C422.341 153.077 422.153 152.775 422.096 152.436C422.039 152.097 422.119 151.749 422.318 151.469C422.436 151.325 422.586 151.211 422.755 151.136C422.925 151.061 423.111 151.026 423.296 151.036C423.608 151.049 423.908 151.162 424.151 151.358C424.161 151.365 424.172 151.374 424.183 151.382C424.263 151.444 424.359 151.518 424.424 151.575C424.712 151.845 424.985 152.132 425.241 152.433C425.742 152.984 426.295 153.485 426.894 153.928C427.118 154.047 427.38 154.072 427.623 153.999C427.664 154.022 427.757 154.09 427.855 154.161C427.931 154.216 428.008 154.272 428.067 154.312C430.223 152.021 433.014 150.427 436.082 149.734C436.812 149.569 437.553 149.455 438.299 149.394L438.329 148.874C438.519 148.705 438.657 148.484 438.726 148.239C438.753 147.495 438.708 146.75 438.59 146.014C438.512 145.629 438.455 145.24 438.421 144.849V144.536V144.5C438.404 144.157 438.524 143.822 438.753 143.567ZM437.746 159.084L438.111 152.651C437.674 152.704 437.241 152.78 436.812 152.877C434.515 153.393 432.407 154.541 430.728 156.191L436.003 159.901C436.161 160.012 436.346 160.08 436.539 160.096C436.732 160.113 436.925 160.078 437.1 159.994C437.275 159.911 437.424 159.783 437.533 159.623C437.642 159.463 437.706 159.277 437.719 159.084H437.746ZM448.538 156.191C446.542 154.237 443.958 152.993 441.185 152.651L441.559 159.092C441.571 159.285 441.635 159.472 441.744 159.632C441.853 159.793 442.003 159.922 442.178 160.005C442.353 160.088 442.547 160.123 442.74 160.106C442.934 160.089 443.119 160.021 443.277 159.909H443.296L448.538 156.191ZM433.623 162.902L428.805 158.593V158.596C427.34 160.989 426.714 163.801 427.024 166.589L433.198 164.808V164.786C433.385 164.732 433.554 164.629 433.687 164.488C433.821 164.347 433.914 164.172 433.957 163.983C434.001 163.793 433.993 163.595 433.934 163.41C433.875 163.225 433.768 163.059 433.623 162.929V162.902ZM452.299 166.564C452.568 163.777 451.919 160.979 450.453 158.593L450.461 158.618L445.671 162.904C445.526 163.034 445.419 163.2 445.36 163.386C445.301 163.571 445.293 163.769 445.336 163.958C445.38 164.148 445.473 164.322 445.606 164.463C445.74 164.605 445.909 164.708 446.096 164.762V164.789L452.299 166.564ZM440.633 163.223H438.658L437.427 164.753L437.868 166.66L439.644 167.515L441.417 166.662L441.858 164.756L440.633 163.223ZM445.232 168.49C445.151 168.474 445.068 168.468 444.984 168.471V168.49C444.811 168.5 444.642 168.552 444.492 168.641C444.343 168.73 444.217 168.854 444.125 169.001C444.033 169.149 443.978 169.317 443.964 169.49C443.95 169.664 443.978 169.838 444.045 169.999L446.523 175.99C448.886 174.477 450.678 172.222 451.618 169.579L445.232 168.49ZM434.761 168.637C434.607 168.55 434.434 168.503 434.257 168.498L434.249 168.484C434.178 168.484 434.107 168.49 434.037 168.503L427.705 169.579C428.656 172.208 430.448 174.45 432.803 175.957L435.254 170.028L435.235 170.004C435.303 169.841 435.33 169.663 435.313 169.487C435.297 169.311 435.239 169.142 435.142 168.994C435.046 168.846 434.915 168.723 434.761 168.637ZM440.182 171.24C440.007 171.14 439.808 171.09 439.606 171.096V171.107C439.416 171.114 439.232 171.171 439.071 171.271C438.91 171.371 438.778 171.512 438.688 171.679L435.575 177.308C437.804 178.067 440.2 178.19 442.495 177.665C442.917 177.569 443.333 177.453 443.743 177.316L440.622 171.665H440.597C440.501 171.488 440.357 171.341 440.182 171.24Z" fill="#111827"/>
</g>
<path d="M349.326 162.502L354.941 168.118L349.326 173.733" stroke="#9CA3AF" stroke-width="2" stroke-linecap="round" stroke-linejoin="round"/>
<path d="M354.941 168.118H333.765" stroke="#9CA3AF" stroke-width="2" stroke-linecap="round" stroke-linejoin="round"/>
</g>
<defs>
<filter id="filter0_dd_4665_101828" x="0" y="0.646484" width="513" height="346" filterUnits="userSpaceOnUse" color-interpolation-filters="sRGB">
<feFlood flood-opacity="0" result="BackgroundImageFix"/>
<feColorMatrix in="SourceAlpha" type="matrix" values="0 0 0 0 0 0 0 0 0 0 0 0 0 0 0 0 0 0 127 0" result="hardAlpha"/>
<feOffset dy="2"/>
<feGaussianBlur stdDeviation="8"/>
<feColorMatrix type="matrix" values="0 0 0 0 0.129412 0 0 0 0 0.168627 0 0 0 0 0.211765 0 0 0 0.08 0"/>
<feBlend mode="normal" in2="BackgroundImageFix" result="effect1_dropShadow_4665_101828"/>
<feColorMatrix in="SourceAlpha" type="matrix" values="0 0 0 0 0 0 0 0 0 0 0 0 0 0 0 0 0 0 127 0" result="hardAlpha"/>
<feMorphology radius="1" operator="dilate" in="SourceAlpha" result="effect2_dropShadow_4665_101828"/>
<feOffset/>
<feColorMatrix type="matrix" values="0 0 0 0 0.0235294 0 0 0 0 0.172549 0 0 0 0 0.321569 0 0 0 0.1 0"/>
<feBlend mode="normal" in2="effect1_dropShadow_4665_101828" result="effect2_dropShadow_4665_101828"/>
<feBlend mode="normal" in="SourceGraphic" in2="effect2_dropShadow_4665_101828" result="shape"/>
</filter>
<clipPath id="clip0_4665_101828">
<rect x="41" y="67.6465" width="227.294" height="36" rx="4" fill="white"/>
</clipPath>
<clipPath id="clip1_4665_101828">
<rect x="41" y="151.646" width="227.294" height="36" rx="4" fill="white"/>
</clipPath>
<clipPath id="clip2_4665_101828">
<rect x="41" y="207.646" width="227.294" height="36" rx="4" fill="white"/>
</clipPath>
<clipPath id="clip3_4665_101828">
<rect width="60" height="60" fill="white" transform="translate(409.646 132.824)"/>
</clipPath>
</defs>
</svg>
