<svg width="525" height="301" viewBox="0 0 525 301" fill="none" xmlns="http://www.w3.org/2000/svg">
<g filter="url(#filter0_dd_4663_99729)">
<rect x="17" y="14.5" width="306" height="313" rx="8.5" fill="#F4F4F5"/>
<rect x="17" y="14.5" width="306" height="313" rx="8.5" stroke="#D4D4D8"/>
<path d="M42.6279 56V45.8145H44.4258L48.2607 51.8779C48.3883 52.0785 48.5319 52.3177 48.6914 52.5957C48.8509 52.8737 49.0195 53.1882 49.1973 53.5391C49.375 53.8854 49.5505 54.2637 49.7236 54.6738H49.5322C49.4912 54.2865 49.4593 53.9036 49.4365 53.5254C49.4183 53.1426 49.4046 52.7848 49.3955 52.4521C49.3864 52.1195 49.3818 51.8392 49.3818 51.6113V45.8145H50.9609V56H49.1562L45.7178 50.5791C45.5355 50.2829 45.3555 49.9844 45.1777 49.6836C45.0046 49.3828 44.8109 49.0365 44.5967 48.6445C44.387 48.248 44.1296 47.7673 43.8242 47.2021H44.0703C44.0931 47.7035 44.1159 48.1729 44.1387 48.6104C44.1615 49.0433 44.1774 49.4284 44.1865 49.7656C44.2002 50.0983 44.207 50.3649 44.207 50.5654V56H42.6279ZM55.9443 56.1504C55.3291 56.1504 54.7799 55.9932 54.2969 55.6787C53.8184 55.3597 53.4401 54.9062 53.1621 54.3184C52.8887 53.7259 52.752 53.0195 52.752 52.1992C52.752 51.3698 52.891 50.6611 53.1689 50.0732C53.4515 49.4854 53.8343 49.0365 54.3174 48.7266C54.805 48.4167 55.3542 48.2617 55.9648 48.2617C56.4342 48.2617 56.8125 48.3392 57.0996 48.4941C57.3913 48.6491 57.6169 48.8337 57.7764 49.0479C57.9404 49.2575 58.0658 49.4421 58.1523 49.6016H58.248V48.3574H59.7383V56H58.2549V54.8037H58.1523C58.0658 54.9678 57.9382 55.1569 57.7695 55.3711C57.6009 55.5807 57.3708 55.763 57.0791 55.918C56.7874 56.0729 56.4092 56.1504 55.9443 56.1504ZM56.293 54.8721C56.7214 54.8721 57.0814 54.7581 57.373 54.5303C57.6693 54.3024 57.8926 53.988 58.043 53.5869C58.1934 53.1813 58.2686 52.7142 58.2686 52.1855C58.2686 51.6523 58.1934 51.1898 58.043 50.7979C57.8926 50.4014 57.6693 50.0938 57.373 49.875C57.0814 49.6517 56.7214 49.54 56.293 49.54C55.8509 49.54 55.4818 49.6562 55.1855 49.8887C54.8893 50.1165 54.666 50.431 54.5156 50.832C54.3652 51.2285 54.29 51.6797 54.29 52.1855C54.29 52.6914 54.3652 53.1471 54.5156 53.5527C54.666 53.9583 54.8893 54.2796 55.1855 54.5166C55.4863 54.7536 55.8555 54.8721 56.293 54.8721ZM61.7617 56V48.3574H63.1904L63.2314 50.1279H63.1152C63.2246 49.695 63.3932 49.3395 63.6211 49.0615C63.849 48.7835 64.1156 48.5762 64.4209 48.4395C64.7262 48.2982 65.0452 48.2275 65.3779 48.2275C65.9339 48.2275 66.3828 48.4007 66.7246 48.7471C67.0664 49.0889 67.2965 49.5674 67.415 50.1826H67.2236C67.3239 49.7633 67.4971 49.4079 67.7432 49.1162C67.9893 48.8245 68.2855 48.6035 68.6318 48.4531C68.9827 48.3027 69.3564 48.2275 69.7529 48.2275C70.2041 48.2275 70.612 48.3255 70.9766 48.5215C71.3457 48.7174 71.6374 49.0091 71.8516 49.3965C72.0658 49.7839 72.1729 50.2669 72.1729 50.8457V56H70.6621V50.9961C70.6621 50.4857 70.5208 50.1165 70.2383 49.8887C69.9557 49.6608 69.6208 49.5469 69.2334 49.5469C68.9189 49.5469 68.6478 49.613 68.4199 49.7451C68.1921 49.8773 68.0166 50.0618 67.8936 50.2988C67.7705 50.5312 67.709 50.8001 67.709 51.1055V56H66.2256V50.9004C66.2256 50.4902 66.0934 50.1621 65.8291 49.916C65.5693 49.6699 65.2367 49.5469 64.8311 49.5469C64.5531 49.5469 64.2933 49.613 64.0518 49.7451C63.8148 49.8727 63.6234 50.0641 63.4775 50.3193C63.3363 50.57 63.2656 50.8799 63.2656 51.249V56H61.7617ZM77.498 56.1572C76.7461 56.1572 76.0967 55.9954 75.5498 55.6719C75.0029 55.3483 74.5814 54.8926 74.2852 54.3047C73.9935 53.7168 73.8477 53.0264 73.8477 52.2334C73.8477 51.4495 73.9912 50.7591 74.2783 50.1621C74.57 49.5651 74.9801 49.1003 75.5088 48.7676C76.0374 48.4303 76.6572 48.2617 77.3682 48.2617C77.8057 48.2617 78.2272 48.3346 78.6328 48.4805C79.0384 48.6217 79.403 48.8451 79.7266 49.1504C80.0501 49.4557 80.3053 49.8522 80.4922 50.3398C80.6836 50.8229 80.7793 51.4108 80.7793 52.1035V52.6367H74.6885V51.5156H80.0068L79.3027 51.8848C79.3027 51.4154 79.2298 51.0029 79.084 50.6475C78.9382 50.2874 78.7217 50.0072 78.4346 49.8066C78.152 49.6061 77.7965 49.5059 77.3682 49.5059C76.9443 49.5059 76.582 49.6084 76.2812 49.8135C75.9805 50.0186 75.7503 50.2897 75.5908 50.627C75.4359 50.9596 75.3584 51.3242 75.3584 51.7207V52.4863C75.3584 53.0104 75.4473 53.4548 75.625 53.8193C75.8073 54.1794 76.0602 54.4528 76.3838 54.6396C76.7074 54.8219 77.0833 54.9131 77.5117 54.9131C77.7943 54.9131 78.0495 54.8743 78.2773 54.7969C78.5052 54.7148 78.7012 54.5941 78.8652 54.4346C79.0339 54.2705 79.1615 54.07 79.248 53.833L80.6631 54.168C80.54 54.5599 80.3327 54.9062 80.041 55.207C79.7539 55.5078 79.3939 55.7425 78.9609 55.9111C78.5326 56.0752 78.0449 56.1572 77.498 56.1572Z" fill="#111827"/>
<g clip-path="url(#clip0_4663_99729)">
<rect x="41.5" y="67" width="257" height="36" rx="4" fill="white"/>
<path d="M53.9092 90H51.4482V88.8516H53.8271C54.6566 88.8516 55.3424 88.6943 55.8848 88.3799C56.4316 88.0609 56.8395 87.6051 57.1084 87.0127C57.3773 86.4202 57.5117 85.7116 57.5117 84.8867C57.5117 84.071 57.3773 83.3714 57.1084 82.7881C56.8441 82.2002 56.4476 81.749 55.9189 81.4346C55.3949 81.1201 54.7386 80.9629 53.9502 80.9629H51.3936V79.8145H54.0391C55.0326 79.8145 55.8802 80.0173 56.582 80.4229C57.2884 80.8285 57.8285 81.4118 58.2021 82.1729C58.5804 82.9294 58.7695 83.834 58.7695 84.8867C58.7695 85.9486 58.5804 86.8623 58.2021 87.6279C57.8239 88.389 57.2725 88.9746 56.5479 89.3848C55.8232 89.7949 54.9437 90 53.9092 90ZM52.0293 79.8145V90H50.7305V79.8145H52.0293ZM63.8965 90.1641C63.1582 90.1641 62.5202 90 61.9824 89.6719C61.4492 89.3438 61.0368 88.8857 60.7451 88.2979C60.458 87.71 60.3145 87.0241 60.3145 86.2402C60.3145 85.4564 60.4557 84.766 60.7383 84.1689C61.0208 83.5719 61.4196 83.1048 61.9346 82.7676C62.4541 82.4303 63.0602 82.2617 63.7529 82.2617C64.1585 82.2617 64.5573 82.3301 64.9492 82.4668C65.3457 82.599 65.7035 82.8154 66.0225 83.1162C66.346 83.4124 66.6035 83.8044 66.7949 84.292C66.9863 84.7796 67.082 85.3766 67.082 86.083V86.5957H61.1484V85.5566H66.4189L65.8447 85.9395C65.8447 85.4382 65.765 84.9938 65.6055 84.6064C65.4505 84.2145 65.2181 83.9092 64.9082 83.6904C64.5983 83.4671 64.2132 83.3555 63.7529 83.3555C63.2926 83.3555 62.8984 83.4694 62.5703 83.6973C62.2422 83.9206 61.9915 84.2145 61.8184 84.5791C61.6452 84.9391 61.5586 85.3265 61.5586 85.7412V86.4316C61.5586 86.9967 61.6566 87.4775 61.8525 87.874C62.0485 88.266 62.3219 88.5645 62.6729 88.7695C63.0283 88.9701 63.4385 89.0703 63.9033 89.0703C64.2041 89.0703 64.4775 89.027 64.7236 88.9404C64.9697 88.8538 65.1816 88.724 65.3594 88.5508C65.5371 88.373 65.6738 88.1543 65.7695 87.8945L66.959 88.2227C66.8405 88.6055 66.64 88.9427 66.3574 89.2344C66.0749 89.526 65.724 89.7539 65.3047 89.918C64.89 90.082 64.4206 90.1641 63.8965 90.1641ZM70.7803 90L67.8613 82.3574H69.208L70.835 86.8896C71.0081 87.359 71.154 87.8285 71.2725 88.2979C71.3955 88.7627 71.5231 89.2139 71.6553 89.6514H71.2041C71.3363 89.2139 71.4616 88.7627 71.5801 88.2979C71.7031 87.8285 71.849 87.359 72.0176 86.8896L73.6445 82.3574H74.9912L72.0723 90H70.7803ZM83.4951 90.1641C82.8024 90.1641 82.194 90 81.6699 89.6719C81.1504 89.3438 80.7448 88.8835 80.4531 88.291C80.1615 87.6986 80.0156 87.0104 80.0156 86.2266C80.0156 85.429 80.1615 84.734 80.4531 84.1416C80.7448 83.5446 81.1504 83.082 81.6699 82.7539C82.194 82.4258 82.8024 82.2617 83.4951 82.2617C83.8643 82.2617 84.2129 82.3096 84.541 82.4053C84.8691 82.501 85.1676 82.64 85.4365 82.8223C85.71 83 85.9447 83.221 86.1406 83.4854C86.3366 83.7451 86.487 84.0413 86.5918 84.374L85.4092 84.709C85.3545 84.513 85.2702 84.333 85.1562 84.1689C85.0423 84.0049 84.9033 83.8636 84.7393 83.7451C84.5798 83.6221 84.3952 83.5286 84.1855 83.4648C83.9759 83.3965 83.7458 83.3623 83.4951 83.3623C82.9847 83.3623 82.5654 83.4967 82.2373 83.7656C81.9092 84.0299 81.6654 84.3786 81.5059 84.8115C81.3464 85.2445 81.2666 85.7161 81.2666 86.2266C81.2666 86.7279 81.3464 87.195 81.5059 87.6279C81.6654 88.0563 81.9092 88.4027 82.2373 88.667C82.5654 88.9313 82.9847 89.0635 83.4951 89.0635C83.7503 89.0635 83.985 89.0293 84.1992 88.9609C84.4134 88.8926 84.6025 88.7969 84.7666 88.6738C84.9352 88.5462 85.0765 88.3958 85.1904 88.2227C85.3044 88.0495 85.3887 87.8604 85.4434 87.6553L86.6191 87.9902C86.5189 88.332 86.3685 88.6374 86.168 88.9062C85.972 89.1706 85.7373 89.3984 85.4639 89.5898C85.1904 89.7767 84.8874 89.918 84.5547 90.0137C84.222 90.1139 83.8688 90.1641 83.4951 90.1641ZM89.6133 79.8145V90H88.3828V79.8145H89.6133ZM94.3643 90.0957C93.8493 90.0957 93.3958 89.9909 93.0039 89.7812C92.6165 89.5671 92.3135 89.2458 92.0947 88.8174C91.8805 88.389 91.7734 87.8535 91.7734 87.2109V82.3574H93.0039V87.1084C93.0039 87.6963 93.1589 88.1566 93.4688 88.4893C93.7786 88.8219 94.2002 88.9883 94.7334 88.9883C95.098 88.9883 95.4238 88.9085 95.7109 88.749C96.0026 88.5895 96.2327 88.3571 96.4014 88.0518C96.57 87.7419 96.6543 87.3704 96.6543 86.9375V82.3574H97.8916V90H96.7021V88.1475H96.8662C96.6292 88.863 96.292 89.3665 95.8545 89.6582C95.4215 89.9499 94.9248 90.0957 94.3643 90.0957ZM102.656 90.1641C102.132 90.1641 101.665 90.0889 101.255 89.9385C100.849 89.7835 100.514 89.5557 100.25 89.2549C99.9857 88.9541 99.8079 88.585 99.7168 88.1475L100.886 87.8672C100.995 88.2865 101.2 88.5941 101.501 88.79C101.806 88.986 102.187 89.084 102.643 89.084C103.176 89.084 103.6 88.9701 103.914 88.7422C104.233 88.5143 104.393 88.2432 104.393 87.9287C104.393 87.6644 104.299 87.4456 104.112 87.2725C103.93 87.0947 103.65 86.9626 103.271 86.876L102 86.5752C101.307 86.4111 100.792 86.1582 100.455 85.8164C100.118 85.4701 99.9492 85.028 99.9492 84.4902C99.9492 84.0527 100.072 83.6676 100.318 83.335C100.564 82.9977 100.899 82.7357 101.323 82.5488C101.752 82.3574 102.237 82.2617 102.779 82.2617C103.303 82.2617 103.748 82.3415 104.112 82.501C104.481 82.6559 104.78 82.8724 105.008 83.1504C105.24 83.4238 105.413 83.7406 105.527 84.1006L104.413 84.3877C104.308 84.1143 104.133 83.8659 103.887 83.6426C103.645 83.4193 103.278 83.3076 102.786 83.3076C102.33 83.3076 101.95 83.4124 101.645 83.6221C101.344 83.8317 101.193 84.096 101.193 84.415C101.193 84.6976 101.296 84.9255 101.501 85.0986C101.706 85.2673 102.032 85.404 102.479 85.5088L103.634 85.7822C104.326 85.9463 104.839 86.2015 105.172 86.5479C105.505 86.8896 105.671 87.3226 105.671 87.8467C105.671 88.2933 105.543 88.6921 105.288 89.043C105.037 89.3893 104.684 89.6628 104.229 89.8633C103.777 90.0638 103.253 90.1641 102.656 90.1641ZM110.463 82.3574V83.4102H106.512V82.3574H110.463ZM107.66 80.5391H108.891V88.0176C108.891 88.3594 108.959 88.61 109.096 88.7695C109.237 88.9245 109.469 89.002 109.793 89.002C109.87 89.002 109.968 88.9928 110.087 88.9746C110.21 88.9564 110.322 88.9382 110.422 88.9199L110.675 89.959C110.547 90.0046 110.401 90.0387 110.237 90.0615C110.078 90.0843 109.918 90.0957 109.759 90.0957C109.098 90.0957 108.583 89.9225 108.214 89.5762C107.845 89.2253 107.66 88.7376 107.66 88.1133V80.5391ZM115.111 90.1641C114.373 90.1641 113.735 90 113.197 89.6719C112.664 89.3438 112.252 88.8857 111.96 88.2979C111.673 87.71 111.529 87.0241 111.529 86.2402C111.529 85.4564 111.671 84.766 111.953 84.1689C112.236 83.5719 112.634 83.1048 113.149 82.7676C113.669 82.4303 114.275 82.2617 114.968 82.2617C115.373 82.2617 115.772 82.3301 116.164 82.4668C116.561 82.599 116.918 82.8154 117.237 83.1162C117.561 83.4124 117.818 83.8044 118.01 84.292C118.201 84.7796 118.297 85.3766 118.297 86.083V86.5957H112.363V85.5566H117.634L117.06 85.9395C117.06 85.4382 116.98 84.9938 116.82 84.6064C116.665 84.2145 116.433 83.9092 116.123 83.6904C115.813 83.4671 115.428 83.3555 114.968 83.3555C114.507 83.3555 114.113 83.4694 113.785 83.6973C113.457 83.9206 113.206 84.2145 113.033 84.5791C112.86 84.9391 112.773 85.3265 112.773 85.7412V86.4316C112.773 86.9967 112.871 87.4775 113.067 87.874C113.263 88.266 113.537 88.5645 113.888 88.7695C114.243 88.9701 114.653 89.0703 115.118 89.0703C115.419 89.0703 115.692 89.027 115.938 88.9404C116.185 88.8538 116.396 88.724 116.574 88.5508C116.752 88.373 116.889 88.1543 116.984 87.8945L118.174 88.2227C118.055 88.6055 117.855 88.9427 117.572 89.2344C117.29 89.526 116.939 89.7539 116.52 89.918C116.105 90.082 115.635 90.1641 115.111 90.1641ZM120.061 90V82.3574H121.25V83.5332H121.332C121.473 83.1458 121.724 82.8359 122.084 82.6035C122.449 82.3665 122.859 82.248 123.314 82.248C123.406 82.248 123.513 82.2503 123.636 82.2549C123.763 82.2594 123.864 82.264 123.937 82.2686V83.5059C123.9 83.4967 123.809 83.4831 123.663 83.4648C123.517 83.4466 123.362 83.4375 123.198 83.4375C122.834 83.4375 122.506 83.515 122.214 83.6699C121.927 83.8203 121.701 84.0299 121.537 84.2988C121.373 84.5632 121.291 84.8685 121.291 85.2148V90H120.061ZM132.536 90.1367C131.871 90.1367 131.281 90.0228 130.766 89.7949C130.251 89.5671 129.84 89.2503 129.535 88.8447C129.234 88.4391 129.073 87.9674 129.05 87.4297H130.362C130.39 87.7533 130.499 88.0335 130.69 88.2705C130.886 88.5029 131.142 88.6829 131.456 88.8105C131.775 88.9336 132.128 88.9951 132.516 88.9951C132.944 88.9951 133.322 88.9222 133.65 88.7764C133.983 88.626 134.245 88.4163 134.437 88.1475C134.628 87.8786 134.724 87.5687 134.724 87.2178C134.724 86.8486 134.63 86.5251 134.443 86.2471C134.261 85.9645 133.994 85.7435 133.644 85.584C133.293 85.4245 132.864 85.3447 132.358 85.3447H131.531V84.2168H132.358C132.755 84.2168 133.104 84.1462 133.404 84.0049C133.71 83.859 133.947 83.6562 134.115 83.3965C134.284 83.1367 134.368 82.8314 134.368 82.4805C134.368 82.1432 134.293 81.8493 134.143 81.5986C133.997 81.348 133.787 81.1543 133.514 81.0176C133.24 80.8763 132.919 80.8057 132.55 80.8057C132.203 80.8057 131.878 80.8695 131.572 80.9971C131.271 81.1201 131.023 81.2979 130.827 81.5303C130.636 81.7627 130.533 82.0452 130.52 82.3779H129.269C129.287 81.8447 129.446 81.3753 129.747 80.9697C130.048 80.5641 130.444 80.2474 130.937 80.0195C131.433 79.7917 131.98 79.6777 132.577 79.6777C133.211 79.6777 133.755 79.8053 134.211 80.0605C134.671 80.3158 135.024 80.6507 135.271 81.0654C135.517 81.4801 135.64 81.929 135.64 82.4121C135.64 82.9863 135.487 83.474 135.182 83.875C134.881 84.276 134.471 84.554 133.951 84.709V84.791C134.384 84.8594 134.753 85.0052 135.059 85.2285C135.368 85.4518 135.603 85.7344 135.763 86.0762C135.927 86.418 136.009 86.8031 136.009 87.2314C136.009 87.7874 135.858 88.2842 135.558 88.7217C135.257 89.1592 134.844 89.5055 134.32 89.7607C133.796 90.0114 133.201 90.1367 132.536 90.1367Z" fill="#111827"/>
</g>
<rect x="41.5" y="67" width="257" height="36" rx="4" stroke="#E4E4E7"/>
<path d="M42.6279 140V129.814H44.4258L48.2607 135.878C48.3883 136.078 48.5319 136.318 48.6914 136.596C48.8509 136.874 49.0195 137.188 49.1973 137.539C49.375 137.885 49.5505 138.264 49.7236 138.674H49.5322C49.4912 138.286 49.4593 137.904 49.4365 137.525C49.4183 137.143 49.4046 136.785 49.3955 136.452C49.3864 136.119 49.3818 135.839 49.3818 135.611V129.814H50.9609V140H49.1562L45.7178 134.579C45.5355 134.283 45.3555 133.984 45.1777 133.684C45.0046 133.383 44.8109 133.036 44.5967 132.645C44.387 132.248 44.1296 131.767 43.8242 131.202H44.0703C44.0931 131.703 44.1159 132.173 44.1387 132.61C44.1615 133.043 44.1774 133.428 44.1865 133.766C44.2002 134.098 44.207 134.365 44.207 134.565V140H42.6279ZM56.3203 140.157C55.6048 140.157 54.9782 139.993 54.4404 139.665C53.9072 139.337 53.4925 138.877 53.1963 138.284C52.9001 137.692 52.752 137.004 52.752 136.22C52.752 135.427 52.9001 134.734 53.1963 134.142C53.4925 133.545 53.9072 133.082 54.4404 132.754C54.9782 132.426 55.6048 132.262 56.3203 132.262C57.0404 132.262 57.667 132.426 58.2002 132.754C58.738 133.082 59.1549 133.545 59.4512 134.142C59.7474 134.734 59.8955 135.427 59.8955 136.22C59.8955 137.004 59.7474 137.692 59.4512 138.284C59.1549 138.877 58.738 139.337 58.2002 139.665C57.667 139.993 57.0404 140.157 56.3203 140.157ZM56.3203 138.886C56.7852 138.886 57.168 138.765 57.4688 138.523C57.7741 138.277 57.9997 137.954 58.1455 137.553C58.2959 137.147 58.3711 136.703 58.3711 136.22C58.3711 135.732 58.2959 135.285 58.1455 134.88C57.9997 134.47 57.7741 134.144 57.4688 133.902C57.168 133.656 56.7852 133.533 56.3203 133.533C55.86 133.533 55.4795 133.656 55.1787 133.902C54.8779 134.144 54.6523 134.467 54.502 134.873C54.3561 135.279 54.2832 135.728 54.2832 136.22C54.2832 136.703 54.3561 137.147 54.502 137.553C54.6523 137.954 54.8779 138.277 55.1787 138.523C55.4795 138.765 55.86 138.886 56.3203 138.886ZM64.4141 140.15C63.7943 140.15 63.2428 139.993 62.7598 139.679C62.2767 139.36 61.8984 138.906 61.625 138.318C61.3516 137.726 61.2148 137.02 61.2148 136.199C61.2148 135.37 61.3538 134.661 61.6318 134.073C61.9098 133.485 62.2904 133.036 62.7734 132.727C63.2565 132.417 63.8034 132.262 64.4141 132.262C64.888 132.262 65.2686 132.341 65.5557 132.501C65.8473 132.656 66.0752 132.838 66.2393 133.048C66.4033 133.257 66.5286 133.442 66.6152 133.602H66.6973V129.814H68.2012V140H66.7383V138.804H66.6152C66.5286 138.968 66.401 139.155 66.2324 139.364C66.0638 139.574 65.8337 139.758 65.542 139.918C65.2503 140.073 64.8743 140.15 64.4141 140.15ZM64.7422 138.872C65.1706 138.872 65.5306 138.758 65.8223 138.53C66.1185 138.302 66.3418 137.988 66.4922 137.587C66.6471 137.181 66.7246 136.714 66.7246 136.186C66.7246 135.652 66.6494 135.19 66.499 134.798C66.3486 134.401 66.1253 134.094 65.8291 133.875C65.5374 133.652 65.1751 133.54 64.7422 133.54C64.3001 133.54 63.931 133.656 63.6348 133.889C63.3431 134.121 63.1221 134.438 62.9717 134.839C62.8258 135.235 62.7529 135.684 62.7529 136.186C62.7529 136.691 62.8281 137.147 62.9785 137.553C63.1289 137.958 63.3522 138.28 63.6484 138.517C63.9447 138.754 64.3092 138.872 64.7422 138.872ZM73.5195 140.157C72.7676 140.157 72.1182 139.995 71.5713 139.672C71.0244 139.348 70.6029 138.893 70.3066 138.305C70.015 137.717 69.8691 137.026 69.8691 136.233C69.8691 135.45 70.0127 134.759 70.2998 134.162C70.5915 133.565 71.0016 133.1 71.5303 132.768C72.0589 132.43 72.6787 132.262 73.3896 132.262C73.8271 132.262 74.2487 132.335 74.6543 132.48C75.0599 132.622 75.4245 132.845 75.748 133.15C76.0716 133.456 76.3268 133.852 76.5137 134.34C76.7051 134.823 76.8008 135.411 76.8008 136.104V136.637H70.71V135.516H76.0283L75.3242 135.885C75.3242 135.415 75.2513 135.003 75.1055 134.647C74.9596 134.287 74.7432 134.007 74.4561 133.807C74.1735 133.606 73.818 133.506 73.3896 133.506C72.9658 133.506 72.6035 133.608 72.3027 133.813C72.002 134.019 71.7718 134.29 71.6123 134.627C71.4574 134.96 71.3799 135.324 71.3799 135.721V136.486C71.3799 137.01 71.4688 137.455 71.6465 137.819C71.8288 138.179 72.0817 138.453 72.4053 138.64C72.7288 138.822 73.1048 138.913 73.5332 138.913C73.8158 138.913 74.071 138.874 74.2988 138.797C74.5267 138.715 74.7227 138.594 74.8867 138.435C75.0553 138.271 75.1829 138.07 75.2695 137.833L76.6846 138.168C76.5615 138.56 76.3542 138.906 76.0625 139.207C75.7754 139.508 75.4154 139.743 74.9824 139.911C74.554 140.075 74.0664 140.157 73.5195 140.157ZM78.4551 142.857V132.357H79.918V133.602H80.041C80.1322 133.442 80.2575 133.257 80.417 133.048C80.5811 132.838 80.8066 132.656 81.0938 132.501C81.3854 132.341 81.7705 132.262 82.249 132.262C82.8597 132.262 83.4043 132.417 83.8828 132.727C84.3659 133.036 84.7464 133.485 85.0244 134.073C85.3024 134.661 85.4414 135.37 85.4414 136.199C85.4414 137.02 85.3047 137.726 85.0312 138.318C84.7578 138.906 84.3796 139.36 83.8965 139.679C83.418 139.993 82.8688 140.15 82.249 140.15C81.7887 140.15 81.4105 140.073 81.1143 139.918C80.8226 139.758 80.5924 139.574 80.4238 139.364C80.2598 139.155 80.1322 138.968 80.041 138.804H79.959V142.857H78.4551ZM81.9141 138.872C82.3516 138.872 82.7184 138.754 83.0146 138.517C83.3109 138.28 83.5319 137.958 83.6777 137.553C83.8281 137.147 83.9033 136.691 83.9033 136.186C83.9033 135.684 83.8281 135.235 83.6777 134.839C83.5319 134.438 83.3109 134.121 83.0146 133.889C82.723 133.656 82.3561 133.54 81.9141 133.54C81.4857 133.54 81.1234 133.652 80.8271 133.875C80.5309 134.094 80.3076 134.401 80.1572 134.798C80.0068 135.19 79.9316 135.652 79.9316 136.186C79.9316 136.714 80.0068 137.181 80.1572 137.587C80.3122 137.988 80.5378 138.302 80.834 138.53C81.1302 138.758 81.4902 138.872 81.9141 138.872ZM90.3223 140.157C89.6068 140.157 88.9801 139.993 88.4424 139.665C87.9092 139.337 87.4945 138.877 87.1982 138.284C86.902 137.692 86.7539 137.004 86.7539 136.22C86.7539 135.427 86.902 134.734 87.1982 134.142C87.4945 133.545 87.9092 133.082 88.4424 132.754C88.9801 132.426 89.6068 132.262 90.3223 132.262C91.0423 132.262 91.6689 132.426 92.2021 132.754C92.7399 133.082 93.1569 133.545 93.4531 134.142C93.7493 134.734 93.8975 135.427 93.8975 136.22C93.8975 137.004 93.7493 137.692 93.4531 138.284C93.1569 138.877 92.7399 139.337 92.2021 139.665C91.6689 139.993 91.0423 140.157 90.3223 140.157ZM90.3223 138.886C90.7871 138.886 91.1699 138.765 91.4707 138.523C91.776 138.277 92.0016 137.954 92.1475 137.553C92.2979 137.147 92.373 136.703 92.373 136.22C92.373 135.732 92.2979 135.285 92.1475 134.88C92.0016 134.47 91.776 134.144 91.4707 133.902C91.1699 133.656 90.7871 133.533 90.3223 133.533C89.862 133.533 89.4814 133.656 89.1807 133.902C88.8799 134.144 88.6543 134.467 88.5039 134.873C88.3581 135.279 88.2852 135.728 88.2852 136.22C88.2852 136.703 88.3581 137.147 88.5039 137.553C88.6543 137.954 88.8799 138.277 89.1807 138.523C89.4814 138.765 89.862 138.886 90.3223 138.886ZM98.7852 140.157C98.0697 140.157 97.443 139.993 96.9053 139.665C96.3721 139.337 95.9574 138.877 95.6611 138.284C95.3649 137.692 95.2168 137.004 95.2168 136.22C95.2168 135.427 95.3649 134.734 95.6611 134.142C95.9574 133.545 96.3721 133.082 96.9053 132.754C97.443 132.426 98.0697 132.262 98.7852 132.262C99.5052 132.262 100.132 132.426 100.665 132.754C101.203 133.082 101.62 133.545 101.916 134.142C102.212 134.734 102.36 135.427 102.36 136.22C102.36 137.004 102.212 137.692 101.916 138.284C101.62 138.877 101.203 139.337 100.665 139.665C100.132 139.993 99.5052 140.157 98.7852 140.157ZM98.7852 138.886C99.25 138.886 99.6328 138.765 99.9336 138.523C100.239 138.277 100.465 137.954 100.61 137.553C100.761 137.147 100.836 136.703 100.836 136.22C100.836 135.732 100.761 135.285 100.61 134.88C100.465 134.47 100.239 134.144 99.9336 133.902C99.6328 133.656 99.25 133.533 98.7852 133.533C98.3249 133.533 97.9443 133.656 97.6436 133.902C97.3428 134.144 97.1172 134.467 96.9668 134.873C96.821 135.279 96.748 135.728 96.748 136.22C96.748 136.703 96.821 137.147 96.9668 137.553C97.1172 137.954 97.3428 138.277 97.6436 138.523C97.9443 138.765 98.3249 138.886 98.7852 138.886ZM105.539 129.814V140H104.035V129.814H105.539ZM114.966 129.814V140H113.421V131.229H113.353L110.933 132.993V131.428L113.161 129.814H114.966Z" fill="#111827"/>
<g clip-path="url(#clip1_4663_99729)">
<rect x="41.5" y="151" width="257" height="36" rx="4" fill="white"/>
<path d="M50.7305 174V163.814H52.5762L55.085 170.24C55.1442 170.391 55.2103 170.58 55.2832 170.808C55.3607 171.031 55.4404 171.275 55.5225 171.539C55.609 171.803 55.6911 172.068 55.7686 172.332C55.846 172.592 55.9144 172.833 55.9736 173.057H55.6865C55.7503 172.847 55.821 172.615 55.8984 172.359C55.9759 172.1 56.0557 171.838 56.1377 171.573C56.2243 171.304 56.3063 171.054 56.3838 170.821C56.4613 170.589 56.5296 170.395 56.5889 170.24L59.0635 163.814H60.916V174H59.6377V168.183C59.6377 167.973 59.6377 167.734 59.6377 167.465C59.6423 167.196 59.6468 166.913 59.6514 166.617C59.6605 166.321 59.6673 166.02 59.6719 165.715C59.681 165.41 59.6878 165.113 59.6924 164.826H59.8018C59.7061 165.141 59.6035 165.462 59.4941 165.79C59.3893 166.114 59.2845 166.428 59.1797 166.733C59.0794 167.034 58.9837 167.31 58.8926 167.561C58.8014 167.811 58.724 168.019 58.6602 168.183L56.3838 174H55.2559L52.9453 168.183C52.8815 168.023 52.8063 167.823 52.7197 167.581C52.6331 167.335 52.5374 167.064 52.4326 166.768C52.3324 166.467 52.2275 166.152 52.1182 165.824C52.0088 165.492 51.8971 165.159 51.7832 164.826H51.9062C51.9154 165.081 51.9222 165.357 51.9268 165.653C51.9359 165.95 51.9427 166.25 51.9473 166.556C51.9518 166.856 51.9564 167.148 51.9609 167.431C51.9655 167.709 51.9678 167.959 51.9678 168.183V174H50.7305ZM63.2266 174V166.357H64.457V174H63.2266ZM63.8486 165.106C63.6162 165.106 63.4157 165.027 63.2471 164.867C63.0785 164.708 62.9941 164.516 62.9941 164.293C62.9941 164.065 63.0785 163.874 63.2471 163.719C63.4157 163.559 63.6162 163.479 63.8486 163.479C64.0856 163.479 64.2884 163.559 64.457 163.719C64.6257 163.874 64.71 164.065 64.71 164.293C64.71 164.516 64.6257 164.708 64.457 164.867C64.2884 165.027 64.0856 165.106 63.8486 165.106ZM67.8477 169.42V174H66.6172V166.357H67.7998L67.8066 168.21H67.6357C67.8682 167.504 68.1986 167.002 68.627 166.706C69.0599 166.41 69.5658 166.262 70.1445 166.262C70.6595 166.262 71.1107 166.369 71.498 166.583C71.8854 166.793 72.1862 167.112 72.4004 167.54C72.6191 167.964 72.7285 168.499 72.7285 169.146V174H71.498V169.249C71.498 168.661 71.3431 168.201 71.0332 167.868C70.7279 167.535 70.3086 167.369 69.7754 167.369C69.4108 167.369 69.0827 167.449 68.791 167.608C68.4993 167.768 68.2692 168 68.1006 168.306C67.932 168.611 67.8477 168.982 67.8477 169.42ZM78.7988 174V173.063L82.1826 169.393C82.5609 168.982 82.8753 168.622 83.126 168.312C83.3766 168.003 83.5658 167.709 83.6934 167.431C83.821 167.148 83.8848 166.85 83.8848 166.535C83.8848 166.18 83.8005 165.872 83.6318 165.612C83.4632 165.353 83.2354 165.154 82.9482 165.018C82.6611 164.876 82.3353 164.806 81.9707 164.806C81.5833 164.806 81.2461 164.885 80.959 165.045C80.6764 165.2 80.4577 165.421 80.3027 165.708C80.1478 165.991 80.0703 166.323 80.0703 166.706H78.8262C78.8262 166.104 78.9652 165.576 79.2432 165.12C79.5212 164.664 79.8994 164.311 80.3779 164.061C80.8564 163.805 81.3988 163.678 82.0049 163.678C82.611 163.678 83.1465 163.805 83.6113 164.061C84.0807 164.311 84.4476 164.651 84.7119 165.079C84.9808 165.507 85.1152 165.988 85.1152 166.521C85.1152 166.891 85.0492 167.251 84.917 167.602C84.7848 167.948 84.5524 168.342 84.2197 168.784C83.887 169.226 83.4199 169.766 82.8184 170.404L80.5898 172.776V172.858H85.2861V174H78.7988ZM92.5391 169.42V174H91.3086V166.357H92.4912L92.498 168.21H92.3271C92.5596 167.504 92.89 167.002 93.3184 166.706C93.7513 166.41 94.2572 166.262 94.8359 166.262C95.3509 166.262 95.8021 166.369 96.1895 166.583C96.5768 166.793 96.8776 167.112 97.0918 167.54C97.3105 167.964 97.4199 168.499 97.4199 169.146V174H96.1895V169.249C96.1895 168.661 96.0345 168.201 95.7246 167.868C95.4193 167.535 95 167.369 94.4668 167.369C94.1022 167.369 93.7741 167.449 93.4824 167.608C93.1908 167.768 92.9606 168 92.792 168.306C92.6234 168.611 92.5391 168.982 92.5391 169.42ZM102.69 174.164C101.998 174.164 101.389 174 100.865 173.672C100.346 173.344 99.9401 172.883 99.6484 172.291C99.3568 171.699 99.2109 171.01 99.2109 170.227C99.2109 169.429 99.3568 168.734 99.6484 168.142C99.9401 167.545 100.346 167.082 100.865 166.754C101.389 166.426 101.998 166.262 102.69 166.262C103.388 166.262 103.998 166.426 104.522 166.754C105.047 167.082 105.454 167.545 105.746 168.142C106.038 168.734 106.184 169.429 106.184 170.227C106.184 171.01 106.038 171.699 105.746 172.291C105.454 172.883 105.047 173.344 104.522 173.672C103.998 174 103.388 174.164 102.69 174.164ZM102.69 173.063C103.205 173.063 103.629 172.931 103.962 172.667C104.295 172.403 104.541 172.056 104.7 171.628C104.86 171.195 104.939 170.728 104.939 170.227C104.939 169.721 104.86 169.251 104.7 168.818C104.541 168.381 104.295 168.03 103.962 167.766C103.629 167.497 103.205 167.362 102.69 167.362C102.18 167.362 101.761 167.497 101.433 167.766C101.104 168.03 100.861 168.379 100.701 168.812C100.542 169.244 100.462 169.716 100.462 170.227C100.462 170.728 100.542 171.195 100.701 171.628C100.861 172.056 101.104 172.403 101.433 172.667C101.761 172.931 102.18 173.063 102.69 173.063ZM110.839 174.164C110.205 174.164 109.645 174.002 109.157 173.679C108.67 173.355 108.289 172.897 108.016 172.305C107.742 171.712 107.605 171.01 107.605 170.199C107.605 169.393 107.742 168.695 108.016 168.107C108.294 167.515 108.676 167.059 109.164 166.74C109.652 166.421 110.212 166.262 110.846 166.262C111.342 166.262 111.737 166.344 112.028 166.508C112.32 166.672 112.543 166.859 112.698 167.068C112.858 167.273 112.979 167.444 113.061 167.581H113.156V163.814H114.387V174H113.197V172.817H113.061C112.979 172.959 112.855 173.136 112.691 173.351C112.532 173.56 112.304 173.749 112.008 173.918C111.716 174.082 111.326 174.164 110.839 174.164ZM111.023 173.063C111.488 173.063 111.88 172.943 112.199 172.701C112.518 172.455 112.76 172.116 112.924 171.683C113.088 171.25 113.17 170.751 113.17 170.186C113.17 169.62 113.088 169.128 112.924 168.709C112.764 168.285 112.525 167.955 112.206 167.718C111.887 167.481 111.493 167.362 111.023 167.362C110.54 167.362 110.137 167.488 109.813 167.738C109.494 167.989 109.255 168.328 109.096 168.757C108.936 169.181 108.856 169.657 108.856 170.186C108.856 170.719 108.936 171.204 109.096 171.642C109.26 172.075 109.504 172.421 109.827 172.681C110.151 172.936 110.549 173.063 111.023 173.063ZM119.76 174.164C119.021 174.164 118.383 174 117.846 173.672C117.312 173.344 116.9 172.886 116.608 172.298C116.321 171.71 116.178 171.024 116.178 170.24C116.178 169.456 116.319 168.766 116.602 168.169C116.884 167.572 117.283 167.105 117.798 166.768C118.317 166.43 118.924 166.262 119.616 166.262C120.022 166.262 120.421 166.33 120.812 166.467C121.209 166.599 121.567 166.815 121.886 167.116C122.209 167.412 122.467 167.804 122.658 168.292C122.85 168.78 122.945 169.377 122.945 170.083V170.596H117.012V169.557H122.282L121.708 169.939C121.708 169.438 121.628 168.994 121.469 168.606C121.314 168.215 121.081 167.909 120.771 167.69C120.462 167.467 120.076 167.355 119.616 167.355C119.156 167.355 118.762 167.469 118.434 167.697C118.105 167.921 117.855 168.215 117.682 168.579C117.508 168.939 117.422 169.326 117.422 169.741V170.432C117.422 170.997 117.52 171.478 117.716 171.874C117.912 172.266 118.185 172.564 118.536 172.77C118.892 172.97 119.302 173.07 119.767 173.07C120.067 173.07 120.341 173.027 120.587 172.94C120.833 172.854 121.045 172.724 121.223 172.551C121.4 172.373 121.537 172.154 121.633 171.895L122.822 172.223C122.704 172.605 122.503 172.943 122.221 173.234C121.938 173.526 121.587 173.754 121.168 173.918C120.753 174.082 120.284 174.164 119.76 174.164ZM127.307 174.164C126.783 174.164 126.315 174.089 125.905 173.938C125.5 173.784 125.165 173.556 124.9 173.255C124.636 172.954 124.458 172.585 124.367 172.147L125.536 171.867C125.646 172.286 125.851 172.594 126.151 172.79C126.457 172.986 126.837 173.084 127.293 173.084C127.826 173.084 128.25 172.97 128.564 172.742C128.883 172.514 129.043 172.243 129.043 171.929C129.043 171.664 128.95 171.446 128.763 171.272C128.58 171.095 128.3 170.963 127.922 170.876L126.65 170.575C125.958 170.411 125.443 170.158 125.105 169.816C124.768 169.47 124.6 169.028 124.6 168.49C124.6 168.053 124.723 167.668 124.969 167.335C125.215 166.998 125.55 166.736 125.974 166.549C126.402 166.357 126.887 166.262 127.43 166.262C127.954 166.262 128.398 166.341 128.763 166.501C129.132 166.656 129.43 166.872 129.658 167.15C129.891 167.424 130.064 167.741 130.178 168.101L129.063 168.388C128.959 168.114 128.783 167.866 128.537 167.643C128.296 167.419 127.929 167.308 127.437 167.308C126.981 167.308 126.6 167.412 126.295 167.622C125.994 167.832 125.844 168.096 125.844 168.415C125.844 168.698 125.946 168.925 126.151 169.099C126.356 169.267 126.682 169.404 127.129 169.509L128.284 169.782C128.977 169.946 129.49 170.201 129.822 170.548C130.155 170.89 130.321 171.323 130.321 171.847C130.321 172.293 130.194 172.692 129.938 173.043C129.688 173.389 129.335 173.663 128.879 173.863C128.428 174.064 127.904 174.164 127.307 174.164Z" fill="#9CA3AF"/>
</g>
<rect x="41.5" y="151" width="257" height="36" rx="4" stroke="#E4E4E7"/>
<g clip-path="url(#clip2_4663_99729)">
<rect x="41.5" y="207" width="257" height="36" rx="4" fill="white"/>
<path d="M50.7305 230V219.814H52.5762L55.085 226.24C55.1442 226.391 55.2103 226.58 55.2832 226.808C55.3607 227.031 55.4404 227.275 55.5225 227.539C55.609 227.803 55.6911 228.068 55.7686 228.332C55.846 228.592 55.9144 228.833 55.9736 229.057H55.6865C55.7503 228.847 55.821 228.615 55.8984 228.359C55.9759 228.1 56.0557 227.838 56.1377 227.573C56.2243 227.304 56.3063 227.054 56.3838 226.821C56.4613 226.589 56.5296 226.395 56.5889 226.24L59.0635 219.814H60.916V230H59.6377V224.183C59.6377 223.973 59.6377 223.734 59.6377 223.465C59.6423 223.196 59.6468 222.913 59.6514 222.617C59.6605 222.321 59.6673 222.02 59.6719 221.715C59.681 221.41 59.6878 221.113 59.6924 220.826H59.8018C59.7061 221.141 59.6035 221.462 59.4941 221.79C59.3893 222.114 59.2845 222.428 59.1797 222.733C59.0794 223.034 58.9837 223.31 58.8926 223.561C58.8014 223.811 58.724 224.019 58.6602 224.183L56.3838 230H55.2559L52.9453 224.183C52.8815 224.023 52.8063 223.823 52.7197 223.581C52.6331 223.335 52.5374 223.064 52.4326 222.768C52.3324 222.467 52.2275 222.152 52.1182 221.824C52.0088 221.492 51.8971 221.159 51.7832 220.826H51.9062C51.9154 221.081 51.9222 221.357 51.9268 221.653C51.9359 221.95 51.9427 222.25 51.9473 222.556C51.9518 222.856 51.9564 223.148 51.9609 223.431C51.9655 223.709 51.9678 223.959 51.9678 224.183V230H50.7305ZM66.084 230.164C65.4551 230.164 64.8968 230.002 64.4092 229.679C63.9261 229.355 63.5456 228.897 63.2676 228.305C62.9941 227.712 62.8574 227.01 62.8574 226.199C62.8574 225.393 62.9964 224.695 63.2744 224.107C63.5524 223.515 63.9352 223.059 64.4229 222.74C64.915 222.421 65.4779 222.262 66.1113 222.262C66.6035 222.262 66.9954 222.344 67.2871 222.508C67.5788 222.667 67.8021 222.852 67.957 223.062C68.112 223.271 68.2305 223.444 68.3125 223.581H68.415V222.357H69.6387V230H68.4219V228.817H68.3125C68.2305 228.959 68.1074 229.136 67.9434 229.351C67.7839 229.565 67.556 229.754 67.2598 229.918C66.9635 230.082 66.5716 230.164 66.084 230.164ZM66.2891 229.063C66.7539 229.063 67.1458 228.943 67.4648 228.701C67.7839 228.455 68.0254 228.116 68.1895 227.683C68.3535 227.25 68.4355 226.751 68.4355 226.186C68.4355 225.62 68.3535 225.128 68.1895 224.709C68.0299 224.285 67.7907 223.955 67.4717 223.718C67.1527 223.481 66.7585 223.362 66.2891 223.362C65.806 223.362 65.4027 223.488 65.0791 223.738C64.7555 223.984 64.5117 224.322 64.3477 224.75C64.1882 225.174 64.1084 225.652 64.1084 226.186C64.1084 226.719 64.1904 227.204 64.3545 227.642C64.5186 228.075 64.7624 228.421 65.0859 228.681C65.4095 228.936 65.8105 229.063 66.2891 229.063ZM71.1631 230L74.1777 225.604L74.1709 226.548L71.3203 222.357H72.7559L73.7061 223.841C73.9521 224.224 74.1641 224.581 74.3418 224.914C74.5241 225.247 74.7109 225.568 74.9023 225.878H74.2598C74.4557 225.568 74.6335 225.247 74.793 224.914C74.957 224.581 75.1644 224.224 75.415 223.841L76.3857 222.357H77.7939L74.9297 226.603V225.693L77.917 230H76.4883L75.3672 228.284C75.1257 227.91 74.916 227.564 74.7383 227.245C74.5651 226.922 74.3851 226.612 74.1982 226.315H74.8477C74.6608 226.612 74.4876 226.922 74.3281 227.245C74.1686 227.564 73.9658 227.91 73.7197 228.284L72.585 230H71.1631ZM86.5781 230.137C85.9811 230.137 85.4456 230.021 84.9717 229.788C84.4977 229.551 84.1195 229.23 83.8369 228.824C83.5544 228.414 83.4017 227.949 83.3789 227.43H84.6367C84.6641 227.73 84.7666 227.999 84.9443 228.236C85.1221 228.473 85.3522 228.66 85.6348 228.797C85.9219 228.929 86.2363 228.995 86.5781 228.995C86.9883 228.995 87.3529 228.899 87.6719 228.708C87.9954 228.517 88.2484 228.252 88.4307 227.915C88.613 227.578 88.7041 227.195 88.7041 226.767C88.7041 226.329 88.6084 225.937 88.417 225.591C88.2256 225.244 87.9635 224.973 87.6309 224.777C87.3027 224.577 86.9245 224.477 86.4961 224.477C86.1816 224.477 85.8626 224.527 85.5391 224.627C85.2155 224.727 84.9535 224.855 84.7529 225.01L83.5361 224.859L84.1377 219.814H89.4971V220.956H85.2314L84.8828 223.93H84.9375C85.1471 223.757 85.4115 223.615 85.7305 223.506C86.0495 223.392 86.3844 223.335 86.7354 223.335C87.2002 223.335 87.6286 223.419 88.0205 223.588C88.417 223.757 88.7611 223.996 89.0527 224.306C89.3444 224.611 89.57 224.971 89.7295 225.386C89.8936 225.8 89.9756 226.254 89.9756 226.746C89.9756 227.398 89.8275 227.979 89.5312 228.489C89.2396 229 88.8385 229.403 88.3281 229.699C87.8177 229.991 87.2344 230.137 86.5781 230.137ZM97.0645 225.42V230H95.834V222.357H97.0166L97.0234 224.21H96.8525C97.085 223.504 97.4154 223.002 97.8438 222.706C98.2767 222.41 98.7826 222.262 99.3613 222.262C99.8763 222.262 100.327 222.369 100.715 222.583C101.102 222.793 101.403 223.112 101.617 223.54C101.836 223.964 101.945 224.499 101.945 225.146V230H100.715V225.249C100.715 224.661 100.56 224.201 100.25 223.868C99.9447 223.535 99.5254 223.369 98.9922 223.369C98.6276 223.369 98.2995 223.449 98.0078 223.608C97.7161 223.768 97.486 224 97.3174 224.306C97.1488 224.611 97.0645 224.982 97.0645 225.42ZM107.216 230.164C106.523 230.164 105.915 230 105.391 229.672C104.871 229.344 104.465 228.883 104.174 228.291C103.882 227.699 103.736 227.01 103.736 226.227C103.736 225.429 103.882 224.734 104.174 224.142C104.465 223.545 104.871 223.082 105.391 222.754C105.915 222.426 106.523 222.262 107.216 222.262C107.913 222.262 108.524 222.426 109.048 222.754C109.572 223.082 109.98 223.545 110.271 224.142C110.563 224.734 110.709 225.429 110.709 226.227C110.709 227.01 110.563 227.699 110.271 228.291C109.98 228.883 109.572 229.344 109.048 229.672C108.524 230 107.913 230.164 107.216 230.164ZM107.216 229.063C107.731 229.063 108.155 228.931 108.487 228.667C108.82 228.403 109.066 228.056 109.226 227.628C109.385 227.195 109.465 226.728 109.465 226.227C109.465 225.721 109.385 225.251 109.226 224.818C109.066 224.381 108.82 224.03 108.487 223.766C108.155 223.497 107.731 223.362 107.216 223.362C106.705 223.362 106.286 223.497 105.958 223.766C105.63 224.03 105.386 224.379 105.227 224.812C105.067 225.244 104.987 225.716 104.987 226.227C104.987 226.728 105.067 227.195 105.227 227.628C105.386 228.056 105.63 228.403 105.958 228.667C106.286 228.931 106.705 229.063 107.216 229.063ZM115.364 230.164C114.731 230.164 114.17 230.002 113.683 229.679C113.195 229.355 112.814 228.897 112.541 228.305C112.268 227.712 112.131 227.01 112.131 226.199C112.131 225.393 112.268 224.695 112.541 224.107C112.819 223.515 113.202 223.059 113.689 222.74C114.177 222.421 114.738 222.262 115.371 222.262C115.868 222.262 116.262 222.344 116.554 222.508C116.845 222.672 117.069 222.859 117.224 223.068C117.383 223.273 117.504 223.444 117.586 223.581H117.682V219.814H118.912V230H117.723V228.817H117.586C117.504 228.959 117.381 229.136 117.217 229.351C117.057 229.56 116.829 229.749 116.533 229.918C116.242 230.082 115.852 230.164 115.364 230.164ZM115.549 229.063C116.014 229.063 116.406 228.943 116.725 228.701C117.044 228.455 117.285 228.116 117.449 227.683C117.613 227.25 117.695 226.751 117.695 226.186C117.695 225.62 117.613 225.128 117.449 224.709C117.29 224.285 117.05 223.955 116.731 223.718C116.412 223.481 116.018 223.362 115.549 223.362C115.066 223.362 114.662 223.488 114.339 223.738C114.02 223.989 113.781 224.328 113.621 224.757C113.462 225.181 113.382 225.657 113.382 226.186C113.382 226.719 113.462 227.204 113.621 227.642C113.785 228.075 114.029 228.421 114.353 228.681C114.676 228.936 115.075 229.063 115.549 229.063ZM124.285 230.164C123.547 230.164 122.909 230 122.371 229.672C121.838 229.344 121.425 228.886 121.134 228.298C120.847 227.71 120.703 227.024 120.703 226.24C120.703 225.456 120.844 224.766 121.127 224.169C121.41 223.572 121.808 223.105 122.323 222.768C122.843 222.43 123.449 222.262 124.142 222.262C124.547 222.262 124.946 222.33 125.338 222.467C125.734 222.599 126.092 222.815 126.411 223.116C126.735 223.412 126.992 223.804 127.184 224.292C127.375 224.78 127.471 225.377 127.471 226.083V226.596H121.537V225.557H126.808L126.233 225.939C126.233 225.438 126.154 224.994 125.994 224.606C125.839 224.215 125.607 223.909 125.297 223.69C124.987 223.467 124.602 223.355 124.142 223.355C123.681 223.355 123.287 223.469 122.959 223.697C122.631 223.921 122.38 224.215 122.207 224.579C122.034 224.939 121.947 225.326 121.947 225.741V226.432C121.947 226.997 122.045 227.478 122.241 227.874C122.437 228.266 122.711 228.564 123.062 228.77C123.417 228.97 123.827 229.07 124.292 229.07C124.593 229.07 124.866 229.027 125.112 228.94C125.358 228.854 125.57 228.724 125.748 228.551C125.926 228.373 126.062 228.154 126.158 227.895L127.348 228.223C127.229 228.605 127.029 228.943 126.746 229.234C126.464 229.526 126.113 229.754 125.693 229.918C125.279 230.082 124.809 230.164 124.285 230.164ZM131.832 230.164C131.308 230.164 130.841 230.089 130.431 229.938C130.025 229.784 129.69 229.556 129.426 229.255C129.161 228.954 128.984 228.585 128.893 228.147L130.062 227.867C130.171 228.286 130.376 228.594 130.677 228.79C130.982 228.986 131.363 229.084 131.818 229.084C132.352 229.084 132.775 228.97 133.09 228.742C133.409 228.514 133.568 228.243 133.568 227.929C133.568 227.664 133.475 227.446 133.288 227.272C133.106 227.095 132.826 226.963 132.447 226.876L131.176 226.575C130.483 226.411 129.968 226.158 129.631 225.816C129.294 225.47 129.125 225.028 129.125 224.49C129.125 224.053 129.248 223.668 129.494 223.335C129.74 222.998 130.075 222.736 130.499 222.549C130.927 222.357 131.413 222.262 131.955 222.262C132.479 222.262 132.924 222.341 133.288 222.501C133.657 222.656 133.956 222.872 134.184 223.15C134.416 223.424 134.589 223.741 134.703 224.101L133.589 224.388C133.484 224.114 133.309 223.866 133.062 223.643C132.821 223.419 132.454 223.308 131.962 223.308C131.506 223.308 131.126 223.412 130.82 223.622C130.52 223.832 130.369 224.096 130.369 224.415C130.369 224.698 130.472 224.925 130.677 225.099C130.882 225.267 131.208 225.404 131.654 225.509L132.81 225.782C133.502 225.946 134.015 226.201 134.348 226.548C134.68 226.89 134.847 227.323 134.847 227.847C134.847 228.293 134.719 228.692 134.464 229.043C134.213 229.389 133.86 229.663 133.404 229.863C132.953 230.064 132.429 230.164 131.832 230.164Z" fill="#9CA3AF"/>
</g>
<rect x="41.5" y="207" width="257" height="36" rx="4" stroke="#E4E4E7"/>
<rect x="41.5" y="263" width="257" height="40" rx="4" fill="#3B82F6"/>
<rect x="41.5" y="263" width="257" height="40" rx="4" stroke="#2563EB"/>
<path d="M150.117 289.156C149.102 289.156 148.198 288.917 147.406 288.438C146.615 287.958 145.99 287.273 145.531 286.383C145.078 285.487 144.852 284.422 144.852 283.188C144.852 281.948 145.078 280.883 145.531 279.992C145.99 279.096 146.615 278.409 147.406 277.93C148.203 277.445 149.107 277.203 150.117 277.203C150.732 277.203 151.31 277.292 151.852 277.469C152.393 277.646 152.875 277.906 153.297 278.25C153.724 278.589 154.078 279 154.359 279.484C154.641 279.969 154.831 280.521 154.93 281.141H153.141C153.062 280.766 152.932 280.435 152.75 280.148C152.568 279.862 152.341 279.62 152.07 279.422C151.805 279.219 151.508 279.068 151.18 278.969C150.852 278.87 150.503 278.82 150.133 278.82C149.456 278.82 148.852 278.99 148.32 279.328C147.789 279.667 147.372 280.161 147.07 280.812C146.768 281.464 146.617 282.255 146.617 283.188C146.617 284.12 146.768 284.911 147.07 285.562C147.378 286.208 147.797 286.701 148.328 287.039C148.859 287.372 149.461 287.539 150.133 287.539C150.497 287.539 150.844 287.49 151.172 287.391C151.505 287.286 151.805 287.135 152.07 286.938C152.341 286.74 152.568 286.497 152.75 286.211C152.938 285.924 153.068 285.594 153.141 285.219H154.93C154.841 285.802 154.661 286.333 154.391 286.812C154.12 287.292 153.771 287.708 153.344 288.062C152.922 288.411 152.438 288.682 151.891 288.875C151.349 289.062 150.758 289.156 150.117 289.156ZM156.852 289V280.32H158.5V281.711H158.586C158.747 281.242 159.023 280.875 159.414 280.609C159.81 280.339 160.266 280.203 160.781 280.203C160.891 280.203 161.013 280.208 161.148 280.219C161.289 280.224 161.404 280.232 161.492 280.242V281.867C161.43 281.852 161.31 281.833 161.133 281.812C160.956 281.792 160.776 281.781 160.594 281.781C160.208 281.781 159.859 281.865 159.547 282.031C159.24 282.193 158.997 282.422 158.82 282.719C158.648 283.01 158.562 283.352 158.562 283.742V289H156.852ZM166.414 289.18C165.56 289.18 164.823 288.995 164.203 288.625C163.583 288.255 163.107 287.737 162.773 287.07C162.44 286.398 162.273 285.615 162.273 284.719C162.273 283.828 162.438 283.044 162.766 282.367C163.099 281.69 163.565 281.161 164.164 280.781C164.768 280.396 165.471 280.203 166.273 280.203C166.784 280.203 167.271 280.286 167.734 280.453C168.203 280.62 168.62 280.88 168.984 281.234C169.349 281.589 169.638 282.042 169.852 282.594C170.065 283.146 170.172 283.807 170.172 284.578V285.172H163.211V283.891H169.289L168.492 284.312C168.492 283.781 168.406 283.312 168.234 282.906C168.068 282.5 167.82 282.185 167.492 281.961C167.169 281.732 166.766 281.617 166.281 281.617C165.797 281.617 165.383 281.734 165.039 281.969C164.701 282.198 164.44 282.505 164.258 282.891C164.076 283.271 163.984 283.69 163.984 284.148V285C163.984 285.589 164.086 286.091 164.289 286.508C164.492 286.919 164.776 287.232 165.141 287.445C165.51 287.659 165.94 287.766 166.43 287.766C166.758 287.766 167.052 287.719 167.312 287.625C167.578 287.531 167.805 287.391 167.992 287.203C168.18 287.016 168.323 286.786 168.422 286.516L170.031 286.859C169.901 287.318 169.669 287.721 169.336 288.07C169.003 288.419 168.589 288.693 168.094 288.891C167.599 289.083 167.039 289.18 166.414 289.18ZM175.234 289.172C174.536 289.172 173.911 288.992 173.359 288.633C172.812 288.268 172.383 287.75 172.07 287.078C171.758 286.406 171.602 285.607 171.602 284.68C171.602 283.742 171.76 282.94 172.078 282.273C172.396 281.602 172.831 281.089 173.383 280.734C173.935 280.38 174.56 280.203 175.258 280.203C175.779 280.203 176.203 280.289 176.531 280.461C176.865 280.628 177.128 280.831 177.32 281.07C177.513 281.305 177.661 281.521 177.766 281.719H177.859V280.32H179.562V289H177.875V287.648H177.766C177.661 287.846 177.508 288.065 177.305 288.305C177.107 288.544 176.841 288.75 176.508 288.922C176.174 289.089 175.75 289.172 175.234 289.172ZM175.633 287.711C176.117 287.711 176.529 287.583 176.867 287.328C177.206 287.073 177.461 286.716 177.633 286.258C177.81 285.799 177.898 285.268 177.898 284.664C177.898 284.06 177.81 283.534 177.633 283.086C177.461 282.638 177.206 282.289 176.867 282.039C176.534 281.789 176.122 281.664 175.633 281.664C175.133 281.664 174.714 281.794 174.375 282.055C174.036 282.31 173.781 282.664 173.609 283.117C173.438 283.565 173.352 284.081 173.352 284.664C173.352 285.247 173.438 285.768 173.609 286.227C173.786 286.685 174.044 287.047 174.383 287.312C174.721 287.578 175.138 287.711 175.633 287.711ZM185.602 280.32V281.711H180.859V280.32H185.602ZM182.148 278.219H183.859V286.656C183.859 287.005 183.932 287.26 184.078 287.422C184.224 287.578 184.466 287.656 184.805 287.656C184.898 287.656 185.018 287.648 185.164 287.633C185.31 287.612 185.435 287.591 185.539 287.57L185.812 288.945C185.635 289.003 185.443 289.042 185.234 289.062C185.026 289.089 184.823 289.102 184.625 289.102C183.833 289.102 183.221 288.904 182.789 288.508C182.362 288.107 182.148 287.539 182.148 286.805V278.219ZM190.836 289.18C189.982 289.18 189.245 288.995 188.625 288.625C188.005 288.255 187.529 287.737 187.195 287.07C186.862 286.398 186.695 285.615 186.695 284.719C186.695 283.828 186.859 283.044 187.188 282.367C187.521 281.69 187.987 281.161 188.586 280.781C189.19 280.396 189.893 280.203 190.695 280.203C191.206 280.203 191.693 280.286 192.156 280.453C192.625 280.62 193.042 280.88 193.406 281.234C193.771 281.589 194.06 282.042 194.273 282.594C194.487 283.146 194.594 283.807 194.594 284.578V285.172H187.633V283.891H193.711L192.914 284.312C192.914 283.781 192.828 283.312 192.656 282.906C192.49 282.5 192.242 282.185 191.914 281.961C191.591 281.732 191.188 281.617 190.703 281.617C190.219 281.617 189.805 281.734 189.461 281.969C189.122 282.198 188.862 282.505 188.68 282.891C188.497 283.271 188.406 283.69 188.406 284.148V285C188.406 285.589 188.508 286.091 188.711 286.508C188.914 286.919 189.198 287.232 189.562 287.445C189.932 287.659 190.362 287.766 190.852 287.766C191.18 287.766 191.474 287.719 191.734 287.625C192 287.531 192.227 287.391 192.414 287.203C192.602 287.016 192.745 286.786 192.844 286.516L194.453 286.859C194.323 287.318 194.091 287.721 193.758 288.07C193.424 288.419 193.01 288.693 192.516 288.891C192.021 289.083 191.461 289.18 190.836 289.18Z" fill="white"/>
<path d="M371.136 160.636L377.5 167L371.136 173.364" stroke="#9CA3AF" stroke-width="2" stroke-linecap="round" stroke-linejoin="round"/>
<path d="M377.5 167H353.5" stroke="#9CA3AF" stroke-width="2" stroke-linecap="round" stroke-linejoin="round"/>
<rect x="409" y="117.5" width="99" height="99" rx="3.5" fill="white"/>
<rect x="409" y="117.5" width="99" height="99" rx="3.5" stroke="#E4E4E7"/>
<g clip-path="url(#clip3_4663_99729)">
<path fill-rule="evenodd" clip-rule="evenodd" d="M458.934 137.708C458.66 137.576 458.341 137.576 458.066 137.708L434.753 148.935C434.478 149.067 434.279 149.317 434.212 149.614L428.454 174.841C428.386 175.138 428.457 175.449 428.647 175.687L444.78 195.918C444.97 196.156 445.258 196.295 445.562 196.295H471.438C471.743 196.295 472.03 196.156 472.22 195.918L488.354 175.687C488.544 175.449 488.615 175.138 488.547 174.841L482.789 149.614C482.721 149.317 482.522 149.067 482.248 148.935L458.934 137.708ZM457.606 147.743C457.836 147.488 458.157 147.334 458.5 147.315L458.503 147.307C458.846 147.326 459.167 147.48 459.396 147.735C459.626 147.99 459.745 148.326 459.728 148.668V149.017C459.694 149.408 459.638 149.798 459.559 150.183C459.441 150.918 459.395 151.663 459.421 152.407C459.469 152.656 459.612 152.876 459.821 153.02C459.822 153.039 459.824 153.067 459.827 153.101C459.836 153.227 459.851 153.436 459.851 153.565C463.728 153.917 467.345 155.665 470.031 158.483L470.496 158.151C470.747 158.194 471.004 158.165 471.24 158.069C471.838 157.626 472.391 157.125 472.893 156.574C473.148 156.273 473.421 155.986 473.71 155.716C473.786 155.651 473.898 155.564 473.982 155.498C474.103 155.37 474.25 155.269 474.414 155.202C474.577 155.135 474.753 155.104 474.929 155.111C475.106 155.118 475.279 155.163 475.437 155.242C475.594 155.322 475.733 155.434 475.843 155.572C475.954 155.71 476.033 155.87 476.077 156.041C476.12 156.212 476.126 156.391 476.094 156.564C476.063 156.738 475.994 156.903 475.893 157.048C475.793 157.193 475.662 157.315 475.51 157.405C475.485 157.424 475.459 157.446 475.432 157.468C475.365 157.523 475.294 157.582 475.237 157.623C474.91 157.84 474.57 158.038 474.219 158.216C473.57 158.583 472.959 159.013 472.394 159.499C472.229 159.691 472.146 159.941 472.163 160.193L471.727 160.583C473.902 163.825 474.811 167.752 474.282 171.62L474.777 171.765C474.899 171.992 475.082 172.181 475.306 172.309C476.025 172.501 476.761 172.623 477.503 172.672C477.897 172.681 478.29 172.713 478.68 172.767C478.746 172.779 478.83 172.8 478.91 172.82C478.955 172.832 478.998 172.842 479.036 172.851C479.206 172.874 479.368 172.932 479.514 173.022C479.659 173.111 479.785 173.23 479.882 173.37C479.979 173.511 480.046 173.67 480.078 173.837C480.111 174.005 480.108 174.178 480.07 174.344C480.032 174.511 479.96 174.668 479.858 174.805C479.756 174.942 479.627 175.056 479.479 175.141C479.33 175.225 479.166 175.278 478.996 175.295C478.826 175.313 478.654 175.295 478.492 175.242H478.448C478.415 175.235 478.378 175.228 478.341 175.22C478.268 175.206 478.192 175.191 478.132 175.174C477.761 175.053 477.398 174.912 477.043 174.749C476.353 174.471 475.637 174.26 474.905 174.12C474.652 174.112 474.406 174.203 474.219 174.374C474.132 174.355 473.854 174.305 473.696 174.281C472.507 178.014 469.987 181.18 466.615 183.175C466.673 183.345 466.741 183.51 466.82 183.671C466.694 183.89 466.66 184.151 466.724 184.395C467.023 185.078 467.388 185.73 467.814 186.342C468.052 186.655 468.272 186.982 468.473 187.32C468.514 187.396 468.568 187.51 468.611 187.603C468.619 187.619 468.626 187.635 468.633 187.65C468.72 187.797 468.775 187.961 468.794 188.13C468.814 188.3 468.798 188.472 468.748 188.635C468.697 188.799 468.614 188.949 468.502 189.079C468.39 189.208 468.252 189.312 468.098 189.385C467.944 189.458 467.776 189.498 467.605 189.503C467.434 189.507 467.264 189.476 467.106 189.412C466.948 189.347 466.805 189.25 466.686 189.128C466.568 189.005 466.476 188.858 466.417 188.698C466.401 188.666 466.383 188.63 466.365 188.593C466.329 188.521 466.291 188.444 466.264 188.385C466.124 188.017 466.005 187.642 465.907 187.26C465.695 186.547 465.413 185.857 465.066 185.199C464.915 184.994 464.69 184.858 464.44 184.817C464.403 184.769 464.315 184.61 464.239 184.475C464.213 184.427 464.188 184.382 464.167 184.346C460.519 185.727 456.49 185.717 452.849 184.316L452.577 184.82C452.377 184.857 452.194 184.954 452.051 185.098C451.633 185.784 451.313 186.526 451.101 187.301C451.005 187.682 450.886 188.058 450.747 188.426C450.72 188.488 450.681 188.564 450.645 188.636C450.627 188.672 450.61 188.707 450.594 188.739C450.536 188.9 450.444 189.047 450.325 189.171C450.207 189.294 450.063 189.392 449.905 189.457C449.746 189.522 449.576 189.553 449.404 189.549C449.233 189.544 449.064 189.504 448.91 189.43C448.755 189.357 448.617 189.252 448.505 189.122C448.393 188.992 448.31 188.84 448.26 188.676C448.21 188.512 448.195 188.339 448.216 188.169C448.236 187.999 448.292 187.835 448.38 187.688C448.397 187.653 448.416 187.613 448.436 187.571C448.47 187.496 448.507 187.417 448.538 187.358C448.739 187.019 448.959 186.692 449.197 186.378C449.63 185.749 450.002 185.081 450.308 184.382C450.341 184.145 450.303 183.903 450.199 183.687L450.423 183.143C447.063 181.163 444.544 178.021 443.342 174.311L442.798 174.404C442.59 174.257 442.346 174.171 442.092 174.156C441.361 174.295 440.645 174.506 439.954 174.785C439.6 174.946 439.236 175.087 438.865 175.207C438.8 175.225 438.713 175.243 438.631 175.26C438.603 175.266 438.575 175.272 438.549 175.278H438.506C438.343 175.33 438.171 175.348 438.002 175.331C437.832 175.313 437.667 175.261 437.519 175.176C437.37 175.092 437.241 174.977 437.139 174.84C437.038 174.703 436.965 174.546 436.927 174.38C436.889 174.213 436.887 174.041 436.919 173.873C436.951 173.705 437.018 173.546 437.116 173.406C437.213 173.265 437.338 173.147 437.484 173.057C437.629 172.968 437.792 172.91 437.961 172.887H437.98L437.997 172.882C438.096 172.859 438.219 172.828 438.307 172.81C438.697 172.756 439.09 172.724 439.483 172.715C440.226 172.666 440.962 172.545 441.681 172.353C441.895 172.213 442.075 172.027 442.207 171.808L442.721 171.658C442.164 167.788 443.055 163.848 445.224 160.594L444.832 160.242C444.818 159.988 444.733 159.743 444.587 159.534C444.022 159.048 443.411 158.619 442.762 158.252C442.412 158.073 442.073 157.875 441.746 157.658C441.7 157.623 441.643 157.577 441.587 157.53C441.555 157.504 441.523 157.478 441.493 157.454H441.474C441.195 157.254 441.006 156.951 440.949 156.612C440.893 156.273 440.973 155.926 441.172 155.645C441.289 155.502 441.439 155.387 441.609 155.312C441.779 155.237 441.964 155.203 442.149 155.212C442.461 155.225 442.761 155.338 443.004 155.534C443.015 155.542 443.025 155.55 443.036 155.558C443.116 155.62 443.212 155.694 443.277 155.752C443.565 156.022 443.838 156.308 444.094 156.609C444.595 157.16 445.149 157.661 445.747 158.105C445.971 158.223 446.234 158.248 446.477 158.175C446.517 158.199 446.61 158.266 446.709 158.338C446.784 158.392 446.862 158.448 446.921 158.489C449.076 156.198 451.867 154.604 454.935 153.911C455.665 153.745 456.406 153.632 457.152 153.57L457.182 153.05C457.372 152.881 457.51 152.661 457.58 152.416C457.607 151.671 457.561 150.926 457.443 150.191C457.365 149.806 457.308 149.417 457.275 149.025V148.712V148.677C457.257 148.334 457.377 147.998 457.606 147.743ZM456.599 163.26L456.964 156.827C456.528 156.881 456.094 156.956 455.665 157.053C453.368 157.57 451.261 158.718 449.581 160.368L454.856 164.077C455.014 164.188 455.199 164.256 455.392 164.273C455.585 164.289 455.779 164.254 455.953 164.171C456.128 164.088 456.278 163.959 456.386 163.799C456.495 163.639 456.559 163.453 456.572 163.26H456.599ZM467.392 160.368C465.395 158.413 462.812 157.169 460.039 156.827L460.412 163.268C460.424 163.462 460.488 163.648 460.597 163.809C460.706 163.969 460.856 164.098 461.031 164.181C461.206 164.264 461.401 164.299 461.594 164.282C461.787 164.266 461.972 164.197 462.13 164.085H462.149L467.392 160.368ZM452.476 167.078L447.659 162.77V162.772C446.194 165.165 445.567 167.977 445.878 170.765L452.051 168.984V168.962C452.238 168.908 452.407 168.805 452.54 168.664C452.674 168.523 452.767 168.348 452.811 168.159C452.854 167.969 452.846 167.772 452.787 167.586C452.728 167.401 452.621 167.235 452.476 167.105V167.078ZM471.153 170.741C471.421 167.954 470.773 165.155 469.306 162.77L469.314 162.794L464.524 167.081C464.379 167.21 464.272 167.377 464.213 167.562C464.154 167.747 464.146 167.945 464.19 168.134C464.233 168.324 464.326 168.498 464.46 168.64C464.593 168.781 464.762 168.884 464.949 168.938V168.965L471.153 170.741ZM459.486 167.399H457.511L456.281 168.93L456.722 170.836L458.497 171.691L460.27 170.839L460.711 168.932L459.486 167.399ZM464.086 172.666C464.004 172.65 463.921 172.644 463.838 172.647V172.666C463.664 172.676 463.495 172.728 463.346 172.817C463.196 172.906 463.07 173.03 462.978 173.178C462.886 173.325 462.831 173.493 462.817 173.666C462.803 173.84 462.831 174.014 462.898 174.175L465.376 180.166C467.739 178.653 469.531 176.398 470.472 173.755L464.086 172.666ZM453.614 172.813C453.46 172.726 453.287 172.679 453.111 172.674L453.102 172.661C453.031 172.66 452.96 172.666 452.89 172.68L446.558 173.755C447.509 176.385 449.301 178.627 451.656 180.133L454.107 174.205L454.088 174.18C454.156 174.017 454.183 173.84 454.167 173.664C454.151 173.488 454.092 173.318 453.996 173.17C453.899 173.022 453.769 172.899 453.614 172.813ZM459.036 175.416C458.86 175.316 458.661 175.266 458.459 175.272V175.283C458.27 175.29 458.085 175.347 457.924 175.447C457.763 175.547 457.631 175.688 457.541 175.855L454.429 181.484C456.658 182.243 459.054 182.367 461.349 181.841C461.77 181.746 462.186 181.629 462.596 181.492L459.475 175.841H459.45C459.354 175.664 459.211 175.517 459.036 175.416Z" fill="#111827"/>
</g>
</g>
<defs>
<filter id="filter0_dd_4663_99729" x="0.5" y="0" width="524" height="346" filterUnits="userSpaceOnUse" color-interpolation-filters="sRGB">
<feFlood flood-opacity="0" result="BackgroundImageFix"/>
<feColorMatrix in="SourceAlpha" type="matrix" values="0 0 0 0 0 0 0 0 0 0 0 0 0 0 0 0 0 0 127 0" result="hardAlpha"/>
<feOffset dy="2"/>
<feGaussianBlur stdDeviation="8"/>
<feColorMatrix type="matrix" values="0 0 0 0 0.129412 0 0 0 0 0.168627 0 0 0 0 0.211765 0 0 0 0.08 0"/>
<feBlend mode="normal" in2="BackgroundImageFix" result="effect1_dropShadow_4663_99729"/>
<feColorMatrix in="SourceAlpha" type="matrix" values="0 0 0 0 0 0 0 0 0 0 0 0 0 0 0 0 0 0 127 0" result="hardAlpha"/>
<feMorphology radius="1" operator="dilate" in="SourceAlpha" result="effect2_dropShadow_4663_99729"/>
<feOffset/>
<feColorMatrix type="matrix" values="0 0 0 0 0.0235294 0 0 0 0 0.172549 0 0 0 0 0.321569 0 0 0 0.1 0"/>
<feBlend mode="normal" in2="effect1_dropShadow_4663_99729" result="effect2_dropShadow_4663_99729"/>
<feBlend mode="normal" in="SourceGraphic" in2="effect2_dropShadow_4663_99729" result="shape"/>
</filter>
<clipPath id="clip0_4663_99729">
<rect x="41.5" y="67" width="257" height="36" rx="4" fill="white"/>
</clipPath>
<clipPath id="clip1_4663_99729">
<rect x="41.5" y="151" width="257" height="36" rx="4" fill="white"/>
</clipPath>
<clipPath id="clip2_4663_99729">
<rect x="41.5" y="207" width="257" height="36" rx="4" fill="white"/>
</clipPath>
<clipPath id="clip3_4663_99729">
<rect width="60" height="60" fill="white" transform="translate(428.5 137)"/>
</clipPath>
</defs>
</svg>
