<svg width="633" height="314" viewBox="0 0 633 314" fill="none" xmlns="http://www.w3.org/2000/svg">
<g filter="url(#filter0_dd_4660_96300)">
<rect x="16.5" y="15.4785" width="348.955" height="313" rx="8.5" fill="#F4F4F5"/>
<rect x="16.5" y="15.4785" width="348.955" height="313" rx="8.5" stroke="#D4D4D8"/>
<path d="M42.1279 56.9785V46.793H43.9258L47.7607 52.8564C47.8883 53.057 48.0319 53.2962 48.1914 53.5742C48.3509 53.8522 48.5195 54.1667 48.6973 54.5176C48.875 54.8639 49.0505 55.2422 49.2236 55.6523H49.0322C48.9912 55.265 48.9593 54.8822 48.9365 54.5039C48.9183 54.1211 48.9046 53.7633 48.8955 53.4307C48.8864 53.098 48.8818 52.8177 48.8818 52.5898V46.793H50.4609V56.9785H48.6562L45.2178 51.5576C45.0355 51.2614 44.8555 50.9629 44.6777 50.6621C44.5046 50.3613 44.3109 50.015 44.0967 49.623C43.887 49.2266 43.6296 48.7458 43.3242 48.1807H43.5703C43.5931 48.682 43.6159 49.1514 43.6387 49.5889C43.6615 50.0218 43.6774 50.4069 43.6865 50.7441C43.7002 51.0768 43.707 51.3434 43.707 51.5439V56.9785H42.1279ZM55.4443 57.1289C54.8291 57.1289 54.2799 56.9717 53.7969 56.6572C53.3184 56.3382 52.9401 55.8848 52.6621 55.2969C52.3887 54.7044 52.252 53.998 52.252 53.1777C52.252 52.3483 52.391 51.6396 52.6689 51.0518C52.9515 50.4639 53.3343 50.015 53.8174 49.7051C54.305 49.3952 54.8542 49.2402 55.4648 49.2402C55.9342 49.2402 56.3125 49.3177 56.5996 49.4727C56.8913 49.6276 57.1169 49.8122 57.2764 50.0264C57.4404 50.236 57.5658 50.4206 57.6523 50.5801H57.748V49.3359H59.2383V56.9785H57.7549V55.7822H57.6523C57.5658 55.9463 57.4382 56.1354 57.2695 56.3496C57.1009 56.5592 56.8708 56.7415 56.5791 56.8965C56.2874 57.0514 55.9092 57.1289 55.4443 57.1289ZM55.793 55.8506C56.2214 55.8506 56.5814 55.7367 56.873 55.5088C57.1693 55.2809 57.3926 54.9665 57.543 54.5654C57.6934 54.1598 57.7686 53.6927 57.7686 53.1641C57.7686 52.6309 57.6934 52.1683 57.543 51.7764C57.3926 51.3799 57.1693 51.0723 56.873 50.8535C56.5814 50.6302 56.2214 50.5186 55.793 50.5186C55.3509 50.5186 54.9818 50.6348 54.6855 50.8672C54.3893 51.0951 54.166 51.4095 54.0156 51.8105C53.8652 52.207 53.79 52.6582 53.79 53.1641C53.79 53.6699 53.8652 54.1257 54.0156 54.5312C54.166 54.9368 54.3893 55.2581 54.6855 55.4951C54.9863 55.7321 55.3555 55.8506 55.793 55.8506ZM61.2617 56.9785V49.3359H62.6904L62.7314 51.1064H62.6152C62.7246 50.6735 62.8932 50.318 63.1211 50.04C63.349 49.762 63.6156 49.5547 63.9209 49.418C64.2262 49.2767 64.5452 49.2061 64.8779 49.2061C65.4339 49.2061 65.8828 49.3792 66.2246 49.7256C66.5664 50.0674 66.7965 50.5459 66.915 51.1611H66.7236C66.8239 50.7419 66.9971 50.3864 67.2432 50.0947C67.4893 49.8031 67.7855 49.582 68.1318 49.4316C68.4827 49.2812 68.8564 49.2061 69.2529 49.2061C69.7041 49.2061 70.112 49.304 70.4766 49.5C70.8457 49.696 71.1374 49.9876 71.3516 50.375C71.5658 50.7624 71.6729 51.2454 71.6729 51.8242V56.9785H70.1621V51.9746C70.1621 51.4642 70.0208 51.0951 69.7383 50.8672C69.4557 50.6393 69.1208 50.5254 68.7334 50.5254C68.4189 50.5254 68.1478 50.5915 67.9199 50.7236C67.6921 50.8558 67.5166 51.0404 67.3936 51.2773C67.2705 51.5098 67.209 51.7786 67.209 52.084V56.9785H65.7256V51.8789C65.7256 51.4688 65.5934 51.1406 65.3291 50.8945C65.0693 50.6484 64.7367 50.5254 64.3311 50.5254C64.0531 50.5254 63.7933 50.5915 63.5518 50.7236C63.3148 50.8512 63.1234 51.0426 62.9775 51.2979C62.8363 51.5485 62.7656 51.8584 62.7656 52.2275V56.9785H61.2617ZM76.998 57.1357C76.2461 57.1357 75.5967 56.974 75.0498 56.6504C74.5029 56.3268 74.0814 55.8711 73.7852 55.2832C73.4935 54.6953 73.3477 54.0049 73.3477 53.2119C73.3477 52.4281 73.4912 51.7376 73.7783 51.1406C74.07 50.5436 74.4801 50.0788 75.0088 49.7461C75.5374 49.4089 76.1572 49.2402 76.8682 49.2402C77.3057 49.2402 77.7272 49.3132 78.1328 49.459C78.5384 49.6003 78.903 49.8236 79.2266 50.1289C79.5501 50.4342 79.8053 50.8307 79.9922 51.3184C80.1836 51.8014 80.2793 52.3893 80.2793 53.082V53.6152H74.1885V52.4941H79.5068L78.8027 52.8633C78.8027 52.3939 78.7298 51.9814 78.584 51.626C78.4382 51.266 78.2217 50.9857 77.9346 50.7852C77.652 50.5846 77.2965 50.4844 76.8682 50.4844C76.4443 50.4844 76.082 50.5869 75.7812 50.792C75.4805 50.9971 75.2503 51.2682 75.0908 51.6055C74.9359 51.9382 74.8584 52.3027 74.8584 52.6992V53.4648C74.8584 53.9889 74.9473 54.4333 75.125 54.7979C75.3073 55.1579 75.5602 55.4313 75.8838 55.6182C76.2074 55.8005 76.5833 55.8916 77.0117 55.8916C77.2943 55.8916 77.5495 55.8529 77.7773 55.7754C78.0052 55.6934 78.2012 55.5726 78.3652 55.4131C78.5339 55.249 78.6615 55.0485 78.748 54.8115L80.1631 55.1465C80.04 55.5384 79.8327 55.8848 79.541 56.1855C79.2539 56.4863 78.8939 56.721 78.4609 56.8896C78.0326 57.0537 77.5449 57.1357 76.998 57.1357Z" fill="#111827"/>
<g clip-path="url(#clip0_4660_96300)">
<rect x="41" y="67.9785" width="299.955" height="36" rx="4" fill="white"/>
<path d="M53.4092 90.9785H50.9482V89.8301H53.3271C54.1566 89.8301 54.8424 89.6729 55.3848 89.3584C55.9316 89.0394 56.3395 88.5837 56.6084 87.9912C56.8773 87.3988 57.0117 86.6901 57.0117 85.8652C57.0117 85.0495 56.8773 84.3499 56.6084 83.7666C56.3441 83.1787 55.9476 82.7275 55.4189 82.4131C54.8949 82.0986 54.2386 81.9414 53.4502 81.9414H50.8936V80.793H53.5391C54.5326 80.793 55.3802 80.9958 56.082 81.4014C56.7884 81.807 57.3285 82.3903 57.7021 83.1514C58.0804 83.9079 58.2695 84.8125 58.2695 85.8652C58.2695 86.9271 58.0804 87.8408 57.7021 88.6064C57.3239 89.3675 56.7725 89.9531 56.0479 90.3633C55.3232 90.7734 54.4437 90.9785 53.4092 90.9785ZM51.5293 80.793V90.9785H50.2305V80.793H51.5293ZM63.3965 91.1426C62.6582 91.1426 62.0202 90.9785 61.4824 90.6504C60.9492 90.3223 60.5368 89.8643 60.2451 89.2764C59.958 88.6885 59.8145 88.0026 59.8145 87.2188C59.8145 86.4349 59.9557 85.7445 60.2383 85.1475C60.5208 84.5505 60.9196 84.0833 61.4346 83.7461C61.9541 83.4089 62.5602 83.2402 63.2529 83.2402C63.6585 83.2402 64.0573 83.3086 64.4492 83.4453C64.8457 83.5775 65.2035 83.7939 65.5225 84.0947C65.846 84.391 66.1035 84.7829 66.2949 85.2705C66.4863 85.7581 66.582 86.3551 66.582 87.0615V87.5742H60.6484V86.5352H65.9189L65.3447 86.918C65.3447 86.4167 65.265 85.9723 65.1055 85.585C64.9505 85.193 64.7181 84.8877 64.4082 84.6689C64.0983 84.4456 63.7132 84.334 63.2529 84.334C62.7926 84.334 62.3984 84.4479 62.0703 84.6758C61.7422 84.8991 61.4915 85.193 61.3184 85.5576C61.1452 85.9176 61.0586 86.305 61.0586 86.7197V87.4102C61.0586 87.9753 61.1566 88.4561 61.3525 88.8525C61.5485 89.2445 61.8219 89.543 62.1729 89.748C62.5283 89.9486 62.9385 90.0488 63.4033 90.0488C63.7041 90.0488 63.9775 90.0055 64.2236 89.9189C64.4697 89.8324 64.6816 89.7025 64.8594 89.5293C65.0371 89.3516 65.1738 89.1328 65.2695 88.873L66.459 89.2012C66.3405 89.584 66.14 89.9212 65.8574 90.2129C65.5749 90.5046 65.224 90.7324 64.8047 90.8965C64.39 91.0605 63.9206 91.1426 63.3965 91.1426ZM70.2803 90.9785L67.3613 83.3359H68.708L70.335 87.8682C70.5081 88.3376 70.654 88.807 70.7725 89.2764C70.8955 89.7412 71.0231 90.1924 71.1553 90.6299H70.7041C70.8363 90.1924 70.9616 89.7412 71.0801 89.2764C71.2031 88.807 71.349 88.3376 71.5176 87.8682L73.1445 83.3359H74.4912L71.5723 90.9785H70.2803ZM82.9951 91.1426C82.3024 91.1426 81.694 90.9785 81.1699 90.6504C80.6504 90.3223 80.2448 89.862 79.9531 89.2695C79.6615 88.6771 79.5156 87.9889 79.5156 87.2051C79.5156 86.4076 79.6615 85.7126 79.9531 85.1201C80.2448 84.5231 80.6504 84.0605 81.1699 83.7324C81.694 83.4043 82.3024 83.2402 82.9951 83.2402C83.3643 83.2402 83.7129 83.2881 84.041 83.3838C84.3691 83.4795 84.6676 83.6185 84.9365 83.8008C85.21 83.9785 85.4447 84.1995 85.6406 84.4639C85.8366 84.7236 85.987 85.0199 86.0918 85.3525L84.9092 85.6875C84.8545 85.4915 84.7702 85.3115 84.6562 85.1475C84.5423 84.9834 84.4033 84.8421 84.2393 84.7236C84.0798 84.6006 83.8952 84.5072 83.6855 84.4434C83.4759 84.375 83.2458 84.3408 82.9951 84.3408C82.4847 84.3408 82.0654 84.4753 81.7373 84.7441C81.4092 85.0085 81.1654 85.3571 81.0059 85.79C80.8464 86.223 80.7666 86.6947 80.7666 87.2051C80.7666 87.7064 80.8464 88.1735 81.0059 88.6064C81.1654 89.0348 81.4092 89.3812 81.7373 89.6455C82.0654 89.9098 82.4847 90.042 82.9951 90.042C83.2503 90.042 83.485 90.0078 83.6992 89.9395C83.9134 89.8711 84.1025 89.7754 84.2666 89.6523C84.4352 89.5247 84.5765 89.3743 84.6904 89.2012C84.8044 89.028 84.8887 88.8389 84.9434 88.6338L86.1191 88.9688C86.0189 89.3105 85.8685 89.6159 85.668 89.8848C85.472 90.1491 85.2373 90.377 84.9639 90.5684C84.6904 90.7552 84.3874 90.8965 84.0547 90.9922C83.722 91.0924 83.3688 91.1426 82.9951 91.1426ZM89.1133 80.793V90.9785H87.8828V80.793H89.1133ZM93.8643 91.0742C93.3493 91.0742 92.8958 90.9694 92.5039 90.7598C92.1165 90.5456 91.8135 90.2243 91.5947 89.7959C91.3805 89.3675 91.2734 88.832 91.2734 88.1895V83.3359H92.5039V88.0869C92.5039 88.6748 92.6589 89.1351 92.9688 89.4678C93.2786 89.8005 93.7002 89.9668 94.2334 89.9668C94.598 89.9668 94.9238 89.887 95.2109 89.7275C95.5026 89.568 95.7327 89.3356 95.9014 89.0303C96.07 88.7204 96.1543 88.349 96.1543 87.916V83.3359H97.3916V90.9785H96.2021V89.126H96.3662C96.1292 89.8415 95.792 90.3451 95.3545 90.6367C94.9215 90.9284 94.4248 91.0742 93.8643 91.0742ZM102.156 91.1426C101.632 91.1426 101.165 91.0674 100.755 90.917C100.349 90.762 100.014 90.5342 99.75 90.2334C99.4857 89.9326 99.3079 89.5635 99.2168 89.126L100.386 88.8457C100.495 89.265 100.7 89.5726 101.001 89.7686C101.306 89.9645 101.687 90.0625 102.143 90.0625C102.676 90.0625 103.1 89.9486 103.414 89.7207C103.733 89.4928 103.893 89.2217 103.893 88.9072C103.893 88.6429 103.799 88.4242 103.612 88.251C103.43 88.0732 103.15 87.9411 102.771 87.8545L101.5 87.5537C100.807 87.3896 100.292 87.1367 99.9551 86.7949C99.6178 86.4486 99.4492 86.0065 99.4492 85.4688C99.4492 85.0312 99.5723 84.6462 99.8184 84.3135C100.064 83.9762 100.399 83.7142 100.823 83.5273C101.252 83.3359 101.737 83.2402 102.279 83.2402C102.803 83.2402 103.248 83.32 103.612 83.4795C103.981 83.6344 104.28 83.8509 104.508 84.1289C104.74 84.4023 104.913 84.7191 105.027 85.0791L103.913 85.3662C103.808 85.0928 103.633 84.8444 103.387 84.6211C103.145 84.3978 102.778 84.2861 102.286 84.2861C101.83 84.2861 101.45 84.391 101.145 84.6006C100.844 84.8102 100.693 85.0745 100.693 85.3936C100.693 85.6761 100.796 85.904 101.001 86.0771C101.206 86.2458 101.532 86.3825 101.979 86.4873L103.134 86.7607C103.826 86.9248 104.339 87.18 104.672 87.5264C105.005 87.8682 105.171 88.3011 105.171 88.8252C105.171 89.2718 105.043 89.6706 104.788 90.0215C104.537 90.3678 104.184 90.6413 103.729 90.8418C103.277 91.0423 102.753 91.1426 102.156 91.1426ZM109.963 83.3359V84.3887H106.012V83.3359H109.963ZM107.16 81.5176H108.391V88.9961C108.391 89.3379 108.459 89.5885 108.596 89.748C108.737 89.903 108.969 89.9805 109.293 89.9805C109.37 89.9805 109.468 89.9714 109.587 89.9531C109.71 89.9349 109.822 89.9167 109.922 89.8984L110.175 90.9375C110.047 90.9831 109.901 91.0173 109.737 91.04C109.578 91.0628 109.418 91.0742 109.259 91.0742C108.598 91.0742 108.083 90.901 107.714 90.5547C107.345 90.2038 107.16 89.7161 107.16 89.0918V81.5176ZM114.611 91.1426C113.873 91.1426 113.235 90.9785 112.697 90.6504C112.164 90.3223 111.752 89.8643 111.46 89.2764C111.173 88.6885 111.029 88.0026 111.029 87.2188C111.029 86.4349 111.171 85.7445 111.453 85.1475C111.736 84.5505 112.134 84.0833 112.649 83.7461C113.169 83.4089 113.775 83.2402 114.468 83.2402C114.873 83.2402 115.272 83.3086 115.664 83.4453C116.061 83.5775 116.418 83.7939 116.737 84.0947C117.061 84.391 117.318 84.7829 117.51 85.2705C117.701 85.7581 117.797 86.3551 117.797 87.0615V87.5742H111.863V86.5352H117.134L116.56 86.918C116.56 86.4167 116.48 85.9723 116.32 85.585C116.165 85.193 115.933 84.8877 115.623 84.6689C115.313 84.4456 114.928 84.334 114.468 84.334C114.007 84.334 113.613 84.4479 113.285 84.6758C112.957 84.8991 112.706 85.193 112.533 85.5576C112.36 85.9176 112.273 86.305 112.273 86.7197V87.4102C112.273 87.9753 112.371 88.4561 112.567 88.8525C112.763 89.2445 113.037 89.543 113.388 89.748C113.743 89.9486 114.153 90.0488 114.618 90.0488C114.919 90.0488 115.192 90.0055 115.438 89.9189C115.685 89.8324 115.896 89.7025 116.074 89.5293C116.252 89.3516 116.389 89.1328 116.484 88.873L117.674 89.2012C117.555 89.584 117.355 89.9212 117.072 90.2129C116.79 90.5046 116.439 90.7324 116.02 90.8965C115.605 91.0605 115.135 91.1426 114.611 91.1426ZM119.561 90.9785V83.3359H120.75V84.5117H120.832C120.973 84.1243 121.224 83.8145 121.584 83.582C121.949 83.3451 122.359 83.2266 122.814 83.2266C122.906 83.2266 123.013 83.2288 123.136 83.2334C123.263 83.238 123.364 83.2425 123.437 83.2471V84.4844C123.4 84.4753 123.309 84.4616 123.163 84.4434C123.017 84.4251 122.862 84.416 122.698 84.416C122.334 84.416 122.006 84.4935 121.714 84.6484C121.427 84.7988 121.201 85.0085 121.037 85.2773C120.873 85.5417 120.791 85.847 120.791 86.1934V90.9785H119.561ZM132.036 91.1152C131.371 91.1152 130.781 91.0013 130.266 90.7734C129.751 90.5456 129.34 90.2288 129.035 89.8232C128.734 89.4176 128.573 88.946 128.55 88.4082H129.862C129.89 88.7318 129.999 89.012 130.19 89.249C130.386 89.4814 130.642 89.6615 130.956 89.7891C131.275 89.9121 131.628 89.9736 132.016 89.9736C132.444 89.9736 132.822 89.9007 133.15 89.7549C133.483 89.6045 133.745 89.3949 133.937 89.126C134.128 88.8571 134.224 88.5472 134.224 88.1963C134.224 87.8271 134.13 87.5036 133.943 87.2256C133.761 86.943 133.494 86.722 133.144 86.5625C132.793 86.403 132.364 86.3232 131.858 86.3232H131.031V85.1953H131.858C132.255 85.1953 132.604 85.1247 132.904 84.9834C133.21 84.8376 133.447 84.6348 133.615 84.375C133.784 84.1152 133.868 83.8099 133.868 83.459C133.868 83.1217 133.793 82.8278 133.643 82.5771C133.497 82.3265 133.287 82.1328 133.014 81.9961C132.74 81.8548 132.419 81.7842 132.05 81.7842C131.703 81.7842 131.378 81.848 131.072 81.9756C130.771 82.0986 130.523 82.2764 130.327 82.5088C130.136 82.7412 130.033 83.0238 130.02 83.3564H128.769C128.787 82.8232 128.946 82.3538 129.247 81.9482C129.548 81.5426 129.944 81.2259 130.437 80.998C130.933 80.7702 131.48 80.6562 132.077 80.6562C132.711 80.6562 133.255 80.7839 133.711 81.0391C134.171 81.2943 134.524 81.6292 134.771 82.0439C135.017 82.4587 135.14 82.9076 135.14 83.3906C135.14 83.9648 134.987 84.4525 134.682 84.8535C134.381 85.2546 133.971 85.5326 133.451 85.6875V85.7695C133.884 85.8379 134.253 85.9837 134.559 86.207C134.868 86.4303 135.103 86.7129 135.263 87.0547C135.427 87.3965 135.509 87.7816 135.509 88.21C135.509 88.766 135.358 89.2627 135.058 89.7002C134.757 90.1377 134.344 90.484 133.82 90.7393C133.296 90.9899 132.701 91.1152 132.036 91.1152Z" fill="#111827"/>
</g>
<rect x="41" y="67.9785" width="299.955" height="36" rx="4" stroke="#E4E4E7"/>
<path d="M42.1279 140.979V130.793H43.9258L47.7607 136.856C47.8883 137.057 48.0319 137.296 48.1914 137.574C48.3509 137.852 48.5195 138.167 48.6973 138.518C48.875 138.864 49.0505 139.242 49.2236 139.652H49.0322C48.9912 139.265 48.9593 138.882 48.9365 138.504C48.9183 138.121 48.9046 137.763 48.8955 137.431C48.8864 137.098 48.8818 136.818 48.8818 136.59V130.793H50.4609V140.979H48.6562L45.2178 135.558C45.0355 135.261 44.8555 134.963 44.6777 134.662C44.5046 134.361 44.3109 134.015 44.0967 133.623C43.887 133.227 43.6296 132.746 43.3242 132.181H43.5703C43.5931 132.682 43.6159 133.151 43.6387 133.589C43.6615 134.022 43.6774 134.407 43.6865 134.744C43.7002 135.077 43.707 135.343 43.707 135.544V140.979H42.1279ZM55.8203 141.136C55.1048 141.136 54.4782 140.972 53.9404 140.644C53.4072 140.315 52.9925 139.855 52.6963 139.263C52.4001 138.67 52.252 137.982 52.252 137.198C52.252 136.405 52.4001 135.713 52.6963 135.12C52.9925 134.523 53.4072 134.061 53.9404 133.732C54.4782 133.404 55.1048 133.24 55.8203 133.24C56.5404 133.24 57.167 133.404 57.7002 133.732C58.238 134.061 58.6549 134.523 58.9512 135.12C59.2474 135.713 59.3955 136.405 59.3955 137.198C59.3955 137.982 59.2474 138.67 58.9512 139.263C58.6549 139.855 58.238 140.315 57.7002 140.644C57.167 140.972 56.5404 141.136 55.8203 141.136ZM55.8203 139.864C56.2852 139.864 56.668 139.743 56.9688 139.502C57.2741 139.256 57.4997 138.932 57.6455 138.531C57.7959 138.126 57.8711 137.681 57.8711 137.198C57.8711 136.711 57.7959 136.264 57.6455 135.858C57.4997 135.448 57.2741 135.122 56.9688 134.881C56.668 134.635 56.2852 134.512 55.8203 134.512C55.36 134.512 54.9795 134.635 54.6787 134.881C54.3779 135.122 54.1523 135.446 54.002 135.852C53.8561 136.257 53.7832 136.706 53.7832 137.198C53.7832 137.681 53.8561 138.126 54.002 138.531C54.1523 138.932 54.3779 139.256 54.6787 139.502C54.9795 139.743 55.36 139.864 55.8203 139.864ZM63.9141 141.129C63.2943 141.129 62.7428 140.972 62.2598 140.657C61.7767 140.338 61.3984 139.885 61.125 139.297C60.8516 138.704 60.7148 137.998 60.7148 137.178C60.7148 136.348 60.8538 135.64 61.1318 135.052C61.4098 134.464 61.7904 134.015 62.2734 133.705C62.7565 133.395 63.3034 133.24 63.9141 133.24C64.388 133.24 64.7686 133.32 65.0557 133.479C65.3473 133.634 65.5752 133.817 65.7393 134.026C65.9033 134.236 66.0286 134.421 66.1152 134.58H66.1973V130.793H67.7012V140.979H66.2383V139.782H66.1152C66.0286 139.946 65.901 140.133 65.7324 140.343C65.5638 140.552 65.3337 140.737 65.042 140.896C64.7503 141.051 64.3743 141.129 63.9141 141.129ZM64.2422 139.851C64.6706 139.851 65.0306 139.737 65.3223 139.509C65.6185 139.281 65.8418 138.966 65.9922 138.565C66.1471 138.16 66.2246 137.693 66.2246 137.164C66.2246 136.631 66.1494 136.168 65.999 135.776C65.8486 135.38 65.6253 135.072 65.3291 134.854C65.0374 134.63 64.6751 134.519 64.2422 134.519C63.8001 134.519 63.431 134.635 63.1348 134.867C62.8431 135.1 62.6221 135.416 62.4717 135.817C62.3258 136.214 62.2529 136.663 62.2529 137.164C62.2529 137.67 62.3281 138.126 62.4785 138.531C62.6289 138.937 62.8522 139.258 63.1484 139.495C63.4447 139.732 63.8092 139.851 64.2422 139.851ZM73.0195 141.136C72.2676 141.136 71.6182 140.974 71.0713 140.65C70.5244 140.327 70.1029 139.871 69.8066 139.283C69.515 138.695 69.3691 138.005 69.3691 137.212C69.3691 136.428 69.5127 135.738 69.7998 135.141C70.0915 134.544 70.5016 134.079 71.0303 133.746C71.5589 133.409 72.1787 133.24 72.8896 133.24C73.3271 133.24 73.7487 133.313 74.1543 133.459C74.5599 133.6 74.9245 133.824 75.248 134.129C75.5716 134.434 75.8268 134.831 76.0137 135.318C76.2051 135.801 76.3008 136.389 76.3008 137.082V137.615H70.21V136.494H75.5283L74.8242 136.863C74.8242 136.394 74.7513 135.981 74.6055 135.626C74.4596 135.266 74.2432 134.986 73.9561 134.785C73.6735 134.585 73.318 134.484 72.8896 134.484C72.4658 134.484 72.1035 134.587 71.8027 134.792C71.502 134.997 71.2718 135.268 71.1123 135.605C70.9574 135.938 70.8799 136.303 70.8799 136.699V137.465C70.8799 137.989 70.9688 138.433 71.1465 138.798C71.3288 139.158 71.5817 139.431 71.9053 139.618C72.2288 139.8 72.6048 139.892 73.0332 139.892C73.3158 139.892 73.571 139.853 73.7988 139.775C74.0267 139.693 74.2227 139.573 74.3867 139.413C74.5553 139.249 74.6829 139.049 74.7695 138.812L76.1846 139.146C76.0615 139.538 75.8542 139.885 75.5625 140.186C75.2754 140.486 74.9154 140.721 74.4824 140.89C74.054 141.054 73.5664 141.136 73.0195 141.136ZM77.9551 143.836V133.336H79.418V134.58H79.541C79.6322 134.421 79.7575 134.236 79.917 134.026C80.0811 133.817 80.3066 133.634 80.5938 133.479C80.8854 133.32 81.2705 133.24 81.749 133.24C82.3597 133.24 82.9043 133.395 83.3828 133.705C83.8659 134.015 84.2464 134.464 84.5244 135.052C84.8024 135.64 84.9414 136.348 84.9414 137.178C84.9414 137.998 84.8047 138.704 84.5312 139.297C84.2578 139.885 83.8796 140.338 83.3965 140.657C82.918 140.972 82.3688 141.129 81.749 141.129C81.2887 141.129 80.9105 141.051 80.6143 140.896C80.3226 140.737 80.0924 140.552 79.9238 140.343C79.7598 140.133 79.6322 139.946 79.541 139.782H79.459V143.836H77.9551ZM81.4141 139.851C81.8516 139.851 82.2184 139.732 82.5146 139.495C82.8109 139.258 83.0319 138.937 83.1777 138.531C83.3281 138.126 83.4033 137.67 83.4033 137.164C83.4033 136.663 83.3281 136.214 83.1777 135.817C83.0319 135.416 82.8109 135.1 82.5146 134.867C82.223 134.635 81.8561 134.519 81.4141 134.519C80.9857 134.519 80.6234 134.63 80.3271 134.854C80.0309 135.072 79.8076 135.38 79.6572 135.776C79.5068 136.168 79.4316 136.631 79.4316 137.164C79.4316 137.693 79.5068 138.16 79.6572 138.565C79.8122 138.966 80.0378 139.281 80.334 139.509C80.6302 139.737 80.9902 139.851 81.4141 139.851ZM89.8223 141.136C89.1068 141.136 88.4801 140.972 87.9424 140.644C87.4092 140.315 86.9945 139.855 86.6982 139.263C86.402 138.67 86.2539 137.982 86.2539 137.198C86.2539 136.405 86.402 135.713 86.6982 135.12C86.9945 134.523 87.4092 134.061 87.9424 133.732C88.4801 133.404 89.1068 133.24 89.8223 133.24C90.5423 133.24 91.1689 133.404 91.7021 133.732C92.2399 134.061 92.6569 134.523 92.9531 135.12C93.2493 135.713 93.3975 136.405 93.3975 137.198C93.3975 137.982 93.2493 138.67 92.9531 139.263C92.6569 139.855 92.2399 140.315 91.7021 140.644C91.1689 140.972 90.5423 141.136 89.8223 141.136ZM89.8223 139.864C90.2871 139.864 90.6699 139.743 90.9707 139.502C91.276 139.256 91.5016 138.932 91.6475 138.531C91.7979 138.126 91.873 137.681 91.873 137.198C91.873 136.711 91.7979 136.264 91.6475 135.858C91.5016 135.448 91.276 135.122 90.9707 134.881C90.6699 134.635 90.2871 134.512 89.8223 134.512C89.362 134.512 88.9814 134.635 88.6807 134.881C88.3799 135.122 88.1543 135.446 88.0039 135.852C87.8581 136.257 87.7852 136.706 87.7852 137.198C87.7852 137.681 87.8581 138.126 88.0039 138.531C88.1543 138.932 88.3799 139.256 88.6807 139.502C88.9814 139.743 89.362 139.864 89.8223 139.864ZM98.2852 141.136C97.5697 141.136 96.943 140.972 96.4053 140.644C95.8721 140.315 95.4574 139.855 95.1611 139.263C94.8649 138.67 94.7168 137.982 94.7168 137.198C94.7168 136.405 94.8649 135.713 95.1611 135.12C95.4574 134.523 95.8721 134.061 96.4053 133.732C96.943 133.404 97.5697 133.24 98.2852 133.24C99.0052 133.24 99.6318 133.404 100.165 133.732C100.703 134.061 101.12 134.523 101.416 135.12C101.712 135.713 101.86 136.405 101.86 137.198C101.86 137.982 101.712 138.67 101.416 139.263C101.12 139.855 100.703 140.315 100.165 140.644C99.6318 140.972 99.0052 141.136 98.2852 141.136ZM98.2852 139.864C98.75 139.864 99.1328 139.743 99.4336 139.502C99.7389 139.256 99.9645 138.932 100.11 138.531C100.261 138.126 100.336 137.681 100.336 137.198C100.336 136.711 100.261 136.264 100.11 135.858C99.9645 135.448 99.7389 135.122 99.4336 134.881C99.1328 134.635 98.75 134.512 98.2852 134.512C97.8249 134.512 97.4443 134.635 97.1436 134.881C96.8428 135.122 96.6172 135.446 96.4668 135.852C96.321 136.257 96.248 136.706 96.248 137.198C96.248 137.681 96.321 138.126 96.4668 138.531C96.6172 138.932 96.8428 139.256 97.1436 139.502C97.4443 139.743 97.8249 139.864 98.2852 139.864ZM105.039 130.793V140.979H103.535V130.793H105.039ZM114.466 130.793V140.979H112.921V132.208H112.853L110.433 133.972V132.406L112.661 130.793H114.466Z" fill="#111827"/>
<g clip-path="url(#clip1_4660_96300)">
<rect x="41" y="151.979" width="299.955" height="36" rx="4" fill="white"/>
<path d="M50.2305 174.979V164.793H52.0762L54.585 171.219C54.6442 171.369 54.7103 171.558 54.7832 171.786C54.8607 172.009 54.9404 172.253 55.0225 172.518C55.109 172.782 55.1911 173.046 55.2686 173.311C55.346 173.57 55.4144 173.812 55.4736 174.035H55.1865C55.2503 173.826 55.321 173.593 55.3984 173.338C55.4759 173.078 55.5557 172.816 55.6377 172.552C55.7243 172.283 55.8063 172.032 55.8838 171.8C55.9613 171.567 56.0296 171.374 56.0889 171.219L58.5635 164.793H60.416V174.979H59.1377V169.161C59.1377 168.951 59.1377 168.712 59.1377 168.443C59.1423 168.174 59.1468 167.892 59.1514 167.596C59.1605 167.299 59.1673 166.999 59.1719 166.693C59.181 166.388 59.1878 166.092 59.1924 165.805H59.3018C59.2061 166.119 59.1035 166.44 58.9941 166.769C58.8893 167.092 58.7845 167.407 58.6797 167.712C58.5794 168.013 58.4837 168.288 58.3926 168.539C58.3014 168.79 58.224 168.997 58.1602 169.161L55.8838 174.979H54.7559L52.4453 169.161C52.3815 169.002 52.3063 168.801 52.2197 168.56C52.1331 168.313 52.0374 168.042 51.9326 167.746C51.8324 167.445 51.7275 167.131 51.6182 166.803C51.5088 166.47 51.3971 166.137 51.2832 165.805H51.4062C51.4154 166.06 51.4222 166.336 51.4268 166.632C51.4359 166.928 51.4427 167.229 51.4473 167.534C51.4518 167.835 51.4564 168.127 51.4609 168.409C51.4655 168.687 51.4678 168.938 51.4678 169.161V174.979H50.2305ZM62.7266 174.979V167.336H63.957V174.979H62.7266ZM63.3486 166.085C63.1162 166.085 62.9157 166.005 62.7471 165.846C62.5785 165.686 62.4941 165.495 62.4941 165.271C62.4941 165.044 62.5785 164.852 62.7471 164.697C62.9157 164.538 63.1162 164.458 63.3486 164.458C63.5856 164.458 63.7884 164.538 63.957 164.697C64.1257 164.852 64.21 165.044 64.21 165.271C64.21 165.495 64.1257 165.686 63.957 165.846C63.7884 166.005 63.5856 166.085 63.3486 166.085ZM67.3477 170.398V174.979H66.1172V167.336H67.2998L67.3066 169.188H67.1357C67.3682 168.482 67.6986 167.981 68.127 167.685C68.5599 167.388 69.0658 167.24 69.6445 167.24C70.1595 167.24 70.6107 167.347 70.998 167.562C71.3854 167.771 71.6862 168.09 71.9004 168.519C72.1191 168.942 72.2285 169.478 72.2285 170.125V174.979H70.998V170.228C70.998 169.64 70.8431 169.179 70.5332 168.847C70.2279 168.514 69.8086 168.348 69.2754 168.348C68.9108 168.348 68.5827 168.427 68.291 168.587C67.9993 168.746 67.7692 168.979 67.6006 169.284C67.432 169.59 67.3477 169.961 67.3477 170.398ZM78.2988 174.979V174.042L81.6826 170.371C82.0609 169.961 82.3753 169.601 82.626 169.291C82.8766 168.981 83.0658 168.687 83.1934 168.409C83.321 168.127 83.3848 167.828 83.3848 167.514C83.3848 167.158 83.3005 166.851 83.1318 166.591C82.9632 166.331 82.7354 166.133 82.4482 165.996C82.1611 165.855 81.8353 165.784 81.4707 165.784C81.0833 165.784 80.7461 165.864 80.459 166.023C80.1764 166.178 79.9577 166.399 79.8027 166.687C79.6478 166.969 79.5703 167.302 79.5703 167.685H78.3262C78.3262 167.083 78.4652 166.554 78.7432 166.099C79.0212 165.643 79.3994 165.29 79.8779 165.039C80.3564 164.784 80.8988 164.656 81.5049 164.656C82.111 164.656 82.6465 164.784 83.1113 165.039C83.5807 165.29 83.9476 165.629 84.2119 166.058C84.4808 166.486 84.6152 166.967 84.6152 167.5C84.6152 167.869 84.5492 168.229 84.417 168.58C84.2848 168.926 84.0524 169.321 83.7197 169.763C83.387 170.205 82.9199 170.745 82.3184 171.383L80.0898 173.755V173.837H84.7861V174.979H78.2988ZM92.0391 170.398V174.979H90.8086V167.336H91.9912L91.998 169.188H91.8271C92.0596 168.482 92.39 167.981 92.8184 167.685C93.2513 167.388 93.7572 167.24 94.3359 167.24C94.8509 167.24 95.3021 167.347 95.6895 167.562C96.0768 167.771 96.3776 168.09 96.5918 168.519C96.8105 168.942 96.9199 169.478 96.9199 170.125V174.979H95.6895V170.228C95.6895 169.64 95.5345 169.179 95.2246 168.847C94.9193 168.514 94.5 168.348 93.9668 168.348C93.6022 168.348 93.2741 168.427 92.9824 168.587C92.6908 168.746 92.4606 168.979 92.292 169.284C92.1234 169.59 92.0391 169.961 92.0391 170.398ZM102.19 175.143C101.498 175.143 100.889 174.979 100.365 174.65C99.8457 174.322 99.4401 173.862 99.1484 173.27C98.8568 172.677 98.7109 171.989 98.7109 171.205C98.7109 170.408 98.8568 169.713 99.1484 169.12C99.4401 168.523 99.8457 168.061 100.365 167.732C100.889 167.404 101.498 167.24 102.19 167.24C102.888 167.24 103.498 167.404 104.022 167.732C104.547 168.061 104.954 168.523 105.246 169.12C105.538 169.713 105.684 170.408 105.684 171.205C105.684 171.989 105.538 172.677 105.246 173.27C104.954 173.862 104.547 174.322 104.022 174.65C103.498 174.979 102.888 175.143 102.19 175.143ZM102.19 174.042C102.705 174.042 103.129 173.91 103.462 173.646C103.795 173.381 104.041 173.035 104.2 172.606C104.36 172.174 104.439 171.706 104.439 171.205C104.439 170.699 104.36 170.23 104.2 169.797C104.041 169.359 103.795 169.008 103.462 168.744C103.129 168.475 102.705 168.341 102.19 168.341C101.68 168.341 101.261 168.475 100.933 168.744C100.604 169.008 100.361 169.357 100.201 169.79C100.042 170.223 99.9619 170.695 99.9619 171.205C99.9619 171.706 100.042 172.174 100.201 172.606C100.361 173.035 100.604 173.381 100.933 173.646C101.261 173.91 101.68 174.042 102.19 174.042ZM110.339 175.143C109.705 175.143 109.145 174.981 108.657 174.657C108.17 174.334 107.789 173.876 107.516 173.283C107.242 172.691 107.105 171.989 107.105 171.178C107.105 170.371 107.242 169.674 107.516 169.086C107.794 168.493 108.176 168.038 108.664 167.719C109.152 167.4 109.712 167.24 110.346 167.24C110.842 167.24 111.237 167.322 111.528 167.486C111.82 167.65 112.043 167.837 112.198 168.047C112.358 168.252 112.479 168.423 112.561 168.56H112.656V164.793H113.887V174.979H112.697V173.796H112.561C112.479 173.937 112.355 174.115 112.191 174.329C112.032 174.539 111.804 174.728 111.508 174.896C111.216 175.061 110.826 175.143 110.339 175.143ZM110.523 174.042C110.988 174.042 111.38 173.921 111.699 173.68C112.018 173.434 112.26 173.094 112.424 172.661C112.588 172.228 112.67 171.729 112.67 171.164C112.67 170.599 112.588 170.107 112.424 169.688C112.264 169.264 112.025 168.933 111.706 168.696C111.387 168.459 110.993 168.341 110.523 168.341C110.04 168.341 109.637 168.466 109.313 168.717C108.994 168.967 108.755 169.307 108.596 169.735C108.436 170.159 108.356 170.635 108.356 171.164C108.356 171.697 108.436 172.183 108.596 172.62C108.76 173.053 109.004 173.399 109.327 173.659C109.651 173.914 110.049 174.042 110.523 174.042ZM119.26 175.143C118.521 175.143 117.883 174.979 117.346 174.65C116.812 174.322 116.4 173.864 116.108 173.276C115.821 172.688 115.678 172.003 115.678 171.219C115.678 170.435 115.819 169.744 116.102 169.147C116.384 168.55 116.783 168.083 117.298 167.746C117.817 167.409 118.424 167.24 119.116 167.24C119.522 167.24 119.921 167.309 120.312 167.445C120.709 167.577 121.067 167.794 121.386 168.095C121.709 168.391 121.967 168.783 122.158 169.271C122.35 169.758 122.445 170.355 122.445 171.062V171.574H116.512V170.535H121.782L121.208 170.918C121.208 170.417 121.128 169.972 120.969 169.585C120.814 169.193 120.581 168.888 120.271 168.669C119.962 168.446 119.576 168.334 119.116 168.334C118.656 168.334 118.262 168.448 117.934 168.676C117.605 168.899 117.355 169.193 117.182 169.558C117.008 169.918 116.922 170.305 116.922 170.72V171.41C116.922 171.975 117.02 172.456 117.216 172.853C117.412 173.244 117.685 173.543 118.036 173.748C118.392 173.949 118.802 174.049 119.267 174.049C119.567 174.049 119.841 174.006 120.087 173.919C120.333 173.832 120.545 173.702 120.723 173.529C120.9 173.352 121.037 173.133 121.133 172.873L122.322 173.201C122.204 173.584 122.003 173.921 121.721 174.213C121.438 174.505 121.087 174.732 120.668 174.896C120.253 175.061 119.784 175.143 119.26 175.143ZM126.807 175.143C126.283 175.143 125.815 175.067 125.405 174.917C125 174.762 124.665 174.534 124.4 174.233C124.136 173.933 123.958 173.563 123.867 173.126L125.036 172.846C125.146 173.265 125.351 173.573 125.651 173.769C125.957 173.965 126.337 174.062 126.793 174.062C127.326 174.062 127.75 173.949 128.064 173.721C128.383 173.493 128.543 173.222 128.543 172.907C128.543 172.643 128.45 172.424 128.263 172.251C128.08 172.073 127.8 171.941 127.422 171.854L126.15 171.554C125.458 171.39 124.943 171.137 124.605 170.795C124.268 170.449 124.1 170.007 124.1 169.469C124.1 169.031 124.223 168.646 124.469 168.313C124.715 167.976 125.05 167.714 125.474 167.527C125.902 167.336 126.387 167.24 126.93 167.24C127.454 167.24 127.898 167.32 128.263 167.479C128.632 167.634 128.93 167.851 129.158 168.129C129.391 168.402 129.564 168.719 129.678 169.079L128.563 169.366C128.459 169.093 128.283 168.844 128.037 168.621C127.796 168.398 127.429 168.286 126.937 168.286C126.481 168.286 126.1 168.391 125.795 168.601C125.494 168.81 125.344 169.075 125.344 169.394C125.344 169.676 125.446 169.904 125.651 170.077C125.856 170.246 126.182 170.382 126.629 170.487L127.784 170.761C128.477 170.925 128.99 171.18 129.322 171.526C129.655 171.868 129.821 172.301 129.821 172.825C129.821 173.272 129.694 173.671 129.438 174.021C129.188 174.368 128.835 174.641 128.379 174.842C127.928 175.042 127.404 175.143 126.807 175.143Z" fill="#9CA3AF"/>
</g>
<rect x="41" y="151.979" width="299.955" height="36" rx="4" stroke="#E4E4E7"/>
<g clip-path="url(#clip2_4660_96300)">
<rect x="41" y="207.979" width="299.955" height="36" rx="4" fill="white"/>
<path d="M50.2305 230.979V220.793H52.0762L54.585 227.219C54.6442 227.369 54.7103 227.558 54.7832 227.786C54.8607 228.009 54.9404 228.253 55.0225 228.518C55.109 228.782 55.1911 229.046 55.2686 229.311C55.346 229.57 55.4144 229.812 55.4736 230.035H55.1865C55.2503 229.826 55.321 229.593 55.3984 229.338C55.4759 229.078 55.5557 228.816 55.6377 228.552C55.7243 228.283 55.8063 228.032 55.8838 227.8C55.9613 227.567 56.0296 227.374 56.0889 227.219L58.5635 220.793H60.416V230.979H59.1377V225.161C59.1377 224.951 59.1377 224.712 59.1377 224.443C59.1423 224.174 59.1468 223.892 59.1514 223.596C59.1605 223.299 59.1673 222.999 59.1719 222.693C59.181 222.388 59.1878 222.092 59.1924 221.805H59.3018C59.2061 222.119 59.1035 222.44 58.9941 222.769C58.8893 223.092 58.7845 223.407 58.6797 223.712C58.5794 224.013 58.4837 224.288 58.3926 224.539C58.3014 224.79 58.224 224.997 58.1602 225.161L55.8838 230.979H54.7559L52.4453 225.161C52.3815 225.002 52.3063 224.801 52.2197 224.56C52.1331 224.313 52.0374 224.042 51.9326 223.746C51.8324 223.445 51.7275 223.131 51.6182 222.803C51.5088 222.47 51.3971 222.137 51.2832 221.805H51.4062C51.4154 222.06 51.4222 222.336 51.4268 222.632C51.4359 222.928 51.4427 223.229 51.4473 223.534C51.4518 223.835 51.4564 224.127 51.4609 224.409C51.4655 224.687 51.4678 224.938 51.4678 225.161V230.979H50.2305ZM65.584 231.143C64.9551 231.143 64.3968 230.981 63.9092 230.657C63.4261 230.334 63.0456 229.876 62.7676 229.283C62.4941 228.691 62.3574 227.989 62.3574 227.178C62.3574 226.371 62.4964 225.674 62.7744 225.086C63.0524 224.493 63.4352 224.038 63.9229 223.719C64.415 223.4 64.9779 223.24 65.6113 223.24C66.1035 223.24 66.4954 223.322 66.7871 223.486C67.0788 223.646 67.3021 223.83 67.457 224.04C67.612 224.25 67.7305 224.423 67.8125 224.56H67.915V223.336H69.1387V230.979H67.9219V229.796H67.8125C67.7305 229.937 67.6074 230.115 67.4434 230.329C67.2839 230.543 67.056 230.732 66.7598 230.896C66.4635 231.061 66.0716 231.143 65.584 231.143ZM65.7891 230.042C66.2539 230.042 66.6458 229.921 66.9648 229.68C67.2839 229.434 67.5254 229.094 67.6895 228.661C67.8535 228.228 67.9355 227.729 67.9355 227.164C67.9355 226.599 67.8535 226.107 67.6895 225.688C67.5299 225.264 67.2907 224.933 66.9717 224.696C66.6527 224.459 66.2585 224.341 65.7891 224.341C65.306 224.341 64.9027 224.466 64.5791 224.717C64.2555 224.963 64.0117 225.3 63.8477 225.729C63.6882 226.152 63.6084 226.631 63.6084 227.164C63.6084 227.697 63.6904 228.183 63.8545 228.62C64.0186 229.053 64.2624 229.399 64.5859 229.659C64.9095 229.914 65.3105 230.042 65.7891 230.042ZM70.6631 230.979L73.6777 226.583L73.6709 227.526L70.8203 223.336H72.2559L73.2061 224.819C73.4521 225.202 73.6641 225.56 73.8418 225.893C74.0241 226.225 74.2109 226.547 74.4023 226.856H73.7598C73.9557 226.547 74.1335 226.225 74.293 225.893C74.457 225.56 74.6644 225.202 74.915 224.819L75.8857 223.336H77.2939L74.4297 227.581V226.672L77.417 230.979H75.9883L74.8672 229.263C74.6257 228.889 74.416 228.543 74.2383 228.224C74.0651 227.9 73.8851 227.59 73.6982 227.294H74.3477C74.1608 227.59 73.9876 227.9 73.8281 228.224C73.6686 228.543 73.4658 228.889 73.2197 229.263L72.085 230.979H70.6631ZM86.0781 231.115C85.4811 231.115 84.9456 230.999 84.4717 230.767C83.9977 230.53 83.6195 230.208 83.3369 229.803C83.0544 229.393 82.9017 228.928 82.8789 228.408H84.1367C84.1641 228.709 84.2666 228.978 84.4443 229.215C84.6221 229.452 84.8522 229.639 85.1348 229.775C85.4219 229.908 85.7363 229.974 86.0781 229.974C86.4883 229.974 86.8529 229.878 87.1719 229.687C87.4954 229.495 87.7484 229.231 87.9307 228.894C88.113 228.556 88.2041 228.174 88.2041 227.745C88.2041 227.308 88.1084 226.916 87.917 226.569C87.7256 226.223 87.4635 225.952 87.1309 225.756C86.8027 225.555 86.4245 225.455 85.9961 225.455C85.6816 225.455 85.3626 225.505 85.0391 225.605C84.7155 225.706 84.4535 225.833 84.2529 225.988L83.0361 225.838L83.6377 220.793H88.9971V221.935H84.7314L84.3828 224.908H84.4375C84.6471 224.735 84.9115 224.594 85.2305 224.484C85.5495 224.37 85.8844 224.313 86.2354 224.313C86.7002 224.313 87.1286 224.398 87.5205 224.566C87.917 224.735 88.2611 224.974 88.5527 225.284C88.8444 225.59 89.07 225.95 89.2295 226.364C89.3936 226.779 89.4756 227.232 89.4756 227.725C89.4756 228.376 89.3275 228.957 89.0312 229.468C88.7396 229.978 88.3385 230.382 87.8281 230.678C87.3177 230.969 86.7344 231.115 86.0781 231.115ZM96.5645 226.398V230.979H95.334V223.336H96.5166L96.5234 225.188H96.3525C96.585 224.482 96.9154 223.981 97.3438 223.685C97.7767 223.388 98.2826 223.24 98.8613 223.24C99.3763 223.24 99.8275 223.347 100.215 223.562C100.602 223.771 100.903 224.09 101.117 224.519C101.336 224.942 101.445 225.478 101.445 226.125V230.979H100.215V226.228C100.215 225.64 100.06 225.179 99.75 224.847C99.4447 224.514 99.0254 224.348 98.4922 224.348C98.1276 224.348 97.7995 224.427 97.5078 224.587C97.2161 224.746 96.986 224.979 96.8174 225.284C96.6488 225.59 96.5645 225.961 96.5645 226.398ZM106.716 231.143C106.023 231.143 105.415 230.979 104.891 230.65C104.371 230.322 103.965 229.862 103.674 229.27C103.382 228.677 103.236 227.989 103.236 227.205C103.236 226.408 103.382 225.713 103.674 225.12C103.965 224.523 104.371 224.061 104.891 223.732C105.415 223.404 106.023 223.24 106.716 223.24C107.413 223.24 108.024 223.404 108.548 223.732C109.072 224.061 109.48 224.523 109.771 225.12C110.063 225.713 110.209 226.408 110.209 227.205C110.209 227.989 110.063 228.677 109.771 229.27C109.48 229.862 109.072 230.322 108.548 230.65C108.024 230.979 107.413 231.143 106.716 231.143ZM106.716 230.042C107.231 230.042 107.655 229.91 107.987 229.646C108.32 229.381 108.566 229.035 108.726 228.606C108.885 228.174 108.965 227.706 108.965 227.205C108.965 226.699 108.885 226.23 108.726 225.797C108.566 225.359 108.32 225.008 107.987 224.744C107.655 224.475 107.231 224.341 106.716 224.341C106.205 224.341 105.786 224.475 105.458 224.744C105.13 225.008 104.886 225.357 104.727 225.79C104.567 226.223 104.487 226.695 104.487 227.205C104.487 227.706 104.567 228.174 104.727 228.606C104.886 229.035 105.13 229.381 105.458 229.646C105.786 229.91 106.205 230.042 106.716 230.042ZM114.864 231.143C114.231 231.143 113.67 230.981 113.183 230.657C112.695 230.334 112.314 229.876 112.041 229.283C111.768 228.691 111.631 227.989 111.631 227.178C111.631 226.371 111.768 225.674 112.041 225.086C112.319 224.493 112.702 224.038 113.189 223.719C113.677 223.4 114.238 223.24 114.871 223.24C115.368 223.24 115.762 223.322 116.054 223.486C116.345 223.65 116.569 223.837 116.724 224.047C116.883 224.252 117.004 224.423 117.086 224.56H117.182V220.793H118.412V230.979H117.223V229.796H117.086C117.004 229.937 116.881 230.115 116.717 230.329C116.557 230.539 116.329 230.728 116.033 230.896C115.742 231.061 115.352 231.143 114.864 231.143ZM115.049 230.042C115.514 230.042 115.906 229.921 116.225 229.68C116.544 229.434 116.785 229.094 116.949 228.661C117.113 228.228 117.195 227.729 117.195 227.164C117.195 226.599 117.113 226.107 116.949 225.688C116.79 225.264 116.55 224.933 116.231 224.696C115.912 224.459 115.518 224.341 115.049 224.341C114.566 224.341 114.162 224.466 113.839 224.717C113.52 224.967 113.281 225.307 113.121 225.735C112.962 226.159 112.882 226.635 112.882 227.164C112.882 227.697 112.962 228.183 113.121 228.62C113.285 229.053 113.529 229.399 113.853 229.659C114.176 229.914 114.575 230.042 115.049 230.042ZM123.785 231.143C123.047 231.143 122.409 230.979 121.871 230.65C121.338 230.322 120.925 229.864 120.634 229.276C120.347 228.688 120.203 228.003 120.203 227.219C120.203 226.435 120.344 225.744 120.627 225.147C120.91 224.55 121.308 224.083 121.823 223.746C122.343 223.409 122.949 223.24 123.642 223.24C124.047 223.24 124.446 223.309 124.838 223.445C125.234 223.577 125.592 223.794 125.911 224.095C126.235 224.391 126.492 224.783 126.684 225.271C126.875 225.758 126.971 226.355 126.971 227.062V227.574H121.037V226.535H126.308L125.733 226.918C125.733 226.417 125.654 225.972 125.494 225.585C125.339 225.193 125.107 224.888 124.797 224.669C124.487 224.446 124.102 224.334 123.642 224.334C123.181 224.334 122.787 224.448 122.459 224.676C122.131 224.899 121.88 225.193 121.707 225.558C121.534 225.918 121.447 226.305 121.447 226.72V227.41C121.447 227.975 121.545 228.456 121.741 228.853C121.937 229.244 122.211 229.543 122.562 229.748C122.917 229.949 123.327 230.049 123.792 230.049C124.093 230.049 124.366 230.006 124.612 229.919C124.858 229.832 125.07 229.702 125.248 229.529C125.426 229.352 125.562 229.133 125.658 228.873L126.848 229.201C126.729 229.584 126.529 229.921 126.246 230.213C125.964 230.505 125.613 230.732 125.193 230.896C124.779 231.061 124.309 231.143 123.785 231.143ZM131.332 231.143C130.808 231.143 130.341 231.067 129.931 230.917C129.525 230.762 129.19 230.534 128.926 230.233C128.661 229.933 128.484 229.563 128.393 229.126L129.562 228.846C129.671 229.265 129.876 229.573 130.177 229.769C130.482 229.965 130.863 230.062 131.318 230.062C131.852 230.062 132.275 229.949 132.59 229.721C132.909 229.493 133.068 229.222 133.068 228.907C133.068 228.643 132.975 228.424 132.788 228.251C132.606 228.073 132.326 227.941 131.947 227.854L130.676 227.554C129.983 227.39 129.468 227.137 129.131 226.795C128.794 226.449 128.625 226.007 128.625 225.469C128.625 225.031 128.748 224.646 128.994 224.313C129.24 223.976 129.575 223.714 129.999 223.527C130.427 223.336 130.913 223.24 131.455 223.24C131.979 223.24 132.424 223.32 132.788 223.479C133.157 223.634 133.456 223.851 133.684 224.129C133.916 224.402 134.089 224.719 134.203 225.079L133.089 225.366C132.984 225.093 132.809 224.844 132.562 224.621C132.321 224.398 131.954 224.286 131.462 224.286C131.006 224.286 130.626 224.391 130.32 224.601C130.02 224.81 129.869 225.075 129.869 225.394C129.869 225.676 129.972 225.904 130.177 226.077C130.382 226.246 130.708 226.382 131.154 226.487L132.31 226.761C133.002 226.925 133.515 227.18 133.848 227.526C134.18 227.868 134.347 228.301 134.347 228.825C134.347 229.272 134.219 229.671 133.964 230.021C133.713 230.368 133.36 230.641 132.904 230.842C132.453 231.042 131.929 231.143 131.332 231.143Z" fill="#9CA3AF"/>
</g>
<rect x="41" y="207.979" width="299.955" height="36" rx="4" stroke="#E4E4E7"/>
<rect x="41" y="263.979" width="299.955" height="40" rx="4" fill="#3B82F6"/>
<rect x="41" y="263.979" width="299.955" height="40" rx="4" stroke="#2563EB"/>
<path d="M171.095 290.135C170.079 290.135 169.176 289.895 168.384 289.416C167.592 288.937 166.967 288.252 166.509 287.361C166.056 286.465 165.829 285.4 165.829 284.166C165.829 282.926 166.056 281.861 166.509 280.971C166.967 280.075 167.592 279.387 168.384 278.908C169.181 278.424 170.085 278.182 171.095 278.182C171.71 278.182 172.288 278.27 172.829 278.447C173.371 278.624 173.853 278.885 174.275 279.229C174.702 279.567 175.056 279.979 175.337 280.463C175.618 280.947 175.809 281.499 175.907 282.119H174.118C174.04 281.744 173.91 281.413 173.728 281.127C173.545 280.84 173.319 280.598 173.048 280.4C172.782 280.197 172.486 280.046 172.157 279.947C171.829 279.848 171.48 279.799 171.111 279.799C170.434 279.799 169.829 279.968 169.298 280.307C168.767 280.645 168.35 281.14 168.048 281.791C167.746 282.442 167.595 283.234 167.595 284.166C167.595 285.098 167.746 285.89 168.048 286.541C168.355 287.187 168.775 287.679 169.306 288.018C169.837 288.351 170.439 288.518 171.111 288.518C171.475 288.518 171.822 288.468 172.15 288.369C172.483 288.265 172.782 288.114 173.048 287.916C173.319 287.718 173.545 287.476 173.728 287.189C173.915 286.903 174.045 286.572 174.118 286.197H175.907C175.819 286.781 175.639 287.312 175.368 287.791C175.098 288.27 174.749 288.687 174.322 289.041C173.9 289.39 173.415 289.661 172.868 289.854C172.327 290.041 171.736 290.135 171.095 290.135ZM177.829 289.979V281.299H179.478V282.689H179.564C179.725 282.221 180.001 281.854 180.392 281.588C180.788 281.317 181.243 281.182 181.759 281.182C181.868 281.182 181.991 281.187 182.126 281.197C182.267 281.202 182.381 281.21 182.47 281.221V282.846C182.407 282.83 182.288 282.812 182.111 282.791C181.934 282.77 181.754 282.76 181.572 282.76C181.186 282.76 180.837 282.843 180.525 283.01C180.217 283.171 179.975 283.4 179.798 283.697C179.626 283.989 179.54 284.33 179.54 284.721V289.979H177.829ZM187.392 290.158C186.538 290.158 185.801 289.973 185.181 289.604C184.561 289.234 184.085 288.715 183.751 288.049C183.418 287.377 183.251 286.593 183.251 285.697C183.251 284.807 183.415 284.023 183.743 283.346C184.077 282.669 184.543 282.14 185.142 281.76C185.746 281.374 186.449 281.182 187.251 281.182C187.762 281.182 188.249 281.265 188.712 281.432C189.181 281.598 189.598 281.859 189.962 282.213C190.327 282.567 190.616 283.02 190.829 283.572C191.043 284.124 191.15 284.786 191.15 285.557V286.15H184.189V284.869H190.267L189.47 285.291C189.47 284.76 189.384 284.291 189.212 283.885C189.045 283.479 188.798 283.163 188.47 282.939C188.147 282.71 187.743 282.596 187.259 282.596C186.775 282.596 186.361 282.713 186.017 282.947C185.678 283.176 185.418 283.484 185.236 283.869C185.053 284.249 184.962 284.669 184.962 285.127V285.979C184.962 286.567 185.064 287.07 185.267 287.486C185.47 287.898 185.754 288.21 186.118 288.424C186.488 288.637 186.918 288.744 187.407 288.744C187.736 288.744 188.03 288.697 188.29 288.604C188.556 288.51 188.782 288.369 188.97 288.182C189.157 287.994 189.301 287.765 189.4 287.494L191.009 287.838C190.879 288.296 190.647 288.7 190.314 289.049C189.98 289.398 189.566 289.671 189.072 289.869C188.577 290.062 188.017 290.158 187.392 290.158ZM196.212 290.15C195.514 290.15 194.889 289.971 194.337 289.611C193.79 289.247 193.361 288.729 193.048 288.057C192.736 287.385 192.579 286.585 192.579 285.658C192.579 284.721 192.738 283.919 193.056 283.252C193.374 282.58 193.809 282.067 194.361 281.713C194.913 281.359 195.538 281.182 196.236 281.182C196.756 281.182 197.181 281.268 197.509 281.439C197.842 281.606 198.105 281.809 198.298 282.049C198.491 282.283 198.639 282.499 198.743 282.697H198.837V281.299H200.54V289.979H198.853V288.627H198.743C198.639 288.825 198.486 289.044 198.282 289.283C198.085 289.523 197.819 289.729 197.486 289.9C197.152 290.067 196.728 290.15 196.212 290.15ZM196.611 288.689C197.095 288.689 197.506 288.562 197.845 288.307C198.184 288.051 198.439 287.695 198.611 287.236C198.788 286.778 198.876 286.247 198.876 285.643C198.876 285.038 198.788 284.512 198.611 284.064C198.439 283.617 198.184 283.268 197.845 283.018C197.512 282.768 197.1 282.643 196.611 282.643C196.111 282.643 195.691 282.773 195.353 283.033C195.014 283.288 194.759 283.643 194.587 284.096C194.415 284.544 194.329 285.059 194.329 285.643C194.329 286.226 194.415 286.747 194.587 287.205C194.764 287.663 195.022 288.025 195.361 288.291C195.699 288.557 196.116 288.689 196.611 288.689ZM206.579 281.299V282.689H201.837V281.299H206.579ZM203.126 279.197H204.837V287.635C204.837 287.984 204.91 288.239 205.056 288.4C205.202 288.557 205.444 288.635 205.782 288.635C205.876 288.635 205.996 288.627 206.142 288.611C206.288 288.59 206.413 288.57 206.517 288.549L206.79 289.924C206.613 289.981 206.42 290.02 206.212 290.041C206.004 290.067 205.801 290.08 205.603 290.08C204.811 290.08 204.199 289.882 203.767 289.486C203.34 289.085 203.126 288.518 203.126 287.783V279.197ZM211.814 290.158C210.96 290.158 210.223 289.973 209.603 289.604C208.983 289.234 208.506 288.715 208.173 288.049C207.84 287.377 207.673 286.593 207.673 285.697C207.673 284.807 207.837 284.023 208.165 283.346C208.499 282.669 208.965 282.14 209.564 281.76C210.168 281.374 210.871 281.182 211.673 281.182C212.184 281.182 212.67 281.265 213.134 281.432C213.603 281.598 214.019 281.859 214.384 282.213C214.749 282.567 215.038 283.02 215.251 283.572C215.465 284.124 215.572 284.786 215.572 285.557V286.15H208.611V284.869H214.689L213.892 285.291C213.892 284.76 213.806 284.291 213.634 283.885C213.467 283.479 213.22 283.163 212.892 282.939C212.569 282.71 212.165 282.596 211.681 282.596C211.197 282.596 210.782 282.713 210.439 282.947C210.1 283.176 209.84 283.484 209.657 283.869C209.475 284.249 209.384 284.669 209.384 285.127V285.979C209.384 286.567 209.486 287.07 209.689 287.486C209.892 287.898 210.176 288.21 210.54 288.424C210.91 288.637 211.34 288.744 211.829 288.744C212.157 288.744 212.452 288.697 212.712 288.604C212.978 288.51 213.204 288.369 213.392 288.182C213.579 287.994 213.723 287.765 213.822 287.494L215.431 287.838C215.301 288.296 215.069 288.7 214.736 289.049C214.402 289.398 213.988 289.671 213.493 289.869C212.999 290.062 212.439 290.158 211.814 290.158Z" fill="white"/>
<rect x="472.52" y="88.834" width="143.981" height="143.981" rx="3.5" fill="white"/>
<rect x="472.52" y="88.834" width="143.981" height="143.981" rx="3.5" stroke="#E4E4E7"/>
<g clip-path="url(#clip3_4660_96300)">
<path fill-rule="evenodd" clip-rule="evenodd" d="M544.944 131.533C544.67 131.401 544.351 131.401 544.077 131.533L520.763 142.76C520.489 142.892 520.29 143.142 520.222 143.439L514.464 168.666C514.396 168.963 514.467 169.274 514.657 169.512L530.791 189.743C530.98 189.981 531.268 190.12 531.572 190.12H557.449C557.753 190.12 558.041 189.981 558.23 189.743L574.364 169.512C574.554 169.274 574.625 168.963 574.557 168.666L568.799 143.439C568.731 143.142 568.532 142.892 568.258 142.76L544.944 131.533ZM543.617 141.568C543.846 141.313 544.168 141.159 544.51 141.14L544.513 141.132C544.856 141.151 545.177 141.304 545.407 141.56C545.636 141.815 545.756 142.15 545.739 142.493V142.842C545.705 143.233 545.648 143.622 545.57 144.007C545.451 144.743 545.405 145.488 545.431 146.232C545.479 146.481 545.623 146.701 545.831 146.845C545.832 146.864 545.834 146.891 545.837 146.926C545.846 147.051 545.861 147.261 545.861 147.39C549.738 147.742 553.355 149.489 556.041 152.308L556.506 151.976C556.757 152.018 557.015 151.99 557.25 151.894C557.848 151.45 558.402 150.95 558.903 150.399C559.159 150.097 559.431 149.811 559.72 149.541C559.796 149.476 559.908 149.389 559.992 149.323C560.113 149.195 560.26 149.093 560.424 149.026C560.587 148.96 560.763 148.929 560.94 148.936C561.116 148.943 561.289 148.987 561.447 149.067C561.604 149.146 561.743 149.259 561.854 149.397C561.964 149.535 562.044 149.695 562.087 149.866C562.13 150.037 562.136 150.215 562.105 150.389C562.073 150.563 562.005 150.728 561.904 150.873C561.803 151.018 561.672 151.139 561.52 151.23C561.496 151.249 561.469 151.271 561.442 151.293C561.375 151.348 561.304 151.407 561.248 151.447C560.92 151.665 560.58 151.863 560.229 152.041C559.581 152.408 558.97 152.838 558.405 153.324C558.24 153.516 558.157 153.765 558.173 154.018L557.737 154.408C559.912 157.65 560.821 161.577 560.292 165.445L560.787 165.589C560.909 165.817 561.092 166.006 561.316 166.134C562.035 166.326 562.771 166.447 563.513 166.496C563.907 166.506 564.3 166.537 564.69 166.592C564.756 166.604 564.84 166.625 564.92 166.645C564.965 166.656 565.009 166.667 565.047 166.676C565.216 166.699 565.378 166.757 565.524 166.847C565.67 166.936 565.795 167.055 565.892 167.195C565.989 167.335 566.056 167.495 566.089 167.662C566.121 167.83 566.118 168.003 566.08 168.169C566.042 168.336 565.97 168.492 565.868 168.629C565.766 168.767 565.637 168.881 565.489 168.966C565.34 169.05 565.176 169.103 565.006 169.12C564.836 169.138 564.665 169.12 564.502 169.067H564.458C564.425 169.06 564.389 169.053 564.352 169.045C564.278 169.031 564.202 169.015 564.143 168.999C563.772 168.878 563.408 168.736 563.053 168.574C562.363 168.296 561.647 168.085 560.915 167.945C560.662 167.937 560.416 168.028 560.229 168.198C560.142 168.179 559.864 168.13 559.706 168.106C558.518 171.839 555.998 175.005 552.626 177C552.683 177.169 552.751 177.335 552.83 177.496C552.704 177.715 552.67 177.976 552.735 178.22C553.034 178.903 553.398 179.555 553.824 180.167C554.062 180.48 554.282 180.807 554.483 181.145C554.525 181.221 554.578 181.335 554.622 181.428C554.629 181.444 554.637 181.46 554.644 181.474C554.73 181.622 554.785 181.786 554.805 181.955C554.824 182.125 554.808 182.297 554.758 182.46C554.708 182.623 554.624 182.774 554.512 182.903C554.4 183.032 554.263 183.137 554.108 183.21C553.954 183.283 553.786 183.323 553.615 183.328C553.444 183.332 553.274 183.301 553.116 183.237C552.958 183.172 552.815 183.075 552.697 182.952C552.578 182.829 552.486 182.683 552.427 182.523C552.411 182.491 552.393 182.455 552.375 182.418C552.339 182.345 552.301 182.269 552.274 182.21C552.134 181.842 552.015 181.466 551.918 181.085C551.705 180.372 551.423 179.682 551.076 179.024C550.925 178.819 550.7 178.682 550.45 178.642C550.414 178.594 550.325 178.435 550.25 178.3C550.223 178.252 550.198 178.207 550.177 178.171C546.529 179.552 542.5 179.541 538.859 178.141L538.587 178.645C538.388 178.682 538.204 178.779 538.062 178.923C537.643 179.609 537.323 180.351 537.111 181.126C537.015 181.507 536.897 181.883 536.757 182.251C536.73 182.312 536.692 182.389 536.656 182.461C536.638 182.497 536.62 182.532 536.605 182.564C536.546 182.725 536.454 182.872 536.336 182.996C536.217 183.119 536.074 183.217 535.915 183.282C535.756 183.347 535.586 183.378 535.415 183.373C535.243 183.369 535.075 183.328 534.92 183.255C534.765 183.181 534.627 183.076 534.515 182.946C534.403 182.817 534.32 182.665 534.27 182.501C534.22 182.337 534.205 182.164 534.226 181.994C534.247 181.824 534.303 181.66 534.391 181.513C534.407 181.478 534.426 181.438 534.446 181.395C534.48 181.321 534.517 181.242 534.548 181.183C534.749 180.844 534.969 180.517 535.208 180.203C535.641 179.574 536.013 178.906 536.319 178.207C536.352 177.969 536.314 177.728 536.21 177.512L536.433 176.967C533.073 174.987 530.554 171.846 529.352 168.136L528.808 168.228C528.6 168.082 528.356 167.996 528.102 167.981C527.371 168.12 526.655 168.331 525.965 168.61C525.61 168.771 525.246 168.912 524.875 169.032C524.811 169.05 524.723 169.068 524.642 169.085C524.613 169.091 524.585 169.097 524.559 169.103H524.516C524.353 169.155 524.182 169.173 524.012 169.156C523.842 169.138 523.677 169.085 523.529 169.001C523.381 168.916 523.251 168.802 523.15 168.665C523.048 168.528 522.976 168.371 522.938 168.204C522.9 168.038 522.897 167.865 522.929 167.698C522.962 167.53 523.029 167.371 523.126 167.23C523.223 167.09 523.348 166.971 523.494 166.882C523.639 166.793 523.802 166.735 523.971 166.711H523.99L524.007 166.707C524.106 166.683 524.23 166.653 524.317 166.635C524.707 166.581 525.1 166.549 525.494 166.54C526.236 166.491 526.972 166.37 527.691 166.178C527.905 166.038 528.085 165.852 528.217 165.633L528.732 165.483C528.174 161.613 529.065 157.672 531.234 154.419L530.842 154.067C530.828 153.813 530.743 153.568 530.597 153.359C530.032 152.873 529.421 152.444 528.772 152.076C528.423 151.898 528.083 151.7 527.757 151.483C527.71 151.448 527.653 151.401 527.597 151.355C527.565 151.329 527.533 151.302 527.503 151.279H527.484C527.205 151.078 527.016 150.776 526.96 150.437C526.903 150.098 526.983 149.75 527.182 149.47C527.299 149.326 527.449 149.212 527.619 149.137C527.789 149.062 527.974 149.028 528.16 149.037C528.472 149.05 528.771 149.163 529.015 149.359C529.025 149.367 529.036 149.375 529.047 149.383C529.126 149.445 529.222 149.519 529.287 149.576C529.576 149.846 529.849 150.133 530.104 150.434C530.605 150.985 531.159 151.486 531.757 151.929C531.982 152.048 532.244 152.073 532.487 152C532.527 152.023 532.621 152.091 532.719 152.162C532.794 152.217 532.872 152.273 532.931 152.313C535.086 150.023 537.877 148.428 540.946 147.736C541.676 147.57 542.416 147.456 543.162 147.395L543.192 146.875C543.382 146.706 543.52 146.485 543.59 146.24C543.617 145.496 543.571 144.751 543.454 144.016C543.375 143.631 543.319 143.241 543.285 142.85V142.537V142.501C543.268 142.159 543.387 141.823 543.617 141.568ZM542.609 157.085L542.974 150.652C542.538 150.705 542.104 150.781 541.675 150.878C539.378 151.394 537.271 152.542 535.592 154.192L540.867 157.902C541.025 158.013 541.21 158.081 541.402 158.097C541.595 158.114 541.789 158.079 541.964 157.996C542.138 157.912 542.288 157.784 542.397 157.624C542.505 157.464 542.569 157.278 542.582 157.085H542.609ZM553.402 154.192C551.405 152.238 548.822 150.994 546.049 150.652L546.422 157.093C546.435 157.286 546.499 157.473 546.608 157.634C546.716 157.794 546.866 157.923 547.041 158.006C547.217 158.089 547.411 158.124 547.604 158.107C547.797 158.09 547.982 158.022 548.14 157.91H548.16L553.402 154.192ZM538.486 160.903L533.669 156.594V156.597C532.204 158.99 531.577 161.802 531.888 164.59L538.062 162.809V162.787C538.248 162.733 538.417 162.63 538.551 162.489C538.684 162.348 538.777 162.173 538.821 161.984C538.864 161.794 538.856 161.596 538.797 161.411C538.738 161.226 538.631 161.06 538.486 160.93V160.903ZM557.163 164.566C557.431 161.778 556.783 158.98 555.316 156.594L555.325 156.619L550.534 160.905C550.39 161.035 550.282 161.201 550.223 161.387C550.165 161.572 550.156 161.77 550.2 161.959C550.243 162.149 550.336 162.323 550.47 162.464C550.603 162.606 550.772 162.709 550.959 162.763V162.79L557.163 164.566ZM545.496 161.224H543.522L542.291 162.755L542.732 164.661L544.508 165.516L546.28 164.664L546.722 162.757L545.496 161.224ZM550.096 166.491C550.014 166.475 549.931 166.469 549.848 166.472V166.491C549.674 166.501 549.506 166.553 549.356 166.642C549.206 166.731 549.08 166.855 548.988 167.002C548.896 167.15 548.841 167.318 548.827 167.491C548.813 167.665 548.841 167.839 548.908 168L551.387 173.991C553.749 172.478 555.541 170.223 556.482 167.58L550.096 166.491ZM539.625 166.638C539.47 166.551 539.298 166.504 539.121 166.499L539.113 166.485C539.041 166.485 538.97 166.491 538.9 166.505L532.569 167.58C533.52 170.209 535.312 172.451 537.667 173.958L540.118 168.03L540.099 168.005C540.166 167.842 540.193 167.665 540.177 167.489C540.161 167.313 540.102 167.143 540.006 166.995C539.91 166.847 539.779 166.724 539.625 166.638ZM545.046 169.241C544.871 169.141 544.671 169.091 544.469 169.097V169.108C544.28 169.115 544.096 169.172 543.935 169.272C543.774 169.372 543.642 169.513 543.552 169.68L540.439 175.309C542.668 176.068 545.064 176.191 547.359 175.666C547.78 175.57 548.196 175.454 548.606 175.317L545.485 169.666H545.461C545.364 169.489 545.221 169.342 545.046 169.241Z" fill="#111827"/>
</g>
<path d="M424.772 160.42L431.869 167.518L424.772 174.615" stroke="#9CA3AF" stroke-width="2" stroke-linecap="round" stroke-linejoin="round"/>
<path d="M431.869 167.518H405.104" stroke="#9CA3AF" stroke-width="2" stroke-linecap="round" stroke-linejoin="round"/>
</g>
<defs>
<filter id="filter0_dd_4660_96300" x="0" y="0.978516" width="633.001" height="346" filterUnits="userSpaceOnUse" color-interpolation-filters="sRGB">
<feFlood flood-opacity="0" result="BackgroundImageFix"/>
<feColorMatrix in="SourceAlpha" type="matrix" values="0 0 0 0 0 0 0 0 0 0 0 0 0 0 0 0 0 0 127 0" result="hardAlpha"/>
<feOffset dy="2"/>
<feGaussianBlur stdDeviation="8"/>
<feColorMatrix type="matrix" values="0 0 0 0 0.129412 0 0 0 0 0.168627 0 0 0 0 0.211765 0 0 0 0.08 0"/>
<feBlend mode="normal" in2="BackgroundImageFix" result="effect1_dropShadow_4660_96300"/>
<feColorMatrix in="SourceAlpha" type="matrix" values="0 0 0 0 0 0 0 0 0 0 0 0 0 0 0 0 0 0 127 0" result="hardAlpha"/>
<feMorphology radius="1" operator="dilate" in="SourceAlpha" result="effect2_dropShadow_4660_96300"/>
<feOffset/>
<feColorMatrix type="matrix" values="0 0 0 0 0.0235294 0 0 0 0 0.172549 0 0 0 0 0.321569 0 0 0 0.1 0"/>
<feBlend mode="normal" in2="effect1_dropShadow_4660_96300" result="effect2_dropShadow_4660_96300"/>
<feBlend mode="normal" in="SourceGraphic" in2="effect2_dropShadow_4660_96300" result="shape"/>
</filter>
<clipPath id="clip0_4660_96300">
<rect x="41" y="67.9785" width="299.955" height="36" rx="4" fill="white"/>
</clipPath>
<clipPath id="clip1_4660_96300">
<rect x="41" y="151.979" width="299.955" height="36" rx="4" fill="white"/>
</clipPath>
<clipPath id="clip2_4660_96300">
<rect x="41" y="207.979" width="299.955" height="36" rx="4" fill="white"/>
</clipPath>
<clipPath id="clip3_4660_96300">
<rect width="60" height="60" fill="white" transform="translate(514.51 130.825)"/>
</clipPath>
</defs>
</svg>
