<svg width="409" height="318" viewBox="0 0 409 318" fill="none" xmlns="http://www.w3.org/2000/svg">
<g filter="url(#filter0_dd_4668_106692)">
<rect x="17" y="15.2129" width="231.325" height="309.783" rx="8" fill="#FAFAFA"/>
<rect x="17" y="15.2129" width="231.325" height="309.783" rx="8" stroke="#E4E4E7"/>
<path d="M38.1279 52.2129V42.0273H39.9258L43.7607 48.0908C43.8883 48.2913 44.0319 48.5306 44.1914 48.8086C44.3509 49.0866 44.5195 49.401 44.6973 49.752C44.875 50.0983 45.0505 50.4766 45.2236 50.8867H45.0322C44.9912 50.4993 44.9593 50.1165 44.9365 49.7383C44.9183 49.3555 44.9046 48.9977 44.8955 48.665C44.8864 48.3324 44.8818 48.0521 44.8818 47.8242V42.0273H46.4609V52.2129H44.6562L41.2178 46.792C41.0355 46.4958 40.8555 46.1973 40.6777 45.8965C40.5046 45.5957 40.3109 45.2493 40.0967 44.8574C39.887 44.4609 39.6296 43.9801 39.3242 43.415H39.5703C39.5931 43.9163 39.6159 44.3857 39.6387 44.8232C39.6615 45.2562 39.6774 45.6413 39.6865 45.9785C39.7002 46.3112 39.707 46.5778 39.707 46.7783V52.2129H38.1279ZM51.4443 52.3633C50.8291 52.3633 50.2799 52.2061 49.7969 51.8916C49.3184 51.5726 48.9401 51.1191 48.6621 50.5312C48.3887 49.9388 48.252 49.2324 48.252 48.4121C48.252 47.5827 48.391 46.874 48.6689 46.2861C48.9515 45.6982 49.3343 45.2493 49.8174 44.9395C50.305 44.6296 50.8542 44.4746 51.4648 44.4746C51.9342 44.4746 52.3125 44.5521 52.5996 44.707C52.8913 44.862 53.1169 45.0465 53.2764 45.2607C53.4404 45.4704 53.5658 45.6549 53.6523 45.8145H53.748V44.5703H55.2383V52.2129H53.7549V51.0166H53.6523C53.5658 51.1807 53.4382 51.3698 53.2695 51.584C53.1009 51.7936 52.8708 51.9759 52.5791 52.1309C52.2874 52.2858 51.9092 52.3633 51.4443 52.3633ZM51.793 51.085C52.2214 51.085 52.5814 50.971 52.873 50.7432C53.1693 50.5153 53.3926 50.2008 53.543 49.7998C53.6934 49.3942 53.7686 48.9271 53.7686 48.3984C53.7686 47.8652 53.6934 47.4027 53.543 47.0107C53.3926 46.6143 53.1693 46.3066 52.873 46.0879C52.5814 45.8646 52.2214 45.7529 51.793 45.7529C51.3509 45.7529 50.9818 45.8691 50.6855 46.1016C50.3893 46.3294 50.166 46.6439 50.0156 47.0449C49.8652 47.4414 49.79 47.8926 49.79 48.3984C49.79 48.9043 49.8652 49.36 50.0156 49.7656C50.166 50.1712 50.3893 50.4925 50.6855 50.7295C50.9863 50.9665 51.3555 51.085 51.793 51.085ZM57.2617 52.2129V44.5703H58.6904L58.7314 46.3408H58.6152C58.7246 45.9079 58.8932 45.5524 59.1211 45.2744C59.349 44.9964 59.6156 44.7891 59.9209 44.6523C60.2262 44.5111 60.5452 44.4404 60.8779 44.4404C61.4339 44.4404 61.8828 44.6136 62.2246 44.96C62.5664 45.3018 62.7965 45.7803 62.915 46.3955H62.7236C62.8239 45.9762 62.9971 45.6208 63.2432 45.3291C63.4893 45.0374 63.7855 44.8164 64.1318 44.666C64.4827 44.5156 64.8564 44.4404 65.2529 44.4404C65.7041 44.4404 66.112 44.5384 66.4766 44.7344C66.8457 44.9303 67.1374 45.222 67.3516 45.6094C67.5658 45.9967 67.6729 46.4798 67.6729 47.0586V52.2129H66.1621V47.209C66.1621 46.6986 66.0208 46.3294 65.7383 46.1016C65.4557 45.8737 65.1208 45.7598 64.7334 45.7598C64.4189 45.7598 64.1478 45.8258 63.9199 45.958C63.6921 46.0902 63.5166 46.2747 63.3936 46.5117C63.2705 46.7441 63.209 47.013 63.209 47.3184V52.2129H61.7256V47.1133C61.7256 46.7031 61.5934 46.375 61.3291 46.1289C61.0693 45.8828 60.7367 45.7598 60.3311 45.7598C60.0531 45.7598 59.7933 45.8258 59.5518 45.958C59.3148 46.0856 59.1234 46.277 58.9775 46.5322C58.8363 46.7829 58.7656 47.0928 58.7656 47.4619V52.2129H57.2617ZM72.998 52.3701C72.2461 52.3701 71.5967 52.2083 71.0498 51.8848C70.5029 51.5612 70.0814 51.1055 69.7852 50.5176C69.4935 49.9297 69.3477 49.2393 69.3477 48.4463C69.3477 47.6624 69.4912 46.972 69.7783 46.375C70.07 45.778 70.4801 45.3132 71.0088 44.9805C71.5374 44.6432 72.1572 44.4746 72.8682 44.4746C73.3057 44.4746 73.7272 44.5475 74.1328 44.6934C74.5384 44.8346 74.903 45.0579 75.2266 45.3633C75.5501 45.6686 75.8053 46.0651 75.9922 46.5527C76.1836 47.0358 76.2793 47.6237 76.2793 48.3164V48.8496H70.1885V47.7285H75.5068L74.8027 48.0977C74.8027 47.6283 74.7298 47.2158 74.584 46.8604C74.4382 46.5003 74.2217 46.2201 73.9346 46.0195C73.652 45.819 73.2965 45.7188 72.8682 45.7188C72.4443 45.7188 72.082 45.8213 71.7812 46.0264C71.4805 46.2314 71.2503 46.5026 71.0908 46.8398C70.9359 47.1725 70.8584 47.5371 70.8584 47.9336V48.6992C70.8584 49.2233 70.9473 49.6676 71.125 50.0322C71.3073 50.3923 71.5602 50.6657 71.8838 50.8525C72.2074 51.0348 72.5833 51.126 73.0117 51.126C73.2943 51.126 73.5495 51.0872 73.7773 51.0098C74.0052 50.9277 74.2012 50.807 74.3652 50.6475C74.5339 50.4834 74.6615 50.2829 74.748 50.0459L76.1631 50.3809C76.04 50.7728 75.8327 51.1191 75.541 51.4199C75.2539 51.7207 74.8939 51.9554 74.4609 52.124C74.0326 52.2881 73.5449 52.3701 72.998 52.3701Z" fill="#111827"/>
<g clip-path="url(#clip0_4668_106692)">
<rect x="37" y="63.2129" width="191.325" height="36" rx="4" fill="white"/>
<path d="M49.4092 86.2129H46.9482V85.0645H49.3271C50.1566 85.0645 50.8424 84.9072 51.3848 84.5928C51.9316 84.2738 52.3395 83.818 52.6084 83.2256C52.8773 82.6331 53.0117 81.9245 53.0117 81.0996C53.0117 80.2839 52.8773 79.5843 52.6084 79.001C52.3441 78.4131 51.9476 77.9619 51.4189 77.6475C50.8949 77.333 50.2386 77.1758 49.4502 77.1758H46.8936V76.0273H49.5391C50.5326 76.0273 51.3802 76.2301 52.082 76.6357C52.7884 77.0413 53.3285 77.6247 53.7021 78.3857C54.0804 79.1423 54.2695 80.0469 54.2695 81.0996C54.2695 82.1615 54.0804 83.0752 53.7021 83.8408C53.3239 84.6019 52.7725 85.1875 52.0479 85.5977C51.3232 86.0078 50.4437 86.2129 49.4092 86.2129ZM47.5293 76.0273V86.2129H46.2305V76.0273H47.5293ZM59.3965 86.377C58.6582 86.377 58.0202 86.2129 57.4824 85.8848C56.9492 85.5566 56.5368 85.0986 56.2451 84.5107C55.958 83.9229 55.8145 83.237 55.8145 82.4531C55.8145 81.6693 55.9557 80.9788 56.2383 80.3818C56.5208 79.7848 56.9196 79.3177 57.4346 78.9805C57.9541 78.6432 58.5602 78.4746 59.2529 78.4746C59.6585 78.4746 60.0573 78.543 60.4492 78.6797C60.8457 78.8118 61.2035 79.0283 61.5225 79.3291C61.846 79.6253 62.1035 80.0173 62.2949 80.5049C62.4863 80.9925 62.582 81.5895 62.582 82.2959V82.8086H56.6484V81.7695H61.9189L61.3447 82.1523C61.3447 81.651 61.265 81.2067 61.1055 80.8193C60.9505 80.4274 60.7181 80.1221 60.4082 79.9033C60.0983 79.68 59.7132 79.5684 59.2529 79.5684C58.7926 79.5684 58.3984 79.6823 58.0703 79.9102C57.7422 80.1335 57.4915 80.4274 57.3184 80.792C57.1452 81.152 57.0586 81.5394 57.0586 81.9541V82.6445C57.0586 83.2096 57.1566 83.6904 57.3525 84.0869C57.5485 84.4788 57.8219 84.7773 58.1729 84.9824C58.5283 85.1829 58.9385 85.2832 59.4033 85.2832C59.7041 85.2832 59.9775 85.2399 60.2236 85.1533C60.4697 85.0667 60.6816 84.9368 60.8594 84.7637C61.0371 84.5859 61.1738 84.3672 61.2695 84.1074L62.459 84.4355C62.3405 84.8184 62.14 85.1556 61.8574 85.4473C61.5749 85.7389 61.224 85.9668 60.8047 86.1309C60.39 86.2949 59.9206 86.377 59.3965 86.377ZM66.2803 86.2129L63.3613 78.5703H64.708L66.335 83.1025C66.5081 83.5719 66.654 84.0413 66.7725 84.5107C66.8955 84.9756 67.0231 85.4268 67.1553 85.8643H66.7041C66.8363 85.4268 66.9616 84.9756 67.0801 84.5107C67.2031 84.0413 67.349 83.5719 67.5176 83.1025L69.1445 78.5703H70.4912L67.5723 86.2129H66.2803ZM78.9951 86.377C78.3024 86.377 77.694 86.2129 77.1699 85.8848C76.6504 85.5566 76.2448 85.0964 75.9531 84.5039C75.6615 83.9115 75.5156 83.2233 75.5156 82.4395C75.5156 81.6419 75.6615 80.9469 75.9531 80.3545C76.2448 79.7575 76.6504 79.2949 77.1699 78.9668C77.694 78.6387 78.3024 78.4746 78.9951 78.4746C79.3643 78.4746 79.7129 78.5225 80.041 78.6182C80.3691 78.7139 80.6676 78.8529 80.9365 79.0352C81.21 79.2129 81.4447 79.4339 81.6406 79.6982C81.8366 79.958 81.987 80.2542 82.0918 80.5869L80.9092 80.9219C80.8545 80.7259 80.7702 80.5459 80.6562 80.3818C80.5423 80.2178 80.4033 80.0765 80.2393 79.958C80.0798 79.835 79.8952 79.7415 79.6855 79.6777C79.4759 79.6094 79.2458 79.5752 78.9951 79.5752C78.4847 79.5752 78.0654 79.7096 77.7373 79.9785C77.4092 80.2428 77.1654 80.5915 77.0059 81.0244C76.8464 81.4574 76.7666 81.929 76.7666 82.4395C76.7666 82.9408 76.8464 83.4079 77.0059 83.8408C77.1654 84.2692 77.4092 84.6156 77.7373 84.8799C78.0654 85.1442 78.4847 85.2764 78.9951 85.2764C79.2503 85.2764 79.485 85.2422 79.6992 85.1738C79.9134 85.1055 80.1025 85.0098 80.2666 84.8867C80.4352 84.7591 80.5765 84.6087 80.6904 84.4355C80.8044 84.2624 80.8887 84.0732 80.9434 83.8682L82.1191 84.2031C82.0189 84.5449 81.8685 84.8503 81.668 85.1191C81.472 85.3835 81.2373 85.6113 80.9639 85.8027C80.6904 85.9896 80.3874 86.1309 80.0547 86.2266C79.722 86.3268 79.3688 86.377 78.9951 86.377ZM85.1133 76.0273V86.2129H83.8828V76.0273H85.1133ZM89.8643 86.3086C89.3493 86.3086 88.8958 86.2038 88.5039 85.9941C88.1165 85.7799 87.8135 85.4587 87.5947 85.0303C87.3805 84.6019 87.2734 84.0664 87.2734 83.4238V78.5703H88.5039V83.3213C88.5039 83.9092 88.6589 84.3695 88.9688 84.7021C89.2786 85.0348 89.7002 85.2012 90.2334 85.2012C90.598 85.2012 90.9238 85.1214 91.2109 84.9619C91.5026 84.8024 91.7327 84.57 91.9014 84.2646C92.07 83.9548 92.1543 83.5833 92.1543 83.1504V78.5703H93.3916V86.2129H92.2021V84.3604H92.3662C92.1292 85.0758 91.792 85.5794 91.3545 85.8711C90.9215 86.1628 90.4248 86.3086 89.8643 86.3086ZM98.1562 86.377C97.6322 86.377 97.165 86.3018 96.7549 86.1514C96.3493 85.9964 96.0143 85.7686 95.75 85.4678C95.4857 85.167 95.3079 84.7979 95.2168 84.3604L96.3857 84.0801C96.4951 84.4993 96.7002 84.807 97.001 85.0029C97.3063 85.1989 97.6868 85.2969 98.1426 85.2969C98.6758 85.2969 99.0996 85.1829 99.4141 84.9551C99.7331 84.7272 99.8926 84.4561 99.8926 84.1416C99.8926 83.8773 99.7992 83.6585 99.6123 83.4854C99.43 83.3076 99.1497 83.1755 98.7715 83.0889L97.5 82.7881C96.8073 82.624 96.2923 82.3711 95.9551 82.0293C95.6178 81.6829 95.4492 81.2409 95.4492 80.7031C95.4492 80.2656 95.5723 79.8805 95.8184 79.5479C96.0645 79.2106 96.3994 78.9486 96.8232 78.7617C97.2516 78.5703 97.737 78.4746 98.2793 78.4746C98.8034 78.4746 99.2477 78.5544 99.6123 78.7139C99.9814 78.8688 100.28 79.0853 100.508 79.3633C100.74 79.6367 100.913 79.9535 101.027 80.3135L99.9131 80.6006C99.8083 80.3271 99.6328 80.0788 99.3867 79.8555C99.1452 79.6322 98.7783 79.5205 98.2861 79.5205C97.8304 79.5205 97.4499 79.6253 97.1445 79.835C96.8438 80.0446 96.6934 80.3089 96.6934 80.6279C96.6934 80.9105 96.7959 81.1383 97.001 81.3115C97.2061 81.4801 97.5319 81.6169 97.9785 81.7217L99.1338 81.9951C99.8265 82.1592 100.339 82.4144 100.672 82.7607C101.005 83.1025 101.171 83.5355 101.171 84.0596C101.171 84.5062 101.043 84.9049 100.788 85.2559C100.537 85.6022 100.184 85.8757 99.7285 86.0762C99.2773 86.2767 98.7533 86.377 98.1562 86.377ZM105.963 78.5703V79.623H102.012V78.5703H105.963ZM103.16 76.752H104.391V84.2305C104.391 84.5723 104.459 84.8229 104.596 84.9824C104.737 85.1374 104.969 85.2148 105.293 85.2148C105.37 85.2148 105.468 85.2057 105.587 85.1875C105.71 85.1693 105.822 85.151 105.922 85.1328L106.175 86.1719C106.047 86.2174 105.901 86.2516 105.737 86.2744C105.578 86.2972 105.418 86.3086 105.259 86.3086C104.598 86.3086 104.083 86.1354 103.714 85.7891C103.345 85.4382 103.16 84.9505 103.16 84.3262V76.752ZM110.611 86.377C109.873 86.377 109.235 86.2129 108.697 85.8848C108.164 85.5566 107.752 85.0986 107.46 84.5107C107.173 83.9229 107.029 83.237 107.029 82.4531C107.029 81.6693 107.171 80.9788 107.453 80.3818C107.736 79.7848 108.134 79.3177 108.649 78.9805C109.169 78.6432 109.775 78.4746 110.468 78.4746C110.873 78.4746 111.272 78.543 111.664 78.6797C112.061 78.8118 112.418 79.0283 112.737 79.3291C113.061 79.6253 113.318 80.0173 113.51 80.5049C113.701 80.9925 113.797 81.5895 113.797 82.2959V82.8086H107.863V81.7695H113.134L112.56 82.1523C112.56 81.651 112.48 81.2067 112.32 80.8193C112.165 80.4274 111.933 80.1221 111.623 79.9033C111.313 79.68 110.928 79.5684 110.468 79.5684C110.007 79.5684 109.613 79.6823 109.285 79.9102C108.957 80.1335 108.706 80.4274 108.533 80.792C108.36 81.152 108.273 81.5394 108.273 81.9541V82.6445C108.273 83.2096 108.371 83.6904 108.567 84.0869C108.763 84.4788 109.037 84.7773 109.388 84.9824C109.743 85.1829 110.153 85.2832 110.618 85.2832C110.919 85.2832 111.192 85.2399 111.438 85.1533C111.685 85.0667 111.896 84.9368 112.074 84.7637C112.252 84.5859 112.389 84.3672 112.484 84.1074L113.674 84.4355C113.555 84.8184 113.355 85.1556 113.072 85.4473C112.79 85.7389 112.439 85.9668 112.02 86.1309C111.605 86.2949 111.135 86.377 110.611 86.377ZM115.561 86.2129V78.5703H116.75V79.7461H116.832C116.973 79.3587 117.224 79.0488 117.584 78.8164C117.949 78.5794 118.359 78.4609 118.814 78.4609C118.906 78.4609 119.013 78.4632 119.136 78.4678C119.263 78.4723 119.364 78.4769 119.437 78.4814V79.7188C119.4 79.7096 119.309 79.696 119.163 79.6777C119.017 79.6595 118.862 79.6504 118.698 79.6504C118.334 79.6504 118.006 79.7279 117.714 79.8828C117.427 80.0332 117.201 80.2428 117.037 80.5117C116.873 80.776 116.791 81.0814 116.791 81.4277V86.2129H115.561ZM128.036 86.3496C127.371 86.3496 126.781 86.2357 126.266 86.0078C125.751 85.7799 125.34 85.4632 125.035 85.0576C124.734 84.652 124.573 84.1803 124.55 83.6426H125.862C125.89 83.9661 125.999 84.2464 126.19 84.4834C126.386 84.7158 126.642 84.8958 126.956 85.0234C127.275 85.1465 127.628 85.208 128.016 85.208C128.444 85.208 128.822 85.1351 129.15 84.9893C129.483 84.8389 129.745 84.6292 129.937 84.3604C130.128 84.0915 130.224 83.7816 130.224 83.4307C130.224 83.0615 130.13 82.738 129.943 82.46C129.761 82.1774 129.494 81.9564 129.144 81.7969C128.793 81.6374 128.364 81.5576 127.858 81.5576H127.031V80.4297H127.858C128.255 80.4297 128.604 80.359 128.904 80.2178C129.21 80.0719 129.447 79.8691 129.615 79.6094C129.784 79.3496 129.868 79.0443 129.868 78.6934C129.868 78.3561 129.793 78.0622 129.643 77.8115C129.497 77.5609 129.287 77.3672 129.014 77.2305C128.74 77.0892 128.419 77.0186 128.05 77.0186C127.703 77.0186 127.378 77.0824 127.072 77.21C126.771 77.333 126.523 77.5107 126.327 77.7432C126.136 77.9756 126.033 78.2581 126.02 78.5908H124.769C124.787 78.0576 124.946 77.5882 125.247 77.1826C125.548 76.777 125.944 76.4603 126.437 76.2324C126.933 76.0046 127.48 75.8906 128.077 75.8906C128.711 75.8906 129.255 76.0182 129.711 76.2734C130.171 76.5286 130.524 76.8636 130.771 77.2783C131.017 77.693 131.14 78.1419 131.14 78.625C131.14 79.1992 130.987 79.6868 130.682 80.0879C130.381 80.4889 129.971 80.7669 129.451 80.9219V81.0039C129.884 81.0723 130.253 81.2181 130.559 81.4414C130.868 81.6647 131.103 81.9473 131.263 82.2891C131.427 82.6309 131.509 83.016 131.509 83.4443C131.509 84.0003 131.358 84.4971 131.058 84.9346C130.757 85.3721 130.344 85.7184 129.82 85.9736C129.296 86.2243 128.701 86.3496 128.036 86.3496Z" fill="#111827"/>
</g>
<rect x="37" y="63.2129" width="191.325" height="36" rx="4" stroke="#E4E4E7"/>
<path d="M38.1279 136.213V126.027H39.9258L43.7607 132.091C43.8883 132.291 44.0319 132.531 44.1914 132.809C44.3509 133.087 44.5195 133.401 44.6973 133.752C44.875 134.098 45.0505 134.477 45.2236 134.887H45.0322C44.9912 134.499 44.9593 134.117 44.9365 133.738C44.9183 133.355 44.9046 132.998 44.8955 132.665C44.8864 132.332 44.8818 132.052 44.8818 131.824V126.027H46.4609V136.213H44.6562L41.2178 130.792C41.0355 130.496 40.8555 130.197 40.6777 129.896C40.5046 129.596 40.3109 129.249 40.0967 128.857C39.887 128.461 39.6296 127.98 39.3242 127.415H39.5703C39.5931 127.916 39.6159 128.386 39.6387 128.823C39.6615 129.256 39.6774 129.641 39.6865 129.979C39.7002 130.311 39.707 130.578 39.707 130.778V136.213H38.1279ZM51.8203 136.37C51.1048 136.37 50.4782 136.206 49.9404 135.878C49.4072 135.55 48.9925 135.09 48.6963 134.497C48.4001 133.905 48.252 133.216 48.252 132.433C48.252 131.64 48.4001 130.947 48.6963 130.354C48.9925 129.757 49.4072 129.295 49.9404 128.967C50.4782 128.639 51.1048 128.475 51.8203 128.475C52.5404 128.475 53.167 128.639 53.7002 128.967C54.238 129.295 54.6549 129.757 54.9512 130.354C55.2474 130.947 55.3955 131.64 55.3955 132.433C55.3955 133.216 55.2474 133.905 54.9512 134.497C54.6549 135.09 54.238 135.55 53.7002 135.878C53.167 136.206 52.5404 136.37 51.8203 136.37ZM51.8203 135.099C52.2852 135.099 52.668 134.978 52.9688 134.736C53.2741 134.49 53.4997 134.167 53.6455 133.766C53.7959 133.36 53.8711 132.916 53.8711 132.433C53.8711 131.945 53.7959 131.498 53.6455 131.093C53.4997 130.683 53.2741 130.357 52.9688 130.115C52.668 129.869 52.2852 129.746 51.8203 129.746C51.36 129.746 50.9795 129.869 50.6787 130.115C50.3779 130.357 50.1523 130.68 50.002 131.086C49.8561 131.492 49.7832 131.94 49.7832 132.433C49.7832 132.916 49.8561 133.36 50.002 133.766C50.1523 134.167 50.3779 134.49 50.6787 134.736C50.9795 134.978 51.36 135.099 51.8203 135.099ZM59.9141 136.363C59.2943 136.363 58.7428 136.206 58.2598 135.892C57.7767 135.573 57.3984 135.119 57.125 134.531C56.8516 133.939 56.7148 133.232 56.7148 132.412C56.7148 131.583 56.8538 130.874 57.1318 130.286C57.4098 129.698 57.7904 129.249 58.2734 128.939C58.7565 128.63 59.3034 128.475 59.9141 128.475C60.388 128.475 60.7686 128.554 61.0557 128.714C61.3473 128.869 61.5752 129.051 61.7393 129.261C61.9033 129.47 62.0286 129.655 62.1152 129.814H62.1973V126.027H63.7012V136.213H62.2383V135.017H62.1152C62.0286 135.181 61.901 135.368 61.7324 135.577C61.5638 135.787 61.3337 135.971 61.042 136.131C60.7503 136.286 60.3743 136.363 59.9141 136.363ZM60.2422 135.085C60.6706 135.085 61.0306 134.971 61.3223 134.743C61.6185 134.515 61.8418 134.201 61.9922 133.8C62.1471 133.394 62.2246 132.927 62.2246 132.398C62.2246 131.865 62.1494 131.403 61.999 131.011C61.8486 130.614 61.6253 130.307 61.3291 130.088C61.0374 129.865 60.6751 129.753 60.2422 129.753C59.8001 129.753 59.431 129.869 59.1348 130.102C58.8431 130.334 58.6221 130.651 58.4717 131.052C58.3258 131.448 58.2529 131.897 58.2529 132.398C58.2529 132.904 58.3281 133.36 58.4785 133.766C58.6289 134.171 58.8522 134.493 59.1484 134.729C59.4447 134.966 59.8092 135.085 60.2422 135.085ZM69.0195 136.37C68.2676 136.37 67.6182 136.208 67.0713 135.885C66.5244 135.561 66.1029 135.105 65.8066 134.518C65.515 133.93 65.3691 133.239 65.3691 132.446C65.3691 131.662 65.5127 130.972 65.7998 130.375C66.0915 129.778 66.5016 129.313 67.0303 128.98C67.5589 128.643 68.1787 128.475 68.8896 128.475C69.3271 128.475 69.7487 128.548 70.1543 128.693C70.5599 128.835 70.9245 129.058 71.248 129.363C71.5716 129.669 71.8268 130.065 72.0137 130.553C72.2051 131.036 72.3008 131.624 72.3008 132.316V132.85H66.21V131.729H71.5283L70.8242 132.098C70.8242 131.628 70.7513 131.216 70.6055 130.86C70.4596 130.5 70.2432 130.22 69.9561 130.02C69.6735 129.819 69.318 129.719 68.8896 129.719C68.4658 129.719 68.1035 129.821 67.8027 130.026C67.502 130.231 67.2718 130.503 67.1123 130.84C66.9574 131.173 66.8799 131.537 66.8799 131.934V132.699C66.8799 133.223 66.9688 133.668 67.1465 134.032C67.3288 134.392 67.5817 134.666 67.9053 134.853C68.2288 135.035 68.6048 135.126 69.0332 135.126C69.3158 135.126 69.571 135.087 69.7988 135.01C70.0267 134.928 70.2227 134.807 70.3867 134.647C70.5553 134.483 70.6829 134.283 70.7695 134.046L72.1846 134.381C72.0615 134.773 71.8542 135.119 71.5625 135.42C71.2754 135.721 70.9154 135.955 70.4824 136.124C70.054 136.288 69.5664 136.37 69.0195 136.37ZM73.9551 139.07V128.57H75.418V129.814H75.541C75.6322 129.655 75.7575 129.47 75.917 129.261C76.0811 129.051 76.3066 128.869 76.5938 128.714C76.8854 128.554 77.2705 128.475 77.749 128.475C78.3597 128.475 78.9043 128.63 79.3828 128.939C79.8659 129.249 80.2464 129.698 80.5244 130.286C80.8024 130.874 80.9414 131.583 80.9414 132.412C80.9414 133.232 80.8047 133.939 80.5312 134.531C80.2578 135.119 79.8796 135.573 79.3965 135.892C78.918 136.206 78.3688 136.363 77.749 136.363C77.2887 136.363 76.9105 136.286 76.6143 136.131C76.3226 135.971 76.0924 135.787 75.9238 135.577C75.7598 135.368 75.6322 135.181 75.541 135.017H75.459V139.07H73.9551ZM77.4141 135.085C77.8516 135.085 78.2184 134.966 78.5146 134.729C78.8109 134.493 79.0319 134.171 79.1777 133.766C79.3281 133.36 79.4033 132.904 79.4033 132.398C79.4033 131.897 79.3281 131.448 79.1777 131.052C79.0319 130.651 78.8109 130.334 78.5146 130.102C78.223 129.869 77.8561 129.753 77.4141 129.753C76.9857 129.753 76.6234 129.865 76.3271 130.088C76.0309 130.307 75.8076 130.614 75.6572 131.011C75.5068 131.403 75.4316 131.865 75.4316 132.398C75.4316 132.927 75.5068 133.394 75.6572 133.8C75.8122 134.201 76.0378 134.515 76.334 134.743C76.6302 134.971 76.9902 135.085 77.4141 135.085ZM85.8223 136.37C85.1068 136.37 84.4801 136.206 83.9424 135.878C83.4092 135.55 82.9945 135.09 82.6982 134.497C82.402 133.905 82.2539 133.216 82.2539 132.433C82.2539 131.64 82.402 130.947 82.6982 130.354C82.9945 129.757 83.4092 129.295 83.9424 128.967C84.4801 128.639 85.1068 128.475 85.8223 128.475C86.5423 128.475 87.1689 128.639 87.7021 128.967C88.2399 129.295 88.6569 129.757 88.9531 130.354C89.2493 130.947 89.3975 131.64 89.3975 132.433C89.3975 133.216 89.2493 133.905 88.9531 134.497C88.6569 135.09 88.2399 135.55 87.7021 135.878C87.1689 136.206 86.5423 136.37 85.8223 136.37ZM85.8223 135.099C86.2871 135.099 86.6699 134.978 86.9707 134.736C87.276 134.49 87.5016 134.167 87.6475 133.766C87.7979 133.36 87.873 132.916 87.873 132.433C87.873 131.945 87.7979 131.498 87.6475 131.093C87.5016 130.683 87.276 130.357 86.9707 130.115C86.6699 129.869 86.2871 129.746 85.8223 129.746C85.362 129.746 84.9814 129.869 84.6807 130.115C84.3799 130.357 84.1543 130.68 84.0039 131.086C83.8581 131.492 83.7852 131.94 83.7852 132.433C83.7852 132.916 83.8581 133.36 84.0039 133.766C84.1543 134.167 84.3799 134.49 84.6807 134.736C84.9814 134.978 85.362 135.099 85.8223 135.099ZM94.2852 136.37C93.5697 136.37 92.943 136.206 92.4053 135.878C91.8721 135.55 91.4574 135.09 91.1611 134.497C90.8649 133.905 90.7168 133.216 90.7168 132.433C90.7168 131.64 90.8649 130.947 91.1611 130.354C91.4574 129.757 91.8721 129.295 92.4053 128.967C92.943 128.639 93.5697 128.475 94.2852 128.475C95.0052 128.475 95.6318 128.639 96.165 128.967C96.7028 129.295 97.1198 129.757 97.416 130.354C97.7122 130.947 97.8604 131.64 97.8604 132.433C97.8604 133.216 97.7122 133.905 97.416 134.497C97.1198 135.09 96.7028 135.55 96.165 135.878C95.6318 136.206 95.0052 136.37 94.2852 136.37ZM94.2852 135.099C94.75 135.099 95.1328 134.978 95.4336 134.736C95.7389 134.49 95.9645 134.167 96.1104 133.766C96.2607 133.36 96.3359 132.916 96.3359 132.433C96.3359 131.945 96.2607 131.498 96.1104 131.093C95.9645 130.683 95.7389 130.357 95.4336 130.115C95.1328 129.869 94.75 129.746 94.2852 129.746C93.8249 129.746 93.4443 129.869 93.1436 130.115C92.8428 130.357 92.6172 130.68 92.4668 131.086C92.321 131.492 92.248 131.94 92.248 132.433C92.248 132.916 92.321 133.36 92.4668 133.766C92.6172 134.167 92.8428 134.49 93.1436 134.736C93.4443 134.978 93.8249 135.099 94.2852 135.099ZM101.039 126.027V136.213H99.5352V126.027H101.039ZM110.466 126.027V136.213H108.921V127.442H108.853L106.433 129.206V127.641L108.661 126.027H110.466Z" fill="#111827"/>
<g clip-path="url(#clip1_4668_106692)">
<rect x="37" y="147.213" width="191.325" height="36" rx="4" fill="white"/>
<path d="M46.2305 170.213V160.027H48.0762L50.585 166.453C50.6442 166.604 50.7103 166.793 50.7832 167.021C50.8607 167.244 50.9404 167.488 51.0225 167.752C51.109 168.016 51.1911 168.281 51.2686 168.545C51.346 168.805 51.4144 169.046 51.4736 169.27H51.1865C51.2503 169.06 51.321 168.827 51.3984 168.572C51.4759 168.312 51.5557 168.05 51.6377 167.786C51.7243 167.517 51.8063 167.267 51.8838 167.034C51.9613 166.802 52.0296 166.608 52.0889 166.453L54.5635 160.027H56.416V170.213H55.1377V164.396C55.1377 164.186 55.1377 163.947 55.1377 163.678C55.1423 163.409 55.1468 163.126 55.1514 162.83C55.1605 162.534 55.1673 162.233 55.1719 161.928C55.181 161.622 55.1878 161.326 55.1924 161.039H55.3018C55.2061 161.354 55.1035 161.675 54.9941 162.003C54.8893 162.326 54.7845 162.641 54.6797 162.946C54.5794 163.247 54.4837 163.523 54.3926 163.773C54.3014 164.024 54.224 164.231 54.1602 164.396L51.8838 170.213H50.7559L48.4453 164.396C48.3815 164.236 48.3063 164.035 48.2197 163.794C48.1331 163.548 48.0374 163.277 47.9326 162.98C47.8324 162.68 47.7275 162.365 47.6182 162.037C47.5088 161.704 47.3971 161.372 47.2832 161.039H47.4062C47.4154 161.294 47.4222 161.57 47.4268 161.866C47.4359 162.162 47.4427 162.463 47.4473 162.769C47.4518 163.069 47.4564 163.361 47.4609 163.644C47.4655 163.922 47.4678 164.172 47.4678 164.396V170.213H46.2305ZM58.7266 170.213V162.57H59.957V170.213H58.7266ZM59.3486 161.319C59.1162 161.319 58.9157 161.24 58.7471 161.08C58.5785 160.921 58.4941 160.729 58.4941 160.506C58.4941 160.278 58.5785 160.087 58.7471 159.932C58.9157 159.772 59.1162 159.692 59.3486 159.692C59.5856 159.692 59.7884 159.772 59.957 159.932C60.1257 160.087 60.21 160.278 60.21 160.506C60.21 160.729 60.1257 160.921 59.957 161.08C59.7884 161.24 59.5856 161.319 59.3486 161.319ZM63.3477 165.633V170.213H62.1172V162.57H63.2998L63.3066 164.423H63.1357C63.3682 163.716 63.6986 163.215 64.127 162.919C64.5599 162.623 65.0658 162.475 65.6445 162.475C66.1595 162.475 66.6107 162.582 66.998 162.796C67.3854 163.006 67.6862 163.325 67.9004 163.753C68.1191 164.177 68.2285 164.712 68.2285 165.359V170.213H66.998V165.462C66.998 164.874 66.8431 164.414 66.5332 164.081C66.2279 163.748 65.8086 163.582 65.2754 163.582C64.9108 163.582 64.5827 163.662 64.291 163.821C63.9993 163.981 63.7692 164.213 63.6006 164.519C63.432 164.824 63.3477 165.195 63.3477 165.633ZM74.2988 170.213V169.276L77.6826 165.605C78.0609 165.195 78.3753 164.835 78.626 164.525C78.8766 164.215 79.0658 163.922 79.1934 163.644C79.321 163.361 79.3848 163.062 79.3848 162.748C79.3848 162.393 79.3005 162.085 79.1318 161.825C78.9632 161.565 78.7354 161.367 78.4482 161.23C78.1611 161.089 77.8353 161.019 77.4707 161.019C77.0833 161.019 76.7461 161.098 76.459 161.258C76.1764 161.413 75.9577 161.634 75.8027 161.921C75.6478 162.203 75.5703 162.536 75.5703 162.919H74.3262C74.3262 162.317 74.4652 161.789 74.7432 161.333C75.0212 160.877 75.3994 160.524 75.8779 160.273C76.3564 160.018 76.8988 159.891 77.5049 159.891C78.111 159.891 78.6465 160.018 79.1113 160.273C79.5807 160.524 79.9476 160.864 80.2119 161.292C80.4808 161.72 80.6152 162.201 80.6152 162.734C80.6152 163.104 80.5492 163.464 80.417 163.814C80.2848 164.161 80.0524 164.555 79.7197 164.997C79.387 165.439 78.9199 165.979 78.3184 166.617L76.0898 168.989V169.071H80.7861V170.213H74.2988ZM88.0391 165.633V170.213H86.8086V162.57H87.9912L87.998 164.423H87.8271C88.0596 163.716 88.39 163.215 88.8184 162.919C89.2513 162.623 89.7572 162.475 90.3359 162.475C90.8509 162.475 91.3021 162.582 91.6895 162.796C92.0768 163.006 92.3776 163.325 92.5918 163.753C92.8105 164.177 92.9199 164.712 92.9199 165.359V170.213H91.6895V165.462C91.6895 164.874 91.5345 164.414 91.2246 164.081C90.9193 163.748 90.5 163.582 89.9668 163.582C89.6022 163.582 89.2741 163.662 88.9824 163.821C88.6908 163.981 88.4606 164.213 88.292 164.519C88.1234 164.824 88.0391 165.195 88.0391 165.633ZM98.1904 170.377C97.4977 170.377 96.8893 170.213 96.3652 169.885C95.8457 169.557 95.4401 169.096 95.1484 168.504C94.8568 167.911 94.7109 167.223 94.7109 166.439C94.7109 165.642 94.8568 164.947 95.1484 164.354C95.4401 163.757 95.8457 163.295 96.3652 162.967C96.8893 162.639 97.4977 162.475 98.1904 162.475C98.8877 162.475 99.4984 162.639 100.022 162.967C100.547 163.295 100.954 163.757 101.246 164.354C101.538 164.947 101.684 165.642 101.684 166.439C101.684 167.223 101.538 167.911 101.246 168.504C100.954 169.096 100.547 169.557 100.022 169.885C99.4984 170.213 98.8877 170.377 98.1904 170.377ZM98.1904 169.276C98.7054 169.276 99.1292 169.144 99.4619 168.88C99.7946 168.616 100.041 168.269 100.2 167.841C100.36 167.408 100.439 166.941 100.439 166.439C100.439 165.934 100.36 165.464 100.2 165.031C100.041 164.594 99.7946 164.243 99.4619 163.979C99.1292 163.71 98.7054 163.575 98.1904 163.575C97.68 163.575 97.2607 163.71 96.9326 163.979C96.6045 164.243 96.3607 164.591 96.2012 165.024C96.0417 165.457 95.9619 165.929 95.9619 166.439C95.9619 166.941 96.0417 167.408 96.2012 167.841C96.3607 168.269 96.6045 168.616 96.9326 168.88C97.2607 169.144 97.68 169.276 98.1904 169.276ZM106.339 170.377C105.705 170.377 105.145 170.215 104.657 169.892C104.17 169.568 103.789 169.11 103.516 168.518C103.242 167.925 103.105 167.223 103.105 166.412C103.105 165.605 103.242 164.908 103.516 164.32C103.794 163.728 104.176 163.272 104.664 162.953C105.152 162.634 105.712 162.475 106.346 162.475C106.842 162.475 107.237 162.557 107.528 162.721C107.82 162.885 108.043 163.072 108.198 163.281C108.358 163.486 108.479 163.657 108.561 163.794H108.656V160.027H109.887V170.213H108.697V169.03H108.561C108.479 169.172 108.355 169.349 108.191 169.563C108.032 169.773 107.804 169.962 107.508 170.131C107.216 170.295 106.826 170.377 106.339 170.377ZM106.523 169.276C106.988 169.276 107.38 169.156 107.699 168.914C108.018 168.668 108.26 168.328 108.424 167.896C108.588 167.463 108.67 166.964 108.67 166.398C108.67 165.833 108.588 165.341 108.424 164.922C108.264 164.498 108.025 164.168 107.706 163.931C107.387 163.694 106.993 163.575 106.523 163.575C106.04 163.575 105.637 163.701 105.313 163.951C104.994 164.202 104.755 164.541 104.596 164.97C104.436 165.394 104.356 165.87 104.356 166.398C104.356 166.932 104.436 167.417 104.596 167.854C104.76 168.287 105.004 168.634 105.327 168.894C105.651 169.149 106.049 169.276 106.523 169.276ZM115.26 170.377C114.521 170.377 113.883 170.213 113.346 169.885C112.812 169.557 112.4 169.099 112.108 168.511C111.821 167.923 111.678 167.237 111.678 166.453C111.678 165.669 111.819 164.979 112.102 164.382C112.384 163.785 112.783 163.318 113.298 162.98C113.817 162.643 114.424 162.475 115.116 162.475C115.522 162.475 115.921 162.543 116.312 162.68C116.709 162.812 117.067 163.028 117.386 163.329C117.709 163.625 117.967 164.017 118.158 164.505C118.35 164.993 118.445 165.59 118.445 166.296V166.809H112.512V165.77H117.782L117.208 166.152C117.208 165.651 117.128 165.207 116.969 164.819C116.814 164.427 116.581 164.122 116.271 163.903C115.962 163.68 115.576 163.568 115.116 163.568C114.656 163.568 114.262 163.682 113.934 163.91C113.605 164.133 113.355 164.427 113.182 164.792C113.008 165.152 112.922 165.539 112.922 165.954V166.645C112.922 167.21 113.02 167.69 113.216 168.087C113.412 168.479 113.685 168.777 114.036 168.982C114.392 169.183 114.802 169.283 115.267 169.283C115.567 169.283 115.841 169.24 116.087 169.153C116.333 169.067 116.545 168.937 116.723 168.764C116.9 168.586 117.037 168.367 117.133 168.107L118.322 168.436C118.204 168.818 118.003 169.156 117.721 169.447C117.438 169.739 117.087 169.967 116.668 170.131C116.253 170.295 115.784 170.377 115.26 170.377ZM122.807 170.377C122.283 170.377 121.815 170.302 121.405 170.151C121 169.996 120.665 169.769 120.4 169.468C120.136 169.167 119.958 168.798 119.867 168.36L121.036 168.08C121.146 168.499 121.351 168.807 121.651 169.003C121.957 169.199 122.337 169.297 122.793 169.297C123.326 169.297 123.75 169.183 124.064 168.955C124.383 168.727 124.543 168.456 124.543 168.142C124.543 167.877 124.45 167.659 124.263 167.485C124.08 167.308 123.8 167.175 123.422 167.089L122.15 166.788C121.458 166.624 120.943 166.371 120.605 166.029C120.268 165.683 120.1 165.241 120.1 164.703C120.1 164.266 120.223 163.881 120.469 163.548C120.715 163.211 121.05 162.949 121.474 162.762C121.902 162.57 122.387 162.475 122.93 162.475C123.454 162.475 123.898 162.554 124.263 162.714C124.632 162.869 124.93 163.085 125.158 163.363C125.391 163.637 125.564 163.953 125.678 164.313L124.563 164.601C124.459 164.327 124.283 164.079 124.037 163.855C123.796 163.632 123.429 163.521 122.937 163.521C122.481 163.521 122.1 163.625 121.795 163.835C121.494 164.045 121.344 164.309 121.344 164.628C121.344 164.91 121.446 165.138 121.651 165.312C121.856 165.48 122.182 165.617 122.629 165.722L123.784 165.995C124.477 166.159 124.99 166.414 125.322 166.761C125.655 167.103 125.821 167.535 125.821 168.06C125.821 168.506 125.694 168.905 125.438 169.256C125.188 169.602 124.835 169.876 124.379 170.076C123.928 170.277 123.404 170.377 122.807 170.377Z" fill="#9CA3AF"/>
</g>
<rect x="37" y="147.213" width="191.325" height="36" rx="4" stroke="#E4E4E7"/>
<g clip-path="url(#clip2_4668_106692)">
<rect x="37" y="203.213" width="191.325" height="36" rx="4" fill="white"/>
<path d="M46.2305 226.213V216.027H48.0762L50.585 222.453C50.6442 222.604 50.7103 222.793 50.7832 223.021C50.8607 223.244 50.9404 223.488 51.0225 223.752C51.109 224.016 51.1911 224.281 51.2686 224.545C51.346 224.805 51.4144 225.046 51.4736 225.27H51.1865C51.2503 225.06 51.321 224.827 51.3984 224.572C51.4759 224.312 51.5557 224.05 51.6377 223.786C51.7243 223.517 51.8063 223.267 51.8838 223.034C51.9613 222.802 52.0296 222.608 52.0889 222.453L54.5635 216.027H56.416V226.213H55.1377V220.396C55.1377 220.186 55.1377 219.947 55.1377 219.678C55.1423 219.409 55.1468 219.126 55.1514 218.83C55.1605 218.534 55.1673 218.233 55.1719 217.928C55.181 217.622 55.1878 217.326 55.1924 217.039H55.3018C55.2061 217.354 55.1035 217.675 54.9941 218.003C54.8893 218.326 54.7845 218.641 54.6797 218.946C54.5794 219.247 54.4837 219.523 54.3926 219.773C54.3014 220.024 54.224 220.231 54.1602 220.396L51.8838 226.213H50.7559L48.4453 220.396C48.3815 220.236 48.3063 220.035 48.2197 219.794C48.1331 219.548 48.0374 219.277 47.9326 218.98C47.8324 218.68 47.7275 218.365 47.6182 218.037C47.5088 217.704 47.3971 217.372 47.2832 217.039H47.4062C47.4154 217.294 47.4222 217.57 47.4268 217.866C47.4359 218.162 47.4427 218.463 47.4473 218.769C47.4518 219.069 47.4564 219.361 47.4609 219.644C47.4655 219.922 47.4678 220.172 47.4678 220.396V226.213H46.2305ZM61.584 226.377C60.9551 226.377 60.3968 226.215 59.9092 225.892C59.4261 225.568 59.0456 225.11 58.7676 224.518C58.4941 223.925 58.3574 223.223 58.3574 222.412C58.3574 221.605 58.4964 220.908 58.7744 220.32C59.0524 219.728 59.4352 219.272 59.9229 218.953C60.415 218.634 60.9779 218.475 61.6113 218.475C62.1035 218.475 62.4954 218.557 62.7871 218.721C63.0788 218.88 63.3021 219.065 63.457 219.274C63.612 219.484 63.7305 219.657 63.8125 219.794H63.915V218.57H65.1387V226.213H63.9219V225.03H63.8125C63.7305 225.172 63.6074 225.349 63.4434 225.563C63.2839 225.778 63.056 225.967 62.7598 226.131C62.4635 226.295 62.0716 226.377 61.584 226.377ZM61.7891 225.276C62.2539 225.276 62.6458 225.156 62.9648 224.914C63.2839 224.668 63.5254 224.328 63.6895 223.896C63.8535 223.463 63.9355 222.964 63.9355 222.398C63.9355 221.833 63.8535 221.341 63.6895 220.922C63.5299 220.498 63.2907 220.168 62.9717 219.931C62.6527 219.694 62.2585 219.575 61.7891 219.575C61.306 219.575 60.9027 219.701 60.5791 219.951C60.2555 220.197 60.0117 220.535 59.8477 220.963C59.6882 221.387 59.6084 221.865 59.6084 222.398C59.6084 222.932 59.6904 223.417 59.8545 223.854C60.0186 224.287 60.2624 224.634 60.5859 224.894C60.9095 225.149 61.3105 225.276 61.7891 225.276ZM66.6631 226.213L69.6777 221.817L69.6709 222.761L66.8203 218.57H68.2559L69.2061 220.054C69.4521 220.437 69.6641 220.794 69.8418 221.127C70.0241 221.46 70.2109 221.781 70.4023 222.091H69.7598C69.9557 221.781 70.1335 221.46 70.293 221.127C70.457 220.794 70.6644 220.437 70.915 220.054L71.8857 218.57H73.2939L70.4297 222.815V221.906L73.417 226.213H71.9883L70.8672 224.497C70.6257 224.123 70.416 223.777 70.2383 223.458C70.0651 223.134 69.8851 222.825 69.6982 222.528H70.3477C70.1608 222.825 69.9876 223.134 69.8281 223.458C69.6686 223.777 69.4658 224.123 69.2197 224.497L68.085 226.213H66.6631ZM82.0781 226.35C81.4811 226.35 80.9456 226.233 80.4717 226.001C79.9977 225.764 79.6195 225.443 79.3369 225.037C79.0544 224.627 78.9017 224.162 78.8789 223.643H80.1367C80.1641 223.943 80.2666 224.212 80.4443 224.449C80.6221 224.686 80.8522 224.873 81.1348 225.01C81.4219 225.142 81.7363 225.208 82.0781 225.208C82.4883 225.208 82.8529 225.112 83.1719 224.921C83.4954 224.729 83.7484 224.465 83.9307 224.128C84.113 223.791 84.2041 223.408 84.2041 222.979C84.2041 222.542 84.1084 222.15 83.917 221.804C83.7256 221.457 83.4635 221.186 83.1309 220.99C82.8027 220.79 82.4245 220.689 81.9961 220.689C81.6816 220.689 81.3626 220.74 81.0391 220.84C80.7155 220.94 80.4535 221.068 80.2529 221.223L79.0361 221.072L79.6377 216.027H84.9971V217.169H80.7314L80.3828 220.143H80.4375C80.6471 219.969 80.9115 219.828 81.2305 219.719C81.5495 219.605 81.8844 219.548 82.2354 219.548C82.7002 219.548 83.1286 219.632 83.5205 219.801C83.917 219.969 84.2611 220.209 84.5527 220.519C84.8444 220.824 85.07 221.184 85.2295 221.599C85.3936 222.013 85.4756 222.467 85.4756 222.959C85.4756 223.611 85.3275 224.192 85.0312 224.702C84.7396 225.213 84.3385 225.616 83.8281 225.912C83.3177 226.204 82.7344 226.35 82.0781 226.35ZM92.5645 221.633V226.213H91.334V218.57H92.5166L92.5234 220.423H92.3525C92.585 219.716 92.9154 219.215 93.3438 218.919C93.7767 218.623 94.2826 218.475 94.8613 218.475C95.3763 218.475 95.8275 218.582 96.2148 218.796C96.6022 219.006 96.903 219.325 97.1172 219.753C97.3359 220.177 97.4453 220.712 97.4453 221.359V226.213H96.2148V221.462C96.2148 220.874 96.0599 220.414 95.75 220.081C95.4447 219.748 95.0254 219.582 94.4922 219.582C94.1276 219.582 93.7995 219.662 93.5078 219.821C93.2161 219.981 92.986 220.213 92.8174 220.519C92.6488 220.824 92.5645 221.195 92.5645 221.633ZM102.716 226.377C102.023 226.377 101.415 226.213 100.891 225.885C100.371 225.557 99.9655 225.096 99.6738 224.504C99.3822 223.911 99.2363 223.223 99.2363 222.439C99.2363 221.642 99.3822 220.947 99.6738 220.354C99.9655 219.757 100.371 219.295 100.891 218.967C101.415 218.639 102.023 218.475 102.716 218.475C103.413 218.475 104.024 218.639 104.548 218.967C105.072 219.295 105.48 219.757 105.771 220.354C106.063 220.947 106.209 221.642 106.209 222.439C106.209 223.223 106.063 223.911 105.771 224.504C105.48 225.096 105.072 225.557 104.548 225.885C104.024 226.213 103.413 226.377 102.716 226.377ZM102.716 225.276C103.231 225.276 103.655 225.144 103.987 224.88C104.32 224.616 104.566 224.269 104.726 223.841C104.885 223.408 104.965 222.941 104.965 222.439C104.965 221.934 104.885 221.464 104.726 221.031C104.566 220.594 104.32 220.243 103.987 219.979C103.655 219.71 103.231 219.575 102.716 219.575C102.205 219.575 101.786 219.71 101.458 219.979C101.13 220.243 100.886 220.591 100.727 221.024C100.567 221.457 100.487 221.929 100.487 222.439C100.487 222.941 100.567 223.408 100.727 223.841C100.886 224.269 101.13 224.616 101.458 224.88C101.786 225.144 102.205 225.276 102.716 225.276ZM110.864 226.377C110.231 226.377 109.67 226.215 109.183 225.892C108.695 225.568 108.314 225.11 108.041 224.518C107.768 223.925 107.631 223.223 107.631 222.412C107.631 221.605 107.768 220.908 108.041 220.32C108.319 219.728 108.702 219.272 109.189 218.953C109.677 218.634 110.238 218.475 110.871 218.475C111.368 218.475 111.762 218.557 112.054 218.721C112.345 218.885 112.569 219.072 112.724 219.281C112.883 219.486 113.004 219.657 113.086 219.794H113.182V216.027H114.412V226.213H113.223V225.03H113.086C113.004 225.172 112.881 225.349 112.717 225.563C112.557 225.773 112.329 225.962 112.033 226.131C111.742 226.295 111.352 226.377 110.864 226.377ZM111.049 225.276C111.514 225.276 111.906 225.156 112.225 224.914C112.544 224.668 112.785 224.328 112.949 223.896C113.113 223.463 113.195 222.964 113.195 222.398C113.195 221.833 113.113 221.341 112.949 220.922C112.79 220.498 112.55 220.168 112.231 219.931C111.912 219.694 111.518 219.575 111.049 219.575C110.566 219.575 110.162 219.701 109.839 219.951C109.52 220.202 109.281 220.541 109.121 220.97C108.962 221.394 108.882 221.87 108.882 222.398C108.882 222.932 108.962 223.417 109.121 223.854C109.285 224.287 109.529 224.634 109.853 224.894C110.176 225.149 110.575 225.276 111.049 225.276ZM119.785 226.377C119.047 226.377 118.409 226.213 117.871 225.885C117.338 225.557 116.925 225.099 116.634 224.511C116.347 223.923 116.203 223.237 116.203 222.453C116.203 221.669 116.344 220.979 116.627 220.382C116.91 219.785 117.308 219.318 117.823 218.98C118.343 218.643 118.949 218.475 119.642 218.475C120.047 218.475 120.446 218.543 120.838 218.68C121.234 218.812 121.592 219.028 121.911 219.329C122.235 219.625 122.492 220.017 122.684 220.505C122.875 220.993 122.971 221.59 122.971 222.296V222.809H117.037V221.77H122.308L121.733 222.152C121.733 221.651 121.654 221.207 121.494 220.819C121.339 220.427 121.107 220.122 120.797 219.903C120.487 219.68 120.102 219.568 119.642 219.568C119.181 219.568 118.787 219.682 118.459 219.91C118.131 220.133 117.88 220.427 117.707 220.792C117.534 221.152 117.447 221.539 117.447 221.954V222.645C117.447 223.21 117.545 223.69 117.741 224.087C117.937 224.479 118.211 224.777 118.562 224.982C118.917 225.183 119.327 225.283 119.792 225.283C120.093 225.283 120.366 225.24 120.612 225.153C120.858 225.067 121.07 224.937 121.248 224.764C121.426 224.586 121.562 224.367 121.658 224.107L122.848 224.436C122.729 224.818 122.529 225.156 122.246 225.447C121.964 225.739 121.613 225.967 121.193 226.131C120.779 226.295 120.309 226.377 119.785 226.377ZM127.332 226.377C126.808 226.377 126.341 226.302 125.931 226.151C125.525 225.996 125.19 225.769 124.926 225.468C124.661 225.167 124.484 224.798 124.393 224.36L125.562 224.08C125.671 224.499 125.876 224.807 126.177 225.003C126.482 225.199 126.863 225.297 127.318 225.297C127.852 225.297 128.275 225.183 128.59 224.955C128.909 224.727 129.068 224.456 129.068 224.142C129.068 223.877 128.975 223.659 128.788 223.485C128.606 223.308 128.326 223.175 127.947 223.089L126.676 222.788C125.983 222.624 125.468 222.371 125.131 222.029C124.794 221.683 124.625 221.241 124.625 220.703C124.625 220.266 124.748 219.881 124.994 219.548C125.24 219.211 125.575 218.949 125.999 218.762C126.427 218.57 126.913 218.475 127.455 218.475C127.979 218.475 128.424 218.554 128.788 218.714C129.157 218.869 129.456 219.085 129.684 219.363C129.916 219.637 130.089 219.953 130.203 220.313L129.089 220.601C128.984 220.327 128.809 220.079 128.562 219.855C128.321 219.632 127.954 219.521 127.462 219.521C127.006 219.521 126.626 219.625 126.32 219.835C126.02 220.045 125.869 220.309 125.869 220.628C125.869 220.91 125.972 221.138 126.177 221.312C126.382 221.48 126.708 221.617 127.154 221.722L128.31 221.995C129.002 222.159 129.515 222.414 129.848 222.761C130.18 223.103 130.347 223.535 130.347 224.06C130.347 224.506 130.219 224.905 129.964 225.256C129.713 225.602 129.36 225.876 128.904 226.076C128.453 226.277 127.929 226.377 127.332 226.377Z" fill="#9CA3AF"/>
</g>
<rect x="37" y="203.213" width="191.325" height="36" rx="4" stroke="#E4E4E7"/>
<rect x="37" y="259.213" width="191.325" height="40" rx="4" fill="#3B82F6"/>
<rect x="37" y="259.213" width="191.325" height="40" rx="4" stroke="#2563EB"/>
<path d="M112.779 285.369C111.764 285.369 110.86 285.13 110.068 284.65C109.277 284.171 108.652 283.486 108.193 282.596C107.74 281.7 107.514 280.635 107.514 279.4C107.514 278.161 107.74 277.096 108.193 276.205C108.652 275.309 109.277 274.622 110.068 274.143C110.865 273.658 111.769 273.416 112.779 273.416C113.394 273.416 113.972 273.505 114.514 273.682C115.055 273.859 115.537 274.119 115.959 274.463C116.386 274.801 116.74 275.213 117.021 275.697C117.303 276.182 117.493 276.734 117.592 277.354H115.803C115.725 276.979 115.594 276.648 115.412 276.361C115.23 276.075 115.003 275.833 114.732 275.635C114.467 275.432 114.17 275.281 113.842 275.182C113.514 275.083 113.165 275.033 112.795 275.033C112.118 275.033 111.514 275.202 110.982 275.541C110.451 275.88 110.035 276.374 109.732 277.025C109.43 277.676 109.279 278.468 109.279 279.4C109.279 280.333 109.43 281.124 109.732 281.775C110.04 282.421 110.459 282.913 110.99 283.252C111.521 283.585 112.123 283.752 112.795 283.752C113.16 283.752 113.506 283.702 113.834 283.604C114.167 283.499 114.467 283.348 114.732 283.15C115.003 282.952 115.23 282.71 115.412 282.424C115.6 282.137 115.73 281.807 115.803 281.432H117.592C117.503 282.015 117.324 282.546 117.053 283.025C116.782 283.505 116.433 283.921 116.006 284.275C115.584 284.624 115.1 284.895 114.553 285.088C114.011 285.275 113.42 285.369 112.779 285.369ZM119.514 285.213V276.533H121.162V277.924H121.248C121.41 277.455 121.686 277.088 122.076 276.822C122.472 276.551 122.928 276.416 123.443 276.416C123.553 276.416 123.675 276.421 123.811 276.432C123.951 276.437 124.066 276.445 124.154 276.455V278.08C124.092 278.064 123.972 278.046 123.795 278.025C123.618 278.005 123.438 277.994 123.256 277.994C122.87 277.994 122.521 278.077 122.209 278.244C121.902 278.406 121.66 278.635 121.482 278.932C121.311 279.223 121.225 279.564 121.225 279.955V285.213H119.514ZM129.076 285.393C128.222 285.393 127.485 285.208 126.865 284.838C126.245 284.468 125.769 283.95 125.436 283.283C125.102 282.611 124.936 281.827 124.936 280.932C124.936 280.041 125.1 279.257 125.428 278.58C125.761 277.903 126.227 277.374 126.826 276.994C127.43 276.609 128.133 276.416 128.936 276.416C129.446 276.416 129.933 276.499 130.396 276.666C130.865 276.833 131.282 277.093 131.646 277.447C132.011 277.801 132.3 278.255 132.514 278.807C132.727 279.359 132.834 280.02 132.834 280.791V281.385H125.873V280.104H131.951L131.154 280.525C131.154 279.994 131.068 279.525 130.896 279.119C130.73 278.713 130.482 278.398 130.154 278.174C129.831 277.945 129.428 277.83 128.943 277.83C128.459 277.83 128.045 277.947 127.701 278.182C127.363 278.411 127.102 278.718 126.92 279.104C126.738 279.484 126.646 279.903 126.646 280.361V281.213C126.646 281.801 126.748 282.304 126.951 282.721C127.154 283.132 127.438 283.445 127.803 283.658C128.173 283.872 128.602 283.979 129.092 283.979C129.42 283.979 129.714 283.932 129.975 283.838C130.24 283.744 130.467 283.604 130.654 283.416C130.842 283.229 130.985 282.999 131.084 282.729L132.693 283.072C132.563 283.531 132.331 283.934 131.998 284.283C131.665 284.632 131.251 284.906 130.756 285.104C130.261 285.296 129.701 285.393 129.076 285.393ZM137.896 285.385C137.199 285.385 136.574 285.205 136.021 284.846C135.475 284.481 135.045 283.963 134.732 283.291C134.42 282.619 134.264 281.82 134.264 280.893C134.264 279.955 134.423 279.153 134.74 278.486C135.058 277.814 135.493 277.301 136.045 276.947C136.597 276.593 137.222 276.416 137.92 276.416C138.441 276.416 138.865 276.502 139.193 276.674C139.527 276.84 139.79 277.044 139.982 277.283C140.175 277.518 140.324 277.734 140.428 277.932H140.521V276.533H142.225V285.213H140.537V283.861H140.428C140.324 284.059 140.17 284.278 139.967 284.518C139.769 284.757 139.503 284.963 139.17 285.135C138.837 285.301 138.412 285.385 137.896 285.385ZM138.295 283.924C138.779 283.924 139.191 283.796 139.529 283.541C139.868 283.286 140.123 282.929 140.295 282.471C140.472 282.012 140.561 281.481 140.561 280.877C140.561 280.273 140.472 279.747 140.295 279.299C140.123 278.851 139.868 278.502 139.529 278.252C139.196 278.002 138.785 277.877 138.295 277.877C137.795 277.877 137.376 278.007 137.037 278.268C136.699 278.523 136.443 278.877 136.271 279.33C136.1 279.778 136.014 280.294 136.014 280.877C136.014 281.46 136.1 281.981 136.271 282.439C136.449 282.898 136.706 283.26 137.045 283.525C137.383 283.791 137.8 283.924 138.295 283.924ZM148.264 276.533V277.924H143.521V276.533H148.264ZM144.811 274.432H146.521V282.869C146.521 283.218 146.594 283.473 146.74 283.635C146.886 283.791 147.128 283.869 147.467 283.869C147.561 283.869 147.68 283.861 147.826 283.846C147.972 283.825 148.097 283.804 148.201 283.783L148.475 285.158C148.298 285.215 148.105 285.255 147.896 285.275C147.688 285.301 147.485 285.314 147.287 285.314C146.495 285.314 145.883 285.117 145.451 284.721C145.024 284.32 144.811 283.752 144.811 283.018V274.432ZM153.498 285.393C152.644 285.393 151.907 285.208 151.287 284.838C150.667 284.468 150.191 283.95 149.857 283.283C149.524 282.611 149.357 281.827 149.357 280.932C149.357 280.041 149.521 279.257 149.85 278.58C150.183 277.903 150.649 277.374 151.248 276.994C151.852 276.609 152.555 276.416 153.357 276.416C153.868 276.416 154.355 276.499 154.818 276.666C155.287 276.833 155.704 277.093 156.068 277.447C156.433 277.801 156.722 278.255 156.936 278.807C157.149 279.359 157.256 280.02 157.256 280.791V281.385H150.295V280.104H156.373L155.576 280.525C155.576 279.994 155.49 279.525 155.318 279.119C155.152 278.713 154.904 278.398 154.576 278.174C154.253 277.945 153.85 277.83 153.365 277.83C152.881 277.83 152.467 277.947 152.123 278.182C151.785 278.411 151.524 278.718 151.342 279.104C151.16 279.484 151.068 279.903 151.068 280.361V281.213C151.068 281.801 151.17 282.304 151.373 282.721C151.576 283.132 151.86 283.445 152.225 283.658C152.594 283.872 153.024 283.979 153.514 283.979C153.842 283.979 154.136 283.932 154.396 283.838C154.662 283.744 154.889 283.604 155.076 283.416C155.264 283.229 155.407 282.999 155.506 282.729L157.115 283.072C156.985 283.531 156.753 283.934 156.42 284.283C156.087 284.632 155.673 284.906 155.178 285.104C154.683 285.296 154.123 285.393 153.498 285.393Z" fill="white"/>
<rect x="301.639" y="123.115" width="90.3614" height="90.3614" rx="4" fill="#FAFAFA"/>
<rect x="301.639" y="123.115" width="90.3614" height="90.3614" rx="4" stroke="#E4E4E7"/>
<g clip-path="url(#clip3_4668_106692)">
<path fill-rule="evenodd" clip-rule="evenodd" d="M347.254 139.004C346.98 138.872 346.66 138.872 346.386 139.004L323.072 150.231C322.798 150.363 322.599 150.613 322.531 150.91L316.773 176.137C316.705 176.434 316.776 176.745 316.966 176.983L333.1 197.214C333.29 197.452 333.577 197.591 333.882 197.591H359.758C360.062 197.591 360.35 197.452 360.54 197.214L376.673 176.983C376.863 176.745 376.934 176.434 376.866 176.137L371.108 150.91C371.041 150.613 370.842 150.363 370.567 150.231L347.254 139.004ZM345.926 149.039C346.156 148.784 346.477 148.63 346.82 148.611L346.822 148.603C347.165 148.622 347.486 148.776 347.716 149.031C347.946 149.286 348.065 149.622 348.048 149.964V150.313C348.014 150.704 347.958 151.094 347.879 151.479C347.761 152.214 347.714 152.959 347.74 153.703C347.788 153.952 347.932 154.172 348.14 154.316C348.142 154.335 348.144 154.363 348.146 154.397C348.155 154.523 348.17 154.732 348.17 154.861C352.047 155.213 355.665 156.961 358.35 159.779L358.816 159.447C359.066 159.49 359.324 159.461 359.559 159.365C360.157 158.922 360.711 158.421 361.212 157.87C361.468 157.569 361.741 157.282 362.029 157.012C362.106 156.947 362.217 156.86 362.302 156.794C362.423 156.666 362.57 156.565 362.733 156.498C362.897 156.431 363.073 156.4 363.249 156.407C363.426 156.414 363.598 156.459 363.756 156.538C363.914 156.618 364.053 156.73 364.163 156.868C364.273 157.006 364.353 157.166 364.396 157.337C364.44 157.508 364.446 157.687 364.414 157.86C364.382 158.034 364.314 158.199 364.213 158.344C364.112 158.489 363.981 158.611 363.829 158.701C363.805 158.72 363.779 158.742 363.751 158.764C363.685 158.819 363.613 158.878 363.557 158.919C363.229 159.136 362.889 159.334 362.539 159.512C361.89 159.879 361.279 160.309 360.714 160.795C360.549 160.987 360.466 161.237 360.482 161.489L360.047 161.879C362.222 165.121 363.131 169.048 362.601 172.916L363.097 173.061C363.218 173.288 363.401 173.477 363.625 173.605C364.344 173.797 365.08 173.919 365.823 173.968C366.216 173.977 366.609 174.009 366.999 174.063C367.066 174.075 367.15 174.096 367.23 174.116C367.274 174.128 367.318 174.138 367.356 174.147C367.525 174.17 367.688 174.228 367.833 174.318C367.979 174.407 368.104 174.526 368.201 174.666C368.299 174.807 368.366 174.966 368.398 175.133C368.43 175.301 368.427 175.474 368.39 175.64C368.352 175.807 368.279 175.964 368.178 176.101C368.076 176.238 367.947 176.352 367.798 176.437C367.65 176.521 367.485 176.574 367.315 176.591C367.146 176.609 366.974 176.591 366.811 176.538H366.768C366.734 176.531 366.698 176.524 366.661 176.516C366.587 176.502 366.512 176.487 366.452 176.47C366.081 176.349 365.717 176.208 365.363 176.045C364.672 175.767 363.956 175.556 363.225 175.416C362.972 175.408 362.725 175.499 362.539 175.67C362.451 175.651 362.174 175.602 362.016 175.577C360.827 179.31 358.307 182.476 354.935 184.471C354.993 184.641 355.061 184.806 355.139 184.967C355.013 185.186 354.979 185.447 355.044 185.691C355.343 186.374 355.708 187.026 356.133 187.638C356.372 187.951 356.592 188.278 356.792 188.616C356.834 188.692 356.887 188.806 356.931 188.899C356.939 188.915 356.946 188.931 356.953 188.946C357.039 189.093 357.094 189.257 357.114 189.426C357.134 189.596 357.118 189.768 357.067 189.931C357.017 190.095 356.933 190.246 356.821 190.375C356.709 190.504 356.572 190.608 356.418 190.681C356.263 190.754 356.095 190.794 355.924 190.799C355.754 190.803 355.584 190.772 355.426 190.708C355.267 190.643 355.125 190.546 355.006 190.424C354.887 190.301 354.795 190.154 354.736 189.994C354.721 189.962 354.703 189.926 354.684 189.889C354.649 189.817 354.611 189.74 354.584 189.681C354.443 189.313 354.324 188.938 354.227 188.556C354.014 187.843 353.732 187.153 353.386 186.495C353.235 186.291 353.01 186.154 352.759 186.113C352.723 186.065 352.634 185.907 352.559 185.771C352.532 185.723 352.507 185.678 352.487 185.642C348.839 187.023 344.81 187.013 341.169 185.612L340.896 186.116C340.697 186.153 340.514 186.25 340.371 186.394C339.952 187.08 339.632 187.822 339.42 188.597C339.324 188.978 339.206 189.354 339.066 189.722C339.039 189.784 339.001 189.86 338.965 189.932C338.947 189.968 338.929 190.003 338.914 190.035C338.855 190.196 338.764 190.343 338.645 190.467C338.526 190.59 338.383 190.688 338.224 190.753C338.066 190.818 337.895 190.849 337.724 190.845C337.553 190.84 337.384 190.8 337.229 190.726C337.074 190.653 336.937 190.548 336.825 190.418C336.713 190.288 336.629 190.136 336.579 189.972C336.53 189.808 336.515 189.635 336.535 189.465C336.556 189.295 336.612 189.131 336.7 188.984C336.717 188.949 336.736 188.909 336.755 188.867C336.79 188.792 336.827 188.713 336.858 188.654C337.058 188.315 337.279 187.988 337.517 187.674C337.95 187.045 338.322 186.377 338.628 185.678C338.661 185.441 338.623 185.199 338.519 184.983L338.742 184.439C335.382 182.459 332.864 179.317 331.662 175.607L331.117 175.7C330.91 175.553 330.665 175.467 330.412 175.452C329.68 175.591 328.964 175.802 328.274 176.081C327.919 176.242 327.555 176.383 327.185 176.503C327.12 176.521 327.033 176.539 326.951 176.556C326.923 176.562 326.895 176.568 326.869 176.574H326.825C326.663 176.626 326.491 176.644 326.321 176.627C326.151 176.609 325.987 176.557 325.838 176.472C325.69 176.388 325.561 176.273 325.459 176.136C325.357 175.999 325.285 175.842 325.247 175.676C325.209 175.509 325.206 175.337 325.239 175.169C325.271 175.001 325.338 174.842 325.435 174.702C325.532 174.561 325.658 174.443 325.803 174.353C325.949 174.264 326.111 174.206 326.281 174.183H326.3L326.317 174.178C326.415 174.155 326.539 174.124 326.626 174.106C327.016 174.052 327.409 174.02 327.803 174.011C328.545 173.962 329.281 173.841 330.001 173.649C330.214 173.509 330.394 173.323 330.526 173.104L331.041 172.954C330.483 169.084 331.375 165.144 333.544 161.89L333.151 161.538C333.138 161.284 333.053 161.039 332.906 160.83C332.341 160.344 331.73 159.915 331.082 159.548C330.732 159.369 330.393 159.171 330.066 158.954C330.019 158.919 329.963 158.873 329.906 158.826C329.874 158.8 329.842 158.774 329.813 158.75H329.794C329.514 158.55 329.326 158.247 329.269 157.908C329.212 157.569 329.292 157.222 329.491 156.941C329.609 156.798 329.758 156.683 329.928 156.608C330.098 156.533 330.283 156.499 330.469 156.508C330.781 156.521 331.081 156.634 331.324 156.83C331.334 156.838 331.345 156.846 331.356 156.854C331.436 156.916 331.532 156.99 331.596 157.048C331.885 157.318 332.158 157.604 332.413 157.906C332.914 158.456 333.468 158.957 334.066 159.401C334.291 159.519 334.553 159.544 334.796 159.471C334.836 159.495 334.93 159.562 335.028 159.634C335.103 159.688 335.181 159.744 335.24 159.785C337.396 157.494 340.187 155.9 343.255 155.207C343.985 155.041 344.726 154.928 345.472 154.866L345.502 154.346C345.692 154.177 345.83 153.957 345.899 153.712C345.926 152.967 345.881 152.222 345.763 151.487C345.684 151.102 345.628 150.713 345.594 150.321V150.008V149.973C345.577 149.63 345.696 149.294 345.926 149.039ZM344.919 164.556L345.284 158.123C344.847 158.177 344.414 158.252 343.985 158.349C341.688 158.866 339.58 160.014 337.901 161.664L343.176 165.373C343.334 165.485 343.519 165.552 343.712 165.569C343.904 165.585 344.098 165.55 344.273 165.467C344.448 165.384 344.597 165.255 344.706 165.095C344.815 164.935 344.879 164.749 344.892 164.556H344.919ZM355.711 161.664C353.715 159.709 351.131 158.465 348.358 158.123L348.731 164.564C348.744 164.758 348.808 164.944 348.917 165.105C349.026 165.265 349.176 165.394 349.351 165.477C349.526 165.56 349.72 165.595 349.913 165.578C350.107 165.562 350.292 165.493 350.45 165.381H350.469L355.711 161.664ZM340.796 168.374L335.978 164.066V164.068C334.513 166.461 333.887 169.273 334.197 172.061L340.371 170.28V170.258C340.558 170.204 340.727 170.101 340.86 169.96C340.994 169.819 341.087 169.644 341.13 169.455C341.174 169.265 341.165 169.068 341.107 168.882C341.048 168.697 340.94 168.531 340.796 168.401V168.374ZM359.472 172.037C359.74 169.25 359.092 166.451 357.626 164.066L357.634 164.09L352.844 168.377C352.699 168.506 352.592 168.673 352.533 168.858C352.474 169.043 352.466 169.241 352.509 169.43C352.552 169.62 352.646 169.794 352.779 169.936C352.913 170.077 353.082 170.18 353.268 170.234V170.261L359.472 172.037ZM347.805 168.695H345.831L344.6 170.226L345.041 172.132L346.817 172.987L348.59 172.135L349.031 170.228L347.805 168.695ZM352.405 173.962C352.324 173.946 352.24 173.94 352.157 173.943V173.962C351.984 173.972 351.815 174.024 351.665 174.113C351.516 174.202 351.39 174.326 351.298 174.474C351.206 174.621 351.15 174.789 351.136 174.963C351.123 175.136 351.15 175.31 351.218 175.471L353.696 181.462C356.058 179.949 357.851 177.694 358.791 175.051L352.405 173.962ZM341.934 174.109C341.78 174.022 341.607 173.975 341.43 173.97L341.422 173.957C341.351 173.956 341.28 173.962 341.21 173.976L334.878 175.051C335.829 177.681 337.621 179.923 339.976 181.429L342.427 175.501L342.408 175.476C342.476 175.313 342.502 175.136 342.486 174.96C342.47 174.784 342.411 174.614 342.315 174.466C342.219 174.318 342.088 174.195 341.934 174.109ZM347.355 176.712C347.18 176.612 346.981 176.562 346.779 176.568V176.579C346.589 176.586 346.405 176.643 346.244 176.743C346.083 176.844 345.951 176.984 345.861 177.151L342.748 182.78C344.977 183.539 347.373 183.663 349.668 183.137C350.09 183.042 350.506 182.925 350.915 182.788L347.795 177.137H347.77C347.674 176.96 347.53 176.813 347.355 176.712Z" fill="#111827"/>
</g>
<path d="M279.623 162.547L285.374 168.298L279.623 174.048" stroke="#9CA3AF" stroke-width="2" stroke-linecap="round" stroke-linejoin="round"/>
<path d="M285.373 168.298H263.686" stroke="#9CA3AF" stroke-width="2" stroke-linecap="round" stroke-linejoin="round"/>
</g>
<defs>
<filter id="filter0_dd_4668_106692" x="0.5" y="0.712891" width="408" height="342.782" filterUnits="userSpaceOnUse" color-interpolation-filters="sRGB">
<feFlood flood-opacity="0" result="BackgroundImageFix"/>
<feColorMatrix in="SourceAlpha" type="matrix" values="0 0 0 0 0 0 0 0 0 0 0 0 0 0 0 0 0 0 127 0" result="hardAlpha"/>
<feOffset dy="2"/>
<feGaussianBlur stdDeviation="8"/>
<feColorMatrix type="matrix" values="0 0 0 0 0.129412 0 0 0 0 0.168627 0 0 0 0 0.211765 0 0 0 0.08 0"/>
<feBlend mode="normal" in2="BackgroundImageFix" result="effect1_dropShadow_4668_106692"/>
<feColorMatrix in="SourceAlpha" type="matrix" values="0 0 0 0 0 0 0 0 0 0 0 0 0 0 0 0 0 0 127 0" result="hardAlpha"/>
<feMorphology radius="1" operator="dilate" in="SourceAlpha" result="effect2_dropShadow_4668_106692"/>
<feOffset/>
<feColorMatrix type="matrix" values="0 0 0 0 0.0235294 0 0 0 0 0.172549 0 0 0 0 0.321569 0 0 0 0.1 0"/>
<feBlend mode="normal" in2="effect1_dropShadow_4668_106692" result="effect2_dropShadow_4668_106692"/>
<feBlend mode="normal" in="SourceGraphic" in2="effect2_dropShadow_4668_106692" result="shape"/>
</filter>
<clipPath id="clip0_4668_106692">
<rect x="37" y="63.2129" width="191.325" height="36" rx="4" fill="white"/>
</clipPath>
<clipPath id="clip1_4668_106692">
<rect x="37" y="147.213" width="191.325" height="36" rx="4" fill="white"/>
</clipPath>
<clipPath id="clip2_4668_106692">
<rect x="37" y="203.213" width="191.325" height="36" rx="4" fill="white"/>
</clipPath>
<clipPath id="clip3_4668_106692">
<rect width="60" height="60" fill="white" transform="translate(316.82 138.296)"/>
</clipPath>
</defs>
</svg>
