<svg width="281" height="494" viewBox="0 0 281 494" fill="none" xmlns="http://www.w3.org/2000/svg">
<g clip-path="url(#clip0_3938_58828)" filter="url(#filter0_dd_3938_58828)">
<rect x="91.3594" y="20.5" width="99" height="99" rx="3.5" fill="white"/>
<rect x="91.3594" y="20.5" width="99" height="99" rx="3.5" stroke="#E4E4E7"/>
<g clip-path="url(#clip1_3938_58828)">
<path fill-rule="evenodd" clip-rule="evenodd" d="M141.293 40.7082C141.019 40.5761 140.699 40.5761 140.425 40.7082L117.111 51.9355C116.837 52.0675 116.638 52.3172 116.57 52.6139L110.812 77.8414C110.744 78.1381 110.816 78.4495 111.005 78.6874L127.139 98.9184C127.329 99.1563 127.616 99.2949 127.921 99.2949H153.797C154.101 99.2949 154.389 99.1563 154.579 98.9184L170.712 78.6874C170.902 78.4495 170.973 78.1381 170.906 77.8414L165.148 52.6139C165.08 52.3172 164.881 52.0675 164.606 51.9355L141.293 40.7082ZM139.965 50.743C140.195 50.4879 140.516 50.334 140.859 50.315L140.861 50.3068C141.204 50.3258 141.525 50.4797 141.755 50.7348C141.985 50.99 142.104 51.3256 142.087 51.6685V52.0171C142.053 52.4085 141.997 52.7977 141.918 53.1826C141.8 53.918 141.753 54.6632 141.779 55.4076C141.827 55.6563 141.971 55.8762 142.179 56.0203C142.181 56.0389 142.183 56.0668 142.185 56.1008C142.194 56.2267 142.209 56.4363 142.209 56.565C146.086 56.917 149.704 58.6647 152.389 61.4832L152.855 61.151C153.105 61.1937 153.363 61.1654 153.598 61.0693C154.196 60.6257 154.75 60.125 155.251 59.5742C155.507 59.2728 155.78 58.9863 156.068 58.7164C156.145 58.651 156.256 58.5639 156.341 58.4985C156.462 58.3698 156.609 58.2686 156.772 58.2018C156.936 58.1349 157.112 58.1039 157.288 58.1109C157.465 58.1178 157.638 58.1626 157.795 58.2422C157.953 58.3218 158.092 58.4343 158.202 58.5721C158.313 58.7099 158.392 58.8698 158.435 59.041C158.479 59.2122 158.485 59.3908 158.453 59.5645C158.421 59.7383 158.353 59.9032 158.252 60.0482C158.151 60.1931 158.02 60.3148 157.868 60.4048C157.844 60.4245 157.818 60.4462 157.791 60.4684C157.724 60.5234 157.652 60.582 157.596 60.6227C157.268 60.8399 156.928 61.0382 156.578 61.2164C155.929 61.5835 155.318 62.0131 154.753 62.499C154.588 62.6914 154.505 62.9406 154.521 63.1935L154.086 63.5829C156.261 66.8248 157.17 70.7526 156.64 74.6204L157.136 74.7648C157.257 74.9923 157.44 75.181 157.664 75.3094C158.383 75.5014 159.119 75.6227 159.862 75.6716C160.256 75.6808 160.648 75.7126 161.038 75.767C161.105 75.7792 161.189 75.8003 161.269 75.8204C161.314 75.8317 161.357 75.8426 161.395 75.8514C161.564 75.8745 161.727 75.9326 161.872 76.0219C162.018 76.1113 162.143 76.2299 162.241 76.3704C162.338 76.5108 162.405 76.6699 162.437 76.8376C162.469 77.0053 162.467 77.1778 162.429 77.3444C162.391 77.5109 162.319 77.6677 162.217 77.8048C162.115 77.9419 161.986 78.0563 161.837 78.1408C161.689 78.2253 161.524 78.2779 161.355 78.2954C161.185 78.3129 161.013 78.2949 160.85 78.2424H160.807C160.773 78.2352 160.737 78.2279 160.7 78.2205C160.626 78.2058 160.551 78.1907 160.491 78.1743C160.12 78.0536 159.756 77.9117 159.402 77.7495C158.711 77.4709 157.995 77.2602 157.264 77.1204C157.011 77.112 156.764 77.2029 156.578 77.3737C156.49 77.3546 156.213 77.3056 156.055 77.2811C154.866 81.0144 152.346 84.1801 148.974 86.1754C149.032 86.3448 149.1 86.5103 149.178 86.671C149.053 86.8906 149.018 87.1508 149.083 87.3954C149.382 88.0784 149.747 88.7305 150.172 89.3426C150.411 89.6555 150.631 89.982 150.831 90.3203C150.873 90.3966 150.926 90.5102 150.97 90.6028C150.978 90.6192 150.985 90.635 150.992 90.6498C151.079 90.7971 151.133 90.9609 151.153 91.1306C151.173 91.3002 151.157 91.4722 151.106 91.6354C151.056 91.7986 150.972 91.9496 150.86 92.0787C150.749 92.2078 150.611 92.3122 150.457 92.3852C150.302 92.4582 150.134 92.4983 149.963 92.5029C149.793 92.5075 149.623 92.4765 149.465 92.4119C149.307 92.3473 149.164 92.2505 149.045 92.1276C148.926 92.0048 148.834 91.8585 148.775 91.6982C148.76 91.666 148.742 91.6301 148.724 91.5932C148.688 91.5208 148.65 91.4446 148.623 91.3851C148.482 91.0173 148.363 90.6418 148.266 90.2603C148.053 89.5474 147.771 88.857 147.425 88.1988C147.274 87.9946 147.049 87.8577 146.798 87.8176C146.762 87.7692 146.674 87.6106 146.598 87.4751C146.571 87.4274 146.546 87.3826 146.526 87.3464C142.878 88.7274 138.849 88.7167 135.208 87.3165L134.936 87.8203C134.736 87.8571 134.553 87.954 134.41 88.0981C133.991 88.7843 133.671 89.5259 133.459 90.3012C133.363 90.6826 133.245 91.0581 133.105 91.4259C133.078 91.4876 133.04 91.5639 133.004 91.6361C132.986 91.6722 132.968 91.7073 132.953 91.7391C132.894 91.9002 132.803 92.0473 132.684 92.1709C132.565 92.2945 132.422 92.392 132.263 92.4571C132.105 92.5221 131.934 92.5534 131.763 92.5487C131.592 92.5441 131.423 92.5037 131.268 92.4302C131.113 92.3567 130.976 92.2516 130.864 92.1218C130.752 91.9919 130.668 91.8401 130.618 91.6761C130.569 91.5121 130.554 91.3394 130.574 91.1693C130.595 90.9991 130.651 90.8352 130.739 90.6879C130.756 90.6534 130.775 90.6129 130.794 90.5708C130.829 90.4965 130.866 90.4175 130.897 90.3584C131.098 90.0192 131.318 89.6919 131.556 89.378C131.989 88.7495 132.361 88.0811 132.667 87.3818C132.7 87.1447 132.662 86.9031 132.558 86.6874L132.781 86.1427C129.422 84.1627 126.903 81.0211 125.701 77.3111L125.156 77.4037C124.949 77.2569 124.704 77.171 124.451 77.1558C123.719 77.2956 123.004 77.5063 122.313 77.7849C121.958 77.9462 121.595 78.0871 121.224 78.207C121.159 78.2252 121.072 78.2434 120.99 78.2605C120.962 78.2664 120.934 78.2722 120.908 78.2778H120.864C120.702 78.3303 120.53 78.3483 120.36 78.3308C120.19 78.3133 120.026 78.2607 119.877 78.1762C119.729 78.0917 119.6 77.9773 119.498 77.8402C119.396 77.7031 119.324 77.5463 119.286 77.3798C119.248 77.2132 119.245 77.0407 119.278 76.873C119.31 76.7053 119.377 76.5462 119.474 76.4058C119.571 76.2653 119.697 76.1467 119.842 76.0573C119.988 75.968 120.15 75.9099 120.32 75.8868H120.339L120.356 75.8826C120.454 75.8586 120.578 75.8285 120.665 75.8105C121.055 75.7562 121.448 75.7244 121.842 75.7152C122.584 75.6662 123.321 75.5449 124.04 75.353C124.254 75.2133 124.433 75.0271 124.565 74.8083L125.08 74.6586C124.523 70.7879 125.414 66.8478 127.583 63.5938L127.19 63.2425C127.177 62.9882 127.092 62.7429 126.945 62.5344C126.38 62.0485 125.769 61.6189 125.121 61.2518C124.771 61.0735 124.432 60.8753 124.105 60.6581C124.058 60.6235 124.002 60.5768 123.946 60.5305C123.913 60.504 123.881 60.4777 123.852 60.4538H123.833C123.553 60.2537 123.365 59.951 123.308 59.6121C123.251 59.2732 123.331 58.9257 123.53 58.6456C123.648 58.5016 123.798 58.3874 123.967 58.3122C124.137 58.2369 124.322 58.2028 124.508 58.2126C124.82 58.2254 125.12 58.3381 125.363 58.5339C125.373 58.5418 125.384 58.5501 125.395 58.5586C125.475 58.6201 125.571 58.6943 125.635 58.7518C125.924 59.0217 126.197 59.3081 126.452 59.6096C126.954 60.1605 127.507 60.6613 128.105 61.1047C128.33 61.2229 128.592 61.2484 128.835 61.1755C128.875 61.1987 128.969 61.2665 129.067 61.3378C129.142 61.3922 129.22 61.4486 129.279 61.4887C131.435 59.1979 134.226 57.6037 137.294 56.9108C138.024 56.7455 138.765 56.6318 139.511 56.5704L139.541 56.0503C139.731 55.8809 139.869 55.6608 139.938 55.4157C139.965 54.6714 139.92 53.9263 139.802 53.1908C139.723 52.8058 139.667 52.4167 139.633 52.0252V51.712V51.6766C139.616 51.3338 139.735 50.9982 139.965 50.743ZM138.958 66.2599L139.323 59.8275C138.886 59.8807 138.453 59.9561 138.024 60.0535C135.727 60.5698 133.619 61.7177 131.94 63.3678L137.215 67.0769C137.373 67.1886 137.558 67.2562 137.751 67.2727C137.944 67.2892 138.137 67.2541 138.312 67.1709C138.487 67.0877 138.636 66.9594 138.745 66.7993C138.854 66.6392 138.918 66.453 138.931 66.2599H138.958ZM149.75 63.3678C147.754 61.4133 145.17 60.1694 142.397 59.8275L142.77 66.2681C142.783 66.4616 142.847 66.6483 142.956 66.8088C143.065 66.9694 143.215 67.0979 143.39 67.1812C143.565 67.2645 143.759 67.2995 143.952 67.2826C144.146 67.2657 144.331 67.1975 144.489 67.0851H144.508L149.75 63.3678ZM134.835 70.078L130.017 65.7697V65.7724C128.552 68.165 127.926 70.9772 128.236 73.7653L134.41 71.9843V71.9625C134.597 71.9085 134.766 71.8055 134.899 71.6642C135.033 71.5229 135.126 71.3485 135.169 71.1589C135.213 70.9694 135.204 70.7718 135.146 70.5865C135.087 70.4012 134.979 70.235 134.835 70.1052V70.078ZM153.511 73.7408C153.78 70.9536 153.131 68.155 151.665 65.7697L151.673 65.7942L146.883 70.0807C146.738 70.2105 146.631 70.3767 146.572 70.562C146.513 70.7473 146.505 70.9449 146.548 71.1344C146.592 71.3239 146.685 71.4984 146.818 71.6397C146.952 71.781 147.121 71.884 147.307 71.938V71.9652L153.511 73.7408ZM141.845 70.3993H139.87L138.639 71.9298L139.08 73.8361L140.856 74.6912L142.629 73.8389L143.07 71.9325L141.845 70.3993ZM146.444 75.6662C146.363 75.6504 146.279 75.644 146.196 75.6471V75.6662C146.023 75.6766 145.854 75.7284 145.704 75.8174C145.555 75.9064 145.429 76.03 145.337 76.1777C145.245 76.3255 145.189 76.4931 145.176 76.6666C145.162 76.8401 145.19 77.0144 145.257 77.1749L147.735 83.1662C150.097 81.6535 151.89 79.3983 152.83 76.7555L146.444 75.6662ZM135.973 75.813C135.819 75.7266 135.646 75.679 135.469 75.6744L135.461 75.6607C135.39 75.6601 135.319 75.6665 135.249 75.6798L128.917 76.7555C129.868 79.3847 131.66 81.6267 134.015 83.1335L136.466 77.2049L136.447 77.1803C136.515 77.0171 136.542 76.8398 136.525 76.6638C136.509 76.4878 136.451 76.3184 136.354 76.1702C136.258 76.0219 136.127 75.8993 135.973 75.813ZM141.394 78.4165C141.219 78.316 141.02 78.2661 140.818 78.2724V78.2833C140.628 78.2905 140.444 78.347 140.283 78.4473C140.122 78.5476 139.99 78.6882 139.9 78.8552L136.787 84.4842C139.016 85.2432 141.412 85.3667 143.707 84.841C144.129 84.7457 144.545 84.6293 144.955 84.4924L141.834 78.8416H141.809C141.713 78.6642 141.569 78.517 141.394 78.4165Z" fill="#111827"/>
</g>
<path d="M134.496 142.364L140.86 136L147.224 142.364" stroke="#9CA3AF" stroke-width="2" stroke-linecap="round" stroke-linejoin="round"/>
<path d="M140.859 136V160" stroke="#9CA3AF" stroke-width="2" stroke-linecap="round" stroke-linejoin="round"/>
<rect x="20.3594" y="175.5" width="241" height="305" rx="8.5" fill="#F4F4F5"/>
<rect x="20.3594" y="175.5" width="241" height="305" rx="8.5" stroke="#D4D4D8"/>
<path d="M41.9873 213V202.814H43.7852L47.6201 208.878C47.7477 209.078 47.8913 209.318 48.0508 209.596C48.2103 209.874 48.3789 210.188 48.5566 210.539C48.7344 210.885 48.9098 211.264 49.083 211.674H48.8916C48.8506 211.286 48.8187 210.904 48.7959 210.525C48.7777 210.143 48.764 209.785 48.7549 209.452C48.7458 209.119 48.7412 208.839 48.7412 208.611V202.814H50.3203V213H48.5156L45.0771 207.579C44.8949 207.283 44.7148 206.984 44.5371 206.684C44.3639 206.383 44.1702 206.036 43.9561 205.645C43.7464 205.248 43.4889 204.767 43.1836 204.202H43.4297C43.4525 204.703 43.4753 205.173 43.498 205.61C43.5208 206.043 43.5368 206.428 43.5459 206.766C43.5596 207.098 43.5664 207.365 43.5664 207.565V213H41.9873ZM55.3037 213.15C54.6885 213.15 54.1393 212.993 53.6562 212.679C53.1777 212.36 52.7995 211.906 52.5215 211.318C52.248 210.726 52.1113 210.02 52.1113 209.199C52.1113 208.37 52.2503 207.661 52.5283 207.073C52.8109 206.485 53.1937 206.036 53.6768 205.727C54.1644 205.417 54.7135 205.262 55.3242 205.262C55.7936 205.262 56.1719 205.339 56.459 205.494C56.7507 205.649 56.9762 205.834 57.1357 206.048C57.2998 206.257 57.4251 206.442 57.5117 206.602H57.6074V205.357H59.0977V213H57.6143V211.804H57.5117C57.4251 211.968 57.2975 212.157 57.1289 212.371C56.9603 212.581 56.7301 212.763 56.4385 212.918C56.1468 213.073 55.7686 213.15 55.3037 213.15ZM55.6523 211.872C56.0807 211.872 56.4408 211.758 56.7324 211.53C57.0286 211.302 57.252 210.988 57.4023 210.587C57.5527 210.181 57.6279 209.714 57.6279 209.186C57.6279 208.652 57.5527 208.19 57.4023 207.798C57.252 207.401 57.0286 207.094 56.7324 206.875C56.4408 206.652 56.0807 206.54 55.6523 206.54C55.2103 206.54 54.8411 206.656 54.5449 206.889C54.2487 207.117 54.0254 207.431 53.875 207.832C53.7246 208.229 53.6494 208.68 53.6494 209.186C53.6494 209.691 53.7246 210.147 53.875 210.553C54.0254 210.958 54.2487 211.28 54.5449 211.517C54.8457 211.754 55.2148 211.872 55.6523 211.872ZM61.1211 213V205.357H62.5498L62.5908 207.128H62.4746C62.584 206.695 62.7526 206.34 62.9805 206.062C63.2083 205.784 63.4749 205.576 63.7803 205.439C64.0856 205.298 64.4046 205.228 64.7373 205.228C65.2933 205.228 65.7422 205.401 66.084 205.747C66.4258 206.089 66.6559 206.567 66.7744 207.183H66.583C66.6833 206.763 66.8564 206.408 67.1025 206.116C67.3486 205.825 67.6449 205.604 67.9912 205.453C68.3421 205.303 68.7158 205.228 69.1123 205.228C69.5635 205.228 69.9714 205.326 70.3359 205.521C70.7051 205.717 70.9967 206.009 71.2109 206.396C71.4251 206.784 71.5322 207.267 71.5322 207.846V213H70.0215V207.996C70.0215 207.486 69.8802 207.117 69.5977 206.889C69.3151 206.661 68.9801 206.547 68.5928 206.547C68.2783 206.547 68.0072 206.613 67.7793 206.745C67.5514 206.877 67.376 207.062 67.2529 207.299C67.1299 207.531 67.0684 207.8 67.0684 208.105V213H65.585V207.9C65.585 207.49 65.4528 207.162 65.1885 206.916C64.9287 206.67 64.596 206.547 64.1904 206.547C63.9124 206.547 63.6527 206.613 63.4111 206.745C63.1742 206.873 62.9827 207.064 62.8369 207.319C62.6956 207.57 62.625 207.88 62.625 208.249V213H61.1211ZM76.8574 213.157C76.1055 213.157 75.4561 212.995 74.9092 212.672C74.3623 212.348 73.9408 211.893 73.6445 211.305C73.3529 210.717 73.207 210.026 73.207 209.233C73.207 208.45 73.3506 207.759 73.6377 207.162C73.9294 206.565 74.3395 206.1 74.8682 205.768C75.3968 205.43 76.0166 205.262 76.7275 205.262C77.165 205.262 77.5866 205.335 77.9922 205.48C78.3978 205.622 78.7624 205.845 79.0859 206.15C79.4095 206.456 79.6647 206.852 79.8516 207.34C80.043 207.823 80.1387 208.411 80.1387 209.104V209.637H74.0479V208.516H79.3662L78.6621 208.885C78.6621 208.415 78.5892 208.003 78.4434 207.647C78.2975 207.287 78.0811 207.007 77.7939 206.807C77.5114 206.606 77.1559 206.506 76.7275 206.506C76.3037 206.506 75.9414 206.608 75.6406 206.813C75.3398 207.019 75.1097 207.29 74.9502 207.627C74.7952 207.96 74.7178 208.324 74.7178 208.721V209.486C74.7178 210.01 74.8066 210.455 74.9844 210.819C75.1667 211.179 75.4196 211.453 75.7432 211.64C76.0667 211.822 76.4427 211.913 76.8711 211.913C77.1536 211.913 77.4089 211.874 77.6367 211.797C77.8646 211.715 78.0605 211.594 78.2246 211.435C78.3932 211.271 78.5208 211.07 78.6074 210.833L80.0225 211.168C79.8994 211.56 79.6921 211.906 79.4004 212.207C79.1133 212.508 78.7533 212.743 78.3203 212.911C77.8919 213.075 77.4043 213.157 76.8574 213.157Z" fill="#111827"/>
<g clip-path="url(#clip2_3938_58828)">
<rect x="40.8594" y="224" width="200" height="36" rx="4" fill="white"/>
<path d="M53.2686 247H50.8076V245.852H53.1865C54.016 245.852 54.7018 245.694 55.2441 245.38C55.791 245.061 56.1989 244.605 56.4678 244.013C56.7367 243.42 56.8711 242.712 56.8711 241.887C56.8711 241.071 56.7367 240.371 56.4678 239.788C56.2035 239.2 55.807 238.749 55.2783 238.435C54.7542 238.12 54.098 237.963 53.3096 237.963H50.7529V236.814H53.3984C54.3919 236.814 55.2396 237.017 55.9414 237.423C56.6478 237.828 57.1878 238.412 57.5615 239.173C57.9398 239.929 58.1289 240.834 58.1289 241.887C58.1289 242.949 57.9398 243.862 57.5615 244.628C57.1833 245.389 56.6318 245.975 55.9072 246.385C55.1826 246.795 54.3031 247 53.2686 247ZM51.3887 236.814V247H50.0898V236.814H51.3887ZM63.2559 247.164C62.5176 247.164 61.8796 247 61.3418 246.672C60.8086 246.344 60.3962 245.886 60.1045 245.298C59.8174 244.71 59.6738 244.024 59.6738 243.24C59.6738 242.456 59.8151 241.766 60.0977 241.169C60.3802 240.572 60.779 240.105 61.2939 239.768C61.8135 239.43 62.4196 239.262 63.1123 239.262C63.5179 239.262 63.9167 239.33 64.3086 239.467C64.7051 239.599 65.0628 239.815 65.3818 240.116C65.7054 240.412 65.9629 240.804 66.1543 241.292C66.3457 241.78 66.4414 242.377 66.4414 243.083V243.596H60.5078V242.557H65.7783L65.2041 242.939C65.2041 242.438 65.1243 241.994 64.9648 241.606C64.8099 241.215 64.5775 240.909 64.2676 240.69C63.9577 240.467 63.5726 240.355 63.1123 240.355C62.652 240.355 62.2578 240.469 61.9297 240.697C61.6016 240.921 61.3509 241.215 61.1777 241.579C61.0046 241.939 60.918 242.326 60.918 242.741V243.432C60.918 243.997 61.016 244.478 61.2119 244.874C61.4079 245.266 61.6813 245.564 62.0322 245.77C62.3877 245.97 62.7979 246.07 63.2627 246.07C63.5635 246.07 63.8369 246.027 64.083 245.94C64.3291 245.854 64.541 245.724 64.7188 245.551C64.8965 245.373 65.0332 245.154 65.1289 244.895L66.3184 245.223C66.1999 245.605 65.9993 245.943 65.7168 246.234C65.4342 246.526 65.0833 246.754 64.6641 246.918C64.2493 247.082 63.7799 247.164 63.2559 247.164ZM70.1396 247L67.2207 239.357H68.5674L70.1943 243.89C70.3675 244.359 70.5133 244.828 70.6318 245.298C70.7549 245.763 70.8825 246.214 71.0146 246.651H70.5635C70.6956 246.214 70.821 245.763 70.9395 245.298C71.0625 244.828 71.2083 244.359 71.377 243.89L73.0039 239.357H74.3506L71.4316 247H70.1396ZM82.8545 247.164C82.1618 247.164 81.5534 247 81.0293 246.672C80.5098 246.344 80.1042 245.883 79.8125 245.291C79.5208 244.699 79.375 244.01 79.375 243.227C79.375 242.429 79.5208 241.734 79.8125 241.142C80.1042 240.545 80.5098 240.082 81.0293 239.754C81.5534 239.426 82.1618 239.262 82.8545 239.262C83.2236 239.262 83.5723 239.31 83.9004 239.405C84.2285 239.501 84.527 239.64 84.7959 239.822C85.0693 240 85.304 240.221 85.5 240.485C85.696 240.745 85.8464 241.041 85.9512 241.374L84.7686 241.709C84.7139 241.513 84.6296 241.333 84.5156 241.169C84.4017 241.005 84.2627 240.864 84.0986 240.745C83.9391 240.622 83.7546 240.529 83.5449 240.465C83.3353 240.396 83.1051 240.362 82.8545 240.362C82.3441 240.362 81.9248 240.497 81.5967 240.766C81.2686 241.03 81.0247 241.379 80.8652 241.812C80.7057 242.244 80.626 242.716 80.626 243.227C80.626 243.728 80.7057 244.195 80.8652 244.628C81.0247 245.056 81.2686 245.403 81.5967 245.667C81.9248 245.931 82.3441 246.063 82.8545 246.063C83.1097 246.063 83.3444 246.029 83.5586 245.961C83.7728 245.893 83.9619 245.797 84.126 245.674C84.2946 245.546 84.4359 245.396 84.5498 245.223C84.6637 245.049 84.748 244.86 84.8027 244.655L85.9785 244.99C85.8783 245.332 85.7279 245.637 85.5273 245.906C85.3314 246.171 85.0967 246.398 84.8232 246.59C84.5498 246.777 84.2467 246.918 83.9141 247.014C83.5814 247.114 83.2282 247.164 82.8545 247.164ZM88.9727 236.814V247H87.7422V236.814H88.9727ZM93.7236 247.096C93.2087 247.096 92.7552 246.991 92.3633 246.781C91.9759 246.567 91.6729 246.246 91.4541 245.817C91.2399 245.389 91.1328 244.854 91.1328 244.211V239.357H92.3633V244.108C92.3633 244.696 92.5182 245.157 92.8281 245.489C93.138 245.822 93.5596 245.988 94.0928 245.988C94.4574 245.988 94.7832 245.909 95.0703 245.749C95.362 245.59 95.5921 245.357 95.7607 245.052C95.9294 244.742 96.0137 244.37 96.0137 243.938V239.357H97.251V247H96.0615V245.147H96.2256C95.9886 245.863 95.6514 246.367 95.2139 246.658C94.7809 246.95 94.2842 247.096 93.7236 247.096ZM102.016 247.164C101.492 247.164 101.024 247.089 100.614 246.938C100.209 246.784 99.8737 246.556 99.6094 246.255C99.3451 245.954 99.1673 245.585 99.0762 245.147L100.245 244.867C100.354 245.286 100.56 245.594 100.86 245.79C101.166 245.986 101.546 246.084 102.002 246.084C102.535 246.084 102.959 245.97 103.273 245.742C103.592 245.514 103.752 245.243 103.752 244.929C103.752 244.664 103.659 244.446 103.472 244.272C103.289 244.095 103.009 243.963 102.631 243.876L101.359 243.575C100.667 243.411 100.152 243.158 99.8145 242.816C99.4772 242.47 99.3086 242.028 99.3086 241.49C99.3086 241.053 99.4316 240.668 99.6777 240.335C99.9238 239.998 100.259 239.736 100.683 239.549C101.111 239.357 101.596 239.262 102.139 239.262C102.663 239.262 103.107 239.341 103.472 239.501C103.841 239.656 104.139 239.872 104.367 240.15C104.6 240.424 104.773 240.741 104.887 241.101L103.772 241.388C103.668 241.114 103.492 240.866 103.246 240.643C103.005 240.419 102.638 240.308 102.146 240.308C101.69 240.308 101.309 240.412 101.004 240.622C100.703 240.832 100.553 241.096 100.553 241.415C100.553 241.698 100.655 241.925 100.86 242.099C101.065 242.267 101.391 242.404 101.838 242.509L102.993 242.782C103.686 242.946 104.199 243.201 104.531 243.548C104.864 243.89 105.03 244.323 105.03 244.847C105.03 245.293 104.903 245.692 104.647 246.043C104.397 246.389 104.044 246.663 103.588 246.863C103.137 247.064 102.613 247.164 102.016 247.164ZM109.822 239.357V240.41H105.871V239.357H109.822ZM107.02 237.539H108.25V245.018C108.25 245.359 108.318 245.61 108.455 245.77C108.596 245.924 108.829 246.002 109.152 246.002C109.23 246.002 109.328 245.993 109.446 245.975C109.569 245.956 109.681 245.938 109.781 245.92L110.034 246.959C109.907 247.005 109.761 247.039 109.597 247.062C109.437 247.084 109.278 247.096 109.118 247.096C108.457 247.096 107.942 246.923 107.573 246.576C107.204 246.225 107.02 245.738 107.02 245.113V237.539ZM114.471 247.164C113.732 247.164 113.094 247 112.557 246.672C112.023 246.344 111.611 245.886 111.319 245.298C111.032 244.71 110.889 244.024 110.889 243.24C110.889 242.456 111.03 241.766 111.312 241.169C111.595 240.572 111.994 240.105 112.509 239.768C113.028 239.43 113.634 239.262 114.327 239.262C114.733 239.262 115.132 239.33 115.523 239.467C115.92 239.599 116.278 239.815 116.597 240.116C116.92 240.412 117.178 240.804 117.369 241.292C117.561 241.78 117.656 242.377 117.656 243.083V243.596H111.723V242.557H116.993L116.419 242.939C116.419 242.438 116.339 241.994 116.18 241.606C116.025 241.215 115.792 240.909 115.482 240.69C115.173 240.467 114.787 240.355 114.327 240.355C113.867 240.355 113.473 240.469 113.145 240.697C112.816 240.921 112.566 241.215 112.393 241.579C112.219 241.939 112.133 242.326 112.133 242.741V243.432C112.133 243.997 112.231 244.478 112.427 244.874C112.623 245.266 112.896 245.564 113.247 245.77C113.603 245.97 114.013 246.07 114.478 246.07C114.778 246.07 115.052 246.027 115.298 245.94C115.544 245.854 115.756 245.724 115.934 245.551C116.111 245.373 116.248 245.154 116.344 244.895L117.533 245.223C117.415 245.605 117.214 245.943 116.932 246.234C116.649 246.526 116.298 246.754 115.879 246.918C115.464 247.082 114.995 247.164 114.471 247.164ZM119.42 247V239.357H120.609V240.533H120.691C120.833 240.146 121.083 239.836 121.443 239.604C121.808 239.367 122.218 239.248 122.674 239.248C122.765 239.248 122.872 239.25 122.995 239.255C123.123 239.259 123.223 239.264 123.296 239.269V240.506C123.259 240.497 123.168 240.483 123.022 240.465C122.877 240.447 122.722 240.438 122.558 240.438C122.193 240.438 121.865 240.515 121.573 240.67C121.286 240.82 121.061 241.03 120.896 241.299C120.732 241.563 120.65 241.868 120.65 242.215V247H119.42ZM131.896 247.137C131.23 247.137 130.64 247.023 130.125 246.795C129.61 246.567 129.2 246.25 128.895 245.845C128.594 245.439 128.432 244.967 128.409 244.43H129.722C129.749 244.753 129.858 245.034 130.05 245.271C130.246 245.503 130.501 245.683 130.815 245.811C131.134 245.934 131.488 245.995 131.875 245.995C132.303 245.995 132.682 245.922 133.01 245.776C133.342 245.626 133.604 245.416 133.796 245.147C133.987 244.879 134.083 244.569 134.083 244.218C134.083 243.849 133.99 243.525 133.803 243.247C133.62 242.965 133.354 242.743 133.003 242.584C132.652 242.424 132.224 242.345 131.718 242.345H130.891V241.217H131.718C132.114 241.217 132.463 241.146 132.764 241.005C133.069 240.859 133.306 240.656 133.475 240.396C133.643 240.137 133.728 239.831 133.728 239.48C133.728 239.143 133.652 238.849 133.502 238.599C133.356 238.348 133.146 238.154 132.873 238.018C132.6 237.876 132.278 237.806 131.909 237.806C131.563 237.806 131.237 237.869 130.932 237.997C130.631 238.12 130.382 238.298 130.187 238.53C129.995 238.763 129.893 239.045 129.879 239.378H128.628C128.646 238.845 128.806 238.375 129.106 237.97C129.407 237.564 129.804 237.247 130.296 237.02C130.793 236.792 131.34 236.678 131.937 236.678C132.57 236.678 133.115 236.805 133.57 237.061C134.031 237.316 134.384 237.651 134.63 238.065C134.876 238.48 134.999 238.929 134.999 239.412C134.999 239.986 134.846 240.474 134.541 240.875C134.24 241.276 133.83 241.554 133.311 241.709V241.791C133.743 241.859 134.113 242.005 134.418 242.229C134.728 242.452 134.963 242.734 135.122 243.076C135.286 243.418 135.368 243.803 135.368 244.231C135.368 244.787 135.218 245.284 134.917 245.722C134.616 246.159 134.204 246.506 133.68 246.761C133.156 247.011 132.561 247.137 131.896 247.137Z" fill="#111827"/>
</g>
<rect x="40.8594" y="224" width="200" height="36" rx="4" stroke="#E4E4E7"/>
<path d="M41.9873 297V286.814H43.7852L47.6201 292.878C47.7477 293.078 47.8913 293.318 48.0508 293.596C48.2103 293.874 48.3789 294.188 48.5566 294.539C48.7344 294.885 48.9098 295.264 49.083 295.674H48.8916C48.8506 295.286 48.8187 294.904 48.7959 294.525C48.7777 294.143 48.764 293.785 48.7549 293.452C48.7458 293.119 48.7412 292.839 48.7412 292.611V286.814H50.3203V297H48.5156L45.0771 291.579C44.8949 291.283 44.7148 290.984 44.5371 290.684C44.3639 290.383 44.1702 290.036 43.9561 289.645C43.7464 289.248 43.4889 288.767 43.1836 288.202H43.4297C43.4525 288.703 43.4753 289.173 43.498 289.61C43.5208 290.043 43.5368 290.428 43.5459 290.766C43.5596 291.098 43.5664 291.365 43.5664 291.565V297H41.9873ZM55.6797 297.157C54.9642 297.157 54.3376 296.993 53.7998 296.665C53.2666 296.337 52.8519 295.877 52.5557 295.284C52.2594 294.692 52.1113 294.004 52.1113 293.22C52.1113 292.427 52.2594 291.734 52.5557 291.142C52.8519 290.545 53.2666 290.082 53.7998 289.754C54.3376 289.426 54.9642 289.262 55.6797 289.262C56.3997 289.262 57.0264 289.426 57.5596 289.754C58.0973 290.082 58.5143 290.545 58.8105 291.142C59.1068 291.734 59.2549 292.427 59.2549 293.22C59.2549 294.004 59.1068 294.692 58.8105 295.284C58.5143 295.877 58.0973 296.337 57.5596 296.665C57.0264 296.993 56.3997 297.157 55.6797 297.157ZM55.6797 295.886C56.1445 295.886 56.5273 295.765 56.8281 295.523C57.1335 295.277 57.359 294.954 57.5049 294.553C57.6553 294.147 57.7305 293.703 57.7305 293.22C57.7305 292.732 57.6553 292.285 57.5049 291.88C57.359 291.47 57.1335 291.144 56.8281 290.902C56.5273 290.656 56.1445 290.533 55.6797 290.533C55.2194 290.533 54.8389 290.656 54.5381 290.902C54.2373 291.144 54.0117 291.467 53.8613 291.873C53.7155 292.279 53.6426 292.728 53.6426 293.22C53.6426 293.703 53.7155 294.147 53.8613 294.553C54.0117 294.954 54.2373 295.277 54.5381 295.523C54.8389 295.765 55.2194 295.886 55.6797 295.886ZM63.7734 297.15C63.1536 297.15 62.6022 296.993 62.1191 296.679C61.6361 296.36 61.2578 295.906 60.9844 295.318C60.7109 294.726 60.5742 294.02 60.5742 293.199C60.5742 292.37 60.7132 291.661 60.9912 291.073C61.2692 290.485 61.6497 290.036 62.1328 289.727C62.6159 289.417 63.1628 289.262 63.7734 289.262C64.2474 289.262 64.6279 289.341 64.915 289.501C65.2067 289.656 65.4346 289.838 65.5986 290.048C65.7627 290.257 65.888 290.442 65.9746 290.602H66.0566V286.814H67.5605V297H66.0977V295.804H65.9746C65.888 295.968 65.7604 296.155 65.5918 296.364C65.4232 296.574 65.193 296.758 64.9014 296.918C64.6097 297.073 64.2337 297.15 63.7734 297.15ZM64.1016 295.872C64.5299 295.872 64.89 295.758 65.1816 295.53C65.4779 295.302 65.7012 294.988 65.8516 294.587C66.0065 294.181 66.084 293.714 66.084 293.186C66.084 292.652 66.0088 292.19 65.8584 291.798C65.708 291.401 65.4847 291.094 65.1885 290.875C64.8968 290.652 64.5345 290.54 64.1016 290.54C63.6595 290.54 63.2904 290.656 62.9941 290.889C62.7025 291.121 62.4814 291.438 62.3311 291.839C62.1852 292.235 62.1123 292.684 62.1123 293.186C62.1123 293.691 62.1875 294.147 62.3379 294.553C62.4883 294.958 62.7116 295.28 63.0078 295.517C63.304 295.754 63.6686 295.872 64.1016 295.872ZM72.8789 297.157C72.127 297.157 71.4775 296.995 70.9307 296.672C70.3838 296.348 69.9622 295.893 69.666 295.305C69.3743 294.717 69.2285 294.026 69.2285 293.233C69.2285 292.45 69.3721 291.759 69.6592 291.162C69.9508 290.565 70.361 290.1 70.8896 289.768C71.4183 289.43 72.0381 289.262 72.749 289.262C73.1865 289.262 73.6081 289.335 74.0137 289.48C74.4193 289.622 74.7839 289.845 75.1074 290.15C75.431 290.456 75.6862 290.852 75.873 291.34C76.0645 291.823 76.1602 292.411 76.1602 293.104V293.637H70.0693V292.516H75.3877L74.6836 292.885C74.6836 292.415 74.6107 292.003 74.4648 291.647C74.319 291.287 74.1025 291.007 73.8154 290.807C73.5329 290.606 73.1774 290.506 72.749 290.506C72.3252 290.506 71.9629 290.608 71.6621 290.813C71.3613 291.019 71.1312 291.29 70.9717 291.627C70.8167 291.96 70.7393 292.324 70.7393 292.721V293.486C70.7393 294.01 70.8281 294.455 71.0059 294.819C71.1882 295.179 71.4411 295.453 71.7646 295.64C72.0882 295.822 72.4642 295.913 72.8926 295.913C73.1751 295.913 73.4303 295.874 73.6582 295.797C73.8861 295.715 74.082 295.594 74.2461 295.435C74.4147 295.271 74.5423 295.07 74.6289 294.833L76.0439 295.168C75.9209 295.56 75.7135 295.906 75.4219 296.207C75.1348 296.508 74.7747 296.743 74.3418 296.911C73.9134 297.075 73.4258 297.157 72.8789 297.157ZM77.8145 299.857V289.357H79.2773V290.602H79.4004C79.4915 290.442 79.6169 290.257 79.7764 290.048C79.9404 289.838 80.166 289.656 80.4531 289.501C80.7448 289.341 81.1299 289.262 81.6084 289.262C82.2191 289.262 82.7637 289.417 83.2422 289.727C83.7253 290.036 84.1058 290.485 84.3838 291.073C84.6618 291.661 84.8008 292.37 84.8008 293.199C84.8008 294.02 84.6641 294.726 84.3906 295.318C84.1172 295.906 83.7389 296.36 83.2559 296.679C82.7773 296.993 82.2282 297.15 81.6084 297.15C81.1481 297.15 80.7699 297.073 80.4736 296.918C80.182 296.758 79.9518 296.574 79.7832 296.364C79.6191 296.155 79.4915 295.968 79.4004 295.804H79.3184V299.857H77.8145ZM81.2734 295.872C81.7109 295.872 82.0778 295.754 82.374 295.517C82.6702 295.28 82.8913 294.958 83.0371 294.553C83.1875 294.147 83.2627 293.691 83.2627 293.186C83.2627 292.684 83.1875 292.235 83.0371 291.839C82.8913 291.438 82.6702 291.121 82.374 290.889C82.0824 290.656 81.7155 290.54 81.2734 290.54C80.8451 290.54 80.4827 290.652 80.1865 290.875C79.8903 291.094 79.667 291.401 79.5166 291.798C79.3662 292.19 79.291 292.652 79.291 293.186C79.291 293.714 79.3662 294.181 79.5166 294.587C79.6715 294.988 79.8971 295.302 80.1934 295.53C80.4896 295.758 80.8496 295.872 81.2734 295.872ZM89.6816 297.157C88.9661 297.157 88.3395 296.993 87.8018 296.665C87.2686 296.337 86.8538 295.877 86.5576 295.284C86.2614 294.692 86.1133 294.004 86.1133 293.22C86.1133 292.427 86.2614 291.734 86.5576 291.142C86.8538 290.545 87.2686 290.082 87.8018 289.754C88.3395 289.426 88.9661 289.262 89.6816 289.262C90.4017 289.262 91.0283 289.426 91.5615 289.754C92.0993 290.082 92.5163 290.545 92.8125 291.142C93.1087 291.734 93.2568 292.427 93.2568 293.22C93.2568 294.004 93.1087 294.692 92.8125 295.284C92.5163 295.877 92.0993 296.337 91.5615 296.665C91.0283 296.993 90.4017 297.157 89.6816 297.157ZM89.6816 295.886C90.1465 295.886 90.5293 295.765 90.8301 295.523C91.1354 295.277 91.361 294.954 91.5068 294.553C91.6572 294.147 91.7324 293.703 91.7324 293.22C91.7324 292.732 91.6572 292.285 91.5068 291.88C91.361 291.47 91.1354 291.144 90.8301 290.902C90.5293 290.656 90.1465 290.533 89.6816 290.533C89.2214 290.533 88.8408 290.656 88.54 290.902C88.2393 291.144 88.0137 291.467 87.8633 291.873C87.7174 292.279 87.6445 292.728 87.6445 293.22C87.6445 293.703 87.7174 294.147 87.8633 294.553C88.0137 294.954 88.2393 295.277 88.54 295.523C88.8408 295.765 89.2214 295.886 89.6816 295.886ZM98.1445 297.157C97.429 297.157 96.8024 296.993 96.2646 296.665C95.7314 296.337 95.3167 295.877 95.0205 295.284C94.7243 294.692 94.5762 294.004 94.5762 293.22C94.5762 292.427 94.7243 291.734 95.0205 291.142C95.3167 290.545 95.7314 290.082 96.2646 289.754C96.8024 289.426 97.429 289.262 98.1445 289.262C98.8646 289.262 99.4912 289.426 100.024 289.754C100.562 290.082 100.979 290.545 101.275 291.142C101.572 291.734 101.72 292.427 101.72 293.22C101.72 294.004 101.572 294.692 101.275 295.284C100.979 295.877 100.562 296.337 100.024 296.665C99.4912 296.993 98.8646 297.157 98.1445 297.157ZM98.1445 295.886C98.6094 295.886 98.9922 295.765 99.293 295.523C99.5983 295.277 99.8239 294.954 99.9697 294.553C100.12 294.147 100.195 293.703 100.195 293.22C100.195 292.732 100.12 292.285 99.9697 291.88C99.8239 291.47 99.5983 291.144 99.293 290.902C98.9922 290.656 98.6094 290.533 98.1445 290.533C97.6842 290.533 97.3037 290.656 97.0029 290.902C96.7021 291.144 96.4766 291.467 96.3262 291.873C96.1803 292.279 96.1074 292.728 96.1074 293.22C96.1074 293.703 96.1803 294.147 96.3262 294.553C96.4766 294.954 96.7021 295.277 97.0029 295.523C97.3037 295.765 97.6842 295.886 98.1445 295.886ZM104.898 286.814V297H103.395V286.814H104.898ZM114.325 286.814V297H112.78V288.229H112.712L110.292 289.993V288.428L112.521 286.814H114.325Z" fill="#111827"/>
<g clip-path="url(#clip3_3938_58828)">
<rect x="40.8594" y="308" width="200" height="36" rx="4" fill="white"/>
<path d="M50.0898 331V320.814H51.9355L54.4443 327.24C54.5036 327.391 54.5697 327.58 54.6426 327.808C54.7201 328.031 54.7998 328.275 54.8818 328.539C54.9684 328.803 55.0505 329.068 55.1279 329.332C55.2054 329.592 55.2738 329.833 55.333 330.057H55.0459C55.1097 329.847 55.1803 329.615 55.2578 329.359C55.3353 329.1 55.415 328.838 55.4971 328.573C55.5837 328.304 55.6657 328.054 55.7432 327.821C55.8206 327.589 55.889 327.395 55.9482 327.24L58.4229 320.814H60.2754V331H58.9971V325.183C58.9971 324.973 58.9971 324.734 58.9971 324.465C59.0016 324.196 59.0062 323.913 59.0107 323.617C59.0199 323.321 59.0267 323.02 59.0312 322.715C59.0404 322.41 59.0472 322.113 59.0518 321.826H59.1611C59.0654 322.141 58.9629 322.462 58.8535 322.79C58.7487 323.114 58.6439 323.428 58.5391 323.733C58.4388 324.034 58.3431 324.31 58.252 324.561C58.1608 324.811 58.0833 325.019 58.0195 325.183L55.7432 331H54.6152L52.3047 325.183C52.2409 325.023 52.1657 324.823 52.0791 324.581C51.9925 324.335 51.8968 324.064 51.792 323.768C51.6917 323.467 51.5869 323.152 51.4775 322.824C51.3682 322.492 51.2565 322.159 51.1426 321.826H51.2656C51.2747 322.081 51.2816 322.357 51.2861 322.653C51.2952 322.95 51.3021 323.25 51.3066 323.556C51.3112 323.856 51.3158 324.148 51.3203 324.431C51.3249 324.709 51.3271 324.959 51.3271 325.183V331H50.0898ZM62.5859 331V323.357H63.8164V331H62.5859ZM63.208 322.106C62.9756 322.106 62.7751 322.027 62.6064 321.867C62.4378 321.708 62.3535 321.516 62.3535 321.293C62.3535 321.065 62.4378 320.874 62.6064 320.719C62.7751 320.559 62.9756 320.479 63.208 320.479C63.445 320.479 63.6478 320.559 63.8164 320.719C63.985 320.874 64.0693 321.065 64.0693 321.293C64.0693 321.516 63.985 321.708 63.8164 321.867C63.6478 322.027 63.445 322.106 63.208 322.106ZM67.207 326.42V331H65.9766V323.357H67.1592L67.166 325.21H66.9951C67.2275 324.504 67.5579 324.002 67.9863 323.706C68.4193 323.41 68.9251 323.262 69.5039 323.262C70.0189 323.262 70.4701 323.369 70.8574 323.583C71.2448 323.793 71.5456 324.112 71.7598 324.54C71.9785 324.964 72.0879 325.499 72.0879 326.146V331H70.8574V326.249C70.8574 325.661 70.7025 325.201 70.3926 324.868C70.0872 324.535 69.668 324.369 69.1348 324.369C68.7702 324.369 68.4421 324.449 68.1504 324.608C67.8587 324.768 67.6286 325 67.46 325.306C67.2913 325.611 67.207 325.982 67.207 326.42ZM78.1582 331V330.063L81.542 326.393C81.9202 325.982 82.2347 325.622 82.4854 325.312C82.736 325.003 82.9251 324.709 83.0527 324.431C83.1803 324.148 83.2441 323.85 83.2441 323.535C83.2441 323.18 83.1598 322.872 82.9912 322.612C82.8226 322.353 82.5947 322.154 82.3076 322.018C82.0205 321.876 81.6947 321.806 81.3301 321.806C80.9427 321.806 80.6055 321.885 80.3184 322.045C80.0358 322.2 79.8171 322.421 79.6621 322.708C79.5072 322.991 79.4297 323.323 79.4297 323.706H78.1855C78.1855 323.104 78.3245 322.576 78.6025 322.12C78.8805 321.664 79.2588 321.311 79.7373 321.061C80.2158 320.805 80.7581 320.678 81.3643 320.678C81.9704 320.678 82.5059 320.805 82.9707 321.061C83.4401 321.311 83.807 321.651 84.0713 322.079C84.3402 322.507 84.4746 322.988 84.4746 323.521C84.4746 323.891 84.4085 324.251 84.2764 324.602C84.1442 324.948 83.9118 325.342 83.5791 325.784C83.2464 326.226 82.7793 326.766 82.1777 327.404L79.9492 329.776V329.858H84.6455V331H78.1582ZM91.8984 326.42V331H90.668V323.357H91.8506L91.8574 325.21H91.6865C91.9189 324.504 92.2493 324.002 92.6777 323.706C93.1107 323.41 93.6165 323.262 94.1953 323.262C94.7103 323.262 95.1615 323.369 95.5488 323.583C95.9362 323.793 96.237 324.112 96.4512 324.54C96.6699 324.964 96.7793 325.499 96.7793 326.146V331H95.5488V326.249C95.5488 325.661 95.3939 325.201 95.084 324.868C94.7786 324.535 94.3594 324.369 93.8262 324.369C93.4616 324.369 93.1335 324.449 92.8418 324.608C92.5501 324.768 92.32 325 92.1514 325.306C91.9827 325.611 91.8984 325.982 91.8984 326.42ZM102.05 331.164C101.357 331.164 100.749 331 100.225 330.672C99.7051 330.344 99.2995 329.883 99.0078 329.291C98.7161 328.699 98.5703 328.01 98.5703 327.227C98.5703 326.429 98.7161 325.734 99.0078 325.142C99.2995 324.545 99.7051 324.082 100.225 323.754C100.749 323.426 101.357 323.262 102.05 323.262C102.747 323.262 103.358 323.426 103.882 323.754C104.406 324.082 104.814 324.545 105.105 325.142C105.397 325.734 105.543 326.429 105.543 327.227C105.543 328.01 105.397 328.699 105.105 329.291C104.814 329.883 104.406 330.344 103.882 330.672C103.358 331 102.747 331.164 102.05 331.164ZM102.05 330.063C102.565 330.063 102.989 329.931 103.321 329.667C103.654 329.403 103.9 329.056 104.06 328.628C104.219 328.195 104.299 327.728 104.299 327.227C104.299 326.721 104.219 326.251 104.06 325.818C103.9 325.381 103.654 325.03 103.321 324.766C102.989 324.497 102.565 324.362 102.05 324.362C101.539 324.362 101.12 324.497 100.792 324.766C100.464 325.03 100.22 325.379 100.061 325.812C99.901 326.244 99.8213 326.716 99.8213 327.227C99.8213 327.728 99.901 328.195 100.061 328.628C100.22 329.056 100.464 329.403 100.792 329.667C101.12 329.931 101.539 330.063 102.05 330.063ZM110.198 331.164C109.565 331.164 109.004 331.002 108.517 330.679C108.029 330.355 107.648 329.897 107.375 329.305C107.102 328.712 106.965 328.01 106.965 327.199C106.965 326.393 107.102 325.695 107.375 325.107C107.653 324.515 108.036 324.059 108.523 323.74C109.011 323.421 109.572 323.262 110.205 323.262C110.702 323.262 111.096 323.344 111.388 323.508C111.679 323.672 111.903 323.859 112.058 324.068C112.217 324.273 112.338 324.444 112.42 324.581H112.516V320.814H113.746V331H112.557V329.817H112.42C112.338 329.959 112.215 330.136 112.051 330.351C111.891 330.56 111.663 330.749 111.367 330.918C111.076 331.082 110.686 331.164 110.198 331.164ZM110.383 330.063C110.848 330.063 111.24 329.943 111.559 329.701C111.878 329.455 112.119 329.116 112.283 328.683C112.447 328.25 112.529 327.751 112.529 327.186C112.529 326.62 112.447 326.128 112.283 325.709C112.124 325.285 111.884 324.955 111.565 324.718C111.246 324.481 110.852 324.362 110.383 324.362C109.9 324.362 109.496 324.488 109.173 324.738C108.854 324.989 108.615 325.328 108.455 325.757C108.296 326.181 108.216 326.657 108.216 327.186C108.216 327.719 108.296 328.204 108.455 328.642C108.619 329.075 108.863 329.421 109.187 329.681C109.51 329.936 109.909 330.063 110.383 330.063ZM119.119 331.164C118.381 331.164 117.743 331 117.205 330.672C116.672 330.344 116.259 329.886 115.968 329.298C115.681 328.71 115.537 328.024 115.537 327.24C115.537 326.456 115.678 325.766 115.961 325.169C116.243 324.572 116.642 324.105 117.157 323.768C117.677 323.43 118.283 323.262 118.976 323.262C119.381 323.262 119.78 323.33 120.172 323.467C120.568 323.599 120.926 323.815 121.245 324.116C121.569 324.412 121.826 324.804 122.018 325.292C122.209 325.78 122.305 326.377 122.305 327.083V327.596H116.371V326.557H121.642L121.067 326.939C121.067 326.438 120.988 325.994 120.828 325.606C120.673 325.215 120.441 324.909 120.131 324.69C119.821 324.467 119.436 324.355 118.976 324.355C118.515 324.355 118.121 324.469 117.793 324.697C117.465 324.921 117.214 325.215 117.041 325.579C116.868 325.939 116.781 326.326 116.781 326.741V327.432C116.781 327.997 116.879 328.478 117.075 328.874C117.271 329.266 117.545 329.564 117.896 329.77C118.251 329.97 118.661 330.07 119.126 330.07C119.427 330.07 119.7 330.027 119.946 329.94C120.192 329.854 120.404 329.724 120.582 329.551C120.76 329.373 120.896 329.154 120.992 328.895L122.182 329.223C122.063 329.605 121.863 329.943 121.58 330.234C121.298 330.526 120.947 330.754 120.527 330.918C120.113 331.082 119.643 331.164 119.119 331.164ZM126.666 331.164C126.142 331.164 125.675 331.089 125.265 330.938C124.859 330.784 124.524 330.556 124.26 330.255C123.995 329.954 123.818 329.585 123.727 329.147L124.896 328.867C125.005 329.286 125.21 329.594 125.511 329.79C125.816 329.986 126.197 330.084 126.652 330.084C127.186 330.084 127.609 329.97 127.924 329.742C128.243 329.514 128.402 329.243 128.402 328.929C128.402 328.664 128.309 328.446 128.122 328.272C127.94 328.095 127.66 327.963 127.281 327.876L126.01 327.575C125.317 327.411 124.802 327.158 124.465 326.816C124.128 326.47 123.959 326.028 123.959 325.49C123.959 325.053 124.082 324.668 124.328 324.335C124.574 323.998 124.909 323.736 125.333 323.549C125.761 323.357 126.247 323.262 126.789 323.262C127.313 323.262 127.757 323.341 128.122 323.501C128.491 323.656 128.79 323.872 129.018 324.15C129.25 324.424 129.423 324.741 129.537 325.101L128.423 325.388C128.318 325.114 128.143 324.866 127.896 324.643C127.655 324.419 127.288 324.308 126.796 324.308C126.34 324.308 125.96 324.412 125.654 324.622C125.354 324.832 125.203 325.096 125.203 325.415C125.203 325.698 125.306 325.925 125.511 326.099C125.716 326.267 126.042 326.404 126.488 326.509L127.644 326.782C128.336 326.946 128.849 327.201 129.182 327.548C129.514 327.89 129.681 328.323 129.681 328.847C129.681 329.293 129.553 329.692 129.298 330.043C129.047 330.389 128.694 330.663 128.238 330.863C127.787 331.064 127.263 331.164 126.666 331.164Z" fill="#9CA3AF"/>
</g>
<rect x="40.8594" y="308" width="200" height="36" rx="4" stroke="#E4E4E7"/>
<g clip-path="url(#clip4_3938_58828)">
<rect x="40.8594" y="364" width="200" height="36" rx="4" fill="white"/>
<path d="M50.0898 387V376.814H51.9355L54.4443 383.24C54.5036 383.391 54.5697 383.58 54.6426 383.808C54.7201 384.031 54.7998 384.275 54.8818 384.539C54.9684 384.803 55.0505 385.068 55.1279 385.332C55.2054 385.592 55.2738 385.833 55.333 386.057H55.0459C55.1097 385.847 55.1803 385.615 55.2578 385.359C55.3353 385.1 55.415 384.838 55.4971 384.573C55.5837 384.304 55.6657 384.054 55.7432 383.821C55.8206 383.589 55.889 383.395 55.9482 383.24L58.4229 376.814H60.2754V387H58.9971V381.183C58.9971 380.973 58.9971 380.734 58.9971 380.465C59.0016 380.196 59.0062 379.913 59.0107 379.617C59.0199 379.321 59.0267 379.02 59.0312 378.715C59.0404 378.41 59.0472 378.113 59.0518 377.826H59.1611C59.0654 378.141 58.9629 378.462 58.8535 378.79C58.7487 379.114 58.6439 379.428 58.5391 379.733C58.4388 380.034 58.3431 380.31 58.252 380.561C58.1608 380.811 58.0833 381.019 58.0195 381.183L55.7432 387H54.6152L52.3047 381.183C52.2409 381.023 52.1657 380.823 52.0791 380.581C51.9925 380.335 51.8968 380.064 51.792 379.768C51.6917 379.467 51.5869 379.152 51.4775 378.824C51.3682 378.492 51.2565 378.159 51.1426 377.826H51.2656C51.2747 378.081 51.2816 378.357 51.2861 378.653C51.2952 378.95 51.3021 379.25 51.3066 379.556C51.3112 379.856 51.3158 380.148 51.3203 380.431C51.3249 380.709 51.3271 380.959 51.3271 381.183V387H50.0898ZM65.4434 387.164C64.8145 387.164 64.2562 387.002 63.7686 386.679C63.2855 386.355 62.9049 385.897 62.627 385.305C62.3535 384.712 62.2168 384.01 62.2168 383.199C62.2168 382.393 62.3558 381.695 62.6338 381.107C62.9118 380.515 63.2946 380.059 63.7822 379.74C64.2744 379.421 64.8372 379.262 65.4707 379.262C65.9629 379.262 66.3548 379.344 66.6465 379.508C66.9382 379.667 67.1615 379.852 67.3164 380.062C67.4714 380.271 67.5898 380.444 67.6719 380.581H67.7744V379.357H68.998V387H67.7812V385.817H67.6719C67.5898 385.959 67.4668 386.136 67.3027 386.351C67.1432 386.565 66.9154 386.754 66.6191 386.918C66.3229 387.082 65.931 387.164 65.4434 387.164ZM65.6484 386.063C66.1133 386.063 66.5052 385.943 66.8242 385.701C67.1432 385.455 67.3848 385.116 67.5488 384.683C67.7129 384.25 67.7949 383.751 67.7949 383.186C67.7949 382.62 67.7129 382.128 67.5488 381.709C67.3893 381.285 67.1501 380.955 66.8311 380.718C66.512 380.481 66.1178 380.362 65.6484 380.362C65.1654 380.362 64.762 380.488 64.4385 380.738C64.1149 380.984 63.8711 381.322 63.707 381.75C63.5475 382.174 63.4678 382.652 63.4678 383.186C63.4678 383.719 63.5498 384.204 63.7139 384.642C63.8779 385.075 64.1217 385.421 64.4453 385.681C64.7689 385.936 65.1699 386.063 65.6484 386.063ZM70.5225 387L73.5371 382.604L73.5303 383.548L70.6797 379.357H72.1152L73.0654 380.841C73.3115 381.224 73.5234 381.581 73.7012 381.914C73.8835 382.247 74.0703 382.568 74.2617 382.878H73.6191C73.8151 382.568 73.9928 382.247 74.1523 381.914C74.3164 381.581 74.5238 381.224 74.7744 380.841L75.7451 379.357H77.1533L74.2891 383.603V382.693L77.2764 387H75.8477L74.7266 385.284C74.485 384.91 74.2754 384.564 74.0977 384.245C73.9245 383.922 73.7445 383.612 73.5576 383.315H74.207C74.0202 383.612 73.847 383.922 73.6875 384.245C73.528 384.564 73.3252 384.91 73.0791 385.284L71.9443 387H70.5225ZM85.9375 387.137C85.3405 387.137 84.805 387.021 84.3311 386.788C83.8571 386.551 83.4788 386.23 83.1963 385.824C82.9137 385.414 82.7611 384.949 82.7383 384.43H83.9961C84.0234 384.73 84.126 384.999 84.3037 385.236C84.4814 385.473 84.7116 385.66 84.9941 385.797C85.2812 385.929 85.5957 385.995 85.9375 385.995C86.3477 385.995 86.7122 385.899 87.0312 385.708C87.3548 385.517 87.6077 385.252 87.79 384.915C87.9723 384.578 88.0635 384.195 88.0635 383.767C88.0635 383.329 87.9678 382.937 87.7764 382.591C87.585 382.244 87.3229 381.973 86.9902 381.777C86.6621 381.577 86.2839 381.477 85.8555 381.477C85.541 381.477 85.222 381.527 84.8984 381.627C84.5749 381.727 84.3128 381.855 84.1123 382.01L82.8955 381.859L83.4971 376.814H88.8564V377.956H84.5908L84.2422 380.93H84.2969C84.5065 380.757 84.7708 380.615 85.0898 380.506C85.4089 380.392 85.7438 380.335 86.0947 380.335C86.5596 380.335 86.988 380.419 87.3799 380.588C87.7764 380.757 88.1204 380.996 88.4121 381.306C88.7038 381.611 88.9294 381.971 89.0889 382.386C89.2529 382.8 89.335 383.254 89.335 383.746C89.335 384.398 89.1868 384.979 88.8906 385.489C88.599 386 88.1979 386.403 87.6875 386.699C87.1771 386.991 86.5938 387.137 85.9375 387.137ZM96.4238 382.42V387H95.1934V379.357H96.376L96.3828 381.21H96.2119C96.4443 380.504 96.7747 380.002 97.2031 379.706C97.6361 379.41 98.1419 379.262 98.7207 379.262C99.2357 379.262 99.6868 379.369 100.074 379.583C100.462 379.793 100.762 380.112 100.977 380.54C101.195 380.964 101.305 381.499 101.305 382.146V387H100.074V382.249C100.074 381.661 99.9193 381.201 99.6094 380.868C99.304 380.535 98.8848 380.369 98.3516 380.369C97.987 380.369 97.6589 380.449 97.3672 380.608C97.0755 380.768 96.8454 381 96.6768 381.306C96.5081 381.611 96.4238 381.982 96.4238 382.42ZM106.575 387.164C105.882 387.164 105.274 387 104.75 386.672C104.23 386.344 103.825 385.883 103.533 385.291C103.242 384.699 103.096 384.01 103.096 383.227C103.096 382.429 103.242 381.734 103.533 381.142C103.825 380.545 104.23 380.082 104.75 379.754C105.274 379.426 105.882 379.262 106.575 379.262C107.272 379.262 107.883 379.426 108.407 379.754C108.931 380.082 109.339 380.545 109.631 381.142C109.923 381.734 110.068 382.429 110.068 383.227C110.068 384.01 109.923 384.699 109.631 385.291C109.339 385.883 108.931 386.344 108.407 386.672C107.883 387 107.272 387.164 106.575 387.164ZM106.575 386.063C107.09 386.063 107.514 385.931 107.847 385.667C108.179 385.403 108.425 385.056 108.585 384.628C108.744 384.195 108.824 383.728 108.824 383.227C108.824 382.721 108.744 382.251 108.585 381.818C108.425 381.381 108.179 381.03 107.847 380.766C107.514 380.497 107.09 380.362 106.575 380.362C106.065 380.362 105.646 380.497 105.317 380.766C104.989 381.03 104.745 381.379 104.586 381.812C104.426 382.244 104.347 382.716 104.347 383.227C104.347 383.728 104.426 384.195 104.586 384.628C104.745 385.056 104.989 385.403 105.317 385.667C105.646 385.931 106.065 386.063 106.575 386.063ZM114.724 387.164C114.09 387.164 113.53 387.002 113.042 386.679C112.554 386.355 112.174 385.897 111.9 385.305C111.627 384.712 111.49 384.01 111.49 383.199C111.49 382.393 111.627 381.695 111.9 381.107C112.178 380.515 112.561 380.059 113.049 379.74C113.536 379.421 114.097 379.262 114.73 379.262C115.227 379.262 115.621 379.344 115.913 379.508C116.205 379.672 116.428 379.859 116.583 380.068C116.743 380.273 116.863 380.444 116.945 380.581H117.041V376.814H118.271V387H117.082V385.817H116.945C116.863 385.959 116.74 386.136 116.576 386.351C116.417 386.56 116.189 386.749 115.893 386.918C115.601 387.082 115.211 387.164 114.724 387.164ZM114.908 386.063C115.373 386.063 115.765 385.943 116.084 385.701C116.403 385.455 116.645 385.116 116.809 384.683C116.973 384.25 117.055 383.751 117.055 383.186C117.055 382.62 116.973 382.128 116.809 381.709C116.649 381.285 116.41 380.955 116.091 380.718C115.772 380.481 115.378 380.362 114.908 380.362C114.425 380.362 114.022 380.488 113.698 380.738C113.379 380.989 113.14 381.328 112.98 381.757C112.821 382.181 112.741 382.657 112.741 383.186C112.741 383.719 112.821 384.204 112.98 384.642C113.145 385.075 113.388 385.421 113.712 385.681C114.035 385.936 114.434 386.063 114.908 386.063ZM123.645 387.164C122.906 387.164 122.268 387 121.73 386.672C121.197 386.344 120.785 385.886 120.493 385.298C120.206 384.71 120.062 384.024 120.062 383.24C120.062 382.456 120.204 381.766 120.486 381.169C120.769 380.572 121.168 380.105 121.683 379.768C122.202 379.43 122.808 379.262 123.501 379.262C123.907 379.262 124.305 379.33 124.697 379.467C125.094 379.599 125.451 379.815 125.771 380.116C126.094 380.412 126.352 380.804 126.543 381.292C126.734 381.78 126.83 382.377 126.83 383.083V383.596H120.896V382.557H126.167L125.593 382.939C125.593 382.438 125.513 381.994 125.354 381.606C125.199 381.215 124.966 380.909 124.656 380.69C124.346 380.467 123.961 380.355 123.501 380.355C123.041 380.355 122.646 380.469 122.318 380.697C121.99 380.921 121.74 381.215 121.566 381.579C121.393 381.939 121.307 382.326 121.307 382.741V383.432C121.307 383.997 121.405 384.478 121.601 384.874C121.797 385.266 122.07 385.564 122.421 385.77C122.776 385.97 123.187 386.07 123.651 386.07C123.952 386.07 124.226 386.027 124.472 385.94C124.718 385.854 124.93 385.724 125.107 385.551C125.285 385.373 125.422 385.154 125.518 384.895L126.707 385.223C126.589 385.605 126.388 385.943 126.105 386.234C125.823 386.526 125.472 386.754 125.053 386.918C124.638 387.082 124.169 387.164 123.645 387.164ZM131.191 387.164C130.667 387.164 130.2 387.089 129.79 386.938C129.384 386.784 129.049 386.556 128.785 386.255C128.521 385.954 128.343 385.585 128.252 385.147L129.421 384.867C129.53 385.286 129.735 385.594 130.036 385.79C130.341 385.986 130.722 386.084 131.178 386.084C131.711 386.084 132.135 385.97 132.449 385.742C132.768 385.514 132.928 385.243 132.928 384.929C132.928 384.664 132.834 384.446 132.647 384.272C132.465 384.095 132.185 383.963 131.807 383.876L130.535 383.575C129.842 383.411 129.327 383.158 128.99 382.816C128.653 382.47 128.484 382.028 128.484 381.49C128.484 381.053 128.607 380.668 128.854 380.335C129.1 379.998 129.435 379.736 129.858 379.549C130.287 379.357 130.772 379.262 131.314 379.262C131.839 379.262 132.283 379.341 132.647 379.501C133.017 379.656 133.315 379.872 133.543 380.15C133.775 380.424 133.949 380.741 134.062 381.101L132.948 381.388C132.843 381.114 132.668 380.866 132.422 380.643C132.18 380.419 131.813 380.308 131.321 380.308C130.866 380.308 130.485 380.412 130.18 380.622C129.879 380.832 129.729 381.096 129.729 381.415C129.729 381.698 129.831 381.925 130.036 382.099C130.241 382.267 130.567 382.404 131.014 382.509L132.169 382.782C132.862 382.946 133.374 383.201 133.707 383.548C134.04 383.89 134.206 384.323 134.206 384.847C134.206 385.293 134.078 385.692 133.823 386.043C133.573 386.389 133.219 386.663 132.764 386.863C132.312 387.064 131.788 387.164 131.191 387.164Z" fill="#9CA3AF"/>
</g>
<rect x="40.8594" y="364" width="200" height="36" rx="4" stroke="#E4E4E7"/>
<rect x="40.8594" y="420" width="200" height="40" rx="4" fill="#3B82F6"/>
<rect x="40.8594" y="420" width="200" height="40" rx="4" stroke="#2563EB"/>
<path d="M120.977 446.156C119.961 446.156 119.057 445.917 118.266 445.438C117.474 444.958 116.849 444.273 116.391 443.383C115.938 442.487 115.711 441.422 115.711 440.188C115.711 438.948 115.938 437.883 116.391 436.992C116.849 436.096 117.474 435.409 118.266 434.93C119.062 434.445 119.966 434.203 120.977 434.203C121.591 434.203 122.169 434.292 122.711 434.469C123.253 434.646 123.734 434.906 124.156 435.25C124.583 435.589 124.938 436 125.219 436.484C125.5 436.969 125.69 437.521 125.789 438.141H124C123.922 437.766 123.792 437.435 123.609 437.148C123.427 436.862 123.201 436.62 122.93 436.422C122.664 436.219 122.367 436.068 122.039 435.969C121.711 435.87 121.362 435.82 120.992 435.82C120.315 435.82 119.711 435.99 119.18 436.328C118.648 436.667 118.232 437.161 117.93 437.812C117.628 438.464 117.477 439.255 117.477 440.188C117.477 441.12 117.628 441.911 117.93 442.562C118.237 443.208 118.656 443.701 119.188 444.039C119.719 444.372 120.32 444.539 120.992 444.539C121.357 444.539 121.703 444.49 122.031 444.391C122.365 444.286 122.664 444.135 122.93 443.938C123.201 443.74 123.427 443.497 123.609 443.211C123.797 442.924 123.927 442.594 124 442.219H125.789C125.701 442.802 125.521 443.333 125.25 443.812C124.979 444.292 124.63 444.708 124.203 445.062C123.781 445.411 123.297 445.682 122.75 445.875C122.208 446.062 121.617 446.156 120.977 446.156ZM127.711 446V437.32H129.359V438.711H129.445C129.607 438.242 129.883 437.875 130.273 437.609C130.669 437.339 131.125 437.203 131.641 437.203C131.75 437.203 131.872 437.208 132.008 437.219C132.148 437.224 132.263 437.232 132.352 437.242V438.867C132.289 438.852 132.169 438.833 131.992 438.812C131.815 438.792 131.635 438.781 131.453 438.781C131.068 438.781 130.719 438.865 130.406 439.031C130.099 439.193 129.857 439.422 129.68 439.719C129.508 440.01 129.422 440.352 129.422 440.742V446H127.711ZM137.273 446.18C136.419 446.18 135.682 445.995 135.062 445.625C134.443 445.255 133.966 444.737 133.633 444.07C133.299 443.398 133.133 442.615 133.133 441.719C133.133 440.828 133.297 440.044 133.625 439.367C133.958 438.69 134.424 438.161 135.023 437.781C135.628 437.396 136.331 437.203 137.133 437.203C137.643 437.203 138.13 437.286 138.594 437.453C139.062 437.62 139.479 437.88 139.844 438.234C140.208 438.589 140.497 439.042 140.711 439.594C140.924 440.146 141.031 440.807 141.031 441.578V442.172H134.07V440.891H140.148L139.352 441.312C139.352 440.781 139.266 440.312 139.094 439.906C138.927 439.5 138.68 439.185 138.352 438.961C138.029 438.732 137.625 438.617 137.141 438.617C136.656 438.617 136.242 438.734 135.898 438.969C135.56 439.198 135.299 439.505 135.117 439.891C134.935 440.271 134.844 440.69 134.844 441.148V442C134.844 442.589 134.945 443.091 135.148 443.508C135.352 443.919 135.635 444.232 136 444.445C136.37 444.659 136.799 444.766 137.289 444.766C137.617 444.766 137.911 444.719 138.172 444.625C138.438 444.531 138.664 444.391 138.852 444.203C139.039 444.016 139.182 443.786 139.281 443.516L140.891 443.859C140.76 444.318 140.529 444.721 140.195 445.07C139.862 445.419 139.448 445.693 138.953 445.891C138.458 446.083 137.898 446.18 137.273 446.18ZM146.094 446.172C145.396 446.172 144.771 445.992 144.219 445.633C143.672 445.268 143.242 444.75 142.93 444.078C142.617 443.406 142.461 442.607 142.461 441.68C142.461 440.742 142.62 439.94 142.938 439.273C143.255 438.602 143.69 438.089 144.242 437.734C144.794 437.38 145.419 437.203 146.117 437.203C146.638 437.203 147.062 437.289 147.391 437.461C147.724 437.628 147.987 437.831 148.18 438.07C148.372 438.305 148.521 438.521 148.625 438.719H148.719V437.32H150.422V446H148.734V444.648H148.625C148.521 444.846 148.367 445.065 148.164 445.305C147.966 445.544 147.701 445.75 147.367 445.922C147.034 446.089 146.609 446.172 146.094 446.172ZM146.492 444.711C146.977 444.711 147.388 444.583 147.727 444.328C148.065 444.073 148.32 443.716 148.492 443.258C148.669 442.799 148.758 442.268 148.758 441.664C148.758 441.06 148.669 440.534 148.492 440.086C148.32 439.638 148.065 439.289 147.727 439.039C147.393 438.789 146.982 438.664 146.492 438.664C145.992 438.664 145.573 438.794 145.234 439.055C144.896 439.31 144.641 439.664 144.469 440.117C144.297 440.565 144.211 441.081 144.211 441.664C144.211 442.247 144.297 442.768 144.469 443.227C144.646 443.685 144.904 444.047 145.242 444.312C145.581 444.578 145.997 444.711 146.492 444.711ZM156.461 437.32V438.711H151.719V437.32H156.461ZM153.008 435.219H154.719V443.656C154.719 444.005 154.792 444.26 154.938 444.422C155.083 444.578 155.326 444.656 155.664 444.656C155.758 444.656 155.878 444.648 156.023 444.633C156.169 444.612 156.294 444.591 156.398 444.57L156.672 445.945C156.495 446.003 156.302 446.042 156.094 446.062C155.885 446.089 155.682 446.102 155.484 446.102C154.693 446.102 154.081 445.904 153.648 445.508C153.221 445.107 153.008 444.539 153.008 443.805V435.219ZM161.695 446.18C160.841 446.18 160.104 445.995 159.484 445.625C158.865 445.255 158.388 444.737 158.055 444.07C157.721 443.398 157.555 442.615 157.555 441.719C157.555 440.828 157.719 440.044 158.047 439.367C158.38 438.69 158.846 438.161 159.445 437.781C160.049 437.396 160.753 437.203 161.555 437.203C162.065 437.203 162.552 437.286 163.016 437.453C163.484 437.62 163.901 437.88 164.266 438.234C164.63 438.589 164.919 439.042 165.133 439.594C165.346 440.146 165.453 440.807 165.453 441.578V442.172H158.492V440.891H164.57L163.773 441.312C163.773 440.781 163.688 440.312 163.516 439.906C163.349 439.5 163.102 439.185 162.773 438.961C162.451 438.732 162.047 438.617 161.562 438.617C161.078 438.617 160.664 438.734 160.32 438.969C159.982 439.198 159.721 439.505 159.539 439.891C159.357 440.271 159.266 440.69 159.266 441.148V442C159.266 442.589 159.367 443.091 159.57 443.508C159.773 443.919 160.057 444.232 160.422 444.445C160.792 444.659 161.221 444.766 161.711 444.766C162.039 444.766 162.333 444.719 162.594 444.625C162.859 444.531 163.086 444.391 163.273 444.203C163.461 444.016 163.604 443.786 163.703 443.516L165.312 443.859C165.182 444.318 164.951 444.721 164.617 445.07C164.284 445.419 163.87 445.693 163.375 445.891C162.88 446.083 162.32 446.18 161.695 446.18Z" fill="white"/>
</g>
<defs>
<filter id="filter0_dd_3938_58828" x="-15.1406" y="-14" width="312" height="508" filterUnits="userSpaceOnUse" color-interpolation-filters="sRGB">
<feFlood flood-opacity="0" result="BackgroundImageFix"/>
<feColorMatrix in="SourceAlpha" type="matrix" values="0 0 0 0 0 0 0 0 0 0 0 0 0 0 0 0 0 0 127 0" result="hardAlpha"/>
<feOffset dy="2"/>
<feGaussianBlur stdDeviation="8"/>
<feColorMatrix type="matrix" values="0 0 0 0 0.129412 0 0 0 0 0.168627 0 0 0 0 0.211765 0 0 0 0.08 0"/>
<feBlend mode="normal" in2="BackgroundImageFix" result="effect1_dropShadow_3938_58828"/>
<feColorMatrix in="SourceAlpha" type="matrix" values="0 0 0 0 0 0 0 0 0 0 0 0 0 0 0 0 0 0 127 0" result="hardAlpha"/>
<feMorphology radius="1" operator="dilate" in="SourceAlpha" result="effect2_dropShadow_3938_58828"/>
<feOffset/>
<feColorMatrix type="matrix" values="0 0 0 0 0.0235294 0 0 0 0 0.172549 0 0 0 0 0.321569 0 0 0 0.1 0"/>
<feBlend mode="normal" in2="effect1_dropShadow_3938_58828" result="effect2_dropShadow_3938_58828"/>
<feBlend mode="normal" in="SourceGraphic" in2="effect2_dropShadow_3938_58828" result="shape"/>
</filter>
<clipPath id="clip0_3938_58828">
<rect width="280" height="476" fill="white" transform="translate(0.859375)"/>
</clipPath>
<clipPath id="clip1_3938_58828">
<rect width="60" height="60" fill="white" transform="translate(110.859 40)"/>
</clipPath>
<clipPath id="clip2_3938_58828">
<rect x="40.8594" y="224" width="200" height="36" rx="4" fill="white"/>
</clipPath>
<clipPath id="clip3_3938_58828">
<rect x="40.8594" y="308" width="200" height="36" rx="4" fill="white"/>
</clipPath>
<clipPath id="clip4_3938_58828">
<rect x="40.8594" y="364" width="200" height="36" rx="4" fill="white"/>
</clipPath>
</defs>
</svg>
