<svg width="1440" height="619" viewBox="0 0 1440 619" fill="none" xmlns="http://www.w3.org/2000/svg">
<path d="M16 1V619" stroke="#E4E4E7" stroke-width="0.5"/>
<path d="M48 1V619" stroke="#E4E4E7" stroke-width="0.5"/>
<path d="M80 1V619" stroke="#E4E4E7" stroke-width="0.5"/>
<path d="M112 1V619" stroke="#E4E4E7" stroke-width="0.5"/>
<path d="M144 1V619" stroke="#E4E4E7" stroke-width="0.5"/>
<path d="M176 1V619" stroke="#E4E4E7" stroke-width="0.5"/>
<path d="M208 1V619" stroke="#E4E4E7" stroke-width="0.5"/>
<path d="M240 1V619" stroke="#E4E4E7" stroke-width="0.5"/>
<path d="M272 1V619" stroke="#E4E4E7" stroke-width="0.5"/>
<path d="M304 1V619" stroke="#E4E4E7" stroke-width="0.5"/>
<path d="M336 1V619" stroke="#E4E4E7" stroke-width="0.5"/>
<path d="M368 1V619" stroke="#E4E4E7" stroke-width="0.5"/>
<path d="M400 1V619" stroke="#E4E4E7" stroke-width="0.5"/>
<path d="M432 1V619" stroke="#E4E4E7" stroke-width="0.5"/>
<path d="M464 1V619" stroke="#E4E4E7" stroke-width="0.5"/>
<path d="M496 1V619" stroke="#E4E4E7" stroke-width="0.5"/>
<path d="M528 1V619" stroke="#E4E4E7" stroke-width="0.5"/>
<path d="M560 1V619" stroke="#E4E4E7" stroke-width="0.5"/>
<path d="M592 1V619" stroke="#E4E4E7" stroke-width="0.5"/>
<path d="M624 1V619" stroke="#E4E4E7" stroke-width="0.5"/>
<path d="M656 1V619" stroke="#E4E4E7" stroke-width="0.5"/>
<path d="M688 1V619" stroke="#E4E4E7" stroke-width="0.5"/>
<path d="M720 1V619" stroke="#E4E4E7" stroke-width="0.5"/>
<path d="M752 1V619" stroke="#E4E4E7" stroke-width="0.5"/>
<path d="M784 1V619" stroke="#E4E4E7" stroke-width="0.5"/>
<path d="M816 1V619" stroke="#E4E4E7" stroke-width="0.5"/>
<path d="M848 1V619" stroke="#E4E4E7" stroke-width="0.5"/>
<path d="M880 1V619" stroke="#E4E4E7" stroke-width="0.5"/>
<path d="M912 1V619" stroke="#E4E4E7" stroke-width="0.5"/>
<path d="M944 1V619" stroke="#E4E4E7" stroke-width="0.5"/>
<path d="M976 1V619" stroke="#E4E4E7" stroke-width="0.5"/>
<path d="M1008 1V619" stroke="#E4E4E7" stroke-width="0.5"/>
<path d="M1040 1V619" stroke="#E4E4E7" stroke-width="0.5"/>
<path d="M1072 1V619" stroke="#E4E4E7" stroke-width="0.5"/>
<path d="M1104 1V619" stroke="#E4E4E7" stroke-width="0.5"/>
<path d="M1136 1V619" stroke="#E4E4E7" stroke-width="0.5"/>
<path d="M1168 1V619" stroke="#E4E4E7" stroke-width="0.5"/>
<path d="M1200 1V619" stroke="#E4E4E7" stroke-width="0.5"/>
<path d="M1232 1V619" stroke="#E4E4E7" stroke-width="0.5"/>
<path d="M1264 1V619" stroke="#E4E4E7" stroke-width="0.5"/>
<path d="M1296 1V619" stroke="#E4E4E7" stroke-width="0.5"/>
<path d="M1328 1V619" stroke="#E4E4E7" stroke-width="0.5"/>
<path d="M1360 1V619" stroke="#E4E4E7" stroke-width="0.5"/>
<path d="M1392 1V619" stroke="#E4E4E7" stroke-width="0.5"/>
<path d="M1424 1V619" stroke="#E4E4E7" stroke-width="0.5"/>
<path d="M1440 1L6.38828e-05 0.999937" stroke="#E4E4E7" stroke-width="0.5"/>
<path d="M1440 33L6.38828e-05 32.9999" stroke="#E4E4E7" stroke-width="0.5"/>
<path d="M1440 65.0002L6.38828e-05 65.0002" stroke="#E4E4E7" stroke-width="0.5"/>
<path d="M1440 97.0002L6.38828e-05 97.0002" stroke="#E4E4E7" stroke-width="0.5"/>
<path d="M1440 129L6.38828e-05 129" stroke="#E4E4E7" stroke-width="0.5"/>
<path d="M1440 161L6.38828e-05 161" stroke="#E4E4E7" stroke-width="0.5"/>
<path d="M1440 193L6.38828e-05 193" stroke="#E4E4E7" stroke-width="0.5"/>
<path d="M1440 225L6.38828e-05 225" stroke="#E4E4E7" stroke-width="0.5"/>
<path d="M1440 257.001L6.38828e-05 257.001" stroke="#E4E4E7" stroke-width="0.5"/>
<path d="M1440 289.001L6.38828e-05 289.001" stroke="#E4E4E7" stroke-width="0.5"/>
<path d="M1440 321.001L6.38828e-05 321.001" stroke="#E4E4E7" stroke-width="0.5"/>
<path d="M1440 353.001L6.38828e-05 353.001" stroke="#E4E4E7" stroke-width="0.5"/>
<path d="M1440 385.001L6.38828e-05 385.001" stroke="#E4E4E7" stroke-width="0.5"/>
<path d="M1440 417.001L6.38828e-05 417.001" stroke="#E4E4E7" stroke-width="0.5"/>
<path d="M1440 449.001L6.38828e-05 449.001" stroke="#E4E4E7" stroke-width="0.5"/>
<path d="M1440 481.001L6.38828e-05 481.001" stroke="#E4E4E7" stroke-width="0.5"/>
<path d="M1440 513.001L6.38828e-05 513.001" stroke="#E4E4E7" stroke-width="0.5"/>
<path d="M1440 545.001L6.38828e-05 545.001" stroke="#E4E4E7" stroke-width="0.5"/>
<path d="M1440 577.001L-4.9591e-05 577.001" stroke="#E4E4E7" stroke-width="0.5"/>
<path d="M1440 609.001L6.38828e-05 609.001" stroke="#E4E4E7" stroke-width="0.5"/>
<rect x="-0.000488281" y="619" width="618" height="486.796" transform="rotate(-90 -0.000488281 619)" fill="url(#paint0_linear_2995_12432)"/>
<rect x="1440" y="1" width="617.52" height="486.795" transform="rotate(90 1440 1)" fill="url(#paint1_linear_2995_12432)"/>
<rect width="1440" height="191" transform="matrix(1 0 0 -1 -0.000488281 619)" fill="url(#paint2_linear_2995_12432)"/>
<rect x="-0.000488281" y="1" width="1440" height="155.136" fill="url(#paint3_linear_2995_12432)"/>
<defs>
<linearGradient id="paint0_linear_2995_12432" x1="308.999" y1="619" x2="308.999" y2="1105.8" gradientUnits="userSpaceOnUse">
<stop offset="0.643398" stop-color="#FAFAFA"/>
<stop offset="1" stop-color="#FAFAFA" stop-opacity="0"/>
</linearGradient>
<linearGradient id="paint1_linear_2995_12432" x1="1748.76" y1="1" x2="1748.76" y2="487.795" gradientUnits="userSpaceOnUse">
<stop offset="0.51887" stop-color="#FAFAFA"/>
<stop offset="1" stop-color="#FAFAFA" stop-opacity="0"/>
</linearGradient>
<linearGradient id="paint2_linear_2995_12432" x1="720" y1="0" x2="720" y2="191" gradientUnits="userSpaceOnUse">
<stop offset="0.644597" stop-color="#FAFAFA"/>
<stop offset="1" stop-color="#FAFAFA" stop-opacity="0"/>
</linearGradient>
<linearGradient id="paint3_linear_2995_12432" x1="720" y1="1" x2="720" y2="156.136" gradientUnits="userSpaceOnUse">
<stop offset="0.741324" stop-color="#FAFAFA"/>
<stop offset="1" stop-color="#FAFAFA" stop-opacity="0"/>
</linearGradient>
</defs>
</svg>
