<svg width="1026" height="421" viewBox="0 0 1026 421" fill="none" xmlns="http://www.w3.org/2000/svg">
<rect x="256.223" y="14" width="511.779" height="400" rx="32" stroke="#D97706" stroke-width="2"/>
<rect width="162.679" height="28" transform="translate(430.663)" fill="#FAFAFA"/>
<path d="M458.053 14.2478C457.903 14.0916 457.903 13.8384 458.053 13.6822L465.765 5.65001C465.915 5.49382 466.158 5.49382 466.308 5.65001L474.02 13.6822C474.17 13.8384 474.17 14.0917 474.02 14.2479L466.308 22.28C466.158 22.4362 465.915 22.4362 465.765 22.28L458.053 14.2478Z" fill="#2563EB"/>
<path d="M461.05 0.117144C460.9 -0.0390479 460.657 -0.0390481 460.507 0.117144L447.449 13.7172C447.299 13.8734 447.299 14.1266 447.449 14.2828L460.507 27.8829C460.657 28.039 460.9 28.039 461.05 27.8829L463.202 25.6412C463.352 25.485 463.352 25.2317 463.202 25.0755L452.79 14.2307C452.64 14.0745 452.64 13.8213 452.79 13.6651L463.152 2.87235C463.302 2.71616 463.302 2.46292 463.152 2.30673L461.05 0.117144Z" fill="#2563EB"/>
<path d="M481.19 24.2662V3.73291H484.612V15.7604L488.889 9.71524H492.752L487.73 16.7695L492.863 24.2662H488.999L484.612 17.8652V24.2662H481.19Z" fill="#1D4ED8"/>
<path d="M568.576 18.5639C568.593 19.4169 568.806 20.0381 569.215 20.4275C569.64 20.7984 570.244 20.9838 571.025 20.9838C572.675 20.9838 574.148 20.9282 575.444 20.8169L576.189 20.7335L576.242 23.4872C574.201 24.0065 572.356 24.2661 570.705 24.2661C568.7 24.2661 567.245 23.7098 566.34 22.5971C565.435 21.4845 564.982 19.6765 564.982 17.1731C564.982 12.1848 566.943 9.69067 570.865 9.69067C574.734 9.69067 576.668 11.7861 576.668 15.977L576.402 18.5639H568.576ZM573.154 15.7267C573.154 14.614 572.986 13.8445 572.648 13.418C572.311 12.9729 571.717 12.7504 570.865 12.7504C570.031 12.7504 569.436 12.9822 569.081 13.4458C568.744 13.8908 568.567 14.6511 568.549 15.7267H573.154Z" fill="#3B82F6"/>
<path d="M562.852 13.1957H559.578V18.8979C559.578 19.4542 559.587 19.8529 559.605 20.094C559.64 20.3165 559.738 20.5112 559.897 20.6781C560.075 20.845 560.341 20.9285 560.696 20.9285L562.719 20.8728L562.879 23.8491C561.69 24.1273 560.785 24.2663 560.164 24.2663C558.566 24.2663 557.475 23.8955 556.889 23.1537C556.304 22.3934 556.011 21.0026 556.011 18.9814V13.1957V9.69094V3.73828H559.578V9.69094H562.852V13.1957Z" fill="#3B82F6"/>
<path d="M549.71 24.2663V9.69094H553.277V24.2663H549.71ZM549.71 7.52121V3.73828H553.277V7.52121H549.71Z" fill="#3B82F6"/>
<path d="M543.409 24.2661L543.409 3.74023H546.976L546.976 24.2661H543.409Z" fill="#3B82F6"/>
<path d="M540.674 3.74023L540.674 24.2661H537.134V23.3482C535.892 23.9601 534.818 24.2661 533.913 24.2661C531.979 24.2661 530.63 23.682 529.867 22.5137C529.104 21.3455 528.722 19.5004 528.722 16.9784C528.722 14.4379 529.175 12.5928 530.08 11.4431C531.003 10.2748 532.387 9.69071 534.232 9.69071C534.8 9.69071 535.59 9.78343 536.602 9.96887L537.107 10.0801L537.107 3.74023H540.674ZM536.735 20.5944L537.107 20.511V13.1955C536.131 13.01 535.262 12.9173 534.499 12.9173C533.061 12.9173 532.343 14.2525 532.343 16.9228C532.343 18.3692 532.502 19.3984 532.822 20.0103C533.141 20.6223 533.665 20.9282 534.392 20.9282C535.138 20.9282 535.918 20.817 536.735 20.5944Z" fill="#1D4ED8"/>
<path d="M523.052 9.69067H526.619V24.2661H523.079V23.1534C521.801 23.8952 520.692 24.2661 519.751 24.2661C517.905 24.2661 516.663 23.7376 516.024 22.6806C515.385 21.605 515.066 19.8156 515.066 17.3122V9.69067H518.633V17.3678C518.633 18.74 518.74 19.6765 518.953 20.1772C519.165 20.6778 519.68 20.9282 520.496 20.9282C521.277 20.9282 522.014 20.7984 522.706 20.5388L523.052 20.4275V9.69067Z" fill="#1D4ED8"/>
<path d="M502.129 11.61C503.069 10.3304 504.64 9.69067 506.84 9.69067C509.041 9.69067 510.612 10.3304 511.552 11.61C512.493 12.8709 512.963 14.6511 512.963 16.9506C512.963 21.8276 510.922 24.2661 506.84 24.2661C502.759 24.2661 500.718 21.8276 500.718 16.9506C500.718 14.6511 501.188 12.8709 502.129 11.61ZM504.871 20.0937C505.243 20.7613 505.9 21.0951 506.84 21.0951C507.781 21.0951 508.429 20.7613 508.784 20.0937C509.156 19.4261 509.343 18.3784 509.343 16.9506C509.343 15.5227 509.156 14.4842 508.784 13.8352C508.429 13.1862 507.781 12.8617 506.84 12.8617C505.9 12.8617 505.243 13.1862 504.871 13.8352C504.516 14.4842 504.338 15.5227 504.338 16.9506C504.338 18.3784 504.516 19.4261 504.871 20.0937Z" fill="#1D4ED8"/>
<path d="M495.048 24.2661L494.966 3.74023H498.533L498.615 24.2661H495.048Z" fill="#1D4ED8"/>
<rect x="288.502" y="97.5" width="127" height="233" rx="11.5" fill="white"/>
<rect x="288.502" y="97.5" width="127" height="233" rx="11.5" stroke="#2563EB"/>
<path d="M314.072 206.455V221H311.437V206.455H314.072ZM319.382 214.608V221H316.811V210.091H319.269V211.945H319.397C319.648 211.334 320.048 210.848 320.597 210.489C321.151 210.129 321.835 209.949 322.649 209.949C323.402 209.949 324.058 210.11 324.617 210.432C325.18 210.754 325.616 211.22 325.924 211.831C326.236 212.442 326.39 213.183 326.385 214.054V221H323.814V214.452C323.814 213.723 323.625 213.152 323.246 212.74C322.872 212.328 322.353 212.122 321.691 212.122C321.241 212.122 320.841 212.222 320.49 212.42C320.145 212.615 319.872 212.896 319.674 213.266C319.479 213.635 319.382 214.082 319.382 214.608ZM334.524 210.091V212.08H328.076V210.091H334.524ZM329.688 221V209.061C329.688 208.327 329.839 207.716 330.142 207.229C330.45 206.741 330.862 206.376 331.378 206.135C331.894 205.893 332.467 205.773 333.097 205.773C333.542 205.773 333.937 205.808 334.283 205.879C334.629 205.95 334.884 206.014 335.05 206.071L334.539 208.06C334.43 208.027 334.292 207.993 334.127 207.96C333.961 207.922 333.776 207.903 333.573 207.903C333.094 207.903 332.756 208.019 332.557 208.251C332.363 208.479 332.266 208.805 332.266 209.232V221H329.688ZM336.538 221V210.091H339.031V211.909H339.144C339.343 211.279 339.684 210.794 340.167 210.453C340.655 210.107 341.211 209.935 341.836 209.935C341.978 209.935 342.137 209.942 342.312 209.956C342.492 209.965 342.641 209.982 342.76 210.006V212.371C342.651 212.333 342.478 212.3 342.241 212.271C342.009 212.238 341.784 212.222 341.566 212.222C341.098 212.222 340.676 212.323 340.302 212.527C339.933 212.726 339.642 213.003 339.429 213.358C339.215 213.713 339.109 214.123 339.109 214.587V221H336.538ZM347.411 221.22C346.72 221.22 346.098 221.097 345.544 220.851C344.994 220.6 344.559 220.231 344.237 219.743C343.92 219.255 343.761 218.654 343.761 217.939C343.761 217.323 343.875 216.814 344.102 216.412C344.329 216.009 344.639 215.688 345.032 215.446C345.425 215.205 345.868 215.022 346.36 214.899C346.858 214.771 347.371 214.679 347.902 214.622C348.541 214.556 349.059 214.497 349.457 214.445C349.855 214.388 350.143 214.303 350.323 214.189C350.508 214.071 350.6 213.888 350.6 213.642V213.599C350.6 213.064 350.442 212.65 350.125 212.357C349.807 212.063 349.35 211.916 348.754 211.916C348.124 211.916 347.625 212.054 347.255 212.328C346.891 212.603 346.644 212.927 346.517 213.301L344.116 212.96C344.305 212.297 344.618 211.743 345.054 211.298C345.489 210.848 346.022 210.512 346.652 210.29C347.281 210.062 347.977 209.949 348.74 209.949C349.265 209.949 349.788 210.01 350.309 210.134C350.83 210.257 351.306 210.46 351.737 210.744C352.168 211.024 352.513 211.405 352.774 211.888C353.039 212.371 353.171 212.974 353.171 213.699V221H350.7V219.501H350.615C350.458 219.804 350.238 220.089 349.954 220.354C349.675 220.614 349.322 220.825 348.896 220.986C348.474 221.142 347.98 221.22 347.411 221.22ZM348.079 219.331C348.595 219.331 349.043 219.229 349.421 219.026C349.8 218.817 350.091 218.543 350.295 218.202C350.503 217.861 350.608 217.489 350.608 217.087V215.801C350.527 215.867 350.39 215.929 350.196 215.986C350.006 216.043 349.793 216.092 349.556 216.135C349.32 216.178 349.085 216.215 348.853 216.249C348.621 216.282 348.42 216.31 348.25 216.334C347.866 216.386 347.523 216.471 347.22 216.589C346.917 216.708 346.678 216.874 346.502 217.087C346.327 217.295 346.24 217.565 346.24 217.896C346.24 218.37 346.412 218.727 346.758 218.969C347.104 219.21 347.544 219.331 348.079 219.331ZM368.867 213.727C368.867 215.295 368.574 216.637 367.987 217.754C367.404 218.867 366.609 219.719 365.6 220.311C364.597 220.903 363.458 221.199 362.184 221.199C360.911 221.199 359.769 220.903 358.761 220.311C357.757 219.714 356.962 218.86 356.375 217.747C355.792 216.63 355.501 215.29 355.501 213.727C355.501 212.16 355.792 210.82 356.375 209.707C356.962 208.59 357.757 207.735 358.761 207.143C359.769 206.552 360.911 206.256 362.184 206.256C363.458 206.256 364.597 206.552 365.6 207.143C366.609 207.735 367.404 208.59 367.987 209.707C368.574 210.82 368.867 212.16 368.867 213.727ZM366.218 213.727C366.218 212.624 366.045 211.694 365.7 210.936C365.359 210.174 364.885 209.598 364.279 209.21C363.673 208.817 362.975 208.621 362.184 208.621C361.393 208.621 360.695 208.817 360.089 209.21C359.483 209.598 359.007 210.174 358.661 210.936C358.321 211.694 358.15 212.624 358.15 213.727C358.15 214.83 358.321 215.763 358.661 216.526C359.007 217.283 359.483 217.858 360.089 218.251C360.695 218.64 361.393 218.834 362.184 218.834C362.975 218.834 363.673 218.64 364.279 218.251C364.885 217.858 365.359 217.283 365.7 216.526C366.045 215.763 366.218 214.83 366.218 213.727ZM371.245 225.091V210.091H373.773V211.895H373.922C374.055 211.63 374.242 211.348 374.484 211.05C374.725 210.747 375.052 210.489 375.464 210.276C375.876 210.058 376.401 209.949 377.04 209.949C377.883 209.949 378.643 210.164 379.32 210.595C380.002 211.021 380.542 211.653 380.94 212.491C381.342 213.325 381.543 214.348 381.543 215.56C381.543 216.758 381.347 217.776 380.954 218.614C380.561 219.452 380.026 220.091 379.349 220.531C378.672 220.972 377.905 221.192 377.047 221.192C376.422 221.192 375.904 221.088 375.492 220.879C375.08 220.671 374.749 220.42 374.498 220.126C374.252 219.828 374.06 219.546 373.922 219.281H373.816V225.091H371.245ZM373.766 215.545C373.766 216.251 373.866 216.869 374.065 217.399C374.268 217.929 374.559 218.344 374.938 218.642C375.322 218.936 375.786 219.082 376.33 219.082C376.898 219.082 377.374 218.931 377.758 218.628C378.141 218.32 378.43 217.901 378.624 217.371C378.823 216.836 378.922 216.227 378.922 215.545C378.922 214.868 378.825 214.267 378.631 213.741C378.437 213.216 378.148 212.804 377.765 212.506C377.381 212.207 376.903 212.058 376.33 212.058C375.781 212.058 375.315 212.203 374.931 212.491C374.547 212.78 374.256 213.185 374.057 213.706C373.863 214.227 373.766 214.84 373.766 215.545ZM392.367 212.974L390.023 213.23C389.957 212.993 389.841 212.771 389.675 212.562C389.514 212.354 389.297 212.186 389.022 212.058C388.747 211.93 388.411 211.866 388.013 211.866C387.478 211.866 387.029 211.982 386.664 212.214C386.304 212.446 386.127 212.747 386.131 213.116C386.127 213.434 386.243 213.692 386.479 213.891C386.721 214.089 387.119 214.253 387.672 214.381L389.533 214.778C390.565 215.001 391.333 215.354 391.834 215.837C392.341 216.32 392.597 216.952 392.601 217.733C392.597 218.42 392.396 219.026 391.998 219.551C391.605 220.072 391.058 220.479 390.357 220.773C389.656 221.066 388.851 221.213 387.942 221.213C386.607 221.213 385.532 220.934 384.718 220.375C383.904 219.812 383.418 219.028 383.262 218.024L385.769 217.783C385.883 218.275 386.124 218.647 386.494 218.898C386.863 219.149 387.343 219.274 387.935 219.274C388.546 219.274 389.036 219.149 389.405 218.898C389.78 218.647 389.967 218.337 389.967 217.967C389.967 217.655 389.846 217.397 389.604 217.193C389.368 216.99 388.998 216.833 388.496 216.724L386.636 216.334C385.589 216.116 384.815 215.749 384.313 215.233C383.811 214.712 383.563 214.054 383.567 213.259C383.563 212.586 383.745 212.004 384.114 211.511C384.488 211.014 385.007 210.631 385.67 210.361C386.337 210.086 387.107 209.949 387.978 209.949C389.256 209.949 390.262 210.221 390.996 210.766C391.735 211.31 392.192 212.046 392.367 212.974Z" fill="#2563EB"/>
<rect x="448.502" y="97.5" width="127" height="233" rx="11.5" fill="white"/>
<rect x="448.502" y="97.5" width="127" height="233" rx="11.5" stroke="#2563EB"/>
<path d="M479.866 221H474.937V206.455H479.965C481.409 206.455 482.65 206.746 483.687 207.328C484.728 207.906 485.529 208.737 486.087 209.821C486.646 210.905 486.925 212.203 486.925 213.713C486.925 215.228 486.644 216.53 486.08 217.619C485.521 218.708 484.714 219.544 483.658 220.126C482.607 220.709 481.343 221 479.866 221ZM477.572 218.72H479.738C480.751 218.72 481.596 218.536 482.273 218.166C482.95 217.792 483.459 217.236 483.8 216.497C484.141 215.754 484.312 214.826 484.312 213.713C484.312 212.6 484.141 211.677 483.8 210.943C483.459 210.205 482.955 209.653 482.288 209.288C481.625 208.919 480.801 208.734 479.816 208.734H477.572V218.72ZM494.145 221.213C493.051 221.213 492.106 220.986 491.311 220.531C490.52 220.072 489.912 219.423 489.486 218.585C489.06 217.742 488.847 216.75 488.847 215.609C488.847 214.487 489.06 213.502 489.486 212.655C489.917 211.803 490.518 211.14 491.29 210.666C492.061 210.188 492.968 209.949 494.01 209.949C494.682 209.949 495.317 210.058 495.913 210.276C496.515 210.489 497.045 210.82 497.504 211.27C497.968 211.72 498.333 212.293 498.598 212.989C498.863 213.68 498.996 214.504 498.996 215.46V216.249H490.054V214.516H496.531C496.526 214.023 496.42 213.585 496.212 213.202C496.003 212.813 495.712 212.508 495.338 212.286C494.969 212.063 494.538 211.952 494.045 211.952C493.52 211.952 493.058 212.08 492.66 212.335C492.263 212.586 491.953 212.918 491.73 213.33C491.512 213.737 491.401 214.184 491.396 214.672V216.185C491.396 216.819 491.512 217.364 491.744 217.818C491.976 218.268 492.301 218.614 492.717 218.855C493.134 219.092 493.622 219.21 494.18 219.21C494.554 219.21 494.893 219.158 495.196 219.054C495.499 218.945 495.762 218.786 495.984 218.578C496.207 218.37 496.375 218.112 496.489 217.804L498.889 218.074C498.738 218.708 498.449 219.262 498.023 219.736C497.601 220.205 497.061 220.569 496.403 220.83C495.745 221.085 494.992 221.213 494.145 221.213ZM510.603 210.091L506.718 221H503.877L499.992 210.091H502.733L505.24 218.195H505.354L507.868 210.091H510.603ZM525.492 213.727C525.492 215.295 525.199 216.637 524.612 217.754C524.029 218.867 523.234 219.719 522.225 220.311C521.222 220.903 520.083 221.199 518.809 221.199C517.536 221.199 516.394 220.903 515.386 220.311C514.382 219.714 513.587 218.86 513 217.747C512.417 216.63 512.126 215.29 512.126 213.727C512.126 212.16 512.417 210.82 513 209.707C513.587 208.59 514.382 207.735 515.386 207.143C516.394 206.552 517.536 206.256 518.809 206.256C520.083 206.256 521.222 206.552 522.225 207.143C523.234 207.735 524.029 208.59 524.612 209.707C525.199 210.82 525.492 212.16 525.492 213.727ZM522.843 213.727C522.843 212.624 522.67 211.694 522.325 210.936C521.984 210.174 521.51 209.598 520.904 209.21C520.298 208.817 519.6 208.621 518.809 208.621C518.018 208.621 517.32 208.817 516.714 209.21C516.108 209.598 515.632 210.174 515.286 210.936C514.946 211.694 514.775 212.624 514.775 213.727C514.775 214.83 514.946 215.763 515.286 216.526C515.632 217.283 516.108 217.858 516.714 218.251C517.32 218.64 518.018 218.834 518.809 218.834C519.6 218.834 520.298 218.64 520.904 218.251C521.51 217.858 521.984 217.283 522.325 216.526C522.67 215.763 522.843 214.83 522.843 213.727ZM527.87 225.091V210.091H530.398V211.895H530.547C530.68 211.63 530.867 211.348 531.109 211.05C531.35 210.747 531.677 210.489 532.089 210.276C532.501 210.058 533.026 209.949 533.665 209.949C534.508 209.949 535.268 210.164 535.945 210.595C536.627 211.021 537.167 211.653 537.565 212.491C537.967 213.325 538.168 214.348 538.168 215.56C538.168 216.758 537.972 217.776 537.579 218.614C537.186 219.452 536.651 220.091 535.974 220.531C535.297 220.972 534.53 221.192 533.672 221.192C533.047 221.192 532.529 221.088 532.117 220.879C531.705 220.671 531.374 220.42 531.123 220.126C530.877 219.828 530.685 219.546 530.547 219.281H530.441V225.091H527.87ZM530.391 215.545C530.391 216.251 530.491 216.869 530.69 217.399C530.893 217.929 531.184 218.344 531.563 218.642C531.947 218.936 532.411 219.082 532.955 219.082C533.523 219.082 533.999 218.931 534.383 218.628C534.766 218.32 535.055 217.901 535.249 217.371C535.448 216.836 535.547 216.227 535.547 215.545C535.547 214.868 535.45 214.267 535.256 213.741C535.062 213.216 534.773 212.804 534.39 212.506C534.006 212.207 533.528 212.058 532.955 212.058C532.406 212.058 531.94 212.203 531.556 212.491C531.172 212.78 530.881 213.185 530.682 213.706C530.488 214.227 530.391 214.84 530.391 215.545ZM548.992 212.974L546.648 213.23C546.582 212.993 546.466 212.771 546.3 212.562C546.139 212.354 545.922 212.186 545.647 212.058C545.372 211.93 545.036 211.866 544.638 211.866C544.103 211.866 543.654 211.982 543.289 212.214C542.929 212.446 542.752 212.747 542.756 213.116C542.752 213.434 542.868 213.692 543.104 213.891C543.346 214.089 543.744 214.253 544.297 214.381L546.158 214.778C547.19 215.001 547.958 215.354 548.459 215.837C548.966 216.32 549.222 216.952 549.226 217.733C549.222 218.42 549.021 219.026 548.623 219.551C548.23 220.072 547.683 220.479 546.982 220.773C546.281 221.066 545.476 221.213 544.567 221.213C543.232 221.213 542.157 220.934 541.343 220.375C540.529 219.812 540.043 219.028 539.887 218.024L542.394 217.783C542.508 218.275 542.749 218.647 543.119 218.898C543.488 219.149 543.968 219.274 544.56 219.274C545.171 219.274 545.661 219.149 546.03 218.898C546.405 218.647 546.592 218.337 546.592 217.967C546.592 217.655 546.471 217.397 546.229 217.193C545.993 216.99 545.623 216.833 545.121 216.724L543.261 216.334C542.214 216.116 541.44 215.749 540.938 215.233C540.436 214.712 540.188 214.054 540.192 213.259C540.188 212.586 540.37 212.004 540.739 211.511C541.113 211.014 541.632 210.631 542.295 210.361C542.962 210.086 543.732 209.949 544.603 209.949C545.881 209.949 546.887 210.221 547.621 210.766C548.36 211.31 548.817 212.046 548.992 212.974Z" fill="#2563EB"/>
<rect x="608.502" y="97.5" width="127" height="233" rx="11.5" fill="white"/>
<rect x="608.502" y="97.5" width="127" height="233" rx="11.5" stroke="#2563EB"/>
<path d="M630.366 221H625.437V206.455H630.465C631.909 206.455 633.15 206.746 634.187 207.328C635.228 207.906 636.029 208.737 636.587 209.821C637.146 210.905 637.425 212.203 637.425 213.713C637.425 215.228 637.144 216.53 636.58 217.619C636.021 218.708 635.214 219.544 634.158 220.126C633.107 220.709 631.843 221 630.366 221ZM628.072 218.72H630.238C631.251 218.72 632.096 218.536 632.773 218.166C633.45 217.792 633.959 217.236 634.3 216.497C634.641 215.754 634.812 214.826 634.812 213.713C634.812 212.6 634.641 211.677 634.3 210.943C633.959 210.205 633.455 209.653 632.788 209.288C632.125 208.919 631.301 208.734 630.316 208.734H628.072V218.72ZM639.815 221V210.091H642.386V221H639.815ZM641.108 208.543C640.701 208.543 640.35 208.408 640.057 208.138C639.763 207.863 639.616 207.534 639.616 207.151C639.616 206.762 639.763 206.433 640.057 206.163C640.35 205.889 640.701 205.751 641.108 205.751C641.52 205.751 641.87 205.889 642.159 206.163C642.453 206.433 642.599 206.762 642.599 207.151C642.599 207.534 642.453 207.863 642.159 208.138C641.87 208.408 641.52 208.543 641.108 208.543ZM653.652 212.974L651.309 213.23C651.242 212.993 651.126 212.771 650.96 212.562C650.8 212.354 650.582 212.186 650.307 212.058C650.032 211.93 649.696 211.866 649.299 211.866C648.764 211.866 648.314 211.982 647.949 212.214C647.589 212.446 647.412 212.747 647.416 213.116C647.412 213.434 647.528 213.692 647.764 213.891C648.006 214.089 648.404 214.253 648.958 214.381L650.818 214.778C651.851 215.001 652.618 215.354 653.12 215.837C653.626 216.32 653.882 216.952 653.887 217.733C653.882 218.42 653.681 219.026 653.283 219.551C652.89 220.072 652.343 220.479 651.642 220.773C650.942 221.066 650.137 221.213 649.228 221.213C647.892 221.213 646.818 220.934 646.003 220.375C645.189 219.812 644.703 219.028 644.547 218.024L647.054 217.783C647.168 218.275 647.409 218.647 647.779 218.898C648.148 219.149 648.629 219.274 649.22 219.274C649.831 219.274 650.321 219.149 650.691 218.898C651.065 218.647 651.252 218.337 651.252 217.967C651.252 217.655 651.131 217.397 650.889 217.193C650.653 216.99 650.283 216.833 649.782 216.724L647.921 216.334C646.874 216.116 646.1 215.749 645.598 215.233C645.096 214.712 644.848 214.054 644.853 213.259C644.848 212.586 645.03 212.004 645.399 211.511C645.773 211.014 646.292 210.631 646.955 210.361C647.622 210.086 648.392 209.949 649.263 209.949C650.541 209.949 651.548 210.221 652.282 210.766C653.02 211.31 653.477 212.046 653.652 212.974ZM661.454 210.091V212.08H655.183V210.091H661.454ZM656.731 207.477H659.302V217.719C659.302 218.064 659.354 218.33 659.458 218.514C659.567 218.694 659.709 218.817 659.885 218.884C660.06 218.95 660.254 218.983 660.467 218.983C660.628 218.983 660.775 218.971 660.907 218.947C661.045 218.924 661.149 218.902 661.22 218.884L661.653 220.893C661.516 220.941 661.319 220.993 661.063 221.05C660.813 221.107 660.505 221.14 660.14 221.149C659.496 221.168 658.916 221.071 658.4 220.858C657.884 220.64 657.474 220.304 657.171 219.849C656.873 219.395 656.726 218.827 656.731 218.145V207.477ZM663.604 221V210.091H666.097V211.909H666.211C666.41 211.279 666.751 210.794 667.234 210.453C667.721 210.107 668.278 209.935 668.903 209.935C669.045 209.935 669.203 209.942 669.378 209.956C669.558 209.965 669.708 209.982 669.826 210.006V212.371C669.717 212.333 669.544 212.3 669.307 212.271C669.075 212.238 668.851 212.222 668.633 212.222C668.164 212.222 667.743 212.323 667.369 212.527C666.999 212.726 666.708 213.003 666.495 213.358C666.282 213.713 666.175 214.123 666.175 214.587V221H663.604ZM671.534 221V210.091H674.105V221H671.534ZM672.827 208.543C672.419 208.543 672.069 208.408 671.775 208.138C671.482 207.863 671.335 207.534 671.335 207.151C671.335 206.762 671.482 206.433 671.775 206.163C672.069 205.889 672.419 205.751 672.827 205.751C673.239 205.751 673.589 205.889 673.878 206.163C674.171 206.433 674.318 206.762 674.318 207.151C674.318 207.534 674.171 207.863 673.878 208.138C673.589 208.408 673.239 208.543 672.827 208.543ZM676.862 221V206.455H679.434V211.895H679.54C679.673 211.63 679.86 211.348 680.101 211.05C680.343 210.747 680.669 210.489 681.081 210.276C681.493 210.058 682.019 209.949 682.658 209.949C683.501 209.949 684.261 210.164 684.938 210.595C685.62 211.021 686.159 211.653 686.557 212.491C686.96 213.325 687.161 214.348 687.161 215.56C687.161 216.758 686.964 217.776 686.571 218.614C686.178 219.452 685.643 220.091 684.966 220.531C684.289 220.972 683.522 221.192 682.665 221.192C682.04 221.192 681.522 221.088 681.11 220.879C680.698 220.671 680.366 220.42 680.115 220.126C679.869 219.828 679.677 219.546 679.54 219.281H679.391V221H676.862ZM679.384 215.545C679.384 216.251 679.483 216.869 679.682 217.399C679.886 217.929 680.177 218.344 680.556 218.642C680.939 218.936 681.403 219.082 681.948 219.082C682.516 219.082 682.992 218.931 683.375 218.628C683.759 218.32 684.048 217.901 684.242 217.371C684.441 216.836 684.54 216.227 684.54 215.545C684.54 214.868 684.443 214.267 684.249 213.741C684.055 213.216 683.766 212.804 683.382 212.506C682.999 212.207 682.521 212.058 681.948 212.058C681.398 212.058 680.932 212.203 680.549 212.491C680.165 212.78 679.874 213.185 679.675 213.706C679.481 214.227 679.384 214.84 679.384 215.545ZM696.3 216.412V210.091H698.871V221H696.378V219.061H696.264C696.018 219.672 695.613 220.171 695.05 220.56C694.491 220.948 693.802 221.142 692.983 221.142C692.268 221.142 691.636 220.983 691.087 220.666C690.542 220.344 690.116 219.878 689.808 219.267C689.5 218.652 689.347 217.908 689.347 217.037V210.091H691.918V216.639C691.918 217.33 692.107 217.88 692.486 218.287C692.864 218.694 693.362 218.898 693.977 218.898C694.356 218.898 694.723 218.805 695.078 218.621C695.433 218.436 695.724 218.161 695.952 217.797C696.184 217.428 696.3 216.966 696.3 216.412ZM706.962 210.091V212.08H700.691V210.091H706.962ZM702.239 207.477H704.81V217.719C704.81 218.064 704.862 218.33 704.966 218.514C705.075 218.694 705.217 218.817 705.392 218.884C705.568 218.95 705.762 218.983 705.975 218.983C706.136 218.983 706.282 218.971 706.415 218.947C706.552 218.924 706.657 218.902 706.728 218.884L707.161 220.893C707.023 220.941 706.827 220.993 706.571 221.05C706.32 221.107 706.013 221.14 705.648 221.149C705.004 221.168 704.424 221.071 703.908 220.858C703.392 220.64 702.982 220.304 702.679 219.849C702.381 219.395 702.234 218.827 702.239 218.145V207.477ZM713.824 221.213C712.731 221.213 711.786 220.986 710.991 220.531C710.2 220.072 709.592 219.423 709.165 218.585C708.739 217.742 708.526 216.75 708.526 215.609C708.526 214.487 708.739 213.502 709.165 212.655C709.596 211.803 710.198 211.14 710.969 210.666C711.741 210.188 712.648 209.949 713.69 209.949C714.362 209.949 714.996 210.058 715.593 210.276C716.194 210.489 716.725 210.82 717.184 211.27C717.648 211.72 718.012 212.293 718.278 212.989C718.543 213.68 718.675 214.504 718.675 215.46V216.249H709.734V214.516H716.211C716.206 214.023 716.1 213.585 715.891 213.202C715.683 212.813 715.392 212.508 715.018 212.286C714.648 212.063 714.217 211.952 713.725 211.952C713.199 211.952 712.738 212.08 712.34 212.335C711.942 212.586 711.632 212.918 711.41 213.33C711.192 213.737 711.081 214.184 711.076 214.672V216.185C711.076 216.819 711.192 217.364 711.424 217.818C711.656 218.268 711.98 218.614 712.397 218.855C712.814 219.092 713.301 219.21 713.86 219.21C714.234 219.21 714.573 219.158 714.876 219.054C715.179 218.945 715.441 218.786 715.664 218.578C715.887 218.37 716.055 218.112 716.168 217.804L718.569 218.074C718.417 218.708 718.128 219.262 717.702 219.736C717.281 220.205 716.741 220.569 716.083 220.83C715.425 221.085 714.672 221.213 713.824 221.213Z" fill="#2563EB"/>
<rect width="56" height="14" transform="translate(484 407)" fill="#FAFAFA"/>
<path d="M509.502 416.731C508.592 418.18 506.98 419.143 505.143 419.143C502.303 419.143 500 416.84 500 414C500 411.16 502.303 408.857 505.143 408.857C506.187 408.857 507.568 409.385 508.201 409.946C508.824 410.497 515.104 417.467 515.316 417.702C515.323 417.71 515.325 417.712 515.332 417.719L515.586 417.969C516.475 418.702 517.615 419.143 518.857 419.143C521.697 419.143 524 416.84 524 414C524 411.16 521.697 408.857 518.857 408.857C517.244 408.857 515.804 409.6 514.861 410.763" stroke="#71717A" stroke-width="2" stroke-linecap="round"/>
<path d="M884.63 214.24H768.002" stroke="#D97706" stroke-width="2" stroke-dasharray="4 4"/>
<path d="M768.002 189.238H810.49C818.896 189.238 826.405 183.982 829.282 176.085L854.486 106.903C857.364 99.0047 864.872 93.7488 873.278 93.7488L884.63 93.7488" stroke="#D97706" stroke-width="2" stroke-dasharray="4 4"/>
<path d="M768.002 239.242H810.49C818.896 239.242 826.405 244.498 829.282 252.395L854.486 321.577C857.364 329.475 864.872 334.731 873.278 334.731L884.63 334.731" stroke="#D97706" stroke-width="2" stroke-dasharray="4 4"/>
<rect x="884.587" y="51.6609" width="140.582" height="96" rx="8" fill="#DBEAFE"/>
<path fill-rule="evenodd" clip-rule="evenodd" d="M944.406 95.7338C944.406 96.3244 944.47 96.8034 944.581 97.1546C944.709 97.5058 944.869 97.8889 945.092 98.304C945.172 98.4317 945.204 98.5594 945.204 98.6712C945.204 98.8308 945.108 98.9905 944.901 99.1501L943.895 99.8206C943.751 99.9164 943.608 99.9643 943.48 99.9643C943.32 99.9643 943.161 99.8845 943.001 99.7408C942.777 99.5013 942.586 99.2459 942.426 98.9905C942.267 98.7191 942.107 98.4158 941.931 98.0486C940.686 99.5173 939.122 100.252 937.238 100.252C935.897 100.252 934.827 99.8685 934.045 99.1022C933.263 98.3359 932.864 97.3142 932.864 96.0371C932.864 94.6801 933.343 93.5786 934.316 92.7484C935.29 91.9183 936.583 91.5032 938.228 91.5032C938.77 91.5032 939.329 91.5511 939.92 91.6309C940.51 91.7108 941.117 91.8385 941.756 91.9822V90.8168C941.756 89.6035 941.5 88.7574 941.005 88.2625C940.495 87.7676 939.632 87.5281 938.403 87.5281C937.844 87.5281 937.27 87.592 936.679 87.7357C936.088 87.8793 935.514 88.0549 934.955 88.2784C934.699 88.3902 934.508 88.454 934.396 88.486C934.284 88.5179 934.205 88.5339 934.141 88.5339C933.917 88.5339 933.805 88.3742 933.805 88.039V87.2567C933.805 87.0013 933.837 86.8097 933.917 86.698C933.997 86.5862 934.141 86.4745 934.364 86.3627C934.923 86.0754 935.593 85.8359 936.376 85.6443C937.158 85.4368 937.988 85.341 938.866 85.341C940.766 85.341 942.155 85.772 943.049 86.6341C943.927 87.4962 944.374 88.8053 944.374 90.5613V95.7338H944.406ZM937.924 98.1603C938.451 98.1603 938.994 98.0646 939.569 97.873C940.143 97.6814 940.654 97.3302 941.085 96.8513C941.341 96.5479 941.532 96.2127 941.628 95.8296C941.724 95.4464 941.788 94.9834 941.788 94.4407V93.7702C941.325 93.6584 940.83 93.5626 940.319 93.4988C939.808 93.4349 939.313 93.403 938.818 93.403C937.749 93.403 936.966 93.6105 936.44 94.0416C935.913 94.4726 935.657 95.0792 935.657 95.8774C935.657 96.6278 935.849 97.1865 936.248 97.5697C936.631 97.9688 937.19 98.1603 937.924 98.1603ZM950.744 99.8845C950.456 99.8845 950.265 99.8366 950.137 99.7248C950.009 99.6291 949.897 99.4056 949.802 99.1022L946.05 86.7618C945.954 86.4425 945.906 86.235 945.906 86.1233C945.906 85.8678 946.034 85.7242 946.29 85.7242H947.854C948.157 85.7242 948.365 85.772 948.477 85.8838C948.604 85.9796 948.7 86.2031 948.796 86.5064L951.478 97.0748L953.968 86.5064C954.048 86.1871 954.144 85.9796 954.272 85.8838C954.399 85.788 954.623 85.7242 954.91 85.7242H956.187C956.491 85.7242 956.698 85.772 956.826 85.8838C956.954 85.9796 957.065 86.2031 957.129 86.5064L959.652 97.2025L962.413 86.5064C962.509 86.1871 962.621 85.9796 962.733 85.8838C962.861 85.788 963.068 85.7242 963.355 85.7242H964.84C965.096 85.7242 965.239 85.8519 965.239 86.1233C965.239 86.1914 965.228 86.2596 965.214 86.3377L965.214 86.3378L965.207 86.3787C965.191 86.4745 965.159 86.6022 965.096 86.7778L961.248 99.1182C961.152 99.4375 961.041 99.645 960.913 99.7408C960.785 99.8366 960.578 99.9004 960.306 99.9004H958.933C958.63 99.9004 958.422 99.8526 958.295 99.7408C958.167 99.6291 958.055 99.4215 957.991 99.1022L955.517 88.8053L953.058 99.0863C952.979 99.4056 952.883 99.6131 952.755 99.7248C952.627 99.8366 952.404 99.8845 952.117 99.8845H950.744ZM971.258 100.316C970.428 100.316 969.597 100.22 968.799 100.028C968.001 99.8366 967.378 99.6291 966.963 99.3896C966.708 99.2459 966.532 99.0863 966.468 98.9426C966.405 98.7989 966.373 98.6393 966.373 98.4956V97.6814C966.373 97.3462 966.5 97.1865 966.74 97.1865C966.836 97.1865 966.931 97.2025 967.027 97.2344C967.089 97.255 967.171 97.289 967.264 97.3276L967.264 97.3277C967.315 97.3489 967.37 97.3715 967.426 97.3941C967.969 97.6335 968.56 97.8251 969.182 97.9528C969.821 98.0805 970.444 98.1444 971.082 98.1444C972.088 98.1444 972.87 97.9688 973.413 97.6176C973.956 97.2663 974.243 96.7555 974.243 96.1009C974.243 95.6539 974.099 95.2868 973.812 94.9834C973.525 94.6801 972.982 94.4087 972.2 94.1533L969.885 93.4349C968.719 93.0677 967.857 92.5249 967.331 91.8066C966.804 91.1041 966.532 90.3219 966.532 89.4917C966.532 88.8212 966.676 88.2305 966.963 87.7197C967.251 87.2088 967.634 86.7618 968.113 86.4106C968.592 86.0434 969.134 85.772 969.773 85.5805C970.412 85.3889 971.082 85.3091 971.785 85.3091C972.136 85.3091 972.503 85.325 972.854 85.3729C973.221 85.4208 973.557 85.4847 973.892 85.5485C974.211 85.6284 974.514 85.7082 974.802 85.804C975.089 85.8998 975.313 85.9955 975.472 86.0913C975.696 86.219 975.855 86.3468 975.951 86.4904C976.047 86.6182 976.095 86.7938 976.095 87.0173V87.7676C976.095 88.1028 975.967 88.2784 975.728 88.2784C975.6 88.2784 975.392 88.2146 975.121 88.0869C974.211 87.6718 973.189 87.4643 972.056 87.4643C971.146 87.4643 970.428 87.6079 969.933 87.9113C969.438 88.2146 969.182 88.6775 969.182 89.3321C969.182 89.7791 969.342 90.1622 969.661 90.4655C969.981 90.7689 970.571 91.0722 971.417 91.3436L973.684 92.062C974.834 92.4292 975.664 92.94 976.159 93.5946C976.654 94.2491 976.893 94.9994 976.893 95.8296C976.893 96.516 976.749 97.1386 976.478 97.6814C976.191 98.2242 975.808 98.7031 975.313 99.0863C974.818 99.4854 974.227 99.7727 973.541 99.9803C972.822 100.204 972.072 100.316 971.258 100.316ZM974.275 108.074C969.023 111.953 961.392 114.013 954.83 114.013C945.635 114.013 937.349 110.612 931.091 104.961C930.596 104.514 931.043 103.907 931.634 104.258C938.403 108.186 946.752 110.564 955.389 110.564C961.216 110.564 967.618 109.351 973.509 106.861C974.387 106.462 975.137 107.435 974.275 108.074ZM970.316 105.376C972.024 105.168 975.791 104.721 976.462 105.584C977.132 106.43 975.711 109.99 975.073 111.57C974.881 112.049 975.296 112.241 975.727 111.873C978.537 109.511 979.272 104.578 978.697 103.859C978.122 103.157 973.189 102.55 970.188 104.658C969.725 104.993 969.805 105.44 970.316 105.376Z" fill="#2563EB"/>
<rect x="884.587" y="166.24" width="140.582" height="96" rx="8" fill="#DBEAFE"/>
<path fill-rule="evenodd" clip-rule="evenodd" d="M954.879 238.24C968.134 238.24 978.879 227.495 978.879 214.24C978.879 200.985 968.134 190.24 954.879 190.24C941.628 190.24 930.885 200.979 930.879 214.228H940.011C940.017 206.022 946.671 199.372 954.879 199.372C963.09 199.372 969.747 206.029 969.747 214.24C969.747 222.451 963.09 229.108 954.879 229.108L954.85 229.108V238.24L954.879 238.24ZM954.849 219.648H945.569V228.929H954.849V219.648ZM945.569 228.959H938.437V222.995H932.473V228.959H938.437V236.091H945.569V228.959Z" fill="#2563EB"/>
<rect x="884.587" y="286.731" width="140.582" height="96" rx="8" fill="#DBEAFE"/>
<g clip-path="url(#clip0_2995_12533)">
<path fill-rule="evenodd" clip-rule="evenodd" d="M955.313 311.34C955.039 311.207 954.719 311.207 954.445 311.34L935.968 320.238C935.693 320.37 935.494 320.62 935.427 320.916L930.863 340.91C930.795 341.207 930.866 341.519 931.056 341.756L943.843 357.791C944.033 358.028 944.32 358.167 944.625 358.167H965.133C965.437 358.167 965.725 358.028 965.915 357.791L978.702 341.756C978.891 341.519 978.963 341.207 978.895 340.91L974.331 320.916C974.264 320.62 974.064 320.37 973.79 320.238L955.313 311.34ZM954.164 319.326C954.348 319.121 954.605 318.998 954.879 318.983L954.881 318.977C955.155 318.992 955.412 319.115 955.596 319.319C955.78 319.523 955.875 319.792 955.861 320.066V320.345C955.834 320.658 955.789 320.969 955.726 321.277C955.632 321.866 955.594 322.462 955.615 323.057C955.654 323.256 955.769 323.432 955.935 323.547C955.936 323.562 955.938 323.585 955.94 323.612C955.947 323.713 955.959 323.88 955.959 323.983C959.061 324.265 961.955 325.663 964.103 327.918L964.476 327.652C964.676 327.686 964.882 327.664 965.07 327.587C965.549 327.232 965.992 326.831 966.393 326.391C966.597 326.149 966.816 325.92 967.046 325.704C967.107 325.652 967.197 325.582 967.264 325.53C967.361 325.427 967.479 325.346 967.61 325.293C967.74 325.239 967.881 325.214 968.022 325.22C968.164 325.225 968.302 325.261 968.428 325.325C968.554 325.389 968.665 325.479 968.753 325.589C968.842 325.699 968.905 325.827 968.94 325.964C968.975 326.101 968.98 326.244 968.954 326.383C968.929 326.522 968.874 326.654 968.793 326.77C968.713 326.886 968.608 326.983 968.487 327.055C968.467 327.071 968.446 327.088 968.424 327.106C968.371 327.15 968.314 327.197 968.269 327.229C968.006 327.403 967.734 327.562 967.454 327.704C966.935 327.998 966.446 328.342 965.994 328.73C965.862 328.884 965.796 329.084 965.809 329.286L965.46 329.598C967.201 332.191 967.928 335.333 967.504 338.428L967.901 338.543C967.998 338.725 968.144 338.876 968.323 338.979C968.898 339.132 969.487 339.229 970.081 339.268C970.396 339.276 970.71 339.301 971.022 339.345C971.076 339.355 971.143 339.371 971.207 339.388C971.243 339.397 971.277 339.405 971.308 339.412C971.443 339.431 971.573 339.477 971.69 339.549C971.806 339.62 971.906 339.715 971.984 339.827C972.062 339.94 972.116 340.067 972.141 340.201C972.167 340.335 972.165 340.473 972.135 340.607C972.104 340.74 972.047 340.865 971.965 340.975C971.884 341.085 971.78 341.176 971.662 341.244C971.543 341.311 971.411 341.354 971.275 341.368C971.14 341.382 971.002 341.367 970.872 341.325H970.837C970.81 341.319 970.781 341.314 970.752 341.308C970.693 341.296 970.633 341.284 970.585 341.271C970.288 341.174 969.997 341.061 969.713 340.931C969.161 340.708 968.588 340.539 968.003 340.428C967.8 340.421 967.603 340.494 967.454 340.63C967.384 340.615 967.162 340.576 967.036 340.556C966.085 343.543 964.069 346.075 961.371 347.672C961.417 347.807 961.472 347.939 961.535 348.068C961.434 348.244 961.406 348.452 961.458 348.648C961.697 349.194 961.989 349.716 962.33 350.205C962.52 350.456 962.696 350.717 962.857 350.987C962.89 351.048 962.933 351.139 962.968 351.213C962.974 351.227 962.98 351.239 962.985 351.251C963.055 351.369 963.098 351.5 963.114 351.636C963.13 351.771 963.117 351.909 963.077 352.04C963.037 352.17 962.97 352.291 962.88 352.394C962.791 352.497 962.681 352.581 962.557 352.639C962.434 352.698 962.299 352.73 962.163 352.734C962.026 352.737 961.89 352.712 961.764 352.661C961.637 352.609 961.523 352.532 961.428 352.433C961.333 352.335 961.259 352.218 961.212 352.09C961.2 352.064 961.185 352.035 961.171 352.006C961.142 351.948 961.112 351.887 961.09 351.839C960.978 351.545 960.882 351.245 960.805 350.939C960.634 350.369 960.409 349.817 960.131 349.29C960.011 349.127 959.831 349.017 959.63 348.985C959.601 348.947 959.531 348.82 959.47 348.711C959.449 348.673 959.429 348.637 959.413 348.608C956.494 349.713 953.271 349.705 950.358 348.584L950.14 348.987C949.981 349.017 949.834 349.094 949.72 349.21C949.385 349.759 949.129 350.352 948.959 350.972C948.882 351.277 948.788 351.578 948.676 351.872C948.654 351.921 948.624 351.982 948.595 352.04C948.581 352.069 948.567 352.097 948.554 352.122C948.507 352.251 948.434 352.369 948.339 352.468C948.244 352.567 948.129 352.645 948.003 352.697C947.876 352.749 947.739 352.774 947.602 352.77C947.465 352.766 947.33 352.734 947.206 352.675C947.083 352.617 946.972 352.532 946.883 352.429C946.793 352.325 946.726 352.203 946.687 352.072C946.647 351.941 946.635 351.803 946.651 351.667C946.668 351.53 946.713 351.399 946.783 351.282C946.796 351.254 946.811 351.221 946.827 351.188C946.855 351.128 946.884 351.065 946.909 351.018C947.07 350.747 947.246 350.485 947.437 350.234C947.783 349.731 948.081 349.196 948.325 348.637C948.352 348.447 948.321 348.254 948.238 348.081L948.417 347.645C945.729 346.061 943.714 343.548 942.752 340.58L942.317 340.654C942.151 340.537 941.955 340.468 941.752 340.456C941.167 340.568 940.595 340.736 940.042 340.959C939.758 341.088 939.467 341.201 939.171 341.297C939.119 341.311 939.049 341.326 938.984 341.34C938.961 341.344 938.939 341.349 938.918 341.353H938.883C938.753 341.395 938.616 341.41 938.48 341.396C938.344 341.382 938.213 341.34 938.094 341.272C937.975 341.205 937.872 341.113 937.79 341.003C937.709 340.894 937.651 340.768 937.621 340.635C937.59 340.502 937.588 340.364 937.614 340.23C937.64 340.095 937.693 339.968 937.771 339.856C937.849 339.743 937.949 339.649 938.066 339.577C938.182 339.506 938.312 339.459 938.447 339.441H938.463L938.476 339.437C938.555 339.418 938.654 339.394 938.724 339.38C939.036 339.336 939.35 339.311 939.665 339.303C940.259 339.264 940.848 339.167 941.424 339.014C941.595 338.902 941.738 338.753 941.844 338.578L942.256 338.458C941.81 335.362 942.523 332.209 944.258 329.606L943.944 329.325C943.933 329.122 943.865 328.926 943.748 328.759C943.296 328.37 942.807 328.026 942.288 327.733C942.009 327.59 941.737 327.431 941.476 327.258C941.438 327.23 941.393 327.193 941.348 327.156C941.323 327.134 941.297 327.113 941.273 327.094H941.258C941.034 326.934 940.884 326.692 940.838 326.421C940.793 326.15 940.857 325.872 941.016 325.648C941.11 325.532 941.23 325.441 941.366 325.381C941.502 325.321 941.65 325.293 941.798 325.301C942.048 325.312 942.288 325.402 942.482 325.558C942.491 325.565 942.499 325.571 942.508 325.578C942.572 325.627 942.649 325.687 942.7 325.733C942.931 325.949 943.149 326.178 943.354 326.419C943.755 326.86 944.198 327.26 944.676 327.615C944.856 327.71 945.066 327.73 945.26 327.672C945.292 327.69 945.367 327.744 945.446 327.801C945.506 327.845 945.568 327.89 945.615 327.922C947.34 326.089 949.572 324.814 952.027 324.26C952.611 324.128 953.204 324.037 953.8 323.988L953.824 323.571C953.977 323.436 954.087 323.26 954.142 323.064C954.164 322.468 954.128 321.872 954.033 321.284C953.971 320.976 953.925 320.665 953.898 320.351V320.101V320.073C953.885 319.798 953.98 319.53 954.164 319.326ZM953.358 331.739L953.65 326.593C953.301 326.636 952.954 326.696 952.611 326.774C950.773 327.187 949.087 328.105 947.744 329.425L951.964 332.393C952.09 332.482 952.238 332.536 952.392 332.549C952.547 332.563 952.702 332.534 952.841 332.468C952.981 332.401 953.101 332.299 953.188 332.171C953.275 332.043 953.326 331.894 953.336 331.739H953.358ZM961.992 329.425C960.395 327.862 958.328 326.867 956.11 326.593L956.408 331.746C956.418 331.9 956.469 332.05 956.557 332.178C956.644 332.307 956.763 332.41 956.904 332.476C957.044 332.543 957.199 332.571 957.354 332.557C957.508 332.544 957.656 332.489 957.783 332.399H957.798L961.992 329.425ZM950.06 334.794L946.206 331.347V331.349C945.034 333.263 944.532 335.513 944.781 337.743L949.72 336.319V336.301C949.869 336.258 950.004 336.176 950.111 336.063C950.218 335.95 950.293 335.81 950.327 335.658C950.362 335.507 950.355 335.349 950.308 335.2C950.261 335.052 950.175 334.919 950.06 334.815V334.794ZM965.001 337.724C965.215 335.494 964.697 333.255 963.524 331.347L963.53 331.367L959.698 334.796C959.582 334.9 959.496 335.033 959.449 335.181C959.402 335.329 959.396 335.487 959.43 335.639C959.465 335.79 959.54 335.93 959.646 336.043C959.753 336.156 959.888 336.238 960.038 336.282V336.303L965.001 337.724ZM955.667 335.051H954.088L953.103 336.275L953.456 337.8L954.877 338.484L956.295 337.802L956.648 336.277L955.667 335.051ZM959.347 339.264C959.282 339.252 959.215 339.246 959.149 339.249V339.264C959.01 339.272 958.875 339.314 958.755 339.385C958.636 339.456 958.535 339.555 958.461 339.673C958.388 339.792 958.343 339.926 958.332 340.064C958.321 340.203 958.343 340.343 958.397 340.471L960.38 345.264C962.27 344.054 963.704 342.25 964.456 340.136L959.347 339.264ZM950.97 339.382C950.847 339.312 950.709 339.274 950.567 339.271L950.561 339.26C950.504 339.259 950.447 339.264 950.391 339.275L945.325 340.136C946.086 342.239 947.52 344.033 949.404 345.238L951.365 340.495L951.349 340.475C951.404 340.345 951.425 340.203 951.412 340.062C951.399 339.921 951.352 339.786 951.275 339.667C951.198 339.549 951.094 339.451 950.97 339.382ZM955.307 341.464C955.167 341.384 955.007 341.344 954.846 341.349V341.358C954.694 341.364 954.547 341.409 954.418 341.489C954.289 341.569 954.184 341.682 954.112 341.815L951.622 346.319C953.405 346.926 955.322 347.025 957.158 346.604C957.495 346.528 957.828 346.435 958.155 346.325L955.659 341.804H955.639C955.562 341.663 955.447 341.545 955.307 341.464Z" fill="#2563EB"/>
</g>
<path d="M139.414 115.162H146.904C154.508 115.162 161.454 119.474 164.828 126.289L189.831 176.795C193.205 183.61 200.151 187.922 207.755 187.922H256.004" stroke="#D97706" stroke-width="2" stroke-dasharray="4 4"/>
<path d="M139.414 330.232H145.779C153.957 330.232 161.311 325.253 164.348 317.659L190.311 252.747C193.348 245.153 200.702 240.174 208.88 240.174H256.004" stroke="#D97706" stroke-width="2" stroke-dasharray="4 4"/>
<rect y="51.6609" width="140.582" height="116" rx="8" fill="#DBEAFE"/>
<path fill-rule="evenodd" clip-rule="evenodd" d="M62.4674 77.8259C62.4674 73.5921 65.8996 70.1599 70.1334 70.1599C74.3673 70.1599 77.7994 73.5921 77.7994 77.8259C77.7994 82.0597 74.3673 85.4919 70.1334 85.4919C65.8996 85.4919 62.4674 82.0597 62.4674 77.8259ZM70.1334 68.1599C64.795 68.1599 60.4674 72.4875 60.4674 77.8259C60.4674 81.5125 62.5313 84.7171 65.5666 86.3472C63.0122 87.3434 60.8641 89.1505 59.4386 91.4506H47.7513C47.199 91.4506 46.7513 91.8983 46.7513 92.4506V114.162C46.7513 114.714 47.199 115.162 47.7513 115.162H92.7996C93.3519 115.162 93.7996 114.714 93.7996 114.162V92.4506C93.7996 91.8983 93.3519 91.4506 92.7996 91.4506H80.8273C79.4019 89.1507 77.254 87.3437 74.6999 86.3474C77.7354 84.7173 79.7994 81.5127 79.7994 77.8259C79.7994 72.4875 75.4718 68.1599 70.1334 68.1599ZM78.3821 91.4506H61.8839C63.8227 89.0358 66.798 87.4922 70.133 87.4922C73.4679 87.4922 76.4433 89.0359 78.3821 91.4506ZM48.7513 93.4506V113.162H91.7996V93.4506H48.7513ZM73.2759 98.0264C73.4646 97.5073 73.1969 96.9336 72.6778 96.7448C72.1588 96.5561 71.585 96.8238 71.3963 97.3429L67.3079 108.586C67.1191 109.105 67.3869 109.679 67.9059 109.868C68.425 110.056 68.9987 109.789 69.1875 109.27L73.2759 98.0264ZM65.8384 100.886C66.2289 100.495 66.2289 99.8622 65.8384 99.4717C65.4478 99.0812 64.8147 99.0812 64.4242 99.4717L61.2964 102.599C61.1089 102.787 61.0035 103.041 61.0035 103.307C61.0035 103.572 61.1089 103.826 61.2964 104.014L64.4242 107.141C64.8147 107.532 65.4478 107.532 65.8384 107.141C66.2289 106.751 66.2289 106.118 65.8384 105.727L63.4177 103.307L65.8384 100.886ZM74.7451 99.4717C75.1357 99.0812 75.7688 99.0812 76.1594 99.4717L79.2871 102.599C79.6776 102.99 79.6776 103.623 79.2871 104.014L76.1594 107.141C75.7688 107.532 75.1357 107.532 74.7451 107.141C74.3546 106.751 74.3546 106.118 74.7451 105.727L77.1658 103.307L74.7451 100.886C74.3546 100.495 74.3546 99.8622 74.7451 99.4717Z" fill="#2563EB"/>
<path d="M36.3552 146.661H32.9049V136.479H36.4248C37.4357 136.479 38.304 136.683 39.0299 137.091C39.7591 137.495 40.3192 138.077 40.7103 138.836C41.1014 139.595 41.2969 140.503 41.2969 141.56C41.2969 142.621 41.0997 143.532 40.7053 144.294C40.3142 145.057 39.7491 145.642 39.01 146.049C38.2742 146.457 37.3893 146.661 36.3552 146.661ZM34.7494 145.065H36.2657C36.975 145.065 37.5666 144.936 38.0405 144.677C38.5145 144.415 38.8708 144.026 39.1094 143.509C39.3481 142.989 39.4674 142.339 39.4674 141.56C39.4674 140.781 39.3481 140.135 39.1094 139.621C38.8708 139.104 38.5178 138.718 38.0505 138.463C37.5865 138.204 37.0098 138.075 36.3204 138.075H34.7494V145.065ZM46.3506 146.81C45.5849 146.81 44.9237 146.651 44.3669 146.333C43.8134 146.011 43.3875 145.557 43.0892 144.971C42.7909 144.381 42.6418 143.686 42.6418 142.887C42.6418 142.102 42.7909 141.413 43.0892 140.819C43.3908 140.223 43.8117 139.759 44.352 139.427C44.8922 139.092 45.5269 138.925 46.2561 138.925C46.7267 138.925 47.1709 139.001 47.5885 139.154C48.0094 139.303 48.3806 139.535 48.7021 139.85C49.0269 140.165 49.2821 140.566 49.4678 141.053C49.6534 141.537 49.7462 142.114 49.7462 142.783V143.335H43.4869V142.122H48.021C48.0177 141.777 47.9431 141.471 47.7973 141.202C47.6515 140.93 47.4476 140.717 47.1858 140.561C46.9273 140.405 46.6257 140.327 46.281 140.327C45.9131 140.327 45.5899 140.417 45.3115 140.596C45.0331 140.771 44.816 141.003 44.6602 141.292C44.5078 141.577 44.4299 141.89 44.4266 142.231V143.29C44.4266 143.734 44.5078 144.115 44.6702 144.434C44.8326 144.748 45.0596 144.99 45.3513 145.159C45.6429 145.325 45.9843 145.408 46.3754 145.408C46.6373 145.408 46.8742 145.372 47.0864 145.299C47.2985 145.222 47.4824 145.111 47.6382 144.966C47.794 144.82 47.9116 144.639 47.9912 144.424L49.6716 144.613C49.5655 145.057 49.3633 145.445 49.0651 145.776C48.7701 146.104 48.3922 146.359 47.9315 146.542C47.4708 146.721 46.9438 146.81 46.3506 146.81ZM57.871 139.025L55.1515 146.661H53.1629L50.4434 139.025H52.3625L54.1174 144.697H54.197L55.9569 139.025H57.871ZM62.2373 146.81C61.4717 146.81 60.8104 146.651 60.2536 146.333C59.7001 146.011 59.2742 145.557 58.9759 144.971C58.6776 144.381 58.5285 143.686 58.5285 142.887C58.5285 142.102 58.6776 141.413 58.9759 140.819C59.2775 140.223 59.6985 139.759 60.2387 139.427C60.7789 139.092 61.4137 138.925 62.1428 138.925C62.6135 138.925 63.0576 139.001 63.4752 139.154C63.8961 139.303 64.2673 139.535 64.5888 139.85C64.9137 140.165 65.1689 140.566 65.3545 141.053C65.5401 141.537 65.6329 142.114 65.6329 142.783V143.335H59.3736V142.122H63.9077C63.9044 141.777 63.8298 141.471 63.684 141.202C63.5382 140.93 63.3343 140.717 63.0725 140.561C62.814 140.405 62.5124 140.327 62.1677 140.327C61.7998 140.327 61.4766 140.417 61.1982 140.596C60.9198 140.771 60.7027 141.003 60.5469 141.292C60.3945 141.577 60.3166 141.89 60.3133 142.231V143.29C60.3133 143.734 60.3945 144.115 60.5569 144.434C60.7193 144.748 60.9463 144.99 61.238 145.159C61.5297 145.325 61.871 145.408 62.2621 145.408C62.524 145.408 62.761 145.372 62.9731 145.299C63.1852 145.222 63.3691 145.111 63.5249 144.966C63.6807 144.82 63.7984 144.639 63.8779 144.424L65.5583 144.613C65.4522 145.057 65.2501 145.445 64.9518 145.776C64.6568 146.104 64.2789 146.359 63.8182 146.542C63.3575 146.721 62.8306 146.81 62.2373 146.81ZM68.9551 136.479V146.661H67.1554V136.479H68.9551ZM74.1368 146.81C73.391 146.81 72.7447 146.646 72.1979 146.318C71.651 145.99 71.2267 145.531 70.9251 144.941C70.6268 144.351 70.4777 143.661 70.4777 142.873C70.4777 142.084 70.6268 141.393 70.9251 140.799C71.2267 140.206 71.651 139.745 72.1979 139.417C72.7447 139.089 73.391 138.925 74.1368 138.925C74.8825 138.925 75.5288 139.089 76.0757 139.417C76.6226 139.745 77.0452 140.206 77.3435 140.799C77.6451 141.393 77.7959 142.084 77.7959 142.873C77.7959 143.661 77.6451 144.351 77.3435 144.941C77.0452 145.531 76.6226 145.99 76.0757 146.318C75.5288 146.646 74.8825 146.81 74.1368 146.81ZM74.1467 145.368C74.5511 145.368 74.8892 145.257 75.1609 145.035C75.4327 144.81 75.6349 144.508 75.7675 144.13C75.9034 143.753 75.9713 143.332 75.9713 142.868C75.9713 142.4 75.9034 141.978 75.7675 141.6C75.6349 141.219 75.4327 140.915 75.1609 140.69C74.8892 140.465 74.5511 140.352 74.1467 140.352C73.7324 140.352 73.3877 140.465 73.1126 140.69C72.8409 140.915 72.637 141.219 72.5011 141.6C72.3686 141.978 72.3023 142.4 72.3023 142.868C72.3023 143.332 72.3686 143.753 72.5011 144.13C72.637 144.508 72.8409 144.81 73.1126 145.035C73.3877 145.257 73.7324 145.368 74.1467 145.368ZM79.3234 149.525V139.025H81.0933V140.287H81.1977C81.2905 140.102 81.4214 139.904 81.5904 139.696C81.7595 139.484 81.9882 139.303 82.2765 139.154C82.5649 139.001 82.9328 138.925 83.3802 138.925C83.9702 138.925 84.5021 139.076 84.9761 139.378C85.4534 139.676 85.8312 140.118 86.1096 140.705C86.3913 141.288 86.5322 142.004 86.5322 142.853C86.5322 143.691 86.3947 144.404 86.1196 144.99C85.8445 145.577 85.4699 146.025 84.996 146.333C84.522 146.641 83.9851 146.795 83.3852 146.795C82.9477 146.795 82.5848 146.722 82.2964 146.576C82.0081 146.431 81.776 146.255 81.6004 146.049C81.428 145.841 81.2938 145.643 81.1977 145.458H81.1231V149.525H79.3234ZM81.0883 142.843C81.0883 143.337 81.1579 143.769 81.2971 144.14C81.4396 144.512 81.6435 144.802 81.9086 145.01C82.1771 145.216 82.5019 145.319 82.8831 145.319C83.2808 145.319 83.6139 145.212 83.8823 145C84.1508 144.785 84.353 144.492 84.4889 144.12C84.6281 143.746 84.6977 143.32 84.6977 142.843C84.6977 142.369 84.6297 141.948 84.4939 141.58C84.358 141.212 84.1558 140.924 83.8873 140.715C83.6189 140.506 83.2841 140.402 82.8831 140.402C82.4986 140.402 82.1721 140.503 81.9037 140.705C81.6352 140.907 81.4314 141.19 81.2921 141.555C81.1563 141.92 81.0883 142.349 81.0883 142.843ZM91.4541 146.81C90.6885 146.81 90.0272 146.651 89.4704 146.333C88.9169 146.011 88.491 145.557 88.1927 144.971C87.8944 144.381 87.7453 143.686 87.7453 142.887C87.7453 142.102 87.8944 141.413 88.1927 140.819C88.4943 140.223 88.9153 139.759 89.4555 139.427C89.9957 139.092 90.6305 138.925 91.3596 138.925C91.8303 138.925 92.2744 139.001 92.692 139.154C93.1129 139.303 93.4841 139.535 93.8056 139.85C94.1305 140.165 94.3857 140.566 94.5713 141.053C94.7569 141.537 94.8497 142.114 94.8497 142.783V143.335H88.5904V142.122H93.1245C93.1212 141.777 93.0466 141.471 92.9008 141.202C92.755 140.93 92.5511 140.717 92.2893 140.561C92.0308 140.405 91.7292 140.327 91.3845 140.327C91.0166 140.327 90.6934 140.417 90.415 140.596C90.1366 140.771 89.9195 141.003 89.7637 141.292C89.6113 141.577 89.5334 141.89 89.5301 142.231V143.29C89.5301 143.734 89.6113 144.115 89.7737 144.434C89.9361 144.748 90.1631 144.99 90.4548 145.159C90.7465 145.325 91.0878 145.408 91.4789 145.408C91.7408 145.408 91.9778 145.372 92.1899 145.299C92.402 145.222 92.5859 145.111 92.7417 144.966C92.8975 144.82 93.0152 144.639 93.0947 144.424L94.7751 144.613C94.669 145.057 94.4669 145.445 94.1686 145.776C93.8736 146.104 93.4957 146.359 93.035 146.542C92.5743 146.721 92.0474 146.81 91.4541 146.81ZM96.3722 146.661V139.025H98.1173V140.297H98.1968C98.336 139.856 98.5746 139.517 98.9127 139.278C99.2541 139.036 99.6435 138.915 100.081 138.915C100.18 138.915 100.291 138.92 100.414 138.93C100.54 138.937 100.644 138.948 100.727 138.965V140.62C100.651 140.594 100.53 140.571 100.364 140.551C100.202 140.528 100.045 140.516 99.8921 140.516C99.564 140.516 99.269 140.587 99.0072 140.73C98.7486 140.869 98.5448 141.063 98.3957 141.311C98.2465 141.56 98.1719 141.847 98.1719 142.172V146.661H96.3722ZM107.959 141.043L106.318 141.222C106.271 141.056 106.19 140.9 106.074 140.755C105.962 140.609 105.809 140.491 105.617 140.402C105.425 140.312 105.189 140.267 104.911 140.267C104.536 140.267 104.222 140.349 103.966 140.511C103.714 140.673 103.59 140.884 103.593 141.142C103.59 141.364 103.671 141.545 103.837 141.684C104.006 141.824 104.285 141.938 104.672 142.027L105.975 142.306C106.697 142.462 107.234 142.708 107.586 143.047C107.94 143.385 108.119 143.827 108.123 144.374C108.119 144.855 107.978 145.279 107.7 145.647C107.425 146.011 107.042 146.296 106.552 146.502C106.061 146.707 105.498 146.81 104.861 146.81C103.927 146.81 103.174 146.614 102.604 146.223C102.034 145.829 101.694 145.28 101.585 144.578L103.34 144.409C103.419 144.753 103.588 145.014 103.847 145.189C104.106 145.365 104.442 145.453 104.856 145.453C105.284 145.453 105.627 145.365 105.885 145.189C106.147 145.014 106.278 144.797 106.278 144.538C106.278 144.319 106.194 144.139 106.025 143.996C105.859 143.854 105.6 143.744 105.249 143.668L103.946 143.395C103.214 143.242 102.672 142.985 102.321 142.624C101.969 142.259 101.795 141.799 101.799 141.242C101.795 140.771 101.923 140.364 102.182 140.019C102.443 139.671 102.806 139.402 103.27 139.213C103.738 139.021 104.276 138.925 104.886 138.925C105.781 138.925 106.485 139.116 106.999 139.497C107.516 139.878 107.836 140.393 107.959 141.043Z" fill="#2563EB"/>
<defs>
<clipPath id="clip0_2995_12533">
<rect width="48" height="48" fill="white" transform="translate(930.879 310.731)"/>
</clipPath>
</defs>
</svg>
