<svg width="898" height="369" viewBox="0 0 898 369" fill="none" xmlns="http://www.w3.org/2000/svg">
<rect x="224.69" y="12.2498" width="447.796" height="349.991" rx="32" stroke="#D97706" stroke-width="2"/>
<rect width="162.679" height="28" transform="translate(367.15 0.000488281)" fill="#FAFAFA"/>
<path d="M394.541 14.2483C394.391 14.0921 394.391 13.8389 394.541 13.6827L402.253 5.6505C402.403 5.49431 402.646 5.49431 402.796 5.6505L410.508 13.6827C410.658 13.8389 410.658 14.0922 410.508 14.2483L402.796 22.2805C402.646 22.4367 402.403 22.4367 402.253 22.2805L394.541 14.2483Z" fill="#2563EB"/>
<path d="M397.538 0.117632C397.388 -0.0385596 397.145 -0.0385598 396.995 0.117632L383.936 13.7177C383.786 13.8739 383.786 14.1271 383.936 14.2833L396.995 27.8833C397.145 28.0395 397.388 28.0395 397.538 27.8833L399.69 25.6416C399.84 25.4855 399.84 25.2322 399.69 25.076L389.277 14.2312C389.127 14.075 389.127 13.8218 389.277 13.6656L399.64 2.87284C399.79 2.71664 399.79 2.46341 399.64 2.30721L397.538 0.117632Z" fill="#2563EB"/>
<path d="M417.678 24.2667V3.7334H421.1V15.7608L425.377 9.71572H429.24L424.218 16.77L429.351 24.2667H425.487L421.1 17.8657V24.2667H417.678Z" fill="#1D4ED8"/>
<path d="M505.064 18.5643C505.081 19.4174 505.294 20.0386 505.702 20.428C506.128 20.7989 506.732 20.9843 507.513 20.9843C509.163 20.9843 510.636 20.9287 511.931 20.8174L512.677 20.734L512.73 23.4877C510.689 24.0069 508.844 24.2666 507.193 24.2666C505.188 24.2666 503.733 23.7102 502.828 22.5976C501.923 21.485 501.47 19.677 501.47 17.1736C501.47 12.1853 503.431 9.69116 507.353 9.69116C511.222 9.69116 513.156 11.7866 513.156 15.9775L512.89 18.5643H505.064ZM509.642 15.7272C509.642 14.6145 509.474 13.845 509.136 13.4185C508.799 12.9734 508.205 12.7509 507.353 12.7509C506.519 12.7509 505.924 12.9827 505.569 13.4463C505.232 13.8913 505.055 14.6516 505.037 15.7272H509.642Z" fill="#3B82F6"/>
<path d="M499.34 13.1962H496.066V18.8984C496.066 19.4547 496.075 19.8534 496.093 20.0945C496.128 20.317 496.226 20.5117 496.385 20.6786C496.563 20.8455 496.829 20.9289 497.184 20.9289L499.207 20.8733L499.367 23.8496C498.178 24.1277 497.273 24.2668 496.652 24.2668C495.055 24.2668 493.963 23.8959 493.377 23.1542C492.792 22.3939 492.499 21.0031 492.499 18.9819V13.1962V9.69143V3.73877H496.066V9.69143H499.34V13.1962Z" fill="#3B82F6"/>
<path d="M486.198 24.2668V9.69143H489.765V24.2668H486.198ZM486.198 7.5217V3.73877H489.765V7.5217H486.198Z" fill="#3B82F6"/>
<path d="M479.897 24.2666L479.897 3.74072H483.464L483.464 24.2666H479.897Z" fill="#3B82F6"/>
<path d="M477.162 3.74072L477.162 24.2666H473.622V23.3487C472.38 23.9606 471.306 24.2666 470.401 24.2666C468.467 24.2666 467.118 23.6825 466.355 22.5142C465.592 21.3459 465.21 19.5008 465.21 16.9789C465.21 14.4384 465.663 12.5933 466.568 11.4436C467.491 10.2753 468.875 9.6912 470.72 9.6912C471.288 9.6912 472.078 9.78392 473.09 9.96936L473.595 10.0806L473.595 3.74072H477.162ZM473.223 20.5949L473.595 20.5115V13.196C472.619 13.0105 471.75 12.9178 470.987 12.9178C469.549 12.9178 468.83 14.253 468.83 16.9233C468.83 18.3697 468.99 19.3989 469.31 20.0108C469.629 20.6227 470.153 20.9287 470.88 20.9287C471.626 20.9287 472.406 20.8174 473.223 20.5949Z" fill="#1D4ED8"/>
<path d="M459.54 9.69116H463.107V24.2666H459.567V23.1539C458.289 23.8957 457.18 24.2666 456.239 24.2666C454.394 24.2666 453.151 23.7381 452.513 22.6811C451.874 21.6055 451.554 19.8161 451.554 17.3126V9.69116H455.121V17.3683C455.121 18.7405 455.228 19.677 455.441 20.1777C455.654 20.6783 456.168 20.9287 456.985 20.9287C457.765 20.9287 458.502 20.7989 459.194 20.5393L459.54 20.428V9.69116Z" fill="#1D4ED8"/>
<path d="M438.617 11.6104C439.557 10.3309 441.128 9.69116 443.329 9.69116C445.529 9.69116 447.1 10.3309 448.04 11.6104C448.981 12.8714 449.451 14.6516 449.451 16.951C449.451 21.8281 447.41 24.2666 443.329 24.2666C439.247 24.2666 437.206 21.8281 437.206 16.951C437.206 14.6516 437.676 12.8714 438.617 11.6104ZM441.359 20.0942C441.731 20.7618 442.388 21.0956 443.329 21.0956C444.269 21.0956 444.917 20.7618 445.272 20.0942C445.644 19.4266 445.831 18.3789 445.831 16.951C445.831 15.5232 445.644 14.4847 445.272 13.8357C444.917 13.1867 444.269 12.8621 443.329 12.8621C442.388 12.8621 441.731 13.1867 441.359 13.8357C441.004 14.4847 440.826 15.5232 440.826 16.951C440.826 18.3789 441.004 19.4266 441.359 20.0942Z" fill="#1D4ED8"/>
<path d="M431.536 24.2666L431.454 3.74072H435.021L435.103 24.2666H431.536Z" fill="#1D4ED8"/>
<rect x="256.997" y="70.7461" width="105.663" height="233" rx="11.5" fill="white"/>
<rect x="256.997" y="70.7461" width="105.663" height="233" rx="11.5" stroke="#2563EB"/>
<path d="M271.898 179.701V194.246H269.263V179.701H271.898ZM277.209 187.854V194.246H274.638V183.337H277.095V185.191H277.223C277.474 184.58 277.874 184.095 278.423 183.735C278.977 183.375 279.662 183.195 280.476 183.195C281.229 183.195 281.885 183.356 282.443 183.678C283.007 184 283.442 184.466 283.75 185.077C284.063 185.688 284.217 186.429 284.212 187.3V194.246H281.641V187.698C281.641 186.969 281.451 186.398 281.073 185.986C280.699 185.574 280.18 185.368 279.517 185.368C279.067 185.368 278.667 185.468 278.317 185.667C277.971 185.861 277.699 186.142 277.5 186.512C277.306 186.881 277.209 187.328 277.209 187.854ZM292.351 183.337V185.326H285.902V183.337H292.351ZM287.514 194.246V182.307C287.514 181.573 287.666 180.962 287.969 180.475C288.277 179.987 288.689 179.623 289.205 179.381C289.721 179.14 290.294 179.019 290.923 179.019C291.369 179.019 291.764 179.054 292.11 179.125C292.455 179.196 292.711 179.26 292.877 179.317L292.365 181.306C292.256 181.273 292.119 181.239 291.953 181.206C291.788 181.168 291.603 181.15 291.399 181.15C290.921 181.15 290.583 181.266 290.384 181.498C290.19 181.725 290.092 182.051 290.092 182.478V194.246H287.514ZM294.364 194.246V183.337H296.857V185.155H296.971C297.17 184.525 297.511 184.04 297.994 183.699C298.481 183.354 299.038 183.181 299.663 183.181C299.805 183.181 299.963 183.188 300.139 183.202C300.319 183.212 300.468 183.228 300.586 183.252V185.617C300.477 185.579 300.304 185.546 300.068 185.517C299.836 185.484 299.611 185.468 299.393 185.468C298.924 185.468 298.503 185.569 298.129 185.773C297.759 185.972 297.468 186.249 297.255 186.604C297.042 186.959 296.936 187.369 296.936 187.833V194.246H294.364ZM305.238 194.466C304.547 194.466 303.924 194.343 303.37 194.097C302.821 193.846 302.385 193.477 302.063 192.989C301.746 192.501 301.587 191.9 301.587 191.185C301.587 190.569 301.701 190.06 301.928 189.658C302.156 189.256 302.466 188.934 302.859 188.692C303.252 188.451 303.694 188.268 304.187 188.145C304.684 188.017 305.198 187.925 305.728 187.868C306.367 187.802 306.886 187.743 307.284 187.691C307.681 187.634 307.97 187.549 308.15 187.435C308.335 187.317 308.427 187.134 308.427 186.888V186.846C308.427 186.31 308.268 185.896 307.951 185.603C307.634 185.309 307.177 185.162 306.58 185.162C305.951 185.162 305.451 185.3 305.082 185.574C304.717 185.849 304.471 186.173 304.343 186.547L301.943 186.206C302.132 185.543 302.444 184.989 302.88 184.544C303.316 184.095 303.848 183.758 304.478 183.536C305.108 183.309 305.804 183.195 306.566 183.195C307.092 183.195 307.615 183.257 308.136 183.38C308.657 183.503 309.132 183.706 309.563 183.99C309.994 184.27 310.34 184.651 310.6 185.134C310.865 185.617 310.998 186.221 310.998 186.945V194.246H308.526V192.748H308.441C308.285 193.051 308.065 193.335 307.781 193.6C307.501 193.86 307.149 194.071 306.722 194.232C306.301 194.388 305.806 194.466 305.238 194.466ZM305.906 192.577C306.422 192.577 306.869 192.475 307.248 192.272C307.627 192.063 307.918 191.789 308.122 191.448C308.33 191.107 308.434 190.735 308.434 190.333V189.047C308.354 189.114 308.216 189.175 308.022 189.232C307.833 189.289 307.62 189.338 307.383 189.381C307.146 189.424 306.912 189.462 306.68 189.495C306.448 189.528 306.247 189.556 306.076 189.58C305.693 189.632 305.349 189.717 305.046 189.836C304.743 189.954 304.504 190.12 304.329 190.333C304.154 190.541 304.066 190.811 304.066 191.142C304.066 191.616 304.239 191.973 304.585 192.215C304.93 192.456 305.371 192.577 305.906 192.577ZM326.694 186.973C326.694 188.541 326.4 189.883 325.813 191C325.231 192.113 324.436 192.965 323.427 193.557C322.423 194.149 321.284 194.445 320.011 194.445C318.737 194.445 317.596 194.149 316.587 193.557C315.584 192.961 314.788 192.106 314.201 190.993C313.619 189.876 313.328 188.536 313.328 186.973C313.328 185.406 313.619 184.066 314.201 182.953C314.788 181.836 315.584 180.981 316.587 180.39C317.596 179.798 318.737 179.502 320.011 179.502C321.284 179.502 322.423 179.798 323.427 180.39C324.436 180.981 325.231 181.836 325.813 182.953C326.4 184.066 326.694 185.406 326.694 186.973ZM324.045 186.973C324.045 185.87 323.872 184.94 323.526 184.182C323.186 183.42 322.712 182.845 322.106 182.456C321.5 182.063 320.802 181.867 320.011 181.867C319.22 181.867 318.522 182.063 317.916 182.456C317.31 182.845 316.834 183.42 316.488 184.182C316.147 184.94 315.977 185.87 315.977 186.973C315.977 188.077 316.147 189.009 316.488 189.772C316.834 190.529 317.31 191.105 317.916 191.498C318.522 191.886 319.22 192.08 320.011 192.08C320.802 192.08 321.5 191.886 322.106 191.498C322.712 191.105 323.186 190.529 323.526 189.772C323.872 189.009 324.045 188.077 324.045 186.973ZM329.072 198.337V183.337H331.6V185.141H331.749C331.882 184.876 332.069 184.594 332.31 184.296C332.552 183.993 332.878 183.735 333.29 183.522C333.702 183.304 334.228 183.195 334.867 183.195C335.71 183.195 336.47 183.41 337.147 183.841C337.829 184.267 338.368 184.9 338.766 185.738C339.169 186.571 339.37 187.594 339.37 188.806C339.37 190.004 339.173 191.022 338.78 191.86C338.387 192.698 337.852 193.337 337.175 193.777C336.498 194.218 335.731 194.438 334.874 194.438C334.249 194.438 333.731 194.334 333.319 194.125C332.907 193.917 332.575 193.666 332.324 193.373C332.078 193.074 331.886 192.792 331.749 192.527H331.643V198.337H329.072ZM331.593 188.792C331.593 189.497 331.692 190.115 331.891 190.645C332.095 191.176 332.386 191.59 332.765 191.888C333.148 192.182 333.612 192.328 334.157 192.328C334.725 192.328 335.201 192.177 335.584 191.874C335.968 191.566 336.257 191.147 336.451 190.617C336.65 190.082 336.749 189.473 336.749 188.792C336.749 188.114 336.652 187.513 336.458 186.988C336.264 186.462 335.975 186.05 335.591 185.752C335.208 185.453 334.73 185.304 334.157 185.304C333.607 185.304 333.141 185.449 332.758 185.738C332.374 186.026 332.083 186.431 331.884 186.952C331.69 187.473 331.593 188.086 331.593 188.792ZM350.194 186.221L347.85 186.476C347.784 186.239 347.668 186.017 347.502 185.809C347.341 185.6 347.123 185.432 346.849 185.304C346.574 185.176 346.238 185.113 345.84 185.113C345.305 185.113 344.855 185.229 344.491 185.461C344.131 185.693 343.953 185.993 343.958 186.363C343.953 186.68 344.069 186.938 344.306 187.137C344.547 187.336 344.945 187.499 345.499 187.627L347.36 188.025C348.392 188.247 349.159 188.6 349.661 189.083C350.168 189.566 350.423 190.198 350.428 190.979C350.423 191.666 350.222 192.272 349.824 192.797C349.431 193.318 348.884 193.725 348.184 194.019C347.483 194.312 346.678 194.459 345.769 194.459C344.434 194.459 343.359 194.18 342.545 193.621C341.73 193.058 341.245 192.274 341.089 191.27L343.596 191.029C343.709 191.521 343.951 191.893 344.32 192.144C344.689 192.395 345.17 192.52 345.762 192.52C346.373 192.52 346.863 192.395 347.232 192.144C347.606 191.893 347.793 191.583 347.793 191.213C347.793 190.901 347.672 190.643 347.431 190.439C347.194 190.236 346.825 190.079 346.323 189.971L344.462 189.58C343.416 189.362 342.642 188.995 342.14 188.479C341.638 187.958 341.389 187.3 341.394 186.505C341.389 185.832 341.572 185.25 341.941 184.757C342.315 184.26 342.833 183.877 343.496 183.607C344.164 183.332 344.933 183.195 345.804 183.195C347.083 183.195 348.089 183.467 348.823 184.012C349.562 184.556 350.018 185.292 350.194 186.221Z" fill="#2563EB"/>
<rect x="395.66" y="70.7461" width="105.663" height="233" rx="11.5" fill="white"/>
<rect x="395.66" y="70.7461" width="105.663" height="233" rx="11.5" stroke="#2563EB"/>
<path d="M416.355 194.246H411.426V179.701H416.455C417.899 179.701 419.139 179.992 420.176 180.574C421.218 181.152 422.018 181.983 422.577 183.067C423.135 184.151 423.415 185.449 423.415 186.959C423.415 188.474 423.133 189.776 422.57 190.865C422.011 191.954 421.204 192.79 420.148 193.373C419.097 193.955 417.832 194.246 416.355 194.246ZM414.061 191.966H416.227C417.241 191.966 418.086 191.782 418.763 191.412C419.44 191.038 419.949 190.482 420.29 189.743C420.631 189 420.801 188.072 420.801 186.959C420.801 185.846 420.631 184.923 420.29 184.189C419.949 183.451 419.445 182.899 418.777 182.534C418.114 182.165 417.29 181.98 416.305 181.98H414.061V191.966ZM430.634 194.459C429.54 194.459 428.596 194.232 427.8 193.777C427.01 193.318 426.401 192.669 425.975 191.831C425.549 190.989 425.336 189.997 425.336 188.855C425.336 187.733 425.549 186.748 425.975 185.901C426.406 185.049 427.007 184.386 427.779 183.912C428.551 183.434 429.458 183.195 430.499 183.195C431.172 183.195 431.806 183.304 432.403 183.522C433.004 183.735 433.534 184.066 433.994 184.516C434.458 184.966 434.822 185.539 435.087 186.235C435.352 186.926 435.485 187.75 435.485 188.706V189.495H426.543V187.762H433.021C433.016 187.269 432.909 186.831 432.701 186.448C432.493 186.06 432.201 185.754 431.827 185.532C431.458 185.309 431.027 185.198 430.535 185.198C430.009 185.198 429.548 185.326 429.15 185.581C428.752 185.832 428.442 186.164 428.219 186.576C428.002 186.983 427.89 187.43 427.886 187.918V189.431C427.886 190.065 428.002 190.61 428.234 191.064C428.466 191.514 428.79 191.86 429.207 192.101C429.623 192.338 430.111 192.456 430.67 192.456C431.044 192.456 431.382 192.404 431.685 192.3C431.988 192.191 432.251 192.033 432.474 191.824C432.696 191.616 432.864 191.358 432.978 191.05L435.379 191.32C435.227 191.954 434.938 192.508 434.512 192.982C434.091 193.451 433.551 193.815 432.893 194.076C432.235 194.331 431.482 194.459 430.634 194.459ZM447.092 183.337L443.207 194.246H440.366L436.481 183.337H439.223L441.73 191.441H441.843L444.358 183.337H447.092ZM461.982 186.973C461.982 188.541 461.688 189.883 461.101 191C460.519 192.113 459.723 192.965 458.715 193.557C457.711 194.149 456.572 194.445 455.299 194.445C454.025 194.445 452.884 194.149 451.875 193.557C450.872 192.961 450.076 192.106 449.489 190.993C448.907 189.876 448.615 188.536 448.615 186.973C448.615 185.406 448.907 184.066 449.489 182.953C450.076 181.836 450.872 180.981 451.875 180.39C452.884 179.798 454.025 179.502 455.299 179.502C456.572 179.502 457.711 179.798 458.715 180.39C459.723 180.981 460.519 181.836 461.101 182.953C461.688 184.066 461.982 185.406 461.982 186.973ZM459.333 186.973C459.333 185.87 459.16 184.94 458.814 184.182C458.473 183.42 458 182.845 457.394 182.456C456.788 182.063 456.089 181.867 455.299 181.867C454.508 181.867 453.81 182.063 453.203 182.456C452.597 182.845 452.122 183.42 451.776 184.182C451.435 184.94 451.265 185.87 451.265 186.973C451.265 188.077 451.435 189.009 451.776 189.772C452.122 190.529 452.597 191.105 453.203 191.498C453.81 191.886 454.508 192.08 455.299 192.08C456.089 192.08 456.788 191.886 457.394 191.498C458 191.105 458.473 190.529 458.814 189.772C459.16 189.009 459.333 188.077 459.333 186.973ZM464.359 198.337V183.337H466.888V185.141H467.037C467.169 184.876 467.357 184.594 467.598 184.296C467.839 183.993 468.166 183.735 468.578 183.522C468.99 183.304 469.516 183.195 470.155 183.195C470.998 183.195 471.758 183.41 472.435 183.841C473.116 184.267 473.656 184.9 474.054 185.738C474.456 186.571 474.658 187.594 474.658 188.806C474.658 190.004 474.461 191.022 474.068 191.86C473.675 192.698 473.14 193.337 472.463 193.777C471.786 194.218 471.019 194.438 470.162 194.438C469.537 194.438 469.018 194.334 468.607 194.125C468.195 193.917 467.863 193.666 467.612 193.373C467.366 193.074 467.174 192.792 467.037 192.527H466.93V198.337H464.359ZM466.881 188.792C466.881 189.497 466.98 190.115 467.179 190.645C467.383 191.176 467.674 191.59 468.053 191.888C468.436 192.182 468.9 192.328 469.445 192.328C470.013 192.328 470.489 192.177 470.872 191.874C471.256 191.566 471.544 191.147 471.739 190.617C471.937 190.082 472.037 189.473 472.037 188.792C472.037 188.114 471.94 187.513 471.746 186.988C471.552 186.462 471.263 186.05 470.879 185.752C470.496 185.453 470.017 185.304 469.445 185.304C468.895 185.304 468.429 185.449 468.045 185.738C467.662 186.026 467.371 186.431 467.172 186.952C466.978 187.473 466.881 188.086 466.881 188.792ZM485.482 186.221L483.138 186.476C483.071 186.239 482.955 186.017 482.79 185.809C482.629 185.6 482.411 185.432 482.136 185.304C481.862 185.176 481.526 185.113 481.128 185.113C480.593 185.113 480.143 185.229 479.778 185.461C479.419 185.693 479.241 185.993 479.246 186.363C479.241 186.68 479.357 186.938 479.594 187.137C479.835 187.336 480.233 187.499 480.787 187.627L482.648 188.025C483.68 188.247 484.447 188.6 484.949 189.083C485.455 189.566 485.711 190.198 485.716 190.979C485.711 191.666 485.51 192.272 485.112 192.797C484.719 193.318 484.172 193.725 483.472 194.019C482.771 194.312 481.966 194.459 481.057 194.459C479.722 194.459 478.647 194.18 477.832 193.621C477.018 193.058 476.533 192.274 476.376 191.27L478.884 191.029C478.997 191.521 479.239 191.893 479.608 192.144C479.977 192.395 480.458 192.52 481.05 192.52C481.66 192.52 482.151 192.395 482.52 192.144C482.894 191.893 483.081 191.583 483.081 191.213C483.081 190.901 482.96 190.643 482.719 190.439C482.482 190.236 482.113 190.079 481.611 189.971L479.75 189.58C478.704 189.362 477.929 188.995 477.428 188.479C476.926 187.958 476.677 187.3 476.682 186.505C476.677 185.832 476.859 185.25 477.229 184.757C477.603 184.26 478.121 183.877 478.784 183.607C479.452 183.332 480.221 183.195 481.092 183.195C482.371 183.195 483.377 183.467 484.111 184.012C484.849 184.556 485.306 185.292 485.482 186.221Z" fill="#2563EB"/>
<rect x="534.323" y="70.7461" width="105.663" height="233" rx="11.5" fill="white"/>
<rect x="534.323" y="70.7461" width="105.663" height="233" rx="11.5" stroke="#2563EB"/>
<path d="M545.518 194.246H540.589V179.701H545.618C547.062 179.701 548.302 179.992 549.339 180.574C550.381 181.152 551.181 181.983 551.74 183.067C552.298 184.151 552.578 185.449 552.578 186.959C552.578 188.474 552.296 189.776 551.733 190.865C551.174 191.954 550.367 192.79 549.311 193.373C548.26 193.955 546.995 194.246 545.518 194.246ZM543.224 191.966H545.39C546.404 191.966 547.249 191.782 547.926 191.412C548.603 191.038 549.112 190.482 549.453 189.743C549.794 189 549.964 188.072 549.964 186.959C549.964 185.846 549.794 184.923 549.453 184.189C549.112 183.451 548.608 182.899 547.94 182.534C547.277 182.165 546.453 181.98 545.468 181.98H543.224V191.966ZM554.968 194.246V183.337H557.539V194.246H554.968ZM556.26 181.789C555.853 181.789 555.503 181.654 555.209 181.384C554.916 181.109 554.769 180.78 554.769 180.397C554.769 180.008 554.916 179.679 555.209 179.409C555.503 179.135 555.853 178.998 556.26 178.998C556.672 178.998 557.023 179.135 557.312 179.409C557.605 179.679 557.752 180.008 557.752 180.397C557.752 180.78 557.605 181.109 557.312 181.384C557.023 181.654 556.672 181.789 556.26 181.789ZM568.805 186.221L566.461 186.476C566.395 186.239 566.279 186.017 566.113 185.809C565.952 185.6 565.734 185.432 565.46 185.304C565.185 185.176 564.849 185.113 564.451 185.113C563.916 185.113 563.466 185.229 563.102 185.461C562.742 185.693 562.564 185.993 562.569 186.363C562.564 186.68 562.68 186.938 562.917 187.137C563.158 187.336 563.556 187.499 564.11 187.627L565.971 188.025C567.003 188.247 567.77 188.6 568.272 189.083C568.779 189.566 569.034 190.198 569.039 190.979C569.034 191.666 568.833 192.272 568.435 192.797C568.042 193.318 567.496 193.725 566.795 194.019C566.094 194.312 565.289 194.459 564.38 194.459C563.045 194.459 561.97 194.18 561.156 193.621C560.341 193.058 559.856 192.274 559.7 191.27L562.207 191.029C562.32 191.521 562.562 191.893 562.931 192.144C563.3 192.395 563.781 192.52 564.373 192.52C564.984 192.52 565.474 192.395 565.843 192.144C566.217 191.893 566.404 191.583 566.404 191.213C566.404 190.901 566.283 190.643 566.042 190.439C565.805 190.236 565.436 190.079 564.934 189.971L563.073 189.58C562.027 189.362 561.253 188.995 560.751 188.479C560.249 187.958 560 187.3 560.005 186.505C560 185.832 560.183 185.25 560.552 184.757C560.926 184.26 561.444 183.877 562.107 183.607C562.775 183.332 563.544 183.195 564.416 183.195C565.694 183.195 566.7 183.467 567.434 184.012C568.173 184.556 568.63 185.292 568.805 186.221ZM576.607 183.337V185.326H570.335V183.337H576.607ZM571.884 180.723H574.455V190.965C574.455 191.31 574.507 191.576 574.611 191.76C574.72 191.94 574.862 192.063 575.037 192.13C575.212 192.196 575.406 192.229 575.619 192.229C575.78 192.229 575.927 192.217 576.06 192.194C576.197 192.17 576.301 192.149 576.372 192.13L576.805 194.14C576.668 194.187 576.472 194.239 576.216 194.296C575.965 194.353 575.657 194.386 575.293 194.395C574.649 194.414 574.069 194.317 573.553 194.104C573.037 193.886 572.627 193.55 572.324 193.096C572.026 192.641 571.879 192.073 571.884 191.391V180.723ZM578.757 194.246V183.337H581.25V185.155H581.363C581.562 184.525 581.903 184.04 582.386 183.699C582.874 183.354 583.43 183.181 584.055 183.181C584.197 183.181 584.356 183.188 584.531 183.202C584.711 183.212 584.86 183.228 584.978 183.252V185.617C584.87 185.579 584.697 185.546 584.46 185.517C584.228 185.484 584.003 185.468 583.785 185.468C583.316 185.468 582.895 185.569 582.521 185.773C582.152 185.972 581.861 186.249 581.647 186.604C581.434 186.959 581.328 187.369 581.328 187.833V194.246H578.757ZM586.687 194.246V183.337H589.258V194.246H586.687ZM587.979 181.789C587.572 181.789 587.222 181.654 586.928 181.384C586.634 181.109 586.488 180.78 586.488 180.397C586.488 180.008 586.634 179.679 586.928 179.409C587.222 179.135 587.572 178.998 587.979 178.998C588.391 178.998 588.741 179.135 589.03 179.409C589.324 179.679 589.471 180.008 589.471 180.397C589.471 180.78 589.324 181.109 589.03 181.384C588.741 181.654 588.391 181.789 587.979 181.789ZM592.015 194.246V179.701H594.586V185.141H594.693C594.825 184.876 595.012 184.594 595.254 184.296C595.495 183.993 595.822 183.735 596.234 183.522C596.646 183.304 597.171 183.195 597.81 183.195C598.653 183.195 599.413 183.41 600.09 183.841C600.772 184.267 601.312 184.9 601.71 185.738C602.112 186.571 602.313 187.594 602.313 188.806C602.313 190.004 602.117 191.022 601.724 191.86C601.331 192.698 600.796 193.337 600.119 193.777C599.442 194.218 598.675 194.438 597.818 194.438C597.193 194.438 596.674 194.334 596.262 194.125C595.85 193.917 595.519 193.666 595.268 193.373C595.022 193.074 594.83 192.792 594.693 192.527H594.543V194.246H592.015ZM594.536 188.792C594.536 189.497 594.636 190.115 594.835 190.645C595.038 191.176 595.329 191.59 595.708 191.888C596.092 192.182 596.556 192.328 597.1 192.328C597.668 192.328 598.144 192.177 598.528 191.874C598.911 191.566 599.2 191.147 599.394 190.617C599.593 190.082 599.693 189.473 599.693 188.792C599.693 188.114 599.595 187.513 599.401 186.988C599.207 186.462 598.918 186.05 598.535 185.752C598.151 185.453 597.673 185.304 597.1 185.304C596.551 185.304 596.085 185.449 595.701 185.738C595.318 186.026 595.026 186.431 594.827 186.952C594.633 187.473 594.536 188.086 594.536 188.792ZM611.452 189.658V183.337H614.023V194.246H611.53V192.307H611.417C611.17 192.918 610.766 193.417 610.202 193.806C609.643 194.194 608.954 194.388 608.135 194.388C607.42 194.388 606.788 194.23 606.239 193.912C605.695 193.59 605.268 193.124 604.961 192.513C604.653 191.898 604.499 191.154 604.499 190.283V183.337H607.07V189.885C607.07 190.577 607.259 191.126 607.638 191.533C608.017 191.94 608.514 192.144 609.13 192.144C609.508 192.144 609.875 192.051 610.231 191.867C610.586 191.682 610.877 191.408 611.104 191.043C611.336 190.674 611.452 190.212 611.452 189.658ZM622.114 183.337V185.326H615.843V183.337H622.114ZM617.391 180.723H619.962V190.965C619.962 191.31 620.015 191.576 620.119 191.76C620.228 191.94 620.37 192.063 620.545 192.13C620.72 192.196 620.914 192.229 621.127 192.229C621.288 192.229 621.435 192.217 621.568 192.194C621.705 192.17 621.809 192.149 621.88 192.13L622.313 194.14C622.176 194.187 621.979 194.239 621.724 194.296C621.473 194.353 621.165 194.386 620.8 194.395C620.157 194.414 619.577 194.317 619.06 194.104C618.544 193.886 618.135 193.55 617.832 193.096C617.533 192.641 617.387 192.073 617.391 191.391V180.723ZM628.977 194.459C627.883 194.459 626.939 194.232 626.143 193.777C625.352 193.318 624.744 192.669 624.318 191.831C623.892 190.989 623.679 189.997 623.679 188.855C623.679 187.733 623.892 186.748 624.318 185.901C624.749 185.049 625.35 184.386 626.122 183.912C626.894 183.434 627.8 183.195 628.842 183.195C629.514 183.195 630.149 183.304 630.745 183.522C631.347 183.735 631.877 184.066 632.336 184.516C632.8 184.966 633.165 185.539 633.43 186.235C633.695 186.926 633.828 187.75 633.828 188.706V189.495H624.886V187.762H631.363C631.359 187.269 631.252 186.831 631.044 186.448C630.835 186.06 630.544 185.754 630.17 185.532C629.801 185.309 629.37 185.198 628.878 185.198C628.352 185.198 627.89 185.326 627.493 185.581C627.095 185.832 626.785 186.164 626.562 186.576C626.344 186.983 626.233 187.43 626.228 187.918V189.431C626.228 190.065 626.344 190.61 626.576 191.064C626.808 191.514 627.133 191.86 627.549 192.101C627.966 192.338 628.454 192.456 629.012 192.456C629.387 192.456 629.725 192.404 630.028 192.3C630.331 192.191 630.594 192.033 630.816 191.824C631.039 191.616 631.207 191.358 631.321 191.05L633.721 191.32C633.57 191.954 633.281 192.508 632.855 192.982C632.433 193.451 631.894 193.815 631.236 194.076C630.577 194.331 629.825 194.459 628.977 194.459Z" fill="#2563EB"/>
<rect width="48.9988" height="12.2497" transform="translate(423.991 356.117)" fill="#FAFAFA"/>
<path d="M445.992 364.972C445.082 366.421 443.47 367.384 441.633 367.384C438.793 367.384 436.49 365.082 436.49 362.242C436.49 359.401 438.793 357.099 441.633 357.099C442.677 357.099 444.058 357.627 444.691 358.187C445.314 358.739 451.594 365.709 451.806 365.944C451.813 365.951 451.815 365.953 451.822 365.96L452.076 366.211C452.965 366.944 454.105 367.384 455.347 367.384C458.187 367.384 460.49 365.082 460.49 362.242C460.49 359.401 458.187 357.099 455.347 357.099C453.734 357.099 452.294 357.842 451.351 359.004" stroke="#71717A" stroke-width="2" stroke-linecap="round"/>
<path d="M774.531 187.457H672.483" stroke="#D97706" stroke-width="2" stroke-dasharray="4 4"/>
<path d="M672.483 165.581H707.909C716.315 165.581 723.824 160.325 726.701 152.427L747.556 95.1834C750.433 87.2855 757.942 82.0295 766.348 82.0295L774.531 82.0295" stroke="#D97706" stroke-width="2" stroke-dasharray="4 4"/>
<path d="M672.483 209.332H707.909C716.315 209.332 723.824 214.588 726.701 222.486L747.556 279.73C750.433 287.628 757.942 292.884 766.348 292.884L774.531 292.884" stroke="#D97706" stroke-width="2" stroke-dasharray="4 4"/>
<rect x="774.493" y="45.2031" width="123.007" height="83.9979" rx="8" fill="#DBEAFE"/>
<path fill-rule="evenodd" clip-rule="evenodd" d="M825.523 83.275C825.523 83.8657 825.587 84.3446 825.699 84.6958C825.827 85.0471 825.986 85.4302 826.21 85.8453C826.29 85.973 826.322 86.1007 826.322 86.2125C826.322 86.3721 826.226 86.5317 826.018 86.6914L825.013 87.3619C824.869 87.4577 824.725 87.5056 824.597 87.5056C824.438 87.5056 824.278 87.4257 824.119 87.2821C823.895 87.0426 823.703 86.7872 823.544 86.5317C823.384 86.2604 823.225 85.957 823.049 85.5899C821.804 87.0586 820.239 87.7929 818.355 87.7929C817.014 87.7929 815.945 87.4098 815.163 86.6435C814.38 85.8772 813.981 84.8555 813.981 83.5783C813.981 82.2214 814.46 81.1198 815.434 80.2897C816.408 79.4596 817.701 79.0445 819.345 79.0445C819.888 79.0445 820.447 79.0924 821.037 79.1722C821.628 79.252 822.235 79.3797 822.873 79.5234V78.358C822.873 77.1447 822.618 76.2986 822.123 75.8037C821.612 75.3088 820.75 75.0694 819.521 75.0694C818.962 75.0694 818.387 75.1332 817.797 75.2769C817.206 75.4206 816.631 75.5962 816.073 75.8197C815.817 75.9315 815.626 75.9953 815.514 76.0272C815.402 76.0592 815.322 76.0751 815.258 76.0751C815.035 76.0751 814.923 75.9155 814.923 75.5802V74.798C814.923 74.5426 814.955 74.351 815.035 74.2392C815.115 74.1275 815.258 74.0157 815.482 73.904C816.041 73.6166 816.711 73.3772 817.493 73.1856C818.276 72.9781 819.106 72.8823 819.984 72.8823C821.884 72.8823 823.272 73.3133 824.166 74.1754C825.044 75.0375 825.491 76.3465 825.491 78.1026V83.275H825.523ZM819.042 85.7016C819.569 85.7016 820.111 85.6058 820.686 85.4142C821.261 85.2227 821.772 84.8715 822.203 84.3925C822.458 84.0892 822.65 83.754 822.746 83.3708C822.841 82.9877 822.905 82.5247 822.905 81.9819V81.3114C822.442 81.1997 821.947 81.1039 821.437 81.04C820.926 80.9762 820.431 80.9442 819.936 80.9442C818.866 80.9442 818.084 81.1518 817.557 81.5828C817.03 82.0138 816.775 82.6205 816.775 83.4187C816.775 84.169 816.967 84.7278 817.366 85.1109C817.749 85.51 818.308 85.7016 819.042 85.7016ZM831.861 87.4257C831.574 87.4257 831.382 87.3779 831.255 87.2661C831.127 87.1703 831.015 86.9468 830.919 86.6435L827.168 74.3031C827.072 73.9838 827.024 73.7763 827.024 73.6645C827.024 73.4091 827.152 73.2654 827.407 73.2654H828.972C829.275 73.2654 829.483 73.3133 829.594 73.4251C829.722 73.5208 829.818 73.7443 829.914 74.0477L832.596 84.616L835.086 74.0477C835.166 73.7284 835.262 73.5208 835.389 73.4251C835.517 73.3293 835.741 73.2654 836.028 73.2654H837.305C837.608 73.2654 837.816 73.3133 837.944 73.4251C838.071 73.5208 838.183 73.7443 838.247 74.0477L840.769 84.7437L843.531 74.0477C843.627 73.7284 843.739 73.5208 843.85 73.4251C843.978 73.3293 844.186 73.2654 844.473 73.2654H845.958C846.213 73.2654 846.357 73.3931 846.357 73.6645C846.357 73.7327 846.345 73.8009 846.332 73.879L846.332 73.879L846.325 73.9199C846.309 74.0157 846.277 74.1434 846.213 74.3191L842.366 86.6595C842.27 86.9787 842.158 87.1863 842.03 87.2821C841.903 87.3779 841.695 87.4417 841.424 87.4417H840.051C839.748 87.4417 839.54 87.3938 839.412 87.2821C839.285 87.1703 839.173 86.9628 839.109 86.6435L836.635 76.3465L834.176 86.6275C834.096 86.9468 834 87.1544 833.873 87.2661C833.745 87.3779 833.521 87.4257 833.234 87.4257H831.861ZM852.375 87.8568C851.545 87.8568 850.715 87.761 849.917 87.5694C849.119 87.3779 848.496 87.1703 848.081 86.9309C847.826 86.7872 847.65 86.6275 847.586 86.4839C847.522 86.3402 847.49 86.1805 847.49 86.0368V85.2227C847.49 84.8874 847.618 84.7278 847.857 84.7278C847.953 84.7278 848.049 84.7437 848.145 84.7757C848.207 84.7963 848.288 84.8302 848.382 84.8689L848.382 84.8689C848.433 84.8901 848.487 84.9127 848.544 84.9353C849.087 85.1748 849.677 85.3664 850.3 85.4941C850.939 85.6218 851.561 85.6856 852.2 85.6856C853.205 85.6856 853.988 85.51 854.531 85.1588C855.073 84.8076 855.361 84.2967 855.361 83.6422C855.361 83.1952 855.217 82.828 854.93 82.5247C854.642 82.2214 854.099 81.95 853.317 81.6946L851.002 80.9762C849.837 80.609 848.975 80.0662 848.448 79.3478C847.921 78.6454 847.65 77.8631 847.65 77.033C847.65 76.3625 847.794 75.7718 848.081 75.261C848.368 74.7501 848.751 74.3031 849.23 73.9519C849.709 73.5847 850.252 73.3133 850.891 73.1217C851.529 72.9302 852.2 72.8503 852.902 72.8503C853.253 72.8503 853.621 72.8663 853.972 72.9142C854.339 72.9621 854.674 73.0259 855.009 73.0898C855.329 73.1696 855.632 73.2494 855.919 73.3452C856.207 73.441 856.43 73.5368 856.59 73.6326C856.813 73.7603 856.973 73.888 857.069 74.0317C857.165 74.1594 857.213 74.335 857.213 74.5585V75.3088C857.213 75.6441 857.085 75.8197 856.845 75.8197C856.718 75.8197 856.51 75.7558 856.239 75.6281C855.329 75.2131 854.307 75.0055 853.174 75.0055C852.264 75.0055 851.545 75.1492 851.05 75.4525C850.555 75.7558 850.3 76.2188 850.3 76.8733C850.3 77.3203 850.46 77.7035 850.779 78.0068C851.098 78.3101 851.689 78.6135 852.535 78.8848L854.802 79.6032C855.951 79.9704 856.781 80.4813 857.276 81.1358C857.771 81.7903 858.011 82.5407 858.011 83.3708C858.011 84.0573 857.867 84.6799 857.596 85.2227C857.308 85.7655 856.925 86.2444 856.43 86.6275C855.935 87.0266 855.345 87.314 854.658 87.5215C853.94 87.745 853.19 87.8568 852.375 87.8568ZM855.392 95.6152C850.14 99.4945 842.509 101.554 835.948 101.554C826.752 101.554 818.467 98.1535 812.209 92.5021C811.714 92.0551 812.161 91.4485 812.752 91.7997C819.521 95.7269 827.87 98.1056 836.507 98.1056C842.334 98.1056 848.735 96.8923 854.626 94.4019C855.504 94.0028 856.254 94.9766 855.392 95.6152ZM851.433 92.9173C853.141 92.7097 856.909 92.2627 857.579 93.1248C858.25 93.9709 856.829 97.5309 856.191 99.1114C855.999 99.5903 856.414 99.7819 856.845 99.4147C859.655 97.052 860.389 92.119 859.814 91.4006C859.24 90.6982 854.307 90.0916 851.305 92.1989C850.842 92.5341 850.922 92.9811 851.433 92.9173Z" fill="#2563EB"/>
<rect x="774.493" y="145.457" width="123.007" height="83.9979" rx="8" fill="#DBEAFE"/>
<path fill-rule="evenodd" clip-rule="evenodd" d="M835.996 211.456C849.251 211.456 859.996 200.711 859.996 187.456C859.996 174.201 849.251 163.456 835.996 163.456C822.745 163.456 812.003 174.195 811.996 187.444H821.128C821.135 179.238 827.789 172.588 835.996 172.588C844.208 172.588 850.865 179.244 850.865 187.456C850.865 195.667 844.208 202.324 835.996 202.324L835.967 202.324V211.456L835.996 211.456ZM835.967 192.864H826.686V202.145H835.967V192.864ZM826.686 202.175H819.555V196.211H813.591V202.175H819.554V209.307H826.686V202.175Z" fill="#2563EB"/>
<rect x="774.493" y="250.885" width="123.007" height="83.9979" rx="8" fill="#DBEAFE"/>
<g clip-path="url(#clip0_3867_30849)">
<path fill-rule="evenodd" clip-rule="evenodd" d="M836.43 269.492C836.156 269.36 835.837 269.36 835.563 269.492L817.085 278.39C816.811 278.522 816.612 278.772 816.544 279.069L811.981 299.063C811.913 299.36 811.984 299.671 812.174 299.909L824.961 315.943C825.15 316.181 825.438 316.32 825.742 316.32H846.251C846.555 316.32 846.843 316.181 847.033 315.943L859.819 299.909C860.009 299.671 860.08 299.36 860.012 299.063L855.449 279.069C855.381 278.772 855.182 278.522 854.908 278.39L836.43 269.492ZM835.282 277.478C835.465 277.274 835.722 277.151 835.996 277.136L835.999 277.129C836.273 277.144 836.53 277.268 836.714 277.472C836.897 277.676 836.993 277.944 836.979 278.219V278.497C836.952 278.811 836.907 279.122 836.844 279.43C836.749 280.018 836.712 280.614 836.733 281.21C836.771 281.409 836.886 281.585 837.053 281.7C837.054 281.715 837.056 281.737 837.058 281.765C837.065 281.865 837.077 282.033 837.077 282.136C840.179 282.417 843.072 283.816 845.221 286.07L845.593 285.805C845.794 285.839 846 285.816 846.188 285.739C846.667 285.384 847.11 284.984 847.511 284.543C847.715 284.302 847.933 284.073 848.164 283.857C848.225 283.805 848.314 283.735 848.382 283.683C848.479 283.58 848.597 283.499 848.727 283.445C848.858 283.392 848.999 283.367 849.14 283.372C849.281 283.378 849.419 283.414 849.546 283.478C849.672 283.541 849.783 283.631 849.871 283.741C849.959 283.852 850.023 283.98 850.058 284.117C850.092 284.254 850.097 284.396 850.072 284.535C850.047 284.674 849.992 284.806 849.911 284.922C849.83 285.038 849.726 285.136 849.604 285.208C849.585 285.223 849.564 285.241 849.542 285.259C849.488 285.302 849.431 285.349 849.386 285.382C849.124 285.556 848.852 285.714 848.572 285.857C848.053 286.151 847.564 286.494 847.112 286.883C846.98 287.037 846.913 287.236 846.927 287.439L846.578 287.75C848.318 290.344 849.045 293.486 848.622 296.58L849.018 296.696C849.115 296.878 849.262 297.029 849.441 297.131C850.016 297.285 850.605 297.382 851.199 297.421C851.514 297.428 851.828 297.454 852.14 297.497C852.193 297.507 852.261 297.524 852.324 297.54C852.36 297.549 852.395 297.558 852.426 297.565C852.561 297.583 852.691 297.63 852.807 297.701C852.924 297.773 853.024 297.868 853.102 297.98C853.18 298.092 853.233 298.22 853.259 298.354C853.285 298.488 853.283 298.626 853.252 298.759C853.222 298.892 853.164 299.018 853.083 299.128C853.001 299.237 852.898 299.329 852.779 299.396C852.66 299.464 852.529 299.506 852.393 299.52C852.257 299.534 852.12 299.52 851.99 299.478H851.955C851.928 299.472 851.899 299.466 851.87 299.46C851.811 299.448 851.75 299.436 851.702 299.423C851.406 299.327 851.115 299.213 850.831 299.083C850.278 298.86 849.706 298.692 849.121 298.58C848.918 298.573 848.721 298.646 848.572 298.783C848.502 298.767 848.28 298.728 848.153 298.709C847.202 301.695 845.186 304.228 842.489 305.824C842.535 305.96 842.589 306.092 842.652 306.221C842.551 306.396 842.524 306.604 842.576 306.8C842.815 307.346 843.107 307.868 843.447 308.358C843.638 308.608 843.814 308.869 843.975 309.14C844.008 309.201 844.051 309.292 844.085 309.366C844.092 309.379 844.098 309.392 844.103 309.404C844.172 309.521 844.216 309.652 844.232 309.788C844.248 309.924 844.235 310.062 844.195 310.192C844.154 310.323 844.087 310.443 843.998 310.547C843.908 310.65 843.798 310.734 843.675 310.792C843.551 310.85 843.417 310.882 843.28 310.886C843.144 310.89 843.008 310.865 842.881 310.813C842.755 310.762 842.64 310.684 842.545 310.586C842.45 310.488 842.377 310.371 842.33 310.242C842.317 310.217 842.303 310.188 842.288 310.158C842.26 310.1 842.229 310.039 842.208 309.992C842.095 309.698 842 309.397 841.922 309.092C841.752 308.522 841.527 307.969 841.249 307.443C841.128 307.279 840.949 307.17 840.748 307.138C840.719 307.099 840.648 306.972 840.588 306.864C840.567 306.826 840.547 306.79 840.53 306.761C837.612 307.866 834.388 307.857 831.476 306.737L831.258 307.14C831.098 307.169 830.952 307.247 830.837 307.362C830.503 307.911 830.247 308.505 830.077 309.125C830 309.43 829.905 309.73 829.794 310.025C829.772 310.074 829.742 310.135 829.713 310.193C829.698 310.222 829.684 310.25 829.672 310.275C829.625 310.404 829.552 310.522 829.457 310.621C829.362 310.719 829.247 310.797 829.12 310.849C828.993 310.901 828.857 310.926 828.72 310.923C828.583 310.919 828.448 310.887 828.324 310.828C828.2 310.769 828.09 310.685 828 310.581C827.911 310.477 827.844 310.356 827.804 310.225C827.764 310.093 827.752 309.955 827.769 309.819C827.786 309.683 827.83 309.552 827.901 309.434C827.914 309.407 827.929 309.374 827.945 309.34C827.972 309.281 828.002 309.218 828.027 309.17C828.188 308.899 828.364 308.637 828.554 308.386C828.901 307.883 829.198 307.349 829.443 306.789C829.469 306.6 829.439 306.406 829.356 306.234L829.535 305.798C826.847 304.214 824.832 301.701 823.87 298.733L823.434 298.807C823.268 298.689 823.073 298.621 822.87 298.608C822.285 298.72 821.712 298.889 821.16 299.112C820.876 299.241 820.585 299.353 820.288 299.449C820.237 299.464 820.167 299.479 820.101 299.492C820.079 299.497 820.057 299.502 820.036 299.506H820.001C819.871 299.548 819.733 299.562 819.598 299.548C819.462 299.534 819.33 299.492 819.211 299.425C819.093 299.357 818.989 299.266 818.908 299.156C818.826 299.046 818.769 298.921 818.738 298.788C818.708 298.654 818.706 298.516 818.732 298.382C818.757 298.248 818.811 298.121 818.889 298.008C818.967 297.896 819.067 297.801 819.183 297.73C819.3 297.658 819.43 297.612 819.565 297.593H819.58L819.594 297.59C819.673 297.571 819.772 297.547 819.842 297.532C820.154 297.489 820.468 297.463 820.783 297.456C821.377 297.417 821.966 297.32 822.541 297.166C822.712 297.054 822.856 296.905 822.962 296.73L823.373 296.611C822.927 293.514 823.64 290.362 825.376 287.759L825.062 287.478C825.051 287.274 824.983 287.078 824.866 286.911C824.414 286.523 823.925 286.179 823.406 285.885C823.126 285.743 822.855 285.584 822.593 285.41C822.556 285.383 822.511 285.345 822.466 285.308C822.44 285.287 822.415 285.266 822.391 285.247H822.376C822.152 285.087 822.001 284.845 821.956 284.573C821.911 284.302 821.975 284.024 822.134 283.8C822.228 283.685 822.348 283.594 822.483 283.534C822.619 283.473 822.767 283.446 822.916 283.454C823.166 283.464 823.405 283.554 823.6 283.711C823.608 283.717 823.617 283.724 823.626 283.731C823.689 283.78 823.766 283.839 823.818 283.885C824.049 284.101 824.267 284.33 824.471 284.571C824.872 285.012 825.315 285.413 825.794 285.768C825.974 285.862 826.183 285.882 826.378 285.824C826.41 285.843 826.485 285.897 826.563 285.954C826.623 285.998 826.686 286.043 826.733 286.075C828.457 284.242 830.69 282.967 833.145 282.412C833.729 282.28 834.321 282.189 834.918 282.14L834.942 281.724C835.094 281.589 835.205 281.412 835.26 281.216C835.282 280.621 835.245 280.025 835.151 279.436C835.088 279.128 835.043 278.817 835.016 278.504V278.253V278.225C835.002 277.951 835.098 277.682 835.282 277.478ZM834.476 289.892L834.768 284.746C834.418 284.788 834.072 284.849 833.728 284.927C831.891 285.34 830.205 286.258 828.861 287.578L833.081 290.545C833.208 290.635 833.356 290.689 833.51 290.702C833.664 290.715 833.819 290.687 833.959 290.62C834.099 290.554 834.218 290.451 834.305 290.323C834.392 290.195 834.444 290.046 834.454 289.892H834.476ZM843.11 287.578C841.513 286.014 839.446 285.019 837.227 284.746L837.526 289.898C837.536 290.053 837.587 290.202 837.674 290.331C837.761 290.459 837.881 290.562 838.021 290.629C838.161 290.695 838.317 290.723 838.471 290.71C838.626 290.696 838.774 290.642 838.901 290.552H838.916L843.11 287.578ZM831.177 292.946L827.323 289.5V289.502C826.151 291.416 825.65 293.666 825.898 295.896L830.837 294.471V294.454C830.987 294.411 831.122 294.328 831.229 294.215C831.336 294.102 831.41 293.963 831.445 293.811C831.48 293.659 831.473 293.501 831.426 293.353C831.379 293.205 831.293 293.072 831.177 292.968V292.946ZM846.118 295.876C846.333 293.647 845.814 291.408 844.641 289.5L844.648 289.519L840.816 292.948C840.7 293.052 840.614 293.185 840.567 293.333C840.52 293.482 840.513 293.64 840.548 293.791C840.583 293.943 840.657 294.083 840.764 294.196C840.871 294.309 841.006 294.391 841.155 294.434V294.456L846.118 295.876ZM836.785 293.203H835.206L834.221 294.428L834.574 295.953L835.994 296.637L837.413 295.955L837.765 294.43L836.785 293.203ZM840.465 297.417C840.4 297.404 840.333 297.399 840.267 297.401V297.417C840.128 297.425 839.993 297.467 839.873 297.538C839.753 297.609 839.652 297.708 839.579 297.826C839.505 297.944 839.461 298.078 839.45 298.217C839.439 298.356 839.461 298.495 839.515 298.624L841.497 303.417C843.387 302.207 844.821 300.402 845.574 298.288L840.465 297.417ZM832.088 297.534C831.965 297.465 831.826 297.427 831.685 297.423L831.678 297.412C831.621 297.412 831.564 297.417 831.508 297.428L826.443 298.288C827.204 300.392 828.637 302.185 830.522 303.391L832.482 298.648L832.467 298.628C832.521 298.497 832.543 298.356 832.53 298.215C832.517 298.074 832.47 297.938 832.393 297.82C832.316 297.701 832.211 297.603 832.088 297.534ZM836.425 299.617C836.285 299.537 836.125 299.497 835.964 299.502V299.51C835.812 299.516 835.665 299.561 835.536 299.642C835.407 299.722 835.302 299.834 835.23 299.968L832.739 304.471C834.522 305.078 836.439 305.177 838.275 304.757C838.612 304.68 838.945 304.587 839.273 304.478L836.776 299.957H836.757C836.68 299.815 836.565 299.697 836.425 299.617Z" fill="#2563EB"/>
</g>
<path d="M122.486 100.765H127.488C135.092 100.765 142.038 105.078 145.412 111.892L165.911 153.302C169.285 160.117 176.231 164.429 183.835 164.429H224.5" stroke="#D97706" stroke-width="2" stroke-dasharray="4 4"/>
<path d="M122.486 288.947H126.362C134.541 288.947 141.895 283.968 144.932 276.374L166.391 222.721C169.428 215.127 176.783 210.148 184.961 210.148H224.5" stroke="#D97706" stroke-width="2" stroke-dasharray="4 4"/>
<rect x="0.500732" y="45.2029" width="123.007" height="116" rx="8" fill="#DBEAFE"/>
<path fill-rule="evenodd" clip-rule="evenodd" d="M54.1803 71.3679C54.1803 67.1341 57.6125 63.7019 61.8463 63.7019C66.0801 63.7019 69.5123 67.1341 69.5123 71.3679C69.5123 75.6017 66.0801 79.0339 61.8463 79.0339C57.6125 79.0339 54.1803 75.6017 54.1803 71.3679ZM61.8463 61.7019C56.5079 61.7019 52.1803 66.0295 52.1803 71.3679C52.1803 75.0545 54.2441 78.259 57.2795 79.8892C54.7251 80.8854 52.577 82.6925 51.1515 84.9926H39.4641C38.9118 84.9926 38.4641 85.4403 38.4641 85.9926V107.704C38.4641 108.256 38.9118 108.704 39.4641 108.704H84.5125C85.0647 108.704 85.5125 108.256 85.5125 107.704V85.9926C85.5125 85.4403 85.0647 84.9926 84.5125 84.9926H72.5402C71.1148 82.6927 68.9669 80.8857 66.4128 79.8894C69.4483 78.2593 71.5123 75.0546 71.5123 71.3679C71.5123 66.0295 67.1847 61.7019 61.8463 61.7019ZM70.0949 84.9926H53.5968C55.5355 82.5778 58.5109 81.0342 61.8458 81.0342C65.1808 81.0342 68.1561 82.5779 70.0949 84.9926ZM40.4641 86.9926V106.704H83.5125V86.9926H40.4641ZM64.9887 91.5684C65.1775 91.0493 64.9097 90.4756 64.3907 90.2868C63.8717 90.0981 63.2979 90.3658 63.1092 90.8849L59.0207 102.128C58.832 102.647 59.0998 103.221 59.6188 103.41C60.1378 103.598 60.7116 103.331 60.9003 102.811L64.9887 91.5684ZM57.5512 94.4279C57.9418 94.0374 57.9418 93.4042 57.5512 93.0137C57.1607 92.6232 56.5275 92.6232 56.137 93.0137L53.0093 96.1415C52.8217 96.329 52.7164 96.5833 52.7164 96.8486C52.7164 97.1138 52.8217 97.3681 53.0093 97.5557L56.137 100.683C56.5275 101.074 57.1607 101.074 57.5512 100.683C57.9418 100.293 57.9418 99.6597 57.5512 99.2692L55.1306 96.8486L57.5512 94.4279ZM66.458 93.0137C66.8485 92.6232 67.4817 92.6232 67.8722 93.0137L71 96.1415C71.3905 96.532 71.3905 97.1651 71 97.5557L67.8722 100.683C67.4817 101.074 66.8485 101.074 66.458 100.683C66.0675 100.293 66.0675 99.6597 66.458 99.2692L68.8786 96.8486L66.458 94.4279C66.0675 94.0374 66.0675 93.4042 66.458 93.0137Z" fill="#2563EB"/>
<path d="M28.0681 140.203H24.6178V130.021H28.1377C29.1486 130.021 30.0169 130.225 30.7428 130.633C31.472 131.037 32.0321 131.619 32.4232 132.378C32.8143 133.137 33.0098 134.045 33.0098 135.102C33.0098 136.163 32.8126 137.074 32.4182 137.836C32.0271 138.599 31.462 139.184 30.7229 139.591C29.9871 139.999 29.1022 140.203 28.0681 140.203ZM26.4622 138.607H27.9786C28.6879 138.607 29.2795 138.478 29.7534 138.219C30.2274 137.957 30.5837 137.568 30.8223 137.051C31.061 136.531 31.1803 135.881 31.1803 135.102C31.1803 134.323 31.061 133.677 30.8223 133.163C30.5837 132.646 30.2307 132.26 29.7634 132.005C29.2994 131.746 28.7227 131.617 28.0333 131.617H26.4622V138.607ZM38.0635 140.352C37.2978 140.352 36.6366 140.193 36.0798 139.875C35.5263 139.553 35.1004 139.099 34.8021 138.513C34.5038 137.923 34.3546 137.228 34.3546 136.429C34.3546 135.644 34.5038 134.955 34.8021 134.361C35.1037 133.765 35.5246 133.301 36.0649 132.969C36.6051 132.634 37.2398 132.467 37.969 132.467C38.4396 132.467 38.8838 132.543 39.3014 132.696C39.7223 132.845 40.0935 133.077 40.415 133.392C40.7398 133.707 40.995 134.108 41.1806 134.595C41.3662 135.079 41.4591 135.656 41.4591 136.325V136.877H35.1998V135.664H39.7339C39.7306 135.319 39.656 135.013 39.5102 134.744C39.3644 134.472 39.1605 134.259 38.8987 134.103C38.6402 133.947 38.3385 133.869 37.9939 133.869C37.626 133.869 37.3028 133.959 37.0244 134.138C36.746 134.313 36.5289 134.545 36.3731 134.834C36.2207 135.119 36.1428 135.432 36.1394 135.773V136.832C36.1394 137.276 36.2207 137.657 36.3831 137.976C36.5455 138.29 36.7725 138.532 37.0642 138.701C37.3558 138.867 37.6972 138.95 38.0883 138.95C38.3501 138.95 38.5871 138.914 38.7993 138.841C39.0114 138.764 39.1953 138.653 39.3511 138.508C39.5069 138.362 39.6245 138.181 39.7041 137.966L41.3845 138.155C41.2784 138.599 41.0762 138.986 40.7779 139.318C40.483 139.646 40.1051 139.901 39.6444 140.084C39.1837 140.263 38.6567 140.352 38.0635 140.352ZM49.5839 132.567L46.8644 140.203H44.8758L42.1563 132.567H44.0754L45.8303 138.239H45.9099L47.6698 132.567H49.5839ZM53.9502 140.352C53.1845 140.352 52.5233 140.193 51.9665 139.875C51.413 139.553 50.9871 139.099 50.6888 138.513C50.3905 137.923 50.2414 137.228 50.2414 136.429C50.2414 135.644 50.3905 134.955 50.6888 134.361C50.9904 133.765 51.4113 133.301 51.9516 132.969C52.4918 132.634 53.1265 132.467 53.8557 132.467C54.3264 132.467 54.7705 132.543 55.1881 132.696C55.609 132.845 55.9802 133.077 56.3017 133.392C56.6265 133.707 56.8818 134.108 57.0674 134.595C57.253 135.079 57.3458 135.656 57.3458 136.325V136.877H51.0865V135.664H55.6206C55.6173 135.319 55.5427 135.013 55.3969 134.744C55.2511 134.472 55.0472 134.259 54.7854 134.103C54.5269 133.947 54.2253 133.869 53.8806 133.869C53.5127 133.869 53.1895 133.959 52.9111 134.138C52.6327 134.313 52.4156 134.545 52.2598 134.834C52.1074 135.119 52.0295 135.432 52.0262 135.773V136.832C52.0262 137.276 52.1074 137.657 52.2698 137.976C52.4322 138.29 52.6592 138.532 52.9509 138.701C53.2426 138.867 53.5839 138.95 53.975 138.95C54.2369 138.95 54.4738 138.914 54.686 138.841C54.8981 138.764 55.082 138.653 55.2378 138.508C55.3936 138.362 55.5113 138.181 55.5908 137.966L57.2712 138.155C57.1651 138.599 56.963 138.986 56.6647 139.318C56.3697 139.646 55.9918 139.901 55.5311 140.084C55.0704 140.263 54.5434 140.352 53.9502 140.352ZM60.668 130.021V140.203H58.8683V130.021H60.668ZM65.8497 140.352C65.1039 140.352 64.4576 140.188 63.9108 139.86C63.3639 139.532 62.9396 139.073 62.638 138.483C62.3397 137.893 62.1906 137.203 62.1906 136.415C62.1906 135.626 62.3397 134.935 62.638 134.341C62.9396 133.748 63.3639 133.287 63.9108 132.959C64.4576 132.631 65.1039 132.467 65.8497 132.467C66.5954 132.467 67.2417 132.631 67.7886 132.959C68.3355 133.287 68.7581 133.748 69.0564 134.341C69.358 134.935 69.5088 135.626 69.5088 136.415C69.5088 137.203 69.358 137.893 69.0564 138.483C68.7581 139.073 68.3355 139.532 67.7886 139.86C67.2417 140.188 66.5954 140.352 65.8497 140.352ZM65.8596 138.91C66.264 138.91 66.602 138.799 66.8738 138.577C67.1456 138.352 67.3478 138.05 67.4804 137.672C67.6162 137.295 67.6842 136.874 67.6842 136.41C67.6842 135.942 67.6162 135.52 67.4804 135.142C67.3478 134.761 67.1456 134.457 66.8738 134.232C66.602 134.007 66.264 133.894 65.8596 133.894C65.4453 133.894 65.1006 134.007 64.8255 134.232C64.5537 134.457 64.3499 134.761 64.214 135.142C64.0814 135.52 64.0152 135.942 64.0152 136.41C64.0152 136.874 64.0814 137.295 64.214 137.672C64.3499 138.05 64.5537 138.352 64.8255 138.577C65.1006 138.799 65.4453 138.91 65.8596 138.91ZM71.0363 143.067V132.567H72.8062V133.829H72.9106C73.0034 133.644 73.1343 133.446 73.3033 133.238C73.4724 133.026 73.7011 132.845 73.9894 132.696C74.2778 132.543 74.6457 132.467 75.0931 132.467C75.6831 132.467 76.215 132.618 76.689 132.919C77.1663 133.218 77.5441 133.66 77.8225 134.247C78.1042 134.83 78.2451 135.546 78.2451 136.395C78.2451 137.233 78.1075 137.946 77.8325 138.532C77.5574 139.119 77.1828 139.567 76.7089 139.875C76.2349 140.183 75.698 140.337 75.0981 140.337C74.6606 140.337 74.2977 140.264 74.0093 140.118C73.7209 139.973 73.4889 139.797 73.3133 139.591C73.1409 139.383 73.0067 139.185 72.9106 139H72.836V143.067H71.0363ZM72.8012 136.385C72.8012 136.879 72.8708 137.311 73.01 137.682C73.1525 138.053 73.3564 138.344 73.6215 138.552C73.89 138.758 74.2148 138.861 74.5959 138.861C74.9937 138.861 75.3268 138.754 75.5952 138.542C75.8637 138.327 76.0659 138.034 76.2018 137.662C76.341 137.288 76.4106 136.862 76.4106 136.385C76.4106 135.911 76.3426 135.49 76.2067 135.122C76.0709 134.754 75.8687 134.466 75.6002 134.257C75.3317 134.048 74.997 133.944 74.5959 133.944C74.2115 133.944 73.885 134.045 73.6165 134.247C73.3481 134.449 73.1442 134.732 73.005 135.097C72.8691 135.462 72.8012 135.891 72.8012 136.385ZM83.167 140.352C82.4013 140.352 81.7401 140.193 81.1833 139.875C80.6298 139.553 80.2039 139.099 79.9056 138.513C79.6073 137.923 79.4582 137.228 79.4582 136.429C79.4582 135.644 79.6073 134.955 79.9056 134.361C80.2072 133.765 80.6281 133.301 81.1684 132.969C81.7086 132.634 82.3433 132.467 83.0725 132.467C83.5432 132.467 83.9873 132.543 84.4049 132.696C84.8258 132.845 85.197 133.077 85.5185 133.392C85.8433 133.707 86.0986 134.108 86.2842 134.595C86.4698 135.079 86.5626 135.656 86.5626 136.325V136.877H80.3033V135.664H84.8374C84.8341 135.319 84.7595 135.013 84.6137 134.744C84.4679 134.472 84.264 134.259 84.0022 134.103C83.7437 133.947 83.4421 133.869 83.0974 133.869C82.7295 133.869 82.4063 133.959 82.1279 134.138C81.8495 134.313 81.6324 134.545 81.4766 134.834C81.3242 135.119 81.2463 135.432 81.243 135.773V136.832C81.243 137.276 81.3242 137.657 81.4866 137.976C81.649 138.29 81.876 138.532 82.1677 138.701C82.4593 138.867 82.8007 138.95 83.1918 138.95C83.4537 138.95 83.6906 138.914 83.9028 138.841C84.1149 138.764 84.2988 138.653 84.4546 138.508C84.6104 138.362 84.728 138.181 84.8076 137.966L86.488 138.155C86.3819 138.599 86.1798 138.986 85.8815 139.318C85.5865 139.646 85.2086 139.901 84.7479 140.084C84.2872 140.263 83.7602 140.352 83.167 140.352ZM88.0851 140.203V132.567H89.8301V133.839H89.9097C90.0489 133.398 90.2875 133.059 90.6256 132.82C90.967 132.578 91.3564 132.457 91.7939 132.457C91.8934 132.457 92.0044 132.462 92.127 132.472C92.253 132.479 92.3574 132.49 92.4402 132.507V134.162C92.364 134.136 92.243 134.113 92.0773 134.093C91.9149 134.07 91.7575 134.058 91.605 134.058C91.2769 134.058 90.9819 134.129 90.7201 134.272C90.4615 134.411 90.2577 134.605 90.1086 134.853C89.9594 135.102 89.8848 135.389 89.8848 135.714V140.203H88.0851ZM99.6714 134.585L98.0308 134.764C97.9844 134.598 97.9032 134.442 97.7872 134.297C97.6745 134.151 97.522 134.033 97.3298 133.944C97.1376 133.854 96.9022 133.809 96.6238 133.809C96.2493 133.809 95.9344 133.891 95.6792 134.053C95.4273 134.215 95.303 134.426 95.3064 134.684C95.303 134.906 95.3842 135.087 95.55 135.226C95.719 135.366 95.9974 135.48 96.3852 135.569L97.6877 135.848C98.4103 136.004 98.9472 136.25 99.2985 136.589C99.6532 136.927 99.8322 137.369 99.8355 137.916C99.8322 138.397 99.6913 138.821 99.4129 139.189C99.1378 139.553 98.755 139.838 98.2644 140.044C97.7739 140.249 97.2105 140.352 96.5741 140.352C95.6394 140.352 94.8871 140.156 94.317 139.765C93.7469 139.371 93.4072 138.822 93.2978 138.12L95.0528 137.951C95.1323 138.295 95.3014 138.556 95.5599 138.731C95.8184 138.907 96.1548 138.995 96.5691 138.995C96.9967 138.995 97.3397 138.907 97.5983 138.731C97.8601 138.556 97.991 138.339 97.991 138.08C97.991 137.861 97.9065 137.681 97.7375 137.538C97.5717 137.396 97.3132 137.286 96.9619 137.21L95.6593 136.937C94.9269 136.784 94.385 136.527 94.0336 136.166C93.6823 135.801 93.5083 135.341 93.5116 134.784C93.5083 134.313 93.6359 133.906 93.8944 133.561C94.1563 133.213 94.5192 132.944 94.9832 132.755C95.4505 132.563 95.9891 132.467 96.599 132.467C97.4939 132.467 98.1982 132.658 98.7119 133.039C99.2289 133.42 99.5488 133.935 99.6714 134.585Z" fill="#2563EB"/>
<rect x="0.500732" y="233.386" width="123.007" height="116" rx="8" fill="#DBEAFE"/>
<path fill-rule="evenodd" clip-rule="evenodd" d="M54.1803 259.551C54.1803 255.317 57.6125 251.885 61.8463 251.885C66.0801 251.885 69.5123 255.317 69.5123 259.551C69.5123 263.785 66.0801 267.217 61.8463 267.217C57.6125 267.217 54.1803 263.785 54.1803 259.551ZM61.8463 249.885C56.5079 249.885 52.1803 254.212 52.1803 259.551C52.1803 263.237 54.2441 266.442 57.2795 268.072C54.7251 269.068 52.577 270.875 51.1515 273.175H39.4641C38.9118 273.175 38.4641 273.623 38.4641 274.175V295.887C38.4641 296.439 38.9118 296.887 39.4641 296.887H84.5125C85.0647 296.887 85.5125 296.439 85.5125 295.887V274.175C85.5125 273.623 85.0647 273.175 84.5125 273.175H72.5402C71.1148 270.876 68.9669 269.069 66.4128 268.072C69.4483 266.442 71.5123 263.238 71.5123 259.551C71.5123 254.212 67.1847 249.885 61.8463 249.885ZM70.0949 273.175H53.5968C55.5355 270.761 58.5109 269.217 61.8458 269.217C65.1808 269.217 68.1561 270.761 70.0949 273.175ZM40.4641 275.175V294.887H83.5125V275.175H40.4641ZM64.9887 279.751C65.1775 279.232 64.9097 278.658 64.3907 278.47C63.8717 278.281 63.2979 278.549 63.1092 279.068L59.0207 290.311C58.832 290.83 59.0998 291.404 59.6188 291.592C60.1378 291.781 60.7116 291.513 60.9003 290.994L64.9887 279.751ZM57.5512 282.611C57.9418 282.22 57.9418 281.587 57.5512 281.197C57.1607 280.806 56.5275 280.806 56.137 281.197L53.0093 284.324C52.8217 284.512 52.7164 284.766 52.7164 285.031C52.7164 285.297 52.8217 285.551 53.0093 285.739L56.137 288.866C56.5275 289.257 57.1607 289.257 57.5512 288.866C57.9418 288.476 57.9418 287.843 57.5512 287.452L55.1306 285.031L57.5512 282.611ZM66.458 281.197C66.8485 280.806 67.4817 280.806 67.8722 281.197L71 284.324C71.3905 284.715 71.3905 285.348 71 285.739L67.8722 288.866C67.4817 289.257 66.8485 289.257 66.458 288.866C66.0675 288.476 66.0675 287.843 66.458 287.452L68.8786 285.031L66.458 282.611C66.0675 282.22 66.0675 281.587 66.458 281.197Z" fill="#2563EB"/>
<path d="M17.5289 328.386V318.204H21.3471C22.1293 318.204 22.7855 318.35 23.3159 318.641C23.8495 318.933 24.2522 319.334 24.5239 319.845C24.799 320.352 24.9366 320.928 24.9366 321.575C24.9366 322.228 24.799 322.808 24.5239 323.315C24.2489 323.822 23.8428 324.221 23.3059 324.513C22.769 324.801 22.1078 324.945 21.3222 324.945H18.7917V323.429H21.0737C21.5311 323.429 21.9056 323.35 22.1972 323.19C22.4889 323.031 22.7043 322.813 22.8436 322.534C22.9861 322.256 23.0573 321.936 23.0573 321.575C23.0573 321.213 22.9861 320.895 22.8436 320.62C22.7043 320.345 22.4873 320.131 22.1923 319.979C21.9006 319.823 21.5244 319.745 21.0637 319.745H19.3734V328.386H17.5289ZM28.2589 318.204V328.386H26.4591V318.204H28.2589ZM32.307 328.54C31.8231 328.54 31.3872 328.454 30.9994 328.281C30.615 328.106 30.3101 327.847 30.0847 327.506C29.8626 327.164 29.7516 326.743 29.7516 326.243C29.7516 325.812 29.8311 325.456 29.9902 325.174C30.1493 324.892 30.3664 324.667 30.6415 324.498C30.9166 324.329 31.2265 324.201 31.5712 324.115C31.9192 324.026 32.2788 323.961 32.65 323.921C33.0975 323.875 33.4604 323.833 33.7388 323.797C34.0172 323.757 34.2194 323.698 34.3453 323.618C34.4746 323.535 34.5392 323.408 34.5392 323.235V323.205C34.5392 322.831 34.4282 322.541 34.2061 322.335C33.9841 322.13 33.6642 322.027 33.2466 322.027C32.8058 322.027 32.4561 322.123 32.1976 322.315C31.9424 322.508 31.77 322.735 31.6806 322.997L30.0002 322.758C30.1327 322.294 30.3515 321.906 30.6564 321.595C30.9613 321.28 31.3342 321.044 31.775 320.889C32.2158 320.729 32.703 320.65 33.2367 320.65C33.6046 320.65 33.9708 320.693 34.3354 320.779C34.7 320.865 35.0331 321.008 35.3347 321.207C35.6363 321.402 35.8782 321.669 36.0605 322.007C36.2461 322.345 36.3389 322.768 36.3389 323.275V328.386H34.6088V327.337H34.5492C34.4398 327.549 34.2857 327.748 34.0868 327.933C33.8913 328.116 33.6443 328.263 33.346 328.376C33.0511 328.485 32.7047 328.54 32.307 328.54ZM32.7743 327.217C33.1356 327.217 33.4488 327.146 33.7139 327.004C33.9791 326.858 34.1829 326.666 34.3254 326.427C34.4713 326.188 34.5442 325.928 34.5442 325.646V324.747C34.4878 324.793 34.3917 324.836 34.2558 324.876C34.1233 324.916 33.9741 324.95 33.8084 324.98C33.6427 325.01 33.4786 325.037 33.3162 325.06C33.1538 325.083 33.0129 325.103 32.8936 325.119C32.6252 325.156 32.3849 325.216 32.1727 325.298C31.9606 325.381 31.7932 325.497 31.6706 325.646C31.548 325.792 31.4867 325.981 31.4867 326.213C31.4867 326.545 31.6076 326.795 31.8496 326.964C32.0915 327.133 32.3998 327.217 32.7743 327.217ZM41.9618 320.749V322.141H37.5719V320.749H41.9618ZM38.6557 318.92H40.4554V326.089C40.4554 326.331 40.4919 326.516 40.5648 326.646C40.641 326.772 40.7404 326.858 40.8631 326.904C40.9857 326.951 41.1216 326.974 41.2708 326.974C41.3834 326.974 41.4862 326.966 41.579 326.949C41.6751 326.932 41.748 326.917 41.7977 326.904L42.101 328.311C42.0049 328.344 41.8673 328.381 41.6884 328.421C41.5127 328.46 41.2973 328.484 41.0421 328.49C40.5913 328.503 40.1853 328.435 39.824 328.286C39.4628 328.134 39.1761 327.899 38.9639 327.58C38.7551 327.262 38.6524 326.864 38.6557 326.387V318.92ZM47.3349 320.749V322.141H42.8206V320.749H47.3349ZM43.9492 328.386V320.028C43.9492 319.515 44.0553 319.087 44.2674 318.746C44.4828 318.404 44.7712 318.149 45.1324 317.98C45.4937 317.811 45.8947 317.727 46.3356 317.727C46.6471 317.727 46.9239 317.752 47.1658 317.801C47.4078 317.851 47.5867 317.896 47.7027 317.935L47.3448 319.328C47.2686 319.304 47.1724 319.281 47.0564 319.258C46.9404 319.231 46.8112 319.218 46.6687 319.218C46.3339 319.218 46.0969 319.299 45.9577 319.462C45.8218 319.621 45.7539 319.85 45.7539 320.148V328.386H43.9492ZM51.7882 328.535C51.0424 328.535 50.3961 328.371 49.8492 328.043C49.3024 327.715 48.8781 327.256 48.5765 326.666C48.2782 326.076 48.1291 325.386 48.1291 324.597C48.1291 323.809 48.2782 323.118 48.5765 322.524C48.8781 321.931 49.3024 321.47 49.8492 321.142C50.3961 320.814 51.0424 320.65 51.7882 320.65C52.5339 320.65 53.1802 320.814 53.7271 321.142C54.2739 321.47 54.6965 321.931 54.9948 322.524C55.2964 323.118 55.4472 323.809 55.4472 324.597C55.4472 325.386 55.2964 326.076 54.9948 326.666C54.6965 327.256 54.2739 327.715 53.7271 328.043C53.1802 328.371 52.5339 328.535 51.7882 328.535ZM51.7981 327.093C52.2025 327.093 52.5405 326.982 52.8123 326.76C53.0841 326.535 53.2863 326.233 53.4188 325.855C53.5547 325.477 53.6227 325.056 53.6227 324.592C53.6227 324.125 53.5547 323.703 53.4188 323.325C53.2863 322.944 53.0841 322.64 52.8123 322.415C52.5405 322.189 52.2025 322.077 51.7981 322.077C51.3838 322.077 51.0391 322.189 50.764 322.415C50.4922 322.64 50.2884 322.944 50.1525 323.325C50.0199 323.703 49.9536 324.125 49.9536 324.592C49.9536 325.056 50.0199 325.477 50.1525 325.855C50.2884 326.233 50.4922 326.535 50.764 326.76C51.0391 326.982 51.3838 327.093 51.7981 327.093ZM56.9748 328.386V320.749H58.7198V322.022H58.7993C58.9385 321.581 59.1772 321.242 59.5152 321.003C59.8566 320.761 60.2461 320.64 60.6836 320.64C60.783 320.64 60.894 320.645 61.0167 320.655C61.1426 320.662 61.247 320.673 61.3299 320.69V322.345C61.2536 322.319 61.1327 322.296 60.967 322.276C60.8045 322.252 60.6471 322.241 60.4947 322.241C60.1665 322.241 59.8715 322.312 59.6097 322.455C59.3512 322.594 59.1473 322.788 58.9982 323.036C58.8491 323.285 58.7745 323.572 58.7745 323.896V328.386H56.9748ZM62.5255 328.386V320.749H64.2457V322.047H64.3352C64.4943 321.609 64.7578 321.268 65.1257 321.023C65.4936 320.774 65.9327 320.65 66.4432 320.65C66.9602 320.65 67.396 320.776 67.7507 321.028C68.1086 321.276 68.3605 321.616 68.5064 322.047H68.5859C68.7549 321.623 69.04 321.285 69.441 321.033C69.8454 320.778 70.3243 320.65 70.8778 320.65C71.5805 320.65 72.1539 320.872 72.598 321.316C73.0421 321.76 73.2642 322.408 73.2642 323.26V328.386H71.4595V323.538C71.4595 323.064 71.3335 322.718 71.0817 322.499C70.8298 322.277 70.5215 322.166 70.1569 322.166C69.7228 322.166 69.383 322.302 69.1378 322.574C68.8958 322.842 68.7748 323.192 68.7748 323.623V328.386H67.0099V323.464C67.0099 323.069 66.8906 322.755 66.652 322.519C66.4166 322.284 66.1084 322.166 65.7273 322.166C65.4687 322.166 65.2334 322.233 65.0213 322.365C64.8092 322.494 64.6401 322.678 64.5142 322.917C64.3882 323.152 64.3253 323.427 64.3253 323.742V328.386H62.5255ZM78.6422 328.386V318.204H85.2644V319.75H80.4867V322.514H84.9213V324.06H80.4867V326.84H85.3041V328.386H78.6422ZM88.8663 323.911V328.386H87.0666V320.749H88.7867V322.047H88.8762C89.0519 321.619 89.332 321.28 89.7164 321.028C90.1042 320.776 90.5831 320.65 91.1532 320.65C91.6802 320.65 92.1392 320.763 92.5303 320.988C92.9248 321.213 93.2297 321.54 93.4451 321.967C93.6639 322.395 93.7716 322.914 93.7683 323.524V328.386H91.9686V323.802C91.9686 323.292 91.836 322.892 91.5708 322.604C91.309 322.315 90.9461 322.171 90.482 322.171C90.1672 322.171 89.8871 322.241 89.6418 322.38C89.3999 322.516 89.2093 322.713 89.0701 322.972C88.9342 323.23 88.8663 323.543 88.8663 323.911ZM98.9188 331.408C98.2725 331.408 97.7174 331.321 97.2534 331.145C96.7893 330.973 96.4165 330.741 96.1347 330.449C95.853 330.157 95.6575 329.834 95.5481 329.479L97.1688 329.087C97.2418 329.236 97.3478 329.383 97.487 329.529C97.6262 329.678 97.8135 329.801 98.0488 329.897C98.2874 329.997 98.5874 330.046 98.9487 330.046C99.4591 330.046 99.8817 329.922 100.216 329.673C100.551 329.428 100.719 329.024 100.719 328.46V327.014H100.629C100.536 327.199 100.4 327.39 100.221 327.585C100.046 327.781 99.8121 327.945 99.5204 328.078C99.232 328.21 98.8691 328.276 98.4316 328.276C97.845 328.276 97.313 328.139 96.8357 327.864C96.3618 327.585 95.9839 327.171 95.7022 326.621C95.4238 326.067 95.2846 325.375 95.2846 324.543C95.2846 323.704 95.4238 322.997 95.7022 322.42C95.9839 321.84 96.3634 321.401 96.8407 321.102C97.318 320.801 97.8499 320.65 98.4366 320.65C98.884 320.65 99.2519 320.726 99.5403 320.879C99.8319 321.028 100.064 321.208 100.236 321.421C100.409 321.629 100.54 321.827 100.629 322.012H100.728V320.749H102.503V328.51C102.503 329.163 102.348 329.703 102.036 330.131C101.724 330.558 101.299 330.878 100.758 331.09C100.218 331.302 99.6049 331.408 98.9188 331.408ZM98.9337 326.864C99.3149 326.864 99.6397 326.772 99.9082 326.586C100.177 326.4 100.38 326.134 100.52 325.786C100.659 325.438 100.728 325.02 100.728 324.533C100.728 324.052 100.659 323.631 100.52 323.27C100.384 322.909 100.182 322.629 99.9132 322.43C99.648 322.228 99.3215 322.127 98.9337 322.127C98.5327 322.127 98.198 322.231 97.9295 322.44C97.661 322.649 97.4588 322.935 97.323 323.3C97.1871 323.661 97.1191 324.072 97.1191 324.533C97.1191 325 97.1871 325.409 97.323 325.761C97.4622 326.109 97.666 326.381 97.9345 326.576C98.2062 326.768 98.5393 326.864 98.9337 326.864ZM105.456 328.495C105.155 328.495 104.896 328.389 104.681 328.177C104.465 327.965 104.359 327.706 104.363 327.401C104.359 327.103 104.465 326.848 104.681 326.636C104.896 326.424 105.155 326.318 105.456 326.318C105.748 326.318 106.002 326.424 106.217 326.636C106.436 326.848 106.547 327.103 106.55 327.401C106.547 327.604 106.494 327.787 106.391 327.953C106.292 328.119 106.159 328.252 105.993 328.351C105.831 328.447 105.652 328.495 105.456 328.495Z" fill="#2563EB"/>
<defs>
<clipPath id="clip0_3867_30849">
<rect width="48" height="48" fill="white" transform="translate(811.996 268.884)"/>
</clipPath>
</defs>
</svg>
