<svg width="366" height="369" viewBox="0 0 366 369" fill="none" xmlns="http://www.w3.org/2000/svg">
<path d="M44.6955 67.0783L60.9727 61.1577L47.7067 50.0216L44.6955 67.0783ZM13.8235 120.909L0.629013 132.129L16.9437 137.946L13.8235 120.909ZM326.341 73.4287L324.095 56.2545L310.345 66.7875L326.341 73.4287ZM351.91 120.18L348.862 137.23L365.152 131.344L351.91 120.18ZM207.094 362L223.151 368.495L220.747 351.342L207.094 362ZM155.283 361.475L141.85 350.541L139.097 367.642L155.283 361.475ZM49.6738 63.5802C50.5397 62.6038 51.4161 61.637 52.3029 60.6799L50.1022 58.641C49.2007 59.614 48.3097 60.597 47.4293 61.5897L49.6738 63.5802ZM54.9945 57.8372C55.902 56.8994 56.8197 55.9715 57.7473 55.0538L55.6373 52.9212C54.6942 53.8542 53.7613 54.7975 52.8387 55.751L54.9945 57.8372ZM60.5598 52.3309C61.5072 51.4335 62.4643 50.5464 63.431 49.6698L61.4158 47.4475C60.433 48.3387 59.4599 49.2406 58.4967 50.1529L60.5598 52.3309ZM66.3594 47.0719C67.3448 46.2167 68.3397 45.3721 69.3437 44.5383L67.4272 42.2303C66.4064 43.078 65.3949 43.9367 64.3931 44.8062L66.3594 47.0719ZM72.3824 42.0706C73.404 41.2592 74.4346 40.4589 75.4741 39.6697L73.6601 37.2803C72.6032 38.0827 71.5553 38.8964 70.5166 39.7213L72.3824 42.0706ZM78.6176 37.3368C79.6736 36.5709 80.7383 35.8163 81.8114 35.0731L80.1035 32.6067C79.0124 33.3623 77.9299 34.1296 76.8562 34.9083L78.6176 37.3368ZM85.0541 32.8798C86.1424 32.161 87.2389 31.4538 88.3435 30.7584L86.7453 28.2196C85.6221 28.9266 84.5071 29.6457 83.4007 30.3766L85.0541 32.8798ZM91.6786 28.7097C92.7973 28.0393 93.9238 27.3809 95.0581 26.7346L93.5729 24.128C92.4195 24.7852 91.274 25.4547 90.1365 26.1364L91.6786 28.7097ZM98.4803 24.8341C99.6273 24.2136 100.782 23.6053 101.944 23.0094L100.575 20.3399C99.3932 20.9459 98.2192 21.5645 97.0528 22.1955L98.4803 24.8341ZM105.446 21.2617C106.619 20.6925 107.799 20.1359 108.986 19.5919L107.736 16.8647C106.529 17.4179 105.329 17.984 104.136 18.5628L105.446 21.2617ZM112.561 18.0006C113.758 17.4838 114.962 16.9797 116.172 16.4886L115.044 13.7088C113.813 14.2082 112.589 14.7208 111.372 15.2464L112.561 18.0006ZM119.816 15.0567C121.034 14.5934 122.258 14.1432 123.489 13.7061L122.485 10.8791C121.233 11.3236 119.988 11.7815 118.749 12.2526L119.816 15.0567ZM127.191 12.4375C128.428 12.0288 129.672 11.6333 130.921 11.2512L130.043 8.38244C128.773 8.77105 127.508 9.17327 126.25 9.58894L127.191 12.4375ZM134.676 10.1477C135.931 9.79414 137.191 9.45402 138.456 9.1275L137.707 6.22264C136.42 6.55471 135.138 6.90061 133.862 7.26015L134.676 10.1477ZM142.256 8.19176C143.524 7.89441 144.797 7.61063 146.076 7.34059L145.455 4.40538C144.156 4.68 142.861 4.9686 141.571 5.27101L142.256 8.19176ZM149.913 6.57399C151.194 6.33298 152.479 6.10568 153.769 5.89228L153.279 2.93252C151.967 3.14954 150.66 3.38068 149.358 3.62578L149.913 6.57399ZM157.639 5.29567C158.928 5.11159 160.221 4.94133 161.518 4.78504L161.159 1.80658C159.84 1.9655 158.525 2.13863 157.215 2.32583L157.639 5.29567ZM165.408 4.35967C166.704 4.23233 168.004 4.11892 169.308 4.01958L169.08 1.02825C167.754 1.12925 166.432 1.24457 165.115 1.37404L165.408 4.35967ZM173.216 3.76474C174.516 3.69421 175.819 3.63766 177.127 3.59522L177.029 0.596798C175.7 0.639946 174.375 0.697443 173.054 0.769142L173.216 3.76474ZM181.038 3.5106C181.691 3.50354 182.345 3.5 183 3.5V0.5C182.335 0.5 181.67 0.503598 181.006 0.510776L181.038 3.5106ZM183 3.5C183.656 3.5 184.31 3.50355 184.964 3.51063L184.997 0.510806C184.332 0.503608 183.666 0.5 183 0.5V3.5ZM188.88 3.59544C190.19 3.63801 191.496 3.69473 192.798 3.76548L192.96 0.769896C191.637 0.697971 190.309 0.640298 188.978 0.597025L188.88 3.59544ZM196.71 4.02096C198.015 4.12053 199.317 4.2342 200.614 4.36182L200.908 1.37624C199.589 1.24647 198.266 1.13089 196.938 1.02965L196.71 4.02096ZM204.507 4.78808C205.808 4.94493 207.104 5.11582 208.395 5.3006L208.82 2.33084C207.507 2.14294 206.189 1.96916 204.867 1.80967L204.507 4.78808ZM212.269 5.89857C213.56 6.11244 214.846 6.34022 216.128 6.58175L216.683 3.63367C215.38 3.38804 214.072 3.15641 212.76 2.93892L212.269 5.89857ZM219.969 7.34993C221.249 7.62086 222.525 7.90558 223.796 8.20393L224.481 5.28338C223.189 4.97996 221.892 4.69041 220.59 4.41488L219.969 7.34993ZM227.601 9.1423C228.868 9.46951 230.128 9.81033 231.384 10.1646L232.199 7.27736C230.922 6.91707 229.64 6.57046 228.352 6.23769L227.601 9.1423ZM235.142 11.2704C236.393 11.6536 237.638 12.0503 238.878 12.4602L239.82 9.61199C238.559 9.19509 237.293 8.79167 236.021 8.40192L235.142 11.2704ZM242.585 13.7324C243.817 14.1705 245.043 14.6219 246.262 15.0863L247.33 12.2827C246.09 11.8104 244.843 11.3514 243.59 10.9058L242.585 13.7324ZM249.908 16.5211C251.12 17.0135 252.325 17.5188 253.523 18.037L254.714 15.2835C253.495 14.7565 252.27 14.2426 251.038 13.7418L249.908 16.5211ZM257.103 19.6326C258.291 20.1779 259.472 20.736 260.647 21.3067L261.958 18.6085C260.764 18.0282 259.563 17.4607 258.354 16.906L257.103 19.6326ZM264.152 23.0584C265.315 23.6557 266.47 24.2654 267.618 24.8874L269.047 22.2497C267.88 21.6172 266.705 20.9972 265.522 20.3899L264.152 23.0584ZM271.044 26.7926C272.179 27.4405 273.307 28.1006 274.426 28.7726L275.97 26.2003C274.832 25.517 273.685 24.8459 272.531 24.187L271.044 26.7926ZM277.764 30.8263C278.87 31.5233 279.967 32.2322 281.056 32.9527L282.712 30.4508C281.604 29.7181 280.488 28.9973 279.364 28.2886L277.764 30.8263ZM284.301 35.1513C285.375 35.8962 286.441 36.6526 287.497 37.4204L289.261 34.9933C288.186 34.2127 287.103 33.4436 286.011 32.6863L284.301 35.1513ZM290.643 39.7587C291.683 40.5497 292.714 41.3519 293.737 42.1652L295.604 39.8175C294.565 38.9907 293.517 38.175 292.459 37.3708L290.643 39.7587ZM296.777 44.6388C297.782 45.4745 298.777 46.3211 299.763 47.1783L301.731 44.9143C300.729 44.0428 299.717 43.1822 298.696 42.3325L296.777 44.6388ZM302.693 49.7822C303.66 50.6608 304.617 51.5499 305.565 52.4493L307.63 50.2733C306.667 49.3589 305.693 48.4549 304.71 47.5617L302.693 49.7822ZM308.379 55.1784C309.306 56.0982 310.224 57.0282 311.132 57.9681L313.29 55.884C312.367 54.9285 311.434 53.983 310.491 53.0479L308.379 55.1784ZM313.824 60.817C314.711 61.7763 315.587 62.7453 316.454 63.7239L318.7 61.7358C317.82 60.7409 316.929 59.7557 316.027 58.7804L313.824 60.817ZM319.019 66.6875C319.863 67.6843 320.697 68.6906 321.52 69.706L323.851 67.8175C323.014 66.7852 322.167 65.7622 321.309 64.7487L319.019 66.6875ZM10.4705 126.042C10.06 127.301 9.66273 128.567 9.27893 129.839L12.151 130.706C12.5284 129.455 12.9191 128.21 13.3229 126.971L10.4705 126.042ZM8.17088 133.661C7.81602 134.938 7.47463 136.22 7.1469 137.507L10.0542 138.247C10.3765 136.981 10.7122 135.72 11.0612 134.465L8.17088 133.661ZM6.20742 141.374C5.90886 142.665 5.62394 143.961 5.35283 145.261L8.28972 145.873C8.55636 144.594 8.83658 143.32 9.13021 142.051L6.20742 141.374ZM4.58345 149.166C4.34164 150.468 4.11361 151.775 3.89952 153.086L6.86034 153.57C7.07091 152.28 7.29519 150.994 7.53301 149.714L4.58345 149.166ZM3.30123 157.021C3.11644 158.332 2.94554 159.647 2.78868 160.967L5.76771 161.321C5.92201 160.023 6.09011 158.729 6.27187 157.44L3.30123 157.021ZM2.3619 164.924C2.2342 166.241 2.12047 167.563 2.02085 168.888L5.01242 169.113C5.11041 167.809 5.22229 166.509 5.34791 165.213L2.3619 164.924ZM1.76543 172.86C1.6947 174.181 1.63798 175.506 1.59543 176.835L4.59389 176.931C4.63576 175.624 4.69155 174.32 4.76114 173.02L1.76543 172.86ZM1.51059 180.813C1.50353 181.476 1.5 182.139 1.5 182.803H4.5C4.5 182.15 4.50348 181.497 4.51042 180.845L1.51059 180.813ZM1.5 182.803C1.5 183.477 1.50365 184.151 1.51092 184.824L4.51075 184.791C4.50359 184.129 4.5 183.467 4.5 182.803H1.5ZM1.59797 188.85C1.64157 190.193 1.69964 191.533 1.77204 192.869L4.76765 192.707C4.69642 191.392 4.63929 190.074 4.59639 188.752L1.59797 188.85ZM2.03387 196.889C2.13581 198.229 2.25217 199.565 2.38279 200.896L5.36845 200.603C5.23996 199.294 5.1255 197.98 5.02522 196.662L2.03387 196.889ZM2.82025 204.903C2.9807 206.236 3.15549 207.565 3.34445 208.89L6.31438 208.466C6.12852 207.163 5.9566 205.856 5.79877 204.544L2.82025 204.903ZM3.95773 212.874C4.17667 214.199 4.40984 215.519 4.65707 216.834L7.60542 216.279C7.36226 214.986 7.13293 213.688 6.91759 212.385L3.95773 212.874ZM5.44568 220.787C5.7229 222.101 6.01421 223.409 6.31944 224.712L9.24038 224.028C8.94019 222.747 8.65369 221.46 8.38104 220.168L5.44568 220.787ZM7.28227 228.627C7.61738 229.927 7.96641 231.222 8.32919 232.51L11.2169 231.697C10.8601 230.43 10.5169 229.157 10.1873 227.878L7.28227 228.627ZM9.46458 236.378C9.85699 237.662 10.2631 238.94 10.6828 240.211L13.5317 239.271C13.1189 238.02 12.7195 236.764 12.3336 235.501L9.46458 236.378ZM11.9886 244.025C12.4376 245.29 12.9001 246.548 13.3759 247.801L16.1802 246.735C15.7122 245.503 15.2574 244.265 14.8158 243.021L11.9886 244.025ZM14.8494 251.552C15.354 252.796 15.8719 254.033 16.403 255.263L19.1573 254.074C18.635 252.864 18.1256 251.647 17.6293 250.424L14.8494 251.552ZM18.041 258.945C18.6003 260.165 19.1726 261.378 19.7577 262.584L22.4566 261.274C21.8812 260.088 21.3183 258.895 20.7683 257.695L18.041 258.945ZM21.5569 266.189C22.1697 267.383 22.7951 268.57 23.4332 269.749L26.0715 268.321C25.444 267.161 24.8288 265.994 24.2262 264.819L21.5569 266.189ZM25.3898 273.27C26.0547 274.436 26.732 275.594 27.4217 276.744L29.9944 275.201C29.3161 274.07 28.6499 272.931 27.9959 271.784L25.3898 273.27ZM29.5316 280.176C30.2473 281.311 30.9751 282.438 31.715 283.557L34.2171 281.902C33.4895 280.802 32.7736 279.693 32.0696 278.576L29.5316 280.176ZM33.9738 286.891C34.7389 287.994 35.5158 289.089 36.3043 290.174L38.7311 288.41C37.9555 287.343 37.1914 286.267 36.4389 285.182L33.9738 286.891ZM38.7075 293.405C39.5204 294.473 40.3447 295.532 41.1803 296.582L43.5272 294.713C42.7053 293.681 41.8945 292.639 41.095 291.589L38.7075 293.405ZM43.7233 299.704C44.5823 300.736 45.4524 301.757 46.3335 302.769L48.596 300.799C47.7293 299.804 46.8734 298.799 46.0285 297.784L43.7233 299.704ZM49.0111 305.777C49.9146 306.769 50.8289 307.752 51.7537 308.724L53.9274 306.656C53.0177 305.7 52.1184 304.734 51.2297 303.757L49.0111 305.777ZM54.5609 311.611C55.5071 312.563 56.4637 313.504 57.4306 314.435L59.5112 312.273C58.5601 311.358 57.6192 310.432 56.6885 309.496L54.5609 311.611ZM60.3619 317.195C61.349 318.104 62.3461 319.003 63.3532 319.89L65.3366 317.639C64.3461 316.767 63.3653 315.883 62.3944 314.988L60.3619 317.195ZM66.4031 322.519C67.4293 323.384 68.4651 324.237 69.5104 325.079L71.3926 322.743C70.3645 321.915 69.3458 321.075 68.3365 320.225L66.4031 322.519ZM72.6733 327.571C73.7365 328.39 74.8089 329.197 75.8905 329.992L77.6678 327.575C76.6041 326.793 75.5492 325.999 74.5035 325.194L72.6733 327.571ZM79.1605 332.342C80.2587 333.112 81.3658 333.871 82.4816 334.618L84.1503 332.125C83.0529 331.39 81.964 330.644 80.8839 329.886L79.1605 332.342ZM85.8525 336.821C86.9837 337.542 88.1233 338.251 89.2713 338.948L90.8277 336.383C89.6988 335.698 88.578 335 87.4655 334.291L85.8525 336.821ZM92.7368 340.998C93.8987 341.669 95.0687 342.326 96.2466 342.971L97.6875 340.34C96.5291 339.706 95.3785 339.059 94.2358 338.4L92.7368 340.998ZM99.8001 344.866C100.991 345.484 102.189 346.089 103.394 346.681L104.716 343.988C103.531 343.406 102.353 342.811 101.182 342.203L99.8001 344.866ZM107.029 348.415C108.246 348.979 109.469 349.53 110.7 350.068L111.901 347.318C110.69 346.79 109.487 346.248 108.291 345.694L107.029 348.415ZM114.409 351.638C115.65 352.147 116.897 352.642 118.151 353.124L119.227 350.324C117.994 349.85 116.768 349.363 115.548 348.863L114.409 351.638ZM121.926 354.527C123.188 354.98 124.456 355.419 125.731 355.844L126.68 352.999C125.427 352.58 124.18 352.149 122.94 351.703L121.926 354.527ZM129.565 357.077C130.846 357.472 132.133 357.854 133.425 358.222L134.246 355.336C132.975 354.975 131.71 354.599 130.451 354.21L129.565 357.077ZM137.311 359.281C138.608 359.618 139.91 359.942 141.218 360.252L141.909 357.332C140.623 357.028 139.342 356.71 138.067 356.377L137.311 359.281ZM145.148 361.135C146.458 361.414 147.774 361.679 149.094 361.93L149.654 358.983C148.355 358.736 147.061 358.476 145.773 358.201L145.148 361.135ZM213.357 362.567C214.702 362.339 216.041 362.097 217.376 361.84L216.809 358.894C215.496 359.147 214.179 359.385 212.857 359.609L213.357 362.567ZM221.379 361.022C222.711 360.734 224.038 360.431 225.359 360.114L224.659 357.197C223.36 357.509 222.055 357.807 220.745 358.09L221.379 361.022ZM229.321 359.115C230.639 358.766 231.951 358.403 233.257 358.026L232.424 355.144C231.14 355.515 229.85 355.872 228.554 356.214L229.321 359.115ZM237.169 356.848C238.469 356.44 239.763 356.018 241.051 355.582L240.088 352.74C238.822 353.169 237.55 353.584 236.271 353.985L237.169 356.848ZM244.905 354.226C246.186 353.76 247.459 353.279 248.726 352.785L247.635 349.99C246.389 350.476 245.137 350.949 243.878 351.408L244.905 354.226ZM252.514 351.256C253.772 350.732 255.023 350.194 256.266 349.642L255.049 346.9C253.827 347.443 252.597 347.972 251.36 348.487L252.514 351.256ZM259.981 347.943C261.213 347.363 262.438 346.769 263.655 346.161L262.316 343.477C261.119 344.074 259.914 344.659 258.702 345.229L259.981 347.943ZM267.289 344.296C268.494 343.66 269.691 343.011 270.88 342.349L269.42 339.728C268.251 340.379 267.074 341.018 265.889 341.643L267.289 344.296ZM274.426 340.322C275.6 339.633 276.767 338.93 277.925 338.216L276.348 335.663C275.21 336.366 274.063 337.057 272.907 337.735L274.426 340.322ZM281.375 336.031C282.518 335.289 283.651 334.535 284.776 333.769L283.087 331.29C281.981 332.043 280.866 332.785 279.742 333.514L281.375 336.031ZM288.125 331.431C289.233 330.639 290.331 329.835 291.421 329.019L289.622 326.618C288.551 327.421 287.47 328.212 286.38 328.99L288.125 331.431ZM294.661 326.533C295.733 325.693 296.794 324.84 297.846 323.976L295.941 321.658C294.907 322.508 293.863 323.347 292.809 324.173L294.661 326.533ZM300.972 321.348C302.004 320.46 303.027 319.561 304.039 318.651L302.032 316.421C301.037 317.316 300.031 318.2 299.016 319.073L300.972 321.348ZM307.044 315.886C308.036 314.953 309.017 314.009 309.988 313.055L307.884 310.916C306.929 311.855 305.964 312.783 304.989 313.701L307.044 315.886ZM312.867 310.158C313.816 309.182 314.754 308.196 315.681 307.199L313.484 305.156C312.572 306.137 311.649 307.107 310.716 308.067L312.867 310.158ZM318.428 304.177C319.332 303.159 320.226 302.132 321.107 301.094L318.821 299.152C317.954 300.172 317.076 301.183 316.186 302.183L318.428 304.177ZM323.717 297.953C324.575 296.896 325.421 295.83 326.256 294.754L323.885 292.916C323.065 293.974 322.232 295.022 321.388 296.061L323.717 297.953ZM328.723 291.499C329.533 290.406 330.331 289.303 331.117 288.191L328.666 286.46C327.894 287.553 327.109 288.638 326.312 289.714L328.723 291.499ZM333.436 284.828C334.196 283.7 334.944 282.563 335.679 281.417L333.154 279.797C332.431 280.924 331.696 282.043 330.948 283.152L333.436 284.828ZM337.847 277.953C338.555 276.793 339.251 275.623 339.934 274.445L337.339 272.94C336.667 274.098 335.983 275.249 335.286 276.39L337.847 277.953ZM341.945 270.888C342.601 269.697 343.244 268.497 343.873 267.29L341.213 265.903C340.594 267.09 339.962 268.27 339.317 269.441L341.945 270.888ZM345.723 263.646C346.324 262.427 346.912 261.2 347.487 259.966L344.768 258.699C344.202 259.913 343.624 261.119 343.032 262.318L345.723 263.646ZM349.171 256.241C349.717 254.997 350.25 253.745 350.769 252.486L347.995 251.343C347.485 252.581 346.961 253.812 346.424 255.036L349.171 256.241ZM352.284 248.689C352.773 247.422 353.249 246.148 353.71 244.866L350.888 243.849C350.434 245.109 349.966 246.362 349.485 247.609L352.284 248.689ZM355.053 241.005C355.485 239.717 355.903 238.423 356.306 237.122L353.441 236.233C353.044 237.512 352.633 238.785 352.209 240.052L355.053 241.005ZM357.474 233.204C357.847 231.898 358.206 230.587 358.551 229.269L355.649 228.51C355.31 229.805 354.957 231.095 354.59 232.38L357.474 233.204ZM359.541 225.302C359.855 223.981 360.155 222.655 360.44 221.323L357.507 220.695C357.226 222.005 356.932 223.309 356.623 224.608L359.541 225.302ZM361.252 217.316C361.506 215.982 361.746 214.644 361.971 213.301L359.013 212.804C358.791 214.126 358.555 215.442 358.305 216.753L361.252 217.316ZM362.602 209.261C362.797 207.918 362.976 206.57 363.142 205.218L360.164 204.854C360.001 206.184 359.824 207.51 359.633 208.831L362.602 209.261ZM363.592 201.155C363.726 199.804 363.846 198.45 363.951 197.091L360.96 196.86C360.856 198.197 360.739 199.529 360.606 200.858L363.592 201.155ZM364.22 193.013C364.295 191.658 364.354 190.299 364.399 188.936L361.401 188.838C361.357 190.178 361.298 191.515 361.225 192.849L364.22 193.013ZM364.489 184.853C364.496 184.17 364.5 183.487 364.5 182.803H361.5C361.5 183.476 361.496 184.148 361.489 184.82L364.489 184.853ZM364.5 182.803C364.5 182.131 364.496 181.459 364.489 180.789L361.489 180.821C361.496 181.481 361.5 182.141 361.5 182.803H364.5ZM364.402 176.762C364.359 175.417 364.3 174.075 364.228 172.737L361.232 172.9C361.304 174.216 361.361 175.536 361.404 176.859L364.402 176.762ZM363.966 168.718C363.864 167.376 363.748 166.038 363.617 164.705L360.631 164.998C360.76 166.309 360.874 167.625 360.975 168.945L363.966 168.718ZM363.179 160.7C363.019 159.364 362.843 158.033 362.654 156.706L359.684 157.13C359.87 158.435 360.043 159.745 360.201 161.059L363.179 160.7ZM362.041 152.724C361.822 151.397 361.588 150.075 361.34 148.757L358.392 149.312C358.636 150.608 358.865 151.908 359.081 153.214L362.041 152.724ZM360.552 144.807C360.274 143.491 359.982 142.18 359.676 140.874L356.755 141.559C357.056 142.843 357.343 144.132 357.616 145.426L360.552 144.807ZM358.713 136.962C358.378 135.66 358.028 134.363 357.664 133.073L354.777 133.886C355.134 135.155 355.478 136.431 355.809 137.711L358.713 136.962ZM356.529 129.207C356.136 127.921 355.729 126.641 355.308 125.368L352.46 126.309C352.873 127.561 353.274 128.82 353.66 130.084L356.529 129.207Z" fill="#D4D4D8"/>
<ellipse cx="183.002" cy="182.803" rx="117.076" ry="117.598" fill="#EFF6FF"/>
<path d="M118.045 146.102L184.016 109.031L249.52 145.827L250.616 221.487L183.509 260.28L117.771 221.487L118.045 146.102Z" fill="#2563EB"/>
<path d="M118.045 146.102L184.016 109.031L249.52 145.827M118.045 146.102L117.771 221.487L183.509 260.28M118.045 146.102L183.509 182.477M183.509 260.28L250.616 221.487L249.52 145.827M183.509 260.28V182.477M249.52 145.827L183.509 182.477" stroke="#EFF6FF" stroke-width="3" stroke-linecap="round"/>
<path d="M183.507 260.28L183.507 359.787" stroke="#D4D4D8" stroke-width="3" stroke-linecap="round" stroke-dasharray="4 4"/>
<path d="M250.621 145.317L339.696 95.9336" stroke="#D4D4D8" stroke-width="3" stroke-linecap="round" stroke-dasharray="4 4"/>
<path d="M117.771 145.982L27.4964 95.9335" stroke="#D4D4D8" stroke-width="3" stroke-linecap="round" stroke-dasharray="4 4"/>
</svg>
