<svg width="360" height="354" viewBox="0 0 360 354" fill="none" xmlns="http://www.w3.org/2000/svg">
<path d="M98.5287 149.934C113.823 134.64 138.619 134.64 153.913 149.934L181.606 177.627L153.913 205.319C138.619 220.613 113.823 220.613 98.5287 205.319V205.319C83.2346 190.025 83.2346 165.228 98.5287 149.934V149.934Z" stroke="#2563EB" stroke-width="29"/>
<path d="M264.465 205.57C249.171 220.865 224.375 220.865 209.081 205.57L181.388 177.878L209.081 150.186C224.375 134.892 249.171 134.892 264.465 150.186V150.186C279.759 165.48 279.759 190.276 264.465 205.57V205.57Z" stroke="#2563EB" stroke-width="29"/>
<path d="M164.604 177.626L181.371 194.866L170.5 205.728L153.348 188.88L164.604 177.626Z" fill="url(#paint0_linear_2956_17645)"/>
<path d="M192.873 149.389L209.679 166.57L198.828 177.454L181.619 160.643L192.873 149.389Z" fill="url(#paint1_linear_2956_17645)"/>
<path d="M180.961 3.57922C132.105 3.57922 87.9481 23.6942 56.319 56.094M240.904 14.1686C265.036 23.0141 286.666 37.0472 304.443 54.9171M329.553 86.8382C345.779 113.302 355.134 144.435 355.134 177.752C355.134 205.874 348.469 232.44 336.633 255.955M315.027 288.946C302.569 303.95 287.64 316.829 270.865 326.959M220.066 347.518C207.495 350.402 194.406 351.925 180.961 351.925C143.115 351.925 108.088 339.855 79.5208 319.353M19.5427 243.3C11.3183 223.067 6.78766 200.939 6.78766 177.752C6.78766 153.823 11.6134 131.02 20.3449 110.265" stroke="#D4D4D8" stroke-width="3" stroke-linecap="round" stroke-linejoin="round"/>
<path d="M328.398 213.258C322.095 239.538 308.689 264.462 288.179 284.972C270.867 302.284 250.411 314.534 228.649 321.724M318.561 113.951C327.971 134.252 332.648 156.206 332.591 178.15M195.039 328.733C178.134 330.3 161.016 329.038 144.453 324.947M100.525 306.332C91.0116 300.369 82.016 293.249 73.7393 284.972C50.4416 261.674 36.3101 232.682 31.3447 202.475M41.2404 118.735C48.6329 101.217 59.4658 84.8056 73.7393 70.5322C88.4702 55.8012 105.478 44.7348 123.63 37.333M179.123 26.1313C218.538 25.6568 258.104 40.4571 288.179 70.5322" stroke="#D4D4D8" stroke-width="3" stroke-linecap="round" stroke-linejoin="round"/>
<circle cx="194.303" cy="3.57919" r="3.50449" fill="#D4D4D8"/>
<circle cx="30.9155" cy="193.841" r="3.50449" fill="#D4D4D8"/>
<circle cx="230.4" cy="345.988" r="3.50449" fill="#D4D4D8"/>
<ellipse cx="45.1776" cy="77.0166" rx="27.411" ry="27.411" fill="#DBEAFE"/>
<path fill-rule="evenodd" clip-rule="evenodd" d="M32.3452 65.8521C32.3452 65.5759 32.569 65.3521 32.8452 65.3521H57.5065C57.7826 65.3521 58.0065 65.5759 58.0065 65.8521V74.1834C58.0065 74.4596 57.7826 74.6834 57.5065 74.6834H32.8452C32.569 74.6834 32.3452 74.4596 32.3452 74.1834V65.8521ZM52.7576 71.7674C53.7239 71.7674 54.5073 70.9841 54.5073 70.0178C54.5073 69.0515 53.7239 68.2681 52.7576 68.2681C51.7913 68.2681 51.008 69.0515 51.008 70.0178C51.008 70.9841 51.7913 71.7674 52.7576 71.7674ZM32.3452 79.8492C32.3452 79.573 32.569 79.3492 32.8452 79.3492H57.5065C57.7826 79.3492 58.0065 79.573 58.0065 79.8492V88.1806C58.0065 88.4567 57.7826 88.6806 57.5065 88.6806H32.8452C32.569 88.6806 32.3452 88.4567 32.3452 88.1806V79.8492ZM52.7576 85.7645C53.7239 85.7645 54.5073 84.9812 54.5073 84.0149C54.5073 83.0486 53.7239 82.2653 52.7576 82.2653C51.7913 82.2653 51.008 83.0486 51.008 84.0149C51.008 84.9812 51.7913 85.7645 52.7576 85.7645Z" fill="#111827"/>
<circle cx="332.589" cy="80.6333" r="27.411" fill="#DBEAFE"/>
<path fill-rule="evenodd" clip-rule="evenodd" d="M343.935 80.309V70.9849C343.935 70.4326 343.488 69.9849 342.935 69.9849H332.837H322.739C322.186 69.9849 321.739 70.432 321.739 70.9843L321.739 80.309C321.739 87.0324 325.527 89.5429 332.403 93.0778C332.676 93.2178 333.001 93.2249 333.279 93.0957C339.982 89.9772 343.935 87.2023 343.935 80.309ZM332.837 75.8207C333.113 75.8207 333.337 76.0446 333.337 76.3207V81.1781C333.337 81.4542 333.113 81.6781 332.837 81.6781C332.561 81.6781 332.337 81.4542 332.337 81.1781V76.3207C332.337 76.0446 332.561 75.8207 332.837 75.8207ZM334.294 85.5496C334.294 86.3544 333.642 87.0068 332.837 87.0068C332.032 87.0068 331.38 86.3544 331.38 85.5496C331.38 84.7449 332.032 84.0925 332.837 84.0925C333.642 84.0925 334.294 84.7449 334.294 85.5496Z" fill="#111827"/>
<circle cx="312.888" cy="272.218" r="27.411" fill="#DBEAFE"/>
<path fill-rule="evenodd" clip-rule="evenodd" d="M315.628 262.535C315.352 262.535 315.128 262.759 315.128 263.035V267.283H309.854C309.578 267.283 309.354 267.507 309.354 267.783V272.532H303.73C303.454 272.532 303.23 272.756 303.23 273.032V280.405H301.981C301.705 280.405 301.481 280.629 301.481 280.905C301.481 281.181 301.705 281.405 301.981 281.405H323.85C324.126 281.405 324.35 281.181 324.35 280.905C324.35 280.629 324.126 280.405 323.85 280.405H322.1V280.405V263.035C322.1 262.759 321.876 262.535 321.6 262.535H315.628ZM310.354 268.283H315.128V280.405L310.354 280.405V268.283ZM304.23 280.405V273.532H309.354V280.405H304.23Z" fill="#111827"/>
<circle cx="27.411" cy="260.674" r="27.411" fill="#DBEAFE"/>
<path fill-rule="evenodd" clip-rule="evenodd" d="M24.15 271.072C24.3647 271.14 24.5155 271.336 24.5155 271.561V274.171C24.5155 274.447 24.7394 274.671 25.0155 274.671H29.8073C30.0835 274.671 30.3073 274.447 30.3073 274.171V271.561C30.3073 271.336 30.4581 271.14 30.6729 271.072C31.2933 270.878 31.8899 270.63 32.4571 270.333C32.6566 270.228 32.902 270.26 33.0612 270.419L34.9075 272.266C35.1028 272.461 35.4194 272.461 35.6146 272.266L39.0029 268.878C39.1982 268.682 39.1982 268.366 39.0029 268.17L37.1566 266.324C36.9974 266.165 36.9653 265.919 37.0698 265.72C37.3667 265.153 37.6151 264.556 37.8096 263.936C37.8769 263.721 38.073 263.57 38.2981 263.57H40.9085C41.1846 263.57 41.4085 263.346 41.4085 263.07V258.278C41.4085 258.002 41.1846 257.778 40.9085 257.778H38.2981C38.0731 257.778 37.8769 257.628 37.8096 257.413C37.6151 256.792 37.3667 256.196 37.0698 255.628C36.9653 255.429 36.9974 255.184 37.1566 255.024L39.003 253.178C39.1982 252.983 39.1982 252.666 39.003 252.471L35.6146 249.083C35.4194 248.887 35.1028 248.887 34.9075 249.083L33.0612 250.929C32.902 251.088 32.6566 251.12 32.4571 251.016C31.8899 250.719 31.2933 250.47 30.6729 250.276C30.4581 250.209 30.3073 250.013 30.3073 249.788V247.177C30.3073 246.901 30.0835 246.677 29.8073 246.677H25.0155C24.7394 246.677 24.5155 246.901 24.5155 247.177V249.788C24.5155 250.013 24.3647 250.209 24.15 250.276C23.5295 250.471 22.9328 250.719 22.3656 251.016C22.1662 251.12 21.9208 251.088 21.7616 250.929L19.9152 249.083C19.7199 248.887 19.4033 248.887 19.208 249.083L15.8197 252.471C15.6245 252.666 15.6245 252.983 15.8197 253.178L17.6662 255.024C17.8254 255.184 17.8574 255.429 17.753 255.629C17.4561 256.196 17.2077 256.792 17.0133 257.413C16.946 257.628 16.7498 257.778 16.5247 257.778H13.9143C13.6381 257.778 13.4143 258.002 13.4143 258.278V263.07C13.4143 263.346 13.6381 263.57 13.9143 263.57H16.5247C16.7498 263.57 16.946 263.721 17.0133 263.936C17.2077 264.556 17.4561 265.153 17.753 265.72C17.8575 265.919 17.8254 266.165 17.6662 266.324L15.8198 268.17C15.6245 268.366 15.6245 268.682 15.8198 268.877L19.2081 272.266C19.4033 272.461 19.7199 272.461 19.9152 272.266L21.7616 270.419C21.9208 270.26 22.1662 270.228 22.3656 270.333C22.9328 270.629 23.5295 270.878 24.15 271.072ZM34.4099 260.674C34.4099 264.539 31.2766 267.673 27.4114 267.673C23.5462 267.673 20.4128 264.539 20.4128 260.674C20.4128 256.809 23.5462 253.676 27.4114 253.676C31.2766 253.676 34.4099 256.809 34.4099 260.674Z" fill="#111827"/>
<defs>
<linearGradient id="paint0_linear_2956_17645" x1="173.195" y1="185.66" x2="162.273" y2="196.248" gradientUnits="userSpaceOnUse">
<stop stop-color="#1E3A8A"/>
<stop offset="1" stop-color="#1E3A8A" stop-opacity="0"/>
</linearGradient>
<linearGradient id="paint1_linear_2956_17645" x1="200.352" y1="156.335" x2="189.43" y2="166.922" gradientUnits="userSpaceOnUse">
<stop stop-color="#1E3A8A" stop-opacity="0"/>
<stop offset="1" stop-color="#1E3A8A"/>
</linearGradient>
</defs>
</svg>
