<svg width="240" height="233" viewBox="0 0 240 233" fill="none" xmlns="http://www.w3.org/2000/svg">
<path d="M66.0658 98.28C76.1907 88.1552 92.6062 88.1552 102.731 98.28L121.064 116.613L102.731 134.945C92.6062 145.07 76.1907 145.07 66.0658 134.945V134.945C55.941 124.82 55.941 108.405 66.0658 98.28V98.28Z" stroke="#2563EB" stroke-width="14"/>
<path d="M175.917 135.112C165.792 145.237 149.376 145.237 139.251 135.112L120.919 116.779L139.251 98.4466C149.376 88.3218 165.792 88.3218 175.917 98.4466V98.4466C186.041 108.571 186.041 124.987 175.917 135.112V135.112Z" stroke="#2563EB" stroke-width="14"/>
<path d="M109.807 116.612L120.907 128.026L113.71 135.216L102.355 124.063L109.807 116.612Z" fill="url(#paint0_linear_3541_34358)"/>
<path d="M128.522 97.9194L139.648 109.293L132.464 116.498L121.072 105.369L128.522 97.9194Z" fill="url(#paint1_linear_3541_34358)"/>
<path d="M120.636 1.39185C88.2935 1.39185 59.061 14.7081 38.1222 36.1571M160.319 8.40212C176.295 14.2579 190.614 23.5479 202.382 35.378M219.005 56.51C229.747 74.0295 235.94 94.6395 235.94 116.696C235.94 135.313 231.528 152.899 223.692 168.467M209.389 190.307C201.142 200.24 191.259 208.766 180.153 215.472M146.524 229.082C138.202 230.991 129.537 232 120.636 232C95.5819 232 72.394 224.009 53.482 210.437M13.776 160.089C8.33137 146.695 5.33203 132.046 5.33203 116.696C5.33203 100.854 8.52674 85.7588 14.3071 72.0186" stroke="#D4D4D8" stroke-linecap="round" stroke-linejoin="round"/>
<path d="M218.242 140.201C214.069 157.599 205.194 174.098 191.617 187.676C180.156 199.137 166.614 207.247 152.207 212.006M211.729 74.4591C217.959 87.8985 221.055 102.432 221.017 116.959M129.957 216.646C118.766 217.684 107.433 216.848 96.4687 214.14M67.3879 201.817C61.0899 197.869 55.1347 193.156 49.6554 187.676C34.2322 172.253 24.877 153.06 21.5898 133.063M28.1409 77.6258C33.0348 66.0286 40.2063 55.1643 49.6554 45.7152C59.4075 35.9632 70.6668 28.6371 82.6835 23.737M119.42 16.3214C145.514 16.0073 171.707 25.8052 191.617 45.7152" stroke="#D4D4D8" stroke-linecap="round" stroke-linejoin="round"/>
<ellipse cx="128.619" cy="1.39179" rx="1.39179" ry="1.39179" fill="#D4D4D8"/>
<ellipse cx="21.5881" cy="126.418" rx="1.39179" ry="1.39179" fill="#D4D4D8"/>
<ellipse cx="152.437" cy="227.141" rx="1.39179" ry="1.39179" fill="#D4D4D8"/>
<ellipse cx="30.7459" cy="50.0078" rx="18.1463" ry="18.1463" fill="#DBEAFE"/>
<path fill-rule="evenodd" clip-rule="evenodd" d="M22.251 42.7858C22.251 42.5096 22.4748 42.2858 22.751 42.2858H38.739C39.0152 42.2858 39.239 42.5096 39.239 42.7858V47.9632C39.239 48.2394 39.0152 48.4632 38.739 48.4632H22.751C22.4748 48.4632 22.251 48.2394 22.251 47.9632V42.7858ZM35.7642 46.5328C36.4039 46.5328 36.9225 46.0142 36.9225 45.3745C36.9225 44.7348 36.4039 44.2162 35.7642 44.2162C35.1245 44.2162 34.6059 44.7348 34.6059 45.3745C34.6059 46.0142 35.1245 46.5328 35.7642 46.5328ZM22.251 52.052C22.251 51.7758 22.4748 51.552 22.751 51.552H38.739C39.0152 51.552 39.239 51.7758 39.239 52.052V57.2295C39.239 57.5056 39.0152 57.7295 38.739 57.7295H22.751C22.4748 57.7295 22.251 57.5056 22.251 57.2295V52.052ZM35.7642 55.799C36.4039 55.799 36.9225 55.2804 36.9225 54.6407C36.9225 54.001 36.4039 53.4825 35.7642 53.4825C35.1245 53.4825 34.6059 54.001 34.6059 54.6407C34.6059 55.2804 35.1245 55.799 35.7642 55.799Z" fill="#111827"/>
<ellipse cx="221.015" cy="52.4023" rx="18.1463" ry="18.1463" fill="#DBEAFE"/>
<path fill-rule="evenodd" clip-rule="evenodd" d="M228.526 52.1876V46.3529C228.526 45.8006 228.079 45.3529 227.526 45.3529H221.179H214.832C214.28 45.3529 213.832 45.7995 213.832 46.3518L213.832 52.1876C213.832 56.5912 216.287 58.2649 220.748 60.5662C221.02 60.7066 221.342 60.7135 221.619 60.5836C225.967 58.5467 228.526 56.7001 228.526 52.1876ZM221.179 49.0473C221.455 49.0473 221.679 49.2712 221.679 49.5473V52.7629C221.679 53.039 221.455 53.2629 221.179 53.2629C220.903 53.2629 220.679 53.039 220.679 52.7629V49.5473C220.679 49.2712 220.903 49.0473 221.179 49.0473ZM222.144 55.6569C222.144 56.1897 221.712 56.6216 221.179 56.6216C220.646 56.6216 220.215 56.1897 220.215 55.6569C220.215 55.1242 220.646 54.6923 221.179 54.6923C221.712 54.6923 222.144 55.1242 222.144 55.6569Z" fill="#111827"/>
<ellipse cx="207.973" cy="179.233" rx="18.1463" ry="18.1463" fill="#DBEAFE"/>
<path fill-rule="evenodd" clip-rule="evenodd" d="M209.957 172.823C209.681 172.823 209.457 173.046 209.457 173.323V175.797H205.966C205.69 175.797 205.466 176.021 205.466 176.297V179.272H201.912C201.636 179.272 201.412 179.496 201.412 179.772V184.484H200.754C200.478 184.484 200.254 184.708 200.254 184.984C200.254 185.26 200.478 185.484 200.754 185.484H215.231C215.508 185.484 215.731 185.26 215.731 184.984C215.731 184.708 215.508 184.484 215.231 184.484H214.073V184.484V173.323C214.073 173.046 213.849 172.823 213.573 172.823H209.957ZM206.466 176.797H209.457V184.484L206.466 184.484V176.797ZM202.412 184.484V180.272H205.466V184.484H202.412Z" fill="#111827"/>
<ellipse cx="18.9852" cy="171.591" rx="18.1463" ry="18.1463" fill="#DBEAFE"/>
<path fill-rule="evenodd" clip-rule="evenodd" d="M16.7033 178.435C16.9169 178.506 17.0679 178.702 17.0679 178.927V180.357C17.0679 180.633 17.2917 180.857 17.5679 180.857H20.4021C20.6782 180.857 20.9021 180.633 20.9021 180.357V178.927C20.9021 178.702 21.0531 178.506 21.2666 178.435C21.5922 178.326 21.9075 178.195 22.2106 178.043C22.4119 177.943 22.6571 177.974 22.8163 178.133L23.828 179.145C24.0232 179.34 24.3398 179.34 24.5351 179.145L26.5392 177.141C26.7344 176.946 26.7344 176.629 26.5392 176.434L25.5275 175.422C25.3683 175.263 25.3368 175.018 25.4376 174.816C25.5894 174.513 25.7205 174.198 25.829 173.872C25.9002 173.659 26.0958 173.508 26.3209 173.508H27.7512C28.0273 173.508 28.2512 173.284 28.2512 173.008V170.174C28.2512 169.898 28.0273 169.674 27.7512 169.674H26.3209C26.0958 169.674 25.9002 169.523 25.8291 169.309C25.7205 168.984 25.5895 168.668 25.4376 168.365C25.3368 168.164 25.3683 167.919 25.5275 167.759L26.5392 166.748C26.7345 166.552 26.7345 166.236 26.5392 166.041L24.5351 164.037C24.3398 163.841 24.0233 163.841 23.828 164.037L22.8163 165.048C22.6571 165.207 22.4119 165.239 22.2106 165.138C21.9075 164.986 21.5922 164.855 21.2666 164.747C21.0531 164.676 20.9021 164.48 20.9021 164.255V162.825C20.9021 162.548 20.6782 162.325 20.4021 162.325H17.5679C17.2917 162.325 17.0679 162.548 17.0679 162.825V164.255C17.0679 164.48 16.9169 164.676 16.7033 164.747C16.3777 164.855 16.0624 164.986 15.7593 165.138C15.558 165.239 15.3128 165.207 15.1536 165.048L14.1419 164.037C13.9466 163.841 13.6301 163.841 13.4348 164.037L11.4307 166.041C11.2354 166.236 11.2354 166.552 11.4307 166.748L12.4425 167.76C12.6016 167.919 12.6332 168.164 12.5323 168.365C12.3805 168.668 12.2494 168.984 12.1409 169.309C12.0698 169.523 11.8742 169.674 11.6491 169.674H10.2188C9.94261 169.674 9.71875 169.898 9.71875 170.174V173.008C9.71875 173.284 9.94261 173.508 10.2188 173.508H11.6491C11.8742 173.508 12.0698 173.659 12.141 173.872C12.2494 174.198 12.3805 174.513 12.5323 174.816C12.6332 175.018 12.6016 175.263 12.4425 175.422L11.4307 176.434C11.2354 176.629 11.2354 176.946 11.4307 177.141L13.4348 179.145C13.6301 179.34 13.9467 179.34 14.1419 179.145L15.1536 178.133C15.3128 177.974 15.558 177.943 15.7593 178.043C16.0624 178.195 16.3777 178.326 16.7033 178.435ZM23.6181 171.591C23.6181 174.15 21.5437 176.224 18.985 176.224C16.4262 176.224 14.3519 174.15 14.3519 171.591C14.3519 169.032 16.4262 166.958 18.985 166.958C21.5437 166.958 23.6181 169.032 23.6181 171.591Z" fill="#111827"/>
<defs>
<linearGradient id="paint0_linear_3541_34358" x1="115.494" y1="121.931" x2="108.264" y2="128.94" gradientUnits="userSpaceOnUse">
<stop stop-color="#1E3A8A"/>
<stop offset="1" stop-color="#1E3A8A" stop-opacity="0"/>
</linearGradient>
<linearGradient id="paint1_linear_3541_34358" x1="133.473" y1="102.517" x2="126.243" y2="109.526" gradientUnits="userSpaceOnUse">
<stop stop-color="#1E3A8A" stop-opacity="0"/>
<stop offset="1" stop-color="#1E3A8A"/>
</linearGradient>
</defs>
</svg>
