<svg width="234" height="237" viewBox="0 0 234 237" fill="none" xmlns="http://www.w3.org/2000/svg">
<path d="M27.8705 42.9394L36.0177 40.0029L29.401 34.4154L27.8705 42.9394ZM7.97514 77.63L1.39639 83.2621L9.56327 86.1434L7.97514 77.63ZM209.376 47.0318L208.223 38.4486L201.366 43.738L209.376 47.0318ZM225.853 77.1602L224.301 85.6802L232.456 82.7645L225.853 77.1602ZM132.527 233L140.565 236.223L139.338 227.651L132.527 233ZM99.1377 232.662L92.4373 227.175L91.0359 235.721L99.1377 232.662ZM32.2844 39.0259C33.1615 38.0712 34.0544 37.1314 34.9627 36.2069L33.8926 35.1557C32.9726 36.0921 32.0682 37.0441 31.1798 38.0111L32.2844 39.0259ZM37.7336 33.479C38.6724 32.5853 39.6261 31.7073 40.5943 30.8454L39.597 29.725C38.6162 30.598 37.6502 31.4873 36.6994 32.3926L37.7336 33.479ZM43.5417 28.3091C44.5379 27.4804 45.5482 26.6682 46.5723 25.873L45.6523 24.6883C44.615 25.4938 43.5915 26.3165 42.5824 27.1559L43.5417 28.3091ZM49.6828 23.5402C50.7322 22.7804 51.7948 22.0379 52.8702 21.3132L52.0318 20.0693C50.9425 20.8035 49.8661 21.5556 48.8032 22.3252L49.6828 23.5402ZM56.1308 19.1947C57.2286 18.5075 58.3387 17.8384 59.4608 17.1877L58.7083 15.8901C57.5716 16.5493 56.447 17.2272 55.3349 17.9233L56.1308 19.1947ZM62.8565 15.2945C63.9979 14.6832 65.1507 14.0906 66.3146 13.5172L65.6517 12.1717C64.4726 12.7526 63.3047 13.3529 62.1483 13.9721L62.8565 15.2945ZM69.8313 11.8582C71.0111 11.326 72.2015 10.8131 73.4019 10.3199L72.832 8.93242C71.6157 9.43204 70.4098 9.95168 69.2145 10.4909L69.8313 11.8582ZM77.0224 8.90418C78.2353 8.45359 79.4577 8.0229 80.6894 7.61253L80.2152 6.18944C78.9674 6.60522 77.7288 7.04157 76.5 7.49809L77.0224 8.90418ZM84.3987 6.44655C85.6392 6.07976 86.8884 5.73337 88.1459 5.40776L87.7699 3.95565C86.4958 4.28554 85.2302 4.6365 83.9734 5.00811L84.3987 6.44655ZM91.9248 4.49771C93.1866 4.21651 94.4561 3.95609 95.733 3.71681L95.4568 2.24247C94.1631 2.48489 92.8768 2.74873 91.5985 3.03363L91.9248 4.49771ZM99.5663 3.06579C100.844 2.87104 102.129 2.69736 103.42 2.54512L103.244 1.05544C101.936 1.20966 100.635 1.38561 99.3403 1.58292L99.5663 3.06579ZM107.289 2.1551C108.576 2.04727 109.869 1.96067 111.168 1.89566L111.092 0.397534C109.777 0.463385 108.467 0.551104 107.164 0.660339L107.289 2.1551ZM115.053 1.76618C115.701 1.75541 116.35 1.75 117 1.75V0.25C116.341 0.25 115.684 0.255478 115.028 0.266391L115.053 1.76618ZM117 1.75C117.684 1.75 118.366 1.75598 119.047 1.76789L119.073 0.26812C118.384 0.256057 117.692 0.25 117 0.25V1.75ZM123.132 1.91102C124.497 1.98291 125.856 2.07865 127.208 2.19785L127.34 0.703647C125.97 0.582897 124.593 0.485911 123.211 0.4131L123.132 1.91102ZM131.274 2.62904C132.63 2.79737 133.98 2.98937 135.321 3.20464L135.559 1.72358C134.2 1.50549 132.833 1.31098 131.458 1.14045L131.274 2.62904ZM139.345 3.92422C140.685 4.18868 142.017 4.47648 143.34 4.78716L143.683 3.32689C142.343 3.01211 140.993 2.72054 139.636 2.4526L139.345 3.92422ZM147.301 5.79254C148.618 6.15221 149.926 6.53477 151.225 6.93976L151.671 5.50781C150.356 5.09749 149.031 4.7099 147.696 4.34549L147.301 5.79254ZM155.105 8.22691C156.392 8.67983 157.669 9.15505 158.936 9.65213L159.484 8.25587C158.201 7.75226 156.907 7.27078 155.602 6.8119L155.105 8.22691ZM162.713 11.2135C163.964 11.7572 165.204 12.3225 166.432 12.909L167.078 11.5555C165.834 10.9613 164.578 10.3885 163.31 9.8377L162.713 11.2135ZM170.089 14.7365C171.298 15.3679 172.494 16.0202 173.678 16.693L174.419 15.3889C173.22 14.7074 172.008 14.0466 170.783 13.4069L170.089 14.7365ZM177.195 18.7757C178.355 19.4912 179.503 20.2268 180.636 20.9821L181.468 19.7339C180.32 18.9688 179.158 18.2237 177.982 17.4988L177.195 18.7757ZM183.997 23.3091C185.104 24.1048 186.196 24.9197 187.273 25.7534L188.191 24.5671C187.1 23.7227 185.994 22.8972 184.872 22.0911L183.997 23.3091ZM190.462 28.3118C191.509 29.1834 192.542 30.0734 193.558 30.9811L194.557 29.8624C193.528 28.943 192.482 28.0415 191.421 27.1586L190.462 28.3118ZM196.558 33.7577C197.542 34.7007 198.509 35.661 199.459 36.6382L200.534 35.5926C199.572 34.6028 198.593 33.6301 197.596 32.6749L196.558 33.7577ZM202.257 39.6189C203.171 40.6285 204.069 41.6544 204.948 42.6961L206.094 41.7286C205.204 40.6735 204.295 39.6343 203.368 38.6117L202.257 39.6189ZM5.32809 83.2027C4.93157 84.5062 4.55706 85.8193 4.20498 87.1416L5.65447 87.5275C6.00203 86.2222 6.37174 84.926 6.76315 83.6393L5.32809 83.2027ZM3.22068 91.1173C2.9166 92.4448 2.63497 93.7809 2.37619 95.1252L3.84914 95.4087C4.10461 94.0817 4.38264 92.7627 4.68281 91.4523L3.22068 91.1173ZM1.67228 99.1601C1.46177 100.505 1.27401 101.857 1.10943 103.217L2.59856 103.397C2.76105 102.055 2.94641 100.72 3.15423 99.3921L1.67228 99.1601ZM0.687853 107.291C0.57126 108.646 0.477627 110.008 0.407345 111.377L1.90537 111.453C1.97477 110.103 2.06722 108.758 2.18233 107.419L0.687853 107.291ZM0.267449 115.469C0.255832 116.151 0.25 116.833 0.25 117.517H1.75C1.75 116.842 1.75576 116.168 1.76723 115.495L0.267449 115.469ZM0.25 117.517C0.25 118.179 0.255448 118.838 0.266301 119.497L1.7661 119.472C1.75538 118.822 1.75 118.17 1.75 117.517H0.25ZM0.396167 123.437C0.46146 124.756 0.548455 126.069 0.656802 127.376L2.15168 127.252C2.0447 125.962 1.9588 124.665 1.89433 123.362L0.396167 123.437ZM1.04853 131.305C1.20132 132.615 1.37561 133.919 1.57104 135.216L3.05429 134.992C2.86135 133.712 2.68928 132.425 2.53844 131.131L1.04853 131.305ZM2.22408 139.104C2.46453 140.402 2.72626 141.693 3.00889 142.975L4.47374 142.652C4.19473 141.386 3.93635 140.112 3.69898 138.831L2.22408 139.104ZM3.92347 146.815C4.25047 148.092 4.59835 149.361 4.96671 150.621L6.40642 150.2C6.04279 148.956 5.69938 147.704 5.37658 146.443L3.92347 146.815ZM6.13755 154.387C6.55019 155.64 6.98326 156.883 7.43639 158.116L8.84437 157.599C8.39706 156.381 7.96955 155.154 7.56222 153.918L6.13755 154.387ZM8.86021 161.798C9.3561 163.018 9.87187 164.229 10.4071 165.428L11.7769 164.817C11.2486 163.633 10.7394 162.438 10.2499 161.233L8.86021 161.798ZM12.0753 169.004C12.6524 170.188 13.2488 171.361 13.864 172.522L15.1895 171.82C14.5821 170.674 13.9934 169.516 13.4238 168.347L12.0753 169.004ZM15.7702 175.979C16.4254 177.121 17.0993 178.251 17.7913 179.369L19.0666 178.579C18.3834 177.476 17.7182 176.36 17.0713 175.232L15.7702 175.979ZM19.9249 182.688C20.6551 183.783 21.4033 184.866 22.1689 185.934L23.3883 185.061C22.6325 184.006 21.8939 182.937 21.1729 181.856L19.9249 182.688ZM24.521 189.104C25.323 190.148 26.142 191.177 26.9778 192.193L28.1359 191.239C27.3108 190.237 26.5022 189.22 25.7104 188.19L24.521 189.104ZM29.5365 195.197C30.4063 196.184 31.2924 197.157 32.1944 198.114L33.2861 197.085C32.3956 196.14 31.5208 195.18 30.662 194.206L29.5365 195.197ZM34.9489 200.941C35.8827 201.867 36.832 202.778 37.7964 203.673L38.8167 202.574C37.8646 201.69 36.9274 200.791 36.0055 199.876L34.9489 200.941ZM40.7339 206.309C41.7276 207.171 42.7359 208.016 43.7584 208.844L44.7026 207.679C43.6932 206.861 42.6977 206.027 41.7167 205.176L40.7339 206.309ZM46.8665 211.277C47.9155 212.07 48.9783 212.845 50.0543 213.603L50.918 212.377C49.8557 211.629 48.8066 210.863 47.771 210.08L46.8665 211.277ZM53.3188 215.821C54.4188 216.541 55.5316 217.243 56.6568 217.927L57.4357 216.645C56.325 215.97 55.2265 215.277 54.1406 214.566L53.3188 215.821ZM60.0649 219.919C61.2104 220.563 62.3679 221.188 63.5369 221.794L64.2272 220.463C63.0733 219.865 61.9307 219.247 60.7999 218.612L60.0649 219.919ZM67.0709 223.55C68.2574 224.115 69.455 224.66 70.6632 225.186L71.2613 223.81C70.0687 223.292 68.8867 222.753 67.7154 222.196L67.0709 223.55ZM74.3103 226.698C75.5321 227.18 76.764 227.642 78.0055 228.084L78.5083 226.671C77.2829 226.235 76.0671 225.779 74.8611 225.303L74.3103 226.698ZM81.7448 229.343C82.9962 229.741 84.2568 230.118 85.5261 230.474L85.9312 229.03C84.6784 228.678 83.4342 228.306 82.199 227.914L81.7448 229.343ZM89.3457 231.475C90.621 231.787 91.9045 232.077 93.1958 232.345L93.5014 230.877C92.2268 230.612 90.96 230.325 89.7012 230.018L89.3457 231.475ZM138.558 232.79C139.873 232.543 141.181 232.274 142.48 231.984L142.152 230.52C140.87 230.807 139.58 231.072 138.281 231.315L138.558 232.79ZM146.373 231.042C147.667 230.705 148.953 230.347 150.229 229.967L149.801 228.529C148.541 228.904 147.272 229.258 145.995 229.59L146.373 231.042ZM154.044 228.759C155.311 228.333 156.569 227.886 157.817 227.419L157.29 226.014C156.059 226.476 154.817 226.917 153.567 227.337L154.044 228.759ZM161.542 225.948C162.776 225.436 164 224.903 165.212 224.35L164.59 222.985C163.393 223.531 162.185 224.057 160.967 224.563L161.542 225.948ZM168.825 222.627C170.021 222.031 171.204 221.415 172.376 220.78L171.661 219.461C170.505 220.088 169.336 220.696 168.156 221.284L168.825 222.627ZM175.863 218.811C177.015 218.135 178.154 217.439 179.28 216.724L178.476 215.458C177.364 216.163 176.24 216.85 175.103 217.518L175.863 218.811ZM182.622 214.522C183.724 213.768 184.812 212.996 185.887 212.206L184.998 210.998C183.938 211.777 182.863 212.54 181.775 213.283L182.622 214.522ZM189.072 209.78C190.119 208.953 191.153 208.108 192.171 207.247L191.202 206.102C190.197 206.952 189.177 207.786 188.142 208.602L189.072 209.78ZM195.183 204.609C196.172 203.713 197.145 202.8 198.103 201.871L197.058 200.795C196.113 201.712 195.152 202.613 194.176 203.498L195.183 204.609ZM200.928 199.035C201.854 198.074 202.763 197.097 203.655 196.105L202.54 195.102C201.659 196.082 200.761 197.046 199.848 197.995L200.928 199.035ZM206.281 193.084C207.139 192.062 207.98 191.026 208.803 189.975L207.622 189.05C206.81 190.087 205.98 191.111 205.133 192.119L206.281 193.084ZM211.218 186.782C212.004 185.705 212.773 184.614 213.523 183.509L212.282 182.666C211.541 183.757 210.783 184.834 210.007 185.897L211.218 186.782ZM215.714 180.16C216.425 179.032 217.118 177.891 217.791 176.737L216.495 175.981C215.831 177.12 215.147 178.246 214.445 179.36L215.714 180.16ZM219.75 173.245C220.382 172.072 220.995 170.886 221.588 169.689L220.244 169.023C219.658 170.205 219.053 171.375 218.429 172.534L219.75 173.245ZM223.303 166.073C223.853 164.859 224.383 163.635 224.893 162.4L223.507 161.827C223.004 163.047 222.48 164.255 221.937 165.453L223.303 166.073ZM226.357 158.673C226.823 157.424 227.269 156.166 227.693 154.897L226.271 154.421C225.852 155.673 225.412 156.916 224.952 158.148L226.357 158.673ZM228.897 151.082C229.276 149.805 229.634 148.52 229.971 147.226L228.519 146.849C228.187 148.126 227.833 149.395 227.459 150.655L228.897 151.082ZM230.911 143.334C231.202 142.034 231.471 140.726 231.719 139.41L230.245 139.133C230 140.432 229.735 141.723 229.448 143.006L230.911 143.334ZM232.391 135.467C232.592 134.153 232.771 132.831 232.928 131.502L231.439 131.326C231.284 132.637 231.107 133.943 230.908 135.241L232.391 135.467ZM233.331 127.517C233.443 126.191 233.532 124.859 233.6 123.521L232.101 123.446C232.035 124.767 231.947 126.083 231.837 127.392L233.331 127.517ZM233.733 119.525C233.744 118.857 233.75 118.188 233.75 117.517H232.25C232.25 118.18 232.244 118.841 232.233 119.5L233.733 119.525ZM233.75 117.517C233.75 116.825 233.744 116.134 233.732 115.444L232.232 115.47C232.244 116.151 232.25 116.834 232.25 117.517H233.75ZM233.589 111.301C233.517 109.916 233.421 108.537 233.301 107.165L231.807 107.296C231.925 108.65 232.02 110.011 232.091 111.379L233.589 111.301ZM232.869 103.042C232.701 101.666 232.508 100.297 232.292 98.9364L230.811 99.1712C231.024 100.515 231.214 101.866 231.38 103.225L232.869 103.042ZM231.571 94.8534C231.306 93.4932 231.017 92.1414 230.706 90.7985L229.245 91.1375C229.552 92.4632 229.837 93.7976 230.099 95.1404L231.571 94.8534ZM229.697 86.7769C229.337 85.4395 228.953 84.1116 228.547 82.7936L227.113 83.2354C227.514 84.5364 227.893 85.8473 228.249 87.1675L229.697 86.7769Z" fill="#D4D4D8"/>
<ellipse cx="117.002" cy="117.518" rx="75.449" ry="75.7855" fill="#EFF6FF"/>
<path d="M75.1404 93.8655L117.655 69.9753L159.869 93.6882L160.575 142.447L117.328 167.447L74.9639 142.447L75.1404 93.8655Z" fill="#2563EB"/>
<path d="M75.1404 93.8655L117.655 69.9753L159.869 93.6882M75.1404 93.8655L74.9639 142.447L117.328 167.447M75.1404 93.8655L117.328 117.307M117.328 167.447L160.575 142.447L159.869 93.6882M117.328 167.447V117.307M159.869 93.6882L117.328 117.307" stroke="#EFF6FF" stroke-linecap="round"/>
<path d="M117.326 167.447L117.326 231.574" stroke="#D4D4D8" stroke-width="1.5" stroke-linecap="round" stroke-dasharray="4 4"/>
<path d="M160.578 93.3596L217.982 61.5349" stroke="#D4D4D8" stroke-width="1.5" stroke-linecap="round" stroke-dasharray="4 4"/>
<path d="M74.9643 93.7883L16.7871 61.5349" stroke="#D4D4D8" stroke-width="1.5" stroke-linecap="round" stroke-dasharray="4 4"/>
</svg>
