<svg width="296" height="180" viewBox="0 0 296 180" fill="none" xmlns="http://www.w3.org/2000/svg">
<ellipse cx="74.6581" cy="19.7538" rx="19.7538" ry="19.7538" fill="#DBEAFE"/>
<path fill-rule="evenodd" clip-rule="evenodd" d="M70.6227 18.2405C70.6227 18.4681 70.6473 18.6526 70.6903 18.7879C70.7395 18.9233 70.801 19.0709 70.8872 19.2308C70.9179 19.28 70.9302 19.3292 70.9302 19.3722C70.9302 19.4338 70.8933 19.4953 70.8133 19.5568L70.4259 19.8151C70.3705 19.852 70.3152 19.8704 70.2659 19.8704C70.2044 19.8704 70.1429 19.8397 70.0814 19.7843C69.9953 19.6921 69.9215 19.5937 69.86 19.4953C69.7985 19.3907 69.737 19.2738 69.6693 19.1324C69.1896 19.6982 68.5869 19.9812 67.8611 19.9812C67.3444 19.9812 66.9324 19.8335 66.631 19.5383C66.3296 19.2431 66.1758 18.8495 66.1758 18.3574C66.1758 17.8346 66.3604 17.4102 66.7355 17.0904C67.1107 16.7706 67.6089 16.6107 68.2424 16.6107C68.4515 16.6107 68.6668 16.6291 68.8944 16.6599C69.1219 16.6906 69.3557 16.7398 69.6017 16.7952V16.3462C69.6017 15.8787 69.5033 15.5528 69.3126 15.3621C69.1158 15.1714 68.7837 15.0792 68.3101 15.0792C68.0948 15.0792 67.8734 15.1038 67.6458 15.1591C67.4182 15.2145 67.1968 15.2821 66.9816 15.3682C66.8832 15.4113 66.8093 15.4359 66.7663 15.4482C66.7232 15.4605 66.6925 15.4667 66.6679 15.4667C66.5818 15.4667 66.5387 15.4051 66.5387 15.276V14.9746C66.5387 14.8762 66.551 14.8024 66.5818 14.7593C66.6125 14.7163 66.6679 14.6732 66.754 14.6302C66.9693 14.5195 67.2276 14.4272 67.529 14.3534C67.8303 14.2734 68.1502 14.2365 68.4884 14.2365C69.2204 14.2365 69.7555 14.4026 70.0999 14.7347C70.4382 15.0669 70.6104 15.5712 70.6104 16.2478V18.2405H70.6227ZM68.1256 19.1754C68.3285 19.1754 68.5376 19.1385 68.7591 19.0647C68.9805 18.9909 69.1773 18.8556 69.3434 18.6711C69.4418 18.5542 69.5156 18.4251 69.5525 18.2775C69.5894 18.1298 69.614 17.9515 69.614 17.7424V17.484C69.4356 17.441 69.245 17.4041 69.0481 17.3795C68.8513 17.3549 68.6607 17.3426 68.47 17.3426C68.0579 17.3426 67.7565 17.4225 67.5536 17.5886C67.3506 17.7547 67.2522 17.9884 67.2522 18.2959C67.2522 18.585 67.326 18.8002 67.4798 18.9479C67.6274 19.1016 67.8426 19.1754 68.1256 19.1754ZM73.0644 19.8397C72.9537 19.8397 72.8799 19.8212 72.8307 19.7782C72.7815 19.7413 72.7385 19.6552 72.7016 19.5383L71.2562 14.7839C71.2193 14.6609 71.2008 14.581 71.2008 14.5379C71.2008 14.4395 71.25 14.3842 71.3484 14.3842H71.9512C72.0681 14.3842 72.148 14.4026 72.1911 14.4457C72.2403 14.4826 72.2772 14.5687 72.3141 14.6855L73.3474 18.7572L74.3069 14.6855C74.3376 14.5625 74.3745 14.4826 74.4237 14.4457C74.4729 14.4088 74.559 14.3842 74.6697 14.3842H75.1618C75.2786 14.3842 75.3586 14.4026 75.4078 14.4457C75.457 14.4826 75.5001 14.5687 75.5247 14.6855L76.4964 18.8064L77.5605 14.6855C77.5974 14.5625 77.6404 14.4826 77.6835 14.4457C77.7327 14.4088 77.8127 14.3842 77.9234 14.3842H78.4954C78.5938 14.3842 78.6491 14.4334 78.6491 14.5379C78.6491 14.5642 78.6447 14.5904 78.6395 14.6205L78.6395 14.6205L78.6368 14.6363C78.6307 14.6732 78.6184 14.7224 78.5938 14.7901L77.1115 19.5445C77.0746 19.6675 77.0315 19.7474 76.9823 19.7843C76.9331 19.8212 76.8532 19.8458 76.7486 19.8458H76.2197C76.1028 19.8458 76.0229 19.8274 75.9737 19.7843C75.9244 19.7413 75.8814 19.6613 75.8568 19.5383L74.9035 15.5712L73.9563 19.5322C73.9255 19.6552 73.8886 19.7351 73.8394 19.7782C73.7902 19.8212 73.7041 19.8397 73.5934 19.8397H73.0644ZM80.9679 20.0058C80.6481 20.0058 80.3282 19.9689 80.0207 19.895C79.7132 19.8212 79.4733 19.7413 79.3134 19.649C79.215 19.5937 79.1473 19.5322 79.1227 19.4768C79.0981 19.4215 79.0858 19.3599 79.0858 19.3046V18.9909C79.0858 18.8618 79.135 18.8002 79.2273 18.8002C79.2642 18.8002 79.3011 18.8064 79.338 18.8187C79.3618 18.8266 79.3934 18.8397 79.4293 18.8546C79.449 18.8628 79.47 18.8715 79.4918 18.8802C79.7009 18.9725 79.9285 19.0463 80.1683 19.0955C80.4143 19.1447 80.6542 19.1693 80.9002 19.1693C81.2877 19.1693 81.5891 19.1016 81.7982 18.9663C82.0073 18.831 82.118 18.6342 82.118 18.382C82.118 18.2098 82.0627 18.0683 81.952 17.9515C81.8413 17.8346 81.6322 17.7301 81.3308 17.6316L80.4389 17.3549C79.99 17.2134 79.6578 17.0043 79.4549 16.7275C79.2519 16.4569 79.1473 16.1555 79.1473 15.8357C79.1473 15.5774 79.2027 15.3498 79.3134 15.153C79.4241 14.9562 79.5717 14.7839 79.7562 14.6486C79.9408 14.5072 80.1499 14.4026 80.3959 14.3288C80.6419 14.255 80.9002 14.2242 81.1709 14.2242C81.3062 14.2242 81.4476 14.2304 81.5829 14.2488C81.7244 14.2673 81.8535 14.2919 81.9827 14.3165L81.9827 14.3165L81.9827 14.3165C82.1057 14.3473 82.2226 14.378 82.3333 14.4149C82.444 14.4518 82.5301 14.4887 82.5916 14.5256C82.6777 14.5748 82.7393 14.624 82.7762 14.6794C82.8131 14.7286 82.8315 14.7962 82.8315 14.8824V15.1714C82.8315 15.3006 82.7823 15.3682 82.69 15.3682C82.6408 15.3682 82.5609 15.3436 82.4563 15.2944C82.1057 15.1345 81.7121 15.0546 81.2754 15.0546C80.9248 15.0546 80.6481 15.1099 80.4574 15.2268C80.2667 15.3436 80.1683 15.522 80.1683 15.7742C80.1683 15.9464 80.2298 16.094 80.3528 16.2109C80.4758 16.3277 80.7034 16.4446 81.0294 16.5491L81.9028 16.8259C82.3456 16.9674 82.6654 17.1642 82.8561 17.4164C83.0468 17.6685 83.139 17.9576 83.139 18.2775C83.139 18.5419 83.0837 18.7818 82.9791 18.9909C82.8684 19.2 82.7208 19.3845 82.5301 19.5322C82.3395 19.6859 82.1119 19.7966 81.8474 19.8766C81.5706 19.9627 81.2816 20.0058 80.9679 20.0058ZM82.1303 22.9948C80.1067 24.4894 77.1668 25.2828 74.6389 25.2828C71.0962 25.2828 67.9041 23.9728 65.4931 21.7955C65.3024 21.6233 65.4746 21.3895 65.7022 21.5248C68.31 23.0379 71.5267 23.9543 74.8542 23.9543C77.0991 23.9543 79.5655 23.4869 81.8351 22.5274C82.1733 22.3736 82.4624 22.7488 82.1303 22.9948ZM80.6049 21.9554C81.263 21.8754 82.7145 21.7032 82.9729 22.0354C83.2312 22.3613 82.6838 23.7329 82.4378 24.3418C82.364 24.5263 82.5239 24.6001 82.6899 24.4587C83.7724 23.5484 84.0554 21.6479 83.8339 21.3711C83.6125 21.1005 81.712 20.8667 80.5557 21.6786C80.3773 21.8078 80.4081 21.98 80.6049 21.9554Z" fill="#111827"/>
<ellipse cx="223.348" cy="19.7538" rx="19.7538" ry="19.7538" fill="#DBEAFE"/>
<path fill-rule="evenodd" clip-rule="evenodd" d="M223.347 28.9516C227.965 28.9516 231.709 25.2079 231.709 20.5898C231.709 15.9717 227.965 12.228 223.347 12.228C218.73 12.228 214.988 15.9695 214.985 20.5857H218.167C218.169 17.7267 220.488 15.4096 223.347 15.4096C226.208 15.4096 228.527 17.7289 228.527 20.5898C228.527 23.4508 226.208 25.77 223.347 25.77L223.337 25.77V28.9516L223.347 28.9516ZM223.337 22.4741H220.103V25.7076H223.337V22.4741ZM220.103 25.7181H217.619V23.6402H215.541V25.7181H217.619V28.2029H220.103V25.7181Z" fill="#111827"/>
<ellipse cx="275.288" cy="62.6879" rx="19.7538" ry="19.7538" fill="#DBEAFE"/>
<path fill-rule="evenodd" clip-rule="evenodd" d="M271.11 60.2784L276.067 55.9805L270.695 67.8696H266.882L271.11 60.2784ZM274.611 62.9477L276.726 56.986L283.694 69.3953H270.798L278.667 68.0433L274.611 62.9477Z" fill="#111827"/>
<ellipse cx="20.7108" cy="62.6879" rx="19.7538" ry="19.7538" fill="#DBEAFE"/>
<g clip-path="url(#clip0_3541_34387)">
<path fill-rule="evenodd" clip-rule="evenodd" d="M24.5031 60.2846C24.8511 60.9304 25.1375 61.8415 25.0405 62.9258H25.0623C26.2653 62.9258 27.2405 63.901 27.2405 65.1039C27.2405 66.3069 26.2653 67.2821 25.0623 67.2821H19.9007L19.8821 67.2821L19.8836 67.2854L18.7063 67.2865H16.1534C15.0036 67.2098 14.0946 66.2527 14.0946 65.0834C14.0946 63.864 15.0832 62.8755 16.3026 62.8755C17.1645 62.8755 17.9111 63.3693 18.2748 64.0895L20.7314 61.5289C19.9203 60.5195 18.7711 59.7933 17.4557 59.522C18.261 58.6482 19.4151 58.1008 20.6971 58.1008C22.3201 58.1008 23.7383 58.9782 24.5031 60.2846ZM28.297 60.3764C29.8061 61.3971 30.7981 63.1245 30.7981 65.0835C30.7981 68.2124 28.2675 70.7502 25.1414 70.7621V70.7641H16.0843V70.7579C13.0493 70.6432 10.624 68.1465 10.624 65.0834C10.624 63.1634 11.5769 61.4659 13.0357 60.4381C13.9532 57.08 17.0258 54.6116 20.6749 54.6116C24.3017 54.6116 27.3589 57.0498 28.297 60.3764Z" fill="#111827"/>
</g>
<path d="M275.289 86.1454L270.958 93.6454H279.619L275.289 86.1454ZM271.903 125.416L271.47 124.803L271.903 125.416ZM236.544 151.298L238.333 150.034L237.468 148.809L235.679 150.072L236.544 151.298ZM241.913 147.507L245.492 144.98L244.627 143.755L241.047 146.282L241.913 147.507ZM249.071 142.454L252.65 139.927L251.785 138.701L248.206 141.228L249.071 142.454ZM256.229 137.4L259.808 134.873L258.943 133.647L255.364 136.174L256.229 137.4ZM263.387 132.346L266.966 129.819L266.101 128.593L262.522 131.12L263.387 132.346ZM270.546 127.292L272.335 126.028L271.47 124.803L269.68 126.066L270.546 127.292ZM272.335 126.028C272.912 125.621 273.43 125.151 273.884 124.63L272.753 123.645C272.377 124.076 271.948 124.466 271.47 124.803L272.335 126.028ZM275.79 120.952C275.953 120.281 276.039 119.586 276.039 118.88H274.539C274.539 119.465 274.468 120.041 274.333 120.597L275.79 120.952ZM276.039 118.88V116.834H274.539V118.88H276.039ZM276.039 112.743V108.651H274.539V112.743H276.039ZM276.039 104.559V100.467H274.539V104.559H276.039ZM276.039 96.3751V92.2832H274.539V96.3751H276.039Z" fill="#2563EB"/>
<path d="M223.348 43.2114L219.018 50.7114H227.678L223.348 43.2114ZM219.962 82.4817L220.395 83.0944L219.962 82.4817ZM184.603 108.364L186.393 107.1L185.528 105.875L183.738 107.139L184.603 108.364ZM189.972 104.573L193.551 102.047L192.686 100.821L189.107 103.348L189.972 104.573ZM197.13 99.5196L200.71 96.9926L199.844 95.7672L196.265 98.2942L197.13 99.5196ZM204.289 94.4657L207.868 91.9387L207.003 90.7133L203.424 93.2403L204.289 94.4657ZM211.447 89.4118L215.026 86.8848L214.161 85.6594L210.582 88.1864L211.447 89.4118ZM218.605 84.3579L220.395 83.0944L219.53 81.869L217.74 83.1325L218.605 84.3579ZM220.395 83.0944C220.971 82.6874 221.49 82.2171 221.944 81.6965L220.813 80.7108C220.437 81.142 220.007 81.5317 219.53 81.869L220.395 83.0944ZM223.849 78.0179C224.013 77.3469 224.098 76.652 224.098 75.9464H222.598C222.598 76.5313 222.528 77.107 222.392 77.6628L223.849 78.0179ZM224.098 75.9464V73.9005H222.598V75.9464H224.098ZM224.098 69.8086V65.7167H222.598V69.8086H224.098ZM224.098 61.6248V57.533H222.598V61.6248H224.098ZM224.098 53.4411V49.3492H222.598V53.4411H224.098Z" fill="#2563EB"/>
<path d="M20.7095 85.8677L25.0397 93.3677H16.3794L20.7095 85.8677ZM24.0955 125.138L24.528 124.525L24.0955 125.138ZM59.4541 151.02L57.6646 149.757L58.5297 148.531L60.3193 149.795L59.4541 151.02ZM54.0855 147.23L50.5063 144.703L51.3715 143.477L54.9506 146.004L54.0855 147.23ZM46.9272 142.176L43.3481 139.649L44.2132 138.423L47.7923 140.95L46.9272 142.176ZM39.769 137.122L36.1898 134.595L37.055 133.37L40.6341 135.897L39.769 137.122ZM32.6107 132.068L29.0316 129.541L29.8967 128.316L33.4758 130.843L32.6107 132.068ZM25.4524 127.014L23.6629 125.751L24.528 124.525L26.3176 125.789L25.4524 127.014ZM23.6629 125.751C23.0864 125.344 22.5679 124.873 22.114 124.353L23.2447 123.367C23.6206 123.798 24.0502 124.188 24.528 124.525L23.6629 125.751ZM20.2082 120.674C20.0446 120.003 19.9595 119.308 19.9595 118.603H21.4595C21.4595 119.188 21.5301 119.763 21.6655 120.319L20.2082 120.674ZM19.9595 118.603V116.557H21.4595V118.603H19.9595ZM19.9595 112.465V108.373H21.4595V112.465H19.9595ZM19.9595 104.281V100.189H21.4595V104.281H19.9595ZM19.9595 96.0974V92.0055H21.4595V96.0974H19.9595Z" fill="#2563EB"/>
<path d="M74.6578 43.2114L78.9879 50.7114H70.3276L74.6578 43.2114ZM78.0437 82.4817L78.4763 81.869L78.0437 82.4817ZM113.402 108.364L111.613 107.1L112.478 105.875L114.268 107.139L113.402 108.364ZM108.034 104.573L104.455 102.047L105.32 100.821L108.899 103.348L108.034 104.573ZM100.875 99.5196L97.2963 96.9926L98.1615 95.7672L101.741 98.2942L100.875 99.5196ZM93.7172 94.4657L90.1381 91.9387L91.0032 90.7133L94.5823 93.2403L93.7172 94.4657ZM86.5589 89.4118L82.9798 86.8848L83.845 85.6595L87.4241 88.1864L86.5589 89.4118ZM79.4007 84.3579L77.6111 83.0944L78.4763 81.869L80.2658 83.1325L79.4007 84.3579ZM77.6111 83.0944C77.0347 82.6874 76.5161 82.2171 76.0623 81.6965L77.1929 80.7108C77.5689 81.142 77.9985 81.5317 78.4763 81.869L77.6111 83.0944ZM74.1564 78.0179C73.9929 77.3469 73.9078 76.652 73.9078 75.9464H75.4078C75.4078 76.5313 75.4783 77.107 75.6138 77.6628L74.1564 78.0179ZM73.9078 75.9464V73.9005H75.4078V75.9464H73.9078ZM73.9078 69.8086V65.7167H75.4078V69.8086H73.9078ZM73.9078 61.6248V57.533H75.4078V61.6248H73.9078ZM73.9078 53.4411V49.3492H75.4078V53.4411H73.9078Z" fill="#2563EB"/>
<g filter="url(#filter0_bi_3541_34387)">
<mask id="path-13-inside-1_3541_34387" fill="white">
<path fill-rule="evenodd" clip-rule="evenodd" d="M86.4889 179.531C70.7038 176.882 58.6855 163.318 58.6855 146.984C58.6855 129.393 72.6232 115.015 90.1933 114.022C89.7588 111.898 89.5308 109.701 89.5308 107.451C89.5308 89.2163 104.507 74.4343 122.982 74.4343C138.557 74.4343 151.646 84.9411 155.371 99.1655C160.825 95.3543 167.486 93.1146 174.677 93.1146C188.829 93.1146 200.929 101.789 205.816 114.045C206.58 113.993 207.351 113.967 208.128 113.967C226.603 113.967 241.579 128.749 241.579 146.984C241.579 163.617 229.118 177.377 212.907 179.666V180H86.4889V179.531Z"/>
</mask>
<path fill-rule="evenodd" clip-rule="evenodd" d="M86.4889 179.531C70.7038 176.882 58.6855 163.318 58.6855 146.984C58.6855 129.393 72.6232 115.015 90.1933 114.022C89.7588 111.898 89.5308 109.701 89.5308 107.451C89.5308 89.2163 104.507 74.4343 122.982 74.4343C138.557 74.4343 151.646 84.9411 155.371 99.1655C160.825 95.3543 167.486 93.1146 174.677 93.1146C188.829 93.1146 200.929 101.789 205.816 114.045C206.58 113.993 207.351 113.967 208.128 113.967C226.603 113.967 241.579 128.749 241.579 146.984C241.579 163.617 229.118 177.377 212.907 179.666V180H86.4889V179.531Z" fill="#DBEAFE"/>
<path d="M86.4889 179.531H87.4889V178.685L86.6544 178.545L86.4889 179.531ZM90.1933 114.022L90.2497 115.02L91.4049 114.955L91.173 113.821L90.1933 114.022ZM155.371 99.1655L154.403 99.4188L154.767 100.807L155.943 99.9852L155.371 99.1655ZM205.816 114.045L204.887 114.415L205.157 115.091L205.883 115.042L205.816 114.045ZM212.907 179.666L212.767 178.675L211.907 178.797V179.666H212.907ZM212.907 180V181H213.907V180H212.907ZM86.4889 180H85.4889V181H86.4889V180ZM86.6544 178.545C71.3336 175.974 59.6855 162.812 59.6855 146.984H57.6855C57.6855 163.824 70.0741 177.791 86.3234 180.518L86.6544 178.545ZM59.6855 146.984C59.6855 129.938 73.1947 115.984 90.2497 115.02L90.1368 113.023C72.0516 114.046 57.6855 128.848 57.6855 146.984H59.6855ZM91.173 113.821C90.7519 111.763 90.5308 109.633 90.5308 107.451H88.5308C88.5308 109.769 88.7657 112.033 89.2136 114.222L91.173 113.821ZM90.5308 107.451C90.5308 89.7809 105.047 75.4343 122.982 75.4343V73.4343C103.967 73.4343 88.5308 88.6517 88.5308 107.451H90.5308ZM122.982 75.4343C138.099 75.4343 150.793 85.6313 154.403 99.4188L156.338 98.9122C152.499 84.2509 139.015 73.4343 122.982 73.4343V75.4343ZM155.943 99.9852C161.234 96.2881 167.697 94.1146 174.677 94.1146V92.1146C167.275 92.1146 160.415 94.4205 154.798 98.3458L155.943 99.9852ZM174.677 94.1146C188.413 94.1146 200.149 102.532 204.887 114.415L206.745 113.674C201.709 101.045 189.246 92.1146 174.677 92.1146V94.1146ZM205.883 115.042C206.625 114.993 207.373 114.967 208.128 114.967V112.967C207.329 112.967 206.535 112.994 205.749 113.047L205.883 115.042ZM208.128 114.967C226.063 114.967 240.579 129.314 240.579 146.984H242.579C242.579 128.185 227.143 112.967 208.128 112.967V114.967ZM240.579 146.984C240.579 163.102 228.502 176.454 212.767 178.675L213.047 180.656C229.734 178.3 242.579 164.132 242.579 146.984H240.579ZM211.907 179.666V180H213.907V179.666H211.907ZM212.907 179H86.4889V181H212.907V179ZM87.4889 180V179.531H85.4889V180H87.4889Z" fill="url(#paint0_linear_3541_34387)" mask="url(#path-13-inside-1_3541_34387)"/>
</g>
<defs>
<filter id="filter0_bi_3541_34387" x="6.68555" y="22.4343" width="286.894" height="209.566" filterUnits="userSpaceOnUse" color-interpolation-filters="sRGB">
<feFlood flood-opacity="0" result="BackgroundImageFix"/>
<feGaussianBlur in="BackgroundImageFix" stdDeviation="26"/>
<feComposite in2="SourceAlpha" operator="in" result="effect1_backgroundBlur_3541_34387"/>
<feBlend mode="normal" in="SourceGraphic" in2="effect1_backgroundBlur_3541_34387" result="shape"/>
<feColorMatrix in="SourceAlpha" type="matrix" values="0 0 0 0 0 0 0 0 0 0 0 0 0 0 0 0 0 0 127 0" result="hardAlpha"/>
<feOffset/>
<feGaussianBlur stdDeviation="22.5"/>
<feComposite in2="hardAlpha" operator="arithmetic" k2="-1" k3="1"/>
<feColorMatrix type="matrix" values="0 0 0 0 1 0 0 0 0 1 0 0 0 0 1 0 0 0 1 0"/>
<feBlend mode="normal" in2="shape" result="effect2_innerShadow_3541_34387"/>
</filter>
<linearGradient id="paint0_linear_3541_34387" x1="150.132" y1="74.4343" x2="150.132" y2="180" gradientUnits="userSpaceOnUse">
<stop stop-color="#60A5FA"/>
<stop offset="1" stop-color="#1E4FD8" stop-opacity="0"/>
<stop offset="1" stop-color="#60A5FA" stop-opacity="0"/>
</linearGradient>
<clipPath id="clip0_3541_34387">
<rect width="20.1741" height="20.1741" fill="white" transform="translate(10.624 52.6008)"/>
</clipPath>
</defs>
</svg>
