<svg width="1408" height="480" viewBox="0 0 1408 480" fill="none" xmlns="http://www.w3.org/2000/svg">
<rect width="1408" height="480" fill="#0F0F11"/>
<rect x="352" y="188" width="104" height="104" rx="4" fill="#1D4ED8"/>
<path d="M433.726 214.899L420.56 208.565C419.028 207.825 417.207 208.137 416.009 209.335L390.791 232.344L379.802 224.01C378.782 223.228 377.344 223.292 376.396 224.156L372.876 227.364C371.71 228.416 371.71 230.25 372.866 231.302L382.397 240L372.866 248.698C371.71 249.75 371.71 251.584 372.876 252.636L376.396 255.844C377.354 256.708 378.782 256.772 379.802 255.99L390.791 247.646L416.021 270.665C417.209 271.863 419.03 272.175 420.562 271.435L433.74 265.091C435.126 264.425 436 263.029 436 261.487V218.499C436 216.967 435.114 215.561 433.73 214.895L433.726 214.899ZM420.006 254.534L400.861 240.002L420.006 225.47V254.534Z" fill="#EEEEF0"/>
<rect x="488" y="188" width="104" height="104" rx="4" fill="#1D4ED8"/>
<path fill-rule="evenodd" clip-rule="evenodd" d="M508 208H572V272H508V208ZM538.08 260H514.08V264H538.08V260ZM531.2 216.32V221.12H527.52V237.92H531.2V242.88H518.08V237.92H521.76V221.12H518.08V216.32H531.2ZM538.72 242.08C540.355 242.896 542.173 243.282 544 243.2C546.255 243.085 548.426 242.306 550.24 240.96C551.284 240.005 552.057 238.79 552.48 237.44C552.963 236.108 553.18 234.695 553.12 233.28V216H547.2V233.12C547.325 234.321 546.981 235.525 546.24 236.48C545.625 237.255 544.666 237.675 543.68 237.6C542.783 237.636 541.894 237.414 541.12 236.96C540.297 236.415 539.544 235.77 538.88 235.04L535.2 239.2C536.188 240.365 537.381 241.341 538.72 242.08Z" fill="#EEEEF0"/>
<rect x="624" y="188" width="104" height="104" rx="4" fill="#1D4ED8"/>
<path fill-rule="evenodd" clip-rule="evenodd" d="M702.288 221.885L688.469 208V243.549L700.029 260.933L702.381 258.381L702.288 221.885ZM663.248 208.003L698.688 262.082L688.771 272L653.312 218.04L663.248 208.003ZM663.531 272L649.712 258.115L649.619 221.619L651.971 219.067L663.531 236.451V272Z" fill="#EEEEF0"/>
<rect x="760" y="188" width="104" height="104" rx="4" fill="#1D4ED8"/>
<path d="M783.788 241.647V241.596V233.764H785.505V242.25C785.585 242.933 785.527 243.626 785.333 244.287C785.139 244.948 784.814 245.563 784.377 246.095C783.566 246.795 782.526 247.173 781.455 247.159L781.275 245.877C781.967 245.878 782.633 245.622 783.147 245.159C783.608 244.621 783.788 243.89 783.788 241.647ZM796.598 240.636C796.598 241.597 796.598 242.456 796.675 243.2H795.149L795.047 241.674C794.728 242.214 794.271 242.66 793.724 242.966C793.177 243.272 792.559 243.428 791.932 243.418C790.445 243.418 788.676 242.61 788.676 239.316V233.842H790.394V238.97C790.394 240.751 790.945 241.944 792.496 241.944C792.815 241.947 793.131 241.887 793.427 241.766C793.722 241.646 793.991 241.467 794.217 241.242C794.442 241.016 794.621 240.747 794.741 240.452C794.862 240.157 794.922 239.84 794.918 239.521V233.778H796.636V240.585L796.598 240.636ZM799.854 236.892C799.854 235.7 799.854 234.726 799.777 233.841H801.315L801.392 235.443C801.735 234.865 802.228 234.39 802.819 234.069C803.411 233.748 804.078 233.594 804.75 233.623C807.032 233.623 808.75 235.533 808.75 238.379C808.75 241.737 806.686 243.404 804.455 243.404C803.885 243.429 803.317 243.307 802.807 243.049C802.297 242.79 801.863 242.405 801.546 241.93V247.057H799.854V236.93V236.892ZM801.546 239.392C801.55 239.624 801.576 239.856 801.623 240.084C801.768 240.653 802.099 241.157 802.563 241.517C803.028 241.877 803.599 242.072 804.186 242.071C805.994 242.071 807.058 240.596 807.058 238.456C807.058 236.584 806.058 234.982 804.25 234.982C803.535 235.041 802.866 235.358 802.368 235.875C801.87 236.392 801.578 237.072 801.546 237.789V239.392ZM811.81 233.833L813.874 239.357C814.092 239.973 814.322 240.716 814.476 241.267C814.656 240.703 814.848 239.985 815.079 239.319L816.95 233.833H818.757L816.194 240.498C814.912 243.703 814.13 245.356 812.951 246.356C812.357 246.899 811.633 247.278 810.849 247.459L810.426 246.023C810.974 245.843 811.483 245.56 811.925 245.19C812.551 244.68 813.047 244.03 813.374 243.293C813.444 243.165 813.491 243.026 813.515 242.882C813.5 242.728 813.461 242.576 813.399 242.434L809.913 233.807H811.784L811.81 233.833ZM823.317 231.143V233.835H825.779V235.117H823.317V240.168C823.317 241.321 823.651 241.988 824.599 241.988C824.936 241.993 825.272 241.954 825.599 241.872L825.676 243.154C825.186 243.324 824.669 243.402 824.151 243.385C823.807 243.406 823.464 243.353 823.143 243.229C822.822 243.106 822.532 242.914 822.292 242.667C821.77 241.969 821.532 241.099 821.625 240.232V235.104H820.164V233.822H821.651V231.541L823.317 231.143ZM828.943 238.816C828.908 239.251 828.968 239.688 829.119 240.097C829.269 240.506 829.507 240.878 829.815 241.186C830.124 241.495 830.495 241.732 830.905 241.883C831.314 242.034 831.751 242.094 832.186 242.059C833.065 242.079 833.939 241.913 834.749 241.572L835.044 242.854C834.049 243.264 832.979 243.46 831.904 243.431C831.277 243.474 830.648 243.38 830.06 243.157C829.472 242.934 828.94 242.587 828.499 242.139C828.058 241.691 827.72 241.153 827.506 240.561C827.293 239.97 827.21 239.34 827.264 238.713C827.264 235.893 828.943 233.663 831.686 233.663C834.762 233.663 835.531 236.355 835.531 238.073C835.548 238.337 835.548 238.603 835.531 238.867H828.904L828.943 238.816ZM833.968 237.534C834.017 237.191 833.992 236.842 833.896 236.51C833.799 236.177 833.631 235.87 833.406 235.607C833.18 235.345 832.9 235.134 832.586 234.989C832.271 234.843 831.93 234.767 831.583 234.765C830.879 234.816 830.219 235.129 829.733 235.641C829.247 236.153 828.97 236.828 828.956 237.534H833.968ZM838.138 236.747C838.138 235.645 838.138 234.696 838.061 233.825H839.599V235.658H839.676C839.837 235.092 840.171 234.591 840.63 234.223C841.09 233.856 841.652 233.64 842.239 233.607C842.401 233.586 842.565 233.586 842.727 233.607V235.209C842.531 235.187 842.333 235.187 842.137 235.209C841.555 235.232 841.001 235.465 840.579 235.866C840.157 236.267 839.895 236.808 839.842 237.388C839.795 237.651 839.769 237.916 839.766 238.183V243.169H838.074V236.76L838.138 236.747Z" fill="#EEEEF0"/>
<path fill-rule="evenodd" clip-rule="evenodd" d="M839.567 246.107C840.068 244.071 840.397 242.262 840.549 240.521C840.408 242.442 840.074 244.311 839.567 246.107ZM838.832 248.345C836.108 251.294 830.889 255.388 821.567 257.34C817.721 258.345 807.266 259.383 796.216 255.489C793.656 254.488 787.937 251.666 785.176 248.268C789.207 259.1 799.704 266.823 812.018 266.823C824.303 266.823 834.78 259.136 838.832 248.345ZM840.347 234.455C840.213 233.56 840.034 232.636 839.808 231.664C840.033 232.578 840.214 233.509 840.347 234.455ZM838.835 228.521C834.784 217.726 824.306 210.036 812.018 210.036C799.717 210.036 789.228 217.744 785.188 228.558C786.756 226.768 790.523 223.308 797.075 221.016C801.311 219.389 812.008 217.142 822.67 219.752C825.924 220.473 833.126 222.486 838.835 228.521Z" fill="#EEEEF0"/>
<ellipse cx="833.048" cy="208.346" rx="4.37974" ry="4.34703" fill="#EEEEF0"/>
<ellipse cx="786.342" cy="213.981" rx="3.15303" ry="3.12948" fill="#EEEEF0"/>
<ellipse cx="790.693" cy="270.525" rx="5.51571" ry="5.47451" fill="#EEEEF0"/>
<path d="M896 188V292" stroke="#3F3F46" stroke-width="3"/>
<rect x="928" y="188" width="128" height="104" rx="4" fill="#27272A"/>
<path d="M948.367 246L952.523 234.359H954.695L958.914 246H956.992L954.727 239.516C954.549 238.984 954.354 238.367 954.141 237.664C953.932 236.956 953.688 236.102 953.406 235.102H953.781C953.51 236.107 953.268 236.966 953.055 237.68C952.846 238.393 952.661 239.005 952.5 239.516L950.289 246H948.367ZM950.625 242.938V241.453H956.656V242.938H950.625ZM962.125 240.875V246H960.414V237.32H962.047L962.062 239.445H961.867C962.122 238.669 962.49 238.102 962.969 237.742C963.453 237.383 964.039 237.203 964.727 237.203C965.32 237.203 965.839 237.328 966.281 237.578C966.729 237.828 967.076 238.198 967.32 238.688C967.57 239.172 967.695 239.773 967.695 240.492V246H965.984V240.711C965.984 240.076 965.82 239.581 965.492 239.227C965.169 238.872 964.721 238.695 964.148 238.695C963.763 238.695 963.417 238.781 963.109 238.953C962.807 239.12 962.568 239.365 962.391 239.688C962.214 240.01 962.125 240.406 962.125 240.875ZM973.195 246.172C972.492 246.172 971.865 245.992 971.312 245.633C970.766 245.268 970.336 244.75 970.023 244.078C969.711 243.406 969.555 242.607 969.555 241.68C969.555 240.742 969.711 239.94 970.023 239.273C970.341 238.602 970.773 238.089 971.32 237.734C971.872 237.38 972.497 237.203 973.195 237.203C973.721 237.203 974.148 237.289 974.477 237.461C974.805 237.633 975.065 237.836 975.258 238.07C975.456 238.305 975.609 238.521 975.719 238.719H975.805V234.359H977.516V246H975.844V244.648H975.719C975.609 244.846 975.456 245.065 975.258 245.305C975.06 245.539 974.794 245.742 974.461 245.914C974.133 246.086 973.711 246.172 973.195 246.172ZM973.57 244.711C974.06 244.711 974.471 244.583 974.805 244.328C975.143 244.073 975.401 243.716 975.578 243.258C975.755 242.799 975.844 242.268 975.844 241.664C975.844 241.06 975.755 240.534 975.578 240.086C975.406 239.638 975.151 239.289 974.812 239.039C974.474 238.789 974.06 238.664 973.57 238.664C973.076 238.664 972.659 238.794 972.32 239.055C971.982 239.315 971.727 239.672 971.555 240.125C971.388 240.573 971.305 241.086 971.305 241.664C971.305 242.247 971.391 242.768 971.562 243.227C971.734 243.685 971.99 244.047 972.328 244.312C972.667 244.578 973.081 244.711 973.57 244.711ZM984.008 246V237.32H985.641L985.68 239.312H985.547C985.672 238.828 985.865 238.43 986.125 238.117C986.385 237.799 986.69 237.562 987.039 237.406C987.388 237.25 987.753 237.172 988.133 237.172C988.763 237.172 989.276 237.367 989.672 237.758C990.073 238.148 990.341 238.685 990.477 239.367H990.258C990.367 238.898 990.562 238.503 990.844 238.18C991.125 237.852 991.461 237.602 991.852 237.43C992.247 237.258 992.674 237.172 993.133 237.172C993.648 237.172 994.115 237.284 994.531 237.508C994.948 237.732 995.279 238.065 995.523 238.508C995.768 238.945 995.891 239.497 995.891 240.164V246H994.18V240.336C994.18 239.747 994.016 239.323 993.688 239.062C993.365 238.802 992.982 238.672 992.539 238.672C992.18 238.672 991.87 238.747 991.609 238.898C991.349 239.049 991.146 239.26 991 239.531C990.859 239.797 990.789 240.104 990.789 240.453V246H989.109V240.219C989.109 239.75 988.958 239.375 988.656 239.094C988.354 238.812 987.971 238.672 987.508 238.672C987.19 238.672 986.893 238.747 986.617 238.898C986.346 239.044 986.128 239.263 985.961 239.555C985.799 239.841 985.719 240.198 985.719 240.625V246H984.008ZM1001.82 246.18C1001 246.18 1000.29 245.995 999.68 245.625C999.076 245.25 998.604 244.727 998.266 244.055C997.927 243.378 997.758 242.594 997.758 241.703C997.758 240.802 997.927 240.016 998.266 239.344C998.604 238.667 999.076 238.141 999.68 237.766C1000.29 237.391 1001 237.203 1001.82 237.203C1002.64 237.203 1003.35 237.391 1003.96 237.766C1004.58 238.141 1005.05 238.667 1005.38 239.344C1005.72 240.016 1005.89 240.802 1005.89 241.703C1005.89 242.594 1005.72 243.378 1005.38 244.055C1005.05 244.727 1004.58 245.25 1003.96 245.625C1003.35 245.995 1002.64 246.18 1001.82 246.18ZM1001.82 244.734C1002.35 244.734 1002.78 244.599 1003.12 244.328C1003.47 244.052 1003.73 243.685 1003.9 243.227C1004.07 242.763 1004.16 242.255 1004.16 241.703C1004.16 241.141 1004.07 240.63 1003.9 240.172C1003.73 239.708 1003.47 239.339 1003.12 239.062C1002.78 238.786 1002.35 238.648 1001.82 238.648C1001.3 238.648 1000.87 238.786 1000.52 239.062C1000.18 239.339 999.922 239.708 999.75 240.172C999.583 240.63 999.5 241.141 999.5 241.703C999.5 242.26 999.583 242.768 999.75 243.227C999.922 243.685 1000.18 244.052 1000.52 244.328C1000.87 244.599 1001.3 244.734 1001.82 244.734ZM1007.76 246V237.32H1009.41V238.711H1009.49C1009.65 238.242 1009.93 237.875 1010.32 237.609C1010.72 237.339 1011.17 237.203 1011.69 237.203C1011.8 237.203 1011.92 237.208 1012.05 237.219C1012.2 237.224 1012.31 237.232 1012.4 237.242V238.867C1012.34 238.852 1012.22 238.833 1012.04 238.812C1011.86 238.792 1011.68 238.781 1011.5 238.781C1011.11 238.781 1010.77 238.865 1010.45 239.031C1010.15 239.193 1009.9 239.422 1009.73 239.719C1009.55 240.01 1009.47 240.352 1009.47 240.742V246H1007.76ZM1017.32 246.18C1016.47 246.18 1015.73 245.995 1015.11 245.625C1014.49 245.255 1014.01 244.737 1013.68 244.07C1013.35 243.398 1013.18 242.615 1013.18 241.719C1013.18 240.828 1013.34 240.044 1013.67 239.367C1014.01 238.69 1014.47 238.161 1015.07 237.781C1015.67 237.396 1016.38 237.203 1017.18 237.203C1017.69 237.203 1018.18 237.286 1018.64 237.453C1019.11 237.62 1019.53 237.88 1019.89 238.234C1020.26 238.589 1020.54 239.042 1020.76 239.594C1020.97 240.146 1021.08 240.807 1021.08 241.578V242.172H1014.12V240.891H1020.2L1019.4 241.312C1019.4 240.781 1019.31 240.312 1019.14 239.906C1018.97 239.5 1018.73 239.185 1018.4 238.961C1018.08 238.732 1017.67 238.617 1017.19 238.617C1016.7 238.617 1016.29 238.734 1015.95 238.969C1015.61 239.198 1015.35 239.505 1015.16 239.891C1014.98 240.271 1014.89 240.69 1014.89 241.148V242C1014.89 242.589 1014.99 243.091 1015.2 243.508C1015.4 243.919 1015.68 244.232 1016.05 244.445C1016.42 244.659 1016.85 244.766 1017.34 244.766C1017.66 244.766 1017.96 244.719 1018.22 244.625C1018.48 244.531 1018.71 244.391 1018.9 244.203C1019.09 244.016 1019.23 243.786 1019.33 243.516L1020.94 243.859C1020.81 244.318 1020.58 244.721 1020.24 245.07C1019.91 245.419 1019.49 245.693 1019 245.891C1018.51 246.083 1017.95 246.18 1017.32 246.18ZM1024.14 246.117C1023.82 246.117 1023.55 246.008 1023.33 245.789C1023.1 245.565 1022.99 245.294 1022.99 244.977C1022.99 244.659 1023.1 244.388 1023.33 244.164C1023.55 243.94 1023.82 243.828 1024.14 243.828C1024.46 243.828 1024.73 243.94 1024.95 244.164C1025.18 244.388 1025.29 244.659 1025.29 244.977C1025.29 245.294 1025.18 245.565 1024.95 245.789C1024.73 246.008 1024.46 246.117 1024.14 246.117ZM1028.86 246.117C1028.54 246.117 1028.27 246.008 1028.05 245.789C1027.82 245.565 1027.71 245.294 1027.71 244.977C1027.71 244.659 1027.82 244.388 1028.05 244.164C1028.27 243.94 1028.54 243.828 1028.86 243.828C1029.18 243.828 1029.45 243.94 1029.67 244.164C1029.9 244.388 1030.01 244.659 1030.01 244.977C1030.01 245.294 1029.9 245.565 1029.67 245.789C1029.45 246.008 1029.18 246.117 1028.86 246.117ZM1033.58 246.117C1033.26 246.117 1032.99 246.008 1032.77 245.789C1032.54 245.565 1032.43 245.294 1032.43 244.977C1032.43 244.659 1032.54 244.388 1032.77 244.164C1032.99 243.94 1033.26 243.828 1033.58 243.828C1033.9 243.828 1034.17 243.94 1034.39 244.164C1034.61 244.388 1034.73 244.659 1034.73 244.977C1034.73 245.294 1034.61 245.565 1034.39 245.789C1034.17 246.008 1033.9 246.117 1033.58 246.117Z" fill="#EEEEF0"/>
</svg>
