<svg width="896" height="322" viewBox="0 0 896 322" fill="none" xmlns="http://www.w3.org/2000/svg">
<path d="M497.062 64.9512L768.874 64.951" stroke="url(#paint0_linear_1278_44980)" stroke-width="2"/>
<path d="M497.34 64.9512L127.978 64.9512" stroke="url(#paint1_linear_1278_44980)" stroke-width="2"/>
<path d="M497.34 257.57L640.622 257.57" stroke="url(#paint2_linear_1278_44980)" stroke-width="2"/>
<path d="M497.34 257.57L255.862 257.57" stroke="url(#paint3_linear_1278_44980)" stroke-width="2"/>
<path d="M768.873 192.511L502.825 192.511" stroke="url(#paint4_linear_1278_44980)" stroke-width="2"/>
<path d="M465.906 192.511L127.949 192.511" stroke="url(#paint5_linear_1278_44980)" stroke-width="2"/>
<path d="M672.682 128.788L522.664 128.788" stroke="url(#paint6_linear_1278_44980)" stroke-width="2"/>
<path d="M448.479 128.789L255.948 128.789" stroke="url(#paint7_linear_1278_44980)" stroke-width="2"/>
<path d="M576.262 0.583008L576.262 320.98" stroke="url(#paint8_linear_1278_44980)" stroke-width="2"/>
<path d="M352.352 1.55371L352.352 321.417" stroke="url(#paint9_linear_1278_44980)" stroke-width="2"/>
<path d="M640.619 63.7871L640.619 191.761" stroke="url(#paint10_linear_1278_44980)" stroke-width="2"/>
<path d="M288.586 33.0791L288.586 288.92" stroke="url(#paint11_linear_1278_44980)" stroke-width="2"/>
<circle cx="640.619" cy="128.788" r="6.25" fill="#60A5FA"/>
<circle cx="288.586" cy="128.789" r="6.25" fill="#60A5FA"/>
<path d="M522.665 148.554V100.747C522.665 96.329 519.083 92.7607 514.665 92.7607H467.349H420.033C415.615 92.7607 412.033 96.334 412.033 100.752C412.033 109.446 412.033 125.29 412.033 148.554C412.034 186.132 431.708 199.012 467.349 218.761C502.093 201.446 522.665 188.077 522.665 148.554Z" fill="#1D4ED8"/>
<path fill-rule="evenodd" clip-rule="evenodd" d="M471.513 118.797L465.442 117.285C465.896 117.285 466.384 117.249 466.933 117.208C467.642 117.156 468.454 117.096 469.432 117.096C473.075 117.096 476.024 118.419 478.799 120.121C479.183 120.33 479.513 120.77 479.85 121.218C480.122 121.58 480.397 121.947 480.707 122.201C482.095 122.768 483.483 123.146 484.871 122.957V122.39C486.432 122.768 487.993 124.659 487.993 125.982H480.881C480.707 125.982 480.36 126.171 480.187 126.36C480.36 126.549 480.707 126.927 480.881 126.927C481.208 126.927 481.565 126.917 481.941 126.906C483.16 126.87 484.586 126.828 485.911 127.116C485.887 127.16 485.862 127.206 485.836 127.255C485.294 128.247 484.294 130.08 483.136 128.818C483.136 128.44 476.371 128.629 474.636 129.007C474.289 129.007 473.942 129.763 474.115 130.142C474.892 132.198 476.734 133.48 478.46 134.682C479.432 135.359 480.367 136.01 481.054 136.759C485.911 140.919 487.473 144.7 486.432 151.885C483.825 163.083 479.727 164.973 471.742 168.656C470.694 169.14 469.578 169.654 468.391 170.224C465.442 171.737 463.707 175.329 464.228 178.922C465.442 186.674 476.718 188.753 478.973 179.678C479.667 176.086 478.799 170.981 472.554 169.468C475.33 168.145 477.932 166.632 480.36 164.931C480.707 164.552 481.054 164.552 481.401 164.931C488.34 171.926 490.075 184.783 478.626 192.346C470.473 197.262 460.238 193.102 456.942 183.648C453.646 174.006 458.85 163.607 468.044 161.527C474.636 160.393 481.401 152.83 478.452 145.834C477.143 142.695 473.364 139.556 470.172 136.905C469.134 136.043 468.159 135.232 467.35 134.49C466.893 134.191 466.147 134.26 465.315 134.336C464.568 134.405 463.752 134.48 463.013 134.301C463.36 134.018 463.571 133.735 463.782 133.453C463.993 133.17 464.204 132.888 464.551 132.605C462.99 131.558 462.022 131.414 460.826 131.237C460.294 131.158 459.718 131.072 459.023 130.898C459.544 129.763 461.789 128.442 463.35 128.253C463.303 127.76 463.271 127.334 463.244 126.962C463.074 124.625 463.057 124.399 460.064 122.768C461.844 121.474 463.417 121.761 464.945 122.039C466.544 122.331 468.093 122.613 469.779 121.066C467.697 120.31 465.615 119.554 463.707 118.23C464.685 118.301 465.645 118.49 466.602 118.678C468.192 118.99 469.77 119.3 471.394 119.064L471.513 118.797ZM456.942 167.388C448.615 161.716 448.095 147.347 457.462 141.108C464.401 136.381 472.207 138.083 477.411 146.402C478.105 147.725 478.105 149.805 477.758 151.317C476.371 156.422 472.901 159.258 468.217 160.393C469.605 159.258 470.646 157.557 470.993 155.666C472.554 145.078 457.462 143.944 458.156 155.288C457.983 158.502 460.238 160.771 464.575 161.527C462.319 163.04 460.411 164.363 458.33 167.199C457.983 167.767 457.636 167.767 456.942 167.388ZM454.85 175.591C452.18 176.136 449.364 176.709 446.707 177.976C447.921 172.493 452.258 168.712 457.462 168.712C456.074 170.603 455.381 173.061 455.207 175.518C455.088 175.543 454.969 175.567 454.85 175.591ZM477.229 123.404L477.75 123.971L477.056 124.349C476.709 124.538 476.535 124.349 476.362 124.16C476.015 123.593 477.056 123.215 477.229 123.404Z" fill="#EEEEF0"/>
<circle cx="192.521" cy="192.98" r="6.25" fill="#60A5FA"/>
<circle cx="800.498" cy="191.523" r="6.25" fill="#60A5FA"/>
<circle cx="192.521" cy="65.7881" r="6.25" fill="#60A5FA"/>
<circle cx="352.852" cy="255.57" r="6.25" fill="#60A5FA"/>
<circle cx="576.262" cy="257.57" r="6.25" fill="#60A5FA"/>
<circle cx="800.498" cy="63.373" r="6.25" fill="#60A5FA"/>
<rect x="768.551" y="33.4658" width="94.9189" height="62.9707" fill="#0F0F11"/>
<path d="M792.876 58.9512V48.5512H796.516L798.649 57.3245H799.089L801.249 48.5512H804.889V58.9512H802.956V50.2445H802.609L800.516 58.9512H797.129L795.036 50.2445H794.689V58.9512H792.876ZM810.296 59.1512C808.999 59.1512 808.03 58.7734 807.39 58.0178C806.759 57.2534 806.443 56.2312 806.443 54.9512C806.443 53.6712 806.759 52.6534 807.39 51.8978C808.03 51.1334 808.999 50.7512 810.296 50.7512C811.594 50.7512 812.563 51.1334 813.203 51.8978C813.843 52.6534 814.163 53.6712 814.163 54.9512C814.163 56.2312 813.843 57.2534 813.203 58.0178C812.563 58.7734 811.594 59.1512 810.296 59.1512ZM810.296 57.7778C810.927 57.7778 811.385 57.5378 811.67 57.0578C811.963 56.5689 812.11 55.8667 812.11 54.9512C812.11 54.0267 811.963 53.3245 811.67 52.8445C811.385 52.3645 810.927 52.1245 810.296 52.1245C809.674 52.1245 809.216 52.3645 808.923 52.8445C808.63 53.3245 808.483 54.0267 808.483 54.9512C808.483 55.8667 808.63 56.5689 808.923 57.0578C809.216 57.5378 809.674 57.7778 810.296 57.7778ZM820.053 59.1245C819.457 59.1245 818.977 59.0045 818.613 58.7645C818.257 58.5245 817.995 58.2401 817.826 57.9112H817.506V58.9512H815.679V48.2845H817.666V51.8445H817.986C818.173 51.5245 818.435 51.2667 818.773 51.0712C819.111 50.8756 819.542 50.7778 820.066 50.7778C820.768 50.7778 821.355 50.9512 821.826 51.2978C822.306 51.6445 822.666 52.1289 822.906 52.7512C823.146 53.3734 823.266 54.1023 823.266 54.9378C823.266 55.7556 823.146 56.4801 822.906 57.1112C822.675 57.7334 822.319 58.2267 821.839 58.5912C821.368 58.9467 820.773 59.1245 820.053 59.1245ZM819.533 57.6845C820.066 57.6845 820.479 57.4534 820.773 56.9912C821.066 56.5289 821.213 55.8489 821.213 54.9512C821.213 54.0534 821.066 53.3734 820.773 52.9112C820.479 52.4489 820.066 52.2178 819.533 52.2178C818.964 52.2178 818.506 52.4667 818.159 52.9645C817.822 53.4534 817.653 54.1156 817.653 54.9512C817.653 55.7778 817.822 56.4401 818.159 56.9378C818.506 57.4356 818.964 57.6845 819.533 57.6845ZM824.789 58.9512V50.9512H826.776V58.9512H824.789ZM825.776 49.9778C825.42 49.9778 825.149 49.8845 824.962 49.6978C824.776 49.5023 824.682 49.2534 824.682 48.9512C824.682 48.6401 824.776 48.3912 824.962 48.2045C825.149 48.0178 825.42 47.9245 825.776 47.9245C826.131 47.9245 826.402 48.0178 826.589 48.2045C826.776 48.3912 826.869 48.6401 826.869 48.9512C826.869 49.2534 826.776 49.5023 826.589 49.6978C826.402 49.8845 826.131 49.9778 825.776 49.9778ZM829.476 58.9512C829.236 58.6756 829.062 58.3601 828.956 58.0045C828.849 57.6489 828.796 57.1689 828.796 56.5645V48.2845H830.782V56.3512C830.782 57.0356 830.858 57.5645 831.009 57.9378C831.16 58.3023 831.356 58.6134 831.596 58.8712V58.9512H829.476ZM836.181 59.1512C834.945 59.1512 834.003 58.7734 833.354 58.0178C832.705 57.2534 832.381 56.2267 832.381 54.9378C832.381 54.0756 832.523 53.3334 832.807 52.7112C833.101 52.0889 833.527 51.6089 834.087 51.2712C834.656 50.9245 835.349 50.7512 836.167 50.7512C837.332 50.7512 838.221 51.1112 838.834 51.8312C839.456 52.5423 839.767 53.5912 839.767 54.9778V55.4178H834.314C834.358 56.1201 834.541 56.6801 834.861 57.0978C835.181 57.5156 835.625 57.7245 836.194 57.7245C836.629 57.7245 836.981 57.5956 837.247 57.3378C837.514 57.0801 837.696 56.7645 837.794 56.3912H839.674C839.585 56.8889 839.403 57.3467 839.127 57.7645C838.852 58.1823 838.469 58.5201 837.981 58.7778C837.501 59.0267 836.901 59.1512 836.181 59.1512ZM834.314 54.1378H837.847C837.812 53.4978 837.647 53.0001 837.354 52.6445C837.069 52.2889 836.669 52.1112 836.154 52.1112C835.629 52.1112 835.207 52.2845 834.887 52.6312C834.576 52.9689 834.385 53.4712 834.314 54.1378ZM789.719 82.9512V72.5512H793.346C795.177 72.5512 796.506 73.0089 797.333 73.9245C798.168 74.8312 798.586 76.1067 798.586 77.7512C798.586 79.3956 798.168 80.6756 797.333 81.5912C796.506 82.4978 795.177 82.9512 793.346 82.9512H789.719ZM791.773 81.3378H793.213C793.951 81.3378 794.559 81.2223 795.039 80.9912C795.519 80.7601 795.875 80.3867 796.106 79.8712C796.346 79.3467 796.466 78.6401 796.466 77.7512C796.466 76.8623 796.346 76.1556 796.106 75.6312C795.875 75.1067 795.519 74.7334 795.039 74.5112C794.559 74.2801 793.951 74.1645 793.213 74.1645H791.773V81.3378ZM803.321 83.1512C802.086 83.1512 801.143 82.7734 800.494 82.0178C799.846 81.2534 799.521 80.2267 799.521 78.9378C799.521 78.0756 799.663 77.3334 799.948 76.7112C800.241 76.0889 800.668 75.6089 801.228 75.2712C801.797 74.9245 802.49 74.7512 803.308 74.7512C804.472 74.7512 805.361 75.1112 805.974 75.8312C806.597 76.5423 806.908 77.5912 806.908 78.9778V79.4178H801.454C801.499 80.1201 801.681 80.6801 802.001 81.0978C802.321 81.5156 802.766 81.7245 803.334 81.7245C803.77 81.7245 804.121 81.5956 804.388 81.3378C804.654 81.0801 804.837 80.7645 804.934 80.3912H806.814C806.726 80.8889 806.543 81.3467 806.268 81.7645C805.992 82.1823 805.61 82.5201 805.121 82.7778C804.641 83.0267 804.041 83.1512 803.321 83.1512ZM801.454 78.1378H804.988C804.952 77.4978 804.788 77.0001 804.494 76.6445C804.21 76.2889 803.81 76.1112 803.294 76.1112C802.77 76.1112 802.348 76.2845 802.028 76.6312C801.717 76.9689 801.526 77.4712 801.454 78.1378ZM809.735 82.9512L807.402 75.0312V74.9512H809.402L811.189 81.3245H811.509L813.309 74.9512H815.135V75.0312L812.802 82.9512H809.735ZM816.351 82.9512V74.9512H818.338V82.9512H816.351ZM817.338 73.9778C816.982 73.9778 816.711 73.8845 816.525 73.6978C816.338 73.5023 816.245 73.2534 816.245 72.9512C816.245 72.6401 816.338 72.3912 816.525 72.2045C816.711 72.0178 816.982 71.9245 817.338 71.9245C817.694 71.9245 817.965 72.0178 818.151 72.2045C818.338 72.3912 818.431 72.6401 818.431 72.9512C818.431 73.2534 818.338 73.5023 818.151 73.6978C817.965 73.8845 817.694 73.9778 817.338 73.9778ZM823.585 83.1512C822.367 83.1512 821.443 82.7734 820.812 82.0178C820.18 81.2534 819.865 80.2312 819.865 78.9512C819.865 77.6089 820.194 76.5734 820.852 75.8445C821.518 75.1156 822.434 74.7512 823.598 74.7512C824.629 74.7512 825.443 75.0267 826.038 75.5778C826.634 76.1289 826.989 76.8845 827.105 77.8445H825.158C825.096 77.3112 824.932 76.9023 824.665 76.6178C824.398 76.3245 824.052 76.1778 823.625 76.1778C823.065 76.1778 822.638 76.4223 822.345 76.9112C822.052 77.3912 821.905 78.0712 821.905 78.9512C821.905 79.8312 822.047 80.5112 822.332 80.9912C822.625 81.4712 823.052 81.7112 823.612 81.7112C824.047 81.7112 824.398 81.5689 824.665 81.2845C824.932 80.9912 825.096 80.5778 825.158 80.0445H827.105C826.98 81.0045 826.616 81.7645 826.012 82.3245C825.416 82.8756 824.607 83.1512 823.585 83.1512ZM831.837 83.1512C830.601 83.1512 829.659 82.7734 829.01 82.0178C828.361 81.2534 828.037 80.2267 828.037 78.9378C828.037 78.0756 828.179 77.3334 828.463 76.7112C828.757 76.0889 829.183 75.6089 829.743 75.2712C830.312 74.9245 831.006 74.7512 831.823 74.7512C832.988 74.7512 833.877 75.1112 834.49 75.8312C835.112 76.5423 835.423 77.5912 835.423 78.9778V79.4178H829.97C830.015 80.1201 830.197 80.6801 830.517 81.0978C830.837 81.5156 831.281 81.7245 831.85 81.7245C832.286 81.7245 832.637 81.5956 832.903 81.3378C833.17 81.0801 833.352 80.7645 833.45 80.3912H835.33C835.241 80.8889 835.059 81.3467 834.783 81.7645C834.508 82.1823 834.126 82.5201 833.637 82.7778C833.157 83.0267 832.557 83.1512 831.837 83.1512ZM829.97 78.1378H833.503C833.468 77.4978 833.303 77.0001 833.01 76.6445C832.726 76.2889 832.326 76.1112 831.81 76.1112C831.286 76.1112 830.863 76.2845 830.543 76.6312C830.232 76.9689 830.041 77.4712 829.97 78.1378ZM839.792 83.1512C838.938 83.1512 838.254 83.0134 837.738 82.7378C837.223 82.4623 836.84 82.1112 836.592 81.6845C836.352 81.2578 836.218 80.8267 836.192 80.3912H838.085C838.12 80.6312 838.209 80.8534 838.352 81.0578C838.503 81.2623 838.703 81.4267 838.952 81.5512C839.209 81.6667 839.52 81.7245 839.885 81.7245C840.32 81.7245 840.64 81.6445 840.845 81.4845C841.049 81.3245 841.152 81.1201 841.152 80.8712C841.152 80.6401 841.063 80.4445 840.885 80.2845C840.707 80.1245 840.418 79.9778 840.018 79.8445L839.058 79.5245C838.605 79.3645 838.187 79.1912 837.805 79.0045C837.432 78.8089 837.129 78.5601 836.898 78.2578C836.676 77.9556 836.565 77.5689 836.565 77.0978C836.565 76.3956 836.827 75.8312 837.352 75.4045C837.885 74.9689 838.632 74.7512 839.592 74.7512C840.285 74.7512 840.854 74.8623 841.298 75.0845C841.743 75.2978 842.076 75.5912 842.298 75.9645C842.529 76.3289 842.663 76.7378 842.698 77.1912H840.872C840.827 76.8623 840.694 76.6001 840.472 76.4045C840.249 76.2089 839.929 76.1112 839.512 76.1112C839.147 76.1112 838.872 76.1867 838.685 76.3378C838.498 76.4801 838.405 76.6756 838.405 76.9245C838.405 77.1734 838.503 77.3778 838.698 77.5378C838.894 77.6978 839.187 77.8445 839.578 77.9778L840.538 78.2978C840.992 78.4401 841.405 78.6089 841.778 78.8045C842.152 78.9912 842.449 79.2356 842.672 79.5378C842.894 79.8401 843.005 80.2312 843.005 80.7112C843.005 81.4401 842.729 82.0312 842.178 82.4845C841.627 82.9289 840.832 83.1512 839.792 83.1512Z" fill="#EEEEF0"/>
<rect x="672.801" y="97.5098" width="94.7015" height="63.0371" fill="#0F0F11"/>
<path d="M702.319 121.774V111.374H704.372V120.134H708.852V121.774H702.319ZM713.333 121.974C712.036 121.974 711.067 121.597 710.427 120.841C709.796 120.077 709.48 119.054 709.48 117.774C709.48 116.494 709.796 115.477 710.427 114.721C711.067 113.957 712.036 113.574 713.333 113.574C714.631 113.574 715.6 113.957 716.24 114.721C716.88 115.477 717.2 116.494 717.2 117.774C717.2 119.054 716.88 120.077 716.24 120.841C715.6 121.597 714.631 121.974 713.333 121.974ZM713.333 120.601C713.965 120.601 714.422 120.361 714.707 119.881C715 119.392 715.147 118.69 715.147 117.774C715.147 116.85 715 116.148 714.707 115.668C714.422 115.188 713.965 114.948 713.333 114.948C712.711 114.948 712.253 115.188 711.96 115.668C711.667 116.148 711.52 116.85 711.52 117.774C711.52 118.69 711.667 119.392 711.96 119.881C712.253 120.361 712.711 120.601 713.333 120.601ZM721.903 121.974C720.685 121.974 719.761 121.597 719.13 120.841C718.499 120.077 718.183 119.054 718.183 117.774C718.183 116.432 718.512 115.397 719.17 114.668C719.837 113.939 720.752 113.574 721.917 113.574C722.948 113.574 723.761 113.85 724.357 114.401C724.952 114.952 725.308 115.708 725.423 116.668H723.477C723.414 116.134 723.25 115.726 722.983 115.441C722.717 115.148 722.37 115.001 721.943 115.001C721.383 115.001 720.957 115.246 720.663 115.734C720.37 116.214 720.223 116.894 720.223 117.774C720.223 118.654 720.365 119.334 720.65 119.814C720.943 120.294 721.37 120.534 721.93 120.534C722.365 120.534 722.717 120.392 722.983 120.108C723.25 119.814 723.414 119.401 723.477 118.868H725.423C725.299 119.828 724.934 120.588 724.33 121.148C723.734 121.699 722.925 121.974 721.903 121.974ZM729.595 121.948C728.866 121.948 728.262 121.77 727.782 121.414C727.302 121.05 726.942 120.557 726.702 119.934C726.471 119.303 726.355 118.579 726.355 117.761C726.355 116.926 726.475 116.197 726.715 115.574C726.955 114.952 727.315 114.468 727.795 114.121C728.275 113.774 728.875 113.601 729.595 113.601C730.164 113.601 730.626 113.717 730.982 113.948C731.346 114.17 731.617 114.459 731.795 114.814H732.115V113.774H733.942V121.774H732.115V120.734H731.795C731.617 121.063 731.351 121.348 730.995 121.588C730.64 121.828 730.173 121.948 729.595 121.948ZM730.088 120.508C730.657 120.508 731.111 120.259 731.448 119.761C731.795 119.263 731.968 118.601 731.968 117.774C731.968 116.939 731.795 116.277 731.448 115.788C731.111 115.29 730.657 115.041 730.088 115.041C729.555 115.041 729.137 115.272 728.835 115.734C728.542 116.197 728.395 116.877 728.395 117.774C728.395 118.672 728.542 119.352 728.835 119.814C729.137 120.277 729.555 120.508 730.088 120.508ZM736.638 121.774C736.398 121.499 736.225 121.183 736.118 120.828C736.011 120.472 735.958 119.992 735.958 119.388V111.108H737.945V119.174C737.945 119.859 738.02 120.388 738.171 120.761C738.322 121.126 738.518 121.437 738.758 121.694V121.774H736.638ZM693.858 145.774V135.374H697.485C699.316 135.374 700.645 135.832 701.472 136.748C702.307 137.654 702.725 138.93 702.725 140.574C702.725 142.219 702.307 143.499 701.472 144.414C700.645 145.321 699.316 145.774 697.485 145.774H693.858ZM695.912 144.161H697.352C698.089 144.161 698.698 144.046 699.178 143.814C699.658 143.583 700.014 143.21 700.245 142.694C700.485 142.17 700.605 141.463 700.605 140.574C700.605 139.686 700.485 138.979 700.245 138.454C700.014 137.93 699.658 137.557 699.178 137.334C698.698 137.103 698.089 136.988 697.352 136.988H695.912V144.161ZM707.46 145.974C706.224 145.974 705.282 145.597 704.633 144.841C703.984 144.077 703.66 143.05 703.66 141.761C703.66 140.899 703.802 140.157 704.087 139.534C704.38 138.912 704.807 138.432 705.367 138.094C705.935 137.748 706.629 137.574 707.447 137.574C708.611 137.574 709.5 137.934 710.113 138.654C710.735 139.366 711.047 140.414 711.047 141.801V142.241H705.593C705.638 142.943 705.82 143.503 706.14 143.921C706.46 144.339 706.904 144.548 707.473 144.548C707.909 144.548 708.26 144.419 708.527 144.161C708.793 143.903 708.975 143.588 709.073 143.214H710.953C710.864 143.712 710.682 144.17 710.407 144.588C710.131 145.006 709.749 145.343 709.26 145.601C708.78 145.85 708.18 145.974 707.46 145.974ZM705.593 140.961H709.127C709.091 140.321 708.927 139.823 708.633 139.468C708.349 139.112 707.949 138.934 707.433 138.934C706.909 138.934 706.487 139.108 706.167 139.454C705.855 139.792 705.664 140.294 705.593 140.961ZM713.874 145.774L711.541 137.854V137.774H713.541L715.327 144.148H715.647L717.447 137.774H719.274V137.854L716.941 145.774H713.874ZM720.49 145.774V137.774H722.477V145.774H720.49ZM721.477 136.801C721.121 136.801 720.85 136.708 720.663 136.521C720.477 136.326 720.383 136.077 720.383 135.774C720.383 135.463 720.477 135.214 720.663 135.028C720.85 134.841 721.121 134.748 721.477 134.748C721.832 134.748 722.103 134.841 722.29 135.028C722.477 135.214 722.57 135.463 722.57 135.774C722.57 136.077 722.477 136.326 722.29 136.521C722.103 136.708 721.832 136.801 721.477 136.801ZM727.724 145.974C726.506 145.974 725.581 145.597 724.95 144.841C724.319 144.077 724.004 143.054 724.004 141.774C724.004 140.432 724.332 139.397 724.99 138.668C725.657 137.939 726.572 137.574 727.737 137.574C728.768 137.574 729.581 137.85 730.177 138.401C730.772 138.952 731.128 139.708 731.244 140.668H729.297C729.235 140.134 729.07 139.726 728.804 139.441C728.537 139.148 728.19 139.001 727.764 139.001C727.204 139.001 726.777 139.246 726.484 139.734C726.19 140.214 726.044 140.894 726.044 141.774C726.044 142.654 726.186 143.334 726.47 143.814C726.764 144.294 727.19 144.534 727.75 144.534C728.186 144.534 728.537 144.392 728.804 144.108C729.07 143.814 729.235 143.401 729.297 142.868H731.244C731.119 143.828 730.755 144.588 730.15 145.148C729.555 145.699 728.746 145.974 727.724 145.974ZM735.975 145.974C734.74 145.974 733.798 145.597 733.149 144.841C732.5 144.077 732.175 143.05 732.175 141.761C732.175 140.899 732.318 140.157 732.602 139.534C732.895 138.912 733.322 138.432 733.882 138.094C734.451 137.748 735.144 137.574 735.962 137.574C737.127 137.574 738.015 137.934 738.629 138.654C739.251 139.366 739.562 140.414 739.562 141.801V142.241H734.109C734.153 142.943 734.335 143.503 734.655 143.921C734.975 144.339 735.42 144.548 735.989 144.548C736.424 144.548 736.775 144.419 737.042 144.161C737.309 143.903 737.491 143.588 737.589 143.214H739.469C739.38 143.712 739.198 144.17 738.922 144.588C738.647 145.006 738.264 145.343 737.775 145.601C737.295 145.85 736.695 145.974 735.975 145.974ZM734.109 140.961H737.642C737.607 140.321 737.442 139.823 737.149 139.468C736.864 139.112 736.464 138.934 735.949 138.934C735.424 138.934 735.002 139.108 734.682 139.454C734.371 139.792 734.18 140.294 734.109 140.961ZM743.93 145.974C743.077 145.974 742.392 145.837 741.877 145.561C741.361 145.286 740.979 144.934 740.73 144.508C740.49 144.081 740.357 143.65 740.33 143.214H742.224C742.259 143.454 742.348 143.677 742.49 143.881C742.641 144.086 742.841 144.25 743.09 144.374C743.348 144.49 743.659 144.548 744.024 144.548C744.459 144.548 744.779 144.468 744.984 144.308C745.188 144.148 745.29 143.943 745.29 143.694C745.29 143.463 745.201 143.268 745.024 143.108C744.846 142.948 744.557 142.801 744.157 142.668L743.197 142.348C742.744 142.188 742.326 142.014 741.944 141.828C741.57 141.632 741.268 141.383 741.037 141.081C740.815 140.779 740.704 140.392 740.704 139.921C740.704 139.219 740.966 138.654 741.49 138.228C742.024 137.792 742.77 137.574 743.73 137.574C744.424 137.574 744.992 137.686 745.437 137.908C745.881 138.121 746.215 138.414 746.437 138.788C746.668 139.152 746.801 139.561 746.837 140.014H745.01C744.966 139.686 744.832 139.423 744.61 139.228C744.388 139.032 744.068 138.934 743.65 138.934C743.286 138.934 743.01 139.01 742.824 139.161C742.637 139.303 742.544 139.499 742.544 139.748C742.544 139.997 742.641 140.201 742.837 140.361C743.032 140.521 743.326 140.668 743.717 140.801L744.677 141.121C745.13 141.263 745.544 141.432 745.917 141.628C746.29 141.814 746.588 142.059 746.81 142.361C747.032 142.663 747.144 143.054 747.144 143.534C747.144 144.263 746.868 144.854 746.317 145.308C745.766 145.752 744.97 145.974 743.93 145.974Z" fill="#EEEEF0"/>
<rect x="640.619" y="225.508" width="126.911" height="63.0371" fill="#0F0F11"/>
<path d="M658.726 251.026V240.626H662.353C664.184 240.626 665.513 241.084 666.34 242C667.175 242.906 667.593 244.182 667.593 245.826C667.593 247.471 667.175 248.751 666.34 249.666C665.513 250.573 664.184 251.026 662.353 251.026H658.726ZM660.78 249.413H662.22C662.957 249.413 663.566 249.297 664.046 249.066C664.526 248.835 664.882 248.462 665.113 247.946C665.353 247.422 665.473 246.715 665.473 245.826C665.473 244.937 665.353 244.231 665.113 243.706C664.882 243.182 664.526 242.809 664.046 242.586C663.566 242.355 662.957 242.24 662.22 242.24H660.78V249.413ZM672.328 251.226C671.092 251.226 670.15 250.849 669.501 250.093C668.852 249.329 668.528 248.302 668.528 247.013C668.528 246.151 668.67 245.409 668.955 244.786C669.248 244.164 669.675 243.684 670.235 243.346C670.804 243 671.497 242.826 672.315 242.826C673.479 242.826 674.368 243.186 674.981 243.906C675.604 244.617 675.915 245.666 675.915 247.053V247.493H670.461C670.506 248.195 670.688 248.755 671.008 249.173C671.328 249.591 671.772 249.8 672.341 249.8C672.777 249.8 673.128 249.671 673.395 249.413C673.661 249.155 673.844 248.84 673.941 248.466H675.821C675.732 248.964 675.55 249.422 675.275 249.84C674.999 250.257 674.617 250.595 674.128 250.853C673.648 251.102 673.048 251.226 672.328 251.226ZM670.461 246.213H673.995C673.959 245.573 673.795 245.075 673.501 244.72C673.217 244.364 672.817 244.186 672.301 244.186C671.777 244.186 671.355 244.36 671.035 244.706C670.724 245.044 670.532 245.546 670.461 246.213ZM678.742 251.026L676.409 243.106V243.026H678.409L680.196 249.4H680.516L682.316 243.026H684.142V243.106L681.809 251.026H678.742ZM688.625 251.226C687.389 251.226 686.447 250.849 685.798 250.093C685.149 249.329 684.825 248.302 684.825 247.013C684.825 246.151 684.967 245.409 685.252 244.786C685.545 244.164 685.972 243.684 686.532 243.346C687.1 243 687.794 242.826 688.612 242.826C689.776 242.826 690.665 243.186 691.278 243.906C691.9 244.617 692.212 245.666 692.212 247.053V247.493H686.758C686.803 248.195 686.985 248.755 687.305 249.173C687.625 249.591 688.069 249.8 688.638 249.8C689.074 249.8 689.425 249.671 689.692 249.413C689.958 249.155 690.14 248.84 690.238 248.466H692.118C692.029 248.964 691.847 249.422 691.572 249.84C691.296 250.257 690.914 250.595 690.425 250.853C689.945 251.102 689.345 251.226 688.625 251.226ZM686.758 246.213H690.292C690.256 245.573 690.092 245.075 689.798 244.72C689.514 244.364 689.114 244.186 688.598 244.186C688.074 244.186 687.652 244.36 687.332 244.706C687.02 245.044 686.829 245.546 686.758 246.213ZM694.326 251.026C694.086 250.751 693.913 250.435 693.806 250.08C693.7 249.724 693.646 249.244 693.646 248.64V240.36H695.633V248.426C695.633 249.111 695.709 249.64 695.86 250.013C696.011 250.377 696.206 250.689 696.446 250.946V251.026H694.326ZM701.084 251.226C699.787 251.226 698.818 250.849 698.178 250.093C697.547 249.329 697.231 248.306 697.231 247.026C697.231 245.746 697.547 244.729 698.178 243.973C698.818 243.209 699.787 242.826 701.084 242.826C702.382 242.826 703.351 243.209 703.991 243.973C704.631 244.729 704.951 245.746 704.951 247.026C704.951 248.306 704.631 249.329 703.991 250.093C703.351 250.849 702.382 251.226 701.084 251.226ZM701.084 249.853C701.716 249.853 702.173 249.613 702.458 249.133C702.751 248.644 702.898 247.942 702.898 247.026C702.898 246.102 702.751 245.4 702.458 244.92C702.173 244.44 701.716 244.2 701.084 244.2C700.462 244.2 700.004 244.44 699.711 244.92C699.418 245.4 699.271 246.102 699.271 247.026C699.271 247.942 699.418 248.644 699.711 249.133C700.004 249.613 700.462 249.853 701.084 249.853ZM706.468 253.693V243.026H708.294V244.066H708.614C708.783 243.729 709.045 243.444 709.401 243.213C709.765 242.973 710.245 242.853 710.841 242.853C711.561 242.853 712.156 243.031 712.628 243.386C713.108 243.742 713.463 244.235 713.694 244.866C713.934 245.489 714.054 246.213 714.054 247.04C714.054 247.857 713.934 248.582 713.694 249.213C713.454 249.844 713.094 250.333 712.614 250.68C712.143 251.026 711.556 251.2 710.854 251.2C710.33 251.2 709.899 251.102 709.561 250.906C709.223 250.711 708.961 250.449 708.774 250.12H708.454V253.693H706.468ZM710.321 249.76C710.854 249.76 711.268 249.529 711.561 249.066C711.854 248.604 712.001 247.924 712.001 247.026C712.001 246.129 711.854 245.449 711.561 244.986C711.268 244.524 710.854 244.293 710.321 244.293C709.752 244.293 709.294 244.542 708.948 245.04C708.61 245.529 708.441 246.191 708.441 247.026C708.441 247.853 708.61 248.515 708.948 249.013C709.294 249.511 709.752 249.76 710.321 249.76ZM715.577 251.026V243.026H717.404V244.226H717.724C717.866 243.826 718.101 243.493 718.43 243.226C718.768 242.96 719.239 242.826 719.844 242.826C720.404 242.826 720.866 242.951 721.23 243.2C721.595 243.44 721.875 243.782 722.07 244.226H722.39C722.541 243.817 722.79 243.484 723.137 243.226C723.484 242.96 723.95 242.826 724.537 242.826C725.408 242.826 726.053 243.111 726.47 243.68C726.888 244.24 727.097 244.991 727.097 245.933V251.026H725.124V246.28C725.124 245.702 725.026 245.253 724.83 244.933C724.644 244.613 724.341 244.453 723.924 244.453C723.408 244.453 723.013 244.671 722.737 245.106C722.461 245.542 722.324 246.075 722.324 246.706V251.026H720.35V246.28C720.35 245.702 720.253 245.253 720.057 244.933C719.87 244.613 719.568 244.453 719.15 244.453C718.644 244.453 718.253 244.671 717.977 245.106C717.701 245.542 717.564 246.075 717.564 246.706V251.026H715.577ZM732.312 251.226C731.077 251.226 730.135 250.849 729.486 250.093C728.837 249.329 728.512 248.302 728.512 247.013C728.512 246.151 728.655 245.409 728.939 244.786C729.232 244.164 729.659 243.684 730.219 243.346C730.788 243 731.481 242.826 732.299 242.826C733.463 242.826 734.352 243.186 734.966 243.906C735.588 244.617 735.899 245.666 735.899 247.053V247.493H730.446C730.49 248.195 730.672 248.755 730.992 249.173C731.312 249.591 731.757 249.8 732.326 249.8C732.761 249.8 733.112 249.671 733.379 249.413C733.646 249.155 733.828 248.84 733.926 248.466H735.806C735.717 248.964 735.535 249.422 735.259 249.84C734.983 250.257 734.601 250.595 734.112 250.853C733.632 251.102 733.032 251.226 732.312 251.226ZM730.446 246.213H733.979C733.943 245.573 733.779 245.075 733.486 244.72C733.201 244.364 732.801 244.186 732.286 244.186C731.761 244.186 731.339 244.36 731.019 244.706C730.708 245.044 730.517 245.546 730.446 246.213ZM737.374 251.026V243.026H739.201V244.226H739.521C739.672 243.817 739.921 243.484 740.267 243.226C740.614 242.96 741.103 242.826 741.734 242.826C742.632 242.826 743.298 243.111 743.734 243.68C744.178 244.24 744.401 244.991 744.401 245.933V251.026H742.414V246.28C742.414 245.693 742.307 245.244 742.094 244.933C741.889 244.613 741.556 244.453 741.094 244.453C740.543 244.453 740.116 244.671 739.814 245.106C739.512 245.533 739.361 246.066 739.361 246.706V251.026H737.374ZM747.476 251.026C747.271 250.786 747.107 250.497 746.983 250.16C746.867 249.822 746.809 249.315 746.809 248.64V244.44H745.716V243.026H746.836V241.026H748.769V243.026H750.089V244.44H748.783V248.413C748.783 249.124 748.863 249.666 749.023 250.04C749.183 250.404 749.374 250.706 749.596 250.946V251.026H747.476ZM674.533 275.226C673.048 275.226 671.893 274.751 671.066 273.8C670.24 272.849 669.826 271.524 669.826 269.826C669.826 268.137 670.235 266.817 671.053 265.866C671.871 264.906 673.031 264.426 674.533 264.426C675.422 264.426 676.186 264.595 676.826 264.933C677.466 265.262 677.968 265.724 678.333 266.32C678.697 266.915 678.911 267.604 678.973 268.386H676.92C676.848 267.64 676.6 267.053 676.173 266.626C675.755 266.2 675.208 265.986 674.533 265.986C673.68 265.986 673.035 266.324 672.6 267C672.164 267.666 671.946 268.613 671.946 269.84C671.946 271.102 672.168 272.057 672.613 272.706C673.066 273.346 673.702 273.666 674.52 273.666C675.231 273.666 675.791 273.444 676.2 273C676.617 272.555 676.857 271.977 676.92 271.266H678.973C678.911 272.04 678.697 272.724 678.333 273.32C677.968 273.915 677.466 274.382 676.826 274.72C676.195 275.057 675.431 275.226 674.533 275.226ZM683.702 275.226C682.404 275.226 681.435 274.849 680.795 274.093C680.164 273.329 679.848 272.306 679.848 271.026C679.848 269.746 680.164 268.729 680.795 267.973C681.435 267.209 682.404 266.826 683.702 266.826C684.999 266.826 685.968 267.209 686.608 267.973C687.248 268.729 687.568 269.746 687.568 271.026C687.568 272.306 687.248 273.329 686.608 274.093C685.968 274.849 684.999 275.226 683.702 275.226ZM683.702 273.853C684.333 273.853 684.791 273.613 685.075 273.133C685.368 272.644 685.515 271.942 685.515 271.026C685.515 270.102 685.368 269.4 685.075 268.92C684.791 268.44 684.333 268.2 683.702 268.2C683.079 268.2 682.622 268.44 682.328 268.92C682.035 269.4 681.888 270.102 681.888 271.026C681.888 271.942 682.035 272.644 682.328 273.133C682.622 273.613 683.079 273.853 683.702 273.853ZM689.085 275.026V267.026H690.911V268.226H691.231C691.383 267.817 691.631 267.484 691.978 267.226C692.325 266.96 692.814 266.826 693.445 266.826C694.343 266.826 695.009 267.111 695.445 267.68C695.889 268.24 696.111 268.991 696.111 269.933V275.026H694.125V270.28C694.125 269.693 694.018 269.244 693.805 268.933C693.6 268.613 693.267 268.453 692.805 268.453C692.254 268.453 691.827 268.671 691.525 269.106C691.223 269.533 691.071 270.066 691.071 270.706V275.026H689.085ZM699.187 275.026C698.982 274.786 698.818 274.497 698.694 274.16C698.578 273.822 698.52 273.315 698.52 272.64V268.44H697.427V267.026H698.547V265.026H700.48V267.026H701.8V268.44H700.494V272.413C700.494 273.124 700.574 273.666 700.734 274.04C700.894 274.404 701.085 274.706 701.307 274.946V275.026H699.187ZM705.932 275.2C705.203 275.2 704.599 275.022 704.119 274.666C703.639 274.302 703.279 273.809 703.039 273.186C702.808 272.555 702.692 271.831 702.692 271.013C702.692 270.177 702.812 269.449 703.052 268.826C703.292 268.204 703.652 267.72 704.132 267.373C704.612 267.026 705.212 266.853 705.932 266.853C706.501 266.853 706.963 266.969 707.319 267.2C707.683 267.422 707.954 267.711 708.132 268.066H708.452V267.026H710.279V275.026H708.452V273.986H708.132C707.954 274.315 707.688 274.6 707.332 274.84C706.977 275.08 706.51 275.2 705.932 275.2ZM706.425 273.76C706.994 273.76 707.448 273.511 707.785 273.013C708.132 272.515 708.305 271.853 708.305 271.026C708.305 270.191 708.132 269.529 707.785 269.04C707.448 268.542 706.994 268.293 706.425 268.293C705.892 268.293 705.474 268.524 705.172 268.986C704.879 269.449 704.732 270.129 704.732 271.026C704.732 271.924 704.879 272.604 705.172 273.066C705.474 273.529 705.892 273.76 706.425 273.76ZM712.335 275.026V267.026H714.321V275.026H712.335ZM713.321 266.053C712.966 266.053 712.695 265.96 712.508 265.773C712.321 265.577 712.228 265.329 712.228 265.026C712.228 264.715 712.321 264.466 712.508 264.28C712.695 264.093 712.966 264 713.321 264C713.677 264 713.948 264.093 714.135 264.28C714.321 264.466 714.415 264.715 714.415 265.026C714.415 265.329 714.321 265.577 714.135 265.773C713.948 265.96 713.677 266.053 713.321 266.053ZM716.382 275.026V267.026H718.208V268.226H718.528C718.679 267.817 718.928 267.484 719.275 267.226C719.622 266.96 720.111 266.826 720.742 266.826C721.639 266.826 722.306 267.111 722.742 267.68C723.186 268.24 723.408 268.991 723.408 269.933V275.026H721.422V270.28C721.422 269.693 721.315 269.244 721.102 268.933C720.897 268.613 720.564 268.453 720.102 268.453C719.551 268.453 719.124 268.671 718.822 269.106C718.519 269.533 718.368 270.066 718.368 270.706V275.026H716.382ZM728.617 275.226C727.382 275.226 726.439 274.849 725.79 274.093C725.142 273.329 724.817 272.302 724.817 271.013C724.817 270.151 724.959 269.409 725.244 268.786C725.537 268.164 725.964 267.684 726.524 267.346C727.093 267 727.786 266.826 728.604 266.826C729.768 266.826 730.657 267.186 731.27 267.906C731.893 268.617 732.204 269.666 732.204 271.053V271.493H726.75C726.795 272.195 726.977 272.755 727.297 273.173C727.617 273.591 728.062 273.8 728.63 273.8C729.066 273.8 729.417 273.671 729.684 273.413C729.95 273.155 730.133 272.84 730.23 272.466H732.11C732.022 272.964 731.839 273.422 731.564 273.84C731.288 274.257 730.906 274.595 730.417 274.853C729.937 275.102 729.337 275.226 728.617 275.226ZM726.75 270.213H730.284C730.248 269.573 730.084 269.075 729.79 268.72C729.506 268.364 729.106 268.186 728.59 268.186C728.066 268.186 727.644 268.36 727.324 268.706C727.013 269.044 726.822 269.546 726.75 270.213ZM733.665 275.026V267.026H735.465V268.466H735.785C735.839 268.209 735.936 267.964 736.079 267.733C736.221 267.502 736.443 267.315 736.745 267.173C737.047 267.022 737.456 266.946 737.972 266.946H738.359V268.746H737.812C737.047 268.746 736.496 268.942 736.159 269.333C735.821 269.724 735.652 270.315 735.652 271.106V275.026H733.665Z" fill="#EEEEF0"/>
<rect x="129.094" y="97.5625" width="126.853" height="63.0371" fill="#0F0F11"/>
<path d="M159.72 123.081V112.681H163.36L165.494 121.454H165.934L168.094 112.681H171.734V123.081H169.8V114.374H169.454L167.36 123.081H163.974L161.88 114.374H161.534V123.081H159.72ZM176.528 123.254C175.799 123.254 175.194 123.077 174.714 122.721C174.234 122.357 173.874 121.863 173.634 121.241C173.403 120.61 173.288 119.885 173.288 119.068C173.288 118.232 173.408 117.503 173.648 116.881C173.888 116.259 174.248 115.774 174.728 115.428C175.208 115.081 175.808 114.908 176.528 114.908C177.097 114.908 177.559 115.023 177.914 115.254C178.279 115.477 178.55 115.765 178.728 116.121H179.048V115.081H180.874V123.081H179.048V122.041H178.728C178.55 122.37 178.283 122.654 177.928 122.894C177.572 123.134 177.106 123.254 176.528 123.254ZM177.021 121.814C177.59 121.814 178.043 121.565 178.381 121.068C178.728 120.57 178.901 119.908 178.901 119.081C178.901 118.245 178.728 117.583 178.381 117.094C178.043 116.597 177.59 116.348 177.021 116.348C176.488 116.348 176.07 116.579 175.768 117.041C175.474 117.503 175.328 118.183 175.328 119.081C175.328 119.979 175.474 120.659 175.768 121.121C176.07 121.583 176.488 121.814 177.021 121.814ZM182.93 123.081V115.081H184.757V116.281H185.077C185.228 115.872 185.477 115.539 185.824 115.281C186.17 115.014 186.659 114.881 187.29 114.881C188.188 114.881 188.855 115.165 189.29 115.734C189.735 116.294 189.957 117.045 189.957 117.988V123.081H187.97V118.334C187.97 117.748 187.864 117.299 187.65 116.988C187.446 116.668 187.113 116.508 186.65 116.508C186.099 116.508 185.673 116.725 185.37 117.161C185.068 117.588 184.917 118.121 184.917 118.761V123.081H182.93ZM194.606 123.254C193.877 123.254 193.273 123.077 192.793 122.721C192.313 122.357 191.953 121.863 191.713 121.241C191.481 120.61 191.366 119.885 191.366 119.068C191.366 118.232 191.486 117.503 191.726 116.881C191.966 116.259 192.326 115.774 192.806 115.428C193.286 115.081 193.886 114.908 194.606 114.908C195.175 114.908 195.637 115.023 195.993 115.254C196.357 115.477 196.628 115.765 196.806 116.121H197.126V115.081H198.953V123.081H197.126V122.041H196.806C196.628 122.37 196.361 122.654 196.006 122.894C195.65 123.134 195.184 123.254 194.606 123.254ZM195.099 121.814C195.668 121.814 196.121 121.565 196.459 121.068C196.806 120.57 196.979 119.908 196.979 119.081C196.979 118.245 196.806 117.583 196.459 117.094C196.121 116.597 195.668 116.348 195.099 116.348C194.566 116.348 194.148 116.579 193.846 117.041C193.553 117.503 193.406 118.183 193.406 119.081C193.406 119.979 193.553 120.659 193.846 121.121C194.148 121.583 194.566 121.814 195.099 121.814ZM204.302 125.948C203.6 125.948 203.026 125.859 202.582 125.681C202.146 125.512 201.804 125.294 201.555 125.028C201.315 124.77 201.142 124.499 201.035 124.214C200.929 123.939 200.866 123.685 200.849 123.454H202.782C202.826 123.73 202.96 123.974 203.182 124.188C203.413 124.41 203.786 124.521 204.302 124.521C204.871 124.521 205.302 124.352 205.595 124.014C205.897 123.685 206.049 123.201 206.049 122.561V121.628H205.729C205.595 122.001 205.36 122.299 205.022 122.521C204.684 122.743 204.235 122.854 203.675 122.854C202.644 122.854 201.853 122.494 201.302 121.774C200.751 121.045 200.475 120.072 200.475 118.854C200.475 118.072 200.595 117.383 200.835 116.788C201.084 116.183 201.444 115.717 201.915 115.388C202.395 115.05 202.991 114.881 203.702 114.881C204.262 114.881 204.706 114.992 205.035 115.214C205.373 115.428 205.622 115.708 205.782 116.054H206.102V115.081H207.929V122.521C207.929 123.614 207.626 124.459 207.022 125.054C206.426 125.65 205.52 125.948 204.302 125.948ZM204.155 121.414C204.724 121.414 205.164 121.183 205.475 120.721C205.795 120.25 205.955 119.632 205.955 118.868C205.955 118.085 205.795 117.468 205.475 117.014C205.155 116.552 204.715 116.321 204.155 116.321C203.64 116.321 203.231 116.534 202.929 116.961C202.626 117.388 202.475 118.023 202.475 118.868C202.475 119.712 202.622 120.348 202.915 120.774C203.217 121.201 203.631 121.414 204.155 121.414ZM213.244 123.281C212.008 123.281 211.066 122.903 210.417 122.148C209.768 121.383 209.444 120.357 209.444 119.068C209.444 118.205 209.586 117.463 209.871 116.841C210.164 116.219 210.591 115.739 211.151 115.401C211.72 115.054 212.413 114.881 213.231 114.881C214.395 114.881 215.284 115.241 215.897 115.961C216.52 116.672 216.831 117.721 216.831 119.108V119.548H211.377C211.422 120.25 211.604 120.81 211.924 121.228C212.244 121.645 212.688 121.854 213.257 121.854C213.693 121.854 214.044 121.725 214.311 121.468C214.577 121.21 214.76 120.894 214.857 120.521H216.737C216.648 121.019 216.466 121.477 216.191 121.894C215.915 122.312 215.533 122.65 215.044 122.908C214.564 123.157 213.964 123.281 213.244 123.281ZM211.377 118.268H214.911C214.875 117.628 214.711 117.13 214.417 116.774C214.133 116.419 213.733 116.241 213.217 116.241C212.693 116.241 212.271 116.414 211.951 116.761C211.64 117.099 211.448 117.601 211.377 118.268ZM220.972 123.254C220.252 123.254 219.657 123.077 219.185 122.721C218.714 122.357 218.359 121.863 218.119 121.241C217.879 120.61 217.759 119.885 217.759 119.068C217.759 118.232 217.879 117.503 218.119 116.881C218.359 116.259 218.714 115.774 219.185 115.428C219.665 115.081 220.257 114.908 220.959 114.908C221.492 114.908 221.923 115.005 222.252 115.201C222.59 115.397 222.857 115.654 223.052 115.974H223.372V112.414H225.345V123.081H223.532V122.041H223.212C223.034 122.37 222.763 122.654 222.399 122.894C222.043 123.134 221.568 123.254 220.972 123.254ZM221.492 121.814C222.07 121.814 222.528 121.565 222.865 121.068C223.203 120.57 223.372 119.908 223.372 119.081C223.372 118.245 223.203 117.583 222.865 117.094C222.528 116.597 222.07 116.348 221.492 116.348C220.968 116.348 220.554 116.579 220.252 117.041C219.959 117.503 219.812 118.183 219.812 119.081C219.812 119.979 219.959 120.659 220.252 121.121C220.554 121.583 220.968 121.814 221.492 121.814ZM153.494 147.081V136.681H155.494V140.774H156.294L159.414 136.681H161.681V136.761L157.987 141.508L162.214 147.001V147.081H159.761L156.294 142.428H155.494V147.081H153.494ZM165.416 147.281C164.509 147.281 163.833 147.001 163.389 146.441C162.944 145.872 162.722 145.117 162.722 144.174V139.081H164.709V143.828C164.709 144.405 164.811 144.854 165.016 145.174C165.229 145.494 165.562 145.654 166.016 145.654C166.576 145.654 167.007 145.437 167.309 145.001C167.611 144.565 167.762 144.032 167.762 143.401V139.081H169.749V147.081H167.962V145.881H167.642C167.509 146.29 167.26 146.628 166.896 146.894C166.54 147.152 166.047 147.281 165.416 147.281ZM176.171 147.254C175.575 147.254 175.095 147.134 174.731 146.894C174.375 146.654 174.113 146.37 173.944 146.041H173.624V147.081H171.798V136.414H173.784V139.974H174.104C174.291 139.654 174.553 139.397 174.891 139.201C175.229 139.005 175.66 138.908 176.184 138.908C176.887 138.908 177.473 139.081 177.944 139.428C178.424 139.774 178.784 140.259 179.024 140.881C179.264 141.503 179.384 142.232 179.384 143.068C179.384 143.885 179.264 144.61 179.024 145.241C178.793 145.863 178.438 146.357 177.958 146.721C177.487 147.077 176.891 147.254 176.171 147.254ZM175.651 145.814C176.184 145.814 176.598 145.583 176.891 145.121C177.184 144.659 177.331 143.979 177.331 143.081C177.331 142.183 177.184 141.503 176.891 141.041C176.598 140.579 176.184 140.348 175.651 140.348C175.082 140.348 174.624 140.597 174.278 141.094C173.94 141.583 173.771 142.245 173.771 143.081C173.771 143.908 173.94 144.57 174.278 145.068C174.624 145.565 175.082 145.814 175.651 145.814ZM184.174 147.281C182.938 147.281 181.996 146.903 181.347 146.148C180.698 145.383 180.374 144.357 180.374 143.068C180.374 142.205 180.516 141.463 180.8 140.841C181.094 140.219 181.52 139.739 182.08 139.401C182.649 139.054 183.343 138.881 184.16 138.881C185.325 138.881 186.214 139.241 186.827 139.961C187.449 140.672 187.76 141.721 187.76 143.108V143.548H182.307C182.351 144.25 182.534 144.81 182.854 145.228C183.174 145.645 183.618 145.854 184.187 145.854C184.623 145.854 184.974 145.725 185.24 145.468C185.507 145.21 185.689 144.894 185.787 144.521H187.667C187.578 145.019 187.396 145.477 187.12 145.894C186.845 146.312 186.463 146.65 185.974 146.908C185.494 147.157 184.894 147.281 184.174 147.281ZM182.307 142.268H185.84C185.805 141.628 185.64 141.13 185.347 140.774C185.063 140.419 184.663 140.241 184.147 140.241C183.623 140.241 183.2 140.414 182.88 140.761C182.569 141.099 182.378 141.601 182.307 142.268ZM189.222 147.081V139.081H191.022V140.521H191.342C191.395 140.263 191.493 140.019 191.635 139.788C191.777 139.557 192 139.37 192.302 139.228C192.604 139.077 193.013 139.001 193.528 139.001H193.915V140.801H193.368C192.604 140.801 192.053 140.997 191.715 141.388C191.377 141.779 191.208 142.37 191.208 143.161V147.081H189.222ZM195.345 147.081V139.081H197.171V140.281H197.491C197.642 139.872 197.891 139.539 198.238 139.281C198.585 139.014 199.073 138.881 199.705 138.881C200.602 138.881 201.269 139.165 201.705 139.734C202.149 140.294 202.371 141.045 202.371 141.988V147.081H200.385V142.334C200.385 141.748 200.278 141.299 200.065 140.988C199.86 140.668 199.527 140.508 199.065 140.508C198.513 140.508 198.087 140.725 197.785 141.161C197.482 141.588 197.331 142.121 197.331 142.761V147.081H195.345ZM207.58 147.281C206.344 147.281 205.402 146.903 204.753 146.148C204.104 145.383 203.78 144.357 203.78 143.068C203.78 142.205 203.922 141.463 204.207 140.841C204.5 140.219 204.927 139.739 205.487 139.401C206.056 139.054 206.749 138.881 207.567 138.881C208.731 138.881 209.62 139.241 210.233 139.961C210.856 140.672 211.167 141.721 211.167 143.108V143.548H205.713C205.758 144.25 205.94 144.81 206.26 145.228C206.58 145.645 207.024 145.854 207.593 145.854C208.029 145.854 208.38 145.725 208.647 145.468C208.913 145.21 209.096 144.894 209.193 144.521H211.073C210.984 145.019 210.802 145.477 210.527 145.894C210.251 146.312 209.869 146.65 209.38 146.908C208.9 147.157 208.3 147.281 207.58 147.281ZM205.713 142.268H209.247C209.211 141.628 209.047 141.13 208.753 140.774C208.469 140.419 208.069 140.241 207.553 140.241C207.029 140.241 206.607 140.414 206.287 140.761C205.976 141.099 205.784 141.601 205.713 142.268ZM213.775 147.081C213.57 146.841 213.406 146.552 213.281 146.214C213.166 145.877 213.108 145.37 213.108 144.694V140.494H212.015V139.081H213.135V137.081H215.068V139.081H216.388V140.494H215.081V144.468C215.081 145.179 215.161 145.721 215.321 146.094C215.481 146.459 215.673 146.761 215.895 147.001V147.081H213.775ZM221.08 147.281C219.844 147.281 218.902 146.903 218.253 146.148C217.604 145.383 217.28 144.357 217.28 143.068C217.28 142.205 217.422 141.463 217.707 140.841C218 140.219 218.427 139.739 218.987 139.401C219.556 139.054 220.249 138.881 221.067 138.881C222.231 138.881 223.12 139.241 223.733 139.961C224.356 140.672 224.667 141.721 224.667 143.108V143.548H219.213C219.258 144.25 219.44 144.81 219.76 145.228C220.08 145.645 220.524 145.854 221.093 145.854C221.529 145.854 221.88 145.725 222.147 145.468C222.413 145.21 222.596 144.894 222.693 144.521H224.573C224.484 145.019 224.302 145.477 224.027 145.894C223.751 146.312 223.369 146.65 222.88 146.908C222.4 147.157 221.8 147.281 221.08 147.281ZM219.213 142.268H222.747C222.711 141.628 222.547 141.13 222.253 140.774C221.969 140.419 221.569 140.241 221.053 140.241C220.529 140.241 220.107 140.414 219.787 140.761C219.476 141.099 219.284 141.601 219.213 142.268ZM229.035 147.281C228.181 147.281 227.497 147.143 226.981 146.868C226.466 146.592 226.084 146.241 225.835 145.814C225.595 145.388 225.461 144.957 225.435 144.521H227.328C227.364 144.761 227.453 144.983 227.595 145.188C227.746 145.392 227.946 145.557 228.195 145.681C228.453 145.797 228.764 145.854 229.128 145.854C229.564 145.854 229.884 145.774 230.088 145.614C230.293 145.454 230.395 145.25 230.395 145.001C230.395 144.77 230.306 144.574 230.128 144.414C229.95 144.254 229.661 144.108 229.261 143.974L228.301 143.654C227.848 143.494 227.43 143.321 227.048 143.134C226.675 142.939 226.373 142.69 226.141 142.388C225.919 142.085 225.808 141.699 225.808 141.228C225.808 140.525 226.07 139.961 226.595 139.534C227.128 139.099 227.875 138.881 228.835 138.881C229.528 138.881 230.097 138.992 230.541 139.214C230.986 139.428 231.319 139.721 231.541 140.094C231.773 140.459 231.906 140.868 231.941 141.321H230.115C230.07 140.992 229.937 140.73 229.715 140.534C229.493 140.339 229.173 140.241 228.755 140.241C228.39 140.241 228.115 140.317 227.928 140.468C227.741 140.61 227.648 140.805 227.648 141.054C227.648 141.303 227.746 141.508 227.941 141.668C228.137 141.828 228.43 141.974 228.821 142.108L229.781 142.428C230.235 142.57 230.648 142.739 231.021 142.934C231.395 143.121 231.693 143.365 231.915 143.668C232.137 143.97 232.248 144.361 232.248 144.841C232.248 145.57 231.973 146.161 231.421 146.614C230.87 147.059 230.075 147.281 229.035 147.281Z" fill="#EEEEF0"/>
<rect x="129.014" y="225.518" width="126.934" height="63.5715" fill="#0F0F11"/>
<path d="M159.721 251.303V240.903H163.361L165.494 249.676H165.934L168.094 240.903H171.734V251.303H169.801V242.596H169.454L167.361 251.303H163.974L161.881 242.596H161.534V251.303H159.721ZM176.528 251.476C175.799 251.476 175.195 251.298 174.715 250.943C174.235 250.578 173.875 250.085 173.635 249.463C173.404 248.832 173.288 248.107 173.288 247.289C173.288 246.454 173.408 245.725 173.648 245.103C173.888 244.481 174.248 243.996 174.728 243.649C175.208 243.303 175.808 243.129 176.528 243.129C177.097 243.129 177.559 243.245 177.915 243.476C178.279 243.698 178.551 243.987 178.728 244.343H179.048V243.303H180.875V251.303H179.048V250.263H178.728C178.551 250.592 178.284 250.876 177.928 251.116C177.573 251.356 177.106 251.476 176.528 251.476ZM177.022 250.036C177.591 250.036 178.044 249.787 178.382 249.289C178.728 248.792 178.902 248.129 178.902 247.303C178.902 246.467 178.728 245.805 178.382 245.316C178.044 244.818 177.591 244.569 177.022 244.569C176.488 244.569 176.071 244.801 175.768 245.263C175.475 245.725 175.328 246.405 175.328 247.303C175.328 248.201 175.475 248.881 175.768 249.343C176.071 249.805 176.488 250.036 177.022 250.036ZM182.931 251.303V243.303H184.758V244.503H185.078C185.229 244.094 185.478 243.761 185.824 243.503C186.171 243.236 186.66 243.103 187.291 243.103C188.189 243.103 188.855 243.387 189.291 243.956C189.735 244.516 189.958 245.267 189.958 246.209V251.303H187.971V246.556C187.971 245.969 187.864 245.521 187.651 245.209C187.447 244.889 187.113 244.729 186.651 244.729C186.1 244.729 185.673 244.947 185.371 245.383C185.069 245.809 184.918 246.343 184.918 246.983V251.303H182.931ZM194.606 251.476C193.878 251.476 193.273 251.298 192.793 250.943C192.313 250.578 191.953 250.085 191.713 249.463C191.482 248.832 191.366 248.107 191.366 247.289C191.366 246.454 191.486 245.725 191.726 245.103C191.966 244.481 192.326 243.996 192.806 243.649C193.286 243.303 193.886 243.129 194.606 243.129C195.175 243.129 195.638 243.245 195.993 243.476C196.358 243.698 196.629 243.987 196.806 244.343H197.126V243.303H198.953V251.303H197.126V250.263H196.806C196.629 250.592 196.362 250.876 196.006 251.116C195.651 251.356 195.184 251.476 194.606 251.476ZM195.1 250.036C195.669 250.036 196.122 249.787 196.46 249.289C196.806 248.792 196.98 248.129 196.98 247.303C196.98 246.467 196.806 245.805 196.46 245.316C196.122 244.818 195.669 244.569 195.1 244.569C194.566 244.569 194.149 244.801 193.846 245.263C193.553 245.725 193.406 246.405 193.406 247.303C193.406 248.201 193.553 248.881 193.846 249.343C194.149 249.805 194.566 250.036 195.1 250.036ZM204.302 254.169C203.6 254.169 203.027 254.081 202.582 253.903C202.147 253.734 201.805 253.516 201.556 253.249C201.316 252.992 201.142 252.721 201.036 252.436C200.929 252.161 200.867 251.907 200.849 251.676H202.782C202.827 251.952 202.96 252.196 203.182 252.409C203.414 252.632 203.787 252.743 204.302 252.743C204.871 252.743 205.302 252.574 205.596 252.236C205.898 251.907 206.049 251.423 206.049 250.783V249.849H205.729C205.596 250.223 205.36 250.521 205.022 250.743C204.685 250.965 204.236 251.076 203.676 251.076C202.645 251.076 201.854 250.716 201.302 249.996C200.751 249.267 200.476 248.294 200.476 247.076C200.476 246.294 200.596 245.605 200.836 245.009C201.085 244.405 201.445 243.938 201.916 243.609C202.396 243.272 202.991 243.103 203.702 243.103C204.262 243.103 204.707 243.214 205.036 243.436C205.374 243.649 205.622 243.929 205.782 244.276H206.102V243.303H207.929V250.743C207.929 251.836 207.627 252.681 207.022 253.276C206.427 253.872 205.52 254.169 204.302 254.169ZM204.156 249.636C204.725 249.636 205.165 249.405 205.476 248.943C205.796 248.472 205.956 247.854 205.956 247.089C205.956 246.307 205.796 245.689 205.476 245.236C205.156 244.774 204.716 244.543 204.156 244.543C203.64 244.543 203.231 244.756 202.929 245.183C202.627 245.609 202.476 246.245 202.476 247.089C202.476 247.934 202.622 248.569 202.916 248.996C203.218 249.423 203.631 249.636 204.156 249.636ZM213.245 251.503C212.009 251.503 211.067 251.125 210.418 250.369C209.769 249.605 209.445 248.578 209.445 247.289C209.445 246.427 209.587 245.685 209.871 245.063C210.165 244.441 210.591 243.961 211.151 243.623C211.72 243.276 212.413 243.103 213.231 243.103C214.396 243.103 215.285 243.463 215.898 244.183C216.52 244.894 216.831 245.943 216.831 247.329V247.769H211.378C211.422 248.472 211.605 249.032 211.925 249.449C212.245 249.867 212.689 250.076 213.258 250.076C213.693 250.076 214.045 249.947 214.311 249.689C214.578 249.432 214.76 249.116 214.858 248.743H216.738C216.649 249.241 216.467 249.698 216.191 250.116C215.916 250.534 215.533 250.872 215.045 251.129C214.565 251.378 213.965 251.503 213.245 251.503ZM211.378 246.489H214.911C214.876 245.849 214.711 245.352 214.418 244.996C214.133 244.641 213.733 244.463 213.218 244.463C212.693 244.463 212.271 244.636 211.951 244.983C211.64 245.321 211.449 245.823 211.378 246.489ZM220.973 251.476C220.253 251.476 219.657 251.298 219.186 250.943C218.715 250.578 218.359 250.085 218.119 249.463C217.879 248.832 217.759 248.107 217.759 247.289C217.759 246.454 217.879 245.725 218.119 245.103C218.359 244.481 218.715 243.996 219.186 243.649C219.666 243.303 220.257 243.129 220.959 243.129C221.493 243.129 221.924 243.227 222.253 243.423C222.59 243.618 222.857 243.876 223.053 244.196H223.373V240.636H225.346V251.303H223.533V250.263H223.213C223.035 250.592 222.764 250.876 222.399 251.116C222.044 251.356 221.568 251.476 220.973 251.476ZM221.493 250.036C222.07 250.036 222.528 249.787 222.866 249.289C223.204 248.792 223.373 248.129 223.373 247.303C223.373 246.467 223.204 245.805 222.866 245.316C222.528 244.818 222.07 244.569 221.493 244.569C220.968 244.569 220.555 244.801 220.253 245.263C219.959 245.725 219.813 246.405 219.813 247.303C219.813 248.201 219.959 248.881 220.253 249.343C220.555 249.805 220.968 250.036 221.493 250.036ZM159.641 275.303V264.903H161.694V275.303H159.641ZM163.79 275.303V267.303H165.617V268.503H165.937C166.088 268.094 166.337 267.761 166.684 267.503C167.03 267.236 167.519 267.103 168.15 267.103C169.048 267.103 169.715 267.387 170.15 267.956C170.595 268.516 170.817 269.267 170.817 270.209V275.303H168.83V270.556C168.83 269.969 168.724 269.521 168.51 269.209C168.306 268.889 167.973 268.729 167.51 268.729C166.959 268.729 166.533 268.947 166.23 269.383C165.928 269.809 165.777 270.343 165.777 270.983V275.303H163.79ZM175.652 275.503C174.799 275.503 174.115 275.365 173.599 275.089C173.084 274.814 172.701 274.463 172.452 274.036C172.212 273.609 172.079 273.178 172.052 272.743H173.946C173.981 272.983 174.07 273.205 174.212 273.409C174.364 273.614 174.564 273.778 174.812 273.903C175.07 274.018 175.381 274.076 175.746 274.076C176.181 274.076 176.501 273.996 176.706 273.836C176.91 273.676 177.012 273.472 177.012 273.223C177.012 272.992 176.924 272.796 176.746 272.636C176.568 272.476 176.279 272.329 175.879 272.196L174.919 271.876C174.466 271.716 174.048 271.543 173.666 271.356C173.292 271.161 172.99 270.912 172.759 270.609C172.537 270.307 172.426 269.921 172.426 269.449C172.426 268.747 172.688 268.183 173.212 267.756C173.746 267.321 174.492 267.103 175.452 267.103C176.146 267.103 176.715 267.214 177.159 267.436C177.604 267.649 177.937 267.943 178.159 268.316C178.39 268.681 178.524 269.089 178.559 269.543H176.732C176.688 269.214 176.555 268.952 176.332 268.756C176.11 268.561 175.79 268.463 175.372 268.463C175.008 268.463 174.732 268.538 174.546 268.689C174.359 268.832 174.266 269.027 174.266 269.276C174.266 269.525 174.364 269.729 174.559 269.889C174.755 270.049 175.048 270.196 175.439 270.329L176.399 270.649C176.852 270.792 177.266 270.961 177.639 271.156C178.012 271.343 178.31 271.587 178.532 271.889C178.755 272.192 178.866 272.583 178.866 273.063C178.866 273.792 178.59 274.383 178.039 274.836C177.488 275.281 176.692 275.503 175.652 275.503ZM181.392 275.303C181.188 275.063 181.024 274.774 180.899 274.436C180.784 274.098 180.726 273.592 180.726 272.916V268.716H179.632V267.303H180.752V265.303H182.686V267.303H184.006V268.716H182.699V272.689C182.699 273.401 182.779 273.943 182.939 274.316C183.099 274.681 183.29 274.983 183.512 275.223V275.303H181.392ZM188.138 275.476C187.409 275.476 186.804 275.298 186.324 274.943C185.844 274.578 185.484 274.085 185.244 273.463C185.013 272.832 184.898 272.107 184.898 271.289C184.898 270.454 185.018 269.725 185.258 269.103C185.498 268.481 185.858 267.996 186.338 267.649C186.818 267.303 187.418 267.129 188.138 267.129C188.707 267.129 189.169 267.245 189.524 267.476C189.889 267.698 190.16 267.987 190.338 268.343H190.658V267.303H192.484V275.303H190.658V274.263H190.338C190.16 274.592 189.893 274.876 189.538 275.116C189.182 275.356 188.715 275.476 188.138 275.476ZM188.631 274.036C189.2 274.036 189.653 273.787 189.991 273.289C190.338 272.792 190.511 272.129 190.511 271.303C190.511 270.467 190.338 269.805 189.991 269.316C189.653 268.818 189.2 268.569 188.631 268.569C188.098 268.569 187.68 268.801 187.378 269.263C187.084 269.725 186.938 270.405 186.938 271.303C186.938 272.201 187.084 272.881 187.378 273.343C187.68 273.805 188.098 274.036 188.631 274.036ZM194.54 275.303V267.303H196.367V268.503H196.687C196.838 268.094 197.087 267.761 197.434 267.503C197.78 267.236 198.269 267.103 198.9 267.103C199.798 267.103 200.465 267.387 200.9 267.956C201.345 268.516 201.567 269.267 201.567 270.209V275.303H199.58V270.556C199.58 269.969 199.474 269.521 199.26 269.209C199.056 268.889 198.723 268.729 198.26 268.729C197.709 268.729 197.283 268.947 196.98 269.383C196.678 269.809 196.527 270.343 196.527 270.983V275.303H194.54ZM206.696 275.503C205.478 275.503 204.554 275.125 203.922 274.369C203.291 273.605 202.976 272.583 202.976 271.303C202.976 269.961 203.305 268.925 203.962 268.196C204.629 267.467 205.545 267.103 206.709 267.103C207.74 267.103 208.554 267.378 209.149 267.929C209.745 268.481 210.1 269.236 210.216 270.196H208.269C208.207 269.663 208.042 269.254 207.776 268.969C207.509 268.676 207.162 268.529 206.736 268.529C206.176 268.529 205.749 268.774 205.456 269.263C205.162 269.743 205.016 270.423 205.016 271.303C205.016 272.183 205.158 272.863 205.442 273.343C205.736 273.823 206.162 274.063 206.722 274.063C207.158 274.063 207.509 273.921 207.776 273.636C208.042 273.343 208.207 272.929 208.269 272.396H210.216C210.091 273.356 209.727 274.116 209.122 274.676C208.527 275.227 207.718 275.503 206.696 275.503ZM214.948 275.503C213.712 275.503 212.77 275.125 212.121 274.369C211.472 273.605 211.148 272.578 211.148 271.289C211.148 270.427 211.29 269.685 211.574 269.063C211.868 268.441 212.294 267.961 212.854 267.623C213.423 267.276 214.117 267.103 214.934 267.103C216.099 267.103 216.988 267.463 217.601 268.183C218.223 268.894 218.534 269.943 218.534 271.329V271.769H213.081C213.125 272.472 213.308 273.032 213.628 273.449C213.948 273.867 214.392 274.076 214.961 274.076C215.397 274.076 215.748 273.947 216.014 273.689C216.281 273.432 216.463 273.116 216.561 272.743H218.441C218.352 273.241 218.17 273.698 217.894 274.116C217.619 274.534 217.237 274.872 216.748 275.129C216.268 275.378 215.668 275.503 214.948 275.503ZM213.081 270.489H216.614C216.579 269.849 216.414 269.352 216.121 268.996C215.837 268.641 215.437 268.463 214.921 268.463C214.397 268.463 213.974 268.636 213.654 268.983C213.343 269.321 213.152 269.823 213.081 270.489ZM222.902 275.503C222.049 275.503 221.365 275.365 220.849 275.089C220.334 274.814 219.951 274.463 219.702 274.036C219.462 273.609 219.329 273.178 219.302 272.743H221.196C221.231 272.983 221.32 273.205 221.462 273.409C221.614 273.614 221.814 273.778 222.062 273.903C222.32 274.018 222.631 274.076 222.996 274.076C223.431 274.076 223.751 273.996 223.956 273.836C224.16 273.676 224.262 273.472 224.262 273.223C224.262 272.992 224.174 272.796 223.996 272.636C223.818 272.476 223.529 272.329 223.129 272.196L222.169 271.876C221.716 271.716 221.298 271.543 220.916 271.356C220.542 271.161 220.24 270.912 220.009 270.609C219.787 270.307 219.676 269.921 219.676 269.449C219.676 268.747 219.938 268.183 220.462 267.756C220.996 267.321 221.742 267.103 222.702 267.103C223.396 267.103 223.965 267.214 224.409 267.436C224.854 267.649 225.187 267.943 225.409 268.316C225.64 268.681 225.774 269.089 225.809 269.543H223.982C223.938 269.214 223.805 268.952 223.582 268.756C223.36 268.561 223.04 268.463 222.622 268.463C222.258 268.463 221.982 268.538 221.796 268.689C221.609 268.832 221.516 269.027 221.516 269.276C221.516 269.525 221.614 269.729 221.809 269.889C222.005 270.049 222.298 270.196 222.689 270.329L223.649 270.649C224.102 270.792 224.516 270.961 224.889 271.156C225.262 271.343 225.56 271.587 225.782 271.889C226.005 272.192 226.116 272.583 226.116 273.063C226.116 273.792 225.84 274.383 225.289 274.836C224.738 275.281 223.942 275.503 222.902 275.503Z" fill="#EEEEF0"/>
<rect x="768.551" y="161.491" width="126.948" height="62.9785" fill="#0F0F11"/>
<path d="M786.678 186.968V176.568H790.304C792.135 176.568 793.464 177.026 794.291 177.941C795.127 178.848 795.544 180.123 795.544 181.768C795.544 183.412 795.127 184.692 794.291 185.608C793.464 186.514 792.135 186.968 790.304 186.968H786.678ZM788.731 185.354H790.171C790.909 185.354 791.518 185.239 791.998 185.008C792.478 184.777 792.833 184.403 793.064 183.888C793.304 183.363 793.424 182.657 793.424 181.768C793.424 180.879 793.304 180.172 793.064 179.648C792.833 179.123 792.478 178.75 791.998 178.528C791.518 178.297 790.909 178.181 790.171 178.181H788.731V185.354ZM800.279 187.168C799.044 187.168 798.102 186.79 797.453 186.034C796.804 185.27 796.479 184.243 796.479 182.954C796.479 182.092 796.622 181.35 796.906 180.728C797.199 180.106 797.626 179.626 798.186 179.288C798.755 178.941 799.448 178.768 800.266 178.768C801.43 178.768 802.319 179.128 802.933 179.848C803.555 180.559 803.866 181.608 803.866 182.994V183.434H798.413C798.457 184.137 798.639 184.697 798.959 185.114C799.279 185.532 799.724 185.741 800.293 185.741C800.728 185.741 801.079 185.612 801.346 185.354C801.613 185.097 801.795 184.781 801.893 184.408H803.773C803.684 184.906 803.502 185.363 803.226 185.781C802.95 186.199 802.568 186.537 802.079 186.794C801.599 187.043 800.999 187.168 800.279 187.168ZM798.413 182.154H801.946C801.91 181.514 801.746 181.017 801.453 180.661C801.168 180.306 800.768 180.128 800.253 180.128C799.728 180.128 799.306 180.301 798.986 180.648C798.675 180.986 798.484 181.488 798.413 182.154ZM806.694 186.968L804.36 179.048V178.968H806.36L808.147 185.341H808.467L810.267 178.968H812.094V179.048L809.76 186.968H806.694ZM816.576 187.168C815.341 187.168 814.398 186.79 813.75 186.034C813.101 185.27 812.776 184.243 812.776 182.954C812.776 182.092 812.918 181.35 813.203 180.728C813.496 180.106 813.923 179.626 814.483 179.288C815.052 178.941 815.745 178.768 816.563 178.768C817.727 178.768 818.616 179.128 819.23 179.848C819.852 180.559 820.163 181.608 820.163 182.994V183.434H814.71C814.754 184.137 814.936 184.697 815.256 185.114C815.576 185.532 816.021 185.741 816.59 185.741C817.025 185.741 817.376 185.612 817.643 185.354C817.91 185.097 818.092 184.781 818.19 184.408H820.07C819.981 184.906 819.798 185.363 819.523 185.781C819.247 186.199 818.865 186.537 818.376 186.794C817.896 187.043 817.296 187.168 816.576 187.168ZM814.71 182.154H818.243C818.207 181.514 818.043 181.017 817.75 180.661C817.465 180.306 817.065 180.128 816.55 180.128C816.025 180.128 815.603 180.301 815.283 180.648C814.972 180.986 814.781 181.488 814.71 182.154ZM822.278 186.968C822.038 186.692 821.864 186.377 821.758 186.021C821.651 185.666 821.598 185.186 821.598 184.581V176.301H823.584V184.368C823.584 185.052 823.66 185.581 823.811 185.954C823.962 186.319 824.158 186.63 824.398 186.888V186.968H822.278ZM829.036 187.168C827.738 187.168 826.769 186.79 826.129 186.034C825.498 185.27 825.183 184.248 825.183 182.968C825.183 181.688 825.498 180.67 826.129 179.914C826.769 179.15 827.738 178.768 829.036 178.768C830.334 178.768 831.303 179.15 831.943 179.914C832.583 180.67 832.903 181.688 832.903 182.968C832.903 184.248 832.583 185.27 831.943 186.034C831.303 186.79 830.334 187.168 829.036 187.168ZM829.036 185.794C829.667 185.794 830.125 185.554 830.409 185.074C830.703 184.586 830.849 183.883 830.849 182.968C830.849 182.043 830.703 181.341 830.409 180.861C830.125 180.381 829.667 180.141 829.036 180.141C828.414 180.141 827.956 180.381 827.663 180.861C827.369 181.341 827.223 182.043 827.223 182.968C827.223 183.883 827.369 184.586 827.663 185.074C827.956 185.554 828.414 185.794 829.036 185.794ZM834.419 189.634V178.968H836.246V180.008H836.566C836.735 179.67 836.997 179.386 837.352 179.154C837.717 178.914 838.197 178.794 838.792 178.794C839.512 178.794 840.108 178.972 840.579 179.328C841.059 179.683 841.415 180.177 841.646 180.808C841.886 181.43 842.006 182.154 842.006 182.981C842.006 183.799 841.886 184.523 841.646 185.154C841.406 185.786 841.046 186.274 840.566 186.621C840.095 186.968 839.508 187.141 838.806 187.141C838.281 187.141 837.85 187.043 837.512 186.848C837.175 186.652 836.912 186.39 836.726 186.061H836.406V189.634H834.419ZM838.272 185.701C838.806 185.701 839.219 185.47 839.512 185.008C839.806 184.546 839.952 183.866 839.952 182.968C839.952 182.07 839.806 181.39 839.512 180.928C839.219 180.466 838.806 180.234 838.272 180.234C837.703 180.234 837.246 180.483 836.899 180.981C836.561 181.47 836.392 182.132 836.392 182.968C836.392 183.794 836.561 184.457 836.899 184.954C837.246 185.452 837.703 185.701 838.272 185.701ZM843.528 186.968V178.968H845.355V180.168H845.675C845.817 179.768 846.053 179.434 846.382 179.168C846.719 178.901 847.191 178.768 847.795 178.768C848.355 178.768 848.817 178.892 849.182 179.141C849.546 179.381 849.826 179.723 850.022 180.168H850.342C850.493 179.759 850.742 179.426 851.088 179.168C851.435 178.901 851.902 178.768 852.488 178.768C853.359 178.768 854.004 179.052 854.422 179.621C854.839 180.181 855.048 180.932 855.048 181.874V186.968H853.075V182.221C853.075 181.643 852.977 181.194 852.782 180.874C852.595 180.554 852.293 180.394 851.875 180.394C851.359 180.394 850.964 180.612 850.688 181.048C850.413 181.483 850.275 182.017 850.275 182.648V186.968H848.302V182.221C848.302 181.643 848.204 181.194 848.008 180.874C847.822 180.554 847.519 180.394 847.102 180.394C846.595 180.394 846.204 180.612 845.928 181.048C845.653 181.483 845.515 182.017 845.515 182.648V186.968H843.528ZM860.264 187.168C859.028 187.168 858.086 186.79 857.437 186.034C856.788 185.27 856.464 184.243 856.464 182.954C856.464 182.092 856.606 181.35 856.89 180.728C857.184 180.106 857.61 179.626 858.17 179.288C858.739 178.941 859.433 178.768 860.25 178.768C861.415 178.768 862.304 179.128 862.917 179.848C863.539 180.559 863.85 181.608 863.85 182.994V183.434H858.397C858.442 184.137 858.624 184.697 858.944 185.114C859.264 185.532 859.708 185.741 860.277 185.741C860.713 185.741 861.064 185.612 861.33 185.354C861.597 185.097 861.779 184.781 861.877 184.408H863.757C863.668 184.906 863.486 185.363 863.21 185.781C862.935 186.199 862.553 186.537 862.064 186.794C861.584 187.043 860.984 187.168 860.264 187.168ZM858.397 182.154H861.93C861.895 181.514 861.73 181.017 861.437 180.661C861.153 180.306 860.753 180.128 860.237 180.128C859.713 180.128 859.29 180.301 858.97 180.648C858.659 180.986 858.468 181.488 858.397 182.154ZM865.325 186.968V178.968H867.152V180.168H867.472C867.623 179.759 867.872 179.426 868.219 179.168C868.565 178.901 869.054 178.768 869.685 178.768C870.583 178.768 871.25 179.052 871.685 179.621C872.13 180.181 872.352 180.932 872.352 181.874V186.968H870.365V182.221C870.365 181.634 870.259 181.186 870.045 180.874C869.841 180.554 869.507 180.394 869.045 180.394C868.494 180.394 868.067 180.612 867.765 181.048C867.463 181.474 867.312 182.008 867.312 182.648V186.968H865.325ZM875.427 186.968C875.223 186.728 875.058 186.439 874.934 186.101C874.818 185.763 874.761 185.257 874.761 184.581V180.381H873.667V178.968H874.787V176.968H876.721V178.968H878.041V180.381H876.734V184.354C876.734 185.066 876.814 185.608 876.974 185.981C877.134 186.346 877.325 186.648 877.547 186.888V186.968H875.427ZM802.484 211.168C801 211.168 799.844 210.692 799.018 209.741C798.191 208.79 797.778 207.466 797.778 205.768C797.778 204.079 798.187 202.759 799.004 201.808C799.822 200.848 800.982 200.368 802.484 200.368C803.373 200.368 804.138 200.537 804.778 200.874C805.418 201.203 805.92 201.666 806.284 202.261C806.649 202.857 806.862 203.546 806.924 204.328H804.871C804.8 203.581 804.551 202.994 804.124 202.568C803.707 202.141 803.16 201.928 802.484 201.928C801.631 201.928 800.987 202.266 800.551 202.941C800.115 203.608 799.898 204.554 799.898 205.781C799.898 207.043 800.12 207.999 800.564 208.648C801.018 209.288 801.653 209.608 802.471 209.608C803.182 209.608 803.742 209.386 804.151 208.941C804.569 208.497 804.809 207.919 804.871 207.208H806.924C806.862 207.981 806.649 208.666 806.284 209.261C805.92 209.857 805.418 210.323 804.778 210.661C804.147 210.999 803.382 211.168 802.484 211.168ZM811.653 211.168C810.355 211.168 809.386 210.79 808.746 210.034C808.115 209.27 807.8 208.248 807.8 206.968C807.8 205.688 808.115 204.67 808.746 203.914C809.386 203.15 810.355 202.768 811.653 202.768C812.951 202.768 813.92 203.15 814.56 203.914C815.2 204.67 815.52 205.688 815.52 206.968C815.52 208.248 815.2 209.27 814.56 210.034C813.92 210.79 812.951 211.168 811.653 211.168ZM811.653 209.794C812.284 209.794 812.742 209.554 813.026 209.074C813.32 208.586 813.466 207.883 813.466 206.968C813.466 206.043 813.32 205.341 813.026 204.861C812.742 204.381 812.284 204.141 811.653 204.141C811.031 204.141 810.573 204.381 810.28 204.861C809.986 205.341 809.84 206.043 809.84 206.968C809.84 207.883 809.986 208.586 810.28 209.074C810.573 209.554 811.031 209.794 811.653 209.794ZM817.036 210.968V202.968H818.863V204.168H819.183C819.334 203.759 819.583 203.426 819.929 203.168C820.276 202.901 820.765 202.768 821.396 202.768C822.294 202.768 822.961 203.052 823.396 203.621C823.841 204.181 824.063 204.932 824.063 205.874V210.968H822.076V206.221C822.076 205.634 821.969 205.186 821.756 204.874C821.552 204.554 821.218 204.394 820.756 204.394C820.205 204.394 819.778 204.612 819.476 205.048C819.174 205.474 819.023 206.008 819.023 206.648V210.968H817.036ZM827.138 210.968C826.934 210.728 826.769 210.439 826.645 210.101C826.529 209.763 826.472 209.257 826.472 208.581V204.381H825.378V202.968H826.498V200.968H828.432V202.968H829.752V204.381H828.445V208.354C828.445 209.066 828.525 209.608 828.685 209.981C828.845 210.346 829.036 210.648 829.258 210.888V210.968H827.138ZM833.883 211.141C833.155 211.141 832.55 210.963 832.07 210.608C831.59 210.243 831.23 209.75 830.99 209.128C830.759 208.497 830.643 207.772 830.643 206.954C830.643 206.119 830.763 205.39 831.003 204.768C831.243 204.146 831.603 203.661 832.083 203.314C832.563 202.968 833.163 202.794 833.883 202.794C834.452 202.794 834.915 202.91 835.27 203.141C835.635 203.363 835.906 203.652 836.083 204.008H836.403V202.968H838.23V210.968H836.403V209.928H836.083C835.906 210.257 835.639 210.541 835.283 210.781C834.928 211.021 834.461 211.141 833.883 211.141ZM834.377 209.701C834.946 209.701 835.399 209.452 835.737 208.954C836.083 208.457 836.257 207.794 836.257 206.968C836.257 206.132 836.083 205.47 835.737 204.981C835.399 204.483 834.946 204.234 834.377 204.234C833.843 204.234 833.426 204.466 833.123 204.928C832.83 205.39 832.683 206.07 832.683 206.968C832.683 207.866 832.83 208.546 833.123 209.008C833.426 209.47 833.843 209.701 834.377 209.701ZM840.286 210.968V202.968H842.273V210.968H840.286ZM841.273 201.994C840.917 201.994 840.646 201.901 840.459 201.714C840.273 201.519 840.179 201.27 840.179 200.968C840.179 200.657 840.273 200.408 840.459 200.221C840.646 200.034 840.917 199.941 841.273 199.941C841.628 199.941 841.899 200.034 842.086 200.221C842.273 200.408 842.366 200.657 842.366 200.968C842.366 201.27 842.273 201.519 842.086 201.714C841.899 201.901 841.628 201.994 841.273 201.994ZM844.333 210.968V202.968H846.16V204.168H846.48C846.631 203.759 846.88 203.426 847.226 203.168C847.573 202.901 848.062 202.768 848.693 202.768C849.591 202.768 850.257 203.052 850.693 203.621C851.137 204.181 851.36 204.932 851.36 205.874V210.968H849.373V206.221C849.373 205.634 849.266 205.186 849.053 204.874C848.849 204.554 848.515 204.394 848.053 204.394C847.502 204.394 847.075 204.612 846.773 205.048C846.471 205.474 846.32 206.008 846.32 206.648V210.968H844.333ZM856.568 211.168C855.333 211.168 854.391 210.79 853.742 210.034C853.093 209.27 852.768 208.243 852.768 206.954C852.768 206.092 852.911 205.35 853.195 204.728C853.488 204.106 853.915 203.626 854.475 203.288C855.044 202.941 855.737 202.768 856.555 202.768C857.72 202.768 858.608 203.128 859.222 203.848C859.844 204.559 860.155 205.608 860.155 206.994V207.434H854.702C854.746 208.137 854.928 208.697 855.248 209.114C855.568 209.532 856.013 209.741 856.582 209.741C857.017 209.741 857.368 209.612 857.635 209.354C857.902 209.097 858.084 208.781 858.182 208.408H860.062C859.973 208.906 859.791 209.363 859.515 209.781C859.24 210.199 858.857 210.537 858.368 210.794C857.888 211.043 857.288 211.168 856.568 211.168ZM854.702 206.154H858.235C858.2 205.514 858.035 205.017 857.742 204.661C857.457 204.306 857.057 204.128 856.542 204.128C856.017 204.128 855.595 204.301 855.275 204.648C854.964 204.986 854.773 205.488 854.702 206.154ZM861.617 210.968V202.968H863.417V204.408H863.737C863.79 204.15 863.888 203.906 864.03 203.674C864.172 203.443 864.394 203.257 864.697 203.114C864.999 202.963 865.408 202.888 865.923 202.888H866.31V204.688H865.763C864.999 204.688 864.448 204.883 864.11 205.274C863.772 205.666 863.603 206.257 863.603 207.048V210.968H861.617Z" fill="#EEEEF0"/>
<rect x="0.5" y="33.6182" width="127.494" height="62.8221" fill="#0F0F11"/>
<path d="M35.9949 59.0283V48.6283H42.9816V50.255H38.0216V52.7217H41.8616V54.2417H38.0216V57.3883H43.0616V59.0283H35.9949ZM43.8672 59.0283V58.9483L46.3338 54.8417L44.1338 51.1083V51.0283H46.2805L47.6538 53.5083H47.9472L49.2805 51.0283H51.2538V51.1083L49.1605 54.8017L51.5872 58.9483V59.0283H49.4005L47.7872 56.1083H47.4938L45.9072 59.0283H43.8672ZM53.9163 59.0283C53.7119 58.7883 53.5475 58.4994 53.423 58.1617C53.3075 57.8239 53.2497 57.3172 53.2497 56.6417V52.4417H52.1563V51.0283H53.2763V49.0283H55.2097V51.0283H56.5297V52.4417H55.223V56.415C55.223 57.1261 55.303 57.6683 55.463 58.0417C55.623 58.4061 55.8141 58.7083 56.0363 58.9483V59.0283H53.9163ZM61.2216 59.2283C59.986 59.2283 59.0438 58.8505 58.3949 58.095C57.746 57.3305 57.4216 56.3039 57.4216 55.015C57.4216 54.1528 57.5638 53.4105 57.8482 52.7883C58.1416 52.1661 58.5682 51.6861 59.1282 51.3483C59.6971 51.0017 60.3904 50.8283 61.2082 50.8283C62.3727 50.8283 63.2616 51.1883 63.8749 51.9083C64.4971 52.6194 64.8082 53.6683 64.8082 55.055V55.495H59.3549C59.3993 56.1972 59.5816 56.7572 59.9016 57.175C60.2216 57.5928 60.666 57.8017 61.2349 57.8017C61.6704 57.8017 62.0216 57.6728 62.2882 57.415C62.5549 57.1572 62.7371 56.8417 62.8349 56.4683H64.7149C64.626 56.9661 64.4438 57.4239 64.1682 57.8417C63.8927 58.2594 63.5104 58.5972 63.0216 58.855C62.5416 59.1039 61.9416 59.2283 61.2216 59.2283ZM59.3549 54.215H62.8882C62.8527 53.575 62.6882 53.0772 62.3949 52.7217C62.1104 52.3661 61.7104 52.1883 61.1949 52.1883C60.6704 52.1883 60.2482 52.3617 59.9282 52.7083C59.6171 53.0461 59.426 53.5483 59.3549 54.215ZM66.2697 59.0283V51.0283H68.0697V52.4683H68.3897C68.443 52.2105 68.5408 51.9661 68.683 51.735C68.8252 51.5039 69.0475 51.3172 69.3497 51.175C69.6519 51.0239 70.0608 50.9483 70.5763 50.9483H70.963V52.7483H70.4163C69.6519 52.7483 69.1008 52.9439 68.763 53.335C68.4252 53.7261 68.2563 54.3172 68.2563 55.1083V59.0283H66.2697ZM72.3924 59.0283V51.0283H74.2191V52.2283H74.5391C74.6902 51.8194 74.9391 51.4861 75.2857 51.2283C75.6324 50.9617 76.1213 50.8283 76.7524 50.8283C77.6502 50.8283 78.3168 51.1128 78.7524 51.6817C79.1968 52.2417 79.4191 52.9928 79.4191 53.935V59.0283H77.4324V54.2817C77.4324 53.695 77.3257 53.2461 77.1124 52.935C76.9079 52.615 76.5746 52.455 76.1124 52.455C75.5613 52.455 75.1346 52.6728 74.8324 53.1083C74.5302 53.535 74.3791 54.0683 74.3791 54.7083V59.0283H72.3924ZM84.0678 59.2017C83.3389 59.2017 82.7345 59.0239 82.2545 58.6683C81.7745 58.3039 81.4145 57.8105 81.1745 57.1883C80.9434 56.5572 80.8278 55.8328 80.8278 55.015C80.8278 54.1794 80.9478 53.4505 81.1878 52.8283C81.4278 52.2061 81.7878 51.7217 82.2678 51.375C82.7478 51.0283 83.3478 50.855 84.0678 50.855C84.6367 50.855 85.0989 50.9705 85.4545 51.2017C85.8189 51.4239 86.09 51.7128 86.2678 52.0683H86.5878V51.0283H88.4145V59.0283H86.5878V57.9883H86.2678C86.09 58.3172 85.8234 58.6017 85.4678 58.8417C85.1123 59.0817 84.6456 59.2017 84.0678 59.2017ZM84.5611 57.7617C85.13 57.7617 85.5834 57.5128 85.9211 57.015C86.2678 56.5172 86.4411 55.855 86.4411 55.0283C86.4411 54.1928 86.2678 53.5305 85.9211 53.0417C85.5834 52.5439 85.13 52.295 84.5611 52.295C84.0278 52.295 83.61 52.5261 83.3078 52.9883C83.0145 53.4505 82.8678 54.1305 82.8678 55.0283C82.8678 55.9261 83.0145 56.6061 83.3078 57.0683C83.61 57.5305 84.0278 57.7617 84.5611 57.7617ZM91.1105 59.0283C90.8705 58.7528 90.6972 58.4372 90.5905 58.0817C90.4838 57.7261 90.4305 57.2461 90.4305 56.6417V48.3617H92.4172V56.4283C92.4172 57.1128 92.4927 57.6417 92.6438 58.015C92.795 58.3794 92.9905 58.6905 93.2305 58.9483V59.0283H91.1105ZM25.198 83.0283V72.6283H27.198V76.7217H27.998L31.118 72.6283H33.3847V72.7083L29.6913 77.455L33.918 82.9483V83.0283H31.4647L27.998 78.375H27.198V83.0283H25.198ZM37.1197 83.2283C36.213 83.2283 35.5375 82.9483 35.093 82.3883C34.6486 81.8194 34.4263 81.0639 34.4263 80.1217V75.0283H36.413V79.775C36.413 80.3528 36.5152 80.8017 36.7197 81.1217C36.933 81.4417 37.2663 81.6017 37.7197 81.6017C38.2797 81.6017 38.7108 81.3839 39.013 80.9483C39.3152 80.5128 39.4663 79.9794 39.4663 79.3483V75.0283H41.453V83.0283H39.6663V81.8283H39.3463C39.213 82.2372 38.9641 82.575 38.5997 82.8417C38.2441 83.0994 37.7508 83.2283 37.1197 83.2283ZM47.8751 83.2017C47.2795 83.2017 46.7995 83.0817 46.4351 82.8417C46.0795 82.6017 45.8173 82.3172 45.6484 81.9883H45.3284V83.0283H43.5018V72.3617H45.4884V75.9217H45.8084C45.9951 75.6017 46.2573 75.3439 46.5951 75.1483C46.9329 74.9528 47.364 74.855 47.8884 74.855C48.5907 74.855 49.1773 75.0283 49.6484 75.375C50.1284 75.7217 50.4884 76.2061 50.7284 76.8283C50.9684 77.4505 51.0884 78.1794 51.0884 79.015C51.0884 79.8328 50.9684 80.5572 50.7284 81.1883C50.4973 81.8105 50.1418 82.3039 49.6618 82.6683C49.1907 83.0239 48.5951 83.2017 47.8751 83.2017ZM47.3551 81.7617C47.8884 81.7617 48.3018 81.5305 48.5951 81.0683C48.8884 80.6061 49.0351 79.9261 49.0351 79.0283C49.0351 78.1305 48.8884 77.4505 48.5951 76.9883C48.3018 76.5261 47.8884 76.295 47.3551 76.295C46.7862 76.295 46.3284 76.5439 45.9818 77.0417C45.644 77.5305 45.4751 78.1928 45.4751 79.0283C45.4751 79.855 45.644 80.5172 45.9818 81.015C46.3284 81.5128 46.7862 81.7617 47.3551 81.7617ZM55.8778 83.2283C54.6423 83.2283 53.7 82.8505 53.0511 82.095C52.4023 81.3305 52.0778 80.3039 52.0778 79.015C52.0778 78.1528 52.22 77.4105 52.5045 76.7883C52.7978 76.1661 53.2245 75.6861 53.7845 75.3483C54.3534 75.0017 55.0467 74.8283 55.8645 74.8283C57.0289 74.8283 57.9178 75.1883 58.5311 75.9083C59.1534 76.6194 59.4645 77.6683 59.4645 79.055V79.495H54.0111C54.0556 80.1972 54.2378 80.7572 54.5578 81.175C54.8778 81.5928 55.3223 81.8017 55.8911 81.8017C56.3267 81.8017 56.6778 81.6728 56.9445 81.415C57.2111 81.1572 57.3934 80.8417 57.4911 80.4683H59.3711C59.2823 80.9661 59.1 81.4239 58.8245 81.8417C58.5489 82.2594 58.1667 82.5972 57.6778 82.855C57.1978 83.1039 56.5978 83.2283 55.8778 83.2283ZM54.0111 78.215H57.5445C57.5089 77.575 57.3445 77.0772 57.0511 76.7217C56.7667 76.3661 56.3667 76.1883 55.8511 76.1883C55.3267 76.1883 54.9045 76.3617 54.5845 76.7083C54.2734 77.0461 54.0823 77.5483 54.0111 78.215ZM60.9259 83.0283V75.0283H62.7259V76.4683H63.0459C63.0993 76.2105 63.197 75.9661 63.3393 75.735C63.4815 75.5039 63.7037 75.3172 64.0059 75.175C64.3082 75.0239 64.717 74.9483 65.2326 74.9483H65.6193V76.7483H65.0726C64.3082 76.7483 63.757 76.9439 63.4193 77.335C63.0815 77.7261 62.9126 78.3172 62.9126 79.1083V83.0283H60.9259ZM67.0486 83.0283V75.0283H68.8753V76.2283H69.1953C69.3464 75.8194 69.5953 75.4861 69.942 75.2283C70.2886 74.9617 70.7775 74.8283 71.4086 74.8283C72.3064 74.8283 72.9731 75.1128 73.4086 75.6817C73.8531 76.2417 74.0753 76.9928 74.0753 77.935V83.0283H72.0886V78.2817C72.0886 77.695 71.982 77.2461 71.7686 76.935C71.5642 76.615 71.2309 76.455 70.7686 76.455C70.2175 76.455 69.7909 76.6728 69.4886 77.1083C69.1864 77.535 69.0353 78.0683 69.0353 78.7083V83.0283H67.0486ZM79.2841 83.2283C78.0485 83.2283 77.1063 82.8505 76.4574 82.095C75.8085 81.3305 75.4841 80.3039 75.4841 79.015C75.4841 78.1528 75.6263 77.4105 75.9107 76.7883C76.2041 76.1661 76.6307 75.6861 77.1907 75.3483C77.7596 75.0017 78.4529 74.8283 79.2707 74.8283C80.4352 74.8283 81.3241 75.1883 81.9374 75.9083C82.5596 76.6194 82.8707 77.6683 82.8707 79.055V79.495H77.4174C77.4618 80.1972 77.6441 80.7572 77.9641 81.175C78.2841 81.5928 78.7285 81.8017 79.2974 81.8017C79.7329 81.8017 80.0841 81.6728 80.3507 81.415C80.6174 81.1572 80.7996 80.8417 80.8974 80.4683H82.7774C82.6885 80.9661 82.5063 81.4239 82.2307 81.8417C81.9552 82.2594 81.5729 82.5972 81.0841 82.855C80.6041 83.1039 80.0041 83.2283 79.2841 83.2283ZM77.4174 78.215H80.9507C80.9152 77.575 80.7507 77.0772 80.4574 76.7217C80.1729 76.3661 79.7729 76.1883 79.2574 76.1883C78.7329 76.1883 78.3107 76.3617 77.9907 76.7083C77.6796 77.0461 77.4885 77.5483 77.4174 78.215ZM85.4788 83.0283C85.2744 82.7883 85.11 82.4994 84.9855 82.1617C84.87 81.8239 84.8122 81.3172 84.8122 80.6417V76.4417H83.7188V75.0283H84.8388V73.0283H86.7722V75.0283H88.0922V76.4417H86.7855V80.415C86.7855 81.1261 86.8655 81.6683 87.0255 82.0417C87.1855 82.4061 87.3766 82.7083 87.5988 82.9483V83.0283H85.4788ZM92.7841 83.2283C91.5485 83.2283 90.6063 82.8505 89.9574 82.095C89.3085 81.3305 88.9841 80.3039 88.9841 79.015C88.9841 78.1528 89.1263 77.4105 89.4107 76.7883C89.7041 76.1661 90.1307 75.6861 90.6907 75.3483C91.2596 75.0017 91.9529 74.8283 92.7707 74.8283C93.9352 74.8283 94.8241 75.1883 95.4374 75.9083C96.0596 76.6194 96.3707 77.6683 96.3707 79.055V79.495H90.9174C90.9618 80.1972 91.1441 80.7572 91.4641 81.175C91.7841 81.5928 92.2285 81.8017 92.7974 81.8017C93.2329 81.8017 93.5841 81.6728 93.8507 81.415C94.1174 81.1572 94.2996 80.8417 94.3974 80.4683H96.2774C96.1885 80.9661 96.0063 81.4239 95.7307 81.8417C95.4552 82.2594 95.0729 82.5972 94.5841 82.855C94.1041 83.1039 93.5041 83.2283 92.7841 83.2283ZM90.9174 78.215H94.4507C94.4152 77.575 94.2507 77.0772 93.9574 76.7217C93.6729 76.3661 93.2729 76.1883 92.7574 76.1883C92.2329 76.1883 91.8107 76.3617 91.4907 76.7083C91.1796 77.0461 90.9885 77.5483 90.9174 78.215ZM100.739 83.2283C99.8855 83.2283 99.2011 83.0905 98.6855 82.815C98.17 82.5394 97.7877 82.1883 97.5388 81.7617C97.2988 81.335 97.1655 80.9039 97.1388 80.4683H99.0322C99.0677 80.7083 99.1566 80.9305 99.2988 81.135C99.45 81.3394 99.65 81.5039 99.8988 81.6283C100.157 81.7439 100.468 81.8017 100.832 81.8017C101.268 81.8017 101.588 81.7217 101.792 81.5617C101.997 81.4017 102.099 81.1972 102.099 80.9483C102.099 80.7172 102.01 80.5217 101.832 80.3617C101.654 80.2017 101.366 80.055 100.966 79.9217L100.006 79.6017C99.5522 79.4417 99.1344 79.2683 98.7522 79.0817C98.3788 78.8861 98.0766 78.6372 97.8455 78.335C97.6233 78.0328 97.5122 77.6461 97.5122 77.175C97.5122 76.4728 97.7744 75.9083 98.2988 75.4817C98.8322 75.0461 99.5788 74.8283 100.539 74.8283C101.232 74.8283 101.801 74.9394 102.246 75.1617C102.69 75.375 103.023 75.6683 103.246 76.0417C103.477 76.4061 103.61 76.815 103.646 77.2683H101.819C101.774 76.9394 101.641 76.6772 101.419 76.4817C101.197 76.2861 100.877 76.1883 100.459 76.1883C100.094 76.1883 99.8188 76.2639 99.6322 76.415C99.4455 76.5572 99.3522 76.7528 99.3522 77.0017C99.3522 77.2505 99.45 77.455 99.6455 77.615C99.8411 77.775 100.134 77.9217 100.526 78.055L101.486 78.375C101.939 78.5172 102.352 78.6861 102.726 78.8817C103.099 79.0683 103.397 79.3128 103.619 79.615C103.841 79.9172 103.952 80.3083 103.952 80.7883C103.952 81.5172 103.677 82.1083 103.126 82.5617C102.574 83.0061 101.779 83.2283 100.739 83.2283Z" fill="#EEEEF0"/>
<rect x="0.5" y="161.523" width="127.449" height="62.9153" fill="#0F0F11"/>
<path d="M35.9949 188.011V177.611H42.9816V179.237H38.0216V181.704H41.8616V183.224H38.0216V186.371H43.0616V188.011H35.9949ZM43.8672 188.011V187.931L46.3338 183.824L44.1338 180.091V180.011H46.2805L47.6538 182.491H47.9472L49.2805 180.011H51.2538V180.091L49.1605 183.784L51.5872 187.931V188.011H49.4005L47.7872 185.091H47.4938L45.9072 188.011H43.8672ZM53.9163 188.011C53.7119 187.771 53.5475 187.482 53.423 187.144C53.3075 186.806 53.2497 186.3 53.2497 185.624V181.424H52.1563V180.011H53.2763V178.011H55.2097V180.011H56.5297V181.424H55.223V185.397C55.223 186.109 55.303 186.651 55.463 187.024C55.623 187.389 55.8141 187.691 56.0363 187.931V188.011H53.9163ZM61.2216 188.211C59.986 188.211 59.0438 187.833 58.3949 187.077C57.746 186.313 57.4216 185.286 57.4216 183.997C57.4216 183.135 57.5638 182.393 57.8482 181.771C58.1416 181.149 58.5682 180.669 59.1282 180.331C59.6971 179.984 60.3904 179.811 61.2082 179.811C62.3727 179.811 63.2616 180.171 63.8749 180.891C64.4971 181.602 64.8082 182.651 64.8082 184.037V184.477H59.3549C59.3993 185.18 59.5816 185.74 59.9016 186.157C60.2216 186.575 60.666 186.784 61.2349 186.784C61.6704 186.784 62.0216 186.655 62.2882 186.397C62.5549 186.14 62.7371 185.824 62.8349 185.451H64.7149C64.626 185.949 64.4438 186.406 64.1682 186.824C63.8927 187.242 63.5104 187.58 63.0216 187.837C62.5416 188.086 61.9416 188.211 61.2216 188.211ZM59.3549 183.197H62.8882C62.8527 182.557 62.6882 182.06 62.3949 181.704C62.1104 181.349 61.7104 181.171 61.1949 181.171C60.6704 181.171 60.2482 181.344 59.9282 181.691C59.6171 182.029 59.426 182.531 59.3549 183.197ZM66.2697 188.011V180.011H68.0697V181.451H68.3897C68.443 181.193 68.5408 180.949 68.683 180.717C68.8252 180.486 69.0475 180.3 69.3497 180.157C69.6519 180.006 70.0608 179.931 70.5763 179.931H70.963V181.731H70.4163C69.6519 181.731 69.1008 181.926 68.763 182.317C68.4252 182.709 68.2563 183.3 68.2563 184.091V188.011H66.2697ZM72.3924 188.011V180.011H74.2191V181.211H74.5391C74.6902 180.802 74.9391 180.469 75.2857 180.211C75.6324 179.944 76.1213 179.811 76.7524 179.811C77.6502 179.811 78.3168 180.095 78.7524 180.664C79.1968 181.224 79.4191 181.975 79.4191 182.917V188.011H77.4324V183.264C77.4324 182.677 77.3257 182.229 77.1124 181.917C76.9079 181.597 76.5746 181.437 76.1124 181.437C75.5613 181.437 75.1346 181.655 74.8324 182.091C74.5302 182.517 74.3791 183.051 74.3791 183.691V188.011H72.3924ZM84.0678 188.184C83.3389 188.184 82.7345 188.006 82.2545 187.651C81.7745 187.286 81.4145 186.793 81.1745 186.171C80.9434 185.54 80.8278 184.815 80.8278 183.997C80.8278 183.162 80.9478 182.433 81.1878 181.811C81.4278 181.189 81.7878 180.704 82.2678 180.357C82.7478 180.011 83.3478 179.837 84.0678 179.837C84.6367 179.837 85.0989 179.953 85.4545 180.184C85.8189 180.406 86.09 180.695 86.2678 181.051H86.5878V180.011H88.4145V188.011H86.5878V186.971H86.2678C86.09 187.3 85.8234 187.584 85.4678 187.824C85.1123 188.064 84.6456 188.184 84.0678 188.184ZM84.5611 186.744C85.13 186.744 85.5834 186.495 85.9211 185.997C86.2678 185.5 86.4411 184.837 86.4411 184.011C86.4411 183.175 86.2678 182.513 85.9211 182.024C85.5834 181.526 85.13 181.277 84.5611 181.277C84.0278 181.277 83.61 181.509 83.3078 181.971C83.0145 182.433 82.8678 183.113 82.8678 184.011C82.8678 184.909 83.0145 185.589 83.3078 186.051C83.61 186.513 84.0278 186.744 84.5611 186.744ZM91.1105 188.011C90.8705 187.735 90.6972 187.42 90.5905 187.064C90.4838 186.709 90.4305 186.229 90.4305 185.624V177.344H92.4172V185.411C92.4172 186.095 92.4927 186.624 92.6438 186.997C92.795 187.362 92.9905 187.673 93.2305 187.931V188.011H91.1105ZM31.3442 212.011V201.611H33.3975V212.011H31.3442ZM35.494 212.011V204.011H37.3206V205.211H37.6406C37.7917 204.802 38.0406 204.469 38.3873 204.211C38.734 203.944 39.2228 203.811 39.854 203.811C40.7517 203.811 41.4184 204.095 41.854 204.664C42.2984 205.224 42.5206 205.975 42.5206 206.917V212.011H40.534V207.264C40.534 206.677 40.4273 206.229 40.214 205.917C40.0095 205.597 39.6762 205.437 39.214 205.437C38.6628 205.437 38.2362 205.655 37.934 206.091C37.6317 206.517 37.4806 207.051 37.4806 207.691V212.011H35.494ZM47.356 212.211C46.5027 212.211 45.8183 212.073 45.3027 211.797C44.7871 211.522 44.4049 211.171 44.156 210.744C43.916 210.317 43.7827 209.886 43.756 209.451H45.6494C45.6849 209.691 45.7738 209.913 45.916 210.117C46.0671 210.322 46.2671 210.486 46.516 210.611C46.7738 210.726 47.0849 210.784 47.4494 210.784C47.8849 210.784 48.2049 210.704 48.4094 210.544C48.6138 210.384 48.716 210.18 48.716 209.931C48.716 209.7 48.6271 209.504 48.4494 209.344C48.2716 209.184 47.9827 209.037 47.5827 208.904L46.6227 208.584C46.1694 208.424 45.7516 208.251 45.3694 208.064C44.996 207.869 44.6938 207.62 44.4627 207.317C44.2405 207.015 44.1294 206.629 44.1294 206.157C44.1294 205.455 44.3916 204.891 44.916 204.464C45.4494 204.029 46.196 203.811 47.156 203.811C47.8494 203.811 48.4183 203.922 48.8627 204.144C49.3071 204.357 49.6405 204.651 49.8627 205.024C50.0938 205.389 50.2271 205.797 50.2627 206.251H48.436C48.3916 205.922 48.2583 205.66 48.036 205.464C47.8138 205.269 47.4938 205.171 47.076 205.171C46.7116 205.171 46.436 205.246 46.2494 205.397C46.0627 205.54 45.9694 205.735 45.9694 205.984C45.9694 206.233 46.0671 206.437 46.2627 206.597C46.4583 206.757 46.7516 206.904 47.1427 207.037L48.1027 207.357C48.556 207.5 48.9694 207.669 49.3427 207.864C49.716 208.051 50.0138 208.295 50.236 208.597C50.4583 208.9 50.5694 209.291 50.5694 209.771C50.5694 210.5 50.2938 211.091 49.7427 211.544C49.1916 211.989 48.396 212.211 47.356 212.211ZM53.096 212.011C52.8916 211.771 52.7271 211.482 52.6027 211.144C52.4871 210.806 52.4294 210.3 52.4294 209.624V205.424H51.336V204.011H52.456V202.011H54.3894V204.011H55.7094V205.424H54.4027V209.397C54.4027 210.109 54.4827 210.651 54.6427 211.024C54.8027 211.389 54.9938 211.691 55.216 211.931V212.011H53.096ZM59.8412 212.184C59.1124 212.184 58.5079 212.006 58.0279 211.651C57.5479 211.286 57.1879 210.793 56.9479 210.171C56.7168 209.54 56.6012 208.815 56.6012 207.997C56.6012 207.162 56.7212 206.433 56.9612 205.811C57.2012 205.189 57.5612 204.704 58.0412 204.357C58.5212 204.011 59.1212 203.837 59.8412 203.837C60.4101 203.837 60.8724 203.953 61.2279 204.184C61.5924 204.406 61.8635 204.695 62.0412 205.051H62.3612V204.011H64.1879V212.011H62.3612V210.971H62.0412C61.8635 211.3 61.5968 211.584 61.2412 211.824C60.8857 212.064 60.419 212.184 59.8412 212.184ZM60.3346 210.744C60.9035 210.744 61.3568 210.495 61.6946 209.997C62.0412 209.5 62.2146 208.837 62.2146 208.011C62.2146 207.175 62.0412 206.513 61.6946 206.024C61.3568 205.526 60.9035 205.277 60.3346 205.277C59.8012 205.277 59.3835 205.509 59.0812 205.971C58.7879 206.433 58.6412 207.113 58.6412 208.011C58.6412 208.909 58.7879 209.589 59.0812 210.051C59.3835 210.513 59.8012 210.744 60.3346 210.744ZM66.244 212.011V204.011H68.0706V205.211H68.3906C68.5417 204.802 68.7906 204.469 69.1373 204.211C69.484 203.944 69.9728 203.811 70.604 203.811C71.5017 203.811 72.1684 204.095 72.604 204.664C73.0484 205.224 73.2706 205.975 73.2706 206.917V212.011H71.284V207.264C71.284 206.677 71.1773 206.229 70.964 205.917C70.7595 205.597 70.4262 205.437 69.964 205.437C69.4128 205.437 68.9862 205.655 68.684 206.091C68.3817 206.517 68.2306 207.051 68.2306 207.691V212.011H66.244ZM78.3994 212.211C77.1816 212.211 76.2571 211.833 75.626 211.077C74.9949 210.313 74.6794 209.291 74.6794 208.011C74.6794 206.669 75.0083 205.633 75.666 204.904C76.3327 204.175 77.2483 203.811 78.4127 203.811C79.4438 203.811 80.2571 204.086 80.8527 204.637C81.4483 205.189 81.8038 205.944 81.9194 206.904H79.9727C79.9105 206.371 79.746 205.962 79.4794 205.677C79.2127 205.384 78.866 205.237 78.4394 205.237C77.8794 205.237 77.4527 205.482 77.1594 205.971C76.866 206.451 76.7194 207.131 76.7194 208.011C76.7194 208.891 76.8616 209.571 77.146 210.051C77.4394 210.531 77.866 210.771 78.426 210.771C78.8616 210.771 79.2127 210.629 79.4794 210.344C79.746 210.051 79.9105 209.637 79.9727 209.104H81.9194C81.7949 210.064 81.4305 210.824 80.826 211.384C80.2305 211.935 79.4216 212.211 78.3994 212.211ZM86.6512 212.211C85.4157 212.211 84.4735 211.833 83.8246 211.077C83.1757 210.313 82.8512 209.286 82.8512 207.997C82.8512 207.135 82.9935 206.393 83.2779 205.771C83.5712 205.149 83.9979 204.669 84.5579 204.331C85.1268 203.984 85.8201 203.811 86.6379 203.811C87.8024 203.811 88.6912 204.171 89.3046 204.891C89.9268 205.602 90.2379 206.651 90.2379 208.037V208.477H84.7846C84.829 209.18 85.0112 209.74 85.3312 210.157C85.6512 210.575 86.0957 210.784 86.6646 210.784C87.1001 210.784 87.4512 210.655 87.7179 210.397C87.9846 210.14 88.1668 209.824 88.2646 209.451H90.1446C90.0557 209.949 89.8735 210.406 89.5979 210.824C89.3224 211.242 88.9401 211.58 88.4512 211.837C87.9712 212.086 87.3712 212.211 86.6512 212.211ZM84.7846 207.197H88.3179C88.2824 206.557 88.1179 206.06 87.8246 205.704C87.5401 205.349 87.1401 205.171 86.6246 205.171C86.1001 205.171 85.6779 205.344 85.3579 205.691C85.0468 206.029 84.8557 206.531 84.7846 207.197ZM94.606 212.211C93.7527 212.211 93.0683 212.073 92.5527 211.797C92.0371 211.522 91.6549 211.171 91.406 210.744C91.166 210.317 91.0327 209.886 91.006 209.451H92.8994C92.9349 209.691 93.0238 209.913 93.166 210.117C93.3171 210.322 93.5171 210.486 93.766 210.611C94.0238 210.726 94.3349 210.784 94.6994 210.784C95.1349 210.784 95.4549 210.704 95.6594 210.544C95.8638 210.384 95.966 210.18 95.966 209.931C95.966 209.7 95.8771 209.504 95.6994 209.344C95.5216 209.184 95.2327 209.037 94.8327 208.904L93.8727 208.584C93.4194 208.424 93.0016 208.251 92.6194 208.064C92.246 207.869 91.9438 207.62 91.7127 207.317C91.4905 207.015 91.3794 206.629 91.3794 206.157C91.3794 205.455 91.6416 204.891 92.166 204.464C92.6994 204.029 93.446 203.811 94.406 203.811C95.0994 203.811 95.6683 203.922 96.1127 204.144C96.5571 204.357 96.8905 204.651 97.1127 205.024C97.3438 205.389 97.4771 205.797 97.5127 206.251H95.686C95.6416 205.922 95.5083 205.66 95.286 205.464C95.0638 205.269 94.7438 205.171 94.326 205.171C93.9616 205.171 93.686 205.246 93.4994 205.397C93.3127 205.54 93.2194 205.735 93.2194 205.984C93.2194 206.233 93.3171 206.437 93.5127 206.597C93.7083 206.757 94.0016 206.904 94.3927 207.037L95.3527 207.357C95.806 207.5 96.2194 207.669 96.5927 207.864C96.966 208.051 97.2638 208.295 97.486 208.597C97.7083 208.9 97.8194 209.291 97.8194 209.771C97.8194 210.5 97.5438 211.091 96.9927 211.544C96.4416 211.989 95.646 212.211 94.606 212.211Z" fill="#EEEEF0"/>
<defs>
<linearGradient id="paint0_linear_1278_44980" x1="497.063" y1="47.9371" x2="768.874" y2="47.9371" gradientUnits="userSpaceOnUse">
<stop offset="0.7" stop-color="#3B82F6"/>
<stop offset="1" stop-color="#3B82F6" stop-opacity="0"/>
</linearGradient>
<linearGradient id="paint1_linear_1278_44980" x1="497.34" y1="81.2321" x2="117.467" y2="81.2321" gradientUnits="userSpaceOnUse">
<stop offset="0.7" stop-color="#3B82F6"/>
<stop offset="1" stop-color="#3B82F6" stop-opacity="0"/>
</linearGradient>
<linearGradient id="paint2_linear_1278_44980" x1="497.34" y1="257.571" x2="704.643" y2="257.571" gradientUnits="userSpaceOnUse">
<stop offset="0.65" stop-color="#3B82F6"/>
<stop offset="1" stop-color="#3B82F6" stop-opacity="0"/>
</linearGradient>
<linearGradient id="paint3_linear_1278_44980" x1="497.34" y1="257.57" x2="266.214" y2="257.57" gradientUnits="userSpaceOnUse">
<stop offset="0.830838" stop-color="#3B82F6"/>
<stop offset="1" stop-color="#3B82F6" stop-opacity="0"/>
</linearGradient>
<linearGradient id="paint4_linear_1278_44980" x1="500.355" y1="192.511" x2="768.873" y2="192.511" gradientUnits="userSpaceOnUse">
<stop offset="0.706363" stop-color="#3B82F6"/>
<stop offset="1" stop-color="#3B82F6" stop-opacity="0"/>
</linearGradient>
<linearGradient id="paint5_linear_1278_44980" x1="124.811" y1="192.511" x2="465.906" y2="192.511" gradientUnits="userSpaceOnUse">
<stop stop-color="#3B82F6" stop-opacity="0"/>
<stop offset="0.55" stop-color="#3B82F6"/>
</linearGradient>
<linearGradient id="paint6_linear_1278_44980" x1="522.664" y1="128.288" x2="672.682" y2="128.288" gradientUnits="userSpaceOnUse">
<stop offset="0.579938" stop-color="#3B82F6"/>
<stop offset="1" stop-color="#3B82F6" stop-opacity="0"/>
</linearGradient>
<linearGradient id="paint7_linear_1278_44980" x1="255.948" y1="128.289" x2="448.479" y2="128.289" gradientUnits="userSpaceOnUse">
<stop stop-color="#3B82F6" stop-opacity="0"/>
<stop offset="0.420062" stop-color="#3B82F6"/>
</linearGradient>
<linearGradient id="paint8_linear_1278_44980" x1="575.762" y1="0.583008" x2="575.762" y2="320.98" gradientUnits="userSpaceOnUse">
<stop stop-color="#3B82F6" stop-opacity="0"/>
<stop offset="0.505" stop-color="#3B82F6"/>
<stop offset="1" stop-color="#3B82F6" stop-opacity="0"/>
</linearGradient>
<linearGradient id="paint9_linear_1278_44980" x1="351.852" y1="-4.7362" x2="351.852" y2="316.256" gradientUnits="userSpaceOnUse">
<stop stop-color="#3B82F6" stop-opacity="0"/>
<stop offset="0.505" stop-color="#3B82F6"/>
<stop offset="1" stop-color="#3B82F6" stop-opacity="0"/>
</linearGradient>
<linearGradient id="paint10_linear_1278_44980" x1="640.119" y1="63.7871" x2="640.119" y2="191.761" gradientUnits="userSpaceOnUse">
<stop stop-color="#3B82F6" stop-opacity="0"/>
<stop offset="0.535" stop-color="#3B82F6"/>
<stop offset="1" stop-color="#3B82F6" stop-opacity="0"/>
</linearGradient>
<linearGradient id="paint11_linear_1278_44980" x1="288.086" y1="33.0791" x2="288.086" y2="288.92" gradientUnits="userSpaceOnUse">
<stop stop-color="#3B82F6" stop-opacity="0"/>
<stop offset="0.535" stop-color="#3B82F6"/>
<stop offset="1" stop-color="#3B82F6" stop-opacity="0"/>
</linearGradient>
</defs>
</svg>
