<svg width="1120" height="322" viewBox="0 0 1120 322" fill="none" xmlns="http://www.w3.org/2000/svg">
<path d="M543.113 65.0294L928.268 65.0283" stroke="url(#paint0_linear_1278_46236)" stroke-width="2"/>
<path d="M543.42 65.0283L127.944 65.0282" stroke="url(#paint1_linear_1278_46236)" stroke-width="2"/>
<path d="M543.418 257.056L800.917 257.057" stroke="url(#paint2_linear_1278_46236)" stroke-width="2"/>
<path d="M543.418 257.057L290.63 257.057" stroke="url(#paint3_linear_1278_46236)" stroke-width="2"/>
<path d="M960.582 193.001L582.847 193.001" stroke="url(#paint4_linear_1278_46236)" stroke-width="2"/>
<path d="M509.039 193.001L127.943 193.001" stroke="url(#paint5_linear_1278_46236)" stroke-width="2"/>
<path d="M800.527 129.007L596.251 129.007" stroke="url(#paint6_linear_1278_46236)" stroke-width="2"/>
<path d="M489.979 129.007L287.995 129.007" stroke="url(#paint7_linear_1278_46236)" stroke-width="2"/>
<path d="M640.031 0.503784L640.031 321.496" stroke="url(#paint8_linear_1278_46236)" stroke-width="2"/>
<path d="M448.172 0.503906L448.172 321.496" stroke="url(#paint9_linear_1278_46236)" stroke-width="2"/>
<path d="M735.848 65.0776L735.848 193.052" stroke="url(#paint10_linear_1278_46236)" stroke-width="2"/>
<path d="M384.008 33.0052L384.008 288.995" stroke="url(#paint11_linear_1278_46236)" stroke-width="2"/>
<ellipse cx="735.848" cy="129.007" rx="6.25013" ry="6.25" fill="#60A5FA"/>
<ellipse cx="384.008" cy="129.007" rx="6.25013" ry="6.25" fill="#60A5FA"/>
<path d="M604.602 153.794V105.987C604.602 101.568 601.02 98.0001 596.602 98.0001H544.102H491.602C487.183 98.0001 483.602 101.573 483.602 105.992C483.602 114.686 483.602 130.529 483.602 153.794C483.602 191.372 505.12 204.251 544.102 224C582.102 206.686 604.602 193.317 604.602 153.794Z" fill="#1D4ED8"/>
<path fill-rule="evenodd" clip-rule="evenodd" d="M548.655 124.037L542.014 122.525C542.511 122.525 543.044 122.488 543.645 122.448C544.42 122.395 545.309 122.335 546.378 122.335C550.362 122.335 553.588 123.659 556.623 125.361C557.043 125.57 557.405 126.01 557.772 126.458C558.07 126.82 558.371 127.187 558.71 127.44C560.228 128.008 561.746 128.386 563.264 128.197V127.629C564.971 128.008 566.679 129.898 566.679 131.222H558.9C558.71 131.222 558.331 131.411 558.141 131.6C558.331 131.789 558.71 132.167 558.9 132.167C559.258 132.167 559.648 132.157 560.06 132.145C561.393 132.109 562.953 132.067 564.402 132.356C564.376 132.4 564.348 132.446 564.32 132.494C563.727 133.487 562.633 135.32 561.367 134.058C561.367 133.68 553.967 133.869 552.07 134.247C551.69 134.247 551.311 135.003 551.501 135.381C552.35 137.438 554.365 138.72 556.252 139.922C557.315 140.598 558.338 141.25 559.09 141.999C564.402 146.158 566.11 149.94 564.971 157.124C562.12 168.322 557.638 170.213 548.904 173.896C547.758 174.38 546.538 174.894 545.24 175.464C542.014 176.977 540.117 180.569 540.686 184.161C542.014 191.913 554.347 193.993 556.813 184.918C557.572 181.325 556.623 176.221 549.793 174.708C552.829 173.384 555.675 171.872 558.331 170.17C558.71 169.792 559.09 169.792 559.469 170.17C567.058 177.166 568.956 190.023 556.434 197.585C547.516 202.501 536.322 198.342 532.717 188.888C529.113 179.246 534.804 168.847 544.86 166.767C552.07 165.633 559.469 158.07 556.244 151.074C554.812 147.935 550.679 144.796 547.188 142.145C546.053 141.283 544.986 140.472 544.101 139.73C543.601 139.431 542.786 139.5 541.876 139.576C541.059 139.645 540.166 139.72 539.358 139.541C539.737 139.257 539.968 138.975 540.199 138.693C540.43 138.41 540.66 138.128 541.04 137.844C539.333 136.797 538.274 136.654 536.966 136.476C536.384 136.398 535.753 136.312 534.994 136.138C535.563 135.003 538.019 133.682 539.726 133.493C539.674 133 539.64 132.574 539.611 132.201C539.424 129.864 539.406 129.638 536.133 128.008C538.079 126.714 539.8 127.001 541.471 127.279C543.22 127.571 544.914 127.853 546.757 126.306C544.481 125.55 542.204 124.793 540.117 123.47C541.186 123.541 542.237 123.73 543.283 123.917C545.022 124.23 546.748 124.539 548.524 124.303L548.655 124.037ZM532.717 172.628C523.61 166.956 523.041 152.587 533.287 146.347C540.876 141.621 549.414 143.322 555.105 151.641C555.864 152.965 555.864 155.045 555.485 156.557C553.967 161.662 550.173 164.498 545.05 165.633C546.568 164.498 547.706 162.797 548.086 160.906C549.793 150.318 533.287 149.183 534.046 160.528C533.856 163.742 536.322 166.011 541.066 166.767C538.599 168.28 536.512 169.603 534.235 172.439C533.856 173.006 533.476 173.006 532.717 172.628ZM530.43 180.831C527.509 181.375 524.429 181.949 521.523 183.216C522.852 177.733 527.595 173.952 533.287 173.952C531.769 175.842 531.01 178.3 530.82 180.758C530.69 180.782 530.56 180.807 530.43 180.831ZM554.906 128.644L555.476 129.211L554.717 129.589C554.337 129.778 554.147 129.589 553.958 129.4C553.578 128.833 554.717 128.455 554.906 128.644Z" fill="#EEEEF0"/>
<ellipse cx="224.096" cy="193.001" rx="6.25013" ry="6.25" fill="#60A5FA"/>
<ellipse cx="831.611" cy="193.001" rx="6.25013" ry="6.25" fill="#60A5FA"/>
<ellipse cx="287.994" cy="65.0277" rx="6.25013" ry="6.25" fill="#60A5FA"/>
<ellipse cx="448.172" cy="257.057" rx="6.25013" ry="6.25" fill="#60A5FA"/>
<ellipse cx="640.031" cy="255.88" rx="6.25013" ry="6.25" fill="#60A5FA"/>
<ellipse cx="800.381" cy="65.0776" rx="6.25013" ry="6.25" fill="#60A5FA"/>
<rect x="928.535" y="33.4644" width="126.936" height="62.9707" fill="#0F0F11"/>
<path d="M968.545 59.0776V48.6776H972.185L974.319 57.451H974.759L976.919 48.6776H980.559V59.0776H978.625V50.371H978.279L976.185 59.0776H972.799L970.705 50.371H970.359V59.0776H968.545ZM985.966 59.2776C984.668 59.2776 983.699 58.8999 983.059 58.1443C982.428 57.3799 982.112 56.3576 982.112 55.0776C982.112 53.7976 982.428 52.7799 983.059 52.0243C983.699 51.2599 984.668 50.8776 985.966 50.8776C987.264 50.8776 988.232 51.2599 988.872 52.0243C989.512 52.7799 989.832 53.7976 989.832 55.0776C989.832 56.3576 989.512 57.3799 988.872 58.1443C988.232 58.8999 987.264 59.2776 985.966 59.2776ZM985.966 57.9043C986.597 57.9043 987.055 57.6643 987.339 57.1843C987.632 56.6954 987.779 55.9932 987.779 55.0776C987.779 54.1532 987.632 53.451 987.339 52.971C987.055 52.491 986.597 52.251 985.966 52.251C985.344 52.251 984.886 52.491 984.592 52.971C984.299 53.451 984.152 54.1532 984.152 55.0776C984.152 55.9932 984.299 56.6954 984.592 57.1843C984.886 57.6643 985.344 57.9043 985.966 57.9043ZM995.722 59.251C995.127 59.251 994.647 59.131 994.282 58.891C993.927 58.651 993.664 58.3665 993.496 58.0376H993.176V59.0776H991.349V48.411H993.336V51.971H993.656C993.842 51.651 994.104 51.3932 994.442 51.1976C994.78 51.0021 995.211 50.9043 995.736 50.9043C996.438 50.9043 997.024 51.0776 997.496 51.4243C997.976 51.771 998.336 52.2554 998.576 52.8776C998.816 53.4999 998.936 54.2287 998.936 55.0643C998.936 55.8821 998.816 56.6065 998.576 57.2376C998.344 57.8599 997.989 58.3532 997.509 58.7176C997.038 59.0732 996.442 59.251 995.722 59.251ZM995.202 57.811C995.736 57.811 996.149 57.5799 996.442 57.1176C996.736 56.6554 996.882 55.9754 996.882 55.0776C996.882 54.1799 996.736 53.4999 996.442 53.0376C996.149 52.5754 995.736 52.3443 995.202 52.3443C994.633 52.3443 994.176 52.5932 993.829 53.091C993.491 53.5799 993.322 54.2421 993.322 55.0776C993.322 55.9043 993.491 56.5665 993.829 57.0643C994.176 57.5621 994.633 57.811 995.202 57.811ZM1000.46 59.0776V51.0776H1002.44V59.0776H1000.46ZM1001.44 50.1043C1001.09 50.1043 1000.82 50.011 1000.63 49.8243C1000.44 49.6287 1000.35 49.3799 1000.35 49.0776C1000.35 48.7665 1000.44 48.5176 1000.63 48.331C1000.82 48.1443 1001.09 48.051 1001.44 48.051C1001.8 48.051 1002.07 48.1443 1002.26 48.331C1002.44 48.5176 1002.54 48.7665 1002.54 49.0776C1002.54 49.3799 1002.44 49.6287 1002.26 49.8243C1002.07 50.011 1001.8 50.1043 1001.44 50.1043ZM1005.15 59.0776C1004.91 58.8021 1004.73 58.4865 1004.63 58.131C1004.52 57.7754 1004.47 57.2954 1004.47 56.691V48.411H1006.45V56.4776C1006.45 57.1621 1006.53 57.691 1006.68 58.0643C1006.83 58.4287 1007.03 58.7399 1007.27 58.9976V59.0776H1005.15ZM1011.85 59.2776C1010.61 59.2776 1009.67 58.8999 1009.02 58.1443C1008.37 57.3799 1008.05 56.3532 1008.05 55.0643C1008.05 54.2021 1008.19 53.4599 1008.48 52.8376C1008.77 52.2154 1009.2 51.7354 1009.76 51.3976C1010.33 51.051 1011.02 50.8776 1011.84 50.8776C1013 50.8776 1013.89 51.2376 1014.5 51.9576C1015.13 52.6687 1015.44 53.7176 1015.44 55.1043V55.5443H1009.98C1010.03 56.2465 1010.21 56.8065 1010.53 57.2243C1010.85 57.6421 1011.29 57.851 1011.86 57.851C1012.3 57.851 1012.65 57.7221 1012.92 57.4643C1013.18 57.2065 1013.37 56.891 1013.46 56.5176H1015.34C1015.25 57.0154 1015.07 57.4732 1014.8 57.891C1014.52 58.3087 1014.14 58.6465 1013.65 58.9043C1013.17 59.1532 1012.57 59.2776 1011.85 59.2776ZM1009.98 54.2643H1013.52C1013.48 53.6243 1013.32 53.1265 1013.02 52.771C1012.74 52.4154 1012.34 52.2376 1011.82 52.2376C1011.3 52.2376 1010.88 52.411 1010.56 52.7576C1010.25 53.0954 1010.05 53.5976 1009.98 54.2643ZM965.389 83.0776V72.6776H969.016C970.847 72.6776 972.176 73.1354 973.002 74.051C973.838 74.9576 974.256 76.2332 974.256 77.8776C974.256 79.5221 973.838 80.8021 973.002 81.7176C972.176 82.6243 970.847 83.0776 969.016 83.0776H965.389ZM967.442 81.4643H968.882C969.62 81.4643 970.229 81.3487 970.709 81.1176C971.189 80.8865 971.544 80.5132 971.776 79.9976C972.016 79.4732 972.136 78.7665 972.136 77.8776C972.136 76.9887 972.016 76.2821 971.776 75.7576C971.544 75.2332 971.189 74.8599 970.709 74.6376C970.229 74.4065 969.62 74.291 968.882 74.291H967.442V81.4643ZM978.991 83.2776C977.755 83.2776 976.813 82.8999 976.164 82.1443C975.515 81.3799 975.191 80.3532 975.191 79.0643C975.191 78.2021 975.333 77.4599 975.617 76.8376C975.911 76.2154 976.337 75.7354 976.897 75.3976C977.466 75.051 978.159 74.8776 978.977 74.8776C980.142 74.8776 981.031 75.2376 981.644 75.9576C982.266 76.6687 982.577 77.7176 982.577 79.1043V79.5443H977.124C977.168 80.2465 977.351 80.8065 977.671 81.2243C977.991 81.6421 978.435 81.851 979.004 81.851C979.439 81.851 979.791 81.7221 980.057 81.4643C980.324 81.2065 980.506 80.891 980.604 80.5176H982.484C982.395 81.0154 982.213 81.4732 981.937 81.891C981.662 82.3087 981.279 82.6465 980.791 82.9043C980.311 83.1532 979.711 83.2776 978.991 83.2776ZM977.124 78.2643H980.657C980.622 77.6243 980.457 77.1265 980.164 76.771C979.879 76.4154 979.479 76.2376 978.964 76.2376C978.439 76.2376 978.017 76.411 977.697 76.7576C977.386 77.0954 977.195 77.5976 977.124 78.2643ZM985.405 83.0776L983.071 75.1576V75.0776H985.071L986.858 81.451H987.178L988.978 75.0776H990.805V75.1576L988.471 83.0776H985.405ZM992.021 83.0776V75.0776H994.007V83.0776H992.021ZM993.007 74.1043C992.652 74.1043 992.381 74.011 992.194 73.8243C992.007 73.6287 991.914 73.3799 991.914 73.0776C991.914 72.7665 992.007 72.5176 992.194 72.331C992.381 72.1443 992.652 72.051 993.007 72.051C993.363 72.051 993.634 72.1443 993.821 72.331C994.007 72.5176 994.101 72.7665 994.101 73.0776C994.101 73.3799 994.007 73.6287 993.821 73.8243C993.634 74.011 993.363 74.1043 993.007 74.1043ZM999.254 83.2776C998.037 83.2776 997.112 82.8999 996.481 82.1443C995.85 81.3799 995.534 80.3576 995.534 79.0776C995.534 77.7354 995.863 76.6999 996.521 75.971C997.188 75.2421 998.103 74.8776 999.268 74.8776C1000.3 74.8776 1001.11 75.1532 1001.71 75.7043C1002.3 76.2554 1002.66 77.011 1002.77 77.971H1000.83C1000.77 77.4376 1000.6 77.0287 1000.33 76.7443C1000.07 76.451 999.721 76.3043 999.294 76.3043C998.734 76.3043 998.308 76.5487 998.014 77.0376C997.721 77.5176 997.574 78.1976 997.574 79.0776C997.574 79.9576 997.717 80.6376 998.001 81.1176C998.294 81.5976 998.721 81.8376 999.281 81.8376C999.717 81.8376 1000.07 81.6954 1000.33 81.411C1000.6 81.1176 1000.77 80.7043 1000.83 80.171H1002.77C1002.65 81.131 1002.29 81.891 1001.68 82.451C1001.09 83.0021 1000.28 83.2776 999.254 83.2776ZM1007.51 83.2776C1006.27 83.2776 1005.33 82.8999 1004.68 82.1443C1004.03 81.3799 1003.71 80.3532 1003.71 79.0643C1003.71 78.2021 1003.85 77.4599 1004.13 76.8376C1004.43 76.2154 1004.85 75.7354 1005.41 75.3976C1005.98 75.051 1006.68 74.8776 1007.49 74.8776C1008.66 74.8776 1009.55 75.2376 1010.16 75.9576C1010.78 76.6687 1011.09 77.7176 1011.09 79.1043V79.5443H1005.64C1005.68 80.2465 1005.87 80.8065 1006.19 81.2243C1006.51 81.6421 1006.95 81.851 1007.52 81.851C1007.96 81.851 1008.31 81.7221 1008.57 81.4643C1008.84 81.2065 1009.02 80.891 1009.12 80.5176H1011C1010.91 81.0154 1010.73 81.4732 1010.45 81.891C1010.18 82.3087 1009.8 82.6465 1009.31 82.9043C1008.83 83.1532 1008.23 83.2776 1007.51 83.2776ZM1005.64 78.2643H1009.17C1009.14 77.6243 1008.97 77.1265 1008.68 76.771C1008.4 76.4154 1008 76.2376 1007.48 76.2376C1006.96 76.2376 1006.53 76.411 1006.21 76.7576C1005.9 77.0954 1005.71 77.5976 1005.64 78.2643ZM1015.46 83.2776C1014.61 83.2776 1013.92 83.1399 1013.41 82.8643C1012.89 82.5887 1012.51 82.2376 1012.26 81.811C1012.02 81.3843 1011.89 80.9532 1011.86 80.5176H1013.75C1013.79 80.7576 1013.88 80.9799 1014.02 81.1843C1014.17 81.3887 1014.37 81.5532 1014.62 81.6776C1014.88 81.7932 1015.19 81.851 1015.55 81.851C1015.99 81.851 1016.31 81.771 1016.51 81.611C1016.72 81.451 1016.82 81.2465 1016.82 80.9976C1016.82 80.7665 1016.73 80.571 1016.55 80.411C1016.38 80.251 1016.09 80.1043 1015.69 79.971L1014.73 79.651C1014.27 79.491 1013.86 79.3176 1013.47 79.131C1013.1 78.9354 1012.8 78.6865 1012.57 78.3843C1012.35 78.0821 1012.23 77.6954 1012.23 77.2243C1012.23 76.5221 1012.5 75.9576 1013.02 75.531C1013.55 75.0954 1014.3 74.8776 1015.26 74.8776C1015.95 74.8776 1016.52 74.9887 1016.97 75.211C1017.41 75.4243 1017.75 75.7176 1017.97 76.091C1018.2 76.4554 1018.33 76.8643 1018.37 77.3176H1016.54C1016.5 76.9887 1016.36 76.7265 1016.14 76.531C1015.92 76.3354 1015.6 76.2376 1015.18 76.2376C1014.82 76.2376 1014.54 76.3132 1014.35 76.4643C1014.17 76.6065 1014.07 76.8021 1014.07 77.051C1014.07 77.2999 1014.17 77.5043 1014.37 77.6643C1014.56 77.8243 1014.86 77.971 1015.25 78.1043L1016.21 78.4243C1016.66 78.5665 1017.07 78.7354 1017.45 78.931C1017.82 79.1176 1018.12 79.3621 1018.34 79.6643C1018.56 79.9665 1018.67 80.3576 1018.67 80.8376C1018.67 81.5665 1018.4 82.1576 1017.85 82.611C1017.3 83.0554 1016.5 83.2776 1015.46 83.2776Z" fill="#EEEEF0"/>
<rect x="800.527" y="97.546" width="126.741" height="63.0371" fill="#0F0F11"/>
<path d="M846.125 122.757V112.357H848.179V121.117H852.659V122.757H846.125ZM857.14 122.957C855.842 122.957 854.873 122.579 854.233 121.823C853.602 121.059 853.286 120.037 853.286 118.757C853.286 117.477 853.602 116.459 854.233 115.703C854.873 114.939 855.842 114.557 857.14 114.557C858.437 114.557 859.406 114.939 860.046 115.703C860.686 116.459 861.006 117.477 861.006 118.757C861.006 120.037 860.686 121.059 860.046 121.823C859.406 122.579 858.437 122.957 857.14 122.957ZM857.14 121.583C857.771 121.583 858.229 121.343 858.513 120.863C858.806 120.374 858.953 119.672 858.953 118.757C858.953 117.832 858.806 117.13 858.513 116.65C858.229 116.17 857.771 115.93 857.14 115.93C856.517 115.93 856.06 116.17 855.766 116.65C855.473 117.13 855.326 117.832 855.326 118.757C855.326 119.672 855.473 120.374 855.766 120.863C856.06 121.343 856.517 121.583 857.14 121.583ZM865.709 122.957C864.492 122.957 863.567 122.579 862.936 121.823C862.305 121.059 861.989 120.037 861.989 118.757C861.989 117.414 862.318 116.379 862.976 115.65C863.643 114.921 864.558 114.557 865.723 114.557C866.754 114.557 867.567 114.832 868.163 115.383C868.758 115.934 869.114 116.69 869.229 117.65H867.283C867.221 117.117 867.056 116.708 866.789 116.423C866.523 116.13 866.176 115.983 865.749 115.983C865.189 115.983 864.763 116.228 864.469 116.717C864.176 117.197 864.029 117.877 864.029 118.757C864.029 119.637 864.172 120.317 864.456 120.797C864.749 121.277 865.176 121.517 865.736 121.517C866.172 121.517 866.523 121.374 866.789 121.09C867.056 120.797 867.221 120.383 867.283 119.85H869.229C869.105 120.81 868.741 121.57 868.136 122.13C867.541 122.681 866.732 122.957 865.709 122.957ZM873.401 122.93C872.672 122.93 872.068 122.752 871.588 122.397C871.108 122.032 870.748 121.539 870.508 120.917C870.277 120.285 870.161 119.561 870.161 118.743C870.161 117.908 870.281 117.179 870.521 116.557C870.761 115.934 871.121 115.45 871.601 115.103C872.081 114.757 872.681 114.583 873.401 114.583C873.97 114.583 874.432 114.699 874.788 114.93C875.152 115.152 875.424 115.441 875.601 115.797H875.921V114.757H877.748V122.757H875.921V121.717H875.601C875.424 122.045 875.157 122.33 874.801 122.57C874.446 122.81 873.979 122.93 873.401 122.93ZM873.895 121.49C874.464 121.49 874.917 121.241 875.255 120.743C875.601 120.245 875.775 119.583 875.775 118.757C875.775 117.921 875.601 117.259 875.255 116.77C874.917 116.272 874.464 116.023 873.895 116.023C873.361 116.023 872.944 116.254 872.641 116.717C872.348 117.179 872.201 117.859 872.201 118.757C872.201 119.654 872.348 120.334 872.641 120.797C872.944 121.259 873.361 121.49 873.895 121.49ZM880.444 122.757C880.204 122.481 880.031 122.165 879.924 121.81C879.817 121.454 879.764 120.974 879.764 120.37V112.09H881.751V120.157C881.751 120.841 881.826 121.37 881.977 121.743C882.128 122.108 882.324 122.419 882.564 122.677V122.757H880.444ZM837.664 146.757V136.357H841.291C843.122 136.357 844.451 136.814 845.278 137.73C846.113 138.637 846.531 139.912 846.531 141.557C846.531 143.201 846.113 144.481 845.278 145.397C844.451 146.303 843.122 146.757 841.291 146.757H837.664ZM839.718 145.143H841.158C841.895 145.143 842.504 145.028 842.984 144.797C843.464 144.565 843.82 144.192 844.051 143.677C844.291 143.152 844.411 142.445 844.411 141.557C844.411 140.668 844.291 139.961 844.051 139.437C843.82 138.912 843.464 138.539 842.984 138.317C842.504 138.085 841.895 137.97 841.158 137.97H839.718V145.143ZM851.266 146.957C850.03 146.957 849.088 146.579 848.439 145.823C847.79 145.059 847.466 144.032 847.466 142.743C847.466 141.881 847.608 141.139 847.893 140.517C848.186 139.894 848.613 139.414 849.173 139.077C849.742 138.73 850.435 138.557 851.253 138.557C852.417 138.557 853.306 138.917 853.919 139.637C854.542 140.348 854.853 141.397 854.853 142.783V143.223H849.399C849.444 143.925 849.626 144.485 849.946 144.903C850.266 145.321 850.71 145.53 851.279 145.53C851.715 145.53 852.066 145.401 852.333 145.143C852.599 144.885 852.782 144.57 852.879 144.197H854.759C854.67 144.694 854.488 145.152 854.213 145.57C853.937 145.988 853.555 146.325 853.066 146.583C852.586 146.832 851.986 146.957 851.266 146.957ZM849.399 141.943H852.933C852.897 141.303 852.733 140.805 852.439 140.45C852.155 140.094 851.755 139.917 851.239 139.917C850.715 139.917 850.293 140.09 849.973 140.437C849.662 140.774 849.47 141.277 849.399 141.943ZM857.68 146.757L855.347 138.837V138.757H857.347L859.133 145.13H859.453L861.253 138.757H863.08V138.837L860.747 146.757H857.68ZM864.296 146.757V138.757H866.283V146.757H864.296ZM865.283 137.783C864.927 137.783 864.656 137.69 864.47 137.503C864.283 137.308 864.19 137.059 864.19 136.757C864.19 136.445 864.283 136.197 864.47 136.01C864.656 135.823 864.927 135.73 865.283 135.73C865.638 135.73 865.91 135.823 866.096 136.01C866.283 136.197 866.376 136.445 866.376 136.757C866.376 137.059 866.283 137.308 866.096 137.503C865.91 137.69 865.638 137.783 865.283 137.783ZM871.53 146.957C870.312 146.957 869.388 146.579 868.756 145.823C868.125 145.059 867.81 144.037 867.81 142.757C867.81 141.414 868.139 140.379 868.796 139.65C869.463 138.921 870.379 138.557 871.543 138.557C872.574 138.557 873.388 138.832 873.983 139.383C874.579 139.934 874.934 140.69 875.05 141.65H873.103C873.041 141.117 872.876 140.708 872.61 140.423C872.343 140.13 871.996 139.983 871.57 139.983C871.01 139.983 870.583 140.228 870.29 140.717C869.996 141.197 869.85 141.877 869.85 142.757C869.85 143.637 869.992 144.317 870.276 144.797C870.57 145.277 870.996 145.517 871.556 145.517C871.992 145.517 872.343 145.374 872.61 145.09C872.876 144.797 873.041 144.383 873.103 143.85H875.05C874.925 144.81 874.561 145.57 873.956 146.13C873.361 146.681 872.552 146.957 871.53 146.957ZM879.782 146.957C878.546 146.957 877.604 146.579 876.955 145.823C876.306 145.059 875.982 144.032 875.982 142.743C875.982 141.881 876.124 141.139 876.408 140.517C876.702 139.894 877.128 139.414 877.688 139.077C878.257 138.73 878.951 138.557 879.768 138.557C880.933 138.557 881.822 138.917 882.435 139.637C883.057 140.348 883.368 141.397 883.368 142.783V143.223H877.915C877.959 143.925 878.142 144.485 878.462 144.903C878.782 145.321 879.226 145.53 879.795 145.53C880.231 145.53 880.582 145.401 880.848 145.143C881.115 144.885 881.297 144.57 881.395 144.197H883.275C883.186 144.694 883.004 145.152 882.728 145.57C882.453 145.988 882.071 146.325 881.582 146.583C881.102 146.832 880.502 146.957 879.782 146.957ZM877.915 141.943H881.448C881.413 141.303 881.248 140.805 880.955 140.45C880.671 140.094 880.271 139.917 879.755 139.917C879.231 139.917 878.808 140.09 878.488 140.437C878.177 140.774 877.986 141.277 877.915 141.943ZM887.736 146.957C886.883 146.957 886.199 146.819 885.683 146.543C885.168 146.268 884.785 145.917 884.536 145.49C884.296 145.063 884.163 144.632 884.136 144.197H886.03C886.065 144.437 886.154 144.659 886.296 144.863C886.448 145.068 886.648 145.232 886.896 145.357C887.154 145.472 887.465 145.53 887.83 145.53C888.265 145.53 888.585 145.45 888.79 145.29C888.994 145.13 889.096 144.925 889.096 144.677C889.096 144.445 889.008 144.25 888.83 144.09C888.652 143.93 888.363 143.783 887.963 143.65L887.003 143.33C886.55 143.17 886.132 142.997 885.75 142.81C885.376 142.614 885.074 142.365 884.843 142.063C884.621 141.761 884.51 141.374 884.51 140.903C884.51 140.201 884.772 139.637 885.296 139.21C885.83 138.774 886.576 138.557 887.536 138.557C888.23 138.557 888.799 138.668 889.243 138.89C889.688 139.103 890.021 139.397 890.243 139.77C890.474 140.134 890.608 140.543 890.643 140.997H888.816C888.772 140.668 888.639 140.405 888.416 140.21C888.194 140.014 887.874 139.917 887.456 139.917C887.092 139.917 886.816 139.992 886.63 140.143C886.443 140.285 886.35 140.481 886.35 140.73C886.35 140.979 886.448 141.183 886.643 141.343C886.839 141.503 887.132 141.65 887.523 141.783L888.483 142.103C888.936 142.245 889.35 142.414 889.723 142.61C890.096 142.797 890.394 143.041 890.616 143.343C890.839 143.645 890.95 144.037 890.95 144.517C890.95 145.245 890.674 145.837 890.123 146.29C889.572 146.734 888.776 146.957 887.736 146.957Z" fill="#EEEEF0"/>
<rect x="800.607" y="225.64" width="158.872" height="63.0371" fill="#0F0F11"/>
<path d="M834.696 251.158V240.758H838.322C840.153 240.758 841.482 241.216 842.309 242.132C843.144 243.038 843.562 244.314 843.562 245.958C843.562 247.603 843.144 248.883 842.309 249.798C841.482 250.705 840.153 251.158 838.322 251.158H834.696ZM836.749 249.545H838.189C838.927 249.545 839.536 249.429 840.016 249.198C840.496 248.967 840.851 248.594 841.082 248.078C841.322 247.554 841.442 246.847 841.442 245.958C841.442 245.069 841.322 244.363 841.082 243.838C840.851 243.314 840.496 242.94 840.016 242.718C839.536 242.487 838.927 242.372 838.189 242.372H836.749V249.545ZM848.297 251.358C847.062 251.358 846.119 250.98 845.471 250.225C844.822 249.46 844.497 248.434 844.497 247.145C844.497 246.283 844.639 245.54 844.924 244.918C845.217 244.296 845.644 243.816 846.204 243.478C846.773 243.132 847.466 242.958 848.284 242.958C849.448 242.958 850.337 243.318 850.951 244.038C851.573 244.749 851.884 245.798 851.884 247.185V247.625H846.431C846.475 248.327 846.657 248.887 846.977 249.305C847.297 249.723 847.742 249.932 848.311 249.932C848.746 249.932 849.097 249.803 849.364 249.545C849.631 249.287 849.813 248.972 849.911 248.598H851.791C851.702 249.096 851.519 249.554 851.244 249.972C850.968 250.389 850.586 250.727 850.097 250.985C849.617 251.234 849.017 251.358 848.297 251.358ZM846.431 246.345H849.964C849.928 245.705 849.764 245.207 849.471 244.852C849.186 244.496 848.786 244.318 848.271 244.318C847.746 244.318 847.324 244.492 847.004 244.838C846.693 245.176 846.502 245.678 846.431 246.345ZM854.711 251.158L852.378 243.238V243.158H854.378L856.165 249.532H856.485L858.285 243.158H860.111V243.238L857.778 251.158H854.711ZM864.594 251.358C863.359 251.358 862.416 250.98 861.767 250.225C861.119 249.46 860.794 248.434 860.794 247.145C860.794 246.283 860.936 245.54 861.221 244.918C861.514 244.296 861.941 243.816 862.501 243.478C863.07 243.132 863.763 242.958 864.581 242.958C865.745 242.958 866.634 243.318 867.247 244.038C867.87 244.749 868.181 245.798 868.181 247.185V247.625H862.727C862.772 248.327 862.954 248.887 863.274 249.305C863.594 249.723 864.039 249.932 864.607 249.932C865.043 249.932 865.394 249.803 865.661 249.545C865.927 249.287 866.11 248.972 866.207 248.598H868.087C867.999 249.096 867.816 249.554 867.541 249.972C867.265 250.389 866.883 250.727 866.394 250.985C865.914 251.234 865.314 251.358 864.594 251.358ZM862.727 246.345H866.261C866.225 245.705 866.061 245.207 865.767 244.852C865.483 244.496 865.083 244.318 864.567 244.318C864.043 244.318 863.621 244.492 863.301 244.838C862.99 245.176 862.799 245.678 862.727 246.345ZM870.296 251.158C870.056 250.883 869.882 250.567 869.776 250.212C869.669 249.856 869.616 249.376 869.616 248.772V240.492H871.602V248.558C871.602 249.243 871.678 249.772 871.829 250.145C871.98 250.509 872.176 250.82 872.416 251.078V251.158H870.296ZM877.054 251.358C875.756 251.358 874.787 250.98 874.147 250.225C873.516 249.46 873.2 248.438 873.2 247.158C873.2 245.878 873.516 244.86 874.147 244.105C874.787 243.34 875.756 242.958 877.054 242.958C878.351 242.958 879.32 243.34 879.96 244.105C880.6 244.86 880.92 245.878 880.92 247.158C880.92 248.438 880.6 249.46 879.96 250.225C879.32 250.98 878.351 251.358 877.054 251.358ZM877.054 249.985C877.685 249.985 878.143 249.745 878.427 249.265C878.72 248.776 878.867 248.074 878.867 247.158C878.867 246.234 878.72 245.532 878.427 245.052C878.143 244.572 877.685 244.332 877.054 244.332C876.431 244.332 875.974 244.572 875.68 245.052C875.387 245.532 875.24 246.234 875.24 247.158C875.24 248.074 875.387 248.776 875.68 249.265C875.974 249.745 876.431 249.985 877.054 249.985ZM882.437 253.825V243.158H884.263V244.198H884.583C884.752 243.86 885.015 243.576 885.37 243.345C885.735 243.105 886.215 242.985 886.81 242.985C887.53 242.985 888.126 243.163 888.597 243.518C889.077 243.874 889.432 244.367 889.663 244.998C889.903 245.62 890.023 246.345 890.023 247.172C890.023 247.989 889.903 248.714 889.663 249.345C889.423 249.976 889.063 250.465 888.583 250.812C888.112 251.158 887.526 251.332 886.823 251.332C886.299 251.332 885.868 251.234 885.53 251.038C885.192 250.843 884.93 250.58 884.743 250.252H884.423V253.825H882.437ZM886.29 249.892C886.823 249.892 887.237 249.66 887.53 249.198C887.823 248.736 887.97 248.056 887.97 247.158C887.97 246.26 887.823 245.58 887.53 245.118C887.237 244.656 886.823 244.425 886.29 244.425C885.721 244.425 885.263 244.674 884.917 245.172C884.579 245.66 884.41 246.323 884.41 247.158C884.41 247.985 884.579 248.647 884.917 249.145C885.263 249.643 885.721 249.892 886.29 249.892ZM891.546 251.158V243.158H893.373V244.358H893.693C893.835 243.958 894.071 243.625 894.4 243.358C894.737 243.092 895.208 242.958 895.813 242.958C896.373 242.958 896.835 243.083 897.2 243.332C897.564 243.572 897.844 243.914 898.04 244.358H898.36C898.511 243.949 898.76 243.616 899.106 243.358C899.453 243.092 899.92 242.958 900.506 242.958C901.377 242.958 902.022 243.243 902.44 243.812C902.857 244.372 903.066 245.123 903.066 246.065V251.158H901.093V246.412C901.093 245.834 900.995 245.385 900.8 245.065C900.613 244.745 900.311 244.585 899.893 244.585C899.377 244.585 898.982 244.803 898.706 245.238C898.431 245.674 898.293 246.207 898.293 246.838V251.158H896.32V246.412C896.32 245.834 896.222 245.385 896.026 245.065C895.84 244.745 895.537 244.585 895.12 244.585C894.613 244.585 894.222 244.803 893.946 245.238C893.671 245.674 893.533 246.207 893.533 246.838V251.158H891.546ZM908.282 251.358C907.046 251.358 906.104 250.98 905.455 250.225C904.806 249.46 904.482 248.434 904.482 247.145C904.482 246.283 904.624 245.54 904.908 244.918C905.202 244.296 905.628 243.816 906.188 243.478C906.757 243.132 907.451 242.958 908.268 242.958C909.433 242.958 910.322 243.318 910.935 244.038C911.557 244.749 911.868 245.798 911.868 247.185V247.625H906.415C906.459 248.327 906.642 248.887 906.962 249.305C907.282 249.723 907.726 249.932 908.295 249.932C908.731 249.932 909.082 249.803 909.348 249.545C909.615 249.287 909.797 248.972 909.895 248.598H911.775C911.686 249.096 911.504 249.554 911.228 249.972C910.953 250.389 910.571 250.727 910.082 250.985C909.602 251.234 909.002 251.358 908.282 251.358ZM906.415 246.345H909.948C909.913 245.705 909.748 245.207 909.455 244.852C909.171 244.496 908.771 244.318 908.255 244.318C907.731 244.318 907.308 244.492 906.988 244.838C906.677 245.176 906.486 245.678 906.415 246.345ZM913.343 251.158V243.158H915.17V244.358H915.49C915.641 243.949 915.89 243.616 916.236 243.358C916.583 243.092 917.072 242.958 917.703 242.958C918.601 242.958 919.268 243.243 919.703 243.812C920.148 244.372 920.37 245.123 920.37 246.065V251.158H918.383V246.412C918.383 245.825 918.276 245.376 918.063 245.065C917.859 244.745 917.525 244.585 917.063 244.585C916.512 244.585 916.085 244.803 915.783 245.238C915.481 245.665 915.33 246.198 915.33 246.838V251.158H913.343ZM923.445 251.158C923.241 250.918 923.076 250.629 922.952 250.292C922.836 249.954 922.778 249.447 922.778 248.772V244.572H921.685V243.158H922.805V241.158H924.738V243.158H926.058V244.572H924.752V248.545C924.752 249.256 924.832 249.798 924.992 250.172C925.152 250.536 925.343 250.838 925.565 251.078V251.158H923.445ZM850.502 275.358C849.018 275.358 847.862 274.883 847.035 273.932C846.209 272.98 845.795 271.656 845.795 269.958C845.795 268.269 846.204 266.949 847.022 265.998C847.84 265.038 849 264.558 850.502 264.558C851.391 264.558 852.155 264.727 852.795 265.065C853.435 265.394 853.938 265.856 854.302 266.452C854.667 267.047 854.88 267.736 854.942 268.518H852.889C852.818 267.772 852.569 267.185 852.142 266.758C851.724 266.332 851.178 266.118 850.502 266.118C849.649 266.118 849.004 266.456 848.569 267.132C848.133 267.798 847.915 268.745 847.915 269.972C847.915 271.234 848.138 272.189 848.582 272.838C849.035 273.478 849.671 273.798 850.489 273.798C851.2 273.798 851.76 273.576 852.169 273.132C852.587 272.687 852.827 272.109 852.889 271.398H854.942C854.88 272.172 854.667 272.856 854.302 273.452C853.938 274.047 853.435 274.514 852.795 274.852C852.164 275.189 851.4 275.358 850.502 275.358ZM859.671 275.358C858.373 275.358 857.404 274.98 856.764 274.225C856.133 273.46 855.818 272.438 855.818 271.158C855.818 269.878 856.133 268.86 856.764 268.105C857.404 267.34 858.373 266.958 859.671 266.958C860.969 266.958 861.938 267.34 862.578 268.105C863.218 268.86 863.538 269.878 863.538 271.158C863.538 272.438 863.218 273.46 862.578 274.225C861.938 274.98 860.969 275.358 859.671 275.358ZM859.671 273.985C860.302 273.985 860.76 273.745 861.044 273.265C861.338 272.776 861.484 272.074 861.484 271.158C861.484 270.234 861.338 269.532 861.044 269.052C860.76 268.572 860.302 268.332 859.671 268.332C859.049 268.332 858.591 268.572 858.298 269.052C858.004 269.532 857.858 270.234 857.858 271.158C857.858 272.074 858.004 272.776 858.298 273.265C858.591 273.745 859.049 273.985 859.671 273.985ZM865.054 275.158V267.158H866.881V268.358H867.201C867.352 267.949 867.601 267.616 867.947 267.358C868.294 267.092 868.783 266.958 869.414 266.958C870.312 266.958 870.978 267.243 871.414 267.812C871.858 268.372 872.081 269.123 872.081 270.065V275.158H870.094V270.412C870.094 269.825 869.987 269.376 869.774 269.065C869.57 268.745 869.236 268.585 868.774 268.585C868.223 268.585 867.796 268.803 867.494 269.238C867.192 269.665 867.041 270.198 867.041 270.838V275.158H865.054ZM875.156 275.158C874.952 274.918 874.787 274.629 874.663 274.292C874.547 273.954 874.489 273.447 874.489 272.772V268.572H873.396V267.158H874.516V265.158H876.449V267.158H877.769V268.572H876.463V272.545C876.463 273.256 876.543 273.798 876.703 274.172C876.863 274.536 877.054 274.838 877.276 275.078V275.158H875.156ZM881.901 275.332C881.172 275.332 880.568 275.154 880.088 274.798C879.608 274.434 879.248 273.94 879.008 273.318C878.777 272.687 878.661 271.963 878.661 271.145C878.661 270.309 878.781 269.58 879.021 268.958C879.261 268.336 879.621 267.852 880.101 267.505C880.581 267.158 881.181 266.985 881.901 266.985C882.47 266.985 882.932 267.1 883.288 267.332C883.652 267.554 883.924 267.843 884.101 268.198H884.421V267.158H886.248V275.158H884.421V274.118H884.101C883.924 274.447 883.657 274.732 883.301 274.972C882.946 275.212 882.479 275.332 881.901 275.332ZM882.395 273.892C882.964 273.892 883.417 273.643 883.755 273.145C884.101 272.647 884.275 271.985 884.275 271.158C884.275 270.323 884.101 269.66 883.755 269.172C883.417 268.674 882.964 268.425 882.395 268.425C881.861 268.425 881.444 268.656 881.141 269.118C880.848 269.58 880.701 270.26 880.701 271.158C880.701 272.056 880.848 272.736 881.141 273.198C881.444 273.66 881.861 273.892 882.395 273.892ZM888.304 275.158V267.158H890.291V275.158H888.304ZM889.291 266.185C888.935 266.185 888.664 266.092 888.477 265.905C888.291 265.709 888.197 265.46 888.197 265.158C888.197 264.847 888.291 264.598 888.477 264.412C888.664 264.225 888.935 264.132 889.291 264.132C889.646 264.132 889.917 264.225 890.104 264.412C890.291 264.598 890.384 264.847 890.384 265.158C890.384 265.46 890.291 265.709 890.104 265.905C889.917 266.092 889.646 266.185 889.291 266.185ZM892.351 275.158V267.158H894.178V268.358H894.498C894.649 267.949 894.898 267.616 895.244 267.358C895.591 267.092 896.08 266.958 896.711 266.958C897.609 266.958 898.275 267.243 898.711 267.812C899.155 268.372 899.378 269.123 899.378 270.065V275.158H897.391V270.412C897.391 269.825 897.284 269.376 897.071 269.065C896.866 268.745 896.533 268.585 896.071 268.585C895.52 268.585 895.093 268.803 894.791 269.238C894.489 269.665 894.338 270.198 894.338 270.838V275.158H892.351ZM904.586 275.358C903.351 275.358 902.409 274.98 901.76 274.225C901.111 273.46 900.786 272.434 900.786 271.145C900.786 270.283 900.929 269.54 901.213 268.918C901.506 268.296 901.933 267.816 902.493 267.478C903.062 267.132 903.755 266.958 904.573 266.958C905.737 266.958 906.626 267.318 907.24 268.038C907.862 268.749 908.173 269.798 908.173 271.185V271.625H902.72C902.764 272.327 902.946 272.887 903.266 273.305C903.586 273.723 904.031 273.932 904.6 273.932C905.035 273.932 905.386 273.803 905.653 273.545C905.92 273.287 906.102 272.972 906.2 272.598H908.08C907.991 273.096 907.809 273.554 907.533 273.972C907.257 274.389 906.875 274.727 906.386 274.985C905.906 275.234 905.306 275.358 904.586 275.358ZM902.72 270.345H906.253C906.217 269.705 906.053 269.207 905.76 268.852C905.475 268.496 905.075 268.318 904.56 268.318C904.035 268.318 903.613 268.492 903.293 268.838C902.982 269.176 902.791 269.678 902.72 270.345ZM909.634 275.158V267.158H911.434V268.598H911.754C911.808 268.34 911.906 268.096 912.048 267.865C912.19 267.634 912.412 267.447 912.714 267.305C913.017 267.154 913.426 267.078 913.941 267.078H914.328V268.878H913.781C913.017 268.878 912.466 269.074 912.128 269.465C911.79 269.856 911.621 270.447 911.621 271.238V275.158H909.634Z" fill="#EEEEF0"/>
<rect x="160.66" y="97.5176" width="126.858" height="63.0371" fill="#0F0F11"/>
<path d="M191.287 123.036V112.636H194.927L197.061 121.409H197.501L199.661 112.636H203.301V123.036H201.367V114.329H201.021L198.927 123.036H195.541L193.447 114.329H193.101V123.036H191.287ZM208.095 123.209C207.366 123.209 206.761 123.032 206.281 122.676C205.801 122.312 205.441 121.818 205.201 121.196C204.97 120.565 204.855 119.841 204.855 119.023C204.855 118.187 204.975 117.458 205.215 116.836C205.455 116.214 205.815 115.729 206.295 115.383C206.775 115.036 207.375 114.863 208.095 114.863C208.664 114.863 209.126 114.978 209.481 115.209C209.846 115.432 210.117 115.721 210.295 116.076H210.615V115.036H212.441V123.036H210.615V121.996H210.295C210.117 122.325 209.85 122.609 209.495 122.849C209.139 123.089 208.672 123.209 208.095 123.209ZM208.588 121.769C209.157 121.769 209.61 121.521 209.948 121.023C210.295 120.525 210.468 119.863 210.468 119.036C210.468 118.201 210.295 117.538 209.948 117.049C209.61 116.552 209.157 116.303 208.588 116.303C208.055 116.303 207.637 116.534 207.335 116.996C207.041 117.458 206.895 118.138 206.895 119.036C206.895 119.934 207.041 120.614 207.335 121.076C207.637 121.538 208.055 121.769 208.588 121.769ZM214.497 123.036V115.036H216.324V116.236H216.644C216.795 115.827 217.044 115.494 217.391 115.236C217.737 114.969 218.226 114.836 218.857 114.836C219.755 114.836 220.422 115.121 220.857 115.689C221.302 116.249 221.524 117.001 221.524 117.943V123.036H219.537V118.289C219.537 117.703 219.431 117.254 219.217 116.943C219.013 116.623 218.68 116.463 218.217 116.463C217.666 116.463 217.24 116.681 216.937 117.116C216.635 117.543 216.484 118.076 216.484 118.716V123.036H214.497ZM226.173 123.209C225.444 123.209 224.839 123.032 224.359 122.676C223.879 122.312 223.519 121.818 223.279 121.196C223.048 120.565 222.933 119.841 222.933 119.023C222.933 118.187 223.053 117.458 223.293 116.836C223.533 116.214 223.893 115.729 224.373 115.383C224.853 115.036 225.453 114.863 226.173 114.863C226.742 114.863 227.204 114.978 227.559 115.209C227.924 115.432 228.195 115.721 228.373 116.076H228.693V115.036H230.519V123.036H228.693V121.996H228.373C228.195 122.325 227.928 122.609 227.573 122.849C227.217 123.089 226.751 123.209 226.173 123.209ZM226.666 121.769C227.235 121.769 227.688 121.521 228.026 121.023C228.373 120.525 228.546 119.863 228.546 119.036C228.546 118.201 228.373 117.538 228.026 117.049C227.688 116.552 227.235 116.303 226.666 116.303C226.133 116.303 225.715 116.534 225.413 116.996C225.119 117.458 224.973 118.138 224.973 119.036C224.973 119.934 225.119 120.614 225.413 121.076C225.715 121.538 226.133 121.769 226.666 121.769ZM235.869 125.903C235.167 125.903 234.593 125.814 234.149 125.636C233.713 125.467 233.371 125.249 233.122 124.983C232.882 124.725 232.709 124.454 232.602 124.169C232.495 123.894 232.433 123.641 232.415 123.409H234.349C234.393 123.685 234.527 123.929 234.749 124.143C234.98 124.365 235.353 124.476 235.869 124.476C236.438 124.476 236.869 124.307 237.162 123.969C237.464 123.641 237.615 123.156 237.615 122.516V121.583H237.295C237.162 121.956 236.927 122.254 236.589 122.476C236.251 122.698 235.802 122.809 235.242 122.809C234.211 122.809 233.42 122.449 232.869 121.729C232.318 121.001 232.042 120.027 232.042 118.809C232.042 118.027 232.162 117.338 232.402 116.743C232.651 116.138 233.011 115.672 233.482 115.343C233.962 115.005 234.558 114.836 235.269 114.836C235.829 114.836 236.273 114.947 236.602 115.169C236.94 115.383 237.189 115.663 237.349 116.009H237.669V115.036H239.495V122.476C239.495 123.569 239.193 124.414 238.589 125.009C237.993 125.605 237.087 125.903 235.869 125.903ZM235.722 121.369C236.291 121.369 236.731 121.138 237.042 120.676C237.362 120.205 237.522 119.587 237.522 118.823C237.522 118.041 237.362 117.423 237.042 116.969C236.722 116.507 236.282 116.276 235.722 116.276C235.207 116.276 234.798 116.489 234.495 116.916C234.193 117.343 234.042 117.978 234.042 118.823C234.042 119.667 234.189 120.303 234.482 120.729C234.784 121.156 235.198 121.369 235.722 121.369ZM244.811 123.236C243.575 123.236 242.633 122.858 241.984 122.103C241.335 121.338 241.011 120.312 241.011 119.023C241.011 118.161 241.153 117.418 241.438 116.796C241.731 116.174 242.158 115.694 242.718 115.356C243.286 115.009 243.98 114.836 244.798 114.836C245.962 114.836 246.851 115.196 247.464 115.916C248.086 116.627 248.398 117.676 248.398 119.063V119.503H242.944C242.989 120.205 243.171 120.765 243.491 121.183C243.811 121.601 244.255 121.809 244.824 121.809C245.26 121.809 245.611 121.681 245.878 121.423C246.144 121.165 246.326 120.849 246.424 120.476H248.304C248.215 120.974 248.033 121.432 247.758 121.849C247.482 122.267 247.1 122.605 246.611 122.863C246.131 123.112 245.531 123.236 244.811 123.236ZM242.944 118.223H246.478C246.442 117.583 246.278 117.085 245.984 116.729C245.7 116.374 245.3 116.196 244.784 116.196C244.26 116.196 243.838 116.369 243.518 116.716C243.206 117.054 243.015 117.556 242.944 118.223ZM252.539 123.209C251.819 123.209 251.223 123.032 250.752 122.676C250.281 122.312 249.926 121.818 249.686 121.196C249.446 120.565 249.326 119.841 249.326 119.023C249.326 118.187 249.446 117.458 249.686 116.836C249.926 116.214 250.281 115.729 250.752 115.383C251.232 115.036 251.823 114.863 252.526 114.863C253.059 114.863 253.49 114.961 253.819 115.156C254.157 115.352 254.423 115.609 254.619 115.929H254.939V112.369H256.912V123.036H255.099V121.996H254.779C254.601 122.325 254.33 122.609 253.966 122.849C253.61 123.089 253.135 123.209 252.539 123.209ZM253.059 121.769C253.637 121.769 254.095 121.521 254.432 121.023C254.77 120.525 254.939 119.863 254.939 119.036C254.939 118.201 254.77 117.538 254.432 117.049C254.095 116.552 253.637 116.303 253.059 116.303C252.535 116.303 252.121 116.534 251.819 116.996C251.526 117.458 251.379 118.138 251.379 119.036C251.379 119.934 251.526 120.614 251.819 121.076C252.121 121.538 252.535 121.769 253.059 121.769ZM185.061 147.036V136.636H187.061V140.729H187.861L190.981 136.636H193.247V136.716L189.554 141.463L193.781 146.956V147.036H191.327L187.861 142.383H187.061V147.036H185.061ZM196.982 147.236C196.076 147.236 195.4 146.956 194.956 146.396C194.511 145.827 194.289 145.072 194.289 144.129V139.036H196.276V143.783C196.276 144.361 196.378 144.809 196.582 145.129C196.796 145.449 197.129 145.609 197.582 145.609C198.142 145.609 198.574 145.392 198.876 144.956C199.178 144.521 199.329 143.987 199.329 143.356V139.036H201.316V147.036H199.529V145.836H199.209C199.076 146.245 198.827 146.583 198.462 146.849C198.107 147.107 197.614 147.236 196.982 147.236ZM207.738 147.209C207.142 147.209 206.662 147.089 206.298 146.849C205.942 146.609 205.68 146.325 205.511 145.996H205.191V147.036H203.365V136.369H205.351V139.929H205.671C205.858 139.609 206.12 139.352 206.458 139.156C206.796 138.961 207.227 138.863 207.751 138.863C208.453 138.863 209.04 139.036 209.511 139.383C209.991 139.729 210.351 140.214 210.591 140.836C210.831 141.458 210.951 142.187 210.951 143.023C210.951 143.841 210.831 144.565 210.591 145.196C210.36 145.818 210.005 146.312 209.525 146.676C209.053 147.032 208.458 147.209 207.738 147.209ZM207.218 145.769C207.751 145.769 208.165 145.538 208.458 145.076C208.751 144.614 208.898 143.934 208.898 143.036C208.898 142.138 208.751 141.458 208.458 140.996C208.165 140.534 207.751 140.303 207.218 140.303C206.649 140.303 206.191 140.552 205.845 141.049C205.507 141.538 205.338 142.201 205.338 143.036C205.338 143.863 205.507 144.525 205.845 145.023C206.191 145.521 206.649 145.769 207.218 145.769ZM215.741 147.236C214.505 147.236 213.563 146.858 212.914 146.103C212.265 145.338 211.941 144.312 211.941 143.023C211.941 142.161 212.083 141.418 212.367 140.796C212.661 140.174 213.087 139.694 213.647 139.356C214.216 139.009 214.909 138.836 215.727 138.836C216.892 138.836 217.781 139.196 218.394 139.916C219.016 140.627 219.327 141.676 219.327 143.063V143.503H213.874C213.918 144.205 214.101 144.765 214.421 145.183C214.741 145.601 215.185 145.809 215.754 145.809C216.189 145.809 216.541 145.681 216.807 145.423C217.074 145.165 217.256 144.849 217.354 144.476H219.234C219.145 144.974 218.963 145.432 218.687 145.849C218.412 146.267 218.029 146.605 217.541 146.863C217.061 147.112 216.461 147.236 215.741 147.236ZM213.874 142.223H217.407C217.372 141.583 217.207 141.085 216.914 140.729C216.629 140.374 216.229 140.196 215.714 140.196C215.189 140.196 214.767 140.369 214.447 140.716C214.136 141.054 213.945 141.556 213.874 142.223ZM220.789 147.036V139.036H222.589V140.476H222.909C222.962 140.218 223.06 139.974 223.202 139.743C223.344 139.512 223.567 139.325 223.869 139.183C224.171 139.032 224.58 138.956 225.095 138.956H225.482V140.756H224.935C224.171 140.756 223.62 140.952 223.282 141.343C222.944 141.734 222.775 142.325 222.775 143.116V147.036H220.789ZM226.911 147.036V139.036H228.738V140.236H229.058C229.209 139.827 229.458 139.494 229.805 139.236C230.151 138.969 230.64 138.836 231.271 138.836C232.169 138.836 232.836 139.121 233.271 139.689C233.716 140.249 233.938 141.001 233.938 141.943V147.036H231.951V142.289C231.951 141.703 231.845 141.254 231.631 140.943C231.427 140.623 231.094 140.463 230.631 140.463C230.08 140.463 229.654 140.681 229.351 141.116C229.049 141.543 228.898 142.076 228.898 142.716V147.036H226.911ZM239.147 147.236C237.911 147.236 236.969 146.858 236.32 146.103C235.671 145.338 235.347 144.312 235.347 143.023C235.347 142.161 235.489 141.418 235.774 140.796C236.067 140.174 236.494 139.694 237.054 139.356C237.622 139.009 238.316 138.836 239.134 138.836C240.298 138.836 241.187 139.196 241.8 139.916C242.422 140.627 242.734 141.676 242.734 143.063V143.503H237.28C237.325 144.205 237.507 144.765 237.827 145.183C238.147 145.601 238.591 145.809 239.16 145.809C239.596 145.809 239.947 145.681 240.214 145.423C240.48 145.165 240.662 144.849 240.76 144.476H242.64C242.551 144.974 242.369 145.432 242.094 145.849C241.818 146.267 241.436 146.605 240.947 146.863C240.467 147.112 239.867 147.236 239.147 147.236ZM237.28 142.223H240.814C240.778 141.583 240.614 141.085 240.32 140.729C240.036 140.374 239.636 140.196 239.12 140.196C238.596 140.196 238.174 140.369 237.854 140.716C237.542 141.054 237.351 141.556 237.28 142.223ZM245.342 147.036C245.137 146.796 244.973 146.507 244.848 146.169C244.733 145.832 244.675 145.325 244.675 144.649V140.449H243.582V139.036H244.702V137.036H246.635V139.036H247.955V140.449H246.648V144.423C246.648 145.134 246.728 145.676 246.888 146.049C247.048 146.414 247.239 146.716 247.462 146.956V147.036H245.342ZM252.647 147.236C251.411 147.236 250.469 146.858 249.82 146.103C249.171 145.338 248.847 144.312 248.847 143.023C248.847 142.161 248.989 141.418 249.274 140.796C249.567 140.174 249.994 139.694 250.554 139.356C251.122 139.009 251.816 138.836 252.634 138.836C253.798 138.836 254.687 139.196 255.3 139.916C255.922 140.627 256.234 141.676 256.234 143.063V143.503H250.78C250.825 144.205 251.007 144.765 251.327 145.183C251.647 145.601 252.091 145.809 252.66 145.809C253.096 145.809 253.447 145.681 253.714 145.423C253.98 145.165 254.162 144.849 254.26 144.476H256.14C256.051 144.974 255.869 145.432 255.594 145.849C255.318 146.267 254.936 146.605 254.447 146.863C253.967 147.112 253.367 147.236 252.647 147.236ZM250.78 142.223H254.314C254.278 141.583 254.114 141.085 253.82 140.729C253.536 140.374 253.136 140.196 252.62 140.196C252.096 140.196 251.674 140.369 251.354 140.716C251.042 141.054 250.851 141.556 250.78 142.223ZM260.602 147.236C259.748 147.236 259.064 147.098 258.548 146.823C258.033 146.547 257.651 146.196 257.402 145.769C257.162 145.343 257.028 144.912 257.002 144.476H258.895C258.931 144.716 259.019 144.938 259.162 145.143C259.313 145.347 259.513 145.512 259.762 145.636C260.019 145.752 260.331 145.809 260.695 145.809C261.131 145.809 261.451 145.729 261.655 145.569C261.859 145.409 261.962 145.205 261.962 144.956C261.962 144.725 261.873 144.529 261.695 144.369C261.517 144.209 261.228 144.063 260.828 143.929L259.868 143.609C259.415 143.449 258.997 143.276 258.615 143.089C258.242 142.894 257.939 142.645 257.708 142.343C257.486 142.041 257.375 141.654 257.375 141.183C257.375 140.481 257.637 139.916 258.162 139.489C258.695 139.054 259.442 138.836 260.402 138.836C261.095 138.836 261.664 138.947 262.108 139.169C262.553 139.383 262.886 139.676 263.108 140.049C263.339 140.414 263.473 140.823 263.508 141.276H261.682C261.637 140.947 261.504 140.685 261.282 140.489C261.059 140.294 260.739 140.196 260.322 140.196C259.957 140.196 259.682 140.272 259.495 140.423C259.308 140.565 259.215 140.761 259.215 141.009C259.215 141.258 259.313 141.463 259.508 141.623C259.704 141.783 259.997 141.929 260.388 142.063L261.348 142.383C261.802 142.525 262.215 142.694 262.588 142.889C262.962 143.076 263.259 143.321 263.482 143.623C263.704 143.925 263.815 144.316 263.815 144.796C263.815 145.525 263.539 146.116 262.988 146.569C262.437 147.014 261.642 147.236 260.602 147.236Z" fill="#EEEEF0"/>
<rect x="160.66" y="225.462" width="126.858" height="63.0371" fill="#0F0F11"/>
<path d="M191.295 251.057V240.657H194.935L197.069 249.43H197.509L199.669 240.657H203.309V251.057H201.375V242.35H201.029L198.935 251.057H195.549L193.455 242.35H193.109V251.057H191.295ZM208.102 251.23C207.374 251.23 206.769 251.052 206.289 250.697C205.809 250.332 205.449 249.839 205.209 249.217C204.978 248.586 204.862 247.861 204.862 247.043C204.862 246.208 204.982 245.479 205.222 244.857C205.462 244.235 205.822 243.75 206.302 243.403C206.782 243.057 207.382 242.883 208.102 242.883C208.671 242.883 209.134 242.999 209.489 243.23C209.854 243.452 210.125 243.741 210.302 244.097H210.622V243.057H212.449V251.057H210.622V250.017H210.302C210.125 250.346 209.858 250.63 209.502 250.87C209.147 251.11 208.68 251.23 208.102 251.23ZM208.596 249.79C209.165 249.79 209.618 249.541 209.956 249.043C210.302 248.546 210.476 247.883 210.476 247.057C210.476 246.221 210.302 245.559 209.956 245.07C209.618 244.572 209.165 244.323 208.596 244.323C208.062 244.323 207.645 244.555 207.342 245.017C207.049 245.479 206.902 246.159 206.902 247.057C206.902 247.955 207.049 248.635 207.342 249.097C207.645 249.559 208.062 249.79 208.596 249.79ZM214.505 251.057V243.057H216.332V244.257H216.652C216.803 243.848 217.052 243.515 217.399 243.257C217.745 242.99 218.234 242.857 218.865 242.857C219.763 242.857 220.43 243.141 220.865 243.71C221.31 244.27 221.532 245.021 221.532 245.963V251.057H219.545V246.31C219.545 245.723 219.439 245.275 219.225 244.963C219.021 244.643 218.687 244.483 218.225 244.483C217.674 244.483 217.247 244.701 216.945 245.137C216.643 245.563 216.492 246.097 216.492 246.737V251.057H214.505ZM226.181 251.23C225.452 251.23 224.847 251.052 224.367 250.697C223.887 250.332 223.527 249.839 223.287 249.217C223.056 248.586 222.941 247.861 222.941 247.043C222.941 246.208 223.061 245.479 223.301 244.857C223.541 244.235 223.901 243.75 224.381 243.403C224.861 243.057 225.461 242.883 226.181 242.883C226.749 242.883 227.212 242.999 227.567 243.23C227.932 243.452 228.203 243.741 228.381 244.097H228.701V243.057H230.527V251.057H228.701V250.017H228.381C228.203 250.346 227.936 250.63 227.581 250.87C227.225 251.11 226.758 251.23 226.181 251.23ZM226.674 249.79C227.243 249.79 227.696 249.541 228.034 249.043C228.381 248.546 228.554 247.883 228.554 247.057C228.554 246.221 228.381 245.559 228.034 245.07C227.696 244.572 227.243 244.323 226.674 244.323C226.141 244.323 225.723 244.555 225.421 245.017C225.127 245.479 224.981 246.159 224.981 247.057C224.981 247.955 225.127 248.635 225.421 249.097C225.723 249.559 226.141 249.79 226.674 249.79ZM235.877 253.923C235.174 253.923 234.601 253.835 234.157 253.657C233.721 253.488 233.379 253.27 233.13 253.003C232.89 252.746 232.717 252.475 232.61 252.19C232.503 251.915 232.441 251.661 232.423 251.43H234.357C234.401 251.706 234.534 251.95 234.757 252.163C234.988 252.386 235.361 252.497 235.877 252.497C236.446 252.497 236.877 252.328 237.17 251.99C237.472 251.661 237.623 251.177 237.623 250.537V249.603H237.303C237.17 249.977 236.934 250.275 236.597 250.497C236.259 250.719 235.81 250.83 235.25 250.83C234.219 250.83 233.428 250.47 232.877 249.75C232.326 249.021 232.05 248.048 232.05 246.83C232.05 246.048 232.17 245.359 232.41 244.763C232.659 244.159 233.019 243.692 233.49 243.363C233.97 243.026 234.566 242.857 235.277 242.857C235.837 242.857 236.281 242.968 236.61 243.19C236.948 243.403 237.197 243.683 237.357 244.03H237.677V243.057H239.503V250.497C239.503 251.59 239.201 252.435 238.597 253.03C238.001 253.626 237.094 253.923 235.877 253.923ZM235.73 249.39C236.299 249.39 236.739 249.159 237.05 248.697C237.37 248.226 237.53 247.608 237.53 246.843C237.53 246.061 237.37 245.443 237.05 244.99C236.73 244.528 236.29 244.297 235.73 244.297C235.214 244.297 234.806 244.51 234.503 244.937C234.201 245.363 234.05 245.999 234.05 246.843C234.05 247.688 234.197 248.323 234.49 248.75C234.792 249.177 235.206 249.39 235.73 249.39ZM244.819 251.257C243.583 251.257 242.641 250.879 241.992 250.123C241.343 249.359 241.019 248.332 241.019 247.043C241.019 246.181 241.161 245.439 241.445 244.817C241.739 244.195 242.165 243.715 242.725 243.377C243.294 243.03 243.988 242.857 244.805 242.857C245.97 242.857 246.859 243.217 247.472 243.937C248.094 244.648 248.405 245.697 248.405 247.083V247.523H242.952C242.997 248.226 243.179 248.786 243.499 249.203C243.819 249.621 244.263 249.83 244.832 249.83C245.268 249.83 245.619 249.701 245.885 249.443C246.152 249.186 246.334 248.87 246.432 248.497H248.312C248.223 248.995 248.041 249.452 247.765 249.87C247.49 250.288 247.108 250.626 246.619 250.883C246.139 251.132 245.539 251.257 244.819 251.257ZM242.952 246.243H246.485C246.45 245.603 246.285 245.106 245.992 244.75C245.708 244.395 245.308 244.217 244.792 244.217C244.268 244.217 243.845 244.39 243.525 244.737C243.214 245.075 243.023 245.577 242.952 246.243ZM252.547 251.23C251.827 251.23 251.231 251.052 250.76 250.697C250.289 250.332 249.934 249.839 249.694 249.217C249.454 248.586 249.334 247.861 249.334 247.043C249.334 246.208 249.454 245.479 249.694 244.857C249.934 244.235 250.289 243.75 250.76 243.403C251.24 243.057 251.831 242.883 252.534 242.883C253.067 242.883 253.498 242.981 253.827 243.177C254.165 243.372 254.431 243.63 254.627 243.95H254.947V240.39H256.92V251.057H255.107V250.017H254.787C254.609 250.346 254.338 250.63 253.974 250.87C253.618 251.11 253.142 251.23 252.547 251.23ZM253.067 249.79C253.645 249.79 254.102 249.541 254.44 249.043C254.778 248.546 254.947 247.883 254.947 247.057C254.947 246.221 254.778 245.559 254.44 245.07C254.102 244.572 253.645 244.323 253.067 244.323C252.542 244.323 252.129 244.555 251.827 245.017C251.534 245.479 251.387 246.159 251.387 247.057C251.387 247.955 251.534 248.635 251.827 249.097C252.129 249.559 252.542 249.79 253.067 249.79ZM191.215 275.057V264.657H193.268V275.057H191.215ZM195.365 275.057V267.057H197.191V268.257H197.511C197.662 267.848 197.911 267.515 198.258 267.257C198.605 266.99 199.093 266.857 199.725 266.857C200.622 266.857 201.289 267.141 201.725 267.71C202.169 268.27 202.391 269.021 202.391 269.963V275.057H200.405V270.31C200.405 269.723 200.298 269.275 200.085 268.963C199.88 268.643 199.547 268.483 199.085 268.483C198.533 268.483 198.107 268.701 197.805 269.137C197.502 269.563 197.351 270.097 197.351 270.737V275.057H195.365ZM207.227 275.257C206.373 275.257 205.689 275.119 205.173 274.843C204.658 274.568 204.276 274.217 204.027 273.79C203.787 273.363 203.653 272.932 203.627 272.497H205.52C205.556 272.737 205.644 272.959 205.787 273.163C205.938 273.368 206.138 273.532 206.387 273.657C206.644 273.772 206.956 273.83 207.32 273.83C207.756 273.83 208.076 273.75 208.28 273.59C208.484 273.43 208.587 273.226 208.587 272.977C208.587 272.746 208.498 272.55 208.32 272.39C208.142 272.23 207.853 272.083 207.453 271.95L206.493 271.63C206.04 271.47 205.622 271.297 205.24 271.11C204.867 270.915 204.564 270.666 204.333 270.363C204.111 270.061 204 269.675 204 269.203C204 268.501 204.262 267.937 204.787 267.51C205.32 267.075 206.067 266.857 207.027 266.857C207.72 266.857 208.289 266.968 208.733 267.19C209.178 267.403 209.511 267.697 209.733 268.07C209.964 268.435 210.098 268.843 210.133 269.297H208.307C208.262 268.968 208.129 268.706 207.907 268.51C207.684 268.315 207.364 268.217 206.947 268.217C206.582 268.217 206.307 268.292 206.12 268.443C205.933 268.586 205.84 268.781 205.84 269.03C205.84 269.279 205.938 269.483 206.133 269.643C206.329 269.803 206.622 269.95 207.013 270.083L207.973 270.403C208.427 270.546 208.84 270.715 209.213 270.91C209.587 271.097 209.884 271.341 210.107 271.643C210.329 271.946 210.44 272.337 210.44 272.817C210.44 273.546 210.164 274.137 209.613 274.59C209.062 275.035 208.267 275.257 207.227 275.257ZM212.967 275.057C212.762 274.817 212.598 274.528 212.473 274.19C212.358 273.852 212.3 273.346 212.3 272.67V268.47H211.207V267.057H212.327V265.057H214.26V267.057H215.58V268.47H214.273V272.443C214.273 273.155 214.353 273.697 214.513 274.07C214.673 274.435 214.864 274.737 215.087 274.977V275.057H212.967ZM219.712 275.23C218.983 275.23 218.379 275.052 217.899 274.697C217.419 274.332 217.059 273.839 216.819 273.217C216.587 272.586 216.472 271.861 216.472 271.043C216.472 270.208 216.592 269.479 216.832 268.857C217.072 268.235 217.432 267.75 217.912 267.403C218.392 267.057 218.992 266.883 219.712 266.883C220.281 266.883 220.743 266.999 221.099 267.23C221.463 267.452 221.734 267.741 221.912 268.097H222.232V267.057H224.059V275.057H222.232V274.017H221.912C221.734 274.346 221.467 274.63 221.112 274.87C220.756 275.11 220.29 275.23 219.712 275.23ZM220.205 273.79C220.774 273.79 221.227 273.541 221.565 273.043C221.912 272.546 222.085 271.883 222.085 271.057C222.085 270.221 221.912 269.559 221.565 269.07C221.227 268.572 220.774 268.323 220.205 268.323C219.672 268.323 219.254 268.555 218.952 269.017C218.659 269.479 218.512 270.159 218.512 271.057C218.512 271.955 218.659 272.635 218.952 273.097C219.254 273.559 219.672 273.79 220.205 273.79ZM226.115 275.057V267.057H227.941V268.257H228.261C228.412 267.848 228.661 267.515 229.008 267.257C229.355 266.99 229.843 266.857 230.475 266.857C231.372 266.857 232.039 267.141 232.475 267.71C232.919 268.27 233.141 269.021 233.141 269.963V275.057H231.155V270.31C231.155 269.723 231.048 269.275 230.835 268.963C230.63 268.643 230.297 268.483 229.835 268.483C229.283 268.483 228.857 268.701 228.555 269.137C228.252 269.563 228.101 270.097 228.101 270.737V275.057H226.115ZM238.27 275.257C237.052 275.257 236.128 274.879 235.497 274.123C234.866 273.359 234.55 272.337 234.55 271.057C234.55 269.715 234.879 268.679 235.537 267.95C236.203 267.221 237.119 266.857 238.283 266.857C239.314 266.857 240.128 267.132 240.723 267.683C241.319 268.235 241.674 268.99 241.79 269.95H239.843C239.781 269.417 239.617 269.008 239.35 268.723C239.083 268.43 238.737 268.283 238.31 268.283C237.75 268.283 237.323 268.528 237.03 269.017C236.737 269.497 236.59 270.177 236.59 271.057C236.59 271.937 236.732 272.617 237.017 273.097C237.31 273.577 237.737 273.817 238.297 273.817C238.732 273.817 239.083 273.675 239.35 273.39C239.617 273.097 239.781 272.683 239.843 272.15H241.79C241.666 273.11 241.301 273.87 240.697 274.43C240.101 274.981 239.292 275.257 238.27 275.257ZM246.522 275.257C245.286 275.257 244.344 274.879 243.695 274.123C243.046 273.359 242.722 272.332 242.722 271.043C242.722 270.181 242.864 269.439 243.149 268.817C243.442 268.195 243.869 267.715 244.429 267.377C244.997 267.03 245.691 266.857 246.509 266.857C247.673 266.857 248.562 267.217 249.175 267.937C249.797 268.648 250.109 269.697 250.109 271.083V271.523H244.655C244.7 272.226 244.882 272.786 245.202 273.203C245.522 273.621 245.966 273.83 246.535 273.83C246.971 273.83 247.322 273.701 247.589 273.443C247.855 273.186 248.037 272.87 248.135 272.497H250.015C249.926 272.995 249.744 273.452 249.469 273.87C249.193 274.288 248.811 274.626 248.322 274.883C247.842 275.132 247.242 275.257 246.522 275.257ZM244.655 270.243H248.189C248.153 269.603 247.989 269.106 247.695 268.75C247.411 268.395 247.011 268.217 246.495 268.217C245.971 268.217 245.549 268.39 245.229 268.737C244.917 269.075 244.726 269.577 244.655 270.243ZM254.477 275.257C253.623 275.257 252.939 275.119 252.423 274.843C251.908 274.568 251.526 274.217 251.277 273.79C251.037 273.363 250.903 272.932 250.877 272.497H252.77C252.806 272.737 252.894 272.959 253.037 273.163C253.188 273.368 253.388 273.532 253.637 273.657C253.894 273.772 254.206 273.83 254.57 273.83C255.006 273.83 255.326 273.75 255.53 273.59C255.734 273.43 255.837 273.226 255.837 272.977C255.837 272.746 255.748 272.55 255.57 272.39C255.392 272.23 255.103 272.083 254.703 271.95L253.743 271.63C253.29 271.47 252.872 271.297 252.49 271.11C252.117 270.915 251.814 270.666 251.583 270.363C251.361 270.061 251.25 269.675 251.25 269.203C251.25 268.501 251.512 267.937 252.037 267.51C252.57 267.075 253.317 266.857 254.277 266.857C254.97 266.857 255.539 266.968 255.983 267.19C256.428 267.403 256.761 267.697 256.983 268.07C257.214 268.435 257.348 268.843 257.383 269.297H255.557C255.512 268.968 255.379 268.706 255.157 268.51C254.934 268.315 254.614 268.217 254.197 268.217C253.832 268.217 253.557 268.292 253.37 268.443C253.183 268.586 253.09 268.781 253.09 269.03C253.09 269.279 253.188 269.483 253.383 269.643C253.579 269.803 253.872 269.95 254.263 270.083L255.223 270.403C255.677 270.546 256.09 270.715 256.463 270.91C256.837 271.097 257.134 271.341 257.357 271.643C257.579 271.946 257.69 272.337 257.69 272.817C257.69 273.546 257.414 274.137 256.863 274.59C256.312 275.035 255.517 275.257 254.477 275.257Z" fill="#EEEEF0"/>
<rect x="960.582" y="161.53" width="159.404" height="62.9153" fill="#0F0F11"/>
<path d="M993.477 187.001V176.601H997.103C998.935 176.601 1000.26 177.059 1001.09 177.974C1001.93 178.881 1002.34 180.157 1002.34 181.801C1002.34 183.445 1001.93 184.725 1001.09 185.641C1000.26 186.548 998.935 187.001 997.103 187.001H993.477ZM995.53 185.388H996.97C997.708 185.388 998.317 185.272 998.797 185.041C999.277 184.81 999.632 184.437 999.863 183.921C1000.1 183.397 1000.22 182.69 1000.22 181.801C1000.22 180.912 1000.1 180.205 999.863 179.681C999.632 179.157 999.277 178.783 998.797 178.561C998.317 178.33 997.708 178.214 996.97 178.214H995.53V185.388ZM1007.08 187.201C1005.84 187.201 1004.9 186.823 1004.25 186.068C1003.6 185.303 1003.28 184.277 1003.28 182.988C1003.28 182.125 1003.42 181.383 1003.71 180.761C1004 180.139 1004.43 179.659 1004.99 179.321C1005.55 178.974 1006.25 178.801 1007.07 178.801C1008.23 178.801 1009.12 179.161 1009.73 179.881C1010.35 180.592 1010.67 181.641 1010.67 183.028V183.468H1005.21C1005.26 184.17 1005.44 184.73 1005.76 185.148C1006.08 185.565 1006.52 185.774 1007.09 185.774C1007.53 185.774 1007.88 185.645 1008.15 185.388C1008.41 185.13 1008.59 184.814 1008.69 184.441H1010.57C1010.48 184.939 1010.3 185.397 1010.03 185.814C1009.75 186.232 1009.37 186.57 1008.88 186.828C1008.4 187.077 1007.8 187.201 1007.08 187.201ZM1005.21 182.188H1008.75C1008.71 181.548 1008.55 181.05 1008.25 180.694C1007.97 180.339 1007.57 180.161 1007.05 180.161C1006.53 180.161 1006.11 180.334 1005.79 180.681C1005.47 181.019 1005.28 181.521 1005.21 182.188ZM1013.49 187.001L1011.16 179.081V179.001H1013.16L1014.95 185.374H1015.27L1017.07 179.001H1018.89V179.081L1016.56 187.001H1013.49ZM1023.38 187.201C1022.14 187.201 1021.2 186.823 1020.55 186.068C1019.9 185.303 1019.58 184.277 1019.58 182.988C1019.58 182.125 1019.72 181.383 1020 180.761C1020.3 180.139 1020.72 179.659 1021.28 179.321C1021.85 178.974 1022.54 178.801 1023.36 178.801C1024.53 178.801 1025.42 179.161 1026.03 179.881C1026.65 180.592 1026.96 181.641 1026.96 183.028V183.468H1021.51C1021.55 184.17 1021.74 184.73 1022.06 185.148C1022.38 185.565 1022.82 185.774 1023.39 185.774C1023.82 185.774 1024.18 185.645 1024.44 185.388C1024.71 185.13 1024.89 184.814 1024.99 184.441H1026.87C1026.78 184.939 1026.6 185.397 1026.32 185.814C1026.05 186.232 1025.66 186.57 1025.18 186.828C1024.7 187.077 1024.1 187.201 1023.38 187.201ZM1021.51 182.188H1025.04C1025.01 181.548 1024.84 181.05 1024.55 180.694C1024.26 180.339 1023.86 180.161 1023.35 180.161C1022.82 180.161 1022.4 180.334 1022.08 180.681C1021.77 181.019 1021.58 181.521 1021.51 182.188ZM1029.08 187.001C1028.84 186.725 1028.66 186.41 1028.56 186.054C1028.45 185.699 1028.4 185.219 1028.4 184.614V176.334H1030.38V184.401C1030.38 185.085 1030.46 185.614 1030.61 185.988C1030.76 186.352 1030.96 186.663 1031.2 186.921V187.001H1029.08ZM1035.83 187.201C1034.54 187.201 1033.57 186.823 1032.93 186.068C1032.3 185.303 1031.98 184.281 1031.98 183.001C1031.98 181.721 1032.3 180.703 1032.93 179.948C1033.57 179.183 1034.54 178.801 1035.83 178.801C1037.13 178.801 1038.1 179.183 1038.74 179.948C1039.38 180.703 1039.7 181.721 1039.7 183.001C1039.7 184.281 1039.38 185.303 1038.74 186.068C1038.1 186.823 1037.13 187.201 1035.83 187.201ZM1035.83 185.828C1036.47 185.828 1036.92 185.588 1037.21 185.108C1037.5 184.619 1037.65 183.917 1037.65 183.001C1037.65 182.077 1037.5 181.374 1037.21 180.894C1036.92 180.414 1036.47 180.174 1035.83 180.174C1035.21 180.174 1034.75 180.414 1034.46 180.894C1034.17 181.374 1034.02 182.077 1034.02 183.001C1034.02 183.917 1034.17 184.619 1034.46 185.108C1034.75 185.588 1035.21 185.828 1035.83 185.828ZM1041.22 189.668V179.001H1043.04V180.041H1043.36C1043.53 179.703 1043.8 179.419 1044.15 179.188C1044.52 178.948 1045 178.828 1045.59 178.828C1046.31 178.828 1046.91 179.005 1047.38 179.361C1047.86 179.717 1048.21 180.21 1048.44 180.841C1048.68 181.463 1048.8 182.188 1048.8 183.014C1048.8 183.832 1048.68 184.557 1048.44 185.188C1048.2 185.819 1047.84 186.308 1047.36 186.654C1046.89 187.001 1046.31 187.174 1045.6 187.174C1045.08 187.174 1044.65 187.077 1044.31 186.881C1043.97 186.685 1043.71 186.423 1043.52 186.094H1043.2V189.668H1041.22ZM1045.07 185.734C1045.6 185.734 1046.02 185.503 1046.31 185.041C1046.6 184.579 1046.75 183.899 1046.75 183.001C1046.75 182.103 1046.6 181.423 1046.31 180.961C1046.02 180.499 1045.6 180.268 1045.07 180.268C1044.5 180.268 1044.04 180.517 1043.7 181.014C1043.36 181.503 1043.19 182.165 1043.19 183.001C1043.19 183.828 1043.36 184.49 1043.7 184.988C1044.04 185.485 1044.5 185.734 1045.07 185.734ZM1050.33 187.001V179.001H1052.15V180.201H1052.47C1052.62 179.801 1052.85 179.468 1053.18 179.201C1053.52 178.934 1053.99 178.801 1054.59 178.801C1055.15 178.801 1055.62 178.925 1055.98 179.174C1056.35 179.414 1056.63 179.757 1056.82 180.201H1057.14C1057.29 179.792 1057.54 179.459 1057.89 179.201C1058.23 178.934 1058.7 178.801 1059.29 178.801C1060.16 178.801 1060.8 179.085 1061.22 179.654C1061.64 180.214 1061.85 180.965 1061.85 181.908V187.001H1059.87V182.254C1059.87 181.677 1059.78 181.228 1059.58 180.908C1059.39 180.588 1059.09 180.428 1058.67 180.428C1058.16 180.428 1057.76 180.645 1057.49 181.081C1057.21 181.517 1057.07 182.05 1057.07 182.681V187.001H1055.1V182.254C1055.1 181.677 1055 181.228 1054.81 180.908C1054.62 180.588 1054.32 180.428 1053.9 180.428C1053.39 180.428 1053 180.645 1052.73 181.081C1052.45 181.517 1052.31 182.05 1052.31 182.681V187.001H1050.33ZM1067.06 187.201C1065.83 187.201 1064.89 186.823 1064.24 186.068C1063.59 185.303 1063.26 184.277 1063.26 182.988C1063.26 182.125 1063.41 181.383 1063.69 180.761C1063.98 180.139 1064.41 179.659 1064.97 179.321C1065.54 178.974 1066.23 178.801 1067.05 178.801C1068.21 178.801 1069.1 179.161 1069.72 179.881C1070.34 180.592 1070.65 181.641 1070.65 183.028V183.468H1065.2C1065.24 184.17 1065.42 184.73 1065.74 185.148C1066.06 185.565 1066.51 185.774 1067.08 185.774C1067.51 185.774 1067.86 185.645 1068.13 185.388C1068.4 185.13 1068.58 184.814 1068.68 184.441H1070.56C1070.47 184.939 1070.29 185.397 1070.01 185.814C1069.73 186.232 1069.35 186.57 1068.86 186.828C1068.38 187.077 1067.78 187.201 1067.06 187.201ZM1065.2 182.188H1068.73C1068.69 181.548 1068.53 181.05 1068.24 180.694C1067.95 180.339 1067.55 180.161 1067.04 180.161C1066.51 180.161 1066.09 180.334 1065.77 180.681C1065.46 181.019 1065.27 181.521 1065.2 182.188ZM1072.12 187.001V179.001H1073.95V180.201H1074.27C1074.42 179.792 1074.67 179.459 1075.02 179.201C1075.36 178.934 1075.85 178.801 1076.48 178.801C1077.38 178.801 1078.05 179.085 1078.48 179.654C1078.93 180.214 1079.15 180.965 1079.15 181.908V187.001H1077.16V182.254C1077.16 181.668 1077.06 181.219 1076.84 180.908C1076.64 180.588 1076.31 180.428 1075.84 180.428C1075.29 180.428 1074.87 180.645 1074.56 181.081C1074.26 181.508 1074.11 182.041 1074.11 182.681V187.001H1072.12ZM1082.23 187.001C1082.02 186.761 1081.86 186.472 1081.73 186.134C1081.62 185.797 1081.56 185.29 1081.56 184.614V180.414H1080.47V179.001H1081.59V177.001H1083.52V179.001H1084.84V180.414H1083.53V184.388C1083.53 185.099 1083.61 185.641 1083.77 186.014C1083.93 186.379 1084.12 186.681 1084.35 186.921V187.001H1082.23ZM1009.28 211.201C1007.8 211.201 1006.64 210.725 1005.82 209.774C1004.99 208.823 1004.58 207.499 1004.58 205.801C1004.58 204.112 1004.99 202.792 1005.8 201.841C1006.62 200.881 1007.78 200.401 1009.28 200.401C1010.17 200.401 1010.94 200.57 1011.58 200.908C1012.22 201.237 1012.72 201.699 1013.08 202.294C1013.45 202.89 1013.66 203.579 1013.72 204.361H1011.67C1011.6 203.614 1011.35 203.028 1010.92 202.601C1010.51 202.174 1009.96 201.961 1009.28 201.961C1008.43 201.961 1007.79 202.299 1007.35 202.974C1006.91 203.641 1006.7 204.588 1006.7 205.814C1006.7 207.077 1006.92 208.032 1007.36 208.681C1007.82 209.321 1008.45 209.641 1009.27 209.641C1009.98 209.641 1010.54 209.419 1010.95 208.974C1011.37 208.53 1011.61 207.952 1011.67 207.241H1013.72C1013.66 208.014 1013.45 208.699 1013.08 209.294C1012.72 209.89 1012.22 210.357 1011.58 210.694C1010.95 211.032 1010.18 211.201 1009.28 211.201ZM1018.45 211.201C1017.15 211.201 1016.19 210.823 1015.55 210.068C1014.91 209.303 1014.6 208.281 1014.6 207.001C1014.6 205.721 1014.91 204.703 1015.55 203.948C1016.19 203.183 1017.15 202.801 1018.45 202.801C1019.75 202.801 1020.72 203.183 1021.36 203.948C1022 204.703 1022.32 205.721 1022.32 207.001C1022.32 208.281 1022 209.303 1021.36 210.068C1020.72 210.823 1019.75 211.201 1018.45 211.201ZM1018.45 209.828C1019.08 209.828 1019.54 209.588 1019.83 209.108C1020.12 208.619 1020.27 207.917 1020.27 207.001C1020.27 206.077 1020.12 205.374 1019.83 204.894C1019.54 204.414 1019.08 204.174 1018.45 204.174C1017.83 204.174 1017.37 204.414 1017.08 204.894C1016.79 205.374 1016.64 206.077 1016.64 207.001C1016.64 207.917 1016.79 208.619 1017.08 209.108C1017.37 209.588 1017.83 209.828 1018.45 209.828ZM1023.84 211.001V203.001H1025.66V204.201H1025.98C1026.13 203.792 1026.38 203.459 1026.73 203.201C1027.08 202.934 1027.56 202.801 1028.2 202.801C1029.09 202.801 1029.76 203.085 1030.2 203.654C1030.64 204.214 1030.86 204.965 1030.86 205.908V211.001H1028.88V206.254C1028.88 205.668 1028.77 205.219 1028.56 204.908C1028.35 204.588 1028.02 204.428 1027.56 204.428C1027 204.428 1026.58 204.645 1026.28 205.081C1025.97 205.508 1025.82 206.041 1025.82 206.681V211.001H1023.84ZM1033.94 211.001C1033.73 210.761 1033.57 210.472 1033.44 210.134C1033.33 209.797 1033.27 209.29 1033.27 208.614V204.414H1032.18V203.001H1033.3V201.001H1035.23V203.001H1036.55V204.414H1035.24V208.388C1035.24 209.099 1035.32 209.641 1035.48 210.014C1035.64 210.379 1035.84 210.681 1036.06 210.921V211.001H1033.94ZM1040.68 211.174C1039.95 211.174 1039.35 210.997 1038.87 210.641C1038.39 210.277 1038.03 209.783 1037.79 209.161C1037.56 208.53 1037.44 207.805 1037.44 206.988C1037.44 206.152 1037.56 205.423 1037.8 204.801C1038.04 204.179 1038.4 203.694 1038.88 203.348C1039.36 203.001 1039.96 202.828 1040.68 202.828C1041.25 202.828 1041.71 202.943 1042.07 203.174C1042.43 203.397 1042.7 203.685 1042.88 204.041H1043.2V203.001H1045.03V211.001H1043.2V209.961H1042.88C1042.7 210.29 1042.44 210.574 1042.08 210.814C1041.73 211.054 1041.26 211.174 1040.68 211.174ZM1041.18 209.734C1041.74 209.734 1042.2 209.485 1042.54 208.988C1042.88 208.49 1043.06 207.828 1043.06 207.001C1043.06 206.165 1042.88 205.503 1042.54 205.014C1042.2 204.517 1041.74 204.268 1041.18 204.268C1040.64 204.268 1040.22 204.499 1039.92 204.961C1039.63 205.423 1039.48 206.103 1039.48 207.001C1039.48 207.899 1039.63 208.579 1039.92 209.041C1040.22 209.503 1040.64 209.734 1041.18 209.734ZM1047.09 211.001V203.001H1049.07V211.001H1047.09ZM1048.07 202.028C1047.72 202.028 1047.45 201.934 1047.26 201.748C1047.07 201.552 1046.98 201.303 1046.98 201.001C1046.98 200.69 1047.07 200.441 1047.26 200.254C1047.45 200.068 1047.72 199.974 1048.07 199.974C1048.43 199.974 1048.7 200.068 1048.89 200.254C1049.07 200.441 1049.17 200.69 1049.17 201.001C1049.17 201.303 1049.07 201.552 1048.89 201.748C1048.7 201.934 1048.43 202.028 1048.07 202.028ZM1051.13 211.001V203.001H1052.96V204.201H1053.28C1053.43 203.792 1053.68 203.459 1054.03 203.201C1054.37 202.934 1054.86 202.801 1055.49 202.801C1056.39 202.801 1057.06 203.085 1057.49 203.654C1057.94 204.214 1058.16 204.965 1058.16 205.908V211.001H1056.17V206.254C1056.17 205.668 1056.07 205.219 1055.85 204.908C1055.65 204.588 1055.31 204.428 1054.85 204.428C1054.3 204.428 1053.87 204.645 1053.57 205.081C1053.27 205.508 1053.12 206.041 1053.12 206.681V211.001H1051.13ZM1063.37 211.201C1062.13 211.201 1061.19 210.823 1060.54 210.068C1059.89 209.303 1059.57 208.277 1059.57 206.988C1059.57 206.125 1059.71 205.383 1059.99 204.761C1060.29 204.139 1060.71 203.659 1061.27 203.321C1061.84 202.974 1062.54 202.801 1063.35 202.801C1064.52 202.801 1065.41 203.161 1066.02 203.881C1066.64 204.592 1066.95 205.641 1066.95 207.028V207.468H1061.5C1061.55 208.17 1061.73 208.73 1062.05 209.148C1062.37 209.565 1062.81 209.774 1063.38 209.774C1063.82 209.774 1064.17 209.645 1064.43 209.388C1064.7 209.13 1064.88 208.814 1064.98 208.441H1066.86C1066.77 208.939 1066.59 209.397 1066.31 209.814C1066.04 210.232 1065.66 210.57 1065.17 210.828C1064.69 211.077 1064.09 211.201 1063.37 211.201ZM1061.5 206.188H1065.03C1065 205.548 1064.83 205.05 1064.54 204.694C1064.26 204.339 1063.86 204.161 1063.34 204.161C1062.82 204.161 1062.39 204.334 1062.07 204.681C1061.76 205.019 1061.57 205.521 1061.5 206.188ZM1068.42 211.001V203.001H1070.22V204.441H1070.54C1070.59 204.183 1070.69 203.939 1070.83 203.708C1070.97 203.477 1071.19 203.29 1071.5 203.148C1071.8 202.997 1072.21 202.921 1072.72 202.921H1073.11V204.721H1072.56C1071.8 204.721 1071.25 204.917 1070.91 205.308C1070.57 205.699 1070.4 206.29 1070.4 207.081V211.001H1068.42Z" fill="#EEEEF0"/>
<rect x="0.388672" y="33.4623" width="127.082" height="62.9707" fill="#0F0F11"/>
<path d="M35.6995 59.0283V48.6283H42.6861V50.255H37.7261V52.7217H41.5661V54.2417H37.7261V57.3883H42.7661V59.0283H35.6995ZM43.5718 59.0283V58.9483L46.0384 54.8417L43.8384 51.1083V51.0283H45.9851L47.3584 53.5083H47.6518L48.9851 51.0283H50.9584V51.1083L48.8651 54.8017L51.2918 58.9483V59.0283H49.1051L47.4918 56.1083H47.1984L45.6118 59.0283H43.5718ZM53.6209 59.0283C53.4165 58.7883 53.252 58.4994 53.1276 58.1617C53.012 57.8239 52.9543 57.3172 52.9543 56.6417V52.4417H51.8609V51.0283H52.9809V49.0283H54.9143V51.0283H56.2343V52.4417H54.9276V56.415C54.9276 57.1261 55.0076 57.6683 55.1676 58.0417C55.3276 58.4061 55.5187 58.7083 55.7409 58.9483V59.0283H53.6209ZM60.9261 59.2283C59.6906 59.2283 58.7484 58.8505 58.0995 58.095C57.4506 57.3305 57.1261 56.3039 57.1261 55.015C57.1261 54.1528 57.2684 53.4105 57.5528 52.7883C57.8461 52.1661 58.2728 51.6861 58.8328 51.3483C59.4017 51.0017 60.095 50.8283 60.9128 50.8283C62.0773 50.8283 62.9661 51.1883 63.5795 51.9083C64.2017 52.6194 64.5128 53.6683 64.5128 55.055V55.495H59.0595C59.1039 56.1972 59.2861 56.7572 59.6061 57.175C59.9261 57.5928 60.3706 57.8017 60.9395 57.8017C61.375 57.8017 61.7261 57.6728 61.9928 57.415C62.2595 57.1572 62.4417 56.8417 62.5395 56.4683H64.4195C64.3306 56.9661 64.1484 57.4239 63.8728 57.8417C63.5973 58.2594 63.215 58.5972 62.7261 58.855C62.2461 59.1039 61.6461 59.2283 60.9261 59.2283ZM59.0595 54.215H62.5928C62.5573 53.575 62.3928 53.0772 62.0995 52.7217C61.815 52.3661 61.415 52.1883 60.8995 52.1883C60.375 52.1883 59.9528 52.3617 59.6328 52.7083C59.3217 53.0461 59.1306 53.5483 59.0595 54.215ZM65.9743 59.0283V51.0283H67.7743V52.4683H68.0943C68.1476 52.2105 68.2454 51.9661 68.3876 51.735C68.5298 51.5039 68.752 51.3172 69.0543 51.175C69.3565 51.0239 69.7654 50.9483 70.2809 50.9483H70.6676V52.7483H70.1209C69.3565 52.7483 68.8054 52.9439 68.4676 53.335C68.1298 53.7261 67.9609 54.3172 67.9609 55.1083V59.0283H65.9743ZM72.097 59.0283V51.0283H73.9236V52.2283H74.2436C74.3948 51.8194 74.6436 51.4861 74.9903 51.2283C75.337 50.9617 75.8259 50.8283 76.457 50.8283C77.3548 50.8283 78.0214 51.1128 78.457 51.6817C78.9014 52.2417 79.1236 52.9928 79.1236 53.935V59.0283H77.137V54.2817C77.137 53.695 77.0303 53.2461 76.817 52.935C76.6125 52.615 76.2792 52.455 75.817 52.455C75.2659 52.455 74.8392 52.6728 74.537 53.1083C74.2348 53.535 74.0836 54.0683 74.0836 54.7083V59.0283H72.097ZM83.7724 59.2017C83.0435 59.2017 82.4391 59.0239 81.9591 58.6683C81.4791 58.3039 81.1191 57.8105 80.8791 57.1883C80.648 56.5572 80.5324 55.8328 80.5324 55.015C80.5324 54.1794 80.6524 53.4505 80.8924 52.8283C81.1324 52.2061 81.4924 51.7217 81.9724 51.375C82.4524 51.0283 83.0524 50.855 83.7724 50.855C84.3413 50.855 84.8035 50.9705 85.1591 51.2017C85.5235 51.4239 85.7946 51.7128 85.9724 52.0683H86.2924V51.0283H88.1191V59.0283H86.2924V57.9883H85.9724C85.7946 58.3172 85.528 58.6017 85.1724 58.8417C84.8168 59.0817 84.3502 59.2017 83.7724 59.2017ZM84.2657 57.7617C84.8346 57.7617 85.288 57.5128 85.6257 57.015C85.9724 56.5172 86.1457 55.855 86.1457 55.0283C86.1457 54.1928 85.9724 53.5305 85.6257 53.0417C85.288 52.5439 84.8346 52.295 84.2657 52.295C83.7324 52.295 83.3146 52.5261 83.0124 52.9883C82.7191 53.4505 82.5724 54.1305 82.5724 55.0283C82.5724 55.9261 82.7191 56.6061 83.0124 57.0683C83.3146 57.5305 83.7324 57.7617 84.2657 57.7617ZM90.8151 59.0283C90.5751 58.7528 90.4018 58.4372 90.2951 58.0817C90.1884 57.7261 90.1351 57.2461 90.1351 56.6417V48.3617H92.1218V56.4283C92.1218 57.1128 92.1973 57.6417 92.3484 58.015C92.4995 58.3794 92.6951 58.6905 92.9351 58.9483V59.0283H90.8151ZM24.9026 83.0283V72.6283H26.9026V76.7217H27.7026L30.8226 72.6283H33.0893V72.7083L29.3959 77.455L33.6226 82.9483V83.0283H31.1693L27.7026 78.375H26.9026V83.0283H24.9026ZM36.8243 83.2283C35.9176 83.2283 35.242 82.9483 34.7976 82.3883C34.3532 81.8194 34.1309 81.0639 34.1309 80.1217V75.0283H36.1176V79.775C36.1176 80.3528 36.2198 80.8017 36.4243 81.1217C36.6376 81.4417 36.9709 81.6017 37.4243 81.6017C37.9843 81.6017 38.4154 81.3839 38.7176 80.9483C39.0198 80.5128 39.1709 79.9794 39.1709 79.3483V75.0283H41.1576V83.0283H39.3709V81.8283H39.0509C38.9176 82.2372 38.6687 82.575 38.3043 82.8417C37.9487 83.0994 37.4554 83.2283 36.8243 83.2283ZM47.5797 83.2017C46.9841 83.2017 46.5041 83.0817 46.1397 82.8417C45.7841 82.6017 45.5219 82.3172 45.353 81.9883H45.033V83.0283H43.2064V72.3617H45.193V75.9217H45.513C45.6997 75.6017 45.9619 75.3439 46.2997 75.1483C46.6375 74.9528 47.0686 74.855 47.593 74.855C48.2952 74.855 48.8819 75.0283 49.353 75.375C49.833 75.7217 50.193 76.2061 50.433 76.8283C50.673 77.4505 50.793 78.1794 50.793 79.015C50.793 79.8328 50.673 80.5572 50.433 81.1883C50.2019 81.8105 49.8464 82.3039 49.3664 82.6683C48.8952 83.0239 48.2997 83.2017 47.5797 83.2017ZM47.0597 81.7617C47.593 81.7617 48.0064 81.5305 48.2997 81.0683C48.593 80.6061 48.7397 79.9261 48.7397 79.0283C48.7397 78.1305 48.593 77.4505 48.2997 76.9883C48.0064 76.5261 47.593 76.295 47.0597 76.295C46.4908 76.295 46.033 76.5439 45.6864 77.0417C45.3486 77.5305 45.1797 78.1928 45.1797 79.0283C45.1797 79.855 45.3486 80.5172 45.6864 81.015C46.033 81.5128 46.4908 81.7617 47.0597 81.7617ZM55.5824 83.2283C54.3468 83.2283 53.4046 82.8505 52.7557 82.095C52.1068 81.3305 51.7824 80.3039 51.7824 79.015C51.7824 78.1528 51.9246 77.4105 52.2091 76.7883C52.5024 76.1661 52.9291 75.6861 53.4891 75.3483C54.058 75.0017 54.7513 74.8283 55.5691 74.8283C56.7335 74.8283 57.6224 75.1883 58.2357 75.9083C58.858 76.6194 59.1691 77.6683 59.1691 79.055V79.495H53.7157C53.7602 80.1972 53.9424 80.7572 54.2624 81.175C54.5824 81.5928 55.0268 81.8017 55.5957 81.8017C56.0313 81.8017 56.3824 81.6728 56.6491 81.415C56.9157 81.1572 57.098 80.8417 57.1957 80.4683H59.0757C58.9868 80.9661 58.8046 81.4239 58.5291 81.8417C58.2535 82.2594 57.8713 82.5972 57.3824 82.855C56.9024 83.1039 56.3024 83.2283 55.5824 83.2283ZM53.7157 78.215H57.2491C57.2135 77.575 57.0491 77.0772 56.7557 76.7217C56.4713 76.3661 56.0713 76.1883 55.5557 76.1883C55.0313 76.1883 54.6091 76.3617 54.2891 76.7083C53.978 77.0461 53.7868 77.5483 53.7157 78.215ZM60.6305 83.0283V75.0283H62.4305V76.4683H62.7505C62.8039 76.2105 62.9016 75.9661 63.0439 75.735C63.1861 75.5039 63.4083 75.3172 63.7105 75.175C64.0127 75.0239 64.4216 74.9483 64.9372 74.9483H65.3239V76.7483H64.7772C64.0127 76.7483 63.4616 76.9439 63.1239 77.335C62.7861 77.7261 62.6172 78.3172 62.6172 79.1083V83.0283H60.6305ZM66.7532 83.0283V75.0283H68.5799V76.2283H68.8999C69.051 75.8194 69.2999 75.4861 69.6466 75.2283C69.9932 74.9617 70.4821 74.8283 71.1132 74.8283C72.011 74.8283 72.6777 75.1128 73.1132 75.6817C73.5577 76.2417 73.7799 76.9928 73.7799 77.935V83.0283H71.7932V78.2817C71.7932 77.695 71.6866 77.2461 71.4732 76.935C71.2688 76.615 70.9355 76.455 70.4732 76.455C69.9221 76.455 69.4955 76.6728 69.1932 77.1083C68.891 77.535 68.7399 78.0683 68.7399 78.7083V83.0283H66.7532ZM78.9886 83.2283C77.7531 83.2283 76.8109 82.8505 76.162 82.095C75.5131 81.3305 75.1886 80.3039 75.1886 79.015C75.1886 78.1528 75.3309 77.4105 75.6153 76.7883C75.9086 76.1661 76.3353 75.6861 76.8953 75.3483C77.4642 75.0017 78.1575 74.8283 78.9753 74.8283C80.1398 74.8283 81.0286 75.1883 81.642 75.9083C82.2642 76.6194 82.5753 77.6683 82.5753 79.055V79.495H77.122C77.1664 80.1972 77.3486 80.7572 77.6686 81.175C77.9886 81.5928 78.4331 81.8017 79.002 81.8017C79.4375 81.8017 79.7886 81.6728 80.0553 81.415C80.322 81.1572 80.5042 80.8417 80.602 80.4683H82.482C82.3931 80.9661 82.2109 81.4239 81.9353 81.8417C81.6598 82.2594 81.2775 82.5972 80.7886 82.855C80.3086 83.1039 79.7086 83.2283 78.9886 83.2283ZM77.122 78.215H80.6553C80.6198 77.575 80.4553 77.0772 80.162 76.7217C79.8775 76.3661 79.4775 76.1883 78.962 76.1883C78.4375 76.1883 78.0153 76.3617 77.6953 76.7083C77.3842 77.0461 77.1931 77.5483 77.122 78.215ZM85.1834 83.0283C84.979 82.7883 84.8145 82.4994 84.6901 82.1617C84.5745 81.8239 84.5168 81.3172 84.5168 80.6417V76.4417H83.4234V75.0283H84.5434V73.0283H86.4768V75.0283H87.7968V76.4417H86.4901V80.415C86.4901 81.1261 86.5701 81.6683 86.7301 82.0417C86.8901 82.4061 87.0812 82.7083 87.3034 82.9483V83.0283H85.1834ZM92.4886 83.2283C91.2531 83.2283 90.3109 82.8505 89.662 82.095C89.0131 81.3305 88.6886 80.3039 88.6886 79.015C88.6886 78.1528 88.8309 77.4105 89.1153 76.7883C89.4086 76.1661 89.8353 75.6861 90.3953 75.3483C90.9642 75.0017 91.6575 74.8283 92.4753 74.8283C93.6398 74.8283 94.5286 75.1883 95.142 75.9083C95.7642 76.6194 96.0753 77.6683 96.0753 79.055V79.495H90.622C90.6664 80.1972 90.8486 80.7572 91.1686 81.175C91.4886 81.5928 91.9331 81.8017 92.502 81.8017C92.9375 81.8017 93.2886 81.6728 93.5553 81.415C93.822 81.1572 94.0042 80.8417 94.102 80.4683H95.982C95.8931 80.9661 95.7109 81.4239 95.4353 81.8417C95.1598 82.2594 94.7775 82.5972 94.2886 82.855C93.8086 83.1039 93.2086 83.2283 92.4886 83.2283ZM90.622 78.215H94.1553C94.1198 77.575 93.9553 77.0772 93.662 76.7217C93.3775 76.3661 92.9775 76.1883 92.462 76.1883C91.9375 76.1883 91.5153 76.3617 91.1953 76.7083C90.8842 77.0461 90.6931 77.5483 90.622 78.215ZM100.443 83.2283C99.5901 83.2283 98.9057 83.0905 98.3901 82.815C97.8745 82.5394 97.4923 82.1883 97.2434 81.7617C97.0034 81.335 96.8701 80.9039 96.8434 80.4683H98.7368C98.7723 80.7083 98.8612 80.9305 99.0034 81.135C99.1545 81.3394 99.3545 81.5039 99.6034 81.6283C99.8612 81.7439 100.172 81.8017 100.537 81.8017C100.972 81.8017 101.292 81.7217 101.497 81.5617C101.701 81.4017 101.803 81.1972 101.803 80.9483C101.803 80.7172 101.715 80.5217 101.537 80.3617C101.359 80.2017 101.07 80.055 100.67 79.9217L99.7101 79.6017C99.2568 79.4417 98.839 79.2683 98.4568 79.0817C98.0834 78.8861 97.7812 78.6372 97.5501 78.335C97.3279 78.0328 97.2168 77.6461 97.2168 77.175C97.2168 76.4728 97.479 75.9083 98.0034 75.4817C98.5368 75.0461 99.2834 74.8283 100.243 74.8283C100.937 74.8283 101.506 74.9394 101.95 75.1617C102.395 75.375 102.728 75.6683 102.95 76.0417C103.181 76.4061 103.315 76.815 103.35 77.2683H101.523C101.479 76.9394 101.346 76.6772 101.123 76.4817C100.901 76.2861 100.581 76.1883 100.163 76.1883C99.799 76.1883 99.5234 76.2639 99.3368 76.415C99.1501 76.5572 99.0568 76.7528 99.0568 77.0017C99.0568 77.2505 99.1545 77.455 99.3501 77.615C99.5457 77.775 99.839 77.9217 100.23 78.055L101.19 78.375C101.643 78.5172 102.057 78.6861 102.43 78.8817C102.803 79.0683 103.101 79.3128 103.323 79.615C103.546 79.9172 103.657 80.3083 103.657 80.7883C103.657 81.5172 103.381 82.1083 102.83 82.5617C102.279 83.0061 101.483 83.2283 100.443 83.2283Z" fill="#EEEEF0"/>
<rect x="0.0136719" y="161.53" width="127.456" height="62.9153" fill="#0F0F11"/>
<path d="M35.512 186.751V176.351H42.4986V177.978H37.5386V180.444H41.3786V181.964H37.5386V185.111H42.5786V186.751H35.512ZM43.3843 186.751V186.671L45.8509 182.564L43.6509 178.831V178.751H45.7976L47.1709 181.231H47.4643L48.7976 178.751H50.7709V178.831L48.6776 182.524L51.1043 186.671V186.751H48.9176L47.3043 183.831H47.0109L45.4243 186.751H43.3843ZM53.4334 186.751C53.229 186.511 53.0645 186.222 52.9401 185.884C52.8245 185.547 52.7668 185.04 52.7668 184.364V180.164H51.6734V178.751H52.7934V176.751H54.7268V178.751H56.0468V180.164H54.7401V184.138C54.7401 184.849 54.8201 185.391 54.9801 185.764C55.1401 186.129 55.3312 186.431 55.5534 186.671V186.751H53.4334ZM60.7386 186.951C59.5031 186.951 58.5609 186.573 57.912 185.818C57.2631 185.053 56.9386 184.027 56.9386 182.738C56.9386 181.875 57.0809 181.133 57.3653 180.511C57.6586 179.889 58.0853 179.409 58.6453 179.071C59.2142 178.724 59.9075 178.551 60.7253 178.551C61.8898 178.551 62.7786 178.911 63.392 179.631C64.0142 180.342 64.3253 181.391 64.3253 182.778V183.218H58.872C58.9164 183.92 59.0986 184.48 59.4186 184.898C59.7386 185.315 60.1831 185.524 60.752 185.524C61.1875 185.524 61.5386 185.395 61.8053 185.138C62.072 184.88 62.2542 184.564 62.352 184.191H64.232C64.1431 184.689 63.9609 185.147 63.6853 185.564C63.4098 185.982 63.0275 186.32 62.5386 186.578C62.0586 186.827 61.4586 186.951 60.7386 186.951ZM58.872 181.938H62.4053C62.3698 181.298 62.2053 180.8 61.912 180.444C61.6275 180.089 61.2275 179.911 60.712 179.911C60.1875 179.911 59.7653 180.084 59.4453 180.431C59.1342 180.769 58.9431 181.271 58.872 181.938ZM65.7868 186.751V178.751H67.5868V180.191H67.9068C67.9601 179.933 68.0579 179.689 68.2001 179.458C68.3423 179.227 68.5645 179.04 68.8668 178.898C69.169 178.747 69.5779 178.671 70.0934 178.671H70.4801V180.471H69.9334C69.169 180.471 68.6179 180.667 68.2801 181.058C67.9423 181.449 67.7734 182.04 67.7734 182.831V186.751H65.7868ZM71.9095 186.751V178.751H73.7361V179.951H74.0561C74.2073 179.542 74.4561 179.209 74.8028 178.951C75.1495 178.684 75.6384 178.551 76.2695 178.551C77.1673 178.551 77.8339 178.835 78.2695 179.404C78.7139 179.964 78.9361 180.715 78.9361 181.658V186.751H76.9495V182.004C76.9495 181.418 76.8428 180.969 76.6295 180.658C76.425 180.338 76.0917 180.178 75.6295 180.178C75.0784 180.178 74.6517 180.395 74.3495 180.831C74.0473 181.258 73.8961 181.791 73.8961 182.431V186.751H71.9095ZM83.5849 186.924C82.856 186.924 82.2516 186.747 81.7716 186.391C81.2916 186.027 80.9316 185.533 80.6916 184.911C80.4605 184.28 80.3449 183.555 80.3449 182.738C80.3449 181.902 80.4649 181.173 80.7049 180.551C80.9449 179.929 81.3049 179.444 81.7849 179.098C82.2649 178.751 82.8649 178.578 83.5849 178.578C84.1538 178.578 84.616 178.693 84.9716 178.924C85.336 179.147 85.6071 179.435 85.7849 179.791H86.1049V178.751H87.9316V186.751H86.1049V185.711H85.7849C85.6071 186.04 85.3405 186.324 84.9849 186.564C84.6293 186.804 84.1627 186.924 83.5849 186.924ZM84.0782 185.484C84.6471 185.484 85.1005 185.235 85.4382 184.738C85.7849 184.24 85.9582 183.578 85.9582 182.751C85.9582 181.915 85.7849 181.253 85.4382 180.764C85.1005 180.267 84.6471 180.018 84.0782 180.018C83.5449 180.018 83.1271 180.249 82.8249 180.711C82.5316 181.173 82.3849 181.853 82.3849 182.751C82.3849 183.649 82.5316 184.329 82.8249 184.791C83.1271 185.253 83.5449 185.484 84.0782 185.484ZM90.6276 186.751C90.3876 186.475 90.2143 186.16 90.1076 185.804C90.0009 185.449 89.9476 184.969 89.9476 184.364V176.084H91.9343V184.151C91.9343 184.835 92.0098 185.364 92.1609 185.738C92.312 186.102 92.5076 186.413 92.7476 186.671V186.751H90.6276ZM30.8613 210.751V200.351H32.9146V210.751H30.8613ZM35.011 210.751V202.751H36.8377V203.951H37.1577C37.3088 203.542 37.5577 203.209 37.9044 202.951C38.251 202.684 38.7399 202.551 39.371 202.551C40.2688 202.551 40.9355 202.835 41.371 203.404C41.8155 203.964 42.0377 204.715 42.0377 205.658V210.751H40.051V206.004C40.051 205.418 39.9444 204.969 39.731 204.658C39.5266 204.338 39.1933 204.178 38.731 204.178C38.1799 204.178 37.7533 204.395 37.451 204.831C37.1488 205.258 36.9977 205.791 36.9977 206.431V210.751H35.011ZM46.8731 210.951C46.0198 210.951 45.3353 210.813 44.8198 210.538C44.3042 210.262 43.922 209.911 43.6731 209.484C43.4331 209.058 43.2998 208.627 43.2731 208.191H45.1665C45.202 208.431 45.2909 208.653 45.4331 208.858C45.5842 209.062 45.7842 209.227 46.0331 209.351C46.2909 209.467 46.602 209.524 46.9665 209.524C47.402 209.524 47.722 209.444 47.9265 209.284C48.1309 209.124 48.2331 208.92 48.2331 208.671C48.2331 208.44 48.1442 208.244 47.9665 208.084C47.7887 207.924 47.4998 207.778 47.0998 207.644L46.1398 207.324C45.6865 207.164 45.2687 206.991 44.8865 206.804C44.5131 206.609 44.2109 206.36 43.9798 206.058C43.7576 205.755 43.6465 205.369 43.6465 204.898C43.6465 204.195 43.9087 203.631 44.4331 203.204C44.9665 202.769 45.7131 202.551 46.6731 202.551C47.3665 202.551 47.9353 202.662 48.3798 202.884C48.8242 203.098 49.1576 203.391 49.3798 203.764C49.6109 204.129 49.7442 204.538 49.7798 204.991H47.9531C47.9087 204.662 47.7753 204.4 47.5531 204.204C47.3309 204.009 47.0109 203.911 46.5931 203.911C46.2287 203.911 45.9531 203.987 45.7665 204.138C45.5798 204.28 45.4865 204.475 45.4865 204.724C45.4865 204.973 45.5842 205.178 45.7798 205.338C45.9753 205.498 46.2687 205.644 46.6598 205.778L47.6198 206.098C48.0731 206.24 48.4865 206.409 48.8598 206.604C49.2331 206.791 49.5309 207.035 49.7531 207.338C49.9753 207.64 50.0865 208.031 50.0865 208.511C50.0865 209.24 49.8109 209.831 49.2598 210.284C48.7087 210.729 47.9131 210.951 46.8731 210.951ZM52.6131 210.751C52.4087 210.511 52.2442 210.222 52.1198 209.884C52.0042 209.547 51.9465 209.04 51.9465 208.364V204.164H50.8531V202.751H51.9731V200.751H53.9065V202.751H55.2265V204.164H53.9198V208.138C53.9198 208.849 53.9998 209.391 54.1598 209.764C54.3198 210.129 54.5109 210.431 54.7331 210.671V210.751H52.6131ZM59.3583 210.924C58.6294 210.924 58.025 210.747 57.545 210.391C57.065 210.027 56.705 209.533 56.465 208.911C56.2339 208.28 56.1183 207.555 56.1183 206.738C56.1183 205.902 56.2383 205.173 56.4783 204.551C56.7183 203.929 57.0783 203.444 57.5583 203.098C58.0383 202.751 58.6383 202.578 59.3583 202.578C59.9272 202.578 60.3894 202.693 60.745 202.924C61.1094 203.147 61.3806 203.435 61.5583 203.791H61.8783V202.751H63.705V210.751H61.8783V209.711H61.5583C61.3806 210.04 61.1139 210.324 60.7583 210.564C60.4028 210.804 59.9361 210.924 59.3583 210.924ZM59.8517 209.484C60.4206 209.484 60.8739 209.235 61.2117 208.738C61.5583 208.24 61.7317 207.578 61.7317 206.751C61.7317 205.915 61.5583 205.253 61.2117 204.764C60.8739 204.267 60.4206 204.018 59.8517 204.018C59.3183 204.018 58.9006 204.249 58.5983 204.711C58.305 205.173 58.1583 205.853 58.1583 206.751C58.1583 207.649 58.305 208.329 58.5983 208.791C58.9006 209.253 59.3183 209.484 59.8517 209.484ZM65.761 210.751V202.751H67.5877V203.951H67.9077C68.0588 203.542 68.3077 203.209 68.6544 202.951C69.001 202.684 69.4899 202.551 70.121 202.551C71.0188 202.551 71.6855 202.835 72.121 203.404C72.5655 203.964 72.7877 204.715 72.7877 205.658V210.751H70.801V206.004C70.801 205.418 70.6944 204.969 70.481 204.658C70.2766 204.338 69.9433 204.178 69.481 204.178C68.9299 204.178 68.5033 204.395 68.201 204.831C67.8988 205.258 67.7477 205.791 67.7477 206.431V210.751H65.761ZM77.9165 210.951C76.6987 210.951 75.7742 210.573 75.1431 209.818C74.512 209.053 74.1965 208.031 74.1965 206.751C74.1965 205.409 74.5253 204.373 75.1831 203.644C75.8498 202.915 76.7653 202.551 77.9298 202.551C78.9609 202.551 79.7742 202.827 80.3698 203.378C80.9653 203.929 81.3209 204.684 81.4365 205.644H79.4898C79.4276 205.111 79.2631 204.702 78.9965 204.418C78.7298 204.124 78.3831 203.978 77.9565 203.978C77.3965 203.978 76.9698 204.222 76.6765 204.711C76.3831 205.191 76.2365 205.871 76.2365 206.751C76.2365 207.631 76.3787 208.311 76.6631 208.791C76.9565 209.271 77.3831 209.511 77.9431 209.511C78.3787 209.511 78.7298 209.369 78.9965 209.084C79.2631 208.791 79.4276 208.378 79.4898 207.844H81.4365C81.312 208.804 80.9476 209.564 80.3431 210.124C79.7476 210.675 78.9387 210.951 77.9165 210.951ZM86.1683 210.951C84.9328 210.951 83.9906 210.573 83.3417 209.818C82.6928 209.053 82.3683 208.027 82.3683 206.738C82.3683 205.875 82.5106 205.133 82.795 204.511C83.0883 203.889 83.515 203.409 84.075 203.071C84.6439 202.724 85.3372 202.551 86.155 202.551C87.3194 202.551 88.2083 202.911 88.8217 203.631C89.4439 204.342 89.755 205.391 89.755 206.778V207.218H84.3017C84.3461 207.92 84.5283 208.48 84.8483 208.898C85.1683 209.315 85.6128 209.524 86.1817 209.524C86.6172 209.524 86.9683 209.395 87.235 209.138C87.5017 208.88 87.6839 208.564 87.7817 208.191H89.6617C89.5728 208.689 89.3906 209.147 89.115 209.564C88.8394 209.982 88.4572 210.32 87.9683 210.578C87.4883 210.827 86.8883 210.951 86.1683 210.951ZM84.3017 205.938H87.835C87.7994 205.298 87.635 204.8 87.3417 204.444C87.0572 204.089 86.6572 203.911 86.1417 203.911C85.6172 203.911 85.195 204.084 84.875 204.431C84.5639 204.769 84.3728 205.271 84.3017 205.938ZM94.1231 210.951C93.2698 210.951 92.5853 210.813 92.0698 210.538C91.5542 210.262 91.172 209.911 90.9231 209.484C90.6831 209.058 90.5498 208.627 90.5231 208.191H92.4165C92.452 208.431 92.5409 208.653 92.6831 208.858C92.8342 209.062 93.0342 209.227 93.2831 209.351C93.5409 209.467 93.852 209.524 94.2165 209.524C94.652 209.524 94.972 209.444 95.1765 209.284C95.3809 209.124 95.4831 208.92 95.4831 208.671C95.4831 208.44 95.3942 208.244 95.2165 208.084C95.0387 207.924 94.7498 207.778 94.3498 207.644L93.3898 207.324C92.9365 207.164 92.5187 206.991 92.1365 206.804C91.7631 206.609 91.4609 206.36 91.2298 206.058C91.0076 205.755 90.8965 205.369 90.8965 204.898C90.8965 204.195 91.1587 203.631 91.6831 203.204C92.2165 202.769 92.9631 202.551 93.9231 202.551C94.6165 202.551 95.1853 202.662 95.6298 202.884C96.0742 203.098 96.4076 203.391 96.6298 203.764C96.8609 204.129 96.9942 204.538 97.0298 204.991H95.2031C95.1587 204.662 95.0253 204.4 94.8031 204.204C94.5809 204.009 94.2609 203.911 93.8431 203.911C93.4787 203.911 93.2031 203.987 93.0165 204.138C92.8298 204.28 92.7365 204.475 92.7365 204.724C92.7365 204.973 92.8342 205.178 93.0298 205.338C93.2253 205.498 93.5187 205.644 93.9098 205.778L94.8698 206.098C95.3231 206.24 95.7365 206.409 96.1098 206.604C96.4831 206.791 96.7809 207.035 97.0031 207.338C97.2253 207.64 97.3365 208.031 97.3365 208.511C97.3365 209.24 97.0609 209.831 96.5098 210.284C95.9587 210.729 95.1631 210.951 94.1231 210.951Z" fill="#EEEEF0"/>
<defs>
<linearGradient id="paint0_linear_1278_46236" x1="543.113" y1="81.3092" x2="935.579" y2="81.3092" gradientUnits="userSpaceOnUse">
<stop offset="0.7" stop-color="#3B82F6"/>
<stop offset="1" stop-color="#3B82F6" stop-opacity="0"/>
</linearGradient>
<linearGradient id="paint1_linear_1278_46236" x1="543.42" y1="81.3091" x2="127.944" y2="81.3091" gradientUnits="userSpaceOnUse">
<stop offset="0.7" stop-color="#3B82F6"/>
<stop offset="1" stop-color="#3B82F6" stop-opacity="0"/>
</linearGradient>
<linearGradient id="paint2_linear_1278_46236" x1="543.418" y1="257.057" x2="795.559" y2="257.057" gradientUnits="userSpaceOnUse">
<stop offset="0.830838" stop-color="#3B82F6"/>
<stop offset="1" stop-color="#3B82F6" stop-opacity="0"/>
</linearGradient>
<linearGradient id="paint3_linear_1278_46236" x1="543.418" y1="257.057" x2="290.63" y2="257.057" gradientUnits="userSpaceOnUse">
<stop offset="0.830838" stop-color="#3B82F6"/>
<stop offset="1" stop-color="#3B82F6" stop-opacity="0"/>
</linearGradient>
<linearGradient id="paint4_linear_1278_46236" x1="579.339" y1="193.001" x2="960.582" y2="193.001" gradientUnits="userSpaceOnUse">
<stop offset="0.706363" stop-color="#3B82F6"/>
<stop offset="1" stop-color="#3B82F6" stop-opacity="0"/>
</linearGradient>
<linearGradient id="paint5_linear_1278_46236" x1="124.404" y1="193.001" x2="509.039" y2="193.001" gradientUnits="userSpaceOnUse">
<stop stop-color="#3B82F6" stop-opacity="0"/>
<stop offset="0.55" stop-color="#3B82F6"/>
</linearGradient>
<linearGradient id="paint6_linear_1278_46236" x1="596.251" y1="128.507" x2="800.527" y2="128.507" gradientUnits="userSpaceOnUse">
<stop offset="0.579938" stop-color="#3B82F6"/>
<stop offset="1" stop-color="#3B82F6" stop-opacity="0"/>
</linearGradient>
<linearGradient id="paint7_linear_1278_46236" x1="287.995" y1="128.507" x2="489.979" y2="128.507" gradientUnits="userSpaceOnUse">
<stop stop-color="#3B82F6" stop-opacity="0"/>
<stop offset="0.420062" stop-color="#3B82F6"/>
</linearGradient>
<linearGradient id="paint8_linear_1278_46236" x1="639.531" y1="0.503784" x2="639.531" y2="321.496" gradientUnits="userSpaceOnUse">
<stop stop-color="#3B82F6" stop-opacity="0"/>
<stop offset="0.505" stop-color="#3B82F6"/>
<stop offset="1" stop-color="#3B82F6" stop-opacity="0"/>
</linearGradient>
<linearGradient id="paint9_linear_1278_46236" x1="447.672" y1="0.503906" x2="447.672" y2="321.496" gradientUnits="userSpaceOnUse">
<stop stop-color="#3B82F6" stop-opacity="0"/>
<stop offset="0.505" stop-color="#3B82F6"/>
<stop offset="1" stop-color="#3B82F6" stop-opacity="0"/>
</linearGradient>
<linearGradient id="paint10_linear_1278_46236" x1="735.348" y1="65.0776" x2="735.348" y2="193.052" gradientUnits="userSpaceOnUse">
<stop stop-color="#3B82F6" stop-opacity="0"/>
<stop offset="0.535" stop-color="#3B82F6"/>
<stop offset="1" stop-color="#3B82F6" stop-opacity="0"/>
</linearGradient>
<linearGradient id="paint11_linear_1278_46236" x1="383.508" y1="33.0052" x2="383.508" y2="288.995" gradientUnits="userSpaceOnUse">
<stop stop-color="#3B82F6" stop-opacity="0"/>
<stop offset="0.535" stop-color="#3B82F6"/>
<stop offset="1" stop-color="#3B82F6" stop-opacity="0"/>
</linearGradient>
</defs>
</svg>
