<svg width="706" height="322" viewBox="0 0 706 322" fill="none" xmlns="http://www.w3.org/2000/svg">
<path d="M395.439 65.1328L561.801 65.1328" stroke="url(#paint0_linear_1278_44667)" stroke-width="2"/>
<path d="M395.717 65.1335L105.571 65.1328" stroke="url(#paint1_linear_1278_44667)" stroke-width="2"/>
<path d="M395.717 257.752L538.999 257.751" stroke="url(#paint2_linear_1278_44667)" stroke-width="2"/>
<path d="M395.717 257.752L201.805 257.751" stroke="url(#paint3_linear_1278_44667)" stroke-width="2"/>
<path d="M602.551 192.691L379.076 192.691" stroke="url(#paint4_linear_1278_44667)" stroke-width="2"/>
<path d="M364.283 192.692L89.1494 192.692" stroke="url(#paint5_linear_1278_44667)" stroke-width="2"/>
<path d="M497.332 128.97H395.718" stroke="url(#paint6_linear_1278_44667)" stroke-width="2"/>
<path d="M346.855 128.971L193.212 128.971" stroke="url(#paint7_linear_1278_44667)" stroke-width="2"/>
<path d="M428.914 0.400391L428.914 320.798" stroke="url(#paint8_linear_1278_44667)" stroke-width="2"/>
<path d="M258.664 1.73535L258.664 321.599" stroke="url(#paint9_linear_1278_44667)" stroke-width="2"/>
<path d="M539.734 63.9688L539.734 191.943" stroke="url(#paint10_linear_1278_44667)" stroke-width="2"/>
<path d="M145.639 33.2598L145.639 289.101" stroke="url(#paint11_linear_1278_44667)" stroke-width="2"/>
<circle cx="538.996" cy="128.97" r="6.25" fill="#60A5FA"/>
<circle cx="186.963" cy="128.971" r="6.25" fill="#60A5FA"/>
<path d="M398.915 148.735V100.928C398.915 96.5097 395.333 92.9414 390.915 92.9414H343.599H296.283C291.865 92.9414 288.283 96.5147 288.283 100.933C288.283 109.627 288.283 125.47 288.283 148.735C288.284 186.313 307.958 199.193 343.599 218.941C378.343 201.627 398.915 188.258 398.915 148.735Z" fill="#1D4ED8"/>
<path fill-rule="evenodd" clip-rule="evenodd" d="M347.763 118.978L341.692 117.465C342.146 117.465 342.634 117.429 343.183 117.389C343.892 117.336 344.704 117.276 345.682 117.276C349.325 117.276 352.274 118.6 355.049 120.301C355.433 120.511 355.763 120.951 356.1 121.399C356.372 121.761 356.647 122.128 356.957 122.381C358.345 122.948 359.733 123.327 361.121 123.138V122.57C362.682 122.948 364.243 124.839 364.243 126.163H357.131C356.957 126.163 356.61 126.352 356.437 126.541C356.61 126.73 356.957 127.108 357.131 127.108C357.458 127.108 357.815 127.097 358.191 127.086C359.41 127.05 360.836 127.008 362.161 127.297C362.137 127.341 362.112 127.387 362.086 127.435C361.544 128.428 360.544 130.261 359.386 128.999C359.386 128.621 352.621 128.81 350.886 129.188C350.539 129.188 350.192 129.944 350.365 130.322C351.142 132.379 352.984 133.661 354.71 134.863C355.682 135.539 356.617 136.19 357.304 136.94C362.161 141.099 363.723 144.881 362.682 152.065C360.075 163.263 355.977 165.153 347.992 168.837C346.944 169.32 345.828 169.835 344.641 170.405C341.692 171.918 339.957 175.51 340.478 179.102C341.692 186.854 352.968 188.934 355.223 179.859C355.917 176.266 355.049 171.161 348.804 169.649C351.58 168.325 354.182 166.813 356.61 165.111C356.957 164.733 357.304 164.733 357.651 165.111C364.59 172.107 366.325 184.964 354.876 192.526C346.723 197.442 336.488 193.283 333.192 183.829C329.896 174.187 335.1 163.788 344.294 161.708C350.886 160.574 357.651 153.011 354.702 146.015C353.393 142.876 349.614 139.737 346.422 137.085C345.384 136.223 344.409 135.413 343.6 134.671C343.143 134.372 342.397 134.441 341.565 134.517C340.818 134.586 340.002 134.661 339.263 134.482C339.61 134.198 339.821 133.916 340.032 133.633C340.243 133.351 340.454 133.069 340.801 132.785C339.24 131.738 338.272 131.595 337.076 131.417C336.544 131.339 335.968 131.253 335.273 131.079C335.794 129.944 338.039 128.623 339.6 128.434C339.553 127.94 339.521 127.515 339.494 127.142C339.324 124.805 339.307 124.579 336.314 122.948C338.094 121.655 339.667 121.942 341.195 122.22C342.794 122.511 344.343 122.794 346.029 121.247C343.947 120.491 341.865 119.734 339.957 118.411C340.935 118.482 341.895 118.67 342.852 118.858C344.442 119.17 346.02 119.48 347.644 119.244L347.763 118.978ZM333.192 167.569C324.865 161.897 324.345 147.528 333.712 141.288C340.651 136.562 348.457 138.263 353.661 146.582C354.355 147.906 354.355 149.986 354.008 151.498C352.621 156.603 349.151 159.439 344.467 160.573C345.855 159.439 346.896 157.737 347.243 155.847C348.804 145.259 333.712 144.124 334.406 155.469C334.233 158.683 336.488 160.952 340.825 161.708C338.569 163.22 336.661 164.544 334.58 167.38C334.233 167.947 333.886 167.947 333.192 167.569ZM331.1 175.772C328.43 176.316 325.614 176.89 322.957 178.157C324.171 172.674 328.508 168.893 333.712 168.893C332.324 170.783 331.631 173.241 331.457 175.699C331.338 175.723 331.219 175.748 331.1 175.772ZM353.479 123.585L354 124.152L353.306 124.53C352.959 124.719 352.785 124.53 352.612 124.341C352.265 123.774 353.306 123.396 353.479 123.585Z" fill="#EEEEF0"/>
<circle cx="145.639" cy="193.162" r="6.25" fill="#60A5FA"/>
<circle cx="538.996" cy="191.704" r="6.25" fill="#60A5FA"/>
<circle cx="90.8984" cy="65.9697" r="6.25" fill="#60A5FA"/>
<circle cx="258.664" cy="257.752" r="6.25" fill="#60A5FA"/>
<circle cx="428.914" cy="257.388" r="6.25" fill="#60A5FA"/>
<circle cx="539.734" cy="63.5537" r="6.25" fill="#60A5FA"/>
<rect x="562.133" y="33.2832" width="84.5088" height="62.9707" fill="#0F0F11"/>
<path d="M584.143 60.7686V51.6686H587.328L589.194 59.3452H589.579L591.469 51.6686H594.654V60.7686H592.963V53.1502H592.659L590.828 60.7686H587.864L586.033 53.1502H585.729V60.7686H584.143ZM599.386 60.9436C598.25 60.9436 597.403 60.613 596.843 59.9519C596.29 59.283 596.014 58.3886 596.014 57.2686C596.014 56.1486 596.29 55.258 596.843 54.5969C597.403 53.928 598.25 53.5936 599.386 53.5936C600.521 53.5936 601.369 53.928 601.929 54.5969C602.489 55.258 602.769 56.1486 602.769 57.2686C602.769 58.3886 602.489 59.283 601.929 59.9519C601.369 60.613 600.521 60.9436 599.386 60.9436ZM599.386 59.7419C599.938 59.7419 600.339 59.5319 600.588 59.1119C600.844 58.6841 600.973 58.0697 600.973 57.2686C600.973 56.4597 600.844 55.8452 600.588 55.4252C600.339 55.0052 599.938 54.7952 599.386 54.7952C598.841 54.7952 598.441 55.0052 598.184 55.4252C597.928 55.8452 597.799 56.4597 597.799 57.2686C597.799 58.0697 597.928 58.6841 598.184 59.1119C598.441 59.5319 598.841 59.7419 599.386 59.7419ZM607.923 60.9202C607.402 60.9202 606.982 60.8152 606.663 60.6052C606.352 60.3952 606.122 60.1463 605.974 59.8586H605.694V60.7686H604.096V51.4352H605.834V54.5502H606.114C606.278 54.2702 606.507 54.0447 606.803 53.8736C607.098 53.7024 607.476 53.6169 607.934 53.6169C608.549 53.6169 609.062 53.7686 609.474 54.0719C609.894 54.3752 610.209 54.7991 610.419 55.3436C610.629 55.888 610.734 56.5258 610.734 57.2569C610.734 57.9724 610.629 58.6063 610.419 59.1586C610.217 59.703 609.906 60.1347 609.486 60.4536C609.074 60.7647 608.553 60.9202 607.923 60.9202ZM607.468 59.6602C607.934 59.6602 608.296 59.458 608.553 59.0536C608.809 58.6491 608.938 58.0541 608.938 57.2686C608.938 56.483 608.809 55.888 608.553 55.4836C608.296 55.0791 607.934 54.8769 607.468 54.8769C606.97 54.8769 606.569 55.0947 606.266 55.5302C605.971 55.958 605.823 56.5374 605.823 57.2686C605.823 57.9919 605.971 58.5713 606.266 59.0069C606.569 59.4424 606.97 59.6602 607.468 59.6602ZM612.067 60.7686V53.7686H613.805V60.7686H612.067ZM612.93 52.9169C612.619 52.9169 612.382 52.8352 612.218 52.6719C612.055 52.5008 611.973 52.283 611.973 52.0186C611.973 51.7463 612.055 51.5286 612.218 51.3652C612.382 51.2019 612.619 51.1202 612.93 51.1202C613.241 51.1202 613.478 51.2019 613.642 51.3652C613.805 51.5286 613.887 51.7463 613.887 52.0186C613.887 52.283 613.805 52.5008 613.642 52.6719C613.478 52.8352 613.241 52.9169 612.93 52.9169ZM616.168 60.7686C615.958 60.5274 615.806 60.2513 615.713 59.9402C615.619 59.6291 615.573 59.2091 615.573 58.6802V51.4352H617.311V58.4936C617.311 59.0924 617.377 59.5552 617.509 59.8819C617.642 60.2008 617.813 60.473 618.023 60.6986V60.7686H616.168ZM622.034 60.9436C620.953 60.9436 620.129 60.613 619.561 59.9519C618.993 59.283 618.709 58.3847 618.709 57.2569C618.709 56.5024 618.834 55.853 619.083 55.3086C619.339 54.7641 619.713 54.3441 620.203 54.0486C620.701 53.7452 621.307 53.5936 622.023 53.5936C623.042 53.5936 623.819 53.9086 624.356 54.5386C624.901 55.1608 625.173 56.0786 625.173 57.2919V57.6769H620.401C620.44 58.2913 620.599 58.7813 620.879 59.1469C621.159 59.5124 621.548 59.6952 622.046 59.6952C622.427 59.6952 622.734 59.5824 622.968 59.3569C623.201 59.1313 623.361 58.8552 623.446 58.5286H625.091C625.013 58.9641 624.854 59.3647 624.613 59.7302C624.372 60.0958 624.037 60.3913 623.609 60.6169C623.189 60.8347 622.664 60.9436 622.034 60.9436ZM620.401 56.5569H623.493C623.462 55.9969 623.318 55.5613 623.061 55.2502C622.812 54.9391 622.462 54.7836 622.011 54.7836C621.552 54.7836 621.183 54.9352 620.903 55.2386C620.631 55.5341 620.463 55.9736 620.401 56.5569ZM581.381 80.7686V71.6686H584.554C586.157 71.6686 587.319 72.0691 588.043 72.8702C588.774 73.6636 589.139 74.7797 589.139 76.2186C589.139 77.6574 588.774 78.7774 588.043 79.5786C587.319 80.3719 586.157 80.7686 584.554 80.7686H581.381ZM583.178 79.3569H584.438C585.083 79.3569 585.616 79.2558 586.036 79.0536C586.456 78.8513 586.767 78.5247 586.969 78.0736C587.179 77.6147 587.284 76.9963 587.284 76.2186C587.284 75.4408 587.179 74.8224 586.969 74.3636C586.767 73.9047 586.456 73.578 586.036 73.3836C585.616 73.1813 585.083 73.0802 584.438 73.0802H583.178V79.3569ZM593.283 80.9436C592.201 80.9436 591.377 80.613 590.809 79.9519C590.241 79.283 589.958 78.3847 589.958 77.2569C589.958 76.5024 590.082 75.853 590.331 75.3086C590.588 74.7641 590.961 74.3441 591.451 74.0486C591.949 73.7452 592.555 73.5936 593.271 73.5936C594.29 73.5936 595.068 73.9086 595.604 74.5386C596.149 75.1608 596.421 76.0786 596.421 77.2919V77.6769H591.649C591.688 78.2913 591.848 78.7813 592.128 79.1469C592.408 79.5124 592.796 79.6952 593.294 79.6952C593.675 79.6952 593.983 79.5824 594.216 79.3569C594.449 79.1313 594.609 78.8552 594.694 78.5286H596.339C596.261 78.9641 596.102 79.3647 595.861 79.7302C595.62 80.0958 595.285 80.3913 594.858 80.6169C594.438 80.8347 593.913 80.9436 593.283 80.9436ZM591.649 76.5569H594.741C594.71 75.9969 594.566 75.5613 594.309 75.2502C594.06 74.9391 593.71 74.7836 593.259 74.7836C592.8 74.7836 592.431 74.9352 592.151 75.2386C591.879 75.5341 591.711 75.9736 591.649 76.5569ZM598.895 80.7686L596.853 73.8386V73.7686H598.603L600.167 79.3452H600.447L602.022 73.7686H603.62V73.8386L601.578 80.7686H598.895ZM604.684 80.7686V73.7686H606.422V80.7686H604.684ZM605.547 72.9169C605.236 72.9169 604.999 72.8352 604.836 72.6719C604.672 72.5008 604.591 72.283 604.591 72.0186C604.591 71.7463 604.672 71.5286 604.836 71.3652C604.999 71.2019 605.236 71.1202 605.547 71.1202C605.858 71.1202 606.096 71.2019 606.259 71.3652C606.422 71.5286 606.504 71.7463 606.504 72.0186C606.504 72.283 606.422 72.5008 606.259 72.6719C606.096 72.8352 605.858 72.9169 605.547 72.9169ZM611.013 80.9436C609.948 80.9436 609.139 80.613 608.587 79.9519C608.034 79.283 607.758 78.3886 607.758 77.2686C607.758 76.0941 608.046 75.188 608.622 74.5502C609.205 73.9124 610.006 73.5936 611.025 73.5936C611.927 73.5936 612.639 73.8347 613.16 74.3169C613.681 74.7991 613.992 75.4602 614.093 76.3002H612.39C612.336 75.8336 612.192 75.4758 611.958 75.2269C611.725 74.9702 611.422 74.8419 611.048 74.8419C610.558 74.8419 610.185 75.0558 609.928 75.4836C609.672 75.9036 609.543 76.4986 609.543 77.2686C609.543 78.0386 609.668 78.6336 609.917 79.0536C610.173 79.4736 610.547 79.6836 611.037 79.6836C611.418 79.6836 611.725 79.5591 611.958 79.3102C612.192 79.0536 612.336 78.6919 612.39 78.2252H614.093C613.984 79.0652 613.666 79.7302 613.137 80.2202C612.616 80.7024 611.908 80.9436 611.013 80.9436ZM618.234 80.9436C617.153 80.9436 616.328 80.613 615.76 79.9519C615.193 79.283 614.909 78.3847 614.909 77.2569C614.909 76.5024 615.033 75.853 615.282 75.3086C615.539 74.7641 615.912 74.3441 616.402 74.0486C616.9 73.7452 617.506 73.5936 618.222 73.5936C619.241 73.5936 620.019 73.9086 620.555 74.5386C621.1 75.1608 621.372 76.0786 621.372 77.2919V77.6769H616.6C616.639 78.2913 616.799 78.7813 617.079 79.1469C617.359 79.5124 617.748 79.6952 618.245 79.6952C618.626 79.6952 618.934 79.5824 619.167 79.3569C619.4 79.1313 619.56 78.8552 619.645 78.5286H621.29C621.213 78.9641 621.053 79.3647 620.812 79.7302C620.571 80.0958 620.236 80.3913 619.809 80.6169C619.389 80.8347 618.864 80.9436 618.234 80.9436ZM616.6 76.5569H619.692C619.661 75.9969 619.517 75.5613 619.26 75.2502C619.011 74.9391 618.661 74.7836 618.21 74.7836C617.751 74.7836 617.382 74.9352 617.102 75.2386C616.83 75.5341 616.663 75.9736 616.6 76.5569ZM625.194 80.9436C624.447 80.9436 623.849 80.823 623.397 80.5819C622.946 80.3408 622.612 80.0336 622.394 79.6602C622.184 79.2869 622.067 78.9097 622.044 78.5286H623.701C623.732 78.7386 623.81 78.933 623.934 79.1119C624.066 79.2908 624.241 79.4347 624.459 79.5436C624.685 79.6447 624.957 79.6952 625.276 79.6952C625.657 79.6952 625.937 79.6252 626.116 79.4852C626.295 79.3452 626.384 79.1663 626.384 78.9486C626.384 78.7463 626.306 78.5752 626.151 78.4352C625.995 78.2952 625.742 78.1669 625.392 78.0502L624.552 77.7702C624.156 77.6302 623.79 77.4786 623.456 77.3152C623.129 77.1441 622.865 76.9263 622.662 76.6619C622.468 76.3974 622.371 76.0591 622.371 75.6469C622.371 75.0324 622.6 74.5386 623.059 74.1652C623.526 73.7841 624.179 73.5936 625.019 73.5936C625.626 73.5936 626.124 73.6908 626.512 73.8852C626.901 74.0719 627.193 74.3286 627.387 74.6552C627.59 74.9741 627.706 75.3319 627.737 75.7286H626.139C626.1 75.4408 625.984 75.2113 625.789 75.0402C625.595 74.8691 625.315 74.7836 624.949 74.7836C624.63 74.7836 624.389 74.8497 624.226 74.9819C624.062 75.1063 623.981 75.2774 623.981 75.4952C623.981 75.713 624.066 75.8919 624.237 76.0319C624.409 76.1719 624.665 76.3002 625.007 76.4169L625.847 76.6969C626.244 76.8213 626.606 76.9691 626.932 77.1402C627.259 77.3036 627.52 77.5174 627.714 77.7819C627.909 78.0463 628.006 78.3886 628.006 78.8086C628.006 79.4463 627.765 79.9636 627.282 80.3602C626.8 80.7491 626.104 80.9436 625.194 80.9436Z" fill="#EEEEF0"/>
<rect x="497.33" y="97.3271" width="84.8083" height="63.0371" fill="#0F0F11"/>
<path d="M524.132 123.592V114.492H525.929V122.157H529.849V123.592H524.132ZM533.77 123.767C532.634 123.767 531.786 123.436 531.226 122.775C530.674 122.106 530.398 121.212 530.398 120.092C530.398 118.972 530.674 118.081 531.226 117.42C531.786 116.751 532.634 116.417 533.77 116.417C534.905 116.417 535.753 116.751 536.313 117.42C536.873 118.081 537.153 118.972 537.153 120.092C537.153 121.212 536.873 122.106 536.313 122.775C535.753 123.436 534.905 123.767 533.77 123.767ZM533.77 122.565C534.322 122.565 534.722 122.355 534.971 121.935C535.228 121.507 535.356 120.893 535.356 120.092C535.356 119.283 535.228 118.668 534.971 118.248C534.722 117.828 534.322 117.618 533.77 117.618C533.225 117.618 532.825 117.828 532.568 118.248C532.311 118.668 532.183 119.283 532.183 120.092C532.183 120.893 532.311 121.507 532.568 121.935C532.825 122.355 533.225 122.565 533.77 122.565ZM541.268 123.767C540.203 123.767 539.394 123.436 538.842 122.775C538.289 122.106 538.013 121.212 538.013 120.092C538.013 118.917 538.301 118.011 538.877 117.373C539.46 116.736 540.261 116.417 541.28 116.417C542.182 116.417 542.894 116.658 543.415 117.14C543.936 117.622 544.247 118.283 544.348 119.123H542.645C542.59 118.657 542.447 118.299 542.213 118.05C541.98 117.793 541.677 117.665 541.303 117.665C540.813 117.665 540.44 117.879 540.183 118.307C539.927 118.727 539.798 119.322 539.798 120.092C539.798 120.862 539.923 121.457 540.172 121.877C540.428 122.297 540.802 122.507 541.292 122.507C541.673 122.507 541.98 122.382 542.213 122.133C542.447 121.877 542.59 121.515 542.645 121.048H544.348C544.239 121.888 543.92 122.553 543.392 123.043C542.87 123.526 542.163 123.767 541.268 123.767ZM547.999 123.743C547.361 123.743 546.832 123.588 546.412 123.277C545.992 122.958 545.677 122.526 545.467 121.982C545.265 121.43 545.164 120.796 545.164 120.08C545.164 119.349 545.269 118.711 545.479 118.167C545.689 117.622 546.004 117.198 546.424 116.895C546.844 116.592 547.369 116.44 547.999 116.44C548.496 116.44 548.901 116.541 549.212 116.743C549.531 116.938 549.768 117.191 549.924 117.502H550.204V116.592H551.802V123.592H550.204V122.682H549.924C549.768 122.97 549.535 123.218 549.224 123.428C548.912 123.638 548.504 123.743 547.999 123.743ZM548.43 122.483C548.928 122.483 549.325 122.266 549.62 121.83C549.924 121.395 550.075 120.815 550.075 120.092C550.075 119.361 549.924 118.781 549.62 118.353C549.325 117.918 548.928 117.7 548.43 117.7C547.964 117.7 547.598 117.902 547.334 118.307C547.077 118.711 546.949 119.306 546.949 120.092C546.949 120.877 547.077 121.472 547.334 121.877C547.598 122.281 547.964 122.483 548.43 122.483ZM554.161 123.592C553.951 123.351 553.799 123.075 553.706 122.763C553.613 122.452 553.566 122.032 553.566 121.503V114.258H555.304V121.317C555.304 121.916 555.37 122.378 555.503 122.705C555.635 123.024 555.806 123.296 556.016 123.522V123.592H554.161ZM516.729 143.592V134.492H519.902C521.504 134.492 522.667 134.892 523.39 135.693C524.122 136.487 524.487 137.603 524.487 139.042C524.487 140.481 524.122 141.601 523.39 142.402C522.667 143.195 521.504 143.592 519.902 143.592H516.729ZM518.525 142.18H519.785C520.431 142.18 520.964 142.079 521.384 141.877C521.804 141.675 522.115 141.348 522.317 140.897C522.527 140.438 522.632 139.82 522.632 139.042C522.632 138.264 522.527 137.646 522.317 137.187C522.115 136.728 521.804 136.401 521.384 136.207C520.964 136.005 520.431 135.903 519.785 135.903H518.525V142.18ZM528.63 143.767C527.549 143.767 526.725 143.436 526.157 142.775C525.589 142.106 525.305 141.208 525.305 140.08C525.305 139.326 525.43 138.676 525.679 138.132C525.935 137.587 526.309 137.167 526.799 136.872C527.296 136.568 527.903 136.417 528.619 136.417C529.637 136.417 530.415 136.732 530.952 137.362C531.496 137.984 531.769 138.902 531.769 140.115V140.5H526.997C527.036 141.115 527.195 141.605 527.475 141.97C527.755 142.336 528.144 142.518 528.642 142.518C529.023 142.518 529.33 142.406 529.564 142.18C529.797 141.955 529.956 141.678 530.042 141.352H531.687C531.609 141.787 531.45 142.188 531.209 142.553C530.967 142.919 530.633 143.215 530.205 143.44C529.785 143.658 529.26 143.767 528.63 143.767ZM526.997 139.38H530.089C530.057 138.82 529.914 138.385 529.657 138.073C529.408 137.762 529.058 137.607 528.607 137.607C528.148 137.607 527.779 137.758 527.499 138.062C527.226 138.357 527.059 138.797 526.997 139.38ZM534.243 143.592L532.201 136.662V136.592H533.951L535.514 142.168H535.794L537.369 136.592H538.968V136.662L536.926 143.592H534.243ZM540.032 143.592V136.592H541.77V143.592H540.032ZM540.895 135.74C540.584 135.74 540.347 135.658 540.183 135.495C540.02 135.324 539.938 135.106 539.938 134.842C539.938 134.57 540.02 134.352 540.183 134.188C540.347 134.025 540.584 133.943 540.895 133.943C541.206 133.943 541.443 134.025 541.607 134.188C541.77 134.352 541.852 134.57 541.852 134.842C541.852 135.106 541.77 135.324 541.607 135.495C541.443 135.658 541.206 135.74 540.895 135.74ZM546.361 143.767C545.295 143.767 544.487 143.436 543.934 142.775C543.382 142.106 543.106 141.212 543.106 140.092C543.106 138.917 543.394 138.011 543.969 137.373C544.553 136.736 545.354 136.417 546.373 136.417C547.275 136.417 547.987 136.658 548.508 137.14C549.029 137.622 549.34 138.283 549.441 139.123H547.738C547.683 138.657 547.539 138.299 547.306 138.05C547.073 137.793 546.769 137.665 546.396 137.665C545.906 137.665 545.533 137.879 545.276 138.307C545.019 138.727 544.891 139.322 544.891 140.092C544.891 140.862 545.015 141.457 545.264 141.877C545.521 142.297 545.894 142.507 546.384 142.507C546.765 142.507 547.073 142.382 547.306 142.133C547.539 141.877 547.683 141.515 547.738 141.048H549.441C549.332 141.888 549.013 142.553 548.484 143.043C547.963 143.526 547.255 143.767 546.361 143.767ZM553.581 143.767C552.5 143.767 551.676 143.436 551.108 142.775C550.54 142.106 550.256 141.208 550.256 140.08C550.256 139.326 550.381 138.676 550.63 138.132C550.886 137.587 551.26 137.167 551.75 136.872C552.247 136.568 552.854 136.417 553.57 136.417C554.589 136.417 555.366 136.732 555.903 137.362C556.447 137.984 556.72 138.902 556.72 140.115V140.5H551.948C551.987 141.115 552.146 141.605 552.426 141.97C552.706 142.336 553.095 142.518 553.593 142.518C553.974 142.518 554.281 142.406 554.515 142.18C554.748 141.955 554.907 141.678 554.993 141.352H556.638C556.56 141.787 556.401 142.188 556.16 142.553C555.919 142.919 555.584 143.215 555.156 143.44C554.736 143.658 554.211 143.767 553.581 143.767ZM551.948 139.38H555.04C555.009 138.82 554.865 138.385 554.608 138.073C554.359 137.762 554.009 137.607 553.558 137.607C553.099 137.607 552.73 137.758 552.45 138.062C552.177 138.357 552.01 138.797 551.948 139.38ZM560.542 143.767C559.795 143.767 559.196 143.646 558.745 143.405C558.294 143.164 557.96 142.857 557.742 142.483C557.532 142.11 557.415 141.733 557.392 141.352H559.048C559.08 141.562 559.157 141.756 559.282 141.935C559.414 142.114 559.589 142.258 559.807 142.367C560.032 142.468 560.305 142.518 560.623 142.518C561.005 142.518 561.285 142.448 561.463 142.308C561.642 142.168 561.732 141.99 561.732 141.772C561.732 141.57 561.654 141.398 561.498 141.258C561.343 141.118 561.09 140.99 560.74 140.873L559.9 140.593C559.503 140.453 559.138 140.302 558.803 140.138C558.477 139.967 558.212 139.75 558.01 139.485C557.816 139.221 557.718 138.882 557.718 138.47C557.718 137.856 557.948 137.362 558.407 136.988C558.873 136.607 559.527 136.417 560.367 136.417C560.973 136.417 561.471 136.514 561.86 136.708C562.249 136.895 562.541 137.152 562.735 137.478C562.937 137.797 563.054 138.155 563.085 138.552H561.487C561.448 138.264 561.331 138.035 561.137 137.863C560.942 137.692 560.662 137.607 560.297 137.607C559.978 137.607 559.737 137.673 559.573 137.805C559.41 137.93 559.328 138.101 559.328 138.318C559.328 138.536 559.414 138.715 559.585 138.855C559.756 138.995 560.013 139.123 560.355 139.24L561.195 139.52C561.592 139.645 561.953 139.792 562.28 139.963C562.607 140.127 562.867 140.341 563.062 140.605C563.256 140.87 563.353 141.212 563.353 141.632C563.353 142.27 563.112 142.787 562.63 143.183C562.148 143.572 561.452 143.767 560.542 143.767Z" fill="#EEEEF0"/>
<rect x="539.734" y="225.325" width="112.112" height="63.0371" fill="#0F0F11"/>
<path d="M556.112 252.844V243.744H559.285C560.887 243.744 562.05 244.144 562.773 244.945C563.504 245.739 563.87 246.855 563.87 248.294C563.87 249.733 563.504 250.853 562.773 251.654C562.05 252.447 560.887 252.844 559.285 252.844H556.112ZM557.908 251.432H559.168C559.814 251.432 560.347 251.331 560.767 251.129C561.187 250.927 561.498 250.6 561.7 250.149C561.91 249.69 562.015 249.072 562.015 248.294C562.015 247.516 561.91 246.898 561.7 246.439C561.498 245.98 561.187 245.653 560.767 245.459C560.347 245.257 559.814 245.155 559.168 245.155H557.908V251.432ZM568.013 253.019C566.932 253.019 566.107 252.688 565.54 252.027C564.972 251.358 564.688 250.46 564.688 249.332C564.688 248.578 564.812 247.928 565.061 247.384C565.318 246.839 565.691 246.419 566.181 246.124C566.679 245.82 567.286 245.669 568.001 245.669C569.02 245.669 569.798 245.984 570.335 246.614C570.879 247.236 571.151 248.154 571.151 249.367V249.752H566.38C566.419 250.367 566.578 250.857 566.858 251.222C567.138 251.588 567.527 251.77 568.025 251.77C568.406 251.77 568.713 251.658 568.946 251.432C569.18 251.207 569.339 250.93 569.425 250.604H571.07C570.992 251.039 570.832 251.44 570.591 251.805C570.35 252.171 570.016 252.467 569.588 252.692C569.168 252.91 568.643 253.019 568.013 253.019ZM566.38 248.632H569.471C569.44 248.072 569.296 247.637 569.04 247.325C568.791 247.014 568.441 246.859 567.99 246.859C567.531 246.859 567.161 247.01 566.881 247.314C566.609 247.609 566.442 248.049 566.38 248.632ZM573.625 252.844L571.584 245.914V245.844H573.334L574.897 251.42H575.177L576.752 245.844H578.35V245.914L576.309 252.844H573.625ZM582.273 253.019C581.192 253.019 580.367 252.688 579.799 252.027C579.232 251.358 578.948 250.46 578.948 249.332C578.948 248.578 579.072 247.928 579.321 247.384C579.578 246.839 579.951 246.419 580.441 246.124C580.939 245.82 581.546 245.669 582.261 245.669C583.28 245.669 584.058 245.984 584.594 246.614C585.139 247.236 585.411 248.154 585.411 249.367V249.752H580.639C580.678 250.367 580.838 250.857 581.118 251.222C581.398 251.588 581.787 251.77 582.284 251.77C582.666 251.77 582.973 251.658 583.206 251.432C583.439 251.207 583.599 250.93 583.684 250.604H585.329C585.252 251.039 585.092 251.44 584.851 251.805C584.61 252.171 584.276 252.467 583.848 252.692C583.428 252.91 582.903 253.019 582.273 253.019ZM580.639 248.632H583.731C583.7 248.072 583.556 247.637 583.299 247.325C583.051 247.014 582.701 246.859 582.249 246.859C581.791 246.859 581.421 247.01 581.141 247.314C580.869 247.609 580.702 248.049 580.639 248.632ZM587.262 252.844C587.052 252.603 586.9 252.327 586.807 252.015C586.713 251.704 586.667 251.284 586.667 250.755V243.51H588.405V250.569C588.405 251.168 588.471 251.63 588.603 251.957C588.735 252.276 588.907 252.548 589.117 252.774V252.844H587.262ZM593.175 253.019C592.039 253.019 591.192 252.688 590.632 252.027C590.079 251.358 589.803 250.464 589.803 249.344C589.803 248.224 590.079 247.333 590.632 246.672C591.192 246.003 592.039 245.669 593.175 245.669C594.31 245.669 595.158 246.003 595.718 246.672C596.278 247.333 596.558 248.224 596.558 249.344C596.558 250.464 596.278 251.358 595.718 252.027C595.158 252.688 594.31 253.019 593.175 253.019ZM593.175 251.817C593.727 251.817 594.128 251.607 594.377 251.187C594.633 250.759 594.762 250.145 594.762 249.344C594.762 248.535 594.633 247.92 594.377 247.5C594.128 247.08 593.727 246.87 593.175 246.87C592.63 246.87 592.23 247.08 591.973 247.5C591.717 247.92 591.588 248.535 591.588 249.344C591.588 250.145 591.717 250.759 591.973 251.187C592.23 251.607 592.63 251.817 593.175 251.817ZM597.885 255.177V245.844H599.483V246.754H599.763C599.911 246.458 600.141 246.209 600.452 246.007C600.771 245.797 601.191 245.692 601.712 245.692C602.342 245.692 602.863 245.848 603.275 246.159C603.695 246.47 604.006 246.902 604.208 247.454C604.418 247.998 604.523 248.632 604.523 249.355C604.523 250.071 604.418 250.705 604.208 251.257C603.998 251.809 603.683 252.237 603.263 252.54C602.851 252.844 602.338 252.995 601.723 252.995C601.265 252.995 600.887 252.91 600.592 252.739C600.296 252.568 600.067 252.338 599.903 252.05H599.623V255.177H597.885ZM601.257 251.735C601.723 251.735 602.085 251.533 602.342 251.129C602.598 250.724 602.727 250.129 602.727 249.344C602.727 248.558 602.598 247.963 602.342 247.559C602.085 247.154 601.723 246.952 601.257 246.952C600.759 246.952 600.358 247.17 600.055 247.605C599.76 248.033 599.612 248.613 599.612 249.344C599.612 250.067 599.76 250.647 600.055 251.082C600.358 251.518 600.759 251.735 601.257 251.735ZM605.856 252.844V245.844H607.454V246.894H607.734C607.859 246.544 608.065 246.252 608.353 246.019C608.648 245.785 609.06 245.669 609.589 245.669C610.079 245.669 610.484 245.778 610.803 245.995C611.121 246.205 611.366 246.505 611.538 246.894H611.818C611.95 246.536 612.168 246.244 612.471 246.019C612.774 245.785 613.183 245.669 613.696 245.669C614.458 245.669 615.022 245.918 615.388 246.415C615.753 246.905 615.936 247.563 615.936 248.387V252.844H614.209V248.69C614.209 248.185 614.124 247.792 613.953 247.512C613.789 247.232 613.525 247.092 613.159 247.092C612.708 247.092 612.362 247.283 612.121 247.664C611.88 248.045 611.759 248.512 611.759 249.064V252.844H610.033V248.69C610.033 248.185 609.947 247.792 609.776 247.512C609.613 247.232 609.348 247.092 608.983 247.092C608.539 247.092 608.197 247.283 607.956 247.664C607.715 248.045 607.594 248.512 607.594 249.064V252.844H605.856ZM620.499 253.019C619.418 253.019 618.594 252.688 618.026 252.027C617.458 251.358 617.174 250.46 617.174 249.332C617.174 248.578 617.299 247.928 617.548 247.384C617.804 246.839 618.178 246.419 618.668 246.124C619.165 245.82 619.772 245.669 620.488 245.669C621.507 245.669 622.284 245.984 622.821 246.614C623.365 247.236 623.638 248.154 623.638 249.367V249.752H618.866C618.905 250.367 619.064 250.857 619.344 251.222C619.624 251.588 620.013 251.77 620.511 251.77C620.892 251.77 621.199 251.658 621.433 251.432C621.666 251.207 621.825 250.93 621.911 250.604H623.556C623.478 251.039 623.319 251.44 623.078 251.805C622.837 252.171 622.502 252.467 622.074 252.692C621.654 252.91 621.129 253.019 620.499 253.019ZM618.866 248.632H621.958C621.927 248.072 621.783 247.637 621.526 247.325C621.277 247.014 620.927 246.859 620.476 246.859C620.017 246.859 619.648 247.01 619.368 247.314C619.095 247.609 618.928 248.049 618.866 248.632ZM624.928 252.844V245.844H626.526V246.894H626.806C626.939 246.536 627.156 246.244 627.46 246.019C627.763 245.785 628.191 245.669 628.743 245.669C629.529 245.669 630.112 245.918 630.493 246.415C630.882 246.905 631.076 247.563 631.076 248.387V252.844H629.338V248.69C629.338 248.177 629.245 247.784 629.058 247.512C628.879 247.232 628.588 247.092 628.183 247.092C627.701 247.092 627.328 247.283 627.063 247.664C626.799 248.037 626.666 248.504 626.666 249.064V252.844H624.928ZM633.767 252.844C633.589 252.634 633.445 252.381 633.336 252.085C633.235 251.79 633.184 251.347 633.184 250.755V247.08H632.227V245.844H633.207V244.094H634.899V245.844H636.054V247.08H634.911V250.557C634.911 251.179 634.981 251.654 635.121 251.98C635.261 252.299 635.428 252.564 635.622 252.774V252.844H633.767ZM569.942 273.019C568.643 273.019 567.632 272.603 566.909 271.77C566.186 270.938 565.824 269.779 565.824 268.294C565.824 266.816 566.182 265.661 566.897 264.829C567.613 263.989 568.628 263.569 569.942 263.569C570.72 263.569 571.389 263.717 571.949 264.012C572.509 264.3 572.948 264.704 573.267 265.225C573.586 265.747 573.773 266.349 573.827 267.034H572.031C571.968 266.38 571.751 265.867 571.377 265.494C571.012 265.12 570.533 264.934 569.942 264.934C569.196 264.934 568.632 265.229 568.251 265.82C567.87 266.404 567.679 267.232 567.679 268.305C567.679 269.41 567.873 270.246 568.262 270.814C568.659 271.374 569.215 271.654 569.931 271.654C570.553 271.654 571.043 271.459 571.401 271.07C571.766 270.682 571.976 270.176 572.031 269.554H573.827C573.773 270.23 573.586 270.829 573.267 271.35C572.948 271.872 572.509 272.28 571.949 272.575C571.397 272.871 570.728 273.019 569.942 273.019ZM577.965 273.019C576.829 273.019 575.982 272.688 575.422 272.027C574.869 271.358 574.593 270.464 574.593 269.344C574.593 268.224 574.869 267.333 575.422 266.672C575.982 266.003 576.829 265.669 577.965 265.669C579.101 265.669 579.948 266.003 580.508 266.672C581.068 267.333 581.348 268.224 581.348 269.344C581.348 270.464 581.068 271.358 580.508 272.027C579.948 272.688 579.101 273.019 577.965 273.019ZM577.965 271.817C578.517 271.817 578.918 271.607 579.167 271.187C579.423 270.759 579.552 270.145 579.552 269.344C579.552 268.535 579.423 267.92 579.167 267.5C578.918 267.08 578.517 266.87 577.965 266.87C577.421 266.87 577.02 267.08 576.763 267.5C576.507 267.92 576.378 268.535 576.378 269.344C576.378 270.145 576.507 270.759 576.763 271.187C577.02 271.607 577.421 271.817 577.965 271.817ZM582.675 272.844V265.844H584.274V266.894H584.554C584.686 266.536 584.904 266.244 585.207 266.019C585.51 265.785 585.938 265.669 586.49 265.669C587.276 265.669 587.859 265.918 588.24 266.415C588.629 266.905 588.824 267.563 588.824 268.387V272.844H587.085V268.69C587.085 268.177 586.992 267.784 586.805 267.512C586.626 267.232 586.335 267.092 585.93 267.092C585.448 267.092 585.075 267.283 584.81 267.664C584.546 268.037 584.414 268.504 584.414 269.064V272.844H582.675ZM591.515 272.844C591.336 272.634 591.192 272.381 591.083 272.085C590.982 271.79 590.931 271.347 590.931 270.755V267.08H589.975V265.844H590.955V264.094H592.646V265.844H593.801V267.08H592.658V270.557C592.658 271.179 592.728 271.654 592.868 271.98C593.008 272.299 593.175 272.564 593.37 272.774V272.844H591.515ZM597.417 272.995C596.779 272.995 596.25 272.84 595.83 272.529C595.41 272.21 595.095 271.778 594.885 271.234C594.683 270.682 594.582 270.048 594.582 269.332C594.582 268.601 594.687 267.963 594.897 267.419C595.107 266.874 595.422 266.45 595.842 266.147C596.262 265.844 596.787 265.692 597.417 265.692C597.914 265.692 598.319 265.793 598.63 265.995C598.949 266.19 599.186 266.443 599.342 266.754H599.622V265.844H601.22V272.844H599.622V271.934H599.342C599.186 272.222 598.953 272.47 598.642 272.68C598.33 272.89 597.922 272.995 597.417 272.995ZM597.848 271.735C598.346 271.735 598.743 271.518 599.038 271.082C599.342 270.647 599.493 270.067 599.493 269.344C599.493 268.613 599.342 268.033 599.038 267.605C598.743 267.17 598.346 266.952 597.848 266.952C597.382 266.952 597.016 267.154 596.752 267.559C596.495 267.963 596.367 268.558 596.367 269.344C596.367 270.129 596.495 270.724 596.752 271.129C597.016 271.533 597.382 271.735 597.848 271.735ZM603.019 272.844V265.844H604.757V272.844H603.019ZM603.882 264.992C603.571 264.992 603.334 264.91 603.171 264.747C603.007 264.576 602.926 264.358 602.926 264.094C602.926 263.822 603.007 263.604 603.171 263.44C603.334 263.277 603.571 263.195 603.882 263.195C604.193 263.195 604.431 263.277 604.594 263.44C604.757 263.604 604.839 263.822 604.839 264.094C604.839 264.358 604.757 264.576 604.594 264.747C604.431 264.91 604.193 264.992 603.882 264.992ZM606.56 272.844V265.844H608.158V266.894H608.438C608.571 266.536 608.788 266.244 609.092 266.019C609.395 265.785 609.823 265.669 610.375 265.669C611.161 265.669 611.744 265.918 612.125 266.415C612.514 266.905 612.708 267.563 612.708 268.387V272.844H610.97V268.69C610.97 268.177 610.877 267.784 610.69 267.512C610.511 267.232 610.219 267.092 609.815 267.092C609.333 267.092 608.959 267.283 608.695 267.664C608.431 268.037 608.298 268.504 608.298 269.064V272.844H606.56ZM617.266 273.019C616.185 273.019 615.36 272.688 614.793 272.027C614.225 271.358 613.941 270.46 613.941 269.332C613.941 268.578 614.065 267.928 614.314 267.384C614.571 266.839 614.944 266.419 615.434 266.124C615.932 265.82 616.539 265.669 617.254 265.669C618.273 265.669 619.051 265.984 619.588 266.614C620.132 267.236 620.404 268.154 620.404 269.367V269.752H615.633C615.671 270.367 615.831 270.857 616.111 271.222C616.391 271.588 616.78 271.77 617.278 271.77C617.659 271.77 617.966 271.658 618.199 271.432C618.433 271.207 618.592 270.93 618.678 270.604H620.323C620.245 271.039 620.085 271.44 619.844 271.805C619.603 272.171 619.269 272.467 618.841 272.692C618.421 272.91 617.896 273.019 617.266 273.019ZM615.633 268.632H618.724C618.693 268.072 618.549 267.637 618.293 267.325C618.044 267.014 617.694 266.859 617.243 266.859C616.784 266.859 616.414 267.01 616.134 267.314C615.862 267.609 615.695 268.049 615.633 268.632ZM621.683 272.844V265.844H623.258V267.104H623.538C623.585 266.878 623.67 266.664 623.795 266.462C623.919 266.26 624.114 266.097 624.378 265.972C624.642 265.84 625 265.774 625.451 265.774H625.79V267.349H625.311C624.642 267.349 624.16 267.52 623.865 267.862C623.569 268.204 623.421 268.722 623.421 269.414V272.844H621.683Z" fill="#EEEEF0"/>
<rect x="89.4727" y="97.3799" width="112.333" height="63.0371" fill="#0F0F11"/>
<path d="M112.838 122.898V112.498H116.478L118.611 121.272H119.051L121.211 112.498H124.851V122.898H122.918V114.192H122.571L120.478 122.898H117.091L114.998 114.192H114.651V122.898H112.838ZM129.645 123.072C128.916 123.072 128.312 122.894 127.832 122.538C127.352 122.174 126.992 121.681 126.752 121.058C126.521 120.427 126.405 119.703 126.405 118.885C126.405 118.05 126.525 117.321 126.765 116.698C127.005 116.076 127.365 115.592 127.845 115.245C128.325 114.898 128.925 114.725 129.645 114.725C130.214 114.725 130.676 114.841 131.032 115.072C131.396 115.294 131.667 115.583 131.845 115.938H132.165V114.898H133.992V122.898H132.165V121.858H131.845C131.667 122.187 131.401 122.472 131.045 122.712C130.689 122.952 130.223 123.072 129.645 123.072ZM130.138 121.632C130.707 121.632 131.161 121.383 131.498 120.885C131.845 120.387 132.018 119.725 132.018 118.898C132.018 118.063 131.845 117.401 131.498 116.912C131.161 116.414 130.707 116.165 130.138 116.165C129.605 116.165 129.187 116.396 128.885 116.858C128.592 117.321 128.445 118.001 128.445 118.898C128.445 119.796 128.592 120.476 128.885 120.938C129.187 121.401 129.605 121.632 130.138 121.632ZM136.048 122.898V114.898H137.874V116.098H138.194C138.345 115.69 138.594 115.356 138.941 115.098C139.288 114.832 139.777 114.698 140.408 114.698C141.305 114.698 141.972 114.983 142.408 115.552C142.852 116.112 143.074 116.863 143.074 117.805V122.898H141.088V118.152C141.088 117.565 140.981 117.116 140.768 116.805C140.563 116.485 140.23 116.325 139.768 116.325C139.217 116.325 138.79 116.543 138.488 116.978C138.185 117.405 138.034 117.938 138.034 118.578V122.898H136.048ZM147.723 123.072C146.994 123.072 146.39 122.894 145.91 122.538C145.43 122.174 145.07 121.681 144.83 121.058C144.599 120.427 144.483 119.703 144.483 118.885C144.483 118.05 144.603 117.321 144.843 116.698C145.083 116.076 145.443 115.592 145.923 115.245C146.403 114.898 147.003 114.725 147.723 114.725C148.292 114.725 148.754 114.841 149.11 115.072C149.474 115.294 149.745 115.583 149.923 115.938H150.243V114.898H152.07V122.898H150.243V121.858H149.923C149.745 122.187 149.479 122.472 149.123 122.712C148.768 122.952 148.301 123.072 147.723 123.072ZM148.216 121.632C148.785 121.632 149.239 121.383 149.576 120.885C149.923 120.387 150.096 119.725 150.096 118.898C150.096 118.063 149.923 117.401 149.576 116.912C149.239 116.414 148.785 116.165 148.216 116.165C147.683 116.165 147.265 116.396 146.963 116.858C146.67 117.321 146.523 118.001 146.523 118.898C146.523 119.796 146.67 120.476 146.963 120.938C147.265 121.401 147.683 121.632 148.216 121.632ZM157.419 125.765C156.717 125.765 156.144 125.676 155.699 125.498C155.264 125.33 154.921 125.112 154.672 124.845C154.432 124.587 154.259 124.316 154.152 124.032C154.046 123.756 153.984 123.503 153.966 123.272H155.899C155.944 123.547 156.077 123.792 156.299 124.005C156.53 124.227 156.904 124.338 157.419 124.338C157.988 124.338 158.419 124.17 158.712 123.832C159.015 123.503 159.166 123.018 159.166 122.378V121.445H158.846C158.712 121.818 158.477 122.116 158.139 122.338C157.801 122.561 157.352 122.672 156.792 122.672C155.761 122.672 154.97 122.312 154.419 121.592C153.868 120.863 153.592 119.89 153.592 118.672C153.592 117.89 153.712 117.201 153.952 116.605C154.201 116.001 154.561 115.534 155.032 115.205C155.512 114.867 156.108 114.698 156.819 114.698C157.379 114.698 157.824 114.81 158.152 115.032C158.49 115.245 158.739 115.525 158.899 115.872H159.219V114.898H161.046V122.338C161.046 123.432 160.744 124.276 160.139 124.872C159.544 125.467 158.637 125.765 157.419 125.765ZM157.272 121.232C157.841 121.232 158.281 121.001 158.592 120.538C158.912 120.067 159.072 119.45 159.072 118.685C159.072 117.903 158.912 117.285 158.592 116.832C158.272 116.37 157.832 116.138 157.272 116.138C156.757 116.138 156.348 116.352 156.046 116.778C155.744 117.205 155.592 117.841 155.592 118.685C155.592 119.53 155.739 120.165 156.032 120.592C156.335 121.018 156.748 121.232 157.272 121.232ZM166.361 123.098C165.126 123.098 164.183 122.721 163.535 121.965C162.886 121.201 162.561 120.174 162.561 118.885C162.561 118.023 162.703 117.281 162.988 116.658C163.281 116.036 163.708 115.556 164.268 115.218C164.837 114.872 165.53 114.698 166.348 114.698C167.512 114.698 168.401 115.058 169.015 115.778C169.637 116.49 169.948 117.538 169.948 118.925V119.365H164.495C164.539 120.067 164.721 120.627 165.041 121.045C165.361 121.463 165.806 121.672 166.375 121.672C166.81 121.672 167.161 121.543 167.428 121.285C167.695 121.027 167.877 120.712 167.975 120.338H169.855C169.766 120.836 169.583 121.294 169.308 121.712C169.032 122.13 168.65 122.467 168.161 122.725C167.681 122.974 167.081 123.098 166.361 123.098ZM164.495 118.085H168.028C167.992 117.445 167.828 116.947 167.535 116.592C167.25 116.236 166.85 116.058 166.335 116.058C165.81 116.058 165.388 116.232 165.068 116.578C164.757 116.916 164.566 117.418 164.495 118.085ZM174.089 123.072C173.369 123.072 172.774 122.894 172.303 122.538C171.832 122.174 171.476 121.681 171.236 121.058C170.996 120.427 170.876 119.703 170.876 118.885C170.876 118.05 170.996 117.321 171.236 116.698C171.476 116.076 171.832 115.592 172.303 115.245C172.783 114.898 173.374 114.725 174.076 114.725C174.609 114.725 175.04 114.823 175.369 115.018C175.707 115.214 175.974 115.472 176.169 115.792H176.489V112.232H178.463V122.898H176.649V121.858H176.329C176.152 122.187 175.88 122.472 175.516 122.712C175.16 122.952 174.685 123.072 174.089 123.072ZM174.609 121.632C175.187 121.632 175.645 121.383 175.983 120.885C176.32 120.387 176.489 119.725 176.489 118.898C176.489 118.063 176.32 117.401 175.983 116.912C175.645 116.414 175.187 116.165 174.609 116.165C174.085 116.165 173.672 116.396 173.369 116.858C173.076 117.321 172.929 118.001 172.929 118.898C172.929 119.796 173.076 120.476 173.369 120.938C173.672 121.401 174.085 121.632 174.609 121.632ZM106.611 146.898V136.498H108.611V140.592H109.411L112.531 136.498H114.798V136.578L111.104 141.325L115.331 146.818V146.898H112.878L109.411 142.245H108.611V146.898H106.611ZM118.533 147.098C117.626 147.098 116.951 146.818 116.506 146.258C116.062 145.69 115.839 144.934 115.839 143.992V138.898H117.826V143.645C117.826 144.223 117.928 144.672 118.133 144.992C118.346 145.312 118.679 145.472 119.133 145.472C119.693 145.472 120.124 145.254 120.426 144.818C120.728 144.383 120.879 143.85 120.879 143.218V138.898H122.866V146.898H121.079V145.698H120.759C120.626 146.107 120.377 146.445 120.013 146.712C119.657 146.97 119.164 147.098 118.533 147.098ZM129.288 147.072C128.693 147.072 128.213 146.952 127.848 146.712C127.493 146.472 127.23 146.187 127.062 145.858H126.742V146.898H124.915V136.232H126.902V139.792H127.222C127.408 139.472 127.67 139.214 128.008 139.018C128.346 138.823 128.777 138.725 129.302 138.725C130.004 138.725 130.59 138.898 131.062 139.245C131.542 139.592 131.902 140.076 132.142 140.698C132.382 141.321 132.502 142.05 132.502 142.885C132.502 143.703 132.382 144.427 132.142 145.058C131.91 145.681 131.555 146.174 131.075 146.538C130.604 146.894 130.008 147.072 129.288 147.072ZM128.768 145.632C129.302 145.632 129.715 145.401 130.008 144.938C130.302 144.476 130.448 143.796 130.448 142.898C130.448 142.001 130.302 141.321 130.008 140.858C129.715 140.396 129.302 140.165 128.768 140.165C128.199 140.165 127.742 140.414 127.395 140.912C127.057 141.401 126.888 142.063 126.888 142.898C126.888 143.725 127.057 144.387 127.395 144.885C127.742 145.383 128.199 145.632 128.768 145.632ZM137.291 147.098C136.055 147.098 135.113 146.721 134.464 145.965C133.815 145.201 133.491 144.174 133.491 142.885C133.491 142.023 133.633 141.281 133.918 140.658C134.211 140.036 134.638 139.556 135.198 139.218C135.766 138.872 136.46 138.698 137.278 138.698C138.442 138.698 139.331 139.058 139.944 139.778C140.566 140.49 140.878 141.538 140.878 142.925V143.365H135.424C135.469 144.067 135.651 144.627 135.971 145.045C136.291 145.463 136.735 145.672 137.304 145.672C137.74 145.672 138.091 145.543 138.358 145.285C138.624 145.027 138.806 144.712 138.904 144.338H140.784C140.695 144.836 140.513 145.294 140.238 145.712C139.962 146.13 139.58 146.467 139.091 146.725C138.611 146.974 138.011 147.098 137.291 147.098ZM135.424 142.085H138.958C138.922 141.445 138.758 140.947 138.464 140.592C138.18 140.236 137.78 140.058 137.264 140.058C136.74 140.058 136.318 140.232 135.998 140.578C135.686 140.916 135.495 141.418 135.424 142.085ZM142.339 146.898V138.898H144.139V140.338H144.459C144.512 140.081 144.61 139.836 144.752 139.605C144.895 139.374 145.117 139.187 145.419 139.045C145.721 138.894 146.13 138.818 146.646 138.818H147.032V140.618H146.486C145.721 140.618 145.17 140.814 144.832 141.205C144.495 141.596 144.326 142.187 144.326 142.978V146.898H142.339ZM148.462 146.898V138.898H150.288V140.098H150.608C150.76 139.69 151.008 139.356 151.355 139.098C151.702 138.832 152.191 138.698 152.822 138.698C153.72 138.698 154.386 138.983 154.822 139.552C155.266 140.112 155.488 140.863 155.488 141.805V146.898H153.502V142.152C153.502 141.565 153.395 141.116 153.182 140.805C152.977 140.485 152.644 140.325 152.182 140.325C151.631 140.325 151.204 140.543 150.902 140.978C150.6 141.405 150.448 141.938 150.448 142.578V146.898H148.462ZM160.697 147.098C159.462 147.098 158.519 146.721 157.87 145.965C157.222 145.201 156.897 144.174 156.897 142.885C156.897 142.023 157.039 141.281 157.324 140.658C157.617 140.036 158.044 139.556 158.604 139.218C159.173 138.872 159.866 138.698 160.684 138.698C161.848 138.698 162.737 139.058 163.35 139.778C163.973 140.49 164.284 141.538 164.284 142.925V143.365H158.83C158.875 144.067 159.057 144.627 159.377 145.045C159.697 145.463 160.142 145.672 160.71 145.672C161.146 145.672 161.497 145.543 161.764 145.285C162.03 145.027 162.213 144.712 162.31 144.338H164.19C164.102 144.836 163.919 145.294 163.644 145.712C163.368 146.13 162.986 146.467 162.497 146.725C162.017 146.974 161.417 147.098 160.697 147.098ZM158.83 142.085H162.364C162.328 141.445 162.164 140.947 161.87 140.592C161.586 140.236 161.186 140.058 160.67 140.058C160.146 140.058 159.724 140.232 159.404 140.578C159.093 140.916 158.902 141.418 158.83 142.085ZM166.892 146.898C166.687 146.658 166.523 146.37 166.399 146.032C166.283 145.694 166.225 145.187 166.225 144.512V140.312H165.132V138.898H166.252V136.898H168.185V138.898H169.505V140.312H168.199V144.285C168.199 144.996 168.279 145.538 168.439 145.912C168.599 146.276 168.79 146.578 169.012 146.818V146.898H166.892ZM174.197 147.098C172.962 147.098 172.019 146.721 171.37 145.965C170.722 145.201 170.397 144.174 170.397 142.885C170.397 142.023 170.539 141.281 170.824 140.658C171.117 140.036 171.544 139.556 172.104 139.218C172.673 138.872 173.366 138.698 174.184 138.698C175.348 138.698 176.237 139.058 176.85 139.778C177.473 140.49 177.784 141.538 177.784 142.925V143.365H172.33C172.375 144.067 172.557 144.627 172.877 145.045C173.197 145.463 173.642 145.672 174.21 145.672C174.646 145.672 174.997 145.543 175.264 145.285C175.53 145.027 175.713 144.712 175.81 144.338H177.69C177.602 144.836 177.419 145.294 177.144 145.712C176.868 146.13 176.486 146.467 175.997 146.725C175.517 146.974 174.917 147.098 174.197 147.098ZM172.33 142.085H175.864C175.828 141.445 175.664 140.947 175.37 140.592C175.086 140.236 174.686 140.058 174.17 140.058C173.646 140.058 173.224 140.232 172.904 140.578C172.593 140.916 172.402 141.418 172.33 142.085ZM182.152 147.098C181.299 147.098 180.614 146.961 180.099 146.685C179.583 146.41 179.201 146.058 178.952 145.632C178.712 145.205 178.579 144.774 178.552 144.338H180.445C180.481 144.578 180.57 144.801 180.712 145.005C180.863 145.21 181.063 145.374 181.312 145.498C181.57 145.614 181.881 145.672 182.245 145.672C182.681 145.672 183.001 145.592 183.205 145.432C183.41 145.272 183.512 145.067 183.512 144.818C183.512 144.587 183.423 144.392 183.245 144.232C183.067 144.072 182.779 143.925 182.379 143.792L181.419 143.472C180.965 143.312 180.547 143.138 180.165 142.952C179.792 142.756 179.49 142.507 179.259 142.205C179.036 141.903 178.925 141.516 178.925 141.045C178.925 140.343 179.187 139.778 179.712 139.352C180.245 138.916 180.992 138.698 181.952 138.698C182.645 138.698 183.214 138.81 183.659 139.032C184.103 139.245 184.436 139.538 184.659 139.912C184.89 140.276 185.023 140.685 185.059 141.138H183.232C183.187 140.81 183.054 140.547 182.832 140.352C182.61 140.156 182.29 140.058 181.872 140.058C181.507 140.058 181.232 140.134 181.045 140.285C180.859 140.427 180.765 140.623 180.765 140.872C180.765 141.121 180.863 141.325 181.059 141.485C181.254 141.645 181.547 141.792 181.939 141.925L182.899 142.245C183.352 142.387 183.765 142.556 184.139 142.752C184.512 142.938 184.81 143.183 185.032 143.485C185.254 143.787 185.365 144.178 185.365 144.658C185.365 145.387 185.09 145.978 184.539 146.432C183.987 146.876 183.192 147.098 182.152 147.098Z" fill="#EEEEF0"/>
<rect x="94.748" y="225.335" width="107.058" height="63.5715" fill="#0F0F11"/>
<path d="M115.475 251.12V240.72H119.115L121.248 249.493H121.688L123.848 240.72H127.488V251.12H125.555V242.413H125.208L123.115 251.12H119.728L117.635 242.413H117.288V251.12H115.475ZM132.282 251.293C131.553 251.293 130.949 251.116 130.469 250.76C129.989 250.396 129.629 249.902 129.389 249.28C129.158 248.649 129.042 247.925 129.042 247.107C129.042 246.271 129.162 245.542 129.402 244.92C129.642 244.298 130.002 243.813 130.482 243.467C130.962 243.12 131.562 242.947 132.282 242.947C132.851 242.947 133.313 243.062 133.669 243.293C134.033 243.516 134.304 243.805 134.482 244.16H134.802V243.12H136.629V251.12H134.802V250.08H134.482C134.304 250.409 134.038 250.693 133.682 250.933C133.327 251.173 132.86 251.293 132.282 251.293ZM132.776 249.853C133.344 249.853 133.798 249.605 134.136 249.107C134.482 248.609 134.656 247.947 134.656 247.12C134.656 246.285 134.482 245.622 134.136 245.133C133.798 244.636 133.344 244.387 132.776 244.387C132.242 244.387 131.824 244.618 131.522 245.08C131.229 245.542 131.082 246.222 131.082 247.12C131.082 248.018 131.229 248.698 131.522 249.16C131.824 249.622 132.242 249.853 132.776 249.853ZM138.685 251.12V243.12H140.512V244.32H140.832C140.983 243.911 141.232 243.578 141.578 243.32C141.925 243.053 142.414 242.92 143.045 242.92C143.943 242.92 144.609 243.205 145.045 243.773C145.489 244.333 145.712 245.085 145.712 246.027V251.12H143.725V246.373C143.725 245.787 143.618 245.338 143.405 245.027C143.2 244.707 142.867 244.547 142.405 244.547C141.854 244.547 141.427 244.765 141.125 245.2C140.823 245.627 140.672 246.16 140.672 246.8V251.12H138.685ZM150.36 251.293C149.631 251.293 149.027 251.116 148.547 250.76C148.067 250.396 147.707 249.902 147.467 249.28C147.236 248.649 147.12 247.925 147.12 247.107C147.12 246.271 147.24 245.542 147.48 244.92C147.72 244.298 148.08 243.813 148.56 243.467C149.04 243.12 149.64 242.947 150.36 242.947C150.929 242.947 151.391 243.062 151.747 243.293C152.111 243.516 152.383 243.805 152.56 244.16H152.88V243.12H154.707V251.12H152.88V250.08H152.56C152.383 250.409 152.116 250.693 151.76 250.933C151.405 251.173 150.938 251.293 150.36 251.293ZM150.854 249.853C151.423 249.853 151.876 249.605 152.214 249.107C152.56 248.609 152.734 247.947 152.734 247.12C152.734 246.285 152.56 245.622 152.214 245.133C151.876 244.636 151.423 244.387 150.854 244.387C150.32 244.387 149.903 244.618 149.6 245.08C149.307 245.542 149.16 246.222 149.16 247.12C149.16 248.018 149.307 248.698 149.6 249.16C149.903 249.622 150.32 249.853 150.854 249.853ZM160.056 253.987C159.354 253.987 158.781 253.898 158.336 253.72C157.901 253.551 157.559 253.333 157.31 253.067C157.07 252.809 156.896 252.538 156.79 252.253C156.683 251.978 156.621 251.725 156.603 251.493H158.536C158.581 251.769 158.714 252.013 158.936 252.227C159.168 252.449 159.541 252.56 160.056 252.56C160.625 252.56 161.056 252.391 161.35 252.053C161.652 251.725 161.803 251.24 161.803 250.6V249.667H161.483C161.35 250.04 161.114 250.338 160.776 250.56C160.439 250.782 159.99 250.893 159.43 250.893C158.399 250.893 157.608 250.533 157.056 249.813C156.505 249.085 156.23 248.111 156.23 246.893C156.23 246.111 156.35 245.422 156.59 244.827C156.839 244.222 157.199 243.756 157.67 243.427C158.15 243.089 158.745 242.92 159.456 242.92C160.016 242.92 160.461 243.031 160.79 243.253C161.128 243.467 161.376 243.747 161.536 244.093H161.856V243.12H163.683V250.56C163.683 251.653 163.381 252.498 162.776 253.093C162.181 253.689 161.274 253.987 160.056 253.987ZM159.91 249.453C160.479 249.453 160.919 249.222 161.23 248.76C161.55 248.289 161.71 247.671 161.71 246.907C161.71 246.125 161.55 245.507 161.23 245.053C160.91 244.591 160.47 244.36 159.91 244.36C159.394 244.36 158.985 244.573 158.683 245C158.381 245.427 158.23 246.062 158.23 246.907C158.23 247.751 158.376 248.387 158.67 248.813C158.972 249.24 159.385 249.453 159.91 249.453ZM168.998 251.32C167.763 251.32 166.821 250.942 166.172 250.187C165.523 249.422 165.198 248.396 165.198 247.107C165.198 246.245 165.341 245.502 165.625 244.88C165.918 244.258 166.345 243.778 166.905 243.44C167.474 243.093 168.167 242.92 168.985 242.92C170.15 242.92 171.038 243.28 171.652 244C172.274 244.711 172.585 245.76 172.585 247.147V247.587H167.132C167.176 248.289 167.358 248.849 167.678 249.267C167.998 249.685 168.443 249.893 169.012 249.893C169.447 249.893 169.798 249.765 170.065 249.507C170.332 249.249 170.514 248.933 170.612 248.56H172.492C172.403 249.058 172.221 249.516 171.945 249.933C171.67 250.351 171.287 250.689 170.798 250.947C170.318 251.196 169.718 251.32 168.998 251.32ZM167.132 246.307H170.665C170.63 245.667 170.465 245.169 170.172 244.813C169.887 244.458 169.487 244.28 168.972 244.28C168.447 244.28 168.025 244.453 167.705 244.8C167.394 245.138 167.203 245.64 167.132 246.307ZM176.727 251.293C176.007 251.293 175.411 251.116 174.94 250.76C174.469 250.396 174.113 249.902 173.873 249.28C173.633 248.649 173.513 247.925 173.513 247.107C173.513 246.271 173.633 245.542 173.873 244.92C174.113 244.298 174.469 243.813 174.94 243.467C175.42 243.12 176.011 242.947 176.713 242.947C177.247 242.947 177.678 243.045 178.007 243.24C178.344 243.436 178.611 243.693 178.807 244.013H179.127V240.453H181.1V251.12H179.287V250.08H178.967C178.789 250.409 178.518 250.693 178.153 250.933C177.798 251.173 177.322 251.293 176.727 251.293ZM177.247 249.853C177.824 249.853 178.282 249.605 178.62 249.107C178.958 248.609 179.127 247.947 179.127 247.12C179.127 246.285 178.958 245.622 178.62 245.133C178.282 244.636 177.824 244.387 177.247 244.387C176.722 244.387 176.309 244.618 176.007 245.08C175.713 245.542 175.567 246.222 175.567 247.12C175.567 248.018 175.713 248.698 176.007 249.16C176.309 249.622 176.722 249.853 177.247 249.853ZM115.395 275.12V264.72H117.448V275.12H115.395ZM119.544 275.12V267.12H121.371V268.32H121.691C121.842 267.911 122.091 267.578 122.438 267.32C122.784 267.053 123.273 266.92 123.904 266.92C124.802 266.92 125.469 267.205 125.904 267.773C126.349 268.333 126.571 269.085 126.571 270.027V275.12H124.584V270.373C124.584 269.787 124.478 269.338 124.264 269.027C124.06 268.707 123.727 268.547 123.264 268.547C122.713 268.547 122.287 268.765 121.984 269.2C121.682 269.627 121.531 270.16 121.531 270.8V275.12H119.544ZM131.406 275.32C130.553 275.32 129.869 275.182 129.353 274.907C128.838 274.631 128.455 274.28 128.206 273.853C127.966 273.427 127.833 272.996 127.806 272.56H129.7C129.735 272.8 129.824 273.022 129.966 273.227C130.118 273.431 130.318 273.596 130.566 273.72C130.824 273.836 131.135 273.893 131.5 273.893C131.935 273.893 132.255 273.813 132.46 273.653C132.664 273.493 132.766 273.289 132.766 273.04C132.766 272.809 132.678 272.613 132.5 272.453C132.322 272.293 132.033 272.147 131.633 272.013L130.673 271.693C130.22 271.533 129.802 271.36 129.42 271.173C129.046 270.978 128.744 270.729 128.513 270.427C128.291 270.125 128.18 269.738 128.18 269.267C128.18 268.565 128.442 268 128.966 267.573C129.5 267.138 130.246 266.92 131.206 266.92C131.9 266.92 132.469 267.031 132.913 267.253C133.358 267.467 133.691 267.76 133.913 268.133C134.144 268.498 134.278 268.907 134.313 269.36H132.486C132.442 269.031 132.309 268.769 132.086 268.573C131.864 268.378 131.544 268.28 131.126 268.28C130.762 268.28 130.486 268.356 130.3 268.507C130.113 268.649 130.02 268.845 130.02 269.093C130.02 269.342 130.118 269.547 130.313 269.707C130.509 269.867 130.802 270.013 131.193 270.147L132.153 270.467C132.606 270.609 133.02 270.778 133.393 270.973C133.766 271.16 134.064 271.405 134.286 271.707C134.509 272.009 134.62 272.4 134.62 272.88C134.62 273.609 134.344 274.2 133.793 274.653C133.242 275.098 132.446 275.32 131.406 275.32ZM137.146 275.12C136.942 274.88 136.778 274.591 136.653 274.253C136.538 273.916 136.48 273.409 136.48 272.733V268.533H135.386V267.12H136.506V265.12H138.44V267.12H139.76V268.533H138.453V272.507C138.453 273.218 138.533 273.76 138.693 274.133C138.853 274.498 139.044 274.8 139.266 275.04V275.12H137.146ZM143.892 275.293C143.163 275.293 142.558 275.116 142.078 274.76C141.598 274.396 141.238 273.902 140.998 273.28C140.767 272.649 140.652 271.925 140.652 271.107C140.652 270.271 140.772 269.542 141.012 268.92C141.252 268.298 141.612 267.813 142.092 267.467C142.572 267.12 143.172 266.947 143.892 266.947C144.46 266.947 144.923 267.062 145.278 267.293C145.643 267.516 145.914 267.805 146.092 268.16H146.412V267.12H148.238V275.12H146.412V274.08H146.092C145.914 274.409 145.647 274.693 145.292 274.933C144.936 275.173 144.469 275.293 143.892 275.293ZM144.385 273.853C144.954 273.853 145.407 273.605 145.745 273.107C146.092 272.609 146.265 271.947 146.265 271.12C146.265 270.285 146.092 269.622 145.745 269.133C145.407 268.636 144.954 268.387 144.385 268.387C143.852 268.387 143.434 268.618 143.132 269.08C142.838 269.542 142.692 270.222 142.692 271.12C142.692 272.018 142.838 272.698 143.132 273.16C143.434 273.622 143.852 273.853 144.385 273.853ZM150.294 275.12V267.12H152.121V268.32H152.441C152.592 267.911 152.841 267.578 153.188 267.32C153.534 267.053 154.023 266.92 154.654 266.92C155.552 266.92 156.219 267.205 156.654 267.773C157.099 268.333 157.321 269.085 157.321 270.027V275.12H155.334V270.373C155.334 269.787 155.228 269.338 155.014 269.027C154.81 268.707 154.477 268.547 154.014 268.547C153.463 268.547 153.037 268.765 152.734 269.2C152.432 269.627 152.281 270.16 152.281 270.8V275.12H150.294ZM162.45 275.32C161.232 275.32 160.308 274.942 159.676 274.187C159.045 273.422 158.73 272.4 158.73 271.12C158.73 269.778 159.059 268.742 159.716 268.013C160.383 267.285 161.299 266.92 162.463 266.92C163.494 266.92 164.308 267.196 164.903 267.747C165.499 268.298 165.854 269.053 165.97 270.013H164.023C163.961 269.48 163.796 269.071 163.53 268.787C163.263 268.493 162.916 268.347 162.49 268.347C161.93 268.347 161.503 268.591 161.21 269.08C160.916 269.56 160.77 270.24 160.77 271.12C160.77 272 160.912 272.68 161.196 273.16C161.49 273.64 161.916 273.88 162.476 273.88C162.912 273.88 163.263 273.738 163.53 273.453C163.796 273.16 163.961 272.747 164.023 272.213H165.97C165.845 273.173 165.481 273.933 164.876 274.493C164.281 275.045 163.472 275.32 162.45 275.32ZM170.702 275.32C169.466 275.32 168.524 274.942 167.875 274.187C167.226 273.422 166.902 272.396 166.902 271.107C166.902 270.245 167.044 269.502 167.328 268.88C167.622 268.258 168.048 267.778 168.608 267.44C169.177 267.093 169.87 266.92 170.688 266.92C171.853 266.92 172.742 267.28 173.355 268C173.977 268.711 174.288 269.76 174.288 271.147V271.587H168.835C168.879 272.289 169.062 272.849 169.382 273.267C169.702 273.685 170.146 273.893 170.715 273.893C171.15 273.893 171.502 273.765 171.768 273.507C172.035 273.249 172.217 272.933 172.315 272.56H174.195C174.106 273.058 173.924 273.516 173.648 273.933C173.373 274.351 172.99 274.689 172.502 274.947C172.022 275.196 171.422 275.32 170.702 275.32ZM168.835 270.307H172.368C172.333 269.667 172.168 269.169 171.875 268.813C171.59 268.458 171.19 268.28 170.675 268.28C170.15 268.28 169.728 268.453 169.408 268.8C169.097 269.138 168.906 269.64 168.835 270.307ZM178.656 275.32C177.803 275.32 177.119 275.182 176.603 274.907C176.088 274.631 175.705 274.28 175.456 273.853C175.216 273.427 175.083 272.996 175.056 272.56H176.95C176.985 272.8 177.074 273.022 177.216 273.227C177.368 273.431 177.568 273.596 177.816 273.72C178.074 273.836 178.385 273.893 178.75 273.893C179.185 273.893 179.505 273.813 179.71 273.653C179.914 273.493 180.016 273.289 180.016 273.04C180.016 272.809 179.928 272.613 179.75 272.453C179.572 272.293 179.283 272.147 178.883 272.013L177.923 271.693C177.47 271.533 177.052 271.36 176.67 271.173C176.296 270.978 175.994 270.729 175.763 270.427C175.541 270.125 175.43 269.738 175.43 269.267C175.43 268.565 175.692 268 176.216 267.573C176.75 267.138 177.496 266.92 178.456 266.92C179.15 266.92 179.719 267.031 180.163 267.253C180.608 267.467 180.941 267.76 181.163 268.133C181.394 268.498 181.528 268.907 181.563 269.36H179.736C179.692 269.031 179.559 268.769 179.336 268.573C179.114 268.378 178.794 268.28 178.376 268.28C178.012 268.28 177.736 268.356 177.55 268.507C177.363 268.649 177.27 268.845 177.27 269.093C177.27 269.342 177.368 269.547 177.563 269.707C177.759 269.867 178.052 270.013 178.443 270.147L179.403 270.467C179.856 270.609 180.27 270.778 180.643 270.973C181.016 271.16 181.314 271.405 181.536 271.707C181.759 272.009 181.87 272.4 181.87 272.88C181.87 273.609 181.594 274.2 181.043 274.653C180.492 275.098 179.696 275.32 178.656 275.32Z" fill="#EEEEF0"/>
<rect x="597.596" y="159.852" width="107.529" height="62.9785" fill="#0F0F11"/>
<path d="M611.682 187.328V178.228H614.855C616.458 178.228 617.62 178.629 618.344 179.43C619.075 180.223 619.44 181.339 619.44 182.778C619.44 184.217 619.075 185.337 618.344 186.138C617.62 186.931 616.458 187.328 614.855 187.328H611.682ZM613.479 185.916H614.739C615.384 185.916 615.917 185.815 616.337 185.613C616.757 185.411 617.068 185.084 617.27 184.633C617.48 184.174 617.585 183.556 617.585 182.778C617.585 182 617.48 181.382 617.27 180.923C617.068 180.464 616.757 180.138 616.337 179.943C615.917 179.741 615.384 179.64 614.739 179.64H613.479V185.916ZM623.584 187.503C622.502 187.503 621.678 187.173 621.11 186.511C620.542 185.843 620.259 184.944 620.259 183.816C620.259 183.062 620.383 182.413 620.632 181.868C620.889 181.324 621.262 180.904 621.752 180.608C622.25 180.305 622.856 180.153 623.572 180.153C624.591 180.153 625.369 180.468 625.905 181.098C626.45 181.72 626.722 182.638 626.722 183.851V184.236H621.95C621.989 184.851 622.149 185.341 622.429 185.706C622.709 186.072 623.097 186.255 623.595 186.255C623.976 186.255 624.284 186.142 624.517 185.916C624.75 185.691 624.91 185.415 624.995 185.088H626.64C626.562 185.524 626.403 185.924 626.162 186.29C625.921 186.655 625.586 186.951 625.159 187.176C624.739 187.394 624.214 187.503 623.584 187.503ZM621.95 183.116H625.042C625.011 182.556 624.867 182.121 624.61 181.81C624.361 181.499 624.011 181.343 623.56 181.343C623.101 181.343 622.732 181.495 622.452 181.798C622.18 182.094 622.012 182.533 621.95 183.116ZM629.196 187.328L627.154 180.398V180.328H628.904L630.468 185.905H630.748L632.323 180.328H633.921V180.398L631.879 187.328H629.196ZM637.843 187.503C636.762 187.503 635.938 187.173 635.37 186.511C634.802 185.843 634.518 184.944 634.518 183.816C634.518 183.062 634.643 182.413 634.892 181.868C635.148 181.324 635.522 180.904 636.012 180.608C636.509 180.305 637.116 180.153 637.832 180.153C638.851 180.153 639.628 180.468 640.165 181.098C640.709 181.72 640.982 182.638 640.982 183.851V184.236H636.21C636.249 184.851 636.408 185.341 636.688 185.706C636.968 186.072 637.357 186.255 637.855 186.255C638.236 186.255 638.543 186.142 638.777 185.916C639.01 185.691 639.169 185.415 639.255 185.088H640.9C640.822 185.524 640.663 185.924 640.422 186.29C640.181 186.655 639.846 186.951 639.418 187.176C638.998 187.394 638.473 187.503 637.843 187.503ZM636.21 183.116H639.302C639.271 182.556 639.127 182.121 638.87 181.81C638.621 181.499 638.271 181.343 637.82 181.343C637.361 181.343 636.992 181.495 636.712 181.798C636.439 182.094 636.272 182.533 636.21 183.116ZM642.832 187.328C642.622 187.087 642.47 186.811 642.377 186.5C642.284 186.189 642.237 185.769 642.237 185.24V177.995H643.975V185.053C643.975 185.652 644.042 186.115 644.174 186.441C644.306 186.76 644.477 187.033 644.687 187.258V187.328H642.832ZM648.745 187.503C647.61 187.503 646.762 187.173 646.202 186.511C645.65 185.843 645.374 184.948 645.374 183.828C645.374 182.708 645.65 181.818 646.202 181.156C646.762 180.488 647.61 180.153 648.745 180.153C649.881 180.153 650.729 180.488 651.289 181.156C651.849 181.818 652.129 182.708 652.129 183.828C652.129 184.948 651.849 185.843 651.289 186.511C650.729 187.173 649.881 187.503 648.745 187.503ZM648.745 186.301C649.298 186.301 649.698 186.091 649.947 185.671C650.204 185.244 650.332 184.629 650.332 183.828C650.332 183.019 650.204 182.405 649.947 181.985C649.698 181.565 649.298 181.355 648.745 181.355C648.201 181.355 647.8 181.565 647.544 181.985C647.287 182.405 647.159 183.019 647.159 183.828C647.159 184.629 647.287 185.244 647.544 185.671C647.8 186.091 648.201 186.301 648.745 186.301ZM653.456 189.661V180.328H655.054V181.238H655.334C655.482 180.943 655.711 180.694 656.022 180.491C656.341 180.281 656.761 180.176 657.282 180.176C657.912 180.176 658.433 180.332 658.846 180.643C659.266 180.954 659.577 181.386 659.779 181.938C659.989 182.483 660.094 183.116 660.094 183.84C660.094 184.555 659.989 185.189 659.779 185.741C659.569 186.294 659.254 186.721 658.834 187.025C658.422 187.328 657.908 187.48 657.294 187.48C656.835 187.48 656.458 187.394 656.162 187.223C655.867 187.052 655.637 186.823 655.474 186.535H655.194V189.661H653.456ZM656.827 186.22C657.294 186.22 657.656 186.018 657.912 185.613C658.169 185.209 658.297 184.614 658.297 183.828C658.297 183.043 658.169 182.448 657.912 182.043C657.656 181.639 657.294 181.436 656.827 181.436C656.33 181.436 655.929 181.654 655.626 182.09C655.33 182.518 655.182 183.097 655.182 183.828C655.182 184.551 655.33 185.131 655.626 185.566C655.929 186.002 656.33 186.22 656.827 186.22ZM661.426 187.328V180.328H663.025V181.378H663.305C663.429 181.028 663.635 180.736 663.923 180.503C664.219 180.27 664.631 180.153 665.16 180.153C665.65 180.153 666.054 180.262 666.373 180.48C666.692 180.69 666.937 180.989 667.108 181.378H667.388C667.52 181.02 667.738 180.729 668.041 180.503C668.345 180.27 668.753 180.153 669.266 180.153C670.029 180.153 670.592 180.402 670.958 180.9C671.324 181.39 671.506 182.047 671.506 182.871V187.328H669.78V183.175C669.78 182.669 669.694 182.276 669.523 181.996C669.36 181.716 669.095 181.576 668.73 181.576C668.279 181.576 667.932 181.767 667.691 182.148C667.45 182.529 667.33 182.996 667.33 183.548V187.328H665.603V183.175C665.603 182.669 665.517 182.276 665.346 181.996C665.183 181.716 664.919 181.576 664.553 181.576C664.11 181.576 663.767 181.767 663.526 182.148C663.285 182.529 663.165 182.996 663.165 183.548V187.328H661.426ZM676.07 187.503C674.989 187.503 674.164 187.173 673.597 186.511C673.029 185.843 672.745 184.944 672.745 183.816C672.745 183.062 672.869 182.413 673.118 181.868C673.375 181.324 673.748 180.904 674.238 180.608C674.736 180.305 675.343 180.153 676.058 180.153C677.077 180.153 677.855 180.468 678.392 181.098C678.936 181.72 679.208 182.638 679.208 183.851V184.236H674.437C674.475 184.851 674.635 185.341 674.915 185.706C675.195 186.072 675.584 186.255 676.082 186.255C676.463 186.255 676.77 186.142 677.003 185.916C677.237 185.691 677.396 185.415 677.482 185.088H679.127C679.049 185.524 678.889 185.924 678.648 186.29C678.407 186.655 678.073 186.951 677.645 187.176C677.225 187.394 676.7 187.503 676.07 187.503ZM674.437 183.116H677.528C677.497 182.556 677.353 182.121 677.097 181.81C676.848 181.499 676.498 181.343 676.047 181.343C675.588 181.343 675.218 181.495 674.938 181.798C674.666 182.094 674.499 182.533 674.437 183.116ZM680.499 187.328V180.328H682.097V181.378H682.377C682.509 181.02 682.727 180.729 683.03 180.503C683.334 180.27 683.761 180.153 684.314 180.153C685.099 180.153 685.683 180.402 686.064 180.9C686.453 181.39 686.647 182.047 686.647 182.871V187.328H684.909V183.175C684.909 182.661 684.815 182.269 684.629 181.996C684.45 181.716 684.158 181.576 683.754 181.576C683.271 181.576 682.898 181.767 682.634 182.148C682.369 182.521 682.237 182.988 682.237 183.548V187.328H680.499ZM689.338 187.328C689.159 187.118 689.015 186.865 688.906 186.57C688.805 186.274 688.755 185.831 688.755 185.24V181.565H687.798V180.328H688.778V178.578H690.47V180.328H691.625V181.565H690.481V185.041C690.481 185.664 690.551 186.138 690.691 186.465C690.831 186.784 690.999 187.048 691.193 187.258V187.328H689.338ZM625.513 207.503C624.214 207.503 623.203 207.087 622.479 206.255C621.756 205.423 621.394 204.264 621.394 202.778C621.394 201.3 621.752 200.145 622.468 199.313C623.183 198.473 624.198 198.053 625.513 198.053C626.291 198.053 626.959 198.201 627.519 198.496C628.079 198.784 628.519 199.189 628.838 199.71C629.157 200.231 629.343 200.834 629.398 201.518H627.601C627.539 200.865 627.321 200.351 626.948 199.978C626.582 199.605 626.104 199.418 625.513 199.418C624.766 199.418 624.202 199.714 623.821 200.305C623.44 200.888 623.249 201.716 623.249 202.79C623.249 203.894 623.444 204.73 623.833 205.298C624.229 205.858 624.786 206.138 625.501 206.138C626.123 206.138 626.613 205.944 626.971 205.555C627.337 205.166 627.547 204.66 627.601 204.038H629.398C629.343 204.715 629.157 205.314 628.838 205.835C628.519 206.356 628.079 206.764 627.519 207.06C626.967 207.355 626.298 207.503 625.513 207.503ZM633.535 207.503C632.4 207.503 631.552 207.173 630.992 206.511C630.44 205.843 630.164 204.948 630.164 203.828C630.164 202.708 630.44 201.818 630.992 201.156C631.552 200.488 632.4 200.153 633.535 200.153C634.671 200.153 635.519 200.488 636.079 201.156C636.639 201.818 636.919 202.708 636.919 203.828C636.919 204.948 636.639 205.843 636.079 206.511C635.519 207.173 634.671 207.503 633.535 207.503ZM633.535 206.301C634.088 206.301 634.488 206.091 634.737 205.671C634.994 205.244 635.122 204.629 635.122 203.828C635.122 203.019 634.994 202.405 634.737 201.985C634.488 201.565 634.088 201.355 633.535 201.355C632.991 201.355 632.59 201.565 632.334 201.985C632.077 202.405 631.949 203.019 631.949 203.828C631.949 204.629 632.077 205.244 632.334 205.671C632.59 206.091 632.991 206.301 633.535 206.301ZM638.246 207.328V200.328H639.844V201.378H640.124C640.256 201.02 640.474 200.729 640.777 200.503C641.081 200.27 641.508 200.153 642.061 200.153C642.846 200.153 643.43 200.402 643.811 200.9C644.2 201.39 644.394 202.047 644.394 202.871V207.328H642.656V203.175C642.656 202.661 642.562 202.269 642.376 201.996C642.197 201.716 641.905 201.576 641.501 201.576C641.018 201.576 640.645 201.767 640.381 202.148C640.116 202.521 639.984 202.988 639.984 203.548V207.328H638.246ZM647.085 207.328C646.906 207.118 646.762 206.865 646.653 206.57C646.552 206.274 646.502 205.831 646.502 205.24V201.565H645.545V200.328H646.525V198.578H648.217V200.328H649.372V201.565H648.228V205.041C648.228 205.664 648.298 206.138 648.438 206.465C648.578 206.784 648.746 207.048 648.94 207.258V207.328H647.085ZM652.987 207.48C652.349 207.48 651.82 207.324 651.4 207.013C650.98 206.694 650.665 206.263 650.455 205.718C650.253 205.166 650.152 204.532 650.152 203.816C650.152 203.085 650.257 202.448 650.467 201.903C650.677 201.359 650.992 200.935 651.412 200.631C651.832 200.328 652.357 200.176 652.987 200.176C653.485 200.176 653.889 200.278 654.2 200.48C654.519 200.674 654.757 200.927 654.912 201.238H655.192V200.328H656.79V207.328H655.192V206.418H654.912C654.757 206.706 654.523 206.955 654.212 207.165C653.901 207.375 653.493 207.48 652.987 207.48ZM653.419 206.22C653.917 206.22 654.313 206.002 654.609 205.566C654.912 205.131 655.064 204.551 655.064 203.828C655.064 203.097 654.912 202.518 654.609 202.09C654.313 201.654 653.917 201.436 653.419 201.436C652.952 201.436 652.587 201.639 652.322 202.043C652.065 202.448 651.937 203.043 651.937 203.828C651.937 204.614 652.065 205.209 652.322 205.613C652.587 206.018 652.952 206.22 653.419 206.22ZM658.589 207.328V200.328H660.328V207.328H658.589ZM659.453 199.476C659.142 199.476 658.904 199.395 658.741 199.231C658.578 199.06 658.496 198.843 658.496 198.578C658.496 198.306 658.578 198.088 658.741 197.925C658.904 197.761 659.142 197.68 659.453 197.68C659.764 197.68 660.001 197.761 660.164 197.925C660.328 198.088 660.409 198.306 660.409 198.578C660.409 198.843 660.328 199.06 660.164 199.231C660.001 199.395 659.764 199.476 659.453 199.476ZM662.13 207.328V200.328H663.729V201.378H664.009C664.141 201.02 664.359 200.729 664.662 200.503C664.965 200.27 665.393 200.153 665.945 200.153C666.731 200.153 667.314 200.402 667.695 200.9C668.084 201.39 668.279 202.047 668.279 202.871V207.328H666.54V203.175C666.54 202.661 666.447 202.269 666.26 201.996C666.082 201.716 665.79 201.576 665.385 201.576C664.903 201.576 664.53 201.767 664.265 202.148C664.001 202.521 663.869 202.988 663.869 203.548V207.328H662.13ZM672.836 207.503C671.755 207.503 670.931 207.173 670.363 206.511C669.795 205.843 669.511 204.944 669.511 203.816C669.511 203.062 669.636 202.413 669.885 201.868C670.141 201.324 670.515 200.904 671.005 200.608C671.503 200.305 672.109 200.153 672.825 200.153C673.844 200.153 674.621 200.468 675.158 201.098C675.703 201.72 675.975 202.638 675.975 203.851V204.236H671.203C671.242 204.851 671.401 205.341 671.681 205.706C671.961 206.072 672.35 206.255 672.848 206.255C673.229 206.255 673.536 206.142 673.77 205.916C674.003 205.691 674.163 205.415 674.248 205.088H675.893C675.815 205.524 675.656 205.924 675.415 206.29C675.174 206.655 674.839 206.951 674.411 207.176C673.991 207.394 673.466 207.503 672.836 207.503ZM671.203 203.116H674.295C674.264 202.556 674.12 202.121 673.863 201.81C673.614 201.499 673.264 201.343 672.813 201.343C672.354 201.343 671.985 201.495 671.705 201.798C671.433 202.094 671.265 202.533 671.203 203.116ZM677.254 207.328V200.328H678.829V201.588H679.109C679.155 201.363 679.241 201.149 679.365 200.946C679.49 200.744 679.684 200.581 679.949 200.456C680.213 200.324 680.571 200.258 681.022 200.258H681.36V201.833H680.882C680.213 201.833 679.731 202.004 679.435 202.346C679.14 202.689 678.992 203.206 678.992 203.898V207.328H677.254Z" fill="#EEEEF0"/>
<rect x="0.876953" y="33.4355" width="106.419" height="62.8221" fill="#0F0F11"/>
<path d="M25.8562 58.8467V48.4467H32.8429V50.0733H27.8829V52.54H31.7229V54.06H27.8829V57.2067H32.9229V58.8467H25.8562ZM33.7285 58.8467V58.7667L36.1952 54.66L33.9952 50.9267V50.8467H36.1418L37.5152 53.3267H37.8085L39.1418 50.8467H41.1152V50.9267L39.0218 54.62L41.4485 58.7667V58.8467H39.2618L37.6485 55.9267H37.3552L35.7685 58.8467H33.7285ZM43.7777 58.8467C43.5732 58.6067 43.4088 58.3178 43.2843 57.98C43.1688 57.6422 43.111 57.1356 43.111 56.46V52.26H42.0177V50.8467H43.1377V48.8467H45.071V50.8467H46.391V52.26H45.0843V56.2333C45.0843 56.9445 45.1643 57.4867 45.3243 57.86C45.4843 58.2245 45.6755 58.5267 45.8977 58.7667V58.8467H43.7777ZM51.0829 59.0467C49.8473 59.0467 48.9051 58.6689 48.2562 57.9133C47.6073 57.1489 47.2829 56.1222 47.2829 54.8333C47.2829 53.9711 47.4251 53.2289 47.7096 52.6067C48.0029 51.9845 48.4296 51.5045 48.9896 51.1667C49.5584 50.82 50.2518 50.6467 51.0696 50.6467C52.234 50.6467 53.1229 51.0067 53.7362 51.7267C54.3584 52.4378 54.6696 53.4867 54.6696 54.8733V55.3133H49.2162C49.2607 56.0156 49.4429 56.5756 49.7629 56.9933C50.0829 57.4111 50.5273 57.62 51.0962 57.62C51.5318 57.62 51.8829 57.4911 52.1496 57.2333C52.4162 56.9756 52.5984 56.66 52.6962 56.2867H54.5762C54.4873 56.7845 54.3051 57.2422 54.0296 57.66C53.754 58.0778 53.3718 58.4156 52.8829 58.6733C52.4029 58.9222 51.8029 59.0467 51.0829 59.0467ZM49.2162 54.0333H52.7496C52.714 53.3933 52.5496 52.8956 52.2562 52.54C51.9718 52.1845 51.5718 52.0067 51.0562 52.0067C50.5318 52.0067 50.1096 52.18 49.7896 52.5267C49.4784 52.8645 49.2873 53.3667 49.2162 54.0333ZM56.131 58.8467V50.8467H57.931V52.2867H58.251C58.3043 52.0289 58.4021 51.7845 58.5443 51.5533C58.6866 51.3222 58.9088 51.1356 59.211 50.9933C59.5132 50.8422 59.9221 50.7667 60.4377 50.7667H60.8243V52.5667H60.2777C59.5132 52.5667 58.9621 52.7622 58.6243 53.1533C58.2866 53.5445 58.1177 54.1356 58.1177 54.9267V58.8467H56.131ZM62.2537 58.8467V50.8467H64.0804V52.0467H64.4004C64.5515 51.6378 64.8004 51.3045 65.1471 51.0467C65.4937 50.78 65.9826 50.6467 66.6137 50.6467C67.5115 50.6467 68.1782 50.9311 68.6137 51.5C69.0582 52.06 69.2804 52.8111 69.2804 53.7533V58.8467H67.2937V54.1C67.2937 53.5133 67.1871 53.0645 66.9737 52.7533C66.7693 52.4333 66.4359 52.2733 65.9737 52.2733C65.4226 52.2733 64.9959 52.4911 64.6937 52.9267C64.3915 53.3533 64.2404 53.8867 64.2404 54.5267V58.8467H62.2537ZM73.9291 59.02C73.2002 59.02 72.5958 58.8422 72.1158 58.4867C71.6358 58.1222 71.2758 57.6289 71.0358 57.0067C70.8047 56.3756 70.6891 55.6511 70.6891 54.8333C70.6891 53.9978 70.8091 53.2689 71.0491 52.6467C71.2891 52.0245 71.6491 51.54 72.1291 51.1933C72.6091 50.8467 73.2091 50.6733 73.9291 50.6733C74.498 50.6733 74.9602 50.7889 75.3158 51.02C75.6802 51.2422 75.9514 51.5311 76.1291 51.8867H76.4491V50.8467H78.2758V58.8467H76.4491V57.8067H76.1291C75.9514 58.1356 75.6847 58.42 75.3291 58.66C74.9736 58.9 74.5069 59.02 73.9291 59.02ZM74.4225 57.58C74.9914 57.58 75.4447 57.3311 75.7825 56.8333C76.1291 56.3356 76.3025 55.6733 76.3025 54.8467C76.3025 54.0111 76.1291 53.3489 75.7825 52.86C75.4447 52.3622 74.9914 52.1133 74.4225 52.1133C73.8891 52.1133 73.4714 52.3445 73.1691 52.8067C72.8758 53.2689 72.7291 53.9489 72.7291 54.8467C72.7291 55.7445 72.8758 56.4245 73.1691 56.8867C73.4714 57.3489 73.8891 57.58 74.4225 57.58ZM80.9718 58.8467C80.7318 58.5711 80.5585 58.2556 80.4518 57.9C80.3452 57.5445 80.2918 57.0645 80.2918 56.46V48.18H82.2785V56.2467C82.2785 56.9311 82.3541 57.46 82.5052 57.8333C82.6563 58.1978 82.8518 58.5089 83.0918 58.7667V58.8467H80.9718ZM15.0593 82.8467V72.4467H17.0593V76.54H17.8593L20.9793 72.4467H23.246V72.5267L19.5527 77.2733L23.7793 82.7667V82.8467H21.326L17.8593 78.1933H17.0593V82.8467H15.0593ZM26.981 83.0467C26.0743 83.0467 25.3988 82.7667 24.9543 82.2067C24.5099 81.6378 24.2877 80.8822 24.2877 79.94V74.8467H26.2743V79.5933C26.2743 80.1711 26.3766 80.62 26.581 80.94C26.7943 81.26 27.1277 81.42 27.581 81.42C28.141 81.42 28.5721 81.2022 28.8743 80.7667C29.1766 80.3311 29.3277 79.7978 29.3277 79.1667V74.8467H31.3143V82.8467H29.5277V81.6467H29.2077C29.0743 82.0556 28.8255 82.3933 28.461 82.66C28.1055 82.9178 27.6121 83.0467 26.981 83.0467ZM37.7364 83.02C37.1409 83.02 36.6609 82.9 36.2964 82.66C35.9409 82.42 35.6786 82.1356 35.5098 81.8067H35.1898V82.8467H33.3631V72.18H35.3498V75.74H35.6698C35.8564 75.42 36.1186 75.1622 36.4564 74.9667C36.7942 74.7711 37.2253 74.6733 37.7498 74.6733C38.452 74.6733 39.0386 74.8467 39.5098 75.1933C39.9898 75.54 40.3498 76.0245 40.5898 76.6467C40.8298 77.2689 40.9498 77.9978 40.9498 78.8333C40.9498 79.6511 40.8298 80.3756 40.5898 81.0067C40.3586 81.6289 40.0031 82.1222 39.5231 82.4867C39.052 82.8422 38.4564 83.02 37.7364 83.02ZM37.2164 81.58C37.7498 81.58 38.1631 81.3489 38.4564 80.8867C38.7498 80.4245 38.8964 79.7445 38.8964 78.8467C38.8964 77.9489 38.7498 77.2689 38.4564 76.8067C38.1631 76.3445 37.7498 76.1133 37.2164 76.1133C36.6475 76.1133 36.1898 76.3622 35.8431 76.86C35.5053 77.3489 35.3364 78.0111 35.3364 78.8467C35.3364 79.6733 35.5053 80.3356 35.8431 80.8333C36.1898 81.3311 36.6475 81.58 37.2164 81.58ZM45.7391 83.0467C44.5036 83.0467 43.5614 82.6689 42.9125 81.9133C42.2636 81.1489 41.9391 80.1222 41.9391 78.8333C41.9391 77.9711 42.0814 77.2289 42.3658 76.6067C42.6591 75.9845 43.0858 75.5045 43.6458 75.1667C44.2147 74.82 44.908 74.6467 45.7258 74.6467C46.8902 74.6467 47.7791 75.0067 48.3925 75.7267C49.0147 76.4378 49.3258 77.4867 49.3258 78.8733V79.3133H43.8725C43.9169 80.0156 44.0991 80.5756 44.4191 80.9933C44.7391 81.4111 45.1836 81.62 45.7525 81.62C46.188 81.62 46.5391 81.4911 46.8058 81.2333C47.0725 80.9756 47.2547 80.66 47.3525 80.2867H49.2325C49.1436 80.7845 48.9614 81.2422 48.6858 81.66C48.4102 82.0778 48.028 82.4156 47.5391 82.6733C47.0591 82.9222 46.4591 83.0467 45.7391 83.0467ZM43.8725 78.0333H47.4058C47.3702 77.3933 47.2058 76.8956 46.9125 76.54C46.628 76.1845 46.228 76.0067 45.7125 76.0067C45.188 76.0067 44.7658 76.18 44.4458 76.5267C44.1347 76.8645 43.9436 77.3667 43.8725 78.0333ZM50.7873 82.8467V74.8467H52.5873V76.2867H52.9073C52.9606 76.0289 53.0584 75.7845 53.2006 75.5533C53.3428 75.3222 53.565 75.1356 53.8673 74.9933C54.1695 74.8422 54.5784 74.7667 55.0939 74.7667H55.4806V76.5667H54.9339C54.1695 76.5667 53.6184 76.7622 53.2806 77.1533C52.9428 77.5445 52.7739 78.1356 52.7739 78.9267V82.8467H50.7873ZM56.91 82.8467V74.8467H58.7366V76.0467H59.0566C59.2077 75.6378 59.4566 75.3045 59.8033 75.0467C60.15 74.78 60.6389 74.6467 61.27 74.6467C62.1677 74.6467 62.8344 74.9311 63.27 75.5C63.7144 76.06 63.9366 76.8111 63.9366 77.7533V82.8467H61.95V78.1C61.95 77.5133 61.8433 77.0645 61.63 76.7533C61.4255 76.4333 61.0922 76.2733 60.63 76.2733C60.0789 76.2733 59.6522 76.4911 59.35 76.9267C59.0477 77.3533 58.8966 77.8867 58.8966 78.5267V82.8467H56.91ZM69.1454 83.0467C67.9098 83.0467 66.9676 82.6689 66.3187 81.9133C65.6698 81.1489 65.3454 80.1222 65.3454 78.8333C65.3454 77.9711 65.4876 77.2289 65.7721 76.6067C66.0654 75.9845 66.4921 75.5045 67.0521 75.1667C67.6209 74.82 68.3143 74.6467 69.1321 74.6467C70.2965 74.6467 71.1854 75.0067 71.7987 75.7267C72.4209 76.4378 72.7321 77.4867 72.7321 78.8733V79.3133H67.2787C67.3232 80.0156 67.5054 80.5756 67.8254 80.9933C68.1454 81.4111 68.5898 81.62 69.1587 81.62C69.5943 81.62 69.9454 81.4911 70.2121 81.2333C70.4787 80.9756 70.6609 80.66 70.7587 80.2867H72.6387C72.5498 80.7845 72.3676 81.2422 72.0921 81.66C71.8165 82.0778 71.4343 82.4156 70.9454 82.6733C70.4654 82.9222 69.8654 83.0467 69.1454 83.0467ZM67.2787 78.0333H70.8121C70.7765 77.3933 70.6121 76.8956 70.3187 76.54C70.0343 76.1845 69.6343 76.0067 69.1187 76.0067C68.5943 76.0067 68.1721 76.18 67.8521 76.5267C67.5409 76.8645 67.3498 77.3667 67.2787 78.0333ZM75.3402 82.8467C75.1357 82.6067 74.9713 82.3178 74.8468 81.98C74.7313 81.6422 74.6735 81.1356 74.6735 80.46V76.26H73.5802V74.8467H74.7002V72.8467H76.6335V74.8467H77.9535V76.26H76.6468V80.2333C76.6468 80.9445 76.7268 81.4867 76.8868 81.86C77.0468 82.2245 77.238 82.5267 77.4602 82.7667V82.8467H75.3402ZM82.6454 83.0467C81.4098 83.0467 80.4676 82.6689 79.8187 81.9133C79.1698 81.1489 78.8454 80.1222 78.8454 78.8333C78.8454 77.9711 78.9876 77.2289 79.2721 76.6067C79.5654 75.9845 79.9921 75.5045 80.5521 75.1667C81.1209 74.82 81.8143 74.6467 82.6321 74.6467C83.7965 74.6467 84.6854 75.0067 85.2987 75.7267C85.9209 76.4378 86.2321 77.4867 86.2321 78.8733V79.3133H80.7787C80.8232 80.0156 81.0054 80.5756 81.3254 80.9933C81.6454 81.4111 82.0898 81.62 82.6587 81.62C83.0943 81.62 83.4454 81.4911 83.7121 81.2333C83.9787 80.9756 84.1609 80.66 84.2587 80.2867H86.1387C86.0498 80.7845 85.8676 81.2422 85.5921 81.66C85.3165 82.0778 84.9343 82.4156 84.4454 82.6733C83.9654 82.9222 83.3654 83.0467 82.6454 83.0467ZM80.7787 78.0333H84.3121C84.2765 77.3933 84.1121 76.8956 83.8187 76.54C83.5343 76.1845 83.1343 76.0067 82.6187 76.0067C82.0943 76.0067 81.6721 76.18 81.3521 76.5267C81.0409 76.8645 80.8498 77.3667 80.7787 78.0333ZM90.6002 83.0467C89.7468 83.0467 89.0624 82.9089 88.5468 82.6333C88.0313 82.3578 87.6491 82.0067 87.4002 81.58C87.1602 81.1533 87.0268 80.7222 87.0002 80.2867H88.8935C88.9291 80.5267 89.018 80.7489 89.1602 80.9533C89.3113 81.1578 89.5113 81.3222 89.7602 81.4467C90.018 81.5622 90.3291 81.62 90.6935 81.62C91.1291 81.62 91.4491 81.54 91.6535 81.38C91.858 81.22 91.9602 81.0156 91.9602 80.7667C91.9602 80.5356 91.8713 80.34 91.6935 80.18C91.5157 80.02 91.2268 79.8733 90.8268 79.74L89.8668 79.42C89.4135 79.26 88.9957 79.0867 88.6135 78.9C88.2402 78.7045 87.938 78.4556 87.7068 78.1533C87.4846 77.8511 87.3735 77.4645 87.3735 76.9933C87.3735 76.2911 87.6357 75.7267 88.1602 75.3C88.6935 74.8645 89.4402 74.6467 90.4002 74.6467C91.0935 74.6467 91.6624 74.7578 92.1068 74.98C92.5513 75.1933 92.8846 75.4867 93.1068 75.86C93.338 76.2245 93.4713 76.6333 93.5068 77.0867H91.6802C91.6357 76.7578 91.5024 76.4956 91.2802 76.3C91.058 76.1045 90.738 76.0067 90.3202 76.0067C89.9557 76.0067 89.6802 76.0822 89.4935 76.2333C89.3068 76.3756 89.2135 76.5711 89.2135 76.82C89.2135 77.0689 89.3113 77.2733 89.5068 77.4333C89.7024 77.5933 89.9957 77.74 90.3868 77.8733L91.3468 78.1933C91.8002 78.3356 92.2135 78.5045 92.5868 78.7C92.9602 78.8867 93.258 79.1311 93.4802 79.4333C93.7024 79.7356 93.8135 80.1267 93.8135 80.6067C93.8135 81.3356 93.538 81.9267 92.9868 82.38C92.4357 82.8245 91.6402 83.0467 90.6002 83.0467Z" fill="#EEEEF0"/>
<rect x="0.876953" y="161.341" width="88.5308" height="62.9153" fill="#0F0F11"/>
<path d="M16.9129 186.799V176.399H23.8995V178.025H18.9395V180.492H22.7795V182.012H18.9395V185.159H23.9795V186.799H16.9129ZM24.7851 186.799V186.719L27.2518 182.612L25.0518 178.879V178.799H27.1985L28.5718 181.279H28.8651L30.1985 178.799H32.1718V178.879L30.0785 182.572L32.5051 186.719V186.799H30.3185L28.7051 183.879H28.4118L26.8251 186.799H24.7851ZM34.8343 186.799C34.6299 186.559 34.4654 186.27 34.341 185.932C34.2254 185.594 34.1676 185.088 34.1676 184.412V180.212H33.0743V178.799H34.1943V176.799H36.1276V178.799H37.4476V180.212H36.141V184.185C36.141 184.897 36.221 185.439 36.381 185.812C36.541 186.177 36.7321 186.479 36.9543 186.719V186.799H34.8343ZM42.1395 186.999C40.904 186.999 39.9617 186.621 39.3129 185.865C38.664 185.101 38.3395 184.074 38.3395 182.785C38.3395 181.923 38.4817 181.181 38.7662 180.559C39.0595 179.937 39.4862 179.457 40.0462 179.119C40.6151 178.772 41.3084 178.599 42.1262 178.599C43.2906 178.599 44.1795 178.959 44.7929 179.679C45.4151 180.39 45.7262 181.439 45.7262 182.825V183.265H40.2729C40.3173 183.968 40.4995 184.528 40.8195 184.945C41.1395 185.363 41.584 185.572 42.1529 185.572C42.5884 185.572 42.9395 185.443 43.2062 185.185C43.4729 184.928 43.6551 184.612 43.7529 184.239H45.6329C45.544 184.737 45.3617 185.194 45.0862 185.612C44.8106 186.03 44.4284 186.368 43.9395 186.625C43.4595 186.874 42.8595 186.999 42.1395 186.999ZM40.2729 181.985H43.8062C43.7706 181.345 43.6062 180.848 43.3129 180.492C43.0284 180.137 42.6284 179.959 42.1129 179.959C41.5884 179.959 41.1662 180.132 40.8462 180.479C40.5351 180.817 40.344 181.319 40.2729 181.985ZM47.1876 186.799V178.799H48.9876V180.239H49.3076C49.361 179.981 49.4588 179.737 49.601 179.505C49.7432 179.274 49.9654 179.088 50.2676 178.945C50.5699 178.794 50.9788 178.719 51.4943 178.719H51.881V180.519H51.3343C50.5699 180.519 50.0188 180.714 49.681 181.105C49.3432 181.497 49.1743 182.088 49.1743 182.879V186.799H47.1876ZM53.3104 186.799V178.799H55.137V179.999H55.457C55.6081 179.59 55.857 179.257 56.2037 178.999C56.5504 178.732 57.0392 178.599 57.6704 178.599C58.5681 178.599 59.2348 178.883 59.6704 179.452C60.1148 180.012 60.337 180.763 60.337 181.705V186.799H58.3504V182.052C58.3504 181.465 58.2437 181.017 58.0304 180.705C57.8259 180.385 57.4926 180.225 57.0304 180.225C56.4792 180.225 56.0526 180.443 55.7504 180.879C55.4481 181.305 55.297 181.839 55.297 182.479V186.799H53.3104ZM64.9858 186.972C64.2569 186.972 63.6524 186.794 63.1724 186.439C62.6924 186.074 62.3324 185.581 62.0924 184.959C61.8613 184.328 61.7458 183.603 61.7458 182.785C61.7458 181.95 61.8658 181.221 62.1058 180.599C62.3458 179.977 62.7058 179.492 63.1858 179.145C63.6658 178.799 64.2658 178.625 64.9858 178.625C65.5547 178.625 66.0169 178.741 66.3724 178.972C66.7369 179.194 67.008 179.483 67.1858 179.839H67.5058V178.799H69.3324V186.799H67.5058V185.759H67.1858C67.008 186.088 66.7413 186.372 66.3858 186.612C66.0302 186.852 65.5636 186.972 64.9858 186.972ZM65.4791 185.532C66.048 185.532 66.5013 185.283 66.8391 184.785C67.1858 184.288 67.3591 183.625 67.3591 182.799C67.3591 181.963 67.1858 181.301 66.8391 180.812C66.5013 180.314 66.048 180.065 65.4791 180.065C64.9458 180.065 64.528 180.297 64.2258 180.759C63.9324 181.221 63.7858 181.901 63.7858 182.799C63.7858 183.697 63.9324 184.377 64.2258 184.839C64.528 185.301 64.9458 185.532 65.4791 185.532ZM72.0285 186.799C71.7885 186.523 71.6151 186.208 71.5085 185.852C71.4018 185.497 71.3485 185.017 71.3485 184.412V176.132H73.3351V184.199C73.3351 184.883 73.4107 185.412 73.5618 185.785C73.7129 186.15 73.9085 186.461 74.1485 186.719V186.799H72.0285ZM12.2621 210.799V200.399H14.3155V210.799H12.2621ZM16.4119 210.799V202.799H18.2386V203.999H18.5586C18.7097 203.59 18.9586 203.257 19.3053 202.999C19.6519 202.732 20.1408 202.599 20.7719 202.599C21.6697 202.599 22.3364 202.883 22.7719 203.452C23.2164 204.012 23.4386 204.763 23.4386 205.705V210.799H21.4519V206.052C21.4519 205.465 21.3453 205.017 21.1319 204.705C20.9275 204.385 20.5941 204.225 20.1319 204.225C19.5808 204.225 19.1541 204.443 18.8519 204.879C18.5497 205.305 18.3986 205.839 18.3986 206.479V210.799H16.4119ZM28.274 210.999C27.4207 210.999 26.7362 210.861 26.2207 210.585C25.7051 210.31 25.3229 209.959 25.074 209.532C24.834 209.105 24.7007 208.674 24.674 208.239H26.5673C26.6029 208.479 26.6918 208.701 26.834 208.905C26.9851 209.11 27.1851 209.274 27.434 209.399C27.6918 209.514 28.0029 209.572 28.3673 209.572C28.8029 209.572 29.1229 209.492 29.3273 209.332C29.5318 209.172 29.634 208.968 29.634 208.719C29.634 208.488 29.5451 208.292 29.3673 208.132C29.1896 207.972 28.9007 207.825 28.5007 207.692L27.5407 207.372C27.0873 207.212 26.6696 207.039 26.2873 206.852C25.914 206.657 25.6118 206.408 25.3807 206.105C25.1584 205.803 25.0473 205.417 25.0473 204.945C25.0473 204.243 25.3096 203.679 25.834 203.252C26.3673 202.817 27.114 202.599 28.074 202.599C28.7673 202.599 29.3362 202.71 29.7807 202.932C30.2251 203.145 30.5584 203.439 30.7807 203.812C31.0118 204.177 31.1451 204.585 31.1807 205.039H29.354C29.3096 204.71 29.1762 204.448 28.954 204.252C28.7318 204.057 28.4118 203.959 27.994 203.959C27.6296 203.959 27.354 204.034 27.1673 204.185C26.9807 204.328 26.8873 204.523 26.8873 204.772C26.8873 205.021 26.9851 205.225 27.1807 205.385C27.3762 205.545 27.6696 205.692 28.0607 205.825L29.0207 206.145C29.474 206.288 29.8873 206.457 30.2607 206.652C30.634 206.839 30.9318 207.083 31.154 207.385C31.3762 207.688 31.4873 208.079 31.4873 208.559C31.4873 209.288 31.2118 209.879 30.6607 210.332C30.1096 210.777 29.314 210.999 28.274 210.999ZM34.014 210.799C33.8096 210.559 33.6451 210.27 33.5207 209.932C33.4051 209.594 33.3473 209.088 33.3473 208.412V204.212H32.254V202.799H33.374V200.799H35.3073V202.799H36.6273V204.212H35.3207V208.185C35.3207 208.897 35.4007 209.439 35.5607 209.812C35.7207 210.177 35.9118 210.479 36.134 210.719V210.799H34.014ZM40.7592 210.972C40.0303 210.972 39.4259 210.794 38.9459 210.439C38.4659 210.074 38.1059 209.581 37.8659 208.959C37.6348 208.328 37.5192 207.603 37.5192 206.785C37.5192 205.95 37.6392 205.221 37.8792 204.599C38.1192 203.977 38.4792 203.492 38.9592 203.145C39.4392 202.799 40.0392 202.625 40.7592 202.625C41.3281 202.625 41.7903 202.741 42.1459 202.972C42.5103 203.194 42.7814 203.483 42.9592 203.839H43.2792V202.799H45.1059V210.799H43.2792V209.759H42.9592C42.7814 210.088 42.5148 210.372 42.1592 210.612C41.8037 210.852 41.337 210.972 40.7592 210.972ZM41.2525 209.532C41.8214 209.532 42.2748 209.283 42.6125 208.785C42.9592 208.288 43.1325 207.625 43.1325 206.799C43.1325 205.963 42.9592 205.301 42.6125 204.812C42.2748 204.314 41.8214 204.065 41.2525 204.065C40.7192 204.065 40.3014 204.297 39.9992 204.759C39.7059 205.221 39.5592 205.901 39.5592 206.799C39.5592 207.697 39.7059 208.377 39.9992 208.839C40.3014 209.301 40.7192 209.532 41.2525 209.532ZM47.1619 210.799V202.799H48.9886V203.999H49.3086C49.4597 203.59 49.7086 203.257 50.0553 202.999C50.4019 202.732 50.8908 202.599 51.5219 202.599C52.4197 202.599 53.0864 202.883 53.5219 203.452C53.9664 204.012 54.1886 204.763 54.1886 205.705V210.799H52.2019V206.052C52.2019 205.465 52.0953 205.017 51.8819 204.705C51.6775 204.385 51.3441 204.225 50.8819 204.225C50.3308 204.225 49.9041 204.443 49.6019 204.879C49.2997 205.305 49.1486 205.839 49.1486 206.479V210.799H47.1619ZM59.3173 210.999C58.0996 210.999 57.1751 210.621 56.544 209.865C55.9129 209.101 55.5973 208.079 55.5973 206.799C55.5973 205.457 55.9262 204.421 56.584 203.692C57.2507 202.963 58.1662 202.599 59.3307 202.599C60.3618 202.599 61.1751 202.874 61.7707 203.425C62.3662 203.977 62.7218 204.732 62.8373 205.692H60.8907C60.8284 205.159 60.664 204.75 60.3973 204.465C60.1307 204.172 59.784 204.025 59.3573 204.025C58.7973 204.025 58.3707 204.27 58.0773 204.759C57.784 205.239 57.6373 205.919 57.6373 206.799C57.6373 207.679 57.7796 208.359 58.064 208.839C58.3573 209.319 58.784 209.559 59.344 209.559C59.7796 209.559 60.1307 209.417 60.3973 209.132C60.664 208.839 60.8284 208.425 60.8907 207.892H62.8373C62.7129 208.852 62.3484 209.612 61.744 210.172C61.1484 210.723 60.3396 210.999 59.3173 210.999ZM67.5692 210.999C66.3337 210.999 65.3914 210.621 64.7425 209.865C64.0937 209.101 63.7692 208.074 63.7692 206.785C63.7692 205.923 63.9114 205.181 64.1959 204.559C64.4892 203.937 64.9159 203.457 65.4759 203.119C66.0448 202.772 66.7381 202.599 67.5559 202.599C68.7203 202.599 69.6092 202.959 70.2225 203.679C70.8448 204.39 71.1559 205.439 71.1559 206.825V207.265H65.7025C65.747 207.968 65.9292 208.528 66.2492 208.945C66.5692 209.363 67.0137 209.572 67.5825 209.572C68.0181 209.572 68.3692 209.443 68.6359 209.185C68.9025 208.928 69.0848 208.612 69.1825 208.239H71.0625C70.9737 208.737 70.7914 209.194 70.5159 209.612C70.2403 210.03 69.8581 210.368 69.3692 210.625C68.8892 210.874 68.2892 210.999 67.5692 210.999ZM65.7025 205.985H69.2359C69.2003 205.345 69.0359 204.848 68.7425 204.492C68.4581 204.137 68.0581 203.959 67.5425 203.959C67.0181 203.959 66.5959 204.132 66.2759 204.479C65.9648 204.817 65.7737 205.319 65.7025 205.985ZM75.524 210.999C74.6707 210.999 73.9862 210.861 73.4707 210.585C72.9551 210.31 72.5729 209.959 72.324 209.532C72.084 209.105 71.9507 208.674 71.924 208.239H73.8173C73.8529 208.479 73.9418 208.701 74.084 208.905C74.2351 209.11 74.4351 209.274 74.684 209.399C74.9418 209.514 75.2529 209.572 75.6173 209.572C76.0529 209.572 76.3729 209.492 76.5773 209.332C76.7818 209.172 76.884 208.968 76.884 208.719C76.884 208.488 76.7951 208.292 76.6173 208.132C76.4396 207.972 76.1507 207.825 75.7507 207.692L74.7907 207.372C74.3373 207.212 73.9196 207.039 73.5373 206.852C73.164 206.657 72.8618 206.408 72.6307 206.105C72.4084 205.803 72.2973 205.417 72.2973 204.945C72.2973 204.243 72.5596 203.679 73.084 203.252C73.6173 202.817 74.364 202.599 75.324 202.599C76.0173 202.599 76.5862 202.71 77.0307 202.932C77.4751 203.145 77.8084 203.439 78.0307 203.812C78.2618 204.177 78.3951 204.585 78.4307 205.039H76.604C76.5596 204.71 76.4262 204.448 76.204 204.252C75.9818 204.057 75.6618 203.959 75.244 203.959C74.8796 203.959 74.604 204.034 74.4173 204.185C74.2307 204.328 74.1373 204.523 74.1373 204.772C74.1373 205.021 74.2351 205.225 74.4307 205.385C74.6262 205.545 74.9196 205.692 75.3107 205.825L76.2707 206.145C76.724 206.288 77.1373 206.457 77.5107 206.652C77.884 206.839 78.1818 207.083 78.404 207.385C78.6262 207.688 78.7373 208.079 78.7373 208.559C78.7373 209.288 78.4618 209.879 77.9107 210.332C77.3596 210.777 76.564 210.999 75.524 210.999Z" fill="#EEEEF0"/>
<defs>
<linearGradient id="paint0_linear_1278_44667" x1="395.439" y1="48.1188" x2="561.801" y2="48.1188" gradientUnits="userSpaceOnUse">
<stop offset="0.7" stop-color="#3B82F6"/>
<stop offset="1" stop-color="#3B82F6" stop-opacity="0"/>
</linearGradient>
<linearGradient id="paint1_linear_1278_44667" x1="395.717" y1="81.4137" x2="139.618" y2="81.4137" gradientUnits="userSpaceOnUse">
<stop offset="0.7" stop-color="#3B82F6"/>
<stop offset="1" stop-color="#3B82F6" stop-opacity="0"/>
</linearGradient>
<linearGradient id="paint2_linear_1278_44667" x1="395.717" y1="257.753" x2="603.019" y2="257.753" gradientUnits="userSpaceOnUse">
<stop offset="0.65" stop-color="#3B82F6"/>
<stop offset="1" stop-color="#3B82F6" stop-opacity="0"/>
</linearGradient>
<linearGradient id="paint3_linear_1278_44667" x1="395.717" y1="257.752" x2="201.805" y2="257.752" gradientUnits="userSpaceOnUse">
<stop offset="0.7" stop-color="#3B82F6"/>
<stop offset="1" stop-color="#3B82F6" stop-opacity="0"/>
</linearGradient>
<linearGradient id="paint4_linear_1278_44667" x1="377.001" y1="192.691" x2="602.551" y2="192.691" gradientUnits="userSpaceOnUse">
<stop offset="0.706363" stop-color="#3B82F6"/>
<stop offset="1" stop-color="#3B82F6" stop-opacity="0"/>
</linearGradient>
<linearGradient id="paint5_linear_1278_44667" x1="23.1879" y1="192.692" x2="364.283" y2="192.692" gradientUnits="userSpaceOnUse">
<stop stop-color="#3B82F6" stop-opacity="0"/>
<stop offset="0.55" stop-color="#3B82F6"/>
</linearGradient>
<linearGradient id="paint6_linear_1278_44667" x1="395.718" y1="128.47" x2="497.332" y2="128.47" gradientUnits="userSpaceOnUse">
<stop offset="0.579938" stop-color="#3B82F6"/>
<stop offset="1" stop-color="#3B82F6" stop-opacity="0"/>
</linearGradient>
<linearGradient id="paint7_linear_1278_44667" x1="193.212" y1="128.471" x2="346.855" y2="128.471" gradientUnits="userSpaceOnUse">
<stop stop-color="#3B82F6" stop-opacity="0"/>
<stop offset="0.420062" stop-color="#3B82F6"/>
</linearGradient>
<linearGradient id="paint8_linear_1278_44667" x1="428.414" y1="0.400391" x2="428.414" y2="320.798" gradientUnits="userSpaceOnUse">
<stop stop-color="#3B82F6" stop-opacity="0"/>
<stop offset="0.505" stop-color="#3B82F6"/>
<stop offset="1" stop-color="#3B82F6" stop-opacity="0"/>
</linearGradient>
<linearGradient id="paint9_linear_1278_44667" x1="258.164" y1="-4.55456" x2="258.164" y2="316.438" gradientUnits="userSpaceOnUse">
<stop stop-color="#3B82F6" stop-opacity="0"/>
<stop offset="0.505" stop-color="#3B82F6"/>
<stop offset="1" stop-color="#3B82F6" stop-opacity="0"/>
</linearGradient>
<linearGradient id="paint10_linear_1278_44667" x1="539.234" y1="63.9688" x2="539.234" y2="191.943" gradientUnits="userSpaceOnUse">
<stop stop-color="#3B82F6" stop-opacity="0"/>
<stop offset="0.535" stop-color="#3B82F6"/>
<stop offset="1" stop-color="#3B82F6" stop-opacity="0"/>
</linearGradient>
<linearGradient id="paint11_linear_1278_44667" x1="145.139" y1="33.2598" x2="145.139" y2="289.101" gradientUnits="userSpaceOnUse">
<stop stop-color="#3B82F6" stop-opacity="0"/>
<stop offset="0.535" stop-color="#3B82F6"/>
<stop offset="1" stop-color="#3B82F6" stop-opacity="0"/>
</linearGradient>
</defs>
</svg>
