<svg width="282" height="128" viewBox="0 0 282 128" fill="none" xmlns="http://www.w3.org/2000/svg">
<path d="M157.818 25.8086L230.634 25.8086" stroke="url(#paint0_linear_1278_44459)"/>
<path d="M157.93 25.8089L50.118 25.8086" stroke="url(#paint1_linear_1278_44459)"/>
<path d="M157.93 102.392L209.255 102.392" stroke="url(#paint2_linear_1278_44459)"/>
<path d="M157.928 102.392L80.831 102.392" stroke="url(#paint3_linear_1278_44459)"/>
<path d="M227.215 76.5244L145.432 76.5244" stroke="url(#paint4_linear_1278_44459)"/>
<path d="M145.432 76.5254L42.5499 76.5254" stroke="url(#paint5_linear_1278_44459)"/>
<path d="M198.33 51.1895L153.289 51.1895" stroke="url(#paint6_linear_1278_44459)"/>
<path d="M138.502 51.1904L80.8314 51.1904" stroke="url(#paint7_linear_1278_44459)"/>
<path d="M164.436 0L164.436 127.386" stroke="url(#paint8_linear_1278_44459)"/>
<path d="M100.449 0.603516L100.449 127.777" stroke="url(#paint9_linear_1278_44459)"/>
<path d="M215.189 25.3467L215.189 76.2275" stroke="url(#paint10_linear_1278_44459)"/>
<path d="M58.5 13.1367L58.5 114.856" stroke="url(#paint11_linear_1278_44459)"/>
<circle cx="214.895" cy="51.19" r="2.48492" fill="#60A5FA"/>
<circle cx="74.9302" cy="51.191" r="2.48492" fill="#60A5FA"/>
<path d="M154.437 59.0481V40.8634C154.437 38.6543 152.646 36.8652 150.437 36.8652H132.444H114.451C112.242 36.8652 110.451 38.6512 110.451 40.8603L110.451 59.0481C110.451 73.9886 118.274 79.1094 132.444 86.9612C146.258 80.0772 154.437 74.7619 154.437 59.0481Z" fill="#1D4ED8"/>
<path fill-rule="evenodd" clip-rule="evenodd" d="M134.099 47.2176L131.685 46.6162C131.866 46.6162 132.059 46.6019 132.278 46.5857C132.56 46.5649 132.883 46.541 133.271 46.541C134.72 46.541 135.892 47.0672 136.996 47.7438C137.148 47.8269 137.28 48.002 137.413 48.18C137.522 48.324 137.631 48.4698 137.754 48.5707C138.306 48.7962 138.858 48.9465 139.41 48.8713V48.6458C140.03 48.7962 140.651 49.5479 140.651 50.0741H137.823C137.754 50.0741 137.616 50.1493 137.548 50.2244C137.616 50.2996 137.754 50.45 137.823 50.45C137.954 50.45 138.095 50.4458 138.245 50.4413C138.729 50.427 139.297 50.4103 139.824 50.5251C139.814 50.5425 139.804 50.5609 139.793 50.5801C139.578 50.9747 139.18 51.7035 138.72 51.2017C138.72 51.0513 136.03 51.1265 135.34 51.2769C135.203 51.2769 135.065 51.5775 135.134 51.7279C135.442 52.5454 136.175 53.0553 136.861 53.5331C137.247 53.8022 137.619 54.061 137.892 54.3589C139.824 56.0127 140.444 57.5161 140.03 60.3727C138.994 64.8248 137.365 65.5764 134.19 67.0409C133.773 67.2331 133.33 67.4376 132.858 67.6644C131.685 68.2657 130.995 69.694 131.202 71.1223C131.685 74.2043 136.168 75.0312 137.065 71.423C137.341 69.9947 136.996 67.965 134.513 67.3637C135.616 66.8375 136.651 66.2361 137.616 65.5595C137.754 65.4092 137.892 65.4092 138.03 65.5595C140.789 68.3409 141.479 73.4526 136.927 76.4595C133.685 78.4139 129.616 76.7602 128.306 73.0016C126.995 69.1678 129.064 65.0333 132.72 64.2064C135.34 63.7554 138.03 60.7485 136.858 57.9672C136.337 56.7191 134.835 55.471 133.566 54.4168C133.153 54.0741 132.765 53.7519 132.444 53.4568C132.262 53.338 131.965 53.3653 131.635 53.3957C131.338 53.423 131.013 53.4528 130.719 53.3817C130.857 53.2689 130.941 53.1567 131.025 53.0444C131.109 52.9321 131.193 52.8199 131.331 52.7071C130.71 52.2909 130.325 52.2338 129.85 52.1633C129.638 52.132 129.409 52.098 129.133 52.0286C129.34 51.5775 130.233 51.0523 130.853 50.9772C130.834 50.7809 130.822 50.6116 130.811 50.4636C130.743 49.5344 130.737 49.4446 129.547 48.7962C130.255 48.2819 130.88 48.3959 131.488 48.5066C132.123 48.6224 132.739 48.7347 133.409 48.1196C132.582 47.8189 131.754 47.5183 130.995 46.992C131.384 47.0203 131.766 47.0953 132.146 47.17C132.778 47.2941 133.406 47.4173 134.052 47.3234L134.099 47.2176ZM128.306 66.5368C124.995 64.2816 124.788 58.5685 128.512 56.0879C131.271 54.2086 134.375 54.8851 136.444 58.1927C136.72 58.7189 136.72 59.5458 136.582 60.1472C136.03 62.1768 134.651 63.3044 132.789 63.7554C133.34 63.3044 133.754 62.6278 133.892 61.8761C134.513 57.6665 128.512 57.2155 128.788 61.7258C128.719 63.0037 129.616 63.9058 131.34 64.2064C130.444 64.8078 129.685 65.334 128.857 66.4616C128.719 66.6871 128.581 66.6871 128.306 66.5368ZM127.474 69.7981C126.412 70.0145 125.293 70.2427 124.236 70.7464C124.719 68.5664 126.443 67.063 128.512 67.063C127.961 67.8147 127.685 68.7919 127.616 69.7692C127.569 69.7788 127.521 69.7885 127.474 69.7981ZM136.372 49.0491L136.579 49.2746L136.303 49.425C136.165 49.5002 136.096 49.425 136.027 49.3498C135.889 49.1243 136.303 48.974 136.372 49.0491Z" fill="#EEEEF0"/>
<circle cx="58.5005" cy="76.7125" r="2.48492" fill="#60A5FA"/>
<circle cx="215.188" cy="76.1324" r="2.48492" fill="#60A5FA"/>
<circle cx="36.7369" cy="26.1421" r="2.48492" fill="#60A5FA"/>
<circle cx="100.45" cy="102.392" r="2.48492" fill="#60A5FA"/>
<circle cx="164.436" cy="102.175" r="2.48492" fill="#60A5FA"/>
<circle cx="215.188" cy="25.1812" r="2.48492" fill="#60A5FA"/>
<rect x="230.635" y="13.0752" width="33.5996" height="25.0364" fill="#0F0F11"/>
<path d="M236.049 23.5928V18.3928H237.716L238.889 22.8528H239.089L240.276 18.3928H241.943V23.5928H241.049V19.1728H240.883L239.729 23.5928H238.203L237.049 19.1728H236.883V23.5928H236.049ZM244.649 23.6928C244.014 23.6928 243.541 23.5039 243.229 23.1261C242.918 22.7439 242.763 22.2328 242.763 21.5928C242.763 20.9528 242.918 20.4439 243.229 20.0661C243.541 19.6839 244.014 19.4928 244.649 19.4928C245.285 19.4928 245.758 19.6839 246.069 20.0661C246.381 20.4439 246.536 20.9528 246.536 21.5928C246.536 22.2328 246.381 22.7439 246.069 23.1261C245.758 23.5039 245.285 23.6928 244.649 23.6928ZM244.649 23.0394C244.978 23.0394 245.221 22.915 245.376 22.6661C245.532 22.4128 245.609 22.055 245.609 21.5928C245.609 21.1261 245.532 20.7683 245.376 20.5194C245.221 20.2706 244.978 20.1461 244.649 20.1461C244.316 20.1461 244.072 20.2706 243.916 20.5194C243.765 20.7683 243.689 21.1261 243.689 21.5928C243.689 22.055 243.765 22.4128 243.916 22.6661C244.072 22.915 244.316 23.0394 244.649 23.0394ZM249.426 23.6794C249.124 23.6794 248.882 23.6194 248.7 23.4994C248.522 23.3794 248.391 23.2372 248.306 23.0728H248.146V23.5928H247.326V18.2594H248.226V20.0528H248.386C248.48 19.8839 248.611 19.7506 248.78 19.6528C248.949 19.5506 249.166 19.4994 249.433 19.4994C249.78 19.4994 250.071 19.5861 250.306 19.7594C250.546 19.9328 250.726 20.1772 250.846 20.4928C250.971 20.8039 251.033 21.1683 251.033 21.5861C251.033 21.9994 250.971 22.3639 250.846 22.6794C250.726 22.995 250.546 23.2417 250.306 23.4194C250.071 23.5928 249.777 23.6794 249.426 23.6794ZM249.206 22.9994C249.491 22.9994 249.711 22.8794 249.866 22.6394C250.026 22.3994 250.106 22.0506 250.106 21.5928C250.106 21.135 250.026 20.7861 249.866 20.5461C249.711 20.3017 249.491 20.1794 249.206 20.1794C248.904 20.1794 248.664 20.3083 248.486 20.5661C248.309 20.8194 248.22 21.1617 248.22 21.5928C248.22 22.0194 248.309 22.3617 248.486 22.6194C248.664 22.8728 248.904 22.9994 249.206 22.9994ZM251.826 23.5928V19.5928H252.726V23.5928H251.826ZM252.28 19.0794C252.115 19.0794 251.989 19.035 251.9 18.9461C251.815 18.8572 251.773 18.7394 251.773 18.5928C251.773 18.4461 251.815 18.3283 251.9 18.2394C251.989 18.1461 252.115 18.0994 252.28 18.0994C252.449 18.0994 252.575 18.1461 252.66 18.2394C252.749 18.3283 252.793 18.4461 252.793 18.5928C252.793 18.7394 252.749 18.8572 252.66 18.9461C252.575 19.035 252.449 19.0794 252.28 19.0794ZM254.108 23.5928C253.997 23.4594 253.913 23.3061 253.855 23.1328C253.802 22.9594 253.775 22.715 253.775 22.3994V18.2594H254.675V22.2928C254.675 22.6394 254.713 22.9061 254.788 23.0928C254.864 23.275 254.962 23.4283 255.082 23.5528V23.5928H254.108ZM257.372 23.6928C256.763 23.6928 256.298 23.5017 255.978 23.1194C255.663 22.7372 255.505 22.2261 255.505 21.5861C255.505 21.1594 255.576 20.7906 255.718 20.4794C255.861 20.1683 256.069 19.9261 256.345 19.7528C256.621 19.5794 256.958 19.4928 257.358 19.4928C257.932 19.4928 258.369 19.6728 258.672 20.0328C258.974 20.3883 259.125 20.9083 259.125 21.5928V21.8128H256.378C256.401 22.1772 256.494 22.4706 256.658 22.6928C256.827 22.915 257.065 23.0261 257.372 23.0261C257.603 23.0261 257.789 22.9594 257.932 22.8261C258.074 22.6928 258.172 22.5217 258.225 22.3128H259.078C259.029 22.5706 258.936 22.8039 258.798 23.0128C258.665 23.2172 258.481 23.3817 258.245 23.5061C258.009 23.6306 257.718 23.6928 257.372 23.6928ZM256.385 21.2128H258.245C258.232 20.8661 258.147 20.6017 257.992 20.4194C257.841 20.2328 257.627 20.1394 257.352 20.1394C257.072 20.1394 256.849 20.2306 256.685 20.4128C256.521 20.595 256.421 20.8617 256.385 21.2128ZM234.471 33.5928V28.3928H236.251C237.162 28.3928 237.822 28.6217 238.231 29.0794C238.64 29.5328 238.845 30.1706 238.845 30.9928C238.845 31.815 238.64 32.455 238.231 32.9128C237.822 33.3661 237.162 33.5928 236.251 33.5928H234.471ZM235.411 32.8461H236.185C236.58 32.8461 236.902 32.7839 237.151 32.6594C237.405 32.535 237.589 32.3372 237.705 32.0661C237.825 31.7906 237.885 31.4328 237.885 30.9928C237.885 30.5483 237.825 30.1906 237.705 29.9194C237.589 29.6483 237.405 29.4506 237.151 29.3261C236.902 29.2017 236.58 29.1394 236.185 29.1394H235.411V32.8461ZM241.215 33.6928C240.606 33.6928 240.142 33.5017 239.822 33.1194C239.506 32.7372 239.349 32.2261 239.349 31.5861C239.349 31.1594 239.42 30.7906 239.562 30.4794C239.704 30.1683 239.913 29.9261 240.189 29.7528C240.464 29.5794 240.802 29.4928 241.202 29.4928C241.775 29.4928 242.213 29.6728 242.515 30.0328C242.818 30.3883 242.969 30.9083 242.969 31.5928V31.8128H240.222C240.244 32.1772 240.338 32.4706 240.502 32.6928C240.671 32.915 240.909 33.0261 241.215 33.0261C241.446 33.0261 241.633 32.9594 241.775 32.8261C241.918 32.6928 242.015 32.5217 242.069 32.3128H242.922C242.873 32.5706 242.78 32.8039 242.642 33.0128C242.509 33.2172 242.324 33.3817 242.089 33.5061C241.853 33.6306 241.562 33.6928 241.215 33.6928ZM240.229 31.2128H242.089C242.075 30.8661 241.991 30.6017 241.835 30.4194C241.684 30.2328 241.471 30.1394 241.195 30.1394C240.915 30.1394 240.693 30.2306 240.529 30.4128C240.364 30.595 240.264 30.8617 240.229 31.2128ZM244.431 33.5928L243.245 29.6328V29.5928H244.151L245.085 32.8528H245.245L246.185 29.5928H247.011V29.6328L245.831 33.5928H244.431ZM247.647 33.5928V29.5928H248.547V33.5928H247.647ZM248.1 29.0794C247.936 29.0794 247.809 29.035 247.72 28.9461C247.636 28.8572 247.593 28.7394 247.593 28.5928C247.593 28.4461 247.636 28.3283 247.72 28.2394C247.809 28.1461 247.936 28.0994 248.1 28.0994C248.269 28.0994 248.396 28.1461 248.48 28.2394C248.569 28.3283 248.613 28.4461 248.613 28.5928C248.613 28.7394 248.569 28.8572 248.48 28.9461C248.396 29.035 248.269 29.0794 248.1 29.0794ZM251.169 33.6928C250.569 33.6928 250.115 33.5017 249.809 33.1194C249.502 32.7372 249.349 32.2283 249.349 31.5928C249.349 30.9306 249.509 30.415 249.829 30.0461C250.149 29.6772 250.598 29.4928 251.175 29.4928C251.673 29.4928 252.069 29.6283 252.362 29.8994C252.655 30.1661 252.833 30.5417 252.895 31.0261H252.009C251.973 30.7506 251.884 30.5394 251.742 30.3928C251.604 30.2417 251.42 30.1661 251.189 30.1661C250.882 30.1661 250.653 30.2928 250.502 30.5461C250.351 30.795 250.275 31.1439 250.275 31.5928C250.275 32.0417 250.351 32.3928 250.502 32.6461C250.653 32.895 250.88 33.0194 251.182 33.0194C251.418 33.0194 251.604 32.9439 251.742 32.7928C251.884 32.6417 251.973 32.4306 252.009 32.1594H252.895C252.829 32.6394 252.646 33.015 252.349 33.2861C252.055 33.5572 251.662 33.6928 251.169 33.6928ZM255.247 33.6928C254.638 33.6928 254.173 33.5017 253.853 33.1194C253.538 32.7372 253.38 32.2261 253.38 31.5861C253.38 31.1594 253.451 30.7906 253.593 30.4794C253.736 30.1683 253.944 29.9261 254.22 29.7528C254.496 29.5794 254.833 29.4928 255.233 29.4928C255.807 29.4928 256.244 29.6728 256.547 30.0328C256.849 30.3883 257 30.9083 257 31.5928V31.8128H254.253C254.276 32.1772 254.369 32.4706 254.533 32.6928C254.702 32.915 254.94 33.0261 255.247 33.0261C255.478 33.0261 255.664 32.9594 255.807 32.8261C255.949 32.6928 256.047 32.5217 256.1 32.3128H256.953C256.904 32.5706 256.811 32.8039 256.673 33.0128C256.54 33.2172 256.356 33.3817 256.12 33.5061C255.884 33.6306 255.593 33.6928 255.247 33.6928ZM254.26 31.2128H256.12C256.107 30.8661 256.022 30.6017 255.867 30.4194C255.716 30.2328 255.502 30.1394 255.227 30.1394C254.947 30.1394 254.724 30.2306 254.56 30.4128C254.396 30.595 254.296 30.8617 254.26 31.2128ZM259.179 33.6928C258.775 33.6928 258.446 33.6261 258.193 33.4928C257.939 33.355 257.753 33.1794 257.633 32.9661C257.513 32.7528 257.444 32.535 257.426 32.3128H258.293C258.311 32.4372 258.355 32.555 258.426 32.6661C258.502 32.7772 258.604 32.8661 258.733 32.9328C258.862 32.9994 259.024 33.0328 259.219 33.0328C259.442 33.0328 259.608 32.9906 259.719 32.9061C259.831 32.8172 259.886 32.7017 259.886 32.5594C259.886 32.435 259.839 32.3306 259.746 32.2461C259.653 32.1572 259.506 32.0794 259.306 32.0128L258.826 31.8461C258.604 31.7661 258.402 31.6794 258.219 31.5861C258.037 31.4883 257.891 31.3661 257.779 31.2194C257.668 31.0728 257.613 30.8839 257.613 30.6528C257.613 30.3017 257.742 30.0217 257.999 29.8128C258.257 29.5994 258.617 29.4928 259.079 29.4928C259.413 29.4928 259.686 29.5483 259.899 29.6594C260.117 29.7661 260.282 29.9128 260.393 30.0994C260.504 30.2817 260.568 30.4861 260.586 30.7128H259.753C259.735 30.5483 259.668 30.4106 259.553 30.2994C259.442 30.1883 259.273 30.1328 259.046 30.1328C258.855 30.1328 258.708 30.1728 258.606 30.2528C258.508 30.3283 258.459 30.435 258.459 30.5728C258.459 30.7061 258.508 30.8172 258.606 30.9061C258.708 30.9906 258.862 31.0683 259.066 31.1394L259.539 31.2928C259.762 31.3683 259.964 31.455 260.146 31.5528C260.328 31.6461 260.471 31.7683 260.573 31.9194C260.679 32.0661 260.733 32.255 260.733 32.4861C260.733 32.8461 260.599 33.1372 260.333 33.3594C260.071 33.5817 259.686 33.6928 259.179 33.6928Z" fill="#EEEEF0"/>
<rect x="198.33" y="38.5371" width="33.7187" height="25.0628" fill="#0F0F11"/>
<path d="M206.407 49.0693V43.8693H207.34V48.316H209.654V49.0693H206.407ZM211.874 49.1693C211.238 49.1693 210.765 48.9804 210.454 48.6027C210.143 48.2204 209.987 47.7093 209.987 47.0693C209.987 46.4293 210.143 45.9204 210.454 45.5427C210.765 45.1604 211.238 44.9693 211.874 44.9693C212.51 44.9693 212.983 45.1604 213.294 45.5427C213.605 45.9204 213.761 46.4293 213.761 47.0693C213.761 47.7093 213.605 48.2204 213.294 48.6027C212.983 48.9804 212.51 49.1693 211.874 49.1693ZM211.874 48.516C212.203 48.516 212.445 48.3916 212.601 48.1427C212.756 47.8893 212.834 47.5316 212.834 47.0693C212.834 46.6027 212.756 46.2449 212.601 45.996C212.445 45.7471 212.203 45.6227 211.874 45.6227C211.541 45.6227 211.296 45.7471 211.141 45.996C210.99 46.2449 210.914 46.6027 210.914 47.0693C210.914 47.5316 210.99 47.8893 211.141 48.1427C211.296 48.3916 211.541 48.516 211.874 48.516ZM216.104 49.1693C215.504 49.1693 215.051 48.9782 214.744 48.596C214.438 48.2138 214.284 47.7049 214.284 47.0693C214.284 46.4071 214.444 45.8916 214.764 45.5227C215.084 45.1538 215.533 44.9693 216.111 44.9693C216.609 44.9693 217.004 45.1049 217.298 45.376C217.591 45.6427 217.769 46.0182 217.831 46.5027H216.944C216.909 46.2271 216.82 46.016 216.678 45.8693C216.54 45.7182 216.355 45.6427 216.124 45.6427C215.818 45.6427 215.589 45.7693 215.438 46.0227C215.286 46.2716 215.211 46.6204 215.211 47.0693C215.211 47.5182 215.286 47.8693 215.438 48.1227C215.589 48.3716 215.815 48.496 216.118 48.496C216.353 48.496 216.54 48.4204 216.678 48.2693C216.82 48.1182 216.909 47.9071 216.944 47.636H217.831C217.764 48.116 217.582 48.4916 217.284 48.7627C216.991 49.0338 216.598 49.1693 216.104 49.1693ZM219.935 49.156C219.575 49.156 219.275 49.0693 219.035 48.896C218.795 48.7182 218.615 48.4716 218.495 48.156C218.375 47.8404 218.315 47.476 218.315 47.0627C218.315 46.6449 218.375 46.2804 218.495 45.9693C218.62 45.6538 218.802 45.4093 219.042 45.236C219.282 45.0627 219.58 44.976 219.935 44.976C220.229 44.976 220.464 45.036 220.642 45.156C220.824 45.2716 220.955 45.416 221.035 45.5893H221.195V45.0693H222.015V49.0693H221.195V48.5493H221.035C220.955 48.7138 220.824 48.856 220.642 48.976C220.464 49.096 220.229 49.156 219.935 49.156ZM220.135 48.476C220.438 48.476 220.678 48.3493 220.855 48.096C221.038 47.8382 221.129 47.496 221.129 47.0693C221.129 46.6382 221.038 46.296 220.855 46.0427C220.678 45.7849 220.438 45.656 220.135 45.656C219.851 45.656 219.631 45.7782 219.475 46.0227C219.32 46.2627 219.242 46.6116 219.242 47.0693C219.242 47.5271 219.32 47.876 219.475 48.116C219.631 48.356 219.851 48.476 220.135 48.476ZM223.395 49.0693C223.284 48.936 223.2 48.7827 223.142 48.6093C223.089 48.436 223.062 48.1916 223.062 47.876V43.736H223.962V47.7693C223.962 48.116 224 48.3827 224.075 48.5693C224.151 48.7516 224.249 48.9049 224.369 49.0293V49.0693H223.395ZM202.227 59.0693V53.8693H204.007C204.918 53.8693 205.578 54.0982 205.987 54.556C206.396 55.0093 206.6 55.6471 206.6 56.4693C206.6 57.2916 206.396 57.9316 205.987 58.3893C205.578 58.8427 204.918 59.0693 204.007 59.0693H202.227ZM203.167 58.3227H203.94C204.336 58.3227 204.658 58.2604 204.907 58.136C205.16 58.0116 205.345 57.8138 205.46 57.5427C205.58 57.2671 205.64 56.9093 205.64 56.4693C205.64 56.0249 205.58 55.6671 205.46 55.396C205.345 55.1249 205.16 54.9271 204.907 54.8027C204.658 54.6782 204.336 54.616 203.94 54.616H203.167V58.3227ZM208.971 59.1693C208.362 59.1693 207.898 58.9782 207.578 58.596C207.262 58.2138 207.105 57.7027 207.105 57.0627C207.105 56.636 207.176 56.2671 207.318 55.956C207.46 55.6449 207.669 55.4027 207.945 55.2293C208.22 55.056 208.558 54.9693 208.958 54.9693C209.531 54.9693 209.969 55.1493 210.271 55.5093C210.573 55.8649 210.725 56.3849 210.725 57.0693V57.2893H207.978C208 57.6538 208.093 57.9471 208.258 58.1693C208.427 58.3916 208.665 58.5027 208.971 58.5027C209.202 58.5027 209.389 58.436 209.531 58.3027C209.673 58.1693 209.771 57.9982 209.825 57.7893H210.678C210.629 58.0471 210.536 58.2804 210.398 58.4893C210.265 58.6938 210.08 58.8582 209.845 58.9827C209.609 59.1071 209.318 59.1693 208.971 59.1693ZM207.985 56.6893H209.845C209.831 56.3427 209.747 56.0782 209.591 55.896C209.44 55.7093 209.227 55.616 208.951 55.616C208.671 55.616 208.449 55.7071 208.285 55.8893C208.12 56.0716 208.02 56.3382 207.985 56.6893ZM212.187 59.0693L211 55.1093V55.0693H211.907L212.84 58.3293H213L213.94 55.0693H214.767V55.1093L213.587 59.0693H212.187ZM215.402 59.0693V55.0693H216.302V59.0693H215.402ZM215.856 54.556C215.691 54.556 215.565 54.5116 215.476 54.4227C215.391 54.3338 215.349 54.216 215.349 54.0693C215.349 53.9227 215.391 53.8049 215.476 53.716C215.565 53.6227 215.691 53.576 215.856 53.576C216.025 53.576 216.151 53.6227 216.236 53.716C216.325 53.8049 216.369 53.9227 216.369 54.0693C216.369 54.216 216.325 54.3338 216.236 54.4227C216.151 54.5116 216.025 54.556 215.856 54.556ZM218.925 59.1693C218.325 59.1693 217.871 58.9782 217.565 58.596C217.258 58.2138 217.105 57.7049 217.105 57.0693C217.105 56.4071 217.265 55.8916 217.585 55.5227C217.905 55.1538 218.353 54.9693 218.931 54.9693C219.429 54.9693 219.825 55.1049 220.118 55.376C220.411 55.6427 220.589 56.0182 220.651 56.5027H219.765C219.729 56.2271 219.64 56.016 219.498 55.8693C219.36 55.7182 219.176 55.6427 218.945 55.6427C218.638 55.6427 218.409 55.7693 218.258 56.0227C218.107 56.2716 218.031 56.6204 218.031 57.0693C218.031 57.5182 218.107 57.8693 218.258 58.1227C218.409 58.3716 218.636 58.496 218.938 58.496C219.173 58.496 219.36 58.4204 219.498 58.2693C219.64 58.1182 219.729 57.9071 219.765 57.636H220.651C220.585 58.116 220.402 58.4916 220.105 58.7627C219.811 59.0338 219.418 59.1693 218.925 59.1693ZM223.002 59.1693C222.394 59.1693 221.929 58.9782 221.609 58.596C221.294 58.2138 221.136 57.7027 221.136 57.0627C221.136 56.636 221.207 56.2671 221.349 55.956C221.491 55.6449 221.7 55.4027 221.976 55.2293C222.251 55.056 222.589 54.9693 222.989 54.9693C223.562 54.9693 224 55.1493 224.302 55.5093C224.605 55.8649 224.756 56.3849 224.756 57.0693V57.2893H222.009C222.031 57.6538 222.125 57.9471 222.289 58.1693C222.458 58.3916 222.696 58.5027 223.002 58.5027C223.234 58.5027 223.42 58.436 223.562 58.3027C223.705 58.1693 223.802 57.9982 223.856 57.7893H224.709C224.66 58.0471 224.567 58.2804 224.429 58.4893C224.296 58.6938 224.111 58.8582 223.876 58.9827C223.64 59.1071 223.349 59.1693 223.002 59.1693ZM222.016 56.6893H223.876C223.862 56.3427 223.778 56.0782 223.622 55.896C223.471 55.7093 223.258 55.616 222.982 55.616C222.702 55.616 222.48 55.7071 222.316 55.8893C222.151 56.0716 222.051 56.3382 222.016 56.6893ZM226.935 59.1693C226.531 59.1693 226.202 59.1027 225.949 58.9693C225.695 58.8316 225.509 58.656 225.389 58.4427C225.269 58.2293 225.2 58.0116 225.182 57.7893H226.049C226.066 57.9138 226.111 58.0316 226.182 58.1427C226.258 58.2538 226.36 58.3427 226.489 58.4093C226.618 58.476 226.78 58.5093 226.975 58.5093C227.198 58.5093 227.364 58.4671 227.475 58.3827C227.586 58.2938 227.642 58.1782 227.642 58.036C227.642 57.9116 227.595 57.8071 227.502 57.7227C227.409 57.6338 227.262 57.556 227.062 57.4893L226.582 57.3227C226.36 57.2427 226.158 57.156 225.975 57.0627C225.793 56.9649 225.646 56.8427 225.535 56.696C225.424 56.5493 225.369 56.3604 225.369 56.1293C225.369 55.7782 225.498 55.4982 225.755 55.2893C226.013 55.076 226.373 54.9693 226.835 54.9693C227.169 54.9693 227.442 55.0249 227.655 55.136C227.873 55.2427 228.038 55.3893 228.149 55.576C228.26 55.7582 228.324 55.9627 228.342 56.1893H227.509C227.491 56.0249 227.424 55.8871 227.309 55.776C227.198 55.6649 227.029 55.6093 226.802 55.6093C226.611 55.6093 226.464 55.6493 226.362 55.7293C226.264 55.8049 226.215 55.9116 226.215 56.0493C226.215 56.1827 226.264 56.2938 226.362 56.3827C226.464 56.4671 226.618 56.5449 226.822 56.616L227.295 56.7693C227.518 56.8449 227.72 56.9316 227.902 57.0293C228.084 57.1227 228.226 57.2449 228.329 57.396C228.435 57.5427 228.489 57.7316 228.489 57.9627C228.489 58.3227 228.355 58.6138 228.089 58.836C227.826 59.0582 227.442 59.1693 226.935 59.1693Z" fill="#EEEEF0"/>
<rect x="209.254" y="89.4287" width="56.4424" height="25.0628" fill="#0F0F11"/>
<path d="M214.616 99.96V94.76H216.396C217.307 94.76 217.967 94.9888 218.376 95.4466C218.785 95.9 218.989 96.5377 218.989 97.36C218.989 98.1822 218.785 98.8222 218.376 99.28C217.967 99.7333 217.307 99.96 216.396 99.96H214.616ZM215.556 99.2133H216.329C216.725 99.2133 217.047 99.1511 217.296 99.0266C217.549 98.9022 217.734 98.7044 217.849 98.4333C217.969 98.1577 218.029 97.8 218.029 97.36C218.029 96.9155 217.969 96.5577 217.849 96.2866C217.734 96.0155 217.549 95.8177 217.296 95.6933C217.047 95.5688 216.725 95.5066 216.329 95.5066H215.556V99.2133ZM221.36 100.06C220.751 100.06 220.287 99.8688 219.967 99.4866C219.651 99.1044 219.493 98.5933 219.493 97.9533C219.493 97.5266 219.564 97.1577 219.707 96.8466C219.849 96.5355 220.058 96.2933 220.333 96.12C220.609 95.9466 220.947 95.86 221.347 95.86C221.92 95.86 222.358 96.04 222.66 96.4C222.962 96.7555 223.113 97.2755 223.113 97.96V98.18H220.367C220.389 98.5444 220.482 98.8377 220.647 99.06C220.815 99.2822 221.053 99.3933 221.36 99.3933C221.591 99.3933 221.778 99.3266 221.92 99.1933C222.062 99.06 222.16 98.8888 222.213 98.68H223.067C223.018 98.9377 222.924 99.1711 222.787 99.38C222.653 99.5844 222.469 99.7488 222.233 99.8733C221.998 99.9977 221.707 100.06 221.36 100.06ZM220.373 97.58H222.233C222.22 97.2333 222.135 96.9688 221.98 96.7866C221.829 96.6 221.615 96.5066 221.34 96.5066C221.06 96.5066 220.838 96.5977 220.673 96.78C220.509 96.9622 220.409 97.2288 220.373 97.58ZM224.576 99.96L223.389 96V95.96H224.296L225.229 99.22H225.389L226.329 95.96H227.156V96L225.976 99.96H224.576ZM229.391 100.06C228.782 100.06 228.318 99.8688 227.998 99.4866C227.682 99.1044 227.524 98.5933 227.524 97.9533C227.524 97.5266 227.596 97.1577 227.738 96.8466C227.88 96.5355 228.089 96.2933 228.364 96.12C228.64 95.9466 228.978 95.86 229.378 95.86C229.951 95.86 230.389 96.04 230.691 96.4C230.993 96.7555 231.144 97.2755 231.144 97.96V98.18H228.398C228.42 98.5444 228.513 98.8377 228.678 99.06C228.847 99.2822 229.084 99.3933 229.391 99.3933C229.622 99.3933 229.809 99.3266 229.951 99.1933C230.093 99.06 230.191 98.8888 230.244 98.68H231.098C231.049 98.9377 230.956 99.1711 230.818 99.38C230.684 99.5844 230.5 99.7488 230.264 99.8733C230.029 99.9977 229.738 100.06 229.391 100.06ZM228.404 97.58H230.264C230.251 97.2333 230.167 96.9688 230.011 96.7866C229.86 96.6 229.647 96.5066 229.371 96.5066C229.091 96.5066 228.869 96.5977 228.704 96.78C228.54 96.9622 228.44 97.2288 228.404 97.58ZM232.237 99.96C232.126 99.8266 232.042 99.6733 231.984 99.5C231.931 99.3266 231.904 99.0822 231.904 98.7666V94.6266H232.804V98.66C232.804 99.0066 232.842 99.2733 232.917 99.46C232.993 99.6422 233.091 99.7955 233.211 99.92V99.96H232.237ZM235.521 100.06C234.885 100.06 234.412 99.8711 234.101 99.4933C233.789 99.1111 233.634 98.6 233.634 97.96C233.634 97.32 233.789 96.8111 234.101 96.4333C234.412 96.0511 234.885 95.86 235.521 95.86C236.156 95.86 236.629 96.0511 236.941 96.4333C237.252 96.8111 237.407 97.32 237.407 97.96C237.407 98.6 237.252 99.1111 236.941 99.4933C236.629 99.8711 236.156 100.06 235.521 100.06ZM235.521 99.4066C235.849 99.4066 236.092 99.2822 236.247 99.0333C236.403 98.78 236.481 98.4222 236.481 97.96C236.481 97.4933 236.403 97.1355 236.247 96.8866C236.092 96.6377 235.849 96.5133 235.521 96.5133C235.187 96.5133 234.943 96.6377 234.787 96.8866C234.636 97.1355 234.561 97.4933 234.561 97.96C234.561 98.4222 234.636 98.78 234.787 99.0333C234.943 99.2822 235.187 99.4066 235.521 99.4066ZM238.197 101.293V95.96H239.017V96.48H239.177C239.262 96.3155 239.393 96.1733 239.571 96.0533C239.753 95.9288 239.995 95.8666 240.297 95.8666C240.649 95.8666 240.942 95.9555 241.177 96.1333C241.417 96.3066 241.597 96.5511 241.717 96.8666C241.842 97.1822 241.904 97.5466 241.904 97.96C241.904 98.3777 241.842 98.7444 241.717 99.06C241.597 99.3711 241.417 99.6133 241.177 99.7866C240.942 99.96 240.651 100.047 240.304 100.047C240.037 100.047 239.82 99.9977 239.651 99.9C239.482 99.7977 239.351 99.6644 239.257 99.5H239.097V101.293H238.197ZM240.077 99.3666C240.362 99.3666 240.582 99.2466 240.737 99.0066C240.897 98.7666 240.977 98.4177 240.977 97.96C240.977 97.5022 240.897 97.1533 240.737 96.9133C240.582 96.6688 240.362 96.5466 240.077 96.5466C239.775 96.5466 239.535 96.6755 239.357 96.9333C239.18 97.1866 239.091 97.5288 239.091 97.96C239.091 98.3866 239.18 98.7288 239.357 98.9866C239.535 99.24 239.775 99.3666 240.077 99.3666ZM242.697 99.96V95.96H243.517V96.56H243.677C243.749 96.3511 243.869 96.1822 244.037 96.0533C244.206 95.9244 244.437 95.86 244.731 95.86C245.011 95.86 245.242 95.9222 245.424 96.0466C245.611 96.1711 245.749 96.3422 245.837 96.56H245.997C246.077 96.3466 246.204 96.1777 246.377 96.0533C246.555 95.9244 246.791 95.86 247.084 95.86C247.52 95.86 247.84 96.0022 248.044 96.2866C248.249 96.5666 248.351 96.94 248.351 97.4066V99.96H247.451V97.5733C247.451 97.2622 247.4 97.0244 247.297 96.86C247.2 96.6911 247.04 96.6066 246.817 96.6066C246.546 96.6066 246.337 96.7222 246.191 96.9533C246.049 97.18 245.977 97.4622 245.977 97.8V99.96H245.077V97.5733C245.077 97.2622 245.026 97.0244 244.924 96.86C244.826 96.6911 244.666 96.6066 244.444 96.6066C244.173 96.6066 243.964 96.7222 243.817 96.9533C243.671 97.18 243.597 97.4622 243.597 97.8V99.96H242.697ZM250.961 100.06C250.353 100.06 249.888 99.8688 249.568 99.4866C249.253 99.1044 249.095 98.5933 249.095 97.9533C249.095 97.5266 249.166 97.1577 249.308 96.8466C249.45 96.5355 249.659 96.2933 249.935 96.12C250.21 95.9466 250.548 95.86 250.948 95.86C251.521 95.86 251.959 96.04 252.261 96.4C252.564 96.7555 252.715 97.2755 252.715 97.96V98.18H249.968C249.99 98.5444 250.084 98.8377 250.248 99.06C250.417 99.2822 250.655 99.3933 250.961 99.3933C251.193 99.3933 251.379 99.3266 251.521 99.1933C251.664 99.06 251.761 98.8888 251.815 98.68H252.668C252.619 98.9377 252.526 99.1711 252.388 99.38C252.255 99.5844 252.07 99.7488 251.835 99.8733C251.599 99.9977 251.308 100.06 250.961 100.06ZM249.975 97.58H251.835C251.821 97.2333 251.737 96.9688 251.581 96.7866C251.43 96.6 251.217 96.5066 250.941 96.5066C250.661 96.5066 250.439 96.5977 250.275 96.78C250.11 96.9622 250.01 97.2288 249.975 97.58ZM253.494 99.96V95.96H254.314V96.56H254.474C254.554 96.3466 254.681 96.1777 254.854 96.0533C255.032 95.9244 255.274 95.86 255.581 95.86C256.039 95.86 256.374 96.0022 256.588 96.2866C256.805 96.5666 256.914 96.94 256.914 97.4066V99.96H256.014V97.5733C256.014 97.2622 255.959 97.0244 255.848 96.86C255.736 96.6911 255.561 96.6066 255.321 96.6066C255.028 96.6066 254.799 96.7222 254.634 96.9533C254.474 97.18 254.394 97.4622 254.394 97.8V99.96H253.494ZM258.471 99.96C258.368 99.84 258.286 99.6955 258.224 99.5266C258.166 99.3577 258.137 99.1044 258.137 98.7666V96.62H257.591V95.96H258.151V94.96H259.031V95.96H259.691V96.62H259.037V98.6533C259.037 99.0088 259.075 99.28 259.151 99.4666C259.231 99.6488 259.326 99.8 259.437 99.92V99.96H258.471ZM222.452 110.06C221.714 110.06 221.141 109.822 220.732 109.347C220.323 108.871 220.119 108.209 220.119 107.36C220.119 106.511 220.321 105.849 220.726 105.373C221.134 104.898 221.708 104.66 222.446 104.66C222.881 104.66 223.257 104.742 223.572 104.907C223.888 105.071 224.134 105.3 224.312 105.593C224.494 105.887 224.603 106.227 224.639 106.613H223.706C223.666 106.231 223.534 105.931 223.312 105.713C223.09 105.491 222.801 105.38 222.446 105.38C222.001 105.38 221.661 105.553 221.426 105.9C221.194 106.242 221.079 106.729 221.079 107.36C221.079 108.004 221.197 108.496 221.432 108.833C221.672 109.171 222.008 109.34 222.439 109.34C222.812 109.34 223.108 109.224 223.326 108.993C223.543 108.762 223.67 108.467 223.706 108.107H224.639C224.603 108.489 224.494 108.829 224.312 109.127C224.134 109.42 223.888 109.649 223.572 109.813C223.261 109.978 222.888 110.06 222.452 110.06ZM227.001 110.06C226.365 110.06 225.892 109.871 225.581 109.493C225.27 109.111 225.114 108.6 225.114 107.96C225.114 107.32 225.27 106.811 225.581 106.433C225.892 106.051 226.365 105.86 227.001 105.86C227.637 105.86 228.11 106.051 228.421 106.433C228.732 106.811 228.888 107.32 228.888 107.96C228.888 108.6 228.732 109.111 228.421 109.493C228.11 109.871 227.637 110.06 227.001 110.06ZM227.001 109.407C227.33 109.407 227.572 109.282 227.728 109.033C227.883 108.78 227.961 108.422 227.961 107.96C227.961 107.493 227.883 107.136 227.728 106.887C227.572 106.638 227.33 106.513 227.001 106.513C226.668 106.513 226.423 106.638 226.268 106.887C226.117 107.136 226.041 107.493 226.041 107.96C226.041 108.422 226.117 108.78 226.268 109.033C226.423 109.282 226.668 109.407 227.001 109.407ZM229.678 109.96V105.96H230.498V106.56H230.658C230.738 106.347 230.865 106.178 231.038 106.053C231.216 105.924 231.458 105.86 231.765 105.86C232.222 105.86 232.558 106.002 232.771 106.287C232.989 106.567 233.098 106.94 233.098 107.407V109.96H232.198V107.573C232.198 107.262 232.142 107.024 232.031 106.86C231.92 106.691 231.745 106.607 231.505 106.607C231.211 106.607 230.982 106.722 230.818 106.953C230.658 107.18 230.578 107.462 230.578 107.8V109.96H229.678ZM234.654 109.96C234.552 109.84 234.47 109.696 234.408 109.527C234.35 109.358 234.321 109.104 234.321 108.767V106.62H233.774V105.96H234.334V104.96H235.214V105.96H235.874V106.62H235.221V108.653C235.221 109.009 235.259 109.28 235.334 109.467C235.414 109.649 235.51 109.8 235.621 109.92V109.96H234.654ZM237.961 110.047C237.601 110.047 237.301 109.96 237.061 109.787C236.821 109.609 236.641 109.362 236.521 109.047C236.401 108.731 236.341 108.367 236.341 107.953C236.341 107.536 236.401 107.171 236.521 106.86C236.645 106.544 236.828 106.3 237.068 106.127C237.308 105.953 237.605 105.867 237.961 105.867C238.254 105.867 238.49 105.927 238.668 106.047C238.85 106.162 238.981 106.307 239.061 106.48H239.221V105.96H240.041V109.96H239.221V109.44H239.061C238.981 109.604 238.85 109.747 238.668 109.867C238.49 109.987 238.254 110.047 237.961 110.047ZM238.161 109.367C238.463 109.367 238.703 109.24 238.881 108.987C239.063 108.729 239.154 108.387 239.154 107.96C239.154 107.529 239.063 107.187 238.881 106.933C238.703 106.676 238.463 106.547 238.161 106.547C237.876 106.547 237.656 106.669 237.501 106.913C237.345 107.153 237.268 107.502 237.268 107.96C237.268 108.418 237.345 108.767 237.501 109.007C237.656 109.247 237.876 109.367 238.161 109.367ZM241.108 109.96V105.96H242.008V109.96H241.108ZM241.561 105.447C241.396 105.447 241.27 105.402 241.181 105.313C241.096 105.224 241.054 105.107 241.054 104.96C241.054 104.813 241.096 104.696 241.181 104.607C241.27 104.513 241.396 104.467 241.561 104.467C241.73 104.467 241.856 104.513 241.941 104.607C242.03 104.696 242.074 104.813 242.074 104.96C242.074 105.107 242.03 105.224 241.941 105.313C241.856 105.402 241.73 105.447 241.561 105.447ZM243.076 109.96V105.96H243.896V106.56H244.056C244.136 106.347 244.263 106.178 244.436 106.053C244.614 105.924 244.856 105.86 245.163 105.86C245.621 105.86 245.956 106.002 246.17 106.287C246.387 106.567 246.496 106.94 246.496 107.407V109.96H245.596V107.573C245.596 107.262 245.541 107.024 245.43 106.86C245.319 106.691 245.143 106.607 244.903 106.607C244.61 106.607 244.381 106.722 244.216 106.953C244.056 107.18 243.976 107.462 243.976 107.8V109.96H243.076ZM249.106 110.06C248.497 110.06 248.033 109.869 247.713 109.487C247.397 109.104 247.239 108.593 247.239 107.953C247.239 107.527 247.31 107.158 247.453 106.847C247.595 106.536 247.804 106.293 248.079 106.12C248.355 105.947 248.693 105.86 249.093 105.86C249.666 105.86 250.104 106.04 250.406 106.4C250.708 106.756 250.859 107.276 250.859 107.96V108.18H248.113C248.135 108.544 248.228 108.838 248.393 109.06C248.562 109.282 248.799 109.393 249.106 109.393C249.337 109.393 249.524 109.327 249.666 109.193C249.808 109.06 249.906 108.889 249.959 108.68H250.813C250.764 108.938 250.67 109.171 250.533 109.38C250.399 109.584 250.215 109.749 249.979 109.873C249.744 109.998 249.453 110.06 249.106 110.06ZM248.119 107.58H249.979C249.966 107.233 249.882 106.969 249.726 106.787C249.575 106.6 249.362 106.507 249.086 106.507C248.806 106.507 248.584 106.598 248.419 106.78C248.255 106.962 248.155 107.229 248.119 107.58ZM251.639 109.96V105.96H252.452V106.667H252.612C252.639 106.542 252.688 106.424 252.759 106.313C252.83 106.198 252.939 106.104 253.085 106.033C253.237 105.958 253.441 105.92 253.699 105.92H253.872V106.747H253.625C253.239 106.747 252.961 106.847 252.792 107.047C252.623 107.242 252.539 107.547 252.539 107.96V109.96H251.639Z" fill="#EEEEF0"/>
<rect x="36.1699" y="38.5586" width="44.6623" height="25.0628" fill="#0F0F11"/>
<path d="M42.3072 49.0898V43.8898H43.9739L45.1472 48.3498H45.3472L46.5339 43.8898H48.2006V49.0898H47.3072V44.6698H47.1406L45.9872 49.0898H44.4606L43.3072 44.6698H43.1406V49.0898H42.3072ZM50.6406 49.1765C50.2806 49.1765 49.9806 49.0898 49.7406 48.9165C49.5006 48.7387 49.3206 48.4921 49.2006 48.1765C49.0806 47.861 49.0206 47.4965 49.0206 47.0832C49.0206 46.6654 49.0806 46.301 49.2006 45.9898C49.325 45.6743 49.5072 45.4298 49.7472 45.2565C49.9872 45.0832 50.285 44.9965 50.6406 44.9965C50.9339 44.9965 51.1695 45.0565 51.3472 45.1765C51.5295 45.2921 51.6606 45.4365 51.7406 45.6098H51.9006V45.0898H52.7206V49.0898H51.9006V48.5698H51.7406C51.6606 48.7343 51.5295 48.8765 51.3472 48.9965C51.1695 49.1165 50.9339 49.1765 50.6406 49.1765ZM50.8406 48.4965C51.1428 48.4965 51.3828 48.3698 51.5606 48.1165C51.7428 47.8587 51.8339 47.5165 51.8339 47.0898C51.8339 46.6587 51.7428 46.3165 51.5606 46.0632C51.3828 45.8054 51.1428 45.6765 50.8406 45.6765C50.5561 45.6765 50.3361 45.7987 50.1806 46.0432C50.025 46.2832 49.9472 46.6321 49.9472 47.0898C49.9472 47.5476 50.025 47.8965 50.1806 48.1365C50.3361 48.3765 50.5561 48.4965 50.8406 48.4965ZM53.7872 49.0898V45.0898H54.6072V45.6898H54.7672C54.8472 45.4765 54.9739 45.3076 55.1472 45.1832C55.325 45.0543 55.5672 44.9898 55.8739 44.9898C56.3317 44.9898 56.6672 45.1321 56.8806 45.4165C57.0984 45.6965 57.2072 46.0698 57.2072 46.5365V49.0898H56.3072V46.7032C56.3072 46.3921 56.2517 46.1543 56.1406 45.9898C56.0295 45.821 55.8539 45.7365 55.6139 45.7365C55.3206 45.7365 55.0917 45.8521 54.9272 46.0832C54.7672 46.3098 54.6872 46.5921 54.6872 46.9298V49.0898H53.7872ZM59.5703 49.1765C59.2103 49.1765 58.9103 49.0898 58.6703 48.9165C58.4303 48.7387 58.2503 48.4921 58.1303 48.1765C58.0103 47.861 57.9503 47.4965 57.9503 47.0832C57.9503 46.6654 58.0103 46.301 58.1303 45.9898C58.2547 45.6743 58.4369 45.4298 58.6769 45.2565C58.9169 45.0832 59.2147 44.9965 59.5703 44.9965C59.8636 44.9965 60.0991 45.0565 60.2769 45.1765C60.4591 45.2921 60.5903 45.4365 60.6703 45.6098H60.8303V45.0898H61.6503V49.0898H60.8303V48.5698H60.6703C60.5903 48.7343 60.4591 48.8765 60.2769 48.9965C60.0991 49.1165 59.8636 49.1765 59.5703 49.1765ZM59.7703 48.4965C60.0725 48.4965 60.3125 48.3698 60.4903 48.1165C60.6725 47.8587 60.7636 47.5165 60.7636 47.0898C60.7636 46.6587 60.6725 46.3165 60.4903 46.0632C60.3125 45.8054 60.0725 45.6765 59.7703 45.6765C59.4858 45.6765 59.2658 45.7987 59.1103 46.0432C58.9547 46.2832 58.8769 46.6321 58.8769 47.0898C58.8769 47.5476 58.9547 47.8965 59.1103 48.1365C59.2658 48.3765 59.4858 48.4965 59.7703 48.4965ZM64.3169 50.5165C63.988 50.5165 63.7169 50.4765 63.5036 50.3965C63.2947 50.3165 63.128 50.2121 63.0036 50.0832C62.8791 49.9587 62.788 49.8276 62.7303 49.6898C62.6769 49.5521 62.6436 49.4254 62.6303 49.3098H63.5169C63.5436 49.4476 63.6169 49.5721 63.7369 49.6832C63.8614 49.7987 64.0591 49.8565 64.3303 49.8565C64.628 49.8565 64.8547 49.7721 65.0103 49.6032C65.1658 49.4343 65.2436 49.1765 65.2436 48.8298V48.3698H65.0836C65.0169 48.5521 64.8991 48.701 64.7303 48.8165C64.5614 48.9276 64.3347 48.9832 64.0503 48.9832C63.5436 48.9832 63.1503 48.8032 62.8703 48.4432C62.5903 48.0832 62.4503 47.5943 62.4503 46.9765C62.4503 46.581 62.5103 46.2343 62.6303 45.9365C62.7547 45.6343 62.9369 45.401 63.1769 45.2365C63.4169 45.0721 63.708 44.9898 64.0503 44.9898C64.3436 44.9898 64.5725 45.0476 64.7369 45.1632C64.9058 45.2743 65.028 45.4165 65.1036 45.5898H65.2636V45.0898H66.0836V48.8298C66.0836 49.3721 65.9347 49.7876 65.6369 50.0765C65.3436 50.3698 64.9036 50.5165 64.3169 50.5165ZM64.2369 48.3032C64.5391 48.3032 64.7747 48.1832 64.9436 47.9432C65.1125 47.6987 65.1969 47.3787 65.1969 46.9832C65.1969 46.5876 65.1125 46.2698 64.9436 46.0298C64.7747 45.7898 64.5414 45.6698 64.2436 45.6698C63.9636 45.6698 63.7458 45.7832 63.5903 46.0098C63.4347 46.2321 63.3569 46.5565 63.3569 46.9832C63.3569 47.4187 63.4347 47.7476 63.5903 47.9698C63.7458 48.1921 63.9614 48.3032 64.2369 48.3032ZM68.7466 49.1898C68.1377 49.1898 67.6733 48.9987 67.3533 48.6165C67.0377 48.2343 66.8799 47.7232 66.8799 47.0832C66.8799 46.6565 66.9511 46.2876 67.0933 45.9765C67.2355 45.6654 67.4444 45.4232 67.7199 45.2498C67.9955 45.0765 68.3333 44.9898 68.7333 44.9898C69.3066 44.9898 69.7444 45.1698 70.0466 45.5298C70.3488 45.8854 70.4999 46.4054 70.4999 47.0898V47.3098H67.7533C67.7755 47.6743 67.8688 47.9676 68.0333 48.1898C68.2022 48.4121 68.4399 48.5232 68.7466 48.5232C68.9777 48.5232 69.1644 48.4565 69.3066 48.3232C69.4488 48.1898 69.5466 48.0187 69.5999 47.8098H70.4533C70.4044 48.0676 70.3111 48.301 70.1733 48.5098C70.0399 48.7143 69.8555 48.8787 69.6199 49.0032C69.3844 49.1276 69.0933 49.1898 68.7466 49.1898ZM67.7599 46.7098H69.6199C69.6066 46.3632 69.5222 46.0987 69.3666 45.9165C69.2155 45.7298 69.0022 45.6365 68.7266 45.6365C68.4466 45.6365 68.2244 45.7276 68.0599 45.9098C67.8955 46.0921 67.7955 46.3587 67.7599 46.7098ZM72.6128 49.1765C72.2572 49.1765 71.9594 49.0898 71.7194 48.9165C71.4839 48.7387 71.3061 48.4921 71.1861 48.1765C71.0661 47.861 71.0061 47.4965 71.0061 47.0832C71.0061 46.6654 71.0661 46.301 71.1861 45.9898C71.3105 45.6743 71.4905 45.4298 71.7261 45.2565C71.9661 45.0832 72.2594 44.9965 72.6061 44.9965C72.8728 44.9965 73.0905 45.0476 73.2594 45.1498C73.4283 45.2476 73.5572 45.381 73.6461 45.5498H73.8061V43.7565H74.7061V49.0898H73.8861V48.5698H73.7261C73.6461 48.7343 73.515 48.8765 73.3328 48.9965C73.155 49.1165 72.915 49.1765 72.6128 49.1765ZM72.8261 48.4965C73.1283 48.4965 73.3683 48.3698 73.5461 48.1165C73.7283 47.8587 73.8194 47.5165 73.8194 47.0898C73.8194 46.6587 73.7283 46.3165 73.5461 46.0632C73.3683 45.8054 73.1283 45.6765 72.8261 45.6765C72.5416 45.6765 72.3216 45.7987 72.1661 46.0432C72.0105 46.2832 71.9328 46.6321 71.9328 47.0898C71.9328 47.5476 72.0105 47.8965 72.1661 48.1365C72.3216 48.3765 72.5416 48.4965 72.8261 48.4965ZM39.3033 59.0898V53.8898H40.2167V55.9898H40.6167L42.2367 53.8898H43.2767V53.9298L41.3767 56.3232L43.5033 59.0498V59.0898H42.3833L40.6167 56.7632H40.2167V59.0898H39.3033ZM45.1403 59.1898C44.687 59.1898 44.3492 59.0476 44.127 58.7632C43.9092 58.4787 43.8003 58.1054 43.8003 57.6432V55.0898H44.7003V57.4765C44.7003 57.7832 44.7559 58.021 44.867 58.1898C44.9781 58.3587 45.1536 58.4432 45.3936 58.4432C45.6914 58.4432 45.9203 58.3276 46.0803 58.0965C46.2403 57.8654 46.3203 57.581 46.3203 57.2432V55.0898H47.2203V59.0898H46.4136V58.4898H46.2536C46.187 58.6987 46.0603 58.8676 45.8736 58.9965C45.6914 59.1254 45.447 59.1898 45.1403 59.1898ZM50.3833 59.1765C50.0811 59.1765 49.8389 59.1165 49.6567 58.9965C49.4789 58.8765 49.3478 58.7343 49.2633 58.5698H49.1033V59.0898H48.2833V53.7565H49.1833V55.5498H49.3433C49.4367 55.381 49.5678 55.2476 49.7367 55.1498C49.9056 55.0476 50.1233 54.9965 50.39 54.9965C50.7367 54.9965 51.0278 55.0832 51.2633 55.2565C51.5033 55.4298 51.6833 55.6743 51.8033 55.9898C51.9278 56.301 51.99 56.6654 51.99 57.0832C51.99 57.4965 51.9278 57.861 51.8033 58.1765C51.6833 58.4921 51.5033 58.7387 51.2633 58.9165C51.0278 59.0898 50.7344 59.1765 50.3833 59.1765ZM50.1633 58.4965C50.4478 58.4965 50.6678 58.3765 50.8233 58.1365C50.9833 57.8965 51.0633 57.5476 51.0633 57.0898C51.0633 56.6321 50.9833 56.2832 50.8233 56.0432C50.6678 55.7987 50.4478 55.6765 50.1633 55.6765C49.8611 55.6765 49.6211 55.8054 49.4433 56.0632C49.2656 56.3165 49.1767 56.6587 49.1767 57.0898C49.1767 57.5165 49.2656 57.8587 49.4433 58.1165C49.6211 58.3698 49.8611 58.4965 50.1633 58.4965ZM54.3833 59.1898C53.7744 59.1898 53.31 58.9987 52.99 58.6165C52.6744 58.2343 52.5167 57.7232 52.5167 57.0832C52.5167 56.6565 52.5878 56.2876 52.73 55.9765C52.8722 55.6654 53.0811 55.4232 53.3567 55.2498C53.6322 55.0765 53.97 54.9898 54.37 54.9898C54.9433 54.9898 55.3811 55.1698 55.6833 55.5298C55.9856 55.8854 56.1367 56.4054 56.1367 57.0898V57.3098H53.39C53.4122 57.6743 53.5056 57.9676 53.67 58.1898C53.8389 58.4121 54.0767 58.5232 54.3833 58.5232C54.6144 58.5232 54.8011 58.4565 54.9433 58.3232C55.0856 58.1898 55.1833 58.0187 55.2367 57.8098H56.09C56.0411 58.0676 55.9478 58.301 55.81 58.5098C55.6767 58.7143 55.4922 58.8787 55.2567 59.0032C55.0211 59.1276 54.73 59.1898 54.3833 59.1898ZM53.3967 56.7098H55.2567C55.2433 56.3632 55.1589 56.0987 55.0033 55.9165C54.8522 55.7298 54.6389 55.6365 54.3633 55.6365C54.0833 55.6365 53.8611 55.7276 53.6967 55.9098C53.5322 56.0921 53.4322 56.3587 53.3967 56.7098ZM56.9161 59.0898V55.0898H57.7295V55.7965H57.8895C57.9161 55.6721 57.965 55.5543 58.0361 55.4432C58.1073 55.3276 58.2161 55.2343 58.3628 55.1632C58.5139 55.0876 58.7184 55.0498 58.9761 55.0498H59.1495V55.8765H58.9028C58.5161 55.8765 58.2384 55.9765 58.0695 56.1765C57.9006 56.3721 57.8161 56.6765 57.8161 57.0898V59.0898H56.9161ZM59.8849 59.0898V55.0898H60.7049V55.6898H60.8649C60.9449 55.4765 61.0716 55.3076 61.2449 55.1832C61.4227 55.0543 61.6649 54.9898 61.9716 54.9898C62.4293 54.9898 62.7649 55.1321 62.9782 55.4165C63.196 55.6965 63.3049 56.0698 63.3049 56.5365V59.0898H62.4049V56.7032C62.4049 56.3921 62.3493 56.1543 62.2382 55.9898C62.1271 55.821 61.9516 55.7365 61.7116 55.7365C61.4182 55.7365 61.1893 55.8521 61.0249 56.0832C60.8649 56.3098 60.7849 56.5921 60.7849 56.9298V59.0898H59.8849ZM65.9146 59.1898C65.3057 59.1898 64.8413 58.9987 64.5213 58.6165C64.2057 58.2343 64.0479 57.7232 64.0479 57.0832C64.0479 56.6565 64.119 56.2876 64.2613 55.9765C64.4035 55.6654 64.6124 55.4232 64.8879 55.2498C65.1635 55.0765 65.5013 54.9898 65.9013 54.9898C66.4746 54.9898 66.9124 55.1698 67.2146 55.5298C67.5168 55.8854 67.6679 56.4054 67.6679 57.0898V57.3098H64.9212C64.9435 57.6743 65.0368 57.9676 65.2013 58.1898C65.3701 58.4121 65.6079 58.5232 65.9146 58.5232C66.1457 58.5232 66.3324 58.4565 66.4746 58.3232C66.6168 58.1898 66.7146 58.0187 66.7679 57.8098H67.6213C67.5724 58.0676 67.479 58.301 67.3413 58.5098C67.2079 58.7143 67.0235 58.8787 66.7879 59.0032C66.5524 59.1276 66.2613 59.1898 65.9146 59.1898ZM64.9279 56.7098H66.7879C66.7746 56.3632 66.6901 56.0987 66.5346 55.9165C66.3835 55.7298 66.1701 55.6365 65.8946 55.6365C65.6146 55.6365 65.3924 55.7276 65.2279 55.9098C65.0635 56.0921 64.9635 56.3587 64.9279 56.7098ZM68.9941 59.0898C68.8918 58.9698 68.8096 58.8254 68.7474 58.6565C68.6896 58.4876 68.6607 58.2343 68.6607 57.8965V55.7498H68.1141V55.0898H68.6741V54.0898H69.5541V55.0898H70.2141V55.7498H69.5607V57.7832C69.5607 58.1387 69.5985 58.4098 69.6741 58.5965C69.7541 58.7787 69.8496 58.9298 69.9607 59.0498V59.0898H68.9941ZM72.5474 59.1898C71.9385 59.1898 71.4741 58.9987 71.1541 58.6165C70.8385 58.2343 70.6807 57.7232 70.6807 57.0832C70.6807 56.6565 70.7518 56.2876 70.8941 55.9765C71.0363 55.6654 71.2452 55.4232 71.5207 55.2498C71.7963 55.0765 72.1341 54.9898 72.5341 54.9898C73.1074 54.9898 73.5452 55.1698 73.8474 55.5298C74.1496 55.8854 74.3007 56.4054 74.3007 57.0898V57.3098H71.5541C71.5763 57.6743 71.6696 57.9676 71.8341 58.1898C72.003 58.4121 72.2407 58.5232 72.5474 58.5232C72.7785 58.5232 72.9652 58.4565 73.1074 58.3232C73.2496 58.1898 73.3474 58.0187 73.4007 57.8098H74.2541C74.2052 58.0676 74.1118 58.301 73.9741 58.5098C73.8407 58.7143 73.6563 58.8787 73.4207 59.0032C73.1852 59.1276 72.8941 59.1898 72.5474 59.1898ZM71.5607 56.7098H73.4207C73.4074 56.3632 73.323 56.0987 73.1674 55.9165C73.0163 55.7298 72.803 55.6365 72.5274 55.6365C72.2474 55.6365 72.0252 55.7276 71.8607 55.9098C71.6963 56.0921 71.5963 56.3587 71.5607 56.7098ZM76.4802 59.1898C76.0758 59.1898 75.7469 59.1232 75.4935 58.9898C75.2402 58.8521 75.0535 58.6765 74.9335 58.4632C74.8135 58.2498 74.7447 58.0321 74.7269 57.8098H75.5935C75.6113 57.9343 75.6558 58.0521 75.7269 58.1632C75.8024 58.2743 75.9047 58.3632 76.0335 58.4298C76.1624 58.4965 76.3247 58.5298 76.5202 58.5298C76.7424 58.5298 76.9091 58.4876 77.0202 58.4032C77.1313 58.3143 77.1869 58.1987 77.1869 58.0565C77.1869 57.9321 77.1402 57.8276 77.0469 57.7432C76.9535 57.6543 76.8069 57.5765 76.6069 57.5098L76.1269 57.3432C75.9047 57.2632 75.7024 57.1765 75.5202 57.0832C75.338 56.9854 75.1913 56.8632 75.0802 56.7165C74.9691 56.5698 74.9135 56.381 74.9135 56.1498C74.9135 55.7987 75.0424 55.5187 75.3002 55.3098C75.558 55.0965 75.918 54.9898 76.3802 54.9898C76.7135 54.9898 76.9869 55.0454 77.2002 55.1565C77.418 55.2632 77.5824 55.4098 77.6935 55.5965C77.8047 55.7787 77.8691 55.9832 77.8869 56.2098H77.0535C77.0358 56.0454 76.9691 55.9076 76.8535 55.7965C76.7424 55.6854 76.5735 55.6298 76.3469 55.6298C76.1558 55.6298 76.0091 55.6698 75.9069 55.7498C75.8091 55.8254 75.7602 55.9321 75.7602 56.0698C75.7602 56.2032 75.8091 56.3143 75.9069 56.4032C76.0091 56.4876 76.1624 56.5654 76.3669 56.6365L76.8402 56.7898C77.0624 56.8654 77.2647 56.9521 77.4469 57.0498C77.6291 57.1432 77.7713 57.2654 77.8735 57.4165C77.9802 57.5632 78.0335 57.7521 78.0335 57.9832C78.0335 58.3432 77.9002 58.6343 77.6335 58.8565C77.3713 59.0787 76.9869 59.1898 76.4802 59.1898Z" fill="#EEEEF0"/>
<rect x="38.2676" y="89.4316" width="42.5648" height="25.2752" fill="#0F0F11"/>
<path d="M43.3561 100.069V94.8693H45.0227L46.1961 99.3293H46.3961L47.5827 94.8693H49.2494V100.069H48.3561V95.6493H48.1894L47.0361 100.069H45.5094L44.3561 95.6493H44.1894V100.069H43.3561ZM51.6894 100.156C51.3294 100.156 51.0294 100.069 50.7894 99.896C50.5494 99.7182 50.3694 99.4716 50.2494 99.156C50.1294 98.8404 50.0694 98.476 50.0694 98.0627C50.0694 97.6449 50.1294 97.2804 50.2494 96.9693C50.3738 96.6538 50.5561 96.4093 50.7961 96.236C51.0361 96.0627 51.3338 95.976 51.6894 95.976C51.9827 95.976 52.2183 96.036 52.3961 96.156C52.5783 96.2716 52.7094 96.416 52.7894 96.5893H52.9494V96.0693H53.7694V100.069H52.9494V99.5493H52.7894C52.7094 99.7138 52.5783 99.856 52.3961 99.976C52.2183 100.096 51.9827 100.156 51.6894 100.156ZM51.8894 99.476C52.1916 99.476 52.4316 99.3493 52.6094 99.096C52.7916 98.8382 52.8827 98.496 52.8827 98.0693C52.8827 97.6382 52.7916 97.296 52.6094 97.0427C52.4316 96.7849 52.1916 96.656 51.8894 96.656C51.605 96.656 51.385 96.7782 51.2294 97.0227C51.0738 97.2627 50.9961 97.6116 50.9961 98.0693C50.9961 98.5271 51.0738 98.876 51.2294 99.116C51.385 99.356 51.605 99.476 51.8894 99.476ZM54.8361 100.069V96.0693H55.6561V96.6693H55.8161C55.8961 96.456 56.0227 96.2871 56.1961 96.1627C56.3738 96.0338 56.6161 95.9693 56.9227 95.9693C57.3805 95.9693 57.7161 96.1116 57.9294 96.396C58.1472 96.676 58.2561 97.0493 58.2561 97.516V100.069H57.3561V97.6827C57.3561 97.3716 57.3005 97.1338 57.1894 96.9693C57.0783 96.8004 56.9027 96.716 56.6627 96.716C56.3694 96.716 56.1405 96.8316 55.9761 97.0627C55.8161 97.2893 55.7361 97.5716 55.7361 97.9093V100.069H54.8361ZM60.6191 100.156C60.2591 100.156 59.9591 100.069 59.7191 99.896C59.4791 99.7182 59.2991 99.4716 59.1791 99.156C59.0591 98.8404 58.9991 98.476 58.9991 98.0627C58.9991 97.6449 59.0591 97.2804 59.1791 96.9693C59.3035 96.6538 59.4858 96.4093 59.7258 96.236C59.9658 96.0627 60.2635 95.976 60.6191 95.976C60.9124 95.976 61.148 96.036 61.3258 96.156C61.508 96.2716 61.6391 96.416 61.7191 96.5893H61.8791V96.0693H62.6991V100.069H61.8791V99.5493H61.7191C61.6391 99.7138 61.508 99.856 61.3258 99.976C61.148 100.096 60.9124 100.156 60.6191 100.156ZM60.8191 99.476C61.1213 99.476 61.3613 99.3493 61.5391 99.096C61.7213 98.8382 61.8124 98.496 61.8124 98.0693C61.8124 97.6382 61.7213 97.296 61.5391 97.0427C61.3613 96.7849 61.1213 96.656 60.8191 96.656C60.5346 96.656 60.3146 96.7782 60.1591 97.0227C60.0035 97.2627 59.9258 97.6116 59.9258 98.0693C59.9258 98.5271 60.0035 98.876 60.1591 99.116C60.3146 99.356 60.5346 99.476 60.8191 99.476ZM65.3658 101.496C65.0369 101.496 64.7658 101.456 64.5524 101.376C64.3435 101.296 64.1769 101.192 64.0524 101.063C63.928 100.938 63.8369 100.807 63.7791 100.669C63.7258 100.532 63.6924 100.405 63.6791 100.289H64.5658C64.5924 100.427 64.6658 100.552 64.7858 100.663C64.9102 100.778 65.108 100.836 65.3791 100.836C65.6769 100.836 65.9035 100.752 66.0591 100.583C66.2146 100.414 66.2924 100.156 66.2924 99.8093V99.3493H66.1324C66.0658 99.5316 65.948 99.6804 65.7791 99.796C65.6102 99.9071 65.3835 99.9627 65.0991 99.9627C64.5924 99.9627 64.1991 99.7827 63.9191 99.4227C63.6391 99.0627 63.4991 98.5738 63.4991 97.956C63.4991 97.5604 63.5591 97.2138 63.6791 96.916C63.8035 96.6138 63.9858 96.3804 64.2258 96.216C64.4658 96.0516 64.7569 95.9693 65.0991 95.9693C65.3924 95.9693 65.6213 96.0271 65.7858 96.1427C65.9546 96.2538 66.0769 96.396 66.1524 96.5693H66.3124V96.0693H67.1324V99.8093C67.1324 100.352 66.9835 100.767 66.6858 101.056C66.3924 101.349 65.9524 101.496 65.3658 101.496ZM65.2858 99.2827C65.588 99.2827 65.8235 99.1627 65.9924 98.9227C66.1613 98.6782 66.2458 98.3582 66.2458 97.9627C66.2458 97.5671 66.1613 97.2493 65.9924 97.0093C65.8235 96.7693 65.5902 96.6493 65.2924 96.6493C65.0124 96.6493 64.7946 96.7627 64.6391 96.9893C64.4835 97.2116 64.4058 97.536 64.4058 97.9627C64.4058 98.3982 64.4835 98.7271 64.6391 98.9493C64.7946 99.1716 65.0102 99.2827 65.2858 99.2827ZM69.7954 100.169C69.1866 100.169 68.7221 99.9782 68.4021 99.596C68.0866 99.2138 67.9288 98.7027 67.9288 98.0627C67.9288 97.636 67.9999 97.2671 68.1421 96.956C68.2843 96.6449 68.4932 96.4027 68.7688 96.2293C69.0443 96.056 69.3821 95.9693 69.7821 95.9693C70.3554 95.9693 70.7932 96.1493 71.0954 96.5093C71.3977 96.8649 71.5488 97.3849 71.5488 98.0693V98.2893H68.8021C68.8243 98.6538 68.9177 98.9471 69.0821 99.1693C69.251 99.3916 69.4888 99.5027 69.7954 99.5027C70.0266 99.5027 70.2132 99.436 70.3554 99.3027C70.4977 99.1693 70.5954 98.9982 70.6488 98.7893H71.5021C71.4532 99.0471 71.3599 99.2804 71.2221 99.4893C71.0888 99.6938 70.9043 99.8582 70.6688 99.9827C70.4332 100.107 70.1421 100.169 69.7954 100.169ZM68.8088 97.6893H70.6688C70.6554 97.3427 70.571 97.0782 70.4154 96.896C70.2643 96.7093 70.051 96.616 69.7754 96.616C69.4954 96.616 69.2732 96.7071 69.1088 96.8893C68.9443 97.0716 68.8443 97.3382 68.8088 97.6893ZM73.6616 100.156C73.306 100.156 73.0083 100.069 72.7683 99.896C72.5327 99.7182 72.3549 99.4716 72.2349 99.156C72.1149 98.8404 72.0549 98.476 72.0549 98.0627C72.0549 97.6449 72.1149 97.2804 72.2349 96.9693C72.3594 96.6538 72.5394 96.4093 72.7749 96.236C73.0149 96.0627 73.3083 95.976 73.6549 95.976C73.9216 95.976 74.1394 96.0271 74.3083 96.1293C74.4771 96.2271 74.606 96.3604 74.6949 96.5293H74.8549V94.736H75.7549V100.069H74.9349V99.5493H74.7749C74.6949 99.7138 74.5638 99.856 74.3816 99.976C74.2038 100.096 73.9638 100.156 73.6616 100.156ZM73.8749 99.476C74.1771 99.476 74.4171 99.3493 74.5949 99.096C74.7771 98.8382 74.8683 98.496 74.8683 98.0693C74.8683 97.6382 74.7771 97.296 74.5949 97.0427C74.4171 96.7849 74.1771 96.656 73.8749 96.656C73.5905 96.656 73.3705 96.7782 73.2149 97.0227C73.0594 97.2627 72.9816 97.6116 72.9816 98.0693C72.9816 98.5271 73.0594 98.876 73.2149 99.116C73.3705 99.356 73.5905 99.476 73.8749 99.476ZM43.3655 110.069V104.869H44.2988V110.069H43.3655ZM45.4025 110.069V106.069H46.2225V106.669H46.3825C46.4625 106.456 46.5891 106.287 46.7625 106.163C46.9403 106.034 47.1825 105.969 47.4891 105.969C47.9469 105.969 48.2825 106.112 48.4958 106.396C48.7136 106.676 48.8225 107.049 48.8225 107.516V110.069H47.9225V107.683C47.9225 107.372 47.8669 107.134 47.7558 106.969C47.6447 106.8 47.4691 106.716 47.2291 106.716C46.9358 106.716 46.7069 106.832 46.5425 107.063C46.3825 107.289 46.3025 107.572 46.3025 107.909V110.069H45.4025ZM51.2322 110.169C50.8277 110.169 50.4988 110.103 50.2455 109.969C49.9922 109.832 49.8055 109.656 49.6855 109.443C49.5655 109.229 49.4966 109.012 49.4788 108.789H50.3455C50.3633 108.914 50.4077 109.032 50.4788 109.143C50.5544 109.254 50.6566 109.343 50.7855 109.409C50.9144 109.476 51.0766 109.509 51.2722 109.509C51.4944 109.509 51.6611 109.467 51.7722 109.383C51.8833 109.294 51.9388 109.178 51.9388 109.036C51.9388 108.912 51.8922 108.807 51.7988 108.723C51.7055 108.634 51.5588 108.556 51.3588 108.489L50.8788 108.323C50.6566 108.243 50.4544 108.156 50.2722 108.063C50.0899 107.965 49.9433 107.843 49.8322 107.696C49.7211 107.549 49.6655 107.36 49.6655 107.129C49.6655 106.778 49.7944 106.498 50.0522 106.289C50.3099 106.076 50.6699 105.969 51.1322 105.969C51.4655 105.969 51.7388 106.025 51.9522 106.136C52.1699 106.243 52.3344 106.389 52.4455 106.576C52.5566 106.758 52.6211 106.963 52.6388 107.189H51.8055C51.7877 107.025 51.7211 106.887 51.6055 106.776C51.4944 106.665 51.3255 106.609 51.0988 106.609C50.9077 106.609 50.7611 106.649 50.6588 106.729C50.5611 106.805 50.5122 106.912 50.5122 107.049C50.5122 107.183 50.5611 107.294 50.6588 107.383C50.7611 107.467 50.9144 107.545 51.1188 107.616L51.5922 107.769C51.8144 107.845 52.0166 107.932 52.1988 108.029C52.3811 108.123 52.5233 108.245 52.6255 108.396C52.7322 108.543 52.7855 108.732 52.7855 108.963C52.7855 109.323 52.6522 109.614 52.3855 109.836C52.1233 110.058 51.7388 110.169 51.2322 110.169ZM54.082 110.069C53.9797 109.949 53.8975 109.805 53.8353 109.636C53.7775 109.467 53.7486 109.214 53.7486 108.876V106.729H53.202V106.069H53.762V105.069H54.642V106.069H55.302V106.729H54.6486V108.763C54.6486 109.118 54.6864 109.389 54.762 109.576C54.842 109.758 54.9375 109.909 55.0486 110.029V110.069H54.082ZM57.3886 110.156C57.0286 110.156 56.7286 110.069 56.4886 109.896C56.2486 109.718 56.0686 109.472 55.9486 109.156C55.8286 108.84 55.7686 108.476 55.7686 108.063C55.7686 107.645 55.8286 107.28 55.9486 106.969C56.0731 106.654 56.2553 106.409 56.4953 106.236C56.7353 106.063 57.0331 105.976 57.3886 105.976C57.682 105.976 57.9175 106.036 58.0953 106.156C58.2775 106.272 58.4086 106.416 58.4886 106.589H58.6486V106.069H59.4686V110.069H58.6486V109.549H58.4886C58.4086 109.714 58.2775 109.856 58.0953 109.976C57.9175 110.096 57.682 110.156 57.3886 110.156ZM57.5886 109.476C57.8908 109.476 58.1308 109.349 58.3086 109.096C58.4908 108.838 58.582 108.496 58.582 108.069C58.582 107.638 58.4908 107.296 58.3086 107.043C58.1308 106.785 57.8908 106.656 57.5886 106.656C57.3042 106.656 57.0842 106.778 56.9286 107.023C56.7731 107.263 56.6953 107.612 56.6953 108.069C56.6953 108.527 56.7731 108.876 56.9286 109.116C57.0842 109.356 57.3042 109.476 57.5886 109.476ZM60.5353 110.069V106.069H61.3553V106.669H61.5153C61.5953 106.456 61.722 106.287 61.8953 106.163C62.0731 106.034 62.3153 105.969 62.622 105.969C63.0797 105.969 63.4153 106.112 63.6286 106.396C63.8464 106.676 63.9553 107.049 63.9553 107.516V110.069H63.0553V107.683C63.0553 107.372 62.9997 107.134 62.8886 106.969C62.7775 106.8 62.602 106.716 62.362 106.716C62.0686 106.716 61.8397 106.832 61.6753 107.063C61.5153 107.289 61.4353 107.572 61.4353 107.909V110.069H60.5353ZM66.5183 110.169C65.9183 110.169 65.465 109.978 65.1583 109.596C64.8516 109.214 64.6983 108.705 64.6983 108.069C64.6983 107.407 64.8583 106.892 65.1783 106.523C65.4983 106.154 65.9472 105.969 66.525 105.969C67.0228 105.969 67.4183 106.105 67.7116 106.376C68.005 106.643 68.1828 107.018 68.245 107.503H67.3583C67.3228 107.227 67.2339 107.016 67.0916 106.869C66.9539 106.718 66.7694 106.643 66.5383 106.643C66.2316 106.643 66.0028 106.769 65.8516 107.023C65.7005 107.272 65.625 107.62 65.625 108.069C65.625 108.518 65.7005 108.869 65.8516 109.123C66.0028 109.372 66.2294 109.496 66.5316 109.496C66.7672 109.496 66.9539 109.42 67.0916 109.269C67.2339 109.118 67.3228 108.907 67.3583 108.636H68.245C68.1783 109.116 67.9961 109.492 67.6983 109.763C67.405 110.034 67.0116 110.169 66.5183 110.169ZM70.5962 110.169C69.9873 110.169 69.5229 109.978 69.2029 109.596C68.8873 109.214 68.7296 108.703 68.7296 108.063C68.7296 107.636 68.8007 107.267 68.9429 106.956C69.0851 106.645 69.294 106.403 69.5696 106.229C69.8451 106.056 70.1829 105.969 70.5829 105.969C71.1562 105.969 71.594 106.149 71.8962 106.509C72.1984 106.865 72.3496 107.385 72.3496 108.069V108.289H69.6029C69.6251 108.654 69.7184 108.947 69.8829 109.169C70.0518 109.392 70.2896 109.503 70.5962 109.503C70.8273 109.503 71.014 109.436 71.1562 109.303C71.2984 109.169 71.3962 108.998 71.4496 108.789H72.3029C72.254 109.047 72.1607 109.28 72.0229 109.489C71.8896 109.694 71.7051 109.858 71.4696 109.983C71.234 110.107 70.9429 110.169 70.5962 110.169ZM69.6096 107.689H71.4696C71.4562 107.343 71.3718 107.078 71.2162 106.896C71.0651 106.709 70.8518 106.616 70.5762 106.616C70.2962 106.616 70.074 106.707 69.9096 106.889C69.7451 107.072 69.6451 107.338 69.6096 107.689ZM74.529 110.169C74.1246 110.169 73.7957 110.103 73.5424 109.969C73.289 109.832 73.1024 109.656 72.9824 109.443C72.8624 109.229 72.7935 109.012 72.7757 108.789H73.6424C73.6601 108.914 73.7046 109.032 73.7757 109.143C73.8513 109.254 73.9535 109.343 74.0824 109.409C74.2113 109.476 74.3735 109.509 74.569 109.509C74.7913 109.509 74.9579 109.467 75.069 109.383C75.1801 109.294 75.2357 109.178 75.2357 109.036C75.2357 108.912 75.189 108.807 75.0957 108.723C75.0024 108.634 74.8557 108.556 74.6557 108.489L74.1757 108.323C73.9535 108.243 73.7513 108.156 73.569 108.063C73.3868 107.965 73.2401 107.843 73.129 107.696C73.0179 107.549 72.9624 107.36 72.9624 107.129C72.9624 106.778 73.0913 106.498 73.349 106.289C73.6068 106.076 73.9668 105.969 74.429 105.969C74.7624 105.969 75.0357 106.025 75.249 106.136C75.4668 106.243 75.6313 106.389 75.7424 106.576C75.8535 106.758 75.9179 106.963 75.9357 107.189H75.1024C75.0846 107.025 75.0179 106.887 74.9024 106.776C74.7913 106.665 74.6224 106.609 74.3957 106.609C74.2046 106.609 74.0579 106.649 73.9557 106.729C73.8579 106.805 73.809 106.912 73.809 107.049C73.809 107.183 73.8579 107.294 73.9557 107.383C74.0579 107.467 74.2113 107.545 74.4157 107.616L74.889 107.769C75.1113 107.845 75.3135 107.932 75.4957 108.029C75.6779 108.123 75.8201 108.245 75.9224 108.396C76.029 108.543 76.0824 108.732 76.0824 108.963C76.0824 109.323 75.949 109.614 75.6824 109.836C75.4201 110.058 75.0357 110.169 74.529 110.169Z" fill="#EEEEF0"/>
<rect x="227.215" y="63.3965" width="53.84" height="25.0395" fill="#0F0F11"/>
<path d="M231.274 73.916V68.716H233.054C233.965 68.716 234.625 68.9449 235.034 69.4027C235.443 69.856 235.647 70.4938 235.647 71.316C235.647 72.1382 235.443 72.7782 235.034 73.236C234.625 73.6893 233.965 73.916 233.054 73.916H231.274ZM232.214 73.1693H232.987C233.383 73.1693 233.705 73.1071 233.954 72.9827C234.207 72.8582 234.392 72.6605 234.507 72.3893C234.627 72.1138 234.687 71.756 234.687 71.316C234.687 70.8716 234.627 70.5138 234.507 70.2427C234.392 69.9716 234.207 69.7738 233.954 69.6493C233.705 69.5249 233.383 69.4627 232.987 69.4627H232.214V73.1693ZM238.018 74.016C237.409 74.016 236.945 73.8249 236.625 73.4427C236.309 73.0605 236.151 72.5493 236.151 71.9093C236.151 71.4827 236.223 71.1138 236.365 70.8027C236.507 70.4916 236.716 70.2493 236.991 70.076C237.267 69.9027 237.605 69.816 238.005 69.816C238.578 69.816 239.016 69.996 239.318 70.356C239.62 70.7116 239.771 71.2316 239.771 71.916V72.136H237.025C237.047 72.5005 237.14 72.7938 237.305 73.016C237.474 73.2382 237.711 73.3493 238.018 73.3493C238.249 73.3493 238.436 73.2827 238.578 73.1493C238.72 73.016 238.818 72.8449 238.871 72.636H239.725C239.676 72.8938 239.583 73.1271 239.445 73.336C239.311 73.5405 239.127 73.7049 238.891 73.8293C238.656 73.9538 238.365 74.016 238.018 74.016ZM237.031 71.536H238.891C238.878 71.1893 238.794 70.9249 238.638 70.7427C238.487 70.556 238.274 70.4627 237.998 70.4627C237.718 70.4627 237.496 70.5538 237.331 70.736C237.167 70.9182 237.067 71.1849 237.031 71.536ZM241.234 73.916L240.047 69.956V69.916H240.954L241.887 73.176H242.047L242.987 69.916H243.814V69.956L242.634 73.916H241.234ZM246.049 74.016C245.44 74.016 244.976 73.8249 244.656 73.4427C244.34 73.0605 244.183 72.5493 244.183 71.9093C244.183 71.4827 244.254 71.1138 244.396 70.8027C244.538 70.4916 244.747 70.2493 245.023 70.076C245.298 69.9027 245.636 69.816 246.036 69.816C246.609 69.816 247.047 69.996 247.349 70.356C247.652 70.7116 247.803 71.2316 247.803 71.916V72.136H245.056C245.078 72.5005 245.172 72.7938 245.336 73.016C245.505 73.2382 245.743 73.3493 246.049 73.3493C246.28 73.3493 246.467 73.2827 246.609 73.1493C246.752 73.016 246.849 72.8449 246.903 72.636H247.756C247.707 72.8938 247.614 73.1271 247.476 73.336C247.343 73.5405 247.158 73.7049 246.923 73.8293C246.687 73.9538 246.396 74.016 246.049 74.016ZM245.063 71.536H246.923C246.909 71.1893 246.825 70.9249 246.669 70.7427C246.518 70.556 246.305 70.4627 246.029 70.4627C245.749 70.4627 245.527 70.5538 245.363 70.736C245.198 70.9182 245.098 71.1849 245.063 71.536ZM248.895 73.916C248.784 73.7827 248.7 73.6293 248.642 73.456C248.589 73.2827 248.562 73.0382 248.562 72.7227V68.5827H249.462V72.616C249.462 72.9627 249.5 73.2293 249.575 73.416C249.651 73.5982 249.749 73.7516 249.869 73.876V73.916H248.895ZM252.179 74.016C251.543 74.016 251.07 73.8271 250.759 73.4493C250.448 73.0671 250.292 72.556 250.292 71.916C250.292 71.276 250.448 70.7671 250.759 70.3893C251.07 70.0071 251.543 69.816 252.179 69.816C252.814 69.816 253.288 70.0071 253.599 70.3893C253.91 70.7671 254.065 71.276 254.065 71.916C254.065 72.556 253.91 73.0671 253.599 73.4493C253.288 73.8271 252.814 74.016 252.179 74.016ZM252.179 73.3627C252.508 73.3627 252.75 73.2382 252.905 72.9893C253.061 72.736 253.139 72.3782 253.139 71.916C253.139 71.4493 253.061 71.0916 252.905 70.8427C252.75 70.5938 252.508 70.4693 252.179 70.4693C251.845 70.4693 251.601 70.5938 251.445 70.8427C251.294 71.0916 251.219 71.4493 251.219 71.916C251.219 72.3782 251.294 72.736 251.445 72.9893C251.601 73.2382 251.845 73.3627 252.179 73.3627ZM254.856 75.2493V69.916H255.676V70.436H255.836C255.92 70.2716 256.051 70.1293 256.229 70.0093C256.411 69.8849 256.653 69.8227 256.956 69.8227C257.307 69.8227 257.6 69.9116 257.836 70.0893C258.076 70.2627 258.256 70.5071 258.376 70.8227C258.5 71.1382 258.562 71.5027 258.562 71.916C258.562 72.3338 258.5 72.7005 258.376 73.016C258.256 73.3271 258.076 73.5693 257.836 73.7427C257.6 73.916 257.309 74.0027 256.962 74.0027C256.696 74.0027 256.478 73.9538 256.309 73.856C256.14 73.7538 256.009 73.6205 255.916 73.456H255.756V75.2493H254.856ZM256.736 73.3227C257.02 73.3227 257.24 73.2027 257.396 72.9627C257.556 72.7227 257.636 72.3738 257.636 71.916C257.636 71.4582 257.556 71.1093 257.396 70.8693C257.24 70.6249 257.02 70.5027 256.736 70.5027C256.433 70.5027 256.193 70.6316 256.016 70.8893C255.838 71.1427 255.749 71.4849 255.749 71.916C255.749 72.3427 255.838 72.6849 256.016 72.9427C256.193 73.196 256.433 73.3227 256.736 73.3227ZM259.356 73.916V69.916H260.176V70.516H260.336C260.407 70.3071 260.527 70.1382 260.696 70.0093C260.864 69.8805 261.096 69.816 261.389 69.816C261.669 69.816 261.9 69.8782 262.082 70.0027C262.269 70.1271 262.407 70.2982 262.496 70.516H262.656C262.736 70.3027 262.862 70.1338 263.036 70.0093C263.213 69.8805 263.449 69.816 263.742 69.816C264.178 69.816 264.498 69.9582 264.702 70.2427C264.907 70.5227 265.009 70.896 265.009 71.3627V73.916H264.109V71.5293C264.109 71.2182 264.058 70.9805 263.956 70.816C263.858 70.6471 263.698 70.5627 263.476 70.5627C263.204 70.5627 262.996 70.6782 262.849 70.9093C262.707 71.136 262.636 71.4182 262.636 71.756V73.916H261.736V71.5293C261.736 71.2182 261.684 70.9805 261.582 70.816C261.484 70.6471 261.324 70.5627 261.102 70.5627C260.831 70.5627 260.622 70.6782 260.476 70.9093C260.329 71.136 260.256 71.4182 260.256 71.756V73.916H259.356ZM267.62 74.016C267.011 74.016 266.546 73.8249 266.226 73.4427C265.911 73.0605 265.753 72.5493 265.753 71.9093C265.753 71.4827 265.824 71.1138 265.966 70.8027C266.109 70.4916 266.317 70.2493 266.593 70.076C266.869 69.9027 267.206 69.816 267.606 69.816C268.18 69.816 268.617 69.996 268.92 70.356C269.222 70.7116 269.373 71.2316 269.373 71.916V72.136H266.626C266.649 72.5005 266.742 72.7938 266.906 73.016C267.075 73.2382 267.313 73.3493 267.62 73.3493C267.851 73.3493 268.037 73.2827 268.18 73.1493C268.322 73.016 268.42 72.8449 268.473 72.636H269.326C269.277 72.8938 269.184 73.1271 269.046 73.336C268.913 73.5405 268.729 73.7049 268.493 73.8293C268.257 73.9538 267.966 74.016 267.62 74.016ZM266.633 71.536H268.493C268.48 71.1893 268.395 70.9249 268.24 70.7427C268.089 70.556 267.875 70.4627 267.6 70.4627C267.32 70.4627 267.097 70.5538 266.933 70.736C266.769 70.9182 266.669 71.1849 266.633 71.536ZM270.152 73.916V69.916H270.972V70.516H271.132C271.212 70.3027 271.339 70.1338 271.512 70.0093C271.69 69.8805 271.932 69.816 272.239 69.816C272.697 69.816 273.032 69.9582 273.246 70.2427C273.464 70.5227 273.572 70.896 273.572 71.3627V73.916H272.672V71.5293C272.672 71.2182 272.617 70.9805 272.506 70.816C272.395 70.6471 272.219 70.5627 271.979 70.5627C271.686 70.5627 271.457 70.6782 271.292 70.9093C271.132 71.136 271.052 71.4182 271.052 71.756V73.916H270.152ZM275.129 73.916C275.027 73.796 274.944 73.6516 274.882 73.4827C274.824 73.3138 274.795 73.0605 274.795 72.7227V70.576H274.249V69.916H274.809V68.916H275.689V69.916H276.349V70.576H275.695V72.6093C275.695 72.9649 275.733 73.236 275.809 73.4227C275.889 73.6049 275.984 73.756 276.095 73.876V73.916H275.129ZM239.11 84.016C238.373 84.016 237.799 83.7782 237.39 83.3027C236.982 82.8271 236.777 82.1649 236.777 81.316C236.777 80.4671 236.979 79.8049 237.384 79.3293C237.793 78.8538 238.366 78.616 239.104 78.616C239.539 78.616 239.915 78.6982 240.23 78.8627C240.546 79.0271 240.793 79.256 240.97 79.5493C241.153 79.8427 241.262 80.1827 241.297 80.5693H240.364C240.324 80.1871 240.193 79.8871 239.97 79.6693C239.748 79.4471 239.459 79.336 239.104 79.336C238.659 79.336 238.319 79.5093 238.084 79.856C237.853 80.1982 237.737 80.6849 237.737 81.316C237.737 81.9605 237.855 82.4516 238.09 82.7893C238.33 83.1271 238.666 83.296 239.097 83.296C239.47 83.296 239.766 83.1805 239.984 82.9493C240.202 82.7182 240.328 82.4227 240.364 82.0627H241.297C241.262 82.4449 241.153 82.7849 240.97 83.0827C240.793 83.376 240.546 83.6049 240.23 83.7693C239.919 83.9338 239.546 84.016 239.11 84.016ZM243.659 84.016C243.024 84.016 242.55 83.8271 242.239 83.4493C241.928 83.0671 241.773 82.556 241.773 81.916C241.773 81.276 241.928 80.7671 242.239 80.3893C242.55 80.0071 243.024 79.816 243.659 79.816C244.295 79.816 244.768 80.0071 245.079 80.3893C245.39 80.7671 245.546 81.276 245.546 81.916C245.546 82.556 245.39 83.0671 245.079 83.4493C244.768 83.8271 244.295 84.016 243.659 84.016ZM243.659 83.3627C243.988 83.3627 244.23 83.2382 244.386 82.9893C244.541 82.736 244.619 82.3782 244.619 81.916C244.619 81.4493 244.541 81.0916 244.386 80.8427C244.23 80.5938 243.988 80.4693 243.659 80.4693C243.326 80.4693 243.081 80.5938 242.926 80.8427C242.775 81.0916 242.699 81.4493 242.699 81.916C242.699 82.3782 242.775 82.736 242.926 82.9893C243.081 83.2382 243.326 83.3627 243.659 83.3627ZM246.336 83.916V79.916H247.156V80.516H247.316C247.396 80.3027 247.523 80.1338 247.696 80.0093C247.874 79.8805 248.116 79.816 248.423 79.816C248.881 79.816 249.216 79.9582 249.429 80.2427C249.647 80.5227 249.756 80.896 249.756 81.3627V83.916H248.856V81.5293C248.856 81.2182 248.801 80.9805 248.689 80.816C248.578 80.6471 248.403 80.5627 248.163 80.5627C247.869 80.5627 247.641 80.6782 247.476 80.9093C247.316 81.136 247.236 81.4182 247.236 81.756V83.916H246.336ZM251.312 83.916C251.21 83.796 251.128 83.6516 251.066 83.4827C251.008 83.3138 250.979 83.0605 250.979 82.7227V80.576H250.432V79.916H250.992V78.916H251.872V79.916H252.532V80.576H251.879V82.6093C251.879 82.9649 251.917 83.236 251.992 83.4227C252.072 83.6049 252.168 83.756 252.279 83.876V83.916H251.312ZM254.619 84.0027C254.259 84.0027 253.959 83.916 253.719 83.7427C253.479 83.5649 253.299 83.3182 253.179 83.0027C253.059 82.6871 252.999 82.3227 252.999 81.9093C252.999 81.4916 253.059 81.1271 253.179 80.816C253.304 80.5005 253.486 80.256 253.726 80.0827C253.966 79.9093 254.264 79.8227 254.619 79.8227C254.912 79.8227 255.148 79.8827 255.326 80.0027C255.508 80.1182 255.639 80.2627 255.719 80.436H255.879V79.916H256.699V83.916H255.879V83.396H255.719C255.639 83.5605 255.508 83.7027 255.326 83.8227C255.148 83.9427 254.912 84.0027 254.619 84.0027ZM254.819 83.3227C255.121 83.3227 255.361 83.196 255.539 82.9427C255.721 82.6849 255.812 82.3427 255.812 81.916C255.812 81.4849 255.721 81.1427 255.539 80.8893C255.361 80.6316 255.121 80.5027 254.819 80.5027C254.535 80.5027 254.315 80.6249 254.159 80.8693C254.004 81.1093 253.926 81.4582 253.926 81.916C253.926 82.3738 254.004 82.7227 254.159 82.9627C254.315 83.2027 254.535 83.3227 254.819 83.3227ZM257.766 83.916V79.916H258.666V83.916H257.766ZM258.219 79.4027C258.055 79.4027 257.928 79.3582 257.839 79.2693C257.755 79.1805 257.712 79.0627 257.712 78.916C257.712 78.7693 257.755 78.6516 257.839 78.5627C257.928 78.4693 258.055 78.4227 258.219 78.4227C258.388 78.4227 258.515 78.4693 258.599 78.5627C258.688 78.6516 258.732 78.7693 258.732 78.916C258.732 79.0627 258.688 79.1805 258.599 79.2693C258.515 79.3582 258.388 79.4027 258.219 79.4027ZM259.735 83.916V79.916H260.555V80.516H260.715C260.795 80.3027 260.921 80.1338 261.095 80.0093C261.272 79.8805 261.515 79.816 261.821 79.816C262.279 79.816 262.615 79.9582 262.828 80.2427C263.046 80.5227 263.155 80.896 263.155 81.3627V83.916H262.255V81.5293C262.255 81.2182 262.199 80.9805 262.088 80.816C261.977 80.6471 261.801 80.5627 261.561 80.5627C261.268 80.5627 261.039 80.6782 260.875 80.9093C260.715 81.136 260.635 81.4182 260.635 81.756V83.916H259.735ZM265.764 84.016C265.155 84.016 264.691 83.8249 264.371 83.4427C264.055 83.0605 263.898 82.5493 263.898 81.9093C263.898 81.4827 263.969 81.1138 264.111 80.8027C264.253 80.4916 264.462 80.2493 264.738 80.076C265.013 79.9027 265.351 79.816 265.751 79.816C266.324 79.816 266.762 79.996 267.064 80.356C267.366 80.7116 267.518 81.2316 267.518 81.916V82.136H264.771C264.793 82.5005 264.886 82.7938 265.051 83.016C265.22 83.2382 265.458 83.3493 265.764 83.3493C265.995 83.3493 266.182 83.2827 266.324 83.1493C266.466 83.016 266.564 82.8449 266.618 82.636H267.471C267.422 82.8938 267.329 83.1271 267.191 83.336C267.058 83.5405 266.873 83.7049 266.638 83.8293C266.402 83.9538 266.111 84.016 265.764 84.016ZM264.778 81.536H266.638C266.624 81.1893 266.54 80.9249 266.384 80.7427C266.233 80.556 266.02 80.4627 265.744 80.4627C265.464 80.4627 265.242 80.5538 265.078 80.736C264.913 80.9182 264.813 81.1849 264.778 81.536ZM268.297 83.916V79.916H269.11V80.6227H269.27C269.297 80.4982 269.346 80.3805 269.417 80.2693C269.488 80.1538 269.597 80.0605 269.744 79.9893C269.895 79.9138 270.099 79.876 270.357 79.876H270.53V80.7027H270.284C269.897 80.7027 269.619 80.8027 269.45 81.0027C269.281 81.1982 269.197 81.5027 269.197 81.916V83.916H268.297Z" fill="#EEEEF0"/>
<rect x="0.945312" y="13.1357" width="49.1719" height="24.9773" fill="#0F0F11"/>
<path d="M11.6822 23.082V17.882H15.1222V18.6354H12.6089V19.942H14.5689V20.6487H12.6089V22.3287H15.1622V23.082H11.6822ZM15.5894 23.082V23.042L16.8428 20.9754L15.7361 19.122V19.082H16.6894L17.4228 20.3687H17.5628L18.2761 19.082H19.1694V19.122L18.0961 20.9554L19.3428 23.042V23.082H18.3561L17.4961 21.5687H17.3561L16.5161 23.082H15.5894ZM20.5058 23.082C20.4036 22.962 20.3213 22.8176 20.2591 22.6487C20.2013 22.4798 20.1724 22.2265 20.1724 21.8887V19.742H19.6258V19.082H20.1858V18.082H21.0658V19.082H21.7258V19.742H21.0724V21.7754C21.0724 22.1309 21.1102 22.402 21.1858 22.5887C21.2658 22.7709 21.3613 22.922 21.4724 23.042V23.082H20.5058ZM24.0591 23.182C23.4502 23.182 22.9858 22.9909 22.6658 22.6087C22.3502 22.2265 22.1924 21.7154 22.1924 21.0754C22.1924 20.6487 22.2636 20.2798 22.4058 19.9687C22.548 19.6576 22.7569 19.4154 23.0324 19.242C23.308 19.0687 23.6458 18.982 24.0458 18.982C24.6191 18.982 25.0569 19.162 25.3591 19.522C25.6613 19.8776 25.8124 20.3976 25.8124 21.082V21.302H23.0658C23.088 21.6665 23.1813 21.9598 23.3458 22.182C23.5147 22.4043 23.7524 22.5154 24.0591 22.5154C24.2902 22.5154 24.4769 22.4487 24.6191 22.3154C24.7613 22.182 24.8591 22.0109 24.9124 21.802H25.7658C25.7169 22.0598 25.6236 22.2931 25.4858 22.502C25.3524 22.7065 25.168 22.8709 24.9324 22.9954C24.6969 23.1198 24.4058 23.182 24.0591 23.182ZM23.0724 20.702H24.9324C24.9191 20.3554 24.8347 20.0909 24.6791 19.9087C24.528 19.722 24.3147 19.6287 24.0391 19.6287C23.7591 19.6287 23.5369 19.7198 23.3724 19.902C23.208 20.0843 23.108 20.3509 23.0724 20.702ZM26.5919 23.082V19.082H27.4053V19.7887H27.5653C27.5919 19.6643 27.6408 19.5465 27.7119 19.4354C27.783 19.3198 27.8919 19.2265 28.0386 19.1554C28.1897 19.0798 28.3941 19.042 28.6519 19.042H28.8253V19.8687H28.5786C28.1919 19.8687 27.9141 19.9687 27.7453 20.1687C27.5764 20.3643 27.4919 20.6687 27.4919 21.082V23.082H26.5919ZM29.5607 23.082V19.082H30.3807V19.682H30.5407C30.6207 19.4687 30.7473 19.2998 30.9207 19.1754C31.0985 19.0465 31.3407 18.982 31.6473 18.982C32.1051 18.982 32.4407 19.1243 32.654 19.4087C32.8718 19.6887 32.9807 20.062 32.9807 20.5287V23.082H32.0807V20.6954C32.0807 20.3843 32.0251 20.1465 31.914 19.982C31.8029 19.8131 31.6273 19.7287 31.3873 19.7287C31.094 19.7287 30.8651 19.8443 30.7007 20.0754C30.5407 20.302 30.4607 20.5843 30.4607 20.922V23.082H29.5607ZM35.3437 23.1687C34.9837 23.1687 34.6837 23.082 34.4437 22.9087C34.2037 22.7309 34.0237 22.4843 33.9037 22.1687C33.7837 21.8531 33.7237 21.4887 33.7237 21.0754C33.7237 20.6576 33.7837 20.2931 33.9037 19.982C34.0281 19.6665 34.2104 19.422 34.4504 19.2487C34.6904 19.0754 34.9881 18.9887 35.3437 18.9887C35.637 18.9887 35.8726 19.0487 36.0504 19.1687C36.2326 19.2843 36.3637 19.4287 36.4437 19.602H36.6037V19.082H37.4237V23.082H36.6037V22.562H36.4437C36.3637 22.7265 36.2326 22.8687 36.0504 22.9887C35.8726 23.1087 35.637 23.1687 35.3437 23.1687ZM35.5437 22.4887C35.8459 22.4887 36.0859 22.362 36.2637 22.1087C36.4459 21.8509 36.537 21.5087 36.537 21.082C36.537 20.6509 36.4459 20.3087 36.2637 20.0554C36.0859 19.7976 35.8459 19.6687 35.5437 19.6687C35.2593 19.6687 35.0393 19.7909 34.8837 20.0354C34.7281 20.2754 34.6504 20.6243 34.6504 21.082C34.6504 21.5398 34.7281 21.8887 34.8837 22.1287C35.0393 22.3687 35.2593 22.4887 35.5437 22.4887ZM38.8037 23.082C38.6926 22.9487 38.6081 22.7954 38.5504 22.622C38.497 22.4487 38.4704 22.2043 38.4704 21.8887V17.7487H39.3704V21.782C39.3704 22.1287 39.4081 22.3954 39.4837 22.582C39.5593 22.7643 39.657 22.9176 39.777 23.042V23.082H38.8037ZM6.33458 33.082V27.882H7.24792V29.982H7.64792L9.26792 27.882H10.3079V27.922L8.40792 30.3154L10.5346 33.042V33.082H9.41458L7.64792 30.7554H7.24792V33.082H6.33458ZM12.1716 33.182C11.7182 33.182 11.3805 33.0398 11.1582 32.7554C10.9405 32.4709 10.8316 32.0976 10.8316 31.6354V29.082H11.7316V31.4687C11.7316 31.7754 11.7871 32.0131 11.8982 32.182C12.0093 32.3509 12.1849 32.4354 12.4249 32.4354C12.7227 32.4354 12.9516 32.3198 13.1116 32.0887C13.2716 31.8576 13.3516 31.5731 13.3516 31.2354V29.082H14.2516V33.082H13.4449V32.482H13.2849C13.2182 32.6909 13.0916 32.8598 12.9049 32.9887C12.7227 33.1176 12.4782 33.182 12.1716 33.182ZM17.4146 33.1687C17.1124 33.1687 16.8701 33.1087 16.6879 32.9887C16.5101 32.8687 16.379 32.7265 16.2946 32.562H16.1346V33.082H15.3146V27.7487H16.2146V29.542H16.3746C16.4679 29.3731 16.599 29.2398 16.7679 29.142C16.9368 29.0398 17.1546 28.9887 17.4213 28.9887C17.7679 28.9887 18.059 29.0754 18.2946 29.2487C18.5346 29.422 18.7146 29.6665 18.8346 29.982C18.959 30.2931 19.0213 30.6576 19.0213 31.0754C19.0213 31.4887 18.959 31.8531 18.8346 32.1687C18.7146 32.4843 18.5346 32.7309 18.2946 32.9087C18.059 33.082 17.7657 33.1687 17.4146 33.1687ZM17.1946 32.4887C17.479 32.4887 17.699 32.3687 17.8546 32.1287C18.0146 31.8887 18.0946 31.5398 18.0946 31.082C18.0946 30.6243 18.0146 30.2754 17.8546 30.0354C17.699 29.7909 17.479 29.6687 17.1946 29.6687C16.8924 29.6687 16.6524 29.7976 16.4746 30.0554C16.2968 30.3087 16.2079 30.6509 16.2079 31.082C16.2079 31.5087 16.2968 31.8509 16.4746 32.1087C16.6524 32.362 16.8924 32.4887 17.1946 32.4887ZM21.4146 33.182C20.8057 33.182 20.3413 32.9909 20.0213 32.6087C19.7057 32.2265 19.5479 31.7154 19.5479 31.0754C19.5479 30.6487 19.619 30.2798 19.7613 29.9687C19.9035 29.6576 20.1124 29.4154 20.3879 29.242C20.6635 29.0687 21.0013 28.982 21.4013 28.982C21.9746 28.982 22.4124 29.162 22.7146 29.522C23.0168 29.8776 23.1679 30.3976 23.1679 31.082V31.302H20.4212C20.4435 31.6665 20.5368 31.9598 20.7013 32.182C20.8701 32.4043 21.1079 32.5154 21.4146 32.5154C21.6457 32.5154 21.8324 32.4487 21.9746 32.3154C22.1168 32.182 22.2146 32.0109 22.2679 31.802H23.1213C23.0724 32.0598 22.979 32.2931 22.8413 32.502C22.7079 32.7065 22.5235 32.8709 22.2879 32.9954C22.0524 33.1198 21.7613 33.182 21.4146 33.182ZM20.4279 30.702H22.2879C22.2746 30.3554 22.1901 30.0909 22.0346 29.9087C21.8835 29.722 21.6701 29.6287 21.3946 29.6287C21.1146 29.6287 20.8924 29.7198 20.7279 29.902C20.5635 30.0843 20.4635 30.3509 20.4279 30.702ZM23.9474 33.082V29.082H24.7607V29.7887H24.9207C24.9474 29.6643 24.9963 29.5465 25.0674 29.4354C25.1385 29.3198 25.2474 29.2265 25.3941 29.1554C25.5452 29.0798 25.7496 29.042 26.0074 29.042H26.1807V29.8687H25.9341C25.5474 29.8687 25.2696 29.9687 25.1007 30.1687C24.9318 30.3643 24.8474 30.6687 24.8474 31.082V33.082H23.9474ZM26.9161 33.082V29.082H27.7361V29.682H27.8961C27.9761 29.4687 28.1028 29.2998 28.2761 29.1754C28.4539 29.0465 28.6961 28.982 29.0028 28.982C29.4606 28.982 29.7961 29.1243 30.0095 29.4087C30.2273 29.6887 30.3361 30.062 30.3361 30.5287V33.082H29.4361V30.6954C29.4361 30.3843 29.3806 30.1465 29.2695 29.982C29.1584 29.8131 28.9828 29.7287 28.7428 29.7287C28.4495 29.7287 28.2206 29.8443 28.0561 30.0754C27.8961 30.302 27.8161 30.5843 27.8161 30.922V33.082H26.9161ZM32.9458 33.182C32.3369 33.182 31.8725 32.9909 31.5525 32.6087C31.2369 32.2265 31.0792 31.7154 31.0792 31.0754C31.0792 30.6487 31.1503 30.2798 31.2925 29.9687C31.4347 29.6576 31.6436 29.4154 31.9192 29.242C32.1947 29.0687 32.5325 28.982 32.9325 28.982C33.5058 28.982 33.9436 29.162 34.2458 29.522C34.5481 29.8776 34.6992 30.3976 34.6992 31.082V31.302H31.9525C31.9747 31.6665 32.0681 31.9598 32.2325 32.182C32.4014 32.4043 32.6392 32.5154 32.9458 32.5154C33.1769 32.5154 33.3636 32.4487 33.5058 32.3154C33.6481 32.182 33.7458 32.0109 33.7992 31.802H34.6525C34.6036 32.0598 34.5103 32.2931 34.3725 32.502C34.2392 32.7065 34.0547 32.8709 33.8192 32.9954C33.5836 33.1198 33.2925 33.182 32.9458 33.182ZM31.9592 30.702H33.8192C33.8058 30.3554 33.7214 30.0909 33.5658 29.9087C33.4147 29.722 33.2014 29.6287 32.9258 29.6287C32.6458 29.6287 32.4236 29.7198 32.2592 29.902C32.0947 30.0843 31.9947 30.3509 31.9592 30.702ZM36.0253 33.082C35.9231 32.962 35.8409 32.8176 35.7786 32.6487C35.7209 32.4798 35.692 32.2265 35.692 31.8887V29.742H35.1453V29.082H35.7053V28.082H36.5853V29.082H37.2453V29.742H36.592V31.7754C36.592 32.1309 36.6298 32.402 36.7053 32.5887C36.7853 32.7709 36.8809 32.922 36.992 33.042V33.082H36.0253ZM39.5786 33.182C38.9698 33.182 38.5053 32.9909 38.1853 32.6087C37.8698 32.2265 37.712 31.7154 37.712 31.0754C37.712 30.6487 37.7831 30.2798 37.9253 29.9687C38.0675 29.6576 38.2764 29.4154 38.552 29.242C38.8275 29.0687 39.1653 28.982 39.5653 28.982C40.1386 28.982 40.5764 29.162 40.8786 29.522C41.1809 29.8776 41.332 30.3976 41.332 31.082V31.302H38.5853C38.6075 31.6665 38.7009 31.9598 38.8653 32.182C39.0342 32.4043 39.272 32.5154 39.5786 32.5154C39.8098 32.5154 39.9964 32.4487 40.1386 32.3154C40.2809 32.182 40.3786 32.0109 40.432 31.802H41.2853C41.2364 32.0598 41.1431 32.2931 41.0053 32.502C40.872 32.7065 40.6875 32.8709 40.452 32.9954C40.2164 33.1198 39.9253 33.182 39.5786 33.182ZM38.592 30.702H40.452C40.4386 30.3554 40.3542 30.0909 40.1986 29.9087C40.0475 29.722 39.8342 29.6287 39.5586 29.6287C39.2786 29.6287 39.0564 29.7198 38.892 29.902C38.7275 30.0843 38.6275 30.3509 38.592 30.702ZM43.5115 33.182C43.107 33.182 42.7781 33.1154 42.5248 32.982C42.2715 32.8443 42.0848 32.6687 41.9648 32.4554C41.8448 32.242 41.7759 32.0243 41.7581 31.802H42.6248C42.6426 31.9265 42.687 32.0443 42.7581 32.1554C42.8337 32.2665 42.9359 32.3554 43.0648 32.422C43.1937 32.4887 43.3559 32.522 43.5515 32.522C43.7737 32.522 43.9403 32.4798 44.0515 32.3954C44.1626 32.3065 44.2181 32.1909 44.2181 32.0487C44.2181 31.9243 44.1715 31.8198 44.0781 31.7354C43.9848 31.6465 43.8381 31.5687 43.6381 31.502L43.1581 31.3354C42.9359 31.2554 42.7337 31.1687 42.5515 31.0754C42.3692 30.9776 42.2226 30.8554 42.1115 30.7087C42.0003 30.562 41.9448 30.3731 41.9448 30.142C41.9448 29.7909 42.0737 29.5109 42.3315 29.302C42.5892 29.0887 42.9492 28.982 43.4115 28.982C43.7448 28.982 44.0181 29.0376 44.2315 29.1487C44.4492 29.2554 44.6137 29.402 44.7248 29.5887C44.8359 29.7709 44.9003 29.9754 44.9181 30.202H44.0848C44.067 30.0376 44.0003 29.8998 43.8848 29.7887C43.7737 29.6776 43.6048 29.622 43.3781 29.622C43.187 29.622 43.0403 29.662 42.9381 29.742C42.8403 29.8176 42.7915 29.9243 42.7915 30.062C42.7915 30.1954 42.8403 30.3065 42.9381 30.3954C43.0403 30.4798 43.1937 30.5576 43.3981 30.6287L43.8715 30.782C44.0937 30.8576 44.2959 30.9443 44.4781 31.042C44.6603 31.1354 44.8026 31.2576 44.9048 31.4087C45.0115 31.5554 45.0648 31.7443 45.0648 31.9754C45.0648 32.3354 44.9315 32.6265 44.6648 32.8487C44.4026 33.0709 44.0181 33.182 43.5115 33.182Z" fill="#EEEEF0"/>
<rect x="0.945312" y="63.9893" width="41.1354" height="25.0143" fill="#0F0F11"/>
<path d="M7.66466 74.4961V69.2961H11.1047V70.0494H8.59133V71.3561H10.5513V72.0628H8.59133V73.7428H11.1447V74.4961H7.66466ZM11.5718 74.4961V74.4561L12.8252 72.3894L11.7185 70.5361V70.4961H12.6718L13.4052 71.7828H13.5452L14.2585 70.4961H15.1518V70.5361L14.0785 72.3694L15.3252 74.4561V74.4961H14.3385L13.4785 72.9828H13.3385L12.4985 74.4961H11.5718ZM16.4882 74.4961C16.386 74.3761 16.3038 74.2316 16.2415 74.0628C16.1838 73.8939 16.1549 73.6405 16.1549 73.3028V71.1561H15.6082V70.4961H16.1682V69.4961H17.0482V70.4961H17.7082V71.1561H17.0549V73.1894C17.0549 73.545 17.0926 73.8161 17.1682 74.0028C17.2482 74.185 17.3438 74.3361 17.4549 74.4561V74.4961H16.4882ZM20.0415 74.5961C19.4326 74.5961 18.9682 74.405 18.6482 74.0228C18.3326 73.6405 18.1749 73.1294 18.1749 72.4894C18.1749 72.0628 18.246 71.6939 18.3882 71.3828C18.5304 71.0716 18.7393 70.8294 19.0149 70.6561C19.2904 70.4828 19.6282 70.3961 20.0282 70.3961C20.6015 70.3961 21.0393 70.5761 21.3415 70.9361C21.6438 71.2916 21.7949 71.8116 21.7949 72.4961V72.7161H19.0482C19.0704 73.0805 19.1638 73.3739 19.3282 73.5961C19.4971 73.8183 19.7349 73.9294 20.0415 73.9294C20.2726 73.9294 20.4593 73.8628 20.6015 73.7294C20.7438 73.5961 20.8415 73.425 20.8949 73.2161H21.7482C21.6993 73.4739 21.606 73.7072 21.4682 73.9161C21.3349 74.1205 21.1504 74.285 20.9149 74.4094C20.6793 74.5339 20.3882 74.5961 20.0415 74.5961ZM19.0549 72.1161H20.9149C20.9015 71.7694 20.8171 71.505 20.6615 71.3228C20.5104 71.1361 20.2971 71.0428 20.0215 71.0428C19.7415 71.0428 19.5193 71.1339 19.3549 71.3161C19.1904 71.4983 19.0904 71.765 19.0549 72.1161ZM22.5743 74.4961V70.4961H23.3877V71.2028H23.5477C23.5743 71.0783 23.6232 70.9605 23.6943 70.8494C23.7655 70.7339 23.8743 70.6405 24.021 70.5694C24.1721 70.4939 24.3766 70.4561 24.6343 70.4561H24.8077V71.2828H24.561C24.1743 71.2828 23.8966 71.3828 23.7277 71.5828C23.5588 71.7783 23.4743 72.0828 23.4743 72.4961V74.4961H22.5743ZM25.5431 74.4961V70.4961H26.3631V71.0961H26.5231C26.6031 70.8828 26.7298 70.7139 26.9031 70.5894C27.0809 70.4605 27.3231 70.3961 27.6298 70.3961C28.0875 70.3961 28.4231 70.5383 28.6364 70.8228C28.8542 71.1028 28.9631 71.4761 28.9631 71.9428V74.4961H28.0631V72.1094C28.0631 71.7983 28.0075 71.5605 27.8964 71.3961C27.7853 71.2272 27.6098 71.1428 27.3698 71.1428C27.0764 71.1428 26.8475 71.2583 26.6831 71.4894C26.5231 71.7161 26.4431 71.9983 26.4431 72.3361V74.4961H25.5431ZM31.3261 74.5828C30.9661 74.5828 30.6661 74.4961 30.4261 74.3228C30.1861 74.145 30.0061 73.8983 29.8861 73.5828C29.7661 73.2672 29.7061 72.9028 29.7061 72.4894C29.7061 72.0716 29.7661 71.7072 29.8861 71.3961C30.0106 71.0805 30.1928 70.8361 30.4328 70.6628C30.6728 70.4894 30.9706 70.4028 31.3261 70.4028C31.6195 70.4028 31.855 70.4628 32.0328 70.5828C32.215 70.6983 32.3461 70.8428 32.4261 71.0161H32.5861V70.4961H33.4061V74.4961H32.5861V73.9761H32.4261C32.3461 74.1405 32.215 74.2828 32.0328 74.4028C31.855 74.5228 31.6195 74.5828 31.3261 74.5828ZM31.5261 73.9028C31.8283 73.9028 32.0683 73.7761 32.2461 73.5228C32.4283 73.265 32.5195 72.9228 32.5195 72.4961C32.5195 72.065 32.4283 71.7228 32.2461 71.4694C32.0683 71.2116 31.8283 71.0828 31.5261 71.0828C31.2417 71.0828 31.0217 71.205 30.8661 71.4494C30.7106 71.6894 30.6328 72.0383 30.6328 72.4961C30.6328 72.9539 30.7106 73.3028 30.8661 73.5428C31.0217 73.7828 31.2417 73.9028 31.5261 73.9028ZM34.7861 74.4961C34.675 74.3628 34.5906 74.2094 34.5328 74.0361C34.4795 73.8628 34.4528 73.6183 34.4528 73.3028V69.1628H35.3528V73.1961C35.3528 73.5428 35.3906 73.8094 35.4661 73.9961C35.5417 74.1783 35.6395 74.3316 35.7595 74.4561V74.4961H34.7861ZM5.33034 84.4961V79.2961H6.26367V84.4961H5.33034ZM7.36732 84.4961V80.4961H8.18732V81.0961H8.34732C8.42732 80.8828 8.55398 80.7139 8.72732 80.5894C8.9051 80.4605 9.14732 80.3961 9.45398 80.3961C9.91176 80.3961 10.2473 80.5383 10.4607 80.8228C10.6784 81.1028 10.7873 81.4761 10.7873 81.9428V84.4961H9.88732V82.1094C9.88732 81.7983 9.83176 81.5605 9.72065 81.3961C9.60954 81.2272 9.43398 81.1428 9.19398 81.1428C8.90065 81.1428 8.67176 81.2583 8.50732 81.4894C8.34732 81.7161 8.26732 81.9983 8.26732 82.3361V84.4961H7.36732ZM13.197 84.5961C12.7926 84.5961 12.4637 84.5294 12.2103 84.3961C11.957 84.2583 11.7703 84.0828 11.6503 83.8694C11.5303 83.6561 11.4614 83.4383 11.4437 83.2161H12.3103C12.3281 83.3405 12.3726 83.4583 12.4437 83.5694C12.5192 83.6805 12.6214 83.7694 12.7503 83.8361C12.8792 83.9028 13.0414 83.9361 13.237 83.9361C13.4592 83.9361 13.6259 83.8939 13.737 83.8094C13.8481 83.7205 13.9037 83.605 13.9037 83.4628C13.9037 83.3383 13.857 83.2339 13.7637 83.1494C13.6703 83.0605 13.5237 82.9828 13.3237 82.9161L12.8437 82.7494C12.6214 82.6694 12.4192 82.5828 12.237 82.4894C12.0548 82.3916 11.9081 82.2694 11.797 82.1228C11.6859 81.9761 11.6303 81.7872 11.6303 81.5561C11.6303 81.205 11.7592 80.925 12.017 80.7161C12.2748 80.5028 12.6348 80.3961 13.097 80.3961C13.4303 80.3961 13.7037 80.4516 13.917 80.5628C14.1348 80.6694 14.2992 80.8161 14.4103 81.0028C14.5214 81.185 14.5859 81.3894 14.6037 81.6161H13.7703C13.7526 81.4516 13.6859 81.3139 13.5703 81.2028C13.4592 81.0916 13.2903 81.0361 13.0637 81.0361C12.8726 81.0361 12.7259 81.0761 12.6237 81.1561C12.5259 81.2316 12.477 81.3383 12.477 81.4761C12.477 81.6094 12.5259 81.7205 12.6237 81.8094C12.7259 81.8939 12.8792 81.9716 13.0837 82.0428L13.557 82.1961C13.7792 82.2716 13.9814 82.3583 14.1637 82.4561C14.3459 82.5494 14.4881 82.6716 14.5903 82.8228C14.697 82.9694 14.7503 83.1583 14.7503 83.3894C14.7503 83.7494 14.617 84.0405 14.3503 84.2628C14.0881 84.485 13.7037 84.5961 13.197 84.5961ZM16.0468 84.4961C15.9446 84.3761 15.8624 84.2316 15.8001 84.0628C15.7424 83.8939 15.7135 83.6405 15.7135 83.3028V81.1561H15.1668V80.4961H15.7268V79.4961H16.6068V80.4961H17.2668V81.1561H16.6135V83.1894C16.6135 83.545 16.6512 83.8161 16.7268 84.0028C16.8068 84.185 16.9024 84.3361 17.0135 84.4561V84.4961H16.0468ZM19.3535 84.5828C18.9935 84.5828 18.6935 84.4961 18.4535 84.3228C18.2135 84.145 18.0335 83.8983 17.9135 83.5828C17.7935 83.2672 17.7335 82.9028 17.7335 82.4894C17.7335 82.0716 17.7935 81.7072 17.9135 81.3961C18.0379 81.0805 18.2201 80.8361 18.4601 80.6628C18.7001 80.4894 18.9979 80.4028 19.3535 80.4028C19.6468 80.4028 19.8824 80.4628 20.0601 80.5828C20.2424 80.6983 20.3735 80.8428 20.4535 81.0161H20.6135V80.4961H21.4335V84.4961H20.6135V83.9761H20.4535C20.3735 84.1405 20.2424 84.2828 20.0601 84.4028C19.8824 84.5228 19.6468 84.5828 19.3535 84.5828ZM19.5535 83.9028C19.8557 83.9028 20.0957 83.7761 20.2735 83.5228C20.4557 83.265 20.5468 82.9228 20.5468 82.4961C20.5468 82.065 20.4557 81.7228 20.2735 81.4694C20.0957 81.2116 19.8557 81.0828 19.5535 81.0828C19.269 81.0828 19.049 81.205 18.8935 81.4494C18.7379 81.6894 18.6601 82.0383 18.6601 82.4961C18.6601 82.9539 18.7379 83.3028 18.8935 83.5428C19.049 83.7828 19.269 83.9028 19.5535 83.9028ZM22.5001 84.4961V80.4961H23.3201V81.0961H23.4801C23.5601 80.8828 23.6868 80.7139 23.8601 80.5894C24.0379 80.4605 24.2801 80.3961 24.5868 80.3961C25.0446 80.3961 25.3801 80.5383 25.5935 80.8228C25.8112 81.1028 25.9201 81.4761 25.9201 81.9428V84.4961H25.0201V82.1094C25.0201 81.7983 24.9646 81.5605 24.8535 81.3961C24.7424 81.2272 24.5668 81.1428 24.3268 81.1428C24.0335 81.1428 23.8046 81.2583 23.6401 81.4894C23.4801 81.7161 23.4001 81.9983 23.4001 82.3361V84.4961H22.5001ZM28.4832 84.5961C27.8832 84.5961 27.4298 84.405 27.1232 84.0228C26.8165 83.6405 26.6632 83.1316 26.6632 82.4961C26.6632 81.8339 26.8232 81.3183 27.1432 80.9494C27.4632 80.5805 27.912 80.3961 28.4898 80.3961C28.9876 80.3961 29.3832 80.5316 29.6765 80.8028C29.9698 81.0694 30.1476 81.445 30.2098 81.9294H29.3232C29.2876 81.6539 29.1987 81.4428 29.0565 81.2961C28.9187 81.145 28.7343 81.0694 28.5032 81.0694C28.1965 81.0694 27.9676 81.1961 27.8165 81.4494C27.6654 81.6983 27.5898 82.0472 27.5898 82.4961C27.5898 82.945 27.6654 83.2961 27.8165 83.5494C27.9676 83.7983 28.1943 83.9228 28.4965 83.9228C28.732 83.9228 28.9187 83.8472 29.0565 83.6961C29.1987 83.545 29.2876 83.3339 29.3232 83.0628H30.2098C30.1432 83.5428 29.9609 83.9183 29.6632 84.1894C29.3698 84.4605 28.9765 84.5961 28.4832 84.5961ZM32.5611 84.5961C31.9522 84.5961 31.4877 84.405 31.1677 84.0228C30.8522 83.6405 30.6944 83.1294 30.6944 82.4894C30.6944 82.0628 30.7655 81.6939 30.9077 81.3828C31.05 81.0716 31.2588 80.8294 31.5344 80.6561C31.81 80.4828 32.1477 80.3961 32.5477 80.3961C33.1211 80.3961 33.5588 80.5761 33.8611 80.9361C34.1633 81.2916 34.3144 81.8116 34.3144 82.4961V82.7161H31.5677C31.59 83.0805 31.6833 83.3739 31.8477 83.5961C32.0166 83.8183 32.2544 83.9294 32.5611 83.9294C32.7922 83.9294 32.9788 83.8628 33.1211 83.7294C33.2633 83.5961 33.3611 83.425 33.4144 83.2161H34.2677C34.2188 83.4739 34.1255 83.7072 33.9877 83.9161C33.8544 84.1205 33.67 84.285 33.4344 84.4094C33.1988 84.5339 32.9077 84.5961 32.5611 84.5961ZM31.5744 82.1161H33.4344C33.4211 81.7694 33.3366 81.505 33.1811 81.3228C33.03 81.1361 32.8166 81.0428 32.5411 81.0428C32.2611 81.0428 32.0388 81.1339 31.8744 81.3161C31.71 81.4983 31.61 81.765 31.5744 82.1161ZM36.4939 84.5961C36.0894 84.5961 35.7605 84.5294 35.5072 84.3961C35.2539 84.2583 35.0672 84.0828 34.9472 83.8694C34.8272 83.6561 34.7583 83.4383 34.7405 83.2161H35.6072C35.625 83.3405 35.6694 83.4583 35.7405 83.5694C35.8161 83.6805 35.9183 83.7694 36.0472 83.8361C36.1761 83.9028 36.3383 83.9361 36.5339 83.9361C36.7561 83.9361 36.9228 83.8939 37.0339 83.8094C37.145 83.7205 37.2005 83.605 37.2005 83.4628C37.2005 83.3383 37.1539 83.2339 37.0605 83.1494C36.9672 83.0605 36.8205 82.9828 36.6205 82.9161L36.1405 82.7494C35.9183 82.6694 35.7161 82.5828 35.5339 82.4894C35.3517 82.3916 35.205 82.2694 35.0939 82.1228C34.9828 81.9761 34.9272 81.7872 34.9272 81.5561C34.9272 81.205 35.0561 80.925 35.3139 80.7161C35.5717 80.5028 35.9317 80.3961 36.3939 80.3961C36.7272 80.3961 37.0005 80.4516 37.2139 80.5628C37.4317 80.6694 37.5961 80.8161 37.7072 81.0028C37.8183 81.185 37.8828 81.3894 37.9005 81.6161H37.0672C37.0494 81.4516 36.9828 81.3139 36.8672 81.2028C36.7561 81.0916 36.5872 81.0361 36.3605 81.0361C36.1694 81.0361 36.0228 81.0761 35.9205 81.1561C35.8228 81.2316 35.7739 81.3383 35.7739 81.4761C35.7739 81.6094 35.8228 81.7205 35.9205 81.8094C36.0228 81.8939 36.1761 81.9716 36.3805 82.0428L36.8539 82.1961C37.0761 82.2716 37.2783 82.3583 37.4605 82.4561C37.6428 82.5494 37.785 82.6716 37.8872 82.8228C37.9939 82.9694 38.0472 83.1583 38.0472 83.3894C38.0472 83.7494 37.9139 84.0405 37.6472 84.2628C37.385 84.485 37.0005 84.5961 36.4939 84.5961Z" fill="#EEEEF0"/>
<defs>
<linearGradient id="paint0_linear_1278_44459" x1="157.818" y1="33.2556" x2="230.634" y2="33.2556" gradientUnits="userSpaceOnUse">
<stop offset="0.7" stop-color="#3B82F6"/>
<stop offset="1" stop-color="#3B82F6" stop-opacity="0"/>
</linearGradient>
<linearGradient id="paint1_linear_1278_44459" x1="157.93" y1="31.8582" x2="50.118" y2="31.8582" gradientUnits="userSpaceOnUse">
<stop offset="0.7" stop-color="#3B82F6"/>
<stop offset="1" stop-color="#3B82F6" stop-opacity="0"/>
</linearGradient>
<linearGradient id="paint2_linear_1278_44459" x1="157.93" y1="102.391" x2="209.255" y2="102.391" gradientUnits="userSpaceOnUse">
<stop offset="0.65" stop-color="#3B82F6"/>
<stop offset="1" stop-color="#3B82F6" stop-opacity="0"/>
</linearGradient>
<linearGradient id="paint3_linear_1278_44459" x1="157.928" y1="102.393" x2="80.831" y2="102.393" gradientUnits="userSpaceOnUse">
<stop offset="0.7" stop-color="#3B82F6"/>
<stop offset="1" stop-color="#3B82F6" stop-opacity="0"/>
</linearGradient>
<linearGradient id="paint4_linear_1278_44459" x1="144.672" y1="76.5244" x2="227.215" y2="76.5244" gradientUnits="userSpaceOnUse">
<stop offset="0.706363" stop-color="#3B82F6"/>
<stop offset="1" stop-color="#3B82F6" stop-opacity="0"/>
</linearGradient>
<linearGradient id="paint5_linear_1278_44459" x1="42.5499" y1="76.5254" x2="145.432" y2="76.5254" gradientUnits="userSpaceOnUse">
<stop stop-color="#3B82F6" stop-opacity="0"/>
<stop offset="0.55" stop-color="#3B82F6"/>
</linearGradient>
<linearGradient id="paint6_linear_1278_44459" x1="153.289" y1="50.6895" x2="198.33" y2="50.6895" gradientUnits="userSpaceOnUse">
<stop offset="0.579938" stop-color="#3B82F6"/>
<stop offset="1" stop-color="#3B82F6" stop-opacity="0"/>
</linearGradient>
<linearGradient id="paint7_linear_1278_44459" x1="80.8314" y1="50.6904" x2="138.502" y2="50.6904" gradientUnits="userSpaceOnUse">
<stop stop-color="#3B82F6" stop-opacity="0"/>
<stop offset="0.420062" stop-color="#3B82F6"/>
</linearGradient>
<linearGradient id="paint8_linear_1278_44459" x1="163.936" y1="-2.18557e-08" x2="163.936" y2="127.386" gradientUnits="userSpaceOnUse">
<stop stop-color="#3B82F6" stop-opacity="0"/>
<stop offset="0.505" stop-color="#3B82F6"/>
<stop offset="1" stop-color="#3B82F6" stop-opacity="0"/>
</linearGradient>
<linearGradient id="paint9_linear_1278_44459" x1="100.25" y1="-1.89727" x2="100.25" y2="125.725" gradientUnits="userSpaceOnUse">
<stop stop-color="#3B82F6" stop-opacity="0"/>
<stop offset="0.505" stop-color="#3B82F6"/>
<stop offset="1" stop-color="#3B82F6" stop-opacity="0"/>
</linearGradient>
<linearGradient id="paint10_linear_1278_44459" x1="214.689" y1="25.3467" x2="214.689" y2="76.2275" gradientUnits="userSpaceOnUse">
<stop stop-color="#3B82F6" stop-opacity="0"/>
<stop offset="0.535" stop-color="#3B82F6"/>
<stop offset="1" stop-color="#3B82F6" stop-opacity="0"/>
</linearGradient>
<linearGradient id="paint11_linear_1278_44459" x1="58" y1="13.1367" x2="58" y2="114.856" gradientUnits="userSpaceOnUse">
<stop stop-color="#3B82F6" stop-opacity="0"/>
<stop offset="0.535" stop-color="#3B82F6"/>
<stop offset="1" stop-color="#3B82F6" stop-opacity="0"/>
</linearGradient>
</defs>
</svg>
