<svg width="1280" height="322" viewBox="0 0 1280 322" fill="none" xmlns="http://www.w3.org/2000/svg">
<path d="M620.707 65.0283L1069.15 65.0271" stroke="url(#paint0_linear_1278_46864)" stroke-width="2"/>
<path d="M621.055 65.0283L172.614 65.0271" stroke="url(#paint1_linear_1278_46864)" stroke-width="2"/>
<path d="M621.055 257.057L909.156 257.057" stroke="url(#paint2_linear_1278_46864)" stroke-width="2"/>
<path d="M621.055 257.057L332.214 257.057" stroke="url(#paint3_linear_1278_46864)" stroke-width="2"/>
<path d="M1101.23 193.001L666.107 193.001" stroke="url(#paint4_linear_1278_46864)" stroke-width="2"/>
<path d="M581.773 193.001L178.725 193.001" stroke="url(#paint5_linear_1278_46864)" stroke-width="2"/>
<path d="M909.201 129.007L681.423 129.007" stroke="url(#paint6_linear_1278_46864)" stroke-width="2"/>
<path d="M559.992 129.007L332.214 129.007" stroke="url(#paint7_linear_1278_46864)" stroke-width="2"/>
<path d="M736.188 0.503662L736.187 321.496" stroke="url(#paint8_linear_1278_46864)" stroke-width="2"/>
<path d="M512.225 0.503906L512.225 321.496" stroke="url(#paint9_linear_1278_46864)" stroke-width="2"/>
<path d="M832.707 65.0271L832.707 193.001" stroke="url(#paint10_linear_1278_46864)" stroke-width="2"/>
<path d="M448.326 33.0051L448.326 288.995" stroke="url(#paint11_linear_1278_46864)" stroke-width="2"/>
<circle cx="832.706" cy="129.007" r="7.14154" fill="#60A5FA"/>
<circle cx="448.327" cy="129.007" r="7.14154" fill="#60A5FA"/>
<path d="M681.423 153.779V105.578C681.423 101.16 677.841 97.5922 673.423 97.5922H620.707H567.992C563.574 97.5922 559.992 101.167 559.992 105.585C559.992 114.329 559.992 130.301 559.992 153.779C559.993 191.622 581.587 204.593 620.707 224.481C658.843 207.044 681.423 193.581 681.423 153.779Z" fill="#1D4ED8"/>
<path fill-rule="evenodd" clip-rule="evenodd" d="M625.279 123.813L618.614 122.29C619.113 122.29 619.648 122.253 620.251 122.212C621.029 122.16 621.921 122.099 622.994 122.099C626.992 122.099 630.229 123.432 633.276 125.146C633.697 125.356 634.06 125.8 634.429 126.251C634.727 126.615 635.029 126.985 635.37 127.24C636.893 127.811 638.416 128.192 639.94 128.002V127.43C641.653 127.811 643.367 129.715 643.367 131.048H635.56C635.37 131.048 634.989 131.239 634.799 131.429C634.989 131.619 635.37 132 635.56 132C635.92 132 636.311 131.99 636.725 131.978C638.062 131.942 639.628 131.9 641.082 132.191C641.056 132.235 641.028 132.281 640.999 132.33C640.405 133.329 639.307 135.175 638.036 133.904C638.036 133.523 630.61 133.714 628.706 134.095C628.325 134.095 627.944 134.856 628.135 135.237C628.987 137.308 631.009 138.599 632.903 139.809C633.97 140.491 634.996 141.147 635.751 141.901C641.082 146.09 642.796 149.898 641.653 157.133C638.792 168.41 634.294 170.314 625.529 174.023C624.379 174.51 623.155 175.028 621.851 175.603C618.614 177.126 616.71 180.744 617.282 184.361C618.614 192.168 630.991 194.262 633.466 185.123C634.228 181.505 633.276 176.364 626.421 174.841C629.467 173.508 632.323 171.985 634.989 170.271C635.37 169.891 635.751 169.891 636.132 170.271C643.748 177.316 645.652 190.264 633.085 197.88C624.136 202.83 612.902 198.641 609.285 189.121C605.667 179.411 611.379 168.938 621.47 166.844C628.706 165.702 636.132 158.085 632.895 151.041C631.458 147.879 627.31 144.718 623.806 142.048C622.667 141.18 621.596 140.364 620.709 139.616C620.207 139.315 619.388 139.384 618.475 139.461C617.655 139.53 616.759 139.606 615.949 139.426C616.33 139.14 616.561 138.856 616.793 138.572C617.024 138.287 617.256 138.003 617.637 137.717C615.923 136.663 614.861 136.518 613.548 136.34C612.964 136.261 612.331 136.174 611.569 135.999C612.141 134.856 614.605 133.526 616.319 133.335C616.266 132.838 616.232 132.41 616.202 132.035C616.015 129.681 615.997 129.454 612.712 127.811C614.666 126.509 616.392 126.797 618.069 127.078C619.824 127.371 621.525 127.655 623.375 126.098C621.09 125.336 618.805 124.574 616.71 123.242C617.783 123.313 618.838 123.503 619.888 123.692C621.632 124.007 623.365 124.319 625.148 124.081L625.279 123.813ZM609.285 172.747C600.145 167.034 599.574 152.564 609.856 146.28C617.472 141.52 626.04 143.234 631.752 151.612C632.514 152.945 632.514 155.039 632.133 156.562C630.61 161.703 626.802 164.559 621.661 165.702C623.184 164.559 624.327 162.846 624.707 160.942C626.421 150.279 609.856 149.137 610.617 160.561C610.427 163.798 612.902 166.082 617.662 166.844C615.187 168.367 613.093 169.7 610.808 172.556C610.427 173.127 610.046 173.127 609.285 172.747ZM606.989 181.007C604.058 181.555 600.967 182.133 598.051 183.409C599.384 177.887 604.144 174.079 609.856 174.079C608.333 175.983 607.571 178.459 607.381 180.934C607.25 180.958 607.12 180.983 606.989 181.007ZM631.552 128.452L632.124 129.023L631.362 129.404C630.981 129.594 630.791 129.404 630.6 129.214C630.22 128.642 631.362 128.262 631.552 128.452Z" fill="#EEEEF0"/>
<circle cx="252.722" cy="193.001" r="7.14154" fill="#60A5FA"/>
<circle cx="973.208" cy="193.001" r="7.14154" fill="#60A5FA"/>
<circle cx="319.864" cy="65.3007" r="7.14154" fill="#60A5FA"/>
<circle cx="512.226" cy="256.772" r="7.14154" fill="#60A5FA"/>
<circle cx="736.188" cy="256.772" r="7.14154" fill="#60A5FA"/>
<circle cx="896.768" cy="65.7473" r="7.14154" fill="#60A5FA"/>
<rect x="1056.51" y="33.4644" width="126.96" height="62.9707" fill="#0F0F11"/>
<path d="M1067.89 70.9497V60.5497H1071.53L1073.66 69.323H1074.1L1076.26 60.5497H1079.9V70.9497H1077.97V62.243H1077.62L1075.53 70.9497H1072.14L1070.05 62.243H1069.7V70.9497H1067.89ZM1085.31 71.1497C1084.01 71.1497 1083.04 70.7719 1082.4 70.0164C1081.77 69.2519 1081.46 68.2297 1081.46 66.9497C1081.46 65.6697 1081.77 64.6519 1082.4 63.8964C1083.04 63.1319 1084.01 62.7497 1085.31 62.7497C1086.61 62.7497 1087.58 63.1319 1088.22 63.8964C1088.86 64.6519 1089.18 65.6697 1089.18 66.9497C1089.18 68.2297 1088.86 69.2519 1088.22 70.0164C1087.58 70.7719 1086.61 71.1497 1085.31 71.1497ZM1085.31 69.7764C1085.94 69.7764 1086.4 69.5364 1086.68 69.0564C1086.98 68.5675 1087.12 67.8653 1087.12 66.9497C1087.12 66.0253 1086.98 65.323 1086.68 64.843C1086.4 64.363 1085.94 64.123 1085.31 64.123C1084.69 64.123 1084.23 64.363 1083.94 64.843C1083.64 65.323 1083.5 66.0253 1083.5 66.9497C1083.5 67.8653 1083.64 68.5675 1083.94 69.0564C1084.23 69.5364 1084.69 69.7764 1085.31 69.7764ZM1095.07 71.123C1094.47 71.123 1093.99 71.003 1093.63 70.763C1093.27 70.523 1093.01 70.2386 1092.84 69.9097H1092.52V70.9497H1090.69V60.283H1092.68V63.843H1093C1093.19 63.523 1093.45 63.2653 1093.79 63.0697C1094.13 62.8742 1094.56 62.7764 1095.08 62.7764C1095.78 62.7764 1096.37 62.9497 1096.84 63.2964C1097.32 63.643 1097.68 64.1275 1097.92 64.7497C1098.16 65.3719 1098.28 66.1008 1098.28 66.9364C1098.28 67.7542 1098.16 68.4786 1097.92 69.1097C1097.69 69.7319 1097.33 70.2253 1096.85 70.5897C1096.38 70.9453 1095.79 71.123 1095.07 71.123ZM1094.55 69.683C1095.08 69.683 1095.49 69.4519 1095.79 68.9897C1096.08 68.5275 1096.23 67.8475 1096.23 66.9497C1096.23 66.0519 1096.08 65.3719 1095.79 64.9097C1095.49 64.4475 1095.08 64.2164 1094.55 64.2164C1093.98 64.2164 1093.52 64.4653 1093.17 64.963C1092.84 65.4519 1092.67 66.1142 1092.67 66.9497C1092.67 67.7764 1092.84 68.4386 1093.17 68.9364C1093.52 69.4342 1093.98 69.683 1094.55 69.683ZM1099.8 70.9497V62.9497H1101.79V70.9497H1099.8ZM1100.79 61.9764C1100.44 61.9764 1100.16 61.883 1099.98 61.6964C1099.79 61.5008 1099.7 61.2519 1099.7 60.9497C1099.7 60.6386 1099.79 60.3897 1099.98 60.203C1100.16 60.0164 1100.44 59.923 1100.79 59.923C1101.15 59.923 1101.42 60.0164 1101.6 60.203C1101.79 60.3897 1101.88 60.6386 1101.88 60.9497C1101.88 61.2519 1101.79 61.5008 1101.6 61.6964C1101.42 61.883 1101.15 61.9764 1100.79 61.9764ZM1104.49 70.9497C1104.25 70.6742 1104.08 70.3586 1103.97 70.003C1103.86 69.6475 1103.81 69.1675 1103.81 68.563V60.283H1105.8V68.3497C1105.8 69.0342 1105.87 69.563 1106.02 69.9364C1106.18 70.3008 1106.37 70.6119 1106.61 70.8697V70.9497H1104.49ZM1111.2 71.1497C1109.96 71.1497 1109.02 70.7719 1108.37 70.0164C1107.72 69.2519 1107.4 68.2253 1107.4 66.9364C1107.4 66.0742 1107.54 65.3319 1107.82 64.7097C1108.12 64.0875 1108.54 63.6075 1109.1 63.2697C1109.67 62.923 1110.36 62.7497 1111.18 62.7497C1112.35 62.7497 1113.24 63.1097 1113.85 63.8297C1114.47 64.5408 1114.78 65.5897 1114.78 66.9764V67.4164H1109.33C1109.37 68.1186 1109.56 68.6786 1109.88 69.0964C1110.2 69.5142 1110.64 69.723 1111.21 69.723C1111.64 69.723 1112 69.5942 1112.26 69.3364C1112.53 69.0786 1112.71 68.763 1112.81 68.3897H1114.69C1114.6 68.8875 1114.42 69.3453 1114.14 69.763C1113.87 70.1808 1113.48 70.5186 1113 70.7764C1112.52 71.0253 1111.92 71.1497 1111.2 71.1497ZM1109.33 66.1364H1112.86C1112.83 65.4964 1112.66 64.9986 1112.37 64.643C1112.08 64.2875 1111.68 64.1097 1111.17 64.1097C1110.64 64.1097 1110.22 64.283 1109.9 64.6297C1109.59 64.9675 1109.4 65.4697 1109.33 66.1364ZM1119.5 70.9497V60.5497H1123.13C1124.96 60.5497 1126.29 61.0075 1127.11 61.923C1127.95 62.8297 1128.37 64.1053 1128.37 65.7497C1128.37 67.3942 1127.95 68.6742 1127.11 69.5897C1126.29 70.4964 1124.96 70.9497 1123.13 70.9497H1119.5ZM1121.55 69.3364H1122.99C1123.73 69.3364 1124.34 69.2208 1124.82 68.9897C1125.3 68.7586 1125.66 68.3853 1125.89 67.8697C1126.13 67.3453 1126.25 66.6386 1126.25 65.7497C1126.25 64.8608 1126.13 64.1542 1125.89 63.6297C1125.66 63.1053 1125.3 62.7319 1124.82 62.5097C1124.34 62.2786 1123.73 62.163 1122.99 62.163H1121.55V69.3364ZM1133.1 71.1497C1131.87 71.1497 1130.92 70.7719 1130.28 70.0164C1129.63 69.2519 1129.3 68.2253 1129.3 66.9364C1129.3 66.0742 1129.44 65.3319 1129.73 64.7097C1130.02 64.0875 1130.45 63.6075 1131.01 63.2697C1131.58 62.923 1132.27 62.7497 1133.09 62.7497C1134.25 62.7497 1135.14 63.1097 1135.76 63.8297C1136.38 64.5408 1136.69 65.5897 1136.69 66.9764V67.4164H1131.24C1131.28 68.1186 1131.46 68.6786 1131.78 69.0964C1132.1 69.5142 1132.55 69.723 1133.12 69.723C1133.55 69.723 1133.9 69.5942 1134.17 69.3364C1134.44 69.0786 1134.62 68.763 1134.72 68.3897H1136.6C1136.51 68.8875 1136.32 69.3453 1136.05 69.763C1135.77 70.1808 1135.39 70.5186 1134.9 70.7764C1134.42 71.0253 1133.82 71.1497 1133.1 71.1497ZM1131.24 66.1364H1134.77C1134.73 65.4964 1134.57 64.9986 1134.28 64.643C1133.99 64.2875 1133.59 64.1097 1133.08 64.1097C1132.55 64.1097 1132.13 64.283 1131.81 64.6297C1131.5 64.9675 1131.31 65.4697 1131.24 66.1364ZM1139.52 70.9497L1137.18 63.0297V62.9497H1139.18L1140.97 69.323H1141.29L1143.09 62.9497H1144.92V63.0297L1142.58 70.9497H1139.52ZM1146.13 70.9497V62.9497H1148.12V70.9497H1146.13ZM1147.12 61.9764C1146.76 61.9764 1146.49 61.883 1146.31 61.6964C1146.12 61.5008 1146.03 61.2519 1146.03 60.9497C1146.03 60.6386 1146.12 60.3897 1146.31 60.203C1146.49 60.0164 1146.76 59.923 1147.12 59.923C1147.47 59.923 1147.75 60.0164 1147.93 60.203C1148.12 60.3897 1148.21 60.6386 1148.21 60.9497C1148.21 61.2519 1148.12 61.5008 1147.93 61.6964C1147.75 61.883 1147.47 61.9764 1147.12 61.9764ZM1153.37 71.1497C1152.15 71.1497 1151.22 70.7719 1150.59 70.0164C1149.96 69.2519 1149.65 68.2297 1149.65 66.9497C1149.65 65.6075 1149.97 64.5719 1150.63 63.843C1151.3 63.1142 1152.21 62.7497 1153.38 62.7497C1154.41 62.7497 1155.22 63.0253 1155.82 63.5764C1156.41 64.1275 1156.77 64.883 1156.89 65.843H1154.94C1154.88 65.3097 1154.71 64.9008 1154.45 64.6164C1154.18 64.323 1153.83 64.1764 1153.41 64.1764C1152.85 64.1764 1152.42 64.4208 1152.13 64.9097C1151.83 65.3897 1151.69 66.0697 1151.69 66.9497C1151.69 67.8297 1151.83 68.5097 1152.11 68.9897C1152.41 69.4697 1152.83 69.7097 1153.39 69.7097C1153.83 69.7097 1154.18 69.5675 1154.45 69.283C1154.71 68.9897 1154.88 68.5764 1154.94 68.043H1156.89C1156.76 69.003 1156.4 69.763 1155.79 70.323C1155.2 70.8742 1154.39 71.1497 1153.37 71.1497ZM1161.62 71.1497C1160.38 71.1497 1159.44 70.7719 1158.79 70.0164C1158.14 69.2519 1157.82 68.2253 1157.82 66.9364C1157.82 66.0742 1157.96 65.3319 1158.24 64.7097C1158.54 64.0875 1158.96 63.6075 1159.52 63.2697C1160.09 62.923 1160.79 62.7497 1161.6 62.7497C1162.77 62.7497 1163.66 63.1097 1164.27 63.8297C1164.89 64.5408 1165.2 65.5897 1165.2 66.9764V67.4164H1159.75C1159.8 68.1186 1159.98 68.6786 1160.3 69.0964C1160.62 69.5142 1161.06 69.723 1161.63 69.723C1162.07 69.723 1162.42 69.5942 1162.68 69.3364C1162.95 69.0786 1163.13 68.763 1163.23 68.3897H1165.11C1165.02 68.8875 1164.84 69.3453 1164.56 69.763C1164.29 70.1808 1163.91 70.5186 1163.42 70.7764C1162.94 71.0253 1162.34 71.1497 1161.62 71.1497ZM1159.75 66.1364H1163.28C1163.25 65.4964 1163.08 64.9986 1162.79 64.643C1162.51 64.2875 1162.11 64.1097 1161.59 64.1097C1161.07 64.1097 1160.64 64.283 1160.32 64.6297C1160.01 64.9675 1159.82 65.4697 1159.75 66.1364ZM1169.57 71.1497C1168.72 71.1497 1168.03 71.0119 1167.52 70.7364C1167 70.4608 1166.62 70.1097 1166.37 69.683C1166.13 69.2564 1166 68.8253 1165.97 68.3897H1167.87C1167.9 68.6297 1167.99 68.8519 1168.13 69.0564C1168.28 69.2608 1168.48 69.4253 1168.73 69.5497C1168.99 69.6653 1169.3 69.723 1169.67 69.723C1170.1 69.723 1170.42 69.643 1170.63 69.483C1170.83 69.323 1170.93 69.1186 1170.93 68.8697C1170.93 68.6386 1170.84 68.443 1170.67 68.283C1170.49 68.123 1170.2 67.9764 1169.8 67.843L1168.84 67.523C1168.39 67.363 1167.97 67.1897 1167.59 67.003C1167.21 66.8075 1166.91 66.5586 1166.68 66.2564C1166.46 65.9542 1166.35 65.5675 1166.35 65.0964C1166.35 64.3942 1166.61 63.8297 1167.13 63.403C1167.67 62.9675 1168.41 62.7497 1169.37 62.7497C1170.07 62.7497 1170.63 62.8608 1171.08 63.083C1171.52 63.2964 1171.86 63.5897 1172.08 63.963C1172.31 64.3275 1172.44 64.7364 1172.48 65.1897H1170.65C1170.61 64.8608 1170.47 64.5986 1170.25 64.403C1170.03 64.2075 1169.71 64.1097 1169.29 64.1097C1168.93 64.1097 1168.65 64.1853 1168.47 64.3364C1168.28 64.4786 1168.19 64.6742 1168.19 64.923C1168.19 65.1719 1168.28 65.3764 1168.48 65.5364C1168.67 65.6964 1168.97 65.843 1169.36 65.9764L1170.32 66.2964C1170.77 66.4386 1171.19 66.6075 1171.56 66.803C1171.93 66.9897 1172.23 67.2342 1172.45 67.5364C1172.67 67.8386 1172.79 68.2297 1172.79 68.7097C1172.79 69.4386 1172.51 70.0297 1171.96 70.483C1171.41 70.9275 1170.61 71.1497 1169.57 71.1497Z" fill="#EEEEF0"/>
<rect x="896.768" y="97.546" width="126.96" height="63.0371" fill="#0F0F11"/>
<path d="M913.981 135.035V124.635H916.034V133.395H920.514V135.035H913.981ZM924.995 135.235C923.697 135.235 922.728 134.857 922.088 134.102C921.457 133.337 921.142 132.315 921.142 131.035C921.142 129.755 921.457 128.737 922.088 127.982C922.728 127.217 923.697 126.835 924.995 126.835C926.293 126.835 927.262 127.217 927.902 127.982C928.542 128.737 928.862 129.755 928.862 131.035C928.862 132.315 928.542 133.337 927.902 134.102C927.262 134.857 926.293 135.235 924.995 135.235ZM924.995 133.862C925.626 133.862 926.084 133.622 926.368 133.142C926.662 132.653 926.808 131.951 926.808 131.035C926.808 130.111 926.662 129.408 926.368 128.928C926.084 128.448 925.626 128.208 924.995 128.208C924.373 128.208 923.915 128.448 923.622 128.928C923.328 129.408 923.182 130.111 923.182 131.035C923.182 131.951 923.328 132.653 923.622 133.142C923.915 133.622 924.373 133.862 924.995 133.862ZM933.565 135.235C932.347 135.235 931.423 134.857 930.792 134.102C930.16 133.337 929.845 132.315 929.845 131.035C929.845 129.693 930.174 128.657 930.832 127.928C931.498 127.199 932.414 126.835 933.578 126.835C934.609 126.835 935.423 127.111 936.018 127.662C936.614 128.213 936.969 128.968 937.085 129.928H935.138C935.076 129.395 934.912 128.986 934.645 128.702C934.378 128.408 934.032 128.262 933.605 128.262C933.045 128.262 932.618 128.506 932.325 128.995C932.032 129.475 931.885 130.155 931.885 131.035C931.885 131.915 932.027 132.595 932.312 133.075C932.605 133.555 933.032 133.795 933.592 133.795C934.027 133.795 934.378 133.653 934.645 133.368C934.912 133.075 935.076 132.662 935.138 132.128H937.085C936.96 133.088 936.596 133.848 935.992 134.408C935.396 134.959 934.587 135.235 933.565 135.235ZM941.257 135.208C940.528 135.208 939.923 135.031 939.443 134.675C938.963 134.311 938.603 133.817 938.363 133.195C938.132 132.564 938.017 131.839 938.017 131.022C938.017 130.186 938.137 129.457 938.377 128.835C938.617 128.213 938.977 127.728 939.457 127.382C939.937 127.035 940.537 126.862 941.257 126.862C941.826 126.862 942.288 126.977 942.643 127.208C943.008 127.431 943.279 127.719 943.457 128.075H943.777V127.035H945.603V135.035H943.777V133.995H943.457C943.279 134.324 943.012 134.608 942.657 134.848C942.301 135.088 941.835 135.208 941.257 135.208ZM941.75 133.768C942.319 133.768 942.772 133.519 943.11 133.022C943.457 132.524 943.63 131.862 943.63 131.035C943.63 130.199 943.457 129.537 943.11 129.048C942.772 128.551 942.319 128.302 941.75 128.302C941.217 128.302 940.799 128.533 940.497 128.995C940.203 129.457 940.057 130.137 940.057 131.035C940.057 131.933 940.203 132.613 940.497 133.075C940.799 133.537 941.217 133.768 941.75 133.768ZM948.299 135.035C948.059 134.759 947.886 134.444 947.779 134.088C947.673 133.733 947.619 133.253 947.619 132.648V124.368H949.606V132.435C949.606 133.119 949.682 133.648 949.833 134.022C949.984 134.386 950.179 134.697 950.419 134.955V135.035H948.299ZM954.981 135.035V124.635H958.607C960.439 124.635 961.767 125.093 962.594 126.008C963.43 126.915 963.847 128.191 963.847 129.835C963.847 131.479 963.43 132.759 962.594 133.675C961.767 134.582 960.439 135.035 958.607 135.035H954.981ZM957.034 133.422H958.474C959.212 133.422 959.821 133.306 960.301 133.075C960.781 132.844 961.136 132.471 961.367 131.955C961.607 131.431 961.727 130.724 961.727 129.835C961.727 128.946 961.607 128.239 961.367 127.715C961.136 127.191 960.781 126.817 960.301 126.595C959.821 126.364 959.212 126.248 958.474 126.248H957.034V133.422ZM968.582 135.235C967.347 135.235 966.405 134.857 965.756 134.102C965.107 133.337 964.782 132.311 964.782 131.022C964.782 130.159 964.925 129.417 965.209 128.795C965.502 128.173 965.929 127.693 966.489 127.355C967.058 127.008 967.751 126.835 968.569 126.835C969.734 126.835 970.622 127.195 971.236 127.915C971.858 128.626 972.169 129.675 972.169 131.062V131.502H966.716C966.76 132.204 966.942 132.764 967.262 133.182C967.582 133.599 968.027 133.808 968.596 133.808C969.031 133.808 969.382 133.679 969.649 133.422C969.916 133.164 970.098 132.848 970.196 132.475H972.076C971.987 132.973 971.805 133.431 971.529 133.848C971.254 134.266 970.871 134.604 970.382 134.862C969.902 135.111 969.302 135.235 968.582 135.235ZM966.716 130.222H970.249C970.214 129.582 970.049 129.084 969.756 128.728C969.471 128.373 969.071 128.195 968.556 128.195C968.031 128.195 967.609 128.368 967.289 128.715C966.978 129.053 966.787 129.555 966.716 130.222ZM974.997 135.035L972.663 127.115V127.035H974.663L976.45 133.408H976.77L978.57 127.035H980.397V127.115L978.063 135.035H974.997ZM981.613 135.035V127.035H983.599V135.035H981.613ZM982.599 126.062C982.244 126.062 981.973 125.968 981.786 125.782C981.599 125.586 981.506 125.337 981.506 125.035C981.506 124.724 981.599 124.475 981.786 124.288C981.973 124.102 982.244 124.008 982.599 124.008C982.955 124.008 983.226 124.102 983.413 124.288C983.599 124.475 983.693 124.724 983.693 125.035C983.693 125.337 983.599 125.586 983.413 125.782C983.226 125.968 982.955 126.062 982.599 126.062ZM988.846 135.235C987.628 135.235 986.704 134.857 986.073 134.102C985.442 133.337 985.126 132.315 985.126 131.035C985.126 129.693 985.455 128.657 986.113 127.928C986.779 127.199 987.695 126.835 988.859 126.835C989.891 126.835 990.704 127.111 991.299 127.662C991.895 128.213 992.251 128.968 992.366 129.928H990.419C990.357 129.395 990.193 128.986 989.926 128.702C989.659 128.408 989.313 128.262 988.886 128.262C988.326 128.262 987.899 128.506 987.606 128.995C987.313 129.475 987.166 130.155 987.166 131.035C987.166 131.915 987.308 132.595 987.593 133.075C987.886 133.555 988.313 133.795 988.873 133.795C989.308 133.795 989.659 133.653 989.926 133.368C990.193 133.075 990.357 132.662 990.419 132.128H992.366C992.242 133.088 991.877 133.848 991.273 134.408C990.677 134.959 989.868 135.235 988.846 135.235ZM997.098 135.235C995.862 135.235 994.92 134.857 994.271 134.102C993.622 133.337 993.298 132.311 993.298 131.022C993.298 130.159 993.44 129.417 993.725 128.795C994.018 128.173 994.445 127.693 995.005 127.355C995.574 127.008 996.267 126.835 997.085 126.835C998.249 126.835 999.138 127.195 999.751 127.915C1000.37 128.626 1000.68 129.675 1000.68 131.062V131.502H995.231C995.276 132.204 995.458 132.764 995.778 133.182C996.098 133.599 996.542 133.808 997.111 133.808C997.547 133.808 997.898 133.679 998.165 133.422C998.431 133.164 998.614 132.848 998.711 132.475H1000.59C1000.5 132.973 1000.32 133.431 1000.04 133.848C999.769 134.266 999.387 134.604 998.898 134.862C998.418 135.111 997.818 135.235 997.098 135.235ZM995.231 130.222H998.765C998.729 129.582 998.565 129.084 998.271 128.728C997.987 128.373 997.587 128.195 997.071 128.195C996.547 128.195 996.125 128.368 995.805 128.715C995.494 129.053 995.302 129.555 995.231 130.222ZM1005.05 135.235C1004.2 135.235 1003.52 135.097 1003 134.822C1002.48 134.546 1002.1 134.195 1001.85 133.768C1001.61 133.342 1001.48 132.911 1001.45 132.475H1003.35C1003.38 132.715 1003.47 132.937 1003.61 133.142C1003.76 133.346 1003.96 133.511 1004.21 133.635C1004.47 133.751 1004.78 133.808 1005.15 133.808C1005.58 133.808 1005.9 133.728 1006.11 133.568C1006.31 133.408 1006.41 133.204 1006.41 132.955C1006.41 132.724 1006.32 132.528 1006.15 132.368C1005.97 132.208 1005.68 132.062 1005.28 131.928L1004.32 131.608C1003.87 131.448 1003.45 131.275 1003.07 131.088C1002.69 130.893 1002.39 130.644 1002.16 130.342C1001.94 130.039 1001.83 129.653 1001.83 129.182C1001.83 128.479 1002.09 127.915 1002.61 127.488C1003.15 127.053 1003.89 126.835 1004.85 126.835C1005.55 126.835 1006.12 126.946 1006.56 127.168C1007 127.382 1007.34 127.675 1007.56 128.048C1007.79 128.413 1007.92 128.822 1007.96 129.275H1006.13C1006.09 128.946 1005.96 128.684 1005.73 128.488C1005.51 128.293 1005.19 128.195 1004.77 128.195C1004.41 128.195 1004.13 128.271 1003.95 128.422C1003.76 128.564 1003.67 128.759 1003.67 129.008C1003.67 129.257 1003.76 129.462 1003.96 129.622C1004.16 129.782 1004.45 129.928 1004.84 130.062L1005.8 130.382C1006.25 130.524 1006.67 130.693 1007.04 130.888C1007.41 131.075 1007.71 131.319 1007.93 131.622C1008.16 131.924 1008.27 132.315 1008.27 132.795C1008.27 133.524 1007.99 134.115 1007.44 134.568C1006.89 135.013 1006.09 135.235 1005.05 135.235Z" fill="#EEEEF0"/>
<rect x="896.721" y="225.64" width="190.981" height="63.0371" fill="#0F0F11"/>
<path d="M910.574 263.129V252.729H914.201C916.032 252.729 917.361 253.186 918.188 254.102C919.023 255.009 919.441 256.284 919.441 257.929C919.441 259.573 919.023 260.853 918.188 261.769C917.361 262.675 916.032 263.129 914.201 263.129H910.574ZM912.628 261.515H914.068C914.806 261.515 915.414 261.4 915.894 261.169C916.374 260.938 916.73 260.564 916.961 260.049C917.201 259.524 917.321 258.818 917.321 257.929C917.321 257.04 917.201 256.333 916.961 255.809C916.73 255.284 916.374 254.911 915.894 254.689C915.414 254.458 914.806 254.342 914.068 254.342H912.628V261.515ZM924.176 263.329C922.941 263.329 921.998 262.951 921.349 262.195C920.701 261.431 920.376 260.404 920.376 259.115C920.376 258.253 920.518 257.511 920.803 256.889C921.096 256.266 921.523 255.786 922.083 255.449C922.652 255.102 923.345 254.929 924.163 254.929C925.327 254.929 926.216 255.289 926.829 256.009C927.452 256.72 927.763 257.769 927.763 259.155V259.595H922.309C922.354 260.298 922.536 260.858 922.856 261.275C923.176 261.693 923.621 261.902 924.189 261.902C924.625 261.902 924.976 261.773 925.243 261.515C925.509 261.258 925.692 260.942 925.789 260.569H927.669C927.581 261.066 927.398 261.524 927.123 261.942C926.847 262.36 926.465 262.698 925.976 262.955C925.496 263.204 924.896 263.329 924.176 263.329ZM922.309 258.315H925.843C925.807 257.675 925.643 257.178 925.349 256.822C925.065 256.466 924.665 256.289 924.149 256.289C923.625 256.289 923.203 256.462 922.883 256.809C922.572 257.146 922.381 257.649 922.309 258.315ZM930.59 263.129L928.257 255.209V255.129H930.257L932.044 261.502H932.364L934.164 255.129H935.99V255.209L933.657 263.129H930.59ZM940.473 263.329C939.237 263.329 938.295 262.951 937.646 262.195C936.997 261.431 936.673 260.404 936.673 259.115C936.673 258.253 936.815 257.511 937.1 256.889C937.393 256.266 937.82 255.786 938.38 255.449C938.949 255.102 939.642 254.929 940.46 254.929C941.624 254.929 942.513 255.289 943.126 256.009C943.749 256.72 944.06 257.769 944.06 259.155V259.595H938.606C938.651 260.298 938.833 260.858 939.153 261.275C939.473 261.693 939.917 261.902 940.486 261.902C940.922 261.902 941.273 261.773 941.54 261.515C941.806 261.258 941.989 260.942 942.086 260.569H943.966C943.877 261.066 943.695 261.524 943.42 261.942C943.144 262.36 942.762 262.698 942.273 262.955C941.793 263.204 941.193 263.329 940.473 263.329ZM938.606 258.315H942.14C942.104 257.675 941.94 257.178 941.646 256.822C941.362 256.466 940.962 256.289 940.446 256.289C939.922 256.289 939.5 256.462 939.18 256.809C938.869 257.146 938.677 257.649 938.606 258.315ZM946.174 263.129C945.934 262.853 945.761 262.538 945.654 262.182C945.548 261.826 945.494 261.346 945.494 260.742V252.462H947.481V260.529C947.481 261.213 947.557 261.742 947.708 262.115C947.859 262.48 948.054 262.791 948.294 263.049V263.129H946.174ZM952.933 263.329C951.635 263.329 950.666 262.951 950.026 262.195C949.395 261.431 949.079 260.409 949.079 259.129C949.079 257.849 949.395 256.831 950.026 256.075C950.666 255.311 951.635 254.929 952.933 254.929C954.23 254.929 955.199 255.311 955.839 256.075C956.479 256.831 956.799 257.849 956.799 259.129C956.799 260.409 956.479 261.431 955.839 262.195C955.199 262.951 954.23 263.329 952.933 263.329ZM952.933 261.955C953.564 261.955 954.021 261.715 954.306 261.235C954.599 260.746 954.746 260.044 954.746 259.129C954.746 258.204 954.599 257.502 954.306 257.022C954.021 256.542 953.564 256.302 952.933 256.302C952.31 256.302 951.853 256.542 951.559 257.022C951.266 257.502 951.119 258.204 951.119 259.129C951.119 260.044 951.266 260.746 951.559 261.235C951.853 261.715 952.31 261.955 952.933 261.955ZM958.316 265.795V255.129H960.142V256.169H960.462C960.631 255.831 960.894 255.546 961.249 255.315C961.614 255.075 962.094 254.955 962.689 254.955C963.409 254.955 964.005 255.133 964.476 255.489C964.956 255.844 965.311 256.338 965.542 256.969C965.782 257.591 965.902 258.315 965.902 259.142C965.902 259.96 965.782 260.684 965.542 261.315C965.302 261.946 964.942 262.435 964.462 262.782C963.991 263.129 963.405 263.302 962.702 263.302C962.178 263.302 961.747 263.204 961.409 263.009C961.071 262.813 960.809 262.551 960.622 262.222H960.302V265.795H958.316ZM962.169 261.862C962.702 261.862 963.116 261.631 963.409 261.169C963.702 260.706 963.849 260.026 963.849 259.129C963.849 258.231 963.702 257.551 963.409 257.089C963.116 256.626 962.702 256.395 962.169 256.395C961.6 256.395 961.142 256.644 960.796 257.142C960.458 257.631 960.289 258.293 960.289 259.129C960.289 259.955 960.458 260.618 960.796 261.115C961.142 261.613 961.6 261.862 962.169 261.862ZM967.425 263.129V255.129H969.252V256.329H969.572C969.714 255.929 969.95 255.595 970.278 255.329C970.616 255.062 971.087 254.929 971.692 254.929C972.252 254.929 972.714 255.053 973.078 255.302C973.443 255.542 973.723 255.884 973.918 256.329H974.238C974.39 255.92 974.638 255.586 974.985 255.329C975.332 255.062 975.798 254.929 976.385 254.929C977.256 254.929 977.901 255.213 978.318 255.782C978.736 256.342 978.945 257.093 978.945 258.035V263.129H976.972V258.382C976.972 257.804 976.874 257.355 976.678 257.035C976.492 256.715 976.19 256.555 975.772 256.555C975.256 256.555 974.861 256.773 974.585 257.209C974.31 257.644 974.172 258.178 974.172 258.809V263.129H972.198V258.382C972.198 257.804 972.101 257.355 971.905 257.035C971.718 256.715 971.416 256.555 970.998 256.555C970.492 256.555 970.101 256.773 969.825 257.209C969.55 257.644 969.412 258.178 969.412 258.809V263.129H967.425ZM984.161 263.329C982.925 263.329 981.983 262.951 981.334 262.195C980.685 261.431 980.361 260.404 980.361 259.115C980.361 258.253 980.503 257.511 980.787 256.889C981.081 256.266 981.507 255.786 982.067 255.449C982.636 255.102 983.329 254.929 984.147 254.929C985.312 254.929 986.201 255.289 986.814 256.009C987.436 256.72 987.747 257.769 987.747 259.155V259.595H982.294C982.338 260.298 982.521 260.858 982.841 261.275C983.161 261.693 983.605 261.902 984.174 261.902C984.609 261.902 984.961 261.773 985.227 261.515C985.494 261.258 985.676 260.942 985.774 260.569H987.654C987.565 261.066 987.383 261.524 987.107 261.942C986.832 262.36 986.449 262.698 985.961 262.955C985.481 263.204 984.881 263.329 984.161 263.329ZM982.294 258.315H985.827C985.792 257.675 985.627 257.178 985.334 256.822C985.049 256.466 984.649 256.289 984.134 256.289C983.609 256.289 983.187 256.462 982.867 256.809C982.556 257.146 982.365 257.649 982.294 258.315ZM989.222 263.129V255.129H991.049V256.329H991.369C991.52 255.92 991.769 255.586 992.115 255.329C992.462 255.062 992.951 254.929 993.582 254.929C994.48 254.929 995.146 255.213 995.582 255.782C996.026 256.342 996.249 257.093 996.249 258.035V263.129H994.262V258.382C994.262 257.795 994.155 257.346 993.942 257.035C993.738 256.715 993.404 256.555 992.942 256.555C992.391 256.555 991.964 256.773 991.662 257.209C991.36 257.635 991.209 258.169 991.209 258.809V263.129H989.222ZM999.324 263.129C999.12 262.889 998.955 262.6 998.831 262.262C998.715 261.924 998.657 261.418 998.657 260.742V256.542H997.564V255.129H998.684V253.129H1000.62V255.129H1001.94V256.542H1000.63V260.515C1000.63 261.226 1000.71 261.769 1000.87 262.142C1001.03 262.506 1001.22 262.809 1001.44 263.049V263.129H999.324ZM1010.69 263.329C1009.2 263.329 1008.05 262.853 1007.22 261.902C1006.39 260.951 1005.98 259.626 1005.98 257.929C1005.98 256.24 1006.39 254.92 1007.21 253.969C1008.02 253.009 1009.18 252.529 1010.69 252.529C1011.57 252.529 1012.34 252.698 1012.98 253.035C1013.62 253.364 1014.12 253.826 1014.49 254.422C1014.85 255.018 1015.06 255.706 1015.13 256.489H1013.07C1013 255.742 1012.75 255.155 1012.33 254.729C1011.91 254.302 1011.36 254.089 1010.69 254.089C1009.83 254.089 1009.19 254.426 1008.75 255.102C1008.32 255.769 1008.1 256.715 1008.1 257.942C1008.1 259.204 1008.32 260.16 1008.77 260.809C1009.22 261.449 1009.85 261.769 1010.67 261.769C1011.38 261.769 1011.94 261.546 1012.35 261.102C1012.77 260.658 1013.01 260.08 1013.07 259.369H1015.13C1015.06 260.142 1014.85 260.826 1014.49 261.422C1014.12 262.018 1013.62 262.484 1012.98 262.822C1012.35 263.16 1011.58 263.329 1010.69 263.329ZM1019.85 263.329C1018.56 263.329 1017.59 262.951 1016.95 262.195C1016.32 261.431 1016 260.409 1016 259.129C1016 257.849 1016.32 256.831 1016.95 256.075C1017.59 255.311 1018.56 254.929 1019.85 254.929C1021.15 254.929 1022.12 255.311 1022.76 256.075C1023.4 256.831 1023.72 257.849 1023.72 259.129C1023.72 260.409 1023.4 261.431 1022.76 262.195C1022.12 262.951 1021.15 263.329 1019.85 263.329ZM1019.85 261.955C1020.49 261.955 1020.94 261.715 1021.23 261.235C1021.52 260.746 1021.67 260.044 1021.67 259.129C1021.67 258.204 1021.52 257.502 1021.23 257.022C1020.94 256.542 1020.49 256.302 1019.85 256.302C1019.23 256.302 1018.77 256.542 1018.48 257.022C1018.19 257.502 1018.04 258.204 1018.04 259.129C1018.04 260.044 1018.19 260.746 1018.48 261.235C1018.77 261.715 1019.23 261.955 1019.85 261.955ZM1025.24 263.129V255.129H1027.06V256.329H1027.38C1027.54 255.92 1027.78 255.586 1028.13 255.329C1028.48 255.062 1028.97 254.929 1029.6 254.929C1030.5 254.929 1031.16 255.213 1031.6 255.782C1032.04 256.342 1032.26 257.093 1032.26 258.035V263.129H1030.28V258.382C1030.28 257.795 1030.17 257.346 1029.96 257.035C1029.75 256.715 1029.42 256.555 1028.96 256.555C1028.41 256.555 1027.98 256.773 1027.68 257.209C1027.38 257.635 1027.22 258.169 1027.22 258.809V263.129H1025.24ZM1035.34 263.129C1035.14 262.889 1034.97 262.6 1034.85 262.262C1034.73 261.924 1034.67 261.418 1034.67 260.742V256.542H1033.58V255.129H1034.7V253.129H1036.63V255.129H1037.95V256.542H1036.65V260.515C1036.65 261.226 1036.73 261.769 1036.89 262.142C1037.05 262.506 1037.24 262.809 1037.46 263.049V263.129H1035.34ZM1042.08 263.302C1041.36 263.302 1040.75 263.124 1040.27 262.769C1039.79 262.404 1039.43 261.911 1039.19 261.289C1038.96 260.658 1038.84 259.933 1038.84 259.115C1038.84 258.28 1038.96 257.551 1039.2 256.929C1039.44 256.306 1039.8 255.822 1040.28 255.475C1040.76 255.129 1041.36 254.955 1042.08 254.955C1042.65 254.955 1043.12 255.071 1043.47 255.302C1043.84 255.524 1044.11 255.813 1044.28 256.169H1044.6V255.129H1046.43V263.129H1044.6V262.089H1044.28C1044.11 262.418 1043.84 262.702 1043.48 262.942C1043.13 263.182 1042.66 263.302 1042.08 263.302ZM1042.58 261.862C1043.15 261.862 1043.6 261.613 1043.94 261.115C1044.28 260.618 1044.46 259.955 1044.46 259.129C1044.46 258.293 1044.28 257.631 1043.94 257.142C1043.6 256.644 1043.15 256.395 1042.58 256.395C1042.04 256.395 1041.63 256.626 1041.32 257.089C1041.03 257.551 1040.88 258.231 1040.88 259.129C1040.88 260.026 1041.03 260.706 1041.32 261.169C1041.63 261.631 1042.04 261.862 1042.58 261.862ZM1048.49 263.129V255.129H1050.47V263.129H1048.49ZM1049.47 254.155C1049.12 254.155 1048.85 254.062 1048.66 253.875C1048.47 253.68 1048.38 253.431 1048.38 253.129C1048.38 252.818 1048.47 252.569 1048.66 252.382C1048.85 252.195 1049.12 252.102 1049.47 252.102C1049.83 252.102 1050.1 252.195 1050.29 252.382C1050.47 252.569 1050.57 252.818 1050.57 253.129C1050.57 253.431 1050.47 253.68 1050.29 253.875C1050.1 254.062 1049.83 254.155 1049.47 254.155ZM1052.53 263.129V255.129H1054.36V256.329H1054.68C1054.83 255.92 1055.08 255.586 1055.43 255.329C1055.77 255.062 1056.26 254.929 1056.89 254.929C1057.79 254.929 1058.46 255.213 1058.89 255.782C1059.34 256.342 1059.56 257.093 1059.56 258.035V263.129H1057.57V258.382C1057.57 257.795 1057.47 257.346 1057.25 257.035C1057.05 256.715 1056.72 256.555 1056.25 256.555C1055.7 256.555 1055.28 256.773 1054.97 257.209C1054.67 257.635 1054.52 258.169 1054.52 258.809V263.129H1052.53ZM1064.77 263.329C1063.53 263.329 1062.59 262.951 1061.94 262.195C1061.29 261.431 1060.97 260.404 1060.97 259.115C1060.97 258.253 1061.11 257.511 1061.4 256.889C1061.69 256.266 1062.12 255.786 1062.68 255.449C1063.25 255.102 1063.94 254.929 1064.76 254.929C1065.92 254.929 1066.81 255.289 1067.42 256.009C1068.05 256.72 1068.36 257.769 1068.36 259.155V259.595H1062.9C1062.95 260.298 1063.13 260.858 1063.45 261.275C1063.77 261.693 1064.21 261.902 1064.78 261.902C1065.22 261.902 1065.57 261.773 1065.84 261.515C1066.1 261.258 1066.29 260.942 1066.38 260.569H1068.26C1068.17 261.066 1067.99 261.524 1067.72 261.942C1067.44 262.36 1067.06 262.698 1066.57 262.955C1066.09 263.204 1065.49 263.329 1064.77 263.329ZM1062.9 258.315H1066.44C1066.4 257.675 1066.24 257.178 1065.94 256.822C1065.66 256.466 1065.26 256.289 1064.74 256.289C1064.22 256.289 1063.8 256.462 1063.48 256.809C1063.17 257.146 1062.97 257.649 1062.9 258.315ZM1069.82 263.129V255.129H1071.62V256.569H1071.94C1071.99 256.311 1072.09 256.066 1072.23 255.835C1072.37 255.604 1072.6 255.418 1072.9 255.275C1073.2 255.124 1073.61 255.049 1074.12 255.049H1074.51V256.849H1073.96C1073.2 256.849 1072.65 257.044 1072.31 257.435C1071.97 257.826 1071.8 258.418 1071.8 259.209V263.129H1069.82Z" fill="#EEEEF0"/>
<rect x="160.727" y="97.5176" width="190.925" height="63.0371" fill="#0F0F11"/>
<path d="M181.694 135.007V124.607H185.334L187.467 133.38H187.907L190.067 124.607H193.707V135.007H191.774V126.3H191.427L189.334 135.007H185.947L183.854 126.3H183.507V135.007H181.694ZM198.501 135.18C197.772 135.18 197.168 135.002 196.688 134.647C196.208 134.282 195.848 133.789 195.608 133.167C195.376 132.535 195.261 131.811 195.261 130.993C195.261 130.158 195.381 129.429 195.621 128.807C195.861 128.184 196.221 127.7 196.701 127.353C197.181 127.007 197.781 126.833 198.501 126.833C199.07 126.833 199.532 126.949 199.888 127.18C200.252 127.402 200.523 127.691 200.701 128.047H201.021V127.007H202.848V135.007H201.021V133.967H200.701C200.523 134.295 200.256 134.58 199.901 134.82C199.545 135.06 199.079 135.18 198.501 135.18ZM198.994 133.74C199.563 133.74 200.016 133.491 200.354 132.993C200.701 132.495 200.874 131.833 200.874 131.007C200.874 130.171 200.701 129.509 200.354 129.02C200.016 128.522 199.563 128.273 198.994 128.273C198.461 128.273 198.043 128.504 197.741 128.967C197.448 129.429 197.301 130.109 197.301 131.007C197.301 131.904 197.448 132.584 197.741 133.047C198.043 133.509 198.461 133.74 198.994 133.74ZM204.904 135.007V127.007H206.73V128.207H207.05C207.201 127.798 207.45 127.464 207.797 127.207C208.144 126.94 208.633 126.807 209.264 126.807C210.161 126.807 210.828 127.091 211.264 127.66C211.708 128.22 211.93 128.971 211.93 129.913V135.007H209.944V130.26C209.944 129.673 209.837 129.224 209.624 128.913C209.419 128.593 209.086 128.433 208.624 128.433C208.073 128.433 207.646 128.651 207.344 129.087C207.041 129.513 206.89 130.047 206.89 130.687V135.007H204.904ZM216.579 135.18C215.85 135.18 215.246 135.002 214.766 134.647C214.286 134.282 213.926 133.789 213.686 133.167C213.455 132.535 213.339 131.811 213.339 130.993C213.339 130.158 213.459 129.429 213.699 128.807C213.939 128.184 214.299 127.7 214.779 127.353C215.259 127.007 215.859 126.833 216.579 126.833C217.148 126.833 217.61 126.949 217.966 127.18C218.33 127.402 218.601 127.691 218.779 128.047H219.099V127.007H220.926V135.007H219.099V133.967H218.779C218.601 134.295 218.335 134.58 217.979 134.82C217.623 135.06 217.157 135.18 216.579 135.18ZM217.072 133.74C217.641 133.74 218.095 133.491 218.432 132.993C218.779 132.495 218.952 131.833 218.952 131.007C218.952 130.171 218.779 129.509 218.432 129.02C218.095 128.522 217.641 128.273 217.072 128.273C216.539 128.273 216.121 128.504 215.819 128.967C215.526 129.429 215.379 130.109 215.379 131.007C215.379 131.904 215.526 132.584 215.819 133.047C216.121 133.509 216.539 133.74 217.072 133.74ZM226.275 137.873C225.573 137.873 225 137.784 224.555 137.607C224.12 137.438 223.777 137.22 223.528 136.953C223.288 136.695 223.115 136.424 223.008 136.14C222.902 135.864 222.84 135.611 222.822 135.38H224.755C224.8 135.655 224.933 135.9 225.155 136.113C225.386 136.335 225.76 136.447 226.275 136.447C226.844 136.447 227.275 136.278 227.568 135.94C227.871 135.611 228.022 135.127 228.022 134.487V133.553H227.702C227.568 133.927 227.333 134.224 226.995 134.447C226.657 134.669 226.208 134.78 225.648 134.78C224.617 134.78 223.826 134.42 223.275 133.7C222.724 132.971 222.448 131.998 222.448 130.78C222.448 129.998 222.568 129.309 222.808 128.713C223.057 128.109 223.417 127.642 223.888 127.313C224.368 126.975 224.964 126.807 225.675 126.807C226.235 126.807 226.68 126.918 227.008 127.14C227.346 127.353 227.595 127.633 227.755 127.98H228.075V127.007H229.902V134.447C229.902 135.54 229.6 136.384 228.995 136.98C228.4 137.575 227.493 137.873 226.275 137.873ZM226.128 133.34C226.697 133.34 227.137 133.109 227.448 132.647C227.768 132.175 227.928 131.558 227.928 130.793C227.928 130.011 227.768 129.393 227.448 128.94C227.128 128.478 226.688 128.247 226.128 128.247C225.613 128.247 225.204 128.46 224.902 128.887C224.6 129.313 224.448 129.949 224.448 130.793C224.448 131.638 224.595 132.273 224.888 132.7C225.191 133.127 225.604 133.34 226.128 133.34ZM235.217 135.207C233.982 135.207 233.039 134.829 232.39 134.073C231.742 133.309 231.417 132.282 231.417 130.993C231.417 130.131 231.559 129.389 231.844 128.767C232.137 128.144 232.564 127.664 233.124 127.327C233.693 126.98 234.386 126.807 235.204 126.807C236.368 126.807 237.257 127.167 237.87 127.887C238.493 128.598 238.804 129.647 238.804 131.033V131.473H233.35C233.395 132.175 233.577 132.735 233.897 133.153C234.217 133.571 234.662 133.78 235.23 133.78C235.666 133.78 236.017 133.651 236.284 133.393C236.55 133.135 236.733 132.82 236.83 132.447H238.71C238.622 132.944 238.439 133.402 238.164 133.82C237.888 134.238 237.506 134.575 237.017 134.833C236.537 135.082 235.937 135.207 235.217 135.207ZM233.35 130.193H236.884C236.848 129.553 236.684 129.055 236.39 128.7C236.106 128.344 235.706 128.167 235.19 128.167C234.666 128.167 234.244 128.34 233.924 128.687C233.613 129.024 233.422 129.527 233.35 130.193ZM242.945 135.18C242.225 135.18 241.63 135.002 241.159 134.647C240.688 134.282 240.332 133.789 240.092 133.167C239.852 132.535 239.732 131.811 239.732 130.993C239.732 130.158 239.852 129.429 240.092 128.807C240.332 128.184 240.688 127.7 241.159 127.353C241.639 127.007 242.23 126.833 242.932 126.833C243.465 126.833 243.896 126.931 244.225 127.127C244.563 127.322 244.83 127.58 245.025 127.9H245.345V124.34H247.319V135.007H245.505V133.967H245.185C245.008 134.295 244.736 134.58 244.372 134.82C244.016 135.06 243.541 135.18 242.945 135.18ZM243.465 133.74C244.043 133.74 244.501 133.491 244.839 132.993C245.176 132.495 245.345 131.833 245.345 131.007C245.345 130.171 245.176 129.509 244.839 129.02C244.501 128.522 244.043 128.273 243.465 128.273C242.941 128.273 242.528 128.504 242.225 128.967C241.932 129.429 241.785 130.109 241.785 131.007C241.785 131.904 241.932 132.584 242.225 133.047C242.528 133.509 242.941 133.74 243.465 133.74ZM252.631 135.007V124.607H254.631V128.7H255.431L258.551 124.607H260.818V124.687L257.124 129.433L261.351 134.927V135.007H258.898L255.431 130.353H254.631V135.007H252.631ZM264.553 135.207C263.646 135.207 262.971 134.927 262.526 134.367C262.082 133.798 261.859 133.042 261.859 132.1V127.007H263.846V131.753C263.846 132.331 263.948 132.78 264.153 133.1C264.366 133.42 264.699 133.58 265.153 133.58C265.713 133.58 266.144 133.362 266.446 132.927C266.748 132.491 266.899 131.958 266.899 131.327V127.007H268.886V135.007H267.099V133.807H266.779C266.646 134.215 266.397 134.553 266.033 134.82C265.677 135.078 265.184 135.207 264.553 135.207ZM275.308 135.18C274.713 135.18 274.233 135.06 273.868 134.82C273.513 134.58 273.25 134.295 273.082 133.967H272.762V135.007H270.935V124.34H272.922V127.9H273.242C273.428 127.58 273.69 127.322 274.028 127.127C274.366 126.931 274.797 126.833 275.322 126.833C276.024 126.833 276.61 127.007 277.082 127.353C277.562 127.7 277.922 128.184 278.162 128.807C278.402 129.429 278.522 130.158 278.522 130.993C278.522 131.811 278.402 132.535 278.162 133.167C277.93 133.789 277.575 134.282 277.095 134.647C276.624 135.002 276.028 135.18 275.308 135.18ZM274.788 133.74C275.322 133.74 275.735 133.509 276.028 133.047C276.322 132.584 276.468 131.904 276.468 131.007C276.468 130.109 276.322 129.429 276.028 128.967C275.735 128.504 275.322 128.273 274.788 128.273C274.219 128.273 273.762 128.522 273.415 129.02C273.077 129.509 272.908 130.171 272.908 131.007C272.908 131.833 273.077 132.495 273.415 132.993C273.762 133.491 274.219 133.74 274.788 133.74ZM283.311 135.207C282.075 135.207 281.133 134.829 280.484 134.073C279.835 133.309 279.511 132.282 279.511 130.993C279.511 130.131 279.653 129.389 279.938 128.767C280.231 128.144 280.658 127.664 281.218 127.327C281.786 126.98 282.48 126.807 283.298 126.807C284.462 126.807 285.351 127.167 285.964 127.887C286.586 128.598 286.898 129.647 286.898 131.033V131.473H281.444C281.489 132.175 281.671 132.735 281.991 133.153C282.311 133.571 282.755 133.78 283.324 133.78C283.76 133.78 284.111 133.651 284.378 133.393C284.644 133.135 284.826 132.82 284.924 132.447H286.804C286.715 132.944 286.533 133.402 286.258 133.82C285.982 134.238 285.6 134.575 285.111 134.833C284.631 135.082 284.031 135.207 283.311 135.207ZM281.444 130.193H284.978C284.942 129.553 284.778 129.055 284.484 128.7C284.2 128.344 283.8 128.167 283.284 128.167C282.76 128.167 282.338 128.34 282.018 128.687C281.706 129.024 281.515 129.527 281.444 130.193ZM288.359 135.007V127.007H290.159V128.447H290.479C290.532 128.189 290.63 127.944 290.772 127.713C290.915 127.482 291.137 127.295 291.439 127.153C291.741 127.002 292.15 126.927 292.666 126.927H293.052V128.727H292.506C291.741 128.727 291.19 128.922 290.852 129.313C290.515 129.704 290.346 130.295 290.346 131.087V135.007H288.359ZM294.482 135.007V127.007H296.308V128.207H296.628C296.78 127.798 297.028 127.464 297.375 127.207C297.722 126.94 298.211 126.807 298.842 126.807C299.74 126.807 300.406 127.091 300.842 127.66C301.286 128.22 301.508 128.971 301.508 129.913V135.007H299.522V130.26C299.522 129.673 299.415 129.224 299.202 128.913C298.997 128.593 298.664 128.433 298.202 128.433C297.651 128.433 297.224 128.651 296.922 129.087C296.62 129.513 296.468 130.047 296.468 130.687V135.007H294.482ZM306.717 135.207C305.482 135.207 304.539 134.829 303.89 134.073C303.242 133.309 302.917 132.282 302.917 130.993C302.917 130.131 303.059 129.389 303.344 128.767C303.637 128.144 304.064 127.664 304.624 127.327C305.193 126.98 305.886 126.807 306.704 126.807C307.868 126.807 308.757 127.167 309.37 127.887C309.993 128.598 310.304 129.647 310.304 131.033V131.473H304.85C304.895 132.175 305.077 132.735 305.397 133.153C305.717 133.571 306.162 133.78 306.73 133.78C307.166 133.78 307.517 133.651 307.784 133.393C308.05 133.135 308.233 132.82 308.33 132.447H310.21C310.122 132.944 309.939 133.402 309.664 133.82C309.388 134.238 309.006 134.575 308.517 134.833C308.037 135.082 307.437 135.207 306.717 135.207ZM304.85 130.193H308.384C308.348 129.553 308.184 129.055 307.89 128.7C307.606 128.344 307.206 128.167 306.69 128.167C306.166 128.167 305.744 128.34 305.424 128.687C305.113 129.024 304.922 129.527 304.85 130.193ZM312.912 135.007C312.708 134.767 312.543 134.478 312.419 134.14C312.303 133.802 312.245 133.295 312.245 132.62V128.42H311.152V127.007H312.272V125.007H314.205V127.007H315.525V128.42H314.219V132.393C314.219 133.104 314.299 133.647 314.459 134.02C314.619 134.384 314.81 134.687 315.032 134.927V135.007H312.912ZM320.217 135.207C318.982 135.207 318.039 134.829 317.39 134.073C316.742 133.309 316.417 132.282 316.417 130.993C316.417 130.131 316.559 129.389 316.844 128.767C317.137 128.144 317.564 127.664 318.124 127.327C318.693 126.98 319.386 126.807 320.204 126.807C321.368 126.807 322.257 127.167 322.87 127.887C323.493 128.598 323.804 129.647 323.804 131.033V131.473H318.35C318.395 132.175 318.577 132.735 318.897 133.153C319.217 133.571 319.662 133.78 320.23 133.78C320.666 133.78 321.017 133.651 321.284 133.393C321.55 133.135 321.733 132.82 321.83 132.447H323.71C323.622 132.944 323.439 133.402 323.164 133.82C322.888 134.238 322.506 134.575 322.017 134.833C321.537 135.082 320.937 135.207 320.217 135.207ZM318.35 130.193H321.884C321.848 129.553 321.684 129.055 321.39 128.7C321.106 128.344 320.706 128.167 320.19 128.167C319.666 128.167 319.244 128.34 318.924 128.687C318.613 129.024 318.422 129.527 318.35 130.193ZM328.172 135.207C327.319 135.207 326.634 135.069 326.119 134.793C325.603 134.518 325.221 134.167 324.972 133.74C324.732 133.313 324.599 132.882 324.572 132.447H326.465C326.501 132.687 326.59 132.909 326.732 133.113C326.883 133.318 327.083 133.482 327.332 133.607C327.59 133.722 327.901 133.78 328.265 133.78C328.701 133.78 329.021 133.7 329.225 133.54C329.43 133.38 329.532 133.175 329.532 132.927C329.532 132.695 329.443 132.5 329.265 132.34C329.088 132.18 328.799 132.033 328.399 131.9L327.439 131.58C326.985 131.42 326.568 131.247 326.185 131.06C325.812 130.864 325.51 130.615 325.279 130.313C325.056 130.011 324.945 129.624 324.945 129.153C324.945 128.451 325.208 127.887 325.732 127.46C326.265 127.024 327.012 126.807 327.972 126.807C328.665 126.807 329.234 126.918 329.679 127.14C330.123 127.353 330.456 127.647 330.679 128.02C330.91 128.384 331.043 128.793 331.079 129.247H329.252C329.208 128.918 329.074 128.655 328.852 128.46C328.63 128.264 328.31 128.167 327.892 128.167C327.528 128.167 327.252 128.242 327.065 128.393C326.879 128.535 326.785 128.731 326.785 128.98C326.785 129.229 326.883 129.433 327.079 129.593C327.274 129.753 327.568 129.9 327.959 130.033L328.919 130.353C329.372 130.495 329.785 130.664 330.159 130.86C330.532 131.047 330.83 131.291 331.052 131.593C331.274 131.895 331.385 132.287 331.385 132.767C331.385 133.495 331.11 134.087 330.559 134.54C330.008 134.984 329.212 135.207 328.172 135.207Z" fill="#EEEEF0"/>
<rect x="160.727" y="225.462" width="158.983" height="63.0371" fill="#0F0F11"/>
<path d="M171.856 262.951V252.551H175.496L177.629 261.324H178.069L180.229 252.551H183.869V262.951H181.936V254.244H181.589L179.496 262.951H176.109L174.016 254.244H173.669V262.951H171.856ZM188.663 263.124C187.934 263.124 187.33 262.946 186.85 262.591C186.37 262.226 186.01 261.733 185.77 261.111C185.539 260.48 185.423 259.755 185.423 258.937C185.423 258.102 185.543 257.373 185.783 256.751C186.023 256.128 186.383 255.644 186.863 255.297C187.343 254.951 187.943 254.777 188.663 254.777C189.232 254.777 189.694 254.893 190.05 255.124C190.414 255.346 190.685 255.635 190.863 255.991H191.183V254.951H193.01V262.951H191.183V261.911H190.863C190.685 262.24 190.419 262.524 190.063 262.764C189.707 263.004 189.241 263.124 188.663 263.124ZM189.156 261.684C189.725 261.684 190.179 261.435 190.516 260.937C190.863 260.44 191.036 259.777 191.036 258.951C191.036 258.115 190.863 257.453 190.516 256.964C190.179 256.466 189.725 256.217 189.156 256.217C188.623 256.217 188.205 256.448 187.903 256.911C187.61 257.373 187.463 258.053 187.463 258.951C187.463 259.848 187.61 260.528 187.903 260.991C188.205 261.453 188.623 261.684 189.156 261.684ZM195.066 262.951V254.951H196.892V256.151H197.212C197.364 255.742 197.612 255.408 197.959 255.151C198.306 254.884 198.795 254.751 199.426 254.751C200.324 254.751 200.99 255.035 201.426 255.604C201.87 256.164 202.092 256.915 202.092 257.857V262.951H200.106V258.204C200.106 257.617 199.999 257.168 199.786 256.857C199.581 256.537 199.248 256.377 198.786 256.377C198.235 256.377 197.808 256.595 197.506 257.031C197.204 257.457 197.052 257.991 197.052 258.631V262.951H195.066ZM206.741 263.124C206.012 263.124 205.408 262.946 204.928 262.591C204.448 262.226 204.088 261.733 203.848 261.111C203.617 260.48 203.501 259.755 203.501 258.937C203.501 258.102 203.621 257.373 203.861 256.751C204.101 256.128 204.461 255.644 204.941 255.297C205.421 254.951 206.021 254.777 206.741 254.777C207.31 254.777 207.772 254.893 208.128 255.124C208.492 255.346 208.763 255.635 208.941 255.991H209.261V254.951H211.088V262.951H209.261V261.911H208.941C208.763 262.24 208.497 262.524 208.141 262.764C207.786 263.004 207.319 263.124 206.741 263.124ZM207.234 261.684C207.803 261.684 208.257 261.435 208.594 260.937C208.941 260.44 209.114 259.777 209.114 258.951C209.114 258.115 208.941 257.453 208.594 256.964C208.257 256.466 207.803 256.217 207.234 256.217C206.701 256.217 206.283 256.448 205.981 256.911C205.688 257.373 205.541 258.053 205.541 258.951C205.541 259.848 205.688 260.528 205.981 260.991C206.283 261.453 206.701 261.684 207.234 261.684ZM216.437 265.817C215.735 265.817 215.162 265.728 214.717 265.551C214.282 265.382 213.939 265.164 213.691 264.897C213.451 264.64 213.277 264.368 213.171 264.084C213.064 263.808 213.002 263.555 212.984 263.324H214.917C214.962 263.6 215.095 263.844 215.317 264.057C215.548 264.28 215.922 264.391 216.437 264.391C217.006 264.391 217.437 264.222 217.731 263.884C218.033 263.555 218.184 263.071 218.184 262.431V261.497H217.864C217.731 261.871 217.495 262.168 217.157 262.391C216.819 262.613 216.371 262.724 215.811 262.724C214.779 262.724 213.988 262.364 213.437 261.644C212.886 260.915 212.611 259.942 212.611 258.724C212.611 257.942 212.731 257.253 212.971 256.657C213.219 256.053 213.579 255.586 214.051 255.257C214.531 254.92 215.126 254.751 215.837 254.751C216.397 254.751 216.842 254.862 217.171 255.084C217.508 255.297 217.757 255.577 217.917 255.924H218.237V254.951H220.064V262.391C220.064 263.484 219.762 264.328 219.157 264.924C218.562 265.52 217.655 265.817 216.437 265.817ZM216.291 261.284C216.859 261.284 217.299 261.053 217.611 260.591C217.931 260.12 218.091 259.502 218.091 258.737C218.091 257.955 217.931 257.337 217.611 256.884C217.291 256.422 216.851 256.191 216.291 256.191C215.775 256.191 215.366 256.404 215.064 256.831C214.762 257.257 214.611 257.893 214.611 258.737C214.611 259.582 214.757 260.217 215.051 260.644C215.353 261.071 215.766 261.284 216.291 261.284ZM225.379 263.151C224.144 263.151 223.201 262.773 222.553 262.017C221.904 261.253 221.579 260.226 221.579 258.937C221.579 258.075 221.721 257.333 222.006 256.711C222.299 256.088 222.726 255.608 223.286 255.271C223.855 254.924 224.548 254.751 225.366 254.751C226.53 254.751 227.419 255.111 228.033 255.831C228.655 256.542 228.966 257.591 228.966 258.977V259.417H223.513C223.557 260.12 223.739 260.68 224.059 261.097C224.379 261.515 224.824 261.724 225.393 261.724C225.828 261.724 226.179 261.595 226.446 261.337C226.713 261.08 226.895 260.764 226.993 260.391H228.873C228.784 260.888 228.601 261.346 228.326 261.764C228.05 262.182 227.668 262.52 227.179 262.777C226.699 263.026 226.099 263.151 225.379 263.151ZM223.513 258.137H227.046C227.01 257.497 226.846 257 226.553 256.644C226.268 256.288 225.868 256.111 225.353 256.111C224.828 256.111 224.406 256.284 224.086 256.631C223.775 256.968 223.584 257.471 223.513 258.137ZM233.107 263.124C232.387 263.124 231.792 262.946 231.321 262.591C230.85 262.226 230.494 261.733 230.254 261.111C230.014 260.48 229.894 259.755 229.894 258.937C229.894 258.102 230.014 257.373 230.254 256.751C230.494 256.128 230.85 255.644 231.321 255.297C231.801 254.951 232.392 254.777 233.094 254.777C233.627 254.777 234.059 254.875 234.387 255.071C234.725 255.266 234.992 255.524 235.187 255.844H235.507V252.284H237.481V262.951H235.667V261.911H235.347C235.17 262.24 234.899 262.524 234.534 262.764C234.179 263.004 233.703 263.124 233.107 263.124ZM233.627 261.684C234.205 261.684 234.663 261.435 235.001 260.937C235.339 260.44 235.507 259.777 235.507 258.951C235.507 258.115 235.339 257.453 235.001 256.964C234.663 256.466 234.205 256.217 233.627 256.217C233.103 256.217 232.69 256.448 232.387 256.911C232.094 257.373 231.947 258.053 231.947 258.951C231.947 259.848 232.094 260.528 232.387 260.991C232.69 261.453 233.103 261.684 233.627 261.684ZM242.807 262.951V252.551H244.86V262.951H242.807ZM246.956 262.951V254.951H248.783V256.151H249.103C249.254 255.742 249.503 255.408 249.85 255.151C250.196 254.884 250.685 254.751 251.316 254.751C252.214 254.751 252.881 255.035 253.316 255.604C253.761 256.164 253.983 256.915 253.983 257.857V262.951H251.996V258.204C251.996 257.617 251.89 257.168 251.676 256.857C251.472 256.537 251.139 256.377 250.676 256.377C250.125 256.377 249.699 256.595 249.396 257.031C249.094 257.457 248.943 257.991 248.943 258.631V262.951H246.956ZM258.818 263.151C257.965 263.151 257.281 263.013 256.765 262.737C256.25 262.462 255.867 262.111 255.618 261.684C255.378 261.257 255.245 260.826 255.218 260.391H257.112C257.147 260.631 257.236 260.853 257.378 261.057C257.53 261.262 257.73 261.426 257.978 261.551C258.236 261.666 258.547 261.724 258.912 261.724C259.347 261.724 259.667 261.644 259.872 261.484C260.076 261.324 260.178 261.12 260.178 260.871C260.178 260.64 260.09 260.444 259.912 260.284C259.734 260.124 259.445 259.977 259.045 259.844L258.085 259.524C257.632 259.364 257.214 259.191 256.832 259.004C256.458 258.808 256.156 258.56 255.925 258.257C255.703 257.955 255.592 257.568 255.592 257.097C255.592 256.395 255.854 255.831 256.378 255.404C256.912 254.968 257.658 254.751 258.618 254.751C259.312 254.751 259.881 254.862 260.325 255.084C260.77 255.297 261.103 255.591 261.325 255.964C261.556 256.328 261.69 256.737 261.725 257.191H259.898C259.854 256.862 259.721 256.6 259.498 256.404C259.276 256.208 258.956 256.111 258.538 256.111C258.174 256.111 257.898 256.186 257.712 256.337C257.525 256.48 257.432 256.675 257.432 256.924C257.432 257.173 257.53 257.377 257.725 257.537C257.921 257.697 258.214 257.844 258.605 257.977L259.565 258.297C260.018 258.44 260.432 258.608 260.805 258.804C261.178 258.991 261.476 259.235 261.698 259.537C261.921 259.84 262.032 260.231 262.032 260.711C262.032 261.44 261.756 262.031 261.205 262.484C260.654 262.928 259.858 263.151 258.818 263.151ZM264.558 262.951C264.354 262.711 264.19 262.422 264.065 262.084C263.95 261.746 263.892 261.24 263.892 260.564V256.364H262.798V254.951H263.918V252.951H265.852V254.951H267.172V256.364H265.865V260.337C265.865 261.048 265.945 261.591 266.105 261.964C266.265 262.328 266.456 262.631 266.678 262.871V262.951H264.558ZM271.304 263.124C270.575 263.124 269.97 262.946 269.49 262.591C269.01 262.226 268.65 261.733 268.41 261.111C268.179 260.48 268.064 259.755 268.064 258.937C268.064 258.102 268.184 257.373 268.424 256.751C268.664 256.128 269.024 255.644 269.504 255.297C269.984 254.951 270.584 254.777 271.304 254.777C271.873 254.777 272.335 254.893 272.69 255.124C273.055 255.346 273.326 255.635 273.504 255.991H273.824V254.951H275.65V262.951H273.824V261.911H273.504C273.326 262.24 273.059 262.524 272.704 262.764C272.348 263.004 271.881 263.124 271.304 263.124ZM271.797 261.684C272.366 261.684 272.819 261.435 273.157 260.937C273.504 260.44 273.677 259.777 273.677 258.951C273.677 258.115 273.504 257.453 273.157 256.964C272.819 256.466 272.366 256.217 271.797 256.217C271.264 256.217 270.846 256.448 270.544 256.911C270.25 257.373 270.104 258.053 270.104 258.951C270.104 259.848 270.25 260.528 270.544 260.991C270.846 261.453 271.264 261.684 271.797 261.684ZM277.706 262.951V254.951H279.533V256.151H279.853C280.004 255.742 280.253 255.408 280.6 255.151C280.946 254.884 281.435 254.751 282.066 254.751C282.964 254.751 283.631 255.035 284.066 255.604C284.511 256.164 284.733 256.915 284.733 257.857V262.951H282.746V258.204C282.746 257.617 282.64 257.168 282.426 256.857C282.222 256.537 281.889 256.377 281.426 256.377C280.875 256.377 280.449 256.595 280.146 257.031C279.844 257.457 279.693 257.991 279.693 258.631V262.951H277.706ZM289.862 263.151C288.644 263.151 287.72 262.773 287.088 262.017C286.457 261.253 286.142 260.231 286.142 258.951C286.142 257.608 286.471 256.573 287.128 255.844C287.795 255.115 288.711 254.751 289.875 254.751C290.906 254.751 291.72 255.026 292.315 255.577C292.911 256.128 293.266 256.884 293.382 257.844H291.435C291.373 257.311 291.208 256.902 290.942 256.617C290.675 256.324 290.328 256.177 289.902 256.177C289.342 256.177 288.915 256.422 288.622 256.911C288.328 257.391 288.182 258.071 288.182 258.951C288.182 259.831 288.324 260.511 288.608 260.991C288.902 261.471 289.328 261.711 289.888 261.711C290.324 261.711 290.675 261.568 290.942 261.284C291.208 260.991 291.373 260.577 291.435 260.044H293.382C293.257 261.004 292.893 261.764 292.288 262.324C291.693 262.875 290.884 263.151 289.862 263.151ZM298.114 263.151C296.878 263.151 295.936 262.773 295.287 262.017C294.638 261.253 294.314 260.226 294.314 258.937C294.314 258.075 294.456 257.333 294.74 256.711C295.034 256.088 295.46 255.608 296.02 255.271C296.589 254.924 297.283 254.751 298.1 254.751C299.265 254.751 300.154 255.111 300.767 255.831C301.389 256.542 301.7 257.591 301.7 258.977V259.417H296.247C296.291 260.12 296.474 260.68 296.794 261.097C297.114 261.515 297.558 261.724 298.127 261.724C298.563 261.724 298.914 261.595 299.18 261.337C299.447 261.08 299.629 260.764 299.727 260.391H301.607C301.518 260.888 301.336 261.346 301.06 261.764C300.785 262.182 300.403 262.52 299.914 262.777C299.434 263.026 298.834 263.151 298.114 263.151ZM296.247 258.137H299.78C299.745 257.497 299.58 257 299.287 256.644C299.003 256.288 298.603 256.111 298.087 256.111C297.563 256.111 297.14 256.284 296.82 256.631C296.509 256.968 296.318 257.471 296.247 258.137ZM306.068 263.151C305.215 263.151 304.531 263.013 304.015 262.737C303.5 262.462 303.117 262.111 302.868 261.684C302.628 261.257 302.495 260.826 302.468 260.391H304.362C304.397 260.631 304.486 260.853 304.628 261.057C304.78 261.262 304.98 261.426 305.228 261.551C305.486 261.666 305.797 261.724 306.162 261.724C306.597 261.724 306.917 261.644 307.122 261.484C307.326 261.324 307.428 261.12 307.428 260.871C307.428 260.64 307.34 260.444 307.162 260.284C306.984 260.124 306.695 259.977 306.295 259.844L305.335 259.524C304.882 259.364 304.464 259.191 304.082 259.004C303.708 258.808 303.406 258.56 303.175 258.257C302.953 257.955 302.842 257.568 302.842 257.097C302.842 256.395 303.104 255.831 303.628 255.404C304.162 254.968 304.908 254.751 305.868 254.751C306.562 254.751 307.131 254.862 307.575 255.084C308.02 255.297 308.353 255.591 308.575 255.964C308.806 256.328 308.94 256.737 308.975 257.191H307.148C307.104 256.862 306.971 256.6 306.748 256.404C306.526 256.208 306.206 256.111 305.788 256.111C305.424 256.111 305.148 256.186 304.962 256.337C304.775 256.48 304.682 256.675 304.682 256.924C304.682 257.173 304.78 257.377 304.975 257.537C305.171 257.697 305.464 257.844 305.855 257.977L306.815 258.297C307.268 258.44 307.682 258.608 308.055 258.804C308.428 258.991 308.726 259.235 308.948 259.537C309.171 259.84 309.282 260.231 309.282 260.711C309.282 261.44 309.006 262.031 308.455 262.484C307.904 262.928 307.108 263.151 306.068 263.151Z" fill="#EEEEF0"/>
<rect x="1088.79" y="161.53" width="191.069" height="62.9153" fill="#0F0F11"/>
<path d="M1102.68 198.988V188.588H1106.31C1108.14 188.588 1109.47 189.046 1110.3 189.961C1111.13 190.868 1111.55 192.143 1111.55 193.788C1111.55 195.432 1111.13 196.712 1110.3 197.628C1109.47 198.535 1108.14 198.988 1106.31 198.988H1102.68ZM1104.74 197.375H1106.18C1106.91 197.375 1107.52 197.259 1108 197.028C1108.48 196.797 1108.84 196.423 1109.07 195.908C1109.31 195.383 1109.43 194.677 1109.43 193.788C1109.43 192.899 1109.31 192.192 1109.07 191.668C1108.84 191.143 1108.48 190.77 1108 190.548C1107.52 190.317 1106.91 190.201 1106.18 190.201H1104.74V197.375ZM1116.28 199.188C1115.05 199.188 1114.11 198.81 1113.46 198.055C1112.81 197.29 1112.48 196.263 1112.48 194.975C1112.48 194.112 1112.63 193.37 1112.91 192.748C1113.2 192.126 1113.63 191.646 1114.19 191.308C1114.76 190.961 1115.45 190.788 1116.27 190.788C1117.43 190.788 1118.32 191.148 1118.94 191.868C1119.56 192.579 1119.87 193.628 1119.87 195.015V195.455H1114.42C1114.46 196.157 1114.64 196.717 1114.96 197.135C1115.28 197.552 1115.73 197.761 1116.3 197.761C1116.73 197.761 1117.08 197.632 1117.35 197.375C1117.62 197.117 1117.8 196.801 1117.9 196.428H1119.78C1119.69 196.926 1119.51 197.383 1119.23 197.801C1118.95 198.219 1118.57 198.557 1118.08 198.815C1117.6 199.063 1117 199.188 1116.28 199.188ZM1114.42 194.175H1117.95C1117.91 193.535 1117.75 193.037 1117.46 192.681C1117.17 192.326 1116.77 192.148 1116.26 192.148C1115.73 192.148 1115.31 192.321 1114.99 192.668C1114.68 193.006 1114.49 193.508 1114.42 194.175ZM1122.7 198.988L1120.36 191.068V190.988H1122.36L1124.15 197.361H1124.47L1126.27 190.988H1128.1V191.068L1125.76 198.988H1122.7ZM1132.58 199.188C1131.34 199.188 1130.4 198.81 1129.75 198.055C1129.1 197.29 1128.78 196.263 1128.78 194.975C1128.78 194.112 1128.92 193.37 1129.21 192.748C1129.5 192.126 1129.93 191.646 1130.49 191.308C1131.06 190.961 1131.75 190.788 1132.57 190.788C1133.73 190.788 1134.62 191.148 1135.23 191.868C1135.86 192.579 1136.17 193.628 1136.17 195.015V195.455H1130.71C1130.76 196.157 1130.94 196.717 1131.26 197.135C1131.58 197.552 1132.02 197.761 1132.59 197.761C1133.03 197.761 1133.38 197.632 1133.65 197.375C1133.91 197.117 1134.1 196.801 1134.19 196.428H1136.07C1135.98 196.926 1135.8 197.383 1135.53 197.801C1135.25 198.219 1134.87 198.557 1134.38 198.815C1133.9 199.063 1133.3 199.188 1132.58 199.188ZM1130.71 194.175H1134.25C1134.21 193.535 1134.05 193.037 1133.75 192.681C1133.47 192.326 1133.07 192.148 1132.55 192.148C1132.03 192.148 1131.61 192.321 1131.29 192.668C1130.98 193.006 1130.78 193.508 1130.71 194.175ZM1138.28 198.988C1138.04 198.712 1137.87 198.397 1137.76 198.041C1137.66 197.686 1137.6 197.206 1137.6 196.601V188.321H1139.59V196.388C1139.59 197.072 1139.66 197.601 1139.82 197.975C1139.97 198.339 1140.16 198.65 1140.4 198.908V198.988H1138.28ZM1145.04 199.188C1143.74 199.188 1142.77 198.81 1142.13 198.055C1141.5 197.29 1141.19 196.268 1141.19 194.988C1141.19 193.708 1141.5 192.69 1142.13 191.935C1142.77 191.17 1143.74 190.788 1145.04 190.788C1146.34 190.788 1147.31 191.17 1147.95 191.935C1148.59 192.69 1148.91 193.708 1148.91 194.988C1148.91 196.268 1148.59 197.29 1147.95 198.055C1147.31 198.81 1146.34 199.188 1145.04 199.188ZM1145.04 197.815C1145.67 197.815 1146.13 197.575 1146.41 197.095C1146.71 196.606 1146.85 195.903 1146.85 194.988C1146.85 194.063 1146.71 193.361 1146.41 192.881C1146.13 192.401 1145.67 192.161 1145.04 192.161C1144.42 192.161 1143.96 192.401 1143.67 192.881C1143.37 193.361 1143.23 194.063 1143.23 194.988C1143.23 195.903 1143.37 196.606 1143.67 197.095C1143.96 197.575 1144.42 197.815 1145.04 197.815ZM1150.42 201.655V190.988H1152.25V192.028H1152.57C1152.74 191.69 1153 191.406 1153.36 191.175C1153.72 190.935 1154.2 190.815 1154.8 190.815C1155.52 190.815 1156.11 190.992 1156.58 191.348C1157.06 191.703 1157.42 192.197 1157.65 192.828C1157.89 193.45 1158.01 194.175 1158.01 195.001C1158.01 195.819 1157.89 196.543 1157.65 197.175C1157.41 197.806 1157.05 198.295 1156.57 198.641C1156.1 198.988 1155.51 199.161 1154.81 199.161C1154.29 199.161 1153.85 199.063 1153.52 198.868C1153.18 198.672 1152.92 198.41 1152.73 198.081H1152.41V201.655H1150.42ZM1154.28 197.721C1154.81 197.721 1155.22 197.49 1155.52 197.028C1155.81 196.566 1155.96 195.886 1155.96 194.988C1155.96 194.09 1155.81 193.41 1155.52 192.948C1155.22 192.486 1154.81 192.255 1154.28 192.255C1153.71 192.255 1153.25 192.503 1152.9 193.001C1152.57 193.49 1152.4 194.152 1152.4 194.988C1152.4 195.815 1152.57 196.477 1152.9 196.975C1153.25 197.472 1153.71 197.721 1154.28 197.721ZM1159.53 198.988V190.988H1161.36V192.188H1161.68C1161.82 191.788 1162.06 191.455 1162.39 191.188C1162.72 190.921 1163.19 190.788 1163.8 190.788C1164.36 190.788 1164.82 190.912 1165.19 191.161C1165.55 191.401 1165.83 191.743 1166.03 192.188H1166.35C1166.5 191.779 1166.75 191.446 1167.09 191.188C1167.44 190.921 1167.91 190.788 1168.49 190.788C1169.36 190.788 1170.01 191.072 1170.43 191.641C1170.84 192.201 1171.05 192.952 1171.05 193.895V198.988H1169.08V194.241C1169.08 193.663 1168.98 193.215 1168.79 192.895C1168.6 192.575 1168.3 192.415 1167.88 192.415C1167.36 192.415 1166.97 192.632 1166.69 193.068C1166.42 193.503 1166.28 194.037 1166.28 194.668V198.988H1164.31V194.241C1164.31 193.663 1164.21 193.215 1164.01 192.895C1163.83 192.575 1163.52 192.415 1163.11 192.415C1162.6 192.415 1162.21 192.632 1161.93 193.068C1161.66 193.503 1161.52 194.037 1161.52 194.668V198.988H1159.53ZM1176.27 199.188C1175.03 199.188 1174.09 198.81 1173.44 198.055C1172.79 197.29 1172.47 196.263 1172.47 194.975C1172.47 194.112 1172.61 193.37 1172.89 192.748C1173.19 192.126 1173.61 191.646 1174.17 191.308C1174.74 190.961 1175.44 190.788 1176.25 190.788C1177.42 190.788 1178.31 191.148 1178.92 191.868C1179.54 192.579 1179.85 193.628 1179.85 195.015V195.455H1174.4C1174.45 196.157 1174.63 196.717 1174.95 197.135C1175.27 197.552 1175.71 197.761 1176.28 197.761C1176.72 197.761 1177.07 197.632 1177.33 197.375C1177.6 197.117 1177.78 196.801 1177.88 196.428H1179.76C1179.67 196.926 1179.49 197.383 1179.21 197.801C1178.94 198.219 1178.56 198.557 1178.07 198.815C1177.59 199.063 1176.99 199.188 1176.27 199.188ZM1174.4 194.175H1177.93C1177.9 193.535 1177.73 193.037 1177.44 192.681C1177.16 192.326 1176.76 192.148 1176.24 192.148C1175.72 192.148 1175.29 192.321 1174.97 192.668C1174.66 193.006 1174.47 193.508 1174.4 194.175ZM1181.33 198.988V190.988H1183.16V192.188H1183.48C1183.63 191.779 1183.88 191.446 1184.22 191.188C1184.57 190.921 1185.06 190.788 1185.69 190.788C1186.59 190.788 1187.25 191.072 1187.69 191.641C1188.13 192.201 1188.36 192.952 1188.36 193.895V198.988H1186.37V194.241C1186.37 193.655 1186.26 193.206 1186.05 192.895C1185.84 192.575 1185.51 192.415 1185.05 192.415C1184.5 192.415 1184.07 192.632 1183.77 193.068C1183.47 193.495 1183.32 194.028 1183.32 194.668V198.988H1181.33ZM1191.43 198.988C1191.23 198.748 1191.06 198.459 1190.94 198.121C1190.82 197.783 1190.76 197.277 1190.76 196.601V192.401H1189.67V190.988H1190.79V188.988H1192.72V190.988H1194.04V192.401H1192.74V196.375C1192.74 197.086 1192.82 197.628 1192.98 198.001C1193.14 198.366 1193.33 198.668 1193.55 198.908V198.988H1191.43ZM1202.79 199.188C1201.31 199.188 1200.15 198.712 1199.33 197.761C1198.5 196.81 1198.09 195.486 1198.09 193.788C1198.09 192.099 1198.5 190.779 1199.31 189.828C1200.13 188.868 1201.29 188.388 1202.79 188.388C1203.68 188.388 1204.45 188.557 1205.09 188.895C1205.73 189.223 1206.23 189.686 1206.59 190.281C1206.96 190.877 1207.17 191.566 1207.23 192.348H1205.18C1205.11 191.601 1204.86 191.015 1204.43 190.588C1204.02 190.161 1203.47 189.948 1202.79 189.948C1201.94 189.948 1201.3 190.286 1200.86 190.961C1200.42 191.628 1200.21 192.575 1200.21 193.801C1200.21 195.063 1200.43 196.019 1200.87 196.668C1201.33 197.308 1201.96 197.628 1202.78 197.628C1203.49 197.628 1204.05 197.406 1204.46 196.961C1204.88 196.517 1205.12 195.939 1205.18 195.228H1207.23C1207.17 196.001 1206.96 196.686 1206.59 197.281C1206.23 197.877 1205.73 198.343 1205.09 198.681C1204.46 199.019 1203.69 199.188 1202.79 199.188ZM1211.96 199.188C1210.66 199.188 1209.7 198.81 1209.06 198.055C1208.42 197.29 1208.11 196.268 1208.11 194.988C1208.11 193.708 1208.42 192.69 1209.06 191.935C1209.7 191.17 1210.66 190.788 1211.96 190.788C1213.26 190.788 1214.23 191.17 1214.87 191.935C1215.51 192.69 1215.83 193.708 1215.83 194.988C1215.83 196.268 1215.51 197.29 1214.87 198.055C1214.23 198.81 1213.26 199.188 1211.96 199.188ZM1211.96 197.815C1212.59 197.815 1213.05 197.575 1213.34 197.095C1213.63 196.606 1213.78 195.903 1213.78 194.988C1213.78 194.063 1213.63 193.361 1213.34 192.881C1213.05 192.401 1212.59 192.161 1211.96 192.161C1211.34 192.161 1210.88 192.401 1210.59 192.881C1210.3 193.361 1210.15 194.063 1210.15 194.988C1210.15 195.903 1210.3 196.606 1210.59 197.095C1210.88 197.575 1211.34 197.815 1211.96 197.815ZM1217.35 198.988V190.988H1219.17V192.188H1219.49C1219.64 191.779 1219.89 191.446 1220.24 191.188C1220.59 190.921 1221.07 190.788 1221.71 190.788C1222.6 190.788 1223.27 191.072 1223.71 191.641C1224.15 192.201 1224.37 192.952 1224.37 193.895V198.988H1222.39V194.241C1222.39 193.655 1222.28 193.206 1222.07 192.895C1221.86 192.575 1221.53 192.415 1221.07 192.415C1220.51 192.415 1220.09 192.632 1219.79 193.068C1219.48 193.495 1219.33 194.028 1219.33 194.668V198.988H1217.35ZM1227.45 198.988C1227.24 198.748 1227.08 198.459 1226.95 198.121C1226.84 197.783 1226.78 197.277 1226.78 196.601V192.401H1225.69V190.988H1226.81V188.988H1228.74V190.988H1230.06V192.401H1228.75V196.375C1228.75 197.086 1228.83 197.628 1228.99 198.001C1229.15 198.366 1229.34 198.668 1229.57 198.908V198.988H1227.45ZM1234.19 199.161C1233.46 199.161 1232.86 198.983 1232.38 198.628C1231.9 198.263 1231.54 197.77 1231.3 197.148C1231.07 196.517 1230.95 195.792 1230.95 194.975C1230.95 194.139 1231.07 193.41 1231.31 192.788C1231.55 192.166 1231.91 191.681 1232.39 191.335C1232.87 190.988 1233.47 190.815 1234.19 190.815C1234.76 190.815 1235.22 190.93 1235.58 191.161C1235.94 191.383 1236.21 191.672 1236.39 192.028H1236.71V190.988H1238.54V198.988H1236.71V197.948H1236.39C1236.21 198.277 1235.95 198.561 1235.59 198.801C1235.24 199.041 1234.77 199.161 1234.19 199.161ZM1234.69 197.721C1235.25 197.721 1235.71 197.472 1236.05 196.975C1236.39 196.477 1236.57 195.815 1236.57 194.988C1236.57 194.152 1236.39 193.49 1236.05 193.001C1235.71 192.503 1235.25 192.255 1234.69 192.255C1234.15 192.255 1233.73 192.486 1233.43 192.948C1233.14 193.41 1232.99 194.09 1232.99 194.988C1232.99 195.886 1233.14 196.566 1233.43 197.028C1233.73 197.49 1234.15 197.721 1234.69 197.721ZM1240.6 198.988V190.988H1242.58V198.988H1240.6ZM1241.58 190.015C1241.23 190.015 1240.96 189.921 1240.77 189.735C1240.58 189.539 1240.49 189.29 1240.49 188.988C1240.49 188.677 1240.58 188.428 1240.77 188.241C1240.96 188.055 1241.23 187.961 1241.58 187.961C1241.94 187.961 1242.21 188.055 1242.4 188.241C1242.58 188.428 1242.68 188.677 1242.68 188.988C1242.68 189.29 1242.58 189.539 1242.4 189.735C1242.21 189.921 1241.94 190.015 1241.58 190.015ZM1244.64 198.988V190.988H1246.47V192.188H1246.79C1246.94 191.779 1247.19 191.446 1247.54 191.188C1247.88 190.921 1248.37 190.788 1249 190.788C1249.9 190.788 1250.57 191.072 1251 191.641C1251.45 192.201 1251.67 192.952 1251.67 193.895V198.988H1249.68V194.241C1249.68 193.655 1249.58 193.206 1249.36 192.895C1249.16 192.575 1248.82 192.415 1248.36 192.415C1247.81 192.415 1247.38 192.632 1247.08 193.068C1246.78 193.495 1246.63 194.028 1246.63 194.668V198.988H1244.64ZM1256.88 199.188C1255.64 199.188 1254.7 198.81 1254.05 198.055C1253.4 197.29 1253.08 196.263 1253.08 194.975C1253.08 194.112 1253.22 193.37 1253.5 192.748C1253.8 192.126 1254.22 191.646 1254.78 191.308C1255.35 190.961 1256.05 190.788 1256.86 190.788C1258.03 190.788 1258.92 191.148 1259.53 191.868C1260.15 192.579 1260.46 193.628 1260.46 195.015V195.455H1255.01C1255.06 196.157 1255.24 196.717 1255.56 197.135C1255.88 197.552 1256.32 197.761 1256.89 197.761C1257.33 197.761 1257.68 197.632 1257.94 197.375C1258.21 197.117 1258.39 196.801 1258.49 196.428H1260.37C1260.28 196.926 1260.1 197.383 1259.82 197.801C1259.55 198.219 1259.17 198.557 1258.68 198.815C1258.2 199.063 1257.6 199.188 1256.88 199.188ZM1255.01 194.175H1258.54C1258.51 193.535 1258.34 193.037 1258.05 192.681C1257.77 192.326 1257.37 192.148 1256.85 192.148C1256.33 192.148 1255.9 192.321 1255.58 192.668C1255.27 193.006 1255.08 193.508 1255.01 194.175ZM1261.93 198.988V190.988H1263.73V192.428H1264.05C1264.1 192.17 1264.2 191.926 1264.34 191.695C1264.48 191.463 1264.7 191.277 1265.01 191.135C1265.31 190.983 1265.72 190.908 1266.23 190.908H1266.62V192.708H1266.07C1265.31 192.708 1264.76 192.903 1264.42 193.295C1264.08 193.686 1263.91 194.277 1263.91 195.068V198.988H1261.93Z" fill="#EEEEF0"/>
<rect x="0.576172" y="33.4623" width="158.818" height="62.9707" fill="#0F0F11"/>
<path d="M10.0608 71.1401V60.7401H17.0475V62.3668H12.0875V64.8335H15.9275V66.3535H12.0875V69.5001H17.1275V71.1401H10.0608ZM17.9331 71.1401V71.0601L20.3998 66.9535L18.1998 63.2201V63.1401H20.3464L21.7198 65.6201H22.0131L23.3464 63.1401H25.3198V63.2201L23.2264 66.9135L25.6531 71.0601V71.1401H23.4664L21.8531 68.2201H21.5598L19.9731 71.1401H17.9331ZM27.9823 71.1401C27.7778 70.9001 27.6134 70.6112 27.4889 70.2735C27.3734 69.9357 27.3156 69.429 27.3156 68.7535V64.5535H26.2223V63.1401H27.3423V61.1401H29.2756V63.1401H30.5956V64.5535H29.2889V68.5268C29.2889 69.2379 29.3689 69.7801 29.5289 70.1535C29.6889 70.5179 29.88 70.8201 30.1023 71.0601V71.1401H27.9823ZM35.2875 71.3401C34.0519 71.3401 33.1097 70.9624 32.4608 70.2068C31.8119 69.4424 31.4875 68.4157 31.4875 67.1268C31.4875 66.2646 31.6297 65.5224 31.9141 64.9001C32.2075 64.2779 32.6341 63.7979 33.1941 63.4601C33.763 63.1135 34.4564 62.9401 35.2741 62.9401C36.4386 62.9401 37.3275 63.3001 37.9408 64.0201C38.563 64.7312 38.8741 65.7801 38.8741 67.1668V67.6068H33.4208C33.4653 68.309 33.6475 68.869 33.9675 69.2868C34.2875 69.7046 34.7319 69.9135 35.3008 69.9135C35.7364 69.9135 36.0875 69.7846 36.3541 69.5268C36.6208 69.269 36.803 68.9535 36.9008 68.5801H38.7808C38.6919 69.0779 38.5097 69.5357 38.2341 69.9535C37.9586 70.3712 37.5764 70.709 37.0875 70.9668C36.6075 71.2157 36.0075 71.3401 35.2875 71.3401ZM33.4208 66.3268H36.9541C36.9186 65.6868 36.7541 65.189 36.4608 64.8335C36.1764 64.4779 35.7764 64.3001 35.2608 64.3001C34.7364 64.3001 34.3141 64.4735 33.9941 64.8201C33.683 65.1579 33.4919 65.6601 33.4208 66.3268ZM40.3356 71.1401V63.1401H42.1356V64.5801H42.4556C42.5089 64.3224 42.6067 64.0779 42.7489 63.8468C42.8912 63.6157 43.1134 63.429 43.4156 63.2868C43.7178 63.1357 44.1267 63.0601 44.6423 63.0601H45.0289V64.8601H44.4823C43.7178 64.8601 43.1667 65.0557 42.8289 65.4468C42.4912 65.8379 42.3223 66.429 42.3223 67.2201V71.1401H40.3356ZM46.4583 71.1401V63.1401H48.285V64.3401H48.605C48.7561 63.9312 49.005 63.5979 49.3516 63.3401C49.6983 63.0735 50.1872 62.9401 50.8183 62.9401C51.7161 62.9401 52.3828 63.2246 52.8183 63.7935C53.2628 64.3535 53.485 65.1046 53.485 66.0468V71.1401H51.4983V66.3935C51.4983 65.8068 51.3916 65.3579 51.1783 65.0468C50.9739 64.7268 50.6405 64.5668 50.1783 64.5668C49.6272 64.5668 49.2005 64.7846 48.8983 65.2201C48.5961 65.6468 48.445 66.1801 48.445 66.8201V71.1401H46.4583ZM58.1337 71.3135C57.4048 71.3135 56.8004 71.1357 56.3204 70.7801C55.8404 70.4157 55.4804 69.9224 55.2404 69.3001C55.0093 68.669 54.8937 67.9446 54.8937 67.1268C54.8937 66.2912 55.0137 65.5624 55.2537 64.9401C55.4937 64.3179 55.8537 63.8335 56.3337 63.4868C56.8137 63.1401 57.4137 62.9668 58.1337 62.9668C58.7026 62.9668 59.1648 63.0824 59.5204 63.3135C59.8848 63.5357 60.1559 63.8246 60.3337 64.1801H60.6537V63.1401H62.4804V71.1401H60.6537V70.1001H60.3337C60.1559 70.429 59.8893 70.7135 59.5337 70.9535C59.1782 71.1935 58.7115 71.3135 58.1337 71.3135ZM58.6271 69.8735C59.1959 69.8735 59.6493 69.6246 59.9871 69.1268C60.3337 68.629 60.5071 67.9668 60.5071 67.1401C60.5071 66.3046 60.3337 65.6424 59.9871 65.1535C59.6493 64.6557 59.1959 64.4068 58.6271 64.4068C58.0937 64.4068 57.6759 64.6379 57.3737 65.1001C57.0804 65.5624 56.9337 66.2424 56.9337 67.1401C56.9337 68.0379 57.0804 68.7179 57.3737 69.1801C57.6759 69.6424 58.0937 69.8735 58.6271 69.8735ZM65.1764 71.1401C64.9364 70.8646 64.7631 70.549 64.6564 70.1935C64.5498 69.8379 64.4964 69.3579 64.4964 68.7535V60.4735H66.4831V68.5401C66.4831 69.2246 66.5587 69.7535 66.7098 70.1268C66.8609 70.4912 67.0564 70.8024 67.2964 71.0601V71.1401H65.1764ZM71.8577 71.1401V60.7401H73.8577V64.8335H74.6577L77.7777 60.7401H80.0443V60.8201L76.351 65.5668L80.5777 71.0601V71.1401H78.1243L74.6577 66.4868H73.8577V71.1401H71.8577ZM83.7793 71.3401C82.8727 71.3401 82.1971 71.0601 81.7527 70.5001C81.3082 69.9312 81.086 69.1757 81.086 68.2335V63.1401H83.0727V67.8868C83.0727 68.4646 83.1749 68.9135 83.3793 69.2335C83.5927 69.5535 83.926 69.7135 84.3793 69.7135C84.9393 69.7135 85.3705 69.4957 85.6727 69.0601C85.9749 68.6246 86.126 68.0912 86.126 67.4601V63.1401H88.1127V71.1401H86.326V69.9401H86.006C85.8727 70.349 85.6238 70.6868 85.2593 70.9535C84.9038 71.2112 84.4105 71.3401 83.7793 71.3401ZM94.5348 71.3135C93.9392 71.3135 93.4592 71.1935 93.0948 70.9535C92.7392 70.7135 92.477 70.429 92.3081 70.1001H91.9881V71.1401H90.1614V60.4735H92.1481V64.0335H92.4681C92.6548 63.7135 92.917 63.4557 93.2548 63.2601C93.5925 63.0646 94.0237 62.9668 94.5481 62.9668C95.2503 62.9668 95.837 63.1401 96.3081 63.4868C96.7881 63.8335 97.1481 64.3179 97.3881 64.9401C97.6281 65.5624 97.7481 66.2912 97.7481 67.1268C97.7481 67.9446 97.6281 68.669 97.3881 69.3001C97.157 69.9224 96.8014 70.4157 96.3214 70.7801C95.8503 71.1357 95.2548 71.3135 94.5348 71.3135ZM94.0148 69.8735C94.5481 69.8735 94.9614 69.6424 95.2548 69.1801C95.5481 68.7179 95.6948 68.0379 95.6948 67.1401C95.6948 66.2424 95.5481 65.5624 95.2548 65.1001C94.9614 64.6379 94.5481 64.4068 94.0148 64.4068C93.4459 64.4068 92.9881 64.6557 92.6414 65.1535C92.3037 65.6424 92.1348 66.3046 92.1348 67.1401C92.1348 67.9668 92.3037 68.629 92.6414 69.1268C92.9881 69.6246 93.4459 69.8735 94.0148 69.8735ZM102.537 71.3401C101.302 71.3401 100.36 70.9624 99.7108 70.2068C99.0619 69.4424 98.7375 68.4157 98.7375 67.1268C98.7375 66.2646 98.8797 65.5224 99.1641 64.9001C99.4575 64.2779 99.8841 63.7979 100.444 63.4601C101.013 63.1135 101.706 62.9401 102.524 62.9401C103.689 62.9401 104.577 63.3001 105.191 64.0201C105.813 64.7312 106.124 65.7801 106.124 67.1668V67.6068H100.671C100.715 68.309 100.897 68.869 101.217 69.2868C101.537 69.7046 101.982 69.9135 102.551 69.9135C102.986 69.9135 103.337 69.7846 103.604 69.5268C103.871 69.269 104.053 68.9535 104.151 68.5801H106.031C105.942 69.0779 105.76 69.5357 105.484 69.9535C105.209 70.3712 104.826 70.709 104.337 70.9668C103.857 71.2157 103.257 71.3401 102.537 71.3401ZM100.671 66.3268H104.204C104.169 65.6868 104.004 65.189 103.711 64.8335C103.426 64.4779 103.026 64.3001 102.511 64.3001C101.986 64.3001 101.564 64.4735 101.244 64.8201C100.933 65.1579 100.742 65.6601 100.671 66.3268ZM107.586 71.1401V63.1401H109.386V64.5801H109.706C109.759 64.3224 109.857 64.0779 109.999 63.8468C110.141 63.6157 110.363 63.429 110.666 63.2868C110.968 63.1357 111.377 63.0601 111.892 63.0601H112.279V64.8601H111.732C110.968 64.8601 110.417 65.0557 110.079 65.4468C109.741 65.8379 109.572 66.429 109.572 67.2201V71.1401H107.586ZM113.708 71.1401V63.1401H115.535V64.3401H115.855C116.006 63.9312 116.255 63.5979 116.602 63.3401C116.948 63.0735 117.437 62.9401 118.068 62.9401C118.966 62.9401 119.633 63.2246 120.068 63.7935C120.513 64.3535 120.735 65.1046 120.735 66.0468V71.1401H118.748V66.3935C118.748 65.8068 118.642 65.3579 118.428 65.0468C118.224 64.7268 117.891 64.5668 117.428 64.5668C116.877 64.5668 116.451 64.7846 116.148 65.2201C115.846 65.6468 115.695 66.1801 115.695 66.8201V71.1401H113.708ZM125.944 71.3401C124.708 71.3401 123.766 70.9624 123.117 70.2068C122.468 69.4424 122.144 68.4157 122.144 67.1268C122.144 66.2646 122.286 65.5224 122.57 64.9001C122.864 64.2779 123.29 63.7979 123.85 63.4601C124.419 63.1135 125.113 62.9401 125.93 62.9401C127.095 62.9401 127.984 63.3001 128.597 64.0201C129.219 64.7312 129.53 65.7801 129.53 67.1668V67.6068H124.077C124.122 68.309 124.304 68.869 124.624 69.2868C124.944 69.7046 125.388 69.9135 125.957 69.9135C126.393 69.9135 126.744 69.7846 127.01 69.5268C127.277 69.269 127.459 68.9535 127.557 68.5801H129.437C129.348 69.0779 129.166 69.5357 128.89 69.9535C128.615 70.3712 128.233 70.709 127.744 70.9668C127.264 71.2157 126.664 71.3401 125.944 71.3401ZM124.077 66.3268H127.61C127.575 65.6868 127.41 65.189 127.117 64.8335C126.833 64.4779 126.433 64.3001 125.917 64.3001C125.393 64.3001 124.97 64.4735 124.65 64.8201C124.339 65.1579 124.148 65.6601 124.077 66.3268ZM132.139 71.1401C131.934 70.9001 131.77 70.6112 131.645 70.2735C131.53 69.9357 131.472 69.429 131.472 68.7535V64.5535H130.379V63.1401H131.499V61.1401H133.432V63.1401H134.752V64.5535H133.445V68.5268C133.445 69.2379 133.525 69.7801 133.685 70.1535C133.845 70.5179 134.036 70.8201 134.259 71.0601V71.1401H132.139ZM139.444 71.3401C138.208 71.3401 137.266 70.9624 136.617 70.2068C135.968 69.4424 135.644 68.4157 135.644 67.1268C135.644 66.2646 135.786 65.5224 136.07 64.9001C136.364 64.2779 136.79 63.7979 137.35 63.4601C137.919 63.1135 138.613 62.9401 139.43 62.9401C140.595 62.9401 141.484 63.3001 142.097 64.0201C142.719 64.7312 143.03 65.7801 143.03 67.1668V67.6068H137.577C137.622 68.309 137.804 68.869 138.124 69.2868C138.444 69.7046 138.888 69.9135 139.457 69.9135C139.893 69.9135 140.244 69.7846 140.51 69.5268C140.777 69.269 140.959 68.9535 141.057 68.5801H142.937C142.848 69.0779 142.666 69.5357 142.39 69.9535C142.115 70.3712 141.733 70.709 141.244 70.9668C140.764 71.2157 140.164 71.3401 139.444 71.3401ZM137.577 66.3268H141.11C141.075 65.6868 140.91 65.189 140.617 64.8335C140.333 64.4779 139.933 64.3001 139.417 64.3001C138.893 64.3001 138.47 64.4735 138.15 64.8201C137.839 65.1579 137.648 65.6601 137.577 66.3268ZM147.399 71.3401C146.545 71.3401 145.861 71.2024 145.345 70.9268C144.83 70.6512 144.447 70.3001 144.199 69.8735C143.959 69.4468 143.825 69.0157 143.799 68.5801H145.692C145.727 68.8201 145.816 69.0424 145.959 69.2468C146.11 69.4512 146.31 69.6157 146.559 69.7401C146.816 69.8557 147.127 69.9135 147.492 69.9135C147.927 69.9135 148.247 69.8335 148.452 69.6735C148.656 69.5135 148.759 69.309 148.759 69.0601C148.759 68.829 148.67 68.6335 148.492 68.4735C148.314 68.3135 148.025 68.1668 147.625 68.0335L146.665 67.7135C146.212 67.5535 145.794 67.3801 145.412 67.1935C145.039 66.9979 144.736 66.749 144.505 66.4468C144.283 66.1446 144.172 65.7579 144.172 65.2868C144.172 64.5846 144.434 64.0201 144.959 63.5935C145.492 63.1579 146.239 62.9401 147.199 62.9401C147.892 62.9401 148.461 63.0512 148.905 63.2735C149.35 63.4868 149.683 63.7801 149.905 64.1535C150.136 64.5179 150.27 64.9268 150.305 65.3801H148.479C148.434 65.0512 148.301 64.789 148.079 64.5935C147.856 64.3979 147.536 64.3001 147.119 64.3001C146.754 64.3001 146.479 64.3757 146.292 64.5268C146.105 64.669 146.012 64.8646 146.012 65.1135C146.012 65.3624 146.11 65.5668 146.305 65.7268C146.501 65.8868 146.794 66.0335 147.185 66.1668L148.145 66.4868C148.599 66.629 149.012 66.7979 149.385 66.9935C149.759 67.1801 150.056 67.4246 150.279 67.7268C150.501 68.029 150.612 68.4201 150.612 68.9001C150.612 69.629 150.336 70.2201 149.785 70.6735C149.234 71.1179 148.439 71.3401 147.399 71.3401Z" fill="#EEEEF0"/>
<rect x="0.148438" y="161.53" width="159.377" height="62.9153" fill="#0F0F11"/>
<path d="M16.1917 198.897V188.497H23.1783V190.124H18.2183V192.591H22.0583V194.111H18.2183V197.257H23.2583V198.897H16.1917ZM24.064 198.897V198.817L26.5306 194.711L24.3306 190.977V190.897H26.4773L27.8506 193.377H28.144L29.4773 190.897H31.4506V190.977L29.3573 194.671L31.784 198.817V198.897H29.5973L27.984 195.977H27.6906L26.104 198.897H24.064ZM34.1131 198.897C33.9087 198.657 33.7442 198.368 33.6198 198.031C33.5042 197.693 33.4465 197.186 33.4465 196.511V192.311H32.3531V190.897H33.4731V188.897H35.4065V190.897H36.7265V192.311H35.4198V196.284C35.4198 196.995 35.4998 197.537 35.6598 197.911C35.8198 198.275 36.0109 198.577 36.2331 198.817V198.897H34.1131ZM41.4183 199.097C40.1828 199.097 39.2406 198.719 38.5917 197.964C37.9428 197.199 37.6183 196.173 37.6183 194.884C37.6183 194.022 37.7606 193.279 38.045 192.657C38.3383 192.035 38.765 191.555 39.325 191.217C39.8939 190.871 40.5872 190.697 41.405 190.697C42.5694 190.697 43.4583 191.057 44.0717 191.777C44.6939 192.488 45.005 193.537 45.005 194.924V195.364H39.5517C39.5961 196.066 39.7783 196.626 40.0983 197.044C40.4183 197.462 40.8628 197.671 41.4317 197.671C41.8672 197.671 42.2183 197.542 42.485 197.284C42.7517 197.026 42.9339 196.711 43.0317 196.337H44.9117C44.8228 196.835 44.6406 197.293 44.365 197.711C44.0894 198.128 43.7072 198.466 43.2183 198.724C42.7383 198.973 42.1383 199.097 41.4183 199.097ZM39.5517 194.084H43.085C43.0494 193.444 42.885 192.946 42.5917 192.591C42.3072 192.235 41.9072 192.057 41.3917 192.057C40.8672 192.057 40.445 192.231 40.125 192.577C39.8139 192.915 39.6228 193.417 39.5517 194.084ZM46.4665 198.897V190.897H48.2665V192.337H48.5865C48.6398 192.079 48.7376 191.835 48.8798 191.604C49.022 191.373 49.2442 191.186 49.5465 191.044C49.8487 190.893 50.2576 190.817 50.7731 190.817H51.1598V192.617H50.6131C49.8487 192.617 49.2976 192.813 48.9598 193.204C48.622 193.595 48.4531 194.186 48.4531 194.977V198.897H46.4665ZM52.5892 198.897V190.897H54.4158V192.097H54.7358C54.8869 191.688 55.1358 191.355 55.4825 191.097C55.8292 190.831 56.3181 190.697 56.9492 190.697C57.8469 190.697 58.5136 190.982 58.9492 191.551C59.3936 192.111 59.6158 192.862 59.6158 193.804V198.897H57.6292V194.151C57.6292 193.564 57.5225 193.115 57.3092 192.804C57.1047 192.484 56.7714 192.324 56.3092 192.324C55.7581 192.324 55.3314 192.542 55.0292 192.977C54.7269 193.404 54.5758 193.937 54.5758 194.577V198.897H52.5892ZM64.2646 199.071C63.5357 199.071 62.9313 198.893 62.4513 198.537C61.9713 198.173 61.6113 197.679 61.3713 197.057C61.1401 196.426 61.0246 195.702 61.0246 194.884C61.0246 194.048 61.1446 193.319 61.3846 192.697C61.6246 192.075 61.9846 191.591 62.4646 191.244C62.9446 190.897 63.5446 190.724 64.2646 190.724C64.8335 190.724 65.2957 190.839 65.6512 191.071C66.0157 191.293 66.2868 191.582 66.4646 191.937H66.7846V190.897H68.6112V198.897H66.7846V197.857H66.4646C66.2868 198.186 66.0201 198.471 65.6646 198.711C65.309 198.951 64.8424 199.071 64.2646 199.071ZM64.7579 197.631C65.3268 197.631 65.7801 197.382 66.1179 196.884C66.4646 196.386 66.6379 195.724 66.6379 194.897C66.6379 194.062 66.4646 193.399 66.1179 192.911C65.7801 192.413 65.3268 192.164 64.7579 192.164C64.2246 192.164 63.8068 192.395 63.5046 192.857C63.2112 193.319 63.0646 193.999 63.0646 194.897C63.0646 195.795 63.2112 196.475 63.5046 196.937C63.8068 197.399 64.2246 197.631 64.7579 197.631ZM71.3073 198.897C71.0673 198.622 70.894 198.306 70.7873 197.951C70.6806 197.595 70.6273 197.115 70.6273 196.511V188.231H72.614V196.297C72.614 196.982 72.6895 197.511 72.8406 197.884C72.9917 198.248 73.1873 198.559 73.4273 198.817V198.897H71.3073ZM78.0019 198.897V188.497H80.0552V198.897H78.0019ZM82.1517 198.897V190.897H83.9783V192.097H84.2983C84.4494 191.688 84.6983 191.355 85.045 191.097C85.3917 190.831 85.8806 190.697 86.5117 190.697C87.4094 190.697 88.0761 190.982 88.5117 191.551C88.9561 192.111 89.1783 192.862 89.1783 193.804V198.897H87.1917V194.151C87.1917 193.564 87.085 193.115 86.8717 192.804C86.6672 192.484 86.3339 192.324 85.8717 192.324C85.3206 192.324 84.8939 192.542 84.5917 192.977C84.2894 193.404 84.1383 193.937 84.1383 194.577V198.897H82.1517ZM94.0138 199.097C93.1604 199.097 92.476 198.959 91.9604 198.684C91.4449 198.408 91.0626 198.057 90.8138 197.631C90.5738 197.204 90.4404 196.773 90.4137 196.337H92.3071C92.3426 196.577 92.4315 196.799 92.5738 197.004C92.7249 197.208 92.9249 197.373 93.1738 197.497C93.4315 197.613 93.7426 197.671 94.1071 197.671C94.5426 197.671 94.8626 197.591 95.0671 197.431C95.2715 197.271 95.3738 197.066 95.3738 196.817C95.3738 196.586 95.2849 196.391 95.1071 196.231C94.9293 196.071 94.6404 195.924 94.2404 195.791L93.2804 195.471C92.8271 195.311 92.4093 195.137 92.0271 194.951C91.6538 194.755 91.3515 194.506 91.1204 194.204C90.8982 193.902 90.7871 193.515 90.7871 193.044C90.7871 192.342 91.0493 191.777 91.5738 191.351C92.1071 190.915 92.8537 190.697 93.8138 190.697C94.5071 190.697 95.076 190.808 95.5204 191.031C95.9649 191.244 96.2982 191.537 96.5204 191.911C96.7515 192.275 96.8849 192.684 96.9204 193.137H95.0938C95.0493 192.808 94.916 192.546 94.6937 192.351C94.4715 192.155 94.1515 192.057 93.7338 192.057C93.3693 192.057 93.0938 192.133 92.9071 192.284C92.7204 192.426 92.6271 192.622 92.6271 192.871C92.6271 193.119 92.7249 193.324 92.9204 193.484C93.116 193.644 93.4093 193.791 93.8004 193.924L94.7604 194.244C95.2138 194.386 95.6271 194.555 96.0004 194.751C96.3738 194.937 96.6715 195.182 96.8938 195.484C97.116 195.786 97.2271 196.177 97.2271 196.657C97.2271 197.386 96.9515 197.977 96.4004 198.431C95.8493 198.875 95.0538 199.097 94.0138 199.097ZM99.7538 198.897C99.5493 198.657 99.3849 198.368 99.2604 198.031C99.1449 197.693 99.0871 197.186 99.0871 196.511V192.311H97.9938V190.897H99.1137V188.897H101.047V190.897H102.367V192.311H101.06V196.284C101.06 196.995 101.14 197.537 101.3 197.911C101.46 198.275 101.652 198.577 101.874 198.817V198.897H99.7538ZM106.499 199.071C105.77 199.071 105.166 198.893 104.686 198.537C104.206 198.173 103.846 197.679 103.606 197.057C103.375 196.426 103.259 195.702 103.259 194.884C103.259 194.048 103.379 193.319 103.619 192.697C103.859 192.075 104.219 191.591 104.699 191.244C105.179 190.897 105.779 190.724 106.499 190.724C107.068 190.724 107.53 190.839 107.886 191.071C108.25 191.293 108.521 191.582 108.699 191.937H109.019V190.897H110.846V198.897H109.019V197.857H108.699C108.521 198.186 108.255 198.471 107.899 198.711C107.543 198.951 107.077 199.071 106.499 199.071ZM106.992 197.631C107.561 197.631 108.015 197.382 108.352 196.884C108.699 196.386 108.872 195.724 108.872 194.897C108.872 194.062 108.699 193.399 108.352 192.911C108.015 192.413 107.561 192.164 106.992 192.164C106.459 192.164 106.041 192.395 105.739 192.857C105.446 193.319 105.299 193.999 105.299 194.897C105.299 195.795 105.446 196.475 105.739 196.937C106.041 197.399 106.459 197.631 106.992 197.631ZM112.902 198.897V190.897H114.728V192.097H115.048C115.199 191.688 115.448 191.355 115.795 191.097C116.142 190.831 116.631 190.697 117.262 190.697C118.159 190.697 118.826 190.982 119.262 191.551C119.706 192.111 119.928 192.862 119.928 193.804V198.897H117.942V194.151C117.942 193.564 117.835 193.115 117.622 192.804C117.417 192.484 117.084 192.324 116.622 192.324C116.071 192.324 115.644 192.542 115.342 192.977C115.039 193.404 114.888 193.937 114.888 194.577V198.897H112.902ZM125.057 199.097C123.839 199.097 122.915 198.719 122.284 197.964C121.653 197.199 121.337 196.177 121.337 194.897C121.337 193.555 121.666 192.519 122.324 191.791C122.99 191.062 123.906 190.697 125.07 190.697C126.102 190.697 126.915 190.973 127.51 191.524C128.106 192.075 128.462 192.831 128.577 193.791H126.63C126.568 193.257 126.404 192.848 126.137 192.564C125.87 192.271 125.524 192.124 125.097 192.124C124.537 192.124 124.11 192.368 123.817 192.857C123.524 193.337 123.377 194.017 123.377 194.897C123.377 195.777 123.519 196.457 123.804 196.937C124.097 197.417 124.524 197.657 125.084 197.657C125.519 197.657 125.87 197.515 126.137 197.231C126.404 196.937 126.568 196.524 126.63 195.991H128.577C128.453 196.951 128.088 197.711 127.484 198.271C126.888 198.822 126.079 199.097 125.057 199.097ZM133.309 199.097C132.073 199.097 131.131 198.719 130.482 197.964C129.833 197.199 129.509 196.173 129.509 194.884C129.509 194.022 129.651 193.279 129.936 192.657C130.229 192.035 130.656 191.555 131.216 191.217C131.785 190.871 132.478 190.697 133.296 190.697C134.46 190.697 135.349 191.057 135.962 191.777C136.585 192.488 136.896 193.537 136.896 194.924V195.364H131.442C131.487 196.066 131.669 196.626 131.989 197.044C132.309 197.462 132.753 197.671 133.322 197.671C133.758 197.671 134.109 197.542 134.376 197.284C134.642 197.026 134.825 196.711 134.922 196.337H136.802C136.713 196.835 136.531 197.293 136.256 197.711C135.98 198.128 135.598 198.466 135.109 198.724C134.629 198.973 134.029 199.097 133.309 199.097ZM131.442 194.084H134.976C134.94 193.444 134.776 192.946 134.482 192.591C134.198 192.235 133.798 192.057 133.282 192.057C132.758 192.057 132.336 192.231 132.016 192.577C131.705 192.915 131.513 193.417 131.442 194.084ZM141.264 199.097C140.41 199.097 139.726 198.959 139.21 198.684C138.695 198.408 138.313 198.057 138.064 197.631C137.824 197.204 137.69 196.773 137.664 196.337H139.557C139.593 196.577 139.682 196.799 139.824 197.004C139.975 197.208 140.175 197.373 140.424 197.497C140.682 197.613 140.993 197.671 141.357 197.671C141.793 197.671 142.113 197.591 142.317 197.431C142.522 197.271 142.624 197.066 142.624 196.817C142.624 196.586 142.535 196.391 142.357 196.231C142.179 196.071 141.89 195.924 141.49 195.791L140.53 195.471C140.077 195.311 139.659 195.137 139.277 194.951C138.904 194.755 138.602 194.506 138.37 194.204C138.148 193.902 138.037 193.515 138.037 193.044C138.037 192.342 138.299 191.777 138.824 191.351C139.357 190.915 140.104 190.697 141.064 190.697C141.757 190.697 142.326 190.808 142.77 191.031C143.215 191.244 143.548 191.537 143.77 191.911C144.002 192.275 144.135 192.684 144.17 193.137H142.344C142.299 192.808 142.166 192.546 141.944 192.351C141.722 192.155 141.402 192.057 140.984 192.057C140.619 192.057 140.344 192.133 140.157 192.284C139.97 192.426 139.877 192.622 139.877 192.871C139.877 193.119 139.975 193.324 140.17 193.484C140.366 193.644 140.659 193.791 141.05 193.924L142.01 194.244C142.464 194.386 142.877 194.555 143.25 194.751C143.624 194.937 143.922 195.182 144.144 195.484C144.366 195.786 144.477 196.177 144.477 196.657C144.477 197.386 144.202 197.977 143.65 198.431C143.099 198.875 142.304 199.097 141.264 199.097Z" fill="#EEEEF0"/>
<defs>
<linearGradient id="paint0_linear_1278_46864" x1="620.707" y1="81.3091" x2="1069.15" y2="81.3091" gradientUnits="userSpaceOnUse">
<stop offset="0.7" stop-color="#3B82F6"/>
<stop offset="1" stop-color="#3B82F6" stop-opacity="0"/>
</linearGradient>
<linearGradient id="paint1_linear_1278_46864" x1="621.055" y1="81.3091" x2="172.614" y2="81.3091" gradientUnits="userSpaceOnUse">
<stop offset="0.7" stop-color="#3B82F6"/>
<stop offset="1" stop-color="#3B82F6" stop-opacity="0"/>
</linearGradient>
<linearGradient id="paint2_linear_1278_46864" x1="621.055" y1="257.057" x2="909.156" y2="257.057" gradientUnits="userSpaceOnUse">
<stop offset="0.830838" stop-color="#3B82F6"/>
<stop offset="1" stop-color="#3B82F6" stop-opacity="0"/>
</linearGradient>
<linearGradient id="paint3_linear_1278_46864" x1="621.055" y1="257.057" x2="332.214" y2="257.057" gradientUnits="userSpaceOnUse">
<stop offset="0.830838" stop-color="#3B82F6"/>
<stop offset="1" stop-color="#3B82F6" stop-opacity="0"/>
</linearGradient>
<linearGradient id="paint4_linear_1278_46864" x1="662.067" y1="193.001" x2="1101.23" y2="193.001" gradientUnits="userSpaceOnUse">
<stop offset="0.706363" stop-color="#3B82F6"/>
<stop offset="1" stop-color="#3B82F6" stop-opacity="0"/>
</linearGradient>
<linearGradient id="paint5_linear_1278_46864" x1="174.982" y1="193.001" x2="581.773" y2="193.001" gradientUnits="userSpaceOnUse">
<stop stop-color="#3B82F6" stop-opacity="0"/>
<stop offset="0.55" stop-color="#3B82F6"/>
</linearGradient>
<linearGradient id="paint6_linear_1278_46864" x1="681.423" y1="128.507" x2="909.201" y2="128.507" gradientUnits="userSpaceOnUse">
<stop offset="0.579938" stop-color="#3B82F6"/>
<stop offset="1" stop-color="#3B82F6" stop-opacity="0"/>
</linearGradient>
<linearGradient id="paint7_linear_1278_46864" x1="332.214" y1="128.507" x2="559.992" y2="128.507" gradientUnits="userSpaceOnUse">
<stop stop-color="#3B82F6" stop-opacity="0"/>
<stop offset="0.420062" stop-color="#3B82F6"/>
</linearGradient>
<linearGradient id="paint8_linear_1278_46864" x1="735.688" y1="0.503662" x2="735.687" y2="321.496" gradientUnits="userSpaceOnUse">
<stop stop-color="#3B82F6" stop-opacity="0"/>
<stop offset="0.505" stop-color="#3B82F6"/>
<stop offset="1" stop-color="#3B82F6" stop-opacity="0"/>
</linearGradient>
<linearGradient id="paint9_linear_1278_46864" x1="511.725" y1="0.503906" x2="511.725" y2="321.496" gradientUnits="userSpaceOnUse">
<stop stop-color="#3B82F6" stop-opacity="0"/>
<stop offset="0.505" stop-color="#3B82F6"/>
<stop offset="1" stop-color="#3B82F6" stop-opacity="0"/>
</linearGradient>
<linearGradient id="paint10_linear_1278_46864" x1="832.207" y1="65.0271" x2="832.207" y2="193.001" gradientUnits="userSpaceOnUse">
<stop stop-color="#3B82F6" stop-opacity="0"/>
<stop offset="0.535" stop-color="#3B82F6"/>
<stop offset="1" stop-color="#3B82F6" stop-opacity="0"/>
</linearGradient>
<linearGradient id="paint11_linear_1278_46864" x1="447.826" y1="33.0051" x2="447.826" y2="288.995" gradientUnits="userSpaceOnUse">
<stop stop-color="#3B82F6" stop-opacity="0"/>
<stop offset="0.535" stop-color="#3B82F6"/>
<stop offset="1" stop-color="#3B82F6" stop-opacity="0"/>
</linearGradient>
</defs>
</svg>
