<svg width="706" height="322" viewBox="0 0 706 322" fill="none" xmlns="http://www.w3.org/2000/svg">
<path d="M395.438 65.1328L561.799 65.1328" stroke="url(#paint0_linear_1278_40899)" stroke-width="2"/>
<path d="M395.716 65.1335L105.57 65.1328" stroke="url(#paint1_linear_1278_40899)" stroke-width="2"/>
<path d="M395.716 257.752L538.998 257.751" stroke="url(#paint2_linear_1278_40899)" stroke-width="2"/>
<path d="M395.715 257.752L201.804 257.751" stroke="url(#paint3_linear_1278_40899)" stroke-width="2"/>
<path d="M602.549 192.691L379.074 192.691" stroke="url(#paint4_linear_1278_40899)" stroke-width="2"/>
<path d="M364.282 192.692L89.1485 192.692" stroke="url(#paint5_linear_1278_40899)" stroke-width="2"/>
<path d="M497.33 128.97H395.716" stroke="url(#paint6_linear_1278_40899)" stroke-width="2"/>
<path d="M346.855 128.971L193.211 128.971" stroke="url(#paint7_linear_1278_40899)" stroke-width="2"/>
<path d="M428.914 0.400391L428.914 320.798" stroke="url(#paint8_linear_1278_40899)" stroke-width="2"/>
<path d="M258.662 1.73535L258.662 321.599" stroke="url(#paint9_linear_1278_40899)" stroke-width="2"/>
<path d="M539.734 63.9688L539.734 191.943" stroke="url(#paint10_linear_1278_40899)" stroke-width="2"/>
<path d="M145.637 33.2598L145.637 289.101" stroke="url(#paint11_linear_1278_40899)" stroke-width="2"/>
<circle cx="538.995" cy="128.97" r="6.25" fill="#2563EB"/>
<circle cx="186.961" cy="128.971" r="6.25" fill="#2563EB"/>
<path d="M398.914 148.735V100.928C398.914 96.5097 395.332 92.9414 390.914 92.9414H343.598H296.282C291.864 92.9414 288.283 96.5147 288.283 100.933C288.282 109.627 288.282 125.47 288.283 148.735C288.283 186.313 307.957 199.193 343.598 218.941C378.342 201.627 398.914 188.258 398.914 148.735Z" fill="#3B82F6"/>
<path fill-rule="evenodd" clip-rule="evenodd" d="M347.763 118.978L341.691 117.465C342.146 117.465 342.633 117.429 343.182 117.389C343.891 117.336 344.704 117.276 345.681 117.276C349.324 117.276 352.273 118.6 355.049 120.301C355.432 120.511 355.763 120.951 356.099 121.399C356.371 121.761 356.647 122.128 356.957 122.381C358.345 122.948 359.732 123.327 361.12 123.138V122.57C362.681 122.948 364.243 124.839 364.243 126.163H357.13C356.957 126.163 356.61 126.352 356.436 126.541C356.61 126.73 356.957 127.108 357.13 127.108C357.458 127.108 357.815 127.097 358.191 127.086C359.409 127.05 360.836 127.008 362.161 127.297C362.137 127.341 362.112 127.387 362.085 127.435C361.544 128.428 360.543 130.261 359.385 128.999C359.385 128.621 352.62 128.81 350.885 129.188C350.538 129.188 350.191 129.944 350.365 130.322C351.142 132.379 352.984 133.661 354.709 134.863C355.681 135.539 356.616 136.19 357.304 136.94C362.161 141.099 363.722 144.881 362.681 152.065C360.075 163.263 355.977 165.153 347.991 168.837C346.943 169.32 345.828 169.835 344.64 170.405C341.691 171.918 339.957 175.51 340.477 179.102C341.691 186.854 352.967 188.934 355.222 179.859C355.916 176.266 355.049 171.161 348.804 169.649C351.579 168.325 354.181 166.813 356.61 165.111C356.957 164.733 357.304 164.733 357.651 165.111C364.59 172.107 366.324 184.964 354.875 192.526C346.722 197.442 336.487 193.283 333.191 183.829C329.895 174.187 335.1 163.788 344.293 161.708C350.885 160.574 357.651 153.011 354.702 146.015C353.393 142.876 349.614 139.737 346.422 137.085C345.384 136.223 344.408 135.413 343.6 134.671C343.143 134.372 342.397 134.441 341.565 134.517C340.818 134.586 340.001 134.661 339.263 134.482C339.61 134.198 339.821 133.916 340.032 133.633C340.243 133.351 340.454 133.069 340.801 132.785C339.24 131.738 338.272 131.595 337.076 131.417C336.544 131.339 335.967 131.253 335.273 131.079C335.793 129.944 338.038 128.623 339.6 128.434C339.552 127.94 339.521 127.515 339.494 127.142C339.323 124.805 339.307 124.579 336.314 122.948C338.094 121.655 339.667 121.942 341.195 122.22C342.793 122.511 344.343 122.794 346.028 121.247C343.947 120.491 341.865 119.734 339.957 118.411C340.934 118.482 341.895 118.67 342.851 118.858C344.441 119.17 346.019 119.48 347.644 119.244L347.763 118.978ZM333.191 167.569C324.865 161.897 324.344 147.528 333.712 141.288C340.651 136.562 348.457 138.263 353.661 146.582C354.355 147.906 354.355 149.986 354.008 151.498C352.62 156.603 349.151 159.439 344.467 160.573C345.855 159.439 346.896 157.737 347.242 155.847C348.804 145.259 333.712 144.124 334.406 155.469C334.232 158.683 336.487 160.952 340.824 161.708C338.569 163.22 336.661 164.544 334.579 167.38C334.232 167.947 333.885 167.947 333.191 167.569ZM331.1 175.772C328.429 176.316 325.613 176.89 322.957 178.157C324.171 172.674 328.508 168.893 333.712 168.893C332.324 170.783 331.63 173.241 331.457 175.699C331.338 175.723 331.219 175.748 331.1 175.772ZM353.479 123.585L353.999 124.152L353.305 124.53C352.958 124.719 352.785 124.53 352.612 124.341C352.265 123.774 353.305 123.396 353.479 123.585Z" fill="white"/>
<circle cx="145.637" cy="193.162" r="6.25" fill="#2563EB"/>
<circle cx="538.995" cy="191.704" r="6.25" fill="#2563EB"/>
<circle cx="90.8975" cy="65.9697" r="6.25" fill="#2563EB"/>
<circle cx="258.662" cy="257.752" r="6.25" fill="#2563EB"/>
<circle cx="428.914" cy="257.388" r="6.25" fill="#2563EB"/>
<circle cx="539.734" cy="63.5537" r="6.25" fill="#2563EB"/>
<rect x="562.133" y="33.2832" width="84.5088" height="62.9707" fill="#FAFAFA"/>
<path d="M584.17 60.7686V51.6686H587.343L589.222 59.3569H589.607L591.497 51.6686H594.67V60.7686H592.978V53.1502H592.687L590.843 60.7686H587.892L586.048 53.1502H585.757V60.7686H584.17ZM599.413 60.9436C598.278 60.9436 597.43 60.613 596.87 59.9519C596.318 59.283 596.042 58.3886 596.042 57.2686C596.042 56.1486 596.318 55.258 596.87 54.5969C597.43 53.928 598.278 53.5936 599.413 53.5936C600.549 53.5936 601.397 53.928 601.957 54.5969C602.517 55.258 602.797 56.1486 602.797 57.2686C602.797 58.3886 602.517 59.283 601.957 59.9519C601.397 60.613 600.549 60.9436 599.413 60.9436ZM599.413 59.7419C599.965 59.7419 600.366 59.5319 600.615 59.1119C600.872 58.6919 601 58.0774 601 57.2686C601 56.4597 600.872 55.8452 600.615 55.4252C600.366 55.0052 599.965 54.7952 599.413 54.7952C598.869 54.7952 598.468 55.0052 598.212 55.4252C597.955 55.8452 597.827 56.4597 597.827 57.2686C597.827 58.0774 597.955 58.6919 598.212 59.1119C598.468 59.5319 598.869 59.7419 599.413 59.7419ZM607.936 60.9202C607.415 60.9202 606.995 60.8152 606.676 60.6052C606.365 60.3952 606.132 60.1463 605.976 59.8586H605.696V60.7686H604.11V51.4352H605.836V54.5619H606.116C606.288 54.2741 606.521 54.0447 606.816 53.8736C607.112 53.7024 607.489 53.6169 607.948 53.6169C608.563 53.6169 609.076 53.7686 609.488 54.0719C609.908 54.3752 610.223 54.7991 610.433 55.3436C610.643 55.888 610.748 56.5258 610.748 57.2569C610.748 57.9724 610.643 58.6063 610.433 59.1586C610.223 59.7108 609.912 60.1424 609.5 60.4536C609.088 60.7647 608.566 60.9202 607.936 60.9202ZM607.481 59.6602C607.948 59.6602 608.31 59.458 608.566 59.0536C608.823 58.6491 608.951 58.0541 608.951 57.2686C608.951 56.483 608.823 55.888 608.566 55.4836C608.31 55.0791 607.948 54.8769 607.481 54.8769C606.976 54.8769 606.575 55.0947 606.28 55.5302C605.984 55.958 605.836 56.5374 605.836 57.2686C605.836 57.9997 605.984 58.583 606.28 59.0186C606.575 59.4463 606.976 59.6602 607.481 59.6602ZM612.067 60.7686V53.7686H613.793V60.7686H612.067ZM612.93 52.9169C612.619 52.9169 612.382 52.8352 612.218 52.6719C612.055 52.5008 611.973 52.283 611.973 52.0186C611.973 51.7541 612.055 51.5402 612.218 51.3769C612.382 51.2058 612.619 51.1202 612.93 51.1202C613.241 51.1202 613.478 51.2058 613.642 51.3769C613.805 51.5402 613.887 51.7541 613.887 52.0186C613.887 52.283 613.805 52.5008 613.642 52.6719C613.478 52.8352 613.241 52.9169 612.93 52.9169ZM616.154 60.7686C615.944 60.5274 615.792 60.2552 615.699 59.9519C615.606 59.6408 615.559 59.2169 615.559 58.6802V51.4352H617.297V58.4936C617.297 59.0924 617.364 59.5552 617.496 59.8819C617.628 60.2086 617.799 60.4808 618.009 60.6986V60.7686H616.154ZM622.007 60.9436C620.926 60.9436 620.102 60.613 619.534 59.9519C618.966 59.283 618.682 58.3847 618.682 57.2569C618.682 56.5024 618.807 55.853 619.055 55.3086C619.312 54.7641 619.685 54.3441 620.175 54.0486C620.673 53.7452 621.276 53.5936 621.984 53.5936C623.01 53.5936 623.792 53.9086 624.329 54.5386C624.873 55.1608 625.145 56.0786 625.145 57.2919V57.6769H620.362C620.401 58.2991 620.56 58.793 620.84 59.1586C621.12 59.5163 621.509 59.6952 622.007 59.6952C622.396 59.6952 622.707 59.5824 622.94 59.3569C623.174 59.1313 623.333 58.8552 623.419 58.5286H625.064C624.986 58.9719 624.827 59.3763 624.585 59.7419C624.344 60.0997 624.01 60.3913 623.582 60.6169C623.162 60.8347 622.637 60.9436 622.007 60.9436ZM620.374 56.5686H623.465C623.434 56.0008 623.29 55.5613 623.034 55.2502C622.785 54.9391 622.431 54.7836 621.972 54.7836C621.513 54.7836 621.148 54.9352 620.875 55.2386C620.603 55.5341 620.436 55.9774 620.374 56.5686ZM581.408 80.7686V71.6686H584.582C586.184 71.6686 587.347 72.0691 588.07 72.8702C588.793 73.6636 589.155 74.7797 589.155 76.2186C589.155 77.6574 588.793 78.7774 588.07 79.5786C587.347 80.3719 586.184 80.7686 584.582 80.7686H581.408ZM583.205 79.3569H584.465C585.111 79.3569 585.643 79.2597 586.063 79.0652C586.483 78.863 586.795 78.5324 586.997 78.0736C587.207 77.6147 587.312 76.9963 587.312 76.2186C587.312 75.4408 587.207 74.8224 586.997 74.3636C586.795 73.9047 586.483 73.578 586.063 73.3836C585.643 73.1813 585.111 73.0802 584.465 73.0802H583.205V79.3569ZM593.296 80.9436C592.215 80.9436 591.391 80.613 590.823 79.9519C590.255 79.283 589.971 78.3847 589.971 77.2569C589.971 76.5024 590.096 75.853 590.345 75.3086C590.601 74.7641 590.975 74.3441 591.465 74.0486C591.962 73.7452 592.565 73.5936 593.273 73.5936C594.3 73.5936 595.081 73.9086 595.618 74.5386C596.162 75.1608 596.435 76.0786 596.435 77.2919V77.6769H591.651C591.69 78.2991 591.85 78.793 592.13 79.1586C592.41 79.5163 592.798 79.6952 593.296 79.6952C593.685 79.6952 593.996 79.5824 594.23 79.3569C594.463 79.1313 594.622 78.8552 594.708 78.5286H596.353C596.275 78.9719 596.116 79.3763 595.875 79.7419C595.633 80.0997 595.299 80.3913 594.871 80.6169C594.451 80.8347 593.926 80.9436 593.296 80.9436ZM591.663 76.5686H594.755C594.723 76.0008 594.58 75.5613 594.323 75.2502C594.074 74.9391 593.72 74.7836 593.261 74.7836C592.802 74.7836 592.437 74.9352 592.165 75.2386C591.892 75.5341 591.725 75.9774 591.663 76.5686ZM598.909 80.7686L596.867 73.8386V73.7686H598.605L600.18 79.3569H600.46L602.035 73.7686H603.634V73.8386L601.592 80.7686H598.909ZM604.684 80.7686V73.7686H606.411V80.7686H604.684ZM605.547 72.9169C605.236 72.9169 604.999 72.8352 604.836 72.6719C604.672 72.5008 604.591 72.283 604.591 72.0186C604.591 71.7541 604.672 71.5402 604.836 71.3769C604.999 71.2058 605.236 71.1202 605.547 71.1202C605.858 71.1202 606.096 71.2058 606.259 71.3769C606.422 71.5402 606.504 71.7541 606.504 72.0186C606.504 72.283 606.422 72.5008 606.259 72.6719C606.096 72.8352 605.858 72.9169 605.547 72.9169ZM611 80.9436C609.934 80.9436 609.125 80.613 608.573 79.9519C608.021 79.283 607.745 78.3886 607.745 77.2686C607.745 76.0941 608.032 75.188 608.608 74.5502C609.191 73.9124 609.992 73.5936 611.011 73.5936C611.914 73.5936 612.625 73.8347 613.146 74.3169C613.667 74.7991 613.979 75.4602 614.08 76.3002H612.376C612.322 75.8336 612.178 75.4758 611.945 75.2269C611.711 74.9702 611.408 74.8419 611.035 74.8419C610.537 74.8419 610.16 75.0558 609.903 75.4836C609.654 75.9036 609.53 76.4986 609.53 77.2686C609.53 78.0386 609.654 78.6374 609.903 79.0652C610.16 79.4852 610.533 79.6952 611.023 79.6952C611.404 79.6952 611.711 79.5669 611.945 79.3102C612.178 79.0536 612.322 78.6958 612.376 78.2369H614.08C613.971 79.0691 613.652 79.7302 613.123 80.2202C612.602 80.7024 611.894 80.9436 611 80.9436ZM618.206 80.9436C617.125 80.9436 616.301 80.613 615.733 79.9519C615.165 79.283 614.881 78.3847 614.881 77.2569C614.881 76.5024 615.006 75.853 615.255 75.3086C615.511 74.7641 615.885 74.3441 616.375 74.0486C616.872 73.7452 617.475 73.5936 618.183 73.5936C619.21 73.5936 619.991 73.9086 620.528 74.5386C621.072 75.1608 621.345 76.0786 621.345 77.2919V77.6769H616.561C616.6 78.2991 616.76 78.793 617.04 79.1586C617.32 79.5163 617.709 79.6952 618.206 79.6952C618.595 79.6952 618.906 79.5824 619.14 79.3569C619.373 79.1313 619.532 78.8552 619.618 78.5286H621.263C621.185 78.9719 621.026 79.3763 620.785 79.7419C620.544 80.0997 620.209 80.3913 619.781 80.6169C619.361 80.8347 618.836 80.9436 618.206 80.9436ZM616.573 76.5686H619.665C619.634 76.0008 619.49 75.5613 619.233 75.2502C618.984 74.9391 618.63 74.7836 618.171 74.7836C617.712 74.7836 617.347 74.9352 617.075 75.2386C616.802 75.5341 616.635 75.9774 616.573 76.5686ZM625.167 80.9436C624.42 80.9436 623.821 80.823 623.37 80.5819C622.919 80.3408 622.585 80.0336 622.367 79.6602C622.157 79.2869 622.04 78.9097 622.017 78.5286H623.662C623.701 78.7386 623.782 78.9369 623.907 79.1236C624.039 79.3024 624.214 79.4463 624.432 79.5552C624.65 79.6563 624.922 79.7069 625.248 79.7069C625.63 79.7069 625.91 79.6369 626.088 79.4969C626.267 79.3569 626.357 79.1741 626.357 78.9486C626.357 78.7463 626.275 78.5752 626.112 78.4352C625.956 78.2952 625.707 78.1669 625.365 78.0502L624.525 77.7702C624.128 77.6302 623.763 77.4786 623.428 77.3152C623.102 77.1441 622.837 76.9263 622.635 76.6619C622.441 76.3974 622.343 76.0591 622.343 75.6469C622.343 75.0324 622.573 74.5386 623.032 74.1652C623.498 73.7841 624.148 73.5936 624.98 73.5936C625.587 73.5936 626.085 73.6908 626.473 73.8852C626.862 74.0719 627.154 74.3286 627.348 74.6552C627.551 74.9741 627.667 75.3319 627.698 75.7286H626.112C626.073 75.4408 625.956 75.2113 625.762 75.0402C625.567 74.8691 625.287 74.7836 624.922 74.7836C624.603 74.7836 624.362 74.8497 624.198 74.9819C624.035 75.1063 623.953 75.2774 623.953 75.4952C623.953 75.713 624.035 75.8958 624.198 76.0436C624.37 76.1836 624.63 76.3119 624.98 76.4286L625.808 76.6969C626.205 76.8213 626.567 76.9691 626.893 77.1402C627.228 77.3036 627.488 77.5174 627.675 77.7819C627.87 78.0463 627.967 78.3886 627.967 78.8086C627.967 79.4463 627.726 79.9636 627.243 80.3602C626.769 80.7491 626.077 80.9436 625.167 80.9436Z" fill="#111827"/>
<rect x="497.33" y="97.3271" width="84.8083" height="63.0371" fill="#FAFAFA"/>
<path d="M524.159 123.592V114.492H525.944V122.168H529.876V123.592H524.159ZM533.796 123.767C532.661 123.767 531.813 123.436 531.253 122.775C530.701 122.106 530.425 121.212 530.425 120.092C530.425 118.972 530.701 118.081 531.253 117.42C531.813 116.751 532.661 116.417 533.796 116.417C534.932 116.417 535.78 116.751 536.34 117.42C536.9 118.081 537.18 118.972 537.18 120.092C537.18 121.212 536.9 122.106 536.34 122.775C535.78 123.436 534.932 123.767 533.796 123.767ZM533.796 122.565C534.349 122.565 534.749 122.355 534.998 121.935C535.255 121.515 535.383 120.901 535.383 120.092C535.383 119.283 535.255 118.668 534.998 118.248C534.749 117.828 534.349 117.618 533.796 117.618C533.252 117.618 532.851 117.828 532.595 118.248C532.338 118.668 532.21 119.283 532.21 120.092C532.21 120.901 532.338 121.515 532.595 121.935C532.851 122.355 533.252 122.565 533.796 122.565ZM541.281 123.767C540.216 123.767 539.407 123.436 538.855 122.775C538.303 122.106 538.026 121.212 538.026 120.092C538.026 118.917 538.314 118.011 538.89 117.373C539.473 116.736 540.274 116.417 541.293 116.417C542.195 116.417 542.907 116.658 543.428 117.14C543.949 117.622 544.26 118.283 544.361 119.123H542.658C542.604 118.657 542.46 118.299 542.226 118.05C541.993 117.793 541.69 117.665 541.316 117.665C540.819 117.665 540.441 117.879 540.185 118.307C539.936 118.727 539.811 119.322 539.811 120.092C539.811 120.862 539.936 121.461 540.185 121.888C540.441 122.308 540.815 122.518 541.305 122.518C541.686 122.518 541.993 122.39 542.226 122.133C542.46 121.877 542.604 121.519 542.658 121.06H544.361C544.253 121.892 543.934 122.553 543.405 123.043C542.884 123.526 542.176 123.767 541.281 123.767ZM547.998 123.743C547.36 123.743 546.831 123.588 546.411 123.277C545.991 122.966 545.676 122.534 545.466 121.982C545.264 121.43 545.163 120.796 545.163 120.08C545.163 119.349 545.268 118.711 545.478 118.167C545.688 117.622 546.003 117.198 546.423 116.895C546.843 116.592 547.368 116.44 547.998 116.44C548.496 116.44 548.9 116.541 549.211 116.743C549.53 116.938 549.768 117.191 549.923 117.502H550.203V116.592H551.79V123.592H550.203V122.682H549.923C549.768 122.97 549.534 123.218 549.223 123.428C548.912 123.638 548.504 123.743 547.998 123.743ZM548.418 122.483C548.924 122.483 549.324 122.27 549.62 121.842C549.923 121.406 550.075 120.823 550.075 120.092C550.075 119.361 549.923 118.781 549.62 118.353C549.324 117.918 548.924 117.7 548.418 117.7C547.959 117.7 547.598 117.902 547.333 118.307C547.076 118.711 546.948 119.306 546.948 120.092C546.948 120.877 547.076 121.472 547.333 121.877C547.598 122.281 547.959 122.483 548.418 122.483ZM554.147 123.592C553.937 123.351 553.785 123.078 553.692 122.775C553.598 122.464 553.552 122.04 553.552 121.503V114.258H555.29V121.317C555.29 121.916 555.356 122.378 555.488 122.705C555.621 123.032 555.792 123.304 556.002 123.522V123.592H554.147ZM516.756 143.592V134.492H519.929C521.531 134.492 522.694 134.892 523.417 135.693C524.141 136.487 524.502 137.603 524.502 139.042C524.502 140.481 524.141 141.601 523.417 142.402C522.694 143.195 521.531 143.592 519.929 143.592H516.756ZM518.552 142.18H519.812C520.458 142.18 520.991 142.083 521.411 141.888C521.831 141.686 522.142 141.356 522.344 140.897C522.554 140.438 522.659 139.82 522.659 139.042C522.659 138.264 522.554 137.646 522.344 137.187C522.142 136.728 521.831 136.401 521.411 136.207C520.991 136.005 520.458 135.903 519.812 135.903H518.552V142.18ZM528.643 143.767C527.562 143.767 526.738 143.436 526.17 142.775C525.602 142.106 525.318 141.208 525.318 140.08C525.318 139.326 525.443 138.676 525.692 138.132C525.948 137.587 526.322 137.167 526.812 136.872C527.309 136.568 527.912 136.417 528.62 136.417C529.647 136.417 530.428 136.732 530.965 137.362C531.509 137.984 531.782 138.902 531.782 140.115V140.5H526.998C527.037 141.122 527.197 141.616 527.477 141.982C527.757 142.34 528.146 142.518 528.643 142.518C529.032 142.518 529.343 142.406 529.577 142.18C529.81 141.955 529.969 141.678 530.055 141.352H531.7C531.622 141.795 531.463 142.2 531.222 142.565C530.981 142.923 530.646 143.215 530.218 143.44C529.798 143.658 529.273 143.767 528.643 143.767ZM527.01 139.392H530.102C530.071 138.824 529.927 138.385 529.67 138.073C529.421 137.762 529.067 137.607 528.608 137.607C528.149 137.607 527.784 137.758 527.512 138.062C527.239 138.357 527.072 138.801 527.01 139.392ZM534.256 143.592L532.214 136.662V136.592H533.952L535.527 142.18H535.807L537.382 136.592H538.981V136.662L536.939 143.592H534.256ZM540.031 143.592V136.592H541.758V143.592H540.031ZM540.894 135.74C540.583 135.74 540.346 135.658 540.183 135.495C540.019 135.324 539.938 135.106 539.938 134.842C539.938 134.577 540.019 134.363 540.183 134.2C540.346 134.029 540.583 133.943 540.894 133.943C541.206 133.943 541.443 134.029 541.606 134.2C541.769 134.363 541.851 134.577 541.851 134.842C541.851 135.106 541.769 135.324 541.606 135.495C541.443 135.658 541.206 135.74 540.894 135.74ZM546.347 143.767C545.281 143.767 544.472 143.436 543.92 142.775C543.368 142.106 543.092 141.212 543.092 140.092C543.092 138.917 543.38 138.011 543.955 137.373C544.538 136.736 545.34 136.417 546.358 136.417C547.261 136.417 547.972 136.658 548.493 137.14C549.015 137.622 549.326 138.283 549.427 139.123H547.723C547.669 138.657 547.525 138.299 547.292 138.05C547.058 137.793 546.755 137.665 546.382 137.665C545.884 137.665 545.507 137.879 545.25 138.307C545.001 138.727 544.877 139.322 544.877 140.092C544.877 140.862 545.001 141.461 545.25 141.888C545.507 142.308 545.88 142.518 546.37 142.518C546.751 142.518 547.058 142.39 547.292 142.133C547.525 141.877 547.669 141.519 547.723 141.06H549.427C549.318 141.892 548.999 142.553 548.47 143.043C547.949 143.526 547.241 143.767 546.347 143.767ZM553.554 143.767C552.472 143.767 551.648 143.436 551.08 142.775C550.512 142.106 550.229 141.208 550.229 140.08C550.229 139.326 550.353 138.676 550.602 138.132C550.859 137.587 551.232 137.167 551.722 136.872C552.22 136.568 552.822 136.417 553.53 136.417C554.557 136.417 555.339 136.732 555.875 137.362C556.42 137.984 556.692 138.902 556.692 140.115V140.5H551.909C551.947 141.122 552.107 141.616 552.387 141.982C552.667 142.34 553.056 142.518 553.554 142.518C553.942 142.518 554.254 142.406 554.487 142.18C554.72 141.955 554.88 141.678 554.965 141.352H556.61C556.532 141.795 556.373 142.2 556.132 142.565C555.891 142.923 555.556 143.215 555.129 143.44C554.709 143.658 554.184 143.767 553.554 143.767ZM551.92 139.392H555.012C554.981 138.824 554.837 138.385 554.58 138.073C554.331 137.762 553.977 137.607 553.519 137.607C553.06 137.607 552.694 137.758 552.422 138.062C552.15 138.357 551.982 138.801 551.92 139.392ZM560.514 143.767C559.767 143.767 559.168 143.646 558.717 143.405C558.266 143.164 557.932 142.857 557.714 142.483C557.504 142.11 557.387 141.733 557.364 141.352H559.009C559.048 141.562 559.13 141.76 559.254 141.947C559.386 142.126 559.561 142.27 559.779 142.378C559.997 142.48 560.269 142.53 560.596 142.53C560.977 142.53 561.257 142.46 561.436 142.32C561.615 142.18 561.704 141.997 561.704 141.772C561.704 141.57 561.622 141.398 561.459 141.258C561.303 141.118 561.055 140.99 560.712 140.873L559.872 140.593C559.476 140.453 559.11 140.302 558.776 140.138C558.449 139.967 558.185 139.75 557.982 139.485C557.788 139.221 557.691 138.882 557.691 138.47C557.691 137.856 557.92 137.362 558.379 136.988C558.846 136.607 559.495 136.417 560.327 136.417C560.934 136.417 561.432 136.514 561.821 136.708C562.21 136.895 562.501 137.152 562.696 137.478C562.898 137.797 563.015 138.155 563.046 138.552H561.459C561.42 138.264 561.303 138.035 561.109 137.863C560.915 137.692 560.635 137.607 560.269 137.607C559.95 137.607 559.709 137.673 559.546 137.805C559.382 137.93 559.301 138.101 559.301 138.318C559.301 138.536 559.382 138.719 559.546 138.867C559.717 139.007 559.977 139.135 560.327 139.252L561.156 139.52C561.552 139.645 561.914 139.792 562.241 139.963C562.575 140.127 562.836 140.341 563.022 140.605C563.217 140.87 563.314 141.212 563.314 141.632C563.314 142.27 563.073 142.787 562.591 143.183C562.116 143.572 561.424 143.767 560.514 143.767Z" fill="#111827"/>
<rect x="539.734" y="225.325" width="112.112" height="63.0371" fill="#FAFAFA"/>
<path d="M556.159 252.844V243.744H559.332C560.935 243.744 562.097 244.144 562.821 244.945C563.544 245.739 563.906 246.855 563.906 248.294C563.906 249.733 563.544 250.853 562.821 251.654C562.097 252.447 560.935 252.844 559.332 252.844H556.159ZM557.956 251.432H559.216C559.861 251.432 560.394 251.335 560.814 251.14C561.234 250.938 561.545 250.608 561.747 250.149C561.957 249.69 562.062 249.072 562.062 248.294C562.062 247.516 561.957 246.898 561.747 246.439C561.545 245.98 561.234 245.653 560.814 245.459C560.394 245.257 559.861 245.155 559.216 245.155H557.956V251.432ZM568.047 253.019C566.966 253.019 566.141 252.688 565.574 252.027C565.006 251.358 564.722 250.46 564.722 249.332C564.722 248.578 564.846 247.928 565.095 247.384C565.352 246.839 565.725 246.419 566.215 246.124C566.713 245.82 567.316 245.669 568.024 245.669C569.05 245.669 569.832 245.984 570.369 246.614C570.913 247.236 571.185 248.154 571.185 249.367V249.752H566.402C566.441 250.374 566.6 250.868 566.88 251.234C567.16 251.592 567.549 251.77 568.047 251.77C568.436 251.77 568.747 251.658 568.98 251.432C569.214 251.207 569.373 250.93 569.459 250.604H571.104C571.026 251.047 570.866 251.452 570.625 251.817C570.384 252.175 570.05 252.467 569.622 252.692C569.202 252.91 568.677 253.019 568.047 253.019ZM566.414 248.644H569.505C569.474 248.076 569.33 247.637 569.074 247.325C568.825 247.014 568.471 246.859 568.012 246.859C567.553 246.859 567.188 247.01 566.915 247.314C566.643 247.609 566.476 248.053 566.414 248.644ZM573.659 252.844L571.618 245.914V245.844H573.356L574.931 251.432H575.211L576.786 245.844H578.384V245.914L576.343 252.844H573.659ZM582.293 253.019C581.212 253.019 580.387 252.688 579.82 252.027C579.252 251.358 578.968 250.46 578.968 249.332C578.968 248.578 579.092 247.928 579.341 247.384C579.598 246.839 579.971 246.419 580.461 246.124C580.959 245.82 581.562 245.669 582.27 245.669C583.296 245.669 584.078 245.984 584.615 246.614C585.159 247.236 585.431 248.154 585.431 249.367V249.752H580.648C580.687 250.374 580.846 250.868 581.126 251.234C581.406 251.592 581.795 251.77 582.293 251.77C582.682 251.77 582.993 251.658 583.226 251.432C583.46 251.207 583.619 250.93 583.705 250.604H585.35C585.272 251.047 585.112 251.452 584.871 251.817C584.63 252.175 584.296 252.467 583.868 252.692C583.448 252.91 582.923 253.019 582.293 253.019ZM580.66 248.644H583.751C583.72 248.076 583.576 247.637 583.32 247.325C583.071 247.014 582.717 246.859 582.258 246.859C581.799 246.859 581.434 247.01 581.161 247.314C580.889 247.609 580.722 248.053 580.66 248.644ZM587.282 252.844C587.072 252.603 586.92 252.33 586.827 252.027C586.733 251.716 586.687 251.292 586.687 250.755V243.51H588.425V250.569C588.425 251.168 588.491 251.63 588.623 251.957C588.756 252.284 588.927 252.556 589.137 252.774V252.844H587.282ZM593.182 253.019C592.046 253.019 591.198 252.688 590.638 252.027C590.086 251.358 589.81 250.464 589.81 249.344C589.81 248.224 590.086 247.333 590.638 246.672C591.198 246.003 592.046 245.669 593.182 245.669C594.317 245.669 595.165 246.003 595.725 246.672C596.285 247.333 596.565 248.224 596.565 249.344C596.565 250.464 596.285 251.358 595.725 252.027C595.165 252.688 594.317 253.019 593.182 253.019ZM593.182 251.817C593.734 251.817 594.134 251.607 594.383 251.187C594.64 250.767 594.768 250.153 594.768 249.344C594.768 248.535 594.64 247.92 594.383 247.5C594.134 247.08 593.734 246.87 593.182 246.87C592.637 246.87 592.237 247.08 591.98 247.5C591.723 247.92 591.595 248.535 591.595 249.344C591.595 250.153 591.723 250.767 591.98 251.187C592.237 251.607 592.637 251.817 593.182 251.817ZM597.878 255.177V245.844H599.465V246.754H599.745C599.9 246.466 600.134 246.217 600.445 246.007C600.764 245.797 601.184 245.692 601.705 245.692C602.335 245.692 602.856 245.848 603.268 246.159C603.68 246.47 603.991 246.902 604.201 247.454C604.411 247.998 604.516 248.632 604.516 249.355C604.516 250.079 604.411 250.717 604.201 251.269C603.991 251.813 603.676 252.237 603.256 252.54C602.844 252.844 602.331 252.995 601.716 252.995C601.258 252.995 600.88 252.91 600.585 252.739C600.289 252.568 600.056 252.338 599.885 252.05H599.605V255.177H597.878ZM601.25 251.735C601.716 251.735 602.078 251.533 602.335 251.129C602.591 250.724 602.72 250.129 602.72 249.344C602.72 248.558 602.591 247.963 602.335 247.559C602.078 247.154 601.716 246.952 601.25 246.952C600.744 246.952 600.344 247.17 600.048 247.605C599.753 248.033 599.605 248.613 599.605 249.344C599.605 250.075 599.753 250.658 600.048 251.094C600.344 251.522 600.744 251.735 601.25 251.735ZM605.835 252.844V245.844H607.422V246.894H607.702C607.834 246.544 608.044 246.252 608.332 246.019C608.627 245.785 609.04 245.669 609.568 245.669C610.051 245.669 610.451 245.778 610.77 245.995C611.097 246.213 611.342 246.513 611.505 246.894H611.785C611.925 246.536 612.147 246.244 612.45 246.019C612.753 245.785 613.162 245.669 613.675 245.669C614.437 245.669 615.001 245.918 615.367 246.415C615.732 246.905 615.915 247.563 615.915 248.387V252.844H614.188V248.69C614.188 248.185 614.103 247.792 613.932 247.512C613.768 247.232 613.5 247.092 613.127 247.092C612.676 247.092 612.33 247.283 612.088 247.664C611.855 248.045 611.738 248.512 611.738 249.064V252.844H610.012V248.69C610.012 248.185 609.926 247.792 609.755 247.512C609.592 247.232 609.327 247.092 608.962 247.092C608.511 247.092 608.165 247.283 607.923 247.664C607.682 248.045 607.562 248.512 607.562 249.064V252.844H605.835ZM620.479 253.019C619.397 253.019 618.573 252.688 618.005 252.027C617.437 251.358 617.154 250.46 617.154 249.332C617.154 248.578 617.278 247.928 617.527 247.384C617.784 246.839 618.157 246.419 618.647 246.124C619.145 245.82 619.747 245.669 620.455 245.669C621.482 245.669 622.264 245.984 622.8 246.614C623.345 247.236 623.617 248.154 623.617 249.367V249.752H618.834C618.872 250.374 619.032 250.868 619.312 251.234C619.592 251.592 619.981 251.77 620.479 251.77C620.867 251.77 621.179 251.658 621.412 251.432C621.645 251.207 621.805 250.93 621.89 250.604H623.535C623.457 251.047 623.298 251.452 623.057 251.817C622.816 252.175 622.481 252.467 622.054 252.692C621.634 252.91 621.109 253.019 620.479 253.019ZM618.845 248.644H621.937C621.906 248.076 621.762 247.637 621.505 247.325C621.256 247.014 620.902 246.859 620.444 246.859C619.985 246.859 619.619 247.01 619.347 247.314C619.075 247.609 618.907 248.053 618.845 248.644ZM624.907 252.844V245.844H626.494V246.894H626.774C626.914 246.536 627.132 246.244 627.427 246.019C627.731 245.785 628.158 245.669 628.711 245.669C629.504 245.669 630.091 245.918 630.472 246.415C630.853 246.905 631.044 247.563 631.044 248.387V252.844H629.317V248.69C629.317 248.177 629.224 247.784 629.037 247.512C628.858 247.232 628.567 247.092 628.162 247.092C627.68 247.092 627.303 247.283 627.031 247.664C626.766 248.037 626.634 248.504 626.634 249.064V252.844H624.907ZM633.733 252.844C633.554 252.634 633.41 252.381 633.301 252.085C633.2 251.79 633.15 251.347 633.15 250.755V247.08H632.193V245.844H633.173V244.094H634.865V245.844H636.008V247.08H634.876V250.557C634.876 251.179 634.942 251.654 635.075 251.98C635.215 252.299 635.382 252.564 635.576 252.774V252.844H633.733ZM569.997 273.019C568.698 273.019 567.687 272.603 566.963 271.77C566.24 270.938 565.878 269.779 565.878 268.294C565.878 266.816 566.236 265.661 566.952 264.829C567.667 263.989 568.678 263.569 569.985 263.569C570.771 263.569 571.443 263.717 572.003 264.012C572.563 264.3 572.999 264.704 573.31 265.225C573.629 265.747 573.82 266.349 573.882 267.034H572.085C572.023 266.38 571.805 265.867 571.432 265.494C571.066 265.12 570.588 264.934 569.997 264.934C569.25 264.934 568.686 265.229 568.305 265.82C567.924 266.404 567.733 267.232 567.733 268.305C567.733 269.41 567.928 270.246 568.317 270.814C568.713 271.374 569.27 271.654 569.985 271.654C570.607 271.654 571.097 271.459 571.455 271.07C571.821 270.682 572.031 270.176 572.085 269.554H573.882C573.82 270.23 573.629 270.833 573.31 271.362C572.999 271.883 572.563 272.292 572.003 272.587C571.451 272.875 570.782 273.019 569.997 273.019ZM578.006 273.019C576.87 273.019 576.022 272.688 575.462 272.027C574.91 271.358 574.634 270.464 574.634 269.344C574.634 268.224 574.91 267.333 575.462 266.672C576.022 266.003 576.87 265.669 578.006 265.669C579.141 265.669 579.989 266.003 580.549 266.672C581.109 267.333 581.389 268.224 581.389 269.344C581.389 270.464 581.109 271.358 580.549 272.027C579.989 272.688 579.141 273.019 578.006 273.019ZM578.006 271.817C578.558 271.817 578.959 271.607 579.207 271.187C579.464 270.767 579.592 270.153 579.592 269.344C579.592 268.535 579.464 267.92 579.207 267.5C578.959 267.08 578.558 266.87 578.006 266.87C577.461 266.87 577.061 267.08 576.804 267.5C576.547 267.92 576.419 268.535 576.419 269.344C576.419 270.153 576.547 270.767 576.804 271.187C577.061 271.607 577.461 271.817 578.006 271.817ZM582.702 272.844V265.844H584.289V266.894H584.569C584.709 266.536 584.927 266.244 585.222 266.019C585.526 265.785 585.953 265.669 586.506 265.669C587.299 265.669 587.886 265.918 588.267 266.415C588.648 266.905 588.839 267.563 588.839 268.387V272.844H587.112V268.69C587.112 268.177 587.019 267.784 586.832 267.512C586.653 267.232 586.362 267.092 585.957 267.092C585.475 267.092 585.098 267.283 584.826 267.664C584.561 268.037 584.429 268.504 584.429 269.064V272.844H582.702ZM591.528 272.844C591.349 272.634 591.205 272.381 591.096 272.085C590.995 271.79 590.945 271.347 590.945 270.755V267.08H589.988V265.844H590.968V264.094H592.66V265.844H593.803V267.08H592.671V270.557C592.671 271.179 592.737 271.654 592.87 271.98C593.01 272.299 593.177 272.564 593.371 272.774V272.844H591.528ZM597.416 272.995C596.779 272.995 596.25 272.84 595.83 272.529C595.41 272.218 595.095 271.786 594.885 271.234C594.682 270.682 594.581 270.048 594.581 269.332C594.581 268.601 594.686 267.963 594.896 267.419C595.106 266.874 595.421 266.45 595.841 266.147C596.261 265.844 596.786 265.692 597.416 265.692C597.914 265.692 598.319 265.793 598.63 265.995C598.949 266.19 599.186 266.443 599.341 266.754H599.621V265.844H601.208V272.844H599.621V271.934H599.341C599.186 272.222 598.952 272.47 598.641 272.68C598.33 272.89 597.922 272.995 597.416 272.995ZM597.836 271.735C598.342 271.735 598.742 271.522 599.038 271.094C599.341 270.658 599.493 270.075 599.493 269.344C599.493 268.613 599.341 268.033 599.038 267.605C598.742 267.17 598.342 266.952 597.836 266.952C597.377 266.952 597.016 267.154 596.751 267.559C596.495 267.963 596.366 268.558 596.366 269.344C596.366 270.129 596.495 270.724 596.751 271.129C597.016 271.533 597.377 271.735 597.836 271.735ZM603.005 272.844V265.844H604.732V272.844H603.005ZM603.868 264.992C603.557 264.992 603.32 264.91 603.157 264.747C602.993 264.576 602.912 264.358 602.912 264.094C602.912 263.829 602.993 263.615 603.157 263.452C603.32 263.281 603.557 263.195 603.868 263.195C604.179 263.195 604.417 263.281 604.58 263.452C604.743 263.615 604.825 263.829 604.825 264.094C604.825 264.358 604.743 264.576 604.58 264.747C604.417 264.91 604.179 264.992 603.868 264.992ZM606.532 272.844V265.844H608.119V266.894H608.399C608.539 266.536 608.757 266.244 609.052 266.019C609.356 265.785 609.783 265.669 610.336 265.669C611.129 265.669 611.716 265.918 612.097 266.415C612.478 266.905 612.669 267.563 612.669 268.387V272.844H610.942V268.69C610.942 268.177 610.849 267.784 610.662 267.512C610.483 267.232 610.192 267.092 609.787 267.092C609.305 267.092 608.928 267.283 608.656 267.664C608.391 268.037 608.259 268.504 608.259 269.064V272.844H606.532ZM617.225 273.019C616.144 273.019 615.319 272.688 614.751 272.027C614.184 271.358 613.9 270.46 613.9 269.332C613.9 268.578 614.024 267.928 614.273 267.384C614.53 266.839 614.903 266.419 615.393 266.124C615.891 265.82 616.494 265.669 617.201 265.669C618.228 265.669 619.01 265.984 619.546 266.614C620.091 267.236 620.363 268.154 620.363 269.367V269.752H615.58C615.619 270.374 615.778 270.868 616.058 271.234C616.338 271.592 616.727 271.77 617.225 271.77C617.614 271.77 617.925 271.658 618.158 271.432C618.391 271.207 618.551 270.93 618.636 270.604H620.281C620.204 271.047 620.044 271.452 619.803 271.817C619.562 272.175 619.227 272.467 618.8 272.692C618.38 272.91 617.855 273.019 617.225 273.019ZM615.591 268.644H618.683C618.652 268.076 618.508 267.637 618.251 267.325C618.002 267.014 617.649 266.859 617.19 266.859C616.731 266.859 616.365 267.01 616.093 267.314C615.821 267.609 615.654 268.053 615.591 268.644ZM621.642 272.844V265.844H623.217V267.104H623.497C623.543 266.878 623.629 266.664 623.753 266.462C623.878 266.26 624.072 266.097 624.337 265.972C624.601 265.84 624.955 265.774 625.398 265.774H625.737V267.349H625.27C624.601 267.349 624.115 267.52 623.812 267.862C623.516 268.204 623.368 268.722 623.368 269.414V272.844H621.642Z" fill="#111827"/>
<rect x="89.4707" y="97.3799" width="112.333" height="63.0371" fill="#FAFAFA"/>
<path d="M112.837 122.898V112.498H116.477L118.61 121.272H119.05L121.21 112.498H124.85V122.898H122.917V114.192H122.57L120.477 122.898H117.09L114.997 114.192H114.65V122.898H112.837ZM129.644 123.072C128.915 123.072 128.311 122.894 127.831 122.538C127.351 122.174 126.991 121.681 126.751 121.058C126.52 120.427 126.404 119.703 126.404 118.885C126.404 118.05 126.524 117.321 126.764 116.698C127.004 116.076 127.364 115.592 127.844 115.245C128.324 114.898 128.924 114.725 129.644 114.725C130.213 114.725 130.675 114.841 131.031 115.072C131.395 115.294 131.666 115.583 131.844 115.938H132.164V114.898H133.991V122.898H132.164V121.858H131.844C131.666 122.187 131.4 122.472 131.044 122.712C130.688 122.952 130.222 123.072 129.644 123.072ZM130.137 121.632C130.706 121.632 131.16 121.383 131.497 120.885C131.844 120.387 132.017 119.725 132.017 118.898C132.017 118.063 131.844 117.401 131.497 116.912C131.16 116.414 130.706 116.165 130.137 116.165C129.604 116.165 129.186 116.396 128.884 116.858C128.591 117.321 128.444 118.001 128.444 118.898C128.444 119.796 128.591 120.476 128.884 120.938C129.186 121.401 129.604 121.632 130.137 121.632ZM136.047 122.898V114.898H137.873V116.098H138.193C138.344 115.69 138.593 115.356 138.94 115.098C139.287 114.832 139.776 114.698 140.407 114.698C141.304 114.698 141.971 114.983 142.407 115.552C142.851 116.112 143.073 116.863 143.073 117.805V122.898H141.087V118.152C141.087 117.565 140.98 117.116 140.767 116.805C140.562 116.485 140.229 116.325 139.767 116.325C139.216 116.325 138.789 116.543 138.487 116.978C138.184 117.405 138.033 117.938 138.033 118.578V122.898H136.047ZM147.722 123.072C146.993 123.072 146.389 122.894 145.909 122.538C145.429 122.174 145.069 121.681 144.829 121.058C144.598 120.427 144.482 119.703 144.482 118.885C144.482 118.05 144.602 117.321 144.842 116.698C145.082 116.076 145.442 115.592 145.922 115.245C146.402 114.898 147.002 114.725 147.722 114.725C148.291 114.725 148.753 114.841 149.109 115.072C149.473 115.294 149.744 115.583 149.922 115.938H150.242V114.898H152.069V122.898H150.242V121.858H149.922C149.744 122.187 149.478 122.472 149.122 122.712C148.767 122.952 148.3 123.072 147.722 123.072ZM148.215 121.632C148.784 121.632 149.238 121.383 149.575 120.885C149.922 120.387 150.095 119.725 150.095 118.898C150.095 118.063 149.922 117.401 149.575 116.912C149.238 116.414 148.784 116.165 148.215 116.165C147.682 116.165 147.264 116.396 146.962 116.858C146.669 117.321 146.522 118.001 146.522 118.898C146.522 119.796 146.669 120.476 146.962 120.938C147.264 121.401 147.682 121.632 148.215 121.632ZM157.418 125.765C156.716 125.765 156.143 125.676 155.698 125.498C155.263 125.33 154.92 125.112 154.671 124.845C154.431 124.587 154.258 124.316 154.151 124.032C154.045 123.756 153.983 123.503 153.965 123.272H155.898C155.943 123.547 156.076 123.792 156.298 124.005C156.529 124.227 156.903 124.338 157.418 124.338C157.987 124.338 158.418 124.17 158.711 123.832C159.014 123.503 159.165 123.018 159.165 122.378V121.445H158.845C158.711 121.818 158.476 122.116 158.138 122.338C157.8 122.561 157.351 122.672 156.791 122.672C155.76 122.672 154.969 122.312 154.418 121.592C153.867 120.863 153.591 119.89 153.591 118.672C153.591 117.89 153.711 117.201 153.951 116.605C154.2 116.001 154.56 115.534 155.031 115.205C155.511 114.867 156.107 114.698 156.818 114.698C157.378 114.698 157.823 114.81 158.151 115.032C158.489 115.245 158.738 115.525 158.898 115.872H159.218V114.898H161.045V122.338C161.045 123.432 160.743 124.276 160.138 124.872C159.543 125.467 158.636 125.765 157.418 125.765ZM157.271 121.232C157.84 121.232 158.28 121.001 158.591 120.538C158.911 120.067 159.071 119.45 159.071 118.685C159.071 117.903 158.911 117.285 158.591 116.832C158.271 116.37 157.831 116.138 157.271 116.138C156.756 116.138 156.347 116.352 156.045 116.778C155.743 117.205 155.591 117.841 155.591 118.685C155.591 119.53 155.738 120.165 156.031 120.592C156.334 121.018 156.747 121.232 157.271 121.232ZM166.36 123.098C165.125 123.098 164.182 122.721 163.534 121.965C162.885 121.201 162.56 120.174 162.56 118.885C162.56 118.023 162.702 117.281 162.987 116.658C163.28 116.036 163.707 115.556 164.267 115.218C164.836 114.872 165.529 114.698 166.347 114.698C167.511 114.698 168.4 115.058 169.014 115.778C169.636 116.49 169.947 117.538 169.947 118.925V119.365H164.494C164.538 120.067 164.72 120.627 165.04 121.045C165.36 121.463 165.805 121.672 166.374 121.672C166.809 121.672 167.16 121.543 167.427 121.285C167.694 121.027 167.876 120.712 167.974 120.338H169.854C169.765 120.836 169.582 121.294 169.307 121.712C169.031 122.13 168.649 122.467 168.16 122.725C167.68 122.974 167.08 123.098 166.36 123.098ZM164.494 118.085H168.027C167.991 117.445 167.827 116.947 167.534 116.592C167.249 116.236 166.849 116.058 166.334 116.058C165.809 116.058 165.387 116.232 165.067 116.578C164.756 116.916 164.565 117.418 164.494 118.085ZM174.088 123.072C173.368 123.072 172.773 122.894 172.302 122.538C171.831 122.174 171.475 121.681 171.235 121.058C170.995 120.427 170.875 119.703 170.875 118.885C170.875 118.05 170.995 117.321 171.235 116.698C171.475 116.076 171.831 115.592 172.302 115.245C172.782 114.898 173.373 114.725 174.075 114.725C174.608 114.725 175.039 114.823 175.368 115.018C175.706 115.214 175.973 115.472 176.168 115.792H176.488V112.232H178.462V122.898H176.648V121.858H176.328C176.151 122.187 175.879 122.472 175.515 122.712C175.159 122.952 174.684 123.072 174.088 123.072ZM174.608 121.632C175.186 121.632 175.644 121.383 175.982 120.885C176.319 120.387 176.488 119.725 176.488 118.898C176.488 118.063 176.319 117.401 175.982 116.912C175.644 116.414 175.186 116.165 174.608 116.165C174.084 116.165 173.671 116.396 173.368 116.858C173.075 117.321 172.928 118.001 172.928 118.898C172.928 119.796 173.075 120.476 173.368 120.938C173.671 121.401 174.084 121.632 174.608 121.632ZM106.61 146.898V136.498H108.61V140.592H109.41L112.53 136.498H114.797V136.578L111.103 141.325L115.33 146.818V146.898H112.877L109.41 142.245H108.61V146.898H106.61ZM118.532 147.098C117.625 147.098 116.95 146.818 116.505 146.258C116.061 145.69 115.838 144.934 115.838 143.992V138.898H117.825V143.645C117.825 144.223 117.927 144.672 118.132 144.992C118.345 145.312 118.678 145.472 119.132 145.472C119.692 145.472 120.123 145.254 120.425 144.818C120.727 144.383 120.878 143.85 120.878 143.218V138.898H122.865V146.898H121.078V145.698H120.758C120.625 146.107 120.376 146.445 120.012 146.712C119.656 146.97 119.163 147.098 118.532 147.098ZM129.287 147.072C128.692 147.072 128.212 146.952 127.847 146.712C127.492 146.472 127.229 146.187 127.061 145.858H126.741V146.898H124.914V136.232H126.901V139.792H127.221C127.407 139.472 127.669 139.214 128.007 139.018C128.345 138.823 128.776 138.725 129.301 138.725C130.003 138.725 130.589 138.898 131.061 139.245C131.541 139.592 131.901 140.076 132.141 140.698C132.381 141.321 132.501 142.05 132.501 142.885C132.501 143.703 132.381 144.427 132.141 145.058C131.909 145.681 131.554 146.174 131.074 146.538C130.603 146.894 130.007 147.072 129.287 147.072ZM128.767 145.632C129.301 145.632 129.714 145.401 130.007 144.938C130.301 144.476 130.447 143.796 130.447 142.898C130.447 142.001 130.301 141.321 130.007 140.858C129.714 140.396 129.301 140.165 128.767 140.165C128.198 140.165 127.741 140.414 127.394 140.912C127.056 141.401 126.887 142.063 126.887 142.898C126.887 143.725 127.056 144.387 127.394 144.885C127.741 145.383 128.198 145.632 128.767 145.632ZM137.29 147.098C136.054 147.098 135.112 146.721 134.463 145.965C133.814 145.201 133.49 144.174 133.49 142.885C133.49 142.023 133.632 141.281 133.917 140.658C134.21 140.036 134.637 139.556 135.197 139.218C135.765 138.872 136.459 138.698 137.277 138.698C138.441 138.698 139.33 139.058 139.943 139.778C140.565 140.49 140.877 141.538 140.877 142.925V143.365H135.423C135.468 144.067 135.65 144.627 135.97 145.045C136.29 145.463 136.734 145.672 137.303 145.672C137.739 145.672 138.09 145.543 138.357 145.285C138.623 145.027 138.805 144.712 138.903 144.338H140.783C140.694 144.836 140.512 145.294 140.237 145.712C139.961 146.13 139.579 146.467 139.09 146.725C138.61 146.974 138.01 147.098 137.29 147.098ZM135.423 142.085H138.957C138.921 141.445 138.757 140.947 138.463 140.592C138.179 140.236 137.779 140.058 137.263 140.058C136.739 140.058 136.317 140.232 135.997 140.578C135.685 140.916 135.494 141.418 135.423 142.085ZM142.338 146.898V138.898H144.138V140.338H144.458C144.511 140.081 144.609 139.836 144.751 139.605C144.894 139.374 145.116 139.187 145.418 139.045C145.72 138.894 146.129 138.818 146.645 138.818H147.031V140.618H146.485C145.72 140.618 145.169 140.814 144.831 141.205C144.494 141.596 144.325 142.187 144.325 142.978V146.898H142.338ZM148.461 146.898V138.898H150.287V140.098H150.607C150.759 139.69 151.007 139.356 151.354 139.098C151.701 138.832 152.19 138.698 152.821 138.698C153.719 138.698 154.385 138.983 154.821 139.552C155.265 140.112 155.487 140.863 155.487 141.805V146.898H153.501V142.152C153.501 141.565 153.394 141.116 153.181 140.805C152.976 140.485 152.643 140.325 152.181 140.325C151.63 140.325 151.203 140.543 150.901 140.978C150.599 141.405 150.447 141.938 150.447 142.578V146.898H148.461ZM160.696 147.098C159.461 147.098 158.518 146.721 157.869 145.965C157.221 145.201 156.896 144.174 156.896 142.885C156.896 142.023 157.038 141.281 157.323 140.658C157.616 140.036 158.043 139.556 158.603 139.218C159.172 138.872 159.865 138.698 160.683 138.698C161.847 138.698 162.736 139.058 163.349 139.778C163.972 140.49 164.283 141.538 164.283 142.925V143.365H158.829C158.874 144.067 159.056 144.627 159.376 145.045C159.696 145.463 160.141 145.672 160.709 145.672C161.145 145.672 161.496 145.543 161.763 145.285C162.029 145.027 162.212 144.712 162.309 144.338H164.189C164.101 144.836 163.918 145.294 163.643 145.712C163.367 146.13 162.985 146.467 162.496 146.725C162.016 146.974 161.416 147.098 160.696 147.098ZM158.829 142.085H162.363C162.327 141.445 162.163 140.947 161.869 140.592C161.585 140.236 161.185 140.058 160.669 140.058C160.145 140.058 159.723 140.232 159.403 140.578C159.092 140.916 158.901 141.418 158.829 142.085ZM166.891 146.898C166.687 146.658 166.522 146.37 166.398 146.032C166.282 145.694 166.224 145.187 166.224 144.512V140.312H165.131V138.898H166.251V136.898H168.184V138.898H169.504V140.312H168.198V144.285C168.198 144.996 168.278 145.538 168.438 145.912C168.598 146.276 168.789 146.578 169.011 146.818V146.898H166.891ZM174.196 147.098C172.961 147.098 172.018 146.721 171.369 145.965C170.721 145.201 170.396 144.174 170.396 142.885C170.396 142.023 170.538 141.281 170.823 140.658C171.116 140.036 171.543 139.556 172.103 139.218C172.672 138.872 173.365 138.698 174.183 138.698C175.347 138.698 176.236 139.058 176.849 139.778C177.472 140.49 177.783 141.538 177.783 142.925V143.365H172.329C172.374 144.067 172.556 144.627 172.876 145.045C173.196 145.463 173.641 145.672 174.209 145.672C174.645 145.672 174.996 145.543 175.263 145.285C175.529 145.027 175.712 144.712 175.809 144.338H177.689C177.601 144.836 177.418 145.294 177.143 145.712C176.867 146.13 176.485 146.467 175.996 146.725C175.516 146.974 174.916 147.098 174.196 147.098ZM172.329 142.085H175.863C175.827 141.445 175.663 140.947 175.369 140.592C175.085 140.236 174.685 140.058 174.169 140.058C173.645 140.058 173.223 140.232 172.903 140.578C172.592 140.916 172.401 141.418 172.329 142.085ZM182.151 147.098C181.298 147.098 180.613 146.961 180.098 146.685C179.582 146.41 179.2 146.058 178.951 145.632C178.711 145.205 178.578 144.774 178.551 144.338H180.444C180.48 144.578 180.569 144.801 180.711 145.005C180.862 145.21 181.062 145.374 181.311 145.498C181.569 145.614 181.88 145.672 182.244 145.672C182.68 145.672 183 145.592 183.204 145.432C183.409 145.272 183.511 145.067 183.511 144.818C183.511 144.587 183.422 144.392 183.244 144.232C183.067 144.072 182.778 143.925 182.378 143.792L181.418 143.472C180.964 143.312 180.547 143.138 180.164 142.952C179.791 142.756 179.489 142.507 179.258 142.205C179.035 141.903 178.924 141.516 178.924 141.045C178.924 140.343 179.187 139.778 179.711 139.352C180.244 138.916 180.991 138.698 181.951 138.698C182.644 138.698 183.213 138.81 183.658 139.032C184.102 139.245 184.435 139.538 184.658 139.912C184.889 140.276 185.022 140.685 185.058 141.138H183.231C183.187 140.81 183.053 140.547 182.831 140.352C182.609 140.156 182.289 140.058 181.871 140.058C181.507 140.058 181.231 140.134 181.044 140.285C180.858 140.427 180.764 140.623 180.764 140.872C180.764 141.121 180.862 141.325 181.058 141.485C181.253 141.645 181.547 141.792 181.938 141.925L182.898 142.245C183.351 142.387 183.764 142.556 184.138 142.752C184.511 142.938 184.809 143.183 185.031 143.485C185.253 143.787 185.364 144.178 185.364 144.658C185.364 145.387 185.089 145.978 184.538 146.432C183.987 146.876 183.191 147.098 182.151 147.098Z" fill="#111827"/>
<rect x="94.7461" y="225.335" width="107.058" height="63.5715" fill="#FAFAFA"/>
<path d="M115.475 251.12V240.72H119.115L121.248 249.493H121.688L123.848 240.72H127.488V251.12H125.555V242.413H125.208L123.115 251.12H119.728L117.635 242.413H117.288V251.12H115.475ZM132.282 251.293C131.553 251.293 130.949 251.116 130.469 250.76C129.989 250.396 129.629 249.902 129.389 249.28C129.158 248.649 129.042 247.925 129.042 247.107C129.042 246.271 129.162 245.542 129.402 244.92C129.642 244.298 130.002 243.813 130.482 243.467C130.962 243.12 131.562 242.947 132.282 242.947C132.851 242.947 133.313 243.062 133.669 243.293C134.033 243.516 134.304 243.805 134.482 244.16H134.802V243.12H136.629V251.12H134.802V250.08H134.482C134.304 250.409 134.038 250.693 133.682 250.933C133.327 251.173 132.86 251.293 132.282 251.293ZM132.776 249.853C133.344 249.853 133.798 249.605 134.136 249.107C134.482 248.609 134.656 247.947 134.656 247.12C134.656 246.285 134.482 245.622 134.136 245.133C133.798 244.636 133.344 244.387 132.776 244.387C132.242 244.387 131.824 244.618 131.522 245.08C131.229 245.542 131.082 246.222 131.082 247.12C131.082 248.018 131.229 248.698 131.522 249.16C131.824 249.622 132.242 249.853 132.776 249.853ZM138.685 251.12V243.12H140.512V244.32H140.832C140.983 243.911 141.232 243.578 141.578 243.32C141.925 243.053 142.414 242.92 143.045 242.92C143.943 242.92 144.609 243.205 145.045 243.773C145.489 244.333 145.712 245.085 145.712 246.027V251.12H143.725V246.373C143.725 245.787 143.618 245.338 143.405 245.027C143.2 244.707 142.867 244.547 142.405 244.547C141.854 244.547 141.427 244.765 141.125 245.2C140.823 245.627 140.672 246.16 140.672 246.8V251.12H138.685ZM150.36 251.293C149.631 251.293 149.027 251.116 148.547 250.76C148.067 250.396 147.707 249.902 147.467 249.28C147.236 248.649 147.12 247.925 147.12 247.107C147.12 246.271 147.24 245.542 147.48 244.92C147.72 244.298 148.08 243.813 148.56 243.467C149.04 243.12 149.64 242.947 150.36 242.947C150.929 242.947 151.391 243.062 151.747 243.293C152.111 243.516 152.383 243.805 152.56 244.16H152.88V243.12H154.707V251.12H152.88V250.08H152.56C152.383 250.409 152.116 250.693 151.76 250.933C151.405 251.173 150.938 251.293 150.36 251.293ZM150.854 249.853C151.423 249.853 151.876 249.605 152.214 249.107C152.56 248.609 152.734 247.947 152.734 247.12C152.734 246.285 152.56 245.622 152.214 245.133C151.876 244.636 151.423 244.387 150.854 244.387C150.32 244.387 149.903 244.618 149.6 245.08C149.307 245.542 149.16 246.222 149.16 247.12C149.16 248.018 149.307 248.698 149.6 249.16C149.903 249.622 150.32 249.853 150.854 249.853ZM160.056 253.987C159.354 253.987 158.781 253.898 158.336 253.72C157.901 253.551 157.559 253.333 157.31 253.067C157.07 252.809 156.896 252.538 156.79 252.253C156.683 251.978 156.621 251.725 156.603 251.493H158.536C158.581 251.769 158.714 252.013 158.936 252.227C159.168 252.449 159.541 252.56 160.056 252.56C160.625 252.56 161.056 252.391 161.35 252.053C161.652 251.725 161.803 251.24 161.803 250.6V249.667H161.483C161.35 250.04 161.114 250.338 160.776 250.56C160.439 250.782 159.99 250.893 159.43 250.893C158.399 250.893 157.608 250.533 157.056 249.813C156.505 249.085 156.23 248.111 156.23 246.893C156.23 246.111 156.35 245.422 156.59 244.827C156.839 244.222 157.199 243.756 157.67 243.427C158.15 243.089 158.745 242.92 159.456 242.92C160.016 242.92 160.461 243.031 160.79 243.253C161.128 243.467 161.376 243.747 161.536 244.093H161.856V243.12H163.683V250.56C163.683 251.653 163.381 252.498 162.776 253.093C162.181 253.689 161.274 253.987 160.056 253.987ZM159.91 249.453C160.479 249.453 160.919 249.222 161.23 248.76C161.55 248.289 161.71 247.671 161.71 246.907C161.71 246.125 161.55 245.507 161.23 245.053C160.91 244.591 160.47 244.36 159.91 244.36C159.394 244.36 158.985 244.573 158.683 245C158.381 245.427 158.23 246.062 158.23 246.907C158.23 247.751 158.376 248.387 158.67 248.813C158.972 249.24 159.385 249.453 159.91 249.453ZM168.998 251.32C167.763 251.32 166.821 250.942 166.172 250.187C165.523 249.422 165.198 248.396 165.198 247.107C165.198 246.245 165.341 245.502 165.625 244.88C165.918 244.258 166.345 243.778 166.905 243.44C167.474 243.093 168.167 242.92 168.985 242.92C170.15 242.92 171.038 243.28 171.652 244C172.274 244.711 172.585 245.76 172.585 247.147V247.587H167.132C167.176 248.289 167.358 248.849 167.678 249.267C167.998 249.685 168.443 249.893 169.012 249.893C169.447 249.893 169.798 249.765 170.065 249.507C170.332 249.249 170.514 248.933 170.612 248.56H172.492C172.403 249.058 172.221 249.516 171.945 249.933C171.67 250.351 171.287 250.689 170.798 250.947C170.318 251.196 169.718 251.32 168.998 251.32ZM167.132 246.307H170.665C170.63 245.667 170.465 245.169 170.172 244.813C169.887 244.458 169.487 244.28 168.972 244.28C168.447 244.28 168.025 244.453 167.705 244.8C167.394 245.138 167.203 245.64 167.132 246.307ZM176.727 251.293C176.007 251.293 175.411 251.116 174.94 250.76C174.469 250.396 174.113 249.902 173.873 249.28C173.633 248.649 173.513 247.925 173.513 247.107C173.513 246.271 173.633 245.542 173.873 244.92C174.113 244.298 174.469 243.813 174.94 243.467C175.42 243.12 176.011 242.947 176.713 242.947C177.247 242.947 177.678 243.045 178.007 243.24C178.344 243.436 178.611 243.693 178.807 244.013H179.127V240.453H181.1V251.12H179.287V250.08H178.967C178.789 250.409 178.518 250.693 178.153 250.933C177.798 251.173 177.322 251.293 176.727 251.293ZM177.247 249.853C177.824 249.853 178.282 249.605 178.62 249.107C178.958 248.609 179.127 247.947 179.127 247.12C179.127 246.285 178.958 245.622 178.62 245.133C178.282 244.636 177.824 244.387 177.247 244.387C176.722 244.387 176.309 244.618 176.007 245.08C175.713 245.542 175.567 246.222 175.567 247.12C175.567 248.018 175.713 248.698 176.007 249.16C176.309 249.622 176.722 249.853 177.247 249.853ZM115.395 275.12V264.72H117.448V275.12H115.395ZM119.544 275.12V267.12H121.371V268.32H121.691C121.842 267.911 122.091 267.578 122.438 267.32C122.784 267.053 123.273 266.92 123.904 266.92C124.802 266.92 125.469 267.205 125.904 267.773C126.349 268.333 126.571 269.085 126.571 270.027V275.12H124.584V270.373C124.584 269.787 124.478 269.338 124.264 269.027C124.06 268.707 123.727 268.547 123.264 268.547C122.713 268.547 122.287 268.765 121.984 269.2C121.682 269.627 121.531 270.16 121.531 270.8V275.12H119.544ZM131.406 275.32C130.553 275.32 129.869 275.182 129.353 274.907C128.838 274.631 128.455 274.28 128.206 273.853C127.966 273.427 127.833 272.996 127.806 272.56H129.7C129.735 272.8 129.824 273.022 129.966 273.227C130.118 273.431 130.318 273.596 130.566 273.72C130.824 273.836 131.135 273.893 131.5 273.893C131.935 273.893 132.255 273.813 132.46 273.653C132.664 273.493 132.766 273.289 132.766 273.04C132.766 272.809 132.678 272.613 132.5 272.453C132.322 272.293 132.033 272.147 131.633 272.013L130.673 271.693C130.22 271.533 129.802 271.36 129.42 271.173C129.046 270.978 128.744 270.729 128.513 270.427C128.291 270.125 128.18 269.738 128.18 269.267C128.18 268.565 128.442 268 128.966 267.573C129.5 267.138 130.246 266.92 131.206 266.92C131.9 266.92 132.469 267.031 132.913 267.253C133.358 267.467 133.691 267.76 133.913 268.133C134.144 268.498 134.278 268.907 134.313 269.36H132.486C132.442 269.031 132.309 268.769 132.086 268.573C131.864 268.378 131.544 268.28 131.126 268.28C130.762 268.28 130.486 268.356 130.3 268.507C130.113 268.649 130.02 268.845 130.02 269.093C130.02 269.342 130.118 269.547 130.313 269.707C130.509 269.867 130.802 270.013 131.193 270.147L132.153 270.467C132.606 270.609 133.02 270.778 133.393 270.973C133.766 271.16 134.064 271.405 134.286 271.707C134.509 272.009 134.62 272.4 134.62 272.88C134.62 273.609 134.344 274.2 133.793 274.653C133.242 275.098 132.446 275.32 131.406 275.32ZM137.146 275.12C136.942 274.88 136.778 274.591 136.653 274.253C136.538 273.916 136.48 273.409 136.48 272.733V268.533H135.386V267.12H136.506V265.12H138.44V267.12H139.76V268.533H138.453V272.507C138.453 273.218 138.533 273.76 138.693 274.133C138.853 274.498 139.044 274.8 139.266 275.04V275.12H137.146ZM143.892 275.293C143.163 275.293 142.558 275.116 142.078 274.76C141.598 274.396 141.238 273.902 140.998 273.28C140.767 272.649 140.652 271.925 140.652 271.107C140.652 270.271 140.772 269.542 141.012 268.92C141.252 268.298 141.612 267.813 142.092 267.467C142.572 267.12 143.172 266.947 143.892 266.947C144.46 266.947 144.923 267.062 145.278 267.293C145.643 267.516 145.914 267.805 146.092 268.16H146.412V267.12H148.238V275.12H146.412V274.08H146.092C145.914 274.409 145.647 274.693 145.292 274.933C144.936 275.173 144.469 275.293 143.892 275.293ZM144.385 273.853C144.954 273.853 145.407 273.605 145.745 273.107C146.092 272.609 146.265 271.947 146.265 271.12C146.265 270.285 146.092 269.622 145.745 269.133C145.407 268.636 144.954 268.387 144.385 268.387C143.852 268.387 143.434 268.618 143.132 269.08C142.838 269.542 142.692 270.222 142.692 271.12C142.692 272.018 142.838 272.698 143.132 273.16C143.434 273.622 143.852 273.853 144.385 273.853ZM150.294 275.12V267.12H152.121V268.32H152.441C152.592 267.911 152.841 267.578 153.188 267.32C153.534 267.053 154.023 266.92 154.654 266.92C155.552 266.92 156.219 267.205 156.654 267.773C157.099 268.333 157.321 269.085 157.321 270.027V275.12H155.334V270.373C155.334 269.787 155.228 269.338 155.014 269.027C154.81 268.707 154.477 268.547 154.014 268.547C153.463 268.547 153.037 268.765 152.734 269.2C152.432 269.627 152.281 270.16 152.281 270.8V275.12H150.294ZM162.45 275.32C161.232 275.32 160.308 274.942 159.676 274.187C159.045 273.422 158.73 272.4 158.73 271.12C158.73 269.778 159.059 268.742 159.716 268.013C160.383 267.285 161.299 266.92 162.463 266.92C163.494 266.92 164.308 267.196 164.903 267.747C165.499 268.298 165.854 269.053 165.97 270.013H164.023C163.961 269.48 163.796 269.071 163.53 268.787C163.263 268.493 162.916 268.347 162.49 268.347C161.93 268.347 161.503 268.591 161.21 269.08C160.916 269.56 160.77 270.24 160.77 271.12C160.77 272 160.912 272.68 161.196 273.16C161.49 273.64 161.916 273.88 162.476 273.88C162.912 273.88 163.263 273.738 163.53 273.453C163.796 273.16 163.961 272.747 164.023 272.213H165.97C165.845 273.173 165.481 273.933 164.876 274.493C164.281 275.045 163.472 275.32 162.45 275.32ZM170.702 275.32C169.466 275.32 168.524 274.942 167.875 274.187C167.226 273.422 166.902 272.396 166.902 271.107C166.902 270.245 167.044 269.502 167.328 268.88C167.622 268.258 168.048 267.778 168.608 267.44C169.177 267.093 169.87 266.92 170.688 266.92C171.853 266.92 172.742 267.28 173.355 268C173.977 268.711 174.288 269.76 174.288 271.147V271.587H168.835C168.879 272.289 169.062 272.849 169.382 273.267C169.702 273.685 170.146 273.893 170.715 273.893C171.15 273.893 171.502 273.765 171.768 273.507C172.035 273.249 172.217 272.933 172.315 272.56H174.195C174.106 273.058 173.924 273.516 173.648 273.933C173.373 274.351 172.99 274.689 172.502 274.947C172.022 275.196 171.422 275.32 170.702 275.32ZM168.835 270.307H172.368C172.333 269.667 172.168 269.169 171.875 268.813C171.59 268.458 171.19 268.28 170.675 268.28C170.15 268.28 169.728 268.453 169.408 268.8C169.097 269.138 168.906 269.64 168.835 270.307ZM178.656 275.32C177.803 275.32 177.119 275.182 176.603 274.907C176.088 274.631 175.705 274.28 175.456 273.853C175.216 273.427 175.083 272.996 175.056 272.56H176.95C176.985 272.8 177.074 273.022 177.216 273.227C177.368 273.431 177.568 273.596 177.816 273.72C178.074 273.836 178.385 273.893 178.75 273.893C179.185 273.893 179.505 273.813 179.71 273.653C179.914 273.493 180.016 273.289 180.016 273.04C180.016 272.809 179.928 272.613 179.75 272.453C179.572 272.293 179.283 272.147 178.883 272.013L177.923 271.693C177.47 271.533 177.052 271.36 176.67 271.173C176.296 270.978 175.994 270.729 175.763 270.427C175.541 270.125 175.43 269.738 175.43 269.267C175.43 268.565 175.692 268 176.216 267.573C176.75 267.138 177.496 266.92 178.456 266.92C179.15 266.92 179.719 267.031 180.163 267.253C180.608 267.467 180.941 267.76 181.163 268.133C181.394 268.498 181.528 268.907 181.563 269.36H179.736C179.692 269.031 179.559 268.769 179.336 268.573C179.114 268.378 178.794 268.28 178.376 268.28C178.012 268.28 177.736 268.356 177.55 268.507C177.363 268.649 177.27 268.845 177.27 269.093C177.27 269.342 177.368 269.547 177.563 269.707C177.759 269.867 178.052 270.013 178.443 270.147L179.403 270.467C179.856 270.609 180.27 270.778 180.643 270.973C181.016 271.16 181.314 271.405 181.536 271.707C181.759 272.009 181.87 272.4 181.87 272.88C181.87 273.609 181.594 274.2 181.043 274.653C180.492 275.098 179.696 275.32 178.656 275.32Z" fill="#111827"/>
<rect x="597.595" y="159.852" width="107.529" height="62.9785" fill="#FAFAFA"/>
<path d="M611.728 187.328V178.228H614.901C616.504 178.228 617.666 178.629 618.39 179.43C619.113 180.223 619.475 181.339 619.475 182.778C619.475 184.217 619.113 185.337 618.39 186.138C617.666 186.931 616.504 187.328 614.901 187.328H611.728ZM613.525 185.916H614.785C615.43 185.916 615.963 185.819 616.383 185.625C616.803 185.423 617.114 185.092 617.316 184.633C617.526 184.174 617.631 183.556 617.631 182.778C617.631 182 617.526 181.382 617.316 180.923C617.114 180.464 616.803 180.138 616.383 179.943C615.963 179.741 615.43 179.64 614.785 179.64H613.525V185.916ZM623.616 187.503C622.535 187.503 621.71 187.173 621.142 186.511C620.575 185.843 620.291 184.944 620.291 183.816C620.291 183.062 620.415 182.413 620.664 181.868C620.921 181.324 621.294 180.904 621.784 180.608C622.282 180.305 622.885 180.153 623.592 180.153C624.619 180.153 625.401 180.468 625.937 181.098C626.482 181.72 626.754 182.638 626.754 183.851V184.236H621.971C622.01 184.859 622.169 185.353 622.449 185.718C622.729 186.076 623.118 186.255 623.616 186.255C624.005 186.255 624.316 186.142 624.549 185.916C624.782 185.691 624.942 185.415 625.027 185.088H626.672C626.595 185.531 626.435 185.936 626.194 186.301C625.953 186.659 625.619 186.951 625.191 187.176C624.771 187.394 624.246 187.503 623.616 187.503ZM621.982 183.128H625.074C625.043 182.56 624.899 182.121 624.642 181.81C624.394 181.499 624.04 181.343 623.581 181.343C623.122 181.343 622.756 181.495 622.484 181.798C622.212 182.094 622.045 182.537 621.982 183.128ZM629.228 187.328L627.186 180.398V180.328H628.925L630.5 185.916H630.78L632.355 180.328H633.953V180.398L631.911 187.328H629.228ZM637.862 187.503C636.781 187.503 635.956 187.173 635.389 186.511C634.821 185.843 634.537 184.944 634.537 183.816C634.537 183.062 634.661 182.413 634.91 181.868C635.167 181.324 635.54 180.904 636.03 180.608C636.528 180.305 637.131 180.153 637.839 180.153C638.865 180.153 639.647 180.468 640.184 181.098C640.728 181.72 641 182.638 641 183.851V184.236H636.217C636.256 184.859 636.415 185.353 636.695 185.718C636.975 186.076 637.364 186.255 637.862 186.255C638.251 186.255 638.562 186.142 638.795 185.916C639.029 185.691 639.188 185.415 639.274 185.088H640.919C640.841 185.531 640.681 185.936 640.44 186.301C640.199 186.659 639.865 186.951 639.437 187.176C639.017 187.394 638.492 187.503 637.862 187.503ZM636.229 183.128H639.32C639.289 182.56 639.145 182.121 638.889 181.81C638.64 181.499 638.286 181.343 637.827 181.343C637.368 181.343 637.002 181.495 636.73 181.798C636.458 182.094 636.291 182.537 636.229 183.128ZM642.851 187.328C642.641 187.087 642.489 186.815 642.396 186.511C642.302 186.2 642.256 185.776 642.256 185.24V177.995H643.994V185.053C643.994 185.652 644.06 186.115 644.192 186.441C644.325 186.768 644.496 187.04 644.706 187.258V187.328H642.851ZM648.75 187.503C647.615 187.503 646.767 187.173 646.207 186.511C645.655 185.843 645.379 184.948 645.379 183.828C645.379 182.708 645.655 181.818 646.207 181.156C646.767 180.488 647.615 180.153 648.75 180.153C649.886 180.153 650.734 180.488 651.294 181.156C651.854 181.818 652.134 182.708 652.134 183.828C652.134 184.948 651.854 185.843 651.294 186.511C650.734 187.173 649.886 187.503 648.75 187.503ZM648.75 186.301C649.303 186.301 649.703 186.091 649.952 185.671C650.209 185.251 650.337 184.637 650.337 183.828C650.337 183.019 650.209 182.405 649.952 181.985C649.703 181.565 649.303 181.355 648.75 181.355C648.206 181.355 647.805 181.565 647.549 181.985C647.292 182.405 647.164 183.019 647.164 183.828C647.164 184.637 647.292 185.251 647.549 185.671C647.805 186.091 648.206 186.301 648.75 186.301ZM653.447 189.661V180.328H655.034V181.238H655.314C655.469 180.95 655.702 180.701 656.014 180.491C656.332 180.281 656.752 180.176 657.274 180.176C657.904 180.176 658.425 180.332 658.837 180.643C659.249 180.954 659.56 181.386 659.77 181.938C659.98 182.483 660.085 183.116 660.085 183.84C660.085 184.563 659.98 185.201 659.77 185.753C659.56 186.298 659.245 186.721 658.825 187.025C658.413 187.328 657.9 187.48 657.285 187.48C656.826 187.48 656.449 187.394 656.154 187.223C655.858 187.052 655.625 186.823 655.454 186.535H655.174V189.661H653.447ZM656.819 186.22C657.285 186.22 657.647 186.018 657.904 185.613C658.16 185.209 658.289 184.614 658.289 183.828C658.289 183.043 658.16 182.448 657.904 182.043C657.647 181.639 657.285 181.436 656.819 181.436C656.313 181.436 655.912 181.654 655.617 182.09C655.321 182.518 655.174 183.097 655.174 183.828C655.174 184.559 655.321 185.143 655.617 185.578C655.912 186.006 656.313 186.22 656.819 186.22ZM661.404 187.328V180.328H662.991V181.378H663.271C663.403 181.028 663.613 180.736 663.901 180.503C664.196 180.27 664.608 180.153 665.137 180.153C665.619 180.153 666.02 180.262 666.339 180.48C666.666 180.698 666.911 180.997 667.074 181.378H667.354C667.494 181.02 667.716 180.729 668.019 180.503C668.322 180.27 668.731 180.153 669.244 180.153C670.006 180.153 670.57 180.402 670.936 180.9C671.301 181.39 671.484 182.047 671.484 182.871V187.328H669.757V183.175C669.757 182.669 669.672 182.276 669.501 181.996C669.337 181.716 669.069 181.576 668.696 181.576C668.244 181.576 667.898 181.767 667.657 182.148C667.424 182.529 667.307 182.996 667.307 183.548V187.328H665.581V183.175C665.581 182.669 665.495 182.276 665.324 181.996C665.161 181.716 664.896 181.576 664.531 181.576C664.079 181.576 663.733 181.767 663.492 182.148C663.251 182.529 663.131 182.996 663.131 183.548V187.328H661.404ZM676.047 187.503C674.966 187.503 674.142 187.173 673.574 186.511C673.006 185.843 672.722 184.944 672.722 183.816C672.722 183.062 672.847 182.413 673.096 181.868C673.352 181.324 673.726 180.904 674.216 180.608C674.714 180.305 675.316 180.153 676.024 180.153C677.051 180.153 677.832 180.468 678.369 181.098C678.914 181.72 679.186 182.638 679.186 183.851V184.236H674.402C674.441 184.859 674.601 185.353 674.881 185.718C675.161 186.076 675.55 186.255 676.047 186.255C676.436 186.255 676.747 186.142 676.981 185.916C677.214 185.691 677.374 185.415 677.459 185.088H679.104C679.026 185.531 678.867 185.936 678.626 186.301C678.385 186.659 678.05 186.951 677.622 187.176C677.202 187.394 676.677 187.503 676.047 187.503ZM674.414 183.128H677.506C677.475 182.56 677.331 182.121 677.074 181.81C676.825 181.499 676.471 181.343 676.012 181.343C675.554 181.343 675.188 181.495 674.916 181.798C674.644 182.094 674.476 182.537 674.414 183.128ZM680.476 187.328V180.328H682.063V181.378H682.343C682.483 181.02 682.701 180.729 682.996 180.503C683.3 180.27 683.727 180.153 684.28 180.153C685.073 180.153 685.66 180.402 686.041 180.9C686.422 181.39 686.613 182.047 686.613 182.871V187.328H684.886V183.175C684.886 182.661 684.793 182.269 684.606 181.996C684.427 181.716 684.136 181.576 683.731 181.576C683.249 181.576 682.872 181.767 682.6 182.148C682.335 182.521 682.203 182.988 682.203 183.548V187.328H680.476ZM689.302 187.328C689.123 187.118 688.979 186.865 688.87 186.57C688.769 186.274 688.719 185.831 688.719 185.24V181.565H687.762V180.328H688.742V178.578H690.434V180.328H691.577V181.565H690.445V185.041C690.445 185.664 690.511 186.138 690.644 186.465C690.784 186.784 690.951 187.048 691.145 187.258V187.328H689.302ZM625.566 207.503C624.267 207.503 623.256 207.087 622.532 206.255C621.809 205.423 621.447 204.264 621.447 202.778C621.447 201.3 621.805 200.145 622.521 199.313C623.236 198.473 624.247 198.053 625.554 198.053C626.339 198.053 627.012 198.201 627.572 198.496C628.132 198.784 628.568 199.189 628.879 199.71C629.198 200.231 629.388 200.834 629.451 201.518H627.654C627.592 200.865 627.374 200.351 627.001 199.978C626.635 199.605 626.157 199.418 625.566 199.418C624.819 199.418 624.255 199.714 623.874 200.305C623.493 200.888 623.302 201.716 623.302 202.79C623.302 203.894 623.497 204.73 623.886 205.298C624.282 205.858 624.838 206.138 625.554 206.138C626.176 206.138 626.666 205.944 627.024 205.555C627.389 205.166 627.599 204.66 627.654 204.038H629.451C629.388 204.715 629.198 205.318 628.879 205.846C628.568 206.368 628.132 206.776 627.572 207.071C627.02 207.359 626.351 207.503 625.566 207.503ZM633.575 207.503C632.439 207.503 631.591 207.173 631.031 206.511C630.479 205.843 630.203 204.948 630.203 203.828C630.203 202.708 630.479 201.818 631.031 201.156C631.591 200.488 632.439 200.153 633.575 200.153C634.71 200.153 635.558 200.488 636.118 201.156C636.678 201.818 636.958 202.708 636.958 203.828C636.958 204.948 636.678 205.843 636.118 206.511C635.558 207.173 634.71 207.503 633.575 207.503ZM633.575 206.301C634.127 206.301 634.527 206.091 634.776 205.671C635.033 205.251 635.161 204.637 635.161 203.828C635.161 203.019 635.033 202.405 634.776 201.985C634.527 201.565 634.127 201.355 633.575 201.355C633.03 201.355 632.63 201.565 632.373 201.985C632.116 202.405 631.988 203.019 631.988 203.828C631.988 204.637 632.116 205.251 632.373 205.671C632.63 206.091 633.03 206.301 633.575 206.301ZM638.271 207.328V200.328H639.858V201.378H640.138C640.278 201.02 640.496 200.729 640.791 200.503C641.094 200.27 641.522 200.153 642.074 200.153C642.868 200.153 643.455 200.402 643.836 200.9C644.217 201.39 644.408 202.047 644.408 202.871V207.328H642.681V203.175C642.681 202.661 642.588 202.269 642.401 201.996C642.222 201.716 641.931 201.576 641.526 201.576C641.044 201.576 640.667 201.767 640.394 202.148C640.13 202.521 639.998 202.988 639.998 203.548V207.328H638.271ZM647.097 207.328C646.918 207.118 646.774 206.865 646.665 206.57C646.564 206.274 646.513 205.831 646.513 205.24V201.565H645.557V200.328H646.537V198.578H648.228V200.328H649.372V201.565H648.24V205.041C648.24 205.664 648.306 206.138 648.438 206.465C648.578 206.784 648.746 207.048 648.94 207.258V207.328H647.097ZM652.985 207.48C652.347 207.48 651.818 207.324 651.398 207.013C650.978 206.702 650.663 206.27 650.453 205.718C650.251 205.166 650.15 204.532 650.15 203.816C650.15 203.085 650.255 202.448 650.465 201.903C650.675 201.359 650.99 200.935 651.41 200.631C651.83 200.328 652.355 200.176 652.985 200.176C653.483 200.176 653.887 200.278 654.198 200.48C654.517 200.674 654.755 200.927 654.91 201.238H655.19V200.328H656.777V207.328H655.19V206.418H654.91C654.755 206.706 654.521 206.955 654.21 207.165C653.899 207.375 653.491 207.48 652.985 207.48ZM653.405 206.22C653.911 206.22 654.311 206.006 654.607 205.578C654.91 205.143 655.062 204.559 655.062 203.828C655.062 203.097 654.91 202.518 654.607 202.09C654.311 201.654 653.911 201.436 653.405 201.436C652.946 201.436 652.585 201.639 652.32 202.043C652.063 202.448 651.935 203.043 651.935 203.828C651.935 204.614 652.063 205.209 652.32 205.613C652.585 206.018 652.946 206.22 653.405 206.22ZM658.574 207.328V200.328H660.301V207.328H658.574ZM659.437 199.476C659.126 199.476 658.889 199.395 658.726 199.231C658.562 199.06 658.481 198.843 658.481 198.578C658.481 198.314 658.562 198.1 658.726 197.936C658.889 197.765 659.126 197.68 659.437 197.68C659.748 197.68 659.986 197.765 660.149 197.936C660.312 198.1 660.394 198.314 660.394 198.578C660.394 198.843 660.312 199.06 660.149 199.231C659.986 199.395 659.748 199.476 659.437 199.476ZM662.101 207.328V200.328H663.688V201.378H663.968C664.108 201.02 664.326 200.729 664.621 200.503C664.925 200.27 665.352 200.153 665.905 200.153C666.698 200.153 667.285 200.402 667.666 200.9C668.047 201.39 668.238 202.047 668.238 202.871V207.328H666.511V203.175C666.511 202.661 666.418 202.269 666.231 201.996C666.052 201.716 665.761 201.576 665.356 201.576C664.874 201.576 664.497 201.767 664.225 202.148C663.96 202.521 663.828 202.988 663.828 203.548V207.328H662.101ZM672.794 207.503C671.712 207.503 670.888 207.173 670.32 206.511C669.752 205.843 669.469 204.944 669.469 203.816C669.469 203.062 669.593 202.413 669.842 201.868C670.099 201.324 670.472 200.904 670.962 200.608C671.46 200.305 672.062 200.153 672.77 200.153C673.797 200.153 674.579 200.468 675.115 201.098C675.66 201.72 675.932 202.638 675.932 203.851V204.236H671.149C671.187 204.859 671.347 205.353 671.627 205.718C671.907 206.076 672.296 206.255 672.794 206.255C673.182 206.255 673.494 206.142 673.727 205.916C673.96 205.691 674.12 205.415 674.205 205.088H675.85C675.772 205.531 675.613 205.936 675.372 206.301C675.131 206.659 674.796 206.951 674.369 207.176C673.949 207.394 673.424 207.503 672.794 207.503ZM671.16 203.128H674.252C674.221 202.56 674.077 202.121 673.82 201.81C673.571 201.499 673.217 201.343 672.759 201.343C672.3 201.343 671.934 201.495 671.662 201.798C671.39 202.094 671.222 202.537 671.16 203.128ZM677.211 207.328V200.328H678.786V201.588H679.066C679.112 201.363 679.198 201.149 679.322 200.946C679.447 200.744 679.641 200.581 679.906 200.456C680.17 200.324 680.524 200.258 680.967 200.258H681.306V201.833H680.839C680.17 201.833 679.684 202.004 679.381 202.346C679.085 202.689 678.937 203.206 678.937 203.898V207.328H677.211Z" fill="#111827"/>
<rect x="0.875977" y="33.4355" width="106.419" height="62.8221" fill="#FAFAFA"/>
<path d="M25.8552 58.8467V48.4467H32.8419V50.0733H27.8819V52.54H31.7219V54.06H27.8819V57.2067H32.9219V58.8467H25.8552ZM33.7275 58.8467V58.7667L36.1942 54.66L33.9942 50.9267V50.8467H36.1409L37.5142 53.3267H37.8075L39.1409 50.8467H41.1142V50.9267L39.0209 54.62L41.4475 58.7667V58.8467H39.2609L37.6475 55.9267H37.3542L35.7675 58.8467H33.7275ZM43.7767 58.8467C43.5723 58.6067 43.4078 58.3178 43.2834 57.98C43.1678 57.6422 43.11 57.1356 43.11 56.46V52.26H42.0167V50.8467H43.1367V48.8467H45.07V50.8467H46.39V52.26H45.0834V56.2333C45.0834 56.9445 45.1634 57.4867 45.3234 57.86C45.4834 58.2245 45.6745 58.5267 45.8967 58.7667V58.8467H43.7767ZM51.0819 59.0467C49.8464 59.0467 48.9041 58.6689 48.2552 57.9133C47.6064 57.1489 47.2819 56.1222 47.2819 54.8333C47.2819 53.9711 47.4241 53.2289 47.7086 52.6067C48.0019 51.9845 48.4286 51.5045 48.9886 51.1667C49.5575 50.82 50.2508 50.6467 51.0686 50.6467C52.233 50.6467 53.1219 51.0067 53.7352 51.7267C54.3575 52.4378 54.6686 53.4867 54.6686 54.8733V55.3133H49.2152C49.2597 56.0156 49.4419 56.5756 49.7619 56.9933C50.0819 57.4111 50.5264 57.62 51.0952 57.62C51.5308 57.62 51.8819 57.4911 52.1486 57.2333C52.4152 56.9756 52.5975 56.66 52.6952 56.2867H54.5752C54.4864 56.7845 54.3041 57.2422 54.0286 57.66C53.753 58.0778 53.3708 58.4156 52.8819 58.6733C52.4019 58.9222 51.8019 59.0467 51.0819 59.0467ZM49.2152 54.0333H52.7486C52.713 53.3933 52.5486 52.8956 52.2552 52.54C51.9708 52.1845 51.5708 52.0067 51.0552 52.0067C50.5308 52.0067 50.1086 52.18 49.7886 52.5267C49.4775 52.8645 49.2864 53.3667 49.2152 54.0333ZM56.13 58.8467V50.8467H57.93V52.2867H58.25C58.3034 52.0289 58.4011 51.7845 58.5434 51.5533C58.6856 51.3222 58.9078 51.1356 59.21 50.9933C59.5123 50.8422 59.9211 50.7667 60.4367 50.7667H60.8234V52.5667H60.2767C59.5123 52.5667 58.9611 52.7622 58.6234 53.1533C58.2856 53.5445 58.1167 54.1356 58.1167 54.9267V58.8467H56.13ZM62.2527 58.8467V50.8467H64.0794V52.0467H64.3994C64.5505 51.6378 64.7994 51.3045 65.1461 51.0467C65.4927 50.78 65.9816 50.6467 66.6127 50.6467C67.5105 50.6467 68.1772 50.9311 68.6127 51.5C69.0572 52.06 69.2794 52.8111 69.2794 53.7533V58.8467H67.2927V54.1C67.2927 53.5133 67.1861 53.0645 66.9727 52.7533C66.7683 52.4333 66.435 52.2733 65.9727 52.2733C65.4216 52.2733 64.995 52.4911 64.6927 52.9267C64.3905 53.3533 64.2394 53.8867 64.2394 54.5267V58.8467H62.2527ZM73.9282 59.02C73.1993 59.02 72.5948 58.8422 72.1148 58.4867C71.6348 58.1222 71.2748 57.6289 71.0348 57.0067C70.8037 56.3756 70.6882 55.6511 70.6882 54.8333C70.6882 53.9978 70.8082 53.2689 71.0482 52.6467C71.2882 52.0245 71.6482 51.54 72.1282 51.1933C72.6082 50.8467 73.2082 50.6733 73.9282 50.6733C74.497 50.6733 74.9593 50.7889 75.3148 51.02C75.6793 51.2422 75.9504 51.5311 76.1282 51.8867H76.4482V50.8467H78.2748V58.8467H76.4482V57.8067H76.1282C75.9504 58.1356 75.6837 58.42 75.3282 58.66C74.9726 58.9 74.5059 59.02 73.9282 59.02ZM74.4215 57.58C74.9904 57.58 75.4437 57.3311 75.7815 56.8333C76.1282 56.3356 76.3015 55.6733 76.3015 54.8467C76.3015 54.0111 76.1282 53.3489 75.7815 52.86C75.4437 52.3622 74.9904 52.1133 74.4215 52.1133C73.8882 52.1133 73.4704 52.3445 73.1682 52.8067C72.8748 53.2689 72.7282 53.9489 72.7282 54.8467C72.7282 55.7445 72.8748 56.4245 73.1682 56.8867C73.4704 57.3489 73.8882 57.58 74.4215 57.58ZM80.9709 58.8467C80.7309 58.5711 80.5575 58.2556 80.4509 57.9C80.3442 57.5445 80.2909 57.0645 80.2909 56.46V48.18H82.2775V56.2467C82.2775 56.9311 82.3531 57.46 82.5042 57.8333C82.6553 58.1978 82.8509 58.5089 83.0909 58.7667V58.8467H80.9709ZM15.0584 82.8467V72.4467H17.0584V76.54H17.8584L20.9784 72.4467H23.245V72.5267L19.5517 77.2733L23.7784 82.7667V82.8467H21.325L17.8584 78.1933H17.0584V82.8467H15.0584ZM26.98 83.0467C26.0734 83.0467 25.3978 82.7667 24.9534 82.2067C24.5089 81.6378 24.2867 80.8822 24.2867 79.94V74.8467H26.2734V79.5933C26.2734 80.1711 26.3756 80.62 26.58 80.94C26.7934 81.26 27.1267 81.42 27.58 81.42C28.14 81.42 28.5711 81.2022 28.8734 80.7667C29.1756 80.3311 29.3267 79.7978 29.3267 79.1667V74.8467H31.3134V82.8467H29.5267V81.6467H29.2067C29.0734 82.0556 28.8245 82.3933 28.46 82.66C28.1045 82.9178 27.6111 83.0467 26.98 83.0467ZM37.7354 83.02C37.1399 83.02 36.6599 82.9 36.2954 82.66C35.9399 82.42 35.6777 82.1356 35.5088 81.8067H35.1888V82.8467H33.3621V72.18H35.3488V75.74H35.6688C35.8554 75.42 36.1177 75.1622 36.4554 74.9667C36.7932 74.7711 37.2243 74.6733 37.7488 74.6733C38.451 74.6733 39.0377 74.8467 39.5088 75.1933C39.9888 75.54 40.3488 76.0245 40.5888 76.6467C40.8288 77.2689 40.9488 77.9978 40.9488 78.8333C40.9488 79.6511 40.8288 80.3756 40.5888 81.0067C40.3577 81.6289 40.0021 82.1222 39.5221 82.4867C39.051 82.8422 38.4554 83.02 37.7354 83.02ZM37.2154 81.58C37.7488 81.58 38.1621 81.3489 38.4554 80.8867C38.7488 80.4245 38.8954 79.7445 38.8954 78.8467C38.8954 77.9489 38.7488 77.2689 38.4554 76.8067C38.1621 76.3445 37.7488 76.1133 37.2154 76.1133C36.6466 76.1133 36.1888 76.3622 35.8421 76.86C35.5043 77.3489 35.3354 78.0111 35.3354 78.8467C35.3354 79.6733 35.5043 80.3356 35.8421 80.8333C36.1888 81.3311 36.6466 81.58 37.2154 81.58ZM45.7382 83.0467C44.5026 83.0467 43.5604 82.6689 42.9115 81.9133C42.2626 81.1489 41.9382 80.1222 41.9382 78.8333C41.9382 77.9711 42.0804 77.2289 42.3648 76.6067C42.6582 75.9845 43.0848 75.5045 43.6448 75.1667C44.2137 74.82 44.907 74.6467 45.7248 74.6467C46.8893 74.6467 47.7782 75.0067 48.3915 75.7267C49.0137 76.4378 49.3248 77.4867 49.3248 78.8733V79.3133H43.8715C43.9159 80.0156 44.0982 80.5756 44.4182 80.9933C44.7382 81.4111 45.1826 81.62 45.7515 81.62C46.187 81.62 46.5382 81.4911 46.8048 81.2333C47.0715 80.9756 47.2537 80.66 47.3515 80.2867H49.2315C49.1426 80.7845 48.9604 81.2422 48.6848 81.66C48.4093 82.0778 48.027 82.4156 47.5382 82.6733C47.0582 82.9222 46.4582 83.0467 45.7382 83.0467ZM43.8715 78.0333H47.4048C47.3693 77.3933 47.2048 76.8956 46.9115 76.54C46.627 76.1845 46.227 76.0067 45.7115 76.0067C45.187 76.0067 44.7648 76.18 44.4448 76.5267C44.1337 76.8645 43.9426 77.3667 43.8715 78.0333ZM50.7863 82.8467V74.8467H52.5863V76.2867H52.9063C52.9596 76.0289 53.0574 75.7845 53.1996 75.5533C53.3418 75.3222 53.5641 75.1356 53.8663 74.9933C54.1685 74.8422 54.5774 74.7667 55.0929 74.7667H55.4796V76.5667H54.9329C54.1685 76.5667 53.6174 76.7622 53.2796 77.1533C52.9418 77.5445 52.7729 78.1356 52.7729 78.9267V82.8467H50.7863ZM56.909 82.8467V74.8467H58.7357V76.0467H59.0557C59.2068 75.6378 59.4557 75.3045 59.8023 75.0467C60.149 74.78 60.6379 74.6467 61.269 74.6467C62.1668 74.6467 62.8334 74.9311 63.269 75.5C63.7134 76.06 63.9357 76.8111 63.9357 77.7533V82.8467H61.949V78.1C61.949 77.5133 61.8423 77.0645 61.629 76.7533C61.4245 76.4333 61.0912 76.2733 60.629 76.2733C60.0779 76.2733 59.6512 76.4911 59.349 76.9267C59.0468 77.3533 58.8957 77.8867 58.8957 78.5267V82.8467H56.909ZM69.1444 83.0467C67.9089 83.0467 66.9666 82.6689 66.3177 81.9133C65.6689 81.1489 65.3444 80.1222 65.3444 78.8333C65.3444 77.9711 65.4866 77.2289 65.7711 76.6067C66.0644 75.9845 66.4911 75.5045 67.0511 75.1667C67.62 74.82 68.3133 74.6467 69.1311 74.6467C70.2955 74.6467 71.1844 75.0067 71.7977 75.7267C72.42 76.4378 72.7311 77.4867 72.7311 78.8733V79.3133H67.2777C67.3222 80.0156 67.5044 80.5756 67.8244 80.9933C68.1444 81.4111 68.5889 81.62 69.1577 81.62C69.5933 81.62 69.9444 81.4911 70.2111 81.2333C70.4777 80.9756 70.66 80.66 70.7577 80.2867H72.6377C72.5489 80.7845 72.3666 81.2422 72.0911 81.66C71.8155 82.0778 71.4333 82.4156 70.9444 82.6733C70.4644 82.9222 69.8644 83.0467 69.1444 83.0467ZM67.2777 78.0333H70.8111C70.7755 77.3933 70.6111 76.8956 70.3177 76.54C70.0333 76.1845 69.6333 76.0067 69.1177 76.0067C68.5933 76.0067 68.1711 76.18 67.8511 76.5267C67.54 76.8645 67.3489 77.3667 67.2777 78.0333ZM75.3392 82.8467C75.1348 82.6067 74.9703 82.3178 74.8459 81.98C74.7303 81.6422 74.6725 81.1356 74.6725 80.46V76.26H73.5792V74.8467H74.6992V72.8467H76.6325V74.8467H77.9525V76.26H76.6459V80.2333C76.6459 80.9445 76.7259 81.4867 76.8859 81.86C77.0459 82.2245 77.237 82.5267 77.4592 82.7667V82.8467H75.3392ZM82.6444 83.0467C81.4089 83.0467 80.4666 82.6689 79.8177 81.9133C79.1689 81.1489 78.8444 80.1222 78.8444 78.8333C78.8444 77.9711 78.9866 77.2289 79.2711 76.6067C79.5644 75.9845 79.9911 75.5045 80.5511 75.1667C81.12 74.82 81.8133 74.6467 82.6311 74.6467C83.7955 74.6467 84.6844 75.0067 85.2977 75.7267C85.92 76.4378 86.2311 77.4867 86.2311 78.8733V79.3133H80.7777C80.8222 80.0156 81.0044 80.5756 81.3244 80.9933C81.6444 81.4111 82.0889 81.62 82.6577 81.62C83.0933 81.62 83.4444 81.4911 83.7111 81.2333C83.9777 80.9756 84.16 80.66 84.2577 80.2867H86.1377C86.0489 80.7845 85.8666 81.2422 85.5911 81.66C85.3155 82.0778 84.9333 82.4156 84.4444 82.6733C83.9644 82.9222 83.3644 83.0467 82.6444 83.0467ZM80.7777 78.0333H84.3111C84.2755 77.3933 84.1111 76.8956 83.8177 76.54C83.5333 76.1845 83.1333 76.0067 82.6177 76.0067C82.0933 76.0067 81.6711 76.18 81.3511 76.5267C81.04 76.8645 80.8489 77.3667 80.7777 78.0333ZM90.5992 83.0467C89.7459 83.0467 89.0614 82.9089 88.5459 82.6333C88.0303 82.3578 87.6481 82.0067 87.3992 81.58C87.1592 81.1533 87.0259 80.7222 86.9992 80.2867H88.8925C88.9281 80.5267 89.017 80.7489 89.1592 80.9533C89.3103 81.1578 89.5103 81.3222 89.7592 81.4467C90.017 81.5622 90.3281 81.62 90.6925 81.62C91.1281 81.62 91.4481 81.54 91.6525 81.38C91.857 81.22 91.9592 81.0156 91.9592 80.7667C91.9592 80.5356 91.8703 80.34 91.6925 80.18C91.5148 80.02 91.2259 79.8733 90.8259 79.74L89.8659 79.42C89.4125 79.26 88.9948 79.0867 88.6125 78.9C88.2392 78.7045 87.937 78.4556 87.7059 78.1533C87.4836 77.8511 87.3725 77.4645 87.3725 76.9933C87.3725 76.2911 87.6348 75.7267 88.1592 75.3C88.6925 74.8645 89.4392 74.6467 90.3992 74.6467C91.0925 74.6467 91.6614 74.7578 92.1059 74.98C92.5503 75.1933 92.8836 75.4867 93.1059 75.86C93.337 76.2245 93.4703 76.6333 93.5059 77.0867H91.6792C91.6348 76.7578 91.5014 76.4956 91.2792 76.3C91.057 76.1045 90.737 76.0067 90.3192 76.0067C89.9548 76.0067 89.6792 76.0822 89.4925 76.2333C89.3059 76.3756 89.2125 76.5711 89.2125 76.82C89.2125 77.0689 89.3103 77.2733 89.5059 77.4333C89.7014 77.5933 89.9948 77.74 90.3859 77.8733L91.3459 78.1933C91.7992 78.3356 92.2125 78.5045 92.5859 78.7C92.9592 78.8867 93.257 79.1311 93.4792 79.4333C93.7014 79.7356 93.8125 80.1267 93.8125 80.6067C93.8125 81.3356 93.537 81.9267 92.9859 82.38C92.4348 82.8245 91.6392 83.0467 90.5992 83.0467Z" fill="#111827"/>
<rect x="0.875977" y="161.341" width="88.5308" height="62.9153" fill="#FAFAFA"/>
<path d="M16.9109 186.799V176.399H23.8976V178.025H18.9376V180.492H22.7776V182.012H18.9376V185.159H23.9776V186.799H16.9109ZM24.7832 186.799V186.719L27.2499 182.612L25.0499 178.879V178.799H27.1965L28.5699 181.279H28.8632L30.1965 178.799H32.1699V178.879L30.0765 182.572L32.5032 186.719V186.799H30.3165L28.7032 183.879H28.4099L26.8232 186.799H24.7832ZM34.8324 186.799C34.6279 186.559 34.4635 186.27 34.339 185.932C34.2235 185.594 34.1657 185.088 34.1657 184.412V180.212H33.0724V178.799H34.1924V176.799H36.1257V178.799H37.4457V180.212H36.139V184.185C36.139 184.897 36.219 185.439 36.379 185.812C36.539 186.177 36.7301 186.479 36.9524 186.719V186.799H34.8324ZM42.1376 186.999C40.902 186.999 39.9598 186.621 39.3109 185.865C38.662 185.101 38.3376 184.074 38.3376 182.785C38.3376 181.923 38.4798 181.181 38.7642 180.559C39.0576 179.937 39.4842 179.457 40.0442 179.119C40.6131 178.772 41.3065 178.599 42.1242 178.599C43.2887 178.599 44.1776 178.959 44.7909 179.679C45.4131 180.39 45.7242 181.439 45.7242 182.825V183.265H40.2709C40.3153 183.968 40.4976 184.528 40.8176 184.945C41.1376 185.363 41.582 185.572 42.1509 185.572C42.5865 185.572 42.9376 185.443 43.2042 185.185C43.4709 184.928 43.6531 184.612 43.7509 184.239H45.6309C45.542 184.737 45.3598 185.194 45.0842 185.612C44.8087 186.03 44.4265 186.368 43.9376 186.625C43.4576 186.874 42.8576 186.999 42.1376 186.999ZM40.2709 181.985H43.8042C43.7687 181.345 43.6042 180.848 43.3109 180.492C43.0265 180.137 42.6265 179.959 42.1109 179.959C41.5865 179.959 41.1642 180.132 40.8442 180.479C40.5331 180.817 40.342 181.319 40.2709 181.985ZM47.1857 186.799V178.799H48.9857V180.239H49.3057C49.359 179.981 49.4568 179.737 49.599 179.505C49.7413 179.274 49.9635 179.088 50.2657 178.945C50.5679 178.794 50.9768 178.719 51.4924 178.719H51.879V180.519H51.3324C50.5679 180.519 50.0168 180.714 49.679 181.105C49.3413 181.497 49.1724 182.088 49.1724 182.879V186.799H47.1857ZM53.3084 186.799V178.799H55.1351V179.999H55.4551C55.6062 179.59 55.8551 179.257 56.2017 178.999C56.5484 178.732 57.0373 178.599 57.6684 178.599C58.5662 178.599 59.2328 178.883 59.6684 179.452C60.1128 180.012 60.3351 180.763 60.3351 181.705V186.799H58.3484V182.052C58.3484 181.465 58.2417 181.017 58.0284 180.705C57.824 180.385 57.4906 180.225 57.0284 180.225C56.4773 180.225 56.0506 180.443 55.7484 180.879C55.4462 181.305 55.2951 181.839 55.2951 182.479V186.799H53.3084ZM64.9838 186.972C64.2549 186.972 63.6505 186.794 63.1705 186.439C62.6905 186.074 62.3305 185.581 62.0905 184.959C61.8594 184.328 61.7438 183.603 61.7438 182.785C61.7438 181.95 61.8638 181.221 62.1038 180.599C62.3438 179.977 62.7038 179.492 63.1838 179.145C63.6638 178.799 64.2638 178.625 64.9838 178.625C65.5527 178.625 66.0149 178.741 66.3705 178.972C66.7349 179.194 67.006 179.483 67.1838 179.839H67.5038V178.799H69.3305V186.799H67.5038V185.759H67.1838C67.006 186.088 66.7394 186.372 66.3838 186.612C66.0283 186.852 65.5616 186.972 64.9838 186.972ZM65.4772 185.532C66.046 185.532 66.4994 185.283 66.8372 184.785C67.1838 184.288 67.3572 183.625 67.3572 182.799C67.3572 181.963 67.1838 181.301 66.8372 180.812C66.4994 180.314 66.046 180.065 65.4772 180.065C64.9438 180.065 64.526 180.297 64.2238 180.759C63.9305 181.221 63.7838 181.901 63.7838 182.799C63.7838 183.697 63.9305 184.377 64.2238 184.839C64.526 185.301 64.9438 185.532 65.4772 185.532ZM72.0265 186.799C71.7865 186.523 71.6132 186.208 71.5065 185.852C71.3999 185.497 71.3465 185.017 71.3465 184.412V176.132H73.3332V184.199C73.3332 184.883 73.4088 185.412 73.5599 185.785C73.711 186.15 73.9065 186.461 74.1465 186.719V186.799H72.0265ZM12.2602 210.799V200.399H14.3135V210.799H12.2602ZM16.41 210.799V202.799H18.2366V203.999H18.5566C18.7077 203.59 18.9566 203.257 19.3033 202.999C19.65 202.732 20.1389 202.599 20.77 202.599C21.6677 202.599 22.3344 202.883 22.77 203.452C23.2144 204.012 23.4366 204.763 23.4366 205.705V210.799H21.45V206.052C21.45 205.465 21.3433 205.017 21.13 204.705C20.9255 204.385 20.5922 204.225 20.13 204.225C19.5789 204.225 19.1522 204.443 18.85 204.879C18.5477 205.305 18.3966 205.839 18.3966 206.479V210.799H16.41ZM28.2721 210.999C27.4187 210.999 26.7343 210.861 26.2187 210.585C25.7032 210.31 25.3209 209.959 25.0721 209.532C24.8321 209.105 24.6987 208.674 24.6721 208.239H26.5654C26.6009 208.479 26.6898 208.701 26.8321 208.905C26.9832 209.11 27.1832 209.274 27.4321 209.399C27.6898 209.514 28.0009 209.572 28.3654 209.572C28.8009 209.572 29.1209 209.492 29.3254 209.332C29.5298 209.172 29.6321 208.968 29.6321 208.719C29.6321 208.488 29.5432 208.292 29.3654 208.132C29.1876 207.972 28.8987 207.825 28.4987 207.692L27.5387 207.372C27.0854 207.212 26.6676 207.039 26.2854 206.852C25.9121 206.657 25.6098 206.408 25.3787 206.105C25.1565 205.803 25.0454 205.417 25.0454 204.945C25.0454 204.243 25.3076 203.679 25.8321 203.252C26.3654 202.817 27.1121 202.599 28.0721 202.599C28.7654 202.599 29.3343 202.71 29.7787 202.932C30.2232 203.145 30.5565 203.439 30.7787 203.812C31.0098 204.177 31.1432 204.585 31.1787 205.039H29.3521C29.3076 204.71 29.1743 204.448 28.9521 204.252C28.7298 204.057 28.4098 203.959 27.9921 203.959C27.6276 203.959 27.3521 204.034 27.1654 204.185C26.9787 204.328 26.8854 204.523 26.8854 204.772C26.8854 205.021 26.9832 205.225 27.1787 205.385C27.3743 205.545 27.6676 205.692 28.0587 205.825L29.0187 206.145C29.4721 206.288 29.8854 206.457 30.2587 206.652C30.6321 206.839 30.9298 207.083 31.1521 207.385C31.3743 207.688 31.4854 208.079 31.4854 208.559C31.4854 209.288 31.2098 209.879 30.6587 210.332C30.1076 210.777 29.3121 210.999 28.2721 210.999ZM34.0121 210.799C33.8076 210.559 33.6432 210.27 33.5187 209.932C33.4032 209.594 33.3454 209.088 33.3454 208.412V204.212H32.2521V202.799H33.3721V200.799H35.3054V202.799H36.6254V204.212H35.3187V208.185C35.3187 208.897 35.3987 209.439 35.5587 209.812C35.7187 210.177 35.9098 210.479 36.1321 210.719V210.799H34.0121ZM40.7573 210.972C40.0284 210.972 39.4239 210.794 38.9439 210.439C38.4639 210.074 38.1039 209.581 37.8639 208.959C37.6328 208.328 37.5173 207.603 37.5173 206.785C37.5173 205.95 37.6373 205.221 37.8773 204.599C38.1173 203.977 38.4773 203.492 38.9573 203.145C39.4373 202.799 40.0373 202.625 40.7573 202.625C41.3261 202.625 41.7884 202.741 42.1439 202.972C42.5084 203.194 42.7795 203.483 42.9573 203.839H43.2773V202.799H45.1039V210.799H43.2773V209.759H42.9573C42.7795 210.088 42.5128 210.372 42.1573 210.612C41.8017 210.852 41.335 210.972 40.7573 210.972ZM41.2506 209.532C41.8195 209.532 42.2728 209.283 42.6106 208.785C42.9573 208.288 43.1306 207.625 43.1306 206.799C43.1306 205.963 42.9573 205.301 42.6106 204.812C42.2728 204.314 41.8195 204.065 41.2506 204.065C40.7173 204.065 40.2995 204.297 39.9973 204.759C39.7039 205.221 39.5573 205.901 39.5573 206.799C39.5573 207.697 39.7039 208.377 39.9973 208.839C40.2995 209.301 40.7173 209.532 41.2506 209.532ZM47.16 210.799V202.799H48.9866V203.999H49.3066C49.4577 203.59 49.7066 203.257 50.0533 202.999C50.4 202.732 50.8889 202.599 51.52 202.599C52.4177 202.599 53.0844 202.883 53.52 203.452C53.9644 204.012 54.1866 204.763 54.1866 205.705V210.799H52.2V206.052C52.2 205.465 52.0933 205.017 51.88 204.705C51.6755 204.385 51.3422 204.225 50.88 204.225C50.3289 204.225 49.9022 204.443 49.6 204.879C49.2977 205.305 49.1466 205.839 49.1466 206.479V210.799H47.16ZM59.3154 210.999C58.0976 210.999 57.1732 210.621 56.5421 209.865C55.9109 209.101 55.5954 208.079 55.5954 206.799C55.5954 205.457 55.9243 204.421 56.5821 203.692C57.2487 202.963 58.1643 202.599 59.3287 202.599C60.3598 202.599 61.1732 202.874 61.7687 203.425C62.3643 203.977 62.7198 204.732 62.8354 205.692H60.8887C60.8265 205.159 60.6621 204.75 60.3954 204.465C60.1287 204.172 59.7821 204.025 59.3554 204.025C58.7954 204.025 58.3687 204.27 58.0754 204.759C57.7821 205.239 57.6354 205.919 57.6354 206.799C57.6354 207.679 57.7776 208.359 58.0621 208.839C58.3554 209.319 58.7821 209.559 59.3421 209.559C59.7776 209.559 60.1287 209.417 60.3954 209.132C60.6621 208.839 60.8265 208.425 60.8887 207.892H62.8354C62.7109 208.852 62.3465 209.612 61.7421 210.172C61.1465 210.723 60.3376 210.999 59.3154 210.999ZM67.5673 210.999C66.3317 210.999 65.3895 210.621 64.7406 209.865C64.0917 209.101 63.7673 208.074 63.7673 206.785C63.7673 205.923 63.9095 205.181 64.1939 204.559C64.4873 203.937 64.9139 203.457 65.4739 203.119C66.0428 202.772 66.7361 202.599 67.5539 202.599C68.7184 202.599 69.6073 202.959 70.2206 203.679C70.8428 204.39 71.1539 205.439 71.1539 206.825V207.265H65.7006C65.745 207.968 65.9273 208.528 66.2473 208.945C66.5673 209.363 67.0117 209.572 67.5806 209.572C68.0161 209.572 68.3673 209.443 68.6339 209.185C68.9006 208.928 69.0828 208.612 69.1806 208.239H71.0606C70.9717 208.737 70.7895 209.194 70.5139 209.612C70.2384 210.03 69.8561 210.368 69.3673 210.625C68.8873 210.874 68.2873 210.999 67.5673 210.999ZM65.7006 205.985H69.2339C69.1984 205.345 69.0339 204.848 68.7406 204.492C68.4561 204.137 68.0561 203.959 67.5406 203.959C67.0161 203.959 66.5939 204.132 66.2739 204.479C65.9628 204.817 65.7717 205.319 65.7006 205.985ZM75.5221 210.999C74.6687 210.999 73.9843 210.861 73.4687 210.585C72.9532 210.31 72.5709 209.959 72.3221 209.532C72.0821 209.105 71.9487 208.674 71.9221 208.239H73.8154C73.8509 208.479 73.9398 208.701 74.0821 208.905C74.2332 209.11 74.4332 209.274 74.6821 209.399C74.9398 209.514 75.2509 209.572 75.6154 209.572C76.0509 209.572 76.3709 209.492 76.5754 209.332C76.7798 209.172 76.8821 208.968 76.8821 208.719C76.8821 208.488 76.7932 208.292 76.6154 208.132C76.4376 207.972 76.1487 207.825 75.7487 207.692L74.7887 207.372C74.3354 207.212 73.9176 207.039 73.5354 206.852C73.1621 206.657 72.8598 206.408 72.6287 206.105C72.4065 205.803 72.2954 205.417 72.2954 204.945C72.2954 204.243 72.5576 203.679 73.0821 203.252C73.6154 202.817 74.3621 202.599 75.3221 202.599C76.0154 202.599 76.5843 202.71 77.0287 202.932C77.4732 203.145 77.8065 203.439 78.0287 203.812C78.2598 204.177 78.3932 204.585 78.4287 205.039H76.6021C76.5576 204.71 76.4243 204.448 76.2021 204.252C75.9798 204.057 75.6598 203.959 75.2421 203.959C74.8776 203.959 74.6021 204.034 74.4154 204.185C74.2287 204.328 74.1354 204.523 74.1354 204.772C74.1354 205.021 74.2332 205.225 74.4287 205.385C74.6243 205.545 74.9176 205.692 75.3087 205.825L76.2687 206.145C76.7221 206.288 77.1354 206.457 77.5087 206.652C77.8821 206.839 78.1798 207.083 78.4021 207.385C78.6243 207.688 78.7354 208.079 78.7354 208.559C78.7354 209.288 78.4598 209.879 77.9087 210.332C77.3576 210.777 76.5621 210.999 75.5221 210.999Z" fill="#111827"/>
<defs>
<linearGradient id="paint0_linear_1278_40899" x1="395.438" y1="48.1188" x2="561.799" y2="48.1188" gradientUnits="userSpaceOnUse">
<stop offset="0.7" stop-color="#3B82F6"/>
<stop offset="1" stop-color="#3B82F6" stop-opacity="0"/>
</linearGradient>
<linearGradient id="paint1_linear_1278_40899" x1="395.716" y1="81.4137" x2="139.617" y2="81.4137" gradientUnits="userSpaceOnUse">
<stop offset="0.7" stop-color="#3B82F6"/>
<stop offset="1" stop-color="#3B82F6" stop-opacity="0"/>
</linearGradient>
<linearGradient id="paint2_linear_1278_40899" x1="395.716" y1="257.753" x2="603.019" y2="257.753" gradientUnits="userSpaceOnUse">
<stop offset="0.65" stop-color="#3B82F6"/>
<stop offset="1" stop-color="#3B82F6" stop-opacity="0"/>
</linearGradient>
<linearGradient id="paint3_linear_1278_40899" x1="395.715" y1="257.752" x2="201.804" y2="257.752" gradientUnits="userSpaceOnUse">
<stop offset="0.7" stop-color="#3B82F6"/>
<stop offset="1" stop-color="#3B82F6" stop-opacity="0"/>
</linearGradient>
<linearGradient id="paint4_linear_1278_40899" x1="376.999" y1="192.691" x2="602.549" y2="192.691" gradientUnits="userSpaceOnUse">
<stop offset="0.706363" stop-color="#3B82F6"/>
<stop offset="1" stop-color="#3B82F6" stop-opacity="0"/>
</linearGradient>
<linearGradient id="paint5_linear_1278_40899" x1="23.1869" y1="192.692" x2="364.282" y2="192.692" gradientUnits="userSpaceOnUse">
<stop stop-color="#3B82F6" stop-opacity="0"/>
<stop offset="0.55" stop-color="#3B82F6"/>
</linearGradient>
<linearGradient id="paint6_linear_1278_40899" x1="395.716" y1="128.47" x2="497.33" y2="128.47" gradientUnits="userSpaceOnUse">
<stop offset="0.579938" stop-color="#3B82F6"/>
<stop offset="1" stop-color="#3B82F6" stop-opacity="0"/>
</linearGradient>
<linearGradient id="paint7_linear_1278_40899" x1="193.211" y1="128.471" x2="346.855" y2="128.471" gradientUnits="userSpaceOnUse">
<stop stop-color="#3B82F6" stop-opacity="0"/>
<stop offset="0.420062" stop-color="#3B82F6"/>
</linearGradient>
<linearGradient id="paint8_linear_1278_40899" x1="428.414" y1="0.400391" x2="428.414" y2="320.798" gradientUnits="userSpaceOnUse">
<stop stop-color="#3B82F6" stop-opacity="0"/>
<stop offset="0.505" stop-color="#3B82F6"/>
<stop offset="1" stop-color="#3B82F6" stop-opacity="0"/>
</linearGradient>
<linearGradient id="paint9_linear_1278_40899" x1="258.162" y1="-4.55456" x2="258.162" y2="316.438" gradientUnits="userSpaceOnUse">
<stop stop-color="#3B82F6" stop-opacity="0"/>
<stop offset="0.505" stop-color="#3B82F6"/>
<stop offset="1" stop-color="#3B82F6" stop-opacity="0"/>
</linearGradient>
<linearGradient id="paint10_linear_1278_40899" x1="539.234" y1="63.9688" x2="539.234" y2="191.943" gradientUnits="userSpaceOnUse">
<stop stop-color="#3B82F6" stop-opacity="0"/>
<stop offset="0.535" stop-color="#3B82F6"/>
<stop offset="1" stop-color="#3B82F6" stop-opacity="0"/>
</linearGradient>
<linearGradient id="paint11_linear_1278_40899" x1="145.137" y1="33.2598" x2="145.137" y2="289.101" gradientUnits="userSpaceOnUse">
<stop stop-color="#3B82F6" stop-opacity="0"/>
<stop offset="0.535" stop-color="#3B82F6"/>
<stop offset="1" stop-color="#3B82F6" stop-opacity="0"/>
</linearGradient>
</defs>
</svg>
