<svg width="282" height="128" viewBox="0 0 282 128" fill="none" xmlns="http://www.w3.org/2000/svg">
<path d="M157.818 25.8086L230.635 25.8086" stroke="url(#paint0_linear_1278_42978)"/>
<path d="M157.929 25.8089L50.1176 25.8086" stroke="url(#paint1_linear_1278_42978)"/>
<path d="M157.929 102.392L209.255 102.392" stroke="url(#paint2_linear_1278_42978)"/>
<path d="M157.929 102.392L80.832 102.392" stroke="url(#paint3_linear_1278_42978)"/>
<path d="M227.214 76.5244L145.432 76.5244" stroke="url(#paint4_linear_1278_42978)"/>
<path d="M145.432 76.5254L42.5498 76.5254" stroke="url(#paint5_linear_1278_42978)"/>
<path d="M198.33 51.1895L153.289 51.1895" stroke="url(#paint6_linear_1278_42978)"/>
<path d="M138.503 51.1904L80.832 51.1904" stroke="url(#paint7_linear_1278_42978)"/>
<path d="M164.436 0L164.436 127.386" stroke="url(#paint8_linear_1278_42978)"/>
<path d="M100.45 0.603516L100.45 127.777" stroke="url(#paint9_linear_1278_42978)"/>
<path d="M215.189 25.3467L215.189 76.2275" stroke="url(#paint10_linear_1278_42978)"/>
<path d="M58.501 13.1367L58.501 114.856" stroke="url(#paint11_linear_1278_42978)"/>
<circle cx="214.895" cy="51.19" r="2.48492" fill="#2563EB"/>
<circle cx="74.9307" cy="51.191" r="2.48492" fill="#2563EB"/>
<path d="M154.436 59.0481V40.8634C154.436 38.6543 152.645 36.8652 150.436 36.8652H132.443H114.45C112.241 36.8652 110.45 38.6512 110.45 40.8603L110.45 59.0481C110.451 73.9886 118.273 79.1094 132.443 86.9612C146.257 80.0772 154.436 74.7619 154.436 59.0481Z" fill="#3B82F6"/>
<path fill-rule="evenodd" clip-rule="evenodd" d="M134.099 47.2176L131.685 46.6162C131.866 46.6162 132.06 46.6019 132.278 46.5857C132.56 46.5649 132.883 46.541 133.272 46.541C134.72 46.541 135.892 47.0672 136.996 47.7438C137.148 47.8269 137.28 48.002 137.414 48.18C137.522 48.324 137.631 48.4698 137.755 48.5707C138.306 48.7962 138.858 48.9465 139.41 48.8713V48.6458C140.031 48.7962 140.651 49.5479 140.651 50.0741H137.824C137.755 50.0741 137.617 50.1493 137.548 50.2244C137.617 50.2996 137.755 50.45 137.824 50.45C137.954 50.45 138.096 50.4458 138.245 50.4413C138.73 50.427 139.297 50.4103 139.824 50.5251C139.814 50.5425 139.804 50.5609 139.794 50.5801C139.578 50.9747 139.181 51.7035 138.72 51.2017C138.72 51.0513 136.03 51.1265 135.341 51.2769C135.203 51.2769 135.065 51.5775 135.134 51.7279C135.443 52.5454 136.175 53.0553 136.861 53.5331C137.247 53.8022 137.619 54.061 137.892 54.3589C139.824 56.0127 140.444 57.5161 140.031 60.3727C138.994 64.8248 137.365 65.5764 134.19 67.0408C133.773 67.2331 133.33 67.4376 132.858 67.6644C131.685 68.2657 130.995 69.694 131.202 71.1223C131.685 74.2043 136.168 75.0312 137.065 71.423C137.341 69.9947 136.996 67.965 134.513 67.3637C135.616 66.8375 136.651 66.2361 137.617 65.5595C137.755 65.4092 137.892 65.4092 138.03 65.5595C140.789 68.3409 141.479 73.4526 136.927 76.4595C133.685 78.4139 129.616 76.7602 128.306 73.0016C126.995 69.1678 129.064 65.0333 132.72 64.2064C135.341 63.7554 138.03 60.7485 136.858 57.9672C136.337 56.7191 134.835 55.471 133.566 54.4168C133.153 54.0741 132.765 53.7519 132.444 53.4568C132.262 53.338 131.966 53.3653 131.635 53.3957C131.338 53.423 131.013 53.4528 130.72 53.3817C130.858 53.2689 130.941 53.1567 131.025 53.0444C131.109 52.9321 131.193 52.8199 131.331 52.7071C130.71 52.2909 130.326 52.2338 129.85 52.1633C129.639 52.132 129.409 52.098 129.133 52.0286C129.34 51.5775 130.233 51.0523 130.854 50.9772C130.835 50.7809 130.822 50.6116 130.811 50.4636C130.744 49.5344 130.737 49.4446 129.547 48.7962C130.255 48.2819 130.88 48.3959 131.488 48.5066C132.123 48.6224 132.739 48.7347 133.409 48.1196C132.582 47.8189 131.754 47.5183 130.995 46.992C131.384 47.0203 131.766 47.0953 132.146 47.17C132.778 47.2941 133.406 47.4173 134.052 47.3234L134.099 47.2176ZM128.306 66.5368C124.995 64.2816 124.788 58.5685 128.513 56.0879C131.271 54.2086 134.375 54.8851 136.444 58.1927C136.72 58.7189 136.72 59.5458 136.582 60.1472C136.03 62.1768 134.651 63.3044 132.789 63.7554C133.34 63.3044 133.754 62.6278 133.892 61.8761C134.513 57.6665 128.513 57.2155 128.788 61.7258C128.719 63.0037 129.616 63.9058 131.34 64.2064C130.444 64.8078 129.685 65.334 128.857 66.4616C128.719 66.6871 128.582 66.6871 128.306 66.5368ZM127.474 69.7981C126.412 70.0145 125.293 70.2427 124.236 70.7464C124.719 68.5664 126.443 67.063 128.513 67.063C127.961 67.8147 127.685 68.7919 127.616 69.7692C127.569 69.7788 127.522 69.7884 127.474 69.7981ZM136.372 49.0491L136.579 49.2746L136.303 49.425C136.165 49.5002 136.096 49.425 136.027 49.3498C135.889 49.1243 136.303 48.974 136.372 49.0491Z" fill="white"/>
<circle cx="58.501" cy="76.7125" r="2.48492" fill="#2563EB"/>
<circle cx="215.189" cy="76.1324" r="2.48492" fill="#2563EB"/>
<circle cx="36.7371" cy="26.1421" r="2.48492" fill="#2563EB"/>
<circle cx="100.451" cy="102.392" r="2.48492" fill="#2563EB"/>
<circle cx="164.436" cy="102.175" r="2.48492" fill="#2563EB"/>
<circle cx="215.189" cy="25.1812" r="2.48492" fill="#2563EB"/>
<rect x="230.634" y="13.0752" width="33.5996" height="25.0364" fill="#FAFAFA"/>
<path d="M236.05 23.5928V18.3928H237.717L238.89 22.8528H239.09L240.277 18.3928H241.943V23.5928H241.05V19.1728H240.883L239.73 23.5928H238.203L237.05 19.1728H236.883V23.5928H236.05ZM244.65 23.6928C244.014 23.6928 243.541 23.5039 243.23 23.1261C242.919 22.7439 242.763 22.2328 242.763 21.5928C242.763 20.9528 242.919 20.4439 243.23 20.0661C243.541 19.6839 244.014 19.4928 244.65 19.4928C245.286 19.4928 245.759 19.6839 246.07 20.0661C246.381 20.4439 246.537 20.9528 246.537 21.5928C246.537 22.2328 246.381 22.7439 246.07 23.1261C245.759 23.5039 245.286 23.6928 244.65 23.6928ZM244.65 23.0394C244.979 23.0394 245.221 22.915 245.377 22.6661C245.532 22.4128 245.61 22.055 245.61 21.5928C245.61 21.1261 245.532 20.7683 245.377 20.5194C245.221 20.2706 244.979 20.1461 244.65 20.1461C244.317 20.1461 244.072 20.2706 243.917 20.5194C243.766 20.7683 243.69 21.1261 243.69 21.5928C243.69 22.055 243.766 22.4128 243.917 22.6661C244.072 22.915 244.317 23.0394 244.65 23.0394ZM249.427 23.6794C249.125 23.6794 248.882 23.6194 248.7 23.4994C248.522 23.3794 248.391 23.2372 248.307 23.0728H248.147V23.5928H247.327V18.2594H248.227V20.0528H248.387C248.48 19.8839 248.611 19.7506 248.78 19.6528C248.949 19.5506 249.167 19.4994 249.434 19.4994C249.78 19.4994 250.071 19.5861 250.307 19.7594C250.547 19.9328 250.727 20.1772 250.847 20.4928C250.971 20.8039 251.034 21.1683 251.034 21.5861C251.034 21.9994 250.971 22.3639 250.847 22.6794C250.727 22.995 250.547 23.2417 250.307 23.4194C250.071 23.5928 249.778 23.6794 249.427 23.6794ZM249.207 22.9994C249.491 22.9994 249.711 22.8794 249.867 22.6394C250.027 22.3994 250.107 22.0506 250.107 21.5928C250.107 21.135 250.027 20.7861 249.867 20.5461C249.711 20.3017 249.491 20.1794 249.207 20.1794C248.905 20.1794 248.665 20.3083 248.487 20.5661C248.309 20.8194 248.22 21.1617 248.22 21.5928C248.22 22.0194 248.309 22.3617 248.487 22.6194C248.665 22.8728 248.905 22.9994 249.207 22.9994ZM251.827 23.5928V19.5928H252.727V23.5928H251.827ZM252.28 19.0794C252.116 19.0794 251.989 19.035 251.9 18.9461C251.816 18.8572 251.774 18.7394 251.774 18.5928C251.774 18.4461 251.816 18.3283 251.9 18.2394C251.989 18.1461 252.116 18.0994 252.28 18.0994C252.449 18.0994 252.576 18.1461 252.66 18.2394C252.749 18.3283 252.794 18.4461 252.794 18.5928C252.794 18.7394 252.749 18.8572 252.66 18.9461C252.576 19.035 252.449 19.0794 252.28 19.0794ZM254.109 23.5928C253.998 23.4594 253.913 23.3061 253.856 23.1328C253.802 22.9594 253.776 22.715 253.776 22.3994V18.2594H254.676V22.2928C254.676 22.6394 254.713 22.9061 254.789 23.0928C254.865 23.275 254.962 23.4283 255.082 23.5528V23.5928H254.109ZM257.372 23.6928C256.763 23.6928 256.299 23.5017 255.979 23.1194C255.663 22.7372 255.506 22.2261 255.506 21.5861C255.506 21.1594 255.577 20.7906 255.719 20.4794C255.861 20.1683 256.07 19.9261 256.346 19.7528C256.621 19.5794 256.959 19.4928 257.359 19.4928C257.932 19.4928 258.37 19.6728 258.672 20.0328C258.974 20.3883 259.126 20.9083 259.126 21.5928V21.8128H256.379C256.401 22.1772 256.494 22.4706 256.659 22.6928C256.828 22.915 257.066 23.0261 257.372 23.0261C257.603 23.0261 257.79 22.9594 257.932 22.8261C258.074 22.6928 258.172 22.5217 258.226 22.3128H259.079C259.03 22.5706 258.937 22.8039 258.799 23.0128C258.666 23.2172 258.481 23.3817 258.246 23.5061C258.01 23.6306 257.719 23.6928 257.372 23.6928ZM256.386 21.2128H258.246C258.232 20.8661 258.148 20.6017 257.992 20.4194C257.841 20.2328 257.628 20.1394 257.352 20.1394C257.072 20.1394 256.85 20.2306 256.686 20.4128C256.521 20.595 256.421 20.8617 256.386 21.2128ZM234.472 33.5928V28.3928H236.252C237.163 28.3928 237.823 28.6217 238.232 29.0794C238.641 29.5328 238.845 30.1706 238.845 30.9928C238.845 31.815 238.641 32.455 238.232 32.9128C237.823 33.3661 237.163 33.5928 236.252 33.5928H234.472ZM235.412 32.8461H236.185C236.581 32.8461 236.903 32.7839 237.152 32.6594C237.405 32.535 237.59 32.3372 237.705 32.0661C237.825 31.7906 237.885 31.4328 237.885 30.9928C237.885 30.5483 237.825 30.1906 237.705 29.9194C237.59 29.6483 237.405 29.4506 237.152 29.3261C236.903 29.2017 236.581 29.1394 236.185 29.1394H235.412V32.8461ZM241.216 33.6928C240.607 33.6928 240.143 33.5017 239.823 33.1194C239.507 32.7372 239.349 32.2261 239.349 31.5861C239.349 31.1594 239.42 30.7906 239.563 30.4794C239.705 30.1683 239.914 29.9261 240.189 29.7528C240.465 29.5794 240.803 29.4928 241.203 29.4928C241.776 29.4928 242.214 29.6728 242.516 30.0328C242.818 30.3883 242.969 30.9083 242.969 31.5928V31.8128H240.223C240.245 32.1772 240.338 32.4706 240.503 32.6928C240.672 32.915 240.909 33.0261 241.216 33.0261C241.447 33.0261 241.634 32.9594 241.776 32.8261C241.918 32.6928 242.016 32.5217 242.069 32.3128H242.923C242.874 32.5706 242.78 32.8039 242.643 33.0128C242.509 33.2172 242.325 33.3817 242.089 33.5061C241.854 33.6306 241.563 33.6928 241.216 33.6928ZM240.229 31.2128H242.089C242.076 30.8661 241.992 30.6017 241.836 30.4194C241.685 30.2328 241.472 30.1394 241.196 30.1394C240.916 30.1394 240.694 30.2306 240.529 30.4128C240.365 30.595 240.265 30.8617 240.229 31.2128ZM244.432 33.5928L243.245 29.6328V29.5928H244.152L245.085 32.8528H245.245L246.185 29.5928H247.012V29.6328L245.832 33.5928H244.432ZM247.647 33.5928V29.5928H248.547V33.5928H247.647ZM248.101 29.0794C247.936 29.0794 247.809 29.035 247.721 28.9461C247.636 28.8572 247.594 28.7394 247.594 28.5928C247.594 28.4461 247.636 28.3283 247.721 28.2394C247.809 28.1461 247.936 28.0994 248.101 28.0994C248.269 28.0994 248.396 28.1461 248.481 28.2394C248.569 28.3283 248.614 28.4461 248.614 28.5928C248.614 28.7394 248.569 28.8572 248.481 28.9461C248.396 29.035 248.269 29.0794 248.101 29.0794ZM251.169 33.6928C250.569 33.6928 250.116 33.5017 249.809 33.1194C249.503 32.7372 249.349 32.2283 249.349 31.5928C249.349 30.9306 249.509 30.415 249.829 30.0461C250.149 29.6772 250.598 29.4928 251.176 29.4928C251.674 29.4928 252.069 29.6283 252.363 29.8994C252.656 30.1661 252.834 30.5417 252.896 31.0261H252.009C251.974 30.7506 251.885 30.5394 251.743 30.3928C251.605 30.2417 251.42 30.1661 251.189 30.1661C250.883 30.1661 250.654 30.2928 250.503 30.5461C250.352 30.795 250.276 31.1439 250.276 31.5928C250.276 32.0417 250.352 32.3928 250.503 32.6461C250.654 32.895 250.88 33.0194 251.183 33.0194C251.418 33.0194 251.605 32.9439 251.743 32.7928C251.885 32.6417 251.974 32.4306 252.009 32.1594H252.896C252.829 32.6394 252.647 33.015 252.349 33.2861C252.056 33.5572 251.663 33.6928 251.169 33.6928ZM255.247 33.6928C254.638 33.6928 254.174 33.5017 253.854 33.1194C253.538 32.7372 253.381 32.2261 253.381 31.5861C253.381 31.1594 253.452 30.7906 253.594 30.4794C253.736 30.1683 253.945 29.9261 254.221 29.7528C254.496 29.5794 254.834 29.4928 255.234 29.4928C255.807 29.4928 256.245 29.6728 256.547 30.0328C256.849 30.3883 257.001 30.9083 257.001 31.5928V31.8128H254.254C254.276 32.1772 254.369 32.4706 254.534 32.6928C254.703 32.915 254.941 33.0261 255.247 33.0261C255.478 33.0261 255.665 32.9594 255.807 32.8261C255.949 32.6928 256.047 32.5217 256.101 32.3128H256.954C256.905 32.5706 256.812 32.8039 256.674 33.0128C256.541 33.2172 256.356 33.3817 256.121 33.5061C255.885 33.6306 255.594 33.6928 255.247 33.6928ZM254.261 31.2128H256.121C256.107 30.8661 256.023 30.6017 255.867 30.4194C255.716 30.2328 255.503 30.1394 255.227 30.1394C254.947 30.1394 254.725 30.2306 254.561 30.4128C254.396 30.595 254.296 30.8617 254.261 31.2128ZM259.18 33.6928C258.776 33.6928 258.447 33.6261 258.193 33.4928C257.94 33.355 257.753 33.1794 257.633 32.9661C257.513 32.7528 257.444 32.535 257.427 32.3128H258.293C258.311 32.4372 258.356 32.555 258.427 32.6661C258.502 32.7772 258.604 32.8661 258.733 32.9328C258.862 32.9994 259.024 33.0328 259.22 33.0328C259.442 33.0328 259.609 32.9906 259.72 32.9061C259.831 32.8172 259.887 32.7017 259.887 32.5594C259.887 32.435 259.84 32.3306 259.747 32.2461C259.653 32.1572 259.507 32.0794 259.307 32.0128L258.827 31.8461C258.604 31.7661 258.402 31.6794 258.22 31.5861C258.038 31.4883 257.891 31.3661 257.78 31.2194C257.669 31.0728 257.613 30.8839 257.613 30.6528C257.613 30.3017 257.742 30.0217 258 29.8128C258.258 29.5994 258.618 29.4928 259.08 29.4928C259.413 29.4928 259.687 29.5483 259.9 29.6594C260.118 29.7661 260.282 29.9128 260.393 30.0994C260.504 30.2817 260.569 30.4861 260.587 30.7128H259.753C259.736 30.5483 259.669 30.4106 259.553 30.2994C259.442 30.1883 259.273 30.1328 259.047 30.1328C258.856 30.1328 258.709 30.1728 258.607 30.2528C258.509 30.3283 258.46 30.435 258.46 30.5728C258.46 30.7061 258.509 30.8172 258.607 30.9061C258.709 30.9906 258.862 31.0683 259.067 31.1394L259.54 31.2928C259.762 31.3683 259.964 31.455 260.147 31.5528C260.329 31.6461 260.471 31.7683 260.573 31.9194C260.68 32.0661 260.733 32.255 260.733 32.4861C260.733 32.8461 260.6 33.1372 260.333 33.3594C260.071 33.5817 259.687 33.6928 259.18 33.6928Z" fill="#111827"/>
<rect x="198.329" y="38.5371" width="33.7187" height="25.0628" fill="#FAFAFA"/>
<path d="M206.406 49.0693V43.8693H207.339V48.316H209.653V49.0693H206.406ZM211.873 49.1693C211.238 49.1693 210.764 48.9804 210.453 48.6027C210.142 48.2204 209.987 47.7093 209.987 47.0693C209.987 46.4293 210.142 45.9204 210.453 45.5427C210.764 45.1604 211.238 44.9693 211.873 44.9693C212.509 44.9693 212.982 45.1604 213.293 45.5427C213.604 45.9204 213.76 46.4293 213.76 47.0693C213.76 47.7093 213.604 48.2204 213.293 48.6027C212.982 48.9804 212.509 49.1693 211.873 49.1693ZM211.873 48.516C212.202 48.516 212.444 48.3916 212.6 48.1427C212.756 47.8893 212.833 47.5316 212.833 47.0693C212.833 46.6027 212.756 46.2449 212.6 45.996C212.444 45.7471 212.202 45.6227 211.873 45.6227C211.54 45.6227 211.296 45.7471 211.14 45.996C210.989 46.2449 210.913 46.6027 210.913 47.0693C210.913 47.5316 210.989 47.8893 211.14 48.1427C211.296 48.3916 211.54 48.516 211.873 48.516ZM216.104 49.1693C215.504 49.1693 215.05 48.9782 214.744 48.596C214.437 48.2138 214.284 47.7049 214.284 47.0693C214.284 46.4071 214.444 45.8916 214.764 45.5227C215.084 45.1538 215.532 44.9693 216.11 44.9693C216.608 44.9693 217.004 45.1049 217.297 45.376C217.59 45.6427 217.768 46.0182 217.83 46.5027H216.944C216.908 46.2271 216.819 46.016 216.677 45.8693C216.539 45.7182 216.355 45.6427 216.124 45.6427C215.817 45.6427 215.588 45.7693 215.437 46.0227C215.286 46.2716 215.21 46.6204 215.21 47.0693C215.21 47.5182 215.286 47.8693 215.437 48.1227C215.588 48.3716 215.815 48.496 216.117 48.496C216.352 48.496 216.539 48.4204 216.677 48.2693C216.819 48.1182 216.908 47.9071 216.944 47.636H217.83C217.764 48.116 217.581 48.4916 217.284 48.7627C216.99 49.0338 216.597 49.1693 216.104 49.1693ZM219.935 49.156C219.575 49.156 219.275 49.0693 219.035 48.896C218.795 48.7182 218.615 48.4716 218.495 48.156C218.375 47.8404 218.315 47.476 218.315 47.0627C218.315 46.6449 218.375 46.2804 218.495 45.9693C218.619 45.6538 218.801 45.4093 219.041 45.236C219.281 45.0627 219.579 44.976 219.935 44.976C220.228 44.976 220.464 45.036 220.641 45.156C220.824 45.2716 220.955 45.416 221.035 45.5893H221.195V45.0693H222.015V49.0693H221.195V48.5493H221.035C220.955 48.7138 220.824 48.856 220.641 48.976C220.464 49.096 220.228 49.156 219.935 49.156ZM220.135 48.476C220.437 48.476 220.677 48.3493 220.855 48.096C221.037 47.8382 221.128 47.496 221.128 47.0693C221.128 46.6382 221.037 46.296 220.855 46.0427C220.677 45.7849 220.437 45.656 220.135 45.656C219.85 45.656 219.63 45.7782 219.475 46.0227C219.319 46.2627 219.241 46.6116 219.241 47.0693C219.241 47.5271 219.319 47.876 219.475 48.116C219.63 48.356 219.85 48.476 220.135 48.476ZM223.395 49.0693C223.284 48.936 223.199 48.7827 223.141 48.6093C223.088 48.436 223.061 48.1916 223.061 47.876V43.736H223.961V47.7693C223.961 48.116 223.999 48.3827 224.075 48.5693C224.15 48.7516 224.248 48.9049 224.368 49.0293V49.0693H223.395ZM202.226 59.0693V53.8693H204.006C204.918 53.8693 205.578 54.0982 205.986 54.556C206.395 55.0093 206.6 55.6471 206.6 56.4693C206.6 57.2916 206.395 57.9316 205.986 58.3893C205.578 58.8427 204.918 59.0693 204.006 59.0693H202.226ZM203.166 58.3227H203.94C204.335 58.3227 204.658 58.2604 204.906 58.136C205.16 58.0116 205.344 57.8138 205.46 57.5427C205.58 57.2671 205.64 56.9093 205.64 56.4693C205.64 56.0249 205.58 55.6671 205.46 55.396C205.344 55.1249 205.16 54.9271 204.906 54.8027C204.658 54.6782 204.335 54.616 203.94 54.616H203.166V58.3227ZM208.97 59.1693C208.362 59.1693 207.897 58.9782 207.577 58.596C207.262 58.2138 207.104 57.7027 207.104 57.0627C207.104 56.636 207.175 56.2671 207.317 55.956C207.459 55.6449 207.668 55.4027 207.944 55.2293C208.219 55.056 208.557 54.9693 208.957 54.9693C209.53 54.9693 209.968 55.1493 210.27 55.5093C210.573 55.8649 210.724 56.3849 210.724 57.0693V57.2893H207.977C207.999 57.6538 208.093 57.9471 208.257 58.1693C208.426 58.3916 208.664 58.5027 208.97 58.5027C209.202 58.5027 209.388 58.436 209.53 58.3027C209.673 58.1693 209.77 57.9982 209.824 57.7893H210.677C210.628 58.0471 210.535 58.2804 210.397 58.4893C210.264 58.6938 210.079 58.8582 209.844 58.9827C209.608 59.1071 209.317 59.1693 208.97 59.1693ZM207.984 56.6893H209.844C209.83 56.3427 209.746 56.0782 209.59 55.896C209.439 55.7093 209.226 55.616 208.95 55.616C208.67 55.616 208.448 55.7071 208.284 55.8893C208.119 56.0716 208.019 56.3382 207.984 56.6893ZM212.186 59.0693L211 55.1093V55.0693H211.906L212.84 58.3293H213L213.94 55.0693H214.766V55.1093L213.586 59.0693H212.186ZM215.402 59.0693V55.0693H216.302V59.0693H215.402ZM215.855 54.556C215.691 54.556 215.564 54.5116 215.475 54.4227C215.391 54.3338 215.348 54.216 215.348 54.0693C215.348 53.9227 215.391 53.8049 215.475 53.716C215.564 53.6227 215.691 53.576 215.855 53.576C216.024 53.576 216.151 53.6227 216.235 53.716C216.324 53.8049 216.368 53.9227 216.368 54.0693C216.368 54.216 216.324 54.3338 216.235 54.4227C216.151 54.5116 216.024 54.556 215.855 54.556ZM218.924 59.1693C218.324 59.1693 217.87 58.9782 217.564 58.596C217.257 58.2138 217.104 57.7049 217.104 57.0693C217.104 56.4071 217.264 55.8916 217.584 55.5227C217.904 55.1538 218.353 54.9693 218.93 54.9693C219.428 54.9693 219.824 55.1049 220.117 55.376C220.41 55.6427 220.588 56.0182 220.65 56.5027H219.764C219.728 56.2271 219.639 56.016 219.497 55.8693C219.359 55.7182 219.175 55.6427 218.944 55.6427C218.637 55.6427 218.408 55.7693 218.257 56.0227C218.106 56.2716 218.03 56.6204 218.03 57.0693C218.03 57.5182 218.106 57.8693 218.257 58.1227C218.408 58.3716 218.635 58.496 218.937 58.496C219.173 58.496 219.359 58.4204 219.497 58.2693C219.639 58.1182 219.728 57.9071 219.764 57.636H220.65C220.584 58.116 220.402 58.4916 220.104 58.7627C219.81 59.0338 219.417 59.1693 218.924 59.1693ZM223.002 59.1693C222.393 59.1693 221.928 58.9782 221.608 58.596C221.293 58.2138 221.135 57.7027 221.135 57.0627C221.135 56.636 221.206 56.2671 221.348 55.956C221.491 55.6449 221.7 55.4027 221.975 55.2293C222.251 55.056 222.588 54.9693 222.988 54.9693C223.562 54.9693 224 55.1493 224.302 55.5093C224.604 55.8649 224.755 56.3849 224.755 57.0693V57.2893H222.008C222.031 57.6538 222.124 57.9471 222.288 58.1693C222.457 58.3916 222.695 58.5027 223.002 58.5027C223.233 58.5027 223.42 58.436 223.562 58.3027C223.704 58.1693 223.802 57.9982 223.855 57.7893H224.708C224.66 58.0471 224.566 58.2804 224.428 58.4893C224.295 58.6938 224.111 58.8582 223.875 58.9827C223.64 59.1071 223.348 59.1693 223.002 59.1693ZM222.015 56.6893H223.875C223.862 56.3427 223.777 56.0782 223.622 55.896C223.471 55.7093 223.257 55.616 222.982 55.616C222.702 55.616 222.48 55.7071 222.315 55.8893C222.151 56.0716 222.051 56.3382 222.015 56.6893ZM226.935 59.1693C226.53 59.1693 226.201 59.1027 225.948 58.9693C225.695 58.8316 225.508 58.656 225.388 58.4427C225.268 58.2293 225.199 58.0116 225.181 57.7893H226.048C226.066 57.9138 226.11 58.0316 226.181 58.1427C226.257 58.2538 226.359 58.3427 226.488 58.4093C226.617 58.476 226.779 58.5093 226.975 58.5093C227.197 58.5093 227.363 58.4671 227.475 58.3827C227.586 58.2938 227.641 58.1782 227.641 58.036C227.641 57.9116 227.595 57.8071 227.501 57.7227C227.408 57.6338 227.261 57.556 227.061 57.4893L226.581 57.3227C226.359 57.2427 226.157 57.156 225.975 57.0627C225.792 56.9649 225.646 56.8427 225.535 56.696C225.423 56.5493 225.368 56.3604 225.368 56.1293C225.368 55.7782 225.497 55.4982 225.755 55.2893C226.012 55.076 226.372 54.9693 226.835 54.9693C227.168 54.9693 227.441 55.0249 227.655 55.136C227.872 55.2427 228.037 55.3893 228.148 55.576C228.259 55.7582 228.323 55.9627 228.341 56.1893H227.508C227.49 56.0249 227.423 55.8871 227.308 55.776C227.197 55.6649 227.028 55.6093 226.801 55.6093C226.61 55.6093 226.463 55.6493 226.361 55.7293C226.263 55.8049 226.215 55.9116 226.215 56.0493C226.215 56.1827 226.263 56.2938 226.361 56.3827C226.463 56.4671 226.617 56.5449 226.821 56.616L227.295 56.7693C227.517 56.8449 227.719 56.9316 227.901 57.0293C228.083 57.1227 228.226 57.2449 228.328 57.396C228.435 57.5427 228.488 57.7316 228.488 57.9627C228.488 58.3227 228.355 58.6138 228.088 58.836C227.826 59.0582 227.441 59.1693 226.935 59.1693Z" fill="#111827"/>
<rect x="209.255" y="89.4287" width="56.4424" height="25.0628" fill="#FAFAFA"/>
<path d="M214.615 99.96V94.76H216.395C217.306 94.76 217.966 94.9888 218.375 95.4466C218.784 95.9 218.989 96.5377 218.989 97.36C218.989 98.1822 218.784 98.8222 218.375 99.28C217.966 99.7333 217.306 99.96 216.395 99.96H214.615ZM215.555 99.2133H216.329C216.724 99.2133 217.046 99.1511 217.295 99.0266C217.549 98.9022 217.733 98.7044 217.849 98.4333C217.969 98.1577 218.029 97.8 218.029 97.36C218.029 96.9155 217.969 96.5577 217.849 96.2866C217.733 96.0155 217.549 95.8177 217.295 95.6933C217.046 95.5688 216.724 95.5066 216.329 95.5066H215.555V99.2133ZM221.359 100.06C220.75 100.06 220.286 99.8688 219.966 99.4866C219.65 99.1044 219.493 98.5933 219.493 97.9533C219.493 97.5266 219.564 97.1577 219.706 96.8466C219.848 96.5355 220.057 96.2933 220.333 96.12C220.608 95.9466 220.946 95.86 221.346 95.86C221.919 95.86 222.357 96.04 222.659 96.4C222.962 96.7555 223.113 97.2755 223.113 97.96V98.18H220.366C220.388 98.5444 220.482 98.8377 220.646 99.06C220.815 99.2822 221.053 99.3933 221.359 99.3933C221.59 99.3933 221.777 99.3266 221.919 99.1933C222.062 99.06 222.159 98.8888 222.213 98.68H223.066C223.017 98.9377 222.924 99.1711 222.786 99.38C222.653 99.5844 222.468 99.7488 222.233 99.8733C221.997 99.9977 221.706 100.06 221.359 100.06ZM220.373 97.58H222.233C222.219 97.2333 222.135 96.9688 221.979 96.7866C221.828 96.6 221.615 96.5066 221.339 96.5066C221.059 96.5066 220.837 96.5977 220.673 96.78C220.508 96.9622 220.408 97.2288 220.373 97.58ZM224.575 99.96L223.388 96V95.96H224.295L225.228 99.22H225.388L226.328 95.96H227.155V96L225.975 99.96H224.575ZM229.391 100.06C228.782 100.06 228.317 99.8688 227.997 99.4866C227.682 99.1044 227.524 98.5933 227.524 97.9533C227.524 97.5266 227.595 97.1577 227.737 96.8466C227.879 96.5355 228.088 96.2933 228.364 96.12C228.639 95.9466 228.977 95.86 229.377 95.86C229.951 95.86 230.388 96.04 230.691 96.4C230.993 96.7555 231.144 97.2755 231.144 97.96V98.18H228.397C228.419 98.5444 228.513 98.8377 228.677 99.06C228.846 99.2822 229.084 99.3933 229.391 99.3933C229.622 99.3933 229.808 99.3266 229.951 99.1933C230.093 99.06 230.191 98.8888 230.244 98.68H231.097C231.048 98.9377 230.955 99.1711 230.817 99.38C230.684 99.5844 230.499 99.7488 230.264 99.8733C230.028 99.9977 229.737 100.06 229.391 100.06ZM228.404 97.58H230.264C230.251 97.2333 230.166 96.9688 230.011 96.7866C229.859 96.6 229.646 96.5066 229.371 96.5066C229.091 96.5066 228.868 96.5977 228.704 96.78C228.539 96.9622 228.439 97.2288 228.404 97.58ZM232.237 99.96C232.126 99.8266 232.041 99.6733 231.983 99.5C231.93 99.3266 231.903 99.0822 231.903 98.7666V94.6266H232.803V98.66C232.803 99.0066 232.841 99.2733 232.917 99.46C232.992 99.6422 233.09 99.7955 233.21 99.92V99.96H232.237ZM235.52 100.06C234.884 100.06 234.411 99.8711 234.1 99.4933C233.789 99.1111 233.633 98.6 233.633 97.96C233.633 97.32 233.789 96.8111 234.1 96.4333C234.411 96.0511 234.884 95.86 235.52 95.86C236.155 95.86 236.629 96.0511 236.94 96.4333C237.251 96.8111 237.407 97.32 237.407 97.96C237.407 98.6 237.251 99.1111 236.94 99.4933C236.629 99.8711 236.155 100.06 235.52 100.06ZM235.52 99.4066C235.849 99.4066 236.091 99.2822 236.247 99.0333C236.402 98.78 236.48 98.4222 236.48 97.96C236.48 97.4933 236.402 97.1355 236.247 96.8866C236.091 96.6377 235.849 96.5133 235.52 96.5133C235.187 96.5133 234.942 96.6377 234.787 96.8866C234.635 97.1355 234.56 97.4933 234.56 97.96C234.56 98.4222 234.635 98.78 234.787 99.0333C234.942 99.2822 235.187 99.4066 235.52 99.4066ZM238.197 101.293V95.96H239.017V96.48H239.177C239.261 96.3155 239.392 96.1733 239.57 96.0533C239.752 95.9288 239.995 95.8666 240.297 95.8666C240.648 95.8666 240.941 95.9555 241.177 96.1333C241.417 96.3066 241.597 96.5511 241.717 96.8666C241.841 97.1822 241.903 97.5466 241.903 97.96C241.903 98.3777 241.841 98.7444 241.717 99.06C241.597 99.3711 241.417 99.6133 241.177 99.7866C240.941 99.96 240.65 100.047 240.303 100.047C240.037 100.047 239.819 99.9977 239.65 99.9C239.481 99.7977 239.35 99.6644 239.257 99.5H239.097V101.293H238.197ZM240.077 99.3666C240.361 99.3666 240.581 99.2466 240.737 99.0066C240.897 98.7666 240.977 98.4177 240.977 97.96C240.977 97.5022 240.897 97.1533 240.737 96.9133C240.581 96.6688 240.361 96.5466 240.077 96.5466C239.775 96.5466 239.535 96.6755 239.357 96.9333C239.179 97.1866 239.09 97.5288 239.09 97.96C239.09 98.3866 239.179 98.7288 239.357 98.9866C239.535 99.24 239.775 99.3666 240.077 99.3666ZM242.697 99.96V95.96H243.517V96.56H243.677C243.748 96.3511 243.868 96.1822 244.037 96.0533C244.206 95.9244 244.437 95.86 244.73 95.86C245.01 95.86 245.241 95.9222 245.423 96.0466C245.61 96.1711 245.748 96.3422 245.837 96.56H245.997C246.077 96.3466 246.203 96.1777 246.377 96.0533C246.555 95.9244 246.79 95.86 247.083 95.86C247.519 95.86 247.839 96.0022 248.043 96.2866C248.248 96.5666 248.35 96.94 248.35 97.4066V99.96H247.45V97.5733C247.45 97.2622 247.399 97.0244 247.297 96.86C247.199 96.6911 247.039 96.6066 246.817 96.6066C246.546 96.6066 246.337 96.7222 246.19 96.9533C246.048 97.18 245.977 97.4622 245.977 97.8V99.96H245.077V97.5733C245.077 97.2622 245.026 97.0244 244.923 96.86C244.826 96.6911 244.666 96.6066 244.443 96.6066C244.172 96.6066 243.963 96.7222 243.817 96.9533C243.67 97.18 243.597 97.4622 243.597 97.8V99.96H242.697ZM250.961 100.06C250.352 100.06 249.888 99.8688 249.568 99.4866C249.252 99.1044 249.094 98.5933 249.094 97.9533C249.094 97.5266 249.165 97.1577 249.308 96.8466C249.45 96.5355 249.659 96.2933 249.934 96.12C250.21 95.9466 250.548 95.86 250.948 95.86C251.521 95.86 251.959 96.04 252.261 96.4C252.563 96.7555 252.714 97.2755 252.714 97.96V98.18H249.968C249.99 98.5444 250.083 98.8377 250.248 99.06C250.416 99.2822 250.654 99.3933 250.961 99.3933C251.192 99.3933 251.379 99.3266 251.521 99.1933C251.663 99.06 251.761 98.8888 251.814 98.68H252.668C252.619 98.9377 252.525 99.1711 252.388 99.38C252.254 99.5844 252.07 99.7488 251.834 99.8733C251.599 99.9977 251.308 100.06 250.961 100.06ZM249.974 97.58H251.834C251.821 97.2333 251.736 96.9688 251.581 96.7866C251.43 96.6 251.216 96.5066 250.941 96.5066C250.661 96.5066 250.439 96.5977 250.274 96.78C250.11 96.9622 250.01 97.2288 249.974 97.58ZM253.494 99.96V95.96H254.314V96.56H254.474C254.554 96.3466 254.68 96.1777 254.854 96.0533C255.031 95.9244 255.274 95.86 255.58 95.86C256.038 95.86 256.374 96.0022 256.587 96.2866C256.805 96.5666 256.914 96.94 256.914 97.4066V99.96H256.014V97.5733C256.014 97.2622 255.958 97.0244 255.847 96.86C255.736 96.6911 255.56 96.6066 255.32 96.6066C255.027 96.6066 254.798 96.7222 254.634 96.9533C254.474 97.18 254.394 97.4622 254.394 97.8V99.96H253.494ZM258.47 99.96C258.368 99.84 258.286 99.6955 258.223 99.5266C258.166 99.3577 258.137 99.1044 258.137 98.7666V96.62H257.59V95.96H258.15V94.96H259.03V95.96H259.69V96.62H259.037V98.6533C259.037 99.0088 259.074 99.28 259.15 99.4666C259.23 99.6488 259.326 99.8 259.437 99.92V99.96H258.47ZM222.452 110.06C221.714 110.06 221.141 109.822 220.732 109.347C220.323 108.871 220.118 108.209 220.118 107.36C220.118 106.511 220.321 105.849 220.725 105.373C221.134 104.898 221.707 104.66 222.445 104.66C222.881 104.66 223.256 104.742 223.572 104.907C223.887 105.071 224.134 105.3 224.312 105.593C224.494 105.887 224.603 106.227 224.638 106.613H223.705C223.665 106.231 223.534 105.931 223.312 105.713C223.089 105.491 222.801 105.38 222.445 105.38C222.001 105.38 221.661 105.553 221.425 105.9C221.194 106.242 221.078 106.729 221.078 107.36C221.078 108.004 221.196 108.496 221.432 108.833C221.672 109.171 222.007 109.34 222.438 109.34C222.812 109.34 223.107 109.224 223.325 108.993C223.543 108.762 223.669 108.467 223.705 108.107H224.638C224.603 108.489 224.494 108.829 224.312 109.127C224.134 109.42 223.887 109.649 223.572 109.813C223.261 109.978 222.887 110.06 222.452 110.06ZM227 110.06C226.365 110.06 225.891 109.871 225.58 109.493C225.269 109.111 225.114 108.6 225.114 107.96C225.114 107.32 225.269 106.811 225.58 106.433C225.891 106.051 226.365 105.86 227 105.86C227.636 105.86 228.109 106.051 228.42 106.433C228.731 106.811 228.887 107.32 228.887 107.96C228.887 108.6 228.731 109.111 228.42 109.493C228.109 109.871 227.636 110.06 227 110.06ZM227 109.407C227.329 109.407 227.571 109.282 227.727 109.033C227.883 108.78 227.96 108.422 227.96 107.96C227.96 107.493 227.883 107.136 227.727 106.887C227.571 106.638 227.329 106.513 227 106.513C226.667 106.513 226.423 106.638 226.267 106.887C226.116 107.136 226.04 107.493 226.04 107.96C226.04 108.422 226.116 108.78 226.267 109.033C226.423 109.282 226.667 109.407 227 109.407ZM229.677 109.96V105.96H230.497V106.56H230.657C230.737 106.347 230.864 106.178 231.037 106.053C231.215 105.924 231.457 105.86 231.764 105.86C232.222 105.86 232.557 106.002 232.771 106.287C232.988 106.567 233.097 106.94 233.097 107.407V109.96H232.197V107.573C232.197 107.262 232.142 107.024 232.031 106.86C231.919 106.691 231.744 106.607 231.504 106.607C231.211 106.607 230.982 106.722 230.817 106.953C230.657 107.18 230.577 107.462 230.577 107.8V109.96H229.677ZM234.654 109.96C234.551 109.84 234.469 109.696 234.407 109.527C234.349 109.358 234.32 109.104 234.32 108.767V106.62H233.774V105.96H234.334V104.96H235.214V105.96H235.874V106.62H235.22V108.653C235.22 109.009 235.258 109.28 235.334 109.467C235.414 109.649 235.509 109.8 235.62 109.92V109.96H234.654ZM237.96 110.047C237.6 110.047 237.3 109.96 237.06 109.787C236.82 109.609 236.64 109.362 236.52 109.047C236.4 108.731 236.34 108.367 236.34 107.953C236.34 107.536 236.4 107.171 236.52 106.86C236.645 106.544 236.827 106.3 237.067 106.127C237.307 105.953 237.605 105.867 237.96 105.867C238.254 105.867 238.489 105.927 238.667 106.047C238.849 106.162 238.98 106.307 239.06 106.48H239.22V105.96H240.04V109.96H239.22V109.44H239.06C238.98 109.604 238.849 109.747 238.667 109.867C238.489 109.987 238.254 110.047 237.96 110.047ZM238.16 109.367C238.462 109.367 238.702 109.24 238.88 108.987C239.062 108.729 239.154 108.387 239.154 107.96C239.154 107.529 239.062 107.187 238.88 106.933C238.702 106.676 238.462 106.547 238.16 106.547C237.876 106.547 237.656 106.669 237.5 106.913C237.345 107.153 237.267 107.502 237.267 107.96C237.267 108.418 237.345 108.767 237.5 109.007C237.656 109.247 237.876 109.367 238.16 109.367ZM241.107 109.96V105.96H242.007V109.96H241.107ZM241.56 105.447C241.396 105.447 241.269 105.402 241.18 105.313C241.096 105.224 241.054 105.107 241.054 104.96C241.054 104.813 241.096 104.696 241.18 104.607C241.269 104.513 241.396 104.467 241.56 104.467C241.729 104.467 241.856 104.513 241.94 104.607C242.029 104.696 242.074 104.813 242.074 104.96C242.074 105.107 242.029 105.224 241.94 105.313C241.856 105.402 241.729 105.447 241.56 105.447ZM243.076 109.96V105.96H243.896V106.56H244.056C244.136 106.347 244.262 106.178 244.436 106.053C244.613 105.924 244.856 105.86 245.162 105.86C245.62 105.86 245.956 106.002 246.169 106.287C246.387 106.567 246.496 106.94 246.496 107.407V109.96H245.596V107.573C245.596 107.262 245.54 107.024 245.429 106.86C245.318 106.691 245.142 106.607 244.902 106.607C244.609 106.607 244.38 106.722 244.216 106.953C244.056 107.18 243.976 107.462 243.976 107.8V109.96H243.076ZM249.105 110.06C248.496 110.06 248.032 109.869 247.712 109.487C247.396 109.104 247.239 108.593 247.239 107.953C247.239 107.527 247.31 107.158 247.452 106.847C247.594 106.536 247.803 106.293 248.079 106.12C248.354 105.947 248.692 105.86 249.092 105.86C249.665 105.86 250.103 106.04 250.405 106.4C250.708 106.756 250.859 107.276 250.859 107.96V108.18H248.112C248.134 108.544 248.228 108.838 248.392 109.06C248.561 109.282 248.799 109.393 249.105 109.393C249.336 109.393 249.523 109.327 249.665 109.193C249.808 109.06 249.905 108.889 249.959 108.68H250.812C250.763 108.938 250.67 109.171 250.532 109.38C250.399 109.584 250.214 109.749 249.979 109.873C249.743 109.998 249.452 110.06 249.105 110.06ZM248.119 107.58H249.979C249.965 107.233 249.881 106.969 249.725 106.787C249.574 106.6 249.361 106.507 249.085 106.507C248.805 106.507 248.583 106.598 248.419 106.78C248.254 106.962 248.154 107.229 248.119 107.58ZM251.638 109.96V105.96H252.452V106.667H252.612C252.638 106.542 252.687 106.424 252.758 106.313C252.829 106.198 252.938 106.104 253.085 106.033C253.236 105.958 253.44 105.92 253.698 105.92H253.872V106.747H253.625C253.238 106.747 252.96 106.847 252.792 107.047C252.623 107.242 252.538 107.547 252.538 107.96V109.96H251.638Z" fill="#111827"/>
<rect x="36.1697" y="38.5586" width="44.6623" height="25.0628" fill="#FAFAFA"/>
<path d="M42.308 49.0898V43.8898H43.9746L45.148 48.3498H45.348L46.5346 43.8898H48.2013V49.0898H47.308V44.6698H47.1413L45.988 49.0898H44.4613L43.308 44.6698H43.1413V49.0898H42.308ZM50.6413 49.1765C50.2813 49.1765 49.9813 49.0898 49.7413 48.9165C49.5013 48.7387 49.3213 48.4921 49.2013 48.1765C49.0813 47.861 49.0213 47.4965 49.0213 47.0832C49.0213 46.6654 49.0813 46.301 49.2013 45.9898C49.3257 45.6743 49.508 45.4298 49.748 45.2565C49.988 45.0832 50.2857 44.9965 50.6413 44.9965C50.9346 44.9965 51.1702 45.0565 51.348 45.1765C51.5302 45.2921 51.6613 45.4365 51.7413 45.6098H51.9013V45.0898H52.7213V49.0898H51.9013V48.5698H51.7413C51.6613 48.7343 51.5302 48.8765 51.348 48.9965C51.1702 49.1165 50.9346 49.1765 50.6413 49.1765ZM50.8413 48.4965C51.1435 48.4965 51.3835 48.3698 51.5613 48.1165C51.7435 47.8587 51.8346 47.5165 51.8346 47.0898C51.8346 46.6587 51.7435 46.3165 51.5613 46.0632C51.3835 45.8054 51.1435 45.6765 50.8413 45.6765C50.5569 45.6765 50.3369 45.7987 50.1813 46.0432C50.0257 46.2832 49.948 46.6321 49.948 47.0898C49.948 47.5476 50.0257 47.8965 50.1813 48.1365C50.3369 48.3765 50.5569 48.4965 50.8413 48.4965ZM53.788 49.0898V45.0898H54.608V45.6898H54.768C54.848 45.4765 54.9746 45.3076 55.148 45.1832C55.3257 45.0543 55.568 44.9898 55.8746 44.9898C56.3324 44.9898 56.668 45.1321 56.8813 45.4165C57.0991 45.6965 57.208 46.0698 57.208 46.5365V49.0898H56.308V46.7032C56.308 46.3921 56.2524 46.1543 56.1413 45.9898C56.0302 45.821 55.8546 45.7365 55.6146 45.7365C55.3213 45.7365 55.0924 45.8521 54.928 46.0832C54.768 46.3098 54.688 46.5921 54.688 46.9298V49.0898H53.788ZM59.571 49.1765C59.211 49.1765 58.911 49.0898 58.671 48.9165C58.431 48.7387 58.251 48.4921 58.131 48.1765C58.011 47.861 57.951 47.4965 57.951 47.0832C57.951 46.6654 58.011 46.301 58.131 45.9898C58.2554 45.6743 58.4377 45.4298 58.6777 45.2565C58.9177 45.0832 59.2154 44.9965 59.571 44.9965C59.8643 44.9965 60.0999 45.0565 60.2777 45.1765C60.4599 45.2921 60.591 45.4365 60.671 45.6098H60.831V45.0898H61.651V49.0898H60.831V48.5698H60.671C60.591 48.7343 60.4599 48.8765 60.2777 48.9965C60.0999 49.1165 59.8643 49.1765 59.571 49.1765ZM59.771 48.4965C60.0732 48.4965 60.3132 48.3698 60.491 48.1165C60.6732 47.8587 60.7643 47.5165 60.7643 47.0898C60.7643 46.6587 60.6732 46.3165 60.491 46.0632C60.3132 45.8054 60.0732 45.6765 59.771 45.6765C59.4865 45.6765 59.2665 45.7987 59.111 46.0432C58.9554 46.2832 58.8777 46.6321 58.8777 47.0898C58.8777 47.5476 58.9554 47.8965 59.111 48.1365C59.2665 48.3765 59.4865 48.4965 59.771 48.4965ZM64.3177 50.5165C63.9888 50.5165 63.7177 50.4765 63.5043 50.3965C63.2954 50.3165 63.1288 50.2121 63.0043 50.0832C62.8799 49.9587 62.7888 49.8276 62.731 49.6898C62.6777 49.5521 62.6443 49.4254 62.631 49.3098H63.5177C63.5443 49.4476 63.6177 49.5721 63.7377 49.6832C63.8621 49.7987 64.0599 49.8565 64.331 49.8565C64.6288 49.8565 64.8554 49.7721 65.011 49.6032C65.1665 49.4343 65.2443 49.1765 65.2443 48.8298V48.3698H65.0843C65.0177 48.5521 64.8999 48.701 64.731 48.8165C64.5621 48.9276 64.3354 48.9832 64.051 48.9832C63.5443 48.9832 63.151 48.8032 62.871 48.4432C62.591 48.0832 62.451 47.5943 62.451 46.9765C62.451 46.581 62.511 46.2343 62.631 45.9365C62.7554 45.6343 62.9377 45.401 63.1777 45.2365C63.4177 45.0721 63.7088 44.9898 64.051 44.9898C64.3443 44.9898 64.5732 45.0476 64.7377 45.1632C64.9065 45.2743 65.0288 45.4165 65.1043 45.5898H65.2643V45.0898H66.0843V48.8298C66.0843 49.3721 65.9354 49.7876 65.6377 50.0765C65.3443 50.3698 64.9043 50.5165 64.3177 50.5165ZM64.2377 48.3032C64.5399 48.3032 64.7754 48.1832 64.9443 47.9432C65.1132 47.6987 65.1977 47.3787 65.1977 46.9832C65.1977 46.5876 65.1132 46.2698 64.9443 46.0298C64.7754 45.7898 64.5421 45.6698 64.2443 45.6698C63.9643 45.6698 63.7465 45.7832 63.591 46.0098C63.4354 46.2321 63.3577 46.5565 63.3577 46.9832C63.3577 47.4187 63.4354 47.7476 63.591 47.9698C63.7465 48.1921 63.9621 48.3032 64.2377 48.3032ZM68.7473 49.1898C68.1385 49.1898 67.674 48.9987 67.354 48.6165C67.0385 48.2343 66.8807 47.7232 66.8807 47.0832C66.8807 46.6565 66.9518 46.2876 67.094 45.9765C67.2362 45.6654 67.4451 45.4232 67.7207 45.2498C67.9962 45.0765 68.334 44.9898 68.734 44.9898C69.3073 44.9898 69.7451 45.1698 70.0473 45.5298C70.3496 45.8854 70.5007 46.4054 70.5007 47.0898V47.3098H67.754C67.7762 47.6743 67.8696 47.9676 68.034 48.1898C68.2029 48.4121 68.4407 48.5232 68.7473 48.5232C68.9785 48.5232 69.1651 48.4565 69.3073 48.3232C69.4496 48.1898 69.5473 48.0187 69.6007 47.8098H70.454C70.4051 48.0676 70.3118 48.301 70.174 48.5098C70.0407 48.7143 69.8562 48.8787 69.6207 49.0032C69.3851 49.1276 69.094 49.1898 68.7473 49.1898ZM67.7607 46.7098H69.6207C69.6073 46.3632 69.5229 46.0987 69.3673 45.9165C69.2162 45.7298 69.0029 45.6365 68.7273 45.6365C68.4473 45.6365 68.2251 45.7276 68.0607 45.9098C67.8962 46.0921 67.7962 46.3587 67.7607 46.7098ZM72.6135 49.1765C72.2579 49.1765 71.9602 49.0898 71.7202 48.9165C71.4846 48.7387 71.3068 48.4921 71.1868 48.1765C71.0668 47.861 71.0068 47.4965 71.0068 47.0832C71.0068 46.6654 71.0668 46.301 71.1868 45.9898C71.3113 45.6743 71.4913 45.4298 71.7268 45.2565C71.9668 45.0832 72.2602 44.9965 72.6068 44.9965C72.8735 44.9965 73.0913 45.0476 73.2602 45.1498C73.429 45.2476 73.5579 45.381 73.6468 45.5498H73.8068V43.7565H74.7068V49.0898H73.8868V48.5698H73.7268C73.6468 48.7343 73.5157 48.8765 73.3335 48.9965C73.1557 49.1165 72.9157 49.1765 72.6135 49.1765ZM72.8268 48.4965C73.129 48.4965 73.369 48.3698 73.5468 48.1165C73.729 47.8587 73.8202 47.5165 73.8202 47.0898C73.8202 46.6587 73.729 46.3165 73.5468 46.0632C73.369 45.8054 73.129 45.6765 72.8268 45.6765C72.5424 45.6765 72.3224 45.7987 72.1668 46.0432C72.0113 46.2832 71.9335 46.6321 71.9335 47.0898C71.9335 47.5476 72.0113 47.8965 72.1668 48.1365C72.3224 48.3765 72.5424 48.4965 72.8268 48.4965ZM39.3041 59.0898V53.8898H40.2174V55.9898H40.6174L42.2374 53.8898H43.2774V53.9298L41.3774 56.3232L43.5041 59.0498V59.0898H42.3841L40.6174 56.7632H40.2174V59.0898H39.3041ZM45.141 59.1898C44.6877 59.1898 44.3499 59.0476 44.1277 58.7632C43.9099 58.4787 43.801 58.1054 43.801 57.6432V55.0898H44.701V57.4765C44.701 57.7832 44.7566 58.021 44.8677 58.1898C44.9788 58.3587 45.1544 58.4432 45.3944 58.4432C45.6922 58.4432 45.921 58.3276 46.081 58.0965C46.241 57.8654 46.321 57.581 46.321 57.2432V55.0898H47.221V59.0898H46.4144V58.4898H46.2544C46.1877 58.6987 46.061 58.8676 45.8744 58.9965C45.6922 59.1254 45.4477 59.1898 45.141 59.1898ZM50.3841 59.1765C50.0818 59.1765 49.8396 59.1165 49.6574 58.9965C49.4796 58.8765 49.3485 58.7343 49.2641 58.5698H49.1041V59.0898H48.2841V53.7565H49.1841V55.5498H49.3441C49.4374 55.381 49.5685 55.2476 49.7374 55.1498C49.9063 55.0476 50.1241 54.9965 50.3907 54.9965C50.7374 54.9965 51.0285 55.0832 51.2641 55.2565C51.5041 55.4298 51.6841 55.6743 51.8041 55.9898C51.9285 56.301 51.9907 56.6654 51.9907 57.0832C51.9907 57.4965 51.9285 57.861 51.8041 58.1765C51.6841 58.4921 51.5041 58.7387 51.2641 58.9165C51.0285 59.0898 50.7352 59.1765 50.3841 59.1765ZM50.1641 58.4965C50.4485 58.4965 50.6685 58.3765 50.8241 58.1365C50.9841 57.8965 51.0641 57.5476 51.0641 57.0898C51.0641 56.6321 50.9841 56.2832 50.8241 56.0432C50.6685 55.7987 50.4485 55.6765 50.1641 55.6765C49.8618 55.6765 49.6218 55.8054 49.4441 56.0632C49.2663 56.3165 49.1774 56.6587 49.1774 57.0898C49.1774 57.5165 49.2663 57.8587 49.4441 58.1165C49.6218 58.3698 49.8618 58.4965 50.1641 58.4965ZM54.3841 59.1898C53.7752 59.1898 53.3107 58.9987 52.9907 58.6165C52.6752 58.2343 52.5174 57.7232 52.5174 57.0832C52.5174 56.6565 52.5885 56.2876 52.7307 55.9765C52.873 55.6654 53.0818 55.4232 53.3574 55.2498C53.633 55.0765 53.9707 54.9898 54.3707 54.9898C54.9441 54.9898 55.3818 55.1698 55.6841 55.5298C55.9863 55.8854 56.1374 56.4054 56.1374 57.0898V57.3098H53.3907C53.413 57.6743 53.5063 57.9676 53.6707 58.1898C53.8396 58.4121 54.0774 58.5232 54.3841 58.5232C54.6152 58.5232 54.8018 58.4565 54.9441 58.3232C55.0863 58.1898 55.1841 58.0187 55.2374 57.8098H56.0907C56.0418 58.0676 55.9485 58.301 55.8107 58.5098C55.6774 58.7143 55.493 58.8787 55.2574 59.0032C55.0218 59.1276 54.7307 59.1898 54.3841 59.1898ZM53.3974 56.7098H55.2574C55.2441 56.3632 55.1596 56.0987 55.0041 55.9165C54.853 55.7298 54.6396 55.6365 54.3641 55.6365C54.0841 55.6365 53.8618 55.7276 53.6974 55.9098C53.533 56.0921 53.433 56.3587 53.3974 56.7098ZM56.9169 59.0898V55.0898H57.7302V55.7965H57.8902C57.9169 55.6721 57.9658 55.5543 58.0369 55.4432C58.108 55.3276 58.2169 55.2343 58.3635 55.1632C58.5147 55.0876 58.7191 55.0498 58.9769 55.0498H59.1502V55.8765H58.9035C58.5169 55.8765 58.2391 55.9765 58.0702 56.1765C57.9013 56.3721 57.8169 56.6765 57.8169 57.0898V59.0898H56.9169ZM59.8856 59.0898V55.0898H60.7056V55.6898H60.8656C60.9456 55.4765 61.0723 55.3076 61.2456 55.1832C61.4234 55.0543 61.6656 54.9898 61.9723 54.9898C62.4301 54.9898 62.7656 55.1321 62.979 55.4165C63.1967 55.6965 63.3056 56.0698 63.3056 56.5365V59.0898H62.4056V56.7032C62.4056 56.3921 62.3501 56.1543 62.239 55.9898C62.1279 55.821 61.9523 55.7365 61.7123 55.7365C61.419 55.7365 61.1901 55.8521 61.0256 56.0832C60.8656 56.3098 60.7856 56.5921 60.7856 56.9298V59.0898H59.8856ZM65.9153 59.1898C65.3064 59.1898 64.842 58.9987 64.522 58.6165C64.2064 58.2343 64.0486 57.7232 64.0486 57.0832C64.0486 56.6565 64.1198 56.2876 64.262 55.9765C64.4042 55.6654 64.6131 55.4232 64.8886 55.2498C65.1642 55.0765 65.502 54.9898 65.902 54.9898C66.4753 54.9898 66.9131 55.1698 67.2153 55.5298C67.5175 55.8854 67.6686 56.4054 67.6686 57.0898V57.3098H64.922C64.9442 57.6743 65.0375 57.9676 65.202 58.1898C65.3709 58.4121 65.6086 58.5232 65.9153 58.5232C66.1464 58.5232 66.3331 58.4565 66.4753 58.3232C66.6175 58.1898 66.7153 58.0187 66.7686 57.8098H67.622C67.5731 58.0676 67.4798 58.301 67.342 58.5098C67.2086 58.7143 67.0242 58.8787 66.7886 59.0032C66.5531 59.1276 66.262 59.1898 65.9153 59.1898ZM64.9286 56.7098H66.7886C66.7753 56.3632 66.6909 56.0987 66.5353 55.9165C66.3842 55.7298 66.1709 55.6365 65.8953 55.6365C65.6153 55.6365 65.3931 55.7276 65.2286 55.9098C65.0642 56.0921 64.9642 56.3587 64.9286 56.7098ZM68.9948 59.0898C68.8926 58.9698 68.8104 58.8254 68.7481 58.6565C68.6904 58.4876 68.6615 58.2343 68.6615 57.8965V55.7498H68.1148V55.0898H68.6748V54.0898H69.5548V55.0898H70.2148V55.7498H69.5615V57.7832C69.5615 58.1387 69.5992 58.4098 69.6748 58.5965C69.7548 58.7787 69.8504 58.9298 69.9615 59.0498V59.0898H68.9948ZM72.5481 59.1898C71.9392 59.1898 71.4748 58.9987 71.1548 58.6165C70.8392 58.2343 70.6815 57.7232 70.6815 57.0832C70.6815 56.6565 70.7526 56.2876 70.8948 55.9765C71.037 55.6654 71.2459 55.4232 71.5215 55.2498C71.797 55.0765 72.1348 54.9898 72.5348 54.9898C73.1081 54.9898 73.5459 55.1698 73.8481 55.5298C74.1504 55.8854 74.3015 56.4054 74.3015 57.0898V57.3098H71.5548C71.577 57.6743 71.6704 57.9676 71.8348 58.1898C72.0037 58.4121 72.2415 58.5232 72.5481 58.5232C72.7792 58.5232 72.9659 58.4565 73.1081 58.3232C73.2504 58.1898 73.3481 58.0187 73.4015 57.8098H74.2548C74.2059 58.0676 74.1126 58.301 73.9748 58.5098C73.8415 58.7143 73.657 58.8787 73.4215 59.0032C73.1859 59.1276 72.8948 59.1898 72.5481 59.1898ZM71.5615 56.7098H73.4215C73.4081 56.3632 73.3237 56.0987 73.1681 55.9165C73.017 55.7298 72.8037 55.6365 72.5281 55.6365C72.2481 55.6365 72.0259 55.7276 71.8615 55.9098C71.697 56.0921 71.597 56.3587 71.5615 56.7098ZM76.4809 59.1898C76.0765 59.1898 75.7476 59.1232 75.4943 58.9898C75.2409 58.8521 75.0543 58.6765 74.9343 58.4632C74.8143 58.2498 74.7454 58.0321 74.7276 57.8098H75.5943C75.6121 57.9343 75.6565 58.0521 75.7276 58.1632C75.8032 58.2743 75.9054 58.3632 76.0343 58.4298C76.1632 58.4965 76.3254 58.5298 76.5209 58.5298C76.7432 58.5298 76.9098 58.4876 77.0209 58.4032C77.1321 58.3143 77.1876 58.1987 77.1876 58.0565C77.1876 57.9321 77.1409 57.8276 77.0476 57.7432C76.9543 57.6543 76.8076 57.5765 76.6076 57.5098L76.1276 57.3432C75.9054 57.2632 75.7032 57.1765 75.5209 57.0832C75.3387 56.9854 75.1921 56.8632 75.0809 56.7165C74.9698 56.5698 74.9143 56.381 74.9143 56.1498C74.9143 55.7987 75.0432 55.5187 75.3009 55.3098C75.5587 55.0965 75.9187 54.9898 76.3809 54.9898C76.7143 54.9898 76.9876 55.0454 77.2009 55.1565C77.4187 55.2632 77.5832 55.4098 77.6943 55.5965C77.8054 55.7787 77.8698 55.9832 77.8876 56.2098H77.0543C77.0365 56.0454 76.9698 55.9076 76.8543 55.7965C76.7432 55.6854 76.5743 55.6298 76.3476 55.6298C76.1565 55.6298 76.0098 55.6698 75.9076 55.7498C75.8098 55.8254 75.7609 55.9321 75.7609 56.0698C75.7609 56.2032 75.8098 56.3143 75.9076 56.4032C76.0098 56.4876 76.1632 56.5654 76.3676 56.6365L76.8409 56.7898C77.0632 56.8654 77.2654 56.9521 77.4476 57.0498C77.6298 57.1432 77.7721 57.2654 77.8743 57.4165C77.9809 57.5632 78.0343 57.7521 78.0343 57.9832C78.0343 58.3432 77.9009 58.6343 77.6343 58.8565C77.3721 59.0787 76.9876 59.1898 76.4809 59.1898Z" fill="#111827"/>
<rect x="38.2672" y="89.4316" width="42.5648" height="25.2752" fill="#FAFAFA"/>
<path d="M43.3569 100.069V94.8693H45.0236L46.1969 99.3293H46.3969L47.5836 94.8693H49.2503V100.069H48.3569V95.6493H48.1903L47.0369 100.069H45.5103L44.3569 95.6493H44.1903V100.069H43.3569ZM51.6903 100.156C51.3303 100.156 51.0303 100.069 50.7903 99.896C50.5503 99.7182 50.3703 99.4716 50.2503 99.156C50.1303 98.8404 50.0703 98.476 50.0703 98.0627C50.0703 97.6449 50.1303 97.2804 50.2503 96.9693C50.3747 96.6538 50.5569 96.4093 50.7969 96.236C51.0369 96.0627 51.3347 95.976 51.6903 95.976C51.9836 95.976 52.2191 96.036 52.3969 96.156C52.5791 96.2716 52.7103 96.416 52.7903 96.5893H52.9503V96.0693H53.7703V100.069H52.9503V99.5493H52.7903C52.7103 99.7138 52.5791 99.856 52.3969 99.976C52.2191 100.096 51.9836 100.156 51.6903 100.156ZM51.8903 99.476C52.1925 99.476 52.4325 99.3493 52.6103 99.096C52.7925 98.8382 52.8836 98.496 52.8836 98.0693C52.8836 97.6382 52.7925 97.296 52.6103 97.0427C52.4325 96.7849 52.1925 96.656 51.8903 96.656C51.6058 96.656 51.3858 96.7782 51.2303 97.0227C51.0747 97.2627 50.9969 97.6116 50.9969 98.0693C50.9969 98.5271 51.0747 98.876 51.2303 99.116C51.3858 99.356 51.6058 99.476 51.8903 99.476ZM54.8369 100.069V96.0693H55.6569V96.6693H55.8169C55.8969 96.456 56.0236 96.2871 56.1969 96.1627C56.3747 96.0338 56.6169 95.9693 56.9236 95.9693C57.3814 95.9693 57.7169 96.1116 57.9303 96.396C58.148 96.676 58.2569 97.0493 58.2569 97.516V100.069H57.3569V97.6827C57.3569 97.3716 57.3014 97.1338 57.1903 96.9693C57.0791 96.8004 56.9036 96.716 56.6636 96.716C56.3703 96.716 56.1414 96.8316 55.9769 97.0627C55.8169 97.2893 55.7369 97.5716 55.7369 97.9093V100.069H54.8369ZM60.6199 100.156C60.2599 100.156 59.9599 100.069 59.7199 99.896C59.4799 99.7182 59.2999 99.4716 59.1799 99.156C59.0599 98.8404 58.9999 98.476 58.9999 98.0627C58.9999 97.6449 59.0599 97.2804 59.1799 96.9693C59.3044 96.6538 59.4866 96.4093 59.7266 96.236C59.9666 96.0627 60.2644 95.976 60.6199 95.976C60.9133 95.976 61.1488 96.036 61.3266 96.156C61.5088 96.2716 61.6399 96.416 61.7199 96.5893H61.8799V96.0693H62.6999V100.069H61.8799V99.5493H61.7199C61.6399 99.7138 61.5088 99.856 61.3266 99.976C61.1488 100.096 60.9133 100.156 60.6199 100.156ZM60.8199 99.476C61.1222 99.476 61.3622 99.3493 61.5399 99.096C61.7222 98.8382 61.8133 98.496 61.8133 98.0693C61.8133 97.6382 61.7222 97.296 61.5399 97.0427C61.3622 96.7849 61.1222 96.656 60.8199 96.656C60.5355 96.656 60.3155 96.7782 60.1599 97.0227C60.0044 97.2627 59.9266 97.6116 59.9266 98.0693C59.9266 98.5271 60.0044 98.876 60.1599 99.116C60.3155 99.356 60.5355 99.476 60.8199 99.476ZM65.3666 101.496C65.0377 101.496 64.7666 101.456 64.5533 101.376C64.3444 101.296 64.1777 101.192 64.0533 101.063C63.9288 100.938 63.8377 100.807 63.7799 100.669C63.7266 100.532 63.6933 100.405 63.6799 100.289H64.5666C64.5933 100.427 64.6666 100.552 64.7866 100.663C64.9111 100.778 65.1088 100.836 65.3799 100.836C65.6777 100.836 65.9044 100.752 66.0599 100.583C66.2155 100.414 66.2933 100.156 66.2933 99.8093V99.3493H66.1333C66.0666 99.5316 65.9488 99.6804 65.7799 99.796C65.6111 99.9071 65.3844 99.9627 65.0999 99.9627C64.5933 99.9627 64.1999 99.7827 63.9199 99.4227C63.6399 99.0627 63.4999 98.5738 63.4999 97.956C63.4999 97.5604 63.5599 97.2138 63.6799 96.916C63.8044 96.6138 63.9866 96.3804 64.2266 96.216C64.4666 96.0516 64.7577 95.9693 65.0999 95.9693C65.3933 95.9693 65.6222 96.0271 65.7866 96.1427C65.9555 96.2538 66.0777 96.396 66.1533 96.5693H66.3133V96.0693H67.1333V99.8093C67.1333 100.352 66.9844 100.767 66.6866 101.056C66.3933 101.349 65.9533 101.496 65.3666 101.496ZM65.2866 99.2827C65.5888 99.2827 65.8244 99.1627 65.9933 98.9227C66.1622 98.6782 66.2466 98.3582 66.2466 97.9627C66.2466 97.5671 66.1622 97.2493 65.9933 97.0093C65.8244 96.7693 65.5911 96.6493 65.2933 96.6493C65.0133 96.6493 64.7955 96.7627 64.6399 96.9893C64.4844 97.2116 64.4066 97.536 64.4066 97.9627C64.4066 98.3982 64.4844 98.7271 64.6399 98.9493C64.7955 99.1716 65.0111 99.2827 65.2866 99.2827ZM69.7963 100.169C69.1874 100.169 68.723 99.9782 68.403 99.596C68.0874 99.2138 67.9296 98.7027 67.9296 98.0627C67.9296 97.636 68.0007 97.2671 68.143 96.956C68.2852 96.6449 68.4941 96.4027 68.7696 96.2293C69.0452 96.056 69.383 95.9693 69.783 95.9693C70.3563 95.9693 70.7941 96.1493 71.0963 96.5093C71.3985 96.8649 71.5496 97.3849 71.5496 98.0693V98.2893H68.803C68.8252 98.6538 68.9185 98.9471 69.083 99.1693C69.2519 99.3916 69.4896 99.5027 69.7963 99.5027C70.0274 99.5027 70.2141 99.436 70.3563 99.3027C70.4985 99.1693 70.5963 98.9982 70.6496 98.7893H71.503C71.4541 99.0471 71.3607 99.2804 71.223 99.4893C71.0896 99.6938 70.9052 99.8582 70.6696 99.9827C70.4341 100.107 70.143 100.169 69.7963 100.169ZM68.8096 97.6893H70.6696C70.6563 97.3427 70.5719 97.0782 70.4163 96.896C70.2652 96.7093 70.0519 96.616 69.7763 96.616C69.4963 96.616 69.2741 96.7071 69.1096 96.8893C68.9452 97.0716 68.8452 97.3382 68.8096 97.6893ZM73.6624 100.156C73.3069 100.156 73.0091 100.069 72.7691 99.896C72.5336 99.7182 72.3558 99.4716 72.2358 99.156C72.1158 98.8404 72.0558 98.476 72.0558 98.0627C72.0558 97.6449 72.1158 97.2804 72.2358 96.9693C72.3602 96.6538 72.5402 96.4093 72.7758 96.236C73.0158 96.0627 73.3091 95.976 73.6558 95.976C73.9224 95.976 74.1402 96.0271 74.3091 96.1293C74.478 96.2271 74.6069 96.3604 74.6958 96.5293H74.8558V94.736H75.7558V100.069H74.9358V99.5493H74.7758C74.6958 99.7138 74.5647 99.856 74.3824 99.976C74.2047 100.096 73.9647 100.156 73.6624 100.156ZM73.8758 99.476C74.178 99.476 74.418 99.3493 74.5958 99.096C74.778 98.8382 74.8691 98.496 74.8691 98.0693C74.8691 97.6382 74.778 97.296 74.5958 97.0427C74.418 96.7849 74.178 96.656 73.8758 96.656C73.5913 96.656 73.3713 96.7782 73.2158 97.0227C73.0602 97.2627 72.9824 97.6116 72.9824 98.0693C72.9824 98.5271 73.0602 98.876 73.2158 99.116C73.3713 99.356 73.5913 99.476 73.8758 99.476ZM43.3663 110.069V104.869H44.2997V110.069H43.3663ZM45.4033 110.069V106.069H46.2233V106.669H46.3833C46.4633 106.456 46.59 106.287 46.7633 106.163C46.9411 106.034 47.1833 105.969 47.49 105.969C47.9478 105.969 48.2833 106.112 48.4967 106.396C48.7144 106.676 48.8233 107.049 48.8233 107.516V110.069H47.9233V107.683C47.9233 107.372 47.8678 107.134 47.7567 106.969C47.6456 106.8 47.47 106.716 47.23 106.716C46.9367 106.716 46.7078 106.832 46.5433 107.063C46.3833 107.289 46.3033 107.572 46.3033 107.909V110.069H45.4033ZM51.233 110.169C50.8286 110.169 50.4997 110.103 50.2463 109.969C49.993 109.832 49.8063 109.656 49.6863 109.443C49.5663 109.229 49.4975 109.012 49.4797 108.789H50.3463C50.3641 108.914 50.4086 109.032 50.4797 109.143C50.5552 109.254 50.6575 109.343 50.7863 109.409C50.9152 109.476 51.0775 109.509 51.273 109.509C51.4952 109.509 51.6619 109.467 51.773 109.383C51.8841 109.294 51.9397 109.178 51.9397 109.036C51.9397 108.912 51.893 108.807 51.7997 108.723C51.7063 108.634 51.5597 108.556 51.3597 108.489L50.8797 108.323C50.6575 108.243 50.4552 108.156 50.273 108.063C50.0908 107.965 49.9441 107.843 49.833 107.696C49.7219 107.549 49.6663 107.36 49.6663 107.129C49.6663 106.778 49.7952 106.498 50.053 106.289C50.3108 106.076 50.6708 105.969 51.133 105.969C51.4663 105.969 51.7397 106.025 51.953 106.136C52.1708 106.243 52.3352 106.389 52.4463 106.576C52.5575 106.758 52.6219 106.963 52.6397 107.189H51.8063C51.7886 107.025 51.7219 106.887 51.6063 106.776C51.4952 106.665 51.3263 106.609 51.0997 106.609C50.9086 106.609 50.7619 106.649 50.6597 106.729C50.5619 106.805 50.513 106.912 50.513 107.049C50.513 107.183 50.5619 107.294 50.6597 107.383C50.7619 107.467 50.9152 107.545 51.1197 107.616L51.593 107.769C51.8152 107.845 52.0175 107.932 52.1997 108.029C52.3819 108.123 52.5241 108.245 52.6263 108.396C52.733 108.543 52.7863 108.732 52.7863 108.963C52.7863 109.323 52.653 109.614 52.3863 109.836C52.1241 110.058 51.7397 110.169 51.233 110.169ZM54.0828 110.069C53.9806 109.949 53.8984 109.805 53.8361 109.636C53.7784 109.467 53.7495 109.214 53.7495 108.876V106.729H53.2028V106.069H53.7628V105.069H54.6428V106.069H55.3028V106.729H54.6495V108.763C54.6495 109.118 54.6873 109.389 54.7628 109.576C54.8428 109.758 54.9384 109.909 55.0495 110.029V110.069H54.0828ZM57.3895 110.156C57.0295 110.156 56.7295 110.069 56.4895 109.896C56.2495 109.718 56.0695 109.472 55.9495 109.156C55.8295 108.84 55.7695 108.476 55.7695 108.063C55.7695 107.645 55.8295 107.28 55.9495 106.969C56.0739 106.654 56.2561 106.409 56.4961 106.236C56.7361 106.063 57.0339 105.976 57.3895 105.976C57.6828 105.976 57.9184 106.036 58.0961 106.156C58.2784 106.272 58.4095 106.416 58.4895 106.589H58.6495V106.069H59.4695V110.069H58.6495V109.549H58.4895C58.4095 109.714 58.2784 109.856 58.0961 109.976C57.9184 110.096 57.6828 110.156 57.3895 110.156ZM57.5895 109.476C57.8917 109.476 58.1317 109.349 58.3095 109.096C58.4917 108.838 58.5828 108.496 58.5828 108.069C58.5828 107.638 58.4917 107.296 58.3095 107.043C58.1317 106.785 57.8917 106.656 57.5895 106.656C57.305 106.656 57.085 106.778 56.9295 107.023C56.7739 107.263 56.6961 107.612 56.6961 108.069C56.6961 108.527 56.7739 108.876 56.9295 109.116C57.085 109.356 57.305 109.476 57.5895 109.476ZM60.5361 110.069V106.069H61.3561V106.669H61.5161C61.5961 106.456 61.7228 106.287 61.8961 106.163C62.0739 106.034 62.3161 105.969 62.6228 105.969C63.0806 105.969 63.4161 106.112 63.6295 106.396C63.8473 106.676 63.9561 107.049 63.9561 107.516V110.069H63.0561V107.683C63.0561 107.372 63.0006 107.134 62.8895 106.969C62.7784 106.8 62.6028 106.716 62.3628 106.716C62.0695 106.716 61.8406 106.832 61.6761 107.063C61.5161 107.289 61.4361 107.572 61.4361 107.909V110.069H60.5361ZM66.5192 110.169C65.9192 110.169 65.4658 109.978 65.1592 109.596C64.8525 109.214 64.6992 108.705 64.6992 108.069C64.6992 107.407 64.8592 106.892 65.1792 106.523C65.4992 106.154 65.9481 105.969 66.5258 105.969C67.0236 105.969 67.4192 106.105 67.7125 106.376C68.0058 106.643 68.1836 107.018 68.2458 107.503H67.3592C67.3236 107.227 67.2347 107.016 67.0925 106.869C66.9547 106.718 66.7703 106.643 66.5392 106.643C66.2325 106.643 66.0036 106.769 65.8525 107.023C65.7014 107.272 65.6258 107.62 65.6258 108.069C65.6258 108.518 65.7014 108.869 65.8525 109.123C66.0036 109.372 66.2303 109.496 66.5325 109.496C66.7681 109.496 66.9547 109.42 67.0925 109.269C67.2347 109.118 67.3236 108.907 67.3592 108.636H68.2458C68.1792 109.116 67.9969 109.492 67.6992 109.763C67.4058 110.034 67.0125 110.169 66.5192 110.169ZM70.5971 110.169C69.9882 110.169 69.5237 109.978 69.2037 109.596C68.8882 109.214 68.7304 108.703 68.7304 108.063C68.7304 107.636 68.8015 107.267 68.9437 106.956C69.086 106.645 69.2949 106.403 69.5704 106.229C69.846 106.056 70.1837 105.969 70.5837 105.969C71.1571 105.969 71.5949 106.149 71.8971 106.509C72.1993 106.865 72.3504 107.385 72.3504 108.069V108.289H69.6037C69.626 108.654 69.7193 108.947 69.8837 109.169C70.0526 109.392 70.2904 109.503 70.5971 109.503C70.8282 109.503 71.0149 109.436 71.1571 109.303C71.2993 109.169 71.3971 108.998 71.4504 108.789H72.3037C72.2549 109.047 72.1615 109.28 72.0237 109.489C71.8904 109.694 71.706 109.858 71.4704 109.983C71.2349 110.107 70.9437 110.169 70.5971 110.169ZM69.6104 107.689H71.4704C71.4571 107.343 71.3726 107.078 71.2171 106.896C71.066 106.709 70.8526 106.616 70.5771 106.616C70.2971 106.616 70.0749 106.707 69.9104 106.889C69.746 107.072 69.646 107.338 69.6104 107.689ZM74.5299 110.169C74.1254 110.169 73.7966 110.103 73.5432 109.969C73.2899 109.832 73.1032 109.656 72.9832 109.443C72.8632 109.229 72.7943 109.012 72.7766 108.789H73.6432C73.661 108.914 73.7054 109.032 73.7766 109.143C73.8521 109.254 73.9543 109.343 74.0832 109.409C74.2121 109.476 74.3743 109.509 74.5699 109.509C74.7921 109.509 74.9588 109.467 75.0699 109.383C75.181 109.294 75.2366 109.178 75.2366 109.036C75.2366 108.912 75.1899 108.807 75.0966 108.723C75.0032 108.634 74.8566 108.556 74.6566 108.489L74.1766 108.323C73.9543 108.243 73.7521 108.156 73.5699 108.063C73.3877 107.965 73.241 107.843 73.1299 107.696C73.0188 107.549 72.9632 107.36 72.9632 107.129C72.9632 106.778 73.0921 106.498 73.3499 106.289C73.6077 106.076 73.9677 105.969 74.4299 105.969C74.7632 105.969 75.0366 106.025 75.2499 106.136C75.4677 106.243 75.6321 106.389 75.7432 106.576C75.8543 106.758 75.9188 106.963 75.9366 107.189H75.1032C75.0854 107.025 75.0188 106.887 74.9032 106.776C74.7921 106.665 74.6232 106.609 74.3966 106.609C74.2054 106.609 74.0588 106.649 73.9566 106.729C73.8588 106.805 73.8099 106.912 73.8099 107.049C73.8099 107.183 73.8588 107.294 73.9566 107.383C74.0588 107.467 74.2121 107.545 74.4166 107.616L74.8899 107.769C75.1121 107.845 75.3143 107.932 75.4966 108.029C75.6788 108.123 75.821 108.245 75.9232 108.396C76.0299 108.543 76.0832 108.732 76.0832 108.963C76.0832 109.323 75.9499 109.614 75.6832 109.836C75.421 110.058 75.0366 110.169 74.5299 110.169Z" fill="#111827"/>
<rect x="227.214" y="63.3965" width="53.84" height="25.0395" fill="#FAFAFA"/>
<path d="M231.274 73.916V68.716H233.054C233.965 68.716 234.625 68.9449 235.034 69.4027C235.443 69.856 235.647 70.4938 235.647 71.316C235.647 72.1382 235.443 72.7782 235.034 73.236C234.625 73.6893 233.965 73.916 233.054 73.916H231.274ZM232.214 73.1693H232.987C233.383 73.1693 233.705 73.1071 233.954 72.9827C234.207 72.8582 234.391 72.6605 234.507 72.3893C234.627 72.1138 234.687 71.756 234.687 71.316C234.687 70.8716 234.627 70.5138 234.507 70.2427C234.391 69.9716 234.207 69.7738 233.954 69.6493C233.705 69.5249 233.383 69.4627 232.987 69.4627H232.214V73.1693ZM238.018 74.016C237.409 74.016 236.944 73.8249 236.624 73.4427C236.309 73.0605 236.151 72.5493 236.151 71.9093C236.151 71.4827 236.222 71.1138 236.364 70.8027C236.507 70.4916 236.716 70.2493 236.991 70.076C237.267 69.9027 237.604 69.816 238.004 69.816C238.578 69.816 239.016 69.996 239.318 70.356C239.62 70.7116 239.771 71.2316 239.771 71.916V72.136H237.024C237.047 72.5005 237.14 72.7938 237.304 73.016C237.473 73.2382 237.711 73.3493 238.018 73.3493C238.249 73.3493 238.436 73.2827 238.578 73.1493C238.72 73.016 238.818 72.8449 238.871 72.636H239.724C239.676 72.8938 239.582 73.1271 239.444 73.336C239.311 73.5405 239.127 73.7049 238.891 73.8293C238.656 73.9538 238.364 74.016 238.018 74.016ZM237.031 71.536H238.891C238.878 71.1893 238.793 70.9249 238.638 70.7427C238.487 70.556 238.273 70.4627 237.998 70.4627C237.718 70.4627 237.496 70.5538 237.331 70.736C237.167 70.9182 237.067 71.1849 237.031 71.536ZM241.234 73.916L240.047 69.956V69.916H240.954L241.887 73.176H242.047L242.987 69.916H243.814V69.956L242.634 73.916H241.234ZM246.049 74.016C245.44 74.016 244.976 73.8249 244.656 73.4427C244.34 73.0605 244.182 72.5493 244.182 71.9093C244.182 71.4827 244.253 71.1138 244.396 70.8027C244.538 70.4916 244.747 70.2493 245.022 70.076C245.298 69.9027 245.636 69.816 246.036 69.816C246.609 69.816 247.047 69.996 247.349 70.356C247.651 70.7116 247.802 71.2316 247.802 71.916V72.136H245.056C245.078 72.5005 245.171 72.7938 245.336 73.016C245.505 73.2382 245.742 73.3493 246.049 73.3493C246.28 73.3493 246.467 73.2827 246.609 73.1493C246.751 73.016 246.849 72.8449 246.902 72.636H247.756C247.707 72.8938 247.613 73.1271 247.476 73.336C247.342 73.5405 247.158 73.7049 246.922 73.8293C246.687 73.9538 246.396 74.016 246.049 74.016ZM245.062 71.536H246.922C246.909 71.1893 246.825 70.9249 246.669 70.7427C246.518 70.556 246.305 70.4627 246.029 70.4627C245.749 70.4627 245.527 70.5538 245.362 70.736C245.198 70.9182 245.098 71.1849 245.062 71.536ZM248.895 73.916C248.784 73.7827 248.7 73.6293 248.642 73.456C248.588 73.2827 248.562 73.0382 248.562 72.7227V68.5827H249.462V72.616C249.462 72.9627 249.5 73.2293 249.575 73.416C249.651 73.5982 249.748 73.7516 249.868 73.876V73.916H248.895ZM252.178 74.016C251.543 74.016 251.069 73.8271 250.758 73.4493C250.447 73.0671 250.292 72.556 250.292 71.916C250.292 71.276 250.447 70.7671 250.758 70.3893C251.069 70.0071 251.543 69.816 252.178 69.816C252.814 69.816 253.287 70.0071 253.598 70.3893C253.909 70.7671 254.065 71.276 254.065 71.916C254.065 72.556 253.909 73.0671 253.598 73.4493C253.287 73.8271 252.814 74.016 252.178 74.016ZM252.178 73.3627C252.507 73.3627 252.749 73.2382 252.905 72.9893C253.061 72.736 253.138 72.3782 253.138 71.916C253.138 71.4493 253.061 71.0916 252.905 70.8427C252.749 70.5938 252.507 70.4693 252.178 70.4693C251.845 70.4693 251.601 70.5938 251.445 70.8427C251.294 71.0916 251.218 71.4493 251.218 71.916C251.218 72.3782 251.294 72.736 251.445 72.9893C251.601 73.2382 251.845 73.3627 252.178 73.3627ZM254.855 75.2493V69.916H255.675V70.436H255.835C255.92 70.2716 256.051 70.1293 256.229 70.0093C256.411 69.8849 256.653 69.8227 256.955 69.8227C257.306 69.8227 257.6 69.9116 257.835 70.0893C258.075 70.2627 258.255 70.5071 258.375 70.8227C258.5 71.1382 258.562 71.5027 258.562 71.916C258.562 72.3338 258.5 72.7005 258.375 73.016C258.255 73.3271 258.075 73.5693 257.835 73.7427C257.6 73.916 257.309 74.0027 256.962 74.0027C256.695 74.0027 256.477 73.9538 256.309 73.856C256.14 73.7538 256.009 73.6205 255.915 73.456H255.755V75.2493H254.855ZM256.735 73.3227C257.02 73.3227 257.24 73.2027 257.395 72.9627C257.555 72.7227 257.635 72.3738 257.635 71.916C257.635 71.4582 257.555 71.1093 257.395 70.8693C257.24 70.6249 257.02 70.5027 256.735 70.5027C256.433 70.5027 256.193 70.6316 256.015 70.8893C255.837 71.1427 255.749 71.4849 255.749 71.916C255.749 72.3427 255.837 72.6849 256.015 72.9427C256.193 73.196 256.433 73.3227 256.735 73.3227ZM259.355 73.916V69.916H260.175V70.516H260.335C260.406 70.3071 260.526 70.1382 260.695 70.0093C260.864 69.8805 261.095 69.816 261.389 69.816C261.669 69.816 261.9 69.8782 262.082 70.0027C262.269 70.1271 262.406 70.2982 262.495 70.516H262.655C262.735 70.3027 262.862 70.1338 263.035 70.0093C263.213 69.8805 263.449 69.816 263.742 69.816C264.177 69.816 264.497 69.9582 264.702 70.2427C264.906 70.5227 265.009 70.896 265.009 71.3627V73.916H264.109V71.5293C264.109 71.2182 264.057 70.9805 263.955 70.816C263.857 70.6471 263.697 70.5627 263.475 70.5627C263.204 70.5627 262.995 70.6782 262.849 70.9093C262.706 71.136 262.635 71.4182 262.635 71.756V73.916H261.735V71.5293C261.735 71.2182 261.684 70.9805 261.582 70.816C261.484 70.6471 261.324 70.5627 261.102 70.5627C260.831 70.5627 260.622 70.6782 260.475 70.9093C260.329 71.136 260.255 71.4182 260.255 71.756V73.916H259.355ZM267.619 74.016C267.01 74.016 266.546 73.8249 266.226 73.4427C265.91 73.0605 265.753 72.5493 265.753 71.9093C265.753 71.4827 265.824 71.1138 265.966 70.8027C266.108 70.4916 266.317 70.2493 266.593 70.076C266.868 69.9027 267.206 69.816 267.606 69.816C268.179 69.816 268.617 69.996 268.919 70.356C269.222 70.7116 269.373 71.2316 269.373 71.916V72.136H266.626C266.648 72.5005 266.742 72.7938 266.906 73.016C267.075 73.2382 267.313 73.3493 267.619 73.3493C267.85 73.3493 268.037 73.2827 268.179 73.1493C268.322 73.016 268.419 72.8449 268.473 72.636H269.326C269.277 72.8938 269.184 73.1271 269.046 73.336C268.913 73.5405 268.728 73.7049 268.493 73.8293C268.257 73.9538 267.966 74.016 267.619 74.016ZM266.633 71.536H268.493C268.479 71.1893 268.395 70.9249 268.239 70.7427C268.088 70.556 267.875 70.4627 267.599 70.4627C267.319 70.4627 267.097 70.5538 266.933 70.736C266.768 70.9182 266.668 71.1849 266.633 71.536ZM270.152 73.916V69.916H270.972V70.516H271.132C271.212 70.3027 271.339 70.1338 271.512 70.0093C271.69 69.8805 271.932 69.816 272.239 69.816C272.697 69.816 273.032 69.9582 273.245 70.2427C273.463 70.5227 273.572 70.896 273.572 71.3627V73.916H272.672V71.5293C272.672 71.2182 272.617 70.9805 272.505 70.816C272.394 70.6471 272.219 70.5627 271.979 70.5627C271.685 70.5627 271.457 70.6782 271.292 70.9093C271.132 71.136 271.052 71.4182 271.052 71.756V73.916H270.152ZM275.128 73.916C275.026 73.796 274.944 73.6516 274.882 73.4827C274.824 73.3138 274.795 73.0605 274.795 72.7227V70.576H274.248V69.916H274.808V68.916H275.688V69.916H276.348V70.576H275.695V72.6093C275.695 72.9649 275.733 73.236 275.808 73.4227C275.888 73.6049 275.984 73.756 276.095 73.876V73.916H275.128ZM239.11 84.016C238.372 84.016 237.799 83.7782 237.39 83.3027C236.981 82.8271 236.777 82.1649 236.777 81.316C236.777 80.4671 236.979 79.8049 237.383 79.3293C237.792 78.8538 238.366 78.616 239.103 78.616C239.539 78.616 239.915 78.6982 240.23 78.8627C240.546 79.0271 240.792 79.256 240.97 79.5493C241.152 79.8427 241.261 80.1827 241.297 80.5693H240.363C240.323 80.1871 240.192 79.8871 239.97 79.6693C239.748 79.4471 239.459 79.336 239.103 79.336C238.659 79.336 238.319 79.5093 238.083 79.856C237.852 80.1982 237.737 80.6849 237.737 81.316C237.737 81.9605 237.855 82.4516 238.09 82.7893C238.33 83.1271 238.666 83.296 239.097 83.296C239.47 83.296 239.766 83.1805 239.983 82.9493C240.201 82.7182 240.328 82.4227 240.363 82.0627H241.297C241.261 82.4449 241.152 82.7849 240.97 83.0827C240.792 83.376 240.546 83.6049 240.23 83.7693C239.919 83.9338 239.546 84.016 239.11 84.016ZM243.659 84.016C243.023 84.016 242.55 83.8271 242.239 83.4493C241.928 83.0671 241.772 82.556 241.772 81.916C241.772 81.276 241.928 80.7671 242.239 80.3893C242.55 80.0071 243.023 79.816 243.659 79.816C244.294 79.816 244.768 80.0071 245.079 80.3893C245.39 80.7671 245.545 81.276 245.545 81.916C245.545 82.556 245.39 83.0671 245.079 83.4493C244.768 83.8271 244.294 84.016 243.659 84.016ZM243.659 83.3627C243.988 83.3627 244.23 83.2382 244.385 82.9893C244.541 82.736 244.619 82.3782 244.619 81.916C244.619 81.4493 244.541 81.0916 244.385 80.8427C244.23 80.5938 243.988 80.4693 243.659 80.4693C243.325 80.4693 243.081 80.5938 242.925 80.8427C242.774 81.0916 242.699 81.4493 242.699 81.916C242.699 82.3782 242.774 82.736 242.925 82.9893C243.081 83.2382 243.325 83.3627 243.659 83.3627ZM246.336 83.916V79.916H247.156V80.516H247.316C247.396 80.3027 247.522 80.1338 247.696 80.0093C247.873 79.8805 248.116 79.816 248.422 79.816C248.88 79.816 249.216 79.9582 249.429 80.2427C249.647 80.5227 249.756 80.896 249.756 81.3627V83.916H248.856V81.5293C248.856 81.2182 248.8 80.9805 248.689 80.816C248.578 80.6471 248.402 80.5627 248.162 80.5627C247.869 80.5627 247.64 80.6782 247.476 80.9093C247.316 81.136 247.236 81.4182 247.236 81.756V83.916H246.336ZM251.312 83.916C251.21 83.796 251.128 83.6516 251.065 83.4827C251.008 83.3138 250.979 83.0605 250.979 82.7227V80.576H250.432V79.916H250.992V78.916H251.872V79.916H252.532V80.576H251.879V82.6093C251.879 82.9649 251.917 83.236 251.992 83.4227C252.072 83.6049 252.168 83.756 252.279 83.876V83.916H251.312ZM254.619 84.0027C254.259 84.0027 253.959 83.916 253.719 83.7427C253.479 83.5649 253.299 83.3182 253.179 83.0027C253.059 82.6871 252.999 82.3227 252.999 81.9093C252.999 81.4916 253.059 81.1271 253.179 80.816C253.303 80.5005 253.485 80.256 253.725 80.0827C253.965 79.9093 254.263 79.8227 254.619 79.8227C254.912 79.8227 255.148 79.8827 255.325 80.0027C255.508 80.1182 255.639 80.2627 255.719 80.436H255.879V79.916H256.699V83.916H255.879V83.396H255.719C255.639 83.5605 255.508 83.7027 255.325 83.8227C255.148 83.9427 254.912 84.0027 254.619 84.0027ZM254.819 83.3227C255.121 83.3227 255.361 83.196 255.539 82.9427C255.721 82.6849 255.812 82.3427 255.812 81.916C255.812 81.4849 255.721 81.1427 255.539 80.8893C255.361 80.6316 255.121 80.5027 254.819 80.5027C254.534 80.5027 254.314 80.6249 254.159 80.8693C254.003 81.1093 253.925 81.4582 253.925 81.916C253.925 82.3738 254.003 82.7227 254.159 82.9627C254.314 83.2027 254.534 83.3227 254.819 83.3227ZM257.765 83.916V79.916H258.665V83.916H257.765ZM258.219 79.4027C258.054 79.4027 257.928 79.3582 257.839 79.2693C257.754 79.1805 257.712 79.0627 257.712 78.916C257.712 78.7693 257.754 78.6516 257.839 78.5627C257.928 78.4693 258.054 78.4227 258.219 78.4227C258.388 78.4227 258.514 78.4693 258.599 78.5627C258.688 78.6516 258.732 78.7693 258.732 78.916C258.732 79.0627 258.688 79.1805 258.599 79.2693C258.514 79.3582 258.388 79.4027 258.219 79.4027ZM259.734 83.916V79.916H260.554V80.516H260.714C260.794 80.3027 260.921 80.1338 261.094 80.0093C261.272 79.8805 261.514 79.816 261.821 79.816C262.279 79.816 262.614 79.9582 262.827 80.2427C263.045 80.5227 263.154 80.896 263.154 81.3627V83.916H262.254V81.5293C262.254 81.2182 262.199 80.9805 262.087 80.816C261.976 80.6471 261.801 80.5627 261.561 80.5627C261.267 80.5627 261.039 80.6782 260.874 80.9093C260.714 81.136 260.634 81.4182 260.634 81.756V83.916H259.734ZM265.764 84.016C265.155 84.016 264.69 83.8249 264.37 83.4427C264.055 83.0605 263.897 82.5493 263.897 81.9093C263.897 81.4827 263.968 81.1138 264.11 80.8027C264.253 80.4916 264.462 80.2493 264.737 80.076C265.013 79.9027 265.35 79.816 265.75 79.816C266.324 79.816 266.762 79.996 267.064 80.356C267.366 80.7116 267.517 81.2316 267.517 81.916V82.136H264.77C264.793 82.5005 264.886 82.7938 265.05 83.016C265.219 83.2382 265.457 83.3493 265.764 83.3493C265.995 83.3493 266.182 83.2827 266.324 83.1493C266.466 83.016 266.564 82.8449 266.617 82.636H267.47C267.422 82.8938 267.328 83.1271 267.19 83.336C267.057 83.5405 266.873 83.7049 266.637 83.8293C266.402 83.9538 266.11 84.016 265.764 84.016ZM264.777 81.536H266.637C266.624 81.1893 266.539 80.9249 266.384 80.7427C266.233 80.556 266.019 80.4627 265.744 80.4627C265.464 80.4627 265.242 80.5538 265.077 80.736C264.913 80.9182 264.813 81.1849 264.777 81.536ZM268.297 83.916V79.916H269.11V80.6227H269.27C269.297 80.4982 269.346 80.3805 269.417 80.2693C269.488 80.1538 269.597 80.0605 269.743 79.9893C269.894 79.9138 270.099 79.876 270.357 79.876H270.53V80.7027H270.283C269.897 80.7027 269.619 80.8027 269.45 81.0027C269.281 81.1982 269.197 81.5027 269.197 81.916V83.916H268.297Z" fill="#111827"/>
<rect x="0.945557" y="13.1357" width="49.1719" height="24.9773" fill="#FAFAFA"/>
<path d="M11.6825 23.082V17.882H15.1225V18.6354H12.6092V19.942H14.5692V20.6487H12.6092V22.3287H15.1625V23.082H11.6825ZM15.5897 23.082V23.042L16.843 20.9754L15.7363 19.122V19.082H16.6897L17.423 20.3687H17.563L18.2763 19.082H19.1697V19.122L18.0963 20.9554L19.343 23.042V23.082H18.3563L17.4963 21.5687H17.3563L16.5163 23.082H15.5897ZM20.506 23.082C20.4038 22.962 20.3216 22.8176 20.2594 22.6487C20.2016 22.4798 20.1727 22.2265 20.1727 21.8887V19.742H19.626V19.082H20.186V18.082H21.066V19.082H21.726V19.742H21.0727V21.7754C21.0727 22.1309 21.1105 22.402 21.186 22.5887C21.266 22.7709 21.3616 22.922 21.4727 23.042V23.082H20.506ZM24.0594 23.182C23.4505 23.182 22.986 22.9909 22.666 22.6087C22.3505 22.2265 22.1927 21.7154 22.1927 21.0754C22.1927 20.6487 22.2638 20.2798 22.406 19.9687C22.5482 19.6576 22.7571 19.4154 23.0327 19.242C23.3082 19.0687 23.646 18.982 24.046 18.982C24.6194 18.982 25.0571 19.162 25.3594 19.522C25.6616 19.8776 25.8127 20.3976 25.8127 21.082V21.302H23.066C23.0882 21.6665 23.1816 21.9598 23.346 22.182C23.5149 22.4043 23.7527 22.5154 24.0594 22.5154C24.2905 22.5154 24.4771 22.4487 24.6194 22.3154C24.7616 22.182 24.8594 22.0109 24.9127 21.802H25.766C25.7171 22.0598 25.6238 22.2931 25.486 22.502C25.3527 22.7065 25.1682 22.8709 24.9327 22.9954C24.6971 23.1198 24.406 23.182 24.0594 23.182ZM23.0727 20.702H24.9327C24.9194 20.3554 24.8349 20.0909 24.6794 19.9087C24.5282 19.722 24.3149 19.6287 24.0394 19.6287C23.7594 19.6287 23.5371 19.7198 23.3727 19.902C23.2082 20.0843 23.1082 20.3509 23.0727 20.702ZM26.5922 23.082V19.082H27.4055V19.7887H27.5655C27.5922 19.6643 27.6411 19.5465 27.7122 19.4354C27.7833 19.3198 27.8922 19.2265 28.0388 19.1554C28.1899 19.0798 28.3944 19.042 28.6522 19.042H28.8255V19.8687H28.5788C28.1922 19.8687 27.9144 19.9687 27.7455 20.1687C27.5766 20.3643 27.4922 20.6687 27.4922 21.082V23.082H26.5922ZM29.5609 23.082V19.082H30.3809V19.682H30.5409C30.6209 19.4687 30.7476 19.2998 30.9209 19.1754C31.0987 19.0465 31.3409 18.982 31.6476 18.982C32.1054 18.982 32.4409 19.1243 32.6543 19.4087C32.872 19.6887 32.9809 20.062 32.9809 20.5287V23.082H32.0809V20.6954C32.0809 20.3843 32.0254 20.1465 31.9143 19.982C31.8031 19.8131 31.6276 19.7287 31.3876 19.7287C31.0943 19.7287 30.8654 19.8443 30.7009 20.0754C30.5409 20.302 30.4609 20.5843 30.4609 20.922V23.082H29.5609ZM35.3439 23.1687C34.9839 23.1687 34.6839 23.082 34.4439 22.9087C34.2039 22.7309 34.0239 22.4843 33.9039 22.1687C33.7839 21.8531 33.7239 21.4887 33.7239 21.0754C33.7239 20.6576 33.7839 20.2931 33.9039 19.982C34.0284 19.6665 34.2106 19.422 34.4506 19.2487C34.6906 19.0754 34.9884 18.9887 35.3439 18.9887C35.6373 18.9887 35.8728 19.0487 36.0506 19.1687C36.2328 19.2843 36.3639 19.4287 36.4439 19.602H36.6039V19.082H37.4239V23.082H36.6039V22.562H36.4439C36.3639 22.7265 36.2328 22.8687 36.0506 22.9887C35.8728 23.1087 35.6373 23.1687 35.3439 23.1687ZM35.5439 22.4887C35.8462 22.4887 36.0862 22.362 36.2639 22.1087C36.4462 21.8509 36.5373 21.5087 36.5373 21.082C36.5373 20.6509 36.4462 20.3087 36.2639 20.0554C36.0862 19.7976 35.8462 19.6687 35.5439 19.6687C35.2595 19.6687 35.0395 19.7909 34.8839 20.0354C34.7284 20.2754 34.6506 20.6243 34.6506 21.082C34.6506 21.5398 34.7284 21.8887 34.8839 22.1287C35.0395 22.3687 35.2595 22.4887 35.5439 22.4887ZM38.8039 23.082C38.6928 22.9487 38.6084 22.7954 38.5506 22.622C38.4973 22.4487 38.4706 22.2043 38.4706 21.8887V17.7487H39.3706V21.782C39.3706 22.1287 39.4084 22.3954 39.4839 22.582C39.5595 22.7643 39.6573 22.9176 39.7773 23.042V23.082H38.8039ZM6.33483 33.082V27.882H7.24816V29.982H7.64816L9.26816 27.882H10.3082V27.922L8.40816 30.3154L10.5348 33.042V33.082H9.41483L7.64816 30.7554H7.24816V33.082H6.33483ZM12.1718 33.182C11.7185 33.182 11.3807 33.0398 11.1585 32.7554C10.9407 32.4709 10.8318 32.0976 10.8318 31.6354V29.082H11.7318V31.4687C11.7318 31.7754 11.7874 32.0131 11.8985 32.182C12.0096 32.3509 12.1851 32.4354 12.4251 32.4354C12.7229 32.4354 12.9518 32.3198 13.1118 32.0887C13.2718 31.8576 13.3518 31.5731 13.3518 31.2354V29.082H14.2518V33.082H13.4451V32.482H13.2851C13.2185 32.6909 13.0918 32.8598 12.9051 32.9887C12.7229 33.1176 12.4785 33.182 12.1718 33.182ZM17.4148 33.1687C17.1126 33.1687 16.8704 33.1087 16.6882 32.9887C16.5104 32.8687 16.3793 32.7265 16.2948 32.562H16.1348V33.082H15.3148V27.7487H16.2148V29.542H16.3748C16.4682 29.3731 16.5993 29.2398 16.7682 29.142C16.937 29.0398 17.1548 28.9887 17.4215 28.9887C17.7682 28.9887 18.0593 29.0754 18.2948 29.2487C18.5348 29.422 18.7148 29.6665 18.8348 29.982C18.9593 30.2931 19.0215 30.6576 19.0215 31.0754C19.0215 31.4887 18.9593 31.8531 18.8348 32.1687C18.7148 32.4843 18.5348 32.7309 18.2948 32.9087C18.0593 33.082 17.7659 33.1687 17.4148 33.1687ZM17.1948 32.4887C17.4793 32.4887 17.6993 32.3687 17.8548 32.1287C18.0148 31.8887 18.0948 31.5398 18.0948 31.082C18.0948 30.6243 18.0148 30.2754 17.8548 30.0354C17.6993 29.7909 17.4793 29.6687 17.1948 29.6687C16.8926 29.6687 16.6526 29.7976 16.4748 30.0554C16.297 30.3087 16.2082 30.6509 16.2082 31.082C16.2082 31.5087 16.297 31.8509 16.4748 32.1087C16.6526 32.362 16.8926 32.4887 17.1948 32.4887ZM21.4148 33.182C20.8059 33.182 20.3415 32.9909 20.0215 32.6087C19.7059 32.2265 19.5482 31.7154 19.5482 31.0754C19.5482 30.6487 19.6193 30.2798 19.7615 29.9687C19.9037 29.6576 20.1126 29.4154 20.3882 29.242C20.6637 29.0687 21.0015 28.982 21.4015 28.982C21.9748 28.982 22.4126 29.162 22.7148 29.522C23.017 29.8776 23.1682 30.3976 23.1682 31.082V31.302H20.4215C20.4437 31.6665 20.537 31.9598 20.7015 32.182C20.8704 32.4043 21.1082 32.5154 21.4148 32.5154C21.6459 32.5154 21.8326 32.4487 21.9748 32.3154C22.117 32.182 22.2148 32.0109 22.2682 31.802H23.1215C23.0726 32.0598 22.9793 32.2931 22.8415 32.502C22.7082 32.7065 22.5237 32.8709 22.2882 32.9954C22.0526 33.1198 21.7615 33.182 21.4148 33.182ZM20.4282 30.702H22.2882C22.2748 30.3554 22.1904 30.0909 22.0348 29.9087C21.8837 29.722 21.6704 29.6287 21.3948 29.6287C21.1148 29.6287 20.8926 29.7198 20.7282 29.902C20.5637 30.0843 20.4637 30.3509 20.4282 30.702ZM23.9476 33.082V29.082H24.761V29.7887H24.921C24.9476 29.6643 24.9965 29.5465 25.0676 29.4354C25.1388 29.3198 25.2476 29.2265 25.3943 29.1554C25.5454 29.0798 25.7499 29.042 26.0076 29.042H26.181V29.8687H25.9343C25.5476 29.8687 25.2699 29.9687 25.101 30.1687C24.9321 30.3643 24.8476 30.6687 24.8476 31.082V33.082H23.9476ZM26.9164 33.082V29.082H27.7364V29.682H27.8964C27.9764 29.4687 28.1031 29.2998 28.2764 29.1754C28.4542 29.0465 28.6964 28.982 29.0031 28.982C29.4608 28.982 29.7964 29.1243 30.0097 29.4087C30.2275 29.6887 30.3364 30.062 30.3364 30.5287V33.082H29.4364V30.6954C29.4364 30.3843 29.3808 30.1465 29.2697 29.982C29.1586 29.8131 28.9831 29.7287 28.7431 29.7287C28.4497 29.7287 28.2208 29.8443 28.0564 30.0754C27.8964 30.302 27.8164 30.5843 27.8164 30.922V33.082H26.9164ZM32.9461 33.182C32.3372 33.182 31.8727 32.9909 31.5527 32.6087C31.2372 32.2265 31.0794 31.7154 31.0794 31.0754C31.0794 30.6487 31.1505 30.2798 31.2927 29.9687C31.435 29.6576 31.6439 29.4154 31.9194 29.242C32.195 29.0687 32.5327 28.982 32.9327 28.982C33.5061 28.982 33.9439 29.162 34.2461 29.522C34.5483 29.8776 34.6994 30.3976 34.6994 31.082V31.302H31.9527C31.975 31.6665 32.0683 31.9598 32.2327 32.182C32.4016 32.4043 32.6394 32.5154 32.9461 32.5154C33.1772 32.5154 33.3639 32.4487 33.5061 32.3154C33.6483 32.182 33.7461 32.0109 33.7994 31.802H34.6527C34.6039 32.0598 34.5105 32.2931 34.3727 32.502C34.2394 32.7065 34.055 32.8709 33.8194 32.9954C33.5839 33.1198 33.2927 33.182 32.9461 33.182ZM31.9594 30.702H33.8194C33.8061 30.3554 33.7216 30.0909 33.5661 29.9087C33.415 29.722 33.2016 29.6287 32.9261 29.6287C32.6461 29.6287 32.4239 29.7198 32.2594 29.902C32.095 30.0843 31.995 30.3509 31.9594 30.702ZM36.0256 33.082C35.9233 32.962 35.8411 32.8176 35.7789 32.6487C35.7211 32.4798 35.6922 32.2265 35.6922 31.8887V29.742H35.1456V29.082H35.7056V28.082H36.5856V29.082H37.2456V29.742H36.5922V31.7754C36.5922 32.1309 36.63 32.402 36.7056 32.5887C36.7856 32.7709 36.8811 32.922 36.9922 33.042V33.082H36.0256ZM39.5789 33.182C38.97 33.182 38.5056 32.9909 38.1856 32.6087C37.87 32.2265 37.7122 31.7154 37.7122 31.0754C37.7122 30.6487 37.7833 30.2798 37.9256 29.9687C38.0678 29.6576 38.2767 29.4154 38.5522 29.242C38.8278 29.0687 39.1656 28.982 39.5656 28.982C40.1389 28.982 40.5767 29.162 40.8789 29.522C41.1811 29.8776 41.3322 30.3976 41.3322 31.082V31.302H38.5856C38.6078 31.6665 38.7011 31.9598 38.8656 32.182C39.0344 32.4043 39.2722 32.5154 39.5789 32.5154C39.81 32.5154 39.9967 32.4487 40.1389 32.3154C40.2811 32.182 40.3789 32.0109 40.4322 31.802H41.2856C41.2367 32.0598 41.1433 32.2931 41.0056 32.502C40.8722 32.7065 40.6878 32.8709 40.4522 32.9954C40.2167 33.1198 39.9256 33.182 39.5789 33.182ZM38.5922 30.702H40.4522C40.4389 30.3554 40.3544 30.0909 40.1989 29.9087C40.0478 29.722 39.8344 29.6287 39.5589 29.6287C39.2789 29.6287 39.0567 29.7198 38.8922 29.902C38.7278 30.0843 38.6278 30.3509 38.5922 30.702ZM43.5117 33.182C43.1073 33.182 42.7784 33.1154 42.525 32.982C42.2717 32.8443 42.085 32.6687 41.965 32.4554C41.845 32.242 41.7761 32.0243 41.7584 31.802H42.625C42.6428 31.9265 42.6873 32.0443 42.7584 32.1554C42.8339 32.2665 42.9361 32.3554 43.065 32.422C43.1939 32.4887 43.3561 32.522 43.5517 32.522C43.7739 32.522 43.9406 32.4798 44.0517 32.3954C44.1628 32.3065 44.2184 32.1909 44.2184 32.0487C44.2184 31.9243 44.1717 31.8198 44.0784 31.7354C43.985 31.6465 43.8384 31.5687 43.6384 31.502L43.1584 31.3354C42.9361 31.2554 42.7339 31.1687 42.5517 31.0754C42.3695 30.9776 42.2228 30.8554 42.1117 30.7087C42.0006 30.562 41.945 30.3731 41.945 30.142C41.945 29.7909 42.0739 29.5109 42.3317 29.302C42.5895 29.0887 42.9495 28.982 43.4117 28.982C43.745 28.982 44.0184 29.0376 44.2317 29.1487C44.4495 29.2554 44.6139 29.402 44.725 29.5887C44.8361 29.7709 44.9006 29.9754 44.9184 30.202H44.085C44.0673 30.0376 44.0006 29.8998 43.885 29.7887C43.7739 29.6776 43.605 29.622 43.3784 29.622C43.1873 29.622 43.0406 29.662 42.9384 29.742C42.8406 29.8176 42.7917 29.9243 42.7917 30.062C42.7917 30.1954 42.8406 30.3065 42.9384 30.3954C43.0406 30.4798 43.1939 30.5576 43.3984 30.6287L43.8717 30.782C44.0939 30.8576 44.2961 30.9443 44.4784 31.042C44.6606 31.1354 44.8028 31.2576 44.905 31.4087C45.0117 31.5554 45.065 31.7443 45.065 31.9754C45.065 32.3354 44.9317 32.6265 44.665 32.8487C44.4028 33.0709 44.0184 33.182 43.5117 33.182Z" fill="#111827"/>
<rect x="0.945557" y="63.9893" width="41.1354" height="25.0143" fill="#FAFAFA"/>
<path d="M7.6643 74.4961V69.2961H11.1043V70.0494H8.59096V71.3561H10.551V72.0628H8.59096V73.7428H11.1443V74.4961H7.6643ZM11.5715 74.4961V74.4561L12.8248 72.3894L11.7181 70.5361V70.4961H12.6715L13.4048 71.7828H13.5448L14.2581 70.4961H15.1515V70.5361L14.0781 72.3694L15.3248 74.4561V74.4961H14.3381L13.4781 72.9828H13.3381L12.4981 74.4961H11.5715ZM16.4878 74.4961C16.3856 74.3761 16.3034 74.2316 16.2412 74.0628C16.1834 73.8939 16.1545 73.6405 16.1545 73.3028V71.1561H15.6078V70.4961H16.1678V69.4961H17.0478V70.4961H17.7078V71.1561H17.0545V73.1894C17.0545 73.545 17.0923 73.8161 17.1678 74.0028C17.2478 74.185 17.3434 74.3361 17.4545 74.4561V74.4961H16.4878ZM20.0412 74.5961C19.4323 74.5961 18.9678 74.405 18.6478 74.0228C18.3323 73.6405 18.1745 73.1294 18.1745 72.4894C18.1745 72.0628 18.2456 71.6939 18.3878 71.3828C18.5301 71.0716 18.7389 70.8294 19.0145 70.6561C19.2901 70.4828 19.6278 70.3961 20.0278 70.3961C20.6012 70.3961 21.0389 70.5761 21.3412 70.9361C21.6434 71.2916 21.7945 71.8116 21.7945 72.4961V72.7161H19.0478C19.0701 73.0805 19.1634 73.3739 19.3278 73.5961C19.4967 73.8183 19.7345 73.9294 20.0412 73.9294C20.2723 73.9294 20.4589 73.8628 20.6012 73.7294C20.7434 73.5961 20.8412 73.425 20.8945 73.2161H21.7478C21.6989 73.4739 21.6056 73.7072 21.4678 73.9161C21.3345 74.1205 21.1501 74.285 20.9145 74.4094C20.6789 74.5339 20.3878 74.5961 20.0412 74.5961ZM19.0545 72.1161H20.9145C20.9012 71.7694 20.8167 71.505 20.6612 71.3228C20.5101 71.1361 20.2967 71.0428 20.0212 71.0428C19.7412 71.0428 19.5189 71.1339 19.3545 71.3161C19.1901 71.4983 19.0901 71.765 19.0545 72.1161ZM22.574 74.4961V70.4961H23.3873V71.2028H23.5473C23.574 71.0783 23.6229 70.9605 23.694 70.8494C23.7651 70.7339 23.874 70.6405 24.0206 70.5694C24.1718 70.4939 24.3762 70.4561 24.634 70.4561H24.8073V71.2828H24.5606C24.174 71.2828 23.8962 71.3828 23.7273 71.5828C23.5584 71.7783 23.474 72.0828 23.474 72.4961V74.4961H22.574ZM25.5427 74.4961V70.4961H26.3627V71.0961H26.5227C26.6027 70.8828 26.7294 70.7139 26.9027 70.5894C27.0805 70.4605 27.3227 70.3961 27.6294 70.3961C28.0872 70.3961 28.4227 70.5383 28.6361 70.8228C28.8538 71.1028 28.9627 71.4761 28.9627 71.9428V74.4961H28.0627V72.1094C28.0627 71.7983 28.0072 71.5605 27.8961 71.3961C27.785 71.2272 27.6094 71.1428 27.3694 71.1428C27.0761 71.1428 26.8472 71.2583 26.6827 71.4894C26.5227 71.7161 26.4427 71.9983 26.4427 72.3361V74.4961H25.5427ZM31.3258 74.5828C30.9658 74.5828 30.6658 74.4961 30.4258 74.3228C30.1858 74.145 30.0058 73.8983 29.8858 73.5828C29.7658 73.2672 29.7058 72.9028 29.7058 72.4894C29.7058 72.0716 29.7658 71.7072 29.8858 71.3961C30.0102 71.0805 30.1924 70.8361 30.4324 70.6628C30.6724 70.4894 30.9702 70.4028 31.3258 70.4028C31.6191 70.4028 31.8546 70.4628 32.0324 70.5828C32.2146 70.6983 32.3458 70.8428 32.4258 71.0161H32.5858V70.4961H33.4058V74.4961H32.5858V73.9761H32.4258C32.3458 74.1405 32.2146 74.2828 32.0324 74.4028C31.8546 74.5228 31.6191 74.5828 31.3258 74.5828ZM31.5258 73.9028C31.828 73.9028 32.068 73.7761 32.2458 73.5228C32.428 73.265 32.5191 72.9228 32.5191 72.4961C32.5191 72.065 32.428 71.7228 32.2458 71.4694C32.068 71.2116 31.828 71.0828 31.5258 71.0828C31.2413 71.0828 31.0213 71.205 30.8658 71.4494C30.7102 71.6894 30.6324 72.0383 30.6324 72.4961C30.6324 72.9539 30.7102 73.3028 30.8658 73.5428C31.0213 73.7828 31.2413 73.9028 31.5258 73.9028ZM34.7858 74.4961C34.6746 74.3628 34.5902 74.2094 34.5324 74.0361C34.4791 73.8628 34.4524 73.6183 34.4524 73.3028V69.1628H35.3524V73.1961C35.3524 73.5428 35.3902 73.8094 35.4658 73.9961C35.5413 74.1783 35.6391 74.3316 35.7591 74.4561V74.4961H34.7858ZM5.32997 84.4961V79.2961H6.26331V84.4961H5.32997ZM7.36695 84.4961V80.4961H8.18695V81.0961H8.34695C8.42695 80.8828 8.55362 80.7139 8.72695 80.5894C8.90473 80.4605 9.14695 80.3961 9.45362 80.3961C9.9114 80.3961 10.247 80.5383 10.4603 80.8228C10.6781 81.1028 10.787 81.4761 10.787 81.9428V84.4961H9.88695V82.1094C9.88695 81.7983 9.8314 81.5605 9.72028 81.3961C9.60917 81.2272 9.43362 81.1428 9.19362 81.1428C8.90028 81.1428 8.6714 81.2583 8.50695 81.4894C8.34695 81.7161 8.26695 81.9983 8.26695 82.3361V84.4961H7.36695ZM13.1966 84.5961C12.7922 84.5961 12.4633 84.5294 12.21 84.3961C11.9566 84.2583 11.77 84.0828 11.65 83.8694C11.53 83.6561 11.4611 83.4383 11.4433 83.2161H12.31C12.3278 83.3405 12.3722 83.4583 12.4433 83.5694C12.5189 83.6805 12.6211 83.7694 12.75 83.8361C12.8789 83.9028 13.0411 83.9361 13.2366 83.9361C13.4589 83.9361 13.6255 83.8939 13.7366 83.8094C13.8478 83.7205 13.9033 83.605 13.9033 83.4628C13.9033 83.3383 13.8566 83.2339 13.7633 83.1494C13.67 83.0605 13.5233 82.9828 13.3233 82.9161L12.8433 82.7494C12.6211 82.6694 12.4189 82.5828 12.2366 82.4894C12.0544 82.3916 11.9078 82.2694 11.7966 82.1228C11.6855 81.9761 11.63 81.7872 11.63 81.5561C11.63 81.205 11.7589 80.925 12.0166 80.7161C12.2744 80.5028 12.6344 80.3961 13.0966 80.3961C13.43 80.3961 13.7033 80.4516 13.9166 80.5628C14.1344 80.6694 14.2989 80.8161 14.41 81.0028C14.5211 81.185 14.5855 81.3894 14.6033 81.6161H13.77C13.7522 81.4516 13.6855 81.3139 13.57 81.2028C13.4589 81.0916 13.29 81.0361 13.0633 81.0361C12.8722 81.0361 12.7255 81.0761 12.6233 81.1561C12.5255 81.2316 12.4766 81.3383 12.4766 81.4761C12.4766 81.6094 12.5255 81.7205 12.6233 81.8094C12.7255 81.8939 12.8789 81.9716 13.0833 82.0428L13.5566 82.1961C13.7789 82.2716 13.9811 82.3583 14.1633 82.4561C14.3455 82.5494 14.4878 82.6716 14.59 82.8228C14.6966 82.9694 14.75 83.1583 14.75 83.3894C14.75 83.7494 14.6166 84.0405 14.35 84.2628C14.0878 84.485 13.7033 84.5961 13.1966 84.5961ZM16.0464 84.4961C15.9442 84.3761 15.862 84.2316 15.7998 84.0628C15.742 83.8939 15.7131 83.6405 15.7131 83.3028V81.1561H15.1664V80.4961H15.7264V79.4961H16.6064V80.4961H17.2664V81.1561H16.6131V83.1894C16.6131 83.545 16.6509 83.8161 16.7264 84.0028C16.8064 84.185 16.902 84.3361 17.0131 84.4561V84.4961H16.0464ZM19.3531 84.5828C18.9931 84.5828 18.6931 84.4961 18.4531 84.3228C18.2131 84.145 18.0331 83.8983 17.9131 83.5828C17.7931 83.2672 17.7331 82.9028 17.7331 82.4894C17.7331 82.0716 17.7931 81.7072 17.9131 81.3961C18.0375 81.0805 18.2198 80.8361 18.4598 80.6628C18.6998 80.4894 18.9975 80.4028 19.3531 80.4028C19.6464 80.4028 19.882 80.4628 20.0598 80.5828C20.242 80.6983 20.3731 80.8428 20.4531 81.0161H20.6131V80.4961H21.4331V84.4961H20.6131V83.9761H20.4531C20.3731 84.1405 20.242 84.2828 20.0598 84.4028C19.882 84.5228 19.6464 84.5828 19.3531 84.5828ZM19.5531 83.9028C19.8553 83.9028 20.0953 83.7761 20.2731 83.5228C20.4553 83.265 20.5464 82.9228 20.5464 82.4961C20.5464 82.065 20.4553 81.7228 20.2731 81.4694C20.0953 81.2116 19.8553 81.0828 19.5531 81.0828C19.2687 81.0828 19.0487 81.205 18.8931 81.4494C18.7375 81.6894 18.6598 82.0383 18.6598 82.4961C18.6598 82.9539 18.7375 83.3028 18.8931 83.5428C19.0487 83.7828 19.2687 83.9028 19.5531 83.9028ZM22.4998 84.4961V80.4961H23.3198V81.0961H23.4798C23.5598 80.8828 23.6864 80.7139 23.8598 80.5894C24.0375 80.4605 24.2798 80.3961 24.5864 80.3961C25.0442 80.3961 25.3798 80.5383 25.5931 80.8228C25.8109 81.1028 25.9198 81.4761 25.9198 81.9428V84.4961H25.0198V82.1094C25.0198 81.7983 24.9642 81.5605 24.8531 81.3961C24.742 81.2272 24.5664 81.1428 24.3264 81.1428C24.0331 81.1428 23.8042 81.2583 23.6398 81.4894C23.4798 81.7161 23.3998 81.9983 23.3998 82.3361V84.4961H22.4998ZM28.4828 84.5961C27.8828 84.5961 27.4295 84.405 27.1228 84.0228C26.8161 83.6405 26.6628 83.1316 26.6628 82.4961C26.6628 81.8339 26.8228 81.3183 27.1428 80.9494C27.4628 80.5805 27.9117 80.3961 28.4895 80.3961C28.9872 80.3961 29.3828 80.5316 29.6761 80.8028C29.9695 81.0694 30.1472 81.445 30.2095 81.9294H29.3228C29.2872 81.6539 29.1983 81.4428 29.0561 81.2961C28.9183 81.145 28.7339 81.0694 28.5028 81.0694C28.1961 81.0694 27.9672 81.1961 27.8161 81.4494C27.665 81.6983 27.5895 82.0472 27.5895 82.4961C27.5895 82.945 27.665 83.2961 27.8161 83.5494C27.9672 83.7983 28.1939 83.9228 28.4961 83.9228C28.7317 83.9228 28.9183 83.8472 29.0561 83.6961C29.1983 83.545 29.2872 83.3339 29.3228 83.0628H30.2095C30.1428 83.5428 29.9606 83.9183 29.6628 84.1894C29.3695 84.4605 28.9761 84.5961 28.4828 84.5961ZM32.5607 84.5961C31.9518 84.5961 31.4874 84.405 31.1674 84.0228C30.8518 83.6405 30.694 83.1294 30.694 82.4894C30.694 82.0628 30.7651 81.6939 30.9074 81.3828C31.0496 81.0716 31.2585 80.8294 31.534 80.6561C31.8096 80.4828 32.1474 80.3961 32.5474 80.3961C33.1207 80.3961 33.5585 80.5761 33.8607 80.9361C34.1629 81.2916 34.314 81.8116 34.314 82.4961V82.7161H31.5674C31.5896 83.0805 31.6829 83.3739 31.8474 83.5961C32.0163 83.8183 32.254 83.9294 32.5607 83.9294C32.7918 83.9294 32.9785 83.8628 33.1207 83.7294C33.2629 83.5961 33.3607 83.425 33.414 83.2161H34.2674C34.2185 83.4739 34.1251 83.7072 33.9874 83.9161C33.854 84.1205 33.6696 84.285 33.434 84.4094C33.1985 84.5339 32.9074 84.5961 32.5607 84.5961ZM31.574 82.1161H33.434C33.4207 81.7694 33.3363 81.505 33.1807 81.3228C33.0296 81.1361 32.8163 81.0428 32.5407 81.0428C32.2607 81.0428 32.0385 81.1339 31.874 81.3161C31.7096 81.4983 31.6096 81.765 31.574 82.1161ZM36.4935 84.5961C36.0891 84.5961 35.7602 84.5294 35.5068 84.3961C35.2535 84.2583 35.0668 84.0828 34.9468 83.8694C34.8268 83.6561 34.758 83.4383 34.7402 83.2161H35.6068C35.6246 83.3405 35.6691 83.4583 35.7402 83.5694C35.8157 83.6805 35.918 83.7694 36.0468 83.8361C36.1757 83.9028 36.338 83.9361 36.5335 83.9361C36.7557 83.9361 36.9224 83.8939 37.0335 83.8094C37.1446 83.7205 37.2002 83.605 37.2002 83.4628C37.2002 83.3383 37.1535 83.2339 37.0602 83.1494C36.9668 83.0605 36.8202 82.9828 36.6202 82.9161L36.1402 82.7494C35.918 82.6694 35.7157 82.5828 35.5335 82.4894C35.3513 82.3916 35.2046 82.2694 35.0935 82.1228C34.9824 81.9761 34.9268 81.7872 34.9268 81.5561C34.9268 81.205 35.0557 80.925 35.3135 80.7161C35.5713 80.5028 35.9313 80.3961 36.3935 80.3961C36.7268 80.3961 37.0002 80.4516 37.2135 80.5628C37.4313 80.6694 37.5957 80.8161 37.7068 81.0028C37.818 81.185 37.8824 81.3894 37.9002 81.6161H37.0668C37.0491 81.4516 36.9824 81.3139 36.8668 81.2028C36.7557 81.0916 36.5868 81.0361 36.3602 81.0361C36.1691 81.0361 36.0224 81.0761 35.9202 81.1561C35.8224 81.2316 35.7735 81.3383 35.7735 81.4761C35.7735 81.6094 35.8224 81.7205 35.9202 81.8094C36.0224 81.8939 36.1757 81.9716 36.3802 82.0428L36.8535 82.1961C37.0757 82.2716 37.278 82.3583 37.4602 82.4561C37.6424 82.5494 37.7846 82.6716 37.8868 82.8228C37.9935 82.9694 38.0468 83.1583 38.0468 83.3894C38.0468 83.7494 37.9135 84.0405 37.6468 84.2628C37.3846 84.485 37.0002 84.5961 36.4935 84.5961Z" fill="#111827"/>
<defs>
<linearGradient id="paint0_linear_1278_42978" x1="157.818" y1="33.2556" x2="230.635" y2="33.2556" gradientUnits="userSpaceOnUse">
<stop offset="0.7" stop-color="#3B82F6"/>
<stop offset="1" stop-color="#3B82F6" stop-opacity="0"/>
</linearGradient>
<linearGradient id="paint1_linear_1278_42978" x1="157.929" y1="31.8582" x2="50.1176" y2="31.8582" gradientUnits="userSpaceOnUse">
<stop offset="0.7" stop-color="#3B82F6"/>
<stop offset="1" stop-color="#3B82F6" stop-opacity="0"/>
</linearGradient>
<linearGradient id="paint2_linear_1278_42978" x1="157.929" y1="102.391" x2="209.255" y2="102.391" gradientUnits="userSpaceOnUse">
<stop offset="0.65" stop-color="#3B82F6"/>
<stop offset="1" stop-color="#3B82F6" stop-opacity="0"/>
</linearGradient>
<linearGradient id="paint3_linear_1278_42978" x1="157.929" y1="102.393" x2="80.832" y2="102.393" gradientUnits="userSpaceOnUse">
<stop offset="0.7" stop-color="#3B82F6"/>
<stop offset="1" stop-color="#3B82F6" stop-opacity="0"/>
</linearGradient>
<linearGradient id="paint4_linear_1278_42978" x1="144.672" y1="76.5244" x2="227.214" y2="76.5244" gradientUnits="userSpaceOnUse">
<stop offset="0.706363" stop-color="#3B82F6"/>
<stop offset="1" stop-color="#3B82F6" stop-opacity="0"/>
</linearGradient>
<linearGradient id="paint5_linear_1278_42978" x1="42.5498" y1="76.5254" x2="145.432" y2="76.5254" gradientUnits="userSpaceOnUse">
<stop stop-color="#3B82F6" stop-opacity="0"/>
<stop offset="0.55" stop-color="#3B82F6"/>
</linearGradient>
<linearGradient id="paint6_linear_1278_42978" x1="153.289" y1="50.6895" x2="198.33" y2="50.6895" gradientUnits="userSpaceOnUse">
<stop offset="0.579938" stop-color="#3B82F6"/>
<stop offset="1" stop-color="#3B82F6" stop-opacity="0"/>
</linearGradient>
<linearGradient id="paint7_linear_1278_42978" x1="80.832" y1="50.6904" x2="138.503" y2="50.6904" gradientUnits="userSpaceOnUse">
<stop stop-color="#3B82F6" stop-opacity="0"/>
<stop offset="0.420062" stop-color="#3B82F6"/>
</linearGradient>
<linearGradient id="paint8_linear_1278_42978" x1="163.936" y1="-2.18557e-08" x2="163.936" y2="127.386" gradientUnits="userSpaceOnUse">
<stop stop-color="#3B82F6" stop-opacity="0"/>
<stop offset="0.505" stop-color="#3B82F6"/>
<stop offset="1" stop-color="#3B82F6" stop-opacity="0"/>
</linearGradient>
<linearGradient id="paint9_linear_1278_42978" x1="100.252" y1="-1.89727" x2="100.252" y2="125.725" gradientUnits="userSpaceOnUse">
<stop stop-color="#3B82F6" stop-opacity="0"/>
<stop offset="0.505" stop-color="#3B82F6"/>
<stop offset="1" stop-color="#3B82F6" stop-opacity="0"/>
</linearGradient>
<linearGradient id="paint10_linear_1278_42978" x1="214.689" y1="25.3467" x2="214.689" y2="76.2275" gradientUnits="userSpaceOnUse">
<stop stop-color="#3B82F6" stop-opacity="0"/>
<stop offset="0.535" stop-color="#3B82F6"/>
<stop offset="1" stop-color="#3B82F6" stop-opacity="0"/>
</linearGradient>
<linearGradient id="paint11_linear_1278_42978" x1="58.001" y1="13.1367" x2="58.001" y2="114.856" gradientUnits="userSpaceOnUse">
<stop stop-color="#3B82F6" stop-opacity="0"/>
<stop offset="0.535" stop-color="#3B82F6"/>
<stop offset="1" stop-color="#3B82F6" stop-opacity="0"/>
</linearGradient>
</defs>
</svg>
