<svg width="1120" height="322" viewBox="0 0 1120 322" fill="none" xmlns="http://www.w3.org/2000/svg">
<path d="M543.114 65.0294L928.269 65.0283" stroke="url(#paint0_linear_1275_38178)" stroke-width="2"/>
<path d="M543.419 65.0283L127.943 65.0282" stroke="url(#paint1_linear_1275_38178)" stroke-width="2"/>
<path d="M543.419 257.056L800.917 257.057" stroke="url(#paint2_linear_1275_38178)" stroke-width="2"/>
<path d="M543.418 257.057L290.631 257.057" stroke="url(#paint3_linear_1275_38178)" stroke-width="2"/>
<path d="M960.582 193.001L582.846 193.001" stroke="url(#paint4_linear_1275_38178)" stroke-width="2"/>
<path d="M509.039 193.001L127.943 193.001" stroke="url(#paint5_linear_1275_38178)" stroke-width="2"/>
<path d="M800.528 129.007L596.251 129.007" stroke="url(#paint6_linear_1275_38178)" stroke-width="2"/>
<path d="M489.978 129.007L287.994 129.007" stroke="url(#paint7_linear_1275_38178)" stroke-width="2"/>
<path d="M640.032 0.503784L640.032 321.496" stroke="url(#paint8_linear_1275_38178)" stroke-width="2"/>
<path d="M448.172 0.503906L448.172 321.496" stroke="url(#paint9_linear_1275_38178)" stroke-width="2"/>
<path d="M735.848 65.0776L735.848 193.052" stroke="url(#paint10_linear_1275_38178)" stroke-width="2"/>
<path d="M384.009 33.0052L384.009 288.995" stroke="url(#paint11_linear_1275_38178)" stroke-width="2"/>
<ellipse cx="735.848" cy="129.007" rx="6.25013" ry="6.25" fill="#2563EB"/>
<ellipse cx="384.009" cy="129.007" rx="6.25013" ry="6.25" fill="#2563EB"/>
<path d="M604.602 153.794V105.987C604.602 101.568 601.02 98.0001 596.602 98.0001H544.102H491.602C487.184 98.0001 483.602 101.573 483.602 105.992C483.602 114.686 483.602 130.529 483.602 153.794C483.602 191.372 505.12 204.251 544.102 224C582.102 206.686 604.602 193.317 604.602 153.794Z" fill="#3B82F6"/>
<path fill-rule="evenodd" clip-rule="evenodd" d="M548.656 124.037L542.016 122.525C542.513 122.525 543.046 122.489 543.647 122.448C544.422 122.396 545.311 122.336 546.38 122.336C550.364 122.336 553.589 123.659 556.625 125.361C557.045 125.57 557.406 126.01 557.774 126.458C558.071 126.82 558.373 127.187 558.712 127.44C560.23 128.008 561.748 128.386 563.266 128.197V127.629C564.973 128.008 566.681 129.898 566.681 131.222H558.902C558.712 131.222 558.333 131.411 558.143 131.6C558.333 131.789 558.712 132.167 558.902 132.167C559.26 132.167 559.65 132.157 560.062 132.146C561.394 132.11 562.955 132.067 564.404 132.356C564.378 132.4 564.35 132.446 564.321 132.494C563.729 133.487 562.635 135.32 561.368 134.058C561.368 133.68 553.969 133.869 552.072 134.247C551.692 134.247 551.313 135.003 551.502 135.381C552.352 137.438 554.366 138.72 556.254 139.922C557.317 140.599 558.34 141.25 559.092 141.999C564.404 146.158 566.112 149.94 564.973 157.124C562.122 168.322 557.64 170.213 548.906 173.896C547.76 174.38 546.54 174.894 545.241 175.464C542.016 176.977 540.119 180.569 540.688 184.162C542.016 191.913 554.348 193.993 556.815 184.918C557.574 181.325 556.625 176.221 549.795 174.708C552.831 173.385 555.676 171.872 558.333 170.17C558.712 169.792 559.092 169.792 559.471 170.17C567.06 177.166 568.957 190.023 556.435 197.586C547.518 202.501 536.324 198.342 532.719 188.888C529.114 179.246 534.806 168.847 544.862 166.767C552.072 165.633 559.471 158.07 556.246 151.074C554.814 147.935 550.681 144.796 547.189 142.145C546.054 141.283 544.987 140.472 544.103 139.73C543.603 139.431 542.787 139.5 541.877 139.576C541.06 139.645 540.168 139.72 539.36 139.541C539.739 139.257 539.97 138.975 540.201 138.693C540.431 138.41 540.662 138.128 541.042 137.844C539.334 136.797 538.276 136.654 536.968 136.477C536.386 136.398 535.755 136.312 534.996 136.138C535.565 135.003 538.021 133.682 539.728 133.493C539.676 133 539.642 132.574 539.612 132.202C539.426 129.864 539.408 129.639 536.134 128.008C538.081 126.714 539.802 127.001 541.473 127.279C543.221 127.571 544.916 127.853 546.759 126.306C544.482 125.55 542.206 124.793 540.119 123.47C541.188 123.541 542.238 123.73 543.285 123.917C545.023 124.23 546.749 124.539 548.526 124.303L548.656 124.037ZM532.719 172.628C523.612 166.956 523.043 152.587 533.288 146.347C540.878 141.621 549.415 143.322 555.107 151.641C555.866 152.965 555.866 155.045 555.487 156.557C553.969 161.662 550.174 164.498 545.052 165.633C546.569 164.498 547.708 162.797 548.087 160.906C549.795 150.318 533.288 149.184 534.047 160.528C533.858 163.742 536.324 166.011 541.067 166.767C538.601 168.28 536.514 169.603 534.237 172.439C533.858 173.006 533.478 173.006 532.719 172.628ZM530.432 180.831C527.511 181.375 524.431 181.949 521.525 183.216C522.853 177.733 527.597 173.952 533.288 173.952C531.771 175.842 531.012 178.3 530.822 180.758C530.692 180.783 530.562 180.807 530.432 180.831ZM554.908 128.644L555.477 129.211L554.718 129.589C554.339 129.778 554.149 129.589 553.96 129.4C553.58 128.833 554.718 128.455 554.908 128.644Z" fill="white"/>
<ellipse cx="224.096" cy="193.001" rx="6.25013" ry="6.25" fill="#2563EB"/>
<ellipse cx="831.611" cy="193.001" rx="6.25013" ry="6.25" fill="#2563EB"/>
<ellipse cx="287.994" cy="65.0277" rx="6.25013" ry="6.25" fill="#2563EB"/>
<ellipse cx="448.172" cy="257.057" rx="6.25013" ry="6.25" fill="#2563EB"/>
<ellipse cx="640.032" cy="255.88" rx="6.25013" ry="6.25" fill="#2563EB"/>
<ellipse cx="800.382" cy="65.0776" rx="6.25013" ry="6.25" fill="#2563EB"/>
<rect x="928.536" y="33.4644" width="126.936" height="62.9707" fill="#FAFAFA"/>
<path d="M968.545 59.0776V48.6776H972.185L974.318 57.451H974.758L976.918 48.6776H980.558V59.0776H978.625V50.371H978.278L976.185 59.0776H972.798L970.705 50.371H970.358V59.0776H968.545ZM985.965 59.2776C984.668 59.2776 983.699 58.8999 983.059 58.1443C982.428 57.3799 982.112 56.3576 982.112 55.0776C982.112 53.7976 982.428 52.7799 983.059 52.0243C983.699 51.2599 984.668 50.8776 985.965 50.8776C987.263 50.8776 988.232 51.2599 988.872 52.0243C989.512 52.7799 989.832 53.7976 989.832 55.0776C989.832 56.3576 989.512 57.3799 988.872 58.1443C988.232 58.8999 987.263 59.2776 985.965 59.2776ZM985.965 57.9043C986.597 57.9043 987.054 57.6643 987.339 57.1843C987.632 56.6954 987.779 55.9932 987.779 55.0776C987.779 54.1532 987.632 53.451 987.339 52.971C987.054 52.491 986.597 52.251 985.965 52.251C985.343 52.251 984.885 52.491 984.592 52.971C984.299 53.451 984.152 54.1532 984.152 55.0776C984.152 55.9932 984.299 56.6954 984.592 57.1843C984.885 57.6643 985.343 57.9043 985.965 57.9043ZM995.722 59.251C995.126 59.251 994.646 59.131 994.282 58.891C993.926 58.651 993.664 58.3665 993.495 58.0376H993.175V59.0776H991.349V48.411H993.335V51.971H993.655C993.842 51.651 994.104 51.3932 994.442 51.1976C994.78 51.0021 995.211 50.9043 995.735 50.9043C996.437 50.9043 997.024 51.0776 997.495 51.4243C997.975 51.771 998.335 52.2554 998.575 52.8776C998.815 53.4999 998.935 54.2287 998.935 55.0643C998.935 55.8821 998.815 56.6065 998.575 57.2376C998.344 57.8599 997.989 58.3532 997.509 58.7176C997.037 59.0732 996.442 59.251 995.722 59.251ZM995.202 57.811C995.735 57.811 996.149 57.5799 996.442 57.1176C996.735 56.6554 996.882 55.9754 996.882 55.0776C996.882 54.1799 996.735 53.4999 996.442 53.0376C996.149 52.5754 995.735 52.3443 995.202 52.3443C994.633 52.3443 994.175 52.5932 993.829 53.091C993.491 53.5799 993.322 54.2421 993.322 55.0776C993.322 55.9043 993.491 56.5665 993.829 57.0643C994.175 57.5621 994.633 57.811 995.202 57.811ZM1000.46 59.0776V51.0776H1002.44V59.0776H1000.46ZM1001.44 50.1043C1001.09 50.1043 1000.82 50.011 1000.63 49.8243C1000.44 49.6287 1000.35 49.3799 1000.35 49.0776C1000.35 48.7665 1000.44 48.5176 1000.63 48.331C1000.82 48.1443 1001.09 48.051 1001.44 48.051C1001.8 48.051 1002.07 48.1443 1002.26 48.331C1002.44 48.5176 1002.54 48.7665 1002.54 49.0776C1002.54 49.3799 1002.44 49.6287 1002.26 49.8243C1002.07 50.011 1001.8 50.1043 1001.44 50.1043ZM1005.14 59.0776C1004.9 58.8021 1004.73 58.4865 1004.62 58.131C1004.52 57.7754 1004.46 57.2954 1004.46 56.691V48.411H1006.45V56.4776C1006.45 57.1621 1006.53 57.691 1006.68 58.0643C1006.83 58.4287 1007.02 58.7399 1007.26 58.9976V59.0776H1005.14ZM1011.85 59.2776C1010.61 59.2776 1009.67 58.8999 1009.02 58.1443C1008.37 57.3799 1008.05 56.3532 1008.05 55.0643C1008.05 54.2021 1008.19 53.4599 1008.48 52.8376C1008.77 52.2154 1009.2 51.7354 1009.76 51.3976C1010.33 51.051 1011.02 50.8776 1011.84 50.8776C1013 50.8776 1013.89 51.2376 1014.5 51.9576C1015.13 52.6687 1015.44 53.7176 1015.44 55.1043V55.5443H1009.98C1010.03 56.2465 1010.21 56.8065 1010.53 57.2243C1010.85 57.6421 1011.29 57.851 1011.86 57.851C1012.3 57.851 1012.65 57.7221 1012.92 57.4643C1013.18 57.2065 1013.37 56.891 1013.46 56.5176H1015.34C1015.25 57.0154 1015.07 57.4732 1014.8 57.891C1014.52 58.3087 1014.14 58.6465 1013.65 58.9043C1013.17 59.1532 1012.57 59.2776 1011.85 59.2776ZM1009.98 54.2643H1013.52C1013.48 53.6243 1013.32 53.1265 1013.02 52.771C1012.74 52.4154 1012.34 52.2376 1011.82 52.2376C1011.3 52.2376 1010.88 52.411 1010.56 52.7576C1010.25 53.0954 1010.05 53.5976 1009.98 54.2643ZM965.389 83.0776V72.6776H969.015C970.846 72.6776 972.175 73.1354 973.002 74.051C973.837 74.9576 974.255 76.2332 974.255 77.8776C974.255 79.5221 973.837 80.8021 973.002 81.7176C972.175 82.6243 970.846 83.0776 969.015 83.0776H965.389ZM967.442 81.4643H968.882C969.62 81.4643 970.229 81.3487 970.709 81.1176C971.189 80.8865 971.544 80.5132 971.775 79.9976C972.015 79.4732 972.135 78.7665 972.135 77.8776C972.135 76.9887 972.015 76.2821 971.775 75.7576C971.544 75.2332 971.189 74.8599 970.709 74.6376C970.229 74.4065 969.62 74.291 968.882 74.291H967.442V81.4643ZM978.99 83.2776C977.755 83.2776 976.812 82.8999 976.164 82.1443C975.515 81.3799 975.19 80.3532 975.19 79.0643C975.19 78.2021 975.332 77.4599 975.617 76.8376C975.91 76.2154 976.337 75.7354 976.897 75.3976C977.466 75.051 978.159 74.8776 978.977 74.8776C980.141 74.8776 981.03 75.2376 981.644 75.9576C982.266 76.6687 982.577 77.7176 982.577 79.1043V79.5443H977.124C977.168 80.2465 977.35 80.8065 977.67 81.2243C977.99 81.6421 978.435 81.851 979.004 81.851C979.439 81.851 979.79 81.7221 980.057 81.4643C980.324 81.2065 980.506 80.891 980.604 80.5176H982.484C982.395 81.0154 982.212 81.4732 981.937 81.891C981.661 82.3087 981.279 82.6465 980.79 82.9043C980.31 83.1532 979.71 83.2776 978.99 83.2776ZM977.124 78.2643H980.657C980.621 77.6243 980.457 77.1265 980.164 76.771C979.879 76.4154 979.479 76.2376 978.964 76.2376C978.439 76.2376 978.017 76.411 977.697 76.7576C977.386 77.0954 977.195 77.5976 977.124 78.2643ZM985.404 83.0776L983.071 75.1576V75.0776H985.071L986.858 81.451H987.178L988.978 75.0776H990.804V75.1576L988.471 83.0776H985.404ZM992.02 83.0776V75.0776H994.007V83.0776H992.02ZM993.007 74.1043C992.652 74.1043 992.38 74.011 992.194 73.8243C992.007 73.6287 991.914 73.3799 991.914 73.0776C991.914 72.7665 992.007 72.5176 992.194 72.331C992.38 72.1443 992.652 72.051 993.007 72.051C993.363 72.051 993.634 72.1443 993.82 72.331C994.007 72.5176 994.1 72.7665 994.1 73.0776C994.1 73.3799 994.007 73.6287 993.82 73.8243C993.634 74.011 993.363 74.1043 993.007 74.1043ZM999.254 83.2776C998.036 83.2776 997.112 82.8999 996.481 82.1443C995.85 81.3799 995.534 80.3576 995.534 79.0776C995.534 77.7354 995.863 76.6999 996.521 75.971C997.187 75.2421 998.103 74.8776 999.267 74.8776C1000.3 74.8776 1001.11 75.1532 1001.71 75.7043C1002.3 76.2554 1002.66 77.011 1002.77 77.971H1000.83C1000.77 77.4376 1000.6 77.0287 1000.33 76.7443C1000.07 76.451 999.721 76.3043 999.294 76.3043C998.734 76.3043 998.307 76.5487 998.014 77.0376C997.721 77.5176 997.574 78.1976 997.574 79.0776C997.574 79.9576 997.716 80.6376 998.001 81.1176C998.294 81.5976 998.721 81.8376 999.281 81.8376C999.716 81.8376 1000.07 81.6954 1000.33 81.411C1000.6 81.1176 1000.77 80.7043 1000.83 80.171H1002.77C1002.65 81.131 1002.29 81.891 1001.68 82.451C1001.09 83.0021 1000.28 83.2776 999.254 83.2776ZM1007.51 83.2776C1006.27 83.2776 1005.33 82.8999 1004.68 82.1443C1004.03 81.3799 1003.71 80.3532 1003.71 79.0643C1003.71 78.2021 1003.85 77.4599 1004.13 76.8376C1004.43 76.2154 1004.85 75.7354 1005.41 75.3976C1005.98 75.051 1006.67 74.8776 1007.49 74.8776C1008.66 74.8776 1009.55 75.2376 1010.16 75.9576C1010.78 76.6687 1011.09 77.7176 1011.09 79.1043V79.5443H1005.64C1005.68 80.2465 1005.87 80.8065 1006.19 81.2243C1006.51 81.6421 1006.95 81.851 1007.52 81.851C1007.95 81.851 1008.31 81.7221 1008.57 81.4643C1008.84 81.2065 1009.02 80.891 1009.12 80.5176H1011C1010.91 81.0154 1010.73 81.4732 1010.45 81.891C1010.18 82.3087 1009.79 82.6465 1009.31 82.9043C1008.83 83.1532 1008.23 83.2776 1007.51 83.2776ZM1005.64 78.2643H1009.17C1009.14 77.6243 1008.97 77.1265 1008.68 76.771C1008.39 76.4154 1007.99 76.2376 1007.48 76.2376C1006.95 76.2376 1006.53 76.411 1006.21 76.7576C1005.9 77.0954 1005.71 77.5976 1005.64 78.2643ZM1015.46 83.2776C1014.61 83.2776 1013.92 83.1399 1013.41 82.8643C1012.89 82.5887 1012.51 82.2376 1012.26 81.811C1012.02 81.3843 1011.89 80.9532 1011.86 80.5176H1013.75C1013.79 80.7576 1013.88 80.9799 1014.02 81.1843C1014.17 81.3887 1014.37 81.5532 1014.62 81.6776C1014.88 81.7932 1015.19 81.851 1015.55 81.851C1015.99 81.851 1016.31 81.771 1016.51 81.611C1016.72 81.451 1016.82 81.2465 1016.82 80.9976C1016.82 80.7665 1016.73 80.571 1016.55 80.411C1016.38 80.251 1016.09 80.1043 1015.69 79.971L1014.73 79.651C1014.27 79.491 1013.86 79.3176 1013.47 79.131C1013.1 78.9354 1012.8 78.6865 1012.57 78.3843C1012.35 78.0821 1012.23 77.6954 1012.23 77.2243C1012.23 76.5221 1012.5 75.9576 1013.02 75.531C1013.55 75.0954 1014.3 74.8776 1015.26 74.8776C1015.95 74.8776 1016.52 74.9887 1016.97 75.211C1017.41 75.4243 1017.75 75.7176 1017.97 76.091C1018.2 76.4554 1018.33 76.8643 1018.37 77.3176H1016.54C1016.5 76.9887 1016.36 76.7265 1016.14 76.531C1015.92 76.3354 1015.6 76.2376 1015.18 76.2376C1014.82 76.2376 1014.54 76.3132 1014.35 76.4643C1014.17 76.6065 1014.07 76.8021 1014.07 77.051C1014.07 77.2999 1014.17 77.5043 1014.37 77.6643C1014.56 77.8243 1014.86 77.971 1015.25 78.1043L1016.21 78.4243C1016.66 78.5665 1017.07 78.7354 1017.45 78.931C1017.82 79.1176 1018.12 79.3621 1018.34 79.6643C1018.56 79.9665 1018.67 80.3576 1018.67 80.8376C1018.67 81.5665 1018.4 82.1576 1017.85 82.611C1017.3 83.0554 1016.5 83.2776 1015.46 83.2776Z" fill="#111827"/>
<rect x="800.528" y="97.546" width="126.741" height="63.0371" fill="#FAFAFA"/>
<path d="M846.125 122.757V112.357H848.179V121.117H852.659V122.757H846.125ZM857.14 122.957C855.842 122.957 854.873 122.579 854.233 121.823C853.602 121.059 853.286 120.037 853.286 118.757C853.286 117.477 853.602 116.459 854.233 115.703C854.873 114.939 855.842 114.557 857.14 114.557C858.438 114.557 859.406 114.939 860.046 115.703C860.686 116.459 861.006 117.477 861.006 118.757C861.006 120.037 860.686 121.059 860.046 121.823C859.406 122.579 858.438 122.957 857.14 122.957ZM857.14 121.583C857.771 121.583 858.229 121.343 858.513 120.863C858.806 120.374 858.953 119.672 858.953 118.757C858.953 117.832 858.806 117.13 858.513 116.65C858.229 116.17 857.771 115.93 857.14 115.93C856.518 115.93 856.06 116.17 855.766 116.65C855.473 117.13 855.326 117.832 855.326 118.757C855.326 119.672 855.473 120.374 855.766 120.863C856.06 121.343 856.518 121.583 857.14 121.583ZM865.71 122.957C864.492 122.957 863.567 122.579 862.936 121.823C862.305 121.059 861.99 120.037 861.99 118.757C861.99 117.414 862.318 116.379 862.976 115.65C863.643 114.921 864.558 114.557 865.723 114.557C866.754 114.557 867.567 114.832 868.163 115.383C868.758 115.934 869.114 116.69 869.23 117.65H867.283C867.221 117.117 867.056 116.708 866.79 116.423C866.523 116.13 866.176 115.983 865.75 115.983C865.19 115.983 864.763 116.228 864.47 116.717C864.176 117.197 864.03 117.877 864.03 118.757C864.03 119.637 864.172 120.317 864.456 120.797C864.75 121.277 865.176 121.517 865.736 121.517C866.172 121.517 866.523 121.374 866.79 121.09C867.056 120.797 867.221 120.383 867.283 119.85H869.23C869.105 120.81 868.741 121.57 868.136 122.13C867.541 122.681 866.732 122.957 865.71 122.957ZM873.401 122.93C872.673 122.93 872.068 122.752 871.588 122.397C871.108 122.032 870.748 121.539 870.508 120.917C870.277 120.285 870.161 119.561 870.161 118.743C870.161 117.908 870.281 117.179 870.521 116.557C870.761 115.934 871.121 115.45 871.601 115.103C872.081 114.757 872.681 114.583 873.401 114.583C873.97 114.583 874.433 114.699 874.788 114.93C875.153 115.152 875.424 115.441 875.601 115.797H875.921V114.757H877.748V122.757H875.921V121.717H875.601C875.424 122.045 875.157 122.33 874.801 122.57C874.446 122.81 873.979 122.93 873.401 122.93ZM873.895 121.49C874.464 121.49 874.917 121.241 875.255 120.743C875.601 120.245 875.775 119.583 875.775 118.757C875.775 117.921 875.601 117.259 875.255 116.77C874.917 116.272 874.464 116.023 873.895 116.023C873.361 116.023 872.944 116.254 872.641 116.717C872.348 117.179 872.201 117.859 872.201 118.757C872.201 119.654 872.348 120.334 872.641 120.797C872.944 121.259 873.361 121.49 873.895 121.49ZM880.444 122.757C880.204 122.481 880.031 122.165 879.924 121.81C879.818 121.454 879.764 120.974 879.764 120.37V112.09H881.751V120.157C881.751 120.841 881.826 121.37 881.978 121.743C882.129 122.108 882.324 122.419 882.564 122.677V122.757H880.444ZM837.665 146.757V136.357H841.291C843.122 136.357 844.451 136.814 845.278 137.73C846.113 138.637 846.531 139.912 846.531 141.557C846.531 143.201 846.113 144.481 845.278 145.397C844.451 146.303 843.122 146.757 841.291 146.757H837.665ZM839.718 145.143H841.158C841.896 145.143 842.505 145.028 842.985 144.797C843.465 144.565 843.82 144.192 844.051 143.677C844.291 143.152 844.411 142.445 844.411 141.557C844.411 140.668 844.291 139.961 844.051 139.437C843.82 138.912 843.465 138.539 842.985 138.317C842.505 138.085 841.896 137.97 841.158 137.97H839.718V145.143ZM851.266 146.957C850.031 146.957 849.088 146.579 848.44 145.823C847.791 145.059 847.466 144.032 847.466 142.743C847.466 141.881 847.608 141.139 847.893 140.517C848.186 139.894 848.613 139.414 849.173 139.077C849.742 138.73 850.435 138.557 851.253 138.557C852.417 138.557 853.306 138.917 853.92 139.637C854.542 140.348 854.853 141.397 854.853 142.783V143.223H849.4C849.444 143.925 849.626 144.485 849.946 144.903C850.266 145.321 850.711 145.53 851.28 145.53C851.715 145.53 852.066 145.401 852.333 145.143C852.6 144.885 852.782 144.57 852.88 144.197H854.76C854.671 144.694 854.488 145.152 854.213 145.57C853.937 145.988 853.555 146.325 853.066 146.583C852.586 146.832 851.986 146.957 851.266 146.957ZM849.4 141.943H852.933C852.897 141.303 852.733 140.805 852.44 140.45C852.155 140.094 851.755 139.917 851.24 139.917C850.715 139.917 850.293 140.09 849.973 140.437C849.662 140.774 849.471 141.277 849.4 141.943ZM857.68 146.757L855.347 138.837V138.757H857.347L859.134 145.13H859.454L861.254 138.757H863.08V138.837L860.747 146.757H857.68ZM864.296 146.757V138.757H866.283V146.757H864.296ZM865.283 137.783C864.927 137.783 864.656 137.69 864.47 137.503C864.283 137.308 864.19 137.059 864.19 136.757C864.19 136.445 864.283 136.197 864.47 136.01C864.656 135.823 864.927 135.73 865.283 135.73C865.639 135.73 865.91 135.823 866.096 136.01C866.283 136.197 866.376 136.445 866.376 136.757C866.376 137.059 866.283 137.308 866.096 137.503C865.91 137.69 865.639 137.783 865.283 137.783ZM871.53 146.957C870.312 146.957 869.388 146.579 868.757 145.823C868.125 145.059 867.81 144.037 867.81 142.757C867.81 141.414 868.139 140.379 868.797 139.65C869.463 138.921 870.379 138.557 871.543 138.557C872.574 138.557 873.388 138.832 873.983 139.383C874.579 139.934 874.934 140.69 875.05 141.65H873.103C873.041 141.117 872.877 140.708 872.61 140.423C872.343 140.13 871.997 139.983 871.57 139.983C871.01 139.983 870.583 140.228 870.29 140.717C869.997 141.197 869.85 141.877 869.85 142.757C869.85 143.637 869.992 144.317 870.277 144.797C870.57 145.277 870.997 145.517 871.557 145.517C871.992 145.517 872.343 145.374 872.61 145.09C872.877 144.797 873.041 144.383 873.103 143.85H875.05C874.925 144.81 874.561 145.57 873.957 146.13C873.361 146.681 872.552 146.957 871.53 146.957ZM879.782 146.957C878.546 146.957 877.604 146.579 876.955 145.823C876.306 145.059 875.982 144.032 875.982 142.743C875.982 141.881 876.124 141.139 876.408 140.517C876.702 139.894 877.128 139.414 877.688 139.077C878.257 138.73 878.951 138.557 879.768 138.557C880.933 138.557 881.822 138.917 882.435 139.637C883.057 140.348 883.368 141.397 883.368 142.783V143.223H877.915C877.96 143.925 878.142 144.485 878.462 144.903C878.782 145.321 879.226 145.53 879.795 145.53C880.231 145.53 880.582 145.401 880.848 145.143C881.115 144.885 881.297 144.57 881.395 144.197H883.275C883.186 144.694 883.004 145.152 882.728 145.57C882.453 145.988 882.071 146.325 881.582 146.583C881.102 146.832 880.502 146.957 879.782 146.957ZM877.915 141.943H881.448C881.413 141.303 881.248 140.805 880.955 140.45C880.671 140.094 880.271 139.917 879.755 139.917C879.231 139.917 878.808 140.09 878.488 140.437C878.177 140.774 877.986 141.277 877.915 141.943ZM887.737 146.957C886.883 146.957 886.199 146.819 885.683 146.543C885.168 146.268 884.785 145.917 884.537 145.49C884.297 145.063 884.163 144.632 884.137 144.197H886.03C886.065 144.437 886.154 144.659 886.297 144.863C886.448 145.068 886.648 145.232 886.897 145.357C887.154 145.472 887.465 145.53 887.83 145.53C888.265 145.53 888.585 145.45 888.79 145.29C888.994 145.13 889.097 144.925 889.097 144.677C889.097 144.445 889.008 144.25 888.83 144.09C888.652 143.93 888.363 143.783 887.963 143.65L887.003 143.33C886.55 143.17 886.132 142.997 885.75 142.81C885.377 142.614 885.074 142.365 884.843 142.063C884.621 141.761 884.51 141.374 884.51 140.903C884.51 140.201 884.772 139.637 885.297 139.21C885.83 138.774 886.577 138.557 887.537 138.557C888.23 138.557 888.799 138.668 889.243 138.89C889.688 139.103 890.021 139.397 890.243 139.77C890.474 140.134 890.608 140.543 890.643 140.997H888.817C888.772 140.668 888.639 140.405 888.417 140.21C888.194 140.014 887.874 139.917 887.457 139.917C887.092 139.917 886.817 139.992 886.63 140.143C886.443 140.285 886.35 140.481 886.35 140.73C886.35 140.979 886.448 141.183 886.643 141.343C886.839 141.503 887.132 141.65 887.523 141.783L888.483 142.103C888.937 142.245 889.35 142.414 889.723 142.61C890.097 142.797 890.394 143.041 890.617 143.343C890.839 143.645 890.95 144.037 890.95 144.517C890.95 145.245 890.674 145.837 890.123 146.29C889.572 146.734 888.777 146.957 887.737 146.957Z" fill="#111827"/>
<rect x="800.608" y="225.64" width="158.872" height="63.0371" fill="#FAFAFA"/>
<path d="M834.697 251.158V240.758H838.323C840.154 240.758 841.483 241.216 842.31 242.132C843.146 243.038 843.563 244.314 843.563 245.958C843.563 247.603 843.146 248.883 842.31 249.798C841.483 250.705 840.154 251.158 838.323 251.158H834.697ZM836.75 249.545H838.19C838.928 249.545 839.537 249.429 840.017 249.198C840.497 248.967 840.852 248.594 841.083 248.078C841.323 247.554 841.443 246.847 841.443 245.958C841.443 245.069 841.323 244.363 841.083 243.838C840.852 243.314 840.497 242.94 840.017 242.718C839.537 242.487 838.928 242.372 838.19 242.372H836.75V249.545ZM848.298 251.358C847.063 251.358 846.121 250.98 845.472 250.225C844.823 249.46 844.498 248.434 844.498 247.145C844.498 246.283 844.641 245.54 844.925 244.918C845.218 244.296 845.645 243.816 846.205 243.478C846.774 243.132 847.467 242.958 848.285 242.958C849.449 242.958 850.338 243.318 850.952 244.038C851.574 244.749 851.885 245.798 851.885 247.185V247.625H846.432C846.476 248.327 846.658 248.887 846.978 249.305C847.298 249.723 847.743 249.932 848.312 249.932C848.747 249.932 849.098 249.803 849.365 249.545C849.632 249.287 849.814 248.972 849.912 248.598H851.792C851.703 249.096 851.521 249.554 851.245 249.972C850.969 250.389 850.587 250.727 850.098 250.985C849.618 251.234 849.018 251.358 848.298 251.358ZM846.432 246.345H849.965C849.929 245.705 849.765 245.207 849.472 244.852C849.187 244.496 848.787 244.318 848.272 244.318C847.747 244.318 847.325 244.492 847.005 244.838C846.694 245.176 846.503 245.678 846.432 246.345ZM854.713 251.158L852.379 243.238V243.158H854.379L856.166 249.532H856.486L858.286 243.158H860.113V243.238L857.779 251.158H854.713ZM864.595 251.358C863.36 251.358 862.417 250.98 861.769 250.225C861.12 249.46 860.795 248.434 860.795 247.145C860.795 246.283 860.937 245.54 861.222 244.918C861.515 244.296 861.942 243.816 862.502 243.478C863.071 243.132 863.764 242.958 864.582 242.958C865.746 242.958 866.635 243.318 867.249 244.038C867.871 244.749 868.182 245.798 868.182 247.185V247.625H862.729C862.773 248.327 862.955 248.887 863.275 249.305C863.595 249.723 864.04 249.932 864.609 249.932C865.044 249.932 865.395 249.803 865.662 249.545C865.929 249.287 866.111 248.972 866.209 248.598H868.089C868 249.096 867.817 249.554 867.542 249.972C867.266 250.389 866.884 250.727 866.395 250.985C865.915 251.234 865.315 251.358 864.595 251.358ZM862.729 246.345H866.262C866.226 245.705 866.062 245.207 865.769 244.852C865.484 244.496 865.084 244.318 864.569 244.318C864.044 244.318 863.622 244.492 863.302 244.838C862.991 245.176 862.8 245.678 862.729 246.345ZM870.297 251.158C870.057 250.883 869.883 250.567 869.777 250.212C869.67 249.856 869.617 249.376 869.617 248.772V240.492H871.603V248.558C871.603 249.243 871.679 249.772 871.83 250.145C871.981 250.509 872.177 250.82 872.417 251.078V251.158H870.297ZM877.055 251.358C875.757 251.358 874.788 250.98 874.148 250.225C873.517 249.46 873.201 248.438 873.201 247.158C873.201 245.878 873.517 244.86 874.148 244.105C874.788 243.34 875.757 242.958 877.055 242.958C878.353 242.958 879.321 243.34 879.961 244.105C880.601 244.86 880.921 245.878 880.921 247.158C880.921 248.438 880.601 249.46 879.961 250.225C879.321 250.98 878.353 251.358 877.055 251.358ZM877.055 249.985C877.686 249.985 878.144 249.745 878.428 249.265C878.721 248.776 878.868 248.074 878.868 247.158C878.868 246.234 878.721 245.532 878.428 245.052C878.144 244.572 877.686 244.332 877.055 244.332C876.433 244.332 875.975 244.572 875.681 245.052C875.388 245.532 875.241 246.234 875.241 247.158C875.241 248.074 875.388 248.776 875.681 249.265C875.975 249.745 876.433 249.985 877.055 249.985ZM882.438 253.825V243.158H884.265V244.198H884.585C884.753 243.86 885.016 243.576 885.371 243.345C885.736 243.105 886.216 242.985 886.811 242.985C887.531 242.985 888.127 243.163 888.598 243.518C889.078 243.874 889.433 244.367 889.665 244.998C889.905 245.62 890.025 246.345 890.025 247.172C890.025 247.989 889.905 248.714 889.665 249.345C889.425 249.976 889.065 250.465 888.585 250.812C888.113 251.158 887.527 251.332 886.825 251.332C886.3 251.332 885.869 251.234 885.531 251.038C885.193 250.843 884.931 250.58 884.745 250.252H884.425V253.825H882.438ZM886.291 249.892C886.825 249.892 887.238 249.66 887.531 249.198C887.825 248.736 887.971 248.056 887.971 247.158C887.971 246.26 887.825 245.58 887.531 245.118C887.238 244.656 886.825 244.425 886.291 244.425C885.722 244.425 885.265 244.674 884.918 245.172C884.58 245.66 884.411 246.323 884.411 247.158C884.411 247.985 884.58 248.647 884.918 249.145C885.265 249.643 885.722 249.892 886.291 249.892ZM891.547 251.158V243.158H893.374V244.358H893.694C893.836 243.958 894.072 243.625 894.401 243.358C894.738 243.092 895.21 242.958 895.814 242.958C896.374 242.958 896.836 243.083 897.201 243.332C897.565 243.572 897.845 243.914 898.041 244.358H898.361C898.512 243.949 898.761 243.616 899.107 243.358C899.454 243.092 899.921 242.958 900.507 242.958C901.378 242.958 902.023 243.243 902.441 243.812C902.858 244.372 903.067 245.123 903.067 246.065V251.158H901.094V246.412C901.094 245.834 900.996 245.385 900.801 245.065C900.614 244.745 900.312 244.585 899.894 244.585C899.378 244.585 898.983 244.803 898.707 245.238C898.432 245.674 898.294 246.207 898.294 246.838V251.158H896.321V246.412C896.321 245.834 896.223 245.385 896.027 245.065C895.841 244.745 895.538 244.585 895.121 244.585C894.614 244.585 894.223 244.803 893.947 245.238C893.672 245.674 893.534 246.207 893.534 246.838V251.158H891.547ZM908.283 251.358C907.047 251.358 906.105 250.98 905.456 250.225C904.807 249.46 904.483 248.434 904.483 247.145C904.483 246.283 904.625 245.54 904.909 244.918C905.203 244.296 905.629 243.816 906.189 243.478C906.758 243.132 907.452 242.958 908.269 242.958C909.434 242.958 910.323 243.318 910.936 244.038C911.558 244.749 911.869 245.798 911.869 247.185V247.625H906.416C906.46 248.327 906.643 248.887 906.963 249.305C907.283 249.723 907.727 249.932 908.296 249.932C908.732 249.932 909.083 249.803 909.349 249.545C909.616 249.287 909.798 248.972 909.896 248.598H911.776C911.687 249.096 911.505 249.554 911.229 249.972C910.954 250.389 910.572 250.727 910.083 250.985C909.603 251.234 909.003 251.358 908.283 251.358ZM906.416 246.345H909.949C909.914 245.705 909.749 245.207 909.456 244.852C909.172 244.496 908.772 244.318 908.256 244.318C907.732 244.318 907.309 244.492 906.989 244.838C906.678 245.176 906.487 245.678 906.416 246.345ZM913.344 251.158V243.158H915.171V244.358H915.491C915.642 243.949 915.891 243.616 916.238 243.358C916.584 243.092 917.073 242.958 917.704 242.958C918.602 242.958 919.269 243.243 919.704 243.812C920.149 244.372 920.371 245.123 920.371 246.065V251.158H918.384V246.412C918.384 245.825 918.278 245.376 918.064 245.065C917.86 244.745 917.526 244.585 917.064 244.585C916.513 244.585 916.086 244.803 915.784 245.238C915.482 245.665 915.331 246.198 915.331 246.838V251.158H913.344ZM923.446 251.158C923.242 250.918 923.077 250.629 922.953 250.292C922.837 249.954 922.78 249.447 922.78 248.772V244.572H921.686V243.158H922.806V241.158H924.74V243.158H926.06V244.572H924.753V248.545C924.753 249.256 924.833 249.798 924.993 250.172C925.153 250.536 925.344 250.838 925.566 251.078V251.158H923.446ZM850.503 275.358C849.019 275.358 847.863 274.883 847.037 273.932C846.21 272.98 845.797 271.656 845.797 269.958C845.797 268.269 846.205 266.949 847.023 265.998C847.841 265.038 849.001 264.558 850.503 264.558C851.392 264.558 852.157 264.727 852.797 265.065C853.437 265.394 853.939 265.856 854.303 266.452C854.668 267.047 854.881 267.736 854.943 268.518H852.89C852.819 267.772 852.57 267.185 852.143 266.758C851.725 266.332 851.179 266.118 850.503 266.118C849.65 266.118 849.005 266.456 848.57 267.132C848.134 267.798 847.917 268.745 847.917 269.972C847.917 271.234 848.139 272.189 848.583 272.838C849.037 273.478 849.672 273.798 850.49 273.798C851.201 273.798 851.761 273.576 852.17 273.132C852.588 272.687 852.828 272.109 852.89 271.398H854.943C854.881 272.172 854.668 272.856 854.303 273.452C853.939 274.047 853.437 274.514 852.797 274.852C852.165 275.189 851.401 275.358 850.503 275.358ZM859.672 275.358C858.374 275.358 857.405 274.98 856.765 274.225C856.134 273.46 855.819 272.438 855.819 271.158C855.819 269.878 856.134 268.86 856.765 268.105C857.405 267.34 858.374 266.958 859.672 266.958C860.97 266.958 861.939 267.34 862.579 268.105C863.219 268.86 863.539 269.878 863.539 271.158C863.539 272.438 863.219 273.46 862.579 274.225C861.939 274.98 860.97 275.358 859.672 275.358ZM859.672 273.985C860.303 273.985 860.761 273.745 861.045 273.265C861.339 272.776 861.485 272.074 861.485 271.158C861.485 270.234 861.339 269.532 861.045 269.052C860.761 268.572 860.303 268.332 859.672 268.332C859.05 268.332 858.592 268.572 858.299 269.052C858.005 269.532 857.859 270.234 857.859 271.158C857.859 272.074 858.005 272.776 858.299 273.265C858.592 273.745 859.05 273.985 859.672 273.985ZM865.055 275.158V267.158H866.882V268.358H867.202C867.353 267.949 867.602 267.616 867.948 267.358C868.295 267.092 868.784 266.958 869.415 266.958C870.313 266.958 870.98 267.243 871.415 267.812C871.86 268.372 872.082 269.123 872.082 270.065V275.158H870.095V270.412C870.095 269.825 869.988 269.376 869.775 269.065C869.571 268.745 869.237 268.585 868.775 268.585C868.224 268.585 867.797 268.803 867.495 269.238C867.193 269.665 867.042 270.198 867.042 270.838V275.158H865.055ZM875.157 275.158C874.953 274.918 874.788 274.629 874.664 274.292C874.548 273.954 874.491 273.447 874.491 272.772V268.572H873.397V267.158H874.517V265.158H876.451V267.158H877.771V268.572H876.464V272.545C876.464 273.256 876.544 273.798 876.704 274.172C876.864 274.536 877.055 274.838 877.277 275.078V275.158H875.157ZM881.902 275.332C881.174 275.332 880.569 275.154 880.089 274.798C879.609 274.434 879.249 273.94 879.009 273.318C878.778 272.687 878.662 271.963 878.662 271.145C878.662 270.309 878.782 269.58 879.022 268.958C879.262 268.336 879.622 267.852 880.102 267.505C880.582 267.158 881.182 266.985 881.902 266.985C882.471 266.985 882.934 267.1 883.289 267.332C883.654 267.554 883.925 267.843 884.102 268.198H884.422V267.158H886.249V275.158H884.422V274.118H884.102C883.925 274.447 883.658 274.732 883.302 274.972C882.947 275.212 882.48 275.332 881.902 275.332ZM882.396 273.892C882.965 273.892 883.418 273.643 883.756 273.145C884.102 272.647 884.276 271.985 884.276 271.158C884.276 270.323 884.102 269.66 883.756 269.172C883.418 268.674 882.965 268.425 882.396 268.425C881.862 268.425 881.445 268.656 881.142 269.118C880.849 269.58 880.702 270.26 880.702 271.158C880.702 272.056 880.849 272.736 881.142 273.198C881.445 273.66 881.862 273.892 882.396 273.892ZM888.305 275.158V267.158H890.292V275.158H888.305ZM889.292 266.185C888.936 266.185 888.665 266.092 888.478 265.905C888.292 265.709 888.198 265.46 888.198 265.158C888.198 264.847 888.292 264.598 888.478 264.412C888.665 264.225 888.936 264.132 889.292 264.132C889.647 264.132 889.918 264.225 890.105 264.412C890.292 264.598 890.385 264.847 890.385 265.158C890.385 265.46 890.292 265.709 890.105 265.905C889.918 266.092 889.647 266.185 889.292 266.185ZM892.352 275.158V267.158H894.179V268.358H894.499C894.65 267.949 894.899 267.616 895.245 267.358C895.592 267.092 896.081 266.958 896.712 266.958C897.61 266.958 898.276 267.243 898.712 267.812C899.156 268.372 899.379 269.123 899.379 270.065V275.158H897.392V270.412C897.392 269.825 897.285 269.376 897.072 269.065C896.868 268.745 896.534 268.585 896.072 268.585C895.521 268.585 895.094 268.803 894.792 269.238C894.49 269.665 894.339 270.198 894.339 270.838V275.158H892.352ZM904.587 275.358C903.352 275.358 902.41 274.98 901.761 274.225C901.112 273.46 900.787 272.434 900.787 271.145C900.787 270.283 900.93 269.54 901.214 268.918C901.507 268.296 901.934 267.816 902.494 267.478C903.063 267.132 903.756 266.958 904.574 266.958C905.739 266.958 906.627 267.318 907.241 268.038C907.863 268.749 908.174 269.798 908.174 271.185V271.625H902.721C902.765 272.327 902.947 272.887 903.267 273.305C903.587 273.723 904.032 273.932 904.601 273.932C905.036 273.932 905.387 273.803 905.654 273.545C905.921 273.287 906.103 272.972 906.201 272.598H908.081C907.992 273.096 907.81 273.554 907.534 273.972C907.259 274.389 906.876 274.727 906.387 274.985C905.907 275.234 905.307 275.358 904.587 275.358ZM902.721 270.345H906.254C906.219 269.705 906.054 269.207 905.761 268.852C905.476 268.496 905.076 268.318 904.561 268.318C904.036 268.318 903.614 268.492 903.294 268.838C902.983 269.176 902.792 269.678 902.721 270.345ZM909.636 275.158V267.158H911.436V268.598H911.756C911.809 268.34 911.907 268.096 912.049 267.865C912.191 267.634 912.413 267.447 912.716 267.305C913.018 267.154 913.427 267.078 913.942 267.078H914.329V268.878H913.782C913.018 268.878 912.467 269.074 912.129 269.465C911.791 269.856 911.622 270.447 911.622 271.238V275.158H909.636Z" fill="#111827"/>
<rect x="160.66" y="97.5176" width="126.858" height="63.0371" fill="#FAFAFA"/>
<path d="M191.289 123.036V112.636H194.929L197.062 121.409H197.502L199.662 112.636H203.302V123.036H201.369V114.329H201.022L198.929 123.036H195.542L193.449 114.329H193.102V123.036H191.289ZM208.096 123.209C207.367 123.209 206.763 123.032 206.283 122.676C205.803 122.312 205.443 121.818 205.203 121.196C204.971 120.565 204.856 119.841 204.856 119.023C204.856 118.187 204.976 117.458 205.216 116.836C205.456 116.214 205.816 115.729 206.296 115.383C206.776 115.036 207.376 114.863 208.096 114.863C208.665 114.863 209.127 114.978 209.483 115.209C209.847 115.432 210.118 115.721 210.296 116.076H210.616V115.036H212.443V123.036H210.616V121.996H210.296C210.118 122.325 209.851 122.609 209.496 122.849C209.14 123.089 208.674 123.209 208.096 123.209ZM208.589 121.769C209.158 121.769 209.611 121.521 209.949 121.023C210.296 120.525 210.469 119.863 210.469 119.036C210.469 118.201 210.296 117.538 209.949 117.049C209.611 116.552 209.158 116.303 208.589 116.303C208.056 116.303 207.638 116.534 207.336 116.996C207.043 117.458 206.896 118.138 206.896 119.036C206.896 119.934 207.043 120.614 207.336 121.076C207.638 121.538 208.056 121.769 208.589 121.769ZM214.499 123.036V115.036H216.325V116.236H216.645C216.796 115.827 217.045 115.494 217.392 115.236C217.739 114.969 218.227 114.836 218.859 114.836C219.756 114.836 220.423 115.121 220.859 115.689C221.303 116.249 221.525 117.001 221.525 117.943V123.036H219.539V118.289C219.539 117.703 219.432 117.254 219.219 116.943C219.014 116.623 218.681 116.463 218.219 116.463C217.667 116.463 217.241 116.681 216.939 117.116C216.636 117.543 216.485 118.076 216.485 118.716V123.036H214.499ZM226.174 123.209C225.445 123.209 224.841 123.032 224.361 122.676C223.881 122.312 223.521 121.818 223.281 121.196C223.05 120.565 222.934 119.841 222.934 119.023C222.934 118.187 223.054 117.458 223.294 116.836C223.534 116.214 223.894 115.729 224.374 115.383C224.854 115.036 225.454 114.863 226.174 114.863C226.743 114.863 227.205 114.978 227.561 115.209C227.925 115.432 228.196 115.721 228.374 116.076H228.694V115.036H230.521V123.036H228.694V121.996H228.374C228.196 122.325 227.93 122.609 227.574 122.849C227.218 123.089 226.752 123.209 226.174 123.209ZM226.667 121.769C227.236 121.769 227.69 121.521 228.027 121.023C228.374 120.525 228.547 119.863 228.547 119.036C228.547 118.201 228.374 117.538 228.027 117.049C227.69 116.552 227.236 116.303 226.667 116.303C226.134 116.303 225.716 116.534 225.414 116.996C225.121 117.458 224.974 118.138 224.974 119.036C224.974 119.934 225.121 120.614 225.414 121.076C225.716 121.538 226.134 121.769 226.667 121.769ZM235.87 125.903C235.168 125.903 234.594 125.814 234.15 125.636C233.714 125.467 233.372 125.249 233.123 124.983C232.883 124.725 232.71 124.454 232.603 124.169C232.497 123.894 232.434 123.641 232.417 123.409H234.35C234.394 123.685 234.528 123.929 234.75 124.143C234.981 124.365 235.354 124.476 235.87 124.476C236.439 124.476 236.87 124.307 237.163 123.969C237.466 123.641 237.617 123.156 237.617 122.516V121.583H237.297C237.163 121.956 236.928 122.254 236.59 122.476C236.252 122.698 235.803 122.809 235.243 122.809C234.212 122.809 233.421 122.449 232.87 121.729C232.319 121.001 232.043 120.027 232.043 118.809C232.043 118.027 232.163 117.338 232.403 116.743C232.652 116.138 233.012 115.672 233.483 115.343C233.963 115.005 234.559 114.836 235.27 114.836C235.83 114.836 236.274 114.947 236.603 115.169C236.941 115.383 237.19 115.663 237.35 116.009H237.67V115.036H239.497V122.476C239.497 123.569 239.194 124.414 238.59 125.009C237.994 125.605 237.088 125.903 235.87 125.903ZM235.723 121.369C236.292 121.369 236.732 121.138 237.043 120.676C237.363 120.205 237.523 119.587 237.523 118.823C237.523 118.041 237.363 117.423 237.043 116.969C236.723 116.507 236.283 116.276 235.723 116.276C235.208 116.276 234.799 116.489 234.497 116.916C234.194 117.343 234.043 117.978 234.043 118.823C234.043 119.667 234.19 120.303 234.483 120.729C234.786 121.156 235.199 121.369 235.723 121.369ZM244.812 123.236C243.577 123.236 242.634 122.858 241.985 122.103C241.337 121.338 241.012 120.312 241.012 119.023C241.012 118.161 241.154 117.418 241.439 116.796C241.732 116.174 242.159 115.694 242.719 115.356C243.288 115.009 243.981 114.836 244.799 114.836C245.963 114.836 246.852 115.196 247.465 115.916C248.088 116.627 248.399 117.676 248.399 119.063V119.503H242.945C242.99 120.205 243.172 120.765 243.492 121.183C243.812 121.601 244.257 121.809 244.825 121.809C245.261 121.809 245.612 121.681 245.879 121.423C246.145 121.165 246.328 120.849 246.425 120.476H248.305C248.217 120.974 248.034 121.432 247.759 121.849C247.483 122.267 247.101 122.605 246.612 122.863C246.132 123.112 245.532 123.236 244.812 123.236ZM242.945 118.223H246.479C246.443 117.583 246.279 117.085 245.985 116.729C245.701 116.374 245.301 116.196 244.785 116.196C244.261 116.196 243.839 116.369 243.519 116.716C243.208 117.054 243.017 117.556 242.945 118.223ZM252.54 123.209C251.82 123.209 251.225 123.032 250.754 122.676C250.282 122.312 249.927 121.818 249.687 121.196C249.447 120.565 249.327 119.841 249.327 119.023C249.327 118.187 249.447 117.458 249.687 116.836C249.927 116.214 250.282 115.729 250.754 115.383C251.234 115.036 251.825 114.863 252.527 114.863C253.06 114.863 253.491 114.961 253.82 115.156C254.158 115.352 254.425 115.609 254.62 115.929H254.94V112.369H256.914V123.036H255.1V121.996H254.78C254.602 122.325 254.331 122.609 253.967 122.849C253.611 123.089 253.136 123.209 252.54 123.209ZM253.06 121.769C253.638 121.769 254.096 121.521 254.434 121.023C254.771 120.525 254.94 119.863 254.94 119.036C254.94 118.201 254.771 117.538 254.434 117.049C254.096 116.552 253.638 116.303 253.06 116.303C252.536 116.303 252.122 116.534 251.82 116.996C251.527 117.458 251.38 118.138 251.38 119.036C251.38 119.934 251.527 120.614 251.82 121.076C252.122 121.538 252.536 121.769 253.06 121.769ZM185.062 147.036V136.636H187.062V140.729H187.862L190.982 136.636H193.249V136.716L189.555 141.463L193.782 146.956V147.036H191.329L187.862 142.383H187.062V147.036H185.062ZM196.984 147.236C196.077 147.236 195.401 146.956 194.957 146.396C194.513 145.827 194.29 145.072 194.29 144.129V139.036H196.277V143.783C196.277 144.361 196.379 144.809 196.584 145.129C196.797 145.449 197.13 145.609 197.584 145.609C198.144 145.609 198.575 145.392 198.877 144.956C199.179 144.521 199.33 143.987 199.33 143.356V139.036H201.317V147.036H199.53V145.836H199.21C199.077 146.245 198.828 146.583 198.464 146.849C198.108 147.107 197.615 147.236 196.984 147.236ZM207.739 147.209C207.144 147.209 206.664 147.089 206.299 146.849C205.944 146.609 205.681 146.325 205.512 145.996H205.192V147.036H203.366V136.369H205.352V139.929H205.672C205.859 139.609 206.121 139.352 206.459 139.156C206.797 138.961 207.228 138.863 207.752 138.863C208.455 138.863 209.041 139.036 209.512 139.383C209.992 139.729 210.352 140.214 210.592 140.836C210.832 141.458 210.952 142.187 210.952 143.023C210.952 143.841 210.832 144.565 210.592 145.196C210.361 145.818 210.006 146.312 209.526 146.676C209.055 147.032 208.459 147.209 207.739 147.209ZM207.219 145.769C207.752 145.769 208.166 145.538 208.459 145.076C208.752 144.614 208.899 143.934 208.899 143.036C208.899 142.138 208.752 141.458 208.459 140.996C208.166 140.534 207.752 140.303 207.219 140.303C206.65 140.303 206.192 140.552 205.846 141.049C205.508 141.538 205.339 142.201 205.339 143.036C205.339 143.863 205.508 144.525 205.846 145.023C206.192 145.521 206.65 145.769 207.219 145.769ZM215.742 147.236C214.506 147.236 213.564 146.858 212.915 146.103C212.266 145.338 211.942 144.312 211.942 143.023C211.942 142.161 212.084 141.418 212.368 140.796C212.662 140.174 213.088 139.694 213.648 139.356C214.217 139.009 214.911 138.836 215.728 138.836C216.893 138.836 217.782 139.196 218.395 139.916C219.017 140.627 219.328 141.676 219.328 143.063V143.503H213.875C213.92 144.205 214.102 144.765 214.422 145.183C214.742 145.601 215.186 145.809 215.755 145.809C216.191 145.809 216.542 145.681 216.808 145.423C217.075 145.165 217.257 144.849 217.355 144.476H219.235C219.146 144.974 218.964 145.432 218.688 145.849C218.413 146.267 218.031 146.605 217.542 146.863C217.062 147.112 216.462 147.236 215.742 147.236ZM213.875 142.223H217.408C217.373 141.583 217.208 141.085 216.915 140.729C216.631 140.374 216.231 140.196 215.715 140.196C215.191 140.196 214.768 140.369 214.448 140.716C214.137 141.054 213.946 141.556 213.875 142.223ZM220.79 147.036V139.036H222.59V140.476H222.91C222.963 140.218 223.061 139.974 223.203 139.743C223.346 139.512 223.568 139.325 223.87 139.183C224.172 139.032 224.581 138.956 225.097 138.956H225.483V140.756H224.937C224.172 140.756 223.621 140.952 223.283 141.343C222.946 141.734 222.777 142.325 222.777 143.116V147.036H220.79ZM226.913 147.036V139.036H228.739V140.236H229.059C229.21 139.827 229.459 139.494 229.806 139.236C230.153 138.969 230.642 138.836 231.273 138.836C232.17 138.836 232.837 139.121 233.273 139.689C233.717 140.249 233.939 141.001 233.939 141.943V147.036H231.953V142.289C231.953 141.703 231.846 141.254 231.633 140.943C231.428 140.623 231.095 140.463 230.633 140.463C230.082 140.463 229.655 140.681 229.353 141.116C229.05 141.543 228.899 142.076 228.899 142.716V147.036H226.913ZM239.148 147.236C237.913 147.236 236.97 146.858 236.321 146.103C235.673 145.338 235.348 144.312 235.348 143.023C235.348 142.161 235.49 141.418 235.775 140.796C236.068 140.174 236.495 139.694 237.055 139.356C237.624 139.009 238.317 138.836 239.135 138.836C240.299 138.836 241.188 139.196 241.801 139.916C242.424 140.627 242.735 141.676 242.735 143.063V143.503H237.281C237.326 144.205 237.508 144.765 237.828 145.183C238.148 145.601 238.593 145.809 239.161 145.809C239.597 145.809 239.948 145.681 240.215 145.423C240.481 145.165 240.664 144.849 240.761 144.476H242.641C242.553 144.974 242.37 145.432 242.095 145.849C241.819 146.267 241.437 146.605 240.948 146.863C240.468 147.112 239.868 147.236 239.148 147.236ZM237.281 142.223H240.815C240.779 141.583 240.615 141.085 240.321 140.729C240.037 140.374 239.637 140.196 239.121 140.196C238.597 140.196 238.175 140.369 237.855 140.716C237.544 141.054 237.353 141.556 237.281 142.223ZM245.343 147.036C245.138 146.796 244.974 146.507 244.85 146.169C244.734 145.832 244.676 145.325 244.676 144.649V140.449H243.583V139.036H244.703V137.036H246.636V139.036H247.956V140.449H246.65V144.423C246.65 145.134 246.73 145.676 246.89 146.049C247.05 146.414 247.241 146.716 247.463 146.956V147.036H245.343ZM252.648 147.236C251.413 147.236 250.47 146.858 249.821 146.103C249.173 145.338 248.848 144.312 248.848 143.023C248.848 142.161 248.99 141.418 249.275 140.796C249.568 140.174 249.995 139.694 250.555 139.356C251.124 139.009 251.817 138.836 252.635 138.836C253.799 138.836 254.688 139.196 255.301 139.916C255.924 140.627 256.235 141.676 256.235 143.063V143.503H250.781C250.826 144.205 251.008 144.765 251.328 145.183C251.648 145.601 252.093 145.809 252.661 145.809C253.097 145.809 253.448 145.681 253.715 145.423C253.981 145.165 254.164 144.849 254.261 144.476H256.141C256.053 144.974 255.87 145.432 255.595 145.849C255.319 146.267 254.937 146.605 254.448 146.863C253.968 147.112 253.368 147.236 252.648 147.236ZM250.781 142.223H254.315C254.279 141.583 254.115 141.085 253.821 140.729C253.537 140.374 253.137 140.196 252.621 140.196C252.097 140.196 251.675 140.369 251.355 140.716C251.044 141.054 250.853 141.556 250.781 142.223ZM260.603 147.236C259.75 147.236 259.065 147.098 258.55 146.823C258.034 146.547 257.652 146.196 257.403 145.769C257.163 145.343 257.03 144.912 257.003 144.476H258.896C258.932 144.716 259.021 144.938 259.163 145.143C259.314 145.347 259.514 145.512 259.763 145.636C260.021 145.752 260.332 145.809 260.696 145.809C261.132 145.809 261.452 145.729 261.656 145.569C261.861 145.409 261.963 145.205 261.963 144.956C261.963 144.725 261.874 144.529 261.696 144.369C261.518 144.209 261.23 144.063 260.83 143.929L259.87 143.609C259.416 143.449 258.998 143.276 258.616 143.089C258.243 142.894 257.941 142.645 257.71 142.343C257.487 142.041 257.376 141.654 257.376 141.183C257.376 140.481 257.638 139.916 258.163 139.489C258.696 139.054 259.443 138.836 260.403 138.836C261.096 138.836 261.665 138.947 262.11 139.169C262.554 139.383 262.887 139.676 263.11 140.049C263.341 140.414 263.474 140.823 263.51 141.276H261.683C261.638 140.947 261.505 140.685 261.283 140.489C261.061 140.294 260.741 140.196 260.323 140.196C259.958 140.196 259.683 140.272 259.496 140.423C259.31 140.565 259.216 140.761 259.216 141.009C259.216 141.258 259.314 141.463 259.51 141.623C259.705 141.783 259.998 141.929 260.39 142.063L261.35 142.383C261.803 142.525 262.216 142.694 262.59 142.889C262.963 143.076 263.261 143.321 263.483 143.623C263.705 143.925 263.816 144.316 263.816 144.796C263.816 145.525 263.541 146.116 262.99 146.569C262.438 147.014 261.643 147.236 260.603 147.236Z" fill="#111827"/>
<rect x="160.66" y="225.462" width="126.858" height="63.0371" fill="#FAFAFA"/>
<path d="M191.295 251.057V240.657H194.935L197.069 249.43H197.509L199.669 240.657H203.309V251.057H201.375V242.35H201.029L198.935 251.057H195.549L193.455 242.35H193.109V251.057H191.295ZM208.102 251.23C207.374 251.23 206.769 251.052 206.289 250.697C205.809 250.332 205.449 249.839 205.209 249.217C204.978 248.586 204.862 247.861 204.862 247.043C204.862 246.208 204.982 245.479 205.222 244.857C205.462 244.235 205.822 243.75 206.302 243.403C206.782 243.057 207.382 242.883 208.102 242.883C208.671 242.883 209.134 242.999 209.489 243.23C209.854 243.452 210.125 243.741 210.302 244.097H210.622V243.057H212.449V251.057H210.622V250.017H210.302C210.125 250.346 209.858 250.63 209.502 250.87C209.147 251.11 208.68 251.23 208.102 251.23ZM208.596 249.79C209.165 249.79 209.618 249.541 209.956 249.043C210.302 248.546 210.476 247.883 210.476 247.057C210.476 246.221 210.302 245.559 209.956 245.07C209.618 244.572 209.165 244.323 208.596 244.323C208.062 244.323 207.645 244.555 207.342 245.017C207.049 245.479 206.902 246.159 206.902 247.057C206.902 247.955 207.049 248.635 207.342 249.097C207.645 249.559 208.062 249.79 208.596 249.79ZM214.505 251.057V243.057H216.332V244.257H216.652C216.803 243.848 217.052 243.515 217.399 243.257C217.745 242.99 218.234 242.857 218.865 242.857C219.763 242.857 220.43 243.141 220.865 243.71C221.31 244.27 221.532 245.021 221.532 245.963V251.057H219.545V246.31C219.545 245.723 219.439 245.275 219.225 244.963C219.021 244.643 218.687 244.483 218.225 244.483C217.674 244.483 217.247 244.701 216.945 245.137C216.643 245.563 216.492 246.097 216.492 246.737V251.057H214.505ZM226.181 251.23C225.452 251.23 224.847 251.052 224.367 250.697C223.887 250.332 223.527 249.839 223.287 249.217C223.056 248.586 222.941 247.861 222.941 247.043C222.941 246.208 223.061 245.479 223.301 244.857C223.541 244.235 223.901 243.75 224.381 243.403C224.861 243.057 225.461 242.883 226.181 242.883C226.75 242.883 227.212 242.999 227.567 243.23C227.932 243.452 228.203 243.741 228.381 244.097H228.701V243.057H230.527V251.057H228.701V250.017H228.381C228.203 250.346 227.936 250.63 227.581 250.87C227.225 251.11 226.758 251.23 226.181 251.23ZM226.674 249.79C227.243 249.79 227.696 249.541 228.034 249.043C228.381 248.546 228.554 247.883 228.554 247.057C228.554 246.221 228.381 245.559 228.034 245.07C227.696 244.572 227.243 244.323 226.674 244.323C226.141 244.323 225.723 244.555 225.421 245.017C225.127 245.479 224.981 246.159 224.981 247.057C224.981 247.955 225.127 248.635 225.421 249.097C225.723 249.559 226.141 249.79 226.674 249.79ZM235.877 253.923C235.174 253.923 234.601 253.835 234.157 253.657C233.721 253.488 233.379 253.27 233.13 253.003C232.89 252.746 232.717 252.475 232.61 252.19C232.503 251.915 232.441 251.661 232.423 251.43H234.357C234.401 251.706 234.534 251.95 234.757 252.163C234.988 252.386 235.361 252.497 235.877 252.497C236.446 252.497 236.877 252.328 237.17 251.99C237.472 251.661 237.623 251.177 237.623 250.537V249.603H237.303C237.17 249.977 236.934 250.275 236.597 250.497C236.259 250.719 235.81 250.83 235.25 250.83C234.219 250.83 233.428 250.47 232.877 249.75C232.326 249.021 232.05 248.048 232.05 246.83C232.05 246.048 232.17 245.359 232.41 244.763C232.659 244.159 233.019 243.692 233.49 243.363C233.97 243.026 234.566 242.857 235.277 242.857C235.837 242.857 236.281 242.968 236.61 243.19C236.948 243.403 237.197 243.683 237.357 244.03H237.677V243.057H239.503V250.497C239.503 251.59 239.201 252.435 238.597 253.03C238.001 253.626 237.094 253.923 235.877 253.923ZM235.73 249.39C236.299 249.39 236.739 249.159 237.05 248.697C237.37 248.226 237.53 247.608 237.53 246.843C237.53 246.061 237.37 245.443 237.05 244.99C236.73 244.528 236.29 244.297 235.73 244.297C235.214 244.297 234.806 244.51 234.503 244.937C234.201 245.363 234.05 245.999 234.05 246.843C234.05 247.688 234.197 248.323 234.49 248.75C234.792 249.177 235.206 249.39 235.73 249.39ZM244.819 251.257C243.583 251.257 242.641 250.879 241.992 250.123C241.343 249.359 241.019 248.332 241.019 247.043C241.019 246.181 241.161 245.439 241.445 244.817C241.739 244.195 242.165 243.715 242.725 243.377C243.294 243.03 243.988 242.857 244.805 242.857C245.97 242.857 246.859 243.217 247.472 243.937C248.094 244.648 248.405 245.697 248.405 247.083V247.523H242.952C242.997 248.226 243.179 248.786 243.499 249.203C243.819 249.621 244.263 249.83 244.832 249.83C245.268 249.83 245.619 249.701 245.885 249.443C246.152 249.186 246.334 248.87 246.432 248.497H248.312C248.223 248.995 248.041 249.452 247.765 249.87C247.49 250.288 247.108 250.626 246.619 250.883C246.139 251.132 245.539 251.257 244.819 251.257ZM242.952 246.243H246.485C246.45 245.603 246.285 245.106 245.992 244.75C245.708 244.395 245.308 244.217 244.792 244.217C244.268 244.217 243.845 244.39 243.525 244.737C243.214 245.075 243.023 245.577 242.952 246.243ZM252.547 251.23C251.827 251.23 251.231 251.052 250.76 250.697C250.289 250.332 249.934 249.839 249.694 249.217C249.454 248.586 249.334 247.861 249.334 247.043C249.334 246.208 249.454 245.479 249.694 244.857C249.934 244.235 250.289 243.75 250.76 243.403C251.24 243.057 251.831 242.883 252.534 242.883C253.067 242.883 253.498 242.981 253.827 243.177C254.165 243.372 254.431 243.63 254.627 243.95H254.947V240.39H256.92V251.057H255.107V250.017H254.787C254.609 250.346 254.338 250.63 253.974 250.87C253.618 251.11 253.142 251.23 252.547 251.23ZM253.067 249.79C253.645 249.79 254.102 249.541 254.44 249.043C254.778 248.546 254.947 247.883 254.947 247.057C254.947 246.221 254.778 245.559 254.44 245.07C254.102 244.572 253.645 244.323 253.067 244.323C252.542 244.323 252.129 244.555 251.827 245.017C251.534 245.479 251.387 246.159 251.387 247.057C251.387 247.955 251.534 248.635 251.827 249.097C252.129 249.559 252.542 249.79 253.067 249.79ZM191.215 275.057V264.657H193.268V275.057H191.215ZM195.365 275.057V267.057H197.191V268.257H197.511C197.662 267.848 197.911 267.515 198.258 267.257C198.605 266.99 199.093 266.857 199.725 266.857C200.622 266.857 201.289 267.141 201.725 267.71C202.169 268.27 202.391 269.021 202.391 269.963V275.057H200.405V270.31C200.405 269.723 200.298 269.275 200.085 268.963C199.88 268.643 199.547 268.483 199.085 268.483C198.533 268.483 198.107 268.701 197.805 269.137C197.502 269.563 197.351 270.097 197.351 270.737V275.057H195.365ZM207.227 275.257C206.373 275.257 205.689 275.119 205.173 274.843C204.658 274.568 204.276 274.217 204.027 273.79C203.787 273.363 203.653 272.932 203.627 272.497H205.52C205.556 272.737 205.644 272.959 205.787 273.163C205.938 273.368 206.138 273.532 206.387 273.657C206.644 273.772 206.956 273.83 207.32 273.83C207.756 273.83 208.076 273.75 208.28 273.59C208.484 273.43 208.587 273.226 208.587 272.977C208.587 272.746 208.498 272.55 208.32 272.39C208.142 272.23 207.853 272.083 207.453 271.95L206.493 271.63C206.04 271.47 205.622 271.297 205.24 271.11C204.867 270.915 204.564 270.666 204.333 270.363C204.111 270.061 204 269.675 204 269.203C204 268.501 204.262 267.937 204.787 267.51C205.32 267.075 206.067 266.857 207.027 266.857C207.72 266.857 208.289 266.968 208.733 267.19C209.178 267.403 209.511 267.697 209.733 268.07C209.964 268.435 210.098 268.843 210.133 269.297H208.307C208.262 268.968 208.129 268.706 207.907 268.51C207.684 268.315 207.364 268.217 206.947 268.217C206.582 268.217 206.307 268.292 206.12 268.443C205.933 268.586 205.84 268.781 205.84 269.03C205.84 269.279 205.938 269.483 206.133 269.643C206.329 269.803 206.622 269.95 207.013 270.083L207.973 270.403C208.427 270.546 208.84 270.715 209.213 270.91C209.587 271.097 209.884 271.341 210.107 271.643C210.329 271.946 210.44 272.337 210.44 272.817C210.44 273.546 210.164 274.137 209.613 274.59C209.062 275.035 208.267 275.257 207.227 275.257ZM212.967 275.057C212.762 274.817 212.598 274.528 212.473 274.19C212.358 273.852 212.3 273.346 212.3 272.67V268.47H211.207V267.057H212.327V265.057H214.26V267.057H215.58V268.47H214.273V272.443C214.273 273.155 214.353 273.697 214.513 274.07C214.673 274.435 214.864 274.737 215.087 274.977V275.057H212.967ZM219.712 275.23C218.983 275.23 218.379 275.052 217.899 274.697C217.419 274.332 217.059 273.839 216.819 273.217C216.587 272.586 216.472 271.861 216.472 271.043C216.472 270.208 216.592 269.479 216.832 268.857C217.072 268.235 217.432 267.75 217.912 267.403C218.392 267.057 218.992 266.883 219.712 266.883C220.281 266.883 220.743 266.999 221.099 267.23C221.463 267.452 221.734 267.741 221.912 268.097H222.232V267.057H224.059V275.057H222.232V274.017H221.912C221.734 274.346 221.467 274.63 221.112 274.87C220.756 275.11 220.29 275.23 219.712 275.23ZM220.205 273.79C220.774 273.79 221.227 273.541 221.565 273.043C221.912 272.546 222.085 271.883 222.085 271.057C222.085 270.221 221.912 269.559 221.565 269.07C221.227 268.572 220.774 268.323 220.205 268.323C219.672 268.323 219.254 268.555 218.952 269.017C218.659 269.479 218.512 270.159 218.512 271.057C218.512 271.955 218.659 272.635 218.952 273.097C219.254 273.559 219.672 273.79 220.205 273.79ZM226.115 275.057V267.057H227.941V268.257H228.261C228.412 267.848 228.661 267.515 229.008 267.257C229.355 266.99 229.843 266.857 230.475 266.857C231.372 266.857 232.039 267.141 232.475 267.71C232.919 268.27 233.141 269.021 233.141 269.963V275.057H231.155V270.31C231.155 269.723 231.048 269.275 230.835 268.963C230.63 268.643 230.297 268.483 229.835 268.483C229.283 268.483 228.857 268.701 228.555 269.137C228.252 269.563 228.101 270.097 228.101 270.737V275.057H226.115ZM238.27 275.257C237.052 275.257 236.128 274.879 235.497 274.123C234.866 273.359 234.55 272.337 234.55 271.057C234.55 269.715 234.879 268.679 235.537 267.95C236.203 267.221 237.119 266.857 238.283 266.857C239.314 266.857 240.128 267.132 240.723 267.683C241.319 268.235 241.674 268.99 241.79 269.95H239.843C239.781 269.417 239.617 269.008 239.35 268.723C239.083 268.43 238.737 268.283 238.31 268.283C237.75 268.283 237.323 268.528 237.03 269.017C236.737 269.497 236.59 270.177 236.59 271.057C236.59 271.937 236.732 272.617 237.017 273.097C237.31 273.577 237.737 273.817 238.297 273.817C238.732 273.817 239.083 273.675 239.35 273.39C239.617 273.097 239.781 272.683 239.843 272.15H241.79C241.666 273.11 241.301 273.87 240.697 274.43C240.101 274.981 239.292 275.257 238.27 275.257ZM246.522 275.257C245.286 275.257 244.344 274.879 243.695 274.123C243.046 273.359 242.722 272.332 242.722 271.043C242.722 270.181 242.864 269.439 243.149 268.817C243.442 268.195 243.869 267.715 244.429 267.377C244.997 267.03 245.691 266.857 246.509 266.857C247.673 266.857 248.562 267.217 249.175 267.937C249.797 268.648 250.109 269.697 250.109 271.083V271.523H244.655C244.7 272.226 244.882 272.786 245.202 273.203C245.522 273.621 245.966 273.83 246.535 273.83C246.971 273.83 247.322 273.701 247.589 273.443C247.855 273.186 248.037 272.87 248.135 272.497H250.015C249.926 272.995 249.744 273.452 249.469 273.87C249.193 274.288 248.811 274.626 248.322 274.883C247.842 275.132 247.242 275.257 246.522 275.257ZM244.655 270.243H248.189C248.153 269.603 247.989 269.106 247.695 268.75C247.411 268.395 247.011 268.217 246.495 268.217C245.971 268.217 245.549 268.39 245.229 268.737C244.917 269.075 244.726 269.577 244.655 270.243ZM254.477 275.257C253.623 275.257 252.939 275.119 252.423 274.843C251.908 274.568 251.526 274.217 251.277 273.79C251.037 273.363 250.903 272.932 250.877 272.497H252.77C252.806 272.737 252.894 272.959 253.037 273.163C253.188 273.368 253.388 273.532 253.637 273.657C253.894 273.772 254.206 273.83 254.57 273.83C255.006 273.83 255.326 273.75 255.53 273.59C255.734 273.43 255.837 273.226 255.837 272.977C255.837 272.746 255.748 272.55 255.57 272.39C255.392 272.23 255.103 272.083 254.703 271.95L253.743 271.63C253.29 271.47 252.872 271.297 252.49 271.11C252.117 270.915 251.814 270.666 251.583 270.363C251.361 270.061 251.25 269.675 251.25 269.203C251.25 268.501 251.512 267.937 252.037 267.51C252.57 267.075 253.317 266.857 254.277 266.857C254.97 266.857 255.539 266.968 255.983 267.19C256.428 267.403 256.761 267.697 256.983 268.07C257.214 268.435 257.348 268.843 257.383 269.297H255.557C255.512 268.968 255.379 268.706 255.157 268.51C254.934 268.315 254.614 268.217 254.197 268.217C253.832 268.217 253.557 268.292 253.37 268.443C253.183 268.586 253.09 268.781 253.09 269.03C253.09 269.279 253.188 269.483 253.383 269.643C253.579 269.803 253.872 269.95 254.263 270.083L255.223 270.403C255.677 270.546 256.09 270.715 256.463 270.91C256.837 271.097 257.134 271.341 257.357 271.643C257.579 271.946 257.69 272.337 257.69 272.817C257.69 273.546 257.414 274.137 256.863 274.59C256.312 275.035 255.517 275.257 254.477 275.257Z" fill="#111827"/>
<rect x="960.582" y="161.53" width="159.404" height="62.9153" fill="#FAFAFA"/>
<path d="M993.478 187.001V176.601H997.105C998.936 176.601 1000.26 177.059 1001.09 177.974C1001.93 178.881 1002.34 180.157 1002.34 181.801C1002.34 183.445 1001.93 184.725 1001.09 185.641C1000.26 186.548 998.936 187.001 997.105 187.001H993.478ZM995.531 185.388H996.971C997.709 185.388 998.318 185.272 998.798 185.041C999.278 184.81 999.634 184.437 999.865 183.921C1000.1 183.397 1000.22 182.69 1000.22 181.801C1000.22 180.912 1000.1 180.205 999.865 179.681C999.634 179.157 999.278 178.783 998.798 178.561C998.318 178.33 997.709 178.214 996.971 178.214H995.531V185.388ZM1007.08 187.201C1005.84 187.201 1004.9 186.823 1004.25 186.068C1003.6 185.303 1003.28 184.277 1003.28 182.988C1003.28 182.125 1003.42 181.383 1003.71 180.761C1004 180.139 1004.43 179.659 1004.99 179.321C1005.56 178.974 1006.25 178.801 1007.07 178.801C1008.23 178.801 1009.12 179.161 1009.73 179.881C1010.36 180.592 1010.67 181.641 1010.67 183.028V183.468H1005.21C1005.26 184.17 1005.44 184.73 1005.76 185.148C1006.08 185.565 1006.52 185.774 1007.09 185.774C1007.53 185.774 1007.88 185.645 1008.15 185.388C1008.41 185.13 1008.6 184.814 1008.69 184.441H1010.57C1010.48 184.939 1010.3 185.397 1010.03 185.814C1009.75 186.232 1009.37 186.57 1008.88 186.828C1008.4 187.077 1007.8 187.201 1007.08 187.201ZM1005.21 182.188H1008.75C1008.71 181.548 1008.55 181.05 1008.25 180.694C1007.97 180.339 1007.57 180.161 1007.05 180.161C1006.53 180.161 1006.11 180.334 1005.79 180.681C1005.48 181.019 1005.28 181.521 1005.21 182.188ZM1013.49 187.001L1011.16 179.081V179.001H1013.16L1014.95 185.374H1015.27L1017.07 179.001H1018.89V179.081L1016.56 187.001H1013.49ZM1023.38 187.201C1022.14 187.201 1021.2 186.823 1020.55 186.068C1019.9 185.303 1019.58 184.277 1019.58 182.988C1019.58 182.125 1019.72 181.383 1020 180.761C1020.3 180.139 1020.72 179.659 1021.28 179.321C1021.85 178.974 1022.55 178.801 1023.36 178.801C1024.53 178.801 1025.42 179.161 1026.03 179.881C1026.65 180.592 1026.96 181.641 1026.96 183.028V183.468H1021.51C1021.55 184.17 1021.74 184.73 1022.06 185.148C1022.38 185.565 1022.82 185.774 1023.39 185.774C1023.83 185.774 1024.18 185.645 1024.44 185.388C1024.71 185.13 1024.89 184.814 1024.99 184.441H1026.87C1026.78 184.939 1026.6 185.397 1026.32 185.814C1026.05 186.232 1025.67 186.57 1025.18 186.828C1024.7 187.077 1024.1 187.201 1023.38 187.201ZM1021.51 182.188H1025.04C1025.01 181.548 1024.84 181.05 1024.55 180.694C1024.27 180.339 1023.87 180.161 1023.35 180.161C1022.83 180.161 1022.4 180.334 1022.08 180.681C1021.77 181.019 1021.58 181.521 1021.51 182.188ZM1029.08 187.001C1028.84 186.725 1028.66 186.41 1028.56 186.054C1028.45 185.699 1028.4 185.219 1028.4 184.614V176.334H1030.38V184.401C1030.38 185.085 1030.46 185.614 1030.61 185.988C1030.76 186.352 1030.96 186.663 1031.2 186.921V187.001H1029.08ZM1035.84 187.201C1034.54 187.201 1033.57 186.823 1032.93 186.068C1032.3 185.303 1031.98 184.281 1031.98 183.001C1031.98 181.721 1032.3 180.703 1032.93 179.948C1033.57 179.183 1034.54 178.801 1035.84 178.801C1037.13 178.801 1038.1 179.183 1038.74 179.948C1039.38 180.703 1039.7 181.721 1039.7 183.001C1039.7 184.281 1039.38 185.303 1038.74 186.068C1038.1 186.823 1037.13 187.201 1035.84 187.201ZM1035.84 185.828C1036.47 185.828 1036.93 185.588 1037.21 185.108C1037.5 184.619 1037.65 183.917 1037.65 183.001C1037.65 182.077 1037.5 181.374 1037.21 180.894C1036.93 180.414 1036.47 180.174 1035.84 180.174C1035.21 180.174 1034.76 180.414 1034.46 180.894C1034.17 181.374 1034.02 182.077 1034.02 183.001C1034.02 183.917 1034.17 184.619 1034.46 185.108C1034.76 185.588 1035.21 185.828 1035.84 185.828ZM1041.22 189.668V179.001H1043.05V180.041H1043.37C1043.53 179.703 1043.8 179.419 1044.15 179.188C1044.52 178.948 1045 178.828 1045.59 178.828C1046.31 178.828 1046.91 179.005 1047.38 179.361C1047.86 179.717 1048.21 180.21 1048.45 180.841C1048.69 181.463 1048.81 182.188 1048.81 183.014C1048.81 183.832 1048.69 184.557 1048.45 185.188C1048.21 185.819 1047.85 186.308 1047.37 186.654C1046.89 187.001 1046.31 187.174 1045.61 187.174C1045.08 187.174 1044.65 187.077 1044.31 186.881C1043.97 186.685 1043.71 186.423 1043.53 186.094H1043.21V189.668H1041.22ZM1045.07 185.734C1045.61 185.734 1046.02 185.503 1046.31 185.041C1046.61 184.579 1046.75 183.899 1046.75 183.001C1046.75 182.103 1046.61 181.423 1046.31 180.961C1046.02 180.499 1045.61 180.268 1045.07 180.268C1044.5 180.268 1044.05 180.517 1043.7 181.014C1043.36 181.503 1043.19 182.165 1043.19 183.001C1043.19 183.828 1043.36 184.49 1043.7 184.988C1044.05 185.485 1044.5 185.734 1045.07 185.734ZM1050.33 187.001V179.001H1052.16V180.201H1052.48C1052.62 179.801 1052.85 179.468 1053.18 179.201C1053.52 178.934 1053.99 178.801 1054.6 178.801C1055.16 178.801 1055.62 178.925 1055.98 179.174C1056.35 179.414 1056.63 179.757 1056.82 180.201H1057.14C1057.29 179.792 1057.54 179.459 1057.89 179.201C1058.24 178.934 1058.7 178.801 1059.29 178.801C1060.16 178.801 1060.8 179.085 1061.22 179.654C1061.64 180.214 1061.85 180.965 1061.85 181.908V187.001H1059.88V182.254C1059.88 181.677 1059.78 181.228 1059.58 180.908C1059.4 180.588 1059.09 180.428 1058.68 180.428C1058.16 180.428 1057.76 180.645 1057.49 181.081C1057.21 181.517 1057.08 182.05 1057.08 182.681V187.001H1055.1V182.254C1055.1 181.677 1055 181.228 1054.81 180.908C1054.62 180.588 1054.32 180.428 1053.9 180.428C1053.4 180.428 1053 180.645 1052.73 181.081C1052.45 181.517 1052.32 182.05 1052.32 182.681V187.001H1050.33ZM1067.06 187.201C1065.83 187.201 1064.89 186.823 1064.24 186.068C1063.59 185.303 1063.26 184.277 1063.26 182.988C1063.26 182.125 1063.41 181.383 1063.69 180.761C1063.98 180.139 1064.41 179.659 1064.97 179.321C1065.54 178.974 1066.23 178.801 1067.05 178.801C1068.22 178.801 1069.1 179.161 1069.72 179.881C1070.34 180.592 1070.65 181.641 1070.65 183.028V183.468H1065.2C1065.24 184.17 1065.42 184.73 1065.74 185.148C1066.06 185.565 1066.51 185.774 1067.08 185.774C1067.51 185.774 1067.86 185.645 1068.13 185.388C1068.4 185.13 1068.58 184.814 1068.68 184.441H1070.56C1070.47 184.939 1070.29 185.397 1070.01 185.814C1069.74 186.232 1069.35 186.57 1068.86 186.828C1068.38 187.077 1067.78 187.201 1067.06 187.201ZM1065.2 182.188H1068.73C1068.7 181.548 1068.53 181.05 1068.24 180.694C1067.95 180.339 1067.55 180.161 1067.04 180.161C1066.51 180.161 1066.09 180.334 1065.77 180.681C1065.46 181.019 1065.27 181.521 1065.2 182.188ZM1072.13 187.001V179.001H1073.95V180.201H1074.27C1074.42 179.792 1074.67 179.459 1075.02 179.201C1075.37 178.934 1075.85 178.801 1076.49 178.801C1077.38 178.801 1078.05 179.085 1078.49 179.654C1078.93 180.214 1079.15 180.965 1079.15 181.908V187.001H1077.17V182.254C1077.17 181.668 1077.06 181.219 1076.85 180.908C1076.64 180.588 1076.31 180.428 1075.85 180.428C1075.29 180.428 1074.87 180.645 1074.57 181.081C1074.26 181.508 1074.11 182.041 1074.11 182.681V187.001H1072.13ZM1082.23 187.001C1082.02 186.761 1081.86 186.472 1081.73 186.134C1081.62 185.797 1081.56 185.29 1081.56 184.614V180.414H1080.47V179.001H1081.59V177.001H1083.52V179.001H1084.84V180.414H1083.53V184.388C1083.53 185.099 1083.61 185.641 1083.77 186.014C1083.93 186.379 1084.13 186.681 1084.35 186.921V187.001H1082.23ZM1009.28 211.201C1007.8 211.201 1006.64 210.725 1005.82 209.774C1004.99 208.823 1004.58 207.499 1004.58 205.801C1004.58 204.112 1004.99 202.792 1005.8 201.841C1006.62 200.881 1007.78 200.401 1009.28 200.401C1010.17 200.401 1010.94 200.57 1011.58 200.908C1012.22 201.237 1012.72 201.699 1013.08 202.294C1013.45 202.89 1013.66 203.579 1013.72 204.361H1011.67C1011.6 203.614 1011.35 203.028 1010.92 202.601C1010.51 202.174 1009.96 201.961 1009.28 201.961C1008.43 201.961 1007.79 202.299 1007.35 202.974C1006.92 203.641 1006.7 204.588 1006.7 205.814C1006.7 207.077 1006.92 208.032 1007.36 208.681C1007.82 209.321 1008.45 209.641 1009.27 209.641C1009.98 209.641 1010.54 209.419 1010.95 208.974C1011.37 208.53 1011.61 207.952 1011.67 207.241H1013.72C1013.66 208.014 1013.45 208.699 1013.08 209.294C1012.72 209.89 1012.22 210.357 1011.58 210.694C1010.95 211.032 1010.18 211.201 1009.28 211.201ZM1018.45 211.201C1017.16 211.201 1016.19 210.823 1015.55 210.068C1014.92 209.303 1014.6 208.281 1014.6 207.001C1014.6 205.721 1014.92 204.703 1015.55 203.948C1016.19 203.183 1017.16 202.801 1018.45 202.801C1019.75 202.801 1020.72 203.183 1021.36 203.948C1022 204.703 1022.32 205.721 1022.32 207.001C1022.32 208.281 1022 209.303 1021.36 210.068C1020.72 210.823 1019.75 211.201 1018.45 211.201ZM1018.45 209.828C1019.08 209.828 1019.54 209.588 1019.83 209.108C1020.12 208.619 1020.27 207.917 1020.27 207.001C1020.27 206.077 1020.12 205.374 1019.83 204.894C1019.54 204.414 1019.08 204.174 1018.45 204.174C1017.83 204.174 1017.37 204.414 1017.08 204.894C1016.79 205.374 1016.64 206.077 1016.64 207.001C1016.64 207.917 1016.79 208.619 1017.08 209.108C1017.37 209.588 1017.83 209.828 1018.45 209.828ZM1023.84 211.001V203.001H1025.66V204.201H1025.98C1026.13 203.792 1026.38 203.459 1026.73 203.201C1027.08 202.934 1027.57 202.801 1028.2 202.801C1029.09 202.801 1029.76 203.085 1030.2 203.654C1030.64 204.214 1030.86 204.965 1030.86 205.908V211.001H1028.88V206.254C1028.88 205.668 1028.77 205.219 1028.56 204.908C1028.35 204.588 1028.02 204.428 1027.56 204.428C1027.01 204.428 1026.58 204.645 1026.28 205.081C1025.97 205.508 1025.82 206.041 1025.82 206.681V211.001H1023.84ZM1033.94 211.001C1033.73 210.761 1033.57 210.472 1033.45 210.134C1033.33 209.797 1033.27 209.29 1033.27 208.614V204.414H1032.18V203.001H1033.3V201.001H1035.23V203.001H1036.55V204.414H1035.25V208.388C1035.25 209.099 1035.33 209.641 1035.49 210.014C1035.65 210.379 1035.84 210.681 1036.06 210.921V211.001H1033.94ZM1040.68 211.174C1039.95 211.174 1039.35 210.997 1038.87 210.641C1038.39 210.277 1038.03 209.783 1037.79 209.161C1037.56 208.53 1037.44 207.805 1037.44 206.988C1037.44 206.152 1037.56 205.423 1037.8 204.801C1038.04 204.179 1038.4 203.694 1038.88 203.348C1039.36 203.001 1039.96 202.828 1040.68 202.828C1041.25 202.828 1041.71 202.943 1042.07 203.174C1042.43 203.397 1042.71 203.685 1042.88 204.041H1043.2V203.001H1045.03V211.001H1043.2V209.961H1042.88C1042.71 210.29 1042.44 210.574 1042.08 210.814C1041.73 211.054 1041.26 211.174 1040.68 211.174ZM1041.18 209.734C1041.75 209.734 1042.2 209.485 1042.54 208.988C1042.88 208.49 1043.06 207.828 1043.06 207.001C1043.06 206.165 1042.88 205.503 1042.54 205.014C1042.2 204.517 1041.75 204.268 1041.18 204.268C1040.64 204.268 1040.23 204.499 1039.92 204.961C1039.63 205.423 1039.48 206.103 1039.48 207.001C1039.48 207.899 1039.63 208.579 1039.92 209.041C1040.23 209.503 1040.64 209.734 1041.18 209.734ZM1047.09 211.001V203.001H1049.07V211.001H1047.09ZM1048.07 202.028C1047.72 202.028 1047.45 201.934 1047.26 201.748C1047.07 201.552 1046.98 201.303 1046.98 201.001C1046.98 200.69 1047.07 200.441 1047.26 200.254C1047.45 200.068 1047.72 199.974 1048.07 199.974C1048.43 199.974 1048.7 200.068 1048.89 200.254C1049.07 200.441 1049.17 200.69 1049.17 201.001C1049.17 201.303 1049.07 201.552 1048.89 201.748C1048.7 201.934 1048.43 202.028 1048.07 202.028ZM1051.13 211.001V203.001H1052.96V204.201H1053.28C1053.43 203.792 1053.68 203.459 1054.03 203.201C1054.37 202.934 1054.86 202.801 1055.49 202.801C1056.39 202.801 1057.06 203.085 1057.49 203.654C1057.94 204.214 1058.16 204.965 1058.16 205.908V211.001H1056.17V206.254C1056.17 205.668 1056.07 205.219 1055.85 204.908C1055.65 204.588 1055.32 204.428 1054.85 204.428C1054.3 204.428 1053.88 204.645 1053.57 205.081C1053.27 205.508 1053.12 206.041 1053.12 206.681V211.001H1051.13ZM1063.37 211.201C1062.13 211.201 1061.19 210.823 1060.54 210.068C1059.89 209.303 1059.57 208.277 1059.57 206.988C1059.57 206.125 1059.71 205.383 1060 204.761C1060.29 204.139 1060.72 203.659 1061.28 203.321C1061.84 202.974 1062.54 202.801 1063.36 202.801C1064.52 202.801 1065.41 203.161 1066.02 203.881C1066.64 204.592 1066.96 205.641 1066.96 207.028V207.468H1061.5C1061.55 208.17 1061.73 208.73 1062.05 209.148C1062.37 209.565 1062.81 209.774 1063.38 209.774C1063.82 209.774 1064.17 209.645 1064.44 209.388C1064.7 209.13 1064.88 208.814 1064.98 208.441H1066.86C1066.77 208.939 1066.59 209.397 1066.32 209.814C1066.04 210.232 1065.66 210.57 1065.17 210.828C1064.69 211.077 1064.09 211.201 1063.37 211.201ZM1061.5 206.188H1065.04C1065 205.548 1064.84 205.05 1064.54 204.694C1064.26 204.339 1063.86 204.161 1063.34 204.161C1062.82 204.161 1062.4 204.334 1062.08 204.681C1061.76 205.019 1061.57 205.521 1061.5 206.188ZM1068.42 211.001V203.001H1070.22V204.441H1070.54C1070.59 204.183 1070.69 203.939 1070.83 203.708C1070.97 203.477 1071.19 203.29 1071.5 203.148C1071.8 202.997 1072.21 202.921 1072.72 202.921H1073.11V204.721H1072.56C1071.8 204.721 1071.25 204.917 1070.91 205.308C1070.57 205.699 1070.4 206.29 1070.4 207.081V211.001H1068.42Z" fill="#111827"/>
<rect x="0.388611" y="33.4623" width="127.082" height="62.9707" fill="#FAFAFA"/>
<path d="M35.6992 59.0283V48.6283H42.6859V50.255H37.7259V52.7217H41.5659V54.2417H37.7259V57.3883H42.7659V59.0283H35.6992ZM43.5715 59.0283V58.9483L46.0382 54.8417L43.8382 51.1083V51.0283H45.9848L47.3582 53.5083H47.6515L48.9848 51.0283H50.9582V51.1083L48.8648 54.8017L51.2915 58.9483V59.0283H49.1048L47.4915 56.1083H47.1982L45.6115 59.0283H43.5715ZM53.6207 59.0283C53.4162 58.7883 53.2518 58.4994 53.1273 58.1617C53.0118 57.8239 52.954 57.3172 52.954 56.6417V52.4417H51.8607V51.0283H52.9807V49.0283H54.914V51.0283H56.234V52.4417H54.9273V56.415C54.9273 57.1261 55.0073 57.6683 55.1673 58.0417C55.3273 58.4061 55.5184 58.7083 55.7407 58.9483V59.0283H53.6207ZM60.9259 59.2283C59.6903 59.2283 58.7481 58.8505 58.0992 58.095C57.4503 57.3305 57.1259 56.3039 57.1259 55.015C57.1259 54.1528 57.2681 53.4105 57.5525 52.7883C57.8459 52.1661 58.2725 51.6861 58.8325 51.3483C59.4014 51.0017 60.0948 50.8283 60.9125 50.8283C62.077 50.8283 62.9659 51.1883 63.5792 51.9083C64.2014 52.6194 64.5125 53.6683 64.5125 55.055V55.495H59.0592C59.1036 56.1972 59.2859 56.7572 59.6059 57.175C59.9259 57.5928 60.3703 57.8017 60.9392 57.8017C61.3748 57.8017 61.7259 57.6728 61.9925 57.415C62.2592 57.1572 62.4414 56.8417 62.5392 56.4683H64.4192C64.3303 56.9661 64.1481 57.4239 63.8725 57.8417C63.597 58.2594 63.2148 58.5972 62.7259 58.855C62.2459 59.1039 61.6459 59.2283 60.9259 59.2283ZM59.0592 54.215H62.5925C62.557 53.575 62.3925 53.0772 62.0992 52.7217C61.8148 52.3661 61.4148 52.1883 60.8992 52.1883C60.3748 52.1883 59.9525 52.3617 59.6325 52.7083C59.3214 53.0461 59.1303 53.5483 59.0592 54.215ZM65.974 59.0283V51.0283H67.774V52.4683H68.094C68.1473 52.2105 68.2451 51.9661 68.3873 51.735C68.5296 51.5039 68.7518 51.3172 69.054 51.175C69.3562 51.0239 69.7651 50.9483 70.2807 50.9483H70.6673V52.7483H70.1207C69.3562 52.7483 68.8051 52.9439 68.4673 53.335C68.1296 53.7261 67.9607 54.3172 67.9607 55.1083V59.0283H65.974ZM72.0967 59.0283V51.0283H73.9234V52.2283H74.2434C74.3945 51.8194 74.6434 51.4861 74.99 51.2283C75.3367 50.9617 75.8256 50.8283 76.4567 50.8283C77.3545 50.8283 78.0211 51.1128 78.4567 51.6817C78.9011 52.2417 79.1234 52.9928 79.1234 53.935V59.0283H77.1367V54.2817C77.1367 53.695 77.03 53.2461 76.8167 52.935C76.6123 52.615 76.2789 52.455 75.8167 52.455C75.2656 52.455 74.8389 52.6728 74.5367 53.1083C74.2345 53.535 74.0834 54.0683 74.0834 54.7083V59.0283H72.0967ZM83.7721 59.2017C83.0432 59.2017 82.4388 59.0239 81.9588 58.6683C81.4788 58.3039 81.1188 57.8105 80.8788 57.1883C80.6477 56.5572 80.5321 55.8328 80.5321 55.015C80.5321 54.1794 80.6521 53.4505 80.8921 52.8283C81.1321 52.2061 81.4921 51.7217 81.9721 51.375C82.4521 51.0283 83.0521 50.855 83.7721 50.855C84.341 50.855 84.8032 50.9705 85.1588 51.2017C85.5232 51.4239 85.7943 51.7128 85.9721 52.0683H86.2921V51.0283H88.1188V59.0283H86.2921V57.9883H85.9721C85.7943 58.3172 85.5277 58.6017 85.1721 58.8417C84.8166 59.0817 84.3499 59.2017 83.7721 59.2017ZM84.2655 57.7617C84.8343 57.7617 85.2877 57.5128 85.6255 57.015C85.9721 56.5172 86.1455 55.855 86.1455 55.0283C86.1455 54.1928 85.9721 53.5305 85.6255 53.0417C85.2877 52.5439 84.8343 52.295 84.2655 52.295C83.7321 52.295 83.3143 52.5261 83.0121 52.9883C82.7188 53.4505 82.5721 54.1305 82.5721 55.0283C82.5721 55.9261 82.7188 56.6061 83.0121 57.0683C83.3143 57.5305 83.7321 57.7617 84.2655 57.7617ZM90.8148 59.0283C90.5748 58.7528 90.4015 58.4372 90.2948 58.0817C90.1882 57.7261 90.1348 57.2461 90.1348 56.6417V48.3617H92.1215V56.4283C92.1215 57.1128 92.1971 57.6417 92.3482 58.015C92.4993 58.3794 92.6948 58.6905 92.9348 58.9483V59.0283H90.8148ZM24.9023 83.0283V72.6283H26.9023V76.7217H27.7023L30.8223 72.6283H33.089V72.7083L29.3957 77.455L33.6223 82.9483V83.0283H31.169L27.7023 78.375H26.9023V83.0283H24.9023ZM36.824 83.2283C35.9173 83.2283 35.2418 82.9483 34.7973 82.3883C34.3529 81.8194 34.1307 81.0639 34.1307 80.1217V75.0283H36.1173V79.775C36.1173 80.3528 36.2196 80.8017 36.424 81.1217C36.6373 81.4417 36.9707 81.6017 37.424 81.6017C37.984 81.6017 38.4151 81.3839 38.7173 80.9483C39.0196 80.5128 39.1707 79.9794 39.1707 79.3483V75.0283H41.1573V83.0283H39.3707V81.8283H39.0507C38.9173 82.2372 38.6684 82.575 38.304 82.8417C37.9484 83.0994 37.4551 83.2283 36.824 83.2283ZM47.5794 83.2017C46.9839 83.2017 46.5039 83.0817 46.1394 82.8417C45.7839 82.6017 45.5216 82.3172 45.3527 81.9883H45.0327V83.0283H43.2061V72.3617H45.1927V75.9217H45.5127C45.6994 75.6017 45.9616 75.3439 46.2994 75.1483C46.6372 74.9528 47.0683 74.855 47.5927 74.855C48.295 74.855 48.8816 75.0283 49.3527 75.375C49.8327 75.7217 50.1927 76.2061 50.4327 76.8283C50.6727 77.4505 50.7927 78.1794 50.7927 79.015C50.7927 79.8328 50.6727 80.5572 50.4327 81.1883C50.2016 81.8105 49.8461 82.3039 49.3661 82.6683C48.895 83.0239 48.2994 83.2017 47.5794 83.2017ZM47.0594 81.7617C47.5927 81.7617 48.0061 81.5305 48.2994 81.0683C48.5927 80.6061 48.7394 79.9261 48.7394 79.0283C48.7394 78.1305 48.5927 77.4505 48.2994 76.9883C48.0061 76.5261 47.5927 76.295 47.0594 76.295C46.4905 76.295 46.0327 76.5439 45.6861 77.0417C45.3483 77.5305 45.1794 78.1928 45.1794 79.0283C45.1794 79.855 45.3483 80.5172 45.6861 81.015C46.0327 81.5128 46.4905 81.7617 47.0594 81.7617ZM55.5821 83.2283C54.3466 83.2283 53.4043 82.8505 52.7555 82.095C52.1066 81.3305 51.7821 80.3039 51.7821 79.015C51.7821 78.1528 51.9243 77.4105 52.2088 76.7883C52.5021 76.1661 52.9288 75.6861 53.4888 75.3483C54.0577 75.0017 54.751 74.8283 55.5688 74.8283C56.7332 74.8283 57.6221 75.1883 58.2355 75.9083C58.8577 76.6194 59.1688 77.6683 59.1688 79.055V79.495H53.7155C53.7599 80.1972 53.9421 80.7572 54.2621 81.175C54.5821 81.5928 55.0266 81.8017 55.5955 81.8017C56.031 81.8017 56.3821 81.6728 56.6488 81.415C56.9155 81.1572 57.0977 80.8417 57.1955 80.4683H59.0755C58.9866 80.9661 58.8043 81.4239 58.5288 81.8417C58.2532 82.2594 57.871 82.5972 57.3821 82.855C56.9021 83.1039 56.3021 83.2283 55.5821 83.2283ZM53.7155 78.215H57.2488C57.2132 77.575 57.0488 77.0772 56.7555 76.7217C56.471 76.3661 56.071 76.1883 55.5555 76.1883C55.031 76.1883 54.6088 76.3617 54.2888 76.7083C53.9777 77.0461 53.7866 77.5483 53.7155 78.215ZM60.6302 83.0283V75.0283H62.4302V76.4683H62.7502C62.8036 76.2105 62.9014 75.9661 63.0436 75.735C63.1858 75.5039 63.408 75.3172 63.7102 75.175C64.0125 75.0239 64.4214 74.9483 64.9369 74.9483H65.3236V76.7483H64.7769C64.0125 76.7483 63.4614 76.9439 63.1236 77.335C62.7858 77.7261 62.6169 78.3172 62.6169 79.1083V83.0283H60.6302ZM66.753 83.0283V75.0283H68.5796V76.2283H68.8996C69.0507 75.8194 69.2996 75.4861 69.6463 75.2283C69.993 74.9617 70.4818 74.8283 71.113 74.8283C72.0107 74.8283 72.6774 75.1128 73.113 75.6817C73.5574 76.2417 73.7796 76.9928 73.7796 77.935V83.0283H71.793V78.2817C71.793 77.695 71.6863 77.2461 71.473 76.935C71.2685 76.615 70.9352 76.455 70.473 76.455C69.9218 76.455 69.4952 76.6728 69.193 77.1083C68.8907 77.535 68.7396 78.0683 68.7396 78.7083V83.0283H66.753ZM78.9884 83.2283C77.7528 83.2283 76.8106 82.8505 76.1617 82.095C75.5128 81.3305 75.1884 80.3039 75.1884 79.015C75.1884 78.1528 75.3306 77.4105 75.615 76.7883C75.9084 76.1661 76.335 75.6861 76.895 75.3483C77.4639 75.0017 78.1573 74.8283 78.975 74.8283C80.1395 74.8283 81.0284 75.1883 81.6417 75.9083C82.2639 76.6194 82.575 77.6683 82.575 79.055V79.495H77.1217C77.1661 80.1972 77.3484 80.7572 77.6684 81.175C77.9884 81.5928 78.4328 81.8017 79.0017 81.8017C79.4373 81.8017 79.7884 81.6728 80.055 81.415C80.3217 81.1572 80.5039 80.8417 80.6017 80.4683H82.4817C82.3928 80.9661 82.2106 81.4239 81.935 81.8417C81.6595 82.2594 81.2773 82.5972 80.7884 82.855C80.3084 83.1039 79.7084 83.2283 78.9884 83.2283ZM77.1217 78.215H80.655C80.6195 77.575 80.455 77.0772 80.1617 76.7217C79.8773 76.3661 79.4773 76.1883 78.9617 76.1883C78.4373 76.1883 78.015 76.3617 77.695 76.7083C77.3839 77.0461 77.1928 77.5483 77.1217 78.215ZM85.1832 83.0283C84.9787 82.7883 84.8143 82.4994 84.6898 82.1617C84.5743 81.8239 84.5165 81.3172 84.5165 80.6417V76.4417H83.4232V75.0283H84.5432V73.0283H86.4765V75.0283H87.7965V76.4417H86.4898V80.415C86.4898 81.1261 86.5698 81.6683 86.7298 82.0417C86.8898 82.4061 87.0809 82.7083 87.3032 82.9483V83.0283H85.1832ZM92.4884 83.2283C91.2528 83.2283 90.3106 82.8505 89.6617 82.095C89.0128 81.3305 88.6884 80.3039 88.6884 79.015C88.6884 78.1528 88.8306 77.4105 89.115 76.7883C89.4084 76.1661 89.835 75.6861 90.395 75.3483C90.9639 75.0017 91.6573 74.8283 92.475 74.8283C93.6395 74.8283 94.5284 75.1883 95.1417 75.9083C95.7639 76.6194 96.075 77.6683 96.075 79.055V79.495H90.6217C90.6661 80.1972 90.8484 80.7572 91.1684 81.175C91.4884 81.5928 91.9328 81.8017 92.5017 81.8017C92.9373 81.8017 93.2884 81.6728 93.555 81.415C93.8217 81.1572 94.0039 80.8417 94.1017 80.4683H95.9817C95.8928 80.9661 95.7106 81.4239 95.435 81.8417C95.1595 82.2594 94.7773 82.5972 94.2884 82.855C93.8084 83.1039 93.2084 83.2283 92.4884 83.2283ZM90.6217 78.215H94.155C94.1195 77.575 93.955 77.0772 93.6617 76.7217C93.3773 76.3661 92.9773 76.1883 92.4617 76.1883C91.9373 76.1883 91.515 76.3617 91.195 76.7083C90.8839 77.0461 90.6928 77.5483 90.6217 78.215ZM100.443 83.2283C99.5898 83.2283 98.9054 83.0905 98.3898 82.815C97.8743 82.5394 97.4921 82.1883 97.2432 81.7617C97.0032 81.335 96.8698 80.9039 96.8432 80.4683H98.7365C98.7721 80.7083 98.8609 80.9305 99.0032 81.135C99.1543 81.3394 99.3543 81.5039 99.6032 81.6283C99.8609 81.7439 100.172 81.8017 100.536 81.8017C100.972 81.8017 101.292 81.7217 101.496 81.5617C101.701 81.4017 101.803 81.1972 101.803 80.9483C101.803 80.7172 101.714 80.5217 101.536 80.3617C101.359 80.2017 101.07 80.055 100.67 79.9217L99.7098 79.6017C99.2565 79.4417 98.8387 79.2683 98.4565 79.0817C98.0832 78.8861 97.7809 78.6372 97.5498 78.335C97.3276 78.0328 97.2165 77.6461 97.2165 77.175C97.2165 76.4728 97.4787 75.9083 98.0032 75.4817C98.5365 75.0461 99.2832 74.8283 100.243 74.8283C100.936 74.8283 101.505 74.9394 101.95 75.1617C102.394 75.375 102.728 75.6683 102.95 76.0417C103.181 76.4061 103.314 76.815 103.35 77.2683H101.523C101.479 76.9394 101.345 76.6772 101.123 76.4817C100.901 76.2861 100.581 76.1883 100.163 76.1883C99.7987 76.1883 99.5232 76.2639 99.3365 76.415C99.1498 76.5572 99.0565 76.7528 99.0565 77.0017C99.0565 77.2505 99.1543 77.455 99.3498 77.615C99.5454 77.775 99.8387 77.9217 100.23 78.055L101.19 78.375C101.643 78.5172 102.056 78.6861 102.43 78.8817C102.803 79.0683 103.101 79.3128 103.323 79.615C103.545 79.9172 103.656 80.3083 103.656 80.7883C103.656 81.5172 103.381 82.1083 102.83 82.5617C102.279 83.0061 101.483 83.2283 100.443 83.2283Z" fill="#111827"/>
<rect x="0.0139771" y="161.53" width="127.456" height="62.9153" fill="#FAFAFA"/>
<path d="M35.5119 186.751V176.351H42.4986V177.978H37.5386V180.444H41.3786V181.964H37.5386V185.111H42.5786V186.751H35.5119ZM43.3842 186.751V186.671L45.8508 182.564L43.6508 178.831V178.751H45.7975L47.1708 181.231H47.4642L48.7975 178.751H50.7708V178.831L48.6775 182.524L51.1042 186.671V186.751H48.9175L47.3042 183.831H47.0108L45.4242 186.751H43.3842ZM53.4333 186.751C53.2289 186.511 53.0645 186.222 52.94 185.884C52.8245 185.547 52.7667 185.04 52.7667 184.364V180.164H51.6733V178.751H52.7933V176.751H54.7267V178.751H56.0467V180.164H54.74V184.138C54.74 184.849 54.82 185.391 54.98 185.764C55.14 186.129 55.3311 186.431 55.5533 186.671V186.751H53.4333ZM60.7386 186.951C59.503 186.951 58.5608 186.573 57.9119 185.818C57.263 185.053 56.9386 184.027 56.9386 182.738C56.9386 181.875 57.0808 181.133 57.3652 180.511C57.6586 179.889 58.0852 179.409 58.6452 179.071C59.2141 178.724 59.9074 178.551 60.7252 178.551C61.8897 178.551 62.7786 178.911 63.3919 179.631C64.0141 180.342 64.3252 181.391 64.3252 182.778V183.218H58.8719C58.9163 183.92 59.0986 184.48 59.4186 184.898C59.7386 185.315 60.183 185.524 60.7519 185.524C61.1874 185.524 61.5386 185.395 61.8052 185.138C62.0719 184.88 62.2541 184.564 62.3519 184.191H64.2319C64.143 184.689 63.9608 185.147 63.6852 185.564C63.4097 185.982 63.0274 186.32 62.5386 186.578C62.0586 186.827 61.4586 186.951 60.7386 186.951ZM58.8719 181.938H62.4052C62.3697 181.298 62.2052 180.8 61.9119 180.444C61.6274 180.089 61.2274 179.911 60.7119 179.911C60.1874 179.911 59.7652 180.084 59.4452 180.431C59.1341 180.769 58.943 181.271 58.8719 181.938ZM65.7867 186.751V178.751H67.5867V180.191H67.9067C67.96 179.933 68.0578 179.689 68.2 179.458C68.3422 179.227 68.5645 179.04 68.8667 178.898C69.1689 178.747 69.5778 178.671 70.0933 178.671H70.48V180.471H69.9333C69.1689 180.471 68.6178 180.667 68.28 181.058C67.9422 181.449 67.7733 182.04 67.7733 182.831V186.751H65.7867ZM71.9094 186.751V178.751H73.7361V179.951H74.0561C74.2072 179.542 74.4561 179.209 74.8027 178.951C75.1494 178.684 75.6383 178.551 76.2694 178.551C77.1672 178.551 77.8338 178.835 78.2694 179.404C78.7138 179.964 78.9361 180.715 78.9361 181.658V186.751H76.9494V182.004C76.9494 181.418 76.8427 180.969 76.6294 180.658C76.4249 180.338 76.0916 180.178 75.6294 180.178C75.0783 180.178 74.6516 180.395 74.3494 180.831C74.0472 181.258 73.8961 181.791 73.8961 182.431V186.751H71.9094ZM83.5848 186.924C82.8559 186.924 82.2515 186.747 81.7715 186.391C81.2915 186.027 80.9315 185.533 80.6915 184.911C80.4604 184.28 80.3448 183.555 80.3448 182.738C80.3448 181.902 80.4648 181.173 80.7048 180.551C80.9448 179.929 81.3048 179.444 81.7848 179.098C82.2648 178.751 82.8648 178.578 83.5848 178.578C84.1537 178.578 84.6159 178.693 84.9715 178.924C85.3359 179.147 85.607 179.435 85.7848 179.791H86.1048V178.751H87.9315V186.751H86.1048V185.711H85.7848C85.607 186.04 85.3404 186.324 84.9848 186.564C84.6292 186.804 84.1626 186.924 83.5848 186.924ZM84.0781 185.484C84.647 185.484 85.1004 185.235 85.4381 184.738C85.7848 184.24 85.9581 183.578 85.9581 182.751C85.9581 181.915 85.7848 181.253 85.4381 180.764C85.1004 180.267 84.647 180.018 84.0781 180.018C83.5448 180.018 83.127 180.249 82.8248 180.711C82.5315 181.173 82.3848 181.853 82.3848 182.751C82.3848 183.649 82.5315 184.329 82.8248 184.791C83.127 185.253 83.5448 185.484 84.0781 185.484ZM90.6275 186.751C90.3875 186.475 90.2142 186.16 90.1075 185.804C90.0008 185.449 89.9475 184.969 89.9475 184.364V176.084H91.9342V184.151C91.9342 184.835 92.0097 185.364 92.1608 185.738C92.312 186.102 92.5075 186.413 92.7475 186.671V186.751H90.6275ZM30.8612 210.751V200.351H32.9145V210.751H30.8612ZM35.011 210.751V202.751H36.8376V203.951H37.1576C37.3087 203.542 37.5576 203.209 37.9043 202.951C38.251 202.684 38.7398 202.551 39.371 202.551C40.2687 202.551 40.9354 202.835 41.371 203.404C41.8154 203.964 42.0376 204.715 42.0376 205.658V210.751H40.051V206.004C40.051 205.418 39.9443 204.969 39.731 204.658C39.5265 204.338 39.1932 204.178 38.731 204.178C38.1798 204.178 37.7532 204.395 37.451 204.831C37.1487 205.258 36.9976 205.791 36.9976 206.431V210.751H35.011ZM46.873 210.951C46.0197 210.951 45.3353 210.813 44.8197 210.538C44.3041 210.262 43.9219 209.911 43.673 209.484C43.433 209.058 43.2997 208.627 43.273 208.191H45.1664C45.2019 208.431 45.2908 208.653 45.433 208.858C45.5841 209.062 45.7841 209.227 46.033 209.351C46.2908 209.467 46.6019 209.524 46.9664 209.524C47.4019 209.524 47.7219 209.444 47.9264 209.284C48.1308 209.124 48.233 208.92 48.233 208.671C48.233 208.44 48.1441 208.244 47.9664 208.084C47.7886 207.924 47.4997 207.778 47.0997 207.644L46.1397 207.324C45.6864 207.164 45.2686 206.991 44.8864 206.804C44.513 206.609 44.2108 206.36 43.9797 206.058C43.7575 205.755 43.6464 205.369 43.6464 204.898C43.6464 204.195 43.9086 203.631 44.433 203.204C44.9664 202.769 45.713 202.551 46.673 202.551C47.3664 202.551 47.9353 202.662 48.3797 202.884C48.8241 203.098 49.1575 203.391 49.3797 203.764C49.6108 204.129 49.7441 204.538 49.7797 204.991H47.953C47.9086 204.662 47.7753 204.4 47.553 204.204C47.3308 204.009 47.0108 203.911 46.593 203.911C46.2286 203.911 45.953 203.987 45.7664 204.138C45.5797 204.28 45.4864 204.475 45.4864 204.724C45.4864 204.973 45.5841 205.178 45.7797 205.338C45.9753 205.498 46.2686 205.644 46.6597 205.778L47.6197 206.098C48.073 206.24 48.4864 206.409 48.8597 206.604C49.233 206.791 49.5308 207.035 49.753 207.338C49.9753 207.64 50.0864 208.031 50.0864 208.511C50.0864 209.24 49.8108 209.831 49.2597 210.284C48.7086 210.729 47.913 210.951 46.873 210.951ZM52.613 210.751C52.4086 210.511 52.2441 210.222 52.1197 209.884C52.0041 209.547 51.9464 209.04 51.9464 208.364V204.164H50.853V202.751H51.973V200.751H53.9064V202.751H55.2264V204.164H53.9197V208.138C53.9197 208.849 53.9997 209.391 54.1597 209.764C54.3197 210.129 54.5108 210.431 54.733 210.671V210.751H52.613ZM59.3582 210.924C58.6294 210.924 58.0249 210.747 57.5449 210.391C57.0649 210.027 56.7049 209.533 56.4649 208.911C56.2338 208.28 56.1182 207.555 56.1182 206.738C56.1182 205.902 56.2382 205.173 56.4782 204.551C56.7182 203.929 57.0782 203.444 57.5582 203.098C58.0382 202.751 58.6382 202.578 59.3582 202.578C59.9271 202.578 60.3894 202.693 60.7449 202.924C61.1094 203.147 61.3805 203.435 61.5582 203.791H61.8782V202.751H63.7049V210.751H61.8782V209.711H61.5582C61.3805 210.04 61.1138 210.324 60.7582 210.564C60.4027 210.804 59.936 210.924 59.3582 210.924ZM59.8516 209.484C60.4205 209.484 60.8738 209.235 61.2116 208.738C61.5582 208.24 61.7316 207.578 61.7316 206.751C61.7316 205.915 61.5582 205.253 61.2116 204.764C60.8738 204.267 60.4205 204.018 59.8516 204.018C59.3182 204.018 58.9005 204.249 58.5982 204.711C58.3049 205.173 58.1582 205.853 58.1582 206.751C58.1582 207.649 58.3049 208.329 58.5982 208.791C58.9005 209.253 59.3182 209.484 59.8516 209.484ZM65.761 210.751V202.751H67.5876V203.951H67.9076C68.0587 203.542 68.3076 203.209 68.6543 202.951C69.001 202.684 69.4898 202.551 70.121 202.551C71.0187 202.551 71.6854 202.835 72.121 203.404C72.5654 203.964 72.7876 204.715 72.7876 205.658V210.751H70.801V206.004C70.801 205.418 70.6943 204.969 70.481 204.658C70.2765 204.338 69.9432 204.178 69.481 204.178C68.9298 204.178 68.5032 204.395 68.201 204.831C67.8987 205.258 67.7476 205.791 67.7476 206.431V210.751H65.761ZM77.9164 210.951C76.6986 210.951 75.7741 210.573 75.143 209.818C74.5119 209.053 74.1964 208.031 74.1964 206.751C74.1964 205.409 74.5253 204.373 75.183 203.644C75.8497 202.915 76.7653 202.551 77.9297 202.551C78.9608 202.551 79.7741 202.827 80.3697 203.378C80.9653 203.929 81.3208 204.684 81.4364 205.644H79.4897C79.4275 205.111 79.263 204.702 78.9964 204.418C78.7297 204.124 78.383 203.978 77.9564 203.978C77.3964 203.978 76.9697 204.222 76.6764 204.711C76.383 205.191 76.2364 205.871 76.2364 206.751C76.2364 207.631 76.3786 208.311 76.663 208.791C76.9564 209.271 77.383 209.511 77.943 209.511C78.3786 209.511 78.7297 209.369 78.9964 209.084C79.263 208.791 79.4275 208.378 79.4897 207.844H81.4364C81.3119 208.804 80.9475 209.564 80.343 210.124C79.7475 210.675 78.9386 210.951 77.9164 210.951ZM86.1682 210.951C84.9327 210.951 83.9905 210.573 83.3416 209.818C82.6927 209.053 82.3682 208.027 82.3682 206.738C82.3682 205.875 82.5105 205.133 82.7949 204.511C83.0882 203.889 83.5149 203.409 84.0749 203.071C84.6438 202.724 85.3371 202.551 86.1549 202.551C87.3194 202.551 88.2082 202.911 88.8216 203.631C89.4438 204.342 89.7549 205.391 89.7549 206.778V207.218H84.3016C84.346 207.92 84.5282 208.48 84.8482 208.898C85.1682 209.315 85.6127 209.524 86.1816 209.524C86.6171 209.524 86.9682 209.395 87.2349 209.138C87.5016 208.88 87.6838 208.564 87.7816 208.191H89.6616C89.5727 208.689 89.3905 209.147 89.1149 209.564C88.8394 209.982 88.4571 210.32 87.9682 210.578C87.4882 210.827 86.8882 210.951 86.1682 210.951ZM84.3016 205.938H87.8349C87.7994 205.298 87.6349 204.8 87.3416 204.444C87.0571 204.089 86.6571 203.911 86.1416 203.911C85.6171 203.911 85.1949 204.084 84.8749 204.431C84.5638 204.769 84.3727 205.271 84.3016 205.938ZM94.123 210.951C93.2697 210.951 92.5853 210.813 92.0697 210.538C91.5541 210.262 91.1719 209.911 90.923 209.484C90.683 209.058 90.5497 208.627 90.523 208.191H92.4164C92.4519 208.431 92.5408 208.653 92.683 208.858C92.8341 209.062 93.0341 209.227 93.283 209.351C93.5408 209.467 93.8519 209.524 94.2164 209.524C94.6519 209.524 94.9719 209.444 95.1764 209.284C95.3808 209.124 95.483 208.92 95.483 208.671C95.483 208.44 95.3941 208.244 95.2164 208.084C95.0386 207.924 94.7497 207.778 94.3497 207.644L93.3897 207.324C92.9364 207.164 92.5186 206.991 92.1364 206.804C91.763 206.609 91.4608 206.36 91.2297 206.058C91.0075 205.755 90.8964 205.369 90.8964 204.898C90.8964 204.195 91.1586 203.631 91.683 203.204C92.2164 202.769 92.963 202.551 93.923 202.551C94.6164 202.551 95.1853 202.662 95.6297 202.884C96.0741 203.098 96.4075 203.391 96.6297 203.764C96.8608 204.129 96.9941 204.538 97.0297 204.991H95.203C95.1586 204.662 95.0253 204.4 94.803 204.204C94.5808 204.009 94.2608 203.911 93.843 203.911C93.4786 203.911 93.203 203.987 93.0164 204.138C92.8297 204.28 92.7364 204.475 92.7364 204.724C92.7364 204.973 92.8341 205.178 93.0297 205.338C93.2253 205.498 93.5186 205.644 93.9097 205.778L94.8697 206.098C95.323 206.24 95.7364 206.409 96.1097 206.604C96.483 206.791 96.7808 207.035 97.003 207.338C97.2253 207.64 97.3364 208.031 97.3364 208.511C97.3364 209.24 97.0608 209.831 96.5097 210.284C95.9586 210.729 95.163 210.951 94.123 210.951Z" fill="#111827"/>
<defs>
<linearGradient id="paint0_linear_1275_38178" x1="543.114" y1="81.3091" x2="935.58" y2="81.3091" gradientUnits="userSpaceOnUse">
<stop offset="0.7" stop-color="#3B82F6"/>
<stop offset="1" stop-color="#3B82F6" stop-opacity="0"/>
</linearGradient>
<linearGradient id="paint1_linear_1275_38178" x1="543.419" y1="81.3091" x2="127.943" y2="81.3091" gradientUnits="userSpaceOnUse">
<stop offset="0.7" stop-color="#3B82F6"/>
<stop offset="1" stop-color="#3B82F6" stop-opacity="0"/>
</linearGradient>
<linearGradient id="paint2_linear_1275_38178" x1="543.419" y1="257.057" x2="795.559" y2="257.057" gradientUnits="userSpaceOnUse">
<stop offset="0.830838" stop-color="#3B82F6"/>
<stop offset="1" stop-color="#3B82F6" stop-opacity="0"/>
</linearGradient>
<linearGradient id="paint3_linear_1275_38178" x1="543.418" y1="257.057" x2="290.631" y2="257.057" gradientUnits="userSpaceOnUse">
<stop offset="0.830838" stop-color="#3B82F6"/>
<stop offset="1" stop-color="#3B82F6" stop-opacity="0"/>
</linearGradient>
<linearGradient id="paint4_linear_1275_38178" x1="579.339" y1="193.001" x2="960.582" y2="193.001" gradientUnits="userSpaceOnUse">
<stop offset="0.706363" stop-color="#3B82F6"/>
<stop offset="1" stop-color="#3B82F6" stop-opacity="0"/>
</linearGradient>
<linearGradient id="paint5_linear_1275_38178" x1="124.404" y1="193.001" x2="509.039" y2="193.001" gradientUnits="userSpaceOnUse">
<stop stop-color="#3B82F6" stop-opacity="0"/>
<stop offset="0.55" stop-color="#3B82F6"/>
</linearGradient>
<linearGradient id="paint6_linear_1275_38178" x1="596.251" y1="128.507" x2="800.528" y2="128.507" gradientUnits="userSpaceOnUse">
<stop offset="0.579938" stop-color="#3B82F6"/>
<stop offset="1" stop-color="#3B82F6" stop-opacity="0"/>
</linearGradient>
<linearGradient id="paint7_linear_1275_38178" x1="287.994" y1="128.507" x2="489.978" y2="128.507" gradientUnits="userSpaceOnUse">
<stop stop-color="#3B82F6" stop-opacity="0"/>
<stop offset="0.420062" stop-color="#3B82F6"/>
</linearGradient>
<linearGradient id="paint8_linear_1275_38178" x1="639.532" y1="0.503784" x2="639.532" y2="321.496" gradientUnits="userSpaceOnUse">
<stop stop-color="#3B82F6" stop-opacity="0"/>
<stop offset="0.505" stop-color="#3B82F6"/>
<stop offset="1" stop-color="#3B82F6" stop-opacity="0"/>
</linearGradient>
<linearGradient id="paint9_linear_1275_38178" x1="447.672" y1="0.503906" x2="447.672" y2="321.496" gradientUnits="userSpaceOnUse">
<stop stop-color="#3B82F6" stop-opacity="0"/>
<stop offset="0.505" stop-color="#3B82F6"/>
<stop offset="1" stop-color="#3B82F6" stop-opacity="0"/>
</linearGradient>
<linearGradient id="paint10_linear_1275_38178" x1="735.348" y1="65.0776" x2="735.348" y2="193.052" gradientUnits="userSpaceOnUse">
<stop stop-color="#3B82F6" stop-opacity="0"/>
<stop offset="0.535" stop-color="#3B82F6"/>
<stop offset="1" stop-color="#3B82F6" stop-opacity="0"/>
</linearGradient>
<linearGradient id="paint11_linear_1275_38178" x1="383.509" y1="33.0052" x2="383.509" y2="288.995" gradientUnits="userSpaceOnUse">
<stop stop-color="#3B82F6" stop-opacity="0"/>
<stop offset="0.535" stop-color="#3B82F6"/>
<stop offset="1" stop-color="#3B82F6" stop-opacity="0"/>
</linearGradient>
</defs>
</svg>
