<svg width="1024" height="322" viewBox="0 0 1024 322" fill="none" xmlns="http://www.w3.org/2000/svg">
<path d="M496.563 64.9503L864.593 64.9515" stroke="url(#paint0_linear_1278_46067)" stroke-width="2"/>
<path d="M496.84 64.9502L127.478 64.9503" stroke="url(#paint1_linear_1278_46067)" stroke-width="2"/>
<path d="M496.84 257.569L704.142 257.57" stroke="url(#paint2_linear_1278_46067)" stroke-width="2"/>
<path d="M496.84 257.569L255.362 257.569" stroke="url(#paint3_linear_1278_46067)" stroke-width="2"/>
<path d="M864.512 192.51L532.89 192.51" stroke="url(#paint4_linear_1278_46067)" stroke-width="2"/>
<path d="M465.406 192.51L127.449 192.51" stroke="url(#paint5_linear_1278_46067)" stroke-width="2"/>
<path d="M736.504 128.788L545.146 128.788" stroke="url(#paint6_linear_1278_46067)" stroke-width="2"/>
<path d="M447.98 128.788L263.305 128.788" stroke="url(#paint7_linear_1278_46067)" stroke-width="2"/>
<path d="M608.059 0.582886L608.059 320.98" stroke="url(#paint8_linear_1278_46067)" stroke-width="2"/>
<path d="M416.039 1.55347L416.039 321.417" stroke="url(#paint9_linear_1278_46067)" stroke-width="2"/>
<path d="M672.184 63.7874L672.184 191.761" stroke="url(#paint10_linear_1278_46067)" stroke-width="2"/>
<path d="M351.965 33.0784L351.965 288.919" stroke="url(#paint11_linear_1278_46067)" stroke-width="2"/>
<circle cx="672.18" cy="128.788" r="6.25" fill="#60A5FA"/>
<circle cx="351.09" cy="128.788" r="6.25" fill="#60A5FA"/>
<path d="M552.78 148.553V100.746C552.78 96.3281 549.198 92.7598 544.78 92.7598H497.464H450.148C445.73 92.7598 442.149 96.333 442.148 100.751C442.148 109.445 442.148 125.289 442.149 148.553C442.149 186.131 461.823 199.011 497.464 218.76C532.208 201.445 552.78 188.076 552.78 148.553Z" fill="#1D4ED8"/>
<path fill-rule="evenodd" clip-rule="evenodd" d="M501.631 118.797L495.559 117.284C496.013 117.284 496.501 117.248 497.05 117.208C497.759 117.155 498.571 117.095 499.549 117.095C503.192 117.095 506.141 118.419 508.916 120.12C509.3 120.329 509.631 120.77 509.967 121.217C510.239 121.58 510.514 121.946 510.825 122.2C512.212 122.767 513.6 123.145 514.988 122.956V122.389C516.549 122.767 518.11 124.658 518.11 125.981H510.998C510.825 125.981 510.478 126.171 510.304 126.36C510.478 126.549 510.825 126.927 510.998 126.927C511.326 126.927 511.682 126.916 512.059 126.905C513.277 126.869 514.703 126.827 516.029 127.116C516.005 127.16 515.979 127.206 515.953 127.254C515.411 128.247 514.411 130.08 513.253 128.818C513.253 128.439 506.488 128.628 504.753 129.007C504.406 129.007 504.059 129.763 504.233 130.141C505.009 132.197 506.851 133.48 508.577 134.681C509.549 135.358 510.484 136.009 511.171 136.758C516.029 140.918 517.59 144.699 516.549 151.884C513.942 163.082 509.844 164.972 501.859 168.656C500.811 169.139 499.696 169.654 498.508 170.224C495.559 171.737 493.824 175.329 494.345 178.921C495.559 186.673 506.835 188.753 509.09 179.677C509.784 176.085 508.916 170.98 502.671 169.468C505.447 168.144 508.049 166.632 510.478 164.93C510.825 164.552 511.171 164.552 511.518 164.93C518.457 171.926 520.192 184.782 508.743 192.345C500.59 197.261 490.355 193.101 487.059 183.648C483.763 174.005 488.967 163.606 498.161 161.527C504.753 160.392 511.518 152.829 508.569 145.834C507.26 142.695 503.481 139.556 500.289 136.904C499.252 136.042 498.276 135.232 497.467 134.49C497.01 134.191 496.264 134.259 495.432 134.336C494.685 134.404 493.869 134.479 493.13 134.301C493.477 134.017 493.688 133.735 493.899 133.452C494.11 133.17 494.321 132.888 494.668 132.604C493.107 131.557 492.139 131.413 490.943 131.236C490.412 131.157 489.835 131.072 489.141 130.897C489.661 129.763 491.906 128.442 493.467 128.253C493.42 127.759 493.389 127.333 493.361 126.961C493.191 124.624 493.174 124.398 490.181 122.767C491.962 121.474 493.535 121.76 495.062 122.039C496.661 122.33 498.21 122.613 499.896 121.066C497.814 120.309 495.733 119.553 493.824 118.23C494.802 118.301 495.763 118.489 496.719 118.677C498.309 118.989 499.887 119.299 501.511 119.063L501.631 118.797ZM487.059 167.388C478.732 161.716 478.212 147.346 487.579 141.107C494.518 136.38 502.324 138.082 507.529 146.401C508.222 147.725 508.222 149.804 507.876 151.317C506.488 156.422 503.018 159.258 498.335 160.392C499.722 159.258 500.763 157.556 501.11 155.666C502.671 145.078 487.579 143.943 488.273 155.287C488.1 158.502 490.355 160.77 494.692 161.527C492.437 163.039 490.528 164.363 488.447 167.199C488.1 167.766 487.753 167.766 487.059 167.388ZM484.967 175.591C482.297 176.135 479.481 176.709 476.824 177.976C478.039 172.493 482.375 168.711 487.579 168.711C486.192 170.602 485.498 173.06 485.324 175.518C485.206 175.542 485.087 175.566 484.967 175.591ZM507.347 123.403L507.867 123.971L507.173 124.349C506.826 124.538 506.653 124.349 506.479 124.16C506.132 123.593 507.173 123.214 507.347 123.403Z" fill="#EEEEF0"/>
<circle cx="192.02" cy="192.98" r="6.25" fill="#60A5FA"/>
<circle cx="799.996" cy="191.523" r="6.25" fill="#60A5FA"/>
<circle cx="192.02" cy="65.7874" r="6.25" fill="#60A5FA"/>
<circle cx="416.539" cy="255.569" r="6.25" fill="#60A5FA"/>
<circle cx="608.059" cy="257.57" r="6.25" fill="#60A5FA"/>
<circle cx="799.996" cy="63.3721" r="6.25" fill="#60A5FA"/>
<rect x="864.594" y="33.465" width="126.87" height="62.9707" fill="#0F0F11"/>
<path d="M904.891 58.9503V48.5503H908.531L910.665 57.3237H911.105L913.265 48.5503H916.905V58.9503H914.971V50.2437H914.625L912.531 58.9503H909.145L907.051 50.2437H906.705V58.9503H904.891ZM922.312 59.1503C921.014 59.1503 920.045 58.7725 919.405 58.017C918.774 57.2525 918.459 56.2303 918.459 54.9503C918.459 53.6703 918.774 52.6525 919.405 51.897C920.045 51.1325 921.014 50.7503 922.312 50.7503C923.61 50.7503 924.579 51.1325 925.219 51.897C925.859 52.6525 926.179 53.6703 926.179 54.9503C926.179 56.2303 925.859 57.2525 925.219 58.017C924.579 58.7725 923.61 59.1503 922.312 59.1503ZM922.312 57.777C922.943 57.777 923.401 57.537 923.685 57.057C923.979 56.5681 924.125 55.8659 924.125 54.9503C924.125 54.0259 923.979 53.3237 923.685 52.8437C923.401 52.3637 922.943 52.1237 922.312 52.1237C921.69 52.1237 921.232 52.3637 920.939 52.8437C920.645 53.3237 920.499 54.0259 920.499 54.9503C920.499 55.8659 920.645 56.5681 920.939 57.057C921.232 57.537 921.69 57.777 922.312 57.777ZM932.068 59.1237C931.473 59.1237 930.993 59.0037 930.628 58.7637C930.273 58.5237 930.011 58.2392 929.842 57.9103H929.522V58.9503H927.695V48.2837H929.682V51.8437H930.002C930.188 51.5237 930.451 51.2659 930.788 51.0703C931.126 50.8748 931.557 50.777 932.082 50.777C932.784 50.777 933.371 50.9503 933.842 51.297C934.322 51.6437 934.682 52.1281 934.922 52.7503C935.162 53.3725 935.282 54.1014 935.282 54.937C935.282 55.7548 935.162 56.4792 934.922 57.1103C934.691 57.7325 934.335 58.2259 933.855 58.5903C933.384 58.9459 932.788 59.1237 932.068 59.1237ZM931.548 57.6837C932.082 57.6837 932.495 57.4525 932.788 56.9903C933.082 56.5281 933.228 55.8481 933.228 54.9503C933.228 54.0525 933.082 53.3725 932.788 52.9103C932.495 52.4481 932.082 52.217 931.548 52.217C930.98 52.217 930.522 52.4659 930.175 52.9637C929.837 53.4525 929.668 54.1148 929.668 54.9503C929.668 55.777 929.837 56.4392 930.175 56.937C930.522 57.4348 930.98 57.6837 931.548 57.6837ZM936.804 58.9503V50.9503H938.791V58.9503H936.804ZM937.791 49.977C937.436 49.977 937.164 49.8837 936.978 49.697C936.791 49.5014 936.698 49.2525 936.698 48.9503C936.698 48.6392 936.791 48.3903 936.978 48.2037C937.164 48.017 937.436 47.9237 937.791 47.9237C938.147 47.9237 938.418 48.017 938.604 48.2037C938.791 48.3903 938.884 48.6392 938.884 48.9503C938.884 49.2525 938.791 49.5014 938.604 49.697C938.418 49.8837 938.147 49.977 937.791 49.977ZM941.491 58.9503C941.251 58.6748 941.078 58.3592 940.971 58.0037C940.865 57.6481 940.811 57.1681 940.811 56.5637V48.2837H942.798V56.3503C942.798 57.0348 942.874 57.5637 943.025 57.937C943.176 58.3014 943.371 58.6125 943.611 58.8703V58.9503H941.491ZM948.196 59.1503C946.961 59.1503 946.018 58.7725 945.369 58.017C944.721 57.2525 944.396 56.2259 944.396 54.937C944.396 54.0748 944.538 53.3325 944.823 52.7103C945.116 52.0881 945.543 51.6081 946.103 51.2703C946.672 50.9237 947.365 50.7503 948.183 50.7503C949.347 50.7503 950.236 51.1103 950.849 51.8303C951.472 52.5414 951.783 53.5903 951.783 54.977V55.417H946.329C946.374 56.1192 946.556 56.6792 946.876 57.097C947.196 57.5148 947.641 57.7237 948.209 57.7237C948.645 57.7237 948.996 57.5948 949.263 57.337C949.529 57.0792 949.712 56.7637 949.809 56.3903H951.689C951.601 56.8881 951.418 57.3459 951.143 57.7637C950.867 58.1814 950.485 58.5192 949.996 58.777C949.516 59.0259 948.916 59.1503 948.196 59.1503ZM946.329 54.137H949.863C949.827 53.497 949.663 52.9992 949.369 52.6437C949.085 52.2881 948.685 52.1103 948.169 52.1103C947.645 52.1103 947.223 52.2837 946.903 52.6303C946.592 52.9681 946.401 53.4703 946.329 54.137ZM901.735 82.9503V72.5503H905.362C907.193 72.5503 908.522 73.0081 909.348 73.9237C910.184 74.8303 910.602 76.1059 910.602 77.7503C910.602 79.3948 910.184 80.6748 909.348 81.5903C908.522 82.497 907.193 82.9503 905.362 82.9503H901.735ZM903.788 81.337H905.228C905.966 81.337 906.575 81.2214 907.055 80.9903C907.535 80.7592 907.891 80.3859 908.122 79.8703C908.362 79.3459 908.482 78.6392 908.482 77.7503C908.482 76.8614 908.362 76.1548 908.122 75.6303C907.891 75.1059 907.535 74.7325 907.055 74.5103C906.575 74.2792 905.966 74.1637 905.228 74.1637H903.788V81.337ZM915.337 83.1503C914.101 83.1503 913.159 82.7725 912.51 82.017C911.861 81.2525 911.537 80.2259 911.537 78.937C911.537 78.0748 911.679 77.3325 911.963 76.7103C912.257 76.0881 912.683 75.6081 913.243 75.2703C913.812 74.9237 914.506 74.7503 915.323 74.7503C916.488 74.7503 917.377 75.1103 917.99 75.8303C918.612 76.5414 918.923 77.5903 918.923 78.977V79.417H913.47C913.515 80.1192 913.697 80.6792 914.017 81.097C914.337 81.5148 914.781 81.7237 915.35 81.7237C915.786 81.7237 916.137 81.5948 916.403 81.337C916.67 81.0792 916.852 80.7637 916.95 80.3903H918.83C918.741 80.8881 918.559 81.3459 918.283 81.7637C918.008 82.1814 917.626 82.5192 917.137 82.777C916.657 83.0259 916.057 83.1503 915.337 83.1503ZM913.47 78.137H917.003C916.968 77.497 916.803 76.9992 916.51 76.6437C916.226 76.2881 915.826 76.1103 915.31 76.1103C914.786 76.1103 914.363 76.2837 914.043 76.6303C913.732 76.9681 913.541 77.4703 913.47 78.137ZM921.751 82.9503L919.418 75.0303V74.9503H921.418L923.204 81.3237H923.524L925.324 74.9503H927.151V75.0303L924.818 82.9503H921.751ZM928.367 82.9503V74.9503H930.354V82.9503H928.367ZM929.354 73.977C928.998 73.977 928.727 73.8837 928.54 73.697C928.354 73.5014 928.26 73.2525 928.26 72.9503C928.26 72.6392 928.354 72.3903 928.54 72.2037C928.727 72.017 928.998 71.9237 929.354 71.9237C929.709 71.9237 929.98 72.017 930.167 72.2037C930.354 72.3903 930.447 72.6392 930.447 72.9503C930.447 73.2525 930.354 73.5014 930.167 73.697C929.98 73.8837 929.709 73.977 929.354 73.977ZM935.601 83.1503C934.383 83.1503 933.458 82.7725 932.827 82.017C932.196 81.2525 931.881 80.2303 931.881 78.9503C931.881 77.6081 932.209 76.5725 932.867 75.8437C933.534 75.1148 934.449 74.7503 935.614 74.7503C936.645 74.7503 937.458 75.0259 938.054 75.577C938.649 76.1281 939.005 76.8837 939.121 77.8437H937.174C937.112 77.3103 936.947 76.9014 936.681 76.617C936.414 76.3237 936.067 76.177 935.641 76.177C935.081 76.177 934.654 76.4214 934.361 76.9103C934.067 77.3903 933.921 78.0703 933.921 78.9503C933.921 79.8303 934.063 80.5103 934.347 80.9903C934.641 81.4703 935.067 81.7103 935.627 81.7103C936.063 81.7103 936.414 81.5681 936.681 81.2837C936.947 80.9903 937.112 80.577 937.174 80.0437H939.121C938.996 81.0037 938.632 81.7637 938.027 82.3237C937.432 82.8748 936.623 83.1503 935.601 83.1503ZM943.852 83.1503C942.617 83.1503 941.675 82.7725 941.026 82.017C940.377 81.2525 940.052 80.2259 940.052 78.937C940.052 78.0748 940.195 77.3325 940.479 76.7103C940.772 76.0881 941.199 75.6081 941.759 75.2703C942.328 74.9237 943.021 74.7503 943.839 74.7503C945.004 74.7503 945.892 75.1103 946.506 75.8303C947.128 76.5414 947.439 77.5903 947.439 78.977V79.417H941.986C942.03 80.1192 942.212 80.6792 942.532 81.097C942.852 81.5148 943.297 81.7237 943.866 81.7237C944.301 81.7237 944.652 81.5948 944.919 81.337C945.186 81.0792 945.368 80.7637 945.466 80.3903H947.346C947.257 80.8881 947.075 81.3459 946.799 81.7637C946.524 82.1814 946.141 82.5192 945.652 82.777C945.172 83.0259 944.572 83.1503 943.852 83.1503ZM941.986 78.137H945.519C945.484 77.497 945.319 76.9992 945.026 76.6437C944.741 76.2881 944.341 76.1103 943.826 76.1103C943.301 76.1103 942.879 76.2837 942.559 76.6303C942.248 76.9681 942.057 77.4703 941.986 78.137ZM951.807 83.1503C950.954 83.1503 950.269 83.0125 949.754 82.737C949.238 82.4614 948.856 82.1103 948.607 81.6837C948.367 81.257 948.234 80.8259 948.207 80.3903H950.101C950.136 80.6303 950.225 80.8525 950.367 81.057C950.518 81.2614 950.718 81.4259 950.967 81.5503C951.225 81.6659 951.536 81.7237 951.901 81.7237C952.336 81.7237 952.656 81.6437 952.861 81.4837C953.065 81.3237 953.167 81.1192 953.167 80.8703C953.167 80.6392 953.078 80.4437 952.901 80.2837C952.723 80.1237 952.434 79.977 952.034 79.8437L951.074 79.5237C950.621 79.3637 950.203 79.1903 949.821 79.0037C949.447 78.8081 949.145 78.5592 948.914 78.257C948.692 77.9548 948.581 77.5681 948.581 77.097C948.581 76.3948 948.843 75.8303 949.367 75.4037C949.901 74.9681 950.647 74.7503 951.607 74.7503C952.301 74.7503 952.869 74.8614 953.314 75.0837C953.758 75.297 954.092 75.5903 954.314 75.9637C954.545 76.3281 954.678 76.737 954.714 77.1903H952.887C952.843 76.8614 952.709 76.5992 952.487 76.4037C952.265 76.2081 951.945 76.1103 951.527 76.1103C951.163 76.1103 950.887 76.1859 950.701 76.337C950.514 76.4792 950.421 76.6748 950.421 76.9237C950.421 77.1725 950.518 77.377 950.714 77.537C950.909 77.697 951.203 77.8437 951.594 77.977L952.554 78.297C953.007 78.4392 953.421 78.6081 953.794 78.8037C954.167 78.9903 954.465 79.2348 954.687 79.537C954.909 79.8392 955.021 80.2303 955.021 80.7103C955.021 81.4392 954.745 82.0303 954.194 82.4837C953.643 82.9281 952.847 83.1503 951.807 83.1503Z" fill="#EEEEF0"/>
<rect x="736.504" y="97.2698" width="126.989" height="63.0371" fill="#0F0F11"/>
<path d="M782.165 122.788V112.388H784.218V121.148H788.698V122.788H782.165ZM793.179 122.988C791.881 122.988 790.913 122.611 790.273 121.855C789.641 121.091 789.326 120.068 789.326 118.788C789.326 117.508 789.641 116.491 790.273 115.735C790.913 114.971 791.881 114.588 793.179 114.588C794.477 114.588 795.446 114.971 796.086 115.735C796.726 116.491 797.046 117.508 797.046 118.788C797.046 120.068 796.726 121.091 796.086 121.855C795.446 122.611 794.477 122.988 793.179 122.988ZM793.179 121.615C793.81 121.615 794.268 121.375 794.553 120.895C794.846 120.406 794.993 119.704 794.993 118.788C794.993 117.864 794.846 117.162 794.553 116.682C794.268 116.202 793.81 115.962 793.179 115.962C792.557 115.962 792.099 116.202 791.806 116.682C791.513 117.162 791.366 117.864 791.366 118.788C791.366 119.704 791.513 120.406 791.806 120.895C792.099 121.375 792.557 121.615 793.179 121.615ZM801.749 122.988C800.531 122.988 799.607 122.611 798.976 121.855C798.345 121.091 798.029 120.068 798.029 118.788C798.029 117.446 798.358 116.411 799.016 115.682C799.682 114.953 800.598 114.588 801.762 114.588C802.793 114.588 803.607 114.864 804.202 115.415C804.798 115.966 805.153 116.722 805.269 117.682H803.322C803.26 117.148 803.096 116.739 802.829 116.455C802.562 116.162 802.216 116.015 801.789 116.015C801.229 116.015 800.802 116.259 800.509 116.748C800.216 117.228 800.069 117.908 800.069 118.788C800.069 119.668 800.211 120.348 800.496 120.828C800.789 121.308 801.216 121.548 801.776 121.548C802.211 121.548 802.562 121.406 802.829 121.122C803.096 120.828 803.26 120.415 803.322 119.882H805.269C805.145 120.842 804.78 121.602 804.176 122.162C803.58 122.713 802.771 122.988 801.749 122.988ZM809.441 122.962C808.712 122.962 808.108 122.784 807.628 122.428C807.148 122.064 806.788 121.571 806.548 120.948C806.316 120.317 806.201 119.593 806.201 118.775C806.201 117.939 806.321 117.211 806.561 116.588C806.801 115.966 807.161 115.482 807.641 115.135C808.121 114.788 808.721 114.615 809.441 114.615C810.01 114.615 810.472 114.731 810.828 114.962C811.192 115.184 811.463 115.473 811.641 115.828H811.961V114.788H813.788V122.788H811.961V121.748H811.641C811.463 122.077 811.196 122.362 810.841 122.602C810.485 122.842 810.019 122.962 809.441 122.962ZM809.934 121.522C810.503 121.522 810.956 121.273 811.294 120.775C811.641 120.277 811.814 119.615 811.814 118.788C811.814 117.953 811.641 117.291 811.294 116.802C810.956 116.304 810.503 116.055 809.934 116.055C809.401 116.055 808.983 116.286 808.681 116.748C808.388 117.211 808.241 117.891 808.241 118.788C808.241 119.686 808.388 120.366 808.681 120.828C808.983 121.291 809.401 121.522 809.934 121.522ZM816.484 122.788C816.244 122.513 816.07 122.197 815.964 121.842C815.857 121.486 815.804 121.006 815.804 120.402V112.122H817.79V120.188C817.79 120.873 817.866 121.402 818.017 121.775C818.168 122.139 818.364 122.451 818.604 122.708V122.788H816.484ZM773.704 146.788V136.388H777.331C779.162 136.388 780.491 136.846 781.317 137.762C782.153 138.668 782.571 139.944 782.571 141.588C782.571 143.233 782.153 144.513 781.317 145.428C780.491 146.335 779.162 146.788 777.331 146.788H773.704ZM775.757 145.175H777.197C777.935 145.175 778.544 145.059 779.024 144.828C779.504 144.597 779.859 144.224 780.091 143.708C780.331 143.184 780.451 142.477 780.451 141.588C780.451 140.699 780.331 139.993 780.091 139.468C779.859 138.944 779.504 138.571 779.024 138.348C778.544 138.117 777.935 138.002 777.197 138.002H775.757V145.175ZM787.306 146.988C786.07 146.988 785.128 146.611 784.479 145.855C783.83 145.091 783.506 144.064 783.506 142.775C783.506 141.913 783.648 141.171 783.932 140.548C784.226 139.926 784.652 139.446 785.212 139.108C785.781 138.762 786.474 138.588 787.292 138.588C788.457 138.588 789.346 138.948 789.959 139.668C790.581 140.379 790.892 141.428 790.892 142.815V143.255H785.439C785.483 143.957 785.666 144.517 785.986 144.935C786.306 145.353 786.75 145.562 787.319 145.562C787.754 145.562 788.106 145.433 788.372 145.175C788.639 144.917 788.821 144.602 788.919 144.228H790.799C790.71 144.726 790.528 145.184 790.252 145.602C789.977 146.019 789.594 146.357 789.106 146.615C788.626 146.864 788.026 146.988 787.306 146.988ZM785.439 141.975H788.972C788.937 141.335 788.772 140.837 788.479 140.482C788.194 140.126 787.794 139.948 787.279 139.948C786.754 139.948 786.332 140.122 786.012 140.468C785.701 140.806 785.51 141.308 785.439 141.975ZM793.72 146.788L791.386 138.868V138.788H793.386L795.173 145.162H795.493L797.293 138.788H799.12V138.868L796.786 146.788H793.72ZM800.336 146.788V138.788H802.322V146.788H800.336ZM801.322 137.815C800.967 137.815 800.696 137.722 800.509 137.535C800.322 137.339 800.229 137.091 800.229 136.788C800.229 136.477 800.322 136.228 800.509 136.042C800.696 135.855 800.967 135.762 801.322 135.762C801.678 135.762 801.949 135.855 802.136 136.042C802.322 136.228 802.416 136.477 802.416 136.788C802.416 137.091 802.322 137.339 802.136 137.535C801.949 137.722 801.678 137.815 801.322 137.815ZM807.569 146.988C806.352 146.988 805.427 146.611 804.796 145.855C804.165 145.091 803.849 144.068 803.849 142.788C803.849 141.446 804.178 140.411 804.836 139.682C805.503 138.953 806.418 138.588 807.583 138.588C808.614 138.588 809.427 138.864 810.023 139.415C810.618 139.966 810.974 140.722 811.089 141.682H809.143C809.08 141.148 808.916 140.739 808.649 140.455C808.383 140.162 808.036 140.015 807.609 140.015C807.049 140.015 806.623 140.259 806.329 140.748C806.036 141.228 805.889 141.908 805.889 142.788C805.889 143.668 806.032 144.348 806.316 144.828C806.609 145.308 807.036 145.548 807.596 145.548C808.032 145.548 808.383 145.406 808.649 145.122C808.916 144.828 809.08 144.415 809.143 143.882H811.089C810.965 144.842 810.6 145.602 809.996 146.162C809.4 146.713 808.592 146.988 807.569 146.988ZM815.821 146.988C814.586 146.988 813.643 146.611 812.994 145.855C812.346 145.091 812.021 144.064 812.021 142.775C812.021 141.913 812.163 141.171 812.448 140.548C812.741 139.926 813.168 139.446 813.728 139.108C814.297 138.762 814.99 138.588 815.808 138.588C816.972 138.588 817.861 138.948 818.474 139.668C819.097 140.379 819.408 141.428 819.408 142.815V143.255H813.954C813.999 143.957 814.181 144.517 814.501 144.935C814.821 145.353 815.266 145.562 815.834 145.562C816.27 145.562 816.621 145.433 816.888 145.175C817.154 144.917 817.337 144.602 817.434 144.228H819.314C819.226 144.726 819.043 145.184 818.768 145.602C818.492 146.019 818.11 146.357 817.621 146.615C817.141 146.864 816.541 146.988 815.821 146.988ZM813.954 141.975H817.488C817.452 141.335 817.288 140.837 816.994 140.482C816.71 140.126 816.31 139.948 815.794 139.948C815.27 139.948 814.848 140.122 814.528 140.468C814.217 140.806 814.026 141.308 813.954 141.975ZM823.776 146.988C822.923 146.988 822.238 146.851 821.723 146.575C821.207 146.299 820.825 145.948 820.576 145.522C820.336 145.095 820.203 144.664 820.176 144.228H822.069C822.105 144.468 822.194 144.691 822.336 144.895C822.487 145.099 822.687 145.264 822.936 145.388C823.194 145.504 823.505 145.562 823.869 145.562C824.305 145.562 824.625 145.482 824.829 145.322C825.034 145.162 825.136 144.957 825.136 144.708C825.136 144.477 825.047 144.282 824.869 144.122C824.692 143.962 824.403 143.815 824.003 143.682L823.043 143.362C822.589 143.202 822.172 143.028 821.789 142.842C821.416 142.646 821.114 142.397 820.883 142.095C820.66 141.793 820.549 141.406 820.549 140.935C820.549 140.233 820.812 139.668 821.336 139.242C821.869 138.806 822.616 138.588 823.576 138.588C824.269 138.588 824.838 138.699 825.283 138.922C825.727 139.135 826.06 139.428 826.283 139.802C826.514 140.166 826.647 140.575 826.683 141.028H824.856C824.812 140.699 824.678 140.437 824.456 140.242C824.234 140.046 823.914 139.948 823.496 139.948C823.132 139.948 822.856 140.024 822.669 140.175C822.483 140.317 822.389 140.513 822.389 140.762C822.389 141.011 822.487 141.215 822.683 141.375C822.878 141.535 823.172 141.682 823.563 141.815L824.523 142.135C824.976 142.277 825.389 142.446 825.763 142.642C826.136 142.828 826.434 143.073 826.656 143.375C826.878 143.677 826.989 144.068 826.989 144.548C826.989 145.277 826.714 145.868 826.163 146.322C825.612 146.766 824.816 146.988 823.776 146.988Z" fill="#EEEEF0"/>
<rect x="704.762" y="217.526" width="158.699" height="63.0371" fill="#0F0F11"/>
<path d="M738.761 243.045V232.645H742.388C744.219 232.645 745.548 233.103 746.375 234.018C747.21 234.925 747.628 236.201 747.628 237.845C747.628 239.489 747.21 240.769 746.375 241.685C745.548 242.592 744.219 243.045 742.388 243.045H738.761ZM740.815 241.432H742.255C742.993 241.432 743.601 241.316 744.081 241.085C744.561 240.854 744.917 240.481 745.148 239.965C745.388 239.441 745.508 238.734 745.508 237.845C745.508 236.956 745.388 236.249 745.148 235.725C744.917 235.201 744.561 234.827 744.081 234.605C743.601 234.374 742.993 234.258 742.255 234.258H740.815V241.432ZM752.363 243.245C751.128 243.245 750.185 242.867 749.536 242.112C748.888 241.347 748.563 240.321 748.563 239.032C748.563 238.169 748.705 237.427 748.99 236.805C749.283 236.183 749.71 235.703 750.27 235.365C750.839 235.018 751.532 234.845 752.35 234.845C753.514 234.845 754.403 235.205 755.016 235.925C755.639 236.636 755.95 237.685 755.95 239.072V239.512H750.496C750.541 240.214 750.723 240.774 751.043 241.192C751.363 241.609 751.808 241.818 752.376 241.818C752.812 241.818 753.163 241.689 753.43 241.432C753.696 241.174 753.879 240.858 753.976 240.485H755.856C755.768 240.983 755.585 241.441 755.31 241.858C755.034 242.276 754.652 242.614 754.163 242.872C753.683 243.121 753.083 243.245 752.363 243.245ZM750.496 238.232H754.03C753.994 237.592 753.83 237.094 753.536 236.738C753.252 236.383 752.852 236.205 752.336 236.205C751.812 236.205 751.39 236.378 751.07 236.725C750.759 237.063 750.568 237.565 750.496 238.232ZM758.777 243.045L756.444 235.125V235.045H758.444L760.231 241.418H760.551L762.351 235.045H764.177V235.125L761.844 243.045H758.777ZM768.66 243.245C767.424 243.245 766.482 242.867 765.833 242.112C765.184 241.347 764.86 240.321 764.86 239.032C764.86 238.169 765.002 237.427 765.287 236.805C765.58 236.183 766.007 235.703 766.567 235.365C767.136 235.018 767.829 234.845 768.647 234.845C769.811 234.845 770.7 235.205 771.313 235.925C771.936 236.636 772.247 237.685 772.247 239.072V239.512H766.793C766.838 240.214 767.02 240.774 767.34 241.192C767.66 241.609 768.104 241.818 768.673 241.818C769.109 241.818 769.46 241.689 769.727 241.432C769.993 241.174 770.176 240.858 770.273 240.485H772.153C772.064 240.983 771.882 241.441 771.607 241.858C771.331 242.276 770.949 242.614 770.46 242.872C769.98 243.121 769.38 243.245 768.66 243.245ZM766.793 238.232H770.327C770.291 237.592 770.127 237.094 769.833 236.738C769.549 236.383 769.149 236.205 768.633 236.205C768.109 236.205 767.687 236.378 767.367 236.725C767.056 237.063 766.864 237.565 766.793 238.232ZM774.361 243.045C774.121 242.769 773.948 242.454 773.841 242.098C773.735 241.743 773.681 241.263 773.681 240.658V232.378H775.668V240.445C775.668 241.129 775.744 241.658 775.895 242.032C776.046 242.396 776.241 242.707 776.481 242.965V243.045H774.361ZM781.12 243.245C779.822 243.245 778.853 242.867 778.213 242.112C777.582 241.347 777.266 240.325 777.266 239.045C777.266 237.765 777.582 236.747 778.213 235.992C778.853 235.227 779.822 234.845 781.12 234.845C782.417 234.845 783.386 235.227 784.026 235.992C784.666 236.747 784.986 237.765 784.986 239.045C784.986 240.325 784.666 241.347 784.026 242.112C783.386 242.867 782.417 243.245 781.12 243.245ZM781.12 241.872C781.751 241.872 782.209 241.632 782.493 241.152C782.786 240.663 782.933 239.961 782.933 239.045C782.933 238.121 782.786 237.418 782.493 236.938C782.209 236.458 781.751 236.218 781.12 236.218C780.497 236.218 780.04 236.458 779.746 236.938C779.453 237.418 779.306 238.121 779.306 239.045C779.306 239.961 779.453 240.663 779.746 241.152C780.04 241.632 780.497 241.872 781.12 241.872ZM786.503 245.712V235.045H788.329V236.085H788.649C788.818 235.747 789.081 235.463 789.436 235.232C789.801 234.992 790.281 234.872 790.876 234.872C791.596 234.872 792.192 235.049 792.663 235.405C793.143 235.761 793.498 236.254 793.729 236.885C793.969 237.507 794.089 238.232 794.089 239.058C794.089 239.876 793.969 240.601 793.729 241.232C793.489 241.863 793.129 242.352 792.649 242.698C792.178 243.045 791.592 243.218 790.889 243.218C790.365 243.218 789.934 243.121 789.596 242.925C789.258 242.729 788.996 242.467 788.809 242.138H788.489V245.712H786.503ZM790.356 241.778C790.889 241.778 791.303 241.547 791.596 241.085C791.889 240.623 792.036 239.943 792.036 239.045C792.036 238.147 791.889 237.467 791.596 237.005C791.303 236.543 790.889 236.312 790.356 236.312C789.787 236.312 789.329 236.561 788.983 237.058C788.645 237.547 788.476 238.209 788.476 239.045C788.476 239.872 788.645 240.534 788.983 241.032C789.329 241.529 789.787 241.778 790.356 241.778ZM795.612 243.045V235.045H797.439V236.245H797.759C797.901 235.845 798.137 235.512 798.465 235.245C798.803 234.978 799.274 234.845 799.879 234.845C800.439 234.845 800.901 234.969 801.265 235.218C801.63 235.458 801.91 235.801 802.105 236.245H802.425C802.577 235.836 802.825 235.503 803.172 235.245C803.519 234.978 803.985 234.845 804.572 234.845C805.443 234.845 806.088 235.129 806.505 235.698C806.923 236.258 807.132 237.009 807.132 237.952V243.045H805.159V238.298C805.159 237.721 805.061 237.272 804.865 236.952C804.679 236.632 804.377 236.472 803.959 236.472C803.443 236.472 803.048 236.689 802.772 237.125C802.497 237.561 802.359 238.094 802.359 238.725V243.045H800.385V238.298C800.385 237.721 800.288 237.272 800.092 236.952C799.905 236.632 799.603 236.472 799.185 236.472C798.679 236.472 798.288 236.689 798.012 237.125C797.737 237.561 797.599 238.094 797.599 238.725V243.045H795.612ZM812.348 243.245C811.112 243.245 810.17 242.867 809.521 242.112C808.872 241.347 808.548 240.321 808.548 239.032C808.548 238.169 808.69 237.427 808.974 236.805C809.268 236.183 809.694 235.703 810.254 235.365C810.823 235.018 811.516 234.845 812.334 234.845C813.499 234.845 814.388 235.205 815.001 235.925C815.623 236.636 815.934 237.685 815.934 239.072V239.512H810.481C810.525 240.214 810.708 240.774 811.028 241.192C811.348 241.609 811.792 241.818 812.361 241.818C812.796 241.818 813.148 241.689 813.414 241.432C813.681 241.174 813.863 240.858 813.961 240.485H815.841C815.752 240.983 815.57 241.441 815.294 241.858C815.019 242.276 814.636 242.614 814.148 242.872C813.668 243.121 813.068 243.245 812.348 243.245ZM810.481 238.232H814.014C813.979 237.592 813.814 237.094 813.521 236.738C813.236 236.383 812.836 236.205 812.321 236.205C811.796 236.205 811.374 236.378 811.054 236.725C810.743 237.063 810.552 237.565 810.481 238.232ZM817.409 243.045V235.045H819.236V236.245H819.556C819.707 235.836 819.956 235.503 820.302 235.245C820.649 234.978 821.138 234.845 821.769 234.845C822.667 234.845 823.333 235.129 823.769 235.698C824.213 236.258 824.436 237.009 824.436 237.952V243.045H822.449V238.298C822.449 237.712 822.342 237.263 822.129 236.952C821.925 236.632 821.591 236.472 821.129 236.472C820.578 236.472 820.151 236.689 819.849 237.125C819.547 237.552 819.396 238.085 819.396 238.725V243.045H817.409ZM827.511 243.045C827.307 242.805 827.142 242.516 827.018 242.178C826.902 241.841 826.844 241.334 826.844 240.658V236.458H825.751V235.045H826.871V233.045H828.804V235.045H830.124V236.458H828.818V240.432C828.818 241.143 828.898 241.685 829.058 242.058C829.218 242.423 829.409 242.725 829.631 242.965V243.045H827.511ZM754.568 267.245C753.084 267.245 751.928 266.769 751.101 265.818C750.275 264.867 749.861 263.543 749.861 261.845C749.861 260.156 750.27 258.836 751.088 257.885C751.906 256.925 753.066 256.445 754.568 256.445C755.457 256.445 756.221 256.614 756.861 256.952C757.501 257.281 758.004 257.743 758.368 258.338C758.732 258.934 758.946 259.623 759.008 260.405H756.955C756.884 259.658 756.635 259.072 756.208 258.645C755.79 258.218 755.244 258.005 754.568 258.005C753.715 258.005 753.07 258.343 752.635 259.018C752.199 259.685 751.981 260.632 751.981 261.858C751.981 263.121 752.204 264.076 752.648 264.725C753.101 265.365 753.737 265.685 754.555 265.685C755.266 265.685 755.826 265.463 756.235 265.018C756.652 264.574 756.892 263.996 756.955 263.285H759.008C758.946 264.058 758.732 264.743 758.368 265.338C758.004 265.934 757.501 266.401 756.861 266.738C756.23 267.076 755.466 267.245 754.568 267.245ZM763.737 267.245C762.439 267.245 761.47 266.867 760.83 266.112C760.199 265.347 759.883 264.325 759.883 263.045C759.883 261.765 760.199 260.747 760.83 259.992C761.47 259.227 762.439 258.845 763.737 258.845C765.035 258.845 766.003 259.227 766.643 259.992C767.283 260.747 767.603 261.765 767.603 263.045C767.603 264.325 767.283 265.347 766.643 266.112C766.003 266.867 765.035 267.245 763.737 267.245ZM763.737 265.872C764.368 265.872 764.826 265.632 765.11 265.152C765.403 264.663 765.55 263.961 765.55 263.045C765.55 262.121 765.403 261.418 765.11 260.938C764.826 260.458 764.368 260.218 763.737 260.218C763.115 260.218 762.657 260.458 762.363 260.938C762.07 261.418 761.923 262.121 761.923 263.045C761.923 263.961 762.07 264.663 762.363 265.152C762.657 265.632 763.115 265.872 763.737 265.872ZM769.12 267.045V259.045H770.947V260.245H771.267C771.418 259.836 771.667 259.503 772.013 259.245C772.36 258.978 772.849 258.845 773.48 258.845C774.378 258.845 775.044 259.129 775.48 259.698C775.924 260.258 776.147 261.009 776.147 261.952V267.045H774.16V262.298C774.16 261.712 774.053 261.263 773.84 260.952C773.635 260.632 773.302 260.472 772.84 260.472C772.289 260.472 771.862 260.689 771.56 261.125C771.258 261.552 771.107 262.085 771.107 262.725V267.045H769.12ZM779.222 267.045C779.018 266.805 778.853 266.516 778.729 266.178C778.613 265.841 778.555 265.334 778.555 264.658V260.458H777.462V259.045H778.582V257.045H780.515V259.045H781.835V260.458H780.529V264.432C780.529 265.143 780.609 265.685 780.769 266.058C780.929 266.423 781.12 266.725 781.342 266.965V267.045H779.222ZM785.967 267.218C785.238 267.218 784.634 267.041 784.154 266.685C783.674 266.321 783.314 265.827 783.074 265.205C782.843 264.574 782.727 263.849 782.727 263.032C782.727 262.196 782.847 261.467 783.087 260.845C783.327 260.223 783.687 259.738 784.167 259.392C784.647 259.045 785.247 258.872 785.967 258.872C786.536 258.872 786.998 258.987 787.354 259.218C787.718 259.441 787.989 259.729 788.167 260.085H788.487V259.045H790.314V267.045H788.487V266.005H788.167C787.989 266.334 787.723 266.618 787.367 266.858C787.012 267.098 786.545 267.218 785.967 267.218ZM786.461 265.778C787.029 265.778 787.483 265.529 787.821 265.032C788.167 264.534 788.341 263.872 788.341 263.045C788.341 262.209 788.167 261.547 787.821 261.058C787.483 260.561 787.029 260.312 786.461 260.312C785.927 260.312 785.509 260.543 785.207 261.005C784.914 261.467 784.767 262.147 784.767 263.045C784.767 263.943 784.914 264.623 785.207 265.085C785.509 265.547 785.927 265.778 786.461 265.778ZM792.37 267.045V259.045H794.357V267.045H792.37ZM793.357 258.072C793.001 258.072 792.73 257.978 792.543 257.792C792.357 257.596 792.263 257.347 792.263 257.045C792.263 256.734 792.357 256.485 792.543 256.298C792.73 256.112 793.001 256.018 793.357 256.018C793.712 256.018 793.983 256.112 794.17 256.298C794.357 256.485 794.45 256.734 794.45 257.045C794.45 257.347 794.357 257.596 794.17 257.792C793.983 257.978 793.712 258.072 793.357 258.072ZM796.417 267.045V259.045H798.243V260.245H798.563C798.715 259.836 798.963 259.503 799.31 259.245C799.657 258.978 800.146 258.845 800.777 258.845C801.675 258.845 802.341 259.129 802.777 259.698C803.221 260.258 803.443 261.009 803.443 261.952V267.045H801.457V262.298C801.457 261.712 801.35 261.263 801.137 260.952C800.932 260.632 800.599 260.472 800.137 260.472C799.586 260.472 799.159 260.689 798.857 261.125C798.555 261.552 798.403 262.085 798.403 262.725V267.045H796.417ZM808.652 267.245C807.417 267.245 806.474 266.867 805.826 266.112C805.177 265.347 804.852 264.321 804.852 263.032C804.852 262.169 804.994 261.427 805.279 260.805C805.572 260.183 805.999 259.703 806.559 259.365C807.128 259.018 807.821 258.845 808.639 258.845C809.803 258.845 810.692 259.205 811.306 259.925C811.928 260.636 812.239 261.685 812.239 263.072V263.512H806.786C806.83 264.214 807.012 264.774 807.332 265.192C807.652 265.609 808.097 265.818 808.666 265.818C809.101 265.818 809.452 265.689 809.719 265.432C809.986 265.174 810.168 264.858 810.266 264.485H812.146C812.057 264.983 811.874 265.441 811.599 265.858C811.323 266.276 810.941 266.614 810.452 266.872C809.972 267.121 809.372 267.245 808.652 267.245ZM806.786 262.232H810.319C810.283 261.592 810.119 261.094 809.826 260.738C809.541 260.383 809.141 260.205 808.626 260.205C808.101 260.205 807.679 260.378 807.359 260.725C807.048 261.063 806.857 261.565 806.786 262.232ZM813.7 267.045V259.045H815.5V260.485H815.82C815.874 260.227 815.971 259.983 816.114 259.752C816.256 259.521 816.478 259.334 816.78 259.192C817.083 259.041 817.491 258.965 818.007 258.965H818.394V260.765H817.847C817.083 260.765 816.531 260.961 816.194 261.352C815.856 261.743 815.687 262.334 815.687 263.125V267.045H813.7Z" fill="#EEEEF0"/>
<rect x="128.594" y="97.5615" width="126.853" height="63.0371" fill="#0F0F11"/>
<path d="M159.222 123.08V112.68H162.862L164.996 121.453H165.436L167.596 112.68H171.236V123.08H169.302V114.373H168.956L166.862 123.08H163.476L161.382 114.373H161.036V123.08H159.222ZM176.03 123.253C175.301 123.253 174.696 123.076 174.216 122.72C173.736 122.356 173.376 121.862 173.136 121.24C172.905 120.609 172.79 119.885 172.79 119.067C172.79 118.231 172.91 117.502 173.15 116.88C173.39 116.258 173.75 115.773 174.23 115.427C174.71 115.08 175.31 114.907 176.03 114.907C176.599 114.907 177.061 115.022 177.416 115.253C177.781 115.476 178.052 115.765 178.23 116.12H178.55V115.08H180.376V123.08H178.55V122.04H178.23C178.052 122.369 177.785 122.653 177.43 122.893C177.074 123.133 176.607 123.253 176.03 123.253ZM176.523 121.813C177.092 121.813 177.545 121.565 177.883 121.067C178.23 120.569 178.403 119.907 178.403 119.08C178.403 118.245 178.23 117.582 177.883 117.093C177.545 116.596 177.092 116.347 176.523 116.347C175.99 116.347 175.572 116.578 175.27 117.04C174.976 117.502 174.83 118.182 174.83 119.08C174.83 119.978 174.976 120.658 175.27 121.12C175.572 121.582 175.99 121.813 176.523 121.813ZM182.432 123.08V115.08H184.259V116.28H184.579C184.73 115.871 184.979 115.538 185.326 115.28C185.672 115.013 186.161 114.88 186.792 114.88C187.69 114.88 188.357 115.165 188.792 115.733C189.237 116.293 189.459 117.045 189.459 117.987V123.08H187.472V118.333C187.472 117.747 187.366 117.298 187.152 116.987C186.948 116.667 186.615 116.507 186.152 116.507C185.601 116.507 185.175 116.725 184.872 117.16C184.57 117.587 184.419 118.12 184.419 118.76V123.08H182.432ZM194.108 123.253C193.379 123.253 192.775 123.076 192.295 122.72C191.815 122.356 191.455 121.862 191.215 121.24C190.983 120.609 190.868 119.885 190.868 119.067C190.868 118.231 190.988 117.502 191.228 116.88C191.468 116.258 191.828 115.773 192.308 115.427C192.788 115.08 193.388 114.907 194.108 114.907C194.677 114.907 195.139 115.022 195.495 115.253C195.859 115.476 196.13 115.765 196.308 116.12H196.628V115.08H198.455V123.08H196.628V122.04H196.308C196.13 122.369 195.863 122.653 195.508 122.893C195.152 123.133 194.686 123.253 194.108 123.253ZM194.601 121.813C195.17 121.813 195.623 121.565 195.961 121.067C196.308 120.569 196.481 119.907 196.481 119.08C196.481 118.245 196.308 117.582 195.961 117.093C195.623 116.596 195.17 116.347 194.601 116.347C194.068 116.347 193.65 116.578 193.348 117.04C193.055 117.502 192.908 118.182 192.908 119.08C192.908 119.978 193.055 120.658 193.348 121.12C193.65 121.582 194.068 121.813 194.601 121.813ZM203.804 125.947C203.102 125.947 202.528 125.858 202.084 125.68C201.648 125.511 201.306 125.293 201.057 125.027C200.817 124.769 200.644 124.498 200.537 124.213C200.431 123.938 200.368 123.685 200.351 123.453H202.284C202.328 123.729 202.462 123.973 202.684 124.187C202.915 124.409 203.288 124.52 203.804 124.52C204.373 124.52 204.804 124.351 205.097 124.013C205.399 123.685 205.551 123.2 205.551 122.56V121.627H205.231C205.097 122 204.862 122.298 204.524 122.52C204.186 122.742 203.737 122.853 203.177 122.853C202.146 122.853 201.355 122.493 200.804 121.773C200.253 121.045 199.977 120.071 199.977 118.853C199.977 118.071 200.097 117.382 200.337 116.787C200.586 116.182 200.946 115.716 201.417 115.387C201.897 115.049 202.493 114.88 203.204 114.88C203.764 114.88 204.208 114.991 204.537 115.213C204.875 115.427 205.124 115.707 205.284 116.053H205.604V115.08H207.431V122.52C207.431 123.613 207.128 124.458 206.524 125.053C205.928 125.649 205.022 125.947 203.804 125.947ZM203.657 121.413C204.226 121.413 204.666 121.182 204.977 120.72C205.297 120.249 205.457 119.631 205.457 118.867C205.457 118.085 205.297 117.467 204.977 117.013C204.657 116.551 204.217 116.32 203.657 116.32C203.142 116.32 202.733 116.533 202.431 116.96C202.128 117.387 201.977 118.022 201.977 118.867C201.977 119.711 202.124 120.347 202.417 120.773C202.719 121.2 203.133 121.413 203.657 121.413ZM212.746 123.28C211.51 123.28 210.568 122.902 209.919 122.147C209.27 121.382 208.946 120.356 208.946 119.067C208.946 118.205 209.088 117.462 209.373 116.84C209.666 116.218 210.093 115.738 210.653 115.4C211.222 115.053 211.915 114.88 212.733 114.88C213.897 114.88 214.786 115.24 215.399 115.96C216.022 116.671 216.333 117.72 216.333 119.107V119.547H210.879C210.924 120.249 211.106 120.809 211.426 121.227C211.746 121.645 212.19 121.853 212.759 121.853C213.195 121.853 213.546 121.725 213.813 121.467C214.079 121.209 214.262 120.893 214.359 120.52H216.239C216.15 121.018 215.968 121.476 215.693 121.893C215.417 122.311 215.035 122.649 214.546 122.907C214.066 123.156 213.466 123.28 212.746 123.28ZM210.879 118.267H214.413C214.377 117.627 214.213 117.129 213.919 116.773C213.635 116.418 213.235 116.24 212.719 116.24C212.195 116.24 211.773 116.413 211.453 116.76C211.142 117.098 210.95 117.6 210.879 118.267ZM220.474 123.253C219.754 123.253 219.159 123.076 218.687 122.72C218.216 122.356 217.861 121.862 217.621 121.24C217.381 120.609 217.261 119.885 217.261 119.067C217.261 118.231 217.381 117.502 217.621 116.88C217.861 116.258 218.216 115.773 218.687 115.427C219.167 115.08 219.759 114.907 220.461 114.907C220.994 114.907 221.425 115.005 221.754 115.2C222.092 115.396 222.359 115.653 222.554 115.973H222.874V112.413H224.847V123.08H223.034V122.04H222.714C222.536 122.369 222.265 122.653 221.901 122.893C221.545 123.133 221.07 123.253 220.474 123.253ZM220.994 121.813C221.572 121.813 222.03 121.565 222.367 121.067C222.705 120.569 222.874 119.907 222.874 119.08C222.874 118.245 222.705 117.582 222.367 117.093C222.03 116.596 221.572 116.347 220.994 116.347C220.47 116.347 220.056 116.578 219.754 117.04C219.461 117.502 219.314 118.182 219.314 119.08C219.314 119.978 219.461 120.658 219.754 121.12C220.056 121.582 220.47 121.813 220.994 121.813ZM152.996 147.08V136.68H154.996V140.773H155.796L158.916 136.68H161.183V136.76L157.489 141.507L161.716 147V147.08H159.263L155.796 142.427H154.996V147.08H152.996ZM164.918 147.28C164.011 147.28 163.335 147 162.891 146.44C162.446 145.871 162.224 145.116 162.224 144.173V139.08H164.211V143.827C164.211 144.405 164.313 144.853 164.518 145.173C164.731 145.493 165.064 145.653 165.518 145.653C166.078 145.653 166.509 145.436 166.811 145C167.113 144.565 167.264 144.031 167.264 143.4V139.08H169.251V147.08H167.464V145.88H167.144C167.011 146.289 166.762 146.627 166.398 146.893C166.042 147.151 165.549 147.28 164.918 147.28ZM175.673 147.253C175.077 147.253 174.597 147.133 174.233 146.893C173.877 146.653 173.615 146.369 173.446 146.04H173.126V147.08H171.3V136.413H173.286V139.973H173.606C173.793 139.653 174.055 139.396 174.393 139.2C174.731 139.005 175.162 138.907 175.686 138.907C176.389 138.907 176.975 139.08 177.446 139.427C177.926 139.773 178.286 140.258 178.526 140.88C178.766 141.502 178.886 142.231 178.886 143.067C178.886 143.885 178.766 144.609 178.526 145.24C178.295 145.862 177.94 146.356 177.46 146.72C176.989 147.076 176.393 147.253 175.673 147.253ZM175.153 145.813C175.686 145.813 176.1 145.582 176.393 145.12C176.686 144.658 176.833 143.978 176.833 143.08C176.833 142.182 176.686 141.502 176.393 141.04C176.1 140.578 175.686 140.347 175.153 140.347C174.584 140.347 174.126 140.596 173.78 141.093C173.442 141.582 173.273 142.245 173.273 143.08C173.273 143.907 173.442 144.569 173.78 145.067C174.126 145.565 174.584 145.813 175.153 145.813ZM183.676 147.28C182.44 147.28 181.498 146.902 180.849 146.147C180.2 145.382 179.876 144.356 179.876 143.067C179.876 142.205 180.018 141.462 180.302 140.84C180.596 140.218 181.022 139.738 181.582 139.4C182.151 139.053 182.845 138.88 183.662 138.88C184.827 138.88 185.716 139.24 186.329 139.96C186.951 140.671 187.262 141.72 187.262 143.107V143.547H181.809C181.853 144.249 182.036 144.809 182.356 145.227C182.676 145.645 183.12 145.853 183.689 145.853C184.125 145.853 184.476 145.725 184.742 145.467C185.009 145.209 185.191 144.893 185.289 144.52H187.169C187.08 145.018 186.898 145.476 186.622 145.893C186.347 146.311 185.965 146.649 185.476 146.907C184.996 147.156 184.396 147.28 183.676 147.28ZM181.809 142.267H185.342C185.307 141.627 185.142 141.129 184.849 140.773C184.565 140.418 184.165 140.24 183.649 140.24C183.125 140.24 182.702 140.413 182.382 140.76C182.071 141.098 181.88 141.6 181.809 142.267ZM188.724 147.08V139.08H190.524V140.52H190.844C190.897 140.262 190.995 140.018 191.137 139.787C191.279 139.556 191.502 139.369 191.804 139.227C192.106 139.076 192.515 139 193.03 139H193.417V140.8H192.87C192.106 140.8 191.555 140.996 191.217 141.387C190.879 141.778 190.71 142.369 190.71 143.16V147.08H188.724ZM194.846 147.08V139.08H196.673V140.28H196.993C197.144 139.871 197.393 139.538 197.74 139.28C198.086 139.013 198.575 138.88 199.206 138.88C200.104 138.88 200.771 139.165 201.206 139.733C201.651 140.293 201.873 141.045 201.873 141.987V147.08H199.886V142.333C199.886 141.747 199.78 141.298 199.566 140.987C199.362 140.667 199.029 140.507 198.566 140.507C198.015 140.507 197.589 140.725 197.286 141.16C196.984 141.587 196.833 142.12 196.833 142.76V147.08H194.846ZM207.082 147.28C205.846 147.28 204.904 146.902 204.255 146.147C203.606 145.382 203.282 144.356 203.282 143.067C203.282 142.205 203.424 141.462 203.709 140.84C204.002 140.218 204.429 139.738 204.989 139.4C205.557 139.053 206.251 138.88 207.069 138.88C208.233 138.88 209.122 139.24 209.735 139.96C210.357 140.671 210.669 141.72 210.669 143.107V143.547H205.215C205.26 144.249 205.442 144.809 205.762 145.227C206.082 145.645 206.526 145.853 207.095 145.853C207.531 145.853 207.882 145.725 208.149 145.467C208.415 145.209 208.597 144.893 208.695 144.52H210.575C210.486 145.018 210.304 145.476 210.029 145.893C209.753 146.311 209.371 146.649 208.882 146.907C208.402 147.156 207.802 147.28 207.082 147.28ZM205.215 142.267H208.749C208.713 141.627 208.549 141.129 208.255 140.773C207.971 140.418 207.571 140.24 207.055 140.24C206.531 140.24 206.109 140.413 205.789 140.76C205.477 141.098 205.286 141.6 205.215 142.267ZM213.277 147.08C213.072 146.84 212.908 146.551 212.783 146.213C212.668 145.876 212.61 145.369 212.61 144.693V140.493H211.517V139.08H212.637V137.08H214.57V139.08H215.89V140.493H214.583V144.467C214.583 145.178 214.663 145.72 214.823 146.093C214.983 146.458 215.174 146.76 215.397 147V147.08H213.277ZM220.582 147.28C219.346 147.28 218.404 146.902 217.755 146.147C217.106 145.382 216.782 144.356 216.782 143.067C216.782 142.205 216.924 141.462 217.209 140.84C217.502 140.218 217.929 139.738 218.489 139.4C219.057 139.053 219.751 138.88 220.569 138.88C221.733 138.88 222.622 139.24 223.235 139.96C223.857 140.671 224.169 141.72 224.169 143.107V143.547H218.715C218.76 144.249 218.942 144.809 219.262 145.227C219.582 145.645 220.026 145.853 220.595 145.853C221.031 145.853 221.382 145.725 221.649 145.467C221.915 145.209 222.097 144.893 222.195 144.52H224.075C223.986 145.018 223.804 145.476 223.529 145.893C223.253 146.311 222.871 146.649 222.382 146.907C221.902 147.156 221.302 147.28 220.582 147.28ZM218.715 142.267H222.249C222.213 141.627 222.049 141.129 221.755 140.773C221.471 140.418 221.071 140.24 220.555 140.24C220.031 140.24 219.609 140.413 219.289 140.76C218.977 141.098 218.786 141.6 218.715 142.267ZM228.537 147.28C227.683 147.28 226.999 147.142 226.483 146.867C225.968 146.591 225.586 146.24 225.337 145.813C225.097 145.387 224.963 144.956 224.937 144.52H226.83C226.866 144.76 226.954 144.982 227.097 145.187C227.248 145.391 227.448 145.556 227.697 145.68C227.954 145.796 228.266 145.853 228.63 145.853C229.066 145.853 229.386 145.773 229.59 145.613C229.794 145.453 229.897 145.249 229.897 145C229.897 144.769 229.808 144.573 229.63 144.413C229.452 144.253 229.163 144.107 228.763 143.973L227.803 143.653C227.35 143.493 226.932 143.32 226.55 143.133C226.177 142.938 225.874 142.689 225.643 142.387C225.421 142.085 225.31 141.698 225.31 141.227C225.31 140.525 225.572 139.96 226.097 139.533C226.63 139.098 227.377 138.88 228.337 138.88C229.03 138.88 229.599 138.991 230.043 139.213C230.488 139.427 230.821 139.72 231.043 140.093C231.274 140.458 231.408 140.867 231.443 141.32H229.617C229.572 140.991 229.439 140.729 229.217 140.533C228.994 140.338 228.674 140.24 228.257 140.24C227.892 140.24 227.617 140.316 227.43 140.467C227.243 140.609 227.15 140.805 227.15 141.053C227.15 141.302 227.248 141.507 227.443 141.667C227.639 141.827 227.932 141.973 228.323 142.107L229.283 142.427C229.737 142.569 230.15 142.738 230.523 142.933C230.897 143.12 231.194 143.365 231.417 143.667C231.639 143.969 231.75 144.36 231.75 144.84C231.75 145.569 231.474 146.16 230.923 146.613C230.372 147.058 229.577 147.28 228.537 147.28Z" fill="#EEEEF0"/>
<rect x="128.516" y="225.516" width="126.934" height="63.5715" fill="#0F0F11"/>
<path d="M159.219 251.302V240.902H162.859L164.992 249.676H165.432L167.592 240.902H171.232V251.302H169.299V242.596H168.952L166.859 251.302H163.472L161.379 242.596H161.032V251.302H159.219ZM176.026 251.476C175.297 251.476 174.693 251.298 174.213 250.942C173.733 250.578 173.373 250.084 173.133 249.462C172.902 248.831 172.786 248.107 172.786 247.289C172.786 246.453 172.906 245.724 173.146 245.102C173.386 244.48 173.746 243.996 174.226 243.649C174.706 243.302 175.306 243.129 176.026 243.129C176.595 243.129 177.057 243.244 177.413 243.476C177.777 243.698 178.049 243.987 178.226 244.342H178.546V243.302H180.373V251.302H178.546V250.262H178.226C178.049 250.591 177.782 250.876 177.426 251.116C177.071 251.356 176.604 251.476 176.026 251.476ZM176.52 250.036C177.089 250.036 177.542 249.787 177.88 249.289C178.226 248.791 178.4 248.129 178.4 247.302C178.4 246.467 178.226 245.804 177.88 245.316C177.542 244.818 177.089 244.569 176.52 244.569C175.986 244.569 175.569 244.8 175.266 245.262C174.973 245.724 174.826 246.404 174.826 247.302C174.826 248.2 174.973 248.88 175.266 249.342C175.569 249.804 175.986 250.036 176.52 250.036ZM182.429 251.302V243.302H184.256V244.502H184.576C184.727 244.093 184.976 243.76 185.322 243.502C185.669 243.236 186.158 243.102 186.789 243.102C187.687 243.102 188.354 243.387 188.789 243.956C189.234 244.516 189.456 245.267 189.456 246.209V251.302H187.469V246.556C187.469 245.969 187.362 245.52 187.149 245.209C186.945 244.889 186.611 244.729 186.149 244.729C185.598 244.729 185.171 244.947 184.869 245.382C184.567 245.809 184.416 246.342 184.416 246.982V251.302H182.429ZM194.104 251.476C193.376 251.476 192.771 251.298 192.291 250.942C191.811 250.578 191.451 250.084 191.211 249.462C190.98 248.831 190.864 248.107 190.864 247.289C190.864 246.453 190.984 245.724 191.224 245.102C191.464 244.48 191.824 243.996 192.304 243.649C192.784 243.302 193.384 243.129 194.104 243.129C194.673 243.129 195.136 243.244 195.491 243.476C195.856 243.698 196.127 243.987 196.304 244.342H196.624V243.302H198.451V251.302H196.624V250.262H196.304C196.127 250.591 195.86 250.876 195.504 251.116C195.149 251.356 194.682 251.476 194.104 251.476ZM194.598 250.036C195.167 250.036 195.62 249.787 195.958 249.289C196.304 248.791 196.478 248.129 196.478 247.302C196.478 246.467 196.304 245.804 195.958 245.316C195.62 244.818 195.167 244.569 194.598 244.569C194.064 244.569 193.647 244.8 193.344 245.262C193.051 245.724 192.904 246.404 192.904 247.302C192.904 248.2 193.051 248.88 193.344 249.342C193.647 249.804 194.064 250.036 194.598 250.036ZM203.801 254.169C203.098 254.169 202.525 254.08 202.081 253.902C201.645 253.733 201.303 253.516 201.054 253.249C200.814 252.991 200.641 252.72 200.534 252.436C200.427 252.16 200.365 251.907 200.347 251.676H202.281C202.325 251.951 202.458 252.196 202.681 252.409C202.912 252.631 203.285 252.742 203.801 252.742C204.369 252.742 204.801 252.573 205.094 252.236C205.396 251.907 205.547 251.422 205.547 250.782V249.849H205.227C205.094 250.222 204.858 250.52 204.521 250.742C204.183 250.964 203.734 251.076 203.174 251.076C202.143 251.076 201.352 250.716 200.801 249.996C200.249 249.267 199.974 248.293 199.974 247.076C199.974 246.293 200.094 245.604 200.334 245.009C200.583 244.404 200.943 243.938 201.414 243.609C201.894 243.271 202.489 243.102 203.201 243.102C203.761 243.102 204.205 243.213 204.534 243.436C204.872 243.649 205.121 243.929 205.281 244.276H205.601V243.302H207.427V250.742C207.427 251.836 207.125 252.68 206.521 253.276C205.925 253.871 205.018 254.169 203.801 254.169ZM203.654 249.636C204.223 249.636 204.663 249.404 204.974 248.942C205.294 248.471 205.454 247.853 205.454 247.089C205.454 246.307 205.294 245.689 204.974 245.236C204.654 244.773 204.214 244.542 203.654 244.542C203.138 244.542 202.729 244.756 202.427 245.182C202.125 245.609 201.974 246.244 201.974 247.089C201.974 247.933 202.121 248.569 202.414 248.996C202.716 249.422 203.129 249.636 203.654 249.636ZM212.743 251.502C211.507 251.502 210.565 251.124 209.916 250.369C209.267 249.604 208.943 248.578 208.943 247.289C208.943 246.427 209.085 245.684 209.369 245.062C209.663 244.44 210.089 243.96 210.649 243.622C211.218 243.276 211.912 243.102 212.729 243.102C213.894 243.102 214.783 243.462 215.396 244.182C216.018 244.893 216.329 245.942 216.329 247.329V247.769H210.876C210.92 248.471 211.103 249.031 211.423 249.449C211.743 249.867 212.187 250.076 212.756 250.076C213.192 250.076 213.543 249.947 213.809 249.689C214.076 249.431 214.258 249.116 214.356 248.742H216.236C216.147 249.24 215.965 249.698 215.689 250.116C215.414 250.533 215.032 250.871 214.543 251.129C214.063 251.378 213.463 251.502 212.743 251.502ZM210.876 246.489H214.409C214.374 245.849 214.209 245.351 213.916 244.996C213.632 244.64 213.232 244.462 212.716 244.462C212.192 244.462 211.769 244.636 211.449 244.982C211.138 245.32 210.947 245.822 210.876 246.489ZM220.471 251.476C219.751 251.476 219.155 251.298 218.684 250.942C218.213 250.578 217.857 250.084 217.617 249.462C217.377 248.831 217.257 248.107 217.257 247.289C217.257 246.453 217.377 245.724 217.617 245.102C217.857 244.48 218.213 243.996 218.684 243.649C219.164 243.302 219.755 243.129 220.457 243.129C220.991 243.129 221.422 243.227 221.751 243.422C222.089 243.618 222.355 243.876 222.551 244.196H222.871V240.636H224.844V251.302H223.031V250.262H222.711C222.533 250.591 222.262 250.876 221.897 251.116C221.542 251.356 221.066 251.476 220.471 251.476ZM220.991 250.036C221.569 250.036 222.026 249.787 222.364 249.289C222.702 248.791 222.871 248.129 222.871 247.302C222.871 246.467 222.702 245.804 222.364 245.316C222.026 244.818 221.569 244.569 220.991 244.569C220.466 244.569 220.053 244.8 219.751 245.262C219.457 245.724 219.311 246.404 219.311 247.302C219.311 248.2 219.457 248.88 219.751 249.342C220.053 249.804 220.466 250.036 220.991 250.036ZM159.139 275.302V264.902H161.192V275.302H159.139ZM163.288 275.302V267.302H165.115V268.502H165.435C165.586 268.093 165.835 267.76 166.182 267.502C166.528 267.236 167.017 267.102 167.648 267.102C168.546 267.102 169.213 267.387 169.648 267.956C170.093 268.516 170.315 269.267 170.315 270.209V275.302H168.328V270.556C168.328 269.969 168.222 269.52 168.008 269.209C167.804 268.889 167.471 268.729 167.008 268.729C166.457 268.729 166.031 268.947 165.728 269.382C165.426 269.809 165.275 270.342 165.275 270.982V275.302H163.288ZM175.151 275.502C174.297 275.502 173.613 275.364 173.097 275.089C172.582 274.813 172.199 274.462 171.951 274.036C171.711 273.609 171.577 273.178 171.551 272.742H173.444C173.479 272.982 173.568 273.204 173.711 273.409C173.862 273.613 174.062 273.778 174.311 273.902C174.568 274.018 174.879 274.076 175.244 274.076C175.679 274.076 175.999 273.996 176.204 273.836C176.408 273.676 176.511 273.471 176.511 273.222C176.511 272.991 176.422 272.796 176.244 272.636C176.066 272.476 175.777 272.329 175.377 272.196L174.417 271.876C173.964 271.716 173.546 271.542 173.164 271.356C172.791 271.16 172.488 270.911 172.257 270.609C172.035 270.307 171.924 269.92 171.924 269.449C171.924 268.747 172.186 268.182 172.711 267.756C173.244 267.32 173.991 267.102 174.951 267.102C175.644 267.102 176.213 267.213 176.657 267.436C177.102 267.649 177.435 267.942 177.657 268.316C177.888 268.68 178.022 269.089 178.057 269.542H176.231C176.186 269.213 176.053 268.951 175.831 268.756C175.608 268.56 175.288 268.462 174.871 268.462C174.506 268.462 174.231 268.538 174.044 268.689C173.857 268.831 173.764 269.027 173.764 269.276C173.764 269.524 173.862 269.729 174.057 269.889C174.253 270.049 174.546 270.196 174.937 270.329L175.897 270.649C176.351 270.791 176.764 270.96 177.137 271.156C177.511 271.342 177.808 271.587 178.031 271.889C178.253 272.191 178.364 272.582 178.364 273.062C178.364 273.791 178.088 274.382 177.537 274.836C176.986 275.28 176.191 275.502 175.151 275.502ZM180.891 275.302C180.686 275.062 180.522 274.773 180.397 274.436C180.282 274.098 180.224 273.591 180.224 272.916V268.716H179.131V267.302H180.251V265.302H182.184V267.302H183.504V268.716H182.197V272.689C182.197 273.4 182.277 273.942 182.437 274.316C182.597 274.68 182.788 274.982 183.011 275.222V275.302H180.891ZM187.636 275.476C186.907 275.476 186.302 275.298 185.822 274.942C185.342 274.578 184.982 274.084 184.742 273.462C184.511 272.831 184.396 272.107 184.396 271.289C184.396 270.453 184.516 269.724 184.756 269.102C184.996 268.48 185.356 267.996 185.836 267.649C186.316 267.302 186.916 267.129 187.636 267.129C188.205 267.129 188.667 267.244 189.022 267.476C189.387 267.698 189.658 267.987 189.836 268.342H190.156V267.302H191.982V275.302H190.156V274.262H189.836C189.658 274.591 189.391 274.876 189.036 275.116C188.68 275.356 188.214 275.476 187.636 275.476ZM188.129 274.036C188.698 274.036 189.151 273.787 189.489 273.289C189.836 272.791 190.009 272.129 190.009 271.302C190.009 270.467 189.836 269.804 189.489 269.316C189.151 268.818 188.698 268.569 188.129 268.569C187.596 268.569 187.178 268.8 186.876 269.262C186.582 269.724 186.436 270.404 186.436 271.302C186.436 272.2 186.582 272.88 186.876 273.342C187.178 273.804 187.596 274.036 188.129 274.036ZM194.038 275.302V267.302H195.865V268.502H196.185C196.336 268.093 196.585 267.76 196.932 267.502C197.278 267.236 197.767 267.102 198.398 267.102C199.296 267.102 199.963 267.387 200.398 267.956C200.843 268.516 201.065 269.267 201.065 270.209V275.302H199.078V270.556C199.078 269.969 198.972 269.52 198.758 269.209C198.554 268.889 198.221 268.729 197.758 268.729C197.207 268.729 196.781 268.947 196.478 269.382C196.176 269.809 196.025 270.342 196.025 270.982V275.302H194.038ZM206.194 275.502C204.976 275.502 204.052 275.124 203.421 274.369C202.789 273.604 202.474 272.582 202.474 271.302C202.474 269.96 202.803 268.924 203.461 268.196C204.127 267.467 205.043 267.102 206.207 267.102C207.238 267.102 208.052 267.378 208.647 267.929C209.243 268.48 209.598 269.236 209.714 270.196H207.767C207.705 269.662 207.541 269.253 207.274 268.969C207.007 268.676 206.661 268.529 206.234 268.529C205.674 268.529 205.247 268.773 204.954 269.262C204.661 269.742 204.514 270.422 204.514 271.302C204.514 272.182 204.656 272.862 204.941 273.342C205.234 273.822 205.661 274.062 206.221 274.062C206.656 274.062 207.007 273.92 207.274 273.636C207.541 273.342 207.705 272.929 207.767 272.396H209.714C209.589 273.356 209.225 274.116 208.621 274.676C208.025 275.227 207.216 275.502 206.194 275.502ZM214.446 275.502C213.21 275.502 212.268 275.124 211.619 274.369C210.97 273.604 210.646 272.578 210.646 271.289C210.646 270.427 210.788 269.684 211.072 269.062C211.366 268.44 211.792 267.96 212.352 267.622C212.921 267.276 213.615 267.102 214.432 267.102C215.597 267.102 216.486 267.462 217.099 268.182C217.721 268.893 218.032 269.942 218.032 271.329V271.769H212.579C212.624 272.471 212.806 273.031 213.126 273.449C213.446 273.867 213.89 274.076 214.459 274.076C214.895 274.076 215.246 273.947 215.512 273.689C215.779 273.431 215.961 273.116 216.059 272.742H217.939C217.85 273.24 217.668 273.698 217.392 274.116C217.117 274.533 216.735 274.871 216.246 275.129C215.766 275.378 215.166 275.502 214.446 275.502ZM212.579 270.489H216.112C216.077 269.849 215.912 269.351 215.619 268.996C215.335 268.64 214.935 268.462 214.419 268.462C213.895 268.462 213.472 268.636 213.152 268.982C212.841 269.32 212.65 269.822 212.579 270.489ZM222.401 275.502C221.547 275.502 220.863 275.364 220.347 275.089C219.832 274.813 219.449 274.462 219.201 274.036C218.961 273.609 218.827 273.178 218.801 272.742H220.694C220.729 272.982 220.818 273.204 220.961 273.409C221.112 273.613 221.312 273.778 221.561 273.902C221.818 274.018 222.129 274.076 222.494 274.076C222.929 274.076 223.249 273.996 223.454 273.836C223.658 273.676 223.761 273.471 223.761 273.222C223.761 272.991 223.672 272.796 223.494 272.636C223.316 272.476 223.027 272.329 222.627 272.196L221.667 271.876C221.214 271.716 220.796 271.542 220.414 271.356C220.041 271.16 219.738 270.911 219.507 270.609C219.285 270.307 219.174 269.92 219.174 269.449C219.174 268.747 219.436 268.182 219.961 267.756C220.494 267.32 221.241 267.102 222.201 267.102C222.894 267.102 223.463 267.213 223.907 267.436C224.352 267.649 224.685 267.942 224.907 268.316C225.138 268.68 225.272 269.089 225.307 269.542H223.481C223.436 269.213 223.303 268.951 223.081 268.756C222.858 268.56 222.538 268.462 222.121 268.462C221.756 268.462 221.481 268.538 221.294 268.689C221.107 268.831 221.014 269.027 221.014 269.276C221.014 269.524 221.112 269.729 221.307 269.889C221.503 270.049 221.796 270.196 222.187 270.329L223.147 270.649C223.601 270.791 224.014 270.96 224.387 271.156C224.761 271.342 225.058 271.587 225.281 271.889C225.503 272.191 225.614 272.582 225.614 273.062C225.614 273.791 225.338 274.382 224.787 274.836C224.236 275.28 223.441 275.502 222.401 275.502Z" fill="#EEEEF0"/>
<rect x="864.512" y="161.491" width="159.489" height="62.9785" fill="#0F0F11"/>
<path d="M898.947 186.967V176.567H902.574C904.405 176.567 905.734 177.025 906.561 177.94C907.396 178.847 907.814 180.122 907.814 181.767C907.814 183.411 907.396 184.691 906.561 185.607C905.734 186.514 904.405 186.967 902.574 186.967H898.947ZM901.001 185.354H902.441C903.178 185.354 903.787 185.238 904.267 185.007C904.747 184.776 905.103 184.402 905.334 183.887C905.574 183.362 905.694 182.656 905.694 181.767C905.694 180.878 905.574 180.171 905.334 179.647C905.103 179.122 904.747 178.749 904.267 178.527C903.787 178.296 903.178 178.18 902.441 178.18H901.001V185.354ZM912.549 187.167C911.313 187.167 910.371 186.789 909.722 186.034C909.073 185.269 908.749 184.242 908.749 182.954C908.749 182.091 908.891 181.349 909.176 180.727C909.469 180.105 909.896 179.625 910.456 179.287C911.024 178.94 911.718 178.767 912.536 178.767C913.7 178.767 914.589 179.127 915.202 179.847C915.824 180.558 916.136 181.607 916.136 182.994V183.434H910.682C910.727 184.136 910.909 184.696 911.229 185.114C911.549 185.531 911.993 185.74 912.562 185.74C912.998 185.74 913.349 185.611 913.616 185.354C913.882 185.096 914.064 184.78 914.162 184.407H916.042C915.953 184.905 915.771 185.362 915.496 185.78C915.22 186.198 914.838 186.536 914.349 186.794C913.869 187.042 913.269 187.167 912.549 187.167ZM910.682 182.154H914.216C914.18 181.514 914.016 181.016 913.722 180.66C913.438 180.305 913.038 180.127 912.522 180.127C911.998 180.127 911.576 180.3 911.256 180.647C910.944 180.985 910.753 181.487 910.682 182.154ZM918.963 186.967L916.63 179.047V178.967H918.63L920.416 185.34H920.736L922.536 178.967H924.363V179.047L922.03 186.967H918.963ZM928.846 187.167C927.61 187.167 926.668 186.789 926.019 186.034C925.37 185.269 925.046 184.242 925.046 182.954C925.046 182.091 925.188 181.349 925.472 180.727C925.766 180.105 926.192 179.625 926.752 179.287C927.321 178.94 928.015 178.767 928.832 178.767C929.997 178.767 930.886 179.127 931.499 179.847C932.121 180.558 932.432 181.607 932.432 182.994V183.434H926.979C927.024 184.136 927.206 184.696 927.526 185.114C927.846 185.531 928.29 185.74 928.859 185.74C929.295 185.74 929.646 185.611 929.912 185.354C930.179 185.096 930.361 184.78 930.459 184.407H932.339C932.25 184.905 932.068 185.362 931.792 185.78C931.517 186.198 931.135 186.536 930.646 186.794C930.166 187.042 929.566 187.167 928.846 187.167ZM926.979 182.154H930.512C930.477 181.514 930.312 181.016 930.019 180.66C929.735 180.305 929.335 180.127 928.819 180.127C928.295 180.127 927.872 180.3 927.552 180.647C927.241 180.985 927.05 181.487 926.979 182.154ZM934.547 186.967C934.307 186.691 934.134 186.376 934.027 186.02C933.921 185.665 933.867 185.185 933.867 184.58V176.3H935.854V184.367C935.854 185.051 935.929 185.58 936.081 185.954C936.232 186.318 936.427 186.629 936.667 186.887V186.967H934.547ZM941.305 187.167C940.008 187.167 939.039 186.789 938.399 186.034C937.768 185.269 937.452 184.247 937.452 182.967C937.452 181.687 937.768 180.669 938.399 179.914C939.039 179.149 940.008 178.767 941.305 178.767C942.603 178.767 943.572 179.149 944.212 179.914C944.852 180.669 945.172 181.687 945.172 182.967C945.172 184.247 944.852 185.269 944.212 186.034C943.572 186.789 942.603 187.167 941.305 187.167ZM941.305 185.794C941.936 185.794 942.394 185.554 942.679 185.074C942.972 184.585 943.119 183.882 943.119 182.967C943.119 182.042 942.972 181.34 942.679 180.86C942.394 180.38 941.936 180.14 941.305 180.14C940.683 180.14 940.225 180.38 939.932 180.86C939.639 181.34 939.492 182.042 939.492 182.967C939.492 183.882 939.639 184.585 939.932 185.074C940.225 185.554 940.683 185.794 941.305 185.794ZM946.688 189.634V178.967H948.515V180.007H948.835C949.004 179.669 949.266 179.385 949.622 179.154C949.986 178.914 950.466 178.794 951.062 178.794C951.782 178.794 952.377 178.971 952.848 179.327C953.328 179.682 953.684 180.176 953.915 180.807C954.155 181.429 954.275 182.154 954.275 182.98C954.275 183.798 954.155 184.522 953.915 185.154C953.675 185.785 953.315 186.274 952.835 186.62C952.364 186.967 951.777 187.14 951.075 187.14C950.551 187.14 950.12 187.042 949.782 186.847C949.444 186.651 949.182 186.389 948.995 186.06H948.675V189.634H946.688ZM950.542 185.7C951.075 185.7 951.488 185.469 951.782 185.007C952.075 184.545 952.222 183.865 952.222 182.967C952.222 182.069 952.075 181.389 951.782 180.927C951.488 180.465 951.075 180.234 950.542 180.234C949.973 180.234 949.515 180.482 949.168 180.98C948.831 181.469 948.662 182.131 948.662 182.967C948.662 183.794 948.831 184.456 949.168 184.954C949.515 185.451 949.973 185.7 950.542 185.7ZM955.798 186.967V178.967H957.625V180.167H957.945C958.087 179.767 958.322 179.434 958.651 179.167C958.989 178.9 959.46 178.767 960.065 178.767C960.625 178.767 961.087 178.891 961.451 179.14C961.816 179.38 962.096 179.722 962.291 180.167H962.611C962.762 179.758 963.011 179.425 963.358 179.167C963.705 178.9 964.171 178.767 964.758 178.767C965.629 178.767 966.273 179.051 966.691 179.62C967.109 180.18 967.318 180.931 967.318 181.874V186.967H965.345V182.22C965.345 181.642 965.247 181.194 965.051 180.874C964.865 180.554 964.562 180.394 964.145 180.394C963.629 180.394 963.233 180.611 962.958 181.047C962.682 181.482 962.545 182.016 962.545 182.647V186.967H960.571V182.22C960.571 181.642 960.473 181.194 960.278 180.874C960.091 180.554 959.789 180.394 959.371 180.394C958.865 180.394 958.473 180.611 958.198 181.047C957.922 181.482 957.785 182.016 957.785 182.647V186.967H955.798ZM972.533 187.167C971.298 187.167 970.356 186.789 969.707 186.034C969.058 185.269 968.733 184.242 968.733 182.954C968.733 182.091 968.876 181.349 969.16 180.727C969.453 180.105 969.88 179.625 970.44 179.287C971.009 178.94 971.702 178.767 972.52 178.767C973.684 178.767 974.573 179.127 975.187 179.847C975.809 180.558 976.12 181.607 976.12 182.994V183.434H970.667C970.711 184.136 970.893 184.696 971.213 185.114C971.533 185.531 971.978 185.74 972.547 185.74C972.982 185.74 973.333 185.611 973.6 185.354C973.867 185.096 974.049 184.78 974.147 184.407H976.027C975.938 184.905 975.756 185.362 975.48 185.78C975.204 186.198 974.822 186.536 974.333 186.794C973.853 187.042 973.253 187.167 972.533 187.167ZM970.667 182.154H974.2C974.164 181.514 974 181.016 973.707 180.66C973.422 180.305 973.022 180.127 972.507 180.127C971.982 180.127 971.56 180.3 971.24 180.647C970.929 180.985 970.738 181.487 970.667 182.154ZM977.595 186.967V178.967H979.421V180.167H979.741C979.893 179.758 980.141 179.425 980.488 179.167C980.835 178.9 981.324 178.767 981.955 178.767C982.853 178.767 983.519 179.051 983.955 179.62C984.399 180.18 984.621 180.931 984.621 181.874V186.967H982.635V182.22C982.635 181.634 982.528 181.185 982.315 180.874C982.11 180.554 981.777 180.394 981.315 180.394C980.764 180.394 980.337 180.611 980.035 181.047C979.733 181.474 979.581 182.007 979.581 182.647V186.967H977.595ZM987.697 186.967C987.492 186.727 987.328 186.438 987.204 186.1C987.088 185.762 987.03 185.256 987.03 184.58V180.38H985.937V178.967H987.057V176.967H988.99V178.967H990.31V180.38H989.004V184.354C989.004 185.065 989.084 185.607 989.244 185.98C989.404 186.345 989.595 186.647 989.817 186.887V186.967H987.697ZM914.754 211.167C913.269 211.167 912.114 210.691 911.287 209.74C910.46 208.789 910.047 207.465 910.047 205.767C910.047 204.078 910.456 202.758 911.274 201.807C912.092 200.847 913.252 200.367 914.754 200.367C915.643 200.367 916.407 200.536 917.047 200.874C917.687 201.202 918.189 201.665 918.554 202.26C918.918 202.856 919.132 203.545 919.194 204.327H917.14C917.069 203.58 916.82 202.994 916.394 202.567C915.976 202.14 915.429 201.927 914.754 201.927C913.9 201.927 913.256 202.265 912.82 202.94C912.385 203.607 912.167 204.554 912.167 205.78C912.167 207.042 912.389 207.998 912.834 208.647C913.287 209.287 913.923 209.607 914.74 209.607C915.452 209.607 916.012 209.385 916.42 208.94C916.838 208.496 917.078 207.918 917.14 207.207H919.194C919.132 207.98 918.918 208.665 918.554 209.26C918.189 209.856 917.687 210.322 917.047 210.66C916.416 210.998 915.652 211.167 914.754 211.167ZM923.923 211.167C922.625 211.167 921.656 210.789 921.016 210.034C920.385 209.269 920.069 208.247 920.069 206.967C920.069 205.687 920.385 204.669 921.016 203.914C921.656 203.149 922.625 202.767 923.923 202.767C925.22 202.767 926.189 203.149 926.829 203.914C927.469 204.669 927.789 205.687 927.789 206.967C927.789 208.247 927.469 209.269 926.829 210.034C926.189 210.789 925.22 211.167 923.923 211.167ZM923.923 209.794C924.554 209.794 925.011 209.554 925.296 209.074C925.589 208.585 925.736 207.882 925.736 206.967C925.736 206.042 925.589 205.34 925.296 204.86C925.011 204.38 924.554 204.14 923.923 204.14C923.3 204.14 922.843 204.38 922.549 204.86C922.256 205.34 922.109 206.042 922.109 206.967C922.109 207.882 922.256 208.585 922.549 209.074C922.843 209.554 923.3 209.794 923.923 209.794ZM929.306 210.967V202.967H931.132V204.167H931.452C931.603 203.758 931.852 203.425 932.199 203.167C932.546 202.9 933.035 202.767 933.666 202.767C934.563 202.767 935.23 203.051 935.666 203.62C936.11 204.18 936.332 204.931 936.332 205.874V210.967H934.346V206.22C934.346 205.634 934.239 205.185 934.026 204.874C933.821 204.554 933.488 204.394 933.026 204.394C932.475 204.394 932.048 204.611 931.746 205.047C931.443 205.474 931.292 206.007 931.292 206.647V210.967H929.306ZM939.408 210.967C939.203 210.727 939.039 210.438 938.914 210.1C938.799 209.762 938.741 209.256 938.741 208.58V204.38H937.648V202.967H938.768V200.967H940.701V202.967H942.021V204.38H940.714V208.354C940.714 209.065 940.794 209.607 940.954 209.98C941.114 210.345 941.306 210.647 941.528 210.887V210.967H939.408ZM946.153 211.14C945.424 211.14 944.82 210.962 944.34 210.607C943.86 210.242 943.5 209.749 943.26 209.127C943.029 208.496 942.913 207.771 942.913 206.954C942.913 206.118 943.033 205.389 943.273 204.767C943.513 204.145 943.873 203.66 944.353 203.314C944.833 202.967 945.433 202.794 946.153 202.794C946.722 202.794 947.184 202.909 947.54 203.14C947.904 203.362 948.175 203.651 948.353 204.007H948.673V202.967H950.5V210.967H948.673V209.927H948.353C948.175 210.256 947.909 210.54 947.553 210.78C947.197 211.02 946.731 211.14 946.153 211.14ZM946.646 209.7C947.215 209.7 947.669 209.451 948.006 208.954C948.353 208.456 948.526 207.794 948.526 206.967C948.526 206.131 948.353 205.469 948.006 204.98C947.669 204.482 947.215 204.234 946.646 204.234C946.113 204.234 945.695 204.465 945.393 204.927C945.1 205.389 944.953 206.069 944.953 206.967C944.953 207.865 945.1 208.545 945.393 209.007C945.695 209.469 946.113 209.7 946.646 209.7ZM952.556 210.967V202.967H954.542V210.967H952.556ZM953.542 201.994C953.187 201.994 952.916 201.9 952.729 201.714C952.542 201.518 952.449 201.269 952.449 200.967C952.449 200.656 952.542 200.407 952.729 200.22C952.916 200.034 953.187 199.94 953.542 199.94C953.898 199.94 954.169 200.034 954.356 200.22C954.542 200.407 954.636 200.656 954.636 200.967C954.636 201.269 954.542 201.518 954.356 201.714C954.169 201.9 953.898 201.994 953.542 201.994ZM956.603 210.967V202.967H958.429V204.167H958.749C958.9 203.758 959.149 203.425 959.496 203.167C959.843 202.9 960.331 202.767 960.963 202.767C961.86 202.767 962.527 203.051 962.963 203.62C963.407 204.18 963.629 204.931 963.629 205.874V210.967H961.643V206.22C961.643 205.634 961.536 205.185 961.323 204.874C961.118 204.554 960.785 204.394 960.323 204.394C959.771 204.394 959.345 204.611 959.043 205.047C958.74 205.474 958.589 206.007 958.589 206.647V210.967H956.603ZM968.838 211.167C967.602 211.167 966.66 210.789 966.011 210.034C965.362 209.269 965.038 208.242 965.038 206.954C965.038 206.091 965.18 205.349 965.465 204.727C965.758 204.105 966.185 203.625 966.745 203.287C967.314 202.94 968.007 202.767 968.825 202.767C969.989 202.767 970.878 203.127 971.491 203.847C972.114 204.558 972.425 205.607 972.425 206.994V207.434H966.971C967.016 208.136 967.198 208.696 967.518 209.114C967.838 209.531 968.282 209.74 968.851 209.74C969.287 209.74 969.638 209.611 969.905 209.354C970.171 209.096 970.354 208.78 970.451 208.407H972.331C972.242 208.905 972.06 209.362 971.785 209.78C971.509 210.198 971.127 210.536 970.638 210.794C970.158 211.042 969.558 211.167 968.838 211.167ZM966.971 206.154H970.505C970.469 205.514 970.305 205.016 970.011 204.66C969.727 204.305 969.327 204.127 968.811 204.127C968.287 204.127 967.865 204.3 967.545 204.647C967.234 204.985 967.042 205.487 966.971 206.154ZM973.886 210.967V202.967H975.686V204.407H976.006C976.059 204.149 976.157 203.905 976.299 203.674C976.442 203.442 976.664 203.256 976.966 203.114C977.268 202.962 977.677 202.887 978.193 202.887H978.579V204.687H978.033C977.268 204.687 976.717 204.882 976.379 205.274C976.042 205.665 975.873 206.256 975.873 207.047V210.967H973.886Z" fill="#EEEEF0"/>
<rect y="33.6168" width="127.494" height="62.8221" fill="#0F0F11"/>
<path d="M35.4929 59.028V48.628H42.4796V50.2546H37.5196V52.7213H41.3596V54.2413H37.5196V57.388H42.5596V59.028H35.4929ZM43.3652 59.028V58.948L45.8319 54.8413L43.6319 51.108V51.028H45.7786L47.1519 53.508H47.4452L48.7786 51.028H50.7519V51.108L48.6586 54.8013L51.0852 58.948V59.028H48.8986L47.2852 56.108H46.9919L45.4052 59.028H43.3652ZM53.4144 59.028C53.21 58.788 53.0455 58.4991 52.9211 58.1613C52.8055 57.8235 52.7477 57.3168 52.7477 56.6413V52.4413H51.6544V51.028H52.7744V49.028H54.7077V51.028H56.0277V52.4413H54.7211V56.4146C54.7211 57.1257 54.8011 57.668 54.9611 58.0413C55.1211 58.4057 55.3122 58.708 55.5344 58.948V59.028H53.4144ZM60.7196 59.228C59.484 59.228 58.5418 58.8502 57.8929 58.0946C57.244 57.3302 56.9196 56.3035 56.9196 55.0146C56.9196 54.1524 57.0618 53.4102 57.3463 52.788C57.6396 52.1657 58.0663 51.6857 58.6263 51.348C59.1952 51.0013 59.8885 50.828 60.7063 50.828C61.8707 50.828 62.7596 51.188 63.3729 51.908C63.9952 52.6191 64.3063 53.668 64.3063 55.0546V55.4946H58.8529C58.8974 56.1968 59.0796 56.7568 59.3996 57.1746C59.7196 57.5924 60.164 57.8013 60.7329 57.8013C61.1685 57.8013 61.5196 57.6724 61.7863 57.4146C62.0529 57.1568 62.2352 56.8413 62.3329 56.468H64.2129C64.124 56.9657 63.9418 57.4235 63.6663 57.8413C63.3907 58.2591 63.0085 58.5968 62.5196 58.8546C62.0396 59.1035 61.4396 59.228 60.7196 59.228ZM58.8529 54.2146H62.3863C62.3507 53.5746 62.1863 53.0768 61.8929 52.7213C61.6085 52.3657 61.2085 52.188 60.6929 52.188C60.1685 52.188 59.7463 52.3613 59.4263 52.708C59.1152 53.0457 58.924 53.548 58.8529 54.2146ZM65.7677 59.028V51.028H67.5677V52.468H67.8877C67.9411 52.2102 68.0388 51.9657 68.1811 51.7346C68.3233 51.5035 68.5455 51.3168 68.8477 51.1746C69.15 51.0235 69.5588 50.948 70.0744 50.948H70.4611V52.748H69.9144C69.15 52.748 68.5988 52.9435 68.2611 53.3346C67.9233 53.7257 67.7544 54.3168 67.7544 55.108V59.028H65.7677ZM71.8904 59.028V51.028H73.7171V52.228H74.0371C74.1882 51.8191 74.4371 51.4857 74.7838 51.228C75.1304 50.9613 75.6193 50.828 76.2504 50.828C77.1482 50.828 77.8149 51.1124 78.2504 51.6813C78.6949 52.2413 78.9171 52.9924 78.9171 53.9346V59.028H76.9304V54.2813C76.9304 53.6946 76.8238 53.2457 76.6104 52.9346C76.406 52.6146 76.0727 52.4546 75.6104 52.4546C75.0593 52.4546 74.6327 52.6724 74.3304 53.108C74.0282 53.5346 73.8771 54.068 73.8771 54.708V59.028H71.8904ZM83.5659 59.2013C82.837 59.2013 82.2325 59.0235 81.7525 58.668C81.2725 58.3035 80.9125 57.8102 80.6725 57.188C80.4414 56.5568 80.3259 55.8324 80.3259 55.0146C80.3259 54.1791 80.4459 53.4502 80.6859 52.828C80.9259 52.2057 81.2859 51.7213 81.7659 51.3746C82.2459 51.028 82.8459 50.8546 83.5659 50.8546C84.1347 50.8546 84.597 50.9702 84.9525 51.2013C85.317 51.4235 85.5881 51.7124 85.7659 52.068H86.0859V51.028H87.9125V59.028H86.0859V57.988H85.7659C85.5881 58.3168 85.3214 58.6013 84.9659 58.8413C84.6103 59.0813 84.1436 59.2013 83.5659 59.2013ZM84.0592 57.7613C84.6281 57.7613 85.0814 57.5124 85.4192 57.0146C85.7659 56.5168 85.9392 55.8546 85.9392 55.028C85.9392 54.1924 85.7659 53.5302 85.4192 53.0413C85.0814 52.5435 84.6281 52.2946 84.0592 52.2946C83.5259 52.2946 83.1081 52.5257 82.8059 52.988C82.5125 53.4502 82.3659 54.1302 82.3659 55.028C82.3659 55.9257 82.5125 56.6057 82.8059 57.068C83.1081 57.5302 83.5259 57.7613 84.0592 57.7613ZM90.6086 59.028C90.3686 58.7524 90.1952 58.4368 90.0886 58.0813C89.9819 57.7257 89.9286 57.2457 89.9286 56.6413V48.3613H91.9152V56.428C91.9152 57.1124 91.9908 57.6413 92.1419 58.0146C92.293 58.3791 92.4886 58.6902 92.7286 58.948V59.028H90.6086ZM24.6961 83.028V72.628H26.6961V76.7213H27.4961L30.6161 72.628H32.8827V72.708L29.1894 77.4546L33.4161 82.948V83.028H30.9627L27.4961 78.3746H26.6961V83.028H24.6961ZM36.6177 83.228C35.7111 83.228 35.0355 82.948 34.5911 82.388C34.1466 81.8191 33.9244 81.0635 33.9244 80.1213V75.028H35.9111V79.7746C35.9111 80.3524 36.0133 80.8013 36.2177 81.1213C36.4311 81.4413 36.7644 81.6013 37.2177 81.6013C37.7777 81.6013 38.2088 81.3835 38.5111 80.948C38.8133 80.5124 38.9644 79.9791 38.9644 79.348V75.028H40.9511V83.028H39.1644V81.828H38.8444C38.7111 82.2368 38.4622 82.5746 38.0977 82.8413C37.7422 83.0991 37.2488 83.228 36.6177 83.228ZM47.3731 83.2013C46.7776 83.2013 46.2976 83.0813 45.9331 82.8413C45.5776 82.6013 45.3154 82.3168 45.1465 81.988H44.8265V83.028H42.9998V72.3613H44.9865V75.9213H45.3065C45.4931 75.6013 45.7554 75.3435 46.0931 75.148C46.4309 74.9524 46.862 74.8546 47.3865 74.8546C48.0887 74.8546 48.6754 75.028 49.1465 75.3746C49.6265 75.7213 49.9865 76.2057 50.2265 76.828C50.4665 77.4502 50.5865 78.1791 50.5865 79.0146C50.5865 79.8324 50.4665 80.5568 50.2265 81.188C49.9954 81.8102 49.6398 82.3035 49.1598 82.668C48.6887 83.0235 48.0931 83.2013 47.3731 83.2013ZM46.8531 81.7613C47.3865 81.7613 47.7998 81.5302 48.0931 81.068C48.3865 80.6057 48.5331 79.9257 48.5331 79.028C48.5331 78.1302 48.3865 77.4502 48.0931 76.988C47.7998 76.5257 47.3865 76.2946 46.8531 76.2946C46.2843 76.2946 45.8265 76.5435 45.4798 77.0413C45.142 77.5302 44.9731 78.1924 44.9731 79.028C44.9731 79.8546 45.142 80.5168 45.4798 81.0146C45.8265 81.5124 46.2843 81.7613 46.8531 81.7613ZM55.3759 83.228C54.1403 83.228 53.1981 82.8502 52.5492 82.0946C51.9003 81.3302 51.5759 80.3035 51.5759 79.0146C51.5759 78.1524 51.7181 77.4102 52.0025 76.788C52.2959 76.1657 52.7225 75.6857 53.2825 75.348C53.8514 75.0013 54.5447 74.828 55.3625 74.828C56.527 74.828 57.4159 75.188 58.0292 75.908C58.6514 76.6191 58.9625 77.668 58.9625 79.0546V79.4946H53.5092C53.5536 80.1968 53.7359 80.7568 54.0559 81.1746C54.3759 81.5924 54.8203 81.8013 55.3892 81.8013C55.8247 81.8013 56.1759 81.6724 56.4425 81.4146C56.7092 81.1568 56.8914 80.8413 56.9892 80.468H58.8692C58.7803 80.9657 58.5981 81.4235 58.3225 81.8413C58.047 82.2591 57.6647 82.5968 57.1759 82.8546C56.6959 83.1035 56.0959 83.228 55.3759 83.228ZM53.5092 78.2146H57.0425C57.007 77.5746 56.8425 77.0768 56.5492 76.7213C56.2647 76.3657 55.8647 76.188 55.3492 76.188C54.8247 76.188 54.4025 76.3613 54.0825 76.708C53.7714 77.0457 53.5803 77.548 53.5092 78.2146ZM60.424 83.028V75.028H62.224V76.468H62.544C62.5973 76.2102 62.6951 75.9657 62.8373 75.7346C62.9795 75.5035 63.2018 75.3168 63.504 75.1746C63.8062 75.0235 64.2151 74.948 64.7306 74.948H65.1173V76.748H64.5706C63.8062 76.748 63.2551 76.9435 62.9173 77.3346C62.5795 77.7257 62.4106 78.3168 62.4106 79.108V83.028H60.424ZM66.5467 83.028V75.028H68.3734V76.228H68.6934C68.8445 75.8191 69.0934 75.4857 69.44 75.228C69.7867 74.9613 70.2756 74.828 70.9067 74.828C71.8045 74.828 72.4711 75.1124 72.9067 75.6813C73.3511 76.2413 73.5734 76.9924 73.5734 77.9346V83.028H71.5867V78.2813C71.5867 77.6946 71.48 77.2457 71.2667 76.9346C71.0622 76.6146 70.7289 76.4546 70.2667 76.4546C69.7156 76.4546 69.2889 76.6724 68.9867 77.108C68.6845 77.5346 68.5334 78.068 68.5334 78.708V83.028H66.5467ZM78.7821 83.228C77.5465 83.228 76.6043 82.8502 75.9554 82.0946C75.3065 81.3302 74.9821 80.3035 74.9821 79.0146C74.9821 78.1524 75.1243 77.4102 75.4088 76.788C75.7021 76.1657 76.1288 75.6857 76.6888 75.348C77.2577 75.0013 77.951 74.828 78.7688 74.828C79.9332 74.828 80.8221 75.188 81.4354 75.908C82.0577 76.6191 82.3688 77.668 82.3688 79.0546V79.4946H76.9154C76.9599 80.1968 77.1421 80.7568 77.4621 81.1746C77.7821 81.5924 78.2265 81.8013 78.7954 81.8013C79.231 81.8013 79.5821 81.6724 79.8488 81.4146C80.1154 81.1568 80.2977 80.8413 80.3954 80.468H82.2754C82.1865 80.9657 82.0043 81.4235 81.7288 81.8413C81.4532 82.2591 81.071 82.5968 80.5821 82.8546C80.1021 83.1035 79.5021 83.228 78.7821 83.228ZM76.9154 78.2146H80.4488C80.4132 77.5746 80.2488 77.0768 79.9554 76.7213C79.671 76.3657 79.271 76.188 78.7554 76.188C78.231 76.188 77.8088 76.3613 77.4888 76.708C77.1777 77.0457 76.9865 77.548 76.9154 78.2146ZM84.9769 83.028C84.7725 82.788 84.608 82.4991 84.4836 82.1613C84.368 81.8235 84.3102 81.3168 84.3102 80.6413V76.4413H83.2169V75.028H84.3369V73.028H86.2702V75.028H87.5902V76.4413H86.2836V80.4146C86.2836 81.1257 86.3636 81.668 86.5236 82.0413C86.6836 82.4057 86.8747 82.708 87.0969 82.948V83.028H84.9769ZM92.2821 83.228C91.0465 83.228 90.1043 82.8502 89.4554 82.0946C88.8065 81.3302 88.4821 80.3035 88.4821 79.0146C88.4821 78.1524 88.6243 77.4102 88.9088 76.788C89.2021 76.1657 89.6288 75.6857 90.1888 75.348C90.7577 75.0013 91.451 74.828 92.2688 74.828C93.4332 74.828 94.3221 75.188 94.9354 75.908C95.5577 76.6191 95.8688 77.668 95.8688 79.0546V79.4946H90.4154C90.4599 80.1968 90.6421 80.7568 90.9621 81.1746C91.2821 81.5924 91.7265 81.8013 92.2954 81.8013C92.731 81.8013 93.0821 81.6724 93.3488 81.4146C93.6154 81.1568 93.7977 80.8413 93.8954 80.468H95.7754C95.6865 80.9657 95.5043 81.4235 95.2288 81.8413C94.9532 82.2591 94.571 82.5968 94.0821 82.8546C93.6021 83.1035 93.0021 83.228 92.2821 83.228ZM90.4154 78.2146H93.9488C93.9132 77.5746 93.7488 77.0768 93.4554 76.7213C93.171 76.3657 92.771 76.188 92.2554 76.188C91.731 76.188 91.3088 76.3613 90.9888 76.708C90.6777 77.0457 90.4865 77.548 90.4154 78.2146ZM100.237 83.228C99.3836 83.228 98.6991 83.0902 98.1836 82.8146C97.668 82.5391 97.2858 82.188 97.0369 81.7613C96.7969 81.3346 96.6636 80.9035 96.6369 80.468H98.5302C98.5658 80.708 98.6547 80.9302 98.7969 81.1346C98.948 81.3391 99.148 81.5035 99.3969 81.628C99.6547 81.7435 99.9658 81.8013 100.33 81.8013C100.766 81.8013 101.086 81.7213 101.29 81.5613C101.495 81.4013 101.597 81.1968 101.597 80.948C101.597 80.7168 101.508 80.5213 101.33 80.3613C101.152 80.2013 100.864 80.0546 100.464 79.9213L99.5036 79.6013C99.0502 79.4413 98.6325 79.268 98.2502 79.0813C97.8769 78.8857 97.5747 78.6368 97.3436 78.3346C97.1213 78.0324 97.0102 77.6457 97.0102 77.1746C97.0102 76.4724 97.2725 75.908 97.7969 75.4813C98.3302 75.0457 99.0769 74.828 100.037 74.828C100.73 74.828 101.299 74.9391 101.744 75.1613C102.188 75.3746 102.521 75.668 102.744 76.0413C102.975 76.4057 103.108 76.8146 103.144 77.268H101.317C101.272 76.9391 101.139 76.6768 100.917 76.4813C100.695 76.2857 100.375 76.188 99.9569 76.188C99.5925 76.188 99.3169 76.2635 99.1302 76.4146C98.9436 76.5568 98.8502 76.7524 98.8502 77.0013C98.8502 77.2502 98.948 77.4546 99.1436 77.6146C99.3391 77.7746 99.6325 77.9213 100.024 78.0546L100.984 78.3746C101.437 78.5168 101.85 78.6857 102.224 78.8813C102.597 79.068 102.895 79.3124 103.117 79.6146C103.339 79.9168 103.45 80.308 103.45 80.788C103.45 81.5168 103.175 82.108 102.624 82.5613C102.072 83.0057 101.277 83.228 100.237 83.228Z" fill="#EEEEF0"/>
<rect y="161.523" width="127.449" height="62.9153" fill="#0F0F11"/>
<path d="M35.4929 188.01V177.61H42.4796V179.237H37.5196V181.704H41.3596V183.224H37.5196V186.37H42.5596V188.01H35.4929ZM43.3652 188.01V187.93L45.8319 183.824L43.6319 180.09V180.01H45.7786L47.1519 182.49H47.4452L48.7786 180.01H50.7519V180.09L48.6586 183.784L51.0852 187.93V188.01H48.8986L47.2852 185.09H46.9919L45.4052 188.01H43.3652ZM53.4144 188.01C53.21 187.77 53.0455 187.481 52.9211 187.144C52.8055 186.806 52.7477 186.299 52.7477 185.624V181.424H51.6544V180.01H52.7744V178.01H54.7077V180.01H56.0277V181.424H54.7211V185.397C54.7211 186.108 54.8011 186.65 54.9611 187.024C55.1211 187.388 55.3122 187.69 55.5344 187.93V188.01H53.4144ZM60.7196 188.21C59.484 188.21 58.5418 187.833 57.8929 187.077C57.244 186.313 56.9196 185.286 56.9196 183.997C56.9196 183.135 57.0618 182.393 57.3463 181.77C57.6396 181.148 58.0663 180.668 58.6263 180.33C59.1952 179.984 59.8885 179.81 60.7063 179.81C61.8707 179.81 62.7596 180.17 63.3729 180.89C63.9952 181.601 64.3063 182.65 64.3063 184.037V184.477H58.8529C58.8974 185.179 59.0796 185.739 59.3996 186.157C59.7196 186.575 60.164 186.784 60.7329 186.784C61.1685 186.784 61.5196 186.655 61.7863 186.397C62.0529 186.139 62.2352 185.824 62.3329 185.45H64.2129C64.124 185.948 63.9418 186.406 63.6663 186.824C63.3907 187.241 63.0085 187.579 62.5196 187.837C62.0396 188.086 61.4396 188.21 60.7196 188.21ZM58.8529 183.197H62.3863C62.3507 182.557 62.1863 182.059 61.8929 181.704C61.6085 181.348 61.2085 181.17 60.6929 181.17C60.1685 181.17 59.7463 181.344 59.4263 181.69C59.1152 182.028 58.924 182.53 58.8529 183.197ZM65.7677 188.01V180.01H67.5677V181.45H67.8877C67.9411 181.193 68.0388 180.948 68.1811 180.717C68.3233 180.486 68.5455 180.299 68.8477 180.157C69.15 180.006 69.5588 179.93 70.0744 179.93H70.4611V181.73H69.9144C69.15 181.73 68.5988 181.926 68.2611 182.317C67.9233 182.708 67.7544 183.299 67.7544 184.09V188.01H65.7677ZM71.8904 188.01V180.01H73.7171V181.21H74.0371C74.1882 180.801 74.4371 180.468 74.7838 180.21C75.1304 179.944 75.6193 179.81 76.2504 179.81C77.1482 179.81 77.8149 180.095 78.2504 180.664C78.6949 181.224 78.9171 181.975 78.9171 182.917V188.01H76.9304V183.264C76.9304 182.677 76.8238 182.228 76.6104 181.917C76.406 181.597 76.0727 181.437 75.6104 181.437C75.0593 181.437 74.6327 181.655 74.3304 182.09C74.0282 182.517 73.8771 183.05 73.8771 183.69V188.01H71.8904ZM83.5659 188.184C82.837 188.184 82.2325 188.006 81.7525 187.65C81.2725 187.286 80.9125 186.793 80.6725 186.17C80.4414 185.539 80.3259 184.815 80.3259 183.997C80.3259 183.161 80.4459 182.433 80.6859 181.81C80.9259 181.188 81.2859 180.704 81.7659 180.357C82.2459 180.01 82.8459 179.837 83.5659 179.837C84.1347 179.837 84.597 179.953 84.9525 180.184C85.317 180.406 85.5881 180.695 85.7659 181.05H86.0859V180.01H87.9125V188.01H86.0859V186.97H85.7659C85.5881 187.299 85.3214 187.584 84.9659 187.824C84.6103 188.064 84.1436 188.184 83.5659 188.184ZM84.0592 186.744C84.6281 186.744 85.0814 186.495 85.4192 185.997C85.7659 185.499 85.9392 184.837 85.9392 184.01C85.9392 183.175 85.7659 182.513 85.4192 182.024C85.0814 181.526 84.6281 181.277 84.0592 181.277C83.5259 181.277 83.1081 181.508 82.8059 181.97C82.5125 182.433 82.3659 183.113 82.3659 184.01C82.3659 184.908 82.5125 185.588 82.8059 186.05C83.1081 186.513 83.5259 186.744 84.0592 186.744ZM90.6086 188.01C90.3686 187.735 90.1952 187.419 90.0886 187.064C89.9819 186.708 89.9286 186.228 89.9286 185.624V177.344H91.9152V185.41C91.9152 186.095 91.9908 186.624 92.1419 186.997C92.293 187.361 92.4886 187.673 92.7286 187.93V188.01H90.6086ZM30.8422 212.01V201.61H32.8955V212.01H30.8422ZM34.992 212.01V204.01H36.8187V205.21H37.1387C37.2898 204.801 37.5387 204.468 37.8853 204.21C38.232 203.944 38.7209 203.81 39.352 203.81C40.2498 203.81 40.9164 204.095 41.352 204.664C41.7964 205.224 42.0187 205.975 42.0187 206.917V212.01H40.032V207.264C40.032 206.677 39.9253 206.228 39.712 205.917C39.5076 205.597 39.1742 205.437 38.712 205.437C38.1609 205.437 37.7342 205.655 37.432 206.09C37.1298 206.517 36.9787 207.05 36.9787 207.69V212.01H34.992ZM46.8541 212.21C46.0007 212.21 45.3163 212.073 44.8007 211.797C44.2852 211.521 43.903 211.17 43.6541 210.744C43.4141 210.317 43.2807 209.886 43.2541 209.45H45.1474C45.183 209.69 45.2719 209.913 45.4141 210.117C45.5652 210.321 45.7652 210.486 46.0141 210.61C46.2719 210.726 46.583 210.784 46.9474 210.784C47.383 210.784 47.703 210.704 47.9074 210.544C48.1119 210.384 48.2141 210.179 48.2141 209.93C48.2141 209.699 48.1252 209.504 47.9474 209.344C47.7696 209.184 47.4807 209.037 47.0807 208.904L46.1207 208.584C45.6674 208.424 45.2496 208.25 44.8674 208.064C44.4941 207.868 44.1919 207.619 43.9607 207.317C43.7385 207.015 43.6274 206.628 43.6274 206.157C43.6274 205.455 43.8896 204.89 44.4141 204.464C44.9474 204.028 45.6941 203.81 46.6541 203.81C47.3474 203.81 47.9163 203.921 48.3607 204.144C48.8052 204.357 49.1385 204.65 49.3607 205.024C49.5919 205.388 49.7252 205.797 49.7607 206.25H47.9341C47.8896 205.921 47.7563 205.659 47.5341 205.464C47.3119 205.268 46.9919 205.17 46.5741 205.17C46.2096 205.17 45.9341 205.246 45.7474 205.397C45.5607 205.539 45.4674 205.735 45.4674 205.984C45.4674 206.233 45.5652 206.437 45.7607 206.597C45.9563 206.757 46.2496 206.904 46.6407 207.037L47.6007 207.357C48.0541 207.499 48.4674 207.668 48.8407 207.864C49.2141 208.05 49.5119 208.295 49.7341 208.597C49.9563 208.899 50.0674 209.29 50.0674 209.77C50.0674 210.499 49.7919 211.09 49.2407 211.544C48.6896 211.988 47.8941 212.21 46.8541 212.21ZM52.5941 212.01C52.3896 211.77 52.2252 211.481 52.1007 211.144C51.9852 210.806 51.9274 210.299 51.9274 209.624V205.424H50.8341V204.01H51.9541V202.01H53.8874V204.01H55.2074V205.424H53.9007V209.397C53.9007 210.108 53.9807 210.65 54.1407 211.024C54.3007 211.388 54.4919 211.69 54.7141 211.93V212.01H52.5941ZM59.3393 212.184C58.6104 212.184 58.006 212.006 57.526 211.65C57.046 211.286 56.686 210.793 56.446 210.17C56.2148 209.539 56.0993 208.815 56.0993 207.997C56.0993 207.161 56.2193 206.433 56.4593 205.81C56.6993 205.188 57.0593 204.704 57.5393 204.357C58.0193 204.01 58.6193 203.837 59.3393 203.837C59.9082 203.837 60.3704 203.953 60.726 204.184C61.0904 204.406 61.3615 204.695 61.5393 205.05H61.8593V204.01H63.686V212.01H61.8593V210.97H61.5393C61.3615 211.299 61.0948 211.584 60.7393 211.824C60.3837 212.064 59.9171 212.184 59.3393 212.184ZM59.8326 210.744C60.4015 210.744 60.8548 210.495 61.1926 209.997C61.5393 209.499 61.7126 208.837 61.7126 208.01C61.7126 207.175 61.5393 206.513 61.1926 206.024C60.8548 205.526 60.4015 205.277 59.8326 205.277C59.2993 205.277 58.8815 205.508 58.5793 205.97C58.286 206.433 58.1393 207.113 58.1393 208.01C58.1393 208.908 58.286 209.588 58.5793 210.05C58.8815 210.513 59.2993 210.744 59.8326 210.744ZM65.742 212.01V204.01H67.5687V205.21H67.8887C68.0398 204.801 68.2887 204.468 68.6353 204.21C68.982 203.944 69.4709 203.81 70.102 203.81C70.9998 203.81 71.6664 204.095 72.102 204.664C72.5464 205.224 72.7687 205.975 72.7687 206.917V212.01H70.782V207.264C70.782 206.677 70.6753 206.228 70.462 205.917C70.2576 205.597 69.9242 205.437 69.462 205.437C68.9109 205.437 68.4842 205.655 68.182 206.09C67.8798 206.517 67.7287 207.05 67.7287 207.69V212.01H65.742ZM77.8974 212.21C76.6796 212.21 75.7552 211.833 75.1241 211.077C74.493 210.313 74.1774 209.29 74.1774 208.01C74.1774 206.668 74.5063 205.633 75.1641 204.904C75.8307 204.175 76.7463 203.81 77.9107 203.81C78.9419 203.81 79.7552 204.086 80.3507 204.637C80.9463 205.188 81.3019 205.944 81.4174 206.904H79.4707C79.4085 206.37 79.2441 205.961 78.9774 205.677C78.7107 205.384 78.3641 205.237 77.9374 205.237C77.3774 205.237 76.9507 205.481 76.6574 205.97C76.3641 206.45 76.2174 207.13 76.2174 208.01C76.2174 208.89 76.3596 209.57 76.6441 210.05C76.9374 210.53 77.3641 210.77 77.9241 210.77C78.3596 210.77 78.7107 210.628 78.9774 210.344C79.2441 210.05 79.4085 209.637 79.4707 209.104H81.4174C81.293 210.064 80.9285 210.824 80.3241 211.384C79.7285 211.935 78.9196 212.21 77.8974 212.21ZM86.1493 212.21C84.9137 212.21 83.9715 211.833 83.3226 211.077C82.6737 210.313 82.3493 209.286 82.3493 207.997C82.3493 207.135 82.4915 206.393 82.776 205.77C83.0693 205.148 83.496 204.668 84.056 204.33C84.6248 203.984 85.3182 203.81 86.136 203.81C87.3004 203.81 88.1893 204.17 88.8026 204.89C89.4248 205.601 89.736 206.65 89.736 208.037V208.477H84.2826C84.3271 209.179 84.5093 209.739 84.8293 210.157C85.1493 210.575 85.5937 210.784 86.1626 210.784C86.5982 210.784 86.9493 210.655 87.216 210.397C87.4826 210.139 87.6648 209.824 87.7626 209.45H89.6426C89.5537 209.948 89.3715 210.406 89.096 210.824C88.8204 211.241 88.4382 211.579 87.9493 211.837C87.4693 212.086 86.8693 212.21 86.1493 212.21ZM84.2826 207.197H87.816C87.7804 206.557 87.616 206.059 87.3226 205.704C87.0382 205.348 86.6382 205.17 86.1226 205.17C85.5982 205.17 85.176 205.344 84.856 205.69C84.5448 206.028 84.3537 206.53 84.2826 207.197ZM94.1041 212.21C93.2507 212.21 92.5663 212.073 92.0507 211.797C91.5352 211.521 91.153 211.17 90.9041 210.744C90.6641 210.317 90.5307 209.886 90.5041 209.45H92.3974C92.433 209.69 92.5219 209.913 92.6641 210.117C92.8152 210.321 93.0152 210.486 93.2641 210.61C93.5219 210.726 93.833 210.784 94.1974 210.784C94.633 210.784 94.953 210.704 95.1574 210.544C95.3619 210.384 95.4641 210.179 95.4641 209.93C95.4641 209.699 95.3752 209.504 95.1974 209.344C95.0196 209.184 94.7307 209.037 94.3307 208.904L93.3707 208.584C92.9174 208.424 92.4996 208.25 92.1174 208.064C91.7441 207.868 91.4419 207.619 91.2107 207.317C90.9885 207.015 90.8774 206.628 90.8774 206.157C90.8774 205.455 91.1396 204.89 91.6641 204.464C92.1974 204.028 92.9441 203.81 93.9041 203.81C94.5974 203.81 95.1663 203.921 95.6107 204.144C96.0552 204.357 96.3885 204.65 96.6107 205.024C96.8419 205.388 96.9752 205.797 97.0107 206.25H95.1841C95.1396 205.921 95.0063 205.659 94.7841 205.464C94.5619 205.268 94.2419 205.17 93.8241 205.17C93.4596 205.17 93.1841 205.246 92.9974 205.397C92.8107 205.539 92.7174 205.735 92.7174 205.984C92.7174 206.233 92.8152 206.437 93.0107 206.597C93.2063 206.757 93.4996 206.904 93.8907 207.037L94.8507 207.357C95.3041 207.499 95.7174 207.668 96.0907 207.864C96.4641 208.05 96.7619 208.295 96.9841 208.597C97.2063 208.899 97.3174 209.29 97.3174 209.77C97.3174 210.499 97.0419 211.09 96.4907 211.544C95.9396 211.988 95.1441 212.21 94.1041 212.21Z" fill="#EEEEF0"/>
<defs>
<linearGradient id="paint0_linear_1278_46067" x1="496.563" y1="47.9364" x2="871.578" y2="47.9365" gradientUnits="userSpaceOnUse">
<stop offset="0.7" stop-color="#3B82F6"/>
<stop offset="1" stop-color="#3B82F6" stop-opacity="0"/>
</linearGradient>
<linearGradient id="paint1_linear_1278_46067" x1="496.84" y1="81.2311" x2="116.967" y2="81.2311" gradientUnits="userSpaceOnUse">
<stop offset="0.7" stop-color="#3B82F6"/>
<stop offset="1" stop-color="#3B82F6" stop-opacity="0"/>
</linearGradient>
<linearGradient id="paint2_linear_1278_46067" x1="496.84" y1="257.571" x2="704.142" y2="257.571" gradientUnits="userSpaceOnUse">
<stop offset="0.65" stop-color="#3B82F6"/>
<stop offset="1" stop-color="#3B82F6" stop-opacity="0"/>
</linearGradient>
<linearGradient id="paint3_linear_1278_46067" x1="496.84" y1="257.569" x2="265.714" y2="257.569" gradientUnits="userSpaceOnUse">
<stop offset="0.830838" stop-color="#3B82F6"/>
<stop offset="1" stop-color="#3B82F6" stop-opacity="0"/>
</linearGradient>
<linearGradient id="paint4_linear_1278_46067" x1="529.811" y1="192.51" x2="864.512" y2="192.51" gradientUnits="userSpaceOnUse">
<stop offset="0.706363" stop-color="#3B82F6"/>
<stop offset="1" stop-color="#3B82F6" stop-opacity="0"/>
</linearGradient>
<linearGradient id="paint5_linear_1278_46067" x1="124.311" y1="192.51" x2="465.406" y2="192.51" gradientUnits="userSpaceOnUse">
<stop stop-color="#3B82F6" stop-opacity="0"/>
<stop offset="0.55" stop-color="#3B82F6"/>
</linearGradient>
<linearGradient id="paint6_linear_1278_46067" x1="545.146" y1="128.288" x2="736.504" y2="128.288" gradientUnits="userSpaceOnUse">
<stop offset="0.579938" stop-color="#3B82F6"/>
<stop offset="1" stop-color="#3B82F6" stop-opacity="0"/>
</linearGradient>
<linearGradient id="paint7_linear_1278_46067" x1="263.305" y1="128.288" x2="447.98" y2="128.288" gradientUnits="userSpaceOnUse">
<stop stop-color="#3B82F6" stop-opacity="0"/>
<stop offset="0.420062" stop-color="#3B82F6"/>
</linearGradient>
<linearGradient id="paint8_linear_1278_46067" x1="607.559" y1="0.582886" x2="607.559" y2="320.98" gradientUnits="userSpaceOnUse">
<stop stop-color="#3B82F6" stop-opacity="0"/>
<stop offset="0.505" stop-color="#3B82F6"/>
<stop offset="1" stop-color="#3B82F6" stop-opacity="0"/>
</linearGradient>
<linearGradient id="paint9_linear_1278_46067" x1="415.539" y1="-4.73644" x2="415.539" y2="316.256" gradientUnits="userSpaceOnUse">
<stop stop-color="#3B82F6" stop-opacity="0"/>
<stop offset="0.505" stop-color="#3B82F6"/>
<stop offset="1" stop-color="#3B82F6" stop-opacity="0"/>
</linearGradient>
<linearGradient id="paint10_linear_1278_46067" x1="671.684" y1="63.7874" x2="671.684" y2="191.761" gradientUnits="userSpaceOnUse">
<stop stop-color="#3B82F6" stop-opacity="0"/>
<stop offset="0.535" stop-color="#3B82F6"/>
<stop offset="1" stop-color="#3B82F6" stop-opacity="0"/>
</linearGradient>
<linearGradient id="paint11_linear_1278_46067" x1="351.465" y1="33.0784" x2="351.465" y2="288.919" gradientUnits="userSpaceOnUse">
<stop stop-color="#3B82F6" stop-opacity="0"/>
<stop offset="0.535" stop-color="#3B82F6"/>
<stop offset="1" stop-color="#3B82F6" stop-opacity="0"/>
</linearGradient>
</defs>
</svg>
