<svg width="1024" height="322" viewBox="0 0 1024 322" fill="none" xmlns="http://www.w3.org/2000/svg">
<path d="M496.562 64.9503L864.592 64.9516" stroke="url(#paint0_linear_1278_39534)" stroke-width="2"/>
<path d="M496.84 64.9509L127.478 64.951" stroke="url(#paint1_linear_1278_39534)" stroke-width="2"/>
<path d="M496.84 257.57L704.142 257.57" stroke="url(#paint2_linear_1278_39534)" stroke-width="2"/>
<path d="M496.839 257.569L255.361 257.57" stroke="url(#paint3_linear_1278_39534)" stroke-width="2"/>
<path d="M864.511 192.51L532.889 192.51" stroke="url(#paint4_linear_1278_39534)" stroke-width="2"/>
<path d="M465.406 192.51L127.449 192.51" stroke="url(#paint5_linear_1278_39534)" stroke-width="2"/>
<path d="M736.503 128.788L545.145 128.788" stroke="url(#paint6_linear_1278_39534)" stroke-width="2"/>
<path d="M447.979 128.788L263.303 128.788" stroke="url(#paint7_linear_1278_39534)" stroke-width="2"/>
<path d="M608.058 0.582947L608.058 320.98" stroke="url(#paint8_linear_1278_39534)" stroke-width="2"/>
<path d="M416.04 1.55347L416.04 321.417" stroke="url(#paint9_linear_1278_39534)" stroke-width="2"/>
<path d="M672.182 63.7874L672.182 191.761" stroke="url(#paint10_linear_1278_39534)" stroke-width="2"/>
<path d="M351.965 33.0784L351.965 288.919" stroke="url(#paint11_linear_1278_39534)" stroke-width="2"/>
<circle cx="672.182" cy="128.788" r="6.25" fill="#2563EB"/>
<circle cx="351.09" cy="128.788" r="6.25" fill="#2563EB"/>
<path d="M552.78 148.553V100.746C552.78 96.3281 549.198 92.7598 544.78 92.7598H497.464H450.148C445.73 92.7598 442.149 96.333 442.148 100.751C442.148 109.445 442.148 125.289 442.149 148.553C442.149 186.131 461.823 199.011 497.464 218.76C532.208 201.445 552.78 188.076 552.78 148.553Z" fill="#3B82F6"/>
<path fill-rule="evenodd" clip-rule="evenodd" d="M501.629 118.797L495.557 117.284C496.011 117.284 496.499 117.248 497.048 117.208C497.757 117.155 498.569 117.095 499.547 117.095C503.19 117.095 506.139 118.419 508.914 120.12C509.298 120.329 509.629 120.77 509.965 121.217C510.237 121.58 510.512 121.946 510.823 122.2C512.21 122.767 513.598 123.145 514.986 122.956V122.389C516.547 122.767 518.108 124.658 518.108 125.981H510.996C510.823 125.981 510.476 126.171 510.302 126.36C510.476 126.549 510.823 126.927 510.996 126.927C511.324 126.927 511.68 126.916 512.057 126.905C513.275 126.869 514.701 126.827 516.027 127.116C516.003 127.16 515.977 127.206 515.951 127.254C515.41 128.247 514.409 130.08 513.251 128.818C513.251 128.439 506.486 128.628 504.751 129.007C504.404 129.007 504.057 129.763 504.231 130.141C505.008 132.197 506.849 133.48 508.575 134.681C509.547 135.358 510.482 136.009 511.17 136.758C516.027 140.918 517.588 144.699 516.547 151.884C513.94 163.082 509.842 164.972 501.857 168.656C500.809 169.139 499.694 169.654 498.506 170.224C495.557 171.737 493.822 175.329 494.343 178.921C495.557 186.673 506.833 188.753 509.088 179.677C509.782 176.085 508.914 170.98 502.669 169.468C505.445 168.144 508.047 166.632 510.476 164.93C510.823 164.552 511.17 164.552 511.516 164.93C518.455 171.926 520.19 184.782 508.741 192.345C500.588 197.261 490.353 193.101 487.057 183.648C483.761 174.005 488.965 163.606 498.159 161.527C504.751 160.392 511.516 152.829 508.567 145.834C507.258 142.695 503.479 139.556 500.287 136.904C499.25 136.042 498.274 135.232 497.465 134.49C497.008 134.191 496.262 134.259 495.43 134.336C494.683 134.404 493.867 134.479 493.129 134.301C493.475 134.017 493.686 133.735 493.897 133.452C494.108 133.17 494.319 132.888 494.666 132.604C493.105 131.557 492.137 131.413 490.941 131.236C490.41 131.157 489.833 131.072 489.139 130.897C489.659 129.763 491.904 128.442 493.465 128.253C493.418 127.759 493.387 127.333 493.359 126.961C493.189 124.624 493.172 124.398 490.18 122.767C491.96 121.474 493.533 121.76 495.06 122.039C496.659 122.33 498.208 122.613 499.894 121.066C497.812 120.309 495.731 119.553 493.822 118.23C494.8 118.301 495.761 118.489 496.717 118.677C498.307 118.989 499.885 119.299 501.509 119.063L501.629 118.797ZM487.057 167.388C478.73 161.716 478.21 147.346 487.577 141.107C494.516 136.38 502.322 138.082 507.527 146.401C508.221 147.725 508.221 149.804 507.874 151.317C506.486 156.422 503.016 159.258 498.333 160.392C499.72 159.258 500.761 157.556 501.108 155.666C502.669 145.078 487.577 143.943 488.271 155.287C488.098 158.502 490.353 160.77 494.69 161.527C492.435 163.039 490.526 164.363 488.445 167.199C488.098 167.766 487.751 167.766 487.057 167.388ZM484.965 175.591C482.295 176.135 479.479 176.709 476.822 177.976C478.037 172.493 482.373 168.711 487.577 168.711C486.19 170.602 485.496 173.06 485.322 175.518C485.204 175.542 485.085 175.566 484.965 175.591ZM507.345 123.403L507.865 123.971L507.171 124.349C506.824 124.538 506.651 124.349 506.477 124.16C506.13 123.593 507.171 123.214 507.345 123.403Z" fill="white"/>
<circle cx="192.021" cy="192.98" r="6.25" fill="#2563EB"/>
<circle cx="799.998" cy="191.523" r="6.25" fill="#2563EB"/>
<circle cx="192.021" cy="65.7874" r="6.25" fill="#2563EB"/>
<circle cx="416.54" cy="255.569" r="6.25" fill="#2563EB"/>
<circle cx="608.058" cy="257.57" r="6.25" fill="#2563EB"/>
<circle cx="799.997" cy="63.3721" r="6.25" fill="#2563EB"/>
<rect x="864.592" y="33.465" width="126.87" height="62.9707" fill="#FAFAFA"/>
<path d="M904.89 58.9504V48.5504H908.53L910.664 57.3237H911.104L913.264 48.5504H916.904V58.9504H914.97V50.2437H914.624L912.53 58.9504H909.144L907.05 50.2437H906.704V58.9504H904.89ZM922.311 59.1504C921.013 59.1504 920.044 58.7726 919.404 58.017C918.773 57.2526 918.458 56.2304 918.458 54.9504C918.458 53.6704 918.773 52.6526 919.404 51.897C920.044 51.1326 921.013 50.7504 922.311 50.7504C923.609 50.7504 924.578 51.1326 925.218 51.897C925.858 52.6526 926.178 53.6704 926.178 54.9504C926.178 56.2304 925.858 57.2526 925.218 58.017C924.578 58.7726 923.609 59.1504 922.311 59.1504ZM922.311 57.777C922.942 57.777 923.4 57.537 923.684 57.057C923.978 56.5682 924.124 55.8659 924.124 54.9504C924.124 54.0259 923.978 53.3237 923.684 52.8437C923.4 52.3637 922.942 52.1237 922.311 52.1237C921.689 52.1237 921.231 52.3637 920.938 52.8437C920.644 53.3237 920.498 54.0259 920.498 54.9504C920.498 55.8659 920.644 56.5682 920.938 57.057C921.231 57.537 921.689 57.777 922.311 57.777ZM932.067 59.1237C931.472 59.1237 930.992 59.0037 930.627 58.7637C930.272 58.5237 930.01 58.2393 929.841 57.9104H929.521V58.9504H927.694V48.2837H929.681V51.8437H930.001C930.187 51.5237 930.45 51.2659 930.787 51.0704C931.125 50.8748 931.556 50.777 932.081 50.777C932.783 50.777 933.37 50.9504 933.841 51.297C934.321 51.6437 934.681 52.1282 934.921 52.7504C935.161 53.3726 935.281 54.1015 935.281 54.937C935.281 55.7548 935.161 56.4793 934.921 57.1104C934.69 57.7326 934.334 58.2259 933.854 58.5904C933.383 58.9459 932.787 59.1237 932.067 59.1237ZM931.547 57.6837C932.081 57.6837 932.494 57.4526 932.787 56.9904C933.081 56.5282 933.227 55.8482 933.227 54.9504C933.227 54.0526 933.081 53.3726 932.787 52.9104C932.494 52.4482 932.081 52.217 931.547 52.217C930.979 52.217 930.521 52.4659 930.174 52.9637C929.836 53.4526 929.667 54.1148 929.667 54.9504C929.667 55.777 929.836 56.4393 930.174 56.937C930.521 57.4348 930.979 57.6837 931.547 57.6837ZM936.804 58.9504V50.9504H938.79V58.9504H936.804ZM937.79 49.977C937.435 49.977 937.164 49.8837 936.977 49.697C936.79 49.5015 936.697 49.2526 936.697 48.9504C936.697 48.6393 936.79 48.3904 936.977 48.2037C937.164 48.017 937.435 47.9237 937.79 47.9237C938.146 47.9237 938.417 48.017 938.604 48.2037C938.79 48.3904 938.884 48.6393 938.884 48.9504C938.884 49.2526 938.79 49.5015 938.604 49.697C938.417 49.8837 938.146 49.977 937.79 49.977ZM941.49 58.9504C941.25 58.6748 941.077 58.3593 940.97 58.0037C940.864 57.6482 940.81 57.1682 940.81 56.5637V48.2837H942.797V56.3504C942.797 57.0348 942.873 57.5637 943.024 57.937C943.175 58.3015 943.37 58.6126 943.61 58.8704V58.9504H941.49ZM948.195 59.1504C946.96 59.1504 946.017 58.7726 945.369 58.017C944.72 57.2526 944.395 56.2259 944.395 54.937C944.395 54.0748 944.537 53.3326 944.822 52.7104C945.115 52.0882 945.542 51.6082 946.102 51.2704C946.671 50.9237 947.364 50.7504 948.182 50.7504C949.346 50.7504 950.235 51.1104 950.849 51.8304C951.471 52.5415 951.782 53.5904 951.782 54.977V55.417H946.329C946.373 56.1193 946.555 56.6793 946.875 57.097C947.195 57.5148 947.64 57.7237 948.209 57.7237C948.644 57.7237 948.995 57.5948 949.262 57.337C949.529 57.0793 949.711 56.7637 949.809 56.3904H951.689C951.6 56.8882 951.417 57.3459 951.142 57.7637C950.866 58.1815 950.484 58.5193 949.995 58.777C949.515 59.0259 948.915 59.1504 948.195 59.1504ZM946.329 54.137H949.862C949.826 53.497 949.662 52.9993 949.369 52.6437C949.084 52.2882 948.684 52.1104 948.169 52.1104C947.644 52.1104 947.222 52.2837 946.902 52.6304C946.591 52.9682 946.4 53.4704 946.329 54.137ZM901.734 82.9504V72.5504H905.361C907.192 72.5504 908.521 73.0082 909.347 73.9237C910.183 74.8304 910.601 76.1059 910.601 77.7504C910.601 79.3948 910.183 80.6748 909.347 81.5904C908.521 82.497 907.192 82.9504 905.361 82.9504H901.734ZM903.787 81.337H905.227C905.965 81.337 906.574 81.2215 907.054 80.9904C907.534 80.7593 907.89 80.3859 908.121 79.8704C908.361 79.3459 908.481 78.6393 908.481 77.7504C908.481 76.8615 908.361 76.1548 908.121 75.6304C907.89 75.1059 907.534 74.7326 907.054 74.5104C906.574 74.2793 905.965 74.1637 905.227 74.1637H903.787V81.337ZM915.336 83.1504C914.1 83.1504 913.158 82.7726 912.509 82.017C911.86 81.2526 911.536 80.2259 911.536 78.937C911.536 78.0748 911.678 77.3326 911.962 76.7104C912.256 76.0882 912.682 75.6082 913.242 75.2704C913.811 74.9237 914.505 74.7504 915.322 74.7504C916.487 74.7504 917.376 75.1104 917.989 75.8304C918.611 76.5415 918.922 77.5904 918.922 78.977V79.417H913.469C913.514 80.1193 913.696 80.6793 914.016 81.097C914.336 81.5148 914.78 81.7237 915.349 81.7237C915.785 81.7237 916.136 81.5948 916.402 81.337C916.669 81.0793 916.851 80.7637 916.949 80.3904H918.829C918.74 80.8882 918.558 81.3459 918.282 81.7637C918.007 82.1815 917.625 82.5193 917.136 82.777C916.656 83.0259 916.056 83.1504 915.336 83.1504ZM913.469 78.137H917.002C916.967 77.497 916.802 76.9993 916.509 76.6437C916.225 76.2882 915.825 76.1104 915.309 76.1104C914.785 76.1104 914.362 76.2837 914.042 76.6304C913.731 76.9682 913.54 77.4704 913.469 78.137ZM921.75 82.9504L919.417 75.0304V74.9504H921.417L923.203 81.3237H923.523L925.323 74.9504H927.15V75.0304L924.817 82.9504H921.75ZM928.366 82.9504V74.9504H930.353V82.9504H928.366ZM929.353 73.977C928.997 73.977 928.726 73.8837 928.539 73.697C928.353 73.5015 928.259 73.2526 928.259 72.9504C928.259 72.6393 928.353 72.3904 928.539 72.2037C928.726 72.017 928.997 71.9237 929.353 71.9237C929.708 71.9237 929.979 72.017 930.166 72.2037C930.353 72.3904 930.446 72.6393 930.446 72.9504C930.446 73.2526 930.353 73.5015 930.166 73.697C929.979 73.8837 929.708 73.977 929.353 73.977ZM935.6 83.1504C934.382 83.1504 933.457 82.7726 932.826 82.017C932.195 81.2526 931.88 80.2304 931.88 78.9504C931.88 77.6082 932.208 76.5726 932.866 75.8437C933.533 75.1148 934.448 74.7504 935.613 74.7504C936.644 74.7504 937.457 75.0259 938.053 75.577C938.648 76.1282 939.004 76.8837 939.12 77.8437H937.173C937.111 77.3104 936.946 76.9015 936.68 76.617C936.413 76.3237 936.066 76.177 935.64 76.177C935.08 76.177 934.653 76.4215 934.36 76.9104C934.066 77.3904 933.92 78.0704 933.92 78.9504C933.92 79.8304 934.062 80.5104 934.346 80.9904C934.64 81.4704 935.066 81.7104 935.626 81.7104C936.062 81.7104 936.413 81.5682 936.68 81.2837C936.946 80.9904 937.111 80.577 937.173 80.0437H939.12C938.995 81.0037 938.631 81.7637 938.026 82.3237C937.431 82.8748 936.622 83.1504 935.6 83.1504ZM943.851 83.1504C942.616 83.1504 941.674 82.7726 941.025 82.017C940.376 81.2526 940.051 80.2259 940.051 78.937C940.051 78.0748 940.194 77.3326 940.478 76.7104C940.771 76.0882 941.198 75.6082 941.758 75.2704C942.327 74.9237 943.02 74.7504 943.838 74.7504C945.003 74.7504 945.891 75.1104 946.505 75.8304C947.127 76.5415 947.438 77.5904 947.438 78.977V79.417H941.985C942.029 80.1193 942.211 80.6793 942.531 81.097C942.851 81.5148 943.296 81.7237 943.865 81.7237C944.3 81.7237 944.651 81.5948 944.918 81.337C945.185 81.0793 945.367 80.7637 945.465 80.3904H947.345C947.256 80.8882 947.074 81.3459 946.798 81.7637C946.523 82.1815 946.14 82.5193 945.651 82.777C945.171 83.0259 944.571 83.1504 943.851 83.1504ZM941.985 78.137H945.518C945.483 77.497 945.318 76.9993 945.025 76.6437C944.74 76.2882 944.34 76.1104 943.825 76.1104C943.3 76.1104 942.878 76.2837 942.558 76.6304C942.247 76.9682 942.056 77.4704 941.985 78.137ZM951.806 83.1504C950.953 83.1504 950.268 83.0126 949.753 82.737C949.237 82.4615 948.855 82.1104 948.606 81.6837C948.366 81.257 948.233 80.8259 948.206 80.3904H950.1C950.135 80.6304 950.224 80.8526 950.366 81.057C950.517 81.2615 950.717 81.4259 950.966 81.5504C951.224 81.6659 951.535 81.7237 951.9 81.7237C952.335 81.7237 952.655 81.6437 952.86 81.4837C953.064 81.3237 953.166 81.1193 953.166 80.8704C953.166 80.6393 953.077 80.4437 952.9 80.2837C952.722 80.1237 952.433 79.977 952.033 79.8437L951.073 79.5237C950.62 79.3637 950.202 79.1904 949.82 79.0037C949.446 78.8082 949.144 78.5593 948.913 78.257C948.691 77.9548 948.58 77.5682 948.58 77.097C948.58 76.3948 948.842 75.8304 949.366 75.4037C949.9 74.9682 950.646 74.7504 951.606 74.7504C952.3 74.7504 952.868 74.8615 953.313 75.0837C953.757 75.297 954.091 75.5904 954.313 75.9637C954.544 76.3282 954.677 76.737 954.713 77.1904H952.886C952.842 76.8615 952.708 76.5993 952.486 76.4037C952.264 76.2082 951.944 76.1104 951.526 76.1104C951.162 76.1104 950.886 76.1859 950.7 76.337C950.513 76.4793 950.42 76.6748 950.42 76.9237C950.42 77.1726 950.517 77.377 950.713 77.537C950.908 77.697 951.202 77.8437 951.593 77.977L952.553 78.297C953.006 78.4393 953.42 78.6082 953.793 78.8037C954.166 78.9904 954.464 79.2348 954.686 79.537C954.908 79.8393 955.02 80.2304 955.02 80.7104C955.02 81.4393 954.744 82.0304 954.193 82.4837C953.642 82.9282 952.846 83.1504 951.806 83.1504Z" fill="#111827"/>
<rect x="736.503" y="97.2698" width="126.989" height="63.0371" fill="#FAFAFA"/>
<path d="M782.166 122.788V112.388H784.219V121.148H788.699V122.788H782.166ZM793.18 122.988C791.882 122.988 790.913 122.611 790.273 121.855C789.642 121.091 789.327 120.068 789.327 118.788C789.327 117.508 789.642 116.491 790.273 115.735C790.913 114.971 791.882 114.588 793.18 114.588C794.478 114.588 795.447 114.971 796.087 115.735C796.727 116.491 797.047 117.508 797.047 118.788C797.047 120.068 796.727 121.091 796.087 121.855C795.447 122.611 794.478 122.988 793.18 122.988ZM793.18 121.615C793.811 121.615 794.269 121.375 794.553 120.895C794.847 120.406 794.993 119.704 794.993 118.788C794.993 117.864 794.847 117.162 794.553 116.682C794.269 116.202 793.811 115.962 793.18 115.962C792.558 115.962 792.1 116.202 791.807 116.682C791.513 117.162 791.367 117.864 791.367 118.788C791.367 119.704 791.513 120.406 791.807 120.895C792.1 121.375 792.558 121.615 793.18 121.615ZM801.75 122.988C800.532 122.988 799.608 122.611 798.977 121.855C798.346 121.091 798.03 120.068 798.03 118.788C798.03 117.446 798.359 116.411 799.017 115.682C799.683 114.953 800.599 114.588 801.763 114.588C802.794 114.588 803.608 114.864 804.203 115.415C804.799 115.966 805.154 116.722 805.27 117.682H803.323C803.261 117.148 803.097 116.739 802.83 116.455C802.563 116.162 802.217 116.015 801.79 116.015C801.23 116.015 800.803 116.259 800.51 116.748C800.217 117.228 800.07 117.908 800.07 118.788C800.07 119.668 800.212 120.348 800.497 120.828C800.79 121.308 801.217 121.548 801.777 121.548C802.212 121.548 802.563 121.406 802.83 121.122C803.097 120.828 803.261 120.415 803.323 119.882H805.27C805.146 120.842 804.781 121.602 804.177 122.162C803.581 122.713 802.772 122.988 801.75 122.988ZM809.442 122.962C808.713 122.962 808.108 122.784 807.628 122.428C807.148 122.064 806.788 121.571 806.548 120.948C806.317 120.317 806.202 119.593 806.202 118.775C806.202 117.939 806.322 117.211 806.562 116.588C806.802 115.966 807.162 115.482 807.642 115.135C808.122 114.788 808.722 114.615 809.442 114.615C810.011 114.615 810.473 114.731 810.828 114.962C811.193 115.184 811.464 115.473 811.642 115.828H811.962V114.788H813.788V122.788H811.962V121.748H811.642C811.464 122.077 811.197 122.362 810.842 122.602C810.486 122.842 810.02 122.962 809.442 122.962ZM809.935 121.522C810.504 121.522 810.957 121.273 811.295 120.775C811.642 120.277 811.815 119.615 811.815 118.788C811.815 117.953 811.642 117.291 811.295 116.802C810.957 116.304 810.504 116.055 809.935 116.055C809.402 116.055 808.984 116.286 808.682 116.748C808.388 117.211 808.242 117.891 808.242 118.788C808.242 119.686 808.388 120.366 808.682 120.828C808.984 121.291 809.402 121.522 809.935 121.522ZM816.485 122.788C816.245 122.513 816.071 122.197 815.965 121.842C815.858 121.486 815.805 121.006 815.805 120.402V112.122H817.791V120.188C817.791 120.873 817.867 121.402 818.018 121.775C818.169 122.139 818.365 122.451 818.605 122.708V122.788H816.485ZM773.705 146.788V136.388H777.332C779.163 136.388 780.492 136.846 781.318 137.762C782.154 138.668 782.572 139.944 782.572 141.588C782.572 143.233 782.154 144.513 781.318 145.428C780.492 146.335 779.163 146.788 777.332 146.788H773.705ZM775.758 145.175H777.198C777.936 145.175 778.545 145.059 779.025 144.828C779.505 144.597 779.86 144.224 780.092 143.708C780.332 143.184 780.452 142.477 780.452 141.588C780.452 140.699 780.332 139.993 780.092 139.468C779.86 138.944 779.505 138.571 779.025 138.348C778.545 138.117 777.936 138.002 777.198 138.002H775.758V145.175ZM787.307 146.988C786.071 146.988 785.129 146.611 784.48 145.855C783.831 145.091 783.507 144.064 783.507 142.775C783.507 141.913 783.649 141.171 783.933 140.548C784.227 139.926 784.653 139.446 785.213 139.108C785.782 138.762 786.475 138.588 787.293 138.588C788.458 138.588 789.347 138.948 789.96 139.668C790.582 140.379 790.893 141.428 790.893 142.815V143.255H785.44C785.484 143.957 785.667 144.517 785.987 144.935C786.307 145.353 786.751 145.562 787.32 145.562C787.755 145.562 788.107 145.433 788.373 145.175C788.64 144.917 788.822 144.602 788.92 144.228H790.8C790.711 144.726 790.529 145.184 790.253 145.602C789.978 146.019 789.595 146.357 789.107 146.615C788.627 146.864 788.027 146.988 787.307 146.988ZM785.44 141.975H788.973C788.938 141.335 788.773 140.837 788.48 140.482C788.195 140.126 787.795 139.948 787.28 139.948C786.755 139.948 786.333 140.122 786.013 140.468C785.702 140.806 785.511 141.308 785.44 141.975ZM793.721 146.788L791.387 138.868V138.788H793.387L795.174 145.162H795.494L797.294 138.788H799.121V138.868L796.787 146.788H793.721ZM800.337 146.788V138.788H802.323V146.788H800.337ZM801.323 137.815C800.968 137.815 800.697 137.722 800.51 137.535C800.323 137.339 800.23 137.091 800.23 136.788C800.23 136.477 800.323 136.228 800.51 136.042C800.697 135.855 800.968 135.762 801.323 135.762C801.679 135.762 801.95 135.855 802.137 136.042C802.323 136.228 802.417 136.477 802.417 136.788C802.417 137.091 802.323 137.339 802.137 137.535C801.95 137.722 801.679 137.815 801.323 137.815ZM807.57 146.988C806.352 146.988 805.428 146.611 804.797 145.855C804.166 145.091 803.85 144.068 803.85 142.788C803.85 141.446 804.179 140.411 804.837 139.682C805.504 138.953 806.419 138.588 807.584 138.588C808.615 138.588 809.428 138.864 810.024 139.415C810.619 139.966 810.975 140.722 811.09 141.682H809.144C809.081 141.148 808.917 140.739 808.65 140.455C808.384 140.162 808.037 140.015 807.61 140.015C807.05 140.015 806.624 140.259 806.33 140.748C806.037 141.228 805.89 141.908 805.89 142.788C805.89 143.668 806.032 144.348 806.317 144.828C806.61 145.308 807.037 145.548 807.597 145.548C808.032 145.548 808.384 145.406 808.65 145.122C808.917 144.828 809.081 144.415 809.144 143.882H811.09C810.966 144.842 810.601 145.602 809.997 146.162C809.401 146.713 808.592 146.988 807.57 146.988ZM815.822 146.988C814.587 146.988 813.644 146.611 812.995 145.855C812.347 145.091 812.022 144.064 812.022 142.775C812.022 141.913 812.164 141.171 812.449 140.548C812.742 139.926 813.169 139.446 813.729 139.108C814.298 138.762 814.991 138.588 815.809 138.588C816.973 138.588 817.862 138.948 818.475 139.668C819.098 140.379 819.409 141.428 819.409 142.815V143.255H813.955C814 143.957 814.182 144.517 814.502 144.935C814.822 145.353 815.267 145.562 815.835 145.562C816.271 145.562 816.622 145.433 816.889 145.175C817.155 144.917 817.338 144.602 817.435 144.228H819.315C819.227 144.726 819.044 145.184 818.769 145.602C818.493 146.019 818.111 146.357 817.622 146.615C817.142 146.864 816.542 146.988 815.822 146.988ZM813.955 141.975H817.489C817.453 141.335 817.289 140.837 816.995 140.482C816.711 140.126 816.311 139.948 815.795 139.948C815.271 139.948 814.849 140.122 814.529 140.468C814.218 140.806 814.027 141.308 813.955 141.975ZM823.777 146.988C822.924 146.988 822.239 146.851 821.724 146.575C821.208 146.299 820.826 145.948 820.577 145.522C820.337 145.095 820.204 144.664 820.177 144.228H822.07C822.106 144.468 822.195 144.691 822.337 144.895C822.488 145.099 822.688 145.264 822.937 145.388C823.195 145.504 823.506 145.562 823.87 145.562C824.306 145.562 824.626 145.482 824.83 145.322C825.035 145.162 825.137 144.957 825.137 144.708C825.137 144.477 825.048 144.282 824.87 144.122C824.692 143.962 824.404 143.815 824.004 143.682L823.044 143.362C822.59 143.202 822.172 143.028 821.79 142.842C821.417 142.646 821.115 142.397 820.884 142.095C820.661 141.793 820.55 141.406 820.55 140.935C820.55 140.233 820.812 139.668 821.337 139.242C821.87 138.806 822.617 138.588 823.577 138.588C824.27 138.588 824.839 138.699 825.284 138.922C825.728 139.135 826.061 139.428 826.284 139.802C826.515 140.166 826.648 140.575 826.684 141.028H824.857C824.812 140.699 824.679 140.437 824.457 140.242C824.235 140.046 823.915 139.948 823.497 139.948C823.132 139.948 822.857 140.024 822.67 140.175C822.484 140.317 822.39 140.513 822.39 140.762C822.39 141.011 822.488 141.215 822.684 141.375C822.879 141.535 823.172 141.682 823.564 141.815L824.524 142.135C824.977 142.277 825.39 142.446 825.764 142.642C826.137 142.828 826.435 143.073 826.657 143.375C826.879 143.677 826.99 144.068 826.99 144.548C826.99 145.277 826.715 145.868 826.164 146.322C825.612 146.766 824.817 146.988 823.777 146.988Z" fill="#111827"/>
<rect x="704.761" y="217.527" width="158.699" height="63.0371" fill="#FAFAFA"/>
<path d="M738.762 243.045V232.645H742.389C744.22 232.645 745.549 233.103 746.376 234.018C747.211 234.925 747.629 236.201 747.629 237.845C747.629 239.49 747.211 240.77 746.376 241.685C745.549 242.592 744.22 243.045 742.389 243.045H738.762ZM740.816 241.432H742.256C742.994 241.432 743.602 241.316 744.082 241.085C744.562 240.854 744.918 240.481 745.149 239.965C745.389 239.441 745.509 238.734 745.509 237.845C745.509 236.956 745.389 236.25 745.149 235.725C744.918 235.201 744.562 234.827 744.082 234.605C743.602 234.374 742.994 234.258 742.256 234.258H740.816V241.432ZM752.364 243.245C751.129 243.245 750.186 242.867 749.537 242.112C748.889 241.347 748.564 240.321 748.564 239.032C748.564 238.17 748.706 237.427 748.991 236.805C749.284 236.183 749.711 235.703 750.271 235.365C750.84 235.018 751.533 234.845 752.351 234.845C753.515 234.845 754.404 235.205 755.017 235.925C755.64 236.636 755.951 237.685 755.951 239.072V239.512H750.497C750.542 240.214 750.724 240.774 751.044 241.192C751.364 241.61 751.809 241.818 752.377 241.818C752.813 241.818 753.164 241.69 753.431 241.432C753.697 241.174 753.88 240.858 753.977 240.485H755.857C755.769 240.983 755.586 241.441 755.311 241.858C755.035 242.276 754.653 242.614 754.164 242.872C753.684 243.121 753.084 243.245 752.364 243.245ZM750.497 238.232H754.031C753.995 237.592 753.831 237.094 753.537 236.738C753.253 236.383 752.853 236.205 752.337 236.205C751.813 236.205 751.391 236.378 751.071 236.725C750.76 237.063 750.569 237.565 750.497 238.232ZM758.778 243.045L756.445 235.125V235.045H758.445L760.232 241.418H760.552L762.352 235.045H764.178V235.125L761.845 243.045H758.778ZM768.661 243.245C767.425 243.245 766.483 242.867 765.834 242.112C765.185 241.347 764.861 240.321 764.861 239.032C764.861 238.17 765.003 237.427 765.288 236.805C765.581 236.183 766.008 235.703 766.568 235.365C767.137 235.018 767.83 234.845 768.648 234.845C769.812 234.845 770.701 235.205 771.314 235.925C771.937 236.636 772.248 237.685 772.248 239.072V239.512H766.794C766.839 240.214 767.021 240.774 767.341 241.192C767.661 241.61 768.105 241.818 768.674 241.818C769.11 241.818 769.461 241.69 769.728 241.432C769.994 241.174 770.177 240.858 770.274 240.485H772.154C772.065 240.983 771.883 241.441 771.608 241.858C771.332 242.276 770.95 242.614 770.461 242.872C769.981 243.121 769.381 243.245 768.661 243.245ZM766.794 238.232H770.328C770.292 237.592 770.128 237.094 769.834 236.738C769.55 236.383 769.15 236.205 768.634 236.205C768.11 236.205 767.688 236.378 767.368 236.725C767.057 237.063 766.865 237.565 766.794 238.232ZM774.362 243.045C774.122 242.77 773.949 242.454 773.842 242.098C773.736 241.743 773.682 241.263 773.682 240.658V232.378H775.669V240.445C775.669 241.13 775.745 241.658 775.896 242.032C776.047 242.396 776.242 242.707 776.482 242.965V243.045H774.362ZM781.121 243.245C779.823 243.245 778.854 242.867 778.214 242.112C777.583 241.347 777.267 240.325 777.267 239.045C777.267 237.765 777.583 236.747 778.214 235.992C778.854 235.227 779.823 234.845 781.121 234.845C782.418 234.845 783.387 235.227 784.027 235.992C784.667 236.747 784.987 237.765 784.987 239.045C784.987 240.325 784.667 241.347 784.027 242.112C783.387 242.867 782.418 243.245 781.121 243.245ZM781.121 241.872C781.752 241.872 782.209 241.632 782.494 241.152C782.787 240.663 782.934 239.961 782.934 239.045C782.934 238.121 782.787 237.418 782.494 236.938C782.209 236.458 781.752 236.218 781.121 236.218C780.498 236.218 780.041 236.458 779.747 236.938C779.454 237.418 779.307 238.121 779.307 239.045C779.307 239.961 779.454 240.663 779.747 241.152C780.041 241.632 780.498 241.872 781.121 241.872ZM786.504 245.712V235.045H788.33V236.085H788.65C788.819 235.747 789.081 235.463 789.437 235.232C789.801 234.992 790.281 234.872 790.877 234.872C791.597 234.872 792.193 235.05 792.664 235.405C793.144 235.761 793.499 236.254 793.73 236.885C793.97 237.507 794.09 238.232 794.09 239.058C794.09 239.876 793.97 240.601 793.73 241.232C793.49 241.863 793.13 242.352 792.65 242.698C792.179 243.045 791.593 243.218 790.89 243.218C790.366 243.218 789.935 243.121 789.597 242.925C789.259 242.73 788.997 242.467 788.81 242.138H788.49V245.712H786.504ZM790.357 241.778C790.89 241.778 791.304 241.547 791.597 241.085C791.89 240.623 792.037 239.943 792.037 239.045C792.037 238.147 791.89 237.467 791.597 237.005C791.304 236.543 790.89 236.312 790.357 236.312C789.788 236.312 789.33 236.561 788.984 237.058C788.646 237.547 788.477 238.21 788.477 239.045C788.477 239.872 788.646 240.534 788.984 241.032C789.33 241.53 789.788 241.778 790.357 241.778ZM795.613 243.045V235.045H797.44V236.245H797.76C797.902 235.845 798.138 235.512 798.466 235.245C798.804 234.978 799.275 234.845 799.88 234.845C800.44 234.845 800.902 234.97 801.266 235.218C801.631 235.458 801.911 235.801 802.106 236.245H802.426C802.578 235.836 802.826 235.503 803.173 235.245C803.52 234.978 803.986 234.845 804.573 234.845C805.444 234.845 806.089 235.13 806.506 235.698C806.924 236.258 807.133 237.01 807.133 237.952V243.045H805.16V238.298C805.16 237.721 805.062 237.272 804.866 236.952C804.68 236.632 804.378 236.472 803.96 236.472C803.444 236.472 803.049 236.69 802.773 237.125C802.498 237.561 802.36 238.094 802.36 238.725V243.045H800.386V238.298C800.386 237.721 800.289 237.272 800.093 236.952C799.906 236.632 799.604 236.472 799.186 236.472C798.68 236.472 798.289 236.69 798.013 237.125C797.738 237.561 797.6 238.094 797.6 238.725V243.045H795.613ZM812.349 243.245C811.113 243.245 810.171 242.867 809.522 242.112C808.873 241.347 808.549 240.321 808.549 239.032C808.549 238.17 808.691 237.427 808.975 236.805C809.269 236.183 809.695 235.703 810.255 235.365C810.824 235.018 811.517 234.845 812.335 234.845C813.5 234.845 814.389 235.205 815.002 235.925C815.624 236.636 815.935 237.685 815.935 239.072V239.512H810.482C810.526 240.214 810.709 240.774 811.029 241.192C811.349 241.61 811.793 241.818 812.362 241.818C812.797 241.818 813.149 241.69 813.415 241.432C813.682 241.174 813.864 240.858 813.962 240.485H815.842C815.753 240.983 815.571 241.441 815.295 241.858C815.02 242.276 814.637 242.614 814.149 242.872C813.669 243.121 813.069 243.245 812.349 243.245ZM810.482 238.232H814.015C813.98 237.592 813.815 237.094 813.522 236.738C813.237 236.383 812.837 236.205 812.322 236.205C811.797 236.205 811.375 236.378 811.055 236.725C810.744 237.063 810.553 237.565 810.482 238.232ZM817.41 243.045V235.045H819.237V236.245H819.557C819.708 235.836 819.957 235.503 820.303 235.245C820.65 234.978 821.139 234.845 821.77 234.845C822.668 234.845 823.334 235.13 823.77 235.698C824.214 236.258 824.437 237.01 824.437 237.952V243.045H822.45V238.298C822.45 237.712 822.343 237.263 822.13 236.952C821.926 236.632 821.592 236.472 821.13 236.472C820.579 236.472 820.152 236.69 819.85 237.125C819.548 237.552 819.397 238.085 819.397 238.725V243.045H817.41ZM827.512 243.045C827.308 242.805 827.143 242.516 827.019 242.178C826.903 241.841 826.845 241.334 826.845 240.658V236.458H825.752V235.045H826.872V233.045H828.805V235.045H830.125V236.458H828.819V240.432C828.819 241.143 828.899 241.685 829.059 242.058C829.219 242.423 829.41 242.725 829.632 242.965V243.045H827.512ZM754.569 267.245C753.085 267.245 751.929 266.77 751.102 265.818C750.276 264.867 749.862 263.543 749.862 261.845C749.862 260.156 750.271 258.836 751.089 257.885C751.907 256.925 753.067 256.445 754.569 256.445C755.458 256.445 756.222 256.614 756.862 256.952C757.502 257.281 758.005 257.743 758.369 258.338C758.733 258.934 758.947 259.623 759.009 260.405H756.956C756.885 259.658 756.636 259.072 756.209 258.645C755.791 258.218 755.245 258.005 754.569 258.005C753.716 258.005 753.071 258.343 752.636 259.018C752.2 259.685 751.982 260.632 751.982 261.858C751.982 263.121 752.205 264.076 752.649 264.725C753.102 265.365 753.738 265.685 754.556 265.685C755.267 265.685 755.827 265.463 756.236 265.018C756.653 264.574 756.893 263.996 756.956 263.285H759.009C758.947 264.058 758.733 264.743 758.369 265.338C758.005 265.934 757.502 266.401 756.862 266.738C756.231 267.076 755.467 267.245 754.569 267.245ZM763.738 267.245C762.44 267.245 761.471 266.867 760.831 266.112C760.2 265.347 759.884 264.325 759.884 263.045C759.884 261.765 760.2 260.747 760.831 259.992C761.471 259.227 762.44 258.845 763.738 258.845C765.036 258.845 766.004 259.227 766.644 259.992C767.284 260.747 767.604 261.765 767.604 263.045C767.604 264.325 767.284 265.347 766.644 266.112C766.004 266.867 765.036 267.245 763.738 267.245ZM763.738 265.872C764.369 265.872 764.827 265.632 765.111 265.152C765.404 264.663 765.551 263.961 765.551 263.045C765.551 262.121 765.404 261.418 765.111 260.938C764.827 260.458 764.369 260.218 763.738 260.218C763.116 260.218 762.658 260.458 762.364 260.938C762.071 261.418 761.924 262.121 761.924 263.045C761.924 263.961 762.071 264.663 762.364 265.152C762.658 265.632 763.116 265.872 763.738 265.872ZM769.121 267.045V259.045H770.948V260.245H771.268C771.419 259.836 771.668 259.503 772.014 259.245C772.361 258.978 772.85 258.845 773.481 258.845C774.379 258.845 775.045 259.13 775.481 259.698C775.925 260.258 776.148 261.01 776.148 261.952V267.045H774.161V262.298C774.161 261.712 774.054 261.263 773.841 260.952C773.636 260.632 773.303 260.472 772.841 260.472C772.29 260.472 771.863 260.69 771.561 261.125C771.259 261.552 771.108 262.085 771.108 262.725V267.045H769.121ZM779.223 267.045C779.019 266.805 778.854 266.516 778.73 266.178C778.614 265.841 778.556 265.334 778.556 264.658V260.458H777.463V259.045H778.583V257.045H780.516V259.045H781.836V260.458H780.53V264.432C780.53 265.143 780.61 265.685 780.77 266.058C780.93 266.423 781.121 266.725 781.343 266.965V267.045H779.223ZM785.968 267.218C785.239 267.218 784.635 267.041 784.155 266.685C783.675 266.321 783.315 265.827 783.075 265.205C782.844 264.574 782.728 263.85 782.728 263.032C782.728 262.196 782.848 261.467 783.088 260.845C783.328 260.223 783.688 259.738 784.168 259.392C784.648 259.045 785.248 258.872 785.968 258.872C786.537 258.872 786.999 258.987 787.355 259.218C787.719 259.441 787.99 259.73 788.168 260.085H788.488V259.045H790.315V267.045H788.488V266.005H788.168C787.99 266.334 787.724 266.618 787.368 266.858C787.013 267.098 786.546 267.218 785.968 267.218ZM786.462 265.778C787.03 265.778 787.484 265.53 787.822 265.032C788.168 264.534 788.342 263.872 788.342 263.045C788.342 262.21 788.168 261.547 787.822 261.058C787.484 260.561 787.03 260.312 786.462 260.312C785.928 260.312 785.51 260.543 785.208 261.005C784.915 261.467 784.768 262.147 784.768 263.045C784.768 263.943 784.915 264.623 785.208 265.085C785.51 265.547 785.928 265.778 786.462 265.778ZM792.371 267.045V259.045H794.358V267.045H792.371ZM793.358 258.072C793.002 258.072 792.731 257.978 792.544 257.792C792.358 257.596 792.264 257.347 792.264 257.045C792.264 256.734 792.358 256.485 792.544 256.298C792.731 256.112 793.002 256.018 793.358 256.018C793.713 256.018 793.984 256.112 794.171 256.298C794.358 256.485 794.451 256.734 794.451 257.045C794.451 257.347 794.358 257.596 794.171 257.792C793.984 257.978 793.713 258.072 793.358 258.072ZM796.418 267.045V259.045H798.244V260.245H798.564C798.716 259.836 798.964 259.503 799.311 259.245C799.658 258.978 800.147 258.845 800.778 258.845C801.676 258.845 802.342 259.13 802.778 259.698C803.222 260.258 803.444 261.01 803.444 261.952V267.045H801.458V262.298C801.458 261.712 801.351 261.263 801.138 260.952C800.933 260.632 800.6 260.472 800.138 260.472C799.587 260.472 799.16 260.69 798.858 261.125C798.556 261.552 798.404 262.085 798.404 262.725V267.045H796.418ZM808.653 267.245C807.418 267.245 806.475 266.867 805.827 266.112C805.178 265.347 804.853 264.321 804.853 263.032C804.853 262.17 804.995 261.427 805.28 260.805C805.573 260.183 806 259.703 806.56 259.365C807.129 259.018 807.822 258.845 808.64 258.845C809.804 258.845 810.693 259.205 811.307 259.925C811.929 260.636 812.24 261.685 812.24 263.072V263.512H806.787C806.831 264.214 807.013 264.774 807.333 265.192C807.653 265.61 808.098 265.818 808.667 265.818C809.102 265.818 809.453 265.69 809.72 265.432C809.987 265.174 810.169 264.858 810.267 264.485H812.147C812.058 264.983 811.875 265.441 811.6 265.858C811.324 266.276 810.942 266.614 810.453 266.872C809.973 267.121 809.373 267.245 808.653 267.245ZM806.787 262.232H810.32C810.284 261.592 810.12 261.094 809.827 260.738C809.542 260.383 809.142 260.205 808.627 260.205C808.102 260.205 807.68 260.378 807.36 260.725C807.049 261.063 806.858 261.565 806.787 262.232ZM813.701 267.045V259.045H815.501V260.485H815.821C815.875 260.227 815.972 259.983 816.115 259.752C816.257 259.521 816.479 259.334 816.781 259.192C817.084 259.041 817.492 258.965 818.008 258.965H818.395V260.765H817.848C817.084 260.765 816.532 260.961 816.195 261.352C815.857 261.743 815.688 262.334 815.688 263.125V267.045H813.701Z" fill="#111827"/>
<rect x="128.595" y="97.5616" width="126.853" height="63.0371" fill="#FAFAFA"/>
<path d="M159.22 123.08V112.68H162.86L164.994 121.453H165.434L167.594 112.68H171.234V123.08H169.3V114.373H168.954L166.86 123.08H163.474L161.38 114.373H161.034V123.08H159.22ZM176.028 123.253C175.299 123.253 174.694 123.076 174.214 122.72C173.734 122.356 173.374 121.862 173.134 121.24C172.903 120.609 172.788 119.885 172.788 119.067C172.788 118.231 172.908 117.502 173.148 116.88C173.388 116.258 173.748 115.773 174.228 115.427C174.708 115.08 175.308 114.907 176.028 114.907C176.597 114.907 177.059 115.022 177.414 115.253C177.779 115.476 178.05 115.765 178.228 116.12H178.548V115.08H180.374V123.08H178.548V122.04H178.228C178.05 122.369 177.783 122.653 177.428 122.893C177.072 123.133 176.606 123.253 176.028 123.253ZM176.521 121.813C177.09 121.813 177.543 121.565 177.881 121.067C178.228 120.569 178.401 119.907 178.401 119.08C178.401 118.245 178.228 117.582 177.881 117.093C177.543 116.596 177.09 116.347 176.521 116.347C175.988 116.347 175.57 116.578 175.268 117.04C174.974 117.502 174.828 118.182 174.828 119.08C174.828 119.978 174.974 120.658 175.268 121.12C175.57 121.582 175.988 121.813 176.521 121.813ZM182.43 123.08V115.08H184.257V116.28H184.577C184.728 115.871 184.977 115.538 185.324 115.28C185.67 115.013 186.159 114.88 186.79 114.88C187.688 114.88 188.355 115.165 188.79 115.733C189.235 116.293 189.457 117.045 189.457 117.987V123.08H187.47V118.333C187.47 117.747 187.364 117.298 187.15 116.987C186.946 116.667 186.613 116.507 186.15 116.507C185.599 116.507 185.173 116.725 184.87 117.16C184.568 117.587 184.417 118.12 184.417 118.76V123.08H182.43ZM194.106 123.253C193.377 123.253 192.773 123.076 192.293 122.72C191.813 122.356 191.453 121.862 191.213 121.24C190.981 120.609 190.866 119.885 190.866 119.067C190.866 118.231 190.986 117.502 191.226 116.88C191.466 116.258 191.826 115.773 192.306 115.427C192.786 115.08 193.386 114.907 194.106 114.907C194.675 114.907 195.137 115.022 195.493 115.253C195.857 115.476 196.128 115.765 196.306 116.12H196.626V115.08H198.453V123.08H196.626V122.04H196.306C196.128 122.369 195.861 122.653 195.506 122.893C195.15 123.133 194.684 123.253 194.106 123.253ZM194.599 121.813C195.168 121.813 195.621 121.565 195.959 121.067C196.306 120.569 196.479 119.907 196.479 119.08C196.479 118.245 196.306 117.582 195.959 117.093C195.621 116.596 195.168 116.347 194.599 116.347C194.066 116.347 193.648 116.578 193.346 117.04C193.053 117.502 192.906 118.182 192.906 119.08C192.906 119.978 193.053 120.658 193.346 121.12C193.648 121.582 194.066 121.813 194.599 121.813ZM203.802 125.947C203.1 125.947 202.526 125.858 202.082 125.68C201.646 125.511 201.304 125.293 201.055 125.027C200.815 124.769 200.642 124.498 200.535 124.213C200.429 123.938 200.366 123.685 200.349 123.453H202.282C202.326 123.729 202.46 123.973 202.682 124.187C202.913 124.409 203.286 124.52 203.802 124.52C204.371 124.52 204.802 124.351 205.095 124.013C205.397 123.685 205.549 123.2 205.549 122.56V121.627H205.229C205.095 122 204.86 122.298 204.522 122.52C204.184 122.742 203.735 122.853 203.175 122.853C202.144 122.853 201.353 122.493 200.802 121.773C200.251 121.045 199.975 120.071 199.975 118.853C199.975 118.071 200.095 117.382 200.335 116.787C200.584 116.182 200.944 115.716 201.415 115.387C201.895 115.049 202.491 114.88 203.202 114.88C203.762 114.88 204.206 114.991 204.535 115.213C204.873 115.427 205.122 115.707 205.282 116.053H205.602V115.08H207.429V122.52C207.429 123.613 207.126 124.458 206.522 125.053C205.926 125.649 205.02 125.947 203.802 125.947ZM203.655 121.413C204.224 121.413 204.664 121.182 204.975 120.72C205.295 120.249 205.455 119.631 205.455 118.867C205.455 118.085 205.295 117.467 204.975 117.013C204.655 116.551 204.215 116.32 203.655 116.32C203.14 116.32 202.731 116.533 202.429 116.96C202.126 117.387 201.975 118.022 201.975 118.867C201.975 119.711 202.122 120.347 202.415 120.773C202.717 121.2 203.131 121.413 203.655 121.413ZM212.744 123.28C211.508 123.28 210.566 122.902 209.917 122.147C209.268 121.382 208.944 120.356 208.944 119.067C208.944 118.205 209.086 117.462 209.371 116.84C209.664 116.218 210.091 115.738 210.651 115.4C211.22 115.053 211.913 114.88 212.731 114.88C213.895 114.88 214.784 115.24 215.397 115.96C216.02 116.671 216.331 117.72 216.331 119.107V119.547H210.877C210.922 120.249 211.104 120.809 211.424 121.227C211.744 121.645 212.188 121.853 212.757 121.853C213.193 121.853 213.544 121.725 213.811 121.467C214.077 121.209 214.26 120.893 214.357 120.52H216.237C216.148 121.018 215.966 121.476 215.691 121.893C215.415 122.311 215.033 122.649 214.544 122.907C214.064 123.156 213.464 123.28 212.744 123.28ZM210.877 118.267H214.411C214.375 117.627 214.211 117.129 213.917 116.773C213.633 116.418 213.233 116.24 212.717 116.24C212.193 116.24 211.771 116.413 211.451 116.76C211.14 117.098 210.948 117.6 210.877 118.267ZM220.472 123.253C219.752 123.253 219.157 123.076 218.685 122.72C218.214 122.356 217.859 121.862 217.619 121.24C217.379 120.609 217.259 119.885 217.259 119.067C217.259 118.231 217.379 117.502 217.619 116.88C217.859 116.258 218.214 115.773 218.685 115.427C219.165 115.08 219.757 114.907 220.459 114.907C220.992 114.907 221.423 115.005 221.752 115.2C222.09 115.396 222.357 115.653 222.552 115.973H222.872V112.413H224.845V123.08H223.032V122.04H222.712C222.534 122.369 222.263 122.653 221.899 122.893C221.543 123.133 221.068 123.253 220.472 123.253ZM220.992 121.813C221.57 121.813 222.028 121.565 222.365 121.067C222.703 120.569 222.872 119.907 222.872 119.08C222.872 118.245 222.703 117.582 222.365 117.093C222.028 116.596 221.57 116.347 220.992 116.347C220.468 116.347 220.054 116.578 219.752 117.04C219.459 117.502 219.312 118.182 219.312 119.08C219.312 119.978 219.459 120.658 219.752 121.12C220.054 121.582 220.468 121.813 220.992 121.813ZM152.994 147.08V136.68H154.994V140.773H155.794L158.914 136.68H161.181V136.76L157.487 141.507L161.714 147V147.08H159.261L155.794 142.427H154.994V147.08H152.994ZM164.916 147.28C164.009 147.28 163.333 147 162.889 146.44C162.444 145.871 162.222 145.116 162.222 144.173V139.08H164.209V143.827C164.209 144.405 164.311 144.853 164.516 145.173C164.729 145.493 165.062 145.653 165.516 145.653C166.076 145.653 166.507 145.436 166.809 145C167.111 144.565 167.262 144.031 167.262 143.4V139.08H169.249V147.08H167.462V145.88H167.142C167.009 146.289 166.76 146.627 166.396 146.893C166.04 147.151 165.547 147.28 164.916 147.28ZM175.671 147.253C175.075 147.253 174.595 147.133 174.231 146.893C173.875 146.653 173.613 146.369 173.444 146.04H173.124V147.08H171.298V136.413H173.284V139.973H173.604C173.791 139.653 174.053 139.396 174.391 139.2C174.729 139.005 175.16 138.907 175.684 138.907C176.387 138.907 176.973 139.08 177.444 139.427C177.924 139.773 178.284 140.258 178.524 140.88C178.764 141.502 178.884 142.231 178.884 143.067C178.884 143.885 178.764 144.609 178.524 145.24C178.293 145.862 177.938 146.356 177.458 146.72C176.987 147.076 176.391 147.253 175.671 147.253ZM175.151 145.813C175.684 145.813 176.098 145.582 176.391 145.12C176.684 144.658 176.831 143.978 176.831 143.08C176.831 142.182 176.684 141.502 176.391 141.04C176.098 140.578 175.684 140.347 175.151 140.347C174.582 140.347 174.124 140.596 173.778 141.093C173.44 141.582 173.271 142.245 173.271 143.08C173.271 143.907 173.44 144.569 173.778 145.067C174.124 145.565 174.582 145.813 175.151 145.813ZM183.674 147.28C182.438 147.28 181.496 146.902 180.847 146.147C180.198 145.382 179.874 144.356 179.874 143.067C179.874 142.205 180.016 141.462 180.3 140.84C180.594 140.218 181.02 139.738 181.58 139.4C182.149 139.053 182.843 138.88 183.66 138.88C184.825 138.88 185.714 139.24 186.327 139.96C186.949 140.671 187.26 141.72 187.26 143.107V143.547H181.807C181.851 144.249 182.034 144.809 182.354 145.227C182.674 145.645 183.118 145.853 183.687 145.853C184.123 145.853 184.474 145.725 184.74 145.467C185.007 145.209 185.189 144.893 185.287 144.52H187.167C187.078 145.018 186.896 145.476 186.62 145.893C186.345 146.311 185.963 146.649 185.474 146.907C184.994 147.156 184.394 147.28 183.674 147.28ZM181.807 142.267H185.34C185.305 141.627 185.14 141.129 184.847 140.773C184.563 140.418 184.163 140.24 183.647 140.24C183.123 140.24 182.7 140.413 182.38 140.76C182.069 141.098 181.878 141.6 181.807 142.267ZM188.722 147.08V139.08H190.522V140.52H190.842C190.895 140.262 190.993 140.018 191.135 139.787C191.277 139.556 191.5 139.369 191.802 139.227C192.104 139.076 192.513 139 193.028 139H193.415V140.8H192.868C192.104 140.8 191.553 140.996 191.215 141.387C190.877 141.778 190.708 142.369 190.708 143.16V147.08H188.722ZM194.845 147.08V139.08H196.671V140.28H196.991C197.142 139.871 197.391 139.538 197.738 139.28C198.085 139.013 198.573 138.88 199.205 138.88C200.102 138.88 200.769 139.165 201.205 139.733C201.649 140.293 201.871 141.045 201.871 141.987V147.08H199.885V142.333C199.885 141.747 199.778 141.298 199.565 140.987C199.36 140.667 199.027 140.507 198.565 140.507C198.013 140.507 197.587 140.725 197.285 141.16C196.982 141.587 196.831 142.12 196.831 142.76V147.08H194.845ZM207.08 147.28C205.844 147.28 204.902 146.902 204.253 146.147C203.604 145.382 203.28 144.356 203.28 143.067C203.28 142.205 203.422 141.462 203.707 140.84C204 140.218 204.427 139.738 204.987 139.4C205.556 139.053 206.249 138.88 207.067 138.88C208.231 138.88 209.12 139.24 209.733 139.96C210.356 140.671 210.667 141.72 210.667 143.107V143.547H205.213C205.258 144.249 205.44 144.809 205.76 145.227C206.08 145.645 206.524 145.853 207.093 145.853C207.529 145.853 207.88 145.725 208.147 145.467C208.413 145.209 208.596 144.893 208.693 144.52H210.573C210.484 145.018 210.302 145.476 210.027 145.893C209.751 146.311 209.369 146.649 208.88 146.907C208.4 147.156 207.8 147.28 207.08 147.28ZM205.213 142.267H208.747C208.711 141.627 208.547 141.129 208.253 140.773C207.969 140.418 207.569 140.24 207.053 140.24C206.529 140.24 206.107 140.413 205.787 140.76C205.476 141.098 205.284 141.6 205.213 142.267ZM213.275 147.08C213.07 146.84 212.906 146.551 212.781 146.213C212.666 145.876 212.608 145.369 212.608 144.693V140.493H211.515V139.08H212.635V137.08H214.568V139.08H215.888V140.493H214.581V144.467C214.581 145.178 214.661 145.72 214.821 146.093C214.981 146.458 215.173 146.76 215.395 147V147.08H213.275ZM220.58 147.28C219.344 147.28 218.402 146.902 217.753 146.147C217.104 145.382 216.78 144.356 216.78 143.067C216.78 142.205 216.922 141.462 217.207 140.84C217.5 140.218 217.927 139.738 218.487 139.4C219.056 139.053 219.749 138.88 220.567 138.88C221.731 138.88 222.62 139.24 223.233 139.96C223.856 140.671 224.167 141.72 224.167 143.107V143.547H218.713C218.758 144.249 218.94 144.809 219.26 145.227C219.58 145.645 220.024 145.853 220.593 145.853C221.029 145.853 221.38 145.725 221.647 145.467C221.913 145.209 222.096 144.893 222.193 144.52H224.073C223.984 145.018 223.802 145.476 223.527 145.893C223.251 146.311 222.869 146.649 222.38 146.907C221.9 147.156 221.3 147.28 220.58 147.28ZM218.713 142.267H222.247C222.211 141.627 222.047 141.129 221.753 140.773C221.469 140.418 221.069 140.24 220.553 140.24C220.029 140.24 219.607 140.413 219.287 140.76C218.976 141.098 218.784 141.6 218.713 142.267ZM228.535 147.28C227.681 147.28 226.997 147.142 226.481 146.867C225.966 146.591 225.584 146.24 225.335 145.813C225.095 145.387 224.961 144.956 224.935 144.52H226.828C226.864 144.76 226.953 144.982 227.095 145.187C227.246 145.391 227.446 145.556 227.695 145.68C227.953 145.796 228.264 145.853 228.628 145.853C229.064 145.853 229.384 145.773 229.588 145.613C229.793 145.453 229.895 145.249 229.895 145C229.895 144.769 229.806 144.573 229.628 144.413C229.45 144.253 229.161 144.107 228.761 143.973L227.801 143.653C227.348 143.493 226.93 143.32 226.548 143.133C226.175 142.938 225.873 142.689 225.641 142.387C225.419 142.085 225.308 141.698 225.308 141.227C225.308 140.525 225.57 139.96 226.095 139.533C226.628 139.098 227.375 138.88 228.335 138.88C229.028 138.88 229.597 138.991 230.041 139.213C230.486 139.427 230.819 139.72 231.041 140.093C231.273 140.458 231.406 140.867 231.441 141.32H229.615C229.57 140.991 229.437 140.729 229.215 140.533C228.993 140.338 228.673 140.24 228.255 140.24C227.89 140.24 227.615 140.316 227.428 140.467C227.241 140.609 227.148 140.805 227.148 141.053C227.148 141.302 227.246 141.507 227.441 141.667C227.637 141.827 227.93 141.973 228.321 142.107L229.281 142.427C229.735 142.569 230.148 142.738 230.521 142.933C230.895 143.12 231.193 143.365 231.415 143.667C231.637 143.969 231.748 144.36 231.748 144.84C231.748 145.569 231.473 146.16 230.921 146.613C230.37 147.058 229.575 147.28 228.535 147.28Z" fill="#111827"/>
<rect x="128.514" y="225.516" width="126.934" height="63.5715" fill="#FAFAFA"/>
<path d="M159.221 251.302V240.902H162.861L164.994 249.676H165.434L167.594 240.902H171.234V251.302H169.301V242.596H168.954L166.861 251.302H163.474L161.381 242.596H161.034V251.302H159.221ZM176.028 251.476C175.299 251.476 174.695 251.298 174.215 250.942C173.735 250.578 173.375 250.084 173.135 249.462C172.904 248.831 172.788 248.107 172.788 247.289C172.788 246.453 172.908 245.724 173.148 245.102C173.388 244.48 173.748 243.996 174.228 243.649C174.708 243.302 175.308 243.129 176.028 243.129C176.597 243.129 177.059 243.244 177.415 243.476C177.779 243.698 178.051 243.987 178.228 244.342H178.548V243.302H180.375V251.302H178.548V250.262H178.228C178.051 250.591 177.784 250.876 177.428 251.116C177.073 251.356 176.606 251.476 176.028 251.476ZM176.522 250.036C177.091 250.036 177.544 249.787 177.882 249.289C178.228 248.791 178.402 248.129 178.402 247.302C178.402 246.467 178.228 245.804 177.882 245.316C177.544 244.818 177.091 244.569 176.522 244.569C175.988 244.569 175.571 244.8 175.268 245.262C174.975 245.724 174.828 246.404 174.828 247.302C174.828 248.2 174.975 248.88 175.268 249.342C175.571 249.804 175.988 250.036 176.522 250.036ZM182.431 251.302V243.302H184.258V244.502H184.578C184.729 244.093 184.978 243.76 185.324 243.502C185.671 243.236 186.16 243.102 186.791 243.102C187.689 243.102 188.355 243.387 188.791 243.956C189.235 244.516 189.458 245.267 189.458 246.209V251.302H187.471V246.556C187.471 245.969 187.364 245.52 187.151 245.209C186.947 244.889 186.613 244.729 186.151 244.729C185.6 244.729 185.173 244.947 184.871 245.382C184.569 245.809 184.418 246.342 184.418 246.982V251.302H182.431ZM194.106 251.476C193.378 251.476 192.773 251.298 192.293 250.942C191.813 250.578 191.453 250.084 191.213 249.462C190.982 248.831 190.866 248.107 190.866 247.289C190.866 246.453 190.986 245.724 191.226 245.102C191.466 244.48 191.826 243.996 192.306 243.649C192.786 243.302 193.386 243.129 194.106 243.129C194.675 243.129 195.138 243.244 195.493 243.476C195.858 243.698 196.129 243.987 196.306 244.342H196.626V243.302H198.453V251.302H196.626V250.262H196.306C196.129 250.591 195.862 250.876 195.506 251.116C195.151 251.356 194.684 251.476 194.106 251.476ZM194.6 250.036C195.169 250.036 195.622 249.787 195.96 249.289C196.306 248.791 196.48 248.129 196.48 247.302C196.48 246.467 196.306 245.804 195.96 245.316C195.622 244.818 195.169 244.569 194.6 244.569C194.066 244.569 193.649 244.8 193.346 245.262C193.053 245.724 192.906 246.404 192.906 247.302C192.906 248.2 193.053 248.88 193.346 249.342C193.649 249.804 194.066 250.036 194.6 250.036ZM203.802 254.169C203.1 254.169 202.527 254.08 202.082 253.902C201.647 253.733 201.305 253.516 201.056 253.249C200.816 252.991 200.642 252.72 200.536 252.436C200.429 252.16 200.367 251.907 200.349 251.676H202.282C202.327 251.951 202.46 252.196 202.682 252.409C202.914 252.631 203.287 252.742 203.802 252.742C204.371 252.742 204.802 252.573 205.096 252.236C205.398 251.907 205.549 251.422 205.549 250.782V249.849H205.229C205.096 250.222 204.86 250.52 204.522 250.742C204.185 250.964 203.736 251.076 203.176 251.076C202.145 251.076 201.354 250.716 200.802 249.996C200.251 249.267 199.976 248.293 199.976 247.076C199.976 246.293 200.096 245.604 200.336 245.009C200.585 244.404 200.945 243.938 201.416 243.609C201.896 243.271 202.491 243.102 203.202 243.102C203.762 243.102 204.207 243.213 204.536 243.436C204.874 243.649 205.122 243.929 205.282 244.276H205.602V243.302H207.429V250.742C207.429 251.836 207.127 252.68 206.522 253.276C205.927 253.871 205.02 254.169 203.802 254.169ZM203.656 249.636C204.225 249.636 204.665 249.404 204.976 248.942C205.296 248.471 205.456 247.853 205.456 247.089C205.456 246.307 205.296 245.689 204.976 245.236C204.656 244.773 204.216 244.542 203.656 244.542C203.14 244.542 202.731 244.756 202.429 245.182C202.127 245.609 201.976 246.244 201.976 247.089C201.976 247.933 202.122 248.569 202.416 248.996C202.718 249.422 203.131 249.636 203.656 249.636ZM212.745 251.502C211.509 251.502 210.567 251.124 209.918 250.369C209.269 249.604 208.945 248.578 208.945 247.289C208.945 246.427 209.087 245.684 209.371 245.062C209.665 244.44 210.091 243.96 210.651 243.622C211.22 243.276 211.913 243.102 212.731 243.102C213.896 243.102 214.785 243.462 215.398 244.182C216.02 244.893 216.331 245.942 216.331 247.329V247.769H210.878C210.922 248.471 211.105 249.031 211.425 249.449C211.745 249.867 212.189 250.076 212.758 250.076C213.193 250.076 213.545 249.947 213.811 249.689C214.078 249.431 214.26 249.116 214.358 248.742H216.238C216.149 249.24 215.967 249.698 215.691 250.116C215.416 250.533 215.033 250.871 214.545 251.129C214.065 251.378 213.465 251.502 212.745 251.502ZM210.878 246.489H214.411C214.376 245.849 214.211 245.351 213.918 244.996C213.633 244.64 213.233 244.462 212.718 244.462C212.193 244.462 211.771 244.636 211.451 244.982C211.14 245.32 210.949 245.822 210.878 246.489ZM220.473 251.476C219.753 251.476 219.157 251.298 218.686 250.942C218.215 250.578 217.859 250.084 217.619 249.462C217.379 248.831 217.259 248.107 217.259 247.289C217.259 246.453 217.379 245.724 217.619 245.102C217.859 244.48 218.215 243.996 218.686 243.649C219.166 243.302 219.757 243.129 220.459 243.129C220.993 243.129 221.424 243.227 221.753 243.422C222.09 243.618 222.357 243.876 222.553 244.196H222.873V240.636H224.846V251.302H223.033V250.262H222.713C222.535 250.591 222.264 250.876 221.899 251.116C221.544 251.356 221.068 251.476 220.473 251.476ZM220.993 250.036C221.57 250.036 222.028 249.787 222.366 249.289C222.704 248.791 222.873 248.129 222.873 247.302C222.873 246.467 222.704 245.804 222.366 245.316C222.028 244.818 221.57 244.569 220.993 244.569C220.468 244.569 220.055 244.8 219.753 245.262C219.459 245.724 219.313 246.404 219.313 247.302C219.313 248.2 219.459 248.88 219.753 249.342C220.055 249.804 220.468 250.036 220.993 250.036ZM159.141 275.302V264.902H161.194V275.302H159.141ZM163.29 275.302V267.302H165.117V268.502H165.437C165.588 268.093 165.837 267.76 166.184 267.502C166.53 267.236 167.019 267.102 167.65 267.102C168.548 267.102 169.215 267.387 169.65 267.956C170.095 268.516 170.317 269.267 170.317 270.209V275.302H168.33V270.556C168.33 269.969 168.224 269.52 168.01 269.209C167.806 268.889 167.473 268.729 167.01 268.729C166.459 268.729 166.033 268.947 165.73 269.382C165.428 269.809 165.277 270.342 165.277 270.982V275.302H163.29ZM175.152 275.502C174.299 275.502 173.615 275.364 173.099 275.089C172.584 274.813 172.201 274.462 171.952 274.036C171.712 273.609 171.579 273.178 171.552 272.742H173.446C173.481 272.982 173.57 273.204 173.712 273.409C173.864 273.613 174.064 273.778 174.312 273.902C174.57 274.018 174.881 274.076 175.246 274.076C175.681 274.076 176.001 273.996 176.206 273.836C176.41 273.676 176.512 273.471 176.512 273.222C176.512 272.991 176.424 272.796 176.246 272.636C176.068 272.476 175.779 272.329 175.379 272.196L174.419 271.876C173.966 271.716 173.548 271.542 173.166 271.356C172.792 271.16 172.49 270.911 172.259 270.609C172.037 270.307 171.926 269.92 171.926 269.449C171.926 268.747 172.188 268.182 172.712 267.756C173.246 267.32 173.992 267.102 174.952 267.102C175.646 267.102 176.215 267.213 176.659 267.436C177.104 267.649 177.437 267.942 177.659 268.316C177.89 268.68 178.024 269.089 178.059 269.542H176.232C176.188 269.213 176.055 268.951 175.832 268.756C175.61 268.56 175.29 268.462 174.872 268.462C174.508 268.462 174.232 268.538 174.046 268.689C173.859 268.831 173.766 269.027 173.766 269.276C173.766 269.524 173.864 269.729 174.059 269.889C174.255 270.049 174.548 270.196 174.939 270.329L175.899 270.649C176.352 270.791 176.766 270.96 177.139 271.156C177.512 271.342 177.81 271.587 178.032 271.889C178.255 272.191 178.366 272.582 178.366 273.062C178.366 273.791 178.09 274.382 177.539 274.836C176.988 275.28 176.192 275.502 175.152 275.502ZM180.892 275.302C180.688 275.062 180.524 274.773 180.399 274.436C180.284 274.098 180.226 273.591 180.226 272.916V268.716H179.132V267.302H180.252V265.302H182.186V267.302H183.506V268.716H182.199V272.689C182.199 273.4 182.279 273.942 182.439 274.316C182.599 274.68 182.79 274.982 183.012 275.222V275.302H180.892ZM187.638 275.476C186.909 275.476 186.304 275.298 185.824 274.942C185.344 274.578 184.984 274.084 184.744 273.462C184.513 272.831 184.398 272.107 184.398 271.289C184.398 270.453 184.518 269.724 184.758 269.102C184.998 268.48 185.358 267.996 185.838 267.649C186.318 267.302 186.918 267.129 187.638 267.129C188.207 267.129 188.669 267.244 189.024 267.476C189.389 267.698 189.66 267.987 189.838 268.342H190.158V267.302H191.984V275.302H190.158V274.262H189.838C189.66 274.591 189.393 274.876 189.038 275.116C188.682 275.356 188.215 275.476 187.638 275.476ZM188.131 274.036C188.7 274.036 189.153 273.787 189.491 273.289C189.838 272.791 190.011 272.129 190.011 271.302C190.011 270.467 189.838 269.804 189.491 269.316C189.153 268.818 188.7 268.569 188.131 268.569C187.598 268.569 187.18 268.8 186.878 269.262C186.584 269.724 186.438 270.404 186.438 271.302C186.438 272.2 186.584 272.88 186.878 273.342C187.18 273.804 187.598 274.036 188.131 274.036ZM194.04 275.302V267.302H195.867V268.502H196.187C196.338 268.093 196.587 267.76 196.934 267.502C197.28 267.236 197.769 267.102 198.4 267.102C199.298 267.102 199.965 267.387 200.4 267.956C200.845 268.516 201.067 269.267 201.067 270.209V275.302H199.08V270.556C199.08 269.969 198.974 269.52 198.76 269.209C198.556 268.889 198.223 268.729 197.76 268.729C197.209 268.729 196.783 268.947 196.48 269.382C196.178 269.809 196.027 270.342 196.027 270.982V275.302H194.04ZM206.196 275.502C204.978 275.502 204.054 275.124 203.422 274.369C202.791 273.604 202.476 272.582 202.476 271.302C202.476 269.96 202.805 268.924 203.462 268.196C204.129 267.467 205.045 267.102 206.209 267.102C207.24 267.102 208.054 267.378 208.649 267.929C209.245 268.48 209.6 269.236 209.716 270.196H207.769C207.707 269.662 207.542 269.253 207.276 268.969C207.009 268.676 206.662 268.529 206.236 268.529C205.676 268.529 205.249 268.773 204.956 269.262C204.662 269.742 204.516 270.422 204.516 271.302C204.516 272.182 204.658 272.862 204.942 273.342C205.236 273.822 205.662 274.062 206.222 274.062C206.658 274.062 207.009 273.92 207.276 273.636C207.542 273.342 207.707 272.929 207.769 272.396H209.716C209.591 273.356 209.227 274.116 208.622 274.676C208.027 275.227 207.218 275.502 206.196 275.502ZM214.448 275.502C213.212 275.502 212.27 275.124 211.621 274.369C210.972 273.604 210.648 272.578 210.648 271.289C210.648 270.427 210.79 269.684 211.074 269.062C211.368 268.44 211.794 267.96 212.354 267.622C212.923 267.276 213.617 267.102 214.434 267.102C215.599 267.102 216.488 267.462 217.101 268.182C217.723 268.893 218.034 269.942 218.034 271.329V271.769H212.581C212.625 272.471 212.808 273.031 213.128 273.449C213.448 273.867 213.892 274.076 214.461 274.076C214.897 274.076 215.248 273.947 215.514 273.689C215.781 273.431 215.963 273.116 216.061 272.742H217.941C217.852 273.24 217.67 273.698 217.394 274.116C217.119 274.533 216.737 274.871 216.248 275.129C215.768 275.378 215.168 275.502 214.448 275.502ZM212.581 270.489H216.114C216.079 269.849 215.914 269.351 215.621 268.996C215.337 268.64 214.937 268.462 214.421 268.462C213.897 268.462 213.474 268.636 213.154 268.982C212.843 269.32 212.652 269.822 212.581 270.489ZM222.402 275.502C221.549 275.502 220.865 275.364 220.349 275.089C219.834 274.813 219.451 274.462 219.202 274.036C218.962 273.609 218.829 273.178 218.802 272.742H220.696C220.731 272.982 220.82 273.204 220.962 273.409C221.114 273.613 221.314 273.778 221.562 273.902C221.82 274.018 222.131 274.076 222.496 274.076C222.931 274.076 223.251 273.996 223.456 273.836C223.66 273.676 223.762 273.471 223.762 273.222C223.762 272.991 223.674 272.796 223.496 272.636C223.318 272.476 223.029 272.329 222.629 272.196L221.669 271.876C221.216 271.716 220.798 271.542 220.416 271.356C220.042 271.16 219.74 270.911 219.509 270.609C219.287 270.307 219.176 269.92 219.176 269.449C219.176 268.747 219.438 268.182 219.962 267.756C220.496 267.32 221.242 267.102 222.202 267.102C222.896 267.102 223.465 267.213 223.909 267.436C224.354 267.649 224.687 267.942 224.909 268.316C225.14 268.68 225.274 269.089 225.309 269.542H223.482C223.438 269.213 223.305 268.951 223.082 268.756C222.86 268.56 222.54 268.462 222.122 268.462C221.758 268.462 221.482 268.538 221.296 268.689C221.109 268.831 221.016 269.027 221.016 269.276C221.016 269.524 221.114 269.729 221.309 269.889C221.505 270.049 221.798 270.196 222.189 270.329L223.149 270.649C223.602 270.791 224.016 270.96 224.389 271.156C224.762 271.342 225.06 271.587 225.282 271.889C225.505 272.191 225.616 272.582 225.616 273.062C225.616 273.791 225.34 274.382 224.789 274.836C224.238 275.28 223.442 275.502 222.402 275.502Z" fill="#111827"/>
<rect x="864.511" y="161.491" width="159.489" height="62.9785" fill="#FAFAFA"/>
<path d="M898.948 186.967V176.567H902.575C904.406 176.567 905.735 177.025 906.562 177.94C907.397 178.847 907.815 180.123 907.815 181.767C907.815 183.411 907.397 184.691 906.562 185.607C905.735 186.514 904.406 186.967 902.575 186.967H898.948ZM901.002 185.354H902.442C903.179 185.354 903.788 185.238 904.268 185.007C904.748 184.776 905.104 184.403 905.335 183.887C905.575 183.363 905.695 182.656 905.695 181.767C905.695 180.878 905.575 180.171 905.335 179.647C905.104 179.123 904.748 178.749 904.268 178.527C903.788 178.296 903.179 178.18 902.442 178.18H901.002V185.354ZM912.55 187.167C911.314 187.167 910.372 186.789 909.723 186.034C909.074 185.269 908.75 184.243 908.75 182.954C908.75 182.091 908.892 181.349 909.177 180.727C909.47 180.105 909.897 179.625 910.457 179.287C911.025 178.94 911.719 178.767 912.537 178.767C913.701 178.767 914.59 179.127 915.203 179.847C915.825 180.558 916.137 181.607 916.137 182.994V183.434H910.683C910.728 184.136 910.91 184.696 911.23 185.114C911.55 185.531 911.994 185.74 912.563 185.74C912.999 185.74 913.35 185.611 913.617 185.354C913.883 185.096 914.065 184.78 914.163 184.407H916.043C915.954 184.905 915.772 185.363 915.497 185.78C915.221 186.198 914.839 186.536 914.35 186.794C913.87 187.043 913.27 187.167 912.55 187.167ZM910.683 182.154H914.217C914.181 181.514 914.017 181.016 913.723 180.66C913.439 180.305 913.039 180.127 912.523 180.127C911.999 180.127 911.577 180.3 911.257 180.647C910.945 180.985 910.754 181.487 910.683 182.154ZM918.964 186.967L916.631 179.047V178.967H918.631L920.417 185.34H920.737L922.537 178.967H924.364V179.047L922.031 186.967H918.964ZM928.847 187.167C927.611 187.167 926.669 186.789 926.02 186.034C925.371 185.269 925.047 184.243 925.047 182.954C925.047 182.091 925.189 181.349 925.473 180.727C925.767 180.105 926.193 179.625 926.753 179.287C927.322 178.94 928.016 178.767 928.833 178.767C929.998 178.767 930.887 179.127 931.5 179.847C932.122 180.558 932.433 181.607 932.433 182.994V183.434H926.98C927.025 184.136 927.207 184.696 927.527 185.114C927.847 185.531 928.291 185.74 928.86 185.74C929.296 185.74 929.647 185.611 929.913 185.354C930.18 185.096 930.362 184.78 930.46 184.407H932.34C932.251 184.905 932.069 185.363 931.793 185.78C931.518 186.198 931.136 186.536 930.647 186.794C930.167 187.043 929.567 187.167 928.847 187.167ZM926.98 182.154H930.513C930.478 181.514 930.313 181.016 930.02 180.66C929.736 180.305 929.336 180.127 928.82 180.127C928.296 180.127 927.873 180.3 927.553 180.647C927.242 180.985 927.051 181.487 926.98 182.154ZM934.548 186.967C934.308 186.691 934.135 186.376 934.028 186.02C933.922 185.665 933.868 185.185 933.868 184.58V176.3H935.855V184.367C935.855 185.051 935.93 185.58 936.082 185.954C936.233 186.318 936.428 186.629 936.668 186.887V186.967H934.548ZM941.306 187.167C940.009 187.167 939.04 186.789 938.4 186.034C937.769 185.269 937.453 184.247 937.453 182.967C937.453 181.687 937.769 180.669 938.4 179.914C939.04 179.149 940.009 178.767 941.306 178.767C942.604 178.767 943.573 179.149 944.213 179.914C944.853 180.669 945.173 181.687 945.173 182.967C945.173 184.247 944.853 185.269 944.213 186.034C943.573 186.789 942.604 187.167 941.306 187.167ZM941.306 185.794C941.937 185.794 942.395 185.554 942.68 185.074C942.973 184.585 943.12 183.883 943.12 182.967C943.12 182.043 942.973 181.34 942.68 180.86C942.395 180.38 941.937 180.14 941.306 180.14C940.684 180.14 940.226 180.38 939.933 180.86C939.64 181.34 939.493 182.043 939.493 182.967C939.493 183.883 939.64 184.585 939.933 185.074C940.226 185.554 940.684 185.794 941.306 185.794ZM946.689 189.634V178.967H948.516V180.007H948.836C949.005 179.669 949.267 179.385 949.623 179.154C949.987 178.914 950.467 178.794 951.063 178.794C951.783 178.794 952.378 178.971 952.849 179.327C953.329 179.683 953.685 180.176 953.916 180.807C954.156 181.429 954.276 182.154 954.276 182.98C954.276 183.798 954.156 184.523 953.916 185.154C953.676 185.785 953.316 186.274 952.836 186.62C952.365 186.967 951.778 187.14 951.076 187.14C950.552 187.14 950.121 187.043 949.783 186.847C949.445 186.651 949.183 186.389 948.996 186.06H948.676V189.634H946.689ZM950.543 185.7C951.076 185.7 951.489 185.469 951.783 185.007C952.076 184.545 952.223 183.865 952.223 182.967C952.223 182.069 952.076 181.389 951.783 180.927C951.489 180.465 951.076 180.234 950.543 180.234C949.974 180.234 949.516 180.483 949.169 180.98C948.832 181.469 948.663 182.131 948.663 182.967C948.663 183.794 948.832 184.456 949.169 184.954C949.516 185.451 949.974 185.7 950.543 185.7ZM955.799 186.967V178.967H957.626V180.167H957.946C958.088 179.767 958.323 179.434 958.652 179.167C958.99 178.9 959.461 178.767 960.066 178.767C960.626 178.767 961.088 178.891 961.452 179.14C961.817 179.38 962.097 179.723 962.292 180.167H962.612C962.763 179.758 963.012 179.425 963.359 179.167C963.706 178.9 964.172 178.767 964.759 178.767C965.63 178.767 966.274 179.051 966.692 179.62C967.11 180.18 967.319 180.931 967.319 181.874V186.967H965.346V182.22C965.346 181.643 965.248 181.194 965.052 180.874C964.866 180.554 964.563 180.394 964.146 180.394C963.63 180.394 963.234 180.611 962.959 181.047C962.683 181.483 962.546 182.016 962.546 182.647V186.967H960.572V182.22C960.572 181.643 960.474 181.194 960.279 180.874C960.092 180.554 959.79 180.394 959.372 180.394C958.866 180.394 958.474 180.611 958.199 181.047C957.923 181.483 957.786 182.016 957.786 182.647V186.967H955.799ZM972.534 187.167C971.299 187.167 970.356 186.789 969.708 186.034C969.059 185.269 968.734 184.243 968.734 182.954C968.734 182.091 968.876 181.349 969.161 180.727C969.454 180.105 969.881 179.625 970.441 179.287C971.01 178.94 971.703 178.767 972.521 178.767C973.685 178.767 974.574 179.127 975.188 179.847C975.81 180.558 976.121 181.607 976.121 182.994V183.434H970.668C970.712 184.136 970.894 184.696 971.214 185.114C971.534 185.531 971.979 185.74 972.548 185.74C972.983 185.74 973.334 185.611 973.601 185.354C973.868 185.096 974.05 184.78 974.148 184.407H976.028C975.939 184.905 975.756 185.363 975.481 185.78C975.205 186.198 974.823 186.536 974.334 186.794C973.854 187.043 973.254 187.167 972.534 187.167ZM970.668 182.154H974.201C974.165 181.514 974.001 181.016 973.708 180.66C973.423 180.305 973.023 180.127 972.508 180.127C971.983 180.127 971.561 180.3 971.241 180.647C970.93 180.985 970.739 181.487 970.668 182.154ZM977.596 186.967V178.967H979.422V180.167H979.742C979.894 179.758 980.142 179.425 980.489 179.167C980.836 178.9 981.325 178.767 981.956 178.767C982.854 178.767 983.52 179.051 983.956 179.62C984.4 180.18 984.622 180.931 984.622 181.874V186.967H982.636V182.22C982.636 181.634 982.529 181.185 982.316 180.874C982.111 180.554 981.778 180.394 981.316 180.394C980.765 180.394 980.338 180.611 980.036 181.047C979.734 181.474 979.582 182.007 979.582 182.647V186.967H977.596ZM987.698 186.967C987.493 186.727 987.329 186.438 987.204 186.1C987.089 185.763 987.031 185.256 987.031 184.58V180.38H985.938V178.967H987.058V176.967H988.991V178.967H990.311V180.38H989.004V184.354C989.004 185.065 989.084 185.607 989.244 185.98C989.404 186.345 989.596 186.647 989.818 186.887V186.967H987.698ZM914.755 211.167C913.27 211.167 912.115 210.691 911.288 209.74C910.461 208.789 910.048 207.465 910.048 205.767C910.048 204.078 910.457 202.758 911.275 201.807C912.093 200.847 913.253 200.367 914.755 200.367C915.644 200.367 916.408 200.536 917.048 200.874C917.688 201.203 918.19 201.665 918.555 202.26C918.919 202.856 919.133 203.545 919.195 204.327H917.141C917.07 203.58 916.821 202.994 916.395 202.567C915.977 202.14 915.43 201.927 914.755 201.927C913.901 201.927 913.257 202.265 912.821 202.94C912.386 203.607 912.168 204.554 912.168 205.78C912.168 207.043 912.39 207.998 912.835 208.647C913.288 209.287 913.924 209.607 914.741 209.607C915.453 209.607 916.013 209.385 916.421 208.94C916.839 208.496 917.079 207.918 917.141 207.207H919.195C919.133 207.98 918.919 208.665 918.555 209.26C918.19 209.856 917.688 210.323 917.048 210.66C916.417 210.998 915.653 211.167 914.755 211.167ZM923.924 211.167C922.626 211.167 921.657 210.789 921.017 210.034C920.386 209.269 920.07 208.247 920.07 206.967C920.07 205.687 920.386 204.669 921.017 203.914C921.657 203.149 922.626 202.767 923.924 202.767C925.221 202.767 926.19 203.149 926.83 203.914C927.47 204.669 927.79 205.687 927.79 206.967C927.79 208.247 927.47 209.269 926.83 210.034C926.19 210.789 925.221 211.167 923.924 211.167ZM923.924 209.794C924.555 209.794 925.012 209.554 925.297 209.074C925.59 208.585 925.737 207.883 925.737 206.967C925.737 206.043 925.59 205.34 925.297 204.86C925.012 204.38 924.555 204.14 923.924 204.14C923.301 204.14 922.844 204.38 922.55 204.86C922.257 205.34 922.11 206.043 922.11 206.967C922.11 207.883 922.257 208.585 922.55 209.074C922.844 209.554 923.301 209.794 923.924 209.794ZM929.307 210.967V202.967H931.133V204.167H931.453C931.604 203.758 931.853 203.425 932.2 203.167C932.547 202.9 933.036 202.767 933.667 202.767C934.564 202.767 935.231 203.051 935.667 203.62C936.111 204.18 936.333 204.931 936.333 205.874V210.967H934.347V206.22C934.347 205.634 934.24 205.185 934.027 204.874C933.822 204.554 933.489 204.394 933.027 204.394C932.476 204.394 932.049 204.611 931.747 205.047C931.444 205.474 931.293 206.007 931.293 206.647V210.967H929.307ZM939.409 210.967C939.204 210.727 939.04 210.438 938.915 210.1C938.8 209.763 938.742 209.256 938.742 208.58V204.38H937.649V202.967H938.769V200.967H940.702V202.967H942.022V204.38H940.715V208.354C940.715 209.065 940.795 209.607 940.955 209.98C941.115 210.345 941.307 210.647 941.529 210.887V210.967H939.409ZM946.154 211.14C945.425 211.14 944.821 210.963 944.341 210.607C943.861 210.243 943.501 209.749 943.261 209.127C943.03 208.496 942.914 207.771 942.914 206.954C942.914 206.118 943.034 205.389 943.274 204.767C943.514 204.145 943.874 203.66 944.354 203.314C944.834 202.967 945.434 202.794 946.154 202.794C946.723 202.794 947.185 202.909 947.541 203.14C947.905 203.363 948.176 203.651 948.354 204.007H948.674V202.967H950.501V210.967H948.674V209.927H948.354C948.176 210.256 947.91 210.54 947.554 210.78C947.198 211.02 946.732 211.14 946.154 211.14ZM946.647 209.7C947.216 209.7 947.67 209.451 948.007 208.954C948.354 208.456 948.527 207.794 948.527 206.967C948.527 206.131 948.354 205.469 948.007 204.98C947.67 204.483 947.216 204.234 946.647 204.234C946.114 204.234 945.696 204.465 945.394 204.927C945.101 205.389 944.954 206.069 944.954 206.967C944.954 207.865 945.101 208.545 945.394 209.007C945.696 209.469 946.114 209.7 946.647 209.7ZM952.557 210.967V202.967H954.543V210.967H952.557ZM953.543 201.994C953.188 201.994 952.917 201.9 952.73 201.714C952.543 201.518 952.45 201.269 952.45 200.967C952.45 200.656 952.543 200.407 952.73 200.22C952.917 200.034 953.188 199.94 953.543 199.94C953.899 199.94 954.17 200.034 954.357 200.22C954.543 200.407 954.637 200.656 954.637 200.967C954.637 201.269 954.543 201.518 954.357 201.714C954.17 201.9 953.899 201.994 953.543 201.994ZM956.604 210.967V202.967H958.43V204.167H958.75C958.901 203.758 959.15 203.425 959.497 203.167C959.844 202.9 960.332 202.767 960.964 202.767C961.861 202.767 962.528 203.051 962.964 203.62C963.408 204.18 963.63 204.931 963.63 205.874V210.967H961.644V206.22C961.644 205.634 961.537 205.185 961.324 204.874C961.119 204.554 960.786 204.394 960.324 204.394C959.772 204.394 959.346 204.611 959.044 205.047C958.741 205.474 958.59 206.007 958.59 206.647V210.967H956.604ZM968.839 211.167C967.603 211.167 966.661 210.789 966.012 210.034C965.363 209.269 965.039 208.243 965.039 206.954C965.039 206.091 965.181 205.349 965.466 204.727C965.759 204.105 966.186 203.625 966.746 203.287C967.315 202.94 968.008 202.767 968.826 202.767C969.99 202.767 970.879 203.127 971.492 203.847C972.115 204.558 972.426 205.607 972.426 206.994V207.434H966.972C967.017 208.136 967.199 208.696 967.519 209.114C967.839 209.531 968.283 209.74 968.852 209.74C969.288 209.74 969.639 209.611 969.906 209.354C970.172 209.096 970.355 208.78 970.452 208.407H972.332C972.243 208.905 972.061 209.363 971.786 209.78C971.51 210.198 971.128 210.536 970.639 210.794C970.159 211.043 969.559 211.167 968.839 211.167ZM966.972 206.154H970.506C970.47 205.514 970.306 205.016 970.012 204.66C969.728 204.305 969.328 204.127 968.812 204.127C968.288 204.127 967.866 204.3 967.546 204.647C967.235 204.985 967.043 205.487 966.972 206.154ZM973.887 210.967V202.967H975.687V204.407H976.007C976.06 204.149 976.158 203.905 976.3 203.674C976.443 203.443 976.665 203.256 976.967 203.114C977.269 202.963 977.678 202.887 978.194 202.887H978.58V204.687H978.034C977.269 204.687 976.718 204.883 976.38 205.274C976.043 205.665 975.874 206.256 975.874 207.047V210.967H973.887Z" fill="#111827"/>
<rect y="33.6169" width="127.494" height="62.8221" fill="#FAFAFA"/>
<path d="M35.4949 59.028V48.628H42.4816V50.2547H37.5216V52.7213H41.3616V54.2413H37.5216V57.388H42.5616V59.028H35.4949ZM43.3672 59.028V58.948L45.8338 54.8413L43.6338 51.108V51.028H45.7805L47.1538 53.508H47.4472L48.7805 51.028H50.7538V51.108L48.6605 54.8013L51.0872 58.948V59.028H48.9005L47.2872 56.108H46.9938L45.4072 59.028H43.3672ZM53.4163 59.028C53.2119 58.788 53.0475 58.4991 52.923 58.1613C52.8075 57.8236 52.7497 57.3169 52.7497 56.6413V52.4413H51.6563V51.028H52.7763V49.028H54.7097V51.028H56.0297V52.4413H54.723V56.4147C54.723 57.1258 54.803 57.668 54.963 58.0413C55.123 58.4058 55.3141 58.708 55.5363 58.948V59.028H53.4163ZM60.7216 59.228C59.486 59.228 58.5438 58.8502 57.8949 58.0947C57.246 57.3302 56.9216 56.3036 56.9216 55.0147C56.9216 54.1525 57.0638 53.4102 57.3482 52.788C57.6416 52.1658 58.0682 51.6858 58.6282 51.348C59.1971 51.0013 59.8904 50.828 60.7082 50.828C61.8727 50.828 62.7616 51.188 63.3749 51.908C63.9971 52.6191 64.3082 53.668 64.3082 55.0547V55.4947H58.8549C58.8993 56.1969 59.0816 56.7569 59.4016 57.1747C59.7216 57.5925 60.166 57.8013 60.7349 57.8013C61.1704 57.8013 61.5216 57.6725 61.7882 57.4147C62.0549 57.1569 62.2371 56.8413 62.3349 56.468H64.2149C64.126 56.9658 63.9438 57.4236 63.6682 57.8413C63.3927 58.2591 63.0104 58.5969 62.5216 58.8547C62.0416 59.1036 61.4416 59.228 60.7216 59.228ZM58.8549 54.2147H62.3882C62.3527 53.5747 62.1882 53.0769 61.8949 52.7213C61.6104 52.3658 61.2104 52.188 60.6949 52.188C60.1704 52.188 59.7482 52.3613 59.4282 52.708C59.1171 53.0458 58.926 53.548 58.8549 54.2147ZM65.7697 59.028V51.028H67.5697V52.468H67.8897C67.943 52.2102 68.0408 51.9658 68.183 51.7347C68.3252 51.5036 68.5475 51.3169 68.8497 51.1747C69.1519 51.0236 69.5608 50.948 70.0763 50.948H70.463V52.748H69.9163C69.1519 52.748 68.6008 52.9436 68.263 53.3347C67.9252 53.7258 67.7563 54.3169 67.7563 55.108V59.028H65.7697ZM71.8924 59.028V51.028H73.7191V52.228H74.0391C74.1902 51.8191 74.4391 51.4858 74.7857 51.228C75.1324 50.9613 75.6213 50.828 76.2524 50.828C77.1502 50.828 77.8168 51.1125 78.2524 51.6813C78.6968 52.2413 78.9191 52.9925 78.9191 53.9347V59.028H76.9324V54.2813C76.9324 53.6947 76.8257 53.2458 76.6124 52.9347C76.4079 52.6147 76.0746 52.4547 75.6124 52.4547C75.0613 52.4547 74.6346 52.6725 74.3324 53.108C74.0302 53.5347 73.8791 54.068 73.8791 54.708V59.028H71.8924ZM83.5678 59.2013C82.8389 59.2013 82.2345 59.0236 81.7545 58.668C81.2745 58.3036 80.9145 57.8102 80.6745 57.188C80.4434 56.5569 80.3278 55.8325 80.3278 55.0147C80.3278 54.1791 80.4478 53.4502 80.6878 52.828C80.9278 52.2058 81.2878 51.7213 81.7678 51.3747C82.2478 51.028 82.8478 50.8547 83.5678 50.8547C84.1367 50.8547 84.5989 50.9702 84.9545 51.2013C85.3189 51.4236 85.59 51.7125 85.7678 52.068H86.0878V51.028H87.9145V59.028H86.0878V57.988H85.7678C85.59 58.3169 85.3234 58.6013 84.9678 58.8413C84.6123 59.0813 84.1456 59.2013 83.5678 59.2013ZM84.0611 57.7613C84.63 57.7613 85.0834 57.5125 85.4211 57.0147C85.7678 56.5169 85.9411 55.8547 85.9411 55.028C85.9411 54.1925 85.7678 53.5302 85.4211 53.0413C85.0834 52.5436 84.63 52.2947 84.0611 52.2947C83.5278 52.2947 83.11 52.5258 82.8078 52.988C82.5145 53.4502 82.3678 54.1302 82.3678 55.028C82.3678 55.9258 82.5145 56.6058 82.8078 57.068C83.11 57.5302 83.5278 57.7613 84.0611 57.7613ZM90.6105 59.028C90.3705 58.7525 90.1972 58.4369 90.0905 58.0813C89.9838 57.7258 89.9305 57.2458 89.9305 56.6413V48.3613H91.9172V56.428C91.9172 57.1125 91.9927 57.6413 92.1438 58.0147C92.295 58.3791 92.4905 58.6902 92.7305 58.948V59.028H90.6105ZM24.698 83.028V72.628H26.698V76.7213H27.498L30.618 72.628H32.8847V72.708L29.1913 77.4547L33.418 82.948V83.028H30.9647L27.498 78.3747H26.698V83.028H24.698ZM36.6197 83.228C35.713 83.228 35.0375 82.948 34.593 82.388C34.1486 81.8191 33.9263 81.0636 33.9263 80.1213V75.028H35.913V79.7747C35.913 80.3525 36.0152 80.8013 36.2197 81.1213C36.433 81.4413 36.7663 81.6013 37.2197 81.6013C37.7797 81.6013 38.2108 81.3836 38.513 80.948C38.8152 80.5125 38.9663 79.9791 38.9663 79.348V75.028H40.953V83.028H39.1663V81.828H38.8463C38.713 82.2369 38.4641 82.5747 38.0997 82.8413C37.7441 83.0991 37.2508 83.228 36.6197 83.228ZM47.3751 83.2013C46.7795 83.2013 46.2995 83.0813 45.9351 82.8413C45.5795 82.6013 45.3173 82.3169 45.1484 81.988H44.8284V83.028H43.0018V72.3613H44.9884V75.9213H45.3084C45.4951 75.6013 45.7573 75.3436 46.0951 75.148C46.4329 74.9525 46.864 74.8547 47.3884 74.8547C48.0907 74.8547 48.6773 75.028 49.1484 75.3747C49.6284 75.7213 49.9884 76.2058 50.2284 76.828C50.4684 77.4502 50.5884 78.1791 50.5884 79.0147C50.5884 79.8325 50.4684 80.5569 50.2284 81.188C49.9973 81.8102 49.6418 82.3036 49.1618 82.668C48.6907 83.0236 48.0951 83.2013 47.3751 83.2013ZM46.8551 81.7613C47.3884 81.7613 47.8018 81.5302 48.0951 81.068C48.3884 80.6058 48.5351 79.9258 48.5351 79.028C48.5351 78.1302 48.3884 77.4502 48.0951 76.988C47.8018 76.5258 47.3884 76.2947 46.8551 76.2947C46.2862 76.2947 45.8284 76.5436 45.4818 77.0413C45.144 77.5302 44.9751 78.1925 44.9751 79.028C44.9751 79.8547 45.144 80.5169 45.4818 81.0147C45.8284 81.5125 46.2862 81.7613 46.8551 81.7613ZM55.3778 83.228C54.1423 83.228 53.2 82.8502 52.5511 82.0947C51.9023 81.3302 51.5778 80.3036 51.5778 79.0147C51.5778 78.1525 51.72 77.4102 52.0045 76.788C52.2978 76.1658 52.7245 75.6858 53.2845 75.348C53.8534 75.0013 54.5467 74.828 55.3645 74.828C56.5289 74.828 57.4178 75.188 58.0311 75.908C58.6534 76.6191 58.9645 77.668 58.9645 79.0547V79.4947H53.5111C53.5556 80.1969 53.7378 80.7569 54.0578 81.1747C54.3778 81.5925 54.8223 81.8013 55.3911 81.8013C55.8267 81.8013 56.1778 81.6725 56.4445 81.4147C56.7111 81.1569 56.8934 80.8413 56.9911 80.468H58.8711C58.7823 80.9658 58.6 81.4236 58.3245 81.8413C58.0489 82.2591 57.6667 82.5969 57.1778 82.8547C56.6978 83.1036 56.0978 83.228 55.3778 83.228ZM53.5111 78.2147H57.0445C57.0089 77.5747 56.8445 77.0769 56.5511 76.7213C56.2667 76.3658 55.8667 76.188 55.3511 76.188C54.8267 76.188 54.4045 76.3613 54.0845 76.708C53.7734 77.0458 53.5823 77.548 53.5111 78.2147ZM60.4259 83.028V75.028H62.2259V76.468H62.5459C62.5993 76.2102 62.697 75.9658 62.8393 75.7347C62.9815 75.5036 63.2037 75.3169 63.5059 75.1747C63.8082 75.0236 64.217 74.948 64.7326 74.948H65.1193V76.748H64.5726C63.8082 76.748 63.257 76.9436 62.9193 77.3347C62.5815 77.7258 62.4126 78.3169 62.4126 79.108V83.028H60.4259ZM66.5486 83.028V75.028H68.3753V76.228H68.6953C68.8464 75.8191 69.0953 75.4858 69.442 75.228C69.7886 74.9613 70.2775 74.828 70.9086 74.828C71.8064 74.828 72.4731 75.1125 72.9086 75.6813C73.3531 76.2413 73.5753 76.9925 73.5753 77.9347V83.028H71.5886V78.2813C71.5886 77.6947 71.482 77.2458 71.2686 76.9347C71.0642 76.6147 70.7309 76.4547 70.2686 76.4547C69.7175 76.4547 69.2909 76.6725 68.9886 77.108C68.6864 77.5347 68.5353 78.068 68.5353 78.708V83.028H66.5486ZM78.7841 83.228C77.5485 83.228 76.6063 82.8502 75.9574 82.0947C75.3085 81.3302 74.9841 80.3036 74.9841 79.0147C74.9841 78.1525 75.1263 77.4102 75.4107 76.788C75.7041 76.1658 76.1307 75.6858 76.6907 75.348C77.2596 75.0013 77.9529 74.828 78.7707 74.828C79.9352 74.828 80.8241 75.188 81.4374 75.908C82.0596 76.6191 82.3707 77.668 82.3707 79.0547V79.4947H76.9174C76.9618 80.1969 77.1441 80.7569 77.4641 81.1747C77.7841 81.5925 78.2285 81.8013 78.7974 81.8013C79.2329 81.8013 79.5841 81.6725 79.8507 81.4147C80.1174 81.1569 80.2996 80.8413 80.3974 80.468H82.2774C82.1885 80.9658 82.0063 81.4236 81.7307 81.8413C81.4552 82.2591 81.0729 82.5969 80.5841 82.8547C80.1041 83.1036 79.5041 83.228 78.7841 83.228ZM76.9174 78.2147H80.4507C80.4152 77.5747 80.2507 77.0769 79.9574 76.7213C79.6729 76.3658 79.2729 76.188 78.7574 76.188C78.2329 76.188 77.8107 76.3613 77.4907 76.708C77.1796 77.0458 76.9885 77.548 76.9174 78.2147ZM84.9788 83.028C84.7744 82.788 84.61 82.4991 84.4855 82.1613C84.37 81.8236 84.3122 81.3169 84.3122 80.6413V76.4413H83.2188V75.028H84.3388V73.028H86.2722V75.028H87.5922V76.4413H86.2855V80.4147C86.2855 81.1258 86.3655 81.668 86.5255 82.0413C86.6855 82.4058 86.8766 82.708 87.0988 82.948V83.028H84.9788ZM92.2841 83.228C91.0485 83.228 90.1063 82.8502 89.4574 82.0947C88.8085 81.3302 88.4841 80.3036 88.4841 79.0147C88.4841 78.1525 88.6263 77.4102 88.9107 76.788C89.2041 76.1658 89.6307 75.6858 90.1907 75.348C90.7596 75.0013 91.4529 74.828 92.2707 74.828C93.4352 74.828 94.3241 75.188 94.9374 75.908C95.5596 76.6191 95.8707 77.668 95.8707 79.0547V79.4947H90.4174C90.4618 80.1969 90.6441 80.7569 90.9641 81.1747C91.2841 81.5925 91.7285 81.8013 92.2974 81.8013C92.7329 81.8013 93.0841 81.6725 93.3507 81.4147C93.6174 81.1569 93.7996 80.8413 93.8974 80.468H95.7774C95.6885 80.9658 95.5063 81.4236 95.2307 81.8413C94.9552 82.2591 94.5729 82.5969 94.0841 82.8547C93.6041 83.1036 93.0041 83.228 92.2841 83.228ZM90.4174 78.2147H93.9507C93.9152 77.5747 93.7507 77.0769 93.4574 76.7213C93.1729 76.3658 92.7729 76.188 92.2574 76.188C91.7329 76.188 91.3107 76.3613 90.9907 76.708C90.6796 77.0458 90.4885 77.548 90.4174 78.2147ZM100.239 83.228C99.3855 83.228 98.7011 83.0902 98.1855 82.8147C97.67 82.5391 97.2877 82.188 97.0388 81.7613C96.7988 81.3347 96.6655 80.9036 96.6388 80.468H98.5322C98.5677 80.708 98.6566 80.9302 98.7988 81.1347C98.95 81.3391 99.15 81.5036 99.3988 81.628C99.6566 81.7436 99.9677 81.8013 100.332 81.8013C100.768 81.8013 101.088 81.7213 101.292 81.5613C101.497 81.4013 101.599 81.1969 101.599 80.948C101.599 80.7169 101.51 80.5213 101.332 80.3613C101.154 80.2013 100.866 80.0547 100.466 79.9213L99.5055 79.6013C99.0522 79.4413 98.6344 79.268 98.2522 79.0813C97.8788 78.8858 97.5766 78.6369 97.3455 78.3347C97.1233 78.0325 97.0122 77.6458 97.0122 77.1747C97.0122 76.4725 97.2744 75.908 97.7988 75.4813C98.3322 75.0458 99.0788 74.828 100.039 74.828C100.732 74.828 101.301 74.9391 101.746 75.1613C102.19 75.3747 102.523 75.668 102.746 76.0413C102.977 76.4058 103.11 76.8147 103.146 77.268H101.319C101.274 76.9391 101.141 76.6769 100.919 76.4813C100.697 76.2858 100.377 76.188 99.9588 76.188C99.5944 76.188 99.3188 76.2636 99.1322 76.4147C98.9455 76.5569 98.8522 76.7525 98.8522 77.0013C98.8522 77.2502 98.95 77.4547 99.1455 77.6147C99.3411 77.7747 99.6344 77.9213 100.026 78.0547L100.986 78.3747C101.439 78.5169 101.852 78.6858 102.226 78.8813C102.599 79.068 102.897 79.3125 103.119 79.6147C103.341 79.9169 103.452 80.308 103.452 80.788C103.452 81.5169 103.177 82.108 102.626 82.5613C102.074 83.0058 101.279 83.228 100.239 83.228Z" fill="#111827"/>
<rect y="161.523" width="127.449" height="62.9153" fill="#FAFAFA"/>
<path d="M35.534 188.01V177.61H42.5073V179.237H37.5606V181.704H41.4006V183.224H37.5606V186.384H42.5873V188.01H35.534ZM43.4062 188.01V187.93L45.8729 183.824L43.6729 180.09V180.01H45.8062L47.1796 182.504H47.4862L48.8062 180.01H50.7929V180.09L48.6996 183.784L51.1262 187.93V188.01H48.9396L47.3262 185.09H47.0196L45.4462 188.01H43.4062ZM53.4554 188.01C53.251 187.77 53.0865 187.482 52.9621 187.144C52.8465 186.806 52.7887 186.299 52.7887 185.624V181.424H51.6954V180.01H52.8154V178.01H54.7487V180.01H56.0554V181.424H54.7621V185.397C54.7621 186.108 54.8376 186.65 54.9887 187.024C55.1487 187.388 55.3399 187.69 55.5621 187.93V188.01H53.4554ZM60.745 188.21C59.5094 188.21 58.5672 187.833 57.9183 187.077C57.2694 186.313 56.945 185.286 56.945 183.997C56.945 183.135 57.0872 182.393 57.3717 181.77C57.665 181.148 58.0917 180.668 58.6517 180.33C59.2205 179.984 59.9094 179.81 60.7183 179.81C61.8917 179.81 62.785 180.17 63.3983 180.89C64.0205 181.602 64.3317 182.65 64.3317 184.037V184.477H58.865C58.9094 185.188 59.0917 185.753 59.4117 186.17C59.7317 186.579 60.1761 186.784 60.745 186.784C61.1894 186.784 61.545 186.655 61.8117 186.397C62.0783 186.139 62.2605 185.824 62.3583 185.45H64.2383C64.1494 185.957 63.9672 186.419 63.6917 186.837C63.4161 187.246 63.0339 187.579 62.545 187.837C62.065 188.086 61.465 188.21 60.745 188.21ZM58.8783 183.21H62.4117C62.3761 182.562 62.2117 182.059 61.9183 181.704C61.6339 181.348 61.2294 181.17 60.705 181.17C60.1805 181.17 59.7628 181.344 59.4517 181.69C59.1405 182.028 58.9494 182.535 58.8783 183.21ZM65.7931 188.01V180.01H67.5931V181.45H67.9131C67.9665 181.193 68.0642 180.948 68.2065 180.717C68.3487 180.486 68.5709 180.299 68.8731 180.157C69.1753 180.006 69.5798 179.93 70.0865 179.93H70.4731V181.73H69.9398C69.1753 181.73 68.6198 181.926 68.2731 182.317C67.9353 182.708 67.7665 183.299 67.7665 184.09V188.01H65.7931ZM71.9002 188.01V180.01H73.7135V181.21H74.0335C74.1935 180.802 74.4424 180.468 74.7802 180.21C75.1269 179.944 75.6158 179.81 76.2469 179.81C77.1535 179.81 77.8246 180.095 78.2602 180.664C78.6958 181.224 78.9135 181.975 78.9135 182.917V188.01H76.9402V183.264C76.9402 182.677 76.8335 182.228 76.6202 181.917C76.4158 181.597 76.0824 181.437 75.6202 181.437C75.0691 181.437 74.638 181.655 74.3269 182.09C74.0246 182.517 73.8735 183.05 73.8735 183.69V188.01H71.9002ZM83.56 188.184C82.8311 188.184 82.2267 188.006 81.7467 187.65C81.2667 187.295 80.9067 186.802 80.6667 186.17C80.4355 185.539 80.32 184.815 80.32 183.997C80.32 183.162 80.44 182.433 80.68 181.81C80.92 181.188 81.28 180.704 81.76 180.357C82.24 180.01 82.84 179.837 83.56 179.837C84.1289 179.837 84.5911 179.953 84.9467 180.184C85.3111 180.406 85.5822 180.695 85.76 181.05H86.08V180.01H87.8933V188.01H86.08V186.97H85.76C85.5822 187.299 85.3155 187.584 84.96 187.824C84.6044 188.064 84.1378 188.184 83.56 188.184ZM84.04 186.744C84.6178 186.744 85.0755 186.499 85.4133 186.01C85.76 185.513 85.9333 184.846 85.9333 184.01C85.9333 183.175 85.76 182.513 85.4133 182.024C85.0755 181.526 84.6178 181.277 84.04 181.277C83.5155 181.277 83.1022 181.508 82.8 181.97C82.5067 182.433 82.36 183.113 82.36 184.01C82.36 184.908 82.5067 185.588 82.8 186.05C83.1022 186.513 83.5155 186.744 84.04 186.744ZM90.5871 188.01C90.3471 187.735 90.1737 187.424 90.0671 187.077C89.9604 186.722 89.9071 186.237 89.9071 185.624V177.344H91.8937V185.41C91.8937 186.095 91.9693 186.624 92.1204 186.997C92.2715 187.37 92.4671 187.682 92.7071 187.93V188.01H90.5871ZM30.8832 212.01V201.61H32.9232V212.01H30.8832ZM35.033 212.01V204.01H36.8463V205.21H37.1663C37.3263 204.802 37.5752 204.468 37.913 204.21C38.2597 203.944 38.7486 203.81 39.3797 203.81C40.2863 203.81 40.9575 204.095 41.393 204.664C41.8286 205.224 42.0463 205.975 42.0463 206.917V212.01H40.073V207.264C40.073 206.677 39.9663 206.228 39.753 205.917C39.5486 205.597 39.2152 205.437 38.753 205.437C38.2019 205.437 37.7708 205.655 37.4597 206.09C37.1575 206.517 37.0063 207.05 37.0063 207.69V212.01H35.033ZM46.8795 212.21C46.0261 212.21 45.3417 212.073 44.8261 211.797C44.3106 211.522 43.9284 211.17 43.6795 210.744C43.4395 210.317 43.3061 209.886 43.2795 209.45H45.1595C45.2039 209.69 45.2973 209.917 45.4395 210.13C45.5906 210.335 45.7906 210.499 46.0395 210.624C46.2884 210.739 46.5995 210.797 46.9728 210.797C47.4084 210.797 47.7284 210.717 47.9328 210.557C48.1373 210.397 48.2395 210.188 48.2395 209.93C48.2395 209.699 48.1461 209.504 47.9595 209.344C47.7817 209.184 47.4973 209.037 47.1061 208.904L46.1461 208.584C45.6928 208.424 45.275 208.25 44.8928 208.064C44.5195 207.868 44.2173 207.619 43.9861 207.317C43.7639 207.015 43.6528 206.628 43.6528 206.157C43.6528 205.455 43.915 204.89 44.4395 204.464C44.9728 204.028 45.715 203.81 46.6661 203.81C47.3595 203.81 47.9284 203.922 48.3728 204.144C48.8173 204.357 49.1506 204.65 49.3728 205.024C49.6039 205.388 49.7373 205.797 49.7728 206.25H47.9595C47.915 205.922 47.7817 205.659 47.5595 205.464C47.3373 205.268 47.0173 205.17 46.5995 205.17C46.235 205.17 45.9595 205.246 45.7728 205.397C45.5861 205.539 45.4928 205.735 45.4928 205.984C45.4928 206.233 45.5861 206.442 45.7728 206.61C45.9684 206.77 46.2661 206.917 46.6661 207.05L47.6128 207.357C48.0661 207.499 48.4795 207.668 48.8528 207.864C49.235 208.05 49.5328 208.295 49.7461 208.597C49.9684 208.899 50.0795 209.29 50.0795 209.77C50.0795 210.499 49.8039 211.09 49.2528 211.544C48.7106 211.988 47.9195 212.21 46.8795 212.21ZM52.6195 212.01C52.415 211.77 52.2506 211.482 52.1261 211.144C52.0106 210.806 51.9528 210.299 51.9528 209.624V205.424H50.8595V204.01H51.9795V202.01H53.9128V204.01H55.2195V205.424H53.9261V209.397C53.9261 210.108 54.0017 210.65 54.1528 211.024C54.3128 211.388 54.5039 211.69 54.7261 211.93V212.01H52.6195ZM59.3491 212.184C58.6202 212.184 58.0157 212.006 57.5357 211.65C57.0557 211.295 56.6957 210.802 56.4557 210.17C56.2246 209.539 56.1091 208.815 56.1091 207.997C56.1091 207.162 56.2291 206.433 56.4691 205.81C56.7091 205.188 57.0691 204.704 57.5491 204.357C58.0291 204.01 58.6291 203.837 59.3491 203.837C59.9179 203.837 60.3802 203.953 60.7357 204.184C61.1002 204.406 61.3713 204.695 61.5491 205.05H61.8691V204.01H63.6824V212.01H61.8691V210.97H61.5491C61.3713 211.299 61.1046 211.584 60.7491 211.824C60.3935 212.064 59.9268 212.184 59.3491 212.184ZM59.8291 210.744C60.4068 210.744 60.8646 210.499 61.2024 210.01C61.5491 209.513 61.7224 208.846 61.7224 208.01C61.7224 207.175 61.5491 206.513 61.2024 206.024C60.8646 205.526 60.4068 205.277 59.8291 205.277C59.3046 205.277 58.8913 205.508 58.5891 205.97C58.2957 206.433 58.1491 207.113 58.1491 208.01C58.1491 208.908 58.2957 209.588 58.5891 210.05C58.8913 210.513 59.3046 210.744 59.8291 210.744ZM65.7361 212.01V204.01H67.5495V205.21H67.8695C68.0295 204.802 68.2784 204.468 68.6161 204.21C68.9628 203.944 69.4517 203.81 70.0828 203.81C70.9895 203.81 71.6606 204.095 72.0961 204.664C72.5317 205.224 72.7495 205.975 72.7495 206.917V212.01H70.7761V207.264C70.7761 206.677 70.6695 206.228 70.4561 205.917C70.2517 205.597 69.9184 205.437 69.4561 205.437C68.905 205.437 68.4739 205.655 68.1628 206.09C67.8606 206.517 67.7095 207.05 67.7095 207.69V212.01H65.7361ZM77.8759 212.21C76.6582 212.21 75.7337 211.833 75.1026 211.077C74.4715 210.313 74.1559 209.29 74.1559 208.01C74.1559 206.668 74.4848 205.633 75.1426 204.904C75.8093 204.175 76.7248 203.81 77.8893 203.81C78.9204 203.81 79.7337 204.086 80.3293 204.637C80.9248 205.188 81.2804 205.944 81.3959 206.904H79.4493C79.387 206.37 79.2226 205.962 78.9559 205.677C78.6893 205.384 78.3426 205.237 77.9159 205.237C77.347 205.237 76.9159 205.482 76.6226 205.97C76.3382 206.45 76.1959 207.13 76.1959 208.01C76.1959 208.89 76.3382 209.575 76.6226 210.064C76.9159 210.544 77.3426 210.784 77.9026 210.784C78.3382 210.784 78.6893 210.637 78.9559 210.344C79.2226 210.05 79.387 209.642 79.4493 209.117H81.3959C81.2715 210.068 80.907 210.824 80.3026 211.384C79.707 211.935 78.8982 212.21 77.8759 212.21ZM86.1122 212.21C84.8766 212.21 83.9344 211.833 83.2855 211.077C82.6366 210.313 82.3122 209.286 82.3122 207.997C82.3122 207.135 82.4544 206.393 82.7388 205.77C83.0322 205.148 83.4588 204.668 84.0188 204.33C84.5877 203.984 85.2766 203.81 86.0855 203.81C87.2588 203.81 88.1522 204.17 88.7655 204.89C89.3877 205.602 89.6988 206.65 89.6988 208.037V208.477H84.2322C84.2766 209.188 84.4588 209.753 84.7788 210.17C85.0988 210.579 85.5433 210.784 86.1122 210.784C86.5566 210.784 86.9122 210.655 87.1788 210.397C87.4455 210.139 87.6277 209.824 87.7255 209.45H89.6055C89.5166 209.957 89.3344 210.419 89.0588 210.837C88.7833 211.246 88.4011 211.579 87.9122 211.837C87.4322 212.086 86.8322 212.21 86.1122 212.21ZM84.2455 207.21H87.7788C87.7433 206.562 87.5788 206.059 87.2855 205.704C87.0011 205.348 86.5966 205.17 86.0722 205.17C85.5477 205.17 85.13 205.344 84.8188 205.69C84.5077 206.028 84.3166 206.535 84.2455 207.21ZM94.067 212.21C93.2136 212.21 92.5292 212.073 92.0136 211.797C91.4981 211.522 91.1159 211.17 90.867 210.744C90.627 210.317 90.4936 209.886 90.467 209.45H92.347C92.3914 209.69 92.4848 209.917 92.627 210.13C92.7781 210.335 92.9781 210.499 93.227 210.624C93.4759 210.739 93.787 210.797 94.1603 210.797C94.5959 210.797 94.9159 210.717 95.1203 210.557C95.3248 210.397 95.427 210.188 95.427 209.93C95.427 209.699 95.3336 209.504 95.147 209.344C94.9692 209.184 94.6848 209.037 94.2936 208.904L93.3336 208.584C92.8803 208.424 92.4625 208.25 92.0803 208.064C91.707 207.868 91.4048 207.619 91.1736 207.317C90.9514 207.015 90.8403 206.628 90.8403 206.157C90.8403 205.455 91.1025 204.89 91.627 204.464C92.1603 204.028 92.9025 203.81 93.8536 203.81C94.547 203.81 95.1159 203.922 95.5603 204.144C96.0048 204.357 96.3381 204.65 96.5603 205.024C96.7914 205.388 96.9248 205.797 96.9603 206.25H95.147C95.1025 205.922 94.9692 205.659 94.747 205.464C94.5248 205.268 94.2048 205.17 93.787 205.17C93.4225 205.17 93.147 205.246 92.9603 205.397C92.7736 205.539 92.6803 205.735 92.6803 205.984C92.6803 206.233 92.7736 206.442 92.9603 206.61C93.1559 206.77 93.4536 206.917 93.8536 207.05L94.8003 207.357C95.2536 207.499 95.667 207.668 96.0403 207.864C96.4225 208.05 96.7203 208.295 96.9336 208.597C97.1559 208.899 97.267 209.29 97.267 209.77C97.267 210.499 96.9914 211.09 96.4403 211.544C95.8981 211.988 95.107 212.21 94.067 212.21Z" fill="#111827"/>
<defs>
<linearGradient id="paint0_linear_1278_39534" x1="496.562" y1="47.9365" x2="871.577" y2="47.9365" gradientUnits="userSpaceOnUse">
<stop offset="0.7" stop-color="#3B82F6"/>
<stop offset="1" stop-color="#3B82F6" stop-opacity="0"/>
</linearGradient>
<linearGradient id="paint1_linear_1278_39534" x1="496.84" y1="81.2318" x2="116.967" y2="81.2318" gradientUnits="userSpaceOnUse">
<stop offset="0.7" stop-color="#3B82F6"/>
<stop offset="1" stop-color="#3B82F6" stop-opacity="0"/>
</linearGradient>
<linearGradient id="paint2_linear_1278_39534" x1="496.84" y1="257.571" x2="704.142" y2="257.571" gradientUnits="userSpaceOnUse">
<stop offset="0.65" stop-color="#3B82F6"/>
<stop offset="1" stop-color="#3B82F6" stop-opacity="0"/>
</linearGradient>
<linearGradient id="paint3_linear_1278_39534" x1="496.839" y1="257.57" x2="265.713" y2="257.57" gradientUnits="userSpaceOnUse">
<stop offset="0.830838" stop-color="#3B82F6"/>
<stop offset="1" stop-color="#3B82F6" stop-opacity="0"/>
</linearGradient>
<linearGradient id="paint4_linear_1278_39534" x1="529.81" y1="192.51" x2="864.511" y2="192.51" gradientUnits="userSpaceOnUse">
<stop offset="0.706363" stop-color="#3B82F6"/>
<stop offset="1" stop-color="#3B82F6" stop-opacity="0"/>
</linearGradient>
<linearGradient id="paint5_linear_1278_39534" x1="124.311" y1="192.51" x2="465.406" y2="192.51" gradientUnits="userSpaceOnUse">
<stop stop-color="#3B82F6" stop-opacity="0"/>
<stop offset="0.55" stop-color="#3B82F6"/>
</linearGradient>
<linearGradient id="paint6_linear_1278_39534" x1="545.145" y1="128.288" x2="736.503" y2="128.288" gradientUnits="userSpaceOnUse">
<stop offset="0.579938" stop-color="#3B82F6"/>
<stop offset="1" stop-color="#3B82F6" stop-opacity="0"/>
</linearGradient>
<linearGradient id="paint7_linear_1278_39534" x1="263.303" y1="128.288" x2="447.979" y2="128.288" gradientUnits="userSpaceOnUse">
<stop stop-color="#3B82F6" stop-opacity="0"/>
<stop offset="0.420062" stop-color="#3B82F6"/>
</linearGradient>
<linearGradient id="paint8_linear_1278_39534" x1="607.558" y1="0.582947" x2="607.558" y2="320.98" gradientUnits="userSpaceOnUse">
<stop stop-color="#3B82F6" stop-opacity="0"/>
<stop offset="0.505" stop-color="#3B82F6"/>
<stop offset="1" stop-color="#3B82F6" stop-opacity="0"/>
</linearGradient>
<linearGradient id="paint9_linear_1278_39534" x1="415.54" y1="-4.73644" x2="415.54" y2="316.256" gradientUnits="userSpaceOnUse">
<stop stop-color="#3B82F6" stop-opacity="0"/>
<stop offset="0.505" stop-color="#3B82F6"/>
<stop offset="1" stop-color="#3B82F6" stop-opacity="0"/>
</linearGradient>
<linearGradient id="paint10_linear_1278_39534" x1="671.682" y1="63.7874" x2="671.682" y2="191.761" gradientUnits="userSpaceOnUse">
<stop stop-color="#3B82F6" stop-opacity="0"/>
<stop offset="0.535" stop-color="#3B82F6"/>
<stop offset="1" stop-color="#3B82F6" stop-opacity="0"/>
</linearGradient>
<linearGradient id="paint11_linear_1278_39534" x1="351.465" y1="33.0784" x2="351.465" y2="288.919" gradientUnits="userSpaceOnUse">
<stop stop-color="#3B82F6" stop-opacity="0"/>
<stop offset="0.535" stop-color="#3B82F6"/>
<stop offset="1" stop-color="#3B82F6" stop-opacity="0"/>
</linearGradient>
</defs>
</svg>
