<svg width="896" height="322" viewBox="0 0 896 322" fill="none" xmlns="http://www.w3.org/2000/svg">
<path d="M497.062 64.9512L768.873 64.951" stroke="url(#paint0_linear_1278_40255)" stroke-width="2"/>
<path d="M497.34 64.9512L127.978 64.9512" stroke="url(#paint1_linear_1278_40255)" stroke-width="2"/>
<path d="M497.34 257.57L640.622 257.57" stroke="url(#paint2_linear_1278_40255)" stroke-width="2"/>
<path d="M497.339 257.57L255.861 257.57" stroke="url(#paint3_linear_1278_40255)" stroke-width="2"/>
<path d="M768.873 192.511L502.825 192.511" stroke="url(#paint4_linear_1278_40255)" stroke-width="2"/>
<path d="M465.906 192.511L127.949 192.511" stroke="url(#paint5_linear_1278_40255)" stroke-width="2"/>
<path d="M672.682 128.788L522.664 128.788" stroke="url(#paint6_linear_1278_40255)" stroke-width="2"/>
<path d="M448.479 128.789L255.948 128.789" stroke="url(#paint7_linear_1278_40255)" stroke-width="2"/>
<path d="M576.261 0.583008L576.261 320.98" stroke="url(#paint8_linear_1278_40255)" stroke-width="2"/>
<path d="M352.351 1.55371L352.351 321.417" stroke="url(#paint9_linear_1278_40255)" stroke-width="2"/>
<path d="M640.619 63.7871L640.619 191.761" stroke="url(#paint10_linear_1278_40255)" stroke-width="2"/>
<path d="M288.585 33.0791L288.585 288.92" stroke="url(#paint11_linear_1278_40255)" stroke-width="2"/>
<circle cx="640.619" cy="128.788" r="6.25" fill="#2563EB"/>
<circle cx="288.585" cy="128.789" r="6.25" fill="#2563EB"/>
<path d="M522.665 148.554V100.747C522.665 96.329 519.083 92.7607 514.665 92.7607H467.349H420.033C415.615 92.7607 412.033 96.334 412.033 100.752C412.033 109.446 412.033 125.29 412.033 148.554C412.034 186.132 431.708 199.012 467.349 218.761C502.093 201.446 522.665 188.077 522.665 148.554Z" fill="#3B82F6"/>
<path fill-rule="evenodd" clip-rule="evenodd" d="M471.513 118.797L465.442 117.285C465.896 117.285 466.384 117.249 466.933 117.208C467.642 117.156 468.454 117.096 469.432 117.096C473.075 117.096 476.024 118.419 478.799 120.121C479.183 120.33 479.513 120.77 479.85 121.218C480.122 121.58 480.397 121.947 480.707 122.201C482.095 122.768 483.483 123.146 484.871 122.957V122.39C486.432 122.768 487.993 124.659 487.993 125.982H480.881C480.707 125.982 480.36 126.171 480.187 126.36C480.36 126.549 480.707 126.927 480.881 126.927C481.208 126.927 481.565 126.917 481.941 126.906C483.16 126.87 484.586 126.828 485.911 127.116C485.887 127.16 485.862 127.206 485.836 127.255C485.294 128.247 484.294 130.08 483.136 128.818C483.136 128.44 476.371 128.629 474.636 129.007C474.289 129.007 473.942 129.763 474.115 130.142C474.892 132.198 476.734 133.48 478.46 134.682C479.432 135.359 480.367 136.01 481.054 136.759C485.911 140.919 487.473 144.7 486.432 151.885C483.825 163.083 479.727 164.973 471.742 168.656C470.694 169.14 469.578 169.654 468.391 170.224C465.442 171.737 463.707 175.329 464.228 178.922C465.442 186.674 476.718 188.753 478.973 179.678C479.667 176.086 478.799 170.981 472.554 169.468C475.33 168.145 477.932 166.632 480.36 164.931C480.707 164.552 481.054 164.552 481.401 164.931C488.34 171.926 490.075 184.783 478.626 192.346C470.473 197.262 460.238 193.102 456.942 183.648C453.646 174.006 458.85 163.607 468.044 161.527C474.636 160.393 481.401 152.83 478.452 145.834C477.143 142.695 473.364 139.556 470.172 136.905C469.134 136.043 468.159 135.232 467.35 134.49C466.893 134.191 466.147 134.26 465.315 134.336C464.568 134.405 463.752 134.48 463.013 134.301C463.36 134.018 463.571 133.735 463.782 133.453C463.993 133.17 464.204 132.888 464.551 132.605C462.99 131.558 462.022 131.414 460.826 131.237C460.294 131.158 459.718 131.072 459.023 130.898C459.544 129.763 461.789 128.442 463.35 128.253C463.303 127.76 463.271 127.334 463.244 126.962C463.074 124.625 463.057 124.399 460.064 122.768C461.844 121.474 463.417 121.761 464.945 122.039C466.544 122.331 468.093 122.613 469.779 121.066C467.697 120.31 465.615 119.554 463.707 118.23C464.685 118.301 465.645 118.49 466.602 118.678C468.192 118.99 469.77 119.3 471.394 119.064L471.513 118.797ZM456.942 167.388C448.615 161.716 448.095 147.347 457.462 141.108C464.401 136.381 472.207 138.083 477.411 146.402C478.105 147.725 478.105 149.805 477.758 151.317C476.371 156.422 472.901 159.258 468.217 160.393C469.605 159.258 470.646 157.557 470.993 155.666C472.554 145.078 457.462 143.944 458.156 155.288C457.983 158.502 460.238 160.771 464.575 161.527C462.319 163.04 460.411 164.363 458.33 167.199C457.983 167.767 457.636 167.767 456.942 167.388ZM454.85 175.591C452.18 176.136 449.364 176.709 446.707 177.976C447.921 172.493 452.258 168.712 457.462 168.712C456.074 170.603 455.381 173.061 455.207 175.518C455.088 175.543 454.969 175.567 454.85 175.591ZM477.229 123.404L477.75 123.971L477.056 124.349C476.709 124.538 476.535 124.349 476.362 124.16C476.015 123.593 477.056 123.215 477.229 123.404Z" fill="white"/>
<circle cx="192.521" cy="192.98" r="6.25" fill="#2563EB"/>
<circle cx="800.498" cy="191.523" r="6.25" fill="#2563EB"/>
<circle cx="192.521" cy="65.7881" r="6.25" fill="#2563EB"/>
<circle cx="352.851" cy="255.57" r="6.25" fill="#2563EB"/>
<circle cx="576.261" cy="257.57" r="6.25" fill="#2563EB"/>
<circle cx="800.497" cy="63.373" r="6.25" fill="#2563EB"/>
<rect x="768.552" y="33.4658" width="94.9189" height="62.9707" fill="#FAFAFA"/>
<path d="M792.875 58.9512V48.5512H796.515L798.648 57.3245H799.088L801.248 48.5512H804.888V58.9512H802.955V50.2445H802.608L800.515 58.9512H797.128L795.035 50.2445H794.688V58.9512H792.875ZM810.295 59.1512C808.998 59.1512 808.029 58.7734 807.389 58.0178C806.758 57.2534 806.442 56.2312 806.442 54.9512C806.442 53.6712 806.758 52.6534 807.389 51.8978C808.029 51.1334 808.998 50.7512 810.295 50.7512C811.593 50.7512 812.562 51.1334 813.202 51.8978C813.842 52.6534 814.162 53.6712 814.162 54.9512C814.162 56.2312 813.842 57.2534 813.202 58.0178C812.562 58.7734 811.593 59.1512 810.295 59.1512ZM810.295 57.7778C810.927 57.7778 811.384 57.5378 811.669 57.0578C811.962 56.5689 812.109 55.8667 812.109 54.9512C812.109 54.0267 811.962 53.3245 811.669 52.8445C811.384 52.3645 810.927 52.1245 810.295 52.1245C809.673 52.1245 809.215 52.3645 808.922 52.8445C808.629 53.3245 808.482 54.0267 808.482 54.9512C808.482 55.8667 808.629 56.5689 808.922 57.0578C809.215 57.5378 809.673 57.7778 810.295 57.7778ZM820.052 59.1245C819.456 59.1245 818.976 59.0045 818.612 58.7645C818.256 58.5245 817.994 58.2401 817.825 57.9112H817.505V58.9512H815.679V48.2845H817.665V51.8445H817.985C818.172 51.5245 818.434 51.2667 818.772 51.0712C819.11 50.8756 819.541 50.7778 820.065 50.7778C820.767 50.7778 821.354 50.9512 821.825 51.2978C822.305 51.6445 822.665 52.1289 822.905 52.7512C823.145 53.3734 823.265 54.1023 823.265 54.9378C823.265 55.7556 823.145 56.4801 822.905 57.1112C822.674 57.7334 822.319 58.2267 821.839 58.5912C821.367 58.9467 820.772 59.1245 820.052 59.1245ZM819.532 57.6845C820.065 57.6845 820.479 57.4534 820.772 56.9912C821.065 56.5289 821.212 55.8489 821.212 54.9512C821.212 54.0534 821.065 53.3734 820.772 52.9112C820.479 52.4489 820.065 52.2178 819.532 52.2178C818.963 52.2178 818.505 52.4667 818.159 52.9645C817.821 53.4534 817.652 54.1156 817.652 54.9512C817.652 55.7778 817.821 56.4401 818.159 56.9378C818.505 57.4356 818.963 57.6845 819.532 57.6845ZM824.788 58.9512V50.9512H826.775V58.9512H824.788ZM825.775 49.9778C825.419 49.9778 825.148 49.8845 824.961 49.6978C824.775 49.5023 824.681 49.2534 824.681 48.9512C824.681 48.6401 824.775 48.3912 824.961 48.2045C825.148 48.0178 825.419 47.9245 825.775 47.9245C826.13 47.9245 826.401 48.0178 826.588 48.2045C826.775 48.3912 826.868 48.6401 826.868 48.9512C826.868 49.2534 826.775 49.5023 826.588 49.6978C826.401 49.8845 826.13 49.9778 825.775 49.9778ZM829.475 58.9512C829.235 58.6756 829.061 58.3601 828.955 58.0045C828.848 57.6489 828.795 57.1689 828.795 56.5645V48.2845H830.781V56.3512C830.781 57.0356 830.857 57.5645 831.008 57.9378C831.159 58.3023 831.355 58.6134 831.595 58.8712V58.9512H829.475ZM836.18 59.1512C834.944 59.1512 834.002 58.7734 833.353 58.0178C832.704 57.2534 832.38 56.2267 832.38 54.9378C832.38 54.0756 832.522 53.3334 832.806 52.7112C833.1 52.0889 833.526 51.6089 834.086 51.2712C834.655 50.9245 835.348 50.7512 836.166 50.7512C837.331 50.7512 838.22 51.1112 838.833 51.8312C839.455 52.5423 839.766 53.5912 839.766 54.9778V55.4178H834.313C834.357 56.1201 834.54 56.6801 834.86 57.0978C835.18 57.5156 835.624 57.7245 836.193 57.7245C836.628 57.7245 836.98 57.5956 837.246 57.3378C837.513 57.0801 837.695 56.7645 837.793 56.3912H839.673C839.584 56.8889 839.402 57.3467 839.126 57.7645C838.851 58.1823 838.468 58.5201 837.98 58.7778C837.5 59.0267 836.9 59.1512 836.18 59.1512ZM834.313 54.1378H837.846C837.811 53.4978 837.646 53.0001 837.353 52.6445C837.068 52.2889 836.668 52.1112 836.153 52.1112C835.628 52.1112 835.206 52.2845 834.886 52.6312C834.575 52.9689 834.384 53.4712 834.313 54.1378ZM789.719 82.9512V72.5512H793.345C795.176 72.5512 796.505 73.0089 797.332 73.9245C798.167 74.8312 798.585 76.1067 798.585 77.7512C798.585 79.3956 798.167 80.6756 797.332 81.5912C796.505 82.4978 795.176 82.9512 793.345 82.9512H789.719ZM791.772 81.3378H793.212C793.95 81.3378 794.559 81.2223 795.039 80.9912C795.519 80.7601 795.874 80.3867 796.105 79.8712C796.345 79.3467 796.465 78.6401 796.465 77.7512C796.465 76.8623 796.345 76.1556 796.105 75.6312C795.874 75.1067 795.519 74.7334 795.039 74.5112C794.559 74.2801 793.95 74.1645 793.212 74.1645H791.772V81.3378ZM803.32 83.1512C802.085 83.1512 801.142 82.7734 800.494 82.0178C799.845 81.2534 799.52 80.2267 799.52 78.9378C799.52 78.0756 799.662 77.3334 799.947 76.7112C800.24 76.0889 800.667 75.6089 801.227 75.2712C801.796 74.9245 802.489 74.7512 803.307 74.7512C804.471 74.7512 805.36 75.1112 805.974 75.8312C806.596 76.5423 806.907 77.5912 806.907 78.9778V79.4178H801.454C801.498 80.1201 801.68 80.6801 802 81.0978C802.32 81.5156 802.765 81.7245 803.334 81.7245C803.769 81.7245 804.12 81.5956 804.387 81.3378C804.654 81.0801 804.836 80.7645 804.934 80.3912H806.814C806.725 80.8889 806.542 81.3467 806.267 81.7645C805.991 82.1823 805.609 82.5201 805.12 82.7778C804.64 83.0267 804.04 83.1512 803.32 83.1512ZM801.454 78.1378H804.987C804.951 77.4978 804.787 77.0001 804.494 76.6445C804.209 76.2889 803.809 76.1112 803.294 76.1112C802.769 76.1112 802.347 76.2845 802.027 76.6312C801.716 76.9689 801.525 77.4712 801.454 78.1378ZM809.734 82.9512L807.401 75.0312V74.9512H809.401L811.188 81.3245H811.508L813.308 74.9512H815.134V75.0312L812.801 82.9512H809.734ZM816.35 82.9512V74.9512H818.337V82.9512H816.35ZM817.337 73.9778C816.982 73.9778 816.71 73.8845 816.524 73.6978C816.337 73.5023 816.244 73.2534 816.244 72.9512C816.244 72.6401 816.337 72.3912 816.524 72.2045C816.71 72.0178 816.982 71.9245 817.337 71.9245C817.693 71.9245 817.964 72.0178 818.15 72.2045C818.337 72.3912 818.43 72.6401 818.43 72.9512C818.43 73.2534 818.337 73.5023 818.15 73.6978C817.964 73.8845 817.693 73.9778 817.337 73.9778ZM823.584 83.1512C822.366 83.1512 821.442 82.7734 820.811 82.0178C820.179 81.2534 819.864 80.2312 819.864 78.9512C819.864 77.6089 820.193 76.5734 820.851 75.8445C821.517 75.1156 822.433 74.7512 823.597 74.7512C824.628 74.7512 825.442 75.0267 826.037 75.5778C826.633 76.1289 826.988 76.8845 827.104 77.8445H825.157C825.095 77.3112 824.931 76.9023 824.664 76.6178C824.397 76.3245 824.051 76.1778 823.624 76.1778C823.064 76.1778 822.637 76.4223 822.344 76.9112C822.051 77.3912 821.904 78.0712 821.904 78.9512C821.904 79.8312 822.046 80.5112 822.331 80.9912C822.624 81.4712 823.051 81.7112 823.611 81.7112C824.046 81.7112 824.397 81.5689 824.664 81.2845C824.931 80.9912 825.095 80.5778 825.157 80.0445H827.104C826.979 81.0045 826.615 81.7645 826.011 82.3245C825.415 82.8756 824.606 83.1512 823.584 83.1512ZM831.836 83.1512C830.6 83.1512 829.658 82.7734 829.009 82.0178C828.36 81.2534 828.036 80.2267 828.036 78.9378C828.036 78.0756 828.178 77.3334 828.462 76.7112C828.756 76.0889 829.182 75.6089 829.742 75.2712C830.311 74.9245 831.005 74.7512 831.822 74.7512C832.987 74.7512 833.876 75.1112 834.489 75.8312C835.111 76.5423 835.422 77.5912 835.422 78.9778V79.4178H829.969C830.014 80.1201 830.196 80.6801 830.516 81.0978C830.836 81.5156 831.28 81.7245 831.849 81.7245C832.285 81.7245 832.636 81.5956 832.902 81.3378C833.169 81.0801 833.351 80.7645 833.449 80.3912H835.329C835.24 80.8889 835.058 81.3467 834.782 81.7645C834.507 82.1823 834.125 82.5201 833.636 82.7778C833.156 83.0267 832.556 83.1512 831.836 83.1512ZM829.969 78.1378H833.502C833.467 77.4978 833.302 77.0001 833.009 76.6445C832.725 76.2889 832.325 76.1112 831.809 76.1112C831.285 76.1112 830.862 76.2845 830.542 76.6312C830.231 76.9689 830.04 77.4712 829.969 78.1378ZM839.791 83.1512C838.937 83.1512 838.253 83.0134 837.737 82.7378C837.222 82.4623 836.839 82.1112 836.591 81.6845C836.351 81.2578 836.217 80.8267 836.191 80.3912H838.084C838.119 80.6312 838.208 80.8534 838.351 81.0578C838.502 81.2623 838.702 81.4267 838.951 81.5512C839.208 81.6667 839.519 81.7245 839.884 81.7245C840.319 81.7245 840.639 81.6445 840.844 81.4845C841.048 81.3245 841.151 81.1201 841.151 80.8712C841.151 80.6401 841.062 80.4445 840.884 80.2845C840.706 80.1245 840.417 79.9778 840.017 79.8445L839.057 79.5245C838.604 79.3645 838.186 79.1912 837.804 79.0045C837.431 78.8089 837.128 78.5601 836.897 78.2578C836.675 77.9556 836.564 77.5689 836.564 77.0978C836.564 76.3956 836.826 75.8312 837.351 75.4045C837.884 74.9689 838.631 74.7512 839.591 74.7512C840.284 74.7512 840.853 74.8623 841.297 75.0845C841.742 75.2978 842.075 75.5912 842.297 75.9645C842.528 76.3289 842.662 76.7378 842.697 77.1912H840.871C840.826 76.8623 840.693 76.6001 840.471 76.4045C840.248 76.2089 839.928 76.1112 839.511 76.1112C839.146 76.1112 838.871 76.1867 838.684 76.3378C838.497 76.4801 838.404 76.6756 838.404 76.9245C838.404 77.1734 838.502 77.3778 838.697 77.5378C838.893 77.6978 839.186 77.8445 839.577 77.9778L840.537 78.2978C840.991 78.4401 841.404 78.6089 841.777 78.8045C842.151 78.9912 842.448 79.2356 842.671 79.5378C842.893 79.8401 843.004 80.2312 843.004 80.7112C843.004 81.4401 842.728 82.0312 842.177 82.4845C841.626 82.9289 840.831 83.1512 839.791 83.1512Z" fill="#111827"/>
<rect x="672.8" y="97.5098" width="94.7015" height="63.0371" fill="#FAFAFA"/>
<path d="M702.319 121.774V111.374H704.372V120.134H708.852V121.774H702.319ZM713.333 121.974C712.036 121.974 711.067 121.597 710.427 120.841C709.796 120.077 709.48 119.054 709.48 117.774C709.48 116.494 709.796 115.477 710.427 114.721C711.067 113.957 712.036 113.574 713.333 113.574C714.631 113.574 715.6 113.957 716.24 114.721C716.88 115.477 717.2 116.494 717.2 117.774C717.2 119.054 716.88 120.077 716.24 120.841C715.6 121.597 714.631 121.974 713.333 121.974ZM713.333 120.601C713.965 120.601 714.422 120.361 714.707 119.881C715 119.392 715.147 118.69 715.147 117.774C715.147 116.85 715 116.148 714.707 115.668C714.422 115.188 713.965 114.948 713.333 114.948C712.711 114.948 712.253 115.188 711.96 115.668C711.667 116.148 711.52 116.85 711.52 117.774C711.52 118.69 711.667 119.392 711.96 119.881C712.253 120.361 712.711 120.601 713.333 120.601ZM721.903 121.974C720.685 121.974 719.761 121.597 719.13 120.841C718.499 120.077 718.183 119.054 718.183 117.774C718.183 116.432 718.512 115.397 719.17 114.668C719.837 113.939 720.752 113.574 721.917 113.574C722.948 113.574 723.761 113.85 724.357 114.401C724.952 114.952 725.308 115.708 725.423 116.668H723.477C723.414 116.134 723.25 115.726 722.983 115.441C722.717 115.148 722.37 115.001 721.943 115.001C721.383 115.001 720.957 115.246 720.663 115.734C720.37 116.214 720.223 116.894 720.223 117.774C720.223 118.654 720.365 119.334 720.65 119.814C720.943 120.294 721.37 120.534 721.93 120.534C722.365 120.534 722.717 120.392 722.983 120.108C723.25 119.814 723.414 119.401 723.477 118.868H725.423C725.299 119.828 724.934 120.588 724.33 121.148C723.734 121.699 722.925 121.974 721.903 121.974ZM729.595 121.948C728.866 121.948 728.262 121.77 727.782 121.414C727.302 121.05 726.942 120.557 726.702 119.934C726.471 119.303 726.355 118.579 726.355 117.761C726.355 116.926 726.475 116.197 726.715 115.574C726.955 114.952 727.315 114.468 727.795 114.121C728.275 113.774 728.875 113.601 729.595 113.601C730.164 113.601 730.626 113.717 730.982 113.948C731.346 114.17 731.617 114.459 731.795 114.814H732.115V113.774H733.942V121.774H732.115V120.734H731.795C731.617 121.063 731.351 121.348 730.995 121.588C730.64 121.828 730.173 121.948 729.595 121.948ZM730.088 120.508C730.657 120.508 731.111 120.259 731.448 119.761C731.795 119.263 731.968 118.601 731.968 117.774C731.968 116.939 731.795 116.277 731.448 115.788C731.111 115.29 730.657 115.041 730.088 115.041C729.555 115.041 729.137 115.272 728.835 115.734C728.542 116.197 728.395 116.877 728.395 117.774C728.395 118.672 728.542 119.352 728.835 119.814C729.137 120.277 729.555 120.508 730.088 120.508ZM736.638 121.774C736.398 121.499 736.225 121.183 736.118 120.828C736.011 120.472 735.958 119.992 735.958 119.388V111.108H737.945V119.174C737.945 119.859 738.02 120.388 738.171 120.761C738.322 121.126 738.518 121.437 738.758 121.694V121.774H736.638ZM693.858 145.774V135.374H697.485C699.316 135.374 700.645 135.832 701.472 136.748C702.307 137.654 702.725 138.93 702.725 140.574C702.725 142.219 702.307 143.499 701.472 144.414C700.645 145.321 699.316 145.774 697.485 145.774H693.858ZM695.912 144.161H697.352C698.089 144.161 698.698 144.046 699.178 143.814C699.658 143.583 700.014 143.21 700.245 142.694C700.485 142.17 700.605 141.463 700.605 140.574C700.605 139.686 700.485 138.979 700.245 138.454C700.014 137.93 699.658 137.557 699.178 137.334C698.698 137.103 698.089 136.988 697.352 136.988H695.912V144.161ZM707.46 145.974C706.224 145.974 705.282 145.597 704.633 144.841C703.984 144.077 703.66 143.05 703.66 141.761C703.66 140.899 703.802 140.157 704.087 139.534C704.38 138.912 704.807 138.432 705.367 138.094C705.935 137.748 706.629 137.574 707.447 137.574C708.611 137.574 709.5 137.934 710.113 138.654C710.735 139.366 711.047 140.414 711.047 141.801V142.241H705.593C705.638 142.943 705.82 143.503 706.14 143.921C706.46 144.339 706.904 144.548 707.473 144.548C707.909 144.548 708.26 144.419 708.527 144.161C708.793 143.903 708.975 143.588 709.073 143.214H710.953C710.864 143.712 710.682 144.17 710.407 144.588C710.131 145.006 709.749 145.343 709.26 145.601C708.78 145.85 708.18 145.974 707.46 145.974ZM705.593 140.961H709.127C709.091 140.321 708.927 139.823 708.633 139.468C708.349 139.112 707.949 138.934 707.433 138.934C706.909 138.934 706.487 139.108 706.167 139.454C705.855 139.792 705.664 140.294 705.593 140.961ZM713.874 145.774L711.541 137.854V137.774H713.541L715.327 144.148H715.647L717.447 137.774H719.274V137.854L716.941 145.774H713.874ZM720.49 145.774V137.774H722.477V145.774H720.49ZM721.477 136.801C721.121 136.801 720.85 136.708 720.663 136.521C720.477 136.326 720.383 136.077 720.383 135.774C720.383 135.463 720.477 135.214 720.663 135.028C720.85 134.841 721.121 134.748 721.477 134.748C721.832 134.748 722.103 134.841 722.29 135.028C722.477 135.214 722.57 135.463 722.57 135.774C722.57 136.077 722.477 136.326 722.29 136.521C722.103 136.708 721.832 136.801 721.477 136.801ZM727.724 145.974C726.506 145.974 725.581 145.597 724.95 144.841C724.319 144.077 724.004 143.054 724.004 141.774C724.004 140.432 724.332 139.397 724.99 138.668C725.657 137.939 726.572 137.574 727.737 137.574C728.768 137.574 729.581 137.85 730.177 138.401C730.772 138.952 731.128 139.708 731.244 140.668H729.297C729.235 140.134 729.07 139.726 728.804 139.441C728.537 139.148 728.19 139.001 727.764 139.001C727.204 139.001 726.777 139.246 726.484 139.734C726.19 140.214 726.044 140.894 726.044 141.774C726.044 142.654 726.186 143.334 726.47 143.814C726.764 144.294 727.19 144.534 727.75 144.534C728.186 144.534 728.537 144.392 728.804 144.108C729.07 143.814 729.235 143.401 729.297 142.868H731.244C731.119 143.828 730.755 144.588 730.15 145.148C729.555 145.699 728.746 145.974 727.724 145.974ZM735.975 145.974C734.74 145.974 733.798 145.597 733.149 144.841C732.5 144.077 732.175 143.05 732.175 141.761C732.175 140.899 732.318 140.157 732.602 139.534C732.895 138.912 733.322 138.432 733.882 138.094C734.451 137.748 735.144 137.574 735.962 137.574C737.127 137.574 738.015 137.934 738.629 138.654C739.251 139.366 739.562 140.414 739.562 141.801V142.241H734.109C734.153 142.943 734.335 143.503 734.655 143.921C734.975 144.339 735.42 144.548 735.989 144.548C736.424 144.548 736.775 144.419 737.042 144.161C737.309 143.903 737.491 143.588 737.589 143.214H739.469C739.38 143.712 739.198 144.17 738.922 144.588C738.647 145.006 738.264 145.343 737.775 145.601C737.295 145.85 736.695 145.974 735.975 145.974ZM734.109 140.961H737.642C737.607 140.321 737.442 139.823 737.149 139.468C736.864 139.112 736.464 138.934 735.949 138.934C735.424 138.934 735.002 139.108 734.682 139.454C734.371 139.792 734.18 140.294 734.109 140.961ZM743.93 145.974C743.077 145.974 742.392 145.837 741.877 145.561C741.361 145.286 740.979 144.934 740.73 144.508C740.49 144.081 740.357 143.65 740.33 143.214H742.224C742.259 143.454 742.348 143.677 742.49 143.881C742.641 144.086 742.841 144.25 743.09 144.374C743.348 144.49 743.659 144.548 744.024 144.548C744.459 144.548 744.779 144.468 744.984 144.308C745.188 144.148 745.29 143.943 745.29 143.694C745.29 143.463 745.201 143.268 745.024 143.108C744.846 142.948 744.557 142.801 744.157 142.668L743.197 142.348C742.744 142.188 742.326 142.014 741.944 141.828C741.57 141.632 741.268 141.383 741.037 141.081C740.815 140.779 740.704 140.392 740.704 139.921C740.704 139.219 740.966 138.654 741.49 138.228C742.024 137.792 742.77 137.574 743.73 137.574C744.424 137.574 744.992 137.686 745.437 137.908C745.881 138.121 746.215 138.414 746.437 138.788C746.668 139.152 746.801 139.561 746.837 140.014H745.01C744.966 139.686 744.832 139.423 744.61 139.228C744.388 139.032 744.068 138.934 743.65 138.934C743.286 138.934 743.01 139.01 742.824 139.161C742.637 139.303 742.544 139.499 742.544 139.748C742.544 139.997 742.641 140.201 742.837 140.361C743.032 140.521 743.326 140.668 743.717 140.801L744.677 141.121C745.13 141.263 745.544 141.432 745.917 141.628C746.29 141.814 746.588 142.059 746.81 142.361C747.032 142.663 747.144 143.054 747.144 143.534C747.144 144.263 746.868 144.854 746.317 145.308C745.766 145.752 744.97 145.974 743.93 145.974Z" fill="#111827"/>
<rect x="640.619" y="225.508" width="126.911" height="63.0371" fill="#FAFAFA"/>
<path d="M658.727 251.026V240.626H662.354C664.185 240.626 665.514 241.084 666.341 242C667.176 242.906 667.594 244.182 667.594 245.826C667.594 247.471 667.176 248.751 666.341 249.666C665.514 250.573 664.185 251.026 662.354 251.026H658.727ZM660.781 249.413H662.221C662.958 249.413 663.567 249.297 664.047 249.066C664.527 248.835 664.883 248.462 665.114 247.946C665.354 247.422 665.474 246.715 665.474 245.826C665.474 244.937 665.354 244.231 665.114 243.706C664.883 243.182 664.527 242.809 664.047 242.586C663.567 242.355 662.958 242.24 662.221 242.24H660.781V249.413ZM672.329 251.226C671.093 251.226 670.151 250.849 669.502 250.093C668.853 249.329 668.529 248.302 668.529 247.013C668.529 246.151 668.671 245.409 668.956 244.786C669.249 244.164 669.676 243.684 670.236 243.346C670.805 243 671.498 242.826 672.316 242.826C673.48 242.826 674.369 243.186 674.982 243.906C675.605 244.617 675.916 245.666 675.916 247.053V247.493H670.462C670.507 248.195 670.689 248.755 671.009 249.173C671.329 249.591 671.773 249.8 672.342 249.8C672.778 249.8 673.129 249.671 673.396 249.413C673.662 249.155 673.845 248.84 673.942 248.466H675.822C675.733 248.964 675.551 249.422 675.276 249.84C675 250.257 674.618 250.595 674.129 250.853C673.649 251.102 673.049 251.226 672.329 251.226ZM670.462 246.213H673.996C673.96 245.573 673.796 245.075 673.502 244.72C673.218 244.364 672.818 244.186 672.302 244.186C671.778 244.186 671.356 244.36 671.036 244.706C670.725 245.044 670.533 245.546 670.462 246.213ZM678.743 251.026L676.41 243.106V243.026H678.41L680.196 249.4H680.516L682.316 243.026H684.143V243.106L681.81 251.026H678.743ZM688.626 251.226C687.39 251.226 686.448 250.849 685.799 250.093C685.15 249.329 684.826 248.302 684.826 247.013C684.826 246.151 684.968 245.409 685.253 244.786C685.546 244.164 685.973 243.684 686.533 243.346C687.101 243 687.795 242.826 688.613 242.826C689.777 242.826 690.666 243.186 691.279 243.906C691.901 244.617 692.213 245.666 692.213 247.053V247.493H686.759C686.804 248.195 686.986 248.755 687.306 249.173C687.626 249.591 688.07 249.8 688.639 249.8C689.075 249.8 689.426 249.671 689.693 249.413C689.959 249.155 690.141 248.84 690.239 248.466H692.119C692.03 248.964 691.848 249.422 691.573 249.84C691.297 250.257 690.915 250.595 690.426 250.853C689.946 251.102 689.346 251.226 688.626 251.226ZM686.759 246.213H690.293C690.257 245.573 690.093 245.075 689.799 244.72C689.515 244.364 689.115 244.186 688.599 244.186C688.075 244.186 687.653 244.36 687.333 244.706C687.021 245.044 686.83 245.546 686.759 246.213ZM694.327 251.026C694.087 250.751 693.914 250.435 693.807 250.08C693.701 249.724 693.647 249.244 693.647 248.64V240.36H695.634V248.426C695.634 249.111 695.71 249.64 695.861 250.013C696.012 250.377 696.207 250.689 696.447 250.946V251.026H694.327ZM701.085 251.226C699.788 251.226 698.819 250.849 698.179 250.093C697.548 249.329 697.232 248.306 697.232 247.026C697.232 245.746 697.548 244.729 698.179 243.973C698.819 243.209 699.788 242.826 701.085 242.826C702.383 242.826 703.352 243.209 703.992 243.973C704.632 244.729 704.952 245.746 704.952 247.026C704.952 248.306 704.632 249.329 703.992 250.093C703.352 250.849 702.383 251.226 701.085 251.226ZM701.085 249.853C701.717 249.853 702.174 249.613 702.459 249.133C702.752 248.644 702.899 247.942 702.899 247.026C702.899 246.102 702.752 245.4 702.459 244.92C702.174 244.44 701.717 244.2 701.085 244.2C700.463 244.2 700.005 244.44 699.712 244.92C699.419 245.4 699.272 246.102 699.272 247.026C699.272 247.942 699.419 248.644 699.712 249.133C700.005 249.613 700.463 249.853 701.085 249.853ZM706.469 253.693V243.026H708.295V244.066H708.615C708.784 243.729 709.046 243.444 709.402 243.213C709.766 242.973 710.246 242.853 710.842 242.853C711.562 242.853 712.157 243.031 712.629 243.386C713.109 243.742 713.464 244.235 713.695 244.866C713.935 245.489 714.055 246.213 714.055 247.04C714.055 247.857 713.935 248.582 713.695 249.213C713.455 249.844 713.095 250.333 712.615 250.68C712.144 251.026 711.557 251.2 710.855 251.2C710.331 251.2 709.9 251.102 709.562 250.906C709.224 250.711 708.962 250.449 708.775 250.12H708.455V253.693H706.469ZM710.322 249.76C710.855 249.76 711.269 249.529 711.562 249.066C711.855 248.604 712.002 247.924 712.002 247.026C712.002 246.129 711.855 245.449 711.562 244.986C711.269 244.524 710.855 244.293 710.322 244.293C709.753 244.293 709.295 244.542 708.949 245.04C708.611 245.529 708.442 246.191 708.442 247.026C708.442 247.853 708.611 248.515 708.949 249.013C709.295 249.511 709.753 249.76 710.322 249.76ZM715.578 251.026V243.026H717.405V244.226H717.725C717.867 243.826 718.102 243.493 718.431 243.226C718.769 242.96 719.24 242.826 719.845 242.826C720.405 242.826 720.867 242.951 721.231 243.2C721.596 243.44 721.876 243.782 722.071 244.226H722.391C722.542 243.817 722.791 243.484 723.138 243.226C723.485 242.96 723.951 242.826 724.538 242.826C725.409 242.826 726.053 243.111 726.471 243.68C726.889 244.24 727.098 244.991 727.098 245.933V251.026H725.125V246.28C725.125 245.702 725.027 245.253 724.831 244.933C724.645 244.613 724.342 244.453 723.925 244.453C723.409 244.453 723.013 244.671 722.738 245.106C722.462 245.542 722.325 246.075 722.325 246.706V251.026H720.351V246.28C720.351 245.702 720.253 245.253 720.058 244.933C719.871 244.613 719.569 244.453 719.151 244.453C718.645 244.453 718.253 244.671 717.978 245.106C717.702 245.542 717.565 246.075 717.565 246.706V251.026H715.578ZM732.313 251.226C731.078 251.226 730.136 250.849 729.487 250.093C728.838 249.329 728.513 248.302 728.513 247.013C728.513 246.151 728.656 245.409 728.94 244.786C729.233 244.164 729.66 243.684 730.22 243.346C730.789 243 731.482 242.826 732.3 242.826C733.464 242.826 734.353 243.186 734.967 243.906C735.589 244.617 735.9 245.666 735.9 247.053V247.493H730.447C730.491 248.195 730.673 248.755 730.993 249.173C731.313 249.591 731.758 249.8 732.327 249.8C732.762 249.8 733.113 249.671 733.38 249.413C733.647 249.155 733.829 248.84 733.927 248.466H735.807C735.718 248.964 735.536 249.422 735.26 249.84C734.984 250.257 734.602 250.595 734.113 250.853C733.633 251.102 733.033 251.226 732.313 251.226ZM730.447 246.213H733.98C733.944 245.573 733.78 245.075 733.487 244.72C733.202 244.364 732.802 244.186 732.287 244.186C731.762 244.186 731.34 244.36 731.02 244.706C730.709 245.044 730.518 245.546 730.447 246.213ZM737.375 251.026V243.026H739.201V244.226H739.521C739.673 243.817 739.921 243.484 740.268 243.226C740.615 242.96 741.104 242.826 741.735 242.826C742.633 242.826 743.299 243.111 743.735 243.68C744.179 244.24 744.401 244.991 744.401 245.933V251.026H742.415V246.28C742.415 245.693 742.308 245.244 742.095 244.933C741.89 244.613 741.557 244.453 741.095 244.453C740.544 244.453 740.117 244.671 739.815 245.106C739.513 245.533 739.361 246.066 739.361 246.706V251.026H737.375ZM747.477 251.026C747.272 250.786 747.108 250.497 746.984 250.16C746.868 249.822 746.81 249.315 746.81 248.64V244.44H745.717V243.026H746.837V241.026H748.77V243.026H750.09V244.44H748.784V248.413C748.784 249.124 748.864 249.666 749.024 250.04C749.184 250.404 749.375 250.706 749.597 250.946V251.026H747.477ZM674.534 275.226C673.049 275.226 671.894 274.751 671.067 273.8C670.241 272.849 669.827 271.524 669.827 269.826C669.827 268.137 670.236 266.817 671.054 265.866C671.872 264.906 673.032 264.426 674.534 264.426C675.423 264.426 676.187 264.595 676.827 264.933C677.467 265.262 677.969 265.724 678.334 266.32C678.698 266.915 678.912 267.604 678.974 268.386H676.921C676.849 267.64 676.601 267.053 676.174 266.626C675.756 266.2 675.209 265.986 674.534 265.986C673.681 265.986 673.036 266.324 672.601 267C672.165 267.666 671.947 268.613 671.947 269.84C671.947 271.102 672.169 272.057 672.614 272.706C673.067 273.346 673.703 273.666 674.521 273.666C675.232 273.666 675.792 273.444 676.201 273C676.618 272.555 676.858 271.977 676.921 271.266H678.974C678.912 272.04 678.698 272.724 678.334 273.32C677.969 273.915 677.467 274.382 676.827 274.72C676.196 275.057 675.432 275.226 674.534 275.226ZM683.703 275.226C682.405 275.226 681.436 274.849 680.796 274.093C680.165 273.329 679.849 272.306 679.849 271.026C679.849 269.746 680.165 268.729 680.796 267.973C681.436 267.209 682.405 266.826 683.703 266.826C685 266.826 685.969 267.209 686.609 267.973C687.249 268.729 687.569 269.746 687.569 271.026C687.569 272.306 687.249 273.329 686.609 274.093C685.969 274.849 685 275.226 683.703 275.226ZM683.703 273.853C684.334 273.853 684.792 273.613 685.076 273.133C685.369 272.644 685.516 271.942 685.516 271.026C685.516 270.102 685.369 269.4 685.076 268.92C684.792 268.44 684.334 268.2 683.703 268.2C683.08 268.2 682.623 268.44 682.329 268.92C682.036 269.4 681.889 270.102 681.889 271.026C681.889 271.942 682.036 272.644 682.329 273.133C682.623 273.613 683.08 273.853 683.703 273.853ZM689.086 275.026V267.026H690.912V268.226H691.232C691.384 267.817 691.632 267.484 691.979 267.226C692.326 266.96 692.815 266.826 693.446 266.826C694.344 266.826 695.01 267.111 695.446 267.68C695.89 268.24 696.112 268.991 696.112 269.933V275.026H694.126V270.28C694.126 269.693 694.019 269.244 693.806 268.933C693.601 268.613 693.268 268.453 692.806 268.453C692.255 268.453 691.828 268.671 691.526 269.106C691.224 269.533 691.072 270.066 691.072 270.706V275.026H689.086ZM699.188 275.026C698.983 274.786 698.819 274.497 698.694 274.16C698.579 273.822 698.521 273.315 698.521 272.64V268.44H697.428V267.026H698.548V265.026H700.481V267.026H701.801V268.44H700.494V272.413C700.494 273.124 700.574 273.666 700.734 274.04C700.894 274.404 701.086 274.706 701.308 274.946V275.026H699.188ZM705.933 275.2C705.204 275.2 704.6 275.022 704.12 274.666C703.64 274.302 703.28 273.809 703.04 273.186C702.809 272.555 702.693 271.831 702.693 271.013C702.693 270.177 702.813 269.449 703.053 268.826C703.293 268.204 703.653 267.72 704.133 267.373C704.613 267.026 705.213 266.853 705.933 266.853C706.502 266.853 706.964 266.969 707.32 267.2C707.684 267.422 707.955 267.711 708.133 268.066H708.453V267.026H710.28V275.026H708.453V273.986H708.133C707.955 274.315 707.689 274.6 707.333 274.84C706.977 275.08 706.511 275.2 705.933 275.2ZM706.426 273.76C706.995 273.76 707.449 273.511 707.786 273.013C708.133 272.515 708.306 271.853 708.306 271.026C708.306 270.191 708.133 269.529 707.786 269.04C707.449 268.542 706.995 268.293 706.426 268.293C705.893 268.293 705.475 268.524 705.173 268.986C704.88 269.449 704.733 270.129 704.733 271.026C704.733 271.924 704.88 272.604 705.173 273.066C705.475 273.529 705.893 273.76 706.426 273.76ZM712.336 275.026V267.026H714.322V275.026H712.336ZM713.322 266.053C712.967 266.053 712.696 265.96 712.509 265.773C712.322 265.577 712.229 265.329 712.229 265.026C712.229 264.715 712.322 264.466 712.509 264.28C712.696 264.093 712.967 264 713.322 264C713.678 264 713.949 264.093 714.136 264.28C714.322 264.466 714.416 264.715 714.416 265.026C714.416 265.329 714.322 265.577 714.136 265.773C713.949 265.96 713.678 266.053 713.322 266.053ZM716.383 275.026V267.026H718.209V268.226H718.529C718.68 267.817 718.929 267.484 719.276 267.226C719.623 266.96 720.112 266.826 720.743 266.826C721.64 266.826 722.307 267.111 722.743 267.68C723.187 268.24 723.409 268.991 723.409 269.933V275.026H721.423V270.28C721.423 269.693 721.316 269.244 721.103 268.933C720.898 268.613 720.565 268.453 720.103 268.453C719.552 268.453 719.125 268.671 718.823 269.106C718.52 269.533 718.369 270.066 718.369 270.706V275.026H716.383ZM728.618 275.226C727.382 275.226 726.44 274.849 725.791 274.093C725.142 273.329 724.818 272.302 724.818 271.013C724.818 270.151 724.96 269.409 725.245 268.786C725.538 268.164 725.965 267.684 726.525 267.346C727.094 267 727.787 266.826 728.605 266.826C729.769 266.826 730.658 267.186 731.271 267.906C731.894 268.617 732.205 269.666 732.205 271.053V271.493H726.751C726.796 272.195 726.978 272.755 727.298 273.173C727.618 273.591 728.062 273.8 728.631 273.8C729.067 273.8 729.418 273.671 729.685 273.413C729.951 273.155 730.134 272.84 730.231 272.466H732.111C732.022 272.964 731.84 273.422 731.565 273.84C731.289 274.257 730.907 274.595 730.418 274.853C729.938 275.102 729.338 275.226 728.618 275.226ZM726.751 270.213H730.285C730.249 269.573 730.085 269.075 729.791 268.72C729.507 268.364 729.107 268.186 728.591 268.186C728.067 268.186 727.645 268.36 727.325 268.706C727.014 269.044 726.822 269.546 726.751 270.213ZM733.666 275.026V267.026H735.466V268.466H735.786C735.839 268.209 735.937 267.964 736.079 267.733C736.222 267.502 736.444 267.315 736.746 267.173C737.048 267.022 737.457 266.946 737.973 266.946H738.359V268.746H737.813C737.048 268.746 736.497 268.942 736.159 269.333C735.822 269.724 735.653 270.315 735.653 271.106V275.026H733.666Z" fill="#111827"/>
<rect x="129.095" y="97.5625" width="126.853" height="63.0371" fill="#FAFAFA"/>
<path d="M159.72 123.081V112.681H163.36L165.494 121.454H165.934L168.094 112.681H171.734V123.081H169.8V114.374H169.454L167.36 123.081H163.974L161.88 114.374H161.534V123.081H159.72ZM176.528 123.254C175.799 123.254 175.194 123.077 174.714 122.721C174.234 122.357 173.874 121.863 173.634 121.241C173.403 120.61 173.288 119.885 173.288 119.068C173.288 118.232 173.408 117.503 173.648 116.881C173.888 116.259 174.248 115.774 174.728 115.428C175.208 115.081 175.808 114.908 176.528 114.908C177.097 114.908 177.559 115.023 177.914 115.254C178.279 115.477 178.55 115.765 178.728 116.121H179.048V115.081H180.874V123.081H179.048V122.041H178.728C178.55 122.37 178.283 122.654 177.928 122.894C177.572 123.134 177.106 123.254 176.528 123.254ZM177.021 121.814C177.59 121.814 178.043 121.565 178.381 121.068C178.728 120.57 178.901 119.908 178.901 119.081C178.901 118.245 178.728 117.583 178.381 117.094C178.043 116.597 177.59 116.348 177.021 116.348C176.488 116.348 176.07 116.579 175.768 117.041C175.474 117.503 175.328 118.183 175.328 119.081C175.328 119.979 175.474 120.659 175.768 121.121C176.07 121.583 176.488 121.814 177.021 121.814ZM182.93 123.081V115.081H184.757V116.281H185.077C185.228 115.872 185.477 115.539 185.824 115.281C186.17 115.014 186.659 114.881 187.29 114.881C188.188 114.881 188.855 115.165 189.29 115.734C189.735 116.294 189.957 117.045 189.957 117.988V123.081H187.97V118.334C187.97 117.748 187.864 117.299 187.65 116.988C187.446 116.668 187.113 116.508 186.65 116.508C186.099 116.508 185.673 116.725 185.37 117.161C185.068 117.588 184.917 118.121 184.917 118.761V123.081H182.93ZM194.606 123.254C193.877 123.254 193.273 123.077 192.793 122.721C192.313 122.357 191.953 121.863 191.713 121.241C191.481 120.61 191.366 119.885 191.366 119.068C191.366 118.232 191.486 117.503 191.726 116.881C191.966 116.259 192.326 115.774 192.806 115.428C193.286 115.081 193.886 114.908 194.606 114.908C195.175 114.908 195.637 115.023 195.993 115.254C196.357 115.477 196.628 115.765 196.806 116.121H197.126V115.081H198.953V123.081H197.126V122.041H196.806C196.628 122.37 196.361 122.654 196.006 122.894C195.65 123.134 195.184 123.254 194.606 123.254ZM195.099 121.814C195.668 121.814 196.121 121.565 196.459 121.068C196.806 120.57 196.979 119.908 196.979 119.081C196.979 118.245 196.806 117.583 196.459 117.094C196.121 116.597 195.668 116.348 195.099 116.348C194.566 116.348 194.148 116.579 193.846 117.041C193.553 117.503 193.406 118.183 193.406 119.081C193.406 119.979 193.553 120.659 193.846 121.121C194.148 121.583 194.566 121.814 195.099 121.814ZM204.302 125.948C203.6 125.948 203.026 125.859 202.582 125.681C202.146 125.512 201.804 125.294 201.555 125.028C201.315 124.77 201.142 124.499 201.035 124.214C200.929 123.939 200.866 123.685 200.849 123.454H202.782C202.826 123.73 202.96 123.974 203.182 124.188C203.413 124.41 203.786 124.521 204.302 124.521C204.871 124.521 205.302 124.352 205.595 124.014C205.897 123.685 206.049 123.201 206.049 122.561V121.628H205.729C205.595 122.001 205.36 122.299 205.022 122.521C204.684 122.743 204.235 122.854 203.675 122.854C202.644 122.854 201.853 122.494 201.302 121.774C200.751 121.045 200.475 120.072 200.475 118.854C200.475 118.072 200.595 117.383 200.835 116.788C201.084 116.183 201.444 115.717 201.915 115.388C202.395 115.05 202.991 114.881 203.702 114.881C204.262 114.881 204.706 114.992 205.035 115.214C205.373 115.428 205.622 115.708 205.782 116.054H206.102V115.081H207.929V122.521C207.929 123.614 207.626 124.459 207.022 125.054C206.426 125.65 205.52 125.948 204.302 125.948ZM204.155 121.414C204.724 121.414 205.164 121.183 205.475 120.721C205.795 120.25 205.955 119.632 205.955 118.868C205.955 118.085 205.795 117.468 205.475 117.014C205.155 116.552 204.715 116.321 204.155 116.321C203.64 116.321 203.231 116.534 202.929 116.961C202.626 117.388 202.475 118.023 202.475 118.868C202.475 119.712 202.622 120.348 202.915 120.774C203.217 121.201 203.631 121.414 204.155 121.414ZM213.244 123.281C212.008 123.281 211.066 122.903 210.417 122.148C209.768 121.383 209.444 120.357 209.444 119.068C209.444 118.205 209.586 117.463 209.871 116.841C210.164 116.219 210.591 115.739 211.151 115.401C211.72 115.054 212.413 114.881 213.231 114.881C214.395 114.881 215.284 115.241 215.897 115.961C216.52 116.672 216.831 117.721 216.831 119.108V119.548H211.377C211.422 120.25 211.604 120.81 211.924 121.228C212.244 121.645 212.688 121.854 213.257 121.854C213.693 121.854 214.044 121.725 214.311 121.468C214.577 121.21 214.76 120.894 214.857 120.521H216.737C216.648 121.019 216.466 121.477 216.191 121.894C215.915 122.312 215.533 122.65 215.044 122.908C214.564 123.157 213.964 123.281 213.244 123.281ZM211.377 118.268H214.911C214.875 117.628 214.711 117.13 214.417 116.774C214.133 116.419 213.733 116.241 213.217 116.241C212.693 116.241 212.271 116.414 211.951 116.761C211.64 117.099 211.448 117.601 211.377 118.268ZM220.972 123.254C220.252 123.254 219.657 123.077 219.185 122.721C218.714 122.357 218.359 121.863 218.119 121.241C217.879 120.61 217.759 119.885 217.759 119.068C217.759 118.232 217.879 117.503 218.119 116.881C218.359 116.259 218.714 115.774 219.185 115.428C219.665 115.081 220.257 114.908 220.959 114.908C221.492 114.908 221.923 115.005 222.252 115.201C222.59 115.397 222.857 115.654 223.052 115.974H223.372V112.414H225.345V123.081H223.532V122.041H223.212C223.034 122.37 222.763 122.654 222.399 122.894C222.043 123.134 221.568 123.254 220.972 123.254ZM221.492 121.814C222.07 121.814 222.528 121.565 222.865 121.068C223.203 120.57 223.372 119.908 223.372 119.081C223.372 118.245 223.203 117.583 222.865 117.094C222.528 116.597 222.07 116.348 221.492 116.348C220.968 116.348 220.554 116.579 220.252 117.041C219.959 117.503 219.812 118.183 219.812 119.081C219.812 119.979 219.959 120.659 220.252 121.121C220.554 121.583 220.968 121.814 221.492 121.814ZM153.494 147.081V136.681H155.494V140.774H156.294L159.414 136.681H161.681V136.761L157.987 141.508L162.214 147.001V147.081H159.761L156.294 142.428H155.494V147.081H153.494ZM165.416 147.281C164.509 147.281 163.833 147.001 163.389 146.441C162.944 145.872 162.722 145.117 162.722 144.174V139.081H164.709V143.828C164.709 144.405 164.811 144.854 165.016 145.174C165.229 145.494 165.562 145.654 166.016 145.654C166.576 145.654 167.007 145.437 167.309 145.001C167.611 144.565 167.762 144.032 167.762 143.401V139.081H169.749V147.081H167.962V145.881H167.642C167.509 146.29 167.26 146.628 166.896 146.894C166.54 147.152 166.047 147.281 165.416 147.281ZM176.171 147.254C175.575 147.254 175.095 147.134 174.731 146.894C174.375 146.654 174.113 146.37 173.944 146.041H173.624V147.081H171.798V136.414H173.784V139.974H174.104C174.291 139.654 174.553 139.397 174.891 139.201C175.229 139.005 175.66 138.908 176.184 138.908C176.887 138.908 177.473 139.081 177.944 139.428C178.424 139.774 178.784 140.259 179.024 140.881C179.264 141.503 179.384 142.232 179.384 143.068C179.384 143.885 179.264 144.61 179.024 145.241C178.793 145.863 178.438 146.357 177.958 146.721C177.487 147.077 176.891 147.254 176.171 147.254ZM175.651 145.814C176.184 145.814 176.598 145.583 176.891 145.121C177.184 144.659 177.331 143.979 177.331 143.081C177.331 142.183 177.184 141.503 176.891 141.041C176.598 140.579 176.184 140.348 175.651 140.348C175.082 140.348 174.624 140.597 174.278 141.094C173.94 141.583 173.771 142.245 173.771 143.081C173.771 143.908 173.94 144.57 174.278 145.068C174.624 145.565 175.082 145.814 175.651 145.814ZM184.174 147.281C182.938 147.281 181.996 146.903 181.347 146.148C180.698 145.383 180.374 144.357 180.374 143.068C180.374 142.205 180.516 141.463 180.8 140.841C181.094 140.219 181.52 139.739 182.08 139.401C182.649 139.054 183.343 138.881 184.16 138.881C185.325 138.881 186.214 139.241 186.827 139.961C187.449 140.672 187.76 141.721 187.76 143.108V143.548H182.307C182.351 144.25 182.534 144.81 182.854 145.228C183.174 145.645 183.618 145.854 184.187 145.854C184.623 145.854 184.974 145.725 185.24 145.468C185.507 145.21 185.689 144.894 185.787 144.521H187.667C187.578 145.019 187.396 145.477 187.12 145.894C186.845 146.312 186.463 146.65 185.974 146.908C185.494 147.157 184.894 147.281 184.174 147.281ZM182.307 142.268H185.84C185.805 141.628 185.64 141.13 185.347 140.774C185.063 140.419 184.663 140.241 184.147 140.241C183.623 140.241 183.2 140.414 182.88 140.761C182.569 141.099 182.378 141.601 182.307 142.268ZM189.222 147.081V139.081H191.022V140.521H191.342C191.395 140.263 191.493 140.019 191.635 139.788C191.777 139.557 192 139.37 192.302 139.228C192.604 139.077 193.013 139.001 193.528 139.001H193.915V140.801H193.368C192.604 140.801 192.053 140.997 191.715 141.388C191.377 141.779 191.208 142.37 191.208 143.161V147.081H189.222ZM195.345 147.081V139.081H197.171V140.281H197.491C197.642 139.872 197.891 139.539 198.238 139.281C198.585 139.014 199.073 138.881 199.705 138.881C200.602 138.881 201.269 139.165 201.705 139.734C202.149 140.294 202.371 141.045 202.371 141.988V147.081H200.385V142.334C200.385 141.748 200.278 141.299 200.065 140.988C199.86 140.668 199.527 140.508 199.065 140.508C198.513 140.508 198.087 140.725 197.785 141.161C197.482 141.588 197.331 142.121 197.331 142.761V147.081H195.345ZM207.58 147.281C206.344 147.281 205.402 146.903 204.753 146.148C204.104 145.383 203.78 144.357 203.78 143.068C203.78 142.205 203.922 141.463 204.207 140.841C204.5 140.219 204.927 139.739 205.487 139.401C206.056 139.054 206.749 138.881 207.567 138.881C208.731 138.881 209.62 139.241 210.233 139.961C210.856 140.672 211.167 141.721 211.167 143.108V143.548H205.713C205.758 144.25 205.94 144.81 206.26 145.228C206.58 145.645 207.024 145.854 207.593 145.854C208.029 145.854 208.38 145.725 208.647 145.468C208.913 145.21 209.096 144.894 209.193 144.521H211.073C210.984 145.019 210.802 145.477 210.527 145.894C210.251 146.312 209.869 146.65 209.38 146.908C208.9 147.157 208.3 147.281 207.58 147.281ZM205.713 142.268H209.247C209.211 141.628 209.047 141.13 208.753 140.774C208.469 140.419 208.069 140.241 207.553 140.241C207.029 140.241 206.607 140.414 206.287 140.761C205.976 141.099 205.784 141.601 205.713 142.268ZM213.775 147.081C213.57 146.841 213.406 146.552 213.281 146.214C213.166 145.877 213.108 145.37 213.108 144.694V140.494H212.015V139.081H213.135V137.081H215.068V139.081H216.388V140.494H215.081V144.468C215.081 145.179 215.161 145.721 215.321 146.094C215.481 146.459 215.673 146.761 215.895 147.001V147.081H213.775ZM221.08 147.281C219.844 147.281 218.902 146.903 218.253 146.148C217.604 145.383 217.28 144.357 217.28 143.068C217.28 142.205 217.422 141.463 217.707 140.841C218 140.219 218.427 139.739 218.987 139.401C219.556 139.054 220.249 138.881 221.067 138.881C222.231 138.881 223.12 139.241 223.733 139.961C224.356 140.672 224.667 141.721 224.667 143.108V143.548H219.213C219.258 144.25 219.44 144.81 219.76 145.228C220.08 145.645 220.524 145.854 221.093 145.854C221.529 145.854 221.88 145.725 222.147 145.468C222.413 145.21 222.596 144.894 222.693 144.521H224.573C224.484 145.019 224.302 145.477 224.027 145.894C223.751 146.312 223.369 146.65 222.88 146.908C222.4 147.157 221.8 147.281 221.08 147.281ZM219.213 142.268H222.747C222.711 141.628 222.547 141.13 222.253 140.774C221.969 140.419 221.569 140.241 221.053 140.241C220.529 140.241 220.107 140.414 219.787 140.761C219.476 141.099 219.284 141.601 219.213 142.268ZM229.035 147.281C228.181 147.281 227.497 147.143 226.981 146.868C226.466 146.592 226.084 146.241 225.835 145.814C225.595 145.388 225.461 144.957 225.435 144.521H227.328C227.364 144.761 227.453 144.983 227.595 145.188C227.746 145.392 227.946 145.557 228.195 145.681C228.453 145.797 228.764 145.854 229.128 145.854C229.564 145.854 229.884 145.774 230.088 145.614C230.293 145.454 230.395 145.25 230.395 145.001C230.395 144.77 230.306 144.574 230.128 144.414C229.95 144.254 229.661 144.108 229.261 143.974L228.301 143.654C227.848 143.494 227.43 143.321 227.048 143.134C226.675 142.939 226.373 142.69 226.141 142.388C225.919 142.085 225.808 141.699 225.808 141.228C225.808 140.525 226.07 139.961 226.595 139.534C227.128 139.099 227.875 138.881 228.835 138.881C229.528 138.881 230.097 138.992 230.541 139.214C230.986 139.428 231.319 139.721 231.541 140.094C231.773 140.459 231.906 140.868 231.941 141.321H230.115C230.07 140.992 229.937 140.73 229.715 140.534C229.493 140.339 229.173 140.241 228.755 140.241C228.39 140.241 228.115 140.317 227.928 140.468C227.741 140.61 227.648 140.805 227.648 141.054C227.648 141.303 227.746 141.508 227.941 141.668C228.137 141.828 228.43 141.974 228.821 142.108L229.781 142.428C230.235 142.57 230.648 142.739 231.021 142.934C231.395 143.121 231.693 143.365 231.915 143.668C232.137 143.97 232.248 144.361 232.248 144.841C232.248 145.57 231.973 146.161 231.421 146.614C230.87 147.059 230.075 147.281 229.035 147.281Z" fill="#111827"/>
<rect x="129.014" y="225.518" width="126.934" height="63.5715" fill="#FAFAFA"/>
<path d="M159.721 251.303V240.903H163.361L165.494 249.676H165.934L168.094 240.903H171.734V251.303H169.801V242.596H169.454L167.361 251.303H163.974L161.881 242.596H161.534V251.303H159.721ZM176.528 251.476C175.799 251.476 175.195 251.298 174.715 250.943C174.235 250.578 173.875 250.085 173.635 249.463C173.404 248.832 173.288 248.107 173.288 247.289C173.288 246.454 173.408 245.725 173.648 245.103C173.888 244.481 174.248 243.996 174.728 243.649C175.208 243.303 175.808 243.129 176.528 243.129C177.097 243.129 177.559 243.245 177.915 243.476C178.279 243.698 178.551 243.987 178.728 244.343H179.048V243.303H180.875V251.303H179.048V250.263H178.728C178.551 250.592 178.284 250.876 177.928 251.116C177.573 251.356 177.106 251.476 176.528 251.476ZM177.022 250.036C177.591 250.036 178.044 249.787 178.382 249.289C178.728 248.792 178.902 248.129 178.902 247.303C178.902 246.467 178.728 245.805 178.382 245.316C178.044 244.818 177.591 244.569 177.022 244.569C176.488 244.569 176.071 244.801 175.768 245.263C175.475 245.725 175.328 246.405 175.328 247.303C175.328 248.201 175.475 248.881 175.768 249.343C176.071 249.805 176.488 250.036 177.022 250.036ZM182.931 251.303V243.303H184.758V244.503H185.078C185.229 244.094 185.478 243.761 185.824 243.503C186.171 243.236 186.66 243.103 187.291 243.103C188.189 243.103 188.855 243.387 189.291 243.956C189.735 244.516 189.958 245.267 189.958 246.209V251.303H187.971V246.556C187.971 245.969 187.864 245.521 187.651 245.209C187.447 244.889 187.113 244.729 186.651 244.729C186.1 244.729 185.673 244.947 185.371 245.383C185.069 245.809 184.918 246.343 184.918 246.983V251.303H182.931ZM194.606 251.476C193.878 251.476 193.273 251.298 192.793 250.943C192.313 250.578 191.953 250.085 191.713 249.463C191.482 248.832 191.366 248.107 191.366 247.289C191.366 246.454 191.486 245.725 191.726 245.103C191.966 244.481 192.326 243.996 192.806 243.649C193.286 243.303 193.886 243.129 194.606 243.129C195.175 243.129 195.638 243.245 195.993 243.476C196.358 243.698 196.629 243.987 196.806 244.343H197.126V243.303H198.953V251.303H197.126V250.263H196.806C196.629 250.592 196.362 250.876 196.006 251.116C195.651 251.356 195.184 251.476 194.606 251.476ZM195.1 250.036C195.669 250.036 196.122 249.787 196.46 249.289C196.806 248.792 196.98 248.129 196.98 247.303C196.98 246.467 196.806 245.805 196.46 245.316C196.122 244.818 195.669 244.569 195.1 244.569C194.566 244.569 194.149 244.801 193.846 245.263C193.553 245.725 193.406 246.405 193.406 247.303C193.406 248.201 193.553 248.881 193.846 249.343C194.149 249.805 194.566 250.036 195.1 250.036ZM204.302 254.169C203.6 254.169 203.027 254.081 202.582 253.903C202.147 253.734 201.805 253.516 201.556 253.249C201.316 252.992 201.142 252.721 201.036 252.436C200.929 252.161 200.867 251.907 200.849 251.676H202.782C202.827 251.952 202.96 252.196 203.182 252.409C203.414 252.632 203.787 252.743 204.302 252.743C204.871 252.743 205.302 252.574 205.596 252.236C205.898 251.907 206.049 251.423 206.049 250.783V249.849H205.729C205.596 250.223 205.36 250.521 205.022 250.743C204.685 250.965 204.236 251.076 203.676 251.076C202.645 251.076 201.854 250.716 201.302 249.996C200.751 249.267 200.476 248.294 200.476 247.076C200.476 246.294 200.596 245.605 200.836 245.009C201.085 244.405 201.445 243.938 201.916 243.609C202.396 243.272 202.991 243.103 203.702 243.103C204.262 243.103 204.707 243.214 205.036 243.436C205.374 243.649 205.622 243.929 205.782 244.276H206.102V243.303H207.929V250.743C207.929 251.836 207.627 252.681 207.022 253.276C206.427 253.872 205.52 254.169 204.302 254.169ZM204.156 249.636C204.725 249.636 205.165 249.405 205.476 248.943C205.796 248.472 205.956 247.854 205.956 247.089C205.956 246.307 205.796 245.689 205.476 245.236C205.156 244.774 204.716 244.543 204.156 244.543C203.64 244.543 203.231 244.756 202.929 245.183C202.627 245.609 202.476 246.245 202.476 247.089C202.476 247.934 202.622 248.569 202.916 248.996C203.218 249.423 203.631 249.636 204.156 249.636ZM213.245 251.503C212.009 251.503 211.067 251.125 210.418 250.369C209.769 249.605 209.445 248.578 209.445 247.289C209.445 246.427 209.587 245.685 209.871 245.063C210.165 244.441 210.591 243.961 211.151 243.623C211.72 243.276 212.413 243.103 213.231 243.103C214.396 243.103 215.285 243.463 215.898 244.183C216.52 244.894 216.831 245.943 216.831 247.329V247.769H211.378C211.422 248.472 211.605 249.032 211.925 249.449C212.245 249.867 212.689 250.076 213.258 250.076C213.693 250.076 214.045 249.947 214.311 249.689C214.578 249.432 214.76 249.116 214.858 248.743H216.738C216.649 249.241 216.467 249.698 216.191 250.116C215.916 250.534 215.533 250.872 215.045 251.129C214.565 251.378 213.965 251.503 213.245 251.503ZM211.378 246.489H214.911C214.876 245.849 214.711 245.352 214.418 244.996C214.133 244.641 213.733 244.463 213.218 244.463C212.693 244.463 212.271 244.636 211.951 244.983C211.64 245.321 211.449 245.823 211.378 246.489ZM220.973 251.476C220.253 251.476 219.657 251.298 219.186 250.943C218.715 250.578 218.359 250.085 218.119 249.463C217.879 248.832 217.759 248.107 217.759 247.289C217.759 246.454 217.879 245.725 218.119 245.103C218.359 244.481 218.715 243.996 219.186 243.649C219.666 243.303 220.257 243.129 220.959 243.129C221.493 243.129 221.924 243.227 222.253 243.423C222.59 243.618 222.857 243.876 223.053 244.196H223.373V240.636H225.346V251.303H223.533V250.263H223.213C223.035 250.592 222.764 250.876 222.399 251.116C222.044 251.356 221.568 251.476 220.973 251.476ZM221.493 250.036C222.07 250.036 222.528 249.787 222.866 249.289C223.204 248.792 223.373 248.129 223.373 247.303C223.373 246.467 223.204 245.805 222.866 245.316C222.528 244.818 222.07 244.569 221.493 244.569C220.968 244.569 220.555 244.801 220.253 245.263C219.959 245.725 219.813 246.405 219.813 247.303C219.813 248.201 219.959 248.881 220.253 249.343C220.555 249.805 220.968 250.036 221.493 250.036ZM159.641 275.303V264.903H161.694V275.303H159.641ZM163.79 275.303V267.303H165.617V268.503H165.937C166.088 268.094 166.337 267.761 166.684 267.503C167.03 267.236 167.519 267.103 168.15 267.103C169.048 267.103 169.715 267.387 170.15 267.956C170.595 268.516 170.817 269.267 170.817 270.209V275.303H168.83V270.556C168.83 269.969 168.724 269.521 168.51 269.209C168.306 268.889 167.973 268.729 167.51 268.729C166.959 268.729 166.533 268.947 166.23 269.383C165.928 269.809 165.777 270.343 165.777 270.983V275.303H163.79ZM175.652 275.503C174.799 275.503 174.115 275.365 173.599 275.089C173.084 274.814 172.701 274.463 172.452 274.036C172.212 273.609 172.079 273.178 172.052 272.743H173.946C173.981 272.983 174.07 273.205 174.212 273.409C174.364 273.614 174.564 273.778 174.812 273.903C175.07 274.018 175.381 274.076 175.746 274.076C176.181 274.076 176.501 273.996 176.706 273.836C176.91 273.676 177.012 273.472 177.012 273.223C177.012 272.992 176.924 272.796 176.746 272.636C176.568 272.476 176.279 272.329 175.879 272.196L174.919 271.876C174.466 271.716 174.048 271.543 173.666 271.356C173.292 271.161 172.99 270.912 172.759 270.609C172.537 270.307 172.426 269.921 172.426 269.449C172.426 268.747 172.688 268.183 173.212 267.756C173.746 267.321 174.492 267.103 175.452 267.103C176.146 267.103 176.715 267.214 177.159 267.436C177.604 267.649 177.937 267.943 178.159 268.316C178.39 268.681 178.524 269.089 178.559 269.543H176.732C176.688 269.214 176.555 268.952 176.332 268.756C176.11 268.561 175.79 268.463 175.372 268.463C175.008 268.463 174.732 268.538 174.546 268.689C174.359 268.832 174.266 269.027 174.266 269.276C174.266 269.525 174.364 269.729 174.559 269.889C174.755 270.049 175.048 270.196 175.439 270.329L176.399 270.649C176.852 270.792 177.266 270.961 177.639 271.156C178.012 271.343 178.31 271.587 178.532 271.889C178.755 272.192 178.866 272.583 178.866 273.063C178.866 273.792 178.59 274.383 178.039 274.836C177.488 275.281 176.692 275.503 175.652 275.503ZM181.392 275.303C181.188 275.063 181.024 274.774 180.899 274.436C180.784 274.098 180.726 273.592 180.726 272.916V268.716H179.632V267.303H180.752V265.303H182.686V267.303H184.006V268.716H182.699V272.689C182.699 273.401 182.779 273.943 182.939 274.316C183.099 274.681 183.29 274.983 183.512 275.223V275.303H181.392ZM188.138 275.476C187.409 275.476 186.804 275.298 186.324 274.943C185.844 274.578 185.484 274.085 185.244 273.463C185.013 272.832 184.898 272.107 184.898 271.289C184.898 270.454 185.018 269.725 185.258 269.103C185.498 268.481 185.858 267.996 186.338 267.649C186.818 267.303 187.418 267.129 188.138 267.129C188.707 267.129 189.169 267.245 189.524 267.476C189.889 267.698 190.16 267.987 190.338 268.343H190.658V267.303H192.484V275.303H190.658V274.263H190.338C190.16 274.592 189.893 274.876 189.538 275.116C189.182 275.356 188.715 275.476 188.138 275.476ZM188.631 274.036C189.2 274.036 189.653 273.787 189.991 273.289C190.338 272.792 190.511 272.129 190.511 271.303C190.511 270.467 190.338 269.805 189.991 269.316C189.653 268.818 189.2 268.569 188.631 268.569C188.098 268.569 187.68 268.801 187.378 269.263C187.084 269.725 186.938 270.405 186.938 271.303C186.938 272.201 187.084 272.881 187.378 273.343C187.68 273.805 188.098 274.036 188.631 274.036ZM194.54 275.303V267.303H196.367V268.503H196.687C196.838 268.094 197.087 267.761 197.434 267.503C197.78 267.236 198.269 267.103 198.9 267.103C199.798 267.103 200.465 267.387 200.9 267.956C201.345 268.516 201.567 269.267 201.567 270.209V275.303H199.58V270.556C199.58 269.969 199.474 269.521 199.26 269.209C199.056 268.889 198.723 268.729 198.26 268.729C197.709 268.729 197.283 268.947 196.98 269.383C196.678 269.809 196.527 270.343 196.527 270.983V275.303H194.54ZM206.696 275.503C205.478 275.503 204.554 275.125 203.922 274.369C203.291 273.605 202.976 272.583 202.976 271.303C202.976 269.961 203.305 268.925 203.962 268.196C204.629 267.467 205.545 267.103 206.709 267.103C207.74 267.103 208.554 267.378 209.149 267.929C209.745 268.481 210.1 269.236 210.216 270.196H208.269C208.207 269.663 208.042 269.254 207.776 268.969C207.509 268.676 207.162 268.529 206.736 268.529C206.176 268.529 205.749 268.774 205.456 269.263C205.162 269.743 205.016 270.423 205.016 271.303C205.016 272.183 205.158 272.863 205.442 273.343C205.736 273.823 206.162 274.063 206.722 274.063C207.158 274.063 207.509 273.921 207.776 273.636C208.042 273.343 208.207 272.929 208.269 272.396H210.216C210.091 273.356 209.727 274.116 209.122 274.676C208.527 275.227 207.718 275.503 206.696 275.503ZM214.948 275.503C213.712 275.503 212.77 275.125 212.121 274.369C211.472 273.605 211.148 272.578 211.148 271.289C211.148 270.427 211.29 269.685 211.574 269.063C211.868 268.441 212.294 267.961 212.854 267.623C213.423 267.276 214.117 267.103 214.934 267.103C216.099 267.103 216.988 267.463 217.601 268.183C218.223 268.894 218.534 269.943 218.534 271.329V271.769H213.081C213.125 272.472 213.308 273.032 213.628 273.449C213.948 273.867 214.392 274.076 214.961 274.076C215.397 274.076 215.748 273.947 216.014 273.689C216.281 273.432 216.463 273.116 216.561 272.743H218.441C218.352 273.241 218.17 273.698 217.894 274.116C217.619 274.534 217.237 274.872 216.748 275.129C216.268 275.378 215.668 275.503 214.948 275.503ZM213.081 270.489H216.614C216.579 269.849 216.414 269.352 216.121 268.996C215.837 268.641 215.437 268.463 214.921 268.463C214.397 268.463 213.974 268.636 213.654 268.983C213.343 269.321 213.152 269.823 213.081 270.489ZM222.902 275.503C222.049 275.503 221.365 275.365 220.849 275.089C220.334 274.814 219.951 274.463 219.702 274.036C219.462 273.609 219.329 273.178 219.302 272.743H221.196C221.231 272.983 221.32 273.205 221.462 273.409C221.614 273.614 221.814 273.778 222.062 273.903C222.32 274.018 222.631 274.076 222.996 274.076C223.431 274.076 223.751 273.996 223.956 273.836C224.16 273.676 224.262 273.472 224.262 273.223C224.262 272.992 224.174 272.796 223.996 272.636C223.818 272.476 223.529 272.329 223.129 272.196L222.169 271.876C221.716 271.716 221.298 271.543 220.916 271.356C220.542 271.161 220.24 270.912 220.009 270.609C219.787 270.307 219.676 269.921 219.676 269.449C219.676 268.747 219.938 268.183 220.462 267.756C220.996 267.321 221.742 267.103 222.702 267.103C223.396 267.103 223.965 267.214 224.409 267.436C224.854 267.649 225.187 267.943 225.409 268.316C225.64 268.681 225.774 269.089 225.809 269.543H223.982C223.938 269.214 223.805 268.952 223.582 268.756C223.36 268.561 223.04 268.463 222.622 268.463C222.258 268.463 221.982 268.538 221.796 268.689C221.609 268.832 221.516 269.027 221.516 269.276C221.516 269.525 221.614 269.729 221.809 269.889C222.005 270.049 222.298 270.196 222.689 270.329L223.649 270.649C224.102 270.792 224.516 270.961 224.889 271.156C225.262 271.343 225.56 271.587 225.782 271.889C226.005 272.192 226.116 272.583 226.116 273.063C226.116 273.792 225.84 274.383 225.289 274.836C224.738 275.281 223.942 275.503 222.902 275.503Z" fill="#111827"/>
<rect x="768.552" y="161.491" width="126.948" height="62.9785" fill="#FAFAFA"/>
<path d="M786.679 186.968V176.568H790.305C792.136 176.568 793.465 177.026 794.292 177.941C795.128 178.848 795.545 180.123 795.545 181.768C795.545 183.412 795.128 184.692 794.292 185.608C793.465 186.514 792.136 186.968 790.305 186.968H786.679ZM788.732 185.354H790.172C790.91 185.354 791.519 185.239 791.999 185.008C792.479 184.777 792.834 184.403 793.065 183.888C793.305 183.363 793.425 182.657 793.425 181.768C793.425 180.879 793.305 180.172 793.065 179.648C792.834 179.123 792.479 178.75 791.999 178.528C791.519 178.297 790.91 178.181 790.172 178.181H788.732V185.354ZM800.28 187.168C799.045 187.168 798.103 186.79 797.454 186.034C796.805 185.27 796.48 184.243 796.48 182.954C796.48 182.092 796.623 181.35 796.907 180.728C797.2 180.106 797.627 179.626 798.187 179.288C798.756 178.941 799.449 178.768 800.267 178.768C801.431 178.768 802.32 179.128 802.934 179.848C803.556 180.559 803.867 181.608 803.867 182.994V183.434H798.414C798.458 184.137 798.64 184.697 798.96 185.114C799.28 185.532 799.725 185.741 800.294 185.741C800.729 185.741 801.08 185.612 801.347 185.354C801.614 185.097 801.796 184.781 801.894 184.408H803.774C803.685 184.906 803.503 185.363 803.227 185.781C802.951 186.199 802.569 186.537 802.08 186.794C801.6 187.043 801 187.168 800.28 187.168ZM798.414 182.154H801.947C801.911 181.514 801.747 181.017 801.454 180.661C801.169 180.306 800.769 180.128 800.254 180.128C799.729 180.128 799.307 180.301 798.987 180.648C798.676 180.986 798.485 181.488 798.414 182.154ZM806.695 186.968L804.361 179.048V178.968H806.361L808.148 185.341H808.468L810.268 178.968H812.095V179.048L809.761 186.968H806.695ZM816.577 187.168C815.342 187.168 814.399 186.79 813.751 186.034C813.102 185.27 812.777 184.243 812.777 182.954C812.777 182.092 812.919 181.35 813.204 180.728C813.497 180.106 813.924 179.626 814.484 179.288C815.053 178.941 815.746 178.768 816.564 178.768C817.728 178.768 818.617 179.128 819.231 179.848C819.853 180.559 820.164 181.608 820.164 182.994V183.434H814.711C814.755 184.137 814.937 184.697 815.257 185.114C815.577 185.532 816.022 185.741 816.591 185.741C817.026 185.741 817.377 185.612 817.644 185.354C817.911 185.097 818.093 184.781 818.191 184.408H820.071C819.982 184.906 819.799 185.363 819.524 185.781C819.248 186.199 818.866 186.537 818.377 186.794C817.897 187.043 817.297 187.168 816.577 187.168ZM814.711 182.154H818.244C818.208 181.514 818.044 181.017 817.751 180.661C817.466 180.306 817.066 180.128 816.551 180.128C816.026 180.128 815.604 180.301 815.284 180.648C814.973 180.986 814.782 181.488 814.711 182.154ZM822.279 186.968C822.039 186.692 821.865 186.377 821.759 186.021C821.652 185.666 821.599 185.186 821.599 184.581V176.301H823.585V184.368C823.585 185.052 823.661 185.581 823.812 185.954C823.963 186.319 824.159 186.63 824.399 186.888V186.968H822.279ZM829.037 187.168C827.739 187.168 826.77 186.79 826.13 186.034C825.499 185.27 825.183 184.248 825.183 182.968C825.183 181.688 825.499 180.67 826.13 179.914C826.77 179.15 827.739 178.768 829.037 178.768C830.335 178.768 831.303 179.15 831.943 179.914C832.583 180.67 832.903 181.688 832.903 182.968C832.903 184.248 832.583 185.27 831.943 186.034C831.303 186.79 830.335 187.168 829.037 187.168ZM829.037 185.794C829.668 185.794 830.126 185.554 830.41 185.074C830.703 184.586 830.85 183.883 830.85 182.968C830.85 182.043 830.703 181.341 830.41 180.861C830.126 180.381 829.668 180.141 829.037 180.141C828.415 180.141 827.957 180.381 827.663 180.861C827.37 181.341 827.223 182.043 827.223 182.968C827.223 183.883 827.37 184.586 827.663 185.074C827.957 185.554 828.415 185.794 829.037 185.794ZM834.42 189.634V178.968H836.247V180.008H836.567C836.735 179.67 836.998 179.386 837.353 179.154C837.718 178.914 838.198 178.794 838.793 178.794C839.513 178.794 840.109 178.972 840.58 179.328C841.06 179.683 841.415 180.177 841.647 180.808C841.887 181.43 842.007 182.154 842.007 182.981C842.007 183.799 841.887 184.523 841.647 185.154C841.407 185.786 841.047 186.274 840.567 186.621C840.095 186.968 839.509 187.141 838.807 187.141C838.282 187.141 837.851 187.043 837.513 186.848C837.175 186.652 836.913 186.39 836.727 186.061H836.407V189.634H834.42ZM838.273 185.701C838.807 185.701 839.22 185.47 839.513 185.008C839.807 184.546 839.953 183.866 839.953 182.968C839.953 182.07 839.807 181.39 839.513 180.928C839.22 180.466 838.807 180.234 838.273 180.234C837.704 180.234 837.247 180.483 836.9 180.981C836.562 181.47 836.393 182.132 836.393 182.968C836.393 183.794 836.562 184.457 836.9 184.954C837.247 185.452 837.704 185.701 838.273 185.701ZM843.529 186.968V178.968H845.356V180.168H845.676C845.818 179.768 846.054 179.434 846.383 179.168C846.72 178.901 847.192 178.768 847.796 178.768C848.356 178.768 848.818 178.892 849.183 179.141C849.547 179.381 849.827 179.723 850.023 180.168H850.343C850.494 179.759 850.743 179.426 851.089 179.168C851.436 178.901 851.903 178.768 852.489 178.768C853.36 178.768 854.005 179.052 854.423 179.621C854.84 180.181 855.049 180.932 855.049 181.874V186.968H853.076V182.221C853.076 181.643 852.978 181.194 852.783 180.874C852.596 180.554 852.294 180.394 851.876 180.394C851.36 180.394 850.965 180.612 850.689 181.048C850.414 181.483 850.276 182.017 850.276 182.648V186.968H848.303V182.221C848.303 181.643 848.205 181.194 848.009 180.874C847.823 180.554 847.52 180.394 847.103 180.394C846.596 180.394 846.205 180.612 845.929 181.048C845.654 181.483 845.516 182.017 845.516 182.648V186.968H843.529ZM860.265 187.168C859.029 187.168 858.087 186.79 857.438 186.034C856.789 185.27 856.465 184.243 856.465 182.954C856.465 182.092 856.607 181.35 856.891 180.728C857.185 180.106 857.611 179.626 858.171 179.288C858.74 178.941 859.434 178.768 860.251 178.768C861.416 178.768 862.305 179.128 862.918 179.848C863.54 180.559 863.851 181.608 863.851 182.994V183.434H858.398C858.443 184.137 858.625 184.697 858.945 185.114C859.265 185.532 859.709 185.741 860.278 185.741C860.714 185.741 861.065 185.612 861.331 185.354C861.598 185.097 861.78 184.781 861.878 184.408H863.758C863.669 184.906 863.487 185.363 863.211 185.781C862.936 186.199 862.554 186.537 862.065 186.794C861.585 187.043 860.985 187.168 860.265 187.168ZM858.398 182.154H861.931C861.896 181.514 861.731 181.017 861.438 180.661C861.154 180.306 860.754 180.128 860.238 180.128C859.714 180.128 859.291 180.301 858.971 180.648C858.66 180.986 858.469 181.488 858.398 182.154ZM865.326 186.968V178.968H867.153V180.168H867.473C867.624 179.759 867.873 179.426 868.22 179.168C868.566 178.901 869.055 178.768 869.686 178.768C870.584 178.768 871.251 179.052 871.686 179.621C872.131 180.181 872.353 180.932 872.353 181.874V186.968H870.366V182.221C870.366 181.634 870.26 181.186 870.046 180.874C869.842 180.554 869.508 180.394 869.046 180.394C868.495 180.394 868.068 180.612 867.766 181.048C867.464 181.474 867.313 182.008 867.313 182.648V186.968H865.326ZM875.428 186.968C875.224 186.728 875.059 186.439 874.935 186.101C874.819 185.763 874.762 185.257 874.762 184.581V180.381H873.668V178.968H874.788V176.968H876.722V178.968H878.042V180.381H876.735V184.354C876.735 185.066 876.815 185.608 876.975 185.981C877.135 186.346 877.326 186.648 877.548 186.888V186.968H875.428ZM802.485 211.168C801.001 211.168 799.845 210.692 799.019 209.741C798.192 208.79 797.779 207.466 797.779 205.768C797.779 204.079 798.187 202.759 799.005 201.808C799.823 200.848 800.983 200.368 802.485 200.368C803.374 200.368 804.139 200.537 804.779 200.874C805.419 201.203 805.921 201.666 806.285 202.261C806.65 202.857 806.863 203.546 806.925 204.328H804.872C804.801 203.581 804.552 202.994 804.125 202.568C803.707 202.141 803.161 201.928 802.485 201.928C801.632 201.928 800.987 202.266 800.552 202.941C800.116 203.608 799.899 204.554 799.899 205.781C799.899 207.043 800.121 207.999 800.565 208.648C801.019 209.288 801.654 209.608 802.472 209.608C803.183 209.608 803.743 209.386 804.152 208.941C804.57 208.497 804.81 207.919 804.872 207.208H806.925C806.863 207.981 806.65 208.666 806.285 209.261C805.921 209.857 805.419 210.323 804.779 210.661C804.147 210.999 803.383 211.168 802.485 211.168ZM811.654 211.168C810.356 211.168 809.387 210.79 808.747 210.034C808.116 209.27 807.801 208.248 807.801 206.968C807.801 205.688 808.116 204.67 808.747 203.914C809.387 203.15 810.356 202.768 811.654 202.768C812.952 202.768 813.921 203.15 814.561 203.914C815.201 204.67 815.521 205.688 815.521 206.968C815.521 208.248 815.201 209.27 814.561 210.034C813.921 210.79 812.952 211.168 811.654 211.168ZM811.654 209.794C812.285 209.794 812.743 209.554 813.027 209.074C813.321 208.586 813.467 207.883 813.467 206.968C813.467 206.043 813.321 205.341 813.027 204.861C812.743 204.381 812.285 204.141 811.654 204.141C811.032 204.141 810.574 204.381 810.281 204.861C809.987 205.341 809.841 206.043 809.841 206.968C809.841 207.883 809.987 208.586 810.281 209.074C810.574 209.554 811.032 209.794 811.654 209.794ZM817.037 210.968V202.968H818.864V204.168H819.184C819.335 203.759 819.584 203.426 819.93 203.168C820.277 202.901 820.766 202.768 821.397 202.768C822.295 202.768 822.962 203.052 823.397 203.621C823.842 204.181 824.064 204.932 824.064 205.874V210.968H822.077V206.221C822.077 205.634 821.97 205.186 821.757 204.874C821.553 204.554 821.219 204.394 820.757 204.394C820.206 204.394 819.779 204.612 819.477 205.048C819.175 205.474 819.024 206.008 819.024 206.648V210.968H817.037ZM827.139 210.968C826.935 210.728 826.77 210.439 826.646 210.101C826.53 209.763 826.473 209.257 826.473 208.581V204.381H825.379V202.968H826.499V200.968H828.433V202.968H829.753V204.381H828.446V208.354C828.446 209.066 828.526 209.608 828.686 209.981C828.846 210.346 829.037 210.648 829.259 210.888V210.968H827.139ZM833.884 211.141C833.156 211.141 832.551 210.963 832.071 210.608C831.591 210.243 831.231 209.75 830.991 209.128C830.76 208.497 830.644 207.772 830.644 206.954C830.644 206.119 830.764 205.39 831.004 204.768C831.244 204.146 831.604 203.661 832.084 203.314C832.564 202.968 833.164 202.794 833.884 202.794C834.453 202.794 834.916 202.91 835.271 203.141C835.636 203.363 835.907 203.652 836.084 204.008H836.404V202.968H838.231V210.968H836.404V209.928H836.084C835.907 210.257 835.64 210.541 835.284 210.781C834.929 211.021 834.462 211.141 833.884 211.141ZM834.378 209.701C834.947 209.701 835.4 209.452 835.738 208.954C836.084 208.457 836.258 207.794 836.258 206.968C836.258 206.132 836.084 205.47 835.738 204.981C835.4 204.483 834.947 204.234 834.378 204.234C833.844 204.234 833.427 204.466 833.124 204.928C832.831 205.39 832.684 206.07 832.684 206.968C832.684 207.866 832.831 208.546 833.124 209.008C833.427 209.47 833.844 209.701 834.378 209.701ZM840.287 210.968V202.968H842.274V210.968H840.287ZM841.274 201.994C840.918 201.994 840.647 201.901 840.46 201.714C840.274 201.519 840.18 201.27 840.18 200.968C840.18 200.657 840.274 200.408 840.46 200.221C840.647 200.034 840.918 199.941 841.274 199.941C841.629 199.941 841.9 200.034 842.087 200.221C842.274 200.408 842.367 200.657 842.367 200.968C842.367 201.27 842.274 201.519 842.087 201.714C841.9 201.901 841.629 201.994 841.274 201.994ZM844.334 210.968V202.968H846.161V204.168H846.481C846.632 203.759 846.881 203.426 847.227 203.168C847.574 202.901 848.063 202.768 848.694 202.768C849.592 202.768 850.258 203.052 850.694 203.621C851.138 204.181 851.361 204.932 851.361 205.874V210.968H849.374V206.221C849.374 205.634 849.267 205.186 849.054 204.874C848.85 204.554 848.516 204.394 848.054 204.394C847.503 204.394 847.076 204.612 846.774 205.048C846.472 205.474 846.321 206.008 846.321 206.648V210.968H844.334ZM856.569 211.168C855.334 211.168 854.392 210.79 853.743 210.034C853.094 209.27 852.769 208.243 852.769 206.954C852.769 206.092 852.912 205.35 853.196 204.728C853.489 204.106 853.916 203.626 854.476 203.288C855.045 202.941 855.738 202.768 856.556 202.768C857.721 202.768 858.609 203.128 859.223 203.848C859.845 204.559 860.156 205.608 860.156 206.994V207.434H854.703C854.747 208.137 854.929 208.697 855.249 209.114C855.569 209.532 856.014 209.741 856.583 209.741C857.018 209.741 857.369 209.612 857.636 209.354C857.903 209.097 858.085 208.781 858.183 208.408H860.063C859.974 208.906 859.792 209.363 859.516 209.781C859.241 210.199 858.858 210.537 858.369 210.794C857.889 211.043 857.289 211.168 856.569 211.168ZM854.703 206.154H858.236C858.201 205.514 858.036 205.017 857.743 204.661C857.458 204.306 857.058 204.128 856.543 204.128C856.018 204.128 855.596 204.301 855.276 204.648C854.965 204.986 854.774 205.488 854.703 206.154ZM861.618 210.968V202.968H863.418V204.408H863.738C863.791 204.15 863.889 203.906 864.031 203.674C864.173 203.443 864.395 203.257 864.698 203.114C865 202.963 865.409 202.888 865.924 202.888H866.311V204.688H865.764C865 204.688 864.449 204.883 864.111 205.274C863.773 205.666 863.604 206.257 863.604 207.048V210.968H861.618Z" fill="#111827"/>
<rect x="0.5" y="33.6182" width="127.494" height="62.8221" fill="#FAFAFA"/>
<path d="M35.9949 59.0283V48.6283H42.9816V50.255H38.0216V52.7217H41.8616V54.2417H38.0216V57.3883H43.0616V59.0283H35.9949ZM43.8672 59.0283V58.9483L46.3338 54.8417L44.1338 51.1083V51.0283H46.2805L47.6538 53.5083H47.9472L49.2805 51.0283H51.2538V51.1083L49.1605 54.8017L51.5872 58.9483V59.0283H49.4005L47.7872 56.1083H47.4938L45.9072 59.0283H43.8672ZM53.9163 59.0283C53.7119 58.7883 53.5475 58.4994 53.423 58.1617C53.3075 57.8239 53.2497 57.3172 53.2497 56.6417V52.4417H52.1563V51.0283H53.2763V49.0283H55.2097V51.0283H56.5297V52.4417H55.223V56.415C55.223 57.1261 55.303 57.6683 55.463 58.0417C55.623 58.4061 55.8141 58.7083 56.0363 58.9483V59.0283H53.9163ZM61.2216 59.2283C59.986 59.2283 59.0438 58.8505 58.3949 58.095C57.746 57.3305 57.4216 56.3039 57.4216 55.015C57.4216 54.1528 57.5638 53.4105 57.8482 52.7883C58.1416 52.1661 58.5682 51.6861 59.1282 51.3483C59.6971 51.0017 60.3904 50.8283 61.2082 50.8283C62.3727 50.8283 63.2616 51.1883 63.8749 51.9083C64.4971 52.6194 64.8082 53.6683 64.8082 55.055V55.495H59.3549C59.3993 56.1972 59.5816 56.7572 59.9016 57.175C60.2216 57.5928 60.666 57.8017 61.2349 57.8017C61.6704 57.8017 62.0216 57.6728 62.2882 57.415C62.5549 57.1572 62.7371 56.8417 62.8349 56.4683H64.7149C64.626 56.9661 64.4438 57.4239 64.1682 57.8417C63.8927 58.2594 63.5104 58.5972 63.0216 58.855C62.5416 59.1039 61.9416 59.2283 61.2216 59.2283ZM59.3549 54.215H62.8882C62.8527 53.575 62.6882 53.0772 62.3949 52.7217C62.1104 52.3661 61.7104 52.1883 61.1949 52.1883C60.6704 52.1883 60.2482 52.3617 59.9282 52.7083C59.6171 53.0461 59.426 53.5483 59.3549 54.215ZM66.2697 59.0283V51.0283H68.0697V52.4683H68.3897C68.443 52.2105 68.5408 51.9661 68.683 51.735C68.8252 51.5039 69.0475 51.3172 69.3497 51.175C69.6519 51.0239 70.0608 50.9483 70.5763 50.9483H70.963V52.7483H70.4163C69.6519 52.7483 69.1008 52.9439 68.763 53.335C68.4252 53.7261 68.2563 54.3172 68.2563 55.1083V59.0283H66.2697ZM72.3924 59.0283V51.0283H74.2191V52.2283H74.5391C74.6902 51.8194 74.9391 51.4861 75.2857 51.2283C75.6324 50.9617 76.1213 50.8283 76.7524 50.8283C77.6502 50.8283 78.3168 51.1128 78.7524 51.6817C79.1968 52.2417 79.4191 52.9928 79.4191 53.935V59.0283H77.4324V54.2817C77.4324 53.695 77.3257 53.2461 77.1124 52.935C76.9079 52.615 76.5746 52.455 76.1124 52.455C75.5613 52.455 75.1346 52.6728 74.8324 53.1083C74.5302 53.535 74.3791 54.0683 74.3791 54.7083V59.0283H72.3924ZM84.0678 59.2017C83.3389 59.2017 82.7345 59.0239 82.2545 58.6683C81.7745 58.3039 81.4145 57.8105 81.1745 57.1883C80.9434 56.5572 80.8278 55.8328 80.8278 55.015C80.8278 54.1794 80.9478 53.4505 81.1878 52.8283C81.4278 52.2061 81.7878 51.7217 82.2678 51.375C82.7478 51.0283 83.3478 50.855 84.0678 50.855C84.6367 50.855 85.0989 50.9705 85.4545 51.2017C85.8189 51.4239 86.09 51.7128 86.2678 52.0683H86.5878V51.0283H88.4145V59.0283H86.5878V57.9883H86.2678C86.09 58.3172 85.8234 58.6017 85.4678 58.8417C85.1123 59.0817 84.6456 59.2017 84.0678 59.2017ZM84.5611 57.7617C85.13 57.7617 85.5834 57.5128 85.9211 57.015C86.2678 56.5172 86.4411 55.855 86.4411 55.0283C86.4411 54.1928 86.2678 53.5305 85.9211 53.0417C85.5834 52.5439 85.13 52.295 84.5611 52.295C84.0278 52.295 83.61 52.5261 83.3078 52.9883C83.0145 53.4505 82.8678 54.1305 82.8678 55.0283C82.8678 55.9261 83.0145 56.6061 83.3078 57.0683C83.61 57.5305 84.0278 57.7617 84.5611 57.7617ZM91.1105 59.0283C90.8705 58.7528 90.6972 58.4372 90.5905 58.0817C90.4838 57.7261 90.4305 57.2461 90.4305 56.6417V48.3617H92.4172V56.4283C92.4172 57.1128 92.4927 57.6417 92.6438 58.015C92.795 58.3794 92.9905 58.6905 93.2305 58.9483V59.0283H91.1105ZM25.198 83.0283V72.6283H27.198V76.7217H27.998L31.118 72.6283H33.3847V72.7083L29.6913 77.455L33.918 82.9483V83.0283H31.4647L27.998 78.375H27.198V83.0283H25.198ZM37.1197 83.2283C36.213 83.2283 35.5375 82.9483 35.093 82.3883C34.6486 81.8194 34.4263 81.0639 34.4263 80.1217V75.0283H36.413V79.775C36.413 80.3528 36.5152 80.8017 36.7197 81.1217C36.933 81.4417 37.2663 81.6017 37.7197 81.6017C38.2797 81.6017 38.7108 81.3839 39.013 80.9483C39.3152 80.5128 39.4663 79.9794 39.4663 79.3483V75.0283H41.453V83.0283H39.6663V81.8283H39.3463C39.213 82.2372 38.9641 82.575 38.5997 82.8417C38.2441 83.0994 37.7508 83.2283 37.1197 83.2283ZM47.8751 83.2017C47.2795 83.2017 46.7995 83.0817 46.4351 82.8417C46.0795 82.6017 45.8173 82.3172 45.6484 81.9883H45.3284V83.0283H43.5018V72.3617H45.4884V75.9217H45.8084C45.9951 75.6017 46.2573 75.3439 46.5951 75.1483C46.9329 74.9528 47.364 74.855 47.8884 74.855C48.5907 74.855 49.1773 75.0283 49.6484 75.375C50.1284 75.7217 50.4884 76.2061 50.7284 76.8283C50.9684 77.4505 51.0884 78.1794 51.0884 79.015C51.0884 79.8328 50.9684 80.5572 50.7284 81.1883C50.4973 81.8105 50.1418 82.3039 49.6618 82.6683C49.1907 83.0239 48.5951 83.2017 47.8751 83.2017ZM47.3551 81.7617C47.8884 81.7617 48.3018 81.5305 48.5951 81.0683C48.8884 80.6061 49.0351 79.9261 49.0351 79.0283C49.0351 78.1305 48.8884 77.4505 48.5951 76.9883C48.3018 76.5261 47.8884 76.295 47.3551 76.295C46.7862 76.295 46.3284 76.5439 45.9818 77.0417C45.644 77.5305 45.4751 78.1928 45.4751 79.0283C45.4751 79.855 45.644 80.5172 45.9818 81.015C46.3284 81.5128 46.7862 81.7617 47.3551 81.7617ZM55.8778 83.2283C54.6423 83.2283 53.7 82.8505 53.0511 82.095C52.4023 81.3305 52.0778 80.3039 52.0778 79.015C52.0778 78.1528 52.22 77.4105 52.5045 76.7883C52.7978 76.1661 53.2245 75.6861 53.7845 75.3483C54.3534 75.0017 55.0467 74.8283 55.8645 74.8283C57.0289 74.8283 57.9178 75.1883 58.5311 75.9083C59.1534 76.6194 59.4645 77.6683 59.4645 79.055V79.495H54.0111C54.0556 80.1972 54.2378 80.7572 54.5578 81.175C54.8778 81.5928 55.3223 81.8017 55.8911 81.8017C56.3267 81.8017 56.6778 81.6728 56.9445 81.415C57.2111 81.1572 57.3934 80.8417 57.4911 80.4683H59.3711C59.2823 80.9661 59.1 81.4239 58.8245 81.8417C58.5489 82.2594 58.1667 82.5972 57.6778 82.855C57.1978 83.1039 56.5978 83.2283 55.8778 83.2283ZM54.0111 78.215H57.5445C57.5089 77.575 57.3445 77.0772 57.0511 76.7217C56.7667 76.3661 56.3667 76.1883 55.8511 76.1883C55.3267 76.1883 54.9045 76.3617 54.5845 76.7083C54.2734 77.0461 54.0823 77.5483 54.0111 78.215ZM60.9259 83.0283V75.0283H62.7259V76.4683H63.0459C63.0993 76.2105 63.197 75.9661 63.3393 75.735C63.4815 75.5039 63.7037 75.3172 64.0059 75.175C64.3082 75.0239 64.717 74.9483 65.2326 74.9483H65.6193V76.7483H65.0726C64.3082 76.7483 63.757 76.9439 63.4193 77.335C63.0815 77.7261 62.9126 78.3172 62.9126 79.1083V83.0283H60.9259ZM67.0486 83.0283V75.0283H68.8753V76.2283H69.1953C69.3464 75.8194 69.5953 75.4861 69.942 75.2283C70.2886 74.9617 70.7775 74.8283 71.4086 74.8283C72.3064 74.8283 72.9731 75.1128 73.4086 75.6817C73.8531 76.2417 74.0753 76.9928 74.0753 77.935V83.0283H72.0886V78.2817C72.0886 77.695 71.982 77.2461 71.7686 76.935C71.5642 76.615 71.2309 76.455 70.7686 76.455C70.2175 76.455 69.7909 76.6728 69.4886 77.1083C69.1864 77.535 69.0353 78.0683 69.0353 78.7083V83.0283H67.0486ZM79.2841 83.2283C78.0485 83.2283 77.1063 82.8505 76.4574 82.095C75.8085 81.3305 75.4841 80.3039 75.4841 79.015C75.4841 78.1528 75.6263 77.4105 75.9107 76.7883C76.2041 76.1661 76.6307 75.6861 77.1907 75.3483C77.7596 75.0017 78.4529 74.8283 79.2707 74.8283C80.4352 74.8283 81.3241 75.1883 81.9374 75.9083C82.5596 76.6194 82.8707 77.6683 82.8707 79.055V79.495H77.4174C77.4618 80.1972 77.6441 80.7572 77.9641 81.175C78.2841 81.5928 78.7285 81.8017 79.2974 81.8017C79.7329 81.8017 80.0841 81.6728 80.3507 81.415C80.6174 81.1572 80.7996 80.8417 80.8974 80.4683H82.7774C82.6885 80.9661 82.5063 81.4239 82.2307 81.8417C81.9552 82.2594 81.5729 82.5972 81.0841 82.855C80.6041 83.1039 80.0041 83.2283 79.2841 83.2283ZM77.4174 78.215H80.9507C80.9152 77.575 80.7507 77.0772 80.4574 76.7217C80.1729 76.3661 79.7729 76.1883 79.2574 76.1883C78.7329 76.1883 78.3107 76.3617 77.9907 76.7083C77.6796 77.0461 77.4885 77.5483 77.4174 78.215ZM85.4788 83.0283C85.2744 82.7883 85.11 82.4994 84.9855 82.1617C84.87 81.8239 84.8122 81.3172 84.8122 80.6417V76.4417H83.7188V75.0283H84.8388V73.0283H86.7722V75.0283H88.0922V76.4417H86.7855V80.415C86.7855 81.1261 86.8655 81.6683 87.0255 82.0417C87.1855 82.4061 87.3766 82.7083 87.5988 82.9483V83.0283H85.4788ZM92.7841 83.2283C91.5485 83.2283 90.6063 82.8505 89.9574 82.095C89.3085 81.3305 88.9841 80.3039 88.9841 79.015C88.9841 78.1528 89.1263 77.4105 89.4107 76.7883C89.7041 76.1661 90.1307 75.6861 90.6907 75.3483C91.2596 75.0017 91.9529 74.8283 92.7707 74.8283C93.9352 74.8283 94.8241 75.1883 95.4374 75.9083C96.0596 76.6194 96.3707 77.6683 96.3707 79.055V79.495H90.9174C90.9618 80.1972 91.1441 80.7572 91.4641 81.175C91.7841 81.5928 92.2285 81.8017 92.7974 81.8017C93.2329 81.8017 93.5841 81.6728 93.8507 81.415C94.1174 81.1572 94.2996 80.8417 94.3974 80.4683H96.2774C96.1885 80.9661 96.0063 81.4239 95.7307 81.8417C95.4552 82.2594 95.0729 82.5972 94.5841 82.855C94.1041 83.1039 93.5041 83.2283 92.7841 83.2283ZM90.9174 78.215H94.4507C94.4152 77.575 94.2507 77.0772 93.9574 76.7217C93.6729 76.3661 93.2729 76.1883 92.7574 76.1883C92.2329 76.1883 91.8107 76.3617 91.4907 76.7083C91.1796 77.0461 90.9885 77.5483 90.9174 78.215ZM100.739 83.2283C99.8855 83.2283 99.2011 83.0905 98.6855 82.815C98.17 82.5394 97.7877 82.1883 97.5388 81.7617C97.2988 81.335 97.1655 80.9039 97.1388 80.4683H99.0322C99.0677 80.7083 99.1566 80.9305 99.2988 81.135C99.45 81.3394 99.65 81.5039 99.8988 81.6283C100.157 81.7439 100.468 81.8017 100.832 81.8017C101.268 81.8017 101.588 81.7217 101.792 81.5617C101.997 81.4017 102.099 81.1972 102.099 80.9483C102.099 80.7172 102.01 80.5217 101.832 80.3617C101.654 80.2017 101.366 80.055 100.966 79.9217L100.006 79.6017C99.5522 79.4417 99.1344 79.2683 98.7522 79.0817C98.3788 78.8861 98.0766 78.6372 97.8455 78.335C97.6233 78.0328 97.5122 77.6461 97.5122 77.175C97.5122 76.4728 97.7744 75.9083 98.2988 75.4817C98.8322 75.0461 99.5788 74.8283 100.539 74.8283C101.232 74.8283 101.801 74.9394 102.246 75.1617C102.69 75.375 103.023 75.6683 103.246 76.0417C103.477 76.4061 103.61 76.815 103.646 77.2683H101.819C101.774 76.9394 101.641 76.6772 101.419 76.4817C101.197 76.2861 100.877 76.1883 100.459 76.1883C100.094 76.1883 99.8188 76.2639 99.6322 76.415C99.4455 76.5572 99.3522 76.7528 99.3522 77.0017C99.3522 77.2505 99.45 77.455 99.6455 77.615C99.8411 77.775 100.134 77.9217 100.526 78.055L101.486 78.375C101.939 78.5172 102.352 78.6861 102.726 78.8817C103.099 79.0683 103.397 79.3128 103.619 79.615C103.841 79.9172 103.952 80.3083 103.952 80.7883C103.952 81.5172 103.677 82.1083 103.126 82.5617C102.574 83.0061 101.779 83.2283 100.739 83.2283Z" fill="#111827"/>
<rect x="0.5" y="161.523" width="127.449" height="62.9153" fill="#FAFAFA"/>
<path d="M35.9949 188.011V177.611H42.9816V179.237H38.0216V181.704H41.8616V183.224H38.0216V186.371H43.0616V188.011H35.9949ZM43.8672 188.011V187.931L46.3338 183.824L44.1338 180.091V180.011H46.2805L47.6538 182.491H47.9472L49.2805 180.011H51.2538V180.091L49.1605 183.784L51.5872 187.931V188.011H49.4005L47.7872 185.091H47.4938L45.9072 188.011H43.8672ZM53.9163 188.011C53.7119 187.771 53.5475 187.482 53.423 187.144C53.3075 186.806 53.2497 186.3 53.2497 185.624V181.424H52.1563V180.011H53.2763V178.011H55.2097V180.011H56.5297V181.424H55.223V185.397C55.223 186.109 55.303 186.651 55.463 187.024C55.623 187.389 55.8141 187.691 56.0363 187.931V188.011H53.9163ZM61.2216 188.211C59.986 188.211 59.0438 187.833 58.3949 187.077C57.746 186.313 57.4216 185.286 57.4216 183.997C57.4216 183.135 57.5638 182.393 57.8482 181.771C58.1416 181.149 58.5682 180.669 59.1282 180.331C59.6971 179.984 60.3904 179.811 61.2082 179.811C62.3727 179.811 63.2616 180.171 63.8749 180.891C64.4971 181.602 64.8082 182.651 64.8082 184.037V184.477H59.3549C59.3993 185.18 59.5816 185.74 59.9016 186.157C60.2216 186.575 60.666 186.784 61.2349 186.784C61.6704 186.784 62.0216 186.655 62.2882 186.397C62.5549 186.14 62.7371 185.824 62.8349 185.451H64.7149C64.626 185.949 64.4438 186.406 64.1682 186.824C63.8927 187.242 63.5104 187.58 63.0216 187.837C62.5416 188.086 61.9416 188.211 61.2216 188.211ZM59.3549 183.197H62.8882C62.8527 182.557 62.6882 182.06 62.3949 181.704C62.1104 181.349 61.7104 181.171 61.1949 181.171C60.6704 181.171 60.2482 181.344 59.9282 181.691C59.6171 182.029 59.426 182.531 59.3549 183.197ZM66.2697 188.011V180.011H68.0697V181.451H68.3897C68.443 181.193 68.5408 180.949 68.683 180.717C68.8252 180.486 69.0475 180.3 69.3497 180.157C69.6519 180.006 70.0608 179.931 70.5763 179.931H70.963V181.731H70.4163C69.6519 181.731 69.1008 181.926 68.763 182.317C68.4252 182.709 68.2563 183.3 68.2563 184.091V188.011H66.2697ZM72.3924 188.011V180.011H74.2191V181.211H74.5391C74.6902 180.802 74.9391 180.469 75.2857 180.211C75.6324 179.944 76.1213 179.811 76.7524 179.811C77.6502 179.811 78.3168 180.095 78.7524 180.664C79.1968 181.224 79.4191 181.975 79.4191 182.917V188.011H77.4324V183.264C77.4324 182.677 77.3257 182.229 77.1124 181.917C76.9079 181.597 76.5746 181.437 76.1124 181.437C75.5613 181.437 75.1346 181.655 74.8324 182.091C74.5302 182.517 74.3791 183.051 74.3791 183.691V188.011H72.3924ZM84.0678 188.184C83.3389 188.184 82.7345 188.006 82.2545 187.651C81.7745 187.286 81.4145 186.793 81.1745 186.171C80.9434 185.54 80.8278 184.815 80.8278 183.997C80.8278 183.162 80.9478 182.433 81.1878 181.811C81.4278 181.189 81.7878 180.704 82.2678 180.357C82.7478 180.011 83.3478 179.837 84.0678 179.837C84.6367 179.837 85.0989 179.953 85.4545 180.184C85.8189 180.406 86.09 180.695 86.2678 181.051H86.5878V180.011H88.4145V188.011H86.5878V186.971H86.2678C86.09 187.3 85.8234 187.584 85.4678 187.824C85.1123 188.064 84.6456 188.184 84.0678 188.184ZM84.5611 186.744C85.13 186.744 85.5834 186.495 85.9211 185.997C86.2678 185.5 86.4411 184.837 86.4411 184.011C86.4411 183.175 86.2678 182.513 85.9211 182.024C85.5834 181.526 85.13 181.277 84.5611 181.277C84.0278 181.277 83.61 181.509 83.3078 181.971C83.0145 182.433 82.8678 183.113 82.8678 184.011C82.8678 184.909 83.0145 185.589 83.3078 186.051C83.61 186.513 84.0278 186.744 84.5611 186.744ZM91.1105 188.011C90.8705 187.735 90.6972 187.42 90.5905 187.064C90.4838 186.709 90.4305 186.229 90.4305 185.624V177.344H92.4172V185.411C92.4172 186.095 92.4927 186.624 92.6438 186.997C92.795 187.362 92.9905 187.673 93.2305 187.931V188.011H91.1105ZM31.3442 212.011V201.611H33.3975V212.011H31.3442ZM35.494 212.011V204.011H37.3206V205.211H37.6406C37.7917 204.802 38.0406 204.469 38.3873 204.211C38.734 203.944 39.2228 203.811 39.854 203.811C40.7517 203.811 41.4184 204.095 41.854 204.664C42.2984 205.224 42.5206 205.975 42.5206 206.917V212.011H40.534V207.264C40.534 206.677 40.4273 206.229 40.214 205.917C40.0095 205.597 39.6762 205.437 39.214 205.437C38.6628 205.437 38.2362 205.655 37.934 206.091C37.6317 206.517 37.4806 207.051 37.4806 207.691V212.011H35.494ZM47.356 212.211C46.5027 212.211 45.8183 212.073 45.3027 211.797C44.7871 211.522 44.4049 211.171 44.156 210.744C43.916 210.317 43.7827 209.886 43.756 209.451H45.6494C45.6849 209.691 45.7738 209.913 45.916 210.117C46.0671 210.322 46.2671 210.486 46.516 210.611C46.7738 210.726 47.0849 210.784 47.4494 210.784C47.8849 210.784 48.2049 210.704 48.4094 210.544C48.6138 210.384 48.716 210.18 48.716 209.931C48.716 209.7 48.6271 209.504 48.4494 209.344C48.2716 209.184 47.9827 209.037 47.5827 208.904L46.6227 208.584C46.1694 208.424 45.7516 208.251 45.3694 208.064C44.996 207.869 44.6938 207.62 44.4627 207.317C44.2405 207.015 44.1294 206.629 44.1294 206.157C44.1294 205.455 44.3916 204.891 44.916 204.464C45.4494 204.029 46.196 203.811 47.156 203.811C47.8494 203.811 48.4183 203.922 48.8627 204.144C49.3071 204.357 49.6405 204.651 49.8627 205.024C50.0938 205.389 50.2271 205.797 50.2627 206.251H48.436C48.3916 205.922 48.2583 205.66 48.036 205.464C47.8138 205.269 47.4938 205.171 47.076 205.171C46.7116 205.171 46.436 205.246 46.2494 205.397C46.0627 205.54 45.9694 205.735 45.9694 205.984C45.9694 206.233 46.0671 206.437 46.2627 206.597C46.4583 206.757 46.7516 206.904 47.1427 207.037L48.1027 207.357C48.556 207.5 48.9694 207.669 49.3427 207.864C49.716 208.051 50.0138 208.295 50.236 208.597C50.4583 208.9 50.5694 209.291 50.5694 209.771C50.5694 210.5 50.2938 211.091 49.7427 211.544C49.1916 211.989 48.396 212.211 47.356 212.211ZM53.096 212.011C52.8916 211.771 52.7271 211.482 52.6027 211.144C52.4871 210.806 52.4294 210.3 52.4294 209.624V205.424H51.336V204.011H52.456V202.011H54.3894V204.011H55.7094V205.424H54.4027V209.397C54.4027 210.109 54.4827 210.651 54.6427 211.024C54.8027 211.389 54.9938 211.691 55.216 211.931V212.011H53.096ZM59.8412 212.184C59.1124 212.184 58.5079 212.006 58.0279 211.651C57.5479 211.286 57.1879 210.793 56.9479 210.171C56.7168 209.54 56.6012 208.815 56.6012 207.997C56.6012 207.162 56.7212 206.433 56.9612 205.811C57.2012 205.189 57.5612 204.704 58.0412 204.357C58.5212 204.011 59.1212 203.837 59.8412 203.837C60.4101 203.837 60.8724 203.953 61.2279 204.184C61.5924 204.406 61.8635 204.695 62.0412 205.051H62.3612V204.011H64.1879V212.011H62.3612V210.971H62.0412C61.8635 211.3 61.5968 211.584 61.2412 211.824C60.8857 212.064 60.419 212.184 59.8412 212.184ZM60.3346 210.744C60.9035 210.744 61.3568 210.495 61.6946 209.997C62.0412 209.5 62.2146 208.837 62.2146 208.011C62.2146 207.175 62.0412 206.513 61.6946 206.024C61.3568 205.526 60.9035 205.277 60.3346 205.277C59.8012 205.277 59.3835 205.509 59.0812 205.971C58.7879 206.433 58.6412 207.113 58.6412 208.011C58.6412 208.909 58.7879 209.589 59.0812 210.051C59.3835 210.513 59.8012 210.744 60.3346 210.744ZM66.244 212.011V204.011H68.0706V205.211H68.3906C68.5417 204.802 68.7906 204.469 69.1373 204.211C69.484 203.944 69.9728 203.811 70.604 203.811C71.5017 203.811 72.1684 204.095 72.604 204.664C73.0484 205.224 73.2706 205.975 73.2706 206.917V212.011H71.284V207.264C71.284 206.677 71.1773 206.229 70.964 205.917C70.7595 205.597 70.4262 205.437 69.964 205.437C69.4128 205.437 68.9862 205.655 68.684 206.091C68.3817 206.517 68.2306 207.051 68.2306 207.691V212.011H66.244ZM78.3994 212.211C77.1816 212.211 76.2571 211.833 75.626 211.077C74.9949 210.313 74.6794 209.291 74.6794 208.011C74.6794 206.669 75.0083 205.633 75.666 204.904C76.3327 204.175 77.2483 203.811 78.4127 203.811C79.4438 203.811 80.2571 204.086 80.8527 204.637C81.4483 205.189 81.8038 205.944 81.9194 206.904H79.9727C79.9105 206.371 79.746 205.962 79.4794 205.677C79.2127 205.384 78.866 205.237 78.4394 205.237C77.8794 205.237 77.4527 205.482 77.1594 205.971C76.866 206.451 76.7194 207.131 76.7194 208.011C76.7194 208.891 76.8616 209.571 77.146 210.051C77.4394 210.531 77.866 210.771 78.426 210.771C78.8616 210.771 79.2127 210.629 79.4794 210.344C79.746 210.051 79.9105 209.637 79.9727 209.104H81.9194C81.7949 210.064 81.4305 210.824 80.826 211.384C80.2305 211.935 79.4216 212.211 78.3994 212.211ZM86.6512 212.211C85.4157 212.211 84.4735 211.833 83.8246 211.077C83.1757 210.313 82.8512 209.286 82.8512 207.997C82.8512 207.135 82.9935 206.393 83.2779 205.771C83.5712 205.149 83.9979 204.669 84.5579 204.331C85.1268 203.984 85.8201 203.811 86.6379 203.811C87.8024 203.811 88.6912 204.171 89.3046 204.891C89.9268 205.602 90.2379 206.651 90.2379 208.037V208.477H84.7846C84.829 209.18 85.0112 209.74 85.3312 210.157C85.6512 210.575 86.0957 210.784 86.6646 210.784C87.1001 210.784 87.4512 210.655 87.7179 210.397C87.9846 210.14 88.1668 209.824 88.2646 209.451H90.1446C90.0557 209.949 89.8735 210.406 89.5979 210.824C89.3224 211.242 88.9401 211.58 88.4512 211.837C87.9712 212.086 87.3712 212.211 86.6512 212.211ZM84.7846 207.197H88.3179C88.2824 206.557 88.1179 206.06 87.8246 205.704C87.5401 205.349 87.1401 205.171 86.6246 205.171C86.1001 205.171 85.6779 205.344 85.3579 205.691C85.0468 206.029 84.8557 206.531 84.7846 207.197ZM94.606 212.211C93.7527 212.211 93.0683 212.073 92.5527 211.797C92.0371 211.522 91.6549 211.171 91.406 210.744C91.166 210.317 91.0327 209.886 91.006 209.451H92.8994C92.9349 209.691 93.0238 209.913 93.166 210.117C93.3171 210.322 93.5171 210.486 93.766 210.611C94.0238 210.726 94.3349 210.784 94.6994 210.784C95.1349 210.784 95.4549 210.704 95.6594 210.544C95.8638 210.384 95.966 210.18 95.966 209.931C95.966 209.7 95.8771 209.504 95.6994 209.344C95.5216 209.184 95.2327 209.037 94.8327 208.904L93.8727 208.584C93.4194 208.424 93.0016 208.251 92.6194 208.064C92.246 207.869 91.9438 207.62 91.7127 207.317C91.4905 207.015 91.3794 206.629 91.3794 206.157C91.3794 205.455 91.6416 204.891 92.166 204.464C92.6994 204.029 93.446 203.811 94.406 203.811C95.0994 203.811 95.6683 203.922 96.1127 204.144C96.5571 204.357 96.8905 204.651 97.1127 205.024C97.3438 205.389 97.4771 205.797 97.5127 206.251H95.686C95.6416 205.922 95.5083 205.66 95.286 205.464C95.0638 205.269 94.7438 205.171 94.326 205.171C93.9616 205.171 93.686 205.246 93.4994 205.397C93.3127 205.54 93.2194 205.735 93.2194 205.984C93.2194 206.233 93.3171 206.437 93.5127 206.597C93.7083 206.757 94.0016 206.904 94.3927 207.037L95.3527 207.357C95.806 207.5 96.2194 207.669 96.5927 207.864C96.966 208.051 97.2638 208.295 97.486 208.597C97.7083 208.9 97.8194 209.291 97.8194 209.771C97.8194 210.5 97.5438 211.091 96.9927 211.544C96.4416 211.989 95.646 212.211 94.606 212.211Z" fill="#111827"/>
<defs>
<linearGradient id="paint0_linear_1278_40255" x1="497.062" y1="47.9371" x2="768.873" y2="47.9371" gradientUnits="userSpaceOnUse">
<stop offset="0.7" stop-color="#3B82F6"/>
<stop offset="1" stop-color="#3B82F6" stop-opacity="0"/>
</linearGradient>
<linearGradient id="paint1_linear_1278_40255" x1="497.34" y1="81.2321" x2="117.467" y2="81.2321" gradientUnits="userSpaceOnUse">
<stop offset="0.7" stop-color="#3B82F6"/>
<stop offset="1" stop-color="#3B82F6" stop-opacity="0"/>
</linearGradient>
<linearGradient id="paint2_linear_1278_40255" x1="497.34" y1="257.571" x2="704.643" y2="257.571" gradientUnits="userSpaceOnUse">
<stop offset="0.65" stop-color="#3B82F6"/>
<stop offset="1" stop-color="#3B82F6" stop-opacity="0"/>
</linearGradient>
<linearGradient id="paint3_linear_1278_40255" x1="497.339" y1="257.57" x2="266.213" y2="257.57" gradientUnits="userSpaceOnUse">
<stop offset="0.830838" stop-color="#3B82F6"/>
<stop offset="1" stop-color="#3B82F6" stop-opacity="0"/>
</linearGradient>
<linearGradient id="paint4_linear_1278_40255" x1="500.355" y1="192.511" x2="768.873" y2="192.511" gradientUnits="userSpaceOnUse">
<stop offset="0.706363" stop-color="#3B82F6"/>
<stop offset="1" stop-color="#3B82F6" stop-opacity="0"/>
</linearGradient>
<linearGradient id="paint5_linear_1278_40255" x1="124.811" y1="192.511" x2="465.906" y2="192.511" gradientUnits="userSpaceOnUse">
<stop stop-color="#3B82F6" stop-opacity="0"/>
<stop offset="0.55" stop-color="#3B82F6"/>
</linearGradient>
<linearGradient id="paint6_linear_1278_40255" x1="522.664" y1="128.288" x2="672.682" y2="128.288" gradientUnits="userSpaceOnUse">
<stop offset="0.579938" stop-color="#3B82F6"/>
<stop offset="1" stop-color="#3B82F6" stop-opacity="0"/>
</linearGradient>
<linearGradient id="paint7_linear_1278_40255" x1="255.948" y1="128.289" x2="448.479" y2="128.289" gradientUnits="userSpaceOnUse">
<stop stop-color="#3B82F6" stop-opacity="0"/>
<stop offset="0.420062" stop-color="#3B82F6"/>
</linearGradient>
<linearGradient id="paint8_linear_1278_40255" x1="575.761" y1="0.583008" x2="575.761" y2="320.98" gradientUnits="userSpaceOnUse">
<stop stop-color="#3B82F6" stop-opacity="0"/>
<stop offset="0.505" stop-color="#3B82F6"/>
<stop offset="1" stop-color="#3B82F6" stop-opacity="0"/>
</linearGradient>
<linearGradient id="paint9_linear_1278_40255" x1="351.851" y1="-4.7362" x2="351.851" y2="316.256" gradientUnits="userSpaceOnUse">
<stop stop-color="#3B82F6" stop-opacity="0"/>
<stop offset="0.505" stop-color="#3B82F6"/>
<stop offset="1" stop-color="#3B82F6" stop-opacity="0"/>
</linearGradient>
<linearGradient id="paint10_linear_1278_40255" x1="640.119" y1="63.7871" x2="640.119" y2="191.761" gradientUnits="userSpaceOnUse">
<stop stop-color="#3B82F6" stop-opacity="0"/>
<stop offset="0.535" stop-color="#3B82F6"/>
<stop offset="1" stop-color="#3B82F6" stop-opacity="0"/>
</linearGradient>
<linearGradient id="paint11_linear_1278_40255" x1="288.085" y1="33.0791" x2="288.085" y2="288.92" gradientUnits="userSpaceOnUse">
<stop stop-color="#3B82F6" stop-opacity="0"/>
<stop offset="0.535" stop-color="#3B82F6"/>
<stop offset="1" stop-color="#3B82F6" stop-opacity="0"/>
</linearGradient>
</defs>
</svg>
