<svg width="555" height="301" viewBox="0 0 555 301" fill="none" xmlns="http://www.w3.org/2000/svg">
<g filter="url(#filter0_dd_2089_36985)">
<rect x="17" y="14.5" width="306" height="313" rx="8.5" fill="#F4F4F5"/>
<rect x="17" y="14.5" width="306" height="313" rx="8.5" stroke="#D4D4D8"/>
<path d="M50.8366 45.8182V56H49.4247L44.2493 48.5327H44.1548V56H42.6186V45.8182H44.0405L49.2209 53.2955H49.3153V45.8182H50.8366ZM55.1806 56.169C54.6967 56.169 54.2592 56.0795 53.8681 55.9006C53.477 55.7183 53.1671 55.4548 52.9384 55.1101C52.713 54.7654 52.6003 54.3428 52.6003 53.8423C52.6003 53.4115 52.6832 53.0568 52.8489 52.7784C53.0146 52.5 53.2383 52.2796 53.5201 52.1172C53.8018 51.9548 54.1167 51.8321 54.4647 51.7493C54.8127 51.6664 55.1673 51.6035 55.5286 51.5604C55.986 51.5073 56.3572 51.4643 56.6422 51.4311C56.9273 51.3946 57.1344 51.3366 57.2637 51.2571C57.3929 51.1776 57.4576 51.0483 57.4576 50.8693V50.8345C57.4576 50.4003 57.3349 50.0639 57.0897 49.8253C56.8477 49.5866 56.4864 49.4673 56.0059 49.4673C55.5054 49.4673 55.111 49.5784 54.8226 49.8004C54.5376 50.0192 54.3404 50.2628 54.231 50.5312L52.834 50.2131C52.9997 49.7491 53.2417 49.3745 53.5598 49.0895C53.8813 48.8011 54.2509 48.5923 54.6685 48.4631C55.0861 48.3305 55.5253 48.2642 55.986 48.2642C56.2909 48.2642 56.6141 48.3007 56.9554 48.3736C57.3001 48.4432 57.6216 48.5724 57.9199 48.7614C58.2215 48.9503 58.4685 49.2204 58.6607 49.5717C58.8529 49.9197 58.949 50.3722 58.949 50.929V56H57.4973V54.956H57.4377C57.3416 55.1482 57.1974 55.3371 57.0051 55.5227C56.8129 55.7083 56.566 55.8625 56.2644 55.9851C55.9628 56.1077 55.6015 56.169 55.1806 56.169ZM55.5037 54.9759C55.9147 54.9759 56.266 54.8946 56.5577 54.7322C56.8527 54.5698 57.0764 54.3577 57.2289 54.0959C57.3846 53.8307 57.4625 53.5473 57.4625 53.2457V52.2614C57.4095 52.3144 57.3068 52.3641 57.1543 52.4105C57.0051 52.4536 56.8345 52.4917 56.6422 52.5249C56.45 52.5547 56.2627 52.5829 56.0804 52.6094C55.8981 52.6326 55.7457 52.6525 55.623 52.669C55.3347 52.7055 55.0712 52.7668 54.8326 52.853C54.5972 52.9392 54.4083 53.0634 54.2658 53.2259C54.1266 53.3849 54.057 53.5971 54.057 53.8622C54.057 54.2301 54.1929 54.5085 54.4647 54.6974C54.7364 54.883 55.0828 54.9759 55.5037 54.9759ZM60.929 56V48.3636H62.3558V49.6065H62.4503C62.6094 49.1856 62.8696 48.8575 63.2308 48.6222C63.5921 48.3835 64.0246 48.2642 64.5284 48.2642C65.0388 48.2642 65.4664 48.3835 65.8111 48.6222C66.1591 48.8608 66.416 49.1889 66.5817 49.6065H66.6612C66.8435 49.1989 67.1335 48.8741 67.5312 48.6321C67.929 48.3868 68.4029 48.2642 68.9531 48.2642C69.6458 48.2642 70.2109 48.4813 70.6484 48.9155C71.0893 49.3497 71.3097 50.0043 71.3097 50.8793V56H69.8232V51.0185C69.8232 50.5014 69.6823 50.1269 69.4006 49.8949C69.1188 49.6629 68.7824 49.5469 68.3913 49.5469C67.9074 49.5469 67.5312 49.696 67.2628 49.9943C66.9943 50.2893 66.8601 50.6688 66.8601 51.1328V56H65.3786V50.924C65.3786 50.5097 65.2493 50.1766 64.9908 49.9247C64.7322 49.6728 64.3958 49.5469 63.9815 49.5469C63.6998 49.5469 63.4396 49.6214 63.201 49.7706C62.9657 49.9164 62.7751 50.1203 62.6293 50.3821C62.4867 50.6439 62.4155 50.9472 62.4155 51.2919V56H60.929ZM76.5932 56.1541C75.8408 56.1541 75.1929 55.9934 74.6493 55.6719C74.1091 55.3471 73.6915 54.8913 73.3965 54.3047C73.1048 53.7147 72.959 53.0237 72.959 52.2315C72.959 51.4493 73.1048 50.7599 73.3965 50.1634C73.6915 49.5668 74.1025 49.1011 74.6294 48.7663C75.1597 48.4316 75.7795 48.2642 76.4888 48.2642C76.9197 48.2642 77.3373 48.3355 77.7417 48.478C78.146 48.6205 78.5089 48.8442 78.8304 49.1491C79.1519 49.4541 79.4055 49.8501 79.5911 50.3374C79.7767 50.8213 79.8695 51.4096 79.8695 52.1023V52.6293H73.7992V51.5156H78.4128C78.4128 51.1245 78.3333 50.7782 78.1742 50.4766C78.0151 50.1716 77.7914 49.9313 77.503 49.7557C77.218 49.58 76.8832 49.4922 76.4988 49.4922C76.0811 49.4922 75.7166 49.5949 75.405 49.8004C75.0968 50.0026 74.8581 50.2678 74.6891 50.5959C74.5234 50.9207 74.4405 51.2737 74.4405 51.6548V52.5249C74.4405 53.0353 74.53 53.4695 74.709 53.8274C74.8913 54.1854 75.1448 54.4588 75.4696 54.6477C75.7944 54.8333 76.1739 54.9261 76.6081 54.9261C76.8899 54.9261 77.1467 54.8864 77.3787 54.8068C77.6107 54.724 77.8113 54.6013 77.9803 54.4389C78.1493 54.2765 78.2786 54.076 78.3681 53.8374L79.775 54.0909C79.6623 54.5052 79.4602 54.8681 79.1685 55.1797C78.8801 55.4879 78.5172 55.7282 78.0797 55.9006C77.6455 56.0696 77.15 56.1541 76.5932 56.1541Z" fill="#111827"/>
<g clip-path="url(#clip0_2089_36985)">
<rect x="41.5" y="67" width="257" height="36" rx="4" fill="white"/>
<path d="M53.875 90H50.733V79.8182H54.0142C55.0019 79.8182 55.8471 80.022 56.5497 80.4297C57.2524 80.834 57.791 81.4157 58.1655 82.1747C58.54 82.9304 58.7273 83.8352 58.7273 84.8892C58.7273 85.9498 58.5384 86.8629 58.1605 87.6286C57.7827 88.3909 57.2325 88.9775 56.5099 89.3885C55.7874 89.7962 54.9091 90 53.875 90ZM51.9659 88.9062H53.7955C54.6373 88.9062 55.335 88.7438 55.8885 88.419C56.442 88.0942 56.8546 87.6319 57.1264 87.032C57.3982 86.4321 57.5341 85.7178 57.5341 84.8892C57.5341 84.0672 57.3999 83.3596 57.1314 82.7663C56.8629 82.1697 56.4619 81.7124 55.9283 81.3942C55.3946 81.0727 54.7301 80.9119 53.9347 80.9119H51.9659V88.9062ZM63.8381 90.1591C63.1023 90.1591 62.4676 89.9967 61.9339 89.6719C61.4036 89.3438 60.9943 88.8864 60.706 88.2997C60.4209 87.7098 60.2784 87.0237 60.2784 86.2415C60.2784 85.4593 60.4209 84.7699 60.706 84.1733C60.9943 83.5734 61.3954 83.1061 61.9091 82.7713C62.4261 82.4332 63.0294 82.2642 63.7188 82.2642C64.1165 82.2642 64.5092 82.3305 64.897 82.4631C65.2848 82.5956 65.6378 82.8111 65.956 83.1094C66.2741 83.4044 66.5277 83.7955 66.7166 84.2827C66.9055 84.7699 67 85.3698 67 86.0824V86.5795H61.1136V85.5653H65.8068C65.8068 85.1345 65.7206 84.75 65.5483 84.4119C65.3793 84.0739 65.1373 83.8071 64.8224 83.6115C64.5109 83.416 64.143 83.3182 63.7188 83.3182C63.2514 83.3182 62.8471 83.4342 62.5057 83.6662C62.1676 83.8949 61.9074 84.1932 61.7251 84.5611C61.5429 84.929 61.4517 85.3234 61.4517 85.7443V86.4205C61.4517 86.9972 61.5511 87.486 61.75 87.8871C61.9522 88.2848 62.2322 88.5881 62.5902 88.7969C62.9482 89.0024 63.3641 89.1051 63.8381 89.1051C64.1463 89.1051 64.4247 89.062 64.6733 88.9759C64.9252 88.8864 65.1423 88.7538 65.3246 88.5781C65.5069 88.3991 65.6477 88.1771 65.7472 87.9119L66.8807 88.2301C66.7614 88.6146 66.5608 88.9527 66.2791 89.2443C65.9974 89.5327 65.6494 89.758 65.2351 89.9205C64.8208 90.0795 64.3551 90.1591 63.8381 90.1591ZM74.7967 82.3636L71.9728 90H70.7797L67.9558 82.3636H69.2285L71.3365 88.4489H71.416L73.524 82.3636H74.7967ZM83.3851 90.1591C82.6692 90.1591 82.0527 89.9901 81.5357 89.652C81.0186 89.3139 80.6209 88.8482 80.3425 88.255C80.0641 87.6617 79.9249 86.9839 79.9249 86.2216C79.9249 85.446 80.0674 84.7616 80.3525 84.1683C80.6408 83.5717 81.0418 83.1061 81.5556 82.7713C82.0726 82.4332 82.6758 82.2642 83.3652 82.2642C83.9022 82.2642 84.3861 82.3636 84.8169 82.5625C85.2478 82.7614 85.6008 83.0398 85.8759 83.3977C86.151 83.7557 86.3217 84.1733 86.388 84.6506H85.2147C85.1252 84.3026 84.9263 83.9943 84.6181 83.7259C84.3132 83.4541 83.9022 83.3182 83.3851 83.3182C82.9277 83.3182 82.5267 83.4375 82.182 83.6761C81.8406 83.9115 81.5738 84.2446 81.3816 84.6754C81.1926 85.103 81.0982 85.6051 81.0982 86.1818C81.0982 86.7718 81.191 87.2855 81.3766 87.723C81.5655 88.1605 81.8307 88.5002 82.1721 88.7422C82.5167 88.9841 82.9211 89.1051 83.3851 89.1051C83.69 89.1051 83.9668 89.0521 84.2154 88.946C84.464 88.84 84.6744 88.6875 84.8468 88.4886C85.0191 88.2898 85.1417 88.0511 85.2147 87.7727H86.388C86.3217 88.2235 86.1576 88.6295 85.8958 88.9908C85.6373 89.3487 85.2942 89.6338 84.8667 89.8459C84.4424 90.0547 83.9486 90.1591 83.3851 90.1591ZM89.2765 79.8182V90H88.1032V79.8182H89.2765ZM96.2379 86.8778V82.3636H97.4112V90H96.2379V88.7074H96.1584C95.9794 89.0952 95.701 89.425 95.3232 89.6967C94.9453 89.9652 94.468 90.0994 93.8913 90.0994C93.4141 90.0994 92.9898 89.995 92.6186 89.7862C92.2474 89.5741 91.9557 89.2559 91.7436 88.8317C91.5315 88.4041 91.4254 87.8655 91.4254 87.2159V82.3636H92.5987V87.1364C92.5987 87.6932 92.7545 88.1373 93.0661 88.4688C93.3809 88.8002 93.782 88.9659 94.2692 88.9659C94.5608 88.9659 94.8575 88.8913 95.1591 88.7422C95.464 88.593 95.7192 88.3643 95.9247 88.0561C96.1335 87.7479 96.2379 87.3551 96.2379 86.8778ZM104.969 84.0739L103.915 84.3722C103.849 84.1965 103.751 84.0258 103.622 83.8601C103.496 83.6911 103.324 83.5518 103.105 83.4425C102.886 83.3331 102.606 83.2784 102.265 83.2784C101.797 83.2784 101.408 83.3861 101.096 83.6016C100.788 83.8137 100.634 84.0838 100.634 84.4119C100.634 84.7036 100.74 84.9339 100.952 85.103C101.164 85.272 101.496 85.4129 101.947 85.5256L103.08 85.804C103.763 85.9697 104.272 86.2232 104.606 86.5646C104.941 86.9027 105.108 87.3385 105.108 87.8722C105.108 88.3097 104.983 88.7008 104.731 89.0455C104.482 89.3902 104.134 89.6619 103.687 89.8608C103.239 90.0597 102.719 90.1591 102.126 90.1591C101.347 90.1591 100.702 89.9901 100.192 89.652C99.6812 89.3139 99.358 88.8201 99.2221 88.1705L100.336 87.892C100.442 88.303 100.642 88.6113 100.937 88.8168C101.236 89.0223 101.625 89.125 102.106 89.125C102.653 89.125 103.087 89.009 103.408 88.777C103.733 88.5417 103.895 88.2599 103.895 87.9318C103.895 87.6667 103.803 87.4446 103.617 87.2656C103.431 87.0833 103.146 86.9474 102.762 86.858L101.489 86.5597C100.79 86.3939 100.276 86.1371 99.948 85.7891C99.6232 85.4377 99.4608 84.9986 99.4608 84.4716C99.4608 84.0407 99.5817 83.6596 99.8237 83.3281C100.069 82.9967 100.402 82.7365 100.823 82.5476C101.247 82.3587 101.728 82.2642 102.265 82.2642C103.02 82.2642 103.614 82.4299 104.045 82.7614C104.479 83.0928 104.787 83.5303 104.969 84.0739ZM110.196 82.3636V83.358H106.238V82.3636H110.196ZM107.392 80.5341H108.565V87.8125C108.565 88.1439 108.613 88.3925 108.709 88.5582C108.809 88.7206 108.935 88.83 109.087 88.8864C109.243 88.9394 109.407 88.9659 109.579 88.9659C109.708 88.9659 109.815 88.9593 109.897 88.946C109.98 88.9295 110.047 88.9162 110.096 88.9062L110.335 89.9602C110.255 89.9901 110.144 90.0199 110.002 90.0497C109.859 90.0829 109.679 90.0994 109.46 90.0994C109.128 90.0994 108.804 90.0282 108.485 89.8857C108.171 89.7431 107.909 89.526 107.7 89.2344C107.494 88.9427 107.392 88.5748 107.392 88.1307V80.5341ZM115.08 90.1591C114.344 90.1591 113.71 89.9967 113.176 89.6719C112.646 89.3438 112.237 88.8864 111.948 88.2997C111.663 87.7098 111.521 87.0237 111.521 86.2415C111.521 85.4593 111.663 84.7699 111.948 84.1733C112.237 83.5734 112.638 83.1061 113.151 82.7713C113.668 82.4332 114.272 82.2642 114.961 82.2642C115.359 82.2642 115.751 82.3305 116.139 82.4631C116.527 82.5956 116.88 82.8111 117.198 83.1094C117.516 83.4044 117.77 83.7955 117.959 84.2827C118.148 84.7699 118.242 85.3698 118.242 86.0824V86.5795H112.356V85.5653H117.049C117.049 85.1345 116.963 84.75 116.79 84.4119C116.621 84.0739 116.379 83.8071 116.065 83.6115C115.753 83.416 115.385 83.3182 114.961 83.3182C114.494 83.3182 114.089 83.4342 113.748 83.6662C113.41 83.8949 113.15 84.1932 112.967 84.5611C112.785 84.929 112.694 85.3234 112.694 85.7443V86.4205C112.694 86.9972 112.793 87.486 112.992 87.8871C113.194 88.2848 113.474 88.5881 113.832 88.7969C114.19 89.0024 114.606 89.1051 115.08 89.1051C115.388 89.1051 115.667 89.062 115.915 88.9759C116.167 88.8864 116.384 88.7538 116.567 88.5781C116.749 88.3991 116.89 88.1771 116.989 87.9119L118.123 88.2301C118.004 88.6146 117.803 88.9527 117.521 89.2443C117.24 89.5327 116.892 89.758 116.477 89.9205C116.063 90.0795 115.597 90.1591 115.08 90.1591ZM120.027 90V82.3636H121.161V83.517H121.24C121.379 83.1392 121.631 82.8326 121.996 82.5973C122.36 82.362 122.771 82.2443 123.229 82.2443C123.315 82.2443 123.423 82.246 123.552 82.2493C123.681 82.2526 123.779 82.2576 123.845 82.2642V83.4574C123.805 83.4474 123.714 83.4325 123.572 83.4126C123.433 83.3894 123.285 83.3778 123.129 83.3778C122.758 83.3778 122.427 83.4557 122.135 83.6115C121.847 83.764 121.618 83.9761 121.449 84.2479C121.283 84.5163 121.2 84.8229 121.2 85.1676V90H120.027ZM132.594 90.1392C131.938 90.1392 131.353 90.0265 130.839 89.8011C130.329 89.5758 129.923 89.2625 129.621 88.8615C129.323 88.4571 129.16 87.9882 129.134 87.4545H130.387C130.413 87.7827 130.526 88.0661 130.725 88.3047C130.923 88.54 131.184 88.7223 131.505 88.8516C131.827 88.9808 132.183 89.0455 132.574 89.0455C133.012 89.0455 133.399 88.9692 133.737 88.8168C134.075 88.6643 134.341 88.4522 134.533 88.1804C134.725 87.9086 134.821 87.5938 134.821 87.2358C134.821 86.8613 134.728 86.5315 134.543 86.2464C134.357 85.9581 134.085 85.7327 133.727 85.5703C133.369 85.4079 132.932 85.3267 132.415 85.3267H131.6V84.233H132.415C132.819 84.233 133.174 84.16 133.479 84.0142C133.787 83.8684 134.027 83.6629 134.2 83.3977C134.375 83.1326 134.463 82.821 134.463 82.4631C134.463 82.1184 134.387 81.8184 134.235 81.5632C134.082 81.308 133.867 81.1091 133.588 80.9666C133.313 80.8241 132.988 80.7528 132.614 80.7528C132.262 80.7528 131.931 80.8175 131.619 80.9467C131.311 81.0727 131.059 81.2566 130.864 81.4986C130.668 81.7372 130.562 82.0256 130.546 82.3636H129.352C129.372 81.83 129.533 81.3627 129.835 80.9616C130.136 80.5573 130.531 80.2424 131.018 80.017C131.508 79.7917 132.047 79.679 132.634 79.679C133.263 79.679 133.804 79.8066 134.254 80.0618C134.705 80.3137 135.052 80.6468 135.294 81.0611C135.535 81.4754 135.656 81.9228 135.656 82.4034C135.656 82.9768 135.506 83.4657 135.204 83.87C134.906 84.2744 134.5 84.5545 133.986 84.7102V84.7898C134.629 84.8958 135.131 85.1693 135.492 85.6101C135.854 86.0476 136.034 86.5895 136.034 87.2358C136.034 87.7893 135.883 88.2865 135.582 88.7273C135.284 89.1648 134.876 89.5095 134.359 89.7614C133.842 90.0133 133.253 90.1392 132.594 90.1392Z" fill="#111827"/>
</g>
<rect x="41.5" y="67" width="257" height="36" rx="4" stroke="#E4E4E7"/>
<path d="M50.8366 129.818V140H49.4247L44.2493 132.533H44.1548V140H42.6186V129.818H44.0405L49.2209 137.295H49.3153V129.818H50.8366ZM56.1749 140.154C55.459 140.154 54.8342 139.99 54.3006 139.662C53.767 139.334 53.3527 138.875 53.0577 138.285C52.7627 137.695 52.6152 137.005 52.6152 136.217C52.6152 135.424 52.7627 134.732 53.0577 134.138C53.3527 133.545 53.767 133.085 54.3006 132.756C54.8342 132.428 55.459 132.264 56.1749 132.264C56.8908 132.264 57.5156 132.428 58.0492 132.756C58.5828 133.085 58.9971 133.545 59.2921 134.138C59.5871 134.732 59.7346 135.424 59.7346 136.217C59.7346 137.005 59.5871 137.695 59.2921 138.285C58.9971 138.875 58.5828 139.334 58.0492 139.662C57.5156 139.99 56.8908 140.154 56.1749 140.154ZM56.1799 138.906C56.6439 138.906 57.0284 138.784 57.3333 138.538C57.6382 138.293 57.8636 137.967 58.0094 137.559C58.1586 137.151 58.2331 136.702 58.2331 136.212C58.2331 135.724 58.1586 135.277 58.0094 134.869C57.8636 134.458 57.6382 134.129 57.3333 133.88C57.0284 133.631 56.6439 133.507 56.1799 133.507C55.7125 133.507 55.3248 133.631 55.0165 133.88C54.7116 134.129 54.4846 134.458 54.3354 134.869C54.1896 135.277 54.1167 135.724 54.1167 136.212C54.1167 136.702 54.1896 137.151 54.3354 137.559C54.4846 137.967 54.7116 138.293 55.0165 138.538C55.3248 138.784 55.7125 138.906 56.1799 138.906ZM64.2525 140.149C63.636 140.149 63.0858 139.992 62.6019 139.677C62.1213 139.359 61.7435 138.906 61.4684 138.32C61.1966 137.73 61.0607 137.022 61.0607 136.197C61.0607 135.371 61.1983 134.665 61.4734 134.079C61.7518 133.492 62.1329 133.043 62.6168 132.732C63.1007 132.42 63.6493 132.264 64.2624 132.264C64.7364 132.264 65.1175 132.344 65.4059 132.503C65.6976 132.659 65.9229 132.841 66.082 133.05C66.2444 133.259 66.3704 133.442 66.4599 133.602H66.5494V129.818H68.0359V140H66.5842V138.812H66.4599C66.3704 138.974 66.2411 139.16 66.0721 139.369C65.9064 139.577 65.6777 139.76 65.386 139.915C65.0943 140.071 64.7165 140.149 64.2525 140.149ZM64.5806 138.881C65.0082 138.881 65.3694 138.769 65.6644 138.543C65.9627 138.315 66.1881 137.998 66.3406 137.594C66.4963 137.189 66.5742 136.719 66.5742 136.182C66.5742 135.652 66.498 135.187 66.3455 134.79C66.1931 134.392 65.9693 134.082 65.6744 133.86C65.3794 133.638 65.0148 133.527 64.5806 133.527C64.1332 133.527 63.7603 133.643 63.462 133.875C63.1637 134.107 62.9383 134.424 62.7859 134.825C62.6367 135.226 62.5621 135.678 62.5621 136.182C62.5621 136.692 62.6384 137.151 62.7908 137.559C62.9433 137.967 63.1687 138.29 63.467 138.528C63.7686 138.764 64.1398 138.881 64.5806 138.881ZM73.4487 140.154C72.6963 140.154 72.0484 139.993 71.5048 139.672C70.9645 139.347 70.5469 138.891 70.252 138.305C69.9603 137.715 69.8145 137.024 69.8145 136.232C69.8145 135.449 69.9603 134.76 70.252 134.163C70.5469 133.567 70.9579 133.101 71.4849 132.766C72.0152 132.432 72.635 132.264 73.3443 132.264C73.7752 132.264 74.1928 132.335 74.5971 132.478C75.0015 132.621 75.3644 132.844 75.6859 133.149C76.0074 133.454 76.2609 133.85 76.4466 134.337C76.6322 134.821 76.725 135.41 76.725 136.102V136.629H70.6547V135.516H75.2683C75.2683 135.125 75.1887 134.778 75.0297 134.477C74.8706 134.172 74.6468 133.931 74.3585 133.756C74.0734 133.58 73.7387 133.492 73.3542 133.492C72.9366 133.492 72.572 133.595 72.2605 133.8C71.9522 134.003 71.7136 134.268 71.5446 134.596C71.3788 134.921 71.296 135.274 71.296 135.655V136.525C71.296 137.035 71.3855 137.469 71.5645 137.827C71.7467 138.185 72.0003 138.459 72.3251 138.648C72.6499 138.833 73.0294 138.926 73.4636 138.926C73.7453 138.926 74.0022 138.886 74.2342 138.807C74.4662 138.724 74.6667 138.601 74.8358 138.439C75.0048 138.277 75.1341 138.076 75.2235 137.837L76.6305 138.091C76.5178 138.505 76.3156 138.868 76.024 139.18C75.7356 139.488 75.3727 139.728 74.9352 139.901C74.501 140.07 74.0055 140.154 73.4487 140.154ZM78.3743 142.864V132.364H79.826V133.602H79.9503C80.0365 133.442 80.1607 133.259 80.3232 133.05C80.4856 132.841 80.7109 132.659 80.9993 132.503C81.2876 132.344 81.6688 132.264 82.1428 132.264C82.7592 132.264 83.3094 132.42 83.7933 132.732C84.2772 133.043 84.6567 133.492 84.9318 134.079C85.2102 134.665 85.3494 135.371 85.3494 136.197C85.3494 137.022 85.2119 137.73 84.9368 138.32C84.6617 138.906 84.2839 139.359 83.8033 139.677C83.3227 139.992 82.7741 140.149 82.1577 140.149C81.6937 140.149 81.3142 140.071 81.0192 139.915C80.7275 139.76 80.4988 139.577 80.3331 139.369C80.1674 139.16 80.0398 138.974 79.9503 138.812H79.8608V142.864H78.3743ZM79.831 136.182C79.831 136.719 79.9089 137.189 80.0646 137.594C80.2204 137.998 80.4458 138.315 80.7408 138.543C81.0357 138.769 81.397 138.881 81.8246 138.881C82.2687 138.881 82.6399 138.764 82.9382 138.528C83.2365 138.29 83.4619 137.967 83.6143 137.559C83.7701 137.151 83.848 136.692 83.848 136.182C83.848 135.678 83.7718 135.226 83.6193 134.825C83.4702 134.424 83.2448 134.107 82.9432 133.875C82.6449 133.643 82.272 133.527 81.8246 133.527C81.3937 133.527 81.0291 133.638 80.7308 133.86C80.4358 134.082 80.2121 134.392 80.0597 134.79C79.9072 135.187 79.831 135.652 79.831 136.182ZM90.2315 140.154C89.5156 140.154 88.8909 139.99 88.3572 139.662C87.8236 139.334 87.4093 138.875 87.1143 138.285C86.8194 137.695 86.6719 137.005 86.6719 136.217C86.6719 135.424 86.8194 134.732 87.1143 134.138C87.4093 133.545 87.8236 133.085 88.3572 132.756C88.8909 132.428 89.5156 132.264 90.2315 132.264C90.9474 132.264 91.5722 132.428 92.1058 132.756C92.6394 133.085 93.0537 133.545 93.3487 134.138C93.6437 134.732 93.7912 135.424 93.7912 136.217C93.7912 137.005 93.6437 137.695 93.3487 138.285C93.0537 138.875 92.6394 139.334 92.1058 139.662C91.5722 139.99 90.9474 140.154 90.2315 140.154ZM90.2365 138.906C90.7005 138.906 91.085 138.784 91.3899 138.538C91.6948 138.293 91.9202 137.967 92.0661 137.559C92.2152 137.151 92.2898 136.702 92.2898 136.212C92.2898 135.724 92.2152 135.277 92.0661 134.869C91.9202 134.458 91.6948 134.129 91.3899 133.88C91.085 133.631 90.7005 133.507 90.2365 133.507C89.7692 133.507 89.3814 133.631 89.0732 133.88C88.7682 134.129 88.5412 134.458 88.392 134.869C88.2462 135.277 88.1733 135.724 88.1733 136.212C88.1733 136.702 88.2462 137.151 88.392 137.559C88.5412 137.967 88.7682 138.293 89.0732 138.538C89.3814 138.784 89.7692 138.906 90.2365 138.906ZM98.6671 140.154C97.9512 140.154 97.3264 139.99 96.7928 139.662C96.2592 139.334 95.8449 138.875 95.5499 138.285C95.2549 137.695 95.1074 137.005 95.1074 136.217C95.1074 135.424 95.2549 134.732 95.5499 134.138C95.8449 133.545 96.2592 133.085 96.7928 132.756C97.3264 132.428 97.9512 132.264 98.6671 132.264C99.383 132.264 100.008 132.428 100.541 132.756C101.075 133.085 101.489 133.545 101.784 134.138C102.079 134.732 102.227 135.424 102.227 136.217C102.227 137.005 102.079 137.695 101.784 138.285C101.489 138.875 101.075 139.334 100.541 139.662C100.008 139.99 99.383 140.154 98.6671 140.154ZM98.6721 138.906C99.1361 138.906 99.5205 138.784 99.8255 138.538C100.13 138.293 100.356 137.967 100.502 137.559C100.651 137.151 100.725 136.702 100.725 136.212C100.725 135.724 100.651 135.277 100.502 134.869C100.356 134.458 100.13 134.129 99.8255 133.88C99.5205 133.631 99.1361 133.507 98.6721 133.507C98.2047 133.507 97.8169 133.631 97.5087 133.88C97.2038 134.129 96.9767 134.458 96.8276 134.869C96.6818 135.277 96.6088 135.724 96.6088 136.212C96.6088 136.702 96.6818 137.151 96.8276 137.559C96.9767 137.967 97.2038 138.293 97.5087 138.538C97.8169 138.784 98.2047 138.906 98.6721 138.906ZM105.373 129.818V140H103.886V129.818H105.373ZM114.92 129.818V140H113.379V131.359H113.32L110.884 132.95V131.479L113.424 129.818H114.92Z" fill="#111827"/>
<g clip-path="url(#clip1_2089_36985)">
<rect x="41.5" y="151" width="257" height="36" rx="4" fill="white"/>
<path d="M50.733 163.818H52.2045L55.6648 172.27H55.7841L59.2443 163.818H60.7159V174H59.5625V166.264H59.4631L56.2812 174H55.1676L51.9858 166.264H51.8864V174H50.733V163.818ZM63.0289 174V166.364H64.2022V174H63.0289ZM63.6255 165.091C63.3968 165.091 63.1996 165.013 63.0339 164.857C62.8715 164.701 62.7903 164.514 62.7903 164.295C62.7903 164.077 62.8715 163.889 63.0339 163.734C63.1996 163.578 63.3968 163.5 63.6255 163.5C63.8542 163.5 64.0498 163.578 64.2122 163.734C64.3779 163.889 64.4608 164.077 64.4608 164.295C64.4608 164.514 64.3779 164.701 64.2122 164.857C64.0498 165.013 63.8542 165.091 63.6255 165.091ZM67.5245 169.406V174H66.3512V166.364H67.4847V167.557H67.5842C67.7631 167.169 68.0349 166.857 68.3995 166.622C68.7641 166.384 69.2347 166.264 69.8114 166.264C70.3285 166.264 70.7809 166.37 71.1687 166.582C71.5565 166.791 71.8581 167.109 72.0735 167.537C72.2889 167.961 72.3967 168.498 72.3967 169.148V174H71.2234V169.227C71.2234 168.627 71.0676 168.16 70.756 167.825C70.4445 167.487 70.0169 167.318 69.4734 167.318C69.0988 167.318 68.7641 167.399 68.4691 167.562C68.1774 167.724 67.9471 167.961 67.7781 168.273C67.609 168.584 67.5245 168.962 67.5245 169.406ZM78.4583 174V173.105L81.8191 169.426C82.2135 168.995 82.5383 168.621 82.7935 168.303C83.0487 167.981 83.2376 167.679 83.3603 167.398C83.4862 167.113 83.5492 166.814 83.5492 166.503C83.5492 166.145 83.463 165.835 83.2907 165.573C83.1216 165.311 82.8896 165.109 82.5946 164.967C82.2997 164.824 81.9682 164.753 81.6003 164.753C81.2092 164.753 80.8678 164.834 80.5762 164.996C80.2878 165.156 80.0641 165.379 79.905 165.668C79.7492 165.956 79.6713 166.294 79.6713 166.682H78.498C78.498 166.085 78.6356 165.562 78.9107 165.111C79.1858 164.66 79.5603 164.309 80.0343 164.057C80.5115 163.805 81.0468 163.679 81.6401 163.679C82.2367 163.679 82.7653 163.805 83.226 164.057C83.6867 164.309 84.048 164.648 84.3098 165.076C84.5717 165.504 84.7026 165.979 84.7026 166.503C84.7026 166.877 84.6346 167.244 84.4988 167.602C84.3662 167.956 84.1342 168.352 83.8027 168.79C83.4746 169.224 83.0189 169.754 82.4355 170.381L80.1486 172.827V172.906H84.8816V174H78.4583ZM92.0655 169.406V174H90.8922V166.364H92.0257V167.557H92.1252C92.3042 167.169 92.5759 166.857 92.9405 166.622C93.3051 166.384 93.7757 166.264 94.3525 166.264C94.8695 166.264 95.3219 166.37 95.7097 166.582C96.0975 166.791 96.3991 167.109 96.6145 167.537C96.83 167.961 96.9377 168.498 96.9377 169.148V174H95.7644V169.227C95.7644 168.627 95.6086 168.16 95.2971 167.825C94.9855 167.487 94.5579 167.318 94.0144 167.318C93.6399 167.318 93.3051 167.399 93.0101 167.562C92.7185 167.724 92.4881 167.961 92.3191 168.273C92.15 168.584 92.0655 168.962 92.0655 169.406ZM102.184 174.159C101.495 174.159 100.89 173.995 100.369 173.667C99.8523 173.339 99.4479 172.88 99.1562 172.29C98.8679 171.7 98.7237 171.01 98.7237 170.222C98.7237 169.426 98.8679 168.732 99.1562 168.138C99.4479 167.545 99.8523 167.085 100.369 166.756C100.89 166.428 101.495 166.264 102.184 166.264C102.873 166.264 103.477 166.428 103.994 166.756C104.514 167.085 104.918 167.545 105.207 168.138C105.498 168.732 105.644 169.426 105.644 170.222C105.644 171.01 105.498 171.7 105.207 172.29C104.918 172.88 104.514 173.339 103.994 173.667C103.477 173.995 102.873 174.159 102.184 174.159ZM102.184 173.105C102.708 173.105 103.138 172.971 103.477 172.702C103.815 172.434 104.065 172.081 104.227 171.643C104.39 171.206 104.471 170.732 104.471 170.222C104.471 169.711 104.39 169.236 104.227 168.795C104.065 168.354 103.815 167.998 103.477 167.726C103.138 167.454 102.708 167.318 102.184 167.318C101.66 167.318 101.229 167.454 100.891 167.726C100.553 167.998 100.303 168.354 100.141 168.795C99.9782 169.236 99.897 169.711 99.897 170.222C99.897 170.732 99.9782 171.206 100.141 171.643C100.303 172.081 100.553 172.434 100.891 172.702C101.229 172.971 101.66 173.105 102.184 173.105ZM110.319 174.159C109.682 174.159 109.121 173.998 108.633 173.677C108.146 173.352 107.765 172.895 107.49 172.305C107.215 171.711 107.077 171.01 107.077 170.202C107.077 169.4 107.215 168.704 107.49 168.114C107.765 167.524 108.148 167.068 108.638 166.746C109.129 166.425 109.696 166.264 110.339 166.264C110.836 166.264 111.229 166.347 111.517 166.513C111.809 166.675 112.031 166.861 112.183 167.07C112.339 167.275 112.46 167.444 112.546 167.577H112.645V163.818H113.819V174H112.685V172.827H112.546C112.46 172.966 112.337 173.142 112.178 173.354C112.019 173.562 111.792 173.75 111.497 173.915C111.202 174.078 110.809 174.159 110.319 174.159ZM110.478 173.105C110.948 173.105 111.346 172.982 111.671 172.737C111.996 172.489 112.243 172.146 112.412 171.708C112.581 171.267 112.665 170.759 112.665 170.182C112.665 169.612 112.582 169.113 112.417 168.685C112.251 168.254 112.006 167.92 111.681 167.681C111.356 167.439 110.955 167.318 110.478 167.318C109.981 167.318 109.566 167.446 109.235 167.701C108.907 167.953 108.66 168.296 108.494 168.73C108.332 169.161 108.251 169.645 108.251 170.182C108.251 170.725 108.333 171.219 108.499 171.663C108.668 172.104 108.917 172.455 109.245 172.717C109.576 172.976 109.987 173.105 110.478 173.105ZM119.332 174.159C118.596 174.159 117.962 173.997 117.428 173.672C116.898 173.344 116.488 172.886 116.2 172.3C115.915 171.71 115.773 171.024 115.773 170.241C115.773 169.459 115.915 168.77 116.2 168.173C116.488 167.573 116.89 167.106 117.403 166.771C117.92 166.433 118.523 166.264 119.213 166.264C119.611 166.264 120.003 166.33 120.391 166.463C120.779 166.596 121.132 166.811 121.45 167.109C121.768 167.404 122.022 167.795 122.211 168.283C122.4 168.77 122.494 169.37 122.494 170.082V170.58H116.608V169.565H121.301C121.301 169.134 121.215 168.75 121.042 168.412C120.873 168.074 120.631 167.807 120.317 167.612C120.005 167.416 119.637 167.318 119.213 167.318C118.746 167.318 118.341 167.434 118 167.666C117.662 167.895 117.402 168.193 117.219 168.561C117.037 168.929 116.946 169.323 116.946 169.744V170.42C116.946 170.997 117.045 171.486 117.244 171.887C117.446 172.285 117.726 172.588 118.084 172.797C118.442 173.002 118.858 173.105 119.332 173.105C119.64 173.105 119.919 173.062 120.167 172.976C120.419 172.886 120.636 172.754 120.819 172.578C121.001 172.399 121.142 172.177 121.241 171.912L122.375 172.23C122.256 172.615 122.055 172.953 121.773 173.244C121.492 173.533 121.144 173.758 120.729 173.92C120.315 174.08 119.849 174.159 119.332 174.159ZM129.688 168.074L128.634 168.372C128.568 168.196 128.47 168.026 128.341 167.86C128.215 167.691 128.042 167.552 127.824 167.442C127.605 167.333 127.325 167.278 126.983 167.278C126.516 167.278 126.127 167.386 125.815 167.602C125.507 167.814 125.353 168.084 125.353 168.412C125.353 168.704 125.459 168.934 125.671 169.103C125.883 169.272 126.215 169.413 126.665 169.526L127.799 169.804C128.482 169.97 128.99 170.223 129.325 170.565C129.66 170.903 129.827 171.339 129.827 171.872C129.827 172.31 129.701 172.701 129.449 173.045C129.201 173.39 128.853 173.662 128.405 173.861C127.958 174.06 127.438 174.159 126.844 174.159C126.065 174.159 125.421 173.99 124.91 173.652C124.4 173.314 124.077 172.82 123.941 172.17L125.055 171.892C125.161 172.303 125.361 172.611 125.656 172.817C125.954 173.022 126.344 173.125 126.824 173.125C127.371 173.125 127.805 173.009 128.127 172.777C128.452 172.542 128.614 172.26 128.614 171.932C128.614 171.667 128.521 171.445 128.336 171.266C128.15 171.083 127.865 170.947 127.481 170.858L126.208 170.56C125.509 170.394 124.995 170.137 124.667 169.789C124.342 169.438 124.18 168.999 124.18 168.472C124.18 168.041 124.3 167.66 124.542 167.328C124.788 166.997 125.121 166.737 125.542 166.548C125.966 166.359 126.447 166.264 126.983 166.264C127.739 166.264 128.332 166.43 128.763 166.761C129.198 167.093 129.506 167.53 129.688 168.074Z" fill="#9CA3AF"/>
</g>
<rect x="41.5" y="151" width="257" height="36" rx="4" stroke="#E4E4E7"/>
<g clip-path="url(#clip2_2089_36985)">
<rect x="41.5" y="207" width="257" height="36" rx="4" fill="white"/>
<path d="M50.733 219.818H52.2045L55.6648 228.27H55.7841L59.2443 219.818H60.7159V230H59.5625V222.264H59.4631L56.2812 230H55.1676L51.9858 222.264H51.8864V230H50.733V219.818ZM65.2761 230.179C64.7922 230.179 64.353 230.088 63.9586 229.906C63.5642 229.72 63.251 229.453 63.019 229.105C62.787 228.754 62.671 228.33 62.671 227.832C62.671 227.395 62.7572 227.04 62.9295 226.768C63.1019 226.493 63.3322 226.278 63.6206 226.122C63.9089 225.966 64.2271 225.85 64.5751 225.774C64.9264 225.695 65.2794 225.632 65.6341 225.585C66.0981 225.526 66.4743 225.481 66.7626 225.451C67.0543 225.418 67.2664 225.363 67.399 225.287C67.5349 225.211 67.6028 225.078 67.6028 224.889V224.849C67.6028 224.359 67.4686 223.978 67.2001 223.706C66.935 223.434 66.5323 223.298 65.992 223.298C65.4319 223.298 64.9927 223.421 64.6745 223.666C64.3564 223.911 64.1326 224.173 64.0034 224.452L62.8897 224.054C63.0886 223.59 63.3538 223.229 63.6852 222.97C64.0199 222.708 64.3845 222.526 64.7789 222.423C65.1767 222.317 65.5678 222.264 65.9522 222.264C66.1975 222.264 66.4792 222.294 66.7974 222.354C67.1189 222.41 67.4288 222.528 67.7271 222.707C68.0287 222.886 68.2789 223.156 68.4778 223.517C68.6767 223.878 68.7761 224.362 68.7761 224.969V230H67.6028V228.966H67.5431C67.4636 229.132 67.331 229.309 67.1454 229.498C66.9598 229.687 66.7129 229.848 66.4047 229.98C66.0964 230.113 65.7202 230.179 65.2761 230.179ZM65.4551 229.125C65.9191 229.125 66.3102 229.034 66.6284 228.852C66.9499 228.669 67.1918 228.434 67.3542 228.146C67.5199 227.857 67.6028 227.554 67.6028 227.236V226.162C67.5531 226.222 67.4437 226.276 67.2747 226.326C67.109 226.372 66.9167 226.414 66.698 226.45C66.4825 226.483 66.2721 226.513 66.0666 226.54C65.8644 226.563 65.7003 226.583 65.5744 226.599C65.2695 226.639 64.9844 226.704 64.7193 226.793C64.4574 226.879 64.2453 227.01 64.0829 227.186C63.9238 227.358 63.8443 227.594 63.8443 227.892C63.8443 228.3 63.9951 228.608 64.2967 228.817C64.6016 229.022 64.9877 229.125 65.4551 229.125ZM71.7926 222.364L73.6222 225.486L75.4517 222.364H76.804L74.3381 226.182L76.804 230H75.4517L73.6222 227.037L71.7926 230H70.4403L72.8665 226.182L70.4403 222.364H71.7926ZM85.5776 230.139C84.9943 230.139 84.4689 230.023 84.0016 229.791C83.5343 229.559 83.1597 229.241 82.878 228.837C82.5963 228.432 82.4422 227.972 82.4157 227.455H83.6088C83.6552 227.915 83.8641 228.296 84.2353 228.598C84.6098 228.896 85.0572 229.045 85.5776 229.045C85.9952 229.045 86.3664 228.948 86.6912 228.752C87.0194 228.557 87.2762 228.288 87.4618 227.947C87.6507 227.602 87.7452 227.213 87.7452 226.778C87.7452 226.334 87.6474 225.938 87.4519 225.59C87.2596 225.239 86.9945 224.962 86.6564 224.76C86.3184 224.558 85.9322 224.455 85.498 224.452C85.1865 224.448 84.8667 224.496 84.5385 224.596C84.2104 224.692 83.9403 224.816 83.7282 224.969L82.5748 224.83L83.1912 219.818H88.481V220.912H84.2253L83.8674 223.915H83.927C84.1358 223.749 84.3977 223.612 84.7125 223.502C85.0274 223.393 85.3555 223.338 85.6969 223.338C86.32 223.338 86.8752 223.487 87.3624 223.786C87.8529 224.08 88.2374 224.485 88.5158 224.999C88.7975 225.512 88.9384 226.099 88.9384 226.759C88.9384 227.408 88.7926 227.988 88.5009 228.499C88.2125 229.006 87.8148 229.407 87.3077 229.702C86.8006 229.993 86.2239 230.139 85.5776 230.139ZM96.044 225.406V230H94.8707V222.364H96.0043V223.557H96.1037C96.2827 223.169 96.5545 222.857 96.919 222.622C97.2836 222.384 97.7543 222.264 98.331 222.264C98.848 222.264 99.3004 222.37 99.6882 222.582C100.076 222.791 100.378 223.109 100.593 223.537C100.808 223.961 100.916 224.498 100.916 225.148V230H99.7429V225.227C99.7429 224.627 99.5871 224.16 99.2756 223.825C98.964 223.487 98.5365 223.318 97.9929 223.318C97.6184 223.318 97.2836 223.399 96.9886 223.562C96.697 223.724 96.4666 223.961 96.2976 224.273C96.1286 224.584 96.044 224.962 96.044 225.406ZM106.162 230.159C105.473 230.159 104.868 229.995 104.348 229.667C103.831 229.339 103.426 228.88 103.135 228.29C102.846 227.7 102.702 227.01 102.702 226.222C102.702 225.426 102.846 224.732 103.135 224.138C103.426 223.545 103.831 223.085 104.348 222.756C104.868 222.428 105.473 222.264 106.162 222.264C106.852 222.264 107.455 222.428 107.972 222.756C108.492 223.085 108.897 223.545 109.185 224.138C109.477 224.732 109.623 225.426 109.623 226.222C109.623 227.01 109.477 227.7 109.185 228.29C108.897 228.88 108.492 229.339 107.972 229.667C107.455 229.995 106.852 230.159 106.162 230.159ZM106.162 229.105C106.686 229.105 107.117 228.971 107.455 228.702C107.793 228.434 108.043 228.081 108.206 227.643C108.368 227.206 108.449 226.732 108.449 226.222C108.449 225.711 108.368 225.236 108.206 224.795C108.043 224.354 107.793 223.998 107.455 223.726C107.117 223.454 106.686 223.318 106.162 223.318C105.639 223.318 105.208 223.454 104.87 223.726C104.532 223.998 104.282 224.354 104.119 224.795C103.957 225.236 103.876 225.711 103.876 226.222C103.876 226.732 103.957 227.206 104.119 227.643C104.282 228.081 104.532 228.434 104.87 228.702C105.208 228.971 105.639 229.105 106.162 229.105ZM114.297 230.159C113.661 230.159 113.099 229.998 112.612 229.677C112.125 229.352 111.743 228.895 111.468 228.305C111.193 227.711 111.056 227.01 111.056 226.202C111.056 225.4 111.193 224.704 111.468 224.114C111.743 223.524 112.126 223.068 112.617 222.746C113.107 222.425 113.674 222.264 114.317 222.264C114.814 222.264 115.207 222.347 115.495 222.513C115.787 222.675 116.009 222.861 116.162 223.07C116.317 223.275 116.438 223.444 116.525 223.577H116.624V219.818H117.797V230H116.664V228.827H116.525C116.438 228.966 116.316 229.142 116.157 229.354C115.998 229.562 115.77 229.75 115.475 229.915C115.181 230.078 114.788 230.159 114.297 230.159ZM114.456 229.105C114.927 229.105 115.325 228.982 115.65 228.737C115.974 228.489 116.221 228.146 116.39 227.708C116.559 227.267 116.644 226.759 116.644 226.182C116.644 225.612 116.561 225.113 116.395 224.685C116.23 224.254 115.984 223.92 115.659 223.681C115.335 223.439 114.934 223.318 114.456 223.318C113.959 223.318 113.545 223.446 113.213 223.701C112.885 223.953 112.638 224.296 112.473 224.73C112.31 225.161 112.229 225.645 112.229 226.182C112.229 226.725 112.312 227.219 112.478 227.663C112.647 228.104 112.895 228.455 113.223 228.717C113.555 228.976 113.966 229.105 114.456 229.105ZM123.311 230.159C122.575 230.159 121.94 229.997 121.407 229.672C120.876 229.344 120.467 228.886 120.179 228.3C119.894 227.71 119.751 227.024 119.751 226.241C119.751 225.459 119.894 224.77 120.179 224.173C120.467 223.573 120.868 223.106 121.382 222.771C121.899 222.433 122.502 222.264 123.191 222.264C123.589 222.264 123.982 222.33 124.37 222.463C124.757 222.596 125.11 222.811 125.429 223.109C125.747 223.404 126 223.795 126.189 224.283C126.378 224.77 126.473 225.37 126.473 226.082V226.58H120.586V225.565H125.279C125.279 225.134 125.193 224.75 125.021 224.412C124.852 224.074 124.61 223.807 124.295 223.612C123.984 223.416 123.616 223.318 123.191 223.318C122.724 223.318 122.32 223.434 121.978 223.666C121.64 223.895 121.38 224.193 121.198 224.561C121.016 224.929 120.924 225.323 120.924 225.744V226.42C120.924 226.997 121.024 227.486 121.223 227.887C121.425 228.285 121.705 228.588 122.063 228.797C122.421 229.002 122.837 229.105 123.311 229.105C123.619 229.105 123.897 229.062 124.146 228.976C124.398 228.886 124.615 228.754 124.797 228.578C124.98 228.399 125.12 228.177 125.22 227.912L126.353 228.23C126.234 228.615 126.033 228.953 125.752 229.244C125.47 229.533 125.122 229.758 124.708 229.92C124.293 230.08 123.828 230.159 123.311 230.159ZM133.667 224.074L132.613 224.372C132.546 224.196 132.449 224.026 132.319 223.86C132.193 223.691 132.021 223.552 131.802 223.442C131.583 223.333 131.303 223.278 130.962 223.278C130.495 223.278 130.105 223.386 129.794 223.602C129.485 223.814 129.331 224.084 129.331 224.412C129.331 224.704 129.437 224.934 129.65 225.103C129.862 225.272 130.193 225.413 130.644 225.526L131.777 225.804C132.46 225.97 132.969 226.223 133.304 226.565C133.638 226.903 133.806 227.339 133.806 227.872C133.806 228.31 133.68 228.701 133.428 229.045C133.179 229.39 132.831 229.662 132.384 229.861C131.936 230.06 131.416 230.159 130.823 230.159C130.044 230.159 129.399 229.99 128.889 229.652C128.378 229.314 128.055 228.82 127.919 228.17L129.033 227.892C129.139 228.303 129.34 228.611 129.635 228.817C129.933 229.022 130.322 229.125 130.803 229.125C131.35 229.125 131.784 229.009 132.105 228.777C132.43 228.542 132.593 228.26 132.593 227.932C132.593 227.667 132.5 227.445 132.314 227.266C132.129 227.083 131.844 226.947 131.459 226.858L130.186 226.56C129.487 226.394 128.973 226.137 128.645 225.789C128.32 225.438 128.158 224.999 128.158 224.472C128.158 224.041 128.279 223.66 128.521 223.328C128.766 222.997 129.099 222.737 129.52 222.548C129.944 222.359 130.425 222.264 130.962 222.264C131.718 222.264 132.311 222.43 132.742 222.761C133.176 223.093 133.484 223.53 133.667 224.074Z" fill="#9CA3AF"/>
</g>
<rect x="41.5" y="207" width="257" height="36" rx="4" stroke="#E4E4E7"/>
<g filter="url(#filter1_d_2089_36985)">
<rect x="41.5" y="263" width="257" height="40" rx="4" fill="#3B82F6"/>
<rect x="41.5" y="263" width="257" height="40" rx="4" stroke="#2563EB"/>
<path d="M154.943 281.148H153.17C153.102 280.769 152.975 280.436 152.79 280.148C152.604 279.86 152.377 279.616 152.108 279.415C151.839 279.214 151.538 279.062 151.205 278.96C150.875 278.858 150.525 278.807 150.153 278.807C149.483 278.807 148.883 278.975 148.352 279.312C147.826 279.65 147.409 280.144 147.102 280.795C146.799 281.447 146.648 282.242 146.648 283.182C146.648 284.129 146.799 284.928 147.102 285.58C147.409 286.231 147.828 286.723 148.358 287.057C148.888 287.39 149.485 287.557 150.148 287.557C150.515 287.557 150.864 287.508 151.193 287.409C151.527 287.307 151.828 287.157 152.097 286.96C152.366 286.763 152.593 286.523 152.778 286.239C152.968 285.951 153.098 285.621 153.17 285.25L154.943 285.256C154.848 285.828 154.665 286.354 154.392 286.835C154.123 287.312 153.777 287.725 153.352 288.074C152.932 288.419 152.451 288.686 151.909 288.875C151.367 289.064 150.777 289.159 150.136 289.159C149.129 289.159 148.231 288.92 147.443 288.443C146.655 287.962 146.034 287.275 145.58 286.381C145.129 285.487 144.903 284.42 144.903 283.182C144.903 281.939 145.131 280.873 145.585 279.983C146.04 279.089 146.661 278.403 147.449 277.926C148.237 277.445 149.133 277.205 150.136 277.205C150.754 277.205 151.33 277.294 151.864 277.472C152.402 277.646 152.884 277.903 153.312 278.244C153.741 278.581 154.095 278.994 154.375 279.483C154.655 279.968 154.845 280.523 154.943 281.148ZM156.908 289V280.273H158.55V281.659H158.641C158.8 281.189 159.08 280.82 159.482 280.551C159.887 280.278 160.345 280.142 160.857 280.142C160.963 280.142 161.088 280.146 161.232 280.153C161.379 280.161 161.495 280.17 161.578 280.182V281.807C161.51 281.788 161.389 281.767 161.214 281.744C161.04 281.718 160.866 281.705 160.692 281.705C160.29 281.705 159.932 281.79 159.618 281.96C159.307 282.127 159.061 282.36 158.879 282.659C158.697 282.955 158.607 283.292 158.607 283.67V289H156.908ZM166.497 289.176C165.637 289.176 164.897 288.992 164.276 288.625C163.658 288.254 163.181 287.733 162.844 287.062C162.51 286.388 162.344 285.598 162.344 284.693C162.344 283.799 162.51 283.011 162.844 282.33C163.181 281.648 163.651 281.116 164.253 280.733C164.859 280.35 165.567 280.159 166.378 280.159C166.87 280.159 167.348 280.241 167.81 280.403C168.272 280.566 168.687 280.822 169.054 281.17C169.421 281.519 169.711 281.972 169.923 282.528C170.135 283.081 170.241 283.754 170.241 284.545V285.148H163.304V283.875H168.577C168.577 283.428 168.486 283.032 168.304 282.688C168.122 282.339 167.866 282.064 167.537 281.864C167.211 281.663 166.829 281.562 166.389 281.562C165.912 281.562 165.495 281.68 165.139 281.915C164.787 282.146 164.514 282.449 164.321 282.824C164.132 283.195 164.037 283.598 164.037 284.034V285.028C164.037 285.612 164.139 286.108 164.344 286.517C164.552 286.926 164.842 287.239 165.213 287.455C165.584 287.667 166.018 287.773 166.514 287.773C166.836 287.773 167.13 287.727 167.395 287.636C167.66 287.542 167.889 287.402 168.082 287.216C168.276 287.03 168.423 286.801 168.526 286.528L170.134 286.818C170.005 287.292 169.774 287.706 169.44 288.062C169.111 288.415 168.696 288.689 168.196 288.886C167.7 289.08 167.134 289.176 166.497 289.176ZM174.666 289.193C174.113 289.193 173.613 289.091 173.166 288.886C172.719 288.678 172.365 288.377 172.104 287.983C171.846 287.589 171.717 287.106 171.717 286.534C171.717 286.042 171.812 285.636 172.001 285.318C172.191 285 172.446 284.748 172.768 284.562C173.09 284.377 173.45 284.237 173.848 284.142C174.246 284.047 174.651 283.975 175.064 283.926C175.587 283.866 176.011 283.816 176.337 283.778C176.662 283.737 176.899 283.67 177.047 283.58C177.195 283.489 177.268 283.341 177.268 283.136V283.097C177.268 282.6 177.128 282.216 176.848 281.943C176.571 281.67 176.159 281.534 175.609 281.534C175.037 281.534 174.587 281.661 174.257 281.915C173.931 282.165 173.706 282.443 173.581 282.75L171.984 282.386C172.174 281.856 172.45 281.428 172.814 281.102C173.181 280.773 173.604 280.534 174.081 280.386C174.558 280.235 175.06 280.159 175.587 280.159C175.935 280.159 176.304 280.201 176.695 280.284C177.089 280.364 177.456 280.511 177.797 280.727C178.142 280.943 178.424 281.252 178.643 281.653C178.863 282.051 178.973 282.568 178.973 283.205V289H177.314V287.807H177.246C177.136 288.027 176.971 288.242 176.751 288.455C176.532 288.667 176.25 288.843 175.905 288.983C175.56 289.123 175.147 289.193 174.666 289.193ZM175.036 287.83C175.505 287.83 175.907 287.737 176.24 287.551C176.577 287.366 176.833 287.123 177.007 286.824C177.185 286.521 177.274 286.197 177.274 285.852V284.727C177.214 284.788 177.096 284.845 176.922 284.898C176.751 284.947 176.556 284.991 176.337 285.028C176.117 285.062 175.903 285.095 175.695 285.125C175.486 285.152 175.312 285.174 175.172 285.193C174.842 285.235 174.541 285.305 174.268 285.403C174 285.502 173.784 285.644 173.621 285.83C173.462 286.011 173.382 286.254 173.382 286.557C173.382 286.977 173.537 287.295 173.848 287.511C174.159 287.723 174.554 287.83 175.036 287.83ZM185.31 280.273V281.636H180.543V280.273H185.31ZM181.821 278.182H183.52V286.438C183.52 286.767 183.569 287.015 183.668 287.182C183.766 287.345 183.893 287.456 184.048 287.517C184.207 287.574 184.38 287.602 184.565 287.602C184.702 287.602 184.821 287.593 184.923 287.574C185.026 287.555 185.105 287.54 185.162 287.528L185.469 288.932C185.37 288.97 185.23 289.008 185.048 289.045C184.866 289.087 184.639 289.11 184.366 289.114C183.92 289.121 183.503 289.042 183.116 288.875C182.73 288.708 182.418 288.451 182.179 288.102C181.94 287.754 181.821 287.316 181.821 286.79V278.182ZM190.857 289.176C189.997 289.176 189.256 288.992 188.635 288.625C188.018 288.254 187.54 287.733 187.203 287.062C186.87 286.388 186.703 285.598 186.703 284.693C186.703 283.799 186.87 283.011 187.203 282.33C187.54 281.648 188.01 281.116 188.612 280.733C189.218 280.35 189.927 280.159 190.737 280.159C191.23 280.159 191.707 280.241 192.169 280.403C192.631 280.566 193.046 280.822 193.413 281.17C193.781 281.519 194.071 281.972 194.283 282.528C194.495 283.081 194.601 283.754 194.601 284.545V285.148H187.663V283.875H192.936C192.936 283.428 192.845 283.032 192.663 282.688C192.482 282.339 192.226 282.064 191.896 281.864C191.571 281.663 191.188 281.562 190.749 281.562C190.271 281.562 189.855 281.68 189.499 281.915C189.146 282.146 188.874 282.449 188.68 282.824C188.491 283.195 188.396 283.598 188.396 284.034V285.028C188.396 285.612 188.499 286.108 188.703 286.517C188.911 286.926 189.201 287.239 189.572 287.455C189.944 287.667 190.377 287.773 190.874 287.773C191.196 287.773 191.489 287.727 191.754 287.636C192.019 287.542 192.249 287.402 192.442 287.216C192.635 287.03 192.783 286.801 192.885 286.528L194.493 286.818C194.364 287.292 194.133 287.706 193.8 288.062C193.47 288.415 193.055 288.689 192.555 288.886C192.059 289.08 191.493 289.176 190.857 289.176Z" fill="white"/>
</g>
<rect x="409" y="96.5" width="129" height="129" rx="3.5" fill="white"/>
<rect x="409" y="96.5" width="129" height="129" rx="3.5" stroke="#E4E4E7"/>
<g clip-path="url(#clip3_2089_36985)">
<path fill-rule="evenodd" clip-rule="evenodd" d="M473.934 131.708C473.66 131.576 473.341 131.576 473.066 131.708L449.753 142.935C449.478 143.068 449.279 143.317 449.212 143.614L443.454 168.841C443.386 169.138 443.457 169.45 443.647 169.687L459.78 189.918C459.97 190.156 460.258 190.295 460.562 190.295H486.438C486.743 190.295 487.03 190.156 487.22 189.918L503.354 169.687C503.544 169.45 503.615 169.138 503.547 168.841L497.789 143.614C497.721 143.317 497.522 143.068 497.248 142.935L473.934 131.708ZM472.606 141.743C472.836 141.488 473.157 141.334 473.5 141.315L473.503 141.307C473.846 141.326 474.167 141.48 474.396 141.735C474.626 141.99 474.745 142.326 474.728 142.668V143.017C474.694 143.408 474.638 143.798 474.559 144.183C474.441 144.918 474.395 145.663 474.421 146.408C474.469 146.656 474.612 146.876 474.821 147.02C474.822 147.039 474.824 147.067 474.827 147.101C474.836 147.227 474.851 147.436 474.851 147.565C478.728 147.917 482.345 149.665 485.031 152.483L485.496 152.151C485.747 152.194 486.004 152.165 486.24 152.069C486.838 151.626 487.391 151.125 487.893 150.574C488.148 150.273 488.421 149.986 488.71 149.716C488.786 149.651 488.898 149.564 488.982 149.499C489.103 149.37 489.25 149.269 489.414 149.202C489.577 149.135 489.753 149.104 489.929 149.111C490.106 149.118 490.279 149.163 490.437 149.242C490.594 149.322 490.733 149.434 490.843 149.572C490.954 149.71 491.033 149.87 491.077 150.041C491.12 150.212 491.126 150.391 491.094 150.565C491.063 150.738 490.994 150.903 490.893 151.048C490.793 151.193 490.662 151.315 490.51 151.405C490.485 151.424 490.459 151.446 490.432 151.468C490.365 151.523 490.294 151.582 490.237 151.623C489.91 151.84 489.57 152.038 489.219 152.216C488.57 152.583 487.959 153.013 487.394 153.499C487.229 153.691 487.146 153.941 487.163 154.193L486.727 154.583C488.902 157.825 489.811 161.753 489.282 165.62L489.777 165.765C489.899 165.992 490.082 166.181 490.306 166.309C491.025 166.501 491.761 166.623 492.503 166.672C492.897 166.681 493.29 166.713 493.68 166.767C493.746 166.779 493.83 166.8 493.91 166.82C493.955 166.832 493.998 166.843 494.036 166.851C494.206 166.875 494.368 166.933 494.514 167.022C494.659 167.111 494.785 167.23 494.882 167.37C494.979 167.511 495.046 167.67 495.078 167.838C495.111 168.005 495.108 168.178 495.07 168.344C495.032 168.511 494.96 168.668 494.858 168.805C494.756 168.942 494.627 169.056 494.479 169.141C494.33 169.225 494.166 169.278 493.996 169.295C493.826 169.313 493.654 169.295 493.492 169.242H493.448C493.415 169.235 493.378 169.228 493.341 169.221C493.268 169.206 493.192 169.191 493.132 169.174C492.761 169.054 492.398 168.912 492.043 168.75C491.353 168.471 490.637 168.26 489.905 168.12C489.652 168.112 489.406 168.203 489.219 168.374C489.132 168.355 488.854 168.306 488.696 168.281C487.507 172.014 484.987 175.18 481.615 177.175C481.673 177.345 481.741 177.51 481.82 177.671C481.694 177.891 481.66 178.151 481.724 178.395C482.023 179.078 482.388 179.731 482.814 180.343C483.052 180.656 483.272 180.982 483.473 181.32C483.514 181.397 483.568 181.51 483.611 181.603C483.619 181.619 483.626 181.635 483.633 181.65C483.72 181.797 483.775 181.961 483.794 182.131C483.814 182.3 483.798 182.472 483.748 182.635C483.697 182.799 483.614 182.95 483.502 183.079C483.39 183.208 483.252 183.312 483.098 183.385C482.944 183.458 482.776 183.498 482.605 183.503C482.434 183.508 482.264 183.477 482.106 183.412C481.948 183.347 481.805 183.25 481.686 183.128C481.568 183.005 481.476 182.859 481.417 182.698C481.401 182.666 481.383 182.63 481.365 182.593C481.329 182.521 481.291 182.445 481.264 182.385C481.124 182.017 481.005 181.642 480.907 181.26C480.695 180.547 480.413 179.857 480.066 179.199C479.915 178.995 479.69 178.858 479.44 178.818C479.403 178.769 479.315 178.611 479.239 178.475C479.213 178.427 479.188 178.383 479.167 178.346C475.519 179.727 471.49 179.717 467.849 178.316L467.577 178.82C467.377 178.857 467.194 178.954 467.051 179.098C466.633 179.784 466.313 180.526 466.101 181.301C466.005 181.683 465.886 182.058 465.747 182.426C465.72 182.488 465.681 182.564 465.645 182.636C465.627 182.672 465.61 182.707 465.594 182.739C465.536 182.9 465.444 183.047 465.325 183.171C465.207 183.295 465.063 183.392 464.905 183.457C464.746 183.522 464.576 183.553 464.404 183.549C464.233 183.544 464.064 183.504 463.91 183.43C463.755 183.357 463.617 183.252 463.505 183.122C463.393 182.992 463.31 182.84 463.26 182.676C463.21 182.512 463.195 182.339 463.216 182.169C463.236 181.999 463.292 181.835 463.38 181.688C463.397 181.653 463.416 181.613 463.436 181.571C463.47 181.497 463.507 181.417 463.538 181.358C463.739 181.019 463.959 180.692 464.197 180.378C464.63 179.75 465.002 179.081 465.308 178.382C465.341 178.145 465.303 177.903 465.199 177.687L465.423 177.143C462.063 175.163 459.544 172.021 458.342 168.311L457.798 168.404C457.59 168.257 457.346 168.171 457.092 168.156C456.361 168.296 455.645 168.506 454.954 168.785C454.6 168.946 454.236 169.087 453.865 169.207C453.8 169.225 453.713 169.243 453.631 169.26C453.603 169.266 453.575 169.272 453.549 169.278H453.506C453.343 169.33 453.171 169.348 453.002 169.331C452.832 169.313 452.667 169.261 452.519 169.176C452.37 169.092 452.241 168.977 452.139 168.84C452.038 168.703 451.965 168.546 451.927 168.38C451.889 168.213 451.887 168.041 451.919 167.873C451.951 167.705 452.018 167.546 452.116 167.406C452.213 167.265 452.338 167.147 452.484 167.057C452.629 166.968 452.792 166.91 452.961 166.887H452.98L452.997 166.883C453.096 166.859 453.219 166.829 453.307 166.811C453.697 166.756 454.09 166.724 454.483 166.715C455.226 166.666 455.962 166.545 456.681 166.353C456.895 166.213 457.075 166.027 457.207 165.808L457.721 165.659C457.164 161.788 458.055 157.848 460.224 154.594L459.832 154.242C459.818 153.988 459.733 153.743 459.587 153.534C459.022 153.048 458.411 152.619 457.762 152.252C457.412 152.074 457.073 151.875 456.746 151.658C456.7 151.623 456.643 151.577 456.587 151.531C456.555 151.504 456.523 151.478 456.493 151.454H456.474C456.195 151.254 456.006 150.951 455.949 150.612C455.893 150.273 455.973 149.926 456.172 149.646C456.289 149.502 456.439 149.387 456.609 149.312C456.779 149.237 456.964 149.203 457.149 149.213C457.461 149.225 457.761 149.338 458.004 149.534C458.015 149.542 458.025 149.55 458.036 149.559C458.116 149.62 458.212 149.694 458.277 149.752C458.565 150.022 458.838 150.308 459.094 150.61C459.595 151.161 460.149 151.661 460.747 152.105C460.971 152.223 461.234 152.248 461.477 152.176C461.517 152.199 461.61 152.266 461.709 152.338C461.784 152.392 461.862 152.449 461.921 152.489C464.076 150.198 466.867 148.604 469.935 147.911C470.665 147.746 471.406 147.632 472.152 147.57L472.182 147.05C472.372 146.881 472.51 146.661 472.58 146.416C472.607 145.671 472.561 144.926 472.443 144.191C472.365 143.806 472.308 143.417 472.275 143.025V142.712V142.677C472.257 142.334 472.377 141.998 472.606 141.743ZM471.599 157.26L471.964 150.827C471.528 150.881 471.094 150.956 470.665 151.054C468.368 151.57 466.261 152.718 464.581 154.368L469.856 158.077C470.014 158.189 470.199 158.256 470.392 158.273C470.585 158.289 470.779 158.254 470.953 158.171C471.128 158.088 471.278 157.959 471.386 157.799C471.495 157.639 471.559 157.453 471.572 157.26H471.599ZM482.392 154.368C480.395 152.413 477.812 151.169 475.039 150.827L475.412 157.268C475.424 157.462 475.488 157.648 475.597 157.809C475.706 157.969 475.856 158.098 476.031 158.181C476.206 158.264 476.401 158.299 476.594 158.283C476.787 158.266 476.972 158.197 477.13 158.085H477.149L482.392 154.368ZM467.476 161.078L462.659 156.77V156.772C461.194 159.165 460.567 161.977 460.878 164.765L467.051 162.984V162.962C467.238 162.908 467.407 162.806 467.54 162.664C467.674 162.523 467.767 162.348 467.811 162.159C467.854 161.969 467.846 161.772 467.787 161.586C467.728 161.401 467.621 161.235 467.476 161.105V161.078ZM486.153 164.741C486.421 161.954 485.773 159.155 484.306 156.77L484.314 156.794L479.524 161.081C479.379 161.211 479.272 161.377 479.213 161.562C479.154 161.747 479.146 161.945 479.19 162.134C479.233 162.324 479.326 162.498 479.46 162.64C479.593 162.781 479.762 162.884 479.949 162.938V162.965L486.153 164.741ZM474.486 161.399H472.511L471.281 162.93L471.722 164.836L473.497 165.691L475.27 164.839L475.711 162.933L474.486 161.399ZM479.086 166.666C479.004 166.65 478.921 166.644 478.838 166.647V166.666C478.664 166.677 478.495 166.728 478.346 166.817C478.196 166.906 478.07 167.03 477.978 167.178C477.886 167.325 477.831 167.493 477.817 167.667C477.803 167.84 477.831 168.014 477.898 168.175L480.376 174.166C482.739 172.653 484.531 170.398 485.472 167.756L479.086 166.666ZM468.614 166.813C468.46 166.727 468.287 166.679 468.111 166.674L468.102 166.661C468.031 166.66 467.96 166.667 467.89 166.68L461.558 167.756C462.509 170.385 464.301 172.627 466.656 174.133L469.107 168.205L469.088 168.18C469.156 168.017 469.183 167.84 469.167 167.664C469.151 167.488 469.092 167.318 468.996 167.17C468.899 167.022 468.769 166.899 468.614 166.813ZM474.036 169.417C473.86 169.316 473.661 169.266 473.459 169.272V169.283C473.27 169.29 473.085 169.347 472.924 169.447C472.763 169.548 472.631 169.688 472.541 169.855L469.429 175.484C471.658 176.243 474.054 176.367 476.349 175.841C476.77 175.746 477.186 175.629 477.596 175.492L474.475 169.842H474.45C474.354 169.664 474.211 169.517 474.036 169.417Z" fill="#111827"/>
</g>
<path d="M371.136 160.636L377.5 167L371.136 173.364" stroke="#9CA3AF" stroke-width="2" stroke-linecap="round" stroke-linejoin="round"/>
<path d="M377.5 167H353.5" stroke="#9CA3AF" stroke-width="2" stroke-linecap="round" stroke-linejoin="round"/>
</g>
<defs>
<filter id="filter0_dd_2089_36985" x="0.5" y="0" width="554" height="346" filterUnits="userSpaceOnUse" color-interpolation-filters="sRGB">
<feFlood flood-opacity="0" result="BackgroundImageFix"/>
<feColorMatrix in="SourceAlpha" type="matrix" values="0 0 0 0 0 0 0 0 0 0 0 0 0 0 0 0 0 0 127 0" result="hardAlpha"/>
<feOffset dy="2"/>
<feGaussianBlur stdDeviation="8"/>
<feColorMatrix type="matrix" values="0 0 0 0 0.129412 0 0 0 0 0.168627 0 0 0 0 0.211765 0 0 0 0.08 0"/>
<feBlend mode="normal" in2="BackgroundImageFix" result="effect1_dropShadow_2089_36985"/>
<feColorMatrix in="SourceAlpha" type="matrix" values="0 0 0 0 0 0 0 0 0 0 0 0 0 0 0 0 0 0 127 0" result="hardAlpha"/>
<feMorphology radius="1" operator="dilate" in="SourceAlpha" result="effect2_dropShadow_2089_36985"/>
<feOffset/>
<feColorMatrix type="matrix" values="0 0 0 0 0.0235294 0 0 0 0 0.172549 0 0 0 0 0.321569 0 0 0 0.1 0"/>
<feBlend mode="normal" in2="effect1_dropShadow_2089_36985" result="effect2_dropShadow_2089_36985"/>
<feBlend mode="normal" in="SourceGraphic" in2="effect2_dropShadow_2089_36985" result="shape"/>
</filter>
<filter id="filter1_d_2089_36985" x="37" y="259.5" width="266" height="49" filterUnits="userSpaceOnUse" color-interpolation-filters="sRGB">
<feFlood flood-opacity="0" result="BackgroundImageFix"/>
<feColorMatrix in="SourceAlpha" type="matrix" values="0 0 0 0 0 0 0 0 0 0 0 0 0 0 0 0 0 0 127 0" result="hardAlpha"/>
<feOffset dy="1"/>
<feGaussianBlur stdDeviation="2"/>
<feComposite in2="hardAlpha" operator="out"/>
<feColorMatrix type="matrix" values="0 0 0 0 0 0 0 0 0 0 0 0 0 0 0 0 0 0 0.05 0"/>
<feBlend mode="normal" in2="BackgroundImageFix" result="effect1_dropShadow_2089_36985"/>
<feBlend mode="normal" in="SourceGraphic" in2="effect1_dropShadow_2089_36985" result="shape"/>
</filter>
<clipPath id="clip0_2089_36985">
<rect x="41.5" y="67" width="257" height="36" rx="4" fill="white"/>
</clipPath>
<clipPath id="clip1_2089_36985">
<rect x="41.5" y="151" width="257" height="36" rx="4" fill="white"/>
</clipPath>
<clipPath id="clip2_2089_36985">
<rect x="41.5" y="207" width="257" height="36" rx="4" fill="white"/>
</clipPath>
<clipPath id="clip3_2089_36985">
<rect width="60" height="60" fill="white" transform="translate(443.5 131)"/>
</clipPath>
</defs>
</svg>
