<svg width="1120" height="480" viewBox="0 0 1120 480" fill="none" xmlns="http://www.w3.org/2000/svg">
<g clip-path="url(#clip0_3940_76035)">
<rect width="1120" height="480" fill="#FAFAFA"/>
<g filter="url(#filter0_f_3940_76035)">
<ellipse cx="559.574" cy="279.033" rx="105.761" ry="64.8867" fill="#BFDBFE"/>
</g>
<path d="M349.05 -188.432L-457.479 277.217M377.481 -172.018L-429.048 293.632M405.912 -155.603L-400.617 310.047M434.344 -139.188L-372.185 326.462M462.775 -122.773L-343.754 342.877M491.206 -106.358L-315.323 359.292M519.638 -89.9434L-286.891 375.706M548.069 -73.5286L-258.46 392.121M576.5 -57.1137L-230.029 408.536M604.932 -40.6989L-201.597 424.951M633.363 -24.2841L-173.166 441.366M661.794 -7.86928L-144.735 457.78M690.226 8.54555L-116.303 474.195M718.657 24.9604L-87.8721 490.61M747.088 41.3752L-59.4408 507.025M775.52 57.79L-31.0094 523.44M803.951 74.2049L-2.57816 539.855M832.382 90.6197L25.8532 556.269M860.814 107.035L54.2845 572.684M889.245 123.449L82.7159 589.099M917.676 139.864L111.147 605.514M946.108 156.279L139.578 621.929M974.539 172.694L168.01 638.344M1002.97 189.109L196.441 654.758M1031.4 205.524L224.872 671.173M1059.83 221.938L253.304 687.588M1088.26 238.353L281.735 704.003M1116.7 254.768L310.167 720.418M1145.13 271.183L338.598 736.833M1173.56 287.598L367.029 753.247M-485.702 293.753L350.931 776.783M-456.853 277.097L379.78 760.127M-428.003 260.441L408.63 743.471M-399.154 243.785L437.479 726.815M-370.304 227.128L466.328 710.159M-341.455 210.472L495.178 693.502M-312.606 193.816L524.027 676.846M-283.756 177.16L552.877 660.19M-254.907 160.504L581.726 643.534M-226.057 143.847L610.575 626.878M-197.208 127.191L639.425 610.221M-168.359 110.535L668.274 593.565M-139.509 93.8788L697.124 576.909M-110.66 77.2225L725.973 560.253M-81.8104 60.5663L754.822 543.596M-52.961 43.9101L783.672 526.94M-24.1115 27.2539L812.521 510.284M4.73785 10.5977L841.37 493.628M33.5872 -6.05852L870.22 476.972M62.4366 -22.7147L899.069 460.315M91.286 -39.3709L927.919 443.659M120.135 -56.0272L956.768 427.003M148.985 -72.6834L985.618 410.347M177.834 -89.3396L1014.47 393.691M206.684 -105.996L1043.32 377.034M235.533 -122.652L1072.17 360.378M264.382 -139.308L1101.02 343.722M293.232 -155.964L1129.86 327.066M322.081 -172.621L1158.71 310.409M350.931 -189.277L1187.56 293.753" stroke="#E4E4E7"/>
<rect width="1120.29" height="143.747" transform="matrix(1 0 0 -1 -0.710815 480)" fill="url(#paint0_linear_3940_76035)"/>
<rect x="-0.710815" width="1120.29" height="157.825" fill="url(#paint1_linear_3940_76035)"/>
<rect x="-0.425659" y="480" width="480" height="483.815" transform="rotate(-90 -0.425659 480)" fill="url(#paint2_linear_3940_76035)"/>
<rect width="480" height="485.084" transform="matrix(4.37114e-08 -1 -1 -4.37114e-08 1120.84 480)" fill="url(#paint3_linear_3940_76035)"/>
<path d="M539.96 186.301L452.667 135.924C442.911 130.293 438.033 127.478 432.676 127.478C427.32 127.477 422.441 130.292 412.684 135.922L308.345 196.121C298.664 201.707 293.823 204.5 288.504 204.519C283.186 204.537 278.326 201.778 268.606 196.259L-21.2828 31.669" stroke="url(#paint4_linear_3940_76035)" stroke-width="2" stroke-linecap="round" stroke-dasharray="6 6"/>
<path d="M773.277 354.434L735.682 376.171C725.922 381.814 721.041 384.636 715.681 384.638C710.32 384.641 705.437 381.824 695.671 376.189L583.56 311.508" stroke="url(#paint5_linear_3940_76035)" stroke-width="2" stroke-linecap="round" stroke-dasharray="6 6"/>
<path d="M600.181 192.136L618.398 181.512C620.361 180.367 621.342 179.795 621.935 179.269C625.546 176.067 625.52 170.421 621.881 167.251C621.283 166.73 620.297 166.167 618.324 165.04V165.04C616.339 163.907 615.347 163.34 614.747 162.817C611.098 159.635 611.09 153.966 614.73 150.773C615.328 150.249 616.318 149.679 618.3 148.54L695.661 104.051C706.375 97.8897 711.733 94.809 711.733 90.181C711.733 85.5531 706.375 82.4724 695.661 76.311L662.884 57.4615" stroke="url(#paint6_linear_3940_76035)" stroke-width="2" stroke-linecap="round" stroke-dasharray="6 6"/>
<path d="M608.043 252.764L727.124 184.196C736.881 178.578 741.759 175.769 747.112 175.773C752.466 175.776 757.34 178.591 767.089 184.222L812.775 210.607C822.544 216.249 827.429 219.071 832.793 219.069C838.157 219.067 843.04 216.243 852.806 210.595L1122.9 54.3848" stroke="url(#paint7_linear_3940_76035)" stroke-width="2" stroke-linecap="round" stroke-dasharray="6 6"/>
<path d="M-20.9594 483.707L180.826 368.317C190.559 362.751 195.426 359.968 200.76 359.978C206.094 359.987 210.95 362.788 220.664 368.389L294.485 410.955C304.254 416.588 309.138 419.404 314.499 419.4C319.86 419.396 324.74 416.572 334.5 410.925L528.883 298.445" stroke="url(#paint8_linear_3940_76035)" stroke-width="2" stroke-linecap="round" stroke-dasharray="6 6"/>
<g filter="url(#filter1_d_3940_76035)">
<circle cx="8" cy="8" r="8" transform="matrix(0.83205 0.5547 -0.830139 0.557556 663.751 48.5406)" fill="white"/>
<circle cx="8" cy="8" r="10" transform="matrix(0.83205 0.5547 -0.830139 0.557556 663.751 48.5406)" stroke="#D97706" stroke-width="4"/>
</g>
<g filter="url(#filter2_d_3940_76035)">
<circle cx="8" cy="8" r="8" transform="matrix(0.83205 0.5547 -0.830139 0.557556 887.156 179.165)" fill="white"/>
<circle cx="8" cy="8" r="10" transform="matrix(0.83205 0.5547 -0.830139 0.557556 887.156 179.165)" stroke="#D97706" stroke-width="4"/>
</g>
<g filter="url(#filter3_d_3940_76035)">
<circle cx="8" cy="8" r="8" transform="matrix(0.83205 0.5547 -0.830139 0.557556 764.467 349.621)" fill="white"/>
<circle cx="8" cy="8" r="10" transform="matrix(0.83205 0.5547 -0.830139 0.557556 764.467 349.621)" stroke="#D97706" stroke-width="4"/>
</g>
<g filter="url(#filter4_d_3940_76035)">
<circle cx="8" cy="8" r="8" transform="matrix(0.83205 0.5547 -0.830139 0.557556 208.087 349.644)" fill="white"/>
<circle cx="8" cy="8" r="10" transform="matrix(0.83205 0.5547 -0.830139 0.557556 208.087 349.644)" stroke="#D97706" stroke-width="4"/>
</g>
<g filter="url(#filter5_d_3940_76035)">
<circle cx="8" cy="8" r="8" transform="matrix(0.83205 0.5547 -0.830139 0.557556 233.375 164.628)" fill="white"/>
<circle cx="8" cy="8" r="10" transform="matrix(0.83205 0.5547 -0.830139 0.557556 233.375 164.628)" stroke="#D97706" stroke-width="4"/>
</g>
<path d="M646.129 229.705V157.981C646.129 153.563 642.547 150 638.129 150H560H481.872C477.453 150 473.872 153.569 473.872 157.987C473.871 169.403 473.871 193.137 473.872 229.705C473.872 283.388 504.506 301.787 560 330C614.098 305.265 646.129 286.167 646.129 229.705Z" fill="#2563EB"/>
<path fill-rule="evenodd" clip-rule="evenodd" d="M544.604 190.5C539.633 190.5 535.604 194.53 535.604 199.5V227.131H527.29C525.081 227.131 523.29 228.922 523.29 231.131V268C523.29 270.209 525.081 272 527.29 272H592.71C594.919 272 596.71 270.209 596.71 268V231.131C596.71 228.922 594.919 227.131 592.71 227.131H584.393V199.5C584.393 194.53 580.364 190.5 575.393 190.5H544.604ZM543.604 199.5C543.604 198.948 544.052 198.5 544.604 198.5H575.393C575.946 198.5 576.393 198.948 576.393 199.5V226.828H543.604V199.5Z" fill="white"/>
</g>
<defs>
<filter id="filter0_f_3940_76035" x="253.813" y="14.1465" width="611.522" height="529.773" filterUnits="userSpaceOnUse" color-interpolation-filters="sRGB">
<feFlood flood-opacity="0" result="BackgroundImageFix"/>
<feBlend mode="normal" in="SourceGraphic" in2="BackgroundImageFix" result="shape"/>
<feGaussianBlur stdDeviation="100" result="effect1_foregroundBlur_3940_76035"/>
</filter>
<filter id="filter1_d_3940_76035" x="637.662" y="40.0009" width="52.2083" height="42.8757" filterUnits="userSpaceOnUse" color-interpolation-filters="sRGB">
<feFlood flood-opacity="0" result="BackgroundImageFix"/>
<feColorMatrix in="SourceAlpha" type="matrix" values="0 0 0 0 0 0 0 0 0 0 0 0 0 0 0 0 0 0 127 0" result="hardAlpha"/>
<feMorphology radius="2" operator="dilate" in="SourceAlpha" result="effect1_dropShadow_3940_76035"/>
<feOffset dy="4"/>
<feGaussianBlur stdDeviation="5"/>
<feComposite in2="hardAlpha" operator="out"/>
<feColorMatrix type="matrix" values="0 0 0 0 1 0 0 0 0 0.984314 0 0 0 0 0.921569 0 0 0 1 0"/>
<feBlend mode="normal" in2="BackgroundImageFix" result="effect1_dropShadow_3940_76035"/>
<feBlend mode="normal" in="SourceGraphic" in2="effect1_dropShadow_3940_76035" result="shape"/>
</filter>
<filter id="filter2_d_3940_76035" x="861.067" y="170.625" width="52.2083" height="42.8757" filterUnits="userSpaceOnUse" color-interpolation-filters="sRGB">
<feFlood flood-opacity="0" result="BackgroundImageFix"/>
<feColorMatrix in="SourceAlpha" type="matrix" values="0 0 0 0 0 0 0 0 0 0 0 0 0 0 0 0 0 0 127 0" result="hardAlpha"/>
<feMorphology radius="2" operator="dilate" in="SourceAlpha" result="effect1_dropShadow_3940_76035"/>
<feOffset dy="4"/>
<feGaussianBlur stdDeviation="5"/>
<feComposite in2="hardAlpha" operator="out"/>
<feColorMatrix type="matrix" values="0 0 0 0 1 0 0 0 0 0.984314 0 0 0 0 0.921569 0 0 0 1 0"/>
<feBlend mode="normal" in2="BackgroundImageFix" result="effect1_dropShadow_3940_76035"/>
<feBlend mode="normal" in="SourceGraphic" in2="effect1_dropShadow_3940_76035" result="shape"/>
</filter>
<filter id="filter3_d_3940_76035" x="738.378" y="341.082" width="52.2083" height="42.8757" filterUnits="userSpaceOnUse" color-interpolation-filters="sRGB">
<feFlood flood-opacity="0" result="BackgroundImageFix"/>
<feColorMatrix in="SourceAlpha" type="matrix" values="0 0 0 0 0 0 0 0 0 0 0 0 0 0 0 0 0 0 127 0" result="hardAlpha"/>
<feMorphology radius="2" operator="dilate" in="SourceAlpha" result="effect1_dropShadow_3940_76035"/>
<feOffset dy="4"/>
<feGaussianBlur stdDeviation="5"/>
<feComposite in2="hardAlpha" operator="out"/>
<feColorMatrix type="matrix" values="0 0 0 0 1 0 0 0 0 0.984314 0 0 0 0 0.921569 0 0 0 1 0"/>
<feBlend mode="normal" in2="BackgroundImageFix" result="effect1_dropShadow_3940_76035"/>
<feBlend mode="normal" in="SourceGraphic" in2="effect1_dropShadow_3940_76035" result="shape"/>
</filter>
<filter id="filter4_d_3940_76035" x="181.998" y="341.104" width="52.2083" height="42.8757" filterUnits="userSpaceOnUse" color-interpolation-filters="sRGB">
<feFlood flood-opacity="0" result="BackgroundImageFix"/>
<feColorMatrix in="SourceAlpha" type="matrix" values="0 0 0 0 0 0 0 0 0 0 0 0 0 0 0 0 0 0 127 0" result="hardAlpha"/>
<feMorphology radius="2" operator="dilate" in="SourceAlpha" result="effect1_dropShadow_3940_76035"/>
<feOffset dy="4"/>
<feGaussianBlur stdDeviation="5"/>
<feComposite in2="hardAlpha" operator="out"/>
<feColorMatrix type="matrix" values="0 0 0 0 1 0 0 0 0 0.984314 0 0 0 0 0.921569 0 0 0 1 0"/>
<feBlend mode="normal" in2="BackgroundImageFix" result="effect1_dropShadow_3940_76035"/>
<feBlend mode="normal" in="SourceGraphic" in2="effect1_dropShadow_3940_76035" result="shape"/>
</filter>
<filter id="filter5_d_3940_76035" x="207.286" y="156.088" width="52.2083" height="42.8757" filterUnits="userSpaceOnUse" color-interpolation-filters="sRGB">
<feFlood flood-opacity="0" result="BackgroundImageFix"/>
<feColorMatrix in="SourceAlpha" type="matrix" values="0 0 0 0 0 0 0 0 0 0 0 0 0 0 0 0 0 0 127 0" result="hardAlpha"/>
<feMorphology radius="2" operator="dilate" in="SourceAlpha" result="effect1_dropShadow_3940_76035"/>
<feOffset dy="4"/>
<feGaussianBlur stdDeviation="5"/>
<feComposite in2="hardAlpha" operator="out"/>
<feColorMatrix type="matrix" values="0 0 0 0 1 0 0 0 0 0.984314 0 0 0 0 0.921569 0 0 0 1 0"/>
<feBlend mode="normal" in2="BackgroundImageFix" result="effect1_dropShadow_3940_76035"/>
<feBlend mode="normal" in="SourceGraphic" in2="effect1_dropShadow_3940_76035" result="shape"/>
</filter>
<linearGradient id="paint0_linear_3940_76035" x1="560.143" y1="0" x2="560.143" y2="143.747" gradientUnits="userSpaceOnUse">
<stop stop-color="#FAFAFA"/>
<stop offset="1" stop-color="#FAFAFA" stop-opacity="0"/>
</linearGradient>
<linearGradient id="paint1_linear_3940_76035" x1="559.432" y1="0" x2="559.432" y2="157.825" gradientUnits="userSpaceOnUse">
<stop stop-color="#FAFAFA"/>
<stop offset="1" stop-color="#FAFAFA" stop-opacity="0"/>
</linearGradient>
<linearGradient id="paint2_linear_3940_76035" x1="239.574" y1="480" x2="239.574" y2="963.815" gradientUnits="userSpaceOnUse">
<stop stop-color="#FAFAFA"/>
<stop offset="1" stop-color="#FAFAFA" stop-opacity="0"/>
</linearGradient>
<linearGradient id="paint3_linear_3940_76035" x1="240" y1="0" x2="240" y2="485.084" gradientUnits="userSpaceOnUse">
<stop stop-color="#FAFAFA"/>
<stop offset="1" stop-color="#FAFAFA" stop-opacity="0"/>
</linearGradient>
<linearGradient id="paint4_linear_3940_76035" x1="523.967" y1="179.573" x2="233.031" y2="175.594" gradientUnits="userSpaceOnUse">
<stop offset="0.499319" stop-color="#D97706"/>
<stop offset="1" stop-color="#D97706" stop-opacity="0"/>
</linearGradient>
<linearGradient id="paint5_linear_3940_76035" x1="590.231" y1="311.508" x2="773.277" y2="354.369" gradientUnits="userSpaceOnUse">
<stop offset="0.466946" stop-color="#D97706"/>
<stop offset="1" stop-color="#D97706" stop-opacity="0"/>
</linearGradient>
<linearGradient id="paint6_linear_3940_76035" x1="663.901" y1="57.4615" x2="609.878" y2="186.16" gradientUnits="userSpaceOnUse">
<stop stop-color="#D97706" stop-opacity="0"/>
<stop offset="0.111081" stop-color="#D97706"/>
</linearGradient>
<linearGradient id="paint7_linear_3940_76035" x1="634.948" y1="238.252" x2="889.493" y2="188.51" gradientUnits="userSpaceOnUse">
<stop offset="0.564459" stop-color="#D97706"/>
<stop offset="1" stop-color="#D97706" stop-opacity="0"/>
</linearGradient>
<linearGradient id="paint8_linear_3940_76035" x1="520.687" y1="298.445" x2="201.818" y2="358.21" gradientUnits="userSpaceOnUse">
<stop offset="0.59251" stop-color="#D97706"/>
<stop offset="1" stop-color="#D97706" stop-opacity="0"/>
</linearGradient>
<clipPath id="clip0_3940_76035">
<rect width="1120" height="480" fill="white"/>
</clipPath>
</defs>
</svg>
