<svg width="348" height="320" viewBox="0 0 348 320" fill="none" xmlns="http://www.w3.org/2000/svg">
<path d="M2.12793 17V6.81445H3.92578L7.76074 12.8779C7.88835 13.0785 8.0319 13.3177 8.19141 13.5957C8.35091 13.8737 8.51953 14.1882 8.69727 14.5391C8.875 14.8854 9.05046 15.2637 9.22363 15.6738H9.03223C8.99121 15.2865 8.95931 14.9036 8.93652 14.5254C8.91829 14.1426 8.90462 13.7848 8.89551 13.4521C8.88639 13.1195 8.88184 12.8392 8.88184 12.6113V6.81445H10.4609V17H8.65625L5.21777 11.5791C5.03548 11.2829 4.85547 10.9844 4.67773 10.6836C4.50456 10.3828 4.31087 10.0365 4.09668 9.64453C3.88704 9.24805 3.62956 8.76725 3.32422 8.20215H3.57031C3.5931 8.70345 3.61589 9.17285 3.63867 9.61035C3.66146 10.0433 3.67741 10.4284 3.68652 10.7656C3.7002 11.0983 3.70703 11.3649 3.70703 11.5654V17H2.12793ZM15.4443 17.1504C14.8291 17.1504 14.2799 16.9932 13.7969 16.6787C13.3184 16.3597 12.9401 15.9062 12.6621 15.3184C12.3887 14.7259 12.252 14.0195 12.252 13.1992C12.252 12.3698 12.391 11.6611 12.6689 11.0732C12.9515 10.4854 13.3343 10.0365 13.8174 9.72656C14.305 9.41667 14.8542 9.26172 15.4648 9.26172C15.9342 9.26172 16.3125 9.33919 16.5996 9.49414C16.8913 9.64909 17.1169 9.83366 17.2764 10.0479C17.4404 10.2575 17.5658 10.4421 17.6523 10.6016H17.748V9.35742H19.2383V17H17.7549V15.8037H17.6523C17.5658 15.9678 17.4382 16.1569 17.2695 16.3711C17.1009 16.5807 16.8708 16.763 16.5791 16.918C16.2874 17.0729 15.9092 17.1504 15.4443 17.1504ZM15.793 15.8721C16.2214 15.8721 16.5814 15.7581 16.873 15.5303C17.1693 15.3024 17.3926 14.988 17.543 14.5869C17.6934 14.1813 17.7686 13.7142 17.7686 13.1855C17.7686 12.6523 17.6934 12.1898 17.543 11.7979C17.3926 11.4014 17.1693 11.0938 16.873 10.875C16.5814 10.6517 16.2214 10.54 15.793 10.54C15.3509 10.54 14.9818 10.6562 14.6855 10.8887C14.3893 11.1165 14.166 11.431 14.0156 11.832C13.8652 12.2285 13.79 12.6797 13.79 13.1855C13.79 13.6914 13.8652 14.1471 14.0156 14.5527C14.166 14.9583 14.3893 15.2796 14.6855 15.5166C14.9863 15.7536 15.3555 15.8721 15.793 15.8721ZM21.2617 17V9.35742H22.6904L22.7314 11.1279H22.6152C22.7246 10.695 22.8932 10.3395 23.1211 10.0615C23.349 9.78353 23.6156 9.57617 23.9209 9.43945C24.2262 9.29818 24.5452 9.22754 24.8779 9.22754C25.4339 9.22754 25.8828 9.40072 26.2246 9.74707C26.5664 10.0889 26.7965 10.5674 26.915 11.1826H26.7236C26.8239 10.7633 26.9971 10.4079 27.2432 10.1162C27.4893 9.82454 27.7855 9.60352 28.1318 9.45312C28.4827 9.30273 28.8564 9.22754 29.2529 9.22754C29.7041 9.22754 30.112 9.32552 30.4766 9.52148C30.8457 9.71745 31.1374 10.0091 31.3516 10.3965C31.5658 10.7839 31.6729 11.2669 31.6729 11.8457V17H30.1621V11.9961C30.1621 11.4857 30.0208 11.1165 29.7383 10.8887C29.4557 10.6608 29.1208 10.5469 28.7334 10.5469C28.4189 10.5469 28.1478 10.613 27.9199 10.7451C27.6921 10.8773 27.5166 11.0618 27.3936 11.2988C27.2705 11.5312 27.209 11.8001 27.209 12.1055V17H25.7256V11.9004C25.7256 11.4902 25.5934 11.1621 25.3291 10.916C25.0693 10.6699 24.7367 10.5469 24.3311 10.5469C24.0531 10.5469 23.7933 10.613 23.5518 10.7451C23.3148 10.8727 23.1234 11.0641 22.9775 11.3193C22.8363 11.57 22.7656 11.8799 22.7656 12.249V17H21.2617ZM36.998 17.1572C36.2461 17.1572 35.5967 16.9954 35.0498 16.6719C34.5029 16.3483 34.0814 15.8926 33.7852 15.3047C33.4935 14.7168 33.3477 14.0264 33.3477 13.2334C33.3477 12.4495 33.4912 11.7591 33.7783 11.1621C34.07 10.5651 34.4801 10.1003 35.0088 9.76758C35.5374 9.43034 36.1572 9.26172 36.8682 9.26172C37.3057 9.26172 37.7272 9.33464 38.1328 9.48047C38.5384 9.62174 38.903 9.84505 39.2266 10.1504C39.5501 10.4557 39.8053 10.8522 39.9922 11.3398C40.1836 11.8229 40.2793 12.4108 40.2793 13.1035V13.6367H34.1885V12.5156H39.5068L38.8027 12.8848C38.8027 12.4154 38.7298 12.0029 38.584 11.6475C38.4382 11.2874 38.2217 11.0072 37.9346 10.8066C37.652 10.6061 37.2965 10.5059 36.8682 10.5059C36.4443 10.5059 36.082 10.6084 35.7812 10.8135C35.4805 11.0186 35.2503 11.2897 35.0908 11.627C34.9359 11.9596 34.8584 12.3242 34.8584 12.7207V13.4863C34.8584 14.0104 34.9473 14.4548 35.125 14.8193C35.3073 15.1794 35.5602 15.4528 35.8838 15.6396C36.2074 15.8219 36.5833 15.9131 37.0117 15.9131C37.2943 15.9131 37.5495 15.8743 37.7773 15.7969C38.0052 15.7148 38.2012 15.5941 38.3652 15.4346C38.5339 15.2705 38.6615 15.07 38.748 14.833L40.1631 15.168C40.04 15.5599 39.8327 15.9062 39.541 16.207C39.2539 16.5078 38.8939 16.7425 38.4609 16.9111C38.0326 17.0752 37.5449 17.1572 36.998 17.1572Z" fill="#111827"/>
<g clip-path="url(#clip0_4654_79207)">
<rect x="1" y="28" width="346" height="36" rx="4" fill="white"/>
<path d="M336 43.5L331 48.5L326 43.5" stroke="#111827" stroke-linecap="round" stroke-linejoin="round"/>
</g>
<rect x="1" y="28" width="346" height="36" rx="4" stroke="#E4E4E7"/>
<rect x="1.5" y="88.5" width="101" height="103" rx="3.5" fill="white"/>
<rect x="1.5" y="88.5" width="101" height="103" rx="3.5" stroke="#E4E4E7"/>
<path d="M49.0162 111.563C50.4589 109.962 51.6815 108.36 51.9504 108.017C51.9749 107.994 52.0238 107.994 52.0482 108.017C52.2927 108.36 53.5398 109.962 54.9824 111.563C67.306 126.273 53.0507 136.202 53.0507 136.202L52.9285 136.271C52.8307 137.804 52.5617 140 52.5617 140H52.0238H51.4858C51.4858 140 51.2169 137.804 51.1191 136.271L50.9968 136.179C50.9479 136.202 36.6927 126.273 49.0162 111.563ZM51.9993 135.974C51.9993 135.974 52.6351 135.47 52.8062 135.196V135.173L52.0238 119.159C52.0238 119.113 51.9504 119.113 51.9504 119.159L51.168 135.173V135.196C51.3391 135.47 51.9993 135.974 51.9993 135.974Z" fill="#111827"/>
<path d="M19.6279 167V156.814H21.9248L24.1465 162.659C24.2103 162.832 24.2809 163.051 24.3584 163.315C24.4404 163.58 24.5247 163.867 24.6113 164.177C24.6979 164.487 24.7799 164.792 24.8574 165.093C24.9349 165.394 25.0033 165.665 25.0625 165.906H24.7344C24.7936 165.678 24.862 165.416 24.9395 165.12C25.0169 164.819 25.099 164.514 25.1855 164.204C25.2721 163.894 25.3564 163.603 25.4385 163.329C25.5205 163.056 25.5934 162.832 25.6572 162.659L27.8447 156.814H30.1553V167H28.6035V161.518C28.6035 161.308 28.6058 161.057 28.6104 160.766C28.6149 160.474 28.6195 160.166 28.624 159.843C28.6331 159.515 28.64 159.184 28.6445 158.852C28.6536 158.519 28.6605 158.2 28.665 157.895H28.7812C28.6901 158.227 28.5898 158.571 28.4805 158.927C28.3757 159.278 28.2708 159.617 28.166 159.945C28.0658 160.273 27.9678 160.574 27.8721 160.848C27.7809 161.117 27.7035 161.34 27.6396 161.518L25.5547 167H24.2217L22.1094 161.518C22.041 161.344 21.9613 161.126 21.8701 160.861C21.7835 160.592 21.6878 160.296 21.583 159.973C21.4782 159.645 21.3711 159.305 21.2617 158.954C21.1523 158.599 21.043 158.245 20.9336 157.895H21.0703C21.0794 158.173 21.0863 158.476 21.0908 158.804C21.0999 159.127 21.1068 159.455 21.1113 159.788C21.1204 160.121 21.1273 160.438 21.1318 160.738C21.141 161.035 21.1455 161.294 21.1455 161.518V167H19.6279ZM35.5078 167.157C34.7923 167.157 34.1657 166.993 33.6279 166.665C33.0947 166.337 32.68 165.877 32.3838 165.284C32.0876 164.692 31.9395 164.004 31.9395 163.22C31.9395 162.427 32.0876 161.734 32.3838 161.142C32.68 160.545 33.0947 160.082 33.6279 159.754C34.1657 159.426 34.7923 159.262 35.5078 159.262C36.2279 159.262 36.8545 159.426 37.3877 159.754C37.9255 160.082 38.3424 160.545 38.6387 161.142C38.9349 161.734 39.083 162.427 39.083 163.22C39.083 164.004 38.9349 164.692 38.6387 165.284C38.3424 165.877 37.9255 166.337 37.3877 166.665C36.8545 166.993 36.2279 167.157 35.5078 167.157ZM35.5078 165.886C35.9727 165.886 36.3555 165.765 36.6562 165.523C36.9616 165.277 37.1872 164.954 37.333 164.553C37.4834 164.147 37.5586 163.703 37.5586 163.22C37.5586 162.732 37.4834 162.285 37.333 161.88C37.1872 161.47 36.9616 161.144 36.6562 160.902C36.3555 160.656 35.9727 160.533 35.5078 160.533C35.0475 160.533 34.667 160.656 34.3662 160.902C34.0654 161.144 33.8398 161.467 33.6895 161.873C33.5436 162.279 33.4707 162.728 33.4707 163.22C33.4707 163.703 33.5436 164.147 33.6895 164.553C33.8398 164.954 34.0654 165.277 34.3662 165.523C34.667 165.765 35.0475 165.886 35.5078 165.886ZM42.2617 162.475V167H40.7578V159.357H42.1934L42.207 161.23H42.0498C42.2731 160.547 42.5967 160.048 43.0205 159.733C43.4443 159.419 43.957 159.262 44.5586 159.262C45.0781 159.262 45.5316 159.371 45.9189 159.59C46.3063 159.809 46.6094 160.132 46.8281 160.561C47.0469 160.984 47.1562 161.513 47.1562 162.146V167H45.6523V162.331C45.6523 161.78 45.5088 161.349 45.2217 161.039C44.9346 160.729 44.5404 160.574 44.0391 160.574C43.7018 160.574 43.3988 160.649 43.1299 160.8C42.861 160.946 42.6491 161.16 42.4941 161.442C42.3392 161.725 42.2617 162.069 42.2617 162.475ZM52.3721 170.021C51.7842 170.021 51.2738 169.946 50.8408 169.796C50.4079 169.646 50.0501 169.445 49.7676 169.194C49.4896 168.944 49.2777 168.666 49.1318 168.36L50.3896 167.766C50.4808 167.911 50.6016 168.064 50.752 168.224C50.9069 168.388 51.1143 168.527 51.374 168.641C51.6338 168.755 51.9665 168.812 52.3721 168.812C52.9554 168.812 53.4271 168.673 53.7871 168.395C54.1517 168.121 54.334 167.69 54.334 167.103V165.612H54.2041C54.113 165.781 53.9854 165.963 53.8213 166.159C53.6618 166.355 53.4362 166.526 53.1445 166.672C52.8574 166.813 52.4814 166.884 52.0166 166.884C51.415 166.884 50.8727 166.743 50.3896 166.46C49.9111 166.177 49.5306 165.758 49.248 165.202C48.9655 164.646 48.8242 163.963 48.8242 163.151C48.8242 162.34 48.9632 161.645 49.2412 161.066C49.5238 160.483 49.9066 160.036 50.3896 159.727C50.8773 159.417 51.4264 159.262 52.0371 159.262C52.5065 159.262 52.887 159.339 53.1787 159.494C53.4749 159.649 53.7051 159.834 53.8691 160.048C54.0378 160.257 54.1654 160.442 54.252 160.602H54.3613V159.357H55.8311V167.109C55.8311 167.779 55.6784 168.328 55.373 168.757C55.0723 169.19 54.6598 169.509 54.1357 169.714C53.6162 169.919 53.0283 170.021 52.3721 170.021ZM52.3652 165.633C52.7936 165.633 53.1536 165.535 53.4453 165.339C53.7415 165.138 53.9648 164.851 54.1152 164.478C54.2656 164.099 54.3408 163.65 54.3408 163.131C54.3408 162.616 54.2656 162.165 54.1152 161.777C53.9648 161.39 53.7415 161.087 53.4453 160.868C53.1536 160.649 52.7936 160.54 52.3652 160.54C51.9232 160.54 51.554 160.656 51.2578 160.889C50.9616 161.117 50.7383 161.426 50.5879 161.818C50.4375 162.206 50.3623 162.643 50.3623 163.131C50.3623 163.628 50.4375 164.065 50.5879 164.443C50.7383 164.817 50.9616 165.109 51.2578 165.318C51.5586 165.528 51.9277 165.633 52.3652 165.633ZM61.0742 167.157C60.3587 167.157 59.7321 166.993 59.1943 166.665C58.6611 166.337 58.2464 165.877 57.9502 165.284C57.654 164.692 57.5059 164.004 57.5059 163.22C57.5059 162.427 57.654 161.734 57.9502 161.142C58.2464 160.545 58.6611 160.082 59.1943 159.754C59.7321 159.426 60.3587 159.262 61.0742 159.262C61.7943 159.262 62.4209 159.426 62.9541 159.754C63.4919 160.082 63.9089 160.545 64.2051 161.142C64.5013 161.734 64.6494 162.427 64.6494 163.22C64.6494 164.004 64.5013 164.692 64.2051 165.284C63.9089 165.877 63.4919 166.337 62.9541 166.665C62.4209 166.993 61.7943 167.157 61.0742 167.157ZM61.0742 165.886C61.5391 165.886 61.9219 165.765 62.2227 165.523C62.528 165.277 62.7536 164.954 62.8994 164.553C63.0498 164.147 63.125 163.703 63.125 163.22C63.125 162.732 63.0498 162.285 62.8994 161.88C62.7536 161.47 62.528 161.144 62.2227 160.902C61.9219 160.656 61.5391 160.533 61.0742 160.533C60.6139 160.533 60.2334 160.656 59.9326 160.902C59.6318 161.144 59.4062 161.467 59.2559 161.873C59.11 162.279 59.0371 162.728 59.0371 163.22C59.0371 163.703 59.11 164.147 59.2559 164.553C59.4062 164.954 59.6318 165.277 59.9326 165.523C60.2334 165.765 60.6139 165.886 61.0742 165.886ZM69.749 167H67.2334V165.633H69.667C70.4372 165.633 71.0775 165.489 71.5879 165.202C72.0983 164.915 72.4811 164.493 72.7363 163.938C72.9915 163.377 73.1191 162.696 73.1191 161.894C73.1191 161.096 72.9915 160.422 72.7363 159.87C72.4857 159.319 72.1097 158.899 71.6084 158.612C71.1117 158.325 70.4919 158.182 69.749 158.182H67.1787V156.814H69.8516C70.8542 156.814 71.7132 157.017 72.4287 157.423C73.1442 157.828 73.6934 158.412 74.0762 159.173C74.459 159.929 74.6504 160.836 74.6504 161.894C74.6504 162.955 74.4567 163.867 74.0693 164.628C73.6865 165.389 73.1283 165.975 72.3945 166.385C71.6654 166.795 70.7835 167 69.749 167ZM67.999 156.814V167H66.4404V156.814H67.999ZM76.5439 167V156.814H80.2969C81.0215 156.814 81.6208 156.933 82.0947 157.17C82.5687 157.407 82.9219 157.728 83.1543 158.134C83.3867 158.535 83.5029 158.986 83.5029 159.487C83.5029 159.911 83.4255 160.269 83.2705 160.561C83.1156 160.848 82.9059 161.08 82.6416 161.258C82.3818 161.431 82.0947 161.559 81.7803 161.641V161.743C82.1221 161.757 82.4548 161.866 82.7783 162.071C83.1019 162.272 83.3685 162.557 83.5781 162.926C83.7923 163.29 83.8994 163.735 83.8994 164.259C83.8994 164.774 83.7764 165.239 83.5303 165.653C83.2887 166.068 82.915 166.396 82.4092 166.638C81.9033 166.879 81.2539 167 80.4609 167H76.5439ZM78.1025 165.66H80.3037C81.0329 165.66 81.557 165.519 81.876 165.236C82.195 164.954 82.3545 164.603 82.3545 164.184C82.3545 163.855 82.2725 163.559 82.1084 163.295C81.9489 163.031 81.721 162.821 81.4248 162.666C81.1286 162.507 80.7754 162.427 80.3652 162.427H78.1025V165.66ZM78.1025 161.224H80.1465C80.4883 161.224 80.7982 161.158 81.0762 161.025C81.3542 160.893 81.5729 160.706 81.7324 160.465C81.8919 160.223 81.9717 159.941 81.9717 159.617C81.9717 159.198 81.8258 158.849 81.5342 158.571C81.2425 158.289 80.7936 158.147 80.1875 158.147H78.1025V161.224Z" fill="#111827"/>
<rect x="123.5" y="88.5" width="101" height="103" rx="3.5" fill="white"/>
<rect x="123.5" y="88.5" width="101" height="103" rx="3.5" stroke="#E4E4E7"/>
<path d="M172.275 111.151C172.275 111.163 172.425 111.444 172.613 111.794C172.8 112.138 172.931 112.432 172.913 112.451C172.894 112.463 172.369 112.663 171.75 112.882C171.125 113.107 170.631 113.294 170.638 113.301C170.644 113.307 171.35 113.382 172.2 113.463C173.225 113.557 173.763 113.626 173.8 113.669C173.831 113.701 174.069 114.082 174.325 114.507L174.788 115.282L174.869 115.088C174.913 114.988 175.056 114.644 175.181 114.338L175.413 113.782L176.644 113.651C177.319 113.576 177.919 113.519 177.981 113.519L178.088 113.476C178.088 113.457 177.631 113.269 177.069 113.057C176.513 112.851 176.05 112.669 176.05 112.663C176.05 112.657 176.169 112.363 176.319 112.007C176.463 111.651 176.575 111.351 176.569 111.344C176.556 111.332 176.081 111.476 175.519 111.657L174.5 111.994L173.406 111.563C172.331 111.138 172.275 111.119 172.275 111.151ZM179.063 114.844C177.756 115.363 176.681 115.794 176.675 115.807C176.663 115.819 177.638 116.213 178.838 116.688L181.013 117.544L181.244 117.451C183.669 116.507 185.869 115.632 185.862 115.619L181.494 113.901C181.45 113.907 180.363 114.326 179.063 114.844ZM166.525 114.338C165.269 114.469 164.219 114.832 163.775 115.294C163.469 115.607 163.419 115.876 163.613 116.201C163.894 116.688 164.819 117.094 166.094 117.301C166.669 117.401 168.35 117.382 168.931 117.282C170.294 117.044 171.181 116.607 171.388 116.057C171.463 115.851 171.463 115.826 171.388 115.626C171.181 115.094 170.313 114.651 169.025 114.426C168.375 114.319 167.163 114.276 166.525 114.338ZM189.856 115.851C189.794 115.932 189.562 116.119 189.337 116.269C188.675 116.694 187.825 117.082 182.519 119.369C178.788 120.969 177.838 121.394 176.55 122.013C175.119 122.694 174.525 122.888 173.806 122.888C173.163 122.888 172.775 122.776 171.575 122.244C171.094 122.032 169.125 121.207 167.206 120.407C158.8 116.913 158.644 116.838 158.194 116.351L158.007 116.144V119.438L158.219 119.644C158.425 119.844 159.119 120.263 159.363 120.332C159.432 120.351 159.888 120.538 160.382 120.751C160.875 120.963 163.288 121.976 165.744 123.001C169.806 124.694 170.731 125.082 172.119 125.688C172.85 126.013 173.256 126.094 173.95 126.069C174.456 126.05 174.606 126.019 175.05 125.869C175.338 125.775 175.831 125.563 176.15 125.4C177.206 124.869 178.481 124.307 183.563 122.119C188.344 120.057 188.969 119.769 189.487 119.413C190.019 119.032 190 119.126 190 117.288C190 116.407 189.994 115.688 189.987 115.688L189.856 115.851ZM173.119 118.001C171.163 118.301 169.544 118.557 169.513 118.569C169.469 118.582 174.388 120.651 174.594 120.707L176.844 117.476C176.838 117.432 176.844 117.426 173.119 118.001ZM189.887 121.276C189.844 121.351 189.637 121.526 189.444 121.669C188.806 122.107 187.85 122.544 182.038 125.044C178.694 126.488 177.644 126.95 176.65 127.432C175.038 128.213 174.65 128.338 173.788 128.338C173.119 128.332 172.706 128.225 171.819 127.825C170.963 127.432 170.006 127.032 166.169 125.438C159.475 122.663 158.707 122.313 158.232 121.857L158 121.638V124.888L158.263 125.138C158.688 125.538 158.644 125.513 165.819 128.5C168.45 129.594 170.931 130.638 171.331 130.819C172.388 131.294 172.694 131.407 173.113 131.494C174.088 131.694 174.813 131.532 176.394 130.763C177.425 130.263 178.681 129.707 181.725 128.394C187.512 125.9 188.937 125.257 189.362 124.976C189.512 124.869 189.719 124.701 189.819 124.588L190 124.388V122.763C190 121.869 189.994 121.138 189.987 121.138L189.887 121.276ZM189.831 126.6C189.45 127.082 188.681 127.45 182.713 130.019C178.819 131.7 177.631 132.225 176.35 132.832C175.006 133.469 174.563 133.607 173.788 133.607C173.256 133.607 172.719 133.482 172.125 133.219C170.731 132.607 169.813 132.219 165.744 130.525C161.119 128.6 159.638 127.969 159.144 127.725C158.682 127.494 158.213 127.163 158.107 126.994L158 126.838V128.494C158 130.394 157.969 130.25 158.475 130.594C159.038 130.969 159.875 131.344 165.432 133.65C169.313 135.263 170.713 135.85 171.4 136.163C172.806 136.794 173.181 136.894 173.969 136.85C174.688 136.819 175.156 136.663 176.4 136.069C177.694 135.45 178.65 135.019 182.881 133.2C188.756 130.669 189.394 130.363 189.837 129.85L189.994 129.675V128.057C189.994 127.163 189.987 126.432 189.981 126.432L189.831 126.6Z" fill="#111827"/>
<path d="M156.628 167V156.814H160.278C161.062 156.814 161.716 156.951 162.24 157.225C162.764 157.493 163.156 157.869 163.416 158.353C163.676 158.836 163.806 159.389 163.806 160.014C163.806 160.643 163.674 161.194 163.409 161.668C163.149 162.137 162.757 162.502 162.233 162.762C161.709 163.021 161.053 163.151 160.265 163.151H157.523V161.818H160.114C160.616 161.818 161.019 161.748 161.324 161.606C161.634 161.461 161.862 161.253 162.008 160.984C162.154 160.715 162.227 160.392 162.227 160.014C162.227 159.631 162.154 159.3 162.008 159.022C161.862 158.744 161.634 158.53 161.324 158.38C161.014 158.225 160.606 158.147 160.101 158.147H158.187V167H156.628ZM162.418 167L159.95 162.399H161.68L164.188 167H162.418ZM168.693 167.157C167.941 167.157 167.292 166.995 166.745 166.672C166.198 166.348 165.777 165.893 165.48 165.305C165.189 164.717 165.043 164.026 165.043 163.233C165.043 162.45 165.187 161.759 165.474 161.162C165.765 160.565 166.175 160.1 166.704 159.768C167.233 159.43 167.853 159.262 168.563 159.262C169.001 159.262 169.423 159.335 169.828 159.48C170.234 159.622 170.598 159.845 170.922 160.15C171.245 160.456 171.501 160.852 171.688 161.34C171.879 161.823 171.975 162.411 171.975 163.104V163.637H165.884V162.516H171.202L170.498 162.885C170.498 162.415 170.425 162.003 170.279 161.647C170.133 161.287 169.917 161.007 169.63 160.807C169.347 160.606 168.992 160.506 168.563 160.506C168.14 160.506 167.777 160.608 167.477 160.813C167.176 161.019 166.946 161.29 166.786 161.627C166.631 161.96 166.554 162.324 166.554 162.721V163.486C166.554 164.01 166.643 164.455 166.82 164.819C167.003 165.179 167.256 165.453 167.579 165.64C167.903 165.822 168.279 165.913 168.707 165.913C168.99 165.913 169.245 165.874 169.473 165.797C169.701 165.715 169.896 165.594 170.061 165.435C170.229 165.271 170.357 165.07 170.443 164.833L171.858 165.168C171.735 165.56 171.528 165.906 171.236 166.207C170.949 166.508 170.589 166.743 170.156 166.911C169.728 167.075 169.24 167.157 168.693 167.157ZM176.473 167.15C175.853 167.15 175.301 166.993 174.818 166.679C174.335 166.36 173.957 165.906 173.684 165.318C173.41 164.726 173.273 164.02 173.273 163.199C173.273 162.37 173.412 161.661 173.69 161.073C173.968 160.485 174.349 160.036 174.832 159.727C175.315 159.417 175.862 159.262 176.473 159.262C176.947 159.262 177.327 159.341 177.614 159.501C177.906 159.656 178.134 159.838 178.298 160.048C178.462 160.257 178.587 160.442 178.674 160.602H178.756V156.814H180.26V167H178.797V165.804H178.674C178.587 165.968 178.46 166.155 178.291 166.364C178.122 166.574 177.892 166.758 177.601 166.918C177.309 167.073 176.933 167.15 176.473 167.15ZM176.801 165.872C177.229 165.872 177.589 165.758 177.881 165.53C178.177 165.302 178.4 164.988 178.551 164.587C178.706 164.181 178.783 163.714 178.783 163.186C178.783 162.652 178.708 162.19 178.558 161.798C178.407 161.401 178.184 161.094 177.888 160.875C177.596 160.652 177.234 160.54 176.801 160.54C176.359 160.54 175.99 160.656 175.693 160.889C175.402 161.121 175.181 161.438 175.03 161.839C174.884 162.235 174.812 162.684 174.812 163.186C174.812 163.691 174.887 164.147 175.037 164.553C175.188 164.958 175.411 165.28 175.707 165.517C176.003 165.754 176.368 165.872 176.801 165.872ZM182.283 167V159.357H183.787V167H182.283ZM183.042 158.188C182.782 158.188 182.559 158.102 182.372 157.929C182.19 157.756 182.099 157.546 182.099 157.3C182.099 157.049 182.19 156.837 182.372 156.664C182.559 156.491 182.782 156.404 183.042 156.404C183.302 156.404 183.525 156.491 183.712 156.664C183.899 156.837 183.992 157.049 183.992 157.3C183.992 157.546 183.899 157.756 183.712 157.929C183.525 158.102 183.302 158.188 183.042 158.188ZM188.552 167.157C188 167.157 187.508 167.077 187.075 166.918C186.647 166.758 186.294 166.524 186.016 166.214C185.742 165.899 185.56 165.517 185.469 165.065L186.884 164.771C186.989 165.168 187.185 165.462 187.472 165.653C187.759 165.845 188.123 165.94 188.565 165.94C189.049 165.94 189.434 165.84 189.721 165.64C190.008 165.435 190.151 165.191 190.151 164.908C190.151 164.662 190.062 164.459 189.885 164.3C189.712 164.14 189.443 164.022 189.078 163.944L187.793 163.65C187.082 163.491 186.553 163.236 186.207 162.885C185.861 162.534 185.688 162.085 185.688 161.538C185.688 161.082 185.815 160.684 186.07 160.342C186.326 160 186.674 159.736 187.116 159.549C187.558 159.357 188.069 159.262 188.647 159.262C189.199 159.262 189.671 159.341 190.062 159.501C190.454 159.66 190.771 159.884 191.013 160.171C191.259 160.458 191.434 160.791 191.539 161.169L190.192 161.463C190.097 161.194 189.93 160.959 189.693 160.759C189.456 160.554 189.112 160.451 188.661 160.451C188.246 160.451 187.9 160.545 187.622 160.731C187.344 160.918 187.205 161.155 187.205 161.442C187.205 161.698 187.296 161.905 187.479 162.064C187.665 162.219 187.968 162.345 188.388 162.44L189.618 162.714C190.325 162.873 190.849 163.124 191.19 163.466C191.532 163.808 191.703 164.245 191.703 164.778C191.703 165.243 191.569 165.656 191.3 166.016C191.035 166.371 190.666 166.651 190.192 166.856C189.723 167.057 189.176 167.157 188.552 167.157Z" fill="#111827"/>
<rect x="245.5" y="88.5" width="101" height="103" rx="3.5" fill="white"/>
<rect x="245.5" y="88.5" width="101" height="103" rx="3.5" stroke="#E4E4E7"/>
<path fill-rule="evenodd" clip-rule="evenodd" d="M305.018 131.289C305.015 131.314 305.013 131.335 305.011 131.354C304.928 134.695 304.39 136.614 303.547 137.809C302.58 139.195 301.374 139.562 300.019 139.852C296.533 140.597 295.799 138.352 295.39 137.09C295.382 137.067 295.374 137.046 295.367 137.025C295.351 136.978 295.335 136.934 295.318 136.888C295.142 136.407 295.028 135.802 294.95 135.119C294.878 134.468 294.842 133.795 294.816 133.118C294.81 133.004 294.806 132.863 294.801 132.711C294.798 132.599 294.794 132.481 294.79 132.362C294.785 132.166 294.795 131.98 294.811 131.809C294.424 131.981 294.018 132.102 293.6 132.171C292.535 132.352 291.578 132.182 291.004 132.037C290.523 131.918 289.912 131.638 289.535 131.281C289.473 131.224 289.411 131.157 289.359 131.095C289.038 131.359 288.707 131.545 288.371 131.664C287.12 132.114 286.018 131.644 285.061 130.578C284.368 129.813 283.747 128.685 283.199 127.387C281.616 123.632 280.571 118.216 280.504 116.882C279.945 105.719 289.985 108.388 292.721 109.319C293.201 109.033 293.716 108.809 294.252 108.652C294.997 108.43 295.825 108.311 296.74 108.326C297.206 108.332 297.666 108.363 298.132 108.409C298.454 108.444 298.775 108.491 299.094 108.549C300.211 108.228 302.828 107.654 305.456 108.28C307.256 108.709 309.097 109.661 310.587 111.559C311.57 112.816 311.559 115.676 310.649 118.966C309.992 121.345 308.885 124.03 307.38 126.528C307.716 126.445 308.249 126.332 309.092 126.156C309.749 126.021 310.261 126.068 310.634 126.249C311.28 126.559 311.559 127.071 311.513 127.739C311.492 128.08 311.353 128.416 311.125 128.737C310.747 129.249 309.925 129.895 308.947 130.351C308.471 130.568 307.856 130.739 307.22 130.847C306.578 130.956 305.911 131.002 305.337 130.976H305.28L305.057 130.956C305.052 131.007 305.047 131.059 305.037 131.116C305.03 131.189 305.023 131.245 305.018 131.289ZM304.949 126.823C304.364 126.988 303.526 127.294 303.614 128.99C303.573 129.492 303.417 130.904 303.242 132.28C303.097 133.407 302.942 134.545 302.833 135.197C302.678 136.086 302.435 136.728 301.995 137.178C301.561 137.633 300.899 137.933 299.921 138.145C298.804 138.383 298.1 138.15 297.645 137.762C297.174 137.364 296.926 136.79 296.771 136.402C296.626 136.03 296.517 135.037 296.455 133.707C296.393 132.373 296.383 130.733 296.419 129.073C296.42 129.046 296.42 129.02 296.42 128.993C296.426 128.667 296.431 128.364 296.321 128.049C296.186 127.681 295.949 127.35 295.654 127.138C295.38 126.942 294.987 126.807 294.65 126.838C294.588 126.844 294.525 126.854 294.464 126.869C294.522 126.642 294.604 126.394 294.697 126.131C294.815 125.801 294.843 125.702 294.878 125.606C294.92 125.492 294.971 125.382 295.193 124.893C295.752 123.647 296.466 122.054 295.669 118.355C295.442 117.321 294.862 116.778 294.133 116.55C293.667 116.406 293.15 116.395 292.638 116.473C292.147 116.55 291.655 116.701 291.221 116.876C290.949 116.99 290.686 117.125 290.435 117.28C290.605 115.118 291.547 109.976 296.714 110.064C300.997 110.131 303.402 112.94 304.509 114.952C304.789 115.453 304.98 115.904 305.099 116.245L305.1 116.248C305.11 116.273 305.12 116.298 305.125 116.323C302.595 116.059 301.581 116.938 301.369 118.267C301.069 120.135 302.59 122.861 303.361 124.242C303.379 124.274 303.396 124.305 303.413 124.336C303.568 124.615 303.686 124.827 303.728 124.93C304.033 125.669 304.411 126.145 304.711 126.512C304.73 126.537 304.749 126.561 304.767 126.584C304.837 126.673 304.899 126.753 304.949 126.823ZM293.895 128.54C293.347 129.239 293.176 129.45 291.474 129.802C291.169 129.864 290.962 129.931 290.838 129.994C290.993 130.102 291.231 130.2 291.438 130.252C291.857 130.356 292.555 130.485 293.295 130.356C294.024 130.232 294.805 129.859 295.442 128.975C295.571 128.794 295.545 128.546 295.478 128.344C295.405 128.147 295.281 127.971 295.137 127.868C295.028 127.79 294.852 127.723 294.728 127.733C294.651 127.738 294.579 127.771 294.526 127.826C294.302 128.052 294.091 128.29 293.895 128.54ZM290.59 126.187C290.713 126.32 290.844 126.446 290.983 126.564C290.153 127.448 289.351 128.357 288.578 129.29C288.293 129.631 288.024 129.838 287.776 129.926C287.321 130.092 286.85 129.843 286.39 129.331C285.836 128.716 285.314 127.759 284.843 126.642C283.343 123.088 282.355 117.993 282.293 116.747C281.869 108.202 289.643 110.1 292.048 110.892C289.385 113.509 289.503 118.19 289.509 118.226C289.504 118.323 289.511 118.442 289.52 118.594C289.521 118.62 289.523 118.648 289.524 118.676C289.571 119.405 289.654 120.807 289.436 122.364C289.381 122.743 289.373 123.127 289.411 123.507C289.509 124.547 289.943 125.478 290.59 126.187ZM305.29 114.523C304.452 112.992 302.921 111.042 300.485 109.966C301.654 109.728 303.536 109.521 305.424 110.064C306.754 110.452 308.088 111.213 309.18 112.604C309.811 113.416 309.692 115.671 308.926 118.439C308.264 120.844 307.106 123.59 305.518 126.089C305.483 126.048 305.447 126.003 305.412 125.958L305.409 125.954C305.394 125.939 305.378 125.918 305.362 125.897C306.283 124.387 306.107 122.928 305.942 121.558C305.874 121.02 305.812 120.502 305.828 120.011C305.848 119.517 305.91 119.094 305.97 118.687C305.972 118.668 305.975 118.649 305.978 118.63C306.066 118.081 306.144 117.559 306.123 116.923C306.123 116.915 306.124 116.907 306.125 116.9C306.127 116.892 306.128 116.884 306.128 116.876C306.154 116.726 306.097 116.385 305.942 115.951C305.766 115.457 305.548 114.979 305.29 114.523ZM290.413 118.485C290.408 118.397 290.404 118.309 290.404 118.221C290.409 118.2 290.905 117.973 291.557 117.704C291.935 117.554 292.354 117.419 292.768 117.357C293.161 117.3 293.544 117.3 293.869 117.404C294.299 117.538 294.651 117.88 294.79 118.542C295.53 121.961 294.883 123.398 294.376 124.526C294.118 125.094 294.041 125.313 293.944 125.589C293.92 125.657 293.895 125.728 293.865 125.808C293.757 126.105 293.663 126.389 293.595 126.662L293.586 126.662C293.454 126.657 293.318 126.652 293.187 126.631C292.442 126.528 291.764 126.145 291.252 125.581C290.707 124.986 290.373 124.228 290.3 123.424C290.269 123.125 290.275 122.809 290.321 122.488C290.554 120.828 290.466 119.374 290.419 118.624C290.417 118.578 290.415 118.532 290.413 118.485ZM294.133 117.999C293.836 117.839 293.387 117.778 293.057 117.849C292.827 117.906 292.728 118.019 292.721 118.153C292.714 118.287 292.798 118.443 292.933 118.588C293.073 118.733 293.269 118.862 293.492 118.893H293.497C293.724 118.925 293.937 118.847 294.092 118.743C294.257 118.63 294.366 118.474 294.381 118.366C294.397 118.226 294.304 118.097 294.133 117.999ZM302.248 118.407C302.388 117.533 303.179 116.974 305.228 117.228C305.223 117.678 305.161 118.081 305.093 118.5L305.086 118.546C305.021 118.983 304.953 119.44 304.933 119.985C304.918 120.517 304.982 121.065 305.048 121.627L305.052 121.661C305.186 122.768 305.326 123.937 304.788 125.075C304.705 124.93 304.628 124.764 304.55 124.588C304.483 124.428 304.338 124.159 304.141 123.812C303.417 122.514 302 119.969 302.248 118.407ZM305.401 127.623C305.429 127.614 305.456 127.607 305.481 127.599C306.535 128.394 308.298 128.066 309.463 127.849L309.474 127.847C309.195 128.116 308.74 128.421 308.197 128.675C307.669 128.917 306.842 129.083 306.066 129.129C305.621 129.15 305.202 129.14 304.886 129.073C304.685 129.036 304.55 128.995 304.509 128.954C304.457 127.893 304.944 127.755 305.255 127.667L305.259 127.666C305.307 127.65 305.355 127.636 305.401 127.623ZM304.204 118.237C304.333 118.102 304.411 117.942 304.395 117.849C304.379 117.74 304.276 117.662 304.116 117.626C303.977 117.59 303.79 117.585 303.594 117.611C303.397 117.642 303.221 117.698 303.097 117.766C302.948 117.851 302.888 117.947 302.89 118.042C302.892 118.182 303.027 118.321 303.211 118.423C303.367 118.507 303.523 118.537 303.673 118.52C303.866 118.499 304.047 118.399 304.204 118.237ZM309.267 126.978C306.924 127.464 306.226 127.159 306.019 126.962C307.783 124.283 309.066 121.283 309.785 118.676C310.623 115.645 310.69 113.09 309.883 112.055C308.657 110.493 307.162 109.64 305.673 109.21C303.417 108.559 301.193 108.879 299.978 109.164C299.956 109.169 299.935 109.173 299.915 109.178C299.851 109.192 299.797 109.204 299.75 109.215C299.724 109.226 299.264 109.355 298.938 109.443C298.26 109.277 297.521 109.179 296.729 109.169C295.095 109.143 293.833 109.557 292.855 110.224C291.21 109.614 280.871 106.195 281.398 116.788C281.466 118.076 282.479 123.336 284.021 126.988C284.533 128.198 285.102 129.238 285.722 129.931C286.436 130.717 287.217 131.074 288.071 130.769C288.474 130.624 288.878 130.335 289.265 129.864C290.357 128.55 291.355 127.469 291.727 127.076C292.143 127.3 292.595 127.449 293.062 127.516C293.208 127.536 293.355 127.548 293.502 127.552C293.502 127.573 293.502 127.593 293.507 127.614C293.398 127.735 293.292 127.859 293.191 127.986C292.798 128.488 292.674 128.643 291.298 128.928C290.678 129.057 290.305 129.228 290.104 129.419C289.891 129.616 289.824 129.838 289.855 130.066C289.886 130.262 289.99 130.433 290.145 130.578C290.409 130.826 290.859 131.028 291.221 131.121C291.717 131.245 292.545 131.395 293.45 131.24C294.133 131.121 294.852 130.831 295.503 130.242C295.493 131.504 295.514 132.719 295.56 133.749C295.627 135.161 295.752 136.263 295.943 136.733C296.135 137.209 296.435 137.918 297.066 138.45C297.707 138.989 298.659 139.33 300.107 139.02C301.266 138.771 302.067 138.393 302.641 137.799C303.216 137.204 303.526 136.418 303.712 135.347C303.821 134.716 303.981 133.558 304.126 132.388C304.245 131.457 304.354 130.537 304.426 129.88C304.514 129.906 304.612 129.931 304.71 129.952C305.109 130.03 305.6 130.05 306.112 130.025C306.986 129.973 307.943 129.776 308.569 129.487C309.412 129.094 310.1 128.566 310.4 128.152C310.53 127.971 310.607 127.795 310.617 127.624C310.638 127.345 310.519 127.133 310.25 127.004C310.043 126.906 309.723 126.885 309.267 126.978Z" fill="#111827"/>
<path d="M257.128 167V156.814H260.778C261.562 156.814 262.216 156.96 262.74 157.252C263.264 157.544 263.656 157.938 263.916 158.435C264.176 158.931 264.306 159.494 264.306 160.123C264.306 160.752 264.174 161.317 263.909 161.818C263.649 162.315 263.257 162.709 262.733 163.001C262.209 163.288 261.553 163.432 260.765 163.432H258.27V162.112H260.614C261.116 162.112 261.521 162.026 261.831 161.853C262.141 161.679 262.367 161.442 262.508 161.142C262.654 160.841 262.727 160.501 262.727 160.123C262.727 159.74 262.654 159.401 262.508 159.104C262.367 158.804 262.139 158.569 261.824 158.4C261.514 158.232 261.106 158.147 260.601 158.147H258.687V167H257.128ZM269.111 167.157C268.396 167.157 267.769 166.993 267.231 166.665C266.698 166.337 266.284 165.877 265.987 165.284C265.691 164.692 265.543 164.004 265.543 163.22C265.543 162.427 265.691 161.734 265.987 161.142C266.284 160.545 266.698 160.082 267.231 159.754C267.769 159.426 268.396 159.262 269.111 159.262C269.831 159.262 270.458 159.426 270.991 159.754C271.529 160.082 271.946 160.545 272.242 161.142C272.538 161.734 272.687 162.427 272.687 163.22C272.687 164.004 272.538 164.692 272.242 165.284C271.946 165.877 271.529 166.337 270.991 166.665C270.458 166.993 269.831 167.157 269.111 167.157ZM269.111 165.886C269.576 165.886 269.959 165.765 270.26 165.523C270.565 165.277 270.791 164.954 270.937 164.553C271.087 164.147 271.162 163.703 271.162 163.22C271.162 162.732 271.087 162.285 270.937 161.88C270.791 161.47 270.565 161.144 270.26 160.902C269.959 160.656 269.576 160.533 269.111 160.533C268.651 160.533 268.271 160.656 267.97 160.902C267.669 161.144 267.443 161.467 267.293 161.873C267.147 162.279 267.074 162.728 267.074 163.22C267.074 163.703 267.147 164.147 267.293 164.553C267.443 164.954 267.669 165.277 267.97 165.523C268.271 165.765 268.651 165.886 269.111 165.886ZM277.103 167.157C276.551 167.157 276.059 167.077 275.626 166.918C275.198 166.758 274.844 166.524 274.566 166.214C274.293 165.899 274.111 165.517 274.02 165.065L275.435 164.771C275.539 165.168 275.735 165.462 276.022 165.653C276.31 165.845 276.674 165.94 277.116 165.94C277.599 165.94 277.984 165.84 278.271 165.64C278.559 165.435 278.702 165.191 278.702 164.908C278.702 164.662 278.613 164.459 278.436 164.3C278.262 164.14 277.993 164.022 277.629 163.944L276.344 163.65C275.633 163.491 275.104 163.236 274.758 162.885C274.411 162.534 274.238 162.085 274.238 161.538C274.238 161.082 274.366 160.684 274.621 160.342C274.876 160 275.225 159.736 275.667 159.549C276.109 159.357 276.619 159.262 277.198 159.262C277.75 159.262 278.221 159.341 278.613 159.501C279.005 159.66 279.322 159.884 279.563 160.171C279.81 160.458 279.985 160.791 280.09 161.169L278.743 161.463C278.647 161.194 278.481 160.959 278.244 160.759C278.007 160.554 277.663 160.451 277.212 160.451C276.797 160.451 276.451 160.545 276.173 160.731C275.895 160.918 275.756 161.155 275.756 161.442C275.756 161.698 275.847 161.905 276.029 162.064C276.216 162.219 276.519 162.345 276.938 162.44L278.169 162.714C278.875 162.873 279.399 163.124 279.741 163.466C280.083 163.808 280.254 164.245 280.254 164.778C280.254 165.243 280.119 165.656 279.851 166.016C279.586 166.371 279.217 166.651 278.743 166.856C278.274 167.057 277.727 167.157 277.103 167.157ZM285.176 159.357V160.581H281.033V159.357H285.176ZM282.147 157.539H283.651V164.936C283.651 165.241 283.715 165.466 283.843 165.612C283.975 165.754 284.189 165.824 284.485 165.824C284.563 165.824 284.665 165.815 284.793 165.797C284.921 165.779 285.03 165.76 285.121 165.742L285.388 166.945C285.228 167 285.057 167.039 284.875 167.062C284.693 167.089 284.513 167.103 284.335 167.103C283.642 167.103 283.104 166.925 282.722 166.569C282.339 166.209 282.147 165.706 282.147 165.059V157.539ZM289.735 170.021C289.147 170.021 288.637 169.946 288.204 169.796C287.771 169.646 287.413 169.445 287.131 169.194C286.853 168.944 286.641 168.666 286.495 168.36L287.753 167.766C287.844 167.911 287.965 168.064 288.115 168.224C288.27 168.388 288.478 168.527 288.737 168.641C288.997 168.755 289.33 168.812 289.735 168.812C290.319 168.812 290.79 168.673 291.15 168.395C291.515 168.121 291.697 167.69 291.697 167.103V165.612H291.567C291.476 165.781 291.349 165.963 291.185 166.159C291.025 166.355 290.799 166.526 290.508 166.672C290.221 166.813 289.845 166.884 289.38 166.884C288.778 166.884 288.236 166.743 287.753 166.46C287.274 166.177 286.894 165.758 286.611 165.202C286.329 164.646 286.188 163.963 286.188 163.151C286.188 162.34 286.326 161.645 286.604 161.066C286.887 160.483 287.27 160.036 287.753 159.727C288.241 159.417 288.79 159.262 289.4 159.262C289.87 159.262 290.25 159.339 290.542 159.494C290.838 159.649 291.068 159.834 291.232 160.048C291.401 160.257 291.529 160.442 291.615 160.602H291.725V159.357H293.194V167.109C293.194 167.779 293.042 168.328 292.736 168.757C292.436 169.19 292.023 169.509 291.499 169.714C290.979 169.919 290.392 170.021 289.735 170.021ZM289.729 165.633C290.157 165.633 290.517 165.535 290.809 165.339C291.105 165.138 291.328 164.851 291.479 164.478C291.629 164.099 291.704 163.65 291.704 163.131C291.704 162.616 291.629 162.165 291.479 161.777C291.328 161.39 291.105 161.087 290.809 160.868C290.517 160.649 290.157 160.54 289.729 160.54C289.286 160.54 288.917 160.656 288.621 160.889C288.325 161.117 288.102 161.426 287.951 161.818C287.801 162.206 287.726 162.643 287.726 163.131C287.726 163.628 287.801 164.065 287.951 164.443C288.102 164.817 288.325 165.109 288.621 165.318C288.922 165.528 289.291 165.633 289.729 165.633ZM295.225 167V159.357H296.681V160.588H296.763C296.904 160.169 297.15 159.84 297.501 159.604C297.852 159.367 298.251 159.248 298.697 159.248C298.793 159.248 298.902 159.253 299.025 159.262C299.148 159.266 299.251 159.275 299.333 159.289V160.725C299.278 160.706 299.174 160.688 299.019 160.67C298.864 160.652 298.706 160.643 298.547 160.643C298.201 160.643 297.888 160.715 297.61 160.861C297.332 161.007 297.116 161.21 296.961 161.47C296.806 161.725 296.729 162.021 296.729 162.358V167H295.225ZM303.66 167.157C302.908 167.157 302.259 166.995 301.712 166.672C301.165 166.348 300.743 165.893 300.447 165.305C300.156 164.717 300.01 164.026 300.01 163.233C300.01 162.45 300.153 161.759 300.44 161.162C300.732 160.565 301.142 160.1 301.671 159.768C302.2 159.43 302.819 159.262 303.53 159.262C303.968 159.262 304.389 159.335 304.795 159.48C305.201 159.622 305.565 159.845 305.889 160.15C306.212 160.456 306.467 160.852 306.654 161.34C306.846 161.823 306.941 162.411 306.941 163.104V163.637H300.851V162.516H306.169L305.465 162.885C305.465 162.415 305.392 162.003 305.246 161.647C305.1 161.287 304.884 161.007 304.597 160.807C304.314 160.606 303.959 160.506 303.53 160.506C303.106 160.506 302.744 160.608 302.443 160.813C302.143 161.019 301.912 161.29 301.753 161.627C301.598 161.96 301.521 162.324 301.521 162.721V163.486C301.521 164.01 301.609 164.455 301.787 164.819C301.969 165.179 302.222 165.453 302.546 165.64C302.869 165.822 303.245 165.913 303.674 165.913C303.956 165.913 304.212 165.874 304.439 165.797C304.667 165.715 304.863 165.594 305.027 165.435C305.196 165.271 305.324 165.07 305.41 164.833L306.825 165.168C306.702 165.56 306.495 165.906 306.203 166.207C305.916 166.508 305.556 166.743 305.123 166.911C304.695 167.075 304.207 167.157 303.66 167.157ZM312.13 167.171C311.369 167.171 310.708 167.05 310.147 166.809C309.587 166.567 309.147 166.223 308.828 165.776C308.514 165.325 308.34 164.79 308.309 164.17H309.874C309.906 164.539 310.024 164.844 310.229 165.086C310.439 165.327 310.71 165.507 311.043 165.626C311.376 165.744 311.736 165.804 312.123 165.804C312.556 165.804 312.939 165.738 313.271 165.605C313.609 165.469 313.875 165.277 314.071 165.031C314.267 164.781 314.365 164.491 314.365 164.163C314.365 163.867 314.279 163.625 314.105 163.438C313.937 163.247 313.707 163.09 313.415 162.967C313.128 162.839 312.8 162.728 312.431 162.632L311.241 162.304C310.407 162.08 309.756 161.75 309.286 161.312C308.821 160.875 308.589 160.308 308.589 159.61C308.589 159.022 308.746 158.51 309.061 158.072C309.38 157.63 309.81 157.288 310.353 157.047C310.899 156.801 311.515 156.678 312.198 156.678C312.896 156.678 313.508 156.801 314.037 157.047C314.57 157.288 314.987 157.621 315.288 158.045C315.593 158.469 315.753 158.952 315.767 159.494H314.249C314.199 159.029 313.982 158.669 313.6 158.414C313.221 158.159 312.743 158.031 312.164 158.031C311.754 158.031 311.396 158.095 311.091 158.223C310.79 158.35 310.555 158.528 310.387 158.756C310.223 158.979 310.141 159.234 310.141 159.521C310.141 159.845 310.239 160.107 310.435 160.308C310.635 160.504 310.877 160.661 311.159 160.779C311.446 160.893 311.72 160.984 311.979 161.053L312.971 161.312C313.294 161.395 313.627 161.506 313.969 161.647C314.315 161.784 314.634 161.964 314.926 162.188C315.217 162.406 315.452 162.68 315.63 163.008C315.812 163.331 315.903 163.723 315.903 164.184C315.903 164.758 315.755 165.271 315.459 165.722C315.163 166.173 314.732 166.528 314.167 166.788C313.606 167.043 312.927 167.171 312.13 167.171ZM321.509 163.712H323.006L324.079 165.106L324.551 165.701L326.246 167.923H324.694L323.566 166.446L323.19 165.92L321.509 163.712ZM322.008 167.137C321.128 167.137 320.34 166.929 319.643 166.515C318.95 166.095 318.403 165.496 318.002 164.717C317.605 163.933 317.407 162.999 317.407 161.914C317.407 160.825 317.605 159.891 318.002 159.111C318.403 158.327 318.95 157.726 319.643 157.307C320.34 156.887 321.128 156.678 322.008 156.678C322.887 156.678 323.671 156.887 324.359 157.307C325.052 157.726 325.597 158.327 325.993 159.111C326.394 159.891 326.595 160.825 326.595 161.914C326.595 162.999 326.394 163.933 325.993 164.717C325.597 165.496 325.052 166.095 324.359 166.515C323.671 166.929 322.887 167.137 322.008 167.137ZM322.008 165.715C322.587 165.715 323.104 165.571 323.56 165.284C324.02 164.993 324.382 164.564 324.646 163.999C324.915 163.429 325.05 162.734 325.05 161.914C325.05 161.085 324.915 160.387 324.646 159.822C324.382 159.253 324.02 158.824 323.56 158.537C323.104 158.245 322.587 158.1 322.008 158.1C321.424 158.1 320.903 158.245 320.442 158.537C319.982 158.829 319.618 159.259 319.349 159.829C319.084 160.394 318.952 161.089 318.952 161.914C318.952 162.734 319.084 163.427 319.349 163.992C319.618 164.557 319.982 164.986 320.442 165.277C320.903 165.569 321.424 165.715 322.008 165.715ZM328.522 167V156.814H330.081V165.66H334.695V167H328.522Z" fill="#111827"/>
<rect x="1.5" y="216.5" width="101" height="103" rx="3.5" fill="white"/>
<rect x="1.5" y="216.5" width="101" height="103" rx="3.5" stroke="#E4E4E7"/>
<path d="M62.0001 255.5C62.0001 256.826 61.3014 257.476 60 257.499V257.5H44V257.499C42.6986 257.476 42 256.826 42 255.5C42 254.174 42.6986 253.524 44 253.501V253.5H60V253.501C61.3014 253.524 62.0001 254.174 62.0001 255.5ZM60 258.501V258.5H44V258.501C42.6986 258.524 42 259.174 42 260.5C42 261.826 42.6986 262.476 44 262.499V262.5H60V262.499C61.3013 262.476 62.0001 261.826 62.0001 260.5C62.0001 259.174 61.3014 258.524 60 258.501ZM65.0001 247.502V247.501C63.6987 247.524 63 248.174 63 249.5V260.5C63 261.826 63.6986 262.476 65.0001 262.499V262.497C66.952 262.428 68 260.478 68 256.5V251.5C68.0001 248.848 66.952 247.548 65.0001 247.502ZM39 247.501V247.502C37.048 247.548 36 248.848 36 251.5V256.5C36 260.478 37.048 262.428 39 262.497V262.499C40.3014 262.476 40.9999 261.826 40.9999 260.5V249.5C40.9999 248.174 40.3014 247.524 39 247.501ZM65.0001 246.5C65.0001 243.185 63.2533 241.56 60 241.503V241.5H44V241.503C40.7467 241.56 39 243.185 39 246.5V246.502C40.952 246.536 42 247.511 42 249.5C42 251.489 43.048 252.464 45 252.498V252.5H59V252.498C60.9521 252.464 62.0001 251.489 62.0001 249.5C62.0001 247.511 63.048 246.536 65.0001 246.502V246.5Z" fill="#111827"/>
<path d="M25.8594 295.137C24.9798 295.137 24.1937 294.929 23.501 294.515C22.8083 294.095 22.2637 293.496 21.8672 292.717C21.4707 291.933 21.2725 290.999 21.2725 289.914C21.2725 288.825 21.4707 287.891 21.8672 287.111C22.2637 286.327 22.8083 285.726 23.501 285.307C24.1937 284.887 24.9798 284.678 25.8594 284.678C26.3971 284.678 26.9007 284.755 27.3701 284.91C27.8441 285.065 28.2656 285.291 28.6348 285.587C29.0085 285.883 29.3161 286.243 29.5576 286.667C29.8037 287.091 29.9701 287.572 30.0566 288.109H28.4912C28.4274 287.786 28.3135 287.501 28.1494 287.255C27.9899 287.004 27.7939 286.792 27.5615 286.619C27.3291 286.446 27.0693 286.316 26.7822 286.229C26.4951 286.143 26.1921 286.1 25.873 286.1C25.2897 286.1 24.7656 286.248 24.3008 286.544C23.8405 286.836 23.4782 287.266 23.2139 287.836C22.9495 288.401 22.8174 289.094 22.8174 289.914C22.8174 290.734 22.9518 291.429 23.2207 291.999C23.4896 292.564 23.8542 292.993 24.3145 293.284C24.7747 293.571 25.2943 293.715 25.873 293.715C26.1921 293.715 26.4928 293.672 26.7754 293.585C27.0625 293.494 27.3223 293.364 27.5547 293.195C27.7917 293.022 27.9899 292.81 28.1494 292.56C28.3135 292.309 28.4274 292.024 28.4912 291.705H30.0635C29.986 292.206 29.8288 292.667 29.5918 293.086C29.3548 293.501 29.0518 293.863 28.6826 294.173C28.3135 294.483 27.8896 294.722 27.4111 294.891C26.9372 295.055 26.4199 295.137 25.8594 295.137ZM34.9922 295.157C34.2767 295.157 33.6501 294.993 33.1123 294.665C32.5791 294.337 32.1644 293.877 31.8682 293.284C31.5719 292.692 31.4238 292.004 31.4238 291.22C31.4238 290.427 31.5719 289.734 31.8682 289.142C32.1644 288.545 32.5791 288.082 33.1123 287.754C33.6501 287.426 34.2767 287.262 34.9922 287.262C35.7122 287.262 36.3389 287.426 36.8721 287.754C37.4098 288.082 37.8268 288.545 38.123 289.142C38.4193 289.734 38.5674 290.427 38.5674 291.22C38.5674 292.004 38.4193 292.692 38.123 293.284C37.8268 293.877 37.4098 294.337 36.8721 294.665C36.3389 294.993 35.7122 295.157 34.9922 295.157ZM34.9922 293.886C35.457 293.886 35.8398 293.765 36.1406 293.523C36.446 293.277 36.6715 292.954 36.8174 292.553C36.9678 292.147 37.043 291.703 37.043 291.22C37.043 290.732 36.9678 290.285 36.8174 289.88C36.6715 289.47 36.446 289.144 36.1406 288.902C35.8398 288.656 35.457 288.533 34.9922 288.533C34.5319 288.533 34.1514 288.656 33.8506 288.902C33.5498 289.144 33.3242 289.467 33.1738 289.873C33.028 290.279 32.9551 290.728 32.9551 291.22C32.9551 291.703 33.028 292.147 33.1738 292.553C33.3242 292.954 33.5498 293.277 33.8506 293.523C34.1514 293.765 34.5319 293.886 34.9922 293.886ZM42.8467 295.096C42.3271 295.096 41.8714 294.986 41.4795 294.768C41.0876 294.549 40.7822 294.225 40.5635 293.797C40.3493 293.368 40.2422 292.84 40.2422 292.211V287.357H41.7461V292.026C41.7461 292.578 41.8896 293.008 42.1768 293.318C42.4684 293.628 42.8626 293.783 43.3594 293.783C43.7012 293.783 44.0042 293.71 44.2686 293.564C44.5374 293.414 44.7493 293.198 44.9043 292.915C45.0592 292.628 45.1367 292.284 45.1367 291.883V287.357H46.6406V295H45.2051L45.1982 293.127H45.3418C45.1185 293.82 44.7926 294.321 44.3643 294.631C43.9359 294.941 43.43 295.096 42.8467 295.096ZM51.877 295.157C51.1569 295.157 50.5303 294.993 49.9971 294.665C49.4639 294.337 49.0492 293.877 48.7529 293.284C48.4567 292.692 48.3086 292.004 48.3086 291.22C48.3086 290.427 48.4567 289.734 48.7529 289.142C49.0492 288.545 49.4639 288.082 49.9971 287.754C50.5303 287.426 51.1569 287.262 51.877 287.262C52.2734 287.262 52.6449 287.314 52.9912 287.419C53.3376 287.519 53.6497 287.667 53.9277 287.863C54.2103 288.055 54.4473 288.292 54.6387 288.574C54.8346 288.852 54.9805 289.167 55.0762 289.518L53.6475 289.859C53.5973 289.663 53.5199 289.486 53.415 289.326C53.3102 289.162 53.1826 289.021 53.0322 288.902C52.8864 288.784 52.7155 288.693 52.5195 288.629C52.3281 288.565 52.1162 288.533 51.8838 288.533C51.4235 288.533 51.0407 288.656 50.7354 288.902C50.4346 289.144 50.209 289.467 50.0586 289.873C49.9128 290.279 49.8398 290.728 49.8398 291.22C49.8398 291.707 49.9128 292.154 50.0586 292.56C50.209 292.961 50.4346 293.282 50.7354 293.523C51.0407 293.765 51.4235 293.886 51.8838 293.886C52.1208 293.886 52.3372 293.854 52.5332 293.79C52.7292 293.722 52.9046 293.628 53.0596 293.51C53.2145 293.387 53.3444 293.241 53.4492 293.072C53.554 292.899 53.6292 292.71 53.6748 292.505L55.0967 292.847C55.0055 293.207 54.862 293.53 54.666 293.817C54.4701 294.1 54.2308 294.341 53.9482 294.542C53.6702 294.743 53.3558 294.895 53.0049 295C52.654 295.105 52.278 295.157 51.877 295.157ZM58.248 290.475V295H56.7441V284.814H58.2344V289.23H58.0361C58.2594 288.547 58.583 288.048 59.0068 287.733C59.4307 287.419 59.9434 287.262 60.5449 287.262C61.0645 287.262 61.5179 287.371 61.9053 287.59C62.2972 287.809 62.6003 288.132 62.8145 288.561C63.0332 288.984 63.1426 289.513 63.1426 290.146V295H61.6387V290.331C61.6387 289.78 61.4951 289.349 61.208 289.039C60.9209 288.729 60.5267 288.574 60.0254 288.574C59.6882 288.574 59.3851 288.649 59.1162 288.8C58.8473 288.946 58.6354 289.16 58.4805 289.442C58.3255 289.725 58.248 290.069 58.248 290.475ZM68.5908 295H66.0752V293.633H68.5088C69.279 293.633 69.9193 293.489 70.4297 293.202C70.9401 292.915 71.3229 292.493 71.5781 291.938C71.8333 291.377 71.9609 290.696 71.9609 289.894C71.9609 289.096 71.8333 288.422 71.5781 287.87C71.3275 287.319 70.9515 286.899 70.4502 286.612C69.9535 286.325 69.3337 286.182 68.5908 286.182H66.0205V284.814H68.6934C69.696 284.814 70.555 285.017 71.2705 285.423C71.986 285.828 72.5352 286.412 72.918 287.173C73.3008 287.929 73.4922 288.836 73.4922 289.894C73.4922 290.955 73.2985 291.867 72.9111 292.628C72.5283 293.389 71.9701 293.975 71.2363 294.385C70.5072 294.795 69.6253 295 68.5908 295ZM66.8408 284.814V295H65.2822V284.814H66.8408ZM75.3857 295V284.814H79.1387C79.8633 284.814 80.4626 284.933 80.9365 285.17C81.4105 285.407 81.7637 285.728 81.9961 286.134C82.2285 286.535 82.3447 286.986 82.3447 287.487C82.3447 287.911 82.2673 288.269 82.1123 288.561C81.9574 288.848 81.7477 289.08 81.4834 289.258C81.2236 289.431 80.9365 289.559 80.6221 289.641V289.743C80.9639 289.757 81.2965 289.866 81.6201 290.071C81.9437 290.272 82.2103 290.557 82.4199 290.926C82.6341 291.29 82.7412 291.735 82.7412 292.259C82.7412 292.774 82.6182 293.239 82.3721 293.653C82.1305 294.068 81.7568 294.396 81.251 294.638C80.7451 294.879 80.0957 295 79.3027 295H75.3857ZM76.9443 293.66H79.1455C79.8747 293.66 80.3988 293.519 80.7178 293.236C81.0368 292.954 81.1963 292.603 81.1963 292.184C81.1963 291.855 81.1143 291.559 80.9502 291.295C80.7907 291.031 80.5628 290.821 80.2666 290.666C79.9704 290.507 79.6172 290.427 79.207 290.427H76.9443V293.66ZM76.9443 289.224H78.9883C79.3301 289.224 79.64 289.158 79.918 289.025C80.196 288.893 80.4147 288.706 80.5742 288.465C80.7337 288.223 80.8135 287.941 80.8135 287.617C80.8135 287.198 80.6676 286.849 80.376 286.571C80.0843 286.289 79.6354 286.147 79.0293 286.147H76.9443V289.224Z" fill="#111827"/>
<rect x="123.5" y="216.5" width="101" height="103" rx="3.5" fill="white"/>
<rect x="123.5" y="216.5" width="101" height="103" rx="3.5" stroke="#E4E4E7"/>
<path d="M189.857 241.693C189.77 241.619 189.66 241.58 189.547 241.584C189.237 241.584 188.838 241.793 188.624 241.911L188.538 241.955C188.177 242.129 187.785 242.228 187.384 242.245C186.974 242.258 186.621 242.282 186.16 242.329C183.432 242.61 182.216 244.701 181.044 246.722C180.407 247.822 179.748 248.959 178.845 249.84C178.657 250.021 178.458 250.189 178.249 250.345C177.314 251.042 176.14 251.534 175.222 251.885C174.342 252.221 173.383 252.524 172.454 252.816C171.605 253.083 170.802 253.335 170.065 253.61C169.732 253.734 169.45 253.828 169.2 253.911C168.529 254.13 168.043 254.297 167.336 254.784C167.06 254.973 166.783 255.177 166.594 255.33C166.032 255.778 165.535 256.302 165.117 256.887C164.757 257.427 164.341 257.927 163.876 258.38C163.728 258.527 163.462 258.599 163.066 258.599C162.6 258.599 162.037 258.503 161.439 258.401C160.841 258.3 160.189 258.183 159.643 258.183C159.199 258.183 158.861 258.255 158.607 258.401C158.607 258.401 158.181 258.65 158 258.972L158.177 259.051C158.451 259.2 158.705 259.384 158.933 259.597C159.169 259.817 159.432 260.004 159.717 260.155C159.809 260.19 159.892 260.244 159.962 260.314C159.886 260.423 159.777 260.564 159.663 260.714C159.033 261.538 158.667 262.058 158.877 262.342C158.978 262.395 159.091 262.42 159.205 262.416C160.578 262.416 161.315 262.059 162.249 261.608C162.518 261.477 162.794 261.341 163.121 261.204C163.667 260.967 164.254 260.59 164.876 260.19C165.7 259.661 166.552 259.114 167.377 258.848C168.056 258.641 168.764 258.542 169.475 258.554C170.347 258.554 171.266 258.671 172.152 258.784C172.813 258.869 173.496 258.956 174.167 259.002C174.428 259.018 174.669 259.025 174.905 259.025C175.219 259.026 175.532 259.01 175.844 258.976L175.918 258.95C176.39 258.661 176.61 258.04 176.823 257.44C176.96 257.054 177.076 256.707 177.259 256.486C177.27 256.475 177.282 256.465 177.295 256.457C177.304 256.452 177.314 256.45 177.324 256.452C177.333 256.453 177.342 256.458 177.349 256.466C177.351 256.471 177.351 256.477 177.349 256.483C177.24 258.83 176.294 260.319 175.339 261.644L174.691 262.323C174.691 262.323 175.583 262.323 176.092 262.127C177.947 261.573 179.348 260.351 180.367 258.402C180.618 257.902 180.842 257.389 181.039 256.865C181.056 256.821 181.218 256.74 181.201 256.966C181.201 257.033 181.193 257.107 181.187 257.185C181.187 257.23 181.181 257.277 181.178 257.324C181.151 257.652 181.069 258.343 181.069 258.343L181.642 258.037C183.023 257.164 184.088 255.403 184.896 252.663C185.233 251.522 185.478 250.388 185.695 249.39C185.955 248.19 186.179 247.161 186.435 246.762C186.838 246.135 187.452 245.712 188.047 245.301C188.128 245.245 188.209 245.192 188.289 245.133C189.037 244.608 189.78 244.002 189.943 242.873V242.848C190.067 242.006 189.966 241.796 189.857 241.693Z" fill="#111827"/>
<path d="M143.628 295V284.814H145.925L148.146 290.659C148.21 290.832 148.281 291.051 148.358 291.315C148.44 291.58 148.525 291.867 148.611 292.177C148.698 292.487 148.78 292.792 148.857 293.093C148.935 293.394 149.003 293.665 149.062 293.906H148.734C148.794 293.678 148.862 293.416 148.939 293.12C149.017 292.819 149.099 292.514 149.186 292.204C149.272 291.894 149.356 291.603 149.438 291.329C149.521 291.056 149.593 290.832 149.657 290.659L151.845 284.814H154.155V295H152.604V289.518C152.604 289.308 152.606 289.057 152.61 288.766C152.615 288.474 152.619 288.166 152.624 287.843C152.633 287.515 152.64 287.184 152.645 286.852C152.654 286.519 152.66 286.2 152.665 285.895H152.781C152.69 286.227 152.59 286.571 152.48 286.927C152.376 287.278 152.271 287.617 152.166 287.945C152.066 288.273 151.968 288.574 151.872 288.848C151.781 289.117 151.703 289.34 151.64 289.518L149.555 295H148.222L146.109 289.518C146.041 289.344 145.961 289.126 145.87 288.861C145.784 288.592 145.688 288.296 145.583 287.973C145.478 287.645 145.371 287.305 145.262 286.954C145.152 286.599 145.043 286.245 144.934 285.895H145.07C145.079 286.173 145.086 286.476 145.091 286.804C145.1 287.127 145.107 287.455 145.111 287.788C145.12 288.121 145.127 288.438 145.132 288.738C145.141 289.035 145.146 289.294 145.146 289.518V295H143.628ZM159.132 295.15C158.517 295.15 157.967 294.993 157.484 294.679C157.006 294.36 156.628 293.906 156.35 293.318C156.076 292.726 155.939 292.02 155.939 291.199C155.939 290.37 156.078 289.661 156.356 289.073C156.639 288.485 157.022 288.036 157.505 287.727C157.993 287.417 158.542 287.262 159.152 287.262C159.622 287.262 160 287.339 160.287 287.494C160.579 287.649 160.804 287.834 160.964 288.048C161.128 288.257 161.253 288.442 161.34 288.602H161.436V287.357H162.926V295H161.442V293.804H161.34C161.253 293.968 161.126 294.157 160.957 294.371C160.788 294.581 160.558 294.763 160.267 294.918C159.975 295.073 159.597 295.15 159.132 295.15ZM159.48 293.872C159.909 293.872 160.269 293.758 160.561 293.53C160.857 293.302 161.08 292.988 161.23 292.587C161.381 292.181 161.456 291.714 161.456 291.186C161.456 290.652 161.381 290.19 161.23 289.798C161.08 289.401 160.857 289.094 160.561 288.875C160.269 288.652 159.909 288.54 159.48 288.54C159.038 288.54 158.669 288.656 158.373 288.889C158.077 289.117 157.854 289.431 157.703 289.832C157.553 290.229 157.478 290.68 157.478 291.186C157.478 291.691 157.553 292.147 157.703 292.553C157.854 292.958 158.077 293.28 158.373 293.517C158.674 293.754 159.043 293.872 159.48 293.872ZM164.949 295V287.357H166.405V288.588H166.487C166.629 288.169 166.875 287.84 167.226 287.604C167.576 287.367 167.975 287.248 168.422 287.248C168.518 287.248 168.627 287.253 168.75 287.262C168.873 287.266 168.976 287.275 169.058 287.289V288.725C169.003 288.706 168.898 288.688 168.743 288.67C168.588 288.652 168.431 288.643 168.271 288.643C167.925 288.643 167.613 288.715 167.335 288.861C167.057 289.007 166.84 289.21 166.686 289.47C166.531 289.725 166.453 290.021 166.453 290.358V295H164.949ZM170.541 295V287.357H172.045V295H170.541ZM171.3 286.188C171.04 286.188 170.817 286.102 170.63 285.929C170.448 285.756 170.356 285.546 170.356 285.3C170.356 285.049 170.448 284.837 170.63 284.664C170.817 284.491 171.04 284.404 171.3 284.404C171.56 284.404 171.783 284.491 171.97 284.664C172.157 284.837 172.25 285.049 172.25 285.3C172.25 285.546 172.157 285.756 171.97 285.929C171.783 286.102 171.56 286.188 171.3 286.188ZM176.905 295.15C176.29 295.15 175.741 294.993 175.258 294.679C174.779 294.36 174.401 293.906 174.123 293.318C173.85 292.726 173.713 292.02 173.713 291.199C173.713 290.37 173.852 289.661 174.13 289.073C174.412 288.485 174.795 288.036 175.278 287.727C175.766 287.417 176.315 287.262 176.926 287.262C177.395 287.262 177.773 287.339 178.061 287.494C178.352 287.649 178.578 287.834 178.737 288.048C178.901 288.257 179.027 288.442 179.113 288.602H179.209V287.357H180.699V295H179.216V293.804H179.113C179.027 293.968 178.899 294.157 178.73 294.371C178.562 294.581 178.332 294.763 178.04 294.918C177.748 295.073 177.37 295.15 176.905 295.15ZM177.254 293.872C177.682 293.872 178.042 293.758 178.334 293.53C178.63 293.302 178.854 292.988 179.004 292.587C179.154 292.181 179.229 291.714 179.229 291.186C179.229 290.652 179.154 290.19 179.004 289.798C178.854 289.401 178.63 289.094 178.334 288.875C178.042 288.652 177.682 288.54 177.254 288.54C176.812 288.54 176.443 288.656 176.146 288.889C175.85 289.117 175.627 289.431 175.477 289.832C175.326 290.229 175.251 290.68 175.251 291.186C175.251 291.691 175.326 292.147 175.477 292.553C175.627 292.958 175.85 293.28 176.146 293.517C176.447 293.754 176.816 293.872 177.254 293.872ZM189.88 295H187.364V293.633H189.798C190.568 293.633 191.208 293.489 191.719 293.202C192.229 292.915 192.612 292.493 192.867 291.938C193.122 291.377 193.25 290.696 193.25 289.894C193.25 289.096 193.122 288.422 192.867 287.87C192.617 287.319 192.241 286.899 191.739 286.612C191.243 286.325 190.623 286.182 189.88 286.182H187.31V284.814H189.982C190.985 284.814 191.844 285.017 192.56 285.423C193.275 285.828 193.824 286.412 194.207 287.173C194.59 287.929 194.781 288.836 194.781 289.894C194.781 290.955 194.588 291.867 194.2 292.628C193.817 293.389 193.259 293.975 192.525 294.385C191.796 294.795 190.914 295 189.88 295ZM188.13 284.814V295H186.571V284.814H188.13ZM196.675 295V284.814H200.428C201.152 284.814 201.752 284.933 202.226 285.17C202.7 285.407 203.053 285.728 203.285 286.134C203.518 286.535 203.634 286.986 203.634 287.487C203.634 287.911 203.556 288.269 203.401 288.561C203.246 288.848 203.037 289.08 202.772 289.258C202.513 289.431 202.226 289.559 201.911 289.641V289.743C202.253 289.757 202.586 289.866 202.909 290.071C203.233 290.272 203.499 290.557 203.709 290.926C203.923 291.29 204.03 291.735 204.03 292.259C204.03 292.774 203.907 293.239 203.661 293.653C203.42 294.068 203.046 294.396 202.54 294.638C202.034 294.879 201.385 295 200.592 295H196.675ZM198.233 293.66H200.435C201.164 293.66 201.688 293.519 202.007 293.236C202.326 292.954 202.485 292.603 202.485 292.184C202.485 291.855 202.403 291.559 202.239 291.295C202.08 291.031 201.852 290.821 201.556 290.666C201.259 290.507 200.906 290.427 200.496 290.427H198.233V293.66ZM198.233 289.224H200.277C200.619 289.224 200.929 289.158 201.207 289.025C201.485 288.893 201.704 288.706 201.863 288.465C202.023 288.223 202.103 287.941 202.103 287.617C202.103 287.198 201.957 286.849 201.665 286.571C201.373 286.289 200.924 286.147 200.318 286.147H198.233V289.224Z" fill="#111827"/>
<rect x="245.5" y="216.5" width="101" height="103" rx="3.5" fill="white"/>
<rect x="245.5" y="216.5" width="101" height="103" rx="3.5" stroke="#E4E4E7"/>
<path fill-rule="evenodd" clip-rule="evenodd" d="M291.406 238.02L295.573 236V243.231L291.406 244.146L291.406 238.02ZM284.176 262.411V241.272L282.368 242.226V261.457L284.176 262.411ZM307.825 262.411V241.272L309.632 242.226V261.457L307.825 262.411ZM295.573 260.631L291.406 259.753L291.406 266.017L295.573 267.862V260.631ZM290.653 242.678L285.13 241.222L285.08 262.511L290.603 261.055V258.896L296.226 257.892L301.498 258.946V261.055L306.921 262.511V241.222L301.498 242.728V245.088L295.975 246.142L290.653 245.038V242.678ZM300.745 248.502L296.577 248V255.783L300.745 255.18L300.745 248.502ZM291.406 248.502L295.573 248V255.783L291.406 255.18L291.406 248.502ZM296.578 236L300.745 238.02L300.745 244.284L296.578 243.369V236ZM300.745 259.753L296.578 260.631V268L300.745 266.017L300.745 259.753ZM295.987 244.099L293.362 244.716L295.961 245.385L298.638 244.768L295.987 244.099ZM293.362 259.264L295.987 258.647L298.638 259.316L295.961 259.933L293.362 259.264Z" fill="#111827"/>
<path d="M266.546 295.171C265.785 295.171 265.124 295.05 264.563 294.809C264.003 294.567 263.563 294.223 263.244 293.776C262.93 293.325 262.757 292.79 262.725 292.17H264.29C264.322 292.539 264.44 292.844 264.646 293.086C264.855 293.327 265.126 293.507 265.459 293.626C265.792 293.744 266.152 293.804 266.539 293.804C266.972 293.804 267.355 293.738 267.688 293.605C268.025 293.469 268.291 293.277 268.487 293.031C268.683 292.781 268.781 292.491 268.781 292.163C268.781 291.867 268.695 291.625 268.521 291.438C268.353 291.247 268.123 291.09 267.831 290.967C267.544 290.839 267.216 290.728 266.847 290.632L265.657 290.304C264.823 290.08 264.172 289.75 263.702 289.312C263.237 288.875 263.005 288.308 263.005 287.61C263.005 287.022 263.162 286.51 263.477 286.072C263.796 285.63 264.226 285.288 264.769 285.047C265.315 284.801 265.931 284.678 266.614 284.678C267.312 284.678 267.924 284.801 268.453 285.047C268.986 285.288 269.403 285.621 269.704 286.045C270.009 286.469 270.169 286.952 270.183 287.494H268.665C268.615 287.029 268.398 286.669 268.016 286.414C267.637 286.159 267.159 286.031 266.58 286.031C266.17 286.031 265.812 286.095 265.507 286.223C265.206 286.35 264.971 286.528 264.803 286.756C264.639 286.979 264.557 287.234 264.557 287.521C264.557 287.845 264.655 288.107 264.851 288.308C265.051 288.504 265.293 288.661 265.575 288.779C265.862 288.893 266.136 288.984 266.396 289.053L267.387 289.312C267.71 289.395 268.043 289.506 268.385 289.647C268.731 289.784 269.05 289.964 269.342 290.188C269.633 290.406 269.868 290.68 270.046 291.008C270.228 291.331 270.319 291.723 270.319 292.184C270.319 292.758 270.171 293.271 269.875 293.722C269.579 294.173 269.148 294.528 268.583 294.788C268.022 295.043 267.343 295.171 266.546 295.171ZM275.446 295.137C274.758 295.137 274.145 295.018 273.607 294.781C273.074 294.544 272.65 294.216 272.336 293.797C272.026 293.378 271.862 292.89 271.844 292.334H273.423C273.446 292.635 273.546 292.895 273.724 293.113C273.906 293.332 274.145 293.501 274.441 293.619C274.738 293.738 275.068 293.797 275.433 293.797C275.834 293.797 276.187 293.729 276.492 293.592C276.798 293.455 277.037 293.264 277.21 293.018C277.388 292.767 277.477 292.478 277.477 292.149C277.477 291.808 277.39 291.509 277.217 291.254C277.044 290.994 276.793 290.791 276.465 290.646C276.137 290.5 275.738 290.427 275.269 290.427H274.4V289.155H275.269C275.642 289.155 275.973 289.089 276.26 288.957C276.547 288.82 276.77 288.631 276.93 288.39C277.089 288.148 277.169 287.866 277.169 287.542C277.169 287.228 277.098 286.954 276.957 286.722C276.816 286.489 276.618 286.309 276.362 286.182C276.107 286.049 275.806 285.983 275.46 285.983C275.132 285.983 274.824 286.045 274.537 286.168C274.255 286.286 274.024 286.455 273.847 286.674C273.669 286.893 273.573 287.157 273.56 287.467H272.056C272.074 286.915 272.236 286.43 272.541 286.011C272.851 285.591 273.261 285.266 273.771 285.033C274.286 284.796 274.858 284.678 275.487 284.678C276.139 284.678 276.704 284.805 277.183 285.061C277.666 285.316 278.037 285.655 278.297 286.079C278.557 286.498 278.687 286.956 278.687 287.453C278.687 288.027 278.527 288.513 278.208 288.909C277.889 289.301 277.463 289.568 276.93 289.709V289.784C277.381 289.853 277.766 289.998 278.085 290.222C278.404 290.44 278.646 290.718 278.81 291.056C278.974 291.393 279.056 291.776 279.056 292.204C279.056 292.765 278.901 293.266 278.591 293.708C278.281 294.15 277.853 294.499 277.306 294.754C276.763 295.009 276.144 295.137 275.446 295.137ZM284.688 295V284.814H288.441C289.166 284.814 289.765 284.933 290.239 285.17C290.713 285.407 291.066 285.728 291.299 286.134C291.531 286.535 291.647 286.986 291.647 287.487C291.647 287.911 291.57 288.269 291.415 288.561C291.26 288.848 291.05 289.08 290.786 289.258C290.526 289.431 290.239 289.559 289.925 289.641V289.743C290.267 289.757 290.599 289.866 290.923 290.071C291.246 290.272 291.513 290.557 291.723 290.926C291.937 291.29 292.044 291.735 292.044 292.259C292.044 292.774 291.921 293.239 291.675 293.653C291.433 294.068 291.06 294.396 290.554 294.638C290.048 294.879 289.398 295 288.605 295H284.688ZM286.247 293.66H288.448C289.177 293.66 289.701 293.519 290.021 293.236C290.34 292.954 290.499 292.603 290.499 292.184C290.499 291.855 290.417 291.559 290.253 291.295C290.093 291.031 289.866 290.821 289.569 290.666C289.273 290.507 288.92 290.427 288.51 290.427H286.247V293.66ZM286.247 289.224H288.291C288.633 289.224 288.943 289.158 289.221 289.025C289.499 288.893 289.717 288.706 289.877 288.465C290.036 288.223 290.116 287.941 290.116 287.617C290.116 287.198 289.97 286.849 289.679 286.571C289.387 286.289 288.938 286.147 288.332 286.147H286.247V289.224ZM296.378 295.096C295.858 295.096 295.403 294.986 295.011 294.768C294.619 294.549 294.313 294.225 294.095 293.797C293.881 293.368 293.773 292.84 293.773 292.211V287.357H295.277V292.026C295.277 292.578 295.421 293.008 295.708 293.318C296 293.628 296.394 293.783 296.891 293.783C297.232 293.783 297.535 293.71 297.8 293.564C298.069 293.414 298.281 293.198 298.436 292.915C298.59 292.628 298.668 292.284 298.668 291.883V287.357H300.172V295H298.736L298.729 293.127H298.873C298.65 293.82 298.324 294.321 297.896 294.631C297.467 294.941 296.961 295.096 296.378 295.096ZM305.408 295.157C304.688 295.157 304.062 294.993 303.528 294.665C302.995 294.337 302.58 293.877 302.284 293.284C301.988 292.692 301.84 292.004 301.84 291.22C301.84 290.427 301.988 289.734 302.284 289.142C302.58 288.545 302.995 288.082 303.528 287.754C304.062 287.426 304.688 287.262 305.408 287.262C305.805 287.262 306.176 287.314 306.522 287.419C306.869 287.519 307.181 287.667 307.459 287.863C307.742 288.055 307.979 288.292 308.17 288.574C308.366 288.852 308.512 289.167 308.607 289.518L307.179 289.859C307.129 289.663 307.051 289.486 306.946 289.326C306.841 289.162 306.714 289.021 306.563 288.902C306.418 288.784 306.247 288.693 306.051 288.629C305.859 288.565 305.647 288.533 305.415 288.533C304.955 288.533 304.572 288.656 304.267 288.902C303.966 289.144 303.74 289.467 303.59 289.873C303.444 290.279 303.371 290.728 303.371 291.22C303.371 291.707 303.444 292.154 303.59 292.56C303.74 292.961 303.966 293.282 304.267 293.523C304.572 293.765 304.955 293.886 305.415 293.886C305.652 293.886 305.868 293.854 306.064 293.79C306.26 293.722 306.436 293.628 306.591 293.51C306.746 293.387 306.876 293.241 306.98 293.072C307.085 292.899 307.16 292.71 307.206 292.505L308.628 292.847C308.537 293.207 308.393 293.53 308.197 293.817C308.001 294.1 307.762 294.341 307.479 294.542C307.201 294.743 306.887 294.895 306.536 295C306.185 295.105 305.809 295.157 305.408 295.157ZM311.663 292.423V290.584H311.916L314.931 287.357H316.735L313.283 291.056H313.03L311.663 292.423ZM310.275 295V284.814H311.779V295H310.275ZM315.088 295L312.374 291.391L313.413 290.324L316.947 295H315.088ZM321.09 295.157C320.338 295.157 319.688 294.995 319.142 294.672C318.595 294.348 318.173 293.893 317.877 293.305C317.585 292.717 317.439 292.026 317.439 291.233C317.439 290.45 317.583 289.759 317.87 289.162C318.162 288.565 318.572 288.1 319.101 287.768C319.629 287.43 320.249 287.262 320.96 287.262C321.397 287.262 321.819 287.335 322.225 287.48C322.63 287.622 322.995 287.845 323.318 288.15C323.642 288.456 323.897 288.852 324.084 289.34C324.275 289.823 324.371 290.411 324.371 291.104V291.637H318.28V290.516H323.599L322.895 290.885C322.895 290.415 322.822 290.003 322.676 289.647C322.53 289.287 322.313 289.007 322.026 288.807C321.744 288.606 321.388 288.506 320.96 288.506C320.536 288.506 320.174 288.608 319.873 288.813C319.572 289.019 319.342 289.29 319.183 289.627C319.028 289.96 318.95 290.324 318.95 290.721V291.486C318.95 292.01 319.039 292.455 319.217 292.819C319.399 293.179 319.652 293.453 319.976 293.64C320.299 293.822 320.675 293.913 321.104 293.913C321.386 293.913 321.641 293.874 321.869 293.797C322.097 293.715 322.293 293.594 322.457 293.435C322.626 293.271 322.753 293.07 322.84 292.833L324.255 293.168C324.132 293.56 323.924 293.906 323.633 294.207C323.346 294.508 322.986 294.743 322.553 294.911C322.124 295.075 321.637 295.157 321.09 295.157ZM329.293 287.357V288.581H325.15V287.357H329.293ZM326.265 285.539H327.769V292.936C327.769 293.241 327.832 293.466 327.96 293.612C328.092 293.754 328.306 293.824 328.603 293.824C328.68 293.824 328.783 293.815 328.91 293.797C329.038 293.779 329.147 293.76 329.238 293.742L329.505 294.945C329.345 295 329.174 295.039 328.992 295.062C328.81 295.089 328.63 295.103 328.452 295.103C327.759 295.103 327.222 294.925 326.839 294.569C326.456 294.209 326.265 293.706 326.265 293.059V285.539Z" fill="#111827"/>
<defs>
<clipPath id="clip0_4654_79207">
<rect x="1" y="28" width="346" height="36" rx="4" fill="white"/>
</clipPath>
</defs>
</svg>
