<svg width="434" height="336" viewBox="0 0 434 336" fill="none" xmlns="http://www.w3.org/2000/svg">
<path d="M2.1875 17V6.81445H3.98535L7.82031 12.8779C7.94792 13.0785 8.09147 13.3177 8.25098 13.5957C8.41048 13.8737 8.5791 14.1882 8.75684 14.5391C8.93457 14.8854 9.11003 15.2637 9.2832 15.6738H9.0918C9.05078 15.2865 9.01888 14.9036 8.99609 14.5254C8.97786 14.1426 8.96419 13.7848 8.95508 13.4521C8.94596 13.1195 8.94141 12.8392 8.94141 12.6113V6.81445H10.5205V17H8.71582L5.27734 11.5791C5.09505 11.2829 4.91504 10.9844 4.7373 10.6836C4.56413 10.3828 4.37044 10.0365 4.15625 9.64453C3.94661 9.24805 3.68913 8.76725 3.38379 8.20215H3.62988C3.65267 8.70345 3.67546 9.17285 3.69824 9.61035C3.72103 10.0433 3.73698 10.4284 3.74609 10.7656C3.75977 11.0983 3.7666 11.3649 3.7666 11.5654V17H2.1875ZM15.5039 17.1504C14.8887 17.1504 14.3395 16.9932 13.8564 16.6787C13.3779 16.3597 12.9997 15.9062 12.7217 15.3184C12.4482 14.7259 12.3115 14.0195 12.3115 13.1992C12.3115 12.3698 12.4505 11.6611 12.7285 11.0732C13.0111 10.4854 13.3939 10.0365 13.877 9.72656C14.3646 9.41667 14.9137 9.26172 15.5244 9.26172C15.9938 9.26172 16.3721 9.33919 16.6592 9.49414C16.9508 9.64909 17.1764 9.83366 17.3359 10.0479C17.5 10.2575 17.6253 10.4421 17.7119 10.6016H17.8076V9.35742H19.2979V17H17.8145V15.8037H17.7119C17.6253 15.9678 17.4977 16.1569 17.3291 16.3711C17.1605 16.5807 16.9303 16.763 16.6387 16.918C16.347 17.0729 15.9688 17.1504 15.5039 17.1504ZM15.8525 15.8721C16.2809 15.8721 16.641 15.7581 16.9326 15.5303C17.2288 15.3024 17.4521 14.988 17.6025 14.5869C17.7529 14.1813 17.8281 13.7142 17.8281 13.1855C17.8281 12.6523 17.7529 12.1898 17.6025 11.7979C17.4521 11.4014 17.2288 11.0938 16.9326 10.875C16.641 10.6517 16.2809 10.54 15.8525 10.54C15.4105 10.54 15.0413 10.6562 14.7451 10.8887C14.4489 11.1165 14.2256 11.431 14.0752 11.832C13.9248 12.2285 13.8496 12.6797 13.8496 13.1855C13.8496 13.6914 13.9248 14.1471 14.0752 14.5527C14.2256 14.9583 14.4489 15.2796 14.7451 15.5166C15.0459 15.7536 15.415 15.8721 15.8525 15.8721ZM21.3213 17V9.35742H22.75L22.791 11.1279H22.6748C22.7842 10.695 22.9528 10.3395 23.1807 10.0615C23.4085 9.78353 23.6751 9.57617 23.9805 9.43945C24.2858 9.29818 24.6048 9.22754 24.9375 9.22754C25.4935 9.22754 25.9424 9.40072 26.2842 9.74707C26.626 10.0889 26.8561 10.5674 26.9746 11.1826H26.7832C26.8835 10.7633 27.0566 10.4079 27.3027 10.1162C27.5488 9.82454 27.8451 9.60352 28.1914 9.45312C28.5423 9.30273 28.916 9.22754 29.3125 9.22754C29.7637 9.22754 30.1715 9.32552 30.5361 9.52148C30.9053 9.71745 31.1969 10.0091 31.4111 10.3965C31.6253 10.7839 31.7324 11.2669 31.7324 11.8457V17H30.2217V11.9961C30.2217 11.4857 30.0804 11.1165 29.7979 10.8887C29.5153 10.6608 29.1803 10.5469 28.793 10.5469C28.4785 10.5469 28.2074 10.613 27.9795 10.7451C27.7516 10.8773 27.5762 11.0618 27.4531 11.2988C27.3301 11.5312 27.2686 11.8001 27.2686 12.1055V17H25.7852V11.9004C25.7852 11.4902 25.653 11.1621 25.3887 10.916C25.1289 10.6699 24.7962 10.5469 24.3906 10.5469C24.1126 10.5469 23.8529 10.613 23.6113 10.7451C23.3743 10.8727 23.1829 11.0641 23.0371 11.3193C22.8958 11.57 22.8252 11.8799 22.8252 12.249V17H21.3213ZM37.0576 17.1572C36.3057 17.1572 35.6562 16.9954 35.1094 16.6719C34.5625 16.3483 34.141 15.8926 33.8447 15.3047C33.5531 14.7168 33.4072 14.0264 33.4072 13.2334C33.4072 12.4495 33.5508 11.7591 33.8379 11.1621C34.1296 10.5651 34.5397 10.1003 35.0684 9.76758C35.597 9.43034 36.2168 9.26172 36.9277 9.26172C37.3652 9.26172 37.7868 9.33464 38.1924 9.48047C38.598 9.62174 38.9626 9.84505 39.2861 10.1504C39.6097 10.4557 39.8649 10.8522 40.0518 11.3398C40.2432 11.8229 40.3389 12.4108 40.3389 13.1035V13.6367H34.248V12.5156H39.5664L38.8623 12.8848C38.8623 12.4154 38.7894 12.0029 38.6436 11.6475C38.4977 11.2874 38.2812 11.0072 37.9941 10.8066C37.7116 10.6061 37.3561 10.5059 36.9277 10.5059C36.5039 10.5059 36.1416 10.6084 35.8408 10.8135C35.54 11.0186 35.3099 11.2897 35.1504 11.627C34.9954 11.9596 34.918 12.3242 34.918 12.7207V13.4863C34.918 14.0104 35.0068 14.4548 35.1846 14.8193C35.3669 15.1794 35.6198 15.4528 35.9434 15.6396C36.2669 15.8219 36.6429 15.9131 37.0713 15.9131C37.3538 15.9131 37.609 15.8743 37.8369 15.7969C38.0648 15.7148 38.2607 15.5941 38.4248 15.4346C38.5934 15.2705 38.721 15.07 38.8076 14.833L40.2227 15.168C40.0996 15.5599 39.8923 15.9062 39.6006 16.207C39.3135 16.5078 38.9535 16.7425 38.5205 16.9111C38.0921 17.0752 37.6045 17.1572 37.0576 17.1572Z" fill="#111827"/>
<g clip-path="url(#clip0_3945_120536)">
<rect x="1.05957" y="28" width="431.88" height="36" rx="4" fill="white"/>
<path d="M421.939 43.5L416.939 48.5L411.939 43.5" stroke="#111827" stroke-linecap="round" stroke-linejoin="round"/>
</g>
<rect x="1.05957" y="28" width="431.88" height="36" rx="4" stroke="#E4E4E7"/>
<rect x="1.55957" y="96.5" width="121.627" height="103" rx="3.5" fill="white"/>
<rect x="1.55957" y="96.5" width="121.627" height="103" rx="3.5" stroke="#E4E4E7"/>
<path d="M59.389 119.563C60.8317 117.962 62.0543 116.36 62.3232 116.017C62.3477 115.994 62.3966 115.994 62.421 116.017C62.6655 116.36 63.9126 117.962 65.3552 119.563C77.6788 134.273 63.4235 144.202 63.4235 144.202L63.3013 144.271C63.2035 145.804 62.9345 148 62.9345 148H62.3966H61.8587C61.8587 148 61.5897 145.804 61.4919 144.271L61.3696 144.179C61.3207 144.202 47.0655 134.273 59.389 119.563ZM62.3721 143.974C62.3721 143.974 63.0079 143.47 63.179 143.196V143.173L62.3966 127.159C62.3966 127.113 62.3232 127.113 62.3232 127.159L61.5408 143.173V143.196C61.7119 143.47 62.3721 143.974 62.3721 143.974Z" fill="#111827"/>
<path d="M30.0007 175V164.814H32.2976L34.5193 170.659C34.5831 170.832 34.6537 171.051 34.7312 171.315C34.8132 171.58 34.8975 171.867 34.9841 172.177C35.0707 172.487 35.1528 172.792 35.2302 173.093C35.3077 173.394 35.3761 173.665 35.4353 173.906H35.1072C35.1664 173.678 35.2348 173.416 35.3123 173.12C35.3897 172.819 35.4718 172.514 35.5583 172.204C35.6449 171.894 35.7292 171.603 35.8113 171.329C35.8933 171.056 35.9662 170.832 36.03 170.659L38.2175 164.814H40.5281V175H38.9763V169.518C38.9763 169.308 38.9786 169.057 38.9832 168.766C38.9877 168.474 38.9923 168.166 38.9968 167.843C39.0059 167.515 39.0128 167.184 39.0173 166.852C39.0264 166.519 39.0333 166.2 39.0378 165.895H39.1541C39.0629 166.227 38.9626 166.571 38.8533 166.927C38.7485 167.278 38.6436 167.617 38.5388 167.945C38.4386 168.273 38.3406 168.574 38.2449 168.848C38.1537 169.117 38.0763 169.34 38.0125 169.518L35.9275 175H34.5945L32.4822 169.518C32.4138 169.344 32.3341 169.126 32.2429 168.861C32.1563 168.592 32.0606 168.296 31.9558 167.973C31.851 167.645 31.7439 167.305 31.6345 166.954C31.5251 166.599 31.4158 166.245 31.3064 165.895H31.4431C31.4522 166.173 31.4591 166.476 31.4636 166.804C31.4727 167.127 31.4796 167.455 31.4841 167.788C31.4932 168.121 31.5001 168.438 31.5046 168.738C31.5138 169.035 31.5183 169.294 31.5183 169.518V175H30.0007ZM45.8806 175.157C45.1651 175.157 44.5385 174.993 44.0007 174.665C43.4675 174.337 43.0528 173.877 42.7566 173.284C42.4604 172.692 42.3123 172.004 42.3123 171.22C42.3123 170.427 42.4604 169.734 42.7566 169.142C43.0528 168.545 43.4675 168.082 44.0007 167.754C44.5385 167.426 45.1651 167.262 45.8806 167.262C46.6007 167.262 47.2273 167.426 47.7605 167.754C48.2983 168.082 48.7153 168.545 49.0115 169.142C49.3077 169.734 49.4558 170.427 49.4558 171.22C49.4558 172.004 49.3077 172.692 49.0115 173.284C48.7153 173.877 48.2983 174.337 47.7605 174.665C47.2273 174.993 46.6007 175.157 45.8806 175.157ZM45.8806 173.886C46.3455 173.886 46.7283 173.765 47.0291 173.523C47.3344 173.277 47.56 172.954 47.7058 172.553C47.8562 172.147 47.9314 171.703 47.9314 171.22C47.9314 170.732 47.8562 170.285 47.7058 169.88C47.56 169.47 47.3344 169.144 47.0291 168.902C46.7283 168.656 46.3455 168.533 45.8806 168.533C45.4203 168.533 45.0398 168.656 44.739 168.902C44.4382 169.144 44.2126 169.467 44.0623 169.873C43.9164 170.279 43.8435 170.728 43.8435 171.22C43.8435 171.703 43.9164 172.147 44.0623 172.553C44.2126 172.954 44.4382 173.277 44.739 173.523C45.0398 173.765 45.4203 173.886 45.8806 173.886ZM52.6345 170.475V175H51.1306V167.357H52.5662L52.5798 169.23H52.4226C52.6459 168.547 52.9695 168.048 53.3933 167.733C53.8171 167.419 54.3298 167.262 54.9314 167.262C55.4509 167.262 55.9044 167.371 56.2917 167.59C56.6791 167.809 56.9822 168.132 57.2009 168.561C57.4197 168.984 57.5291 169.513 57.5291 170.146V175H56.0251V170.331C56.0251 169.78 55.8816 169.349 55.5945 169.039C55.3074 168.729 54.9132 168.574 54.4119 168.574C54.0746 168.574 53.7716 168.649 53.5027 168.8C53.2338 168.946 53.0219 169.16 52.8669 169.442C52.712 169.725 52.6345 170.069 52.6345 170.475ZM62.7449 178.021C62.157 178.021 61.6466 177.946 61.2136 177.796C60.7807 177.646 60.4229 177.445 60.1404 177.194C59.8624 176.944 59.6505 176.666 59.5046 176.36L60.7625 175.766C60.8536 175.911 60.9744 176.064 61.1248 176.224C61.2797 176.388 61.4871 176.527 61.7468 176.641C62.0066 176.755 62.3393 176.812 62.7449 176.812C63.3282 176.812 63.7999 176.673 64.1599 176.395C64.5245 176.121 64.7068 175.69 64.7068 175.103V173.612H64.5769C64.4858 173.781 64.3582 173.963 64.1941 174.159C64.0346 174.355 63.809 174.526 63.5173 174.672C63.2302 174.813 62.8542 174.884 62.3894 174.884C61.7878 174.884 61.2455 174.743 60.7625 174.46C60.2839 174.177 59.9034 173.758 59.6208 173.202C59.3383 172.646 59.197 171.963 59.197 171.151C59.197 170.34 59.336 169.645 59.614 169.066C59.8966 168.483 60.2794 168.036 60.7625 167.727C61.2501 167.417 61.7992 167.262 62.4099 167.262C62.8793 167.262 63.2598 167.339 63.5515 167.494C63.8477 167.649 64.0779 167.834 64.2419 168.048C64.4106 168.257 64.5382 168.442 64.6248 168.602H64.7341V167.357H66.2039V175.109C66.2039 175.779 66.0512 176.328 65.7458 176.757C65.4451 177.19 65.0326 177.509 64.5085 177.714C63.989 177.919 63.4011 178.021 62.7449 178.021ZM62.738 173.633C63.1664 173.633 63.5264 173.535 63.8181 173.339C64.1143 173.138 64.3376 172.851 64.488 172.478C64.6384 172.099 64.7136 171.65 64.7136 171.131C64.7136 170.616 64.6384 170.165 64.488 169.777C64.3376 169.39 64.1143 169.087 63.8181 168.868C63.5264 168.649 63.1664 168.54 62.738 168.54C62.296 168.54 61.9268 168.656 61.6306 168.889C61.3344 169.117 61.1111 169.426 60.9607 169.818C60.8103 170.206 60.7351 170.643 60.7351 171.131C60.7351 171.628 60.8103 172.065 60.9607 172.443C61.1111 172.817 61.3344 173.109 61.6306 173.318C61.9314 173.528 62.3005 173.633 62.738 173.633ZM71.447 175.157C70.7315 175.157 70.1049 174.993 69.5671 174.665C69.0339 174.337 68.6192 173.877 68.323 173.284C68.0268 172.692 67.8787 172.004 67.8787 171.22C67.8787 170.427 68.0268 169.734 68.323 169.142C68.6192 168.545 69.0339 168.082 69.5671 167.754C70.1049 167.426 70.7315 167.262 71.447 167.262C72.1671 167.262 72.7937 167.426 73.3269 167.754C73.8647 168.082 74.2817 168.545 74.5779 169.142C74.8741 169.734 75.0222 170.427 75.0222 171.22C75.0222 172.004 74.8741 172.692 74.5779 173.284C74.2817 173.877 73.8647 174.337 73.3269 174.665C72.7937 174.993 72.1671 175.157 71.447 175.157ZM71.447 173.886C71.9119 173.886 72.2947 173.765 72.5955 173.523C72.9008 173.277 73.1264 172.954 73.2722 172.553C73.4226 172.147 73.4978 171.703 73.4978 171.22C73.4978 170.732 73.4226 170.285 73.2722 169.88C73.1264 169.47 72.9008 169.144 72.5955 168.902C72.2947 168.656 71.9119 168.533 71.447 168.533C70.9867 168.533 70.6062 168.656 70.3054 168.902C70.0046 169.144 69.7791 169.467 69.6287 169.873C69.4828 170.279 69.4099 170.728 69.4099 171.22C69.4099 171.703 69.4828 172.147 69.6287 172.553C69.7791 172.954 70.0046 173.277 70.3054 173.523C70.6062 173.765 70.9867 173.886 71.447 173.886ZM80.1218 175H77.6062V173.633H80.0398C80.81 173.633 81.4503 173.489 81.9607 173.202C82.4711 172.915 82.8539 172.493 83.1091 171.938C83.3643 171.377 83.4919 170.696 83.4919 169.894C83.4919 169.096 83.3643 168.422 83.1091 167.87C82.8585 167.319 82.4825 166.899 81.9812 166.612C81.4845 166.325 80.8647 166.182 80.1218 166.182H77.5515V164.814H80.2244C81.227 164.814 82.086 165.017 82.8015 165.423C83.517 165.828 84.0662 166.412 84.449 167.173C84.8318 167.929 85.0232 168.836 85.0232 169.894C85.0232 170.955 84.8295 171.867 84.4421 172.628C84.0593 173.389 83.5011 173.975 82.7673 174.385C82.0382 174.795 81.1563 175 80.1218 175ZM78.3718 164.814V175H76.8132V164.814H78.3718ZM86.9167 175V164.814H90.6697C91.3943 164.814 91.9936 164.933 92.4675 165.17C92.9415 165.407 93.2947 165.728 93.5271 166.134C93.7595 166.535 93.8757 166.986 93.8757 167.487C93.8757 167.911 93.7983 168.269 93.6433 168.561C93.4884 168.848 93.2787 169.08 93.0144 169.258C92.7546 169.431 92.4675 169.559 92.1531 169.641V169.743C92.4949 169.757 92.8276 169.866 93.1511 170.071C93.4747 170.272 93.7413 170.557 93.9509 170.926C94.1651 171.29 94.2722 171.735 94.2722 172.259C94.2722 172.774 94.1492 173.239 93.9031 173.653C93.6615 174.068 93.2878 174.396 92.782 174.638C92.2761 174.879 91.6267 175 90.8337 175H86.9167ZM88.4753 173.66H90.6765C91.4057 173.66 91.9298 173.519 92.2488 173.236C92.5678 172.954 92.7273 172.603 92.7273 172.184C92.7273 171.855 92.6453 171.559 92.4812 171.295C92.3217 171.031 92.0938 170.821 91.7976 170.666C91.5014 170.507 91.1482 170.427 90.738 170.427H88.4753V173.66ZM88.4753 169.224H90.5193C90.8611 169.224 91.171 169.158 91.449 169.025C91.727 168.893 91.9457 168.706 92.1052 168.465C92.2647 168.223 92.3445 167.941 92.3445 167.617C92.3445 167.198 92.1986 166.849 91.907 166.571C91.6153 166.289 91.1664 166.147 90.5603 166.147H88.4753V169.224Z" fill="#111827"/>
<rect x="156.186" y="96.5" width="121.627" height="103" rx="3.5" fill="white"/>
<rect x="156.186" y="96.5" width="121.627" height="103" rx="3.5" stroke="#E4E4E7"/>
<path d="M215.275 119.151C215.275 119.163 215.425 119.444 215.612 119.794C215.8 120.138 215.931 120.432 215.912 120.451C215.893 120.463 215.368 120.663 214.75 120.882C214.125 121.107 213.631 121.294 213.637 121.301C213.643 121.307 214.35 121.382 215.2 121.463C216.225 121.557 216.762 121.626 216.8 121.669C216.831 121.701 217.068 122.082 217.325 122.507L217.787 123.282L217.868 123.088C217.912 122.988 218.056 122.644 218.181 122.338L218.412 121.782L219.643 121.651C220.318 121.576 220.918 121.519 220.981 121.519L221.087 121.476C221.087 121.457 220.631 121.269 220.068 121.057C219.512 120.851 219.05 120.669 219.05 120.663C219.05 120.657 219.168 120.363 219.318 120.007C219.462 119.651 219.575 119.351 219.568 119.344C219.556 119.332 219.081 119.476 218.518 119.657L217.5 119.994L216.406 119.563C215.331 119.138 215.275 119.119 215.275 119.151ZM222.062 122.844C220.756 123.363 219.681 123.794 219.675 123.807C219.662 123.819 220.637 124.213 221.837 124.688L224.012 125.544L224.243 125.451C226.668 124.507 228.868 123.632 228.862 123.619L224.493 121.901C224.45 121.907 223.362 122.326 222.062 122.844ZM209.525 122.338C208.269 122.469 207.219 122.832 206.775 123.294C206.469 123.607 206.419 123.876 206.612 124.201C206.894 124.688 207.819 125.094 209.094 125.301C209.669 125.401 211.35 125.382 211.931 125.282C213.293 125.044 214.181 124.607 214.387 124.057C214.462 123.851 214.462 123.826 214.387 123.626C214.181 123.094 213.312 122.651 212.025 122.426C211.375 122.319 210.162 122.276 209.525 122.338ZM232.856 123.851C232.793 123.932 232.562 124.119 232.337 124.269C231.674 124.694 230.824 125.082 225.518 127.369C221.787 128.969 220.837 129.394 219.55 130.013C218.118 130.694 217.525 130.888 216.806 130.888C216.162 130.888 215.775 130.776 214.575 130.244C214.093 130.032 212.125 129.207 210.206 128.407C201.8 124.913 201.644 124.838 201.194 124.351L201.006 124.144V127.438L201.219 127.644C201.425 127.844 202.119 128.263 202.362 128.332C202.431 128.351 202.887 128.538 203.381 128.751C203.875 128.963 206.287 129.976 208.744 131.001C212.806 132.694 213.731 133.082 215.118 133.688C215.85 134.013 216.256 134.094 216.95 134.069C217.456 134.05 217.606 134.019 218.05 133.869C218.337 133.775 218.831 133.563 219.15 133.4C220.206 132.869 221.481 132.307 226.562 130.119C231.343 128.057 231.968 127.769 232.487 127.413C233.018 127.032 232.999 127.126 232.999 125.288C232.999 124.407 232.993 123.688 232.987 123.688L232.856 123.851ZM216.118 126.001C214.162 126.301 212.543 126.557 212.512 126.569C212.468 126.582 217.387 128.651 217.593 128.707L219.843 125.476C219.837 125.432 219.843 125.426 216.118 126.001ZM232.887 129.276C232.843 129.351 232.637 129.526 232.443 129.669C231.806 130.107 230.849 130.544 225.037 133.044C221.693 134.488 220.643 134.95 219.65 135.432C218.037 136.213 217.65 136.338 216.787 136.338C216.118 136.332 215.706 136.225 214.818 135.825C213.962 135.432 213.006 135.032 209.169 133.438C202.475 130.663 201.706 130.313 201.231 129.857L201 129.638V132.888L201.262 133.138C201.687 133.538 201.644 133.513 208.819 136.5C211.45 137.594 213.931 138.638 214.331 138.819C215.387 139.294 215.693 139.407 216.112 139.494C217.087 139.694 217.812 139.532 219.393 138.763C220.425 138.263 221.681 137.707 224.725 136.394C230.512 133.9 231.937 133.257 232.362 132.976C232.512 132.869 232.718 132.701 232.818 132.588L232.999 132.388V130.763C232.999 129.869 232.993 129.138 232.987 129.138L232.887 129.276ZM232.831 134.6C232.449 135.082 231.681 135.45 225.712 138.019C221.818 139.7 220.631 140.225 219.35 140.832C218.006 141.469 217.562 141.607 216.787 141.607C216.256 141.607 215.718 141.482 215.125 141.219C213.731 140.607 212.812 140.219 208.744 138.525C204.119 136.6 202.637 135.969 202.144 135.725C201.681 135.494 201.212 135.163 201.106 134.994L201 134.838V136.494C201 138.394 200.969 138.25 201.475 138.594C202.037 138.969 202.875 139.344 208.431 141.65C212.312 143.263 213.712 143.85 214.4 144.163C215.806 144.794 216.181 144.894 216.968 144.85C217.687 144.819 218.156 144.663 219.4 144.069C220.693 143.45 221.65 143.019 225.881 141.2C231.756 138.669 232.393 138.363 232.837 137.85L232.993 137.675V136.057C232.993 135.163 232.987 134.432 232.981 134.432L232.831 134.6Z" fill="#111827"/>
<path d="M199.627 175V164.814H203.278C204.062 164.814 204.716 164.951 205.24 165.225C205.764 165.493 206.156 165.869 206.416 166.353C206.675 166.836 206.805 167.389 206.805 168.014C206.805 168.643 206.673 169.194 206.409 169.668C206.149 170.137 205.757 170.502 205.233 170.762C204.709 171.021 204.053 171.151 203.264 171.151H200.523V169.818H203.114C203.615 169.818 204.018 169.748 204.324 169.606C204.634 169.461 204.861 169.253 205.007 168.984C205.153 168.715 205.226 168.392 205.226 168.014C205.226 167.631 205.153 167.3 205.007 167.022C204.861 166.744 204.634 166.53 204.324 166.38C204.014 166.225 203.606 166.147 203.1 166.147H201.186V175H199.627ZM205.417 175L202.95 170.399H204.679L207.188 175H205.417ZM211.693 175.157C210.941 175.157 210.292 174.995 209.745 174.672C209.198 174.348 208.776 173.893 208.48 173.305C208.188 172.717 208.042 172.026 208.042 171.233C208.042 170.45 208.186 169.759 208.473 169.162C208.765 168.565 209.175 168.1 209.704 167.768C210.232 167.43 210.852 167.262 211.563 167.262C212 167.262 212.422 167.335 212.828 167.48C213.233 167.622 213.598 167.845 213.921 168.15C214.245 168.456 214.5 168.852 214.687 169.34C214.878 169.823 214.974 170.411 214.974 171.104V171.637H208.883V170.516H214.202L213.498 170.885C213.498 170.415 213.425 170.003 213.279 169.647C213.133 169.287 212.917 169.007 212.629 168.807C212.347 168.606 211.991 168.506 211.563 168.506C211.139 168.506 210.777 168.608 210.476 168.813C210.175 169.019 209.945 169.29 209.786 169.627C209.631 169.96 209.553 170.324 209.553 170.721V171.486C209.553 172.01 209.642 172.455 209.82 172.819C210.002 173.179 210.255 173.453 210.579 173.64C210.902 173.822 211.278 173.913 211.707 173.913C211.989 173.913 212.244 173.874 212.472 173.797C212.7 173.715 212.896 173.594 213.06 173.435C213.229 173.271 213.356 173.07 213.443 172.833L214.858 173.168C214.735 173.56 214.528 173.906 214.236 174.207C213.949 174.508 213.589 174.743 213.156 174.911C212.727 175.075 212.24 175.157 211.693 175.157ZM219.472 175.15C218.852 175.15 218.301 174.993 217.818 174.679C217.335 174.36 216.957 173.906 216.683 173.318C216.41 172.726 216.273 172.02 216.273 171.199C216.273 170.37 216.412 169.661 216.69 169.073C216.968 168.485 217.348 168.036 217.832 167.727C218.315 167.417 218.861 167.262 219.472 167.262C219.946 167.262 220.327 167.341 220.614 167.501C220.905 167.656 221.133 167.838 221.297 168.048C221.461 168.257 221.587 168.442 221.673 168.602H221.755V164.814H223.259V175H221.796V173.804H221.673C221.587 173.968 221.459 174.155 221.291 174.364C221.122 174.574 220.892 174.758 220.6 174.918C220.308 175.073 219.932 175.15 219.472 175.15ZM219.8 173.872C220.229 173.872 220.589 173.758 220.88 173.53C221.177 173.302 221.4 172.988 221.55 172.587C221.705 172.181 221.783 171.714 221.783 171.186C221.783 170.652 221.708 170.19 221.557 169.798C221.407 169.401 221.183 169.094 220.887 168.875C220.596 168.652 220.233 168.54 219.8 168.54C219.358 168.54 218.989 168.656 218.693 168.889C218.401 169.121 218.18 169.438 218.03 169.839C217.884 170.235 217.811 170.684 217.811 171.186C217.811 171.691 217.886 172.147 218.037 172.553C218.187 172.958 218.41 173.28 218.707 173.517C219.003 173.754 219.367 173.872 219.8 173.872ZM225.283 175V167.357H226.787V175H225.283ZM226.042 166.188C225.782 166.188 225.558 166.102 225.372 165.929C225.189 165.756 225.098 165.546 225.098 165.3C225.098 165.049 225.189 164.837 225.372 164.664C225.558 164.491 225.782 164.404 226.042 164.404C226.301 164.404 226.525 164.491 226.711 164.664C226.898 164.837 226.992 165.049 226.992 165.3C226.992 165.546 226.898 165.756 226.711 165.929C226.525 166.102 226.301 166.188 226.042 166.188ZM231.551 175.157C231 175.157 230.508 175.077 230.075 174.918C229.646 174.758 229.293 174.524 229.015 174.214C228.742 173.899 228.559 173.517 228.468 173.065L229.883 172.771C229.988 173.168 230.184 173.462 230.471 173.653C230.758 173.845 231.123 173.94 231.565 173.94C232.048 173.94 232.433 173.84 232.72 173.64C233.007 173.435 233.151 173.191 233.151 172.908C233.151 172.662 233.062 172.459 232.884 172.3C232.711 172.14 232.442 172.022 232.078 171.944L230.792 171.65C230.082 171.491 229.553 171.236 229.207 170.885C228.86 170.534 228.687 170.085 228.687 169.538C228.687 169.082 228.815 168.684 229.07 168.342C229.325 168 229.674 167.736 230.116 167.549C230.558 167.357 231.068 167.262 231.647 167.262C232.198 167.262 232.67 167.341 233.062 167.501C233.454 167.66 233.771 167.884 234.012 168.171C234.258 168.458 234.434 168.791 234.539 169.169L233.192 169.463C233.096 169.194 232.93 168.959 232.693 168.759C232.456 168.554 232.112 168.451 231.661 168.451C231.246 168.451 230.9 168.545 230.622 168.731C230.344 168.918 230.205 169.155 230.205 169.442C230.205 169.698 230.296 169.905 230.478 170.064C230.665 170.219 230.968 170.345 231.387 170.44L232.618 170.714C233.324 170.873 233.848 171.124 234.19 171.466C234.532 171.808 234.703 172.245 234.703 172.778C234.703 173.243 234.568 173.656 234.299 174.016C234.035 174.371 233.666 174.651 233.192 174.856C232.722 175.057 232.176 175.157 231.551 175.157Z" fill="#111827"/>
<rect x="310.813" y="96.5" width="121.627" height="103" rx="3.5" fill="white"/>
<rect x="310.813" y="96.5" width="121.627" height="103" rx="3.5" stroke="#E4E4E7"/>
<path fill-rule="evenodd" clip-rule="evenodd" d="M380.645 139.289C380.642 139.314 380.639 139.335 380.637 139.354C380.555 142.695 380.017 144.614 379.174 145.809C378.206 147.195 377.001 147.562 375.646 147.852C372.16 148.597 371.425 146.352 371.017 145.09C371.009 145.067 371.001 145.046 370.994 145.025C370.977 144.978 370.962 144.934 370.944 144.888C370.769 144.407 370.655 143.802 370.577 143.119C370.505 142.468 370.469 141.795 370.442 141.118C370.437 141.004 370.432 140.863 370.428 140.711C370.425 140.599 370.421 140.481 370.417 140.362C370.412 140.166 370.422 139.98 370.437 139.809C370.051 139.981 369.644 140.102 369.227 140.171C368.162 140.352 367.204 140.182 366.63 140.037C366.149 139.918 365.539 139.638 365.162 139.281C365.099 139.224 365.038 139.157 364.986 139.095C364.665 139.359 364.334 139.545 363.998 139.664C362.746 140.114 361.644 139.644 360.688 138.578C359.994 137.813 359.374 136.685 358.825 135.387C357.242 131.632 356.198 126.216 356.131 124.882C355.572 113.719 365.612 116.388 368.348 117.319C368.828 117.033 369.343 116.809 369.879 116.652C370.624 116.43 371.451 116.311 372.367 116.326C372.832 116.332 373.293 116.363 373.758 116.409C374.081 116.444 374.402 116.491 374.72 116.549C375.838 116.228 378.455 115.654 381.082 116.28C382.883 116.709 384.724 117.661 386.214 119.559C387.196 120.816 387.186 123.676 386.276 126.966C385.619 129.345 384.512 132.03 383.007 134.528C383.343 134.445 383.876 134.332 384.719 134.156C385.376 134.021 385.888 134.068 386.26 134.249C386.907 134.559 387.186 135.071 387.14 135.739C387.119 136.08 386.979 136.416 386.752 136.737C386.374 137.249 385.552 137.895 384.574 138.351C384.098 138.568 383.483 138.739 382.846 138.847C382.205 138.956 381.538 139.002 380.963 138.976H380.907L380.684 138.956C380.679 139.007 380.674 139.059 380.663 139.116C380.657 139.189 380.65 139.245 380.645 139.289ZM380.575 134.823C379.991 134.988 379.153 135.294 379.241 136.99C379.199 137.492 379.044 138.904 378.868 140.28C378.723 141.407 378.568 142.545 378.46 143.197C378.305 144.086 378.061 144.728 377.622 145.178C377.187 145.633 376.525 145.933 375.548 146.145C374.43 146.383 373.727 146.15 373.272 145.762C372.801 145.364 372.553 144.79 372.398 144.402C372.253 144.03 372.144 143.037 372.082 141.707C372.02 140.373 372.01 138.733 372.046 137.073C372.046 137.046 372.047 137.02 372.047 136.993C372.053 136.667 372.058 136.364 371.948 136.049C371.813 135.681 371.575 135.35 371.28 135.138C371.006 134.942 370.613 134.807 370.277 134.838C370.214 134.844 370.152 134.854 370.091 134.869C370.148 134.642 370.231 134.394 370.324 134.131C370.442 133.801 370.47 133.702 370.505 133.606C370.547 133.492 370.598 133.382 370.82 132.893C371.379 131.647 372.092 130.054 371.296 126.355C371.068 125.321 370.489 124.778 369.76 124.55C369.294 124.406 368.777 124.395 368.265 124.473C367.773 124.55 367.282 124.701 366.848 124.876C366.575 124.99 366.313 125.125 366.062 125.28C366.232 123.118 367.174 117.976 372.341 118.064C376.623 118.131 379.029 120.94 380.136 122.952C380.415 123.453 380.607 123.904 380.726 124.245L380.727 124.248C380.737 124.273 380.746 124.298 380.751 124.323C378.222 124.059 377.208 124.938 376.996 126.267C376.696 128.135 378.217 130.861 378.987 132.242C379.005 132.274 379.023 132.305 379.04 132.336C379.195 132.615 379.313 132.827 379.355 132.93C379.66 133.669 380.037 134.145 380.337 134.512C380.357 134.537 380.375 134.561 380.394 134.584C380.464 134.673 380.526 134.753 380.575 134.823ZM369.522 136.54C368.973 137.239 368.802 137.45 367.101 137.802C366.796 137.864 366.589 137.931 366.465 137.994C366.62 138.102 366.858 138.2 367.065 138.252C367.484 138.356 368.182 138.485 368.922 138.356C369.651 138.232 370.432 137.859 371.068 136.975C371.198 136.794 371.172 136.546 371.105 136.344C371.032 136.147 370.908 135.971 370.763 135.868C370.654 135.79 370.479 135.723 370.355 135.733C370.278 135.738 370.206 135.771 370.153 135.826C369.929 136.052 369.718 136.29 369.522 136.54ZM366.216 134.187C366.34 134.32 366.471 134.446 366.609 134.564C365.78 135.448 364.978 136.357 364.205 137.29C363.92 137.631 363.651 137.838 363.403 137.926C362.947 138.092 362.477 137.843 362.017 137.331C361.463 136.716 360.94 135.759 360.47 134.642C358.97 131.088 357.982 125.993 357.92 124.747C357.496 116.202 365.27 118.1 367.675 118.892C365.012 121.509 365.13 126.19 365.136 126.226C365.131 126.323 365.138 126.442 365.146 126.594C365.148 126.62 365.15 126.648 365.151 126.676C365.198 127.405 365.28 128.807 365.063 130.364C365.008 130.743 364.999 131.127 365.037 131.507C365.136 132.547 365.57 133.478 366.216 134.187ZM380.917 122.523C380.079 120.992 378.548 119.042 376.111 117.966C377.28 117.728 379.163 117.521 381.051 118.064C382.381 118.452 383.715 119.213 384.806 120.604C385.437 121.416 385.318 123.671 384.553 126.439C383.891 128.844 382.732 131.59 381.144 134.089C381.109 134.048 381.074 134.003 381.039 133.958L381.036 133.954C381.02 133.939 381.005 133.918 380.989 133.897C381.91 132.387 381.734 130.928 381.569 129.558C381.501 129.02 381.439 128.502 381.455 128.011C381.475 127.517 381.537 127.094 381.596 126.687C381.599 126.668 381.602 126.649 381.605 126.63C381.693 126.081 381.77 125.559 381.75 124.923C381.75 124.915 381.751 124.907 381.752 124.9C381.753 124.892 381.755 124.884 381.755 124.876C381.781 124.726 381.724 124.385 381.569 123.951C381.392 123.457 381.174 122.979 380.917 122.523ZM366.039 126.485C366.035 126.397 366.03 126.309 366.03 126.221C366.035 126.2 366.532 125.973 367.184 125.704C367.562 125.554 367.981 125.419 368.395 125.357C368.788 125.3 369.17 125.3 369.496 125.404C369.925 125.538 370.277 125.88 370.417 126.542C371.156 129.961 370.51 131.398 370.003 132.526C369.745 133.094 369.668 133.313 369.57 133.589C369.546 133.657 369.521 133.728 369.492 133.808C369.384 134.105 369.29 134.389 369.222 134.662L369.212 134.662C369.081 134.657 368.945 134.652 368.813 134.631C368.068 134.528 367.391 134.145 366.879 133.581C366.334 132.986 366 132.228 365.927 131.424C365.896 131.125 365.901 130.809 365.948 130.488C366.181 128.828 366.092 127.374 366.046 126.624C366.044 126.578 366.042 126.532 366.039 126.485ZM369.76 125.999C369.462 125.839 369.014 125.778 368.684 125.849C368.453 125.906 368.355 126.019 368.348 126.153C368.34 126.287 368.425 126.443 368.56 126.588C368.699 126.733 368.896 126.862 369.118 126.893H369.124C369.351 126.925 369.563 126.847 369.718 126.743C369.884 126.63 369.993 126.474 370.008 126.366C370.023 126.226 369.93 126.097 369.76 125.999ZM377.875 126.407C378.015 125.533 378.806 124.974 380.854 125.228C380.849 125.678 380.787 126.081 380.72 126.5L380.713 126.546C380.648 126.983 380.58 127.44 380.559 127.985C380.544 128.517 380.609 129.065 380.675 129.627L380.678 129.661C380.813 130.768 380.952 131.937 380.415 133.075C380.332 132.93 380.254 132.764 380.177 132.588C380.11 132.428 379.965 132.159 379.768 131.812C379.044 130.514 377.627 127.969 377.875 126.407ZM381.027 135.623C381.055 135.614 381.082 135.607 381.108 135.599C382.162 136.394 383.925 136.066 385.09 135.849L385.101 135.847C384.822 136.116 384.367 136.421 383.824 136.675C383.296 136.917 382.468 137.083 381.693 137.129C381.248 137.15 380.829 137.14 380.513 137.073C380.311 137.036 380.177 136.995 380.136 136.954C380.084 135.893 380.571 135.755 380.881 135.667L380.886 135.666C380.934 135.65 380.982 135.636 381.027 135.623ZM379.831 126.237C379.96 126.102 380.037 125.942 380.022 125.849C380.006 125.74 379.903 125.662 379.743 125.626C379.603 125.59 379.417 125.585 379.221 125.611C379.024 125.642 378.848 125.698 378.724 125.766C378.575 125.851 378.515 125.947 378.516 126.042C378.519 126.182 378.654 126.321 378.837 126.423C378.994 126.507 379.15 126.537 379.3 126.52C379.492 126.499 379.674 126.399 379.831 126.237ZM384.894 134.978C382.551 135.464 381.853 135.159 381.646 134.962C383.41 132.283 384.693 129.283 385.411 126.676C386.249 123.645 386.317 121.09 385.51 120.055C384.284 118.493 382.789 117.64 381.299 117.21C379.044 116.559 376.82 116.879 375.604 117.164C375.582 117.169 375.561 117.173 375.541 117.178C375.477 117.192 375.424 117.204 375.377 117.215C375.351 117.226 374.891 117.355 374.565 117.443C373.887 117.277 373.147 117.179 372.356 117.169C370.722 117.143 369.459 117.557 368.482 118.224C366.837 117.614 356.497 114.195 357.025 124.788C357.092 126.076 358.106 131.336 359.647 134.988C360.159 136.198 360.728 137.238 361.349 137.931C362.063 138.717 362.844 139.074 363.697 138.769C364.101 138.624 364.504 138.335 364.892 137.864C365.984 136.55 366.982 135.469 367.354 135.076C367.77 135.3 368.222 135.449 368.689 135.516C368.835 135.536 368.981 135.548 369.128 135.552C369.128 135.573 369.128 135.593 369.133 135.614C369.024 135.735 368.919 135.859 368.818 135.986C368.425 136.488 368.301 136.643 366.925 136.928C366.304 137.057 365.932 137.228 365.73 137.419C365.518 137.616 365.451 137.838 365.482 138.066C365.513 138.262 365.616 138.433 365.772 138.578C366.035 138.826 366.485 139.028 366.848 139.121C367.344 139.245 368.172 139.395 369.077 139.24C369.76 139.121 370.478 138.831 371.13 138.242C371.12 139.504 371.141 140.719 371.187 141.749C371.254 143.161 371.379 144.263 371.57 144.733C371.761 145.209 372.061 145.918 372.692 146.45C373.334 146.989 374.285 147.33 375.734 147.02C376.892 146.771 377.694 146.393 378.268 145.799C378.842 145.204 379.153 144.418 379.339 143.347C379.447 142.716 379.608 141.558 379.753 140.388C379.872 139.457 379.98 138.537 380.053 137.88C380.141 137.906 380.239 137.931 380.337 137.952C380.735 138.03 381.227 138.05 381.739 138.025C382.613 137.973 383.57 137.776 384.196 137.487C385.039 137.094 385.727 136.566 386.027 136.152C386.156 135.971 386.234 135.795 386.244 135.624C386.265 135.345 386.146 135.133 385.877 135.004C385.67 134.906 385.349 134.885 384.894 134.978Z" fill="#111827"/>
<path d="M332.754 175V164.814H336.405C337.188 164.814 337.842 164.96 338.366 165.252C338.891 165.544 339.282 165.938 339.542 166.435C339.802 166.931 339.932 167.494 339.932 168.123C339.932 168.752 339.8 169.317 339.535 169.818C339.276 170.315 338.884 170.709 338.36 171.001C337.836 171.288 337.179 171.432 336.391 171.432H333.896V170.112H336.24C336.742 170.112 337.147 170.026 337.457 169.853C337.767 169.679 337.993 169.442 338.134 169.142C338.28 168.841 338.353 168.501 338.353 168.123C338.353 167.74 338.28 167.401 338.134 167.104C337.993 166.804 337.765 166.569 337.45 166.4C337.141 166.232 336.733 166.147 336.227 166.147H334.313V175H332.754ZM344.738 175.157C344.022 175.157 343.395 174.993 342.858 174.665C342.324 174.337 341.91 173.877 341.614 173.284C341.317 172.692 341.169 172.004 341.169 171.22C341.169 170.427 341.317 169.734 341.614 169.142C341.91 168.545 342.324 168.082 342.858 167.754C343.395 167.426 344.022 167.262 344.738 167.262C345.458 167.262 346.084 167.426 346.617 167.754C347.155 168.082 347.572 168.545 347.868 169.142C348.165 169.734 348.313 170.427 348.313 171.22C348.313 172.004 348.165 172.692 347.868 173.284C347.572 173.877 347.155 174.337 346.617 174.665C346.084 174.993 345.458 175.157 344.738 175.157ZM344.738 173.886C345.202 173.886 345.585 173.765 345.886 173.523C346.191 173.277 346.417 172.954 346.563 172.553C346.713 172.147 346.788 171.703 346.788 171.22C346.788 170.732 346.713 170.285 346.563 169.88C346.417 169.47 346.191 169.144 345.886 168.902C345.585 168.656 345.202 168.533 344.738 168.533C344.277 168.533 343.897 168.656 343.596 168.902C343.295 169.144 343.07 169.467 342.919 169.873C342.773 170.279 342.7 170.728 342.7 171.22C342.7 171.703 342.773 172.147 342.919 172.553C343.07 172.954 343.295 173.277 343.596 173.523C343.897 173.765 344.277 173.886 344.738 173.886ZM352.729 175.157C352.177 175.157 351.685 175.077 351.252 174.918C350.824 174.758 350.471 174.524 350.193 174.214C349.919 173.899 349.737 173.517 349.646 173.065L351.061 172.771C351.166 173.168 351.362 173.462 351.649 173.653C351.936 173.845 352.3 173.94 352.742 173.94C353.226 173.94 353.611 173.84 353.898 173.64C354.185 173.435 354.328 173.191 354.328 172.908C354.328 172.662 354.24 172.459 354.062 172.3C353.889 172.14 353.62 172.022 353.255 171.944L351.97 171.65C351.259 171.491 350.73 171.236 350.384 170.885C350.038 170.534 349.865 170.085 349.865 169.538C349.865 169.082 349.992 168.684 350.247 168.342C350.503 168 350.851 167.736 351.293 167.549C351.735 167.357 352.246 167.262 352.824 167.262C353.376 167.262 353.848 167.341 354.24 167.501C354.631 167.66 354.948 167.884 355.19 168.171C355.436 168.458 355.611 168.791 355.716 169.169L354.369 169.463C354.274 169.194 354.107 168.959 353.87 168.759C353.633 168.554 353.289 168.451 352.838 168.451C352.423 168.451 352.077 168.545 351.799 168.731C351.521 168.918 351.382 169.155 351.382 169.442C351.382 169.698 351.473 169.905 351.656 170.064C351.842 170.219 352.145 170.345 352.565 170.44L353.795 170.714C354.502 170.873 355.026 171.124 355.367 171.466C355.709 171.808 355.88 172.245 355.88 172.778C355.88 173.243 355.746 173.656 355.477 174.016C355.212 174.371 354.843 174.651 354.369 174.856C353.9 175.057 353.353 175.157 352.729 175.157ZM360.802 167.357V168.581H356.659V167.357H360.802ZM357.774 165.539H359.278V172.936C359.278 173.241 359.341 173.466 359.469 173.612C359.601 173.754 359.815 173.824 360.112 173.824C360.189 173.824 360.292 173.815 360.419 173.797C360.547 173.779 360.656 173.76 360.747 173.742L361.014 174.945C360.854 175 360.684 175.039 360.501 175.062C360.319 175.089 360.139 175.103 359.961 175.103C359.268 175.103 358.731 174.925 358.348 174.569C357.965 174.209 357.774 173.706 357.774 173.059V165.539ZM365.362 178.021C364.774 178.021 364.263 177.946 363.83 177.796C363.397 177.646 363.04 177.445 362.757 177.194C362.479 176.944 362.267 176.666 362.121 176.36L363.379 175.766C363.47 175.911 363.591 176.064 363.741 176.224C363.896 176.388 364.104 176.527 364.364 176.641C364.623 176.755 364.956 176.812 365.362 176.812C365.945 176.812 366.417 176.673 366.777 176.395C367.141 176.121 367.323 175.69 367.323 175.103V173.612H367.194C367.102 173.781 366.975 173.963 366.811 174.159C366.651 174.355 366.426 174.526 366.134 174.672C365.847 174.813 365.471 174.884 365.006 174.884C364.405 174.884 363.862 174.743 363.379 174.46C362.901 174.177 362.52 173.758 362.238 173.202C361.955 172.646 361.814 171.963 361.814 171.151C361.814 170.34 361.953 169.645 362.231 169.066C362.513 168.483 362.896 168.036 363.379 167.727C363.867 167.417 364.416 167.262 365.027 167.262C365.496 167.262 365.877 167.339 366.168 167.494C366.464 167.649 366.695 167.834 366.859 168.048C367.027 168.257 367.155 168.442 367.241 168.602H367.351V167.357H368.821V175.109C368.821 175.779 368.668 176.328 368.363 176.757C368.062 177.19 367.649 177.509 367.125 177.714C366.606 177.919 366.018 178.021 365.362 178.021ZM365.355 173.633C365.783 173.633 366.143 173.535 366.435 173.339C366.731 173.138 366.954 172.851 367.105 172.478C367.255 172.099 367.33 171.65 367.33 171.131C367.33 170.616 367.255 170.165 367.105 169.777C366.954 169.39 366.731 169.087 366.435 168.868C366.143 168.649 365.783 168.54 365.355 168.54C364.913 168.54 364.544 168.656 364.247 168.889C363.951 169.117 363.728 169.426 363.577 169.818C363.427 170.206 363.352 170.643 363.352 171.131C363.352 171.628 363.427 172.065 363.577 172.443C363.728 172.817 363.951 173.109 364.247 173.318C364.548 173.528 364.917 173.633 365.355 173.633ZM370.851 175V167.357H372.307V168.588H372.389C372.53 168.169 372.776 167.84 373.127 167.604C373.478 167.367 373.877 167.248 374.323 167.248C374.419 167.248 374.529 167.253 374.652 167.262C374.775 167.266 374.877 167.275 374.959 167.289V168.725C374.905 168.706 374.8 168.688 374.645 168.67C374.49 168.652 374.333 168.643 374.173 168.643C373.827 168.643 373.515 168.715 373.237 168.861C372.959 169.007 372.742 169.21 372.587 169.47C372.432 169.725 372.355 170.021 372.355 170.358V175H370.851ZM379.286 175.157C378.534 175.157 377.885 174.995 377.338 174.672C376.791 174.348 376.37 173.893 376.073 173.305C375.782 172.717 375.636 172.026 375.636 171.233C375.636 170.45 375.78 169.759 376.067 169.162C376.358 168.565 376.768 168.1 377.297 167.768C377.826 167.43 378.446 167.262 379.156 167.262C379.594 167.262 380.016 167.335 380.421 167.48C380.827 167.622 381.191 167.845 381.515 168.15C381.838 168.456 382.094 168.852 382.281 169.34C382.472 169.823 382.568 170.411 382.568 171.104V171.637H376.477V170.516H381.795L381.091 170.885C381.091 170.415 381.018 170.003 380.872 169.647C380.726 169.287 380.51 169.007 380.223 168.807C379.94 168.606 379.585 168.506 379.156 168.506C378.733 168.506 378.37 168.608 378.07 168.813C377.769 169.019 377.539 169.29 377.379 169.627C377.224 169.96 377.147 170.324 377.147 170.721V171.486C377.147 172.01 377.236 172.455 377.413 172.819C377.596 173.179 377.849 173.453 378.172 173.64C378.496 173.822 378.872 173.913 379.3 173.913C379.583 173.913 379.838 173.874 380.066 173.797C380.294 173.715 380.49 173.594 380.654 173.435C380.822 173.271 380.95 173.07 381.036 172.833L382.451 173.168C382.328 173.56 382.121 173.906 381.829 174.207C381.542 174.508 381.182 174.743 380.749 174.911C380.321 175.075 379.833 175.157 379.286 175.157ZM387.756 175.171C386.995 175.171 386.334 175.05 385.774 174.809C385.213 174.567 384.773 174.223 384.454 173.776C384.14 173.325 383.967 172.79 383.935 172.17H385.5C385.532 172.539 385.651 172.844 385.856 173.086C386.065 173.327 386.337 173.507 386.669 173.626C387.002 173.744 387.362 173.804 387.749 173.804C388.182 173.804 388.565 173.738 388.898 173.605C389.235 173.469 389.502 173.277 389.698 173.031C389.893 172.781 389.991 172.491 389.991 172.163C389.991 171.867 389.905 171.625 389.732 171.438C389.563 171.247 389.333 171.09 389.041 170.967C388.754 170.839 388.426 170.728 388.057 170.632L386.867 170.304C386.033 170.08 385.382 169.75 384.912 169.312C384.448 168.875 384.215 168.308 384.215 167.61C384.215 167.022 384.372 166.51 384.687 166.072C385.006 165.63 385.436 165.288 385.979 165.047C386.526 164.801 387.141 164.678 387.824 164.678C388.522 164.678 389.135 164.801 389.663 165.047C390.197 165.288 390.614 165.621 390.914 166.045C391.22 166.469 391.379 166.952 391.393 167.494H389.875C389.825 167.029 389.609 166.669 389.226 166.414C388.848 166.159 388.369 166.031 387.79 166.031C387.38 166.031 387.022 166.095 386.717 166.223C386.416 166.35 386.182 166.528 386.013 166.756C385.849 166.979 385.767 167.234 385.767 167.521C385.767 167.845 385.865 168.107 386.061 168.308C386.261 168.504 386.503 168.661 386.785 168.779C387.073 168.893 387.346 168.984 387.606 169.053L388.597 169.312C388.92 169.395 389.253 169.506 389.595 169.647C389.941 169.784 390.26 169.964 390.552 170.188C390.844 170.406 391.078 170.68 391.256 171.008C391.438 171.331 391.53 171.723 391.53 172.184C391.53 172.758 391.381 173.271 391.085 173.722C390.789 174.173 390.358 174.528 389.793 174.788C389.233 175.043 388.554 175.171 387.756 175.171ZM397.135 171.712H398.632L399.705 173.106L400.177 173.701L401.872 175.923H400.321L399.193 174.446L398.817 173.92L397.135 171.712ZM397.634 175.137C396.754 175.137 395.966 174.929 395.269 174.515C394.576 174.095 394.029 173.496 393.628 172.717C393.232 171.933 393.033 170.999 393.033 169.914C393.033 168.825 393.232 167.891 393.628 167.111C394.029 166.327 394.576 165.726 395.269 165.307C395.966 164.887 396.754 164.678 397.634 164.678C398.514 164.678 399.297 164.887 399.986 165.307C400.678 165.726 401.223 166.327 401.619 167.111C402.02 167.891 402.221 168.825 402.221 169.914C402.221 170.999 402.02 171.933 401.619 172.717C401.223 173.496 400.678 174.095 399.986 174.515C399.297 174.929 398.514 175.137 397.634 175.137ZM397.634 173.715C398.213 173.715 398.73 173.571 399.186 173.284C399.646 172.993 400.008 172.564 400.273 171.999C400.542 171.429 400.676 170.734 400.676 169.914C400.676 169.085 400.542 168.387 400.273 167.822C400.008 167.253 399.646 166.824 399.186 166.537C398.73 166.245 398.213 166.1 397.634 166.1C397.051 166.1 396.529 166.245 396.069 166.537C395.608 166.829 395.244 167.259 394.975 167.829C394.711 168.394 394.578 169.089 394.578 169.914C394.578 170.734 394.711 171.427 394.975 171.992C395.244 172.557 395.608 172.986 396.069 173.277C396.529 173.569 397.051 173.715 397.634 173.715ZM404.149 175V164.814H405.707V173.66H410.322V175H404.149Z" fill="#111827"/>
<rect x="1.55957" y="232.5" width="121.627" height="103" rx="3.5" fill="white"/>
<rect x="1.55957" y="232.5" width="121.627" height="103" rx="3.5" stroke="#E4E4E7"/>
<path d="M72.3729 271.5C72.3729 272.826 71.6742 273.476 70.3728 273.499V273.5H54.3728V273.499C53.0714 273.476 52.3728 272.826 52.3728 271.5C52.3728 270.174 53.0714 269.524 54.3728 269.501V269.5H70.3728V269.501C71.6742 269.524 72.3729 270.174 72.3729 271.5ZM70.3728 274.501V274.5H54.3728V274.501C53.0714 274.524 52.3728 275.174 52.3728 276.5C52.3728 277.826 53.0714 278.476 54.3728 278.499V278.5H70.3728V278.499C71.6741 278.476 72.3729 277.826 72.3729 276.5C72.3729 275.174 71.6742 274.524 70.3728 274.501ZM75.3729 263.502V263.501C74.0715 263.524 73.3728 264.174 73.3728 265.5V276.5C73.3728 277.826 74.0714 278.476 75.3729 278.499V278.497C77.3248 278.428 78.3728 276.478 78.3728 272.5V267.5C78.3729 264.848 77.3248 263.548 75.3729 263.502ZM49.3728 263.501V263.502C47.4208 263.548 46.3728 264.848 46.3728 267.5V272.5C46.3728 276.478 47.4208 278.428 49.3728 278.497V278.499C50.6742 278.476 51.3727 277.826 51.3727 276.5V265.5C51.3727 264.174 50.6742 263.524 49.3728 263.501ZM75.3729 262.5C75.3729 259.185 73.6261 257.56 70.3728 257.503V257.5H54.3728V257.503C51.1195 257.56 49.3728 259.185 49.3728 262.5V262.502C51.3248 262.536 52.3728 263.511 52.3728 265.5C52.3728 267.489 53.4208 268.464 55.3728 268.498V268.5H69.3728V268.498C71.3249 268.464 72.3729 267.489 72.3729 265.5C72.3729 263.511 73.4208 262.536 75.3729 262.502V262.5Z" fill="#111827"/>
<path d="M36.2322 311.137C35.3526 311.137 34.5665 310.929 33.8738 310.515C33.1811 310.095 32.6365 309.496 32.24 308.717C31.8435 307.933 31.6453 306.999 31.6453 305.914C31.6453 304.825 31.8435 303.891 32.24 303.111C32.6365 302.327 33.1811 301.726 33.8738 301.307C34.5665 300.887 35.3526 300.678 36.2322 300.678C36.7699 300.678 37.2735 300.755 37.7429 300.91C38.2169 301.065 38.6384 301.291 39.0076 301.587C39.3813 301.883 39.6889 302.243 39.9304 302.667C40.1765 303.091 40.3429 303.572 40.4294 304.109H38.864C38.8002 303.786 38.6863 303.501 38.5222 303.255C38.3627 303.004 38.1667 302.792 37.9343 302.619C37.7019 302.446 37.4421 302.316 37.155 302.229C36.8679 302.143 36.5649 302.1 36.2458 302.1C35.6625 302.1 35.1384 302.248 34.6736 302.544C34.2133 302.836 33.851 303.266 33.5867 303.836C33.3223 304.401 33.1902 305.094 33.1902 305.914C33.1902 306.734 33.3246 307.429 33.5935 307.999C33.8624 308.564 34.227 308.993 34.6873 309.284C35.1475 309.571 35.6671 309.715 36.2458 309.715C36.5649 309.715 36.8656 309.672 37.1482 309.585C37.4353 309.494 37.6951 309.364 37.9275 309.195C38.1645 309.022 38.3627 308.81 38.5222 308.56C38.6863 308.309 38.8002 308.024 38.864 307.705H40.4363C40.3588 308.206 40.2016 308.667 39.9646 309.086C39.7276 309.501 39.4246 309.863 39.0554 310.173C38.6863 310.483 38.2625 310.722 37.7839 310.891C37.31 311.055 36.7927 311.137 36.2322 311.137ZM45.365 311.157C44.6495 311.157 44.0229 310.993 43.4851 310.665C42.9519 310.337 42.5372 309.877 42.241 309.284C41.9447 308.692 41.7966 308.004 41.7966 307.22C41.7966 306.427 41.9447 305.734 42.241 305.142C42.5372 304.545 42.9519 304.082 43.4851 303.754C44.0229 303.426 44.6495 303.262 45.365 303.262C46.085 303.262 46.7117 303.426 47.2449 303.754C47.7826 304.082 48.1996 304.545 48.4958 305.142C48.7921 305.734 48.9402 306.427 48.9402 307.22C48.9402 308.004 48.7921 308.692 48.4958 309.284C48.1996 309.877 47.7826 310.337 47.2449 310.665C46.7117 310.993 46.085 311.157 45.365 311.157ZM45.365 309.886C45.8298 309.886 46.2126 309.765 46.5134 309.523C46.8188 309.277 47.0444 308.954 47.1902 308.553C47.3406 308.147 47.4158 307.703 47.4158 307.22C47.4158 306.732 47.3406 306.285 47.1902 305.88C47.0444 305.47 46.8188 305.144 46.5134 304.902C46.2126 304.656 45.8298 304.533 45.365 304.533C44.9047 304.533 44.5242 304.656 44.2234 304.902C43.9226 305.144 43.697 305.467 43.5466 305.873C43.4008 306.279 43.3279 306.728 43.3279 307.22C43.3279 307.703 43.4008 308.147 43.5466 308.553C43.697 308.954 43.9226 309.277 44.2234 309.523C44.5242 309.765 44.9047 309.886 45.365 309.886ZM53.2195 311.096C52.7 311.096 52.2442 310.986 51.8523 310.768C51.4604 310.549 51.155 310.225 50.9363 309.797C50.7221 309.368 50.615 308.84 50.615 308.211V303.357H52.1189V308.026C52.1189 308.578 52.2625 309.008 52.5496 309.318C52.8412 309.628 53.2354 309.783 53.7322 309.783C54.074 309.783 54.377 309.71 54.6414 309.564C54.9102 309.414 55.1222 309.198 55.2771 308.915C55.432 308.628 55.5095 308.284 55.5095 307.883V303.357H57.0134V311H55.5779L55.571 309.127H55.7146C55.4913 309.82 55.1654 310.321 54.7371 310.631C54.3087 310.941 53.8028 311.096 53.2195 311.096ZM62.2498 311.157C61.5297 311.157 60.9031 310.993 60.3699 310.665C59.8367 310.337 59.422 309.877 59.1257 309.284C58.8295 308.692 58.6814 308.004 58.6814 307.22C58.6814 306.427 58.8295 305.734 59.1257 305.142C59.422 304.545 59.8367 304.082 60.3699 303.754C60.9031 303.426 61.5297 303.262 62.2498 303.262C62.6462 303.262 63.0177 303.314 63.364 303.419C63.7104 303.519 64.0225 303.667 64.3005 303.863C64.5831 304.055 64.8201 304.292 65.0115 304.574C65.2074 304.852 65.3533 305.167 65.449 305.518L64.0203 305.859C63.9701 305.663 63.8927 305.486 63.7878 305.326C63.683 305.162 63.5554 305.021 63.405 304.902C63.2592 304.784 63.0883 304.693 62.8923 304.629C62.7009 304.565 62.489 304.533 62.2566 304.533C61.7963 304.533 61.4135 304.656 61.1082 304.902C60.8074 305.144 60.5818 305.467 60.4314 305.873C60.2856 306.279 60.2126 306.728 60.2126 307.22C60.2126 307.707 60.2856 308.154 60.4314 308.56C60.5818 308.961 60.8074 309.282 61.1082 309.523C61.4135 309.765 61.7963 309.886 62.2566 309.886C62.4936 309.886 62.71 309.854 62.906 309.79C63.102 309.722 63.2774 309.628 63.4324 309.51C63.5873 309.387 63.7172 309.241 63.822 309.072C63.9268 308.899 64.002 308.71 64.0476 308.505L65.4695 308.847C65.3783 309.207 65.2348 309.53 65.0388 309.817C64.8429 310.1 64.6036 310.341 64.321 310.542C64.0431 310.743 63.7286 310.895 63.3777 311C63.0268 311.105 62.6508 311.157 62.2498 311.157ZM68.6208 306.475V311H67.1169V300.814H68.6072V305.23H68.4089C68.6322 304.547 68.9558 304.048 69.3796 303.733C69.8035 303.419 70.3162 303.262 70.9177 303.262C71.4373 303.262 71.8907 303.371 72.2781 303.59C72.67 303.809 72.9731 304.132 73.1873 304.561C73.406 304.984 73.5154 305.513 73.5154 306.146V311H72.0115V306.331C72.0115 305.78 71.8679 305.349 71.5808 305.039C71.2937 304.729 70.8995 304.574 70.3982 304.574C70.061 304.574 69.7579 304.649 69.489 304.8C69.2201 304.946 69.0082 305.16 68.8533 305.442C68.6983 305.725 68.6208 306.069 68.6208 306.475ZM78.9636 311H76.448V309.633H78.8816C79.6518 309.633 80.2921 309.489 80.8025 309.202C81.3129 308.915 81.6957 308.493 81.9509 307.938C82.2061 307.377 82.3337 306.696 82.3337 305.894C82.3337 305.096 82.2061 304.422 81.9509 303.87C81.7003 303.319 81.3243 302.899 80.823 302.612C80.3263 302.325 79.7065 302.182 78.9636 302.182H76.3933V300.814H79.0662C80.0688 300.814 80.9278 301.017 81.6433 301.423C82.3588 301.828 82.908 302.412 83.2908 303.173C83.6736 303.929 83.865 304.836 83.865 305.894C83.865 306.955 83.6713 307.867 83.2839 308.628C82.9011 309.389 82.3429 309.975 81.6091 310.385C80.88 310.795 79.9981 311 78.9636 311ZM77.2136 300.814V311H75.655V300.814H77.2136ZM85.7585 311V300.814H89.5115C90.2361 300.814 90.8354 300.933 91.3093 301.17C91.7833 301.407 92.1365 301.728 92.3689 302.134C92.6013 302.535 92.7175 302.986 92.7175 303.487C92.7175 303.911 92.6401 304.269 92.4851 304.561C92.3302 304.848 92.1205 305.08 91.8562 305.258C91.5964 305.431 91.3093 305.559 90.9949 305.641V305.743C91.3367 305.757 91.6694 305.866 91.9929 306.071C92.3165 306.272 92.5831 306.557 92.7927 306.926C93.0069 307.29 93.114 307.735 93.114 308.259C93.114 308.774 92.991 309.239 92.7449 309.653C92.5033 310.068 92.1296 310.396 91.6238 310.638C91.1179 310.879 90.4685 311 89.6755 311H85.7585ZM87.3171 309.66H89.5183C90.2475 309.66 90.7716 309.519 91.0906 309.236C91.4096 308.954 91.5691 308.603 91.5691 308.184C91.5691 307.855 91.4871 307.559 91.323 307.295C91.1635 307.031 90.9356 306.821 90.6394 306.666C90.3432 306.507 89.99 306.427 89.5798 306.427H87.3171V309.66ZM87.3171 305.224H89.3611C89.7029 305.224 90.0128 305.158 90.2908 305.025C90.5688 304.893 90.7875 304.706 90.947 304.465C91.1065 304.223 91.1863 303.941 91.1863 303.617C91.1863 303.198 91.0404 302.849 90.7488 302.571C90.4571 302.289 90.0082 302.147 89.4021 302.147H87.3171V305.224Z" fill="#111827"/>
<rect x="156.186" y="232.5" width="121.627" height="103" rx="3.5" fill="white"/>
<rect x="156.186" y="232.5" width="121.627" height="103" rx="3.5" stroke="#E4E4E7"/>
<path d="M232.856 257.693C232.77 257.619 232.659 257.58 232.546 257.584C232.236 257.584 231.837 257.793 231.623 257.911L231.537 257.955C231.177 258.129 230.784 258.228 230.384 258.245C229.974 258.258 229.62 258.282 229.16 258.329C226.432 258.61 225.215 260.701 224.044 262.722C223.406 263.822 222.748 264.959 221.844 265.84C221.657 266.021 221.458 266.189 221.248 266.345C220.313 267.042 219.139 267.534 218.222 267.885C217.341 268.221 216.382 268.524 215.454 268.816C214.605 269.083 213.802 269.335 213.064 269.61C212.732 269.734 212.449 269.828 212.199 269.911C211.528 270.13 211.043 270.297 210.336 270.784C210.06 270.973 209.783 271.177 209.594 271.33C209.032 271.778 208.535 272.302 208.116 272.887C207.756 273.427 207.341 273.927 206.876 274.38C206.728 274.527 206.461 274.599 206.065 274.599C205.599 274.599 205.036 274.503 204.439 274.401C203.841 274.3 203.188 274.183 202.643 274.183C202.199 274.183 201.86 274.255 201.606 274.401C201.606 274.401 201.181 274.65 201 274.972L201.176 275.051C201.451 275.2 201.705 275.384 201.932 275.597C202.168 275.817 202.432 276.004 202.717 276.155C202.809 276.19 202.892 276.244 202.961 276.314C202.886 276.423 202.777 276.564 202.662 276.714C202.033 277.538 201.666 278.058 201.877 278.342C201.978 278.395 202.09 278.42 202.204 278.416C203.578 278.416 204.314 278.059 205.248 277.608C205.518 277.477 205.794 277.341 206.121 277.204C206.666 276.967 207.253 276.59 207.875 276.19C208.699 275.661 209.551 275.114 210.376 274.848C211.056 274.641 211.764 274.542 212.474 274.554C213.347 274.554 214.266 274.671 215.152 274.784C215.813 274.869 216.496 274.956 217.167 275.002C217.428 275.018 217.669 275.025 217.904 275.025C218.218 275.026 218.532 275.01 218.844 274.976L218.918 274.95C219.389 274.661 219.61 274.04 219.822 273.44C219.96 273.054 220.076 272.707 220.259 272.486C220.27 272.475 220.282 272.465 220.295 272.457C220.303 272.452 220.313 272.45 220.323 272.452C220.333 272.453 220.342 272.458 220.348 272.466C220.35 272.471 220.35 272.477 220.348 272.483C220.239 274.83 219.293 276.319 218.339 277.644L217.69 278.323C217.69 278.323 218.583 278.323 219.091 278.127C220.946 277.573 222.347 276.351 223.366 274.402C223.617 273.902 223.842 273.389 224.038 272.865C224.056 272.821 224.217 272.74 224.201 272.966C224.201 273.033 224.192 273.107 224.187 273.185C224.187 273.23 224.18 273.277 224.178 273.324C224.151 273.652 224.069 274.343 224.069 274.343L224.642 274.037C226.023 273.164 227.088 271.403 227.895 268.663C228.232 267.522 228.478 266.388 228.695 265.39C228.955 264.19 229.178 263.161 229.435 262.762C229.837 262.135 230.451 261.712 231.046 261.301C231.128 261.245 231.209 261.192 231.288 261.133C232.037 260.608 232.78 260.002 232.942 258.873V258.848C233.067 258.006 232.965 257.796 232.856 257.693Z" fill="#111827"/>
<path d="M186.627 311V300.814H188.924L191.146 306.659C191.21 306.832 191.28 307.051 191.358 307.315C191.44 307.58 191.524 307.867 191.611 308.177C191.697 308.487 191.779 308.792 191.857 309.093C191.934 309.394 192.003 309.665 192.062 309.906H191.734C191.793 309.678 191.861 309.416 191.939 309.12C192.016 308.819 192.098 308.514 192.185 308.204C192.272 307.894 192.356 307.603 192.438 307.329C192.52 307.056 192.593 306.832 192.657 306.659L194.844 300.814H197.155V311H195.603V305.518C195.603 305.308 195.605 305.057 195.61 304.766C195.614 304.474 195.619 304.166 195.624 303.843C195.633 303.515 195.639 303.184 195.644 302.852C195.653 302.519 195.66 302.2 195.665 301.895H195.781C195.69 302.227 195.589 302.571 195.48 302.927C195.375 303.278 195.27 303.617 195.166 303.945C195.065 304.273 194.967 304.574 194.872 304.848C194.78 305.117 194.703 305.34 194.639 305.518L192.554 311H191.221L189.109 305.518C189.041 305.344 188.961 305.126 188.87 304.861C188.783 304.592 188.687 304.296 188.583 303.973C188.478 303.645 188.371 303.305 188.261 302.954C188.152 302.599 188.042 302.245 187.933 301.895H188.07C188.079 302.173 188.086 302.476 188.09 302.804C188.099 303.127 188.106 303.455 188.111 303.788C188.12 304.121 188.127 304.438 188.131 304.738C188.14 305.035 188.145 305.294 188.145 305.518V311H186.627ZM202.131 311.15C201.516 311.15 200.967 310.993 200.484 310.679C200.005 310.36 199.627 309.906 199.349 309.318C199.076 308.726 198.939 308.02 198.939 307.199C198.939 306.37 199.078 305.661 199.356 305.073C199.639 304.485 200.021 304.036 200.504 303.727C200.992 303.417 201.541 303.262 202.152 303.262C202.621 303.262 203 303.339 203.287 303.494C203.578 303.649 203.804 303.834 203.963 304.048C204.127 304.257 204.253 304.442 204.339 304.602H204.435V303.357H205.925V311H204.442V309.804H204.339C204.253 309.968 204.125 310.157 203.957 310.371C203.788 310.581 203.558 310.763 203.266 310.918C202.974 311.073 202.596 311.15 202.131 311.15ZM202.48 309.872C202.908 309.872 203.268 309.758 203.56 309.53C203.856 309.302 204.08 308.988 204.23 308.587C204.38 308.181 204.456 307.714 204.456 307.186C204.456 306.652 204.38 306.19 204.23 305.798C204.08 305.401 203.856 305.094 203.56 304.875C203.268 304.652 202.908 304.54 202.48 304.54C202.038 304.54 201.669 304.656 201.373 304.889C201.076 305.117 200.853 305.431 200.703 305.832C200.552 306.229 200.477 306.68 200.477 307.186C200.477 307.691 200.552 308.147 200.703 308.553C200.853 308.958 201.076 309.28 201.373 309.517C201.673 309.754 202.042 309.872 202.48 309.872ZM207.949 311V303.357H209.405V304.588H209.487C209.628 304.169 209.874 303.84 210.225 303.604C210.576 303.367 210.975 303.248 211.421 303.248C211.517 303.248 211.626 303.253 211.75 303.262C211.873 303.266 211.975 303.275 212.057 303.289V304.725C212.002 304.706 211.898 304.688 211.743 304.67C211.588 304.652 211.431 304.643 211.271 304.643C210.925 304.643 210.612 304.715 210.334 304.861C210.056 305.007 209.84 305.21 209.685 305.47C209.53 305.725 209.453 306.021 209.453 306.358V311H207.949ZM213.541 311V303.357H215.044V311H213.541ZM214.299 302.188C214.04 302.188 213.816 302.102 213.629 301.929C213.447 301.756 213.356 301.546 213.356 301.3C213.356 301.049 213.447 300.837 213.629 300.664C213.816 300.491 214.04 300.404 214.299 300.404C214.559 300.404 214.782 300.491 214.969 300.664C215.156 300.837 215.25 301.049 215.25 301.3C215.25 301.546 215.156 301.756 214.969 301.929C214.782 302.102 214.559 302.188 214.299 302.188ZM219.905 311.15C219.29 311.15 218.74 310.993 218.257 310.679C217.779 310.36 217.401 309.906 217.123 309.318C216.849 308.726 216.712 308.02 216.712 307.199C216.712 306.37 216.851 305.661 217.129 305.073C217.412 304.485 217.795 304.036 218.278 303.727C218.765 303.417 219.315 303.262 219.925 303.262C220.395 303.262 220.773 303.339 221.06 303.494C221.352 303.649 221.577 303.834 221.737 304.048C221.901 304.257 222.026 304.442 222.113 304.602H222.208V303.357H223.699V311H222.215V309.804H222.113C222.026 309.968 221.899 310.157 221.73 310.371C221.561 310.581 221.331 310.763 221.04 310.918C220.748 311.073 220.37 311.15 219.905 311.15ZM220.253 309.872C220.682 309.872 221.042 309.758 221.333 309.53C221.63 309.302 221.853 308.988 222.003 308.587C222.154 308.181 222.229 307.714 222.229 307.186C222.229 306.652 222.154 306.19 222.003 305.798C221.853 305.401 221.63 305.094 221.333 304.875C221.042 304.652 220.682 304.54 220.253 304.54C219.811 304.54 219.442 304.656 219.146 304.889C218.85 305.117 218.626 305.431 218.476 305.832C218.326 306.229 218.25 306.68 218.25 307.186C218.25 307.691 218.326 308.147 218.476 308.553C218.626 308.958 218.85 309.28 219.146 309.517C219.447 309.754 219.816 309.872 220.253 309.872ZM232.879 311H230.364V309.633H232.797C233.568 309.633 234.208 309.489 234.718 309.202C235.229 308.915 235.611 308.493 235.867 307.938C236.122 307.377 236.25 306.696 236.25 305.894C236.25 305.096 236.122 304.422 235.867 303.87C235.616 303.319 235.24 302.899 234.739 302.612C234.242 302.325 233.622 302.182 232.879 302.182H230.309V300.814H232.982C233.985 300.814 234.844 301.017 235.559 301.423C236.275 301.828 236.824 302.412 237.207 303.173C237.589 303.929 237.781 304.836 237.781 305.894C237.781 306.955 237.587 307.867 237.2 308.628C236.817 309.389 236.259 309.975 235.525 310.385C234.796 310.795 233.914 311 232.879 311ZM231.129 300.814V311H229.571V300.814H231.129ZM239.674 311V300.814H243.427C244.152 300.814 244.751 300.933 245.225 301.17C245.699 301.407 246.052 301.728 246.285 302.134C246.517 302.535 246.633 302.986 246.633 303.487C246.633 303.911 246.556 304.269 246.401 304.561C246.246 304.848 246.036 305.08 245.772 305.258C245.512 305.431 245.225 305.559 244.911 305.641V305.743C245.252 305.757 245.585 305.866 245.909 306.071C246.232 306.272 246.499 306.557 246.708 306.926C246.923 307.29 247.03 307.735 247.03 308.259C247.03 308.774 246.907 309.239 246.661 309.653C246.419 310.068 246.045 310.396 245.54 310.638C245.034 310.879 244.384 311 243.591 311H239.674ZM241.233 309.66H243.434C244.163 309.66 244.687 309.519 245.006 309.236C245.325 308.954 245.485 308.603 245.485 308.184C245.485 307.855 245.403 307.559 245.239 307.295C245.079 307.031 244.851 306.821 244.555 306.666C244.259 306.507 243.906 306.427 243.496 306.427H241.233V309.66ZM241.233 305.224H243.277C243.619 305.224 243.929 305.158 244.207 305.025C244.485 304.893 244.703 304.706 244.863 304.465C245.022 304.223 245.102 303.941 245.102 303.617C245.102 303.198 244.956 302.849 244.665 302.571C244.373 302.289 243.924 302.147 243.318 302.147H241.233V305.224Z" fill="#111827"/>
<rect x="310.813" y="232.5" width="121.627" height="103" rx="3.5" fill="white"/>
<rect x="310.813" y="232.5" width="121.627" height="103" rx="3.5" stroke="#E4E4E7"/>
<path fill-rule="evenodd" clip-rule="evenodd" d="M367.032 254.02L371.199 252V259.231L367.032 260.146L367.032 254.02ZM359.802 278.411V257.272L357.994 258.226V277.457L359.802 278.411ZM383.451 278.411V257.272L385.258 258.226V277.457L383.451 278.411ZM371.199 276.631L367.032 275.753L367.032 282.017L371.199 283.862V276.631ZM366.279 258.678L360.756 257.222L360.705 278.511L366.229 277.055V274.896L371.852 273.892L377.124 274.946V277.055L382.547 278.511V257.222L377.124 258.728V261.088L371.601 262.142L366.279 261.038V258.678ZM376.371 264.502L372.203 264V271.783L376.371 271.18L376.371 264.502ZM367.032 264.502L371.199 264V271.783L367.032 271.18L367.032 264.502ZM372.204 252L376.371 254.02L376.371 260.284L372.204 259.369V252ZM376.371 275.753L372.204 276.631V284L376.371 282.017L376.371 275.753ZM371.613 260.099L368.988 260.716L371.587 261.385L374.264 260.768L371.613 260.099ZM368.988 275.264L371.613 274.647L374.264 275.316L371.587 275.933L368.988 275.264Z" fill="#111827"/>
<path d="M342.172 311.171C341.411 311.171 340.75 311.05 340.19 310.809C339.629 310.567 339.189 310.223 338.87 309.776C338.556 309.325 338.383 308.79 338.351 308.17H339.916C339.948 308.539 340.067 308.844 340.272 309.086C340.481 309.327 340.753 309.507 341.085 309.626C341.418 309.744 341.778 309.804 342.165 309.804C342.598 309.804 342.981 309.738 343.314 309.605C343.651 309.469 343.918 309.277 344.114 309.031C344.309 308.781 344.407 308.491 344.407 308.163C344.407 307.867 344.321 307.625 344.148 307.438C343.979 307.247 343.749 307.09 343.457 306.967C343.17 306.839 342.842 306.728 342.473 306.632L341.283 306.304C340.449 306.08 339.798 305.75 339.328 305.312C338.864 304.875 338.631 304.308 338.631 303.61C338.631 303.022 338.788 302.51 339.103 302.072C339.422 301.63 339.852 301.288 340.395 301.047C340.942 300.801 341.557 300.678 342.24 300.678C342.938 300.678 343.551 300.801 344.079 301.047C344.613 301.288 345.03 301.621 345.33 302.045C345.636 302.469 345.795 302.952 345.809 303.494H344.291C344.241 303.029 344.025 302.669 343.642 302.414C343.264 302.159 342.785 302.031 342.206 302.031C341.796 302.031 341.438 302.095 341.133 302.223C340.832 302.35 340.598 302.528 340.429 302.756C340.265 302.979 340.183 303.234 340.183 303.521C340.183 303.845 340.281 304.107 340.477 304.308C340.677 304.504 340.919 304.661 341.201 304.779C341.489 304.893 341.762 304.984 342.022 305.053L343.013 305.312C343.337 305.395 343.669 305.506 344.011 305.647C344.357 305.784 344.676 305.964 344.968 306.188C345.26 306.406 345.494 306.68 345.672 307.008C345.854 307.331 345.946 307.723 345.946 308.184C345.946 308.758 345.797 309.271 345.501 309.722C345.205 310.173 344.774 310.528 344.209 310.788C343.649 311.043 342.97 311.171 342.172 311.171ZM351.073 311.137C350.384 311.137 349.771 311.018 349.234 310.781C348.7 310.544 348.277 310.216 347.962 309.797C347.652 309.378 347.488 308.89 347.47 308.334H349.049C349.072 308.635 349.172 308.895 349.35 309.113C349.532 309.332 349.771 309.501 350.068 309.619C350.364 309.738 350.694 309.797 351.059 309.797C351.46 309.797 351.813 309.729 352.118 309.592C352.424 309.455 352.663 309.264 352.836 309.018C353.014 308.767 353.103 308.478 353.103 308.149C353.103 307.808 353.016 307.509 352.843 307.254C352.67 306.994 352.419 306.791 352.091 306.646C351.763 306.5 351.364 306.427 350.895 306.427H350.027V305.155H350.895C351.268 305.155 351.599 305.089 351.886 304.957C352.173 304.82 352.396 304.631 352.556 304.39C352.715 304.148 352.795 303.866 352.795 303.542C352.795 303.228 352.725 302.954 352.583 302.722C352.442 302.489 352.244 302.309 351.989 302.182C351.733 302.049 351.433 301.983 351.086 301.983C350.758 301.983 350.45 302.045 350.163 302.168C349.881 302.286 349.651 302.455 349.473 302.674C349.295 302.893 349.199 303.157 349.186 303.467H347.682C347.7 302.915 347.862 302.43 348.167 302.011C348.477 301.591 348.887 301.266 349.398 301.033C349.913 300.796 350.485 300.678 351.114 300.678C351.765 300.678 352.33 300.805 352.809 301.061C353.292 301.316 353.663 301.655 353.923 302.079C354.183 302.498 354.313 302.956 354.313 303.453C354.313 304.027 354.153 304.513 353.834 304.909C353.515 305.301 353.089 305.568 352.556 305.709V305.784C353.007 305.853 353.392 305.998 353.711 306.222C354.03 306.44 354.272 306.718 354.436 307.056C354.6 307.393 354.682 307.776 354.682 308.204C354.682 308.765 354.527 309.266 354.217 309.708C353.907 310.15 353.479 310.499 352.932 310.754C352.39 311.009 351.77 311.137 351.073 311.137ZM360.315 311V300.814H364.068C364.792 300.814 365.392 300.933 365.865 301.17C366.339 301.407 366.693 301.728 366.925 302.134C367.157 302.535 367.274 302.986 367.274 303.487C367.274 303.911 367.196 304.269 367.041 304.561C366.886 304.848 366.677 305.08 366.412 305.258C366.153 305.431 365.865 305.559 365.551 305.641V305.743C365.893 305.757 366.226 305.866 366.549 306.071C366.873 306.272 367.139 306.557 367.349 306.926C367.563 307.29 367.67 307.735 367.67 308.259C367.67 308.774 367.547 309.239 367.301 309.653C367.059 310.068 366.686 310.396 366.18 310.638C365.674 310.879 365.025 311 364.232 311H360.315ZM361.873 309.66H364.074C364.804 309.66 365.328 309.519 365.647 309.236C365.966 308.954 366.125 308.603 366.125 308.184C366.125 307.855 366.043 307.559 365.879 307.295C365.72 307.031 365.492 306.821 365.196 306.666C364.899 306.507 364.546 306.427 364.136 306.427H361.873V309.66ZM361.873 305.224H363.917C364.259 305.224 364.569 305.158 364.847 305.025C365.125 304.893 365.344 304.706 365.503 304.465C365.663 304.223 365.742 303.941 365.742 303.617C365.742 303.198 365.597 302.849 365.305 302.571C365.013 302.289 364.564 302.147 363.958 302.147H361.873V305.224ZM372.004 311.096C371.485 311.096 371.029 310.986 370.637 310.768C370.245 310.549 369.94 310.225 369.721 309.797C369.507 309.368 369.4 308.84 369.4 308.211V303.357H370.904V308.026C370.904 308.578 371.047 309.008 371.334 309.318C371.626 309.628 372.02 309.783 372.517 309.783C372.859 309.783 373.162 309.71 373.426 309.564C373.695 309.414 373.907 309.198 374.062 308.915C374.217 308.628 374.294 308.284 374.294 307.883V303.357H375.798V311H374.363L374.356 309.127H374.499C374.276 309.82 373.95 310.321 373.522 310.631C373.093 310.941 372.587 311.096 372.004 311.096ZM381.034 311.157C380.314 311.157 379.688 310.993 379.155 310.665C378.621 310.337 378.207 309.877 377.91 309.284C377.614 308.692 377.466 308.004 377.466 307.22C377.466 306.427 377.614 305.734 377.91 305.142C378.207 304.545 378.621 304.082 379.155 303.754C379.688 303.426 380.314 303.262 381.034 303.262C381.431 303.262 381.802 303.314 382.149 303.419C382.495 303.519 382.807 303.667 383.085 303.863C383.368 304.055 383.605 304.292 383.796 304.574C383.992 304.852 384.138 305.167 384.234 305.518L382.805 305.859C382.755 305.663 382.677 305.486 382.573 305.326C382.468 305.162 382.34 305.021 382.19 304.902C382.044 304.784 381.873 304.693 381.677 304.629C381.486 304.565 381.274 304.533 381.041 304.533C380.581 304.533 380.198 304.656 379.893 304.902C379.592 305.144 379.366 305.467 379.216 305.873C379.07 306.279 378.997 306.728 378.997 307.22C378.997 307.707 379.07 308.154 379.216 308.56C379.366 308.961 379.592 309.282 379.893 309.523C380.198 309.765 380.581 309.886 381.041 309.886C381.278 309.886 381.495 309.854 381.691 309.79C381.887 309.722 382.062 309.628 382.217 309.51C382.372 309.387 382.502 309.241 382.607 309.072C382.712 308.899 382.787 308.71 382.832 308.505L384.254 308.847C384.163 309.207 384.019 309.53 383.823 309.817C383.628 310.1 383.388 310.341 383.106 310.542C382.828 310.743 382.513 310.895 382.162 311C381.811 311.105 381.435 311.157 381.034 311.157ZM387.289 308.423V306.584H387.542L390.557 303.357H392.362L388.909 307.056H388.656L387.289 308.423ZM385.902 311V300.814H387.406V311H385.902ZM390.714 311L388 307.391L389.039 306.324L392.573 311H390.714ZM396.716 311.157C395.964 311.157 395.315 310.995 394.768 310.672C394.221 310.348 393.799 309.893 393.503 309.305C393.212 308.717 393.066 308.026 393.066 307.233C393.066 306.45 393.209 305.759 393.496 305.162C393.788 304.565 394.198 304.1 394.727 303.768C395.255 303.43 395.875 303.262 396.586 303.262C397.024 303.262 397.445 303.335 397.851 303.48C398.256 303.622 398.621 303.845 398.945 304.15C399.268 304.456 399.523 304.852 399.71 305.34C399.902 305.823 399.997 306.411 399.997 307.104V307.637H393.906V306.516H399.225L398.521 306.885C398.521 306.415 398.448 306.003 398.302 305.647C398.156 305.287 397.94 305.007 397.653 304.807C397.37 304.606 397.015 304.506 396.586 304.506C396.162 304.506 395.8 304.608 395.499 304.813C395.198 305.019 394.968 305.29 394.809 305.627C394.654 305.96 394.576 306.324 394.576 306.721V307.486C394.576 308.01 394.665 308.455 394.843 308.819C395.025 309.179 395.278 309.453 395.602 309.64C395.925 309.822 396.301 309.913 396.73 309.913C397.012 309.913 397.267 309.874 397.495 309.797C397.723 309.715 397.919 309.594 398.083 309.435C398.252 309.271 398.379 309.07 398.466 308.833L399.881 309.168C399.758 309.56 399.551 309.906 399.259 310.207C398.972 310.508 398.612 310.743 398.179 310.911C397.751 311.075 397.263 311.157 396.716 311.157ZM404.919 303.357V304.581H400.777V303.357H404.919ZM401.891 301.539H403.395V308.936C403.395 309.241 403.459 309.466 403.586 309.612C403.718 309.754 403.933 309.824 404.229 309.824C404.306 309.824 404.409 309.815 404.536 309.797C404.664 309.779 404.773 309.76 404.865 309.742L405.131 310.945C404.972 311 404.801 311.039 404.618 311.062C404.436 311.089 404.256 311.103 404.078 311.103C403.386 311.103 402.848 310.925 402.465 310.569C402.082 310.209 401.891 309.706 401.891 309.059V301.539Z" fill="#111827"/>
<defs>
<clipPath id="clip0_3945_120536">
<rect x="1.05957" y="28" width="431.88" height="36" rx="4" fill="white"/>
</clipPath>
</defs>
</svg>
