<svg width="516" height="337" viewBox="0 0 516 337" fill="none" xmlns="http://www.w3.org/2000/svg">
<path d="M2.12793 17.5V7.31445H3.92578L7.76074 13.3779C7.88835 13.5785 8.0319 13.8177 8.19141 14.0957C8.35091 14.3737 8.51953 14.6882 8.69727 15.0391C8.875 15.3854 9.05046 15.7637 9.22363 16.1738H9.03223C8.99121 15.7865 8.95931 15.4036 8.93652 15.0254C8.91829 14.6426 8.90462 14.2848 8.89551 13.9521C8.88639 13.6195 8.88184 13.3392 8.88184 13.1113V7.31445H10.4609V17.5H8.65625L5.21777 12.0791C5.03548 11.7829 4.85547 11.4844 4.67773 11.1836C4.50456 10.8828 4.31087 10.5365 4.09668 10.1445C3.88704 9.74805 3.62956 9.26725 3.32422 8.70215H3.57031C3.5931 9.20345 3.61589 9.67285 3.63867 10.1104C3.66146 10.5433 3.67741 10.9284 3.68652 11.2656C3.7002 11.5983 3.70703 11.8649 3.70703 12.0654V17.5H2.12793ZM15.4443 17.6504C14.8291 17.6504 14.2799 17.4932 13.7969 17.1787C13.3184 16.8597 12.9401 16.4062 12.6621 15.8184C12.3887 15.2259 12.252 14.5195 12.252 13.6992C12.252 12.8698 12.391 12.1611 12.6689 11.5732C12.9515 10.9854 13.3343 10.5365 13.8174 10.2266C14.305 9.91667 14.8542 9.76172 15.4648 9.76172C15.9342 9.76172 16.3125 9.83919 16.5996 9.99414C16.8913 10.1491 17.1169 10.3337 17.2764 10.5479C17.4404 10.7575 17.5658 10.9421 17.6523 11.1016H17.748V9.85742H19.2383V17.5H17.7549V16.3037H17.6523C17.5658 16.4678 17.4382 16.6569 17.2695 16.8711C17.1009 17.0807 16.8708 17.263 16.5791 17.418C16.2874 17.5729 15.9092 17.6504 15.4443 17.6504ZM15.793 16.3721C16.2214 16.3721 16.5814 16.2581 16.873 16.0303C17.1693 15.8024 17.3926 15.488 17.543 15.0869C17.6934 14.6813 17.7686 14.2142 17.7686 13.6855C17.7686 13.1523 17.6934 12.6898 17.543 12.2979C17.3926 11.9014 17.1693 11.5938 16.873 11.375C16.5814 11.1517 16.2214 11.04 15.793 11.04C15.3509 11.04 14.9818 11.1562 14.6855 11.3887C14.3893 11.6165 14.166 11.931 14.0156 12.332C13.8652 12.7285 13.79 13.1797 13.79 13.6855C13.79 14.1914 13.8652 14.6471 14.0156 15.0527C14.166 15.4583 14.3893 15.7796 14.6855 16.0166C14.9863 16.2536 15.3555 16.3721 15.793 16.3721ZM21.2617 17.5V9.85742H22.6904L22.7314 11.6279H22.6152C22.7246 11.195 22.8932 10.8395 23.1211 10.5615C23.349 10.2835 23.6156 10.0762 23.9209 9.93945C24.2262 9.79818 24.5452 9.72754 24.8779 9.72754C25.4339 9.72754 25.8828 9.90072 26.2246 10.2471C26.5664 10.5889 26.7965 11.0674 26.915 11.6826H26.7236C26.8239 11.2633 26.9971 10.9079 27.2432 10.6162C27.4893 10.3245 27.7855 10.1035 28.1318 9.95312C28.4827 9.80273 28.8564 9.72754 29.2529 9.72754C29.7041 9.72754 30.112 9.82552 30.4766 10.0215C30.8457 10.2174 31.1374 10.5091 31.3516 10.8965C31.5658 11.2839 31.6729 11.7669 31.6729 12.3457V17.5H30.1621V12.4961C30.1621 11.9857 30.0208 11.6165 29.7383 11.3887C29.4557 11.1608 29.1208 11.0469 28.7334 11.0469C28.4189 11.0469 28.1478 11.113 27.9199 11.2451C27.6921 11.3773 27.5166 11.5618 27.3936 11.7988C27.2705 12.0312 27.209 12.3001 27.209 12.6055V17.5H25.7256V12.4004C25.7256 11.9902 25.5934 11.6621 25.3291 11.416C25.0693 11.1699 24.7367 11.0469 24.3311 11.0469C24.0531 11.0469 23.7933 11.113 23.5518 11.2451C23.3148 11.3727 23.1234 11.5641 22.9775 11.8193C22.8363 12.07 22.7656 12.3799 22.7656 12.749V17.5H21.2617ZM36.998 17.6572C36.2461 17.6572 35.5967 17.4954 35.0498 17.1719C34.5029 16.8483 34.0814 16.3926 33.7852 15.8047C33.4935 15.2168 33.3477 14.5264 33.3477 13.7334C33.3477 12.9495 33.4912 12.2591 33.7783 11.6621C34.07 11.0651 34.4801 10.6003 35.0088 10.2676C35.5374 9.93034 36.1572 9.76172 36.8682 9.76172C37.3057 9.76172 37.7272 9.83464 38.1328 9.98047C38.5384 10.1217 38.903 10.3451 39.2266 10.6504C39.5501 10.9557 39.8053 11.3522 39.9922 11.8398C40.1836 12.3229 40.2793 12.9108 40.2793 13.6035V14.1367H34.1885V13.0156H39.5068L38.8027 13.3848C38.8027 12.9154 38.7298 12.5029 38.584 12.1475C38.4382 11.7874 38.2217 11.5072 37.9346 11.3066C37.652 11.1061 37.2965 11.0059 36.8682 11.0059C36.4443 11.0059 36.082 11.1084 35.7812 11.3135C35.4805 11.5186 35.2503 11.7897 35.0908 12.127C34.9359 12.4596 34.8584 12.8242 34.8584 13.2207V13.9863C34.8584 14.5104 34.9473 14.9548 35.125 15.3193C35.3073 15.6794 35.5602 15.9528 35.8838 16.1396C36.2074 16.3219 36.5833 16.4131 37.0117 16.4131C37.2943 16.4131 37.5495 16.3743 37.7773 16.2969C38.0052 16.2148 38.2012 16.0941 38.3652 15.9346C38.5339 15.7705 38.6615 15.57 38.748 15.333L40.1631 15.668C40.04 16.0599 39.8327 16.4062 39.541 16.707C39.2539 17.0078 38.8939 17.2425 38.4609 17.4111C38.0326 17.5752 37.5449 17.6572 36.998 17.6572Z" fill="#111827"/>
<g clip-path="url(#clip0_4632_72801)">
<rect x="1" y="28.5" width="514" height="36" rx="4" fill="white"/>
<path d="M504 44L499 49L494 44" stroke="#111827" stroke-linecap="round" stroke-linejoin="round"/>
</g>
<rect x="1" y="28.5" width="514" height="36" rx="4" stroke="#E4E4E7"/>
<rect x="1.5" y="97" width="149" height="103" rx="3.5" fill="white"/>
<rect x="1.5" y="97" width="149" height="103" rx="3.5" stroke="#E4E4E7"/>
<path d="M73.0162 120.063C74.4589 118.462 75.6815 116.86 75.9504 116.517C75.9749 116.494 76.0238 116.494 76.0482 116.517C76.2927 116.86 77.5398 118.462 78.9824 120.063C91.306 134.773 77.0507 144.702 77.0507 144.702L76.9285 144.771C76.8307 146.304 76.5617 148.5 76.5617 148.5H76.0238H75.4858C75.4858 148.5 75.2169 146.304 75.1191 144.771L74.9968 144.679C74.9479 144.702 60.6927 134.773 73.0162 120.063ZM75.9993 144.474C75.9993 144.474 76.6351 143.97 76.8062 143.696V143.673L76.0238 127.659C76.0238 127.613 75.9504 127.613 75.9504 127.659L75.168 143.673V143.696C75.3391 143.97 75.9993 144.474 75.9993 144.474Z" fill="#111827"/>
<path d="M43.6279 175.5V165.314H45.9248L48.1465 171.159C48.2103 171.332 48.2809 171.551 48.3584 171.815C48.4404 172.08 48.5247 172.367 48.6113 172.677C48.6979 172.987 48.7799 173.292 48.8574 173.593C48.9349 173.894 49.0033 174.165 49.0625 174.406H48.7344C48.7936 174.178 48.862 173.916 48.9395 173.62C49.0169 173.319 49.099 173.014 49.1855 172.704C49.2721 172.394 49.3564 172.103 49.4385 171.829C49.5205 171.556 49.5934 171.332 49.6572 171.159L51.8447 165.314H54.1553V175.5H52.6035V170.018C52.6035 169.808 52.6058 169.557 52.6104 169.266C52.6149 168.974 52.6195 168.666 52.624 168.343C52.6331 168.015 52.64 167.684 52.6445 167.352C52.6536 167.019 52.6605 166.7 52.665 166.395H52.7812C52.6901 166.727 52.5898 167.071 52.4805 167.427C52.3757 167.778 52.2708 168.117 52.166 168.445C52.0658 168.773 51.9678 169.074 51.8721 169.348C51.7809 169.617 51.7035 169.84 51.6396 170.018L49.5547 175.5H48.2217L46.1094 170.018C46.041 169.844 45.9613 169.626 45.8701 169.361C45.7835 169.092 45.6878 168.796 45.583 168.473C45.4782 168.145 45.3711 167.805 45.2617 167.454C45.1523 167.099 45.043 166.745 44.9336 166.395H45.0703C45.0794 166.673 45.0863 166.976 45.0908 167.304C45.0999 167.627 45.1068 167.955 45.1113 168.288C45.1204 168.621 45.1273 168.938 45.1318 169.238C45.141 169.535 45.1455 169.794 45.1455 170.018V175.5H43.6279ZM59.5078 175.657C58.7923 175.657 58.1657 175.493 57.6279 175.165C57.0947 174.837 56.68 174.377 56.3838 173.784C56.0876 173.192 55.9395 172.504 55.9395 171.72C55.9395 170.927 56.0876 170.234 56.3838 169.642C56.68 169.045 57.0947 168.582 57.6279 168.254C58.1657 167.926 58.7923 167.762 59.5078 167.762C60.2279 167.762 60.8545 167.926 61.3877 168.254C61.9255 168.582 62.3424 169.045 62.6387 169.642C62.9349 170.234 63.083 170.927 63.083 171.72C63.083 172.504 62.9349 173.192 62.6387 173.784C62.3424 174.377 61.9255 174.837 61.3877 175.165C60.8545 175.493 60.2279 175.657 59.5078 175.657ZM59.5078 174.386C59.9727 174.386 60.3555 174.265 60.6562 174.023C60.9616 173.777 61.1872 173.454 61.333 173.053C61.4834 172.647 61.5586 172.203 61.5586 171.72C61.5586 171.232 61.4834 170.785 61.333 170.38C61.1872 169.97 60.9616 169.644 60.6562 169.402C60.3555 169.156 59.9727 169.033 59.5078 169.033C59.0475 169.033 58.667 169.156 58.3662 169.402C58.0654 169.644 57.8398 169.967 57.6895 170.373C57.5436 170.779 57.4707 171.228 57.4707 171.72C57.4707 172.203 57.5436 172.647 57.6895 173.053C57.8398 173.454 58.0654 173.777 58.3662 174.023C58.667 174.265 59.0475 174.386 59.5078 174.386ZM66.2617 170.975V175.5H64.7578V167.857H66.1934L66.207 169.73H66.0498C66.2731 169.047 66.5967 168.548 67.0205 168.233C67.4443 167.919 67.957 167.762 68.5586 167.762C69.0781 167.762 69.5316 167.871 69.9189 168.09C70.3063 168.309 70.6094 168.632 70.8281 169.061C71.0469 169.484 71.1562 170.013 71.1562 170.646V175.5H69.6523V170.831C69.6523 170.28 69.5088 169.849 69.2217 169.539C68.9346 169.229 68.5404 169.074 68.0391 169.074C67.7018 169.074 67.3988 169.149 67.1299 169.3C66.861 169.446 66.6491 169.66 66.4941 169.942C66.3392 170.225 66.2617 170.569 66.2617 170.975ZM76.3721 178.521C75.7842 178.521 75.2738 178.446 74.8408 178.296C74.4079 178.146 74.0501 177.945 73.7676 177.694C73.4896 177.444 73.2777 177.166 73.1318 176.86L74.3896 176.266C74.4808 176.411 74.6016 176.564 74.752 176.724C74.9069 176.888 75.1143 177.027 75.374 177.141C75.6338 177.255 75.9665 177.312 76.3721 177.312C76.9554 177.312 77.4271 177.173 77.7871 176.895C78.1517 176.621 78.334 176.19 78.334 175.603V174.112H78.2041C78.113 174.281 77.9854 174.463 77.8213 174.659C77.6618 174.855 77.4362 175.026 77.1445 175.172C76.8574 175.313 76.4814 175.384 76.0166 175.384C75.415 175.384 74.8727 175.243 74.3896 174.96C73.9111 174.677 73.5306 174.258 73.248 173.702C72.9655 173.146 72.8242 172.463 72.8242 171.651C72.8242 170.84 72.9632 170.145 73.2412 169.566C73.5238 168.983 73.9066 168.536 74.3896 168.227C74.8773 167.917 75.4264 167.762 76.0371 167.762C76.5065 167.762 76.887 167.839 77.1787 167.994C77.4749 168.149 77.7051 168.334 77.8691 168.548C78.0378 168.757 78.1654 168.942 78.252 169.102H78.3613V167.857H79.8311V175.609C79.8311 176.279 79.6784 176.828 79.373 177.257C79.0723 177.69 78.6598 178.009 78.1357 178.214C77.6162 178.419 77.0283 178.521 76.3721 178.521ZM76.3652 174.133C76.7936 174.133 77.1536 174.035 77.4453 173.839C77.7415 173.638 77.9648 173.351 78.1152 172.978C78.2656 172.599 78.3408 172.15 78.3408 171.631C78.3408 171.116 78.2656 170.665 78.1152 170.277C77.9648 169.89 77.7415 169.587 77.4453 169.368C77.1536 169.149 76.7936 169.04 76.3652 169.04C75.9232 169.04 75.554 169.156 75.2578 169.389C74.9616 169.617 74.7383 169.926 74.5879 170.318C74.4375 170.706 74.3623 171.143 74.3623 171.631C74.3623 172.128 74.4375 172.565 74.5879 172.943C74.7383 173.317 74.9616 173.609 75.2578 173.818C75.5586 174.028 75.9277 174.133 76.3652 174.133ZM85.0742 175.657C84.3587 175.657 83.7321 175.493 83.1943 175.165C82.6611 174.837 82.2464 174.377 81.9502 173.784C81.654 173.192 81.5059 172.504 81.5059 171.72C81.5059 170.927 81.654 170.234 81.9502 169.642C82.2464 169.045 82.6611 168.582 83.1943 168.254C83.7321 167.926 84.3587 167.762 85.0742 167.762C85.7943 167.762 86.4209 167.926 86.9541 168.254C87.4919 168.582 87.9089 169.045 88.2051 169.642C88.5013 170.234 88.6494 170.927 88.6494 171.72C88.6494 172.504 88.5013 173.192 88.2051 173.784C87.9089 174.377 87.4919 174.837 86.9541 175.165C86.4209 175.493 85.7943 175.657 85.0742 175.657ZM85.0742 174.386C85.5391 174.386 85.9219 174.265 86.2227 174.023C86.528 173.777 86.7536 173.454 86.8994 173.053C87.0498 172.647 87.125 172.203 87.125 171.72C87.125 171.232 87.0498 170.785 86.8994 170.38C86.7536 169.97 86.528 169.644 86.2227 169.402C85.9219 169.156 85.5391 169.033 85.0742 169.033C84.6139 169.033 84.2334 169.156 83.9326 169.402C83.6318 169.644 83.4062 169.967 83.2559 170.373C83.11 170.779 83.0371 171.228 83.0371 171.72C83.0371 172.203 83.11 172.647 83.2559 173.053C83.4062 173.454 83.6318 173.777 83.9326 174.023C84.2334 174.265 84.6139 174.386 85.0742 174.386ZM93.749 175.5H91.2334V174.133H93.667C94.4372 174.133 95.0775 173.989 95.5879 173.702C96.0983 173.415 96.4811 172.993 96.7363 172.438C96.9915 171.877 97.1191 171.196 97.1191 170.394C97.1191 169.596 96.9915 168.922 96.7363 168.37C96.4857 167.819 96.1097 167.399 95.6084 167.112C95.1117 166.825 94.4919 166.682 93.749 166.682H91.1787V165.314H93.8516C94.8542 165.314 95.7132 165.517 96.4287 165.923C97.1442 166.328 97.6934 166.912 98.0762 167.673C98.459 168.429 98.6504 169.336 98.6504 170.394C98.6504 171.455 98.4567 172.367 98.0693 173.128C97.6865 173.889 97.1283 174.475 96.3945 174.885C95.6654 175.295 94.7835 175.5 93.749 175.5ZM91.999 165.314V175.5H90.4404V165.314H91.999ZM100.544 175.5V165.314H104.297C105.021 165.314 105.621 165.433 106.095 165.67C106.569 165.907 106.922 166.228 107.154 166.634C107.387 167.035 107.503 167.486 107.503 167.987C107.503 168.411 107.425 168.769 107.271 169.061C107.116 169.348 106.906 169.58 106.642 169.758C106.382 169.931 106.095 170.059 105.78 170.141V170.243C106.122 170.257 106.455 170.366 106.778 170.571C107.102 170.772 107.368 171.057 107.578 171.426C107.792 171.79 107.899 172.235 107.899 172.759C107.899 173.274 107.776 173.739 107.53 174.153C107.289 174.568 106.915 174.896 106.409 175.138C105.903 175.379 105.254 175.5 104.461 175.5H100.544ZM102.103 174.16H104.304C105.033 174.16 105.557 174.019 105.876 173.736C106.195 173.454 106.354 173.103 106.354 172.684C106.354 172.355 106.272 172.059 106.108 171.795C105.949 171.531 105.721 171.321 105.425 171.166C105.129 171.007 104.775 170.927 104.365 170.927H102.103V174.16ZM102.103 169.724H104.146C104.488 169.724 104.798 169.658 105.076 169.525C105.354 169.393 105.573 169.206 105.732 168.965C105.892 168.723 105.972 168.441 105.972 168.117C105.972 167.698 105.826 167.349 105.534 167.071C105.243 166.789 104.794 166.647 104.188 166.647H102.103V169.724Z" fill="#111827"/>
<rect x="183.5" y="97" width="149" height="103" rx="3.5" fill="white"/>
<rect x="183.5" y="97" width="149" height="103" rx="3.5" stroke="#E4E4E7"/>
<path d="M256.275 119.651C256.275 119.663 256.425 119.944 256.613 120.294C256.8 120.638 256.931 120.932 256.913 120.951C256.894 120.963 256.369 121.163 255.75 121.382C255.125 121.607 254.631 121.794 254.638 121.801C254.644 121.807 255.35 121.882 256.2 121.963C257.225 122.057 257.763 122.126 257.8 122.169C257.831 122.201 258.069 122.582 258.325 123.007L258.788 123.782L258.869 123.588C258.913 123.488 259.056 123.144 259.181 122.838L259.413 122.282L260.644 122.151C261.319 122.076 261.919 122.019 261.981 122.019L262.088 121.976C262.088 121.957 261.631 121.769 261.069 121.557C260.513 121.351 260.05 121.169 260.05 121.163C260.05 121.157 260.169 120.863 260.319 120.507C260.463 120.151 260.575 119.851 260.569 119.844C260.556 119.832 260.081 119.976 259.519 120.157L258.5 120.494L257.406 120.063C256.331 119.638 256.275 119.619 256.275 119.651ZM263.063 123.344C261.756 123.863 260.681 124.294 260.675 124.307C260.663 124.319 261.638 124.713 262.838 125.188L265.013 126.044L265.244 125.951C267.669 125.007 269.869 124.132 269.862 124.119L265.494 122.401C265.45 122.407 264.363 122.826 263.063 123.344ZM250.525 122.838C249.269 122.969 248.219 123.332 247.775 123.794C247.469 124.107 247.419 124.376 247.613 124.701C247.894 125.188 248.819 125.594 250.094 125.801C250.669 125.901 252.35 125.882 252.931 125.782C254.294 125.544 255.181 125.107 255.388 124.557C255.463 124.351 255.463 124.326 255.388 124.126C255.181 123.594 254.313 123.151 253.025 122.926C252.375 122.819 251.163 122.776 250.525 122.838ZM273.856 124.351C273.794 124.432 273.562 124.619 273.337 124.769C272.675 125.194 271.825 125.582 266.519 127.869C262.788 129.469 261.838 129.894 260.55 130.513C259.119 131.194 258.525 131.388 257.806 131.388C257.163 131.388 256.775 131.276 255.575 130.744C255.094 130.532 253.125 129.707 251.206 128.907C242.8 125.413 242.644 125.338 242.194 124.851L242.007 124.644V127.938L242.219 128.144C242.425 128.344 243.119 128.763 243.363 128.832C243.432 128.851 243.888 129.038 244.382 129.251C244.875 129.463 247.288 130.476 249.744 131.501C253.806 133.194 254.731 133.582 256.119 134.188C256.85 134.513 257.256 134.594 257.95 134.569C258.456 134.55 258.606 134.519 259.05 134.369C259.338 134.275 259.831 134.063 260.15 133.9C261.206 133.369 262.481 132.807 267.563 130.619C272.344 128.557 272.969 128.269 273.487 127.913C274.019 127.532 274 127.626 274 125.788C274 124.907 273.994 124.188 273.987 124.188L273.856 124.351ZM257.119 126.501C255.163 126.801 253.544 127.057 253.513 127.069C253.469 127.082 258.388 129.151 258.594 129.207L260.844 125.976C260.838 125.932 260.844 125.926 257.119 126.501ZM273.887 129.776C273.844 129.851 273.637 130.026 273.444 130.169C272.806 130.607 271.85 131.044 266.038 133.544C262.694 134.988 261.644 135.45 260.65 135.932C259.038 136.713 258.65 136.838 257.788 136.838C257.119 136.832 256.706 136.725 255.819 136.325C254.963 135.932 254.006 135.532 250.169 133.938C243.475 131.163 242.707 130.813 242.232 130.357L242 130.138V133.388L242.263 133.638C242.688 134.038 242.644 134.013 249.819 137C252.45 138.094 254.931 139.138 255.331 139.319C256.388 139.794 256.694 139.907 257.113 139.994C258.088 140.194 258.813 140.032 260.394 139.263C261.425 138.763 262.681 138.207 265.725 136.894C271.512 134.4 272.937 133.757 273.362 133.476C273.512 133.369 273.719 133.201 273.819 133.088L274 132.888V131.263C274 130.369 273.994 129.638 273.987 129.638L273.887 129.776ZM273.831 135.1C273.45 135.582 272.681 135.95 266.713 138.519C262.819 140.2 261.631 140.725 260.35 141.332C259.006 141.969 258.563 142.107 257.788 142.107C257.256 142.107 256.719 141.982 256.125 141.719C254.731 141.107 253.813 140.719 249.744 139.025C245.119 137.1 243.638 136.469 243.144 136.225C242.682 135.994 242.213 135.663 242.107 135.494L242 135.338V136.994C242 138.894 241.969 138.75 242.475 139.094C243.038 139.469 243.875 139.844 249.432 142.15C253.313 143.763 254.713 144.35 255.4 144.663C256.806 145.294 257.181 145.394 257.969 145.35C258.688 145.319 259.156 145.163 260.4 144.569C261.694 143.95 262.65 143.519 266.881 141.7C272.756 139.169 273.394 138.863 273.837 138.35L273.994 138.175V136.557C273.994 135.663 273.987 134.932 273.981 134.932L273.831 135.1Z" fill="#111827"/>
<path d="M240.628 175.5V165.314H244.278C245.062 165.314 245.716 165.451 246.24 165.725C246.764 165.993 247.156 166.369 247.416 166.853C247.676 167.336 247.806 167.889 247.806 168.514C247.806 169.143 247.674 169.694 247.409 170.168C247.149 170.637 246.757 171.002 246.233 171.262C245.709 171.521 245.053 171.651 244.265 171.651H241.523V170.318H244.114C244.616 170.318 245.019 170.248 245.324 170.106C245.634 169.961 245.862 169.753 246.008 169.484C246.154 169.215 246.227 168.892 246.227 168.514C246.227 168.131 246.154 167.8 246.008 167.522C245.862 167.244 245.634 167.03 245.324 166.88C245.014 166.725 244.606 166.647 244.101 166.647H242.187V175.5H240.628ZM246.418 175.5L243.95 170.899H245.68L248.188 175.5H246.418ZM252.693 175.657C251.941 175.657 251.292 175.495 250.745 175.172C250.198 174.848 249.777 174.393 249.48 173.805C249.189 173.217 249.043 172.526 249.043 171.733C249.043 170.95 249.187 170.259 249.474 169.662C249.765 169.065 250.175 168.6 250.704 168.268C251.233 167.93 251.853 167.762 252.563 167.762C253.001 167.762 253.423 167.835 253.828 167.98C254.234 168.122 254.598 168.345 254.922 168.65C255.245 168.956 255.501 169.352 255.688 169.84C255.879 170.323 255.975 170.911 255.975 171.604V172.137H249.884V171.016H255.202L254.498 171.385C254.498 170.915 254.425 170.503 254.279 170.147C254.133 169.787 253.917 169.507 253.63 169.307C253.347 169.106 252.992 169.006 252.563 169.006C252.14 169.006 251.777 169.108 251.477 169.313C251.176 169.519 250.946 169.79 250.786 170.127C250.631 170.46 250.554 170.824 250.554 171.221V171.986C250.554 172.51 250.643 172.955 250.82 173.319C251.003 173.679 251.256 173.953 251.579 174.14C251.903 174.322 252.279 174.413 252.707 174.413C252.99 174.413 253.245 174.374 253.473 174.297C253.701 174.215 253.896 174.094 254.061 173.935C254.229 173.771 254.357 173.57 254.443 173.333L255.858 173.668C255.735 174.06 255.528 174.406 255.236 174.707C254.949 175.008 254.589 175.243 254.156 175.411C253.728 175.575 253.24 175.657 252.693 175.657ZM260.473 175.65C259.853 175.65 259.301 175.493 258.818 175.179C258.335 174.86 257.957 174.406 257.684 173.818C257.41 173.226 257.273 172.52 257.273 171.699C257.273 170.87 257.412 170.161 257.69 169.573C257.968 168.985 258.349 168.536 258.832 168.227C259.315 167.917 259.862 167.762 260.473 167.762C260.947 167.762 261.327 167.841 261.614 168.001C261.906 168.156 262.134 168.338 262.298 168.548C262.462 168.757 262.587 168.942 262.674 169.102H262.756V165.314H264.26V175.5H262.797V174.304H262.674C262.587 174.468 262.46 174.655 262.291 174.864C262.122 175.074 261.892 175.258 261.601 175.418C261.309 175.573 260.933 175.65 260.473 175.65ZM260.801 174.372C261.229 174.372 261.589 174.258 261.881 174.03C262.177 173.802 262.4 173.488 262.551 173.087C262.706 172.681 262.783 172.214 262.783 171.686C262.783 171.152 262.708 170.69 262.558 170.298C262.407 169.901 262.184 169.594 261.888 169.375C261.596 169.152 261.234 169.04 260.801 169.04C260.359 169.04 259.99 169.156 259.693 169.389C259.402 169.621 259.181 169.938 259.03 170.339C258.884 170.735 258.812 171.184 258.812 171.686C258.812 172.191 258.887 172.647 259.037 173.053C259.188 173.458 259.411 173.78 259.707 174.017C260.003 174.254 260.368 174.372 260.801 174.372ZM266.283 175.5V167.857H267.787V175.5H266.283ZM267.042 166.688C266.782 166.688 266.559 166.602 266.372 166.429C266.19 166.256 266.099 166.046 266.099 165.8C266.099 165.549 266.19 165.337 266.372 165.164C266.559 164.991 266.782 164.904 267.042 164.904C267.302 164.904 267.525 164.991 267.712 165.164C267.899 165.337 267.992 165.549 267.992 165.8C267.992 166.046 267.899 166.256 267.712 166.429C267.525 166.602 267.302 166.688 267.042 166.688ZM272.552 175.657C272 175.657 271.508 175.577 271.075 175.418C270.647 175.258 270.294 175.024 270.016 174.714C269.742 174.399 269.56 174.017 269.469 173.565L270.884 173.271C270.989 173.668 271.185 173.962 271.472 174.153C271.759 174.345 272.123 174.44 272.565 174.44C273.049 174.44 273.434 174.34 273.721 174.14C274.008 173.935 274.151 173.691 274.151 173.408C274.151 173.162 274.062 172.959 273.885 172.8C273.712 172.64 273.443 172.522 273.078 172.444L271.793 172.15C271.082 171.991 270.553 171.736 270.207 171.385C269.861 171.034 269.688 170.585 269.688 170.038C269.688 169.582 269.815 169.184 270.07 168.842C270.326 168.5 270.674 168.236 271.116 168.049C271.558 167.857 272.069 167.762 272.647 167.762C273.199 167.762 273.671 167.841 274.062 168.001C274.454 168.16 274.771 168.384 275.013 168.671C275.259 168.958 275.434 169.291 275.539 169.669L274.192 169.963C274.097 169.694 273.93 169.459 273.693 169.259C273.456 169.054 273.112 168.951 272.661 168.951C272.246 168.951 271.9 169.045 271.622 169.231C271.344 169.418 271.205 169.655 271.205 169.942C271.205 170.198 271.296 170.405 271.479 170.564C271.665 170.719 271.968 170.845 272.388 170.94L273.618 171.214C274.325 171.373 274.849 171.624 275.19 171.966C275.532 172.308 275.703 172.745 275.703 173.278C275.703 173.743 275.569 174.156 275.3 174.516C275.035 174.871 274.666 175.151 274.192 175.356C273.723 175.557 273.176 175.657 272.552 175.657Z" fill="#111827"/>
<rect x="365.5" y="97" width="149" height="103" rx="3.5" fill="white"/>
<rect x="365.5" y="97" width="149" height="103" rx="3.5" stroke="#E4E4E7"/>
<path fill-rule="evenodd" clip-rule="evenodd" d="M449.019 139.789C449.016 139.814 449.013 139.835 449.011 139.854C448.928 143.195 448.39 145.114 447.547 146.309C446.58 147.695 445.375 148.062 444.02 148.352C440.534 149.097 439.799 146.852 439.39 145.59C439.382 145.567 439.375 145.546 439.367 145.525C439.351 145.478 439.336 145.434 439.318 145.388C439.142 144.907 439.028 144.302 438.951 143.619C438.878 142.968 438.842 142.295 438.816 141.618C438.81 141.504 438.806 141.363 438.802 141.211C438.798 141.099 438.795 140.981 438.79 140.862C438.785 140.666 438.796 140.48 438.811 140.309C438.425 140.481 438.018 140.602 437.601 140.671C436.535 140.852 435.578 140.682 435.004 140.537C434.523 140.418 433.913 140.138 433.535 139.781C433.473 139.724 433.411 139.657 433.359 139.595C433.039 139.859 432.708 140.045 432.371 140.164C431.12 140.614 430.018 140.144 429.061 139.078C428.368 138.313 427.747 137.185 427.199 135.887C425.616 132.132 424.571 126.716 424.504 125.382C423.946 114.219 433.986 116.888 436.722 117.819C437.202 117.533 437.716 117.309 438.253 117.152C438.998 116.93 439.825 116.811 440.741 116.826C441.206 116.832 441.667 116.863 442.132 116.909C442.454 116.944 442.775 116.991 443.094 117.049C444.212 116.728 446.829 116.154 449.456 116.78C451.256 117.209 453.098 118.161 454.587 120.059C455.57 121.316 455.56 124.176 454.649 127.466C453.993 129.845 452.886 132.53 451.381 135.028C451.717 134.945 452.25 134.832 453.093 134.656C453.749 134.521 454.262 134.568 454.634 134.749C455.281 135.059 455.56 135.571 455.513 136.239C455.493 136.58 455.353 136.916 455.125 137.237C454.748 137.749 453.925 138.395 452.948 138.851C452.472 139.068 451.856 139.239 451.22 139.347C450.579 139.456 449.911 139.502 449.337 139.476H449.28L449.058 139.456C449.053 139.507 449.047 139.559 449.037 139.616C449.03 139.689 449.024 139.745 449.019 139.789ZM448.949 135.323C448.365 135.488 447.527 135.794 447.614 137.49C447.573 137.992 447.418 139.404 447.242 140.78C447.097 141.907 446.942 143.045 446.833 143.697C446.678 144.586 446.435 145.228 445.996 145.678C445.561 146.133 444.899 146.433 443.921 146.645C442.804 146.883 442.101 146.65 441.646 146.262C441.175 145.864 440.927 145.29 440.771 144.902C440.627 144.53 440.518 143.537 440.456 142.207C440.394 140.873 440.384 139.233 440.42 137.573C440.42 137.546 440.421 137.52 440.421 137.493C440.426 137.167 440.432 136.864 440.321 136.549C440.187 136.181 439.949 135.85 439.654 135.638C439.38 135.442 438.987 135.307 438.651 135.338C438.588 135.344 438.526 135.354 438.465 135.369C438.522 135.142 438.604 134.894 438.698 134.631C438.815 134.301 438.844 134.202 438.879 134.106C438.92 133.992 438.972 133.882 439.194 133.393C439.753 132.147 440.466 130.554 439.67 126.855C439.442 125.821 438.863 125.278 438.134 125.05C437.668 124.906 437.151 124.895 436.639 124.973C436.147 125.05 435.656 125.201 435.222 125.376C434.949 125.49 434.686 125.625 434.435 125.78C434.606 123.618 435.547 118.476 440.714 118.564C444.997 118.631 447.402 121.44 448.51 123.452C448.789 123.953 448.98 124.404 449.099 124.745L449.101 124.748C449.11 124.773 449.12 124.798 449.125 124.823C446.596 124.559 445.582 125.438 445.37 126.767C445.07 128.635 446.591 131.361 447.361 132.742C447.379 132.774 447.397 132.805 447.414 132.836C447.569 133.115 447.687 133.327 447.728 133.43C448.033 134.169 448.411 134.645 448.711 135.012C448.73 135.037 448.749 135.061 448.767 135.084C448.837 135.173 448.9 135.253 448.949 135.323ZM437.896 137.04C437.347 137.739 437.176 137.95 435.475 138.302C435.17 138.364 434.962 138.431 434.838 138.494C434.994 138.602 435.232 138.7 435.438 138.752C435.858 138.856 436.556 138.985 437.295 138.856C438.025 138.732 438.806 138.359 439.442 137.475C439.572 137.294 439.545 137.046 439.478 136.844C439.406 136.647 439.282 136.471 439.137 136.368C439.028 136.29 438.852 136.223 438.728 136.233C438.652 136.238 438.58 136.271 438.527 136.326C438.303 136.552 438.092 136.79 437.896 137.04ZM434.59 134.687C434.714 134.82 434.845 134.946 434.983 135.064C434.154 135.948 433.352 136.857 432.578 137.79C432.294 138.131 432.025 138.338 431.776 138.426C431.321 138.592 430.851 138.343 430.39 137.831C429.837 137.216 429.314 136.259 428.844 135.142C427.344 131.588 426.356 126.493 426.294 125.247C425.869 116.702 433.644 118.6 436.049 119.392C433.385 122.009 433.504 126.69 433.509 126.726C433.505 126.823 433.512 126.942 433.52 127.094C433.522 127.12 433.523 127.148 433.525 127.176C433.571 127.905 433.654 129.307 433.437 130.864C433.382 131.243 433.373 131.627 433.411 132.007C433.509 133.047 433.944 133.978 434.59 134.687ZM449.29 123.023C448.453 121.492 446.922 119.542 444.485 118.466C445.654 118.228 447.537 118.021 449.425 118.564C450.754 118.952 452.089 119.713 453.18 121.104C453.811 121.916 453.692 124.171 452.927 126.939C452.265 129.344 451.106 132.09 449.518 134.589C449.483 134.548 449.448 134.503 449.413 134.458L449.41 134.454C449.394 134.439 449.379 134.418 449.363 134.397C450.284 132.887 450.108 131.428 449.942 130.058C449.875 129.52 449.813 129.002 449.828 128.511C449.848 128.017 449.91 127.594 449.97 127.187C449.973 127.168 449.976 127.149 449.978 127.13C450.066 126.581 450.144 126.059 450.123 125.423C450.123 125.415 450.125 125.407 450.126 125.4C450.127 125.392 450.128 125.384 450.128 125.376C450.154 125.226 450.097 124.885 449.942 124.451C449.766 123.957 449.548 123.479 449.29 123.023ZM434.413 126.985C434.409 126.897 434.404 126.809 434.404 126.721C434.409 126.7 434.906 126.473 435.558 126.204C435.936 126.054 436.355 125.919 436.768 125.857C437.161 125.8 437.544 125.8 437.87 125.904C438.299 126.038 438.651 126.38 438.791 127.042C439.53 130.461 438.884 131.898 438.377 133.026C438.119 133.594 438.041 133.813 437.944 134.089C437.92 134.157 437.895 134.228 437.866 134.308C437.758 134.605 437.663 134.889 437.596 135.162L437.586 135.162C437.455 135.157 437.318 135.152 437.187 135.131C436.442 135.028 435.764 134.645 435.252 134.081C434.708 133.486 434.374 132.728 434.301 131.924C434.27 131.625 434.275 131.309 434.321 130.988C434.554 129.328 434.466 127.874 434.42 127.124C434.418 127.078 434.416 127.032 434.413 126.985ZM438.134 126.499C437.836 126.339 437.387 126.278 437.057 126.349C436.827 126.406 436.729 126.519 436.722 126.653C436.714 126.787 436.798 126.943 436.933 127.088C437.073 127.233 437.27 127.362 437.492 127.393H437.497C437.725 127.425 437.937 127.347 438.092 127.243C438.258 127.13 438.366 126.974 438.382 126.866C438.397 126.726 438.304 126.597 438.134 126.499ZM446.249 126.907C446.389 126.033 447.18 125.474 449.228 125.728C449.223 126.178 449.161 126.581 449.094 127L449.087 127.046C449.022 127.483 448.953 127.94 448.933 128.485C448.918 129.017 448.982 129.565 449.048 130.127L449.052 130.161C449.187 131.268 449.326 132.437 448.788 133.575C448.706 133.43 448.628 133.264 448.551 133.088C448.483 132.928 448.338 132.659 448.142 132.312C447.418 131.014 446.001 128.469 446.249 126.907ZM449.401 136.123C449.429 136.114 449.456 136.107 449.482 136.099C450.536 136.894 452.298 136.566 453.464 136.349L453.475 136.347C453.196 136.616 452.741 136.921 452.197 137.175C451.67 137.417 450.842 137.583 450.066 137.629C449.621 137.65 449.202 137.64 448.887 137.573C448.685 137.536 448.551 137.495 448.509 137.454C448.458 136.393 448.944 136.255 449.255 136.167L449.259 136.166C449.307 136.15 449.356 136.136 449.401 136.123ZM448.204 126.737C448.334 126.602 448.411 126.442 448.396 126.349C448.38 126.24 448.277 126.162 448.117 126.126C447.977 126.09 447.791 126.085 447.594 126.111C447.398 126.142 447.222 126.198 447.098 126.266C446.949 126.351 446.889 126.447 446.89 126.542C446.893 126.682 447.027 126.821 447.211 126.923C447.367 127.007 447.524 127.037 447.674 127.02C447.866 126.999 448.048 126.899 448.204 126.737ZM453.268 135.478C450.925 135.964 450.226 135.659 450.02 135.462C451.783 132.783 453.066 129.783 453.785 127.176C454.623 124.145 454.69 121.59 453.883 120.555C452.658 118.993 451.163 118.14 449.673 117.71C447.418 117.059 445.194 117.379 443.978 117.664C443.956 117.669 443.935 117.673 443.915 117.678C443.851 117.692 443.798 117.704 443.751 117.715C443.725 117.726 443.264 117.855 442.938 117.943C442.261 117.777 441.521 117.679 440.73 117.669C439.096 117.643 437.833 118.057 436.856 118.724C435.211 118.114 424.871 114.695 425.399 125.288C425.466 126.576 426.48 131.836 428.021 135.488C428.533 136.698 429.102 137.738 429.723 138.431C430.436 139.217 431.218 139.574 432.071 139.269C432.474 139.124 432.878 138.835 433.266 138.364C434.357 137.05 435.355 135.969 435.728 135.576C436.144 135.8 436.595 135.949 437.063 136.016C437.208 136.036 437.355 136.048 437.502 136.052C437.502 136.073 437.502 136.093 437.507 136.114C437.398 136.235 437.293 136.359 437.192 136.486C436.799 136.988 436.675 137.143 435.299 137.428C434.678 137.557 434.306 137.728 434.104 137.919C433.892 138.116 433.825 138.338 433.856 138.566C433.887 138.762 433.99 138.933 434.145 139.078C434.409 139.326 434.859 139.528 435.221 139.621C435.718 139.745 436.546 139.895 437.45 139.74C438.133 139.621 438.852 139.331 439.504 138.742C439.494 140.004 439.514 141.219 439.561 142.249C439.628 143.661 439.752 144.763 439.944 145.233C440.135 145.709 440.435 146.418 441.066 146.95C441.707 147.489 442.659 147.83 444.107 147.52C445.266 147.271 446.068 146.893 446.642 146.299C447.216 145.704 447.526 144.918 447.713 143.847C447.821 143.216 447.981 142.058 448.126 140.888C448.245 139.957 448.354 139.037 448.426 138.38C448.514 138.406 448.613 138.431 448.711 138.452C449.109 138.53 449.601 138.55 450.113 138.525C450.987 138.473 451.944 138.276 452.57 137.987C453.413 137.594 454.101 137.066 454.401 136.652C454.53 136.471 454.608 136.295 454.618 136.124C454.639 135.845 454.52 135.633 454.251 135.504C454.044 135.406 453.723 135.385 453.268 135.478Z" fill="#111827"/>
<path d="M401.128 175.5V165.314H404.778C405.562 165.314 406.216 165.46 406.74 165.752C407.264 166.044 407.656 166.438 407.916 166.935C408.176 167.431 408.306 167.994 408.306 168.623C408.306 169.252 408.174 169.817 407.909 170.318C407.649 170.815 407.257 171.209 406.733 171.501C406.209 171.788 405.553 171.932 404.765 171.932H402.27V170.612H404.614C405.116 170.612 405.521 170.526 405.831 170.353C406.141 170.179 406.367 169.942 406.508 169.642C406.654 169.341 406.727 169.001 406.727 168.623C406.727 168.24 406.654 167.901 406.508 167.604C406.367 167.304 406.139 167.069 405.824 166.9C405.514 166.732 405.106 166.647 404.601 166.647H402.687V175.5H401.128ZM413.111 175.657C412.396 175.657 411.769 175.493 411.231 175.165C410.698 174.837 410.284 174.377 409.987 173.784C409.691 173.192 409.543 172.504 409.543 171.72C409.543 170.927 409.691 170.234 409.987 169.642C410.284 169.045 410.698 168.582 411.231 168.254C411.769 167.926 412.396 167.762 413.111 167.762C413.831 167.762 414.458 167.926 414.991 168.254C415.529 168.582 415.946 169.045 416.242 169.642C416.538 170.234 416.687 170.927 416.687 171.72C416.687 172.504 416.538 173.192 416.242 173.784C415.946 174.377 415.529 174.837 414.991 175.165C414.458 175.493 413.831 175.657 413.111 175.657ZM413.111 174.386C413.576 174.386 413.959 174.265 414.26 174.023C414.565 173.777 414.791 173.454 414.937 173.053C415.087 172.647 415.162 172.203 415.162 171.72C415.162 171.232 415.087 170.785 414.937 170.38C414.791 169.97 414.565 169.644 414.26 169.402C413.959 169.156 413.576 169.033 413.111 169.033C412.651 169.033 412.271 169.156 411.97 169.402C411.669 169.644 411.443 169.967 411.293 170.373C411.147 170.779 411.074 171.228 411.074 171.72C411.074 172.203 411.147 172.647 411.293 173.053C411.443 173.454 411.669 173.777 411.97 174.023C412.271 174.265 412.651 174.386 413.111 174.386ZM421.103 175.657C420.551 175.657 420.059 175.577 419.626 175.418C419.198 175.258 418.844 175.024 418.566 174.714C418.293 174.399 418.111 174.017 418.02 173.565L419.435 173.271C419.539 173.668 419.735 173.962 420.022 174.153C420.31 174.345 420.674 174.44 421.116 174.44C421.599 174.44 421.984 174.34 422.271 174.14C422.559 173.935 422.702 173.691 422.702 173.408C422.702 173.162 422.613 172.959 422.436 172.8C422.262 172.64 421.993 172.522 421.629 172.444L420.344 172.15C419.633 171.991 419.104 171.736 418.758 171.385C418.411 171.034 418.238 170.585 418.238 170.038C418.238 169.582 418.366 169.184 418.621 168.842C418.876 168.5 419.225 168.236 419.667 168.049C420.109 167.857 420.619 167.762 421.198 167.762C421.75 167.762 422.221 167.841 422.613 168.001C423.005 168.16 423.322 168.384 423.563 168.671C423.81 168.958 423.985 169.291 424.09 169.669L422.743 169.963C422.647 169.694 422.481 169.459 422.244 169.259C422.007 169.054 421.663 168.951 421.212 168.951C420.797 168.951 420.451 169.045 420.173 169.231C419.895 169.418 419.756 169.655 419.756 169.942C419.756 170.198 419.847 170.405 420.029 170.564C420.216 170.719 420.519 170.845 420.938 170.94L422.169 171.214C422.875 171.373 423.399 171.624 423.741 171.966C424.083 172.308 424.254 172.745 424.254 173.278C424.254 173.743 424.119 174.156 423.851 174.516C423.586 174.871 423.217 175.151 422.743 175.356C422.274 175.557 421.727 175.657 421.103 175.657ZM429.176 167.857V169.081H425.033V167.857H429.176ZM426.147 166.039H427.651V173.436C427.651 173.741 427.715 173.966 427.843 174.112C427.975 174.254 428.189 174.324 428.485 174.324C428.563 174.324 428.665 174.315 428.793 174.297C428.921 174.279 429.03 174.26 429.121 174.242L429.388 175.445C429.228 175.5 429.057 175.539 428.875 175.562C428.693 175.589 428.513 175.603 428.335 175.603C427.642 175.603 427.104 175.425 426.722 175.069C426.339 174.709 426.147 174.206 426.147 173.559V166.039ZM433.735 178.521C433.147 178.521 432.637 178.446 432.204 178.296C431.771 178.146 431.413 177.945 431.131 177.694C430.853 177.444 430.641 177.166 430.495 176.86L431.753 176.266C431.844 176.411 431.965 176.564 432.115 176.724C432.27 176.888 432.478 177.027 432.737 177.141C432.997 177.255 433.33 177.312 433.735 177.312C434.319 177.312 434.79 177.173 435.15 176.895C435.515 176.621 435.697 176.19 435.697 175.603V174.112H435.567C435.476 174.281 435.349 174.463 435.185 174.659C435.025 174.855 434.799 175.026 434.508 175.172C434.221 175.313 433.845 175.384 433.38 175.384C432.778 175.384 432.236 175.243 431.753 174.96C431.274 174.677 430.894 174.258 430.611 173.702C430.329 173.146 430.188 172.463 430.188 171.651C430.188 170.84 430.326 170.145 430.604 169.566C430.887 168.983 431.27 168.536 431.753 168.227C432.241 167.917 432.79 167.762 433.4 167.762C433.87 167.762 434.25 167.839 434.542 167.994C434.838 168.149 435.068 168.334 435.232 168.548C435.401 168.757 435.529 168.942 435.615 169.102H435.725V167.857H437.194V175.609C437.194 176.279 437.042 176.828 436.736 177.257C436.436 177.69 436.023 178.009 435.499 178.214C434.979 178.419 434.392 178.521 433.735 178.521ZM433.729 174.133C434.157 174.133 434.517 174.035 434.809 173.839C435.105 173.638 435.328 173.351 435.479 172.978C435.629 172.599 435.704 172.15 435.704 171.631C435.704 171.116 435.629 170.665 435.479 170.277C435.328 169.89 435.105 169.587 434.809 169.368C434.517 169.149 434.157 169.04 433.729 169.04C433.286 169.04 432.917 169.156 432.621 169.389C432.325 169.617 432.102 169.926 431.951 170.318C431.801 170.706 431.726 171.143 431.726 171.631C431.726 172.128 431.801 172.565 431.951 172.943C432.102 173.317 432.325 173.609 432.621 173.818C432.922 174.028 433.291 174.133 433.729 174.133ZM439.225 175.5V167.857H440.681V169.088H440.763C440.904 168.669 441.15 168.34 441.501 168.104C441.852 167.867 442.251 167.748 442.697 167.748C442.793 167.748 442.902 167.753 443.025 167.762C443.148 167.766 443.251 167.775 443.333 167.789V169.225C443.278 169.206 443.174 169.188 443.019 169.17C442.864 169.152 442.706 169.143 442.547 169.143C442.201 169.143 441.888 169.215 441.61 169.361C441.332 169.507 441.116 169.71 440.961 169.97C440.806 170.225 440.729 170.521 440.729 170.858V175.5H439.225ZM447.66 175.657C446.908 175.657 446.259 175.495 445.712 175.172C445.165 174.848 444.743 174.393 444.447 173.805C444.156 173.217 444.01 172.526 444.01 171.733C444.01 170.95 444.153 170.259 444.44 169.662C444.732 169.065 445.142 168.6 445.671 168.268C446.2 167.93 446.819 167.762 447.53 167.762C447.968 167.762 448.389 167.835 448.795 167.98C449.201 168.122 449.565 168.345 449.889 168.65C450.212 168.956 450.467 169.352 450.654 169.84C450.846 170.323 450.941 170.911 450.941 171.604V172.137H444.851V171.016H450.169L449.465 171.385C449.465 170.915 449.392 170.503 449.246 170.147C449.1 169.787 448.884 169.507 448.597 169.307C448.314 169.106 447.959 169.006 447.53 169.006C447.106 169.006 446.744 169.108 446.443 169.313C446.143 169.519 445.912 169.79 445.753 170.127C445.598 170.46 445.521 170.824 445.521 171.221V171.986C445.521 172.51 445.609 172.955 445.787 173.319C445.969 173.679 446.222 173.953 446.546 174.14C446.869 174.322 447.245 174.413 447.674 174.413C447.956 174.413 448.212 174.374 448.439 174.297C448.667 174.215 448.863 174.094 449.027 173.935C449.196 173.771 449.324 173.57 449.41 173.333L450.825 173.668C450.702 174.06 450.495 174.406 450.203 174.707C449.916 175.008 449.556 175.243 449.123 175.411C448.695 175.575 448.207 175.657 447.66 175.657ZM456.13 175.671C455.369 175.671 454.708 175.55 454.147 175.309C453.587 175.067 453.147 174.723 452.828 174.276C452.514 173.825 452.34 173.29 452.309 172.67H453.874C453.906 173.039 454.024 173.344 454.229 173.586C454.439 173.827 454.71 174.007 455.043 174.126C455.376 174.244 455.736 174.304 456.123 174.304C456.556 174.304 456.939 174.238 457.271 174.105C457.609 173.969 457.875 173.777 458.071 173.531C458.267 173.281 458.365 172.991 458.365 172.663C458.365 172.367 458.279 172.125 458.105 171.938C457.937 171.747 457.707 171.59 457.415 171.467C457.128 171.339 456.8 171.228 456.431 171.132L455.241 170.804C454.407 170.58 453.756 170.25 453.286 169.812C452.821 169.375 452.589 168.808 452.589 168.11C452.589 167.522 452.746 167.01 453.061 166.572C453.38 166.13 453.81 165.788 454.353 165.547C454.899 165.301 455.515 165.178 456.198 165.178C456.896 165.178 457.508 165.301 458.037 165.547C458.57 165.788 458.987 166.121 459.288 166.545C459.593 166.969 459.753 167.452 459.767 167.994H458.249C458.199 167.529 457.982 167.169 457.6 166.914C457.221 166.659 456.743 166.531 456.164 166.531C455.754 166.531 455.396 166.595 455.091 166.723C454.79 166.85 454.555 167.028 454.387 167.256C454.223 167.479 454.141 167.734 454.141 168.021C454.141 168.345 454.239 168.607 454.435 168.808C454.635 169.004 454.877 169.161 455.159 169.279C455.446 169.393 455.72 169.484 455.979 169.553L456.971 169.812C457.294 169.895 457.627 170.006 457.969 170.147C458.315 170.284 458.634 170.464 458.926 170.688C459.217 170.906 459.452 171.18 459.63 171.508C459.812 171.831 459.903 172.223 459.903 172.684C459.903 173.258 459.755 173.771 459.459 174.222C459.163 174.673 458.732 175.028 458.167 175.288C457.606 175.543 456.927 175.671 456.13 175.671ZM465.509 172.212H467.006L468.079 173.606L468.551 174.201L470.246 176.423H468.694L467.566 174.946L467.19 174.42L465.509 172.212ZM466.008 175.637C465.128 175.637 464.34 175.429 463.643 175.015C462.95 174.595 462.403 173.996 462.002 173.217C461.605 172.433 461.407 171.499 461.407 170.414C461.407 169.325 461.605 168.391 462.002 167.611C462.403 166.827 462.95 166.226 463.643 165.807C464.34 165.387 465.128 165.178 466.008 165.178C466.887 165.178 467.671 165.387 468.359 165.807C469.052 166.226 469.597 166.827 469.993 167.611C470.394 168.391 470.595 169.325 470.595 170.414C470.595 171.499 470.394 172.433 469.993 173.217C469.597 173.996 469.052 174.595 468.359 175.015C467.671 175.429 466.887 175.637 466.008 175.637ZM466.008 174.215C466.587 174.215 467.104 174.071 467.56 173.784C468.02 173.493 468.382 173.064 468.646 172.499C468.915 171.929 469.05 171.234 469.05 170.414C469.05 169.585 468.915 168.887 468.646 168.322C468.382 167.753 468.02 167.324 467.56 167.037C467.104 166.745 466.587 166.6 466.008 166.6C465.424 166.6 464.903 166.745 464.442 167.037C463.982 167.329 463.618 167.759 463.349 168.329C463.084 168.894 462.952 169.589 462.952 170.414C462.952 171.234 463.084 171.927 463.349 172.492C463.618 173.057 463.982 173.486 464.442 173.777C464.903 174.069 465.424 174.215 466.008 174.215ZM472.522 175.5V165.314H474.081V174.16H478.695V175.5H472.522Z" fill="#111827"/>
<rect x="1.5" y="233" width="149" height="103" rx="3.5" fill="white"/>
<rect x="1.5" y="233" width="149" height="103" rx="3.5" stroke="#E4E4E7"/>
<path d="M86.0001 272C86.0001 273.326 85.3014 273.976 84 273.999V274H68V273.999C66.6986 273.976 66 273.326 66 272C66 270.674 66.6986 270.024 68 270.001V270H84V270.001C85.3014 270.024 86.0001 270.674 86.0001 272ZM84 275.001V275H68V275.001C66.6986 275.024 66 275.674 66 277C66 278.326 66.6986 278.976 68 278.999V279H84V278.999C85.3013 278.976 86.0001 278.326 86.0001 277C86.0001 275.674 85.3014 275.024 84 275.001ZM89.0001 264.002V264.001C87.6987 264.024 87 264.674 87 266V277C87 278.326 87.6986 278.976 89.0001 278.999V278.997C90.952 278.928 92 276.978 92 273V268C92.0001 265.348 90.952 264.048 89.0001 264.002ZM63 264.001V264.002C61.048 264.048 60 265.348 60 268V273C60 276.978 61.048 278.928 63 278.997V278.999C64.3014 278.976 64.9999 278.326 64.9999 277V266C64.9999 264.674 64.3014 264.024 63 264.001ZM89.0001 263C89.0001 259.685 87.2533 258.06 84 258.003V258H68V258.003C64.7467 258.06 63 259.685 63 263V263.002C64.952 263.036 66 264.011 66 266C66 267.989 67.048 268.964 69 268.998V269H83V268.998C84.9521 268.964 86.0001 267.989 86.0001 266C86.0001 264.011 87.048 263.036 89.0001 263.002V263Z" fill="#111827"/>
<path d="M49.8594 311.637C48.9798 311.637 48.1937 311.429 47.501 311.015C46.8083 310.595 46.2637 309.996 45.8672 309.217C45.4707 308.433 45.2725 307.499 45.2725 306.414C45.2725 305.325 45.4707 304.391 45.8672 303.611C46.2637 302.827 46.8083 302.226 47.501 301.807C48.1937 301.387 48.9798 301.178 49.8594 301.178C50.3971 301.178 50.9007 301.255 51.3701 301.41C51.8441 301.565 52.2656 301.791 52.6348 302.087C53.0085 302.383 53.3161 302.743 53.5576 303.167C53.8037 303.591 53.9701 304.072 54.0566 304.609H52.4912C52.4274 304.286 52.3135 304.001 52.1494 303.755C51.9899 303.504 51.7939 303.292 51.5615 303.119C51.3291 302.946 51.0693 302.816 50.7822 302.729C50.4951 302.643 50.1921 302.6 49.873 302.6C49.2897 302.6 48.7656 302.748 48.3008 303.044C47.8405 303.336 47.4782 303.766 47.2139 304.336C46.9495 304.901 46.8174 305.594 46.8174 306.414C46.8174 307.234 46.9518 307.929 47.2207 308.499C47.4896 309.064 47.8542 309.493 48.3145 309.784C48.7747 310.071 49.2943 310.215 49.873 310.215C50.1921 310.215 50.4928 310.172 50.7754 310.085C51.0625 309.994 51.3223 309.864 51.5547 309.695C51.7917 309.522 51.9899 309.31 52.1494 309.06C52.3135 308.809 52.4274 308.524 52.4912 308.205H54.0635C53.986 308.706 53.8288 309.167 53.5918 309.586C53.3548 310.001 53.0518 310.363 52.6826 310.673C52.3135 310.983 51.8896 311.222 51.4111 311.391C50.9372 311.555 50.4199 311.637 49.8594 311.637ZM58.9922 311.657C58.2767 311.657 57.6501 311.493 57.1123 311.165C56.5791 310.837 56.1644 310.377 55.8682 309.784C55.5719 309.192 55.4238 308.504 55.4238 307.72C55.4238 306.927 55.5719 306.234 55.8682 305.642C56.1644 305.045 56.5791 304.582 57.1123 304.254C57.6501 303.926 58.2767 303.762 58.9922 303.762C59.7122 303.762 60.3389 303.926 60.8721 304.254C61.4098 304.582 61.8268 305.045 62.123 305.642C62.4193 306.234 62.5674 306.927 62.5674 307.72C62.5674 308.504 62.4193 309.192 62.123 309.784C61.8268 310.377 61.4098 310.837 60.8721 311.165C60.3389 311.493 59.7122 311.657 58.9922 311.657ZM58.9922 310.386C59.457 310.386 59.8398 310.265 60.1406 310.023C60.446 309.777 60.6715 309.454 60.8174 309.053C60.9678 308.647 61.043 308.203 61.043 307.72C61.043 307.232 60.9678 306.785 60.8174 306.38C60.6715 305.97 60.446 305.644 60.1406 305.402C59.8398 305.156 59.457 305.033 58.9922 305.033C58.5319 305.033 58.1514 305.156 57.8506 305.402C57.5498 305.644 57.3242 305.967 57.1738 306.373C57.028 306.779 56.9551 307.228 56.9551 307.72C56.9551 308.203 57.028 308.647 57.1738 309.053C57.3242 309.454 57.5498 309.777 57.8506 310.023C58.1514 310.265 58.5319 310.386 58.9922 310.386ZM66.8467 311.596C66.3271 311.596 65.8714 311.486 65.4795 311.268C65.0876 311.049 64.7822 310.725 64.5635 310.297C64.3493 309.868 64.2422 309.34 64.2422 308.711V303.857H65.7461V308.526C65.7461 309.078 65.8896 309.508 66.1768 309.818C66.4684 310.128 66.8626 310.283 67.3594 310.283C67.7012 310.283 68.0042 310.21 68.2686 310.064C68.5374 309.914 68.7493 309.698 68.9043 309.415C69.0592 309.128 69.1367 308.784 69.1367 308.383V303.857H70.6406V311.5H69.2051L69.1982 309.627H69.3418C69.1185 310.32 68.7926 310.821 68.3643 311.131C67.9359 311.441 67.43 311.596 66.8467 311.596ZM75.877 311.657C75.1569 311.657 74.5303 311.493 73.9971 311.165C73.4639 310.837 73.0492 310.377 72.7529 309.784C72.4567 309.192 72.3086 308.504 72.3086 307.72C72.3086 306.927 72.4567 306.234 72.7529 305.642C73.0492 305.045 73.4639 304.582 73.9971 304.254C74.5303 303.926 75.1569 303.762 75.877 303.762C76.2734 303.762 76.6449 303.814 76.9912 303.919C77.3376 304.019 77.6497 304.167 77.9277 304.363C78.2103 304.555 78.4473 304.792 78.6387 305.074C78.8346 305.352 78.9805 305.667 79.0762 306.018L77.6475 306.359C77.5973 306.163 77.5199 305.986 77.415 305.826C77.3102 305.662 77.1826 305.521 77.0322 305.402C76.8864 305.284 76.7155 305.193 76.5195 305.129C76.3281 305.065 76.1162 305.033 75.8838 305.033C75.4235 305.033 75.0407 305.156 74.7354 305.402C74.4346 305.644 74.209 305.967 74.0586 306.373C73.9128 306.779 73.8398 307.228 73.8398 307.72C73.8398 308.207 73.9128 308.654 74.0586 309.06C74.209 309.461 74.4346 309.782 74.7354 310.023C75.0407 310.265 75.4235 310.386 75.8838 310.386C76.1208 310.386 76.3372 310.354 76.5332 310.29C76.7292 310.222 76.9046 310.128 77.0596 310.01C77.2145 309.887 77.3444 309.741 77.4492 309.572C77.554 309.399 77.6292 309.21 77.6748 309.005L79.0967 309.347C79.0055 309.707 78.862 310.03 78.666 310.317C78.4701 310.6 78.2308 310.841 77.9482 311.042C77.6702 311.243 77.3558 311.395 77.0049 311.5C76.654 311.605 76.278 311.657 75.877 311.657ZM82.248 306.975V311.5H80.7441V301.314H82.2344V305.73H82.0361C82.2594 305.047 82.583 304.548 83.0068 304.233C83.4307 303.919 83.9434 303.762 84.5449 303.762C85.0645 303.762 85.5179 303.871 85.9053 304.09C86.2972 304.309 86.6003 304.632 86.8145 305.061C87.0332 305.484 87.1426 306.013 87.1426 306.646V311.5H85.6387V306.831C85.6387 306.28 85.4951 305.849 85.208 305.539C84.9209 305.229 84.5267 305.074 84.0254 305.074C83.6882 305.074 83.3851 305.149 83.1162 305.3C82.8473 305.446 82.6354 305.66 82.4805 305.942C82.3255 306.225 82.248 306.569 82.248 306.975ZM92.5908 311.5H90.0752V310.133H92.5088C93.279 310.133 93.9193 309.989 94.4297 309.702C94.9401 309.415 95.3229 308.993 95.5781 308.438C95.8333 307.877 95.9609 307.196 95.9609 306.394C95.9609 305.596 95.8333 304.922 95.5781 304.37C95.3275 303.819 94.9515 303.399 94.4502 303.112C93.9535 302.825 93.3337 302.682 92.5908 302.682H90.0205V301.314H92.6934C93.696 301.314 94.555 301.517 95.2705 301.923C95.986 302.328 96.5352 302.912 96.918 303.673C97.3008 304.429 97.4922 305.336 97.4922 306.394C97.4922 307.455 97.2985 308.367 96.9111 309.128C96.5283 309.889 95.9701 310.475 95.2363 310.885C94.5072 311.295 93.6253 311.5 92.5908 311.5ZM90.8408 301.314V311.5H89.2822V301.314H90.8408ZM99.3857 311.5V301.314H103.139C103.863 301.314 104.463 301.433 104.937 301.67C105.41 301.907 105.764 302.228 105.996 302.634C106.229 303.035 106.345 303.486 106.345 303.987C106.345 304.411 106.267 304.769 106.112 305.061C105.957 305.348 105.748 305.58 105.483 305.758C105.224 305.931 104.937 306.059 104.622 306.141V306.243C104.964 306.257 105.297 306.366 105.62 306.571C105.944 306.772 106.21 307.057 106.42 307.426C106.634 307.79 106.741 308.235 106.741 308.759C106.741 309.274 106.618 309.739 106.372 310.153C106.131 310.568 105.757 310.896 105.251 311.138C104.745 311.379 104.096 311.5 103.303 311.5H99.3857ZM100.944 310.16H103.146C103.875 310.16 104.399 310.019 104.718 309.736C105.037 309.454 105.196 309.103 105.196 308.684C105.196 308.355 105.114 308.059 104.95 307.795C104.791 307.531 104.563 307.321 104.267 307.166C103.97 307.007 103.617 306.927 103.207 306.927H100.944V310.16ZM100.944 305.724H102.988C103.33 305.724 103.64 305.658 103.918 305.525C104.196 305.393 104.415 305.206 104.574 304.965C104.734 304.723 104.813 304.441 104.813 304.117C104.813 303.698 104.668 303.349 104.376 303.071C104.084 302.789 103.635 302.647 103.029 302.647H100.944V305.724Z" fill="#111827"/>
<rect x="183.5" y="233" width="149" height="103" rx="3.5" fill="white"/>
<rect x="183.5" y="233" width="149" height="103" rx="3.5" stroke="#E4E4E7"/>
<path d="M273.857 258.193C273.77 258.119 273.66 258.08 273.547 258.084C273.237 258.084 272.838 258.293 272.624 258.411L272.538 258.455C272.177 258.629 271.785 258.728 271.384 258.745C270.974 258.758 270.621 258.782 270.16 258.829C267.432 259.11 266.216 261.201 265.044 263.222C264.407 264.322 263.748 265.459 262.845 266.34C262.657 266.521 262.458 266.689 262.249 266.845C261.314 267.542 260.14 268.034 259.222 268.385C258.342 268.721 257.383 269.024 256.454 269.316C255.605 269.583 254.802 269.835 254.065 270.11C253.732 270.234 253.45 270.328 253.2 270.411C252.529 270.63 252.043 270.797 251.336 271.284C251.06 271.473 250.783 271.677 250.594 271.83C250.032 272.278 249.535 272.802 249.117 273.387C248.757 273.927 248.341 274.427 247.876 274.88C247.728 275.027 247.462 275.099 247.066 275.099C246.6 275.099 246.037 275.003 245.439 274.901C244.841 274.8 244.189 274.683 243.643 274.683C243.199 274.683 242.861 274.755 242.607 274.901C242.607 274.901 242.181 275.15 242 275.472L242.177 275.551C242.451 275.7 242.705 275.884 242.933 276.097C243.169 276.317 243.432 276.504 243.717 276.655C243.809 276.69 243.892 276.744 243.962 276.814C243.886 276.923 243.777 277.064 243.663 277.214C243.033 278.038 242.667 278.558 242.877 278.842C242.978 278.895 243.091 278.92 243.205 278.916C244.578 278.916 245.315 278.559 246.249 278.108C246.518 277.977 246.794 277.841 247.121 277.704C247.667 277.467 248.254 277.09 248.876 276.69C249.7 276.161 250.552 275.614 251.377 275.348C252.056 275.141 252.764 275.042 253.475 275.054C254.347 275.054 255.266 275.171 256.152 275.284C256.813 275.369 257.496 275.456 258.167 275.502C258.428 275.518 258.669 275.525 258.905 275.525C259.219 275.526 259.532 275.51 259.844 275.476L259.918 275.45C260.39 275.161 260.61 274.54 260.823 273.94C260.96 273.554 261.076 273.207 261.259 272.986C261.27 272.975 261.282 272.965 261.295 272.957C261.304 272.952 261.314 272.95 261.324 272.952C261.333 272.953 261.342 272.958 261.349 272.966C261.351 272.971 261.351 272.977 261.349 272.983C261.24 275.33 260.294 276.819 259.339 278.144L258.691 278.823C258.691 278.823 259.583 278.823 260.092 278.627C261.947 278.073 263.348 276.851 264.367 274.902C264.618 274.402 264.842 273.889 265.039 273.365C265.056 273.321 265.218 273.24 265.201 273.466C265.201 273.533 265.193 273.607 265.187 273.685C265.187 273.73 265.181 273.777 265.178 273.824C265.151 274.152 265.069 274.843 265.069 274.843L265.642 274.537C267.023 273.664 268.088 271.903 268.896 269.163C269.233 268.022 269.478 266.888 269.695 265.89C269.955 264.69 270.179 263.661 270.435 263.262C270.838 262.635 271.452 262.212 272.047 261.801C272.128 261.745 272.209 261.692 272.289 261.633C273.037 261.108 273.78 260.502 273.943 259.373V259.348C274.067 258.506 273.966 258.296 273.857 258.193Z" fill="#111827"/>
<path d="M227.628 311.5V301.314H229.925L232.146 307.159C232.21 307.332 232.281 307.551 232.358 307.815C232.44 308.08 232.525 308.367 232.611 308.677C232.698 308.987 232.78 309.292 232.857 309.593C232.935 309.894 233.003 310.165 233.062 310.406H232.734C232.794 310.178 232.862 309.916 232.939 309.62C233.017 309.319 233.099 309.014 233.186 308.704C233.272 308.394 233.356 308.103 233.438 307.829C233.521 307.556 233.593 307.332 233.657 307.159L235.845 301.314H238.155V311.5H236.604V306.018C236.604 305.808 236.606 305.557 236.61 305.266C236.615 304.974 236.619 304.666 236.624 304.343C236.633 304.015 236.64 303.684 236.645 303.352C236.654 303.019 236.66 302.7 236.665 302.395H236.781C236.69 302.727 236.59 303.071 236.48 303.427C236.376 303.778 236.271 304.117 236.166 304.445C236.066 304.773 235.968 305.074 235.872 305.348C235.781 305.617 235.703 305.84 235.64 306.018L233.555 311.5H232.222L230.109 306.018C230.041 305.844 229.961 305.626 229.87 305.361C229.784 305.092 229.688 304.796 229.583 304.473C229.478 304.145 229.371 303.805 229.262 303.454C229.152 303.099 229.043 302.745 228.934 302.395H229.07C229.079 302.673 229.086 302.976 229.091 303.304C229.1 303.627 229.107 303.955 229.111 304.288C229.12 304.621 229.127 304.938 229.132 305.238C229.141 305.535 229.146 305.794 229.146 306.018V311.5H227.628ZM243.132 311.65C242.517 311.65 241.967 311.493 241.484 311.179C241.006 310.86 240.628 310.406 240.35 309.818C240.076 309.226 239.939 308.52 239.939 307.699C239.939 306.87 240.078 306.161 240.356 305.573C240.639 304.985 241.022 304.536 241.505 304.227C241.993 303.917 242.542 303.762 243.152 303.762C243.622 303.762 244 303.839 244.287 303.994C244.579 304.149 244.804 304.334 244.964 304.548C245.128 304.757 245.253 304.942 245.34 305.102H245.436V303.857H246.926V311.5H245.442V310.304H245.34C245.253 310.468 245.126 310.657 244.957 310.871C244.788 311.081 244.558 311.263 244.267 311.418C243.975 311.573 243.597 311.65 243.132 311.65ZM243.48 310.372C243.909 310.372 244.269 310.258 244.561 310.03C244.857 309.802 245.08 309.488 245.23 309.087C245.381 308.681 245.456 308.214 245.456 307.686C245.456 307.152 245.381 306.69 245.23 306.298C245.08 305.901 244.857 305.594 244.561 305.375C244.269 305.152 243.909 305.04 243.48 305.04C243.038 305.04 242.669 305.156 242.373 305.389C242.077 305.617 241.854 305.931 241.703 306.332C241.553 306.729 241.478 307.18 241.478 307.686C241.478 308.191 241.553 308.647 241.703 309.053C241.854 309.458 242.077 309.78 242.373 310.017C242.674 310.254 243.043 310.372 243.48 310.372ZM248.949 311.5V303.857H250.405V305.088H250.487C250.629 304.669 250.875 304.34 251.226 304.104C251.576 303.867 251.975 303.748 252.422 303.748C252.518 303.748 252.627 303.753 252.75 303.762C252.873 303.766 252.976 303.775 253.058 303.789V305.225C253.003 305.206 252.898 305.188 252.743 305.17C252.588 305.152 252.431 305.143 252.271 305.143C251.925 305.143 251.613 305.215 251.335 305.361C251.057 305.507 250.84 305.71 250.686 305.97C250.531 306.225 250.453 306.521 250.453 306.858V311.5H248.949ZM254.541 311.5V303.857H256.045V311.5H254.541ZM255.3 302.688C255.04 302.688 254.817 302.602 254.63 302.429C254.448 302.256 254.356 302.046 254.356 301.8C254.356 301.549 254.448 301.337 254.63 301.164C254.817 300.991 255.04 300.904 255.3 300.904C255.56 300.904 255.783 300.991 255.97 301.164C256.157 301.337 256.25 301.549 256.25 301.8C256.25 302.046 256.157 302.256 255.97 302.429C255.783 302.602 255.56 302.688 255.3 302.688ZM260.905 311.65C260.29 311.65 259.741 311.493 259.258 311.179C258.779 310.86 258.401 310.406 258.123 309.818C257.85 309.226 257.713 308.52 257.713 307.699C257.713 306.87 257.852 306.161 258.13 305.573C258.412 304.985 258.795 304.536 259.278 304.227C259.766 303.917 260.315 303.762 260.926 303.762C261.395 303.762 261.773 303.839 262.061 303.994C262.352 304.149 262.578 304.334 262.737 304.548C262.901 304.757 263.027 304.942 263.113 305.102H263.209V303.857H264.699V311.5H263.216V310.304H263.113C263.027 310.468 262.899 310.657 262.73 310.871C262.562 311.081 262.332 311.263 262.04 311.418C261.748 311.573 261.37 311.65 260.905 311.65ZM261.254 310.372C261.682 310.372 262.042 310.258 262.334 310.03C262.63 309.802 262.854 309.488 263.004 309.087C263.154 308.681 263.229 308.214 263.229 307.686C263.229 307.152 263.154 306.69 263.004 306.298C262.854 305.901 262.63 305.594 262.334 305.375C262.042 305.152 261.682 305.04 261.254 305.04C260.812 305.04 260.443 305.156 260.146 305.389C259.85 305.617 259.627 305.931 259.477 306.332C259.326 306.729 259.251 307.18 259.251 307.686C259.251 308.191 259.326 308.647 259.477 309.053C259.627 309.458 259.85 309.78 260.146 310.017C260.447 310.254 260.816 310.372 261.254 310.372ZM273.88 311.5H271.364V310.133H273.798C274.568 310.133 275.208 309.989 275.719 309.702C276.229 309.415 276.612 308.993 276.867 308.438C277.122 307.877 277.25 307.196 277.25 306.394C277.25 305.596 277.122 304.922 276.867 304.37C276.617 303.819 276.241 303.399 275.739 303.112C275.243 302.825 274.623 302.682 273.88 302.682H271.31V301.314H273.982C274.985 301.314 275.844 301.517 276.56 301.923C277.275 302.328 277.824 302.912 278.207 303.673C278.59 304.429 278.781 305.336 278.781 306.394C278.781 307.455 278.588 308.367 278.2 309.128C277.817 309.889 277.259 310.475 276.525 310.885C275.796 311.295 274.914 311.5 273.88 311.5ZM272.13 301.314V311.5H270.571V301.314H272.13ZM280.675 311.5V301.314H284.428C285.152 301.314 285.752 301.433 286.226 301.67C286.7 301.907 287.053 302.228 287.285 302.634C287.518 303.035 287.634 303.486 287.634 303.987C287.634 304.411 287.556 304.769 287.401 305.061C287.246 305.348 287.037 305.58 286.772 305.758C286.513 305.931 286.226 306.059 285.911 306.141V306.243C286.253 306.257 286.586 306.366 286.909 306.571C287.233 306.772 287.499 307.057 287.709 307.426C287.923 307.79 288.03 308.235 288.03 308.759C288.03 309.274 287.907 309.739 287.661 310.153C287.42 310.568 287.046 310.896 286.54 311.138C286.034 311.379 285.385 311.5 284.592 311.5H280.675ZM282.233 310.16H284.435C285.164 310.16 285.688 310.019 286.007 309.736C286.326 309.454 286.485 309.103 286.485 308.684C286.485 308.355 286.403 308.059 286.239 307.795C286.08 307.531 285.852 307.321 285.556 307.166C285.259 307.007 284.906 306.927 284.496 306.927H282.233V310.16ZM282.233 305.724H284.277C284.619 305.724 284.929 305.658 285.207 305.525C285.485 305.393 285.704 305.206 285.863 304.965C286.023 304.723 286.103 304.441 286.103 304.117C286.103 303.698 285.957 303.349 285.665 303.071C285.373 302.789 284.924 302.647 284.318 302.647H282.233V305.724Z" fill="#111827"/>
<rect x="365.5" y="233" width="149" height="103" rx="3.5" fill="white"/>
<rect x="365.5" y="233" width="149" height="103" rx="3.5" stroke="#E4E4E7"/>
<g clip-path="url(#clip1_4632_72801)">
<path fill-rule="evenodd" clip-rule="evenodd" d="M435.406 254.52L439.573 252.5V259.731L435.406 260.646L435.406 254.52ZM428.176 278.911V257.772L426.368 258.726V277.957L428.176 278.911ZM451.825 278.911V257.772L453.632 258.726V277.957L451.825 278.911ZM439.573 277.131L435.406 276.253L435.406 282.517L439.573 284.362V277.131ZM434.653 259.178L429.13 257.722L429.08 279.011L434.603 277.555V275.396L440.226 274.392L445.498 275.446V277.555L450.921 279.011V257.722L445.498 259.228V261.588L439.975 262.642L434.653 261.538V259.178ZM444.745 265.002L440.577 264.5V272.283L444.745 271.68L444.745 265.002ZM435.406 265.002L439.573 264.5V272.283L435.406 271.68L435.406 265.002ZM440.578 252.5L444.745 254.52L444.745 260.784L440.578 259.869V252.5ZM444.745 276.253L440.578 277.131V284.5L444.745 282.517L444.745 276.253ZM439.987 260.599L437.362 261.216L439.961 261.885L442.638 261.268L439.987 260.599ZM437.362 275.764L439.987 275.147L442.638 275.816L439.961 276.433L437.362 275.764Z" fill="#111827"/>
</g>
<path d="M410.546 311.671C409.785 311.671 409.124 311.55 408.563 311.309C408.003 311.067 407.563 310.723 407.244 310.276C406.93 309.825 406.757 309.29 406.725 308.67H408.29C408.322 309.039 408.44 309.344 408.646 309.586C408.855 309.827 409.126 310.007 409.459 310.126C409.792 310.244 410.152 310.304 410.539 310.304C410.972 310.304 411.355 310.238 411.688 310.105C412.025 309.969 412.291 309.777 412.487 309.531C412.683 309.281 412.781 308.991 412.781 308.663C412.781 308.367 412.695 308.125 412.521 307.938C412.353 307.747 412.123 307.59 411.831 307.467C411.544 307.339 411.216 307.228 410.847 307.132L409.657 306.804C408.823 306.58 408.172 306.25 407.702 305.812C407.237 305.375 407.005 304.808 407.005 304.11C407.005 303.522 407.162 303.01 407.477 302.572C407.796 302.13 408.226 301.788 408.769 301.547C409.315 301.301 409.931 301.178 410.614 301.178C411.312 301.178 411.924 301.301 412.453 301.547C412.986 301.788 413.403 302.121 413.704 302.545C414.009 302.969 414.169 303.452 414.183 303.994H412.665C412.615 303.529 412.398 303.169 412.016 302.914C411.637 302.659 411.159 302.531 410.58 302.531C410.17 302.531 409.812 302.595 409.507 302.723C409.206 302.85 408.971 303.028 408.803 303.256C408.639 303.479 408.557 303.734 408.557 304.021C408.557 304.345 408.655 304.607 408.851 304.808C409.051 305.004 409.293 305.161 409.575 305.279C409.862 305.393 410.136 305.484 410.396 305.553L411.387 305.812C411.71 305.895 412.043 306.006 412.385 306.147C412.731 306.284 413.05 306.464 413.342 306.688C413.633 306.906 413.868 307.18 414.046 307.508C414.228 307.831 414.319 308.223 414.319 308.684C414.319 309.258 414.171 309.771 413.875 310.222C413.579 310.673 413.148 311.028 412.583 311.288C412.022 311.543 411.343 311.671 410.546 311.671ZM419.446 311.637C418.758 311.637 418.145 311.518 417.607 311.281C417.074 311.044 416.65 310.716 416.336 310.297C416.026 309.878 415.862 309.39 415.844 308.834H417.423C417.446 309.135 417.546 309.395 417.724 309.613C417.906 309.832 418.145 310.001 418.441 310.119C418.738 310.238 419.068 310.297 419.433 310.297C419.834 310.297 420.187 310.229 420.492 310.092C420.798 309.955 421.037 309.764 421.21 309.518C421.388 309.267 421.477 308.978 421.477 308.649C421.477 308.308 421.39 308.009 421.217 307.754C421.044 307.494 420.793 307.291 420.465 307.146C420.137 307 419.738 306.927 419.269 306.927H418.4V305.655H419.269C419.642 305.655 419.973 305.589 420.26 305.457C420.547 305.32 420.77 305.131 420.93 304.89C421.089 304.648 421.169 304.366 421.169 304.042C421.169 303.728 421.098 303.454 420.957 303.222C420.816 302.989 420.618 302.809 420.362 302.682C420.107 302.549 419.806 302.483 419.46 302.483C419.132 302.483 418.824 302.545 418.537 302.668C418.255 302.786 418.024 302.955 417.847 303.174C417.669 303.393 417.573 303.657 417.56 303.967H416.056C416.074 303.415 416.236 302.93 416.541 302.511C416.851 302.091 417.261 301.766 417.771 301.533C418.286 301.296 418.858 301.178 419.487 301.178C420.139 301.178 420.704 301.305 421.183 301.561C421.666 301.816 422.037 302.155 422.297 302.579C422.557 302.998 422.687 303.456 422.687 303.953C422.687 304.527 422.527 305.013 422.208 305.409C421.889 305.801 421.463 306.068 420.93 306.209V306.284C421.381 306.353 421.766 306.498 422.085 306.722C422.404 306.94 422.646 307.218 422.81 307.556C422.974 307.893 423.056 308.276 423.056 308.704C423.056 309.265 422.901 309.766 422.591 310.208C422.281 310.65 421.853 310.999 421.306 311.254C420.763 311.509 420.144 311.637 419.446 311.637ZM428.688 311.5V301.314H432.441C433.166 301.314 433.765 301.433 434.239 301.67C434.713 301.907 435.066 302.228 435.299 302.634C435.531 303.035 435.647 303.486 435.647 303.987C435.647 304.411 435.57 304.769 435.415 305.061C435.26 305.348 435.05 305.58 434.786 305.758C434.526 305.931 434.239 306.059 433.925 306.141V306.243C434.267 306.257 434.599 306.366 434.923 306.571C435.246 306.772 435.513 307.057 435.723 307.426C435.937 307.79 436.044 308.235 436.044 308.759C436.044 309.274 435.921 309.739 435.675 310.153C435.433 310.568 435.06 310.896 434.554 311.138C434.048 311.379 433.398 311.5 432.605 311.5H428.688ZM430.247 310.16H432.448C433.177 310.16 433.701 310.019 434.021 309.736C434.34 309.454 434.499 309.103 434.499 308.684C434.499 308.355 434.417 308.059 434.253 307.795C434.093 307.531 433.866 307.321 433.569 307.166C433.273 307.007 432.92 306.927 432.51 306.927H430.247V310.16ZM430.247 305.724H432.291C432.633 305.724 432.943 305.658 433.221 305.525C433.499 305.393 433.717 305.206 433.877 304.965C434.036 304.723 434.116 304.441 434.116 304.117C434.116 303.698 433.97 303.349 433.679 303.071C433.387 302.789 432.938 302.647 432.332 302.647H430.247V305.724ZM440.378 311.596C439.858 311.596 439.403 311.486 439.011 311.268C438.619 311.049 438.313 310.725 438.095 310.297C437.881 309.868 437.773 309.34 437.773 308.711V303.857H439.277V308.526C439.277 309.078 439.421 309.508 439.708 309.818C440 310.128 440.394 310.283 440.891 310.283C441.232 310.283 441.535 310.21 441.8 310.064C442.069 309.914 442.281 309.698 442.436 309.415C442.59 309.128 442.668 308.784 442.668 308.383V303.857H444.172V311.5H442.736L442.729 309.627H442.873C442.65 310.32 442.324 310.821 441.896 311.131C441.467 311.441 440.961 311.596 440.378 311.596ZM449.408 311.657C448.688 311.657 448.062 311.493 447.528 311.165C446.995 310.837 446.58 310.377 446.284 309.784C445.988 309.192 445.84 308.504 445.84 307.72C445.84 306.927 445.988 306.234 446.284 305.642C446.58 305.045 446.995 304.582 447.528 304.254C448.062 303.926 448.688 303.762 449.408 303.762C449.805 303.762 450.176 303.814 450.522 303.919C450.869 304.019 451.181 304.167 451.459 304.363C451.742 304.555 451.979 304.792 452.17 305.074C452.366 305.352 452.512 305.667 452.607 306.018L451.179 306.359C451.129 306.163 451.051 305.986 450.946 305.826C450.841 305.662 450.714 305.521 450.563 305.402C450.418 305.284 450.247 305.193 450.051 305.129C449.859 305.065 449.647 305.033 449.415 305.033C448.955 305.033 448.572 305.156 448.267 305.402C447.966 305.644 447.74 305.967 447.59 306.373C447.444 306.779 447.371 307.228 447.371 307.72C447.371 308.207 447.444 308.654 447.59 309.06C447.74 309.461 447.966 309.782 448.267 310.023C448.572 310.265 448.955 310.386 449.415 310.386C449.652 310.386 449.868 310.354 450.064 310.29C450.26 310.222 450.436 310.128 450.591 310.01C450.746 309.887 450.876 309.741 450.98 309.572C451.085 309.399 451.16 309.21 451.206 309.005L452.628 309.347C452.537 309.707 452.393 310.03 452.197 310.317C452.001 310.6 451.762 310.841 451.479 311.042C451.201 311.243 450.887 311.395 450.536 311.5C450.185 311.605 449.809 311.657 449.408 311.657ZM455.663 308.923V307.084H455.916L458.931 303.857H460.735L457.283 307.556H457.03L455.663 308.923ZM454.275 311.5V301.314H455.779V311.5H454.275ZM459.088 311.5L456.374 307.891L457.413 306.824L460.947 311.5H459.088ZM465.09 311.657C464.338 311.657 463.688 311.495 463.142 311.172C462.595 310.848 462.173 310.393 461.877 309.805C461.585 309.217 461.439 308.526 461.439 307.733C461.439 306.95 461.583 306.259 461.87 305.662C462.162 305.065 462.572 304.6 463.101 304.268C463.629 303.93 464.249 303.762 464.96 303.762C465.397 303.762 465.819 303.835 466.225 303.98C466.63 304.122 466.995 304.345 467.318 304.65C467.642 304.956 467.897 305.352 468.084 305.84C468.275 306.323 468.371 306.911 468.371 307.604V308.137H462.28V307.016H467.599L466.895 307.385C466.895 306.915 466.822 306.503 466.676 306.147C466.53 305.787 466.313 305.507 466.026 305.307C465.744 305.106 465.388 305.006 464.96 305.006C464.536 305.006 464.174 305.108 463.873 305.313C463.572 305.519 463.342 305.79 463.183 306.127C463.028 306.46 462.95 306.824 462.95 307.221V307.986C462.95 308.51 463.039 308.955 463.217 309.319C463.399 309.679 463.652 309.953 463.976 310.14C464.299 310.322 464.675 310.413 465.104 310.413C465.386 310.413 465.641 310.374 465.869 310.297C466.097 310.215 466.293 310.094 466.457 309.935C466.626 309.771 466.753 309.57 466.84 309.333L468.255 309.668C468.132 310.06 467.924 310.406 467.633 310.707C467.346 311.008 466.986 311.243 466.553 311.411C466.124 311.575 465.637 311.657 465.09 311.657ZM473.293 303.857V305.081H469.15V303.857H473.293ZM470.265 302.039H471.769V309.436C471.769 309.741 471.832 309.966 471.96 310.112C472.092 310.254 472.306 310.324 472.603 310.324C472.68 310.324 472.783 310.315 472.91 310.297C473.038 310.279 473.147 310.26 473.238 310.242L473.505 311.445C473.345 311.5 473.174 311.539 472.992 311.562C472.81 311.589 472.63 311.603 472.452 311.603C471.759 311.603 471.222 311.425 470.839 311.069C470.456 310.709 470.265 310.206 470.265 309.559V302.039Z" fill="#111827"/>
<defs>
<clipPath id="clip0_4632_72801">
<rect x="1" y="28.5" width="514" height="36" rx="4" fill="white"/>
</clipPath>
<clipPath id="clip1_4632_72801">
<rect width="32" height="32" fill="white" transform="translate(424 252.5)"/>
</clipPath>
</defs>
</svg>
