<svg width="598" height="336" viewBox="0 0 598 336" fill="none" xmlns="http://www.w3.org/2000/svg">
<path d="M2.12793 17V6.81445H3.92578L7.76074 12.8779C7.88835 13.0785 8.0319 13.3177 8.19141 13.5957C8.35091 13.8737 8.51953 14.1882 8.69727 14.5391C8.875 14.8854 9.05046 15.2637 9.22363 15.6738H9.03223C8.99121 15.2865 8.95931 14.9036 8.93652 14.5254C8.91829 14.1426 8.90462 13.7848 8.89551 13.4521C8.88639 13.1195 8.88184 12.8392 8.88184 12.6113V6.81445H10.4609V17H8.65625L5.21777 11.5791C5.03548 11.2829 4.85547 10.9844 4.67773 10.6836C4.50456 10.3828 4.31087 10.0365 4.09668 9.64453C3.88704 9.24805 3.62956 8.76725 3.32422 8.20215H3.57031C3.5931 8.70345 3.61589 9.17285 3.63867 9.61035C3.66146 10.0433 3.67741 10.4284 3.68652 10.7656C3.7002 11.0983 3.70703 11.3649 3.70703 11.5654V17H2.12793ZM15.4443 17.1504C14.8291 17.1504 14.2799 16.9932 13.7969 16.6787C13.3184 16.3597 12.9401 15.9062 12.6621 15.3184C12.3887 14.7259 12.252 14.0195 12.252 13.1992C12.252 12.3698 12.391 11.6611 12.6689 11.0732C12.9515 10.4854 13.3343 10.0365 13.8174 9.72656C14.305 9.41667 14.8542 9.26172 15.4648 9.26172C15.9342 9.26172 16.3125 9.33919 16.5996 9.49414C16.8913 9.64909 17.1169 9.83366 17.2764 10.0479C17.4404 10.2575 17.5658 10.4421 17.6523 10.6016H17.748V9.35742H19.2383V17H17.7549V15.8037H17.6523C17.5658 15.9678 17.4382 16.1569 17.2695 16.3711C17.1009 16.5807 16.8708 16.763 16.5791 16.918C16.2874 17.0729 15.9092 17.1504 15.4443 17.1504ZM15.793 15.8721C16.2214 15.8721 16.5814 15.7581 16.873 15.5303C17.1693 15.3024 17.3926 14.988 17.543 14.5869C17.6934 14.1813 17.7686 13.7142 17.7686 13.1855C17.7686 12.6523 17.6934 12.1898 17.543 11.7979C17.3926 11.4014 17.1693 11.0938 16.873 10.875C16.5814 10.6517 16.2214 10.54 15.793 10.54C15.3509 10.54 14.9818 10.6562 14.6855 10.8887C14.3893 11.1165 14.166 11.431 14.0156 11.832C13.8652 12.2285 13.79 12.6797 13.79 13.1855C13.79 13.6914 13.8652 14.1471 14.0156 14.5527C14.166 14.9583 14.3893 15.2796 14.6855 15.5166C14.9863 15.7536 15.3555 15.8721 15.793 15.8721ZM21.2617 17V9.35742H22.6904L22.7314 11.1279H22.6152C22.7246 10.695 22.8932 10.3395 23.1211 10.0615C23.349 9.78353 23.6156 9.57617 23.9209 9.43945C24.2262 9.29818 24.5452 9.22754 24.8779 9.22754C25.4339 9.22754 25.8828 9.40072 26.2246 9.74707C26.5664 10.0889 26.7965 10.5674 26.915 11.1826H26.7236C26.8239 10.7633 26.9971 10.4079 27.2432 10.1162C27.4893 9.82454 27.7855 9.60352 28.1318 9.45312C28.4827 9.30273 28.8564 9.22754 29.2529 9.22754C29.7041 9.22754 30.112 9.32552 30.4766 9.52148C30.8457 9.71745 31.1374 10.0091 31.3516 10.3965C31.5658 10.7839 31.6729 11.2669 31.6729 11.8457V17H30.1621V11.9961C30.1621 11.4857 30.0208 11.1165 29.7383 10.8887C29.4557 10.6608 29.1208 10.5469 28.7334 10.5469C28.4189 10.5469 28.1478 10.613 27.9199 10.7451C27.6921 10.8773 27.5166 11.0618 27.3936 11.2988C27.2705 11.5312 27.209 11.8001 27.209 12.1055V17H25.7256V11.9004C25.7256 11.4902 25.5934 11.1621 25.3291 10.916C25.0693 10.6699 24.7367 10.5469 24.3311 10.5469C24.0531 10.5469 23.7933 10.613 23.5518 10.7451C23.3148 10.8727 23.1234 11.0641 22.9775 11.3193C22.8363 11.57 22.7656 11.8799 22.7656 12.249V17H21.2617ZM36.998 17.1572C36.2461 17.1572 35.5967 16.9954 35.0498 16.6719C34.5029 16.3483 34.0814 15.8926 33.7852 15.3047C33.4935 14.7168 33.3477 14.0264 33.3477 13.2334C33.3477 12.4495 33.4912 11.7591 33.7783 11.1621C34.07 10.5651 34.4801 10.1003 35.0088 9.76758C35.5374 9.43034 36.1572 9.26172 36.8682 9.26172C37.3057 9.26172 37.7272 9.33464 38.1328 9.48047C38.5384 9.62174 38.903 9.84505 39.2266 10.1504C39.5501 10.4557 39.8053 10.8522 39.9922 11.3398C40.1836 11.8229 40.2793 12.4108 40.2793 13.1035V13.6367H34.1885V12.5156H39.5068L38.8027 12.8848C38.8027 12.4154 38.7298 12.0029 38.584 11.6475C38.4382 11.2874 38.2217 11.0072 37.9346 10.8066C37.652 10.6061 37.2965 10.5059 36.8682 10.5059C36.4443 10.5059 36.082 10.6084 35.7812 10.8135C35.4805 11.0186 35.2503 11.2897 35.0908 11.627C34.9359 11.9596 34.8584 12.3242 34.8584 12.7207V13.4863C34.8584 14.0104 34.9473 14.4548 35.125 14.8193C35.3073 15.1794 35.5602 15.4528 35.8838 15.6396C36.2074 15.8219 36.5833 15.9131 37.0117 15.9131C37.2943 15.9131 37.5495 15.8743 37.7773 15.7969C38.0052 15.7148 38.2012 15.5941 38.3652 15.4346C38.5339 15.2705 38.6615 15.07 38.748 14.833L40.1631 15.168C40.04 15.5599 39.8327 15.9062 39.541 16.207C39.2539 16.5078 38.8939 16.7425 38.4609 16.9111C38.0326 17.0752 37.5449 17.1572 36.998 17.1572Z" fill="#111827"/>
<g clip-path="url(#clip0_3945_114886)">
<rect x="1" y="28" width="596" height="36" rx="4" fill="white"/>
<path d="M586 43.5L581 48.5L576 43.5" stroke="#111827" stroke-linecap="round" stroke-linejoin="round"/>
</g>
<rect x="1" y="28" width="596" height="36" rx="4" stroke="#E4E4E7"/>
<rect x="1.5" y="96.5" width="176.333" height="103" rx="3.5" fill="white"/>
<rect x="1.5" y="96.5" width="176.333" height="103" rx="3.5" stroke="#E4E4E7"/>
<path d="M86.6832 119.563C88.1259 117.962 89.3485 116.36 89.6174 116.017C89.6419 115.994 89.6908 115.994 89.7152 116.017C89.9597 116.36 91.2068 117.962 92.6494 119.563C104.973 134.273 90.7177 144.202 90.7177 144.202L90.5955 144.271C90.4977 145.804 90.2287 148 90.2287 148H89.6908H89.1528C89.1528 148 88.8839 145.804 88.7861 144.271L88.6638 144.179C88.6149 144.202 74.3597 134.273 86.6832 119.563ZM89.6663 143.974C89.6663 143.974 90.3021 143.47 90.4732 143.196V143.173L89.6908 127.159C89.6908 127.113 89.6174 127.113 89.6174 127.159L88.835 143.173V143.196C89.0061 143.47 89.6663 143.974 89.6663 143.974Z" fill="#111827"/>
<path d="M57.2949 175V164.814H59.5918L61.8135 170.659C61.8773 170.832 61.9479 171.051 62.0254 171.315C62.1074 171.58 62.1917 171.867 62.2783 172.177C62.3649 172.487 62.4469 172.792 62.5244 173.093C62.6019 173.394 62.6702 173.665 62.7295 173.906H62.4014C62.4606 173.678 62.529 173.416 62.6064 173.12C62.6839 172.819 62.766 172.514 62.8525 172.204C62.9391 171.894 63.0234 171.603 63.1055 171.329C63.1875 171.056 63.2604 170.832 63.3242 170.659L65.5117 164.814H67.8223V175H66.2705V169.518C66.2705 169.308 66.2728 169.057 66.2773 168.766C66.2819 168.474 66.2865 168.166 66.291 167.843C66.3001 167.515 66.307 167.184 66.3115 166.852C66.3206 166.519 66.3275 166.2 66.332 165.895H66.4482C66.3571 166.227 66.2568 166.571 66.1475 166.927C66.0426 167.278 65.9378 167.617 65.833 167.945C65.7327 168.273 65.6348 168.574 65.5391 168.848C65.4479 169.117 65.3704 169.34 65.3066 169.518L63.2217 175H61.8887L59.7764 169.518C59.708 169.344 59.6283 169.126 59.5371 168.861C59.4505 168.592 59.3548 168.296 59.25 167.973C59.1452 167.645 59.0381 167.305 58.9287 166.954C58.8193 166.599 58.71 166.245 58.6006 165.895H58.7373C58.7464 166.173 58.7533 166.476 58.7578 166.804C58.7669 167.127 58.7738 167.455 58.7783 167.788C58.7874 168.121 58.7943 168.438 58.7988 168.738C58.8079 169.035 58.8125 169.294 58.8125 169.518V175H57.2949ZM73.1748 175.157C72.4593 175.157 71.8327 174.993 71.2949 174.665C70.7617 174.337 70.347 173.877 70.0508 173.284C69.7546 172.692 69.6064 172.004 69.6064 171.22C69.6064 170.427 69.7546 169.734 70.0508 169.142C70.347 168.545 70.7617 168.082 71.2949 167.754C71.8327 167.426 72.4593 167.262 73.1748 167.262C73.8949 167.262 74.5215 167.426 75.0547 167.754C75.5924 168.082 76.0094 168.545 76.3057 169.142C76.6019 169.734 76.75 170.427 76.75 171.22C76.75 172.004 76.6019 172.692 76.3057 173.284C76.0094 173.877 75.5924 174.337 75.0547 174.665C74.5215 174.993 73.8949 175.157 73.1748 175.157ZM73.1748 173.886C73.6396 173.886 74.0225 173.765 74.3232 173.523C74.6286 173.277 74.8542 172.954 75 172.553C75.1504 172.147 75.2256 171.703 75.2256 171.22C75.2256 170.732 75.1504 170.285 75 169.88C74.8542 169.47 74.6286 169.144 74.3232 168.902C74.0225 168.656 73.6396 168.533 73.1748 168.533C72.7145 168.533 72.334 168.656 72.0332 168.902C71.7324 169.144 71.5068 169.467 71.3564 169.873C71.2106 170.279 71.1377 170.728 71.1377 171.22C71.1377 171.703 71.2106 172.147 71.3564 172.553C71.5068 172.954 71.7324 173.277 72.0332 173.523C72.334 173.765 72.7145 173.886 73.1748 173.886ZM79.9287 170.475V175H78.4248V167.357H79.8604L79.874 169.23H79.7168C79.9401 168.547 80.2637 168.048 80.6875 167.733C81.1113 167.419 81.624 167.262 82.2256 167.262C82.7451 167.262 83.1986 167.371 83.5859 167.59C83.9733 167.809 84.2764 168.132 84.4951 168.561C84.7139 168.984 84.8232 169.513 84.8232 170.146V175H83.3193V170.331C83.3193 169.78 83.1758 169.349 82.8887 169.039C82.6016 168.729 82.2074 168.574 81.7061 168.574C81.3688 168.574 81.0658 168.649 80.7969 168.8C80.528 168.946 80.3161 169.16 80.1611 169.442C80.0062 169.725 79.9287 170.069 79.9287 170.475ZM90.0391 178.021C89.4512 178.021 88.9408 177.946 88.5078 177.796C88.0749 177.646 87.7171 177.445 87.4346 177.194C87.1566 176.944 86.9447 176.666 86.7988 176.36L88.0566 175.766C88.1478 175.911 88.2686 176.064 88.4189 176.224C88.5739 176.388 88.7812 176.527 89.041 176.641C89.3008 176.755 89.6335 176.812 90.0391 176.812C90.6224 176.812 91.0941 176.673 91.4541 176.395C91.8187 176.121 92.001 175.69 92.001 175.103V173.612H91.8711C91.7799 173.781 91.6523 173.963 91.4883 174.159C91.3288 174.355 91.1032 174.526 90.8115 174.672C90.5244 174.813 90.1484 174.884 89.6836 174.884C89.082 174.884 88.5397 174.743 88.0566 174.46C87.5781 174.177 87.1976 173.758 86.915 173.202C86.6325 172.646 86.4912 171.963 86.4912 171.151C86.4912 170.34 86.6302 169.645 86.9082 169.066C87.1908 168.483 87.5736 168.036 88.0566 167.727C88.5443 167.417 89.0934 167.262 89.7041 167.262C90.1735 167.262 90.554 167.339 90.8457 167.494C91.1419 167.649 91.3721 167.834 91.5361 168.048C91.7048 168.257 91.8324 168.442 91.9189 168.602H92.0283V167.357H93.498V175.109C93.498 175.779 93.3454 176.328 93.04 176.757C92.7393 177.19 92.3268 177.509 91.8027 177.714C91.2832 177.919 90.6953 178.021 90.0391 178.021ZM90.0322 173.633C90.4606 173.633 90.8206 173.535 91.1123 173.339C91.4085 173.138 91.6318 172.851 91.7822 172.478C91.9326 172.099 92.0078 171.65 92.0078 171.131C92.0078 170.616 91.9326 170.165 91.7822 169.777C91.6318 169.39 91.4085 169.087 91.1123 168.868C90.8206 168.649 90.4606 168.54 90.0322 168.54C89.5902 168.54 89.221 168.656 88.9248 168.889C88.6286 169.117 88.4053 169.426 88.2549 169.818C88.1045 170.206 88.0293 170.643 88.0293 171.131C88.0293 171.628 88.1045 172.065 88.2549 172.443C88.4053 172.817 88.6286 173.109 88.9248 173.318C89.2256 173.528 89.5947 173.633 90.0322 173.633ZM98.7412 175.157C98.0257 175.157 97.3991 174.993 96.8613 174.665C96.3281 174.337 95.9134 173.877 95.6172 173.284C95.321 172.692 95.1729 172.004 95.1729 171.22C95.1729 170.427 95.321 169.734 95.6172 169.142C95.9134 168.545 96.3281 168.082 96.8613 167.754C97.3991 167.426 98.0257 167.262 98.7412 167.262C99.4613 167.262 100.088 167.426 100.621 167.754C101.159 168.082 101.576 168.545 101.872 169.142C102.168 169.734 102.316 170.427 102.316 171.22C102.316 172.004 102.168 172.692 101.872 173.284C101.576 173.877 101.159 174.337 100.621 174.665C100.088 174.993 99.4613 175.157 98.7412 175.157ZM98.7412 173.886C99.2061 173.886 99.5889 173.765 99.8896 173.523C100.195 173.277 100.421 172.954 100.566 172.553C100.717 172.147 100.792 171.703 100.792 171.22C100.792 170.732 100.717 170.285 100.566 169.88C100.421 169.47 100.195 169.144 99.8896 168.902C99.5889 168.656 99.2061 168.533 98.7412 168.533C98.2809 168.533 97.9004 168.656 97.5996 168.902C97.2988 169.144 97.0732 169.467 96.9229 169.873C96.777 170.279 96.7041 170.728 96.7041 171.22C96.7041 171.703 96.777 172.147 96.9229 172.553C97.0732 172.954 97.2988 173.277 97.5996 173.523C97.9004 173.765 98.2809 173.886 98.7412 173.886ZM107.416 175H104.9V173.633H107.334C108.104 173.633 108.744 173.489 109.255 173.202C109.765 172.915 110.148 172.493 110.403 171.938C110.659 171.377 110.786 170.696 110.786 169.894C110.786 169.096 110.659 168.422 110.403 167.87C110.153 167.319 109.777 166.899 109.275 166.612C108.779 166.325 108.159 166.182 107.416 166.182H104.846V164.814H107.519C108.521 164.814 109.38 165.017 110.096 165.423C110.811 165.828 111.36 166.412 111.743 167.173C112.126 167.929 112.317 168.836 112.317 169.894C112.317 170.955 112.124 171.867 111.736 172.628C111.354 173.389 110.795 173.975 110.062 174.385C109.332 174.795 108.451 175 107.416 175ZM105.666 164.814V175H104.107V164.814H105.666ZM114.211 175V164.814H117.964C118.688 164.814 119.288 164.933 119.762 165.17C120.236 165.407 120.589 165.728 120.821 166.134C121.054 166.535 121.17 166.986 121.17 167.487C121.17 167.911 121.092 168.269 120.938 168.561C120.783 168.848 120.573 169.08 120.309 169.258C120.049 169.431 119.762 169.559 119.447 169.641V169.743C119.789 169.757 120.122 169.866 120.445 170.071C120.769 170.272 121.035 170.557 121.245 170.926C121.459 171.29 121.566 171.735 121.566 172.259C121.566 172.774 121.443 173.239 121.197 173.653C120.956 174.068 120.582 174.396 120.076 174.638C119.57 174.879 118.921 175 118.128 175H114.211ZM115.77 173.66H117.971C118.7 173.66 119.224 173.519 119.543 173.236C119.862 172.954 120.021 172.603 120.021 172.184C120.021 171.855 119.939 171.559 119.775 171.295C119.616 171.031 119.388 170.821 119.092 170.666C118.796 170.507 118.442 170.427 118.032 170.427H115.77V173.66ZM115.77 169.224H117.813C118.155 169.224 118.465 169.158 118.743 169.025C119.021 168.893 119.24 168.706 119.399 168.465C119.559 168.223 119.639 167.941 119.639 167.617C119.639 167.198 119.493 166.849 119.201 166.571C118.91 166.289 118.461 166.147 117.854 166.147H115.77V169.224Z" fill="#111827"/>
<rect x="210.833" y="96.5" width="176.333" height="103" rx="3.5" fill="white"/>
<rect x="210.833" y="96.5" width="176.333" height="103" rx="3.5" stroke="#E4E4E7"/>
<path d="M297.275 119.151C297.275 119.163 297.425 119.444 297.613 119.794C297.8 120.138 297.931 120.432 297.913 120.451C297.894 120.463 297.369 120.663 296.75 120.882C296.125 121.107 295.631 121.294 295.638 121.301C295.644 121.307 296.35 121.382 297.2 121.463C298.225 121.557 298.763 121.626 298.8 121.669C298.831 121.701 299.069 122.082 299.325 122.507L299.788 123.282L299.869 123.088C299.913 122.988 300.056 122.644 300.181 122.338L300.413 121.782L301.644 121.651C302.319 121.576 302.919 121.519 302.981 121.519L303.088 121.476C303.088 121.457 302.631 121.269 302.069 121.057C301.513 120.851 301.05 120.669 301.05 120.663C301.05 120.657 301.169 120.363 301.319 120.007C301.463 119.651 301.575 119.351 301.569 119.344C301.556 119.332 301.081 119.476 300.519 119.657L299.5 119.994L298.406 119.563C297.331 119.138 297.275 119.119 297.275 119.151ZM304.063 122.844C302.756 123.363 301.681 123.794 301.675 123.807C301.663 123.819 302.638 124.213 303.838 124.688L306.013 125.544L306.244 125.451C308.669 124.507 310.869 123.632 310.862 123.619L306.494 121.901C306.45 121.907 305.363 122.326 304.063 122.844ZM291.525 122.338C290.269 122.469 289.219 122.832 288.775 123.294C288.469 123.607 288.419 123.876 288.613 124.201C288.894 124.688 289.819 125.094 291.094 125.301C291.669 125.401 293.35 125.382 293.931 125.282C295.294 125.044 296.181 124.607 296.388 124.057C296.463 123.851 296.463 123.826 296.388 123.626C296.181 123.094 295.313 122.651 294.025 122.426C293.375 122.319 292.163 122.276 291.525 122.338ZM314.856 123.851C314.794 123.932 314.562 124.119 314.337 124.269C313.675 124.694 312.825 125.082 307.519 127.369C303.788 128.969 302.838 129.394 301.55 130.013C300.119 130.694 299.525 130.888 298.806 130.888C298.163 130.888 297.775 130.776 296.575 130.244C296.094 130.032 294.125 129.207 292.206 128.407C283.8 124.913 283.644 124.838 283.194 124.351L283.007 124.144V127.438L283.219 127.644C283.425 127.844 284.119 128.263 284.363 128.332C284.432 128.351 284.888 128.538 285.382 128.751C285.875 128.963 288.288 129.976 290.744 131.001C294.806 132.694 295.731 133.082 297.119 133.688C297.85 134.013 298.256 134.094 298.95 134.069C299.456 134.05 299.606 134.019 300.05 133.869C300.338 133.775 300.831 133.563 301.15 133.4C302.206 132.869 303.481 132.307 308.563 130.119C313.344 128.057 313.969 127.769 314.487 127.413C315.019 127.032 315 127.126 315 125.288C315 124.407 314.994 123.688 314.987 123.688L314.856 123.851ZM298.119 126.001C296.163 126.301 294.544 126.557 294.513 126.569C294.469 126.582 299.388 128.651 299.594 128.707L301.844 125.476C301.838 125.432 301.844 125.426 298.119 126.001ZM314.887 129.276C314.844 129.351 314.637 129.526 314.444 129.669C313.806 130.107 312.85 130.544 307.038 133.044C303.694 134.488 302.644 134.95 301.65 135.432C300.038 136.213 299.65 136.338 298.788 136.338C298.119 136.332 297.706 136.225 296.819 135.825C295.963 135.432 295.006 135.032 291.169 133.438C284.475 130.663 283.707 130.313 283.232 129.857L283 129.638V132.888L283.263 133.138C283.688 133.538 283.644 133.513 290.819 136.5C293.45 137.594 295.931 138.638 296.331 138.819C297.388 139.294 297.694 139.407 298.113 139.494C299.088 139.694 299.813 139.532 301.394 138.763C302.425 138.263 303.681 137.707 306.725 136.394C312.512 133.9 313.937 133.257 314.362 132.976C314.512 132.869 314.719 132.701 314.819 132.588L315 132.388V130.763C315 129.869 314.994 129.138 314.987 129.138L314.887 129.276ZM314.831 134.6C314.45 135.082 313.681 135.45 307.713 138.019C303.819 139.7 302.631 140.225 301.35 140.832C300.006 141.469 299.563 141.607 298.788 141.607C298.256 141.607 297.719 141.482 297.125 141.219C295.731 140.607 294.813 140.219 290.744 138.525C286.119 136.6 284.638 135.969 284.144 135.725C283.682 135.494 283.213 135.163 283.107 134.994L283 134.838V136.494C283 138.394 282.969 138.25 283.475 138.594C284.038 138.969 284.875 139.344 290.432 141.65C294.313 143.263 295.713 143.85 296.4 144.163C297.806 144.794 298.181 144.894 298.969 144.85C299.688 144.819 300.156 144.663 301.4 144.069C302.694 143.45 303.65 143.019 307.881 141.2C313.756 138.669 314.394 138.363 314.837 137.85L314.994 137.675V136.057C314.994 135.163 314.987 134.432 314.981 134.432L314.831 134.6Z" fill="#111827"/>
<path d="M281.628 175V164.814H285.278C286.062 164.814 286.716 164.951 287.24 165.225C287.764 165.493 288.156 165.869 288.416 166.353C288.676 166.836 288.806 167.389 288.806 168.014C288.806 168.643 288.674 169.194 288.409 169.668C288.149 170.137 287.757 170.502 287.233 170.762C286.709 171.021 286.053 171.151 285.265 171.151H282.523V169.818H285.114C285.616 169.818 286.019 169.748 286.324 169.606C286.634 169.461 286.862 169.253 287.008 168.984C287.154 168.715 287.227 168.392 287.227 168.014C287.227 167.631 287.154 167.3 287.008 167.022C286.862 166.744 286.634 166.53 286.324 166.38C286.014 166.225 285.606 166.147 285.101 166.147H283.187V175H281.628ZM287.418 175L284.95 170.399H286.68L289.188 175H287.418ZM293.693 175.157C292.941 175.157 292.292 174.995 291.745 174.672C291.198 174.348 290.777 173.893 290.48 173.305C290.189 172.717 290.043 172.026 290.043 171.233C290.043 170.45 290.187 169.759 290.474 169.162C290.765 168.565 291.175 168.1 291.704 167.768C292.233 167.43 292.853 167.262 293.563 167.262C294.001 167.262 294.423 167.335 294.828 167.48C295.234 167.622 295.598 167.845 295.922 168.15C296.245 168.456 296.501 168.852 296.688 169.34C296.879 169.823 296.975 170.411 296.975 171.104V171.637H290.884V170.516H296.202L295.498 170.885C295.498 170.415 295.425 170.003 295.279 169.647C295.133 169.287 294.917 169.007 294.63 168.807C294.347 168.606 293.992 168.506 293.563 168.506C293.14 168.506 292.777 168.608 292.477 168.813C292.176 169.019 291.946 169.29 291.786 169.627C291.631 169.96 291.554 170.324 291.554 170.721V171.486C291.554 172.01 291.643 172.455 291.82 172.819C292.003 173.179 292.256 173.453 292.579 173.64C292.903 173.822 293.279 173.913 293.707 173.913C293.99 173.913 294.245 173.874 294.473 173.797C294.701 173.715 294.896 173.594 295.061 173.435C295.229 173.271 295.357 173.07 295.443 172.833L296.858 173.168C296.735 173.56 296.528 173.906 296.236 174.207C295.949 174.508 295.589 174.743 295.156 174.911C294.728 175.075 294.24 175.157 293.693 175.157ZM301.473 175.15C300.853 175.15 300.301 174.993 299.818 174.679C299.335 174.36 298.957 173.906 298.684 173.318C298.41 172.726 298.273 172.02 298.273 171.199C298.273 170.37 298.412 169.661 298.69 169.073C298.968 168.485 299.349 168.036 299.832 167.727C300.315 167.417 300.862 167.262 301.473 167.262C301.947 167.262 302.327 167.341 302.614 167.501C302.906 167.656 303.134 167.838 303.298 168.048C303.462 168.257 303.587 168.442 303.674 168.602H303.756V164.814H305.26V175H303.797V173.804H303.674C303.587 173.968 303.46 174.155 303.291 174.364C303.122 174.574 302.892 174.758 302.601 174.918C302.309 175.073 301.933 175.15 301.473 175.15ZM301.801 173.872C302.229 173.872 302.589 173.758 302.881 173.53C303.177 173.302 303.4 172.988 303.551 172.587C303.706 172.181 303.783 171.714 303.783 171.186C303.783 170.652 303.708 170.19 303.558 169.798C303.407 169.401 303.184 169.094 302.888 168.875C302.596 168.652 302.234 168.54 301.801 168.54C301.359 168.54 300.99 168.656 300.693 168.889C300.402 169.121 300.181 169.438 300.03 169.839C299.884 170.235 299.812 170.684 299.812 171.186C299.812 171.691 299.887 172.147 300.037 172.553C300.188 172.958 300.411 173.28 300.707 173.517C301.003 173.754 301.368 173.872 301.801 173.872ZM307.283 175V167.357H308.787V175H307.283ZM308.042 166.188C307.782 166.188 307.559 166.102 307.372 165.929C307.19 165.756 307.099 165.546 307.099 165.3C307.099 165.049 307.19 164.837 307.372 164.664C307.559 164.491 307.782 164.404 308.042 164.404C308.302 164.404 308.525 164.491 308.712 164.664C308.899 164.837 308.992 165.049 308.992 165.3C308.992 165.546 308.899 165.756 308.712 165.929C308.525 166.102 308.302 166.188 308.042 166.188ZM313.552 175.157C313 175.157 312.508 175.077 312.075 174.918C311.647 174.758 311.294 174.524 311.016 174.214C310.742 173.899 310.56 173.517 310.469 173.065L311.884 172.771C311.989 173.168 312.185 173.462 312.472 173.653C312.759 173.845 313.123 173.94 313.565 173.94C314.049 173.94 314.434 173.84 314.721 173.64C315.008 173.435 315.151 173.191 315.151 172.908C315.151 172.662 315.062 172.459 314.885 172.3C314.712 172.14 314.443 172.022 314.078 171.944L312.793 171.65C312.082 171.491 311.553 171.236 311.207 170.885C310.861 170.534 310.688 170.085 310.688 169.538C310.688 169.082 310.815 168.684 311.07 168.342C311.326 168 311.674 167.736 312.116 167.549C312.558 167.357 313.069 167.262 313.647 167.262C314.199 167.262 314.671 167.341 315.062 167.501C315.454 167.66 315.771 167.884 316.013 168.171C316.259 168.458 316.434 168.791 316.539 169.169L315.192 169.463C315.097 169.194 314.93 168.959 314.693 168.759C314.456 168.554 314.112 168.451 313.661 168.451C313.246 168.451 312.9 168.545 312.622 168.731C312.344 168.918 312.205 169.155 312.205 169.442C312.205 169.698 312.296 169.905 312.479 170.064C312.665 170.219 312.968 170.345 313.388 170.44L314.618 170.714C315.325 170.873 315.849 171.124 316.19 171.466C316.532 171.808 316.703 172.245 316.703 172.778C316.703 173.243 316.569 173.656 316.3 174.016C316.035 174.371 315.666 174.651 315.192 174.856C314.723 175.057 314.176 175.157 313.552 175.157Z" fill="#111827"/>
<rect x="420.167" y="96.5" width="176.333" height="103" rx="3.5" fill="white"/>
<rect x="420.167" y="96.5" width="176.333" height="103" rx="3.5" stroke="#E4E4E7"/>
<path fill-rule="evenodd" clip-rule="evenodd" d="M517.352 139.289C517.349 139.314 517.347 139.335 517.345 139.354C517.262 142.695 516.724 144.614 515.881 145.809C514.914 147.195 513.708 147.562 512.353 147.852C508.867 148.597 508.133 146.352 507.724 145.09C507.716 145.067 507.708 145.046 507.701 145.025C507.685 144.978 507.669 144.934 507.652 144.888C507.476 144.407 507.362 143.802 507.284 143.119C507.212 142.468 507.176 141.795 507.15 141.118C507.144 141.004 507.14 140.863 507.135 140.711C507.132 140.599 507.128 140.481 507.124 140.362C507.119 140.166 507.129 139.98 507.145 139.809C506.758 139.981 506.352 140.102 505.934 140.171C504.869 140.352 503.912 140.182 503.338 140.037C502.857 139.918 502.246 139.638 501.869 139.281C501.807 139.224 501.745 139.157 501.693 139.095C501.372 139.359 501.041 139.545 500.705 139.664C499.453 140.114 498.352 139.644 497.395 138.578C496.702 137.813 496.081 136.685 495.533 135.387C493.95 131.632 492.905 126.216 492.838 124.882C492.279 113.719 502.319 116.388 505.055 117.319C505.535 117.033 506.05 116.809 506.586 116.652C507.331 116.43 508.159 116.311 509.074 116.326C509.54 116.332 510 116.363 510.466 116.409C510.788 116.444 511.109 116.491 511.428 116.549C512.545 116.228 515.162 115.654 517.79 116.28C519.59 116.709 521.431 117.661 522.921 119.559C523.904 120.816 523.893 123.676 522.983 126.966C522.326 129.345 521.219 132.03 519.714 134.528C520.05 134.445 520.583 134.332 521.426 134.156C522.083 134.021 522.595 134.068 522.968 134.249C523.614 134.559 523.893 135.071 523.847 135.739C523.826 136.08 523.687 136.416 523.459 136.737C523.081 137.249 522.259 137.895 521.281 138.351C520.805 138.568 520.19 138.739 519.554 138.847C518.912 138.956 518.245 139.002 517.671 138.976H517.614L517.391 138.956C517.386 139.007 517.381 139.059 517.371 139.116C517.364 139.189 517.357 139.245 517.352 139.289ZM517.283 134.823C516.698 134.988 515.86 135.294 515.948 136.99C515.907 137.492 515.751 138.904 515.576 140.28C515.431 141.407 515.276 142.545 515.167 143.197C515.012 144.086 514.769 144.728 514.329 145.178C513.895 145.633 513.233 145.933 512.255 146.145C511.138 146.383 510.434 146.15 509.979 145.762C509.508 145.364 509.26 144.79 509.105 144.402C508.96 144.03 508.851 143.037 508.789 141.707C508.727 140.373 508.717 138.733 508.753 137.073C508.754 137.046 508.754 137.02 508.754 136.993C508.76 136.667 508.765 136.364 508.655 136.049C508.52 135.681 508.283 135.35 507.988 135.138C507.714 134.942 507.321 134.807 506.984 134.838C506.922 134.844 506.859 134.854 506.798 134.869C506.856 134.642 506.938 134.394 507.031 134.131C507.149 133.801 507.177 133.702 507.212 133.606C507.254 133.492 507.305 133.382 507.527 132.893C508.086 131.647 508.8 130.054 508.003 126.355C507.776 125.321 507.196 124.778 506.467 124.55C506.001 124.406 505.484 124.395 504.972 124.473C504.481 124.55 503.989 124.701 503.555 124.876C503.283 124.99 503.02 125.125 502.769 125.28C502.939 123.118 503.881 117.976 509.048 118.064C513.331 118.131 515.736 120.94 516.843 122.952C517.123 123.453 517.314 123.904 517.433 124.245L517.434 124.248C517.444 124.273 517.454 124.298 517.459 124.323C514.929 124.059 513.915 124.938 513.703 126.267C513.403 128.135 514.924 130.861 515.695 132.242C515.713 132.274 515.73 132.305 515.747 132.336C515.902 132.615 516.02 132.827 516.062 132.93C516.367 133.669 516.745 134.145 517.045 134.512C517.064 134.537 517.083 134.561 517.101 134.584C517.171 134.673 517.233 134.753 517.283 134.823ZM506.229 136.54C505.681 137.239 505.51 137.45 503.808 137.802C503.503 137.864 503.296 137.931 503.172 137.994C503.327 138.102 503.565 138.2 503.772 138.252C504.191 138.356 504.889 138.485 505.629 138.356C506.358 138.232 507.139 137.859 507.775 136.975C507.905 136.794 507.879 136.546 507.812 136.344C507.739 136.147 507.615 135.971 507.471 135.868C507.362 135.79 507.186 135.723 507.062 135.733C506.985 135.738 506.913 135.771 506.86 135.826C506.636 136.052 506.425 136.29 506.229 136.54ZM502.924 134.187C503.047 134.32 503.178 134.446 503.317 134.564C502.487 135.448 501.685 136.357 500.912 137.29C500.627 137.631 500.358 137.838 500.11 137.926C499.655 138.092 499.184 137.843 498.724 137.331C498.17 136.716 497.648 135.759 497.177 134.642C495.677 131.088 494.689 125.993 494.627 124.747C494.203 116.202 501.977 118.1 504.382 118.892C501.719 121.509 501.837 126.19 501.843 126.226C501.838 126.323 501.845 126.442 501.854 126.594C501.855 126.62 501.857 126.648 501.858 126.676C501.905 127.405 501.988 128.807 501.77 130.364C501.715 130.743 501.707 131.127 501.745 131.507C501.843 132.547 502.277 133.478 502.924 134.187ZM517.624 122.523C516.786 120.992 515.255 119.042 512.819 117.966C513.988 117.728 515.87 117.521 517.758 118.064C519.088 118.452 520.422 119.213 521.514 120.604C522.145 121.416 522.026 123.671 521.26 126.439C520.598 128.844 519.44 131.59 517.852 134.089C517.816 134.048 517.781 134.003 517.746 133.958L517.743 133.954C517.728 133.939 517.712 133.918 517.696 133.897C518.617 132.387 518.441 130.928 518.276 129.558C518.208 129.02 518.146 128.502 518.162 128.011C518.182 127.517 518.244 127.094 518.304 126.687C518.306 126.668 518.309 126.649 518.312 126.63C518.4 126.081 518.478 125.559 518.457 124.923C518.457 124.915 518.458 124.907 518.459 124.9C518.461 124.892 518.462 124.884 518.462 124.876C518.488 124.726 518.431 124.385 518.276 123.951C518.1 123.457 517.882 122.979 517.624 122.523ZM502.747 126.485C502.742 126.397 502.738 126.309 502.738 126.221C502.743 126.2 503.239 125.973 503.891 125.704C504.269 125.554 504.688 125.419 505.102 125.357C505.495 125.3 505.878 125.3 506.203 125.404C506.633 125.538 506.985 125.88 507.124 126.542C507.864 129.961 507.217 131.398 506.71 132.526C506.452 133.094 506.375 133.313 506.278 133.589C506.254 133.657 506.229 133.728 506.199 133.808C506.091 134.105 505.997 134.389 505.929 134.662L505.92 134.662C505.788 134.657 505.652 134.652 505.521 134.631C504.775 134.528 504.098 134.145 503.586 133.581C503.041 132.986 502.707 132.228 502.634 131.424C502.603 131.125 502.609 130.809 502.655 130.488C502.888 128.828 502.8 127.374 502.753 126.624C502.751 126.578 502.749 126.532 502.747 126.485ZM506.467 125.999C506.17 125.839 505.721 125.778 505.391 125.849C505.161 125.906 505.062 126.019 505.055 126.153C505.048 126.287 505.132 126.443 505.267 126.588C505.407 126.733 505.603 126.862 505.825 126.893H505.831C506.058 126.925 506.271 126.847 506.426 126.743C506.591 126.63 506.7 126.474 506.715 126.366C506.731 126.226 506.638 126.097 506.467 125.999ZM514.582 126.407C514.722 125.533 515.513 124.974 517.562 125.228C517.557 125.678 517.495 126.081 517.427 126.5L517.42 126.546C517.355 126.983 517.287 127.44 517.267 127.985C517.252 128.517 517.316 129.065 517.382 129.627L517.386 129.661C517.52 130.768 517.66 131.937 517.122 133.075C517.039 132.93 516.962 132.764 516.884 132.588C516.817 132.428 516.672 132.159 516.475 131.812C515.751 130.514 514.334 127.969 514.582 126.407ZM517.735 135.623C517.763 135.614 517.79 135.607 517.815 135.599C518.869 136.394 520.632 136.066 521.797 135.849L521.808 135.847C521.529 136.116 521.074 136.421 520.531 136.675C520.003 136.917 519.176 137.083 518.4 137.129C517.955 137.15 517.536 137.14 517.22 137.073C517.019 137.036 516.884 136.995 516.843 136.954C516.791 135.893 517.278 135.755 517.588 135.667L517.593 135.666C517.641 135.65 517.689 135.636 517.735 135.623ZM516.538 126.237C516.667 126.102 516.745 125.942 516.729 125.849C516.713 125.74 516.61 125.662 516.45 125.626C516.311 125.59 516.124 125.585 515.928 125.611C515.731 125.642 515.555 125.698 515.431 125.766C515.282 125.851 515.222 125.947 515.224 126.042C515.226 126.182 515.361 126.321 515.545 126.423C515.701 126.507 515.857 126.537 516.007 126.52C516.2 126.499 516.381 126.399 516.538 126.237ZM521.601 134.978C519.258 135.464 518.56 135.159 518.353 134.962C520.117 132.283 521.4 129.283 522.119 126.676C522.957 123.645 523.024 121.09 522.217 120.055C520.991 118.493 519.496 117.64 518.007 117.21C515.751 116.559 513.527 116.879 512.312 117.164C512.29 117.169 512.269 117.173 512.249 117.178C512.185 117.192 512.131 117.204 512.084 117.215C512.058 117.226 511.598 117.355 511.272 117.443C510.594 117.277 509.855 117.179 509.063 117.169C507.429 117.143 506.167 117.557 505.189 118.224C503.544 117.614 493.205 114.195 493.732 124.788C493.8 126.076 494.813 131.336 496.355 134.988C496.867 136.198 497.436 137.238 498.056 137.931C498.77 138.717 499.551 139.074 500.405 138.769C500.808 138.624 501.212 138.335 501.599 137.864C502.691 136.55 503.689 135.469 504.061 135.076C504.477 135.3 504.929 135.449 505.396 135.516C505.542 135.536 505.689 135.548 505.836 135.552C505.836 135.573 505.836 135.593 505.841 135.614C505.732 135.735 505.626 135.859 505.525 135.986C505.132 136.488 505.008 136.643 503.632 136.928C503.012 137.057 502.639 137.228 502.437 137.419C502.225 137.616 502.158 137.838 502.189 138.066C502.22 138.262 502.324 138.433 502.479 138.578C502.743 138.826 503.193 139.028 503.555 139.121C504.051 139.245 504.879 139.395 505.784 139.24C506.467 139.121 507.186 138.831 507.837 138.242C507.827 139.504 507.848 140.719 507.894 141.749C507.961 143.161 508.086 144.263 508.277 144.733C508.469 145.209 508.769 145.918 509.4 146.45C510.041 146.989 510.993 147.33 512.441 147.02C513.6 146.771 514.401 146.393 514.975 145.799C515.55 145.204 515.86 144.418 516.046 143.347C516.155 142.716 516.315 141.558 516.46 140.388C516.579 139.457 516.688 138.537 516.76 137.88C516.848 137.906 516.946 137.931 517.044 137.952C517.443 138.03 517.934 138.05 518.446 138.025C519.32 137.973 520.277 137.776 520.903 137.487C521.746 137.094 522.434 136.566 522.734 136.152C522.864 135.971 522.941 135.795 522.951 135.624C522.972 135.345 522.853 135.133 522.584 135.004C522.377 134.906 522.057 134.885 521.601 134.978Z" fill="#111827"/>
<path d="M469.462 175V164.814H473.112C473.896 164.814 474.55 164.96 475.074 165.252C475.598 165.544 475.99 165.938 476.25 166.435C476.51 166.931 476.64 167.494 476.64 168.123C476.64 168.752 476.507 169.317 476.243 169.818C475.983 170.315 475.591 170.709 475.067 171.001C474.543 171.288 473.887 171.432 473.099 171.432H470.604V170.112H472.948C473.45 170.112 473.855 170.026 474.165 169.853C474.475 169.679 474.701 169.442 474.842 169.142C474.988 168.841 475.061 168.501 475.061 168.123C475.061 167.74 474.988 167.401 474.842 167.104C474.701 166.804 474.473 166.569 474.158 166.4C473.848 166.232 473.44 166.147 472.935 166.147H471.021V175H469.462ZM481.445 175.157C480.73 175.157 480.103 174.993 479.565 174.665C479.032 174.337 478.618 173.877 478.321 173.284C478.025 172.692 477.877 172.004 477.877 171.22C477.877 170.427 478.025 169.734 478.321 169.142C478.618 168.545 479.032 168.082 479.565 167.754C480.103 167.426 480.73 167.262 481.445 167.262C482.165 167.262 482.792 167.426 483.325 167.754C483.863 168.082 484.28 168.545 484.576 169.142C484.872 169.734 485.021 170.427 485.021 171.22C485.021 172.004 484.872 172.692 484.576 173.284C484.28 173.877 483.863 174.337 483.325 174.665C482.792 174.993 482.165 175.157 481.445 175.157ZM481.445 173.886C481.91 173.886 482.293 173.765 482.594 173.523C482.899 173.277 483.125 172.954 483.271 172.553C483.421 172.147 483.496 171.703 483.496 171.22C483.496 170.732 483.421 170.285 483.271 169.88C483.125 169.47 482.899 169.144 482.594 168.902C482.293 168.656 481.91 168.533 481.445 168.533C480.985 168.533 480.604 168.656 480.304 168.902C480.003 169.144 479.777 169.467 479.627 169.873C479.481 170.279 479.408 170.728 479.408 171.22C479.408 171.703 479.481 172.147 479.627 172.553C479.777 172.954 480.003 173.277 480.304 173.523C480.604 173.765 480.985 173.886 481.445 173.886ZM489.437 175.157C488.885 175.157 488.393 175.077 487.96 174.918C487.532 174.758 487.178 174.524 486.9 174.214C486.627 173.899 486.445 173.517 486.354 173.065L487.769 172.771C487.873 173.168 488.069 173.462 488.356 173.653C488.644 173.845 489.008 173.94 489.45 173.94C489.933 173.94 490.318 173.84 490.605 173.64C490.893 173.435 491.036 173.191 491.036 172.908C491.036 172.662 490.947 172.459 490.77 172.3C490.596 172.14 490.327 172.022 489.963 171.944L488.678 171.65C487.967 171.491 487.438 171.236 487.092 170.885C486.745 170.534 486.572 170.085 486.572 169.538C486.572 169.082 486.7 168.684 486.955 168.342C487.21 168 487.559 167.736 488.001 167.549C488.443 167.357 488.953 167.262 489.532 167.262C490.084 167.262 490.555 167.341 490.947 167.501C491.339 167.66 491.656 167.884 491.897 168.171C492.144 168.458 492.319 168.791 492.424 169.169L491.077 169.463C490.981 169.194 490.815 168.959 490.578 168.759C490.341 168.554 489.997 168.451 489.546 168.451C489.131 168.451 488.785 168.545 488.507 168.731C488.229 168.918 488.09 169.155 488.09 169.442C488.09 169.698 488.181 169.905 488.363 170.064C488.55 170.219 488.853 170.345 489.272 170.44L490.503 170.714C491.209 170.873 491.733 171.124 492.075 171.466C492.417 171.808 492.588 172.245 492.588 172.778C492.588 173.243 492.453 173.656 492.185 174.016C491.92 174.371 491.551 174.651 491.077 174.856C490.608 175.057 490.061 175.157 489.437 175.157ZM497.51 167.357V168.581H493.367V167.357H497.51ZM494.481 165.539H495.985V172.936C495.985 173.241 496.049 173.466 496.177 173.612C496.309 173.754 496.523 173.824 496.819 173.824C496.897 173.824 496.999 173.815 497.127 173.797C497.255 173.779 497.364 173.76 497.455 173.742L497.722 174.945C497.562 175 497.391 175.039 497.209 175.062C497.027 175.089 496.847 175.103 496.669 175.103C495.976 175.103 495.438 174.925 495.056 174.569C494.673 174.209 494.481 173.706 494.481 173.059V165.539ZM502.069 178.021C501.481 178.021 500.971 177.946 500.538 177.796C500.105 177.646 499.747 177.445 499.465 177.194C499.187 176.944 498.975 176.666 498.829 176.36L500.087 175.766C500.178 175.911 500.299 176.064 500.449 176.224C500.604 176.388 500.812 176.527 501.071 176.641C501.331 176.755 501.664 176.812 502.069 176.812C502.653 176.812 503.124 176.673 503.484 176.395C503.849 176.121 504.031 175.69 504.031 175.103V173.612H503.901C503.81 173.781 503.683 173.963 503.519 174.159C503.359 174.355 503.133 174.526 502.842 174.672C502.555 174.813 502.179 174.884 501.714 174.884C501.112 174.884 500.57 174.743 500.087 174.46C499.608 174.177 499.228 173.758 498.945 173.202C498.663 172.646 498.521 171.963 498.521 171.151C498.521 170.34 498.66 169.645 498.938 169.066C499.221 168.483 499.604 168.036 500.087 167.727C500.575 167.417 501.124 167.262 501.734 167.262C502.204 167.262 502.584 167.339 502.876 167.494C503.172 167.649 503.402 167.834 503.566 168.048C503.735 168.257 503.863 168.442 503.949 168.602H504.059V167.357H505.528V175.109C505.528 175.779 505.376 176.328 505.07 176.757C504.77 177.19 504.357 177.509 503.833 177.714C503.313 177.919 502.726 178.021 502.069 178.021ZM502.062 173.633C502.491 173.633 502.851 173.535 503.143 173.339C503.439 173.138 503.662 172.851 503.812 172.478C503.963 172.099 504.038 171.65 504.038 171.131C504.038 170.616 503.963 170.165 503.812 169.777C503.662 169.39 503.439 169.087 503.143 168.868C502.851 168.649 502.491 168.54 502.062 168.54C501.62 168.54 501.251 168.656 500.955 168.889C500.659 169.117 500.436 169.426 500.285 169.818C500.135 170.206 500.06 170.643 500.06 171.131C500.06 171.628 500.135 172.065 500.285 172.443C500.436 172.817 500.659 173.109 500.955 173.318C501.256 173.528 501.625 173.633 502.062 173.633ZM507.559 175V167.357H509.015V168.588H509.097C509.238 168.169 509.484 167.84 509.835 167.604C510.186 167.367 510.585 167.248 511.031 167.248C511.127 167.248 511.236 167.253 511.359 167.262C511.482 167.266 511.585 167.275 511.667 167.289V168.725C511.612 168.706 511.507 168.688 511.353 168.67C511.198 168.652 511.04 168.643 510.881 168.643C510.535 168.643 510.222 168.715 509.944 168.861C509.666 169.007 509.45 169.21 509.295 169.47C509.14 169.725 509.062 170.021 509.062 170.358V175H507.559ZM515.994 175.157C515.242 175.157 514.593 174.995 514.046 174.672C513.499 174.348 513.077 173.893 512.781 173.305C512.49 172.717 512.344 172.026 512.344 171.233C512.344 170.45 512.487 169.759 512.774 169.162C513.066 168.565 513.476 168.1 514.005 167.768C514.534 167.43 515.153 167.262 515.864 167.262C516.302 167.262 516.723 167.335 517.129 167.48C517.535 167.622 517.899 167.845 518.223 168.15C518.546 168.456 518.801 168.852 518.988 169.34C519.18 169.823 519.275 170.411 519.275 171.104V171.637H513.185V170.516H518.503L517.799 170.885C517.799 170.415 517.726 170.003 517.58 169.647C517.434 169.287 517.218 169.007 516.931 168.807C516.648 168.606 516.293 168.506 515.864 168.506C515.44 168.506 515.078 168.608 514.777 168.813C514.477 169.019 514.246 169.29 514.087 169.627C513.932 169.96 513.854 170.324 513.854 170.721V171.486C513.854 172.01 513.943 172.455 514.121 172.819C514.303 173.179 514.556 173.453 514.88 173.64C515.203 173.822 515.579 173.913 516.008 173.913C516.29 173.913 516.546 173.874 516.773 173.797C517.001 173.715 517.197 173.594 517.361 173.435C517.53 173.271 517.658 173.07 517.744 172.833L519.159 173.168C519.036 173.56 518.829 173.906 518.537 174.207C518.25 174.508 517.89 174.743 517.457 174.911C517.029 175.075 516.541 175.157 515.994 175.157ZM524.464 175.171C523.703 175.171 523.042 175.05 522.481 174.809C521.921 174.567 521.481 174.223 521.162 173.776C520.848 173.325 520.674 172.79 520.643 172.17H522.208C522.24 172.539 522.358 172.844 522.563 173.086C522.773 173.327 523.044 173.507 523.377 173.626C523.71 173.744 524.07 173.804 524.457 173.804C524.89 173.804 525.273 173.738 525.605 173.605C525.943 173.469 526.209 173.277 526.405 173.031C526.601 172.781 526.699 172.491 526.699 172.163C526.699 171.867 526.613 171.625 526.439 171.438C526.271 171.247 526.041 171.09 525.749 170.967C525.462 170.839 525.134 170.728 524.765 170.632L523.575 170.304C522.741 170.08 522.09 169.75 521.62 169.312C521.155 168.875 520.923 168.308 520.923 167.61C520.923 167.022 521.08 166.51 521.395 166.072C521.714 165.63 522.144 165.288 522.687 165.047C523.233 164.801 523.849 164.678 524.532 164.678C525.229 164.678 525.842 164.801 526.371 165.047C526.904 165.288 527.321 165.621 527.622 166.045C527.927 166.469 528.087 166.952 528.101 167.494H526.583C526.533 167.029 526.316 166.669 525.934 166.414C525.555 166.159 525.077 166.031 524.498 166.031C524.088 166.031 523.73 166.095 523.425 166.223C523.124 166.35 522.889 166.528 522.721 166.756C522.557 166.979 522.475 167.234 522.475 167.521C522.475 167.845 522.573 168.107 522.769 168.308C522.969 168.504 523.211 168.661 523.493 168.779C523.78 168.893 524.054 168.984 524.313 169.053L525.305 169.312C525.628 169.395 525.961 169.506 526.303 169.647C526.649 169.784 526.968 169.964 527.26 170.188C527.551 170.406 527.786 170.68 527.964 171.008C528.146 171.331 528.237 171.723 528.237 172.184C528.237 172.758 528.089 173.271 527.793 173.722C527.497 174.173 527.066 174.528 526.501 174.788C525.94 175.043 525.261 175.171 524.464 175.171ZM533.843 171.712H535.34L536.413 173.106L536.885 173.701L538.58 175.923H537.028L535.9 174.446L535.524 173.92L533.843 171.712ZM534.342 175.137C533.462 175.137 532.674 174.929 531.977 174.515C531.284 174.095 530.737 173.496 530.336 172.717C529.939 171.933 529.741 170.999 529.741 169.914C529.741 168.825 529.939 167.891 530.336 167.111C530.737 166.327 531.284 165.726 531.977 165.307C532.674 164.887 533.462 164.678 534.342 164.678C535.221 164.678 536.005 164.887 536.693 165.307C537.386 165.726 537.931 166.327 538.327 167.111C538.728 167.891 538.929 168.825 538.929 169.914C538.929 170.999 538.728 171.933 538.327 172.717C537.931 173.496 537.386 174.095 536.693 174.515C536.005 174.929 535.221 175.137 534.342 175.137ZM534.342 173.715C534.921 173.715 535.438 173.571 535.894 173.284C536.354 172.993 536.716 172.564 536.98 171.999C537.249 171.429 537.384 170.734 537.384 169.914C537.384 169.085 537.249 168.387 536.98 167.822C536.716 167.253 536.354 166.824 535.894 166.537C535.438 166.245 534.921 166.1 534.342 166.1C533.758 166.1 533.237 166.245 532.776 166.537C532.316 166.829 531.951 167.259 531.683 167.829C531.418 168.394 531.286 169.089 531.286 169.914C531.286 170.734 531.418 171.427 531.683 171.992C531.951 172.557 532.316 172.986 532.776 173.277C533.237 173.569 533.758 173.715 534.342 173.715ZM540.856 175V164.814H542.415V173.66H547.029V175H540.856Z" fill="#111827"/>
<rect x="1.5" y="232.5" width="176.333" height="103" rx="3.5" fill="white"/>
<rect x="1.5" y="232.5" width="176.333" height="103" rx="3.5" stroke="#E4E4E7"/>
<path d="M99.667 271.5C99.667 272.826 98.9684 273.476 97.667 273.499V273.5H81.667V273.499C80.3656 273.476 79.6669 272.826 79.6669 271.5C79.6669 270.174 80.3656 269.524 81.667 269.501V269.5H97.667V269.501C98.9684 269.524 99.667 270.174 99.667 271.5ZM97.667 274.501V274.5H81.667V274.501C80.3656 274.524 79.6669 275.174 79.6669 276.5C79.6669 277.826 80.3656 278.476 81.667 278.499V278.5H97.667V278.499C98.9683 278.476 99.667 277.826 99.667 276.5C99.667 275.174 98.9684 274.524 97.667 274.501ZM102.667 263.502V263.501C101.366 263.524 100.667 264.174 100.667 265.5V276.5C100.667 277.826 101.366 278.476 102.667 278.499V278.497C104.619 278.428 105.667 276.478 105.667 272.5V267.5C105.667 264.848 104.619 263.548 102.667 263.502ZM76.667 263.501V263.502C74.715 263.548 73.667 264.848 73.667 267.5V272.5C73.667 276.478 74.715 278.428 76.667 278.497V278.499C77.9684 278.476 78.6669 277.826 78.6669 276.5V265.5C78.6669 264.174 77.9684 263.524 76.667 263.501ZM102.667 262.5C102.667 259.185 100.92 257.56 97.667 257.503V257.5H81.667V257.503C78.4137 257.56 76.667 259.185 76.667 262.5V262.502C78.619 262.536 79.6669 263.511 79.6669 265.5C79.6669 267.489 80.715 268.464 82.667 268.498V268.5H96.667V268.498C98.6191 268.464 99.667 267.489 99.667 265.5C99.667 263.511 100.715 262.536 102.667 262.502V262.5Z" fill="#111827"/>
<path d="M63.5264 311.137C62.6468 311.137 61.8607 310.929 61.168 310.515C60.4753 310.095 59.9307 309.496 59.5342 308.717C59.1377 307.933 58.9395 306.999 58.9395 305.914C58.9395 304.825 59.1377 303.891 59.5342 303.111C59.9307 302.327 60.4753 301.726 61.168 301.307C61.8607 300.887 62.6468 300.678 63.5264 300.678C64.0641 300.678 64.5677 300.755 65.0371 300.91C65.5111 301.065 65.9326 301.291 66.3018 301.587C66.6755 301.883 66.9831 302.243 67.2246 302.667C67.4707 303.091 67.637 303.572 67.7236 304.109H66.1582C66.0944 303.786 65.9805 303.501 65.8164 303.255C65.6569 303.004 65.4609 302.792 65.2285 302.619C64.9961 302.446 64.7363 302.316 64.4492 302.229C64.1621 302.143 63.859 302.1 63.54 302.1C62.9567 302.1 62.4326 302.248 61.9678 302.544C61.5075 302.836 61.1452 303.266 60.8809 303.836C60.6165 304.401 60.4844 305.094 60.4844 305.914C60.4844 306.734 60.6188 307.429 60.8877 307.999C61.1566 308.564 61.5212 308.993 61.9814 309.284C62.4417 309.571 62.9613 309.715 63.54 309.715C63.859 309.715 64.1598 309.672 64.4424 309.585C64.7295 309.494 64.9893 309.364 65.2217 309.195C65.4587 309.022 65.6569 308.81 65.8164 308.56C65.9805 308.309 66.0944 308.024 66.1582 307.705H67.7305C67.653 308.206 67.4958 308.667 67.2588 309.086C67.0218 309.501 66.7188 309.863 66.3496 310.173C65.9805 310.483 65.5566 310.722 65.0781 310.891C64.6042 311.055 64.0869 311.137 63.5264 311.137ZM72.6592 311.157C71.9437 311.157 71.3171 310.993 70.7793 310.665C70.2461 310.337 69.8314 309.877 69.5352 309.284C69.2389 308.692 69.0908 308.004 69.0908 307.22C69.0908 306.427 69.2389 305.734 69.5352 305.142C69.8314 304.545 70.2461 304.082 70.7793 303.754C71.3171 303.426 71.9437 303.262 72.6592 303.262C73.3792 303.262 74.0059 303.426 74.5391 303.754C75.0768 304.082 75.4938 304.545 75.79 305.142C76.0863 305.734 76.2344 306.427 76.2344 307.22C76.2344 308.004 76.0863 308.692 75.79 309.284C75.4938 309.877 75.0768 310.337 74.5391 310.665C74.0059 310.993 73.3792 311.157 72.6592 311.157ZM72.6592 309.886C73.124 309.886 73.5068 309.765 73.8076 309.523C74.113 309.277 74.3385 308.954 74.4844 308.553C74.6348 308.147 74.71 307.703 74.71 307.22C74.71 306.732 74.6348 306.285 74.4844 305.88C74.3385 305.47 74.113 305.144 73.8076 304.902C73.5068 304.656 73.124 304.533 72.6592 304.533C72.1989 304.533 71.8184 304.656 71.5176 304.902C71.2168 305.144 70.9912 305.467 70.8408 305.873C70.695 306.279 70.6221 306.728 70.6221 307.22C70.6221 307.703 70.695 308.147 70.8408 308.553C70.9912 308.954 71.2168 309.277 71.5176 309.523C71.8184 309.765 72.1989 309.886 72.6592 309.886ZM80.5137 311.096C79.9941 311.096 79.5384 310.986 79.1465 310.768C78.7546 310.549 78.4492 310.225 78.2305 309.797C78.0163 309.368 77.9092 308.84 77.9092 308.211V303.357H79.4131V308.026C79.4131 308.578 79.5566 309.008 79.8438 309.318C80.1354 309.628 80.5296 309.783 81.0264 309.783C81.3682 309.783 81.6712 309.71 81.9355 309.564C82.2044 309.414 82.4163 309.198 82.5713 308.915C82.7262 308.628 82.8037 308.284 82.8037 307.883V303.357H84.3076V311H82.8721L82.8652 309.127H83.0088C82.7855 309.82 82.4596 310.321 82.0312 310.631C81.6029 310.941 81.097 311.096 80.5137 311.096ZM89.5439 311.157C88.8239 311.157 88.1973 310.993 87.6641 310.665C87.1309 310.337 86.7161 309.877 86.4199 309.284C86.1237 308.692 85.9756 308.004 85.9756 307.22C85.9756 306.427 86.1237 305.734 86.4199 305.142C86.7161 304.545 87.1309 304.082 87.6641 303.754C88.1973 303.426 88.8239 303.262 89.5439 303.262C89.9404 303.262 90.3118 303.314 90.6582 303.419C91.0046 303.519 91.3167 303.667 91.5947 303.863C91.8773 304.055 92.1143 304.292 92.3057 304.574C92.5016 304.852 92.6475 305.167 92.7432 305.518L91.3145 305.859C91.2643 305.663 91.1868 305.486 91.082 305.326C90.9772 305.162 90.8496 305.021 90.6992 304.902C90.5534 304.784 90.3825 304.693 90.1865 304.629C89.9951 304.565 89.7832 304.533 89.5508 304.533C89.0905 304.533 88.7077 304.656 88.4023 304.902C88.1016 305.144 87.876 305.467 87.7256 305.873C87.5798 306.279 87.5068 306.728 87.5068 307.22C87.5068 307.707 87.5798 308.154 87.7256 308.56C87.876 308.961 88.1016 309.282 88.4023 309.523C88.7077 309.765 89.0905 309.886 89.5508 309.886C89.7878 309.886 90.0042 309.854 90.2002 309.79C90.3962 309.722 90.5716 309.628 90.7266 309.51C90.8815 309.387 91.0114 309.241 91.1162 309.072C91.221 308.899 91.2962 308.71 91.3418 308.505L92.7637 308.847C92.6725 309.207 92.529 309.53 92.333 309.817C92.137 310.1 91.8978 310.341 91.6152 310.542C91.3372 310.743 91.0228 310.895 90.6719 311C90.321 311.105 89.945 311.157 89.5439 311.157ZM95.915 306.475V311H94.4111V300.814H95.9014V305.23H95.7031C95.9264 304.547 96.25 304.048 96.6738 303.733C97.0977 303.419 97.6104 303.262 98.2119 303.262C98.7314 303.262 99.1849 303.371 99.5723 303.59C99.9642 303.809 100.267 304.132 100.481 304.561C100.7 304.984 100.81 305.513 100.81 306.146V311H99.3057V306.331C99.3057 305.78 99.1621 305.349 98.875 305.039C98.5879 304.729 98.1937 304.574 97.6924 304.574C97.3551 304.574 97.0521 304.649 96.7832 304.8C96.5143 304.946 96.3024 305.16 96.1475 305.442C95.9925 305.725 95.915 306.069 95.915 306.475ZM106.258 311H103.742V309.633H106.176C106.946 309.633 107.586 309.489 108.097 309.202C108.607 308.915 108.99 308.493 109.245 307.938C109.5 307.377 109.628 306.696 109.628 305.894C109.628 305.096 109.5 304.422 109.245 303.87C108.994 303.319 108.618 302.899 108.117 302.612C107.62 302.325 107.001 302.182 106.258 302.182H103.688V300.814H106.36C107.363 300.814 108.222 301.017 108.938 301.423C109.653 301.828 110.202 302.412 110.585 303.173C110.968 303.929 111.159 304.836 111.159 305.894C111.159 306.955 110.965 307.867 110.578 308.628C110.195 309.389 109.637 309.975 108.903 310.385C108.174 310.795 107.292 311 106.258 311ZM104.508 300.814V311H102.949V300.814H104.508ZM113.053 311V300.814H116.806C117.53 300.814 118.13 300.933 118.604 301.17C119.077 301.407 119.431 301.728 119.663 302.134C119.896 302.535 120.012 302.986 120.012 303.487C120.012 303.911 119.934 304.269 119.779 304.561C119.624 304.848 119.415 305.08 119.15 305.258C118.891 305.431 118.604 305.559 118.289 305.641V305.743C118.631 305.757 118.964 305.866 119.287 306.071C119.611 306.272 119.877 306.557 120.087 306.926C120.301 307.29 120.408 307.735 120.408 308.259C120.408 308.774 120.285 309.239 120.039 309.653C119.798 310.068 119.424 310.396 118.918 310.638C118.412 310.879 117.763 311 116.97 311H113.053ZM114.611 309.66H116.812C117.542 309.66 118.066 309.519 118.385 309.236C118.704 308.954 118.863 308.603 118.863 308.184C118.863 307.855 118.781 307.559 118.617 307.295C118.458 307.031 118.23 306.821 117.934 306.666C117.637 306.507 117.284 306.427 116.874 306.427H114.611V309.66ZM114.611 305.224H116.655C116.997 305.224 117.307 305.158 117.585 305.025C117.863 304.893 118.082 304.706 118.241 304.465C118.401 304.223 118.48 303.941 118.48 303.617C118.48 303.198 118.335 302.849 118.043 302.571C117.751 302.289 117.302 302.147 116.696 302.147H114.611V305.224Z" fill="#111827"/>
<rect x="210.833" y="232.5" width="176.333" height="103" rx="3.5" fill="white"/>
<rect x="210.833" y="232.5" width="176.333" height="103" rx="3.5" stroke="#E4E4E7"/>
<path d="M314.857 257.693C314.77 257.619 314.66 257.58 314.547 257.584C314.237 257.584 313.838 257.793 313.624 257.911L313.538 257.955C313.177 258.129 312.785 258.228 312.384 258.245C311.974 258.258 311.621 258.282 311.16 258.329C308.432 258.61 307.216 260.701 306.044 262.722C305.407 263.822 304.748 264.959 303.845 265.84C303.657 266.021 303.458 266.189 303.249 266.345C302.314 267.042 301.14 267.534 300.222 267.885C299.342 268.221 298.383 268.524 297.454 268.816C296.605 269.083 295.802 269.335 295.065 269.61C294.732 269.734 294.45 269.828 294.2 269.911C293.529 270.13 293.043 270.297 292.336 270.784C292.06 270.973 291.783 271.177 291.594 271.33C291.032 271.778 290.535 272.302 290.117 272.887C289.757 273.427 289.341 273.927 288.876 274.38C288.728 274.527 288.462 274.599 288.066 274.599C287.6 274.599 287.037 274.503 286.439 274.401C285.841 274.3 285.189 274.183 284.643 274.183C284.199 274.183 283.861 274.255 283.607 274.401C283.607 274.401 283.181 274.65 283 274.972L283.177 275.051C283.451 275.2 283.705 275.384 283.933 275.597C284.169 275.817 284.432 276.004 284.717 276.155C284.809 276.19 284.892 276.244 284.962 276.314C284.886 276.423 284.777 276.564 284.663 276.714C284.033 277.538 283.667 278.058 283.877 278.342C283.978 278.395 284.091 278.42 284.205 278.416C285.578 278.416 286.315 278.059 287.249 277.608C287.518 277.477 287.794 277.341 288.121 277.204C288.667 276.967 289.254 276.59 289.876 276.19C290.7 275.661 291.552 275.114 292.377 274.848C293.056 274.641 293.764 274.542 294.475 274.554C295.347 274.554 296.266 274.671 297.152 274.784C297.813 274.869 298.496 274.956 299.167 275.002C299.428 275.018 299.669 275.025 299.905 275.025C300.219 275.026 300.532 275.01 300.844 274.976L300.918 274.95C301.39 274.661 301.61 274.04 301.823 273.44C301.96 273.054 302.076 272.707 302.259 272.486C302.27 272.475 302.282 272.465 302.295 272.457C302.304 272.452 302.314 272.45 302.324 272.452C302.333 272.453 302.342 272.458 302.349 272.466C302.351 272.471 302.351 272.477 302.349 272.483C302.24 274.83 301.294 276.319 300.339 277.644L299.691 278.323C299.691 278.323 300.583 278.323 301.092 278.127C302.947 277.573 304.348 276.351 305.367 274.402C305.618 273.902 305.842 273.389 306.039 272.865C306.056 272.821 306.218 272.74 306.201 272.966C306.201 273.033 306.193 273.107 306.187 273.185C306.187 273.23 306.181 273.277 306.178 273.324C306.151 273.652 306.069 274.343 306.069 274.343L306.642 274.037C308.023 273.164 309.088 271.403 309.896 268.663C310.233 267.522 310.478 266.388 310.695 265.39C310.955 264.19 311.179 263.161 311.435 262.762C311.838 262.135 312.452 261.712 313.047 261.301C313.128 261.245 313.209 261.192 313.289 261.133C314.037 260.608 314.78 260.002 314.943 258.873V258.848C315.067 258.006 314.966 257.796 314.857 257.693Z" fill="#111827"/>
<path d="M268.628 311V300.814H270.925L273.146 306.659C273.21 306.832 273.281 307.051 273.358 307.315C273.44 307.58 273.525 307.867 273.611 308.177C273.698 308.487 273.78 308.792 273.857 309.093C273.935 309.394 274.003 309.665 274.062 309.906H273.734C273.794 309.678 273.862 309.416 273.939 309.12C274.017 308.819 274.099 308.514 274.186 308.204C274.272 307.894 274.356 307.603 274.438 307.329C274.521 307.056 274.593 306.832 274.657 306.659L276.845 300.814H279.155V311H277.604V305.518C277.604 305.308 277.606 305.057 277.61 304.766C277.615 304.474 277.619 304.166 277.624 303.843C277.633 303.515 277.64 303.184 277.645 302.852C277.654 302.519 277.66 302.2 277.665 301.895H277.781C277.69 302.227 277.59 302.571 277.48 302.927C277.376 303.278 277.271 303.617 277.166 303.945C277.066 304.273 276.968 304.574 276.872 304.848C276.781 305.117 276.703 305.34 276.64 305.518L274.555 311H273.222L271.109 305.518C271.041 305.344 270.961 305.126 270.87 304.861C270.784 304.592 270.688 304.296 270.583 303.973C270.478 303.645 270.371 303.305 270.262 302.954C270.152 302.599 270.043 302.245 269.934 301.895H270.07C270.079 302.173 270.086 302.476 270.091 302.804C270.1 303.127 270.107 303.455 270.111 303.788C270.12 304.121 270.127 304.438 270.132 304.738C270.141 305.035 270.146 305.294 270.146 305.518V311H268.628ZM284.132 311.15C283.517 311.15 282.967 310.993 282.484 310.679C282.006 310.36 281.628 309.906 281.35 309.318C281.076 308.726 280.939 308.02 280.939 307.199C280.939 306.37 281.078 305.661 281.356 305.073C281.639 304.485 282.022 304.036 282.505 303.727C282.993 303.417 283.542 303.262 284.152 303.262C284.622 303.262 285 303.339 285.287 303.494C285.579 303.649 285.804 303.834 285.964 304.048C286.128 304.257 286.253 304.442 286.34 304.602H286.436V303.357H287.926V311H286.442V309.804H286.34C286.253 309.968 286.126 310.157 285.957 310.371C285.788 310.581 285.558 310.763 285.267 310.918C284.975 311.073 284.597 311.15 284.132 311.15ZM284.48 309.872C284.909 309.872 285.269 309.758 285.561 309.53C285.857 309.302 286.08 308.988 286.23 308.587C286.381 308.181 286.456 307.714 286.456 307.186C286.456 306.652 286.381 306.19 286.23 305.798C286.08 305.401 285.857 305.094 285.561 304.875C285.269 304.652 284.909 304.54 284.48 304.54C284.038 304.54 283.669 304.656 283.373 304.889C283.077 305.117 282.854 305.431 282.703 305.832C282.553 306.229 282.478 306.68 282.478 307.186C282.478 307.691 282.553 308.147 282.703 308.553C282.854 308.958 283.077 309.28 283.373 309.517C283.674 309.754 284.043 309.872 284.48 309.872ZM289.949 311V303.357H291.405V304.588H291.487C291.629 304.169 291.875 303.84 292.226 303.604C292.576 303.367 292.975 303.248 293.422 303.248C293.518 303.248 293.627 303.253 293.75 303.262C293.873 303.266 293.976 303.275 294.058 303.289V304.725C294.003 304.706 293.898 304.688 293.743 304.67C293.588 304.652 293.431 304.643 293.271 304.643C292.925 304.643 292.613 304.715 292.335 304.861C292.057 305.007 291.84 305.21 291.686 305.47C291.531 305.725 291.453 306.021 291.453 306.358V311H289.949ZM295.541 311V303.357H297.045V311H295.541ZM296.3 302.188C296.04 302.188 295.817 302.102 295.63 301.929C295.448 301.756 295.356 301.546 295.356 301.3C295.356 301.049 295.448 300.837 295.63 300.664C295.817 300.491 296.04 300.404 296.3 300.404C296.56 300.404 296.783 300.491 296.97 300.664C297.157 300.837 297.25 301.049 297.25 301.3C297.25 301.546 297.157 301.756 296.97 301.929C296.783 302.102 296.56 302.188 296.3 302.188ZM301.905 311.15C301.29 311.15 300.741 310.993 300.258 310.679C299.779 310.36 299.401 309.906 299.123 309.318C298.85 308.726 298.713 308.02 298.713 307.199C298.713 306.37 298.852 305.661 299.13 305.073C299.412 304.485 299.795 304.036 300.278 303.727C300.766 303.417 301.315 303.262 301.926 303.262C302.395 303.262 302.773 303.339 303.061 303.494C303.352 303.649 303.578 303.834 303.737 304.048C303.901 304.257 304.027 304.442 304.113 304.602H304.209V303.357H305.699V311H304.216V309.804H304.113C304.027 309.968 303.899 310.157 303.73 310.371C303.562 310.581 303.332 310.763 303.04 310.918C302.748 311.073 302.37 311.15 301.905 311.15ZM302.254 309.872C302.682 309.872 303.042 309.758 303.334 309.53C303.63 309.302 303.854 308.988 304.004 308.587C304.154 308.181 304.229 307.714 304.229 307.186C304.229 306.652 304.154 306.19 304.004 305.798C303.854 305.401 303.63 305.094 303.334 304.875C303.042 304.652 302.682 304.54 302.254 304.54C301.812 304.54 301.443 304.656 301.146 304.889C300.85 305.117 300.627 305.431 300.477 305.832C300.326 306.229 300.251 306.68 300.251 307.186C300.251 307.691 300.326 308.147 300.477 308.553C300.627 308.958 300.85 309.28 301.146 309.517C301.447 309.754 301.816 309.872 302.254 309.872ZM314.88 311H312.364V309.633H314.798C315.568 309.633 316.208 309.489 316.719 309.202C317.229 308.915 317.612 308.493 317.867 307.938C318.122 307.377 318.25 306.696 318.25 305.894C318.25 305.096 318.122 304.422 317.867 303.87C317.617 303.319 317.241 302.899 316.739 302.612C316.243 302.325 315.623 302.182 314.88 302.182H312.31V300.814H314.982C315.985 300.814 316.844 301.017 317.56 301.423C318.275 301.828 318.824 302.412 319.207 303.173C319.59 303.929 319.781 304.836 319.781 305.894C319.781 306.955 319.588 307.867 319.2 308.628C318.817 309.389 318.259 309.975 317.525 310.385C316.796 310.795 315.914 311 314.88 311ZM313.13 300.814V311H311.571V300.814H313.13ZM321.675 311V300.814H325.428C326.152 300.814 326.752 300.933 327.226 301.17C327.7 301.407 328.053 301.728 328.285 302.134C328.518 302.535 328.634 302.986 328.634 303.487C328.634 303.911 328.556 304.269 328.401 304.561C328.246 304.848 328.037 305.08 327.772 305.258C327.513 305.431 327.226 305.559 326.911 305.641V305.743C327.253 305.757 327.586 305.866 327.909 306.071C328.233 306.272 328.499 306.557 328.709 306.926C328.923 307.29 329.03 307.735 329.03 308.259C329.03 308.774 328.907 309.239 328.661 309.653C328.42 310.068 328.046 310.396 327.54 310.638C327.034 310.879 326.385 311 325.592 311H321.675ZM323.233 309.66H325.435C326.164 309.66 326.688 309.519 327.007 309.236C327.326 308.954 327.485 308.603 327.485 308.184C327.485 307.855 327.403 307.559 327.239 307.295C327.08 307.031 326.852 306.821 326.556 306.666C326.259 306.507 325.906 306.427 325.496 306.427H323.233V309.66ZM323.233 305.224H325.277C325.619 305.224 325.929 305.158 326.207 305.025C326.485 304.893 326.704 304.706 326.863 304.465C327.023 304.223 327.103 303.941 327.103 303.617C327.103 303.198 326.957 302.849 326.665 302.571C326.373 302.289 325.924 302.147 325.318 302.147H323.233V305.224Z" fill="#111827"/>
<rect x="420.167" y="232.5" width="176.333" height="103" rx="3.5" fill="white"/>
<rect x="420.167" y="232.5" width="176.333" height="103" rx="3.5" stroke="#E4E4E7"/>
<path fill-rule="evenodd" clip-rule="evenodd" d="M503.74 254.02L507.907 252V259.231L503.74 260.146L503.74 254.02ZM496.51 278.411V257.272L494.702 258.226V277.457L496.51 278.411ZM520.159 278.411V257.272L521.966 258.226V277.457L520.159 278.411ZM507.907 276.631L503.74 275.753L503.74 282.017L507.907 283.862V276.631ZM502.987 258.678L497.464 257.222L497.413 278.511L502.937 277.055V274.896L508.56 273.892L513.832 274.946V277.055L519.255 278.511V257.222L513.832 258.728V261.088L508.309 262.142L502.987 261.038V258.678ZM513.079 264.502L508.911 264V271.783L513.079 271.18L513.079 264.502ZM503.74 264.502L507.907 264V271.783L503.74 271.18L503.74 264.502ZM508.912 252L513.079 254.02L513.079 260.284L508.912 259.369V252ZM513.079 275.753L508.912 276.631V284L513.079 282.017L513.079 275.753ZM508.321 260.099L505.696 260.716L508.295 261.385L510.972 260.768L508.321 260.099ZM505.696 275.264L508.321 274.647L510.972 275.316L508.295 275.933L505.696 275.264Z" fill="#111827"/>
<path d="M478.88 311.171C478.119 311.171 477.458 311.05 476.897 310.809C476.337 310.567 475.897 310.223 475.578 309.776C475.264 309.325 475.09 308.79 475.059 308.17H476.624C476.656 308.539 476.774 308.844 476.979 309.086C477.189 309.327 477.46 309.507 477.793 309.626C478.126 309.744 478.486 309.804 478.873 309.804C479.306 309.804 479.689 309.738 480.021 309.605C480.359 309.469 480.625 309.277 480.821 309.031C481.017 308.781 481.115 308.491 481.115 308.163C481.115 307.867 481.029 307.625 480.855 307.438C480.687 307.247 480.457 307.09 480.165 306.967C479.878 306.839 479.55 306.728 479.181 306.632L477.991 306.304C477.157 306.08 476.506 305.75 476.036 305.312C475.571 304.875 475.339 304.308 475.339 303.61C475.339 303.022 475.496 302.51 475.811 302.072C476.13 301.63 476.56 301.288 477.103 301.047C477.649 300.801 478.265 300.678 478.948 300.678C479.646 300.678 480.258 300.801 480.787 301.047C481.32 301.288 481.737 301.621 482.038 302.045C482.343 302.469 482.503 302.952 482.517 303.494H480.999C480.949 303.029 480.732 302.669 480.35 302.414C479.971 302.159 479.493 302.031 478.914 302.031C478.504 302.031 478.146 302.095 477.841 302.223C477.54 302.35 477.305 302.528 477.137 302.756C476.973 302.979 476.891 303.234 476.891 303.521C476.891 303.845 476.989 304.107 477.185 304.308C477.385 304.504 477.627 304.661 477.909 304.779C478.196 304.893 478.47 304.984 478.729 305.053L479.721 305.312C480.044 305.395 480.377 305.506 480.719 305.647C481.065 305.784 481.384 305.964 481.676 306.188C481.967 306.406 482.202 306.68 482.38 307.008C482.562 307.331 482.653 307.723 482.653 308.184C482.653 308.758 482.505 309.271 482.209 309.722C481.913 310.173 481.482 310.528 480.917 310.788C480.356 311.043 479.677 311.171 478.88 311.171ZM487.78 311.137C487.092 311.137 486.479 311.018 485.941 310.781C485.408 310.544 484.984 310.216 484.67 309.797C484.36 309.378 484.196 308.89 484.178 308.334H485.757C485.78 308.635 485.88 308.895 486.058 309.113C486.24 309.332 486.479 309.501 486.775 309.619C487.072 309.738 487.402 309.797 487.767 309.797C488.168 309.797 488.521 309.729 488.826 309.592C489.132 309.455 489.371 309.264 489.544 309.018C489.722 308.767 489.811 308.478 489.811 308.149C489.811 307.808 489.724 307.509 489.551 307.254C489.378 306.994 489.127 306.791 488.799 306.646C488.471 306.5 488.072 306.427 487.603 306.427H486.734V305.155H487.603C487.976 305.155 488.307 305.089 488.594 304.957C488.881 304.82 489.104 304.631 489.264 304.39C489.423 304.148 489.503 303.866 489.503 303.542C489.503 303.228 489.432 302.954 489.291 302.722C489.15 302.489 488.951 302.309 488.696 302.182C488.441 302.049 488.14 301.983 487.794 301.983C487.466 301.983 487.158 302.045 486.871 302.168C486.589 302.286 486.358 302.455 486.181 302.674C486.003 302.893 485.907 303.157 485.894 303.467H484.39C484.408 302.915 484.57 302.43 484.875 302.011C485.185 301.591 485.595 301.266 486.105 301.033C486.62 300.796 487.192 300.678 487.821 300.678C488.473 300.678 489.038 300.805 489.517 301.061C490 301.316 490.371 301.655 490.631 302.079C490.891 302.498 491.021 302.956 491.021 303.453C491.021 304.027 490.861 304.513 490.542 304.909C490.223 305.301 489.797 305.568 489.264 305.709V305.784C489.715 305.853 490.1 305.998 490.419 306.222C490.738 306.44 490.979 306.718 491.144 307.056C491.308 307.393 491.39 307.776 491.39 308.204C491.39 308.765 491.235 309.266 490.925 309.708C490.615 310.15 490.187 310.499 489.64 310.754C489.097 311.009 488.478 311.137 487.78 311.137ZM497.022 311V300.814H500.775C501.5 300.814 502.099 300.933 502.573 301.17C503.047 301.407 503.4 301.728 503.633 302.134C503.865 302.535 503.981 302.986 503.981 303.487C503.981 303.911 503.904 304.269 503.749 304.561C503.594 304.848 503.384 305.08 503.12 305.258C502.86 305.431 502.573 305.559 502.259 305.641V305.743C502.601 305.757 502.933 305.866 503.257 306.071C503.58 306.272 503.847 306.557 504.057 306.926C504.271 307.29 504.378 307.735 504.378 308.259C504.378 308.774 504.255 309.239 504.009 309.653C503.767 310.068 503.394 310.396 502.888 310.638C502.382 310.879 501.732 311 500.939 311H497.022ZM498.581 309.66H500.782C501.511 309.66 502.035 309.519 502.354 309.236C502.674 308.954 502.833 308.603 502.833 308.184C502.833 307.855 502.751 307.559 502.587 307.295C502.427 307.031 502.2 306.821 501.903 306.666C501.607 306.507 501.254 306.427 500.844 306.427H498.581V309.66ZM498.581 305.224H500.625C500.967 305.224 501.277 305.158 501.555 305.025C501.833 304.893 502.051 304.706 502.211 304.465C502.37 304.223 502.45 303.941 502.45 303.617C502.45 303.198 502.304 302.849 502.013 302.571C501.721 302.289 501.272 302.147 500.666 302.147H498.581V305.224ZM508.712 311.096C508.192 311.096 507.737 310.986 507.345 310.768C506.953 310.549 506.647 310.225 506.429 309.797C506.215 309.368 506.107 308.84 506.107 308.211V303.357H507.611V308.026C507.611 308.578 507.755 309.008 508.042 309.318C508.334 309.628 508.728 309.783 509.225 309.783C509.566 309.783 509.869 309.71 510.134 309.564C510.403 309.414 510.615 309.198 510.77 308.915C510.924 308.628 511.002 308.284 511.002 307.883V303.357H512.506V311H511.07L511.063 309.127H511.207C510.984 309.82 510.658 310.321 510.229 310.631C509.801 310.941 509.295 311.096 508.712 311.096ZM517.742 311.157C517.022 311.157 516.396 310.993 515.862 310.665C515.329 310.337 514.914 309.877 514.618 309.284C514.322 308.692 514.174 308.004 514.174 307.22C514.174 306.427 514.322 305.734 514.618 305.142C514.914 304.545 515.329 304.082 515.862 303.754C516.396 303.426 517.022 303.262 517.742 303.262C518.139 303.262 518.51 303.314 518.856 303.419C519.203 303.519 519.515 303.667 519.793 303.863C520.076 304.055 520.312 304.292 520.504 304.574C520.7 304.852 520.846 305.167 520.941 305.518L519.513 305.859C519.463 305.663 519.385 305.486 519.28 305.326C519.175 305.162 519.048 305.021 518.897 304.902C518.752 304.784 518.581 304.693 518.385 304.629C518.193 304.565 517.981 304.533 517.749 304.533C517.289 304.533 516.906 304.656 516.601 304.902C516.3 305.144 516.074 305.467 515.924 305.873C515.778 306.279 515.705 306.728 515.705 307.22C515.705 307.707 515.778 308.154 515.924 308.56C516.074 308.961 516.3 309.282 516.601 309.523C516.906 309.765 517.289 309.886 517.749 309.886C517.986 309.886 518.202 309.854 518.398 309.79C518.594 309.722 518.77 309.628 518.925 309.51C519.08 309.387 519.21 309.241 519.314 309.072C519.419 308.899 519.494 308.71 519.54 308.505L520.962 308.847C520.871 309.207 520.727 309.53 520.531 309.817C520.335 310.1 520.096 310.341 519.813 310.542C519.535 310.743 519.221 310.895 518.87 311C518.519 311.105 518.143 311.157 517.742 311.157ZM523.997 308.423V306.584H524.25L527.265 303.357H529.069L525.617 307.056H525.364L523.997 308.423ZM522.609 311V300.814H524.113V311H522.609ZM527.422 311L524.708 307.391L525.747 306.324L529.281 311H527.422ZM533.424 311.157C532.672 311.157 532.022 310.995 531.476 310.672C530.929 310.348 530.507 309.893 530.211 309.305C529.919 308.717 529.773 308.026 529.773 307.233C529.773 306.45 529.917 305.759 530.204 305.162C530.496 304.565 530.906 304.1 531.435 303.768C531.963 303.43 532.583 303.262 533.294 303.262C533.731 303.262 534.153 303.335 534.559 303.48C534.964 303.622 535.329 303.845 535.652 304.15C535.976 304.456 536.231 304.852 536.418 305.34C536.609 305.823 536.705 306.411 536.705 307.104V307.637H530.614V306.516H535.933L535.229 306.885C535.229 306.415 535.156 306.003 535.01 305.647C534.864 305.287 534.647 305.007 534.36 304.807C534.078 304.606 533.722 304.506 533.294 304.506C532.87 304.506 532.508 304.608 532.207 304.813C531.906 305.019 531.676 305.29 531.517 305.627C531.362 305.96 531.284 306.324 531.284 306.721V307.486C531.284 308.01 531.373 308.455 531.551 308.819C531.733 309.179 531.986 309.453 532.31 309.64C532.633 309.822 533.009 309.913 533.438 309.913C533.72 309.913 533.975 309.874 534.203 309.797C534.431 309.715 534.627 309.594 534.791 309.435C534.96 309.271 535.087 309.07 535.174 308.833L536.589 309.168C536.466 309.56 536.258 309.906 535.967 310.207C535.68 310.508 535.32 310.743 534.887 310.911C534.458 311.075 533.971 311.157 533.424 311.157ZM541.627 303.357V304.581H537.484V303.357H541.627ZM538.599 301.539H540.103V308.936C540.103 309.241 540.166 309.466 540.294 309.612C540.426 309.754 540.64 309.824 540.937 309.824C541.014 309.824 541.117 309.815 541.244 309.797C541.372 309.779 541.481 309.76 541.572 309.742L541.839 310.945C541.679 311 541.508 311.039 541.326 311.062C541.144 311.089 540.964 311.103 540.786 311.103C540.093 311.103 539.556 310.925 539.173 310.569C538.79 310.209 538.599 309.706 538.599 309.059V301.539Z" fill="#111827"/>
<defs>
<clipPath id="clip0_3945_114886">
<rect x="1" y="28" width="596" height="36" rx="4" fill="white"/>
</clipPath>
</defs>
</svg>
