<svg width="358" height="337" viewBox="0 0 358 337" fill="none" xmlns="http://www.w3.org/2000/svg">
<path d="M2.12793 17.04V6.85449H3.92578L7.76074 12.918C7.88835 13.1185 8.0319 13.3577 8.19141 13.6357C8.35091 13.9137 8.51953 14.2282 8.69727 14.5791C8.875 14.9255 9.05046 15.3037 9.22363 15.7139H9.03223C8.99121 15.3265 8.95931 14.9437 8.93652 14.5654C8.91829 14.1826 8.90462 13.8249 8.89551 13.4922C8.88639 13.1595 8.88184 12.8792 8.88184 12.6514V6.85449H10.4609V17.04H8.65625L5.21777 11.6191C5.03548 11.3229 4.85547 11.0244 4.67773 10.7236C4.50456 10.4229 4.31087 10.0765 4.09668 9.68457C3.88704 9.28809 3.62956 8.80729 3.32422 8.24219H3.57031C3.5931 8.74349 3.61589 9.21289 3.63867 9.65039C3.66146 10.0833 3.67741 10.4684 3.68652 10.8057C3.7002 11.1383 3.70703 11.4049 3.70703 11.6055V17.04H2.12793ZM15.4443 17.1904C14.8291 17.1904 14.2799 17.0332 13.7969 16.7188C13.3184 16.3997 12.9401 15.9463 12.6621 15.3584C12.3887 14.766 12.252 14.0596 12.252 13.2393C12.252 12.4098 12.391 11.7012 12.6689 11.1133C12.9515 10.5254 13.3343 10.0765 13.8174 9.7666C14.305 9.45671 14.8542 9.30176 15.4648 9.30176C15.9342 9.30176 16.3125 9.37923 16.5996 9.53418C16.8913 9.68913 17.1169 9.8737 17.2764 10.0879C17.4404 10.2975 17.5658 10.4821 17.6523 10.6416H17.748V9.39746H19.2383V17.04H17.7549V15.8438H17.6523C17.5658 16.0078 17.4382 16.1969 17.2695 16.4111C17.1009 16.6208 16.8708 16.8031 16.5791 16.958C16.2874 17.113 15.9092 17.1904 15.4443 17.1904ZM15.793 15.9121C16.2214 15.9121 16.5814 15.7982 16.873 15.5703C17.1693 15.3424 17.3926 15.028 17.543 14.627C17.6934 14.2214 17.7686 13.7542 17.7686 13.2256C17.7686 12.6924 17.6934 12.2298 17.543 11.8379C17.3926 11.4414 17.1693 11.1338 16.873 10.915C16.5814 10.6917 16.2214 10.5801 15.793 10.5801C15.3509 10.5801 14.9818 10.6963 14.6855 10.9287C14.3893 11.1566 14.166 11.471 14.0156 11.8721C13.8652 12.2686 13.79 12.7197 13.79 13.2256C13.79 13.7314 13.8652 14.1872 14.0156 14.5928C14.166 14.9984 14.3893 15.3197 14.6855 15.5566C14.9863 15.7936 15.3555 15.9121 15.793 15.9121ZM21.2617 17.04V9.39746H22.6904L22.7314 11.168H22.6152C22.7246 10.735 22.8932 10.3796 23.1211 10.1016C23.349 9.82357 23.6156 9.61621 23.9209 9.47949C24.2262 9.33822 24.5452 9.26758 24.8779 9.26758C25.4339 9.26758 25.8828 9.44076 26.2246 9.78711C26.5664 10.1289 26.7965 10.6074 26.915 11.2227H26.7236C26.8239 10.8034 26.9971 10.4479 27.2432 10.1562C27.4893 9.86458 27.7855 9.64355 28.1318 9.49316C28.4827 9.34277 28.8564 9.26758 29.2529 9.26758C29.7041 9.26758 30.112 9.36556 30.4766 9.56152C30.8457 9.75749 31.1374 10.0492 31.3516 10.4365C31.5658 10.8239 31.6729 11.307 31.6729 11.8857V17.04H30.1621V12.0361C30.1621 11.5257 30.0208 11.1566 29.7383 10.9287C29.4557 10.7008 29.1208 10.5869 28.7334 10.5869C28.4189 10.5869 28.1478 10.653 27.9199 10.7852C27.6921 10.9173 27.5166 11.1019 27.3936 11.3389C27.2705 11.5713 27.209 11.8402 27.209 12.1455V17.04H25.7256V11.9404C25.7256 11.5303 25.5934 11.2021 25.3291 10.9561C25.0693 10.71 24.7367 10.5869 24.3311 10.5869C24.0531 10.5869 23.7933 10.653 23.5518 10.7852C23.3148 10.9128 23.1234 11.1042 22.9775 11.3594C22.8363 11.61 22.7656 11.9199 22.7656 12.2891V17.04H21.2617ZM36.998 17.1973C36.2461 17.1973 35.5967 17.0355 35.0498 16.7119C34.5029 16.3883 34.0814 15.9326 33.7852 15.3447C33.4935 14.7568 33.3477 14.0664 33.3477 13.2734C33.3477 12.4896 33.4912 11.7992 33.7783 11.2021C34.07 10.6051 34.4801 10.1403 35.0088 9.80762C35.5374 9.47038 36.1572 9.30176 36.8682 9.30176C37.3057 9.30176 37.7272 9.37467 38.1328 9.52051C38.5384 9.66178 38.903 9.88509 39.2266 10.1904C39.5501 10.4958 39.8053 10.8923 39.9922 11.3799C40.1836 11.863 40.2793 12.4508 40.2793 13.1436V13.6768H34.1885V12.5557H39.5068L38.8027 12.9248C38.8027 12.4554 38.7298 12.043 38.584 11.6875C38.4382 11.3275 38.2217 11.0472 37.9346 10.8467C37.652 10.6462 37.2965 10.5459 36.8682 10.5459C36.4443 10.5459 36.082 10.6484 35.7812 10.8535C35.4805 11.0586 35.2503 11.3298 35.0908 11.667C34.9359 11.9997 34.8584 12.3643 34.8584 12.7607V13.5264C34.8584 14.0505 34.9473 14.4948 35.125 14.8594C35.3073 15.2194 35.5602 15.4928 35.8838 15.6797C36.2074 15.862 36.5833 15.9531 37.0117 15.9531C37.2943 15.9531 37.5495 15.9144 37.7773 15.8369C38.0052 15.7549 38.2012 15.6341 38.3652 15.4746C38.5339 15.3105 38.6615 15.11 38.748 14.873L40.1631 15.208C40.04 15.5999 39.8327 15.9463 39.541 16.2471C39.2539 16.5479 38.8939 16.7826 38.4609 16.9512C38.0326 17.1152 37.5449 17.1973 36.998 17.1973Z" fill="#111827"/>
<g clip-path="url(#clip0_3945_128916)">
<rect x="1" y="28.04" width="356" height="36" rx="4" fill="white"/>
<path d="M346 43.54L341 48.54L336 43.54" stroke="#111827" stroke-linecap="round" stroke-linejoin="round"/>
</g>
<rect x="1" y="28.04" width="356" height="36" rx="4" stroke="#E4E4E7"/>
<rect x="1.5" y="96.54" width="96.3333" height="103" rx="3.5" fill="white"/>
<rect x="1.5" y="96.54" width="96.3333" height="103" rx="3.5" stroke="#E4E4E7"/>
<path d="M46.6832 119.603C48.1259 118.002 49.3485 116.4 49.6174 116.057C49.6419 116.034 49.6908 116.034 49.7152 116.057C49.9597 116.4 51.2068 118.002 52.6494 119.603C64.973 134.313 50.7177 144.242 50.7177 144.242L50.5955 144.311C50.4977 145.844 50.2287 148.04 50.2287 148.04H49.6908H49.1528C49.1528 148.04 48.8839 145.844 48.7861 144.311L48.6638 144.219C48.6149 144.242 34.3597 134.313 46.6832 119.603ZM49.6663 144.014C49.6663 144.014 50.3021 143.51 50.4732 143.236V143.213L49.6908 127.199C49.6908 127.153 49.6174 127.153 49.6174 127.199L48.835 143.213V143.236C49.0061 143.51 49.6663 144.014 49.6663 144.014Z" fill="#111827"/>
<path d="M17.2949 175.04V164.854H19.5918L21.8135 170.699C21.8773 170.872 21.9479 171.091 22.0254 171.355C22.1074 171.62 22.1917 171.907 22.2783 172.217C22.3649 172.527 22.4469 172.832 22.5244 173.133C22.6019 173.434 22.6702 173.705 22.7295 173.946H22.4014C22.4606 173.718 22.529 173.456 22.6064 173.16C22.6839 172.859 22.766 172.554 22.8525 172.244C22.9391 171.934 23.0234 171.643 23.1055 171.369C23.1875 171.096 23.2604 170.872 23.3242 170.699L25.5117 164.854H27.8223V175.04H26.2705V169.558C26.2705 169.348 26.2728 169.097 26.2773 168.806C26.2819 168.514 26.2865 168.206 26.291 167.883C26.3001 167.555 26.307 167.224 26.3115 166.892C26.3206 166.559 26.3275 166.24 26.332 165.935H26.4482C26.3571 166.267 26.2568 166.611 26.1475 166.967C26.0426 167.318 25.9378 167.657 25.833 167.985C25.7327 168.313 25.6348 168.614 25.5391 168.888C25.4479 169.157 25.3704 169.38 25.3066 169.558L23.2217 175.04H21.8887L19.7764 169.558C19.708 169.384 19.6283 169.166 19.5371 168.901C19.4505 168.632 19.3548 168.336 19.25 168.013C19.1452 167.685 19.0381 167.345 18.9287 166.994C18.8193 166.639 18.71 166.285 18.6006 165.935H18.7373C18.7464 166.213 18.7533 166.516 18.7578 166.844C18.7669 167.167 18.7738 167.495 18.7783 167.828C18.7874 168.161 18.7943 168.478 18.7988 168.778C18.8079 169.075 18.8125 169.334 18.8125 169.558V175.04H17.2949ZM33.1748 175.197C32.4593 175.197 31.8327 175.033 31.2949 174.705C30.7617 174.377 30.347 173.917 30.0508 173.324C29.7546 172.732 29.6064 172.044 29.6064 171.26C29.6064 170.467 29.7546 169.774 30.0508 169.182C30.347 168.585 30.7617 168.122 31.2949 167.794C31.8327 167.466 32.4593 167.302 33.1748 167.302C33.8949 167.302 34.5215 167.466 35.0547 167.794C35.5924 168.122 36.0094 168.585 36.3057 169.182C36.6019 169.774 36.75 170.467 36.75 171.26C36.75 172.044 36.6019 172.732 36.3057 173.324C36.0094 173.917 35.5924 174.377 35.0547 174.705C34.5215 175.033 33.8949 175.197 33.1748 175.197ZM33.1748 173.926C33.6396 173.926 34.0225 173.805 34.3232 173.563C34.6286 173.317 34.8542 172.994 35 172.593C35.1504 172.187 35.2256 171.743 35.2256 171.26C35.2256 170.772 35.1504 170.326 35 169.92C34.8542 169.51 34.6286 169.184 34.3232 168.942C34.0225 168.696 33.6396 168.573 33.1748 168.573C32.7145 168.573 32.334 168.696 32.0332 168.942C31.7324 169.184 31.5068 169.507 31.3564 169.913C31.2106 170.319 31.1377 170.768 31.1377 171.26C31.1377 171.743 31.2106 172.187 31.3564 172.593C31.5068 172.994 31.7324 173.317 32.0332 173.563C32.334 173.805 32.7145 173.926 33.1748 173.926ZM39.9287 170.515V175.04H38.4248V167.397H39.8604L39.874 169.271H39.7168C39.9401 168.587 40.2637 168.088 40.6875 167.773C41.1113 167.459 41.624 167.302 42.2256 167.302C42.7451 167.302 43.1986 167.411 43.5859 167.63C43.9733 167.849 44.2764 168.172 44.4951 168.601C44.7139 169.024 44.8232 169.553 44.8232 170.187V175.04H43.3193V170.371C43.3193 169.82 43.1758 169.389 42.8887 169.079C42.6016 168.769 42.2074 168.614 41.7061 168.614C41.3688 168.614 41.0658 168.689 40.7969 168.84C40.528 168.986 40.3161 169.2 40.1611 169.482C40.0062 169.765 39.9287 170.109 39.9287 170.515ZM50.0391 178.062C49.4512 178.062 48.9408 177.986 48.5078 177.836C48.0749 177.686 47.7171 177.485 47.4346 177.234C47.1566 176.984 46.9447 176.706 46.7988 176.4L48.0566 175.806C48.1478 175.951 48.2686 176.104 48.4189 176.264C48.5739 176.428 48.7812 176.567 49.041 176.681C49.3008 176.795 49.6335 176.852 50.0391 176.852C50.6224 176.852 51.0941 176.713 51.4541 176.435C51.8187 176.161 52.001 175.73 52.001 175.143V173.652H51.8711C51.7799 173.821 51.6523 174.003 51.4883 174.199C51.3288 174.395 51.1032 174.566 50.8115 174.712C50.5244 174.853 50.1484 174.924 49.6836 174.924C49.082 174.924 48.5397 174.783 48.0566 174.5C47.5781 174.217 47.1976 173.798 46.915 173.242C46.6325 172.686 46.4912 172.003 46.4912 171.191C46.4912 170.38 46.6302 169.685 46.9082 169.106C47.1908 168.523 47.5736 168.076 48.0566 167.767C48.5443 167.457 49.0934 167.302 49.7041 167.302C50.1735 167.302 50.554 167.379 50.8457 167.534C51.1419 167.689 51.3721 167.874 51.5361 168.088C51.7048 168.298 51.8324 168.482 51.9189 168.642H52.0283V167.397H53.498V175.149C53.498 175.819 53.3454 176.368 53.04 176.797C52.7393 177.23 52.3268 177.549 51.8027 177.754C51.2832 177.959 50.6953 178.062 50.0391 178.062ZM50.0322 173.673C50.4606 173.673 50.8206 173.575 51.1123 173.379C51.4085 173.178 51.6318 172.891 51.7822 172.518C51.9326 172.139 52.0078 171.69 52.0078 171.171C52.0078 170.656 51.9326 170.205 51.7822 169.817C51.6318 169.43 51.4085 169.127 51.1123 168.908C50.8206 168.689 50.4606 168.58 50.0322 168.58C49.5902 168.58 49.221 168.696 48.9248 168.929C48.6286 169.157 48.4053 169.466 48.2549 169.858C48.1045 170.246 48.0293 170.683 48.0293 171.171C48.0293 171.668 48.1045 172.105 48.2549 172.483C48.4053 172.857 48.6286 173.149 48.9248 173.358C49.2256 173.568 49.5947 173.673 50.0322 173.673ZM58.7412 175.197C58.0257 175.197 57.3991 175.033 56.8613 174.705C56.3281 174.377 55.9134 173.917 55.6172 173.324C55.321 172.732 55.1729 172.044 55.1729 171.26C55.1729 170.467 55.321 169.774 55.6172 169.182C55.9134 168.585 56.3281 168.122 56.8613 167.794C57.3991 167.466 58.0257 167.302 58.7412 167.302C59.4613 167.302 60.0879 167.466 60.6211 167.794C61.1589 168.122 61.5758 168.585 61.8721 169.182C62.1683 169.774 62.3164 170.467 62.3164 171.26C62.3164 172.044 62.1683 172.732 61.8721 173.324C61.5758 173.917 61.1589 174.377 60.6211 174.705C60.0879 175.033 59.4613 175.197 58.7412 175.197ZM58.7412 173.926C59.2061 173.926 59.5889 173.805 59.8896 173.563C60.195 173.317 60.4206 172.994 60.5664 172.593C60.7168 172.187 60.792 171.743 60.792 171.26C60.792 170.772 60.7168 170.326 60.5664 169.92C60.4206 169.51 60.195 169.184 59.8896 168.942C59.5889 168.696 59.2061 168.573 58.7412 168.573C58.2809 168.573 57.9004 168.696 57.5996 168.942C57.2988 169.184 57.0732 169.507 56.9229 169.913C56.777 170.319 56.7041 170.768 56.7041 171.26C56.7041 171.743 56.777 172.187 56.9229 172.593C57.0732 172.994 57.2988 173.317 57.5996 173.563C57.9004 173.805 58.2809 173.926 58.7412 173.926ZM67.416 175.04H64.9004V173.673H67.334C68.1042 173.673 68.7445 173.529 69.2549 173.242C69.7653 172.955 70.1481 172.534 70.4033 171.978C70.6585 171.417 70.7861 170.736 70.7861 169.934C70.7861 169.136 70.6585 168.462 70.4033 167.91C70.1527 167.359 69.7767 166.939 69.2754 166.652C68.7786 166.365 68.1589 166.222 67.416 166.222H64.8457V164.854H67.5186C68.5212 164.854 69.3802 165.057 70.0957 165.463C70.8112 165.868 71.3604 166.452 71.7432 167.213C72.126 167.969 72.3174 168.876 72.3174 169.934C72.3174 170.995 72.1237 171.907 71.7363 172.668C71.3535 173.429 70.7952 174.015 70.0615 174.425C69.3324 174.835 68.4505 175.04 67.416 175.04ZM65.666 164.854V175.04H64.1074V164.854H65.666ZM74.2109 175.04V164.854H77.9639C78.6885 164.854 79.2878 164.973 79.7617 165.21C80.2357 165.447 80.5889 165.768 80.8213 166.174C81.0537 166.575 81.1699 167.026 81.1699 167.527C81.1699 167.951 81.0924 168.309 80.9375 168.601C80.7826 168.888 80.5729 169.12 80.3086 169.298C80.0488 169.471 79.7617 169.599 79.4473 169.681V169.783C79.7891 169.797 80.1217 169.906 80.4453 170.111C80.7689 170.312 81.0355 170.597 81.2451 170.966C81.4593 171.33 81.5664 171.775 81.5664 172.299C81.5664 172.814 81.4434 173.279 81.1973 173.693C80.9557 174.108 80.582 174.436 80.0762 174.678C79.5703 174.919 78.9209 175.04 78.1279 175.04H74.2109ZM75.7695 173.7H77.9707C78.6999 173.7 79.224 173.559 79.543 173.276C79.862 172.994 80.0215 172.643 80.0215 172.224C80.0215 171.896 79.9395 171.599 79.7754 171.335C79.6159 171.071 79.388 170.861 79.0918 170.706C78.7956 170.547 78.4424 170.467 78.0322 170.467H75.7695V173.7ZM75.7695 169.264H77.8135C78.1553 169.264 78.4652 169.198 78.7432 169.065C79.0212 168.933 79.2399 168.746 79.3994 168.505C79.5589 168.263 79.6387 167.981 79.6387 167.657C79.6387 167.238 79.4928 166.889 79.2012 166.611C78.9095 166.329 78.4606 166.188 77.8545 166.188H75.7695V169.264Z" fill="#111827"/>
<rect x="130.833" y="96.54" width="96.3333" height="103" rx="3.5" fill="white"/>
<rect x="130.833" y="96.54" width="96.3333" height="103" rx="3.5" stroke="#E4E4E7"/>
<path d="M177.275 119.191C177.275 119.203 177.425 119.484 177.613 119.834C177.8 120.178 177.931 120.472 177.913 120.491C177.894 120.503 177.369 120.703 176.75 120.922C176.125 121.147 175.631 121.334 175.638 121.341C175.644 121.347 176.35 121.422 177.2 121.503C178.225 121.597 178.763 121.666 178.8 121.709C178.831 121.741 179.069 122.122 179.325 122.547L179.788 123.322L179.869 123.128C179.913 123.028 180.056 122.684 180.181 122.378L180.413 121.822L181.644 121.691C182.319 121.616 182.919 121.559 182.981 121.559L183.088 121.516C183.088 121.497 182.631 121.309 182.069 121.097C181.513 120.891 181.05 120.709 181.05 120.703C181.05 120.697 181.169 120.403 181.319 120.047C181.463 119.691 181.575 119.391 181.569 119.384C181.556 119.372 181.081 119.516 180.519 119.697L179.5 120.034L178.406 119.603C177.331 119.178 177.275 119.159 177.275 119.191ZM184.063 122.884C182.756 123.403 181.681 123.834 181.675 123.847C181.663 123.859 182.638 124.253 183.838 124.728L186.013 125.584L186.244 125.491C188.669 124.547 190.869 123.672 190.862 123.659L186.494 121.941C186.45 121.947 185.363 122.366 184.063 122.884ZM171.525 122.378C170.269 122.509 169.219 122.872 168.775 123.334C168.469 123.647 168.419 123.916 168.613 124.241C168.894 124.728 169.819 125.134 171.094 125.341C171.669 125.441 173.35 125.422 173.931 125.322C175.294 125.084 176.181 124.647 176.388 124.097C176.463 123.891 176.463 123.866 176.388 123.666C176.181 123.134 175.313 122.691 174.025 122.466C173.375 122.359 172.163 122.316 171.525 122.378ZM194.856 123.891C194.794 123.972 194.562 124.159 194.337 124.309C193.675 124.734 192.825 125.122 187.519 127.409C183.788 129.009 182.838 129.434 181.55 130.053C180.119 130.734 179.525 130.928 178.806 130.928C178.163 130.928 177.775 130.816 176.575 130.284C176.094 130.072 174.125 129.247 172.206 128.447C163.8 124.953 163.644 124.878 163.194 124.391L163.007 124.184V127.478L163.219 127.684C163.425 127.884 164.119 128.303 164.363 128.372C164.432 128.391 164.888 128.578 165.382 128.791C165.875 129.003 168.288 130.016 170.744 131.041C174.806 132.734 175.731 133.122 177.119 133.728C177.85 134.053 178.256 134.134 178.95 134.109C179.456 134.091 179.606 134.059 180.05 133.909C180.338 133.816 180.831 133.603 181.15 133.441C182.206 132.909 183.481 132.347 188.563 130.159C193.344 128.097 193.969 127.809 194.487 127.453C195.019 127.072 195 127.166 195 125.328C195 124.447 194.994 123.728 194.987 123.728L194.856 123.891ZM178.119 126.041C176.163 126.341 174.544 126.597 174.513 126.609C174.469 126.622 179.388 128.691 179.594 128.747L181.844 125.516C181.838 125.472 181.844 125.466 178.119 126.041ZM194.887 129.316C194.844 129.391 194.637 129.566 194.444 129.709C193.806 130.147 192.85 130.584 187.038 133.084C183.694 134.528 182.644 134.991 181.65 135.472C180.038 136.253 179.65 136.378 178.788 136.378C178.119 136.372 177.706 136.265 176.819 135.866C175.963 135.472 175.006 135.072 171.169 133.478C164.475 130.703 163.707 130.353 163.232 129.897L163 129.678V132.928L163.263 133.178C163.688 133.578 163.644 133.553 170.819 136.54C173.45 137.634 175.931 138.678 176.331 138.859C177.388 139.334 177.694 139.447 178.113 139.534C179.088 139.734 179.813 139.572 181.394 138.803C182.425 138.303 183.681 137.747 186.725 136.434C192.512 133.941 193.937 133.297 194.362 133.016C194.512 132.909 194.719 132.741 194.819 132.628L195 132.428V130.803C195 129.909 194.994 129.178 194.987 129.178L194.887 129.316ZM194.831 134.641C194.45 135.122 193.681 135.491 187.713 138.059C183.819 139.74 182.631 140.265 181.35 140.872C180.006 141.509 179.563 141.647 178.788 141.647C178.256 141.647 177.719 141.522 177.125 141.259C175.731 140.647 174.813 140.259 170.744 138.565C166.119 136.64 164.638 136.009 164.144 135.766C163.682 135.534 163.213 135.203 163.107 135.034L163 134.878V136.534C163 138.434 162.969 138.29 163.475 138.634C164.038 139.009 164.875 139.384 170.432 141.69C174.313 143.303 175.713 143.89 176.4 144.203C177.806 144.834 178.181 144.934 178.969 144.89C179.688 144.859 180.156 144.703 181.4 144.109C182.694 143.49 183.65 143.059 187.881 141.24C193.756 138.709 194.394 138.403 194.837 137.89L194.994 137.715V136.097C194.994 135.203 194.987 134.472 194.981 134.472L194.831 134.641Z" fill="#111827"/>
<path d="M161.628 175.04V164.854H165.278C166.062 164.854 166.716 164.991 167.24 165.265C167.764 165.534 168.156 165.91 168.416 166.393C168.676 166.876 168.806 167.429 168.806 168.054C168.806 168.683 168.674 169.234 168.409 169.708C168.149 170.177 167.757 170.542 167.233 170.802C166.709 171.062 166.053 171.191 165.265 171.191H162.523V169.858H165.114C165.616 169.858 166.019 169.788 166.324 169.646C166.634 169.501 166.862 169.293 167.008 169.024C167.154 168.756 167.227 168.432 167.227 168.054C167.227 167.671 167.154 167.34 167.008 167.062C166.862 166.785 166.634 166.57 166.324 166.42C166.014 166.265 165.606 166.188 165.101 166.188H163.187V175.04H161.628ZM167.418 175.04L164.95 170.439H166.68L169.188 175.04H167.418ZM173.693 175.197C172.941 175.197 172.292 175.035 171.745 174.712C171.198 174.388 170.777 173.933 170.48 173.345C170.189 172.757 170.043 172.066 170.043 171.273C170.043 170.49 170.187 169.799 170.474 169.202C170.765 168.605 171.175 168.14 171.704 167.808C172.233 167.47 172.853 167.302 173.563 167.302C174.001 167.302 174.423 167.375 174.828 167.521C175.234 167.662 175.598 167.885 175.922 168.19C176.245 168.496 176.501 168.892 176.688 169.38C176.879 169.863 176.975 170.451 176.975 171.144V171.677H170.884V170.556H176.202L175.498 170.925C175.498 170.455 175.425 170.043 175.279 169.688C175.133 169.327 174.917 169.047 174.63 168.847C174.347 168.646 173.992 168.546 173.563 168.546C173.14 168.546 172.777 168.648 172.477 168.854C172.176 169.059 171.946 169.33 171.786 169.667C171.631 170 171.554 170.364 171.554 170.761V171.526C171.554 172.05 171.643 172.495 171.82 172.859C172.003 173.219 172.256 173.493 172.579 173.68C172.903 173.862 173.279 173.953 173.707 173.953C173.99 173.953 174.245 173.914 174.473 173.837C174.701 173.755 174.896 173.634 175.061 173.475C175.229 173.311 175.357 173.11 175.443 172.873L176.858 173.208C176.735 173.6 176.528 173.946 176.236 174.247C175.949 174.548 175.589 174.783 175.156 174.951C174.728 175.115 174.24 175.197 173.693 175.197ZM181.473 175.19C180.853 175.19 180.301 175.033 179.818 174.719C179.335 174.4 178.957 173.946 178.684 173.358C178.41 172.766 178.273 172.06 178.273 171.239C178.273 170.41 178.412 169.701 178.69 169.113C178.968 168.525 179.349 168.076 179.832 167.767C180.315 167.457 180.862 167.302 181.473 167.302C181.947 167.302 182.327 167.382 182.614 167.541C182.906 167.696 183.134 167.878 183.298 168.088C183.462 168.298 183.587 168.482 183.674 168.642H183.756V164.854H185.26V175.04H183.797V173.844H183.674C183.587 174.008 183.46 174.195 183.291 174.404C183.122 174.614 182.892 174.799 182.601 174.958C182.309 175.113 181.933 175.19 181.473 175.19ZM181.801 173.912C182.229 173.912 182.589 173.798 182.881 173.57C183.177 173.342 183.4 173.028 183.551 172.627C183.706 172.221 183.783 171.754 183.783 171.226C183.783 170.692 183.708 170.23 183.558 169.838C183.407 169.441 183.184 169.134 182.888 168.915C182.596 168.692 182.234 168.58 181.801 168.58C181.359 168.58 180.99 168.696 180.693 168.929C180.402 169.161 180.181 169.478 180.03 169.879C179.884 170.275 179.812 170.724 179.812 171.226C179.812 171.731 179.887 172.187 180.037 172.593C180.188 172.998 180.411 173.32 180.707 173.557C181.003 173.794 181.368 173.912 181.801 173.912ZM187.283 175.04V167.397H188.787V175.04H187.283ZM188.042 166.229C187.782 166.229 187.559 166.142 187.372 165.969C187.19 165.796 187.099 165.586 187.099 165.34C187.099 165.089 187.19 164.877 187.372 164.704C187.559 164.531 187.782 164.444 188.042 164.444C188.302 164.444 188.525 164.531 188.712 164.704C188.899 164.877 188.992 165.089 188.992 165.34C188.992 165.586 188.899 165.796 188.712 165.969C188.525 166.142 188.302 166.229 188.042 166.229ZM193.552 175.197C193 175.197 192.508 175.118 192.075 174.958C191.647 174.799 191.294 174.564 191.016 174.254C190.742 173.939 190.56 173.557 190.469 173.105L191.884 172.812C191.989 173.208 192.185 173.502 192.472 173.693C192.759 173.885 193.123 173.98 193.565 173.98C194.049 173.98 194.434 173.88 194.721 173.68C195.008 173.475 195.151 173.231 195.151 172.948C195.151 172.702 195.062 172.499 194.885 172.34C194.712 172.18 194.443 172.062 194.078 171.984L192.793 171.69C192.082 171.531 191.553 171.276 191.207 170.925C190.861 170.574 190.688 170.125 190.688 169.578C190.688 169.122 190.815 168.724 191.07 168.382C191.326 168.04 191.674 167.776 192.116 167.589C192.558 167.397 193.069 167.302 193.647 167.302C194.199 167.302 194.671 167.382 195.062 167.541C195.454 167.701 195.771 167.924 196.013 168.211C196.259 168.498 196.434 168.831 196.539 169.209L195.192 169.503C195.097 169.234 194.93 168.999 194.693 168.799C194.456 168.594 194.112 168.491 193.661 168.491C193.246 168.491 192.9 168.585 192.622 168.771C192.344 168.958 192.205 169.195 192.205 169.482C192.205 169.738 192.296 169.945 192.479 170.104C192.665 170.259 192.968 170.385 193.388 170.48L194.618 170.754C195.325 170.913 195.849 171.164 196.19 171.506C196.532 171.848 196.703 172.285 196.703 172.818C196.703 173.283 196.569 173.696 196.3 174.056C196.035 174.411 195.666 174.691 195.192 174.896C194.723 175.097 194.176 175.197 193.552 175.197Z" fill="#111827"/>
<rect x="260.167" y="96.54" width="96.3333" height="103" rx="3.5" fill="white"/>
<rect x="260.167" y="96.54" width="96.3333" height="103" rx="3.5" stroke="#E4E4E7"/>
<path fill-rule="evenodd" clip-rule="evenodd" d="M317.352 139.329C317.349 139.354 317.347 139.375 317.345 139.394C317.262 142.735 316.724 144.654 315.881 145.849C314.914 147.235 313.708 147.602 312.353 147.892C308.867 148.637 308.133 146.392 307.724 145.13C307.716 145.107 307.708 145.086 307.701 145.065C307.685 145.018 307.669 144.975 307.652 144.928C307.476 144.447 307.362 143.842 307.284 143.159C307.212 142.508 307.176 141.835 307.15 141.158C307.144 141.044 307.14 140.903 307.135 140.751C307.132 140.639 307.128 140.521 307.124 140.403C307.119 140.206 307.129 140.02 307.145 139.849C306.758 140.021 306.352 140.142 305.934 140.211C304.869 140.392 303.912 140.222 303.338 140.077C302.857 139.958 302.246 139.678 301.869 139.321C301.807 139.264 301.745 139.197 301.693 139.135C301.372 139.399 301.041 139.585 300.705 139.704C299.453 140.154 298.352 139.684 297.395 138.618C296.702 137.853 296.081 136.725 295.533 135.427C293.95 131.672 292.905 126.256 292.838 124.922C292.279 113.759 302.319 116.428 305.055 117.359C305.535 117.073 306.05 116.849 306.586 116.692C307.331 116.47 308.159 116.351 309.074 116.366C309.54 116.372 310 116.403 310.466 116.449C310.788 116.484 311.109 116.531 311.428 116.589C312.545 116.268 315.162 115.694 317.79 116.32C319.59 116.749 321.431 117.701 322.921 119.599C323.904 120.856 323.893 123.716 322.983 127.006C322.326 129.385 321.219 132.07 319.714 134.568C320.05 134.485 320.583 134.372 321.426 134.196C322.083 134.061 322.595 134.108 322.968 134.289C323.614 134.599 323.893 135.111 323.847 135.779C323.826 136.12 323.687 136.456 323.459 136.777C323.081 137.289 322.259 137.936 321.281 138.391C320.805 138.608 320.19 138.779 319.554 138.887C318.912 138.996 318.245 139.042 317.671 139.016H317.614L317.391 138.996C317.386 139.047 317.381 139.099 317.371 139.156C317.364 139.229 317.357 139.285 317.352 139.329ZM317.283 134.863C316.698 135.028 315.86 135.334 315.948 137.03C315.907 137.532 315.751 138.944 315.576 140.32C315.431 141.447 315.276 142.585 315.167 143.237C315.012 144.126 314.769 144.768 314.329 145.218C313.895 145.673 313.233 145.973 312.255 146.185C311.138 146.423 310.434 146.19 309.979 145.802C309.508 145.404 309.26 144.83 309.105 144.442C308.96 144.07 308.851 143.077 308.789 141.747C308.727 140.413 308.717 138.773 308.753 137.113C308.754 137.086 308.754 137.06 308.754 137.033C308.76 136.707 308.765 136.405 308.655 136.089C308.52 135.721 308.283 135.39 307.988 135.178C307.714 134.982 307.321 134.847 306.984 134.878C306.922 134.884 306.859 134.894 306.798 134.909C306.856 134.682 306.938 134.434 307.031 134.171C307.149 133.841 307.177 133.742 307.212 133.646C307.254 133.532 307.305 133.422 307.527 132.933C308.086 131.687 308.8 130.094 308.003 126.395C307.776 125.361 307.196 124.818 306.467 124.59C306.001 124.446 305.484 124.435 304.972 124.513C304.481 124.59 303.989 124.741 303.555 124.916C303.283 125.03 303.02 125.165 302.769 125.32C302.939 123.158 303.881 118.016 309.048 118.104C313.331 118.171 315.736 120.98 316.843 122.992C317.123 123.494 317.314 123.944 317.433 124.285L317.434 124.288C317.444 124.313 317.454 124.338 317.459 124.363C314.929 124.099 313.915 124.978 313.703 126.307C313.403 128.175 314.924 130.901 315.695 132.282C315.713 132.314 315.73 132.345 315.747 132.376C315.902 132.655 316.02 132.867 316.062 132.97C316.367 133.709 316.745 134.185 317.045 134.552C317.064 134.577 317.083 134.601 317.101 134.624C317.171 134.713 317.233 134.793 317.283 134.863ZM306.229 136.58C305.681 137.279 305.51 137.49 303.808 137.842C303.503 137.904 303.296 137.972 303.172 138.034C303.327 138.142 303.565 138.24 303.772 138.292C304.191 138.396 304.889 138.525 305.629 138.396C306.358 138.272 307.139 137.899 307.775 137.015C307.905 136.834 307.879 136.586 307.812 136.384C307.739 136.187 307.615 136.011 307.471 135.908C307.362 135.83 307.186 135.763 307.062 135.773C306.985 135.778 306.913 135.811 306.86 135.867C306.636 136.092 306.425 136.33 306.229 136.58ZM302.924 134.227C303.047 134.36 303.178 134.486 303.317 134.604C302.487 135.488 301.685 136.397 300.912 137.33C300.627 137.671 300.358 137.878 300.11 137.966C299.655 138.132 299.184 137.883 298.724 137.371C298.17 136.756 297.648 135.799 297.177 134.682C295.677 131.128 294.689 126.033 294.627 124.787C294.203 116.242 301.977 118.14 304.382 118.932C301.719 121.549 301.837 126.23 301.843 126.266C301.838 126.363 301.845 126.482 301.854 126.634C301.855 126.66 301.857 126.688 301.858 126.716C301.905 127.445 301.988 128.847 301.77 130.404C301.715 130.783 301.707 131.167 301.745 131.547C301.843 132.587 302.277 133.518 302.924 134.227ZM317.624 122.563C316.786 121.032 315.255 119.082 312.819 118.006C313.988 117.768 315.87 117.561 317.758 118.104C319.088 118.492 320.422 119.253 321.514 120.644C322.145 121.456 322.026 123.711 321.26 126.479C320.598 128.884 319.44 131.63 317.852 134.129C317.816 134.088 317.781 134.043 317.746 133.998L317.743 133.994C317.728 133.979 317.712 133.958 317.696 133.937C318.617 132.427 318.441 130.968 318.276 129.598C318.208 129.06 318.146 128.542 318.162 128.051C318.182 127.557 318.244 127.134 318.304 126.727C318.306 126.708 318.309 126.689 318.312 126.67C318.4 126.121 318.478 125.599 318.457 124.963C318.457 124.955 318.458 124.947 318.459 124.94C318.461 124.932 318.462 124.924 318.462 124.916C318.488 124.766 318.431 124.425 318.276 123.991C318.1 123.497 317.882 123.019 317.624 122.563ZM302.747 126.525C302.742 126.437 302.738 126.349 302.738 126.261C302.743 126.24 303.239 126.013 303.891 125.744C304.269 125.594 304.688 125.459 305.102 125.397C305.495 125.34 305.878 125.34 306.203 125.444C306.633 125.578 306.985 125.92 307.124 126.582C307.864 130.001 307.217 131.439 306.71 132.566C306.452 133.134 306.375 133.353 306.278 133.629C306.254 133.697 306.229 133.768 306.199 133.848C306.091 134.145 305.997 134.429 305.929 134.702L305.92 134.702C305.788 134.697 305.652 134.692 305.521 134.671C304.775 134.568 304.098 134.185 303.586 133.621C303.041 133.026 302.707 132.268 302.634 131.464C302.603 131.165 302.609 130.849 302.655 130.528C302.888 128.868 302.8 127.415 302.753 126.664C302.751 126.618 302.749 126.572 302.747 126.525ZM306.467 126.039C306.17 125.879 305.721 125.818 305.391 125.889C305.161 125.946 305.062 126.059 305.055 126.193C305.048 126.327 305.132 126.484 305.267 126.628C305.407 126.773 305.603 126.902 305.825 126.933H305.831C306.058 126.965 306.271 126.887 306.426 126.783C306.591 126.67 306.7 126.514 306.715 126.406C306.731 126.266 306.638 126.137 306.467 126.039ZM314.582 126.447C314.722 125.573 315.513 125.014 317.562 125.268C317.557 125.718 317.495 126.121 317.427 126.54L317.42 126.587C317.355 127.023 317.287 127.48 317.267 128.025C317.252 128.557 317.316 129.105 317.382 129.667L317.386 129.701C317.52 130.808 317.66 131.977 317.122 133.115C317.039 132.97 316.962 132.804 316.884 132.628C316.817 132.468 316.672 132.199 316.475 131.852C315.751 130.554 314.334 128.009 314.582 126.447ZM317.735 135.663C317.763 135.654 317.79 135.647 317.815 135.639C318.869 136.434 320.632 136.106 321.797 135.889L321.808 135.887C321.529 136.156 321.074 136.461 320.531 136.715C320.003 136.957 319.176 137.123 318.4 137.17C317.955 137.191 317.536 137.18 317.22 137.113C317.019 137.076 316.884 137.035 316.843 136.994C316.791 135.933 317.278 135.795 317.588 135.707L317.593 135.706C317.641 135.69 317.689 135.676 317.735 135.663ZM316.538 126.277C316.667 126.142 316.745 125.982 316.729 125.889C316.713 125.78 316.61 125.703 316.45 125.666C316.311 125.63 316.124 125.625 315.928 125.651C315.731 125.682 315.555 125.738 315.431 125.806C315.282 125.891 315.222 125.987 315.224 126.082C315.226 126.222 315.361 126.361 315.545 126.463C315.701 126.547 315.857 126.577 316.007 126.56C316.2 126.539 316.381 126.439 316.538 126.277ZM321.601 135.018C319.258 135.504 318.56 135.199 318.353 135.002C320.117 132.323 321.4 129.323 322.119 126.716C322.957 123.685 323.024 121.13 322.217 120.095C320.991 118.533 319.496 117.68 318.007 117.25C315.751 116.599 313.527 116.919 312.312 117.204C312.29 117.209 312.269 117.213 312.249 117.218C312.185 117.232 312.131 117.244 312.084 117.255C312.058 117.266 311.598 117.395 311.272 117.483C310.594 117.317 309.855 117.219 309.063 117.209C307.429 117.183 306.167 117.597 305.189 118.264C303.544 117.654 293.205 114.235 293.732 124.828C293.8 126.116 294.813 131.376 296.355 135.028C296.867 136.238 297.436 137.278 298.056 137.971C298.77 138.757 299.551 139.114 300.405 138.809C300.808 138.664 301.212 138.375 301.599 137.904C302.691 136.59 303.689 135.509 304.061 135.116C304.477 135.34 304.929 135.489 305.396 135.556C305.542 135.576 305.689 135.588 305.836 135.592C305.836 135.613 305.836 135.633 305.841 135.654C305.732 135.775 305.626 135.899 305.525 136.026C305.132 136.528 305.008 136.683 303.632 136.968C303.012 137.097 302.639 137.268 302.437 137.459C302.225 137.656 302.158 137.878 302.189 138.106C302.22 138.302 302.324 138.473 302.479 138.618C302.743 138.866 303.193 139.068 303.555 139.161C304.051 139.285 304.879 139.435 305.784 139.28C306.467 139.161 307.186 138.871 307.837 138.282C307.827 139.544 307.848 140.759 307.894 141.789C307.961 143.201 308.086 144.303 308.277 144.773C308.469 145.249 308.769 145.958 309.4 146.49C310.041 147.029 310.993 147.37 312.441 147.06C313.6 146.811 314.401 146.434 314.975 145.839C315.55 145.244 315.86 144.458 316.046 143.387C316.155 142.756 316.315 141.598 316.46 140.429C316.579 139.497 316.688 138.577 316.76 137.92C316.848 137.946 316.946 137.972 317.044 137.992C317.443 138.07 317.934 138.091 318.446 138.065C319.32 138.013 320.277 137.816 320.903 137.527C321.746 137.134 322.434 136.606 322.734 136.192C322.864 136.011 322.941 135.835 322.951 135.664C322.972 135.385 322.853 135.173 322.584 135.044C322.377 134.946 322.057 134.925 321.601 135.018Z" fill="#111827"/>
<path d="M269.462 175.04V164.854H273.112C273.896 164.854 274.55 165 275.074 165.292C275.598 165.584 275.99 165.978 276.25 166.475C276.51 166.971 276.64 167.534 276.64 168.163C276.64 168.792 276.507 169.357 276.243 169.858C275.983 170.355 275.591 170.749 275.067 171.041C274.543 171.328 273.887 171.472 273.099 171.472H270.604V170.152H272.948C273.45 170.152 273.855 170.066 274.165 169.893C274.475 169.719 274.701 169.482 274.842 169.182C274.988 168.881 275.061 168.541 275.061 168.163C275.061 167.78 274.988 167.441 274.842 167.145C274.701 166.844 274.473 166.609 274.158 166.44C273.848 166.272 273.44 166.188 272.935 166.188H271.021V175.04H269.462ZM281.445 175.197C280.73 175.197 280.103 175.033 279.565 174.705C279.032 174.377 278.618 173.917 278.321 173.324C278.025 172.732 277.877 172.044 277.877 171.26C277.877 170.467 278.025 169.774 278.321 169.182C278.618 168.585 279.032 168.122 279.565 167.794C280.103 167.466 280.73 167.302 281.445 167.302C282.165 167.302 282.792 167.466 283.325 167.794C283.863 168.122 284.28 168.585 284.576 169.182C284.872 169.774 285.021 170.467 285.021 171.26C285.021 172.044 284.872 172.732 284.576 173.324C284.28 173.917 283.863 174.377 283.325 174.705C282.792 175.033 282.165 175.197 281.445 175.197ZM281.445 173.926C281.91 173.926 282.293 173.805 282.594 173.563C282.899 173.317 283.125 172.994 283.271 172.593C283.421 172.187 283.496 171.743 283.496 171.26C283.496 170.772 283.421 170.326 283.271 169.92C283.125 169.51 282.899 169.184 282.594 168.942C282.293 168.696 281.91 168.573 281.445 168.573C280.985 168.573 280.604 168.696 280.304 168.942C280.003 169.184 279.777 169.507 279.627 169.913C279.481 170.319 279.408 170.768 279.408 171.26C279.408 171.743 279.481 172.187 279.627 172.593C279.777 172.994 280.003 173.317 280.304 173.563C280.604 173.805 280.985 173.926 281.445 173.926ZM289.437 175.197C288.885 175.197 288.393 175.118 287.96 174.958C287.532 174.799 287.178 174.564 286.9 174.254C286.627 173.939 286.445 173.557 286.354 173.105L287.769 172.812C287.873 173.208 288.069 173.502 288.356 173.693C288.644 173.885 289.008 173.98 289.45 173.98C289.933 173.98 290.318 173.88 290.605 173.68C290.893 173.475 291.036 173.231 291.036 172.948C291.036 172.702 290.947 172.499 290.77 172.34C290.596 172.18 290.327 172.062 289.963 171.984L288.678 171.69C287.967 171.531 287.438 171.276 287.092 170.925C286.745 170.574 286.572 170.125 286.572 169.578C286.572 169.122 286.7 168.724 286.955 168.382C287.21 168.04 287.559 167.776 288.001 167.589C288.443 167.397 288.953 167.302 289.532 167.302C290.084 167.302 290.555 167.382 290.947 167.541C291.339 167.701 291.656 167.924 291.897 168.211C292.144 168.498 292.319 168.831 292.424 169.209L291.077 169.503C290.981 169.234 290.815 168.999 290.578 168.799C290.341 168.594 289.997 168.491 289.546 168.491C289.131 168.491 288.785 168.585 288.507 168.771C288.229 168.958 288.09 169.195 288.09 169.482C288.09 169.738 288.181 169.945 288.363 170.104C288.55 170.259 288.853 170.385 289.272 170.48L290.503 170.754C291.209 170.913 291.733 171.164 292.075 171.506C292.417 171.848 292.588 172.285 292.588 172.818C292.588 173.283 292.453 173.696 292.185 174.056C291.92 174.411 291.551 174.691 291.077 174.896C290.608 175.097 290.061 175.197 289.437 175.197ZM297.51 167.397V168.621H293.367V167.397H297.51ZM294.481 165.579H295.985V172.976C295.985 173.281 296.049 173.507 296.177 173.652C296.309 173.794 296.523 173.864 296.819 173.864C296.897 173.864 296.999 173.855 297.127 173.837C297.255 173.819 297.364 173.8 297.455 173.782L297.722 174.985C297.562 175.04 297.391 175.079 297.209 175.102C297.027 175.129 296.847 175.143 296.669 175.143C295.976 175.143 295.438 174.965 295.056 174.609C294.673 174.249 294.481 173.746 294.481 173.099V165.579ZM302.069 178.062C301.481 178.062 300.971 177.986 300.538 177.836C300.105 177.686 299.747 177.485 299.465 177.234C299.187 176.984 298.975 176.706 298.829 176.4L300.087 175.806C300.178 175.951 300.299 176.104 300.449 176.264C300.604 176.428 300.812 176.567 301.071 176.681C301.331 176.795 301.664 176.852 302.069 176.852C302.653 176.852 303.124 176.713 303.484 176.435C303.849 176.161 304.031 175.73 304.031 175.143V173.652H303.901C303.81 173.821 303.683 174.003 303.519 174.199C303.359 174.395 303.133 174.566 302.842 174.712C302.555 174.853 302.179 174.924 301.714 174.924C301.112 174.924 300.57 174.783 300.087 174.5C299.608 174.217 299.228 173.798 298.945 173.242C298.663 172.686 298.521 172.003 298.521 171.191C298.521 170.38 298.66 169.685 298.938 169.106C299.221 168.523 299.604 168.076 300.087 167.767C300.575 167.457 301.124 167.302 301.734 167.302C302.204 167.302 302.584 167.379 302.876 167.534C303.172 167.689 303.402 167.874 303.566 168.088C303.735 168.298 303.863 168.482 303.949 168.642H304.059V167.397H305.528V175.149C305.528 175.819 305.376 176.368 305.07 176.797C304.77 177.23 304.357 177.549 303.833 177.754C303.313 177.959 302.726 178.062 302.069 178.062ZM302.062 173.673C302.491 173.673 302.851 173.575 303.143 173.379C303.439 173.178 303.662 172.891 303.812 172.518C303.963 172.139 304.038 171.69 304.038 171.171C304.038 170.656 303.963 170.205 303.812 169.817C303.662 169.43 303.439 169.127 303.143 168.908C302.851 168.689 302.491 168.58 302.062 168.58C301.62 168.58 301.251 168.696 300.955 168.929C300.659 169.157 300.436 169.466 300.285 169.858C300.135 170.246 300.06 170.683 300.06 171.171C300.06 171.668 300.135 172.105 300.285 172.483C300.436 172.857 300.659 173.149 300.955 173.358C301.256 173.568 301.625 173.673 302.062 173.673ZM307.559 175.04V167.397H309.015V168.628H309.097C309.238 168.209 309.484 167.881 309.835 167.644C310.186 167.407 310.585 167.288 311.031 167.288C311.127 167.288 311.236 167.293 311.359 167.302C311.482 167.306 311.585 167.315 311.667 167.329V168.765C311.612 168.746 311.507 168.728 311.353 168.71C311.198 168.692 311.04 168.683 310.881 168.683C310.535 168.683 310.222 168.756 309.944 168.901C309.666 169.047 309.45 169.25 309.295 169.51C309.14 169.765 309.062 170.061 309.062 170.398V175.04H307.559ZM315.994 175.197C315.242 175.197 314.593 175.035 314.046 174.712C313.499 174.388 313.077 173.933 312.781 173.345C312.49 172.757 312.344 172.066 312.344 171.273C312.344 170.49 312.487 169.799 312.774 169.202C313.066 168.605 313.476 168.14 314.005 167.808C314.534 167.47 315.153 167.302 315.864 167.302C316.302 167.302 316.723 167.375 317.129 167.521C317.535 167.662 317.899 167.885 318.223 168.19C318.546 168.496 318.801 168.892 318.988 169.38C319.18 169.863 319.275 170.451 319.275 171.144V171.677H313.185V170.556H318.503L317.799 170.925C317.799 170.455 317.726 170.043 317.58 169.688C317.434 169.327 317.218 169.047 316.931 168.847C316.648 168.646 316.293 168.546 315.864 168.546C315.44 168.546 315.078 168.648 314.777 168.854C314.477 169.059 314.246 169.33 314.087 169.667C313.932 170 313.854 170.364 313.854 170.761V171.526C313.854 172.05 313.943 172.495 314.121 172.859C314.303 173.219 314.556 173.493 314.88 173.68C315.203 173.862 315.579 173.953 316.008 173.953C316.29 173.953 316.546 173.914 316.773 173.837C317.001 173.755 317.197 173.634 317.361 173.475C317.53 173.311 317.658 173.11 317.744 172.873L319.159 173.208C319.036 173.6 318.829 173.946 318.537 174.247C318.25 174.548 317.89 174.783 317.457 174.951C317.029 175.115 316.541 175.197 315.994 175.197ZM324.464 175.211C323.703 175.211 323.042 175.09 322.481 174.849C321.921 174.607 321.481 174.263 321.162 173.816C320.848 173.365 320.674 172.83 320.643 172.21H322.208C322.24 172.579 322.358 172.884 322.563 173.126C322.773 173.368 323.044 173.548 323.377 173.666C323.71 173.785 324.07 173.844 324.457 173.844C324.89 173.844 325.273 173.778 325.605 173.646C325.943 173.509 326.209 173.317 326.405 173.071C326.601 172.821 326.699 172.531 326.699 172.203C326.699 171.907 326.613 171.665 326.439 171.479C326.271 171.287 326.041 171.13 325.749 171.007C325.462 170.879 325.134 170.768 324.765 170.672L323.575 170.344C322.741 170.12 322.09 169.79 321.62 169.353C321.155 168.915 320.923 168.348 320.923 167.65C320.923 167.062 321.08 166.55 321.395 166.112C321.714 165.67 322.144 165.328 322.687 165.087C323.233 164.841 323.849 164.718 324.532 164.718C325.229 164.718 325.842 164.841 326.371 165.087C326.904 165.328 327.321 165.661 327.622 166.085C327.927 166.509 328.087 166.992 328.101 167.534H326.583C326.533 167.069 326.316 166.709 325.934 166.454C325.555 166.199 325.077 166.071 324.498 166.071C324.088 166.071 323.73 166.135 323.425 166.263C323.124 166.39 322.889 166.568 322.721 166.796C322.557 167.019 322.475 167.274 322.475 167.562C322.475 167.885 322.573 168.147 322.769 168.348C322.969 168.544 323.211 168.701 323.493 168.819C323.78 168.933 324.054 169.024 324.313 169.093L325.305 169.353C325.628 169.435 325.961 169.546 326.303 169.688C326.649 169.824 326.968 170.004 327.26 170.228C327.551 170.446 327.786 170.72 327.964 171.048C328.146 171.371 328.237 171.763 328.237 172.224C328.237 172.798 328.089 173.311 327.793 173.762C327.497 174.213 327.066 174.568 326.501 174.828C325.94 175.083 325.261 175.211 324.464 175.211ZM333.843 171.752H335.34L336.413 173.146L336.885 173.741L338.58 175.963H337.028L335.9 174.486L335.524 173.96L333.843 171.752ZM334.342 175.177C333.462 175.177 332.674 174.969 331.977 174.555C331.284 174.135 330.737 173.536 330.336 172.757C329.939 171.973 329.741 171.039 329.741 169.954C329.741 168.865 329.939 167.931 330.336 167.151C330.737 166.368 331.284 165.766 331.977 165.347C332.674 164.927 333.462 164.718 334.342 164.718C335.221 164.718 336.005 164.927 336.693 165.347C337.386 165.766 337.931 166.368 338.327 167.151C338.728 167.931 338.929 168.865 338.929 169.954C338.929 171.039 338.728 171.973 338.327 172.757C337.931 173.536 337.386 174.135 336.693 174.555C336.005 174.969 335.221 175.177 334.342 175.177ZM334.342 173.755C334.921 173.755 335.438 173.611 335.894 173.324C336.354 173.033 336.716 172.604 336.98 172.039C337.249 171.469 337.384 170.774 337.384 169.954C337.384 169.125 337.249 168.427 336.98 167.862C336.716 167.293 336.354 166.864 335.894 166.577C335.438 166.285 334.921 166.14 334.342 166.14C333.758 166.14 333.237 166.285 332.776 166.577C332.316 166.869 331.951 167.299 331.683 167.869C331.418 168.434 331.286 169.129 331.286 169.954C331.286 170.774 331.418 171.467 331.683 172.032C331.951 172.597 332.316 173.026 332.776 173.317C333.237 173.609 333.758 173.755 334.342 173.755ZM340.856 175.04V164.854H342.415V173.7H347.029V175.04H340.856Z" fill="#111827"/>
<rect x="1.5" y="232.54" width="96.3333" height="103" rx="3.5" fill="white"/>
<rect x="1.5" y="232.54" width="96.3333" height="103" rx="3.5" stroke="#E4E4E7"/>
<path d="M59.667 271.54C59.667 272.866 58.9684 273.516 57.667 273.539V273.54H41.667V273.539C40.3656 273.516 39.6669 272.866 39.6669 271.54C39.6669 270.214 40.3656 269.564 41.667 269.541V269.54H57.667V269.541C58.9684 269.564 59.667 270.214 59.667 271.54ZM57.667 274.541V274.54H41.667V274.541C40.3656 274.564 39.6669 275.214 39.6669 276.54C39.6669 277.866 40.3656 278.516 41.667 278.539V278.54H57.667V278.539C58.9683 278.516 59.667 277.866 59.667 276.54C59.667 275.214 58.9684 274.564 57.667 274.541ZM62.6671 263.542V263.541C61.3657 263.564 60.6669 264.214 60.6669 265.54V276.54C60.6669 277.866 61.3656 278.516 62.6671 278.539V278.537C64.619 278.468 65.667 276.518 65.667 272.54V267.54C65.6671 264.888 64.619 263.588 62.6671 263.542ZM36.667 263.541V263.542C34.715 263.588 33.667 264.888 33.667 267.54V272.54C33.667 276.518 34.715 278.468 36.667 278.537V278.539C37.9684 278.516 38.6669 277.866 38.6669 276.54V265.54C38.6669 264.214 37.9684 263.564 36.667 263.541ZM62.6671 262.54C62.6671 259.225 60.9203 257.6 57.667 257.543V257.54H41.667V257.543C38.4137 257.6 36.667 259.225 36.667 262.54V262.542C38.619 262.576 39.6669 263.551 39.6669 265.54C39.6669 267.529 40.715 268.504 42.667 268.538V268.54H56.667V268.538C58.6191 268.504 59.667 267.529 59.667 265.54C59.667 263.551 60.715 262.576 62.6671 262.542V262.54Z" fill="#111827"/>
<path d="M23.5264 311.177C22.6468 311.177 21.8607 310.969 21.168 310.555C20.4753 310.135 19.9307 309.536 19.5342 308.757C19.1377 307.973 18.9395 307.039 18.9395 305.954C18.9395 304.865 19.1377 303.931 19.5342 303.151C19.9307 302.368 20.4753 301.766 21.168 301.347C21.8607 300.927 22.6468 300.718 23.5264 300.718C24.0641 300.718 24.5677 300.795 25.0371 300.95C25.5111 301.105 25.9326 301.331 26.3018 301.627C26.6755 301.923 26.9831 302.283 27.2246 302.707C27.4707 303.131 27.637 303.612 27.7236 304.149H26.1582C26.0944 303.826 25.9805 303.541 25.8164 303.295C25.6569 303.044 25.4609 302.832 25.2285 302.659C24.9961 302.486 24.7363 302.356 24.4492 302.27C24.1621 302.183 23.859 302.14 23.54 302.14C22.9567 302.14 22.4326 302.288 21.9678 302.584C21.5075 302.876 21.1452 303.306 20.8809 303.876C20.6165 304.441 20.4844 305.134 20.4844 305.954C20.4844 306.774 20.6188 307.469 20.8877 308.039C21.1566 308.604 21.5212 309.033 21.9814 309.324C22.4417 309.611 22.9613 309.755 23.54 309.755C23.859 309.755 24.1598 309.712 24.4424 309.625C24.7295 309.534 24.9893 309.404 25.2217 309.235C25.4587 309.062 25.6569 308.85 25.8164 308.6C25.9805 308.349 26.0944 308.064 26.1582 307.745H27.7305C27.653 308.246 27.4958 308.707 27.2588 309.126C27.0218 309.541 26.7188 309.903 26.3496 310.213C25.9805 310.523 25.5566 310.762 25.0781 310.931C24.6042 311.095 24.0869 311.177 23.5264 311.177ZM32.6592 311.197C31.9437 311.197 31.3171 311.033 30.7793 310.705C30.2461 310.377 29.8314 309.917 29.5352 309.324C29.2389 308.732 29.0908 308.044 29.0908 307.26C29.0908 306.467 29.2389 305.774 29.5352 305.182C29.8314 304.585 30.2461 304.122 30.7793 303.794C31.3171 303.466 31.9437 303.302 32.6592 303.302C33.3792 303.302 34.0059 303.466 34.5391 303.794C35.0768 304.122 35.4938 304.585 35.79 305.182C36.0863 305.774 36.2344 306.467 36.2344 307.26C36.2344 308.044 36.0863 308.732 35.79 309.324C35.4938 309.917 35.0768 310.377 34.5391 310.705C34.0059 311.033 33.3792 311.197 32.6592 311.197ZM32.6592 309.926C33.124 309.926 33.5068 309.805 33.8076 309.563C34.113 309.317 34.3385 308.994 34.4844 308.593C34.6348 308.187 34.71 307.743 34.71 307.26C34.71 306.772 34.6348 306.326 34.4844 305.92C34.3385 305.51 34.113 305.184 33.8076 304.942C33.5068 304.696 33.124 304.573 32.6592 304.573C32.1989 304.573 31.8184 304.696 31.5176 304.942C31.2168 305.184 30.9912 305.507 30.8408 305.913C30.695 306.319 30.6221 306.768 30.6221 307.26C30.6221 307.743 30.695 308.187 30.8408 308.593C30.9912 308.994 31.2168 309.317 31.5176 309.563C31.8184 309.805 32.1989 309.926 32.6592 309.926ZM40.5137 311.136C39.9941 311.136 39.5384 311.026 39.1465 310.808C38.7546 310.589 38.4492 310.265 38.2305 309.837C38.0163 309.409 37.9092 308.88 37.9092 308.251V303.397H39.4131V308.066C39.4131 308.618 39.5566 309.049 39.8438 309.358C40.1354 309.668 40.5296 309.823 41.0264 309.823C41.3682 309.823 41.6712 309.75 41.9355 309.604C42.2044 309.454 42.4163 309.238 42.5713 308.955C42.7262 308.668 42.8037 308.324 42.8037 307.923V303.397H44.3076V311.04H42.8721L42.8652 309.167H43.0088C42.7855 309.86 42.4596 310.361 42.0312 310.671C41.6029 310.981 41.097 311.136 40.5137 311.136ZM49.5439 311.197C48.8239 311.197 48.1973 311.033 47.6641 310.705C47.1309 310.377 46.7161 309.917 46.4199 309.324C46.1237 308.732 45.9756 308.044 45.9756 307.26C45.9756 306.467 46.1237 305.774 46.4199 305.182C46.7161 304.585 47.1309 304.122 47.6641 303.794C48.1973 303.466 48.8239 303.302 49.5439 303.302C49.9404 303.302 50.3118 303.354 50.6582 303.459C51.0046 303.559 51.3167 303.707 51.5947 303.903C51.8773 304.095 52.1143 304.332 52.3057 304.614C52.5016 304.892 52.6475 305.207 52.7432 305.558L51.3145 305.899C51.2643 305.703 51.1868 305.526 51.082 305.366C50.9772 305.202 50.8496 305.061 50.6992 304.942C50.5534 304.824 50.3825 304.733 50.1865 304.669C49.9951 304.605 49.7832 304.573 49.5508 304.573C49.0905 304.573 48.7077 304.696 48.4023 304.942C48.1016 305.184 47.876 305.507 47.7256 305.913C47.5798 306.319 47.5068 306.768 47.5068 307.26C47.5068 307.747 47.5798 308.194 47.7256 308.6C47.876 309.001 48.1016 309.322 48.4023 309.563C48.7077 309.805 49.0905 309.926 49.5508 309.926C49.7878 309.926 50.0042 309.894 50.2002 309.83C50.3962 309.762 50.5716 309.668 50.7266 309.55C50.8815 309.427 51.0114 309.281 51.1162 309.112C51.221 308.939 51.2962 308.75 51.3418 308.545L52.7637 308.887C52.6725 309.247 52.529 309.57 52.333 309.857C52.137 310.14 51.8978 310.382 51.6152 310.582C51.3372 310.783 51.0228 310.935 50.6719 311.04C50.321 311.145 49.945 311.197 49.5439 311.197ZM55.915 306.515V311.04H54.4111V300.854H55.9014V305.271H55.7031C55.9264 304.587 56.25 304.088 56.6738 303.773C57.0977 303.459 57.6104 303.302 58.2119 303.302C58.7314 303.302 59.1849 303.411 59.5723 303.63C59.9642 303.849 60.2673 304.172 60.4814 304.601C60.7002 305.024 60.8096 305.553 60.8096 306.187V311.04H59.3057V306.371C59.3057 305.82 59.1621 305.389 58.875 305.079C58.5879 304.769 58.1937 304.614 57.6924 304.614C57.3551 304.614 57.0521 304.689 56.7832 304.84C56.5143 304.986 56.3024 305.2 56.1475 305.482C55.9925 305.765 55.915 306.109 55.915 306.515ZM66.2578 311.04H63.7422V309.673H66.1758C66.946 309.673 67.5863 309.529 68.0967 309.242C68.6071 308.955 68.9899 308.534 69.2451 307.978C69.5003 307.417 69.6279 306.736 69.6279 305.934C69.6279 305.136 69.5003 304.462 69.2451 303.91C68.9945 303.359 68.6185 302.939 68.1172 302.652C67.6204 302.365 67.0007 302.222 66.2578 302.222H63.6875V300.854H66.3604C67.363 300.854 68.222 301.057 68.9375 301.463C69.653 301.868 70.2021 302.452 70.585 303.213C70.9678 303.969 71.1592 304.876 71.1592 305.934C71.1592 306.995 70.9655 307.907 70.5781 308.668C70.1953 309.429 69.637 310.015 68.9033 310.425C68.1742 310.835 67.2923 311.04 66.2578 311.04ZM64.5078 300.854V311.04H62.9492V300.854H64.5078ZM73.0527 311.04V300.854H76.8057C77.5303 300.854 78.1296 300.973 78.6035 301.21C79.0775 301.447 79.4307 301.768 79.6631 302.174C79.8955 302.575 80.0117 303.026 80.0117 303.527C80.0117 303.951 79.9342 304.309 79.7793 304.601C79.6243 304.888 79.4147 305.12 79.1504 305.298C78.8906 305.471 78.6035 305.599 78.2891 305.681V305.783C78.6309 305.797 78.9635 305.906 79.2871 306.111C79.6107 306.312 79.8773 306.597 80.0869 306.966C80.3011 307.33 80.4082 307.775 80.4082 308.299C80.4082 308.814 80.2852 309.279 80.0391 309.693C79.7975 310.108 79.4238 310.436 78.918 310.678C78.4121 310.919 77.7627 311.04 76.9697 311.04H73.0527ZM74.6113 309.7H76.8125C77.5417 309.7 78.0658 309.559 78.3848 309.276C78.7038 308.994 78.8633 308.643 78.8633 308.224C78.8633 307.896 78.7812 307.599 78.6172 307.335C78.4577 307.071 78.2298 306.861 77.9336 306.706C77.6374 306.547 77.2842 306.467 76.874 306.467H74.6113V309.7ZM74.6113 305.264H76.6553C76.9971 305.264 77.307 305.198 77.585 305.065C77.863 304.933 78.0817 304.746 78.2412 304.505C78.4007 304.263 78.4805 303.981 78.4805 303.657C78.4805 303.238 78.3346 302.889 78.043 302.611C77.7513 302.329 77.3024 302.188 76.6963 302.188H74.6113V305.264Z" fill="#111827"/>
<rect x="130.833" y="232.54" width="96.3333" height="103" rx="3.5" fill="white"/>
<rect x="130.833" y="232.54" width="96.3333" height="103" rx="3.5" stroke="#E4E4E7"/>
<path d="M194.857 257.733C194.77 257.659 194.66 257.62 194.547 257.624C194.237 257.624 193.838 257.833 193.624 257.951L193.538 257.995C193.177 258.169 192.785 258.268 192.384 258.285C191.974 258.298 191.621 258.322 191.16 258.369C188.432 258.65 187.216 260.741 186.044 262.762C185.407 263.862 184.748 264.999 183.845 265.88C183.657 266.061 183.458 266.229 183.249 266.385C182.314 267.082 181.14 267.574 180.222 267.925C179.342 268.261 178.383 268.564 177.454 268.856C176.605 269.123 175.802 269.375 175.065 269.65C174.732 269.774 174.45 269.868 174.2 269.951C173.529 270.17 173.043 270.337 172.336 270.824C172.06 271.013 171.783 271.217 171.594 271.37C171.032 271.818 170.535 272.342 170.117 272.927C169.757 273.467 169.341 273.967 168.876 274.42C168.728 274.567 168.462 274.639 168.066 274.639C167.6 274.639 167.037 274.543 166.439 274.441C165.841 274.34 165.189 274.223 164.643 274.223C164.199 274.223 163.861 274.295 163.607 274.441C163.607 274.441 163.181 274.69 163 275.012L163.177 275.091C163.451 275.24 163.705 275.424 163.933 275.637C164.169 275.857 164.432 276.045 164.717 276.196C164.809 276.23 164.892 276.284 164.962 276.354C164.886 276.463 164.777 276.604 164.663 276.754C164.033 277.578 163.667 278.098 163.877 278.382C163.978 278.435 164.091 278.46 164.205 278.456C165.578 278.456 166.315 278.099 167.249 277.648C167.518 277.517 167.794 277.382 168.121 277.244C168.667 277.007 169.254 276.63 169.876 276.23C170.7 275.701 171.552 275.154 172.377 274.888C173.056 274.681 173.764 274.582 174.475 274.594C175.347 274.594 176.266 274.711 177.152 274.824C177.813 274.909 178.496 274.996 179.167 275.042C179.428 275.058 179.669 275.065 179.905 275.065C180.219 275.066 180.532 275.05 180.844 275.016L180.918 274.99C181.39 274.701 181.61 274.08 181.823 273.48C181.96 273.094 182.076 272.747 182.259 272.526C182.27 272.515 182.282 272.505 182.295 272.497C182.304 272.492 182.314 272.49 182.324 272.492C182.333 272.494 182.342 272.498 182.349 272.506C182.351 272.511 182.351 272.517 182.349 272.523C182.24 274.87 181.294 276.359 180.339 277.684L179.691 278.363C179.691 278.363 180.583 278.363 181.092 278.167C182.947 277.613 184.348 276.391 185.367 274.442C185.618 273.942 185.842 273.429 186.039 272.905C186.056 272.861 186.218 272.781 186.201 273.006C186.201 273.073 186.193 273.147 186.187 273.225C186.187 273.27 186.181 273.317 186.178 273.364C186.151 273.692 186.069 274.383 186.069 274.383L186.642 274.077C188.023 273.204 189.088 271.443 189.896 268.703C190.233 267.562 190.478 266.428 190.695 265.43C190.955 264.23 191.179 263.201 191.435 262.802C191.838 262.175 192.452 261.752 193.047 261.341C193.128 261.285 193.209 261.232 193.289 261.173C194.037 260.648 194.78 260.042 194.943 258.913V258.888C195.067 258.046 194.966 257.836 194.857 257.733Z" fill="#111827"/>
<path d="M148.628 311.04V300.854H150.925L153.146 306.699C153.21 306.872 153.281 307.091 153.358 307.355C153.44 307.62 153.525 307.907 153.611 308.217C153.698 308.527 153.78 308.832 153.857 309.133C153.935 309.434 154.003 309.705 154.062 309.946H153.734C153.794 309.718 153.862 309.456 153.939 309.16C154.017 308.859 154.099 308.554 154.186 308.244C154.272 307.934 154.356 307.643 154.438 307.369C154.521 307.096 154.593 306.872 154.657 306.699L156.845 300.854H159.155V311.04H157.604V305.558C157.604 305.348 157.606 305.097 157.61 304.806C157.615 304.514 157.619 304.206 157.624 303.883C157.633 303.555 157.64 303.224 157.645 302.892C157.654 302.559 157.66 302.24 157.665 301.935H157.781C157.69 302.267 157.59 302.611 157.48 302.967C157.376 303.318 157.271 303.657 157.166 303.985C157.066 304.313 156.968 304.614 156.872 304.888C156.781 305.157 156.703 305.38 156.64 305.558L154.555 311.04H153.222L151.109 305.558C151.041 305.384 150.961 305.166 150.87 304.901C150.784 304.632 150.688 304.336 150.583 304.013C150.478 303.685 150.371 303.345 150.262 302.994C150.152 302.639 150.043 302.285 149.934 301.935H150.07C150.079 302.213 150.086 302.516 150.091 302.844C150.1 303.167 150.107 303.495 150.111 303.828C150.12 304.161 150.127 304.478 150.132 304.778C150.141 305.075 150.146 305.334 150.146 305.558V311.04H148.628ZM164.132 311.19C163.517 311.19 162.967 311.033 162.484 310.719C162.006 310.4 161.628 309.946 161.35 309.358C161.076 308.766 160.939 308.06 160.939 307.239C160.939 306.41 161.078 305.701 161.356 305.113C161.639 304.525 162.022 304.076 162.505 303.767C162.993 303.457 163.542 303.302 164.152 303.302C164.622 303.302 165 303.379 165.287 303.534C165.579 303.689 165.804 303.874 165.964 304.088C166.128 304.298 166.253 304.482 166.34 304.642H166.436V303.397H167.926V311.04H166.442V309.844H166.34C166.253 310.008 166.126 310.197 165.957 310.411C165.788 310.621 165.558 310.803 165.267 310.958C164.975 311.113 164.597 311.19 164.132 311.19ZM164.48 309.912C164.909 309.912 165.269 309.798 165.561 309.57C165.857 309.342 166.08 309.028 166.23 308.627C166.381 308.221 166.456 307.754 166.456 307.226C166.456 306.692 166.381 306.23 166.23 305.838C166.08 305.441 165.857 305.134 165.561 304.915C165.269 304.692 164.909 304.58 164.48 304.58C164.038 304.58 163.669 304.696 163.373 304.929C163.077 305.157 162.854 305.471 162.703 305.872C162.553 306.269 162.478 306.72 162.478 307.226C162.478 307.731 162.553 308.187 162.703 308.593C162.854 308.998 163.077 309.32 163.373 309.557C163.674 309.794 164.043 309.912 164.48 309.912ZM169.949 311.04V303.397H171.405V304.628H171.487C171.629 304.209 171.875 303.881 172.226 303.644C172.576 303.407 172.975 303.288 173.422 303.288C173.518 303.288 173.627 303.293 173.75 303.302C173.873 303.306 173.976 303.315 174.058 303.329V304.765C174.003 304.746 173.898 304.728 173.743 304.71C173.588 304.692 173.431 304.683 173.271 304.683C172.925 304.683 172.613 304.756 172.335 304.901C172.057 305.047 171.84 305.25 171.686 305.51C171.531 305.765 171.453 306.061 171.453 306.398V311.04H169.949ZM175.541 311.04V303.397H177.045V311.04H175.541ZM176.3 302.229C176.04 302.229 175.817 302.142 175.63 301.969C175.448 301.796 175.356 301.586 175.356 301.34C175.356 301.089 175.448 300.877 175.63 300.704C175.817 300.531 176.04 300.444 176.3 300.444C176.56 300.444 176.783 300.531 176.97 300.704C177.157 300.877 177.25 301.089 177.25 301.34C177.25 301.586 177.157 301.796 176.97 301.969C176.783 302.142 176.56 302.229 176.3 302.229ZM181.905 311.19C181.29 311.19 180.741 311.033 180.258 310.719C179.779 310.4 179.401 309.946 179.123 309.358C178.85 308.766 178.713 308.06 178.713 307.239C178.713 306.41 178.852 305.701 179.13 305.113C179.412 304.525 179.795 304.076 180.278 303.767C180.766 303.457 181.315 303.302 181.926 303.302C182.395 303.302 182.773 303.379 183.061 303.534C183.352 303.689 183.578 303.874 183.737 304.088C183.901 304.298 184.027 304.482 184.113 304.642H184.209V303.397H185.699V311.04H184.216V309.844H184.113C184.027 310.008 183.899 310.197 183.73 310.411C183.562 310.621 183.332 310.803 183.04 310.958C182.748 311.113 182.37 311.19 181.905 311.19ZM182.254 309.912C182.682 309.912 183.042 309.798 183.334 309.57C183.63 309.342 183.854 309.028 184.004 308.627C184.154 308.221 184.229 307.754 184.229 307.226C184.229 306.692 184.154 306.23 184.004 305.838C183.854 305.441 183.63 305.134 183.334 304.915C183.042 304.692 182.682 304.58 182.254 304.58C181.812 304.58 181.443 304.696 181.146 304.929C180.85 305.157 180.627 305.471 180.477 305.872C180.326 306.269 180.251 306.72 180.251 307.226C180.251 307.731 180.326 308.187 180.477 308.593C180.627 308.998 180.85 309.32 181.146 309.557C181.447 309.794 181.816 309.912 182.254 309.912ZM194.88 311.04H192.364V309.673H194.798C195.568 309.673 196.208 309.529 196.719 309.242C197.229 308.955 197.612 308.534 197.867 307.978C198.122 307.417 198.25 306.736 198.25 305.934C198.25 305.136 198.122 304.462 197.867 303.91C197.617 303.359 197.241 302.939 196.739 302.652C196.243 302.365 195.623 302.222 194.88 302.222H192.31V300.854H194.982C195.985 300.854 196.844 301.057 197.56 301.463C198.275 301.868 198.824 302.452 199.207 303.213C199.59 303.969 199.781 304.876 199.781 305.934C199.781 306.995 199.588 307.907 199.2 308.668C198.817 309.429 198.259 310.015 197.525 310.425C196.796 310.835 195.914 311.04 194.88 311.04ZM193.13 300.854V311.04H191.571V300.854H193.13ZM201.675 311.04V300.854H205.428C206.152 300.854 206.752 300.973 207.226 301.21C207.7 301.447 208.053 301.768 208.285 302.174C208.518 302.575 208.634 303.026 208.634 303.527C208.634 303.951 208.556 304.309 208.401 304.601C208.246 304.888 208.037 305.12 207.772 305.298C207.513 305.471 207.226 305.599 206.911 305.681V305.783C207.253 305.797 207.586 305.906 207.909 306.111C208.233 306.312 208.499 306.597 208.709 306.966C208.923 307.33 209.03 307.775 209.03 308.299C209.03 308.814 208.907 309.279 208.661 309.693C208.42 310.108 208.046 310.436 207.54 310.678C207.034 310.919 206.385 311.04 205.592 311.04H201.675ZM203.233 309.7H205.435C206.164 309.7 206.688 309.559 207.007 309.276C207.326 308.994 207.485 308.643 207.485 308.224C207.485 307.896 207.403 307.599 207.239 307.335C207.08 307.071 206.852 306.861 206.556 306.706C206.259 306.547 205.906 306.467 205.496 306.467H203.233V309.7ZM203.233 305.264H205.277C205.619 305.264 205.929 305.198 206.207 305.065C206.485 304.933 206.704 304.746 206.863 304.505C207.023 304.263 207.103 303.981 207.103 303.657C207.103 303.238 206.957 302.889 206.665 302.611C206.373 302.329 205.924 302.188 205.318 302.188H203.233V305.264Z" fill="#111827"/>
<rect x="260.167" y="232.54" width="96.3333" height="103" rx="3.5" fill="white"/>
<rect x="260.167" y="232.54" width="96.3333" height="103" rx="3.5" stroke="#E4E4E7"/>
<g clip-path="url(#clip1_3945_128916)">
<path fill-rule="evenodd" clip-rule="evenodd" d="M303.74 254.06L307.907 252.04V259.271L303.74 260.186L303.74 254.06ZM296.51 278.451V257.312L294.702 258.266V277.497L296.51 278.451ZM320.159 278.451V257.312L321.966 258.266V277.497L320.159 278.451ZM307.907 276.671L303.74 275.794L303.74 282.057L307.907 283.902V276.671ZM302.987 258.718L297.464 257.262L297.413 278.551L302.937 277.095V274.936L308.56 273.932L313.832 274.986V277.095L319.255 278.551V257.262L313.832 258.768V261.128L308.309 262.182L302.987 261.078V258.718ZM313.079 264.542L308.911 264.04V271.823L313.079 271.22L313.079 264.542ZM303.74 264.542L307.907 264.04V271.823L303.74 271.22L303.74 264.542ZM308.912 252.04L313.079 254.06L313.079 260.324L308.912 259.409V252.04ZM313.079 275.794L308.912 276.671V284.04L313.079 282.057L313.079 275.794ZM308.321 260.139L305.696 260.756L308.295 261.425L310.972 260.808L308.321 260.139ZM305.696 275.304L308.321 274.687L310.972 275.356L308.295 275.973L305.696 275.304Z" fill="#111827"/>
</g>
<path d="M278.88 311.211C278.119 311.211 277.458 311.09 276.897 310.849C276.337 310.607 275.897 310.263 275.578 309.816C275.264 309.365 275.09 308.83 275.059 308.21H276.624C276.656 308.579 276.774 308.884 276.979 309.126C277.189 309.368 277.46 309.548 277.793 309.666C278.126 309.785 278.486 309.844 278.873 309.844C279.306 309.844 279.689 309.778 280.021 309.646C280.359 309.509 280.625 309.317 280.821 309.071C281.017 308.821 281.115 308.531 281.115 308.203C281.115 307.907 281.029 307.665 280.855 307.479C280.687 307.287 280.457 307.13 280.165 307.007C279.878 306.879 279.55 306.768 279.181 306.672L277.991 306.344C277.157 306.12 276.506 305.79 276.036 305.353C275.571 304.915 275.339 304.348 275.339 303.65C275.339 303.062 275.496 302.55 275.811 302.112C276.13 301.67 276.56 301.328 277.103 301.087C277.649 300.841 278.265 300.718 278.948 300.718C279.646 300.718 280.258 300.841 280.787 301.087C281.32 301.328 281.737 301.661 282.038 302.085C282.343 302.509 282.503 302.992 282.517 303.534H280.999C280.949 303.069 280.732 302.709 280.35 302.454C279.971 302.199 279.493 302.071 278.914 302.071C278.504 302.071 278.146 302.135 277.841 302.263C277.54 302.39 277.305 302.568 277.137 302.796C276.973 303.019 276.891 303.274 276.891 303.562C276.891 303.885 276.989 304.147 277.185 304.348C277.385 304.544 277.627 304.701 277.909 304.819C278.196 304.933 278.47 305.024 278.729 305.093L279.721 305.353C280.044 305.435 280.377 305.546 280.719 305.688C281.065 305.824 281.384 306.004 281.676 306.228C281.967 306.446 282.202 306.72 282.38 307.048C282.562 307.371 282.653 307.763 282.653 308.224C282.653 308.798 282.505 309.311 282.209 309.762C281.913 310.213 281.482 310.568 280.917 310.828C280.356 311.083 279.677 311.211 278.88 311.211ZM287.78 311.177C287.092 311.177 286.479 311.058 285.941 310.821C285.408 310.584 284.984 310.256 284.67 309.837C284.36 309.418 284.196 308.93 284.178 308.374H285.757C285.78 308.675 285.88 308.935 286.058 309.153C286.24 309.372 286.479 309.541 286.775 309.659C287.072 309.778 287.402 309.837 287.767 309.837C288.168 309.837 288.521 309.769 288.826 309.632C289.132 309.495 289.371 309.304 289.544 309.058C289.722 308.807 289.811 308.518 289.811 308.189C289.811 307.848 289.724 307.549 289.551 307.294C289.378 307.034 289.127 306.831 288.799 306.686C288.471 306.54 288.072 306.467 287.603 306.467H286.734V305.195H287.603C287.976 305.195 288.307 305.129 288.594 304.997C288.881 304.86 289.104 304.671 289.264 304.43C289.423 304.188 289.503 303.906 289.503 303.582C289.503 303.268 289.432 302.994 289.291 302.762C289.15 302.529 288.951 302.349 288.696 302.222C288.441 302.09 288.14 302.023 287.794 302.023C287.466 302.023 287.158 302.085 286.871 302.208C286.589 302.326 286.358 302.495 286.181 302.714C286.003 302.933 285.907 303.197 285.894 303.507H284.39C284.408 302.955 284.57 302.47 284.875 302.051C285.185 301.632 285.595 301.306 286.105 301.073C286.62 300.836 287.192 300.718 287.821 300.718C288.473 300.718 289.038 300.845 289.517 301.101C290 301.356 290.371 301.695 290.631 302.119C290.891 302.538 291.021 302.996 291.021 303.493C291.021 304.067 290.861 304.553 290.542 304.949C290.223 305.341 289.797 305.608 289.264 305.749V305.824C289.715 305.893 290.1 306.038 290.419 306.262C290.738 306.48 290.979 306.758 291.144 307.096C291.308 307.433 291.39 307.816 291.39 308.244C291.39 308.805 291.235 309.306 290.925 309.748C290.615 310.19 290.187 310.539 289.64 310.794C289.097 311.049 288.478 311.177 287.78 311.177ZM297.022 311.04V300.854H300.775C301.5 300.854 302.099 300.973 302.573 301.21C303.047 301.447 303.4 301.768 303.633 302.174C303.865 302.575 303.981 303.026 303.981 303.527C303.981 303.951 303.904 304.309 303.749 304.601C303.594 304.888 303.384 305.12 303.12 305.298C302.86 305.471 302.573 305.599 302.259 305.681V305.783C302.601 305.797 302.933 305.906 303.257 306.111C303.58 306.312 303.847 306.597 304.057 306.966C304.271 307.33 304.378 307.775 304.378 308.299C304.378 308.814 304.255 309.279 304.009 309.693C303.767 310.108 303.394 310.436 302.888 310.678C302.382 310.919 301.732 311.04 300.939 311.04H297.022ZM298.581 309.7H300.782C301.511 309.7 302.035 309.559 302.354 309.276C302.674 308.994 302.833 308.643 302.833 308.224C302.833 307.896 302.751 307.599 302.587 307.335C302.427 307.071 302.2 306.861 301.903 306.706C301.607 306.547 301.254 306.467 300.844 306.467H298.581V309.7ZM298.581 305.264H300.625C300.967 305.264 301.277 305.198 301.555 305.065C301.833 304.933 302.051 304.746 302.211 304.505C302.37 304.263 302.45 303.981 302.45 303.657C302.45 303.238 302.304 302.889 302.013 302.611C301.721 302.329 301.272 302.188 300.666 302.188H298.581V305.264ZM308.712 311.136C308.192 311.136 307.737 311.026 307.345 310.808C306.953 310.589 306.647 310.265 306.429 309.837C306.215 309.409 306.107 308.88 306.107 308.251V303.397H307.611V308.066C307.611 308.618 307.755 309.049 308.042 309.358C308.334 309.668 308.728 309.823 309.225 309.823C309.566 309.823 309.869 309.75 310.134 309.604C310.403 309.454 310.615 309.238 310.77 308.955C310.924 308.668 311.002 308.324 311.002 307.923V303.397H312.506V311.04H311.07L311.063 309.167H311.207C310.984 309.86 310.658 310.361 310.229 310.671C309.801 310.981 309.295 311.136 308.712 311.136ZM317.742 311.197C317.022 311.197 316.396 311.033 315.862 310.705C315.329 310.377 314.914 309.917 314.618 309.324C314.322 308.732 314.174 308.044 314.174 307.26C314.174 306.467 314.322 305.774 314.618 305.182C314.914 304.585 315.329 304.122 315.862 303.794C316.396 303.466 317.022 303.302 317.742 303.302C318.139 303.302 318.51 303.354 318.856 303.459C319.203 303.559 319.515 303.707 319.793 303.903C320.076 304.095 320.312 304.332 320.504 304.614C320.7 304.892 320.846 305.207 320.941 305.558L319.513 305.899C319.463 305.703 319.385 305.526 319.28 305.366C319.175 305.202 319.048 305.061 318.897 304.942C318.752 304.824 318.581 304.733 318.385 304.669C318.193 304.605 317.981 304.573 317.749 304.573C317.289 304.573 316.906 304.696 316.601 304.942C316.3 305.184 316.074 305.507 315.924 305.913C315.778 306.319 315.705 306.768 315.705 307.26C315.705 307.747 315.778 308.194 315.924 308.6C316.074 309.001 316.3 309.322 316.601 309.563C316.906 309.805 317.289 309.926 317.749 309.926C317.986 309.926 318.202 309.894 318.398 309.83C318.594 309.762 318.77 309.668 318.925 309.55C319.08 309.427 319.21 309.281 319.314 309.112C319.419 308.939 319.494 308.75 319.54 308.545L320.962 308.887C320.871 309.247 320.727 309.57 320.531 309.857C320.335 310.14 320.096 310.382 319.813 310.582C319.535 310.783 319.221 310.935 318.87 311.04C318.519 311.145 318.143 311.197 317.742 311.197ZM323.997 308.463V306.624H324.25L327.265 303.397H329.069L325.617 307.096H325.364L323.997 308.463ZM322.609 311.04V300.854H324.113V311.04H322.609ZM327.422 311.04L324.708 307.431L325.747 306.364L329.281 311.04H327.422ZM333.424 311.197C332.672 311.197 332.022 311.035 331.476 310.712C330.929 310.388 330.507 309.933 330.211 309.345C329.919 308.757 329.773 308.066 329.773 307.273C329.773 306.49 329.917 305.799 330.204 305.202C330.496 304.605 330.906 304.14 331.435 303.808C331.963 303.47 332.583 303.302 333.294 303.302C333.731 303.302 334.153 303.375 334.559 303.521C334.964 303.662 335.329 303.885 335.652 304.19C335.976 304.496 336.231 304.892 336.418 305.38C336.609 305.863 336.705 306.451 336.705 307.144V307.677H330.614V306.556H335.933L335.229 306.925C335.229 306.455 335.156 306.043 335.01 305.688C334.864 305.327 334.647 305.047 334.36 304.847C334.078 304.646 333.722 304.546 333.294 304.546C332.87 304.546 332.508 304.648 332.207 304.854C331.906 305.059 331.676 305.33 331.517 305.667C331.362 306 331.284 306.364 331.284 306.761V307.526C331.284 308.05 331.373 308.495 331.551 308.859C331.733 309.219 331.986 309.493 332.31 309.68C332.633 309.862 333.009 309.953 333.438 309.953C333.72 309.953 333.975 309.914 334.203 309.837C334.431 309.755 334.627 309.634 334.791 309.475C334.96 309.311 335.087 309.11 335.174 308.873L336.589 309.208C336.466 309.6 336.258 309.946 335.967 310.247C335.68 310.548 335.32 310.783 334.887 310.951C334.458 311.115 333.971 311.197 333.424 311.197ZM341.627 303.397V304.621H337.484V303.397H341.627ZM338.599 301.579H340.103V308.976C340.103 309.281 340.166 309.507 340.294 309.652C340.426 309.794 340.64 309.864 340.937 309.864C341.014 309.864 341.117 309.855 341.244 309.837C341.372 309.819 341.481 309.8 341.572 309.782L341.839 310.985C341.679 311.04 341.508 311.079 341.326 311.102C341.144 311.129 340.964 311.143 340.786 311.143C340.093 311.143 339.556 310.965 339.173 310.609C338.79 310.249 338.599 309.746 338.599 309.099V301.579Z" fill="#111827"/>
<defs>
<clipPath id="clip0_3945_128916">
<rect x="1" y="28.04" width="356" height="36" rx="4" fill="white"/>
</clipPath>
<clipPath id="clip1_3945_128916">
<rect width="32" height="32" fill="white" transform="translate(292.334 252.04)"/>
</clipPath>
</defs>
</svg>
