<svg width="242" height="312" viewBox="0 0 242 312" fill="none" xmlns="http://www.w3.org/2000/svg">
<path d="M2.12793 17V6.81445H3.92578L7.76074 12.8779C7.88835 13.0785 8.0319 13.3177 8.19141 13.5957C8.35091 13.8737 8.51953 14.1882 8.69727 14.5391C8.875 14.8854 9.05046 15.2637 9.22363 15.6738H9.03223C8.99121 15.2865 8.95931 14.9036 8.93652 14.5254C8.91829 14.1426 8.90462 13.7848 8.89551 13.4521C8.88639 13.1195 8.88184 12.8392 8.88184 12.6113V6.81445H10.4609V17H8.65625L5.21777 11.5791C5.03548 11.2829 4.85547 10.9844 4.67773 10.6836C4.50456 10.3828 4.31087 10.0365 4.09668 9.64453C3.88704 9.24805 3.62956 8.76725 3.32422 8.20215H3.57031C3.5931 8.70345 3.61589 9.17285 3.63867 9.61035C3.66146 10.0433 3.67741 10.4284 3.68652 10.7656C3.7002 11.0983 3.70703 11.3649 3.70703 11.5654V17H2.12793ZM15.4443 17.1504C14.8291 17.1504 14.2799 16.9932 13.7969 16.6787C13.3184 16.3597 12.9401 15.9062 12.6621 15.3184C12.3887 14.7259 12.252 14.0195 12.252 13.1992C12.252 12.3698 12.391 11.6611 12.6689 11.0732C12.9515 10.4854 13.3343 10.0365 13.8174 9.72656C14.305 9.41667 14.8542 9.26172 15.4648 9.26172C15.9342 9.26172 16.3125 9.33919 16.5996 9.49414C16.8913 9.64909 17.1169 9.83366 17.2764 10.0479C17.4404 10.2575 17.5658 10.4421 17.6523 10.6016H17.748V9.35742H19.2383V17H17.7549V15.8037H17.6523C17.5658 15.9678 17.4382 16.1569 17.2695 16.3711C17.1009 16.5807 16.8708 16.763 16.5791 16.918C16.2874 17.0729 15.9092 17.1504 15.4443 17.1504ZM15.793 15.8721C16.2214 15.8721 16.5814 15.7581 16.873 15.5303C17.1693 15.3024 17.3926 14.988 17.543 14.5869C17.6934 14.1813 17.7686 13.7142 17.7686 13.1855C17.7686 12.6523 17.6934 12.1898 17.543 11.7979C17.3926 11.4014 17.1693 11.0938 16.873 10.875C16.5814 10.6517 16.2214 10.54 15.793 10.54C15.3509 10.54 14.9818 10.6562 14.6855 10.8887C14.3893 11.1165 14.166 11.431 14.0156 11.832C13.8652 12.2285 13.79 12.6797 13.79 13.1855C13.79 13.6914 13.8652 14.1471 14.0156 14.5527C14.166 14.9583 14.3893 15.2796 14.6855 15.5166C14.9863 15.7536 15.3555 15.8721 15.793 15.8721ZM21.2617 17V9.35742H22.6904L22.7314 11.1279H22.6152C22.7246 10.695 22.8932 10.3395 23.1211 10.0615C23.349 9.78353 23.6156 9.57617 23.9209 9.43945C24.2262 9.29818 24.5452 9.22754 24.8779 9.22754C25.4339 9.22754 25.8828 9.40072 26.2246 9.74707C26.5664 10.0889 26.7965 10.5674 26.915 11.1826H26.7236C26.8239 10.7633 26.9971 10.4079 27.2432 10.1162C27.4893 9.82454 27.7855 9.60352 28.1318 9.45312C28.4827 9.30273 28.8564 9.22754 29.2529 9.22754C29.7041 9.22754 30.112 9.32552 30.4766 9.52148C30.8457 9.71745 31.1374 10.0091 31.3516 10.3965C31.5658 10.7839 31.6729 11.2669 31.6729 11.8457V17H30.1621V11.9961C30.1621 11.4857 30.0208 11.1165 29.7383 10.8887C29.4557 10.6608 29.1208 10.5469 28.7334 10.5469C28.4189 10.5469 28.1478 10.613 27.9199 10.7451C27.6921 10.8773 27.5166 11.0618 27.3936 11.2988C27.2705 11.5312 27.209 11.8001 27.209 12.1055V17H25.7256V11.9004C25.7256 11.4902 25.5934 11.1621 25.3291 10.916C25.0693 10.6699 24.7367 10.5469 24.3311 10.5469C24.0531 10.5469 23.7933 10.613 23.5518 10.7451C23.3148 10.8727 23.1234 11.0641 22.9775 11.3193C22.8363 11.57 22.7656 11.8799 22.7656 12.249V17H21.2617ZM36.998 17.1572C36.2461 17.1572 35.5967 16.9954 35.0498 16.6719C34.5029 16.3483 34.0814 15.8926 33.7852 15.3047C33.4935 14.7168 33.3477 14.0264 33.3477 13.2334C33.3477 12.4495 33.4912 11.7591 33.7783 11.1621C34.07 10.5651 34.4801 10.1003 35.0088 9.76758C35.5374 9.43034 36.1572 9.26172 36.8682 9.26172C37.3057 9.26172 37.7272 9.33464 38.1328 9.48047C38.5384 9.62174 38.903 9.84505 39.2266 10.1504C39.5501 10.4557 39.8053 10.8522 39.9922 11.3398C40.1836 11.8229 40.2793 12.4108 40.2793 13.1035V13.6367H34.1885V12.5156H39.5068L38.8027 12.8848C38.8027 12.4154 38.7298 12.0029 38.584 11.6475C38.4382 11.2874 38.2217 11.0072 37.9346 10.8066C37.652 10.6061 37.2965 10.5059 36.8682 10.5059C36.4443 10.5059 36.082 10.6084 35.7812 10.8135C35.4805 11.0186 35.2503 11.2897 35.0908 11.627C34.9359 11.9596 34.8584 12.3242 34.8584 12.7207V13.4863C34.8584 14.0104 34.9473 14.4548 35.125 14.8193C35.3073 15.1794 35.5602 15.4528 35.8838 15.6396C36.2074 15.8219 36.5833 15.9131 37.0117 15.9131C37.2943 15.9131 37.5495 15.8743 37.7773 15.7969C38.0052 15.7148 38.2012 15.5941 38.3652 15.4346C38.5339 15.2705 38.6615 15.07 38.748 14.833L40.1631 15.168C40.04 15.5599 39.8327 15.9062 39.541 16.207C39.2539 16.5078 38.8939 16.7425 38.4609 16.9111C38.0326 17.0752 37.5449 17.1572 36.998 17.1572Z" fill="#111827"/>
<g clip-path="url(#clip0_3945_133010)">
<rect x="1" y="28" width="240" height="36" rx="4" fill="white"/>
<path d="M230 43.5L225 48.5L220 43.5" stroke="#111827" stroke-linecap="round" stroke-linejoin="round"/>
</g>
<rect x="1" y="28" width="240" height="36" rx="4" stroke="#E4E4E7"/>
<rect x="1.5" y="84.5" width="109" height="103" rx="3.5" fill="white"/>
<rect x="1.5" y="84.5" width="109" height="103" rx="3.5" stroke="#E4E4E7"/>
<path d="M53.0162 107.563C54.4589 105.962 55.6815 104.36 55.9504 104.017C55.9749 103.994 56.0238 103.994 56.0482 104.017C56.2927 104.36 57.5398 105.962 58.9824 107.563C71.306 122.273 57.0507 132.202 57.0507 132.202L56.9285 132.271C56.8307 133.804 56.5617 136 56.5617 136H56.0238H55.4858C55.4858 136 55.2169 133.804 55.1191 132.271L54.9968 132.179C54.9479 132.202 40.6927 122.273 53.0162 107.563ZM55.9993 131.974C55.9993 131.974 56.6351 131.47 56.8062 131.196V131.173L56.0238 115.159C56.0238 115.113 55.9504 115.113 55.9504 115.159L55.168 131.173V131.196C55.3391 131.47 55.9993 131.974 55.9993 131.974Z" fill="#111827"/>
<path d="M23.6279 163V152.814H25.9248L28.1465 158.659C28.2103 158.832 28.2809 159.051 28.3584 159.315C28.4404 159.58 28.5247 159.867 28.6113 160.177C28.6979 160.487 28.7799 160.792 28.8574 161.093C28.9349 161.394 29.0033 161.665 29.0625 161.906H28.7344C28.7936 161.678 28.862 161.416 28.9395 161.12C29.0169 160.819 29.099 160.514 29.1855 160.204C29.2721 159.894 29.3564 159.603 29.4385 159.329C29.5205 159.056 29.5934 158.832 29.6572 158.659L31.8447 152.814H34.1553V163H32.6035V157.518C32.6035 157.308 32.6058 157.057 32.6104 156.766C32.6149 156.474 32.6195 156.166 32.624 155.843C32.6331 155.515 32.64 155.184 32.6445 154.852C32.6536 154.519 32.6605 154.2 32.665 153.895H32.7812C32.6901 154.227 32.5898 154.571 32.4805 154.927C32.3757 155.278 32.2708 155.617 32.166 155.945C32.0658 156.273 31.9678 156.574 31.8721 156.848C31.7809 157.117 31.7035 157.34 31.6396 157.518L29.5547 163H28.2217L26.1094 157.518C26.041 157.344 25.9613 157.126 25.8701 156.861C25.7835 156.592 25.6878 156.296 25.583 155.973C25.4782 155.645 25.3711 155.305 25.2617 154.954C25.1523 154.599 25.043 154.245 24.9336 153.895H25.0703C25.0794 154.173 25.0863 154.476 25.0908 154.804C25.0999 155.127 25.1068 155.455 25.1113 155.788C25.1204 156.121 25.1273 156.438 25.1318 156.738C25.141 157.035 25.1455 157.294 25.1455 157.518V163H23.6279ZM39.5078 163.157C38.7923 163.157 38.1657 162.993 37.6279 162.665C37.0947 162.337 36.68 161.877 36.3838 161.284C36.0876 160.692 35.9395 160.004 35.9395 159.22C35.9395 158.427 36.0876 157.734 36.3838 157.142C36.68 156.545 37.0947 156.082 37.6279 155.754C38.1657 155.426 38.7923 155.262 39.5078 155.262C40.2279 155.262 40.8545 155.426 41.3877 155.754C41.9255 156.082 42.3424 156.545 42.6387 157.142C42.9349 157.734 43.083 158.427 43.083 159.22C43.083 160.004 42.9349 160.692 42.6387 161.284C42.3424 161.877 41.9255 162.337 41.3877 162.665C40.8545 162.993 40.2279 163.157 39.5078 163.157ZM39.5078 161.886C39.9727 161.886 40.3555 161.765 40.6562 161.523C40.9616 161.277 41.1872 160.954 41.333 160.553C41.4834 160.147 41.5586 159.703 41.5586 159.22C41.5586 158.732 41.4834 158.285 41.333 157.88C41.1872 157.47 40.9616 157.144 40.6562 156.902C40.3555 156.656 39.9727 156.533 39.5078 156.533C39.0475 156.533 38.667 156.656 38.3662 156.902C38.0654 157.144 37.8398 157.467 37.6895 157.873C37.5436 158.279 37.4707 158.728 37.4707 159.22C37.4707 159.703 37.5436 160.147 37.6895 160.553C37.8398 160.954 38.0654 161.277 38.3662 161.523C38.667 161.765 39.0475 161.886 39.5078 161.886ZM46.2617 158.475V163H44.7578V155.357H46.1934L46.207 157.23H46.0498C46.2731 156.547 46.5967 156.048 47.0205 155.733C47.4443 155.419 47.957 155.262 48.5586 155.262C49.0781 155.262 49.5316 155.371 49.9189 155.59C50.3063 155.809 50.6094 156.132 50.8281 156.561C51.0469 156.984 51.1562 157.513 51.1562 158.146V163H49.6523V158.331C49.6523 157.78 49.5088 157.349 49.2217 157.039C48.9346 156.729 48.5404 156.574 48.0391 156.574C47.7018 156.574 47.3988 156.649 47.1299 156.8C46.861 156.946 46.6491 157.16 46.4941 157.442C46.3392 157.725 46.2617 158.069 46.2617 158.475ZM56.3721 166.021C55.7842 166.021 55.2738 165.946 54.8408 165.796C54.4079 165.646 54.0501 165.445 53.7676 165.194C53.4896 164.944 53.2777 164.666 53.1318 164.36L54.3896 163.766C54.4808 163.911 54.6016 164.064 54.752 164.224C54.9069 164.388 55.1143 164.527 55.374 164.641C55.6338 164.755 55.9665 164.812 56.3721 164.812C56.9554 164.812 57.4271 164.673 57.7871 164.395C58.1517 164.121 58.334 163.69 58.334 163.103V161.612H58.2041C58.113 161.781 57.9854 161.963 57.8213 162.159C57.6618 162.355 57.4362 162.526 57.1445 162.672C56.8574 162.813 56.4814 162.884 56.0166 162.884C55.415 162.884 54.8727 162.743 54.3896 162.46C53.9111 162.177 53.5306 161.758 53.248 161.202C52.9655 160.646 52.8242 159.963 52.8242 159.151C52.8242 158.34 52.9632 157.645 53.2412 157.066C53.5238 156.483 53.9066 156.036 54.3896 155.727C54.8773 155.417 55.4264 155.262 56.0371 155.262C56.5065 155.262 56.887 155.339 57.1787 155.494C57.4749 155.649 57.7051 155.834 57.8691 156.048C58.0378 156.257 58.1654 156.442 58.252 156.602H58.3613V155.357H59.8311V163.109C59.8311 163.779 59.6784 164.328 59.373 164.757C59.0723 165.19 58.6598 165.509 58.1357 165.714C57.6162 165.919 57.0283 166.021 56.3721 166.021ZM56.3652 161.633C56.7936 161.633 57.1536 161.535 57.4453 161.339C57.7415 161.138 57.9648 160.851 58.1152 160.478C58.2656 160.099 58.3408 159.65 58.3408 159.131C58.3408 158.616 58.2656 158.165 58.1152 157.777C57.9648 157.39 57.7415 157.087 57.4453 156.868C57.1536 156.649 56.7936 156.54 56.3652 156.54C55.9232 156.54 55.554 156.656 55.2578 156.889C54.9616 157.117 54.7383 157.426 54.5879 157.818C54.4375 158.206 54.3623 158.643 54.3623 159.131C54.3623 159.628 54.4375 160.065 54.5879 160.443C54.7383 160.817 54.9616 161.109 55.2578 161.318C55.5586 161.528 55.9277 161.633 56.3652 161.633ZM65.0742 163.157C64.3587 163.157 63.7321 162.993 63.1943 162.665C62.6611 162.337 62.2464 161.877 61.9502 161.284C61.654 160.692 61.5059 160.004 61.5059 159.22C61.5059 158.427 61.654 157.734 61.9502 157.142C62.2464 156.545 62.6611 156.082 63.1943 155.754C63.7321 155.426 64.3587 155.262 65.0742 155.262C65.7943 155.262 66.4209 155.426 66.9541 155.754C67.4919 156.082 67.9089 156.545 68.2051 157.142C68.5013 157.734 68.6494 158.427 68.6494 159.22C68.6494 160.004 68.5013 160.692 68.2051 161.284C67.9089 161.877 67.4919 162.337 66.9541 162.665C66.4209 162.993 65.7943 163.157 65.0742 163.157ZM65.0742 161.886C65.5391 161.886 65.9219 161.765 66.2227 161.523C66.528 161.277 66.7536 160.954 66.8994 160.553C67.0498 160.147 67.125 159.703 67.125 159.22C67.125 158.732 67.0498 158.285 66.8994 157.88C66.7536 157.47 66.528 157.144 66.2227 156.902C65.9219 156.656 65.5391 156.533 65.0742 156.533C64.6139 156.533 64.2334 156.656 63.9326 156.902C63.6318 157.144 63.4062 157.467 63.2559 157.873C63.11 158.279 63.0371 158.728 63.0371 159.22C63.0371 159.703 63.11 160.147 63.2559 160.553C63.4062 160.954 63.6318 161.277 63.9326 161.523C64.2334 161.765 64.6139 161.886 65.0742 161.886ZM73.749 163H71.2334V161.633H73.667C74.4372 161.633 75.0775 161.489 75.5879 161.202C76.0983 160.915 76.4811 160.493 76.7363 159.938C76.9915 159.377 77.1191 158.696 77.1191 157.894C77.1191 157.096 76.9915 156.422 76.7363 155.87C76.4857 155.319 76.1097 154.899 75.6084 154.612C75.1117 154.325 74.4919 154.182 73.749 154.182H71.1787V152.814H73.8516C74.8542 152.814 75.7132 153.017 76.4287 153.423C77.1442 153.828 77.6934 154.412 78.0762 155.173C78.459 155.929 78.6504 156.836 78.6504 157.894C78.6504 158.955 78.4567 159.867 78.0693 160.628C77.6865 161.389 77.1283 161.975 76.3945 162.385C75.6654 162.795 74.7835 163 73.749 163ZM71.999 152.814V163H70.4404V152.814H71.999ZM80.5439 163V152.814H84.2969C85.0215 152.814 85.6208 152.933 86.0947 153.17C86.5687 153.407 86.9219 153.728 87.1543 154.134C87.3867 154.535 87.5029 154.986 87.5029 155.487C87.5029 155.911 87.4255 156.269 87.2705 156.561C87.1156 156.848 86.9059 157.08 86.6416 157.258C86.3818 157.431 86.0947 157.559 85.7803 157.641V157.743C86.1221 157.757 86.4548 157.866 86.7783 158.071C87.1019 158.272 87.3685 158.557 87.5781 158.926C87.7923 159.29 87.8994 159.735 87.8994 160.259C87.8994 160.774 87.7764 161.239 87.5303 161.653C87.2887 162.068 86.915 162.396 86.4092 162.638C85.9033 162.879 85.2539 163 84.4609 163H80.5439ZM82.1025 161.66H84.3037C85.0329 161.66 85.557 161.519 85.876 161.236C86.195 160.954 86.3545 160.603 86.3545 160.184C86.3545 159.855 86.2725 159.559 86.1084 159.295C85.9489 159.031 85.721 158.821 85.4248 158.666C85.1286 158.507 84.7754 158.427 84.3652 158.427H82.1025V161.66ZM82.1025 157.224H84.1465C84.4883 157.224 84.7982 157.158 85.0762 157.025C85.3542 156.893 85.5729 156.706 85.7324 156.465C85.8919 156.223 85.9717 155.941 85.9717 155.617C85.9717 155.198 85.8258 154.849 85.5342 154.571C85.2425 154.289 84.7936 154.147 84.1875 154.147H82.1025V157.224Z" fill="#111827"/>
<rect x="131.5" y="84.5" width="109" height="103" rx="3.5" fill="white"/>
<rect x="131.5" y="84.5" width="109" height="103" rx="3.5" stroke="#E4E4E7"/>
<path d="M184.275 107.151C184.275 107.163 184.425 107.444 184.613 107.794C184.8 108.138 184.931 108.432 184.913 108.451C184.894 108.463 184.369 108.663 183.75 108.882C183.125 109.107 182.631 109.294 182.638 109.301C182.644 109.307 183.35 109.382 184.2 109.463C185.225 109.557 185.763 109.626 185.8 109.669C185.831 109.701 186.069 110.082 186.325 110.507L186.788 111.282L186.869 111.088C186.913 110.988 187.056 110.644 187.181 110.338L187.413 109.782L188.644 109.651C189.319 109.576 189.919 109.519 189.981 109.519L190.088 109.476C190.088 109.457 189.631 109.269 189.069 109.057C188.513 108.851 188.05 108.669 188.05 108.663C188.05 108.657 188.169 108.363 188.319 108.007C188.463 107.651 188.575 107.351 188.569 107.344C188.556 107.332 188.081 107.476 187.519 107.657L186.5 107.994L185.406 107.563C184.331 107.138 184.275 107.119 184.275 107.151ZM191.063 110.844C189.756 111.363 188.681 111.794 188.675 111.807C188.663 111.819 189.638 112.213 190.838 112.688L193.013 113.544L193.244 113.45C195.669 112.507 197.869 111.632 197.862 111.619L193.494 109.901C193.45 109.907 192.363 110.326 191.063 110.844ZM178.525 110.338C177.269 110.469 176.219 110.832 175.775 111.294C175.469 111.607 175.419 111.876 175.613 112.201C175.894 112.688 176.819 113.094 178.094 113.3C178.669 113.4 180.35 113.382 180.931 113.282C182.294 113.044 183.181 112.607 183.388 112.057C183.463 111.851 183.463 111.826 183.388 111.626C183.181 111.094 182.313 110.651 181.025 110.426C180.375 110.319 179.163 110.276 178.525 110.338ZM201.856 111.851C201.794 111.932 201.562 112.119 201.337 112.269C200.675 112.694 199.825 113.082 194.519 115.369C190.788 116.969 189.838 117.394 188.55 118.013C187.119 118.694 186.525 118.888 185.806 118.888C185.163 118.888 184.775 118.775 183.575 118.244C183.094 118.032 181.125 117.207 179.206 116.407C170.8 112.913 170.644 112.838 170.194 112.351L170.007 112.144V115.438L170.219 115.644C170.425 115.844 171.119 116.263 171.363 116.332C171.432 116.35 171.888 116.538 172.382 116.75C172.875 116.963 175.288 117.975 177.744 119C181.806 120.694 182.731 121.082 184.119 121.688C184.85 122.013 185.256 122.094 185.95 122.069C186.456 122.05 186.606 122.019 187.05 121.869C187.338 121.775 187.831 121.563 188.15 121.4C189.206 120.869 190.481 120.307 195.563 118.119C200.344 116.057 200.969 115.769 201.487 115.413C202.019 115.032 202 115.125 202 113.288C202 112.407 201.994 111.688 201.987 111.688L201.856 111.851ZM185.119 114C183.163 114.3 181.544 114.557 181.513 114.569C181.469 114.582 186.388 116.65 186.594 116.707L188.844 113.475C188.838 113.432 188.844 113.425 185.119 114ZM201.887 117.275C201.844 117.35 201.637 117.525 201.444 117.669C200.806 118.107 199.85 118.544 194.038 121.044C190.694 122.488 189.644 122.95 188.65 123.432C187.038 124.213 186.65 124.338 185.788 124.338C185.119 124.332 184.706 124.225 183.819 123.825C182.963 123.432 182.006 123.032 178.169 121.438C171.475 118.663 170.707 118.313 170.232 117.857L170 117.638V120.888L170.263 121.138C170.688 121.538 170.644 121.513 177.819 124.5C180.45 125.594 182.931 126.638 183.331 126.819C184.388 127.294 184.694 127.407 185.113 127.494C186.088 127.694 186.813 127.532 188.394 126.763C189.425 126.263 190.681 125.707 193.725 124.394C199.512 121.9 200.937 121.257 201.362 120.975C201.512 120.869 201.719 120.7 201.819 120.588L202 120.388V118.763C202 117.869 201.994 117.138 201.987 117.138L201.887 117.275ZM201.831 122.6C201.45 123.082 200.681 123.45 194.713 126.019C190.819 127.7 189.631 128.225 188.35 128.832C187.006 129.469 186.563 129.607 185.788 129.607C185.256 129.607 184.719 129.482 184.125 129.219C182.731 128.607 181.813 128.219 177.744 126.525C173.119 124.6 171.638 123.969 171.144 123.725C170.682 123.494 170.213 123.163 170.107 122.994L170 122.838V124.494C170 126.394 169.969 126.25 170.475 126.594C171.038 126.969 171.875 127.344 177.432 129.65C181.313 131.263 182.713 131.85 183.4 132.163C184.806 132.794 185.181 132.894 185.969 132.85C186.688 132.819 187.156 132.663 188.4 132.069C189.694 131.45 190.65 131.019 194.881 129.2C200.756 126.669 201.394 126.363 201.837 125.85L201.994 125.675V124.057C201.994 123.163 201.987 122.432 201.981 122.432L201.831 122.6Z" fill="#111827"/>
<path d="M168.628 163V152.814H172.278C173.062 152.814 173.716 152.951 174.24 153.225C174.764 153.493 175.156 153.869 175.416 154.353C175.676 154.836 175.806 155.389 175.806 156.014C175.806 156.643 175.674 157.194 175.409 157.668C175.149 158.137 174.757 158.502 174.233 158.762C173.709 159.021 173.053 159.151 172.265 159.151H169.523V157.818H172.114C172.616 157.818 173.019 157.748 173.324 157.606C173.634 157.461 173.862 157.253 174.008 156.984C174.154 156.715 174.227 156.392 174.227 156.014C174.227 155.631 174.154 155.3 174.008 155.022C173.862 154.744 173.634 154.53 173.324 154.38C173.014 154.225 172.606 154.147 172.101 154.147H170.187V163H168.628ZM174.418 163L171.95 158.399H173.68L176.188 163H174.418ZM180.693 163.157C179.941 163.157 179.292 162.995 178.745 162.672C178.198 162.348 177.777 161.893 177.48 161.305C177.189 160.717 177.043 160.026 177.043 159.233C177.043 158.45 177.187 157.759 177.474 157.162C177.765 156.565 178.175 156.1 178.704 155.768C179.233 155.43 179.853 155.262 180.563 155.262C181.001 155.262 181.423 155.335 181.828 155.48C182.234 155.622 182.598 155.845 182.922 156.15C183.245 156.456 183.501 156.852 183.688 157.34C183.879 157.823 183.975 158.411 183.975 159.104V159.637H177.884V158.516H183.202L182.498 158.885C182.498 158.415 182.425 158.003 182.279 157.647C182.133 157.287 181.917 157.007 181.63 156.807C181.347 156.606 180.992 156.506 180.563 156.506C180.14 156.506 179.777 156.608 179.477 156.813C179.176 157.019 178.946 157.29 178.786 157.627C178.631 157.96 178.554 158.324 178.554 158.721V159.486C178.554 160.01 178.643 160.455 178.82 160.819C179.003 161.179 179.256 161.453 179.579 161.64C179.903 161.822 180.279 161.913 180.707 161.913C180.99 161.913 181.245 161.874 181.473 161.797C181.701 161.715 181.896 161.594 182.061 161.435C182.229 161.271 182.357 161.07 182.443 160.833L183.858 161.168C183.735 161.56 183.528 161.906 183.236 162.207C182.949 162.508 182.589 162.743 182.156 162.911C181.728 163.075 181.24 163.157 180.693 163.157ZM188.473 163.15C187.853 163.15 187.301 162.993 186.818 162.679C186.335 162.36 185.957 161.906 185.684 161.318C185.41 160.726 185.273 160.02 185.273 159.199C185.273 158.37 185.412 157.661 185.69 157.073C185.968 156.485 186.349 156.036 186.832 155.727C187.315 155.417 187.862 155.262 188.473 155.262C188.947 155.262 189.327 155.341 189.614 155.501C189.906 155.656 190.134 155.838 190.298 156.048C190.462 156.257 190.587 156.442 190.674 156.602H190.756V152.814H192.26V163H190.797V161.804H190.674C190.587 161.968 190.46 162.155 190.291 162.364C190.122 162.574 189.892 162.758 189.601 162.918C189.309 163.073 188.933 163.15 188.473 163.15ZM188.801 161.872C189.229 161.872 189.589 161.758 189.881 161.53C190.177 161.302 190.4 160.988 190.551 160.587C190.706 160.181 190.783 159.714 190.783 159.186C190.783 158.652 190.708 158.19 190.558 157.798C190.407 157.401 190.184 157.094 189.888 156.875C189.596 156.652 189.234 156.54 188.801 156.54C188.359 156.54 187.99 156.656 187.693 156.889C187.402 157.121 187.181 157.438 187.03 157.839C186.884 158.235 186.812 158.684 186.812 159.186C186.812 159.691 186.887 160.147 187.037 160.553C187.188 160.958 187.411 161.28 187.707 161.517C188.003 161.754 188.368 161.872 188.801 161.872ZM194.283 163V155.357H195.787V163H194.283ZM195.042 154.188C194.782 154.188 194.559 154.102 194.372 153.929C194.19 153.756 194.099 153.546 194.099 153.3C194.099 153.049 194.19 152.837 194.372 152.664C194.559 152.491 194.782 152.404 195.042 152.404C195.302 152.404 195.525 152.491 195.712 152.664C195.899 152.837 195.992 153.049 195.992 153.3C195.992 153.546 195.899 153.756 195.712 153.929C195.525 154.102 195.302 154.188 195.042 154.188ZM200.552 163.157C200 163.157 199.508 163.077 199.075 162.918C198.647 162.758 198.294 162.524 198.016 162.214C197.742 161.899 197.56 161.517 197.469 161.065L198.884 160.771C198.989 161.168 199.185 161.462 199.472 161.653C199.759 161.845 200.123 161.94 200.565 161.94C201.049 161.94 201.434 161.84 201.721 161.64C202.008 161.435 202.151 161.191 202.151 160.908C202.151 160.662 202.062 160.459 201.885 160.3C201.712 160.14 201.443 160.022 201.078 159.944L199.793 159.65C199.082 159.491 198.553 159.236 198.207 158.885C197.861 158.534 197.688 158.085 197.688 157.538C197.688 157.082 197.815 156.684 198.07 156.342C198.326 156 198.674 155.736 199.116 155.549C199.558 155.357 200.069 155.262 200.647 155.262C201.199 155.262 201.671 155.341 202.062 155.501C202.454 155.66 202.771 155.884 203.013 156.171C203.259 156.458 203.434 156.791 203.539 157.169L202.192 157.463C202.097 157.194 201.93 156.959 201.693 156.759C201.456 156.554 201.112 156.451 200.661 156.451C200.246 156.451 199.9 156.545 199.622 156.731C199.344 156.918 199.205 157.155 199.205 157.442C199.205 157.698 199.296 157.905 199.479 158.064C199.665 158.219 199.968 158.345 200.388 158.44L201.618 158.714C202.325 158.873 202.849 159.124 203.19 159.466C203.532 159.808 203.703 160.245 203.703 160.778C203.703 161.243 203.569 161.656 203.3 162.016C203.035 162.371 202.666 162.651 202.192 162.856C201.723 163.057 201.176 163.157 200.552 163.157Z" fill="#111827"/>
<rect x="1.5" y="208.5" width="109" height="103" rx="3.5" fill="white"/>
<rect x="1.5" y="208.5" width="109" height="103" rx="3.5" stroke="#E4E4E7"/>
<path d="M66.0001 247.5C66.0001 248.826 65.3014 249.476 64 249.499V249.5H48V249.499C46.6986 249.476 46 248.826 46 247.5C46 246.174 46.6986 245.524 48 245.501V245.5H64V245.501C65.3014 245.524 66.0001 246.174 66.0001 247.5ZM64 250.501V250.5H48V250.501C46.6986 250.524 46 251.174 46 252.5C46 253.826 46.6986 254.476 48 254.499V254.5H64V254.499C65.3013 254.476 66.0001 253.826 66.0001 252.5C66.0001 251.174 65.3014 250.524 64 250.501ZM69.0001 239.502V239.501C67.6987 239.524 67 240.174 67 241.5V252.5C67 253.826 67.6986 254.476 69.0001 254.499V254.497C70.952 254.428 72 252.478 72 248.5V243.5C72.0001 240.848 70.952 239.548 69.0001 239.502ZM43 239.501V239.502C41.048 239.548 40 240.848 40 243.5V248.5C40 252.478 41.048 254.428 43 254.497V254.499C44.3014 254.476 44.9999 253.826 44.9999 252.5V241.5C44.9999 240.174 44.3014 239.524 43 239.501ZM69.0001 238.5C69.0001 235.185 67.2533 233.56 64 233.503V233.5H48V233.503C44.7467 233.56 43 235.185 43 238.5V238.502C44.952 238.536 46 239.511 46 241.5C46 243.489 47.048 244.464 49 244.498V244.5H63V244.498C64.9521 244.464 66.0001 243.489 66.0001 241.5C66.0001 239.511 67.048 238.536 69.0001 238.502V238.5Z" fill="#111827"/>
<path d="M29.8594 287.137C28.9798 287.137 28.1937 286.929 27.501 286.515C26.8083 286.095 26.2637 285.496 25.8672 284.717C25.4707 283.933 25.2725 282.999 25.2725 281.914C25.2725 280.825 25.4707 279.891 25.8672 279.111C26.2637 278.327 26.8083 277.726 27.501 277.307C28.1937 276.887 28.9798 276.678 29.8594 276.678C30.3971 276.678 30.9007 276.755 31.3701 276.91C31.8441 277.065 32.2656 277.291 32.6348 277.587C33.0085 277.883 33.3161 278.243 33.5576 278.667C33.8037 279.091 33.9701 279.572 34.0566 280.109H32.4912C32.4274 279.786 32.3135 279.501 32.1494 279.255C31.9899 279.004 31.7939 278.792 31.5615 278.619C31.3291 278.446 31.0693 278.316 30.7822 278.229C30.4951 278.143 30.1921 278.1 29.873 278.1C29.2897 278.1 28.7656 278.248 28.3008 278.544C27.8405 278.836 27.4782 279.266 27.2139 279.836C26.9495 280.401 26.8174 281.094 26.8174 281.914C26.8174 282.734 26.9518 283.429 27.2207 283.999C27.4896 284.564 27.8542 284.993 28.3145 285.284C28.7747 285.571 29.2943 285.715 29.873 285.715C30.1921 285.715 30.4928 285.672 30.7754 285.585C31.0625 285.494 31.3223 285.364 31.5547 285.195C31.7917 285.022 31.9899 284.81 32.1494 284.56C32.3135 284.309 32.4274 284.024 32.4912 283.705H34.0635C33.986 284.206 33.8288 284.667 33.5918 285.086C33.3548 285.501 33.0518 285.863 32.6826 286.173C32.3135 286.483 31.8896 286.722 31.4111 286.891C30.9372 287.055 30.4199 287.137 29.8594 287.137ZM38.9922 287.157C38.2767 287.157 37.6501 286.993 37.1123 286.665C36.5791 286.337 36.1644 285.877 35.8682 285.284C35.5719 284.692 35.4238 284.004 35.4238 283.22C35.4238 282.427 35.5719 281.734 35.8682 281.142C36.1644 280.545 36.5791 280.082 37.1123 279.754C37.6501 279.426 38.2767 279.262 38.9922 279.262C39.7122 279.262 40.3389 279.426 40.8721 279.754C41.4098 280.082 41.8268 280.545 42.123 281.142C42.4193 281.734 42.5674 282.427 42.5674 283.22C42.5674 284.004 42.4193 284.692 42.123 285.284C41.8268 285.877 41.4098 286.337 40.8721 286.665C40.3389 286.993 39.7122 287.157 38.9922 287.157ZM38.9922 285.886C39.457 285.886 39.8398 285.765 40.1406 285.523C40.446 285.277 40.6715 284.954 40.8174 284.553C40.9678 284.147 41.043 283.703 41.043 283.22C41.043 282.732 40.9678 282.285 40.8174 281.88C40.6715 281.47 40.446 281.144 40.1406 280.902C39.8398 280.656 39.457 280.533 38.9922 280.533C38.5319 280.533 38.1514 280.656 37.8506 280.902C37.5498 281.144 37.3242 281.467 37.1738 281.873C37.028 282.279 36.9551 282.728 36.9551 283.22C36.9551 283.703 37.028 284.147 37.1738 284.553C37.3242 284.954 37.5498 285.277 37.8506 285.523C38.1514 285.765 38.5319 285.886 38.9922 285.886ZM46.8467 287.096C46.3271 287.096 45.8714 286.986 45.4795 286.768C45.0876 286.549 44.7822 286.225 44.5635 285.797C44.3493 285.368 44.2422 284.84 44.2422 284.211V279.357H45.7461V284.026C45.7461 284.578 45.8896 285.008 46.1768 285.318C46.4684 285.628 46.8626 285.783 47.3594 285.783C47.7012 285.783 48.0042 285.71 48.2686 285.564C48.5374 285.414 48.7493 285.198 48.9043 284.915C49.0592 284.628 49.1367 284.284 49.1367 283.883V279.357H50.6406V287H49.2051L49.1982 285.127H49.3418C49.1185 285.82 48.7926 286.321 48.3643 286.631C47.9359 286.941 47.43 287.096 46.8467 287.096ZM55.877 287.157C55.1569 287.157 54.5303 286.993 53.9971 286.665C53.4639 286.337 53.0492 285.877 52.7529 285.284C52.4567 284.692 52.3086 284.004 52.3086 283.22C52.3086 282.427 52.4567 281.734 52.7529 281.142C53.0492 280.545 53.4639 280.082 53.9971 279.754C54.5303 279.426 55.1569 279.262 55.877 279.262C56.2734 279.262 56.6449 279.314 56.9912 279.419C57.3376 279.519 57.6497 279.667 57.9277 279.863C58.2103 280.055 58.4473 280.292 58.6387 280.574C58.8346 280.852 58.9805 281.167 59.0762 281.518L57.6475 281.859C57.5973 281.663 57.5199 281.486 57.415 281.326C57.3102 281.162 57.1826 281.021 57.0322 280.902C56.8864 280.784 56.7155 280.693 56.5195 280.629C56.3281 280.565 56.1162 280.533 55.8838 280.533C55.4235 280.533 55.0407 280.656 54.7354 280.902C54.4346 281.144 54.209 281.467 54.0586 281.873C53.9128 282.279 53.8398 282.728 53.8398 283.22C53.8398 283.707 53.9128 284.154 54.0586 284.56C54.209 284.961 54.4346 285.282 54.7354 285.523C55.0407 285.765 55.4235 285.886 55.8838 285.886C56.1208 285.886 56.3372 285.854 56.5332 285.79C56.7292 285.722 56.9046 285.628 57.0596 285.51C57.2145 285.387 57.3444 285.241 57.4492 285.072C57.554 284.899 57.6292 284.71 57.6748 284.505L59.0967 284.847C59.0055 285.207 58.862 285.53 58.666 285.817C58.4701 286.1 58.2308 286.341 57.9482 286.542C57.6702 286.743 57.3558 286.895 57.0049 287C56.654 287.105 56.278 287.157 55.877 287.157ZM62.248 282.475V287H60.7441V276.814H62.2344V281.23H62.0361C62.2594 280.547 62.583 280.048 63.0068 279.733C63.4307 279.419 63.9434 279.262 64.5449 279.262C65.0645 279.262 65.5179 279.371 65.9053 279.59C66.2972 279.809 66.6003 280.132 66.8145 280.561C67.0332 280.984 67.1426 281.513 67.1426 282.146V287H65.6387V282.331C65.6387 281.78 65.4951 281.349 65.208 281.039C64.9209 280.729 64.5267 280.574 64.0254 280.574C63.6882 280.574 63.3851 280.649 63.1162 280.8C62.8473 280.946 62.6354 281.16 62.4805 281.442C62.3255 281.725 62.248 282.069 62.248 282.475ZM72.5908 287H70.0752V285.633H72.5088C73.279 285.633 73.9193 285.489 74.4297 285.202C74.9401 284.915 75.3229 284.493 75.5781 283.938C75.8333 283.377 75.9609 282.696 75.9609 281.894C75.9609 281.096 75.8333 280.422 75.5781 279.87C75.3275 279.319 74.9515 278.899 74.4502 278.612C73.9535 278.325 73.3337 278.182 72.5908 278.182H70.0205V276.814H72.6934C73.696 276.814 74.555 277.017 75.2705 277.423C75.986 277.828 76.5352 278.412 76.918 279.173C77.3008 279.929 77.4922 280.836 77.4922 281.894C77.4922 282.955 77.2985 283.867 76.9111 284.628C76.5283 285.389 75.9701 285.975 75.2363 286.385C74.5072 286.795 73.6253 287 72.5908 287ZM70.8408 276.814V287H69.2822V276.814H70.8408ZM79.3857 287V276.814H83.1387C83.8633 276.814 84.4626 276.933 84.9365 277.17C85.4105 277.407 85.7637 277.728 85.9961 278.134C86.2285 278.535 86.3447 278.986 86.3447 279.487C86.3447 279.911 86.2673 280.269 86.1123 280.561C85.9574 280.848 85.7477 281.08 85.4834 281.258C85.2236 281.431 84.9365 281.559 84.6221 281.641V281.743C84.9639 281.757 85.2965 281.866 85.6201 282.071C85.9437 282.272 86.2103 282.557 86.4199 282.926C86.6341 283.29 86.7412 283.735 86.7412 284.259C86.7412 284.774 86.6182 285.239 86.3721 285.653C86.1305 286.068 85.7568 286.396 85.251 286.638C84.7451 286.879 84.0957 287 83.3027 287H79.3857ZM80.9443 285.66H83.1455C83.8747 285.66 84.3988 285.519 84.7178 285.236C85.0368 284.954 85.1963 284.603 85.1963 284.184C85.1963 283.855 85.1143 283.559 84.9502 283.295C84.7907 283.031 84.5628 282.821 84.2666 282.666C83.9704 282.507 83.6172 282.427 83.207 282.427H80.9443V285.66ZM80.9443 281.224H82.9883C83.3301 281.224 83.64 281.158 83.918 281.025C84.196 280.893 84.4147 280.706 84.5742 280.465C84.7337 280.223 84.8135 279.941 84.8135 279.617C84.8135 279.198 84.6676 278.849 84.376 278.571C84.0843 278.289 83.6354 278.147 83.0293 278.147H80.9443V281.224Z" fill="#111827"/>
<rect x="131.5" y="208.5" width="109" height="103" rx="3.5" fill="white"/>
<rect x="131.5" y="208.5" width="109" height="103" rx="3.5" stroke="#E4E4E7"/>
<path d="M201.857 233.693C201.77 233.619 201.66 233.581 201.547 233.584C201.237 233.584 200.838 233.793 200.624 233.911L200.538 233.955C200.177 234.129 199.785 234.228 199.384 234.245C198.974 234.258 198.621 234.282 198.16 234.329C195.432 234.61 194.216 236.701 193.044 238.723C192.407 239.822 191.748 240.959 190.845 241.84C190.657 242.021 190.458 242.189 190.249 242.345C189.314 243.042 188.14 243.534 187.222 243.885C186.342 244.221 185.383 244.524 184.454 244.816C183.605 245.083 182.802 245.335 182.065 245.61C181.732 245.734 181.45 245.829 181.2 245.912C180.529 246.13 180.043 246.297 179.336 246.784C179.06 246.973 178.783 247.177 178.594 247.33C178.032 247.778 177.535 248.302 177.117 248.887C176.757 249.427 176.341 249.927 175.876 250.38C175.728 250.527 175.462 250.599 175.066 250.599C174.6 250.599 174.037 250.503 173.439 250.401C172.841 250.3 172.189 250.183 171.643 250.183C171.199 250.183 170.861 250.255 170.607 250.401C170.607 250.401 170.181 250.65 170 250.972L170.177 251.051C170.451 251.2 170.705 251.384 170.933 251.597C171.169 251.817 171.432 252.005 171.717 252.156C171.809 252.19 171.892 252.244 171.962 252.314C171.886 252.423 171.777 252.564 171.663 252.714C171.033 253.538 170.667 254.058 170.877 254.342C170.978 254.395 171.091 254.42 171.205 254.416C172.578 254.416 173.315 254.059 174.249 253.608C174.518 253.477 174.794 253.342 175.121 253.204C175.667 252.967 176.254 252.59 176.876 252.191C177.7 251.661 178.552 251.114 179.377 250.849C180.056 250.641 180.764 250.542 181.475 250.554C182.347 250.554 183.266 250.671 184.152 250.784C184.813 250.869 185.496 250.957 186.167 251.002C186.428 251.018 186.669 251.025 186.905 251.025C187.219 251.026 187.532 251.01 187.844 250.976L187.918 250.95C188.39 250.661 188.61 250.04 188.823 249.44C188.96 249.054 189.076 248.707 189.259 248.486C189.27 248.475 189.282 248.465 189.295 248.457C189.304 248.452 189.314 248.45 189.324 248.452C189.333 248.454 189.342 248.458 189.349 248.466C189.351 248.471 189.351 248.477 189.349 248.483C189.24 250.83 188.294 252.319 187.339 253.644L186.691 254.324C186.691 254.324 187.583 254.324 188.092 254.127C189.947 253.573 191.348 252.351 192.367 250.402C192.618 249.902 192.842 249.389 193.039 248.865C193.056 248.821 193.218 248.741 193.201 248.966C193.201 249.033 193.193 249.107 193.187 249.185C193.187 249.23 193.181 249.277 193.178 249.324C193.151 249.652 193.069 250.343 193.069 250.343L193.642 250.037C195.023 249.164 196.088 247.403 196.896 244.663C197.233 243.522 197.478 242.388 197.695 241.39C197.955 240.19 198.179 239.161 198.435 238.762C198.838 238.136 199.452 237.712 200.047 237.301C200.128 237.245 200.209 237.192 200.289 237.133C201.037 236.608 201.78 236.003 201.943 234.873V234.848C202.067 234.006 201.966 233.796 201.857 233.693Z" fill="#111827"/>
<path d="M155.628 287V276.814H157.925L160.146 282.659C160.21 282.832 160.281 283.051 160.358 283.315C160.44 283.58 160.525 283.867 160.611 284.177C160.698 284.487 160.78 284.792 160.857 285.093C160.935 285.394 161.003 285.665 161.062 285.906H160.734C160.794 285.678 160.862 285.416 160.939 285.12C161.017 284.819 161.099 284.514 161.186 284.204C161.272 283.894 161.356 283.603 161.438 283.329C161.521 283.056 161.593 282.832 161.657 282.659L163.845 276.814H166.155V287H164.604V281.518C164.604 281.308 164.606 281.057 164.61 280.766C164.615 280.474 164.619 280.166 164.624 279.843C164.633 279.515 164.64 279.184 164.645 278.852C164.654 278.519 164.66 278.2 164.665 277.895H164.781C164.69 278.227 164.59 278.571 164.48 278.927C164.376 279.278 164.271 279.617 164.166 279.945C164.066 280.273 163.968 280.574 163.872 280.848C163.781 281.117 163.703 281.34 163.64 281.518L161.555 287H160.222L158.109 281.518C158.041 281.344 157.961 281.126 157.87 280.861C157.784 280.592 157.688 280.296 157.583 279.973C157.478 279.645 157.371 279.305 157.262 278.954C157.152 278.599 157.043 278.245 156.934 277.895H157.07C157.079 278.173 157.086 278.476 157.091 278.804C157.1 279.127 157.107 279.455 157.111 279.788C157.12 280.121 157.127 280.438 157.132 280.738C157.141 281.035 157.146 281.294 157.146 281.518V287H155.628ZM171.132 287.15C170.517 287.15 169.967 286.993 169.484 286.679C169.006 286.36 168.628 285.906 168.35 285.318C168.076 284.726 167.939 284.02 167.939 283.199C167.939 282.37 168.078 281.661 168.356 281.073C168.639 280.485 169.022 280.036 169.505 279.727C169.993 279.417 170.542 279.262 171.152 279.262C171.622 279.262 172 279.339 172.287 279.494C172.579 279.649 172.804 279.834 172.964 280.048C173.128 280.257 173.253 280.442 173.34 280.602H173.436V279.357H174.926V287H173.442V285.804H173.34C173.253 285.968 173.126 286.157 172.957 286.371C172.788 286.581 172.558 286.763 172.267 286.918C171.975 287.073 171.597 287.15 171.132 287.15ZM171.48 285.872C171.909 285.872 172.269 285.758 172.561 285.53C172.857 285.302 173.08 284.988 173.23 284.587C173.381 284.181 173.456 283.714 173.456 283.186C173.456 282.652 173.381 282.19 173.23 281.798C173.08 281.401 172.857 281.094 172.561 280.875C172.269 280.652 171.909 280.54 171.48 280.54C171.038 280.54 170.669 280.656 170.373 280.889C170.077 281.117 169.854 281.431 169.703 281.832C169.553 282.229 169.478 282.68 169.478 283.186C169.478 283.691 169.553 284.147 169.703 284.553C169.854 284.958 170.077 285.28 170.373 285.517C170.674 285.754 171.043 285.872 171.48 285.872ZM176.949 287V279.357H178.405V280.588H178.487C178.629 280.169 178.875 279.84 179.226 279.604C179.576 279.367 179.975 279.248 180.422 279.248C180.518 279.248 180.627 279.253 180.75 279.262C180.873 279.266 180.976 279.275 181.058 279.289V280.725C181.003 280.706 180.898 280.688 180.743 280.67C180.588 280.652 180.431 280.643 180.271 280.643C179.925 280.643 179.613 280.715 179.335 280.861C179.057 281.007 178.84 281.21 178.686 281.47C178.531 281.725 178.453 282.021 178.453 282.358V287H176.949ZM182.541 287V279.357H184.045V287H182.541ZM183.3 278.188C183.04 278.188 182.817 278.102 182.63 277.929C182.448 277.756 182.356 277.546 182.356 277.3C182.356 277.049 182.448 276.837 182.63 276.664C182.817 276.491 183.04 276.404 183.3 276.404C183.56 276.404 183.783 276.491 183.97 276.664C184.157 276.837 184.25 277.049 184.25 277.3C184.25 277.546 184.157 277.756 183.97 277.929C183.783 278.102 183.56 278.188 183.3 278.188ZM188.905 287.15C188.29 287.15 187.741 286.993 187.258 286.679C186.779 286.36 186.401 285.906 186.123 285.318C185.85 284.726 185.713 284.02 185.713 283.199C185.713 282.37 185.852 281.661 186.13 281.073C186.412 280.485 186.795 280.036 187.278 279.727C187.766 279.417 188.315 279.262 188.926 279.262C189.395 279.262 189.773 279.339 190.061 279.494C190.352 279.649 190.578 279.834 190.737 280.048C190.901 280.257 191.027 280.442 191.113 280.602H191.209V279.357H192.699V287H191.216V285.804H191.113C191.027 285.968 190.899 286.157 190.73 286.371C190.562 286.581 190.332 286.763 190.04 286.918C189.748 287.073 189.37 287.15 188.905 287.15ZM189.254 285.872C189.682 285.872 190.042 285.758 190.334 285.53C190.63 285.302 190.854 284.988 191.004 284.587C191.154 284.181 191.229 283.714 191.229 283.186C191.229 282.652 191.154 282.19 191.004 281.798C190.854 281.401 190.63 281.094 190.334 280.875C190.042 280.652 189.682 280.54 189.254 280.54C188.812 280.54 188.443 280.656 188.146 280.889C187.85 281.117 187.627 281.431 187.477 281.832C187.326 282.229 187.251 282.68 187.251 283.186C187.251 283.691 187.326 284.147 187.477 284.553C187.627 284.958 187.85 285.28 188.146 285.517C188.447 285.754 188.816 285.872 189.254 285.872ZM201.88 287H199.364V285.633H201.798C202.568 285.633 203.208 285.489 203.719 285.202C204.229 284.915 204.612 284.493 204.867 283.938C205.122 283.377 205.25 282.696 205.25 281.894C205.25 281.096 205.122 280.422 204.867 279.87C204.617 279.319 204.241 278.899 203.739 278.612C203.243 278.325 202.623 278.182 201.88 278.182H199.31V276.814H201.982C202.985 276.814 203.844 277.017 204.56 277.423C205.275 277.828 205.824 278.412 206.207 279.173C206.59 279.929 206.781 280.836 206.781 281.894C206.781 282.955 206.588 283.867 206.2 284.628C205.817 285.389 205.259 285.975 204.525 286.385C203.796 286.795 202.914 287 201.88 287ZM200.13 276.814V287H198.571V276.814H200.13ZM208.675 287V276.814H212.428C213.152 276.814 213.752 276.933 214.226 277.17C214.7 277.407 215.053 277.728 215.285 278.134C215.518 278.535 215.634 278.986 215.634 279.487C215.634 279.911 215.556 280.269 215.401 280.561C215.246 280.848 215.037 281.08 214.772 281.258C214.513 281.431 214.226 281.559 213.911 281.641V281.743C214.253 281.757 214.586 281.866 214.909 282.071C215.233 282.272 215.499 282.557 215.709 282.926C215.923 283.29 216.03 283.735 216.03 284.259C216.03 284.774 215.907 285.239 215.661 285.653C215.42 286.068 215.046 286.396 214.54 286.638C214.034 286.879 213.385 287 212.592 287H208.675ZM210.233 285.66H212.435C213.164 285.66 213.688 285.519 214.007 285.236C214.326 284.954 214.485 284.603 214.485 284.184C214.485 283.855 214.403 283.559 214.239 283.295C214.08 283.031 213.852 282.821 213.556 282.666C213.259 282.507 212.906 282.427 212.496 282.427H210.233V285.66ZM210.233 281.224H212.277C212.619 281.224 212.929 281.158 213.207 281.025C213.485 280.893 213.704 280.706 213.863 280.465C214.023 280.223 214.103 279.941 214.103 279.617C214.103 279.198 213.957 278.849 213.665 278.571C213.373 278.289 212.924 278.147 212.318 278.147H210.233V281.224Z" fill="#111827"/>
<defs>
<clipPath id="clip0_3945_133010">
<rect x="1" y="28" width="240" height="36" rx="4" fill="white"/>
</clipPath>
</defs>
</svg>
