<svg width="1440" height="901" viewBox="0 0 1440 901" fill="none" xmlns="http://www.w3.org/2000/svg">
<path d="M1176.17 -64.8669L369.64 400.783M1204.6 -48.4521L398.071 417.198M1233.03 -32.0373L426.502 433.612M1261.46 -15.6225L454.934 450.027M1289.89 0.792373L483.365 466.442M1318.33 17.2072L511.796 482.857M1346.76 33.622L540.228 499.272M1375.19 50.0369L568.659 515.687M1403.62 66.4517L597.09 532.101M1432.05 82.8665L625.521 548.516M1460.48 99.2813L653.953 564.931M1488.91 115.696L682.384 581.346M1517.34 132.111L710.815 597.761M1545.78 148.526L739.247 614.176M1574.21 164.941L767.678 630.59M1602.64 181.355L796.109 647.005M1631.07 197.77L824.541 663.42M1659.5 214.185L852.972 679.835M1687.93 230.6L881.403 696.25M1716.36 247.015L909.835 712.665M1744.79 263.43L938.266 729.079M1773.23 279.844L966.697 745.494M1801.66 296.259L995.129 761.909M1830.09 312.674L1023.56 778.324M1858.52 329.089L1051.99 794.739M1886.95 345.504L1080.42 811.154M1915.38 361.919L1108.85 827.568M1943.81 378.334L1137.29 843.983M1972.25 394.748L1165.72 860.398M2000.68 411.163L1194.15 876.813M341.417 417.319L1178.05 900.349M370.266 400.663L1206.9 883.693M399.116 384.006L1235.75 867.036M427.965 367.35L1264.6 850.38M456.814 350.694L1293.45 833.724M485.664 334.038L1322.3 817.068M514.513 317.381L1351.15 800.412M543.363 300.725L1380 783.755M572.212 284.069L1408.84 767.099M601.061 267.413L1437.69 750.443M629.911 250.757L1466.54 733.787M658.76 234.1L1495.39 717.131M687.61 217.444L1524.24 700.474M716.459 200.788L1553.09 683.818M745.308 184.132L1581.94 667.162M774.158 167.476L1610.79 650.506M803.007 150.819L1639.64 633.849M831.857 134.163L1668.49 617.193M860.706 117.507L1697.34 600.537M889.555 100.851L1726.19 583.881M918.405 84.1945L1755.04 567.225M947.254 67.5383L1783.89 550.568M976.104 50.8821L1812.74 533.912M1004.95 34.2259L1841.59 517.256M1033.8 17.5696L1870.44 500.6M1062.65 0.913394L1899.28 483.944M1091.5 -15.7428L1928.13 467.287M1120.35 -32.399L1956.98 450.631M1149.2 -49.0552L1985.83 433.975M1178.05 -65.7114L2014.68 417.319" stroke="#E4E4E7"/>
<g filter="url(#filter0_f_1953_86305)">
<ellipse cx="1082.03" cy="483.492" rx="158.473" ry="64.8867" fill="#BFDBFE"/>
</g>
<rect y="-0.389893" width="1440" height="429.62" fill="url(#paint0_linear_1953_86305)"/>
<rect width="1440" height="140.082" transform="matrix(1 0 0 -1 0 675)" fill="url(#paint1_linear_1953_86305)"/>
<rect y="674.84" width="675.84" height="1085.69" transform="rotate(-90 0 674.84)" fill="url(#paint2_linear_1953_86305)"/>
<defs>
<filter id="filter0_f_1953_86305" x="723.554" y="218.605" width="716.946" height="529.773" filterUnits="userSpaceOnUse" color-interpolation-filters="sRGB">
<feFlood flood-opacity="0" result="BackgroundImageFix"/>
<feBlend mode="normal" in="SourceGraphic" in2="BackgroundImageFix" result="shape"/>
<feGaussianBlur stdDeviation="100" result="effect1_foregroundBlur_1953_86305"/>
</filter>
<linearGradient id="paint0_linear_1953_86305" x1="720" y1="-0.389893" x2="720" y2="429.23" gradientUnits="userSpaceOnUse">
<stop offset="0.295154" stop-color="#FAFAFA"/>
<stop offset="1" stop-color="#FAFAFA" stop-opacity="0"/>
</linearGradient>
<linearGradient id="paint1_linear_1953_86305" x1="720" y1="0" x2="720" y2="140.082" gradientUnits="userSpaceOnUse">
<stop stop-color="#FAFAFA"/>
<stop offset="1" stop-color="#FAFAFA" stop-opacity="0"/>
</linearGradient>
<linearGradient id="paint2_linear_1953_86305" x1="337.92" y1="674.84" x2="337.92" y2="1760.53" gradientUnits="userSpaceOnUse">
<stop offset="0.51887" stop-color="#FAFAFA"/>
<stop offset="1" stop-color="#FAFAFA" stop-opacity="0"/>
</linearGradient>
</defs>
</svg>
