<svg width="137" height="42" viewBox="0 0 137 42" fill="none" xmlns="http://www.w3.org/2000/svg">
<path fill-rule="evenodd" clip-rule="evenodd" d="M12.9345 1.15845C13.1131 1.15845 13.2782 1.25375 13.3675 1.40845L23.7035 19.311C23.7931 19.466 23.7929 19.6571 23.703 19.8119L23.1723 20.7265C23.0828 20.8807 22.9181 20.9755 22.7398 20.9755H14.5171C14.241 20.9755 14.0171 20.7517 14.0171 20.4755V17.3487C14.0171 17.0726 14.241 16.8487 14.5171 16.8487H16.2621C16.647 16.8487 16.8875 16.4321 16.6951 16.0987L12.8934 9.51407C12.701 9.18074 12.2198 9.18074 12.0274 9.51407L8.22573 16.0987C8.03328 16.4321 8.27384 16.8487 8.65874 16.8487H10.3592C10.6353 16.8487 10.8592 17.0726 10.8592 17.3487V20.4755C10.8592 20.7517 10.6353 20.9755 10.3592 20.9755H1.94902C1.78434 20.9755 1.63022 20.8945 1.53695 20.7587L0.886757 19.8126C0.777597 19.6538 0.769449 19.4464 0.865816 19.2794L11.1836 1.40845C11.273 1.25375 11.438 1.15845 11.6167 1.15845H12.9345Z" fill="#111827"/>
<path d="M60.7494 1.09814C62.5871 1.09814 64.088 1.57801 65.2519 2.53774C66.4363 3.47705 67.0285 4.89623 67.0285 6.79527V7.13219H63.3529V6.88716C63.3529 6.07036 63.1181 5.41693 62.6484 4.92686C62.1788 4.43678 61.5355 4.19174 60.7187 4.19174C59.8611 4.19174 59.1975 4.38573 58.7278 4.77371C58.2582 5.16168 58.0233 5.66197 58.0233 6.27456C58.0233 6.80548 58.1765 7.2445 58.4828 7.59164C58.8095 7.91836 59.2077 8.18381 59.6773 8.38801C60.147 8.59221 60.8106 8.82704 61.6683 9.09249C62.873 9.46005 63.8532 9.83782 64.6087 10.2258C65.3847 10.5933 66.0381 11.1651 66.569 11.9411C67.1203 12.6966 67.396 13.7074 67.396 14.9734C67.396 17.0766 66.7834 18.6285 65.5582 19.6291C64.3535 20.6093 62.6892 21.0993 60.5656 21.0993C59.3608 21.0993 58.2479 20.8747 57.227 20.4255C56.2264 19.9558 55.4198 19.2718 54.8072 18.3733C54.215 17.4748 53.9189 16.3824 53.9189 15.0959V14.4833H57.6864L57.6558 14.9428C57.6558 15.8617 57.9212 16.607 58.4521 17.1787C59.0035 17.7301 59.7692 18.0057 60.7494 18.0057C61.7499 18.0057 62.4851 17.7913 62.9547 17.3625C63.4244 16.9133 63.6592 16.3722 63.6592 15.7391C63.6592 15.1061 63.4856 14.5854 63.1385 14.177C62.8118 13.7686 62.3932 13.4521 61.8827 13.2275C61.3722 12.9825 60.6779 12.717 59.7998 12.4311C58.6359 12.0432 57.6864 11.6654 56.9513 11.2978C56.2366 10.9099 55.6138 10.3381 55.0829 9.58257C54.5724 8.80662 54.3171 7.78563 54.3171 6.5196C54.3171 5.35567 54.603 4.36531 55.1748 3.54852C55.7669 2.73173 56.5429 2.11913 57.5026 1.71074C58.4828 1.30234 59.565 1.09814 60.7494 1.09814Z" fill="#111827" stroke="#111827"/>
<path d="M1.65642 36.8968V35.8336H4.18646C4.73373 35.8336 5.1554 35.6946 5.45147 35.4164C5.74754 35.1383 5.89557 34.7615 5.89557 34.286C5.89557 33.8374 5.74754 33.4651 5.45147 33.169C5.16438 32.873 4.74719 32.7249 4.19991 32.7249H1.65642V31.6214H4.24029C4.83242 31.6214 5.3483 31.738 5.78791 31.9713C6.22753 32.1956 6.56397 32.5051 6.79723 32.8999C7.03947 33.2946 7.16059 33.7477 7.16059 34.2591C7.16059 34.7884 7.03947 35.2505 6.79723 35.6452C6.56397 36.04 6.22753 36.3495 5.78791 36.5738C5.3483 36.7891 4.83242 36.8968 4.24029 36.8968H1.65642ZM0.808594 40.961V31.6214H2.07361V40.961H0.808594ZM6.19164 40.961L2.80032 36.7757L3.99805 36.3585L7.7931 40.961H6.19164Z" fill="#111827"/>
<path d="M24.2 41.0956C23.5361 41.0956 22.917 40.9744 22.3428 40.7322C21.7686 40.481 21.2662 40.1356 20.8356 39.696C20.4049 39.2474 20.0685 38.7315 19.8263 38.1483C19.593 37.5652 19.4764 36.9416 19.4764 36.2777C19.4764 35.6048 19.593 34.9813 19.8263 34.4071C20.0685 33.824 20.4005 33.3126 20.8221 32.873C21.2528 32.4333 21.7507 32.0924 22.3159 31.8502C22.8901 31.6079 23.5092 31.4868 24.1731 31.4868C24.837 31.4868 25.4515 31.6079 26.0168 31.8502C26.591 32.0924 27.0934 32.4333 27.524 32.873C27.9547 33.3126 28.2911 33.824 28.5333 34.4071C28.7756 34.9903 28.8967 35.6183 28.8967 36.2912C28.8967 36.9551 28.7756 37.5786 28.5333 38.1618C28.2911 38.745 27.9547 39.2563 27.524 39.696C27.1023 40.1356 26.6044 40.481 26.0302 40.7322C25.465 40.9744 24.8549 41.0956 24.2 41.0956ZM24.1731 39.8844C24.846 39.8844 25.4336 39.7318 25.936 39.4268C26.4474 39.1128 26.8511 38.6866 27.1472 38.1483C27.4433 37.6011 27.5913 36.9775 27.5913 36.2777C27.5913 35.7574 27.5061 35.2819 27.3356 34.8512C27.1652 34.4116 26.9274 34.0303 26.6224 33.7073C26.3173 33.3843 25.9585 33.1376 25.5457 32.9672C25.1331 32.7877 24.6755 32.698 24.1731 32.698C23.5092 32.698 22.9215 32.8505 22.4101 33.1556C21.9077 33.4606 21.5085 33.8823 21.2124 34.4206C20.9253 34.9589 20.7818 35.5779 20.7818 36.2777C20.7818 36.7981 20.8625 37.2826 21.024 37.7312C21.1945 38.1708 21.4277 38.5521 21.7238 38.875C22.0288 39.1891 22.3877 39.4358 22.8004 39.6152C23.2221 39.7947 23.6796 39.8844 24.1731 39.8844Z" fill="#111827"/>
<path d="M41.6835 40.961V39.8575H44.5096C45.0479 39.8575 45.4695 39.7004 45.7746 39.3864C46.0796 39.0635 46.2321 38.6777 46.2321 38.2291C46.2321 37.924 46.1648 37.6504 46.0303 37.4082C45.8957 37.157 45.6983 36.9596 45.4381 36.816C45.1869 36.6725 44.8909 36.6007 44.5499 36.6007H41.6835V35.4972H44.3615C44.8101 35.4972 45.1645 35.3806 45.4247 35.1473C45.6938 34.9051 45.8284 34.5596 45.8284 34.1111C45.8284 33.6625 45.6894 33.3215 45.4112 33.0883C45.1331 32.846 44.7653 32.7249 44.3077 32.7249H41.6835V31.6214H44.3346C44.9447 31.6214 45.4516 31.7335 45.8553 31.9578C46.268 32.1732 46.5776 32.4603 46.7839 32.8191C46.9992 33.178 47.1069 33.5727 47.1069 34.0034C47.1069 34.5058 46.9678 34.9454 46.6897 35.3222C46.4205 35.6991 46.0213 35.9951 45.492 36.2104L45.5996 35.8067C46.2007 36.022 46.6673 36.3495 46.9992 36.7891C47.3401 37.2198 47.5106 37.7312 47.5106 38.3233C47.5106 38.8167 47.3895 39.2608 47.1473 39.6556C46.905 40.0503 46.5551 40.3688 46.0976 40.6111C45.649 40.8443 45.0972 40.961 44.4423 40.961H41.6835ZM40.8356 40.961V31.6214H42.1007V40.961H40.8356Z" fill="#111827"/>
<path d="M64.0424 41.0956C63.3785 41.0956 62.7594 40.9744 62.1853 40.7322C61.6111 40.481 61.1086 40.1356 60.678 39.696C60.2474 39.2474 59.9109 38.7315 59.6687 38.1483C59.4354 37.5652 59.3188 36.9416 59.3188 36.2777C59.3188 35.6048 59.4354 34.9813 59.6687 34.4071C59.9109 33.824 60.2429 33.3126 60.6645 32.873C61.0952 32.4333 61.5931 32.0924 62.1583 31.8502C62.7325 31.6079 63.3516 31.4868 64.0155 31.4868C64.6794 31.4868 65.294 31.6079 65.8592 31.8502C66.4334 32.0924 66.9358 32.4333 67.3664 32.873C67.7971 33.3126 68.1335 33.824 68.3758 34.4071C68.618 34.9903 68.7391 35.6183 68.7391 36.2912C68.7391 36.9551 68.618 37.5786 68.3758 38.1618C68.1335 38.745 67.7971 39.2563 67.3664 39.696C66.9448 40.1356 66.4468 40.481 65.8726 40.7322C65.3074 40.9744 64.6973 41.0956 64.0424 41.0956ZM64.0155 39.8844C64.6884 39.8844 65.276 39.7318 65.7784 39.4268C66.2898 39.1128 66.6936 38.6866 66.9896 38.1483C67.2857 37.6011 67.4337 36.9775 67.4337 36.2777C67.4337 35.7574 67.3485 35.2819 67.178 34.8512C67.0076 34.4116 66.7698 34.0303 66.4648 33.7073C66.1597 33.3843 65.8009 33.1376 65.3882 32.9672C64.9755 32.7877 64.5179 32.698 64.0155 32.698C63.3516 32.698 62.7639 32.8505 62.2525 33.1556C61.7501 33.4606 61.3509 33.8823 61.0548 34.4206C60.7677 34.9589 60.6242 35.5779 60.6242 36.2777C60.6242 36.7981 60.7049 37.2826 60.8664 37.7312C61.0369 38.1708 61.2701 38.5521 61.5662 38.875C61.8712 39.1891 62.2301 39.4358 62.6428 39.6152C63.0645 39.7947 63.522 39.8844 64.0155 39.8844Z" fill="#111827"/>
<path d="M82.6538 40.961V31.8905H83.9188V40.961H82.6538ZM79.4778 32.7787V31.6214H87.0813V32.7787H79.4778Z" fill="#111827"/>
<path d="M98.5469 40.961V31.6214H99.8119V40.961H98.5469Z" fill="#111827"/>
<path d="M115.687 41.0956C115.014 41.0956 114.391 40.9744 113.817 40.7322C113.243 40.481 112.74 40.1356 112.309 39.696C111.888 39.2563 111.56 38.745 111.327 38.1618C111.094 37.5786 110.977 36.9551 110.977 36.2912C110.977 35.6183 111.094 34.9903 111.327 34.4071C111.56 33.824 111.888 33.3171 112.309 32.8864C112.74 32.4468 113.238 32.1059 113.803 31.8636C114.377 31.6124 115.001 31.4868 115.674 31.4868C116.41 31.4868 117.056 31.6124 117.612 31.8636C118.168 32.1148 118.661 32.4558 119.092 32.8864L118.217 33.7612C117.921 33.4292 117.558 33.169 117.127 32.9806C116.706 32.7922 116.221 32.698 115.674 32.698C115.18 32.698 114.727 32.7877 114.315 32.9672C113.902 33.1376 113.543 33.3843 113.238 33.7073C112.933 34.0303 112.695 34.4116 112.525 34.8512C112.363 35.2908 112.283 35.7708 112.283 36.2912C112.283 36.8115 112.363 37.2915 112.525 37.7312C112.695 38.1708 112.933 38.5521 113.238 38.875C113.543 39.198 113.902 39.4492 114.315 39.6287C114.727 39.7991 115.18 39.8844 115.674 39.8844C116.257 39.8844 116.764 39.7902 117.195 39.6018C117.625 39.4044 117.989 39.1397 118.285 38.8078L119.159 39.669C118.729 40.1176 118.222 40.4675 117.639 40.7187C117.064 40.9699 116.414 41.0956 115.687 41.0956Z" fill="#111827"/>
<path d="M133.594 41.0956C132.858 41.0956 132.23 40.961 131.709 40.6918C131.189 40.4227 130.727 40.0324 130.323 39.521L131.185 38.6597C131.481 39.0724 131.822 39.3864 132.207 39.6018C132.593 39.8081 133.069 39.9113 133.634 39.9113C134.19 39.9113 134.634 39.7902 134.966 39.5479C135.307 39.3057 135.478 38.9737 135.478 38.5521C135.478 38.2022 135.397 37.9196 135.235 37.7042C135.074 37.4889 134.854 37.314 134.576 37.1794C134.307 37.0358 134.011 36.9102 133.688 36.8026C133.365 36.6859 133.042 36.5648 132.719 36.4392C132.396 36.3046 132.1 36.1432 131.831 35.9547C131.561 35.7574 131.342 35.5017 131.171 35.1877C131.01 34.8736 130.929 34.4789 130.929 34.0034C130.929 33.4741 131.055 33.0255 131.306 32.6576C131.566 32.2808 131.916 31.9937 132.355 31.7963C132.804 31.59 133.306 31.4868 133.863 31.4868C134.473 31.4868 135.02 31.6079 135.505 31.8502C135.989 32.0834 136.384 32.393 136.689 32.7787L135.828 33.64C135.549 33.3171 135.249 33.0748 134.926 32.9133C134.612 32.7518 134.248 32.6711 133.836 32.6711C133.333 32.6711 132.934 32.7832 132.638 33.0075C132.342 33.2228 132.194 33.5279 132.194 33.9226C132.194 34.2367 132.275 34.4924 132.436 34.6897C132.607 34.8781 132.826 35.0396 133.096 35.1742C133.365 35.3088 133.661 35.4344 133.984 35.551C134.316 35.6587 134.643 35.7798 134.966 35.9144C135.289 36.0489 135.585 36.2194 135.854 36.4258C136.124 36.6321 136.339 36.9013 136.5 37.2332C136.671 37.5562 136.756 37.9644 136.756 38.4579C136.756 39.2833 136.469 39.9292 135.895 40.3958C135.33 40.8623 134.562 41.0956 133.594 41.0956Z" fill="#111827"/>
<path d="M84.5709 21.0994C83.2427 21.0994 82.0159 20.8411 80.8906 20.3246C79.7654 19.7896 78.7692 19.0886 77.9022 18.2216C77.0352 17.3361 76.3526 16.3031 75.8545 15.1225C75.3565 13.9234 75.1074 12.5952 75.1074 11.1379C75.1074 9.71743 75.3565 8.40768 75.8545 7.20861C76.3711 5.99109 77.0536 4.93037 77.9022 4.02645C78.7508 3.14099 79.7377 2.43999 80.863 1.92347C82.0067 1.40694 83.2427 1.14868 84.5709 1.14868C85.9729 1.14868 87.3103 1.47151 88.5831 2.11716C89.856 2.74437 91.0366 3.72207 92.125 5.05028L89.4409 7.26395C88.6846 6.32314 87.9006 5.64981 87.0889 5.24397C86.2772 4.81969 85.4379 4.60754 84.5709 4.60754C83.7407 4.60754 82.966 4.77357 82.2465 5.10562C81.5455 5.43767 80.9091 5.89885 80.3372 6.48916C79.7838 7.06103 79.3503 7.74358 79.0367 8.53681C78.7231 9.31159 78.5663 10.1786 78.5663 11.1379C78.5663 12.0971 78.7231 12.9641 79.0367 13.7389C79.3503 14.4953 79.7838 15.1686 80.3372 15.7589C80.8906 16.3492 81.5271 16.8104 82.2465 17.1425C82.966 17.4745 83.7407 17.6405 84.5709 17.6405C85.4379 17.6405 86.2772 17.4376 87.0889 17.0318C87.9006 16.6075 88.6846 15.9249 89.4409 14.9841L92.125 17.1978C91.0366 18.526 89.856 19.5129 88.5831 20.1586C87.3103 20.7858 85.9729 21.0994 84.5709 21.0994Z" fill="#111827" stroke="#111827"/>
<path d="M136.109 21.099H131.485L126.312 13.2976H124.937V21.099H120.459L120.491 1.09546H128.996C130.138 1.09546 131.151 1.38122 132.035 1.95275C132.919 2.52428 133.609 3.27679 134.105 4.21029C134.622 5.12473 134.881 6.11538 134.881 7.18224C134.881 7.98238 134.698 8.77299 134.331 9.55408C133.986 10.3161 133.501 11.002 132.876 11.6116C132.251 12.2212 131.529 12.6784 130.709 12.9832L136.109 21.099ZM131.287 7.7775C131.287 7.39649 131.19 7.00594 130.996 6.60587C130.802 6.18675 130.543 5.83431 130.22 5.54854C129.897 5.26278 129.519 5.1199 129.088 5.1199H124.69V10.2637H129.088C129.519 10.2637 129.897 10.1398 130.22 9.89216C130.543 9.6445 130.802 9.33016 130.996 8.94914C131.19 8.54907 131.287 8.15852 131.287 7.7775Z" fill="#111827"/>
<path d="M112.748 21.0992H99.8359V1.1582H112.748V5.5066H103.864V8.84355H111.352V13.3073H103.864V16.6009H112.748V21.0992Z" fill="#111827"/>
<path d="M33.1287 21.0995H28.6904V1.10257H29.8958L40.8125 11.5148H41.2826V1.09824L45.8229 1V20.9063L43.9152 21.0045L33.6442 10.1934H33.1287V21.0995Z" fill="#111827"/>
</svg>
