<svg width="191" height="41" viewBox="0 0 191 41" fill="none" xmlns="http://www.w3.org/2000/svg">
<path fill-rule="evenodd" clip-rule="evenodd" d="M35.3969 10.0479L18.0764 0.0478516L13.3684 2.76599V13.7823C14.8765 12.8052 16.6748 12.2378 18.6056 12.2378C23.9321 12.2378 28.2501 16.5558 28.2501 21.8823C28.2501 27.2088 23.9321 31.5268 18.6056 31.5268C13.3718 31.5268 9.11168 27.3578 8.96502 22.1594H8.96103V5.3106L0.755859 10.0479V30.0479L18.0764 40.0479L35.3969 30.0479V10.0479ZM23.7364 21.8824C23.7364 22.8952 23.4429 23.8395 22.9364 24.6348V23.1832C23.04 23.0657 23.1029 22.9115 23.1029 22.7425C23.1029 22.3743 22.8045 22.0759 22.4363 22.0759C22.4086 22.0759 22.3812 22.0776 22.3544 22.0809L19.845 20.632L19.595 20.4877L19.345 20.632L16.8355 22.0809C16.8086 22.0776 16.7813 22.0759 16.7535 22.0759C16.3854 22.0759 16.0869 22.3743 16.0869 22.7425C16.0869 22.9115 16.1498 23.0658 16.2535 23.1833V25.4157C16.1498 25.5332 16.0869 25.6875 16.0869 25.8566C16.0869 26.1981 16.3438 26.4797 16.675 26.5186L17.187 26.8142C15.0436 26.1987 13.4754 24.2237 13.4754 21.8824C13.4754 19.0489 15.7724 16.7519 18.6059 16.7519C21.4394 16.7519 23.7364 19.0489 23.7364 21.8824ZM21.9364 25.6979L19.982 26.8263C19.7986 26.8772 19.611 26.9182 19.42 26.9487L17.4171 25.7923C17.4033 25.6486 17.3439 25.5181 17.2535 25.4157V23.1833C17.3216 23.1061 17.3721 23.0131 17.3988 22.9104L19.595 21.6424L21.791 22.9103C21.8177 23.0131 21.8682 23.1062 21.9364 23.1834V25.6979Z" fill="#501F84"/>
<path fill-rule="evenodd" clip-rule="evenodd" d="M69.8117 33.445C74.4416 33.445 78.1948 29.6918 78.1948 25.062C78.1948 20.4322 74.4416 16.679 69.8117 16.679C65.1819 16.679 61.4287 20.4322 61.4287 25.062C61.4287 29.6918 65.1819 33.445 69.8117 33.445ZM69.8117 29.7187C72.3836 29.7187 74.4684 27.6338 74.4684 25.062C74.4684 22.4902 72.3836 20.4053 69.8117 20.4053C67.2399 20.4053 65.1551 22.4902 65.1551 25.062C65.1551 27.6338 67.2399 29.7187 69.8117 29.7187Z" fill="#111827"/>
<path fill-rule="evenodd" clip-rule="evenodd" d="M42.9297 4.41992H46.8483V17.965C48.1408 17.1503 49.6715 16.6789 51.3122 16.6789C55.942 16.6789 59.6953 20.4321 59.6953 25.0619C59.6953 29.6918 55.942 33.445 51.3122 33.445C46.6824 33.445 42.9292 29.6918 42.9292 25.0619C42.9292 25.0319 42.9294 25.002 42.9297 24.9721V4.41992ZM55.9689 25.0619C55.9689 27.6338 53.884 29.7186 51.3122 29.7186C48.7404 29.7186 46.6555 27.6338 46.6555 25.0619C46.6555 22.4901 48.7404 20.4053 51.3122 20.4053C53.884 20.4053 55.9689 22.4901 55.9689 25.0619Z" fill="#111827"/>
<rect x="80.167" y="4.41992" width="3.70012" height="28.817" fill="#111827"/>
<path fill-rule="evenodd" clip-rule="evenodd" d="M150.296 32.1961C149.016 32.988 147.507 33.445 145.892 33.445C141.262 33.445 137.509 29.6918 137.509 25.062C137.509 20.4322 141.262 16.679 145.892 16.679C150.426 16.679 154.12 20.279 154.27 24.7767H154.275V24.9868C154.275 25.0118 154.275 25.0369 154.275 25.062C154.275 25.0871 154.275 25.1121 154.275 25.1371V33.237H150.296V32.1961ZM150.549 25.062C150.549 27.6338 148.464 29.7187 145.892 29.7187C143.32 29.7187 141.235 27.6338 141.235 25.062C141.235 22.4902 143.32 20.4053 145.892 20.4053C148.464 20.4053 150.549 22.4902 150.549 25.062Z" fill="#111827"/>
<path fill-rule="evenodd" clip-rule="evenodd" d="M92.9926 4.41992H89.2925V9.88174H86.2012V13.7654H89.2925V33.2369H92.9926V13.7654H95.8912V9.88174H92.9926V4.41992Z" fill="#111827"/>
<path d="M109.914 16.8059H95.8068L95.8047 20.4093H102.896V21.1569L95.9538 32.6922V33.2619H109.91V29.3812H102.968V28.6691L109.914 16.8059Z" fill="#111827"/>
<path fill-rule="evenodd" clip-rule="evenodd" d="M164.366 16.8059C159.929 16.8059 156.332 20.403 156.332 24.8402V33.2618H160.129V24.046C160.129 21.7944 161.954 19.969 164.206 19.969C166.457 19.969 168.283 21.7944 168.283 24.046V33.2618H172.401V24.8402C172.401 20.403 168.804 16.8059 164.366 16.8059Z" fill="#111827"/>
<path fill-rule="evenodd" clip-rule="evenodd" d="M182.77 16.8059C178.332 16.8059 174.735 20.403 174.735 24.8402V33.2618H178.532V24.046C178.532 21.7944 180.357 19.969 182.609 19.969C184.861 19.969 186.686 21.7944 186.686 24.046V33.2618H190.804V24.8402C190.804 20.403 187.207 16.8059 182.77 16.8059Z" fill="#111827"/>
<path fill-rule="evenodd" clip-rule="evenodd" d="M112.271 23.3771C112.271 19.7479 115.213 16.8059 118.843 16.8059C120.855 16.8059 122.656 17.7102 123.861 19.1345C125.066 17.7102 126.867 16.8059 128.879 16.8059C132.508 16.8059 135.45 19.748 135.45 23.3771V33.2619H132.082V23.3036C132.082 21.462 130.589 19.9691 128.748 19.9691C126.91 19.9691 125.419 21.4558 125.413 23.2921C125.414 23.3204 125.414 23.3487 125.414 23.3771V33.2618H125.413V33.2619H122.308V33.2618H122.177V23.3036C122.177 21.462 120.684 19.969 118.843 19.969C117.001 19.969 115.508 21.462 115.508 23.3036V33.2618H112.271V23.3771Z" fill="#111827"/>
</svg>
