<svg width="164" height="41" viewBox="0 0 164 41" fill="none" xmlns="http://www.w3.org/2000/svg">
<path d="M46.4829 27.7158C45.0897 27.7158 43.8933 27.4099 42.8938 26.7981C41.9004 26.1863 41.1341 25.3413 40.595 24.263C40.0619 23.1787 39.7954 21.9309 39.7954 20.5195C39.7954 19.102 40.068 17.8511 40.6132 16.7668C41.1584 15.6765 41.9277 14.8284 42.9211 14.2227C43.9206 13.6108 45.1018 13.3049 46.4648 13.3049C47.5975 13.3049 48.6001 13.5139 49.4723 13.9319C50.3507 14.3438 51.0503 14.9284 51.5713 15.6856C52.0922 16.4367 52.389 17.315 52.4617 18.3206H49.3179C49.1907 17.6482 48.8878 17.0879 48.4092 16.6396C47.9367 16.1853 47.3037 15.9581 46.5102 15.9581C45.8378 15.9581 45.2472 16.1399 44.7384 16.5033C44.2295 16.8607 43.8328 17.3756 43.5481 18.048C43.2694 18.7204 43.1301 19.526 43.1301 20.465C43.1301 21.416 43.2694 22.2338 43.5481 22.9183C43.8267 23.5967 44.2174 24.1207 44.7202 24.4902C45.229 24.8537 45.8257 25.0354 46.5102 25.0354C46.9948 25.0354 47.4279 24.9445 47.8095 24.7628C48.1972 24.575 48.5213 24.3054 48.7818 23.9541C49.0423 23.6028 49.221 23.1757 49.3179 22.6729H52.4617C52.383 23.6603 52.0922 24.5356 51.5894 25.2989C51.0867 26.0561 50.4022 26.6497 49.5359 27.0798C48.6697 27.5038 47.652 27.7158 46.4829 27.7158Z" fill="#111827"/>
<path d="M55.1626 27.4433V13.4867H58.3519V15.8128H58.4973C58.7517 15.0071 59.1879 14.3862 59.8057 13.9501C60.4297 13.5079 61.1414 13.2868 61.941 13.2868C62.1228 13.2868 62.3257 13.2959 62.5498 13.314C62.78 13.3261 62.9708 13.3473 63.1223 13.3776V16.4034C62.9829 16.3549 62.7618 16.3125 62.459 16.2762C62.1621 16.2338 61.8744 16.2126 61.5958 16.2126C60.9961 16.2126 60.4569 16.3428 59.9784 16.6033C59.5059 16.8577 59.1334 17.2121 58.8608 17.6664C58.5882 18.1207 58.4519 18.6447 58.4519 19.2383V27.4433H55.1626Z" fill="#111827"/>
<path d="M70.9115 27.7158C69.5122 27.7158 68.3037 27.4251 67.2861 26.8436C66.2745 26.256 65.4961 25.4261 64.9509 24.3539C64.4057 23.2757 64.1331 22.0066 64.1331 20.5467C64.1331 19.1111 64.4057 17.8511 64.9509 16.7668C65.5021 15.6765 66.2714 14.8284 67.2588 14.2227C68.2462 13.6108 69.4062 13.3049 70.7389 13.3049C71.599 13.3049 72.4107 13.4443 73.174 13.7229C73.9433 13.9955 74.6217 14.4195 75.2093 14.995C75.803 15.5705 76.2694 16.3034 76.6086 17.1939C76.9478 18.0783 77.1175 19.1323 77.1175 20.3559V21.3645H65.6778V19.1474H73.9645C73.9584 18.5175 73.8222 17.9571 73.5556 17.4665C73.2891 16.9698 72.9165 16.579 72.438 16.2943C71.9655 16.0096 71.4143 15.8673 70.7843 15.8673C70.1119 15.8673 69.5213 16.0308 69.0125 16.3579C68.5036 16.679 68.1069 17.103 67.8222 17.63C67.5435 18.151 67.4012 18.7234 67.3951 19.3473V21.2827C67.3951 22.0944 67.5435 22.7911 67.8403 23.3726C68.1371 23.948 68.5521 24.3902 69.0851 24.6992C69.6182 25.0021 70.2421 25.1535 70.9569 25.1535C71.4355 25.1535 71.8686 25.0869 72.2563 24.9536C72.644 24.8143 72.9802 24.6113 73.2649 24.3448C73.5496 24.0783 73.7646 23.7481 73.91 23.3544L76.9812 23.6997C76.7873 24.5114 76.4178 25.2201 75.8726 25.8259C75.3335 26.4256 74.6429 26.892 73.8009 27.2252C72.959 27.5523 71.9958 27.7158 70.9115 27.7158Z" fill="#111827"/>
<path d="M82.7055 27.4433L78.7621 13.4867H82.1149L84.5682 23.2999H84.6954L87.2033 13.4867H90.5198L93.0276 23.2454H93.1639L95.5808 13.4867H98.9428L94.9902 27.4433H91.5647L88.9478 18.0117H88.757L86.1402 27.4433H82.7055Z" fill="#111827"/>
<path d="M112.27 17.1757L109.272 17.5028C109.187 17.1999 109.038 16.9152 108.826 16.6487C108.62 16.3822 108.342 16.1671 107.99 16.0036C107.639 15.84 107.209 15.7582 106.7 15.7582C106.016 15.7582 105.44 15.9067 104.974 16.2035C104.513 16.5003 104.286 16.8849 104.292 17.3574C104.286 17.7633 104.435 18.0934 104.738 18.3478C105.047 18.6023 105.555 18.8112 106.264 18.9748L108.645 19.4836C109.965 19.7683 110.947 20.2196 111.589 20.8375C112.237 21.4554 112.564 22.264 112.57 23.2635C112.564 24.1419 112.306 24.9173 111.798 25.5896C111.295 26.256 110.595 26.7769 109.699 27.1525C108.802 27.5281 107.772 27.7158 106.609 27.7158C104.901 27.7158 103.526 27.3584 102.484 26.6437C101.442 25.9228 100.821 24.9203 100.621 23.6361L103.829 23.3271C103.974 23.9571 104.283 24.4327 104.756 24.7537C105.228 25.0748 105.843 25.2353 106.6 25.2353C107.382 25.2353 108.009 25.0748 108.481 24.7537C108.96 24.4327 109.199 24.0359 109.199 23.5634C109.199 23.1636 109.044 22.8335 108.736 22.573C108.433 22.3125 107.96 22.1126 107.318 21.9733L104.937 21.4735C103.599 21.1949 102.608 20.7254 101.966 20.0652C101.324 19.3988 101.006 18.5568 101.012 17.5392C101.006 16.679 101.239 15.9339 101.712 15.3039C102.19 14.6679 102.854 14.1772 103.702 13.8319C104.556 13.4806 105.54 13.3049 106.655 13.3049C108.29 13.3049 109.578 13.6533 110.516 14.3499C111.461 15.0465 112.046 15.9884 112.27 17.1757Z" fill="#111827"/>
<path d="M121.37 27.7158C119.977 27.7158 118.78 27.4099 117.781 26.7981C116.788 26.1863 116.021 25.3413 115.482 24.263C114.949 23.1787 114.683 21.9309 114.683 20.5195C114.683 19.102 114.955 17.8511 115.5 16.7668C116.046 15.6765 116.815 14.8284 117.808 14.2227C118.808 13.6108 119.989 13.3049 121.352 13.3049C122.485 13.3049 123.487 13.5139 124.359 13.9319C125.238 14.3438 125.937 14.9284 126.458 15.6856C126.979 16.4367 127.276 17.315 127.349 18.3206H124.205C124.078 17.6482 123.775 17.0879 123.296 16.6396C122.824 16.1853 122.191 15.9581 121.397 15.9581C120.725 15.9581 120.134 16.1399 119.626 16.5033C119.117 16.8607 118.72 17.3756 118.435 18.048C118.157 18.7204 118.017 19.526 118.017 20.465C118.017 21.416 118.157 22.2338 118.435 22.9183C118.714 23.5967 119.105 24.1207 119.607 24.4902C120.116 24.8537 120.713 25.0354 121.397 25.0354C121.882 25.0354 122.315 24.9445 122.697 24.7628C123.084 24.575 123.408 24.3054 123.669 23.9541C123.929 23.6028 124.108 23.1757 124.205 22.6729H127.349C127.27 23.6603 126.979 24.5356 126.477 25.2989C125.974 26.0561 125.289 26.6497 124.423 27.0798C123.557 27.5038 122.539 27.7158 121.37 27.7158Z" fill="#111827"/>
<path d="M134.066 27.7249C133.182 27.7249 132.385 27.5674 131.676 27.2524C130.974 26.9314 130.416 26.4589 130.004 25.835C129.599 25.211 129.396 24.4417 129.396 23.527C129.396 22.7396 129.541 22.0884 129.832 21.5735C130.122 21.0586 130.519 20.6467 131.022 20.3378C131.525 20.0288 132.091 19.7956 132.721 19.6381C133.357 19.4746 134.014 19.3564 134.693 19.2837C135.511 19.1989 136.174 19.1232 136.683 19.0566C137.192 18.9839 137.561 18.8749 137.791 18.7295C138.028 18.578 138.146 18.3448 138.146 18.0298V17.9753C138.146 17.2908 137.943 16.7608 137.537 16.3852C137.131 16.0096 136.547 15.8219 135.783 15.8219C134.978 15.8219 134.339 15.9975 133.866 16.3489C133.4 16.7002 133.085 17.1151 132.921 17.5937L129.85 17.1575C130.092 16.3095 130.492 15.6008 131.049 15.0313C131.607 14.4559 132.288 14.0258 133.094 13.7411C133.899 13.4503 134.79 13.3049 135.765 13.3049C136.437 13.3049 137.107 13.3837 137.773 13.5412C138.439 13.6987 139.048 13.9592 139.6 14.3226C140.151 14.68 140.593 15.1676 140.926 15.7855C141.265 16.4034 141.435 17.1757 141.435 18.1025V27.4433H138.273V25.526H138.164C137.964 25.9137 137.682 26.2772 137.319 26.6164C136.961 26.9496 136.51 27.2191 135.965 27.4251C135.426 27.625 134.793 27.7249 134.066 27.7249ZM134.92 25.308C135.58 25.308 136.153 25.1777 136.637 24.9173C137.122 24.6507 137.495 24.2994 137.755 23.8632C138.022 23.4271 138.155 22.9516 138.155 22.4367V20.7921C138.052 20.8769 137.876 20.9556 137.628 21.0283C137.385 21.101 137.113 21.1646 136.81 21.2191C136.507 21.2736 136.207 21.3221 135.91 21.3645C135.614 21.4069 135.356 21.4433 135.138 21.4735C134.647 21.5402 134.208 21.6492 133.821 21.8006C133.433 21.9521 133.127 22.1641 132.903 22.4367C132.679 22.7032 132.567 23.0485 132.567 23.4725C132.567 24.0783 132.788 24.5356 133.23 24.8446C133.672 25.1535 134.236 25.308 134.92 25.308Z" fill="#111827"/>
<path d="M148.032 8.83447V27.4433H144.742V8.83447H148.032Z" fill="#111827"/>
<path d="M157.593 27.7158C156.193 27.7158 154.985 27.4251 153.967 26.8436C152.956 26.256 152.177 25.4261 151.632 24.3539C151.087 23.2757 150.814 22.0066 150.814 20.5467C150.814 19.1111 151.087 17.8511 151.632 16.7668C152.183 15.6765 152.953 14.8284 153.94 14.2227C154.927 13.6108 156.087 13.3049 157.42 13.3049C158.28 13.3049 159.092 13.4443 159.855 13.7229C160.624 13.9955 161.303 14.4195 161.891 14.995C162.484 15.5705 162.951 16.3034 163.29 17.1939C163.629 18.0783 163.799 19.1323 163.799 20.3559V21.3645H152.359V19.1474H160.646C160.64 18.5175 160.503 17.9571 160.237 17.4665C159.97 16.9698 159.598 16.579 159.119 16.2943C158.647 16.0096 158.095 15.8673 157.465 15.8673C156.793 15.8673 156.202 16.0308 155.694 16.3579C155.185 16.679 154.788 17.103 154.503 17.63C154.225 18.151 154.082 18.7234 154.076 19.3473V21.2827C154.076 22.0944 154.225 22.7911 154.522 23.3726C154.818 23.948 155.233 24.3902 155.766 24.6992C156.299 25.0021 156.923 25.1535 157.638 25.1535C158.117 25.1535 158.55 25.0869 158.937 24.9536C159.325 24.8143 159.661 24.6113 159.946 24.3448C160.231 24.0783 160.446 23.7481 160.591 23.3544L163.662 23.6997C163.469 24.5114 163.099 25.2201 162.554 25.8259C162.015 26.4256 161.324 26.892 160.482 27.2252C159.64 27.5523 158.677 27.7158 157.593 27.7158Z" fill="#111827"/>
<path d="M8.55042 34.0913C8.00574 34.6291 8.02999 35.5197 8.63984 35.9823C12.1377 38.6356 16.4243 40.0725 20.8408 40.0473C25.2542 40.022 29.5212 38.5383 32.9872 35.8488C33.5946 35.3774 33.6059 34.4817 33.0492 33.9514L28.1653 29.2993C27.3682 28.54 26.139 28.5661 25.1598 29.0693C23.8645 29.7349 22.4858 29.9048 20.7829 29.9145C19.0796 29.9243 17.6722 29.7501 16.3535 29.0871C15.3652 28.5903 14.1276 28.5845 13.3405 29.3616L8.55042 34.0913Z" fill="#1D5DC7"/>
<path d="M6.61725 32.1442C6.07687 32.6879 5.18484 32.6597 4.72497 32.0464C2.15012 28.6128 0.740223 24.4298 0.72618 20.1129C0.712086 15.7804 2.10486 11.5734 4.67512 8.11601C5.12203 7.51484 5.98857 7.46764 6.53746 7.97741L11.4527 12.5424C12.282 13.3126 12.3213 14.5884 11.8078 15.5969C11.1191 16.9494 10.8509 18.4249 10.8563 20.0799C10.8616 21.725 11.1835 22.9111 11.9005 24.0822C12.4773 25.0242 12.4726 26.2534 11.694 27.0367L6.61725 32.1442Z" fill="#2496F6"/>
<path d="M32.8741 5.92227C33.3852 5.37582 33.3419 4.51035 32.7438 4.06078C29.3039 1.47491 25.1097 0.0599183 20.7819 0.0479284C16.4627 0.0359622 12.2688 1.42217 8.81852 3.97921C8.2097 4.4304 8.16871 5.30954 8.69341 5.85627L13.7282 11.1024C14.5024 11.9091 15.7511 11.9386 16.6925 11.3355C17.8881 10.5697 19.108 10.1633 20.7539 10.1678C22.4038 10.1724 23.7525 10.5898 25.0245 11.3672C25.9914 11.9581 27.264 11.9209 28.038 11.0933L32.8741 5.92227Z" fill="#5EBAFB"/>
<circle cx="20.7263" cy="20.0476" r="6.01294" fill="#1B5EC6"/>
</svg>
