<svg width="103" height="31" viewBox="0 0 103 31" fill="none" xmlns="http://www.w3.org/2000/svg">
<path d="M5.59932 11.6238C8.0736 8.23718 12.0655 6.04688 16.5694 6.04688C21.0478 6.04688 25.0198 8.21236 27.4973 11.5663C28.4817 12.899 30.3601 13.1813 31.6928 12.1969C33.0255 11.2124 33.3078 9.33403 32.3234 8.00134C28.7634 3.18194 23.0323 0.046875 16.5694 0.046875C10.0696 0.046875 4.31001 3.21784 0.754612 8.08416C-0.222825 9.42199 0.0693312 11.2989 1.40716 12.2763C2.74499 13.2538 4.62188 12.9616 5.59932 11.6238Z" fill="#667BF5"/>
<path fill-rule="evenodd" clip-rule="evenodd" d="M16.547 9.85349C10.9702 9.85349 6.44933 14.3743 6.44933 19.9511C6.44933 25.5279 10.9702 30.0487 16.547 30.0487C22.1237 30.0487 26.6446 25.5279 26.6446 19.9511C26.6446 14.3743 22.1237 9.85349 16.547 9.85349ZM12.4493 19.9511C12.4493 17.6881 14.2839 15.8535 16.547 15.8535C18.81 15.8535 20.6446 17.6881 20.6446 19.9511C20.6446 22.2142 18.81 24.0487 16.547 24.0487C14.2839 24.0487 12.4493 22.2142 12.4493 19.9511Z" fill="#667BF5"/>
<path d="M49.306 0.874399C53.8002 -0.923223 58.4177 1.42197 60.1647 2.81927L58.1131 6.70966C56.9243 5.46282 54.8873 4.86115 54.0174 4.71616C50.5088 4.13624 49.4384 6.50427 49.3417 7.76078V9.9355H60.4691V29.4718H55.286V13.85H49.3055V29.508H44.0861V13.8863H41.4043V9.89926H44.1595V7.72453C44.0025 6.19016 44.8119 2.67202 49.306 0.874399Z" fill="#111111"/>
<rect x="65.3438" y="0.411621" width="5.24334" height="29.0964" fill="#111111"/>
<path fill-rule="evenodd" clip-rule="evenodd" d="M77.719 29.9198C82.7334 29.9198 86.7984 25.0561 86.7984 19.0565C86.7984 13.0568 82.7334 8.19312 77.719 8.19312C72.7046 8.19312 68.6396 13.0568 68.6396 19.0565C68.6396 25.0561 72.7046 29.9198 77.719 29.9198ZM75.8661 25.5883C78.9621 25.5883 81.4719 22.7591 81.4719 19.269C81.4719 15.7789 78.9621 12.9497 75.8661 12.9497C72.7702 12.9497 70.2603 15.7789 70.2603 19.269C70.2603 22.7591 72.7702 25.5883 75.8661 25.5883Z" fill="#111111"/>
<path d="M95.2863 8.68045H90.4766L90.5841 29.5423H95.7726V17.1115C96.5508 14.2146 100.853 13.3463 102.907 13.2742V8.46403C99.2748 7.85871 96.3131 11.2745 95.2863 13.058V8.68045Z" fill="#111111"/>
</svg>
