<svg width="98" height="28" viewBox="0 0 98 28" fill="none" xmlns="http://www.w3.org/2000/svg">
<path fill-rule="evenodd" clip-rule="evenodd" d="M5.29907 10.5557C7.69116 7.28167 11.5518 5.16284 15.9075 5.16284C20.2387 5.16284 24.08 7.25767 26.4752 10.5001C27.2955 11.6107 28.8609 11.846 29.9714 11.0256C31.082 10.2053 31.3173 8.63996 30.4969 7.52938C27.1997 3.06565 21.8924 0.162842 15.9075 0.162842C9.88846 0.162842 4.55483 3.09889 1.26182 7.60608C0.447288 8.72093 0.690751 10.285 1.80561 11.0995C2.92047 11.9141 4.48454 11.6706 5.29907 10.5557ZM11.6953 18.6009C11.6953 16.2857 13.5721 14.4088 15.8873 14.4088C18.2024 14.4088 20.0793 16.2857 20.0793 18.6009C20.0793 20.916 18.2024 22.7929 15.8873 22.7929C13.5721 22.7929 11.6953 20.916 11.6953 18.6009ZM15.8873 9.40885C10.8107 9.40885 6.69526 13.5242 6.69526 18.6009C6.69526 23.6775 10.8107 27.7929 15.8873 27.7929C20.9639 27.7929 25.0793 23.6775 25.0793 18.6009C25.0793 13.5242 20.9639 9.40885 15.8873 9.40885Z" fill="#111827"/>
<path d="M46.7724 0.614266C51.0097 -1.08062 55.3633 1.13054 57.0105 2.44799L55.0762 6.11605C53.9553 4.94046 52.0347 4.37318 51.2145 4.23648C47.9065 3.68969 46.8972 5.9224 46.8061 7.1071V9.15754H57.2975V27.5773H52.4106V12.8483H46.7719V27.6115H41.8508V12.8825H39.3223V9.12337H41.9201V7.07292C41.772 5.62624 42.5351 2.30916 46.7724 0.614266Z" fill="#111827"/>
<rect x="61.8926" y="0.177979" width="4.94369" height="27.4336" fill="#111827"/>
<path fill-rule="evenodd" clip-rule="evenodd" d="M73.5615 28C78.2893 28 82.122 23.4142 82.122 17.7574C82.122 12.1006 78.2893 7.51489 73.5615 7.51489C68.8336 7.51489 65.001 12.1006 65.001 17.7574C65.001 23.4142 68.8336 28 73.5615 28ZM71.8154 23.9157C74.7345 23.9157 77.1009 21.2481 77.1009 17.9575C77.1009 14.6669 74.7345 11.9993 71.8154 11.9993C68.8964 11.9993 66.53 14.6669 66.53 17.9575C66.53 21.2481 68.8964 23.9157 71.8154 23.9157Z" fill="#111827"/>
<path d="M90.1257 7.97433H85.5908L85.6922 27.6439H90.5842V15.9236C91.3179 13.1923 95.3742 12.3735 97.3106 12.3056V7.77028C93.8862 7.19955 91.0938 10.4201 90.1257 12.1017V7.97433Z" fill="#111827"/>
</svg>
