<svg width="137" height="41" viewBox="0 0 137 41" fill="none" xmlns="http://www.w3.org/2000/svg">
<path d="M92.5102 14.6039C91.7871 13.5559 90.8834 12.799 89.7989 12.275C88.7143 11.751 87.3286 11.5181 85.762 11.5181C84.1352 11.5181 82.8097 11.751 81.6649 12.275C80.5804 12.799 79.6164 13.4977 78.9536 14.6039C78.4114 15.3026 78.1101 16.3507 77.8691 17.6316C77.6884 18.9708 77.5679 21.0086 77.5679 23.8616C77.5679 26.7146 77.6884 28.7524 77.8691 30.0916C78.1101 31.3725 78.4114 32.4205 78.9536 33.1192C79.6767 34.1672 80.5804 34.9242 81.6649 35.4482C81.7252 35.5064 81.7252 35.5064 81.7252 35.5064C82.8097 36.0304 84.1955 36.2633 85.762 36.2633C87.3286 36.2633 88.6541 36.0304 89.7386 35.5064C89.7989 35.5064 89.7989 35.5064 89.7989 35.4482C90.8834 34.9242 91.8474 34.2255 92.5102 33.1192C92.9922 32.4205 93.3537 31.3725 93.5947 30.0916C93.8357 28.7524 93.8959 26.7146 93.8959 23.9198C93.8959 21.0668 93.8357 19.029 93.5947 17.748C93.3537 16.4089 92.9922 15.3609 92.5102 14.6039ZM88.1118 25.9576C88.1118 28.5195 87.9913 30.0916 87.6298 30.732C87.2683 31.3725 86.6658 31.6636 85.8223 31.6636C84.9185 31.6636 84.316 31.3725 84.0147 30.732C83.6532 30.0333 83.4725 28.4613 83.4725 25.9576V21.7073C83.4725 19.1454 83.6532 17.5151 84.0147 16.9329C84.316 16.2924 84.9185 16.0013 85.8223 16.0013C86.726 16.0013 87.3286 16.2924 87.6901 16.9329C87.9913 17.5151 88.1721 19.1454 88.1721 21.7073V25.9576H88.1118Z" fill="#2A333A"/>
<path d="M91.7869 0.0478516L79.6764 10.47L59.0102 26.8892L45.8755 10.8193L53.4671 9.5966L62.3843 20.4263L91.7869 0.0478516Z" fill="#1BA3DD"/>
<path d="M105.645 15.8267C105.645 17.0494 105.645 18.5632 105.765 20.3099C105.825 22.0567 106.006 24.1527 106.187 26.5981L101.427 12.1003H95.5225V35.39H100.644V31.6054C100.644 29.8587 100.584 28.112 100.523 26.307C100.403 24.4439 100.222 22.5807 100.041 20.6593L104.681 35.39H110.645V12.1003H105.645V15.8267Z" fill="#2A333A"/>
<path d="M136.131 26.5398H130.528V27.5878C130.528 29.2181 130.407 30.3243 129.986 30.9066C129.624 31.4888 129.082 31.7799 128.178 31.7799C127.274 31.7799 126.612 31.3724 126.31 30.6155C125.949 29.7421 125.768 27.5296 125.768 23.9197V23.4539C125.768 20.0769 125.889 18.039 126.31 17.2239C126.612 16.467 127.274 16.0012 128.178 16.0012C129.022 16.0012 129.624 16.2923 129.986 16.991C130.347 17.6315 130.528 18.7377 130.528 20.3098L136.071 20.368V20.1351C136.071 17.2821 135.408 15.1278 134.083 13.7305C132.697 12.2749 130.769 11.5762 128.118 11.5762C126.551 11.5762 125.226 11.8673 124.141 12.3331C123.057 12.8571 122.093 13.6722 121.49 14.6621C120.948 15.3607 120.647 16.4088 120.406 17.6897C120.165 19.0289 120.104 21.0667 120.104 23.9197C120.104 26.7727 120.165 28.8105 120.406 30.1497C120.647 31.4306 120.948 32.4786 121.49 33.1773C122.153 34.2253 123.057 34.9823 124.141 35.5063C124.202 35.5645 124.202 35.5645 124.202 35.5645C125.286 36.0885 126.672 36.3214 128.178 36.3214C129.805 36.3214 131.13 36.0885 132.275 35.5645C132.998 35.2152 133.661 34.8076 134.203 34.2253C135.529 32.828 136.131 30.6737 136.131 27.8207C136.192 27.3549 136.192 26.6562 136.131 26.5398Z" fill="#2A333A"/>
<path d="M118.478 12.1003H112.814V35.39H118.478V12.1003Z" fill="#2A333A"/>
<path d="M43.2242 12.1003H36.4159L31.1138 35.39H36.8979L37.5606 31.0814H42.0192L42.7422 35.39H48.3456L43.2242 12.1003ZM38.1632 26.8893L39.8502 16.6418L41.477 26.8893H38.1632Z" fill="#2A333A"/>
<path d="M66.9029 15.0697C65.9992 13.6723 65.0954 12.4496 64.1314 11.2852C62.9264 12.1585 61.7213 13.1483 60.4561 14.1381C61.2996 15.4773 62.2033 16.7 63.2276 17.8063C64.4326 16.9911 65.6377 16.0595 66.9029 15.0697Z" fill="#2A333A"/>
<path d="M13.3397 13.2648C12.6167 12.8573 11.8335 12.5661 10.8695 12.3915C9.90543 12.2168 8.39916 12.1003 6.29037 12.1003H0.687012V35.39H6.41087V26.5981H8.45941C10.9297 26.5981 12.8577 26.0159 14.123 24.735C15.3883 23.5123 16.051 21.7073 16.051 19.3201C16.051 17.9228 15.81 16.6418 15.328 15.5938C14.9063 14.5458 14.2435 13.7888 13.3397 13.2648ZM9.66443 21.5326C9.12217 22.0567 8.33891 22.2896 7.19413 22.2896C7.01338 22.2896 6.53137 22.2896 6.47112 22.2313V16.3507H6.95313C8.2184 16.3507 9.12217 16.5836 9.60418 17.0494C10.1464 17.457 10.3874 18.0974 10.3874 19.0872C10.3874 20.1353 10.1464 21.0086 9.66443 21.5326Z" fill="#2A333A"/>
<path d="M22.9195 12.1003H17.2559V35.39H29.7881V30.8485H22.9195V12.1003Z" fill="#2A333A"/>
<path d="M44.6099 40.0478L63.8902 28.6941L72.7471 39.5238L80.399 38.3011L67.204 22.2312L44.6099 40.0478Z" fill="#2A333A"/>
</svg>
