<svg width="136" height="40" viewBox="0 0 136 40" fill="none" xmlns="http://www.w3.org/2000/svg">
<path d="M92.1142 14.5561C91.3911 13.5081 90.4874 12.7511 89.4029 12.2271C88.3183 11.7031 86.9326 11.4702 85.366 11.4702C83.7392 11.4702 82.4137 11.7031 81.2689 12.2271C80.1844 12.7511 79.2204 13.4498 78.5576 14.5561C78.0154 15.2548 77.7141 16.3028 77.4731 17.5837C77.2924 18.9229 77.1719 20.9607 77.1719 23.8137C77.1719 26.6667 77.2924 28.7045 77.4731 30.0437C77.7141 31.3246 78.0154 32.3727 78.5576 33.0714C79.2807 34.1194 80.1844 34.8763 81.2689 35.4003C81.3292 35.4585 81.3292 35.4585 81.3292 35.4585C82.4137 35.9826 83.7995 36.2155 85.366 36.2155C86.9326 36.2155 88.2581 35.9826 89.3426 35.4585C89.4029 35.4585 89.4029 35.4585 89.4029 35.4003C90.4874 34.8763 91.4514 34.1776 92.1142 33.0714C92.5962 32.3727 92.9577 31.3246 93.1987 30.0437C93.4397 28.7045 93.4999 26.6667 93.4999 23.8719C93.4999 21.019 93.4397 18.9811 93.1987 17.7002C92.9577 16.361 92.5962 15.313 92.1142 14.5561ZM87.7158 25.9098C87.7158 28.4717 87.5953 30.0437 87.2338 30.6842C86.8723 31.3246 86.2698 31.6158 85.4263 31.6158C84.5225 31.6158 83.92 31.3246 83.6187 30.6842C83.2572 29.9855 83.0765 28.4134 83.0765 25.9098V21.6594C83.0765 19.0976 83.2572 17.4673 83.6187 16.8851C83.92 16.2446 84.5225 15.9535 85.4263 15.9535C86.3301 15.9535 86.9326 16.2446 87.2941 16.8851C87.5953 17.4673 87.7761 19.0976 87.7761 21.6594V25.9098H87.7158Z" fill="#111827"/>
<path d="M91.3909 0L79.2804 10.4221L58.6142 26.8413L45.4795 10.7715L53.0711 9.54875L61.9883 20.3784L91.3909 0Z" fill="#111827"/>
<path d="M105.249 15.7788C105.249 17.0015 105.249 18.5154 105.37 20.2621C105.43 22.0088 105.611 24.1049 105.791 26.5503L101.032 12.0525H95.127V35.3421H100.248V31.5576C100.248 29.8108 100.188 28.0641 100.128 26.2592C100.007 24.396 99.8265 22.5328 99.6458 20.6114L104.285 35.3421H110.25V12.0525H105.249V15.7788Z" fill="#111827"/>
<path d="M135.736 26.4919H130.132V27.5399C130.132 29.1702 130.012 30.2765 129.59 30.8587C129.229 31.441 128.686 31.7321 127.783 31.7321C126.879 31.7321 126.216 31.3245 125.915 30.5676C125.553 29.6942 125.373 27.4817 125.373 23.8718V23.406C125.373 20.029 125.493 17.9912 125.915 17.1761C126.216 16.4191 126.879 15.9534 127.783 15.9534C128.626 15.9534 129.229 16.2445 129.59 16.9432C129.952 17.5836 130.132 18.6899 130.132 20.2619L135.676 20.3202V20.0873C135.676 17.2343 135.013 15.08 133.687 13.6826C132.301 12.227 130.373 11.5283 127.722 11.5283C126.156 11.5283 124.83 11.8194 123.746 12.2852C122.661 12.8093 121.697 13.6244 121.095 14.6142C120.553 15.3129 120.251 16.3609 120.01 17.6419C119.769 18.981 119.709 21.0189 119.709 23.8718C119.709 26.7248 119.769 28.7627 120.01 30.1018C120.251 31.3827 120.553 32.4308 121.095 33.1295C121.758 34.1775 122.661 34.9344 123.746 35.4584C123.806 35.5167 123.806 35.5167 123.806 35.5167C124.891 36.0407 126.276 36.2736 127.783 36.2736C129.409 36.2736 130.735 36.0407 131.88 35.5167C132.603 35.1673 133.265 34.7597 133.808 34.1775C135.133 32.7801 135.736 30.6258 135.736 27.7728C135.796 27.3071 135.796 26.6084 135.736 26.4919Z" fill="#111827"/>
<path d="M118.082 12.0525H112.418V35.3421H118.082V12.0525Z" fill="#111827"/>
<path d="M42.8283 12.0525H36.0199L30.7178 35.3421H36.5019L37.1646 31.0335H41.6232L42.3462 35.3421H47.9496L42.8283 12.0525ZM37.7672 26.8414L39.4542 16.594L41.081 26.8414H37.7672Z" fill="#111827"/>
<path d="M66.5074 15.0219C65.6037 13.6245 64.6999 12.4018 63.7359 11.2373C62.5308 12.1107 61.3258 13.1005 60.0605 14.0903C60.9041 15.4294 61.8078 16.6521 62.8321 17.7584C64.0371 16.9433 65.2421 16.0117 66.5074 15.0219Z" fill="#111827"/>
<path d="M12.9438 13.217C12.2207 12.8094 11.4375 12.5183 10.4735 12.3436C9.50944 12.1689 8.00316 12.0525 5.89437 12.0525H0.291016V35.3421H6.01487V26.5503H8.06341C10.5337 26.5503 12.4617 25.9681 13.727 24.6871C14.9923 23.4644 15.6551 21.6595 15.6551 19.2723C15.6551 17.8749 15.414 16.594 14.932 15.5459C14.5103 14.4979 13.8475 13.741 12.9438 13.217ZM9.26843 21.4848C8.72617 22.0088 7.94291 22.2417 6.79814 22.2417C6.61738 22.2417 6.13538 22.2417 6.07512 22.1835V16.3028H6.55713C7.82241 16.3028 8.72617 16.5357 9.20818 17.0015C9.75044 17.4091 9.99145 18.0496 9.99145 19.0394C9.99145 20.0874 9.75044 20.9608 9.26843 21.4848Z" fill="#111827"/>
<path d="M22.523 12.0525H16.8594V35.3421H29.3916V30.8007H22.523V12.0525Z" fill="#111827"/>
<path d="M44.2139 39.9999L63.4942 28.6462L72.3511 39.4759L80.003 38.2532L66.808 22.1833L44.2139 39.9999Z" fill="#111827"/>
</svg>
