<svg width="204" height="41" viewBox="0 0 204 41" fill="none" xmlns="http://www.w3.org/2000/svg">
<path d="M173.399 16.3113H170.521L170.521 21.3616L171.064 22.8674C172.957 22.1872 173.41 19.7977 173.399 18.688V16.3113Z" fill="#0A2F7A"/>
<path d="M132.629 19.2791L131.082 15.3508L127.269 24.4779H130.55L132.629 19.2791Z" fill="#0A2F7A"/>
<path fill-rule="evenodd" clip-rule="evenodd" d="M64.9453 16.1384C63.5597 16.1384 62.4365 17.2617 62.4365 18.6472V18.9334C62.6285 18.6283 62.9683 18.4255 63.3555 18.4255C63.9547 18.4255 64.4404 18.9113 64.4404 19.5105V19.7083H62.4365V21.3103H67.4541V18.6472C67.4541 17.2617 66.3309 16.1384 64.9453 16.1384Z" fill="#0A2F7A"/>
<rect x="47.333" y="13.2644" width="3.34961" height="11.2354" fill="#0A2F7A"/>
<rect x="74.6357" y="13.2644" width="3.34961" height="11.2354" fill="#0A2F7A"/>
<rect x="90.8057" y="13.2644" width="3.10352" height="11.2354" fill="#0A2F7A"/>
<rect x="140.933" y="16.2898" width="3.10352" height="8.20996" fill="#0A2F7A"/>
<rect x="160.687" y="13.2483" width="3.10352" height="11.2515" fill="#0A2F7A"/>
<rect x="181.735" y="16.3064" width="3.10352" height="8.19336" fill="#0A2F7A"/>
<path d="M110.276 22.0553C109.301 22.4623 108.844 22.4997 108.634 21.4186V18.1572L110.26 18.1433V16.2635H108.634V15.1008H106.65L104.468 18.1555H105.531V22.2224C105.531 23.6031 106.65 24.7224 108.031 24.7224H108.283C109.265 24.557 109.678 24.3449 110.276 23.7905V22.0553Z" fill="#0A2F7A"/>
<path d="M180.09 22.0553C179.115 22.4623 178.658 22.4997 178.449 21.4186V18.1572L180.075 18.1433V16.2635H178.449V15.1008H176.464L174.282 18.1555H175.345V22.2224C175.345 23.6031 176.465 24.7224 177.845 24.7224H178.097C179.079 24.557 179.493 24.3449 180.09 23.7905V22.0553Z" fill="#0A2F7A"/>
<path fill-rule="evenodd" clip-rule="evenodd" d="M98.1631 16.2937H95.124V22.2224C95.124 23.6031 96.2433 24.7224 97.624 24.7224H97.917C99.0216 24.7224 99.917 23.827 99.917 22.7224V22.0585L99.6994 22.0522C99.5886 22.1958 99.4422 22.2658 99.2167 22.3171H99.1631C98.6108 22.3171 98.1631 21.8694 98.1631 21.3171V16.2937Z" fill="#0A2F7A"/>
<path fill-rule="evenodd" clip-rule="evenodd" d="M146.325 24.4998H149.364V18.571C149.364 17.1903 148.245 16.071 146.864 16.071H146.571C145.467 16.071 144.571 16.9665 144.571 18.071V18.735L144.789 18.7412C144.9 18.5977 145.046 18.5276 145.272 18.4763H145.325C145.877 18.4763 146.325 18.924 146.325 19.4763V24.4998Z" fill="#0A2F7A"/>
<path d="M100.491 16.2937H103.599V24.4998H101.285L100.491 23.2558V16.2937Z" fill="#0A2F7A"/>
<rect x="79.5557" y="13.2644" width="3.32227" height="11.2354" fill="#0A2F7A"/>
<path fill-rule="evenodd" clip-rule="evenodd" d="M51.4795 13.2644H54.1709C55.8278 13.2644 57.1709 14.6076 57.1709 16.2644V17.4299C57.1709 18.8439 56.1927 20.0294 54.8761 20.3466L55.0319 20.3717L57.473 24.4294H53.5615L51.7153 20.2391L51.4795 19.7673V18.4314H52.7881C53.3404 18.4314 53.7881 17.9837 53.7881 17.4314V16.7732C53.7881 16.2209 53.3404 15.7732 52.7881 15.7732H51.4795V13.2644Z" fill="#0A2F7A"/>
<path fill-rule="evenodd" clip-rule="evenodd" d="M86.3506 13.2644H83.6592V15.7732H84.9678C85.5201 15.7732 85.9678 16.2209 85.9678 16.7732V17.4314C85.9678 17.9837 85.5201 18.4314 84.9678 18.4314H83.6592V20.2774L83.6599 20.94H86.3506C88.0074 20.94 89.3506 19.5969 89.3506 17.94V16.2644C89.3506 14.6076 88.0074 13.2644 86.3506 13.2644Z" fill="#0A2F7A"/>
<path fill-rule="evenodd" clip-rule="evenodd" d="M62.124 16.1384C60.191 16.1384 58.624 17.7054 58.624 19.6384V21.1785C58.624 23.1115 60.191 24.6785 62.124 24.6785H63.2979V24.4662C62.4201 24.0782 61.8076 23.1998 61.8076 22.1785V18.6384C61.8076 17.6171 62.4201 16.7387 63.2979 16.3507V16.1384H62.124Z" fill="#0A2F7A"/>
<path fill-rule="evenodd" clip-rule="evenodd" d="M115.126 16.1384C113.193 16.1384 111.626 17.7054 111.626 19.6384V21.1785C111.626 23.1115 113.193 24.6785 115.126 24.6785H116.3V24.4662C115.422 24.0782 114.81 23.1998 114.81 22.1785V18.6384C114.81 17.6171 115.422 16.7387 116.3 16.3507V16.1384H115.126Z" fill="#0A2F7A"/>
<path fill-rule="evenodd" clip-rule="evenodd" d="M189.983 16.1384C188.05 16.1384 186.483 17.7054 186.483 19.6384V21.1785C186.483 23.1115 188.05 24.6785 189.983 24.6785H191.157V24.4662C190.279 24.0782 189.667 23.1998 189.667 22.1785V18.6384C189.667 17.6171 190.279 16.7387 191.157 16.3507V16.1384H189.983Z" fill="#0A2F7A"/>
<path fill-rule="evenodd" clip-rule="evenodd" d="M72.0717 16.1384C70.2787 16.1384 68.8252 17.592 68.8252 19.385V21.5325C68.8252 23.2699 70.2337 24.6785 71.9712 24.6785C72.0914 24.6785 72.2117 24.6674 72.3286 24.6398C73.1113 24.4549 73.4943 24.1676 74.0693 23.5336V21.8809C73.8603 22.019 73.7045 22.0793 73.4346 22.1111H73.1221C72.5698 22.1111 72.1221 21.6634 72.1221 21.1111V19.5237C72.1221 18.9714 72.5698 18.5237 73.1221 18.5237H73.4346C73.6655 18.5784 73.8615 18.6258 74.0693 18.7479V17.0869C74.0508 17.0723 74.0327 17.0579 74.0147 17.0437C73.464 16.6078 73.1757 16.3797 72.5013 16.1927C72.3616 16.154 72.2166 16.1384 72.0717 16.1384Z" fill="#0A2F7A"/>
<path fill-rule="evenodd" clip-rule="evenodd" d="M62.5381 22.0513C62.7151 22.245 63.31 22.5358 64.3709 22.3849C64.5466 22.3603 64.9784 22.2293 65.304 21.9016H67.454V23.0385C67.454 23.9442 66.7198 24.6785 65.8141 24.6785H65.311C63.8276 24.6785 62.6159 23.5153 62.5381 22.0513Z" fill="#0A2F7A"/>
<path fill-rule="evenodd" clip-rule="evenodd" d="M115.689 17.8557C115.969 16.7176 116.808 16.237 117.352 16.0924C117.497 16.0632 117.646 16.0481 117.797 16.0481C119.512 16.0481 120.902 17.9936 120.902 20.3936C120.902 22.7935 119.512 24.739 117.797 24.739C117.503 24.739 117.218 24.6818 116.949 24.5749C115.91 24.065 115.553 22.7957 115.506 22.137C115.738 22.348 116.015 22.4705 116.312 22.4705C117.132 22.4705 117.797 21.5406 117.797 20.3936C117.797 19.2465 117.132 18.3167 116.312 18.3167C116.009 18.3167 115.726 18.4443 115.491 18.6633C115.55 18.2474 115.627 17.9828 115.689 17.8557ZM115.504 22.1155C115.505 22.1226 115.505 22.1298 115.506 22.137L115.504 22.1155Z" fill="#0A2F7A"/>
<path d="M135.011 13.2483H131.151L134.04 20.4806H132.954L132.007 22.6988H134.826L135.634 24.4548H139.678L135.011 13.2483Z" fill="#0A2F7A"/>
<path d="M155.724 16.0947H154.954L154.954 16.407C155.745 16.6048 155.976 17.5143 156.001 17.9443V23.6488L156.831 24.4791H159.005V18.8491C158.843 16.5917 156.75 16.0722 155.724 16.0947Z" fill="#0A2F7A"/>
<path d="M155.37 18.0169C154.703 15.6424 152.285 15.9911 151.159 16.4622L151.165 18.9921C153.031 17.8952 154.758 18.4597 155.37 18.879V18.0169Z" fill="#0A2F7A"/>
<path d="M154.377 19.5779H155.368L155.355 21.22H154.571C153.784 21.2451 153.525 21.69 153.493 21.9094C153.33 22.605 153.863 22.724 154.421 22.5799C154.867 22.4646 155.154 22.1809 155.242 22.0535H155.347V23.6481C154.666 24.6361 153.265 24.7696 152.65 24.7128C151.321 24.5538 150.724 23.5108 150.591 23.0092V21.4902C151.102 20.2693 152.195 19.8719 152.692 19.7725C153.089 19.693 153.981 19.6096 154.377 19.5779Z" fill="#0A2F7A"/>
<path d="M167.993 16.2883H164.747L167.544 24.3418V28.2077H170.665V24.1956L167.993 16.2883Z" fill="#0A2F7A"/>
<circle cx="183.286" cy="13.5793" r="1.69141" fill="#0A2F7A"/>
<path d="M194.244 18.5726V16.4861C193.58 16.0453 192.612 16.1277 192.211 16.2241C190.708 16.636 190.296 18.1542 190.278 18.8618C191.189 18.168 193.301 18.3799 194.244 18.5726Z" fill="#0A2F7A"/>
<path d="M194.244 22.2536V24.34C193.58 24.7808 192.612 24.6984 192.211 24.6021C190.708 24.1902 190.296 22.672 190.278 21.9644C191.189 22.6582 193.301 22.4463 194.244 22.2536Z" fill="#0A2F7A"/>
<path d="M202.969 18.78V16.4436C202.353 16.0806 201.495 16.1605 201.143 16.2459C199.682 16.7009 199.629 17.775 199.786 18.2552C201.386 18.1377 202.575 18.5561 202.969 18.78Z" fill="#0A2F7A"/>
<path d="M196.145 21.8845L196.145 24.301C196.761 24.664 197.838 24.7866 198.189 24.7013C200.135 24.0755 199.914 23.1286 199.754 22.5376C197.902 22.8767 196.539 22.1084 196.145 21.8845Z" fill="#0A2F7A"/>
<path d="M196.17 17.3667C197.036 16.176 199.061 16.0493 199.965 16.1348L199.94 16.4009C199.083 16.7039 199.099 17.7573 199.215 18.2461C199.447 18.8972 200.399 19.3946 200.846 19.5619C201.711 19.9227 202.529 20.3937 202.83 20.5841C203.984 21.5582 203.782 22.8139 203.536 23.32C202.707 24.6308 200.695 24.8082 199.793 24.733V24.4474C201.645 23.0404 199.733 21.7065 198.546 21.2154L197.042 20.3887C196.39 19.8775 195.304 18.5575 196.17 17.3667Z" fill="#0A2F7A"/>
<path fill-rule="evenodd" clip-rule="evenodd" d="M12.6264 18.4097C12.9138 18.4097 13.1468 18.6427 13.1468 18.9301C13.1468 22.7304 15.1578 26.0614 18.1763 27.9163C18.4211 28.0668 18.4977 28.3873 18.3472 28.6322C18.1967 28.8771 17.8762 28.9536 17.6313 28.8031C14.3176 26.7668 12.106 23.1069 12.106 18.9301C12.106 18.6427 12.339 18.4097 12.6264 18.4097Z" fill="#F7CC28"/>
<path fill-rule="evenodd" clip-rule="evenodd" d="M23.6858 8.39071C22.5155 8.39071 21.3907 8.58127 20.3402 8.93266C20.0676 9.02384 19.7727 8.87678 19.6816 8.6042C19.5904 8.33163 19.7374 8.03674 20.01 7.94557C21.1656 7.55903 22.4018 7.34985 23.6858 7.34985C28.3414 7.34985 32.3542 10.0971 34.1936 14.0567C34.3147 14.3173 34.2016 14.6268 33.9409 14.7479C33.6802 14.869 33.3707 14.7559 33.2496 14.4952C31.5746 10.8893 27.9214 8.39071 23.6858 8.39071ZM16.2682 10.71C16.4706 10.9141 16.4692 11.2436 16.2651 11.446C15.3981 12.3057 14.6799 13.3147 14.1522 14.4309C14.0293 14.6908 13.7191 14.8018 13.4592 14.679C13.1994 14.5561 13.0883 14.2459 13.2112 13.986C13.7913 12.7591 14.5803 11.6508 15.5322 10.7069C15.7363 10.5045 16.0659 10.5059 16.2682 10.71Z" fill="#A104C3"/>
<path fill-rule="evenodd" clip-rule="evenodd" d="M23.3933 6.56217C16.5608 6.56217 11.1879 12.1572 11.1879 19.0023C11.1879 25.8445 16.7906 31.5666 23.6261 31.5666C30.4672 31.5666 36.1937 25.9248 36.1937 19.0883C36.1937 18.344 36.1118 17.3974 35.9864 16.6907L35.9635 16.562L39.9401 12.3416L40.3189 12.6985L36.5209 16.7293C36.6392 17.4492 36.7141 18.3591 36.7141 19.0883C36.7141 26.2169 30.7499 32.087 23.6261 32.087C16.4965 32.087 10.6675 26.1252 10.6675 19.0023C10.6675 11.8825 16.2607 6.04175 23.3933 6.04175C28.5195 6.04175 33.3383 9.05365 35.4396 13.4024L38.7768 9.67048L39.1647 10.0174L35.2943 14.3456L35.1314 13.9761C33.2154 9.62986 28.4647 6.56217 23.3933 6.56217Z" fill="#3A81C2"/>
<path fill-rule="evenodd" clip-rule="evenodd" d="M23.6574 2.12955C14.4427 2.12955 6.97273 9.59952 6.97273 18.8142C6.97273 22.137 7.94297 25.2299 9.61525 27.8291L10.1102 28.5984L3.81482 33.9062C2.77707 34.7702 2.70554 36.3389 3.66038 37.2937C4.61521 38.2486 6.18391 38.177 7.04791 37.1393L7.05323 37.1329L12.2302 31.0148L13.0234 31.6716C15.911 34.0626 19.6151 35.4988 23.6574 35.4988C32.872 35.4988 40.342 28.0289 40.342 18.8142C40.342 16.6301 40.1631 14.7866 39.4018 12.8776L40.9168 11.3305C41.7743 13.4807 42.4237 16.3617 42.4237 18.8142C42.4237 29.1785 34.0217 37.5805 23.6574 37.5805C19.4828 37.5805 15.6245 36.2163 12.5071 33.9102L8.64772 38.4713L8.64498 38.4745C6.99694 40.4502 4.00805 40.5854 2.18839 38.7657C0.368571 36.9459 0.503948 33.9566 2.48007 32.3087L2.48285 32.3064L7.38694 28.1716C5.79923 25.4165 4.89103 22.2201 4.89103 18.8142C4.89103 8.44983 13.293 0.0478516 23.6574 0.0478516C30.6406 0.0478516 36.7316 3.86266 39.9623 9.51704L38.4333 10.8282C35.5581 5.79594 29.8635 2.12955 23.6574 2.12955Z" fill="#0A307B"/>
<path d="M18.6916 28.2131C15.3896 26.4328 13.1468 22.9428 13.1468 18.9299H12.106C12.106 23.5378 14.7971 27.516 18.6916 29.3805V28.2131Z" fill="#F7CC28"/>
<path d="M32.4738 17.6921V17.4126H28.9795V21.3226L32.4738 17.6921Z" fill="#39C009"/>
<path d="M28.9795 22.8236L32.4738 19.1931V24.7479C32.6008 24.5565 32.7218 24.3606 32.8363 24.1606C32.9792 23.9112 33.2972 23.8248 33.5466 23.9677C33.796 24.1106 33.8823 24.4286 33.7395 24.678C33.3741 25.3159 32.9497 25.9157 32.4738 26.4699V26.4825C32.0962 26.9243 31.6887 27.3206 31.2835 27.6683C30.8245 28.0677 30.3337 28.4316 29.8155 28.7557C29.7981 28.7666 29.7802 28.7763 29.7621 28.7849C29.4589 28.9736 29.1906 29.1209 28.9795 29.2246V22.8236Z" fill="#39C009"/>
<path d="M27.885 22.1653L27.885 10.8896H24.378L24.3779 21.2817L25.128 20.5821L27.885 22.1653Z" fill="#0FABD1"/>
<path d="M24.3779 22.7051L25.2761 21.8674L27.885 23.3656L27.885 29.7244C26.787 30.152 25.608 30.4169 24.3779 30.4897L24.3779 22.7051Z" fill="#0FABD1"/>
<path d="M23.322 22.2669V13.3999H19.8149V22.7303L21.6332 23.8422L23.322 22.2669Z" fill="#D9610A"/>
<path d="M19.8149 23.9504L21.7648 25.1428L23.322 23.6903V30.5047C22.096 30.467 20.9173 30.2387 19.8149 29.848V23.9504Z" fill="#D9610A"/>
<path d="M18.6896 22.042L18.471 21.9084L15.5299 24.8496L16.2659 25.5856L18.6274 23.224L18.6896 23.2621V29.3318C17.2201 28.7096 15.8495 27.5377 15.2715 26.9532V17.4878H18.6896V22.042Z" fill="#F7CC28"/>
<circle cx="15.6208" cy="25.4682" r="1.19698" fill="white"/>
<circle cx="21.7785" cy="24.4558" r="1.19698" fill="white"/>
<circle cx="28.1066" cy="22.8452" r="1.19698" fill="white"/>
<circle cx="18.5813" cy="22.6594" r="1.19698" fill="white"/>
<circle cx="25.2009" cy="21.2385" r="1.19698" fill="white"/>
<circle cx="31.5319" cy="19.6401" r="1.19698" fill="white"/>
<path fill-rule="evenodd" clip-rule="evenodd" d="M35.3823 15.0902C35.0904 15.0902 34.8538 15.3268 34.8538 15.6187C34.8538 15.9106 35.0904 16.1472 35.3823 16.1472C35.6742 16.1472 35.9108 15.9106 35.9108 15.6187C35.9108 15.3268 35.6742 15.0902 35.3823 15.0902ZM34.4375 15.6187C34.4375 15.0969 34.8605 14.6738 35.3823 14.6738C35.9042 14.6738 36.3272 15.0969 36.3272 15.6187C36.3272 16.1405 35.9042 16.5635 35.3823 16.5635C34.8605 16.5635 34.4375 16.1405 34.4375 15.6187ZM31.5317 19.1113C31.2398 19.1113 31.0032 19.3479 31.0032 19.6398C31.0032 19.9317 31.2398 20.1683 31.5317 20.1683C31.8236 20.1683 32.0602 19.9317 32.0602 19.6398C32.0602 19.3479 31.8236 19.1113 31.5317 19.1113ZM30.5869 19.6398C30.5869 19.118 31.0099 18.6949 31.5317 18.6949C32.0536 18.6949 32.4766 19.118 32.4766 19.6398C32.4766 20.1616 32.0536 20.5846 31.5317 20.5846C31.0099 20.5846 30.5869 20.1616 30.5869 19.6398ZM25.2002 20.7099C24.9083 20.7099 24.6717 20.9465 24.6717 21.2384C24.6717 21.5303 24.9083 21.7669 25.2002 21.7669C25.4921 21.7669 25.7287 21.5303 25.7287 21.2384C25.7287 20.9465 25.4921 20.7099 25.2002 20.7099ZM24.2554 21.2384C24.2554 20.7166 24.6784 20.2936 25.2002 20.2936C25.722 20.2936 26.1451 20.7166 26.1451 21.2384C26.1451 21.7602 25.722 22.1833 25.2002 22.1833C24.6784 22.1833 24.2554 21.7602 24.2554 21.2384ZM18.5808 22.1307C18.2889 22.1307 18.0523 22.3673 18.0523 22.6592C18.0523 22.9511 18.2889 23.1877 18.5808 23.1877C18.8727 23.1877 19.1093 22.9511 19.1093 22.6592C19.1093 22.3673 18.8727 22.1307 18.5808 22.1307ZM17.636 22.6592C17.636 22.1373 18.059 21.7143 18.5808 21.7143C19.1026 21.7143 19.5257 22.1373 19.5257 22.6592C19.5257 23.181 19.1026 23.604 18.5808 23.604C18.059 23.604 17.636 23.181 17.636 22.6592ZM28.1068 22.3164C27.8149 22.3164 27.5783 22.553 27.5783 22.8449C27.5783 23.1368 27.8149 23.3734 28.1068 23.3734C28.3987 23.3734 28.6353 23.1368 28.6353 22.8449C28.6353 22.553 28.3987 22.3164 28.1068 22.3164ZM27.1619 22.8449C27.1619 22.3231 27.585 21.9001 28.1068 21.9001C28.6286 21.9001 29.0516 22.3231 29.0516 22.8449C29.0516 23.3667 28.6286 23.7898 28.1068 23.7898C27.585 23.7898 27.1619 23.3667 27.1619 22.8449ZM21.7793 23.9272C21.4875 23.9272 21.2508 24.1639 21.2508 24.4558C21.2508 24.7476 21.4875 24.9843 21.7793 24.9843C22.0712 24.9843 22.3078 24.7476 22.3078 24.4558C22.3078 24.1639 22.0712 23.9272 21.7793 23.9272ZM20.8345 24.4558C20.8345 23.9339 21.2575 23.5109 21.7793 23.5109C22.3012 23.5109 22.7242 23.9339 22.7242 24.4558C22.7242 24.9776 22.3012 25.4006 21.7793 25.4006C21.2575 25.4006 20.8345 24.9776 20.8345 24.4558ZM15.6206 24.9396C15.3287 24.9396 15.0921 25.1763 15.0921 25.4681C15.0921 25.76 15.3287 25.9966 15.6206 25.9966C15.9125 25.9966 16.1491 25.76 16.1491 25.4681C16.1491 25.1763 15.9125 24.9396 15.6206 24.9396ZM14.6758 25.4681C14.6758 24.9463 15.0988 24.5233 15.6206 24.5233C16.1425 24.5233 16.5655 24.9463 16.5655 25.4681C16.5655 25.99 16.1425 26.413 15.6206 26.413C15.0988 26.413 14.6758 25.99 14.6758 25.4681Z" fill="#FE0000"/>
<path d="M43.9105 6.56201L41.0236 7.395L41.9185 8.25637L35.5276 14.8964C35.7103 14.933 35.8685 15.0373 35.9751 15.1819L42.2935 8.61727L43.1884 9.47864L43.9105 6.56201Z" fill="#FE0000"/>
<path d="M34.968 16.2282C34.819 16.1269 34.7091 15.9724 34.6656 15.7919L31.6604 18.9143C31.8451 18.947 32.0061 19.0486 32.1159 19.1915L34.968 16.2282Z" fill="#FE0000"/>
<path d="M28.4853 22.2131L30.8112 19.7965C30.8508 19.9792 30.9582 20.1366 31.1057 20.2411L28.81 22.6263C28.7559 22.452 28.6388 22.3054 28.4853 22.2131Z" fill="#FE0000"/>
<path d="M27.3733 22.7707C27.3916 22.5869 27.4776 22.4229 27.6059 22.3042L25.9292 21.3413C25.9038 21.5231 25.812 21.6837 25.679 21.7977L27.3733 22.7707Z" fill="#FE0000"/>
<path d="M24.8665 21.8956L22.4493 24.1502C22.3751 23.9874 22.2432 23.8564 22.0799 23.7831L24.5153 21.5115C24.5819 21.6782 24.7076 21.8148 24.8665 21.8956Z" fill="#FE0000"/>
<path d="M19.0836 23.197C19.2115 23.0773 19.2967 22.9124 19.3138 22.7278L21.2693 23.9236C21.1427 24.0449 21.0593 24.2109 21.0445 24.3962L19.0836 23.197Z" fill="#FE0000"/>
<path d="M17.8754 22.8739C17.9284 23.0482 18.0444 23.1952 18.1969 23.2883L16.3004 25.1849C16.2314 25.0194 16.1037 24.8844 15.9434 24.8059L17.8754 22.8739Z" fill="#FE0000"/>
</svg>
