<svg width="208" height="40" viewBox="0 0 208 40" fill="none" xmlns="http://www.w3.org/2000/svg">
<path d="M177.383 16.2634H174.504L174.505 21.3137L175.048 22.8196C176.941 22.1394 177.393 19.7499 177.383 18.6402V16.2634Z" fill="#111827"/>
<path d="M136.611 19.2312L135.064 15.303L131.25 24.4301H134.532L136.611 19.2312Z" fill="#111827"/>
<path fill-rule="evenodd" clip-rule="evenodd" d="M68.9268 16.0906C67.5412 16.0906 66.418 17.2138 66.418 18.5994V18.8856C66.61 18.5805 66.9498 18.3777 67.3369 18.3777C67.9361 18.3777 68.4219 18.8634 68.4219 19.4626V19.6604H66.418V21.2625H71.4355V18.5994C71.4355 17.2138 70.3123 16.0906 68.9268 16.0906Z" fill="#111827"/>
<rect x="51.3145" y="13.2166" width="3.34961" height="11.2354" fill="#111827"/>
<rect x="78.6172" y="13.2166" width="3.34961" height="11.2354" fill="#111827"/>
<rect x="94.7871" y="13.2166" width="3.10352" height="11.2354" fill="#111827"/>
<rect x="144.914" y="16.2419" width="3.10352" height="8.20996" fill="#111827"/>
<rect x="164.668" y="13.2004" width="3.10352" height="11.2515" fill="#111827"/>
<rect x="185.719" y="16.2585" width="3.10352" height="8.19336" fill="#111827"/>
<path d="M114.257 22.0074C113.282 22.4144 112.825 22.4518 112.616 21.3707V18.1094L114.242 18.0955V16.2156H112.616V15.053H110.631L108.449 18.1077H109.512V22.1746C109.512 23.5553 110.632 24.6746 112.012 24.6746H112.264C113.246 24.5092 113.66 24.2971 114.257 23.7426V22.0074Z" fill="#111827"/>
<path d="M184.074 22.0074C183.098 22.4144 182.642 22.4518 182.432 21.3707V18.1094L184.058 18.0955V16.2156H182.432V15.053H180.448L178.266 18.1077H179.329V22.1746C179.329 23.5553 180.448 24.6746 181.829 24.6746H182.08C183.063 24.5092 183.476 24.2971 184.074 23.7426V22.0074Z" fill="#111827"/>
<path fill-rule="evenodd" clip-rule="evenodd" d="M102.145 16.2458H99.1055V22.1746C99.1055 23.5553 100.225 24.6746 101.605 24.6746H101.898C103.003 24.6746 103.898 23.7791 103.898 22.6746V22.0106L103.681 22.0044C103.57 22.1479 103.424 22.218 103.198 22.2693H103.145C102.592 22.2693 102.145 21.8216 102.145 21.2693V16.2458Z" fill="#111827"/>
<path fill-rule="evenodd" clip-rule="evenodd" d="M150.307 24.4519H153.346V18.5232C153.346 17.1425 152.226 16.0232 150.846 16.0232H150.553C149.448 16.0232 148.553 16.9186 148.553 18.0232V18.6871L148.77 18.6934C148.881 18.5498 149.027 18.4798 149.253 18.4285H149.307C149.859 18.4285 150.307 18.8762 150.307 19.4285V24.4519Z" fill="#111827"/>
<path d="M104.473 16.2458H107.58V24.4519H105.266L104.473 23.2079V16.2458Z" fill="#111827"/>
<rect x="83.5371" y="13.2166" width="3.32227" height="11.2354" fill="#111827"/>
<path fill-rule="evenodd" clip-rule="evenodd" d="M55.4609 13.2166H58.1523C59.8092 13.2166 61.1523 14.5597 61.1523 16.2166V17.3821C61.1523 18.796 60.1741 19.9815 58.8576 20.2987L59.0134 20.3239L61.4545 24.3816H57.543L55.6967 20.1912L55.4609 19.7195V18.3835H56.7695C57.3218 18.3835 57.7695 17.9358 57.7695 17.3835V16.7253C57.7695 16.1731 57.3218 15.7253 56.7695 15.7253H55.4609V13.2166Z" fill="#111827"/>
<path fill-rule="evenodd" clip-rule="evenodd" d="M90.332 13.2166H87.6406V15.7253H88.9492C89.5015 15.7253 89.9492 16.1731 89.9492 16.7253V17.3835C89.9492 17.9358 89.5015 18.3835 88.9492 18.3835H87.6406V20.2295L87.6413 20.8922H90.332C91.9889 20.8922 93.332 19.549 93.332 17.8922V16.2166C93.332 14.5597 91.9889 13.2166 90.332 13.2166Z" fill="#111827"/>
<path fill-rule="evenodd" clip-rule="evenodd" d="M66.1055 16.0906C64.1725 16.0906 62.6055 17.6576 62.6055 19.5906V21.1306C62.6055 23.0636 64.1725 24.6306 66.1055 24.6306H67.2793V24.4183C66.4016 24.0303 65.7891 23.152 65.7891 22.1306V18.5906C65.7891 17.5692 66.4016 16.6909 67.2793 16.3029V16.0906H66.1055Z" fill="#111827"/>
<path fill-rule="evenodd" clip-rule="evenodd" d="M119.107 16.0906C117.174 16.0906 115.607 17.6576 115.607 19.5906V21.1306C115.607 23.0636 117.174 24.6306 119.107 24.6306H120.281V24.4183C119.404 24.0303 118.791 23.152 118.791 22.1306V18.5906C118.791 17.5692 119.404 16.6909 120.281 16.3029V16.0906H119.107Z" fill="#111827"/>
<path fill-rule="evenodd" clip-rule="evenodd" d="M193.963 16.0906C192.03 16.0906 190.463 17.6576 190.463 19.5906V21.1306C190.463 23.0636 192.03 24.6306 193.963 24.6306H195.137V24.4183C194.259 24.0303 193.646 23.152 193.646 22.1306V18.5906C193.646 17.5692 194.259 16.6909 195.137 16.3029V16.0906H193.963Z" fill="#111827"/>
<path fill-rule="evenodd" clip-rule="evenodd" d="M76.0532 16.0906C74.2602 16.0906 72.8066 17.5441 72.8066 19.3371V21.4846C72.8066 23.2221 74.2152 24.6306 75.9527 24.6306C76.0728 24.6306 76.1931 24.6196 76.3101 24.5919C77.0927 24.407 77.4758 24.1197 78.0508 23.4857V21.833C77.8417 21.9711 77.686 22.0315 77.416 22.0632H77.1035C76.5512 22.0632 76.1035 21.6155 76.1035 21.0632V19.4758C76.1035 18.9235 76.5512 18.4758 77.1035 18.4758H77.416C77.6469 18.5306 77.8429 18.5779 78.0508 18.7V17.0391C78.0323 17.0244 78.0141 17.01 77.9962 16.9959C77.4454 16.56 77.1571 16.3318 76.4827 16.1448C76.3431 16.1061 76.1981 16.0906 76.0532 16.0906Z" fill="#111827"/>
<path fill-rule="evenodd" clip-rule="evenodd" d="M66.5195 22.0035C66.6965 22.1971 67.2914 22.4879 68.3523 22.337C68.5281 22.3125 68.9598 22.1815 69.2855 21.8538H71.4355V22.9906C71.4355 23.8964 70.7012 24.6306 69.7955 24.6306H69.2924C67.809 24.6306 66.5973 23.4675 66.5195 22.0035Z" fill="#111827"/>
<path fill-rule="evenodd" clip-rule="evenodd" d="M119.669 17.8079C119.949 16.6697 120.787 16.1891 121.331 16.0446C121.477 16.0154 121.625 16.0002 121.776 16.0002C123.492 16.0002 124.882 17.9458 124.882 20.3457C124.882 22.7456 123.492 24.6912 121.776 24.6912C121.482 24.6912 121.198 24.6339 120.928 24.527C119.889 24.0171 119.533 22.7478 119.485 22.0892C119.717 22.3001 119.994 22.4226 120.292 22.4226C121.112 22.4226 121.776 21.4927 121.776 20.3457C121.776 19.1987 121.112 18.2688 120.292 18.2688C119.988 18.2688 119.706 18.3964 119.471 18.6155C119.529 18.1995 119.606 17.935 119.669 17.8079ZM119.484 22.0676C119.484 22.0747 119.485 22.0819 119.485 22.0892L119.484 22.0676Z" fill="#111827"/>
<path d="M138.992 13.2004H135.133L138.021 20.4327H136.935L135.988 22.6509H138.807L139.616 24.407H143.659L138.992 13.2004Z" fill="#111827"/>
<path d="M159.707 16.0468H158.938L158.938 16.3591C159.729 16.557 159.959 17.4665 159.984 17.8965V23.6009L160.814 24.4313H162.988V18.8013C162.826 16.5438 160.733 16.0244 159.707 16.0468Z" fill="#111827"/>
<path d="M159.352 17.969C158.684 15.5945 156.266 15.9432 155.141 16.4144L155.146 18.9442C157.012 17.8474 158.739 18.4118 159.352 18.8311V17.969Z" fill="#111827"/>
<path d="M158.361 19.53H159.351L159.338 21.1722H158.555C157.768 21.1972 157.508 21.6422 157.477 21.8615C157.314 22.5571 157.846 22.6762 158.404 22.5321C158.85 22.4168 159.137 22.1331 159.225 22.0057H159.331V23.6002C158.649 24.5883 157.248 24.7217 156.633 24.6649C155.304 24.506 154.707 23.463 154.574 22.9614V21.4424C155.085 20.2215 156.178 19.824 156.675 19.7246C157.073 19.6451 157.965 19.5618 158.361 19.53Z" fill="#111827"/>
<path d="M171.977 16.2405H168.73L171.527 24.2939V28.1599H174.648V24.1477L171.977 16.2405Z" fill="#111827"/>
<circle cx="187.27" cy="13.5315" r="1.69141" fill="#111827"/>
<path d="M198.227 18.5247V16.4383C197.563 15.9975 196.595 16.0799 196.194 16.1762C194.691 16.5881 194.28 18.1063 194.262 18.8139C195.172 18.1202 197.285 18.3321 198.227 18.5247Z" fill="#111827"/>
<path d="M198.227 22.2057V24.2922C197.563 24.733 196.595 24.6506 196.194 24.5543C194.691 24.1424 194.28 22.6242 194.262 21.9166C195.172 22.6103 197.285 22.3984 198.227 22.2057Z" fill="#111827"/>
<path d="M206.951 18.7322V16.3957C206.334 16.0328 205.476 16.1127 205.125 16.198C203.664 16.6531 203.611 17.7272 203.767 18.2073C205.367 18.0899 206.556 18.5083 206.951 18.7322Z" fill="#111827"/>
<path d="M200.126 21.8367L200.126 24.2532C200.743 24.6161 201.819 24.7388 202.171 24.6535C204.116 24.0277 203.896 23.0808 203.735 22.4898C201.883 22.8289 200.521 22.0605 200.126 21.8367Z" fill="#111827"/>
<path d="M200.154 17.3189C201.02 16.1282 203.045 16.0015 203.949 16.087L203.923 16.3531C203.066 16.6561 203.083 17.7095 203.198 18.1983C203.43 18.8493 204.382 19.3467 204.829 19.514C205.695 19.8748 206.513 20.3458 206.813 20.5362C207.968 21.5103 207.765 22.766 207.52 23.2721C206.69 24.5829 204.679 24.7603 203.777 24.6852V24.3995C205.629 22.9925 203.717 21.6586 202.529 21.1676L201.025 20.3408C200.374 19.8296 199.288 18.5096 200.154 17.3189Z" fill="#111827"/>
<path fill-rule="evenodd" clip-rule="evenodd" d="M12.0292 18.3618C12.3166 18.3618 12.5496 18.5948 12.5496 18.8822C12.5496 22.6825 14.5607 26.0136 17.5791 27.8685C17.824 28.019 17.9005 28.3395 17.75 28.5843C17.5995 28.8292 17.279 28.9057 17.0341 28.7553C13.7205 26.7189 11.5088 23.0591 11.5088 18.8822C11.5088 18.5948 11.7418 18.3618 12.0292 18.3618Z" fill="#111827"/>
<path fill-rule="evenodd" clip-rule="evenodd" d="M23.0901 8.34285C21.9198 8.34285 20.795 8.53342 19.7445 8.88481C19.4719 8.97599 19.177 8.82893 19.0859 8.55635C18.9947 8.28377 19.1417 7.98889 19.4143 7.89772C20.5699 7.51118 21.8061 7.302 23.0901 7.302C27.7457 7.302 31.7585 10.0493 33.5979 14.0088C33.719 14.2695 33.6059 14.579 33.3452 14.7001C33.0845 14.8212 32.775 14.708 32.6539 14.4473C30.9788 10.8414 27.3257 8.34285 23.0901 8.34285ZM15.6725 10.6622C15.8749 10.8663 15.8735 11.1958 15.6694 11.3982C14.8024 12.2578 14.0842 13.2669 13.5565 14.3831C13.4336 14.6429 13.1234 14.754 12.8635 14.6311C12.6037 14.5083 12.4926 14.198 12.6155 13.9382C13.1956 12.7112 13.9846 11.603 14.9365 10.6591C15.1406 10.4567 15.4701 10.4581 15.6725 10.6622Z" fill="#111827"/>
<path fill-rule="evenodd" clip-rule="evenodd" d="M22.798 6.51432C15.9655 6.51432 10.5927 12.1093 10.5927 18.9545C10.5927 25.7966 16.1954 31.5188 23.0309 31.5188C29.872 31.5188 35.5984 25.8769 35.5984 19.0405C35.5984 18.2961 35.5166 17.3495 35.3912 16.6429L35.3683 16.5141L39.3449 12.2938L39.7237 12.6507L35.9257 16.6815C36.044 17.4014 36.1189 18.3112 36.1189 19.0405C36.1189 26.169 30.1547 32.0392 23.0309 32.0392C15.9013 32.0392 10.0723 26.0774 10.0723 18.9545C10.0723 11.8347 15.6655 5.9939 22.798 5.9939C27.9243 5.9939 32.7431 9.0058 34.8444 13.3546L38.1816 9.62262L38.5695 9.96953L34.6991 14.2978L34.5362 13.9283C32.6201 9.58201 27.8695 6.51432 22.798 6.51432Z" fill="#111827"/>
<path fill-rule="evenodd" clip-rule="evenodd" d="M23.0617 2.0817C13.847 2.0817 6.37703 9.55167 6.37703 18.7663C6.37703 22.0891 7.34727 25.1821 9.01954 27.7812L9.51451 28.5505L3.21911 33.8583C2.18136 34.7223 2.10984 36.291 3.06467 37.2459C4.01951 38.2007 5.58821 38.1292 6.45221 37.0914L6.45752 37.0851L11.6345 30.9669L12.4277 31.6237C15.3153 34.0148 19.0194 35.451 23.0617 35.451C32.2763 35.451 39.7463 27.981 39.7463 18.7663C39.7463 16.5822 39.5674 14.7388 38.8061 12.8298L40.3211 11.2826C41.1786 13.4329 41.828 16.3138 41.828 18.7663C41.828 29.1307 33.426 37.5327 23.0617 37.5327C18.8871 37.5327 15.0288 36.1685 11.9114 33.8624L8.05202 38.4234L8.04928 38.4267C6.40124 40.4023 3.41235 40.5375 1.59269 38.7179C-0.227132 36.898 -0.0917554 33.9088 1.88436 32.2608L1.88715 32.2585L6.79123 28.1237C5.20353 25.3686 4.29532 22.1722 4.29532 18.7663C4.29532 8.40197 12.6973 0 23.0617 0C30.0449 0 36.1359 3.81481 39.3666 9.46919L37.8376 10.7804C34.9624 5.74809 29.2678 2.0817 23.0617 2.0817Z" fill="#111827"/>
<path d="M18.0944 28.1653C14.7924 26.3849 12.5496 22.8949 12.5496 18.8821H11.5088C11.5088 23.4899 14.1999 27.4681 18.0944 29.3327V28.1653Z" fill="#111827"/>
<path d="M31.879 17.6442V17.3647H28.3847V21.2747L31.879 17.6442Z" fill="#111827"/>
<path d="M27.2905 22.1175L27.2905 10.8418H23.7835L23.7835 21.2339L24.5335 20.5342L27.2905 22.1175Z" fill="#111827"/>
<path d="M23.7835 22.6572L24.6816 21.8195L27.2905 23.3177L27.2905 29.6766C26.1925 30.1042 25.0135 30.369 23.7834 30.4418L23.7835 22.6572Z" fill="#111827"/>
<path d="M22.7273 22.219V13.3519H19.2203V22.6824L21.0385 23.7942L22.7273 22.219Z" fill="#111827"/>
<path d="M19.2203 23.9024L21.1702 25.0948L22.7273 23.6423V30.4568C21.5014 30.4191 20.3227 30.1907 19.2203 29.8V23.9024Z" fill="#111827"/>
<path d="M18.0948 21.9941L17.8763 21.8605L14.9351 24.8017L15.6712 25.5377L18.0326 23.1761L18.0948 23.2142V29.2839C16.6254 28.6617 15.2548 27.4898 14.6768 26.9053V17.4399H18.0948V21.9941Z" fill="#111827"/>
<path d="M28.3847 22.7756L31.879 19.1451V24.7C32.006 24.5085 32.127 24.3126 32.2415 24.1127C32.3844 23.8633 32.7024 23.7769 32.9518 23.9198C33.2012 24.0626 33.2875 24.3806 33.1447 24.63C32.7793 25.268 32.3549 25.8678 31.879 26.422V26.4345C31.5014 26.8763 31.0939 27.2726 30.6887 27.6203C30.2297 28.0198 29.7389 28.3837 29.2207 28.7077C29.2033 28.7186 29.1854 28.7284 29.1673 28.737C28.8641 28.9256 28.5958 29.0729 28.3847 29.1766V22.7756Z" fill="#111827"/>
<circle cx="15.0251" cy="25.4204" r="1.19698" fill="white"/>
<circle cx="21.1843" cy="24.4079" r="1.19698" fill="white"/>
<circle cx="27.5105" cy="22.7973" r="1.19698" fill="white"/>
<circle cx="17.986" cy="22.6115" r="1.19698" fill="white"/>
<circle cx="24.6042" cy="21.1906" r="1.19698" fill="white"/>
<circle cx="30.9362" cy="19.5922" r="1.19698" fill="white"/>
<path fill-rule="evenodd" clip-rule="evenodd" d="M34.7866 15.0423C34.4947 15.0423 34.2581 15.2789 34.2581 15.5708C34.2581 15.8627 34.4947 16.0993 34.7866 16.0993C35.0785 16.0993 35.3151 15.8627 35.3151 15.5708C35.3151 15.2789 35.0785 15.0423 34.7866 15.0423ZM33.8418 15.5708C33.8418 15.049 34.2648 14.626 34.7866 14.626C35.3085 14.626 35.7315 15.049 35.7315 15.5708C35.7315 16.0926 35.3085 16.5157 34.7866 16.5157C34.2648 16.5157 33.8418 16.0926 33.8418 15.5708ZM30.936 19.0634C30.6441 19.0634 30.4075 19.3 30.4075 19.5919C30.4075 19.8838 30.6441 20.1204 30.936 20.1204C31.2279 20.1204 31.4645 19.8838 31.4645 19.5919C31.4645 19.3 31.2279 19.0634 30.936 19.0634ZM29.9912 19.5919C29.9912 19.0701 30.4142 18.6471 30.936 18.6471C31.4579 18.6471 31.8809 19.0701 31.8809 19.5919C31.8809 20.1138 31.4579 20.5368 30.936 20.5368C30.4142 20.5368 29.9912 20.1138 29.9912 19.5919ZM24.6045 20.6621C24.3126 20.6621 24.076 20.8987 24.076 21.1906C24.076 21.4824 24.3126 21.7191 24.6045 21.7191C24.8964 21.7191 25.133 21.4824 25.133 21.1906C25.133 20.8987 24.8964 20.6621 24.6045 20.6621ZM23.6597 21.1906C23.6597 20.6687 24.0827 20.2457 24.6045 20.2457C25.1263 20.2457 25.5494 20.6687 25.5494 21.1906C25.5494 21.7124 25.1263 22.1354 24.6045 22.1354C24.0827 22.1354 23.6597 21.7124 23.6597 21.1906ZM17.9851 22.0828C17.6932 22.0828 17.4566 22.3194 17.4566 22.6113C17.4566 22.9032 17.6932 23.1398 17.9851 23.1398C18.277 23.1398 18.5136 22.9032 18.5136 22.6113C18.5136 22.3194 18.277 22.0828 17.9851 22.0828ZM17.0403 22.6113C17.0403 22.0895 17.4633 21.6665 17.9851 21.6665C18.5069 21.6665 18.9299 22.0895 18.9299 22.6113C18.9299 23.1331 18.5069 23.5562 17.9851 23.5562C17.4633 23.5562 17.0403 23.1331 17.0403 22.6113ZM27.5111 22.2686C27.2192 22.2686 26.9826 22.5052 26.9826 22.7971C26.9826 23.089 27.2192 23.3256 27.5111 23.3256C27.803 23.3256 28.0396 23.089 28.0396 22.7971C28.0396 22.5052 27.803 22.2686 27.5111 22.2686ZM26.5662 22.7971C26.5662 22.2752 26.9893 21.8522 27.5111 21.8522C28.0329 21.8522 28.4559 22.2752 28.4559 22.7971C28.4559 23.3189 28.0329 23.7419 27.5111 23.7419C26.9893 23.7419 26.5662 23.3189 26.5662 22.7971ZM21.1836 23.8794C20.8918 23.8794 20.6551 24.116 20.6551 24.4079C20.6551 24.6998 20.8918 24.9364 21.1836 24.9364C21.4755 24.9364 21.7121 24.6998 21.7121 24.4079C21.7121 24.116 21.4755 23.8794 21.1836 23.8794ZM20.2388 24.4079C20.2388 23.8861 20.6618 23.4631 21.1836 23.4631C21.7055 23.4631 22.1285 23.8861 22.1285 24.4079C22.1285 24.9297 21.7055 25.3527 21.1836 25.3527C20.6618 25.3527 20.2388 24.9297 20.2388 24.4079ZM15.0249 24.8918C14.733 24.8918 14.4964 25.1284 14.4964 25.4203C14.4964 25.7122 14.733 25.9488 15.0249 25.9488C15.3168 25.9488 15.5534 25.7122 15.5534 25.4203C15.5534 25.1284 15.3168 24.8918 15.0249 24.8918ZM14.0801 25.4203C14.0801 24.8985 14.5031 24.4754 15.0249 24.4754C15.5468 24.4754 15.9698 24.8985 15.9698 25.4203C15.9698 25.9421 15.5468 26.3651 15.0249 26.3651C14.5031 26.3651 14.0801 25.9421 14.0801 25.4203Z" fill="#111827"/>
<path d="M43.3148 6.51416L40.4279 7.34715L41.3228 8.20852L34.9319 14.8485C35.1146 14.8852 35.2728 14.9894 35.3794 15.134L41.6978 8.56942L42.5927 9.43079L43.3148 6.51416Z" fill="#111827"/>
<path d="M34.3723 16.1804C34.2233 16.079 34.1134 15.9245 34.0699 15.7441L31.0647 18.8665C31.2494 18.8992 31.4104 19.0007 31.5202 19.1437L34.3723 16.1804Z" fill="#111827"/>
<path d="M27.8896 22.1652L30.2155 19.7487C30.2551 19.9313 30.3625 20.0887 30.51 20.1933L28.2143 22.5784C28.1602 22.4041 28.0431 22.2575 27.8896 22.1652Z" fill="#111827"/>
<path d="M26.7776 22.7228C26.7959 22.539 26.8819 22.3751 27.0102 22.2563L25.3335 21.2934C25.3081 21.4753 25.2163 21.6359 25.0833 21.7499L26.7776 22.7228Z" fill="#111827"/>
<path d="M24.2708 21.8477L21.8536 24.1023C21.7793 23.9395 21.6475 23.8085 21.4842 23.7353L23.9196 21.4636C23.9862 21.6303 24.1119 21.767 24.2708 21.8477Z" fill="#111827"/>
<path d="M18.4879 23.1492C18.6158 23.0294 18.701 22.8646 18.7181 22.6799L20.6736 23.8758C20.547 23.997 20.4636 24.163 20.4488 24.3483L18.4879 23.1492Z" fill="#111827"/>
<path d="M17.2797 22.826C17.3327 23.0004 17.4487 23.1474 17.6012 23.2405L15.7047 25.1371C15.6357 24.9715 15.508 24.8365 15.3477 24.7581L17.2797 22.826Z" fill="#111827"/>
</svg>
