<svg width="188" height="41" viewBox="0 0 188 41" fill="none" xmlns="http://www.w3.org/2000/svg">
<path fill-rule="evenodd" clip-rule="evenodd" d="M30.3441 25.082L30.9162 25.7059H25.4333V40.0476L38.7458 30.5138C39.4885 29.9819 39.8807 29.2498 39.9796 28.4949C43.1928 24.101 41.6493 20.9206 40.4827 19.4283C41.3352 23.555 38.7065 24.7843 34.0434 25.078L30.3441 25.082ZM12.6432 25.0443L12.0365 25.7059H17.411V39.843L6.43995 32.0789L6.43775 32.0806L6.41248 32.0595L4.27432 30.5464C3.54398 30.0295 3.14887 29.3191 3.03595 28.5818C-0.261727 24.1429 1.29445 20.9304 2.46875 19.4282C1.8826 24.3453 6.497 24.9663 12.6432 25.0443Z" fill="#A190F4"/>
<path fill-rule="evenodd" clip-rule="evenodd" d="M21.6318 15.5811L30.3771 25.1181L39.1639 25.1316C41.8293 25.1358 43.1761 21.9215 41.3039 20.0244L21.6318 0.0905762V15.5811Z" fill="url(#paint0_linear_5282_14795)"/>
<path fill-rule="evenodd" clip-rule="evenodd" d="M21.5895 0.0478516L21.6315 0.0904142V15.581L21.476 15.4115L12.5945 25.0971L3.8102 25.0956C1.13868 25.0952 -0.199823 21.866 1.68797 19.9757L21.5895 0.0478516Z" fill="url(#paint1_linear_5282_14795)"/>
<path d="M178.78 33.7681C176.907 33.7681 175.286 33.3658 173.919 32.5613C172.562 31.7453 171.517 30.6133 170.781 29.1652C170.045 27.7056 169.678 26.0162 169.678 24.0969C169.678 22.1891 170.051 20.5054 170.798 19.0458C171.545 17.5747 172.58 16.4254 173.901 15.5979C175.235 14.7704 176.78 14.3567 178.539 14.3567C179.803 14.3567 180.964 14.5693 182.021 14.9945C183.09 15.4198 184.021 16.0404 184.814 16.8564C185.607 17.6724 186.222 18.678 186.658 19.8732C187.095 21.057 187.313 22.4132 187.313 23.9417V25.2174H171.574V22.2005H185.107L183.107 23.0453C183.107 21.9879 182.929 21.0742 182.573 20.3042C182.216 19.5227 181.699 18.9193 181.021 18.4941C180.355 18.0574 179.544 17.839 178.59 17.839C177.648 17.839 176.832 18.0574 176.142 18.4941C175.464 18.9193 174.941 19.517 174.574 20.287C174.206 21.0455 174.022 21.919 174.022 22.9074V24.8899C174.022 26.0162 174.217 26.9873 174.608 27.8033C174.999 28.6078 175.556 29.2284 176.28 29.6651C177.004 30.0904 177.866 30.303 178.866 30.303C179.556 30.303 180.176 30.2053 180.728 30.0099C181.28 29.8031 181.745 29.51 182.124 29.1307C182.504 28.74 182.785 28.2803 182.969 27.7516L187.055 28.1308C186.802 29.2457 186.291 30.2283 185.521 31.0788C184.751 31.9292 183.791 32.5901 182.642 33.0613C181.492 33.5325 180.205 33.7681 178.78 33.7681Z" fill="#111827"/>
<path d="M105.716 33.7678C104.254 33.7678 102.95 33.5467 101.805 33.1045C100.671 32.6624 99.747 32.0161 99.0327 31.1658C98.3298 30.3155 97.899 29.2781 97.7402 28.0536L101.941 27.7135C102.111 28.6092 102.513 29.2951 103.148 29.7713C103.783 30.2361 104.634 30.4685 105.699 30.4685C106.765 30.4685 107.604 30.2588 108.216 29.8393C108.828 29.4198 109.135 28.8926 109.135 28.2577C109.135 27.7135 108.919 27.2713 108.488 26.9312C108.057 26.5797 107.44 26.319 106.635 26.1489L103.488 25.4857C101.742 25.1229 100.422 24.505 99.5259 23.632C98.6416 22.7476 98.1994 21.6195 98.1994 20.2477C98.1994 19.1139 98.5055 18.1276 99.1178 17.2886C99.7413 16.4383 100.609 15.7807 101.72 15.3158C102.842 14.8397 104.146 14.6016 105.631 14.6016C107.082 14.6016 108.341 14.8283 109.407 15.2818C110.484 15.7353 111.34 16.3759 111.975 17.2035C112.61 18.0199 112.995 18.9892 113.131 20.1116L109.135 20.4518C109.032 19.7148 108.687 19.1026 108.097 18.6151C107.508 18.1162 106.714 17.8668 105.716 17.8668C104.775 17.8668 104.01 18.0765 103.42 18.496C102.842 18.9042 102.553 19.42 102.553 20.0436C102.553 20.5878 102.763 21.0357 103.182 21.3871C103.602 21.7386 104.237 22.005 105.087 22.1864L108.318 22.8667C110.11 23.2408 111.43 23.8417 112.281 24.6694C113.142 25.4857 113.573 26.5571 113.573 27.8836C113.573 29.074 113.239 30.1114 112.57 30.9957C111.901 31.8687 110.971 32.549 109.781 33.0365C108.602 33.524 107.247 33.7678 105.716 33.7678Z" fill="#111827"/>
<path d="M124.985 33.7508C123.193 33.7508 121.629 33.3483 120.291 32.5433C118.953 31.7384 117.91 30.6216 117.162 29.1931C116.425 27.7532 116.056 26.0866 116.056 24.1932C116.056 22.2998 116.425 20.6332 117.162 19.1933C117.91 17.7421 118.953 16.614 120.291 15.809C121.629 15.004 123.193 14.6016 124.985 14.6016C126.073 14.6016 127.082 14.7546 128.012 15.0607C128.953 15.3669 129.78 15.8033 130.495 16.3702C131.209 16.9371 131.793 17.6174 132.246 18.411C132.7 19.2046 133 20.0833 133.148 21.047L128.964 21.4381C128.873 20.9506 128.715 20.5085 128.488 20.1116C128.272 19.7148 127.995 19.3747 127.655 19.0913C127.326 18.7965 126.94 18.5697 126.498 18.411C126.056 18.2523 125.563 18.1729 125.019 18.1729C124.043 18.1729 123.216 18.428 122.536 18.9382C121.867 19.4484 121.356 20.157 121.005 21.064C120.654 21.9597 120.478 23.0027 120.478 24.1932C120.478 25.3723 120.654 26.4097 121.005 27.3054C121.356 28.201 121.867 28.904 122.536 29.4141C123.216 29.9243 124.043 30.1794 125.019 30.1794C125.574 30.1794 126.073 30.1001 126.515 29.9413C126.957 29.7826 127.343 29.5615 127.672 29.2781C128 28.9833 128.272 28.6319 128.488 28.2237C128.715 27.8042 128.879 27.345 128.981 26.8462L133.165 27.2373C133.04 28.201 132.751 29.0854 132.297 29.8903C131.844 30.684 131.254 31.3699 130.529 31.9481C129.814 32.5263 128.987 32.9742 128.046 33.2916C127.105 33.5977 126.084 33.7508 124.985 33.7508Z" fill="#111827"/>
<path d="M57.8001 5.08862L53.8279 7.15279L53.669 11.1229H50.0791V15.2539H53.6684V26.0214C53.543 31.4331 56.4929 33.0134 58.8829 33.1321C59.4449 33.2056 60.8986 33.2141 62.2012 33.1321C63.4989 33.0504 64.6166 32.2517 65.0116 31.8116L63.0139 29.8138C61.8341 30.0647 61.1338 30.0835 59.831 29.8138C58.314 29.3804 57.8709 27.8613 57.839 27.1559V15.3144H62.5962V11.1776H57.8001V5.08862Z" fill="#111827"/>
<path fill-rule="evenodd" clip-rule="evenodd" d="M81.1071 31.862C79.5157 33.0585 77.537 33.7676 75.3926 33.7676C70.1356 33.7676 65.874 29.506 65.874 24.249C65.874 18.9921 70.1356 14.7305 75.3926 14.7305C77.1882 14.7305 78.8678 15.2277 80.301 16.092C81.318 15.97 82.8416 15.6171 83.7082 14.826H84.8826V23.5057C84.9015 23.751 84.9111 23.9989 84.9111 24.249C84.9111 24.4992 84.9015 24.747 84.8826 24.9923V33.7678H81.3985V31.862H81.1071ZM81.4664 24.2491C81.4664 27.6035 78.7471 30.3228 75.3926 30.3228C72.0382 30.3228 69.3189 27.6035 69.3189 24.2491C69.3189 20.8946 72.0382 18.1753 75.3926 18.1753C78.7471 18.1753 81.4664 20.8946 81.4664 24.2491Z" fill="#111827"/>
<path fill-rule="evenodd" clip-rule="evenodd" d="M152.372 31.8621C150.78 33.0585 148.802 33.7676 146.657 33.7676C141.4 33.7676 137.139 29.506 137.139 24.249C137.139 18.9921 141.4 14.7305 146.657 14.7305C148.453 14.7305 150.132 15.2277 151.566 16.0919C152.583 15.9699 154.106 15.6169 154.972 14.8261H156.146V23.4937C156.166 23.7429 156.176 23.9948 156.176 24.249C156.176 24.5033 156.166 24.7552 156.146 25.0044V33.7678H152.662V31.8621H152.372ZM152.731 24.2491C152.731 27.6035 150.012 30.3229 146.657 30.3229C143.303 30.3229 140.584 27.6035 140.584 24.2491C140.584 20.8947 143.303 18.1754 146.657 18.1754C150.012 18.1754 152.731 20.8947 152.731 24.2491Z" fill="#111827"/>
<path d="M90.1807 6.35848L93.7669 5.20264V33.7679H90.1807V6.35848Z" fill="#111827"/>
<path d="M161.802 6.35848L165.388 5.20264V33.7679H161.802V6.35848Z" fill="#111827"/>
<defs>
<linearGradient id="paint0_linear_5282_14795" x1="21.6318" y1="7.61302" x2="35.6336" y2="26.007" gradientUnits="userSpaceOnUse">
<stop stop-color="#AFA2F4"/>
<stop offset="0.619983" stop-color="#5A3FDE"/>
</linearGradient>
<linearGradient id="paint1_linear_5282_14795" x1="20.4359" y1="6.02751" x2="5.48723" y2="23.6594" gradientUnits="userSpaceOnUse">
<stop stop-color="#9481F4"/>
<stop offset="1" stop-color="#593FDC"/>
</linearGradient>
</defs>
</svg>
