<svg width="379" height="303" viewBox="0 0 379 303" fill="none" xmlns="http://www.w3.org/2000/svg">
<g filter="url(#filter0_dd_3945_105859)">
<g clip-path="url(#clip0_3945_105859)">
<rect x="16.5" y="15" width="346" height="294.837" rx="4" fill="white"/>
<rect x="32.5" y="31" width="147" height="36" rx="4" fill="white"/>
<rect x="32.5" y="31" width="147" height="36" rx="4" stroke="#E4E4E7"/>
<path fill-rule="evenodd" clip-rule="evenodd" d="M54.4453 56.881C57.9235 56.012 60.5 52.8665 60.5 49.1191C60.5 44.7009 56.9183 41.1191 52.5 41.1191C48.0817 41.1191 44.5 44.7009 44.5 49.1191C44.5 52.8662 47.0761 56.0115 50.5538 56.8807C50.5267 56.75 50.5125 56.6145 50.5125 56.4758V54.7514C49.9123 54.9286 48.5786 55.0245 47.9507 54.0114C47.8264 53.6818 47.4681 52.9549 47.03 52.6836C46.4824 52.3443 46.6639 52.239 46.7452 52.1923C46.958 52.1364 47.4922 52.1379 47.9265 52.5915C48.0089 52.6819 48.1921 52.8948 48.2657 53.0228L48.2716 53.033C48.3802 53.2233 48.9649 54.2469 50.524 53.6528L50.5809 53.6355C50.6782 53.2748 50.8745 52.9547 51.1389 52.7062C50.7479 52.6495 50.3795 52.5692 50.0417 52.469C48.5249 52.09 47.4138 50.7335 47.4139 48.8679C47.414 47.8598 47.7298 47.0741 48.2458 46.4614C47.9267 45.7259 48.1733 44.7905 48.3388 44.4106C49.0662 44.3157 50.0862 44.9308 50.4595 45.1865C51.0668 45.0417 51.7669 44.9663 52.5444 44.9663C53.2741 44.9663 53.9645 45.0427 54.5721 45.1817C54.9796 44.9128 55.9475 44.3163 56.6763 44.4183C56.8419 44.7752 57.0911 45.6636 56.8 46.4248C57.3327 47.0771 57.6557 47.932 57.6557 48.8679C57.6557 50.3576 56.8316 51.6704 55.653 52.2283C55.1507 52.4469 54.5409 52.6136 53.864 52.7098C54.2474 53.072 54.4867 53.5853 54.4867 54.1544V56.4758C54.4867 56.6146 54.4724 56.7502 54.4453 56.881Z" fill="#111827"/>
<path d="M70.6191 51.0879V49.7002C70.8516 49.3812 71.0817 49.0758 71.3096 48.7842C71.542 48.4925 71.779 48.2077 72.0205 47.9297C72.262 47.6517 72.5104 47.376 72.7656 47.1025L75.8076 43.8145H77.5098L73.1621 48.4766L73.0938 48.4697L70.6191 51.0879ZM69.7305 54V43.8145H71.0293V47.3008L71.0088 49.4951L71.0293 50.1309V54H69.7305ZM75.9785 54L72.2939 48.8184L73.1006 47.8066L77.5166 54H75.9785ZM80.2168 43.8145V54H78.9863V43.8145H80.2168ZM85.4873 54.1641C84.7946 54.1641 84.1862 54 83.6621 53.6719C83.1426 53.3438 82.737 52.8835 82.4453 52.291C82.1536 51.6986 82.0078 51.0104 82.0078 50.2266C82.0078 49.429 82.1536 48.734 82.4453 48.1416C82.737 47.5446 83.1426 47.082 83.6621 46.7539C84.1862 46.4258 84.7946 46.2617 85.4873 46.2617C86.1846 46.2617 86.7952 46.4258 87.3193 46.7539C87.8434 47.082 88.2513 47.5446 88.543 48.1416C88.8346 48.734 88.9805 49.429 88.9805 50.2266C88.9805 51.0104 88.8346 51.6986 88.543 52.291C88.2513 52.8835 87.8434 53.3438 87.3193 53.6719C86.7952 54 86.1846 54.1641 85.4873 54.1641ZM85.4873 53.0635C86.0023 53.0635 86.4261 52.9313 86.7588 52.667C87.0915 52.4027 87.3376 52.0563 87.4971 51.6279C87.6566 51.195 87.7363 50.7279 87.7363 50.2266C87.7363 49.7207 87.6566 49.2513 87.4971 48.8184C87.3376 48.3809 87.0915 48.0299 86.7588 47.7656C86.4261 47.4967 86.0023 47.3623 85.4873 47.3623C84.9769 47.3623 84.5576 47.4967 84.2295 47.7656C83.9014 48.0299 83.6576 48.3786 83.498 48.8115C83.3385 49.2445 83.2588 49.7161 83.2588 50.2266C83.2588 50.7279 83.3385 51.195 83.498 51.6279C83.6576 52.0563 83.9014 52.4027 84.2295 52.667C84.5576 52.9313 84.9769 53.0635 85.4873 53.0635ZM93.3623 54.0957C92.8473 54.0957 92.3939 53.9909 92.002 53.7812C91.6146 53.5671 91.3115 53.2458 91.0928 52.8174C90.8786 52.389 90.7715 51.8535 90.7715 51.2109V46.3574H92.002V51.1084C92.002 51.6963 92.1569 52.1566 92.4668 52.4893C92.7767 52.8219 93.1982 52.9883 93.7314 52.9883C94.096 52.9883 94.4219 52.9085 94.709 52.749C95.0007 52.5895 95.2308 52.3571 95.3994 52.0518C95.568 51.7419 95.6523 51.3704 95.6523 50.9375V46.3574H96.8896V54H95.7002V52.1475H95.8643C95.6273 52.863 95.29 53.3665 94.8525 53.6582C94.4196 53.9499 93.9229 54.0957 93.3623 54.0957ZM101.921 54.1641C101.287 54.1641 100.727 54.0023 100.239 53.6787C99.7516 53.3551 99.3711 52.8971 99.0977 52.3047C98.8242 51.7122 98.6875 51.0104 98.6875 50.1992C98.6875 49.3926 98.8242 48.6953 99.0977 48.1074C99.3757 47.515 99.7585 47.0592 100.246 46.7402C100.734 46.4212 101.294 46.2617 101.928 46.2617C102.424 46.2617 102.819 46.3438 103.11 46.5078C103.402 46.6719 103.625 46.8587 103.78 47.0684C103.94 47.2734 104.061 47.4443 104.143 47.5811H104.238V43.8145H105.469V54H104.279V52.8174H104.143C104.061 52.9587 103.938 53.1364 103.773 53.3506C103.614 53.5602 103.386 53.7493 103.09 53.918C102.798 54.082 102.409 54.1641 101.921 54.1641ZM102.105 53.0635C102.57 53.0635 102.962 52.9427 103.281 52.7012C103.6 52.4551 103.842 52.1156 104.006 51.6826C104.17 51.2497 104.252 50.7507 104.252 50.1855C104.252 49.6204 104.17 49.1283 104.006 48.709C103.846 48.2852 103.607 47.9548 103.288 47.7178C102.969 47.4808 102.575 47.3623 102.105 47.3623C101.622 47.3623 101.219 47.4876 100.896 47.7383C100.576 47.9889 100.337 48.3285 100.178 48.7568C100.018 49.1807 99.9385 49.6569 99.9385 50.1855C99.9385 50.7188 100.018 51.2041 100.178 51.6416C100.342 52.0745 100.586 52.4209 100.909 52.6807C101.233 52.9359 101.632 53.0635 102.105 53.0635ZM108.859 43.8145V54H107.629V43.8145H108.859ZM111.02 54V46.3574H112.25V54H111.02ZM111.642 45.1064C111.409 45.1064 111.209 45.0267 111.04 44.8672C110.871 44.7077 110.787 44.5163 110.787 44.293C110.787 44.0651 110.871 43.8737 111.04 43.7188C111.209 43.5592 111.409 43.4795 111.642 43.4795C111.879 43.4795 112.081 43.5592 112.25 43.7188C112.419 43.8737 112.503 44.0651 112.503 44.293C112.503 44.5163 112.419 44.7077 112.25 44.8672C112.081 45.0267 111.879 45.1064 111.642 45.1064ZM117.418 46.3574V47.4102H113.467V46.3574H117.418ZM114.615 44.5391H115.846V52.0176C115.846 52.3594 115.914 52.61 116.051 52.7695C116.192 52.9245 116.424 53.002 116.748 53.002C116.826 53.002 116.924 52.9928 117.042 52.9746C117.165 52.9564 117.277 52.9382 117.377 52.9199L117.63 53.959C117.502 54.0046 117.356 54.0387 117.192 54.0615C117.033 54.0843 116.873 54.0957 116.714 54.0957C116.053 54.0957 115.538 53.9225 115.169 53.5762C114.8 53.2253 114.615 52.7376 114.615 52.1133V44.5391ZM122.066 54.1641C121.328 54.1641 120.69 54 120.152 53.6719C119.619 53.3438 119.207 52.8857 118.915 52.2979C118.628 51.71 118.484 51.0241 118.484 50.2402C118.484 49.4564 118.626 48.766 118.908 48.1689C119.191 47.5719 119.59 47.1048 120.104 46.7676C120.624 46.4303 121.23 46.2617 121.923 46.2617C122.328 46.2617 122.727 46.3301 123.119 46.4668C123.516 46.599 123.873 46.8154 124.192 47.1162C124.516 47.4124 124.773 47.8044 124.965 48.292C125.156 48.7796 125.252 49.3766 125.252 50.083V50.5957H119.318V49.5566H124.589L124.015 49.9395C124.015 49.4382 123.935 48.9938 123.775 48.6064C123.62 48.2145 123.388 47.9092 123.078 47.6904C122.768 47.4671 122.383 47.3555 121.923 47.3555C121.463 47.3555 121.068 47.4694 120.74 47.6973C120.412 47.9206 120.161 48.2145 119.988 48.5791C119.815 48.9391 119.729 49.3265 119.729 49.7412V50.4316C119.729 50.9967 119.826 51.4775 120.022 51.874C120.218 52.266 120.492 52.5645 120.843 52.7695C121.198 52.9701 121.608 53.0703 122.073 53.0703C122.374 53.0703 122.647 53.027 122.894 52.9404C123.14 52.8538 123.352 52.724 123.529 52.5508C123.707 52.373 123.844 52.1543 123.939 51.8945L125.129 52.2227C125.01 52.6055 124.81 52.9427 124.527 53.2344C124.245 53.526 123.894 53.7539 123.475 53.918C123.06 54.082 122.59 54.1641 122.066 54.1641Z" fill="#111827"/>
<path d="M159.146 51.6464L154.354 46.8536C154.039 46.5386 154.262 46 154.707 46H164.293C164.738 46 164.961 46.5386 164.646 46.8536L159.854 51.6464C159.658 51.8417 159.342 51.8417 159.146 51.6464Z" fill="#111827"/>
<g clip-path="url(#clip1_3945_105859)">
<rect x="199.5" y="31" width="147" height="36" rx="4" fill="white"/>
<path d="M216.646 54.7913C220.316 54.7913 223.292 51.816 223.292 48.1457C223.292 44.4754 220.316 41.5 216.646 41.5C212.975 41.5 210 44.4754 210 48.1457C210 51.816 212.975 54.7913 216.646 54.7913Z" stroke="#111827" stroke-linecap="round" stroke-linejoin="round"/>
<path d="M221.345 52.845L225 56.5" stroke="#111827" stroke-linecap="round" stroke-linejoin="round"/>
<path d="M243.991 54.1777C243.257 54.1777 242.619 54.0592 242.077 53.8223C241.539 53.5853 241.118 53.2549 240.812 52.8311C240.507 52.4027 240.334 51.9036 240.293 51.334H241.626C241.662 51.7168 241.792 52.0335 242.016 52.2842C242.239 52.5303 242.524 52.7148 242.87 52.8379C243.221 52.9564 243.595 53.0156 243.991 53.0156C244.451 53.0156 244.864 52.9404 245.229 52.79C245.598 52.6396 245.889 52.4277 246.104 52.1543C246.318 51.8809 246.425 51.5641 246.425 51.2041C246.425 50.876 246.331 50.6094 246.145 50.4043C245.962 50.1992 245.718 50.0306 245.413 49.8984C245.108 49.7663 244.773 49.6501 244.408 49.5498L243.178 49.2012C242.357 48.9688 241.719 48.6361 241.264 48.2031C240.808 47.7702 240.58 47.2165 240.58 46.542C240.58 45.9678 240.735 45.4665 241.045 45.0381C241.355 44.6051 241.774 44.2702 242.303 44.0332C242.831 43.7962 243.424 43.6777 244.08 43.6777C244.75 43.6777 245.342 43.7962 245.857 44.0332C246.372 44.2702 246.778 44.5938 247.074 45.0039C247.375 45.4095 247.535 45.8698 247.553 46.3848H246.281C246.222 45.888 245.985 45.5052 245.57 45.2363C245.156 44.9629 244.645 44.8262 244.039 44.8262C243.602 44.8262 243.216 44.8991 242.884 45.0449C242.556 45.1862 242.3 45.3822 242.118 45.6328C241.936 45.8789 241.845 46.1615 241.845 46.4805C241.845 46.8359 241.954 47.123 242.173 47.3418C242.396 47.556 242.658 47.7246 242.959 47.8477C243.264 47.9661 243.54 48.0596 243.786 48.1279L244.805 48.4082C245.078 48.4811 245.379 48.5814 245.707 48.709C246.04 48.8366 246.356 49.0075 246.657 49.2217C246.958 49.4313 247.204 49.7002 247.396 50.0283C247.591 50.3519 247.689 50.7507 247.689 51.2246C247.689 51.7806 247.544 52.2819 247.252 52.7285C246.965 53.1751 246.546 53.5283 245.994 53.7881C245.443 54.0479 244.775 54.1777 243.991 54.1777ZM252.775 54.1641C252.037 54.1641 251.399 54 250.861 53.6719C250.328 53.3438 249.916 52.8857 249.624 52.2979C249.337 51.71 249.193 51.0241 249.193 50.2402C249.193 49.4564 249.335 48.766 249.617 48.1689C249.9 47.5719 250.299 47.1048 250.813 46.7676C251.333 46.4303 251.939 46.2617 252.632 46.2617C253.037 46.2617 253.436 46.3301 253.828 46.4668C254.225 46.599 254.582 46.8154 254.901 47.1162C255.225 47.4124 255.482 47.8044 255.674 48.292C255.865 48.7796 255.961 49.3766 255.961 50.083V50.5957H250.027V49.5566H255.298L254.724 49.9395C254.724 49.4382 254.644 48.9938 254.484 48.6064C254.329 48.2145 254.097 47.9092 253.787 47.6904C253.477 47.4671 253.092 47.3555 252.632 47.3555C252.172 47.3555 251.777 47.4694 251.449 47.6973C251.121 47.9206 250.87 48.2145 250.697 48.5791C250.524 48.9391 250.438 49.3265 250.438 49.7412V50.4316C250.438 50.9967 250.535 51.4775 250.731 51.874C250.927 52.266 251.201 52.5645 251.552 52.7695C251.907 52.9701 252.317 53.0703 252.782 53.0703C253.083 53.0703 253.356 53.027 253.603 52.9404C253.849 52.8538 254.061 52.724 254.238 52.5508C254.416 52.373 254.553 52.1543 254.648 51.8945L255.838 52.2227C255.719 52.6055 255.519 52.9427 255.236 53.2344C254.954 53.526 254.603 53.7539 254.184 53.918C253.769 54.082 253.299 54.1641 252.775 54.1641ZM260.582 54.1641C259.953 54.1641 259.395 54.0023 258.907 53.6787C258.424 53.3551 258.044 52.8971 257.766 52.3047C257.492 51.7122 257.355 51.0104 257.355 50.1992C257.355 49.3926 257.494 48.6953 257.772 48.1074C258.05 47.515 258.433 47.0592 258.921 46.7402C259.413 46.4212 259.976 46.2617 260.609 46.2617C261.102 46.2617 261.493 46.3438 261.785 46.5078C262.077 46.6673 262.3 46.8519 262.455 47.0615C262.61 47.2712 262.729 47.4443 262.811 47.5811H262.913V46.3574H264.137V54H262.92V52.8174H262.811C262.729 52.9587 262.605 53.1364 262.441 53.3506C262.282 53.5648 262.054 53.7539 261.758 53.918C261.462 54.082 261.07 54.1641 260.582 54.1641ZM260.787 53.0635C261.252 53.0635 261.644 52.9427 261.963 52.7012C262.282 52.4551 262.523 52.1156 262.688 51.6826C262.852 51.2497 262.934 50.7507 262.934 50.1855C262.934 49.6204 262.852 49.1283 262.688 48.709C262.528 48.2852 262.289 47.9548 261.97 47.7178C261.651 47.4808 261.257 47.3623 260.787 47.3623C260.304 47.3623 259.901 47.4876 259.577 47.7383C259.254 47.9844 259.01 48.3216 258.846 48.75C258.686 49.1738 258.606 49.6523 258.606 50.1855C258.606 50.7188 258.688 51.2041 258.853 51.6416C259.017 52.0745 259.26 52.4209 259.584 52.6807C259.908 52.9359 260.309 53.0635 260.787 53.0635ZM266.297 54V46.3574H267.486V47.5332H267.568C267.71 47.1458 267.96 46.8359 268.32 46.6035C268.685 46.3665 269.095 46.248 269.551 46.248C269.642 46.248 269.749 46.2503 269.872 46.2549C270 46.2594 270.1 46.264 270.173 46.2686V47.5059C270.136 47.4967 270.045 47.4831 269.899 47.4648C269.754 47.4466 269.599 47.4375 269.435 47.4375C269.07 47.4375 268.742 47.515 268.45 47.6699C268.163 47.8203 267.938 48.0299 267.773 48.2988C267.609 48.5632 267.527 48.8685 267.527 49.2148V54H266.297ZM274.452 54.1641C273.759 54.1641 273.151 54 272.627 53.6719C272.107 53.3438 271.702 52.8835 271.41 52.291C271.118 51.6986 270.973 51.0104 270.973 50.2266C270.973 49.429 271.118 48.734 271.41 48.1416C271.702 47.5446 272.107 47.082 272.627 46.7539C273.151 46.4258 273.759 46.2617 274.452 46.2617C274.821 46.2617 275.17 46.3096 275.498 46.4053C275.826 46.501 276.125 46.64 276.394 46.8223C276.667 47 276.902 47.221 277.098 47.4854C277.294 47.7451 277.444 48.0413 277.549 48.374L276.366 48.709C276.312 48.513 276.227 48.333 276.113 48.1689C275.999 48.0049 275.86 47.8636 275.696 47.7451C275.537 47.6221 275.352 47.5286 275.143 47.4648C274.933 47.3965 274.703 47.3623 274.452 47.3623C273.942 47.3623 273.522 47.4967 273.194 47.7656C272.866 48.0299 272.622 48.3786 272.463 48.8115C272.303 49.2445 272.224 49.7161 272.224 50.2266C272.224 50.7279 272.303 51.195 272.463 51.6279C272.622 52.0563 272.866 52.4027 273.194 52.667C273.522 52.9313 273.942 53.0635 274.452 53.0635C274.707 53.0635 274.942 53.0293 275.156 52.9609C275.37 52.8926 275.56 52.7969 275.724 52.6738C275.892 52.5462 276.034 52.3958 276.147 52.2227C276.261 52.0495 276.346 51.8604 276.4 51.6553L277.576 51.9902C277.476 52.332 277.326 52.6374 277.125 52.9062C276.929 53.1706 276.694 53.3984 276.421 53.5898C276.147 53.7767 275.844 53.918 275.512 54.0137C275.179 54.1139 274.826 54.1641 274.452 54.1641ZM280.57 49.4199V54H279.34V43.8145H280.57V48.21H280.358C280.591 47.5036 280.921 47.0023 281.35 46.7061C281.783 46.4098 282.288 46.2617 282.867 46.2617C283.382 46.2617 283.833 46.3688 284.221 46.583C284.613 46.7926 284.916 47.1117 285.13 47.54C285.349 47.9639 285.458 48.4993 285.458 49.1465V54H284.221V49.249C284.221 48.6611 284.066 48.2008 283.756 47.8682C283.451 47.5355 283.031 47.3691 282.498 47.3691C282.133 47.3691 281.805 47.4489 281.514 47.6084C281.222 47.7679 280.992 48.0003 280.823 48.3057C280.655 48.611 280.57 48.9824 280.57 49.4199Z" fill="#9CA3AF"/>
</g>
<rect x="199.5" y="31" width="147" height="36" rx="4" stroke="#E4E4E7"/>
<rect x="37.4019" y="106.07" width="4.34127" height="4.34127" transform="rotate(-45 37.4019 106.07)" stroke="#111827" stroke-linejoin="round"/>
<rect x="37.4019" y="115.93" width="4.34127" height="4.34127" transform="rotate(-45 37.4019 115.93)" stroke="#111827" stroke-linejoin="round"/>
<rect x="42.3604" y="111.024" width="4.34127" height="4.34127" transform="rotate(-45 42.3604 111.024)" stroke="#111827" stroke-linejoin="round"/>
<rect x="32.5" y="111.024" width="4.34127" height="4.34127" transform="rotate(-45 32.5 111.024)" stroke="#111827" stroke-linejoin="round"/>
<path d="M62.1484 117.164C61.6641 117.164 61.2578 117.083 60.9297 116.922C60.6016 116.755 60.3333 116.555 60.125 116.32C59.9219 116.081 59.7656 115.852 59.6562 115.633H59.5391V117H57.5547V105.359H59.5781V109.734H59.6562C59.7708 109.516 59.9271 109.289 60.125 109.055C60.3229 108.815 60.5859 108.615 60.9141 108.453C61.2422 108.286 61.6562 108.203 62.1562 108.203C62.8333 108.203 63.4427 108.378 63.9844 108.727C64.526 109.07 64.9557 109.576 65.2734 110.242C65.5911 110.909 65.75 111.719 65.75 112.672C65.75 113.62 65.5938 114.427 65.2812 115.094C64.974 115.76 64.5495 116.273 64.0078 116.633C63.4661 116.987 62.8464 117.164 62.1484 117.164ZM61.6094 115.492C62.0573 115.492 62.4349 115.372 62.7422 115.133C63.0495 114.888 63.2812 114.552 63.4375 114.125C63.599 113.698 63.6797 113.211 63.6797 112.664C63.6797 112.122 63.6016 111.641 63.4453 111.219C63.2891 110.797 63.0573 110.466 62.75 110.227C62.4427 109.987 62.0625 109.867 61.6094 109.867C61.1667 109.867 60.7891 109.984 60.4766 110.219C60.1693 110.448 59.9349 110.773 59.7734 111.195C59.612 111.612 59.5312 112.102 59.5312 112.664C59.5312 113.227 59.612 113.721 59.7734 114.148C59.9349 114.57 60.1719 114.901 60.4844 115.141C60.7969 115.375 61.1719 115.492 61.6094 115.492ZM69.5 105.359V117H67.4766V105.359H69.5ZM75.3984 117.18C74.5547 117.18 73.8203 116.992 73.1953 116.617C72.5703 116.242 72.0859 115.719 71.7422 115.047C71.4036 114.375 71.2344 113.594 71.2344 112.703C71.2344 111.802 71.4036 111.016 71.7422 110.344C72.0859 109.667 72.5703 109.141 73.1953 108.766C73.8203 108.391 74.5547 108.203 75.3984 108.203C76.2422 108.203 76.9766 108.391 77.6016 108.766C78.2266 109.141 78.7083 109.667 79.0469 110.344C79.3906 111.016 79.5625 111.802 79.5625 112.703C79.5625 113.594 79.3906 114.375 79.0469 115.047C78.7083 115.719 78.2266 116.242 77.6016 116.617C76.9766 116.992 76.2422 117.18 75.3984 117.18ZM75.3984 115.531C75.8672 115.531 76.2578 115.406 76.5703 115.156C76.8828 114.901 77.1172 114.56 77.2734 114.133C77.4297 113.706 77.5078 113.227 77.5078 112.695C77.5078 112.159 77.4297 111.677 77.2734 111.25C77.1172 110.818 76.8828 110.477 76.5703 110.227C76.2578 109.977 75.8672 109.852 75.3984 109.852C74.9297 109.852 74.5391 109.977 74.2266 110.227C73.9193 110.477 73.6875 110.815 73.5312 111.242C73.375 111.669 73.2969 112.154 73.2969 112.695C73.2969 113.227 73.375 113.706 73.5312 114.133C73.6875 114.56 73.9193 114.901 74.2266 115.156C74.5391 115.406 74.9297 115.531 75.3984 115.531ZM85.0547 120.445C84.3516 120.445 83.7396 120.354 83.2188 120.172C82.7031 119.99 82.2812 119.74 81.9531 119.422C81.625 119.109 81.3906 118.755 81.25 118.359L83 117.805C83.0833 117.977 83.2057 118.146 83.3672 118.312C83.5339 118.484 83.7526 118.625 84.0234 118.734C84.2995 118.849 84.6406 118.906 85.0469 118.906C85.6771 118.906 86.1797 118.755 86.5547 118.453C86.9297 118.156 87.1172 117.695 87.1172 117.07V115.461H86.9609C86.8516 115.685 86.6979 115.906 86.5 116.125C86.3021 116.344 86.0417 116.526 85.7188 116.672C85.3958 116.818 84.9896 116.891 84.5 116.891C83.8281 116.891 83.2188 116.732 82.6719 116.414C82.1302 116.091 81.7005 115.615 81.3828 114.984C81.0651 114.349 80.9062 113.565 80.9062 112.633C80.9062 111.69 81.0651 110.891 81.3828 110.234C81.7057 109.573 82.138 109.07 82.6797 108.727C83.2266 108.378 83.8385 108.203 84.5156 108.203C85.0104 108.203 85.4219 108.286 85.75 108.453C86.0833 108.615 86.3516 108.815 86.5547 109.055C86.763 109.294 86.9219 109.523 87.0312 109.742H87.1328V108.32H89.1172V117C89.1172 117.781 88.9401 118.427 88.5859 118.938C88.237 119.448 87.7552 119.826 87.1406 120.07C86.5312 120.32 85.8359 120.445 85.0547 120.445ZM85.0547 115.281C85.4974 115.281 85.8724 115.177 86.1797 114.969C86.4922 114.755 86.7292 114.448 86.8906 114.047C87.0521 113.646 87.1328 113.169 87.1328 112.617C87.1328 112.065 87.0521 111.583 86.8906 111.172C86.7292 110.76 86.4948 110.44 86.1875 110.211C85.8802 109.982 85.5026 109.867 85.0547 109.867C84.6068 109.867 84.2266 109.987 83.9141 110.227C83.6068 110.461 83.3724 110.784 83.2109 111.195C83.0547 111.607 82.9766 112.081 82.9766 112.617C82.9766 113.154 83.0547 113.622 83.2109 114.023C83.3724 114.424 83.6068 114.734 83.9141 114.953C84.2266 115.172 84.6068 115.281 85.0547 115.281Z" fill="#111827"/>
<path fill-rule="evenodd" clip-rule="evenodd" d="M105.5 103.938C103.316 103.938 101.546 105.708 101.546 107.892V109.464C101.546 109.464 101.546 109.464 101.546 109.464H99.2832C99.0071 109.464 98.7832 109.688 98.7832 109.964V117.562C98.7832 117.838 99.0071 118.062 99.2832 118.062H111.717C111.993 118.062 112.217 117.838 112.217 117.562V109.964C112.217 109.688 111.993 109.464 111.717 109.464H109.454C109.454 109.464 109.454 109.464 109.454 109.464V107.892C109.454 105.708 107.684 103.938 105.5 103.938ZM102.546 107.892C102.546 106.26 103.869 104.938 105.5 104.938C107.131 104.938 108.454 106.26 108.454 107.892V109.464H102.546V107.892ZM99.7832 117.062V110.464H111.217V117.062H99.7832Z" fill="#111827"/>
<path d="M124.779 116.137C124.182 116.137 123.647 116.021 123.173 115.788C122.699 115.551 122.321 115.23 122.038 114.824C121.756 114.414 121.603 113.949 121.58 113.43H122.838C122.865 113.73 122.968 113.999 123.146 114.236C123.323 114.473 123.553 114.66 123.836 114.797C124.123 114.929 124.438 114.995 124.779 114.995C125.189 114.995 125.554 114.899 125.873 114.708C126.197 114.517 126.45 114.252 126.632 113.915C126.814 113.578 126.905 113.195 126.905 112.767C126.905 112.329 126.81 111.937 126.618 111.591C126.427 111.244 126.165 110.973 125.832 110.777C125.504 110.577 125.126 110.477 124.697 110.477C124.383 110.477 124.064 110.527 123.74 110.627C123.417 110.727 123.155 110.855 122.954 111.01L121.737 110.859L122.339 105.814H127.698V106.956H123.433L123.084 109.93H123.139C123.348 109.757 123.613 109.615 123.932 109.506C124.251 109.392 124.586 109.335 124.937 109.335C125.401 109.335 125.83 109.419 126.222 109.588C126.618 109.757 126.962 109.996 127.254 110.306C127.546 110.611 127.771 110.971 127.931 111.386C128.095 111.8 128.177 112.254 128.177 112.746C128.177 113.398 128.029 113.979 127.732 114.489C127.441 115 127.04 115.403 126.529 115.699C126.019 115.991 125.436 116.137 124.779 116.137ZM133.14 116.137C132.561 116.137 132.046 116.023 131.595 115.795C131.144 115.567 130.774 115.248 130.487 114.838C130.2 114.428 130.016 113.951 129.934 113.409H131.219C131.324 113.86 131.535 114.236 131.854 114.537C132.174 114.838 132.602 114.988 133.14 114.988C133.659 114.988 134.106 114.836 134.479 114.53C134.853 114.225 135.14 113.783 135.341 113.204C135.546 112.625 135.648 111.926 135.648 111.105H135.566C135.384 111.383 135.165 111.625 134.91 111.83C134.655 112.031 134.37 112.188 134.056 112.302C133.746 112.411 133.413 112.466 133.058 112.466C132.474 112.466 131.939 112.322 131.451 112.035C130.964 111.743 130.574 111.345 130.282 110.839C129.995 110.328 129.852 109.747 129.852 109.096C129.852 108.462 129.995 107.886 130.282 107.366C130.569 106.842 130.97 106.427 131.485 106.122C132.005 105.812 132.613 105.664 133.311 105.678C133.73 105.682 134.149 105.764 134.568 105.924C134.988 106.079 135.37 106.336 135.717 106.696C136.063 107.056 136.341 107.546 136.551 108.166C136.76 108.786 136.865 109.565 136.865 110.504C136.865 111.406 136.779 112.206 136.605 112.903C136.437 113.601 136.191 114.191 135.867 114.674C135.544 115.152 135.152 115.517 134.691 115.768C134.231 116.014 133.714 116.137 133.14 116.137ZM133.249 111.331C133.559 111.331 133.848 111.27 134.117 111.146C134.386 111.023 134.621 110.857 134.821 110.647C135.022 110.433 135.179 110.192 135.293 109.923C135.407 109.649 135.464 109.362 135.464 109.062C135.464 108.67 135.368 108.305 135.177 107.968C134.99 107.626 134.732 107.35 134.404 107.141C134.081 106.926 133.709 106.819 133.29 106.819C132.88 106.819 132.511 106.922 132.183 107.127C131.859 107.327 131.602 107.601 131.41 107.947C131.219 108.289 131.123 108.67 131.123 109.089C131.123 109.504 131.214 109.882 131.396 110.224C131.583 110.561 131.836 110.83 132.155 111.03C132.474 111.231 132.839 111.331 133.249 111.331ZM142.163 105.814V116H140.885V107.018H140.816L138.355 108.843V107.448L140.57 105.814H142.163ZM147.345 116.164C146.711 116.164 146.151 116.002 145.663 115.679C145.175 115.355 144.795 114.897 144.521 114.305C144.248 113.712 144.111 113.01 144.111 112.199C144.111 111.393 144.248 110.695 144.521 110.107C144.799 109.515 145.182 109.059 145.67 108.74C146.158 108.421 146.718 108.262 147.352 108.262C147.848 108.262 148.243 108.344 148.534 108.508C148.826 108.672 149.049 108.859 149.204 109.068C149.364 109.273 149.484 109.444 149.566 109.581H149.662V105.814H150.893V116H149.703V114.817H149.566C149.484 114.959 149.361 115.136 149.197 115.351C149.038 115.56 148.81 115.749 148.514 115.918C148.222 116.082 147.832 116.164 147.345 116.164ZM147.529 115.063C147.994 115.063 148.386 114.943 148.705 114.701C149.024 114.455 149.266 114.116 149.43 113.683C149.594 113.25 149.676 112.751 149.676 112.186C149.676 111.62 149.594 111.128 149.43 110.709C149.27 110.285 149.031 109.955 148.712 109.718C148.393 109.481 147.999 109.362 147.529 109.362C147.046 109.362 146.643 109.488 146.319 109.738C146 109.989 145.761 110.328 145.602 110.757C145.442 111.181 145.362 111.657 145.362 112.186C145.362 112.719 145.442 113.204 145.602 113.642C145.766 114.075 146.009 114.421 146.333 114.681C146.657 114.936 147.055 115.063 147.529 115.063ZM159.848 116.164C159.219 116.164 158.66 116.002 158.173 115.679C157.69 115.355 157.309 114.897 157.031 114.305C156.758 113.712 156.621 113.01 156.621 112.199C156.621 111.393 156.76 110.695 157.038 110.107C157.316 109.515 157.699 109.059 158.187 108.74C158.679 108.421 159.242 108.262 159.875 108.262C160.367 108.262 160.759 108.344 161.051 108.508C161.342 108.667 161.566 108.852 161.721 109.062C161.876 109.271 161.994 109.444 162.076 109.581H162.179V108.357H163.402V116H162.186V114.817H162.076C161.994 114.959 161.871 115.136 161.707 115.351C161.548 115.565 161.32 115.754 161.023 115.918C160.727 116.082 160.335 116.164 159.848 116.164ZM160.053 115.063C160.518 115.063 160.91 114.943 161.229 114.701C161.548 114.455 161.789 114.116 161.953 113.683C162.117 113.25 162.199 112.751 162.199 112.186C162.199 111.62 162.117 111.128 161.953 110.709C161.794 110.285 161.554 109.955 161.235 109.718C160.916 109.481 160.522 109.362 160.053 109.362C159.57 109.362 159.166 109.488 158.843 109.738C158.519 109.984 158.275 110.322 158.111 110.75C157.952 111.174 157.872 111.652 157.872 112.186C157.872 112.719 157.954 113.204 158.118 113.642C158.282 114.075 158.526 114.421 158.85 114.681C159.173 114.936 159.574 115.063 160.053 115.063ZM168.659 119.021C168.094 119.021 167.604 118.949 167.189 118.803C166.779 118.661 166.438 118.472 166.164 118.235C165.891 117.998 165.674 117.741 165.515 117.463L166.513 116.82C166.622 116.966 166.757 117.128 166.916 117.306C167.08 117.483 167.299 117.634 167.572 117.757C167.85 117.884 168.213 117.948 168.659 117.948C169.27 117.948 169.771 117.802 170.163 117.511C170.56 117.219 170.758 116.759 170.758 116.13V114.599H170.642C170.555 114.744 170.432 114.918 170.272 115.118C170.118 115.319 169.892 115.496 169.596 115.651C169.304 115.802 168.912 115.877 168.42 115.877C167.809 115.877 167.26 115.733 166.772 115.446C166.285 115.155 165.9 114.731 165.617 114.175C165.335 113.619 165.193 112.942 165.193 112.145C165.193 111.356 165.332 110.673 165.61 110.094C165.888 109.51 166.271 109.059 166.759 108.74C167.251 108.421 167.814 108.262 168.447 108.262C168.939 108.262 169.331 108.344 169.623 108.508C169.919 108.667 170.147 108.852 170.307 109.062C170.466 109.271 170.589 109.444 170.676 109.581H170.792V108.357H171.988V116.198C171.988 116.854 171.84 117.39 171.544 117.805C171.248 118.224 170.847 118.532 170.341 118.728C169.84 118.924 169.279 119.021 168.659 119.021ZM168.625 114.783C169.09 114.783 169.482 114.678 169.801 114.469C170.12 114.255 170.361 113.949 170.525 113.553C170.689 113.152 170.771 112.673 170.771 112.117C170.771 111.575 170.689 111.099 170.525 110.688C170.366 110.274 170.127 109.95 169.808 109.718C169.489 109.481 169.094 109.362 168.625 109.362C168.142 109.362 167.739 109.488 167.415 109.738C167.091 109.984 166.848 110.315 166.684 110.729C166.524 111.144 166.444 111.607 166.444 112.117C166.444 112.641 166.526 113.104 166.69 113.505C166.854 113.906 167.098 114.22 167.422 114.448C167.745 114.672 168.146 114.783 168.625 114.783ZM177.259 116.164C176.566 116.164 175.958 116 175.434 115.672C174.914 115.344 174.508 114.883 174.217 114.291C173.925 113.699 173.779 113.01 173.779 112.227C173.779 111.429 173.925 110.734 174.217 110.142C174.508 109.545 174.914 109.082 175.434 108.754C175.958 108.426 176.566 108.262 177.259 108.262C177.956 108.262 178.567 108.426 179.091 108.754C179.615 109.082 180.023 109.545 180.314 110.142C180.606 110.734 180.752 111.429 180.752 112.227C180.752 113.01 180.606 113.699 180.314 114.291C180.023 114.883 179.615 115.344 179.091 115.672C178.567 116 177.956 116.164 177.259 116.164ZM177.259 115.063C177.774 115.063 178.198 114.931 178.53 114.667C178.863 114.403 179.109 114.056 179.269 113.628C179.428 113.195 179.508 112.728 179.508 112.227C179.508 111.721 179.428 111.251 179.269 110.818C179.109 110.381 178.863 110.03 178.53 109.766C178.198 109.497 177.774 109.362 177.259 109.362C176.748 109.362 176.329 109.497 176.001 109.766C175.673 110.03 175.429 110.379 175.27 110.812C175.11 111.244 175.03 111.716 175.03 112.227C175.03 112.728 175.11 113.195 175.27 113.628C175.429 114.056 175.673 114.403 176.001 114.667C176.329 114.931 176.748 115.063 177.259 115.063Z" fill="#111827"/>
<rect x="330.5" y="103" width="16" height="16" rx="8" fill="white"/>
<rect x="330.5" y="103" width="16" height="16" rx="8" stroke="#E4E4E7"/>
<rect x="37.4019" y="162.07" width="4.34127" height="4.34127" transform="rotate(-45 37.4019 162.07)" stroke="#111827" stroke-linejoin="round"/>
<rect x="37.4019" y="171.93" width="4.34127" height="4.34127" transform="rotate(-45 37.4019 171.93)" stroke="#111827" stroke-linejoin="round"/>
<rect x="42.3604" y="167.024" width="4.34127" height="4.34127" transform="rotate(-45 42.3604 167.024)" stroke="#111827" stroke-linejoin="round"/>
<rect x="32.5" y="167.024" width="4.34127" height="4.34127" transform="rotate(-45 32.5 167.024)" stroke="#111827" stroke-linejoin="round"/>
<path d="M57.5547 176.266V164.32H59.5391V165.734H59.6562C59.7656 165.516 59.9193 165.289 60.1172 165.055C60.3203 164.815 60.5859 164.615 60.9141 164.453C61.2422 164.286 61.6562 164.203 62.1562 164.203C62.8333 164.203 63.4427 164.378 63.9844 164.727C64.526 165.07 64.9557 165.576 65.2734 166.242C65.5911 166.909 65.75 167.719 65.75 168.672C65.75 169.62 65.5938 170.427 65.2812 171.094C64.974 171.76 64.5495 172.273 64.0078 172.633C63.4661 172.987 62.8464 173.164 62.1484 173.164C61.6641 173.164 61.2578 173.083 60.9297 172.922C60.6016 172.755 60.3359 172.555 60.1328 172.32C59.9297 172.086 59.7708 171.857 59.6562 171.633H59.5781V176.266H57.5547ZM61.6094 171.492C62.0573 171.492 62.4349 171.372 62.7422 171.133C63.0495 170.888 63.2812 170.552 63.4375 170.125C63.599 169.698 63.6797 169.211 63.6797 168.664C63.6797 168.122 63.6016 167.641 63.4453 167.219C63.2891 166.797 63.0573 166.466 62.75 166.227C62.4427 165.987 62.0625 165.867 61.6094 165.867C61.1667 165.867 60.7891 165.984 60.4766 166.219C60.1693 166.448 59.9349 166.773 59.7734 167.195C59.612 167.612 59.5312 168.102 59.5312 168.664C59.5312 169.227 59.612 169.721 59.7734 170.148C59.9349 170.57 60.1719 170.901 60.4844 171.141C60.7969 171.375 61.1719 171.492 61.6094 171.492ZM69.5 161.359V173H67.4766V161.359H69.5ZM74.8281 173.164C74.1406 173.164 73.526 172.987 72.9844 172.633C72.4427 172.273 72.0156 171.76 71.7031 171.094C71.3906 170.427 71.2344 169.62 71.2344 168.672C71.2344 167.719 71.3932 166.909 71.7109 166.242C72.0339 165.576 72.4661 165.07 73.0078 164.727C73.5547 164.378 74.1667 164.203 74.8438 164.203C75.3385 164.203 75.75 164.286 76.0781 164.453C76.4062 164.615 76.6693 164.815 76.8672 165.055C77.0703 165.289 77.2266 165.516 77.3359 165.734H77.4219V164.32H79.4297V173H77.4297V171.633H77.3359C77.2266 171.857 77.0677 172.086 76.8594 172.32C76.6562 172.555 76.388 172.755 76.0547 172.922C75.7266 173.083 75.3177 173.164 74.8281 173.164ZM75.3828 171.492C75.8255 171.492 76.2005 171.375 76.5078 171.141C76.8203 170.901 77.0573 170.57 77.2188 170.148C77.3802 169.721 77.4609 169.227 77.4609 168.664C77.4609 168.102 77.3802 167.612 77.2188 167.195C77.0573 166.773 76.8229 166.448 76.5156 166.219C76.2083 165.984 75.8307 165.867 75.3828 165.867C74.9349 165.867 74.5547 165.987 74.2422 166.227C73.9349 166.466 73.7005 166.797 73.5391 167.219C73.3828 167.635 73.3047 168.117 73.3047 168.664C73.3047 169.211 73.3828 169.698 73.5391 170.125C73.7005 170.552 73.9349 170.888 74.2422 171.133C74.5547 171.372 74.9349 171.492 75.3828 171.492ZM80.8438 173L84.2422 167.789L84.2344 169.297L81.0234 164.32H83.25L84.1328 165.781C84.388 166.219 84.6172 166.643 84.8203 167.055C85.0234 167.461 85.2292 167.859 85.4375 168.25H84.6172C84.8307 167.865 85.0339 167.466 85.2266 167.055C85.4245 166.643 85.6536 166.219 85.9141 165.781L86.8281 164.32H89.0156L85.7578 169.336V167.844L89.1484 173H86.9297L85.8672 171.281C85.6068 170.854 85.375 170.438 85.1719 170.031C84.9688 169.625 84.763 169.234 84.5547 168.859H85.375C85.1719 169.234 84.974 169.625 84.7812 170.031C84.5938 170.438 84.3698 170.854 84.1094 171.281L83.0469 173H80.8438ZM94.0234 173.18C93.1797 173.18 92.4453 172.992 91.8203 172.617C91.1953 172.242 90.7109 171.719 90.3672 171.047C90.0286 170.375 89.8594 169.594 89.8594 168.703C89.8594 167.802 90.0286 167.016 90.3672 166.344C90.7109 165.667 91.1953 165.141 91.8203 164.766C92.4453 164.391 93.1797 164.203 94.0234 164.203C94.8672 164.203 95.6016 164.391 96.2266 164.766C96.8516 165.141 97.3333 165.667 97.6719 166.344C98.0156 167.016 98.1875 167.802 98.1875 168.703C98.1875 169.594 98.0156 170.375 97.6719 171.047C97.3333 171.719 96.8516 172.242 96.2266 172.617C95.6016 172.992 94.8672 173.18 94.0234 173.18ZM94.0234 171.531C94.4922 171.531 94.8828 171.406 95.1953 171.156C95.5078 170.901 95.7422 170.56 95.8984 170.133C96.0547 169.706 96.1328 169.227 96.1328 168.695C96.1328 168.159 96.0547 167.677 95.8984 167.25C95.7422 166.818 95.5078 166.477 95.1953 166.227C94.8828 165.977 94.4922 165.852 94.0234 165.852C93.5547 165.852 93.1641 165.977 92.8516 166.227C92.5443 166.477 92.3125 166.815 92.1562 167.242C92 167.669 91.9219 168.154 91.9219 168.695C91.9219 169.227 92 169.706 92.1562 170.133C92.3125 170.56 92.5443 170.901 92.8516 171.156C93.1641 171.406 93.5547 171.531 94.0234 171.531ZM101.938 167.938V173H99.9141V164.32H101.844L101.867 166.469H101.68C101.924 165.719 102.284 165.154 102.758 164.773C103.237 164.393 103.833 164.203 104.547 164.203C105.141 164.203 105.661 164.331 106.109 164.586C106.557 164.841 106.904 165.214 107.148 165.703C107.398 166.193 107.523 166.789 107.523 167.492V173H105.5V167.805C105.5 167.216 105.349 166.758 105.047 166.43C104.745 166.096 104.328 165.93 103.797 165.93C103.438 165.93 103.117 166.008 102.836 166.164C102.56 166.32 102.341 166.547 102.18 166.844C102.018 167.141 101.938 167.505 101.938 167.938ZM109.633 173V164.32H111.656V173H109.633ZM110.641 163.086C110.318 163.086 110.039 162.977 109.805 162.758C109.576 162.539 109.461 162.276 109.461 161.969C109.461 161.656 109.576 161.393 109.805 161.18C110.039 160.966 110.318 160.859 110.641 160.859C110.969 160.859 111.247 160.966 111.477 161.18C111.711 161.393 111.828 161.656 111.828 161.969C111.828 162.276 111.711 162.539 111.477 162.758C111.247 162.977 110.969 163.086 110.641 163.086ZM117.547 173.18C116.703 173.18 115.969 172.992 115.344 172.617C114.724 172.242 114.242 171.719 113.898 171.047C113.56 170.37 113.391 169.589 113.391 168.703C113.391 167.802 113.56 167.016 113.898 166.344C114.242 165.667 114.724 165.141 115.344 164.766C115.969 164.391 116.703 164.203 117.547 164.203C118.036 164.203 118.49 164.268 118.906 164.398C119.328 164.523 119.703 164.708 120.031 164.953C120.359 165.193 120.633 165.484 120.852 165.828C121.07 166.172 121.224 166.557 121.312 166.984L119.406 167.344C119.354 167.115 119.273 166.909 119.164 166.727C119.06 166.544 118.93 166.388 118.773 166.258C118.617 166.128 118.438 166.029 118.234 165.961C118.031 165.888 117.807 165.852 117.562 165.852C117.094 165.852 116.703 165.977 116.391 166.227C116.078 166.471 115.844 166.807 115.688 167.234C115.531 167.661 115.453 168.148 115.453 168.695C115.453 169.232 115.531 169.714 115.688 170.141C115.844 170.568 116.078 170.906 116.391 171.156C116.703 171.406 117.094 171.531 117.562 171.531C117.812 171.531 118.039 171.495 118.242 171.422C118.451 171.349 118.633 171.245 118.789 171.109C118.951 170.974 119.083 170.81 119.188 170.617C119.297 170.424 119.378 170.214 119.43 169.984L121.328 170.336C121.245 170.773 121.094 171.167 120.875 171.516C120.656 171.865 120.38 172.164 120.047 172.414C119.719 172.659 119.344 172.849 118.922 172.984C118.5 173.115 118.042 173.18 117.547 173.18Z" fill="#111827"/>
<path fill-rule="evenodd" clip-rule="evenodd" d="M137.5 159.938C135.316 159.938 133.546 161.708 133.546 163.892V165.464C133.546 165.464 133.546 165.464 133.546 165.464H131.283C131.007 165.464 130.783 165.688 130.783 165.964V173.562C130.783 173.838 131.007 174.062 131.283 174.062H143.717C143.993 174.062 144.217 173.838 144.217 173.562V165.964C144.217 165.688 143.993 165.464 143.717 165.464H141.454C141.454 165.464 141.454 165.464 141.454 165.464V163.892C141.454 161.708 139.684 159.938 137.5 159.938ZM134.546 163.892C134.546 162.26 135.869 160.938 137.5 160.938C139.131 160.938 140.454 162.26 140.454 163.892V165.464H134.546V163.892ZM131.783 173.062V166.464H143.217V173.062H131.783Z" fill="#111827"/>
<path d="M156.622 172.137C156.043 172.137 155.528 172.023 155.077 171.795C154.626 171.567 154.257 171.248 153.97 170.838C153.683 170.428 153.498 169.951 153.416 169.409H154.701C154.806 169.86 155.018 170.236 155.337 170.537C155.656 170.838 156.084 170.988 156.622 170.988C157.142 170.988 157.588 170.836 157.962 170.53C158.336 170.225 158.623 169.783 158.823 169.204C159.028 168.625 159.131 167.926 159.131 167.105H159.049C158.867 167.383 158.648 167.625 158.393 167.83C158.137 168.031 157.853 168.188 157.538 168.302C157.228 168.411 156.896 168.466 156.54 168.466C155.957 168.466 155.421 168.322 154.934 168.035C154.446 167.743 154.056 167.345 153.765 166.839C153.478 166.328 153.334 165.747 153.334 165.096C153.334 164.462 153.478 163.886 153.765 163.366C154.052 162.842 154.453 162.427 154.968 162.122C155.487 161.812 156.096 161.664 156.793 161.678C157.212 161.682 157.632 161.764 158.051 161.924C158.47 162.079 158.853 162.336 159.199 162.696C159.546 163.056 159.824 163.546 160.033 164.166C160.243 164.786 160.348 165.565 160.348 166.504C160.348 167.406 160.261 168.206 160.088 168.903C159.919 169.601 159.673 170.191 159.35 170.674C159.026 171.152 158.634 171.517 158.174 171.768C157.714 172.014 157.196 172.137 156.622 172.137ZM156.731 167.331C157.041 167.331 157.331 167.27 157.6 167.146C157.868 167.023 158.103 166.857 158.304 166.647C158.504 166.433 158.661 166.192 158.775 165.923C158.889 165.649 158.946 165.362 158.946 165.062C158.946 164.67 158.851 164.305 158.659 163.968C158.472 163.626 158.215 163.35 157.887 163.141C157.563 162.926 157.192 162.819 156.772 162.819C156.362 162.819 155.993 162.922 155.665 163.127C155.341 163.327 155.084 163.601 154.893 163.947C154.701 164.289 154.605 164.67 154.605 165.089C154.605 165.504 154.697 165.882 154.879 166.224C155.066 166.561 155.319 166.83 155.638 167.03C155.957 167.231 156.321 167.331 156.731 167.331ZM165.646 161.814V172H164.367V163.018H164.299L161.838 164.843V163.448L164.053 161.814H165.646ZM170.827 172.164C170.194 172.164 169.633 172.002 169.146 171.679C168.658 171.355 168.277 170.897 168.004 170.305C167.73 169.712 167.594 169.01 167.594 168.199C167.594 167.393 167.73 166.695 168.004 166.107C168.282 165.515 168.665 165.059 169.152 164.74C169.64 164.421 170.201 164.262 170.834 164.262C171.331 164.262 171.725 164.344 172.017 164.508C172.308 164.672 172.532 164.859 172.687 165.068C172.846 165.273 172.967 165.444 173.049 165.581H173.145V161.814H174.375V172H173.186V170.817H173.049C172.967 170.959 172.844 171.136 172.68 171.351C172.52 171.56 172.292 171.749 171.996 171.918C171.704 172.082 171.315 172.164 170.827 172.164ZM171.012 171.063C171.477 171.063 171.868 170.943 172.188 170.701C172.507 170.455 172.748 170.116 172.912 169.683C173.076 169.25 173.158 168.751 173.158 168.186C173.158 167.62 173.076 167.128 172.912 166.709C172.753 166.285 172.513 165.955 172.194 165.718C171.875 165.481 171.481 165.362 171.012 165.362C170.529 165.362 170.125 165.488 169.802 165.738C169.483 165.989 169.243 166.328 169.084 166.757C168.924 167.181 168.845 167.657 168.845 168.186C168.845 168.719 168.924 169.204 169.084 169.642C169.248 170.075 169.492 170.421 169.815 170.681C170.139 170.936 170.538 171.063 171.012 171.063ZM183.33 172.164C182.701 172.164 182.143 172.002 181.655 171.679C181.172 171.355 180.792 170.897 180.514 170.305C180.24 169.712 180.104 169.01 180.104 168.199C180.104 167.393 180.243 166.695 180.521 166.107C180.799 165.515 181.181 165.059 181.669 164.74C182.161 164.421 182.724 164.262 183.357 164.262C183.85 164.262 184.242 164.344 184.533 164.508C184.825 164.667 185.048 164.852 185.203 165.062C185.358 165.271 185.477 165.444 185.559 165.581H185.661V164.357H186.885V172H185.668V170.817H185.559C185.477 170.959 185.354 171.136 185.189 171.351C185.03 171.565 184.802 171.754 184.506 171.918C184.21 172.082 183.818 172.164 183.33 172.164ZM183.535 171.063C184 171.063 184.392 170.943 184.711 170.701C185.03 170.455 185.271 170.116 185.436 169.683C185.6 169.25 185.682 168.751 185.682 168.186C185.682 167.62 185.6 167.128 185.436 166.709C185.276 166.285 185.037 165.955 184.718 165.718C184.399 165.481 184.005 165.362 183.535 165.362C183.052 165.362 182.649 165.488 182.325 165.738C182.002 165.984 181.758 166.322 181.594 166.75C181.434 167.174 181.354 167.652 181.354 168.186C181.354 168.719 181.437 169.204 181.601 169.642C181.765 170.075 182.008 170.421 182.332 170.681C182.656 170.936 183.057 171.063 183.535 171.063ZM192.142 175.021C191.576 175.021 191.087 174.949 190.672 174.803C190.262 174.661 189.92 174.472 189.646 174.235C189.373 173.998 189.157 173.741 188.997 173.463L189.995 172.82C190.104 172.966 190.239 173.128 190.398 173.306C190.562 173.483 190.781 173.634 191.055 173.757C191.333 173.884 191.695 173.948 192.142 173.948C192.752 173.948 193.254 173.802 193.646 173.511C194.042 173.219 194.24 172.759 194.24 172.13V170.599H194.124C194.037 170.744 193.914 170.918 193.755 171.118C193.6 171.319 193.374 171.496 193.078 171.651C192.786 171.802 192.395 171.877 191.902 171.877C191.292 171.877 190.743 171.733 190.255 171.446C189.767 171.155 189.382 170.731 189.1 170.175C188.817 169.619 188.676 168.942 188.676 168.145C188.676 167.356 188.815 166.673 189.093 166.094C189.371 165.51 189.754 165.059 190.241 164.74C190.733 164.421 191.296 164.262 191.93 164.262C192.422 164.262 192.814 164.344 193.105 164.508C193.402 164.667 193.63 164.852 193.789 165.062C193.949 165.271 194.072 165.444 194.158 165.581H194.274V164.357H195.471V172.198C195.471 172.854 195.323 173.39 195.026 173.805C194.73 174.224 194.329 174.532 193.823 174.728C193.322 174.924 192.761 175.021 192.142 175.021ZM192.107 170.783C192.572 170.783 192.964 170.678 193.283 170.469C193.602 170.255 193.844 169.949 194.008 169.553C194.172 169.152 194.254 168.673 194.254 168.117C194.254 167.575 194.172 167.099 194.008 166.688C193.848 166.274 193.609 165.95 193.29 165.718C192.971 165.481 192.577 165.362 192.107 165.362C191.624 165.362 191.221 165.488 190.897 165.738C190.574 165.984 190.33 166.315 190.166 166.729C190.007 167.144 189.927 167.607 189.927 168.117C189.927 168.641 190.009 169.104 190.173 169.505C190.337 169.906 190.581 170.22 190.904 170.448C191.228 170.672 191.629 170.783 192.107 170.783ZM200.741 172.164C200.049 172.164 199.44 172 198.916 171.672C198.396 171.344 197.991 170.883 197.699 170.291C197.408 169.699 197.262 169.01 197.262 168.227C197.262 167.429 197.408 166.734 197.699 166.142C197.991 165.545 198.396 165.082 198.916 164.754C199.44 164.426 200.049 164.262 200.741 164.262C201.438 164.262 202.049 164.426 202.573 164.754C203.097 165.082 203.505 165.545 203.797 166.142C204.089 166.734 204.234 167.429 204.234 168.227C204.234 169.01 204.089 169.699 203.797 170.291C203.505 170.883 203.097 171.344 202.573 171.672C202.049 172 201.438 172.164 200.741 172.164ZM200.741 171.063C201.256 171.063 201.68 170.931 202.013 170.667C202.345 170.403 202.591 170.056 202.751 169.628C202.91 169.195 202.99 168.728 202.99 168.227C202.99 167.721 202.91 167.251 202.751 166.818C202.591 166.381 202.345 166.03 202.013 165.766C201.68 165.497 201.256 165.362 200.741 165.362C200.231 165.362 199.812 165.497 199.483 165.766C199.155 166.03 198.911 166.379 198.752 166.812C198.592 167.244 198.513 167.716 198.513 168.227C198.513 168.728 198.592 169.195 198.752 169.628C198.911 170.056 199.155 170.403 199.483 170.667C199.812 170.931 200.231 171.063 200.741 171.063Z" fill="#111827"/>
<rect x="330.5" y="159" width="16" height="16" rx="8" fill="white"/>
<rect x="330.5" y="159" width="16" height="16" rx="8" stroke="#E4E4E7"/>
<rect x="37.4019" y="218.07" width="4.34127" height="4.34127" transform="rotate(-45 37.4019 218.07)" stroke="#111827" stroke-linejoin="round"/>
<rect x="37.4019" y="227.93" width="4.34127" height="4.34127" transform="rotate(-45 37.4019 227.93)" stroke="#111827" stroke-linejoin="round"/>
<rect x="42.3604" y="223.024" width="4.34127" height="4.34127" transform="rotate(-45 42.3604 223.024)" stroke="#111827" stroke-linejoin="round"/>
<rect x="32.5" y="223.024" width="4.34127" height="4.34127" transform="rotate(-45 32.5 223.024)" stroke="#111827" stroke-linejoin="round"/>
<path d="M60.8516 229.18C60.1797 229.18 59.5833 229.083 59.0625 228.891C58.5469 228.693 58.125 228.409 57.7969 228.039C57.4688 227.664 57.2578 227.208 57.1641 226.672L59.0703 226.359C59.1797 226.786 59.3854 227.107 59.6875 227.32C59.9896 227.529 60.388 227.633 60.8828 227.633C61.3828 227.633 61.776 227.534 62.0625 227.336C62.3542 227.133 62.5 226.885 62.5 226.594C62.5 226.344 62.4036 226.138 62.2109 225.977C62.0182 225.81 61.724 225.685 61.3281 225.602L59.8516 225.281C59.0286 225.104 58.4141 224.815 58.0078 224.414C57.6016 224.008 57.3984 223.484 57.3984 222.844C57.3984 222.307 57.5443 221.841 57.8359 221.445C58.1328 221.049 58.5443 220.745 59.0703 220.531C59.5964 220.312 60.2057 220.203 60.8984 220.203C61.5599 220.203 62.1302 220.299 62.6094 220.492C63.0885 220.68 63.474 220.948 63.7656 221.297C64.0625 221.641 64.263 222.044 64.3672 222.508L62.5547 222.828C62.4661 222.516 62.2891 222.253 62.0234 222.039C61.763 221.826 61.3984 221.719 60.9297 221.719C60.4974 221.719 60.138 221.812 59.8516 222C59.5703 222.188 59.4297 222.43 59.4297 222.727C59.4297 222.982 59.5234 223.193 59.7109 223.359C59.9036 223.521 60.2161 223.648 60.6484 223.742L62.1328 224.055C62.9609 224.232 63.5755 224.516 63.9766 224.906C64.3776 225.292 64.5781 225.792 64.5781 226.406C64.5781 226.953 64.4193 227.435 64.1016 227.852C63.7839 228.268 63.3438 228.594 62.7812 228.828C62.224 229.062 61.5807 229.18 60.8516 229.18ZM70.3594 220.32V221.906H65.3906V220.32H70.3594ZM66.6484 218.219H68.6719V226.555C68.6719 226.867 68.7396 227.096 68.875 227.242C69.0104 227.383 69.2344 227.453 69.5469 227.453C69.6406 227.453 69.763 227.443 69.9141 227.422C70.0703 227.401 70.1953 227.383 70.2891 227.367L70.5781 228.938C70.3646 229 70.1406 229.042 69.9062 229.062C69.6771 229.089 69.4531 229.102 69.2344 229.102C68.401 229.102 67.7604 228.898 67.3125 228.492C66.8698 228.086 66.6484 227.5 66.6484 226.734V218.219ZM75.5547 229.18C74.7109 229.18 73.9766 228.992 73.3516 228.617C72.7266 228.242 72.2422 227.719 71.8984 227.047C71.5599 226.375 71.3906 225.594 71.3906 224.703C71.3906 223.802 71.5599 223.016 71.8984 222.344C72.2422 221.667 72.7266 221.141 73.3516 220.766C73.9766 220.391 74.7109 220.203 75.5547 220.203C76.3984 220.203 77.1328 220.391 77.7578 220.766C78.3828 221.141 78.8646 221.667 79.2031 222.344C79.5469 223.016 79.7188 223.802 79.7188 224.703C79.7188 225.594 79.5469 226.375 79.2031 227.047C78.8646 227.719 78.3828 228.242 77.7578 228.617C77.1328 228.992 76.3984 229.18 75.5547 229.18ZM75.5547 227.531C76.0234 227.531 76.4141 227.406 76.7266 227.156C77.0391 226.901 77.2734 226.56 77.4297 226.133C77.5859 225.706 77.6641 225.227 77.6641 224.695C77.6641 224.159 77.5859 223.677 77.4297 223.25C77.2734 222.818 77.0391 222.477 76.7266 222.227C76.4141 221.977 76.0234 221.852 75.5547 221.852C75.0859 221.852 74.6953 221.977 74.3828 222.227C74.0755 222.477 73.8438 222.815 73.6875 223.242C73.5312 223.669 73.4531 224.154 73.4531 224.695C73.4531 225.227 73.5312 225.706 73.6875 226.133C73.8438 226.56 74.0755 226.901 74.3828 227.156C74.6953 227.406 75.0859 227.531 75.5547 227.531ZM81.4453 229V220.32H83.4062V221.773H83.4922C83.6484 221.268 83.9167 220.88 84.2969 220.609C84.6823 220.339 85.1276 220.203 85.6328 220.203C85.7474 220.203 85.8724 220.208 86.0078 220.219C86.1484 220.229 86.2656 220.242 86.3594 220.258V222.117C86.2812 222.091 86.1484 222.068 85.9609 222.047C85.7734 222.026 85.5885 222.016 85.4062 222.016C85.0365 222.016 84.7031 222.096 84.4062 222.258C84.1146 222.414 83.8854 222.635 83.7188 222.922C83.5521 223.203 83.4688 223.534 83.4688 223.914V229H81.4453ZM90.6094 229.164C89.9219 229.164 89.3073 228.987 88.7656 228.633C88.224 228.273 87.7969 227.76 87.4844 227.094C87.1719 226.427 87.0156 225.62 87.0156 224.672C87.0156 223.719 87.1745 222.909 87.4922 222.242C87.8151 221.576 88.2474 221.07 88.7891 220.727C89.3359 220.378 89.9479 220.203 90.625 220.203C91.1198 220.203 91.5312 220.286 91.8594 220.453C92.1875 220.615 92.4505 220.815 92.6484 221.055C92.8516 221.289 93.0078 221.516 93.1172 221.734H93.2031V220.32H95.2109V229H93.2109V227.633H93.1172C93.0078 227.857 92.849 228.086 92.6406 228.32C92.4375 228.555 92.1693 228.755 91.8359 228.922C91.5078 229.083 91.099 229.164 90.6094 229.164ZM91.1641 227.492C91.6068 227.492 91.9818 227.375 92.2891 227.141C92.6016 226.901 92.8385 226.57 93 226.148C93.1615 225.721 93.2422 225.227 93.2422 224.664C93.2422 224.102 93.1615 223.612 93 223.195C92.8385 222.773 92.6042 222.448 92.2969 222.219C91.9896 221.984 91.612 221.867 91.1641 221.867C90.7161 221.867 90.3359 221.987 90.0234 222.227C89.7161 222.466 89.4818 222.797 89.3203 223.219C89.1641 223.635 89.0859 224.117 89.0859 224.664C89.0859 225.211 89.1641 225.698 89.3203 226.125C89.4818 226.552 89.7161 226.888 90.0234 227.133C90.3359 227.372 90.7161 227.492 91.1641 227.492ZM101.086 232.445C100.383 232.445 99.7708 232.354 99.25 232.172C98.7344 231.99 98.3125 231.74 97.9844 231.422C97.6562 231.109 97.4219 230.755 97.2812 230.359L99.0312 229.805C99.1146 229.977 99.237 230.146 99.3984 230.312C99.5651 230.484 99.7839 230.625 100.055 230.734C100.331 230.849 100.672 230.906 101.078 230.906C101.708 230.906 102.211 230.755 102.586 230.453C102.961 230.156 103.148 229.695 103.148 229.07V227.461H102.992C102.883 227.685 102.729 227.906 102.531 228.125C102.333 228.344 102.073 228.526 101.75 228.672C101.427 228.818 101.021 228.891 100.531 228.891C99.8594 228.891 99.25 228.732 98.7031 228.414C98.1615 228.091 97.7318 227.615 97.4141 226.984C97.0964 226.349 96.9375 225.565 96.9375 224.633C96.9375 223.69 97.0964 222.891 97.4141 222.234C97.737 221.573 98.1693 221.07 98.7109 220.727C99.2578 220.378 99.8698 220.203 100.547 220.203C101.042 220.203 101.453 220.286 101.781 220.453C102.115 220.615 102.383 220.815 102.586 221.055C102.794 221.294 102.953 221.523 103.062 221.742H103.164V220.32H105.148V229C105.148 229.781 104.971 230.427 104.617 230.938C104.268 231.448 103.786 231.826 103.172 232.07C102.562 232.32 101.867 232.445 101.086 232.445ZM101.086 227.281C101.529 227.281 101.904 227.177 102.211 226.969C102.523 226.755 102.76 226.448 102.922 226.047C103.083 225.646 103.164 225.169 103.164 224.617C103.164 224.065 103.083 223.583 102.922 223.172C102.76 222.76 102.526 222.44 102.219 222.211C101.911 221.982 101.534 221.867 101.086 221.867C100.638 221.867 100.258 221.987 99.9453 222.227C99.638 222.461 99.4036 222.784 99.2422 223.195C99.0859 223.607 99.0078 224.081 99.0078 224.617C99.0078 225.154 99.0859 225.622 99.2422 226.023C99.4036 226.424 99.638 226.734 99.9453 226.953C100.258 227.172 100.638 227.281 101.086 227.281ZM111.094 229.18C110.224 229.18 109.471 228.995 108.836 228.625C108.206 228.255 107.721 227.737 107.383 227.07C107.044 226.398 106.875 225.612 106.875 224.711C106.875 223.82 107.042 223.036 107.375 222.359C107.714 221.682 108.19 221.154 108.805 220.773C109.419 220.393 110.138 220.203 110.961 220.203C111.503 220.203 112.013 220.292 112.492 220.469C112.977 220.641 113.404 220.909 113.773 221.273C114.143 221.633 114.432 222.089 114.641 222.641C114.854 223.193 114.961 223.846 114.961 224.602V225.219H107.812V223.844H113.945L113.008 224.25C113.008 223.76 112.93 223.331 112.773 222.961C112.617 222.591 112.388 222.305 112.086 222.102C111.789 221.893 111.419 221.789 110.977 221.789C110.534 221.789 110.156 221.893 109.844 222.102C109.531 222.31 109.292 222.591 109.125 222.945C108.964 223.294 108.883 223.685 108.883 224.117V225.062C108.883 225.604 108.974 226.065 109.156 226.445C109.344 226.82 109.604 227.104 109.938 227.297C110.276 227.49 110.669 227.586 111.117 227.586C111.419 227.586 111.693 227.544 111.938 227.461C112.182 227.372 112.391 227.245 112.562 227.078C112.74 226.906 112.872 226.698 112.961 226.453L114.828 226.797C114.693 227.271 114.453 227.688 114.109 228.047C113.771 228.401 113.346 228.68 112.836 228.883C112.326 229.081 111.745 229.18 111.094 229.18Z" fill="#111827"/>
<path fill-rule="evenodd" clip-rule="evenodd" d="M131.5 215.938C129.316 215.938 127.546 217.708 127.546 219.892V221.464C127.546 221.464 127.546 221.464 127.546 221.464H125.283C125.007 221.464 124.783 221.688 124.783 221.964V229.562C124.783 229.838 125.007 230.062 125.283 230.062H137.717C137.993 230.062 138.217 229.838 138.217 229.562V221.964C138.217 221.688 137.993 221.464 137.717 221.464H135.454C135.454 221.464 135.454 221.464 135.454 221.464V219.892C135.454 217.708 133.684 215.938 131.5 215.938ZM128.546 219.892C128.546 218.26 129.869 216.938 131.5 216.938C133.131 216.938 134.454 218.26 134.454 219.892V221.464H128.546V219.892ZM125.783 229.062V222.464H137.217V229.062H125.783Z" fill="#111827"/>
<path d="M150.779 228.137C150.182 228.137 149.647 228.021 149.173 227.788C148.699 227.551 148.321 227.23 148.038 226.824C147.756 226.414 147.603 225.949 147.58 225.43H148.838C148.865 225.73 148.968 225.999 149.146 226.236C149.323 226.473 149.553 226.66 149.836 226.797C150.123 226.929 150.438 226.995 150.779 226.995C151.189 226.995 151.554 226.899 151.873 226.708C152.197 226.517 152.45 226.252 152.632 225.915C152.814 225.578 152.905 225.195 152.905 224.767C152.905 224.329 152.81 223.937 152.618 223.591C152.427 223.244 152.165 222.973 151.832 222.777C151.504 222.577 151.126 222.477 150.697 222.477C150.383 222.477 150.064 222.527 149.74 222.627C149.417 222.727 149.155 222.855 148.954 223.01L147.737 222.859L148.339 217.814H153.698V218.956H149.433L149.084 221.93H149.139C149.348 221.757 149.613 221.615 149.932 221.506C150.251 221.392 150.586 221.335 150.937 221.335C151.401 221.335 151.83 221.419 152.222 221.588C152.618 221.757 152.962 221.996 153.254 222.306C153.546 222.611 153.771 222.971 153.931 223.386C154.095 223.8 154.177 224.254 154.177 224.746C154.177 225.398 154.029 225.979 153.732 226.489C153.441 227 153.04 227.403 152.529 227.699C152.019 227.991 151.436 228.137 150.779 228.137ZM159.14 228.137C158.561 228.137 158.046 228.023 157.595 227.795C157.144 227.567 156.774 227.248 156.487 226.838C156.2 226.428 156.016 225.951 155.934 225.409H157.219C157.324 225.86 157.535 226.236 157.854 226.537C158.174 226.838 158.602 226.988 159.14 226.988C159.659 226.988 160.106 226.836 160.479 226.53C160.853 226.225 161.14 225.783 161.341 225.204C161.546 224.625 161.648 223.926 161.648 223.105H161.566C161.384 223.383 161.165 223.625 160.91 223.83C160.655 224.031 160.37 224.188 160.056 224.302C159.746 224.411 159.413 224.466 159.058 224.466C158.474 224.466 157.939 224.322 157.451 224.035C156.964 223.743 156.574 223.345 156.282 222.839C155.995 222.328 155.852 221.747 155.852 221.096C155.852 220.462 155.995 219.886 156.282 219.366C156.569 218.842 156.97 218.427 157.485 218.122C158.005 217.812 158.613 217.664 159.311 217.678C159.73 217.682 160.149 217.764 160.568 217.924C160.988 218.079 161.37 218.336 161.717 218.696C162.063 219.056 162.341 219.546 162.551 220.166C162.76 220.786 162.865 221.565 162.865 222.504C162.865 223.406 162.779 224.206 162.605 224.903C162.437 225.601 162.191 226.191 161.867 226.674C161.544 227.152 161.152 227.517 160.691 227.768C160.231 228.014 159.714 228.137 159.14 228.137ZM159.249 223.331C159.559 223.331 159.848 223.27 160.117 223.146C160.386 223.023 160.621 222.857 160.821 222.647C161.022 222.433 161.179 222.192 161.293 221.923C161.407 221.649 161.464 221.362 161.464 221.062C161.464 220.67 161.368 220.305 161.177 219.968C160.99 219.626 160.732 219.35 160.404 219.141C160.081 218.926 159.709 218.819 159.29 218.819C158.88 218.819 158.511 218.922 158.183 219.127C157.859 219.327 157.602 219.601 157.41 219.947C157.219 220.289 157.123 220.67 157.123 221.089C157.123 221.504 157.214 221.882 157.396 222.224C157.583 222.561 157.836 222.83 158.155 223.03C158.474 223.231 158.839 223.331 159.249 223.331ZM167.644 228.164C167.01 228.164 166.45 228.002 165.962 227.679C165.474 227.355 165.094 226.897 164.82 226.305C164.547 225.712 164.41 225.01 164.41 224.199C164.41 223.393 164.547 222.695 164.82 222.107C165.098 221.515 165.481 221.059 165.969 220.74C166.456 220.421 167.017 220.262 167.65 220.262C168.147 220.262 168.541 220.344 168.833 220.508C169.125 220.672 169.348 220.859 169.503 221.068C169.662 221.273 169.783 221.444 169.865 221.581H169.961V217.814H171.191V228H170.002V226.817H169.865C169.783 226.959 169.66 227.136 169.496 227.351C169.337 227.56 169.109 227.749 168.812 227.918C168.521 228.082 168.131 228.164 167.644 228.164ZM167.828 227.063C168.293 227.063 168.685 226.943 169.004 226.701C169.323 226.455 169.564 226.116 169.729 225.683C169.893 225.25 169.975 224.751 169.975 224.186C169.975 223.62 169.893 223.128 169.729 222.709C169.569 222.285 169.33 221.955 169.011 221.718C168.692 221.481 168.298 221.362 167.828 221.362C167.345 221.362 166.942 221.488 166.618 221.738C166.299 221.989 166.06 222.328 165.9 222.757C165.741 223.181 165.661 223.657 165.661 224.186C165.661 224.719 165.741 225.204 165.9 225.642C166.064 226.075 166.308 226.421 166.632 226.681C166.955 226.936 167.354 227.063 167.828 227.063ZM180.146 228.164C179.518 228.164 178.959 228.002 178.472 227.679C177.989 227.355 177.608 226.897 177.33 226.305C177.057 225.712 176.92 225.01 176.92 224.199C176.92 223.393 177.059 222.695 177.337 222.107C177.615 221.515 177.998 221.059 178.485 220.74C178.978 220.421 179.54 220.262 180.174 220.262C180.666 220.262 181.058 220.344 181.35 220.508C181.641 220.667 181.865 220.852 182.02 221.062C182.174 221.271 182.293 221.444 182.375 221.581H182.478V220.357H183.701V228H182.484V226.817H182.375C182.293 226.959 182.17 227.136 182.006 227.351C181.846 227.565 181.618 227.754 181.322 227.918C181.026 228.082 180.634 228.164 180.146 228.164ZM180.352 227.063C180.816 227.063 181.208 226.943 181.527 226.701C181.846 226.455 182.088 226.116 182.252 225.683C182.416 225.25 182.498 224.751 182.498 224.186C182.498 223.62 182.416 223.128 182.252 222.709C182.092 222.285 181.853 221.955 181.534 221.718C181.215 221.481 180.821 221.362 180.352 221.362C179.868 221.362 179.465 221.488 179.142 221.738C178.818 221.984 178.574 222.322 178.41 222.75C178.251 223.174 178.171 223.652 178.171 224.186C178.171 224.719 178.253 225.204 178.417 225.642C178.581 226.075 178.825 226.421 179.148 226.681C179.472 226.936 179.873 227.063 180.352 227.063ZM188.958 231.021C188.393 231.021 187.903 230.949 187.488 230.803C187.078 230.661 186.736 230.472 186.463 230.235C186.189 229.998 185.973 229.741 185.813 229.463L186.812 228.82C186.921 228.966 187.055 229.128 187.215 229.306C187.379 229.483 187.598 229.634 187.871 229.757C188.149 229.884 188.511 229.948 188.958 229.948C189.569 229.948 190.07 229.802 190.462 229.511C190.858 229.219 191.057 228.759 191.057 228.13V226.599H190.94C190.854 226.744 190.731 226.918 190.571 227.118C190.416 227.319 190.191 227.496 189.895 227.651C189.603 227.802 189.211 227.877 188.719 227.877C188.108 227.877 187.559 227.733 187.071 227.446C186.584 227.155 186.199 226.731 185.916 226.175C185.633 225.619 185.492 224.942 185.492 224.145C185.492 223.356 185.631 222.673 185.909 222.094C186.187 221.51 186.57 221.059 187.058 220.74C187.55 220.421 188.113 220.262 188.746 220.262C189.238 220.262 189.63 220.344 189.922 220.508C190.218 220.667 190.446 220.852 190.605 221.062C190.765 221.271 190.888 221.444 190.975 221.581H191.091V220.357H192.287V228.198C192.287 228.854 192.139 229.39 191.843 229.805C191.547 230.224 191.146 230.532 190.64 230.728C190.138 230.924 189.578 231.021 188.958 231.021ZM188.924 226.783C189.389 226.783 189.781 226.678 190.1 226.469C190.419 226.255 190.66 225.949 190.824 225.553C190.988 225.152 191.07 224.673 191.07 224.117C191.07 223.575 190.988 223.099 190.824 222.688C190.665 222.274 190.425 221.95 190.106 221.718C189.787 221.481 189.393 221.362 188.924 221.362C188.441 221.362 188.037 221.488 187.714 221.738C187.39 221.984 187.146 222.315 186.982 222.729C186.823 223.144 186.743 223.607 186.743 224.117C186.743 224.641 186.825 225.104 186.989 225.505C187.153 225.906 187.397 226.22 187.721 226.448C188.044 226.672 188.445 226.783 188.924 226.783ZM197.558 228.164C196.865 228.164 196.257 228 195.732 227.672C195.213 227.344 194.807 226.883 194.516 226.291C194.224 225.699 194.078 225.01 194.078 224.227C194.078 223.429 194.224 222.734 194.516 222.142C194.807 221.545 195.213 221.082 195.732 220.754C196.257 220.426 196.865 220.262 197.558 220.262C198.255 220.262 198.866 220.426 199.39 220.754C199.914 221.082 200.322 221.545 200.613 222.142C200.905 222.734 201.051 223.429 201.051 224.227C201.051 225.01 200.905 225.699 200.613 226.291C200.322 226.883 199.914 227.344 199.39 227.672C198.866 228 198.255 228.164 197.558 228.164ZM197.558 227.063C198.073 227.063 198.496 226.931 198.829 226.667C199.162 226.403 199.408 226.056 199.567 225.628C199.727 225.195 199.807 224.728 199.807 224.227C199.807 223.721 199.727 223.251 199.567 222.818C199.408 222.381 199.162 222.03 198.829 221.766C198.496 221.497 198.073 221.362 197.558 221.362C197.047 221.362 196.628 221.497 196.3 221.766C195.972 222.03 195.728 222.379 195.568 222.812C195.409 223.244 195.329 223.716 195.329 224.227C195.329 224.728 195.409 225.195 195.568 225.628C195.728 226.056 195.972 226.403 196.3 226.667C196.628 226.931 197.047 227.063 197.558 227.063Z" fill="#111827"/>
<rect x="330.5" y="215" width="16" height="16" rx="8" fill="white"/>
<rect x="330.5" y="215" width="16" height="16" rx="8" stroke="#E4E4E7"/>
<rect x="37.4019" y="274.07" width="4.34127" height="4.34127" transform="rotate(-45 37.4019 274.07)" stroke="#111827" stroke-linejoin="round"/>
<rect x="37.4019" y="283.93" width="4.34127" height="4.34127" transform="rotate(-45 37.4019 283.93)" stroke="#111827" stroke-linejoin="round"/>
<rect x="42.3604" y="279.024" width="4.34127" height="4.34127" transform="rotate(-45 42.3604 279.024)" stroke="#111827" stroke-linejoin="round"/>
<rect x="32.5" y="279.024" width="4.34127" height="4.34127" transform="rotate(-45 32.5 279.024)" stroke="#111827" stroke-linejoin="round"/>
<path d="M61.625 276.32V277.906H56.6562V276.32H61.625ZM57.9141 274.219H59.9375V282.555C59.9375 282.867 60.0052 283.096 60.1406 283.242C60.276 283.383 60.5 283.453 60.8125 283.453C60.9062 283.453 61.0286 283.443 61.1797 283.422C61.3359 283.401 61.4609 283.383 61.5547 283.367L61.8438 284.938C61.6302 285 61.4062 285.042 61.1719 285.062C60.9427 285.089 60.7188 285.102 60.5 285.102C59.6667 285.102 59.026 284.898 58.5781 284.492C58.1354 284.086 57.9141 283.5 57.9141 282.734V274.219ZM66.1797 285.117C65.5859 285.117 65.0625 284.99 64.6094 284.734C64.1615 284.479 63.8125 284.107 63.5625 283.617C63.3177 283.122 63.1953 282.526 63.1953 281.828V276.32H65.2188V281.516C65.2188 282.104 65.3698 282.565 65.6719 282.898C65.9792 283.227 66.3984 283.391 66.9297 283.391C67.2891 283.391 67.6068 283.312 67.8828 283.156C68.1641 283 68.3828 282.773 68.5391 282.477C68.7005 282.174 68.7812 281.81 68.7812 281.383V276.32H70.8125V285H68.8828L68.8594 282.844H69.0391C68.7943 283.604 68.4323 284.174 67.9531 284.555C67.474 284.93 66.8828 285.117 66.1797 285.117ZM72.9297 285V276.32H74.8906V277.773H74.9766C75.1328 277.268 75.401 276.88 75.7812 276.609C76.1667 276.339 76.612 276.203 77.1172 276.203C77.2318 276.203 77.3568 276.208 77.4922 276.219C77.6328 276.229 77.75 276.242 77.8438 276.258V278.117C77.7656 278.091 77.6328 278.068 77.4453 278.047C77.2578 278.026 77.0729 278.016 76.8906 278.016C76.5208 278.016 76.1875 278.096 75.8906 278.258C75.599 278.414 75.3698 278.635 75.2031 278.922C75.0365 279.203 74.9531 279.534 74.9531 279.914V285H72.9297ZM84.0234 285.164C83.5391 285.164 83.1328 285.083 82.8047 284.922C82.4766 284.755 82.2083 284.555 82 284.32C81.7969 284.081 81.6406 283.852 81.5312 283.633H81.4141V285H79.4297V273.359H81.4531V277.734H81.5312C81.6458 277.516 81.8021 277.289 82 277.055C82.1979 276.815 82.4609 276.615 82.7891 276.453C83.1172 276.286 83.5312 276.203 84.0312 276.203C84.7083 276.203 85.3177 276.378 85.8594 276.727C86.401 277.07 86.8307 277.576 87.1484 278.242C87.4661 278.909 87.625 279.719 87.625 280.672C87.625 281.62 87.4688 282.427 87.1562 283.094C86.849 283.76 86.4245 284.273 85.8828 284.633C85.3411 284.987 84.7214 285.164 84.0234 285.164ZM83.4844 283.492C83.9323 283.492 84.3099 283.372 84.6172 283.133C84.9245 282.888 85.1562 282.552 85.3125 282.125C85.474 281.698 85.5547 281.211 85.5547 280.664C85.5547 280.122 85.4766 279.641 85.3203 279.219C85.1641 278.797 84.9323 278.466 84.625 278.227C84.3177 277.987 83.9375 277.867 83.4844 277.867C83.0417 277.867 82.6641 277.984 82.3516 278.219C82.0443 278.448 81.8099 278.773 81.6484 279.195C81.487 279.612 81.4062 280.102 81.4062 280.664C81.4062 281.227 81.487 281.721 81.6484 282.148C81.8099 282.57 82.0469 282.901 82.3594 283.141C82.6719 283.375 83.0469 283.492 83.4844 283.492ZM93.1328 285.18C92.2891 285.18 91.5547 284.992 90.9297 284.617C90.3047 284.242 89.8203 283.719 89.4766 283.047C89.138 282.375 88.9688 281.594 88.9688 280.703C88.9688 279.802 89.138 279.016 89.4766 278.344C89.8203 277.667 90.3047 277.141 90.9297 276.766C91.5547 276.391 92.2891 276.203 93.1328 276.203C93.9766 276.203 94.7109 276.391 95.3359 276.766C95.9609 277.141 96.4427 277.667 96.7812 278.344C97.125 279.016 97.2969 279.802 97.2969 280.703C97.2969 281.594 97.125 282.375 96.7812 283.047C96.4427 283.719 95.9609 284.242 95.3359 284.617C94.7109 284.992 93.9766 285.18 93.1328 285.18ZM93.1328 283.531C93.6016 283.531 93.9922 283.406 94.3047 283.156C94.6172 282.901 94.8516 282.56 95.0078 282.133C95.1641 281.706 95.2422 281.227 95.2422 280.695C95.2422 280.159 95.1641 279.677 95.0078 279.25C94.8516 278.818 94.6172 278.477 94.3047 278.227C93.9922 277.977 93.6016 277.852 93.1328 277.852C92.6641 277.852 92.2734 277.977 91.9609 278.227C91.6536 278.477 91.4219 278.815 91.2656 279.242C91.1094 279.669 91.0312 280.154 91.0312 280.695C91.0312 281.227 91.1094 281.706 91.2656 282.133C91.4219 282.56 91.6536 282.901 91.9609 283.156C92.2734 283.406 92.6641 283.531 93.1328 283.531Z" fill="#111827"/>
<path fill-rule="evenodd" clip-rule="evenodd" d="M113.5 271.938C111.316 271.938 109.546 273.708 109.546 275.892V277.464C109.546 277.464 109.546 277.464 109.546 277.464H107.283C107.007 277.464 106.783 277.688 106.783 277.964V285.562C106.783 285.838 107.007 286.062 107.283 286.062H119.717C119.993 286.062 120.217 285.838 120.217 285.562V277.964C120.217 277.688 119.993 277.464 119.717 277.464H117.454C117.454 277.464 117.454 277.464 117.454 277.464V275.892C117.454 273.708 115.684 271.938 113.5 271.938ZM110.546 275.892C110.546 274.26 111.869 272.938 113.5 272.938C115.131 272.938 116.454 274.26 116.454 275.892V277.464H110.546V275.892ZM107.783 285.062V278.464H119.217V285.062H107.783Z" fill="#111827"/>
<path d="M132.916 284.137C132.492 284.137 132.068 284.059 131.645 283.904C131.221 283.749 130.833 283.49 130.482 283.125C130.136 282.76 129.858 282.266 129.648 281.642C129.439 281.017 129.334 280.236 129.334 279.297C129.334 278.399 129.418 277.604 129.587 276.911C129.76 276.214 130.008 275.626 130.332 275.147C130.66 274.664 131.054 274.3 131.515 274.054C131.975 273.803 132.494 273.678 133.073 273.678C133.643 273.678 134.153 273.792 134.604 274.02C135.056 274.247 135.425 274.564 135.712 274.97C135.999 275.375 136.184 275.845 136.266 276.378H134.994C134.88 275.936 134.664 275.567 134.345 275.271C134.026 274.974 133.602 274.826 133.073 274.826C132.554 274.826 132.105 274.979 131.727 275.284C131.353 275.59 131.066 276.032 130.865 276.61C130.665 277.185 130.564 277.88 130.564 278.695H130.646C130.829 278.413 131.048 278.171 131.303 277.971C131.558 277.766 131.843 277.611 132.157 277.506C132.472 277.396 132.804 277.342 133.155 277.342C133.739 277.342 134.272 277.485 134.755 277.772C135.238 278.06 135.623 278.458 135.91 278.969C136.202 279.475 136.348 280.056 136.348 280.712C136.348 281.345 136.206 281.922 135.924 282.441C135.641 282.956 135.243 283.369 134.728 283.679C134.213 283.984 133.609 284.137 132.916 284.137ZM132.916 282.995C133.326 282.995 133.695 282.893 134.023 282.688C134.352 282.482 134.611 282.209 134.803 281.867C134.994 281.521 135.09 281.136 135.09 280.712C135.09 280.297 134.996 279.921 134.81 279.584C134.627 279.242 134.374 278.971 134.051 278.771C133.727 278.57 133.36 278.47 132.95 278.47C132.64 278.47 132.351 278.531 132.082 278.654C131.818 278.773 131.585 278.939 131.385 279.153C131.184 279.363 131.027 279.604 130.913 279.878C130.804 280.147 130.749 280.429 130.749 280.726C130.749 281.127 130.842 281.5 131.029 281.847C131.216 282.188 131.474 282.466 131.802 282.681C132.13 282.89 132.501 282.995 132.916 282.995ZM141.646 273.814V284H140.367V275.018H140.299L137.838 276.843V275.448L140.053 273.814H141.646ZM146.827 284.164C146.194 284.164 145.633 284.002 145.146 283.679C144.658 283.355 144.277 282.897 144.004 282.305C143.73 281.712 143.594 281.01 143.594 280.199C143.594 279.393 143.73 278.695 144.004 278.107C144.282 277.515 144.665 277.059 145.152 276.74C145.64 276.421 146.201 276.262 146.834 276.262C147.331 276.262 147.725 276.344 148.017 276.508C148.308 276.672 148.532 276.859 148.687 277.068C148.846 277.273 148.967 277.444 149.049 277.581H149.145V273.814H150.375V284H149.186V282.817H149.049C148.967 282.959 148.844 283.136 148.68 283.351C148.52 283.56 148.292 283.749 147.996 283.918C147.704 284.082 147.315 284.164 146.827 284.164ZM147.012 283.063C147.477 283.063 147.868 282.943 148.188 282.701C148.507 282.455 148.748 282.116 148.912 281.683C149.076 281.25 149.158 280.751 149.158 280.186C149.158 279.62 149.076 279.128 148.912 278.709C148.753 278.285 148.513 277.955 148.194 277.718C147.875 277.481 147.481 277.362 147.012 277.362C146.529 277.362 146.125 277.488 145.802 277.738C145.483 277.989 145.243 278.328 145.084 278.757C144.924 279.181 144.845 279.657 144.845 280.186C144.845 280.719 144.924 281.204 145.084 281.642C145.248 282.075 145.492 282.421 145.815 282.681C146.139 282.936 146.538 283.063 147.012 283.063ZM159.33 284.164C158.701 284.164 158.143 284.002 157.655 283.679C157.172 283.355 156.792 282.897 156.514 282.305C156.24 281.712 156.104 281.01 156.104 280.199C156.104 279.393 156.243 278.695 156.521 278.107C156.799 277.515 157.181 277.059 157.669 276.74C158.161 276.421 158.724 276.262 159.357 276.262C159.85 276.262 160.242 276.344 160.533 276.508C160.825 276.667 161.048 276.852 161.203 277.062C161.358 277.271 161.477 277.444 161.559 277.581H161.661V276.357H162.885V284H161.668V282.817H161.559C161.477 282.959 161.354 283.136 161.189 283.351C161.03 283.565 160.802 283.754 160.506 283.918C160.21 284.082 159.818 284.164 159.33 284.164ZM159.535 283.063C160 283.063 160.392 282.943 160.711 282.701C161.03 282.455 161.271 282.116 161.436 281.683C161.6 281.25 161.682 280.751 161.682 280.186C161.682 279.62 161.6 279.128 161.436 278.709C161.276 278.285 161.037 277.955 160.718 277.718C160.399 277.481 160.005 277.362 159.535 277.362C159.052 277.362 158.649 277.488 158.325 277.738C158.002 277.984 157.758 278.322 157.594 278.75C157.434 279.174 157.354 279.652 157.354 280.186C157.354 280.719 157.437 281.204 157.601 281.642C157.765 282.075 158.008 282.421 158.332 282.681C158.656 282.936 159.057 283.063 159.535 283.063ZM168.142 287.021C167.576 287.021 167.087 286.949 166.672 286.803C166.262 286.661 165.92 286.472 165.646 286.235C165.373 285.998 165.157 285.741 164.997 285.463L165.995 284.82C166.104 284.966 166.239 285.128 166.398 285.306C166.562 285.483 166.781 285.634 167.055 285.757C167.333 285.884 167.695 285.948 168.142 285.948C168.752 285.948 169.254 285.802 169.646 285.511C170.042 285.219 170.24 284.759 170.24 284.13V282.599H170.124C170.037 282.744 169.914 282.918 169.755 283.118C169.6 283.319 169.374 283.496 169.078 283.651C168.786 283.802 168.395 283.877 167.902 283.877C167.292 283.877 166.743 283.733 166.255 283.446C165.767 283.155 165.382 282.731 165.1 282.175C164.817 281.619 164.676 280.942 164.676 280.145C164.676 279.356 164.815 278.673 165.093 278.094C165.371 277.51 165.754 277.059 166.241 276.74C166.733 276.421 167.296 276.262 167.93 276.262C168.422 276.262 168.814 276.344 169.105 276.508C169.402 276.667 169.63 276.852 169.789 277.062C169.949 277.271 170.072 277.444 170.158 277.581H170.274V276.357H171.471V284.198C171.471 284.854 171.323 285.39 171.026 285.805C170.73 286.224 170.329 286.532 169.823 286.728C169.322 286.924 168.761 287.021 168.142 287.021ZM168.107 282.783C168.572 282.783 168.964 282.678 169.283 282.469C169.602 282.255 169.844 281.949 170.008 281.553C170.172 281.152 170.254 280.673 170.254 280.117C170.254 279.575 170.172 279.099 170.008 278.688C169.848 278.274 169.609 277.95 169.29 277.718C168.971 277.481 168.577 277.362 168.107 277.362C167.624 277.362 167.221 277.488 166.897 277.738C166.574 277.984 166.33 278.315 166.166 278.729C166.007 279.144 165.927 279.607 165.927 280.117C165.927 280.641 166.009 281.104 166.173 281.505C166.337 281.906 166.581 282.22 166.904 282.448C167.228 282.672 167.629 282.783 168.107 282.783ZM176.741 284.164C176.049 284.164 175.44 284 174.916 283.672C174.396 283.344 173.991 282.883 173.699 282.291C173.408 281.699 173.262 281.01 173.262 280.227C173.262 279.429 173.408 278.734 173.699 278.142C173.991 277.545 174.396 277.082 174.916 276.754C175.44 276.426 176.049 276.262 176.741 276.262C177.438 276.262 178.049 276.426 178.573 276.754C179.097 277.082 179.505 277.545 179.797 278.142C180.089 278.734 180.234 279.429 180.234 280.227C180.234 281.01 180.089 281.699 179.797 282.291C179.505 282.883 179.097 283.344 178.573 283.672C178.049 284 177.438 284.164 176.741 284.164ZM176.741 283.063C177.256 283.063 177.68 282.931 178.013 282.667C178.345 282.403 178.591 282.056 178.751 281.628C178.91 281.195 178.99 280.728 178.99 280.227C178.99 279.721 178.91 279.251 178.751 278.818C178.591 278.381 178.345 278.03 178.013 277.766C177.68 277.497 177.256 277.362 176.741 277.362C176.231 277.362 175.812 277.497 175.483 277.766C175.155 278.03 174.911 278.379 174.752 278.812C174.592 279.244 174.513 279.716 174.513 280.227C174.513 280.728 174.592 281.195 174.752 281.628C174.911 282.056 175.155 282.403 175.483 282.667C175.812 282.931 176.231 283.063 176.741 283.063Z" fill="#111827"/>
<rect x="330.5" y="271" width="16" height="16" rx="8" fill="white"/>
<rect x="330.5" y="271" width="16" height="16" rx="8" stroke="#E4E4E7"/>
</g>
<rect x="16.5" y="15" width="346" height="294.837" rx="4" stroke="#E4E4E7"/>
</g>
<defs>
<filter id="filter0_dd_3945_105859" x="0" y="0.5" width="379" height="327.837" filterUnits="userSpaceOnUse" color-interpolation-filters="sRGB">
<feFlood flood-opacity="0" result="BackgroundImageFix"/>
<feColorMatrix in="SourceAlpha" type="matrix" values="0 0 0 0 0 0 0 0 0 0 0 0 0 0 0 0 0 0 127 0" result="hardAlpha"/>
<feOffset dy="2"/>
<feGaussianBlur stdDeviation="8"/>
<feColorMatrix type="matrix" values="0 0 0 0 0.129412 0 0 0 0 0.168627 0 0 0 0 0.211765 0 0 0 0.08 0"/>
<feBlend mode="normal" in2="BackgroundImageFix" result="effect1_dropShadow_3945_105859"/>
<feColorMatrix in="SourceAlpha" type="matrix" values="0 0 0 0 0 0 0 0 0 0 0 0 0 0 0 0 0 0 127 0" result="hardAlpha"/>
<feMorphology radius="1" operator="dilate" in="SourceAlpha" result="effect2_dropShadow_3945_105859"/>
<feOffset/>
<feColorMatrix type="matrix" values="0 0 0 0 0.0235294 0 0 0 0 0.172549 0 0 0 0 0.321569 0 0 0 0.1 0"/>
<feBlend mode="normal" in2="effect1_dropShadow_3945_105859" result="effect2_dropShadow_3945_105859"/>
<feBlend mode="normal" in="SourceGraphic" in2="effect2_dropShadow_3945_105859" result="shape"/>
</filter>
<clipPath id="clip0_3945_105859">
<rect x="16.5" y="15" width="346" height="294.837" rx="4" fill="white"/>
</clipPath>
<clipPath id="clip1_3945_105859">
<rect x="199.5" y="31" width="147" height="36" rx="4" fill="white"/>
</clipPath>
</defs>
</svg>
