<svg width="466" height="303" viewBox="0 0 466 303" fill="none" xmlns="http://www.w3.org/2000/svg">
<g filter="url(#filter0_dd_3945_102621)">
<g clip-path="url(#clip0_3945_102621)">
<rect x="17.0596" y="15" width="431.88" height="296.816" rx="4" fill="white"/>
<rect x="33.0596" y="31" width="189.94" height="36" rx="4" fill="white"/>
<rect x="33.0596" y="31" width="189.94" height="36" rx="4" stroke="#E4E4E7"/>
<path fill-rule="evenodd" clip-rule="evenodd" d="M55.0049 56.881C58.4831 56.012 61.0596 52.8665 61.0596 49.1191C61.0596 44.7009 57.4778 41.1191 53.0596 41.1191C48.6413 41.1191 45.0596 44.7009 45.0596 49.1191C45.0596 52.8662 47.6356 56.0115 51.1133 56.8807C51.0863 56.75 51.072 56.6145 51.072 56.4758V54.7514C50.4719 54.9286 49.1382 55.0245 48.5103 54.0114C48.3859 53.6818 48.0276 52.9549 47.5896 52.6836C47.042 52.3443 47.2234 52.239 47.3047 52.1923C47.5176 52.1364 48.0518 52.1379 48.486 52.5915C48.5684 52.6819 48.7516 52.8948 48.8253 53.0228L48.8311 53.033C48.9398 53.2233 49.5245 54.2469 51.0835 53.6528L51.1405 53.6355C51.2378 53.2748 51.4341 52.9547 51.6985 52.7062C51.3075 52.6495 50.9391 52.5692 50.6013 52.469C49.0844 52.09 47.9733 50.7335 47.9735 48.8679C47.9736 47.8598 48.2894 47.0741 48.8054 46.4614C48.4863 45.7259 48.7329 44.7905 48.8984 44.4106C49.6258 44.3157 50.6458 44.9308 51.0191 45.1865C51.6264 45.0417 52.3265 44.9663 53.104 44.9663C53.8337 44.9663 54.5241 45.0427 55.1317 45.1817C55.5392 44.9128 56.5071 44.3163 57.2358 44.4183C57.4015 44.7752 57.6506 45.6636 57.3596 46.4248C57.8923 47.0771 58.2153 47.932 58.2153 48.8679C58.2153 50.3576 57.3912 51.6704 56.2126 52.2283C55.7103 52.4469 55.1005 52.6136 54.4236 52.7098C54.807 53.072 55.0462 53.5853 55.0462 54.1544V56.4758C55.0462 56.6146 55.032 56.7502 55.0049 56.881Z" fill="#111827"/>
<path d="M71.1787 51.0879V49.7002C71.4111 49.3812 71.6413 49.0758 71.8691 48.7842C72.1016 48.4925 72.3385 48.2077 72.5801 47.9297C72.8216 47.6517 73.07 47.376 73.3252 47.1025L76.3672 43.8145H78.0693L73.7217 48.4766L73.6533 48.4697L71.1787 51.0879ZM70.29 54V43.8145H71.5889V47.3008L71.5684 49.4951L71.5889 50.1309V54H70.29ZM76.5381 54L72.8535 48.8184L73.6602 47.8066L78.0762 54H76.5381ZM80.7764 43.8145V54H79.5459V43.8145H80.7764ZM86.0469 54.1641C85.3542 54.1641 84.7458 54 84.2217 53.6719C83.7021 53.3438 83.2965 52.8835 83.0049 52.291C82.7132 51.6986 82.5674 51.0104 82.5674 50.2266C82.5674 49.429 82.7132 48.734 83.0049 48.1416C83.2965 47.5446 83.7021 47.082 84.2217 46.7539C84.7458 46.4258 85.3542 46.2617 86.0469 46.2617C86.7441 46.2617 87.3548 46.4258 87.8789 46.7539C88.403 47.082 88.8109 47.5446 89.1025 48.1416C89.3942 48.734 89.54 49.429 89.54 50.2266C89.54 51.0104 89.3942 51.6986 89.1025 52.291C88.8109 52.8835 88.403 53.3438 87.8789 53.6719C87.3548 54 86.7441 54.1641 86.0469 54.1641ZM86.0469 53.0635C86.5618 53.0635 86.9857 52.9313 87.3184 52.667C87.651 52.4027 87.8971 52.0563 88.0566 51.6279C88.2161 51.195 88.2959 50.7279 88.2959 50.2266C88.2959 49.7207 88.2161 49.2513 88.0566 48.8184C87.8971 48.3809 87.651 48.0299 87.3184 47.7656C86.9857 47.4967 86.5618 47.3623 86.0469 47.3623C85.5365 47.3623 85.1172 47.4967 84.7891 47.7656C84.4609 48.0299 84.2171 48.3786 84.0576 48.8115C83.8981 49.2445 83.8184 49.7161 83.8184 50.2266C83.8184 50.7279 83.8981 51.195 84.0576 51.6279C84.2171 52.0563 84.4609 52.4027 84.7891 52.667C85.1172 52.9313 85.5365 53.0635 86.0469 53.0635ZM93.9219 54.0957C93.4069 54.0957 92.9535 53.9909 92.5615 53.7812C92.1742 53.5671 91.8711 53.2458 91.6523 52.8174C91.4382 52.389 91.3311 51.8535 91.3311 51.2109V46.3574H92.5615V51.1084C92.5615 51.6963 92.7165 52.1566 93.0264 52.4893C93.3363 52.8219 93.7578 52.9883 94.291 52.9883C94.6556 52.9883 94.9814 52.9085 95.2686 52.749C95.5602 52.5895 95.7904 52.3571 95.959 52.0518C96.1276 51.7419 96.2119 51.3704 96.2119 50.9375V46.3574H97.4492V54H96.2598V52.1475H96.4238C96.1868 52.863 95.8496 53.3665 95.4121 53.6582C94.9792 53.9499 94.4824 54.0957 93.9219 54.0957ZM102.48 54.1641C101.847 54.1641 101.286 54.0023 100.799 53.6787C100.311 53.3551 99.9307 52.8971 99.6572 52.3047C99.3838 51.7122 99.2471 51.0104 99.2471 50.1992C99.2471 49.3926 99.3838 48.6953 99.6572 48.1074C99.9352 47.515 100.318 47.0592 100.806 46.7402C101.293 46.4212 101.854 46.2617 102.487 46.2617C102.984 46.2617 103.378 46.3438 103.67 46.5078C103.962 46.6719 104.185 46.8587 104.34 47.0684C104.499 47.2734 104.62 47.4443 104.702 47.5811H104.798V43.8145H106.028V54H104.839V52.8174H104.702C104.62 52.9587 104.497 53.1364 104.333 53.3506C104.174 53.5602 103.946 53.7493 103.649 53.918C103.358 54.082 102.968 54.1641 102.48 54.1641ZM102.665 53.0635C103.13 53.0635 103.522 52.9427 103.841 52.7012C104.16 52.4551 104.401 52.1156 104.565 51.6826C104.729 51.2497 104.812 50.7507 104.812 50.1855C104.812 49.6204 104.729 49.1283 104.565 48.709C104.406 48.2852 104.167 47.9548 103.848 47.7178C103.529 47.4808 103.134 47.3623 102.665 47.3623C102.182 47.3623 101.779 47.4876 101.455 47.7383C101.136 47.9889 100.897 48.3285 100.737 48.7568C100.578 49.1807 100.498 49.6569 100.498 50.1855C100.498 50.7188 100.578 51.2041 100.737 51.6416C100.901 52.0745 101.145 52.4209 101.469 52.6807C101.792 52.9359 102.191 53.0635 102.665 53.0635ZM109.419 43.8145V54H108.188V43.8145H109.419ZM111.579 54V46.3574H112.81V54H111.579ZM112.201 45.1064C111.969 45.1064 111.768 45.0267 111.6 44.8672C111.431 44.7077 111.347 44.5163 111.347 44.293C111.347 44.0651 111.431 43.8737 111.6 43.7188C111.768 43.5592 111.969 43.4795 112.201 43.4795C112.438 43.4795 112.641 43.5592 112.81 43.7188C112.978 43.8737 113.062 44.0651 113.062 44.293C113.062 44.5163 112.978 44.7077 112.81 44.8672C112.641 45.0267 112.438 45.1064 112.201 45.1064ZM117.978 46.3574V47.4102H114.026V46.3574H117.978ZM115.175 44.5391H116.405V52.0176C116.405 52.3594 116.474 52.61 116.61 52.7695C116.752 52.9245 116.984 53.002 117.308 53.002C117.385 53.002 117.483 52.9928 117.602 52.9746C117.725 52.9564 117.836 52.9382 117.937 52.9199L118.189 53.959C118.062 54.0046 117.916 54.0387 117.752 54.0615C117.592 54.0843 117.433 54.0957 117.273 54.0957C116.613 54.0957 116.098 53.9225 115.729 53.5762C115.359 53.2253 115.175 52.7376 115.175 52.1133V44.5391ZM122.626 54.1641C121.888 54.1641 121.25 54 120.712 53.6719C120.179 53.3438 119.766 52.8857 119.475 52.2979C119.188 51.71 119.044 51.0241 119.044 50.2402C119.044 49.4564 119.185 48.766 119.468 48.1689C119.75 47.5719 120.149 47.1048 120.664 46.7676C121.184 46.4303 121.79 46.2617 122.482 46.2617C122.888 46.2617 123.287 46.3301 123.679 46.4668C124.075 46.599 124.433 46.8154 124.752 47.1162C125.076 47.4124 125.333 47.8044 125.524 48.292C125.716 48.7796 125.812 49.3766 125.812 50.083V50.5957H119.878V49.5566H125.148L124.574 49.9395C124.574 49.4382 124.494 48.9938 124.335 48.6064C124.18 48.2145 123.948 47.9092 123.638 47.6904C123.328 47.4671 122.943 47.3555 122.482 47.3555C122.022 47.3555 121.628 47.4694 121.3 47.6973C120.972 47.9206 120.721 48.2145 120.548 48.5791C120.375 48.9391 120.288 49.3265 120.288 49.7412V50.4316C120.288 50.9967 120.386 51.4775 120.582 51.874C120.778 52.266 121.051 52.5645 121.402 52.7695C121.758 52.9701 122.168 53.0703 122.633 53.0703C122.934 53.0703 123.207 53.027 123.453 52.9404C123.699 52.8538 123.911 52.724 124.089 52.5508C124.267 52.373 124.403 52.1543 124.499 51.8945L125.688 52.2227C125.57 52.6055 125.369 52.9427 125.087 53.2344C124.804 53.526 124.453 53.7539 124.034 53.918C123.619 54.082 123.15 54.1641 122.626 54.1641Z" fill="#111827"/>
<path d="M202.646 51.6464L197.853 46.8536C197.538 46.5386 197.761 46 198.207 46H207.792C208.238 46 208.461 46.5386 208.146 46.8536L203.353 51.6464C203.158 51.8417 202.841 51.8417 202.646 51.6464Z" fill="#111827"/>
<g clip-path="url(#clip1_3945_102621)">
<rect x="243" y="31" width="189.94" height="36" rx="4" fill="white"/>
<path d="M260.145 54.7913C263.816 54.7913 266.791 51.816 266.791 48.1457C266.791 44.4754 263.816 41.5 260.145 41.5C256.475 41.5 253.5 44.4754 253.5 48.1457C253.5 51.816 256.475 54.7913 260.145 54.7913Z" stroke="#111827" stroke-linecap="round" stroke-linejoin="round"/>
<path d="M264.844 52.845L268.499 56.5" stroke="#111827" stroke-linecap="round" stroke-linejoin="round"/>
<path d="M287.491 54.1777C286.757 54.1777 286.119 54.0592 285.577 53.8223C285.039 53.5853 284.617 53.2549 284.312 52.8311C284.007 52.4027 283.833 51.9036 283.792 51.334H285.125C285.162 51.7168 285.292 52.0335 285.515 52.2842C285.738 52.5303 286.023 52.7148 286.37 52.8379C286.721 52.9564 287.094 53.0156 287.491 53.0156C287.951 53.0156 288.363 52.9404 288.728 52.79C289.097 52.6396 289.389 52.4277 289.603 52.1543C289.817 51.8809 289.924 51.5641 289.924 51.2041C289.924 50.876 289.831 50.6094 289.644 50.4043C289.462 50.1992 289.218 50.0306 288.913 49.8984C288.607 49.7663 288.272 49.6501 287.908 49.5498L286.677 49.2012C285.857 48.9688 285.219 48.6361 284.763 48.2031C284.307 47.7702 284.08 47.2165 284.08 46.542C284.08 45.9678 284.235 45.4665 284.544 45.0381C284.854 44.6051 285.274 44.2702 285.802 44.0332C286.331 43.7962 286.923 43.6777 287.58 43.6777C288.25 43.6777 288.842 43.7962 289.357 44.0332C289.872 44.2702 290.278 44.5938 290.574 45.0039C290.875 45.4095 291.034 45.8698 291.052 46.3848H289.781C289.722 45.888 289.485 45.5052 289.07 45.2363C288.655 44.9629 288.145 44.8262 287.539 44.8262C287.101 44.8262 286.716 44.8991 286.383 45.0449C286.055 45.1862 285.8 45.3822 285.618 45.6328C285.435 45.8789 285.344 46.1615 285.344 46.4805C285.344 46.8359 285.454 47.123 285.672 47.3418C285.896 47.556 286.158 47.7246 286.458 47.8477C286.764 47.9661 287.04 48.0596 287.286 48.1279L288.304 48.4082C288.578 48.4811 288.878 48.5814 289.207 48.709C289.539 48.8366 289.856 49.0075 290.157 49.2217C290.458 49.4313 290.704 49.7002 290.895 50.0283C291.091 50.3519 291.189 50.7507 291.189 51.2246C291.189 51.7806 291.043 52.2819 290.751 52.7285C290.464 53.1751 290.045 53.5283 289.494 53.7881C288.942 54.0479 288.275 54.1777 287.491 54.1777ZM296.275 54.1641C295.537 54.1641 294.899 54 294.361 53.6719C293.828 53.3438 293.415 52.8857 293.124 52.2979C292.836 51.71 292.693 51.0241 292.693 50.2402C292.693 49.4564 292.834 48.766 293.117 48.1689C293.399 47.5719 293.798 47.1048 294.313 46.7676C294.833 46.4303 295.439 46.2617 296.131 46.2617C296.537 46.2617 296.936 46.3301 297.328 46.4668C297.724 46.599 298.082 46.8154 298.401 47.1162C298.724 47.4124 298.982 47.8044 299.173 48.292C299.365 48.7796 299.46 49.3766 299.46 50.083V50.5957H293.527V49.5566H298.797L298.223 49.9395C298.223 49.4382 298.143 48.9938 297.984 48.6064C297.829 48.2145 297.597 47.9092 297.287 47.6904C296.977 47.4671 296.592 47.3555 296.131 47.3555C295.671 47.3555 295.277 47.4694 294.949 47.6973C294.621 47.9206 294.37 48.2145 294.197 48.5791C294.024 48.9391 293.937 49.3265 293.937 49.7412V50.4316C293.937 50.9967 294.035 51.4775 294.231 51.874C294.427 52.266 294.7 52.5645 295.051 52.7695C295.407 52.9701 295.817 53.0703 296.282 53.0703C296.583 53.0703 296.856 53.027 297.102 52.9404C297.348 52.8538 297.56 52.724 297.738 52.5508C297.916 52.373 298.052 52.1543 298.148 51.8945L299.337 52.2227C299.219 52.6055 299.018 52.9427 298.736 53.2344C298.453 53.526 298.102 53.7539 297.683 53.918C297.268 54.082 296.799 54.1641 296.275 54.1641ZM304.082 54.1641C303.453 54.1641 302.894 54.0023 302.407 53.6787C301.924 53.3551 301.543 52.8971 301.265 52.3047C300.992 51.7122 300.855 51.0104 300.855 50.1992C300.855 49.3926 300.994 48.6953 301.272 48.1074C301.55 47.515 301.933 47.0592 302.42 46.7402C302.913 46.4212 303.475 46.2617 304.109 46.2617C304.601 46.2617 304.993 46.3438 305.285 46.5078C305.576 46.6673 305.8 46.8519 305.955 47.0615C306.11 47.2712 306.228 47.4443 306.31 47.5811H306.413V46.3574H307.636V54H306.419V52.8174H306.31C306.228 52.9587 306.105 53.1364 305.941 53.3506C305.781 53.5648 305.554 53.7539 305.257 53.918C304.961 54.082 304.569 54.1641 304.082 54.1641ZM304.287 53.0635C304.751 53.0635 305.143 52.9427 305.462 52.7012C305.781 52.4551 306.023 52.1156 306.187 51.6826C306.351 51.2497 306.433 50.7507 306.433 50.1855C306.433 49.6204 306.351 49.1283 306.187 48.709C306.028 48.2852 305.788 47.9548 305.469 47.7178C305.15 47.4808 304.756 47.3623 304.287 47.3623C303.804 47.3623 303.4 47.4876 303.077 47.7383C302.753 47.9844 302.509 48.3216 302.345 48.75C302.186 49.1738 302.106 49.6523 302.106 50.1855C302.106 50.7188 302.188 51.2041 302.352 51.6416C302.516 52.0745 302.76 52.4209 303.083 52.6807C303.407 52.9359 303.808 53.0635 304.287 53.0635ZM309.796 54V46.3574H310.986V47.5332H311.068C311.209 47.1458 311.46 46.8359 311.82 46.6035C312.184 46.3665 312.595 46.248 313.05 46.248C313.141 46.248 313.249 46.2503 313.372 46.2549C313.499 46.2594 313.599 46.264 313.672 46.2686V47.5059C313.636 47.4967 313.545 47.4831 313.399 47.4648C313.253 47.4466 313.098 47.4375 312.934 47.4375C312.569 47.4375 312.241 47.515 311.95 47.6699C311.663 47.8203 311.437 48.0299 311.273 48.2988C311.109 48.5632 311.027 48.8685 311.027 49.2148V54H309.796ZM317.952 54.1641C317.259 54.1641 316.651 54 316.126 53.6719C315.607 53.3438 315.201 52.8835 314.91 52.291C314.618 51.6986 314.472 51.0104 314.472 50.2266C314.472 49.429 314.618 48.734 314.91 48.1416C315.201 47.5446 315.607 47.082 316.126 46.7539C316.651 46.4258 317.259 46.2617 317.952 46.2617C318.321 46.2617 318.669 46.3096 318.998 46.4053C319.326 46.501 319.624 46.64 319.893 46.8223C320.167 47 320.401 47.221 320.597 47.4854C320.793 47.7451 320.944 48.0413 321.048 48.374L319.866 48.709C319.811 48.513 319.727 48.333 319.613 48.1689C319.499 48.0049 319.36 47.8636 319.196 47.7451C319.036 47.6221 318.852 47.5286 318.642 47.4648C318.432 47.3965 318.202 47.3623 317.952 47.3623C317.441 47.3623 317.022 47.4967 316.694 47.7656C316.366 48.0299 316.122 48.3786 315.962 48.8115C315.803 49.2445 315.723 49.7161 315.723 50.2266C315.723 50.7279 315.803 51.195 315.962 51.6279C316.122 52.0563 316.366 52.4027 316.694 52.667C317.022 52.9313 317.441 53.0635 317.952 53.0635C318.207 53.0635 318.442 53.0293 318.656 52.9609C318.87 52.8926 319.059 52.7969 319.223 52.6738C319.392 52.5462 319.533 52.3958 319.647 52.2227C319.761 52.0495 319.845 51.8604 319.9 51.6553L321.076 51.9902C320.975 52.332 320.825 52.6374 320.625 52.9062C320.429 53.1706 320.194 53.3984 319.92 53.5898C319.647 53.7767 319.344 53.918 319.011 54.0137C318.679 54.1139 318.325 54.1641 317.952 54.1641ZM324.07 49.4199V54H322.839V43.8145H324.07V48.21H323.858C324.09 47.5036 324.421 47.0023 324.849 46.7061C325.282 46.4098 325.788 46.2617 326.367 46.2617C326.882 46.2617 327.333 46.3688 327.72 46.583C328.112 46.7926 328.415 47.1117 328.629 47.54C328.848 47.9639 328.958 48.4993 328.958 49.1465V54H327.72V49.249C327.72 48.6611 327.565 48.2008 327.255 47.8682C326.95 47.5355 326.531 47.3691 325.998 47.3691C325.633 47.3691 325.305 47.4489 325.013 47.6084C324.722 47.7679 324.491 48.0003 324.323 48.3057C324.154 48.611 324.07 48.9824 324.07 49.4199Z" fill="#9CA3AF"/>
</g>
<rect x="243" y="31" width="189.94" height="36" rx="4" stroke="#E4E4E7"/>
<rect x="37.9615" y="106.07" width="4.34127" height="4.34127" transform="rotate(-45 37.9615 106.07)" stroke="#111827" stroke-linejoin="round"/>
<rect x="37.9615" y="115.93" width="4.34127" height="4.34127" transform="rotate(-45 37.9615 115.93)" stroke="#111827" stroke-linejoin="round"/>
<rect x="42.92" y="111.024" width="4.34127" height="4.34127" transform="rotate(-45 42.92 111.024)" stroke="#111827" stroke-linejoin="round"/>
<rect x="33.0596" y="111.024" width="4.34127" height="4.34127" transform="rotate(-45 33.0596 111.024)" stroke="#111827" stroke-linejoin="round"/>
<path d="M62.708 117.164C62.2236 117.164 61.8174 117.083 61.4893 116.922C61.1611 116.755 60.8929 116.555 60.6846 116.32C60.4814 116.081 60.3252 115.852 60.2158 115.633H60.0986V117H58.1143V105.359H60.1377V109.734H60.2158C60.3304 109.516 60.4867 109.289 60.6846 109.055C60.8825 108.815 61.1455 108.615 61.4736 108.453C61.8018 108.286 62.2158 108.203 62.7158 108.203C63.3929 108.203 64.0023 108.378 64.5439 108.727C65.0856 109.07 65.5153 109.576 65.833 110.242C66.1507 110.909 66.3096 111.719 66.3096 112.672C66.3096 113.62 66.1533 114.427 65.8408 115.094C65.5335 115.76 65.109 116.273 64.5674 116.633C64.0257 116.987 63.4059 117.164 62.708 117.164ZM62.1689 115.492C62.6169 115.492 62.9945 115.372 63.3018 115.133C63.609 114.888 63.8408 114.552 63.9971 114.125C64.1585 113.698 64.2393 113.211 64.2393 112.664C64.2393 112.122 64.1611 111.641 64.0049 111.219C63.8486 110.797 63.6169 110.466 63.3096 110.227C63.0023 109.987 62.6221 109.867 62.1689 109.867C61.7262 109.867 61.3486 109.984 61.0361 110.219C60.7288 110.448 60.4945 110.773 60.333 111.195C60.1715 111.612 60.0908 112.102 60.0908 112.664C60.0908 113.227 60.1715 113.721 60.333 114.148C60.4945 114.57 60.7314 114.901 61.0439 115.141C61.3564 115.375 61.7314 115.492 62.1689 115.492ZM70.0596 105.359V117H68.0361V105.359H70.0596ZM75.958 117.18C75.1143 117.18 74.3799 116.992 73.7549 116.617C73.1299 116.242 72.6455 115.719 72.3018 115.047C71.9632 114.375 71.7939 113.594 71.7939 112.703C71.7939 111.802 71.9632 111.016 72.3018 110.344C72.6455 109.667 73.1299 109.141 73.7549 108.766C74.3799 108.391 75.1143 108.203 75.958 108.203C76.8018 108.203 77.5361 108.391 78.1611 108.766C78.7861 109.141 79.2679 109.667 79.6064 110.344C79.9502 111.016 80.1221 111.802 80.1221 112.703C80.1221 113.594 79.9502 114.375 79.6064 115.047C79.2679 115.719 78.7861 116.242 78.1611 116.617C77.5361 116.992 76.8018 117.18 75.958 117.18ZM75.958 115.531C76.4268 115.531 76.8174 115.406 77.1299 115.156C77.4424 114.901 77.6768 114.56 77.833 114.133C77.9893 113.706 78.0674 113.227 78.0674 112.695C78.0674 112.159 77.9893 111.677 77.833 111.25C77.6768 110.818 77.4424 110.477 77.1299 110.227C76.8174 109.977 76.4268 109.852 75.958 109.852C75.4893 109.852 75.0986 109.977 74.7861 110.227C74.4788 110.477 74.2471 110.815 74.0908 111.242C73.9346 111.669 73.8564 112.154 73.8564 112.695C73.8564 113.227 73.9346 113.706 74.0908 114.133C74.2471 114.56 74.4788 114.901 74.7861 115.156C75.0986 115.406 75.4893 115.531 75.958 115.531ZM85.6143 120.445C84.9111 120.445 84.2992 120.354 83.7783 120.172C83.2627 119.99 82.8408 119.74 82.5127 119.422C82.1846 119.109 81.9502 118.755 81.8096 118.359L83.5596 117.805C83.6429 117.977 83.7653 118.146 83.9268 118.312C84.0934 118.484 84.3122 118.625 84.583 118.734C84.859 118.849 85.2002 118.906 85.6064 118.906C86.2367 118.906 86.7393 118.755 87.1143 118.453C87.4893 118.156 87.6768 117.695 87.6768 117.07V115.461H87.5205C87.4111 115.685 87.2575 115.906 87.0596 116.125C86.8617 116.344 86.6012 116.526 86.2783 116.672C85.9554 116.818 85.5492 116.891 85.0596 116.891C84.3877 116.891 83.7783 116.732 83.2314 116.414C82.6898 116.091 82.2601 115.615 81.9424 114.984C81.6247 114.349 81.4658 113.565 81.4658 112.633C81.4658 111.69 81.6247 110.891 81.9424 110.234C82.2653 109.573 82.6976 109.07 83.2393 108.727C83.7861 108.378 84.3981 108.203 85.0752 108.203C85.57 108.203 85.9814 108.286 86.3096 108.453C86.6429 108.615 86.9111 108.815 87.1143 109.055C87.3226 109.294 87.4814 109.523 87.5908 109.742H87.6924V108.32H89.6768V117C89.6768 117.781 89.4997 118.427 89.1455 118.938C88.7965 119.448 88.3148 119.826 87.7002 120.07C87.0908 120.32 86.3955 120.445 85.6143 120.445ZM85.6143 115.281C86.057 115.281 86.432 115.177 86.7393 114.969C87.0518 114.755 87.2887 114.448 87.4502 114.047C87.6117 113.646 87.6924 113.169 87.6924 112.617C87.6924 112.065 87.6117 111.583 87.4502 111.172C87.2887 110.76 87.0544 110.44 86.7471 110.211C86.4398 109.982 86.0622 109.867 85.6143 109.867C85.1663 109.867 84.7861 109.987 84.4736 110.227C84.1663 110.461 83.932 110.784 83.7705 111.195C83.6143 111.607 83.5361 112.081 83.5361 112.617C83.5361 113.154 83.6143 113.622 83.7705 114.023C83.932 114.424 84.1663 114.734 84.4736 114.953C84.7861 115.172 85.1663 115.281 85.6143 115.281Z" fill="#111827"/>
<path fill-rule="evenodd" clip-rule="evenodd" d="M106.06 103.938C103.876 103.938 102.106 105.708 102.106 107.892V109.464C102.106 109.464 102.106 109.464 102.106 109.464H99.8429C99.5668 109.464 99.3429 109.688 99.3429 109.964V117.562C99.3429 117.838 99.5668 118.062 99.8429 118.062H112.276C112.552 118.062 112.776 117.838 112.776 117.562V109.964C112.776 109.688 112.552 109.464 112.276 109.464H110.013C110.013 109.464 110.013 109.464 110.013 109.464V107.892C110.013 105.708 108.243 103.938 106.06 103.938ZM103.106 107.892C103.106 106.26 104.428 104.938 106.06 104.938C107.691 104.938 109.013 106.26 109.013 107.892V109.464H103.106V107.892ZM100.343 117.062V110.464H111.776V117.062H100.343Z" fill="#111827"/>
<path d="M125.339 116.137C124.742 116.137 124.206 116.021 123.732 115.788C123.258 115.551 122.88 115.23 122.598 114.824C122.315 114.414 122.162 113.949 122.14 113.43H123.397C123.425 113.73 123.527 113.999 123.705 114.236C123.883 114.473 124.113 114.66 124.396 114.797C124.683 114.929 124.997 114.995 125.339 114.995C125.749 114.995 126.114 114.899 126.433 114.708C126.756 114.517 127.009 114.252 127.191 113.915C127.374 113.578 127.465 113.195 127.465 112.767C127.465 112.329 127.369 111.937 127.178 111.591C126.986 111.244 126.724 110.973 126.392 110.777C126.063 110.577 125.685 110.477 125.257 110.477C124.942 110.477 124.623 110.527 124.3 110.627C123.976 110.727 123.714 110.855 123.514 111.01L122.297 110.859L122.898 105.814H128.258V106.956H123.992L123.644 109.93H123.698C123.908 109.757 124.172 109.615 124.491 109.506C124.81 109.392 125.145 109.335 125.496 109.335C125.961 109.335 126.389 109.419 126.781 109.588C127.178 109.757 127.522 109.996 127.813 110.306C128.105 110.611 128.331 110.971 128.49 111.386C128.654 111.8 128.736 112.254 128.736 112.746C128.736 113.398 128.588 113.979 128.292 114.489C128 115 127.599 115.403 127.089 115.699C126.578 115.991 125.995 116.137 125.339 116.137ZM133.699 116.137C133.12 116.137 132.605 116.023 132.154 115.795C131.703 115.567 131.334 115.248 131.047 114.838C130.76 114.428 130.575 113.951 130.493 113.409H131.778C131.883 113.86 132.095 114.236 132.414 114.537C132.733 114.838 133.161 114.988 133.699 114.988C134.219 114.988 134.665 114.836 135.039 114.53C135.413 114.225 135.7 113.783 135.9 113.204C136.105 112.625 136.208 111.926 136.208 111.105H136.126C135.944 111.383 135.725 111.625 135.47 111.83C135.215 112.031 134.93 112.188 134.615 112.302C134.305 112.411 133.973 112.466 133.617 112.466C133.034 112.466 132.498 112.322 132.011 112.035C131.523 111.743 131.133 111.345 130.842 110.839C130.555 110.328 130.411 109.747 130.411 109.096C130.411 108.462 130.555 107.886 130.842 107.366C131.129 106.842 131.53 106.427 132.045 106.122C132.564 105.812 133.173 105.664 133.87 105.678C134.289 105.682 134.709 105.764 135.128 105.924C135.547 106.079 135.93 106.336 136.276 106.696C136.623 107.056 136.901 107.546 137.11 108.166C137.32 108.786 137.425 109.565 137.425 110.504C137.425 111.406 137.338 112.206 137.165 112.903C136.996 113.601 136.75 114.191 136.427 114.674C136.103 115.152 135.711 115.517 135.251 115.768C134.791 116.014 134.273 116.137 133.699 116.137ZM133.809 111.331C134.118 111.331 134.408 111.27 134.677 111.146C134.946 111.023 135.18 110.857 135.381 110.647C135.581 110.433 135.739 110.192 135.853 109.923C135.966 109.649 136.023 109.362 136.023 109.062C136.023 108.67 135.928 108.305 135.736 107.968C135.549 107.626 135.292 107.35 134.964 107.141C134.64 106.926 134.269 106.819 133.85 106.819C133.439 106.819 133.07 106.922 132.742 107.127C132.419 107.327 132.161 107.601 131.97 107.947C131.778 108.289 131.683 108.67 131.683 109.089C131.683 109.504 131.774 109.882 131.956 110.224C132.143 110.561 132.396 110.83 132.715 111.03C133.034 111.231 133.398 111.331 133.809 111.331ZM142.723 105.814V116H141.444V107.018H141.376L138.915 108.843V107.448L141.13 105.814H142.723ZM147.904 116.164C147.271 116.164 146.71 116.002 146.223 115.679C145.735 115.355 145.354 114.897 145.081 114.305C144.808 113.712 144.671 113.01 144.671 112.199C144.671 111.393 144.808 110.695 145.081 110.107C145.359 109.515 145.742 109.059 146.229 108.74C146.717 108.421 147.278 108.262 147.911 108.262C148.408 108.262 148.802 108.344 149.094 108.508C149.385 108.672 149.609 108.859 149.764 109.068C149.923 109.273 150.044 109.444 150.126 109.581H150.222V105.814H151.452V116H150.263V114.817H150.126C150.044 114.959 149.921 115.136 149.757 115.351C149.597 115.56 149.369 115.749 149.073 115.918C148.782 116.082 148.392 116.164 147.904 116.164ZM148.089 115.063C148.554 115.063 148.946 114.943 149.265 114.701C149.584 114.455 149.825 114.116 149.989 113.683C150.153 113.25 150.235 112.751 150.235 112.186C150.235 111.62 150.153 111.128 149.989 110.709C149.83 110.285 149.59 109.955 149.271 109.718C148.952 109.481 148.558 109.362 148.089 109.362C147.606 109.362 147.202 109.488 146.879 109.738C146.56 109.989 146.321 110.328 146.161 110.757C146.002 111.181 145.922 111.657 145.922 112.186C145.922 112.719 146.002 113.204 146.161 113.642C146.325 114.075 146.569 114.421 146.893 114.681C147.216 114.936 147.615 115.063 148.089 115.063ZM160.407 116.164C159.778 116.164 159.22 116.002 158.732 115.679C158.249 115.355 157.869 114.897 157.591 114.305C157.317 113.712 157.181 113.01 157.181 112.199C157.181 111.393 157.32 110.695 157.598 110.107C157.876 109.515 158.258 109.059 158.746 108.74C159.238 108.421 159.801 108.262 160.435 108.262C160.927 108.262 161.319 108.344 161.61 108.508C161.902 108.667 162.125 108.852 162.28 109.062C162.435 109.271 162.554 109.444 162.636 109.581H162.738V108.357H163.962V116H162.745V114.817H162.636C162.554 114.959 162.431 115.136 162.267 115.351C162.107 115.565 161.879 115.754 161.583 115.918C161.287 116.082 160.895 116.164 160.407 116.164ZM160.612 115.063C161.077 115.063 161.469 114.943 161.788 114.701C162.107 114.455 162.349 114.116 162.513 113.683C162.677 113.25 162.759 112.751 162.759 112.186C162.759 111.62 162.677 111.128 162.513 110.709C162.353 110.285 162.114 109.955 161.795 109.718C161.476 109.481 161.082 109.362 160.612 109.362C160.129 109.362 159.726 109.488 159.402 109.738C159.079 109.984 158.835 110.322 158.671 110.75C158.511 111.174 158.432 111.652 158.432 112.186C158.432 112.719 158.514 113.204 158.678 113.642C158.842 114.075 159.086 114.421 159.409 114.681C159.733 114.936 160.134 115.063 160.612 115.063ZM169.219 119.021C168.654 119.021 168.164 118.949 167.749 118.803C167.339 118.661 166.997 118.472 166.724 118.235C166.45 117.998 166.234 117.741 166.074 117.463L167.072 116.82C167.182 116.966 167.316 117.128 167.476 117.306C167.64 117.483 167.858 117.634 168.132 117.757C168.41 117.884 168.772 117.948 169.219 117.948C169.829 117.948 170.331 117.802 170.723 117.511C171.119 117.219 171.317 116.759 171.317 116.13V114.599H171.201C171.115 114.744 170.992 114.918 170.832 115.118C170.677 115.319 170.451 115.496 170.155 115.651C169.864 115.802 169.472 115.877 168.979 115.877C168.369 115.877 167.82 115.733 167.332 115.446C166.844 115.155 166.459 114.731 166.177 114.175C165.894 113.619 165.753 112.942 165.753 112.145C165.753 111.356 165.892 110.673 166.17 110.094C166.448 109.51 166.831 109.059 167.318 108.74C167.811 108.421 168.373 108.262 169.007 108.262C169.499 108.262 169.891 108.344 170.183 108.508C170.479 108.667 170.707 108.852 170.866 109.062C171.026 109.271 171.149 109.444 171.235 109.581H171.352V108.357H172.548V116.198C172.548 116.854 172.4 117.39 172.104 117.805C171.807 118.224 171.406 118.532 170.9 118.728C170.399 118.924 169.839 119.021 169.219 119.021ZM169.185 114.783C169.649 114.783 170.041 114.678 170.36 114.469C170.679 114.255 170.921 113.949 171.085 113.553C171.249 113.152 171.331 112.673 171.331 112.117C171.331 111.575 171.249 111.099 171.085 110.688C170.925 110.274 170.686 109.95 170.367 109.718C170.048 109.481 169.654 109.362 169.185 109.362C168.701 109.362 168.298 109.488 167.975 109.738C167.651 109.984 167.407 110.315 167.243 110.729C167.084 111.144 167.004 111.607 167.004 112.117C167.004 112.641 167.086 113.104 167.25 113.505C167.414 113.906 167.658 114.22 167.981 114.448C168.305 114.672 168.706 114.783 169.185 114.783ZM177.818 116.164C177.126 116.164 176.517 116 175.993 115.672C175.474 115.344 175.068 114.883 174.776 114.291C174.485 113.699 174.339 113.01 174.339 112.227C174.339 111.429 174.485 110.734 174.776 110.142C175.068 109.545 175.474 109.082 175.993 108.754C176.517 108.426 177.126 108.262 177.818 108.262C178.516 108.262 179.126 108.426 179.65 108.754C180.174 109.082 180.582 109.545 180.874 110.142C181.166 110.734 181.312 111.429 181.312 112.227C181.312 113.01 181.166 113.699 180.874 114.291C180.582 114.883 180.174 115.344 179.65 115.672C179.126 116 178.516 116.164 177.818 116.164ZM177.818 115.063C178.333 115.063 178.757 114.931 179.09 114.667C179.423 114.403 179.669 114.056 179.828 113.628C179.988 113.195 180.067 112.728 180.067 112.227C180.067 111.721 179.988 111.251 179.828 110.818C179.669 110.381 179.423 110.03 179.09 109.766C178.757 109.497 178.333 109.362 177.818 109.362C177.308 109.362 176.889 109.497 176.561 109.766C176.232 110.03 175.989 110.379 175.829 110.812C175.67 111.244 175.59 111.716 175.59 112.227C175.59 112.728 175.67 113.195 175.829 113.628C175.989 114.056 176.232 114.403 176.561 114.667C176.889 114.931 177.308 115.063 177.818 115.063Z" fill="#111827"/>
<rect x="416.939" y="103" width="16" height="16" rx="8" fill="white"/>
<rect x="416.939" y="103" width="16" height="16" rx="8" stroke="#E4E4E7"/>
<rect x="37.9615" y="162.07" width="4.34127" height="4.34127" transform="rotate(-45 37.9615 162.07)" stroke="#111827" stroke-linejoin="round"/>
<rect x="37.9615" y="171.93" width="4.34127" height="4.34127" transform="rotate(-45 37.9615 171.93)" stroke="#111827" stroke-linejoin="round"/>
<rect x="42.92" y="167.024" width="4.34127" height="4.34127" transform="rotate(-45 42.92 167.024)" stroke="#111827" stroke-linejoin="round"/>
<rect x="33.0596" y="167.024" width="4.34127" height="4.34127" transform="rotate(-45 33.0596 167.024)" stroke="#111827" stroke-linejoin="round"/>
<path d="M58.1143 176.266V164.32H60.0986V165.734H60.2158C60.3252 165.516 60.4788 165.289 60.6768 165.055C60.8799 164.815 61.1455 164.615 61.4736 164.453C61.8018 164.286 62.2158 164.203 62.7158 164.203C63.3929 164.203 64.0023 164.378 64.5439 164.727C65.0856 165.07 65.5153 165.576 65.833 166.242C66.1507 166.909 66.3096 167.719 66.3096 168.672C66.3096 169.62 66.1533 170.427 65.8408 171.094C65.5335 171.76 65.109 172.273 64.5674 172.633C64.0257 172.987 63.4059 173.164 62.708 173.164C62.2236 173.164 61.8174 173.083 61.4893 172.922C61.1611 172.755 60.8955 172.555 60.6924 172.32C60.4893 172.086 60.3304 171.857 60.2158 171.633H60.1377V176.266H58.1143ZM62.1689 171.492C62.6169 171.492 62.9945 171.372 63.3018 171.133C63.609 170.888 63.8408 170.552 63.9971 170.125C64.1585 169.698 64.2393 169.211 64.2393 168.664C64.2393 168.122 64.1611 167.641 64.0049 167.219C63.8486 166.797 63.6169 166.466 63.3096 166.227C63.0023 165.987 62.6221 165.867 62.1689 165.867C61.7262 165.867 61.3486 165.984 61.0361 166.219C60.7288 166.448 60.4945 166.773 60.333 167.195C60.1715 167.612 60.0908 168.102 60.0908 168.664C60.0908 169.227 60.1715 169.721 60.333 170.148C60.4945 170.57 60.7314 170.901 61.0439 171.141C61.3564 171.375 61.7314 171.492 62.1689 171.492ZM70.0596 161.359V173H68.0361V161.359H70.0596ZM75.3877 173.164C74.7002 173.164 74.0856 172.987 73.5439 172.633C73.0023 172.273 72.5752 171.76 72.2627 171.094C71.9502 170.427 71.7939 169.62 71.7939 168.672C71.7939 167.719 71.9528 166.909 72.2705 166.242C72.5934 165.576 73.0257 165.07 73.5674 164.727C74.1143 164.378 74.7262 164.203 75.4033 164.203C75.8981 164.203 76.3096 164.286 76.6377 164.453C76.9658 164.615 77.2288 164.815 77.4268 165.055C77.6299 165.289 77.7861 165.516 77.8955 165.734H77.9814V164.32H79.9893V173H77.9893V171.633H77.8955C77.7861 171.857 77.6273 172.086 77.4189 172.32C77.2158 172.555 76.9476 172.755 76.6143 172.922C76.2861 173.083 75.8773 173.164 75.3877 173.164ZM75.9424 171.492C76.3851 171.492 76.7601 171.375 77.0674 171.141C77.3799 170.901 77.6169 170.57 77.7783 170.148C77.9398 169.721 78.0205 169.227 78.0205 168.664C78.0205 168.102 77.9398 167.612 77.7783 167.195C77.6169 166.773 77.3825 166.448 77.0752 166.219C76.7679 165.984 76.3903 165.867 75.9424 165.867C75.4945 165.867 75.1143 165.987 74.8018 166.227C74.4945 166.466 74.2601 166.797 74.0986 167.219C73.9424 167.635 73.8643 168.117 73.8643 168.664C73.8643 169.211 73.9424 169.698 74.0986 170.125C74.2601 170.552 74.4945 170.888 74.8018 171.133C75.1143 171.372 75.4945 171.492 75.9424 171.492ZM81.4033 173L84.8018 167.789L84.7939 169.297L81.583 164.32H83.8096L84.6924 165.781C84.9476 166.219 85.1768 166.643 85.3799 167.055C85.583 167.461 85.7887 167.859 85.9971 168.25H85.1768C85.3903 167.865 85.5934 167.466 85.7861 167.055C85.984 166.643 86.2132 166.219 86.4736 165.781L87.3877 164.32H89.5752L86.3174 169.336V167.844L89.708 173H87.4893L86.4268 171.281C86.1663 170.854 85.9346 170.438 85.7314 170.031C85.5283 169.625 85.3226 169.234 85.1143 168.859H85.9346C85.7314 169.234 85.5335 169.625 85.3408 170.031C85.1533 170.438 84.9294 170.854 84.6689 171.281L83.6064 173H81.4033ZM94.583 173.18C93.7393 173.18 93.0049 172.992 92.3799 172.617C91.7549 172.242 91.2705 171.719 90.9268 171.047C90.5882 170.375 90.4189 169.594 90.4189 168.703C90.4189 167.802 90.5882 167.016 90.9268 166.344C91.2705 165.667 91.7549 165.141 92.3799 164.766C93.0049 164.391 93.7393 164.203 94.583 164.203C95.4268 164.203 96.1611 164.391 96.7861 164.766C97.4111 165.141 97.8929 165.667 98.2314 166.344C98.5752 167.016 98.7471 167.802 98.7471 168.703C98.7471 169.594 98.5752 170.375 98.2314 171.047C97.8929 171.719 97.4111 172.242 96.7861 172.617C96.1611 172.992 95.4268 173.18 94.583 173.18ZM94.583 171.531C95.0518 171.531 95.4424 171.406 95.7549 171.156C96.0674 170.901 96.3018 170.56 96.458 170.133C96.6143 169.706 96.6924 169.227 96.6924 168.695C96.6924 168.159 96.6143 167.677 96.458 167.25C96.3018 166.818 96.0674 166.477 95.7549 166.227C95.4424 165.977 95.0518 165.852 94.583 165.852C94.1143 165.852 93.7236 165.977 93.4111 166.227C93.1038 166.477 92.8721 166.815 92.7158 167.242C92.5596 167.669 92.4814 168.154 92.4814 168.695C92.4814 169.227 92.5596 169.706 92.7158 170.133C92.8721 170.56 93.1038 170.901 93.4111 171.156C93.7236 171.406 94.1143 171.531 94.583 171.531ZM102.497 167.938V173H100.474V164.32H102.403L102.427 166.469H102.239C102.484 165.719 102.843 165.154 103.317 164.773C103.797 164.393 104.393 164.203 105.106 164.203C105.7 164.203 106.221 164.331 106.669 164.586C107.117 164.841 107.463 165.214 107.708 165.703C107.958 166.193 108.083 166.789 108.083 167.492V173H106.06V167.805C106.06 167.216 105.909 166.758 105.606 166.43C105.304 166.096 104.888 165.93 104.356 165.93C103.997 165.93 103.677 166.008 103.396 166.164C103.119 166.32 102.901 166.547 102.739 166.844C102.578 167.141 102.497 167.505 102.497 167.938ZM110.192 173V164.32H112.216V173H110.192ZM111.2 163.086C110.877 163.086 110.599 162.977 110.364 162.758C110.135 162.539 110.021 162.276 110.021 161.969C110.021 161.656 110.135 161.393 110.364 161.18C110.599 160.966 110.877 160.859 111.2 160.859C111.528 160.859 111.807 160.966 112.036 161.18C112.271 161.393 112.388 161.656 112.388 161.969C112.388 162.276 112.271 162.539 112.036 162.758C111.807 162.977 111.528 163.086 111.2 163.086ZM118.106 173.18C117.263 173.18 116.528 172.992 115.903 172.617C115.284 172.242 114.802 171.719 114.458 171.047C114.119 170.37 113.95 169.589 113.95 168.703C113.95 167.802 114.119 167.016 114.458 166.344C114.802 165.667 115.284 165.141 115.903 164.766C116.528 164.391 117.263 164.203 118.106 164.203C118.596 164.203 119.049 164.268 119.466 164.398C119.888 164.523 120.263 164.708 120.591 164.953C120.919 165.193 121.192 165.484 121.411 165.828C121.63 166.172 121.784 166.557 121.872 166.984L119.966 167.344C119.914 167.115 119.833 166.909 119.724 166.727C119.619 166.544 119.489 166.388 119.333 166.258C119.177 166.128 118.997 166.029 118.794 165.961C118.591 165.888 118.367 165.852 118.122 165.852C117.653 165.852 117.263 165.977 116.95 166.227C116.638 166.471 116.403 166.807 116.247 167.234C116.091 167.661 116.013 168.148 116.013 168.695C116.013 169.232 116.091 169.714 116.247 170.141C116.403 170.568 116.638 170.906 116.95 171.156C117.263 171.406 117.653 171.531 118.122 171.531C118.372 171.531 118.599 171.495 118.802 171.422C119.01 171.349 119.192 171.245 119.349 171.109C119.51 170.974 119.643 170.81 119.747 170.617C119.856 170.424 119.937 170.214 119.989 169.984L121.888 170.336C121.804 170.773 121.653 171.167 121.435 171.516C121.216 171.865 120.94 172.164 120.606 172.414C120.278 172.659 119.903 172.849 119.481 172.984C119.06 173.115 118.601 173.18 118.106 173.18Z" fill="#111827"/>
<path fill-rule="evenodd" clip-rule="evenodd" d="M138.059 159.938C135.876 159.938 134.106 161.708 134.106 163.892V165.464C134.106 165.464 134.106 165.464 134.106 165.464H131.843C131.567 165.464 131.343 165.688 131.343 165.964V173.562C131.343 173.838 131.567 174.062 131.843 174.062H144.276C144.552 174.062 144.776 173.838 144.776 173.562V165.964C144.776 165.688 144.552 165.464 144.276 165.464H142.013C142.013 165.464 142.013 165.464 142.013 165.464V163.892C142.013 161.708 140.243 159.938 138.059 159.938ZM135.106 163.892C135.106 162.26 136.428 160.938 138.059 160.938C139.691 160.938 141.013 162.26 141.013 163.892V165.464H135.106V163.892ZM132.343 173.062V166.464H143.776V173.062H132.343Z" fill="#111827"/>
<path d="M157.182 172.137C156.603 172.137 156.088 172.023 155.637 171.795C155.186 171.567 154.816 171.248 154.529 170.838C154.242 170.428 154.058 169.951 153.976 169.409H155.261C155.366 169.86 155.577 170.236 155.896 170.537C156.215 170.838 156.644 170.988 157.182 170.988C157.701 170.988 158.148 170.836 158.521 170.53C158.895 170.225 159.182 169.783 159.383 169.204C159.588 168.625 159.69 167.926 159.69 167.105H159.608C159.426 167.383 159.207 167.625 158.952 167.83C158.697 168.031 158.412 168.188 158.098 168.302C157.788 168.411 157.455 168.466 157.1 168.466C156.516 168.466 155.981 168.322 155.493 168.035C155.006 167.743 154.616 167.345 154.324 166.839C154.037 166.328 153.894 165.747 153.894 165.096C153.894 164.462 154.037 163.886 154.324 163.366C154.611 162.842 155.012 162.427 155.527 162.122C156.047 161.812 156.655 161.664 157.353 161.678C157.772 161.682 158.191 161.764 158.61 161.924C159.03 162.079 159.412 162.336 159.759 162.696C160.105 163.056 160.383 163.546 160.593 164.166C160.802 164.786 160.907 165.565 160.907 166.504C160.907 167.406 160.821 168.206 160.647 168.903C160.479 169.601 160.233 170.191 159.909 170.674C159.586 171.152 159.194 171.517 158.733 171.768C158.273 172.014 157.756 172.137 157.182 172.137ZM157.291 167.331C157.601 167.331 157.89 167.27 158.159 167.146C158.428 167.023 158.663 166.857 158.863 166.647C159.064 166.433 159.221 166.192 159.335 165.923C159.449 165.649 159.506 165.362 159.506 165.062C159.506 164.67 159.41 164.305 159.219 163.968C159.032 163.626 158.774 163.35 158.446 163.141C158.123 162.926 157.751 162.819 157.332 162.819C156.922 162.819 156.553 162.922 156.225 163.127C155.901 163.327 155.644 163.601 155.452 163.947C155.261 164.289 155.165 164.67 155.165 165.089C155.165 165.504 155.256 165.882 155.438 166.224C155.625 166.561 155.878 166.83 156.197 167.03C156.516 167.231 156.881 167.331 157.291 167.331ZM166.205 161.814V172H164.927V163.018H164.858L162.397 164.843V163.448L164.612 161.814H166.205ZM171.387 172.164C170.753 172.164 170.193 172.002 169.705 171.679C169.217 171.355 168.837 170.897 168.563 170.305C168.29 169.712 168.153 169.01 168.153 168.199C168.153 167.393 168.29 166.695 168.563 166.107C168.841 165.515 169.224 165.059 169.712 164.74C170.2 164.421 170.76 164.262 171.394 164.262C171.89 164.262 172.285 164.344 172.576 164.508C172.868 164.672 173.091 164.859 173.246 165.068C173.406 165.273 173.526 165.444 173.608 165.581H173.704V161.814H174.935V172H173.745V170.817H173.608C173.526 170.959 173.403 171.136 173.239 171.351C173.08 171.56 172.852 171.749 172.556 171.918C172.264 172.082 171.874 172.164 171.387 172.164ZM171.571 171.063C172.036 171.063 172.428 170.943 172.747 170.701C173.066 170.455 173.308 170.116 173.472 169.683C173.636 169.25 173.718 168.751 173.718 168.186C173.718 167.62 173.636 167.128 173.472 166.709C173.312 166.285 173.073 165.955 172.754 165.718C172.435 165.481 172.041 165.362 171.571 165.362C171.088 165.362 170.685 165.488 170.361 165.738C170.042 165.989 169.803 166.328 169.644 166.757C169.484 167.181 169.404 167.657 169.404 168.186C169.404 168.719 169.484 169.204 169.644 169.642C169.808 170.075 170.051 170.421 170.375 170.681C170.699 170.936 171.097 171.063 171.571 171.063ZM183.89 172.164C183.261 172.164 182.702 172.002 182.215 171.679C181.732 171.355 181.351 170.897 181.073 170.305C180.8 169.712 180.663 169.01 180.663 168.199C180.663 167.393 180.802 166.695 181.08 166.107C181.358 165.515 181.741 165.059 182.229 164.74C182.721 164.421 183.284 164.262 183.917 164.262C184.409 164.262 184.801 164.344 185.093 164.508C185.384 164.667 185.608 164.852 185.763 165.062C185.918 165.271 186.036 165.444 186.118 165.581H186.221V164.357H187.444V172H186.228V170.817H186.118C186.036 170.959 185.913 171.136 185.749 171.351C185.59 171.565 185.362 171.754 185.065 171.918C184.769 172.082 184.377 172.164 183.89 172.164ZM184.095 171.063C184.56 171.063 184.951 170.943 185.271 170.701C185.59 170.455 185.831 170.116 185.995 169.683C186.159 169.25 186.241 168.751 186.241 168.186C186.241 167.62 186.159 167.128 185.995 166.709C185.836 166.285 185.596 165.955 185.277 165.718C184.958 165.481 184.564 165.362 184.095 165.362C183.612 165.362 183.208 165.488 182.885 165.738C182.561 165.984 182.317 166.322 182.153 166.75C181.994 167.174 181.914 167.652 181.914 168.186C181.914 168.719 181.996 169.204 182.16 169.642C182.324 170.075 182.568 170.421 182.892 170.681C183.215 170.936 183.616 171.063 184.095 171.063ZM192.701 175.021C192.136 175.021 191.646 174.949 191.231 174.803C190.821 174.661 190.479 174.472 190.206 174.235C189.933 173.998 189.716 173.741 189.557 173.463L190.555 172.82C190.664 172.966 190.799 173.128 190.958 173.306C191.122 173.483 191.341 173.634 191.614 173.757C191.892 173.884 192.255 173.948 192.701 173.948C193.312 173.948 193.813 173.802 194.205 173.511C194.602 173.219 194.8 172.759 194.8 172.13V170.599H194.684C194.597 170.744 194.474 170.918 194.314 171.118C194.16 171.319 193.934 171.496 193.638 171.651C193.346 171.802 192.954 171.877 192.462 171.877C191.851 171.877 191.302 171.733 190.814 171.446C190.327 171.155 189.942 170.731 189.659 170.175C189.377 169.619 189.235 168.942 189.235 168.145C189.235 167.356 189.374 166.673 189.652 166.094C189.93 165.51 190.313 165.059 190.801 164.74C191.293 164.421 191.856 164.262 192.489 164.262C192.981 164.262 193.373 164.344 193.665 164.508C193.961 164.667 194.189 164.852 194.349 165.062C194.508 165.271 194.631 165.444 194.718 165.581H194.834V164.357H196.03V172.198C196.03 172.854 195.882 173.39 195.586 173.805C195.29 174.224 194.889 174.532 194.383 174.728C193.882 174.924 193.321 175.021 192.701 175.021ZM192.667 170.783C193.132 170.783 193.524 170.678 193.843 170.469C194.162 170.255 194.403 169.949 194.567 169.553C194.731 169.152 194.813 168.673 194.813 168.117C194.813 167.575 194.731 167.099 194.567 166.688C194.408 166.274 194.169 165.95 193.85 165.718C193.531 165.481 193.136 165.362 192.667 165.362C192.184 165.362 191.781 165.488 191.457 165.738C191.133 165.984 190.89 166.315 190.726 166.729C190.566 167.144 190.486 167.607 190.486 168.117C190.486 168.641 190.568 169.104 190.732 169.505C190.896 169.906 191.14 170.22 191.464 170.448C191.787 170.672 192.188 170.783 192.667 170.783ZM201.301 172.164C200.608 172.164 200 172 199.476 171.672C198.956 171.344 198.55 170.883 198.259 170.291C197.967 169.699 197.821 169.01 197.821 168.227C197.821 167.429 197.967 166.734 198.259 166.142C198.55 165.545 198.956 165.082 199.476 164.754C200 164.426 200.608 164.262 201.301 164.262C201.998 164.262 202.609 164.426 203.133 164.754C203.657 165.082 204.065 165.545 204.356 166.142C204.648 166.734 204.794 167.429 204.794 168.227C204.794 169.01 204.648 169.699 204.356 170.291C204.065 170.883 203.657 171.344 203.133 171.672C202.609 172 201.998 172.164 201.301 172.164ZM201.301 171.063C201.816 171.063 202.24 170.931 202.572 170.667C202.905 170.403 203.151 170.056 203.311 169.628C203.47 169.195 203.55 168.728 203.55 168.227C203.55 167.721 203.47 167.251 203.311 166.818C203.151 166.381 202.905 166.03 202.572 165.766C202.24 165.497 201.816 165.362 201.301 165.362C200.79 165.362 200.371 165.497 200.043 165.766C199.715 166.03 199.471 166.379 199.312 166.812C199.152 167.244 199.072 167.716 199.072 168.227C199.072 168.728 199.152 169.195 199.312 169.628C199.471 170.056 199.715 170.403 200.043 170.667C200.371 170.931 200.79 171.063 201.301 171.063Z" fill="#111827"/>
<rect x="416.939" y="159" width="16" height="16" rx="8" fill="white"/>
<rect x="416.939" y="159" width="16" height="16" rx="8" stroke="#E4E4E7"/>
<rect x="37.9615" y="218.07" width="4.34127" height="4.34127" transform="rotate(-45 37.9615 218.07)" stroke="#111827" stroke-linejoin="round"/>
<rect x="37.9615" y="227.93" width="4.34127" height="4.34127" transform="rotate(-45 37.9615 227.93)" stroke="#111827" stroke-linejoin="round"/>
<rect x="42.92" y="223.024" width="4.34127" height="4.34127" transform="rotate(-45 42.92 223.024)" stroke="#111827" stroke-linejoin="round"/>
<rect x="33.0596" y="223.024" width="4.34127" height="4.34127" transform="rotate(-45 33.0596 223.024)" stroke="#111827" stroke-linejoin="round"/>
<path d="M61.4111 229.18C60.7393 229.18 60.1429 229.083 59.6221 228.891C59.1064 228.693 58.6846 228.409 58.3564 228.039C58.0283 227.664 57.8174 227.208 57.7236 226.672L59.6299 226.359C59.7393 226.786 59.945 227.107 60.2471 227.32C60.5492 227.529 60.9476 227.633 61.4424 227.633C61.9424 227.633 62.3356 227.534 62.6221 227.336C62.9137 227.133 63.0596 226.885 63.0596 226.594C63.0596 226.344 62.9632 226.138 62.7705 225.977C62.5778 225.81 62.2835 225.685 61.8877 225.602L60.4111 225.281C59.5882 225.104 58.9736 224.815 58.5674 224.414C58.1611 224.008 57.958 223.484 57.958 222.844C57.958 222.307 58.1038 221.841 58.3955 221.445C58.6924 221.049 59.1038 220.745 59.6299 220.531C60.1559 220.312 60.7653 220.203 61.458 220.203C62.1195 220.203 62.6898 220.299 63.1689 220.492C63.6481 220.68 64.0335 220.948 64.3252 221.297C64.6221 221.641 64.8226 222.044 64.9268 222.508L63.1143 222.828C63.0257 222.516 62.8486 222.253 62.583 222.039C62.3226 221.826 61.958 221.719 61.4893 221.719C61.057 221.719 60.6976 221.812 60.4111 222C60.1299 222.188 59.9893 222.43 59.9893 222.727C59.9893 222.982 60.083 223.193 60.2705 223.359C60.4632 223.521 60.7757 223.648 61.208 223.742L62.6924 224.055C63.5205 224.232 64.1351 224.516 64.5361 224.906C64.9372 225.292 65.1377 225.792 65.1377 226.406C65.1377 226.953 64.9788 227.435 64.6611 227.852C64.3434 228.268 63.9033 228.594 63.3408 228.828C62.7835 229.062 62.1403 229.18 61.4111 229.18ZM70.9189 220.32V221.906H65.9502V220.32H70.9189ZM67.208 218.219H69.2314V226.555C69.2314 226.867 69.2992 227.096 69.4346 227.242C69.57 227.383 69.7939 227.453 70.1064 227.453C70.2002 227.453 70.3226 227.443 70.4736 227.422C70.6299 227.401 70.7549 227.383 70.8486 227.367L71.1377 228.938C70.9242 229 70.7002 229.042 70.4658 229.062C70.2367 229.089 70.0127 229.102 69.7939 229.102C68.9606 229.102 68.32 228.898 67.8721 228.492C67.4294 228.086 67.208 227.5 67.208 226.734V218.219ZM76.1143 229.18C75.2705 229.18 74.5361 228.992 73.9111 228.617C73.2861 228.242 72.8018 227.719 72.458 227.047C72.1195 226.375 71.9502 225.594 71.9502 224.703C71.9502 223.802 72.1195 223.016 72.458 222.344C72.8018 221.667 73.2861 221.141 73.9111 220.766C74.5361 220.391 75.2705 220.203 76.1143 220.203C76.958 220.203 77.6924 220.391 78.3174 220.766C78.9424 221.141 79.4242 221.667 79.7627 222.344C80.1064 223.016 80.2783 223.802 80.2783 224.703C80.2783 225.594 80.1064 226.375 79.7627 227.047C79.4242 227.719 78.9424 228.242 78.3174 228.617C77.6924 228.992 76.958 229.18 76.1143 229.18ZM76.1143 227.531C76.583 227.531 76.9736 227.406 77.2861 227.156C77.5986 226.901 77.833 226.56 77.9893 226.133C78.1455 225.706 78.2236 225.227 78.2236 224.695C78.2236 224.159 78.1455 223.677 77.9893 223.25C77.833 222.818 77.5986 222.477 77.2861 222.227C76.9736 221.977 76.583 221.852 76.1143 221.852C75.6455 221.852 75.2549 221.977 74.9424 222.227C74.6351 222.477 74.4033 222.815 74.2471 223.242C74.0908 223.669 74.0127 224.154 74.0127 224.695C74.0127 225.227 74.0908 225.706 74.2471 226.133C74.4033 226.56 74.6351 226.901 74.9424 227.156C75.2549 227.406 75.6455 227.531 76.1143 227.531ZM82.0049 229V220.32H83.9658V221.773H84.0518C84.208 221.268 84.4762 220.88 84.8564 220.609C85.2419 220.339 85.6872 220.203 86.1924 220.203C86.307 220.203 86.432 220.208 86.5674 220.219C86.708 220.229 86.8252 220.242 86.9189 220.258V222.117C86.8408 222.091 86.708 222.068 86.5205 222.047C86.333 222.026 86.1481 222.016 85.9658 222.016C85.596 222.016 85.2627 222.096 84.9658 222.258C84.6742 222.414 84.445 222.635 84.2783 222.922C84.1117 223.203 84.0283 223.534 84.0283 223.914V229H82.0049ZM91.1689 229.164C90.4814 229.164 89.8669 228.987 89.3252 228.633C88.7835 228.273 88.3564 227.76 88.0439 227.094C87.7314 226.427 87.5752 225.62 87.5752 224.672C87.5752 223.719 87.734 222.909 88.0518 222.242C88.3747 221.576 88.807 221.07 89.3486 220.727C89.8955 220.378 90.5075 220.203 91.1846 220.203C91.6794 220.203 92.0908 220.286 92.4189 220.453C92.7471 220.615 93.0101 220.815 93.208 221.055C93.4111 221.289 93.5674 221.516 93.6768 221.734H93.7627V220.32H95.7705V229H93.7705V227.633H93.6768C93.5674 227.857 93.4085 228.086 93.2002 228.32C92.9971 228.555 92.7288 228.755 92.3955 228.922C92.0674 229.083 91.6585 229.164 91.1689 229.164ZM91.7236 227.492C92.1663 227.492 92.5413 227.375 92.8486 227.141C93.1611 226.901 93.3981 226.57 93.5596 226.148C93.721 225.721 93.8018 225.227 93.8018 224.664C93.8018 224.102 93.721 223.612 93.5596 223.195C93.3981 222.773 93.1637 222.448 92.8564 222.219C92.5492 221.984 92.1715 221.867 91.7236 221.867C91.2757 221.867 90.8955 221.987 90.583 222.227C90.2757 222.466 90.0413 222.797 89.8799 223.219C89.7236 223.635 89.6455 224.117 89.6455 224.664C89.6455 225.211 89.7236 225.698 89.8799 226.125C90.0413 226.552 90.2757 226.888 90.583 227.133C90.8955 227.372 91.2757 227.492 91.7236 227.492ZM101.646 232.445C100.942 232.445 100.33 232.354 99.8096 232.172C99.2939 231.99 98.8721 231.74 98.5439 231.422C98.2158 231.109 97.9814 230.755 97.8408 230.359L99.5908 229.805C99.6742 229.977 99.7965 230.146 99.958 230.312C100.125 230.484 100.343 230.625 100.614 230.734C100.89 230.849 101.231 230.906 101.638 230.906C102.268 230.906 102.771 230.755 103.146 230.453C103.521 230.156 103.708 229.695 103.708 229.07V227.461H103.552C103.442 227.685 103.289 227.906 103.091 228.125C102.893 228.344 102.632 228.526 102.31 228.672C101.987 228.818 101.58 228.891 101.091 228.891C100.419 228.891 99.8096 228.732 99.2627 228.414C98.721 228.091 98.2913 227.615 97.9736 226.984C97.6559 226.349 97.4971 225.565 97.4971 224.633C97.4971 223.69 97.6559 222.891 97.9736 222.234C98.2965 221.573 98.7288 221.07 99.2705 220.727C99.8174 220.378 100.429 220.203 101.106 220.203C101.601 220.203 102.013 220.286 102.341 220.453C102.674 220.615 102.942 220.815 103.146 221.055C103.354 221.294 103.513 221.523 103.622 221.742H103.724V220.32H105.708V229C105.708 229.781 105.531 230.427 105.177 230.938C104.828 231.448 104.346 231.826 103.731 232.07C103.122 232.32 102.427 232.445 101.646 232.445ZM101.646 227.281C102.088 227.281 102.463 227.177 102.771 226.969C103.083 226.755 103.32 226.448 103.481 226.047C103.643 225.646 103.724 225.169 103.724 224.617C103.724 224.065 103.643 223.583 103.481 223.172C103.32 222.76 103.086 222.44 102.778 222.211C102.471 221.982 102.093 221.867 101.646 221.867C101.198 221.867 100.817 221.987 100.505 222.227C100.198 222.461 99.9632 222.784 99.8018 223.195C99.6455 223.607 99.5674 224.081 99.5674 224.617C99.5674 225.154 99.6455 225.622 99.8018 226.023C99.9632 226.424 100.198 226.734 100.505 226.953C100.817 227.172 101.198 227.281 101.646 227.281ZM111.653 229.18C110.784 229.18 110.031 228.995 109.396 228.625C108.765 228.255 108.281 227.737 107.942 227.07C107.604 226.398 107.435 225.612 107.435 224.711C107.435 223.82 107.601 223.036 107.935 222.359C108.273 221.682 108.75 221.154 109.364 220.773C109.979 220.393 110.698 220.203 111.521 220.203C112.062 220.203 112.573 220.292 113.052 220.469C113.536 220.641 113.963 220.909 114.333 221.273C114.703 221.633 114.992 222.089 115.2 222.641C115.414 223.193 115.521 223.846 115.521 224.602V225.219H108.372V223.844H114.505L113.567 224.25C113.567 223.76 113.489 223.331 113.333 222.961C113.177 222.591 112.948 222.305 112.646 222.102C112.349 221.893 111.979 221.789 111.536 221.789C111.093 221.789 110.716 221.893 110.403 222.102C110.091 222.31 109.851 222.591 109.685 222.945C109.523 223.294 109.442 223.685 109.442 224.117V225.062C109.442 225.604 109.534 226.065 109.716 226.445C109.903 226.82 110.164 227.104 110.497 227.297C110.836 227.49 111.229 227.586 111.677 227.586C111.979 227.586 112.252 227.544 112.497 227.461C112.742 227.372 112.95 227.245 113.122 227.078C113.299 226.906 113.432 226.698 113.521 226.453L115.388 226.797C115.252 227.271 115.013 227.688 114.669 228.047C114.33 228.401 113.906 228.68 113.396 228.883C112.885 229.081 112.304 229.18 111.653 229.18Z" fill="#111827"/>
<path fill-rule="evenodd" clip-rule="evenodd" d="M132.06 215.938C129.876 215.938 128.106 217.708 128.106 219.892V221.464C128.106 221.464 128.106 221.464 128.106 221.464H125.843C125.567 221.464 125.343 221.688 125.343 221.964V229.562C125.343 229.838 125.567 230.062 125.843 230.062H138.276C138.552 230.062 138.776 229.838 138.776 229.562V221.964C138.776 221.688 138.552 221.464 138.276 221.464H136.013C136.013 221.464 136.013 221.464 136.013 221.464V219.892C136.013 217.708 134.243 215.938 132.06 215.938ZM129.106 219.892C129.106 218.26 130.428 216.938 132.06 216.938C133.691 216.938 135.013 218.26 135.013 219.892V221.464H129.106V219.892ZM126.343 229.062V222.464H137.776V229.062H126.343Z" fill="#111827"/>
<path d="M151.339 228.137C150.742 228.137 150.206 228.021 149.732 227.788C149.258 227.551 148.88 227.23 148.598 226.824C148.315 226.414 148.162 225.949 148.14 225.43H149.397C149.425 225.73 149.527 225.999 149.705 226.236C149.883 226.473 150.113 226.66 150.396 226.797C150.683 226.929 150.997 226.995 151.339 226.995C151.749 226.995 152.114 226.899 152.433 226.708C152.756 226.517 153.009 226.252 153.191 225.915C153.374 225.578 153.465 225.195 153.465 224.767C153.465 224.329 153.369 223.937 153.178 223.591C152.986 223.244 152.724 222.973 152.392 222.777C152.063 222.577 151.685 222.477 151.257 222.477C150.942 222.477 150.623 222.527 150.3 222.627C149.976 222.727 149.714 222.855 149.514 223.01L148.297 222.859L148.898 217.814H154.258V218.956H149.992L149.644 221.93H149.698C149.908 221.757 150.172 221.615 150.491 221.506C150.81 221.392 151.145 221.335 151.496 221.335C151.961 221.335 152.389 221.419 152.781 221.588C153.178 221.757 153.522 221.996 153.813 222.306C154.105 222.611 154.331 222.971 154.49 223.386C154.654 223.8 154.736 224.254 154.736 224.746C154.736 225.398 154.588 225.979 154.292 226.489C154 227 153.599 227.403 153.089 227.699C152.578 227.991 151.995 228.137 151.339 228.137ZM159.699 228.137C159.12 228.137 158.605 228.023 158.154 227.795C157.703 227.567 157.334 227.248 157.047 226.838C156.76 226.428 156.575 225.951 156.493 225.409H157.778C157.883 225.86 158.095 226.236 158.414 226.537C158.733 226.838 159.161 226.988 159.699 226.988C160.219 226.988 160.665 226.836 161.039 226.53C161.413 226.225 161.7 225.783 161.9 225.204C162.105 224.625 162.208 223.926 162.208 223.105H162.126C161.944 223.383 161.725 223.625 161.47 223.83C161.215 224.031 160.93 224.188 160.615 224.302C160.305 224.411 159.973 224.466 159.617 224.466C159.034 224.466 158.498 224.322 158.011 224.035C157.523 223.743 157.133 223.345 156.842 222.839C156.555 222.328 156.411 221.747 156.411 221.096C156.411 220.462 156.555 219.886 156.842 219.366C157.129 218.842 157.53 218.427 158.045 218.122C158.564 217.812 159.173 217.664 159.87 217.678C160.289 217.682 160.709 217.764 161.128 217.924C161.547 218.079 161.93 218.336 162.276 218.696C162.623 219.056 162.901 219.546 163.11 220.166C163.32 220.786 163.425 221.565 163.425 222.504C163.425 223.406 163.338 224.206 163.165 224.903C162.996 225.601 162.75 226.191 162.427 226.674C162.103 227.152 161.711 227.517 161.251 227.768C160.791 228.014 160.273 228.137 159.699 228.137ZM159.809 223.331C160.118 223.331 160.408 223.27 160.677 223.146C160.946 223.023 161.18 222.857 161.381 222.647C161.581 222.433 161.739 222.192 161.853 221.923C161.966 221.649 162.023 221.362 162.023 221.062C162.023 220.67 161.928 220.305 161.736 219.968C161.549 219.626 161.292 219.35 160.964 219.141C160.64 218.926 160.269 218.819 159.85 218.819C159.439 218.819 159.07 218.922 158.742 219.127C158.419 219.327 158.161 219.601 157.97 219.947C157.778 220.289 157.683 220.67 157.683 221.089C157.683 221.504 157.774 221.882 157.956 222.224C158.143 222.561 158.396 222.83 158.715 223.03C159.034 223.231 159.398 223.331 159.809 223.331ZM168.203 228.164C167.57 228.164 167.009 228.002 166.521 227.679C166.034 227.355 165.653 226.897 165.38 226.305C165.106 225.712 164.97 225.01 164.97 224.199C164.97 223.393 165.106 222.695 165.38 222.107C165.658 221.515 166.041 221.059 166.528 220.74C167.016 220.421 167.576 220.262 168.21 220.262C168.707 220.262 169.101 220.344 169.393 220.508C169.684 220.672 169.908 220.859 170.062 221.068C170.222 221.273 170.343 221.444 170.425 221.581H170.521V217.814H171.751V228H170.562V226.817H170.425C170.343 226.959 170.22 227.136 170.056 227.351C169.896 227.56 169.668 227.749 169.372 227.918C169.08 228.082 168.691 228.164 168.203 228.164ZM168.388 227.063C168.853 227.063 169.244 226.943 169.563 226.701C169.882 226.455 170.124 226.116 170.288 225.683C170.452 225.25 170.534 224.751 170.534 224.186C170.534 223.62 170.452 223.128 170.288 222.709C170.129 222.285 169.889 221.955 169.57 221.718C169.251 221.481 168.857 221.362 168.388 221.362C167.905 221.362 167.501 221.488 167.178 221.738C166.859 221.989 166.619 222.328 166.46 222.757C166.3 223.181 166.221 223.657 166.221 224.186C166.221 224.719 166.3 225.204 166.46 225.642C166.624 226.075 166.868 226.421 167.191 226.681C167.515 226.936 167.914 227.063 168.388 227.063ZM180.706 228.164C180.077 228.164 179.519 228.002 179.031 227.679C178.548 227.355 178.168 226.897 177.89 226.305C177.616 225.712 177.479 225.01 177.479 224.199C177.479 223.393 177.618 222.695 177.896 222.107C178.174 221.515 178.557 221.059 179.045 220.74C179.537 220.421 180.1 220.262 180.733 220.262C181.226 220.262 181.618 220.344 181.909 220.508C182.201 220.667 182.424 220.852 182.579 221.062C182.734 221.271 182.853 221.444 182.935 221.581H183.037V220.357H184.261V228H183.044V226.817H182.935C182.853 226.959 182.729 227.136 182.565 227.351C182.406 227.565 182.178 227.754 181.882 227.918C181.586 228.082 181.194 228.164 180.706 228.164ZM180.911 227.063C181.376 227.063 181.768 226.943 182.087 226.701C182.406 226.455 182.647 226.116 182.812 225.683C182.976 225.25 183.058 224.751 183.058 224.186C183.058 223.62 182.976 223.128 182.812 222.709C182.652 222.285 182.413 221.955 182.094 221.718C181.775 221.481 181.381 221.362 180.911 221.362C180.428 221.362 180.025 221.488 179.701 221.738C179.378 221.984 179.134 222.322 178.97 222.75C178.81 223.174 178.73 223.652 178.73 224.186C178.73 224.719 178.812 225.204 178.977 225.642C179.141 226.075 179.384 226.421 179.708 226.681C180.032 226.936 180.433 227.063 180.911 227.063ZM189.518 231.021C188.952 231.021 188.463 230.949 188.048 230.803C187.638 230.661 187.296 230.472 187.022 230.235C186.749 229.998 186.533 229.741 186.373 229.463L187.371 228.82C187.48 228.966 187.615 229.128 187.774 229.306C187.938 229.483 188.157 229.634 188.431 229.757C188.709 229.884 189.071 229.948 189.518 229.948C190.128 229.948 190.63 229.802 191.021 229.511C191.418 229.219 191.616 228.759 191.616 228.13V226.599H191.5C191.413 226.744 191.29 226.918 191.131 227.118C190.976 227.319 190.75 227.496 190.454 227.651C190.162 227.802 189.771 227.877 189.278 227.877C188.668 227.877 188.118 227.733 187.631 227.446C187.143 227.155 186.758 226.731 186.476 226.175C186.193 225.619 186.052 224.942 186.052 224.145C186.052 223.356 186.191 222.673 186.469 222.094C186.747 221.51 187.13 221.059 187.617 220.74C188.109 220.421 188.672 220.262 189.306 220.262C189.798 220.262 190.19 220.344 190.481 220.508C190.778 220.667 191.006 220.852 191.165 221.062C191.325 221.271 191.448 221.444 191.534 221.581H191.65V220.357H192.847V228.198C192.847 228.854 192.699 229.39 192.402 229.805C192.106 230.224 191.705 230.532 191.199 230.728C190.698 230.924 190.137 231.021 189.518 231.021ZM189.483 226.783C189.948 226.783 190.34 226.678 190.659 226.469C190.978 226.255 191.22 225.949 191.384 225.553C191.548 225.152 191.63 224.673 191.63 224.117C191.63 223.575 191.548 223.099 191.384 222.688C191.224 222.274 190.985 221.95 190.666 221.718C190.347 221.481 189.953 221.362 189.483 221.362C189 221.362 188.597 221.488 188.273 221.738C187.95 221.984 187.706 222.315 187.542 222.729C187.382 223.144 187.303 223.607 187.303 224.117C187.303 224.641 187.385 225.104 187.549 225.505C187.713 225.906 187.957 226.22 188.28 226.448C188.604 226.672 189.005 226.783 189.483 226.783ZM198.117 228.164C197.424 228.164 196.816 228 196.292 227.672C195.772 227.344 195.367 226.883 195.075 226.291C194.784 225.699 194.638 225.01 194.638 224.227C194.638 223.429 194.784 222.734 195.075 222.142C195.367 221.545 195.772 221.082 196.292 220.754C196.816 220.426 197.424 220.262 198.117 220.262C198.814 220.262 199.425 220.426 199.949 220.754C200.473 221.082 200.881 221.545 201.173 222.142C201.465 222.734 201.61 223.429 201.61 224.227C201.61 225.01 201.465 225.699 201.173 226.291C200.881 226.883 200.473 227.344 199.949 227.672C199.425 228 198.814 228.164 198.117 228.164ZM198.117 227.063C198.632 227.063 199.056 226.931 199.389 226.667C199.721 226.403 199.967 226.056 200.127 225.628C200.286 225.195 200.366 224.728 200.366 224.227C200.366 223.721 200.286 223.251 200.127 222.818C199.967 222.381 199.721 222.03 199.389 221.766C199.056 221.497 198.632 221.362 198.117 221.362C197.607 221.362 197.188 221.497 196.859 221.766C196.531 222.03 196.287 222.379 196.128 222.812C195.968 223.244 195.889 223.716 195.889 224.227C195.889 224.728 195.968 225.195 196.128 225.628C196.287 226.056 196.531 226.403 196.859 226.667C197.188 226.931 197.607 227.063 198.117 227.063Z" fill="#111827"/>
<rect x="416.939" y="215" width="16" height="16" rx="8" fill="white"/>
<rect x="416.939" y="215" width="16" height="16" rx="8" stroke="#E4E4E7"/>
<rect x="37.9615" y="274.07" width="4.34127" height="4.34127" transform="rotate(-45 37.9615 274.07)" stroke="#111827" stroke-linejoin="round"/>
<rect x="37.9615" y="283.93" width="4.34127" height="4.34127" transform="rotate(-45 37.9615 283.93)" stroke="#111827" stroke-linejoin="round"/>
<rect x="42.92" y="279.024" width="4.34127" height="4.34127" transform="rotate(-45 42.92 279.024)" stroke="#111827" stroke-linejoin="round"/>
<rect x="33.0596" y="279.024" width="4.34127" height="4.34127" transform="rotate(-45 33.0596 279.024)" stroke="#111827" stroke-linejoin="round"/>
<path d="M62.1846 276.32V277.906H57.2158V276.32H62.1846ZM58.4736 274.219H60.4971V282.555C60.4971 282.867 60.5648 283.096 60.7002 283.242C60.8356 283.383 61.0596 283.453 61.3721 283.453C61.4658 283.453 61.5882 283.443 61.7393 283.422C61.8955 283.401 62.0205 283.383 62.1143 283.367L62.4033 284.938C62.1898 285 61.9658 285.042 61.7314 285.062C61.5023 285.089 61.2783 285.102 61.0596 285.102C60.2262 285.102 59.5856 284.898 59.1377 284.492C58.695 284.086 58.4736 283.5 58.4736 282.734V274.219ZM66.7393 285.117C66.1455 285.117 65.6221 284.99 65.1689 284.734C64.721 284.479 64.3721 284.107 64.1221 283.617C63.8773 283.122 63.7549 282.526 63.7549 281.828V276.32H65.7783V281.516C65.7783 282.104 65.9294 282.565 66.2314 282.898C66.5387 283.227 66.958 283.391 67.4893 283.391C67.8486 283.391 68.1663 283.312 68.4424 283.156C68.7236 283 68.9424 282.773 69.0986 282.477C69.2601 282.174 69.3408 281.81 69.3408 281.383V276.32H71.3721V285H69.4424L69.4189 282.844H69.5986C69.3538 283.604 68.9919 284.174 68.5127 284.555C68.0335 284.93 67.4424 285.117 66.7393 285.117ZM73.4893 285V276.32H75.4502V277.773H75.5361C75.6924 277.268 75.9606 276.88 76.3408 276.609C76.7262 276.339 77.1715 276.203 77.6768 276.203C77.7913 276.203 77.9163 276.208 78.0518 276.219C78.1924 276.229 78.3096 276.242 78.4033 276.258V278.117C78.3252 278.091 78.1924 278.068 78.0049 278.047C77.8174 278.026 77.6325 278.016 77.4502 278.016C77.0804 278.016 76.7471 278.096 76.4502 278.258C76.1585 278.414 75.9294 278.635 75.7627 278.922C75.596 279.203 75.5127 279.534 75.5127 279.914V285H73.4893ZM84.583 285.164C84.0986 285.164 83.6924 285.083 83.3643 284.922C83.0361 284.755 82.7679 284.555 82.5596 284.32C82.3564 284.081 82.2002 283.852 82.0908 283.633H81.9736V285H79.9893V273.359H82.0127V277.734H82.0908C82.2054 277.516 82.3617 277.289 82.5596 277.055C82.7575 276.815 83.0205 276.615 83.3486 276.453C83.6768 276.286 84.0908 276.203 84.5908 276.203C85.2679 276.203 85.8773 276.378 86.4189 276.727C86.9606 277.07 87.3903 277.576 87.708 278.242C88.0257 278.909 88.1846 279.719 88.1846 280.672C88.1846 281.62 88.0283 282.427 87.7158 283.094C87.4085 283.76 86.984 284.273 86.4424 284.633C85.9007 284.987 85.2809 285.164 84.583 285.164ZM84.0439 283.492C84.4919 283.492 84.8695 283.372 85.1768 283.133C85.484 282.888 85.7158 282.552 85.8721 282.125C86.0335 281.698 86.1143 281.211 86.1143 280.664C86.1143 280.122 86.0361 279.641 85.8799 279.219C85.7236 278.797 85.4919 278.466 85.1846 278.227C84.8773 277.987 84.4971 277.867 84.0439 277.867C83.6012 277.867 83.2236 277.984 82.9111 278.219C82.6038 278.448 82.3695 278.773 82.208 279.195C82.0465 279.612 81.9658 280.102 81.9658 280.664C81.9658 281.227 82.0465 281.721 82.208 282.148C82.3695 282.57 82.6064 282.901 82.9189 283.141C83.2314 283.375 83.6064 283.492 84.0439 283.492ZM93.6924 285.18C92.8486 285.18 92.1143 284.992 91.4893 284.617C90.8643 284.242 90.3799 283.719 90.0361 283.047C89.6976 282.375 89.5283 281.594 89.5283 280.703C89.5283 279.802 89.6976 279.016 90.0361 278.344C90.3799 277.667 90.8643 277.141 91.4893 276.766C92.1143 276.391 92.8486 276.203 93.6924 276.203C94.5361 276.203 95.2705 276.391 95.8955 276.766C96.5205 277.141 97.0023 277.667 97.3408 278.344C97.6846 279.016 97.8564 279.802 97.8564 280.703C97.8564 281.594 97.6846 282.375 97.3408 283.047C97.0023 283.719 96.5205 284.242 95.8955 284.617C95.2705 284.992 94.5361 285.18 93.6924 285.18ZM93.6924 283.531C94.1611 283.531 94.5518 283.406 94.8643 283.156C95.1768 282.901 95.4111 282.56 95.5674 282.133C95.7236 281.706 95.8018 281.227 95.8018 280.695C95.8018 280.159 95.7236 279.677 95.5674 279.25C95.4111 278.818 95.1768 278.477 94.8643 278.227C94.5518 277.977 94.1611 277.852 93.6924 277.852C93.2236 277.852 92.833 277.977 92.5205 278.227C92.2132 278.477 91.9814 278.815 91.8252 279.242C91.6689 279.669 91.5908 280.154 91.5908 280.695C91.5908 281.227 91.6689 281.706 91.8252 282.133C91.9814 282.56 92.2132 282.901 92.5205 283.156C92.833 283.406 93.2236 283.531 93.6924 283.531Z" fill="#111827"/>
<path fill-rule="evenodd" clip-rule="evenodd" d="M114.06 271.938C111.876 271.938 110.106 273.708 110.106 275.892V277.464C110.106 277.464 110.106 277.464 110.106 277.464H107.843C107.567 277.464 107.343 277.688 107.343 277.964V285.562C107.343 285.838 107.567 286.062 107.843 286.062H120.276C120.552 286.062 120.776 285.838 120.776 285.562V277.964C120.776 277.688 120.552 277.464 120.276 277.464H118.013C118.013 277.464 118.013 277.464 118.013 277.464V275.892C118.013 273.708 116.243 271.938 114.06 271.938ZM111.106 275.892C111.106 274.26 112.428 272.938 114.06 272.938C115.691 272.938 117.013 274.26 117.013 275.892V277.464H111.106V275.892ZM108.343 285.062V278.464H119.776V285.062H108.343Z" fill="#111827"/>
<path d="M133.476 284.137C133.052 284.137 132.628 284.059 132.204 283.904C131.78 283.749 131.393 283.49 131.042 283.125C130.696 282.76 130.418 282.266 130.208 281.642C129.998 281.017 129.894 280.236 129.894 279.297C129.894 278.399 129.978 277.604 130.146 276.911C130.32 276.214 130.568 275.626 130.892 275.147C131.22 274.664 131.614 274.3 132.074 274.054C132.535 273.803 133.054 273.678 133.633 273.678C134.202 273.678 134.713 273.792 135.164 274.02C135.615 274.247 135.984 274.564 136.271 274.97C136.559 275.375 136.743 275.845 136.825 276.378H135.554C135.44 275.936 135.223 275.567 134.904 275.271C134.585 274.974 134.161 274.826 133.633 274.826C133.113 274.826 132.664 274.979 132.286 275.284C131.912 275.59 131.625 276.032 131.425 276.61C131.224 277.185 131.124 277.88 131.124 278.695H131.206C131.388 278.413 131.607 278.171 131.862 277.971C132.118 277.766 132.402 277.611 132.717 277.506C133.031 277.396 133.364 277.342 133.715 277.342C134.298 277.342 134.831 277.485 135.314 277.772C135.798 278.06 136.183 278.458 136.47 278.969C136.761 279.475 136.907 280.056 136.907 280.712C136.907 281.345 136.766 281.922 136.483 282.441C136.201 282.956 135.802 283.369 135.287 283.679C134.772 283.984 134.168 284.137 133.476 284.137ZM133.476 282.995C133.886 282.995 134.255 282.893 134.583 282.688C134.911 282.482 135.171 282.209 135.362 281.867C135.554 281.521 135.649 281.136 135.649 280.712C135.649 280.297 135.556 279.921 135.369 279.584C135.187 279.242 134.934 278.971 134.61 278.771C134.287 278.57 133.92 278.47 133.51 278.47C133.2 278.47 132.91 278.531 132.642 278.654C132.377 278.773 132.145 278.939 131.944 279.153C131.744 279.363 131.587 279.604 131.473 279.878C131.363 280.147 131.309 280.429 131.309 280.726C131.309 281.127 131.402 281.5 131.589 281.847C131.776 282.188 132.033 282.466 132.361 282.681C132.689 282.89 133.061 282.995 133.476 282.995ZM142.205 273.814V284H140.927V275.018H140.858L138.397 276.843V275.448L140.612 273.814H142.205ZM147.387 284.164C146.753 284.164 146.193 284.002 145.705 283.679C145.217 283.355 144.837 282.897 144.563 282.305C144.29 281.712 144.153 281.01 144.153 280.199C144.153 279.393 144.29 278.695 144.563 278.107C144.841 277.515 145.224 277.059 145.712 276.74C146.2 276.421 146.76 276.262 147.394 276.262C147.89 276.262 148.285 276.344 148.576 276.508C148.868 276.672 149.091 276.859 149.246 277.068C149.406 277.273 149.526 277.444 149.608 277.581H149.704V273.814H150.935V284H149.745V282.817H149.608C149.526 282.959 149.403 283.136 149.239 283.351C149.08 283.56 148.852 283.749 148.556 283.918C148.264 284.082 147.874 284.164 147.387 284.164ZM147.571 283.063C148.036 283.063 148.428 282.943 148.747 282.701C149.066 282.455 149.308 282.116 149.472 281.683C149.636 281.25 149.718 280.751 149.718 280.186C149.718 279.62 149.636 279.128 149.472 278.709C149.312 278.285 149.073 277.955 148.754 277.718C148.435 277.481 148.041 277.362 147.571 277.362C147.088 277.362 146.685 277.488 146.361 277.738C146.042 277.989 145.803 278.328 145.644 278.757C145.484 279.181 145.404 279.657 145.404 280.186C145.404 280.719 145.484 281.204 145.644 281.642C145.808 282.075 146.051 282.421 146.375 282.681C146.699 282.936 147.097 283.063 147.571 283.063ZM159.89 284.164C159.261 284.164 158.702 284.002 158.215 283.679C157.732 283.355 157.351 282.897 157.073 282.305C156.8 281.712 156.663 281.01 156.663 280.199C156.663 279.393 156.802 278.695 157.08 278.107C157.358 277.515 157.741 277.059 158.229 276.74C158.721 276.421 159.284 276.262 159.917 276.262C160.409 276.262 160.801 276.344 161.093 276.508C161.384 276.667 161.608 276.852 161.763 277.062C161.918 277.271 162.036 277.444 162.118 277.581H162.221V276.357H163.444V284H162.228V282.817H162.118C162.036 282.959 161.913 283.136 161.749 283.351C161.59 283.565 161.362 283.754 161.065 283.918C160.769 284.082 160.377 284.164 159.89 284.164ZM160.095 283.063C160.56 283.063 160.951 282.943 161.271 282.701C161.59 282.455 161.831 282.116 161.995 281.683C162.159 281.25 162.241 280.751 162.241 280.186C162.241 279.62 162.159 279.128 161.995 278.709C161.836 278.285 161.596 277.955 161.277 277.718C160.958 277.481 160.564 277.362 160.095 277.362C159.612 277.362 159.208 277.488 158.885 277.738C158.561 277.984 158.317 278.322 158.153 278.75C157.994 279.174 157.914 279.652 157.914 280.186C157.914 280.719 157.996 281.204 158.16 281.642C158.324 282.075 158.568 282.421 158.892 282.681C159.215 282.936 159.616 283.063 160.095 283.063ZM168.701 287.021C168.136 287.021 167.646 286.949 167.231 286.803C166.821 286.661 166.479 286.472 166.206 286.235C165.933 285.998 165.716 285.741 165.557 285.463L166.555 284.82C166.664 284.966 166.799 285.128 166.958 285.306C167.122 285.483 167.341 285.634 167.614 285.757C167.892 285.884 168.255 285.948 168.701 285.948C169.312 285.948 169.813 285.802 170.205 285.511C170.602 285.219 170.8 284.759 170.8 284.13V282.599H170.684C170.597 282.744 170.474 282.918 170.314 283.118C170.16 283.319 169.934 283.496 169.638 283.651C169.346 283.802 168.954 283.877 168.462 283.877C167.851 283.877 167.302 283.733 166.814 283.446C166.327 283.155 165.942 282.731 165.659 282.175C165.377 281.619 165.235 280.942 165.235 280.145C165.235 279.356 165.374 278.673 165.652 278.094C165.93 277.51 166.313 277.059 166.801 276.74C167.293 276.421 167.856 276.262 168.489 276.262C168.981 276.262 169.373 276.344 169.665 276.508C169.961 276.667 170.189 276.852 170.349 277.062C170.508 277.271 170.631 277.444 170.718 277.581H170.834V276.357H172.03V284.198C172.03 284.854 171.882 285.39 171.586 285.805C171.29 286.224 170.889 286.532 170.383 286.728C169.882 286.924 169.321 287.021 168.701 287.021ZM168.667 282.783C169.132 282.783 169.524 282.678 169.843 282.469C170.162 282.255 170.403 281.949 170.567 281.553C170.731 281.152 170.813 280.673 170.813 280.117C170.813 279.575 170.731 279.099 170.567 278.688C170.408 278.274 170.169 277.95 169.85 277.718C169.531 277.481 169.136 277.362 168.667 277.362C168.184 277.362 167.781 277.488 167.457 277.738C167.133 277.984 166.89 278.315 166.726 278.729C166.566 279.144 166.486 279.607 166.486 280.117C166.486 280.641 166.568 281.104 166.732 281.505C166.896 281.906 167.14 282.22 167.464 282.448C167.787 282.672 168.188 282.783 168.667 282.783ZM177.301 284.164C176.608 284.164 176 284 175.476 283.672C174.956 283.344 174.55 282.883 174.259 282.291C173.967 281.699 173.821 281.01 173.821 280.227C173.821 279.429 173.967 278.734 174.259 278.142C174.55 277.545 174.956 277.082 175.476 276.754C176 276.426 176.608 276.262 177.301 276.262C177.998 276.262 178.609 276.426 179.133 276.754C179.657 277.082 180.065 277.545 180.356 278.142C180.648 278.734 180.794 279.429 180.794 280.227C180.794 281.01 180.648 281.699 180.356 282.291C180.065 282.883 179.657 283.344 179.133 283.672C178.609 284 177.998 284.164 177.301 284.164ZM177.301 283.063C177.816 283.063 178.24 282.931 178.572 282.667C178.905 282.403 179.151 282.056 179.311 281.628C179.47 281.195 179.55 280.728 179.55 280.227C179.55 279.721 179.47 279.251 179.311 278.818C179.151 278.381 178.905 278.03 178.572 277.766C178.24 277.497 177.816 277.362 177.301 277.362C176.79 277.362 176.371 277.497 176.043 277.766C175.715 278.03 175.471 278.379 175.312 278.812C175.152 279.244 175.072 279.716 175.072 280.227C175.072 280.728 175.152 281.195 175.312 281.628C175.471 282.056 175.715 282.403 176.043 282.667C176.371 282.931 176.79 283.063 177.301 283.063Z" fill="#111827"/>
<rect x="416.939" y="271" width="16" height="16" rx="8" fill="white"/>
<rect x="416.939" y="271" width="16" height="16" rx="8" stroke="#E4E4E7"/>
</g>
<rect x="17.0596" y="15" width="431.88" height="296.816" rx="4" stroke="#E4E4E7"/>
</g>
<defs>
<filter id="filter0_dd_3945_102621" x="0.55957" y="0.5" width="464.88" height="329.816" filterUnits="userSpaceOnUse" color-interpolation-filters="sRGB">
<feFlood flood-opacity="0" result="BackgroundImageFix"/>
<feColorMatrix in="SourceAlpha" type="matrix" values="0 0 0 0 0 0 0 0 0 0 0 0 0 0 0 0 0 0 127 0" result="hardAlpha"/>
<feOffset dy="2"/>
<feGaussianBlur stdDeviation="8"/>
<feColorMatrix type="matrix" values="0 0 0 0 0.129412 0 0 0 0 0.168627 0 0 0 0 0.211765 0 0 0 0.08 0"/>
<feBlend mode="normal" in2="BackgroundImageFix" result="effect1_dropShadow_3945_102621"/>
<feColorMatrix in="SourceAlpha" type="matrix" values="0 0 0 0 0 0 0 0 0 0 0 0 0 0 0 0 0 0 127 0" result="hardAlpha"/>
<feMorphology radius="1" operator="dilate" in="SourceAlpha" result="effect2_dropShadow_3945_102621"/>
<feOffset/>
<feColorMatrix type="matrix" values="0 0 0 0 0.0235294 0 0 0 0 0.172549 0 0 0 0 0.321569 0 0 0 0.1 0"/>
<feBlend mode="normal" in2="effect1_dropShadow_3945_102621" result="effect2_dropShadow_3945_102621"/>
<feBlend mode="normal" in="SourceGraphic" in2="effect2_dropShadow_3945_102621" result="shape"/>
</filter>
<clipPath id="clip0_3945_102621">
<rect x="17.0596" y="15" width="431.88" height="296.816" rx="4" fill="white"/>
</clipPath>
<clipPath id="clip1_3945_102621">
<rect x="243" y="31" width="189.94" height="36" rx="4" fill="white"/>
</clipPath>
</defs>
</svg>
