<svg width="548" height="306" viewBox="0 0 548 306" fill="none" xmlns="http://www.w3.org/2000/svg">
<g filter="url(#filter0_dd_2618_8365)">
<g clip-path="url(#clip0_2618_8365)">
<rect x="17" y="14.918" width="514" height="340" rx="4" fill="white"/>
<rect x="33" y="30.918" width="231" height="36" rx="4" fill="white"/>
<rect x="33" y="30.918" width="231" height="36" rx="4" stroke="#E4E4E7"/>
<path fill-rule="evenodd" clip-rule="evenodd" d="M54.9453 56.7989C58.4235 55.93 61 52.7845 61 49.0371C61 44.6188 57.4183 41.0371 53 41.0371C48.5817 41.0371 45 44.6188 45 49.0371C45 52.7841 47.5761 55.9295 51.0538 56.7987C51.0267 56.668 51.0125 56.5325 51.0125 56.3937V54.6694C50.4123 54.8465 49.0786 54.9424 48.4507 53.9293C48.3264 53.5998 47.9681 52.8729 47.53 52.6015C46.9824 52.2623 47.1639 52.1569 47.2452 52.1103C47.458 52.0543 47.9922 52.0559 48.4265 52.5094C48.5089 52.5999 48.6921 52.8128 48.7657 52.9407L48.7716 52.9509C48.8802 53.1412 49.4649 54.1649 51.024 53.5707L51.0809 53.5535C51.1782 53.1928 51.3745 52.8727 51.6389 52.6242C51.2479 52.5675 50.8795 52.4872 50.5417 52.387C49.0249 52.008 47.9138 50.6515 47.9139 48.7859C47.914 47.7778 48.2298 46.992 48.7458 46.3794C48.4267 45.6439 48.6733 44.7085 48.8388 44.3286C49.5662 44.2337 50.5862 44.8488 50.9595 45.1045C51.5668 44.9597 52.2669 44.8843 53.0444 44.8843C53.7741 44.8843 54.4645 44.9607 55.0721 45.0997C55.4796 44.8307 56.4475 44.2342 57.1763 44.3362C57.3419 44.6931 57.5911 45.5816 57.3 46.3428C57.8327 46.9951 58.1557 47.85 58.1557 48.7859C58.1557 50.2755 57.3316 51.5884 56.153 52.1463C55.6507 52.3648 55.0409 52.5315 54.364 52.6277C54.7474 52.99 54.9867 53.5032 54.9867 54.0723V56.3937C54.9867 56.5326 54.9724 56.6681 54.9453 56.7989Z" fill="#111827"/>
<path d="M71.1191 51.0059V49.6182C71.3516 49.2992 71.5817 48.9938 71.8096 48.7021C72.042 48.4105 72.279 48.1257 72.5205 47.8477C72.762 47.5697 73.0104 47.2939 73.2656 47.0205L76.3076 43.7324H78.0098L73.6621 48.3945L73.5938 48.3877L71.1191 51.0059ZM70.2305 53.918V43.7324H71.5293V47.2188L71.5088 49.4131L71.5293 50.0488V53.918H70.2305ZM76.4785 53.918L72.7939 48.7363L73.6006 47.7246L78.0166 53.918H76.4785ZM80.7168 43.7324V53.918H79.4863V43.7324H80.7168ZM85.9873 54.082C85.2946 54.082 84.6862 53.918 84.1621 53.5898C83.6426 53.2617 83.237 52.8014 82.9453 52.209C82.6536 51.6165 82.5078 50.9284 82.5078 50.1445C82.5078 49.347 82.6536 48.652 82.9453 48.0596C83.237 47.4626 83.6426 47 84.1621 46.6719C84.6862 46.3438 85.2946 46.1797 85.9873 46.1797C86.6846 46.1797 87.2952 46.3438 87.8193 46.6719C88.3434 47 88.7513 47.4626 89.043 48.0596C89.3346 48.652 89.4805 49.347 89.4805 50.1445C89.4805 50.9284 89.3346 51.6165 89.043 52.209C88.7513 52.8014 88.3434 53.2617 87.8193 53.5898C87.2952 53.918 86.6846 54.082 85.9873 54.082ZM85.9873 52.9814C86.5023 52.9814 86.9261 52.8493 87.2588 52.585C87.5915 52.3206 87.8376 51.9743 87.9971 51.5459C88.1566 51.113 88.2363 50.6458 88.2363 50.1445C88.2363 49.6387 88.1566 49.1693 87.9971 48.7363C87.8376 48.2988 87.5915 47.9479 87.2588 47.6836C86.9261 47.4147 86.5023 47.2803 85.9873 47.2803C85.4769 47.2803 85.0576 47.4147 84.7295 47.6836C84.4014 47.9479 84.1576 48.2965 83.998 48.7295C83.8385 49.1624 83.7588 49.6341 83.7588 50.1445C83.7588 50.6458 83.8385 51.113 83.998 51.5459C84.1576 51.9743 84.4014 52.3206 84.7295 52.585C85.0576 52.8493 85.4769 52.9814 85.9873 52.9814ZM93.8623 54.0137C93.3473 54.0137 92.8939 53.9089 92.502 53.6992C92.1146 53.485 91.8115 53.1637 91.5928 52.7354C91.3786 52.307 91.2715 51.7715 91.2715 51.1289V46.2754H92.502V51.0264C92.502 51.6143 92.6569 52.0745 92.9668 52.4072C93.2767 52.7399 93.6982 52.9062 94.2314 52.9062C94.596 52.9062 94.9219 52.8265 95.209 52.667C95.5007 52.5075 95.7308 52.2751 95.8994 51.9697C96.068 51.6598 96.1523 51.2884 96.1523 50.8555V46.2754H97.3896V53.918H96.2002V52.0654H96.3643C96.1273 52.7809 95.79 53.2845 95.3525 53.5762C94.9196 53.8678 94.4229 54.0137 93.8623 54.0137ZM102.421 54.082C101.787 54.082 101.227 53.9202 100.739 53.5967C100.252 53.2731 99.8711 52.8151 99.5977 52.2227C99.3242 51.6302 99.1875 50.9284 99.1875 50.1172C99.1875 49.3105 99.3242 48.6133 99.5977 48.0254C99.8757 47.4329 100.258 46.9772 100.746 46.6582C101.234 46.3392 101.794 46.1797 102.428 46.1797C102.924 46.1797 103.319 46.2617 103.61 46.4258C103.902 46.5898 104.125 46.7767 104.28 46.9863C104.44 47.1914 104.561 47.3623 104.643 47.499H104.738V43.7324H105.969V53.918H104.779V52.7354H104.643C104.561 52.8766 104.438 53.0544 104.273 53.2686C104.114 53.4782 103.886 53.6673 103.59 53.8359C103.298 54 102.909 54.082 102.421 54.082ZM102.605 52.9814C103.07 52.9814 103.462 52.8607 103.781 52.6191C104.1 52.373 104.342 52.0335 104.506 51.6006C104.67 51.1676 104.752 50.6686 104.752 50.1035C104.752 49.5384 104.67 49.0462 104.506 48.627C104.346 48.2031 104.107 47.8727 103.788 47.6357C103.469 47.3988 103.075 47.2803 102.605 47.2803C102.122 47.2803 101.719 47.4056 101.396 47.6562C101.076 47.9069 100.837 48.2464 100.678 48.6748C100.518 49.0986 100.438 49.5749 100.438 50.1035C100.438 50.6367 100.518 51.1221 100.678 51.5596C100.842 51.9925 101.086 52.3389 101.409 52.5986C101.733 52.8538 102.132 52.9814 102.605 52.9814ZM109.359 43.7324V53.918H108.129V43.7324H109.359ZM111.52 53.918V46.2754H112.75V53.918H111.52ZM112.142 45.0244C111.909 45.0244 111.709 44.9447 111.54 44.7852C111.371 44.6257 111.287 44.4342 111.287 44.2109C111.287 43.9831 111.371 43.7917 111.54 43.6367C111.709 43.4772 111.909 43.3975 112.142 43.3975C112.379 43.3975 112.581 43.4772 112.75 43.6367C112.919 43.7917 113.003 43.9831 113.003 44.2109C113.003 44.4342 112.919 44.6257 112.75 44.7852C112.581 44.9447 112.379 45.0244 112.142 45.0244ZM117.918 46.2754V47.3281H113.967V46.2754H117.918ZM115.115 44.457H116.346V51.9355C116.346 52.2773 116.414 52.528 116.551 52.6875C116.692 52.8424 116.924 52.9199 117.248 52.9199C117.326 52.9199 117.424 52.9108 117.542 52.8926C117.665 52.8743 117.777 52.8561 117.877 52.8379L118.13 53.877C118.002 53.9225 117.856 53.9567 117.692 53.9795C117.533 54.0023 117.373 54.0137 117.214 54.0137C116.553 54.0137 116.038 53.8405 115.669 53.4941C115.3 53.1432 115.115 52.6556 115.115 52.0312V44.457ZM122.566 54.082C121.828 54.082 121.19 53.918 120.652 53.5898C120.119 53.2617 119.707 52.8037 119.415 52.2158C119.128 51.6279 118.984 50.9421 118.984 50.1582C118.984 49.3743 119.126 48.6839 119.408 48.0869C119.691 47.4899 120.09 47.0228 120.604 46.6855C121.124 46.3483 121.73 46.1797 122.423 46.1797C122.828 46.1797 123.227 46.248 123.619 46.3848C124.016 46.5169 124.373 46.7334 124.692 47.0342C125.016 47.3304 125.273 47.7223 125.465 48.21C125.656 48.6976 125.752 49.2946 125.752 50.001V50.5137H119.818V49.4746H125.089L124.515 49.8574C124.515 49.3561 124.435 48.9118 124.275 48.5244C124.12 48.1325 123.888 47.8271 123.578 47.6084C123.268 47.3851 122.883 47.2734 122.423 47.2734C121.963 47.2734 121.568 47.3874 121.24 47.6152C120.912 47.8385 120.661 48.1325 120.488 48.4971C120.315 48.8571 120.229 49.2445 120.229 49.6592V50.3496C120.229 50.9147 120.326 51.3955 120.522 51.792C120.718 52.1839 120.992 52.4824 121.343 52.6875C121.698 52.888 122.108 52.9883 122.573 52.9883C122.874 52.9883 123.147 52.945 123.394 52.8584C123.64 52.7718 123.852 52.6419 124.029 52.4688C124.207 52.291 124.344 52.0723 124.439 51.8125L125.629 52.1406C125.51 52.5234 125.31 52.8607 125.027 53.1523C124.745 53.444 124.394 53.6719 123.975 53.8359C123.56 54 123.09 54.082 122.566 54.082Z" fill="#111827"/>
<path d="M243.646 51.5644L238.854 46.7715C238.539 46.4565 238.762 45.918 239.207 45.918H248.793C249.238 45.918 249.461 46.4565 249.146 46.7715L244.354 51.5644C244.158 51.7597 243.842 51.7597 243.646 51.5644Z" fill="#111827"/>
<g clip-path="url(#clip1_2618_8365)">
<rect x="284" y="30.918" width="231" height="36" rx="4" fill="white"/>
<path d="M301.146 54.7093C304.816 54.7093 307.792 51.7339 307.792 48.0636C307.792 44.3933 304.816 41.418 301.146 41.418C297.475 41.418 294.5 44.3933 294.5 48.0636C294.5 51.7339 297.475 54.7093 301.146 54.7093Z" stroke="#111827" stroke-linecap="round" stroke-linejoin="round"/>
<path d="M305.845 52.763L309.5 56.4179" stroke="#111827" stroke-linecap="round" stroke-linejoin="round"/>
<path d="M328.491 54.0957C327.757 54.0957 327.119 53.9772 326.577 53.7402C326.039 53.5033 325.618 53.1729 325.312 52.749C325.007 52.3206 324.834 51.8216 324.793 51.252H326.126C326.162 51.6348 326.292 51.9515 326.516 52.2021C326.739 52.4482 327.024 52.6328 327.37 52.7559C327.721 52.8743 328.095 52.9336 328.491 52.9336C328.951 52.9336 329.364 52.8584 329.729 52.708C330.098 52.5576 330.389 52.3457 330.604 52.0723C330.818 51.7988 330.925 51.4821 330.925 51.1221C330.925 50.7939 330.831 50.5273 330.645 50.3223C330.462 50.1172 330.218 49.9486 329.913 49.8164C329.608 49.6842 329.273 49.568 328.908 49.4678L327.678 49.1191C326.857 48.8867 326.219 48.554 325.764 48.1211C325.308 47.6882 325.08 47.1344 325.08 46.46C325.08 45.8857 325.235 45.3844 325.545 44.9561C325.855 44.5231 326.274 44.1882 326.803 43.9512C327.331 43.7142 327.924 43.5957 328.58 43.5957C329.25 43.5957 329.842 43.7142 330.357 43.9512C330.872 44.1882 331.278 44.5117 331.574 44.9219C331.875 45.3275 332.035 45.7878 332.053 46.3027H330.781C330.722 45.806 330.485 45.4232 330.07 45.1543C329.656 44.8809 329.145 44.7441 328.539 44.7441C328.102 44.7441 327.716 44.8171 327.384 44.9629C327.056 45.1042 326.8 45.3001 326.618 45.5508C326.436 45.7969 326.345 46.0794 326.345 46.3984C326.345 46.7539 326.454 47.041 326.673 47.2598C326.896 47.474 327.158 47.6426 327.459 47.7656C327.764 47.8841 328.04 47.9775 328.286 48.0459L329.305 48.3262C329.578 48.3991 329.879 48.4993 330.207 48.627C330.54 48.7546 330.856 48.9255 331.157 49.1396C331.458 49.3493 331.704 49.6182 331.896 49.9463C332.091 50.2699 332.189 50.6686 332.189 51.1426C332.189 51.6986 332.044 52.1999 331.752 52.6465C331.465 53.0931 331.046 53.4463 330.494 53.7061C329.943 53.9658 329.275 54.0957 328.491 54.0957ZM337.275 54.082C336.537 54.082 335.899 53.918 335.361 53.5898C334.828 53.2617 334.416 52.8037 334.124 52.2158C333.837 51.6279 333.693 50.9421 333.693 50.1582C333.693 49.3743 333.835 48.6839 334.117 48.0869C334.4 47.4899 334.799 47.0228 335.313 46.6855C335.833 46.3483 336.439 46.1797 337.132 46.1797C337.537 46.1797 337.936 46.248 338.328 46.3848C338.725 46.5169 339.082 46.7334 339.401 47.0342C339.725 47.3304 339.982 47.7223 340.174 48.21C340.365 48.6976 340.461 49.2946 340.461 50.001V50.5137H334.527V49.4746H339.798L339.224 49.8574C339.224 49.3561 339.144 48.9118 338.984 48.5244C338.829 48.1325 338.597 47.8271 338.287 47.6084C337.977 47.3851 337.592 47.2734 337.132 47.2734C336.672 47.2734 336.277 47.3874 335.949 47.6152C335.621 47.8385 335.37 48.1325 335.197 48.4971C335.024 48.8571 334.938 49.2445 334.938 49.6592V50.3496C334.938 50.9147 335.035 51.3955 335.231 51.792C335.427 52.1839 335.701 52.4824 336.052 52.6875C336.407 52.888 336.817 52.9883 337.282 52.9883C337.583 52.9883 337.856 52.945 338.103 52.8584C338.349 52.7718 338.561 52.6419 338.738 52.4688C338.916 52.291 339.053 52.0723 339.148 51.8125L340.338 52.1406C340.219 52.5234 340.019 52.8607 339.736 53.1523C339.454 53.444 339.103 53.6719 338.684 53.8359C338.269 54 337.799 54.082 337.275 54.082ZM345.082 54.082C344.453 54.082 343.895 53.9202 343.407 53.5967C342.924 53.2731 342.544 52.8151 342.266 52.2227C341.992 51.6302 341.855 50.9284 341.855 50.1172C341.855 49.3105 341.994 48.6133 342.272 48.0254C342.55 47.4329 342.933 46.9772 343.421 46.6582C343.913 46.3392 344.476 46.1797 345.109 46.1797C345.602 46.1797 345.993 46.2617 346.285 46.4258C346.577 46.5853 346.8 46.7699 346.955 46.9795C347.11 47.1891 347.229 47.3623 347.311 47.499H347.413V46.2754H348.637V53.918H347.42V52.7354H347.311C347.229 52.8766 347.105 53.0544 346.941 53.2686C346.782 53.4827 346.554 53.6719 346.258 53.8359C345.962 54 345.57 54.082 345.082 54.082ZM345.287 52.9814C345.752 52.9814 346.144 52.8607 346.463 52.6191C346.782 52.373 347.023 52.0335 347.188 51.6006C347.352 51.1676 347.434 50.6686 347.434 50.1035C347.434 49.5384 347.352 49.0462 347.188 48.627C347.028 48.2031 346.789 47.8727 346.47 47.6357C346.151 47.3988 345.757 47.2803 345.287 47.2803C344.804 47.2803 344.401 47.4056 344.077 47.6562C343.754 47.9023 343.51 48.2396 343.346 48.668C343.186 49.0918 343.106 49.5703 343.106 50.1035C343.106 50.6367 343.188 51.1221 343.353 51.5596C343.517 51.9925 343.76 52.3389 344.084 52.5986C344.408 52.8538 344.809 52.9814 345.287 52.9814ZM350.797 53.918V46.2754H351.986V47.4512H352.068C352.21 47.0638 352.46 46.7539 352.82 46.5215C353.185 46.2845 353.595 46.166 354.051 46.166C354.142 46.166 354.249 46.1683 354.372 46.1729C354.5 46.1774 354.6 46.182 354.673 46.1865V47.4238C354.636 47.4147 354.545 47.401 354.399 47.3828C354.254 47.3646 354.099 47.3555 353.935 47.3555C353.57 47.3555 353.242 47.4329 352.95 47.5879C352.663 47.7383 352.438 47.9479 352.273 48.2168C352.109 48.4811 352.027 48.7865 352.027 49.1328V53.918H350.797ZM358.952 54.082C358.259 54.082 357.651 53.918 357.127 53.5898C356.607 53.2617 356.202 52.8014 355.91 52.209C355.618 51.6165 355.473 50.9284 355.473 50.1445C355.473 49.347 355.618 48.652 355.91 48.0596C356.202 47.4626 356.607 47 357.127 46.6719C357.651 46.3438 358.259 46.1797 358.952 46.1797C359.321 46.1797 359.67 46.2275 359.998 46.3232C360.326 46.4189 360.625 46.5579 360.894 46.7402C361.167 46.918 361.402 47.139 361.598 47.4033C361.794 47.6631 361.944 47.9593 362.049 48.292L360.866 48.627C360.812 48.431 360.727 48.251 360.613 48.0869C360.499 47.9229 360.36 47.7816 360.196 47.6631C360.037 47.54 359.852 47.4466 359.643 47.3828C359.433 47.3145 359.203 47.2803 358.952 47.2803C358.442 47.2803 358.022 47.4147 357.694 47.6836C357.366 47.9479 357.122 48.2965 356.963 48.7295C356.803 49.1624 356.724 49.6341 356.724 50.1445C356.724 50.6458 356.803 51.113 356.963 51.5459C357.122 51.9743 357.366 52.3206 357.694 52.585C358.022 52.8493 358.442 52.9814 358.952 52.9814C359.207 52.9814 359.442 52.9473 359.656 52.8789C359.87 52.8105 360.06 52.7148 360.224 52.5918C360.392 52.4642 360.534 52.3138 360.647 52.1406C360.761 51.9674 360.846 51.7783 360.9 51.5732L362.076 51.9082C361.976 52.25 361.826 52.5553 361.625 52.8242C361.429 53.0885 361.194 53.3164 360.921 53.5078C360.647 53.6947 360.344 53.8359 360.012 53.9316C359.679 54.0319 359.326 54.082 358.952 54.082ZM365.07 49.3379V53.918H363.84V43.7324H365.07V48.1279H364.858C365.091 47.4215 365.421 46.9202 365.85 46.624C366.283 46.3278 366.788 46.1797 367.367 46.1797C367.882 46.1797 368.333 46.2868 368.721 46.501C369.113 46.7106 369.416 47.0296 369.63 47.458C369.849 47.8818 369.958 48.4173 369.958 49.0645V53.918H368.721V49.167C368.721 48.5791 368.566 48.1188 368.256 47.7861C367.951 47.4535 367.531 47.2871 366.998 47.2871C366.633 47.2871 366.305 47.3669 366.014 47.5264C365.722 47.6859 365.492 47.9183 365.323 48.2236C365.155 48.529 365.07 48.9004 365.07 49.3379Z" fill="#9CA3AF"/>
</g>
<rect x="284" y="30.918" width="231" height="36" rx="4" stroke="#E4E4E7"/>
<rect x="37.9019" y="105.988" width="4.34127" height="4.34127" transform="rotate(-45 37.9019 105.988)" stroke="#111827" stroke-linejoin="round"/>
<rect x="37.9019" y="115.848" width="4.34127" height="4.34127" transform="rotate(-45 37.9019 115.848)" stroke="#111827" stroke-linejoin="round"/>
<rect x="42.8606" y="110.942" width="4.34127" height="4.34127" transform="rotate(-45 42.8606 110.942)" stroke="#111827" stroke-linejoin="round"/>
<rect x="33" y="110.942" width="4.34127" height="4.34127" transform="rotate(-45 33 110.942)" stroke="#111827" stroke-linejoin="round"/>
<path d="M62.6484 117.082C62.1641 117.082 61.7578 117.001 61.4297 116.84C61.1016 116.673 60.8333 116.473 60.625 116.238C60.4219 115.999 60.2656 115.77 60.1562 115.551H60.0391V116.918H58.0547V105.277H60.0781V109.652H60.1562C60.2708 109.434 60.4271 109.207 60.625 108.973C60.8229 108.733 61.0859 108.533 61.4141 108.371C61.7422 108.204 62.1562 108.121 62.6562 108.121C63.3333 108.121 63.9427 108.296 64.4844 108.645C65.026 108.988 65.4557 109.493 65.7734 110.16C66.0911 110.827 66.25 111.637 66.25 112.59C66.25 113.538 66.0938 114.345 65.7812 115.012C65.474 115.678 65.0495 116.191 64.5078 116.551C63.9661 116.905 63.3464 117.082 62.6484 117.082ZM62.1094 115.41C62.5573 115.41 62.9349 115.29 63.2422 115.051C63.5495 114.806 63.7812 114.47 63.9375 114.043C64.099 113.616 64.1797 113.129 64.1797 112.582C64.1797 112.04 64.1016 111.559 63.9453 111.137C63.7891 110.715 63.5573 110.384 63.25 110.145C62.9427 109.905 62.5625 109.785 62.1094 109.785C61.6667 109.785 61.2891 109.902 60.9766 110.137C60.6693 110.366 60.4349 110.691 60.2734 111.113C60.112 111.53 60.0312 112.02 60.0312 112.582C60.0312 113.145 60.112 113.639 60.2734 114.066C60.4349 114.488 60.6719 114.819 60.9844 115.059C61.2969 115.293 61.6719 115.41 62.1094 115.41ZM70 105.277V116.918H67.9766V105.277H70ZM75.8984 117.098C75.0547 117.098 74.3203 116.91 73.6953 116.535C73.0703 116.16 72.5859 115.637 72.2422 114.965C71.9036 114.293 71.7344 113.512 71.7344 112.621C71.7344 111.72 71.9036 110.934 72.2422 110.262C72.5859 109.585 73.0703 109.059 73.6953 108.684C74.3203 108.309 75.0547 108.121 75.8984 108.121C76.7422 108.121 77.4766 108.309 78.1016 108.684C78.7266 109.059 79.2083 109.585 79.5469 110.262C79.8906 110.934 80.0625 111.72 80.0625 112.621C80.0625 113.512 79.8906 114.293 79.5469 114.965C79.2083 115.637 78.7266 116.16 78.1016 116.535C77.4766 116.91 76.7422 117.098 75.8984 117.098ZM75.8984 115.449C76.3672 115.449 76.7578 115.324 77.0703 115.074C77.3828 114.819 77.6172 114.478 77.7734 114.051C77.9297 113.624 78.0078 113.145 78.0078 112.613C78.0078 112.077 77.9297 111.595 77.7734 111.168C77.6172 110.736 77.3828 110.395 77.0703 110.145C76.7578 109.895 76.3672 109.77 75.8984 109.77C75.4297 109.77 75.0391 109.895 74.7266 110.145C74.4193 110.395 74.1875 110.733 74.0312 111.16C73.875 111.587 73.7969 112.072 73.7969 112.613C73.7969 113.145 73.875 113.624 74.0312 114.051C74.1875 114.478 74.4193 114.819 74.7266 115.074C75.0391 115.324 75.4297 115.449 75.8984 115.449ZM85.5547 120.363C84.8516 120.363 84.2396 120.272 83.7188 120.09C83.2031 119.908 82.7812 119.658 82.4531 119.34C82.125 119.027 81.8906 118.673 81.75 118.277L83.5 117.723C83.5833 117.895 83.7057 118.064 83.8672 118.23C84.0339 118.402 84.2526 118.543 84.5234 118.652C84.7995 118.767 85.1406 118.824 85.5469 118.824C86.1771 118.824 86.6797 118.673 87.0547 118.371C87.4297 118.074 87.6172 117.613 87.6172 116.988V115.379H87.4609C87.3516 115.603 87.1979 115.824 87 116.043C86.8021 116.262 86.5417 116.444 86.2188 116.59C85.8958 116.736 85.4896 116.809 85 116.809C84.3281 116.809 83.7188 116.65 83.1719 116.332C82.6302 116.009 82.2005 115.533 81.8828 114.902C81.5651 114.267 81.4062 113.483 81.4062 112.551C81.4062 111.608 81.5651 110.809 81.8828 110.152C82.2057 109.491 82.638 108.988 83.1797 108.645C83.7266 108.296 84.3385 108.121 85.0156 108.121C85.5104 108.121 85.9219 108.204 86.25 108.371C86.5833 108.533 86.8516 108.733 87.0547 108.973C87.263 109.212 87.4219 109.441 87.5312 109.66H87.6328V108.238H89.6172V116.918C89.6172 117.699 89.4401 118.345 89.0859 118.855C88.737 119.366 88.2552 119.743 87.6406 119.988C87.0312 120.238 86.3359 120.363 85.5547 120.363ZM85.5547 115.199C85.9974 115.199 86.3724 115.095 86.6797 114.887C86.9922 114.673 87.2292 114.366 87.3906 113.965C87.5521 113.564 87.6328 113.087 87.6328 112.535C87.6328 111.983 87.5521 111.501 87.3906 111.09C87.2292 110.678 86.9948 110.358 86.6875 110.129C86.3802 109.9 86.0026 109.785 85.5547 109.785C85.1068 109.785 84.7266 109.905 84.4141 110.145C84.1068 110.379 83.8724 110.702 83.7109 111.113C83.5547 111.525 83.4766 111.999 83.4766 112.535C83.4766 113.072 83.5547 113.54 83.7109 113.941C83.8724 114.342 84.1068 114.652 84.4141 114.871C84.7266 115.09 85.1068 115.199 85.5547 115.199Z" fill="#111827"/>
<path fill-rule="evenodd" clip-rule="evenodd" d="M106 103.856C103.816 103.856 102.046 105.626 102.046 107.81V109.382C102.046 109.382 102.046 109.382 102.046 109.382H99.7832C99.5071 109.382 99.2832 109.606 99.2832 109.882V117.48C99.2832 117.756 99.5071 117.98 99.7832 117.98H112.217C112.493 117.98 112.717 117.756 112.717 117.48V109.882C112.717 109.606 112.493 109.382 112.217 109.382H109.954C109.954 109.382 109.954 109.382 109.954 109.382V107.81C109.954 105.626 108.184 103.856 106 103.856ZM103.046 107.81C103.046 106.178 104.369 104.856 106 104.856C107.631 104.856 108.954 106.178 108.954 107.81V109.382H103.046V107.81ZM100.283 116.98V110.382H111.717V116.98H100.283Z" fill="#111827"/>
<path d="M125.279 116.055C124.682 116.055 124.147 115.938 123.673 115.706C123.199 115.469 122.821 115.148 122.538 114.742C122.256 114.332 122.103 113.867 122.08 113.348H123.338C123.365 113.648 123.468 113.917 123.646 114.154C123.823 114.391 124.053 114.578 124.336 114.715C124.623 114.847 124.938 114.913 125.279 114.913C125.689 114.913 126.054 114.817 126.373 114.626C126.697 114.435 126.95 114.17 127.132 113.833C127.314 113.496 127.405 113.113 127.405 112.685C127.405 112.247 127.31 111.855 127.118 111.509C126.927 111.162 126.665 110.891 126.332 110.695C126.004 110.495 125.626 110.395 125.197 110.395C124.883 110.395 124.564 110.445 124.24 110.545C123.917 110.645 123.655 110.773 123.454 110.928L122.237 110.777L122.839 105.732H128.198V106.874H123.933L123.584 109.848H123.639C123.848 109.674 124.113 109.533 124.432 109.424C124.751 109.31 125.086 109.253 125.437 109.253C125.901 109.253 126.33 109.337 126.722 109.506C127.118 109.674 127.462 109.914 127.754 110.224C128.046 110.529 128.271 110.889 128.431 111.304C128.595 111.718 128.677 112.172 128.677 112.664C128.677 113.316 128.529 113.897 128.232 114.407C127.941 114.918 127.54 115.321 127.029 115.617C126.519 115.909 125.936 116.055 125.279 116.055ZM133.64 116.055C133.061 116.055 132.546 115.941 132.095 115.713C131.644 115.485 131.274 115.166 130.987 114.756C130.7 114.346 130.516 113.869 130.434 113.327H131.719C131.824 113.778 132.035 114.154 132.354 114.455C132.674 114.756 133.102 114.906 133.64 114.906C134.159 114.906 134.606 114.754 134.979 114.448C135.353 114.143 135.64 113.701 135.841 113.122C136.046 112.543 136.148 111.844 136.148 111.023H136.066C135.884 111.301 135.665 111.543 135.41 111.748C135.155 111.949 134.87 112.106 134.556 112.22C134.246 112.329 133.913 112.384 133.558 112.384C132.974 112.384 132.439 112.24 131.951 111.953C131.464 111.661 131.074 111.263 130.782 110.757C130.495 110.246 130.352 109.665 130.352 109.014C130.352 108.38 130.495 107.804 130.782 107.284C131.069 106.76 131.47 106.345 131.985 106.04C132.505 105.73 133.113 105.582 133.811 105.596C134.23 105.6 134.649 105.682 135.068 105.842C135.488 105.997 135.87 106.254 136.217 106.614C136.563 106.974 136.841 107.464 137.051 108.084C137.26 108.704 137.365 109.483 137.365 110.422C137.365 111.324 137.279 112.124 137.105 112.821C136.937 113.519 136.691 114.109 136.367 114.592C136.044 115.07 135.652 115.435 135.191 115.686C134.731 115.932 134.214 116.055 133.64 116.055ZM133.749 111.249C134.059 111.249 134.348 111.188 134.617 111.064C134.886 110.941 135.121 110.775 135.321 110.565C135.522 110.351 135.679 110.11 135.793 109.841C135.907 109.567 135.964 109.28 135.964 108.979C135.964 108.588 135.868 108.223 135.677 107.886C135.49 107.544 135.232 107.268 134.904 107.059C134.581 106.844 134.209 106.737 133.79 106.737C133.38 106.737 133.011 106.84 132.683 107.045C132.359 107.245 132.102 107.519 131.91 107.865C131.719 108.207 131.623 108.588 131.623 109.007C131.623 109.422 131.714 109.8 131.896 110.142C132.083 110.479 132.336 110.748 132.655 110.948C132.974 111.149 133.339 111.249 133.749 111.249ZM142.663 105.732V115.918H141.385V106.936H141.316L138.855 108.761V107.366L141.07 105.732H142.663ZM147.845 116.082C147.211 116.082 146.651 115.92 146.163 115.597C145.675 115.273 145.295 114.815 145.021 114.223C144.748 113.63 144.611 112.928 144.611 112.117C144.611 111.311 144.748 110.613 145.021 110.025C145.299 109.433 145.682 108.977 146.17 108.658C146.658 108.339 147.218 108.18 147.852 108.18C148.348 108.18 148.743 108.262 149.034 108.426C149.326 108.59 149.549 108.777 149.704 108.986C149.864 109.191 149.984 109.362 150.066 109.499H150.162V105.732H151.393V115.918H150.203V114.735H150.066C149.984 114.877 149.861 115.054 149.697 115.269C149.538 115.478 149.31 115.667 149.014 115.836C148.722 116 148.332 116.082 147.845 116.082ZM148.029 114.981C148.494 114.981 148.886 114.861 149.205 114.619C149.524 114.373 149.766 114.034 149.93 113.601C150.094 113.168 150.176 112.669 150.176 112.104C150.176 111.538 150.094 111.046 149.93 110.627C149.77 110.203 149.531 109.873 149.212 109.636C148.893 109.399 148.499 109.28 148.029 109.28C147.546 109.28 147.143 109.406 146.819 109.656C146.5 109.907 146.261 110.246 146.102 110.675C145.942 111.099 145.862 111.575 145.862 112.104C145.862 112.637 145.942 113.122 146.102 113.56C146.266 113.993 146.509 114.339 146.833 114.599C147.157 114.854 147.555 114.981 148.029 114.981ZM160.348 116.082C159.719 116.082 159.16 115.92 158.673 115.597C158.19 115.273 157.809 114.815 157.531 114.223C157.258 113.63 157.121 112.928 157.121 112.117C157.121 111.311 157.26 110.613 157.538 110.025C157.816 109.433 158.199 108.977 158.687 108.658C159.179 108.339 159.742 108.18 160.375 108.18C160.867 108.18 161.259 108.262 161.551 108.426C161.842 108.585 162.066 108.77 162.221 108.979C162.376 109.189 162.494 109.362 162.576 109.499H162.679V108.275H163.902V115.918H162.686V114.735H162.576C162.494 114.877 162.371 115.054 162.207 115.269C162.048 115.483 161.82 115.672 161.523 115.836C161.227 116 160.835 116.082 160.348 116.082ZM160.553 114.981C161.018 114.981 161.41 114.861 161.729 114.619C162.048 114.373 162.289 114.034 162.453 113.601C162.617 113.168 162.699 112.669 162.699 112.104C162.699 111.538 162.617 111.046 162.453 110.627C162.294 110.203 162.054 109.873 161.735 109.636C161.416 109.399 161.022 109.28 160.553 109.28C160.07 109.28 159.666 109.406 159.343 109.656C159.019 109.902 158.775 110.24 158.611 110.668C158.452 111.092 158.372 111.57 158.372 112.104C158.372 112.637 158.454 113.122 158.618 113.56C158.782 113.993 159.026 114.339 159.35 114.599C159.673 114.854 160.074 114.981 160.553 114.981ZM169.159 118.939C168.594 118.939 168.104 118.867 167.689 118.721C167.279 118.579 166.938 118.39 166.664 118.153C166.391 117.916 166.174 117.659 166.015 117.381L167.013 116.738C167.122 116.884 167.257 117.046 167.416 117.224C167.58 117.401 167.799 117.552 168.072 117.675C168.35 117.802 168.713 117.866 169.159 117.866C169.77 117.866 170.271 117.72 170.663 117.429C171.06 117.137 171.258 116.677 171.258 116.048V114.517H171.142C171.055 114.662 170.932 114.836 170.772 115.036C170.618 115.237 170.392 115.414 170.096 115.569C169.804 115.72 169.412 115.795 168.92 115.795C168.309 115.795 167.76 115.651 167.272 115.364C166.785 115.073 166.4 114.649 166.117 114.093C165.835 113.537 165.693 112.86 165.693 112.062C165.693 111.274 165.832 110.59 166.11 110.012C166.388 109.428 166.771 108.977 167.259 108.658C167.751 108.339 168.314 108.18 168.947 108.18C169.439 108.18 169.831 108.262 170.123 108.426C170.419 108.585 170.647 108.77 170.807 108.979C170.966 109.189 171.089 109.362 171.176 109.499H171.292V108.275H172.488V116.116C172.488 116.772 172.34 117.308 172.044 117.723C171.748 118.142 171.347 118.45 170.841 118.646C170.34 118.841 169.779 118.939 169.159 118.939ZM169.125 114.701C169.59 114.701 169.982 114.596 170.301 114.387C170.62 114.173 170.861 113.867 171.025 113.471C171.189 113.07 171.271 112.591 171.271 112.035C171.271 111.493 171.189 111.017 171.025 110.606C170.866 110.192 170.627 109.868 170.308 109.636C169.989 109.399 169.594 109.28 169.125 109.28C168.642 109.28 168.239 109.406 167.915 109.656C167.591 109.902 167.348 110.233 167.184 110.647C167.024 111.062 166.944 111.525 166.944 112.035C166.944 112.559 167.026 113.022 167.19 113.423C167.354 113.824 167.598 114.138 167.922 114.366C168.245 114.59 168.646 114.701 169.125 114.701ZM177.759 116.082C177.066 116.082 176.458 115.918 175.934 115.59C175.414 115.262 175.008 114.801 174.717 114.209C174.425 113.617 174.279 112.928 174.279 112.145C174.279 111.347 174.425 110.652 174.717 110.06C175.008 109.463 175.414 109 175.934 108.672C176.458 108.344 177.066 108.18 177.759 108.18C178.456 108.18 179.067 108.344 179.591 108.672C180.115 109 180.523 109.463 180.814 110.06C181.106 110.652 181.252 111.347 181.252 112.145C181.252 112.928 181.106 113.617 180.814 114.209C180.523 114.801 180.115 115.262 179.591 115.59C179.067 115.918 178.456 116.082 177.759 116.082ZM177.759 114.981C178.274 114.981 178.698 114.849 179.03 114.585C179.363 114.321 179.609 113.974 179.769 113.546C179.928 113.113 180.008 112.646 180.008 112.145C180.008 111.639 179.928 111.169 179.769 110.736C179.609 110.299 179.363 109.948 179.03 109.684C178.698 109.415 178.274 109.28 177.759 109.28C177.248 109.28 176.829 109.415 176.501 109.684C176.173 109.948 175.929 110.297 175.77 110.729C175.61 111.162 175.53 111.634 175.53 112.145C175.53 112.646 175.61 113.113 175.77 113.546C175.929 113.974 176.173 114.321 176.501 114.585C176.829 114.849 177.248 114.981 177.759 114.981Z" fill="#111827"/>
<rect x="499" y="102.918" width="16" height="16" rx="8" fill="white"/>
<rect x="499" y="102.918" width="16" height="16" rx="8" stroke="#E4E4E7"/>
<rect x="37.9019" y="161.988" width="4.34127" height="4.34127" transform="rotate(-45 37.9019 161.988)" stroke="#111827" stroke-linejoin="round"/>
<rect x="37.9019" y="171.848" width="4.34127" height="4.34127" transform="rotate(-45 37.9019 171.848)" stroke="#111827" stroke-linejoin="round"/>
<rect x="42.8606" y="166.942" width="4.34127" height="4.34127" transform="rotate(-45 42.8606 166.942)" stroke="#111827" stroke-linejoin="round"/>
<rect x="33" y="166.942" width="4.34127" height="4.34127" transform="rotate(-45 33 166.942)" stroke="#111827" stroke-linejoin="round"/>
<path d="M58.0547 176.184V164.238H60.0391V165.652H60.1562C60.2656 165.434 60.4193 165.207 60.6172 164.973C60.8203 164.733 61.0859 164.533 61.4141 164.371C61.7422 164.204 62.1562 164.121 62.6562 164.121C63.3333 164.121 63.9427 164.296 64.4844 164.645C65.026 164.988 65.4557 165.493 65.7734 166.16C66.0911 166.827 66.25 167.637 66.25 168.59C66.25 169.538 66.0938 170.345 65.7812 171.012C65.474 171.678 65.0495 172.191 64.5078 172.551C63.9661 172.905 63.3464 173.082 62.6484 173.082C62.1641 173.082 61.7578 173.001 61.4297 172.84C61.1016 172.673 60.8359 172.473 60.6328 172.238C60.4297 172.004 60.2708 171.775 60.1562 171.551H60.0781V176.184H58.0547ZM62.1094 171.41C62.5573 171.41 62.9349 171.29 63.2422 171.051C63.5495 170.806 63.7812 170.47 63.9375 170.043C64.099 169.616 64.1797 169.129 64.1797 168.582C64.1797 168.04 64.1016 167.559 63.9453 167.137C63.7891 166.715 63.5573 166.384 63.25 166.145C62.9427 165.905 62.5625 165.785 62.1094 165.785C61.6667 165.785 61.2891 165.902 60.9766 166.137C60.6693 166.366 60.4349 166.691 60.2734 167.113C60.112 167.53 60.0312 168.02 60.0312 168.582C60.0312 169.145 60.112 169.639 60.2734 170.066C60.4349 170.488 60.6719 170.819 60.9844 171.059C61.2969 171.293 61.6719 171.41 62.1094 171.41ZM70 161.277V172.918H67.9766V161.277H70ZM75.3281 173.082C74.6406 173.082 74.026 172.905 73.4844 172.551C72.9427 172.191 72.5156 171.678 72.2031 171.012C71.8906 170.345 71.7344 169.538 71.7344 168.59C71.7344 167.637 71.8932 166.827 72.2109 166.16C72.5339 165.493 72.9661 164.988 73.5078 164.645C74.0547 164.296 74.6667 164.121 75.3438 164.121C75.8385 164.121 76.25 164.204 76.5781 164.371C76.9062 164.533 77.1693 164.733 77.3672 164.973C77.5703 165.207 77.7266 165.434 77.8359 165.652H77.9219V164.238H79.9297V172.918H77.9297V171.551H77.8359C77.7266 171.775 77.5677 172.004 77.3594 172.238C77.1562 172.473 76.888 172.673 76.5547 172.84C76.2266 173.001 75.8177 173.082 75.3281 173.082ZM75.8828 171.41C76.3255 171.41 76.7005 171.293 77.0078 171.059C77.3203 170.819 77.5573 170.488 77.7188 170.066C77.8802 169.639 77.9609 169.145 77.9609 168.582C77.9609 168.02 77.8802 167.53 77.7188 167.113C77.5573 166.691 77.3229 166.366 77.0156 166.137C76.7083 165.902 76.3307 165.785 75.8828 165.785C75.4349 165.785 75.0547 165.905 74.7422 166.145C74.4349 166.384 74.2005 166.715 74.0391 167.137C73.8828 167.553 73.8047 168.035 73.8047 168.582C73.8047 169.129 73.8828 169.616 74.0391 170.043C74.2005 170.47 74.4349 170.806 74.7422 171.051C75.0547 171.29 75.4349 171.41 75.8828 171.41ZM81.3438 172.918L84.7422 167.707L84.7344 169.215L81.5234 164.238H83.75L84.6328 165.699C84.888 166.137 85.1172 166.561 85.3203 166.973C85.5234 167.379 85.7292 167.777 85.9375 168.168H85.1172C85.3307 167.783 85.5339 167.384 85.7266 166.973C85.9245 166.561 86.1536 166.137 86.4141 165.699L87.3281 164.238H89.5156L86.2578 169.254V167.762L89.6484 172.918H87.4297L86.3672 171.199C86.1068 170.772 85.875 170.355 85.6719 169.949C85.4688 169.543 85.263 169.152 85.0547 168.777H85.875C85.6719 169.152 85.474 169.543 85.2812 169.949C85.0938 170.355 84.8698 170.772 84.6094 171.199L83.5469 172.918H81.3438ZM94.5234 173.098C93.6797 173.098 92.9453 172.91 92.3203 172.535C91.6953 172.16 91.2109 171.637 90.8672 170.965C90.5286 170.293 90.3594 169.512 90.3594 168.621C90.3594 167.72 90.5286 166.934 90.8672 166.262C91.2109 165.585 91.6953 165.059 92.3203 164.684C92.9453 164.309 93.6797 164.121 94.5234 164.121C95.3672 164.121 96.1016 164.309 96.7266 164.684C97.3516 165.059 97.8333 165.585 98.1719 166.262C98.5156 166.934 98.6875 167.72 98.6875 168.621C98.6875 169.512 98.5156 170.293 98.1719 170.965C97.8333 171.637 97.3516 172.16 96.7266 172.535C96.1016 172.91 95.3672 173.098 94.5234 173.098ZM94.5234 171.449C94.9922 171.449 95.3828 171.324 95.6953 171.074C96.0078 170.819 96.2422 170.478 96.3984 170.051C96.5547 169.624 96.6328 169.145 96.6328 168.613C96.6328 168.077 96.5547 167.595 96.3984 167.168C96.2422 166.736 96.0078 166.395 95.6953 166.145C95.3828 165.895 94.9922 165.77 94.5234 165.77C94.0547 165.77 93.6641 165.895 93.3516 166.145C93.0443 166.395 92.8125 166.733 92.6562 167.16C92.5 167.587 92.4219 168.072 92.4219 168.613C92.4219 169.145 92.5 169.624 92.6562 170.051C92.8125 170.478 93.0443 170.819 93.3516 171.074C93.6641 171.324 94.0547 171.449 94.5234 171.449ZM102.438 167.855V172.918H100.414V164.238H102.344L102.367 166.387H102.18C102.424 165.637 102.784 165.072 103.258 164.691C103.737 164.311 104.333 164.121 105.047 164.121C105.641 164.121 106.161 164.249 106.609 164.504C107.057 164.759 107.404 165.132 107.648 165.621C107.898 166.111 108.023 166.707 108.023 167.41V172.918H106V167.723C106 167.134 105.849 166.676 105.547 166.348C105.245 166.014 104.828 165.848 104.297 165.848C103.938 165.848 103.617 165.926 103.336 166.082C103.06 166.238 102.841 166.465 102.68 166.762C102.518 167.059 102.438 167.423 102.438 167.855ZM110.133 172.918V164.238H112.156V172.918H110.133ZM111.141 163.004C110.818 163.004 110.539 162.895 110.305 162.676C110.076 162.457 109.961 162.194 109.961 161.887C109.961 161.574 110.076 161.311 110.305 161.098C110.539 160.884 110.818 160.777 111.141 160.777C111.469 160.777 111.747 160.884 111.977 161.098C112.211 161.311 112.328 161.574 112.328 161.887C112.328 162.194 112.211 162.457 111.977 162.676C111.747 162.895 111.469 163.004 111.141 163.004ZM118.047 173.098C117.203 173.098 116.469 172.91 115.844 172.535C115.224 172.16 114.742 171.637 114.398 170.965C114.06 170.288 113.891 169.507 113.891 168.621C113.891 167.72 114.06 166.934 114.398 166.262C114.742 165.585 115.224 165.059 115.844 164.684C116.469 164.309 117.203 164.121 118.047 164.121C118.536 164.121 118.99 164.186 119.406 164.316C119.828 164.441 120.203 164.626 120.531 164.871C120.859 165.111 121.133 165.402 121.352 165.746C121.57 166.09 121.724 166.475 121.812 166.902L119.906 167.262C119.854 167.033 119.773 166.827 119.664 166.645C119.56 166.462 119.43 166.306 119.273 166.176C119.117 166.046 118.938 165.947 118.734 165.879C118.531 165.806 118.307 165.77 118.062 165.77C117.594 165.77 117.203 165.895 116.891 166.145C116.578 166.389 116.344 166.725 116.188 167.152C116.031 167.579 115.953 168.066 115.953 168.613C115.953 169.15 116.031 169.632 116.188 170.059C116.344 170.486 116.578 170.824 116.891 171.074C117.203 171.324 117.594 171.449 118.062 171.449C118.312 171.449 118.539 171.413 118.742 171.34C118.951 171.267 119.133 171.163 119.289 171.027C119.451 170.892 119.583 170.728 119.688 170.535C119.797 170.342 119.878 170.132 119.93 169.902L121.828 170.254C121.745 170.691 121.594 171.085 121.375 171.434C121.156 171.783 120.88 172.082 120.547 172.332C120.219 172.577 119.844 172.767 119.422 172.902C119 173.033 118.542 173.098 118.047 173.098Z" fill="#111827"/>
<path fill-rule="evenodd" clip-rule="evenodd" d="M138 159.856C135.816 159.856 134.046 161.626 134.046 163.81V165.382C134.046 165.382 134.046 165.382 134.046 165.382H131.783C131.507 165.382 131.283 165.606 131.283 165.882V173.48C131.283 173.756 131.507 173.98 131.783 173.98H144.217C144.493 173.98 144.717 173.756 144.717 173.48V165.882C144.717 165.606 144.493 165.382 144.217 165.382H141.954C141.954 165.382 141.954 165.382 141.954 165.382V163.81C141.954 161.626 140.184 159.856 138 159.856ZM135.046 163.81C135.046 162.178 136.369 160.856 138 160.856C139.631 160.856 140.954 162.178 140.954 163.81V165.382H135.046V163.81ZM132.283 172.98V166.382H143.717V172.98H132.283Z" fill="#111827"/>
<path d="M157.122 172.055C156.543 172.055 156.028 171.941 155.577 171.713C155.126 171.485 154.757 171.166 154.47 170.756C154.183 170.346 153.998 169.869 153.916 169.327H155.201C155.306 169.778 155.518 170.154 155.837 170.455C156.156 170.756 156.584 170.906 157.122 170.906C157.642 170.906 158.088 170.754 158.462 170.448C158.836 170.143 159.123 169.701 159.323 169.122C159.528 168.543 159.631 167.844 159.631 167.023H159.549C159.367 167.301 159.148 167.543 158.893 167.748C158.637 167.949 158.353 168.106 158.038 168.22C157.728 168.329 157.396 168.384 157.04 168.384C156.457 168.384 155.921 168.24 155.434 167.953C154.946 167.661 154.556 167.263 154.265 166.757C153.978 166.246 153.834 165.665 153.834 165.014C153.834 164.38 153.978 163.804 154.265 163.284C154.552 162.76 154.953 162.345 155.468 162.04C155.987 161.73 156.596 161.582 157.293 161.596C157.712 161.6 158.132 161.682 158.551 161.842C158.97 161.997 159.353 162.254 159.699 162.614C160.046 162.974 160.324 163.464 160.533 164.084C160.743 164.704 160.848 165.483 160.848 166.422C160.848 167.324 160.761 168.124 160.588 168.821C160.419 169.519 160.173 170.109 159.85 170.592C159.526 171.07 159.134 171.435 158.674 171.686C158.214 171.932 157.696 172.055 157.122 172.055ZM157.231 167.249C157.541 167.249 157.831 167.188 158.1 167.064C158.368 166.941 158.603 166.775 158.804 166.565C159.004 166.351 159.161 166.11 159.275 165.841C159.389 165.567 159.446 165.28 159.446 164.979C159.446 164.588 159.351 164.223 159.159 163.886C158.972 163.544 158.715 163.268 158.387 163.059C158.063 162.844 157.692 162.737 157.272 162.737C156.862 162.737 156.493 162.84 156.165 163.045C155.841 163.245 155.584 163.519 155.393 163.865C155.201 164.207 155.105 164.588 155.105 165.007C155.105 165.422 155.197 165.8 155.379 166.142C155.566 166.479 155.819 166.748 156.138 166.948C156.457 167.149 156.821 167.249 157.231 167.249ZM166.146 161.732V171.918H164.867V162.936H164.799L162.338 164.761V163.366L164.553 161.732H166.146ZM171.327 172.082C170.694 172.082 170.133 171.92 169.646 171.597C169.158 171.273 168.777 170.815 168.504 170.223C168.23 169.63 168.094 168.928 168.094 168.117C168.094 167.311 168.23 166.613 168.504 166.025C168.782 165.433 169.165 164.977 169.652 164.658C170.14 164.339 170.701 164.18 171.334 164.18C171.831 164.18 172.225 164.262 172.517 164.426C172.808 164.59 173.032 164.777 173.187 164.986C173.346 165.191 173.467 165.362 173.549 165.499H173.645V161.732H174.875V171.918H173.686V170.735H173.549C173.467 170.877 173.344 171.054 173.18 171.269C173.02 171.478 172.792 171.667 172.496 171.836C172.204 172 171.815 172.082 171.327 172.082ZM171.512 170.981C171.977 170.981 172.368 170.861 172.688 170.619C173.007 170.373 173.248 170.034 173.412 169.601C173.576 169.168 173.658 168.669 173.658 168.104C173.658 167.538 173.576 167.046 173.412 166.627C173.253 166.203 173.013 165.873 172.694 165.636C172.375 165.399 171.981 165.28 171.512 165.28C171.029 165.28 170.625 165.406 170.302 165.656C169.983 165.907 169.743 166.246 169.584 166.675C169.424 167.099 169.345 167.575 169.345 168.104C169.345 168.637 169.424 169.122 169.584 169.56C169.748 169.993 169.992 170.339 170.315 170.599C170.639 170.854 171.038 170.981 171.512 170.981ZM183.83 172.082C183.201 172.082 182.643 171.92 182.155 171.597C181.672 171.273 181.292 170.815 181.014 170.223C180.74 169.63 180.604 168.928 180.604 168.117C180.604 167.311 180.743 166.613 181.021 166.025C181.299 165.433 181.681 164.977 182.169 164.658C182.661 164.339 183.224 164.18 183.857 164.18C184.35 164.18 184.742 164.262 185.033 164.426C185.325 164.585 185.548 164.77 185.703 164.979C185.858 165.189 185.977 165.362 186.059 165.499H186.161V164.275H187.385V171.918H186.168V170.735H186.059C185.977 170.877 185.854 171.054 185.689 171.269C185.53 171.483 185.302 171.672 185.006 171.836C184.71 172 184.318 172.082 183.83 172.082ZM184.035 170.981C184.5 170.981 184.892 170.861 185.211 170.619C185.53 170.373 185.771 170.034 185.936 169.601C186.1 169.168 186.182 168.669 186.182 168.104C186.182 167.538 186.1 167.046 185.936 166.627C185.776 166.203 185.537 165.873 185.218 165.636C184.899 165.399 184.505 165.28 184.035 165.28C183.552 165.28 183.149 165.406 182.825 165.656C182.502 165.902 182.258 166.24 182.094 166.668C181.934 167.092 181.854 167.57 181.854 168.104C181.854 168.637 181.937 169.122 182.101 169.56C182.265 169.993 182.508 170.339 182.832 170.599C183.156 170.854 183.557 170.981 184.035 170.981ZM192.642 174.939C192.076 174.939 191.587 174.867 191.172 174.721C190.762 174.579 190.42 174.39 190.146 174.153C189.873 173.916 189.657 173.659 189.497 173.381L190.495 172.738C190.604 172.884 190.739 173.046 190.898 173.224C191.062 173.401 191.281 173.552 191.555 173.675C191.833 173.802 192.195 173.866 192.642 173.866C193.252 173.866 193.754 173.72 194.146 173.429C194.542 173.137 194.74 172.677 194.74 172.048V170.517H194.624C194.537 170.662 194.414 170.836 194.255 171.036C194.1 171.237 193.874 171.414 193.578 171.569C193.286 171.72 192.895 171.795 192.402 171.795C191.792 171.795 191.243 171.651 190.755 171.364C190.267 171.073 189.882 170.649 189.6 170.093C189.317 169.537 189.176 168.86 189.176 168.062C189.176 167.274 189.315 166.59 189.593 166.012C189.871 165.428 190.254 164.977 190.741 164.658C191.233 164.339 191.796 164.18 192.43 164.18C192.922 164.18 193.314 164.262 193.605 164.426C193.902 164.585 194.13 164.77 194.289 164.979C194.449 165.189 194.572 165.362 194.658 165.499H194.774V164.275H195.971V172.116C195.971 172.772 195.823 173.308 195.526 173.723C195.23 174.142 194.829 174.45 194.323 174.646C193.822 174.841 193.261 174.939 192.642 174.939ZM192.607 170.701C193.072 170.701 193.464 170.596 193.783 170.387C194.102 170.173 194.344 169.867 194.508 169.471C194.672 169.07 194.754 168.591 194.754 168.035C194.754 167.493 194.672 167.017 194.508 166.606C194.348 166.192 194.109 165.868 193.79 165.636C193.471 165.399 193.077 165.28 192.607 165.28C192.124 165.28 191.721 165.406 191.397 165.656C191.074 165.902 190.83 166.233 190.666 166.647C190.507 167.062 190.427 167.525 190.427 168.035C190.427 168.559 190.509 169.022 190.673 169.423C190.837 169.824 191.081 170.138 191.404 170.366C191.728 170.59 192.129 170.701 192.607 170.701ZM201.241 172.082C200.549 172.082 199.94 171.918 199.416 171.59C198.896 171.262 198.491 170.801 198.199 170.209C197.908 169.617 197.762 168.928 197.762 168.145C197.762 167.347 197.908 166.652 198.199 166.06C198.491 165.463 198.896 165 199.416 164.672C199.94 164.344 200.549 164.18 201.241 164.18C201.938 164.18 202.549 164.344 203.073 164.672C203.597 165 204.005 165.463 204.297 166.06C204.589 166.652 204.734 167.347 204.734 168.145C204.734 168.928 204.589 169.617 204.297 170.209C204.005 170.801 203.597 171.262 203.073 171.59C202.549 171.918 201.938 172.082 201.241 172.082ZM201.241 170.981C201.756 170.981 202.18 170.849 202.513 170.585C202.845 170.321 203.091 169.974 203.251 169.546C203.41 169.113 203.49 168.646 203.49 168.145C203.49 167.639 203.41 167.169 203.251 166.736C203.091 166.299 202.845 165.948 202.513 165.684C202.18 165.415 201.756 165.28 201.241 165.28C200.731 165.28 200.312 165.415 199.983 165.684C199.655 165.948 199.411 166.297 199.252 166.729C199.092 167.162 199.013 167.634 199.013 168.145C199.013 168.646 199.092 169.113 199.252 169.546C199.411 169.974 199.655 170.321 199.983 170.585C200.312 170.849 200.731 170.981 201.241 170.981Z" fill="#111827"/>
<rect x="499" y="158.918" width="16" height="16" rx="8" fill="white"/>
<rect x="499" y="158.918" width="16" height="16" rx="8" stroke="#E4E4E7"/>
<rect x="37.9019" y="217.988" width="4.34127" height="4.34127" transform="rotate(-45 37.9019 217.988)" stroke="#111827" stroke-linejoin="round"/>
<rect x="37.9019" y="227.848" width="4.34127" height="4.34127" transform="rotate(-45 37.9019 227.848)" stroke="#111827" stroke-linejoin="round"/>
<rect x="42.8606" y="222.942" width="4.34127" height="4.34127" transform="rotate(-45 42.8606 222.942)" stroke="#111827" stroke-linejoin="round"/>
<rect x="33" y="222.942" width="4.34127" height="4.34127" transform="rotate(-45 33 222.942)" stroke="#111827" stroke-linejoin="round"/>
<path d="M61.3516 229.098C60.6797 229.098 60.0833 229.001 59.5625 228.809C59.0469 228.611 58.625 228.327 58.2969 227.957C57.9688 227.582 57.7578 227.126 57.6641 226.59L59.5703 226.277C59.6797 226.704 59.8854 227.025 60.1875 227.238C60.4896 227.447 60.888 227.551 61.3828 227.551C61.8828 227.551 62.276 227.452 62.5625 227.254C62.8542 227.051 63 226.803 63 226.512C63 226.262 62.9036 226.056 62.7109 225.895C62.5182 225.728 62.224 225.603 61.8281 225.52L60.3516 225.199C59.5286 225.022 58.9141 224.733 58.5078 224.332C58.1016 223.926 57.8984 223.402 57.8984 222.762C57.8984 222.225 58.0443 221.759 58.3359 221.363C58.6328 220.967 59.0443 220.663 59.5703 220.449C60.0964 220.23 60.7057 220.121 61.3984 220.121C62.0599 220.121 62.6302 220.217 63.1094 220.41C63.5885 220.598 63.974 220.866 64.2656 221.215C64.5625 221.559 64.763 221.962 64.8672 222.426L63.0547 222.746C62.9661 222.434 62.7891 222.171 62.5234 221.957C62.263 221.743 61.8984 221.637 61.4297 221.637C60.9974 221.637 60.638 221.73 60.3516 221.918C60.0703 222.105 59.9297 222.348 59.9297 222.645C59.9297 222.9 60.0234 223.111 60.2109 223.277C60.4036 223.439 60.7161 223.566 61.1484 223.66L62.6328 223.973C63.4609 224.15 64.0755 224.434 64.4766 224.824C64.8776 225.21 65.0781 225.71 65.0781 226.324C65.0781 226.871 64.9193 227.353 64.6016 227.77C64.2839 228.186 63.8438 228.512 63.2812 228.746C62.724 228.98 62.0807 229.098 61.3516 229.098ZM70.8594 220.238V221.824H65.8906V220.238H70.8594ZM67.1484 218.137H69.1719V226.473C69.1719 226.785 69.2396 227.014 69.375 227.16C69.5104 227.301 69.7344 227.371 70.0469 227.371C70.1406 227.371 70.263 227.361 70.4141 227.34C70.5703 227.319 70.6953 227.301 70.7891 227.285L71.0781 228.855C70.8646 228.918 70.6406 228.96 70.4062 228.98C70.1771 229.007 69.9531 229.02 69.7344 229.02C68.901 229.02 68.2604 228.816 67.8125 228.41C67.3698 228.004 67.1484 227.418 67.1484 226.652V218.137ZM76.0547 229.098C75.2109 229.098 74.4766 228.91 73.8516 228.535C73.2266 228.16 72.7422 227.637 72.3984 226.965C72.0599 226.293 71.8906 225.512 71.8906 224.621C71.8906 223.72 72.0599 222.934 72.3984 222.262C72.7422 221.585 73.2266 221.059 73.8516 220.684C74.4766 220.309 75.2109 220.121 76.0547 220.121C76.8984 220.121 77.6328 220.309 78.2578 220.684C78.8828 221.059 79.3646 221.585 79.7031 222.262C80.0469 222.934 80.2188 223.72 80.2188 224.621C80.2188 225.512 80.0469 226.293 79.7031 226.965C79.3646 227.637 78.8828 228.16 78.2578 228.535C77.6328 228.91 76.8984 229.098 76.0547 229.098ZM76.0547 227.449C76.5234 227.449 76.9141 227.324 77.2266 227.074C77.5391 226.819 77.7734 226.478 77.9297 226.051C78.0859 225.624 78.1641 225.145 78.1641 224.613C78.1641 224.077 78.0859 223.595 77.9297 223.168C77.7734 222.736 77.5391 222.395 77.2266 222.145C76.9141 221.895 76.5234 221.77 76.0547 221.77C75.5859 221.77 75.1953 221.895 74.8828 222.145C74.5755 222.395 74.3438 222.733 74.1875 223.16C74.0312 223.587 73.9531 224.072 73.9531 224.613C73.9531 225.145 74.0312 225.624 74.1875 226.051C74.3438 226.478 74.5755 226.819 74.8828 227.074C75.1953 227.324 75.5859 227.449 76.0547 227.449ZM81.9453 228.918V220.238H83.9062V221.691H83.9922C84.1484 221.186 84.4167 220.798 84.7969 220.527C85.1823 220.257 85.6276 220.121 86.1328 220.121C86.2474 220.121 86.3724 220.126 86.5078 220.137C86.6484 220.147 86.7656 220.16 86.8594 220.176V222.035C86.7812 222.009 86.6484 221.986 86.4609 221.965C86.2734 221.944 86.0885 221.934 85.9062 221.934C85.5365 221.934 85.2031 222.014 84.9062 222.176C84.6146 222.332 84.3854 222.553 84.2188 222.84C84.0521 223.121 83.9688 223.452 83.9688 223.832V228.918H81.9453ZM91.1094 229.082C90.4219 229.082 89.8073 228.905 89.2656 228.551C88.724 228.191 88.2969 227.678 87.9844 227.012C87.6719 226.345 87.5156 225.538 87.5156 224.59C87.5156 223.637 87.6745 222.827 87.9922 222.16C88.3151 221.493 88.7474 220.988 89.2891 220.645C89.8359 220.296 90.4479 220.121 91.125 220.121C91.6198 220.121 92.0312 220.204 92.3594 220.371C92.6875 220.533 92.9505 220.733 93.1484 220.973C93.3516 221.207 93.5078 221.434 93.6172 221.652H93.7031V220.238H95.7109V228.918H93.7109V227.551H93.6172C93.5078 227.775 93.349 228.004 93.1406 228.238C92.9375 228.473 92.6693 228.673 92.3359 228.84C92.0078 229.001 91.599 229.082 91.1094 229.082ZM91.6641 227.41C92.1068 227.41 92.4818 227.293 92.7891 227.059C93.1016 226.819 93.3385 226.488 93.5 226.066C93.6615 225.639 93.7422 225.145 93.7422 224.582C93.7422 224.02 93.6615 223.53 93.5 223.113C93.3385 222.691 93.1042 222.366 92.7969 222.137C92.4896 221.902 92.112 221.785 91.6641 221.785C91.2161 221.785 90.8359 221.905 90.5234 222.145C90.2161 222.384 89.9818 222.715 89.8203 223.137C89.6641 223.553 89.5859 224.035 89.5859 224.582C89.5859 225.129 89.6641 225.616 89.8203 226.043C89.9818 226.47 90.2161 226.806 90.5234 227.051C90.8359 227.29 91.2161 227.41 91.6641 227.41ZM101.586 232.363C100.883 232.363 100.271 232.272 99.75 232.09C99.2344 231.908 98.8125 231.658 98.4844 231.34C98.1562 231.027 97.9219 230.673 97.7812 230.277L99.5312 229.723C99.6146 229.895 99.737 230.064 99.8984 230.23C100.065 230.402 100.284 230.543 100.555 230.652C100.831 230.767 101.172 230.824 101.578 230.824C102.208 230.824 102.711 230.673 103.086 230.371C103.461 230.074 103.648 229.613 103.648 228.988V227.379H103.492C103.383 227.603 103.229 227.824 103.031 228.043C102.833 228.262 102.573 228.444 102.25 228.59C101.927 228.736 101.521 228.809 101.031 228.809C100.359 228.809 99.75 228.65 99.2031 228.332C98.6615 228.009 98.2318 227.533 97.9141 226.902C97.5964 226.267 97.4375 225.483 97.4375 224.551C97.4375 223.608 97.5964 222.809 97.9141 222.152C98.237 221.491 98.6693 220.988 99.2109 220.645C99.7578 220.296 100.37 220.121 101.047 220.121C101.542 220.121 101.953 220.204 102.281 220.371C102.615 220.533 102.883 220.733 103.086 220.973C103.294 221.212 103.453 221.441 103.562 221.66H103.664V220.238H105.648V228.918C105.648 229.699 105.471 230.345 105.117 230.855C104.768 231.366 104.286 231.743 103.672 231.988C103.062 232.238 102.367 232.363 101.586 232.363ZM101.586 227.199C102.029 227.199 102.404 227.095 102.711 226.887C103.023 226.673 103.26 226.366 103.422 225.965C103.583 225.564 103.664 225.087 103.664 224.535C103.664 223.983 103.583 223.501 103.422 223.09C103.26 222.678 103.026 222.358 102.719 222.129C102.411 221.9 102.034 221.785 101.586 221.785C101.138 221.785 100.758 221.905 100.445 222.145C100.138 222.379 99.9036 222.702 99.7422 223.113C99.5859 223.525 99.5078 223.999 99.5078 224.535C99.5078 225.072 99.5859 225.54 99.7422 225.941C99.9036 226.342 100.138 226.652 100.445 226.871C100.758 227.09 101.138 227.199 101.586 227.199ZM111.594 229.098C110.724 229.098 109.971 228.913 109.336 228.543C108.706 228.173 108.221 227.655 107.883 226.988C107.544 226.316 107.375 225.53 107.375 224.629C107.375 223.738 107.542 222.954 107.875 222.277C108.214 221.6 108.69 221.072 109.305 220.691C109.919 220.311 110.638 220.121 111.461 220.121C112.003 220.121 112.513 220.21 112.992 220.387C113.477 220.559 113.904 220.827 114.273 221.191C114.643 221.551 114.932 222.007 115.141 222.559C115.354 223.111 115.461 223.764 115.461 224.52V225.137H108.312V223.762H114.445L113.508 224.168C113.508 223.678 113.43 223.249 113.273 222.879C113.117 222.509 112.888 222.223 112.586 222.02C112.289 221.811 111.919 221.707 111.477 221.707C111.034 221.707 110.656 221.811 110.344 222.02C110.031 222.228 109.792 222.509 109.625 222.863C109.464 223.212 109.383 223.603 109.383 224.035V224.98C109.383 225.522 109.474 225.983 109.656 226.363C109.844 226.738 110.104 227.022 110.438 227.215C110.776 227.408 111.169 227.504 111.617 227.504C111.919 227.504 112.193 227.462 112.438 227.379C112.682 227.29 112.891 227.163 113.062 226.996C113.24 226.824 113.372 226.616 113.461 226.371L115.328 226.715C115.193 227.189 114.953 227.605 114.609 227.965C114.271 228.319 113.846 228.598 113.336 228.801C112.826 228.999 112.245 229.098 111.594 229.098Z" fill="#111827"/>
<path fill-rule="evenodd" clip-rule="evenodd" d="M132 215.856C129.816 215.856 128.046 217.626 128.046 219.81V221.382C128.046 221.382 128.046 221.382 128.046 221.382H125.783C125.507 221.382 125.283 221.606 125.283 221.882V229.48C125.283 229.756 125.507 229.98 125.783 229.98H138.217C138.493 229.98 138.717 229.756 138.717 229.48V221.882C138.717 221.606 138.493 221.382 138.217 221.382H135.954C135.954 221.382 135.954 221.382 135.954 221.382V219.81C135.954 217.626 134.184 215.856 132 215.856ZM129.046 219.81C129.046 218.178 130.369 216.856 132 216.856C133.631 216.856 134.954 218.178 134.954 219.81V221.382H129.046V219.81ZM126.283 228.98V222.382H137.717V228.98H126.283Z" fill="#111827"/>
<path d="M151.279 228.055C150.682 228.055 150.147 227.938 149.673 227.706C149.199 227.469 148.821 227.148 148.538 226.742C148.256 226.332 148.103 225.867 148.08 225.348H149.338C149.365 225.648 149.468 225.917 149.646 226.154C149.823 226.391 150.053 226.578 150.336 226.715C150.623 226.847 150.938 226.913 151.279 226.913C151.689 226.913 152.054 226.817 152.373 226.626C152.697 226.435 152.95 226.17 153.132 225.833C153.314 225.496 153.405 225.113 153.405 224.685C153.405 224.247 153.31 223.855 153.118 223.509C152.927 223.162 152.665 222.891 152.332 222.695C152.004 222.495 151.626 222.395 151.197 222.395C150.883 222.395 150.564 222.445 150.24 222.545C149.917 222.645 149.655 222.773 149.454 222.928L148.237 222.777L148.839 217.732H154.198V218.874H149.933L149.584 221.848H149.639C149.848 221.674 150.113 221.533 150.432 221.424C150.751 221.31 151.086 221.253 151.437 221.253C151.901 221.253 152.33 221.337 152.722 221.506C153.118 221.674 153.462 221.914 153.754 222.224C154.046 222.529 154.271 222.889 154.431 223.304C154.595 223.718 154.677 224.172 154.677 224.664C154.677 225.316 154.529 225.897 154.232 226.407C153.941 226.918 153.54 227.321 153.029 227.617C152.519 227.909 151.936 228.055 151.279 228.055ZM159.64 228.055C159.061 228.055 158.546 227.941 158.095 227.713C157.644 227.485 157.274 227.166 156.987 226.756C156.7 226.346 156.516 225.869 156.434 225.327H157.719C157.824 225.778 158.035 226.154 158.354 226.455C158.674 226.756 159.102 226.906 159.64 226.906C160.159 226.906 160.606 226.754 160.979 226.448C161.353 226.143 161.64 225.701 161.841 225.122C162.046 224.543 162.148 223.844 162.148 223.023H162.066C161.884 223.301 161.665 223.543 161.41 223.748C161.155 223.949 160.87 224.106 160.556 224.22C160.246 224.329 159.913 224.384 159.558 224.384C158.974 224.384 158.439 224.24 157.951 223.953C157.464 223.661 157.074 223.263 156.782 222.757C156.495 222.246 156.352 221.665 156.352 221.014C156.352 220.38 156.495 219.804 156.782 219.284C157.069 218.76 157.47 218.345 157.985 218.04C158.505 217.73 159.113 217.582 159.811 217.596C160.23 217.6 160.649 217.682 161.068 217.842C161.488 217.997 161.87 218.254 162.217 218.614C162.563 218.974 162.841 219.464 163.051 220.084C163.26 220.704 163.365 221.483 163.365 222.422C163.365 223.324 163.279 224.124 163.105 224.821C162.937 225.519 162.691 226.109 162.367 226.592C162.044 227.07 161.652 227.435 161.191 227.686C160.731 227.932 160.214 228.055 159.64 228.055ZM159.749 223.249C160.059 223.249 160.348 223.188 160.617 223.064C160.886 222.941 161.121 222.775 161.321 222.565C161.522 222.351 161.679 222.11 161.793 221.841C161.907 221.567 161.964 221.28 161.964 220.979C161.964 220.588 161.868 220.223 161.677 219.886C161.49 219.544 161.232 219.268 160.904 219.059C160.581 218.844 160.209 218.737 159.79 218.737C159.38 218.737 159.011 218.84 158.683 219.045C158.359 219.245 158.102 219.519 157.91 219.865C157.719 220.207 157.623 220.588 157.623 221.007C157.623 221.422 157.714 221.8 157.896 222.142C158.083 222.479 158.336 222.748 158.655 222.948C158.974 223.149 159.339 223.249 159.749 223.249ZM168.144 228.082C167.51 228.082 166.95 227.92 166.462 227.597C165.974 227.273 165.594 226.815 165.32 226.223C165.047 225.63 164.91 224.928 164.91 224.117C164.91 223.311 165.047 222.613 165.32 222.025C165.598 221.433 165.981 220.977 166.469 220.658C166.956 220.339 167.517 220.18 168.15 220.18C168.647 220.18 169.041 220.262 169.333 220.426C169.625 220.59 169.848 220.777 170.003 220.986C170.162 221.191 170.283 221.362 170.365 221.499H170.461V217.732H171.691V227.918H170.502V226.735H170.365C170.283 226.877 170.16 227.054 169.996 227.269C169.837 227.478 169.609 227.667 169.312 227.836C169.021 228 168.631 228.082 168.144 228.082ZM168.328 226.981C168.793 226.981 169.185 226.861 169.504 226.619C169.823 226.373 170.064 226.034 170.229 225.601C170.393 225.168 170.475 224.669 170.475 224.104C170.475 223.538 170.393 223.046 170.229 222.627C170.069 222.203 169.83 221.873 169.511 221.636C169.192 221.399 168.798 221.28 168.328 221.28C167.845 221.28 167.442 221.406 167.118 221.656C166.799 221.907 166.56 222.246 166.4 222.675C166.241 223.099 166.161 223.575 166.161 224.104C166.161 224.637 166.241 225.122 166.4 225.56C166.564 225.993 166.808 226.339 167.132 226.599C167.455 226.854 167.854 226.981 168.328 226.981ZM180.646 228.082C180.018 228.082 179.459 227.92 178.972 227.597C178.489 227.273 178.108 226.815 177.83 226.223C177.557 225.63 177.42 224.928 177.42 224.117C177.42 223.311 177.559 222.613 177.837 222.025C178.115 221.433 178.498 220.977 178.985 220.658C179.478 220.339 180.04 220.18 180.674 220.18C181.166 220.18 181.558 220.262 181.85 220.426C182.141 220.585 182.365 220.77 182.52 220.979C182.674 221.189 182.793 221.362 182.875 221.499H182.978V220.275H184.201V227.918H182.984V226.735H182.875C182.793 226.877 182.67 227.054 182.506 227.269C182.346 227.483 182.118 227.672 181.822 227.836C181.526 228 181.134 228.082 180.646 228.082ZM180.852 226.981C181.316 226.981 181.708 226.861 182.027 226.619C182.346 226.373 182.588 226.034 182.752 225.601C182.916 225.168 182.998 224.669 182.998 224.104C182.998 223.538 182.916 223.046 182.752 222.627C182.592 222.203 182.353 221.873 182.034 221.636C181.715 221.399 181.321 221.28 180.852 221.28C180.368 221.28 179.965 221.406 179.642 221.656C179.318 221.902 179.074 222.24 178.91 222.668C178.751 223.092 178.671 223.57 178.671 224.104C178.671 224.637 178.753 225.122 178.917 225.56C179.081 225.993 179.325 226.339 179.648 226.599C179.972 226.854 180.373 226.981 180.852 226.981ZM189.458 230.939C188.893 230.939 188.403 230.867 187.988 230.721C187.578 230.579 187.236 230.39 186.963 230.153C186.689 229.916 186.473 229.659 186.313 229.381L187.312 228.738C187.421 228.884 187.555 229.046 187.715 229.224C187.879 229.401 188.098 229.552 188.371 229.675C188.649 229.802 189.011 229.866 189.458 229.866C190.069 229.866 190.57 229.72 190.962 229.429C191.358 229.137 191.557 228.677 191.557 228.048V226.517H191.44C191.354 226.662 191.231 226.836 191.071 227.036C190.916 227.237 190.691 227.414 190.395 227.569C190.103 227.72 189.711 227.795 189.219 227.795C188.608 227.795 188.059 227.651 187.571 227.364C187.084 227.073 186.699 226.649 186.416 226.093C186.133 225.537 185.992 224.86 185.992 224.062C185.992 223.274 186.131 222.59 186.409 222.012C186.687 221.428 187.07 220.977 187.558 220.658C188.05 220.339 188.613 220.18 189.246 220.18C189.738 220.18 190.13 220.262 190.422 220.426C190.718 220.585 190.946 220.77 191.105 220.979C191.265 221.189 191.388 221.362 191.475 221.499H191.591V220.275H192.787V228.116C192.787 228.772 192.639 229.308 192.343 229.723C192.047 230.142 191.646 230.45 191.14 230.646C190.638 230.841 190.078 230.939 189.458 230.939ZM189.424 226.701C189.889 226.701 190.281 226.596 190.6 226.387C190.919 226.173 191.16 225.867 191.324 225.471C191.488 225.07 191.57 224.591 191.57 224.035C191.57 223.493 191.488 223.017 191.324 222.606C191.165 222.192 190.925 221.868 190.606 221.636C190.287 221.399 189.893 221.28 189.424 221.28C188.941 221.28 188.537 221.406 188.214 221.656C187.89 221.902 187.646 222.233 187.482 222.647C187.323 223.062 187.243 223.525 187.243 224.035C187.243 224.559 187.325 225.022 187.489 225.423C187.653 225.824 187.897 226.138 188.221 226.366C188.544 226.59 188.945 226.701 189.424 226.701ZM198.058 228.082C197.365 228.082 196.757 227.918 196.232 227.59C195.713 227.262 195.307 226.801 195.016 226.209C194.724 225.617 194.578 224.928 194.578 224.145C194.578 223.347 194.724 222.652 195.016 222.06C195.307 221.463 195.713 221 196.232 220.672C196.757 220.344 197.365 220.18 198.058 220.18C198.755 220.18 199.366 220.344 199.89 220.672C200.414 221 200.822 221.463 201.113 222.06C201.405 222.652 201.551 223.347 201.551 224.145C201.551 224.928 201.405 225.617 201.113 226.209C200.822 226.801 200.414 227.262 199.89 227.59C199.366 227.918 198.755 228.082 198.058 228.082ZM198.058 226.981C198.573 226.981 198.996 226.849 199.329 226.585C199.662 226.321 199.908 225.974 200.067 225.546C200.227 225.113 200.307 224.646 200.307 224.145C200.307 223.639 200.227 223.169 200.067 222.736C199.908 222.299 199.662 221.948 199.329 221.684C198.996 221.415 198.573 221.28 198.058 221.28C197.547 221.28 197.128 221.415 196.8 221.684C196.472 221.948 196.228 222.297 196.068 222.729C195.909 223.162 195.829 223.634 195.829 224.145C195.829 224.646 195.909 225.113 196.068 225.546C196.228 225.974 196.472 226.321 196.8 226.585C197.128 226.849 197.547 226.981 198.058 226.981Z" fill="#111827"/>
<rect x="499" y="214.918" width="16" height="16" rx="8" fill="white"/>
<rect x="499" y="214.918" width="16" height="16" rx="8" stroke="#E4E4E7"/>
<rect x="37.9019" y="273.988" width="4.34127" height="4.34127" transform="rotate(-45 37.9019 273.988)" stroke="#111827" stroke-linejoin="round"/>
<rect x="37.9019" y="283.848" width="4.34127" height="4.34127" transform="rotate(-45 37.9019 283.848)" stroke="#111827" stroke-linejoin="round"/>
<rect x="42.8606" y="278.942" width="4.34127" height="4.34127" transform="rotate(-45 42.8606 278.942)" stroke="#111827" stroke-linejoin="round"/>
<rect x="33" y="278.942" width="4.34127" height="4.34127" transform="rotate(-45 33 278.942)" stroke="#111827" stroke-linejoin="round"/>
<path d="M62.125 276.238V277.824H57.1562V276.238H62.125ZM58.4141 274.137H60.4375V282.473C60.4375 282.785 60.5052 283.014 60.6406 283.16C60.776 283.301 61 283.371 61.3125 283.371C61.4062 283.371 61.5286 283.361 61.6797 283.34C61.8359 283.319 61.9609 283.301 62.0547 283.285L62.3438 284.855C62.1302 284.918 61.9062 284.96 61.6719 284.98C61.4427 285.007 61.2188 285.02 61 285.02C60.1667 285.02 59.526 284.816 59.0781 284.41C58.6354 284.004 58.4141 283.418 58.4141 282.652V274.137ZM66.6797 285.035C66.0859 285.035 65.5625 284.908 65.1094 284.652C64.6615 284.397 64.3125 284.025 64.0625 283.535C63.8177 283.04 63.6953 282.444 63.6953 281.746V276.238H65.7188V281.434C65.7188 282.022 65.8698 282.483 66.1719 282.816C66.4792 283.145 66.8984 283.309 67.4297 283.309C67.7891 283.309 68.1068 283.23 68.3828 283.074C68.6641 282.918 68.8828 282.691 69.0391 282.395C69.2005 282.092 69.2812 281.728 69.2812 281.301V276.238H71.3125V284.918H69.3828L69.3594 282.762H69.5391C69.2943 283.522 68.9323 284.092 68.4531 284.473C67.974 284.848 67.3828 285.035 66.6797 285.035ZM73.4297 284.918V276.238H75.3906V277.691H75.4766C75.6328 277.186 75.901 276.798 76.2812 276.527C76.6667 276.257 77.112 276.121 77.6172 276.121C77.7318 276.121 77.8568 276.126 77.9922 276.137C78.1328 276.147 78.25 276.16 78.3438 276.176V278.035C78.2656 278.009 78.1328 277.986 77.9453 277.965C77.7578 277.944 77.5729 277.934 77.3906 277.934C77.0208 277.934 76.6875 278.014 76.3906 278.176C76.099 278.332 75.8698 278.553 75.7031 278.84C75.5365 279.121 75.4531 279.452 75.4531 279.832V284.918H73.4297ZM84.5234 285.082C84.0391 285.082 83.6328 285.001 83.3047 284.84C82.9766 284.673 82.7083 284.473 82.5 284.238C82.2969 283.999 82.1406 283.77 82.0312 283.551H81.9141V284.918H79.9297V273.277H81.9531V277.652H82.0312C82.1458 277.434 82.3021 277.207 82.5 276.973C82.6979 276.733 82.9609 276.533 83.2891 276.371C83.6172 276.204 84.0312 276.121 84.5312 276.121C85.2083 276.121 85.8177 276.296 86.3594 276.645C86.901 276.988 87.3307 277.493 87.6484 278.16C87.9661 278.827 88.125 279.637 88.125 280.59C88.125 281.538 87.9688 282.345 87.6562 283.012C87.349 283.678 86.9245 284.191 86.3828 284.551C85.8411 284.905 85.2214 285.082 84.5234 285.082ZM83.9844 283.41C84.4323 283.41 84.8099 283.29 85.1172 283.051C85.4245 282.806 85.6562 282.47 85.8125 282.043C85.974 281.616 86.0547 281.129 86.0547 280.582C86.0547 280.04 85.9766 279.559 85.8203 279.137C85.6641 278.715 85.4323 278.384 85.125 278.145C84.8177 277.905 84.4375 277.785 83.9844 277.785C83.5417 277.785 83.1641 277.902 82.8516 278.137C82.5443 278.366 82.3099 278.691 82.1484 279.113C81.987 279.53 81.9062 280.02 81.9062 280.582C81.9062 281.145 81.987 281.639 82.1484 282.066C82.3099 282.488 82.5469 282.819 82.8594 283.059C83.1719 283.293 83.5469 283.41 83.9844 283.41ZM93.6328 285.098C92.7891 285.098 92.0547 284.91 91.4297 284.535C90.8047 284.16 90.3203 283.637 89.9766 282.965C89.638 282.293 89.4688 281.512 89.4688 280.621C89.4688 279.72 89.638 278.934 89.9766 278.262C90.3203 277.585 90.8047 277.059 91.4297 276.684C92.0547 276.309 92.7891 276.121 93.6328 276.121C94.4766 276.121 95.2109 276.309 95.8359 276.684C96.4609 277.059 96.9427 277.585 97.2812 278.262C97.625 278.934 97.7969 279.72 97.7969 280.621C97.7969 281.512 97.625 282.293 97.2812 282.965C96.9427 283.637 96.4609 284.16 95.8359 284.535C95.2109 284.91 94.4766 285.098 93.6328 285.098ZM93.6328 283.449C94.1016 283.449 94.4922 283.324 94.8047 283.074C95.1172 282.819 95.3516 282.478 95.5078 282.051C95.6641 281.624 95.7422 281.145 95.7422 280.613C95.7422 280.077 95.6641 279.595 95.5078 279.168C95.3516 278.736 95.1172 278.395 94.8047 278.145C94.4922 277.895 94.1016 277.77 93.6328 277.77C93.1641 277.77 92.7734 277.895 92.4609 278.145C92.1536 278.395 91.9219 278.733 91.7656 279.16C91.6094 279.587 91.5312 280.072 91.5312 280.613C91.5312 281.145 91.6094 281.624 91.7656 282.051C91.9219 282.478 92.1536 282.819 92.4609 283.074C92.7734 283.324 93.1641 283.449 93.6328 283.449Z" fill="#111827"/>
<path fill-rule="evenodd" clip-rule="evenodd" d="M114 271.856C111.816 271.856 110.046 273.626 110.046 275.81V277.382C110.046 277.382 110.046 277.382 110.046 277.382H107.783C107.507 277.382 107.283 277.606 107.283 277.882V285.48C107.283 285.756 107.507 285.98 107.783 285.98H120.217C120.493 285.98 120.717 285.756 120.717 285.48V277.882C120.717 277.606 120.493 277.382 120.217 277.382H117.954C117.954 277.382 117.954 277.382 117.954 277.382V275.81C117.954 273.626 116.184 271.856 114 271.856ZM111.046 275.81C111.046 274.178 112.369 272.856 114 272.856C115.631 272.856 116.954 274.178 116.954 275.81V277.382H111.046V275.81ZM108.283 284.98V278.382H119.717V284.98H108.283Z" fill="#111827"/>
<path d="M133.416 284.055C132.992 284.055 132.568 283.977 132.145 283.822C131.721 283.667 131.333 283.408 130.982 283.043C130.636 282.678 130.358 282.184 130.148 281.56C129.939 280.935 129.834 280.154 129.834 279.215C129.834 278.317 129.918 277.522 130.087 276.829C130.26 276.132 130.508 275.544 130.832 275.065C131.16 274.582 131.554 274.218 132.015 273.972C132.475 273.721 132.994 273.596 133.573 273.596C134.143 273.596 134.653 273.71 135.104 273.938C135.556 274.165 135.925 274.482 136.212 274.888C136.499 275.293 136.684 275.763 136.766 276.296H135.494C135.38 275.854 135.164 275.485 134.845 275.188C134.526 274.892 134.102 274.744 133.573 274.744C133.054 274.744 132.605 274.897 132.227 275.202C131.853 275.507 131.566 275.95 131.365 276.528C131.165 277.103 131.064 277.798 131.064 278.613H131.146C131.329 278.331 131.548 278.089 131.803 277.889C132.058 277.684 132.343 277.529 132.657 277.424C132.972 277.314 133.304 277.26 133.655 277.26C134.239 277.26 134.772 277.403 135.255 277.69C135.738 277.978 136.123 278.376 136.41 278.887C136.702 279.393 136.848 279.974 136.848 280.63C136.848 281.263 136.706 281.84 136.424 282.359C136.141 282.874 135.743 283.287 135.228 283.597C134.713 283.902 134.109 284.055 133.416 284.055ZM133.416 282.913C133.826 282.913 134.195 282.811 134.523 282.605C134.852 282.4 135.111 282.127 135.303 281.785C135.494 281.439 135.59 281.054 135.59 280.63C135.59 280.215 135.496 279.839 135.31 279.502C135.127 279.16 134.874 278.889 134.551 278.688C134.227 278.488 133.86 278.388 133.45 278.388C133.14 278.388 132.851 278.449 132.582 278.572C132.318 278.691 132.085 278.857 131.885 279.071C131.684 279.281 131.527 279.522 131.413 279.796C131.304 280.065 131.249 280.347 131.249 280.644C131.249 281.045 131.342 281.418 131.529 281.765C131.716 282.106 131.974 282.384 132.302 282.599C132.63 282.808 133.001 282.913 133.416 282.913ZM142.146 273.732V283.918H140.867V274.936H140.799L138.338 276.761V275.366L140.553 273.732H142.146ZM147.327 284.082C146.694 284.082 146.133 283.92 145.646 283.597C145.158 283.273 144.777 282.815 144.504 282.223C144.23 281.63 144.094 280.928 144.094 280.117C144.094 279.311 144.23 278.613 144.504 278.025C144.782 277.433 145.165 276.977 145.652 276.658C146.14 276.339 146.701 276.18 147.334 276.18C147.831 276.18 148.225 276.262 148.517 276.426C148.808 276.59 149.032 276.777 149.187 276.986C149.346 277.191 149.467 277.362 149.549 277.499H149.645V273.732H150.875V283.918H149.686V282.735H149.549C149.467 282.877 149.344 283.054 149.18 283.269C149.02 283.478 148.792 283.667 148.496 283.836C148.204 284 147.815 284.082 147.327 284.082ZM147.512 282.981C147.977 282.981 148.368 282.861 148.688 282.619C149.007 282.373 149.248 282.034 149.412 281.601C149.576 281.168 149.658 280.669 149.658 280.104C149.658 279.538 149.576 279.046 149.412 278.627C149.253 278.203 149.013 277.873 148.694 277.636C148.375 277.399 147.981 277.28 147.512 277.28C147.029 277.28 146.625 277.406 146.302 277.656C145.983 277.907 145.743 278.246 145.584 278.675C145.424 279.099 145.345 279.575 145.345 280.104C145.345 280.637 145.424 281.122 145.584 281.56C145.748 281.993 145.992 282.339 146.315 282.599C146.639 282.854 147.038 282.981 147.512 282.981ZM159.83 284.082C159.201 284.082 158.643 283.92 158.155 283.597C157.672 283.273 157.292 282.815 157.014 282.223C156.74 281.63 156.604 280.928 156.604 280.117C156.604 279.311 156.743 278.613 157.021 278.025C157.299 277.433 157.681 276.977 158.169 276.658C158.661 276.339 159.224 276.18 159.857 276.18C160.35 276.18 160.742 276.262 161.033 276.426C161.325 276.585 161.548 276.77 161.703 276.979C161.858 277.189 161.977 277.362 162.059 277.499H162.161V276.275H163.385V283.918H162.168V282.735H162.059C161.977 282.877 161.854 283.054 161.689 283.269C161.53 283.483 161.302 283.672 161.006 283.836C160.71 284 160.318 284.082 159.83 284.082ZM160.035 282.981C160.5 282.981 160.892 282.861 161.211 282.619C161.53 282.373 161.771 282.034 161.936 281.601C162.1 281.168 162.182 280.669 162.182 280.104C162.182 279.538 162.1 279.046 161.936 278.627C161.776 278.203 161.537 277.873 161.218 277.636C160.899 277.399 160.505 277.28 160.035 277.28C159.552 277.28 159.149 277.406 158.825 277.656C158.502 277.902 158.258 278.24 158.094 278.668C157.934 279.092 157.854 279.57 157.854 280.104C157.854 280.637 157.937 281.122 158.101 281.56C158.265 281.993 158.508 282.339 158.832 282.599C159.156 282.854 159.557 282.981 160.035 282.981ZM168.642 286.939C168.076 286.939 167.587 286.867 167.172 286.721C166.762 286.579 166.42 286.39 166.146 286.153C165.873 285.916 165.657 285.659 165.497 285.381L166.495 284.738C166.604 284.884 166.739 285.046 166.898 285.224C167.062 285.401 167.281 285.552 167.555 285.675C167.833 285.802 168.195 285.866 168.642 285.866C169.252 285.866 169.754 285.72 170.146 285.429C170.542 285.137 170.74 284.677 170.74 284.048V282.517H170.624C170.537 282.662 170.414 282.836 170.255 283.036C170.1 283.237 169.874 283.414 169.578 283.569C169.286 283.72 168.895 283.795 168.402 283.795C167.792 283.795 167.243 283.651 166.755 283.364C166.267 283.073 165.882 282.649 165.6 282.093C165.317 281.537 165.176 280.86 165.176 280.062C165.176 279.274 165.315 278.59 165.593 278.012C165.871 277.428 166.254 276.977 166.741 276.658C167.233 276.339 167.796 276.18 168.43 276.18C168.922 276.18 169.314 276.262 169.605 276.426C169.902 276.585 170.13 276.77 170.289 276.979C170.449 277.189 170.572 277.362 170.658 277.499H170.774V276.275H171.971V284.116C171.971 284.772 171.823 285.308 171.526 285.723C171.23 286.142 170.829 286.45 170.323 286.646C169.822 286.841 169.261 286.939 168.642 286.939ZM168.607 282.701C169.072 282.701 169.464 282.596 169.783 282.387C170.102 282.173 170.344 281.867 170.508 281.471C170.672 281.07 170.754 280.591 170.754 280.035C170.754 279.493 170.672 279.017 170.508 278.606C170.348 278.192 170.109 277.868 169.79 277.636C169.471 277.399 169.077 277.28 168.607 277.28C168.124 277.28 167.721 277.406 167.397 277.656C167.074 277.902 166.83 278.233 166.666 278.647C166.507 279.062 166.427 279.525 166.427 280.035C166.427 280.559 166.509 281.022 166.673 281.423C166.837 281.824 167.081 282.138 167.404 282.366C167.728 282.59 168.129 282.701 168.607 282.701ZM177.241 284.082C176.549 284.082 175.94 283.918 175.416 283.59C174.896 283.262 174.491 282.801 174.199 282.209C173.908 281.617 173.762 280.928 173.762 280.145C173.762 279.347 173.908 278.652 174.199 278.06C174.491 277.463 174.896 277 175.416 276.672C175.94 276.344 176.549 276.18 177.241 276.18C177.938 276.18 178.549 276.344 179.073 276.672C179.597 277 180.005 277.463 180.297 278.06C180.589 278.652 180.734 279.347 180.734 280.145C180.734 280.928 180.589 281.617 180.297 282.209C180.005 282.801 179.597 283.262 179.073 283.59C178.549 283.918 177.938 284.082 177.241 284.082ZM177.241 282.981C177.756 282.981 178.18 282.849 178.513 282.585C178.845 282.321 179.091 281.974 179.251 281.546C179.41 281.113 179.49 280.646 179.49 280.145C179.49 279.639 179.41 279.169 179.251 278.736C179.091 278.299 178.845 277.948 178.513 277.684C178.18 277.415 177.756 277.28 177.241 277.28C176.731 277.28 176.312 277.415 175.983 277.684C175.655 277.948 175.411 278.297 175.252 278.729C175.092 279.162 175.013 279.634 175.013 280.145C175.013 280.646 175.092 281.113 175.252 281.546C175.411 281.974 175.655 282.321 175.983 282.585C176.312 282.849 176.731 282.981 177.241 282.981Z" fill="#111827"/>
<rect x="499" y="270.918" width="16" height="16" rx="8" fill="white"/>
<rect x="499" y="270.918" width="16" height="16" rx="8" stroke="#E4E4E7"/>
</g>
<rect x="17" y="14.918" width="514" height="340" rx="4" stroke="#E4E4E7"/>
</g>
<defs>
<filter id="filter0_dd_2618_8365" x="0.5" y="0.417969" width="547" height="373" filterUnits="userSpaceOnUse" color-interpolation-filters="sRGB">
<feFlood flood-opacity="0" result="BackgroundImageFix"/>
<feColorMatrix in="SourceAlpha" type="matrix" values="0 0 0 0 0 0 0 0 0 0 0 0 0 0 0 0 0 0 127 0" result="hardAlpha"/>
<feOffset dy="2"/>
<feGaussianBlur stdDeviation="8"/>
<feColorMatrix type="matrix" values="0 0 0 0 0.129412 0 0 0 0 0.168627 0 0 0 0 0.211765 0 0 0 0.08 0"/>
<feBlend mode="normal" in2="BackgroundImageFix" result="effect1_dropShadow_2618_8365"/>
<feColorMatrix in="SourceAlpha" type="matrix" values="0 0 0 0 0 0 0 0 0 0 0 0 0 0 0 0 0 0 127 0" result="hardAlpha"/>
<feMorphology radius="1" operator="dilate" in="SourceAlpha" result="effect2_dropShadow_2618_8365"/>
<feOffset/>
<feColorMatrix type="matrix" values="0 0 0 0 0.0235294 0 0 0 0 0.172549 0 0 0 0 0.321569 0 0 0 0.1 0"/>
<feBlend mode="normal" in2="effect1_dropShadow_2618_8365" result="effect2_dropShadow_2618_8365"/>
<feBlend mode="normal" in="SourceGraphic" in2="effect2_dropShadow_2618_8365" result="shape"/>
</filter>
<clipPath id="clip0_2618_8365">
<rect x="17" y="14.918" width="514" height="340" rx="4" fill="white"/>
</clipPath>
<clipPath id="clip1_2618_8365">
<rect x="284" y="30.918" width="231" height="36" rx="4" fill="white"/>
</clipPath>
</defs>
</svg>
