<svg width="569" height="318" viewBox="0 0 569 318" fill="none" xmlns="http://www.w3.org/2000/svg">
<g filter="url(#filter0_dd_3945_99040)">
<g clip-path="url(#clip0_3945_99040)">
<rect x="17" y="15" width="535" height="340" rx="4" fill="white"/>
<rect x="33" y="31" width="241.5" height="36" rx="4" fill="white"/>
<rect x="33" y="31" width="241.5" height="36" rx="4" stroke="#E4E4E7"/>
<path fill-rule="evenodd" clip-rule="evenodd" d="M54.9453 56.881C58.4235 56.012 61 52.8665 61 49.1191C61 44.7009 57.4183 41.1191 53 41.1191C48.5817 41.1191 45 44.7009 45 49.1191C45 52.8662 47.5761 56.0115 51.0538 56.8807C51.0267 56.75 51.0125 56.6145 51.0125 56.4758V54.7514C50.4123 54.9286 49.0786 55.0245 48.4507 54.0114C48.3264 53.6818 47.9681 52.9549 47.53 52.6836C46.9824 52.3443 47.1639 52.239 47.2452 52.1923C47.458 52.1364 47.9922 52.1379 48.4265 52.5915C48.5089 52.6819 48.6921 52.8948 48.7657 53.0228L48.7716 53.033C48.8802 53.2233 49.4649 54.2469 51.024 53.6528L51.0809 53.6355C51.1782 53.2748 51.3745 52.9547 51.6389 52.7062C51.2479 52.6495 50.8795 52.5692 50.5417 52.469C49.0249 52.09 47.9138 50.7335 47.9139 48.8679C47.914 47.8598 48.2298 47.0741 48.7458 46.4614C48.4267 45.7259 48.6733 44.7905 48.8388 44.4106C49.5662 44.3157 50.5862 44.9308 50.9595 45.1865C51.5668 45.0417 52.2669 44.9663 53.0444 44.9663C53.7741 44.9663 54.4645 45.0427 55.0721 45.1817C55.4796 44.9128 56.4475 44.3163 57.1763 44.4183C57.3419 44.7752 57.5911 45.6636 57.3 46.4248C57.8327 47.0771 58.1557 47.932 58.1557 48.8679C58.1557 50.3576 57.3316 51.6704 56.153 52.2283C55.6507 52.4469 55.0409 52.6136 54.364 52.7098C54.7474 53.072 54.9867 53.5853 54.9867 54.1544V56.4758C54.9867 56.6146 54.9724 56.7502 54.9453 56.881Z" fill="#111827"/>
<path d="M71.1191 51.0879V49.7002C71.3516 49.3812 71.5817 49.0758 71.8096 48.7842C72.042 48.4925 72.279 48.2077 72.5205 47.9297C72.762 47.6517 73.0104 47.376 73.2656 47.1025L76.3076 43.8145H78.0098L73.6621 48.4766L73.5938 48.4697L71.1191 51.0879ZM70.2305 54V43.8145H71.5293V47.3008L71.5088 49.4951L71.5293 50.1309V54H70.2305ZM76.4785 54L72.7939 48.8184L73.6006 47.8066L78.0166 54H76.4785ZM80.7168 43.8145V54H79.4863V43.8145H80.7168ZM85.9873 54.1641C85.2946 54.1641 84.6862 54 84.1621 53.6719C83.6426 53.3438 83.237 52.8835 82.9453 52.291C82.6536 51.6986 82.5078 51.0104 82.5078 50.2266C82.5078 49.429 82.6536 48.734 82.9453 48.1416C83.237 47.5446 83.6426 47.082 84.1621 46.7539C84.6862 46.4258 85.2946 46.2617 85.9873 46.2617C86.6846 46.2617 87.2952 46.4258 87.8193 46.7539C88.3434 47.082 88.7513 47.5446 89.043 48.1416C89.3346 48.734 89.4805 49.429 89.4805 50.2266C89.4805 51.0104 89.3346 51.6986 89.043 52.291C88.7513 52.8835 88.3434 53.3438 87.8193 53.6719C87.2952 54 86.6846 54.1641 85.9873 54.1641ZM85.9873 53.0635C86.5023 53.0635 86.9261 52.9313 87.2588 52.667C87.5915 52.4027 87.8376 52.0563 87.9971 51.6279C88.1566 51.195 88.2363 50.7279 88.2363 50.2266C88.2363 49.7207 88.1566 49.2513 87.9971 48.8184C87.8376 48.3809 87.5915 48.0299 87.2588 47.7656C86.9261 47.4967 86.5023 47.3623 85.9873 47.3623C85.4769 47.3623 85.0576 47.4967 84.7295 47.7656C84.4014 48.0299 84.1576 48.3786 83.998 48.8115C83.8385 49.2445 83.7588 49.7161 83.7588 50.2266C83.7588 50.7279 83.8385 51.195 83.998 51.6279C84.1576 52.0563 84.4014 52.4027 84.7295 52.667C85.0576 52.9313 85.4769 53.0635 85.9873 53.0635ZM93.8623 54.0957C93.3473 54.0957 92.8939 53.9909 92.502 53.7812C92.1146 53.5671 91.8115 53.2458 91.5928 52.8174C91.3786 52.389 91.2715 51.8535 91.2715 51.2109V46.3574H92.502V51.1084C92.502 51.6963 92.6569 52.1566 92.9668 52.4893C93.2767 52.8219 93.6982 52.9883 94.2314 52.9883C94.596 52.9883 94.9219 52.9085 95.209 52.749C95.5007 52.5895 95.7308 52.3571 95.8994 52.0518C96.068 51.7419 96.1523 51.3704 96.1523 50.9375V46.3574H97.3896V54H96.2002V52.1475H96.3643C96.1273 52.863 95.79 53.3665 95.3525 53.6582C94.9196 53.9499 94.4229 54.0957 93.8623 54.0957ZM102.421 54.1641C101.787 54.1641 101.227 54.0023 100.739 53.6787C100.252 53.3551 99.8711 52.8971 99.5977 52.3047C99.3242 51.7122 99.1875 51.0104 99.1875 50.1992C99.1875 49.3926 99.3242 48.6953 99.5977 48.1074C99.8757 47.515 100.258 47.0592 100.746 46.7402C101.234 46.4212 101.794 46.2617 102.428 46.2617C102.924 46.2617 103.319 46.3438 103.61 46.5078C103.902 46.6719 104.125 46.8587 104.28 47.0684C104.44 47.2734 104.561 47.4443 104.643 47.5811H104.738V43.8145H105.969V54H104.779V52.8174H104.643C104.561 52.9587 104.438 53.1364 104.273 53.3506C104.114 53.5602 103.886 53.7493 103.59 53.918C103.298 54.082 102.909 54.1641 102.421 54.1641ZM102.605 53.0635C103.07 53.0635 103.462 52.9427 103.781 52.7012C104.1 52.4551 104.342 52.1156 104.506 51.6826C104.67 51.2497 104.752 50.7507 104.752 50.1855C104.752 49.6204 104.67 49.1283 104.506 48.709C104.346 48.2852 104.107 47.9548 103.788 47.7178C103.469 47.4808 103.075 47.3623 102.605 47.3623C102.122 47.3623 101.719 47.4876 101.396 47.7383C101.076 47.9889 100.837 48.3285 100.678 48.7568C100.518 49.1807 100.438 49.6569 100.438 50.1855C100.438 50.7188 100.518 51.2041 100.678 51.6416C100.842 52.0745 101.086 52.4209 101.409 52.6807C101.733 52.9359 102.132 53.0635 102.605 53.0635ZM109.359 43.8145V54H108.129V43.8145H109.359ZM111.52 54V46.3574H112.75V54H111.52ZM112.142 45.1064C111.909 45.1064 111.709 45.0267 111.54 44.8672C111.371 44.7077 111.287 44.5163 111.287 44.293C111.287 44.0651 111.371 43.8737 111.54 43.7188C111.709 43.5592 111.909 43.4795 112.142 43.4795C112.379 43.4795 112.581 43.5592 112.75 43.7188C112.919 43.8737 113.003 44.0651 113.003 44.293C113.003 44.5163 112.919 44.7077 112.75 44.8672C112.581 45.0267 112.379 45.1064 112.142 45.1064ZM117.918 46.3574V47.4102H113.967V46.3574H117.918ZM115.115 44.5391H116.346V52.0176C116.346 52.3594 116.414 52.61 116.551 52.7695C116.692 52.9245 116.924 53.002 117.248 53.002C117.326 53.002 117.424 52.9928 117.542 52.9746C117.665 52.9564 117.777 52.9382 117.877 52.9199L118.13 53.959C118.002 54.0046 117.856 54.0387 117.692 54.0615C117.533 54.0843 117.373 54.0957 117.214 54.0957C116.553 54.0957 116.038 53.9225 115.669 53.5762C115.3 53.2253 115.115 52.7376 115.115 52.1133V44.5391ZM122.566 54.1641C121.828 54.1641 121.19 54 120.652 53.6719C120.119 53.3438 119.707 52.8857 119.415 52.2979C119.128 51.71 118.984 51.0241 118.984 50.2402C118.984 49.4564 119.126 48.766 119.408 48.1689C119.691 47.5719 120.09 47.1048 120.604 46.7676C121.124 46.4303 121.73 46.2617 122.423 46.2617C122.828 46.2617 123.227 46.3301 123.619 46.4668C124.016 46.599 124.373 46.8154 124.692 47.1162C125.016 47.4124 125.273 47.8044 125.465 48.292C125.656 48.7796 125.752 49.3766 125.752 50.083V50.5957H119.818V49.5566H125.089L124.515 49.9395C124.515 49.4382 124.435 48.9938 124.275 48.6064C124.12 48.2145 123.888 47.9092 123.578 47.6904C123.268 47.4671 122.883 47.3555 122.423 47.3555C121.963 47.3555 121.568 47.4694 121.24 47.6973C120.912 47.9206 120.661 48.2145 120.488 48.5791C120.315 48.9391 120.229 49.3265 120.229 49.7412V50.4316C120.229 50.9967 120.326 51.4775 120.522 51.874C120.718 52.266 120.992 52.5645 121.343 52.7695C121.698 52.9701 122.108 53.0703 122.573 53.0703C122.874 53.0703 123.147 53.027 123.394 52.9404C123.64 52.8538 123.852 52.724 124.029 52.5508C124.207 52.373 124.344 52.1543 124.439 51.8945L125.629 52.2227C125.51 52.6055 125.31 52.9427 125.027 53.2344C124.745 53.526 124.394 53.7539 123.975 53.918C123.56 54.082 123.09 54.1641 122.566 54.1641Z" fill="#111827"/>
<path d="M254.146 51.6464L249.354 46.8536C249.039 46.5386 249.262 46 249.707 46H259.293C259.738 46 259.961 46.5386 259.646 46.8536L254.854 51.6464C254.658 51.8417 254.342 51.8417 254.146 51.6464Z" fill="#111827"/>
<g clip-path="url(#clip1_3945_99040)">
<rect x="294.5" y="31" width="241.5" height="36" rx="4" fill="white"/>
<path d="M311.646 54.7913C315.316 54.7913 318.292 51.816 318.292 48.1457C318.292 44.4754 315.316 41.5 311.646 41.5C307.975 41.5 305 44.4754 305 48.1457C305 51.816 307.975 54.7913 311.646 54.7913Z" stroke="#111827" stroke-linecap="round" stroke-linejoin="round"/>
<path d="M316.345 52.8451L320 56.5" stroke="#111827" stroke-linecap="round" stroke-linejoin="round"/>
<path d="M338.991 54.1777C338.257 54.1777 337.619 54.0592 337.077 53.8223C336.539 53.5853 336.118 53.2549 335.812 52.8311C335.507 52.4027 335.334 51.9036 335.293 51.334H336.626C336.662 51.7168 336.792 52.0335 337.016 52.2842C337.239 52.5303 337.524 52.7148 337.87 52.8379C338.221 52.9564 338.595 53.0156 338.991 53.0156C339.451 53.0156 339.864 52.9404 340.229 52.79C340.598 52.6396 340.889 52.4277 341.104 52.1543C341.318 51.8809 341.425 51.5641 341.425 51.2041C341.425 50.876 341.331 50.6094 341.145 50.4043C340.962 50.1992 340.718 50.0306 340.413 49.8984C340.108 49.7663 339.773 49.6501 339.408 49.5498L338.178 49.2012C337.357 48.9688 336.719 48.6361 336.264 48.2031C335.808 47.7702 335.58 47.2165 335.58 46.542C335.58 45.9678 335.735 45.4665 336.045 45.0381C336.355 44.6051 336.774 44.2702 337.303 44.0332C337.831 43.7962 338.424 43.6777 339.08 43.6777C339.75 43.6777 340.342 43.7962 340.857 44.0332C341.372 44.2702 341.778 44.5938 342.074 45.0039C342.375 45.4095 342.535 45.8698 342.553 46.3848H341.281C341.222 45.888 340.985 45.5052 340.57 45.2363C340.156 44.9629 339.645 44.8262 339.039 44.8262C338.602 44.8262 338.216 44.8991 337.884 45.0449C337.556 45.1862 337.3 45.3822 337.118 45.6328C336.936 45.8789 336.845 46.1615 336.845 46.4805C336.845 46.8359 336.954 47.123 337.173 47.3418C337.396 47.556 337.658 47.7246 337.959 47.8477C338.264 47.9661 338.54 48.0596 338.786 48.1279L339.805 48.4082C340.078 48.4811 340.379 48.5814 340.707 48.709C341.04 48.8366 341.356 49.0075 341.657 49.2217C341.958 49.4313 342.204 49.7002 342.396 50.0283C342.591 50.3519 342.689 50.7507 342.689 51.2246C342.689 51.7806 342.544 52.2819 342.252 52.7285C341.965 53.1751 341.546 53.5283 340.994 53.7881C340.443 54.0479 339.775 54.1777 338.991 54.1777ZM347.775 54.1641C347.037 54.1641 346.399 54 345.861 53.6719C345.328 53.3438 344.916 52.8857 344.624 52.2979C344.337 51.71 344.193 51.0241 344.193 50.2402C344.193 49.4564 344.335 48.766 344.617 48.1689C344.9 47.5719 345.299 47.1048 345.813 46.7676C346.333 46.4303 346.939 46.2617 347.632 46.2617C348.037 46.2617 348.436 46.3301 348.828 46.4668C349.225 46.599 349.582 46.8154 349.901 47.1162C350.225 47.4124 350.482 47.8044 350.674 48.292C350.865 48.7796 350.961 49.3766 350.961 50.083V50.5957H345.027V49.5566H350.298L349.724 49.9395C349.724 49.4382 349.644 48.9938 349.484 48.6064C349.329 48.2145 349.097 47.9092 348.787 47.6904C348.477 47.4671 348.092 47.3555 347.632 47.3555C347.172 47.3555 346.777 47.4694 346.449 47.6973C346.121 47.9206 345.87 48.2145 345.697 48.5791C345.524 48.9391 345.438 49.3265 345.438 49.7412V50.4316C345.438 50.9967 345.535 51.4775 345.731 51.874C345.927 52.266 346.201 52.5645 346.552 52.7695C346.907 52.9701 347.317 53.0703 347.782 53.0703C348.083 53.0703 348.356 53.027 348.603 52.9404C348.849 52.8538 349.061 52.724 349.238 52.5508C349.416 52.373 349.553 52.1543 349.648 51.8945L350.838 52.2227C350.719 52.6055 350.519 52.9427 350.236 53.2344C349.954 53.526 349.603 53.7539 349.184 53.918C348.769 54.082 348.299 54.1641 347.775 54.1641ZM355.582 54.1641C354.953 54.1641 354.395 54.0023 353.907 53.6787C353.424 53.3551 353.044 52.8971 352.766 52.3047C352.492 51.7122 352.355 51.0104 352.355 50.1992C352.355 49.3926 352.494 48.6953 352.772 48.1074C353.05 47.515 353.433 47.0592 353.921 46.7402C354.413 46.4212 354.976 46.2617 355.609 46.2617C356.102 46.2617 356.493 46.3438 356.785 46.5078C357.077 46.6673 357.3 46.8519 357.455 47.0615C357.61 47.2712 357.729 47.4443 357.811 47.5811H357.913V46.3574H359.137V54H357.92V52.8174H357.811C357.729 52.9587 357.605 53.1364 357.441 53.3506C357.282 53.5648 357.054 53.7539 356.758 53.918C356.462 54.082 356.07 54.1641 355.582 54.1641ZM355.787 53.0635C356.252 53.0635 356.644 52.9427 356.963 52.7012C357.282 52.4551 357.523 52.1156 357.688 51.6826C357.852 51.2497 357.934 50.7507 357.934 50.1855C357.934 49.6204 357.852 49.1283 357.688 48.709C357.528 48.2852 357.289 47.9548 356.97 47.7178C356.651 47.4808 356.257 47.3623 355.787 47.3623C355.304 47.3623 354.901 47.4876 354.577 47.7383C354.254 47.9844 354.01 48.3216 353.846 48.75C353.686 49.1738 353.606 49.6523 353.606 50.1855C353.606 50.7188 353.688 51.2041 353.853 51.6416C354.017 52.0745 354.26 52.4209 354.584 52.6807C354.908 52.9359 355.309 53.0635 355.787 53.0635ZM361.297 54V46.3574H362.486V47.5332H362.568C362.71 47.1458 362.96 46.8359 363.32 46.6035C363.685 46.3665 364.095 46.248 364.551 46.248C364.642 46.248 364.749 46.2503 364.872 46.2549C365 46.2594 365.1 46.264 365.173 46.2686V47.5059C365.136 47.4967 365.045 47.4831 364.899 47.4648C364.754 47.4466 364.599 47.4375 364.435 47.4375C364.07 47.4375 363.742 47.515 363.45 47.6699C363.163 47.8203 362.938 48.0299 362.773 48.2988C362.609 48.5632 362.527 48.8685 362.527 49.2148V54H361.297ZM369.452 54.1641C368.759 54.1641 368.151 54 367.627 53.6719C367.107 53.3438 366.702 52.8835 366.41 52.291C366.118 51.6986 365.973 51.0104 365.973 50.2266C365.973 49.429 366.118 48.734 366.41 48.1416C366.702 47.5446 367.107 47.082 367.627 46.7539C368.151 46.4258 368.759 46.2617 369.452 46.2617C369.821 46.2617 370.17 46.3096 370.498 46.4053C370.826 46.501 371.125 46.64 371.394 46.8223C371.667 47 371.902 47.221 372.098 47.4854C372.294 47.7451 372.444 48.0413 372.549 48.374L371.366 48.709C371.312 48.513 371.227 48.333 371.113 48.1689C370.999 48.0049 370.86 47.8636 370.696 47.7451C370.537 47.6221 370.352 47.5286 370.143 47.4648C369.933 47.3965 369.703 47.3623 369.452 47.3623C368.942 47.3623 368.522 47.4967 368.194 47.7656C367.866 48.0299 367.622 48.3786 367.463 48.8115C367.303 49.2445 367.224 49.7161 367.224 50.2266C367.224 50.7279 367.303 51.195 367.463 51.6279C367.622 52.0563 367.866 52.4027 368.194 52.667C368.522 52.9313 368.942 53.0635 369.452 53.0635C369.707 53.0635 369.942 53.0293 370.156 52.9609C370.37 52.8926 370.56 52.7969 370.724 52.6738C370.892 52.5462 371.034 52.3958 371.147 52.2227C371.261 52.0495 371.346 51.8604 371.4 51.6553L372.576 51.9902C372.476 52.332 372.326 52.6374 372.125 52.9062C371.929 53.1706 371.694 53.3984 371.421 53.5898C371.147 53.7767 370.844 53.918 370.512 54.0137C370.179 54.1139 369.826 54.1641 369.452 54.1641ZM375.57 49.4199V54H374.34V43.8145H375.57V48.21H375.358C375.591 47.5036 375.921 47.0023 376.35 46.7061C376.783 46.4098 377.288 46.2617 377.867 46.2617C378.382 46.2617 378.833 46.3688 379.221 46.583C379.613 46.7926 379.916 47.1117 380.13 47.54C380.349 47.9639 380.458 48.4993 380.458 49.1465V54H379.221V49.249C379.221 48.6611 379.066 48.2008 378.756 47.8682C378.451 47.5355 378.031 47.3691 377.498 47.3691C377.133 47.3691 376.805 47.4489 376.514 47.6084C376.222 47.7679 375.992 48.0003 375.823 48.3057C375.655 48.611 375.57 48.9824 375.57 49.4199Z" fill="#9CA3AF"/>
</g>
<rect x="294.5" y="31" width="241.5" height="36" rx="4" stroke="#E4E4E7"/>
<rect x="37.9023" y="106.07" width="4.34127" height="4.34127" transform="rotate(-45 37.9023 106.07)" stroke="#111827" stroke-linejoin="round"/>
<rect x="37.9023" y="115.93" width="4.34127" height="4.34127" transform="rotate(-45 37.9023 115.93)" stroke="#111827" stroke-linejoin="round"/>
<rect x="42.8604" y="111.024" width="4.34127" height="4.34127" transform="rotate(-45 42.8604 111.024)" stroke="#111827" stroke-linejoin="round"/>
<rect x="33" y="111.024" width="4.34127" height="4.34127" transform="rotate(-45 33 111.024)" stroke="#111827" stroke-linejoin="round"/>
<path d="M62.6484 117.164C62.1641 117.164 61.7578 117.083 61.4297 116.922C61.1016 116.755 60.8333 116.555 60.625 116.32C60.4219 116.081 60.2656 115.852 60.1562 115.633H60.0391V117H58.0547V105.359H60.0781V109.734H60.1562C60.2708 109.516 60.4271 109.289 60.625 109.055C60.8229 108.815 61.0859 108.615 61.4141 108.453C61.7422 108.286 62.1562 108.203 62.6562 108.203C63.3333 108.203 63.9427 108.378 64.4844 108.727C65.026 109.07 65.4557 109.576 65.7734 110.242C66.0911 110.909 66.25 111.719 66.25 112.672C66.25 113.62 66.0938 114.427 65.7812 115.094C65.474 115.76 65.0495 116.273 64.5078 116.633C63.9661 116.987 63.3464 117.164 62.6484 117.164ZM62.1094 115.492C62.5573 115.492 62.9349 115.372 63.2422 115.133C63.5495 114.888 63.7812 114.552 63.9375 114.125C64.099 113.698 64.1797 113.211 64.1797 112.664C64.1797 112.122 64.1016 111.641 63.9453 111.219C63.7891 110.797 63.5573 110.466 63.25 110.227C62.9427 109.987 62.5625 109.867 62.1094 109.867C61.6667 109.867 61.2891 109.984 60.9766 110.219C60.6693 110.448 60.4349 110.773 60.2734 111.195C60.112 111.612 60.0312 112.102 60.0312 112.664C60.0312 113.227 60.112 113.721 60.2734 114.148C60.4349 114.57 60.6719 114.901 60.9844 115.141C61.2969 115.375 61.6719 115.492 62.1094 115.492ZM70 105.359V117H67.9766V105.359H70ZM75.8984 117.18C75.0547 117.18 74.3203 116.992 73.6953 116.617C73.0703 116.242 72.5859 115.719 72.2422 115.047C71.9036 114.375 71.7344 113.594 71.7344 112.703C71.7344 111.802 71.9036 111.016 72.2422 110.344C72.5859 109.667 73.0703 109.141 73.6953 108.766C74.3203 108.391 75.0547 108.203 75.8984 108.203C76.7422 108.203 77.4766 108.391 78.1016 108.766C78.7266 109.141 79.2083 109.667 79.5469 110.344C79.8906 111.016 80.0625 111.802 80.0625 112.703C80.0625 113.594 79.8906 114.375 79.5469 115.047C79.2083 115.719 78.7266 116.242 78.1016 116.617C77.4766 116.992 76.7422 117.18 75.8984 117.18ZM75.8984 115.531C76.3672 115.531 76.7578 115.406 77.0703 115.156C77.3828 114.901 77.6172 114.56 77.7734 114.133C77.9297 113.706 78.0078 113.227 78.0078 112.695C78.0078 112.159 77.9297 111.677 77.7734 111.25C77.6172 110.818 77.3828 110.477 77.0703 110.227C76.7578 109.977 76.3672 109.852 75.8984 109.852C75.4297 109.852 75.0391 109.977 74.7266 110.227C74.4193 110.477 74.1875 110.815 74.0312 111.242C73.875 111.669 73.7969 112.154 73.7969 112.695C73.7969 113.227 73.875 113.706 74.0312 114.133C74.1875 114.56 74.4193 114.901 74.7266 115.156C75.0391 115.406 75.4297 115.531 75.8984 115.531ZM85.5547 120.445C84.8516 120.445 84.2396 120.354 83.7188 120.172C83.2031 119.99 82.7812 119.74 82.4531 119.422C82.125 119.109 81.8906 118.755 81.75 118.359L83.5 117.805C83.5833 117.977 83.7057 118.146 83.8672 118.312C84.0339 118.484 84.2526 118.625 84.5234 118.734C84.7995 118.849 85.1406 118.906 85.5469 118.906C86.1771 118.906 86.6797 118.755 87.0547 118.453C87.4297 118.156 87.6172 117.695 87.6172 117.07V115.461H87.4609C87.3516 115.685 87.1979 115.906 87 116.125C86.8021 116.344 86.5417 116.526 86.2188 116.672C85.8958 116.818 85.4896 116.891 85 116.891C84.3281 116.891 83.7188 116.732 83.1719 116.414C82.6302 116.091 82.2005 115.615 81.8828 114.984C81.5651 114.349 81.4062 113.565 81.4062 112.633C81.4062 111.69 81.5651 110.891 81.8828 110.234C82.2057 109.573 82.638 109.07 83.1797 108.727C83.7266 108.378 84.3385 108.203 85.0156 108.203C85.5104 108.203 85.9219 108.286 86.25 108.453C86.5833 108.615 86.8516 108.815 87.0547 109.055C87.263 109.294 87.4219 109.523 87.5312 109.742H87.6328V108.32H89.6172V117C89.6172 117.781 89.4401 118.427 89.0859 118.938C88.737 119.448 88.2552 119.826 87.6406 120.07C87.0312 120.32 86.3359 120.445 85.5547 120.445ZM85.5547 115.281C85.9974 115.281 86.3724 115.177 86.6797 114.969C86.9922 114.755 87.2292 114.448 87.3906 114.047C87.5521 113.646 87.6328 113.169 87.6328 112.617C87.6328 112.065 87.5521 111.583 87.3906 111.172C87.2292 110.76 86.9948 110.44 86.6875 110.211C86.3802 109.982 86.0026 109.867 85.5547 109.867C85.1068 109.867 84.7266 109.987 84.4141 110.227C84.1068 110.461 83.8724 110.784 83.7109 111.195C83.5547 111.607 83.4766 112.081 83.4766 112.617C83.4766 113.154 83.5547 113.622 83.7109 114.023C83.8724 114.424 84.1068 114.734 84.4141 114.953C84.7266 115.172 85.1068 115.281 85.5547 115.281Z" fill="#111827"/>
<path fill-rule="evenodd" clip-rule="evenodd" d="M106 103.938C103.816 103.938 102.046 105.708 102.046 107.892V109.464C102.046 109.464 102.046 109.464 102.046 109.464H99.7832C99.5071 109.464 99.2832 109.688 99.2832 109.964V117.562C99.2832 117.838 99.5071 118.062 99.7832 118.062H112.217C112.493 118.062 112.717 117.838 112.717 117.562V109.964C112.717 109.688 112.493 109.464 112.217 109.464H109.954C109.954 109.464 109.954 109.464 109.954 109.464V107.892C109.954 105.708 108.184 103.938 106 103.938ZM103.046 107.892C103.046 106.26 104.369 104.938 106 104.938C107.631 104.938 108.954 106.26 108.954 107.892V109.464H103.046V107.892ZM100.283 117.062V110.464H111.717V117.062H100.283Z" fill="#111827"/>
<path d="M125.279 116.137C124.682 116.137 124.147 116.021 123.673 115.788C123.199 115.551 122.821 115.23 122.538 114.824C122.256 114.414 122.103 113.949 122.08 113.43H123.338C123.365 113.73 123.468 113.999 123.646 114.236C123.823 114.473 124.053 114.66 124.336 114.797C124.623 114.929 124.938 114.995 125.279 114.995C125.689 114.995 126.054 114.899 126.373 114.708C126.697 114.517 126.95 114.252 127.132 113.915C127.314 113.578 127.405 113.195 127.405 112.767C127.405 112.329 127.31 111.937 127.118 111.591C126.927 111.244 126.665 110.973 126.332 110.777C126.004 110.577 125.626 110.477 125.197 110.477C124.883 110.477 124.564 110.527 124.24 110.627C123.917 110.727 123.655 110.855 123.454 111.01L122.237 110.859L122.839 105.814H128.198V106.956H123.933L123.584 109.93H123.639C123.848 109.757 124.113 109.615 124.432 109.506C124.751 109.392 125.086 109.335 125.437 109.335C125.901 109.335 126.33 109.419 126.722 109.588C127.118 109.757 127.462 109.996 127.754 110.306C128.046 110.611 128.271 110.971 128.431 111.386C128.595 111.8 128.677 112.254 128.677 112.746C128.677 113.398 128.529 113.979 128.232 114.489C127.941 115 127.54 115.403 127.029 115.699C126.519 115.991 125.936 116.137 125.279 116.137ZM133.64 116.137C133.061 116.137 132.546 116.023 132.095 115.795C131.644 115.567 131.274 115.248 130.987 114.838C130.7 114.428 130.516 113.951 130.434 113.409H131.719C131.824 113.86 132.035 114.236 132.354 114.537C132.674 114.838 133.102 114.988 133.64 114.988C134.159 114.988 134.606 114.836 134.979 114.53C135.353 114.225 135.64 113.783 135.841 113.204C136.046 112.625 136.148 111.926 136.148 111.105H136.066C135.884 111.383 135.665 111.625 135.41 111.83C135.155 112.031 134.87 112.188 134.556 112.302C134.246 112.411 133.913 112.466 133.558 112.466C132.974 112.466 132.439 112.322 131.951 112.035C131.464 111.743 131.074 111.345 130.782 110.839C130.495 110.328 130.352 109.747 130.352 109.096C130.352 108.462 130.495 107.886 130.782 107.366C131.069 106.842 131.47 106.427 131.985 106.122C132.505 105.812 133.113 105.664 133.811 105.678C134.23 105.682 134.649 105.764 135.068 105.924C135.488 106.079 135.87 106.336 136.217 106.696C136.563 107.056 136.841 107.546 137.051 108.166C137.26 108.786 137.365 109.565 137.365 110.504C137.365 111.406 137.279 112.206 137.105 112.903C136.937 113.601 136.691 114.191 136.367 114.674C136.044 115.152 135.652 115.517 135.191 115.768C134.731 116.014 134.214 116.137 133.64 116.137ZM133.749 111.331C134.059 111.331 134.348 111.27 134.617 111.146C134.886 111.023 135.121 110.857 135.321 110.647C135.522 110.433 135.679 110.192 135.793 109.923C135.907 109.649 135.964 109.362 135.964 109.062C135.964 108.67 135.868 108.305 135.677 107.968C135.49 107.626 135.232 107.35 134.904 107.141C134.581 106.926 134.209 106.819 133.79 106.819C133.38 106.819 133.011 106.922 132.683 107.127C132.359 107.327 132.102 107.601 131.91 107.947C131.719 108.289 131.623 108.67 131.623 109.089C131.623 109.504 131.714 109.882 131.896 110.224C132.083 110.561 132.336 110.83 132.655 111.03C132.974 111.231 133.339 111.331 133.749 111.331ZM142.663 105.814V116H141.385V107.018H141.316L138.855 108.843V107.448L141.07 105.814H142.663ZM147.845 116.164C147.211 116.164 146.651 116.002 146.163 115.679C145.675 115.355 145.295 114.897 145.021 114.305C144.748 113.712 144.611 113.01 144.611 112.199C144.611 111.393 144.748 110.695 145.021 110.107C145.299 109.515 145.682 109.059 146.17 108.74C146.658 108.421 147.218 108.262 147.852 108.262C148.348 108.262 148.743 108.344 149.034 108.508C149.326 108.672 149.549 108.859 149.704 109.068C149.864 109.273 149.984 109.444 150.066 109.581H150.162V105.814H151.393V116H150.203V114.817H150.066C149.984 114.959 149.861 115.136 149.697 115.351C149.538 115.56 149.31 115.749 149.014 115.918C148.722 116.082 148.332 116.164 147.845 116.164ZM148.029 115.063C148.494 115.063 148.886 114.943 149.205 114.701C149.524 114.455 149.766 114.116 149.93 113.683C150.094 113.25 150.176 112.751 150.176 112.186C150.176 111.62 150.094 111.128 149.93 110.709C149.77 110.285 149.531 109.955 149.212 109.718C148.893 109.481 148.499 109.362 148.029 109.362C147.546 109.362 147.143 109.488 146.819 109.738C146.5 109.989 146.261 110.328 146.102 110.757C145.942 111.181 145.862 111.657 145.862 112.186C145.862 112.719 145.942 113.204 146.102 113.642C146.266 114.075 146.509 114.421 146.833 114.681C147.157 114.936 147.555 115.063 148.029 115.063ZM160.348 116.164C159.719 116.164 159.16 116.002 158.673 115.679C158.19 115.355 157.809 114.897 157.531 114.305C157.258 113.712 157.121 113.01 157.121 112.199C157.121 111.393 157.26 110.695 157.538 110.107C157.816 109.515 158.199 109.059 158.687 108.74C159.179 108.421 159.742 108.262 160.375 108.262C160.867 108.262 161.259 108.344 161.551 108.508C161.842 108.667 162.066 108.852 162.221 109.062C162.376 109.271 162.494 109.444 162.576 109.581H162.679V108.357H163.902V116H162.686V114.817H162.576C162.494 114.959 162.371 115.136 162.207 115.351C162.048 115.565 161.82 115.754 161.523 115.918C161.227 116.082 160.835 116.164 160.348 116.164ZM160.553 115.063C161.018 115.063 161.41 114.943 161.729 114.701C162.048 114.455 162.289 114.116 162.453 113.683C162.617 113.25 162.699 112.751 162.699 112.186C162.699 111.62 162.617 111.128 162.453 110.709C162.294 110.285 162.054 109.955 161.735 109.718C161.416 109.481 161.022 109.362 160.553 109.362C160.07 109.362 159.666 109.488 159.343 109.738C159.019 109.984 158.775 110.322 158.611 110.75C158.452 111.174 158.372 111.652 158.372 112.186C158.372 112.719 158.454 113.204 158.618 113.642C158.782 114.075 159.026 114.421 159.35 114.681C159.673 114.936 160.074 115.063 160.553 115.063ZM169.159 119.021C168.594 119.021 168.104 118.949 167.689 118.803C167.279 118.661 166.938 118.472 166.664 118.235C166.391 117.998 166.174 117.741 166.015 117.463L167.013 116.82C167.122 116.966 167.257 117.128 167.416 117.306C167.58 117.483 167.799 117.634 168.072 117.757C168.35 117.884 168.713 117.948 169.159 117.948C169.77 117.948 170.271 117.802 170.663 117.511C171.06 117.219 171.258 116.759 171.258 116.13V114.599H171.142C171.055 114.744 170.932 114.918 170.772 115.118C170.618 115.319 170.392 115.496 170.096 115.651C169.804 115.802 169.412 115.877 168.92 115.877C168.309 115.877 167.76 115.733 167.272 115.446C166.785 115.155 166.4 114.731 166.117 114.175C165.835 113.619 165.693 112.942 165.693 112.145C165.693 111.356 165.832 110.673 166.11 110.094C166.388 109.51 166.771 109.059 167.259 108.74C167.751 108.421 168.314 108.262 168.947 108.262C169.439 108.262 169.831 108.344 170.123 108.508C170.419 108.667 170.647 108.852 170.807 109.062C170.966 109.271 171.089 109.444 171.176 109.581H171.292V108.357H172.488V116.198C172.488 116.854 172.34 117.39 172.044 117.805C171.748 118.224 171.347 118.532 170.841 118.728C170.34 118.924 169.779 119.021 169.159 119.021ZM169.125 114.783C169.59 114.783 169.982 114.678 170.301 114.469C170.62 114.255 170.861 113.949 171.025 113.553C171.189 113.152 171.271 112.673 171.271 112.117C171.271 111.575 171.189 111.099 171.025 110.688C170.866 110.274 170.627 109.95 170.308 109.718C169.989 109.481 169.594 109.362 169.125 109.362C168.642 109.362 168.239 109.488 167.915 109.738C167.591 109.984 167.348 110.315 167.184 110.729C167.024 111.144 166.944 111.607 166.944 112.117C166.944 112.641 167.026 113.104 167.19 113.505C167.354 113.906 167.598 114.22 167.922 114.448C168.245 114.672 168.646 114.783 169.125 114.783ZM177.759 116.164C177.066 116.164 176.458 116 175.934 115.672C175.414 115.344 175.008 114.883 174.717 114.291C174.425 113.699 174.279 113.01 174.279 112.227C174.279 111.429 174.425 110.734 174.717 110.142C175.008 109.545 175.414 109.082 175.934 108.754C176.458 108.426 177.066 108.262 177.759 108.262C178.456 108.262 179.067 108.426 179.591 108.754C180.115 109.082 180.523 109.545 180.814 110.142C181.106 110.734 181.252 111.429 181.252 112.227C181.252 113.01 181.106 113.699 180.814 114.291C180.523 114.883 180.115 115.344 179.591 115.672C179.067 116 178.456 116.164 177.759 116.164ZM177.759 115.063C178.274 115.063 178.698 114.931 179.03 114.667C179.363 114.403 179.609 114.056 179.769 113.628C179.928 113.195 180.008 112.728 180.008 112.227C180.008 111.721 179.928 111.251 179.769 110.818C179.609 110.381 179.363 110.03 179.03 109.766C178.698 109.497 178.274 109.362 177.759 109.362C177.248 109.362 176.829 109.497 176.501 109.766C176.173 110.03 175.929 110.379 175.77 110.812C175.61 111.244 175.53 111.716 175.53 112.227C175.53 112.728 175.61 113.195 175.77 113.628C175.929 114.056 176.173 114.403 176.501 114.667C176.829 114.931 177.248 115.063 177.759 115.063Z" fill="#111827"/>
<rect x="520" y="103" width="16" height="16" rx="8" fill="white"/>
<rect x="520" y="103" width="16" height="16" rx="8" stroke="#E4E4E7"/>
<rect x="37.9023" y="162.07" width="4.34127" height="4.34127" transform="rotate(-45 37.9023 162.07)" stroke="#111827" stroke-linejoin="round"/>
<rect x="37.9023" y="171.93" width="4.34127" height="4.34127" transform="rotate(-45 37.9023 171.93)" stroke="#111827" stroke-linejoin="round"/>
<rect x="42.8604" y="167.024" width="4.34127" height="4.34127" transform="rotate(-45 42.8604 167.024)" stroke="#111827" stroke-linejoin="round"/>
<rect x="33" y="167.024" width="4.34127" height="4.34127" transform="rotate(-45 33 167.024)" stroke="#111827" stroke-linejoin="round"/>
<path d="M58.0547 176.266V164.32H60.0391V165.734H60.1562C60.2656 165.516 60.4193 165.289 60.6172 165.055C60.8203 164.815 61.0859 164.615 61.4141 164.453C61.7422 164.286 62.1562 164.203 62.6562 164.203C63.3333 164.203 63.9427 164.378 64.4844 164.727C65.026 165.07 65.4557 165.576 65.7734 166.242C66.0911 166.909 66.25 167.719 66.25 168.672C66.25 169.62 66.0938 170.427 65.7812 171.094C65.474 171.76 65.0495 172.273 64.5078 172.633C63.9661 172.987 63.3464 173.164 62.6484 173.164C62.1641 173.164 61.7578 173.083 61.4297 172.922C61.1016 172.755 60.8359 172.555 60.6328 172.32C60.4297 172.086 60.2708 171.857 60.1562 171.633H60.0781V176.266H58.0547ZM62.1094 171.492C62.5573 171.492 62.9349 171.372 63.2422 171.133C63.5495 170.888 63.7812 170.552 63.9375 170.125C64.099 169.698 64.1797 169.211 64.1797 168.664C64.1797 168.122 64.1016 167.641 63.9453 167.219C63.7891 166.797 63.5573 166.466 63.25 166.227C62.9427 165.987 62.5625 165.867 62.1094 165.867C61.6667 165.867 61.2891 165.984 60.9766 166.219C60.6693 166.448 60.4349 166.773 60.2734 167.195C60.112 167.612 60.0312 168.102 60.0312 168.664C60.0312 169.227 60.112 169.721 60.2734 170.148C60.4349 170.57 60.6719 170.901 60.9844 171.141C61.2969 171.375 61.6719 171.492 62.1094 171.492ZM70 161.359V173H67.9766V161.359H70ZM75.3281 173.164C74.6406 173.164 74.026 172.987 73.4844 172.633C72.9427 172.273 72.5156 171.76 72.2031 171.094C71.8906 170.427 71.7344 169.62 71.7344 168.672C71.7344 167.719 71.8932 166.909 72.2109 166.242C72.5339 165.576 72.9661 165.07 73.5078 164.727C74.0547 164.378 74.6667 164.203 75.3438 164.203C75.8385 164.203 76.25 164.286 76.5781 164.453C76.9062 164.615 77.1693 164.815 77.3672 165.055C77.5703 165.289 77.7266 165.516 77.8359 165.734H77.9219V164.32H79.9297V173H77.9297V171.633H77.8359C77.7266 171.857 77.5677 172.086 77.3594 172.32C77.1562 172.555 76.888 172.755 76.5547 172.922C76.2266 173.083 75.8177 173.164 75.3281 173.164ZM75.8828 171.492C76.3255 171.492 76.7005 171.375 77.0078 171.141C77.3203 170.901 77.5573 170.57 77.7188 170.148C77.8802 169.721 77.9609 169.227 77.9609 168.664C77.9609 168.102 77.8802 167.612 77.7188 167.195C77.5573 166.773 77.3229 166.448 77.0156 166.219C76.7083 165.984 76.3307 165.867 75.8828 165.867C75.4349 165.867 75.0547 165.987 74.7422 166.227C74.4349 166.466 74.2005 166.797 74.0391 167.219C73.8828 167.635 73.8047 168.117 73.8047 168.664C73.8047 169.211 73.8828 169.698 74.0391 170.125C74.2005 170.552 74.4349 170.888 74.7422 171.133C75.0547 171.372 75.4349 171.492 75.8828 171.492ZM81.3438 173L84.7422 167.789L84.7344 169.297L81.5234 164.32H83.75L84.6328 165.781C84.888 166.219 85.1172 166.643 85.3203 167.055C85.5234 167.461 85.7292 167.859 85.9375 168.25H85.1172C85.3307 167.865 85.5339 167.466 85.7266 167.055C85.9245 166.643 86.1536 166.219 86.4141 165.781L87.3281 164.32H89.5156L86.2578 169.336V167.844L89.6484 173H87.4297L86.3672 171.281C86.1068 170.854 85.875 170.438 85.6719 170.031C85.4688 169.625 85.263 169.234 85.0547 168.859H85.875C85.6719 169.234 85.474 169.625 85.2812 170.031C85.0938 170.438 84.8698 170.854 84.6094 171.281L83.5469 173H81.3438ZM94.5234 173.18C93.6797 173.18 92.9453 172.992 92.3203 172.617C91.6953 172.242 91.2109 171.719 90.8672 171.047C90.5286 170.375 90.3594 169.594 90.3594 168.703C90.3594 167.802 90.5286 167.016 90.8672 166.344C91.2109 165.667 91.6953 165.141 92.3203 164.766C92.9453 164.391 93.6797 164.203 94.5234 164.203C95.3672 164.203 96.1016 164.391 96.7266 164.766C97.3516 165.141 97.8333 165.667 98.1719 166.344C98.5156 167.016 98.6875 167.802 98.6875 168.703C98.6875 169.594 98.5156 170.375 98.1719 171.047C97.8333 171.719 97.3516 172.242 96.7266 172.617C96.1016 172.992 95.3672 173.18 94.5234 173.18ZM94.5234 171.531C94.9922 171.531 95.3828 171.406 95.6953 171.156C96.0078 170.901 96.2422 170.56 96.3984 170.133C96.5547 169.706 96.6328 169.227 96.6328 168.695C96.6328 168.159 96.5547 167.677 96.3984 167.25C96.2422 166.818 96.0078 166.477 95.6953 166.227C95.3828 165.977 94.9922 165.852 94.5234 165.852C94.0547 165.852 93.6641 165.977 93.3516 166.227C93.0443 166.477 92.8125 166.815 92.6562 167.242C92.5 167.669 92.4219 168.154 92.4219 168.695C92.4219 169.227 92.5 169.706 92.6562 170.133C92.8125 170.56 93.0443 170.901 93.3516 171.156C93.6641 171.406 94.0547 171.531 94.5234 171.531ZM102.438 167.938V173H100.414V164.32H102.344L102.367 166.469H102.18C102.424 165.719 102.784 165.154 103.258 164.773C103.737 164.393 104.333 164.203 105.047 164.203C105.641 164.203 106.161 164.331 106.609 164.586C107.057 164.841 107.404 165.214 107.648 165.703C107.898 166.193 108.023 166.789 108.023 167.492V173H106V167.805C106 167.216 105.849 166.758 105.547 166.43C105.245 166.096 104.828 165.93 104.297 165.93C103.938 165.93 103.617 166.008 103.336 166.164C103.06 166.32 102.841 166.547 102.68 166.844C102.518 167.141 102.438 167.505 102.438 167.938ZM110.133 173V164.32H112.156V173H110.133ZM111.141 163.086C110.818 163.086 110.539 162.977 110.305 162.758C110.076 162.539 109.961 162.276 109.961 161.969C109.961 161.656 110.076 161.393 110.305 161.18C110.539 160.966 110.818 160.859 111.141 160.859C111.469 160.859 111.747 160.966 111.977 161.18C112.211 161.393 112.328 161.656 112.328 161.969C112.328 162.276 112.211 162.539 111.977 162.758C111.747 162.977 111.469 163.086 111.141 163.086ZM118.047 173.18C117.203 173.18 116.469 172.992 115.844 172.617C115.224 172.242 114.742 171.719 114.398 171.047C114.06 170.37 113.891 169.589 113.891 168.703C113.891 167.802 114.06 167.016 114.398 166.344C114.742 165.667 115.224 165.141 115.844 164.766C116.469 164.391 117.203 164.203 118.047 164.203C118.536 164.203 118.99 164.268 119.406 164.398C119.828 164.523 120.203 164.708 120.531 164.953C120.859 165.193 121.133 165.484 121.352 165.828C121.57 166.172 121.724 166.557 121.812 166.984L119.906 167.344C119.854 167.115 119.773 166.909 119.664 166.727C119.56 166.544 119.43 166.388 119.273 166.258C119.117 166.128 118.938 166.029 118.734 165.961C118.531 165.888 118.307 165.852 118.062 165.852C117.594 165.852 117.203 165.977 116.891 166.227C116.578 166.471 116.344 166.807 116.188 167.234C116.031 167.661 115.953 168.148 115.953 168.695C115.953 169.232 116.031 169.714 116.188 170.141C116.344 170.568 116.578 170.906 116.891 171.156C117.203 171.406 117.594 171.531 118.062 171.531C118.312 171.531 118.539 171.495 118.742 171.422C118.951 171.349 119.133 171.245 119.289 171.109C119.451 170.974 119.583 170.81 119.688 170.617C119.797 170.424 119.878 170.214 119.93 169.984L121.828 170.336C121.745 170.773 121.594 171.167 121.375 171.516C121.156 171.865 120.88 172.164 120.547 172.414C120.219 172.659 119.844 172.849 119.422 172.984C119 173.115 118.542 173.18 118.047 173.18Z" fill="#111827"/>
<path fill-rule="evenodd" clip-rule="evenodd" d="M138 159.938C135.816 159.938 134.046 161.708 134.046 163.892V165.464C134.046 165.464 134.046 165.464 134.046 165.464H131.783C131.507 165.464 131.283 165.688 131.283 165.964V173.562C131.283 173.838 131.507 174.062 131.783 174.062H144.217C144.493 174.062 144.717 173.838 144.717 173.562V165.964C144.717 165.688 144.493 165.464 144.217 165.464H141.954C141.954 165.464 141.954 165.464 141.954 165.464V163.892C141.954 161.708 140.184 159.938 138 159.938ZM135.046 163.892C135.046 162.26 136.369 160.938 138 160.938C139.631 160.938 140.954 162.26 140.954 163.892V165.464H135.046V163.892ZM132.283 173.062V166.464H143.717V173.062H132.283Z" fill="#111827"/>
<path d="M157.122 172.137C156.543 172.137 156.028 172.023 155.577 171.795C155.126 171.567 154.757 171.248 154.47 170.838C154.183 170.428 153.998 169.951 153.916 169.409H155.201C155.306 169.86 155.518 170.236 155.837 170.537C156.156 170.838 156.584 170.988 157.122 170.988C157.642 170.988 158.088 170.836 158.462 170.53C158.836 170.225 159.123 169.783 159.323 169.204C159.528 168.625 159.631 167.926 159.631 167.105H159.549C159.367 167.383 159.148 167.625 158.893 167.83C158.637 168.031 158.353 168.188 158.038 168.302C157.728 168.411 157.396 168.466 157.04 168.466C156.457 168.466 155.921 168.322 155.434 168.035C154.946 167.743 154.556 167.345 154.265 166.839C153.978 166.328 153.834 165.747 153.834 165.096C153.834 164.462 153.978 163.886 154.265 163.366C154.552 162.842 154.953 162.427 155.468 162.122C155.987 161.812 156.596 161.664 157.293 161.678C157.712 161.682 158.132 161.764 158.551 161.924C158.97 162.079 159.353 162.336 159.699 162.696C160.046 163.056 160.324 163.546 160.533 164.166C160.743 164.786 160.848 165.565 160.848 166.504C160.848 167.406 160.761 168.206 160.588 168.903C160.419 169.601 160.173 170.191 159.85 170.674C159.526 171.152 159.134 171.517 158.674 171.768C158.214 172.014 157.696 172.137 157.122 172.137ZM157.231 167.331C157.541 167.331 157.831 167.27 158.1 167.146C158.368 167.023 158.603 166.857 158.804 166.647C159.004 166.433 159.161 166.192 159.275 165.923C159.389 165.649 159.446 165.362 159.446 165.062C159.446 164.67 159.351 164.305 159.159 163.968C158.972 163.626 158.715 163.35 158.387 163.141C158.063 162.926 157.692 162.819 157.272 162.819C156.862 162.819 156.493 162.922 156.165 163.127C155.841 163.327 155.584 163.601 155.393 163.947C155.201 164.289 155.105 164.67 155.105 165.089C155.105 165.504 155.197 165.882 155.379 166.224C155.566 166.561 155.819 166.83 156.138 167.03C156.457 167.231 156.821 167.331 157.231 167.331ZM166.146 161.814V172H164.867V163.018H164.799L162.338 164.843V163.448L164.553 161.814H166.146ZM171.327 172.164C170.694 172.164 170.133 172.002 169.646 171.679C169.158 171.355 168.777 170.897 168.504 170.305C168.23 169.712 168.094 169.01 168.094 168.199C168.094 167.393 168.23 166.695 168.504 166.107C168.782 165.515 169.165 165.059 169.652 164.74C170.14 164.421 170.701 164.262 171.334 164.262C171.831 164.262 172.225 164.344 172.517 164.508C172.808 164.672 173.032 164.859 173.187 165.068C173.346 165.273 173.467 165.444 173.549 165.581H173.645V161.814H174.875V172H173.686V170.817H173.549C173.467 170.959 173.344 171.136 173.18 171.351C173.02 171.56 172.792 171.749 172.496 171.918C172.204 172.082 171.815 172.164 171.327 172.164ZM171.512 171.063C171.977 171.063 172.368 170.943 172.688 170.701C173.007 170.455 173.248 170.116 173.412 169.683C173.576 169.25 173.658 168.751 173.658 168.186C173.658 167.62 173.576 167.128 173.412 166.709C173.253 166.285 173.013 165.955 172.694 165.718C172.375 165.481 171.981 165.362 171.512 165.362C171.029 165.362 170.625 165.488 170.302 165.738C169.983 165.989 169.743 166.328 169.584 166.757C169.424 167.181 169.345 167.657 169.345 168.186C169.345 168.719 169.424 169.204 169.584 169.642C169.748 170.075 169.992 170.421 170.315 170.681C170.639 170.936 171.038 171.063 171.512 171.063ZM183.83 172.164C183.201 172.164 182.643 172.002 182.155 171.679C181.672 171.355 181.292 170.897 181.014 170.305C180.74 169.712 180.604 169.01 180.604 168.199C180.604 167.393 180.743 166.695 181.021 166.107C181.299 165.515 181.681 165.059 182.169 164.74C182.661 164.421 183.224 164.262 183.857 164.262C184.35 164.262 184.742 164.344 185.033 164.508C185.325 164.667 185.548 164.852 185.703 165.062C185.858 165.271 185.977 165.444 186.059 165.581H186.161V164.357H187.385V172H186.168V170.817H186.059C185.977 170.959 185.854 171.136 185.689 171.351C185.53 171.565 185.302 171.754 185.006 171.918C184.71 172.082 184.318 172.164 183.83 172.164ZM184.035 171.063C184.5 171.063 184.892 170.943 185.211 170.701C185.53 170.455 185.771 170.116 185.936 169.683C186.1 169.25 186.182 168.751 186.182 168.186C186.182 167.62 186.1 167.128 185.936 166.709C185.776 166.285 185.537 165.955 185.218 165.718C184.899 165.481 184.505 165.362 184.035 165.362C183.552 165.362 183.149 165.488 182.825 165.738C182.502 165.984 182.258 166.322 182.094 166.75C181.934 167.174 181.854 167.652 181.854 168.186C181.854 168.719 181.937 169.204 182.101 169.642C182.265 170.075 182.508 170.421 182.832 170.681C183.156 170.936 183.557 171.063 184.035 171.063ZM192.642 175.021C192.076 175.021 191.587 174.949 191.172 174.803C190.762 174.661 190.42 174.472 190.146 174.235C189.873 173.998 189.657 173.741 189.497 173.463L190.495 172.82C190.604 172.966 190.739 173.128 190.898 173.306C191.062 173.483 191.281 173.634 191.555 173.757C191.833 173.884 192.195 173.948 192.642 173.948C193.252 173.948 193.754 173.802 194.146 173.511C194.542 173.219 194.74 172.759 194.74 172.13V170.599H194.624C194.537 170.744 194.414 170.918 194.255 171.118C194.1 171.319 193.874 171.496 193.578 171.651C193.286 171.802 192.895 171.877 192.402 171.877C191.792 171.877 191.243 171.733 190.755 171.446C190.267 171.155 189.882 170.731 189.6 170.175C189.317 169.619 189.176 168.942 189.176 168.145C189.176 167.356 189.315 166.673 189.593 166.094C189.871 165.51 190.254 165.059 190.741 164.74C191.233 164.421 191.796 164.262 192.43 164.262C192.922 164.262 193.314 164.344 193.605 164.508C193.902 164.667 194.13 164.852 194.289 165.062C194.449 165.271 194.572 165.444 194.658 165.581H194.774V164.357H195.971V172.198C195.971 172.854 195.823 173.39 195.526 173.805C195.23 174.224 194.829 174.532 194.323 174.728C193.822 174.924 193.261 175.021 192.642 175.021ZM192.607 170.783C193.072 170.783 193.464 170.678 193.783 170.469C194.102 170.255 194.344 169.949 194.508 169.553C194.672 169.152 194.754 168.673 194.754 168.117C194.754 167.575 194.672 167.099 194.508 166.688C194.348 166.274 194.109 165.95 193.79 165.718C193.471 165.481 193.077 165.362 192.607 165.362C192.124 165.362 191.721 165.488 191.397 165.738C191.074 165.984 190.83 166.315 190.666 166.729C190.507 167.144 190.427 167.607 190.427 168.117C190.427 168.641 190.509 169.104 190.673 169.505C190.837 169.906 191.081 170.22 191.404 170.448C191.728 170.672 192.129 170.783 192.607 170.783ZM201.241 172.164C200.549 172.164 199.94 172 199.416 171.672C198.896 171.344 198.491 170.883 198.199 170.291C197.908 169.699 197.762 169.01 197.762 168.227C197.762 167.429 197.908 166.734 198.199 166.142C198.491 165.545 198.896 165.082 199.416 164.754C199.94 164.426 200.549 164.262 201.241 164.262C201.938 164.262 202.549 164.426 203.073 164.754C203.597 165.082 204.005 165.545 204.297 166.142C204.589 166.734 204.734 167.429 204.734 168.227C204.734 169.01 204.589 169.699 204.297 170.291C204.005 170.883 203.597 171.344 203.073 171.672C202.549 172 201.938 172.164 201.241 172.164ZM201.241 171.063C201.756 171.063 202.18 170.931 202.513 170.667C202.845 170.403 203.091 170.056 203.251 169.628C203.41 169.195 203.49 168.728 203.49 168.227C203.49 167.721 203.41 167.251 203.251 166.818C203.091 166.381 202.845 166.03 202.513 165.766C202.18 165.497 201.756 165.362 201.241 165.362C200.731 165.362 200.312 165.497 199.983 165.766C199.655 166.03 199.411 166.379 199.252 166.812C199.092 167.244 199.013 167.716 199.013 168.227C199.013 168.728 199.092 169.195 199.252 169.628C199.411 170.056 199.655 170.403 199.983 170.667C200.312 170.931 200.731 171.063 201.241 171.063Z" fill="#111827"/>
<rect x="520" y="159" width="16" height="16" rx="8" fill="white"/>
<rect x="520" y="159" width="16" height="16" rx="8" stroke="#E4E4E7"/>
<rect x="37.9023" y="218.07" width="4.34127" height="4.34127" transform="rotate(-45 37.9023 218.07)" stroke="#111827" stroke-linejoin="round"/>
<rect x="37.9023" y="227.93" width="4.34127" height="4.34127" transform="rotate(-45 37.9023 227.93)" stroke="#111827" stroke-linejoin="round"/>
<rect x="42.8604" y="223.024" width="4.34127" height="4.34127" transform="rotate(-45 42.8604 223.024)" stroke="#111827" stroke-linejoin="round"/>
<rect x="33" y="223.024" width="4.34127" height="4.34127" transform="rotate(-45 33 223.024)" stroke="#111827" stroke-linejoin="round"/>
<path d="M61.3516 229.18C60.6797 229.18 60.0833 229.083 59.5625 228.891C59.0469 228.693 58.625 228.409 58.2969 228.039C57.9688 227.664 57.7578 227.208 57.6641 226.672L59.5703 226.359C59.6797 226.786 59.8854 227.107 60.1875 227.32C60.4896 227.529 60.888 227.633 61.3828 227.633C61.8828 227.633 62.276 227.534 62.5625 227.336C62.8542 227.133 63 226.885 63 226.594C63 226.344 62.9036 226.138 62.7109 225.977C62.5182 225.81 62.224 225.685 61.8281 225.602L60.3516 225.281C59.5286 225.104 58.9141 224.815 58.5078 224.414C58.1016 224.008 57.8984 223.484 57.8984 222.844C57.8984 222.307 58.0443 221.841 58.3359 221.445C58.6328 221.049 59.0443 220.745 59.5703 220.531C60.0964 220.312 60.7057 220.203 61.3984 220.203C62.0599 220.203 62.6302 220.299 63.1094 220.492C63.5885 220.68 63.974 220.948 64.2656 221.297C64.5625 221.641 64.763 222.044 64.8672 222.508L63.0547 222.828C62.9661 222.516 62.7891 222.253 62.5234 222.039C62.263 221.826 61.8984 221.719 61.4297 221.719C60.9974 221.719 60.638 221.812 60.3516 222C60.0703 222.188 59.9297 222.43 59.9297 222.727C59.9297 222.982 60.0234 223.193 60.2109 223.359C60.4036 223.521 60.7161 223.648 61.1484 223.742L62.6328 224.055C63.4609 224.232 64.0755 224.516 64.4766 224.906C64.8776 225.292 65.0781 225.792 65.0781 226.406C65.0781 226.953 64.9193 227.435 64.6016 227.852C64.2839 228.268 63.8438 228.594 63.2812 228.828C62.724 229.062 62.0807 229.18 61.3516 229.18ZM70.8594 220.32V221.906H65.8906V220.32H70.8594ZM67.1484 218.219H69.1719V226.555C69.1719 226.867 69.2396 227.096 69.375 227.242C69.5104 227.383 69.7344 227.453 70.0469 227.453C70.1406 227.453 70.263 227.443 70.4141 227.422C70.5703 227.401 70.6953 227.383 70.7891 227.367L71.0781 228.938C70.8646 229 70.6406 229.042 70.4062 229.062C70.1771 229.089 69.9531 229.102 69.7344 229.102C68.901 229.102 68.2604 228.898 67.8125 228.492C67.3698 228.086 67.1484 227.5 67.1484 226.734V218.219ZM76.0547 229.18C75.2109 229.18 74.4766 228.992 73.8516 228.617C73.2266 228.242 72.7422 227.719 72.3984 227.047C72.0599 226.375 71.8906 225.594 71.8906 224.703C71.8906 223.802 72.0599 223.016 72.3984 222.344C72.7422 221.667 73.2266 221.141 73.8516 220.766C74.4766 220.391 75.2109 220.203 76.0547 220.203C76.8984 220.203 77.6328 220.391 78.2578 220.766C78.8828 221.141 79.3646 221.667 79.7031 222.344C80.0469 223.016 80.2188 223.802 80.2188 224.703C80.2188 225.594 80.0469 226.375 79.7031 227.047C79.3646 227.719 78.8828 228.242 78.2578 228.617C77.6328 228.992 76.8984 229.18 76.0547 229.18ZM76.0547 227.531C76.5234 227.531 76.9141 227.406 77.2266 227.156C77.5391 226.901 77.7734 226.56 77.9297 226.133C78.0859 225.706 78.1641 225.227 78.1641 224.695C78.1641 224.159 78.0859 223.677 77.9297 223.25C77.7734 222.818 77.5391 222.477 77.2266 222.227C76.9141 221.977 76.5234 221.852 76.0547 221.852C75.5859 221.852 75.1953 221.977 74.8828 222.227C74.5755 222.477 74.3438 222.815 74.1875 223.242C74.0312 223.669 73.9531 224.154 73.9531 224.695C73.9531 225.227 74.0312 225.706 74.1875 226.133C74.3438 226.56 74.5755 226.901 74.8828 227.156C75.1953 227.406 75.5859 227.531 76.0547 227.531ZM81.9453 229V220.32H83.9062V221.773H83.9922C84.1484 221.268 84.4167 220.88 84.7969 220.609C85.1823 220.339 85.6276 220.203 86.1328 220.203C86.2474 220.203 86.3724 220.208 86.5078 220.219C86.6484 220.229 86.7656 220.242 86.8594 220.258V222.117C86.7812 222.091 86.6484 222.068 86.4609 222.047C86.2734 222.026 86.0885 222.016 85.9062 222.016C85.5365 222.016 85.2031 222.096 84.9062 222.258C84.6146 222.414 84.3854 222.635 84.2188 222.922C84.0521 223.203 83.9688 223.534 83.9688 223.914V229H81.9453ZM91.1094 229.164C90.4219 229.164 89.8073 228.987 89.2656 228.633C88.724 228.273 88.2969 227.76 87.9844 227.094C87.6719 226.427 87.5156 225.62 87.5156 224.672C87.5156 223.719 87.6745 222.909 87.9922 222.242C88.3151 221.576 88.7474 221.07 89.2891 220.727C89.8359 220.378 90.4479 220.203 91.125 220.203C91.6198 220.203 92.0312 220.286 92.3594 220.453C92.6875 220.615 92.9505 220.815 93.1484 221.055C93.3516 221.289 93.5078 221.516 93.6172 221.734H93.7031V220.32H95.7109V229H93.7109V227.633H93.6172C93.5078 227.857 93.349 228.086 93.1406 228.32C92.9375 228.555 92.6693 228.755 92.3359 228.922C92.0078 229.083 91.599 229.164 91.1094 229.164ZM91.6641 227.492C92.1068 227.492 92.4818 227.375 92.7891 227.141C93.1016 226.901 93.3385 226.57 93.5 226.148C93.6615 225.721 93.7422 225.227 93.7422 224.664C93.7422 224.102 93.6615 223.612 93.5 223.195C93.3385 222.773 93.1042 222.448 92.7969 222.219C92.4896 221.984 92.112 221.867 91.6641 221.867C91.2161 221.867 90.8359 221.987 90.5234 222.227C90.2161 222.466 89.9818 222.797 89.8203 223.219C89.6641 223.635 89.5859 224.117 89.5859 224.664C89.5859 225.211 89.6641 225.698 89.8203 226.125C89.9818 226.552 90.2161 226.888 90.5234 227.133C90.8359 227.372 91.2161 227.492 91.6641 227.492ZM101.586 232.445C100.883 232.445 100.271 232.354 99.75 232.172C99.2344 231.99 98.8125 231.74 98.4844 231.422C98.1562 231.109 97.9219 230.755 97.7812 230.359L99.5312 229.805C99.6146 229.977 99.737 230.146 99.8984 230.312C100.065 230.484 100.284 230.625 100.555 230.734C100.831 230.849 101.172 230.906 101.578 230.906C102.208 230.906 102.711 230.755 103.086 230.453C103.461 230.156 103.648 229.695 103.648 229.07V227.461H103.492C103.383 227.685 103.229 227.906 103.031 228.125C102.833 228.344 102.573 228.526 102.25 228.672C101.927 228.818 101.521 228.891 101.031 228.891C100.359 228.891 99.75 228.732 99.2031 228.414C98.6615 228.091 98.2318 227.615 97.9141 226.984C97.5964 226.349 97.4375 225.565 97.4375 224.633C97.4375 223.69 97.5964 222.891 97.9141 222.234C98.237 221.573 98.6693 221.07 99.2109 220.727C99.7578 220.378 100.37 220.203 101.047 220.203C101.542 220.203 101.953 220.286 102.281 220.453C102.615 220.615 102.883 220.815 103.086 221.055C103.294 221.294 103.453 221.523 103.562 221.742H103.664V220.32H105.648V229C105.648 229.781 105.471 230.427 105.117 230.938C104.768 231.448 104.286 231.826 103.672 232.07C103.062 232.32 102.367 232.445 101.586 232.445ZM101.586 227.281C102.029 227.281 102.404 227.177 102.711 226.969C103.023 226.755 103.26 226.448 103.422 226.047C103.583 225.646 103.664 225.169 103.664 224.617C103.664 224.065 103.583 223.583 103.422 223.172C103.26 222.76 103.026 222.44 102.719 222.211C102.411 221.982 102.034 221.867 101.586 221.867C101.138 221.867 100.758 221.987 100.445 222.227C100.138 222.461 99.9036 222.784 99.7422 223.195C99.5859 223.607 99.5078 224.081 99.5078 224.617C99.5078 225.154 99.5859 225.622 99.7422 226.023C99.9036 226.424 100.138 226.734 100.445 226.953C100.758 227.172 101.138 227.281 101.586 227.281ZM111.594 229.18C110.724 229.18 109.971 228.995 109.336 228.625C108.706 228.255 108.221 227.737 107.883 227.07C107.544 226.398 107.375 225.612 107.375 224.711C107.375 223.82 107.542 223.036 107.875 222.359C108.214 221.682 108.69 221.154 109.305 220.773C109.919 220.393 110.638 220.203 111.461 220.203C112.003 220.203 112.513 220.292 112.992 220.469C113.477 220.641 113.904 220.909 114.273 221.273C114.643 221.633 114.932 222.089 115.141 222.641C115.354 223.193 115.461 223.846 115.461 224.602V225.219H108.312V223.844H114.445L113.508 224.25C113.508 223.76 113.43 223.331 113.273 222.961C113.117 222.591 112.888 222.305 112.586 222.102C112.289 221.893 111.919 221.789 111.477 221.789C111.034 221.789 110.656 221.893 110.344 222.102C110.031 222.31 109.792 222.591 109.625 222.945C109.464 223.294 109.383 223.685 109.383 224.117V225.062C109.383 225.604 109.474 226.065 109.656 226.445C109.844 226.82 110.104 227.104 110.438 227.297C110.776 227.49 111.169 227.586 111.617 227.586C111.919 227.586 112.193 227.544 112.438 227.461C112.682 227.372 112.891 227.245 113.062 227.078C113.24 226.906 113.372 226.698 113.461 226.453L115.328 226.797C115.193 227.271 114.953 227.688 114.609 228.047C114.271 228.401 113.846 228.68 113.336 228.883C112.826 229.081 112.245 229.18 111.594 229.18Z" fill="#111827"/>
<path fill-rule="evenodd" clip-rule="evenodd" d="M132 215.938C129.816 215.938 128.046 217.708 128.046 219.892V221.464C128.046 221.464 128.046 221.464 128.046 221.464H125.783C125.507 221.464 125.283 221.688 125.283 221.964V229.562C125.283 229.838 125.507 230.062 125.783 230.062H138.217C138.493 230.062 138.717 229.838 138.717 229.562V221.964C138.717 221.688 138.493 221.464 138.217 221.464H135.954C135.954 221.464 135.954 221.464 135.954 221.464V219.892C135.954 217.708 134.184 215.938 132 215.938ZM129.046 219.892C129.046 218.26 130.369 216.938 132 216.938C133.631 216.938 134.954 218.26 134.954 219.892V221.464H129.046V219.892ZM126.283 229.062V222.464H137.717V229.062H126.283Z" fill="#111827"/>
<path d="M151.279 228.137C150.682 228.137 150.147 228.021 149.673 227.788C149.199 227.551 148.821 227.23 148.538 226.824C148.256 226.414 148.103 225.949 148.08 225.43H149.338C149.365 225.73 149.468 225.999 149.646 226.236C149.823 226.473 150.053 226.66 150.336 226.797C150.623 226.929 150.938 226.995 151.279 226.995C151.689 226.995 152.054 226.899 152.373 226.708C152.697 226.517 152.95 226.252 153.132 225.915C153.314 225.578 153.405 225.195 153.405 224.767C153.405 224.329 153.31 223.937 153.118 223.591C152.927 223.244 152.665 222.973 152.332 222.777C152.004 222.577 151.626 222.477 151.197 222.477C150.883 222.477 150.564 222.527 150.24 222.627C149.917 222.727 149.655 222.855 149.454 223.01L148.237 222.859L148.839 217.814H154.198V218.956H149.933L149.584 221.93H149.639C149.848 221.757 150.113 221.615 150.432 221.506C150.751 221.392 151.086 221.335 151.437 221.335C151.901 221.335 152.33 221.419 152.722 221.588C153.118 221.757 153.462 221.996 153.754 222.306C154.046 222.611 154.271 222.971 154.431 223.386C154.595 223.8 154.677 224.254 154.677 224.746C154.677 225.398 154.529 225.979 154.232 226.489C153.941 227 153.54 227.403 153.029 227.699C152.519 227.991 151.936 228.137 151.279 228.137ZM159.64 228.137C159.061 228.137 158.546 228.023 158.095 227.795C157.644 227.567 157.274 227.248 156.987 226.838C156.7 226.428 156.516 225.951 156.434 225.409H157.719C157.824 225.86 158.035 226.236 158.354 226.537C158.674 226.838 159.102 226.988 159.64 226.988C160.159 226.988 160.606 226.836 160.979 226.53C161.353 226.225 161.64 225.783 161.841 225.204C162.046 224.625 162.148 223.926 162.148 223.105H162.066C161.884 223.383 161.665 223.625 161.41 223.83C161.155 224.031 160.87 224.188 160.556 224.302C160.246 224.411 159.913 224.466 159.558 224.466C158.974 224.466 158.439 224.322 157.951 224.035C157.464 223.743 157.074 223.345 156.782 222.839C156.495 222.328 156.352 221.747 156.352 221.096C156.352 220.462 156.495 219.886 156.782 219.366C157.069 218.842 157.47 218.427 157.985 218.122C158.505 217.812 159.113 217.664 159.811 217.678C160.23 217.682 160.649 217.764 161.068 217.924C161.488 218.079 161.87 218.336 162.217 218.696C162.563 219.056 162.841 219.546 163.051 220.166C163.26 220.786 163.365 221.565 163.365 222.504C163.365 223.406 163.279 224.206 163.105 224.903C162.937 225.601 162.691 226.191 162.367 226.674C162.044 227.152 161.652 227.517 161.191 227.768C160.731 228.014 160.214 228.137 159.64 228.137ZM159.749 223.331C160.059 223.331 160.348 223.27 160.617 223.146C160.886 223.023 161.121 222.857 161.321 222.647C161.522 222.433 161.679 222.192 161.793 221.923C161.907 221.649 161.964 221.362 161.964 221.062C161.964 220.67 161.868 220.305 161.677 219.968C161.49 219.626 161.232 219.35 160.904 219.141C160.581 218.926 160.209 218.819 159.79 218.819C159.38 218.819 159.011 218.922 158.683 219.127C158.359 219.327 158.102 219.601 157.91 219.947C157.719 220.289 157.623 220.67 157.623 221.089C157.623 221.504 157.714 221.882 157.896 222.224C158.083 222.561 158.336 222.83 158.655 223.03C158.974 223.231 159.339 223.331 159.749 223.331ZM168.144 228.164C167.51 228.164 166.95 228.002 166.462 227.679C165.974 227.355 165.594 226.897 165.32 226.305C165.047 225.712 164.91 225.01 164.91 224.199C164.91 223.393 165.047 222.695 165.32 222.107C165.598 221.515 165.981 221.059 166.469 220.74C166.956 220.421 167.517 220.262 168.15 220.262C168.647 220.262 169.041 220.344 169.333 220.508C169.625 220.672 169.848 220.859 170.003 221.068C170.162 221.273 170.283 221.444 170.365 221.581H170.461V217.814H171.691V228H170.502V226.817H170.365C170.283 226.959 170.16 227.136 169.996 227.351C169.837 227.56 169.609 227.749 169.312 227.918C169.021 228.082 168.631 228.164 168.144 228.164ZM168.328 227.063C168.793 227.063 169.185 226.943 169.504 226.701C169.823 226.455 170.064 226.116 170.229 225.683C170.393 225.25 170.475 224.751 170.475 224.186C170.475 223.62 170.393 223.128 170.229 222.709C170.069 222.285 169.83 221.955 169.511 221.718C169.192 221.481 168.798 221.362 168.328 221.362C167.845 221.362 167.442 221.488 167.118 221.738C166.799 221.989 166.56 222.328 166.4 222.757C166.241 223.181 166.161 223.657 166.161 224.186C166.161 224.719 166.241 225.204 166.4 225.642C166.564 226.075 166.808 226.421 167.132 226.681C167.455 226.936 167.854 227.063 168.328 227.063ZM180.646 228.164C180.018 228.164 179.459 228.002 178.972 227.679C178.489 227.355 178.108 226.897 177.83 226.305C177.557 225.712 177.42 225.01 177.42 224.199C177.42 223.393 177.559 222.695 177.837 222.107C178.115 221.515 178.498 221.059 178.985 220.74C179.478 220.421 180.04 220.262 180.674 220.262C181.166 220.262 181.558 220.344 181.85 220.508C182.141 220.667 182.365 220.852 182.52 221.062C182.674 221.271 182.793 221.444 182.875 221.581H182.978V220.357H184.201V228H182.984V226.817H182.875C182.793 226.959 182.67 227.136 182.506 227.351C182.346 227.565 182.118 227.754 181.822 227.918C181.526 228.082 181.134 228.164 180.646 228.164ZM180.852 227.063C181.316 227.063 181.708 226.943 182.027 226.701C182.346 226.455 182.588 226.116 182.752 225.683C182.916 225.25 182.998 224.751 182.998 224.186C182.998 223.62 182.916 223.128 182.752 222.709C182.592 222.285 182.353 221.955 182.034 221.718C181.715 221.481 181.321 221.362 180.852 221.362C180.368 221.362 179.965 221.488 179.642 221.738C179.318 221.984 179.074 222.322 178.91 222.75C178.751 223.174 178.671 223.652 178.671 224.186C178.671 224.719 178.753 225.204 178.917 225.642C179.081 226.075 179.325 226.421 179.648 226.681C179.972 226.936 180.373 227.063 180.852 227.063ZM189.458 231.021C188.893 231.021 188.403 230.949 187.988 230.803C187.578 230.661 187.236 230.472 186.963 230.235C186.689 229.998 186.473 229.741 186.313 229.463L187.312 228.82C187.421 228.966 187.555 229.128 187.715 229.306C187.879 229.483 188.098 229.634 188.371 229.757C188.649 229.884 189.011 229.948 189.458 229.948C190.069 229.948 190.57 229.802 190.962 229.511C191.358 229.219 191.557 228.759 191.557 228.13V226.599H191.44C191.354 226.744 191.231 226.918 191.071 227.118C190.916 227.319 190.691 227.496 190.395 227.651C190.103 227.802 189.711 227.877 189.219 227.877C188.608 227.877 188.059 227.733 187.571 227.446C187.084 227.155 186.699 226.731 186.416 226.175C186.133 225.619 185.992 224.942 185.992 224.145C185.992 223.356 186.131 222.673 186.409 222.094C186.687 221.51 187.07 221.059 187.558 220.74C188.05 220.421 188.613 220.262 189.246 220.262C189.738 220.262 190.13 220.344 190.422 220.508C190.718 220.667 190.946 220.852 191.105 221.062C191.265 221.271 191.388 221.444 191.475 221.581H191.591V220.357H192.787V228.198C192.787 228.854 192.639 229.39 192.343 229.805C192.047 230.224 191.646 230.532 191.14 230.728C190.638 230.924 190.078 231.021 189.458 231.021ZM189.424 226.783C189.889 226.783 190.281 226.678 190.6 226.469C190.919 226.255 191.16 225.949 191.324 225.553C191.488 225.152 191.57 224.673 191.57 224.117C191.57 223.575 191.488 223.099 191.324 222.688C191.165 222.274 190.925 221.95 190.606 221.718C190.287 221.481 189.893 221.362 189.424 221.362C188.941 221.362 188.537 221.488 188.214 221.738C187.89 221.984 187.646 222.315 187.482 222.729C187.323 223.144 187.243 223.607 187.243 224.117C187.243 224.641 187.325 225.104 187.489 225.505C187.653 225.906 187.897 226.22 188.221 226.448C188.544 226.672 188.945 226.783 189.424 226.783ZM198.058 228.164C197.365 228.164 196.757 228 196.232 227.672C195.713 227.344 195.307 226.883 195.016 226.291C194.724 225.699 194.578 225.01 194.578 224.227C194.578 223.429 194.724 222.734 195.016 222.142C195.307 221.545 195.713 221.082 196.232 220.754C196.757 220.426 197.365 220.262 198.058 220.262C198.755 220.262 199.366 220.426 199.89 220.754C200.414 221.082 200.822 221.545 201.113 222.142C201.405 222.734 201.551 223.429 201.551 224.227C201.551 225.01 201.405 225.699 201.113 226.291C200.822 226.883 200.414 227.344 199.89 227.672C199.366 228 198.755 228.164 198.058 228.164ZM198.058 227.063C198.573 227.063 198.996 226.931 199.329 226.667C199.662 226.403 199.908 226.056 200.067 225.628C200.227 225.195 200.307 224.728 200.307 224.227C200.307 223.721 200.227 223.251 200.067 222.818C199.908 222.381 199.662 222.03 199.329 221.766C198.996 221.497 198.573 221.362 198.058 221.362C197.547 221.362 197.128 221.497 196.8 221.766C196.472 222.03 196.228 222.379 196.068 222.812C195.909 223.244 195.829 223.716 195.829 224.227C195.829 224.728 195.909 225.195 196.068 225.628C196.228 226.056 196.472 226.403 196.8 226.667C197.128 226.931 197.547 227.063 198.058 227.063Z" fill="#111827"/>
<rect x="520" y="215" width="16" height="16" rx="8" fill="white"/>
<rect x="520" y="215" width="16" height="16" rx="8" stroke="#E4E4E7"/>
<rect x="37.9023" y="274.07" width="4.34127" height="4.34127" transform="rotate(-45 37.9023 274.07)" stroke="#111827" stroke-linejoin="round"/>
<rect x="37.9023" y="283.93" width="4.34127" height="4.34127" transform="rotate(-45 37.9023 283.93)" stroke="#111827" stroke-linejoin="round"/>
<rect x="42.8604" y="279.024" width="4.34127" height="4.34127" transform="rotate(-45 42.8604 279.024)" stroke="#111827" stroke-linejoin="round"/>
<rect x="33" y="279.024" width="4.34127" height="4.34127" transform="rotate(-45 33 279.024)" stroke="#111827" stroke-linejoin="round"/>
<path d="M62.125 276.32V277.906H57.1562V276.32H62.125ZM58.4141 274.219H60.4375V282.555C60.4375 282.867 60.5052 283.096 60.6406 283.242C60.776 283.383 61 283.453 61.3125 283.453C61.4062 283.453 61.5286 283.443 61.6797 283.422C61.8359 283.401 61.9609 283.383 62.0547 283.367L62.3438 284.938C62.1302 285 61.9062 285.042 61.6719 285.062C61.4427 285.089 61.2188 285.102 61 285.102C60.1667 285.102 59.526 284.898 59.0781 284.492C58.6354 284.086 58.4141 283.5 58.4141 282.734V274.219ZM66.6797 285.117C66.0859 285.117 65.5625 284.99 65.1094 284.734C64.6615 284.479 64.3125 284.107 64.0625 283.617C63.8177 283.122 63.6953 282.526 63.6953 281.828V276.32H65.7188V281.516C65.7188 282.104 65.8698 282.565 66.1719 282.898C66.4792 283.227 66.8984 283.391 67.4297 283.391C67.7891 283.391 68.1068 283.312 68.3828 283.156C68.6641 283 68.8828 282.773 69.0391 282.477C69.2005 282.174 69.2812 281.81 69.2812 281.383V276.32H71.3125V285H69.3828L69.3594 282.844H69.5391C69.2943 283.604 68.9323 284.174 68.4531 284.555C67.974 284.93 67.3828 285.117 66.6797 285.117ZM73.4297 285V276.32H75.3906V277.773H75.4766C75.6328 277.268 75.901 276.88 76.2812 276.609C76.6667 276.339 77.112 276.203 77.6172 276.203C77.7318 276.203 77.8568 276.208 77.9922 276.219C78.1328 276.229 78.25 276.242 78.3438 276.258V278.117C78.2656 278.091 78.1328 278.068 77.9453 278.047C77.7578 278.026 77.5729 278.016 77.3906 278.016C77.0208 278.016 76.6875 278.096 76.3906 278.258C76.099 278.414 75.8698 278.635 75.7031 278.922C75.5365 279.203 75.4531 279.534 75.4531 279.914V285H73.4297ZM84.5234 285.164C84.0391 285.164 83.6328 285.083 83.3047 284.922C82.9766 284.755 82.7083 284.555 82.5 284.32C82.2969 284.081 82.1406 283.852 82.0312 283.633H81.9141V285H79.9297V273.359H81.9531V277.734H82.0312C82.1458 277.516 82.3021 277.289 82.5 277.055C82.6979 276.815 82.9609 276.615 83.2891 276.453C83.6172 276.286 84.0312 276.203 84.5312 276.203C85.2083 276.203 85.8177 276.378 86.3594 276.727C86.901 277.07 87.3307 277.576 87.6484 278.242C87.9661 278.909 88.125 279.719 88.125 280.672C88.125 281.62 87.9688 282.427 87.6562 283.094C87.349 283.76 86.9245 284.273 86.3828 284.633C85.8411 284.987 85.2214 285.164 84.5234 285.164ZM83.9844 283.492C84.4323 283.492 84.8099 283.372 85.1172 283.133C85.4245 282.888 85.6562 282.552 85.8125 282.125C85.974 281.698 86.0547 281.211 86.0547 280.664C86.0547 280.122 85.9766 279.641 85.8203 279.219C85.6641 278.797 85.4323 278.466 85.125 278.227C84.8177 277.987 84.4375 277.867 83.9844 277.867C83.5417 277.867 83.1641 277.984 82.8516 278.219C82.5443 278.448 82.3099 278.773 82.1484 279.195C81.987 279.612 81.9062 280.102 81.9062 280.664C81.9062 281.227 81.987 281.721 82.1484 282.148C82.3099 282.57 82.5469 282.901 82.8594 283.141C83.1719 283.375 83.5469 283.492 83.9844 283.492ZM93.6328 285.18C92.7891 285.18 92.0547 284.992 91.4297 284.617C90.8047 284.242 90.3203 283.719 89.9766 283.047C89.638 282.375 89.4688 281.594 89.4688 280.703C89.4688 279.802 89.638 279.016 89.9766 278.344C90.3203 277.667 90.8047 277.141 91.4297 276.766C92.0547 276.391 92.7891 276.203 93.6328 276.203C94.4766 276.203 95.2109 276.391 95.8359 276.766C96.4609 277.141 96.9427 277.667 97.2812 278.344C97.625 279.016 97.7969 279.802 97.7969 280.703C97.7969 281.594 97.625 282.375 97.2812 283.047C96.9427 283.719 96.4609 284.242 95.8359 284.617C95.2109 284.992 94.4766 285.18 93.6328 285.18ZM93.6328 283.531C94.1016 283.531 94.4922 283.406 94.8047 283.156C95.1172 282.901 95.3516 282.56 95.5078 282.133C95.6641 281.706 95.7422 281.227 95.7422 280.695C95.7422 280.159 95.6641 279.677 95.5078 279.25C95.3516 278.818 95.1172 278.477 94.8047 278.227C94.4922 277.977 94.1016 277.852 93.6328 277.852C93.1641 277.852 92.7734 277.977 92.4609 278.227C92.1536 278.477 91.9219 278.815 91.7656 279.242C91.6094 279.669 91.5312 280.154 91.5312 280.695C91.5312 281.227 91.6094 281.706 91.7656 282.133C91.9219 282.56 92.1536 282.901 92.4609 283.156C92.7734 283.406 93.1641 283.531 93.6328 283.531Z" fill="#111827"/>
<path fill-rule="evenodd" clip-rule="evenodd" d="M114 271.938C111.816 271.938 110.046 273.708 110.046 275.892V277.464C110.046 277.464 110.046 277.464 110.046 277.464H107.783C107.507 277.464 107.283 277.688 107.283 277.964V285.562C107.283 285.838 107.507 286.062 107.783 286.062H120.217C120.493 286.062 120.717 285.838 120.717 285.562V277.964C120.717 277.688 120.493 277.464 120.217 277.464H117.954C117.954 277.464 117.954 277.464 117.954 277.464V275.892C117.954 273.708 116.184 271.938 114 271.938ZM111.046 275.892C111.046 274.26 112.369 272.938 114 272.938C115.631 272.938 116.954 274.26 116.954 275.892V277.464H111.046V275.892ZM108.283 285.062V278.464H119.717V285.062H108.283Z" fill="#111827"/>
<path d="M133.416 284.137C132.992 284.137 132.568 284.059 132.145 283.904C131.721 283.749 131.333 283.49 130.982 283.125C130.636 282.76 130.358 282.266 130.148 281.642C129.939 281.017 129.834 280.236 129.834 279.297C129.834 278.399 129.918 277.604 130.087 276.911C130.26 276.214 130.508 275.626 130.832 275.147C131.16 274.664 131.554 274.3 132.015 274.054C132.475 273.803 132.994 273.678 133.573 273.678C134.143 273.678 134.653 273.792 135.104 274.02C135.556 274.247 135.925 274.564 136.212 274.97C136.499 275.375 136.684 275.845 136.766 276.378H135.494C135.38 275.936 135.164 275.567 134.845 275.271C134.526 274.974 134.102 274.826 133.573 274.826C133.054 274.826 132.605 274.979 132.227 275.284C131.853 275.59 131.566 276.032 131.365 276.61C131.165 277.185 131.064 277.88 131.064 278.695H131.146C131.329 278.413 131.548 278.171 131.803 277.971C132.058 277.766 132.343 277.611 132.657 277.506C132.972 277.396 133.304 277.342 133.655 277.342C134.239 277.342 134.772 277.485 135.255 277.772C135.738 278.06 136.123 278.458 136.41 278.969C136.702 279.475 136.848 280.056 136.848 280.712C136.848 281.345 136.706 281.922 136.424 282.441C136.141 282.956 135.743 283.369 135.228 283.679C134.713 283.984 134.109 284.137 133.416 284.137ZM133.416 282.995C133.826 282.995 134.195 282.893 134.523 282.688C134.852 282.482 135.111 282.209 135.303 281.867C135.494 281.521 135.59 281.136 135.59 280.712C135.59 280.297 135.496 279.921 135.31 279.584C135.127 279.242 134.874 278.971 134.551 278.771C134.227 278.57 133.86 278.47 133.45 278.47C133.14 278.47 132.851 278.531 132.582 278.654C132.318 278.773 132.085 278.939 131.885 279.153C131.684 279.363 131.527 279.604 131.413 279.878C131.304 280.147 131.249 280.429 131.249 280.726C131.249 281.127 131.342 281.5 131.529 281.847C131.716 282.188 131.974 282.466 132.302 282.681C132.63 282.89 133.001 282.995 133.416 282.995ZM142.146 273.814V284H140.867V275.018H140.799L138.338 276.843V275.448L140.553 273.814H142.146ZM147.327 284.164C146.694 284.164 146.133 284.002 145.646 283.679C145.158 283.355 144.777 282.897 144.504 282.305C144.23 281.712 144.094 281.01 144.094 280.199C144.094 279.393 144.23 278.695 144.504 278.107C144.782 277.515 145.165 277.059 145.652 276.74C146.14 276.421 146.701 276.262 147.334 276.262C147.831 276.262 148.225 276.344 148.517 276.508C148.808 276.672 149.032 276.859 149.187 277.068C149.346 277.273 149.467 277.444 149.549 277.581H149.645V273.814H150.875V284H149.686V282.817H149.549C149.467 282.959 149.344 283.136 149.18 283.351C149.02 283.56 148.792 283.749 148.496 283.918C148.204 284.082 147.815 284.164 147.327 284.164ZM147.512 283.063C147.977 283.063 148.368 282.943 148.688 282.701C149.007 282.455 149.248 282.116 149.412 281.683C149.576 281.25 149.658 280.751 149.658 280.186C149.658 279.62 149.576 279.128 149.412 278.709C149.253 278.285 149.013 277.955 148.694 277.718C148.375 277.481 147.981 277.362 147.512 277.362C147.029 277.362 146.625 277.488 146.302 277.738C145.983 277.989 145.743 278.328 145.584 278.757C145.424 279.181 145.345 279.657 145.345 280.186C145.345 280.719 145.424 281.204 145.584 281.642C145.748 282.075 145.992 282.421 146.315 282.681C146.639 282.936 147.038 283.063 147.512 283.063ZM159.83 284.164C159.201 284.164 158.643 284.002 158.155 283.679C157.672 283.355 157.292 282.897 157.014 282.305C156.74 281.712 156.604 281.01 156.604 280.199C156.604 279.393 156.743 278.695 157.021 278.107C157.299 277.515 157.681 277.059 158.169 276.74C158.661 276.421 159.224 276.262 159.857 276.262C160.35 276.262 160.742 276.344 161.033 276.508C161.325 276.667 161.548 276.852 161.703 277.062C161.858 277.271 161.977 277.444 162.059 277.581H162.161V276.357H163.385V284H162.168V282.817H162.059C161.977 282.959 161.854 283.136 161.689 283.351C161.53 283.565 161.302 283.754 161.006 283.918C160.71 284.082 160.318 284.164 159.83 284.164ZM160.035 283.063C160.5 283.063 160.892 282.943 161.211 282.701C161.53 282.455 161.771 282.116 161.936 281.683C162.1 281.25 162.182 280.751 162.182 280.186C162.182 279.62 162.1 279.128 161.936 278.709C161.776 278.285 161.537 277.955 161.218 277.718C160.899 277.481 160.505 277.362 160.035 277.362C159.552 277.362 159.149 277.488 158.825 277.738C158.502 277.984 158.258 278.322 158.094 278.75C157.934 279.174 157.854 279.652 157.854 280.186C157.854 280.719 157.937 281.204 158.101 281.642C158.265 282.075 158.508 282.421 158.832 282.681C159.156 282.936 159.557 283.063 160.035 283.063ZM168.642 287.021C168.076 287.021 167.587 286.949 167.172 286.803C166.762 286.661 166.42 286.472 166.146 286.235C165.873 285.998 165.657 285.741 165.497 285.463L166.495 284.82C166.604 284.966 166.739 285.128 166.898 285.306C167.062 285.483 167.281 285.634 167.555 285.757C167.833 285.884 168.195 285.948 168.642 285.948C169.252 285.948 169.754 285.802 170.146 285.511C170.542 285.219 170.74 284.759 170.74 284.13V282.599H170.624C170.537 282.744 170.414 282.918 170.255 283.118C170.1 283.319 169.874 283.496 169.578 283.651C169.286 283.802 168.895 283.877 168.402 283.877C167.792 283.877 167.243 283.733 166.755 283.446C166.267 283.155 165.882 282.731 165.6 282.175C165.317 281.619 165.176 280.942 165.176 280.145C165.176 279.356 165.315 278.673 165.593 278.094C165.871 277.51 166.254 277.059 166.741 276.74C167.233 276.421 167.796 276.262 168.43 276.262C168.922 276.262 169.314 276.344 169.605 276.508C169.902 276.667 170.13 276.852 170.289 277.062C170.449 277.271 170.572 277.444 170.658 277.581H170.774V276.357H171.971V284.198C171.971 284.854 171.823 285.39 171.526 285.805C171.23 286.224 170.829 286.532 170.323 286.728C169.822 286.924 169.261 287.021 168.642 287.021ZM168.607 282.783C169.072 282.783 169.464 282.678 169.783 282.469C170.102 282.255 170.344 281.949 170.508 281.553C170.672 281.152 170.754 280.673 170.754 280.117C170.754 279.575 170.672 279.099 170.508 278.688C170.348 278.274 170.109 277.95 169.79 277.718C169.471 277.481 169.077 277.362 168.607 277.362C168.124 277.362 167.721 277.488 167.397 277.738C167.074 277.984 166.83 278.315 166.666 278.729C166.507 279.144 166.427 279.607 166.427 280.117C166.427 280.641 166.509 281.104 166.673 281.505C166.837 281.906 167.081 282.22 167.404 282.448C167.728 282.672 168.129 282.783 168.607 282.783ZM177.241 284.164C176.549 284.164 175.94 284 175.416 283.672C174.896 283.344 174.491 282.883 174.199 282.291C173.908 281.699 173.762 281.01 173.762 280.227C173.762 279.429 173.908 278.734 174.199 278.142C174.491 277.545 174.896 277.082 175.416 276.754C175.94 276.426 176.549 276.262 177.241 276.262C177.938 276.262 178.549 276.426 179.073 276.754C179.597 277.082 180.005 277.545 180.297 278.142C180.589 278.734 180.734 279.429 180.734 280.227C180.734 281.01 180.589 281.699 180.297 282.291C180.005 282.883 179.597 283.344 179.073 283.672C178.549 284 177.938 284.164 177.241 284.164ZM177.241 283.063C177.756 283.063 178.18 282.931 178.513 282.667C178.845 282.403 179.091 282.056 179.251 281.628C179.41 281.195 179.49 280.728 179.49 280.227C179.49 279.721 179.41 279.251 179.251 278.818C179.091 278.381 178.845 278.03 178.513 277.766C178.18 277.497 177.756 277.362 177.241 277.362C176.731 277.362 176.312 277.497 175.983 277.766C175.655 278.03 175.411 278.379 175.252 278.812C175.092 279.244 175.013 279.716 175.013 280.227C175.013 280.728 175.092 281.195 175.252 281.628C175.411 282.056 175.655 282.403 175.983 282.667C176.312 282.931 176.731 283.063 177.241 283.063Z" fill="#111827"/>
<rect x="520" y="271" width="16" height="16" rx="8" fill="white"/>
<rect x="520" y="271" width="16" height="16" rx="8" stroke="#E4E4E7"/>
</g>
<rect x="17" y="15" width="535" height="340" rx="4" stroke="#E4E4E7"/>
</g>
<defs>
<filter id="filter0_dd_3945_99040" x="0.5" y="0.5" width="568" height="373" filterUnits="userSpaceOnUse" color-interpolation-filters="sRGB">
<feFlood flood-opacity="0" result="BackgroundImageFix"/>
<feColorMatrix in="SourceAlpha" type="matrix" values="0 0 0 0 0 0 0 0 0 0 0 0 0 0 0 0 0 0 127 0" result="hardAlpha"/>
<feOffset dy="2"/>
<feGaussianBlur stdDeviation="8"/>
<feColorMatrix type="matrix" values="0 0 0 0 0.129412 0 0 0 0 0.168627 0 0 0 0 0.211765 0 0 0 0.08 0"/>
<feBlend mode="normal" in2="BackgroundImageFix" result="effect1_dropShadow_3945_99040"/>
<feColorMatrix in="SourceAlpha" type="matrix" values="0 0 0 0 0 0 0 0 0 0 0 0 0 0 0 0 0 0 127 0" result="hardAlpha"/>
<feMorphology radius="1" operator="dilate" in="SourceAlpha" result="effect2_dropShadow_3945_99040"/>
<feOffset/>
<feColorMatrix type="matrix" values="0 0 0 0 0.0235294 0 0 0 0 0.172549 0 0 0 0 0.321569 0 0 0 0.1 0"/>
<feBlend mode="normal" in2="effect1_dropShadow_3945_99040" result="effect2_dropShadow_3945_99040"/>
<feBlend mode="normal" in="SourceGraphic" in2="effect2_dropShadow_3945_99040" result="shape"/>
</filter>
<clipPath id="clip0_3945_99040">
<rect x="17" y="15" width="535" height="340" rx="4" fill="white"/>
</clipPath>
<clipPath id="clip1_3945_99040">
<rect x="294.5" y="31" width="241.5" height="36" rx="4" fill="white"/>
</clipPath>
</defs>
</svg>
