<svg width="393" height="318" viewBox="0 0 393 318" fill="none" xmlns="http://www.w3.org/2000/svg">
<g filter="url(#filter0_dd_3945_109494)">
<g clip-path="url(#clip0_3945_109494)">
<rect x="16.5" y="15.3999" width="360" height="327.824" rx="4" fill="white"/>
<rect x="32.5" y="31.3999" width="154" height="36" rx="4" fill="white"/>
<rect x="32.5" y="31.3999" width="154" height="36" rx="4" stroke="#E4E4E7"/>
<path fill-rule="evenodd" clip-rule="evenodd" d="M54.4453 57.2809C57.9235 56.412 60.5 53.2664 60.5 49.519C60.5 45.1008 56.9183 41.519 52.5 41.519C48.0817 41.519 44.5 45.1008 44.5 49.519C44.5 53.2661 47.0761 56.4114 50.5538 57.2806C50.5267 57.1499 50.5125 57.0144 50.5125 56.8757V55.1513C49.9123 55.3285 48.5786 55.4244 47.9507 54.4113C47.8264 54.0817 47.4681 53.3548 47.03 53.0835C46.4824 52.7442 46.6639 52.6389 46.7452 52.5922C46.958 52.5363 47.4922 52.5378 47.9265 52.9914C48.0089 53.0818 48.1921 53.2947 48.2657 53.4227L48.2716 53.4329C48.3802 53.6232 48.9649 54.6468 50.524 54.0527L50.5809 54.0354C50.6782 53.6747 50.8745 53.3546 51.1389 53.1061C50.7479 53.0494 50.3795 52.9691 50.0417 52.8689C48.5249 52.4899 47.4138 51.1334 47.4139 49.2678C47.414 48.2597 47.7298 47.474 48.2458 46.8614C47.9267 46.1258 48.1733 45.1904 48.3388 44.8105C49.0662 44.7156 50.0862 45.3307 50.4595 45.5864C51.0668 45.4416 51.7669 45.3662 52.5444 45.3662C53.2741 45.3662 53.9645 45.4426 54.5721 45.5816C54.9796 45.3127 55.9475 44.7162 56.6763 44.8182C56.8419 45.1751 57.0911 46.0635 56.8 46.8247C57.3327 47.477 57.6557 48.3319 57.6557 49.2678C57.6557 50.7575 56.8316 52.0703 55.653 52.6282C55.1507 52.8468 54.5409 53.0135 53.864 53.1097C54.2474 53.4719 54.4867 53.9852 54.4867 54.5543V56.8757C54.4867 57.0145 54.4724 57.1501 54.4453 57.2809Z" fill="#111827"/>
<path d="M70.6191 51.4878V50.1001C70.8516 49.7811 71.0817 49.4757 71.3096 49.1841C71.542 48.8924 71.779 48.6076 72.0205 48.3296C72.262 48.0516 72.5104 47.7759 72.7656 47.5024L75.8076 44.2144H77.5098L73.1621 48.8765L73.0938 48.8696L70.6191 51.4878ZM69.7305 54.3999V44.2144H71.0293V47.7007L71.0088 49.895L71.0293 50.5308V54.3999H69.7305ZM75.9785 54.3999L72.2939 49.2183L73.1006 48.2065L77.5166 54.3999H75.9785ZM80.2168 44.2144V54.3999H78.9863V44.2144H80.2168ZM85.4873 54.564C84.7946 54.564 84.1862 54.3999 83.6621 54.0718C83.1426 53.7437 82.737 53.2834 82.4453 52.6909C82.1536 52.0985 82.0078 51.4103 82.0078 50.6265C82.0078 49.8289 82.1536 49.134 82.4453 48.5415C82.737 47.9445 83.1426 47.4819 83.6621 47.1538C84.1862 46.8257 84.7946 46.6616 85.4873 46.6616C86.1846 46.6616 86.7952 46.8257 87.3193 47.1538C87.8434 47.4819 88.2513 47.9445 88.543 48.5415C88.8346 49.134 88.9805 49.8289 88.9805 50.6265C88.9805 51.4103 88.8346 52.0985 88.543 52.6909C88.2513 53.2834 87.8434 53.7437 87.3193 54.0718C86.7952 54.3999 86.1846 54.564 85.4873 54.564ZM85.4873 53.4634C86.0023 53.4634 86.4261 53.3312 86.7588 53.0669C87.0915 52.8026 87.3376 52.4562 87.4971 52.0278C87.6566 51.5949 87.7363 51.1278 87.7363 50.6265C87.7363 50.1206 87.6566 49.6512 87.4971 49.2183C87.3376 48.7808 87.0915 48.4299 86.7588 48.1655C86.4261 47.8966 86.0023 47.7622 85.4873 47.7622C84.9769 47.7622 84.5576 47.8966 84.2295 48.1655C83.9014 48.4299 83.6576 48.7785 83.498 49.2114C83.3385 49.6444 83.2588 50.116 83.2588 50.6265C83.2588 51.1278 83.3385 51.5949 83.498 52.0278C83.6576 52.4562 83.9014 52.8026 84.2295 53.0669C84.5576 53.3312 84.9769 53.4634 85.4873 53.4634ZM93.3623 54.4956C92.8473 54.4956 92.3939 54.3908 92.002 54.1812C91.6146 53.967 91.3115 53.6457 91.0928 53.2173C90.8786 52.7889 90.7715 52.2534 90.7715 51.6108V46.7573H92.002V51.5083C92.002 52.0962 92.1569 52.5565 92.4668 52.8892C92.7767 53.2218 93.1982 53.3882 93.7314 53.3882C94.096 53.3882 94.4219 53.3084 94.709 53.1489C95.0007 52.9894 95.2308 52.757 95.3994 52.4517C95.568 52.1418 95.6523 51.7703 95.6523 51.3374V46.7573H96.8896V54.3999H95.7002V52.5474H95.8643C95.6273 53.2629 95.29 53.7664 94.8525 54.0581C94.4196 54.3498 93.9229 54.4956 93.3623 54.4956ZM101.921 54.564C101.287 54.564 100.727 54.4022 100.239 54.0786C99.7516 53.755 99.3711 53.297 99.0977 52.7046C98.8242 52.1121 98.6875 51.4103 98.6875 50.5991C98.6875 49.7925 98.8242 49.0952 99.0977 48.5073C99.3757 47.9149 99.7585 47.4591 100.246 47.1401C100.734 46.8211 101.294 46.6616 101.928 46.6616C102.424 46.6616 102.819 46.7437 103.11 46.9077C103.402 47.0718 103.625 47.2586 103.78 47.4683C103.94 47.6733 104.061 47.8442 104.143 47.981H104.238V44.2144H105.469V54.3999H104.279V53.2173H104.143C104.061 53.3586 103.938 53.5363 103.773 53.7505C103.614 53.9601 103.386 54.1493 103.09 54.3179C102.798 54.4819 102.409 54.564 101.921 54.564ZM102.105 53.4634C102.57 53.4634 102.962 53.3426 103.281 53.1011C103.6 52.855 103.842 52.5155 104.006 52.0825C104.17 51.6496 104.252 51.1506 104.252 50.5854C104.252 50.0203 104.17 49.5282 104.006 49.1089C103.846 48.6851 103.607 48.3547 103.288 48.1177C102.969 47.8807 102.575 47.7622 102.105 47.7622C101.622 47.7622 101.219 47.8875 100.896 48.1382C100.576 48.3888 100.337 48.7284 100.178 49.1567C100.018 49.5806 99.9385 50.0568 99.9385 50.5854C99.9385 51.1187 100.018 51.604 100.178 52.0415C100.342 52.4744 100.586 52.8208 100.909 53.0806C101.233 53.3358 101.632 53.4634 102.105 53.4634ZM108.859 44.2144V54.3999H107.629V44.2144H108.859ZM111.02 54.3999V46.7573H112.25V54.3999H111.02ZM111.642 45.5063C111.409 45.5063 111.209 45.4266 111.04 45.2671C110.871 45.1076 110.787 44.9162 110.787 44.6929C110.787 44.465 110.871 44.2736 111.04 44.1187C111.209 43.9591 111.409 43.8794 111.642 43.8794C111.879 43.8794 112.081 43.9591 112.25 44.1187C112.419 44.2736 112.503 44.465 112.503 44.6929C112.503 44.9162 112.419 45.1076 112.25 45.2671C112.081 45.4266 111.879 45.5063 111.642 45.5063ZM117.418 46.7573V47.8101H113.467V46.7573H117.418ZM114.615 44.939H115.846V52.4175C115.846 52.7593 115.914 53.0099 116.051 53.1694C116.192 53.3244 116.424 53.4019 116.748 53.4019C116.826 53.4019 116.924 53.3927 117.042 53.3745C117.165 53.3563 117.277 53.3381 117.377 53.3198L117.63 54.3589C117.502 54.4045 117.356 54.4386 117.192 54.4614C117.033 54.4842 116.873 54.4956 116.714 54.4956C116.053 54.4956 115.538 54.3224 115.169 53.9761C114.8 53.6252 114.615 53.1375 114.615 52.5132V44.939ZM122.066 54.564C121.328 54.564 120.69 54.3999 120.152 54.0718C119.619 53.7437 119.207 53.2856 118.915 52.6978C118.628 52.1099 118.484 51.424 118.484 50.6401C118.484 49.8563 118.626 49.1659 118.908 48.5688C119.191 47.9718 119.59 47.5047 120.104 47.1675C120.624 46.8302 121.23 46.6616 121.923 46.6616C122.328 46.6616 122.727 46.73 123.119 46.8667C123.516 46.9989 123.873 47.2153 124.192 47.5161C124.516 47.8123 124.773 48.2043 124.965 48.6919C125.156 49.1795 125.252 49.7765 125.252 50.4829V50.9956H119.318V49.9565H124.589L124.015 50.3394C124.015 49.8381 123.935 49.3937 123.775 49.0063C123.62 48.6144 123.388 48.3091 123.078 48.0903C122.768 47.867 122.383 47.7554 121.923 47.7554C121.463 47.7554 121.068 47.8693 120.74 48.0972C120.412 48.3205 120.161 48.6144 119.988 48.979C119.815 49.339 119.729 49.7264 119.729 50.1411V50.8315C119.729 51.3966 119.826 51.8774 120.022 52.2739C120.218 52.6659 120.492 52.9644 120.843 53.1694C121.198 53.37 121.608 53.4702 122.073 53.4702C122.374 53.4702 122.647 53.4269 122.894 53.3403C123.14 53.2537 123.352 53.1239 123.529 52.9507C123.707 52.7729 123.844 52.5542 123.939 52.2944L125.129 52.6226C125.01 53.0054 124.81 53.3426 124.527 53.6343C124.245 53.9259 123.894 54.1538 123.475 54.3179C123.06 54.4819 122.59 54.564 122.066 54.564Z" fill="#111827"/>
<path d="M166.146 52.0463L161.354 47.2535C161.039 46.9385 161.262 46.3999 161.707 46.3999H171.293C171.738 46.3999 171.961 46.9385 171.646 47.2535L166.854 52.0463C166.658 52.2416 166.342 52.2416 166.146 52.0463Z" fill="#111827"/>
<g clip-path="url(#clip1_3945_109494)">
<rect x="206.5" y="31.3999" width="154" height="36" rx="4" fill="white"/>
<path d="M223.646 55.1912C227.316 55.1912 230.292 52.2158 230.292 48.5455C230.292 44.8752 227.316 41.8999 223.646 41.8999C219.975 41.8999 217 44.8752 217 48.5455C217 52.2158 219.975 55.1912 223.646 55.1912Z" stroke="#111827" stroke-linecap="round" stroke-linejoin="round"/>
<path d="M228.345 53.2449L232 56.8998" stroke="#111827" stroke-linecap="round" stroke-linejoin="round"/>
<path d="M250.991 54.5776C250.257 54.5776 249.619 54.4591 249.077 54.2222C248.539 53.9852 248.118 53.6548 247.812 53.231C247.507 52.8026 247.334 52.3035 247.293 51.7339H248.626C248.662 52.1167 248.792 52.4334 249.016 52.6841C249.239 52.9302 249.524 53.1147 249.87 53.2378C250.221 53.3563 250.595 53.4155 250.991 53.4155C251.451 53.4155 251.864 53.3403 252.229 53.1899C252.598 53.0396 252.889 52.8276 253.104 52.5542C253.318 52.2808 253.425 51.964 253.425 51.604C253.425 51.2759 253.331 51.0093 253.145 50.8042C252.962 50.5991 252.718 50.4305 252.413 50.2983C252.108 50.1662 251.773 50.05 251.408 49.9497L250.178 49.6011C249.357 49.3687 248.719 49.036 248.264 48.603C247.808 48.1701 247.58 47.6164 247.58 46.9419C247.58 46.3677 247.735 45.8664 248.045 45.438C248.355 45.005 248.774 44.6701 249.303 44.4331C249.831 44.1961 250.424 44.0776 251.08 44.0776C251.75 44.0776 252.342 44.1961 252.857 44.4331C253.372 44.6701 253.778 44.9937 254.074 45.4038C254.375 45.8094 254.535 46.2697 254.553 46.7847H253.281C253.222 46.2879 252.985 45.9051 252.57 45.6362C252.156 45.3628 251.645 45.2261 251.039 45.2261C250.602 45.2261 250.216 45.299 249.884 45.4448C249.556 45.5861 249.3 45.7821 249.118 46.0327C248.936 46.2788 248.845 46.5614 248.845 46.8804C248.845 47.2358 248.954 47.5229 249.173 47.7417C249.396 47.9559 249.658 48.1245 249.959 48.2476C250.264 48.366 250.54 48.4595 250.786 48.5278L251.805 48.8081C252.078 48.881 252.379 48.9813 252.707 49.1089C253.04 49.2365 253.356 49.4074 253.657 49.6216C253.958 49.8312 254.204 50.1001 254.396 50.4282C254.591 50.7518 254.689 51.1506 254.689 51.6245C254.689 52.1805 254.544 52.6818 254.252 53.1284C253.965 53.575 253.546 53.9282 252.994 54.188C252.443 54.4478 251.775 54.5776 250.991 54.5776ZM259.775 54.564C259.037 54.564 258.399 54.3999 257.861 54.0718C257.328 53.7437 256.916 53.2856 256.624 52.6978C256.337 52.1099 256.193 51.424 256.193 50.6401C256.193 49.8563 256.335 49.1659 256.617 48.5688C256.9 47.9718 257.299 47.5047 257.813 47.1675C258.333 46.8302 258.939 46.6616 259.632 46.6616C260.037 46.6616 260.436 46.73 260.828 46.8667C261.225 46.9989 261.582 47.2153 261.901 47.5161C262.225 47.8123 262.482 48.2043 262.674 48.6919C262.865 49.1795 262.961 49.7765 262.961 50.4829V50.9956H257.027V49.9565H262.298L261.724 50.3394C261.724 49.8381 261.644 49.3937 261.484 49.0063C261.329 48.6144 261.097 48.3091 260.787 48.0903C260.477 47.867 260.092 47.7554 259.632 47.7554C259.172 47.7554 258.777 47.8693 258.449 48.0972C258.121 48.3205 257.87 48.6144 257.697 48.979C257.524 49.339 257.438 49.7264 257.438 50.1411V50.8315C257.438 51.3966 257.535 51.8774 257.731 52.2739C257.927 52.6659 258.201 52.9644 258.552 53.1694C258.907 53.37 259.317 53.4702 259.782 53.4702C260.083 53.4702 260.356 53.4269 260.603 53.3403C260.849 53.2537 261.061 53.1239 261.238 52.9507C261.416 52.7729 261.553 52.5542 261.648 52.2944L262.838 52.6226C262.719 53.0054 262.519 53.3426 262.236 53.6343C261.954 53.9259 261.603 54.1538 261.184 54.3179C260.769 54.4819 260.299 54.564 259.775 54.564ZM267.582 54.564C266.953 54.564 266.395 54.4022 265.907 54.0786C265.424 53.755 265.044 53.297 264.766 52.7046C264.492 52.1121 264.355 51.4103 264.355 50.5991C264.355 49.7925 264.494 49.0952 264.772 48.5073C265.05 47.9149 265.433 47.4591 265.921 47.1401C266.413 46.8211 266.976 46.6616 267.609 46.6616C268.102 46.6616 268.493 46.7437 268.785 46.9077C269.077 47.0672 269.3 47.2518 269.455 47.4614C269.61 47.6711 269.729 47.8442 269.811 47.981H269.913V46.7573H271.137V54.3999H269.92V53.2173H269.811C269.729 53.3586 269.605 53.5363 269.441 53.7505C269.282 53.9647 269.054 54.1538 268.758 54.3179C268.462 54.4819 268.07 54.564 267.582 54.564ZM267.787 53.4634C268.252 53.4634 268.644 53.3426 268.963 53.1011C269.282 52.855 269.523 52.5155 269.688 52.0825C269.852 51.6496 269.934 51.1506 269.934 50.5854C269.934 50.0203 269.852 49.5282 269.688 49.1089C269.528 48.6851 269.289 48.3547 268.97 48.1177C268.651 47.8807 268.257 47.7622 267.787 47.7622C267.304 47.7622 266.901 47.8875 266.577 48.1382C266.254 48.3843 266.01 48.7215 265.846 49.1499C265.686 49.5737 265.606 50.0522 265.606 50.5854C265.606 51.1187 265.688 51.604 265.853 52.0415C266.017 52.4744 266.26 52.8208 266.584 53.0806C266.908 53.3358 267.309 53.4634 267.787 53.4634ZM273.297 54.3999V46.7573H274.486V47.9331H274.568C274.71 47.5457 274.96 47.2358 275.32 47.0034C275.685 46.7664 276.095 46.6479 276.551 46.6479C276.642 46.6479 276.749 46.6502 276.872 46.6548C277 46.6593 277.1 46.6639 277.173 46.6685V47.9058C277.136 47.8966 277.045 47.883 276.899 47.8647C276.754 47.8465 276.599 47.8374 276.435 47.8374C276.07 47.8374 275.742 47.9149 275.45 48.0698C275.163 48.2202 274.938 48.4299 274.773 48.6987C274.609 48.9631 274.527 49.2684 274.527 49.6147V54.3999H273.297ZM281.452 54.564C280.759 54.564 280.151 54.3999 279.627 54.0718C279.107 53.7437 278.702 53.2834 278.41 52.6909C278.118 52.0985 277.973 51.4103 277.973 50.6265C277.973 49.8289 278.118 49.134 278.41 48.5415C278.702 47.9445 279.107 47.4819 279.627 47.1538C280.151 46.8257 280.759 46.6616 281.452 46.6616C281.821 46.6616 282.17 46.7095 282.498 46.8052C282.826 46.9009 283.125 47.0399 283.394 47.2222C283.667 47.3999 283.902 47.6209 284.098 47.8853C284.294 48.145 284.444 48.4412 284.549 48.7739L283.366 49.1089C283.312 48.9129 283.227 48.7329 283.113 48.5688C282.999 48.4048 282.86 48.2635 282.696 48.145C282.537 48.022 282.352 47.9285 282.143 47.8647C281.933 47.7964 281.703 47.7622 281.452 47.7622C280.942 47.7622 280.522 47.8966 280.194 48.1655C279.866 48.4299 279.622 48.7785 279.463 49.2114C279.303 49.6444 279.224 50.116 279.224 50.6265C279.224 51.1278 279.303 51.5949 279.463 52.0278C279.622 52.4562 279.866 52.8026 280.194 53.0669C280.522 53.3312 280.942 53.4634 281.452 53.4634C281.707 53.4634 281.942 53.4292 282.156 53.3608C282.37 53.2925 282.56 53.1968 282.724 53.0737C282.892 52.9461 283.034 52.7957 283.147 52.6226C283.261 52.4494 283.346 52.2603 283.4 52.0552L284.576 52.3901C284.476 52.7319 284.326 53.0373 284.125 53.3062C283.929 53.5705 283.694 53.7983 283.421 53.9897C283.147 54.1766 282.844 54.3179 282.512 54.4136C282.179 54.5138 281.826 54.564 281.452 54.564ZM287.57 49.8198V54.3999H286.34V44.2144H287.57V48.6099H287.358C287.591 47.9035 287.921 47.4022 288.35 47.106C288.783 46.8097 289.288 46.6616 289.867 46.6616C290.382 46.6616 290.833 46.7687 291.221 46.9829C291.613 47.1925 291.916 47.5116 292.13 47.9399C292.349 48.3638 292.458 48.8993 292.458 49.5464V54.3999H291.221V49.6489C291.221 49.061 291.066 48.6007 290.756 48.2681C290.451 47.9354 290.031 47.769 289.498 47.769C289.133 47.769 288.805 47.8488 288.514 48.0083C288.222 48.1678 287.992 48.4002 287.823 48.7056C287.655 49.0109 287.57 49.3823 287.57 49.8198Z" fill="#9CA3AF"/>
</g>
<rect x="206.5" y="31.3999" width="154" height="36" rx="4" stroke="#E4E4E7"/>
<rect x="37.4023" y="106.47" width="4.34127" height="4.34127" transform="rotate(-45 37.4023 106.47)" stroke="#111827" stroke-linejoin="round"/>
<rect x="37.4023" y="116.33" width="4.34127" height="4.34127" transform="rotate(-45 37.4023 116.33)" stroke="#111827" stroke-linejoin="round"/>
<rect x="42.3604" y="111.424" width="4.34127" height="4.34127" transform="rotate(-45 42.3604 111.424)" stroke="#111827" stroke-linejoin="round"/>
<rect x="32.5" y="111.424" width="4.34127" height="4.34127" transform="rotate(-45 32.5 111.424)" stroke="#111827" stroke-linejoin="round"/>
<path d="M62.1484 117.564C61.6641 117.564 61.2578 117.483 60.9297 117.322C60.6016 117.155 60.3333 116.955 60.125 116.72C59.9219 116.481 59.7656 116.251 59.6562 116.033H59.5391V117.4H57.5547V105.759H59.5781V110.134H59.6562C59.7708 109.916 59.9271 109.689 60.125 109.455C60.3229 109.215 60.5859 109.014 60.9141 108.853C61.2422 108.686 61.6562 108.603 62.1562 108.603C62.8333 108.603 63.4427 108.778 63.9844 109.126C64.526 109.47 64.9557 109.975 65.2734 110.642C65.5911 111.309 65.75 112.119 65.75 113.072C65.75 114.02 65.5938 114.827 65.2812 115.494C64.974 116.16 64.5495 116.673 64.0078 117.033C63.4661 117.387 62.8464 117.564 62.1484 117.564ZM61.6094 115.892C62.0573 115.892 62.4349 115.772 62.7422 115.533C63.0495 115.288 63.2812 114.952 63.4375 114.525C63.599 114.098 63.6797 113.611 63.6797 113.064C63.6797 112.522 63.6016 112.041 63.4453 111.619C63.2891 111.197 63.0573 110.866 62.75 110.626C62.4427 110.387 62.0625 110.267 61.6094 110.267C61.1667 110.267 60.7891 110.384 60.4766 110.619C60.1693 110.848 59.9349 111.173 59.7734 111.595C59.612 112.012 59.5312 112.501 59.5312 113.064C59.5312 113.626 59.612 114.121 59.7734 114.548C59.9349 114.97 60.1719 115.301 60.4844 115.541C60.7969 115.775 61.1719 115.892 61.6094 115.892ZM69.5 105.759V117.4H67.4766V105.759H69.5ZM75.3984 117.58C74.5547 117.58 73.8203 117.392 73.1953 117.017C72.5703 116.642 72.0859 116.119 71.7422 115.447C71.4036 114.775 71.2344 113.994 71.2344 113.103C71.2344 112.202 71.4036 111.416 71.7422 110.744C72.0859 110.067 72.5703 109.541 73.1953 109.166C73.8203 108.791 74.5547 108.603 75.3984 108.603C76.2422 108.603 76.9766 108.791 77.6016 109.166C78.2266 109.541 78.7083 110.067 79.0469 110.744C79.3906 111.416 79.5625 112.202 79.5625 113.103C79.5625 113.994 79.3906 114.775 79.0469 115.447C78.7083 116.119 78.2266 116.642 77.6016 117.017C76.9766 117.392 76.2422 117.58 75.3984 117.58ZM75.3984 115.931C75.8672 115.931 76.2578 115.806 76.5703 115.556C76.8828 115.301 77.1172 114.96 77.2734 114.533C77.4297 114.106 77.5078 113.626 77.5078 113.095C77.5078 112.559 77.4297 112.077 77.2734 111.65C77.1172 111.218 76.8828 110.876 76.5703 110.626C76.2578 110.376 75.8672 110.251 75.3984 110.251C74.9297 110.251 74.5391 110.376 74.2266 110.626C73.9193 110.876 73.6875 111.215 73.5312 111.642C73.375 112.069 73.2969 112.554 73.2969 113.095C73.2969 113.626 73.375 114.106 73.5312 114.533C73.6875 114.96 73.9193 115.301 74.2266 115.556C74.5391 115.806 74.9297 115.931 75.3984 115.931ZM85.0547 120.845C84.3516 120.845 83.7396 120.754 83.2188 120.572C82.7031 120.389 82.2812 120.139 81.9531 119.822C81.625 119.509 81.3906 119.155 81.25 118.759L83 118.205C83.0833 118.376 83.2057 118.546 83.3672 118.712C83.5339 118.884 83.7526 119.025 84.0234 119.134C84.2995 119.249 84.6406 119.306 85.0469 119.306C85.6771 119.306 86.1797 119.155 86.5547 118.853C86.9297 118.556 87.1172 118.095 87.1172 117.47V115.861H86.9609C86.8516 116.085 86.6979 116.306 86.5 116.525C86.3021 116.744 86.0417 116.926 85.7188 117.072C85.3958 117.218 84.9896 117.291 84.5 117.291C83.8281 117.291 83.2188 117.132 82.6719 116.814C82.1302 116.491 81.7005 116.014 81.3828 115.384C81.0651 114.749 80.9062 113.965 80.9062 113.033C80.9062 112.09 81.0651 111.291 81.3828 110.634C81.7057 109.973 82.138 109.47 82.6797 109.126C83.2266 108.778 83.8385 108.603 84.5156 108.603C85.0104 108.603 85.4219 108.686 85.75 108.853C86.0833 109.014 86.3516 109.215 86.5547 109.455C86.763 109.694 86.9219 109.923 87.0312 110.142H87.1328V108.72H89.1172V117.4C89.1172 118.181 88.9401 118.827 88.5859 119.337C88.237 119.848 87.7552 120.225 87.1406 120.47C86.5312 120.72 85.8359 120.845 85.0547 120.845ZM85.0547 115.681C85.4974 115.681 85.8724 115.577 86.1797 115.369C86.4922 115.155 86.7292 114.848 86.8906 114.447C87.0521 114.046 87.1328 113.569 87.1328 113.017C87.1328 112.465 87.0521 111.983 86.8906 111.572C86.7292 111.16 86.4948 110.84 86.1875 110.611C85.8802 110.382 85.5026 110.267 85.0547 110.267C84.6068 110.267 84.2266 110.387 83.9141 110.626C83.6068 110.861 83.3724 111.184 83.2109 111.595C83.0547 112.007 82.9766 112.481 82.9766 113.017C82.9766 113.554 83.0547 114.022 83.2109 114.423C83.3724 114.824 83.6068 115.134 83.9141 115.353C84.2266 115.572 84.6068 115.681 85.0547 115.681Z" fill="#111827"/>
<path fill-rule="evenodd" clip-rule="evenodd" d="M105.5 104.338C103.316 104.338 101.546 106.108 101.546 108.292V109.864C101.546 109.864 101.546 109.864 101.546 109.864H99.2832C99.0071 109.864 98.7832 110.088 98.7832 110.364V117.962C98.7832 118.238 99.0071 118.462 99.2832 118.462H111.717C111.993 118.462 112.217 118.238 112.217 117.962V110.364C112.217 110.088 111.993 109.864 111.717 109.864H109.454C109.454 109.864 109.454 109.864 109.454 109.864V108.292C109.454 106.108 107.684 104.338 105.5 104.338ZM102.546 108.292C102.546 106.66 103.869 105.338 105.5 105.338C107.131 105.338 108.454 106.66 108.454 108.292V109.864H102.546V108.292ZM99.7832 117.462V110.864H111.217V117.462H99.7832Z" fill="#111827"/>
<path d="M124.779 116.537C124.182 116.537 123.647 116.42 123.173 116.188C122.699 115.951 122.321 115.63 122.038 115.224C121.756 114.814 121.603 114.349 121.58 113.83H122.838C122.865 114.13 122.968 114.399 123.146 114.636C123.323 114.873 123.553 115.06 123.836 115.197C124.123 115.329 124.438 115.395 124.779 115.395C125.189 115.395 125.554 115.299 125.873 115.108C126.197 114.917 126.45 114.652 126.632 114.315C126.814 113.978 126.905 113.595 126.905 113.167C126.905 112.729 126.81 112.337 126.618 111.991C126.427 111.644 126.165 111.373 125.832 111.177C125.504 110.977 125.126 110.876 124.697 110.876C124.383 110.876 124.064 110.927 123.74 111.027C123.417 111.127 123.155 111.255 122.954 111.41L121.737 111.259L122.339 106.214H127.698V107.356H123.433L123.084 110.33H123.139C123.348 110.156 123.613 110.015 123.932 109.906C124.251 109.792 124.586 109.735 124.937 109.735C125.401 109.735 125.83 109.819 126.222 109.988C126.618 110.156 126.962 110.396 127.254 110.706C127.546 111.011 127.771 111.371 127.931 111.786C128.095 112.2 128.177 112.654 128.177 113.146C128.177 113.798 128.029 114.379 127.732 114.889C127.441 115.4 127.04 115.803 126.529 116.099C126.019 116.391 125.436 116.537 124.779 116.537ZM133.14 116.537C132.561 116.537 132.046 116.423 131.595 116.195C131.144 115.967 130.774 115.648 130.487 115.238C130.2 114.828 130.016 114.351 129.934 113.809H131.219C131.324 114.26 131.535 114.636 131.854 114.937C132.174 115.238 132.602 115.388 133.14 115.388C133.659 115.388 134.106 115.236 134.479 114.93C134.853 114.625 135.14 114.183 135.341 113.604C135.546 113.025 135.648 112.326 135.648 111.505H135.566C135.384 111.783 135.165 112.025 134.91 112.23C134.655 112.431 134.37 112.588 134.056 112.702C133.746 112.811 133.413 112.866 133.058 112.866C132.474 112.866 131.939 112.722 131.451 112.435C130.964 112.143 130.574 111.745 130.282 111.239C129.995 110.728 129.852 110.147 129.852 109.496C129.852 108.862 129.995 108.286 130.282 107.766C130.569 107.242 130.97 106.827 131.485 106.522C132.005 106.212 132.613 106.064 133.311 106.078C133.73 106.082 134.149 106.164 134.568 106.324C134.988 106.479 135.37 106.736 135.717 107.096C136.063 107.456 136.341 107.946 136.551 108.566C136.76 109.186 136.865 109.965 136.865 110.904C136.865 111.806 136.779 112.606 136.605 113.303C136.437 114 136.191 114.591 135.867 115.074C135.544 115.552 135.152 115.917 134.691 116.167C134.231 116.414 133.714 116.537 133.14 116.537ZM133.249 111.731C133.559 111.731 133.848 111.669 134.117 111.546C134.386 111.423 134.621 111.257 134.821 111.047C135.022 110.833 135.179 110.592 135.293 110.323C135.407 110.049 135.464 109.762 135.464 109.461C135.464 109.069 135.368 108.705 135.177 108.368C134.99 108.026 134.732 107.75 134.404 107.541C134.081 107.326 133.709 107.219 133.29 107.219C132.88 107.219 132.511 107.322 132.183 107.527C131.859 107.727 131.602 108.001 131.41 108.347C131.219 108.689 131.123 109.069 131.123 109.489C131.123 109.903 131.214 110.282 131.396 110.624C131.583 110.961 131.836 111.23 132.155 111.43C132.474 111.631 132.839 111.731 133.249 111.731ZM142.163 106.214V116.4H140.885V107.417H140.816L138.355 109.243V107.848L140.57 106.214H142.163ZM147.345 116.564C146.711 116.564 146.151 116.402 145.663 116.079C145.175 115.755 144.795 115.297 144.521 114.705C144.248 114.112 144.111 113.41 144.111 112.599C144.111 111.792 144.248 111.095 144.521 110.507C144.799 109.915 145.182 109.459 145.67 109.14C146.158 108.821 146.718 108.662 147.352 108.662C147.848 108.662 148.243 108.744 148.534 108.908C148.826 109.072 149.049 109.259 149.204 109.468C149.364 109.673 149.484 109.844 149.566 109.981H149.662V106.214H150.893V116.4H149.703V115.217H149.566C149.484 115.359 149.361 115.536 149.197 115.75C149.038 115.96 148.81 116.149 148.514 116.318C148.222 116.482 147.832 116.564 147.345 116.564ZM147.529 115.463C147.994 115.463 148.386 115.343 148.705 115.101C149.024 114.855 149.266 114.515 149.43 114.083C149.594 113.65 149.676 113.151 149.676 112.585C149.676 112.02 149.594 111.528 149.43 111.109C149.27 110.685 149.031 110.355 148.712 110.118C148.393 109.881 147.999 109.762 147.529 109.762C147.046 109.762 146.643 109.888 146.319 110.138C146 110.389 145.761 110.728 145.602 111.157C145.442 111.581 145.362 112.057 145.362 112.585C145.362 113.119 145.442 113.604 145.602 114.042C145.766 114.474 146.009 114.821 146.333 115.081C146.657 115.336 147.055 115.463 147.529 115.463ZM159.848 116.564C159.219 116.564 158.66 116.402 158.173 116.079C157.69 115.755 157.309 115.297 157.031 114.705C156.758 114.112 156.621 113.41 156.621 112.599C156.621 111.792 156.76 111.095 157.038 110.507C157.316 109.915 157.699 109.459 158.187 109.14C158.679 108.821 159.242 108.662 159.875 108.662C160.367 108.662 160.759 108.744 161.051 108.908C161.342 109.067 161.566 109.252 161.721 109.461C161.876 109.671 161.994 109.844 162.076 109.981H162.179V108.757H163.402V116.4H162.186V115.217H162.076C161.994 115.359 161.871 115.536 161.707 115.75C161.548 115.965 161.32 116.154 161.023 116.318C160.727 116.482 160.335 116.564 159.848 116.564ZM160.053 115.463C160.518 115.463 160.91 115.343 161.229 115.101C161.548 114.855 161.789 114.515 161.953 114.083C162.117 113.65 162.199 113.151 162.199 112.585C162.199 112.02 162.117 111.528 161.953 111.109C161.794 110.685 161.554 110.355 161.235 110.118C160.916 109.881 160.522 109.762 160.053 109.762C159.57 109.762 159.166 109.888 158.843 110.138C158.519 110.384 158.275 110.722 158.111 111.15C157.952 111.574 157.872 112.052 157.872 112.585C157.872 113.119 157.954 113.604 158.118 114.042C158.282 114.474 158.526 114.821 158.85 115.081C159.173 115.336 159.574 115.463 160.053 115.463ZM168.659 119.421C168.094 119.421 167.604 119.348 167.189 119.203C166.779 119.061 166.438 118.872 166.164 118.635C165.891 118.398 165.674 118.141 165.515 117.863L166.513 117.22C166.622 117.366 166.757 117.528 166.916 117.706C167.08 117.883 167.299 118.034 167.572 118.157C167.85 118.284 168.213 118.348 168.659 118.348C169.27 118.348 169.771 118.202 170.163 117.911C170.56 117.619 170.758 117.159 170.758 116.53V114.999H170.642C170.555 115.144 170.432 115.318 170.272 115.518C170.118 115.719 169.892 115.896 169.596 116.051C169.304 116.202 168.912 116.277 168.42 116.277C167.809 116.277 167.26 116.133 166.772 115.846C166.285 115.555 165.9 115.131 165.617 114.575C165.335 114.019 165.193 113.342 165.193 112.544C165.193 111.756 165.332 111.072 165.61 110.494C165.888 109.91 166.271 109.459 166.759 109.14C167.251 108.821 167.814 108.662 168.447 108.662C168.939 108.662 169.331 108.744 169.623 108.908C169.919 109.067 170.147 109.252 170.307 109.461C170.466 109.671 170.589 109.844 170.676 109.981H170.792V108.757H171.988V116.598C171.988 117.254 171.84 117.79 171.544 118.205C171.248 118.624 170.847 118.931 170.341 119.127C169.84 119.323 169.279 119.421 168.659 119.421ZM168.625 115.183C169.09 115.183 169.482 115.078 169.801 114.869C170.12 114.654 170.361 114.349 170.525 113.953C170.689 113.552 170.771 113.073 170.771 112.517C170.771 111.975 170.689 111.499 170.525 111.088C170.366 110.674 170.127 110.35 169.808 110.118C169.489 109.881 169.094 109.762 168.625 109.762C168.142 109.762 167.739 109.888 167.415 110.138C167.091 110.384 166.848 110.715 166.684 111.129C166.524 111.544 166.444 112.007 166.444 112.517C166.444 113.041 166.526 113.504 166.69 113.905C166.854 114.306 167.098 114.62 167.422 114.848C167.745 115.071 168.146 115.183 168.625 115.183ZM177.259 116.564C176.566 116.564 175.958 116.4 175.434 116.072C174.914 115.744 174.508 115.283 174.217 114.691C173.925 114.098 173.779 113.41 173.779 112.626C173.779 111.829 173.925 111.134 174.217 110.542C174.508 109.944 174.914 109.482 175.434 109.154C175.958 108.826 176.566 108.662 177.259 108.662C177.956 108.662 178.567 108.826 179.091 109.154C179.615 109.482 180.023 109.944 180.314 110.542C180.606 111.134 180.752 111.829 180.752 112.626C180.752 113.41 180.606 114.098 180.314 114.691C180.023 115.283 179.615 115.744 179.091 116.072C178.567 116.4 177.956 116.564 177.259 116.564ZM177.259 115.463C177.774 115.463 178.198 115.331 178.53 115.067C178.863 114.803 179.109 114.456 179.269 114.028C179.428 113.595 179.508 113.128 179.508 112.626C179.508 112.121 179.428 111.651 179.269 111.218C179.109 110.781 178.863 110.43 178.53 110.166C178.198 109.897 177.774 109.762 177.259 109.762C176.748 109.762 176.329 109.897 176.001 110.166C175.673 110.43 175.429 110.778 175.27 111.211C175.11 111.644 175.03 112.116 175.03 112.626C175.03 113.128 175.11 113.595 175.27 114.028C175.429 114.456 175.673 114.803 176.001 115.067C176.329 115.331 176.748 115.463 177.259 115.463Z" fill="#111827"/>
<rect x="344.5" y="103.4" width="16" height="16" rx="8" fill="white"/>
<rect x="344.5" y="103.4" width="16" height="16" rx="8" stroke="#E4E4E7"/>
<rect x="37.4023" y="162.47" width="4.34127" height="4.34127" transform="rotate(-45 37.4023 162.47)" stroke="#111827" stroke-linejoin="round"/>
<rect x="37.4023" y="172.33" width="4.34127" height="4.34127" transform="rotate(-45 37.4023 172.33)" stroke="#111827" stroke-linejoin="round"/>
<rect x="42.3604" y="167.424" width="4.34127" height="4.34127" transform="rotate(-45 42.3604 167.424)" stroke="#111827" stroke-linejoin="round"/>
<rect x="32.5" y="167.424" width="4.34127" height="4.34127" transform="rotate(-45 32.5 167.424)" stroke="#111827" stroke-linejoin="round"/>
<path d="M57.5547 176.666V164.72H59.5391V166.134H59.6562C59.7656 165.916 59.9193 165.689 60.1172 165.455C60.3203 165.215 60.5859 165.014 60.9141 164.853C61.2422 164.686 61.6562 164.603 62.1562 164.603C62.8333 164.603 63.4427 164.778 63.9844 165.126C64.526 165.47 64.9557 165.975 65.2734 166.642C65.5911 167.309 65.75 168.119 65.75 169.072C65.75 170.02 65.5938 170.827 65.2812 171.494C64.974 172.16 64.5495 172.673 64.0078 173.033C63.4661 173.387 62.8464 173.564 62.1484 173.564C61.6641 173.564 61.2578 173.483 60.9297 173.322C60.6016 173.155 60.3359 172.955 60.1328 172.72C59.9297 172.486 59.7708 172.257 59.6562 172.033H59.5781V176.666H57.5547ZM61.6094 171.892C62.0573 171.892 62.4349 171.772 62.7422 171.533C63.0495 171.288 63.2812 170.952 63.4375 170.525C63.599 170.098 63.6797 169.611 63.6797 169.064C63.6797 168.522 63.6016 168.041 63.4453 167.619C63.2891 167.197 63.0573 166.866 62.75 166.626C62.4427 166.387 62.0625 166.267 61.6094 166.267C61.1667 166.267 60.7891 166.384 60.4766 166.619C60.1693 166.848 59.9349 167.173 59.7734 167.595C59.612 168.012 59.5312 168.501 59.5312 169.064C59.5312 169.626 59.612 170.121 59.7734 170.548C59.9349 170.97 60.1719 171.301 60.4844 171.541C60.7969 171.775 61.1719 171.892 61.6094 171.892ZM69.5 161.759V173.4H67.4766V161.759H69.5ZM74.8281 173.564C74.1406 173.564 73.526 173.387 72.9844 173.033C72.4427 172.673 72.0156 172.16 71.7031 171.494C71.3906 170.827 71.2344 170.02 71.2344 169.072C71.2344 168.119 71.3932 167.309 71.7109 166.642C72.0339 165.975 72.4661 165.47 73.0078 165.126C73.5547 164.778 74.1667 164.603 74.8438 164.603C75.3385 164.603 75.75 164.686 76.0781 164.853C76.4062 165.014 76.6693 165.215 76.8672 165.455C77.0703 165.689 77.2266 165.916 77.3359 166.134H77.4219V164.72H79.4297V173.4H77.4297V172.033H77.3359C77.2266 172.257 77.0677 172.486 76.8594 172.72C76.6562 172.955 76.388 173.155 76.0547 173.322C75.7266 173.483 75.3177 173.564 74.8281 173.564ZM75.3828 171.892C75.8255 171.892 76.2005 171.775 76.5078 171.541C76.8203 171.301 77.0573 170.97 77.2188 170.548C77.3802 170.121 77.4609 169.626 77.4609 169.064C77.4609 168.501 77.3802 168.012 77.2188 167.595C77.0573 167.173 76.8229 166.848 76.5156 166.619C76.2083 166.384 75.8307 166.267 75.3828 166.267C74.9349 166.267 74.5547 166.387 74.2422 166.626C73.9349 166.866 73.7005 167.197 73.5391 167.619C73.3828 168.035 73.3047 168.517 73.3047 169.064C73.3047 169.611 73.3828 170.098 73.5391 170.525C73.7005 170.952 73.9349 171.288 74.2422 171.533C74.5547 171.772 74.9349 171.892 75.3828 171.892ZM80.8438 173.4L84.2422 168.189L84.2344 169.697L81.0234 164.72H83.25L84.1328 166.181C84.388 166.619 84.6172 167.043 84.8203 167.455C85.0234 167.861 85.2292 168.259 85.4375 168.65H84.6172C84.8307 168.264 85.0339 167.866 85.2266 167.455C85.4245 167.043 85.6536 166.619 85.9141 166.181L86.8281 164.72H89.0156L85.7578 169.736V168.244L89.1484 173.4H86.9297L85.8672 171.681C85.6068 171.254 85.375 170.837 85.1719 170.431C84.9688 170.025 84.763 169.634 84.5547 169.259H85.375C85.1719 169.634 84.974 170.025 84.7812 170.431C84.5938 170.837 84.3698 171.254 84.1094 171.681L83.0469 173.4H80.8438ZM94.0234 173.58C93.1797 173.58 92.4453 173.392 91.8203 173.017C91.1953 172.642 90.7109 172.119 90.3672 171.447C90.0286 170.775 89.8594 169.994 89.8594 169.103C89.8594 168.202 90.0286 167.416 90.3672 166.744C90.7109 166.067 91.1953 165.541 91.8203 165.166C92.4453 164.791 93.1797 164.603 94.0234 164.603C94.8672 164.603 95.6016 164.791 96.2266 165.166C96.8516 165.541 97.3333 166.067 97.6719 166.744C98.0156 167.416 98.1875 168.202 98.1875 169.103C98.1875 169.994 98.0156 170.775 97.6719 171.447C97.3333 172.119 96.8516 172.642 96.2266 173.017C95.6016 173.392 94.8672 173.58 94.0234 173.58ZM94.0234 171.931C94.4922 171.931 94.8828 171.806 95.1953 171.556C95.5078 171.301 95.7422 170.96 95.8984 170.533C96.0547 170.106 96.1328 169.626 96.1328 169.095C96.1328 168.559 96.0547 168.077 95.8984 167.65C95.7422 167.218 95.5078 166.876 95.1953 166.626C94.8828 166.376 94.4922 166.251 94.0234 166.251C93.5547 166.251 93.1641 166.376 92.8516 166.626C92.5443 166.876 92.3125 167.215 92.1562 167.642C92 168.069 91.9219 168.554 91.9219 169.095C91.9219 169.626 92 170.106 92.1562 170.533C92.3125 170.96 92.5443 171.301 92.8516 171.556C93.1641 171.806 93.5547 171.931 94.0234 171.931ZM101.938 168.337V173.4H99.9141V164.72H101.844L101.867 166.869H101.68C101.924 166.119 102.284 165.554 102.758 165.173C103.237 164.793 103.833 164.603 104.547 164.603C105.141 164.603 105.661 164.731 106.109 164.986C106.557 165.241 106.904 165.613 107.148 166.103C107.398 166.593 107.523 167.189 107.523 167.892V173.4H105.5V168.205C105.5 167.616 105.349 167.158 105.047 166.83C104.745 166.496 104.328 166.33 103.797 166.33C103.438 166.33 103.117 166.408 102.836 166.564C102.56 166.72 102.341 166.947 102.18 167.244C102.018 167.541 101.938 167.905 101.938 168.337ZM109.633 173.4V164.72H111.656V173.4H109.633ZM110.641 163.486C110.318 163.486 110.039 163.376 109.805 163.158C109.576 162.939 109.461 162.676 109.461 162.369C109.461 162.056 109.576 161.793 109.805 161.58C110.039 161.366 110.318 161.259 110.641 161.259C110.969 161.259 111.247 161.366 111.477 161.58C111.711 161.793 111.828 162.056 111.828 162.369C111.828 162.676 111.711 162.939 111.477 163.158C111.247 163.376 110.969 163.486 110.641 163.486ZM117.547 173.58C116.703 173.58 115.969 173.392 115.344 173.017C114.724 172.642 114.242 172.119 113.898 171.447C113.56 170.77 113.391 169.988 113.391 169.103C113.391 168.202 113.56 167.416 113.898 166.744C114.242 166.067 114.724 165.541 115.344 165.166C115.969 164.791 116.703 164.603 117.547 164.603C118.036 164.603 118.49 164.668 118.906 164.798C119.328 164.923 119.703 165.108 120.031 165.353C120.359 165.593 120.633 165.884 120.852 166.228C121.07 166.572 121.224 166.957 121.312 167.384L119.406 167.744C119.354 167.514 119.273 167.309 119.164 167.126C119.06 166.944 118.93 166.788 118.773 166.658C118.617 166.528 118.438 166.429 118.234 166.361C118.031 166.288 117.807 166.251 117.562 166.251C117.094 166.251 116.703 166.376 116.391 166.626C116.078 166.871 115.844 167.207 115.688 167.634C115.531 168.061 115.453 168.548 115.453 169.095C115.453 169.632 115.531 170.113 115.688 170.541C115.844 170.968 116.078 171.306 116.391 171.556C116.703 171.806 117.094 171.931 117.562 171.931C117.812 171.931 118.039 171.895 118.242 171.822C118.451 171.749 118.633 171.645 118.789 171.509C118.951 171.374 119.083 171.21 119.188 171.017C119.297 170.824 119.378 170.613 119.43 170.384L121.328 170.736C121.245 171.173 121.094 171.567 120.875 171.916C120.656 172.264 120.38 172.564 120.047 172.814C119.719 173.059 119.344 173.249 118.922 173.384C118.5 173.514 118.042 173.58 117.547 173.58Z" fill="#111827"/>
<path fill-rule="evenodd" clip-rule="evenodd" d="M137.5 160.338C135.316 160.338 133.546 162.108 133.546 164.292V165.864C133.546 165.864 133.546 165.864 133.546 165.864H131.283C131.007 165.864 130.783 166.088 130.783 166.364V173.962C130.783 174.238 131.007 174.462 131.283 174.462H143.717C143.993 174.462 144.217 174.238 144.217 173.962V166.364C144.217 166.088 143.993 165.864 143.717 165.864H141.454C141.454 165.864 141.454 165.864 141.454 165.864V164.292C141.454 162.108 139.684 160.338 137.5 160.338ZM134.546 164.292C134.546 162.66 135.869 161.338 137.5 161.338C139.131 161.338 140.454 162.66 140.454 164.292V165.864H134.546V164.292ZM131.783 173.462V166.864H143.217V173.462H131.783Z" fill="#111827"/>
<path d="M156.622 172.537C156.043 172.537 155.528 172.423 155.077 172.195C154.626 171.967 154.257 171.648 153.97 171.238C153.683 170.828 153.498 170.351 153.416 169.809H154.701C154.806 170.26 155.018 170.636 155.337 170.937C155.656 171.238 156.084 171.388 156.622 171.388C157.142 171.388 157.588 171.236 157.962 170.93C158.336 170.625 158.623 170.183 158.823 169.604C159.028 169.025 159.131 168.326 159.131 167.505H159.049C158.867 167.783 158.648 168.025 158.393 168.23C158.137 168.431 157.853 168.588 157.538 168.702C157.228 168.811 156.896 168.866 156.54 168.866C155.957 168.866 155.421 168.722 154.934 168.435C154.446 168.143 154.056 167.745 153.765 167.239C153.478 166.728 153.334 166.147 153.334 165.496C153.334 164.862 153.478 164.286 153.765 163.766C154.052 163.242 154.453 162.827 154.968 162.522C155.487 162.212 156.096 162.064 156.793 162.078C157.212 162.082 157.632 162.164 158.051 162.324C158.47 162.479 158.853 162.736 159.199 163.096C159.546 163.456 159.824 163.946 160.033 164.566C160.243 165.186 160.348 165.965 160.348 166.904C160.348 167.806 160.261 168.606 160.088 169.303C159.919 170 159.673 170.591 159.35 171.074C159.026 171.552 158.634 171.917 158.174 172.167C157.714 172.414 157.196 172.537 156.622 172.537ZM156.731 167.731C157.041 167.731 157.331 167.669 157.6 167.546C157.868 167.423 158.103 167.257 158.304 167.047C158.504 166.833 158.661 166.592 158.775 166.323C158.889 166.049 158.946 165.762 158.946 165.461C158.946 165.069 158.851 164.705 158.659 164.368C158.472 164.026 158.215 163.75 157.887 163.541C157.563 163.326 157.192 163.219 156.772 163.219C156.362 163.219 155.993 163.322 155.665 163.527C155.341 163.727 155.084 164.001 154.893 164.347C154.701 164.689 154.605 165.069 154.605 165.489C154.605 165.903 154.697 166.282 154.879 166.624C155.066 166.961 155.319 167.23 155.638 167.43C155.957 167.631 156.321 167.731 156.731 167.731ZM165.646 162.214V172.4H164.367V163.417H164.299L161.838 165.243V163.848L164.053 162.214H165.646ZM170.827 172.564C170.194 172.564 169.633 172.402 169.146 172.079C168.658 171.755 168.277 171.297 168.004 170.705C167.73 170.112 167.594 169.41 167.594 168.599C167.594 167.792 167.73 167.095 168.004 166.507C168.282 165.915 168.665 165.459 169.152 165.14C169.64 164.821 170.201 164.662 170.834 164.662C171.331 164.662 171.725 164.744 172.017 164.908C172.308 165.072 172.532 165.259 172.687 165.468C172.846 165.673 172.967 165.844 173.049 165.981H173.145V162.214H174.375V172.4H173.186V171.217H173.049C172.967 171.359 172.844 171.536 172.68 171.75C172.52 171.96 172.292 172.149 171.996 172.318C171.704 172.482 171.315 172.564 170.827 172.564ZM171.012 171.463C171.477 171.463 171.868 171.343 172.188 171.101C172.507 170.855 172.748 170.515 172.912 170.083C173.076 169.65 173.158 169.151 173.158 168.585C173.158 168.02 173.076 167.528 172.912 167.109C172.753 166.685 172.513 166.355 172.194 166.118C171.875 165.881 171.481 165.762 171.012 165.762C170.529 165.762 170.125 165.888 169.802 166.138C169.483 166.389 169.243 166.728 169.084 167.157C168.924 167.581 168.845 168.057 168.845 168.585C168.845 169.119 168.924 169.604 169.084 170.042C169.248 170.474 169.492 170.821 169.815 171.081C170.139 171.336 170.538 171.463 171.012 171.463ZM183.33 172.564C182.701 172.564 182.143 172.402 181.655 172.079C181.172 171.755 180.792 171.297 180.514 170.705C180.24 170.112 180.104 169.41 180.104 168.599C180.104 167.792 180.243 167.095 180.521 166.507C180.799 165.915 181.181 165.459 181.669 165.14C182.161 164.821 182.724 164.662 183.357 164.662C183.85 164.662 184.242 164.744 184.533 164.908C184.825 165.067 185.048 165.252 185.203 165.461C185.358 165.671 185.477 165.844 185.559 165.981H185.661V164.757H186.885V172.4H185.668V171.217H185.559C185.477 171.359 185.354 171.536 185.189 171.75C185.03 171.965 184.802 172.154 184.506 172.318C184.21 172.482 183.818 172.564 183.33 172.564ZM183.535 171.463C184 171.463 184.392 171.343 184.711 171.101C185.03 170.855 185.271 170.515 185.436 170.083C185.6 169.65 185.682 169.151 185.682 168.585C185.682 168.02 185.6 167.528 185.436 167.109C185.276 166.685 185.037 166.355 184.718 166.118C184.399 165.881 184.005 165.762 183.535 165.762C183.052 165.762 182.649 165.888 182.325 166.138C182.002 166.384 181.758 166.722 181.594 167.15C181.434 167.574 181.354 168.052 181.354 168.585C181.354 169.119 181.437 169.604 181.601 170.042C181.765 170.474 182.008 170.821 182.332 171.081C182.656 171.336 183.057 171.463 183.535 171.463ZM192.142 175.421C191.576 175.421 191.087 175.348 190.672 175.203C190.262 175.061 189.92 174.872 189.646 174.635C189.373 174.398 189.157 174.141 188.997 173.863L189.995 173.22C190.104 173.366 190.239 173.528 190.398 173.706C190.562 173.883 190.781 174.034 191.055 174.157C191.333 174.284 191.695 174.348 192.142 174.348C192.752 174.348 193.254 174.202 193.646 173.911C194.042 173.619 194.24 173.159 194.24 172.53V170.999H194.124C194.037 171.144 193.914 171.318 193.755 171.518C193.6 171.719 193.374 171.896 193.078 172.051C192.786 172.202 192.395 172.277 191.902 172.277C191.292 172.277 190.743 172.133 190.255 171.846C189.767 171.555 189.382 171.131 189.1 170.575C188.817 170.019 188.676 169.342 188.676 168.544C188.676 167.756 188.815 167.072 189.093 166.494C189.371 165.91 189.754 165.459 190.241 165.14C190.733 164.821 191.296 164.662 191.93 164.662C192.422 164.662 192.814 164.744 193.105 164.908C193.402 165.067 193.63 165.252 193.789 165.461C193.949 165.671 194.072 165.844 194.158 165.981H194.274V164.757H195.471V172.598C195.471 173.254 195.323 173.79 195.026 174.205C194.73 174.624 194.329 174.931 193.823 175.127C193.322 175.323 192.761 175.421 192.142 175.421ZM192.107 171.183C192.572 171.183 192.964 171.078 193.283 170.869C193.602 170.654 193.844 170.349 194.008 169.953C194.172 169.552 194.254 169.073 194.254 168.517C194.254 167.975 194.172 167.499 194.008 167.088C193.848 166.674 193.609 166.35 193.29 166.118C192.971 165.881 192.577 165.762 192.107 165.762C191.624 165.762 191.221 165.888 190.897 166.138C190.574 166.384 190.33 166.715 190.166 167.129C190.007 167.544 189.927 168.007 189.927 168.517C189.927 169.041 190.009 169.504 190.173 169.905C190.337 170.306 190.581 170.62 190.904 170.848C191.228 171.071 191.629 171.183 192.107 171.183ZM200.741 172.564C200.049 172.564 199.44 172.4 198.916 172.072C198.396 171.744 197.991 171.283 197.699 170.691C197.408 170.098 197.262 169.41 197.262 168.626C197.262 167.829 197.408 167.134 197.699 166.542C197.991 165.944 198.396 165.482 198.916 165.154C199.44 164.826 200.049 164.662 200.741 164.662C201.438 164.662 202.049 164.826 202.573 165.154C203.097 165.482 203.505 165.944 203.797 166.542C204.089 167.134 204.234 167.829 204.234 168.626C204.234 169.41 204.089 170.098 203.797 170.691C203.505 171.283 203.097 171.744 202.573 172.072C202.049 172.4 201.438 172.564 200.741 172.564ZM200.741 171.463C201.256 171.463 201.68 171.331 202.013 171.067C202.345 170.803 202.591 170.456 202.751 170.028C202.91 169.595 202.99 169.128 202.99 168.626C202.99 168.121 202.91 167.651 202.751 167.218C202.591 166.781 202.345 166.43 202.013 166.166C201.68 165.897 201.256 165.762 200.741 165.762C200.231 165.762 199.812 165.897 199.483 166.166C199.155 166.43 198.911 166.778 198.752 167.211C198.592 167.644 198.513 168.116 198.513 168.626C198.513 169.128 198.592 169.595 198.752 170.028C198.911 170.456 199.155 170.803 199.483 171.067C199.812 171.331 200.231 171.463 200.741 171.463Z" fill="#111827"/>
<rect x="344.5" y="159.4" width="16" height="16" rx="8" fill="white"/>
<rect x="344.5" y="159.4" width="16" height="16" rx="8" stroke="#E4E4E7"/>
<rect x="37.4023" y="218.47" width="4.34127" height="4.34127" transform="rotate(-45 37.4023 218.47)" stroke="#111827" stroke-linejoin="round"/>
<rect x="37.4023" y="228.33" width="4.34127" height="4.34127" transform="rotate(-45 37.4023 228.33)" stroke="#111827" stroke-linejoin="round"/>
<rect x="42.3604" y="223.424" width="4.34127" height="4.34127" transform="rotate(-45 42.3604 223.424)" stroke="#111827" stroke-linejoin="round"/>
<rect x="32.5" y="223.424" width="4.34127" height="4.34127" transform="rotate(-45 32.5 223.424)" stroke="#111827" stroke-linejoin="round"/>
<path d="M60.8516 229.58C60.1797 229.58 59.5833 229.483 59.0625 229.291C58.5469 229.093 58.125 228.809 57.7969 228.439C57.4688 228.064 57.2578 227.608 57.1641 227.072L59.0703 226.759C59.1797 227.186 59.3854 227.507 59.6875 227.72C59.9896 227.929 60.388 228.033 60.8828 228.033C61.3828 228.033 61.776 227.934 62.0625 227.736C62.3542 227.533 62.5 227.285 62.5 226.994C62.5 226.744 62.4036 226.538 62.2109 226.376C62.0182 226.21 61.724 226.085 61.3281 226.001L59.8516 225.681C59.0286 225.504 58.4141 225.215 58.0078 224.814C57.6016 224.408 57.3984 223.884 57.3984 223.244C57.3984 222.707 57.5443 222.241 57.8359 221.845C58.1328 221.449 58.5443 221.145 59.0703 220.931C59.5964 220.712 60.2057 220.603 60.8984 220.603C61.5599 220.603 62.1302 220.699 62.6094 220.892C63.0885 221.08 63.474 221.348 63.7656 221.697C64.0625 222.041 64.263 222.444 64.3672 222.908L62.5547 223.228C62.4661 222.916 62.2891 222.653 62.0234 222.439C61.763 222.225 61.3984 222.119 60.9297 222.119C60.4974 222.119 60.138 222.212 59.8516 222.4C59.5703 222.587 59.4297 222.83 59.4297 223.126C59.4297 223.382 59.5234 223.593 59.7109 223.759C59.9036 223.921 60.2161 224.048 60.6484 224.142L62.1328 224.455C62.9609 224.632 63.5755 224.916 63.9766 225.306C64.3776 225.692 64.5781 226.192 64.5781 226.806C64.5781 227.353 64.4193 227.835 64.1016 228.251C63.7839 228.668 63.3438 228.994 62.7812 229.228C62.224 229.462 61.5807 229.58 60.8516 229.58ZM70.3594 220.72V222.306H65.3906V220.72H70.3594ZM66.6484 218.619H68.6719V226.955C68.6719 227.267 68.7396 227.496 68.875 227.642C69.0104 227.783 69.2344 227.853 69.5469 227.853C69.6406 227.853 69.763 227.843 69.9141 227.822C70.0703 227.801 70.1953 227.783 70.2891 227.767L70.5781 229.337C70.3646 229.4 70.1406 229.442 69.9062 229.462C69.6771 229.488 69.4531 229.501 69.2344 229.501C68.401 229.501 67.7604 229.298 67.3125 228.892C66.8698 228.486 66.6484 227.9 66.6484 227.134V218.619ZM75.5547 229.58C74.7109 229.58 73.9766 229.392 73.3516 229.017C72.7266 228.642 72.2422 228.119 71.8984 227.447C71.5599 226.775 71.3906 225.994 71.3906 225.103C71.3906 224.202 71.5599 223.416 71.8984 222.744C72.2422 222.067 72.7266 221.541 73.3516 221.166C73.9766 220.791 74.7109 220.603 75.5547 220.603C76.3984 220.603 77.1328 220.791 77.7578 221.166C78.3828 221.541 78.8646 222.067 79.2031 222.744C79.5469 223.416 79.7188 224.202 79.7188 225.103C79.7188 225.994 79.5469 226.775 79.2031 227.447C78.8646 228.119 78.3828 228.642 77.7578 229.017C77.1328 229.392 76.3984 229.58 75.5547 229.58ZM75.5547 227.931C76.0234 227.931 76.4141 227.806 76.7266 227.556C77.0391 227.301 77.2734 226.96 77.4297 226.533C77.5859 226.106 77.6641 225.626 77.6641 225.095C77.6641 224.559 77.5859 224.077 77.4297 223.65C77.2734 223.218 77.0391 222.876 76.7266 222.626C76.4141 222.376 76.0234 222.251 75.5547 222.251C75.0859 222.251 74.6953 222.376 74.3828 222.626C74.0755 222.876 73.8438 223.215 73.6875 223.642C73.5312 224.069 73.4531 224.554 73.4531 225.095C73.4531 225.626 73.5312 226.106 73.6875 226.533C73.8438 226.96 74.0755 227.301 74.3828 227.556C74.6953 227.806 75.0859 227.931 75.5547 227.931ZM81.4453 229.4V220.72H83.4062V222.173H83.4922C83.6484 221.668 83.9167 221.28 84.2969 221.009C84.6823 220.738 85.1276 220.603 85.6328 220.603C85.7474 220.603 85.8724 220.608 86.0078 220.619C86.1484 220.629 86.2656 220.642 86.3594 220.658V222.517C86.2812 222.491 86.1484 222.468 85.9609 222.447C85.7734 222.426 85.5885 222.416 85.4062 222.416C85.0365 222.416 84.7031 222.496 84.4062 222.658C84.1146 222.814 83.8854 223.035 83.7188 223.322C83.5521 223.603 83.4688 223.934 83.4688 224.314V229.4H81.4453ZM90.6094 229.564C89.9219 229.564 89.3073 229.387 88.7656 229.033C88.224 228.673 87.7969 228.16 87.4844 227.494C87.1719 226.827 87.0156 226.02 87.0156 225.072C87.0156 224.119 87.1745 223.309 87.4922 222.642C87.8151 221.975 88.2474 221.47 88.7891 221.126C89.3359 220.778 89.9479 220.603 90.625 220.603C91.1198 220.603 91.5312 220.686 91.8594 220.853C92.1875 221.014 92.4505 221.215 92.6484 221.455C92.8516 221.689 93.0078 221.916 93.1172 222.134H93.2031V220.72H95.2109V229.4H93.2109V228.033H93.1172C93.0078 228.257 92.849 228.486 92.6406 228.72C92.4375 228.955 92.1693 229.155 91.8359 229.322C91.5078 229.483 91.099 229.564 90.6094 229.564ZM91.1641 227.892C91.6068 227.892 91.9818 227.775 92.2891 227.541C92.6016 227.301 92.8385 226.97 93 226.548C93.1615 226.121 93.2422 225.626 93.2422 225.064C93.2422 224.501 93.1615 224.012 93 223.595C92.8385 223.173 92.6042 222.848 92.2969 222.619C91.9896 222.384 91.612 222.267 91.1641 222.267C90.7161 222.267 90.3359 222.387 90.0234 222.626C89.7161 222.866 89.4818 223.197 89.3203 223.619C89.1641 224.035 89.0859 224.517 89.0859 225.064C89.0859 225.611 89.1641 226.098 89.3203 226.525C89.4818 226.952 89.7161 227.288 90.0234 227.533C90.3359 227.772 90.7161 227.892 91.1641 227.892ZM101.086 232.845C100.383 232.845 99.7708 232.754 99.25 232.572C98.7344 232.389 98.3125 232.139 97.9844 231.822C97.6562 231.509 97.4219 231.155 97.2812 230.759L99.0312 230.205C99.1146 230.376 99.237 230.546 99.3984 230.712C99.5651 230.884 99.7839 231.025 100.055 231.134C100.331 231.249 100.672 231.306 101.078 231.306C101.708 231.306 102.211 231.155 102.586 230.853C102.961 230.556 103.148 230.095 103.148 229.47V227.861H102.992C102.883 228.085 102.729 228.306 102.531 228.525C102.333 228.744 102.073 228.926 101.75 229.072C101.427 229.218 101.021 229.291 100.531 229.291C99.8594 229.291 99.25 229.132 98.7031 228.814C98.1615 228.491 97.7318 228.014 97.4141 227.384C97.0964 226.749 96.9375 225.965 96.9375 225.033C96.9375 224.09 97.0964 223.291 97.4141 222.634C97.737 221.973 98.1693 221.47 98.7109 221.126C99.2578 220.778 99.8698 220.603 100.547 220.603C101.042 220.603 101.453 220.686 101.781 220.853C102.115 221.014 102.383 221.215 102.586 221.455C102.794 221.694 102.953 221.923 103.062 222.142H103.164V220.72H105.148V229.4C105.148 230.181 104.971 230.827 104.617 231.337C104.268 231.848 103.786 232.225 103.172 232.47C102.562 232.72 101.867 232.845 101.086 232.845ZM101.086 227.681C101.529 227.681 101.904 227.577 102.211 227.369C102.523 227.155 102.76 226.848 102.922 226.447C103.083 226.046 103.164 225.569 103.164 225.017C103.164 224.465 103.083 223.983 102.922 223.572C102.76 223.16 102.526 222.84 102.219 222.611C101.911 222.382 101.534 222.267 101.086 222.267C100.638 222.267 100.258 222.387 99.9453 222.626C99.638 222.861 99.4036 223.184 99.2422 223.595C99.0859 224.007 99.0078 224.481 99.0078 225.017C99.0078 225.554 99.0859 226.022 99.2422 226.423C99.4036 226.824 99.638 227.134 99.9453 227.353C100.258 227.572 100.638 227.681 101.086 227.681ZM111.094 229.58C110.224 229.58 109.471 229.395 108.836 229.025C108.206 228.655 107.721 228.137 107.383 227.47C107.044 226.798 106.875 226.012 106.875 225.111C106.875 224.22 107.042 223.436 107.375 222.759C107.714 222.082 108.19 221.554 108.805 221.173C109.419 220.793 110.138 220.603 110.961 220.603C111.503 220.603 112.013 220.692 112.492 220.869C112.977 221.041 113.404 221.309 113.773 221.673C114.143 222.033 114.432 222.488 114.641 223.041C114.854 223.593 114.961 224.246 114.961 225.001V225.619H107.812V224.244H113.945L113.008 224.65C113.008 224.16 112.93 223.731 112.773 223.361C112.617 222.991 112.388 222.705 112.086 222.501C111.789 222.293 111.419 222.189 110.977 222.189C110.534 222.189 110.156 222.293 109.844 222.501C109.531 222.71 109.292 222.991 109.125 223.345C108.964 223.694 108.883 224.085 108.883 224.517V225.462C108.883 226.004 108.974 226.465 109.156 226.845C109.344 227.22 109.604 227.504 109.938 227.697C110.276 227.889 110.669 227.986 111.117 227.986C111.419 227.986 111.693 227.944 111.938 227.861C112.182 227.772 112.391 227.645 112.562 227.478C112.74 227.306 112.872 227.098 112.961 226.853L114.828 227.197C114.693 227.671 114.453 228.087 114.109 228.447C113.771 228.801 113.346 229.08 112.836 229.283C112.326 229.481 111.745 229.58 111.094 229.58Z" fill="#111827"/>
<path fill-rule="evenodd" clip-rule="evenodd" d="M131.5 216.338C129.316 216.338 127.546 218.108 127.546 220.292V221.864C127.546 221.864 127.546 221.864 127.546 221.864H125.283C125.007 221.864 124.783 222.088 124.783 222.364V229.962C124.783 230.238 125.007 230.462 125.283 230.462H137.717C137.993 230.462 138.217 230.238 138.217 229.962V222.364C138.217 222.088 137.993 221.864 137.717 221.864H135.454C135.454 221.864 135.454 221.864 135.454 221.864V220.292C135.454 218.108 133.684 216.338 131.5 216.338ZM128.546 220.292C128.546 218.66 129.869 217.338 131.5 217.338C133.131 217.338 134.454 218.66 134.454 220.292V221.864H128.546V220.292ZM125.783 229.462V222.864H137.217V229.462H125.783Z" fill="#111827"/>
<path d="M150.779 228.537C150.182 228.537 149.647 228.42 149.173 228.188C148.699 227.951 148.321 227.63 148.038 227.224C147.756 226.814 147.603 226.349 147.58 225.83H148.838C148.865 226.13 148.968 226.399 149.146 226.636C149.323 226.873 149.553 227.06 149.836 227.197C150.123 227.329 150.438 227.395 150.779 227.395C151.189 227.395 151.554 227.299 151.873 227.108C152.197 226.917 152.45 226.652 152.632 226.315C152.814 225.978 152.905 225.595 152.905 225.167C152.905 224.729 152.81 224.337 152.618 223.991C152.427 223.644 152.165 223.373 151.832 223.177C151.504 222.977 151.126 222.876 150.697 222.876C150.383 222.876 150.064 222.927 149.74 223.027C149.417 223.127 149.155 223.255 148.954 223.41L147.737 223.259L148.339 218.214H153.698V219.356H149.433L149.084 222.33H149.139C149.348 222.156 149.613 222.015 149.932 221.906C150.251 221.792 150.586 221.735 150.937 221.735C151.401 221.735 151.83 221.819 152.222 221.988C152.618 222.156 152.962 222.396 153.254 222.706C153.546 223.011 153.771 223.371 153.931 223.786C154.095 224.2 154.177 224.654 154.177 225.146C154.177 225.798 154.029 226.379 153.732 226.889C153.441 227.4 153.04 227.803 152.529 228.099C152.019 228.391 151.436 228.537 150.779 228.537ZM159.14 228.537C158.561 228.537 158.046 228.423 157.595 228.195C157.144 227.967 156.774 227.648 156.487 227.238C156.2 226.828 156.016 226.351 155.934 225.809H157.219C157.324 226.26 157.535 226.636 157.854 226.937C158.174 227.238 158.602 227.388 159.14 227.388C159.659 227.388 160.106 227.236 160.479 226.93C160.853 226.625 161.14 226.183 161.341 225.604C161.546 225.025 161.648 224.326 161.648 223.505H161.566C161.384 223.783 161.165 224.025 160.91 224.23C160.655 224.431 160.37 224.588 160.056 224.702C159.746 224.811 159.413 224.866 159.058 224.866C158.474 224.866 157.939 224.722 157.451 224.435C156.964 224.143 156.574 223.745 156.282 223.239C155.995 222.728 155.852 222.147 155.852 221.496C155.852 220.862 155.995 220.286 156.282 219.766C156.569 219.242 156.97 218.827 157.485 218.522C158.005 218.212 158.613 218.064 159.311 218.078C159.73 218.082 160.149 218.164 160.568 218.324C160.988 218.479 161.37 218.736 161.717 219.096C162.063 219.456 162.341 219.946 162.551 220.566C162.76 221.186 162.865 221.965 162.865 222.904C162.865 223.806 162.779 224.606 162.605 225.303C162.437 226 162.191 226.591 161.867 227.074C161.544 227.552 161.152 227.917 160.691 228.167C160.231 228.414 159.714 228.537 159.14 228.537ZM159.249 223.731C159.559 223.731 159.848 223.669 160.117 223.546C160.386 223.423 160.621 223.257 160.821 223.047C161.022 222.833 161.179 222.592 161.293 222.323C161.407 222.049 161.464 221.762 161.464 221.461C161.464 221.069 161.368 220.705 161.177 220.368C160.99 220.026 160.732 219.75 160.404 219.541C160.081 219.326 159.709 219.219 159.29 219.219C158.88 219.219 158.511 219.322 158.183 219.527C157.859 219.727 157.602 220.001 157.41 220.347C157.219 220.689 157.123 221.069 157.123 221.489C157.123 221.903 157.214 222.282 157.396 222.624C157.583 222.961 157.836 223.23 158.155 223.43C158.474 223.631 158.839 223.731 159.249 223.731ZM167.644 228.564C167.01 228.564 166.45 228.402 165.962 228.079C165.474 227.755 165.094 227.297 164.82 226.705C164.547 226.112 164.41 225.41 164.41 224.599C164.41 223.792 164.547 223.095 164.82 222.507C165.098 221.915 165.481 221.459 165.969 221.14C166.456 220.821 167.017 220.662 167.65 220.662C168.147 220.662 168.541 220.744 168.833 220.908C169.125 221.072 169.348 221.259 169.503 221.468C169.662 221.673 169.783 221.844 169.865 221.981H169.961V218.214H171.191V228.4H170.002V227.217H169.865C169.783 227.359 169.66 227.536 169.496 227.75C169.337 227.96 169.109 228.149 168.812 228.318C168.521 228.482 168.131 228.564 167.644 228.564ZM167.828 227.463C168.293 227.463 168.685 227.343 169.004 227.101C169.323 226.855 169.564 226.515 169.729 226.083C169.893 225.65 169.975 225.151 169.975 224.585C169.975 224.02 169.893 223.528 169.729 223.109C169.569 222.685 169.33 222.355 169.011 222.118C168.692 221.881 168.298 221.762 167.828 221.762C167.345 221.762 166.942 221.888 166.618 222.138C166.299 222.389 166.06 222.728 165.9 223.157C165.741 223.581 165.661 224.057 165.661 224.585C165.661 225.119 165.741 225.604 165.9 226.042C166.064 226.474 166.308 226.821 166.632 227.081C166.955 227.336 167.354 227.463 167.828 227.463ZM180.146 228.564C179.518 228.564 178.959 228.402 178.472 228.079C177.989 227.755 177.608 227.297 177.33 226.705C177.057 226.112 176.92 225.41 176.92 224.599C176.92 223.792 177.059 223.095 177.337 222.507C177.615 221.915 177.998 221.459 178.485 221.14C178.978 220.821 179.54 220.662 180.174 220.662C180.666 220.662 181.058 220.744 181.35 220.908C181.641 221.067 181.865 221.252 182.02 221.461C182.174 221.671 182.293 221.844 182.375 221.981H182.478V220.757H183.701V228.4H182.484V227.217H182.375C182.293 227.359 182.17 227.536 182.006 227.75C181.846 227.965 181.618 228.154 181.322 228.318C181.026 228.482 180.634 228.564 180.146 228.564ZM180.352 227.463C180.816 227.463 181.208 227.343 181.527 227.101C181.846 226.855 182.088 226.515 182.252 226.083C182.416 225.65 182.498 225.151 182.498 224.585C182.498 224.02 182.416 223.528 182.252 223.109C182.092 222.685 181.853 222.355 181.534 222.118C181.215 221.881 180.821 221.762 180.352 221.762C179.868 221.762 179.465 221.888 179.142 222.138C178.818 222.384 178.574 222.722 178.41 223.15C178.251 223.574 178.171 224.052 178.171 224.585C178.171 225.119 178.253 225.604 178.417 226.042C178.581 226.474 178.825 226.821 179.148 227.081C179.472 227.336 179.873 227.463 180.352 227.463ZM188.958 231.421C188.393 231.421 187.903 231.348 187.488 231.203C187.078 231.061 186.736 230.872 186.463 230.635C186.189 230.398 185.973 230.141 185.813 229.863L186.812 229.22C186.921 229.366 187.055 229.528 187.215 229.706C187.379 229.883 187.598 230.034 187.871 230.157C188.149 230.284 188.511 230.348 188.958 230.348C189.569 230.348 190.07 230.202 190.462 229.911C190.858 229.619 191.057 229.159 191.057 228.53V226.999H190.94C190.854 227.144 190.731 227.318 190.571 227.518C190.416 227.719 190.191 227.896 189.895 228.051C189.603 228.202 189.211 228.277 188.719 228.277C188.108 228.277 187.559 228.133 187.071 227.846C186.584 227.555 186.199 227.131 185.916 226.575C185.633 226.019 185.492 225.342 185.492 224.544C185.492 223.756 185.631 223.072 185.909 222.494C186.187 221.91 186.57 221.459 187.058 221.14C187.55 220.821 188.113 220.662 188.746 220.662C189.238 220.662 189.63 220.744 189.922 220.908C190.218 221.067 190.446 221.252 190.605 221.461C190.765 221.671 190.888 221.844 190.975 221.981H191.091V220.757H192.287V228.598C192.287 229.254 192.139 229.79 191.843 230.205C191.547 230.624 191.146 230.931 190.64 231.127C190.138 231.323 189.578 231.421 188.958 231.421ZM188.924 227.183C189.389 227.183 189.781 227.078 190.1 226.869C190.419 226.654 190.66 226.349 190.824 225.953C190.988 225.552 191.07 225.073 191.07 224.517C191.07 223.975 190.988 223.499 190.824 223.088C190.665 222.674 190.425 222.35 190.106 222.118C189.787 221.881 189.393 221.762 188.924 221.762C188.441 221.762 188.037 221.888 187.714 222.138C187.39 222.384 187.146 222.715 186.982 223.129C186.823 223.544 186.743 224.007 186.743 224.517C186.743 225.041 186.825 225.504 186.989 225.905C187.153 226.306 187.397 226.62 187.721 226.848C188.044 227.071 188.445 227.183 188.924 227.183ZM197.558 228.564C196.865 228.564 196.257 228.4 195.732 228.072C195.213 227.744 194.807 227.283 194.516 226.691C194.224 226.098 194.078 225.41 194.078 224.626C194.078 223.829 194.224 223.134 194.516 222.542C194.807 221.944 195.213 221.482 195.732 221.154C196.257 220.826 196.865 220.662 197.558 220.662C198.255 220.662 198.866 220.826 199.39 221.154C199.914 221.482 200.322 221.944 200.613 222.542C200.905 223.134 201.051 223.829 201.051 224.626C201.051 225.41 200.905 226.098 200.613 226.691C200.322 227.283 199.914 227.744 199.39 228.072C198.866 228.4 198.255 228.564 197.558 228.564ZM197.558 227.463C198.073 227.463 198.496 227.331 198.829 227.067C199.162 226.803 199.408 226.456 199.567 226.028C199.727 225.595 199.807 225.128 199.807 224.626C199.807 224.121 199.727 223.651 199.567 223.218C199.408 222.781 199.162 222.43 198.829 222.166C198.496 221.897 198.073 221.762 197.558 221.762C197.047 221.762 196.628 221.897 196.3 222.166C195.972 222.43 195.728 222.778 195.568 223.211C195.409 223.644 195.329 224.116 195.329 224.626C195.329 225.128 195.409 225.595 195.568 226.028C195.728 226.456 195.972 226.803 196.3 227.067C196.628 227.331 197.047 227.463 197.558 227.463Z" fill="#111827"/>
<rect x="344.5" y="215.4" width="16" height="16" rx="8" fill="white"/>
<rect x="344.5" y="215.4" width="16" height="16" rx="8" stroke="#E4E4E7"/>
<rect x="37.4023" y="274.47" width="4.34127" height="4.34127" transform="rotate(-45 37.4023 274.47)" stroke="#111827" stroke-linejoin="round"/>
<rect x="37.4023" y="284.33" width="4.34127" height="4.34127" transform="rotate(-45 37.4023 284.33)" stroke="#111827" stroke-linejoin="round"/>
<rect x="42.3604" y="279.424" width="4.34127" height="4.34127" transform="rotate(-45 42.3604 279.424)" stroke="#111827" stroke-linejoin="round"/>
<rect x="32.5" y="279.424" width="4.34127" height="4.34127" transform="rotate(-45 32.5 279.424)" stroke="#111827" stroke-linejoin="round"/>
<path d="M61.625 276.72V278.306H56.6562V276.72H61.625ZM57.9141 274.619H59.9375V282.955C59.9375 283.267 60.0052 283.496 60.1406 283.642C60.276 283.783 60.5 283.853 60.8125 283.853C60.9062 283.853 61.0286 283.843 61.1797 283.822C61.3359 283.801 61.4609 283.783 61.5547 283.767L61.8438 285.337C61.6302 285.4 61.4062 285.442 61.1719 285.462C60.9427 285.488 60.7188 285.501 60.5 285.501C59.6667 285.501 59.026 285.298 58.5781 284.892C58.1354 284.486 57.9141 283.9 57.9141 283.134V274.619ZM66.1797 285.517C65.5859 285.517 65.0625 285.389 64.6094 285.134C64.1615 284.879 63.8125 284.507 63.5625 284.017C63.3177 283.522 63.1953 282.926 63.1953 282.228V276.72H65.2188V281.916C65.2188 282.504 65.3698 282.965 65.6719 283.298C65.9792 283.626 66.3984 283.791 66.9297 283.791C67.2891 283.791 67.6068 283.712 67.8828 283.556C68.1641 283.4 68.3828 283.173 68.5391 282.876C68.7005 282.574 68.7812 282.21 68.7812 281.783V276.72H70.8125V285.4H68.8828L68.8594 283.244H69.0391C68.7943 284.004 68.4323 284.574 67.9531 284.955C67.474 285.33 66.8828 285.517 66.1797 285.517ZM72.9297 285.4V276.72H74.8906V278.173H74.9766C75.1328 277.668 75.401 277.28 75.7812 277.009C76.1667 276.738 76.612 276.603 77.1172 276.603C77.2318 276.603 77.3568 276.608 77.4922 276.619C77.6328 276.629 77.75 276.642 77.8438 276.658V278.517C77.7656 278.491 77.6328 278.468 77.4453 278.447C77.2578 278.426 77.0729 278.416 76.8906 278.416C76.5208 278.416 76.1875 278.496 75.8906 278.658C75.599 278.814 75.3698 279.035 75.2031 279.322C75.0365 279.603 74.9531 279.934 74.9531 280.314V285.4H72.9297ZM84.0234 285.564C83.5391 285.564 83.1328 285.483 82.8047 285.322C82.4766 285.155 82.2083 284.955 82 284.72C81.7969 284.481 81.6406 284.251 81.5312 284.033H81.4141V285.4H79.4297V273.759H81.4531V278.134H81.5312C81.6458 277.916 81.8021 277.689 82 277.455C82.1979 277.215 82.4609 277.014 82.7891 276.853C83.1172 276.686 83.5312 276.603 84.0312 276.603C84.7083 276.603 85.3177 276.778 85.8594 277.126C86.401 277.47 86.8307 277.975 87.1484 278.642C87.4661 279.309 87.625 280.119 87.625 281.072C87.625 282.02 87.4688 282.827 87.1562 283.494C86.849 284.16 86.4245 284.673 85.8828 285.033C85.3411 285.387 84.7214 285.564 84.0234 285.564ZM83.4844 283.892C83.9323 283.892 84.3099 283.772 84.6172 283.533C84.9245 283.288 85.1562 282.952 85.3125 282.525C85.474 282.098 85.5547 281.611 85.5547 281.064C85.5547 280.522 85.4766 280.041 85.3203 279.619C85.1641 279.197 84.9323 278.866 84.625 278.626C84.3177 278.387 83.9375 278.267 83.4844 278.267C83.0417 278.267 82.6641 278.384 82.3516 278.619C82.0443 278.848 81.8099 279.173 81.6484 279.595C81.487 280.012 81.4062 280.501 81.4062 281.064C81.4062 281.626 81.487 282.121 81.6484 282.548C81.8099 282.97 82.0469 283.301 82.3594 283.541C82.6719 283.775 83.0469 283.892 83.4844 283.892ZM93.1328 285.58C92.2891 285.58 91.5547 285.392 90.9297 285.017C90.3047 284.642 89.8203 284.119 89.4766 283.447C89.138 282.775 88.9688 281.994 88.9688 281.103C88.9688 280.202 89.138 279.416 89.4766 278.744C89.8203 278.067 90.3047 277.541 90.9297 277.166C91.5547 276.791 92.2891 276.603 93.1328 276.603C93.9766 276.603 94.7109 276.791 95.3359 277.166C95.9609 277.541 96.4427 278.067 96.7812 278.744C97.125 279.416 97.2969 280.202 97.2969 281.103C97.2969 281.994 97.125 282.775 96.7812 283.447C96.4427 284.119 95.9609 284.642 95.3359 285.017C94.7109 285.392 93.9766 285.58 93.1328 285.58ZM93.1328 283.931C93.6016 283.931 93.9922 283.806 94.3047 283.556C94.6172 283.301 94.8516 282.96 95.0078 282.533C95.1641 282.106 95.2422 281.626 95.2422 281.095C95.2422 280.559 95.1641 280.077 95.0078 279.65C94.8516 279.218 94.6172 278.876 94.3047 278.626C93.9922 278.376 93.6016 278.251 93.1328 278.251C92.6641 278.251 92.2734 278.376 91.9609 278.626C91.6536 278.876 91.4219 279.215 91.2656 279.642C91.1094 280.069 91.0312 280.554 91.0312 281.095C91.0312 281.626 91.1094 282.106 91.2656 282.533C91.4219 282.96 91.6536 283.301 91.9609 283.556C92.2734 283.806 92.6641 283.931 93.1328 283.931Z" fill="#111827"/>
<path fill-rule="evenodd" clip-rule="evenodd" d="M113.5 272.338C111.316 272.338 109.546 274.108 109.546 276.292V277.864C109.546 277.864 109.546 277.864 109.546 277.864H107.283C107.007 277.864 106.783 278.088 106.783 278.364V285.962C106.783 286.238 107.007 286.462 107.283 286.462H119.717C119.993 286.462 120.217 286.238 120.217 285.962V278.364C120.217 278.088 119.993 277.864 119.717 277.864H117.454C117.454 277.864 117.454 277.864 117.454 277.864V276.292C117.454 274.108 115.684 272.338 113.5 272.338ZM110.546 276.292C110.546 274.66 111.869 273.338 113.5 273.338C115.131 273.338 116.454 274.66 116.454 276.292V277.864H110.546V276.292ZM107.783 285.462V278.864H119.217V285.462H107.783Z" fill="#111827"/>
<path d="M132.916 284.537C132.492 284.537 132.068 284.459 131.645 284.304C131.221 284.149 130.833 283.889 130.482 283.525C130.136 283.16 129.858 282.666 129.648 282.042C129.439 281.417 129.334 280.636 129.334 279.697C129.334 278.799 129.418 278.004 129.587 277.311C129.76 276.614 130.008 276.026 130.332 275.547C130.66 275.064 131.054 274.7 131.515 274.454C131.975 274.203 132.494 274.078 133.073 274.078C133.643 274.078 134.153 274.192 134.604 274.419C135.056 274.647 135.425 274.964 135.712 275.37C135.999 275.775 136.184 276.245 136.266 276.778H134.994C134.88 276.336 134.664 275.967 134.345 275.67C134.026 275.374 133.602 275.226 133.073 275.226C132.554 275.226 132.105 275.379 131.727 275.684C131.353 275.989 131.066 276.431 130.865 277.01C130.665 277.584 130.564 278.279 130.564 279.095H130.646C130.829 278.813 131.048 278.571 131.303 278.371C131.558 278.166 131.843 278.011 132.157 277.906C132.472 277.796 132.804 277.742 133.155 277.742C133.739 277.742 134.272 277.885 134.755 278.172C135.238 278.459 135.623 278.858 135.91 279.369C136.202 279.875 136.348 280.456 136.348 281.112C136.348 281.745 136.206 282.322 135.924 282.841C135.641 283.356 135.243 283.769 134.728 284.079C134.213 284.384 133.609 284.537 132.916 284.537ZM132.916 283.395C133.326 283.395 133.695 283.292 134.023 283.087C134.352 282.882 134.611 282.609 134.803 282.267C134.994 281.921 135.09 281.536 135.09 281.112C135.09 280.697 134.996 280.321 134.81 279.984C134.627 279.642 134.374 279.371 134.051 279.17C133.727 278.97 133.36 278.87 132.95 278.87C132.64 278.87 132.351 278.931 132.082 279.054C131.818 279.173 131.585 279.339 131.385 279.553C131.184 279.763 131.027 280.004 130.913 280.278C130.804 280.547 130.749 280.829 130.749 281.125C130.749 281.527 130.842 281.9 131.029 282.247C131.216 282.588 131.474 282.866 131.802 283.081C132.13 283.29 132.501 283.395 132.916 283.395ZM141.646 274.214V284.4H140.367V275.417H140.299L137.838 277.243V275.848L140.053 274.214H141.646ZM146.827 284.564C146.194 284.564 145.633 284.402 145.146 284.079C144.658 283.755 144.277 283.297 144.004 282.705C143.73 282.112 143.594 281.41 143.594 280.599C143.594 279.792 143.73 279.095 144.004 278.507C144.282 277.915 144.665 277.459 145.152 277.14C145.64 276.821 146.201 276.662 146.834 276.662C147.331 276.662 147.725 276.744 148.017 276.908C148.308 277.072 148.532 277.259 148.687 277.468C148.846 277.673 148.967 277.844 149.049 277.981H149.145V274.214H150.375V284.4H149.186V283.217H149.049C148.967 283.359 148.844 283.536 148.68 283.75C148.52 283.96 148.292 284.149 147.996 284.318C147.704 284.482 147.315 284.564 146.827 284.564ZM147.012 283.463C147.477 283.463 147.868 283.343 148.188 283.101C148.507 282.855 148.748 282.515 148.912 282.083C149.076 281.65 149.158 281.151 149.158 280.585C149.158 280.02 149.076 279.528 148.912 279.109C148.753 278.685 148.513 278.355 148.194 278.118C147.875 277.881 147.481 277.762 147.012 277.762C146.529 277.762 146.125 277.888 145.802 278.138C145.483 278.389 145.243 278.728 145.084 279.157C144.924 279.581 144.845 280.057 144.845 280.585C144.845 281.119 144.924 281.604 145.084 282.042C145.248 282.474 145.492 282.821 145.815 283.081C146.139 283.336 146.538 283.463 147.012 283.463ZM159.33 284.564C158.701 284.564 158.143 284.402 157.655 284.079C157.172 283.755 156.792 283.297 156.514 282.705C156.24 282.112 156.104 281.41 156.104 280.599C156.104 279.792 156.243 279.095 156.521 278.507C156.799 277.915 157.181 277.459 157.669 277.14C158.161 276.821 158.724 276.662 159.357 276.662C159.85 276.662 160.242 276.744 160.533 276.908C160.825 277.067 161.048 277.252 161.203 277.461C161.358 277.671 161.477 277.844 161.559 277.981H161.661V276.757H162.885V284.4H161.668V283.217H161.559C161.477 283.359 161.354 283.536 161.189 283.75C161.03 283.965 160.802 284.154 160.506 284.318C160.21 284.482 159.818 284.564 159.33 284.564ZM159.535 283.463C160 283.463 160.392 283.343 160.711 283.101C161.03 282.855 161.271 282.515 161.436 282.083C161.6 281.65 161.682 281.151 161.682 280.585C161.682 280.02 161.6 279.528 161.436 279.109C161.276 278.685 161.037 278.355 160.718 278.118C160.399 277.881 160.005 277.762 159.535 277.762C159.052 277.762 158.649 277.888 158.325 278.138C158.002 278.384 157.758 278.722 157.594 279.15C157.434 279.574 157.354 280.052 157.354 280.585C157.354 281.119 157.437 281.604 157.601 282.042C157.765 282.474 158.008 282.821 158.332 283.081C158.656 283.336 159.057 283.463 159.535 283.463ZM168.142 287.421C167.576 287.421 167.087 287.348 166.672 287.203C166.262 287.061 165.92 286.872 165.646 286.635C165.373 286.398 165.157 286.141 164.997 285.863L165.995 285.22C166.104 285.366 166.239 285.528 166.398 285.706C166.562 285.883 166.781 286.034 167.055 286.157C167.333 286.284 167.695 286.348 168.142 286.348C168.752 286.348 169.254 286.202 169.646 285.911C170.042 285.619 170.24 285.159 170.24 284.53V282.999H170.124C170.037 283.144 169.914 283.318 169.755 283.518C169.6 283.719 169.374 283.896 169.078 284.051C168.786 284.202 168.395 284.277 167.902 284.277C167.292 284.277 166.743 284.133 166.255 283.846C165.767 283.555 165.382 283.131 165.1 282.575C164.817 282.019 164.676 281.342 164.676 280.544C164.676 279.756 164.815 279.072 165.093 278.494C165.371 277.91 165.754 277.459 166.241 277.14C166.733 276.821 167.296 276.662 167.93 276.662C168.422 276.662 168.814 276.744 169.105 276.908C169.402 277.067 169.63 277.252 169.789 277.461C169.949 277.671 170.072 277.844 170.158 277.981H170.274V276.757H171.471V284.598C171.471 285.254 171.323 285.79 171.026 286.205C170.73 286.624 170.329 286.931 169.823 287.127C169.322 287.323 168.761 287.421 168.142 287.421ZM168.107 283.183C168.572 283.183 168.964 283.078 169.283 282.869C169.602 282.654 169.844 282.349 170.008 281.953C170.172 281.552 170.254 281.073 170.254 280.517C170.254 279.975 170.172 279.499 170.008 279.088C169.848 278.674 169.609 278.35 169.29 278.118C168.971 277.881 168.577 277.762 168.107 277.762C167.624 277.762 167.221 277.888 166.897 278.138C166.574 278.384 166.33 278.715 166.166 279.129C166.007 279.544 165.927 280.007 165.927 280.517C165.927 281.041 166.009 281.504 166.173 281.905C166.337 282.306 166.581 282.62 166.904 282.848C167.228 283.071 167.629 283.183 168.107 283.183ZM176.741 284.564C176.049 284.564 175.44 284.4 174.916 284.072C174.396 283.744 173.991 283.283 173.699 282.691C173.408 282.098 173.262 281.41 173.262 280.626C173.262 279.829 173.408 279.134 173.699 278.542C173.991 277.944 174.396 277.482 174.916 277.154C175.44 276.826 176.049 276.662 176.741 276.662C177.438 276.662 178.049 276.826 178.573 277.154C179.097 277.482 179.505 277.944 179.797 278.542C180.089 279.134 180.234 279.829 180.234 280.626C180.234 281.41 180.089 282.098 179.797 282.691C179.505 283.283 179.097 283.744 178.573 284.072C178.049 284.4 177.438 284.564 176.741 284.564ZM176.741 283.463C177.256 283.463 177.68 283.331 178.013 283.067C178.345 282.803 178.591 282.456 178.751 282.028C178.91 281.595 178.99 281.128 178.99 280.626C178.99 280.121 178.91 279.651 178.751 279.218C178.591 278.781 178.345 278.43 178.013 278.166C177.68 277.897 177.256 277.762 176.741 277.762C176.231 277.762 175.812 277.897 175.483 278.166C175.155 278.43 174.911 278.778 174.752 279.211C174.592 279.644 174.513 280.116 174.513 280.626C174.513 281.128 174.592 281.595 174.752 282.028C174.911 282.456 175.155 282.803 175.483 283.067C175.812 283.331 176.231 283.463 176.741 283.463Z" fill="#111827"/>
<rect x="344.5" y="271.4" width="16" height="16" rx="8" fill="white"/>
<rect x="344.5" y="271.4" width="16" height="16" rx="8" stroke="#E4E4E7"/>
</g>
<rect x="16.5" y="15.3999" width="360" height="327.824" rx="4" stroke="#E4E4E7"/>
</g>
<defs>
<filter id="filter0_dd_3945_109494" x="0" y="0.899902" width="393" height="360.824" filterUnits="userSpaceOnUse" color-interpolation-filters="sRGB">
<feFlood flood-opacity="0" result="BackgroundImageFix"/>
<feColorMatrix in="SourceAlpha" type="matrix" values="0 0 0 0 0 0 0 0 0 0 0 0 0 0 0 0 0 0 127 0" result="hardAlpha"/>
<feOffset dy="2"/>
<feGaussianBlur stdDeviation="8"/>
<feColorMatrix type="matrix" values="0 0 0 0 0.129412 0 0 0 0 0.168627 0 0 0 0 0.211765 0 0 0 0.08 0"/>
<feBlend mode="normal" in2="BackgroundImageFix" result="effect1_dropShadow_3945_109494"/>
<feColorMatrix in="SourceAlpha" type="matrix" values="0 0 0 0 0 0 0 0 0 0 0 0 0 0 0 0 0 0 127 0" result="hardAlpha"/>
<feMorphology radius="1" operator="dilate" in="SourceAlpha" result="effect2_dropShadow_3945_109494"/>
<feOffset/>
<feColorMatrix type="matrix" values="0 0 0 0 0.0235294 0 0 0 0 0.172549 0 0 0 0 0.321569 0 0 0 0.1 0"/>
<feBlend mode="normal" in2="effect1_dropShadow_3945_109494" result="effect2_dropShadow_3945_109494"/>
<feBlend mode="normal" in="SourceGraphic" in2="effect2_dropShadow_3945_109494" result="shape"/>
</filter>
<clipPath id="clip0_3945_109494">
<rect x="16.5" y="15.3999" width="360" height="327.824" rx="4" fill="white"/>
</clipPath>
<clipPath id="clip1_3945_109494">
<rect x="206.5" y="31.3999" width="154" height="36" rx="4" fill="white"/>
</clipPath>
</defs>
</svg>
