<svg width="356" height="371" viewBox="0 0 356 371" fill="none" xmlns="http://www.w3.org/2000/svg">
<path d="M6.12793 17.5195V7.33398H9.77832C10.5622 7.33398 11.2161 7.47982 11.7402 7.77148C12.2643 8.06315 12.6562 8.45736 12.916 8.9541C13.1758 9.45085 13.3057 10.0137 13.3057 10.6426C13.3057 11.2715 13.1735 11.8366 12.9092 12.3379C12.6494 12.8346 12.2575 13.2288 11.7334 13.5205C11.2093 13.8076 10.5531 13.9512 9.76465 13.9512H7.26953V12.6318H9.61426C10.1156 12.6318 10.5212 12.5452 10.8311 12.3721C11.141 12.1989 11.3665 11.9619 11.5078 11.6611C11.6536 11.3604 11.7266 11.0208 11.7266 10.6426C11.7266 10.2598 11.6536 9.92025 11.5078 9.62402C11.3665 9.32324 11.1387 9.08854 10.8242 8.91992C10.5143 8.7513 10.1064 8.66699 9.60059 8.66699H7.68652V17.5195H6.12793ZM14.9941 17.5195V9.87695H16.4502V11.1074H16.5322C16.6735 10.6882 16.9196 10.36 17.2705 10.123C17.6214 9.88607 18.0202 9.76758 18.4668 9.76758C18.5625 9.76758 18.6719 9.77214 18.7949 9.78125C18.918 9.78581 19.0205 9.79492 19.1025 9.80859V11.2441C19.0479 11.2259 18.943 11.2077 18.7881 11.1895C18.6331 11.1712 18.4759 11.1621 18.3164 11.1621C17.9701 11.1621 17.6579 11.235 17.3799 11.3809C17.1019 11.5267 16.8854 11.7295 16.7305 11.9893C16.5755 12.2445 16.498 12.5407 16.498 12.8779V17.5195H14.9941ZM23.3477 17.6768C22.6322 17.6768 22.0055 17.5127 21.4678 17.1846C20.9346 16.8564 20.5199 16.3962 20.2236 15.8037C19.9274 15.2113 19.7793 14.5231 19.7793 13.7393C19.7793 12.9463 19.9274 12.2536 20.2236 11.6611C20.5199 11.0641 20.9346 10.6016 21.4678 10.2734C22.0055 9.94531 22.6322 9.78125 23.3477 9.78125C24.0677 9.78125 24.6943 9.94531 25.2275 10.2734C25.7653 10.6016 26.1823 11.0641 26.4785 11.6611C26.7747 12.2536 26.9229 12.9463 26.9229 13.7393C26.9229 14.5231 26.7747 15.2113 26.4785 15.8037C26.1823 16.3962 25.7653 16.8564 25.2275 17.1846C24.6943 17.5127 24.0677 17.6768 23.3477 17.6768ZM23.3477 16.4053C23.8125 16.4053 24.1953 16.2845 24.4961 16.043C24.8014 15.7969 25.027 15.4733 25.1729 15.0723C25.3232 14.6667 25.3984 14.2223 25.3984 13.7393C25.3984 13.2516 25.3232 12.805 25.1729 12.3994C25.027 11.9893 24.8014 11.6634 24.4961 11.4219C24.1953 11.1758 23.8125 11.0527 23.3477 11.0527C22.8874 11.0527 22.5068 11.1758 22.2061 11.4219C21.9053 11.6634 21.6797 11.987 21.5293 12.3926C21.3835 12.7982 21.3105 13.2471 21.3105 13.7393C21.3105 14.2223 21.3835 14.6667 21.5293 15.0723C21.6797 15.4733 21.9053 15.7969 22.2061 16.043C22.5068 16.2845 22.8874 16.4053 23.3477 16.4053ZM28.5908 9.87695H30.1016V18.0117C30.1061 18.5312 30.0127 18.9665 29.8213 19.3174C29.6344 19.6683 29.3587 19.9326 28.9941 20.1104C28.6296 20.2881 28.1829 20.377 27.6543 20.377H27.3535V19.085H27.5928C27.9482 19.085 28.2035 18.9915 28.3584 18.8047C28.5133 18.6224 28.5908 18.3558 28.5908 18.0049V9.87695ZM29.3496 8.70801C29.0898 8.70801 28.8665 8.62142 28.6797 8.44824C28.4974 8.27507 28.4062 8.06543 28.4062 7.81934C28.4062 7.56868 28.4974 7.35677 28.6797 7.18359C28.8665 7.01042 29.0898 6.92383 29.3496 6.92383C29.6094 6.92383 29.8327 7.01042 30.0195 7.18359C30.2064 7.35677 30.2998 7.56868 30.2998 7.81934C30.2998 8.06543 30.2064 8.27507 30.0195 8.44824C29.8327 8.62142 29.6094 8.70801 29.3496 8.70801ZM35.4199 17.6768C34.668 17.6768 34.0186 17.515 33.4717 17.1914C32.9248 16.8678 32.5033 16.4121 32.207 15.8242C31.9154 15.2363 31.7695 14.5459 31.7695 13.7529C31.7695 12.9691 31.9131 12.2786 32.2002 11.6816C32.4919 11.0846 32.902 10.6198 33.4307 10.2871C33.9593 9.94987 34.5791 9.78125 35.29 9.78125C35.7275 9.78125 36.1491 9.85417 36.5547 10C36.9603 10.1413 37.3249 10.3646 37.6484 10.6699C37.972 10.9753 38.2272 11.3717 38.4141 11.8594C38.6055 12.3424 38.7012 12.9303 38.7012 13.623V14.1562H32.6104V13.0352H37.9287L37.2246 13.4043C37.2246 12.9349 37.1517 12.5225 37.0059 12.167C36.86 11.807 36.6436 11.5267 36.3564 11.3262C36.0739 11.1257 35.7184 11.0254 35.29 11.0254C34.8662 11.0254 34.5039 11.1279 34.2031 11.333C33.9023 11.5381 33.6722 11.8092 33.5127 12.1465C33.3577 12.4792 33.2803 12.8438 33.2803 13.2402V14.0059C33.2803 14.5299 33.3691 14.9743 33.5469 15.3389C33.7292 15.6989 33.9821 15.9723 34.3057 16.1592C34.6292 16.3415 35.0052 16.4326 35.4336 16.4326C35.7161 16.4326 35.9714 16.3939 36.1992 16.3164C36.4271 16.2344 36.623 16.1136 36.7871 15.9541C36.9557 15.79 37.0833 15.5895 37.1699 15.3525L38.585 15.6875C38.4619 16.0794 38.2546 16.4258 37.9629 16.7266C37.6758 17.0273 37.3158 17.262 36.8828 17.4307C36.4544 17.5947 35.9668 17.6768 35.4199 17.6768ZM43.5684 17.6768C42.8483 17.6768 42.2217 17.5127 41.6885 17.1846C41.1553 16.8564 40.7406 16.3962 40.4443 15.8037C40.1481 15.2113 40 14.5231 40 13.7393C40 12.9463 40.1481 12.2536 40.4443 11.6611C40.7406 11.0641 41.1553 10.6016 41.6885 10.2734C42.2217 9.94531 42.8483 9.78125 43.5684 9.78125C43.9648 9.78125 44.3363 9.83366 44.6826 9.93848C45.029 10.0387 45.3411 10.1868 45.6191 10.3828C45.9017 10.5742 46.1387 10.8112 46.3301 11.0938C46.526 11.3717 46.6719 11.6862 46.7676 12.0371L45.3389 12.3789C45.2887 12.1829 45.2113 12.0052 45.1064 11.8457C45.0016 11.6816 44.874 11.5404 44.7236 11.4219C44.5778 11.3034 44.4069 11.2122 44.2109 11.1484C44.0195 11.0846 43.8076 11.0527 43.5752 11.0527C43.1149 11.0527 42.7321 11.1758 42.4268 11.4219C42.126 11.6634 41.9004 11.987 41.75 12.3926C41.6042 12.7982 41.5312 13.2471 41.5312 13.7393C41.5312 14.2269 41.6042 14.6735 41.75 15.0791C41.9004 15.4801 42.126 15.8014 42.4268 16.043C42.7321 16.2845 43.1149 16.4053 43.5752 16.4053C43.8122 16.4053 44.0286 16.3734 44.2246 16.3096C44.4206 16.2412 44.596 16.1478 44.751 16.0293C44.9059 15.9062 45.0358 15.7604 45.1406 15.5918C45.2454 15.4186 45.3206 15.2295 45.3662 15.0244L46.7881 15.3662C46.6969 15.7262 46.5534 16.0498 46.3574 16.3369C46.1615 16.6195 45.9222 16.861 45.6396 17.0615C45.3617 17.262 45.0472 17.4147 44.6963 17.5195C44.3454 17.6243 43.9694 17.6768 43.5684 17.6768ZM51.7031 9.87695V11.1006H47.5605V9.87695H51.7031ZM48.6748 8.05859H50.1787V15.4551C50.1787 15.7604 50.2425 15.986 50.3701 16.1318C50.5023 16.2731 50.7165 16.3438 51.0127 16.3438C51.0902 16.3438 51.1927 16.3346 51.3203 16.3164C51.4479 16.2982 51.5573 16.2799 51.6484 16.2617L51.915 17.4648C51.7555 17.5195 51.5846 17.5583 51.4023 17.5811C51.2201 17.6084 51.04 17.6221 50.8623 17.6221C50.1696 17.6221 49.6318 17.4443 49.249 17.0889C48.8662 16.7288 48.6748 16.2253 48.6748 15.5781V8.05859ZM58.4434 12.9941V17.5195H56.9395V9.87695H58.375L58.3887 11.75H58.2314C58.4548 11.0664 58.7783 10.5674 59.2021 10.2529C59.626 9.93848 60.1387 9.78125 60.7402 9.78125C61.2598 9.78125 61.7132 9.89062 62.1006 10.1094C62.488 10.3281 62.791 10.6517 63.0098 11.0801C63.2285 11.5039 63.3379 12.0326 63.3379 12.666V17.5195H61.834V12.8506C61.834 12.2992 61.6904 11.8685 61.4033 11.5586C61.1162 11.2487 60.722 11.0938 60.2207 11.0938C59.8835 11.0938 59.5804 11.1689 59.3115 11.3193C59.0426 11.4652 58.8307 11.6794 58.6758 11.9619C58.5208 12.2445 58.4434 12.5885 58.4434 12.9941ZM68.1982 17.6699C67.583 17.6699 67.0339 17.5127 66.5508 17.1982C66.0723 16.8792 65.694 16.4258 65.416 15.8379C65.1426 15.2454 65.0059 14.5391 65.0059 13.7188C65.0059 12.8893 65.1449 12.1807 65.4229 11.5928C65.7054 11.0049 66.0882 10.556 66.5713 10.2461C67.0589 9.9362 67.6081 9.78125 68.2188 9.78125C68.6882 9.78125 69.0664 9.85872 69.3535 10.0137C69.6452 10.1686 69.8708 10.3532 70.0303 10.5674C70.1943 10.777 70.3197 10.9616 70.4062 11.1211H70.502V9.87695H71.9922V17.5195H70.5088V16.3232H70.4062C70.3197 16.4873 70.1921 16.6764 70.0234 16.8906C69.8548 17.1003 69.6247 17.2826 69.333 17.4375C69.0413 17.5924 68.6631 17.6699 68.1982 17.6699ZM68.5469 16.3916C68.9753 16.3916 69.3353 16.2777 69.627 16.0498C69.9232 15.8219 70.1465 15.5075 70.2969 15.1064C70.4473 14.7008 70.5225 14.2337 70.5225 13.7051C70.5225 13.1719 70.4473 12.7093 70.2969 12.3174C70.1465 11.9209 69.9232 11.6133 69.627 11.3945C69.3353 11.1712 68.9753 11.0596 68.5469 11.0596C68.1048 11.0596 67.7357 11.1758 67.4395 11.4082C67.1432 11.6361 66.9199 11.9505 66.7695 12.3516C66.6191 12.748 66.5439 13.1992 66.5439 13.7051C66.5439 14.2109 66.6191 14.6667 66.7695 15.0723C66.9199 15.4779 67.1432 15.7992 67.4395 16.0361C67.7402 16.2731 68.1094 16.3916 68.5469 16.3916ZM74.0156 17.5195V9.87695H75.4443L75.4854 11.6475H75.3691C75.4785 11.2145 75.6471 10.859 75.875 10.5811C76.1029 10.3031 76.3695 10.0957 76.6748 9.95898C76.9801 9.81771 77.2992 9.74707 77.6318 9.74707C78.1878 9.74707 78.6367 9.92025 78.9785 10.2666C79.3203 10.6084 79.5505 11.0869 79.6689 11.7021H79.4775C79.5778 11.2829 79.751 10.9274 79.9971 10.6357C80.2432 10.3441 80.5394 10.123 80.8857 9.97266C81.2367 9.82227 81.6104 9.74707 82.0068 9.74707C82.458 9.74707 82.8659 9.84505 83.2305 10.041C83.5996 10.237 83.8913 10.5286 84.1055 10.916C84.3197 11.3034 84.4268 11.7865 84.4268 12.3652V17.5195H82.916V12.5156C82.916 12.0052 82.7747 11.6361 82.4922 11.4082C82.2096 11.1803 81.8747 11.0664 81.4873 11.0664C81.1729 11.0664 80.9017 11.1325 80.6738 11.2646C80.446 11.3968 80.2705 11.5814 80.1475 11.8184C80.0244 12.0508 79.9629 12.3197 79.9629 12.625V17.5195H78.4795V12.4199C78.4795 12.0098 78.3473 11.6816 78.083 11.4355C77.8232 11.1895 77.4906 11.0664 77.085 11.0664C76.807 11.0664 76.5472 11.1325 76.3057 11.2646C76.0687 11.3923 75.8773 11.5837 75.7314 11.8389C75.5902 12.0895 75.5195 12.3994 75.5195 12.7686V17.5195H74.0156ZM89.752 17.6768C89 17.6768 88.3506 17.515 87.8037 17.1914C87.2568 16.8678 86.8353 16.4121 86.5391 15.8242C86.2474 15.2363 86.1016 14.5459 86.1016 13.7529C86.1016 12.9691 86.2451 12.2786 86.5322 11.6816C86.8239 11.0846 87.234 10.6198 87.7627 10.2871C88.2913 9.94987 88.9111 9.78125 89.6221 9.78125C90.0596 9.78125 90.4811 9.85417 90.8867 10C91.2923 10.1413 91.6569 10.3646 91.9805 10.6699C92.304 10.9753 92.5592 11.3717 92.7461 11.8594C92.9375 12.3424 93.0332 12.9303 93.0332 13.623V14.1562H86.9424V13.0352H92.2607L91.5566 13.4043C91.5566 12.9349 91.4837 12.5225 91.3379 12.167C91.1921 11.807 90.9756 11.5267 90.6885 11.3262C90.4059 11.1257 90.0505 11.0254 89.6221 11.0254C89.1982 11.0254 88.8359 11.1279 88.5352 11.333C88.2344 11.5381 88.0042 11.8092 87.8447 12.1465C87.6898 12.4792 87.6123 12.8438 87.6123 13.2402V14.0059C87.6123 14.5299 87.7012 14.9743 87.8789 15.3389C88.0612 15.6989 88.3141 15.9723 88.6377 16.1592C88.9613 16.3415 89.3372 16.4326 89.7656 16.4326C90.0482 16.4326 90.3034 16.3939 90.5312 16.3164C90.7591 16.2344 90.9551 16.1136 91.1191 15.9541C91.2878 15.79 91.4154 15.5895 91.502 15.3525L92.917 15.6875C92.7939 16.0794 92.5866 16.4258 92.2949 16.7266C92.0078 17.0273 91.6478 17.262 91.2148 17.4307C90.7865 17.5947 90.2988 17.6768 89.752 17.6768Z" fill="#111827"/>
<g clip-path="url(#clip0_3945_124967)">
<rect x="5" y="28.5195" width="346" height="36" rx="4" fill="white"/>
</g>
<rect x="5" y="28.5195" width="346" height="36" rx="4" stroke="#E4E4E7"/>
<g filter="url(#filter0_d_3945_124967)">
<g clip-path="url(#clip1_3945_124967)">
<rect x="5" y="96.5195" width="346" height="268" rx="8" fill="white"/>
<rect width="346" height="52" transform="translate(5 96.5195)" fill="#FAFAFA"/>
<path d="M27.125 128.676C26.099 128.676 25.1823 128.439 24.375 127.965C23.5729 127.491 22.9401 126.809 22.4766 125.918C22.013 125.022 21.7812 123.952 21.7812 122.707C21.7812 121.452 22.013 120.379 22.4766 119.488C22.9401 118.592 23.5755 117.908 24.3828 117.434C25.1901 116.96 26.1042 116.723 27.125 116.723C27.7604 116.723 28.3568 116.814 28.9141 116.996C29.4714 117.173 29.9661 117.436 30.3984 117.785C30.8359 118.134 31.1953 118.559 31.4766 119.059C31.7578 119.559 31.9453 120.129 32.0391 120.77H29.9375C29.8698 120.421 29.7526 120.111 29.5859 119.84C29.4245 119.569 29.2188 119.34 28.9688 119.152C28.724 118.965 28.4479 118.824 28.1406 118.73C27.8333 118.637 27.5052 118.59 27.1562 118.59C26.5104 118.59 25.9401 118.751 25.4453 119.074C24.9505 119.392 24.5651 119.858 24.2891 120.473C24.013 121.087 23.875 121.832 23.875 122.707C23.875 123.587 24.013 124.335 24.2891 124.949C24.5703 125.559 24.9583 126.022 25.4531 126.34C25.9479 126.652 26.513 126.809 27.1484 126.809C27.4974 126.809 27.8255 126.762 28.1328 126.668C28.4401 126.569 28.7161 126.428 28.9609 126.246C29.2109 126.059 29.4193 125.829 29.5859 125.559C29.7578 125.288 29.8776 124.98 29.9453 124.637H32.0469C31.9688 125.199 31.7943 125.725 31.5234 126.215C31.2578 126.704 30.9115 127.134 30.4844 127.504C30.0573 127.874 29.5599 128.163 28.9922 128.371C28.4297 128.574 27.8073 128.676 27.125 128.676ZM35.8438 116.879V128.52H33.8203V116.879H35.8438ZM40.9453 128.637C40.3516 128.637 39.8281 128.509 39.375 128.254C38.9271 127.999 38.5781 127.626 38.3281 127.137C38.0833 126.642 37.9609 126.046 37.9609 125.348V119.84H39.9844V125.035C39.9844 125.624 40.1354 126.085 40.4375 126.418C40.7448 126.746 41.1641 126.91 41.6953 126.91C42.0547 126.91 42.3724 126.832 42.6484 126.676C42.9297 126.52 43.1484 126.293 43.3047 125.996C43.4661 125.694 43.5469 125.329 43.5469 124.902V119.84H45.5781V128.52H43.6484L43.625 126.363H43.8047C43.5599 127.124 43.1979 127.694 42.7188 128.074C42.2396 128.449 41.6484 128.637 40.9453 128.637ZM50.9922 128.699C50.3203 128.699 49.724 128.603 49.2031 128.41C48.6875 128.212 48.2656 127.928 47.9375 127.559C47.6094 127.184 47.3984 126.728 47.3047 126.191L49.2109 125.879C49.3203 126.306 49.526 126.626 49.8281 126.84C50.1302 127.048 50.5286 127.152 51.0234 127.152C51.5234 127.152 51.9167 127.053 52.2031 126.855C52.4948 126.652 52.6406 126.405 52.6406 126.113C52.6406 125.863 52.5443 125.658 52.3516 125.496C52.1589 125.329 51.8646 125.204 51.4688 125.121L49.9922 124.801C49.1693 124.624 48.5547 124.335 48.1484 123.934C47.7422 123.527 47.5391 123.004 47.5391 122.363C47.5391 121.827 47.6849 121.361 47.9766 120.965C48.2734 120.569 48.6849 120.264 49.2109 120.051C49.737 119.832 50.3464 119.723 51.0391 119.723C51.7005 119.723 52.2708 119.819 52.75 120.012C53.2292 120.199 53.6146 120.467 53.9062 120.816C54.2031 121.16 54.4036 121.564 54.5078 122.027L52.6953 122.348C52.6068 122.035 52.4297 121.772 52.1641 121.559C51.9036 121.345 51.5391 121.238 51.0703 121.238C50.638 121.238 50.2786 121.332 49.9922 121.52C49.7109 121.707 49.5703 121.949 49.5703 122.246C49.5703 122.501 49.6641 122.712 49.8516 122.879C50.0443 123.04 50.3568 123.168 50.7891 123.262L52.2734 123.574C53.1016 123.751 53.7161 124.035 54.1172 124.426C54.5182 124.811 54.7188 125.311 54.7188 125.926C54.7188 126.473 54.5599 126.954 54.2422 127.371C53.9245 127.788 53.4844 128.113 52.9219 128.348C52.3646 128.582 51.7214 128.699 50.9922 128.699ZM60.5 119.84V121.426H55.5312V119.84H60.5ZM56.7891 117.738H58.8125V126.074C58.8125 126.387 58.8802 126.616 59.0156 126.762C59.151 126.902 59.375 126.973 59.6875 126.973C59.7812 126.973 59.9036 126.962 60.0547 126.941C60.2109 126.921 60.3359 126.902 60.4297 126.887L60.7188 128.457C60.5052 128.52 60.2812 128.561 60.0469 128.582C59.8177 128.608 59.5938 128.621 59.375 128.621C58.5417 128.621 57.901 128.418 57.4531 128.012C57.0104 127.605 56.7891 127.02 56.7891 126.254V117.738ZM65.75 128.699C64.8802 128.699 64.1276 128.514 63.4922 128.145C62.862 127.775 62.3776 127.257 62.0391 126.59C61.7005 125.918 61.5312 125.132 61.5312 124.23C61.5312 123.34 61.6979 122.556 62.0312 121.879C62.3698 121.202 62.8464 120.673 63.4609 120.293C64.0755 119.913 64.7943 119.723 65.6172 119.723C66.1589 119.723 66.6693 119.811 67.1484 119.988C67.6328 120.16 68.0599 120.428 68.4297 120.793C68.7995 121.152 69.0885 121.608 69.2969 122.16C69.5104 122.712 69.6172 123.366 69.6172 124.121V124.738H62.4688V123.363H68.6016L67.6641 123.77C67.6641 123.28 67.5859 122.85 67.4297 122.48C67.2734 122.111 67.0443 121.824 66.7422 121.621C66.4453 121.413 66.0755 121.309 65.6328 121.309C65.1901 121.309 64.8125 121.413 64.5 121.621C64.1875 121.829 63.9479 122.111 63.7812 122.465C63.6198 122.814 63.5391 123.204 63.5391 123.637V124.582C63.5391 125.124 63.6302 125.585 63.8125 125.965C64 126.34 64.2604 126.624 64.5938 126.816C64.9323 127.009 65.3255 127.105 65.7734 127.105C66.0755 127.105 66.349 127.064 66.5938 126.98C66.8385 126.892 67.0469 126.764 67.2188 126.598C67.3958 126.426 67.5286 126.217 67.6172 125.973L69.4844 126.316C69.349 126.79 69.1094 127.207 68.7656 127.566C68.4271 127.921 68.0026 128.199 67.4922 128.402C66.9818 128.6 66.401 128.699 65.75 128.699ZM71.3203 128.52V119.84H73.2812V121.293H73.3672C73.5234 120.788 73.7917 120.4 74.1719 120.129C74.5573 119.858 75.0026 119.723 75.5078 119.723C75.6224 119.723 75.7474 119.728 75.8828 119.738C76.0234 119.749 76.1406 119.762 76.2344 119.777V121.637C76.1562 121.611 76.0234 121.587 75.8359 121.566C75.6484 121.546 75.4635 121.535 75.2812 121.535C74.9115 121.535 74.5781 121.616 74.2812 121.777C73.9896 121.934 73.7604 122.155 73.5938 122.441C73.4271 122.723 73.3438 123.053 73.3438 123.434V128.52H71.3203ZM80.8984 128.699C80.2266 128.699 79.6302 128.603 79.1094 128.41C78.5938 128.212 78.1719 127.928 77.8438 127.559C77.5156 127.184 77.3047 126.728 77.2109 126.191L79.1172 125.879C79.2266 126.306 79.4323 126.626 79.7344 126.84C80.0365 127.048 80.4349 127.152 80.9297 127.152C81.4297 127.152 81.8229 127.053 82.1094 126.855C82.401 126.652 82.5469 126.405 82.5469 126.113C82.5469 125.863 82.4505 125.658 82.2578 125.496C82.0651 125.329 81.7708 125.204 81.375 125.121L79.8984 124.801C79.0755 124.624 78.4609 124.335 78.0547 123.934C77.6484 123.527 77.4453 123.004 77.4453 122.363C77.4453 121.827 77.5911 121.361 77.8828 120.965C78.1797 120.569 78.5911 120.264 79.1172 120.051C79.6432 119.832 80.2526 119.723 80.9453 119.723C81.6068 119.723 82.1771 119.819 82.6562 120.012C83.1354 120.199 83.5208 120.467 83.8125 120.816C84.1094 121.16 84.3099 121.564 84.4141 122.027L82.6016 122.348C82.513 122.035 82.3359 121.772 82.0703 121.559C81.8099 121.345 81.4453 121.238 80.9766 121.238C80.5443 121.238 80.1849 121.332 79.8984 121.52C79.6172 121.707 79.4766 121.949 79.4766 122.246C79.4766 122.501 79.5703 122.712 79.7578 122.879C79.9505 123.04 80.263 123.168 80.6953 123.262L82.1797 123.574C83.0078 123.751 83.6224 124.035 84.0234 124.426C84.4245 124.811 84.625 125.311 84.625 125.926C84.625 126.473 84.4661 126.954 84.1484 127.371C83.8307 127.788 83.3906 128.113 82.8281 128.348C82.2708 128.582 81.6276 128.699 80.8984 128.699Z" fill="#111827"/>
<g clip-path="url(#clip2_3945_124967)">
<rect x="182" y="104.52" width="161" height="36" rx="4" fill="white"/>
<path d="M199.146 128.311C202.816 128.311 205.792 125.335 205.792 121.665C205.792 117.995 202.816 115.02 199.146 115.02C195.475 115.02 192.5 117.995 192.5 121.665C192.5 125.335 195.475 128.311 199.146 128.311Z" stroke="#111827" stroke-linecap="round" stroke-linejoin="round"/>
<path d="M203.845 126.365L207.5 130.019" stroke="#111827" stroke-linecap="round" stroke-linejoin="round"/>
<path d="M226.491 127.697C225.757 127.697 225.119 127.579 224.577 127.342C224.039 127.105 223.618 126.774 223.312 126.351C223.007 125.922 222.834 125.423 222.793 124.854H224.126C224.162 125.236 224.292 125.553 224.516 125.804C224.739 126.05 225.024 126.234 225.37 126.357C225.721 126.476 226.095 126.535 226.491 126.535C226.951 126.535 227.364 126.46 227.729 126.31C228.098 126.159 228.389 125.947 228.604 125.674C228.818 125.4 228.925 125.084 228.925 124.724C228.925 124.396 228.831 124.129 228.645 123.924C228.462 123.719 228.218 123.55 227.913 123.418C227.608 123.286 227.273 123.17 226.908 123.069L225.678 122.721C224.857 122.488 224.219 122.156 223.764 121.723C223.308 121.29 223.08 120.736 223.08 120.062C223.08 119.487 223.235 118.986 223.545 118.558C223.855 118.125 224.274 117.79 224.803 117.553C225.331 117.316 225.924 117.197 226.58 117.197C227.25 117.197 227.842 117.316 228.357 117.553C228.872 117.79 229.278 118.113 229.574 118.523C229.875 118.929 230.035 119.389 230.053 119.904H228.781C228.722 119.408 228.485 119.025 228.07 118.756C227.656 118.482 227.145 118.346 226.539 118.346C226.102 118.346 225.716 118.419 225.384 118.564C225.056 118.706 224.8 118.902 224.618 119.152C224.436 119.398 224.345 119.681 224.345 120C224.345 120.355 224.454 120.643 224.673 120.861C224.896 121.076 225.158 121.244 225.459 121.367C225.764 121.486 226.04 121.579 226.286 121.647L227.305 121.928C227.578 122.001 227.879 122.101 228.207 122.229C228.54 122.356 228.856 122.527 229.157 122.741C229.458 122.951 229.704 123.22 229.896 123.548C230.091 123.871 230.189 124.27 230.189 124.744C230.189 125.3 230.044 125.801 229.752 126.248C229.465 126.695 229.046 127.048 228.494 127.308C227.943 127.567 227.275 127.697 226.491 127.697ZM235.275 127.684C234.537 127.684 233.899 127.52 233.361 127.191C232.828 126.863 232.416 126.405 232.124 125.817C231.837 125.229 231.693 124.544 231.693 123.76C231.693 122.976 231.835 122.285 232.117 121.688C232.4 121.091 232.799 120.624 233.313 120.287C233.833 119.95 234.439 119.781 235.132 119.781C235.537 119.781 235.936 119.85 236.328 119.986C236.725 120.118 237.082 120.335 237.401 120.636C237.725 120.932 237.982 121.324 238.174 121.812C238.365 122.299 238.461 122.896 238.461 123.603V124.115H232.527V123.076H237.798L237.224 123.459C237.224 122.958 237.144 122.513 236.984 122.126C236.829 121.734 236.597 121.429 236.287 121.21C235.977 120.987 235.592 120.875 235.132 120.875C234.672 120.875 234.277 120.989 233.949 121.217C233.621 121.44 233.37 121.734 233.197 122.099C233.024 122.459 232.938 122.846 232.938 123.261V123.951C232.938 124.516 233.035 124.997 233.231 125.394C233.427 125.785 233.701 126.084 234.052 126.289C234.407 126.49 234.817 126.59 235.282 126.59C235.583 126.59 235.856 126.547 236.103 126.46C236.349 126.373 236.561 126.243 236.738 126.07C236.916 125.893 237.053 125.674 237.148 125.414L238.338 125.742C238.219 126.125 238.019 126.462 237.736 126.754C237.454 127.046 237.103 127.273 236.684 127.438C236.269 127.602 235.799 127.684 235.275 127.684ZM243.082 127.684C242.453 127.684 241.895 127.522 241.407 127.198C240.924 126.875 240.544 126.417 240.266 125.824C239.992 125.232 239.855 124.53 239.855 123.719C239.855 122.912 239.994 122.215 240.272 121.627C240.55 121.035 240.933 120.579 241.421 120.26C241.913 119.941 242.476 119.781 243.109 119.781C243.602 119.781 243.993 119.863 244.285 120.027C244.577 120.187 244.8 120.371 244.955 120.581C245.11 120.791 245.229 120.964 245.311 121.101H245.413V119.877H246.637V127.52H245.42V126.337H245.311C245.229 126.478 245.105 126.656 244.941 126.87C244.782 127.084 244.554 127.273 244.258 127.438C243.962 127.602 243.57 127.684 243.082 127.684ZM243.287 126.583C243.752 126.583 244.144 126.462 244.463 126.221C244.782 125.975 245.023 125.635 245.188 125.202C245.352 124.769 245.434 124.27 245.434 123.705C245.434 123.14 245.352 122.648 245.188 122.229C245.028 121.805 244.789 121.474 244.47 121.237C244.151 121 243.757 120.882 243.287 120.882C242.804 120.882 242.401 121.007 242.077 121.258C241.754 121.504 241.51 121.841 241.346 122.27C241.186 122.693 241.106 123.172 241.106 123.705C241.106 124.238 241.188 124.724 241.353 125.161C241.517 125.594 241.76 125.94 242.084 126.2C242.408 126.455 242.809 126.583 243.287 126.583ZM248.797 127.52V119.877H249.986V121.053H250.068C250.21 120.665 250.46 120.355 250.82 120.123C251.185 119.886 251.595 119.768 252.051 119.768C252.142 119.768 252.249 119.77 252.372 119.774C252.5 119.779 252.6 119.784 252.673 119.788V121.025C252.636 121.016 252.545 121.003 252.399 120.984C252.254 120.966 252.099 120.957 251.935 120.957C251.57 120.957 251.242 121.035 250.95 121.189C250.663 121.34 250.438 121.549 250.273 121.818C250.109 122.083 250.027 122.388 250.027 122.734V127.52H248.797ZM256.952 127.684C256.259 127.684 255.651 127.52 255.127 127.191C254.607 126.863 254.202 126.403 253.91 125.811C253.618 125.218 253.473 124.53 253.473 123.746C253.473 122.949 253.618 122.254 253.91 121.661C254.202 121.064 254.607 120.602 255.127 120.273C255.651 119.945 256.259 119.781 256.952 119.781C257.321 119.781 257.67 119.829 257.998 119.925C258.326 120.021 258.625 120.16 258.894 120.342C259.167 120.52 259.402 120.741 259.598 121.005C259.794 121.265 259.944 121.561 260.049 121.894L258.866 122.229C258.812 122.033 258.727 121.853 258.613 121.688C258.499 121.524 258.36 121.383 258.196 121.265C258.037 121.142 257.852 121.048 257.643 120.984C257.433 120.916 257.203 120.882 256.952 120.882C256.442 120.882 256.022 121.016 255.694 121.285C255.366 121.549 255.122 121.898 254.963 122.331C254.803 122.764 254.724 123.236 254.724 123.746C254.724 124.247 254.803 124.715 254.963 125.147C255.122 125.576 255.366 125.922 255.694 126.187C256.022 126.451 256.442 126.583 256.952 126.583C257.207 126.583 257.442 126.549 257.656 126.48C257.87 126.412 258.06 126.316 258.224 126.193C258.392 126.066 258.534 125.915 258.647 125.742C258.761 125.569 258.846 125.38 258.9 125.175L260.076 125.51C259.976 125.852 259.826 126.157 259.625 126.426C259.429 126.69 259.194 126.918 258.921 127.109C258.647 127.296 258.344 127.438 258.012 127.533C257.679 127.633 257.326 127.684 256.952 127.684ZM263.07 122.939V127.52H261.84V117.334H263.07V121.729H262.858C263.091 121.023 263.421 120.522 263.85 120.226C264.283 119.929 264.788 119.781 265.367 119.781C265.882 119.781 266.333 119.888 266.721 120.103C267.113 120.312 267.416 120.631 267.63 121.06C267.849 121.483 267.958 122.019 267.958 122.666V127.52H266.721V122.769C266.721 122.181 266.566 121.72 266.256 121.388C265.951 121.055 265.531 120.889 264.998 120.889C264.633 120.889 264.305 120.968 264.014 121.128C263.722 121.287 263.492 121.52 263.323 121.825C263.155 122.131 263.07 122.502 263.07 122.939Z" fill="#9CA3AF"/>
</g>
<rect x="182" y="104.52" width="161" height="36" rx="4" stroke="#E4E4E7"/>
<path d="M33 185.52C37.9706 185.52 42 181.49 42 176.52C42 171.549 37.9706 167.52 33 167.52C28.0294 167.52 24 171.549 24 176.52C24 181.49 28.0294 185.52 33 185.52Z" stroke="#111827" stroke-miterlimit="10" stroke-linecap="round" stroke-dasharray="4 4"/>
<path d="M54.1484 182.52V170.879H58.5156C59.401 170.879 60.1484 171.046 60.7578 171.379C61.3672 171.707 61.8281 172.16 62.1406 172.738C62.4583 173.316 62.6172 173.978 62.6172 174.723C62.6172 175.467 62.4583 176.129 62.1406 176.707C61.8229 177.28 61.3568 177.73 60.7422 178.059C60.1276 178.387 59.3724 178.551 58.4766 178.551H55.5469V176.832H58.2266C58.7474 176.832 59.1745 176.743 59.5078 176.566C59.8464 176.384 60.0964 176.134 60.2578 175.816C60.4193 175.493 60.5 175.129 60.5 174.723C60.5 174.306 60.4193 173.941 60.2578 173.629C60.0964 173.311 59.8464 173.066 59.5078 172.895C59.1693 172.717 58.7396 172.629 58.2188 172.629H56.2344V182.52H54.1484ZM66.3594 170.879V182.52H64.3359V170.879H66.3594ZM71.6875 182.684C71 182.684 70.3854 182.507 69.8438 182.152C69.3021 181.793 68.875 181.28 68.5625 180.613C68.25 179.947 68.0938 179.139 68.0938 178.191C68.0938 177.238 68.2526 176.428 68.5703 175.762C68.8932 175.095 69.3255 174.59 69.8672 174.246C70.4141 173.897 71.026 173.723 71.7031 173.723C72.1979 173.723 72.6094 173.806 72.9375 173.973C73.2656 174.134 73.5286 174.335 73.7266 174.574C73.9297 174.809 74.0859 175.035 74.1953 175.254H74.2812V173.84H76.2891V182.52H74.2891V181.152H74.1953C74.0859 181.376 73.9271 181.605 73.7188 181.84C73.5156 182.074 73.2474 182.275 72.9141 182.441C72.5859 182.603 72.1771 182.684 71.6875 182.684ZM72.2422 181.012C72.6849 181.012 73.0599 180.895 73.3672 180.66C73.6797 180.421 73.9167 180.09 74.0781 179.668C74.2396 179.241 74.3203 178.746 74.3203 178.184C74.3203 177.621 74.2396 177.132 74.0781 176.715C73.9167 176.293 73.6823 175.967 73.375 175.738C73.0677 175.504 72.6901 175.387 72.2422 175.387C71.7943 175.387 71.4141 175.507 71.1016 175.746C70.7943 175.986 70.5599 176.316 70.3984 176.738C70.2422 177.155 70.1641 177.637 70.1641 178.184C70.1641 178.73 70.2422 179.217 70.3984 179.645C70.5599 180.072 70.7943 180.408 71.1016 180.652C71.4141 180.892 71.7943 181.012 72.2422 181.012ZM77.7031 182.52L81.1016 177.309L81.0938 178.816L77.8828 173.84H80.1094L80.9922 175.301C81.2474 175.738 81.4766 176.163 81.6797 176.574C81.8828 176.98 82.0885 177.379 82.2969 177.77H81.4766C81.6901 177.384 81.8932 176.986 82.0859 176.574C82.2839 176.163 82.513 175.738 82.7734 175.301L83.6875 173.84H85.875L82.6172 178.855V177.363L86.0078 182.52H83.7891L82.7266 180.801C82.4661 180.374 82.2344 179.957 82.0312 179.551C81.8281 179.145 81.6224 178.754 81.4141 178.379H82.2344C82.0312 178.754 81.8333 179.145 81.6406 179.551C81.4531 179.957 81.2292 180.374 80.9688 180.801L79.9062 182.52H77.7031ZM90.8828 182.699C90.0391 182.699 89.3047 182.512 88.6797 182.137C88.0547 181.762 87.5703 181.238 87.2266 180.566C86.888 179.895 86.7188 179.113 86.7188 178.223C86.7188 177.322 86.888 176.535 87.2266 175.863C87.5703 175.186 88.0547 174.66 88.6797 174.285C89.3047 173.91 90.0391 173.723 90.8828 173.723C91.7266 173.723 92.4609 173.91 93.0859 174.285C93.7109 174.66 94.1927 175.186 94.5312 175.863C94.875 176.535 95.0469 177.322 95.0469 178.223C95.0469 179.113 94.875 179.895 94.5312 180.566C94.1927 181.238 93.7109 181.762 93.0859 182.137C92.4609 182.512 91.7266 182.699 90.8828 182.699ZM90.8828 181.051C91.3516 181.051 91.7422 180.926 92.0547 180.676C92.3672 180.421 92.6016 180.079 92.7578 179.652C92.9141 179.225 92.9922 178.746 92.9922 178.215C92.9922 177.678 92.9141 177.197 92.7578 176.77C92.6016 176.337 92.3672 175.996 92.0547 175.746C91.7422 175.496 91.3516 175.371 90.8828 175.371C90.4141 175.371 90.0234 175.496 89.7109 175.746C89.4036 175.996 89.1719 176.335 89.0156 176.762C88.8594 177.189 88.7812 177.673 88.7812 178.215C88.7812 178.746 88.8594 179.225 89.0156 179.652C89.1719 180.079 89.4036 180.421 89.7109 180.676C90.0234 180.926 90.4141 181.051 90.8828 181.051ZM98.7969 177.457V182.52H96.7734V173.84H98.7031L98.7266 175.988H98.5391C98.7839 175.238 99.1432 174.673 99.6172 174.293C100.096 173.913 100.693 173.723 101.406 173.723C102 173.723 102.521 173.85 102.969 174.105C103.417 174.361 103.763 174.733 104.008 175.223C104.258 175.712 104.383 176.309 104.383 177.012V182.52H102.359V177.324C102.359 176.736 102.208 176.277 101.906 175.949C101.604 175.616 101.188 175.449 100.656 175.449C100.297 175.449 99.9766 175.527 99.6953 175.684C99.4193 175.84 99.2005 176.066 99.0391 176.363C98.8776 176.66 98.7969 177.025 98.7969 177.457ZM106.492 182.52V173.84H108.516V182.52H106.492ZM107.5 172.605C107.177 172.605 106.898 172.496 106.664 172.277C106.435 172.059 106.32 171.796 106.32 171.488C106.32 171.176 106.435 170.913 106.664 170.699C106.898 170.486 107.177 170.379 107.5 170.379C107.828 170.379 108.107 170.486 108.336 170.699C108.57 170.913 108.688 171.176 108.688 171.488C108.688 171.796 108.57 172.059 108.336 172.277C108.107 172.496 107.828 172.605 107.5 172.605ZM114.406 182.699C113.562 182.699 112.828 182.512 112.203 182.137C111.583 181.762 111.102 181.238 110.758 180.566C110.419 179.889 110.25 179.108 110.25 178.223C110.25 177.322 110.419 176.535 110.758 175.863C111.102 175.186 111.583 174.66 112.203 174.285C112.828 173.91 113.562 173.723 114.406 173.723C114.896 173.723 115.349 173.788 115.766 173.918C116.188 174.043 116.562 174.228 116.891 174.473C117.219 174.712 117.492 175.004 117.711 175.348C117.93 175.691 118.083 176.077 118.172 176.504L116.266 176.863C116.214 176.634 116.133 176.428 116.023 176.246C115.919 176.064 115.789 175.908 115.633 175.777C115.477 175.647 115.297 175.548 115.094 175.48C114.891 175.408 114.667 175.371 114.422 175.371C113.953 175.371 113.562 175.496 113.25 175.746C112.938 175.991 112.703 176.327 112.547 176.754C112.391 177.181 112.312 177.668 112.312 178.215C112.312 178.751 112.391 179.233 112.547 179.66C112.703 180.087 112.938 180.426 113.25 180.676C113.562 180.926 113.953 181.051 114.422 181.051C114.672 181.051 114.898 181.014 115.102 180.941C115.31 180.868 115.492 180.764 115.648 180.629C115.81 180.493 115.943 180.329 116.047 180.137C116.156 179.944 116.237 179.733 116.289 179.504L118.188 179.855C118.104 180.293 117.953 180.686 117.734 181.035C117.516 181.384 117.24 181.684 116.906 181.934C116.578 182.178 116.203 182.368 115.781 182.504C115.359 182.634 114.901 182.699 114.406 182.699Z" fill="#111827"/>
<path d="M129.017 181.608C128.761 181.608 128.543 181.52 128.36 181.342C128.183 181.16 128.094 180.941 128.094 180.686C128.094 180.43 128.183 180.214 128.36 180.036C128.543 179.854 128.761 179.763 129.017 179.763C129.272 179.763 129.488 179.854 129.666 180.036C129.848 180.214 129.939 180.43 129.939 180.686C129.939 180.941 129.848 181.16 129.666 181.342C129.488 181.52 129.272 181.608 129.017 181.608ZM135.326 181.52L139.024 171.334H140.528L144.274 181.52H142.907L140.747 175.477C140.615 175.103 140.46 174.638 140.282 174.082C140.109 173.521 139.897 172.808 139.646 171.942H139.893C139.646 172.817 139.432 173.54 139.25 174.109C139.072 174.674 138.924 175.13 138.806 175.477L136.707 181.52H135.326ZM137.186 178.676V177.541H142.415V178.676H137.186ZM146.975 181.52L144.199 171.334H145.525L147.139 177.582C147.225 177.915 147.307 178.254 147.385 178.601C147.462 178.942 147.537 179.291 147.61 179.646C147.683 179.997 147.752 180.36 147.815 180.733H147.658C147.727 180.36 147.797 179.997 147.87 179.646C147.943 179.291 148.021 178.942 148.103 178.601C148.185 178.254 148.269 177.915 148.355 177.582L150.003 171.334H151.479L153.113 177.582C153.204 177.915 153.289 178.254 153.366 178.601C153.448 178.942 153.528 179.291 153.605 179.646C153.683 179.997 153.756 180.36 153.824 180.733H153.646C153.715 180.36 153.785 179.997 153.858 179.646C153.931 179.291 154.009 178.942 154.091 178.601C154.173 178.254 154.255 177.915 154.337 177.582L155.943 171.334H157.283L154.494 181.52H152.983L151.233 175.066C151.119 174.647 151.01 174.191 150.905 173.699C150.8 173.202 150.698 172.631 150.598 171.983H150.871C150.771 172.594 150.673 173.141 150.577 173.624C150.481 174.103 150.368 174.583 150.235 175.066L148.492 181.52H146.975ZM162.13 181.697C161.396 181.697 160.758 181.579 160.216 181.342C159.678 181.105 159.257 180.774 158.951 180.351C158.646 179.922 158.473 179.423 158.432 178.854H159.765C159.801 179.236 159.931 179.553 160.154 179.804C160.378 180.05 160.662 180.234 161.009 180.357C161.36 180.476 161.733 180.535 162.13 180.535C162.59 180.535 163.003 180.46 163.367 180.31C163.736 180.159 164.028 179.947 164.242 179.674C164.456 179.4 164.563 179.084 164.563 178.724C164.563 178.396 164.47 178.129 164.283 177.924C164.101 177.719 163.857 177.55 163.552 177.418C163.246 177.286 162.911 177.17 162.547 177.069L161.316 176.721C160.496 176.488 159.858 176.156 159.402 175.723C158.947 175.29 158.719 174.736 158.719 174.062C158.719 173.487 158.874 172.986 159.184 172.558C159.493 172.125 159.913 171.79 160.441 171.553C160.97 171.316 161.562 171.197 162.219 171.197C162.889 171.197 163.481 171.316 163.996 171.553C164.511 171.79 164.917 172.113 165.213 172.523C165.514 172.929 165.673 173.389 165.691 173.904H164.42C164.361 173.408 164.124 173.025 163.709 172.756C163.294 172.482 162.784 172.346 162.178 172.346C161.74 172.346 161.355 172.419 161.022 172.564C160.694 172.706 160.439 172.902 160.257 173.152C160.075 173.398 159.983 173.681 159.983 174C159.983 174.355 160.093 174.643 160.312 174.861C160.535 175.076 160.797 175.244 161.098 175.367C161.403 175.486 161.679 175.579 161.925 175.647L162.943 175.928C163.217 176.001 163.518 176.101 163.846 176.229C164.178 176.356 164.495 176.527 164.796 176.741C165.097 176.951 165.343 177.22 165.534 177.548C165.73 177.871 165.828 178.27 165.828 178.744C165.828 179.3 165.682 179.801 165.391 180.248C165.104 180.695 164.684 181.048 164.133 181.308C163.581 181.567 162.914 181.697 162.13 181.697ZM167.496 183.974L168.098 180.098H169.506L168.439 183.974H167.496ZM177.121 171.334V181.52H175.822V171.334H177.121ZM180.662 176.939V181.52H179.432V173.877H180.614L180.621 175.729H180.45C180.683 175.023 181.013 174.522 181.441 174.226C181.874 173.929 182.38 173.781 182.959 173.781C183.474 173.781 183.925 173.888 184.312 174.103C184.7 174.312 185.001 174.631 185.215 175.06C185.434 175.483 185.543 176.019 185.543 176.666V181.52H184.312V176.769C184.312 176.181 184.158 175.72 183.848 175.388C183.542 175.055 183.123 174.889 182.59 174.889C182.225 174.889 181.897 174.968 181.605 175.128C181.314 175.287 181.084 175.52 180.915 175.825C180.746 176.131 180.662 176.502 180.662 176.939ZM190.567 181.684C189.934 181.684 189.373 181.522 188.886 181.198C188.398 180.875 188.018 180.417 187.744 179.824C187.471 179.232 187.334 178.53 187.334 177.719C187.334 176.912 187.471 176.215 187.744 175.627C188.022 175.035 188.405 174.579 188.893 174.26C189.38 173.941 189.941 173.781 190.574 173.781C191.071 173.781 191.465 173.863 191.757 174.027C192.049 174.191 192.272 174.378 192.427 174.588C192.586 174.793 192.707 174.964 192.789 175.101H192.885V171.334H194.115V181.52H192.926V180.337H192.789C192.707 180.478 192.584 180.656 192.42 180.87C192.26 181.08 192.033 181.269 191.736 181.438C191.445 181.602 191.055 181.684 190.567 181.684ZM190.752 180.583C191.217 180.583 191.609 180.462 191.928 180.221C192.247 179.975 192.488 179.635 192.652 179.202C192.816 178.769 192.898 178.27 192.898 177.705C192.898 177.14 192.816 176.648 192.652 176.229C192.493 175.805 192.254 175.474 191.935 175.237C191.616 175 191.221 174.882 190.752 174.882C190.269 174.882 189.866 175.007 189.542 175.258C189.223 175.508 188.984 175.848 188.824 176.276C188.665 176.7 188.585 177.176 188.585 177.705C188.585 178.238 188.665 178.724 188.824 179.161C188.988 179.594 189.232 179.94 189.556 180.2C189.879 180.455 190.278 180.583 190.752 180.583ZM196.275 181.52V173.877H197.506V181.52H196.275ZM196.897 172.626C196.665 172.626 196.465 172.546 196.296 172.387C196.127 172.227 196.043 172.036 196.043 171.812C196.043 171.585 196.127 171.393 196.296 171.238C196.465 171.079 196.665 170.999 196.897 170.999C197.134 170.999 197.337 171.079 197.506 171.238C197.674 171.393 197.759 171.585 197.759 171.812C197.759 172.036 197.674 172.227 197.506 172.387C197.337 172.546 197.134 172.626 196.897 172.626ZM202.523 181.684C201.895 181.684 201.336 181.522 200.849 181.198C200.366 180.875 199.985 180.417 199.707 179.824C199.434 179.232 199.297 178.53 199.297 177.719C199.297 176.912 199.436 176.215 199.714 175.627C199.992 175.035 200.375 174.579 200.862 174.26C201.354 173.941 201.917 173.781 202.551 173.781C203.043 173.781 203.435 173.863 203.727 174.027C204.018 174.187 204.242 174.371 204.396 174.581C204.551 174.791 204.67 174.964 204.752 175.101H204.854V173.877H206.078V181.52H204.861V180.337H204.752C204.67 180.478 204.547 180.656 204.383 180.87C204.223 181.084 203.995 181.273 203.699 181.438C203.403 181.602 203.011 181.684 202.523 181.684ZM202.729 180.583C203.193 180.583 203.585 180.462 203.904 180.221C204.223 179.975 204.465 179.635 204.629 179.202C204.793 178.769 204.875 178.27 204.875 177.705C204.875 177.14 204.793 176.648 204.629 176.229C204.469 175.805 204.23 175.474 203.911 175.237C203.592 175 203.198 174.882 202.729 174.882C202.245 174.882 201.842 175.007 201.519 175.258C201.195 175.504 200.951 175.841 200.787 176.27C200.628 176.693 200.548 177.172 200.548 177.705C200.548 178.238 200.63 178.724 200.794 179.161C200.958 179.594 201.202 179.94 201.525 180.2C201.849 180.455 202.25 180.583 202.729 180.583Z" fill="#111827"/>
<rect x="319" y="168.52" width="16" height="16" rx="8" fill="white"/>
<rect x="319" y="168.52" width="16" height="16" rx="8" stroke="#E4E4E7"/>
<path d="M33 241.52C37.9706 241.52 42 237.49 42 232.52C42 227.549 37.9706 223.52 33 223.52C28.0294 223.52 24 227.549 24 232.52C24 237.49 28.0294 241.52 33 241.52Z" stroke="#111827" stroke-miterlimit="10" stroke-linecap="round" stroke-dasharray="4 4"/>
<path d="M54.1484 238.52V226.879H58.5156C59.401 226.879 60.1484 227.046 60.7578 227.379C61.3672 227.707 61.8281 228.16 62.1406 228.738C62.4583 229.316 62.6172 229.978 62.6172 230.723C62.6172 231.467 62.4583 232.129 62.1406 232.707C61.8229 233.28 61.3568 233.73 60.7422 234.059C60.1276 234.387 59.3724 234.551 58.4766 234.551H55.5469V232.832H58.2266C58.7474 232.832 59.1745 232.743 59.5078 232.566C59.8464 232.384 60.0964 232.134 60.2578 231.816C60.4193 231.493 60.5 231.129 60.5 230.723C60.5 230.306 60.4193 229.941 60.2578 229.629C60.0964 229.311 59.8464 229.066 59.5078 228.895C59.1693 228.717 58.7396 228.629 58.2188 228.629H56.2344V238.52H54.1484ZM66.3594 226.879V238.52H64.3359V226.879H66.3594ZM71.6875 238.684C71 238.684 70.3854 238.507 69.8438 238.152C69.3021 237.793 68.875 237.28 68.5625 236.613C68.25 235.947 68.0938 235.139 68.0938 234.191C68.0938 233.238 68.2526 232.428 68.5703 231.762C68.8932 231.095 69.3255 230.59 69.8672 230.246C70.4141 229.897 71.026 229.723 71.7031 229.723C72.1979 229.723 72.6094 229.806 72.9375 229.973C73.2656 230.134 73.5286 230.335 73.7266 230.574C73.9297 230.809 74.0859 231.035 74.1953 231.254H74.2812V229.84H76.2891V238.52H74.2891V237.152H74.1953C74.0859 237.376 73.9271 237.605 73.7188 237.84C73.5156 238.074 73.2474 238.275 72.9141 238.441C72.5859 238.603 72.1771 238.684 71.6875 238.684ZM72.2422 237.012C72.6849 237.012 73.0599 236.895 73.3672 236.66C73.6797 236.421 73.9167 236.09 74.0781 235.668C74.2396 235.241 74.3203 234.746 74.3203 234.184C74.3203 233.621 74.2396 233.132 74.0781 232.715C73.9167 232.293 73.6823 231.967 73.375 231.738C73.0677 231.504 72.6901 231.387 72.2422 231.387C71.7943 231.387 71.4141 231.507 71.1016 231.746C70.7943 231.986 70.5599 232.316 70.3984 232.738C70.2422 233.155 70.1641 233.637 70.1641 234.184C70.1641 234.73 70.2422 235.217 70.3984 235.645C70.5599 236.072 70.7943 236.408 71.1016 236.652C71.4141 236.892 71.7943 237.012 72.2422 237.012ZM77.7031 238.52L81.1016 233.309L81.0938 234.816L77.8828 229.84H80.1094L80.9922 231.301C81.2474 231.738 81.4766 232.163 81.6797 232.574C81.8828 232.98 82.0885 233.379 82.2969 233.77H81.4766C81.6901 233.384 81.8932 232.986 82.0859 232.574C82.2839 232.163 82.513 231.738 82.7734 231.301L83.6875 229.84H85.875L82.6172 234.855V233.363L86.0078 238.52H83.7891L82.7266 236.801C82.4661 236.374 82.2344 235.957 82.0312 235.551C81.8281 235.145 81.6224 234.754 81.4141 234.379H82.2344C82.0312 234.754 81.8333 235.145 81.6406 235.551C81.4531 235.957 81.2292 236.374 80.9688 236.801L79.9062 238.52H77.7031ZM90.8828 238.699C90.0391 238.699 89.3047 238.512 88.6797 238.137C88.0547 237.762 87.5703 237.238 87.2266 236.566C86.888 235.895 86.7188 235.113 86.7188 234.223C86.7188 233.322 86.888 232.535 87.2266 231.863C87.5703 231.186 88.0547 230.66 88.6797 230.285C89.3047 229.91 90.0391 229.723 90.8828 229.723C91.7266 229.723 92.4609 229.91 93.0859 230.285C93.7109 230.66 94.1927 231.186 94.5312 231.863C94.875 232.535 95.0469 233.322 95.0469 234.223C95.0469 235.113 94.875 235.895 94.5312 236.566C94.1927 237.238 93.7109 237.762 93.0859 238.137C92.4609 238.512 91.7266 238.699 90.8828 238.699ZM90.8828 237.051C91.3516 237.051 91.7422 236.926 92.0547 236.676C92.3672 236.421 92.6016 236.079 92.7578 235.652C92.9141 235.225 92.9922 234.746 92.9922 234.215C92.9922 233.678 92.9141 233.197 92.7578 232.77C92.6016 232.337 92.3672 231.996 92.0547 231.746C91.7422 231.496 91.3516 231.371 90.8828 231.371C90.4141 231.371 90.0234 231.496 89.7109 231.746C89.4036 231.996 89.1719 232.335 89.0156 232.762C88.8594 233.189 88.7812 233.673 88.7812 234.215C88.7812 234.746 88.8594 235.225 89.0156 235.652C89.1719 236.079 89.4036 236.421 89.7109 236.676C90.0234 236.926 90.4141 237.051 90.8828 237.051ZM98.7969 233.457V238.52H96.7734V229.84H98.7031L98.7266 231.988H98.5391C98.7839 231.238 99.1432 230.673 99.6172 230.293C100.096 229.913 100.693 229.723 101.406 229.723C102 229.723 102.521 229.85 102.969 230.105C103.417 230.361 103.763 230.733 104.008 231.223C104.258 231.712 104.383 232.309 104.383 233.012V238.52H102.359V233.324C102.359 232.736 102.208 232.277 101.906 231.949C101.604 231.616 101.188 231.449 100.656 231.449C100.297 231.449 99.9766 231.527 99.6953 231.684C99.4193 231.84 99.2005 232.066 99.0391 232.363C98.8776 232.66 98.7969 233.025 98.7969 233.457ZM106.492 238.52V229.84H108.516V238.52H106.492ZM107.5 228.605C107.177 228.605 106.898 228.496 106.664 228.277C106.435 228.059 106.32 227.796 106.32 227.488C106.32 227.176 106.435 226.913 106.664 226.699C106.898 226.486 107.177 226.379 107.5 226.379C107.828 226.379 108.107 226.486 108.336 226.699C108.57 226.913 108.688 227.176 108.688 227.488C108.688 227.796 108.57 228.059 108.336 228.277C108.107 228.496 107.828 228.605 107.5 228.605ZM114.406 238.699C113.562 238.699 112.828 238.512 112.203 238.137C111.583 237.762 111.102 237.238 110.758 236.566C110.419 235.889 110.25 235.108 110.25 234.223C110.25 233.322 110.419 232.535 110.758 231.863C111.102 231.186 111.583 230.66 112.203 230.285C112.828 229.91 113.562 229.723 114.406 229.723C114.896 229.723 115.349 229.788 115.766 229.918C116.188 230.043 116.562 230.228 116.891 230.473C117.219 230.712 117.492 231.004 117.711 231.348C117.93 231.691 118.083 232.077 118.172 232.504L116.266 232.863C116.214 232.634 116.133 232.428 116.023 232.246C115.919 232.064 115.789 231.908 115.633 231.777C115.477 231.647 115.297 231.548 115.094 231.48C114.891 231.408 114.667 231.371 114.422 231.371C113.953 231.371 113.562 231.496 113.25 231.746C112.938 231.991 112.703 232.327 112.547 232.754C112.391 233.181 112.312 233.668 112.312 234.215C112.312 234.751 112.391 235.233 112.547 235.66C112.703 236.087 112.938 236.426 113.25 236.676C113.562 236.926 113.953 237.051 114.422 237.051C114.672 237.051 114.898 237.014 115.102 236.941C115.31 236.868 115.492 236.764 115.648 236.629C115.81 236.493 115.943 236.329 116.047 236.137C116.156 235.944 116.237 235.733 116.289 235.504L118.188 235.855C118.104 236.293 117.953 236.686 117.734 237.035C117.516 237.384 117.24 237.684 116.906 237.934C116.578 238.178 116.203 238.368 115.781 238.504C115.359 238.634 114.901 238.699 114.406 238.699Z" fill="#111827"/>
<path d="M129.017 237.608C128.761 237.608 128.543 237.52 128.36 237.342C128.183 237.16 128.094 236.941 128.094 236.686C128.094 236.43 128.183 236.214 128.36 236.036C128.543 235.854 128.761 235.763 129.017 235.763C129.272 235.763 129.488 235.854 129.666 236.036C129.848 236.214 129.939 236.43 129.939 236.686C129.939 236.941 129.848 237.16 129.666 237.342C129.488 237.52 129.272 237.608 129.017 237.608ZM135.326 237.52L139.024 227.334H140.528L144.274 237.52H142.907L140.747 231.477C140.615 231.103 140.46 230.638 140.282 230.082C140.109 229.521 139.897 228.808 139.646 227.942H139.893C139.646 228.817 139.432 229.54 139.25 230.109C139.072 230.674 138.924 231.13 138.806 231.477L136.707 237.52H135.326ZM137.186 234.676V233.541H142.415V234.676H137.186ZM146.975 237.52L144.199 227.334H145.525L147.139 233.582C147.225 233.915 147.307 234.254 147.385 234.601C147.462 234.942 147.537 235.291 147.61 235.646C147.683 235.997 147.752 236.36 147.815 236.733H147.658C147.727 236.36 147.797 235.997 147.87 235.646C147.943 235.291 148.021 234.942 148.103 234.601C148.185 234.254 148.269 233.915 148.355 233.582L150.003 227.334H151.479L153.113 233.582C153.204 233.915 153.289 234.254 153.366 234.601C153.448 234.942 153.528 235.291 153.605 235.646C153.683 235.997 153.756 236.36 153.824 236.733H153.646C153.715 236.36 153.785 235.997 153.858 235.646C153.931 235.291 154.009 234.942 154.091 234.601C154.173 234.254 154.255 233.915 154.337 233.582L155.943 227.334H157.283L154.494 237.52H152.983L151.233 231.066C151.119 230.647 151.01 230.191 150.905 229.699C150.8 229.202 150.698 228.631 150.598 227.983H150.871C150.771 228.594 150.673 229.141 150.577 229.624C150.481 230.103 150.368 230.583 150.235 231.066L148.492 237.52H146.975ZM162.13 237.697C161.396 237.697 160.758 237.579 160.216 237.342C159.678 237.105 159.257 236.774 158.951 236.351C158.646 235.922 158.473 235.423 158.432 234.854H159.765C159.801 235.236 159.931 235.553 160.154 235.804C160.378 236.05 160.662 236.234 161.009 236.357C161.36 236.476 161.733 236.535 162.13 236.535C162.59 236.535 163.003 236.46 163.367 236.31C163.736 236.159 164.028 235.947 164.242 235.674C164.456 235.4 164.563 235.084 164.563 234.724C164.563 234.396 164.47 234.129 164.283 233.924C164.101 233.719 163.857 233.55 163.552 233.418C163.246 233.286 162.911 233.17 162.547 233.069L161.316 232.721C160.496 232.488 159.858 232.156 159.402 231.723C158.947 231.29 158.719 230.736 158.719 230.062C158.719 229.487 158.874 228.986 159.184 228.558C159.493 228.125 159.913 227.79 160.441 227.553C160.97 227.316 161.562 227.197 162.219 227.197C162.889 227.197 163.481 227.316 163.996 227.553C164.511 227.79 164.917 228.113 165.213 228.523C165.514 228.929 165.673 229.389 165.691 229.904H164.42C164.361 229.408 164.124 229.025 163.709 228.756C163.294 228.482 162.784 228.346 162.178 228.346C161.74 228.346 161.355 228.419 161.022 228.564C160.694 228.706 160.439 228.902 160.257 229.152C160.075 229.398 159.983 229.681 159.983 230C159.983 230.355 160.093 230.643 160.312 230.861C160.535 231.076 160.797 231.244 161.098 231.367C161.403 231.486 161.679 231.579 161.925 231.647L162.943 231.928C163.217 232.001 163.518 232.101 163.846 232.229C164.178 232.356 164.495 232.527 164.796 232.741C165.097 232.951 165.343 233.22 165.534 233.548C165.73 233.871 165.828 234.27 165.828 234.744C165.828 235.3 165.682 235.801 165.391 236.248C165.104 236.695 164.684 237.048 164.133 237.308C163.581 237.567 162.914 237.697 162.13 237.697ZM167.496 239.974L168.098 236.098H169.506L168.439 239.974H167.496ZM177.121 227.334V237.52H175.822V227.334H177.121ZM180.662 232.939V237.52H179.432V229.877H180.614L180.621 231.729H180.45C180.683 231.023 181.013 230.522 181.441 230.226C181.874 229.929 182.38 229.781 182.959 229.781C183.474 229.781 183.925 229.888 184.312 230.103C184.7 230.312 185.001 230.631 185.215 231.06C185.434 231.483 185.543 232.019 185.543 232.666V237.52H184.312V232.769C184.312 232.181 184.158 231.72 183.848 231.388C183.542 231.055 183.123 230.889 182.59 230.889C182.225 230.889 181.897 230.968 181.605 231.128C181.314 231.287 181.084 231.52 180.915 231.825C180.746 232.131 180.662 232.502 180.662 232.939ZM190.567 237.684C189.934 237.684 189.373 237.522 188.886 237.198C188.398 236.875 188.018 236.417 187.744 235.824C187.471 235.232 187.334 234.53 187.334 233.719C187.334 232.912 187.471 232.215 187.744 231.627C188.022 231.035 188.405 230.579 188.893 230.26C189.38 229.941 189.941 229.781 190.574 229.781C191.071 229.781 191.465 229.863 191.757 230.027C192.049 230.191 192.272 230.378 192.427 230.588C192.586 230.793 192.707 230.964 192.789 231.101H192.885V227.334H194.115V237.52H192.926V236.337H192.789C192.707 236.478 192.584 236.656 192.42 236.87C192.26 237.08 192.033 237.269 191.736 237.438C191.445 237.602 191.055 237.684 190.567 237.684ZM190.752 236.583C191.217 236.583 191.609 236.462 191.928 236.221C192.247 235.975 192.488 235.635 192.652 235.202C192.816 234.769 192.898 234.27 192.898 233.705C192.898 233.14 192.816 232.648 192.652 232.229C192.493 231.805 192.254 231.474 191.935 231.237C191.616 231 191.221 230.882 190.752 230.882C190.269 230.882 189.866 231.007 189.542 231.258C189.223 231.508 188.984 231.848 188.824 232.276C188.665 232.7 188.585 233.176 188.585 233.705C188.585 234.238 188.665 234.724 188.824 235.161C188.988 235.594 189.232 235.94 189.556 236.2C189.879 236.455 190.278 236.583 190.752 236.583ZM196.275 237.52V229.877H197.506V237.52H196.275ZM196.897 228.626C196.665 228.626 196.465 228.546 196.296 228.387C196.127 228.227 196.043 228.036 196.043 227.812C196.043 227.585 196.127 227.393 196.296 227.238C196.465 227.079 196.665 226.999 196.897 226.999C197.134 226.999 197.337 227.079 197.506 227.238C197.674 227.393 197.759 227.585 197.759 227.812C197.759 228.036 197.674 228.227 197.506 228.387C197.337 228.546 197.134 228.626 196.897 228.626ZM202.523 237.684C201.895 237.684 201.336 237.522 200.849 237.198C200.366 236.875 199.985 236.417 199.707 235.824C199.434 235.232 199.297 234.53 199.297 233.719C199.297 232.912 199.436 232.215 199.714 231.627C199.992 231.035 200.375 230.579 200.862 230.26C201.354 229.941 201.917 229.781 202.551 229.781C203.043 229.781 203.435 229.863 203.727 230.027C204.018 230.187 204.242 230.371 204.396 230.581C204.551 230.791 204.67 230.964 204.752 231.101H204.854V229.877H206.078V237.52H204.861V236.337H204.752C204.67 236.478 204.547 236.656 204.383 236.87C204.223 237.084 203.995 237.273 203.699 237.438C203.403 237.602 203.011 237.684 202.523 237.684ZM202.729 236.583C203.193 236.583 203.585 236.462 203.904 236.221C204.223 235.975 204.465 235.635 204.629 235.202C204.793 234.769 204.875 234.27 204.875 233.705C204.875 233.14 204.793 232.648 204.629 232.229C204.469 231.805 204.23 231.474 203.911 231.237C203.592 231 203.198 230.882 202.729 230.882C202.245 230.882 201.842 231.007 201.519 231.258C201.195 231.504 200.951 231.841 200.787 232.27C200.628 232.693 200.548 233.172 200.548 233.705C200.548 234.238 200.63 234.724 200.794 235.161C200.958 235.594 201.202 235.94 201.525 236.2C201.849 236.455 202.25 236.583 202.729 236.583Z" fill="#111827"/>
<rect x="319" y="224.52" width="16" height="16" rx="8" fill="white"/>
<rect x="319" y="224.52" width="16" height="16" rx="8" stroke="#E4E4E7"/>
<path d="M33 297.52C37.9706 297.52 42 293.49 42 288.52C42 283.549 37.9706 279.52 33 279.52C28.0294 279.52 24 283.549 24 288.52C24 293.49 28.0294 297.52 33 297.52Z" stroke="#111827" stroke-miterlimit="10" stroke-linecap="round" stroke-dasharray="4 4"/>
<path d="M54.1484 294.52V282.879H58.5156C59.401 282.879 60.1484 283.046 60.7578 283.379C61.3672 283.707 61.8281 284.16 62.1406 284.738C62.4583 285.316 62.6172 285.978 62.6172 286.723C62.6172 287.467 62.4583 288.129 62.1406 288.707C61.8229 289.28 61.3568 289.73 60.7422 290.059C60.1276 290.387 59.3724 290.551 58.4766 290.551H55.5469V288.832H58.2266C58.7474 288.832 59.1745 288.743 59.5078 288.566C59.8464 288.384 60.0964 288.134 60.2578 287.816C60.4193 287.493 60.5 287.129 60.5 286.723C60.5 286.306 60.4193 285.941 60.2578 285.629C60.0964 285.311 59.8464 285.066 59.5078 284.895C59.1693 284.717 58.7396 284.629 58.2188 284.629H56.2344V294.52H54.1484ZM66.3594 282.879V294.52H64.3359V282.879H66.3594ZM71.6875 294.684C71 294.684 70.3854 294.507 69.8438 294.152C69.3021 293.793 68.875 293.28 68.5625 292.613C68.25 291.947 68.0938 291.139 68.0938 290.191C68.0938 289.238 68.2526 288.428 68.5703 287.762C68.8932 287.095 69.3255 286.59 69.8672 286.246C70.4141 285.897 71.026 285.723 71.7031 285.723C72.1979 285.723 72.6094 285.806 72.9375 285.973C73.2656 286.134 73.5286 286.335 73.7266 286.574C73.9297 286.809 74.0859 287.035 74.1953 287.254H74.2812V285.84H76.2891V294.52H74.2891V293.152H74.1953C74.0859 293.376 73.9271 293.605 73.7188 293.84C73.5156 294.074 73.2474 294.275 72.9141 294.441C72.5859 294.603 72.1771 294.684 71.6875 294.684ZM72.2422 293.012C72.6849 293.012 73.0599 292.895 73.3672 292.66C73.6797 292.421 73.9167 292.09 74.0781 291.668C74.2396 291.241 74.3203 290.746 74.3203 290.184C74.3203 289.621 74.2396 289.132 74.0781 288.715C73.9167 288.293 73.6823 287.967 73.375 287.738C73.0677 287.504 72.6901 287.387 72.2422 287.387C71.7943 287.387 71.4141 287.507 71.1016 287.746C70.7943 287.986 70.5599 288.316 70.3984 288.738C70.2422 289.155 70.1641 289.637 70.1641 290.184C70.1641 290.73 70.2422 291.217 70.3984 291.645C70.5599 292.072 70.7943 292.408 71.1016 292.652C71.4141 292.892 71.7943 293.012 72.2422 293.012ZM77.7031 294.52L81.1016 289.309L81.0938 290.816L77.8828 285.84H80.1094L80.9922 287.301C81.2474 287.738 81.4766 288.163 81.6797 288.574C81.8828 288.98 82.0885 289.379 82.2969 289.77H81.4766C81.6901 289.384 81.8932 288.986 82.0859 288.574C82.2839 288.163 82.513 287.738 82.7734 287.301L83.6875 285.84H85.875L82.6172 290.855V289.363L86.0078 294.52H83.7891L82.7266 292.801C82.4661 292.374 82.2344 291.957 82.0312 291.551C81.8281 291.145 81.6224 290.754 81.4141 290.379H82.2344C82.0312 290.754 81.8333 291.145 81.6406 291.551C81.4531 291.957 81.2292 292.374 80.9688 292.801L79.9062 294.52H77.7031ZM90.8828 294.699C90.0391 294.699 89.3047 294.512 88.6797 294.137C88.0547 293.762 87.5703 293.238 87.2266 292.566C86.888 291.895 86.7188 291.113 86.7188 290.223C86.7188 289.322 86.888 288.535 87.2266 287.863C87.5703 287.186 88.0547 286.66 88.6797 286.285C89.3047 285.91 90.0391 285.723 90.8828 285.723C91.7266 285.723 92.4609 285.91 93.0859 286.285C93.7109 286.66 94.1927 287.186 94.5312 287.863C94.875 288.535 95.0469 289.322 95.0469 290.223C95.0469 291.113 94.875 291.895 94.5312 292.566C94.1927 293.238 93.7109 293.762 93.0859 294.137C92.4609 294.512 91.7266 294.699 90.8828 294.699ZM90.8828 293.051C91.3516 293.051 91.7422 292.926 92.0547 292.676C92.3672 292.421 92.6016 292.079 92.7578 291.652C92.9141 291.225 92.9922 290.746 92.9922 290.215C92.9922 289.678 92.9141 289.197 92.7578 288.77C92.6016 288.337 92.3672 287.996 92.0547 287.746C91.7422 287.496 91.3516 287.371 90.8828 287.371C90.4141 287.371 90.0234 287.496 89.7109 287.746C89.4036 287.996 89.1719 288.335 89.0156 288.762C88.8594 289.189 88.7812 289.673 88.7812 290.215C88.7812 290.746 88.8594 291.225 89.0156 291.652C89.1719 292.079 89.4036 292.421 89.7109 292.676C90.0234 292.926 90.4141 293.051 90.8828 293.051ZM98.7969 289.457V294.52H96.7734V285.84H98.7031L98.7266 287.988H98.5391C98.7839 287.238 99.1432 286.673 99.6172 286.293C100.096 285.913 100.693 285.723 101.406 285.723C102 285.723 102.521 285.85 102.969 286.105C103.417 286.361 103.763 286.733 104.008 287.223C104.258 287.712 104.383 288.309 104.383 289.012V294.52H102.359V289.324C102.359 288.736 102.208 288.277 101.906 287.949C101.604 287.616 101.188 287.449 100.656 287.449C100.297 287.449 99.9766 287.527 99.6953 287.684C99.4193 287.84 99.2005 288.066 99.0391 288.363C98.8776 288.66 98.7969 289.025 98.7969 289.457ZM106.492 294.52V285.84H108.516V294.52H106.492ZM107.5 284.605C107.177 284.605 106.898 284.496 106.664 284.277C106.435 284.059 106.32 283.796 106.32 283.488C106.32 283.176 106.435 282.913 106.664 282.699C106.898 282.486 107.177 282.379 107.5 282.379C107.828 282.379 108.107 282.486 108.336 282.699C108.57 282.913 108.688 283.176 108.688 283.488C108.688 283.796 108.57 284.059 108.336 284.277C108.107 284.496 107.828 284.605 107.5 284.605ZM114.406 294.699C113.562 294.699 112.828 294.512 112.203 294.137C111.583 293.762 111.102 293.238 110.758 292.566C110.419 291.889 110.25 291.108 110.25 290.223C110.25 289.322 110.419 288.535 110.758 287.863C111.102 287.186 111.583 286.66 112.203 286.285C112.828 285.91 113.562 285.723 114.406 285.723C114.896 285.723 115.349 285.788 115.766 285.918C116.188 286.043 116.562 286.228 116.891 286.473C117.219 286.712 117.492 287.004 117.711 287.348C117.93 287.691 118.083 288.077 118.172 288.504L116.266 288.863C116.214 288.634 116.133 288.428 116.023 288.246C115.919 288.064 115.789 287.908 115.633 287.777C115.477 287.647 115.297 287.548 115.094 287.48C114.891 287.408 114.667 287.371 114.422 287.371C113.953 287.371 113.562 287.496 113.25 287.746C112.938 287.991 112.703 288.327 112.547 288.754C112.391 289.181 112.312 289.668 112.312 290.215C112.312 290.751 112.391 291.233 112.547 291.66C112.703 292.087 112.938 292.426 113.25 292.676C113.562 292.926 113.953 293.051 114.422 293.051C114.672 293.051 114.898 293.014 115.102 292.941C115.31 292.868 115.492 292.764 115.648 292.629C115.81 292.493 115.943 292.329 116.047 292.137C116.156 291.944 116.237 291.733 116.289 291.504L118.188 291.855C118.104 292.293 117.953 292.686 117.734 293.035C117.516 293.384 117.24 293.684 116.906 293.934C116.578 294.178 116.203 294.368 115.781 294.504C115.359 294.634 114.901 294.699 114.406 294.699Z" fill="#111827"/>
<path d="M129.017 293.608C128.761 293.608 128.543 293.52 128.36 293.342C128.183 293.16 128.094 292.941 128.094 292.686C128.094 292.43 128.183 292.214 128.36 292.036C128.543 291.854 128.761 291.763 129.017 291.763C129.272 291.763 129.488 291.854 129.666 292.036C129.848 292.214 129.939 292.43 129.939 292.686C129.939 292.941 129.848 293.16 129.666 293.342C129.488 293.52 129.272 293.608 129.017 293.608ZM135.326 293.52L139.024 283.334H140.528L144.274 293.52H142.907L140.747 287.477C140.615 287.103 140.46 286.638 140.282 286.082C140.109 285.521 139.897 284.808 139.646 283.942H139.893C139.646 284.817 139.432 285.54 139.25 286.109C139.072 286.674 138.924 287.13 138.806 287.477L136.707 293.52H135.326ZM137.186 290.676V289.541H142.415V290.676H137.186ZM146.975 293.52L144.199 283.334H145.525L147.139 289.582C147.225 289.915 147.307 290.254 147.385 290.601C147.462 290.942 147.537 291.291 147.61 291.646C147.683 291.997 147.752 292.36 147.815 292.733H147.658C147.727 292.36 147.797 291.997 147.87 291.646C147.943 291.291 148.021 290.942 148.103 290.601C148.185 290.254 148.269 289.915 148.355 289.582L150.003 283.334H151.479L153.113 289.582C153.204 289.915 153.289 290.254 153.366 290.601C153.448 290.942 153.528 291.291 153.605 291.646C153.683 291.997 153.756 292.36 153.824 292.733H153.646C153.715 292.36 153.785 291.997 153.858 291.646C153.931 291.291 154.009 290.942 154.091 290.601C154.173 290.254 154.255 289.915 154.337 289.582L155.943 283.334H157.283L154.494 293.52H152.983L151.233 287.066C151.119 286.647 151.01 286.191 150.905 285.699C150.8 285.202 150.698 284.631 150.598 283.983H150.871C150.771 284.594 150.673 285.141 150.577 285.624C150.481 286.103 150.368 286.583 150.235 287.066L148.492 293.52H146.975ZM162.13 293.697C161.396 293.697 160.758 293.579 160.216 293.342C159.678 293.105 159.257 292.774 158.951 292.351C158.646 291.922 158.473 291.423 158.432 290.854H159.765C159.801 291.236 159.931 291.553 160.154 291.804C160.378 292.05 160.662 292.234 161.009 292.357C161.36 292.476 161.733 292.535 162.13 292.535C162.59 292.535 163.003 292.46 163.367 292.31C163.736 292.159 164.028 291.947 164.242 291.674C164.456 291.4 164.563 291.084 164.563 290.724C164.563 290.396 164.47 290.129 164.283 289.924C164.101 289.719 163.857 289.55 163.552 289.418C163.246 289.286 162.911 289.17 162.547 289.069L161.316 288.721C160.496 288.488 159.858 288.156 159.402 287.723C158.947 287.29 158.719 286.736 158.719 286.062C158.719 285.487 158.874 284.986 159.184 284.558C159.493 284.125 159.913 283.79 160.441 283.553C160.97 283.316 161.562 283.197 162.219 283.197C162.889 283.197 163.481 283.316 163.996 283.553C164.511 283.79 164.917 284.113 165.213 284.523C165.514 284.929 165.673 285.389 165.691 285.904H164.42C164.361 285.408 164.124 285.025 163.709 284.756C163.294 284.482 162.784 284.346 162.178 284.346C161.74 284.346 161.355 284.419 161.022 284.564C160.694 284.706 160.439 284.902 160.257 285.152C160.075 285.398 159.983 285.681 159.983 286C159.983 286.355 160.093 286.643 160.312 286.861C160.535 287.076 160.797 287.244 161.098 287.367C161.403 287.486 161.679 287.579 161.925 287.647L162.943 287.928C163.217 288.001 163.518 288.101 163.846 288.229C164.178 288.356 164.495 288.527 164.796 288.741C165.097 288.951 165.343 289.22 165.534 289.548C165.73 289.871 165.828 290.27 165.828 290.744C165.828 291.3 165.682 291.801 165.391 292.248C165.104 292.695 164.684 293.048 164.133 293.308C163.581 293.567 162.914 293.697 162.13 293.697ZM167.496 295.974L168.098 292.098H169.506L168.439 295.974H167.496ZM177.121 283.334V293.52H175.822V283.334H177.121ZM180.662 288.939V293.52H179.432V285.877H180.614L180.621 287.729H180.45C180.683 287.023 181.013 286.522 181.441 286.226C181.874 285.929 182.38 285.781 182.959 285.781C183.474 285.781 183.925 285.888 184.312 286.103C184.7 286.312 185.001 286.631 185.215 287.06C185.434 287.483 185.543 288.019 185.543 288.666V293.52H184.312V288.769C184.312 288.181 184.158 287.72 183.848 287.388C183.542 287.055 183.123 286.889 182.59 286.889C182.225 286.889 181.897 286.968 181.605 287.128C181.314 287.287 181.084 287.52 180.915 287.825C180.746 288.131 180.662 288.502 180.662 288.939ZM190.567 293.684C189.934 293.684 189.373 293.522 188.886 293.198C188.398 292.875 188.018 292.417 187.744 291.824C187.471 291.232 187.334 290.53 187.334 289.719C187.334 288.912 187.471 288.215 187.744 287.627C188.022 287.035 188.405 286.579 188.893 286.26C189.38 285.941 189.941 285.781 190.574 285.781C191.071 285.781 191.465 285.863 191.757 286.027C192.049 286.191 192.272 286.378 192.427 286.588C192.586 286.793 192.707 286.964 192.789 287.101H192.885V283.334H194.115V293.52H192.926V292.337H192.789C192.707 292.478 192.584 292.656 192.42 292.87C192.26 293.08 192.033 293.269 191.736 293.438C191.445 293.602 191.055 293.684 190.567 293.684ZM190.752 292.583C191.217 292.583 191.609 292.462 191.928 292.221C192.247 291.975 192.488 291.635 192.652 291.202C192.816 290.769 192.898 290.27 192.898 289.705C192.898 289.14 192.816 288.648 192.652 288.229C192.493 287.805 192.254 287.474 191.935 287.237C191.616 287 191.221 286.882 190.752 286.882C190.269 286.882 189.866 287.007 189.542 287.258C189.223 287.508 188.984 287.848 188.824 288.276C188.665 288.7 188.585 289.176 188.585 289.705C188.585 290.238 188.665 290.724 188.824 291.161C188.988 291.594 189.232 291.94 189.556 292.2C189.879 292.455 190.278 292.583 190.752 292.583ZM196.275 293.52V285.877H197.506V293.52H196.275ZM196.897 284.626C196.665 284.626 196.465 284.546 196.296 284.387C196.127 284.227 196.043 284.036 196.043 283.812C196.043 283.585 196.127 283.393 196.296 283.238C196.465 283.079 196.665 282.999 196.897 282.999C197.134 282.999 197.337 283.079 197.506 283.238C197.674 283.393 197.759 283.585 197.759 283.812C197.759 284.036 197.674 284.227 197.506 284.387C197.337 284.546 197.134 284.626 196.897 284.626ZM202.523 293.684C201.895 293.684 201.336 293.522 200.849 293.198C200.366 292.875 199.985 292.417 199.707 291.824C199.434 291.232 199.297 290.53 199.297 289.719C199.297 288.912 199.436 288.215 199.714 287.627C199.992 287.035 200.375 286.579 200.862 286.26C201.354 285.941 201.917 285.781 202.551 285.781C203.043 285.781 203.435 285.863 203.727 286.027C204.018 286.187 204.242 286.371 204.396 286.581C204.551 286.791 204.67 286.964 204.752 287.101H204.854V285.877H206.078V293.52H204.861V292.337H204.752C204.67 292.478 204.547 292.656 204.383 292.87C204.223 293.084 203.995 293.273 203.699 293.438C203.403 293.602 203.011 293.684 202.523 293.684ZM202.729 292.583C203.193 292.583 203.585 292.462 203.904 292.221C204.223 291.975 204.465 291.635 204.629 291.202C204.793 290.769 204.875 290.27 204.875 289.705C204.875 289.14 204.793 288.648 204.629 288.229C204.469 287.805 204.23 287.474 203.911 287.237C203.592 287 203.198 286.882 202.729 286.882C202.245 286.882 201.842 287.007 201.519 287.258C201.195 287.504 200.951 287.841 200.787 288.27C200.628 288.693 200.548 289.172 200.548 289.705C200.548 290.238 200.63 290.724 200.794 291.161C200.958 291.594 201.202 291.94 201.525 292.2C201.849 292.455 202.25 292.583 202.729 292.583Z" fill="#111827"/>
<rect x="319" y="280.52" width="16" height="16" rx="8" fill="white"/>
<rect x="319" y="280.52" width="16" height="16" rx="8" stroke="#E4E4E7"/>
<g filter="url(#filter1_d_3945_124967)">
<path d="M29.4912 341.697C28.7575 341.697 28.1195 341.579 27.5771 341.342C27.0394 341.105 26.6178 340.774 26.3125 340.351C26.0072 339.922 25.834 339.423 25.793 338.854H27.126C27.1624 339.236 27.2923 339.553 27.5156 339.804C27.7389 340.05 28.0238 340.234 28.3701 340.357C28.721 340.476 29.0947 340.535 29.4912 340.535C29.9515 340.535 30.3639 340.46 30.7285 340.31C31.0977 340.159 31.3893 339.947 31.6035 339.674C31.8177 339.4 31.9248 339.084 31.9248 338.724C31.9248 338.396 31.8314 338.129 31.6445 337.924C31.4622 337.719 31.2184 337.55 30.9131 337.418C30.6077 337.286 30.2728 337.17 29.9082 337.069L28.6777 336.721C27.8574 336.488 27.2194 336.156 26.7637 335.723C26.3079 335.29 26.0801 334.736 26.0801 334.062C26.0801 333.487 26.235 332.986 26.5449 332.558C26.8548 332.125 27.2741 331.79 27.8027 331.553C28.3314 331.316 28.9238 331.197 29.5801 331.197C30.25 331.197 30.8424 331.316 31.3574 331.553C31.8724 331.79 32.278 332.113 32.5742 332.523C32.875 332.929 33.0345 333.389 33.0527 333.904H31.7812C31.722 333.408 31.485 333.025 31.0703 332.756C30.6556 332.482 30.1452 332.346 29.5391 332.346C29.1016 332.346 28.7165 332.419 28.3838 332.564C28.0557 332.706 27.8005 332.902 27.6182 333.152C27.4359 333.398 27.3447 333.681 27.3447 334C27.3447 334.355 27.4541 334.643 27.6729 334.861C27.8962 335.076 28.1582 335.244 28.459 335.367C28.7643 335.486 29.04 335.579 29.2861 335.647L30.3047 335.928C30.5781 336.001 30.8789 336.101 31.207 336.229C31.5397 336.356 31.8564 336.527 32.1572 336.741C32.458 336.951 32.7041 337.22 32.8955 337.548C33.0915 337.871 33.1895 338.27 33.1895 338.744C33.1895 339.3 33.0436 339.801 32.752 340.248C32.4648 340.695 32.0456 341.048 31.4941 341.308C30.9427 341.567 30.2751 341.697 29.4912 341.697ZM38.2754 341.684C37.5371 341.684 36.8991 341.52 36.3613 341.191C35.8281 340.863 35.4157 340.405 35.124 339.817C34.8369 339.229 34.6934 338.544 34.6934 337.76C34.6934 336.976 34.8346 336.285 35.1172 335.688C35.3997 335.091 35.7985 334.624 36.3135 334.287C36.833 333.95 37.4391 333.781 38.1318 333.781C38.5374 333.781 38.9362 333.85 39.3281 333.986C39.7246 334.118 40.0824 334.335 40.4014 334.636C40.7249 334.932 40.9824 335.324 41.1738 335.812C41.3652 336.299 41.4609 336.896 41.4609 337.603V338.115H35.5273V337.076H40.7979L40.2236 337.459C40.2236 336.958 40.1439 336.513 39.9844 336.126C39.8294 335.734 39.597 335.429 39.2871 335.21C38.9772 334.987 38.5921 334.875 38.1318 334.875C37.6715 334.875 37.2773 334.989 36.9492 335.217C36.6211 335.44 36.3704 335.734 36.1973 336.099C36.0241 336.459 35.9375 336.846 35.9375 337.261V337.951C35.9375 338.516 36.0355 338.997 36.2314 339.394C36.4274 339.785 36.7008 340.084 37.0518 340.289C37.4072 340.49 37.8174 340.59 38.2822 340.59C38.583 340.59 38.8564 340.547 39.1025 340.46C39.3486 340.373 39.5605 340.243 39.7383 340.07C39.916 339.893 40.0527 339.674 40.1484 339.414L41.3379 339.742C41.2194 340.125 41.0189 340.462 40.7363 340.754C40.4538 341.046 40.1029 341.273 39.6836 341.438C39.2689 341.602 38.7995 341.684 38.2754 341.684ZM46.082 341.684C45.4531 341.684 44.8949 341.522 44.4072 341.198C43.9242 340.875 43.5436 340.417 43.2656 339.824C42.9922 339.232 42.8555 338.53 42.8555 337.719C42.8555 336.912 42.9945 336.215 43.2725 335.627C43.5505 335.035 43.9333 334.579 44.4209 334.26C44.9131 333.941 45.4759 333.781 46.1094 333.781C46.6016 333.781 46.9935 333.863 47.2852 334.027C47.5768 334.187 47.8001 334.371 47.9551 334.581C48.11 334.791 48.2285 334.964 48.3105 335.101H48.4131V333.877H49.6367V341.52H48.4199V340.337H48.3105C48.2285 340.478 48.1055 340.656 47.9414 340.87C47.7819 341.084 47.554 341.273 47.2578 341.438C46.9616 341.602 46.5697 341.684 46.082 341.684ZM46.2871 340.583C46.752 340.583 47.1439 340.462 47.4629 340.221C47.7819 339.975 48.0234 339.635 48.1875 339.202C48.3516 338.769 48.4336 338.27 48.4336 337.705C48.4336 337.14 48.3516 336.648 48.1875 336.229C48.028 335.805 47.7887 335.474 47.4697 335.237C47.1507 335 46.7565 334.882 46.2871 334.882C45.804 334.882 45.4007 335.007 45.0771 335.258C44.7536 335.504 44.5098 335.841 44.3457 336.27C44.1862 336.693 44.1064 337.172 44.1064 337.705C44.1064 338.238 44.1885 338.724 44.3525 339.161C44.5166 339.594 44.7604 339.94 45.084 340.2C45.4076 340.455 45.8086 340.583 46.2871 340.583ZM51.7969 341.52V333.877H52.9863V335.053H53.0684C53.2096 334.665 53.4603 334.355 53.8203 334.123C54.1849 333.886 54.5951 333.768 55.0508 333.768C55.1419 333.768 55.249 333.77 55.3721 333.774C55.4997 333.779 55.5999 333.784 55.6729 333.788V335.025C55.6364 335.016 55.5452 335.003 55.3994 334.984C55.2536 334.966 55.0986 334.957 54.9346 334.957C54.57 334.957 54.2419 335.035 53.9502 335.189C53.6631 335.34 53.4375 335.549 53.2734 335.818C53.1094 336.083 53.0273 336.388 53.0273 336.734V341.52H51.7969ZM59.9521 341.684C59.2594 341.684 58.651 341.52 58.127 341.191C57.6074 340.863 57.2018 340.403 56.9102 339.811C56.6185 339.218 56.4727 338.53 56.4727 337.746C56.4727 336.949 56.6185 336.254 56.9102 335.661C57.2018 335.064 57.6074 334.602 58.127 334.273C58.651 333.945 59.2594 333.781 59.9521 333.781C60.3213 333.781 60.6699 333.829 60.998 333.925C61.3262 334.021 61.6247 334.16 61.8936 334.342C62.167 334.52 62.4017 334.741 62.5977 335.005C62.7936 335.265 62.944 335.561 63.0488 335.894L61.8662 336.229C61.8115 336.033 61.7272 335.853 61.6133 335.688C61.4993 335.524 61.3604 335.383 61.1963 335.265C61.0368 335.142 60.8522 335.048 60.6426 334.984C60.4329 334.916 60.2028 334.882 59.9521 334.882C59.4417 334.882 59.0225 335.016 58.6943 335.285C58.3662 335.549 58.1224 335.898 57.9629 336.331C57.8034 336.764 57.7236 337.236 57.7236 337.746C57.7236 338.247 57.8034 338.715 57.9629 339.147C58.1224 339.576 58.3662 339.922 58.6943 340.187C59.0225 340.451 59.4417 340.583 59.9521 340.583C60.2074 340.583 60.4421 340.549 60.6562 340.48C60.8704 340.412 61.0596 340.316 61.2236 340.193C61.3923 340.066 61.5335 339.915 61.6475 339.742C61.7614 339.569 61.8457 339.38 61.9004 339.175L63.0762 339.51C62.9759 339.852 62.8255 340.157 62.625 340.426C62.429 340.69 62.1943 340.918 61.9209 341.109C61.6475 341.296 61.3444 341.438 61.0117 341.533C60.679 341.633 60.3258 341.684 59.9521 341.684ZM66.0703 336.939V341.52H64.8398V331.334H66.0703V335.729H65.8584C66.0908 335.023 66.4212 334.522 66.8496 334.226C67.2826 333.929 67.7884 333.781 68.3672 333.781C68.8822 333.781 69.3333 333.888 69.7207 334.103C70.1126 334.312 70.4157 334.631 70.6299 335.06C70.8486 335.483 70.958 336.019 70.958 336.666V341.52H69.7207V336.769C69.7207 336.181 69.5658 335.72 69.2559 335.388C68.9505 335.055 68.5312 334.889 67.998 334.889C67.6335 334.889 67.3053 334.968 67.0137 335.128C66.722 335.287 66.4919 335.52 66.3232 335.825C66.1546 336.131 66.0703 336.502 66.0703 336.939ZM80.6172 333.877V334.93H76.1191V333.877H80.6172ZM77.623 341.52V332.858C77.623 332.416 77.7256 332.047 77.9307 331.751C78.1403 331.455 78.4115 331.231 78.7441 331.081C79.0768 330.931 79.4277 330.855 79.7969 330.855C80.0885 330.855 80.3301 330.881 80.5215 330.931C80.7129 330.976 80.8542 331.02 80.9453 331.061L80.6035 332.113C80.5397 332.09 80.4554 332.065 80.3506 332.038C80.2503 332.011 80.1136 331.997 79.9404 331.997C79.5622 331.997 79.2865 332.095 79.1133 332.291C78.9401 332.482 78.8535 332.763 78.8535 333.132V341.52H77.623ZM84.9443 341.684C84.2516 341.684 83.6432 341.52 83.1191 341.191C82.5996 340.863 82.194 340.403 81.9023 339.811C81.6107 339.218 81.4648 338.53 81.4648 337.746C81.4648 336.949 81.6107 336.254 81.9023 335.661C82.194 335.064 82.5996 334.602 83.1191 334.273C83.6432 333.945 84.2516 333.781 84.9443 333.781C85.6416 333.781 86.2523 333.945 86.7764 334.273C87.3005 334.602 87.7083 335.064 88 335.661C88.2917 336.254 88.4375 336.949 88.4375 337.746C88.4375 338.53 88.2917 339.218 88 339.811C87.7083 340.403 87.3005 340.863 86.7764 341.191C86.2523 341.52 85.6416 341.684 84.9443 341.684ZM84.9443 340.583C85.4593 340.583 85.8831 340.451 86.2158 340.187C86.5485 339.922 86.7946 339.576 86.9541 339.147C87.1136 338.715 87.1934 338.247 87.1934 337.746C87.1934 337.24 87.1136 336.771 86.9541 336.338C86.7946 335.9 86.5485 335.549 86.2158 335.285C85.8831 335.016 85.4593 334.882 84.9443 334.882C84.4339 334.882 84.0146 335.016 83.6865 335.285C83.3584 335.549 83.1146 335.898 82.9551 336.331C82.7956 336.764 82.7158 337.236 82.7158 337.746C82.7158 338.247 82.7956 338.715 82.9551 339.147C83.1146 339.576 83.3584 339.922 83.6865 340.187C84.0146 340.451 84.4339 340.583 84.9443 340.583ZM90.2285 341.52V333.877H91.418V335.053H91.5C91.6413 334.665 91.8919 334.355 92.252 334.123C92.6165 333.886 93.0267 333.768 93.4824 333.768C93.5736 333.768 93.6807 333.77 93.8037 333.774C93.9313 333.779 94.0316 333.784 94.1045 333.788V335.025C94.068 335.016 93.9769 335.003 93.8311 334.984C93.6852 334.966 93.5303 334.957 93.3662 334.957C93.0016 334.957 92.6735 335.035 92.3818 335.189C92.0947 335.34 91.8691 335.549 91.7051 335.818C91.541 336.083 91.459 336.388 91.459 336.734V341.52H90.2285ZM99.4434 341.52V333.877H100.64L100.646 335.586H100.551C100.656 335.171 100.82 334.829 101.043 334.561C101.271 334.287 101.535 334.082 101.836 333.945C102.141 333.809 102.458 333.74 102.786 333.74C103.342 333.74 103.791 333.911 104.133 334.253C104.479 334.595 104.702 335.044 104.803 335.6H104.639C104.73 335.217 104.896 334.886 105.138 334.608C105.379 334.33 105.671 334.116 106.013 333.966C106.359 333.815 106.735 333.74 107.141 333.74C107.583 333.74 107.986 333.836 108.351 334.027C108.715 334.219 109.005 334.508 109.219 334.896C109.438 335.283 109.547 335.773 109.547 336.365V341.52H108.31V336.399C108.31 335.848 108.155 335.454 107.845 335.217C107.539 334.98 107.182 334.861 106.771 334.861C106.43 334.861 106.133 334.934 105.883 335.08C105.637 335.221 105.445 335.417 105.309 335.668C105.176 335.919 105.11 336.206 105.11 336.529V341.52H103.88V336.276C103.88 335.853 103.739 335.511 103.456 335.251C103.174 334.991 102.816 334.861 102.383 334.861C102.087 334.861 101.806 334.932 101.542 335.073C101.282 335.21 101.073 335.415 100.913 335.688C100.754 335.962 100.674 336.301 100.674 336.707V341.52H99.4434ZM114.817 341.684C114.125 341.684 113.516 341.52 112.992 341.191C112.473 340.863 112.067 340.403 111.775 339.811C111.484 339.218 111.338 338.53 111.338 337.746C111.338 336.949 111.484 336.254 111.775 335.661C112.067 335.064 112.473 334.602 112.992 334.273C113.516 333.945 114.125 333.781 114.817 333.781C115.515 333.781 116.125 333.945 116.649 334.273C117.174 334.602 117.581 335.064 117.873 335.661C118.165 336.254 118.311 336.949 118.311 337.746C118.311 338.53 118.165 339.218 117.873 339.811C117.581 340.403 117.174 340.863 116.649 341.191C116.125 341.52 115.515 341.684 114.817 341.684ZM114.817 340.583C115.332 340.583 115.756 340.451 116.089 340.187C116.422 339.922 116.668 339.576 116.827 339.147C116.987 338.715 117.066 338.247 117.066 337.746C117.066 337.24 116.987 336.771 116.827 336.338C116.668 335.9 116.422 335.549 116.089 335.285C115.756 335.016 115.332 334.882 114.817 334.882C114.307 334.882 113.888 335.016 113.56 335.285C113.231 335.549 112.988 335.898 112.828 336.331C112.669 336.764 112.589 337.236 112.589 337.746C112.589 338.247 112.669 338.715 112.828 339.147C112.988 339.576 113.231 339.922 113.56 340.187C113.888 340.451 114.307 340.583 114.817 340.583ZM120.102 341.52V333.877H121.291V335.053H121.373C121.514 334.665 121.765 334.355 122.125 334.123C122.49 333.886 122.9 333.768 123.355 333.768C123.447 333.768 123.554 333.77 123.677 333.774C123.804 333.779 123.905 333.784 123.978 333.788V335.025C123.941 335.016 123.85 335.003 123.704 334.984C123.558 334.966 123.403 334.957 123.239 334.957C122.875 334.957 122.547 335.035 122.255 335.189C121.968 335.34 121.742 335.549 121.578 335.818C121.414 336.083 121.332 336.388 121.332 336.734V341.52H120.102ZM128.359 341.684C127.621 341.684 126.983 341.52 126.445 341.191C125.912 340.863 125.5 340.405 125.208 339.817C124.921 339.229 124.777 338.544 124.777 337.76C124.777 336.976 124.919 336.285 125.201 335.688C125.484 335.091 125.882 334.624 126.397 334.287C126.917 333.95 127.523 333.781 128.216 333.781C128.621 333.781 129.02 333.85 129.412 333.986C129.809 334.118 130.166 334.335 130.485 334.636C130.809 334.932 131.066 335.324 131.258 335.812C131.449 336.299 131.545 336.896 131.545 337.603V338.115H125.611V337.076H130.882L130.308 337.459C130.308 336.958 130.228 336.513 130.068 336.126C129.913 335.734 129.681 335.429 129.371 335.21C129.061 334.987 128.676 334.875 128.216 334.875C127.756 334.875 127.361 334.989 127.033 335.217C126.705 335.44 126.454 335.734 126.281 336.099C126.108 336.459 126.021 336.846 126.021 337.261V337.951C126.021 338.516 126.119 338.997 126.315 339.394C126.511 339.785 126.785 340.084 127.136 340.289C127.491 340.49 127.901 340.59 128.366 340.59C128.667 340.59 128.94 340.547 129.187 340.46C129.433 340.373 129.645 340.243 129.822 340.07C130 339.893 130.137 339.674 130.232 339.414L131.422 339.742C131.303 340.125 131.103 340.462 130.82 340.754C130.538 341.046 130.187 341.273 129.768 341.438C129.353 341.602 128.883 341.684 128.359 341.684ZM134.245 341.608C133.99 341.608 133.771 341.52 133.589 341.342C133.411 341.16 133.322 340.941 133.322 340.686C133.322 340.43 133.411 340.214 133.589 340.036C133.771 339.854 133.99 339.763 134.245 339.763C134.5 339.763 134.717 339.854 134.895 340.036C135.077 340.214 135.168 340.43 135.168 340.686C135.168 340.941 135.077 341.16 134.895 341.342C134.717 341.52 134.5 341.608 134.245 341.608ZM138.278 341.608C138.023 341.608 137.804 341.52 137.622 341.342C137.444 341.16 137.355 340.941 137.355 340.686C137.355 340.43 137.444 340.214 137.622 340.036C137.804 339.854 138.023 339.763 138.278 339.763C138.534 339.763 138.75 339.854 138.928 340.036C139.11 340.214 139.201 340.43 139.201 340.686C139.201 340.941 139.11 341.16 138.928 341.342C138.75 341.52 138.534 341.608 138.278 341.608ZM142.312 341.608C142.056 341.608 141.838 341.52 141.655 341.342C141.478 341.16 141.389 340.941 141.389 340.686C141.389 340.43 141.478 340.214 141.655 340.036C141.838 339.854 142.056 339.763 142.312 339.763C142.567 339.763 142.783 339.854 142.961 340.036C143.143 340.214 143.234 340.43 143.234 340.686C143.234 340.941 143.143 341.16 142.961 341.342C142.783 341.52 142.567 341.608 142.312 341.608Z" fill="#2563EB"/>
</g>
</g>
<rect x="5" y="96.5195" width="346" height="268" rx="8" stroke="#F4F4F5"/>
</g>
<defs>
<filter id="filter0_d_3945_124967" x="0.5" y="93.0195" width="355" height="277" filterUnits="userSpaceOnUse" color-interpolation-filters="sRGB">
<feFlood flood-opacity="0" result="BackgroundImageFix"/>
<feColorMatrix in="SourceAlpha" type="matrix" values="0 0 0 0 0 0 0 0 0 0 0 0 0 0 0 0 0 0 127 0" result="hardAlpha"/>
<feOffset dy="1"/>
<feGaussianBlur stdDeviation="2"/>
<feComposite in2="hardAlpha" operator="out"/>
<feColorMatrix type="matrix" values="0 0 0 0 0 0 0 0 0 0 0 0 0 0 0 0 0 0 0.05 0"/>
<feBlend mode="normal" in2="BackgroundImageFix" result="effect1_dropShadow_3945_124967"/>
<feBlend mode="normal" in="SourceGraphic" in2="effect1_dropShadow_3945_124967" result="shape"/>
</filter>
<filter id="filter1_d_3945_124967" x="17" y="321.52" width="136" height="32" filterUnits="userSpaceOnUse" color-interpolation-filters="sRGB">
<feFlood flood-opacity="0" result="BackgroundImageFix"/>
<feColorMatrix in="SourceAlpha" type="matrix" values="0 0 0 0 0 0 0 0 0 0 0 0 0 0 0 0 0 0 127 0" result="hardAlpha"/>
<feOffset dy="1"/>
<feGaussianBlur stdDeviation="2"/>
<feComposite in2="hardAlpha" operator="out"/>
<feColorMatrix type="matrix" values="0 0 0 0 0 0 0 0 0 0 0 0 0 0 0 0 0 0 0.05 0"/>
<feBlend mode="normal" in2="BackgroundImageFix" result="effect1_dropShadow_3945_124967"/>
<feBlend mode="normal" in="SourceGraphic" in2="effect1_dropShadow_3945_124967" result="shape"/>
</filter>
<clipPath id="clip0_3945_124967">
<rect x="5" y="28.5195" width="346" height="36" rx="4" fill="white"/>
</clipPath>
<clipPath id="clip1_3945_124967">
<rect x="5" y="96.5195" width="346" height="268" rx="8" fill="white"/>
</clipPath>
<clipPath id="clip2_3945_124967">
<rect x="182" y="104.52" width="161" height="36" rx="4" fill="white"/>
</clipPath>
</defs>
</svg>
