<svg width="442" height="370" viewBox="0 0 442 370" fill="none" xmlns="http://www.w3.org/2000/svg">
<path d="M6.18555 17V6.81445H9.83594C10.6198 6.81445 11.2738 6.96029 11.7979 7.25195C12.3219 7.54362 12.7139 7.93783 12.9736 8.43457C13.2334 8.93132 13.3633 9.49414 13.3633 10.123C13.3633 10.752 13.2311 11.3171 12.9668 11.8184C12.707 12.3151 12.3151 12.7093 11.791 13.001C11.2669 13.2881 10.6107 13.4316 9.82227 13.4316H7.32715V12.1123H9.67188C10.1732 12.1123 10.5788 12.0257 10.8887 11.8525C11.1986 11.6794 11.4242 11.4424 11.5654 11.1416C11.7113 10.8408 11.7842 10.5013 11.7842 10.123C11.7842 9.74023 11.7113 9.40072 11.5654 9.10449C11.4242 8.80371 11.1963 8.56901 10.8818 8.40039C10.5719 8.23177 10.1641 8.14746 9.6582 8.14746H7.74414V17H6.18555ZM15.0518 17V9.35742H16.5078V10.5879H16.5898C16.7311 10.1686 16.9772 9.84049 17.3281 9.60352C17.679 9.36654 18.0778 9.24805 18.5244 9.24805C18.6201 9.24805 18.7295 9.2526 18.8525 9.26172C18.9756 9.26628 19.0781 9.27539 19.1602 9.28906V10.7246C19.1055 10.7064 19.0007 10.6882 18.8457 10.6699C18.6908 10.6517 18.5335 10.6426 18.374 10.6426C18.0277 10.6426 17.7155 10.7155 17.4375 10.8613C17.1595 11.0072 16.943 11.21 16.7881 11.4697C16.6331 11.7249 16.5557 12.0212 16.5557 12.3584V17H15.0518ZM23.4053 17.1572C22.6898 17.1572 22.0632 16.9932 21.5254 16.665C20.9922 16.3369 20.5775 15.8766 20.2812 15.2842C19.985 14.6917 19.8369 14.0036 19.8369 13.2197C19.8369 12.4268 19.985 11.734 20.2812 11.1416C20.5775 10.5446 20.9922 10.082 21.5254 9.75391C22.0632 9.42578 22.6898 9.26172 23.4053 9.26172C24.1253 9.26172 24.752 9.42578 25.2852 9.75391C25.8229 10.082 26.2399 10.5446 26.5361 11.1416C26.8324 11.734 26.9805 12.4268 26.9805 13.2197C26.9805 14.0036 26.8324 14.6917 26.5361 15.2842C26.2399 15.8766 25.8229 16.3369 25.2852 16.665C24.752 16.9932 24.1253 17.1572 23.4053 17.1572ZM23.4053 15.8857C23.8701 15.8857 24.2529 15.765 24.5537 15.5234C24.859 15.2773 25.0846 14.9538 25.2305 14.5527C25.3809 14.1471 25.4561 13.7028 25.4561 13.2197C25.4561 12.7321 25.3809 12.2855 25.2305 11.8799C25.0846 11.4697 24.859 11.1439 24.5537 10.9023C24.2529 10.6562 23.8701 10.5332 23.4053 10.5332C22.945 10.5332 22.5645 10.6562 22.2637 10.9023C21.9629 11.1439 21.7373 11.4674 21.5869 11.873C21.4411 12.2786 21.3682 12.7275 21.3682 13.2197C21.3682 13.7028 21.4411 14.1471 21.5869 14.5527C21.7373 14.9538 21.9629 15.2773 22.2637 15.5234C22.5645 15.765 22.945 15.8857 23.4053 15.8857ZM28.6484 9.35742H30.1592V17.4922C30.1637 18.0117 30.0703 18.4469 29.8789 18.7979C29.6921 19.1488 29.4163 19.4131 29.0518 19.5908C28.6872 19.7686 28.2406 19.8574 27.7119 19.8574H27.4111V18.5654H27.6504C28.0059 18.5654 28.2611 18.472 28.416 18.2852C28.571 18.1029 28.6484 17.8363 28.6484 17.4854V9.35742ZM29.4072 8.18848C29.1475 8.18848 28.9242 8.10189 28.7373 7.92871C28.555 7.75553 28.4639 7.5459 28.4639 7.2998C28.4639 7.04915 28.555 6.83724 28.7373 6.66406C28.9242 6.49089 29.1475 6.4043 29.4072 6.4043C29.667 6.4043 29.8903 6.49089 30.0771 6.66406C30.264 6.83724 30.3574 7.04915 30.3574 7.2998C30.3574 7.5459 30.264 7.75553 30.0771 7.92871C29.8903 8.10189 29.667 8.18848 29.4072 8.18848ZM35.4775 17.1572C34.7256 17.1572 34.0762 16.9954 33.5293 16.6719C32.9824 16.3483 32.5609 15.8926 32.2646 15.3047C31.973 14.7168 31.8271 14.0264 31.8271 13.2334C31.8271 12.4495 31.9707 11.7591 32.2578 11.1621C32.5495 10.5651 32.9596 10.1003 33.4883 9.76758C34.0169 9.43034 34.6367 9.26172 35.3477 9.26172C35.7852 9.26172 36.2067 9.33464 36.6123 9.48047C37.0179 9.62174 37.3825 9.84505 37.7061 10.1504C38.0296 10.4557 38.2848 10.8522 38.4717 11.3398C38.6631 11.8229 38.7588 12.4108 38.7588 13.1035V13.6367H32.668V12.5156H37.9863L37.2822 12.8848C37.2822 12.4154 37.2093 12.0029 37.0635 11.6475C36.9176 11.2874 36.7012 11.0072 36.4141 10.8066C36.1315 10.6061 35.776 10.5059 35.3477 10.5059C34.9238 10.5059 34.5615 10.6084 34.2607 10.8135C33.96 11.0186 33.7298 11.2897 33.5703 11.627C33.4154 11.9596 33.3379 12.3242 33.3379 12.7207V13.4863C33.3379 14.0104 33.4268 14.4548 33.6045 14.8193C33.7868 15.1794 34.0397 15.4528 34.3633 15.6396C34.6868 15.8219 35.0628 15.9131 35.4912 15.9131C35.7738 15.9131 36.029 15.8743 36.2568 15.7969C36.4847 15.7148 36.6807 15.5941 36.8447 15.4346C37.0133 15.2705 37.141 15.07 37.2275 14.833L38.6426 15.168C38.5195 15.5599 38.3122 15.9062 38.0205 16.207C37.7334 16.5078 37.3734 16.7425 36.9404 16.9111C36.512 17.0752 36.0244 17.1572 35.4775 17.1572ZM43.626 17.1572C42.9059 17.1572 42.2793 16.9932 41.7461 16.665C41.2129 16.3369 40.7982 15.8766 40.502 15.2842C40.2057 14.6917 40.0576 14.0036 40.0576 13.2197C40.0576 12.4268 40.2057 11.734 40.502 11.1416C40.7982 10.5446 41.2129 10.082 41.7461 9.75391C42.2793 9.42578 42.9059 9.26172 43.626 9.26172C44.0225 9.26172 44.3939 9.31413 44.7402 9.41895C45.0866 9.51921 45.3988 9.66732 45.6768 9.86328C45.9593 10.0547 46.1963 10.2917 46.3877 10.5742C46.5837 10.8522 46.7295 11.1667 46.8252 11.5176L45.3965 11.8594C45.3464 11.6634 45.2689 11.4857 45.1641 11.3262C45.0592 11.1621 44.9316 11.0208 44.7812 10.9023C44.6354 10.7839 44.4645 10.6927 44.2686 10.6289C44.0771 10.5651 43.8652 10.5332 43.6328 10.5332C43.1725 10.5332 42.7897 10.6562 42.4844 10.9023C42.1836 11.1439 41.958 11.4674 41.8076 11.873C41.6618 12.2786 41.5889 12.7275 41.5889 13.2197C41.5889 13.7074 41.6618 14.154 41.8076 14.5596C41.958 14.9606 42.1836 15.2819 42.4844 15.5234C42.7897 15.765 43.1725 15.8857 43.6328 15.8857C43.8698 15.8857 44.0863 15.8538 44.2822 15.79C44.4782 15.7217 44.6536 15.6283 44.8086 15.5098C44.9635 15.3867 45.0934 15.2409 45.1982 15.0723C45.3031 14.8991 45.3783 14.71 45.4238 14.5049L46.8457 14.8467C46.7546 15.2067 46.611 15.5303 46.415 15.8174C46.2191 16.0999 45.9798 16.3415 45.6973 16.542C45.4193 16.7425 45.1048 16.8952 44.7539 17C44.403 17.1048 44.027 17.1572 43.626 17.1572ZM51.7607 9.35742V10.5811H47.6182V9.35742H51.7607ZM48.7324 7.53906H50.2363V14.9355C50.2363 15.2409 50.3001 15.4665 50.4277 15.6123C50.5599 15.7536 50.7741 15.8242 51.0703 15.8242C51.1478 15.8242 51.2503 15.8151 51.3779 15.7969C51.5055 15.7786 51.6149 15.7604 51.7061 15.7422L51.9727 16.9453C51.8132 17 51.6423 17.0387 51.46 17.0615C51.2777 17.0889 51.0977 17.1025 50.9199 17.1025C50.2272 17.1025 49.6895 16.9248 49.3066 16.5693C48.9238 16.2093 48.7324 15.7057 48.7324 15.0586V7.53906ZM58.501 12.4746V17H56.9971V9.35742H58.4326L58.4463 11.2305H58.2891C58.5124 10.5469 58.8359 10.0479 59.2598 9.7334C59.6836 9.41895 60.1963 9.26172 60.7979 9.26172C61.3174 9.26172 61.7708 9.37109 62.1582 9.58984C62.5456 9.80859 62.8486 10.1322 63.0674 10.5605C63.2861 10.9844 63.3955 11.513 63.3955 12.1465V17H61.8916V12.3311C61.8916 11.7796 61.748 11.349 61.4609 11.0391C61.1738 10.7292 60.7796 10.5742 60.2783 10.5742C59.9411 10.5742 59.638 10.6494 59.3691 10.7998C59.1003 10.9456 58.8883 11.1598 58.7334 11.4424C58.5785 11.7249 58.501 12.069 58.501 12.4746ZM68.2559 17.1504C67.6406 17.1504 67.0915 16.9932 66.6084 16.6787C66.1299 16.3597 65.7516 15.9062 65.4736 15.3184C65.2002 14.7259 65.0635 14.0195 65.0635 13.1992C65.0635 12.3698 65.2025 11.6611 65.4805 11.0732C65.763 10.4854 66.1458 10.0365 66.6289 9.72656C67.1165 9.41667 67.6657 9.26172 68.2764 9.26172C68.7458 9.26172 69.124 9.33919 69.4111 9.49414C69.7028 9.64909 69.9284 9.83366 70.0879 10.0479C70.252 10.2575 70.3773 10.4421 70.4639 10.6016H70.5596V9.35742H72.0498V17H70.5664V15.8037H70.4639C70.3773 15.9678 70.2497 16.1569 70.0811 16.3711C69.9124 16.5807 69.6823 16.763 69.3906 16.918C69.099 17.0729 68.7207 17.1504 68.2559 17.1504ZM68.6045 15.8721C69.0329 15.8721 69.3929 15.7581 69.6846 15.5303C69.9808 15.3024 70.2041 14.988 70.3545 14.5869C70.5049 14.1813 70.5801 13.7142 70.5801 13.1855C70.5801 12.6523 70.5049 12.1898 70.3545 11.7979C70.2041 11.4014 69.9808 11.0938 69.6846 10.875C69.3929 10.6517 69.0329 10.54 68.6045 10.54C68.1624 10.54 67.7933 10.6562 67.4971 10.8887C67.2008 11.1165 66.9775 11.431 66.8271 11.832C66.6768 12.2285 66.6016 12.6797 66.6016 13.1855C66.6016 13.6914 66.6768 14.1471 66.8271 14.5527C66.9775 14.9583 67.2008 15.2796 67.4971 15.5166C67.7979 15.7536 68.167 15.8721 68.6045 15.8721ZM74.0732 17V9.35742H75.502L75.543 11.1279H75.4268C75.5361 10.695 75.7048 10.3395 75.9326 10.0615C76.1605 9.78353 76.4271 9.57617 76.7324 9.43945C77.0378 9.29818 77.3568 9.22754 77.6895 9.22754C78.2454 9.22754 78.6943 9.40072 79.0361 9.74707C79.3779 10.0889 79.6081 10.5674 79.7266 11.1826H79.5352C79.6354 10.7633 79.8086 10.4079 80.0547 10.1162C80.3008 9.82454 80.597 9.60352 80.9434 9.45312C81.2943 9.30273 81.668 9.22754 82.0645 9.22754C82.5156 9.22754 82.9235 9.32552 83.2881 9.52148C83.6572 9.71745 83.9489 10.0091 84.1631 10.3965C84.3773 10.7839 84.4844 11.2669 84.4844 11.8457V17H82.9736V11.9961C82.9736 11.4857 82.8324 11.1165 82.5498 10.8887C82.2673 10.6608 81.9323 10.5469 81.5449 10.5469C81.2305 10.5469 80.9593 10.613 80.7314 10.7451C80.5036 10.8773 80.3281 11.0618 80.2051 11.2988C80.082 11.5312 80.0205 11.8001 80.0205 12.1055V17H78.5371V11.9004C78.5371 11.4902 78.4049 11.1621 78.1406 10.916C77.8809 10.6699 77.5482 10.5469 77.1426 10.5469C76.8646 10.5469 76.6048 10.613 76.3633 10.7451C76.1263 10.8727 75.9349 11.0641 75.7891 11.3193C75.6478 11.57 75.5771 11.8799 75.5771 12.249V17H74.0732ZM89.8096 17.1572C89.0576 17.1572 88.4082 16.9954 87.8613 16.6719C87.3145 16.3483 86.8929 15.8926 86.5967 15.3047C86.305 14.7168 86.1592 14.0264 86.1592 13.2334C86.1592 12.4495 86.3027 11.7591 86.5898 11.1621C86.8815 10.5651 87.2917 10.1003 87.8203 9.76758C88.349 9.43034 88.9688 9.26172 89.6797 9.26172C90.1172 9.26172 90.5387 9.33464 90.9443 9.48047C91.3499 9.62174 91.7145 9.84505 92.0381 10.1504C92.3617 10.4557 92.6169 10.8522 92.8037 11.3398C92.9951 11.8229 93.0908 12.4108 93.0908 13.1035V13.6367H87V12.5156H92.3184L91.6143 12.8848C91.6143 12.4154 91.5413 12.0029 91.3955 11.6475C91.2497 11.2874 91.0332 11.0072 90.7461 10.8066C90.4635 10.6061 90.1081 10.5059 89.6797 10.5059C89.2559 10.5059 88.8936 10.6084 88.5928 10.8135C88.292 11.0186 88.0618 11.2897 87.9023 11.627C87.7474 11.9596 87.6699 12.3242 87.6699 12.7207V13.4863C87.6699 14.0104 87.7588 14.4548 87.9365 14.8193C88.1188 15.1794 88.3717 15.4528 88.6953 15.6396C89.0189 15.8219 89.3949 15.9131 89.8232 15.9131C90.1058 15.9131 90.361 15.8743 90.5889 15.7969C90.8167 15.7148 91.0127 15.5941 91.1768 15.4346C91.3454 15.2705 91.473 15.07 91.5596 14.833L92.9746 15.168C92.8516 15.5599 92.6442 15.9062 92.3525 16.207C92.0654 16.5078 91.7054 16.7425 91.2725 16.9111C90.8441 17.0752 90.3564 17.1572 89.8096 17.1572Z" fill="#111827"/>
<g clip-path="url(#clip0_3945_119773)">
<rect x="5.05762" y="28" width="431.885" height="36" rx="4" fill="white"/>
</g>
<rect x="5.05762" y="28" width="431.885" height="36" rx="4" stroke="#E4E4E7"/>
<g filter="url(#filter0_d_3945_119773)">
<g clip-path="url(#clip1_3945_119773)">
<rect x="5.05762" y="96" width="431.885" height="268" rx="8" fill="white"/>
<rect width="431.885" height="52" transform="translate(5.05762 96)" fill="#FAFAFA"/>
<path d="M27.1826 128.156C26.1566 128.156 25.2399 127.919 24.4326 127.445C23.6305 126.971 22.9977 126.289 22.5342 125.398C22.0706 124.503 21.8389 123.432 21.8389 122.188C21.8389 120.932 22.0706 119.859 22.5342 118.969C22.9977 118.073 23.6331 117.388 24.4404 116.914C25.2477 116.44 26.1618 116.203 27.1826 116.203C27.818 116.203 28.4144 116.294 28.9717 116.477C29.529 116.654 30.0238 116.917 30.4561 117.266C30.8936 117.615 31.2529 118.039 31.5342 118.539C31.8154 119.039 32.0029 119.609 32.0967 120.25H29.9951C29.9274 119.901 29.8102 119.591 29.6436 119.32C29.4821 119.049 29.2764 118.82 29.0264 118.633C28.7816 118.445 28.5055 118.305 28.1982 118.211C27.891 118.117 27.5628 118.07 27.2139 118.07C26.568 118.07 25.9977 118.232 25.5029 118.555C25.0081 118.872 24.6227 119.339 24.3467 119.953C24.0706 120.568 23.9326 121.312 23.9326 122.188C23.9326 123.068 24.0706 123.815 24.3467 124.43C24.6279 125.039 25.016 125.503 25.5107 125.82C26.0055 126.133 26.5706 126.289 27.2061 126.289C27.555 126.289 27.8831 126.242 28.1904 126.148C28.4977 126.049 28.7738 125.909 29.0186 125.727C29.2686 125.539 29.4769 125.31 29.6436 125.039C29.8154 124.768 29.9352 124.461 30.0029 124.117H32.1045C32.0264 124.68 31.8519 125.206 31.5811 125.695C31.3154 126.185 30.9691 126.615 30.542 126.984C30.1149 127.354 29.6175 127.643 29.0498 127.852C28.4873 128.055 27.8649 128.156 27.1826 128.156ZM35.9014 116.359V128H33.8779V116.359H35.9014ZM41.0029 128.117C40.4092 128.117 39.8857 127.99 39.4326 127.734C38.9847 127.479 38.6357 127.107 38.3857 126.617C38.141 126.122 38.0186 125.526 38.0186 124.828V119.32H40.042V124.516C40.042 125.104 40.193 125.565 40.4951 125.898C40.8024 126.227 41.2217 126.391 41.7529 126.391C42.1123 126.391 42.43 126.312 42.7061 126.156C42.9873 126 43.2061 125.773 43.3623 125.477C43.5238 125.174 43.6045 124.81 43.6045 124.383V119.32H45.6357V128H43.7061L43.6826 125.844H43.8623C43.6175 126.604 43.2555 127.174 42.7764 127.555C42.2972 127.93 41.7061 128.117 41.0029 128.117ZM51.0498 128.18C50.3779 128.18 49.7816 128.083 49.2607 127.891C48.7451 127.693 48.3232 127.409 47.9951 127.039C47.667 126.664 47.4561 126.208 47.3623 125.672L49.2686 125.359C49.3779 125.786 49.5837 126.107 49.8857 126.32C50.1878 126.529 50.5863 126.633 51.0811 126.633C51.5811 126.633 51.9743 126.534 52.2607 126.336C52.5524 126.133 52.6982 125.885 52.6982 125.594C52.6982 125.344 52.6019 125.138 52.4092 124.977C52.2165 124.81 51.9222 124.685 51.5264 124.602L50.0498 124.281C49.2269 124.104 48.6123 123.815 48.2061 123.414C47.7998 123.008 47.5967 122.484 47.5967 121.844C47.5967 121.307 47.7425 120.841 48.0342 120.445C48.3311 120.049 48.7425 119.745 49.2686 119.531C49.7946 119.312 50.404 119.203 51.0967 119.203C51.7581 119.203 52.3285 119.299 52.8076 119.492C53.2868 119.68 53.6722 119.948 53.9639 120.297C54.2607 120.641 54.4613 121.044 54.5654 121.508L52.7529 121.828C52.6644 121.516 52.4873 121.253 52.2217 121.039C51.9613 120.826 51.5967 120.719 51.1279 120.719C50.6956 120.719 50.3363 120.812 50.0498 121C49.7686 121.188 49.6279 121.43 49.6279 121.727C49.6279 121.982 49.7217 122.193 49.9092 122.359C50.1019 122.521 50.4144 122.648 50.8467 122.742L52.3311 123.055C53.1592 123.232 53.7738 123.516 54.1748 123.906C54.5758 124.292 54.7764 124.792 54.7764 125.406C54.7764 125.953 54.6175 126.435 54.2998 126.852C53.9821 127.268 53.542 127.594 52.9795 127.828C52.4222 128.062 51.779 128.18 51.0498 128.18ZM60.5576 119.32V120.906H55.5889V119.32H60.5576ZM56.8467 117.219H58.8701V125.555C58.8701 125.867 58.9378 126.096 59.0732 126.242C59.2087 126.383 59.4326 126.453 59.7451 126.453C59.8389 126.453 59.9613 126.443 60.1123 126.422C60.2686 126.401 60.3936 126.383 60.4873 126.367L60.7764 127.938C60.5628 128 60.3389 128.042 60.1045 128.062C59.8753 128.089 59.6514 128.102 59.4326 128.102C58.5993 128.102 57.9587 127.898 57.5107 127.492C57.068 127.086 56.8467 126.5 56.8467 125.734V117.219ZM65.8076 128.18C64.9378 128.18 64.1852 127.995 63.5498 127.625C62.9196 127.255 62.4352 126.737 62.0967 126.07C61.7581 125.398 61.5889 124.612 61.5889 123.711C61.5889 122.82 61.7555 122.036 62.0889 121.359C62.4274 120.682 62.904 120.154 63.5186 119.773C64.1331 119.393 64.8519 119.203 65.6748 119.203C66.2165 119.203 66.7269 119.292 67.2061 119.469C67.6904 119.641 68.1175 119.909 68.4873 120.273C68.8571 120.633 69.1462 121.089 69.3545 121.641C69.568 122.193 69.6748 122.846 69.6748 123.602V124.219H62.5264V122.844H68.6592L67.7217 123.25C67.7217 122.76 67.6436 122.331 67.4873 121.961C67.3311 121.591 67.1019 121.305 66.7998 121.102C66.5029 120.893 66.1331 120.789 65.6904 120.789C65.2477 120.789 64.8701 120.893 64.5576 121.102C64.2451 121.31 64.0055 121.591 63.8389 121.945C63.6774 122.294 63.5967 122.685 63.5967 123.117V124.062C63.5967 124.604 63.6878 125.065 63.8701 125.445C64.0576 125.82 64.318 126.104 64.6514 126.297C64.9899 126.49 65.3831 126.586 65.8311 126.586C66.1331 126.586 66.4066 126.544 66.6514 126.461C66.8962 126.372 67.1045 126.245 67.2764 126.078C67.4535 125.906 67.5863 125.698 67.6748 125.453L69.542 125.797C69.4066 126.271 69.167 126.688 68.8232 127.047C68.4847 127.401 68.0602 127.68 67.5498 127.883C67.0394 128.081 66.4587 128.18 65.8076 128.18ZM71.3779 128V119.32H73.3389V120.773H73.4248C73.5811 120.268 73.8493 119.88 74.2295 119.609C74.6149 119.339 75.0602 119.203 75.5654 119.203C75.68 119.203 75.805 119.208 75.9404 119.219C76.0811 119.229 76.1982 119.242 76.292 119.258V121.117C76.2139 121.091 76.0811 121.068 75.8936 121.047C75.7061 121.026 75.5212 121.016 75.3389 121.016C74.9691 121.016 74.6357 121.096 74.3389 121.258C74.0472 121.414 73.818 121.635 73.6514 121.922C73.4847 122.203 73.4014 122.534 73.4014 122.914V128H71.3779ZM80.9561 128.18C80.2842 128.18 79.6878 128.083 79.167 127.891C78.6514 127.693 78.2295 127.409 77.9014 127.039C77.5732 126.664 77.3623 126.208 77.2686 125.672L79.1748 125.359C79.2842 125.786 79.4899 126.107 79.792 126.32C80.0941 126.529 80.4925 126.633 80.9873 126.633C81.4873 126.633 81.8805 126.534 82.167 126.336C82.4587 126.133 82.6045 125.885 82.6045 125.594C82.6045 125.344 82.5081 125.138 82.3154 124.977C82.1227 124.81 81.8285 124.685 81.4326 124.602L79.9561 124.281C79.1331 124.104 78.5186 123.815 78.1123 123.414C77.7061 123.008 77.5029 122.484 77.5029 121.844C77.5029 121.307 77.6488 120.841 77.9404 120.445C78.2373 120.049 78.6488 119.745 79.1748 119.531C79.7008 119.312 80.3102 119.203 81.0029 119.203C81.6644 119.203 82.2347 119.299 82.7139 119.492C83.193 119.68 83.5785 119.948 83.8701 120.297C84.167 120.641 84.3675 121.044 84.4717 121.508L82.6592 121.828C82.5706 121.516 82.3936 121.253 82.1279 121.039C81.8675 120.826 81.5029 120.719 81.0342 120.719C80.6019 120.719 80.2425 120.812 79.9561 121C79.6748 121.188 79.5342 121.43 79.5342 121.727C79.5342 121.982 79.6279 122.193 79.8154 122.359C80.0081 122.521 80.3206 122.648 80.7529 122.742L82.2373 123.055C83.0654 123.232 83.68 123.516 84.0811 123.906C84.4821 124.292 84.6826 124.792 84.6826 125.406C84.6826 125.953 84.5238 126.435 84.2061 126.852C83.8883 127.268 83.4482 127.594 82.8857 127.828C82.3285 128.062 81.6852 128.18 80.9561 128.18Z" fill="#111827"/>
<g clip-path="url(#clip2_3945_119773)">
<rect x="178.942" y="104" width="250" height="36" rx="4" fill="white"/>
<path d="M196.088 127.791C199.759 127.791 202.734 124.816 202.734 121.146C202.734 117.475 199.759 114.5 196.088 114.5C192.418 114.5 189.442 117.475 189.442 121.146C189.442 124.816 192.418 127.791 196.088 127.791Z" stroke="#111827" stroke-linecap="round" stroke-linejoin="round"/>
<path d="M200.787 125.845L204.442 129.5" stroke="#111827" stroke-linecap="round" stroke-linejoin="round"/>
<path d="M223.434 127.178C222.7 127.178 222.062 127.059 221.52 126.822C220.982 126.585 220.56 126.255 220.255 125.831C219.95 125.403 219.776 124.904 219.735 124.334H221.068C221.105 124.717 221.235 125.034 221.458 125.284C221.681 125.53 221.966 125.715 222.312 125.838C222.663 125.956 223.037 126.016 223.434 126.016C223.894 126.016 224.306 125.94 224.671 125.79C225.04 125.64 225.332 125.428 225.546 125.154C225.76 124.881 225.867 124.564 225.867 124.204C225.867 123.876 225.774 123.609 225.587 123.404C225.405 123.199 225.161 123.031 224.855 122.898C224.55 122.766 224.215 122.65 223.851 122.55L222.62 122.201C221.8 121.969 221.162 121.636 220.706 121.203C220.25 120.77 220.022 120.216 220.022 119.542C220.022 118.968 220.177 118.466 220.487 118.038C220.797 117.605 221.216 117.27 221.745 117.033C222.274 116.796 222.866 116.678 223.522 116.678C224.192 116.678 224.785 116.796 225.3 117.033C225.815 117.27 226.22 117.594 226.517 118.004C226.817 118.41 226.977 118.87 226.995 119.385H225.724C225.664 118.888 225.427 118.505 225.013 118.236C224.598 117.963 224.088 117.826 223.481 117.826C223.044 117.826 222.659 117.899 222.326 118.045C221.998 118.186 221.743 118.382 221.561 118.633C221.378 118.879 221.287 119.161 221.287 119.48C221.287 119.836 221.396 120.123 221.615 120.342C221.839 120.556 222.101 120.725 222.401 120.848C222.707 120.966 222.982 121.06 223.229 121.128L224.247 121.408C224.521 121.481 224.821 121.581 225.149 121.709C225.482 121.837 225.799 122.007 226.1 122.222C226.4 122.431 226.646 122.7 226.838 123.028C227.034 123.352 227.132 123.751 227.132 124.225C227.132 124.781 226.986 125.282 226.694 125.729C226.407 126.175 225.988 126.528 225.437 126.788C224.885 127.048 224.217 127.178 223.434 127.178ZM232.218 127.164C231.479 127.164 230.841 127 230.304 126.672C229.771 126.344 229.358 125.886 229.066 125.298C228.779 124.71 228.636 124.024 228.636 123.24C228.636 122.456 228.777 121.766 229.06 121.169C229.342 120.572 229.741 120.105 230.256 119.768C230.775 119.43 231.382 119.262 232.074 119.262C232.48 119.262 232.879 119.33 233.271 119.467C233.667 119.599 234.025 119.815 234.344 120.116C234.667 120.412 234.925 120.804 235.116 121.292C235.308 121.78 235.403 122.377 235.403 123.083V123.596H229.47V122.557H234.74L234.166 122.939C234.166 122.438 234.086 121.994 233.927 121.606C233.772 121.215 233.539 120.909 233.229 120.69C232.92 120.467 232.535 120.355 232.074 120.355C231.614 120.355 231.22 120.469 230.892 120.697C230.563 120.921 230.313 121.215 230.14 121.579C229.966 121.939 229.88 122.326 229.88 122.741V123.432C229.88 123.997 229.978 124.478 230.174 124.874C230.37 125.266 230.643 125.564 230.994 125.77C231.35 125.97 231.76 126.07 232.225 126.07C232.525 126.07 232.799 126.027 233.045 125.94C233.291 125.854 233.503 125.724 233.681 125.551C233.858 125.373 233.995 125.154 234.091 124.895L235.28 125.223C235.162 125.605 234.961 125.943 234.679 126.234C234.396 126.526 234.045 126.754 233.626 126.918C233.211 127.082 232.742 127.164 232.218 127.164ZM240.024 127.164C239.396 127.164 238.837 127.002 238.35 126.679C237.867 126.355 237.486 125.897 237.208 125.305C236.935 124.712 236.798 124.01 236.798 123.199C236.798 122.393 236.937 121.695 237.215 121.107C237.493 120.515 237.876 120.059 238.363 119.74C238.855 119.421 239.418 119.262 240.052 119.262C240.544 119.262 240.936 119.344 241.228 119.508C241.519 119.667 241.743 119.852 241.897 120.062C242.052 120.271 242.171 120.444 242.253 120.581H242.355V119.357H243.579V127H242.362V125.817H242.253C242.171 125.959 242.048 126.136 241.884 126.351C241.724 126.565 241.496 126.754 241.2 126.918C240.904 127.082 240.512 127.164 240.024 127.164ZM240.229 126.063C240.694 126.063 241.086 125.943 241.405 125.701C241.724 125.455 241.966 125.116 242.13 124.683C242.294 124.25 242.376 123.751 242.376 123.186C242.376 122.62 242.294 122.128 242.13 121.709C241.97 121.285 241.731 120.955 241.412 120.718C241.093 120.481 240.699 120.362 240.229 120.362C239.746 120.362 239.343 120.488 239.02 120.738C238.696 120.984 238.452 121.322 238.288 121.75C238.129 122.174 238.049 122.652 238.049 123.186C238.049 123.719 238.131 124.204 238.295 124.642C238.459 125.075 238.703 125.421 239.026 125.681C239.35 125.936 239.751 126.063 240.229 126.063ZM245.739 127V119.357H246.929V120.533H247.011C247.152 120.146 247.403 119.836 247.763 119.604C248.127 119.367 248.537 119.248 248.993 119.248C249.084 119.248 249.191 119.25 249.314 119.255C249.442 119.259 249.542 119.264 249.615 119.269V120.506C249.579 120.497 249.488 120.483 249.342 120.465C249.196 120.447 249.041 120.438 248.877 120.438C248.512 120.438 248.184 120.515 247.893 120.67C247.605 120.82 247.38 121.03 247.216 121.299C247.052 121.563 246.97 121.868 246.97 122.215V127H245.739ZM253.895 127.164C253.202 127.164 252.593 127 252.069 126.672C251.55 126.344 251.144 125.883 250.853 125.291C250.561 124.699 250.415 124.01 250.415 123.227C250.415 122.429 250.561 121.734 250.853 121.142C251.144 120.545 251.55 120.082 252.069 119.754C252.593 119.426 253.202 119.262 253.895 119.262C254.264 119.262 254.612 119.31 254.94 119.405C255.269 119.501 255.567 119.64 255.836 119.822C256.109 120 256.344 120.221 256.54 120.485C256.736 120.745 256.886 121.041 256.991 121.374L255.809 121.709C255.754 121.513 255.67 121.333 255.556 121.169C255.442 121.005 255.303 120.864 255.139 120.745C254.979 120.622 254.795 120.529 254.585 120.465C254.375 120.396 254.145 120.362 253.895 120.362C253.384 120.362 252.965 120.497 252.637 120.766C252.309 121.03 252.065 121.379 251.905 121.812C251.746 122.244 251.666 122.716 251.666 123.227C251.666 123.728 251.746 124.195 251.905 124.628C252.065 125.056 252.309 125.403 252.637 125.667C252.965 125.931 253.384 126.063 253.895 126.063C254.15 126.063 254.384 126.029 254.599 125.961C254.813 125.893 255.002 125.797 255.166 125.674C255.335 125.546 255.476 125.396 255.59 125.223C255.704 125.049 255.788 124.86 255.843 124.655L257.019 124.99C256.918 125.332 256.768 125.637 256.567 125.906C256.371 126.171 256.137 126.398 255.863 126.59C255.59 126.777 255.287 126.918 254.954 127.014C254.621 127.114 254.268 127.164 253.895 127.164ZM260.013 122.42V127H258.782V116.814H260.013V121.21H259.801C260.033 120.504 260.364 120.002 260.792 119.706C261.225 119.41 261.731 119.262 262.31 119.262C262.825 119.262 263.276 119.369 263.663 119.583C264.055 119.793 264.358 120.112 264.572 120.54C264.791 120.964 264.9 121.499 264.9 122.146V127H263.663V122.249C263.663 121.661 263.508 121.201 263.198 120.868C262.893 120.535 262.474 120.369 261.94 120.369C261.576 120.369 261.248 120.449 260.956 120.608C260.664 120.768 260.434 121 260.266 121.306C260.097 121.611 260.013 121.982 260.013 122.42Z" fill="#9CA3AF"/>
</g>
<rect x="178.942" y="104" width="250" height="36" rx="4" stroke="#E4E4E7"/>
<path d="M33.0576 185C38.0282 185 42.0576 180.971 42.0576 176C42.0576 171.029 38.0282 167 33.0576 167C28.0871 167 24.0576 171.029 24.0576 176C24.0576 180.971 28.0871 185 33.0576 185Z" stroke="#111827" stroke-miterlimit="10" stroke-linecap="round" stroke-dasharray="4 4"/>
<path d="M54.2061 182V170.359H58.5732C59.4587 170.359 60.2061 170.526 60.8154 170.859C61.4248 171.188 61.8857 171.641 62.1982 172.219C62.516 172.797 62.6748 173.458 62.6748 174.203C62.6748 174.948 62.516 175.609 62.1982 176.188C61.8805 176.76 61.4144 177.211 60.7998 177.539C60.1852 177.867 59.43 178.031 58.5342 178.031H55.6045V176.312H58.2842C58.805 176.312 59.2321 176.224 59.5654 176.047C59.904 175.865 60.154 175.615 60.3154 175.297C60.4769 174.974 60.5576 174.609 60.5576 174.203C60.5576 173.786 60.4769 173.422 60.3154 173.109C60.154 172.792 59.904 172.547 59.5654 172.375C59.2269 172.198 58.7972 172.109 58.2764 172.109H56.292V182H54.2061ZM66.417 170.359V182H64.3936V170.359H66.417ZM71.7451 182.164C71.0576 182.164 70.443 181.987 69.9014 181.633C69.3597 181.273 68.9326 180.76 68.6201 180.094C68.3076 179.427 68.1514 178.62 68.1514 177.672C68.1514 176.719 68.3102 175.909 68.6279 175.242C68.9508 174.576 69.3831 174.07 69.9248 173.727C70.4717 173.378 71.0837 173.203 71.7607 173.203C72.2555 173.203 72.667 173.286 72.9951 173.453C73.3232 173.615 73.5863 173.815 73.7842 174.055C73.9873 174.289 74.1436 174.516 74.2529 174.734H74.3389V173.32H76.3467V182H74.3467V180.633H74.2529C74.1436 180.857 73.9847 181.086 73.7764 181.32C73.5732 181.555 73.305 181.755 72.9717 181.922C72.6436 182.083 72.2347 182.164 71.7451 182.164ZM72.2998 180.492C72.7425 180.492 73.1175 180.375 73.4248 180.141C73.7373 179.901 73.9743 179.57 74.1357 179.148C74.2972 178.721 74.3779 178.227 74.3779 177.664C74.3779 177.102 74.2972 176.612 74.1357 176.195C73.9743 175.773 73.7399 175.448 73.4326 175.219C73.1253 174.984 72.7477 174.867 72.2998 174.867C71.8519 174.867 71.4717 174.987 71.1592 175.227C70.8519 175.466 70.6175 175.797 70.4561 176.219C70.2998 176.635 70.2217 177.117 70.2217 177.664C70.2217 178.211 70.2998 178.698 70.4561 179.125C70.6175 179.552 70.8519 179.888 71.1592 180.133C71.4717 180.372 71.8519 180.492 72.2998 180.492ZM77.7607 182L81.1592 176.789L81.1514 178.297L77.9404 173.32H80.167L81.0498 174.781C81.305 175.219 81.5342 175.643 81.7373 176.055C81.9404 176.461 82.1462 176.859 82.3545 177.25H81.5342C81.7477 176.865 81.9508 176.466 82.1436 176.055C82.3415 175.643 82.5706 175.219 82.8311 174.781L83.7451 173.32H85.9326L82.6748 178.336V176.844L86.0654 182H83.8467L82.7842 180.281C82.5238 179.854 82.292 179.438 82.0889 179.031C81.8857 178.625 81.68 178.234 81.4717 177.859H82.292C82.0889 178.234 81.891 178.625 81.6982 179.031C81.5107 179.438 81.2868 179.854 81.0264 180.281L79.9639 182H77.7607ZM90.9404 182.18C90.0967 182.18 89.3623 181.992 88.7373 181.617C88.1123 181.242 87.6279 180.719 87.2842 180.047C86.9456 179.375 86.7764 178.594 86.7764 177.703C86.7764 176.802 86.9456 176.016 87.2842 175.344C87.6279 174.667 88.1123 174.141 88.7373 173.766C89.3623 173.391 90.0967 173.203 90.9404 173.203C91.7842 173.203 92.5186 173.391 93.1436 173.766C93.7686 174.141 94.2503 174.667 94.5889 175.344C94.9326 176.016 95.1045 176.802 95.1045 177.703C95.1045 178.594 94.9326 179.375 94.5889 180.047C94.2503 180.719 93.7686 181.242 93.1436 181.617C92.5186 181.992 91.7842 182.18 90.9404 182.18ZM90.9404 180.531C91.4092 180.531 91.7998 180.406 92.1123 180.156C92.4248 179.901 92.6592 179.56 92.8154 179.133C92.9717 178.706 93.0498 178.227 93.0498 177.695C93.0498 177.159 92.9717 176.677 92.8154 176.25C92.6592 175.818 92.4248 175.477 92.1123 175.227C91.7998 174.977 91.4092 174.852 90.9404 174.852C90.4717 174.852 90.0811 174.977 89.7686 175.227C89.4613 175.477 89.2295 175.815 89.0732 176.242C88.917 176.669 88.8389 177.154 88.8389 177.695C88.8389 178.227 88.917 178.706 89.0732 179.133C89.2295 179.56 89.4613 179.901 89.7686 180.156C90.0811 180.406 90.4717 180.531 90.9404 180.531ZM98.8545 176.938V182H96.8311V173.32H98.7607L98.7842 175.469H98.5967C98.8415 174.719 99.2008 174.154 99.6748 173.773C100.154 173.393 100.75 173.203 101.464 173.203C102.058 173.203 102.578 173.331 103.026 173.586C103.474 173.841 103.821 174.214 104.065 174.703C104.315 175.193 104.44 175.789 104.44 176.492V182H102.417V176.805C102.417 176.216 102.266 175.758 101.964 175.43C101.662 175.096 101.245 174.93 100.714 174.93C100.354 174.93 100.034 175.008 99.7529 175.164C99.4769 175.32 99.2581 175.547 99.0967 175.844C98.9352 176.141 98.8545 176.505 98.8545 176.938ZM106.55 182V173.32H108.573V182H106.55ZM107.558 172.086C107.235 172.086 106.956 171.977 106.722 171.758C106.493 171.539 106.378 171.276 106.378 170.969C106.378 170.656 106.493 170.393 106.722 170.18C106.956 169.966 107.235 169.859 107.558 169.859C107.886 169.859 108.164 169.966 108.394 170.18C108.628 170.393 108.745 170.656 108.745 170.969C108.745 171.276 108.628 171.539 108.394 171.758C108.164 171.977 107.886 172.086 107.558 172.086ZM114.464 182.18C113.62 182.18 112.886 181.992 112.261 181.617C111.641 181.242 111.159 180.719 110.815 180.047C110.477 179.37 110.308 178.589 110.308 177.703C110.308 176.802 110.477 176.016 110.815 175.344C111.159 174.667 111.641 174.141 112.261 173.766C112.886 173.391 113.62 173.203 114.464 173.203C114.953 173.203 115.407 173.268 115.823 173.398C116.245 173.523 116.62 173.708 116.948 173.953C117.276 174.193 117.55 174.484 117.769 174.828C117.987 175.172 118.141 175.557 118.229 175.984L116.323 176.344C116.271 176.115 116.19 175.909 116.081 175.727C115.977 175.544 115.847 175.388 115.69 175.258C115.534 175.128 115.354 175.029 115.151 174.961C114.948 174.888 114.724 174.852 114.479 174.852C114.011 174.852 113.62 174.977 113.308 175.227C112.995 175.471 112.761 175.807 112.604 176.234C112.448 176.661 112.37 177.148 112.37 177.695C112.37 178.232 112.448 178.714 112.604 179.141C112.761 179.568 112.995 179.906 113.308 180.156C113.62 180.406 114.011 180.531 114.479 180.531C114.729 180.531 114.956 180.495 115.159 180.422C115.368 180.349 115.55 180.245 115.706 180.109C115.868 179.974 116 179.81 116.104 179.617C116.214 179.424 116.295 179.214 116.347 178.984L118.245 179.336C118.162 179.773 118.011 180.167 117.792 180.516C117.573 180.865 117.297 181.164 116.964 181.414C116.636 181.659 116.261 181.849 115.839 181.984C115.417 182.115 114.959 182.18 114.464 182.18Z" fill="#111827"/>
<path d="M129.074 181.089C128.819 181.089 128.6 181 128.418 180.822C128.24 180.64 128.151 180.421 128.151 180.166C128.151 179.911 128.24 179.694 128.418 179.517C128.6 179.334 128.819 179.243 129.074 179.243C129.329 179.243 129.546 179.334 129.724 179.517C129.906 179.694 129.997 179.911 129.997 180.166C129.997 180.421 129.906 180.64 129.724 180.822C129.546 181 129.329 181.089 129.074 181.089ZM135.384 181L139.082 170.814H140.586L144.332 181H142.965L140.805 174.957C140.673 174.583 140.518 174.118 140.34 173.562C140.167 173.002 139.955 172.289 139.704 171.423H139.95C139.704 172.298 139.49 173.02 139.308 173.59C139.13 174.155 138.982 174.611 138.863 174.957L136.765 181H135.384ZM137.243 178.156V177.021H142.473V178.156H137.243ZM147.032 181L144.257 170.814H145.583L147.196 177.062C147.283 177.395 147.365 177.735 147.442 178.081C147.52 178.423 147.595 178.771 147.668 179.127C147.741 179.478 147.809 179.84 147.873 180.214H147.716C147.784 179.84 147.855 179.478 147.928 179.127C148.001 178.771 148.078 178.423 148.16 178.081C148.242 177.735 148.326 177.395 148.413 177.062L150.061 170.814H151.537L153.171 177.062C153.262 177.395 153.346 177.735 153.424 178.081C153.506 178.423 153.586 178.771 153.663 179.127C153.741 179.478 153.813 179.84 153.882 180.214H153.704C153.772 179.84 153.843 179.478 153.916 179.127C153.989 178.771 154.066 178.423 154.148 178.081C154.23 177.735 154.312 177.395 154.395 177.062L156.001 170.814H157.341L154.552 181H153.041L151.291 174.547C151.177 174.128 151.068 173.672 150.963 173.18C150.858 172.683 150.756 172.111 150.655 171.464H150.929C150.828 172.075 150.73 172.621 150.635 173.104C150.539 173.583 150.425 174.064 150.293 174.547L148.55 181H147.032ZM162.188 181.178C161.454 181.178 160.816 181.059 160.273 180.822C159.736 180.585 159.314 180.255 159.009 179.831C158.703 179.403 158.53 178.904 158.489 178.334H159.822C159.859 178.717 159.989 179.034 160.212 179.284C160.435 179.53 160.72 179.715 161.066 179.838C161.417 179.956 161.791 180.016 162.188 180.016C162.648 180.016 163.06 179.94 163.425 179.79C163.794 179.64 164.086 179.428 164.3 179.154C164.514 178.881 164.621 178.564 164.621 178.204C164.621 177.876 164.528 177.609 164.341 177.404C164.159 177.199 163.915 177.031 163.609 176.898C163.304 176.766 162.969 176.65 162.604 176.55L161.374 176.201C160.554 175.969 159.916 175.636 159.46 175.203C159.004 174.77 158.776 174.216 158.776 173.542C158.776 172.968 158.931 172.466 159.241 172.038C159.551 171.605 159.97 171.27 160.499 171.033C161.028 170.796 161.62 170.678 162.276 170.678C162.946 170.678 163.539 170.796 164.054 171.033C164.569 171.27 164.974 171.594 165.271 172.004C165.571 172.41 165.731 172.87 165.749 173.385H164.478C164.418 172.888 164.181 172.505 163.767 172.236C163.352 171.963 162.841 171.826 162.235 171.826C161.798 171.826 161.413 171.899 161.08 172.045C160.752 172.186 160.497 172.382 160.314 172.633C160.132 172.879 160.041 173.161 160.041 173.48C160.041 173.836 160.15 174.123 160.369 174.342C160.592 174.556 160.854 174.725 161.155 174.848C161.461 174.966 161.736 175.06 161.982 175.128L163.001 175.408C163.274 175.481 163.575 175.581 163.903 175.709C164.236 175.837 164.553 176.007 164.854 176.222C165.154 176.431 165.4 176.7 165.592 177.028C165.788 177.352 165.886 177.751 165.886 178.225C165.886 178.781 165.74 179.282 165.448 179.729C165.161 180.175 164.742 180.528 164.19 180.788C163.639 181.048 162.971 181.178 162.188 181.178ZM167.554 183.454L168.155 179.578H169.563L168.497 183.454H167.554ZM177.179 170.814V181H175.88V170.814H177.179ZM180.72 176.42V181H179.489V173.357H180.672L180.679 175.21H180.508C180.74 174.504 181.071 174.002 181.499 173.706C181.932 173.41 182.438 173.262 183.017 173.262C183.532 173.262 183.983 173.369 184.37 173.583C184.757 173.793 185.058 174.112 185.272 174.54C185.491 174.964 185.601 175.499 185.601 176.146V181H184.37V176.249C184.37 175.661 184.215 175.201 183.905 174.868C183.6 174.535 183.181 174.369 182.647 174.369C182.283 174.369 181.955 174.449 181.663 174.608C181.371 174.768 181.141 175 180.973 175.306C180.804 175.611 180.72 175.982 180.72 176.42ZM190.625 181.164C189.992 181.164 189.431 181.002 188.943 180.679C188.456 180.355 188.075 179.897 187.802 179.305C187.528 178.712 187.392 178.01 187.392 177.199C187.392 176.393 187.528 175.695 187.802 175.107C188.08 174.515 188.463 174.059 188.95 173.74C189.438 173.421 189.998 173.262 190.632 173.262C191.129 173.262 191.523 173.344 191.814 173.508C192.106 173.672 192.329 173.859 192.484 174.068C192.644 174.273 192.765 174.444 192.847 174.581H192.942V170.814H194.173V181H192.983V179.817H192.847C192.765 179.959 192.642 180.136 192.478 180.351C192.318 180.56 192.09 180.749 191.794 180.918C191.502 181.082 191.113 181.164 190.625 181.164ZM190.81 180.063C191.274 180.063 191.666 179.943 191.985 179.701C192.304 179.455 192.546 179.116 192.71 178.683C192.874 178.25 192.956 177.751 192.956 177.186C192.956 176.62 192.874 176.128 192.71 175.709C192.55 175.285 192.311 174.955 191.992 174.718C191.673 174.481 191.279 174.362 190.81 174.362C190.326 174.362 189.923 174.488 189.6 174.738C189.281 174.989 189.041 175.328 188.882 175.757C188.722 176.181 188.643 176.657 188.643 177.186C188.643 177.719 188.722 178.204 188.882 178.642C189.046 179.075 189.29 179.421 189.613 179.681C189.937 179.936 190.336 180.063 190.81 180.063ZM196.333 181V173.357H197.563V181H196.333ZM196.955 172.106C196.723 172.106 196.522 172.027 196.354 171.867C196.185 171.708 196.101 171.516 196.101 171.293C196.101 171.065 196.185 170.874 196.354 170.719C196.522 170.559 196.723 170.479 196.955 170.479C197.192 170.479 197.395 170.559 197.563 170.719C197.732 170.874 197.816 171.065 197.816 171.293C197.816 171.516 197.732 171.708 197.563 171.867C197.395 172.027 197.192 172.106 196.955 172.106ZM202.581 181.164C201.952 181.164 201.394 181.002 200.906 180.679C200.423 180.355 200.043 179.897 199.765 179.305C199.491 178.712 199.354 178.01 199.354 177.199C199.354 176.393 199.493 175.695 199.771 175.107C200.049 174.515 200.432 174.059 200.92 173.74C201.412 173.421 201.975 173.262 202.608 173.262C203.101 173.262 203.493 173.344 203.784 173.508C204.076 173.667 204.299 173.852 204.454 174.062C204.609 174.271 204.728 174.444 204.81 174.581H204.912V173.357H206.136V181H204.919V179.817H204.81C204.728 179.959 204.604 180.136 204.44 180.351C204.281 180.565 204.053 180.754 203.757 180.918C203.461 181.082 203.069 181.164 202.581 181.164ZM202.786 180.063C203.251 180.063 203.643 179.943 203.962 179.701C204.281 179.455 204.522 179.116 204.687 178.683C204.851 178.25 204.933 177.751 204.933 177.186C204.933 176.62 204.851 176.128 204.687 175.709C204.527 175.285 204.288 174.955 203.969 174.718C203.65 174.481 203.256 174.362 202.786 174.362C202.303 174.362 201.9 174.488 201.576 174.738C201.253 174.984 201.009 175.322 200.845 175.75C200.685 176.174 200.605 176.652 200.605 177.186C200.605 177.719 200.688 178.204 200.852 178.642C201.016 179.075 201.259 179.421 201.583 179.681C201.907 179.936 202.308 180.063 202.786 180.063Z" fill="#111827"/>
<rect x="404.942" y="168" width="16" height="16" rx="8" fill="white"/>
<rect x="404.942" y="168" width="16" height="16" rx="8" stroke="#E4E4E7"/>
<path d="M33.0576 241C38.0282 241 42.0576 236.971 42.0576 232C42.0576 227.029 38.0282 223 33.0576 223C28.0871 223 24.0576 227.029 24.0576 232C24.0576 236.971 28.0871 241 33.0576 241Z" stroke="#111827" stroke-miterlimit="10" stroke-linecap="round" stroke-dasharray="4 4"/>
<path d="M54.2061 238V226.359H58.5732C59.4587 226.359 60.2061 226.526 60.8154 226.859C61.4248 227.188 61.8857 227.641 62.1982 228.219C62.516 228.797 62.6748 229.458 62.6748 230.203C62.6748 230.948 62.516 231.609 62.1982 232.188C61.8805 232.76 61.4144 233.211 60.7998 233.539C60.1852 233.867 59.43 234.031 58.5342 234.031H55.6045V232.312H58.2842C58.805 232.312 59.2321 232.224 59.5654 232.047C59.904 231.865 60.154 231.615 60.3154 231.297C60.4769 230.974 60.5576 230.609 60.5576 230.203C60.5576 229.786 60.4769 229.422 60.3154 229.109C60.154 228.792 59.904 228.547 59.5654 228.375C59.2269 228.198 58.7972 228.109 58.2764 228.109H56.292V238H54.2061ZM66.417 226.359V238H64.3936V226.359H66.417ZM71.7451 238.164C71.0576 238.164 70.443 237.987 69.9014 237.633C69.3597 237.273 68.9326 236.76 68.6201 236.094C68.3076 235.427 68.1514 234.62 68.1514 233.672C68.1514 232.719 68.3102 231.909 68.6279 231.242C68.9508 230.576 69.3831 230.07 69.9248 229.727C70.4717 229.378 71.0837 229.203 71.7607 229.203C72.2555 229.203 72.667 229.286 72.9951 229.453C73.3232 229.615 73.5863 229.815 73.7842 230.055C73.9873 230.289 74.1436 230.516 74.2529 230.734H74.3389V229.32H76.3467V238H74.3467V236.633H74.2529C74.1436 236.857 73.9847 237.086 73.7764 237.32C73.5732 237.555 73.305 237.755 72.9717 237.922C72.6436 238.083 72.2347 238.164 71.7451 238.164ZM72.2998 236.492C72.7425 236.492 73.1175 236.375 73.4248 236.141C73.7373 235.901 73.9743 235.57 74.1357 235.148C74.2972 234.721 74.3779 234.227 74.3779 233.664C74.3779 233.102 74.2972 232.612 74.1357 232.195C73.9743 231.773 73.7399 231.448 73.4326 231.219C73.1253 230.984 72.7477 230.867 72.2998 230.867C71.8519 230.867 71.4717 230.987 71.1592 231.227C70.8519 231.466 70.6175 231.797 70.4561 232.219C70.2998 232.635 70.2217 233.117 70.2217 233.664C70.2217 234.211 70.2998 234.698 70.4561 235.125C70.6175 235.552 70.8519 235.888 71.1592 236.133C71.4717 236.372 71.8519 236.492 72.2998 236.492ZM77.7607 238L81.1592 232.789L81.1514 234.297L77.9404 229.32H80.167L81.0498 230.781C81.305 231.219 81.5342 231.643 81.7373 232.055C81.9404 232.461 82.1462 232.859 82.3545 233.25H81.5342C81.7477 232.865 81.9508 232.466 82.1436 232.055C82.3415 231.643 82.5706 231.219 82.8311 230.781L83.7451 229.32H85.9326L82.6748 234.336V232.844L86.0654 238H83.8467L82.7842 236.281C82.5238 235.854 82.292 235.438 82.0889 235.031C81.8857 234.625 81.68 234.234 81.4717 233.859H82.292C82.0889 234.234 81.891 234.625 81.6982 235.031C81.5107 235.438 81.2868 235.854 81.0264 236.281L79.9639 238H77.7607ZM90.9404 238.18C90.0967 238.18 89.3623 237.992 88.7373 237.617C88.1123 237.242 87.6279 236.719 87.2842 236.047C86.9456 235.375 86.7764 234.594 86.7764 233.703C86.7764 232.802 86.9456 232.016 87.2842 231.344C87.6279 230.667 88.1123 230.141 88.7373 229.766C89.3623 229.391 90.0967 229.203 90.9404 229.203C91.7842 229.203 92.5186 229.391 93.1436 229.766C93.7686 230.141 94.2503 230.667 94.5889 231.344C94.9326 232.016 95.1045 232.802 95.1045 233.703C95.1045 234.594 94.9326 235.375 94.5889 236.047C94.2503 236.719 93.7686 237.242 93.1436 237.617C92.5186 237.992 91.7842 238.18 90.9404 238.18ZM90.9404 236.531C91.4092 236.531 91.7998 236.406 92.1123 236.156C92.4248 235.901 92.6592 235.56 92.8154 235.133C92.9717 234.706 93.0498 234.227 93.0498 233.695C93.0498 233.159 92.9717 232.677 92.8154 232.25C92.6592 231.818 92.4248 231.477 92.1123 231.227C91.7998 230.977 91.4092 230.852 90.9404 230.852C90.4717 230.852 90.0811 230.977 89.7686 231.227C89.4613 231.477 89.2295 231.815 89.0732 232.242C88.917 232.669 88.8389 233.154 88.8389 233.695C88.8389 234.227 88.917 234.706 89.0732 235.133C89.2295 235.56 89.4613 235.901 89.7686 236.156C90.0811 236.406 90.4717 236.531 90.9404 236.531ZM98.8545 232.938V238H96.8311V229.32H98.7607L98.7842 231.469H98.5967C98.8415 230.719 99.2008 230.154 99.6748 229.773C100.154 229.393 100.75 229.203 101.464 229.203C102.058 229.203 102.578 229.331 103.026 229.586C103.474 229.841 103.821 230.214 104.065 230.703C104.315 231.193 104.44 231.789 104.44 232.492V238H102.417V232.805C102.417 232.216 102.266 231.758 101.964 231.43C101.662 231.096 101.245 230.93 100.714 230.93C100.354 230.93 100.034 231.008 99.7529 231.164C99.4769 231.32 99.2581 231.547 99.0967 231.844C98.9352 232.141 98.8545 232.505 98.8545 232.938ZM106.55 238V229.32H108.573V238H106.55ZM107.558 228.086C107.235 228.086 106.956 227.977 106.722 227.758C106.493 227.539 106.378 227.276 106.378 226.969C106.378 226.656 106.493 226.393 106.722 226.18C106.956 225.966 107.235 225.859 107.558 225.859C107.886 225.859 108.164 225.966 108.394 226.18C108.628 226.393 108.745 226.656 108.745 226.969C108.745 227.276 108.628 227.539 108.394 227.758C108.164 227.977 107.886 228.086 107.558 228.086ZM114.464 238.18C113.62 238.18 112.886 237.992 112.261 237.617C111.641 237.242 111.159 236.719 110.815 236.047C110.477 235.37 110.308 234.589 110.308 233.703C110.308 232.802 110.477 232.016 110.815 231.344C111.159 230.667 111.641 230.141 112.261 229.766C112.886 229.391 113.62 229.203 114.464 229.203C114.953 229.203 115.407 229.268 115.823 229.398C116.245 229.523 116.62 229.708 116.948 229.953C117.276 230.193 117.55 230.484 117.769 230.828C117.987 231.172 118.141 231.557 118.229 231.984L116.323 232.344C116.271 232.115 116.19 231.909 116.081 231.727C115.977 231.544 115.847 231.388 115.69 231.258C115.534 231.128 115.354 231.029 115.151 230.961C114.948 230.888 114.724 230.852 114.479 230.852C114.011 230.852 113.62 230.977 113.308 231.227C112.995 231.471 112.761 231.807 112.604 232.234C112.448 232.661 112.37 233.148 112.37 233.695C112.37 234.232 112.448 234.714 112.604 235.141C112.761 235.568 112.995 235.906 113.308 236.156C113.62 236.406 114.011 236.531 114.479 236.531C114.729 236.531 114.956 236.495 115.159 236.422C115.368 236.349 115.55 236.245 115.706 236.109C115.868 235.974 116 235.81 116.104 235.617C116.214 235.424 116.295 235.214 116.347 234.984L118.245 235.336C118.162 235.773 118.011 236.167 117.792 236.516C117.573 236.865 117.297 237.164 116.964 237.414C116.636 237.659 116.261 237.849 115.839 237.984C115.417 238.115 114.959 238.18 114.464 238.18Z" fill="#111827"/>
<path d="M129.074 237.089C128.819 237.089 128.6 237 128.418 236.822C128.24 236.64 128.151 236.421 128.151 236.166C128.151 235.911 128.24 235.694 128.418 235.517C128.6 235.334 128.819 235.243 129.074 235.243C129.329 235.243 129.546 235.334 129.724 235.517C129.906 235.694 129.997 235.911 129.997 236.166C129.997 236.421 129.906 236.64 129.724 236.822C129.546 237 129.329 237.089 129.074 237.089ZM135.384 237L139.082 226.814H140.586L144.332 237H142.965L140.805 230.957C140.673 230.583 140.518 230.118 140.34 229.562C140.167 229.002 139.955 228.289 139.704 227.423H139.95C139.704 228.298 139.49 229.02 139.308 229.59C139.13 230.155 138.982 230.611 138.863 230.957L136.765 237H135.384ZM137.243 234.156V233.021H142.473V234.156H137.243ZM147.032 237L144.257 226.814H145.583L147.196 233.062C147.283 233.395 147.365 233.735 147.442 234.081C147.52 234.423 147.595 234.771 147.668 235.127C147.741 235.478 147.809 235.84 147.873 236.214H147.716C147.784 235.84 147.855 235.478 147.928 235.127C148.001 234.771 148.078 234.423 148.16 234.081C148.242 233.735 148.326 233.395 148.413 233.062L150.061 226.814H151.537L153.171 233.062C153.262 233.395 153.346 233.735 153.424 234.081C153.506 234.423 153.586 234.771 153.663 235.127C153.741 235.478 153.813 235.84 153.882 236.214H153.704C153.772 235.84 153.843 235.478 153.916 235.127C153.989 234.771 154.066 234.423 154.148 234.081C154.23 233.735 154.312 233.395 154.395 233.062L156.001 226.814H157.341L154.552 237H153.041L151.291 230.547C151.177 230.128 151.068 229.672 150.963 229.18C150.858 228.683 150.756 228.111 150.655 227.464H150.929C150.828 228.075 150.73 228.621 150.635 229.104C150.539 229.583 150.425 230.064 150.293 230.547L148.55 237H147.032ZM162.188 237.178C161.454 237.178 160.816 237.059 160.273 236.822C159.736 236.585 159.314 236.255 159.009 235.831C158.703 235.403 158.53 234.904 158.489 234.334H159.822C159.859 234.717 159.989 235.034 160.212 235.284C160.435 235.53 160.72 235.715 161.066 235.838C161.417 235.956 161.791 236.016 162.188 236.016C162.648 236.016 163.06 235.94 163.425 235.79C163.794 235.64 164.086 235.428 164.3 235.154C164.514 234.881 164.621 234.564 164.621 234.204C164.621 233.876 164.528 233.609 164.341 233.404C164.159 233.199 163.915 233.031 163.609 232.898C163.304 232.766 162.969 232.65 162.604 232.55L161.374 232.201C160.554 231.969 159.916 231.636 159.46 231.203C159.004 230.77 158.776 230.216 158.776 229.542C158.776 228.968 158.931 228.466 159.241 228.038C159.551 227.605 159.97 227.27 160.499 227.033C161.028 226.796 161.62 226.678 162.276 226.678C162.946 226.678 163.539 226.796 164.054 227.033C164.569 227.27 164.974 227.594 165.271 228.004C165.571 228.41 165.731 228.87 165.749 229.385H164.478C164.418 228.888 164.181 228.505 163.767 228.236C163.352 227.963 162.841 227.826 162.235 227.826C161.798 227.826 161.413 227.899 161.08 228.045C160.752 228.186 160.497 228.382 160.314 228.633C160.132 228.879 160.041 229.161 160.041 229.48C160.041 229.836 160.15 230.123 160.369 230.342C160.592 230.556 160.854 230.725 161.155 230.848C161.461 230.966 161.736 231.06 161.982 231.128L163.001 231.408C163.274 231.481 163.575 231.581 163.903 231.709C164.236 231.837 164.553 232.007 164.854 232.222C165.154 232.431 165.4 232.7 165.592 233.028C165.788 233.352 165.886 233.751 165.886 234.225C165.886 234.781 165.74 235.282 165.448 235.729C165.161 236.175 164.742 236.528 164.19 236.788C163.639 237.048 162.971 237.178 162.188 237.178ZM167.554 239.454L168.155 235.578H169.563L168.497 239.454H167.554ZM177.179 226.814V237H175.88V226.814H177.179ZM180.72 232.42V237H179.489V229.357H180.672L180.679 231.21H180.508C180.74 230.504 181.071 230.002 181.499 229.706C181.932 229.41 182.438 229.262 183.017 229.262C183.532 229.262 183.983 229.369 184.37 229.583C184.757 229.793 185.058 230.112 185.272 230.54C185.491 230.964 185.601 231.499 185.601 232.146V237H184.37V232.249C184.37 231.661 184.215 231.201 183.905 230.868C183.6 230.535 183.181 230.369 182.647 230.369C182.283 230.369 181.955 230.449 181.663 230.608C181.371 230.768 181.141 231 180.973 231.306C180.804 231.611 180.72 231.982 180.72 232.42ZM190.625 237.164C189.992 237.164 189.431 237.002 188.943 236.679C188.456 236.355 188.075 235.897 187.802 235.305C187.528 234.712 187.392 234.01 187.392 233.199C187.392 232.393 187.528 231.695 187.802 231.107C188.08 230.515 188.463 230.059 188.95 229.74C189.438 229.421 189.998 229.262 190.632 229.262C191.129 229.262 191.523 229.344 191.814 229.508C192.106 229.672 192.329 229.859 192.484 230.068C192.644 230.273 192.765 230.444 192.847 230.581H192.942V226.814H194.173V237H192.983V235.817H192.847C192.765 235.959 192.642 236.136 192.478 236.351C192.318 236.56 192.09 236.749 191.794 236.918C191.502 237.082 191.113 237.164 190.625 237.164ZM190.81 236.063C191.274 236.063 191.666 235.943 191.985 235.701C192.304 235.455 192.546 235.116 192.71 234.683C192.874 234.25 192.956 233.751 192.956 233.186C192.956 232.62 192.874 232.128 192.71 231.709C192.55 231.285 192.311 230.955 191.992 230.718C191.673 230.481 191.279 230.362 190.81 230.362C190.326 230.362 189.923 230.488 189.6 230.738C189.281 230.989 189.041 231.328 188.882 231.757C188.722 232.181 188.643 232.657 188.643 233.186C188.643 233.719 188.722 234.204 188.882 234.642C189.046 235.075 189.29 235.421 189.613 235.681C189.937 235.936 190.336 236.063 190.81 236.063ZM196.333 237V229.357H197.563V237H196.333ZM196.955 228.106C196.723 228.106 196.522 228.027 196.354 227.867C196.185 227.708 196.101 227.516 196.101 227.293C196.101 227.065 196.185 226.874 196.354 226.719C196.522 226.559 196.723 226.479 196.955 226.479C197.192 226.479 197.395 226.559 197.563 226.719C197.732 226.874 197.816 227.065 197.816 227.293C197.816 227.516 197.732 227.708 197.563 227.867C197.395 228.027 197.192 228.106 196.955 228.106ZM202.581 237.164C201.952 237.164 201.394 237.002 200.906 236.679C200.423 236.355 200.043 235.897 199.765 235.305C199.491 234.712 199.354 234.01 199.354 233.199C199.354 232.393 199.493 231.695 199.771 231.107C200.049 230.515 200.432 230.059 200.92 229.74C201.412 229.421 201.975 229.262 202.608 229.262C203.101 229.262 203.493 229.344 203.784 229.508C204.076 229.667 204.299 229.852 204.454 230.062C204.609 230.271 204.728 230.444 204.81 230.581H204.912V229.357H206.136V237H204.919V235.817H204.81C204.728 235.959 204.604 236.136 204.44 236.351C204.281 236.565 204.053 236.754 203.757 236.918C203.461 237.082 203.069 237.164 202.581 237.164ZM202.786 236.063C203.251 236.063 203.643 235.943 203.962 235.701C204.281 235.455 204.522 235.116 204.687 234.683C204.851 234.25 204.933 233.751 204.933 233.186C204.933 232.62 204.851 232.128 204.687 231.709C204.527 231.285 204.288 230.955 203.969 230.718C203.65 230.481 203.256 230.362 202.786 230.362C202.303 230.362 201.9 230.488 201.576 230.738C201.253 230.984 201.009 231.322 200.845 231.75C200.685 232.174 200.605 232.652 200.605 233.186C200.605 233.719 200.688 234.204 200.852 234.642C201.016 235.075 201.259 235.421 201.583 235.681C201.907 235.936 202.308 236.063 202.786 236.063Z" fill="#111827"/>
<rect x="404.942" y="224" width="16" height="16" rx="8" fill="white"/>
<rect x="404.942" y="224" width="16" height="16" rx="8" stroke="#E4E4E7"/>
<path d="M33.0576 297C38.0282 297 42.0576 292.971 42.0576 288C42.0576 283.029 38.0282 279 33.0576 279C28.0871 279 24.0576 283.029 24.0576 288C24.0576 292.971 28.0871 297 33.0576 297Z" stroke="#111827" stroke-miterlimit="10" stroke-linecap="round" stroke-dasharray="4 4"/>
<path d="M54.2061 294V282.359H58.5732C59.4587 282.359 60.2061 282.526 60.8154 282.859C61.4248 283.188 61.8857 283.641 62.1982 284.219C62.516 284.797 62.6748 285.458 62.6748 286.203C62.6748 286.948 62.516 287.609 62.1982 288.188C61.8805 288.76 61.4144 289.211 60.7998 289.539C60.1852 289.867 59.43 290.031 58.5342 290.031H55.6045V288.312H58.2842C58.805 288.312 59.2321 288.224 59.5654 288.047C59.904 287.865 60.154 287.615 60.3154 287.297C60.4769 286.974 60.5576 286.609 60.5576 286.203C60.5576 285.786 60.4769 285.422 60.3154 285.109C60.154 284.792 59.904 284.547 59.5654 284.375C59.2269 284.198 58.7972 284.109 58.2764 284.109H56.292V294H54.2061ZM66.417 282.359V294H64.3936V282.359H66.417ZM71.7451 294.164C71.0576 294.164 70.443 293.987 69.9014 293.633C69.3597 293.273 68.9326 292.76 68.6201 292.094C68.3076 291.427 68.1514 290.62 68.1514 289.672C68.1514 288.719 68.3102 287.909 68.6279 287.242C68.9508 286.576 69.3831 286.07 69.9248 285.727C70.4717 285.378 71.0837 285.203 71.7607 285.203C72.2555 285.203 72.667 285.286 72.9951 285.453C73.3232 285.615 73.5863 285.815 73.7842 286.055C73.9873 286.289 74.1436 286.516 74.2529 286.734H74.3389V285.32H76.3467V294H74.3467V292.633H74.2529C74.1436 292.857 73.9847 293.086 73.7764 293.32C73.5732 293.555 73.305 293.755 72.9717 293.922C72.6436 294.083 72.2347 294.164 71.7451 294.164ZM72.2998 292.492C72.7425 292.492 73.1175 292.375 73.4248 292.141C73.7373 291.901 73.9743 291.57 74.1357 291.148C74.2972 290.721 74.3779 290.227 74.3779 289.664C74.3779 289.102 74.2972 288.612 74.1357 288.195C73.9743 287.773 73.7399 287.448 73.4326 287.219C73.1253 286.984 72.7477 286.867 72.2998 286.867C71.8519 286.867 71.4717 286.987 71.1592 287.227C70.8519 287.466 70.6175 287.797 70.4561 288.219C70.2998 288.635 70.2217 289.117 70.2217 289.664C70.2217 290.211 70.2998 290.698 70.4561 291.125C70.6175 291.552 70.8519 291.888 71.1592 292.133C71.4717 292.372 71.8519 292.492 72.2998 292.492ZM77.7607 294L81.1592 288.789L81.1514 290.297L77.9404 285.32H80.167L81.0498 286.781C81.305 287.219 81.5342 287.643 81.7373 288.055C81.9404 288.461 82.1462 288.859 82.3545 289.25H81.5342C81.7477 288.865 81.9508 288.466 82.1436 288.055C82.3415 287.643 82.5706 287.219 82.8311 286.781L83.7451 285.32H85.9326L82.6748 290.336V288.844L86.0654 294H83.8467L82.7842 292.281C82.5238 291.854 82.292 291.438 82.0889 291.031C81.8857 290.625 81.68 290.234 81.4717 289.859H82.292C82.0889 290.234 81.891 290.625 81.6982 291.031C81.5107 291.438 81.2868 291.854 81.0264 292.281L79.9639 294H77.7607ZM90.9404 294.18C90.0967 294.18 89.3623 293.992 88.7373 293.617C88.1123 293.242 87.6279 292.719 87.2842 292.047C86.9456 291.375 86.7764 290.594 86.7764 289.703C86.7764 288.802 86.9456 288.016 87.2842 287.344C87.6279 286.667 88.1123 286.141 88.7373 285.766C89.3623 285.391 90.0967 285.203 90.9404 285.203C91.7842 285.203 92.5186 285.391 93.1436 285.766C93.7686 286.141 94.2503 286.667 94.5889 287.344C94.9326 288.016 95.1045 288.802 95.1045 289.703C95.1045 290.594 94.9326 291.375 94.5889 292.047C94.2503 292.719 93.7686 293.242 93.1436 293.617C92.5186 293.992 91.7842 294.18 90.9404 294.18ZM90.9404 292.531C91.4092 292.531 91.7998 292.406 92.1123 292.156C92.4248 291.901 92.6592 291.56 92.8154 291.133C92.9717 290.706 93.0498 290.227 93.0498 289.695C93.0498 289.159 92.9717 288.677 92.8154 288.25C92.6592 287.818 92.4248 287.477 92.1123 287.227C91.7998 286.977 91.4092 286.852 90.9404 286.852C90.4717 286.852 90.0811 286.977 89.7686 287.227C89.4613 287.477 89.2295 287.815 89.0732 288.242C88.917 288.669 88.8389 289.154 88.8389 289.695C88.8389 290.227 88.917 290.706 89.0732 291.133C89.2295 291.56 89.4613 291.901 89.7686 292.156C90.0811 292.406 90.4717 292.531 90.9404 292.531ZM98.8545 288.938V294H96.8311V285.32H98.7607L98.7842 287.469H98.5967C98.8415 286.719 99.2008 286.154 99.6748 285.773C100.154 285.393 100.75 285.203 101.464 285.203C102.058 285.203 102.578 285.331 103.026 285.586C103.474 285.841 103.821 286.214 104.065 286.703C104.315 287.193 104.44 287.789 104.44 288.492V294H102.417V288.805C102.417 288.216 102.266 287.758 101.964 287.43C101.662 287.096 101.245 286.93 100.714 286.93C100.354 286.93 100.034 287.008 99.7529 287.164C99.4769 287.32 99.2581 287.547 99.0967 287.844C98.9352 288.141 98.8545 288.505 98.8545 288.938ZM106.55 294V285.32H108.573V294H106.55ZM107.558 284.086C107.235 284.086 106.956 283.977 106.722 283.758C106.493 283.539 106.378 283.276 106.378 282.969C106.378 282.656 106.493 282.393 106.722 282.18C106.956 281.966 107.235 281.859 107.558 281.859C107.886 281.859 108.164 281.966 108.394 282.18C108.628 282.393 108.745 282.656 108.745 282.969C108.745 283.276 108.628 283.539 108.394 283.758C108.164 283.977 107.886 284.086 107.558 284.086ZM114.464 294.18C113.62 294.18 112.886 293.992 112.261 293.617C111.641 293.242 111.159 292.719 110.815 292.047C110.477 291.37 110.308 290.589 110.308 289.703C110.308 288.802 110.477 288.016 110.815 287.344C111.159 286.667 111.641 286.141 112.261 285.766C112.886 285.391 113.62 285.203 114.464 285.203C114.953 285.203 115.407 285.268 115.823 285.398C116.245 285.523 116.62 285.708 116.948 285.953C117.276 286.193 117.55 286.484 117.769 286.828C117.987 287.172 118.141 287.557 118.229 287.984L116.323 288.344C116.271 288.115 116.19 287.909 116.081 287.727C115.977 287.544 115.847 287.388 115.69 287.258C115.534 287.128 115.354 287.029 115.151 286.961C114.948 286.888 114.724 286.852 114.479 286.852C114.011 286.852 113.62 286.977 113.308 287.227C112.995 287.471 112.761 287.807 112.604 288.234C112.448 288.661 112.37 289.148 112.37 289.695C112.37 290.232 112.448 290.714 112.604 291.141C112.761 291.568 112.995 291.906 113.308 292.156C113.62 292.406 114.011 292.531 114.479 292.531C114.729 292.531 114.956 292.495 115.159 292.422C115.368 292.349 115.55 292.245 115.706 292.109C115.868 291.974 116 291.81 116.104 291.617C116.214 291.424 116.295 291.214 116.347 290.984L118.245 291.336C118.162 291.773 118.011 292.167 117.792 292.516C117.573 292.865 117.297 293.164 116.964 293.414C116.636 293.659 116.261 293.849 115.839 293.984C115.417 294.115 114.959 294.18 114.464 294.18Z" fill="#111827"/>
<path d="M129.074 293.089C128.819 293.089 128.6 293 128.418 292.822C128.24 292.64 128.151 292.421 128.151 292.166C128.151 291.911 128.24 291.694 128.418 291.517C128.6 291.334 128.819 291.243 129.074 291.243C129.329 291.243 129.546 291.334 129.724 291.517C129.906 291.694 129.997 291.911 129.997 292.166C129.997 292.421 129.906 292.64 129.724 292.822C129.546 293 129.329 293.089 129.074 293.089ZM135.384 293L139.082 282.814H140.586L144.332 293H142.965L140.805 286.957C140.673 286.583 140.518 286.118 140.34 285.562C140.167 285.002 139.955 284.289 139.704 283.423H139.95C139.704 284.298 139.49 285.02 139.308 285.59C139.13 286.155 138.982 286.611 138.863 286.957L136.765 293H135.384ZM137.243 290.156V289.021H142.473V290.156H137.243ZM147.032 293L144.257 282.814H145.583L147.196 289.062C147.283 289.395 147.365 289.735 147.442 290.081C147.52 290.423 147.595 290.771 147.668 291.127C147.741 291.478 147.809 291.84 147.873 292.214H147.716C147.784 291.84 147.855 291.478 147.928 291.127C148.001 290.771 148.078 290.423 148.16 290.081C148.242 289.735 148.326 289.395 148.413 289.062L150.061 282.814H151.537L153.171 289.062C153.262 289.395 153.346 289.735 153.424 290.081C153.506 290.423 153.586 290.771 153.663 291.127C153.741 291.478 153.813 291.84 153.882 292.214H153.704C153.772 291.84 153.843 291.478 153.916 291.127C153.989 290.771 154.066 290.423 154.148 290.081C154.23 289.735 154.312 289.395 154.395 289.062L156.001 282.814H157.341L154.552 293H153.041L151.291 286.547C151.177 286.128 151.068 285.672 150.963 285.18C150.858 284.683 150.756 284.111 150.655 283.464H150.929C150.828 284.075 150.73 284.621 150.635 285.104C150.539 285.583 150.425 286.064 150.293 286.547L148.55 293H147.032ZM162.188 293.178C161.454 293.178 160.816 293.059 160.273 292.822C159.736 292.585 159.314 292.255 159.009 291.831C158.703 291.403 158.53 290.904 158.489 290.334H159.822C159.859 290.717 159.989 291.034 160.212 291.284C160.435 291.53 160.72 291.715 161.066 291.838C161.417 291.956 161.791 292.016 162.188 292.016C162.648 292.016 163.06 291.94 163.425 291.79C163.794 291.64 164.086 291.428 164.3 291.154C164.514 290.881 164.621 290.564 164.621 290.204C164.621 289.876 164.528 289.609 164.341 289.404C164.159 289.199 163.915 289.031 163.609 288.898C163.304 288.766 162.969 288.65 162.604 288.55L161.374 288.201C160.554 287.969 159.916 287.636 159.46 287.203C159.004 286.77 158.776 286.216 158.776 285.542C158.776 284.968 158.931 284.466 159.241 284.038C159.551 283.605 159.97 283.27 160.499 283.033C161.028 282.796 161.62 282.678 162.276 282.678C162.946 282.678 163.539 282.796 164.054 283.033C164.569 283.27 164.974 283.594 165.271 284.004C165.571 284.41 165.731 284.87 165.749 285.385H164.478C164.418 284.888 164.181 284.505 163.767 284.236C163.352 283.963 162.841 283.826 162.235 283.826C161.798 283.826 161.413 283.899 161.08 284.045C160.752 284.186 160.497 284.382 160.314 284.633C160.132 284.879 160.041 285.161 160.041 285.48C160.041 285.836 160.15 286.123 160.369 286.342C160.592 286.556 160.854 286.725 161.155 286.848C161.461 286.966 161.736 287.06 161.982 287.128L163.001 287.408C163.274 287.481 163.575 287.581 163.903 287.709C164.236 287.837 164.553 288.007 164.854 288.222C165.154 288.431 165.4 288.7 165.592 289.028C165.788 289.352 165.886 289.751 165.886 290.225C165.886 290.781 165.74 291.282 165.448 291.729C165.161 292.175 164.742 292.528 164.19 292.788C163.639 293.048 162.971 293.178 162.188 293.178ZM167.554 295.454L168.155 291.578H169.563L168.497 295.454H167.554ZM177.179 282.814V293H175.88V282.814H177.179ZM180.72 288.42V293H179.489V285.357H180.672L180.679 287.21H180.508C180.74 286.504 181.071 286.002 181.499 285.706C181.932 285.41 182.438 285.262 183.017 285.262C183.532 285.262 183.983 285.369 184.37 285.583C184.757 285.793 185.058 286.112 185.272 286.54C185.491 286.964 185.601 287.499 185.601 288.146V293H184.37V288.249C184.37 287.661 184.215 287.201 183.905 286.868C183.6 286.535 183.181 286.369 182.647 286.369C182.283 286.369 181.955 286.449 181.663 286.608C181.371 286.768 181.141 287 180.973 287.306C180.804 287.611 180.72 287.982 180.72 288.42ZM190.625 293.164C189.992 293.164 189.431 293.002 188.943 292.679C188.456 292.355 188.075 291.897 187.802 291.305C187.528 290.712 187.392 290.01 187.392 289.199C187.392 288.393 187.528 287.695 187.802 287.107C188.08 286.515 188.463 286.059 188.95 285.74C189.438 285.421 189.998 285.262 190.632 285.262C191.129 285.262 191.523 285.344 191.814 285.508C192.106 285.672 192.329 285.859 192.484 286.068C192.644 286.273 192.765 286.444 192.847 286.581H192.942V282.814H194.173V293H192.983V291.817H192.847C192.765 291.959 192.642 292.136 192.478 292.351C192.318 292.56 192.09 292.749 191.794 292.918C191.502 293.082 191.113 293.164 190.625 293.164ZM190.81 292.063C191.274 292.063 191.666 291.943 191.985 291.701C192.304 291.455 192.546 291.116 192.71 290.683C192.874 290.25 192.956 289.751 192.956 289.186C192.956 288.62 192.874 288.128 192.71 287.709C192.55 287.285 192.311 286.955 191.992 286.718C191.673 286.481 191.279 286.362 190.81 286.362C190.326 286.362 189.923 286.488 189.6 286.738C189.281 286.989 189.041 287.328 188.882 287.757C188.722 288.181 188.643 288.657 188.643 289.186C188.643 289.719 188.722 290.204 188.882 290.642C189.046 291.075 189.29 291.421 189.613 291.681C189.937 291.936 190.336 292.063 190.81 292.063ZM196.333 293V285.357H197.563V293H196.333ZM196.955 284.106C196.723 284.106 196.522 284.027 196.354 283.867C196.185 283.708 196.101 283.516 196.101 283.293C196.101 283.065 196.185 282.874 196.354 282.719C196.522 282.559 196.723 282.479 196.955 282.479C197.192 282.479 197.395 282.559 197.563 282.719C197.732 282.874 197.816 283.065 197.816 283.293C197.816 283.516 197.732 283.708 197.563 283.867C197.395 284.027 197.192 284.106 196.955 284.106ZM202.581 293.164C201.952 293.164 201.394 293.002 200.906 292.679C200.423 292.355 200.043 291.897 199.765 291.305C199.491 290.712 199.354 290.01 199.354 289.199C199.354 288.393 199.493 287.695 199.771 287.107C200.049 286.515 200.432 286.059 200.92 285.74C201.412 285.421 201.975 285.262 202.608 285.262C203.101 285.262 203.493 285.344 203.784 285.508C204.076 285.667 204.299 285.852 204.454 286.062C204.609 286.271 204.728 286.444 204.81 286.581H204.912V285.357H206.136V293H204.919V291.817H204.81C204.728 291.959 204.604 292.136 204.44 292.351C204.281 292.565 204.053 292.754 203.757 292.918C203.461 293.082 203.069 293.164 202.581 293.164ZM202.786 292.063C203.251 292.063 203.643 291.943 203.962 291.701C204.281 291.455 204.522 291.116 204.687 290.683C204.851 290.25 204.933 289.751 204.933 289.186C204.933 288.62 204.851 288.128 204.687 287.709C204.527 287.285 204.288 286.955 203.969 286.718C203.65 286.481 203.256 286.362 202.786 286.362C202.303 286.362 201.9 286.488 201.576 286.738C201.253 286.984 201.009 287.322 200.845 287.75C200.685 288.174 200.605 288.652 200.605 289.186C200.605 289.719 200.688 290.204 200.852 290.642C201.016 291.075 201.259 291.421 201.583 291.681C201.907 291.936 202.308 292.063 202.786 292.063Z" fill="#111827"/>
<rect x="404.942" y="280" width="16" height="16" rx="8" fill="white"/>
<rect x="404.942" y="280" width="16" height="16" rx="8" stroke="#E4E4E7"/>
<g filter="url(#filter1_d_3945_119773)">
<path d="M29.5488 341.178C28.8151 341.178 28.1771 341.059 27.6348 340.822C27.097 340.585 26.6755 340.255 26.3701 339.831C26.0648 339.403 25.8916 338.904 25.8506 338.334H27.1836C27.2201 338.717 27.3499 339.034 27.5732 339.284C27.7965 339.53 28.0814 339.715 28.4277 339.838C28.7786 339.956 29.1523 340.016 29.5488 340.016C30.0091 340.016 30.4215 339.94 30.7861 339.79C31.1553 339.64 31.4469 339.428 31.6611 339.154C31.8753 338.881 31.9824 338.564 31.9824 338.204C31.9824 337.876 31.889 337.609 31.7021 337.404C31.5199 337.199 31.276 337.031 30.9707 336.898C30.6654 336.766 30.3304 336.65 29.9658 336.55L28.7354 336.201C27.915 335.969 27.277 335.636 26.8213 335.203C26.3656 334.77 26.1377 334.216 26.1377 333.542C26.1377 332.968 26.2926 332.466 26.6025 332.038C26.9124 331.605 27.3317 331.27 27.8604 331.033C28.389 330.796 28.9814 330.678 29.6377 330.678C30.3076 330.678 30.9001 330.796 31.415 331.033C31.93 331.27 32.3356 331.594 32.6318 332.004C32.9326 332.41 33.0921 332.87 33.1104 333.385H31.8389C31.7796 332.888 31.5426 332.505 31.1279 332.236C30.7132 331.963 30.2028 331.826 29.5967 331.826C29.1592 331.826 28.7741 331.899 28.4414 332.045C28.1133 332.186 27.8581 332.382 27.6758 332.633C27.4935 332.879 27.4023 333.161 27.4023 333.48C27.4023 333.836 27.5117 334.123 27.7305 334.342C27.9538 334.556 28.2158 334.725 28.5166 334.848C28.8219 334.966 29.0977 335.06 29.3438 335.128L30.3623 335.408C30.6357 335.481 30.9365 335.581 31.2646 335.709C31.5973 335.837 31.9141 336.007 32.2148 336.222C32.5156 336.431 32.7617 336.7 32.9531 337.028C33.1491 337.352 33.2471 337.751 33.2471 338.225C33.2471 338.781 33.1012 339.282 32.8096 339.729C32.5225 340.175 32.1032 340.528 31.5518 340.788C31.0003 341.048 30.3327 341.178 29.5488 341.178ZM38.333 341.164C37.5947 341.164 36.9567 341 36.4189 340.672C35.8857 340.344 35.4733 339.886 35.1816 339.298C34.8945 338.71 34.751 338.024 34.751 337.24C34.751 336.456 34.8923 335.766 35.1748 335.169C35.4574 334.572 35.8561 334.105 36.3711 333.768C36.8906 333.43 37.4967 333.262 38.1895 333.262C38.5951 333.262 38.9938 333.33 39.3857 333.467C39.7822 333.599 40.14 333.815 40.459 334.116C40.7826 334.412 41.04 334.804 41.2314 335.292C41.4229 335.78 41.5186 336.377 41.5186 337.083V337.596H35.585V336.557H40.8555L40.2812 336.939C40.2812 336.438 40.2015 335.994 40.042 335.606C39.887 335.215 39.6546 334.909 39.3447 334.69C39.0348 334.467 38.6497 334.355 38.1895 334.355C37.7292 334.355 37.335 334.469 37.0068 334.697C36.6787 334.921 36.4281 335.215 36.2549 335.579C36.0817 335.939 35.9951 336.326 35.9951 336.741V337.432C35.9951 337.997 36.0931 338.478 36.2891 338.874C36.485 339.266 36.7585 339.564 37.1094 339.77C37.4648 339.97 37.875 340.07 38.3398 340.07C38.6406 340.07 38.9141 340.027 39.1602 339.94C39.4062 339.854 39.6182 339.724 39.7959 339.551C39.9736 339.373 40.1104 339.154 40.2061 338.895L41.3955 339.223C41.277 339.605 41.0765 339.943 40.7939 340.234C40.5114 340.526 40.1605 340.754 39.7412 340.918C39.3265 341.082 38.8571 341.164 38.333 341.164ZM46.1396 341.164C45.5107 341.164 44.9525 341.002 44.4648 340.679C43.9818 340.355 43.6012 339.897 43.3232 339.305C43.0498 338.712 42.9131 338.01 42.9131 337.199C42.9131 336.393 43.0521 335.695 43.3301 335.107C43.6081 334.515 43.9909 334.059 44.4785 333.74C44.9707 333.421 45.5335 333.262 46.167 333.262C46.6592 333.262 47.0511 333.344 47.3428 333.508C47.6344 333.667 47.8577 333.852 48.0127 334.062C48.1676 334.271 48.2861 334.444 48.3682 334.581H48.4707V333.357H49.6943V341H48.4775V339.817H48.3682C48.2861 339.959 48.1631 340.136 47.999 340.351C47.8395 340.565 47.6117 340.754 47.3154 340.918C47.0192 341.082 46.6273 341.164 46.1396 341.164ZM46.3447 340.063C46.8096 340.063 47.2015 339.943 47.5205 339.701C47.8395 339.455 48.0811 339.116 48.2451 338.683C48.4092 338.25 48.4912 337.751 48.4912 337.186C48.4912 336.62 48.4092 336.128 48.2451 335.709C48.0856 335.285 47.8464 334.955 47.5273 334.718C47.2083 334.481 46.8141 334.362 46.3447 334.362C45.8617 334.362 45.4583 334.488 45.1348 334.738C44.8112 334.984 44.5674 335.322 44.4033 335.75C44.2438 336.174 44.1641 336.652 44.1641 337.186C44.1641 337.719 44.2461 338.204 44.4102 338.642C44.5742 339.075 44.818 339.421 45.1416 339.681C45.4652 339.936 45.8662 340.063 46.3447 340.063ZM51.8545 341V333.357H53.0439V334.533H53.126C53.2673 334.146 53.5179 333.836 53.8779 333.604C54.2425 333.367 54.6527 333.248 55.1084 333.248C55.1995 333.248 55.3066 333.25 55.4297 333.255C55.5573 333.259 55.6576 333.264 55.7305 333.269V334.506C55.694 334.497 55.6029 334.483 55.457 334.465C55.3112 334.447 55.1562 334.438 54.9922 334.438C54.6276 334.438 54.2995 334.515 54.0078 334.67C53.7207 334.82 53.4951 335.03 53.3311 335.299C53.167 335.563 53.085 335.868 53.085 336.215V341H51.8545ZM60.0098 341.164C59.3171 341.164 58.7087 341 58.1846 340.672C57.665 340.344 57.2594 339.883 56.9678 339.291C56.6761 338.699 56.5303 338.01 56.5303 337.227C56.5303 336.429 56.6761 335.734 56.9678 335.142C57.2594 334.545 57.665 334.082 58.1846 333.754C58.7087 333.426 59.3171 333.262 60.0098 333.262C60.3789 333.262 60.7275 333.31 61.0557 333.405C61.3838 333.501 61.6823 333.64 61.9512 333.822C62.2246 334 62.4593 334.221 62.6553 334.485C62.8512 334.745 63.0016 335.041 63.1064 335.374L61.9238 335.709C61.8691 335.513 61.7848 335.333 61.6709 335.169C61.557 335.005 61.418 334.864 61.2539 334.745C61.0944 334.622 60.9098 334.529 60.7002 334.465C60.4906 334.396 60.2604 334.362 60.0098 334.362C59.4993 334.362 59.0801 334.497 58.752 334.766C58.4238 335.03 58.18 335.379 58.0205 335.812C57.861 336.244 57.7812 336.716 57.7812 337.227C57.7812 337.728 57.861 338.195 58.0205 338.628C58.18 339.056 58.4238 339.403 58.752 339.667C59.0801 339.931 59.4993 340.063 60.0098 340.063C60.265 340.063 60.4997 340.029 60.7139 339.961C60.9281 339.893 61.1172 339.797 61.2812 339.674C61.4499 339.546 61.5911 339.396 61.7051 339.223C61.819 339.049 61.9033 338.86 61.958 338.655L63.1338 338.99C63.0335 339.332 62.8831 339.637 62.6826 339.906C62.4867 340.171 62.252 340.398 61.9785 340.59C61.7051 340.777 61.402 340.918 61.0693 341.014C60.7367 341.114 60.3835 341.164 60.0098 341.164ZM66.1279 336.42V341H64.8975V330.814H66.1279V335.21H65.916C66.1484 334.504 66.4788 334.002 66.9072 333.706C67.3402 333.41 67.846 333.262 68.4248 333.262C68.9398 333.262 69.391 333.369 69.7783 333.583C70.1702 333.793 70.4733 334.112 70.6875 334.54C70.9062 334.964 71.0156 335.499 71.0156 336.146V341H69.7783V336.249C69.7783 335.661 69.6234 335.201 69.3135 334.868C69.0081 334.535 68.5889 334.369 68.0557 334.369C67.6911 334.369 67.363 334.449 67.0713 334.608C66.7796 334.768 66.5495 335 66.3809 335.306C66.2122 335.611 66.1279 335.982 66.1279 336.42ZM80.6748 333.357V334.41H76.1768V333.357H80.6748ZM77.6807 341V332.339C77.6807 331.897 77.7832 331.528 77.9883 331.231C78.1979 330.935 78.4691 330.712 78.8018 330.562C79.1344 330.411 79.4854 330.336 79.8545 330.336C80.1462 330.336 80.3877 330.361 80.5791 330.411C80.7705 330.457 80.9118 330.5 81.0029 330.541L80.6611 331.594C80.5973 331.571 80.513 331.546 80.4082 331.519C80.3079 331.491 80.1712 331.478 79.998 331.478C79.6198 331.478 79.3441 331.576 79.1709 331.771C78.9977 331.963 78.9111 332.243 78.9111 332.612V341H77.6807ZM85.002 341.164C84.3092 341.164 83.7008 341 83.1768 340.672C82.6572 340.344 82.2516 339.883 81.96 339.291C81.6683 338.699 81.5225 338.01 81.5225 337.227C81.5225 336.429 81.6683 335.734 81.96 335.142C82.2516 334.545 82.6572 334.082 83.1768 333.754C83.7008 333.426 84.3092 333.262 85.002 333.262C85.6992 333.262 86.3099 333.426 86.834 333.754C87.3581 334.082 87.766 334.545 88.0576 335.142C88.3493 335.734 88.4951 336.429 88.4951 337.227C88.4951 338.01 88.3493 338.699 88.0576 339.291C87.766 339.883 87.3581 340.344 86.834 340.672C86.3099 341 85.6992 341.164 85.002 341.164ZM85.002 340.063C85.5169 340.063 85.9408 339.931 86.2734 339.667C86.6061 339.403 86.8522 339.056 87.0117 338.628C87.1712 338.195 87.251 337.728 87.251 337.227C87.251 336.721 87.1712 336.251 87.0117 335.818C86.8522 335.381 86.6061 335.03 86.2734 334.766C85.9408 334.497 85.5169 334.362 85.002 334.362C84.4915 334.362 84.0723 334.497 83.7441 334.766C83.416 335.03 83.1722 335.379 83.0127 335.812C82.8532 336.244 82.7734 336.716 82.7734 337.227C82.7734 337.728 82.8532 338.195 83.0127 338.628C83.1722 339.056 83.416 339.403 83.7441 339.667C84.0723 339.931 84.4915 340.063 85.002 340.063ZM90.2861 341V333.357H91.4756V334.533H91.5576C91.6989 334.146 91.9495 333.836 92.3096 333.604C92.6742 333.367 93.0843 333.248 93.54 333.248C93.6312 333.248 93.7383 333.25 93.8613 333.255C93.9889 333.259 94.0892 333.264 94.1621 333.269V334.506C94.1257 334.497 94.0345 334.483 93.8887 334.465C93.7428 334.447 93.5879 334.438 93.4238 334.438C93.0592 334.438 92.7311 334.515 92.4395 334.67C92.1523 334.82 91.9268 335.03 91.7627 335.299C91.5986 335.563 91.5166 335.868 91.5166 336.215V341H90.2861ZM99.501 341V333.357H100.697L100.704 335.066H100.608C100.713 334.652 100.877 334.31 101.101 334.041C101.328 333.768 101.593 333.562 101.894 333.426C102.199 333.289 102.516 333.221 102.844 333.221C103.4 333.221 103.849 333.392 104.19 333.733C104.537 334.075 104.76 334.524 104.86 335.08H104.696C104.787 334.697 104.954 334.367 105.195 334.089C105.437 333.811 105.729 333.597 106.07 333.446C106.417 333.296 106.793 333.221 107.198 333.221C107.64 333.221 108.044 333.316 108.408 333.508C108.773 333.699 109.062 333.989 109.276 334.376C109.495 334.763 109.604 335.253 109.604 335.846V341H108.367V335.88C108.367 335.328 108.212 334.934 107.902 334.697C107.597 334.46 107.239 334.342 106.829 334.342C106.487 334.342 106.191 334.415 105.94 334.561C105.694 334.702 105.503 334.898 105.366 335.148C105.234 335.399 105.168 335.686 105.168 336.01V341H103.938V335.757C103.938 335.333 103.796 334.991 103.514 334.731C103.231 334.472 102.873 334.342 102.44 334.342C102.144 334.342 101.864 334.412 101.6 334.554C101.34 334.69 101.13 334.896 100.971 335.169C100.811 335.442 100.731 335.782 100.731 336.188V341H99.501ZM114.875 341.164C114.182 341.164 113.574 341 113.05 340.672C112.53 340.344 112.125 339.883 111.833 339.291C111.541 338.699 111.396 338.01 111.396 337.227C111.396 336.429 111.541 335.734 111.833 335.142C112.125 334.545 112.53 334.082 113.05 333.754C113.574 333.426 114.182 333.262 114.875 333.262C115.572 333.262 116.183 333.426 116.707 333.754C117.231 334.082 117.639 334.545 117.931 335.142C118.222 335.734 118.368 336.429 118.368 337.227C118.368 338.01 118.222 338.699 117.931 339.291C117.639 339.883 117.231 340.344 116.707 340.672C116.183 341 115.572 341.164 114.875 341.164ZM114.875 340.063C115.39 340.063 115.814 339.931 116.146 339.667C116.479 339.403 116.725 339.056 116.885 338.628C117.044 338.195 117.124 337.728 117.124 337.227C117.124 336.721 117.044 336.251 116.885 335.818C116.725 335.381 116.479 335.03 116.146 334.766C115.814 334.497 115.39 334.362 114.875 334.362C114.365 334.362 113.945 334.497 113.617 334.766C113.289 335.03 113.045 335.379 112.886 335.812C112.726 336.244 112.646 336.716 112.646 337.227C112.646 337.728 112.726 338.195 112.886 338.628C113.045 339.056 113.289 339.403 113.617 339.667C113.945 339.931 114.365 340.063 114.875 340.063ZM120.159 341V333.357H121.349V334.533H121.431C121.572 334.146 121.823 333.836 122.183 333.604C122.547 333.367 122.957 333.248 123.413 333.248C123.504 333.248 123.611 333.25 123.734 333.255C123.862 333.259 123.962 333.264 124.035 333.269V334.506C123.999 334.497 123.908 334.483 123.762 334.465C123.616 334.447 123.461 334.438 123.297 334.438C122.932 334.438 122.604 334.515 122.312 334.67C122.025 334.82 121.8 335.03 121.636 335.299C121.472 335.563 121.39 335.868 121.39 336.215V341H120.159ZM128.417 341.164C127.679 341.164 127.041 341 126.503 340.672C125.97 340.344 125.557 339.886 125.266 339.298C124.979 338.71 124.835 338.024 124.835 337.24C124.835 336.456 124.976 335.766 125.259 335.169C125.541 334.572 125.94 334.105 126.455 333.768C126.975 333.43 127.581 333.262 128.273 333.262C128.679 333.262 129.078 333.33 129.47 333.467C129.866 333.599 130.224 333.815 130.543 334.116C130.867 334.412 131.124 334.804 131.315 335.292C131.507 335.78 131.603 336.377 131.603 337.083V337.596H125.669V336.557H130.939L130.365 336.939C130.365 336.438 130.285 335.994 130.126 335.606C129.971 335.215 129.739 334.909 129.429 334.69C129.119 334.467 128.734 334.355 128.273 334.355C127.813 334.355 127.419 334.469 127.091 334.697C126.763 334.921 126.512 335.215 126.339 335.579C126.166 335.939 126.079 336.326 126.079 336.741V337.432C126.079 337.997 126.177 338.478 126.373 338.874C126.569 339.266 126.842 339.564 127.193 339.77C127.549 339.97 127.959 340.07 128.424 340.07C128.725 340.07 128.998 340.027 129.244 339.94C129.49 339.854 129.702 339.724 129.88 339.551C130.058 339.373 130.194 339.154 130.29 338.895L131.479 339.223C131.361 339.605 131.16 339.943 130.878 340.234C130.595 340.526 130.244 340.754 129.825 340.918C129.41 341.082 128.941 341.164 128.417 341.164ZM134.303 341.089C134.048 341.089 133.829 341 133.646 340.822C133.469 340.64 133.38 340.421 133.38 340.166C133.38 339.911 133.469 339.694 133.646 339.517C133.829 339.334 134.048 339.243 134.303 339.243C134.558 339.243 134.774 339.334 134.952 339.517C135.134 339.694 135.226 339.911 135.226 340.166C135.226 340.421 135.134 340.64 134.952 340.822C134.774 341 134.558 341.089 134.303 341.089ZM138.336 341.089C138.081 341.089 137.862 341 137.68 340.822C137.502 340.64 137.413 340.421 137.413 340.166C137.413 339.911 137.502 339.694 137.68 339.517C137.862 339.334 138.081 339.243 138.336 339.243C138.591 339.243 138.808 339.334 138.985 339.517C139.168 339.694 139.259 339.911 139.259 340.166C139.259 340.421 139.168 340.64 138.985 340.822C138.808 341 138.591 341.089 138.336 341.089ZM142.369 341.089C142.114 341.089 141.895 341 141.713 340.822C141.535 340.64 141.446 340.421 141.446 340.166C141.446 339.911 141.535 339.694 141.713 339.517C141.895 339.334 142.114 339.243 142.369 339.243C142.624 339.243 142.841 339.334 143.019 339.517C143.201 339.694 143.292 339.911 143.292 340.166C143.292 340.421 143.201 340.64 143.019 340.822C142.841 341 142.624 341.089 142.369 341.089Z" fill="#2563EB"/>
</g>
</g>
<rect x="5.05762" y="96" width="431.885" height="268" rx="8" stroke="#F4F4F5"/>
</g>
<defs>
<filter id="filter0_d_3945_119773" x="0.557617" y="92.5" width="440.885" height="277" filterUnits="userSpaceOnUse" color-interpolation-filters="sRGB">
<feFlood flood-opacity="0" result="BackgroundImageFix"/>
<feColorMatrix in="SourceAlpha" type="matrix" values="0 0 0 0 0 0 0 0 0 0 0 0 0 0 0 0 0 0 127 0" result="hardAlpha"/>
<feOffset dy="1"/>
<feGaussianBlur stdDeviation="2"/>
<feComposite in2="hardAlpha" operator="out"/>
<feColorMatrix type="matrix" values="0 0 0 0 0 0 0 0 0 0 0 0 0 0 0 0 0 0 0.05 0"/>
<feBlend mode="normal" in2="BackgroundImageFix" result="effect1_dropShadow_3945_119773"/>
<feBlend mode="normal" in="SourceGraphic" in2="effect1_dropShadow_3945_119773" result="shape"/>
</filter>
<filter id="filter1_d_3945_119773" x="17.0576" y="321" width="136" height="32" filterUnits="userSpaceOnUse" color-interpolation-filters="sRGB">
<feFlood flood-opacity="0" result="BackgroundImageFix"/>
<feColorMatrix in="SourceAlpha" type="matrix" values="0 0 0 0 0 0 0 0 0 0 0 0 0 0 0 0 0 0 127 0" result="hardAlpha"/>
<feOffset dy="1"/>
<feGaussianBlur stdDeviation="2"/>
<feComposite in2="hardAlpha" operator="out"/>
<feColorMatrix type="matrix" values="0 0 0 0 0 0 0 0 0 0 0 0 0 0 0 0 0 0 0.05 0"/>
<feBlend mode="normal" in2="BackgroundImageFix" result="effect1_dropShadow_3945_119773"/>
<feBlend mode="normal" in="SourceGraphic" in2="effect1_dropShadow_3945_119773" result="shape"/>
</filter>
<clipPath id="clip0_3945_119773">
<rect x="5.05762" y="28" width="431.885" height="36" rx="4" fill="white"/>
</clipPath>
<clipPath id="clip1_3945_119773">
<rect x="5.05762" y="96" width="431.885" height="268" rx="8" fill="white"/>
</clipPath>
<clipPath id="clip2_3945_119773">
<rect x="178.942" y="104" width="250" height="36" rx="4" fill="white"/>
</clipPath>
</defs>
</svg>
