<svg width="524" height="370" viewBox="0 0 524 370" fill="none" xmlns="http://www.w3.org/2000/svg">
<path d="M6.12793 17.5V7.31445H9.77832C10.5622 7.31445 11.2161 7.46029 11.7402 7.75195C12.2643 8.04362 12.6562 8.43783 12.916 8.93457C13.1758 9.43132 13.3057 9.99414 13.3057 10.623C13.3057 11.252 13.1735 11.8171 12.9092 12.3184C12.6494 12.8151 12.2575 13.2093 11.7334 13.501C11.2093 13.7881 10.5531 13.9316 9.76465 13.9316H7.26953V12.6123H9.61426C10.1156 12.6123 10.5212 12.5257 10.8311 12.3525C11.141 12.1794 11.3665 11.9424 11.5078 11.6416C11.6536 11.3408 11.7266 11.0013 11.7266 10.623C11.7266 10.2402 11.6536 9.90072 11.5078 9.60449C11.3665 9.30371 11.1387 9.06901 10.8242 8.90039C10.5143 8.73177 10.1064 8.64746 9.60059 8.64746H7.68652V17.5H6.12793ZM14.9941 17.5V9.85742H16.4502V11.0879H16.5322C16.6735 10.6686 16.9196 10.3405 17.2705 10.1035C17.6214 9.86654 18.0202 9.74805 18.4668 9.74805C18.5625 9.74805 18.6719 9.7526 18.7949 9.76172C18.918 9.76628 19.0205 9.77539 19.1025 9.78906V11.2246C19.0479 11.2064 18.943 11.1882 18.7881 11.1699C18.6331 11.1517 18.4759 11.1426 18.3164 11.1426C17.9701 11.1426 17.6579 11.2155 17.3799 11.3613C17.1019 11.5072 16.8854 11.71 16.7305 11.9697C16.5755 12.2249 16.498 12.5212 16.498 12.8584V17.5H14.9941ZM23.3477 17.6572C22.6322 17.6572 22.0055 17.4932 21.4678 17.165C20.9346 16.8369 20.5199 16.3766 20.2236 15.7842C19.9274 15.1917 19.7793 14.5036 19.7793 13.7197C19.7793 12.9268 19.9274 12.234 20.2236 11.6416C20.5199 11.0446 20.9346 10.582 21.4678 10.2539C22.0055 9.92578 22.6322 9.76172 23.3477 9.76172C24.0677 9.76172 24.6943 9.92578 25.2275 10.2539C25.7653 10.582 26.1823 11.0446 26.4785 11.6416C26.7747 12.234 26.9229 12.9268 26.9229 13.7197C26.9229 14.5036 26.7747 15.1917 26.4785 15.7842C26.1823 16.3766 25.7653 16.8369 25.2275 17.165C24.6943 17.4932 24.0677 17.6572 23.3477 17.6572ZM23.3477 16.3857C23.8125 16.3857 24.1953 16.265 24.4961 16.0234C24.8014 15.7773 25.027 15.4538 25.1729 15.0527C25.3232 14.6471 25.3984 14.2028 25.3984 13.7197C25.3984 13.2321 25.3232 12.7855 25.1729 12.3799C25.027 11.9697 24.8014 11.6439 24.4961 11.4023C24.1953 11.1562 23.8125 11.0332 23.3477 11.0332C22.8874 11.0332 22.5068 11.1562 22.2061 11.4023C21.9053 11.6439 21.6797 11.9674 21.5293 12.373C21.3835 12.7786 21.3105 13.2275 21.3105 13.7197C21.3105 14.2028 21.3835 14.6471 21.5293 15.0527C21.6797 15.4538 21.9053 15.7773 22.2061 16.0234C22.5068 16.265 22.8874 16.3857 23.3477 16.3857ZM28.5908 9.85742H30.1016V17.9922C30.1061 18.5117 30.0127 18.9469 29.8213 19.2979C29.6344 19.6488 29.3587 19.9131 28.9941 20.0908C28.6296 20.2686 28.1829 20.3574 27.6543 20.3574H27.3535V19.0654H27.5928C27.9482 19.0654 28.2035 18.972 28.3584 18.7852C28.5133 18.6029 28.5908 18.3363 28.5908 17.9854V9.85742ZM29.3496 8.68848C29.0898 8.68848 28.8665 8.60189 28.6797 8.42871C28.4974 8.25553 28.4062 8.0459 28.4062 7.7998C28.4062 7.54915 28.4974 7.33724 28.6797 7.16406C28.8665 6.99089 29.0898 6.9043 29.3496 6.9043C29.6094 6.9043 29.8327 6.99089 30.0195 7.16406C30.2064 7.33724 30.2998 7.54915 30.2998 7.7998C30.2998 8.0459 30.2064 8.25553 30.0195 8.42871C29.8327 8.60189 29.6094 8.68848 29.3496 8.68848ZM35.4199 17.6572C34.668 17.6572 34.0186 17.4954 33.4717 17.1719C32.9248 16.8483 32.5033 16.3926 32.207 15.8047C31.9154 15.2168 31.7695 14.5264 31.7695 13.7334C31.7695 12.9495 31.9131 12.2591 32.2002 11.6621C32.4919 11.0651 32.902 10.6003 33.4307 10.2676C33.9593 9.93034 34.5791 9.76172 35.29 9.76172C35.7275 9.76172 36.1491 9.83464 36.5547 9.98047C36.9603 10.1217 37.3249 10.3451 37.6484 10.6504C37.972 10.9557 38.2272 11.3522 38.4141 11.8398C38.6055 12.3229 38.7012 12.9108 38.7012 13.6035V14.1367H32.6104V13.0156H37.9287L37.2246 13.3848C37.2246 12.9154 37.1517 12.5029 37.0059 12.1475C36.86 11.7874 36.6436 11.5072 36.3564 11.3066C36.0739 11.1061 35.7184 11.0059 35.29 11.0059C34.8662 11.0059 34.5039 11.1084 34.2031 11.3135C33.9023 11.5186 33.6722 11.7897 33.5127 12.127C33.3577 12.4596 33.2803 12.8242 33.2803 13.2207V13.9863C33.2803 14.5104 33.3691 14.9548 33.5469 15.3193C33.7292 15.6794 33.9821 15.9528 34.3057 16.1396C34.6292 16.3219 35.0052 16.4131 35.4336 16.4131C35.7161 16.4131 35.9714 16.3743 36.1992 16.2969C36.4271 16.2148 36.623 16.0941 36.7871 15.9346C36.9557 15.7705 37.0833 15.57 37.1699 15.333L38.585 15.668C38.4619 16.0599 38.2546 16.4062 37.9629 16.707C37.6758 17.0078 37.3158 17.2425 36.8828 17.4111C36.4544 17.5752 35.9668 17.6572 35.4199 17.6572ZM43.5684 17.6572C42.8483 17.6572 42.2217 17.4932 41.6885 17.165C41.1553 16.8369 40.7406 16.3766 40.4443 15.7842C40.1481 15.1917 40 14.5036 40 13.7197C40 12.9268 40.1481 12.234 40.4443 11.6416C40.7406 11.0446 41.1553 10.582 41.6885 10.2539C42.2217 9.92578 42.8483 9.76172 43.5684 9.76172C43.9648 9.76172 44.3363 9.81413 44.6826 9.91895C45.029 10.0192 45.3411 10.1673 45.6191 10.3633C45.9017 10.5547 46.1387 10.7917 46.3301 11.0742C46.526 11.3522 46.6719 11.6667 46.7676 12.0176L45.3389 12.3594C45.2887 12.1634 45.2113 11.9857 45.1064 11.8262C45.0016 11.6621 44.874 11.5208 44.7236 11.4023C44.5778 11.2839 44.4069 11.1927 44.2109 11.1289C44.0195 11.0651 43.8076 11.0332 43.5752 11.0332C43.1149 11.0332 42.7321 11.1562 42.4268 11.4023C42.126 11.6439 41.9004 11.9674 41.75 12.373C41.6042 12.7786 41.5312 13.2275 41.5312 13.7197C41.5312 14.2074 41.6042 14.654 41.75 15.0596C41.9004 15.4606 42.126 15.7819 42.4268 16.0234C42.7321 16.265 43.1149 16.3857 43.5752 16.3857C43.8122 16.3857 44.0286 16.3538 44.2246 16.29C44.4206 16.2217 44.596 16.1283 44.751 16.0098C44.9059 15.8867 45.0358 15.7409 45.1406 15.5723C45.2454 15.3991 45.3206 15.21 45.3662 15.0049L46.7881 15.3467C46.6969 15.7067 46.5534 16.0303 46.3574 16.3174C46.1615 16.5999 45.9222 16.8415 45.6396 17.042C45.3617 17.2425 45.0472 17.3952 44.6963 17.5C44.3454 17.6048 43.9694 17.6572 43.5684 17.6572ZM51.7031 9.85742V11.0811H47.5605V9.85742H51.7031ZM48.6748 8.03906H50.1787V15.4355C50.1787 15.7409 50.2425 15.9665 50.3701 16.1123C50.5023 16.2536 50.7165 16.3242 51.0127 16.3242C51.0902 16.3242 51.1927 16.3151 51.3203 16.2969C51.4479 16.2786 51.5573 16.2604 51.6484 16.2422L51.915 17.4453C51.7555 17.5 51.5846 17.5387 51.4023 17.5615C51.2201 17.5889 51.04 17.6025 50.8623 17.6025C50.1696 17.6025 49.6318 17.4248 49.249 17.0693C48.8662 16.7093 48.6748 16.2057 48.6748 15.5586V8.03906ZM58.4434 12.9746V17.5H56.9395V9.85742H58.375L58.3887 11.7305H58.2314C58.4548 11.0469 58.7783 10.5479 59.2021 10.2334C59.626 9.91895 60.1387 9.76172 60.7402 9.76172C61.2598 9.76172 61.7132 9.87109 62.1006 10.0898C62.488 10.3086 62.791 10.6322 63.0098 11.0605C63.2285 11.4844 63.3379 12.013 63.3379 12.6465V17.5H61.834V12.8311C61.834 12.2796 61.6904 11.849 61.4033 11.5391C61.1162 11.2292 60.722 11.0742 60.2207 11.0742C59.8835 11.0742 59.5804 11.1494 59.3115 11.2998C59.0426 11.4456 58.8307 11.6598 58.6758 11.9424C58.5208 12.2249 58.4434 12.569 58.4434 12.9746ZM68.1982 17.6504C67.583 17.6504 67.0339 17.4932 66.5508 17.1787C66.0723 16.8597 65.694 16.4062 65.416 15.8184C65.1426 15.2259 65.0059 14.5195 65.0059 13.6992C65.0059 12.8698 65.1449 12.1611 65.4229 11.5732C65.7054 10.9854 66.0882 10.5365 66.5713 10.2266C67.0589 9.91667 67.6081 9.76172 68.2188 9.76172C68.6882 9.76172 69.0664 9.83919 69.3535 9.99414C69.6452 10.1491 69.8708 10.3337 70.0303 10.5479C70.1943 10.7575 70.3197 10.9421 70.4062 11.1016H70.502V9.85742H71.9922V17.5H70.5088V16.3037H70.4062C70.3197 16.4678 70.1921 16.6569 70.0234 16.8711C69.8548 17.0807 69.6247 17.263 69.333 17.418C69.0413 17.5729 68.6631 17.6504 68.1982 17.6504ZM68.5469 16.3721C68.9753 16.3721 69.3353 16.2581 69.627 16.0303C69.9232 15.8024 70.1465 15.488 70.2969 15.0869C70.4473 14.6813 70.5225 14.2142 70.5225 13.6855C70.5225 13.1523 70.4473 12.6898 70.2969 12.2979C70.1465 11.9014 69.9232 11.5938 69.627 11.375C69.3353 11.1517 68.9753 11.04 68.5469 11.04C68.1048 11.04 67.7357 11.1562 67.4395 11.3887C67.1432 11.6165 66.9199 11.931 66.7695 12.332C66.6191 12.7285 66.5439 13.1797 66.5439 13.6855C66.5439 14.1914 66.6191 14.6471 66.7695 15.0527C66.9199 15.4583 67.1432 15.7796 67.4395 16.0166C67.7402 16.2536 68.1094 16.3721 68.5469 16.3721ZM74.0156 17.5V9.85742H75.4443L75.4854 11.6279H75.3691C75.4785 11.195 75.6471 10.8395 75.875 10.5615C76.1029 10.2835 76.3695 10.0762 76.6748 9.93945C76.9801 9.79818 77.2992 9.72754 77.6318 9.72754C78.1878 9.72754 78.6367 9.90072 78.9785 10.2471C79.3203 10.5889 79.5505 11.0674 79.6689 11.6826H79.4775C79.5778 11.2633 79.751 10.9079 79.9971 10.6162C80.2432 10.3245 80.5394 10.1035 80.8857 9.95312C81.2367 9.80273 81.6104 9.72754 82.0068 9.72754C82.458 9.72754 82.8659 9.82552 83.2305 10.0215C83.5996 10.2174 83.8913 10.5091 84.1055 10.8965C84.3197 11.2839 84.4268 11.7669 84.4268 12.3457V17.5H82.916V12.4961C82.916 11.9857 82.7747 11.6165 82.4922 11.3887C82.2096 11.1608 81.8747 11.0469 81.4873 11.0469C81.1729 11.0469 80.9017 11.113 80.6738 11.2451C80.446 11.3773 80.2705 11.5618 80.1475 11.7988C80.0244 12.0312 79.9629 12.3001 79.9629 12.6055V17.5H78.4795V12.4004C78.4795 11.9902 78.3473 11.6621 78.083 11.416C77.8232 11.1699 77.4906 11.0469 77.085 11.0469C76.807 11.0469 76.5472 11.113 76.3057 11.2451C76.0687 11.3727 75.8773 11.5641 75.7314 11.8193C75.5902 12.07 75.5195 12.3799 75.5195 12.749V17.5H74.0156ZM89.752 17.6572C89 17.6572 88.3506 17.4954 87.8037 17.1719C87.2568 16.8483 86.8353 16.3926 86.5391 15.8047C86.2474 15.2168 86.1016 14.5264 86.1016 13.7334C86.1016 12.9495 86.2451 12.2591 86.5322 11.6621C86.8239 11.0651 87.234 10.6003 87.7627 10.2676C88.2913 9.93034 88.9111 9.76172 89.6221 9.76172C90.0596 9.76172 90.4811 9.83464 90.8867 9.98047C91.2923 10.1217 91.6569 10.3451 91.9805 10.6504C92.304 10.9557 92.5592 11.3522 92.7461 11.8398C92.9375 12.3229 93.0332 12.9108 93.0332 13.6035V14.1367H86.9424V13.0156H92.2607L91.5566 13.3848C91.5566 12.9154 91.4837 12.5029 91.3379 12.1475C91.1921 11.7874 90.9756 11.5072 90.6885 11.3066C90.4059 11.1061 90.0505 11.0059 89.6221 11.0059C89.1982 11.0059 88.8359 11.1084 88.5352 11.3135C88.2344 11.5186 88.0042 11.7897 87.8447 12.127C87.6898 12.4596 87.6123 12.8242 87.6123 13.2207V13.9863C87.6123 14.5104 87.7012 14.9548 87.8789 15.3193C88.0612 15.6794 88.3141 15.9528 88.6377 16.1396C88.9613 16.3219 89.3372 16.4131 89.7656 16.4131C90.0482 16.4131 90.3034 16.3743 90.5312 16.2969C90.7591 16.2148 90.9551 16.0941 91.1191 15.9346C91.2878 15.7705 91.4154 15.57 91.502 15.333L92.917 15.668C92.7939 16.0599 92.5866 16.4062 92.2949 16.707C92.0078 17.0078 91.6478 17.2425 91.2148 17.4111C90.7865 17.5752 90.2988 17.6572 89.752 17.6572Z" fill="#111827"/>
<g clip-path="url(#clip0_2616_4906)">
<rect x="5" y="28.5" width="514" height="36" rx="4" fill="white"/>
</g>
<rect x="5" y="28.5" width="514" height="36" rx="4" stroke="#E4E4E7"/>
<g filter="url(#filter0_d_2616_4906)">
<g clip-path="url(#clip1_2616_4906)">
<rect x="5" y="96.5" width="514" height="268" rx="8" fill="white"/>
<rect width="514" height="52" transform="translate(5 96.5)" fill="#FAFAFA"/>
<path d="M27.125 128.656C26.099 128.656 25.1823 128.419 24.375 127.945C23.5729 127.471 22.9401 126.789 22.4766 125.898C22.013 125.003 21.7812 123.932 21.7812 122.688C21.7812 121.432 22.013 120.359 22.4766 119.469C22.9401 118.573 23.5755 117.888 24.3828 117.414C25.1901 116.94 26.1042 116.703 27.125 116.703C27.7604 116.703 28.3568 116.794 28.9141 116.977C29.4714 117.154 29.9661 117.417 30.3984 117.766C30.8359 118.115 31.1953 118.539 31.4766 119.039C31.7578 119.539 31.9453 120.109 32.0391 120.75H29.9375C29.8698 120.401 29.7526 120.091 29.5859 119.82C29.4245 119.549 29.2188 119.32 28.9688 119.133C28.724 118.945 28.4479 118.805 28.1406 118.711C27.8333 118.617 27.5052 118.57 27.1562 118.57C26.5104 118.57 25.9401 118.732 25.4453 119.055C24.9505 119.372 24.5651 119.839 24.2891 120.453C24.013 121.068 23.875 121.812 23.875 122.688C23.875 123.568 24.013 124.315 24.2891 124.93C24.5703 125.539 24.9583 126.003 25.4531 126.32C25.9479 126.633 26.513 126.789 27.1484 126.789C27.4974 126.789 27.8255 126.742 28.1328 126.648C28.4401 126.549 28.7161 126.409 28.9609 126.227C29.2109 126.039 29.4193 125.81 29.5859 125.539C29.7578 125.268 29.8776 124.961 29.9453 124.617H32.0469C31.9688 125.18 31.7943 125.706 31.5234 126.195C31.2578 126.685 30.9115 127.115 30.4844 127.484C30.0573 127.854 29.5599 128.143 28.9922 128.352C28.4297 128.555 27.8073 128.656 27.125 128.656ZM35.8438 116.859V128.5H33.8203V116.859H35.8438ZM40.9453 128.617C40.3516 128.617 39.8281 128.49 39.375 128.234C38.9271 127.979 38.5781 127.607 38.3281 127.117C38.0833 126.622 37.9609 126.026 37.9609 125.328V119.82H39.9844V125.016C39.9844 125.604 40.1354 126.065 40.4375 126.398C40.7448 126.727 41.1641 126.891 41.6953 126.891C42.0547 126.891 42.3724 126.812 42.6484 126.656C42.9297 126.5 43.1484 126.273 43.3047 125.977C43.4661 125.674 43.5469 125.31 43.5469 124.883V119.82H45.5781V128.5H43.6484L43.625 126.344H43.8047C43.5599 127.104 43.1979 127.674 42.7188 128.055C42.2396 128.43 41.6484 128.617 40.9453 128.617ZM50.9922 128.68C50.3203 128.68 49.724 128.583 49.2031 128.391C48.6875 128.193 48.2656 127.909 47.9375 127.539C47.6094 127.164 47.3984 126.708 47.3047 126.172L49.2109 125.859C49.3203 126.286 49.526 126.607 49.8281 126.82C50.1302 127.029 50.5286 127.133 51.0234 127.133C51.5234 127.133 51.9167 127.034 52.2031 126.836C52.4948 126.633 52.6406 126.385 52.6406 126.094C52.6406 125.844 52.5443 125.638 52.3516 125.477C52.1589 125.31 51.8646 125.185 51.4688 125.102L49.9922 124.781C49.1693 124.604 48.5547 124.315 48.1484 123.914C47.7422 123.508 47.5391 122.984 47.5391 122.344C47.5391 121.807 47.6849 121.341 47.9766 120.945C48.2734 120.549 48.6849 120.245 49.2109 120.031C49.737 119.812 50.3464 119.703 51.0391 119.703C51.7005 119.703 52.2708 119.799 52.75 119.992C53.2292 120.18 53.6146 120.448 53.9062 120.797C54.2031 121.141 54.4036 121.544 54.5078 122.008L52.6953 122.328C52.6068 122.016 52.4297 121.753 52.1641 121.539C51.9036 121.326 51.5391 121.219 51.0703 121.219C50.638 121.219 50.2786 121.312 49.9922 121.5C49.7109 121.688 49.5703 121.93 49.5703 122.227C49.5703 122.482 49.6641 122.693 49.8516 122.859C50.0443 123.021 50.3568 123.148 50.7891 123.242L52.2734 123.555C53.1016 123.732 53.7161 124.016 54.1172 124.406C54.5182 124.792 54.7188 125.292 54.7188 125.906C54.7188 126.453 54.5599 126.935 54.2422 127.352C53.9245 127.768 53.4844 128.094 52.9219 128.328C52.3646 128.562 51.7214 128.68 50.9922 128.68ZM60.5 119.82V121.406H55.5312V119.82H60.5ZM56.7891 117.719H58.8125V126.055C58.8125 126.367 58.8802 126.596 59.0156 126.742C59.151 126.883 59.375 126.953 59.6875 126.953C59.7812 126.953 59.9036 126.943 60.0547 126.922C60.2109 126.901 60.3359 126.883 60.4297 126.867L60.7188 128.438C60.5052 128.5 60.2812 128.542 60.0469 128.562C59.8177 128.589 59.5938 128.602 59.375 128.602C58.5417 128.602 57.901 128.398 57.4531 127.992C57.0104 127.586 56.7891 127 56.7891 126.234V117.719ZM65.75 128.68C64.8802 128.68 64.1276 128.495 63.4922 128.125C62.862 127.755 62.3776 127.237 62.0391 126.57C61.7005 125.898 61.5312 125.112 61.5312 124.211C61.5312 123.32 61.6979 122.536 62.0312 121.859C62.3698 121.182 62.8464 120.654 63.4609 120.273C64.0755 119.893 64.7943 119.703 65.6172 119.703C66.1589 119.703 66.6693 119.792 67.1484 119.969C67.6328 120.141 68.0599 120.409 68.4297 120.773C68.7995 121.133 69.0885 121.589 69.2969 122.141C69.5104 122.693 69.6172 123.346 69.6172 124.102V124.719H62.4688V123.344H68.6016L67.6641 123.75C67.6641 123.26 67.5859 122.831 67.4297 122.461C67.2734 122.091 67.0443 121.805 66.7422 121.602C66.4453 121.393 66.0755 121.289 65.6328 121.289C65.1901 121.289 64.8125 121.393 64.5 121.602C64.1875 121.81 63.9479 122.091 63.7812 122.445C63.6198 122.794 63.5391 123.185 63.5391 123.617V124.562C63.5391 125.104 63.6302 125.565 63.8125 125.945C64 126.32 64.2604 126.604 64.5938 126.797C64.9323 126.99 65.3255 127.086 65.7734 127.086C66.0755 127.086 66.349 127.044 66.5938 126.961C66.8385 126.872 67.0469 126.745 67.2188 126.578C67.3958 126.406 67.5286 126.198 67.6172 125.953L69.4844 126.297C69.349 126.771 69.1094 127.188 68.7656 127.547C68.4271 127.901 68.0026 128.18 67.4922 128.383C66.9818 128.581 66.401 128.68 65.75 128.68ZM71.3203 128.5V119.82H73.2812V121.273H73.3672C73.5234 120.768 73.7917 120.38 74.1719 120.109C74.5573 119.839 75.0026 119.703 75.5078 119.703C75.6224 119.703 75.7474 119.708 75.8828 119.719C76.0234 119.729 76.1406 119.742 76.2344 119.758V121.617C76.1562 121.591 76.0234 121.568 75.8359 121.547C75.6484 121.526 75.4635 121.516 75.2812 121.516C74.9115 121.516 74.5781 121.596 74.2812 121.758C73.9896 121.914 73.7604 122.135 73.5938 122.422C73.4271 122.703 73.3438 123.034 73.3438 123.414V128.5H71.3203ZM80.8984 128.68C80.2266 128.68 79.6302 128.583 79.1094 128.391C78.5938 128.193 78.1719 127.909 77.8438 127.539C77.5156 127.164 77.3047 126.708 77.2109 126.172L79.1172 125.859C79.2266 126.286 79.4323 126.607 79.7344 126.82C80.0365 127.029 80.4349 127.133 80.9297 127.133C81.4297 127.133 81.8229 127.034 82.1094 126.836C82.401 126.633 82.5469 126.385 82.5469 126.094C82.5469 125.844 82.4505 125.638 82.2578 125.477C82.0651 125.31 81.7708 125.185 81.375 125.102L79.8984 124.781C79.0755 124.604 78.4609 124.315 78.0547 123.914C77.6484 123.508 77.4453 122.984 77.4453 122.344C77.4453 121.807 77.5911 121.341 77.8828 120.945C78.1797 120.549 78.5911 120.245 79.1172 120.031C79.6432 119.812 80.2526 119.703 80.9453 119.703C81.6068 119.703 82.1771 119.799 82.6562 119.992C83.1354 120.18 83.5208 120.448 83.8125 120.797C84.1094 121.141 84.3099 121.544 84.4141 122.008L82.6016 122.328C82.513 122.016 82.3359 121.753 82.0703 121.539C81.8099 121.326 81.4453 121.219 80.9766 121.219C80.5443 121.219 80.1849 121.312 79.8984 121.5C79.6172 121.688 79.4766 121.93 79.4766 122.227C79.4766 122.482 79.5703 122.693 79.7578 122.859C79.9505 123.021 80.263 123.148 80.6953 123.242L82.1797 123.555C83.0078 123.732 83.6224 124.016 84.0234 124.406C84.4245 124.792 84.625 125.292 84.625 125.906C84.625 126.453 84.4661 126.935 84.1484 127.352C83.8307 127.768 83.3906 128.094 82.8281 128.328C82.2708 128.562 81.6276 128.68 80.8984 128.68Z" fill="#111827"/>
<g clip-path="url(#clip2_2616_4906)">
<rect x="261" y="104.5" width="250" height="36" rx="4" fill="white"/>
<path d="M278.146 128.291C281.816 128.291 284.792 125.316 284.792 121.646C284.792 117.975 281.816 115 278.146 115C274.475 115 271.5 117.975 271.5 121.646C271.5 125.316 274.475 128.291 278.146 128.291Z" stroke="#111827" stroke-linecap="round" stroke-linejoin="round"/>
<path d="M282.845 126.345L286.5 130" stroke="#111827" stroke-linecap="round" stroke-linejoin="round"/>
<path d="M305.491 127.678C304.757 127.678 304.119 127.559 303.577 127.322C303.039 127.085 302.618 126.755 302.312 126.331C302.007 125.903 301.834 125.404 301.793 124.834H303.126C303.162 125.217 303.292 125.534 303.516 125.784C303.739 126.03 304.024 126.215 304.37 126.338C304.721 126.456 305.095 126.516 305.491 126.516C305.951 126.516 306.364 126.44 306.729 126.29C307.098 126.14 307.389 125.928 307.604 125.654C307.818 125.381 307.925 125.064 307.925 124.704C307.925 124.376 307.831 124.109 307.645 123.904C307.462 123.699 307.218 123.531 306.913 123.398C306.608 123.266 306.273 123.15 305.908 123.05L304.678 122.701C303.857 122.469 303.219 122.136 302.764 121.703C302.308 121.27 302.08 120.716 302.08 120.042C302.08 119.468 302.235 118.966 302.545 118.538C302.855 118.105 303.274 117.77 303.803 117.533C304.331 117.296 304.924 117.178 305.58 117.178C306.25 117.178 306.842 117.296 307.357 117.533C307.872 117.77 308.278 118.094 308.574 118.504C308.875 118.91 309.035 119.37 309.053 119.885H307.781C307.722 119.388 307.485 119.005 307.07 118.736C306.656 118.463 306.145 118.326 305.539 118.326C305.102 118.326 304.716 118.399 304.384 118.545C304.056 118.686 303.8 118.882 303.618 119.133C303.436 119.379 303.345 119.661 303.345 119.98C303.345 120.336 303.454 120.623 303.673 120.842C303.896 121.056 304.158 121.225 304.459 121.348C304.764 121.466 305.04 121.56 305.286 121.628L306.305 121.908C306.578 121.981 306.879 122.081 307.207 122.209C307.54 122.337 307.856 122.507 308.157 122.722C308.458 122.931 308.704 123.2 308.896 123.528C309.091 123.852 309.189 124.251 309.189 124.725C309.189 125.281 309.044 125.782 308.752 126.229C308.465 126.675 308.046 127.028 307.494 127.288C306.943 127.548 306.275 127.678 305.491 127.678ZM314.275 127.664C313.537 127.664 312.899 127.5 312.361 127.172C311.828 126.844 311.416 126.386 311.124 125.798C310.837 125.21 310.693 124.524 310.693 123.74C310.693 122.956 310.835 122.266 311.117 121.669C311.4 121.072 311.799 120.605 312.313 120.268C312.833 119.93 313.439 119.762 314.132 119.762C314.537 119.762 314.936 119.83 315.328 119.967C315.725 120.099 316.082 120.315 316.401 120.616C316.725 120.912 316.982 121.304 317.174 121.792C317.365 122.28 317.461 122.877 317.461 123.583V124.096H311.527V123.057H316.798L316.224 123.439C316.224 122.938 316.144 122.494 315.984 122.106C315.829 121.715 315.597 121.409 315.287 121.19C314.977 120.967 314.592 120.855 314.132 120.855C313.672 120.855 313.277 120.969 312.949 121.197C312.621 121.421 312.37 121.715 312.197 122.079C312.024 122.439 311.938 122.826 311.938 123.241V123.932C311.938 124.497 312.035 124.978 312.231 125.374C312.427 125.766 312.701 126.064 313.052 126.27C313.407 126.47 313.817 126.57 314.282 126.57C314.583 126.57 314.856 126.527 315.103 126.44C315.349 126.354 315.561 126.224 315.738 126.051C315.916 125.873 316.053 125.654 316.148 125.395L317.338 125.723C317.219 126.105 317.019 126.443 316.736 126.734C316.454 127.026 316.103 127.254 315.684 127.418C315.269 127.582 314.799 127.664 314.275 127.664ZM322.082 127.664C321.453 127.664 320.895 127.502 320.407 127.179C319.924 126.855 319.544 126.397 319.266 125.805C318.992 125.212 318.855 124.51 318.855 123.699C318.855 122.893 318.994 122.195 319.272 121.607C319.55 121.015 319.933 120.559 320.421 120.24C320.913 119.921 321.476 119.762 322.109 119.762C322.602 119.762 322.993 119.844 323.285 120.008C323.577 120.167 323.8 120.352 323.955 120.562C324.11 120.771 324.229 120.944 324.311 121.081H324.413V119.857H325.637V127.5H324.42V126.317H324.311C324.229 126.459 324.105 126.636 323.941 126.851C323.782 127.065 323.554 127.254 323.258 127.418C322.962 127.582 322.57 127.664 322.082 127.664ZM322.287 126.563C322.752 126.563 323.144 126.443 323.463 126.201C323.782 125.955 324.023 125.616 324.188 125.183C324.352 124.75 324.434 124.251 324.434 123.686C324.434 123.12 324.352 122.628 324.188 122.209C324.028 121.785 323.789 121.455 323.47 121.218C323.151 120.981 322.757 120.862 322.287 120.862C321.804 120.862 321.401 120.988 321.077 121.238C320.754 121.484 320.51 121.822 320.346 122.25C320.186 122.674 320.106 123.152 320.106 123.686C320.106 124.219 320.188 124.704 320.353 125.142C320.517 125.575 320.76 125.921 321.084 126.181C321.408 126.436 321.809 126.563 322.287 126.563ZM327.797 127.5V119.857H328.986V121.033H329.068C329.21 120.646 329.46 120.336 329.82 120.104C330.185 119.867 330.595 119.748 331.051 119.748C331.142 119.748 331.249 119.75 331.372 119.755C331.5 119.759 331.6 119.764 331.673 119.769V121.006C331.636 120.997 331.545 120.983 331.399 120.965C331.254 120.947 331.099 120.938 330.935 120.938C330.57 120.938 330.242 121.015 329.95 121.17C329.663 121.32 329.438 121.53 329.273 121.799C329.109 122.063 329.027 122.368 329.027 122.715V127.5H327.797ZM335.952 127.664C335.259 127.664 334.651 127.5 334.127 127.172C333.607 126.844 333.202 126.383 332.91 125.791C332.618 125.199 332.473 124.51 332.473 123.727C332.473 122.929 332.618 122.234 332.91 121.642C333.202 121.045 333.607 120.582 334.127 120.254C334.651 119.926 335.259 119.762 335.952 119.762C336.321 119.762 336.67 119.81 336.998 119.905C337.326 120.001 337.625 120.14 337.894 120.322C338.167 120.5 338.402 120.721 338.598 120.985C338.794 121.245 338.944 121.541 339.049 121.874L337.866 122.209C337.812 122.013 337.727 121.833 337.613 121.669C337.499 121.505 337.36 121.364 337.196 121.245C337.037 121.122 336.852 121.029 336.643 120.965C336.433 120.896 336.203 120.862 335.952 120.862C335.442 120.862 335.022 120.997 334.694 121.266C334.366 121.53 334.122 121.879 333.963 122.312C333.803 122.744 333.724 123.216 333.724 123.727C333.724 124.228 333.803 124.695 333.963 125.128C334.122 125.556 334.366 125.903 334.694 126.167C335.022 126.431 335.442 126.563 335.952 126.563C336.207 126.563 336.442 126.529 336.656 126.461C336.87 126.393 337.06 126.297 337.224 126.174C337.392 126.046 337.534 125.896 337.647 125.723C337.761 125.549 337.846 125.36 337.9 125.155L339.076 125.49C338.976 125.832 338.826 126.137 338.625 126.406C338.429 126.671 338.194 126.898 337.921 127.09C337.647 127.277 337.344 127.418 337.012 127.514C336.679 127.614 336.326 127.664 335.952 127.664ZM342.07 122.92V127.5H340.84V117.314H342.07V121.71H341.858C342.091 121.004 342.421 120.502 342.85 120.206C343.283 119.91 343.788 119.762 344.367 119.762C344.882 119.762 345.333 119.869 345.721 120.083C346.113 120.293 346.416 120.612 346.63 121.04C346.849 121.464 346.958 121.999 346.958 122.646V127.5H345.721V122.749C345.721 122.161 345.566 121.701 345.256 121.368C344.951 121.035 344.531 120.869 343.998 120.869C343.633 120.869 343.305 120.949 343.014 121.108C342.722 121.268 342.492 121.5 342.323 121.806C342.155 122.111 342.07 122.482 342.07 122.92Z" fill="#9CA3AF"/>
</g>
<rect x="261" y="104.5" width="250" height="36" rx="4" stroke="#E4E4E7"/>
<path d="M33 185.5C37.9706 185.5 42 181.471 42 176.5C42 171.529 37.9706 167.5 33 167.5C28.0294 167.5 24 171.529 24 176.5C24 181.471 28.0294 185.5 33 185.5Z" stroke="#111827" stroke-miterlimit="10" stroke-linecap="round" stroke-dasharray="4 4"/>
<path d="M54.1484 182.5V170.859H58.5156C59.401 170.859 60.1484 171.026 60.7578 171.359C61.3672 171.688 61.8281 172.141 62.1406 172.719C62.4583 173.297 62.6172 173.958 62.6172 174.703C62.6172 175.448 62.4583 176.109 62.1406 176.688C61.8229 177.26 61.3568 177.711 60.7422 178.039C60.1276 178.367 59.3724 178.531 58.4766 178.531H55.5469V176.812H58.2266C58.7474 176.812 59.1745 176.724 59.5078 176.547C59.8464 176.365 60.0964 176.115 60.2578 175.797C60.4193 175.474 60.5 175.109 60.5 174.703C60.5 174.286 60.4193 173.922 60.2578 173.609C60.0964 173.292 59.8464 173.047 59.5078 172.875C59.1693 172.698 58.7396 172.609 58.2188 172.609H56.2344V182.5H54.1484ZM66.3594 170.859V182.5H64.3359V170.859H66.3594ZM71.6875 182.664C71 182.664 70.3854 182.487 69.8438 182.133C69.3021 181.773 68.875 181.26 68.5625 180.594C68.25 179.927 68.0938 179.12 68.0938 178.172C68.0938 177.219 68.2526 176.409 68.5703 175.742C68.8932 175.076 69.3255 174.57 69.8672 174.227C70.4141 173.878 71.026 173.703 71.7031 173.703C72.1979 173.703 72.6094 173.786 72.9375 173.953C73.2656 174.115 73.5286 174.315 73.7266 174.555C73.9297 174.789 74.0859 175.016 74.1953 175.234H74.2812V173.82H76.2891V182.5H74.2891V181.133H74.1953C74.0859 181.357 73.9271 181.586 73.7188 181.82C73.5156 182.055 73.2474 182.255 72.9141 182.422C72.5859 182.583 72.1771 182.664 71.6875 182.664ZM72.2422 180.992C72.6849 180.992 73.0599 180.875 73.3672 180.641C73.6797 180.401 73.9167 180.07 74.0781 179.648C74.2396 179.221 74.3203 178.727 74.3203 178.164C74.3203 177.602 74.2396 177.112 74.0781 176.695C73.9167 176.273 73.6823 175.948 73.375 175.719C73.0677 175.484 72.6901 175.367 72.2422 175.367C71.7943 175.367 71.4141 175.487 71.1016 175.727C70.7943 175.966 70.5599 176.297 70.3984 176.719C70.2422 177.135 70.1641 177.617 70.1641 178.164C70.1641 178.711 70.2422 179.198 70.3984 179.625C70.5599 180.052 70.7943 180.388 71.1016 180.633C71.4141 180.872 71.7943 180.992 72.2422 180.992ZM77.7031 182.5L81.1016 177.289L81.0938 178.797L77.8828 173.82H80.1094L80.9922 175.281C81.2474 175.719 81.4766 176.143 81.6797 176.555C81.8828 176.961 82.0885 177.359 82.2969 177.75H81.4766C81.6901 177.365 81.8932 176.966 82.0859 176.555C82.2839 176.143 82.513 175.719 82.7734 175.281L83.6875 173.82H85.875L82.6172 178.836V177.344L86.0078 182.5H83.7891L82.7266 180.781C82.4661 180.354 82.2344 179.938 82.0312 179.531C81.8281 179.125 81.6224 178.734 81.4141 178.359H82.2344C82.0312 178.734 81.8333 179.125 81.6406 179.531C81.4531 179.938 81.2292 180.354 80.9688 180.781L79.9062 182.5H77.7031ZM90.8828 182.68C90.0391 182.68 89.3047 182.492 88.6797 182.117C88.0547 181.742 87.5703 181.219 87.2266 180.547C86.888 179.875 86.7188 179.094 86.7188 178.203C86.7188 177.302 86.888 176.516 87.2266 175.844C87.5703 175.167 88.0547 174.641 88.6797 174.266C89.3047 173.891 90.0391 173.703 90.8828 173.703C91.7266 173.703 92.4609 173.891 93.0859 174.266C93.7109 174.641 94.1927 175.167 94.5312 175.844C94.875 176.516 95.0469 177.302 95.0469 178.203C95.0469 179.094 94.875 179.875 94.5312 180.547C94.1927 181.219 93.7109 181.742 93.0859 182.117C92.4609 182.492 91.7266 182.68 90.8828 182.68ZM90.8828 181.031C91.3516 181.031 91.7422 180.906 92.0547 180.656C92.3672 180.401 92.6016 180.06 92.7578 179.633C92.9141 179.206 92.9922 178.727 92.9922 178.195C92.9922 177.659 92.9141 177.177 92.7578 176.75C92.6016 176.318 92.3672 175.977 92.0547 175.727C91.7422 175.477 91.3516 175.352 90.8828 175.352C90.4141 175.352 90.0234 175.477 89.7109 175.727C89.4036 175.977 89.1719 176.315 89.0156 176.742C88.8594 177.169 88.7812 177.654 88.7812 178.195C88.7812 178.727 88.8594 179.206 89.0156 179.633C89.1719 180.06 89.4036 180.401 89.7109 180.656C90.0234 180.906 90.4141 181.031 90.8828 181.031ZM98.7969 177.438V182.5H96.7734V173.82H98.7031L98.7266 175.969H98.5391C98.7839 175.219 99.1432 174.654 99.6172 174.273C100.096 173.893 100.693 173.703 101.406 173.703C102 173.703 102.521 173.831 102.969 174.086C103.417 174.341 103.763 174.714 104.008 175.203C104.258 175.693 104.383 176.289 104.383 176.992V182.5H102.359V177.305C102.359 176.716 102.208 176.258 101.906 175.93C101.604 175.596 101.188 175.43 100.656 175.43C100.297 175.43 99.9766 175.508 99.6953 175.664C99.4193 175.82 99.2005 176.047 99.0391 176.344C98.8776 176.641 98.7969 177.005 98.7969 177.438ZM106.492 182.5V173.82H108.516V182.5H106.492ZM107.5 172.586C107.177 172.586 106.898 172.477 106.664 172.258C106.435 172.039 106.32 171.776 106.32 171.469C106.32 171.156 106.435 170.893 106.664 170.68C106.898 170.466 107.177 170.359 107.5 170.359C107.828 170.359 108.107 170.466 108.336 170.68C108.57 170.893 108.688 171.156 108.688 171.469C108.688 171.776 108.57 172.039 108.336 172.258C108.107 172.477 107.828 172.586 107.5 172.586ZM114.406 182.68C113.562 182.68 112.828 182.492 112.203 182.117C111.583 181.742 111.102 181.219 110.758 180.547C110.419 179.87 110.25 179.089 110.25 178.203C110.25 177.302 110.419 176.516 110.758 175.844C111.102 175.167 111.583 174.641 112.203 174.266C112.828 173.891 113.562 173.703 114.406 173.703C114.896 173.703 115.349 173.768 115.766 173.898C116.188 174.023 116.562 174.208 116.891 174.453C117.219 174.693 117.492 174.984 117.711 175.328C117.93 175.672 118.083 176.057 118.172 176.484L116.266 176.844C116.214 176.615 116.133 176.409 116.023 176.227C115.919 176.044 115.789 175.888 115.633 175.758C115.477 175.628 115.297 175.529 115.094 175.461C114.891 175.388 114.667 175.352 114.422 175.352C113.953 175.352 113.562 175.477 113.25 175.727C112.938 175.971 112.703 176.307 112.547 176.734C112.391 177.161 112.312 177.648 112.312 178.195C112.312 178.732 112.391 179.214 112.547 179.641C112.703 180.068 112.938 180.406 113.25 180.656C113.562 180.906 113.953 181.031 114.422 181.031C114.672 181.031 114.898 180.995 115.102 180.922C115.31 180.849 115.492 180.745 115.648 180.609C115.81 180.474 115.943 180.31 116.047 180.117C116.156 179.924 116.237 179.714 116.289 179.484L118.188 179.836C118.104 180.273 117.953 180.667 117.734 181.016C117.516 181.365 117.24 181.664 116.906 181.914C116.578 182.159 116.203 182.349 115.781 182.484C115.359 182.615 114.901 182.68 114.406 182.68Z" fill="#111827"/>
<path d="M129.017 181.589C128.761 181.589 128.543 181.5 128.36 181.322C128.183 181.14 128.094 180.921 128.094 180.666C128.094 180.411 128.183 180.194 128.36 180.017C128.543 179.834 128.761 179.743 129.017 179.743C129.272 179.743 129.488 179.834 129.666 180.017C129.848 180.194 129.939 180.411 129.939 180.666C129.939 180.921 129.848 181.14 129.666 181.322C129.488 181.5 129.272 181.589 129.017 181.589ZM135.326 181.5L139.024 171.314H140.528L144.274 181.5H142.907L140.747 175.457C140.615 175.083 140.46 174.618 140.282 174.062C140.109 173.502 139.897 172.789 139.646 171.923H139.893C139.646 172.798 139.432 173.52 139.25 174.09C139.072 174.655 138.924 175.111 138.806 175.457L136.707 181.5H135.326ZM137.186 178.656V177.521H142.415V178.656H137.186ZM146.975 181.5L144.199 171.314H145.525L147.139 177.562C147.225 177.895 147.307 178.235 147.385 178.581C147.462 178.923 147.537 179.271 147.61 179.627C147.683 179.978 147.752 180.34 147.815 180.714H147.658C147.727 180.34 147.797 179.978 147.87 179.627C147.943 179.271 148.021 178.923 148.103 178.581C148.185 178.235 148.269 177.895 148.355 177.562L150.003 171.314H151.479L153.113 177.562C153.204 177.895 153.289 178.235 153.366 178.581C153.448 178.923 153.528 179.271 153.605 179.627C153.683 179.978 153.756 180.34 153.824 180.714H153.646C153.715 180.34 153.785 179.978 153.858 179.627C153.931 179.271 154.009 178.923 154.091 178.581C154.173 178.235 154.255 177.895 154.337 177.562L155.943 171.314H157.283L154.494 181.5H152.983L151.233 175.047C151.119 174.628 151.01 174.172 150.905 173.68C150.8 173.183 150.698 172.611 150.598 171.964H150.871C150.771 172.575 150.673 173.121 150.577 173.604C150.481 174.083 150.368 174.564 150.235 175.047L148.492 181.5H146.975ZM162.13 181.678C161.396 181.678 160.758 181.559 160.216 181.322C159.678 181.085 159.257 180.755 158.951 180.331C158.646 179.903 158.473 179.404 158.432 178.834H159.765C159.801 179.217 159.931 179.534 160.154 179.784C160.378 180.03 160.662 180.215 161.009 180.338C161.36 180.456 161.733 180.516 162.13 180.516C162.59 180.516 163.003 180.44 163.367 180.29C163.736 180.14 164.028 179.928 164.242 179.654C164.456 179.381 164.563 179.064 164.563 178.704C164.563 178.376 164.47 178.109 164.283 177.904C164.101 177.699 163.857 177.531 163.552 177.398C163.246 177.266 162.911 177.15 162.547 177.05L161.316 176.701C160.496 176.469 159.858 176.136 159.402 175.703C158.947 175.27 158.719 174.716 158.719 174.042C158.719 173.468 158.874 172.966 159.184 172.538C159.493 172.105 159.913 171.77 160.441 171.533C160.97 171.296 161.562 171.178 162.219 171.178C162.889 171.178 163.481 171.296 163.996 171.533C164.511 171.77 164.917 172.094 165.213 172.504C165.514 172.91 165.673 173.37 165.691 173.885H164.42C164.361 173.388 164.124 173.005 163.709 172.736C163.294 172.463 162.784 172.326 162.178 172.326C161.74 172.326 161.355 172.399 161.022 172.545C160.694 172.686 160.439 172.882 160.257 173.133C160.075 173.379 159.983 173.661 159.983 173.98C159.983 174.336 160.093 174.623 160.312 174.842C160.535 175.056 160.797 175.225 161.098 175.348C161.403 175.466 161.679 175.56 161.925 175.628L162.943 175.908C163.217 175.981 163.518 176.081 163.846 176.209C164.178 176.337 164.495 176.507 164.796 176.722C165.097 176.931 165.343 177.2 165.534 177.528C165.73 177.852 165.828 178.251 165.828 178.725C165.828 179.281 165.682 179.782 165.391 180.229C165.104 180.675 164.684 181.028 164.133 181.288C163.581 181.548 162.914 181.678 162.13 181.678ZM167.496 183.954L168.098 180.078H169.506L168.439 183.954H167.496ZM177.121 171.314V181.5H175.822V171.314H177.121ZM180.662 176.92V181.5H179.432V173.857H180.614L180.621 175.71H180.45C180.683 175.004 181.013 174.502 181.441 174.206C181.874 173.91 182.38 173.762 182.959 173.762C183.474 173.762 183.925 173.869 184.312 174.083C184.7 174.293 185.001 174.612 185.215 175.04C185.434 175.464 185.543 175.999 185.543 176.646V181.5H184.312V176.749C184.312 176.161 184.158 175.701 183.848 175.368C183.542 175.035 183.123 174.869 182.59 174.869C182.225 174.869 181.897 174.949 181.605 175.108C181.314 175.268 181.084 175.5 180.915 175.806C180.746 176.111 180.662 176.482 180.662 176.92ZM190.567 181.664C189.934 181.664 189.373 181.502 188.886 181.179C188.398 180.855 188.018 180.397 187.744 179.805C187.471 179.212 187.334 178.51 187.334 177.699C187.334 176.893 187.471 176.195 187.744 175.607C188.022 175.015 188.405 174.559 188.893 174.24C189.38 173.921 189.941 173.762 190.574 173.762C191.071 173.762 191.465 173.844 191.757 174.008C192.049 174.172 192.272 174.359 192.427 174.568C192.586 174.773 192.707 174.944 192.789 175.081H192.885V171.314H194.115V181.5H192.926V180.317H192.789C192.707 180.459 192.584 180.636 192.42 180.851C192.26 181.06 192.033 181.249 191.736 181.418C191.445 181.582 191.055 181.664 190.567 181.664ZM190.752 180.563C191.217 180.563 191.609 180.443 191.928 180.201C192.247 179.955 192.488 179.616 192.652 179.183C192.816 178.75 192.898 178.251 192.898 177.686C192.898 177.12 192.816 176.628 192.652 176.209C192.493 175.785 192.254 175.455 191.935 175.218C191.616 174.981 191.221 174.862 190.752 174.862C190.269 174.862 189.866 174.988 189.542 175.238C189.223 175.489 188.984 175.828 188.824 176.257C188.665 176.681 188.585 177.157 188.585 177.686C188.585 178.219 188.665 178.704 188.824 179.142C188.988 179.575 189.232 179.921 189.556 180.181C189.879 180.436 190.278 180.563 190.752 180.563ZM196.275 181.5V173.857H197.506V181.5H196.275ZM196.897 172.606C196.665 172.606 196.465 172.527 196.296 172.367C196.127 172.208 196.043 172.016 196.043 171.793C196.043 171.565 196.127 171.374 196.296 171.219C196.465 171.059 196.665 170.979 196.897 170.979C197.134 170.979 197.337 171.059 197.506 171.219C197.674 171.374 197.759 171.565 197.759 171.793C197.759 172.016 197.674 172.208 197.506 172.367C197.337 172.527 197.134 172.606 196.897 172.606ZM202.523 181.664C201.895 181.664 201.336 181.502 200.849 181.179C200.366 180.855 199.985 180.397 199.707 179.805C199.434 179.212 199.297 178.51 199.297 177.699C199.297 176.893 199.436 176.195 199.714 175.607C199.992 175.015 200.375 174.559 200.862 174.24C201.354 173.921 201.917 173.762 202.551 173.762C203.043 173.762 203.435 173.844 203.727 174.008C204.018 174.167 204.242 174.352 204.396 174.562C204.551 174.771 204.67 174.944 204.752 175.081H204.854V173.857H206.078V181.5H204.861V180.317H204.752C204.67 180.459 204.547 180.636 204.383 180.851C204.223 181.065 203.995 181.254 203.699 181.418C203.403 181.582 203.011 181.664 202.523 181.664ZM202.729 180.563C203.193 180.563 203.585 180.443 203.904 180.201C204.223 179.955 204.465 179.616 204.629 179.183C204.793 178.75 204.875 178.251 204.875 177.686C204.875 177.12 204.793 176.628 204.629 176.209C204.469 175.785 204.23 175.455 203.911 175.218C203.592 174.981 203.198 174.862 202.729 174.862C202.245 174.862 201.842 174.988 201.519 175.238C201.195 175.484 200.951 175.822 200.787 176.25C200.628 176.674 200.548 177.152 200.548 177.686C200.548 178.219 200.63 178.704 200.794 179.142C200.958 179.575 201.202 179.921 201.525 180.181C201.849 180.436 202.25 180.563 202.729 180.563Z" fill="#111827"/>
<rect x="487" y="168.5" width="16" height="16" rx="8" fill="white"/>
<rect x="487" y="168.5" width="16" height="16" rx="8" stroke="#E4E4E7"/>
<path d="M33 241.5C37.9706 241.5 42 237.471 42 232.5C42 227.529 37.9706 223.5 33 223.5C28.0294 223.5 24 227.529 24 232.5C24 237.471 28.0294 241.5 33 241.5Z" stroke="#111827" stroke-miterlimit="10" stroke-linecap="round" stroke-dasharray="4 4"/>
<path d="M54.1484 238.5V226.859H58.5156C59.401 226.859 60.1484 227.026 60.7578 227.359C61.3672 227.688 61.8281 228.141 62.1406 228.719C62.4583 229.297 62.6172 229.958 62.6172 230.703C62.6172 231.448 62.4583 232.109 62.1406 232.688C61.8229 233.26 61.3568 233.711 60.7422 234.039C60.1276 234.367 59.3724 234.531 58.4766 234.531H55.5469V232.812H58.2266C58.7474 232.812 59.1745 232.724 59.5078 232.547C59.8464 232.365 60.0964 232.115 60.2578 231.797C60.4193 231.474 60.5 231.109 60.5 230.703C60.5 230.286 60.4193 229.922 60.2578 229.609C60.0964 229.292 59.8464 229.047 59.5078 228.875C59.1693 228.698 58.7396 228.609 58.2188 228.609H56.2344V238.5H54.1484ZM66.3594 226.859V238.5H64.3359V226.859H66.3594ZM71.6875 238.664C71 238.664 70.3854 238.487 69.8438 238.133C69.3021 237.773 68.875 237.26 68.5625 236.594C68.25 235.927 68.0938 235.12 68.0938 234.172C68.0938 233.219 68.2526 232.409 68.5703 231.742C68.8932 231.076 69.3255 230.57 69.8672 230.227C70.4141 229.878 71.026 229.703 71.7031 229.703C72.1979 229.703 72.6094 229.786 72.9375 229.953C73.2656 230.115 73.5286 230.315 73.7266 230.555C73.9297 230.789 74.0859 231.016 74.1953 231.234H74.2812V229.82H76.2891V238.5H74.2891V237.133H74.1953C74.0859 237.357 73.9271 237.586 73.7188 237.82C73.5156 238.055 73.2474 238.255 72.9141 238.422C72.5859 238.583 72.1771 238.664 71.6875 238.664ZM72.2422 236.992C72.6849 236.992 73.0599 236.875 73.3672 236.641C73.6797 236.401 73.9167 236.07 74.0781 235.648C74.2396 235.221 74.3203 234.727 74.3203 234.164C74.3203 233.602 74.2396 233.112 74.0781 232.695C73.9167 232.273 73.6823 231.948 73.375 231.719C73.0677 231.484 72.6901 231.367 72.2422 231.367C71.7943 231.367 71.4141 231.487 71.1016 231.727C70.7943 231.966 70.5599 232.297 70.3984 232.719C70.2422 233.135 70.1641 233.617 70.1641 234.164C70.1641 234.711 70.2422 235.198 70.3984 235.625C70.5599 236.052 70.7943 236.388 71.1016 236.633C71.4141 236.872 71.7943 236.992 72.2422 236.992ZM77.7031 238.5L81.1016 233.289L81.0938 234.797L77.8828 229.82H80.1094L80.9922 231.281C81.2474 231.719 81.4766 232.143 81.6797 232.555C81.8828 232.961 82.0885 233.359 82.2969 233.75H81.4766C81.6901 233.365 81.8932 232.966 82.0859 232.555C82.2839 232.143 82.513 231.719 82.7734 231.281L83.6875 229.82H85.875L82.6172 234.836V233.344L86.0078 238.5H83.7891L82.7266 236.781C82.4661 236.354 82.2344 235.938 82.0312 235.531C81.8281 235.125 81.6224 234.734 81.4141 234.359H82.2344C82.0312 234.734 81.8333 235.125 81.6406 235.531C81.4531 235.938 81.2292 236.354 80.9688 236.781L79.9062 238.5H77.7031ZM90.8828 238.68C90.0391 238.68 89.3047 238.492 88.6797 238.117C88.0547 237.742 87.5703 237.219 87.2266 236.547C86.888 235.875 86.7188 235.094 86.7188 234.203C86.7188 233.302 86.888 232.516 87.2266 231.844C87.5703 231.167 88.0547 230.641 88.6797 230.266C89.3047 229.891 90.0391 229.703 90.8828 229.703C91.7266 229.703 92.4609 229.891 93.0859 230.266C93.7109 230.641 94.1927 231.167 94.5312 231.844C94.875 232.516 95.0469 233.302 95.0469 234.203C95.0469 235.094 94.875 235.875 94.5312 236.547C94.1927 237.219 93.7109 237.742 93.0859 238.117C92.4609 238.492 91.7266 238.68 90.8828 238.68ZM90.8828 237.031C91.3516 237.031 91.7422 236.906 92.0547 236.656C92.3672 236.401 92.6016 236.06 92.7578 235.633C92.9141 235.206 92.9922 234.727 92.9922 234.195C92.9922 233.659 92.9141 233.177 92.7578 232.75C92.6016 232.318 92.3672 231.977 92.0547 231.727C91.7422 231.477 91.3516 231.352 90.8828 231.352C90.4141 231.352 90.0234 231.477 89.7109 231.727C89.4036 231.977 89.1719 232.315 89.0156 232.742C88.8594 233.169 88.7812 233.654 88.7812 234.195C88.7812 234.727 88.8594 235.206 89.0156 235.633C89.1719 236.06 89.4036 236.401 89.7109 236.656C90.0234 236.906 90.4141 237.031 90.8828 237.031ZM98.7969 233.438V238.5H96.7734V229.82H98.7031L98.7266 231.969H98.5391C98.7839 231.219 99.1432 230.654 99.6172 230.273C100.096 229.893 100.693 229.703 101.406 229.703C102 229.703 102.521 229.831 102.969 230.086C103.417 230.341 103.763 230.714 104.008 231.203C104.258 231.693 104.383 232.289 104.383 232.992V238.5H102.359V233.305C102.359 232.716 102.208 232.258 101.906 231.93C101.604 231.596 101.188 231.43 100.656 231.43C100.297 231.43 99.9766 231.508 99.6953 231.664C99.4193 231.82 99.2005 232.047 99.0391 232.344C98.8776 232.641 98.7969 233.005 98.7969 233.438ZM106.492 238.5V229.82H108.516V238.5H106.492ZM107.5 228.586C107.177 228.586 106.898 228.477 106.664 228.258C106.435 228.039 106.32 227.776 106.32 227.469C106.32 227.156 106.435 226.893 106.664 226.68C106.898 226.466 107.177 226.359 107.5 226.359C107.828 226.359 108.107 226.466 108.336 226.68C108.57 226.893 108.688 227.156 108.688 227.469C108.688 227.776 108.57 228.039 108.336 228.258C108.107 228.477 107.828 228.586 107.5 228.586ZM114.406 238.68C113.562 238.68 112.828 238.492 112.203 238.117C111.583 237.742 111.102 237.219 110.758 236.547C110.419 235.87 110.25 235.089 110.25 234.203C110.25 233.302 110.419 232.516 110.758 231.844C111.102 231.167 111.583 230.641 112.203 230.266C112.828 229.891 113.562 229.703 114.406 229.703C114.896 229.703 115.349 229.768 115.766 229.898C116.188 230.023 116.562 230.208 116.891 230.453C117.219 230.693 117.492 230.984 117.711 231.328C117.93 231.672 118.083 232.057 118.172 232.484L116.266 232.844C116.214 232.615 116.133 232.409 116.023 232.227C115.919 232.044 115.789 231.888 115.633 231.758C115.477 231.628 115.297 231.529 115.094 231.461C114.891 231.388 114.667 231.352 114.422 231.352C113.953 231.352 113.562 231.477 113.25 231.727C112.938 231.971 112.703 232.307 112.547 232.734C112.391 233.161 112.312 233.648 112.312 234.195C112.312 234.732 112.391 235.214 112.547 235.641C112.703 236.068 112.938 236.406 113.25 236.656C113.562 236.906 113.953 237.031 114.422 237.031C114.672 237.031 114.898 236.995 115.102 236.922C115.31 236.849 115.492 236.745 115.648 236.609C115.81 236.474 115.943 236.31 116.047 236.117C116.156 235.924 116.237 235.714 116.289 235.484L118.188 235.836C118.104 236.273 117.953 236.667 117.734 237.016C117.516 237.365 117.24 237.664 116.906 237.914C116.578 238.159 116.203 238.349 115.781 238.484C115.359 238.615 114.901 238.68 114.406 238.68Z" fill="#111827"/>
<path d="M129.017 237.589C128.761 237.589 128.543 237.5 128.36 237.322C128.183 237.14 128.094 236.921 128.094 236.666C128.094 236.411 128.183 236.194 128.36 236.017C128.543 235.834 128.761 235.743 129.017 235.743C129.272 235.743 129.488 235.834 129.666 236.017C129.848 236.194 129.939 236.411 129.939 236.666C129.939 236.921 129.848 237.14 129.666 237.322C129.488 237.5 129.272 237.589 129.017 237.589ZM135.326 237.5L139.024 227.314H140.528L144.274 237.5H142.907L140.747 231.457C140.615 231.083 140.46 230.618 140.282 230.062C140.109 229.502 139.897 228.789 139.646 227.923H139.893C139.646 228.798 139.432 229.52 139.25 230.09C139.072 230.655 138.924 231.111 138.806 231.457L136.707 237.5H135.326ZM137.186 234.656V233.521H142.415V234.656H137.186ZM146.975 237.5L144.199 227.314H145.525L147.139 233.562C147.225 233.895 147.307 234.235 147.385 234.581C147.462 234.923 147.537 235.271 147.61 235.627C147.683 235.978 147.752 236.34 147.815 236.714H147.658C147.727 236.34 147.797 235.978 147.87 235.627C147.943 235.271 148.021 234.923 148.103 234.581C148.185 234.235 148.269 233.895 148.355 233.562L150.003 227.314H151.479L153.113 233.562C153.204 233.895 153.289 234.235 153.366 234.581C153.448 234.923 153.528 235.271 153.605 235.627C153.683 235.978 153.756 236.34 153.824 236.714H153.646C153.715 236.34 153.785 235.978 153.858 235.627C153.931 235.271 154.009 234.923 154.091 234.581C154.173 234.235 154.255 233.895 154.337 233.562L155.943 227.314H157.283L154.494 237.5H152.983L151.233 231.047C151.119 230.628 151.01 230.172 150.905 229.68C150.8 229.183 150.698 228.611 150.598 227.964H150.871C150.771 228.575 150.673 229.121 150.577 229.604C150.481 230.083 150.368 230.564 150.235 231.047L148.492 237.5H146.975ZM162.13 237.678C161.396 237.678 160.758 237.559 160.216 237.322C159.678 237.085 159.257 236.755 158.951 236.331C158.646 235.903 158.473 235.404 158.432 234.834H159.765C159.801 235.217 159.931 235.534 160.154 235.784C160.378 236.03 160.662 236.215 161.009 236.338C161.36 236.456 161.733 236.516 162.13 236.516C162.59 236.516 163.003 236.44 163.367 236.29C163.736 236.14 164.028 235.928 164.242 235.654C164.456 235.381 164.563 235.064 164.563 234.704C164.563 234.376 164.47 234.109 164.283 233.904C164.101 233.699 163.857 233.531 163.552 233.398C163.246 233.266 162.911 233.15 162.547 233.05L161.316 232.701C160.496 232.469 159.858 232.136 159.402 231.703C158.947 231.27 158.719 230.716 158.719 230.042C158.719 229.468 158.874 228.966 159.184 228.538C159.493 228.105 159.913 227.77 160.441 227.533C160.97 227.296 161.562 227.178 162.219 227.178C162.889 227.178 163.481 227.296 163.996 227.533C164.511 227.77 164.917 228.094 165.213 228.504C165.514 228.91 165.673 229.37 165.691 229.885H164.42C164.361 229.388 164.124 229.005 163.709 228.736C163.294 228.463 162.784 228.326 162.178 228.326C161.74 228.326 161.355 228.399 161.022 228.545C160.694 228.686 160.439 228.882 160.257 229.133C160.075 229.379 159.983 229.661 159.983 229.98C159.983 230.336 160.093 230.623 160.312 230.842C160.535 231.056 160.797 231.225 161.098 231.348C161.403 231.466 161.679 231.56 161.925 231.628L162.943 231.908C163.217 231.981 163.518 232.081 163.846 232.209C164.178 232.337 164.495 232.507 164.796 232.722C165.097 232.931 165.343 233.2 165.534 233.528C165.73 233.852 165.828 234.251 165.828 234.725C165.828 235.281 165.682 235.782 165.391 236.229C165.104 236.675 164.684 237.028 164.133 237.288C163.581 237.548 162.914 237.678 162.13 237.678ZM167.496 239.954L168.098 236.078H169.506L168.439 239.954H167.496ZM177.121 227.314V237.5H175.822V227.314H177.121ZM180.662 232.92V237.5H179.432V229.857H180.614L180.621 231.71H180.45C180.683 231.004 181.013 230.502 181.441 230.206C181.874 229.91 182.38 229.762 182.959 229.762C183.474 229.762 183.925 229.869 184.312 230.083C184.7 230.293 185.001 230.612 185.215 231.04C185.434 231.464 185.543 231.999 185.543 232.646V237.5H184.312V232.749C184.312 232.161 184.158 231.701 183.848 231.368C183.542 231.035 183.123 230.869 182.59 230.869C182.225 230.869 181.897 230.949 181.605 231.108C181.314 231.268 181.084 231.5 180.915 231.806C180.746 232.111 180.662 232.482 180.662 232.92ZM190.567 237.664C189.934 237.664 189.373 237.502 188.886 237.179C188.398 236.855 188.018 236.397 187.744 235.805C187.471 235.212 187.334 234.51 187.334 233.699C187.334 232.893 187.471 232.195 187.744 231.607C188.022 231.015 188.405 230.559 188.893 230.24C189.38 229.921 189.941 229.762 190.574 229.762C191.071 229.762 191.465 229.844 191.757 230.008C192.049 230.172 192.272 230.359 192.427 230.568C192.586 230.773 192.707 230.944 192.789 231.081H192.885V227.314H194.115V237.5H192.926V236.317H192.789C192.707 236.459 192.584 236.636 192.42 236.851C192.26 237.06 192.033 237.249 191.736 237.418C191.445 237.582 191.055 237.664 190.567 237.664ZM190.752 236.563C191.217 236.563 191.609 236.443 191.928 236.201C192.247 235.955 192.488 235.616 192.652 235.183C192.816 234.75 192.898 234.251 192.898 233.686C192.898 233.12 192.816 232.628 192.652 232.209C192.493 231.785 192.254 231.455 191.935 231.218C191.616 230.981 191.221 230.862 190.752 230.862C190.269 230.862 189.866 230.988 189.542 231.238C189.223 231.489 188.984 231.828 188.824 232.257C188.665 232.681 188.585 233.157 188.585 233.686C188.585 234.219 188.665 234.704 188.824 235.142C188.988 235.575 189.232 235.921 189.556 236.181C189.879 236.436 190.278 236.563 190.752 236.563ZM196.275 237.5V229.857H197.506V237.5H196.275ZM196.897 228.606C196.665 228.606 196.465 228.527 196.296 228.367C196.127 228.208 196.043 228.016 196.043 227.793C196.043 227.565 196.127 227.374 196.296 227.219C196.465 227.059 196.665 226.979 196.897 226.979C197.134 226.979 197.337 227.059 197.506 227.219C197.674 227.374 197.759 227.565 197.759 227.793C197.759 228.016 197.674 228.208 197.506 228.367C197.337 228.527 197.134 228.606 196.897 228.606ZM202.523 237.664C201.895 237.664 201.336 237.502 200.849 237.179C200.366 236.855 199.985 236.397 199.707 235.805C199.434 235.212 199.297 234.51 199.297 233.699C199.297 232.893 199.436 232.195 199.714 231.607C199.992 231.015 200.375 230.559 200.862 230.24C201.354 229.921 201.917 229.762 202.551 229.762C203.043 229.762 203.435 229.844 203.727 230.008C204.018 230.167 204.242 230.352 204.396 230.562C204.551 230.771 204.67 230.944 204.752 231.081H204.854V229.857H206.078V237.5H204.861V236.317H204.752C204.67 236.459 204.547 236.636 204.383 236.851C204.223 237.065 203.995 237.254 203.699 237.418C203.403 237.582 203.011 237.664 202.523 237.664ZM202.729 236.563C203.193 236.563 203.585 236.443 203.904 236.201C204.223 235.955 204.465 235.616 204.629 235.183C204.793 234.75 204.875 234.251 204.875 233.686C204.875 233.12 204.793 232.628 204.629 232.209C204.469 231.785 204.23 231.455 203.911 231.218C203.592 230.981 203.198 230.862 202.729 230.862C202.245 230.862 201.842 230.988 201.519 231.238C201.195 231.484 200.951 231.822 200.787 232.25C200.628 232.674 200.548 233.152 200.548 233.686C200.548 234.219 200.63 234.704 200.794 235.142C200.958 235.575 201.202 235.921 201.525 236.181C201.849 236.436 202.25 236.563 202.729 236.563Z" fill="#111827"/>
<rect x="487" y="224.5" width="16" height="16" rx="8" fill="white"/>
<rect x="487" y="224.5" width="16" height="16" rx="8" stroke="#E4E4E7"/>
<path d="M33 297.5C37.9706 297.5 42 293.471 42 288.5C42 283.529 37.9706 279.5 33 279.5C28.0294 279.5 24 283.529 24 288.5C24 293.471 28.0294 297.5 33 297.5Z" stroke="#111827" stroke-miterlimit="10" stroke-linecap="round" stroke-dasharray="4 4"/>
<path d="M54.1484 294.5V282.859H58.5156C59.401 282.859 60.1484 283.026 60.7578 283.359C61.3672 283.688 61.8281 284.141 62.1406 284.719C62.4583 285.297 62.6172 285.958 62.6172 286.703C62.6172 287.448 62.4583 288.109 62.1406 288.688C61.8229 289.26 61.3568 289.711 60.7422 290.039C60.1276 290.367 59.3724 290.531 58.4766 290.531H55.5469V288.812H58.2266C58.7474 288.812 59.1745 288.724 59.5078 288.547C59.8464 288.365 60.0964 288.115 60.2578 287.797C60.4193 287.474 60.5 287.109 60.5 286.703C60.5 286.286 60.4193 285.922 60.2578 285.609C60.0964 285.292 59.8464 285.047 59.5078 284.875C59.1693 284.698 58.7396 284.609 58.2188 284.609H56.2344V294.5H54.1484ZM66.3594 282.859V294.5H64.3359V282.859H66.3594ZM71.6875 294.664C71 294.664 70.3854 294.487 69.8438 294.133C69.3021 293.773 68.875 293.26 68.5625 292.594C68.25 291.927 68.0938 291.12 68.0938 290.172C68.0938 289.219 68.2526 288.409 68.5703 287.742C68.8932 287.076 69.3255 286.57 69.8672 286.227C70.4141 285.878 71.026 285.703 71.7031 285.703C72.1979 285.703 72.6094 285.786 72.9375 285.953C73.2656 286.115 73.5286 286.315 73.7266 286.555C73.9297 286.789 74.0859 287.016 74.1953 287.234H74.2812V285.82H76.2891V294.5H74.2891V293.133H74.1953C74.0859 293.357 73.9271 293.586 73.7188 293.82C73.5156 294.055 73.2474 294.255 72.9141 294.422C72.5859 294.583 72.1771 294.664 71.6875 294.664ZM72.2422 292.992C72.6849 292.992 73.0599 292.875 73.3672 292.641C73.6797 292.401 73.9167 292.07 74.0781 291.648C74.2396 291.221 74.3203 290.727 74.3203 290.164C74.3203 289.602 74.2396 289.112 74.0781 288.695C73.9167 288.273 73.6823 287.948 73.375 287.719C73.0677 287.484 72.6901 287.367 72.2422 287.367C71.7943 287.367 71.4141 287.487 71.1016 287.727C70.7943 287.966 70.5599 288.297 70.3984 288.719C70.2422 289.135 70.1641 289.617 70.1641 290.164C70.1641 290.711 70.2422 291.198 70.3984 291.625C70.5599 292.052 70.7943 292.388 71.1016 292.633C71.4141 292.872 71.7943 292.992 72.2422 292.992ZM77.7031 294.5L81.1016 289.289L81.0938 290.797L77.8828 285.82H80.1094L80.9922 287.281C81.2474 287.719 81.4766 288.143 81.6797 288.555C81.8828 288.961 82.0885 289.359 82.2969 289.75H81.4766C81.6901 289.365 81.8932 288.966 82.0859 288.555C82.2839 288.143 82.513 287.719 82.7734 287.281L83.6875 285.82H85.875L82.6172 290.836V289.344L86.0078 294.5H83.7891L82.7266 292.781C82.4661 292.354 82.2344 291.938 82.0312 291.531C81.8281 291.125 81.6224 290.734 81.4141 290.359H82.2344C82.0312 290.734 81.8333 291.125 81.6406 291.531C81.4531 291.938 81.2292 292.354 80.9688 292.781L79.9062 294.5H77.7031ZM90.8828 294.68C90.0391 294.68 89.3047 294.492 88.6797 294.117C88.0547 293.742 87.5703 293.219 87.2266 292.547C86.888 291.875 86.7188 291.094 86.7188 290.203C86.7188 289.302 86.888 288.516 87.2266 287.844C87.5703 287.167 88.0547 286.641 88.6797 286.266C89.3047 285.891 90.0391 285.703 90.8828 285.703C91.7266 285.703 92.4609 285.891 93.0859 286.266C93.7109 286.641 94.1927 287.167 94.5312 287.844C94.875 288.516 95.0469 289.302 95.0469 290.203C95.0469 291.094 94.875 291.875 94.5312 292.547C94.1927 293.219 93.7109 293.742 93.0859 294.117C92.4609 294.492 91.7266 294.68 90.8828 294.68ZM90.8828 293.031C91.3516 293.031 91.7422 292.906 92.0547 292.656C92.3672 292.401 92.6016 292.06 92.7578 291.633C92.9141 291.206 92.9922 290.727 92.9922 290.195C92.9922 289.659 92.9141 289.177 92.7578 288.75C92.6016 288.318 92.3672 287.977 92.0547 287.727C91.7422 287.477 91.3516 287.352 90.8828 287.352C90.4141 287.352 90.0234 287.477 89.7109 287.727C89.4036 287.977 89.1719 288.315 89.0156 288.742C88.8594 289.169 88.7812 289.654 88.7812 290.195C88.7812 290.727 88.8594 291.206 89.0156 291.633C89.1719 292.06 89.4036 292.401 89.7109 292.656C90.0234 292.906 90.4141 293.031 90.8828 293.031ZM98.7969 289.438V294.5H96.7734V285.82H98.7031L98.7266 287.969H98.5391C98.7839 287.219 99.1432 286.654 99.6172 286.273C100.096 285.893 100.693 285.703 101.406 285.703C102 285.703 102.521 285.831 102.969 286.086C103.417 286.341 103.763 286.714 104.008 287.203C104.258 287.693 104.383 288.289 104.383 288.992V294.5H102.359V289.305C102.359 288.716 102.208 288.258 101.906 287.93C101.604 287.596 101.188 287.43 100.656 287.43C100.297 287.43 99.9766 287.508 99.6953 287.664C99.4193 287.82 99.2005 288.047 99.0391 288.344C98.8776 288.641 98.7969 289.005 98.7969 289.438ZM106.492 294.5V285.82H108.516V294.5H106.492ZM107.5 284.586C107.177 284.586 106.898 284.477 106.664 284.258C106.435 284.039 106.32 283.776 106.32 283.469C106.32 283.156 106.435 282.893 106.664 282.68C106.898 282.466 107.177 282.359 107.5 282.359C107.828 282.359 108.107 282.466 108.336 282.68C108.57 282.893 108.688 283.156 108.688 283.469C108.688 283.776 108.57 284.039 108.336 284.258C108.107 284.477 107.828 284.586 107.5 284.586ZM114.406 294.68C113.562 294.68 112.828 294.492 112.203 294.117C111.583 293.742 111.102 293.219 110.758 292.547C110.419 291.87 110.25 291.089 110.25 290.203C110.25 289.302 110.419 288.516 110.758 287.844C111.102 287.167 111.583 286.641 112.203 286.266C112.828 285.891 113.562 285.703 114.406 285.703C114.896 285.703 115.349 285.768 115.766 285.898C116.188 286.023 116.562 286.208 116.891 286.453C117.219 286.693 117.492 286.984 117.711 287.328C117.93 287.672 118.083 288.057 118.172 288.484L116.266 288.844C116.214 288.615 116.133 288.409 116.023 288.227C115.919 288.044 115.789 287.888 115.633 287.758C115.477 287.628 115.297 287.529 115.094 287.461C114.891 287.388 114.667 287.352 114.422 287.352C113.953 287.352 113.562 287.477 113.25 287.727C112.938 287.971 112.703 288.307 112.547 288.734C112.391 289.161 112.312 289.648 112.312 290.195C112.312 290.732 112.391 291.214 112.547 291.641C112.703 292.068 112.938 292.406 113.25 292.656C113.562 292.906 113.953 293.031 114.422 293.031C114.672 293.031 114.898 292.995 115.102 292.922C115.31 292.849 115.492 292.745 115.648 292.609C115.81 292.474 115.943 292.31 116.047 292.117C116.156 291.924 116.237 291.714 116.289 291.484L118.188 291.836C118.104 292.273 117.953 292.667 117.734 293.016C117.516 293.365 117.24 293.664 116.906 293.914C116.578 294.159 116.203 294.349 115.781 294.484C115.359 294.615 114.901 294.68 114.406 294.68Z" fill="#111827"/>
<path d="M129.017 293.589C128.761 293.589 128.543 293.5 128.36 293.322C128.183 293.14 128.094 292.921 128.094 292.666C128.094 292.411 128.183 292.194 128.36 292.017C128.543 291.834 128.761 291.743 129.017 291.743C129.272 291.743 129.488 291.834 129.666 292.017C129.848 292.194 129.939 292.411 129.939 292.666C129.939 292.921 129.848 293.14 129.666 293.322C129.488 293.5 129.272 293.589 129.017 293.589ZM135.326 293.5L139.024 283.314H140.528L144.274 293.5H142.907L140.747 287.457C140.615 287.083 140.46 286.618 140.282 286.062C140.109 285.502 139.897 284.789 139.646 283.923H139.893C139.646 284.798 139.432 285.52 139.25 286.09C139.072 286.655 138.924 287.111 138.806 287.457L136.707 293.5H135.326ZM137.186 290.656V289.521H142.415V290.656H137.186ZM146.975 293.5L144.199 283.314H145.525L147.139 289.562C147.225 289.895 147.307 290.235 147.385 290.581C147.462 290.923 147.537 291.271 147.61 291.627C147.683 291.978 147.752 292.34 147.815 292.714H147.658C147.727 292.34 147.797 291.978 147.87 291.627C147.943 291.271 148.021 290.923 148.103 290.581C148.185 290.235 148.269 289.895 148.355 289.562L150.003 283.314H151.479L153.113 289.562C153.204 289.895 153.289 290.235 153.366 290.581C153.448 290.923 153.528 291.271 153.605 291.627C153.683 291.978 153.756 292.34 153.824 292.714H153.646C153.715 292.34 153.785 291.978 153.858 291.627C153.931 291.271 154.009 290.923 154.091 290.581C154.173 290.235 154.255 289.895 154.337 289.562L155.943 283.314H157.283L154.494 293.5H152.983L151.233 287.047C151.119 286.628 151.01 286.172 150.905 285.68C150.8 285.183 150.698 284.611 150.598 283.964H150.871C150.771 284.575 150.673 285.121 150.577 285.604C150.481 286.083 150.368 286.564 150.235 287.047L148.492 293.5H146.975ZM162.13 293.678C161.396 293.678 160.758 293.559 160.216 293.322C159.678 293.085 159.257 292.755 158.951 292.331C158.646 291.903 158.473 291.404 158.432 290.834H159.765C159.801 291.217 159.931 291.534 160.154 291.784C160.378 292.03 160.662 292.215 161.009 292.338C161.36 292.456 161.733 292.516 162.13 292.516C162.59 292.516 163.003 292.44 163.367 292.29C163.736 292.14 164.028 291.928 164.242 291.654C164.456 291.381 164.563 291.064 164.563 290.704C164.563 290.376 164.47 290.109 164.283 289.904C164.101 289.699 163.857 289.531 163.552 289.398C163.246 289.266 162.911 289.15 162.547 289.05L161.316 288.701C160.496 288.469 159.858 288.136 159.402 287.703C158.947 287.27 158.719 286.716 158.719 286.042C158.719 285.468 158.874 284.966 159.184 284.538C159.493 284.105 159.913 283.77 160.441 283.533C160.97 283.296 161.562 283.178 162.219 283.178C162.889 283.178 163.481 283.296 163.996 283.533C164.511 283.77 164.917 284.094 165.213 284.504C165.514 284.91 165.673 285.37 165.691 285.885H164.42C164.361 285.388 164.124 285.005 163.709 284.736C163.294 284.463 162.784 284.326 162.178 284.326C161.74 284.326 161.355 284.399 161.022 284.545C160.694 284.686 160.439 284.882 160.257 285.133C160.075 285.379 159.983 285.661 159.983 285.98C159.983 286.336 160.093 286.623 160.312 286.842C160.535 287.056 160.797 287.225 161.098 287.348C161.403 287.466 161.679 287.56 161.925 287.628L162.943 287.908C163.217 287.981 163.518 288.081 163.846 288.209C164.178 288.337 164.495 288.507 164.796 288.722C165.097 288.931 165.343 289.2 165.534 289.528C165.73 289.852 165.828 290.251 165.828 290.725C165.828 291.281 165.682 291.782 165.391 292.229C165.104 292.675 164.684 293.028 164.133 293.288C163.581 293.548 162.914 293.678 162.13 293.678ZM167.496 295.954L168.098 292.078H169.506L168.439 295.954H167.496ZM177.121 283.314V293.5H175.822V283.314H177.121ZM180.662 288.92V293.5H179.432V285.857H180.614L180.621 287.71H180.45C180.683 287.004 181.013 286.502 181.441 286.206C181.874 285.91 182.38 285.762 182.959 285.762C183.474 285.762 183.925 285.869 184.312 286.083C184.7 286.293 185.001 286.612 185.215 287.04C185.434 287.464 185.543 287.999 185.543 288.646V293.5H184.312V288.749C184.312 288.161 184.158 287.701 183.848 287.368C183.542 287.035 183.123 286.869 182.59 286.869C182.225 286.869 181.897 286.949 181.605 287.108C181.314 287.268 181.084 287.5 180.915 287.806C180.746 288.111 180.662 288.482 180.662 288.92ZM190.567 293.664C189.934 293.664 189.373 293.502 188.886 293.179C188.398 292.855 188.018 292.397 187.744 291.805C187.471 291.212 187.334 290.51 187.334 289.699C187.334 288.893 187.471 288.195 187.744 287.607C188.022 287.015 188.405 286.559 188.893 286.24C189.38 285.921 189.941 285.762 190.574 285.762C191.071 285.762 191.465 285.844 191.757 286.008C192.049 286.172 192.272 286.359 192.427 286.568C192.586 286.773 192.707 286.944 192.789 287.081H192.885V283.314H194.115V293.5H192.926V292.317H192.789C192.707 292.459 192.584 292.636 192.42 292.851C192.26 293.06 192.033 293.249 191.736 293.418C191.445 293.582 191.055 293.664 190.567 293.664ZM190.752 292.563C191.217 292.563 191.609 292.443 191.928 292.201C192.247 291.955 192.488 291.616 192.652 291.183C192.816 290.75 192.898 290.251 192.898 289.686C192.898 289.12 192.816 288.628 192.652 288.209C192.493 287.785 192.254 287.455 191.935 287.218C191.616 286.981 191.221 286.862 190.752 286.862C190.269 286.862 189.866 286.988 189.542 287.238C189.223 287.489 188.984 287.828 188.824 288.257C188.665 288.681 188.585 289.157 188.585 289.686C188.585 290.219 188.665 290.704 188.824 291.142C188.988 291.575 189.232 291.921 189.556 292.181C189.879 292.436 190.278 292.563 190.752 292.563ZM196.275 293.5V285.857H197.506V293.5H196.275ZM196.897 284.606C196.665 284.606 196.465 284.527 196.296 284.367C196.127 284.208 196.043 284.016 196.043 283.793C196.043 283.565 196.127 283.374 196.296 283.219C196.465 283.059 196.665 282.979 196.897 282.979C197.134 282.979 197.337 283.059 197.506 283.219C197.674 283.374 197.759 283.565 197.759 283.793C197.759 284.016 197.674 284.208 197.506 284.367C197.337 284.527 197.134 284.606 196.897 284.606ZM202.523 293.664C201.895 293.664 201.336 293.502 200.849 293.179C200.366 292.855 199.985 292.397 199.707 291.805C199.434 291.212 199.297 290.51 199.297 289.699C199.297 288.893 199.436 288.195 199.714 287.607C199.992 287.015 200.375 286.559 200.862 286.24C201.354 285.921 201.917 285.762 202.551 285.762C203.043 285.762 203.435 285.844 203.727 286.008C204.018 286.167 204.242 286.352 204.396 286.562C204.551 286.771 204.67 286.944 204.752 287.081H204.854V285.857H206.078V293.5H204.861V292.317H204.752C204.67 292.459 204.547 292.636 204.383 292.851C204.223 293.065 203.995 293.254 203.699 293.418C203.403 293.582 203.011 293.664 202.523 293.664ZM202.729 292.563C203.193 292.563 203.585 292.443 203.904 292.201C204.223 291.955 204.465 291.616 204.629 291.183C204.793 290.75 204.875 290.251 204.875 289.686C204.875 289.12 204.793 288.628 204.629 288.209C204.469 287.785 204.23 287.455 203.911 287.218C203.592 286.981 203.198 286.862 202.729 286.862C202.245 286.862 201.842 286.988 201.519 287.238C201.195 287.484 200.951 287.822 200.787 288.25C200.628 288.674 200.548 289.152 200.548 289.686C200.548 290.219 200.63 290.704 200.794 291.142C200.958 291.575 201.202 291.921 201.525 292.181C201.849 292.436 202.25 292.563 202.729 292.563Z" fill="#111827"/>
<rect x="487" y="280.5" width="16" height="16" rx="8" fill="white"/>
<rect x="487" y="280.5" width="16" height="16" rx="8" stroke="#E4E4E7"/>
<g filter="url(#filter1_d_2616_4906)">
<path d="M29.4912 341.678C28.7575 341.678 28.1195 341.559 27.5771 341.322C27.0394 341.085 26.6178 340.755 26.3125 340.331C26.0072 339.903 25.834 339.404 25.793 338.834H27.126C27.1624 339.217 27.2923 339.534 27.5156 339.784C27.7389 340.03 28.0238 340.215 28.3701 340.338C28.721 340.456 29.0947 340.516 29.4912 340.516C29.9515 340.516 30.3639 340.44 30.7285 340.29C31.0977 340.14 31.3893 339.928 31.6035 339.654C31.8177 339.381 31.9248 339.064 31.9248 338.704C31.9248 338.376 31.8314 338.109 31.6445 337.904C31.4622 337.699 31.2184 337.531 30.9131 337.398C30.6077 337.266 30.2728 337.15 29.9082 337.05L28.6777 336.701C27.8574 336.469 27.2194 336.136 26.7637 335.703C26.3079 335.27 26.0801 334.716 26.0801 334.042C26.0801 333.468 26.235 332.966 26.5449 332.538C26.8548 332.105 27.2741 331.77 27.8027 331.533C28.3314 331.296 28.9238 331.178 29.5801 331.178C30.25 331.178 30.8424 331.296 31.3574 331.533C31.8724 331.77 32.278 332.094 32.5742 332.504C32.875 332.91 33.0345 333.37 33.0527 333.885H31.7812C31.722 333.388 31.485 333.005 31.0703 332.736C30.6556 332.463 30.1452 332.326 29.5391 332.326C29.1016 332.326 28.7165 332.399 28.3838 332.545C28.0557 332.686 27.8005 332.882 27.6182 333.133C27.4359 333.379 27.3447 333.661 27.3447 333.98C27.3447 334.336 27.4541 334.623 27.6729 334.842C27.8962 335.056 28.1582 335.225 28.459 335.348C28.7643 335.466 29.04 335.56 29.2861 335.628L30.3047 335.908C30.5781 335.981 30.8789 336.081 31.207 336.209C31.5397 336.337 31.8564 336.507 32.1572 336.722C32.458 336.931 32.7041 337.2 32.8955 337.528C33.0915 337.852 33.1895 338.251 33.1895 338.725C33.1895 339.281 33.0436 339.782 32.752 340.229C32.4648 340.675 32.0456 341.028 31.4941 341.288C30.9427 341.548 30.2751 341.678 29.4912 341.678ZM38.2754 341.664C37.5371 341.664 36.8991 341.5 36.3613 341.172C35.8281 340.844 35.4157 340.386 35.124 339.798C34.8369 339.21 34.6934 338.524 34.6934 337.74C34.6934 336.956 34.8346 336.266 35.1172 335.669C35.3997 335.072 35.7985 334.605 36.3135 334.268C36.833 333.93 37.4391 333.762 38.1318 333.762C38.5374 333.762 38.9362 333.83 39.3281 333.967C39.7246 334.099 40.0824 334.315 40.4014 334.616C40.7249 334.912 40.9824 335.304 41.1738 335.792C41.3652 336.28 41.4609 336.877 41.4609 337.583V338.096H35.5273V337.057H40.7979L40.2236 337.439C40.2236 336.938 40.1439 336.494 39.9844 336.106C39.8294 335.715 39.597 335.409 39.2871 335.19C38.9772 334.967 38.5921 334.855 38.1318 334.855C37.6715 334.855 37.2773 334.969 36.9492 335.197C36.6211 335.421 36.3704 335.715 36.1973 336.079C36.0241 336.439 35.9375 336.826 35.9375 337.241V337.932C35.9375 338.497 36.0355 338.978 36.2314 339.374C36.4274 339.766 36.7008 340.064 37.0518 340.27C37.4072 340.47 37.8174 340.57 38.2822 340.57C38.583 340.57 38.8564 340.527 39.1025 340.44C39.3486 340.354 39.5605 340.224 39.7383 340.051C39.916 339.873 40.0527 339.654 40.1484 339.395L41.3379 339.723C41.2194 340.105 41.0189 340.443 40.7363 340.734C40.4538 341.026 40.1029 341.254 39.6836 341.418C39.2689 341.582 38.7995 341.664 38.2754 341.664ZM46.082 341.664C45.4531 341.664 44.8949 341.502 44.4072 341.179C43.9242 340.855 43.5436 340.397 43.2656 339.805C42.9922 339.212 42.8555 338.51 42.8555 337.699C42.8555 336.893 42.9945 336.195 43.2725 335.607C43.5505 335.015 43.9333 334.559 44.4209 334.24C44.9131 333.921 45.4759 333.762 46.1094 333.762C46.6016 333.762 46.9935 333.844 47.2852 334.008C47.5768 334.167 47.8001 334.352 47.9551 334.562C48.11 334.771 48.2285 334.944 48.3105 335.081H48.4131V333.857H49.6367V341.5H48.4199V340.317H48.3105C48.2285 340.459 48.1055 340.636 47.9414 340.851C47.7819 341.065 47.554 341.254 47.2578 341.418C46.9616 341.582 46.5697 341.664 46.082 341.664ZM46.2871 340.563C46.752 340.563 47.1439 340.443 47.4629 340.201C47.7819 339.955 48.0234 339.616 48.1875 339.183C48.3516 338.75 48.4336 338.251 48.4336 337.686C48.4336 337.12 48.3516 336.628 48.1875 336.209C48.028 335.785 47.7887 335.455 47.4697 335.218C47.1507 334.981 46.7565 334.862 46.2871 334.862C45.804 334.862 45.4007 334.988 45.0771 335.238C44.7536 335.484 44.5098 335.822 44.3457 336.25C44.1862 336.674 44.1064 337.152 44.1064 337.686C44.1064 338.219 44.1885 338.704 44.3525 339.142C44.5166 339.575 44.7604 339.921 45.084 340.181C45.4076 340.436 45.8086 340.563 46.2871 340.563ZM51.7969 341.5V333.857H52.9863V335.033H53.0684C53.2096 334.646 53.4603 334.336 53.8203 334.104C54.1849 333.867 54.5951 333.748 55.0508 333.748C55.1419 333.748 55.249 333.75 55.3721 333.755C55.4997 333.759 55.5999 333.764 55.6729 333.769V335.006C55.6364 334.997 55.5452 334.983 55.3994 334.965C55.2536 334.947 55.0986 334.938 54.9346 334.938C54.57 334.938 54.2419 335.015 53.9502 335.17C53.6631 335.32 53.4375 335.53 53.2734 335.799C53.1094 336.063 53.0273 336.368 53.0273 336.715V341.5H51.7969ZM59.9521 341.664C59.2594 341.664 58.651 341.5 58.127 341.172C57.6074 340.844 57.2018 340.383 56.9102 339.791C56.6185 339.199 56.4727 338.51 56.4727 337.727C56.4727 336.929 56.6185 336.234 56.9102 335.642C57.2018 335.045 57.6074 334.582 58.127 334.254C58.651 333.926 59.2594 333.762 59.9521 333.762C60.3213 333.762 60.6699 333.81 60.998 333.905C61.3262 334.001 61.6247 334.14 61.8936 334.322C62.167 334.5 62.4017 334.721 62.5977 334.985C62.7936 335.245 62.944 335.541 63.0488 335.874L61.8662 336.209C61.8115 336.013 61.7272 335.833 61.6133 335.669C61.4993 335.505 61.3604 335.364 61.1963 335.245C61.0368 335.122 60.8522 335.029 60.6426 334.965C60.4329 334.896 60.2028 334.862 59.9521 334.862C59.4417 334.862 59.0225 334.997 58.6943 335.266C58.3662 335.53 58.1224 335.879 57.9629 336.312C57.8034 336.744 57.7236 337.216 57.7236 337.727C57.7236 338.228 57.8034 338.695 57.9629 339.128C58.1224 339.556 58.3662 339.903 58.6943 340.167C59.0225 340.431 59.4417 340.563 59.9521 340.563C60.2074 340.563 60.4421 340.529 60.6562 340.461C60.8704 340.393 61.0596 340.297 61.2236 340.174C61.3923 340.046 61.5335 339.896 61.6475 339.723C61.7614 339.549 61.8457 339.36 61.9004 339.155L63.0762 339.49C62.9759 339.832 62.8255 340.137 62.625 340.406C62.429 340.671 62.1943 340.898 61.9209 341.09C61.6475 341.277 61.3444 341.418 61.0117 341.514C60.679 341.614 60.3258 341.664 59.9521 341.664ZM66.0703 336.92V341.5H64.8398V331.314H66.0703V335.71H65.8584C66.0908 335.004 66.4212 334.502 66.8496 334.206C67.2826 333.91 67.7884 333.762 68.3672 333.762C68.8822 333.762 69.3333 333.869 69.7207 334.083C70.1126 334.293 70.4157 334.612 70.6299 335.04C70.8486 335.464 70.958 335.999 70.958 336.646V341.5H69.7207V336.749C69.7207 336.161 69.5658 335.701 69.2559 335.368C68.9505 335.035 68.5312 334.869 67.998 334.869C67.6335 334.869 67.3053 334.949 67.0137 335.108C66.722 335.268 66.4919 335.5 66.3232 335.806C66.1546 336.111 66.0703 336.482 66.0703 336.92ZM80.6172 333.857V334.91H76.1191V333.857H80.6172ZM77.623 341.5V332.839C77.623 332.397 77.7256 332.028 77.9307 331.731C78.1403 331.435 78.4115 331.212 78.7441 331.062C79.0768 330.911 79.4277 330.836 79.7969 330.836C80.0885 330.836 80.3301 330.861 80.5215 330.911C80.7129 330.957 80.8542 331 80.9453 331.041L80.6035 332.094C80.5397 332.071 80.4554 332.046 80.3506 332.019C80.2503 331.991 80.1136 331.978 79.9404 331.978C79.5622 331.978 79.2865 332.076 79.1133 332.271C78.9401 332.463 78.8535 332.743 78.8535 333.112V341.5H77.623ZM84.9443 341.664C84.2516 341.664 83.6432 341.5 83.1191 341.172C82.5996 340.844 82.194 340.383 81.9023 339.791C81.6107 339.199 81.4648 338.51 81.4648 337.727C81.4648 336.929 81.6107 336.234 81.9023 335.642C82.194 335.045 82.5996 334.582 83.1191 334.254C83.6432 333.926 84.2516 333.762 84.9443 333.762C85.6416 333.762 86.2523 333.926 86.7764 334.254C87.3005 334.582 87.7083 335.045 88 335.642C88.2917 336.234 88.4375 336.929 88.4375 337.727C88.4375 338.51 88.2917 339.199 88 339.791C87.7083 340.383 87.3005 340.844 86.7764 341.172C86.2523 341.5 85.6416 341.664 84.9443 341.664ZM84.9443 340.563C85.4593 340.563 85.8831 340.431 86.2158 340.167C86.5485 339.903 86.7946 339.556 86.9541 339.128C87.1136 338.695 87.1934 338.228 87.1934 337.727C87.1934 337.221 87.1136 336.751 86.9541 336.318C86.7946 335.881 86.5485 335.53 86.2158 335.266C85.8831 334.997 85.4593 334.862 84.9443 334.862C84.4339 334.862 84.0146 334.997 83.6865 335.266C83.3584 335.53 83.1146 335.879 82.9551 336.312C82.7956 336.744 82.7158 337.216 82.7158 337.727C82.7158 338.228 82.7956 338.695 82.9551 339.128C83.1146 339.556 83.3584 339.903 83.6865 340.167C84.0146 340.431 84.4339 340.563 84.9443 340.563ZM90.2285 341.5V333.857H91.418V335.033H91.5C91.6413 334.646 91.8919 334.336 92.252 334.104C92.6165 333.867 93.0267 333.748 93.4824 333.748C93.5736 333.748 93.6807 333.75 93.8037 333.755C93.9313 333.759 94.0316 333.764 94.1045 333.769V335.006C94.068 334.997 93.9769 334.983 93.8311 334.965C93.6852 334.947 93.5303 334.938 93.3662 334.938C93.0016 334.938 92.6735 335.015 92.3818 335.17C92.0947 335.32 91.8691 335.53 91.7051 335.799C91.541 336.063 91.459 336.368 91.459 336.715V341.5H90.2285ZM99.4434 341.5V333.857H100.64L100.646 335.566H100.551C100.656 335.152 100.82 334.81 101.043 334.541C101.271 334.268 101.535 334.062 101.836 333.926C102.141 333.789 102.458 333.721 102.786 333.721C103.342 333.721 103.791 333.892 104.133 334.233C104.479 334.575 104.702 335.024 104.803 335.58H104.639C104.73 335.197 104.896 334.867 105.138 334.589C105.379 334.311 105.671 334.097 106.013 333.946C106.359 333.796 106.735 333.721 107.141 333.721C107.583 333.721 107.986 333.816 108.351 334.008C108.715 334.199 109.005 334.489 109.219 334.876C109.438 335.263 109.547 335.753 109.547 336.346V341.5H108.31V336.38C108.31 335.828 108.155 335.434 107.845 335.197C107.539 334.96 107.182 334.842 106.771 334.842C106.43 334.842 106.133 334.915 105.883 335.061C105.637 335.202 105.445 335.398 105.309 335.648C105.176 335.899 105.11 336.186 105.11 336.51V341.5H103.88V336.257C103.88 335.833 103.739 335.491 103.456 335.231C103.174 334.972 102.816 334.842 102.383 334.842C102.087 334.842 101.806 334.912 101.542 335.054C101.282 335.19 101.073 335.396 100.913 335.669C100.754 335.942 100.674 336.282 100.674 336.688V341.5H99.4434ZM114.817 341.664C114.125 341.664 113.516 341.5 112.992 341.172C112.473 340.844 112.067 340.383 111.775 339.791C111.484 339.199 111.338 338.51 111.338 337.727C111.338 336.929 111.484 336.234 111.775 335.642C112.067 335.045 112.473 334.582 112.992 334.254C113.516 333.926 114.125 333.762 114.817 333.762C115.515 333.762 116.125 333.926 116.649 334.254C117.174 334.582 117.581 335.045 117.873 335.642C118.165 336.234 118.311 336.929 118.311 337.727C118.311 338.51 118.165 339.199 117.873 339.791C117.581 340.383 117.174 340.844 116.649 341.172C116.125 341.5 115.515 341.664 114.817 341.664ZM114.817 340.563C115.332 340.563 115.756 340.431 116.089 340.167C116.422 339.903 116.668 339.556 116.827 339.128C116.987 338.695 117.066 338.228 117.066 337.727C117.066 337.221 116.987 336.751 116.827 336.318C116.668 335.881 116.422 335.53 116.089 335.266C115.756 334.997 115.332 334.862 114.817 334.862C114.307 334.862 113.888 334.997 113.56 335.266C113.231 335.53 112.988 335.879 112.828 336.312C112.669 336.744 112.589 337.216 112.589 337.727C112.589 338.228 112.669 338.695 112.828 339.128C112.988 339.556 113.231 339.903 113.56 340.167C113.888 340.431 114.307 340.563 114.817 340.563ZM120.102 341.5V333.857H121.291V335.033H121.373C121.514 334.646 121.765 334.336 122.125 334.104C122.49 333.867 122.9 333.748 123.355 333.748C123.447 333.748 123.554 333.75 123.677 333.755C123.804 333.759 123.905 333.764 123.978 333.769V335.006C123.941 334.997 123.85 334.983 123.704 334.965C123.558 334.947 123.403 334.938 123.239 334.938C122.875 334.938 122.547 335.015 122.255 335.17C121.968 335.32 121.742 335.53 121.578 335.799C121.414 336.063 121.332 336.368 121.332 336.715V341.5H120.102ZM128.359 341.664C127.621 341.664 126.983 341.5 126.445 341.172C125.912 340.844 125.5 340.386 125.208 339.798C124.921 339.21 124.777 338.524 124.777 337.74C124.777 336.956 124.919 336.266 125.201 335.669C125.484 335.072 125.882 334.605 126.397 334.268C126.917 333.93 127.523 333.762 128.216 333.762C128.621 333.762 129.02 333.83 129.412 333.967C129.809 334.099 130.166 334.315 130.485 334.616C130.809 334.912 131.066 335.304 131.258 335.792C131.449 336.28 131.545 336.877 131.545 337.583V338.096H125.611V337.057H130.882L130.308 337.439C130.308 336.938 130.228 336.494 130.068 336.106C129.913 335.715 129.681 335.409 129.371 335.19C129.061 334.967 128.676 334.855 128.216 334.855C127.756 334.855 127.361 334.969 127.033 335.197C126.705 335.421 126.454 335.715 126.281 336.079C126.108 336.439 126.021 336.826 126.021 337.241V337.932C126.021 338.497 126.119 338.978 126.315 339.374C126.511 339.766 126.785 340.064 127.136 340.27C127.491 340.47 127.901 340.57 128.366 340.57C128.667 340.57 128.94 340.527 129.187 340.44C129.433 340.354 129.645 340.224 129.822 340.051C130 339.873 130.137 339.654 130.232 339.395L131.422 339.723C131.303 340.105 131.103 340.443 130.82 340.734C130.538 341.026 130.187 341.254 129.768 341.418C129.353 341.582 128.883 341.664 128.359 341.664ZM134.245 341.589C133.99 341.589 133.771 341.5 133.589 341.322C133.411 341.14 133.322 340.921 133.322 340.666C133.322 340.411 133.411 340.194 133.589 340.017C133.771 339.834 133.99 339.743 134.245 339.743C134.5 339.743 134.717 339.834 134.895 340.017C135.077 340.194 135.168 340.411 135.168 340.666C135.168 340.921 135.077 341.14 134.895 341.322C134.717 341.5 134.5 341.589 134.245 341.589ZM138.278 341.589C138.023 341.589 137.804 341.5 137.622 341.322C137.444 341.14 137.355 340.921 137.355 340.666C137.355 340.411 137.444 340.194 137.622 340.017C137.804 339.834 138.023 339.743 138.278 339.743C138.534 339.743 138.75 339.834 138.928 340.017C139.11 340.194 139.201 340.411 139.201 340.666C139.201 340.921 139.11 341.14 138.928 341.322C138.75 341.5 138.534 341.589 138.278 341.589ZM142.312 341.589C142.056 341.589 141.838 341.5 141.655 341.322C141.478 341.14 141.389 340.921 141.389 340.666C141.389 340.411 141.478 340.194 141.655 340.017C141.838 339.834 142.056 339.743 142.312 339.743C142.567 339.743 142.783 339.834 142.961 340.017C143.143 340.194 143.234 340.411 143.234 340.666C143.234 340.921 143.143 341.14 142.961 341.322C142.783 341.5 142.567 341.589 142.312 341.589Z" fill="#2563EB"/>
</g>
</g>
<rect x="5" y="96.5" width="514" height="268" rx="8" stroke="#F4F4F5"/>
</g>
<defs>
<filter id="filter0_d_2616_4906" x="0.5" y="93" width="523" height="277" filterUnits="userSpaceOnUse" color-interpolation-filters="sRGB">
<feFlood flood-opacity="0" result="BackgroundImageFix"/>
<feColorMatrix in="SourceAlpha" type="matrix" values="0 0 0 0 0 0 0 0 0 0 0 0 0 0 0 0 0 0 127 0" result="hardAlpha"/>
<feOffset dy="1"/>
<feGaussianBlur stdDeviation="2"/>
<feComposite in2="hardAlpha" operator="out"/>
<feColorMatrix type="matrix" values="0 0 0 0 0 0 0 0 0 0 0 0 0 0 0 0 0 0 0.05 0"/>
<feBlend mode="normal" in2="BackgroundImageFix" result="effect1_dropShadow_2616_4906"/>
<feBlend mode="normal" in="SourceGraphic" in2="effect1_dropShadow_2616_4906" result="shape"/>
</filter>
<filter id="filter1_d_2616_4906" x="17" y="321.5" width="136" height="32" filterUnits="userSpaceOnUse" color-interpolation-filters="sRGB">
<feFlood flood-opacity="0" result="BackgroundImageFix"/>
<feColorMatrix in="SourceAlpha" type="matrix" values="0 0 0 0 0 0 0 0 0 0 0 0 0 0 0 0 0 0 127 0" result="hardAlpha"/>
<feOffset dy="1"/>
<feGaussianBlur stdDeviation="2"/>
<feComposite in2="hardAlpha" operator="out"/>
<feColorMatrix type="matrix" values="0 0 0 0 0 0 0 0 0 0 0 0 0 0 0 0 0 0 0.05 0"/>
<feBlend mode="normal" in2="BackgroundImageFix" result="effect1_dropShadow_2616_4906"/>
<feBlend mode="normal" in="SourceGraphic" in2="effect1_dropShadow_2616_4906" result="shape"/>
</filter>
<clipPath id="clip0_2616_4906">
<rect x="5" y="28.5" width="514" height="36" rx="4" fill="white"/>
</clipPath>
<clipPath id="clip1_2616_4906">
<rect x="5" y="96.5" width="514" height="268" rx="8" fill="white"/>
</clipPath>
<clipPath id="clip2_2616_4906">
<rect x="261" y="104.5" width="250" height="36" rx="4" fill="white"/>
</clipPath>
</defs>
</svg>
