<svg width="606" height="370" viewBox="0 0 606 370" fill="none" xmlns="http://www.w3.org/2000/svg">
<path d="M6.12793 17V6.81445H9.77832C10.5622 6.81445 11.2161 6.96029 11.7402 7.25195C12.2643 7.54362 12.6562 7.93783 12.916 8.43457C13.1758 8.93132 13.3057 9.49414 13.3057 10.123C13.3057 10.752 13.1735 11.3171 12.9092 11.8184C12.6494 12.3151 12.2575 12.7093 11.7334 13.001C11.2093 13.2881 10.5531 13.4316 9.76465 13.4316H7.26953V12.1123H9.61426C10.1156 12.1123 10.5212 12.0257 10.8311 11.8525C11.141 11.6794 11.3665 11.4424 11.5078 11.1416C11.6536 10.8408 11.7266 10.5013 11.7266 10.123C11.7266 9.74023 11.6536 9.40072 11.5078 9.10449C11.3665 8.80371 11.1387 8.56901 10.8242 8.40039C10.5143 8.23177 10.1064 8.14746 9.60059 8.14746H7.68652V17H6.12793ZM14.9941 17V9.35742H16.4502V10.5879H16.5322C16.6735 10.1686 16.9196 9.84049 17.2705 9.60352C17.6214 9.36654 18.0202 9.24805 18.4668 9.24805C18.5625 9.24805 18.6719 9.2526 18.7949 9.26172C18.918 9.26628 19.0205 9.27539 19.1025 9.28906V10.7246C19.0479 10.7064 18.943 10.6882 18.7881 10.6699C18.6331 10.6517 18.4759 10.6426 18.3164 10.6426C17.9701 10.6426 17.6579 10.7155 17.3799 10.8613C17.1019 11.0072 16.8854 11.21 16.7305 11.4697C16.5755 11.7249 16.498 12.0212 16.498 12.3584V17H14.9941ZM23.3477 17.1572C22.6322 17.1572 22.0055 16.9932 21.4678 16.665C20.9346 16.3369 20.5199 15.8766 20.2236 15.2842C19.9274 14.6917 19.7793 14.0036 19.7793 13.2197C19.7793 12.4268 19.9274 11.734 20.2236 11.1416C20.5199 10.5446 20.9346 10.082 21.4678 9.75391C22.0055 9.42578 22.6322 9.26172 23.3477 9.26172C24.0677 9.26172 24.6943 9.42578 25.2275 9.75391C25.7653 10.082 26.1823 10.5446 26.4785 11.1416C26.7747 11.734 26.9229 12.4268 26.9229 13.2197C26.9229 14.0036 26.7747 14.6917 26.4785 15.2842C26.1823 15.8766 25.7653 16.3369 25.2275 16.665C24.6943 16.9932 24.0677 17.1572 23.3477 17.1572ZM23.3477 15.8857C23.8125 15.8857 24.1953 15.765 24.4961 15.5234C24.8014 15.2773 25.027 14.9538 25.1729 14.5527C25.3232 14.1471 25.3984 13.7028 25.3984 13.2197C25.3984 12.7321 25.3232 12.2855 25.1729 11.8799C25.027 11.4697 24.8014 11.1439 24.4961 10.9023C24.1953 10.6562 23.8125 10.5332 23.3477 10.5332C22.8874 10.5332 22.5068 10.6562 22.2061 10.9023C21.9053 11.1439 21.6797 11.4674 21.5293 11.873C21.3835 12.2786 21.3105 12.7275 21.3105 13.2197C21.3105 13.7028 21.3835 14.1471 21.5293 14.5527C21.6797 14.9538 21.9053 15.2773 22.2061 15.5234C22.5068 15.765 22.8874 15.8857 23.3477 15.8857ZM28.5908 9.35742H30.1016V17.4922C30.1061 18.0117 30.0127 18.4469 29.8213 18.7979C29.6344 19.1488 29.3587 19.4131 28.9941 19.5908C28.6296 19.7686 28.1829 19.8574 27.6543 19.8574H27.3535V18.5654H27.5928C27.9482 18.5654 28.2035 18.472 28.3584 18.2852C28.5133 18.1029 28.5908 17.8363 28.5908 17.4854V9.35742ZM29.3496 8.18848C29.0898 8.18848 28.8665 8.10189 28.6797 7.92871C28.4974 7.75553 28.4062 7.5459 28.4062 7.2998C28.4062 7.04915 28.4974 6.83724 28.6797 6.66406C28.8665 6.49089 29.0898 6.4043 29.3496 6.4043C29.6094 6.4043 29.8327 6.49089 30.0195 6.66406C30.2064 6.83724 30.2998 7.04915 30.2998 7.2998C30.2998 7.5459 30.2064 7.75553 30.0195 7.92871C29.8327 8.10189 29.6094 8.18848 29.3496 8.18848ZM35.4199 17.1572C34.668 17.1572 34.0186 16.9954 33.4717 16.6719C32.9248 16.3483 32.5033 15.8926 32.207 15.3047C31.9154 14.7168 31.7695 14.0264 31.7695 13.2334C31.7695 12.4495 31.9131 11.7591 32.2002 11.1621C32.4919 10.5651 32.902 10.1003 33.4307 9.76758C33.9593 9.43034 34.5791 9.26172 35.29 9.26172C35.7275 9.26172 36.1491 9.33464 36.5547 9.48047C36.9603 9.62174 37.3249 9.84505 37.6484 10.1504C37.972 10.4557 38.2272 10.8522 38.4141 11.3398C38.6055 11.8229 38.7012 12.4108 38.7012 13.1035V13.6367H32.6104V12.5156H37.9287L37.2246 12.8848C37.2246 12.4154 37.1517 12.0029 37.0059 11.6475C36.86 11.2874 36.6436 11.0072 36.3564 10.8066C36.0739 10.6061 35.7184 10.5059 35.29 10.5059C34.8662 10.5059 34.5039 10.6084 34.2031 10.8135C33.9023 11.0186 33.6722 11.2897 33.5127 11.627C33.3577 11.9596 33.2803 12.3242 33.2803 12.7207V13.4863C33.2803 14.0104 33.3691 14.4548 33.5469 14.8193C33.7292 15.1794 33.9821 15.4528 34.3057 15.6396C34.6292 15.8219 35.0052 15.9131 35.4336 15.9131C35.7161 15.9131 35.9714 15.8743 36.1992 15.7969C36.4271 15.7148 36.623 15.5941 36.7871 15.4346C36.9557 15.2705 37.0833 15.07 37.1699 14.833L38.585 15.168C38.4619 15.5599 38.2546 15.9062 37.9629 16.207C37.6758 16.5078 37.3158 16.7425 36.8828 16.9111C36.4544 17.0752 35.9668 17.1572 35.4199 17.1572ZM43.5684 17.1572C42.8483 17.1572 42.2217 16.9932 41.6885 16.665C41.1553 16.3369 40.7406 15.8766 40.4443 15.2842C40.1481 14.6917 40 14.0036 40 13.2197C40 12.4268 40.1481 11.734 40.4443 11.1416C40.7406 10.5446 41.1553 10.082 41.6885 9.75391C42.2217 9.42578 42.8483 9.26172 43.5684 9.26172C43.9648 9.26172 44.3363 9.31413 44.6826 9.41895C45.029 9.51921 45.3411 9.66732 45.6191 9.86328C45.9017 10.0547 46.1387 10.2917 46.3301 10.5742C46.526 10.8522 46.6719 11.1667 46.7676 11.5176L45.3389 11.8594C45.2887 11.6634 45.2113 11.4857 45.1064 11.3262C45.0016 11.1621 44.874 11.0208 44.7236 10.9023C44.5778 10.7839 44.4069 10.6927 44.2109 10.6289C44.0195 10.5651 43.8076 10.5332 43.5752 10.5332C43.1149 10.5332 42.7321 10.6562 42.4268 10.9023C42.126 11.1439 41.9004 11.4674 41.75 11.873C41.6042 12.2786 41.5312 12.7275 41.5312 13.2197C41.5312 13.7074 41.6042 14.154 41.75 14.5596C41.9004 14.9606 42.126 15.2819 42.4268 15.5234C42.7321 15.765 43.1149 15.8857 43.5752 15.8857C43.8122 15.8857 44.0286 15.8538 44.2246 15.79C44.4206 15.7217 44.596 15.6283 44.751 15.5098C44.9059 15.3867 45.0358 15.2409 45.1406 15.0723C45.2454 14.8991 45.3206 14.71 45.3662 14.5049L46.7881 14.8467C46.6969 15.2067 46.5534 15.5303 46.3574 15.8174C46.1615 16.0999 45.9222 16.3415 45.6396 16.542C45.3617 16.7425 45.0472 16.8952 44.6963 17C44.3454 17.1048 43.9694 17.1572 43.5684 17.1572ZM51.7031 9.35742V10.5811H47.5605V9.35742H51.7031ZM48.6748 7.53906H50.1787V14.9355C50.1787 15.2409 50.2425 15.4665 50.3701 15.6123C50.5023 15.7536 50.7165 15.8242 51.0127 15.8242C51.0902 15.8242 51.1927 15.8151 51.3203 15.7969C51.4479 15.7786 51.5573 15.7604 51.6484 15.7422L51.915 16.9453C51.7555 17 51.5846 17.0387 51.4023 17.0615C51.2201 17.0889 51.04 17.1025 50.8623 17.1025C50.1696 17.1025 49.6318 16.9248 49.249 16.5693C48.8662 16.2093 48.6748 15.7057 48.6748 15.0586V7.53906ZM58.4434 12.4746V17H56.9395V9.35742H58.375L58.3887 11.2305H58.2314C58.4548 10.5469 58.7783 10.0479 59.2021 9.7334C59.626 9.41895 60.1387 9.26172 60.7402 9.26172C61.2598 9.26172 61.7132 9.37109 62.1006 9.58984C62.488 9.80859 62.791 10.1322 63.0098 10.5605C63.2285 10.9844 63.3379 11.513 63.3379 12.1465V17H61.834V12.3311C61.834 11.7796 61.6904 11.349 61.4033 11.0391C61.1162 10.7292 60.722 10.5742 60.2207 10.5742C59.8835 10.5742 59.5804 10.6494 59.3115 10.7998C59.0426 10.9456 58.8307 11.1598 58.6758 11.4424C58.5208 11.7249 58.4434 12.069 58.4434 12.4746ZM68.1982 17.1504C67.583 17.1504 67.0339 16.9932 66.5508 16.6787C66.0723 16.3597 65.694 15.9062 65.416 15.3184C65.1426 14.7259 65.0059 14.0195 65.0059 13.1992C65.0059 12.3698 65.1449 11.6611 65.4229 11.0732C65.7054 10.4854 66.0882 10.0365 66.5713 9.72656C67.0589 9.41667 67.6081 9.26172 68.2188 9.26172C68.6882 9.26172 69.0664 9.33919 69.3535 9.49414C69.6452 9.64909 69.8708 9.83366 70.0303 10.0479C70.1943 10.2575 70.3197 10.4421 70.4062 10.6016H70.502V9.35742H71.9922V17H70.5088V15.8037H70.4062C70.3197 15.9678 70.1921 16.1569 70.0234 16.3711C69.8548 16.5807 69.6247 16.763 69.333 16.918C69.0413 17.0729 68.6631 17.1504 68.1982 17.1504ZM68.5469 15.8721C68.9753 15.8721 69.3353 15.7581 69.627 15.5303C69.9232 15.3024 70.1465 14.988 70.2969 14.5869C70.4473 14.1813 70.5225 13.7142 70.5225 13.1855C70.5225 12.6523 70.4473 12.1898 70.2969 11.7979C70.1465 11.4014 69.9232 11.0938 69.627 10.875C69.3353 10.6517 68.9753 10.54 68.5469 10.54C68.1048 10.54 67.7357 10.6562 67.4395 10.8887C67.1432 11.1165 66.9199 11.431 66.7695 11.832C66.6191 12.2285 66.5439 12.6797 66.5439 13.1855C66.5439 13.6914 66.6191 14.1471 66.7695 14.5527C66.9199 14.9583 67.1432 15.2796 67.4395 15.5166C67.7402 15.7536 68.1094 15.8721 68.5469 15.8721ZM74.0156 17V9.35742H75.4443L75.4854 11.1279H75.3691C75.4785 10.695 75.6471 10.3395 75.875 10.0615C76.1029 9.78353 76.3695 9.57617 76.6748 9.43945C76.9801 9.29818 77.2992 9.22754 77.6318 9.22754C78.1878 9.22754 78.6367 9.40072 78.9785 9.74707C79.3203 10.0889 79.5505 10.5674 79.6689 11.1826H79.4775C79.5778 10.7633 79.751 10.4079 79.9971 10.1162C80.2432 9.82454 80.5394 9.60352 80.8857 9.45312C81.2367 9.30273 81.6104 9.22754 82.0068 9.22754C82.458 9.22754 82.8659 9.32552 83.2305 9.52148C83.5996 9.71745 83.8913 10.0091 84.1055 10.3965C84.3197 10.7839 84.4268 11.2669 84.4268 11.8457V17H82.916V11.9961C82.916 11.4857 82.7747 11.1165 82.4922 10.8887C82.2096 10.6608 81.8747 10.5469 81.4873 10.5469C81.1729 10.5469 80.9017 10.613 80.6738 10.7451C80.446 10.8773 80.2705 11.0618 80.1475 11.2988C80.0244 11.5312 79.9629 11.8001 79.9629 12.1055V17H78.4795V11.9004C78.4795 11.4902 78.3473 11.1621 78.083 10.916C77.8232 10.6699 77.4906 10.5469 77.085 10.5469C76.807 10.5469 76.5472 10.613 76.3057 10.7451C76.0687 10.8727 75.8773 11.0641 75.7314 11.3193C75.5902 11.57 75.5195 11.8799 75.5195 12.249V17H74.0156ZM89.752 17.1572C89 17.1572 88.3506 16.9954 87.8037 16.6719C87.2568 16.3483 86.8353 15.8926 86.5391 15.3047C86.2474 14.7168 86.1016 14.0264 86.1016 13.2334C86.1016 12.4495 86.2451 11.7591 86.5322 11.1621C86.8239 10.5651 87.234 10.1003 87.7627 9.76758C88.2913 9.43034 88.9111 9.26172 89.6221 9.26172C90.0596 9.26172 90.4811 9.33464 90.8867 9.48047C91.2923 9.62174 91.6569 9.84505 91.9805 10.1504C92.304 10.4557 92.5592 10.8522 92.7461 11.3398C92.9375 11.8229 93.0332 12.4108 93.0332 13.1035V13.6367H86.9424V12.5156H92.2607L91.5566 12.8848C91.5566 12.4154 91.4837 12.0029 91.3379 11.6475C91.1921 11.2874 90.9756 11.0072 90.6885 10.8066C90.4059 10.6061 90.0505 10.5059 89.6221 10.5059C89.1982 10.5059 88.8359 10.6084 88.5352 10.8135C88.2344 11.0186 88.0042 11.2897 87.8447 11.627C87.6898 11.9596 87.6123 12.3242 87.6123 12.7207V13.4863C87.6123 14.0104 87.7012 14.4548 87.8789 14.8193C88.0612 15.1794 88.3141 15.4528 88.6377 15.6396C88.9613 15.8219 89.3372 15.9131 89.7656 15.9131C90.0482 15.9131 90.3034 15.8743 90.5312 15.7969C90.7591 15.7148 90.9551 15.5941 91.1191 15.4346C91.2878 15.2705 91.4154 15.07 91.502 14.833L92.917 15.168C92.7939 15.5599 92.5866 15.9062 92.2949 16.207C92.0078 16.5078 91.6478 16.7425 91.2148 16.9111C90.7865 17.0752 90.2988 17.1572 89.752 17.1572Z" fill="#111827"/>
<g clip-path="url(#clip0_4631_68186)">
<rect x="5" y="28" width="596" height="36" rx="4" fill="white"/>
</g>
<rect x="5" y="28" width="596" height="36" rx="4" stroke="#E4E4E7"/>
<g filter="url(#filter0_d_4631_68186)">
<g clip-path="url(#clip1_4631_68186)">
<rect x="5" y="96" width="596" height="268" rx="8" fill="white"/>
<rect width="596" height="52" transform="translate(5 96)" fill="#FAFAFA"/>
<path d="M27.125 128.156C26.099 128.156 25.1823 127.919 24.375 127.445C23.5729 126.971 22.9401 126.289 22.4766 125.398C22.013 124.503 21.7812 123.432 21.7812 122.188C21.7812 120.932 22.013 119.859 22.4766 118.969C22.9401 118.073 23.5755 117.388 24.3828 116.914C25.1901 116.44 26.1042 116.203 27.125 116.203C27.7604 116.203 28.3568 116.294 28.9141 116.477C29.4714 116.654 29.9661 116.917 30.3984 117.266C30.8359 117.615 31.1953 118.039 31.4766 118.539C31.7578 119.039 31.9453 119.609 32.0391 120.25H29.9375C29.8698 119.901 29.7526 119.591 29.5859 119.32C29.4245 119.049 29.2188 118.82 28.9688 118.633C28.724 118.445 28.4479 118.305 28.1406 118.211C27.8333 118.117 27.5052 118.07 27.1562 118.07C26.5104 118.07 25.9401 118.232 25.4453 118.555C24.9505 118.872 24.5651 119.339 24.2891 119.953C24.013 120.568 23.875 121.312 23.875 122.188C23.875 123.068 24.013 123.815 24.2891 124.43C24.5703 125.039 24.9583 125.503 25.4531 125.82C25.9479 126.133 26.513 126.289 27.1484 126.289C27.4974 126.289 27.8255 126.242 28.1328 126.148C28.4401 126.049 28.7161 125.909 28.9609 125.727C29.2109 125.539 29.4193 125.31 29.5859 125.039C29.7578 124.768 29.8776 124.461 29.9453 124.117H32.0469C31.9688 124.68 31.7943 125.206 31.5234 125.695C31.2578 126.185 30.9115 126.615 30.4844 126.984C30.0573 127.354 29.5599 127.643 28.9922 127.852C28.4297 128.055 27.8073 128.156 27.125 128.156ZM35.8438 116.359V128H33.8203V116.359H35.8438ZM40.9453 128.117C40.3516 128.117 39.8281 127.99 39.375 127.734C38.9271 127.479 38.5781 127.107 38.3281 126.617C38.0833 126.122 37.9609 125.526 37.9609 124.828V119.32H39.9844V124.516C39.9844 125.104 40.1354 125.565 40.4375 125.898C40.7448 126.227 41.1641 126.391 41.6953 126.391C42.0547 126.391 42.3724 126.312 42.6484 126.156C42.9297 126 43.1484 125.773 43.3047 125.477C43.4661 125.174 43.5469 124.81 43.5469 124.383V119.32H45.5781V128H43.6484L43.625 125.844H43.8047C43.5599 126.604 43.1979 127.174 42.7188 127.555C42.2396 127.93 41.6484 128.117 40.9453 128.117ZM50.9922 128.18C50.3203 128.18 49.724 128.083 49.2031 127.891C48.6875 127.693 48.2656 127.409 47.9375 127.039C47.6094 126.664 47.3984 126.208 47.3047 125.672L49.2109 125.359C49.3203 125.786 49.526 126.107 49.8281 126.32C50.1302 126.529 50.5286 126.633 51.0234 126.633C51.5234 126.633 51.9167 126.534 52.2031 126.336C52.4948 126.133 52.6406 125.885 52.6406 125.594C52.6406 125.344 52.5443 125.138 52.3516 124.977C52.1589 124.81 51.8646 124.685 51.4688 124.602L49.9922 124.281C49.1693 124.104 48.5547 123.815 48.1484 123.414C47.7422 123.008 47.5391 122.484 47.5391 121.844C47.5391 121.307 47.6849 120.841 47.9766 120.445C48.2734 120.049 48.6849 119.745 49.2109 119.531C49.737 119.312 50.3464 119.203 51.0391 119.203C51.7005 119.203 52.2708 119.299 52.75 119.492C53.2292 119.68 53.6146 119.948 53.9062 120.297C54.2031 120.641 54.4036 121.044 54.5078 121.508L52.6953 121.828C52.6068 121.516 52.4297 121.253 52.1641 121.039C51.9036 120.826 51.5391 120.719 51.0703 120.719C50.638 120.719 50.2786 120.812 49.9922 121C49.7109 121.188 49.5703 121.43 49.5703 121.727C49.5703 121.982 49.6641 122.193 49.8516 122.359C50.0443 122.521 50.3568 122.648 50.7891 122.742L52.2734 123.055C53.1016 123.232 53.7161 123.516 54.1172 123.906C54.5182 124.292 54.7188 124.792 54.7188 125.406C54.7188 125.953 54.5599 126.435 54.2422 126.852C53.9245 127.268 53.4844 127.594 52.9219 127.828C52.3646 128.062 51.7214 128.18 50.9922 128.18ZM60.5 119.32V120.906H55.5312V119.32H60.5ZM56.7891 117.219H58.8125V125.555C58.8125 125.867 58.8802 126.096 59.0156 126.242C59.151 126.383 59.375 126.453 59.6875 126.453C59.7812 126.453 59.9036 126.443 60.0547 126.422C60.2109 126.401 60.3359 126.383 60.4297 126.367L60.7188 127.938C60.5052 128 60.2812 128.042 60.0469 128.062C59.8177 128.089 59.5938 128.102 59.375 128.102C58.5417 128.102 57.901 127.898 57.4531 127.492C57.0104 127.086 56.7891 126.5 56.7891 125.734V117.219ZM65.75 128.18C64.8802 128.18 64.1276 127.995 63.4922 127.625C62.862 127.255 62.3776 126.737 62.0391 126.07C61.7005 125.398 61.5312 124.612 61.5312 123.711C61.5312 122.82 61.6979 122.036 62.0312 121.359C62.3698 120.682 62.8464 120.154 63.4609 119.773C64.0755 119.393 64.7943 119.203 65.6172 119.203C66.1589 119.203 66.6693 119.292 67.1484 119.469C67.6328 119.641 68.0599 119.909 68.4297 120.273C68.7995 120.633 69.0885 121.089 69.2969 121.641C69.5104 122.193 69.6172 122.846 69.6172 123.602V124.219H62.4688V122.844H68.6016L67.6641 123.25C67.6641 122.76 67.5859 122.331 67.4297 121.961C67.2734 121.591 67.0443 121.305 66.7422 121.102C66.4453 120.893 66.0755 120.789 65.6328 120.789C65.1901 120.789 64.8125 120.893 64.5 121.102C64.1875 121.31 63.9479 121.591 63.7812 121.945C63.6198 122.294 63.5391 122.685 63.5391 123.117V124.062C63.5391 124.604 63.6302 125.065 63.8125 125.445C64 125.82 64.2604 126.104 64.5938 126.297C64.9323 126.49 65.3255 126.586 65.7734 126.586C66.0755 126.586 66.349 126.544 66.5938 126.461C66.8385 126.372 67.0469 126.245 67.2188 126.078C67.3958 125.906 67.5286 125.698 67.6172 125.453L69.4844 125.797C69.349 126.271 69.1094 126.688 68.7656 127.047C68.4271 127.401 68.0026 127.68 67.4922 127.883C66.9818 128.081 66.401 128.18 65.75 128.18ZM71.3203 128V119.32H73.2812V120.773H73.3672C73.5234 120.268 73.7917 119.88 74.1719 119.609C74.5573 119.339 75.0026 119.203 75.5078 119.203C75.6224 119.203 75.7474 119.208 75.8828 119.219C76.0234 119.229 76.1406 119.242 76.2344 119.258V121.117C76.1562 121.091 76.0234 121.068 75.8359 121.047C75.6484 121.026 75.4635 121.016 75.2812 121.016C74.9115 121.016 74.5781 121.096 74.2812 121.258C73.9896 121.414 73.7604 121.635 73.5938 121.922C73.4271 122.203 73.3438 122.534 73.3438 122.914V128H71.3203ZM80.8984 128.18C80.2266 128.18 79.6302 128.083 79.1094 127.891C78.5938 127.693 78.1719 127.409 77.8438 127.039C77.5156 126.664 77.3047 126.208 77.2109 125.672L79.1172 125.359C79.2266 125.786 79.4323 126.107 79.7344 126.32C80.0365 126.529 80.4349 126.633 80.9297 126.633C81.4297 126.633 81.8229 126.534 82.1094 126.336C82.401 126.133 82.5469 125.885 82.5469 125.594C82.5469 125.344 82.4505 125.138 82.2578 124.977C82.0651 124.81 81.7708 124.685 81.375 124.602L79.8984 124.281C79.0755 124.104 78.4609 123.815 78.0547 123.414C77.6484 123.008 77.4453 122.484 77.4453 121.844C77.4453 121.307 77.5911 120.841 77.8828 120.445C78.1797 120.049 78.5911 119.745 79.1172 119.531C79.6432 119.312 80.2526 119.203 80.9453 119.203C81.6068 119.203 82.1771 119.299 82.6562 119.492C83.1354 119.68 83.5208 119.948 83.8125 120.297C84.1094 120.641 84.3099 121.044 84.4141 121.508L82.6016 121.828C82.513 121.516 82.3359 121.253 82.0703 121.039C81.8099 120.826 81.4453 120.719 80.9766 120.719C80.5443 120.719 80.1849 120.812 79.8984 121C79.6172 121.188 79.4766 121.43 79.4766 121.727C79.4766 121.982 79.5703 122.193 79.7578 122.359C79.9505 122.521 80.263 122.648 80.6953 122.742L82.1797 123.055C83.0078 123.232 83.6224 123.516 84.0234 123.906C84.4245 124.292 84.625 124.792 84.625 125.406C84.625 125.953 84.4661 126.435 84.1484 126.852C83.8307 127.268 83.3906 127.594 82.8281 127.828C82.2708 128.062 81.6276 128.18 80.8984 128.18Z" fill="#111827"/>
<g clip-path="url(#clip2_4631_68186)">
<rect x="343" y="104" width="250" height="36" rx="4" fill="white"/>
<path d="M360.146 127.791C363.816 127.791 366.792 124.816 366.792 121.146C366.792 117.475 363.816 114.5 360.146 114.5C356.475 114.5 353.5 117.475 353.5 121.146C353.5 124.816 356.475 127.791 360.146 127.791Z" stroke="#111827" stroke-linecap="round" stroke-linejoin="round"/>
<path d="M364.845 125.845L368.5 129.5" stroke="#111827" stroke-linecap="round" stroke-linejoin="round"/>
<path d="M387.491 127.178C386.757 127.178 386.119 127.059 385.577 126.822C385.039 126.585 384.618 126.255 384.312 125.831C384.007 125.403 383.834 124.904 383.793 124.334H385.126C385.162 124.717 385.292 125.034 385.516 125.284C385.739 125.53 386.024 125.715 386.37 125.838C386.721 125.956 387.095 126.016 387.491 126.016C387.951 126.016 388.364 125.94 388.729 125.79C389.098 125.64 389.389 125.428 389.604 125.154C389.818 124.881 389.925 124.564 389.925 124.204C389.925 123.876 389.831 123.609 389.645 123.404C389.462 123.199 389.218 123.031 388.913 122.898C388.608 122.766 388.273 122.65 387.908 122.55L386.678 122.201C385.857 121.969 385.219 121.636 384.764 121.203C384.308 120.77 384.08 120.216 384.08 119.542C384.08 118.968 384.235 118.466 384.545 118.038C384.855 117.605 385.274 117.27 385.803 117.033C386.331 116.796 386.924 116.678 387.58 116.678C388.25 116.678 388.842 116.796 389.357 117.033C389.872 117.27 390.278 117.594 390.574 118.004C390.875 118.41 391.035 118.87 391.053 119.385H389.781C389.722 118.888 389.485 118.505 389.07 118.236C388.656 117.963 388.145 117.826 387.539 117.826C387.102 117.826 386.716 117.899 386.384 118.045C386.056 118.186 385.8 118.382 385.618 118.633C385.436 118.879 385.345 119.161 385.345 119.48C385.345 119.836 385.454 120.123 385.673 120.342C385.896 120.556 386.158 120.725 386.459 120.848C386.764 120.966 387.04 121.06 387.286 121.128L388.305 121.408C388.578 121.481 388.879 121.581 389.207 121.709C389.54 121.837 389.856 122.007 390.157 122.222C390.458 122.431 390.704 122.7 390.896 123.028C391.091 123.352 391.189 123.751 391.189 124.225C391.189 124.781 391.044 125.282 390.752 125.729C390.465 126.175 390.046 126.528 389.494 126.788C388.943 127.048 388.275 127.178 387.491 127.178ZM396.275 127.164C395.537 127.164 394.899 127 394.361 126.672C393.828 126.344 393.416 125.886 393.124 125.298C392.837 124.71 392.693 124.024 392.693 123.24C392.693 122.456 392.835 121.766 393.117 121.169C393.4 120.572 393.799 120.105 394.313 119.768C394.833 119.43 395.439 119.262 396.132 119.262C396.537 119.262 396.936 119.33 397.328 119.467C397.725 119.599 398.082 119.815 398.401 120.116C398.725 120.412 398.982 120.804 399.174 121.292C399.365 121.78 399.461 122.377 399.461 123.083V123.596H393.527V122.557H398.798L398.224 122.939C398.224 122.438 398.144 121.994 397.984 121.606C397.829 121.215 397.597 120.909 397.287 120.69C396.977 120.467 396.592 120.355 396.132 120.355C395.672 120.355 395.277 120.469 394.949 120.697C394.621 120.921 394.37 121.215 394.197 121.579C394.024 121.939 393.938 122.326 393.938 122.741V123.432C393.938 123.997 394.035 124.478 394.231 124.874C394.427 125.266 394.701 125.564 395.052 125.77C395.407 125.97 395.817 126.07 396.282 126.07C396.583 126.07 396.856 126.027 397.103 125.94C397.349 125.854 397.561 125.724 397.738 125.551C397.916 125.373 398.053 125.154 398.148 124.895L399.338 125.223C399.219 125.605 399.019 125.943 398.736 126.234C398.454 126.526 398.103 126.754 397.684 126.918C397.269 127.082 396.799 127.164 396.275 127.164ZM404.082 127.164C403.453 127.164 402.895 127.002 402.407 126.679C401.924 126.355 401.544 125.897 401.266 125.305C400.992 124.712 400.855 124.01 400.855 123.199C400.855 122.393 400.994 121.695 401.272 121.107C401.55 120.515 401.933 120.059 402.421 119.74C402.913 119.421 403.476 119.262 404.109 119.262C404.602 119.262 404.993 119.344 405.285 119.508C405.577 119.667 405.8 119.852 405.955 120.062C406.11 120.271 406.229 120.444 406.311 120.581H406.413V119.357H407.637V127H406.42V125.817H406.311C406.229 125.959 406.105 126.136 405.941 126.351C405.782 126.565 405.554 126.754 405.258 126.918C404.962 127.082 404.57 127.164 404.082 127.164ZM404.287 126.063C404.752 126.063 405.144 125.943 405.463 125.701C405.782 125.455 406.023 125.116 406.188 124.683C406.352 124.25 406.434 123.751 406.434 123.186C406.434 122.62 406.352 122.128 406.188 121.709C406.028 121.285 405.789 120.955 405.47 120.718C405.151 120.481 404.757 120.362 404.287 120.362C403.804 120.362 403.401 120.488 403.077 120.738C402.754 120.984 402.51 121.322 402.346 121.75C402.186 122.174 402.106 122.652 402.106 123.186C402.106 123.719 402.188 124.204 402.353 124.642C402.517 125.075 402.76 125.421 403.084 125.681C403.408 125.936 403.809 126.063 404.287 126.063ZM409.797 127V119.357H410.986V120.533H411.068C411.21 120.146 411.46 119.836 411.82 119.604C412.185 119.367 412.595 119.248 413.051 119.248C413.142 119.248 413.249 119.25 413.372 119.255C413.5 119.259 413.6 119.264 413.673 119.269V120.506C413.636 120.497 413.545 120.483 413.399 120.465C413.254 120.447 413.099 120.438 412.935 120.438C412.57 120.438 412.242 120.515 411.95 120.67C411.663 120.82 411.438 121.03 411.273 121.299C411.109 121.563 411.027 121.868 411.027 122.215V127H409.797ZM417.952 127.164C417.259 127.164 416.651 127 416.127 126.672C415.607 126.344 415.202 125.883 414.91 125.291C414.618 124.699 414.473 124.01 414.473 123.227C414.473 122.429 414.618 121.734 414.91 121.142C415.202 120.545 415.607 120.082 416.127 119.754C416.651 119.426 417.259 119.262 417.952 119.262C418.321 119.262 418.67 119.31 418.998 119.405C419.326 119.501 419.625 119.64 419.894 119.822C420.167 120 420.402 120.221 420.598 120.485C420.794 120.745 420.944 121.041 421.049 121.374L419.866 121.709C419.812 121.513 419.727 121.333 419.613 121.169C419.499 121.005 419.36 120.864 419.196 120.745C419.037 120.622 418.852 120.529 418.643 120.465C418.433 120.396 418.203 120.362 417.952 120.362C417.442 120.362 417.022 120.497 416.694 120.766C416.366 121.03 416.122 121.379 415.963 121.812C415.803 122.244 415.724 122.716 415.724 123.227C415.724 123.728 415.803 124.195 415.963 124.628C416.122 125.056 416.366 125.403 416.694 125.667C417.022 125.931 417.442 126.063 417.952 126.063C418.207 126.063 418.442 126.029 418.656 125.961C418.87 125.893 419.06 125.797 419.224 125.674C419.392 125.546 419.534 125.396 419.647 125.223C419.761 125.049 419.846 124.86 419.9 124.655L421.076 124.99C420.976 125.332 420.826 125.637 420.625 125.906C420.429 126.171 420.194 126.398 419.921 126.59C419.647 126.777 419.344 126.918 419.012 127.014C418.679 127.114 418.326 127.164 417.952 127.164ZM424.07 122.42V127H422.84V116.814H424.07V121.21H423.858C424.091 120.504 424.421 120.002 424.85 119.706C425.283 119.41 425.788 119.262 426.367 119.262C426.882 119.262 427.333 119.369 427.721 119.583C428.113 119.793 428.416 120.112 428.63 120.54C428.849 120.964 428.958 121.499 428.958 122.146V127H427.721V122.249C427.721 121.661 427.566 121.201 427.256 120.868C426.951 120.535 426.531 120.369 425.998 120.369C425.633 120.369 425.305 120.449 425.014 120.608C424.722 120.768 424.492 121 424.323 121.306C424.155 121.611 424.07 121.982 424.07 122.42Z" fill="#9CA3AF"/>
</g>
<rect x="343" y="104" width="250" height="36" rx="4" stroke="#E4E4E7"/>
<path d="M33 185C37.9706 185 42 180.971 42 176C42 171.029 37.9706 167 33 167C28.0294 167 24 171.029 24 176C24 180.971 28.0294 185 33 185Z" stroke="#111827" stroke-miterlimit="10" stroke-linecap="round" stroke-dasharray="4 4"/>
<path d="M54.1484 182V170.359H58.5156C59.401 170.359 60.1484 170.526 60.7578 170.859C61.3672 171.188 61.8281 171.641 62.1406 172.219C62.4583 172.797 62.6172 173.458 62.6172 174.203C62.6172 174.948 62.4583 175.609 62.1406 176.188C61.8229 176.76 61.3568 177.211 60.7422 177.539C60.1276 177.867 59.3724 178.031 58.4766 178.031H55.5469V176.312H58.2266C58.7474 176.312 59.1745 176.224 59.5078 176.047C59.8464 175.865 60.0964 175.615 60.2578 175.297C60.4193 174.974 60.5 174.609 60.5 174.203C60.5 173.786 60.4193 173.422 60.2578 173.109C60.0964 172.792 59.8464 172.547 59.5078 172.375C59.1693 172.198 58.7396 172.109 58.2188 172.109H56.2344V182H54.1484ZM66.3594 170.359V182H64.3359V170.359H66.3594ZM71.6875 182.164C71 182.164 70.3854 181.987 69.8438 181.633C69.3021 181.273 68.875 180.76 68.5625 180.094C68.25 179.427 68.0938 178.62 68.0938 177.672C68.0938 176.719 68.2526 175.909 68.5703 175.242C68.8932 174.576 69.3255 174.07 69.8672 173.727C70.4141 173.378 71.026 173.203 71.7031 173.203C72.1979 173.203 72.6094 173.286 72.9375 173.453C73.2656 173.615 73.5286 173.815 73.7266 174.055C73.9297 174.289 74.0859 174.516 74.1953 174.734H74.2812V173.32H76.2891V182H74.2891V180.633H74.1953C74.0859 180.857 73.9271 181.086 73.7188 181.32C73.5156 181.555 73.2474 181.755 72.9141 181.922C72.5859 182.083 72.1771 182.164 71.6875 182.164ZM72.2422 180.492C72.6849 180.492 73.0599 180.375 73.3672 180.141C73.6797 179.901 73.9167 179.57 74.0781 179.148C74.2396 178.721 74.3203 178.227 74.3203 177.664C74.3203 177.102 74.2396 176.612 74.0781 176.195C73.9167 175.773 73.6823 175.448 73.375 175.219C73.0677 174.984 72.6901 174.867 72.2422 174.867C71.7943 174.867 71.4141 174.987 71.1016 175.227C70.7943 175.466 70.5599 175.797 70.3984 176.219C70.2422 176.635 70.1641 177.117 70.1641 177.664C70.1641 178.211 70.2422 178.698 70.3984 179.125C70.5599 179.552 70.7943 179.888 71.1016 180.133C71.4141 180.372 71.7943 180.492 72.2422 180.492ZM77.7031 182L81.1016 176.789L81.0938 178.297L77.8828 173.32H80.1094L80.9922 174.781C81.2474 175.219 81.4766 175.643 81.6797 176.055C81.8828 176.461 82.0885 176.859 82.2969 177.25H81.4766C81.6901 176.865 81.8932 176.466 82.0859 176.055C82.2839 175.643 82.513 175.219 82.7734 174.781L83.6875 173.32H85.875L82.6172 178.336V176.844L86.0078 182H83.7891L82.7266 180.281C82.4661 179.854 82.2344 179.438 82.0312 179.031C81.8281 178.625 81.6224 178.234 81.4141 177.859H82.2344C82.0312 178.234 81.8333 178.625 81.6406 179.031C81.4531 179.438 81.2292 179.854 80.9688 180.281L79.9062 182H77.7031ZM90.8828 182.18C90.0391 182.18 89.3047 181.992 88.6797 181.617C88.0547 181.242 87.5703 180.719 87.2266 180.047C86.888 179.375 86.7188 178.594 86.7188 177.703C86.7188 176.802 86.888 176.016 87.2266 175.344C87.5703 174.667 88.0547 174.141 88.6797 173.766C89.3047 173.391 90.0391 173.203 90.8828 173.203C91.7266 173.203 92.4609 173.391 93.0859 173.766C93.7109 174.141 94.1927 174.667 94.5312 175.344C94.875 176.016 95.0469 176.802 95.0469 177.703C95.0469 178.594 94.875 179.375 94.5312 180.047C94.1927 180.719 93.7109 181.242 93.0859 181.617C92.4609 181.992 91.7266 182.18 90.8828 182.18ZM90.8828 180.531C91.3516 180.531 91.7422 180.406 92.0547 180.156C92.3672 179.901 92.6016 179.56 92.7578 179.133C92.9141 178.706 92.9922 178.227 92.9922 177.695C92.9922 177.159 92.9141 176.677 92.7578 176.25C92.6016 175.818 92.3672 175.477 92.0547 175.227C91.7422 174.977 91.3516 174.852 90.8828 174.852C90.4141 174.852 90.0234 174.977 89.7109 175.227C89.4036 175.477 89.1719 175.815 89.0156 176.242C88.8594 176.669 88.7812 177.154 88.7812 177.695C88.7812 178.227 88.8594 178.706 89.0156 179.133C89.1719 179.56 89.4036 179.901 89.7109 180.156C90.0234 180.406 90.4141 180.531 90.8828 180.531ZM98.7969 176.938V182H96.7734V173.32H98.7031L98.7266 175.469H98.5391C98.7839 174.719 99.1432 174.154 99.6172 173.773C100.096 173.393 100.693 173.203 101.406 173.203C102 173.203 102.521 173.331 102.969 173.586C103.417 173.841 103.763 174.214 104.008 174.703C104.258 175.193 104.383 175.789 104.383 176.492V182H102.359V176.805C102.359 176.216 102.208 175.758 101.906 175.43C101.604 175.096 101.188 174.93 100.656 174.93C100.297 174.93 99.9766 175.008 99.6953 175.164C99.4193 175.32 99.2005 175.547 99.0391 175.844C98.8776 176.141 98.7969 176.505 98.7969 176.938ZM106.492 182V173.32H108.516V182H106.492ZM107.5 172.086C107.177 172.086 106.898 171.977 106.664 171.758C106.435 171.539 106.32 171.276 106.32 170.969C106.32 170.656 106.435 170.393 106.664 170.18C106.898 169.966 107.177 169.859 107.5 169.859C107.828 169.859 108.107 169.966 108.336 170.18C108.57 170.393 108.688 170.656 108.688 170.969C108.688 171.276 108.57 171.539 108.336 171.758C108.107 171.977 107.828 172.086 107.5 172.086ZM114.406 182.18C113.562 182.18 112.828 181.992 112.203 181.617C111.583 181.242 111.102 180.719 110.758 180.047C110.419 179.37 110.25 178.589 110.25 177.703C110.25 176.802 110.419 176.016 110.758 175.344C111.102 174.667 111.583 174.141 112.203 173.766C112.828 173.391 113.562 173.203 114.406 173.203C114.896 173.203 115.349 173.268 115.766 173.398C116.188 173.523 116.562 173.708 116.891 173.953C117.219 174.193 117.492 174.484 117.711 174.828C117.93 175.172 118.083 175.557 118.172 175.984L116.266 176.344C116.214 176.115 116.133 175.909 116.023 175.727C115.919 175.544 115.789 175.388 115.633 175.258C115.477 175.128 115.297 175.029 115.094 174.961C114.891 174.888 114.667 174.852 114.422 174.852C113.953 174.852 113.562 174.977 113.25 175.227C112.938 175.471 112.703 175.807 112.547 176.234C112.391 176.661 112.312 177.148 112.312 177.695C112.312 178.232 112.391 178.714 112.547 179.141C112.703 179.568 112.938 179.906 113.25 180.156C113.562 180.406 113.953 180.531 114.422 180.531C114.672 180.531 114.898 180.495 115.102 180.422C115.31 180.349 115.492 180.245 115.648 180.109C115.81 179.974 115.943 179.81 116.047 179.617C116.156 179.424 116.237 179.214 116.289 178.984L118.188 179.336C118.104 179.773 117.953 180.167 117.734 180.516C117.516 180.865 117.24 181.164 116.906 181.414C116.578 181.659 116.203 181.849 115.781 181.984C115.359 182.115 114.901 182.18 114.406 182.18Z" fill="#111827"/>
<path d="M129.017 181.089C128.761 181.089 128.543 181 128.36 180.822C128.183 180.64 128.094 180.421 128.094 180.166C128.094 179.911 128.183 179.694 128.36 179.517C128.543 179.334 128.761 179.243 129.017 179.243C129.272 179.243 129.488 179.334 129.666 179.517C129.848 179.694 129.939 179.911 129.939 180.166C129.939 180.421 129.848 180.64 129.666 180.822C129.488 181 129.272 181.089 129.017 181.089ZM135.326 181L139.024 170.814H140.528L144.274 181H142.907L140.747 174.957C140.615 174.583 140.46 174.118 140.282 173.562C140.109 173.002 139.897 172.289 139.646 171.423H139.893C139.646 172.298 139.432 173.02 139.25 173.59C139.072 174.155 138.924 174.611 138.806 174.957L136.707 181H135.326ZM137.186 178.156V177.021H142.415V178.156H137.186ZM146.975 181L144.199 170.814H145.525L147.139 177.062C147.225 177.395 147.307 177.735 147.385 178.081C147.462 178.423 147.537 178.771 147.61 179.127C147.683 179.478 147.752 179.84 147.815 180.214H147.658C147.727 179.84 147.797 179.478 147.87 179.127C147.943 178.771 148.021 178.423 148.103 178.081C148.185 177.735 148.269 177.395 148.355 177.062L150.003 170.814H151.479L153.113 177.062C153.204 177.395 153.289 177.735 153.366 178.081C153.448 178.423 153.528 178.771 153.605 179.127C153.683 179.478 153.756 179.84 153.824 180.214H153.646C153.715 179.84 153.785 179.478 153.858 179.127C153.931 178.771 154.009 178.423 154.091 178.081C154.173 177.735 154.255 177.395 154.337 177.062L155.943 170.814H157.283L154.494 181H152.983L151.233 174.547C151.119 174.128 151.01 173.672 150.905 173.18C150.8 172.683 150.698 172.111 150.598 171.464H150.871C150.771 172.075 150.673 172.621 150.577 173.104C150.481 173.583 150.368 174.064 150.235 174.547L148.492 181H146.975ZM162.13 181.178C161.396 181.178 160.758 181.059 160.216 180.822C159.678 180.585 159.257 180.255 158.951 179.831C158.646 179.403 158.473 178.904 158.432 178.334H159.765C159.801 178.717 159.931 179.034 160.154 179.284C160.378 179.53 160.662 179.715 161.009 179.838C161.36 179.956 161.733 180.016 162.13 180.016C162.59 180.016 163.003 179.94 163.367 179.79C163.736 179.64 164.028 179.428 164.242 179.154C164.456 178.881 164.563 178.564 164.563 178.204C164.563 177.876 164.47 177.609 164.283 177.404C164.101 177.199 163.857 177.031 163.552 176.898C163.246 176.766 162.911 176.65 162.547 176.55L161.316 176.201C160.496 175.969 159.858 175.636 159.402 175.203C158.947 174.77 158.719 174.216 158.719 173.542C158.719 172.968 158.874 172.466 159.184 172.038C159.493 171.605 159.913 171.27 160.441 171.033C160.97 170.796 161.562 170.678 162.219 170.678C162.889 170.678 163.481 170.796 163.996 171.033C164.511 171.27 164.917 171.594 165.213 172.004C165.514 172.41 165.673 172.87 165.691 173.385H164.42C164.361 172.888 164.124 172.505 163.709 172.236C163.294 171.963 162.784 171.826 162.178 171.826C161.74 171.826 161.355 171.899 161.022 172.045C160.694 172.186 160.439 172.382 160.257 172.633C160.075 172.879 159.983 173.161 159.983 173.48C159.983 173.836 160.093 174.123 160.312 174.342C160.535 174.556 160.797 174.725 161.098 174.848C161.403 174.966 161.679 175.06 161.925 175.128L162.943 175.408C163.217 175.481 163.518 175.581 163.846 175.709C164.178 175.837 164.495 176.007 164.796 176.222C165.097 176.431 165.343 176.7 165.534 177.028C165.73 177.352 165.828 177.751 165.828 178.225C165.828 178.781 165.682 179.282 165.391 179.729C165.104 180.175 164.684 180.528 164.133 180.788C163.581 181.048 162.914 181.178 162.13 181.178ZM167.496 183.454L168.098 179.578H169.506L168.439 183.454H167.496ZM177.121 170.814V181H175.822V170.814H177.121ZM180.662 176.42V181H179.432V173.357H180.614L180.621 175.21H180.45C180.683 174.504 181.013 174.002 181.441 173.706C181.874 173.41 182.38 173.262 182.959 173.262C183.474 173.262 183.925 173.369 184.312 173.583C184.7 173.793 185.001 174.112 185.215 174.54C185.434 174.964 185.543 175.499 185.543 176.146V181H184.312V176.249C184.312 175.661 184.158 175.201 183.848 174.868C183.542 174.535 183.123 174.369 182.59 174.369C182.225 174.369 181.897 174.449 181.605 174.608C181.314 174.768 181.084 175 180.915 175.306C180.746 175.611 180.662 175.982 180.662 176.42ZM190.567 181.164C189.934 181.164 189.373 181.002 188.886 180.679C188.398 180.355 188.018 179.897 187.744 179.305C187.471 178.712 187.334 178.01 187.334 177.199C187.334 176.393 187.471 175.695 187.744 175.107C188.022 174.515 188.405 174.059 188.893 173.74C189.38 173.421 189.941 173.262 190.574 173.262C191.071 173.262 191.465 173.344 191.757 173.508C192.049 173.672 192.272 173.859 192.427 174.068C192.586 174.273 192.707 174.444 192.789 174.581H192.885V170.814H194.115V181H192.926V179.817H192.789C192.707 179.959 192.584 180.136 192.42 180.351C192.26 180.56 192.033 180.749 191.736 180.918C191.445 181.082 191.055 181.164 190.567 181.164ZM190.752 180.063C191.217 180.063 191.609 179.943 191.928 179.701C192.247 179.455 192.488 179.116 192.652 178.683C192.816 178.25 192.898 177.751 192.898 177.186C192.898 176.62 192.816 176.128 192.652 175.709C192.493 175.285 192.254 174.955 191.935 174.718C191.616 174.481 191.221 174.362 190.752 174.362C190.269 174.362 189.866 174.488 189.542 174.738C189.223 174.989 188.984 175.328 188.824 175.757C188.665 176.181 188.585 176.657 188.585 177.186C188.585 177.719 188.665 178.204 188.824 178.642C188.988 179.075 189.232 179.421 189.556 179.681C189.879 179.936 190.278 180.063 190.752 180.063ZM196.275 181V173.357H197.506V181H196.275ZM196.897 172.106C196.665 172.106 196.465 172.027 196.296 171.867C196.127 171.708 196.043 171.516 196.043 171.293C196.043 171.065 196.127 170.874 196.296 170.719C196.465 170.559 196.665 170.479 196.897 170.479C197.134 170.479 197.337 170.559 197.506 170.719C197.674 170.874 197.759 171.065 197.759 171.293C197.759 171.516 197.674 171.708 197.506 171.867C197.337 172.027 197.134 172.106 196.897 172.106ZM202.523 181.164C201.895 181.164 201.336 181.002 200.849 180.679C200.366 180.355 199.985 179.897 199.707 179.305C199.434 178.712 199.297 178.01 199.297 177.199C199.297 176.393 199.436 175.695 199.714 175.107C199.992 174.515 200.375 174.059 200.862 173.74C201.354 173.421 201.917 173.262 202.551 173.262C203.043 173.262 203.435 173.344 203.727 173.508C204.018 173.667 204.242 173.852 204.396 174.062C204.551 174.271 204.67 174.444 204.752 174.581H204.854V173.357H206.078V181H204.861V179.817H204.752C204.67 179.959 204.547 180.136 204.383 180.351C204.223 180.565 203.995 180.754 203.699 180.918C203.403 181.082 203.011 181.164 202.523 181.164ZM202.729 180.063C203.193 180.063 203.585 179.943 203.904 179.701C204.223 179.455 204.465 179.116 204.629 178.683C204.793 178.25 204.875 177.751 204.875 177.186C204.875 176.62 204.793 176.128 204.629 175.709C204.469 175.285 204.23 174.955 203.911 174.718C203.592 174.481 203.198 174.362 202.729 174.362C202.245 174.362 201.842 174.488 201.519 174.738C201.195 174.984 200.951 175.322 200.787 175.75C200.628 176.174 200.548 176.652 200.548 177.186C200.548 177.719 200.63 178.204 200.794 178.642C200.958 179.075 201.202 179.421 201.525 179.681C201.849 179.936 202.25 180.063 202.729 180.063Z" fill="#111827"/>
<rect x="569" y="168" width="16" height="16" rx="8" fill="white"/>
<rect x="569" y="168" width="16" height="16" rx="8" stroke="#E4E4E7"/>
<path d="M33 241C37.9706 241 42 236.971 42 232C42 227.029 37.9706 223 33 223C28.0294 223 24 227.029 24 232C24 236.971 28.0294 241 33 241Z" stroke="#111827" stroke-miterlimit="10" stroke-linecap="round" stroke-dasharray="4 4"/>
<path d="M54.1484 238V226.359H58.5156C59.401 226.359 60.1484 226.526 60.7578 226.859C61.3672 227.188 61.8281 227.641 62.1406 228.219C62.4583 228.797 62.6172 229.458 62.6172 230.203C62.6172 230.948 62.4583 231.609 62.1406 232.188C61.8229 232.76 61.3568 233.211 60.7422 233.539C60.1276 233.867 59.3724 234.031 58.4766 234.031H55.5469V232.312H58.2266C58.7474 232.312 59.1745 232.224 59.5078 232.047C59.8464 231.865 60.0964 231.615 60.2578 231.297C60.4193 230.974 60.5 230.609 60.5 230.203C60.5 229.786 60.4193 229.422 60.2578 229.109C60.0964 228.792 59.8464 228.547 59.5078 228.375C59.1693 228.198 58.7396 228.109 58.2188 228.109H56.2344V238H54.1484ZM66.3594 226.359V238H64.3359V226.359H66.3594ZM71.6875 238.164C71 238.164 70.3854 237.987 69.8438 237.633C69.3021 237.273 68.875 236.76 68.5625 236.094C68.25 235.427 68.0938 234.62 68.0938 233.672C68.0938 232.719 68.2526 231.909 68.5703 231.242C68.8932 230.576 69.3255 230.07 69.8672 229.727C70.4141 229.378 71.026 229.203 71.7031 229.203C72.1979 229.203 72.6094 229.286 72.9375 229.453C73.2656 229.615 73.5286 229.815 73.7266 230.055C73.9297 230.289 74.0859 230.516 74.1953 230.734H74.2812V229.32H76.2891V238H74.2891V236.633H74.1953C74.0859 236.857 73.9271 237.086 73.7188 237.32C73.5156 237.555 73.2474 237.755 72.9141 237.922C72.5859 238.083 72.1771 238.164 71.6875 238.164ZM72.2422 236.492C72.6849 236.492 73.0599 236.375 73.3672 236.141C73.6797 235.901 73.9167 235.57 74.0781 235.148C74.2396 234.721 74.3203 234.227 74.3203 233.664C74.3203 233.102 74.2396 232.612 74.0781 232.195C73.9167 231.773 73.6823 231.448 73.375 231.219C73.0677 230.984 72.6901 230.867 72.2422 230.867C71.7943 230.867 71.4141 230.987 71.1016 231.227C70.7943 231.466 70.5599 231.797 70.3984 232.219C70.2422 232.635 70.1641 233.117 70.1641 233.664C70.1641 234.211 70.2422 234.698 70.3984 235.125C70.5599 235.552 70.7943 235.888 71.1016 236.133C71.4141 236.372 71.7943 236.492 72.2422 236.492ZM77.7031 238L81.1016 232.789L81.0938 234.297L77.8828 229.32H80.1094L80.9922 230.781C81.2474 231.219 81.4766 231.643 81.6797 232.055C81.8828 232.461 82.0885 232.859 82.2969 233.25H81.4766C81.6901 232.865 81.8932 232.466 82.0859 232.055C82.2839 231.643 82.513 231.219 82.7734 230.781L83.6875 229.32H85.875L82.6172 234.336V232.844L86.0078 238H83.7891L82.7266 236.281C82.4661 235.854 82.2344 235.438 82.0312 235.031C81.8281 234.625 81.6224 234.234 81.4141 233.859H82.2344C82.0312 234.234 81.8333 234.625 81.6406 235.031C81.4531 235.438 81.2292 235.854 80.9688 236.281L79.9062 238H77.7031ZM90.8828 238.18C90.0391 238.18 89.3047 237.992 88.6797 237.617C88.0547 237.242 87.5703 236.719 87.2266 236.047C86.888 235.375 86.7188 234.594 86.7188 233.703C86.7188 232.802 86.888 232.016 87.2266 231.344C87.5703 230.667 88.0547 230.141 88.6797 229.766C89.3047 229.391 90.0391 229.203 90.8828 229.203C91.7266 229.203 92.4609 229.391 93.0859 229.766C93.7109 230.141 94.1927 230.667 94.5312 231.344C94.875 232.016 95.0469 232.802 95.0469 233.703C95.0469 234.594 94.875 235.375 94.5312 236.047C94.1927 236.719 93.7109 237.242 93.0859 237.617C92.4609 237.992 91.7266 238.18 90.8828 238.18ZM90.8828 236.531C91.3516 236.531 91.7422 236.406 92.0547 236.156C92.3672 235.901 92.6016 235.56 92.7578 235.133C92.9141 234.706 92.9922 234.227 92.9922 233.695C92.9922 233.159 92.9141 232.677 92.7578 232.25C92.6016 231.818 92.3672 231.477 92.0547 231.227C91.7422 230.977 91.3516 230.852 90.8828 230.852C90.4141 230.852 90.0234 230.977 89.7109 231.227C89.4036 231.477 89.1719 231.815 89.0156 232.242C88.8594 232.669 88.7812 233.154 88.7812 233.695C88.7812 234.227 88.8594 234.706 89.0156 235.133C89.1719 235.56 89.4036 235.901 89.7109 236.156C90.0234 236.406 90.4141 236.531 90.8828 236.531ZM98.7969 232.938V238H96.7734V229.32H98.7031L98.7266 231.469H98.5391C98.7839 230.719 99.1432 230.154 99.6172 229.773C100.096 229.393 100.693 229.203 101.406 229.203C102 229.203 102.521 229.331 102.969 229.586C103.417 229.841 103.763 230.214 104.008 230.703C104.258 231.193 104.383 231.789 104.383 232.492V238H102.359V232.805C102.359 232.216 102.208 231.758 101.906 231.43C101.604 231.096 101.188 230.93 100.656 230.93C100.297 230.93 99.9766 231.008 99.6953 231.164C99.4193 231.32 99.2005 231.547 99.0391 231.844C98.8776 232.141 98.7969 232.505 98.7969 232.938ZM106.492 238V229.32H108.516V238H106.492ZM107.5 228.086C107.177 228.086 106.898 227.977 106.664 227.758C106.435 227.539 106.32 227.276 106.32 226.969C106.32 226.656 106.435 226.393 106.664 226.18C106.898 225.966 107.177 225.859 107.5 225.859C107.828 225.859 108.107 225.966 108.336 226.18C108.57 226.393 108.688 226.656 108.688 226.969C108.688 227.276 108.57 227.539 108.336 227.758C108.107 227.977 107.828 228.086 107.5 228.086ZM114.406 238.18C113.562 238.18 112.828 237.992 112.203 237.617C111.583 237.242 111.102 236.719 110.758 236.047C110.419 235.37 110.25 234.589 110.25 233.703C110.25 232.802 110.419 232.016 110.758 231.344C111.102 230.667 111.583 230.141 112.203 229.766C112.828 229.391 113.562 229.203 114.406 229.203C114.896 229.203 115.349 229.268 115.766 229.398C116.188 229.523 116.562 229.708 116.891 229.953C117.219 230.193 117.492 230.484 117.711 230.828C117.93 231.172 118.083 231.557 118.172 231.984L116.266 232.344C116.214 232.115 116.133 231.909 116.023 231.727C115.919 231.544 115.789 231.388 115.633 231.258C115.477 231.128 115.297 231.029 115.094 230.961C114.891 230.888 114.667 230.852 114.422 230.852C113.953 230.852 113.562 230.977 113.25 231.227C112.938 231.471 112.703 231.807 112.547 232.234C112.391 232.661 112.312 233.148 112.312 233.695C112.312 234.232 112.391 234.714 112.547 235.141C112.703 235.568 112.938 235.906 113.25 236.156C113.562 236.406 113.953 236.531 114.422 236.531C114.672 236.531 114.898 236.495 115.102 236.422C115.31 236.349 115.492 236.245 115.648 236.109C115.81 235.974 115.943 235.81 116.047 235.617C116.156 235.424 116.237 235.214 116.289 234.984L118.188 235.336C118.104 235.773 117.953 236.167 117.734 236.516C117.516 236.865 117.24 237.164 116.906 237.414C116.578 237.659 116.203 237.849 115.781 237.984C115.359 238.115 114.901 238.18 114.406 238.18Z" fill="#111827"/>
<path d="M129.017 237.089C128.761 237.089 128.543 237 128.36 236.822C128.183 236.64 128.094 236.421 128.094 236.166C128.094 235.911 128.183 235.694 128.36 235.517C128.543 235.334 128.761 235.243 129.017 235.243C129.272 235.243 129.488 235.334 129.666 235.517C129.848 235.694 129.939 235.911 129.939 236.166C129.939 236.421 129.848 236.64 129.666 236.822C129.488 237 129.272 237.089 129.017 237.089ZM135.326 237L139.024 226.814H140.528L144.274 237H142.907L140.747 230.957C140.615 230.583 140.46 230.118 140.282 229.562C140.109 229.002 139.897 228.289 139.646 227.423H139.893C139.646 228.298 139.432 229.02 139.25 229.59C139.072 230.155 138.924 230.611 138.806 230.957L136.707 237H135.326ZM137.186 234.156V233.021H142.415V234.156H137.186ZM146.975 237L144.199 226.814H145.525L147.139 233.062C147.225 233.395 147.307 233.735 147.385 234.081C147.462 234.423 147.537 234.771 147.61 235.127C147.683 235.478 147.752 235.84 147.815 236.214H147.658C147.727 235.84 147.797 235.478 147.87 235.127C147.943 234.771 148.021 234.423 148.103 234.081C148.185 233.735 148.269 233.395 148.355 233.062L150.003 226.814H151.479L153.113 233.062C153.204 233.395 153.289 233.735 153.366 234.081C153.448 234.423 153.528 234.771 153.605 235.127C153.683 235.478 153.756 235.84 153.824 236.214H153.646C153.715 235.84 153.785 235.478 153.858 235.127C153.931 234.771 154.009 234.423 154.091 234.081C154.173 233.735 154.255 233.395 154.337 233.062L155.943 226.814H157.283L154.494 237H152.983L151.233 230.547C151.119 230.128 151.01 229.672 150.905 229.18C150.8 228.683 150.698 228.111 150.598 227.464H150.871C150.771 228.075 150.673 228.621 150.577 229.104C150.481 229.583 150.368 230.064 150.235 230.547L148.492 237H146.975ZM162.13 237.178C161.396 237.178 160.758 237.059 160.216 236.822C159.678 236.585 159.257 236.255 158.951 235.831C158.646 235.403 158.473 234.904 158.432 234.334H159.765C159.801 234.717 159.931 235.034 160.154 235.284C160.378 235.53 160.662 235.715 161.009 235.838C161.36 235.956 161.733 236.016 162.13 236.016C162.59 236.016 163.003 235.94 163.367 235.79C163.736 235.64 164.028 235.428 164.242 235.154C164.456 234.881 164.563 234.564 164.563 234.204C164.563 233.876 164.47 233.609 164.283 233.404C164.101 233.199 163.857 233.031 163.552 232.898C163.246 232.766 162.911 232.65 162.547 232.55L161.316 232.201C160.496 231.969 159.858 231.636 159.402 231.203C158.947 230.77 158.719 230.216 158.719 229.542C158.719 228.968 158.874 228.466 159.184 228.038C159.493 227.605 159.913 227.27 160.441 227.033C160.97 226.796 161.562 226.678 162.219 226.678C162.889 226.678 163.481 226.796 163.996 227.033C164.511 227.27 164.917 227.594 165.213 228.004C165.514 228.41 165.673 228.87 165.691 229.385H164.42C164.361 228.888 164.124 228.505 163.709 228.236C163.294 227.963 162.784 227.826 162.178 227.826C161.74 227.826 161.355 227.899 161.022 228.045C160.694 228.186 160.439 228.382 160.257 228.633C160.075 228.879 159.983 229.161 159.983 229.48C159.983 229.836 160.093 230.123 160.312 230.342C160.535 230.556 160.797 230.725 161.098 230.848C161.403 230.966 161.679 231.06 161.925 231.128L162.943 231.408C163.217 231.481 163.518 231.581 163.846 231.709C164.178 231.837 164.495 232.007 164.796 232.222C165.097 232.431 165.343 232.7 165.534 233.028C165.73 233.352 165.828 233.751 165.828 234.225C165.828 234.781 165.682 235.282 165.391 235.729C165.104 236.175 164.684 236.528 164.133 236.788C163.581 237.048 162.914 237.178 162.13 237.178ZM167.496 239.454L168.098 235.578H169.506L168.439 239.454H167.496ZM177.121 226.814V237H175.822V226.814H177.121ZM180.662 232.42V237H179.432V229.357H180.614L180.621 231.21H180.45C180.683 230.504 181.013 230.002 181.441 229.706C181.874 229.41 182.38 229.262 182.959 229.262C183.474 229.262 183.925 229.369 184.312 229.583C184.7 229.793 185.001 230.112 185.215 230.54C185.434 230.964 185.543 231.499 185.543 232.146V237H184.312V232.249C184.312 231.661 184.158 231.201 183.848 230.868C183.542 230.535 183.123 230.369 182.59 230.369C182.225 230.369 181.897 230.449 181.605 230.608C181.314 230.768 181.084 231 180.915 231.306C180.746 231.611 180.662 231.982 180.662 232.42ZM190.567 237.164C189.934 237.164 189.373 237.002 188.886 236.679C188.398 236.355 188.018 235.897 187.744 235.305C187.471 234.712 187.334 234.01 187.334 233.199C187.334 232.393 187.471 231.695 187.744 231.107C188.022 230.515 188.405 230.059 188.893 229.74C189.38 229.421 189.941 229.262 190.574 229.262C191.071 229.262 191.465 229.344 191.757 229.508C192.049 229.672 192.272 229.859 192.427 230.068C192.586 230.273 192.707 230.444 192.789 230.581H192.885V226.814H194.115V237H192.926V235.817H192.789C192.707 235.959 192.584 236.136 192.42 236.351C192.26 236.56 192.033 236.749 191.736 236.918C191.445 237.082 191.055 237.164 190.567 237.164ZM190.752 236.063C191.217 236.063 191.609 235.943 191.928 235.701C192.247 235.455 192.488 235.116 192.652 234.683C192.816 234.25 192.898 233.751 192.898 233.186C192.898 232.62 192.816 232.128 192.652 231.709C192.493 231.285 192.254 230.955 191.935 230.718C191.616 230.481 191.221 230.362 190.752 230.362C190.269 230.362 189.866 230.488 189.542 230.738C189.223 230.989 188.984 231.328 188.824 231.757C188.665 232.181 188.585 232.657 188.585 233.186C188.585 233.719 188.665 234.204 188.824 234.642C188.988 235.075 189.232 235.421 189.556 235.681C189.879 235.936 190.278 236.063 190.752 236.063ZM196.275 237V229.357H197.506V237H196.275ZM196.897 228.106C196.665 228.106 196.465 228.027 196.296 227.867C196.127 227.708 196.043 227.516 196.043 227.293C196.043 227.065 196.127 226.874 196.296 226.719C196.465 226.559 196.665 226.479 196.897 226.479C197.134 226.479 197.337 226.559 197.506 226.719C197.674 226.874 197.759 227.065 197.759 227.293C197.759 227.516 197.674 227.708 197.506 227.867C197.337 228.027 197.134 228.106 196.897 228.106ZM202.523 237.164C201.895 237.164 201.336 237.002 200.849 236.679C200.366 236.355 199.985 235.897 199.707 235.305C199.434 234.712 199.297 234.01 199.297 233.199C199.297 232.393 199.436 231.695 199.714 231.107C199.992 230.515 200.375 230.059 200.862 229.74C201.354 229.421 201.917 229.262 202.551 229.262C203.043 229.262 203.435 229.344 203.727 229.508C204.018 229.667 204.242 229.852 204.396 230.062C204.551 230.271 204.67 230.444 204.752 230.581H204.854V229.357H206.078V237H204.861V235.817H204.752C204.67 235.959 204.547 236.136 204.383 236.351C204.223 236.565 203.995 236.754 203.699 236.918C203.403 237.082 203.011 237.164 202.523 237.164ZM202.729 236.063C203.193 236.063 203.585 235.943 203.904 235.701C204.223 235.455 204.465 235.116 204.629 234.683C204.793 234.25 204.875 233.751 204.875 233.186C204.875 232.62 204.793 232.128 204.629 231.709C204.469 231.285 204.23 230.955 203.911 230.718C203.592 230.481 203.198 230.362 202.729 230.362C202.245 230.362 201.842 230.488 201.519 230.738C201.195 230.984 200.951 231.322 200.787 231.75C200.628 232.174 200.548 232.652 200.548 233.186C200.548 233.719 200.63 234.204 200.794 234.642C200.958 235.075 201.202 235.421 201.525 235.681C201.849 235.936 202.25 236.063 202.729 236.063Z" fill="#111827"/>
<rect x="569" y="224" width="16" height="16" rx="8" fill="white"/>
<rect x="569" y="224" width="16" height="16" rx="8" stroke="#E4E4E7"/>
<path d="M33 297C37.9706 297 42 292.971 42 288C42 283.029 37.9706 279 33 279C28.0294 279 24 283.029 24 288C24 292.971 28.0294 297 33 297Z" stroke="#111827" stroke-miterlimit="10" stroke-linecap="round" stroke-dasharray="4 4"/>
<path d="M54.1484 294V282.359H58.5156C59.401 282.359 60.1484 282.526 60.7578 282.859C61.3672 283.188 61.8281 283.641 62.1406 284.219C62.4583 284.797 62.6172 285.458 62.6172 286.203C62.6172 286.948 62.4583 287.609 62.1406 288.188C61.8229 288.76 61.3568 289.211 60.7422 289.539C60.1276 289.867 59.3724 290.031 58.4766 290.031H55.5469V288.312H58.2266C58.7474 288.312 59.1745 288.224 59.5078 288.047C59.8464 287.865 60.0964 287.615 60.2578 287.297C60.4193 286.974 60.5 286.609 60.5 286.203C60.5 285.786 60.4193 285.422 60.2578 285.109C60.0964 284.792 59.8464 284.547 59.5078 284.375C59.1693 284.198 58.7396 284.109 58.2188 284.109H56.2344V294H54.1484ZM66.3594 282.359V294H64.3359V282.359H66.3594ZM71.6875 294.164C71 294.164 70.3854 293.987 69.8438 293.633C69.3021 293.273 68.875 292.76 68.5625 292.094C68.25 291.427 68.0938 290.62 68.0938 289.672C68.0938 288.719 68.2526 287.909 68.5703 287.242C68.8932 286.576 69.3255 286.07 69.8672 285.727C70.4141 285.378 71.026 285.203 71.7031 285.203C72.1979 285.203 72.6094 285.286 72.9375 285.453C73.2656 285.615 73.5286 285.815 73.7266 286.055C73.9297 286.289 74.0859 286.516 74.1953 286.734H74.2812V285.32H76.2891V294H74.2891V292.633H74.1953C74.0859 292.857 73.9271 293.086 73.7188 293.32C73.5156 293.555 73.2474 293.755 72.9141 293.922C72.5859 294.083 72.1771 294.164 71.6875 294.164ZM72.2422 292.492C72.6849 292.492 73.0599 292.375 73.3672 292.141C73.6797 291.901 73.9167 291.57 74.0781 291.148C74.2396 290.721 74.3203 290.227 74.3203 289.664C74.3203 289.102 74.2396 288.612 74.0781 288.195C73.9167 287.773 73.6823 287.448 73.375 287.219C73.0677 286.984 72.6901 286.867 72.2422 286.867C71.7943 286.867 71.4141 286.987 71.1016 287.227C70.7943 287.466 70.5599 287.797 70.3984 288.219C70.2422 288.635 70.1641 289.117 70.1641 289.664C70.1641 290.211 70.2422 290.698 70.3984 291.125C70.5599 291.552 70.7943 291.888 71.1016 292.133C71.4141 292.372 71.7943 292.492 72.2422 292.492ZM77.7031 294L81.1016 288.789L81.0938 290.297L77.8828 285.32H80.1094L80.9922 286.781C81.2474 287.219 81.4766 287.643 81.6797 288.055C81.8828 288.461 82.0885 288.859 82.2969 289.25H81.4766C81.6901 288.865 81.8932 288.466 82.0859 288.055C82.2839 287.643 82.513 287.219 82.7734 286.781L83.6875 285.32H85.875L82.6172 290.336V288.844L86.0078 294H83.7891L82.7266 292.281C82.4661 291.854 82.2344 291.438 82.0312 291.031C81.8281 290.625 81.6224 290.234 81.4141 289.859H82.2344C82.0312 290.234 81.8333 290.625 81.6406 291.031C81.4531 291.438 81.2292 291.854 80.9688 292.281L79.9062 294H77.7031ZM90.8828 294.18C90.0391 294.18 89.3047 293.992 88.6797 293.617C88.0547 293.242 87.5703 292.719 87.2266 292.047C86.888 291.375 86.7188 290.594 86.7188 289.703C86.7188 288.802 86.888 288.016 87.2266 287.344C87.5703 286.667 88.0547 286.141 88.6797 285.766C89.3047 285.391 90.0391 285.203 90.8828 285.203C91.7266 285.203 92.4609 285.391 93.0859 285.766C93.7109 286.141 94.1927 286.667 94.5312 287.344C94.875 288.016 95.0469 288.802 95.0469 289.703C95.0469 290.594 94.875 291.375 94.5312 292.047C94.1927 292.719 93.7109 293.242 93.0859 293.617C92.4609 293.992 91.7266 294.18 90.8828 294.18ZM90.8828 292.531C91.3516 292.531 91.7422 292.406 92.0547 292.156C92.3672 291.901 92.6016 291.56 92.7578 291.133C92.9141 290.706 92.9922 290.227 92.9922 289.695C92.9922 289.159 92.9141 288.677 92.7578 288.25C92.6016 287.818 92.3672 287.477 92.0547 287.227C91.7422 286.977 91.3516 286.852 90.8828 286.852C90.4141 286.852 90.0234 286.977 89.7109 287.227C89.4036 287.477 89.1719 287.815 89.0156 288.242C88.8594 288.669 88.7812 289.154 88.7812 289.695C88.7812 290.227 88.8594 290.706 89.0156 291.133C89.1719 291.56 89.4036 291.901 89.7109 292.156C90.0234 292.406 90.4141 292.531 90.8828 292.531ZM98.7969 288.938V294H96.7734V285.32H98.7031L98.7266 287.469H98.5391C98.7839 286.719 99.1432 286.154 99.6172 285.773C100.096 285.393 100.693 285.203 101.406 285.203C102 285.203 102.521 285.331 102.969 285.586C103.417 285.841 103.763 286.214 104.008 286.703C104.258 287.193 104.383 287.789 104.383 288.492V294H102.359V288.805C102.359 288.216 102.208 287.758 101.906 287.43C101.604 287.096 101.188 286.93 100.656 286.93C100.297 286.93 99.9766 287.008 99.6953 287.164C99.4193 287.32 99.2005 287.547 99.0391 287.844C98.8776 288.141 98.7969 288.505 98.7969 288.938ZM106.492 294V285.32H108.516V294H106.492ZM107.5 284.086C107.177 284.086 106.898 283.977 106.664 283.758C106.435 283.539 106.32 283.276 106.32 282.969C106.32 282.656 106.435 282.393 106.664 282.18C106.898 281.966 107.177 281.859 107.5 281.859C107.828 281.859 108.107 281.966 108.336 282.18C108.57 282.393 108.688 282.656 108.688 282.969C108.688 283.276 108.57 283.539 108.336 283.758C108.107 283.977 107.828 284.086 107.5 284.086ZM114.406 294.18C113.562 294.18 112.828 293.992 112.203 293.617C111.583 293.242 111.102 292.719 110.758 292.047C110.419 291.37 110.25 290.589 110.25 289.703C110.25 288.802 110.419 288.016 110.758 287.344C111.102 286.667 111.583 286.141 112.203 285.766C112.828 285.391 113.562 285.203 114.406 285.203C114.896 285.203 115.349 285.268 115.766 285.398C116.188 285.523 116.562 285.708 116.891 285.953C117.219 286.193 117.492 286.484 117.711 286.828C117.93 287.172 118.083 287.557 118.172 287.984L116.266 288.344C116.214 288.115 116.133 287.909 116.023 287.727C115.919 287.544 115.789 287.388 115.633 287.258C115.477 287.128 115.297 287.029 115.094 286.961C114.891 286.888 114.667 286.852 114.422 286.852C113.953 286.852 113.562 286.977 113.25 287.227C112.938 287.471 112.703 287.807 112.547 288.234C112.391 288.661 112.312 289.148 112.312 289.695C112.312 290.232 112.391 290.714 112.547 291.141C112.703 291.568 112.938 291.906 113.25 292.156C113.562 292.406 113.953 292.531 114.422 292.531C114.672 292.531 114.898 292.495 115.102 292.422C115.31 292.349 115.492 292.245 115.648 292.109C115.81 291.974 115.943 291.81 116.047 291.617C116.156 291.424 116.237 291.214 116.289 290.984L118.188 291.336C118.104 291.773 117.953 292.167 117.734 292.516C117.516 292.865 117.24 293.164 116.906 293.414C116.578 293.659 116.203 293.849 115.781 293.984C115.359 294.115 114.901 294.18 114.406 294.18Z" fill="#111827"/>
<path d="M129.017 293.089C128.761 293.089 128.543 293 128.36 292.822C128.183 292.64 128.094 292.421 128.094 292.166C128.094 291.911 128.183 291.694 128.36 291.517C128.543 291.334 128.761 291.243 129.017 291.243C129.272 291.243 129.488 291.334 129.666 291.517C129.848 291.694 129.939 291.911 129.939 292.166C129.939 292.421 129.848 292.64 129.666 292.822C129.488 293 129.272 293.089 129.017 293.089ZM135.326 293L139.024 282.814H140.528L144.274 293H142.907L140.747 286.957C140.615 286.583 140.46 286.118 140.282 285.562C140.109 285.002 139.897 284.289 139.646 283.423H139.893C139.646 284.298 139.432 285.02 139.25 285.59C139.072 286.155 138.924 286.611 138.806 286.957L136.707 293H135.326ZM137.186 290.156V289.021H142.415V290.156H137.186ZM146.975 293L144.199 282.814H145.525L147.139 289.062C147.225 289.395 147.307 289.735 147.385 290.081C147.462 290.423 147.537 290.771 147.61 291.127C147.683 291.478 147.752 291.84 147.815 292.214H147.658C147.727 291.84 147.797 291.478 147.87 291.127C147.943 290.771 148.021 290.423 148.103 290.081C148.185 289.735 148.269 289.395 148.355 289.062L150.003 282.814H151.479L153.113 289.062C153.204 289.395 153.289 289.735 153.366 290.081C153.448 290.423 153.528 290.771 153.605 291.127C153.683 291.478 153.756 291.84 153.824 292.214H153.646C153.715 291.84 153.785 291.478 153.858 291.127C153.931 290.771 154.009 290.423 154.091 290.081C154.173 289.735 154.255 289.395 154.337 289.062L155.943 282.814H157.283L154.494 293H152.983L151.233 286.547C151.119 286.128 151.01 285.672 150.905 285.18C150.8 284.683 150.698 284.111 150.598 283.464H150.871C150.771 284.075 150.673 284.621 150.577 285.104C150.481 285.583 150.368 286.064 150.235 286.547L148.492 293H146.975ZM162.13 293.178C161.396 293.178 160.758 293.059 160.216 292.822C159.678 292.585 159.257 292.255 158.951 291.831C158.646 291.403 158.473 290.904 158.432 290.334H159.765C159.801 290.717 159.931 291.034 160.154 291.284C160.378 291.53 160.662 291.715 161.009 291.838C161.36 291.956 161.733 292.016 162.13 292.016C162.59 292.016 163.003 291.94 163.367 291.79C163.736 291.64 164.028 291.428 164.242 291.154C164.456 290.881 164.563 290.564 164.563 290.204C164.563 289.876 164.47 289.609 164.283 289.404C164.101 289.199 163.857 289.031 163.552 288.898C163.246 288.766 162.911 288.65 162.547 288.55L161.316 288.201C160.496 287.969 159.858 287.636 159.402 287.203C158.947 286.77 158.719 286.216 158.719 285.542C158.719 284.968 158.874 284.466 159.184 284.038C159.493 283.605 159.913 283.27 160.441 283.033C160.97 282.796 161.562 282.678 162.219 282.678C162.889 282.678 163.481 282.796 163.996 283.033C164.511 283.27 164.917 283.594 165.213 284.004C165.514 284.41 165.673 284.87 165.691 285.385H164.42C164.361 284.888 164.124 284.505 163.709 284.236C163.294 283.963 162.784 283.826 162.178 283.826C161.74 283.826 161.355 283.899 161.022 284.045C160.694 284.186 160.439 284.382 160.257 284.633C160.075 284.879 159.983 285.161 159.983 285.48C159.983 285.836 160.093 286.123 160.312 286.342C160.535 286.556 160.797 286.725 161.098 286.848C161.403 286.966 161.679 287.06 161.925 287.128L162.943 287.408C163.217 287.481 163.518 287.581 163.846 287.709C164.178 287.837 164.495 288.007 164.796 288.222C165.097 288.431 165.343 288.7 165.534 289.028C165.73 289.352 165.828 289.751 165.828 290.225C165.828 290.781 165.682 291.282 165.391 291.729C165.104 292.175 164.684 292.528 164.133 292.788C163.581 293.048 162.914 293.178 162.13 293.178ZM167.496 295.454L168.098 291.578H169.506L168.439 295.454H167.496ZM177.121 282.814V293H175.822V282.814H177.121ZM180.662 288.42V293H179.432V285.357H180.614L180.621 287.21H180.45C180.683 286.504 181.013 286.002 181.441 285.706C181.874 285.41 182.38 285.262 182.959 285.262C183.474 285.262 183.925 285.369 184.312 285.583C184.7 285.793 185.001 286.112 185.215 286.54C185.434 286.964 185.543 287.499 185.543 288.146V293H184.312V288.249C184.312 287.661 184.158 287.201 183.848 286.868C183.542 286.535 183.123 286.369 182.59 286.369C182.225 286.369 181.897 286.449 181.605 286.608C181.314 286.768 181.084 287 180.915 287.306C180.746 287.611 180.662 287.982 180.662 288.42ZM190.567 293.164C189.934 293.164 189.373 293.002 188.886 292.679C188.398 292.355 188.018 291.897 187.744 291.305C187.471 290.712 187.334 290.01 187.334 289.199C187.334 288.393 187.471 287.695 187.744 287.107C188.022 286.515 188.405 286.059 188.893 285.74C189.38 285.421 189.941 285.262 190.574 285.262C191.071 285.262 191.465 285.344 191.757 285.508C192.049 285.672 192.272 285.859 192.427 286.068C192.586 286.273 192.707 286.444 192.789 286.581H192.885V282.814H194.115V293H192.926V291.817H192.789C192.707 291.959 192.584 292.136 192.42 292.351C192.26 292.56 192.033 292.749 191.736 292.918C191.445 293.082 191.055 293.164 190.567 293.164ZM190.752 292.063C191.217 292.063 191.609 291.943 191.928 291.701C192.247 291.455 192.488 291.116 192.652 290.683C192.816 290.25 192.898 289.751 192.898 289.186C192.898 288.62 192.816 288.128 192.652 287.709C192.493 287.285 192.254 286.955 191.935 286.718C191.616 286.481 191.221 286.362 190.752 286.362C190.269 286.362 189.866 286.488 189.542 286.738C189.223 286.989 188.984 287.328 188.824 287.757C188.665 288.181 188.585 288.657 188.585 289.186C188.585 289.719 188.665 290.204 188.824 290.642C188.988 291.075 189.232 291.421 189.556 291.681C189.879 291.936 190.278 292.063 190.752 292.063ZM196.275 293V285.357H197.506V293H196.275ZM196.897 284.106C196.665 284.106 196.465 284.027 196.296 283.867C196.127 283.708 196.043 283.516 196.043 283.293C196.043 283.065 196.127 282.874 196.296 282.719C196.465 282.559 196.665 282.479 196.897 282.479C197.134 282.479 197.337 282.559 197.506 282.719C197.674 282.874 197.759 283.065 197.759 283.293C197.759 283.516 197.674 283.708 197.506 283.867C197.337 284.027 197.134 284.106 196.897 284.106ZM202.523 293.164C201.895 293.164 201.336 293.002 200.849 292.679C200.366 292.355 199.985 291.897 199.707 291.305C199.434 290.712 199.297 290.01 199.297 289.199C199.297 288.393 199.436 287.695 199.714 287.107C199.992 286.515 200.375 286.059 200.862 285.74C201.354 285.421 201.917 285.262 202.551 285.262C203.043 285.262 203.435 285.344 203.727 285.508C204.018 285.667 204.242 285.852 204.396 286.062C204.551 286.271 204.67 286.444 204.752 286.581H204.854V285.357H206.078V293H204.861V291.817H204.752C204.67 291.959 204.547 292.136 204.383 292.351C204.223 292.565 203.995 292.754 203.699 292.918C203.403 293.082 203.011 293.164 202.523 293.164ZM202.729 292.063C203.193 292.063 203.585 291.943 203.904 291.701C204.223 291.455 204.465 291.116 204.629 290.683C204.793 290.25 204.875 289.751 204.875 289.186C204.875 288.62 204.793 288.128 204.629 287.709C204.469 287.285 204.23 286.955 203.911 286.718C203.592 286.481 203.198 286.362 202.729 286.362C202.245 286.362 201.842 286.488 201.519 286.738C201.195 286.984 200.951 287.322 200.787 287.75C200.628 288.174 200.548 288.652 200.548 289.186C200.548 289.719 200.63 290.204 200.794 290.642C200.958 291.075 201.202 291.421 201.525 291.681C201.849 291.936 202.25 292.063 202.729 292.063Z" fill="#111827"/>
<rect x="569" y="280" width="16" height="16" rx="8" fill="white"/>
<rect x="569" y="280" width="16" height="16" rx="8" stroke="#E4E4E7"/>
<g filter="url(#filter1_d_4631_68186)">
<path d="M29.4912 341.178C28.7575 341.178 28.1195 341.059 27.5771 340.822C27.0394 340.585 26.6178 340.255 26.3125 339.831C26.0072 339.403 25.834 338.904 25.793 338.334H27.126C27.1624 338.717 27.2923 339.034 27.5156 339.284C27.7389 339.53 28.0238 339.715 28.3701 339.838C28.721 339.956 29.0947 340.016 29.4912 340.016C29.9515 340.016 30.3639 339.94 30.7285 339.79C31.0977 339.64 31.3893 339.428 31.6035 339.154C31.8177 338.881 31.9248 338.564 31.9248 338.204C31.9248 337.876 31.8314 337.609 31.6445 337.404C31.4622 337.199 31.2184 337.031 30.9131 336.898C30.6077 336.766 30.2728 336.65 29.9082 336.55L28.6777 336.201C27.8574 335.969 27.2194 335.636 26.7637 335.203C26.3079 334.77 26.0801 334.216 26.0801 333.542C26.0801 332.968 26.235 332.466 26.5449 332.038C26.8548 331.605 27.2741 331.27 27.8027 331.033C28.3314 330.796 28.9238 330.678 29.5801 330.678C30.25 330.678 30.8424 330.796 31.3574 331.033C31.8724 331.27 32.278 331.594 32.5742 332.004C32.875 332.41 33.0345 332.87 33.0527 333.385H31.7812C31.722 332.888 31.485 332.505 31.0703 332.236C30.6556 331.963 30.1452 331.826 29.5391 331.826C29.1016 331.826 28.7165 331.899 28.3838 332.045C28.0557 332.186 27.8005 332.382 27.6182 332.633C27.4359 332.879 27.3447 333.161 27.3447 333.48C27.3447 333.836 27.4541 334.123 27.6729 334.342C27.8962 334.556 28.1582 334.725 28.459 334.848C28.7643 334.966 29.04 335.06 29.2861 335.128L30.3047 335.408C30.5781 335.481 30.8789 335.581 31.207 335.709C31.5397 335.837 31.8564 336.007 32.1572 336.222C32.458 336.431 32.7041 336.7 32.8955 337.028C33.0915 337.352 33.1895 337.751 33.1895 338.225C33.1895 338.781 33.0436 339.282 32.752 339.729C32.4648 340.175 32.0456 340.528 31.4941 340.788C30.9427 341.048 30.2751 341.178 29.4912 341.178ZM38.2754 341.164C37.5371 341.164 36.8991 341 36.3613 340.672C35.8281 340.344 35.4157 339.886 35.124 339.298C34.8369 338.71 34.6934 338.024 34.6934 337.24C34.6934 336.456 34.8346 335.766 35.1172 335.169C35.3997 334.572 35.7985 334.105 36.3135 333.768C36.833 333.43 37.4391 333.262 38.1318 333.262C38.5374 333.262 38.9362 333.33 39.3281 333.467C39.7246 333.599 40.0824 333.815 40.4014 334.116C40.7249 334.412 40.9824 334.804 41.1738 335.292C41.3652 335.78 41.4609 336.377 41.4609 337.083V337.596H35.5273V336.557H40.7979L40.2236 336.939C40.2236 336.438 40.1439 335.994 39.9844 335.606C39.8294 335.215 39.597 334.909 39.2871 334.69C38.9772 334.467 38.5921 334.355 38.1318 334.355C37.6715 334.355 37.2773 334.469 36.9492 334.697C36.6211 334.921 36.3704 335.215 36.1973 335.579C36.0241 335.939 35.9375 336.326 35.9375 336.741V337.432C35.9375 337.997 36.0355 338.478 36.2314 338.874C36.4274 339.266 36.7008 339.564 37.0518 339.77C37.4072 339.97 37.8174 340.07 38.2822 340.07C38.583 340.07 38.8564 340.027 39.1025 339.94C39.3486 339.854 39.5605 339.724 39.7383 339.551C39.916 339.373 40.0527 339.154 40.1484 338.895L41.3379 339.223C41.2194 339.605 41.0189 339.943 40.7363 340.234C40.4538 340.526 40.1029 340.754 39.6836 340.918C39.2689 341.082 38.7995 341.164 38.2754 341.164ZM46.082 341.164C45.4531 341.164 44.8949 341.002 44.4072 340.679C43.9242 340.355 43.5436 339.897 43.2656 339.305C42.9922 338.712 42.8555 338.01 42.8555 337.199C42.8555 336.393 42.9945 335.695 43.2725 335.107C43.5505 334.515 43.9333 334.059 44.4209 333.74C44.9131 333.421 45.4759 333.262 46.1094 333.262C46.6016 333.262 46.9935 333.344 47.2852 333.508C47.5768 333.667 47.8001 333.852 47.9551 334.062C48.11 334.271 48.2285 334.444 48.3105 334.581H48.4131V333.357H49.6367V341H48.4199V339.817H48.3105C48.2285 339.959 48.1055 340.136 47.9414 340.351C47.7819 340.565 47.554 340.754 47.2578 340.918C46.9616 341.082 46.5697 341.164 46.082 341.164ZM46.2871 340.063C46.752 340.063 47.1439 339.943 47.4629 339.701C47.7819 339.455 48.0234 339.116 48.1875 338.683C48.3516 338.25 48.4336 337.751 48.4336 337.186C48.4336 336.62 48.3516 336.128 48.1875 335.709C48.028 335.285 47.7887 334.955 47.4697 334.718C47.1507 334.481 46.7565 334.362 46.2871 334.362C45.804 334.362 45.4007 334.488 45.0771 334.738C44.7536 334.984 44.5098 335.322 44.3457 335.75C44.1862 336.174 44.1064 336.652 44.1064 337.186C44.1064 337.719 44.1885 338.204 44.3525 338.642C44.5166 339.075 44.7604 339.421 45.084 339.681C45.4076 339.936 45.8086 340.063 46.2871 340.063ZM51.7969 341V333.357H52.9863V334.533H53.0684C53.2096 334.146 53.4603 333.836 53.8203 333.604C54.1849 333.367 54.5951 333.248 55.0508 333.248C55.1419 333.248 55.249 333.25 55.3721 333.255C55.4997 333.259 55.5999 333.264 55.6729 333.269V334.506C55.6364 334.497 55.5452 334.483 55.3994 334.465C55.2536 334.447 55.0986 334.438 54.9346 334.438C54.57 334.438 54.2419 334.515 53.9502 334.67C53.6631 334.82 53.4375 335.03 53.2734 335.299C53.1094 335.563 53.0273 335.868 53.0273 336.215V341H51.7969ZM59.9521 341.164C59.2594 341.164 58.651 341 58.127 340.672C57.6074 340.344 57.2018 339.883 56.9102 339.291C56.6185 338.699 56.4727 338.01 56.4727 337.227C56.4727 336.429 56.6185 335.734 56.9102 335.142C57.2018 334.545 57.6074 334.082 58.127 333.754C58.651 333.426 59.2594 333.262 59.9521 333.262C60.3213 333.262 60.6699 333.31 60.998 333.405C61.3262 333.501 61.6247 333.64 61.8936 333.822C62.167 334 62.4017 334.221 62.5977 334.485C62.7936 334.745 62.944 335.041 63.0488 335.374L61.8662 335.709C61.8115 335.513 61.7272 335.333 61.6133 335.169C61.4993 335.005 61.3604 334.864 61.1963 334.745C61.0368 334.622 60.8522 334.529 60.6426 334.465C60.4329 334.396 60.2028 334.362 59.9521 334.362C59.4417 334.362 59.0225 334.497 58.6943 334.766C58.3662 335.03 58.1224 335.379 57.9629 335.812C57.8034 336.244 57.7236 336.716 57.7236 337.227C57.7236 337.728 57.8034 338.195 57.9629 338.628C58.1224 339.056 58.3662 339.403 58.6943 339.667C59.0225 339.931 59.4417 340.063 59.9521 340.063C60.2074 340.063 60.4421 340.029 60.6562 339.961C60.8704 339.893 61.0596 339.797 61.2236 339.674C61.3923 339.546 61.5335 339.396 61.6475 339.223C61.7614 339.049 61.8457 338.86 61.9004 338.655L63.0762 338.99C62.9759 339.332 62.8255 339.637 62.625 339.906C62.429 340.171 62.1943 340.398 61.9209 340.59C61.6475 340.777 61.3444 340.918 61.0117 341.014C60.679 341.114 60.3258 341.164 59.9521 341.164ZM66.0703 336.42V341H64.8398V330.814H66.0703V335.21H65.8584C66.0908 334.504 66.4212 334.002 66.8496 333.706C67.2826 333.41 67.7884 333.262 68.3672 333.262C68.8822 333.262 69.3333 333.369 69.7207 333.583C70.1126 333.793 70.4157 334.112 70.6299 334.54C70.8486 334.964 70.958 335.499 70.958 336.146V341H69.7207V336.249C69.7207 335.661 69.5658 335.201 69.2559 334.868C68.9505 334.535 68.5312 334.369 67.998 334.369C67.6335 334.369 67.3053 334.449 67.0137 334.608C66.722 334.768 66.4919 335 66.3232 335.306C66.1546 335.611 66.0703 335.982 66.0703 336.42ZM80.6172 333.357V334.41H76.1191V333.357H80.6172ZM77.623 341V332.339C77.623 331.897 77.7256 331.528 77.9307 331.231C78.1403 330.935 78.4115 330.712 78.7441 330.562C79.0768 330.411 79.4277 330.336 79.7969 330.336C80.0885 330.336 80.3301 330.361 80.5215 330.411C80.7129 330.457 80.8542 330.5 80.9453 330.541L80.6035 331.594C80.5397 331.571 80.4554 331.546 80.3506 331.519C80.2503 331.491 80.1136 331.478 79.9404 331.478C79.5622 331.478 79.2865 331.576 79.1133 331.771C78.9401 331.963 78.8535 332.243 78.8535 332.612V341H77.623ZM84.9443 341.164C84.2516 341.164 83.6432 341 83.1191 340.672C82.5996 340.344 82.194 339.883 81.9023 339.291C81.6107 338.699 81.4648 338.01 81.4648 337.227C81.4648 336.429 81.6107 335.734 81.9023 335.142C82.194 334.545 82.5996 334.082 83.1191 333.754C83.6432 333.426 84.2516 333.262 84.9443 333.262C85.6416 333.262 86.2523 333.426 86.7764 333.754C87.3005 334.082 87.7083 334.545 88 335.142C88.2917 335.734 88.4375 336.429 88.4375 337.227C88.4375 338.01 88.2917 338.699 88 339.291C87.7083 339.883 87.3005 340.344 86.7764 340.672C86.2523 341 85.6416 341.164 84.9443 341.164ZM84.9443 340.063C85.4593 340.063 85.8831 339.931 86.2158 339.667C86.5485 339.403 86.7946 339.056 86.9541 338.628C87.1136 338.195 87.1934 337.728 87.1934 337.227C87.1934 336.721 87.1136 336.251 86.9541 335.818C86.7946 335.381 86.5485 335.03 86.2158 334.766C85.8831 334.497 85.4593 334.362 84.9443 334.362C84.4339 334.362 84.0146 334.497 83.6865 334.766C83.3584 335.03 83.1146 335.379 82.9551 335.812C82.7956 336.244 82.7158 336.716 82.7158 337.227C82.7158 337.728 82.7956 338.195 82.9551 338.628C83.1146 339.056 83.3584 339.403 83.6865 339.667C84.0146 339.931 84.4339 340.063 84.9443 340.063ZM90.2285 341V333.357H91.418V334.533H91.5C91.6413 334.146 91.8919 333.836 92.252 333.604C92.6165 333.367 93.0267 333.248 93.4824 333.248C93.5736 333.248 93.6807 333.25 93.8037 333.255C93.9313 333.259 94.0316 333.264 94.1045 333.269V334.506C94.068 334.497 93.9769 334.483 93.8311 334.465C93.6852 334.447 93.5303 334.438 93.3662 334.438C93.0016 334.438 92.6735 334.515 92.3818 334.67C92.0947 334.82 91.8691 335.03 91.7051 335.299C91.541 335.563 91.459 335.868 91.459 336.215V341H90.2285ZM99.4434 341V333.357H100.64L100.646 335.066H100.551C100.656 334.652 100.82 334.31 101.043 334.041C101.271 333.768 101.535 333.562 101.836 333.426C102.141 333.289 102.458 333.221 102.786 333.221C103.342 333.221 103.791 333.392 104.133 333.733C104.479 334.075 104.702 334.524 104.803 335.08H104.639C104.73 334.697 104.896 334.367 105.138 334.089C105.379 333.811 105.671 333.597 106.013 333.446C106.359 333.296 106.735 333.221 107.141 333.221C107.583 333.221 107.986 333.316 108.351 333.508C108.715 333.699 109.005 333.989 109.219 334.376C109.438 334.763 109.547 335.253 109.547 335.846V341H108.31V335.88C108.31 335.328 108.155 334.934 107.845 334.697C107.539 334.46 107.182 334.342 106.771 334.342C106.43 334.342 106.133 334.415 105.883 334.561C105.637 334.702 105.445 334.898 105.309 335.148C105.176 335.399 105.11 335.686 105.11 336.01V341H103.88V335.757C103.88 335.333 103.739 334.991 103.456 334.731C103.174 334.472 102.816 334.342 102.383 334.342C102.087 334.342 101.806 334.412 101.542 334.554C101.282 334.69 101.073 334.896 100.913 335.169C100.754 335.442 100.674 335.782 100.674 336.188V341H99.4434ZM114.817 341.164C114.125 341.164 113.516 341 112.992 340.672C112.473 340.344 112.067 339.883 111.775 339.291C111.484 338.699 111.338 338.01 111.338 337.227C111.338 336.429 111.484 335.734 111.775 335.142C112.067 334.545 112.473 334.082 112.992 333.754C113.516 333.426 114.125 333.262 114.817 333.262C115.515 333.262 116.125 333.426 116.649 333.754C117.174 334.082 117.581 334.545 117.873 335.142C118.165 335.734 118.311 336.429 118.311 337.227C118.311 338.01 118.165 338.699 117.873 339.291C117.581 339.883 117.174 340.344 116.649 340.672C116.125 341 115.515 341.164 114.817 341.164ZM114.817 340.063C115.332 340.063 115.756 339.931 116.089 339.667C116.422 339.403 116.668 339.056 116.827 338.628C116.987 338.195 117.066 337.728 117.066 337.227C117.066 336.721 116.987 336.251 116.827 335.818C116.668 335.381 116.422 335.03 116.089 334.766C115.756 334.497 115.332 334.362 114.817 334.362C114.307 334.362 113.888 334.497 113.56 334.766C113.231 335.03 112.988 335.379 112.828 335.812C112.669 336.244 112.589 336.716 112.589 337.227C112.589 337.728 112.669 338.195 112.828 338.628C112.988 339.056 113.231 339.403 113.56 339.667C113.888 339.931 114.307 340.063 114.817 340.063ZM120.102 341V333.357H121.291V334.533H121.373C121.514 334.146 121.765 333.836 122.125 333.604C122.49 333.367 122.9 333.248 123.355 333.248C123.447 333.248 123.554 333.25 123.677 333.255C123.804 333.259 123.905 333.264 123.978 333.269V334.506C123.941 334.497 123.85 334.483 123.704 334.465C123.558 334.447 123.403 334.438 123.239 334.438C122.875 334.438 122.547 334.515 122.255 334.67C121.968 334.82 121.742 335.03 121.578 335.299C121.414 335.563 121.332 335.868 121.332 336.215V341H120.102ZM128.359 341.164C127.621 341.164 126.983 341 126.445 340.672C125.912 340.344 125.5 339.886 125.208 339.298C124.921 338.71 124.777 338.024 124.777 337.24C124.777 336.456 124.919 335.766 125.201 335.169C125.484 334.572 125.882 334.105 126.397 333.768C126.917 333.43 127.523 333.262 128.216 333.262C128.621 333.262 129.02 333.33 129.412 333.467C129.809 333.599 130.166 333.815 130.485 334.116C130.809 334.412 131.066 334.804 131.258 335.292C131.449 335.78 131.545 336.377 131.545 337.083V337.596H125.611V336.557H130.882L130.308 336.939C130.308 336.438 130.228 335.994 130.068 335.606C129.913 335.215 129.681 334.909 129.371 334.69C129.061 334.467 128.676 334.355 128.216 334.355C127.756 334.355 127.361 334.469 127.033 334.697C126.705 334.921 126.454 335.215 126.281 335.579C126.108 335.939 126.021 336.326 126.021 336.741V337.432C126.021 337.997 126.119 338.478 126.315 338.874C126.511 339.266 126.785 339.564 127.136 339.77C127.491 339.97 127.901 340.07 128.366 340.07C128.667 340.07 128.94 340.027 129.187 339.94C129.433 339.854 129.645 339.724 129.822 339.551C130 339.373 130.137 339.154 130.232 338.895L131.422 339.223C131.303 339.605 131.103 339.943 130.82 340.234C130.538 340.526 130.187 340.754 129.768 340.918C129.353 341.082 128.883 341.164 128.359 341.164ZM134.245 341.089C133.99 341.089 133.771 341 133.589 340.822C133.411 340.64 133.322 340.421 133.322 340.166C133.322 339.911 133.411 339.694 133.589 339.517C133.771 339.334 133.99 339.243 134.245 339.243C134.5 339.243 134.717 339.334 134.895 339.517C135.077 339.694 135.168 339.911 135.168 340.166C135.168 340.421 135.077 340.64 134.895 340.822C134.717 341 134.5 341.089 134.245 341.089ZM138.278 341.089C138.023 341.089 137.804 341 137.622 340.822C137.444 340.64 137.355 340.421 137.355 340.166C137.355 339.911 137.444 339.694 137.622 339.517C137.804 339.334 138.023 339.243 138.278 339.243C138.534 339.243 138.75 339.334 138.928 339.517C139.11 339.694 139.201 339.911 139.201 340.166C139.201 340.421 139.11 340.64 138.928 340.822C138.75 341 138.534 341.089 138.278 341.089ZM142.312 341.089C142.056 341.089 141.838 341 141.655 340.822C141.478 340.64 141.389 340.421 141.389 340.166C141.389 339.911 141.478 339.694 141.655 339.517C141.838 339.334 142.056 339.243 142.312 339.243C142.567 339.243 142.783 339.334 142.961 339.517C143.143 339.694 143.234 339.911 143.234 340.166C143.234 340.421 143.143 340.64 142.961 340.822C142.783 341 142.567 341.089 142.312 341.089Z" fill="#2563EB"/>
</g>
</g>
<rect x="5" y="96" width="596" height="268" rx="8" stroke="#F4F4F5"/>
</g>
<defs>
<filter id="filter0_d_4631_68186" x="0.5" y="92.5" width="605" height="277" filterUnits="userSpaceOnUse" color-interpolation-filters="sRGB">
<feFlood flood-opacity="0" result="BackgroundImageFix"/>
<feColorMatrix in="SourceAlpha" type="matrix" values="0 0 0 0 0 0 0 0 0 0 0 0 0 0 0 0 0 0 127 0" result="hardAlpha"/>
<feOffset dy="1"/>
<feGaussianBlur stdDeviation="2"/>
<feComposite in2="hardAlpha" operator="out"/>
<feColorMatrix type="matrix" values="0 0 0 0 0 0 0 0 0 0 0 0 0 0 0 0 0 0 0.05 0"/>
<feBlend mode="normal" in2="BackgroundImageFix" result="effect1_dropShadow_4631_68186"/>
<feBlend mode="normal" in="SourceGraphic" in2="effect1_dropShadow_4631_68186" result="shape"/>
</filter>
<filter id="filter1_d_4631_68186" x="17" y="321" width="136" height="32" filterUnits="userSpaceOnUse" color-interpolation-filters="sRGB">
<feFlood flood-opacity="0" result="BackgroundImageFix"/>
<feColorMatrix in="SourceAlpha" type="matrix" values="0 0 0 0 0 0 0 0 0 0 0 0 0 0 0 0 0 0 127 0" result="hardAlpha"/>
<feOffset dy="1"/>
<feGaussianBlur stdDeviation="2"/>
<feComposite in2="hardAlpha" operator="out"/>
<feColorMatrix type="matrix" values="0 0 0 0 0 0 0 0 0 0 0 0 0 0 0 0 0 0 0.05 0"/>
<feBlend mode="normal" in2="BackgroundImageFix" result="effect1_dropShadow_4631_68186"/>
<feBlend mode="normal" in="SourceGraphic" in2="effect1_dropShadow_4631_68186" result="shape"/>
</filter>
<clipPath id="clip0_4631_68186">
<rect x="5" y="28" width="596" height="36" rx="4" fill="white"/>
</clipPath>
<clipPath id="clip1_4631_68186">
<rect x="5" y="96" width="596" height="268" rx="8" fill="white"/>
</clipPath>
<clipPath id="clip2_4631_68186">
<rect x="343" y="104" width="250" height="36" rx="4" fill="white"/>
</clipPath>
</defs>
</svg>
