<svg width="366" height="370" viewBox="0 0 366 370" fill="none" xmlns="http://www.w3.org/2000/svg">
<path d="M6.12793 17.04V6.85449H9.77832C10.5622 6.85449 11.2161 7.00033 11.7402 7.29199C12.2643 7.58366 12.6562 7.97786 12.916 8.47461C13.1758 8.97135 13.3057 9.53418 13.3057 10.1631C13.3057 10.792 13.1735 11.3571 12.9092 11.8584C12.6494 12.3551 12.2575 12.7493 11.7334 13.041C11.2093 13.3281 10.5531 13.4717 9.76465 13.4717H7.26953V12.1523H9.61426C10.1156 12.1523 10.5212 12.0658 10.8311 11.8926C11.141 11.7194 11.3665 11.4824 11.5078 11.1816C11.6536 10.8809 11.7266 10.5413 11.7266 10.1631C11.7266 9.78027 11.6536 9.44076 11.5078 9.14453C11.3665 8.84375 11.1387 8.60905 10.8242 8.44043C10.5143 8.27181 10.1064 8.1875 9.60059 8.1875H7.68652V17.04H6.12793ZM14.9941 17.04V9.39746H16.4502V10.6279H16.5322C16.6735 10.2087 16.9196 9.88053 17.2705 9.64355C17.6214 9.40658 18.0202 9.28809 18.4668 9.28809C18.5625 9.28809 18.6719 9.29264 18.7949 9.30176C18.918 9.30632 19.0205 9.31543 19.1025 9.3291V10.7646C19.0479 10.7464 18.943 10.7282 18.7881 10.71C18.6331 10.6917 18.4759 10.6826 18.3164 10.6826C17.9701 10.6826 17.6579 10.7555 17.3799 10.9014C17.1019 11.0472 16.8854 11.25 16.7305 11.5098C16.5755 11.765 16.498 12.0612 16.498 12.3984V17.04H14.9941ZM23.3477 17.1973C22.6322 17.1973 22.0055 17.0332 21.4678 16.7051C20.9346 16.377 20.5199 15.9167 20.2236 15.3242C19.9274 14.7318 19.7793 14.0436 19.7793 13.2598C19.7793 12.4668 19.9274 11.7741 20.2236 11.1816C20.5199 10.5846 20.9346 10.1221 21.4678 9.79395C22.0055 9.46582 22.6322 9.30176 23.3477 9.30176C24.0677 9.30176 24.6943 9.46582 25.2275 9.79395C25.7653 10.1221 26.1823 10.5846 26.4785 11.1816C26.7747 11.7741 26.9229 12.4668 26.9229 13.2598C26.9229 14.0436 26.7747 14.7318 26.4785 15.3242C26.1823 15.9167 25.7653 16.377 25.2275 16.7051C24.6943 17.0332 24.0677 17.1973 23.3477 17.1973ZM23.3477 15.9258C23.8125 15.9258 24.1953 15.805 24.4961 15.5635C24.8014 15.3174 25.027 14.9938 25.1729 14.5928C25.3232 14.1872 25.3984 13.7428 25.3984 13.2598C25.3984 12.7721 25.3232 12.3255 25.1729 11.9199C25.027 11.5098 24.8014 11.1839 24.4961 10.9424C24.1953 10.6963 23.8125 10.5732 23.3477 10.5732C22.8874 10.5732 22.5068 10.6963 22.2061 10.9424C21.9053 11.1839 21.6797 11.5075 21.5293 11.9131C21.3835 12.3187 21.3105 12.7676 21.3105 13.2598C21.3105 13.7428 21.3835 14.1872 21.5293 14.5928C21.6797 14.9938 21.9053 15.3174 22.2061 15.5635C22.5068 15.805 22.8874 15.9258 23.3477 15.9258ZM28.5908 9.39746H30.1016V17.5322C30.1061 18.0518 30.0127 18.487 29.8213 18.8379C29.6344 19.1888 29.3587 19.4531 28.9941 19.6309C28.6296 19.8086 28.1829 19.8975 27.6543 19.8975H27.3535V18.6055H27.5928C27.9482 18.6055 28.2035 18.512 28.3584 18.3252C28.5133 18.1429 28.5908 17.8763 28.5908 17.5254V9.39746ZM29.3496 8.22852C29.0898 8.22852 28.8665 8.14193 28.6797 7.96875C28.4974 7.79557 28.4062 7.58594 28.4062 7.33984C28.4062 7.08919 28.4974 6.87728 28.6797 6.7041C28.8665 6.53092 29.0898 6.44434 29.3496 6.44434C29.6094 6.44434 29.8327 6.53092 30.0195 6.7041C30.2064 6.87728 30.2998 7.08919 30.2998 7.33984C30.2998 7.58594 30.2064 7.79557 30.0195 7.96875C29.8327 8.14193 29.6094 8.22852 29.3496 8.22852ZM35.4199 17.1973C34.668 17.1973 34.0186 17.0355 33.4717 16.7119C32.9248 16.3883 32.5033 15.9326 32.207 15.3447C31.9154 14.7568 31.7695 14.0664 31.7695 13.2734C31.7695 12.4896 31.9131 11.7992 32.2002 11.2021C32.4919 10.6051 32.902 10.1403 33.4307 9.80762C33.9593 9.47038 34.5791 9.30176 35.29 9.30176C35.7275 9.30176 36.1491 9.37467 36.5547 9.52051C36.9603 9.66178 37.3249 9.88509 37.6484 10.1904C37.972 10.4958 38.2272 10.8923 38.4141 11.3799C38.6055 11.863 38.7012 12.4508 38.7012 13.1436V13.6768H32.6104V12.5557H37.9287L37.2246 12.9248C37.2246 12.4554 37.1517 12.043 37.0059 11.6875C36.86 11.3275 36.6436 11.0472 36.3564 10.8467C36.0739 10.6462 35.7184 10.5459 35.29 10.5459C34.8662 10.5459 34.5039 10.6484 34.2031 10.8535C33.9023 11.0586 33.6722 11.3298 33.5127 11.667C33.3577 11.9997 33.2803 12.3643 33.2803 12.7607V13.5264C33.2803 14.0505 33.3691 14.4948 33.5469 14.8594C33.7292 15.2194 33.9821 15.4928 34.3057 15.6797C34.6292 15.862 35.0052 15.9531 35.4336 15.9531C35.7161 15.9531 35.9714 15.9144 36.1992 15.8369C36.4271 15.7549 36.623 15.6341 36.7871 15.4746C36.9557 15.3105 37.0833 15.11 37.1699 14.873L38.585 15.208C38.4619 15.5999 38.2546 15.9463 37.9629 16.2471C37.6758 16.5479 37.3158 16.7826 36.8828 16.9512C36.4544 17.1152 35.9668 17.1973 35.4199 17.1973ZM43.5684 17.1973C42.8483 17.1973 42.2217 17.0332 41.6885 16.7051C41.1553 16.377 40.7406 15.9167 40.4443 15.3242C40.1481 14.7318 40 14.0436 40 13.2598C40 12.4668 40.1481 11.7741 40.4443 11.1816C40.7406 10.5846 41.1553 10.1221 41.6885 9.79395C42.2217 9.46582 42.8483 9.30176 43.5684 9.30176C43.9648 9.30176 44.3363 9.35417 44.6826 9.45898C45.029 9.55924 45.3411 9.70736 45.6191 9.90332C45.9017 10.0947 46.1387 10.3317 46.3301 10.6143C46.526 10.8923 46.6719 11.2067 46.7676 11.5576L45.3389 11.8994C45.2887 11.7035 45.2113 11.5257 45.1064 11.3662C45.0016 11.2021 44.874 11.0609 44.7236 10.9424C44.5778 10.8239 44.4069 10.7327 44.2109 10.6689C44.0195 10.6051 43.8076 10.5732 43.5752 10.5732C43.1149 10.5732 42.7321 10.6963 42.4268 10.9424C42.126 11.1839 41.9004 11.5075 41.75 11.9131C41.6042 12.3187 41.5312 12.7676 41.5312 13.2598C41.5312 13.7474 41.6042 14.194 41.75 14.5996C41.9004 15.0007 42.126 15.3219 42.4268 15.5635C42.7321 15.805 43.1149 15.9258 43.5752 15.9258C43.8122 15.9258 44.0286 15.8939 44.2246 15.8301C44.4206 15.7617 44.596 15.6683 44.751 15.5498C44.9059 15.4268 45.0358 15.2809 45.1406 15.1123C45.2454 14.9391 45.3206 14.75 45.3662 14.5449L46.7881 14.8867C46.6969 15.2467 46.5534 15.5703 46.3574 15.8574C46.1615 16.14 45.9222 16.3815 45.6396 16.582C45.3617 16.7826 45.0472 16.9352 44.6963 17.04C44.3454 17.1449 43.9694 17.1973 43.5684 17.1973ZM51.7031 9.39746V10.6211H47.5605V9.39746H51.7031ZM48.6748 7.5791H50.1787V14.9756C50.1787 15.2809 50.2425 15.5065 50.3701 15.6523C50.5023 15.7936 50.7165 15.8643 51.0127 15.8643C51.0902 15.8643 51.1927 15.8551 51.3203 15.8369C51.4479 15.8187 51.5573 15.8005 51.6484 15.7822L51.915 16.9854C51.7555 17.04 51.5846 17.0788 51.4023 17.1016C51.2201 17.1289 51.04 17.1426 50.8623 17.1426C50.1696 17.1426 49.6318 16.9648 49.249 16.6094C48.8662 16.2493 48.6748 15.7458 48.6748 15.0986V7.5791ZM58.4434 12.5146V17.04H56.9395V9.39746H58.375L58.3887 11.2705H58.2314C58.4548 10.5869 58.7783 10.0879 59.2021 9.77344C59.626 9.45898 60.1387 9.30176 60.7402 9.30176C61.2598 9.30176 61.7132 9.41113 62.1006 9.62988C62.488 9.84863 62.791 10.1722 63.0098 10.6006C63.2285 11.0244 63.3379 11.5531 63.3379 12.1865V17.04H61.834V12.3711C61.834 11.8197 61.6904 11.389 61.4033 11.0791C61.1162 10.7692 60.722 10.6143 60.2207 10.6143C59.8835 10.6143 59.5804 10.6895 59.3115 10.8398C59.0426 10.9857 58.8307 11.1999 58.6758 11.4824C58.5208 11.765 58.4434 12.109 58.4434 12.5146ZM68.1982 17.1904C67.583 17.1904 67.0339 17.0332 66.5508 16.7188C66.0723 16.3997 65.694 15.9463 65.416 15.3584C65.1426 14.766 65.0059 14.0596 65.0059 13.2393C65.0059 12.4098 65.1449 11.7012 65.4229 11.1133C65.7054 10.5254 66.0882 10.0765 66.5713 9.7666C67.0589 9.45671 67.6081 9.30176 68.2188 9.30176C68.6882 9.30176 69.0664 9.37923 69.3535 9.53418C69.6452 9.68913 69.8708 9.8737 70.0303 10.0879C70.1943 10.2975 70.3197 10.4821 70.4062 10.6416H70.502V9.39746H71.9922V17.04H70.5088V15.8438H70.4062C70.3197 16.0078 70.1921 16.1969 70.0234 16.4111C69.8548 16.6208 69.6247 16.8031 69.333 16.958C69.0413 17.113 68.6631 17.1904 68.1982 17.1904ZM68.5469 15.9121C68.9753 15.9121 69.3353 15.7982 69.627 15.5703C69.9232 15.3424 70.1465 15.028 70.2969 14.627C70.4473 14.2214 70.5225 13.7542 70.5225 13.2256C70.5225 12.6924 70.4473 12.2298 70.2969 11.8379C70.1465 11.4414 69.9232 11.1338 69.627 10.915C69.3353 10.6917 68.9753 10.5801 68.5469 10.5801C68.1048 10.5801 67.7357 10.6963 67.4395 10.9287C67.1432 11.1566 66.9199 11.471 66.7695 11.8721C66.6191 12.2686 66.5439 12.7197 66.5439 13.2256C66.5439 13.7314 66.6191 14.1872 66.7695 14.5928C66.9199 14.9984 67.1432 15.3197 67.4395 15.5566C67.7402 15.7936 68.1094 15.9121 68.5469 15.9121ZM74.0156 17.04V9.39746H75.4443L75.4854 11.168H75.3691C75.4785 10.735 75.6471 10.3796 75.875 10.1016C76.1029 9.82357 76.3695 9.61621 76.6748 9.47949C76.9801 9.33822 77.2992 9.26758 77.6318 9.26758C78.1878 9.26758 78.6367 9.44076 78.9785 9.78711C79.3203 10.1289 79.5505 10.6074 79.6689 11.2227H79.4775C79.5778 10.8034 79.751 10.4479 79.9971 10.1562C80.2432 9.86458 80.5394 9.64355 80.8857 9.49316C81.2367 9.34277 81.6104 9.26758 82.0068 9.26758C82.458 9.26758 82.8659 9.36556 83.2305 9.56152C83.5996 9.75749 83.8913 10.0492 84.1055 10.4365C84.3197 10.8239 84.4268 11.307 84.4268 11.8857V17.04H82.916V12.0361C82.916 11.5257 82.7747 11.1566 82.4922 10.9287C82.2096 10.7008 81.8747 10.5869 81.4873 10.5869C81.1729 10.5869 80.9017 10.653 80.6738 10.7852C80.446 10.9173 80.2705 11.1019 80.1475 11.3389C80.0244 11.5713 79.9629 11.8402 79.9629 12.1455V17.04H78.4795V11.9404C78.4795 11.5303 78.3473 11.2021 78.083 10.9561C77.8232 10.71 77.4906 10.5869 77.085 10.5869C76.807 10.5869 76.5472 10.653 76.3057 10.7852C76.0687 10.9128 75.8773 11.1042 75.7314 11.3594C75.5902 11.61 75.5195 11.9199 75.5195 12.2891V17.04H74.0156ZM89.752 17.1973C89 17.1973 88.3506 17.0355 87.8037 16.7119C87.2568 16.3883 86.8353 15.9326 86.5391 15.3447C86.2474 14.7568 86.1016 14.0664 86.1016 13.2734C86.1016 12.4896 86.2451 11.7992 86.5322 11.2021C86.8239 10.6051 87.234 10.1403 87.7627 9.80762C88.2913 9.47038 88.9111 9.30176 89.6221 9.30176C90.0596 9.30176 90.4811 9.37467 90.8867 9.52051C91.2923 9.66178 91.6569 9.88509 91.9805 10.1904C92.304 10.4958 92.5592 10.8923 92.7461 11.3799C92.9375 11.863 93.0332 12.4508 93.0332 13.1436V13.6768H86.9424V12.5557H92.2607L91.5566 12.9248C91.5566 12.4554 91.4837 12.043 91.3379 11.6875C91.1921 11.3275 90.9756 11.0472 90.6885 10.8467C90.4059 10.6462 90.0505 10.5459 89.6221 10.5459C89.1982 10.5459 88.8359 10.6484 88.5352 10.8535C88.2344 11.0586 88.0042 11.3298 87.8447 11.667C87.6898 11.9997 87.6123 12.3643 87.6123 12.7607V13.5264C87.6123 14.0505 87.7012 14.4948 87.8789 14.8594C88.0612 15.2194 88.3141 15.4928 88.6377 15.6797C88.9613 15.862 89.3372 15.9531 89.7656 15.9531C90.0482 15.9531 90.3034 15.9144 90.5312 15.8369C90.7591 15.7549 90.9551 15.6341 91.1191 15.4746C91.2878 15.3105 91.4154 15.11 91.502 14.873L92.917 15.208C92.7939 15.5999 92.5866 15.9463 92.2949 16.2471C92.0078 16.5479 91.6478 16.7826 91.2148 16.9512C90.7865 17.1152 90.2988 17.1973 89.752 17.1973Z" fill="#111827"/>
<g clip-path="url(#clip0_3945_128507)">
<rect x="5" y="28.04" width="356" height="36" rx="4" fill="white"/>
</g>
<rect x="5" y="28.04" width="356" height="36" rx="4" stroke="#E4E4E7"/>
<g filter="url(#filter0_d_3945_128507)">
<g clip-path="url(#clip1_3945_128507)">
<rect x="5" y="96.04" width="356" height="268" rx="8" fill="white"/>
<rect width="356" height="52" transform="translate(5 96.04)" fill="#FAFAFA"/>
<path d="M27.125 128.196C26.099 128.196 25.1823 127.959 24.375 127.485C23.5729 127.011 22.9401 126.329 22.4766 125.438C22.013 124.543 21.7812 123.472 21.7812 122.228C21.7812 120.972 22.013 119.899 22.4766 119.009C22.9401 118.113 23.5755 117.428 24.3828 116.954C25.1901 116.48 26.1042 116.243 27.125 116.243C27.7604 116.243 28.3568 116.334 28.9141 116.517C29.4714 116.694 29.9661 116.957 30.3984 117.306C30.8359 117.655 31.1953 118.079 31.4766 118.579C31.7578 119.079 31.9453 119.649 32.0391 120.29H29.9375C29.8698 119.941 29.7526 119.631 29.5859 119.36C29.4245 119.09 29.2188 118.86 28.9688 118.673C28.724 118.485 28.4479 118.345 28.1406 118.251C27.8333 118.157 27.5052 118.11 27.1562 118.11C26.5104 118.11 25.9401 118.272 25.4453 118.595C24.9505 118.912 24.5651 119.379 24.2891 119.993C24.013 120.608 23.875 121.353 23.875 122.228C23.875 123.108 24.013 123.855 24.2891 124.47C24.5703 125.079 24.9583 125.543 25.4531 125.86C25.9479 126.173 26.513 126.329 27.1484 126.329C27.4974 126.329 27.8255 126.282 28.1328 126.188C28.4401 126.09 28.7161 125.949 28.9609 125.767C29.2109 125.579 29.4193 125.35 29.5859 125.079C29.7578 124.808 29.8776 124.501 29.9453 124.157H32.0469C31.9688 124.72 31.7943 125.246 31.5234 125.735C31.2578 126.225 30.9115 126.655 30.4844 127.024C30.0573 127.394 29.5599 127.683 28.9922 127.892C28.4297 128.095 27.8073 128.196 27.125 128.196ZM35.8438 116.399V128.04H33.8203V116.399H35.8438ZM40.9453 128.157C40.3516 128.157 39.8281 128.03 39.375 127.774C38.9271 127.519 38.5781 127.147 38.3281 126.657C38.0833 126.162 37.9609 125.566 37.9609 124.868V119.36H39.9844V124.556C39.9844 125.144 40.1354 125.605 40.4375 125.938C40.7448 126.267 41.1641 126.431 41.6953 126.431C42.0547 126.431 42.3724 126.353 42.6484 126.196C42.9297 126.04 43.1484 125.813 43.3047 125.517C43.4661 125.215 43.5469 124.85 43.5469 124.423V119.36H45.5781V128.04H43.6484L43.625 125.884H43.8047C43.5599 126.644 43.1979 127.215 42.7188 127.595C42.2396 127.97 41.6484 128.157 40.9453 128.157ZM50.9922 128.22C50.3203 128.22 49.724 128.123 49.2031 127.931C48.6875 127.733 48.2656 127.449 47.9375 127.079C47.6094 126.704 47.3984 126.248 47.3047 125.712L49.2109 125.399C49.3203 125.826 49.526 126.147 49.8281 126.36C50.1302 126.569 50.5286 126.673 51.0234 126.673C51.5234 126.673 51.9167 126.574 52.2031 126.376C52.4948 126.173 52.6406 125.925 52.6406 125.634C52.6406 125.384 52.5443 125.178 52.3516 125.017C52.1589 124.85 51.8646 124.725 51.4688 124.642L49.9922 124.321C49.1693 124.144 48.5547 123.855 48.1484 123.454C47.7422 123.048 47.5391 122.524 47.5391 121.884C47.5391 121.347 47.6849 120.881 47.9766 120.485C48.2734 120.09 48.6849 119.785 49.2109 119.571C49.737 119.353 50.3464 119.243 51.0391 119.243C51.7005 119.243 52.2708 119.34 52.75 119.532C53.2292 119.72 53.6146 119.988 53.9062 120.337C54.2031 120.681 54.4036 121.084 54.5078 121.548L52.6953 121.868C52.6068 121.556 52.4297 121.293 52.1641 121.079C51.9036 120.866 51.5391 120.759 51.0703 120.759C50.638 120.759 50.2786 120.853 49.9922 121.04C49.7109 121.228 49.5703 121.47 49.5703 121.767C49.5703 122.022 49.6641 122.233 49.8516 122.399C50.0443 122.561 50.3568 122.688 50.7891 122.782L52.2734 123.095C53.1016 123.272 53.7161 123.556 54.1172 123.946C54.5182 124.332 54.7188 124.832 54.7188 125.446C54.7188 125.993 54.5599 126.475 54.2422 126.892C53.9245 127.308 53.4844 127.634 52.9219 127.868C52.3646 128.103 51.7214 128.22 50.9922 128.22ZM60.5 119.36V120.946H55.5312V119.36H60.5ZM56.7891 117.259H58.8125V125.595C58.8125 125.907 58.8802 126.136 59.0156 126.282C59.151 126.423 59.375 126.493 59.6875 126.493C59.7812 126.493 59.9036 126.483 60.0547 126.462C60.2109 126.441 60.3359 126.423 60.4297 126.407L60.7188 127.978C60.5052 128.04 60.2812 128.082 60.0469 128.103C59.8177 128.129 59.5938 128.142 59.375 128.142C58.5417 128.142 57.901 127.938 57.4531 127.532C57.0104 127.126 56.7891 126.54 56.7891 125.774V117.259ZM65.75 128.22C64.8802 128.22 64.1276 128.035 63.4922 127.665C62.862 127.295 62.3776 126.777 62.0391 126.11C61.7005 125.438 61.5312 124.652 61.5312 123.751C61.5312 122.86 61.6979 122.076 62.0312 121.399C62.3698 120.722 62.8464 120.194 63.4609 119.813C64.0755 119.433 64.7943 119.243 65.6172 119.243C66.1589 119.243 66.6693 119.332 67.1484 119.509C67.6328 119.681 68.0599 119.949 68.4297 120.313C68.7995 120.673 69.0885 121.129 69.2969 121.681C69.5104 122.233 69.6172 122.886 69.6172 123.642V124.259H62.4688V122.884H68.6016L67.6641 123.29C67.6641 122.8 67.5859 122.371 67.4297 122.001C67.2734 121.631 67.0443 121.345 66.7422 121.142C66.4453 120.933 66.0755 120.829 65.6328 120.829C65.1901 120.829 64.8125 120.933 64.5 121.142C64.1875 121.35 63.9479 121.631 63.7812 121.985C63.6198 122.334 63.5391 122.725 63.5391 123.157V124.103C63.5391 124.644 63.6302 125.105 63.8125 125.485C64 125.86 64.2604 126.144 64.5938 126.337C64.9323 126.53 65.3255 126.626 65.7734 126.626C66.0755 126.626 66.349 126.584 66.5938 126.501C66.8385 126.412 67.0469 126.285 67.2188 126.118C67.3958 125.946 67.5286 125.738 67.6172 125.493L69.4844 125.837C69.349 126.311 69.1094 126.728 68.7656 127.087C68.4271 127.441 68.0026 127.72 67.4922 127.923C66.9818 128.121 66.401 128.22 65.75 128.22ZM71.3203 128.04V119.36H73.2812V120.813H73.3672C73.5234 120.308 73.7917 119.92 74.1719 119.649C74.5573 119.379 75.0026 119.243 75.5078 119.243C75.6224 119.243 75.7474 119.248 75.8828 119.259C76.0234 119.269 76.1406 119.282 76.2344 119.298V121.157C76.1562 121.131 76.0234 121.108 75.8359 121.087C75.6484 121.066 75.4635 121.056 75.2812 121.056C74.9115 121.056 74.5781 121.136 74.2812 121.298C73.9896 121.454 73.7604 121.675 73.5938 121.962C73.4271 122.243 73.3438 122.574 73.3438 122.954V128.04H71.3203ZM80.8984 128.22C80.2266 128.22 79.6302 128.123 79.1094 127.931C78.5938 127.733 78.1719 127.449 77.8438 127.079C77.5156 126.704 77.3047 126.248 77.2109 125.712L79.1172 125.399C79.2266 125.826 79.4323 126.147 79.7344 126.36C80.0365 126.569 80.4349 126.673 80.9297 126.673C81.4297 126.673 81.8229 126.574 82.1094 126.376C82.401 126.173 82.5469 125.925 82.5469 125.634C82.5469 125.384 82.4505 125.178 82.2578 125.017C82.0651 124.85 81.7708 124.725 81.375 124.642L79.8984 124.321C79.0755 124.144 78.4609 123.855 78.0547 123.454C77.6484 123.048 77.4453 122.524 77.4453 121.884C77.4453 121.347 77.5911 120.881 77.8828 120.485C78.1797 120.09 78.5911 119.785 79.1172 119.571C79.6432 119.353 80.2526 119.243 80.9453 119.243C81.6068 119.243 82.1771 119.34 82.6562 119.532C83.1354 119.72 83.5208 119.988 83.8125 120.337C84.1094 120.681 84.3099 121.084 84.4141 121.548L82.6016 121.868C82.513 121.556 82.3359 121.293 82.0703 121.079C81.8099 120.866 81.4453 120.759 80.9766 120.759C80.5443 120.759 80.1849 120.853 79.8984 121.04C79.6172 121.228 79.4766 121.47 79.4766 121.767C79.4766 122.022 79.5703 122.233 79.7578 122.399C79.9505 122.561 80.263 122.688 80.6953 122.782L82.1797 123.095C83.0078 123.272 83.6224 123.556 84.0234 123.946C84.4245 124.332 84.625 124.832 84.625 125.446C84.625 125.993 84.4661 126.475 84.1484 126.892C83.8307 127.308 83.3906 127.634 82.8281 127.868C82.2708 128.103 81.6276 128.22 80.8984 128.22Z" fill="#111827"/>
<g clip-path="url(#clip2_3945_128507)">
<rect x="103" y="104.04" width="250" height="36" rx="4" fill="white"/>
<path d="M120.146 127.831C123.816 127.831 126.792 124.856 126.792 121.186C126.792 117.515 123.816 114.54 120.146 114.54C116.475 114.54 113.5 117.515 113.5 121.186C113.5 124.856 116.475 127.831 120.146 127.831Z" stroke="#111827" stroke-linecap="round" stroke-linejoin="round"/>
<path d="M124.845 125.885L128.5 129.54" stroke="#111827" stroke-linecap="round" stroke-linejoin="round"/>
<path d="M147.491 127.218C146.757 127.218 146.119 127.099 145.577 126.862C145.039 126.625 144.618 126.295 144.312 125.871C144.007 125.443 143.834 124.944 143.793 124.374H145.126C145.162 124.757 145.292 125.074 145.516 125.324C145.739 125.57 146.024 125.755 146.37 125.878C146.721 125.996 147.095 126.056 147.491 126.056C147.951 126.056 148.364 125.98 148.729 125.83C149.098 125.68 149.389 125.468 149.604 125.194C149.818 124.921 149.925 124.604 149.925 124.244C149.925 123.916 149.831 123.649 149.645 123.444C149.462 123.239 149.218 123.071 148.913 122.938C148.608 122.806 148.273 122.69 147.908 122.59L146.678 122.241C145.857 122.009 145.219 121.676 144.764 121.243C144.308 120.81 144.08 120.257 144.08 119.582C144.08 119.008 144.235 118.507 144.545 118.078C144.855 117.645 145.274 117.31 145.803 117.073C146.331 116.836 146.924 116.718 147.58 116.718C148.25 116.718 148.842 116.836 149.357 117.073C149.872 117.31 150.278 117.634 150.574 118.044C150.875 118.45 151.035 118.91 151.053 119.425H149.781C149.722 118.928 149.485 118.545 149.07 118.276C148.656 118.003 148.145 117.866 147.539 117.866C147.102 117.866 146.716 117.939 146.384 118.085C146.056 118.226 145.8 118.422 145.618 118.673C145.436 118.919 145.345 119.201 145.345 119.521C145.345 119.876 145.454 120.163 145.673 120.382C145.896 120.596 146.158 120.765 146.459 120.888C146.764 121.006 147.04 121.1 147.286 121.168L148.305 121.448C148.578 121.521 148.879 121.621 149.207 121.749C149.54 121.877 149.856 122.048 150.157 122.262C150.458 122.471 150.704 122.74 150.896 123.068C151.091 123.392 151.189 123.791 151.189 124.265C151.189 124.821 151.044 125.322 150.752 125.769C150.465 126.215 150.046 126.568 149.494 126.828C148.943 127.088 148.275 127.218 147.491 127.218ZM156.275 127.204C155.537 127.204 154.899 127.04 154.361 126.712C153.828 126.384 153.416 125.926 153.124 125.338C152.837 124.75 152.693 124.064 152.693 123.28C152.693 122.496 152.835 121.806 153.117 121.209C153.4 120.612 153.799 120.145 154.313 119.808C154.833 119.47 155.439 119.302 156.132 119.302C156.537 119.302 156.936 119.37 157.328 119.507C157.725 119.639 158.082 119.855 158.401 120.156C158.725 120.452 158.982 120.844 159.174 121.332C159.365 121.82 159.461 122.417 159.461 123.123V123.636H153.527V122.597H158.798L158.224 122.979C158.224 122.478 158.144 122.034 157.984 121.646C157.829 121.255 157.597 120.949 157.287 120.73C156.977 120.507 156.592 120.396 156.132 120.396C155.672 120.396 155.277 120.509 154.949 120.737C154.621 120.961 154.37 121.255 154.197 121.619C154.024 121.979 153.938 122.367 153.938 122.781V123.472C153.938 124.037 154.035 124.518 154.231 124.914C154.427 125.306 154.701 125.604 155.052 125.81C155.407 126.01 155.817 126.11 156.282 126.11C156.583 126.11 156.856 126.067 157.103 125.98C157.349 125.894 157.561 125.764 157.738 125.591C157.916 125.413 158.053 125.194 158.148 124.935L159.338 125.263C159.219 125.646 159.019 125.983 158.736 126.274C158.454 126.566 158.103 126.794 157.684 126.958C157.269 127.122 156.799 127.204 156.275 127.204ZM164.082 127.204C163.453 127.204 162.895 127.042 162.407 126.719C161.924 126.395 161.544 125.937 161.266 125.345C160.992 124.752 160.855 124.05 160.855 123.239C160.855 122.433 160.994 121.735 161.272 121.147C161.55 120.555 161.933 120.099 162.421 119.78C162.913 119.461 163.476 119.302 164.109 119.302C164.602 119.302 164.993 119.384 165.285 119.548C165.577 119.707 165.8 119.892 165.955 120.102C166.11 120.311 166.229 120.484 166.311 120.621H166.413V119.397H167.637V127.04H166.42V125.857H166.311C166.229 125.999 166.105 126.176 165.941 126.391C165.782 126.605 165.554 126.794 165.258 126.958C164.962 127.122 164.57 127.204 164.082 127.204ZM164.287 126.104C164.752 126.104 165.144 125.983 165.463 125.741C165.782 125.495 166.023 125.156 166.188 124.723C166.352 124.29 166.434 123.791 166.434 123.226C166.434 122.66 166.352 122.168 166.188 121.749C166.028 121.325 165.789 120.995 165.47 120.758C165.151 120.521 164.757 120.402 164.287 120.402C163.804 120.402 163.401 120.528 163.077 120.778C162.754 121.024 162.51 121.362 162.346 121.79C162.186 122.214 162.106 122.692 162.106 123.226C162.106 123.759 162.188 124.244 162.353 124.682C162.517 125.115 162.76 125.461 163.084 125.721C163.408 125.976 163.809 126.104 164.287 126.104ZM169.797 127.04V119.397H170.986V120.573H171.068C171.21 120.186 171.46 119.876 171.82 119.644C172.185 119.407 172.595 119.288 173.051 119.288C173.142 119.288 173.249 119.29 173.372 119.295C173.5 119.299 173.6 119.304 173.673 119.309V120.546C173.636 120.537 173.545 120.523 173.399 120.505C173.254 120.487 173.099 120.478 172.935 120.478C172.57 120.478 172.242 120.555 171.95 120.71C171.663 120.86 171.438 121.07 171.273 121.339C171.109 121.603 171.027 121.909 171.027 122.255V127.04H169.797ZM177.952 127.204C177.259 127.204 176.651 127.04 176.127 126.712C175.607 126.384 175.202 125.924 174.91 125.331C174.618 124.739 174.473 124.05 174.473 123.267C174.473 122.469 174.618 121.774 174.91 121.182C175.202 120.585 175.607 120.122 176.127 119.794C176.651 119.466 177.259 119.302 177.952 119.302C178.321 119.302 178.67 119.35 178.998 119.445C179.326 119.541 179.625 119.68 179.894 119.862C180.167 120.04 180.402 120.261 180.598 120.525C180.794 120.785 180.944 121.081 181.049 121.414L179.866 121.749C179.812 121.553 179.727 121.373 179.613 121.209C179.499 121.045 179.36 120.904 179.196 120.785C179.037 120.662 178.852 120.569 178.643 120.505C178.433 120.437 178.203 120.402 177.952 120.402C177.442 120.402 177.022 120.537 176.694 120.806C176.366 121.07 176.122 121.419 175.963 121.852C175.803 122.285 175.724 122.756 175.724 123.267C175.724 123.768 175.803 124.235 175.963 124.668C176.122 125.096 176.366 125.443 176.694 125.707C177.022 125.971 177.442 126.104 177.952 126.104C178.207 126.104 178.442 126.069 178.656 126.001C178.87 125.933 179.06 125.837 179.224 125.714C179.392 125.586 179.534 125.436 179.647 125.263C179.761 125.09 179.846 124.9 179.9 124.695L181.076 125.03C180.976 125.372 180.826 125.677 180.625 125.946C180.429 126.211 180.194 126.438 179.921 126.63C179.647 126.817 179.344 126.958 179.012 127.054C178.679 127.154 178.326 127.204 177.952 127.204ZM184.07 122.46V127.04H182.84V116.854H184.07V121.25H183.858C184.091 120.544 184.421 120.042 184.85 119.746C185.283 119.45 185.788 119.302 186.367 119.302C186.882 119.302 187.333 119.409 187.721 119.623C188.113 119.833 188.416 120.152 188.63 120.58C188.849 121.004 188.958 121.539 188.958 122.187V127.04H187.721V122.289C187.721 121.701 187.566 121.241 187.256 120.908C186.951 120.576 186.531 120.409 185.998 120.409C185.633 120.409 185.305 120.489 185.014 120.648C184.722 120.808 184.492 121.04 184.323 121.346C184.155 121.651 184.07 122.022 184.07 122.46Z" fill="#9CA3AF"/>
</g>
<rect x="103" y="104.04" width="250" height="36" rx="4" stroke="#E4E4E7"/>
<path d="M33 185.04C37.9706 185.04 42 181.011 42 176.04C42 171.069 37.9706 167.04 33 167.04C28.0294 167.04 24 171.069 24 176.04C24 181.011 28.0294 185.04 33 185.04Z" stroke="#111827" stroke-miterlimit="10" stroke-linecap="round" stroke-dasharray="4 4"/>
<path d="M54.1484 182.04V170.399H58.5156C59.401 170.399 60.1484 170.566 60.7578 170.899C61.3672 171.228 61.8281 171.681 62.1406 172.259C62.4583 172.837 62.6172 173.498 62.6172 174.243C62.6172 174.988 62.4583 175.649 62.1406 176.228C61.8229 176.8 61.3568 177.251 60.7422 177.579C60.1276 177.907 59.3724 178.071 58.4766 178.071H55.5469V176.353H58.2266C58.7474 176.353 59.1745 176.264 59.5078 176.087C59.8464 175.905 60.0964 175.655 60.2578 175.337C60.4193 175.014 60.5 174.649 60.5 174.243C60.5 173.826 60.4193 173.462 60.2578 173.149C60.0964 172.832 59.8464 172.587 59.5078 172.415C59.1693 172.238 58.7396 172.149 58.2188 172.149H56.2344V182.04H54.1484ZM66.3594 170.399V182.04H64.3359V170.399H66.3594ZM71.6875 182.204C71 182.204 70.3854 182.027 69.8438 181.673C69.3021 181.313 68.875 180.8 68.5625 180.134C68.25 179.467 68.0938 178.66 68.0938 177.712C68.0938 176.759 68.2526 175.949 68.5703 175.282C68.8932 174.616 69.3255 174.11 69.8672 173.767C70.4141 173.418 71.026 173.243 71.7031 173.243C72.1979 173.243 72.6094 173.326 72.9375 173.493C73.2656 173.655 73.5286 173.855 73.7266 174.095C73.9297 174.329 74.0859 174.556 74.1953 174.774H74.2812V173.36H76.2891V182.04H74.2891V180.673H74.1953C74.0859 180.897 73.9271 181.126 73.7188 181.36C73.5156 181.595 73.2474 181.795 72.9141 181.962C72.5859 182.123 72.1771 182.204 71.6875 182.204ZM72.2422 180.532C72.6849 180.532 73.0599 180.415 73.3672 180.181C73.6797 179.941 73.9167 179.61 74.0781 179.188C74.2396 178.761 74.3203 178.267 74.3203 177.704C74.3203 177.142 74.2396 176.652 74.0781 176.235C73.9167 175.813 73.6823 175.488 73.375 175.259C73.0677 175.024 72.6901 174.907 72.2422 174.907C71.7943 174.907 71.4141 175.027 71.1016 175.267C70.7943 175.506 70.5599 175.837 70.3984 176.259C70.2422 176.675 70.1641 177.157 70.1641 177.704C70.1641 178.251 70.2422 178.738 70.3984 179.165C70.5599 179.592 70.7943 179.928 71.1016 180.173C71.4141 180.412 71.7943 180.532 72.2422 180.532ZM77.7031 182.04L81.1016 176.829L81.0938 178.337L77.8828 173.36H80.1094L80.9922 174.821C81.2474 175.259 81.4766 175.683 81.6797 176.095C81.8828 176.501 82.0885 176.899 82.2969 177.29H81.4766C81.6901 176.905 81.8932 176.506 82.0859 176.095C82.2839 175.683 82.513 175.259 82.7734 174.821L83.6875 173.36H85.875L82.6172 178.376V176.884L86.0078 182.04H83.7891L82.7266 180.321C82.4661 179.894 82.2344 179.478 82.0312 179.071C81.8281 178.665 81.6224 178.274 81.4141 177.899H82.2344C82.0312 178.274 81.8333 178.665 81.6406 179.071C81.4531 179.478 81.2292 179.894 80.9688 180.321L79.9062 182.04H77.7031ZM90.8828 182.22C90.0391 182.22 89.3047 182.032 88.6797 181.657C88.0547 181.282 87.5703 180.759 87.2266 180.087C86.888 179.415 86.7188 178.634 86.7188 177.743C86.7188 176.842 86.888 176.056 87.2266 175.384C87.5703 174.707 88.0547 174.181 88.6797 173.806C89.3047 173.431 90.0391 173.243 90.8828 173.243C91.7266 173.243 92.4609 173.431 93.0859 173.806C93.7109 174.181 94.1927 174.707 94.5312 175.384C94.875 176.056 95.0469 176.842 95.0469 177.743C95.0469 178.634 94.875 179.415 94.5312 180.087C94.1927 180.759 93.7109 181.282 93.0859 181.657C92.4609 182.032 91.7266 182.22 90.8828 182.22ZM90.8828 180.571C91.3516 180.571 91.7422 180.446 92.0547 180.196C92.3672 179.941 92.6016 179.6 92.7578 179.173C92.9141 178.746 92.9922 178.267 92.9922 177.735C92.9922 177.199 92.9141 176.717 92.7578 176.29C92.6016 175.858 92.3672 175.517 92.0547 175.267C91.7422 175.017 91.3516 174.892 90.8828 174.892C90.4141 174.892 90.0234 175.017 89.7109 175.267C89.4036 175.517 89.1719 175.855 89.0156 176.282C88.8594 176.709 88.7812 177.194 88.7812 177.735C88.7812 178.267 88.8594 178.746 89.0156 179.173C89.1719 179.6 89.4036 179.941 89.7109 180.196C90.0234 180.446 90.4141 180.571 90.8828 180.571ZM98.7969 176.978V182.04H96.7734V173.36H98.7031L98.7266 175.509H98.5391C98.7839 174.759 99.1432 174.194 99.6172 173.813C100.096 173.433 100.693 173.243 101.406 173.243C102 173.243 102.521 173.371 102.969 173.626C103.417 173.881 103.763 174.254 104.008 174.743C104.258 175.233 104.383 175.829 104.383 176.532V182.04H102.359V176.845C102.359 176.256 102.208 175.798 101.906 175.47C101.604 175.136 101.188 174.97 100.656 174.97C100.297 174.97 99.9766 175.048 99.6953 175.204C99.4193 175.36 99.2005 175.587 99.0391 175.884C98.8776 176.181 98.7969 176.545 98.7969 176.978ZM106.492 182.04V173.36H108.516V182.04H106.492ZM107.5 172.126C107.177 172.126 106.898 172.017 106.664 171.798C106.435 171.579 106.32 171.316 106.32 171.009C106.32 170.696 106.435 170.433 106.664 170.22C106.898 170.006 107.177 169.899 107.5 169.899C107.828 169.899 108.107 170.006 108.336 170.22C108.57 170.433 108.688 170.696 108.688 171.009C108.688 171.316 108.57 171.579 108.336 171.798C108.107 172.017 107.828 172.126 107.5 172.126ZM114.406 182.22C113.562 182.22 112.828 182.032 112.203 181.657C111.583 181.282 111.102 180.759 110.758 180.087C110.419 179.41 110.25 178.629 110.25 177.743C110.25 176.842 110.419 176.056 110.758 175.384C111.102 174.707 111.583 174.181 112.203 173.806C112.828 173.431 113.562 173.243 114.406 173.243C114.896 173.243 115.349 173.308 115.766 173.438C116.188 173.563 116.562 173.748 116.891 173.993C117.219 174.233 117.492 174.524 117.711 174.868C117.93 175.212 118.083 175.597 118.172 176.024L116.266 176.384C116.214 176.155 116.133 175.949 116.023 175.767C115.919 175.584 115.789 175.428 115.633 175.298C115.477 175.168 115.297 175.069 115.094 175.001C114.891 174.928 114.667 174.892 114.422 174.892C113.953 174.892 113.562 175.017 113.25 175.267C112.938 175.511 112.703 175.847 112.547 176.274C112.391 176.701 112.312 177.188 112.312 177.735C112.312 178.272 112.391 178.754 112.547 179.181C112.703 179.608 112.938 179.946 113.25 180.196C113.562 180.446 113.953 180.571 114.422 180.571C114.672 180.571 114.898 180.535 115.102 180.462C115.31 180.389 115.492 180.285 115.648 180.149C115.81 180.014 115.943 179.85 116.047 179.657C116.156 179.465 116.237 179.254 116.289 179.024L118.188 179.376C118.104 179.813 117.953 180.207 117.734 180.556C117.516 180.905 117.24 181.204 116.906 181.454C116.578 181.699 116.203 181.889 115.781 182.024C115.359 182.155 114.901 182.22 114.406 182.22Z" fill="#111827"/>
<path d="M129.017 181.129C128.761 181.129 128.543 181.04 128.36 180.862C128.183 180.68 128.094 180.461 128.094 180.206C128.094 179.951 128.183 179.734 128.36 179.557C128.543 179.374 128.761 179.283 129.017 179.283C129.272 179.283 129.488 179.374 129.666 179.557C129.848 179.734 129.939 179.951 129.939 180.206C129.939 180.461 129.848 180.68 129.666 180.862C129.488 181.04 129.272 181.129 129.017 181.129ZM135.326 181.04L139.024 170.854H140.528L144.274 181.04H142.907L140.747 174.997C140.615 174.623 140.46 174.159 140.282 173.603C140.109 173.042 139.897 172.329 139.646 171.463H139.893C139.646 172.338 139.432 173.06 139.25 173.63C139.072 174.195 138.924 174.651 138.806 174.997L136.707 181.04H135.326ZM137.186 178.196V177.062H142.415V178.196H137.186ZM146.975 181.04L144.199 170.854H145.525L147.139 177.103C147.225 177.435 147.307 177.775 147.385 178.121C147.462 178.463 147.537 178.812 147.61 179.167C147.683 179.518 147.752 179.88 147.815 180.254H147.658C147.727 179.88 147.797 179.518 147.87 179.167C147.943 178.812 148.021 178.463 148.103 178.121C148.185 177.775 148.269 177.435 148.355 177.103L150.003 170.854H151.479L153.113 177.103C153.204 177.435 153.289 177.775 153.366 178.121C153.448 178.463 153.528 178.812 153.605 179.167C153.683 179.518 153.756 179.88 153.824 180.254H153.646C153.715 179.88 153.785 179.518 153.858 179.167C153.931 178.812 154.009 178.463 154.091 178.121C154.173 177.775 154.255 177.435 154.337 177.103L155.943 170.854H157.283L154.494 181.04H152.983L151.233 174.587C151.119 174.168 151.01 173.712 150.905 173.22C150.8 172.723 150.698 172.151 150.598 171.504H150.871C150.771 172.115 150.673 172.661 150.577 173.145C150.481 173.623 150.368 174.104 150.235 174.587L148.492 181.04H146.975ZM162.13 181.218C161.396 181.218 160.758 181.099 160.216 180.862C159.678 180.625 159.257 180.295 158.951 179.871C158.646 179.443 158.473 178.944 158.432 178.374H159.765C159.801 178.757 159.931 179.074 160.154 179.324C160.378 179.57 160.662 179.755 161.009 179.878C161.36 179.996 161.733 180.056 162.13 180.056C162.59 180.056 163.003 179.98 163.367 179.83C163.736 179.68 164.028 179.468 164.242 179.194C164.456 178.921 164.563 178.604 164.563 178.244C164.563 177.916 164.47 177.649 164.283 177.444C164.101 177.239 163.857 177.071 163.552 176.938C163.246 176.806 162.911 176.69 162.547 176.59L161.316 176.241C160.496 176.009 159.858 175.676 159.402 175.243C158.947 174.81 158.719 174.257 158.719 173.582C158.719 173.008 158.874 172.507 159.184 172.078C159.493 171.645 159.913 171.31 160.441 171.073C160.97 170.836 161.562 170.718 162.219 170.718C162.889 170.718 163.481 170.836 163.996 171.073C164.511 171.31 164.917 171.634 165.213 172.044C165.514 172.45 165.673 172.91 165.691 173.425H164.42C164.361 172.928 164.124 172.545 163.709 172.276C163.294 172.003 162.784 171.866 162.178 171.866C161.74 171.866 161.355 171.939 161.022 172.085C160.694 172.226 160.439 172.422 160.257 172.673C160.075 172.919 159.983 173.201 159.983 173.521C159.983 173.876 160.093 174.163 160.312 174.382C160.535 174.596 160.797 174.765 161.098 174.888C161.403 175.006 161.679 175.1 161.925 175.168L162.943 175.448C163.217 175.521 163.518 175.621 163.846 175.749C164.178 175.877 164.495 176.048 164.796 176.262C165.097 176.471 165.343 176.74 165.534 177.068C165.73 177.392 165.828 177.791 165.828 178.265C165.828 178.821 165.682 179.322 165.391 179.769C165.104 180.215 164.684 180.568 164.133 180.828C163.581 181.088 162.914 181.218 162.13 181.218ZM167.496 183.494L168.098 179.618H169.506L168.439 183.494H167.496ZM177.121 170.854V181.04H175.822V170.854H177.121ZM180.662 176.46V181.04H179.432V173.397H180.614L180.621 175.25H180.45C180.683 174.544 181.013 174.042 181.441 173.746C181.874 173.45 182.38 173.302 182.959 173.302C183.474 173.302 183.925 173.409 184.312 173.623C184.7 173.833 185.001 174.152 185.215 174.58C185.434 175.004 185.543 175.539 185.543 176.187V181.04H184.312V176.289C184.312 175.701 184.158 175.241 183.848 174.908C183.542 174.576 183.123 174.409 182.59 174.409C182.225 174.409 181.897 174.489 181.605 174.648C181.314 174.808 181.084 175.04 180.915 175.346C180.746 175.651 180.662 176.022 180.662 176.46ZM190.567 181.204C189.934 181.204 189.373 181.042 188.886 180.719C188.398 180.395 188.018 179.937 187.744 179.345C187.471 178.752 187.334 178.05 187.334 177.239C187.334 176.433 187.471 175.735 187.744 175.147C188.022 174.555 188.405 174.099 188.893 173.78C189.38 173.461 189.941 173.302 190.574 173.302C191.071 173.302 191.465 173.384 191.757 173.548C192.049 173.712 192.272 173.899 192.427 174.108C192.586 174.313 192.707 174.484 192.789 174.621H192.885V170.854H194.115V181.04H192.926V179.857H192.789C192.707 179.999 192.584 180.176 192.42 180.391C192.26 180.6 192.033 180.789 191.736 180.958C191.445 181.122 191.055 181.204 190.567 181.204ZM190.752 180.104C191.217 180.104 191.609 179.983 191.928 179.741C192.247 179.495 192.488 179.156 192.652 178.723C192.816 178.29 192.898 177.791 192.898 177.226C192.898 176.66 192.816 176.168 192.652 175.749C192.493 175.325 192.254 174.995 191.935 174.758C191.616 174.521 191.221 174.402 190.752 174.402C190.269 174.402 189.866 174.528 189.542 174.778C189.223 175.029 188.984 175.368 188.824 175.797C188.665 176.221 188.585 176.697 188.585 177.226C188.585 177.759 188.665 178.244 188.824 178.682C188.988 179.115 189.232 179.461 189.556 179.721C189.879 179.976 190.278 180.104 190.752 180.104ZM196.275 181.04V173.397H197.506V181.04H196.275ZM196.897 172.146C196.665 172.146 196.465 172.067 196.296 171.907C196.127 171.748 196.043 171.556 196.043 171.333C196.043 171.105 196.127 170.914 196.296 170.759C196.465 170.599 196.665 170.52 196.897 170.52C197.134 170.52 197.337 170.599 197.506 170.759C197.674 170.914 197.759 171.105 197.759 171.333C197.759 171.556 197.674 171.748 197.506 171.907C197.337 172.067 197.134 172.146 196.897 172.146ZM202.523 181.204C201.895 181.204 201.336 181.042 200.849 180.719C200.366 180.395 199.985 179.937 199.707 179.345C199.434 178.752 199.297 178.05 199.297 177.239C199.297 176.433 199.436 175.735 199.714 175.147C199.992 174.555 200.375 174.099 200.862 173.78C201.354 173.461 201.917 173.302 202.551 173.302C203.043 173.302 203.435 173.384 203.727 173.548C204.018 173.707 204.242 173.892 204.396 174.102C204.551 174.311 204.67 174.484 204.752 174.621H204.854V173.397H206.078V181.04H204.861V179.857H204.752C204.67 179.999 204.547 180.176 204.383 180.391C204.223 180.605 203.995 180.794 203.699 180.958C203.403 181.122 203.011 181.204 202.523 181.204ZM202.729 180.104C203.193 180.104 203.585 179.983 203.904 179.741C204.223 179.495 204.465 179.156 204.629 178.723C204.793 178.29 204.875 177.791 204.875 177.226C204.875 176.66 204.793 176.168 204.629 175.749C204.469 175.325 204.23 174.995 203.911 174.758C203.592 174.521 203.198 174.402 202.729 174.402C202.245 174.402 201.842 174.528 201.519 174.778C201.195 175.024 200.951 175.362 200.787 175.79C200.628 176.214 200.548 176.692 200.548 177.226C200.548 177.759 200.63 178.244 200.794 178.682C200.958 179.115 201.202 179.461 201.525 179.721C201.849 179.976 202.25 180.104 202.729 180.104Z" fill="#111827"/>
<rect x="329" y="168.04" width="16" height="16" rx="8" fill="white"/>
<rect x="329" y="168.04" width="16" height="16" rx="8" stroke="#E4E4E7"/>
<path d="M33 241.04C37.9706 241.04 42 237.011 42 232.04C42 227.069 37.9706 223.04 33 223.04C28.0294 223.04 24 227.069 24 232.04C24 237.011 28.0294 241.04 33 241.04Z" stroke="#111827" stroke-miterlimit="10" stroke-linecap="round" stroke-dasharray="4 4"/>
<path d="M54.1484 238.04V226.399H58.5156C59.401 226.399 60.1484 226.566 60.7578 226.899C61.3672 227.228 61.8281 227.681 62.1406 228.259C62.4583 228.837 62.6172 229.498 62.6172 230.243C62.6172 230.988 62.4583 231.649 62.1406 232.228C61.8229 232.8 61.3568 233.251 60.7422 233.579C60.1276 233.907 59.3724 234.071 58.4766 234.071H55.5469V232.353H58.2266C58.7474 232.353 59.1745 232.264 59.5078 232.087C59.8464 231.905 60.0964 231.655 60.2578 231.337C60.4193 231.014 60.5 230.649 60.5 230.243C60.5 229.826 60.4193 229.462 60.2578 229.149C60.0964 228.832 59.8464 228.587 59.5078 228.415C59.1693 228.238 58.7396 228.149 58.2188 228.149H56.2344V238.04H54.1484ZM66.3594 226.399V238.04H64.3359V226.399H66.3594ZM71.6875 238.204C71 238.204 70.3854 238.027 69.8438 237.673C69.3021 237.313 68.875 236.8 68.5625 236.134C68.25 235.467 68.0938 234.66 68.0938 233.712C68.0938 232.759 68.2526 231.949 68.5703 231.282C68.8932 230.616 69.3255 230.11 69.8672 229.767C70.4141 229.418 71.026 229.243 71.7031 229.243C72.1979 229.243 72.6094 229.326 72.9375 229.493C73.2656 229.655 73.5286 229.855 73.7266 230.095C73.9297 230.329 74.0859 230.556 74.1953 230.774H74.2812V229.36H76.2891V238.04H74.2891V236.673H74.1953C74.0859 236.897 73.9271 237.126 73.7188 237.36C73.5156 237.595 73.2474 237.795 72.9141 237.962C72.5859 238.123 72.1771 238.204 71.6875 238.204ZM72.2422 236.532C72.6849 236.532 73.0599 236.415 73.3672 236.181C73.6797 235.941 73.9167 235.61 74.0781 235.188C74.2396 234.761 74.3203 234.267 74.3203 233.704C74.3203 233.142 74.2396 232.652 74.0781 232.235C73.9167 231.813 73.6823 231.488 73.375 231.259C73.0677 231.024 72.6901 230.907 72.2422 230.907C71.7943 230.907 71.4141 231.027 71.1016 231.267C70.7943 231.506 70.5599 231.837 70.3984 232.259C70.2422 232.675 70.1641 233.157 70.1641 233.704C70.1641 234.251 70.2422 234.738 70.3984 235.165C70.5599 235.592 70.7943 235.928 71.1016 236.173C71.4141 236.412 71.7943 236.532 72.2422 236.532ZM77.7031 238.04L81.1016 232.829L81.0938 234.337L77.8828 229.36H80.1094L80.9922 230.821C81.2474 231.259 81.4766 231.683 81.6797 232.095C81.8828 232.501 82.0885 232.899 82.2969 233.29H81.4766C81.6901 232.905 81.8932 232.506 82.0859 232.095C82.2839 231.683 82.513 231.259 82.7734 230.821L83.6875 229.36H85.875L82.6172 234.376V232.884L86.0078 238.04H83.7891L82.7266 236.321C82.4661 235.894 82.2344 235.478 82.0312 235.071C81.8281 234.665 81.6224 234.274 81.4141 233.899H82.2344C82.0312 234.274 81.8333 234.665 81.6406 235.071C81.4531 235.478 81.2292 235.894 80.9688 236.321L79.9062 238.04H77.7031ZM90.8828 238.22C90.0391 238.22 89.3047 238.032 88.6797 237.657C88.0547 237.282 87.5703 236.759 87.2266 236.087C86.888 235.415 86.7188 234.634 86.7188 233.743C86.7188 232.842 86.888 232.056 87.2266 231.384C87.5703 230.707 88.0547 230.181 88.6797 229.806C89.3047 229.431 90.0391 229.243 90.8828 229.243C91.7266 229.243 92.4609 229.431 93.0859 229.806C93.7109 230.181 94.1927 230.707 94.5312 231.384C94.875 232.056 95.0469 232.842 95.0469 233.743C95.0469 234.634 94.875 235.415 94.5312 236.087C94.1927 236.759 93.7109 237.282 93.0859 237.657C92.4609 238.032 91.7266 238.22 90.8828 238.22ZM90.8828 236.571C91.3516 236.571 91.7422 236.446 92.0547 236.196C92.3672 235.941 92.6016 235.6 92.7578 235.173C92.9141 234.746 92.9922 234.267 92.9922 233.735C92.9922 233.199 92.9141 232.717 92.7578 232.29C92.6016 231.858 92.3672 231.517 92.0547 231.267C91.7422 231.017 91.3516 230.892 90.8828 230.892C90.4141 230.892 90.0234 231.017 89.7109 231.267C89.4036 231.517 89.1719 231.855 89.0156 232.282C88.8594 232.709 88.7812 233.194 88.7812 233.735C88.7812 234.267 88.8594 234.746 89.0156 235.173C89.1719 235.6 89.4036 235.941 89.7109 236.196C90.0234 236.446 90.4141 236.571 90.8828 236.571ZM98.7969 232.978V238.04H96.7734V229.36H98.7031L98.7266 231.509H98.5391C98.7839 230.759 99.1432 230.194 99.6172 229.813C100.096 229.433 100.693 229.243 101.406 229.243C102 229.243 102.521 229.371 102.969 229.626C103.417 229.881 103.763 230.254 104.008 230.743C104.258 231.233 104.383 231.829 104.383 232.532V238.04H102.359V232.845C102.359 232.256 102.208 231.798 101.906 231.47C101.604 231.136 101.188 230.97 100.656 230.97C100.297 230.97 99.9766 231.048 99.6953 231.204C99.4193 231.36 99.2005 231.587 99.0391 231.884C98.8776 232.181 98.7969 232.545 98.7969 232.978ZM106.492 238.04V229.36H108.516V238.04H106.492ZM107.5 228.126C107.177 228.126 106.898 228.017 106.664 227.798C106.435 227.579 106.32 227.316 106.32 227.009C106.32 226.696 106.435 226.433 106.664 226.22C106.898 226.006 107.177 225.899 107.5 225.899C107.828 225.899 108.107 226.006 108.336 226.22C108.57 226.433 108.688 226.696 108.688 227.009C108.688 227.316 108.57 227.579 108.336 227.798C108.107 228.017 107.828 228.126 107.5 228.126ZM114.406 238.22C113.562 238.22 112.828 238.032 112.203 237.657C111.583 237.282 111.102 236.759 110.758 236.087C110.419 235.41 110.25 234.629 110.25 233.743C110.25 232.842 110.419 232.056 110.758 231.384C111.102 230.707 111.583 230.181 112.203 229.806C112.828 229.431 113.562 229.243 114.406 229.243C114.896 229.243 115.349 229.308 115.766 229.438C116.188 229.563 116.562 229.748 116.891 229.993C117.219 230.233 117.492 230.524 117.711 230.868C117.93 231.212 118.083 231.597 118.172 232.024L116.266 232.384C116.214 232.155 116.133 231.949 116.023 231.767C115.919 231.584 115.789 231.428 115.633 231.298C115.477 231.168 115.297 231.069 115.094 231.001C114.891 230.928 114.667 230.892 114.422 230.892C113.953 230.892 113.562 231.017 113.25 231.267C112.938 231.511 112.703 231.847 112.547 232.274C112.391 232.701 112.312 233.188 112.312 233.735C112.312 234.272 112.391 234.754 112.547 235.181C112.703 235.608 112.938 235.946 113.25 236.196C113.562 236.446 113.953 236.571 114.422 236.571C114.672 236.571 114.898 236.535 115.102 236.462C115.31 236.389 115.492 236.285 115.648 236.149C115.81 236.014 115.943 235.85 116.047 235.657C116.156 235.465 116.237 235.254 116.289 235.024L118.188 235.376C118.104 235.813 117.953 236.207 117.734 236.556C117.516 236.905 117.24 237.204 116.906 237.454C116.578 237.699 116.203 237.889 115.781 238.024C115.359 238.155 114.901 238.22 114.406 238.22Z" fill="#111827"/>
<path d="M129.017 237.129C128.761 237.129 128.543 237.04 128.36 236.862C128.183 236.68 128.094 236.461 128.094 236.206C128.094 235.951 128.183 235.734 128.36 235.557C128.543 235.374 128.761 235.283 129.017 235.283C129.272 235.283 129.488 235.374 129.666 235.557C129.848 235.734 129.939 235.951 129.939 236.206C129.939 236.461 129.848 236.68 129.666 236.862C129.488 237.04 129.272 237.129 129.017 237.129ZM135.326 237.04L139.024 226.854H140.528L144.274 237.04H142.907L140.747 230.997C140.615 230.623 140.46 230.159 140.282 229.603C140.109 229.042 139.897 228.329 139.646 227.463H139.893C139.646 228.338 139.432 229.06 139.25 229.63C139.072 230.195 138.924 230.651 138.806 230.997L136.707 237.04H135.326ZM137.186 234.196V233.062H142.415V234.196H137.186ZM146.975 237.04L144.199 226.854H145.525L147.139 233.103C147.225 233.435 147.307 233.775 147.385 234.121C147.462 234.463 147.537 234.812 147.61 235.167C147.683 235.518 147.752 235.88 147.815 236.254H147.658C147.727 235.88 147.797 235.518 147.87 235.167C147.943 234.812 148.021 234.463 148.103 234.121C148.185 233.775 148.269 233.435 148.355 233.103L150.003 226.854H151.479L153.113 233.103C153.204 233.435 153.289 233.775 153.366 234.121C153.448 234.463 153.528 234.812 153.605 235.167C153.683 235.518 153.756 235.88 153.824 236.254H153.646C153.715 235.88 153.785 235.518 153.858 235.167C153.931 234.812 154.009 234.463 154.091 234.121C154.173 233.775 154.255 233.435 154.337 233.103L155.943 226.854H157.283L154.494 237.04H152.983L151.233 230.587C151.119 230.168 151.01 229.712 150.905 229.22C150.8 228.723 150.698 228.151 150.598 227.504H150.871C150.771 228.115 150.673 228.661 150.577 229.145C150.481 229.623 150.368 230.104 150.235 230.587L148.492 237.04H146.975ZM162.13 237.218C161.396 237.218 160.758 237.099 160.216 236.862C159.678 236.625 159.257 236.295 158.951 235.871C158.646 235.443 158.473 234.944 158.432 234.374H159.765C159.801 234.757 159.931 235.074 160.154 235.324C160.378 235.57 160.662 235.755 161.009 235.878C161.36 235.996 161.733 236.056 162.13 236.056C162.59 236.056 163.003 235.98 163.367 235.83C163.736 235.68 164.028 235.468 164.242 235.194C164.456 234.921 164.563 234.604 164.563 234.244C164.563 233.916 164.47 233.649 164.283 233.444C164.101 233.239 163.857 233.071 163.552 232.938C163.246 232.806 162.911 232.69 162.547 232.59L161.316 232.241C160.496 232.009 159.858 231.676 159.402 231.243C158.947 230.81 158.719 230.257 158.719 229.582C158.719 229.008 158.874 228.507 159.184 228.078C159.493 227.645 159.913 227.31 160.441 227.073C160.97 226.836 161.562 226.718 162.219 226.718C162.889 226.718 163.481 226.836 163.996 227.073C164.511 227.31 164.917 227.634 165.213 228.044C165.514 228.45 165.673 228.91 165.691 229.425H164.42C164.361 228.928 164.124 228.545 163.709 228.276C163.294 228.003 162.784 227.866 162.178 227.866C161.74 227.866 161.355 227.939 161.022 228.085C160.694 228.226 160.439 228.422 160.257 228.673C160.075 228.919 159.983 229.201 159.983 229.521C159.983 229.876 160.093 230.163 160.312 230.382C160.535 230.596 160.797 230.765 161.098 230.888C161.403 231.006 161.679 231.1 161.925 231.168L162.943 231.448C163.217 231.521 163.518 231.621 163.846 231.749C164.178 231.877 164.495 232.048 164.796 232.262C165.097 232.471 165.343 232.74 165.534 233.068C165.73 233.392 165.828 233.791 165.828 234.265C165.828 234.821 165.682 235.322 165.391 235.769C165.104 236.215 164.684 236.568 164.133 236.828C163.581 237.088 162.914 237.218 162.13 237.218ZM167.496 239.494L168.098 235.618H169.506L168.439 239.494H167.496ZM177.121 226.854V237.04H175.822V226.854H177.121ZM180.662 232.46V237.04H179.432V229.397H180.614L180.621 231.25H180.45C180.683 230.544 181.013 230.042 181.441 229.746C181.874 229.45 182.38 229.302 182.959 229.302C183.474 229.302 183.925 229.409 184.312 229.623C184.7 229.833 185.001 230.152 185.215 230.58C185.434 231.004 185.543 231.539 185.543 232.187V237.04H184.312V232.289C184.312 231.701 184.158 231.241 183.848 230.908C183.542 230.576 183.123 230.409 182.59 230.409C182.225 230.409 181.897 230.489 181.605 230.648C181.314 230.808 181.084 231.04 180.915 231.346C180.746 231.651 180.662 232.022 180.662 232.46ZM190.567 237.204C189.934 237.204 189.373 237.042 188.886 236.719C188.398 236.395 188.018 235.937 187.744 235.345C187.471 234.752 187.334 234.05 187.334 233.239C187.334 232.433 187.471 231.735 187.744 231.147C188.022 230.555 188.405 230.099 188.893 229.78C189.38 229.461 189.941 229.302 190.574 229.302C191.071 229.302 191.465 229.384 191.757 229.548C192.049 229.712 192.272 229.899 192.427 230.108C192.586 230.313 192.707 230.484 192.789 230.621H192.885V226.854H194.115V237.04H192.926V235.857H192.789C192.707 235.999 192.584 236.176 192.42 236.391C192.26 236.6 192.033 236.789 191.736 236.958C191.445 237.122 191.055 237.204 190.567 237.204ZM190.752 236.104C191.217 236.104 191.609 235.983 191.928 235.741C192.247 235.495 192.488 235.156 192.652 234.723C192.816 234.29 192.898 233.791 192.898 233.226C192.898 232.66 192.816 232.168 192.652 231.749C192.493 231.325 192.254 230.995 191.935 230.758C191.616 230.521 191.221 230.402 190.752 230.402C190.269 230.402 189.866 230.528 189.542 230.778C189.223 231.029 188.984 231.368 188.824 231.797C188.665 232.221 188.585 232.697 188.585 233.226C188.585 233.759 188.665 234.244 188.824 234.682C188.988 235.115 189.232 235.461 189.556 235.721C189.879 235.976 190.278 236.104 190.752 236.104ZM196.275 237.04V229.397H197.506V237.04H196.275ZM196.897 228.146C196.665 228.146 196.465 228.067 196.296 227.907C196.127 227.748 196.043 227.556 196.043 227.333C196.043 227.105 196.127 226.914 196.296 226.759C196.465 226.599 196.665 226.52 196.897 226.52C197.134 226.52 197.337 226.599 197.506 226.759C197.674 226.914 197.759 227.105 197.759 227.333C197.759 227.556 197.674 227.748 197.506 227.907C197.337 228.067 197.134 228.146 196.897 228.146ZM202.523 237.204C201.895 237.204 201.336 237.042 200.849 236.719C200.366 236.395 199.985 235.937 199.707 235.345C199.434 234.752 199.297 234.05 199.297 233.239C199.297 232.433 199.436 231.735 199.714 231.147C199.992 230.555 200.375 230.099 200.862 229.78C201.354 229.461 201.917 229.302 202.551 229.302C203.043 229.302 203.435 229.384 203.727 229.548C204.018 229.707 204.242 229.892 204.396 230.102C204.551 230.311 204.67 230.484 204.752 230.621H204.854V229.397H206.078V237.04H204.861V235.857H204.752C204.67 235.999 204.547 236.176 204.383 236.391C204.223 236.605 203.995 236.794 203.699 236.958C203.403 237.122 203.011 237.204 202.523 237.204ZM202.729 236.104C203.193 236.104 203.585 235.983 203.904 235.741C204.223 235.495 204.465 235.156 204.629 234.723C204.793 234.29 204.875 233.791 204.875 233.226C204.875 232.66 204.793 232.168 204.629 231.749C204.469 231.325 204.23 230.995 203.911 230.758C203.592 230.521 203.198 230.402 202.729 230.402C202.245 230.402 201.842 230.528 201.519 230.778C201.195 231.024 200.951 231.362 200.787 231.79C200.628 232.214 200.548 232.692 200.548 233.226C200.548 233.759 200.63 234.244 200.794 234.682C200.958 235.115 201.202 235.461 201.525 235.721C201.849 235.976 202.25 236.104 202.729 236.104Z" fill="#111827"/>
<rect x="329" y="224.04" width="16" height="16" rx="8" fill="white"/>
<rect x="329" y="224.04" width="16" height="16" rx="8" stroke="#E4E4E7"/>
<path d="M33 297.04C37.9706 297.04 42 293.011 42 288.04C42 283.069 37.9706 279.04 33 279.04C28.0294 279.04 24 283.069 24 288.04C24 293.011 28.0294 297.04 33 297.04Z" stroke="#111827" stroke-miterlimit="10" stroke-linecap="round" stroke-dasharray="4 4"/>
<path d="M54.1484 294.04V282.399H58.5156C59.401 282.399 60.1484 282.566 60.7578 282.899C61.3672 283.228 61.8281 283.681 62.1406 284.259C62.4583 284.837 62.6172 285.498 62.6172 286.243C62.6172 286.988 62.4583 287.649 62.1406 288.228C61.8229 288.8 61.3568 289.251 60.7422 289.579C60.1276 289.907 59.3724 290.071 58.4766 290.071H55.5469V288.353H58.2266C58.7474 288.353 59.1745 288.264 59.5078 288.087C59.8464 287.905 60.0964 287.655 60.2578 287.337C60.4193 287.014 60.5 286.649 60.5 286.243C60.5 285.826 60.4193 285.462 60.2578 285.149C60.0964 284.832 59.8464 284.587 59.5078 284.415C59.1693 284.238 58.7396 284.149 58.2188 284.149H56.2344V294.04H54.1484ZM66.3594 282.399V294.04H64.3359V282.399H66.3594ZM71.6875 294.204C71 294.204 70.3854 294.027 69.8438 293.673C69.3021 293.313 68.875 292.8 68.5625 292.134C68.25 291.467 68.0938 290.66 68.0938 289.712C68.0938 288.759 68.2526 287.949 68.5703 287.282C68.8932 286.616 69.3255 286.11 69.8672 285.767C70.4141 285.418 71.026 285.243 71.7031 285.243C72.1979 285.243 72.6094 285.326 72.9375 285.493C73.2656 285.655 73.5286 285.855 73.7266 286.095C73.9297 286.329 74.0859 286.556 74.1953 286.774H74.2812V285.36H76.2891V294.04H74.2891V292.673H74.1953C74.0859 292.897 73.9271 293.126 73.7188 293.36C73.5156 293.595 73.2474 293.795 72.9141 293.962C72.5859 294.123 72.1771 294.204 71.6875 294.204ZM72.2422 292.532C72.6849 292.532 73.0599 292.415 73.3672 292.181C73.6797 291.941 73.9167 291.61 74.0781 291.188C74.2396 290.761 74.3203 290.267 74.3203 289.704C74.3203 289.142 74.2396 288.652 74.0781 288.235C73.9167 287.813 73.6823 287.488 73.375 287.259C73.0677 287.024 72.6901 286.907 72.2422 286.907C71.7943 286.907 71.4141 287.027 71.1016 287.267C70.7943 287.506 70.5599 287.837 70.3984 288.259C70.2422 288.675 70.1641 289.157 70.1641 289.704C70.1641 290.251 70.2422 290.738 70.3984 291.165C70.5599 291.592 70.7943 291.928 71.1016 292.173C71.4141 292.412 71.7943 292.532 72.2422 292.532ZM77.7031 294.04L81.1016 288.829L81.0938 290.337L77.8828 285.36H80.1094L80.9922 286.821C81.2474 287.259 81.4766 287.683 81.6797 288.095C81.8828 288.501 82.0885 288.899 82.2969 289.29H81.4766C81.6901 288.905 81.8932 288.506 82.0859 288.095C82.2839 287.683 82.513 287.259 82.7734 286.821L83.6875 285.36H85.875L82.6172 290.376V288.884L86.0078 294.04H83.7891L82.7266 292.321C82.4661 291.894 82.2344 291.478 82.0312 291.071C81.8281 290.665 81.6224 290.274 81.4141 289.899H82.2344C82.0312 290.274 81.8333 290.665 81.6406 291.071C81.4531 291.478 81.2292 291.894 80.9688 292.321L79.9062 294.04H77.7031ZM90.8828 294.22C90.0391 294.22 89.3047 294.032 88.6797 293.657C88.0547 293.282 87.5703 292.759 87.2266 292.087C86.888 291.415 86.7188 290.634 86.7188 289.743C86.7188 288.842 86.888 288.056 87.2266 287.384C87.5703 286.707 88.0547 286.181 88.6797 285.806C89.3047 285.431 90.0391 285.243 90.8828 285.243C91.7266 285.243 92.4609 285.431 93.0859 285.806C93.7109 286.181 94.1927 286.707 94.5312 287.384C94.875 288.056 95.0469 288.842 95.0469 289.743C95.0469 290.634 94.875 291.415 94.5312 292.087C94.1927 292.759 93.7109 293.282 93.0859 293.657C92.4609 294.032 91.7266 294.22 90.8828 294.22ZM90.8828 292.571C91.3516 292.571 91.7422 292.446 92.0547 292.196C92.3672 291.941 92.6016 291.6 92.7578 291.173C92.9141 290.746 92.9922 290.267 92.9922 289.735C92.9922 289.199 92.9141 288.717 92.7578 288.29C92.6016 287.858 92.3672 287.517 92.0547 287.267C91.7422 287.017 91.3516 286.892 90.8828 286.892C90.4141 286.892 90.0234 287.017 89.7109 287.267C89.4036 287.517 89.1719 287.855 89.0156 288.282C88.8594 288.709 88.7812 289.194 88.7812 289.735C88.7812 290.267 88.8594 290.746 89.0156 291.173C89.1719 291.6 89.4036 291.941 89.7109 292.196C90.0234 292.446 90.4141 292.571 90.8828 292.571ZM98.7969 288.978V294.04H96.7734V285.36H98.7031L98.7266 287.509H98.5391C98.7839 286.759 99.1432 286.194 99.6172 285.813C100.096 285.433 100.693 285.243 101.406 285.243C102 285.243 102.521 285.371 102.969 285.626C103.417 285.881 103.763 286.254 104.008 286.743C104.258 287.233 104.383 287.829 104.383 288.532V294.04H102.359V288.845C102.359 288.256 102.208 287.798 101.906 287.47C101.604 287.136 101.188 286.97 100.656 286.97C100.297 286.97 99.9766 287.048 99.6953 287.204C99.4193 287.36 99.2005 287.587 99.0391 287.884C98.8776 288.181 98.7969 288.545 98.7969 288.978ZM106.492 294.04V285.36H108.516V294.04H106.492ZM107.5 284.126C107.177 284.126 106.898 284.017 106.664 283.798C106.435 283.579 106.32 283.316 106.32 283.009C106.32 282.696 106.435 282.433 106.664 282.22C106.898 282.006 107.177 281.899 107.5 281.899C107.828 281.899 108.107 282.006 108.336 282.22C108.57 282.433 108.688 282.696 108.688 283.009C108.688 283.316 108.57 283.579 108.336 283.798C108.107 284.017 107.828 284.126 107.5 284.126ZM114.406 294.22C113.562 294.22 112.828 294.032 112.203 293.657C111.583 293.282 111.102 292.759 110.758 292.087C110.419 291.41 110.25 290.629 110.25 289.743C110.25 288.842 110.419 288.056 110.758 287.384C111.102 286.707 111.583 286.181 112.203 285.806C112.828 285.431 113.562 285.243 114.406 285.243C114.896 285.243 115.349 285.308 115.766 285.438C116.188 285.563 116.562 285.748 116.891 285.993C117.219 286.233 117.492 286.524 117.711 286.868C117.93 287.212 118.083 287.597 118.172 288.024L116.266 288.384C116.214 288.155 116.133 287.949 116.023 287.767C115.919 287.584 115.789 287.428 115.633 287.298C115.477 287.168 115.297 287.069 115.094 287.001C114.891 286.928 114.667 286.892 114.422 286.892C113.953 286.892 113.562 287.017 113.25 287.267C112.938 287.511 112.703 287.847 112.547 288.274C112.391 288.701 112.312 289.188 112.312 289.735C112.312 290.272 112.391 290.754 112.547 291.181C112.703 291.608 112.938 291.946 113.25 292.196C113.562 292.446 113.953 292.571 114.422 292.571C114.672 292.571 114.898 292.535 115.102 292.462C115.31 292.389 115.492 292.285 115.648 292.149C115.81 292.014 115.943 291.85 116.047 291.657C116.156 291.465 116.237 291.254 116.289 291.024L118.188 291.376C118.104 291.813 117.953 292.207 117.734 292.556C117.516 292.905 117.24 293.204 116.906 293.454C116.578 293.699 116.203 293.889 115.781 294.024C115.359 294.155 114.901 294.22 114.406 294.22Z" fill="#111827"/>
<path d="M129.017 293.129C128.761 293.129 128.543 293.04 128.36 292.862C128.183 292.68 128.094 292.461 128.094 292.206C128.094 291.951 128.183 291.734 128.36 291.557C128.543 291.374 128.761 291.283 129.017 291.283C129.272 291.283 129.488 291.374 129.666 291.557C129.848 291.734 129.939 291.951 129.939 292.206C129.939 292.461 129.848 292.68 129.666 292.862C129.488 293.04 129.272 293.129 129.017 293.129ZM135.326 293.04L139.024 282.854H140.528L144.274 293.04H142.907L140.747 286.997C140.615 286.623 140.46 286.159 140.282 285.603C140.109 285.042 139.897 284.329 139.646 283.463H139.893C139.646 284.338 139.432 285.06 139.25 285.63C139.072 286.195 138.924 286.651 138.806 286.997L136.707 293.04H135.326ZM137.186 290.196V289.062H142.415V290.196H137.186ZM146.975 293.04L144.199 282.854H145.525L147.139 289.103C147.225 289.435 147.307 289.775 147.385 290.121C147.462 290.463 147.537 290.812 147.61 291.167C147.683 291.518 147.752 291.88 147.815 292.254H147.658C147.727 291.88 147.797 291.518 147.87 291.167C147.943 290.812 148.021 290.463 148.103 290.121C148.185 289.775 148.269 289.435 148.355 289.103L150.003 282.854H151.479L153.113 289.103C153.204 289.435 153.289 289.775 153.366 290.121C153.448 290.463 153.528 290.812 153.605 291.167C153.683 291.518 153.756 291.88 153.824 292.254H153.646C153.715 291.88 153.785 291.518 153.858 291.167C153.931 290.812 154.009 290.463 154.091 290.121C154.173 289.775 154.255 289.435 154.337 289.103L155.943 282.854H157.283L154.494 293.04H152.983L151.233 286.587C151.119 286.168 151.01 285.712 150.905 285.22C150.8 284.723 150.698 284.151 150.598 283.504H150.871C150.771 284.115 150.673 284.661 150.577 285.145C150.481 285.623 150.368 286.104 150.235 286.587L148.492 293.04H146.975ZM162.13 293.218C161.396 293.218 160.758 293.099 160.216 292.862C159.678 292.625 159.257 292.295 158.951 291.871C158.646 291.443 158.473 290.944 158.432 290.374H159.765C159.801 290.757 159.931 291.074 160.154 291.324C160.378 291.57 160.662 291.755 161.009 291.878C161.36 291.996 161.733 292.056 162.13 292.056C162.59 292.056 163.003 291.98 163.367 291.83C163.736 291.68 164.028 291.468 164.242 291.194C164.456 290.921 164.563 290.604 164.563 290.244C164.563 289.916 164.47 289.649 164.283 289.444C164.101 289.239 163.857 289.071 163.552 288.938C163.246 288.806 162.911 288.69 162.547 288.59L161.316 288.241C160.496 288.009 159.858 287.676 159.402 287.243C158.947 286.81 158.719 286.257 158.719 285.582C158.719 285.008 158.874 284.507 159.184 284.078C159.493 283.645 159.913 283.31 160.441 283.073C160.97 282.836 161.562 282.718 162.219 282.718C162.889 282.718 163.481 282.836 163.996 283.073C164.511 283.31 164.917 283.634 165.213 284.044C165.514 284.45 165.673 284.91 165.691 285.425H164.42C164.361 284.928 164.124 284.545 163.709 284.276C163.294 284.003 162.784 283.866 162.178 283.866C161.74 283.866 161.355 283.939 161.022 284.085C160.694 284.226 160.439 284.422 160.257 284.673C160.075 284.919 159.983 285.201 159.983 285.521C159.983 285.876 160.093 286.163 160.312 286.382C160.535 286.596 160.797 286.765 161.098 286.888C161.403 287.006 161.679 287.1 161.925 287.168L162.943 287.448C163.217 287.521 163.518 287.621 163.846 287.749C164.178 287.877 164.495 288.048 164.796 288.262C165.097 288.471 165.343 288.74 165.534 289.068C165.73 289.392 165.828 289.791 165.828 290.265C165.828 290.821 165.682 291.322 165.391 291.769C165.104 292.215 164.684 292.568 164.133 292.828C163.581 293.088 162.914 293.218 162.13 293.218ZM167.496 295.494L168.098 291.618H169.506L168.439 295.494H167.496ZM177.121 282.854V293.04H175.822V282.854H177.121ZM180.662 288.46V293.04H179.432V285.397H180.614L180.621 287.25H180.45C180.683 286.544 181.013 286.042 181.441 285.746C181.874 285.45 182.38 285.302 182.959 285.302C183.474 285.302 183.925 285.409 184.312 285.623C184.7 285.833 185.001 286.152 185.215 286.58C185.434 287.004 185.543 287.539 185.543 288.187V293.04H184.312V288.289C184.312 287.701 184.158 287.241 183.848 286.908C183.542 286.576 183.123 286.409 182.59 286.409C182.225 286.409 181.897 286.489 181.605 286.648C181.314 286.808 181.084 287.04 180.915 287.346C180.746 287.651 180.662 288.022 180.662 288.46ZM190.567 293.204C189.934 293.204 189.373 293.042 188.886 292.719C188.398 292.395 188.018 291.937 187.744 291.345C187.471 290.752 187.334 290.05 187.334 289.239C187.334 288.433 187.471 287.735 187.744 287.147C188.022 286.555 188.405 286.099 188.893 285.78C189.38 285.461 189.941 285.302 190.574 285.302C191.071 285.302 191.465 285.384 191.757 285.548C192.049 285.712 192.272 285.899 192.427 286.108C192.586 286.313 192.707 286.484 192.789 286.621H192.885V282.854H194.115V293.04H192.926V291.857H192.789C192.707 291.999 192.584 292.176 192.42 292.391C192.26 292.6 192.033 292.789 191.736 292.958C191.445 293.122 191.055 293.204 190.567 293.204ZM190.752 292.104C191.217 292.104 191.609 291.983 191.928 291.741C192.247 291.495 192.488 291.156 192.652 290.723C192.816 290.29 192.898 289.791 192.898 289.226C192.898 288.66 192.816 288.168 192.652 287.749C192.493 287.325 192.254 286.995 191.935 286.758C191.616 286.521 191.221 286.402 190.752 286.402C190.269 286.402 189.866 286.528 189.542 286.778C189.223 287.029 188.984 287.368 188.824 287.797C188.665 288.221 188.585 288.697 188.585 289.226C188.585 289.759 188.665 290.244 188.824 290.682C188.988 291.115 189.232 291.461 189.556 291.721C189.879 291.976 190.278 292.104 190.752 292.104ZM196.275 293.04V285.397H197.506V293.04H196.275ZM196.897 284.146C196.665 284.146 196.465 284.067 196.296 283.907C196.127 283.748 196.043 283.556 196.043 283.333C196.043 283.105 196.127 282.914 196.296 282.759C196.465 282.599 196.665 282.52 196.897 282.52C197.134 282.52 197.337 282.599 197.506 282.759C197.674 282.914 197.759 283.105 197.759 283.333C197.759 283.556 197.674 283.748 197.506 283.907C197.337 284.067 197.134 284.146 196.897 284.146ZM202.523 293.204C201.895 293.204 201.336 293.042 200.849 292.719C200.366 292.395 199.985 291.937 199.707 291.345C199.434 290.752 199.297 290.05 199.297 289.239C199.297 288.433 199.436 287.735 199.714 287.147C199.992 286.555 200.375 286.099 200.862 285.78C201.354 285.461 201.917 285.302 202.551 285.302C203.043 285.302 203.435 285.384 203.727 285.548C204.018 285.707 204.242 285.892 204.396 286.102C204.551 286.311 204.67 286.484 204.752 286.621H204.854V285.397H206.078V293.04H204.861V291.857H204.752C204.67 291.999 204.547 292.176 204.383 292.391C204.223 292.605 203.995 292.794 203.699 292.958C203.403 293.122 203.011 293.204 202.523 293.204ZM202.729 292.104C203.193 292.104 203.585 291.983 203.904 291.741C204.223 291.495 204.465 291.156 204.629 290.723C204.793 290.29 204.875 289.791 204.875 289.226C204.875 288.66 204.793 288.168 204.629 287.749C204.469 287.325 204.23 286.995 203.911 286.758C203.592 286.521 203.198 286.402 202.729 286.402C202.245 286.402 201.842 286.528 201.519 286.778C201.195 287.024 200.951 287.362 200.787 287.79C200.628 288.214 200.548 288.692 200.548 289.226C200.548 289.759 200.63 290.244 200.794 290.682C200.958 291.115 201.202 291.461 201.525 291.721C201.849 291.976 202.25 292.104 202.729 292.104Z" fill="#111827"/>
<rect x="329" y="280.04" width="16" height="16" rx="8" fill="white"/>
<rect x="329" y="280.04" width="16" height="16" rx="8" stroke="#E4E4E7"/>
<g filter="url(#filter1_d_3945_128507)">
<path d="M29.4912 341.218C28.7575 341.218 28.1195 341.099 27.5771 340.862C27.0394 340.625 26.6178 340.295 26.3125 339.871C26.0072 339.443 25.834 338.944 25.793 338.374H27.126C27.1624 338.757 27.2923 339.074 27.5156 339.324C27.7389 339.57 28.0238 339.755 28.3701 339.878C28.721 339.996 29.0947 340.056 29.4912 340.056C29.9515 340.056 30.3639 339.98 30.7285 339.83C31.0977 339.68 31.3893 339.468 31.6035 339.194C31.8177 338.921 31.9248 338.604 31.9248 338.244C31.9248 337.916 31.8314 337.649 31.6445 337.444C31.4622 337.239 31.2184 337.071 30.9131 336.938C30.6077 336.806 30.2728 336.69 29.9082 336.59L28.6777 336.241C27.8574 336.009 27.2194 335.676 26.7637 335.243C26.3079 334.81 26.0801 334.257 26.0801 333.582C26.0801 333.008 26.235 332.507 26.5449 332.078C26.8548 331.645 27.2741 331.31 27.8027 331.073C28.3314 330.836 28.9238 330.718 29.5801 330.718C30.25 330.718 30.8424 330.836 31.3574 331.073C31.8724 331.31 32.278 331.634 32.5742 332.044C32.875 332.45 33.0345 332.91 33.0527 333.425H31.7812C31.722 332.928 31.485 332.545 31.0703 332.276C30.6556 332.003 30.1452 331.866 29.5391 331.866C29.1016 331.866 28.7165 331.939 28.3838 332.085C28.0557 332.226 27.8005 332.422 27.6182 332.673C27.4359 332.919 27.3447 333.201 27.3447 333.521C27.3447 333.876 27.4541 334.163 27.6729 334.382C27.8962 334.596 28.1582 334.765 28.459 334.888C28.7643 335.006 29.04 335.1 29.2861 335.168L30.3047 335.448C30.5781 335.521 30.8789 335.621 31.207 335.749C31.5397 335.877 31.8564 336.048 32.1572 336.262C32.458 336.471 32.7041 336.74 32.8955 337.068C33.0915 337.392 33.1895 337.791 33.1895 338.265C33.1895 338.821 33.0436 339.322 32.752 339.769C32.4648 340.215 32.0456 340.568 31.4941 340.828C30.9427 341.088 30.2751 341.218 29.4912 341.218ZM38.2754 341.204C37.5371 341.204 36.8991 341.04 36.3613 340.712C35.8281 340.384 35.4157 339.926 35.124 339.338C34.8369 338.75 34.6934 338.064 34.6934 337.28C34.6934 336.496 34.8346 335.806 35.1172 335.209C35.3997 334.612 35.7985 334.145 36.3135 333.808C36.833 333.47 37.4391 333.302 38.1318 333.302C38.5374 333.302 38.9362 333.37 39.3281 333.507C39.7246 333.639 40.0824 333.855 40.4014 334.156C40.7249 334.452 40.9824 334.844 41.1738 335.332C41.3652 335.82 41.4609 336.417 41.4609 337.123V337.636H35.5273V336.597H40.7979L40.2236 336.979C40.2236 336.478 40.1439 336.034 39.9844 335.646C39.8294 335.255 39.597 334.949 39.2871 334.73C38.9772 334.507 38.5921 334.396 38.1318 334.396C37.6715 334.396 37.2773 334.509 36.9492 334.737C36.6211 334.961 36.3704 335.255 36.1973 335.619C36.0241 335.979 35.9375 336.367 35.9375 336.781V337.472C35.9375 338.037 36.0355 338.518 36.2314 338.914C36.4274 339.306 36.7008 339.604 37.0518 339.81C37.4072 340.01 37.8174 340.11 38.2822 340.11C38.583 340.11 38.8564 340.067 39.1025 339.98C39.3486 339.894 39.5605 339.764 39.7383 339.591C39.916 339.413 40.0527 339.194 40.1484 338.935L41.3379 339.263C41.2194 339.646 41.0189 339.983 40.7363 340.274C40.4538 340.566 40.1029 340.794 39.6836 340.958C39.2689 341.122 38.7995 341.204 38.2754 341.204ZM46.082 341.204C45.4531 341.204 44.8949 341.042 44.4072 340.719C43.9242 340.395 43.5436 339.937 43.2656 339.345C42.9922 338.752 42.8555 338.05 42.8555 337.239C42.8555 336.433 42.9945 335.735 43.2725 335.147C43.5505 334.555 43.9333 334.099 44.4209 333.78C44.9131 333.461 45.4759 333.302 46.1094 333.302C46.6016 333.302 46.9935 333.384 47.2852 333.548C47.5768 333.707 47.8001 333.892 47.9551 334.102C48.11 334.311 48.2285 334.484 48.3105 334.621H48.4131V333.397H49.6367V341.04H48.4199V339.857H48.3105C48.2285 339.999 48.1055 340.176 47.9414 340.391C47.7819 340.605 47.554 340.794 47.2578 340.958C46.9616 341.122 46.5697 341.204 46.082 341.204ZM46.2871 340.104C46.752 340.104 47.1439 339.983 47.4629 339.741C47.7819 339.495 48.0234 339.156 48.1875 338.723C48.3516 338.29 48.4336 337.791 48.4336 337.226C48.4336 336.66 48.3516 336.168 48.1875 335.749C48.028 335.325 47.7887 334.995 47.4697 334.758C47.1507 334.521 46.7565 334.402 46.2871 334.402C45.804 334.402 45.4007 334.528 45.0771 334.778C44.7536 335.024 44.5098 335.362 44.3457 335.79C44.1862 336.214 44.1064 336.692 44.1064 337.226C44.1064 337.759 44.1885 338.244 44.3525 338.682C44.5166 339.115 44.7604 339.461 45.084 339.721C45.4076 339.976 45.8086 340.104 46.2871 340.104ZM51.7969 341.04V333.397H52.9863V334.573H53.0684C53.2096 334.186 53.4603 333.876 53.8203 333.644C54.1849 333.407 54.5951 333.288 55.0508 333.288C55.1419 333.288 55.249 333.29 55.3721 333.295C55.4997 333.299 55.5999 333.304 55.6729 333.309V334.546C55.6364 334.537 55.5452 334.523 55.3994 334.505C55.2536 334.487 55.0986 334.478 54.9346 334.478C54.57 334.478 54.2419 334.555 53.9502 334.71C53.6631 334.86 53.4375 335.07 53.2734 335.339C53.1094 335.603 53.0273 335.909 53.0273 336.255V341.04H51.7969ZM59.9521 341.204C59.2594 341.204 58.651 341.04 58.127 340.712C57.6074 340.384 57.2018 339.924 56.9102 339.331C56.6185 338.739 56.4727 338.05 56.4727 337.267C56.4727 336.469 56.6185 335.774 56.9102 335.182C57.2018 334.585 57.6074 334.122 58.127 333.794C58.651 333.466 59.2594 333.302 59.9521 333.302C60.3213 333.302 60.6699 333.35 60.998 333.445C61.3262 333.541 61.6247 333.68 61.8936 333.862C62.167 334.04 62.4017 334.261 62.5977 334.525C62.7936 334.785 62.944 335.081 63.0488 335.414L61.8662 335.749C61.8115 335.553 61.7272 335.373 61.6133 335.209C61.4993 335.045 61.3604 334.904 61.1963 334.785C61.0368 334.662 60.8522 334.569 60.6426 334.505C60.4329 334.437 60.2028 334.402 59.9521 334.402C59.4417 334.402 59.0225 334.537 58.6943 334.806C58.3662 335.07 58.1224 335.419 57.9629 335.852C57.8034 336.285 57.7236 336.756 57.7236 337.267C57.7236 337.768 57.8034 338.235 57.9629 338.668C58.1224 339.096 58.3662 339.443 58.6943 339.707C59.0225 339.971 59.4417 340.104 59.9521 340.104C60.2074 340.104 60.4421 340.069 60.6562 340.001C60.8704 339.933 61.0596 339.837 61.2236 339.714C61.3923 339.586 61.5335 339.436 61.6475 339.263C61.7614 339.09 61.8457 338.9 61.9004 338.695L63.0762 339.03C62.9759 339.372 62.8255 339.677 62.625 339.946C62.429 340.211 62.1943 340.438 61.9209 340.63C61.6475 340.817 61.3444 340.958 61.0117 341.054C60.679 341.154 60.3258 341.204 59.9521 341.204ZM66.0703 336.46V341.04H64.8398V330.854H66.0703V335.25H65.8584C66.0908 334.544 66.4212 334.042 66.8496 333.746C67.2826 333.45 67.7884 333.302 68.3672 333.302C68.8822 333.302 69.3333 333.409 69.7207 333.623C70.1126 333.833 70.4157 334.152 70.6299 334.58C70.8486 335.004 70.958 335.539 70.958 336.187V341.04H69.7207V336.289C69.7207 335.701 69.5658 335.241 69.2559 334.908C68.9505 334.576 68.5312 334.409 67.998 334.409C67.6335 334.409 67.3053 334.489 67.0137 334.648C66.722 334.808 66.4919 335.04 66.3232 335.346C66.1546 335.651 66.0703 336.022 66.0703 336.46ZM80.6172 333.397V334.45H76.1191V333.397H80.6172ZM77.623 341.04V332.379C77.623 331.937 77.7256 331.568 77.9307 331.271C78.1403 330.975 78.4115 330.752 78.7441 330.602C79.0768 330.451 79.4277 330.376 79.7969 330.376C80.0885 330.376 80.3301 330.401 80.5215 330.451C80.7129 330.497 80.8542 330.54 80.9453 330.581L80.6035 331.634C80.5397 331.611 80.4554 331.586 80.3506 331.559C80.2503 331.531 80.1136 331.518 79.9404 331.518C79.5622 331.518 79.2865 331.616 79.1133 331.812C78.9401 332.003 78.8535 332.283 78.8535 332.652V341.04H77.623ZM84.9443 341.204C84.2516 341.204 83.6432 341.04 83.1191 340.712C82.5996 340.384 82.194 339.924 81.9023 339.331C81.6107 338.739 81.4648 338.05 81.4648 337.267C81.4648 336.469 81.6107 335.774 81.9023 335.182C82.194 334.585 82.5996 334.122 83.1191 333.794C83.6432 333.466 84.2516 333.302 84.9443 333.302C85.6416 333.302 86.2523 333.466 86.7764 333.794C87.3005 334.122 87.7083 334.585 88 335.182C88.2917 335.774 88.4375 336.469 88.4375 337.267C88.4375 338.05 88.2917 338.739 88 339.331C87.7083 339.924 87.3005 340.384 86.7764 340.712C86.2523 341.04 85.6416 341.204 84.9443 341.204ZM84.9443 340.104C85.4593 340.104 85.8831 339.971 86.2158 339.707C86.5485 339.443 86.7946 339.096 86.9541 338.668C87.1136 338.235 87.1934 337.768 87.1934 337.267C87.1934 336.761 87.1136 336.291 86.9541 335.858C86.7946 335.421 86.5485 335.07 86.2158 334.806C85.8831 334.537 85.4593 334.402 84.9443 334.402C84.4339 334.402 84.0146 334.537 83.6865 334.806C83.3584 335.07 83.1146 335.419 82.9551 335.852C82.7956 336.285 82.7158 336.756 82.7158 337.267C82.7158 337.768 82.7956 338.235 82.9551 338.668C83.1146 339.096 83.3584 339.443 83.6865 339.707C84.0146 339.971 84.4339 340.104 84.9443 340.104ZM90.2285 341.04V333.397H91.418V334.573H91.5C91.6413 334.186 91.8919 333.876 92.252 333.644C92.6165 333.407 93.0267 333.288 93.4824 333.288C93.5736 333.288 93.6807 333.29 93.8037 333.295C93.9313 333.299 94.0316 333.304 94.1045 333.309V334.546C94.068 334.537 93.9769 334.523 93.8311 334.505C93.6852 334.487 93.5303 334.478 93.3662 334.478C93.0016 334.478 92.6735 334.555 92.3818 334.71C92.0947 334.86 91.8691 335.07 91.7051 335.339C91.541 335.603 91.459 335.909 91.459 336.255V341.04H90.2285ZM99.4434 341.04V333.397H100.64L100.646 335.106H100.551C100.656 334.692 100.82 334.35 101.043 334.081C101.271 333.808 101.535 333.603 101.836 333.466C102.141 333.329 102.458 333.261 102.786 333.261C103.342 333.261 103.791 333.432 104.133 333.773C104.479 334.115 104.702 334.564 104.803 335.12H104.639C104.73 334.737 104.896 334.407 105.138 334.129C105.379 333.851 105.671 333.637 106.013 333.486C106.359 333.336 106.735 333.261 107.141 333.261C107.583 333.261 107.986 333.356 108.351 333.548C108.715 333.739 109.005 334.029 109.219 334.416C109.438 334.803 109.547 335.293 109.547 335.886V341.04H108.31V335.92C108.31 335.368 108.155 334.974 107.845 334.737C107.539 334.5 107.182 334.382 106.771 334.382C106.43 334.382 106.133 334.455 105.883 334.601C105.637 334.742 105.445 334.938 105.309 335.188C105.176 335.439 105.11 335.726 105.11 336.05V341.04H103.88V335.797C103.88 335.373 103.739 335.031 103.456 334.771C103.174 334.512 102.816 334.382 102.383 334.382C102.087 334.382 101.806 334.452 101.542 334.594C101.282 334.73 101.073 334.936 100.913 335.209C100.754 335.482 100.674 335.822 100.674 336.228V341.04H99.4434ZM114.817 341.204C114.125 341.204 113.516 341.04 112.992 340.712C112.473 340.384 112.067 339.924 111.775 339.331C111.484 338.739 111.338 338.05 111.338 337.267C111.338 336.469 111.484 335.774 111.775 335.182C112.067 334.585 112.473 334.122 112.992 333.794C113.516 333.466 114.125 333.302 114.817 333.302C115.515 333.302 116.125 333.466 116.649 333.794C117.174 334.122 117.581 334.585 117.873 335.182C118.165 335.774 118.311 336.469 118.311 337.267C118.311 338.05 118.165 338.739 117.873 339.331C117.581 339.924 117.174 340.384 116.649 340.712C116.125 341.04 115.515 341.204 114.817 341.204ZM114.817 340.104C115.332 340.104 115.756 339.971 116.089 339.707C116.422 339.443 116.668 339.096 116.827 338.668C116.987 338.235 117.066 337.768 117.066 337.267C117.066 336.761 116.987 336.291 116.827 335.858C116.668 335.421 116.422 335.07 116.089 334.806C115.756 334.537 115.332 334.402 114.817 334.402C114.307 334.402 113.888 334.537 113.56 334.806C113.231 335.07 112.988 335.419 112.828 335.852C112.669 336.285 112.589 336.756 112.589 337.267C112.589 337.768 112.669 338.235 112.828 338.668C112.988 339.096 113.231 339.443 113.56 339.707C113.888 339.971 114.307 340.104 114.817 340.104ZM120.102 341.04V333.397H121.291V334.573H121.373C121.514 334.186 121.765 333.876 122.125 333.644C122.49 333.407 122.9 333.288 123.355 333.288C123.447 333.288 123.554 333.29 123.677 333.295C123.804 333.299 123.905 333.304 123.978 333.309V334.546C123.941 334.537 123.85 334.523 123.704 334.505C123.558 334.487 123.403 334.478 123.239 334.478C122.875 334.478 122.547 334.555 122.255 334.71C121.968 334.86 121.742 335.07 121.578 335.339C121.414 335.603 121.332 335.909 121.332 336.255V341.04H120.102ZM128.359 341.204C127.621 341.204 126.983 341.04 126.445 340.712C125.912 340.384 125.5 339.926 125.208 339.338C124.921 338.75 124.777 338.064 124.777 337.28C124.777 336.496 124.919 335.806 125.201 335.209C125.484 334.612 125.882 334.145 126.397 333.808C126.917 333.47 127.523 333.302 128.216 333.302C128.621 333.302 129.02 333.37 129.412 333.507C129.809 333.639 130.166 333.855 130.485 334.156C130.809 334.452 131.066 334.844 131.258 335.332C131.449 335.82 131.545 336.417 131.545 337.123V337.636H125.611V336.597H130.882L130.308 336.979C130.308 336.478 130.228 336.034 130.068 335.646C129.913 335.255 129.681 334.949 129.371 334.73C129.061 334.507 128.676 334.396 128.216 334.396C127.756 334.396 127.361 334.509 127.033 334.737C126.705 334.961 126.454 335.255 126.281 335.619C126.108 335.979 126.021 336.367 126.021 336.781V337.472C126.021 338.037 126.119 338.518 126.315 338.914C126.511 339.306 126.785 339.604 127.136 339.81C127.491 340.01 127.901 340.11 128.366 340.11C128.667 340.11 128.94 340.067 129.187 339.98C129.433 339.894 129.645 339.764 129.822 339.591C130 339.413 130.137 339.194 130.232 338.935L131.422 339.263C131.303 339.646 131.103 339.983 130.82 340.274C130.538 340.566 130.187 340.794 129.768 340.958C129.353 341.122 128.883 341.204 128.359 341.204ZM134.245 341.129C133.99 341.129 133.771 341.04 133.589 340.862C133.411 340.68 133.322 340.461 133.322 340.206C133.322 339.951 133.411 339.734 133.589 339.557C133.771 339.374 133.99 339.283 134.245 339.283C134.5 339.283 134.717 339.374 134.895 339.557C135.077 339.734 135.168 339.951 135.168 340.206C135.168 340.461 135.077 340.68 134.895 340.862C134.717 341.04 134.5 341.129 134.245 341.129ZM138.278 341.129C138.023 341.129 137.804 341.04 137.622 340.862C137.444 340.68 137.355 340.461 137.355 340.206C137.355 339.951 137.444 339.734 137.622 339.557C137.804 339.374 138.023 339.283 138.278 339.283C138.534 339.283 138.75 339.374 138.928 339.557C139.11 339.734 139.201 339.951 139.201 340.206C139.201 340.461 139.11 340.68 138.928 340.862C138.75 341.04 138.534 341.129 138.278 341.129ZM142.312 341.129C142.056 341.129 141.838 341.04 141.655 340.862C141.478 340.68 141.389 340.461 141.389 340.206C141.389 339.951 141.478 339.734 141.655 339.557C141.838 339.374 142.056 339.283 142.312 339.283C142.567 339.283 142.783 339.374 142.961 339.557C143.143 339.734 143.234 339.951 143.234 340.206C143.234 340.461 143.143 340.68 142.961 340.862C142.783 341.04 142.567 341.129 142.312 341.129Z" fill="#2563EB"/>
</g>
</g>
<rect x="5" y="96.04" width="356" height="268" rx="8" stroke="#F4F4F5"/>
</g>
<defs>
<filter id="filter0_d_3945_128507" x="0.5" y="92.54" width="365" height="277" filterUnits="userSpaceOnUse" color-interpolation-filters="sRGB">
<feFlood flood-opacity="0" result="BackgroundImageFix"/>
<feColorMatrix in="SourceAlpha" type="matrix" values="0 0 0 0 0 0 0 0 0 0 0 0 0 0 0 0 0 0 127 0" result="hardAlpha"/>
<feOffset dy="1"/>
<feGaussianBlur stdDeviation="2"/>
<feComposite in2="hardAlpha" operator="out"/>
<feColorMatrix type="matrix" values="0 0 0 0 0 0 0 0 0 0 0 0 0 0 0 0 0 0 0.05 0"/>
<feBlend mode="normal" in2="BackgroundImageFix" result="effect1_dropShadow_3945_128507"/>
<feBlend mode="normal" in="SourceGraphic" in2="effect1_dropShadow_3945_128507" result="shape"/>
</filter>
<filter id="filter1_d_3945_128507" x="17" y="321.04" width="136" height="32" filterUnits="userSpaceOnUse" color-interpolation-filters="sRGB">
<feFlood flood-opacity="0" result="BackgroundImageFix"/>
<feColorMatrix in="SourceAlpha" type="matrix" values="0 0 0 0 0 0 0 0 0 0 0 0 0 0 0 0 0 0 127 0" result="hardAlpha"/>
<feOffset dy="1"/>
<feGaussianBlur stdDeviation="2"/>
<feComposite in2="hardAlpha" operator="out"/>
<feColorMatrix type="matrix" values="0 0 0 0 0 0 0 0 0 0 0 0 0 0 0 0 0 0 0.05 0"/>
<feBlend mode="normal" in2="BackgroundImageFix" result="effect1_dropShadow_3945_128507"/>
<feBlend mode="normal" in="SourceGraphic" in2="effect1_dropShadow_3945_128507" result="shape"/>
</filter>
<clipPath id="clip0_3945_128507">
<rect x="5" y="28.04" width="356" height="36" rx="4" fill="white"/>
</clipPath>
<clipPath id="clip1_3945_128507">
<rect x="5" y="96.04" width="356" height="268" rx="8" fill="white"/>
</clipPath>
<clipPath id="clip2_3945_128507">
<rect x="103" y="104.04" width="250" height="36" rx="4" fill="white"/>
</clipPath>
</defs>
</svg>
