<svg width="250" height="373" viewBox="0 0 250 373" fill="none" xmlns="http://www.w3.org/2000/svg">
<g filter="url(#filter0_d_3945_132698)">
<path d="M6.12793 20V9.81445H9.77832C10.5622 9.81445 11.2161 9.96029 11.7402 10.252C12.2643 10.5436 12.6562 10.9378 12.916 11.4346C13.1758 11.9313 13.3057 12.4941 13.3057 13.123C13.3057 13.752 13.1735 14.3171 12.9092 14.8184C12.6494 15.3151 12.2575 15.7093 11.7334 16.001C11.2093 16.2881 10.5531 16.4316 9.76465 16.4316H7.26953V15.1123H9.61426C10.1156 15.1123 10.5212 15.0257 10.8311 14.8525C11.141 14.6794 11.3665 14.4424 11.5078 14.1416C11.6536 13.8408 11.7266 13.5013 11.7266 13.123C11.7266 12.7402 11.6536 12.4007 11.5078 12.1045C11.3665 11.8037 11.1387 11.569 10.8242 11.4004C10.5143 11.2318 10.1064 11.1475 9.60059 11.1475H7.68652V20H6.12793ZM14.9941 20V12.3574H16.4502V13.5879H16.5322C16.6735 13.1686 16.9196 12.8405 17.2705 12.6035C17.6214 12.3665 18.0202 12.248 18.4668 12.248C18.5625 12.248 18.6719 12.2526 18.7949 12.2617C18.918 12.2663 19.0205 12.2754 19.1025 12.2891V13.7246C19.0479 13.7064 18.943 13.6882 18.7881 13.6699C18.6331 13.6517 18.4759 13.6426 18.3164 13.6426C17.9701 13.6426 17.6579 13.7155 17.3799 13.8613C17.1019 14.0072 16.8854 14.21 16.7305 14.4697C16.5755 14.7249 16.498 15.0212 16.498 15.3584V20H14.9941ZM23.3477 20.1572C22.6322 20.1572 22.0055 19.9932 21.4678 19.665C20.9346 19.3369 20.5199 18.8766 20.2236 18.2842C19.9274 17.6917 19.7793 17.0036 19.7793 16.2197C19.7793 15.4268 19.9274 14.734 20.2236 14.1416C20.5199 13.5446 20.9346 13.082 21.4678 12.7539C22.0055 12.4258 22.6322 12.2617 23.3477 12.2617C24.0677 12.2617 24.6943 12.4258 25.2275 12.7539C25.7653 13.082 26.1823 13.5446 26.4785 14.1416C26.7747 14.734 26.9229 15.4268 26.9229 16.2197C26.9229 17.0036 26.7747 17.6917 26.4785 18.2842C26.1823 18.8766 25.7653 19.3369 25.2275 19.665C24.6943 19.9932 24.0677 20.1572 23.3477 20.1572ZM23.3477 18.8857C23.8125 18.8857 24.1953 18.765 24.4961 18.5234C24.8014 18.2773 25.027 17.9538 25.1729 17.5527C25.3232 17.1471 25.3984 16.7028 25.3984 16.2197C25.3984 15.7321 25.3232 15.2855 25.1729 14.8799C25.027 14.4697 24.8014 14.1439 24.4961 13.9023C24.1953 13.6562 23.8125 13.5332 23.3477 13.5332C22.8874 13.5332 22.5068 13.6562 22.2061 13.9023C21.9053 14.1439 21.6797 14.4674 21.5293 14.873C21.3835 15.2786 21.3105 15.7275 21.3105 16.2197C21.3105 16.7028 21.3835 17.1471 21.5293 17.5527C21.6797 17.9538 21.9053 18.2773 22.2061 18.5234C22.5068 18.765 22.8874 18.8857 23.3477 18.8857ZM28.5908 12.3574H30.1016V20.4922C30.1061 21.0117 30.0127 21.4469 29.8213 21.7979C29.6344 22.1488 29.3587 22.4131 28.9941 22.5908C28.6296 22.7686 28.1829 22.8574 27.6543 22.8574H27.3535V21.5654H27.5928C27.9482 21.5654 28.2035 21.472 28.3584 21.2852C28.5133 21.1029 28.5908 20.8363 28.5908 20.4854V12.3574ZM29.3496 11.1885C29.0898 11.1885 28.8665 11.1019 28.6797 10.9287C28.4974 10.7555 28.4062 10.5459 28.4062 10.2998C28.4062 10.0492 28.4974 9.83724 28.6797 9.66406C28.8665 9.49089 29.0898 9.4043 29.3496 9.4043C29.6094 9.4043 29.8327 9.49089 30.0195 9.66406C30.2064 9.83724 30.2998 10.0492 30.2998 10.2998C30.2998 10.5459 30.2064 10.7555 30.0195 10.9287C29.8327 11.1019 29.6094 11.1885 29.3496 11.1885ZM35.4199 20.1572C34.668 20.1572 34.0186 19.9954 33.4717 19.6719C32.9248 19.3483 32.5033 18.8926 32.207 18.3047C31.9154 17.7168 31.7695 17.0264 31.7695 16.2334C31.7695 15.4495 31.9131 14.7591 32.2002 14.1621C32.4919 13.5651 32.902 13.1003 33.4307 12.7676C33.9593 12.4303 34.5791 12.2617 35.29 12.2617C35.7275 12.2617 36.1491 12.3346 36.5547 12.4805C36.9603 12.6217 37.3249 12.8451 37.6484 13.1504C37.972 13.4557 38.2272 13.8522 38.4141 14.3398C38.6055 14.8229 38.7012 15.4108 38.7012 16.1035V16.6367H32.6104V15.5156H37.9287L37.2246 15.8848C37.2246 15.4154 37.1517 15.0029 37.0059 14.6475C36.86 14.2874 36.6436 14.0072 36.3564 13.8066C36.0739 13.6061 35.7184 13.5059 35.29 13.5059C34.8662 13.5059 34.5039 13.6084 34.2031 13.8135C33.9023 14.0186 33.6722 14.2897 33.5127 14.627C33.3577 14.9596 33.2803 15.3242 33.2803 15.7207V16.4863C33.2803 17.0104 33.3691 17.4548 33.5469 17.8193C33.7292 18.1794 33.9821 18.4528 34.3057 18.6396C34.6292 18.8219 35.0052 18.9131 35.4336 18.9131C35.7161 18.9131 35.9714 18.8743 36.1992 18.7969C36.4271 18.7148 36.623 18.5941 36.7871 18.4346C36.9557 18.2705 37.0833 18.07 37.1699 17.833L38.585 18.168C38.4619 18.5599 38.2546 18.9062 37.9629 19.207C37.6758 19.5078 37.3158 19.7425 36.8828 19.9111C36.4544 20.0752 35.9668 20.1572 35.4199 20.1572ZM43.5684 20.1572C42.8483 20.1572 42.2217 19.9932 41.6885 19.665C41.1553 19.3369 40.7406 18.8766 40.4443 18.2842C40.1481 17.6917 40 17.0036 40 16.2197C40 15.4268 40.1481 14.734 40.4443 14.1416C40.7406 13.5446 41.1553 13.082 41.6885 12.7539C42.2217 12.4258 42.8483 12.2617 43.5684 12.2617C43.9648 12.2617 44.3363 12.3141 44.6826 12.4189C45.029 12.5192 45.3411 12.6673 45.6191 12.8633C45.9017 13.0547 46.1387 13.2917 46.3301 13.5742C46.526 13.8522 46.6719 14.1667 46.7676 14.5176L45.3389 14.8594C45.2887 14.6634 45.2113 14.4857 45.1064 14.3262C45.0016 14.1621 44.874 14.0208 44.7236 13.9023C44.5778 13.7839 44.4069 13.6927 44.2109 13.6289C44.0195 13.5651 43.8076 13.5332 43.5752 13.5332C43.1149 13.5332 42.7321 13.6562 42.4268 13.9023C42.126 14.1439 41.9004 14.4674 41.75 14.873C41.6042 15.2786 41.5312 15.7275 41.5312 16.2197C41.5312 16.7074 41.6042 17.154 41.75 17.5596C41.9004 17.9606 42.126 18.2819 42.4268 18.5234C42.7321 18.765 43.1149 18.8857 43.5752 18.8857C43.8122 18.8857 44.0286 18.8538 44.2246 18.79C44.4206 18.7217 44.596 18.6283 44.751 18.5098C44.9059 18.3867 45.0358 18.2409 45.1406 18.0723C45.2454 17.8991 45.3206 17.71 45.3662 17.5049L46.7881 17.8467C46.6969 18.2067 46.5534 18.5303 46.3574 18.8174C46.1615 19.0999 45.9222 19.3415 45.6396 19.542C45.3617 19.7425 45.0472 19.8952 44.6963 20C44.3454 20.1048 43.9694 20.1572 43.5684 20.1572ZM51.7031 12.3574V13.5811H47.5605V12.3574H51.7031ZM48.6748 10.5391H50.1787V17.9355C50.1787 18.2409 50.2425 18.4665 50.3701 18.6123C50.5023 18.7536 50.7165 18.8242 51.0127 18.8242C51.0902 18.8242 51.1927 18.8151 51.3203 18.7969C51.4479 18.7786 51.5573 18.7604 51.6484 18.7422L51.915 19.9453C51.7555 20 51.5846 20.0387 51.4023 20.0615C51.2201 20.0889 51.04 20.1025 50.8623 20.1025C50.1696 20.1025 49.6318 19.9248 49.249 19.5693C48.8662 19.2093 48.6748 18.7057 48.6748 18.0586V10.5391ZM58.4434 15.4746V20H56.9395V12.3574H58.375L58.3887 14.2305H58.2314C58.4548 13.5469 58.7783 13.0479 59.2021 12.7334C59.626 12.4189 60.1387 12.2617 60.7402 12.2617C61.2598 12.2617 61.7132 12.3711 62.1006 12.5898C62.488 12.8086 62.791 13.1322 63.0098 13.5605C63.2285 13.9844 63.3379 14.513 63.3379 15.1465V20H61.834V15.3311C61.834 14.7796 61.6904 14.349 61.4033 14.0391C61.1162 13.7292 60.722 13.5742 60.2207 13.5742C59.8835 13.5742 59.5804 13.6494 59.3115 13.7998C59.0426 13.9456 58.8307 14.1598 58.6758 14.4424C58.5208 14.7249 58.4434 15.069 58.4434 15.4746ZM68.1982 20.1504C67.583 20.1504 67.0339 19.9932 66.5508 19.6787C66.0723 19.3597 65.694 18.9062 65.416 18.3184C65.1426 17.7259 65.0059 17.0195 65.0059 16.1992C65.0059 15.3698 65.1449 14.6611 65.4229 14.0732C65.7054 13.4854 66.0882 13.0365 66.5713 12.7266C67.0589 12.4167 67.6081 12.2617 68.2188 12.2617C68.6882 12.2617 69.0664 12.3392 69.3535 12.4941C69.6452 12.6491 69.8708 12.8337 70.0303 13.0479C70.1943 13.2575 70.3197 13.4421 70.4062 13.6016H70.502V12.3574H71.9922V20H70.5088V18.8037H70.4062C70.3197 18.9678 70.1921 19.1569 70.0234 19.3711C69.8548 19.5807 69.6247 19.763 69.333 19.918C69.0413 20.0729 68.6631 20.1504 68.1982 20.1504ZM68.5469 18.8721C68.9753 18.8721 69.3353 18.7581 69.627 18.5303C69.9232 18.3024 70.1465 17.988 70.2969 17.5869C70.4473 17.1813 70.5225 16.7142 70.5225 16.1855C70.5225 15.6523 70.4473 15.1898 70.2969 14.7979C70.1465 14.4014 69.9232 14.0938 69.627 13.875C69.3353 13.6517 68.9753 13.54 68.5469 13.54C68.1048 13.54 67.7357 13.6562 67.4395 13.8887C67.1432 14.1165 66.9199 14.431 66.7695 14.832C66.6191 15.2285 66.5439 15.6797 66.5439 16.1855C66.5439 16.6914 66.6191 17.1471 66.7695 17.5527C66.9199 17.9583 67.1432 18.2796 67.4395 18.5166C67.7402 18.7536 68.1094 18.8721 68.5469 18.8721ZM74.0156 20V12.3574H75.4443L75.4854 14.1279H75.3691C75.4785 13.695 75.6471 13.3395 75.875 13.0615C76.1029 12.7835 76.3695 12.5762 76.6748 12.4395C76.9801 12.2982 77.2992 12.2275 77.6318 12.2275C78.1878 12.2275 78.6367 12.4007 78.9785 12.7471C79.3203 13.0889 79.5505 13.5674 79.6689 14.1826H79.4775C79.5778 13.7633 79.751 13.4079 79.9971 13.1162C80.2432 12.8245 80.5394 12.6035 80.8857 12.4531C81.2367 12.3027 81.6104 12.2275 82.0068 12.2275C82.458 12.2275 82.8659 12.3255 83.2305 12.5215C83.5996 12.7174 83.8913 13.0091 84.1055 13.3965C84.3197 13.7839 84.4268 14.2669 84.4268 14.8457V20H82.916V14.9961C82.916 14.4857 82.7747 14.1165 82.4922 13.8887C82.2096 13.6608 81.8747 13.5469 81.4873 13.5469C81.1729 13.5469 80.9017 13.613 80.6738 13.7451C80.446 13.8773 80.2705 14.0618 80.1475 14.2988C80.0244 14.5312 79.9629 14.8001 79.9629 15.1055V20H78.4795V14.9004C78.4795 14.4902 78.3473 14.1621 78.083 13.916C77.8232 13.6699 77.4906 13.5469 77.085 13.5469C76.807 13.5469 76.5472 13.613 76.3057 13.7451C76.0687 13.8727 75.8773 14.0641 75.7314 14.3193C75.5902 14.57 75.5195 14.8799 75.5195 15.249V20H74.0156ZM89.752 20.1572C89 20.1572 88.3506 19.9954 87.8037 19.6719C87.2568 19.3483 86.8353 18.8926 86.5391 18.3047C86.2474 17.7168 86.1016 17.0264 86.1016 16.2334C86.1016 15.4495 86.2451 14.7591 86.5322 14.1621C86.8239 13.5651 87.234 13.1003 87.7627 12.7676C88.2913 12.4303 88.9111 12.2617 89.6221 12.2617C90.0596 12.2617 90.4811 12.3346 90.8867 12.4805C91.2923 12.6217 91.6569 12.8451 91.9805 13.1504C92.304 13.4557 92.5592 13.8522 92.7461 14.3398C92.9375 14.8229 93.0332 15.4108 93.0332 16.1035V16.6367H86.9424V15.5156H92.2607L91.5566 15.8848C91.5566 15.4154 91.4837 15.0029 91.3379 14.6475C91.1921 14.2874 90.9756 14.0072 90.6885 13.8066C90.4059 13.6061 90.0505 13.5059 89.6221 13.5059C89.1982 13.5059 88.8359 13.6084 88.5352 13.8135C88.2344 14.0186 88.0042 14.2897 87.8447 14.627C87.6898 14.9596 87.6123 15.3242 87.6123 15.7207V16.4863C87.6123 17.0104 87.7012 17.4548 87.8789 17.8193C88.0612 18.1794 88.3141 18.4528 88.6377 18.6396C88.9613 18.8219 89.3372 18.9131 89.7656 18.9131C90.0482 18.9131 90.3034 18.8743 90.5312 18.7969C90.7591 18.7148 90.9551 18.5941 91.1191 18.4346C91.2878 18.2705 91.4154 18.07 91.502 17.833L92.917 18.168C92.7939 18.5599 92.5866 18.9062 92.2949 19.207C92.0078 19.5078 91.6478 19.7425 91.2148 19.9111C90.7865 20.0752 90.2988 20.1572 89.752 20.1572Z" fill="#111827"/>
<g clip-path="url(#clip0_3945_132698)">
<rect x="5" y="31" width="240" height="36" rx="4" fill="white"/>
</g>
<rect x="5" y="31" width="240" height="36" rx="4" stroke="#E4E4E7"/>
</g>
<g filter="url(#filter1_d_3945_132698)">
<g clip-path="url(#clip1_3945_132698)">
<rect x="5" y="99" width="240" height="268" rx="8" fill="white"/>
<rect width="240" height="52" transform="translate(5 99)" fill="#FAFAFA"/>
<path d="M27.125 131.156C26.099 131.156 25.1823 130.919 24.375 130.445C23.5729 129.971 22.9401 129.289 22.4766 128.398C22.013 127.503 21.7812 126.432 21.7812 125.188C21.7812 123.932 22.013 122.859 22.4766 121.969C22.9401 121.073 23.5755 120.388 24.3828 119.914C25.1901 119.44 26.1042 119.203 27.125 119.203C27.7604 119.203 28.3568 119.294 28.9141 119.477C29.4714 119.654 29.9661 119.917 30.3984 120.266C30.8359 120.615 31.1953 121.039 31.4766 121.539C31.7578 122.039 31.9453 122.609 32.0391 123.25H29.9375C29.8698 122.901 29.7526 122.591 29.5859 122.32C29.4245 122.049 29.2188 121.82 28.9688 121.633C28.724 121.445 28.4479 121.305 28.1406 121.211C27.8333 121.117 27.5052 121.07 27.1562 121.07C26.5104 121.07 25.9401 121.232 25.4453 121.555C24.9505 121.872 24.5651 122.339 24.2891 122.953C24.013 123.568 23.875 124.312 23.875 125.188C23.875 126.068 24.013 126.815 24.2891 127.43C24.5703 128.039 24.9583 128.503 25.4531 128.82C25.9479 129.133 26.513 129.289 27.1484 129.289C27.4974 129.289 27.8255 129.242 28.1328 129.148C28.4401 129.049 28.7161 128.909 28.9609 128.727C29.2109 128.539 29.4193 128.31 29.5859 128.039C29.7578 127.768 29.8776 127.461 29.9453 127.117H32.0469C31.9688 127.68 31.7943 128.206 31.5234 128.695C31.2578 129.185 30.9115 129.615 30.4844 129.984C30.0573 130.354 29.5599 130.643 28.9922 130.852C28.4297 131.055 27.8073 131.156 27.125 131.156ZM35.8438 119.359V131H33.8203V119.359H35.8438ZM40.9453 131.117C40.3516 131.117 39.8281 130.99 39.375 130.734C38.9271 130.479 38.5781 130.107 38.3281 129.617C38.0833 129.122 37.9609 128.526 37.9609 127.828V122.32H39.9844V127.516C39.9844 128.104 40.1354 128.565 40.4375 128.898C40.7448 129.227 41.1641 129.391 41.6953 129.391C42.0547 129.391 42.3724 129.312 42.6484 129.156C42.9297 129 43.1484 128.773 43.3047 128.477C43.4661 128.174 43.5469 127.81 43.5469 127.383V122.32H45.5781V131H43.6484L43.625 128.844H43.8047C43.5599 129.604 43.1979 130.174 42.7188 130.555C42.2396 130.93 41.6484 131.117 40.9453 131.117ZM50.9922 131.18C50.3203 131.18 49.724 131.083 49.2031 130.891C48.6875 130.693 48.2656 130.409 47.9375 130.039C47.6094 129.664 47.3984 129.208 47.3047 128.672L49.2109 128.359C49.3203 128.786 49.526 129.107 49.8281 129.32C50.1302 129.529 50.5286 129.633 51.0234 129.633C51.5234 129.633 51.9167 129.534 52.2031 129.336C52.4948 129.133 52.6406 128.885 52.6406 128.594C52.6406 128.344 52.5443 128.138 52.3516 127.977C52.1589 127.81 51.8646 127.685 51.4688 127.602L49.9922 127.281C49.1693 127.104 48.5547 126.815 48.1484 126.414C47.7422 126.008 47.5391 125.484 47.5391 124.844C47.5391 124.307 47.6849 123.841 47.9766 123.445C48.2734 123.049 48.6849 122.745 49.2109 122.531C49.737 122.312 50.3464 122.203 51.0391 122.203C51.7005 122.203 52.2708 122.299 52.75 122.492C53.2292 122.68 53.6146 122.948 53.9062 123.297C54.2031 123.641 54.4036 124.044 54.5078 124.508L52.6953 124.828C52.6068 124.516 52.4297 124.253 52.1641 124.039C51.9036 123.826 51.5391 123.719 51.0703 123.719C50.638 123.719 50.2786 123.812 49.9922 124C49.7109 124.188 49.5703 124.43 49.5703 124.727C49.5703 124.982 49.6641 125.193 49.8516 125.359C50.0443 125.521 50.3568 125.648 50.7891 125.742L52.2734 126.055C53.1016 126.232 53.7161 126.516 54.1172 126.906C54.5182 127.292 54.7188 127.792 54.7188 128.406C54.7188 128.953 54.5599 129.435 54.2422 129.852C53.9245 130.268 53.4844 130.594 52.9219 130.828C52.3646 131.062 51.7214 131.18 50.9922 131.18ZM60.5 122.32V123.906H55.5312V122.32H60.5ZM56.7891 120.219H58.8125V128.555C58.8125 128.867 58.8802 129.096 59.0156 129.242C59.151 129.383 59.375 129.453 59.6875 129.453C59.7812 129.453 59.9036 129.443 60.0547 129.422C60.2109 129.401 60.3359 129.383 60.4297 129.367L60.7188 130.938C60.5052 131 60.2812 131.042 60.0469 131.062C59.8177 131.089 59.5938 131.102 59.375 131.102C58.5417 131.102 57.901 130.898 57.4531 130.492C57.0104 130.086 56.7891 129.5 56.7891 128.734V120.219ZM65.75 131.18C64.8802 131.18 64.1276 130.995 63.4922 130.625C62.862 130.255 62.3776 129.737 62.0391 129.07C61.7005 128.398 61.5312 127.612 61.5312 126.711C61.5312 125.82 61.6979 125.036 62.0312 124.359C62.3698 123.682 62.8464 123.154 63.4609 122.773C64.0755 122.393 64.7943 122.203 65.6172 122.203C66.1589 122.203 66.6693 122.292 67.1484 122.469C67.6328 122.641 68.0599 122.909 68.4297 123.273C68.7995 123.633 69.0885 124.089 69.2969 124.641C69.5104 125.193 69.6172 125.846 69.6172 126.602V127.219H62.4688V125.844H68.6016L67.6641 126.25C67.6641 125.76 67.5859 125.331 67.4297 124.961C67.2734 124.591 67.0443 124.305 66.7422 124.102C66.4453 123.893 66.0755 123.789 65.6328 123.789C65.1901 123.789 64.8125 123.893 64.5 124.102C64.1875 124.31 63.9479 124.591 63.7812 124.945C63.6198 125.294 63.5391 125.685 63.5391 126.117V127.062C63.5391 127.604 63.6302 128.065 63.8125 128.445C64 128.82 64.2604 129.104 64.5938 129.297C64.9323 129.49 65.3255 129.586 65.7734 129.586C66.0755 129.586 66.349 129.544 66.5938 129.461C66.8385 129.372 67.0469 129.245 67.2188 129.078C67.3958 128.906 67.5286 128.698 67.6172 128.453L69.4844 128.797C69.349 129.271 69.1094 129.688 68.7656 130.047C68.4271 130.401 68.0026 130.68 67.4922 130.883C66.9818 131.081 66.401 131.18 65.75 131.18ZM71.3203 131V122.32H73.2812V123.773H73.3672C73.5234 123.268 73.7917 122.88 74.1719 122.609C74.5573 122.339 75.0026 122.203 75.5078 122.203C75.6224 122.203 75.7474 122.208 75.8828 122.219C76.0234 122.229 76.1406 122.242 76.2344 122.258V124.117C76.1562 124.091 76.0234 124.068 75.8359 124.047C75.6484 124.026 75.4635 124.016 75.2812 124.016C74.9115 124.016 74.5781 124.096 74.2812 124.258C73.9896 124.414 73.7604 124.635 73.5938 124.922C73.4271 125.203 73.3438 125.534 73.3438 125.914V131H71.3203ZM80.8984 131.18C80.2266 131.18 79.6302 131.083 79.1094 130.891C78.5938 130.693 78.1719 130.409 77.8438 130.039C77.5156 129.664 77.3047 129.208 77.2109 128.672L79.1172 128.359C79.2266 128.786 79.4323 129.107 79.7344 129.32C80.0365 129.529 80.4349 129.633 80.9297 129.633C81.4297 129.633 81.8229 129.534 82.1094 129.336C82.401 129.133 82.5469 128.885 82.5469 128.594C82.5469 128.344 82.4505 128.138 82.2578 127.977C82.0651 127.81 81.7708 127.685 81.375 127.602L79.8984 127.281C79.0755 127.104 78.4609 126.815 78.0547 126.414C77.6484 126.008 77.4453 125.484 77.4453 124.844C77.4453 124.307 77.5911 123.841 77.8828 123.445C78.1797 123.049 78.5911 122.745 79.1172 122.531C79.6432 122.312 80.2526 122.203 80.9453 122.203C81.6068 122.203 82.1771 122.299 82.6562 122.492C83.1354 122.68 83.5208 122.948 83.8125 123.297C84.1094 123.641 84.3099 124.044 84.4141 124.508L82.6016 124.828C82.513 124.516 82.3359 124.253 82.0703 124.039C81.8099 123.826 81.4453 123.719 80.9766 123.719C80.5443 123.719 80.1849 123.812 79.8984 124C79.6172 124.188 79.4766 124.43 79.4766 124.727C79.4766 124.982 79.5703 125.193 79.7578 125.359C79.9505 125.521 80.263 125.648 80.6953 125.742L82.1797 126.055C83.0078 126.232 83.6224 126.516 84.0234 126.906C84.4245 127.292 84.625 127.792 84.625 128.406C84.625 128.953 84.4661 129.435 84.1484 129.852C83.8307 130.268 83.3906 130.594 82.8281 130.828C82.2708 131.062 81.6276 131.18 80.8984 131.18Z" fill="#111827"/>
<g clip-path="url(#clip2_3945_132698)">
<rect x="129" y="107" width="108" height="36" rx="4" fill="white"/>
<path d="M146.146 130.791C149.816 130.791 152.792 127.816 152.792 124.146C152.792 120.475 149.816 117.5 146.146 117.5C142.475 117.5 139.5 120.475 139.5 124.146C139.5 127.816 142.475 130.791 146.146 130.791Z" stroke="#111827" stroke-linecap="round" stroke-linejoin="round"/>
<path d="M150.846 128.845L154.501 132.5" stroke="#111827" stroke-linecap="round" stroke-linejoin="round"/>
<path d="M173.491 130.178C172.757 130.178 172.119 130.059 171.577 129.822C171.039 129.585 170.618 129.255 170.312 128.831C170.007 128.403 169.834 127.904 169.793 127.334H171.126C171.162 127.717 171.292 128.034 171.516 128.284C171.739 128.53 172.024 128.715 172.37 128.838C172.721 128.956 173.095 129.016 173.491 129.016C173.951 129.016 174.364 128.94 174.729 128.79C175.098 128.64 175.389 128.428 175.604 128.154C175.818 127.881 175.925 127.564 175.925 127.204C175.925 126.876 175.831 126.609 175.645 126.404C175.462 126.199 175.218 126.031 174.913 125.898C174.608 125.766 174.273 125.65 173.908 125.55L172.678 125.201C171.857 124.969 171.219 124.636 170.764 124.203C170.308 123.77 170.08 123.216 170.08 122.542C170.08 121.968 170.235 121.466 170.545 121.038C170.855 120.605 171.274 120.27 171.803 120.033C172.331 119.796 172.924 119.678 173.58 119.678C174.25 119.678 174.842 119.796 175.357 120.033C175.872 120.27 176.278 120.594 176.574 121.004C176.875 121.41 177.035 121.87 177.053 122.385H175.781C175.722 121.888 175.485 121.505 175.07 121.236C174.656 120.963 174.145 120.826 173.539 120.826C173.102 120.826 172.716 120.899 172.384 121.045C172.056 121.186 171.8 121.382 171.618 121.633C171.436 121.879 171.345 122.161 171.345 122.48C171.345 122.836 171.454 123.123 171.673 123.342C171.896 123.556 172.158 123.725 172.459 123.848C172.764 123.966 173.04 124.06 173.286 124.128L174.305 124.408C174.578 124.481 174.879 124.581 175.207 124.709C175.54 124.837 175.856 125.007 176.157 125.222C176.458 125.431 176.704 125.7 176.896 126.028C177.091 126.352 177.189 126.751 177.189 127.225C177.189 127.781 177.044 128.282 176.752 128.729C176.465 129.175 176.046 129.528 175.494 129.788C174.943 130.048 174.275 130.178 173.491 130.178ZM182.275 130.164C181.537 130.164 180.899 130 180.361 129.672C179.828 129.344 179.416 128.886 179.124 128.298C178.837 127.71 178.693 127.024 178.693 126.24C178.693 125.456 178.835 124.766 179.117 124.169C179.4 123.572 179.799 123.105 180.313 122.768C180.833 122.43 181.439 122.262 182.132 122.262C182.537 122.262 182.936 122.33 183.328 122.467C183.725 122.599 184.082 122.815 184.401 123.116C184.725 123.412 184.982 123.804 185.174 124.292C185.365 124.78 185.461 125.377 185.461 126.083V126.596H179.527V125.557H184.798L184.224 125.939C184.224 125.438 184.144 124.994 183.984 124.606C183.829 124.215 183.597 123.909 183.287 123.69C182.977 123.467 182.592 123.355 182.132 123.355C181.672 123.355 181.277 123.469 180.949 123.697C180.621 123.921 180.37 124.215 180.197 124.579C180.024 124.939 179.938 125.326 179.938 125.741V126.432C179.938 126.997 180.035 127.478 180.231 127.874C180.427 128.266 180.701 128.564 181.052 128.77C181.407 128.97 181.817 129.07 182.282 129.07C182.583 129.07 182.856 129.027 183.103 128.94C183.349 128.854 183.561 128.724 183.738 128.551C183.916 128.373 184.053 128.154 184.148 127.895L185.338 128.223C185.219 128.605 185.019 128.943 184.736 129.234C184.454 129.526 184.103 129.754 183.684 129.918C183.269 130.082 182.799 130.164 182.275 130.164ZM190.082 130.164C189.453 130.164 188.895 130.002 188.407 129.679C187.924 129.355 187.544 128.897 187.266 128.305C186.992 127.712 186.855 127.01 186.855 126.199C186.855 125.393 186.994 124.695 187.272 124.107C187.55 123.515 187.933 123.059 188.421 122.74C188.913 122.421 189.476 122.262 190.109 122.262C190.602 122.262 190.993 122.344 191.285 122.508C191.577 122.667 191.8 122.852 191.955 123.062C192.11 123.271 192.229 123.444 192.311 123.581H192.413V122.357H193.637V130H192.42V128.817H192.311C192.229 128.959 192.105 129.136 191.941 129.351C191.782 129.565 191.554 129.754 191.258 129.918C190.962 130.082 190.57 130.164 190.082 130.164ZM190.287 129.063C190.752 129.063 191.144 128.943 191.463 128.701C191.782 128.455 192.023 128.116 192.188 127.683C192.352 127.25 192.434 126.751 192.434 126.186C192.434 125.62 192.352 125.128 192.188 124.709C192.028 124.285 191.789 123.955 191.47 123.718C191.151 123.481 190.757 123.362 190.287 123.362C189.804 123.362 189.401 123.488 189.077 123.738C188.754 123.984 188.51 124.322 188.346 124.75C188.186 125.174 188.106 125.652 188.106 126.186C188.106 126.719 188.188 127.204 188.353 127.642C188.517 128.075 188.76 128.421 189.084 128.681C189.408 128.936 189.809 129.063 190.287 129.063ZM195.797 130V122.357H196.986V123.533H197.068C197.21 123.146 197.46 122.836 197.82 122.604C198.185 122.367 198.595 122.248 199.051 122.248C199.142 122.248 199.249 122.25 199.372 122.255C199.5 122.259 199.6 122.264 199.673 122.269V123.506C199.636 123.497 199.545 123.483 199.399 123.465C199.254 123.447 199.099 123.438 198.935 123.438C198.57 123.438 198.242 123.515 197.95 123.67C197.663 123.82 197.438 124.03 197.273 124.299C197.109 124.563 197.027 124.868 197.027 125.215V130H195.797ZM203.952 130.164C203.259 130.164 202.651 130 202.127 129.672C201.607 129.344 201.202 128.883 200.91 128.291C200.618 127.699 200.473 127.01 200.473 126.227C200.473 125.429 200.618 124.734 200.91 124.142C201.202 123.545 201.607 123.082 202.127 122.754C202.651 122.426 203.259 122.262 203.952 122.262C204.321 122.262 204.67 122.31 204.998 122.405C205.326 122.501 205.625 122.64 205.894 122.822C206.167 123 206.402 123.221 206.598 123.485C206.794 123.745 206.944 124.041 207.049 124.374L205.866 124.709C205.812 124.513 205.727 124.333 205.613 124.169C205.499 124.005 205.36 123.864 205.196 123.745C205.037 123.622 204.852 123.529 204.643 123.465C204.433 123.396 204.203 123.362 203.952 123.362C203.442 123.362 203.022 123.497 202.694 123.766C202.366 124.03 202.122 124.379 201.963 124.812C201.803 125.244 201.724 125.716 201.724 126.227C201.724 126.728 201.803 127.195 201.963 127.628C202.122 128.056 202.366 128.403 202.694 128.667C203.022 128.931 203.442 129.063 203.952 129.063C204.207 129.063 204.442 129.029 204.656 128.961C204.87 128.893 205.06 128.797 205.224 128.674C205.392 128.546 205.534 128.396 205.647 128.223C205.761 128.049 205.846 127.86 205.9 127.655L207.076 127.99C206.976 128.332 206.826 128.637 206.625 128.906C206.429 129.171 206.194 129.398 205.921 129.59C205.647 129.777 205.344 129.918 205.012 130.014C204.679 130.114 204.326 130.164 203.952 130.164ZM210.07 125.42V130H208.84V119.814H210.07V124.21H209.858C210.091 123.504 210.421 123.002 210.85 122.706C211.283 122.41 211.788 122.262 212.367 122.262C212.882 122.262 213.333 122.369 213.721 122.583C214.113 122.793 214.416 123.112 214.63 123.54C214.849 123.964 214.958 124.499 214.958 125.146V130H213.721V125.249C213.721 124.661 213.566 124.201 213.256 123.868C212.951 123.535 212.531 123.369 211.998 123.369C211.633 123.369 211.305 123.449 211.014 123.608C210.722 123.768 210.492 124 210.323 124.306C210.155 124.611 210.07 124.982 210.07 125.42Z" fill="#9CA3AF"/>
</g>
<rect x="129" y="107" width="108" height="36" rx="4" stroke="#E4E4E7"/>
<path d="M33 188C37.9706 188 42 183.971 42 179C42 174.029 37.9706 170 33 170C28.0294 170 24 174.029 24 179C24 183.971 28.0294 188 33 188Z" stroke="#111827" stroke-miterlimit="10" stroke-linecap="round" stroke-dasharray="4 4"/>
<path d="M54.1484 185V173.359H58.5156C59.401 173.359 60.1484 173.526 60.7578 173.859C61.3672 174.188 61.8281 174.641 62.1406 175.219C62.4583 175.797 62.6172 176.458 62.6172 177.203C62.6172 177.948 62.4583 178.609 62.1406 179.188C61.8229 179.76 61.3568 180.211 60.7422 180.539C60.1276 180.867 59.3724 181.031 58.4766 181.031H55.5469V179.312H58.2266C58.7474 179.312 59.1745 179.224 59.5078 179.047C59.8464 178.865 60.0964 178.615 60.2578 178.297C60.4193 177.974 60.5 177.609 60.5 177.203C60.5 176.786 60.4193 176.422 60.2578 176.109C60.0964 175.792 59.8464 175.547 59.5078 175.375C59.1693 175.198 58.7396 175.109 58.2188 175.109H56.2344V185H54.1484ZM66.3594 173.359V185H64.3359V173.359H66.3594ZM71.6875 185.164C71 185.164 70.3854 184.987 69.8438 184.633C69.3021 184.273 68.875 183.76 68.5625 183.094C68.25 182.427 68.0938 181.62 68.0938 180.672C68.0938 179.719 68.2526 178.909 68.5703 178.242C68.8932 177.576 69.3255 177.07 69.8672 176.727C70.4141 176.378 71.026 176.203 71.7031 176.203C72.1979 176.203 72.6094 176.286 72.9375 176.453C73.2656 176.615 73.5286 176.815 73.7266 177.055C73.9297 177.289 74.0859 177.516 74.1953 177.734H74.2812V176.32H76.2891V185H74.2891V183.633H74.1953C74.0859 183.857 73.9271 184.086 73.7188 184.32C73.5156 184.555 73.2474 184.755 72.9141 184.922C72.5859 185.083 72.1771 185.164 71.6875 185.164ZM72.2422 183.492C72.6849 183.492 73.0599 183.375 73.3672 183.141C73.6797 182.901 73.9167 182.57 74.0781 182.148C74.2396 181.721 74.3203 181.227 74.3203 180.664C74.3203 180.102 74.2396 179.612 74.0781 179.195C73.9167 178.773 73.6823 178.448 73.375 178.219C73.0677 177.984 72.6901 177.867 72.2422 177.867C71.7943 177.867 71.4141 177.987 71.1016 178.227C70.7943 178.466 70.5599 178.797 70.3984 179.219C70.2422 179.635 70.1641 180.117 70.1641 180.664C70.1641 181.211 70.2422 181.698 70.3984 182.125C70.5599 182.552 70.7943 182.888 71.1016 183.133C71.4141 183.372 71.7943 183.492 72.2422 183.492ZM77.7031 185L81.1016 179.789L81.0938 181.297L77.8828 176.32H80.1094L80.9922 177.781C81.2474 178.219 81.4766 178.643 81.6797 179.055C81.8828 179.461 82.0885 179.859 82.2969 180.25H81.4766C81.6901 179.865 81.8932 179.466 82.0859 179.055C82.2839 178.643 82.513 178.219 82.7734 177.781L83.6875 176.32H85.875L82.6172 181.336V179.844L86.0078 185H83.7891L82.7266 183.281C82.4661 182.854 82.2344 182.438 82.0312 182.031C81.8281 181.625 81.6224 181.234 81.4141 180.859H82.2344C82.0312 181.234 81.8333 181.625 81.6406 182.031C81.4531 182.438 81.2292 182.854 80.9688 183.281L79.9062 185H77.7031ZM90.8828 185.18C90.0391 185.18 89.3047 184.992 88.6797 184.617C88.0547 184.242 87.5703 183.719 87.2266 183.047C86.888 182.375 86.7188 181.594 86.7188 180.703C86.7188 179.802 86.888 179.016 87.2266 178.344C87.5703 177.667 88.0547 177.141 88.6797 176.766C89.3047 176.391 90.0391 176.203 90.8828 176.203C91.7266 176.203 92.4609 176.391 93.0859 176.766C93.7109 177.141 94.1927 177.667 94.5312 178.344C94.875 179.016 95.0469 179.802 95.0469 180.703C95.0469 181.594 94.875 182.375 94.5312 183.047C94.1927 183.719 93.7109 184.242 93.0859 184.617C92.4609 184.992 91.7266 185.18 90.8828 185.18ZM90.8828 183.531C91.3516 183.531 91.7422 183.406 92.0547 183.156C92.3672 182.901 92.6016 182.56 92.7578 182.133C92.9141 181.706 92.9922 181.227 92.9922 180.695C92.9922 180.159 92.9141 179.677 92.7578 179.25C92.6016 178.818 92.3672 178.477 92.0547 178.227C91.7422 177.977 91.3516 177.852 90.8828 177.852C90.4141 177.852 90.0234 177.977 89.7109 178.227C89.4036 178.477 89.1719 178.815 89.0156 179.242C88.8594 179.669 88.7812 180.154 88.7812 180.695C88.7812 181.227 88.8594 181.706 89.0156 182.133C89.1719 182.56 89.4036 182.901 89.7109 183.156C90.0234 183.406 90.4141 183.531 90.8828 183.531ZM98.7969 179.938V185H96.7734V176.32H98.7031L98.7266 178.469H98.5391C98.7839 177.719 99.1432 177.154 99.6172 176.773C100.096 176.393 100.693 176.203 101.406 176.203C102 176.203 102.521 176.331 102.969 176.586C103.417 176.841 103.763 177.214 104.008 177.703C104.258 178.193 104.383 178.789 104.383 179.492V185H102.359V179.805C102.359 179.216 102.208 178.758 101.906 178.43C101.604 178.096 101.188 177.93 100.656 177.93C100.297 177.93 99.9766 178.008 99.6953 178.164C99.4193 178.32 99.2005 178.547 99.0391 178.844C98.8776 179.141 98.7969 179.505 98.7969 179.938ZM106.492 185V176.32H108.516V185H106.492ZM107.5 175.086C107.177 175.086 106.898 174.977 106.664 174.758C106.435 174.539 106.32 174.276 106.32 173.969C106.32 173.656 106.435 173.393 106.664 173.18C106.898 172.966 107.177 172.859 107.5 172.859C107.828 172.859 108.107 172.966 108.336 173.18C108.57 173.393 108.688 173.656 108.688 173.969C108.688 174.276 108.57 174.539 108.336 174.758C108.107 174.977 107.828 175.086 107.5 175.086ZM114.406 185.18C113.562 185.18 112.828 184.992 112.203 184.617C111.583 184.242 111.102 183.719 110.758 183.047C110.419 182.37 110.25 181.589 110.25 180.703C110.25 179.802 110.419 179.016 110.758 178.344C111.102 177.667 111.583 177.141 112.203 176.766C112.828 176.391 113.562 176.203 114.406 176.203C114.896 176.203 115.349 176.268 115.766 176.398C116.188 176.523 116.562 176.708 116.891 176.953C117.219 177.193 117.492 177.484 117.711 177.828C117.93 178.172 118.083 178.557 118.172 178.984L116.266 179.344C116.214 179.115 116.133 178.909 116.023 178.727C115.919 178.544 115.789 178.388 115.633 178.258C115.477 178.128 115.297 178.029 115.094 177.961C114.891 177.888 114.667 177.852 114.422 177.852C113.953 177.852 113.562 177.977 113.25 178.227C112.938 178.471 112.703 178.807 112.547 179.234C112.391 179.661 112.312 180.148 112.312 180.695C112.312 181.232 112.391 181.714 112.547 182.141C112.703 182.568 112.938 182.906 113.25 183.156C113.562 183.406 113.953 183.531 114.422 183.531C114.672 183.531 114.898 183.495 115.102 183.422C115.31 183.349 115.492 183.245 115.648 183.109C115.81 182.974 115.943 182.81 116.047 182.617C116.156 182.424 116.237 182.214 116.289 181.984L118.188 182.336C118.104 182.773 117.953 183.167 117.734 183.516C117.516 183.865 117.24 184.164 116.906 184.414C116.578 184.659 116.203 184.849 115.781 184.984C115.359 185.115 114.901 185.18 114.406 185.18Z" fill="#111827"/>
<path d="M129.017 184.089C128.761 184.089 128.543 184 128.36 183.822C128.183 183.64 128.094 183.421 128.094 183.166C128.094 182.911 128.183 182.694 128.36 182.517C128.543 182.334 128.761 182.243 129.017 182.243C129.272 182.243 129.488 182.334 129.666 182.517C129.848 182.694 129.939 182.911 129.939 183.166C129.939 183.421 129.848 183.64 129.666 183.822C129.488 184 129.272 184.089 129.017 184.089ZM135.326 184L139.024 173.814H140.528L144.274 184H142.907L140.747 177.957C140.615 177.583 140.46 177.118 140.282 176.562C140.109 176.002 139.897 175.289 139.646 174.423H139.893C139.646 175.298 139.432 176.02 139.25 176.59C139.072 177.155 138.924 177.611 138.806 177.957L136.707 184H135.326ZM137.186 181.156V180.021H142.415V181.156H137.186ZM146.975 184L144.199 173.814H145.525L147.139 180.062C147.225 180.395 147.307 180.735 147.385 181.081C147.462 181.423 147.537 181.771 147.61 182.127C147.683 182.478 147.752 182.84 147.815 183.214H147.658C147.727 182.84 147.797 182.478 147.87 182.127C147.943 181.771 148.021 181.423 148.103 181.081C148.185 180.735 148.269 180.395 148.355 180.062L150.003 173.814H151.479L153.113 180.062C153.204 180.395 153.289 180.735 153.366 181.081C153.448 181.423 153.528 181.771 153.605 182.127C153.683 182.478 153.756 182.84 153.824 183.214H153.646C153.715 182.84 153.785 182.478 153.858 182.127C153.931 181.771 154.009 181.423 154.091 181.081C154.173 180.735 154.255 180.395 154.337 180.062L155.943 173.814H157.283L154.494 184H152.983L151.233 177.547C151.119 177.128 151.01 176.672 150.905 176.18C150.8 175.683 150.698 175.111 150.598 174.464H150.871C150.771 175.075 150.673 175.621 150.577 176.104C150.481 176.583 150.368 177.064 150.235 177.547L148.492 184H146.975ZM162.13 184.178C161.396 184.178 160.758 184.059 160.216 183.822C159.678 183.585 159.257 183.255 158.951 182.831C158.646 182.403 158.473 181.904 158.432 181.334H159.765C159.801 181.717 159.931 182.034 160.154 182.284C160.378 182.53 160.662 182.715 161.009 182.838C161.36 182.956 161.733 183.016 162.13 183.016C162.59 183.016 163.003 182.94 163.367 182.79C163.736 182.64 164.028 182.428 164.242 182.154C164.456 181.881 164.563 181.564 164.563 181.204C164.563 180.876 164.47 180.609 164.283 180.404C164.101 180.199 163.857 180.031 163.552 179.898C163.246 179.766 162.911 179.65 162.547 179.55L161.316 179.201C160.496 178.969 159.858 178.636 159.402 178.203C158.947 177.77 158.719 177.216 158.719 176.542C158.719 175.968 158.874 175.466 159.184 175.038C159.493 174.605 159.913 174.27 160.441 174.033C160.97 173.796 161.562 173.678 162.219 173.678C162.889 173.678 163.481 173.796 163.996 174.033C164.511 174.27 164.917 174.594 165.213 175.004C165.514 175.41 165.673 175.87 165.691 176.385H164.42C164.361 175.888 164.124 175.505 163.709 175.236C163.294 174.963 162.784 174.826 162.178 174.826C161.74 174.826 161.355 174.899 161.022 175.045C160.694 175.186 160.439 175.382 160.257 175.633C160.075 175.879 159.983 176.161 159.983 176.48C159.983 176.836 160.093 177.123 160.312 177.342C160.535 177.556 160.797 177.725 161.098 177.848C161.403 177.966 161.679 178.06 161.925 178.128L162.943 178.408C163.217 178.481 163.518 178.581 163.846 178.709C164.178 178.837 164.495 179.007 164.796 179.222C165.097 179.431 165.343 179.7 165.534 180.028C165.73 180.352 165.828 180.751 165.828 181.225C165.828 181.781 165.682 182.282 165.391 182.729C165.104 183.175 164.684 183.528 164.133 183.788C163.581 184.048 162.914 184.178 162.13 184.178ZM167.496 186.454L168.098 182.578H169.506L168.439 186.454H167.496ZM177.121 173.814V184H175.822V173.814H177.121ZM180.662 179.42V184H179.432V176.357H180.614L180.621 178.21H180.45C180.683 177.504 181.013 177.002 181.441 176.706C181.874 176.41 182.38 176.262 182.959 176.262C183.474 176.262 183.925 176.369 184.312 176.583C184.7 176.793 185.001 177.112 185.215 177.54C185.434 177.964 185.543 178.499 185.543 179.146V184H184.312V179.249C184.312 178.661 184.158 178.201 183.848 177.868C183.542 177.535 183.123 177.369 182.59 177.369C182.225 177.369 181.897 177.449 181.605 177.608C181.314 177.768 181.084 178 180.915 178.306C180.746 178.611 180.662 178.982 180.662 179.42ZM190.567 184.164C189.934 184.164 189.373 184.002 188.886 183.679C188.398 183.355 188.018 182.897 187.744 182.305C187.471 181.712 187.334 181.01 187.334 180.199C187.334 179.393 187.471 178.695 187.744 178.107C188.022 177.515 188.405 177.059 188.893 176.74C189.38 176.421 189.941 176.262 190.574 176.262C191.071 176.262 191.465 176.344 191.757 176.508C192.049 176.672 192.272 176.859 192.427 177.068C192.586 177.273 192.707 177.444 192.789 177.581H192.885V173.814H194.115V184H192.926V182.817H192.789C192.707 182.959 192.584 183.136 192.42 183.351C192.26 183.56 192.033 183.749 191.736 183.918C191.445 184.082 191.055 184.164 190.567 184.164ZM190.752 183.063C191.217 183.063 191.609 182.943 191.928 182.701C192.247 182.455 192.488 182.116 192.652 181.683C192.816 181.25 192.898 180.751 192.898 180.186C192.898 179.62 192.816 179.128 192.652 178.709C192.493 178.285 192.254 177.955 191.935 177.718C191.616 177.481 191.221 177.362 190.752 177.362C190.269 177.362 189.866 177.488 189.542 177.738C189.223 177.989 188.984 178.328 188.824 178.757C188.665 179.181 188.585 179.657 188.585 180.186C188.585 180.719 188.665 181.204 188.824 181.642C188.988 182.075 189.232 182.421 189.556 182.681C189.879 182.936 190.278 183.063 190.752 183.063ZM196.275 184V176.357H197.506V184H196.275ZM196.897 175.106C196.665 175.106 196.465 175.027 196.296 174.867C196.127 174.708 196.043 174.516 196.043 174.293C196.043 174.065 196.127 173.874 196.296 173.719C196.465 173.559 196.665 173.479 196.897 173.479C197.134 173.479 197.337 173.559 197.506 173.719C197.674 173.874 197.759 174.065 197.759 174.293C197.759 174.516 197.674 174.708 197.506 174.867C197.337 175.027 197.134 175.106 196.897 175.106ZM202.523 184.164C201.895 184.164 201.336 184.002 200.849 183.679C200.366 183.355 199.985 182.897 199.707 182.305C199.434 181.712 199.297 181.01 199.297 180.199C199.297 179.393 199.436 178.695 199.714 178.107C199.992 177.515 200.375 177.059 200.862 176.74C201.354 176.421 201.917 176.262 202.551 176.262C203.043 176.262 203.435 176.344 203.727 176.508C204.018 176.667 204.242 176.852 204.396 177.062C204.551 177.271 204.67 177.444 204.752 177.581H204.854V176.357H206.078V184H204.861V182.817H204.752C204.67 182.959 204.547 183.136 204.383 183.351C204.223 183.565 203.995 183.754 203.699 183.918C203.403 184.082 203.011 184.164 202.523 184.164ZM202.729 183.063C203.193 183.063 203.585 182.943 203.904 182.701C204.223 182.455 204.465 182.116 204.629 181.683C204.793 181.25 204.875 180.751 204.875 180.186C204.875 179.62 204.793 179.128 204.629 178.709C204.469 178.285 204.23 177.955 203.911 177.718C203.592 177.481 203.198 177.362 202.729 177.362C202.245 177.362 201.842 177.488 201.519 177.738C201.195 177.984 200.951 178.322 200.787 178.75C200.628 179.174 200.548 179.652 200.548 180.186C200.548 180.719 200.63 181.204 200.794 181.642C200.958 182.075 201.202 182.421 201.525 182.681C201.849 182.936 202.25 183.063 202.729 183.063Z" fill="#111827"/>
<rect x="213" y="171" width="16" height="16" rx="8" fill="white"/>
<rect x="213" y="171" width="16" height="16" rx="8" stroke="#E4E4E7"/>
<path d="M33 244C37.9706 244 42 239.971 42 235C42 230.029 37.9706 226 33 226C28.0294 226 24 230.029 24 235C24 239.971 28.0294 244 33 244Z" stroke="#111827" stroke-miterlimit="10" stroke-linecap="round" stroke-dasharray="4 4"/>
<path d="M54.1484 241V229.359H58.5156C59.401 229.359 60.1484 229.526 60.7578 229.859C61.3672 230.188 61.8281 230.641 62.1406 231.219C62.4583 231.797 62.6172 232.458 62.6172 233.203C62.6172 233.948 62.4583 234.609 62.1406 235.188C61.8229 235.76 61.3568 236.211 60.7422 236.539C60.1276 236.867 59.3724 237.031 58.4766 237.031H55.5469V235.312H58.2266C58.7474 235.312 59.1745 235.224 59.5078 235.047C59.8464 234.865 60.0964 234.615 60.2578 234.297C60.4193 233.974 60.5 233.609 60.5 233.203C60.5 232.786 60.4193 232.422 60.2578 232.109C60.0964 231.792 59.8464 231.547 59.5078 231.375C59.1693 231.198 58.7396 231.109 58.2188 231.109H56.2344V241H54.1484ZM66.3594 229.359V241H64.3359V229.359H66.3594ZM71.6875 241.164C71 241.164 70.3854 240.987 69.8438 240.633C69.3021 240.273 68.875 239.76 68.5625 239.094C68.25 238.427 68.0938 237.62 68.0938 236.672C68.0938 235.719 68.2526 234.909 68.5703 234.242C68.8932 233.576 69.3255 233.07 69.8672 232.727C70.4141 232.378 71.026 232.203 71.7031 232.203C72.1979 232.203 72.6094 232.286 72.9375 232.453C73.2656 232.615 73.5286 232.815 73.7266 233.055C73.9297 233.289 74.0859 233.516 74.1953 233.734H74.2812V232.32H76.2891V241H74.2891V239.633H74.1953C74.0859 239.857 73.9271 240.086 73.7188 240.32C73.5156 240.555 73.2474 240.755 72.9141 240.922C72.5859 241.083 72.1771 241.164 71.6875 241.164ZM72.2422 239.492C72.6849 239.492 73.0599 239.375 73.3672 239.141C73.6797 238.901 73.9167 238.57 74.0781 238.148C74.2396 237.721 74.3203 237.227 74.3203 236.664C74.3203 236.102 74.2396 235.612 74.0781 235.195C73.9167 234.773 73.6823 234.448 73.375 234.219C73.0677 233.984 72.6901 233.867 72.2422 233.867C71.7943 233.867 71.4141 233.987 71.1016 234.227C70.7943 234.466 70.5599 234.797 70.3984 235.219C70.2422 235.635 70.1641 236.117 70.1641 236.664C70.1641 237.211 70.2422 237.698 70.3984 238.125C70.5599 238.552 70.7943 238.888 71.1016 239.133C71.4141 239.372 71.7943 239.492 72.2422 239.492ZM77.7031 241L81.1016 235.789L81.0938 237.297L77.8828 232.32H80.1094L80.9922 233.781C81.2474 234.219 81.4766 234.643 81.6797 235.055C81.8828 235.461 82.0885 235.859 82.2969 236.25H81.4766C81.6901 235.865 81.8932 235.466 82.0859 235.055C82.2839 234.643 82.513 234.219 82.7734 233.781L83.6875 232.32H85.875L82.6172 237.336V235.844L86.0078 241H83.7891L82.7266 239.281C82.4661 238.854 82.2344 238.438 82.0312 238.031C81.8281 237.625 81.6224 237.234 81.4141 236.859H82.2344C82.0312 237.234 81.8333 237.625 81.6406 238.031C81.4531 238.438 81.2292 238.854 80.9688 239.281L79.9062 241H77.7031ZM90.8828 241.18C90.0391 241.18 89.3047 240.992 88.6797 240.617C88.0547 240.242 87.5703 239.719 87.2266 239.047C86.888 238.375 86.7188 237.594 86.7188 236.703C86.7188 235.802 86.888 235.016 87.2266 234.344C87.5703 233.667 88.0547 233.141 88.6797 232.766C89.3047 232.391 90.0391 232.203 90.8828 232.203C91.7266 232.203 92.4609 232.391 93.0859 232.766C93.7109 233.141 94.1927 233.667 94.5312 234.344C94.875 235.016 95.0469 235.802 95.0469 236.703C95.0469 237.594 94.875 238.375 94.5312 239.047C94.1927 239.719 93.7109 240.242 93.0859 240.617C92.4609 240.992 91.7266 241.18 90.8828 241.18ZM90.8828 239.531C91.3516 239.531 91.7422 239.406 92.0547 239.156C92.3672 238.901 92.6016 238.56 92.7578 238.133C92.9141 237.706 92.9922 237.227 92.9922 236.695C92.9922 236.159 92.9141 235.677 92.7578 235.25C92.6016 234.818 92.3672 234.477 92.0547 234.227C91.7422 233.977 91.3516 233.852 90.8828 233.852C90.4141 233.852 90.0234 233.977 89.7109 234.227C89.4036 234.477 89.1719 234.815 89.0156 235.242C88.8594 235.669 88.7812 236.154 88.7812 236.695C88.7812 237.227 88.8594 237.706 89.0156 238.133C89.1719 238.56 89.4036 238.901 89.7109 239.156C90.0234 239.406 90.4141 239.531 90.8828 239.531ZM98.7969 235.938V241H96.7734V232.32H98.7031L98.7266 234.469H98.5391C98.7839 233.719 99.1432 233.154 99.6172 232.773C100.096 232.393 100.693 232.203 101.406 232.203C102 232.203 102.521 232.331 102.969 232.586C103.417 232.841 103.763 233.214 104.008 233.703C104.258 234.193 104.383 234.789 104.383 235.492V241H102.359V235.805C102.359 235.216 102.208 234.758 101.906 234.43C101.604 234.096 101.188 233.93 100.656 233.93C100.297 233.93 99.9766 234.008 99.6953 234.164C99.4193 234.32 99.2005 234.547 99.0391 234.844C98.8776 235.141 98.7969 235.505 98.7969 235.938ZM106.492 241V232.32H108.516V241H106.492ZM107.5 231.086C107.177 231.086 106.898 230.977 106.664 230.758C106.435 230.539 106.32 230.276 106.32 229.969C106.32 229.656 106.435 229.393 106.664 229.18C106.898 228.966 107.177 228.859 107.5 228.859C107.828 228.859 108.107 228.966 108.336 229.18C108.57 229.393 108.688 229.656 108.688 229.969C108.688 230.276 108.57 230.539 108.336 230.758C108.107 230.977 107.828 231.086 107.5 231.086ZM114.406 241.18C113.562 241.18 112.828 240.992 112.203 240.617C111.583 240.242 111.102 239.719 110.758 239.047C110.419 238.37 110.25 237.589 110.25 236.703C110.25 235.802 110.419 235.016 110.758 234.344C111.102 233.667 111.583 233.141 112.203 232.766C112.828 232.391 113.562 232.203 114.406 232.203C114.896 232.203 115.349 232.268 115.766 232.398C116.188 232.523 116.562 232.708 116.891 232.953C117.219 233.193 117.492 233.484 117.711 233.828C117.93 234.172 118.083 234.557 118.172 234.984L116.266 235.344C116.214 235.115 116.133 234.909 116.023 234.727C115.919 234.544 115.789 234.388 115.633 234.258C115.477 234.128 115.297 234.029 115.094 233.961C114.891 233.888 114.667 233.852 114.422 233.852C113.953 233.852 113.562 233.977 113.25 234.227C112.938 234.471 112.703 234.807 112.547 235.234C112.391 235.661 112.312 236.148 112.312 236.695C112.312 237.232 112.391 237.714 112.547 238.141C112.703 238.568 112.938 238.906 113.25 239.156C113.562 239.406 113.953 239.531 114.422 239.531C114.672 239.531 114.898 239.495 115.102 239.422C115.31 239.349 115.492 239.245 115.648 239.109C115.81 238.974 115.943 238.81 116.047 238.617C116.156 238.424 116.237 238.214 116.289 237.984L118.188 238.336C118.104 238.773 117.953 239.167 117.734 239.516C117.516 239.865 117.24 240.164 116.906 240.414C116.578 240.659 116.203 240.849 115.781 240.984C115.359 241.115 114.901 241.18 114.406 241.18Z" fill="#111827"/>
<path d="M129.017 240.089C128.761 240.089 128.543 240 128.36 239.822C128.183 239.64 128.094 239.421 128.094 239.166C128.094 238.911 128.183 238.694 128.36 238.517C128.543 238.334 128.761 238.243 129.017 238.243C129.272 238.243 129.488 238.334 129.666 238.517C129.848 238.694 129.939 238.911 129.939 239.166C129.939 239.421 129.848 239.64 129.666 239.822C129.488 240 129.272 240.089 129.017 240.089ZM135.326 240L139.024 229.814H140.528L144.274 240H142.907L140.747 233.957C140.615 233.583 140.46 233.118 140.282 232.562C140.109 232.002 139.897 231.289 139.646 230.423H139.893C139.646 231.298 139.432 232.02 139.25 232.59C139.072 233.155 138.924 233.611 138.806 233.957L136.707 240H135.326ZM137.186 237.156V236.021H142.415V237.156H137.186ZM146.975 240L144.199 229.814H145.525L147.139 236.062C147.225 236.395 147.307 236.735 147.385 237.081C147.462 237.423 147.537 237.771 147.61 238.127C147.683 238.478 147.752 238.84 147.815 239.214H147.658C147.727 238.84 147.797 238.478 147.87 238.127C147.943 237.771 148.021 237.423 148.103 237.081C148.185 236.735 148.269 236.395 148.355 236.062L150.003 229.814H151.479L153.113 236.062C153.204 236.395 153.289 236.735 153.366 237.081C153.448 237.423 153.528 237.771 153.605 238.127C153.683 238.478 153.756 238.84 153.824 239.214H153.646C153.715 238.84 153.785 238.478 153.858 238.127C153.931 237.771 154.009 237.423 154.091 237.081C154.173 236.735 154.255 236.395 154.337 236.062L155.943 229.814H157.283L154.494 240H152.983L151.233 233.547C151.119 233.128 151.01 232.672 150.905 232.18C150.8 231.683 150.698 231.111 150.598 230.464H150.871C150.771 231.075 150.673 231.621 150.577 232.104C150.481 232.583 150.368 233.064 150.235 233.547L148.492 240H146.975ZM162.13 240.178C161.396 240.178 160.758 240.059 160.216 239.822C159.678 239.585 159.257 239.255 158.951 238.831C158.646 238.403 158.473 237.904 158.432 237.334H159.765C159.801 237.717 159.931 238.034 160.154 238.284C160.378 238.53 160.662 238.715 161.009 238.838C161.36 238.956 161.733 239.016 162.13 239.016C162.59 239.016 163.003 238.94 163.367 238.79C163.736 238.64 164.028 238.428 164.242 238.154C164.456 237.881 164.563 237.564 164.563 237.204C164.563 236.876 164.47 236.609 164.283 236.404C164.101 236.199 163.857 236.031 163.552 235.898C163.246 235.766 162.911 235.65 162.547 235.55L161.316 235.201C160.496 234.969 159.858 234.636 159.402 234.203C158.947 233.77 158.719 233.216 158.719 232.542C158.719 231.968 158.874 231.466 159.184 231.038C159.493 230.605 159.913 230.27 160.441 230.033C160.97 229.796 161.562 229.678 162.219 229.678C162.889 229.678 163.481 229.796 163.996 230.033C164.511 230.27 164.917 230.594 165.213 231.004C165.514 231.41 165.673 231.87 165.691 232.385H164.42C164.361 231.888 164.124 231.505 163.709 231.236C163.294 230.963 162.784 230.826 162.178 230.826C161.74 230.826 161.355 230.899 161.022 231.045C160.694 231.186 160.439 231.382 160.257 231.633C160.075 231.879 159.983 232.161 159.983 232.48C159.983 232.836 160.093 233.123 160.312 233.342C160.535 233.556 160.797 233.725 161.098 233.848C161.403 233.966 161.679 234.06 161.925 234.128L162.943 234.408C163.217 234.481 163.518 234.581 163.846 234.709C164.178 234.837 164.495 235.007 164.796 235.222C165.097 235.431 165.343 235.7 165.534 236.028C165.73 236.352 165.828 236.751 165.828 237.225C165.828 237.781 165.682 238.282 165.391 238.729C165.104 239.175 164.684 239.528 164.133 239.788C163.581 240.048 162.914 240.178 162.13 240.178ZM167.496 242.454L168.098 238.578H169.506L168.439 242.454H167.496ZM177.121 229.814V240H175.822V229.814H177.121ZM180.662 235.42V240H179.432V232.357H180.614L180.621 234.21H180.45C180.683 233.504 181.013 233.002 181.441 232.706C181.874 232.41 182.38 232.262 182.959 232.262C183.474 232.262 183.925 232.369 184.312 232.583C184.7 232.793 185.001 233.112 185.215 233.54C185.434 233.964 185.543 234.499 185.543 235.146V240H184.312V235.249C184.312 234.661 184.158 234.201 183.848 233.868C183.542 233.535 183.123 233.369 182.59 233.369C182.225 233.369 181.897 233.449 181.605 233.608C181.314 233.768 181.084 234 180.915 234.306C180.746 234.611 180.662 234.982 180.662 235.42ZM190.567 240.164C189.934 240.164 189.373 240.002 188.886 239.679C188.398 239.355 188.018 238.897 187.744 238.305C187.471 237.712 187.334 237.01 187.334 236.199C187.334 235.393 187.471 234.695 187.744 234.107C188.022 233.515 188.405 233.059 188.893 232.74C189.38 232.421 189.941 232.262 190.574 232.262C191.071 232.262 191.465 232.344 191.757 232.508C192.049 232.672 192.272 232.859 192.427 233.068C192.586 233.273 192.707 233.444 192.789 233.581H192.885V229.814H194.115V240H192.926V238.817H192.789C192.707 238.959 192.584 239.136 192.42 239.351C192.26 239.56 192.033 239.749 191.736 239.918C191.445 240.082 191.055 240.164 190.567 240.164ZM190.752 239.063C191.217 239.063 191.609 238.943 191.928 238.701C192.247 238.455 192.488 238.116 192.652 237.683C192.816 237.25 192.898 236.751 192.898 236.186C192.898 235.62 192.816 235.128 192.652 234.709C192.493 234.285 192.254 233.955 191.935 233.718C191.616 233.481 191.221 233.362 190.752 233.362C190.269 233.362 189.866 233.488 189.542 233.738C189.223 233.989 188.984 234.328 188.824 234.757C188.665 235.181 188.585 235.657 188.585 236.186C188.585 236.719 188.665 237.204 188.824 237.642C188.988 238.075 189.232 238.421 189.556 238.681C189.879 238.936 190.278 239.063 190.752 239.063ZM196.275 240V232.357H197.506V240H196.275ZM196.897 231.106C196.665 231.106 196.465 231.027 196.296 230.867C196.127 230.708 196.043 230.516 196.043 230.293C196.043 230.065 196.127 229.874 196.296 229.719C196.465 229.559 196.665 229.479 196.897 229.479C197.134 229.479 197.337 229.559 197.506 229.719C197.674 229.874 197.759 230.065 197.759 230.293C197.759 230.516 197.674 230.708 197.506 230.867C197.337 231.027 197.134 231.106 196.897 231.106ZM202.523 240.164C201.895 240.164 201.336 240.002 200.849 239.679C200.366 239.355 199.985 238.897 199.707 238.305C199.434 237.712 199.297 237.01 199.297 236.199C199.297 235.393 199.436 234.695 199.714 234.107C199.992 233.515 200.375 233.059 200.862 232.74C201.354 232.421 201.917 232.262 202.551 232.262C203.043 232.262 203.435 232.344 203.727 232.508C204.018 232.667 204.242 232.852 204.396 233.062C204.551 233.271 204.67 233.444 204.752 233.581H204.854V232.357H206.078V240H204.861V238.817H204.752C204.67 238.959 204.547 239.136 204.383 239.351C204.223 239.565 203.995 239.754 203.699 239.918C203.403 240.082 203.011 240.164 202.523 240.164ZM202.729 239.063C203.193 239.063 203.585 238.943 203.904 238.701C204.223 238.455 204.465 238.116 204.629 237.683C204.793 237.25 204.875 236.751 204.875 236.186C204.875 235.62 204.793 235.128 204.629 234.709C204.469 234.285 204.23 233.955 203.911 233.718C203.592 233.481 203.198 233.362 202.729 233.362C202.245 233.362 201.842 233.488 201.519 233.738C201.195 233.984 200.951 234.322 200.787 234.75C200.628 235.174 200.548 235.652 200.548 236.186C200.548 236.719 200.63 237.204 200.794 237.642C200.958 238.075 201.202 238.421 201.525 238.681C201.849 238.936 202.25 239.063 202.729 239.063Z" fill="#111827"/>
<rect x="213" y="227" width="16" height="16" rx="8" fill="white"/>
<rect x="213" y="227" width="16" height="16" rx="8" stroke="#E4E4E7"/>
<path d="M33 300C37.9706 300 42 295.971 42 291C42 286.029 37.9706 282 33 282C28.0294 282 24 286.029 24 291C24 295.971 28.0294 300 33 300Z" stroke="#111827" stroke-miterlimit="10" stroke-linecap="round" stroke-dasharray="4 4"/>
<path d="M54.1484 297V285.359H58.5156C59.401 285.359 60.1484 285.526 60.7578 285.859C61.3672 286.188 61.8281 286.641 62.1406 287.219C62.4583 287.797 62.6172 288.458 62.6172 289.203C62.6172 289.948 62.4583 290.609 62.1406 291.188C61.8229 291.76 61.3568 292.211 60.7422 292.539C60.1276 292.867 59.3724 293.031 58.4766 293.031H55.5469V291.312H58.2266C58.7474 291.312 59.1745 291.224 59.5078 291.047C59.8464 290.865 60.0964 290.615 60.2578 290.297C60.4193 289.974 60.5 289.609 60.5 289.203C60.5 288.786 60.4193 288.422 60.2578 288.109C60.0964 287.792 59.8464 287.547 59.5078 287.375C59.1693 287.198 58.7396 287.109 58.2188 287.109H56.2344V297H54.1484ZM66.3594 285.359V297H64.3359V285.359H66.3594ZM71.6875 297.164C71 297.164 70.3854 296.987 69.8438 296.633C69.3021 296.273 68.875 295.76 68.5625 295.094C68.25 294.427 68.0938 293.62 68.0938 292.672C68.0938 291.719 68.2526 290.909 68.5703 290.242C68.8932 289.576 69.3255 289.07 69.8672 288.727C70.4141 288.378 71.026 288.203 71.7031 288.203C72.1979 288.203 72.6094 288.286 72.9375 288.453C73.2656 288.615 73.5286 288.815 73.7266 289.055C73.9297 289.289 74.0859 289.516 74.1953 289.734H74.2812V288.32H76.2891V297H74.2891V295.633H74.1953C74.0859 295.857 73.9271 296.086 73.7188 296.32C73.5156 296.555 73.2474 296.755 72.9141 296.922C72.5859 297.083 72.1771 297.164 71.6875 297.164ZM72.2422 295.492C72.6849 295.492 73.0599 295.375 73.3672 295.141C73.6797 294.901 73.9167 294.57 74.0781 294.148C74.2396 293.721 74.3203 293.227 74.3203 292.664C74.3203 292.102 74.2396 291.612 74.0781 291.195C73.9167 290.773 73.6823 290.448 73.375 290.219C73.0677 289.984 72.6901 289.867 72.2422 289.867C71.7943 289.867 71.4141 289.987 71.1016 290.227C70.7943 290.466 70.5599 290.797 70.3984 291.219C70.2422 291.635 70.1641 292.117 70.1641 292.664C70.1641 293.211 70.2422 293.698 70.3984 294.125C70.5599 294.552 70.7943 294.888 71.1016 295.133C71.4141 295.372 71.7943 295.492 72.2422 295.492ZM77.7031 297L81.1016 291.789L81.0938 293.297L77.8828 288.32H80.1094L80.9922 289.781C81.2474 290.219 81.4766 290.643 81.6797 291.055C81.8828 291.461 82.0885 291.859 82.2969 292.25H81.4766C81.6901 291.865 81.8932 291.466 82.0859 291.055C82.2839 290.643 82.513 290.219 82.7734 289.781L83.6875 288.32H85.875L82.6172 293.336V291.844L86.0078 297H83.7891L82.7266 295.281C82.4661 294.854 82.2344 294.438 82.0312 294.031C81.8281 293.625 81.6224 293.234 81.4141 292.859H82.2344C82.0312 293.234 81.8333 293.625 81.6406 294.031C81.4531 294.438 81.2292 294.854 80.9688 295.281L79.9062 297H77.7031ZM90.8828 297.18C90.0391 297.18 89.3047 296.992 88.6797 296.617C88.0547 296.242 87.5703 295.719 87.2266 295.047C86.888 294.375 86.7188 293.594 86.7188 292.703C86.7188 291.802 86.888 291.016 87.2266 290.344C87.5703 289.667 88.0547 289.141 88.6797 288.766C89.3047 288.391 90.0391 288.203 90.8828 288.203C91.7266 288.203 92.4609 288.391 93.0859 288.766C93.7109 289.141 94.1927 289.667 94.5312 290.344C94.875 291.016 95.0469 291.802 95.0469 292.703C95.0469 293.594 94.875 294.375 94.5312 295.047C94.1927 295.719 93.7109 296.242 93.0859 296.617C92.4609 296.992 91.7266 297.18 90.8828 297.18ZM90.8828 295.531C91.3516 295.531 91.7422 295.406 92.0547 295.156C92.3672 294.901 92.6016 294.56 92.7578 294.133C92.9141 293.706 92.9922 293.227 92.9922 292.695C92.9922 292.159 92.9141 291.677 92.7578 291.25C92.6016 290.818 92.3672 290.477 92.0547 290.227C91.7422 289.977 91.3516 289.852 90.8828 289.852C90.4141 289.852 90.0234 289.977 89.7109 290.227C89.4036 290.477 89.1719 290.815 89.0156 291.242C88.8594 291.669 88.7812 292.154 88.7812 292.695C88.7812 293.227 88.8594 293.706 89.0156 294.133C89.1719 294.56 89.4036 294.901 89.7109 295.156C90.0234 295.406 90.4141 295.531 90.8828 295.531ZM98.7969 291.938V297H96.7734V288.32H98.7031L98.7266 290.469H98.5391C98.7839 289.719 99.1432 289.154 99.6172 288.773C100.096 288.393 100.693 288.203 101.406 288.203C102 288.203 102.521 288.331 102.969 288.586C103.417 288.841 103.763 289.214 104.008 289.703C104.258 290.193 104.383 290.789 104.383 291.492V297H102.359V291.805C102.359 291.216 102.208 290.758 101.906 290.43C101.604 290.096 101.188 289.93 100.656 289.93C100.297 289.93 99.9766 290.008 99.6953 290.164C99.4193 290.32 99.2005 290.547 99.0391 290.844C98.8776 291.141 98.7969 291.505 98.7969 291.938ZM106.492 297V288.32H108.516V297H106.492ZM107.5 287.086C107.177 287.086 106.898 286.977 106.664 286.758C106.435 286.539 106.32 286.276 106.32 285.969C106.32 285.656 106.435 285.393 106.664 285.18C106.898 284.966 107.177 284.859 107.5 284.859C107.828 284.859 108.107 284.966 108.336 285.18C108.57 285.393 108.688 285.656 108.688 285.969C108.688 286.276 108.57 286.539 108.336 286.758C108.107 286.977 107.828 287.086 107.5 287.086ZM114.406 297.18C113.562 297.18 112.828 296.992 112.203 296.617C111.583 296.242 111.102 295.719 110.758 295.047C110.419 294.37 110.25 293.589 110.25 292.703C110.25 291.802 110.419 291.016 110.758 290.344C111.102 289.667 111.583 289.141 112.203 288.766C112.828 288.391 113.562 288.203 114.406 288.203C114.896 288.203 115.349 288.268 115.766 288.398C116.188 288.523 116.562 288.708 116.891 288.953C117.219 289.193 117.492 289.484 117.711 289.828C117.93 290.172 118.083 290.557 118.172 290.984L116.266 291.344C116.214 291.115 116.133 290.909 116.023 290.727C115.919 290.544 115.789 290.388 115.633 290.258C115.477 290.128 115.297 290.029 115.094 289.961C114.891 289.888 114.667 289.852 114.422 289.852C113.953 289.852 113.562 289.977 113.25 290.227C112.938 290.471 112.703 290.807 112.547 291.234C112.391 291.661 112.312 292.148 112.312 292.695C112.312 293.232 112.391 293.714 112.547 294.141C112.703 294.568 112.938 294.906 113.25 295.156C113.562 295.406 113.953 295.531 114.422 295.531C114.672 295.531 114.898 295.495 115.102 295.422C115.31 295.349 115.492 295.245 115.648 295.109C115.81 294.974 115.943 294.81 116.047 294.617C116.156 294.424 116.237 294.214 116.289 293.984L118.188 294.336C118.104 294.773 117.953 295.167 117.734 295.516C117.516 295.865 117.24 296.164 116.906 296.414C116.578 296.659 116.203 296.849 115.781 296.984C115.359 297.115 114.901 297.18 114.406 297.18Z" fill="#111827"/>
<path d="M129.017 296.089C128.761 296.089 128.543 296 128.36 295.822C128.183 295.64 128.094 295.421 128.094 295.166C128.094 294.911 128.183 294.694 128.36 294.517C128.543 294.334 128.761 294.243 129.017 294.243C129.272 294.243 129.488 294.334 129.666 294.517C129.848 294.694 129.939 294.911 129.939 295.166C129.939 295.421 129.848 295.64 129.666 295.822C129.488 296 129.272 296.089 129.017 296.089ZM135.326 296L139.024 285.814H140.528L144.274 296H142.907L140.747 289.957C140.615 289.583 140.46 289.118 140.282 288.562C140.109 288.002 139.897 287.289 139.646 286.423H139.893C139.646 287.298 139.432 288.02 139.25 288.59C139.072 289.155 138.924 289.611 138.806 289.957L136.707 296H135.326ZM137.186 293.156V292.021H142.415V293.156H137.186ZM146.975 296L144.199 285.814H145.525L147.139 292.062C147.225 292.395 147.307 292.735 147.385 293.081C147.462 293.423 147.537 293.771 147.61 294.127C147.683 294.478 147.752 294.84 147.815 295.214H147.658C147.727 294.84 147.797 294.478 147.87 294.127C147.943 293.771 148.021 293.423 148.103 293.081C148.185 292.735 148.269 292.395 148.355 292.062L150.003 285.814H151.479L153.113 292.062C153.204 292.395 153.289 292.735 153.366 293.081C153.448 293.423 153.528 293.771 153.605 294.127C153.683 294.478 153.756 294.84 153.824 295.214H153.646C153.715 294.84 153.785 294.478 153.858 294.127C153.931 293.771 154.009 293.423 154.091 293.081C154.173 292.735 154.255 292.395 154.337 292.062L155.943 285.814H157.283L154.494 296H152.983L151.233 289.547C151.119 289.128 151.01 288.672 150.905 288.18C150.8 287.683 150.698 287.111 150.598 286.464H150.871C150.771 287.075 150.673 287.621 150.577 288.104C150.481 288.583 150.368 289.064 150.235 289.547L148.492 296H146.975ZM162.13 296.178C161.396 296.178 160.758 296.059 160.216 295.822C159.678 295.585 159.257 295.255 158.951 294.831C158.646 294.403 158.473 293.904 158.432 293.334H159.765C159.801 293.717 159.931 294.034 160.154 294.284C160.378 294.53 160.662 294.715 161.009 294.838C161.36 294.956 161.733 295.016 162.13 295.016C162.59 295.016 163.003 294.94 163.367 294.79C163.736 294.64 164.028 294.428 164.242 294.154C164.456 293.881 164.563 293.564 164.563 293.204C164.563 292.876 164.47 292.609 164.283 292.404C164.101 292.199 163.857 292.031 163.552 291.898C163.246 291.766 162.911 291.65 162.547 291.55L161.316 291.201C160.496 290.969 159.858 290.636 159.402 290.203C158.947 289.77 158.719 289.216 158.719 288.542C158.719 287.968 158.874 287.466 159.184 287.038C159.493 286.605 159.913 286.27 160.441 286.033C160.97 285.796 161.562 285.678 162.219 285.678C162.889 285.678 163.481 285.796 163.996 286.033C164.511 286.27 164.917 286.594 165.213 287.004C165.514 287.41 165.673 287.87 165.691 288.385H164.42C164.361 287.888 164.124 287.505 163.709 287.236C163.294 286.963 162.784 286.826 162.178 286.826C161.74 286.826 161.355 286.899 161.022 287.045C160.694 287.186 160.439 287.382 160.257 287.633C160.075 287.879 159.983 288.161 159.983 288.48C159.983 288.836 160.093 289.123 160.312 289.342C160.535 289.556 160.797 289.725 161.098 289.848C161.403 289.966 161.679 290.06 161.925 290.128L162.943 290.408C163.217 290.481 163.518 290.581 163.846 290.709C164.178 290.837 164.495 291.007 164.796 291.222C165.097 291.431 165.343 291.7 165.534 292.028C165.73 292.352 165.828 292.751 165.828 293.225C165.828 293.781 165.682 294.282 165.391 294.729C165.104 295.175 164.684 295.528 164.133 295.788C163.581 296.048 162.914 296.178 162.13 296.178ZM167.496 298.454L168.098 294.578H169.506L168.439 298.454H167.496ZM177.121 285.814V296H175.822V285.814H177.121ZM180.662 291.42V296H179.432V288.357H180.614L180.621 290.21H180.45C180.683 289.504 181.013 289.002 181.441 288.706C181.874 288.41 182.38 288.262 182.959 288.262C183.474 288.262 183.925 288.369 184.312 288.583C184.7 288.793 185.001 289.112 185.215 289.54C185.434 289.964 185.543 290.499 185.543 291.146V296H184.312V291.249C184.312 290.661 184.158 290.201 183.848 289.868C183.542 289.535 183.123 289.369 182.59 289.369C182.225 289.369 181.897 289.449 181.605 289.608C181.314 289.768 181.084 290 180.915 290.306C180.746 290.611 180.662 290.982 180.662 291.42ZM190.567 296.164C189.934 296.164 189.373 296.002 188.886 295.679C188.398 295.355 188.018 294.897 187.744 294.305C187.471 293.712 187.334 293.01 187.334 292.199C187.334 291.393 187.471 290.695 187.744 290.107C188.022 289.515 188.405 289.059 188.893 288.74C189.38 288.421 189.941 288.262 190.574 288.262C191.071 288.262 191.465 288.344 191.757 288.508C192.049 288.672 192.272 288.859 192.427 289.068C192.586 289.273 192.707 289.444 192.789 289.581H192.885V285.814H194.115V296H192.926V294.817H192.789C192.707 294.959 192.584 295.136 192.42 295.351C192.26 295.56 192.033 295.749 191.736 295.918C191.445 296.082 191.055 296.164 190.567 296.164ZM190.752 295.063C191.217 295.063 191.609 294.943 191.928 294.701C192.247 294.455 192.488 294.116 192.652 293.683C192.816 293.25 192.898 292.751 192.898 292.186C192.898 291.62 192.816 291.128 192.652 290.709C192.493 290.285 192.254 289.955 191.935 289.718C191.616 289.481 191.221 289.362 190.752 289.362C190.269 289.362 189.866 289.488 189.542 289.738C189.223 289.989 188.984 290.328 188.824 290.757C188.665 291.181 188.585 291.657 188.585 292.186C188.585 292.719 188.665 293.204 188.824 293.642C188.988 294.075 189.232 294.421 189.556 294.681C189.879 294.936 190.278 295.063 190.752 295.063ZM196.275 296V288.357H197.506V296H196.275ZM196.897 287.106C196.665 287.106 196.465 287.027 196.296 286.867C196.127 286.708 196.043 286.516 196.043 286.293C196.043 286.065 196.127 285.874 196.296 285.719C196.465 285.559 196.665 285.479 196.897 285.479C197.134 285.479 197.337 285.559 197.506 285.719C197.674 285.874 197.759 286.065 197.759 286.293C197.759 286.516 197.674 286.708 197.506 286.867C197.337 287.027 197.134 287.106 196.897 287.106ZM202.523 296.164C201.895 296.164 201.336 296.002 200.849 295.679C200.366 295.355 199.985 294.897 199.707 294.305C199.434 293.712 199.297 293.01 199.297 292.199C199.297 291.393 199.436 290.695 199.714 290.107C199.992 289.515 200.375 289.059 200.862 288.74C201.354 288.421 201.917 288.262 202.551 288.262C203.043 288.262 203.435 288.344 203.727 288.508C204.018 288.667 204.242 288.852 204.396 289.062C204.551 289.271 204.67 289.444 204.752 289.581H204.854V288.357H206.078V296H204.861V294.817H204.752C204.67 294.959 204.547 295.136 204.383 295.351C204.223 295.565 203.995 295.754 203.699 295.918C203.403 296.082 203.011 296.164 202.523 296.164ZM202.729 295.063C203.193 295.063 203.585 294.943 203.904 294.701C204.223 294.455 204.465 294.116 204.629 293.683C204.793 293.25 204.875 292.751 204.875 292.186C204.875 291.62 204.793 291.128 204.629 290.709C204.469 290.285 204.23 289.955 203.911 289.718C203.592 289.481 203.198 289.362 202.729 289.362C202.245 289.362 201.842 289.488 201.519 289.738C201.195 289.984 200.951 290.322 200.787 290.75C200.628 291.174 200.548 291.652 200.548 292.186C200.548 292.719 200.63 293.204 200.794 293.642C200.958 294.075 201.202 294.421 201.525 294.681C201.849 294.936 202.25 295.063 202.729 295.063Z" fill="#111827"/>
<rect x="213" y="283" width="16" height="16" rx="8" fill="white"/>
<rect x="213" y="283" width="16" height="16" rx="8" stroke="#E4E4E7"/>
<g filter="url(#filter2_d_3945_132698)">
<path d="M29.4912 344.178C28.7575 344.178 28.1195 344.059 27.5771 343.822C27.0394 343.585 26.6178 343.255 26.3125 342.831C26.0072 342.403 25.834 341.904 25.793 341.334H27.126C27.1624 341.717 27.2923 342.034 27.5156 342.284C27.7389 342.53 28.0238 342.715 28.3701 342.838C28.721 342.956 29.0947 343.016 29.4912 343.016C29.9515 343.016 30.3639 342.94 30.7285 342.79C31.0977 342.64 31.3893 342.428 31.6035 342.154C31.8177 341.881 31.9248 341.564 31.9248 341.204C31.9248 340.876 31.8314 340.609 31.6445 340.404C31.4622 340.199 31.2184 340.031 30.9131 339.898C30.6077 339.766 30.2728 339.65 29.9082 339.55L28.6777 339.201C27.8574 338.969 27.2194 338.636 26.7637 338.203C26.3079 337.77 26.0801 337.216 26.0801 336.542C26.0801 335.968 26.235 335.466 26.5449 335.038C26.8548 334.605 27.2741 334.27 27.8027 334.033C28.3314 333.796 28.9238 333.678 29.5801 333.678C30.25 333.678 30.8424 333.796 31.3574 334.033C31.8724 334.27 32.278 334.594 32.5742 335.004C32.875 335.41 33.0345 335.87 33.0527 336.385H31.7812C31.722 335.888 31.485 335.505 31.0703 335.236C30.6556 334.963 30.1452 334.826 29.5391 334.826C29.1016 334.826 28.7165 334.899 28.3838 335.045C28.0557 335.186 27.8005 335.382 27.6182 335.633C27.4359 335.879 27.3447 336.161 27.3447 336.48C27.3447 336.836 27.4541 337.123 27.6729 337.342C27.8962 337.556 28.1582 337.725 28.459 337.848C28.7643 337.966 29.04 338.06 29.2861 338.128L30.3047 338.408C30.5781 338.481 30.8789 338.581 31.207 338.709C31.5397 338.837 31.8564 339.007 32.1572 339.222C32.458 339.431 32.7041 339.7 32.8955 340.028C33.0915 340.352 33.1895 340.751 33.1895 341.225C33.1895 341.781 33.0436 342.282 32.752 342.729C32.4648 343.175 32.0456 343.528 31.4941 343.788C30.9427 344.048 30.2751 344.178 29.4912 344.178ZM38.2754 344.164C37.5371 344.164 36.8991 344 36.3613 343.672C35.8281 343.344 35.4157 342.886 35.124 342.298C34.8369 341.71 34.6934 341.024 34.6934 340.24C34.6934 339.456 34.8346 338.766 35.1172 338.169C35.3997 337.572 35.7985 337.105 36.3135 336.768C36.833 336.43 37.4391 336.262 38.1318 336.262C38.5374 336.262 38.9362 336.33 39.3281 336.467C39.7246 336.599 40.0824 336.815 40.4014 337.116C40.7249 337.412 40.9824 337.804 41.1738 338.292C41.3652 338.78 41.4609 339.377 41.4609 340.083V340.596H35.5273V339.557H40.7979L40.2236 339.939C40.2236 339.438 40.1439 338.994 39.9844 338.606C39.8294 338.215 39.597 337.909 39.2871 337.69C38.9772 337.467 38.5921 337.355 38.1318 337.355C37.6715 337.355 37.2773 337.469 36.9492 337.697C36.6211 337.921 36.3704 338.215 36.1973 338.579C36.0241 338.939 35.9375 339.326 35.9375 339.741V340.432C35.9375 340.997 36.0355 341.478 36.2314 341.874C36.4274 342.266 36.7008 342.564 37.0518 342.77C37.4072 342.97 37.8174 343.07 38.2822 343.07C38.583 343.07 38.8564 343.027 39.1025 342.94C39.3486 342.854 39.5605 342.724 39.7383 342.551C39.916 342.373 40.0527 342.154 40.1484 341.895L41.3379 342.223C41.2194 342.605 41.0189 342.943 40.7363 343.234C40.4538 343.526 40.1029 343.754 39.6836 343.918C39.2689 344.082 38.7995 344.164 38.2754 344.164ZM46.082 344.164C45.4531 344.164 44.8949 344.002 44.4072 343.679C43.9242 343.355 43.5436 342.897 43.2656 342.305C42.9922 341.712 42.8555 341.01 42.8555 340.199C42.8555 339.393 42.9945 338.695 43.2725 338.107C43.5505 337.515 43.9333 337.059 44.4209 336.74C44.9131 336.421 45.4759 336.262 46.1094 336.262C46.6016 336.262 46.9935 336.344 47.2852 336.508C47.5768 336.667 47.8001 336.852 47.9551 337.062C48.11 337.271 48.2285 337.444 48.3105 337.581H48.4131V336.357H49.6367V344H48.4199V342.817H48.3105C48.2285 342.959 48.1055 343.136 47.9414 343.351C47.7819 343.565 47.554 343.754 47.2578 343.918C46.9616 344.082 46.5697 344.164 46.082 344.164ZM46.2871 343.063C46.752 343.063 47.1439 342.943 47.4629 342.701C47.7819 342.455 48.0234 342.116 48.1875 341.683C48.3516 341.25 48.4336 340.751 48.4336 340.186C48.4336 339.62 48.3516 339.128 48.1875 338.709C48.028 338.285 47.7887 337.955 47.4697 337.718C47.1507 337.481 46.7565 337.362 46.2871 337.362C45.804 337.362 45.4007 337.488 45.0771 337.738C44.7536 337.984 44.5098 338.322 44.3457 338.75C44.1862 339.174 44.1064 339.652 44.1064 340.186C44.1064 340.719 44.1885 341.204 44.3525 341.642C44.5166 342.075 44.7604 342.421 45.084 342.681C45.4076 342.936 45.8086 343.063 46.2871 343.063ZM51.7969 344V336.357H52.9863V337.533H53.0684C53.2096 337.146 53.4603 336.836 53.8203 336.604C54.1849 336.367 54.5951 336.248 55.0508 336.248C55.1419 336.248 55.249 336.25 55.3721 336.255C55.4997 336.259 55.5999 336.264 55.6729 336.269V337.506C55.6364 337.497 55.5452 337.483 55.3994 337.465C55.2536 337.447 55.0986 337.438 54.9346 337.438C54.57 337.438 54.2419 337.515 53.9502 337.67C53.6631 337.82 53.4375 338.03 53.2734 338.299C53.1094 338.563 53.0273 338.868 53.0273 339.215V344H51.7969ZM59.9521 344.164C59.2594 344.164 58.651 344 58.127 343.672C57.6074 343.344 57.2018 342.883 56.9102 342.291C56.6185 341.699 56.4727 341.01 56.4727 340.227C56.4727 339.429 56.6185 338.734 56.9102 338.142C57.2018 337.545 57.6074 337.082 58.127 336.754C58.651 336.426 59.2594 336.262 59.9521 336.262C60.3213 336.262 60.6699 336.31 60.998 336.405C61.3262 336.501 61.6247 336.64 61.8936 336.822C62.167 337 62.4017 337.221 62.5977 337.485C62.7936 337.745 62.944 338.041 63.0488 338.374L61.8662 338.709C61.8115 338.513 61.7272 338.333 61.6133 338.169C61.4993 338.005 61.3604 337.864 61.1963 337.745C61.0368 337.622 60.8522 337.529 60.6426 337.465C60.4329 337.396 60.2028 337.362 59.9521 337.362C59.4417 337.362 59.0225 337.497 58.6943 337.766C58.3662 338.03 58.1224 338.379 57.9629 338.812C57.8034 339.244 57.7236 339.716 57.7236 340.227C57.7236 340.728 57.8034 341.195 57.9629 341.628C58.1224 342.056 58.3662 342.403 58.6943 342.667C59.0225 342.931 59.4417 343.063 59.9521 343.063C60.2074 343.063 60.4421 343.029 60.6562 342.961C60.8704 342.893 61.0596 342.797 61.2236 342.674C61.3923 342.546 61.5335 342.396 61.6475 342.223C61.7614 342.049 61.8457 341.86 61.9004 341.655L63.0762 341.99C62.9759 342.332 62.8255 342.637 62.625 342.906C62.429 343.171 62.1943 343.398 61.9209 343.59C61.6475 343.777 61.3444 343.918 61.0117 344.014C60.679 344.114 60.3258 344.164 59.9521 344.164ZM66.0703 339.42V344H64.8398V333.814H66.0703V338.21H65.8584C66.0908 337.504 66.4212 337.002 66.8496 336.706C67.2826 336.41 67.7884 336.262 68.3672 336.262C68.8822 336.262 69.3333 336.369 69.7207 336.583C70.1126 336.793 70.4157 337.112 70.6299 337.54C70.8486 337.964 70.958 338.499 70.958 339.146V344H69.7207V339.249C69.7207 338.661 69.5658 338.201 69.2559 337.868C68.9505 337.535 68.5312 337.369 67.998 337.369C67.6335 337.369 67.3053 337.449 67.0137 337.608C66.722 337.768 66.4919 338 66.3232 338.306C66.1546 338.611 66.0703 338.982 66.0703 339.42ZM80.6172 336.357V337.41H76.1191V336.357H80.6172ZM77.623 344V335.339C77.623 334.897 77.7256 334.528 77.9307 334.231C78.1403 333.935 78.4115 333.712 78.7441 333.562C79.0768 333.411 79.4277 333.336 79.7969 333.336C80.0885 333.336 80.3301 333.361 80.5215 333.411C80.7129 333.457 80.8542 333.5 80.9453 333.541L80.6035 334.594C80.5397 334.571 80.4554 334.546 80.3506 334.519C80.2503 334.491 80.1136 334.478 79.9404 334.478C79.5622 334.478 79.2865 334.576 79.1133 334.771C78.9401 334.963 78.8535 335.243 78.8535 335.612V344H77.623ZM84.9443 344.164C84.2516 344.164 83.6432 344 83.1191 343.672C82.5996 343.344 82.194 342.883 81.9023 342.291C81.6107 341.699 81.4648 341.01 81.4648 340.227C81.4648 339.429 81.6107 338.734 81.9023 338.142C82.194 337.545 82.5996 337.082 83.1191 336.754C83.6432 336.426 84.2516 336.262 84.9443 336.262C85.6416 336.262 86.2523 336.426 86.7764 336.754C87.3005 337.082 87.7083 337.545 88 338.142C88.2917 338.734 88.4375 339.429 88.4375 340.227C88.4375 341.01 88.2917 341.699 88 342.291C87.7083 342.883 87.3005 343.344 86.7764 343.672C86.2523 344 85.6416 344.164 84.9443 344.164ZM84.9443 343.063C85.4593 343.063 85.8831 342.931 86.2158 342.667C86.5485 342.403 86.7946 342.056 86.9541 341.628C87.1136 341.195 87.1934 340.728 87.1934 340.227C87.1934 339.721 87.1136 339.251 86.9541 338.818C86.7946 338.381 86.5485 338.03 86.2158 337.766C85.8831 337.497 85.4593 337.362 84.9443 337.362C84.4339 337.362 84.0146 337.497 83.6865 337.766C83.3584 338.03 83.1146 338.379 82.9551 338.812C82.7956 339.244 82.7158 339.716 82.7158 340.227C82.7158 340.728 82.7956 341.195 82.9551 341.628C83.1146 342.056 83.3584 342.403 83.6865 342.667C84.0146 342.931 84.4339 343.063 84.9443 343.063ZM90.2285 344V336.357H91.418V337.533H91.5C91.6413 337.146 91.8919 336.836 92.252 336.604C92.6165 336.367 93.0267 336.248 93.4824 336.248C93.5736 336.248 93.6807 336.25 93.8037 336.255C93.9313 336.259 94.0316 336.264 94.1045 336.269V337.506C94.068 337.497 93.9769 337.483 93.8311 337.465C93.6852 337.447 93.5303 337.438 93.3662 337.438C93.0016 337.438 92.6735 337.515 92.3818 337.67C92.0947 337.82 91.8691 338.03 91.7051 338.299C91.541 338.563 91.459 338.868 91.459 339.215V344H90.2285ZM99.4434 344V336.357H100.64L100.646 338.066H100.551C100.656 337.652 100.82 337.31 101.043 337.041C101.271 336.768 101.535 336.562 101.836 336.426C102.141 336.289 102.458 336.221 102.786 336.221C103.342 336.221 103.791 336.392 104.133 336.733C104.479 337.075 104.702 337.524 104.803 338.08H104.639C104.73 337.697 104.896 337.367 105.138 337.089C105.379 336.811 105.671 336.597 106.013 336.446C106.359 336.296 106.735 336.221 107.141 336.221C107.583 336.221 107.986 336.316 108.351 336.508C108.715 336.699 109.005 336.989 109.219 337.376C109.438 337.763 109.547 338.253 109.547 338.846V344H108.31V338.88C108.31 338.328 108.155 337.934 107.845 337.697C107.539 337.46 107.182 337.342 106.771 337.342C106.43 337.342 106.133 337.415 105.883 337.561C105.637 337.702 105.445 337.898 105.309 338.148C105.176 338.399 105.11 338.686 105.11 339.01V344H103.88V338.757C103.88 338.333 103.739 337.991 103.456 337.731C103.174 337.472 102.816 337.342 102.383 337.342C102.087 337.342 101.806 337.412 101.542 337.554C101.282 337.69 101.073 337.896 100.913 338.169C100.754 338.442 100.674 338.782 100.674 339.188V344H99.4434ZM114.817 344.164C114.125 344.164 113.516 344 112.992 343.672C112.473 343.344 112.067 342.883 111.775 342.291C111.484 341.699 111.338 341.01 111.338 340.227C111.338 339.429 111.484 338.734 111.775 338.142C112.067 337.545 112.473 337.082 112.992 336.754C113.516 336.426 114.125 336.262 114.817 336.262C115.515 336.262 116.125 336.426 116.649 336.754C117.174 337.082 117.581 337.545 117.873 338.142C118.165 338.734 118.311 339.429 118.311 340.227C118.311 341.01 118.165 341.699 117.873 342.291C117.581 342.883 117.174 343.344 116.649 343.672C116.125 344 115.515 344.164 114.817 344.164ZM114.817 343.063C115.332 343.063 115.756 342.931 116.089 342.667C116.422 342.403 116.668 342.056 116.827 341.628C116.987 341.195 117.066 340.728 117.066 340.227C117.066 339.721 116.987 339.251 116.827 338.818C116.668 338.381 116.422 338.03 116.089 337.766C115.756 337.497 115.332 337.362 114.817 337.362C114.307 337.362 113.888 337.497 113.56 337.766C113.231 338.03 112.988 338.379 112.828 338.812C112.669 339.244 112.589 339.716 112.589 340.227C112.589 340.728 112.669 341.195 112.828 341.628C112.988 342.056 113.231 342.403 113.56 342.667C113.888 342.931 114.307 343.063 114.817 343.063ZM120.102 344V336.357H121.291V337.533H121.373C121.514 337.146 121.765 336.836 122.125 336.604C122.49 336.367 122.9 336.248 123.355 336.248C123.447 336.248 123.554 336.25 123.677 336.255C123.804 336.259 123.905 336.264 123.978 336.269V337.506C123.941 337.497 123.85 337.483 123.704 337.465C123.558 337.447 123.403 337.438 123.239 337.438C122.875 337.438 122.547 337.515 122.255 337.67C121.968 337.82 121.742 338.03 121.578 338.299C121.414 338.563 121.332 338.868 121.332 339.215V344H120.102ZM128.359 344.164C127.621 344.164 126.983 344 126.445 343.672C125.912 343.344 125.5 342.886 125.208 342.298C124.921 341.71 124.777 341.024 124.777 340.24C124.777 339.456 124.919 338.766 125.201 338.169C125.484 337.572 125.882 337.105 126.397 336.768C126.917 336.43 127.523 336.262 128.216 336.262C128.621 336.262 129.02 336.33 129.412 336.467C129.809 336.599 130.166 336.815 130.485 337.116C130.809 337.412 131.066 337.804 131.258 338.292C131.449 338.78 131.545 339.377 131.545 340.083V340.596H125.611V339.557H130.882L130.308 339.939C130.308 339.438 130.228 338.994 130.068 338.606C129.913 338.215 129.681 337.909 129.371 337.69C129.061 337.467 128.676 337.355 128.216 337.355C127.756 337.355 127.361 337.469 127.033 337.697C126.705 337.921 126.454 338.215 126.281 338.579C126.108 338.939 126.021 339.326 126.021 339.741V340.432C126.021 340.997 126.119 341.478 126.315 341.874C126.511 342.266 126.785 342.564 127.136 342.77C127.491 342.97 127.901 343.07 128.366 343.07C128.667 343.07 128.94 343.027 129.187 342.94C129.433 342.854 129.645 342.724 129.822 342.551C130 342.373 130.137 342.154 130.232 341.895L131.422 342.223C131.303 342.605 131.103 342.943 130.82 343.234C130.538 343.526 130.187 343.754 129.768 343.918C129.353 344.082 128.883 344.164 128.359 344.164ZM134.245 344.089C133.99 344.089 133.771 344 133.589 343.822C133.411 343.64 133.322 343.421 133.322 343.166C133.322 342.911 133.411 342.694 133.589 342.517C133.771 342.334 133.99 342.243 134.245 342.243C134.5 342.243 134.717 342.334 134.895 342.517C135.077 342.694 135.168 342.911 135.168 343.166C135.168 343.421 135.077 343.64 134.895 343.822C134.717 344 134.5 344.089 134.245 344.089ZM138.278 344.089C138.023 344.089 137.804 344 137.622 343.822C137.444 343.64 137.355 343.421 137.355 343.166C137.355 342.911 137.444 342.694 137.622 342.517C137.804 342.334 138.023 342.243 138.278 342.243C138.534 342.243 138.75 342.334 138.928 342.517C139.11 342.694 139.201 342.911 139.201 343.166C139.201 343.421 139.11 343.64 138.928 343.822C138.75 344 138.534 344.089 138.278 344.089ZM142.312 344.089C142.056 344.089 141.838 344 141.655 343.822C141.478 343.64 141.389 343.421 141.389 343.166C141.389 342.911 141.478 342.694 141.655 342.517C141.838 342.334 142.056 342.243 142.312 342.243C142.567 342.243 142.783 342.334 142.961 342.517C143.143 342.694 143.234 342.911 143.234 343.166C143.234 343.421 143.143 343.64 142.961 343.822C142.783 344 142.567 344.089 142.312 344.089Z" fill="#2563EB"/>
</g>
</g>
<rect x="5" y="99" width="240" height="268" rx="8" stroke="#E4E4E7"/>
</g>
<defs>
<filter id="filter0_d_3945_132698" x="0.5" y="0" width="249" height="72.5" filterUnits="userSpaceOnUse" color-interpolation-filters="sRGB">
<feFlood flood-opacity="0" result="BackgroundImageFix"/>
<feColorMatrix in="SourceAlpha" type="matrix" values="0 0 0 0 0 0 0 0 0 0 0 0 0 0 0 0 0 0 127 0" result="hardAlpha"/>
<feOffset dy="1"/>
<feGaussianBlur stdDeviation="2"/>
<feComposite in2="hardAlpha" operator="out"/>
<feColorMatrix type="matrix" values="0 0 0 0 0 0 0 0 0 0 0 0 0 0 0 0 0 0 0.05 0"/>
<feBlend mode="normal" in2="BackgroundImageFix" result="effect1_dropShadow_3945_132698"/>
<feBlend mode="normal" in="SourceGraphic" in2="effect1_dropShadow_3945_132698" result="shape"/>
</filter>
<filter id="filter1_d_3945_132698" x="0.5" y="95.5" width="249" height="277" filterUnits="userSpaceOnUse" color-interpolation-filters="sRGB">
<feFlood flood-opacity="0" result="BackgroundImageFix"/>
<feColorMatrix in="SourceAlpha" type="matrix" values="0 0 0 0 0 0 0 0 0 0 0 0 0 0 0 0 0 0 127 0" result="hardAlpha"/>
<feOffset dy="1"/>
<feGaussianBlur stdDeviation="2"/>
<feComposite in2="hardAlpha" operator="out"/>
<feColorMatrix type="matrix" values="0 0 0 0 0 0 0 0 0 0 0 0 0 0 0 0 0 0 0.05 0"/>
<feBlend mode="normal" in2="BackgroundImageFix" result="effect1_dropShadow_3945_132698"/>
<feBlend mode="normal" in="SourceGraphic" in2="effect1_dropShadow_3945_132698" result="shape"/>
</filter>
<filter id="filter2_d_3945_132698" x="17" y="324" width="136" height="32" filterUnits="userSpaceOnUse" color-interpolation-filters="sRGB">
<feFlood flood-opacity="0" result="BackgroundImageFix"/>
<feColorMatrix in="SourceAlpha" type="matrix" values="0 0 0 0 0 0 0 0 0 0 0 0 0 0 0 0 0 0 127 0" result="hardAlpha"/>
<feOffset dy="1"/>
<feGaussianBlur stdDeviation="2"/>
<feComposite in2="hardAlpha" operator="out"/>
<feColorMatrix type="matrix" values="0 0 0 0 0 0 0 0 0 0 0 0 0 0 0 0 0 0 0.05 0"/>
<feBlend mode="normal" in2="BackgroundImageFix" result="effect1_dropShadow_3945_132698"/>
<feBlend mode="normal" in="SourceGraphic" in2="effect1_dropShadow_3945_132698" result="shape"/>
</filter>
<clipPath id="clip0_3945_132698">
<rect x="5" y="31" width="240" height="36" rx="4" fill="white"/>
</clipPath>
<clipPath id="clip1_3945_132698">
<rect x="5" y="99" width="240" height="268" rx="8" fill="white"/>
</clipPath>
<clipPath id="clip2_3945_132698">
<rect x="129" y="107" width="108" height="36" rx="4" fill="white"/>
</clipPath>
</defs>
</svg>
