<svg width="548" height="397" viewBox="0 0 548 397" fill="none" xmlns="http://www.w3.org/2000/svg">
<g filter="url(#filter0_dd_2616_4905)">
<path d="M18.1186 31V20.8182H21.7479C22.54 20.8182 23.1963 20.9624 23.7166 21.2507C24.237 21.5391 24.6264 21.9335 24.8849 22.4339C25.1435 22.9311 25.2727 23.4912 25.2727 24.1143C25.2727 24.7408 25.1418 25.3042 24.88 25.8047C24.6214 26.3018 24.2304 26.6963 23.7067 26.9879C23.1863 27.2763 22.5317 27.4205 21.7429 27.4205H19.2472V26.1179H21.6037C22.1042 26.1179 22.5102 26.0317 22.8217 25.8594C23.1333 25.6837 23.362 25.4451 23.5078 25.1435C23.6536 24.8419 23.7266 24.4988 23.7266 24.1143C23.7266 23.7299 23.6536 23.3885 23.5078 23.0902C23.362 22.7919 23.1316 22.5582 22.8168 22.3892C22.5052 22.2202 22.0942 22.1357 21.5838 22.1357H19.6548V31H18.1186ZM26.9544 31V23.3636H28.3912V24.5767H28.4707C28.6099 24.1657 28.8552 23.8426 29.2065 23.6072C29.5611 23.3686 29.9622 23.2493 30.4096 23.2493C30.5024 23.2493 30.6118 23.2526 30.7377 23.2592C30.867 23.2659 30.9681 23.2741 31.041 23.2841V24.706C30.9814 24.6894 30.8753 24.6712 30.7228 24.6513C30.5704 24.6281 30.4179 24.6165 30.2654 24.6165C29.9141 24.6165 29.6009 24.6911 29.3258 24.8402C29.054 24.986 28.8386 25.1899 28.6795 25.4517C28.5204 25.7102 28.4409 26.0052 28.4409 26.3366V31H26.9544ZM35.2706 31.1541C34.5547 31.1541 33.9299 30.9901 33.3963 30.6619C32.8627 30.3338 32.4484 29.8748 32.1534 29.2848C31.8584 28.6948 31.7109 28.0054 31.7109 27.2166C31.7109 26.4245 31.8584 25.7318 32.1534 25.1385C32.4484 24.5452 32.8627 24.0845 33.3963 23.7564C33.9299 23.4283 34.5547 23.2642 35.2706 23.2642C35.9865 23.2642 36.6113 23.4283 37.1449 23.7564C37.6785 24.0845 38.0928 24.5452 38.3878 25.1385C38.6828 25.7318 38.8303 26.4245 38.8303 27.2166C38.8303 28.0054 38.6828 28.6948 38.3878 29.2848C38.0928 29.8748 37.6785 30.3338 37.1449 30.6619C36.6113 30.9901 35.9865 31.1541 35.2706 31.1541ZM35.2756 29.9062C35.7396 29.9062 36.1241 29.7836 36.429 29.5384C36.7339 29.2931 36.9593 28.9666 37.1051 28.5589C37.2543 28.1513 37.3288 27.7022 37.3288 27.2116C37.3288 26.7244 37.2543 26.277 37.1051 25.8693C36.9593 25.4583 36.7339 25.1286 36.429 24.88C36.1241 24.6314 35.7396 24.5071 35.2756 24.5071C34.8082 24.5071 34.4205 24.6314 34.1122 24.88C33.8073 25.1286 33.5803 25.4583 33.4311 25.8693C33.2853 26.277 33.2124 26.7244 33.2124 27.2116C33.2124 27.7022 33.2853 28.1513 33.4311 28.5589C33.5803 28.9666 33.8073 29.2931 34.1122 29.5384C34.4205 29.7836 34.8082 29.9062 35.2756 29.9062ZM40.4895 23.3636H41.976V31.4972C41.976 32.0076 41.8832 32.4384 41.6976 32.7898C41.5153 33.1411 41.2435 33.4079 40.8823 33.5902C40.5243 33.7725 40.0819 33.8636 39.5549 33.8636C39.5018 33.8636 39.4521 33.8636 39.4057 33.8636C39.356 33.8636 39.3046 33.862 39.2516 33.8587V32.581C39.298 32.581 39.3394 32.581 39.3759 32.581C39.409 32.581 39.4471 32.581 39.4902 32.581C39.8416 32.581 40.0951 32.4865 40.2509 32.2976C40.41 32.112 40.4895 31.8419 40.4895 31.4872V23.3636ZM41.2253 22.1854C40.9668 22.1854 40.7447 22.0992 40.5591 21.9268C40.3768 21.7512 40.2857 21.5424 40.2857 21.3004C40.2857 21.0552 40.3768 20.8464 40.5591 20.674C40.7447 20.4983 40.9668 20.4105 41.2253 20.4105C41.4838 20.4105 41.7042 20.4983 41.8865 20.674C42.0721 20.8464 42.165 21.0552 42.165 21.3004C42.165 21.5424 42.0721 21.7512 41.8865 21.9268C41.7042 22.0992 41.4838 22.1854 41.2253 22.1854ZM47.267 31.1541C46.5147 31.1541 45.8667 30.9934 45.3232 30.6719C44.7829 30.3471 44.3653 29.8913 44.0703 29.3047C43.7786 28.7147 43.6328 28.0237 43.6328 27.2315C43.6328 26.4493 43.7786 25.7599 44.0703 25.1634C44.3653 24.5668 44.7763 24.1011 45.3033 23.7663C45.8336 23.4316 46.4534 23.2642 47.1626 23.2642C47.5935 23.2642 48.0111 23.3355 48.4155 23.478C48.8198 23.6205 49.1828 23.8442 49.5043 24.1491C49.8258 24.4541 50.0793 24.8501 50.2649 25.3374C50.4505 25.8213 50.5433 26.4096 50.5433 27.1023V27.6293H44.473V26.5156H49.0866C49.0866 26.1245 49.0071 25.7782 48.848 25.4766C48.6889 25.1716 48.4652 24.9313 48.1768 24.7557C47.8918 24.58 47.5571 24.4922 47.1726 24.4922C46.755 24.4922 46.3904 24.5949 46.0788 24.8004C45.7706 25.0026 45.532 25.2678 45.3629 25.5959C45.1972 25.9207 45.1143 26.2737 45.1143 26.6548V27.5249C45.1143 28.0353 45.2038 28.4695 45.3828 28.8274C45.5651 29.1854 45.8187 29.4588 46.1435 29.6477C46.4683 29.8333 46.8478 29.9261 47.282 29.9261C47.5637 29.9261 47.8205 29.8864 48.0526 29.8068C48.2846 29.724 48.4851 29.6013 48.6541 29.4389C48.8232 29.2765 48.9524 29.076 49.0419 28.8374L50.4489 29.0909C50.3362 29.5052 50.134 29.8681 49.8423 30.1797C49.554 30.4879 49.1911 30.7282 48.7536 30.9006C48.3194 31.0696 47.8239 31.1541 47.267 31.1541ZM55.4093 31.1541C54.6702 31.1541 54.0338 30.9867 53.5002 30.652C52.9699 30.3139 52.5622 29.8482 52.2772 29.255C51.9921 28.6617 51.8496 27.9822 51.8496 27.2166C51.8496 26.4411 51.9954 25.7566 52.2871 25.1634C52.5788 24.5668 52.9898 24.1011 53.5201 23.7663C54.0504 23.4316 54.6751 23.2642 55.3944 23.2642C55.9744 23.2642 56.4914 23.3719 56.9455 23.5874C57.3996 23.7995 57.7658 24.0978 58.0442 24.4822C58.3259 24.8667 58.4933 25.3158 58.5463 25.8295H57.0996C57.0201 25.4716 56.8378 25.1634 56.5527 24.9048C56.271 24.6463 55.8932 24.517 55.4192 24.517C55.0049 24.517 54.642 24.6264 54.3304 24.8452C54.0222 25.0606 53.7819 25.3688 53.6096 25.7699C53.4372 26.1676 53.351 26.6383 53.351 27.1818C53.351 27.7386 53.4355 28.2192 53.6046 28.6236C53.7736 29.0279 54.0123 29.3411 54.3205 29.5632C54.632 29.7853 54.9983 29.8963 55.4192 29.8963C55.7009 29.8963 55.9561 29.8449 56.1848 29.7422C56.4168 29.6361 56.6107 29.4853 56.7665 29.2898C56.9256 29.0942 57.0366 28.8589 57.0996 28.5838H58.5463C58.4933 29.0777 58.3326 29.5185 58.0641 29.9062C57.7956 30.294 57.436 30.599 56.9853 30.821C56.5378 31.0431 56.0125 31.1541 55.4093 31.1541ZM63.7006 23.3636V24.5568H59.5295V23.3636H63.7006ZM60.6481 21.5341H62.1346V28.7578C62.1346 29.0462 62.1777 29.2633 62.2638 29.4091C62.35 29.5516 62.4611 29.6494 62.5969 29.7024C62.7362 29.7521 62.887 29.777 63.0494 29.777C63.1687 29.777 63.2731 29.7687 63.3626 29.7521C63.4521 29.7356 63.5217 29.7223 63.5714 29.7124L63.8398 30.9403C63.7537 30.9735 63.631 31.0066 63.4719 31.0398C63.3129 31.0762 63.114 31.0961 62.8754 31.0994C62.4843 31.1061 62.1197 31.0365 61.7816 30.8906C61.4435 30.7448 61.1701 30.5194 60.9613 30.2145C60.7525 29.9096 60.6481 29.5268 60.6481 29.0661V21.5341ZM70.5366 26.4659V31H69.0501V23.3636H70.4769V24.6065H70.5714C70.747 24.2022 71.0221 23.8774 71.3967 23.6321C71.7745 23.3868 72.2501 23.2642 72.8235 23.2642C73.3439 23.2642 73.7996 23.3736 74.1907 23.5923C74.5818 23.8078 74.8851 24.1293 75.1005 24.5568C75.3159 24.9844 75.4237 25.513 75.4237 26.1428V31H73.9371V26.3217C73.9371 25.7682 73.793 25.3357 73.5046 25.0241C73.2163 24.7093 72.8202 24.5518 72.3164 24.5518C71.9717 24.5518 71.6651 24.6264 71.3967 24.7756C71.1315 24.9247 70.921 25.1435 70.7653 25.4318C70.6128 25.7169 70.5366 26.0616 70.5366 26.4659ZM79.6396 31.169C79.1557 31.169 78.7182 31.0795 78.3271 30.9006C77.936 30.7183 77.6261 30.4548 77.3974 30.1101C77.172 29.7654 77.0593 29.3428 77.0593 28.8423C77.0593 28.4115 77.1422 28.0568 77.3079 27.7784C77.4736 27.5 77.6973 27.2796 77.979 27.1172C78.2608 26.9548 78.5756 26.8321 78.9237 26.7493C79.2717 26.6664 79.6263 26.6035 79.9876 26.5604C80.445 26.5073 80.8162 26.4643 81.1012 26.4311C81.3862 26.3946 81.5934 26.3366 81.7227 26.2571C81.8519 26.1776 81.9165 26.0483 81.9165 25.8693V25.8345C81.9165 25.4003 81.7939 25.0639 81.5487 24.8253C81.3067 24.5866 80.9454 24.4673 80.4648 24.4673C79.9644 24.4673 79.57 24.5784 79.2816 24.8004C78.9966 25.0192 78.7994 25.2628 78.69 25.5312L77.293 25.2131C77.4587 24.7491 77.7006 24.3745 78.0188 24.0895C78.3403 23.8011 78.7099 23.5923 79.1275 23.4631C79.5451 23.3305 79.9843 23.2642 80.445 23.2642C80.7499 23.2642 81.073 23.3007 81.4144 23.3736C81.7591 23.4432 82.0806 23.5724 82.3789 23.7614C82.6805 23.9503 82.9274 24.2204 83.1197 24.5717C83.3119 24.9197 83.408 25.3722 83.408 25.929V31H81.9563V29.956H81.8967C81.8005 30.1482 81.6564 30.3371 81.4641 30.5227C81.2719 30.7083 81.025 30.8625 80.7234 30.9851C80.4218 31.1077 80.0605 31.169 79.6396 31.169ZM79.9627 29.9759C80.3737 29.9759 80.725 29.8946 81.0167 29.7322C81.3117 29.5698 81.5354 29.3577 81.6879 29.0959C81.8436 28.8307 81.9215 28.5473 81.9215 28.2457V27.2614C81.8685 27.3144 81.7657 27.3641 81.6133 27.4105C81.4641 27.4536 81.2934 27.4917 81.1012 27.5249C80.909 27.5547 80.7217 27.5829 80.5394 27.6094C80.3571 27.6326 80.2047 27.6525 80.082 27.669C79.7937 27.7055 79.5302 27.7668 79.2915 27.853C79.0562 27.9392 78.8673 28.0634 78.7248 28.2259C78.5856 28.3849 78.516 28.5971 78.516 28.8622C78.516 29.2301 78.6519 29.5085 78.9237 29.6974C79.1954 29.883 79.5418 29.9759 79.9627 29.9759ZM85.388 31V23.3636H86.8148V24.6065H86.9093C87.0684 24.1856 87.3285 23.8575 87.6898 23.6222C88.0511 23.3835 88.4836 23.2642 88.9874 23.2642C89.4978 23.2642 89.9254 23.3835 90.2701 23.6222C90.6181 23.8608 90.8749 24.1889 91.0407 24.6065H91.1202C91.3025 24.1989 91.5925 23.8741 91.9902 23.6321C92.388 23.3868 92.8619 23.2642 93.4121 23.2642C94.1048 23.2642 94.6699 23.4813 95.1074 23.9155C95.5482 24.3497 95.7686 25.0043 95.7686 25.8793V31H94.2821V26.0185C94.2821 25.5014 94.1413 25.1269 93.8596 24.8949C93.5778 24.6629 93.2414 24.5469 92.8503 24.5469C92.3664 24.5469 91.9902 24.696 91.7218 24.9943C91.4533 25.2893 91.3191 25.6688 91.3191 26.1328V31H89.8375V25.924C89.8375 25.5097 89.7083 25.1766 89.4498 24.9247C89.1912 24.6728 88.8548 24.5469 88.4405 24.5469C88.1588 24.5469 87.8986 24.6214 87.66 24.7706C87.4247 24.9164 87.2341 25.1203 87.0882 25.3821C86.9457 25.6439 86.8745 25.9472 86.8745 26.2919V31H85.388ZM101.052 31.1541C100.3 31.1541 99.6519 30.9934 99.1083 30.6719C98.5681 30.3471 98.1504 29.8913 97.8555 29.3047C97.5638 28.7147 97.418 28.0237 97.418 27.2315C97.418 26.4493 97.5638 25.7599 97.8555 25.1634C98.1504 24.5668 98.5614 24.1011 99.0884 23.7663C99.6187 23.4316 100.239 23.2642 100.948 23.2642C101.379 23.2642 101.796 23.3355 102.201 23.478C102.605 23.6205 102.968 23.8442 103.289 24.1491C103.611 24.4541 103.864 24.8501 104.05 25.3374C104.236 25.8213 104.328 26.4096 104.328 27.1023V27.6293H98.2582V26.5156H102.872C102.872 26.1245 102.792 25.7782 102.633 25.4766C102.474 25.1716 102.25 24.9313 101.962 24.7557C101.677 24.58 101.342 24.4922 100.958 24.4922C100.54 24.4922 100.176 24.5949 99.864 24.8004C99.5558 25.0026 99.3171 25.2678 99.1481 25.5959C98.9824 25.9207 98.8995 26.2737 98.8995 26.6548V27.5249C98.8995 28.0353 98.989 28.4695 99.168 28.8274C99.3503 29.1854 99.6038 29.4588 99.9286 29.6477C100.253 29.8333 100.633 29.9261 101.067 29.9261C101.349 29.9261 101.606 29.8864 101.838 29.8068C102.07 29.724 102.27 29.6013 102.439 29.4389C102.608 29.2765 102.738 29.076 102.827 28.8374L104.234 29.0909C104.121 29.5052 103.919 29.8681 103.627 30.1797C103.339 30.4879 102.976 30.7282 102.539 30.9006C102.105 31.0696 101.609 31.1541 101.052 31.1541Z" fill="#111827"/>
<g clip-path="url(#clip0_2616_4905)">
<rect x="17" y="42" width="514" height="36" rx="4" fill="white"/>
</g>
<rect x="17" y="42" width="514" height="36" rx="4" stroke="#E4E4E7"/>
<g filter="url(#filter1_d_2616_4905)">
<g clip-path="url(#clip1_2616_4905)">
<rect x="17" y="110" width="514" height="268" rx="8" fill="white"/>
<rect width="514" height="52" transform="translate(17 110)" fill="#FAFAFA"/>
<path d="M44.108 134.29H41.983C41.9223 133.941 41.8106 133.633 41.6477 133.364C41.4848 133.091 41.2822 132.86 41.0398 132.67C40.7973 132.481 40.5208 132.339 40.2102 132.244C39.9034 132.146 39.572 132.097 39.2159 132.097C38.5833 132.097 38.0227 132.256 37.5341 132.574C37.0455 132.888 36.6629 133.35 36.3864 133.96C36.1098 134.566 35.9716 135.307 35.9716 136.182C35.9716 137.072 36.1098 137.822 36.3864 138.432C36.6667 139.038 37.0492 139.496 37.5341 139.807C38.0227 140.114 38.5814 140.267 39.2102 140.267C39.5587 140.267 39.8845 140.222 40.1875 140.131C40.4943 140.036 40.7689 139.898 41.0114 139.716C41.2576 139.534 41.464 139.311 41.6307 139.045C41.8011 138.78 41.9186 138.477 41.983 138.136L44.108 138.148C44.0284 138.701 43.8561 139.22 43.5909 139.705C43.3295 140.189 42.9867 140.617 42.5625 140.989C42.1383 141.356 41.642 141.644 41.0739 141.852C40.5057 142.057 39.875 142.159 39.1818 142.159C38.1591 142.159 37.2462 141.922 36.4432 141.449C35.6402 140.975 35.0076 140.292 34.5455 139.398C34.0833 138.504 33.8523 137.432 33.8523 136.182C33.8523 134.928 34.0852 133.856 34.5511 132.966C35.017 132.072 35.6515 131.388 36.4545 130.915C37.2576 130.441 38.1667 130.205 39.1818 130.205C39.8295 130.205 40.4318 130.295 40.9886 130.477C41.5455 130.659 42.0417 130.926 42.4773 131.278C42.9129 131.627 43.2708 132.055 43.5511 132.562C43.8352 133.066 44.0208 133.642 44.108 134.29ZM48.0043 130.364V142H45.9474V130.364H48.0043ZM55.6818 138.33V133.273H57.7386V142H55.7443V140.449H55.6534C55.4564 140.937 55.1326 141.337 54.6818 141.648C54.2348 141.958 53.6837 142.114 53.0284 142.114C52.4564 142.114 51.9508 141.987 51.5114 141.733C51.0758 141.475 50.7348 141.102 50.4886 140.614C50.2424 140.121 50.1193 139.527 50.1193 138.83V133.273H52.1761V138.511C52.1761 139.064 52.3277 139.504 52.6307 139.83C52.9337 140.155 53.3314 140.318 53.8239 140.318C54.1269 140.318 54.4205 140.244 54.7045 140.097C54.9886 139.949 55.2216 139.729 55.4034 139.438C55.589 139.142 55.6818 138.773 55.6818 138.33ZM66.7514 135.58L64.8764 135.784C64.8234 135.595 64.7306 135.417 64.598 135.25C64.4692 135.083 64.295 134.949 64.0753 134.847C63.8556 134.744 63.5866 134.693 63.2685 134.693C62.8404 134.693 62.4806 134.786 62.1889 134.972C61.901 135.157 61.759 135.398 61.7628 135.693C61.759 135.947 61.8518 136.153 62.0412 136.312C62.2344 136.472 62.5526 136.602 62.9957 136.705L64.4844 137.023C65.3101 137.201 65.9238 137.483 66.3253 137.869C66.7306 138.256 66.9351 138.761 66.9389 139.386C66.9351 139.936 66.7741 140.42 66.456 140.841C66.1416 141.258 65.7041 141.583 65.1435 141.818C64.5829 142.053 63.9389 142.17 63.2116 142.17C62.1435 142.17 61.2836 141.947 60.6321 141.5C59.9806 141.049 59.5923 140.422 59.4673 139.619L61.473 139.426C61.5639 139.82 61.7571 140.117 62.0526 140.318C62.348 140.519 62.7325 140.619 63.206 140.619C63.6946 140.619 64.0866 140.519 64.3821 140.318C64.6813 140.117 64.831 139.869 64.831 139.574C64.831 139.324 64.7344 139.117 64.5412 138.955C64.3518 138.792 64.0563 138.667 63.6548 138.58L62.1662 138.267C61.3291 138.093 60.7098 137.799 60.3082 137.386C59.9067 136.97 59.7079 136.443 59.7116 135.807C59.7079 135.269 59.8537 134.803 60.1491 134.409C60.4484 134.011 60.8632 133.705 61.3935 133.489C61.9276 133.269 62.5431 133.159 63.2401 133.159C64.2628 133.159 65.0677 133.377 65.6548 133.812C66.2457 134.248 66.6113 134.837 66.7514 135.58ZM72.9929 133.273V134.864H67.9759V133.273H72.9929ZM69.2145 131.182H71.2713V139.375C71.2713 139.652 71.313 139.864 71.3963 140.011C71.4834 140.155 71.5971 140.254 71.7372 140.307C71.8774 140.36 72.0327 140.386 72.2031 140.386C72.3319 140.386 72.4493 140.377 72.5554 140.358C72.6652 140.339 72.7486 140.322 72.8054 140.307L73.152 141.915C73.0421 141.953 72.8849 141.994 72.6804 142.04C72.4796 142.085 72.2334 142.112 71.9418 142.119C71.4266 142.134 70.9626 142.057 70.5497 141.886C70.1368 141.712 69.8092 141.443 69.5668 141.08C69.3281 140.716 69.2107 140.261 69.2145 139.716V131.182ZM78.483 142.17C77.608 142.17 76.8523 141.989 76.2159 141.625C75.5833 141.258 75.0966 140.739 74.7557 140.068C74.4148 139.394 74.2443 138.6 74.2443 137.688C74.2443 136.79 74.4148 136.002 74.7557 135.324C75.1004 134.642 75.5814 134.112 76.1989 133.733C76.8163 133.35 77.5417 133.159 78.375 133.159C78.9129 133.159 79.4205 133.246 79.8977 133.42C80.3788 133.591 80.803 133.856 81.1705 134.216C81.5417 134.576 81.8333 135.034 82.0455 135.591C82.2576 136.144 82.3636 136.803 82.3636 137.568V138.199H75.2102V136.812H80.392C80.3883 136.419 80.303 136.068 80.1364 135.761C79.9697 135.451 79.7367 135.206 79.4375 135.028C79.142 134.85 78.7973 134.761 78.4034 134.761C77.983 134.761 77.6136 134.864 77.2955 135.068C76.9773 135.269 76.7292 135.534 76.5511 135.864C76.3769 136.189 76.2879 136.547 76.2841 136.938V138.148C76.2841 138.655 76.3769 139.091 76.5625 139.455C76.7481 139.814 77.0076 140.091 77.3409 140.284C77.6742 140.473 78.0644 140.568 78.5114 140.568C78.8106 140.568 79.0814 140.527 79.3239 140.443C79.5663 140.356 79.7765 140.229 79.9545 140.062C80.1326 139.896 80.267 139.689 80.358 139.443L82.2784 139.659C82.1572 140.167 81.9261 140.61 81.5852 140.989C81.2481 141.364 80.8163 141.655 80.2898 141.864C79.7633 142.068 79.161 142.17 78.483 142.17ZM84.1037 142V133.273H86.098V134.727H86.1889C86.348 134.223 86.6207 133.835 87.0071 133.562C87.3973 133.286 87.8423 133.148 88.3423 133.148C88.456 133.148 88.5829 133.153 88.723 133.165C88.867 133.172 88.9863 133.186 89.081 133.205V135.097C88.9938 135.066 88.8556 135.04 88.6662 135.017C88.4806 134.991 88.3007 134.977 88.1264 134.977C87.7514 134.977 87.4143 135.059 87.1151 135.222C86.8196 135.381 86.5866 135.602 86.4162 135.886C86.2457 136.17 86.1605 136.498 86.1605 136.869V142H84.1037ZM97.3452 135.58L95.4702 135.784C95.4171 135.595 95.3243 135.417 95.1918 135.25C95.063 135.083 94.8887 134.949 94.669 134.847C94.4493 134.744 94.1804 134.693 93.8622 134.693C93.4342 134.693 93.0743 134.786 92.7827 134.972C92.4948 135.157 92.3527 135.398 92.3565 135.693C92.3527 135.947 92.4455 136.153 92.6349 136.312C92.8281 136.472 93.1463 136.602 93.5895 136.705L95.0781 137.023C95.9039 137.201 96.5175 137.483 96.919 137.869C97.3243 138.256 97.5289 138.761 97.5327 139.386C97.5289 139.936 97.3679 140.42 97.0497 140.841C96.7353 141.258 96.2978 141.583 95.7372 141.818C95.1766 142.053 94.5327 142.17 93.8054 142.17C92.7372 142.17 91.8774 141.947 91.2259 141.5C90.5743 141.049 90.1861 140.422 90.0611 139.619L92.0668 139.426C92.1577 139.82 92.3509 140.117 92.6463 140.318C92.9418 140.519 93.3262 140.619 93.7997 140.619C94.2884 140.619 94.6804 140.519 94.9759 140.318C95.2751 140.117 95.4247 139.869 95.4247 139.574C95.4247 139.324 95.3281 139.117 95.1349 138.955C94.9455 138.792 94.6501 138.667 94.2486 138.58L92.7599 138.267C91.9228 138.093 91.3035 137.799 90.902 137.386C90.5005 136.97 90.3016 136.443 90.3054 135.807C90.3016 135.269 90.4474 134.803 90.7429 134.409C91.0421 134.011 91.4569 133.705 91.9872 133.489C92.5213 133.269 93.1368 133.159 93.8338 133.159C94.8565 133.159 95.6615 133.377 96.2486 133.812C96.8395 134.248 97.205 134.837 97.3452 135.58Z" fill="#111827"/>
<g clip-path="url(#clip2_2616_4905)">
<rect x="273" y="118" width="250" height="36" rx="4" fill="white"/>
<path d="M290.146 141.791C293.816 141.791 296.792 138.816 296.792 135.146C296.792 131.475 293.816 128.5 290.146 128.5C286.475 128.5 283.5 131.475 283.5 135.146C283.5 138.816 286.475 141.791 290.146 141.791Z" stroke="#111827" stroke-linecap="round" stroke-linejoin="round"/>
<path d="M294.845 139.845L298.5 143.5" stroke="#111827" stroke-linecap="round" stroke-linejoin="round"/>
<path d="M319.801 133.364C319.741 132.86 319.5 132.469 319.075 132.19C318.651 131.912 318.131 131.773 317.514 131.773C317.063 131.773 316.669 131.846 316.331 131.991C315.996 132.137 315.734 132.338 315.545 132.593C315.36 132.848 315.267 133.138 315.267 133.463C315.267 133.735 315.332 133.969 315.461 134.164C315.594 134.356 315.763 134.517 315.968 134.646C316.174 134.772 316.389 134.877 316.614 134.96C316.84 135.039 317.047 135.104 317.236 135.153L318.27 135.432C318.535 135.501 318.83 135.598 319.155 135.72C319.483 135.843 319.796 136.01 320.094 136.222C320.396 136.431 320.645 136.7 320.84 137.028C321.036 137.356 321.134 137.759 321.134 138.236C321.134 138.786 320.989 139.283 320.701 139.727C320.416 140.171 319.998 140.524 319.448 140.786C318.901 141.048 318.237 141.179 317.455 141.179C316.725 141.179 316.094 141.061 315.56 140.826C315.03 140.591 314.612 140.263 314.308 139.842C314.006 139.421 313.835 138.932 313.795 138.375H315.068C315.101 138.759 315.231 139.078 315.456 139.33C315.685 139.578 315.973 139.764 316.321 139.886C316.672 140.006 317.05 140.065 317.455 140.065C317.925 140.065 318.348 139.989 318.722 139.837C319.097 139.681 319.393 139.465 319.612 139.19C319.831 138.912 319.94 138.587 319.94 138.216C319.94 137.878 319.846 137.603 319.657 137.391C319.468 137.179 319.219 137.006 318.911 136.874C318.603 136.741 318.27 136.625 317.912 136.526L316.659 136.168C315.864 135.939 315.234 135.612 314.77 135.188C314.306 134.764 314.074 134.209 314.074 133.523C314.074 132.953 314.228 132.455 314.536 132.031C314.848 131.604 315.265 131.272 315.789 131.037C316.316 130.798 316.904 130.679 317.554 130.679C318.21 130.679 318.794 130.797 319.304 131.032C319.814 131.264 320.219 131.582 320.517 131.987C320.819 132.391 320.978 132.85 320.994 133.364H319.801ZM326.203 141.159C325.468 141.159 324.833 140.997 324.299 140.672C323.769 140.344 323.36 139.886 323.071 139.3C322.786 138.71 322.644 138.024 322.644 137.241C322.644 136.459 322.786 135.77 323.071 135.173C323.36 134.573 323.761 134.106 324.274 133.771C324.791 133.433 325.395 133.264 326.084 133.264C326.482 133.264 326.874 133.33 327.262 133.463C327.65 133.596 328.003 133.811 328.321 134.109C328.639 134.404 328.893 134.795 329.082 135.283C329.271 135.77 329.365 136.37 329.365 137.082V137.58H323.479V136.565H328.172C328.172 136.134 328.086 135.75 327.914 135.412C327.744 135.074 327.503 134.807 327.188 134.612C326.876 134.416 326.508 134.318 326.084 134.318C325.617 134.318 325.212 134.434 324.871 134.666C324.533 134.895 324.273 135.193 324.09 135.561C323.908 135.929 323.817 136.323 323.817 136.744V137.42C323.817 137.997 323.916 138.486 324.115 138.887C324.317 139.285 324.597 139.588 324.955 139.797C325.313 140.002 325.729 140.105 326.203 140.105C326.512 140.105 326.79 140.062 327.039 139.976C327.29 139.886 327.508 139.754 327.69 139.578C327.872 139.399 328.013 139.177 328.112 138.912L329.246 139.23C329.127 139.615 328.926 139.953 328.644 140.244C328.363 140.533 328.015 140.758 327.6 140.92C327.186 141.08 326.72 141.159 326.203 141.159ZM333.397 141.179C332.913 141.179 332.474 141.088 332.08 140.906C331.685 140.72 331.372 140.453 331.14 140.105C330.908 139.754 330.792 139.33 330.792 138.832C330.792 138.395 330.878 138.04 331.051 137.768C331.223 137.493 331.453 137.278 331.742 137.122C332.03 136.966 332.348 136.85 332.696 136.774C333.048 136.695 333.401 136.632 333.755 136.585C334.219 136.526 334.595 136.481 334.884 136.451C335.175 136.418 335.387 136.363 335.52 136.287C335.656 136.211 335.724 136.078 335.724 135.889V135.849C335.724 135.359 335.59 134.978 335.321 134.706C335.056 134.434 334.653 134.298 334.113 134.298C333.553 134.298 333.114 134.421 332.796 134.666C332.477 134.911 332.254 135.173 332.124 135.452L331.011 135.054C331.21 134.59 331.475 134.229 331.806 133.97C332.141 133.708 332.506 133.526 332.9 133.423C333.298 133.317 333.689 133.264 334.073 133.264C334.319 133.264 334.6 133.294 334.919 133.354C335.24 133.41 335.55 133.528 335.848 133.707C336.15 133.886 336.4 134.156 336.599 134.517C336.798 134.878 336.897 135.362 336.897 135.969V141H335.724V139.966H335.664C335.585 140.132 335.452 140.309 335.267 140.498C335.081 140.687 334.834 140.848 334.526 140.98C334.218 141.113 333.841 141.179 333.397 141.179ZM333.576 140.125C334.04 140.125 334.431 140.034 334.749 139.852C335.071 139.669 335.313 139.434 335.475 139.146C335.641 138.857 335.724 138.554 335.724 138.236V137.162C335.674 137.222 335.565 137.276 335.396 137.326C335.23 137.372 335.038 137.414 334.819 137.45C334.604 137.483 334.393 137.513 334.188 137.54C333.985 137.563 333.821 137.583 333.695 137.599C333.391 137.639 333.106 137.704 332.84 137.793C332.579 137.879 332.366 138.01 332.204 138.186C332.045 138.358 331.965 138.594 331.965 138.892C331.965 139.3 332.116 139.608 332.418 139.817C332.723 140.022 333.109 140.125 333.576 140.125ZM339.039 141V133.364H340.172V134.517H340.252C340.391 134.139 340.643 133.833 341.007 133.597C341.372 133.362 341.783 133.244 342.24 133.244C342.327 133.244 342.434 133.246 342.564 133.249C342.693 133.253 342.791 133.258 342.857 133.264V134.457C342.817 134.447 342.726 134.433 342.583 134.413C342.444 134.389 342.297 134.378 342.141 134.378C341.77 134.378 341.438 134.456 341.147 134.612C340.858 134.764 340.63 134.976 340.461 135.248C340.295 135.516 340.212 135.823 340.212 136.168V141H339.039ZM347.118 141.159C346.402 141.159 345.785 140.99 345.268 140.652C344.751 140.314 344.353 139.848 344.075 139.255C343.797 138.662 343.657 137.984 343.657 137.222C343.657 136.446 343.8 135.762 344.085 135.168C344.373 134.572 344.774 134.106 345.288 133.771C345.805 133.433 346.408 133.264 347.098 133.264C347.635 133.264 348.118 133.364 348.549 133.562C348.98 133.761 349.333 134.04 349.608 134.398C349.883 134.756 350.054 135.173 350.12 135.651H348.947C348.858 135.303 348.659 134.994 348.35 134.726C348.046 134.454 347.635 134.318 347.118 134.318C346.66 134.318 346.259 134.437 345.914 134.676C345.573 134.911 345.306 135.245 345.114 135.675C344.925 136.103 344.831 136.605 344.831 137.182C344.831 137.772 344.923 138.286 345.109 138.723C345.298 139.161 345.563 139.5 345.904 139.742C346.249 139.984 346.654 140.105 347.118 140.105C347.422 140.105 347.699 140.052 347.948 139.946C348.196 139.84 348.407 139.688 348.579 139.489C348.752 139.29 348.874 139.051 348.947 138.773H350.12C350.054 139.223 349.89 139.629 349.628 139.991C349.37 140.349 349.027 140.634 348.599 140.846C348.175 141.055 347.681 141.159 347.118 141.159ZM353.009 136.406V141H351.836V130.818H353.009V134.557H353.108C353.287 134.162 353.556 133.849 353.914 133.617C354.275 133.382 354.756 133.264 355.355 133.264C355.876 133.264 356.332 133.369 356.723 133.577C357.114 133.783 357.417 134.099 357.632 134.527C357.851 134.951 357.961 135.491 357.961 136.148V141H356.787V136.227C356.787 135.621 356.63 135.152 356.315 134.82C356.003 134.486 355.571 134.318 355.017 134.318C354.633 134.318 354.288 134.399 353.983 134.562C353.682 134.724 353.443 134.961 353.267 135.273C353.095 135.584 353.009 135.962 353.009 136.406Z" fill="#9CA3AF"/>
</g>
<rect x="273" y="118" width="250" height="36" rx="4" stroke="#E4E4E7"/>
<path d="M45 199C49.9706 199 54 194.971 54 190C54 185.029 49.9706 181 45 181C40.0294 181 36 185.029 36 190C36 194.971 40.0294 199 45 199Z" stroke="#111827" stroke-miterlimit="10" stroke-linecap="round" stroke-dasharray="4 4"/>
<path d="M66.1477 196V184.364H70.5114C71.4053 184.364 72.1553 184.53 72.7614 184.864C73.3712 185.197 73.8314 185.655 74.142 186.239C74.4564 186.818 74.6136 187.477 74.6136 188.216C74.6136 188.962 74.4564 189.625 74.142 190.205C73.8277 190.784 73.3636 191.241 72.75 191.574C72.1364 191.903 71.3807 192.068 70.483 192.068H67.5909V190.335H70.1989C70.7216 190.335 71.1496 190.244 71.483 190.062C71.8163 189.881 72.0625 189.631 72.2216 189.312C72.3845 188.994 72.4659 188.629 72.4659 188.216C72.4659 187.803 72.3845 187.439 72.2216 187.125C72.0625 186.811 71.8144 186.566 71.4773 186.392C71.1439 186.214 70.714 186.125 70.1875 186.125H68.2557V196H66.1477ZM78.4105 184.364V196H76.3537V184.364H78.4105ZM83.0369 196.176C82.4839 196.176 81.9858 196.078 81.5426 195.881C81.1032 195.68 80.7547 195.384 80.4972 194.994C80.2434 194.604 80.1165 194.123 80.1165 193.551C80.1165 193.059 80.2074 192.652 80.3892 192.33C80.571 192.008 80.8191 191.75 81.1335 191.557C81.4479 191.364 81.8021 191.218 82.196 191.119C82.5938 191.017 83.0047 190.943 83.429 190.898C83.9403 190.845 84.3551 190.797 84.6733 190.756C84.9915 190.71 85.2225 190.642 85.3665 190.551C85.5142 190.456 85.5881 190.311 85.5881 190.114V190.08C85.5881 189.652 85.4612 189.32 85.2074 189.085C84.9536 188.85 84.5881 188.733 84.1108 188.733C83.607 188.733 83.2074 188.843 82.9119 189.062C82.6203 189.282 82.4233 189.542 82.321 189.841L80.4006 189.568C80.5521 189.038 80.8021 188.595 81.1506 188.239C81.4991 187.879 81.9252 187.61 82.429 187.432C82.9328 187.25 83.4896 187.159 84.0994 187.159C84.5199 187.159 84.9384 187.208 85.3551 187.307C85.7718 187.405 86.1525 187.568 86.4972 187.795C86.8419 188.019 87.1184 188.324 87.3267 188.71C87.5388 189.097 87.6449 189.58 87.6449 190.159V196H85.6676V194.801H85.5994C85.4744 195.044 85.2983 195.271 85.071 195.483C84.8475 195.691 84.5653 195.86 84.2244 195.989C83.8873 196.114 83.4915 196.176 83.0369 196.176ZM83.571 194.665C83.9839 194.665 84.3419 194.583 84.6449 194.42C84.9479 194.254 85.1809 194.034 85.3438 193.761C85.5104 193.489 85.5938 193.191 85.5938 192.869V191.841C85.5294 191.894 85.4195 191.943 85.2642 191.989C85.1127 192.034 84.9422 192.074 84.7528 192.108C84.5634 192.142 84.3759 192.172 84.1903 192.199C84.0047 192.225 83.8438 192.248 83.7074 192.267C83.4006 192.309 83.1259 192.377 82.8835 192.472C82.6411 192.566 82.4498 192.699 82.3097 192.869C82.1695 193.036 82.0994 193.252 82.0994 193.517C82.0994 193.896 82.2377 194.182 82.5142 194.375C82.7907 194.568 83.143 194.665 83.571 194.665ZM91.3949 187.273L93.1562 190.494L94.946 187.273H97.1222L94.4915 191.636L97.1676 196H95.0028L93.1562 192.858L91.3267 196H89.1449L91.804 191.636L89.2131 187.273H91.3949ZM102.192 196.17C101.339 196.17 100.601 195.983 99.9759 195.608C99.3509 195.233 98.866 194.708 98.5213 194.034C98.1804 193.36 98.0099 192.572 98.0099 191.67C98.0099 190.769 98.1804 189.979 98.5213 189.301C98.866 188.623 99.3509 188.097 99.9759 187.722C100.601 187.347 101.339 187.159 102.192 187.159C103.044 187.159 103.783 187.347 104.408 187.722C105.033 188.097 105.516 188.623 105.857 189.301C106.201 189.979 106.374 190.769 106.374 191.67C106.374 192.572 106.201 193.36 105.857 194.034C105.516 194.708 105.033 195.233 104.408 195.608C103.783 195.983 103.044 196.17 102.192 196.17ZM102.203 194.523C102.665 194.523 103.052 194.396 103.362 194.142C103.673 193.884 103.904 193.54 104.055 193.108C104.211 192.676 104.288 192.195 104.288 191.665C104.288 191.131 104.211 190.648 104.055 190.216C103.904 189.78 103.673 189.434 103.362 189.176C103.052 188.919 102.665 188.79 102.203 188.79C101.73 188.79 101.336 188.919 101.021 189.176C100.711 189.434 100.478 189.78 100.322 190.216C100.171 190.648 100.095 191.131 100.095 191.665C100.095 192.195 100.171 192.676 100.322 193.108C100.478 193.54 100.711 193.884 101.021 194.142C101.336 194.396 101.73 194.523 102.203 194.523ZM110.176 190.886V196H108.119V187.273H110.085V188.756H110.188C110.388 188.267 110.708 187.879 111.148 187.591C111.591 187.303 112.138 187.159 112.79 187.159C113.392 187.159 113.917 187.288 114.364 187.545C114.814 187.803 115.163 188.176 115.409 188.665C115.659 189.153 115.782 189.746 115.778 190.443V196H113.722V190.761C113.722 190.178 113.57 189.722 113.267 189.392C112.968 189.062 112.553 188.898 112.023 188.898C111.663 188.898 111.343 188.977 111.062 189.136C110.786 189.292 110.568 189.517 110.409 189.812C110.254 190.108 110.176 190.466 110.176 190.886ZM117.869 196V187.273H119.926V196H117.869ZM118.903 186.034C118.578 186.034 118.297 185.926 118.062 185.71C117.828 185.491 117.71 185.227 117.71 184.92C117.71 184.61 117.828 184.347 118.062 184.131C118.297 183.911 118.578 183.801 118.903 183.801C119.233 183.801 119.513 183.911 119.744 184.131C119.979 184.347 120.097 184.61 120.097 184.92C120.097 185.227 119.979 185.491 119.744 185.71C119.513 185.926 119.233 186.034 118.903 186.034ZM125.848 196.17C124.977 196.17 124.229 195.979 123.604 195.597C122.982 195.214 122.503 194.686 122.166 194.011C121.833 193.333 121.666 192.553 121.666 191.67C121.666 190.784 121.837 190.002 122.178 189.324C122.518 188.642 123 188.112 123.621 187.733C124.246 187.35 124.984 187.159 125.837 187.159C126.545 187.159 127.172 187.29 127.717 187.551C128.267 187.809 128.704 188.174 129.03 188.648C129.356 189.117 129.541 189.667 129.587 190.295H127.621C127.541 189.875 127.352 189.525 127.053 189.244C126.757 188.96 126.361 188.818 125.865 188.818C125.445 188.818 125.075 188.932 124.757 189.159C124.439 189.383 124.191 189.705 124.013 190.125C123.839 190.545 123.751 191.049 123.751 191.636C123.751 192.231 123.839 192.742 124.013 193.17C124.187 193.595 124.431 193.922 124.746 194.153C125.064 194.381 125.437 194.494 125.865 194.494C126.168 194.494 126.439 194.437 126.678 194.324C126.92 194.206 127.123 194.038 127.286 193.818C127.448 193.598 127.56 193.331 127.621 193.017H129.587C129.537 193.634 129.356 194.182 129.041 194.659C128.727 195.133 128.299 195.504 127.757 195.773C127.215 196.038 126.579 196.17 125.848 196.17Z" fill="#111827"/>
<path d="M140.929 195.08C140.684 195.08 140.473 194.992 140.298 194.816C140.122 194.64 140.034 194.43 140.034 194.185C140.034 193.939 140.122 193.729 140.298 193.553C140.473 193.378 140.684 193.29 140.929 193.29C141.174 193.29 141.385 193.378 141.56 193.553C141.736 193.729 141.824 193.939 141.824 194.185C141.824 194.347 141.782 194.496 141.7 194.632C141.62 194.768 141.512 194.877 141.376 194.96C141.244 195.04 141.095 195.08 140.929 195.08ZM148.444 195H147.151L150.89 184.818H152.162L155.901 195H154.608L151.566 186.429H151.486L148.444 195ZM148.921 191.023H154.131V192.116H148.921V191.023ZM158.543 195L155.759 184.818H157.012L159.14 193.111H159.239L161.407 184.818H162.799L164.967 193.111H165.066L167.194 184.818H168.447L165.663 195H164.39L162.143 186.886H162.063L159.816 195H158.543ZM175.551 187.364C175.491 186.86 175.25 186.469 174.825 186.19C174.401 185.912 173.881 185.773 173.264 185.773C172.813 185.773 172.419 185.846 172.081 185.991C171.746 186.137 171.484 186.338 171.295 186.593C171.11 186.848 171.017 187.138 171.017 187.463C171.017 187.735 171.082 187.969 171.211 188.164C171.344 188.356 171.513 188.517 171.718 188.646C171.924 188.772 172.139 188.877 172.364 188.96C172.59 189.039 172.797 189.104 172.986 189.153L174.02 189.432C174.285 189.501 174.58 189.598 174.905 189.72C175.233 189.843 175.546 190.01 175.844 190.222C176.146 190.431 176.395 190.7 176.59 191.028C176.786 191.356 176.884 191.759 176.884 192.236C176.884 192.786 176.739 193.283 176.451 193.727C176.166 194.171 175.748 194.524 175.198 194.786C174.651 195.048 173.987 195.179 173.205 195.179C172.475 195.179 171.844 195.061 171.31 194.826C170.78 194.591 170.362 194.263 170.058 193.842C169.756 193.421 169.585 192.932 169.545 192.375H170.818C170.851 192.759 170.981 193.078 171.206 193.33C171.435 193.578 171.723 193.764 172.071 193.886C172.422 194.006 172.8 194.065 173.205 194.065C173.675 194.065 174.098 193.989 174.472 193.837C174.847 193.681 175.143 193.465 175.362 193.19C175.581 192.912 175.69 192.587 175.69 192.216C175.69 191.878 175.596 191.603 175.407 191.391C175.218 191.179 174.969 191.006 174.661 190.874C174.353 190.741 174.02 190.625 173.662 190.526L172.409 190.168C171.614 189.939 170.984 189.612 170.52 189.188C170.056 188.764 169.824 188.209 169.824 187.523C169.824 186.953 169.978 186.455 170.286 186.031C170.598 185.604 171.015 185.272 171.539 185.037C172.066 184.798 172.654 184.679 173.304 184.679C173.96 184.679 174.544 184.797 175.054 185.032C175.564 185.264 175.969 185.582 176.267 185.987C176.569 186.391 176.728 186.85 176.744 187.364H175.551ZM180.502 193.608L180.422 194.145C180.366 194.523 180.28 194.927 180.164 195.358C180.051 195.789 179.933 196.195 179.811 196.576C179.688 196.957 179.587 197.26 179.507 197.486H178.612C178.655 197.274 178.712 196.994 178.781 196.646C178.851 196.298 178.921 195.908 178.99 195.477C179.063 195.05 179.123 194.612 179.169 194.165L179.229 193.608H180.502ZM188.005 184.818V195H186.772V184.818H188.005ZM191.491 190.406V195H190.318V187.364H191.452V188.557H191.551C191.73 188.169 192.002 187.857 192.366 187.622C192.731 187.384 193.202 187.264 193.778 187.264C194.295 187.264 194.748 187.37 195.135 187.582C195.523 187.791 195.825 188.109 196.04 188.537C196.256 188.961 196.363 189.498 196.363 190.148V195H195.19V190.227C195.19 189.627 195.034 189.16 194.723 188.825C194.411 188.487 193.984 188.318 193.44 188.318C193.066 188.318 192.731 188.399 192.436 188.562C192.144 188.724 191.914 188.961 191.745 189.273C191.576 189.584 191.491 189.962 191.491 190.406ZM201.391 195.159C200.755 195.159 200.193 194.998 199.706 194.677C199.218 194.352 198.837 193.895 198.562 193.305C198.287 192.711 198.15 192.01 198.15 191.202C198.15 190.4 198.287 189.704 198.562 189.114C198.837 188.524 199.22 188.068 199.711 187.746C200.201 187.425 200.768 187.264 201.411 187.264C201.908 187.264 202.301 187.347 202.589 187.513C202.881 187.675 203.103 187.861 203.255 188.07C203.411 188.275 203.532 188.444 203.618 188.577H203.718V184.818H204.891V195H203.757V193.827H203.618C203.532 193.966 203.409 194.142 203.25 194.354C203.091 194.562 202.864 194.75 202.569 194.915C202.274 195.078 201.882 195.159 201.391 195.159ZM201.55 194.105C202.021 194.105 202.418 193.982 202.743 193.737C203.068 193.489 203.315 193.146 203.484 192.708C203.653 192.267 203.738 191.759 203.738 191.182C203.738 190.612 203.655 190.113 203.489 189.685C203.323 189.254 203.078 188.92 202.753 188.681C202.428 188.439 202.027 188.318 201.55 188.318C201.053 188.318 200.639 188.446 200.307 188.701C199.979 188.953 199.732 189.296 199.566 189.73C199.404 190.161 199.323 190.645 199.323 191.182C199.323 191.725 199.406 192.219 199.571 192.663C199.74 193.104 199.989 193.455 200.317 193.717C200.649 193.976 201.06 194.105 201.55 194.105ZM207.203 195V187.364H208.376V195H207.203ZM207.799 186.091C207.571 186.091 207.373 186.013 207.208 185.857C207.045 185.701 206.964 185.514 206.964 185.295C206.964 185.077 207.045 184.889 207.208 184.734C207.373 184.578 207.571 184.5 207.799 184.5C208.028 184.5 208.224 184.578 208.386 184.734C208.552 184.889 208.635 185.077 208.635 185.295C208.635 185.514 208.552 185.701 208.386 185.857C208.224 186.013 208.028 186.091 207.799 186.091ZM212.772 195.179C212.288 195.179 211.849 195.088 211.455 194.906C211.06 194.72 210.747 194.453 210.515 194.105C210.283 193.754 210.167 193.33 210.167 192.832C210.167 192.395 210.253 192.04 210.426 191.768C210.598 191.493 210.828 191.278 211.117 191.122C211.405 190.966 211.723 190.85 212.071 190.774C212.423 190.695 212.776 190.632 213.13 190.585C213.594 190.526 213.97 190.481 214.259 190.451C214.55 190.418 214.762 190.363 214.895 190.287C215.031 190.211 215.099 190.078 215.099 189.889V189.849C215.099 189.359 214.965 188.978 214.696 188.706C214.431 188.434 214.028 188.298 213.488 188.298C212.928 188.298 212.489 188.421 212.171 188.666C211.852 188.911 211.629 189.173 211.499 189.452L210.386 189.054C210.585 188.59 210.85 188.229 211.181 187.97C211.516 187.708 211.881 187.526 212.275 187.423C212.673 187.317 213.064 187.264 213.448 187.264C213.694 187.264 213.975 187.294 214.294 187.354C214.615 187.41 214.925 187.528 215.223 187.707C215.525 187.886 215.775 188.156 215.974 188.517C216.173 188.878 216.272 189.362 216.272 189.969V195H215.099V193.966H215.039C214.96 194.132 214.827 194.309 214.642 194.498C214.456 194.687 214.209 194.848 213.901 194.98C213.593 195.113 213.216 195.179 212.772 195.179ZM212.951 194.125C213.415 194.125 213.806 194.034 214.124 193.852C214.446 193.669 214.688 193.434 214.85 193.146C215.016 192.857 215.099 192.554 215.099 192.236V191.162C215.049 191.222 214.94 191.276 214.771 191.326C214.605 191.372 214.413 191.414 214.194 191.45C213.979 191.483 213.768 191.513 213.563 191.54C213.36 191.563 213.196 191.583 213.07 191.599C212.766 191.639 212.481 191.704 212.215 191.793C211.954 191.879 211.741 192.01 211.579 192.186C211.42 192.358 211.34 192.594 211.34 192.892C211.34 193.3 211.491 193.608 211.793 193.817C212.098 194.022 212.484 194.125 212.951 194.125Z" fill="#111827"/>
<rect x="499" y="182" width="16" height="16" rx="8" fill="white"/>
<rect x="499" y="182" width="16" height="16" rx="8" stroke="#E4E4E7"/>
<path d="M45 255C49.9706 255 54 250.971 54 246C54 241.029 49.9706 237 45 237C40.0294 237 36 241.029 36 246C36 250.971 40.0294 255 45 255Z" stroke="#111827" stroke-miterlimit="10" stroke-linecap="round" stroke-dasharray="4 4"/>
<path d="M66.1477 252V240.364H70.5114C71.4053 240.364 72.1553 240.53 72.7614 240.864C73.3712 241.197 73.8314 241.655 74.142 242.239C74.4564 242.818 74.6136 243.477 74.6136 244.216C74.6136 244.962 74.4564 245.625 74.142 246.205C73.8277 246.784 73.3636 247.241 72.75 247.574C72.1364 247.903 71.3807 248.068 70.483 248.068H67.5909V246.335H70.1989C70.7216 246.335 71.1496 246.244 71.483 246.062C71.8163 245.881 72.0625 245.631 72.2216 245.312C72.3845 244.994 72.4659 244.629 72.4659 244.216C72.4659 243.803 72.3845 243.439 72.2216 243.125C72.0625 242.811 71.8144 242.566 71.4773 242.392C71.1439 242.214 70.714 242.125 70.1875 242.125H68.2557V252H66.1477ZM78.4105 240.364V252H76.3537V240.364H78.4105ZM83.0369 252.176C82.4839 252.176 81.9858 252.078 81.5426 251.881C81.1032 251.68 80.7547 251.384 80.4972 250.994C80.2434 250.604 80.1165 250.123 80.1165 249.551C80.1165 249.059 80.2074 248.652 80.3892 248.33C80.571 248.008 80.8191 247.75 81.1335 247.557C81.4479 247.364 81.8021 247.218 82.196 247.119C82.5938 247.017 83.0047 246.943 83.429 246.898C83.9403 246.845 84.3551 246.797 84.6733 246.756C84.9915 246.71 85.2225 246.642 85.3665 246.551C85.5142 246.456 85.5881 246.311 85.5881 246.114V246.08C85.5881 245.652 85.4612 245.32 85.2074 245.085C84.9536 244.85 84.5881 244.733 84.1108 244.733C83.607 244.733 83.2074 244.843 82.9119 245.062C82.6203 245.282 82.4233 245.542 82.321 245.841L80.4006 245.568C80.5521 245.038 80.8021 244.595 81.1506 244.239C81.4991 243.879 81.9252 243.61 82.429 243.432C82.9328 243.25 83.4896 243.159 84.0994 243.159C84.5199 243.159 84.9384 243.208 85.3551 243.307C85.7718 243.405 86.1525 243.568 86.4972 243.795C86.8419 244.019 87.1184 244.324 87.3267 244.71C87.5388 245.097 87.6449 245.58 87.6449 246.159V252H85.6676V250.801H85.5994C85.4744 251.044 85.2983 251.271 85.071 251.483C84.8475 251.691 84.5653 251.86 84.2244 251.989C83.8873 252.114 83.4915 252.176 83.0369 252.176ZM83.571 250.665C83.9839 250.665 84.3419 250.583 84.6449 250.42C84.9479 250.254 85.1809 250.034 85.3438 249.761C85.5104 249.489 85.5938 249.191 85.5938 248.869V247.841C85.5294 247.894 85.4195 247.943 85.2642 247.989C85.1127 248.034 84.9422 248.074 84.7528 248.108C84.5634 248.142 84.3759 248.172 84.1903 248.199C84.0047 248.225 83.8438 248.248 83.7074 248.267C83.4006 248.309 83.1259 248.377 82.8835 248.472C82.6411 248.566 82.4498 248.699 82.3097 248.869C82.1695 249.036 82.0994 249.252 82.0994 249.517C82.0994 249.896 82.2377 250.182 82.5142 250.375C82.7907 250.568 83.143 250.665 83.571 250.665ZM91.3949 243.273L93.1562 246.494L94.946 243.273H97.1222L94.4915 247.636L97.1676 252H95.0028L93.1562 248.858L91.3267 252H89.1449L91.804 247.636L89.2131 243.273H91.3949ZM102.192 252.17C101.339 252.17 100.601 251.983 99.9759 251.608C99.3509 251.233 98.866 250.708 98.5213 250.034C98.1804 249.36 98.0099 248.572 98.0099 247.67C98.0099 246.769 98.1804 245.979 98.5213 245.301C98.866 244.623 99.3509 244.097 99.9759 243.722C100.601 243.347 101.339 243.159 102.192 243.159C103.044 243.159 103.783 243.347 104.408 243.722C105.033 244.097 105.516 244.623 105.857 245.301C106.201 245.979 106.374 246.769 106.374 247.67C106.374 248.572 106.201 249.36 105.857 250.034C105.516 250.708 105.033 251.233 104.408 251.608C103.783 251.983 103.044 252.17 102.192 252.17ZM102.203 250.523C102.665 250.523 103.052 250.396 103.362 250.142C103.673 249.884 103.904 249.54 104.055 249.108C104.211 248.676 104.288 248.195 104.288 247.665C104.288 247.131 104.211 246.648 104.055 246.216C103.904 245.78 103.673 245.434 103.362 245.176C103.052 244.919 102.665 244.79 102.203 244.79C101.73 244.79 101.336 244.919 101.021 245.176C100.711 245.434 100.478 245.78 100.322 246.216C100.171 246.648 100.095 247.131 100.095 247.665C100.095 248.195 100.171 248.676 100.322 249.108C100.478 249.54 100.711 249.884 101.021 250.142C101.336 250.396 101.73 250.523 102.203 250.523ZM110.176 246.886V252H108.119V243.273H110.085V244.756H110.188C110.388 244.267 110.708 243.879 111.148 243.591C111.591 243.303 112.138 243.159 112.79 243.159C113.392 243.159 113.917 243.288 114.364 243.545C114.814 243.803 115.163 244.176 115.409 244.665C115.659 245.153 115.782 245.746 115.778 246.443V252H113.722V246.761C113.722 246.178 113.57 245.722 113.267 245.392C112.968 245.062 112.553 244.898 112.023 244.898C111.663 244.898 111.343 244.977 111.062 245.136C110.786 245.292 110.568 245.517 110.409 245.812C110.254 246.108 110.176 246.466 110.176 246.886ZM117.869 252V243.273H119.926V252H117.869ZM118.903 242.034C118.578 242.034 118.297 241.926 118.062 241.71C117.828 241.491 117.71 241.227 117.71 240.92C117.71 240.61 117.828 240.347 118.062 240.131C118.297 239.911 118.578 239.801 118.903 239.801C119.233 239.801 119.513 239.911 119.744 240.131C119.979 240.347 120.097 240.61 120.097 240.92C120.097 241.227 119.979 241.491 119.744 241.71C119.513 241.926 119.233 242.034 118.903 242.034ZM125.848 252.17C124.977 252.17 124.229 251.979 123.604 251.597C122.982 251.214 122.503 250.686 122.166 250.011C121.833 249.333 121.666 248.553 121.666 247.67C121.666 246.784 121.837 246.002 122.178 245.324C122.518 244.642 123 244.112 123.621 243.733C124.246 243.35 124.984 243.159 125.837 243.159C126.545 243.159 127.172 243.29 127.717 243.551C128.267 243.809 128.704 244.174 129.03 244.648C129.356 245.117 129.541 245.667 129.587 246.295H127.621C127.541 245.875 127.352 245.525 127.053 245.244C126.757 244.96 126.361 244.818 125.865 244.818C125.445 244.818 125.075 244.932 124.757 245.159C124.439 245.383 124.191 245.705 124.013 246.125C123.839 246.545 123.751 247.049 123.751 247.636C123.751 248.231 123.839 248.742 124.013 249.17C124.187 249.595 124.431 249.922 124.746 250.153C125.064 250.381 125.437 250.494 125.865 250.494C126.168 250.494 126.439 250.437 126.678 250.324C126.92 250.206 127.123 250.038 127.286 249.818C127.448 249.598 127.56 249.331 127.621 249.017H129.587C129.537 249.634 129.356 250.182 129.041 250.659C128.727 251.133 128.299 251.504 127.757 251.773C127.215 252.038 126.579 252.17 125.848 252.17Z" fill="#111827"/>
<path d="M140.929 251.08C140.684 251.08 140.473 250.992 140.298 250.816C140.122 250.64 140.034 250.43 140.034 250.185C140.034 249.939 140.122 249.729 140.298 249.553C140.473 249.378 140.684 249.29 140.929 249.29C141.174 249.29 141.385 249.378 141.56 249.553C141.736 249.729 141.824 249.939 141.824 250.185C141.824 250.347 141.782 250.496 141.7 250.632C141.62 250.768 141.512 250.877 141.376 250.96C141.244 251.04 141.095 251.08 140.929 251.08ZM148.444 251H147.151L150.89 240.818H152.162L155.901 251H154.608L151.566 242.429H151.486L148.444 251ZM148.921 247.023H154.131V248.116H148.921V247.023ZM158.543 251L155.759 240.818H157.012L159.14 249.111H159.239L161.407 240.818H162.799L164.967 249.111H165.066L167.194 240.818H168.447L165.663 251H164.39L162.143 242.886H162.063L159.816 251H158.543ZM175.551 243.364C175.491 242.86 175.25 242.469 174.825 242.19C174.401 241.912 173.881 241.773 173.264 241.773C172.813 241.773 172.419 241.846 172.081 241.991C171.746 242.137 171.484 242.338 171.295 242.593C171.11 242.848 171.017 243.138 171.017 243.463C171.017 243.735 171.082 243.969 171.211 244.164C171.344 244.356 171.513 244.517 171.718 244.646C171.924 244.772 172.139 244.877 172.364 244.96C172.59 245.039 172.797 245.104 172.986 245.153L174.02 245.432C174.285 245.501 174.58 245.598 174.905 245.72C175.233 245.843 175.546 246.01 175.844 246.222C176.146 246.431 176.395 246.7 176.59 247.028C176.786 247.356 176.884 247.759 176.884 248.236C176.884 248.786 176.739 249.283 176.451 249.727C176.166 250.171 175.748 250.524 175.198 250.786C174.651 251.048 173.987 251.179 173.205 251.179C172.475 251.179 171.844 251.061 171.31 250.826C170.78 250.591 170.362 250.263 170.058 249.842C169.756 249.421 169.585 248.932 169.545 248.375H170.818C170.851 248.759 170.981 249.078 171.206 249.33C171.435 249.578 171.723 249.764 172.071 249.886C172.422 250.006 172.8 250.065 173.205 250.065C173.675 250.065 174.098 249.989 174.472 249.837C174.847 249.681 175.143 249.465 175.362 249.19C175.581 248.912 175.69 248.587 175.69 248.216C175.69 247.878 175.596 247.603 175.407 247.391C175.218 247.179 174.969 247.006 174.661 246.874C174.353 246.741 174.02 246.625 173.662 246.526L172.409 246.168C171.614 245.939 170.984 245.612 170.52 245.188C170.056 244.764 169.824 244.209 169.824 243.523C169.824 242.953 169.978 242.455 170.286 242.031C170.598 241.604 171.015 241.272 171.539 241.037C172.066 240.798 172.654 240.679 173.304 240.679C173.96 240.679 174.544 240.797 175.054 241.032C175.564 241.264 175.969 241.582 176.267 241.987C176.569 242.391 176.728 242.85 176.744 243.364H175.551ZM180.502 249.608L180.422 250.145C180.366 250.523 180.28 250.927 180.164 251.358C180.051 251.789 179.933 252.195 179.811 252.576C179.688 252.957 179.587 253.26 179.507 253.486H178.612C178.655 253.274 178.712 252.994 178.781 252.646C178.851 252.298 178.921 251.908 178.99 251.477C179.063 251.05 179.123 250.612 179.169 250.165L179.229 249.608H180.502ZM188.005 240.818V251H186.772V240.818H188.005ZM191.491 246.406V251H190.318V243.364H191.452V244.557H191.551C191.73 244.169 192.002 243.857 192.366 243.622C192.731 243.384 193.202 243.264 193.778 243.264C194.295 243.264 194.748 243.37 195.135 243.582C195.523 243.791 195.825 244.109 196.04 244.537C196.256 244.961 196.363 245.498 196.363 246.148V251H195.19V246.227C195.19 245.627 195.034 245.16 194.723 244.825C194.411 244.487 193.984 244.318 193.44 244.318C193.066 244.318 192.731 244.399 192.436 244.562C192.144 244.724 191.914 244.961 191.745 245.273C191.576 245.584 191.491 245.962 191.491 246.406ZM201.391 251.159C200.755 251.159 200.193 250.998 199.706 250.677C199.218 250.352 198.837 249.895 198.562 249.305C198.287 248.711 198.15 248.01 198.15 247.202C198.15 246.4 198.287 245.704 198.562 245.114C198.837 244.524 199.22 244.068 199.711 243.746C200.201 243.425 200.768 243.264 201.411 243.264C201.908 243.264 202.301 243.347 202.589 243.513C202.881 243.675 203.103 243.861 203.255 244.07C203.411 244.275 203.532 244.444 203.618 244.577H203.718V240.818H204.891V251H203.757V249.827H203.618C203.532 249.966 203.409 250.142 203.25 250.354C203.091 250.562 202.864 250.75 202.569 250.915C202.274 251.078 201.882 251.159 201.391 251.159ZM201.55 250.105C202.021 250.105 202.418 249.982 202.743 249.737C203.068 249.489 203.315 249.146 203.484 248.708C203.653 248.267 203.738 247.759 203.738 247.182C203.738 246.612 203.655 246.113 203.489 245.685C203.323 245.254 203.078 244.92 202.753 244.681C202.428 244.439 202.027 244.318 201.55 244.318C201.053 244.318 200.639 244.446 200.307 244.701C199.979 244.953 199.732 245.296 199.566 245.73C199.404 246.161 199.323 246.645 199.323 247.182C199.323 247.725 199.406 248.219 199.571 248.663C199.74 249.104 199.989 249.455 200.317 249.717C200.649 249.976 201.06 250.105 201.55 250.105ZM207.203 251V243.364H208.376V251H207.203ZM207.799 242.091C207.571 242.091 207.373 242.013 207.208 241.857C207.045 241.701 206.964 241.514 206.964 241.295C206.964 241.077 207.045 240.889 207.208 240.734C207.373 240.578 207.571 240.5 207.799 240.5C208.028 240.5 208.224 240.578 208.386 240.734C208.552 240.889 208.635 241.077 208.635 241.295C208.635 241.514 208.552 241.701 208.386 241.857C208.224 242.013 208.028 242.091 207.799 242.091ZM212.772 251.179C212.288 251.179 211.849 251.088 211.455 250.906C211.06 250.72 210.747 250.453 210.515 250.105C210.283 249.754 210.167 249.33 210.167 248.832C210.167 248.395 210.253 248.04 210.426 247.768C210.598 247.493 210.828 247.278 211.117 247.122C211.405 246.966 211.723 246.85 212.071 246.774C212.423 246.695 212.776 246.632 213.13 246.585C213.594 246.526 213.97 246.481 214.259 246.451C214.55 246.418 214.762 246.363 214.895 246.287C215.031 246.211 215.099 246.078 215.099 245.889V245.849C215.099 245.359 214.965 244.978 214.696 244.706C214.431 244.434 214.028 244.298 213.488 244.298C212.928 244.298 212.489 244.421 212.171 244.666C211.852 244.911 211.629 245.173 211.499 245.452L210.386 245.054C210.585 244.59 210.85 244.229 211.181 243.97C211.516 243.708 211.881 243.526 212.275 243.423C212.673 243.317 213.064 243.264 213.448 243.264C213.694 243.264 213.975 243.294 214.294 243.354C214.615 243.41 214.925 243.528 215.223 243.707C215.525 243.886 215.775 244.156 215.974 244.517C216.173 244.878 216.272 245.362 216.272 245.969V251H215.099V249.966H215.039C214.96 250.132 214.827 250.309 214.642 250.498C214.456 250.687 214.209 250.848 213.901 250.98C213.593 251.113 213.216 251.179 212.772 251.179ZM212.951 250.125C213.415 250.125 213.806 250.034 214.124 249.852C214.446 249.669 214.688 249.434 214.85 249.146C215.016 248.857 215.099 248.554 215.099 248.236V247.162C215.049 247.222 214.94 247.276 214.771 247.326C214.605 247.372 214.413 247.414 214.194 247.45C213.979 247.483 213.768 247.513 213.563 247.54C213.36 247.563 213.196 247.583 213.07 247.599C212.766 247.639 212.481 247.704 212.215 247.793C211.954 247.879 211.741 248.01 211.579 248.186C211.42 248.358 211.34 248.594 211.34 248.892C211.34 249.3 211.491 249.608 211.793 249.817C212.098 250.022 212.484 250.125 212.951 250.125Z" fill="#111827"/>
<rect x="499" y="238" width="16" height="16" rx="8" fill="white"/>
<rect x="499" y="238" width="16" height="16" rx="8" stroke="#E4E4E7"/>
<path d="M45 311C49.9706 311 54 306.971 54 302C54 297.029 49.9706 293 45 293C40.0294 293 36 297.029 36 302C36 306.971 40.0294 311 45 311Z" stroke="#111827" stroke-miterlimit="10" stroke-linecap="round" stroke-dasharray="4 4"/>
<path d="M66.1477 308V296.364H70.5114C71.4053 296.364 72.1553 296.53 72.7614 296.864C73.3712 297.197 73.8314 297.655 74.142 298.239C74.4564 298.818 74.6136 299.477 74.6136 300.216C74.6136 300.962 74.4564 301.625 74.142 302.205C73.8277 302.784 73.3636 303.241 72.75 303.574C72.1364 303.903 71.3807 304.068 70.483 304.068H67.5909V302.335H70.1989C70.7216 302.335 71.1496 302.244 71.483 302.062C71.8163 301.881 72.0625 301.631 72.2216 301.312C72.3845 300.994 72.4659 300.629 72.4659 300.216C72.4659 299.803 72.3845 299.439 72.2216 299.125C72.0625 298.811 71.8144 298.566 71.4773 298.392C71.1439 298.214 70.714 298.125 70.1875 298.125H68.2557V308H66.1477ZM78.4105 296.364V308H76.3537V296.364H78.4105ZM83.0369 308.176C82.4839 308.176 81.9858 308.078 81.5426 307.881C81.1032 307.68 80.7547 307.384 80.4972 306.994C80.2434 306.604 80.1165 306.123 80.1165 305.551C80.1165 305.059 80.2074 304.652 80.3892 304.33C80.571 304.008 80.8191 303.75 81.1335 303.557C81.4479 303.364 81.8021 303.218 82.196 303.119C82.5938 303.017 83.0047 302.943 83.429 302.898C83.9403 302.845 84.3551 302.797 84.6733 302.756C84.9915 302.71 85.2225 302.642 85.3665 302.551C85.5142 302.456 85.5881 302.311 85.5881 302.114V302.08C85.5881 301.652 85.4612 301.32 85.2074 301.085C84.9536 300.85 84.5881 300.733 84.1108 300.733C83.607 300.733 83.2074 300.843 82.9119 301.062C82.6203 301.282 82.4233 301.542 82.321 301.841L80.4006 301.568C80.5521 301.038 80.8021 300.595 81.1506 300.239C81.4991 299.879 81.9252 299.61 82.429 299.432C82.9328 299.25 83.4896 299.159 84.0994 299.159C84.5199 299.159 84.9384 299.208 85.3551 299.307C85.7718 299.405 86.1525 299.568 86.4972 299.795C86.8419 300.019 87.1184 300.324 87.3267 300.71C87.5388 301.097 87.6449 301.58 87.6449 302.159V308H85.6676V306.801H85.5994C85.4744 307.044 85.2983 307.271 85.071 307.483C84.8475 307.691 84.5653 307.86 84.2244 307.989C83.8873 308.114 83.4915 308.176 83.0369 308.176ZM83.571 306.665C83.9839 306.665 84.3419 306.583 84.6449 306.42C84.9479 306.254 85.1809 306.034 85.3438 305.761C85.5104 305.489 85.5938 305.191 85.5938 304.869V303.841C85.5294 303.894 85.4195 303.943 85.2642 303.989C85.1127 304.034 84.9422 304.074 84.7528 304.108C84.5634 304.142 84.3759 304.172 84.1903 304.199C84.0047 304.225 83.8438 304.248 83.7074 304.267C83.4006 304.309 83.1259 304.377 82.8835 304.472C82.6411 304.566 82.4498 304.699 82.3097 304.869C82.1695 305.036 82.0994 305.252 82.0994 305.517C82.0994 305.896 82.2377 306.182 82.5142 306.375C82.7907 306.568 83.143 306.665 83.571 306.665ZM91.3949 299.273L93.1562 302.494L94.946 299.273H97.1222L94.4915 303.636L97.1676 308H95.0028L93.1562 304.858L91.3267 308H89.1449L91.804 303.636L89.2131 299.273H91.3949ZM102.192 308.17C101.339 308.17 100.601 307.983 99.9759 307.608C99.3509 307.233 98.866 306.708 98.5213 306.034C98.1804 305.36 98.0099 304.572 98.0099 303.67C98.0099 302.769 98.1804 301.979 98.5213 301.301C98.866 300.623 99.3509 300.097 99.9759 299.722C100.601 299.347 101.339 299.159 102.192 299.159C103.044 299.159 103.783 299.347 104.408 299.722C105.033 300.097 105.516 300.623 105.857 301.301C106.201 301.979 106.374 302.769 106.374 303.67C106.374 304.572 106.201 305.36 105.857 306.034C105.516 306.708 105.033 307.233 104.408 307.608C103.783 307.983 103.044 308.17 102.192 308.17ZM102.203 306.523C102.665 306.523 103.052 306.396 103.362 306.142C103.673 305.884 103.904 305.54 104.055 305.108C104.211 304.676 104.288 304.195 104.288 303.665C104.288 303.131 104.211 302.648 104.055 302.216C103.904 301.78 103.673 301.434 103.362 301.176C103.052 300.919 102.665 300.79 102.203 300.79C101.73 300.79 101.336 300.919 101.021 301.176C100.711 301.434 100.478 301.78 100.322 302.216C100.171 302.648 100.095 303.131 100.095 303.665C100.095 304.195 100.171 304.676 100.322 305.108C100.478 305.54 100.711 305.884 101.021 306.142C101.336 306.396 101.73 306.523 102.203 306.523ZM110.176 302.886V308H108.119V299.273H110.085V300.756H110.188C110.388 300.267 110.708 299.879 111.148 299.591C111.591 299.303 112.138 299.159 112.79 299.159C113.392 299.159 113.917 299.288 114.364 299.545C114.814 299.803 115.163 300.176 115.409 300.665C115.659 301.153 115.782 301.746 115.778 302.443V308H113.722V302.761C113.722 302.178 113.57 301.722 113.267 301.392C112.968 301.062 112.553 300.898 112.023 300.898C111.663 300.898 111.343 300.977 111.062 301.136C110.786 301.292 110.568 301.517 110.409 301.812C110.254 302.108 110.176 302.466 110.176 302.886ZM117.869 308V299.273H119.926V308H117.869ZM118.903 298.034C118.578 298.034 118.297 297.926 118.062 297.71C117.828 297.491 117.71 297.227 117.71 296.92C117.71 296.61 117.828 296.347 118.062 296.131C118.297 295.911 118.578 295.801 118.903 295.801C119.233 295.801 119.513 295.911 119.744 296.131C119.979 296.347 120.097 296.61 120.097 296.92C120.097 297.227 119.979 297.491 119.744 297.71C119.513 297.926 119.233 298.034 118.903 298.034ZM125.848 308.17C124.977 308.17 124.229 307.979 123.604 307.597C122.982 307.214 122.503 306.686 122.166 306.011C121.833 305.333 121.666 304.553 121.666 303.67C121.666 302.784 121.837 302.002 122.178 301.324C122.518 300.642 123 300.112 123.621 299.733C124.246 299.35 124.984 299.159 125.837 299.159C126.545 299.159 127.172 299.29 127.717 299.551C128.267 299.809 128.704 300.174 129.03 300.648C129.356 301.117 129.541 301.667 129.587 302.295H127.621C127.541 301.875 127.352 301.525 127.053 301.244C126.757 300.96 126.361 300.818 125.865 300.818C125.445 300.818 125.075 300.932 124.757 301.159C124.439 301.383 124.191 301.705 124.013 302.125C123.839 302.545 123.751 303.049 123.751 303.636C123.751 304.231 123.839 304.742 124.013 305.17C124.187 305.595 124.431 305.922 124.746 306.153C125.064 306.381 125.437 306.494 125.865 306.494C126.168 306.494 126.439 306.437 126.678 306.324C126.92 306.206 127.123 306.038 127.286 305.818C127.448 305.598 127.56 305.331 127.621 305.017H129.587C129.537 305.634 129.356 306.182 129.041 306.659C128.727 307.133 128.299 307.504 127.757 307.773C127.215 308.038 126.579 308.17 125.848 308.17Z" fill="#111827"/>
<path d="M140.929 307.08C140.684 307.08 140.473 306.992 140.298 306.816C140.122 306.64 140.034 306.43 140.034 306.185C140.034 305.939 140.122 305.729 140.298 305.553C140.473 305.378 140.684 305.29 140.929 305.29C141.174 305.29 141.385 305.378 141.56 305.553C141.736 305.729 141.824 305.939 141.824 306.185C141.824 306.347 141.782 306.496 141.7 306.632C141.62 306.768 141.512 306.877 141.376 306.96C141.244 307.04 141.095 307.08 140.929 307.08ZM148.444 307H147.151L150.89 296.818H152.162L155.901 307H154.608L151.566 298.429H151.486L148.444 307ZM148.921 303.023H154.131V304.116H148.921V303.023ZM158.543 307L155.759 296.818H157.012L159.14 305.111H159.239L161.407 296.818H162.799L164.967 305.111H165.066L167.194 296.818H168.447L165.663 307H164.39L162.143 298.886H162.063L159.816 307H158.543ZM175.551 299.364C175.491 298.86 175.25 298.469 174.825 298.19C174.401 297.912 173.881 297.773 173.264 297.773C172.813 297.773 172.419 297.846 172.081 297.991C171.746 298.137 171.484 298.338 171.295 298.593C171.11 298.848 171.017 299.138 171.017 299.463C171.017 299.735 171.082 299.969 171.211 300.164C171.344 300.356 171.513 300.517 171.718 300.646C171.924 300.772 172.139 300.877 172.364 300.96C172.59 301.039 172.797 301.104 172.986 301.153L174.02 301.432C174.285 301.501 174.58 301.598 174.905 301.72C175.233 301.843 175.546 302.01 175.844 302.222C176.146 302.431 176.395 302.7 176.59 303.028C176.786 303.356 176.884 303.759 176.884 304.236C176.884 304.786 176.739 305.283 176.451 305.727C176.166 306.171 175.748 306.524 175.198 306.786C174.651 307.048 173.987 307.179 173.205 307.179C172.475 307.179 171.844 307.061 171.31 306.826C170.78 306.591 170.362 306.263 170.058 305.842C169.756 305.421 169.585 304.932 169.545 304.375H170.818C170.851 304.759 170.981 305.078 171.206 305.33C171.435 305.578 171.723 305.764 172.071 305.886C172.422 306.006 172.8 306.065 173.205 306.065C173.675 306.065 174.098 305.989 174.472 305.837C174.847 305.681 175.143 305.465 175.362 305.19C175.581 304.912 175.69 304.587 175.69 304.216C175.69 303.878 175.596 303.603 175.407 303.391C175.218 303.179 174.969 303.006 174.661 302.874C174.353 302.741 174.02 302.625 173.662 302.526L172.409 302.168C171.614 301.939 170.984 301.612 170.52 301.188C170.056 300.764 169.824 300.209 169.824 299.523C169.824 298.953 169.978 298.455 170.286 298.031C170.598 297.604 171.015 297.272 171.539 297.037C172.066 296.798 172.654 296.679 173.304 296.679C173.96 296.679 174.544 296.797 175.054 297.032C175.564 297.264 175.969 297.582 176.267 297.987C176.569 298.391 176.728 298.85 176.744 299.364H175.551ZM180.502 305.608L180.422 306.145C180.366 306.523 180.28 306.927 180.164 307.358C180.051 307.789 179.933 308.195 179.811 308.576C179.688 308.957 179.587 309.26 179.507 309.486H178.612C178.655 309.274 178.712 308.994 178.781 308.646C178.851 308.298 178.921 307.908 178.99 307.477C179.063 307.05 179.123 306.612 179.169 306.165L179.229 305.608H180.502ZM188.005 296.818V307H186.772V296.818H188.005ZM191.491 302.406V307H190.318V299.364H191.452V300.557H191.551C191.73 300.169 192.002 299.857 192.366 299.622C192.731 299.384 193.202 299.264 193.778 299.264C194.295 299.264 194.748 299.37 195.135 299.582C195.523 299.791 195.825 300.109 196.04 300.537C196.256 300.961 196.363 301.498 196.363 302.148V307H195.19V302.227C195.19 301.627 195.034 301.16 194.723 300.825C194.411 300.487 193.984 300.318 193.44 300.318C193.066 300.318 192.731 300.399 192.436 300.562C192.144 300.724 191.914 300.961 191.745 301.273C191.576 301.584 191.491 301.962 191.491 302.406ZM201.391 307.159C200.755 307.159 200.193 306.998 199.706 306.677C199.218 306.352 198.837 305.895 198.562 305.305C198.287 304.711 198.15 304.01 198.15 303.202C198.15 302.4 198.287 301.704 198.562 301.114C198.837 300.524 199.22 300.068 199.711 299.746C200.201 299.425 200.768 299.264 201.411 299.264C201.908 299.264 202.301 299.347 202.589 299.513C202.881 299.675 203.103 299.861 203.255 300.07C203.411 300.275 203.532 300.444 203.618 300.577H203.718V296.818H204.891V307H203.757V305.827H203.618C203.532 305.966 203.409 306.142 203.25 306.354C203.091 306.562 202.864 306.75 202.569 306.915C202.274 307.078 201.882 307.159 201.391 307.159ZM201.55 306.105C202.021 306.105 202.418 305.982 202.743 305.737C203.068 305.489 203.315 305.146 203.484 304.708C203.653 304.267 203.738 303.759 203.738 303.182C203.738 302.612 203.655 302.113 203.489 301.685C203.323 301.254 203.078 300.92 202.753 300.681C202.428 300.439 202.027 300.318 201.55 300.318C201.053 300.318 200.639 300.446 200.307 300.701C199.979 300.953 199.732 301.296 199.566 301.73C199.404 302.161 199.323 302.645 199.323 303.182C199.323 303.725 199.406 304.219 199.571 304.663C199.74 305.104 199.989 305.455 200.317 305.717C200.649 305.976 201.06 306.105 201.55 306.105ZM207.203 307V299.364H208.376V307H207.203ZM207.799 298.091C207.571 298.091 207.373 298.013 207.208 297.857C207.045 297.701 206.964 297.514 206.964 297.295C206.964 297.077 207.045 296.889 207.208 296.734C207.373 296.578 207.571 296.5 207.799 296.5C208.028 296.5 208.224 296.578 208.386 296.734C208.552 296.889 208.635 297.077 208.635 297.295C208.635 297.514 208.552 297.701 208.386 297.857C208.224 298.013 208.028 298.091 207.799 298.091ZM212.772 307.179C212.288 307.179 211.849 307.088 211.455 306.906C211.06 306.72 210.747 306.453 210.515 306.105C210.283 305.754 210.167 305.33 210.167 304.832C210.167 304.395 210.253 304.04 210.426 303.768C210.598 303.493 210.828 303.278 211.117 303.122C211.405 302.966 211.723 302.85 212.071 302.774C212.423 302.695 212.776 302.632 213.13 302.585C213.594 302.526 213.97 302.481 214.259 302.451C214.55 302.418 214.762 302.363 214.895 302.287C215.031 302.211 215.099 302.078 215.099 301.889V301.849C215.099 301.359 214.965 300.978 214.696 300.706C214.431 300.434 214.028 300.298 213.488 300.298C212.928 300.298 212.489 300.421 212.171 300.666C211.852 300.911 211.629 301.173 211.499 301.452L210.386 301.054C210.585 300.59 210.85 300.229 211.181 299.97C211.516 299.708 211.881 299.526 212.275 299.423C212.673 299.317 213.064 299.264 213.448 299.264C213.694 299.264 213.975 299.294 214.294 299.354C214.615 299.41 214.925 299.528 215.223 299.707C215.525 299.886 215.775 300.156 215.974 300.517C216.173 300.878 216.272 301.362 216.272 301.969V307H215.099V305.966H215.039C214.96 306.132 214.827 306.309 214.642 306.498C214.456 306.687 214.209 306.848 213.901 306.98C213.593 307.113 213.216 307.179 212.772 307.179ZM212.951 306.125C213.415 306.125 213.806 306.034 214.124 305.852C214.446 305.669 214.688 305.434 214.85 305.146C215.016 304.857 215.099 304.554 215.099 304.236V303.162C215.049 303.222 214.94 303.276 214.771 303.326C214.605 303.372 214.413 303.414 214.194 303.45C213.979 303.483 213.768 303.513 213.563 303.54C213.36 303.563 213.196 303.583 213.07 303.599C212.766 303.639 212.481 303.704 212.215 303.793C211.954 303.879 211.741 304.01 211.579 304.186C211.42 304.358 211.34 304.594 211.34 304.892C211.34 305.3 211.491 305.608 211.793 305.817C212.098 306.022 212.484 306.125 212.951 306.125Z" fill="#111827"/>
<rect x="499" y="294" width="16" height="16" rx="8" fill="white"/>
<rect x="499" y="294" width="16" height="16" rx="8" stroke="#E4E4E7"/>
<g filter="url(#filter2_d_2616_4905)">
<path d="M43.8011 347.364C43.7415 346.86 43.4995 346.469 43.0753 346.19C42.651 345.912 42.1307 345.773 41.5142 345.773C41.0634 345.773 40.669 345.846 40.331 345.991C39.9962 346.137 39.7344 346.338 39.5455 346.593C39.3598 346.848 39.267 347.138 39.267 347.463C39.267 347.735 39.3317 347.969 39.4609 348.164C39.5935 348.356 39.7625 348.517 39.968 348.646C40.1735 348.772 40.389 348.877 40.6143 348.96C40.8397 349.039 41.0469 349.104 41.2358 349.153L42.2699 349.432C42.535 349.501 42.83 349.598 43.1548 349.72C43.483 349.843 43.7962 350.01 44.0945 350.222C44.3961 350.431 44.6446 350.7 44.8402 351.028C45.0357 351.356 45.1335 351.759 45.1335 352.236C45.1335 352.786 44.9893 353.283 44.701 353.727C44.416 354.171 43.9983 354.524 43.4482 354.786C42.9013 355.048 42.2367 355.179 41.4545 355.179C40.7254 355.179 40.094 355.061 39.5604 354.826C39.0301 354.591 38.6125 354.263 38.3075 353.842C38.0059 353.421 37.8352 352.932 37.7955 352.375H39.0682C39.1013 352.759 39.2306 353.078 39.456 353.33C39.6847 353.578 39.973 353.764 40.321 353.886C40.6723 354.006 41.0502 354.065 41.4545 354.065C41.9252 354.065 42.3478 353.989 42.7223 353.837C43.0968 353.681 43.3935 353.465 43.6122 353.19C43.831 352.912 43.9403 352.587 43.9403 352.216C43.9403 351.878 43.8459 351.603 43.657 351.391C43.468 351.179 43.2195 351.006 42.9112 350.874C42.603 350.741 42.2699 350.625 41.9119 350.526L40.6591 350.168C39.8636 349.939 39.2339 349.612 38.7699 349.188C38.3059 348.764 38.0739 348.209 38.0739 347.523C38.0739 346.953 38.228 346.455 38.5362 346.031C38.8478 345.604 39.2654 345.272 39.7891 345.037C40.3161 344.798 40.9044 344.679 41.554 344.679C42.2102 344.679 42.7936 344.797 43.304 345.032C43.8144 345.264 44.2188 345.582 44.517 345.987C44.8187 346.391 44.9777 346.85 44.9943 347.364H43.8011ZM50.2033 355.159C49.4675 355.159 48.8328 354.997 48.2992 354.672C47.7689 354.344 47.3596 353.886 47.0712 353.3C46.7862 352.71 46.6436 352.024 46.6436 351.241C46.6436 350.459 46.7862 349.77 47.0712 349.173C47.3596 348.573 47.7606 348.106 48.2743 347.771C48.7914 347.433 49.3946 347.264 50.084 347.264C50.4817 347.264 50.8745 347.33 51.2623 347.463C51.65 347.596 52.003 347.811 52.3212 348.109C52.6394 348.404 52.8929 348.795 53.0819 349.283C53.2708 349.77 53.3652 350.37 53.3652 351.082V351.58H47.4789V350.565H52.1721C52.1721 350.134 52.0859 349.75 51.9135 349.412C51.7445 349.074 51.5025 348.807 51.1877 348.612C50.8761 348.416 50.5082 348.318 50.084 348.318C49.6167 348.318 49.2123 348.434 48.8709 348.666C48.5328 348.895 48.2727 349.193 48.0904 349.561C47.9081 349.929 47.8169 350.323 47.8169 350.744V351.42C47.8169 351.997 47.9164 352.486 48.1152 352.887C48.3174 353.285 48.5975 353.588 48.9554 353.797C49.3134 354.002 49.7293 354.105 50.2033 354.105C50.5115 354.105 50.79 354.062 51.0385 353.976C51.2904 353.886 51.5075 353.754 51.6898 353.578C51.8721 353.399 52.013 353.177 52.1124 352.912L53.2459 353.23C53.1266 353.615 52.9261 353.953 52.6444 354.244C52.3626 354.533 52.0146 354.758 51.6003 354.92C51.186 355.08 50.7203 355.159 50.2033 355.159ZM57.3972 355.179C56.9133 355.179 56.4741 355.088 56.0797 354.906C55.6853 354.72 55.3721 354.453 55.1401 354.105C54.9081 353.754 54.7921 353.33 54.7921 352.832C54.7921 352.395 54.8783 352.04 55.0506 351.768C55.223 351.493 55.4533 351.278 55.7417 351.122C56.03 350.966 56.3482 350.85 56.6962 350.774C57.0475 350.695 57.4005 350.632 57.7551 350.585C58.2192 350.526 58.5953 350.481 58.8837 350.451C59.1754 350.418 59.3875 350.363 59.5201 350.287C59.656 350.211 59.7239 350.078 59.7239 349.889V349.849C59.7239 349.359 59.5897 348.978 59.3212 348.706C59.056 348.434 58.6534 348.298 58.1131 348.298C57.553 348.298 57.1138 348.421 56.7956 348.666C56.4775 348.911 56.2537 349.173 56.1245 349.452L55.0108 349.054C55.2097 348.59 55.4748 348.229 55.8063 347.97C56.141 347.708 56.5056 347.526 56.9 347.423C57.2978 347.317 57.6889 347.264 58.0733 347.264C58.3186 347.264 58.6003 347.294 58.9185 347.354C59.24 347.41 59.5499 347.528 59.8482 347.707C60.1498 347.886 60.4 348.156 60.5989 348.517C60.7978 348.878 60.8972 349.362 60.8972 349.969V355H59.7239V353.966H59.6642C59.5847 354.132 59.4521 354.309 59.2665 354.498C59.0809 354.687 58.834 354.848 58.5257 354.98C58.2175 355.113 57.8413 355.179 57.3972 355.179ZM57.5762 354.125C58.0402 354.125 58.4313 354.034 58.7495 353.852C59.071 353.669 59.3129 353.434 59.4753 353.146C59.641 352.857 59.7239 352.554 59.7239 352.236V351.162C59.6742 351.222 59.5648 351.276 59.3958 351.326C59.2301 351.372 59.0378 351.414 58.8191 351.45C58.6036 351.483 58.3932 351.513 58.1877 351.54C57.9855 351.563 57.8214 351.583 57.6955 351.599C57.3906 351.639 57.1055 351.704 56.8404 351.793C56.5785 351.879 56.3664 352.01 56.204 352.186C56.0449 352.358 55.9654 352.594 55.9654 352.892C55.9654 353.3 56.1162 353.608 56.4178 353.817C56.7227 354.022 57.1088 354.125 57.5762 354.125ZM63.0387 355V347.364H64.1722V348.517H64.2518C64.391 348.139 64.6429 347.833 65.0075 347.597C65.372 347.362 65.783 347.244 66.2404 347.244C66.3266 347.244 66.4343 347.246 66.5636 347.249C66.6928 347.253 66.7906 347.258 66.8569 347.264V348.457C66.8171 348.447 66.726 348.433 66.5835 348.413C66.4442 348.389 66.2968 348.378 66.141 348.378C65.7698 348.378 65.4383 348.456 65.1467 348.612C64.8583 348.764 64.6296 348.976 64.4606 349.248C64.2949 349.516 64.212 349.823 64.212 350.168V355H63.0387ZM71.1175 355.159C70.4016 355.159 69.7852 354.99 69.2681 354.652C68.7511 354.314 68.3533 353.848 68.0749 353.255C67.7965 352.662 67.6573 351.984 67.6573 351.222C67.6573 350.446 67.7998 349.762 68.0849 349.168C68.3732 348.572 68.7743 348.106 69.288 347.771C69.805 347.433 70.4083 347.264 71.0977 347.264C71.6346 347.264 72.1185 347.364 72.5494 347.562C72.9802 347.761 73.3332 348.04 73.6083 348.398C73.8834 348.756 74.0541 349.173 74.1204 349.651H72.9471C72.8576 349.303 72.6587 348.994 72.3505 348.726C72.0456 348.454 71.6346 348.318 71.1175 348.318C70.6602 348.318 70.2591 348.437 69.9144 348.676C69.573 348.911 69.3062 349.245 69.114 349.675C68.9251 350.103 68.8306 350.605 68.8306 351.182C68.8306 351.772 68.9234 352.286 69.109 352.723C69.2979 353.161 69.5631 353.5 69.9045 353.742C70.2492 353.984 70.6535 354.105 71.1175 354.105C71.4225 354.105 71.6992 354.052 71.9478 353.946C72.1964 353.84 72.4068 353.688 72.5792 353.489C72.7515 353.29 72.8742 353.051 72.9471 352.773H74.1204C74.0541 353.223 73.89 353.629 73.6282 353.991C73.3697 354.349 73.0266 354.634 72.5991 354.846C72.1748 355.055 71.681 355.159 71.1175 355.159ZM77.0089 350.406V355H75.8356V344.818H77.0089V348.557H77.1083C77.2873 348.162 77.5558 347.849 77.9137 347.617C78.275 347.382 78.7556 347.264 79.3555 347.264C79.8758 347.264 80.3316 347.369 80.7227 347.577C81.1138 347.783 81.417 348.099 81.6325 348.527C81.8512 348.951 81.9606 349.491 81.9606 350.148V355H80.7873V350.227C80.7873 349.621 80.6299 349.152 80.315 348.82C80.0034 348.486 79.5709 348.318 79.0174 348.318C78.6329 348.318 78.2882 348.399 77.9833 348.562C77.6817 348.724 77.4431 348.961 77.2674 349.273C77.0951 349.584 77.0089 349.962 77.0089 350.406ZM91.4451 347.364V348.358H87.3287V347.364H91.4451ZM88.5616 355V346.31C88.5616 345.872 88.6644 345.508 88.8699 345.216C89.0753 344.924 89.3422 344.705 89.6703 344.56C89.9984 344.414 90.3448 344.341 90.7093 344.341C90.9977 344.341 91.233 344.364 91.4153 344.411C91.5976 344.457 91.7335 344.5 91.823 344.54L91.4849 345.554C91.4252 345.534 91.3424 345.509 91.2363 345.479C91.1336 345.45 90.9977 345.435 90.8287 345.435C90.4409 345.435 90.1608 345.532 89.9885 345.728C89.8194 345.924 89.7349 346.21 89.7349 346.588V355H88.5616ZM95.8773 355.159C95.1879 355.159 94.583 354.995 94.0627 354.667C93.5456 354.339 93.1413 353.88 92.8496 353.29C92.5613 352.7 92.4171 352.01 92.4171 351.222C92.4171 350.426 92.5613 349.732 92.8496 349.138C93.1413 348.545 93.5456 348.085 94.0627 347.756C94.583 347.428 95.1879 347.264 95.8773 347.264C96.5667 347.264 97.1699 347.428 97.687 347.756C98.2073 348.085 98.6117 348.545 98.9 349.138C99.1917 349.732 99.3375 350.426 99.3375 351.222C99.3375 352.01 99.1917 352.7 98.9 353.29C98.6117 353.88 98.2073 354.339 97.687 354.667C97.1699 354.995 96.5667 355.159 95.8773 355.159ZM95.8773 354.105C96.401 354.105 96.8319 353.971 97.1699 353.702C97.508 353.434 97.7582 353.081 97.9206 352.643C98.083 352.206 98.1642 351.732 98.1642 351.222C98.1642 350.711 98.083 350.236 97.9206 349.795C97.7582 349.354 97.508 348.998 97.1699 348.726C96.8319 348.454 96.401 348.318 95.8773 348.318C95.3536 348.318 94.9228 348.454 94.5847 348.726C94.2466 348.998 93.9964 349.354 93.834 349.795C93.6716 350.236 93.5904 350.711 93.5904 351.222C93.5904 351.732 93.6716 352.206 93.834 352.643C93.9964 353.081 94.2466 353.434 94.5847 353.702C94.9228 353.971 95.3536 354.105 95.8773 354.105ZM101.129 355V347.364H102.262V348.517H102.342C102.481 348.139 102.733 347.833 103.097 347.597C103.462 347.362 103.873 347.244 104.33 347.244C104.416 347.244 104.524 347.246 104.653 347.249C104.783 347.253 104.88 347.258 104.947 347.264V348.457C104.907 348.447 104.816 348.433 104.673 348.413C104.534 348.389 104.387 348.378 104.231 348.378C103.86 348.378 103.528 348.456 103.237 348.612C102.948 348.764 102.719 348.976 102.55 349.248C102.385 349.516 102.302 349.823 102.302 350.168V355H101.129ZM110.275 355V347.364H111.409V348.557H111.508C111.667 348.149 111.924 347.833 112.279 347.607C112.633 347.379 113.059 347.264 113.556 347.264C114.06 347.264 114.479 347.379 114.814 347.607C115.152 347.833 115.416 348.149 115.605 348.557H115.684C115.88 348.162 116.173 347.849 116.564 347.617C116.955 347.382 117.424 347.264 117.971 347.264C118.654 347.264 119.212 347.478 119.646 347.906C120.081 348.33 120.298 348.991 120.298 349.889V355H119.124V349.889C119.124 349.326 118.97 348.923 118.662 348.681C118.354 348.439 117.991 348.318 117.573 348.318C117.036 348.318 116.62 348.481 116.325 348.805C116.03 349.127 115.883 349.535 115.883 350.028V355H114.69V349.77C114.69 349.336 114.549 348.986 114.267 348.721C113.985 348.452 113.623 348.318 113.178 348.318C112.874 348.318 112.588 348.399 112.323 348.562C112.061 348.724 111.849 348.95 111.687 349.238C111.528 349.523 111.448 349.853 111.448 350.227V355H110.275ZM125.545 355.159C124.856 355.159 124.251 354.995 123.731 354.667C123.214 354.339 122.809 353.88 122.518 353.29C122.229 352.7 122.085 352.01 122.085 351.222C122.085 350.426 122.229 349.732 122.518 349.138C122.809 348.545 123.214 348.085 123.731 347.756C124.251 347.428 124.856 347.264 125.545 347.264C126.235 347.264 126.838 347.428 127.355 347.756C127.875 348.085 128.28 348.545 128.568 349.138C128.86 349.732 129.006 350.426 129.006 351.222C129.006 352.01 128.86 352.7 128.568 353.29C128.28 353.88 127.875 354.339 127.355 354.667C126.838 354.995 126.235 355.159 125.545 355.159ZM125.545 354.105C126.069 354.105 126.5 353.971 126.838 353.702C127.176 353.434 127.426 353.081 127.589 352.643C127.751 352.206 127.832 351.732 127.832 351.222C127.832 350.711 127.751 350.236 127.589 349.795C127.426 349.354 127.176 348.998 126.838 348.726C126.5 348.454 126.069 348.318 125.545 348.318C125.022 348.318 124.591 348.454 124.253 348.726C123.915 348.998 123.664 349.354 123.502 349.795C123.34 350.236 123.258 350.711 123.258 351.222C123.258 351.732 123.34 352.206 123.502 352.643C123.664 353.081 123.915 353.434 124.253 353.702C124.591 353.971 125.022 354.105 125.545 354.105ZM130.797 355V347.364H131.93V348.517H132.01C132.149 348.139 132.401 347.833 132.765 347.597C133.13 347.362 133.541 347.244 133.998 347.244C134.084 347.244 134.192 347.246 134.321 347.249C134.451 347.253 134.548 347.258 134.615 347.264V348.457C134.575 348.447 134.484 348.433 134.341 348.413C134.202 348.389 134.055 348.378 133.899 348.378C133.528 348.378 133.196 348.456 132.904 348.612C132.616 348.764 132.387 348.976 132.218 349.248C132.053 349.516 131.97 349.823 131.97 350.168V355H130.797ZM138.975 355.159C138.239 355.159 137.604 354.997 137.071 354.672C136.54 354.344 136.131 353.886 135.843 353.3C135.558 352.71 135.415 352.024 135.415 351.241C135.415 350.459 135.558 349.77 135.843 349.173C136.131 348.573 136.532 348.106 137.046 347.771C137.563 347.433 138.166 347.264 138.855 347.264C139.253 347.264 139.646 347.33 140.034 347.463C140.422 347.596 140.775 347.811 141.093 348.109C141.411 348.404 141.664 348.795 141.853 349.283C142.042 349.77 142.137 350.37 142.137 351.082V351.58H136.25V350.565H140.944C140.944 350.134 140.857 349.75 140.685 349.412C140.516 349.074 140.274 348.807 139.959 348.612C139.648 348.416 139.28 348.318 138.855 348.318C138.388 348.318 137.984 348.434 137.642 348.666C137.304 348.895 137.044 349.193 136.862 349.561C136.68 349.929 136.588 350.323 136.588 350.744V351.42C136.588 351.997 136.688 352.486 136.887 352.887C137.089 353.285 137.369 353.588 137.727 353.797C138.085 354.002 138.501 354.105 138.975 354.105C139.283 354.105 139.561 354.062 139.81 353.976C140.062 353.886 140.279 353.754 140.461 353.578C140.644 353.399 140.784 353.177 140.884 352.912L142.017 353.23C141.898 353.615 141.698 353.953 141.416 354.244C141.134 354.533 140.786 354.758 140.372 354.92C139.958 355.08 139.492 355.159 138.975 355.159ZM144.777 355.08C144.531 355.08 144.321 354.992 144.145 354.816C143.97 354.64 143.882 354.43 143.882 354.185C143.882 353.939 143.97 353.729 144.145 353.553C144.321 353.378 144.531 353.29 144.777 353.29C145.022 353.29 145.232 353.378 145.408 353.553C145.584 353.729 145.672 353.939 145.672 354.185C145.672 354.347 145.63 354.496 145.547 354.632C145.468 354.768 145.36 354.877 145.224 354.96C145.092 355.04 144.942 355.08 144.777 355.08ZM148.632 355.08C148.387 355.08 148.176 354.992 148.001 354.816C147.825 354.64 147.737 354.43 147.737 354.185C147.737 353.939 147.825 353.729 148.001 353.553C148.176 353.378 148.387 353.29 148.632 353.29C148.877 353.29 149.088 353.378 149.263 353.553C149.439 353.729 149.527 353.939 149.527 354.185C149.527 354.347 149.486 354.496 149.403 354.632C149.323 354.768 149.215 354.877 149.08 354.96C148.947 355.04 148.798 355.08 148.632 355.08ZM152.488 355.08C152.242 355.08 152.032 354.992 151.856 354.816C151.681 354.64 151.593 354.43 151.593 354.185C151.593 353.939 151.681 353.729 151.856 353.553C152.032 353.378 152.242 353.29 152.488 353.29C152.733 353.29 152.943 353.378 153.119 353.553C153.295 353.729 153.382 353.939 153.382 354.185C153.382 354.347 153.341 354.496 153.258 354.632C153.179 354.768 153.071 354.877 152.935 354.96C152.802 355.04 152.653 355.08 152.488 355.08Z" fill="#2563EB"/>
</g>
</g>
<rect x="17" y="110" width="514" height="268" rx="8" stroke="#F4F4F5"/>
</g>
</g>
<defs>
<filter id="filter0_dd_2616_4905" x="0.5" y="0" width="547" height="396.5" filterUnits="userSpaceOnUse" color-interpolation-filters="sRGB">
<feFlood flood-opacity="0" result="BackgroundImageFix"/>
<feColorMatrix in="SourceAlpha" type="matrix" values="0 0 0 0 0 0 0 0 0 0 0 0 0 0 0 0 0 0 127 0" result="hardAlpha"/>
<feOffset dy="2"/>
<feGaussianBlur stdDeviation="8"/>
<feColorMatrix type="matrix" values="0 0 0 0 0.129412 0 0 0 0 0.168627 0 0 0 0 0.211765 0 0 0 0.08 0"/>
<feBlend mode="normal" in2="BackgroundImageFix" result="effect1_dropShadow_2616_4905"/>
<feColorMatrix in="SourceAlpha" type="matrix" values="0 0 0 0 0 0 0 0 0 0 0 0 0 0 0 0 0 0 127 0" result="hardAlpha"/>
<feMorphology radius="1" operator="dilate" in="SourceAlpha" result="effect2_dropShadow_2616_4905"/>
<feOffset/>
<feColorMatrix type="matrix" values="0 0 0 0 0.0235294 0 0 0 0 0.172549 0 0 0 0 0.321569 0 0 0 0.1 0"/>
<feBlend mode="normal" in2="effect1_dropShadow_2616_4905" result="effect2_dropShadow_2616_4905"/>
<feBlend mode="normal" in="SourceGraphic" in2="effect2_dropShadow_2616_4905" result="shape"/>
</filter>
<filter id="filter1_d_2616_4905" x="12.5" y="106.5" width="523" height="277" filterUnits="userSpaceOnUse" color-interpolation-filters="sRGB">
<feFlood flood-opacity="0" result="BackgroundImageFix"/>
<feColorMatrix in="SourceAlpha" type="matrix" values="0 0 0 0 0 0 0 0 0 0 0 0 0 0 0 0 0 0 127 0" result="hardAlpha"/>
<feOffset dy="1"/>
<feGaussianBlur stdDeviation="2"/>
<feComposite in2="hardAlpha" operator="out"/>
<feColorMatrix type="matrix" values="0 0 0 0 0 0 0 0 0 0 0 0 0 0 0 0 0 0 0.05 0"/>
<feBlend mode="normal" in2="BackgroundImageFix" result="effect1_dropShadow_2616_4905"/>
<feBlend mode="normal" in="SourceGraphic" in2="effect1_dropShadow_2616_4905" result="shape"/>
</filter>
<filter id="filter2_d_2616_4905" x="29" y="335" width="134" height="32" filterUnits="userSpaceOnUse" color-interpolation-filters="sRGB">
<feFlood flood-opacity="0" result="BackgroundImageFix"/>
<feColorMatrix in="SourceAlpha" type="matrix" values="0 0 0 0 0 0 0 0 0 0 0 0 0 0 0 0 0 0 127 0" result="hardAlpha"/>
<feOffset dy="1"/>
<feGaussianBlur stdDeviation="2"/>
<feComposite in2="hardAlpha" operator="out"/>
<feColorMatrix type="matrix" values="0 0 0 0 0 0 0 0 0 0 0 0 0 0 0 0 0 0 0.05 0"/>
<feBlend mode="normal" in2="BackgroundImageFix" result="effect1_dropShadow_2616_4905"/>
<feBlend mode="normal" in="SourceGraphic" in2="effect1_dropShadow_2616_4905" result="shape"/>
</filter>
<clipPath id="clip0_2616_4905">
<rect x="17" y="42" width="514" height="36" rx="4" fill="white"/>
</clipPath>
<clipPath id="clip1_2616_4905">
<rect x="17" y="110" width="514" height="268" rx="8" fill="white"/>
</clipPath>
<clipPath id="clip2_2616_4905">
<rect x="273" y="118" width="250" height="36" rx="4" fill="white"/>
</clipPath>
</defs>
</svg>
