<svg width="640" height="480" viewBox="0 0 640 480" fill="none" xmlns="http://www.w3.org/2000/svg">
<g clipPath="url(#clip0_2617_6395)">
<rect width="640" height="480" fill="#F4F4F5"/>
<path d="M316.731 400.888L316.731 519.442" stroke="#D97706" stroke-dasharray="4 4"/>
<path d="M234.189 357.253L292.012 411.292C296.059 415.074 298.356 420.365 298.356 425.904V519.441" stroke="#D97706" stroke-dasharray="4 4"/>
<path d="M403.409 357.253L345.587 411.292C341.54 415.074 339.243 420.365 339.243 425.904V519.441" stroke="#D97706" stroke-dasharray="4 4"/>
<path d="M262.627 335.861L206.635 391.847C203.981 394.501 199.685 394.501 197.041 391.847L140.843 335.654C138.189 333.001 138.189 328.705 140.843 326.062L196.835 270.075C199.489 267.422 203.785 267.422 206.428 270.075L262.627 326.268C265.281 328.912 265.281 333.207 262.627 335.861Z" fill="#EFF6FF" stroke="#2563EB"/>
<path d="M197.809 334.887L178.966 323.896L207.231 308.195L224.503 319.186L197.809 334.887Z" stroke="#2563EB" stroke-width="2" stroke-linejoin="round"/>
<path d="M197.809 353.728V334.886L224.504 319.186V338.027L197.809 353.728Z" stroke="#2563EB" stroke-width="2" stroke-linejoin="round"/>
<path d="M178.966 342.737V323.896L197.809 334.887V353.728L178.966 342.737Z" stroke="#2563EB" stroke-width="2" stroke-linejoin="round"/>
<path d="M207.231 330.294L207.231 347.447" stroke="#2563EB" stroke-width="2" stroke-linecap="round" stroke-linejoin="round"/>
<path d="M216.652 324.606L216.652 342.057" stroke="#2563EB" stroke-width="2" stroke-linecap="round" stroke-linejoin="round"/>
<path d="M370.425 339.661L429.56 398.787C432.363 401.589 436.9 401.589 439.692 398.787L499.046 339.443C501.849 336.64 501.849 332.104 499.046 329.312L439.911 270.187C437.108 267.384 432.571 267.384 429.778 270.187L370.425 329.53C367.633 332.322 367.633 336.858 370.425 339.661Z" fill="#EFF6FF" stroke="#2563EB"/>
<path d="M434.74 334.487C446.267 334.487 455.611 329.39 455.611 323.104C455.611 316.817 446.267 311.721 434.74 311.721C423.213 311.721 413.869 316.817 413.869 323.104C413.869 329.39 423.213 334.487 434.74 334.487Z" stroke="#2563EB" stroke-width="2" stroke-linecap="round" stroke-linejoin="round"/>
<path d="M413.869 323.104V334.487C413.869 340.774 423.213 345.87 434.74 345.87C446.267 345.87 455.611 340.774 455.611 334.487V323.104" stroke="#2563EB" stroke-width="2" stroke-linecap="round" stroke-linejoin="round"/>
<path d="M413.869 334.487V345.87C413.869 352.157 423.213 357.253 434.74 357.253C446.267 357.253 455.611 352.157 455.611 345.87V334.487" stroke="#2563EB" stroke-width="2" stroke-linecap="round" stroke-linejoin="round"/>
<path d="M252.17 408.402L311.301 467.528C314.104 470.33 318.641 470.33 321.433 467.528L380.782 408.184C383.585 405.382 383.585 400.845 380.782 398.054L321.651 338.928C318.848 336.125 314.311 336.125 311.519 338.928L252.17 398.272C249.367 401.074 249.367 405.611 252.17 408.402Z" fill="white" stroke="#D97706"/>
<path d="M316.474 425.994C329.049 425.994 339.243 415.801 339.243 403.228C339.243 390.654 329.049 380.461 316.474 380.461C303.9 380.461 293.706 390.654 293.706 403.228C293.706 415.801 303.9 425.994 316.474 425.994Z" stroke="#111827" stroke-width="2" stroke-miterlimit="10"/>
<path d="M293.706 403.228H339.243" stroke="#111827" stroke-width="2" stroke-linecap="round" stroke-linejoin="round"/>
<path d="M316.474 425.383C321.714 425.383 325.961 415.464 325.961 403.228C325.961 390.992 321.714 381.072 316.474 381.072C311.235 381.072 306.987 390.992 306.987 403.228C306.987 415.464 311.235 425.383 316.474 425.383Z" stroke="#111827" stroke-width="2" stroke-miterlimit="10"/>
<path d="M262.217 55.4703V54.1578L266.64 52.4899L267.05 52.3737L266.64 52.2438L262.217 50.6031V49.2975L268.253 51.8815V52.8795L262.217 55.4703ZM278.773 53.0573C278.773 52.5058 278.84 52 278.972 51.5397C279.108 51.0748 279.304 50.6761 279.56 50.3434C279.815 50.0107 280.125 49.7509 280.489 49.5641C280.854 49.3772 281.266 49.2838 281.727 49.2838C282.023 49.2838 282.294 49.318 282.54 49.3864C282.791 49.4547 283.016 49.555 283.217 49.6871C283.326 49.7555 283.429 49.8352 283.524 49.9264C283.625 50.0175 283.718 50.1178 283.805 50.2272L283.866 49.4205H285.015V56.6598C285.015 57.1474 284.937 57.5804 284.782 57.9586C284.632 58.3369 284.42 58.6582 284.146 58.9225C283.868 59.1868 283.538 59.3873 283.155 59.524C282.772 59.6608 282.349 59.7291 281.884 59.7291C281.692 59.7291 281.474 59.7063 281.228 59.6608C280.981 59.6198 280.733 59.5491 280.482 59.4489C280.227 59.3531 279.981 59.2233 279.744 59.0592C279.512 58.8951 279.311 58.6923 279.143 58.4508L279.799 57.692C279.954 57.8789 280.113 58.0361 280.277 58.1637C280.441 58.2959 280.608 58.4007 280.776 58.4781C280.945 58.5556 281.114 58.6103 281.282 58.6422C281.451 58.6787 281.619 58.6969 281.788 58.6969C282.089 58.6969 282.36 58.6536 282.602 58.567C282.843 58.4804 283.05 58.3528 283.224 58.1842C283.392 58.0201 283.522 57.8151 283.613 57.569C283.704 57.3229 283.75 57.0403 283.75 56.7213V56.0856C283.654 56.1949 283.552 56.2952 283.442 56.3864C283.338 56.4775 283.224 56.5573 283.101 56.6256C282.909 56.7304 282.697 56.8102 282.465 56.8649C282.232 56.9241 281.982 56.9537 281.713 56.9537C281.262 56.9537 280.854 56.858 280.489 56.6666C280.125 56.4752 279.817 56.2109 279.566 55.8737C279.311 55.5364 279.115 55.1399 278.979 54.6842C278.842 54.2239 278.773 53.7295 278.773 53.2008V53.0573ZM280.038 53.2008C280.038 53.5608 280.075 53.9026 280.147 54.2262C280.225 54.5498 280.346 54.8346 280.51 55.0807C280.669 55.3268 280.874 55.5227 281.125 55.6686C281.376 55.8099 281.676 55.8805 282.027 55.8805C282.246 55.8805 282.442 55.8554 282.615 55.8053C282.793 55.7506 282.952 55.6754 283.094 55.5797C283.23 55.484 283.354 55.3701 283.463 55.2379C283.572 55.1058 283.668 54.9599 283.75 54.8004V51.4098C283.668 51.2548 283.572 51.1136 283.463 50.986C283.354 50.8584 283.228 50.7467 283.087 50.651C282.946 50.5599 282.788 50.4892 282.615 50.4391C282.442 50.3844 282.251 50.3571 282.041 50.3571C281.686 50.3571 281.38 50.43 281.125 50.5758C280.874 50.7216 280.669 50.9176 280.51 51.1637C280.346 51.4143 280.225 51.7037 280.147 52.0319C280.075 52.3554 280.038 52.6972 280.038 53.0573V53.2008ZM287.612 49.4205H291.393V55.7233H293.806V56.817H287.612V55.7233H290.128V50.5211H287.612V49.4205ZM289.964 47.4791C289.964 47.3698 289.98 47.2672 290.012 47.1715C290.048 47.0758 290.103 46.9938 290.176 46.9254C290.235 46.8662 290.31 46.8206 290.401 46.7887C290.497 46.7522 290.604 46.734 290.723 46.734C290.841 46.734 290.946 46.7522 291.037 46.7887C291.128 46.8206 291.203 46.8662 291.263 46.9254C291.336 46.9892 291.39 47.069 291.427 47.1647C291.463 47.2604 291.481 47.3652 291.481 47.4791C291.481 47.6842 291.418 47.8551 291.29 47.9918C291.162 48.1285 290.973 48.1969 290.723 48.1969C290.467 48.1969 290.276 48.1285 290.148 47.9918C290.025 47.8551 289.964 47.6842 289.964 47.4791ZM298.816 47.6295V49.4205H301.633V50.3981H298.816V54.4176C298.816 54.7047 298.853 54.9417 298.926 55.1285C298.999 55.3154 299.099 55.4635 299.227 55.5729C299.354 55.6868 299.5 55.7666 299.664 55.8121C299.833 55.8577 300.01 55.8805 300.197 55.8805C300.334 55.8805 300.475 55.8737 300.621 55.86C300.767 55.8418 300.91 55.8212 301.052 55.7985C301.188 55.7757 301.316 55.7529 301.435 55.7301C301.558 55.7028 301.658 55.68 301.735 55.6617L301.913 56.5573C301.808 56.6211 301.681 56.678 301.53 56.7281C301.38 56.7737 301.216 56.8125 301.038 56.8444C300.86 56.8808 300.671 56.9082 300.471 56.9264C300.275 56.9446 300.079 56.9537 299.883 56.9537C299.555 56.9537 299.247 56.9082 298.96 56.817C298.677 56.7213 298.431 56.5709 298.222 56.3658C298.012 56.1653 297.846 55.9056 297.723 55.5865C297.604 55.263 297.545 54.8733 297.545 54.4176V50.3981H295.604V49.4205H297.545V47.6295H298.816ZM312.632 59.6608V49.4205H313.787L313.849 50.2272C313.949 50.0996 314.058 49.9856 314.177 49.8854C314.295 49.7806 314.423 49.6917 314.56 49.6188C314.751 49.5094 314.963 49.4274 315.195 49.3727C315.432 49.3134 315.685 49.2838 315.954 49.2838C316.428 49.2838 316.847 49.3772 317.212 49.5641C317.576 49.7509 317.882 50.0107 318.128 50.3434C318.374 50.6761 318.561 51.0748 318.688 51.5397C318.816 52 318.88 52.5058 318.88 53.0573V53.2008C318.88 53.7295 318.816 54.2239 318.688 54.6842C318.561 55.1399 318.374 55.5364 318.128 55.8737C317.882 56.2109 317.576 56.4752 317.212 56.6666C316.852 56.858 316.439 56.9537 315.975 56.9537C315.692 56.9537 315.428 56.9241 315.182 56.8649C314.94 56.8056 314.721 56.7213 314.525 56.6119C314.407 56.5436 314.295 56.4684 314.19 56.3864C314.086 56.2998 313.988 56.2063 313.896 56.1061V59.6608H312.632ZM317.615 53.0573C317.615 52.6972 317.574 52.3554 317.492 52.0319C317.415 51.7037 317.294 51.4143 317.13 51.1637C316.961 50.9176 316.749 50.7216 316.494 50.5758C316.239 50.43 315.934 50.3571 315.578 50.3571C315.382 50.3571 315.2 50.3798 315.031 50.4254C314.867 50.471 314.719 50.5371 314.587 50.6237C314.441 50.7102 314.311 50.8173 314.197 50.9449C314.083 51.0726 313.983 51.2138 313.896 51.3688V54.9303C313.974 55.067 314.063 55.1946 314.163 55.3131C314.263 55.4316 314.377 55.5319 314.505 55.6139C314.651 55.7096 314.812 55.7848 314.99 55.8395C315.173 55.8942 315.373 55.9215 315.592 55.9215C315.943 55.9215 316.246 55.8486 316.501 55.7028C316.756 55.5524 316.966 55.3518 317.13 55.1012C317.294 54.8505 317.415 54.5612 317.492 54.233C317.574 53.9049 317.615 53.5608 317.615 53.2008V53.0573ZM325.921 56.817L325.846 55.7985C325.6 56.163 325.292 56.4479 324.923 56.653C324.554 56.8535 324.128 56.9537 323.645 56.9537C323.257 56.9537 322.906 56.8945 322.592 56.776C322.277 56.653 322.008 56.4638 321.785 56.2086C321.562 55.9534 321.389 55.6298 321.266 55.2379C321.147 54.8414 321.088 54.3675 321.088 53.816V49.4205H322.353V53.8297C322.353 54.2308 322.384 54.5634 322.448 54.8278C322.512 55.0921 322.608 55.3017 322.735 55.4567C322.863 55.6162 323.018 55.7278 323.2 55.7916C323.387 55.8554 323.601 55.8873 323.843 55.8873C324.125 55.8873 324.378 55.8554 324.602 55.7916C324.825 55.7233 325.019 55.6298 325.183 55.5114C325.319 55.4156 325.438 55.3017 325.538 55.1696C325.643 55.0328 325.729 54.8847 325.798 54.7252V49.4205H327.069V56.817H325.921ZM334.37 54.8551C334.37 54.7047 334.34 54.5703 334.281 54.4518C334.222 54.3287 334.122 54.2171 333.98 54.1168C333.839 54.0166 333.652 53.9254 333.42 53.8434C333.188 53.7568 332.898 53.6793 332.552 53.611C332.128 53.5244 331.741 53.4196 331.39 53.2965C331.043 53.1735 330.747 53.0253 330.501 52.8522C330.25 52.6836 330.057 52.4853 329.92 52.2574C329.783 52.025 329.715 51.7561 329.715 51.4508C329.715 51.15 329.785 50.8698 329.927 50.61C330.068 50.3457 330.266 50.1155 330.521 49.9196C330.777 49.7236 331.08 49.5686 331.431 49.4547C331.786 49.3408 332.176 49.2838 332.6 49.2838C333.055 49.2838 333.465 49.3431 333.83 49.4615C334.195 49.58 334.505 49.7441 334.76 49.9537C335.015 50.1634 335.211 50.4095 335.348 50.692C335.489 50.97 335.56 51.2708 335.56 51.5944H334.295C334.295 51.4349 334.254 51.2799 334.172 51.1295C334.09 50.9746 333.976 50.8378 333.83 50.7194C333.684 50.6009 333.507 50.5052 333.297 50.4323C333.092 50.3593 332.859 50.3229 332.6 50.3229C332.331 50.3229 332.094 50.3525 331.889 50.4117C331.688 50.471 331.522 50.5507 331.39 50.651C331.253 50.7513 331.15 50.8675 331.082 50.9996C331.014 51.1318 330.979 51.2685 330.979 51.4098C330.979 51.5556 331.007 51.6855 331.062 51.7994C331.116 51.9134 331.212 52.0159 331.349 52.1071C331.481 52.1982 331.659 52.2802 331.882 52.3531C332.11 52.4261 332.397 52.4967 332.743 52.5651C333.199 52.6608 333.607 52.7724 333.967 52.9C334.327 53.0231 334.63 53.1712 334.876 53.3444C335.122 53.5221 335.309 53.7272 335.437 53.9596C335.569 54.192 335.635 54.4609 335.635 54.7662C335.635 55.0944 335.56 55.3929 335.409 55.6617C335.263 55.9306 335.058 56.1608 334.794 56.3522C334.53 56.5436 334.213 56.6917 333.844 56.7965C333.475 56.9013 333.071 56.9537 332.634 56.9537C332.132 56.9537 331.686 56.8877 331.294 56.7555C330.902 56.6188 330.572 56.4388 330.303 56.2155C330.029 55.9967 329.82 55.7415 329.674 55.4498C329.533 55.1582 329.462 54.8551 329.462 54.5406H330.727C330.745 54.8004 330.813 55.0192 330.932 55.1969C331.055 55.3746 331.207 55.5182 331.39 55.6276C331.567 55.7369 331.766 55.8144 331.984 55.86C332.203 55.9056 332.42 55.9283 332.634 55.9283C332.971 55.9283 333.265 55.8896 333.516 55.8121C333.766 55.7301 333.962 55.6184 334.104 55.4772C334.19 55.3906 334.256 55.2949 334.302 55.1901C334.347 55.0852 334.37 54.9736 334.37 54.8551ZM339.128 50.5211C339.228 50.3707 339.34 50.234 339.463 50.111C339.586 49.9834 339.716 49.8717 339.853 49.776C340.071 49.6165 340.311 49.4957 340.57 49.4137C340.835 49.3317 341.115 49.2884 341.411 49.2838C341.799 49.2838 342.149 49.3408 342.464 49.4547C342.783 49.5641 343.054 49.7373 343.277 49.9742C343.501 50.2112 343.672 50.512 343.79 50.8766C343.913 51.2366 343.975 51.665 343.975 52.1617V56.817H342.71V52.1481C342.71 51.8564 342.676 51.6012 342.607 51.3824C342.539 51.1591 342.439 50.9746 342.307 50.8287C342.165 50.6692 341.988 50.5507 341.773 50.4733C341.559 50.3912 341.313 50.3525 341.035 50.3571C340.807 50.3571 340.591 50.389 340.386 50.4528C340.181 50.5166 339.992 50.6077 339.818 50.7262C339.682 50.8173 339.554 50.9244 339.436 51.0475C339.322 51.166 339.219 51.2981 339.128 51.444V56.817H337.863V46.317H339.128V50.5211ZM356.881 55.9967C356.881 55.7278 356.963 55.4977 357.127 55.3063C357.291 55.1149 357.539 55.0192 357.872 55.0192C358.2 55.0192 358.449 55.1149 358.617 55.3063C358.79 55.4931 358.877 55.7233 358.877 55.9967C358.877 56.2656 358.79 56.4912 358.617 56.6735C358.444 56.8558 358.196 56.9469 357.872 56.9469C357.544 56.9469 357.296 56.8558 357.127 56.6735C356.963 56.4866 356.881 56.261 356.881 55.9967ZM365.289 55.9967C365.289 55.7278 365.371 55.4977 365.535 55.3063C365.699 55.1149 365.948 55.0192 366.28 55.0192C366.608 55.0192 366.857 55.1149 367.025 55.3063C367.199 55.4931 367.285 55.7233 367.285 55.9967C367.285 56.2656 367.199 56.4912 367.025 56.6735C366.852 56.8558 366.604 56.9469 366.28 56.9469C365.952 56.9469 365.704 56.8558 365.535 56.6735C365.371 56.4866 365.289 56.261 365.289 55.9967ZM373.697 55.9967C373.697 55.7278 373.779 55.4977 373.943 55.3063C374.107 55.1149 374.356 55.0192 374.688 55.0192C375.017 55.0192 375.265 55.1149 375.434 55.3063C375.607 55.4931 375.693 55.7233 375.693 55.9967C375.693 56.2656 375.607 56.4912 375.434 56.6735C375.26 56.8558 375.012 56.9469 374.688 56.9469C374.36 56.9469 374.112 56.8558 373.943 56.6735C373.779 56.4866 373.697 56.261 373.697 55.9967Z" fill="#111827"/>
<path d="M326.364 277.636L320 284L313.636 277.636" stroke="#9CA3AF" stroke-width="2" stroke-linecap="round" stroke-linejoin="round"/>
<path d="M320 284L320 260" stroke="#9CA3AF" stroke-width="2" stroke-linecap="round" stroke-linejoin="round"/>
<path d="M326.364 99.4529L320 105.817L313.636 99.4529" stroke="#9CA3AF" stroke-width="2" stroke-linecap="round" stroke-linejoin="round"/>
<path d="M320 105.817L320 81.817" stroke="#9CA3AF" stroke-width="2" stroke-linecap="round" stroke-linejoin="round"/>
<path d="M261.738 184.528L315.312 238.096C317.851 240.635 321.961 240.635 324.491 238.096L378.262 184.33C380.801 181.791 380.801 177.681 378.262 175.152L324.688 121.584C322.149 119.045 318.039 119.045 315.509 121.584L261.738 175.35C259.199 177.889 259.199 181.999 261.738 184.528Z" fill="white" stroke="#D4D4D8"/>
<path d="M316.442 183.396L299.37 173.438L324.978 159.213L340.627 169.171L316.442 183.396Z" stroke="#111827" stroke-width="2" stroke-linejoin="round"/>
<path d="M316.442 200.466V183.396L340.627 169.171V186.241L316.442 200.466Z" stroke="#111827" stroke-width="2" stroke-linejoin="round"/>
<path d="M299.37 190.508V173.438L316.442 183.396V200.466L299.37 190.508Z" stroke="#111827" stroke-width="2" stroke-linejoin="round"/>
<path d="M324.978 179.235L324.978 194.776" stroke="#111827" stroke-width="2" stroke-linecap="round" stroke-linejoin="round"/>
<path d="M333.513 174.082L333.513 189.892" stroke="#111827" stroke-width="2" stroke-linecap="round" stroke-linejoin="round"/>
<path d="M247.589 179.735C247.865 179.735 248.089 179.511 248.089 179.235V174.735C248.089 174.459 247.865 174.235 247.589 174.235C247.313 174.235 247.089 174.459 247.089 174.735V178.735H243.089C242.813 178.735 242.589 178.959 242.589 179.235C242.589 179.511 242.813 179.735 243.089 179.735H247.589ZM190.5 110.833L190.854 111.186L190.5 110.833ZM190.5 122.146L190.854 121.793L190.5 122.146ZM247.236 53.3904L245.808 54.8176L246.515 55.5247L247.943 54.0975L247.236 53.3904ZM242.954 57.6721L240.099 60.5265L240.807 61.2336L243.661 58.3792L242.954 57.6721ZM237.245 63.3809L234.391 66.2354L235.098 66.9425L237.952 64.088L237.245 63.3809ZM231.536 69.0898L228.682 71.9443L229.389 72.6514L232.243 69.7969L231.536 69.0898ZM225.827 74.7987L222.973 77.6531L223.68 78.3602L226.534 75.5058L225.827 74.7987ZM220.118 80.5076L217.264 83.362L217.971 84.0691L220.826 81.2147L220.118 80.5076ZM214.41 86.2165L211.555 89.0709L212.262 89.778L215.117 86.9236L214.41 86.2165ZM208.701 91.9253L205.846 94.7798L206.553 95.4869L209.408 92.6325L208.701 91.9253ZM202.992 97.6342L200.137 100.489L200.844 101.196L203.699 98.3413L202.992 97.6342ZM197.283 103.343L194.428 106.198L195.136 106.905L197.99 104.05L197.283 103.343ZM191.574 109.052L190.147 110.479L190.854 111.186L192.281 109.759L191.574 109.052ZM190.147 110.479C189.746 110.88 189.393 111.312 189.089 111.766L189.919 112.323C190.188 111.922 190.499 111.541 190.854 111.186L190.147 110.479ZM187.82 114.831C187.603 115.925 187.603 117.054 187.82 118.148L188.801 117.954C188.609 116.988 188.609 115.991 188.801 115.026L187.82 114.831ZM189.089 121.213C189.393 121.668 189.746 122.099 190.147 122.5L190.854 121.793C190.499 121.438 190.188 121.057 189.919 120.657L189.089 121.213ZM190.147 122.5L191.574 123.927L192.281 123.22L190.854 121.793L190.147 122.5ZM194.428 126.782L197.283 129.636L197.99 128.929L195.136 126.075L194.428 126.782ZM200.137 132.491L202.992 135.345L203.699 134.638L200.844 131.783L200.137 132.491ZM205.846 138.199L208.701 141.054L209.408 140.347L206.553 137.492L205.846 138.199ZM211.555 143.908L214.41 146.763L215.117 146.056L212.262 143.201L211.555 143.908ZM217.264 149.617L220.118 152.472L220.826 151.765L217.971 148.91L217.264 149.617ZM222.973 155.326L225.827 158.181L226.534 157.473L223.68 154.619L222.973 155.326ZM228.682 161.035L231.536 163.889L232.243 163.182L229.389 160.328L228.682 161.035ZM234.391 166.744L237.245 169.598L237.952 168.891L235.098 166.037L234.391 166.744ZM240.1 172.453L242.954 175.307L243.661 174.6L240.807 171.746L240.1 172.453ZM245.808 178.162L247.236 179.589L247.943 178.882L246.516 177.455L245.808 178.162Z" fill="#D97706"/>
<path d="M162.103 295.162C162.379 295.162 162.603 294.938 162.603 294.662V290.162C162.603 289.886 162.379 289.662 162.103 289.662C161.827 289.662 161.603 289.886 161.603 290.162V294.162H157.603C157.327 294.162 157.103 294.386 157.103 294.662C157.103 294.938 157.327 295.162 157.603 295.162H162.103ZM105.014 226.26L104.66 225.906L105.014 226.26ZM162.456 294.309L161.029 292.881L160.322 293.588L161.749 295.016L162.456 294.309ZM158.175 290.027L155.32 287.172L154.613 287.88L157.468 290.734L158.175 290.027ZM152.466 284.318L149.611 281.464L148.904 282.171L151.759 285.025L152.466 284.318ZM146.757 278.609L143.903 275.755L143.195 276.462L146.05 279.316L146.757 278.609ZM141.048 272.9L138.194 270.046L137.487 270.753L140.341 273.607L141.048 272.9ZM135.339 267.191L132.485 264.337L131.778 265.044L134.632 267.898L135.339 267.191ZM129.63 261.482L126.776 258.628L126.069 259.335L128.923 262.19L129.63 261.482ZM123.921 255.774L121.067 252.919L120.36 253.626L123.214 256.481L123.921 255.774ZM118.213 250.065L115.358 247.21L114.651 247.917L117.505 250.772L118.213 250.065ZM112.504 244.356L109.649 241.501L108.942 242.208L111.797 245.063L112.504 244.356ZM106.795 238.647L105.368 237.22L104.66 237.927L106.088 239.354L106.795 238.647ZM105.368 237.22C105.013 236.865 104.702 236.484 104.433 236.083L103.602 236.64C103.907 237.094 104.26 237.526 104.66 237.927L105.368 237.22ZM103.314 233.38C103.123 232.415 103.123 231.418 103.314 230.452L102.333 230.258C102.117 231.352 102.117 232.48 102.333 233.574L103.314 233.38ZM104.433 227.749C104.702 227.349 105.013 226.968 105.368 226.613L104.66 225.906C104.26 226.307 103.907 226.738 103.602 227.193L104.433 227.749ZM105.368 226.613L106.78 225.2L106.073 224.493L104.66 225.906L105.368 226.613ZM109.605 222.375L112.431 219.55L111.724 218.843L108.898 221.668L109.605 222.375ZM115.256 216.725L118.081 213.9L117.374 213.193L114.549 216.018L115.256 216.725ZM120.906 211.074L123.731 208.249L123.024 207.542L120.199 210.367L120.906 211.074ZM126.557 205.424L129.382 202.599L128.675 201.892L125.85 204.717L126.557 205.424ZM132.207 199.774L135.032 196.948L134.325 196.241L131.5 199.066L132.207 199.774ZM137.858 194.123L140.683 191.298L139.976 190.591L137.15 193.416L137.858 194.123ZM143.508 188.473L146.333 185.648L145.626 184.94L142.801 187.766L143.508 188.473ZM149.158 182.822L151.984 179.997L151.276 179.29L148.451 182.115L149.158 182.822ZM154.809 177.172L157.634 174.347L156.927 173.64L154.102 176.465L154.809 177.172ZM160.459 171.522L163.284 168.696L162.577 167.989L159.752 170.814L160.459 171.522ZM166.11 165.871L168.935 163.046L168.228 162.339L165.403 165.164L166.11 165.871ZM171.76 160.221L174.585 157.395L173.878 156.688L171.053 159.514L171.76 160.221ZM177.41 154.57L180.236 151.745L179.529 151.038L176.703 153.863L177.41 154.57ZM183.061 148.92L185.886 146.095L185.179 145.387L182.354 148.213L183.061 148.92ZM188.711 143.269L191.537 140.444L190.829 139.737L188.004 142.562L188.711 143.269ZM194.362 137.619L195.774 136.206L195.067 135.499L193.655 136.912L194.362 137.619Z" fill="#D97706"/>
<path d="M477.897 295.162C477.621 295.162 477.397 294.938 477.397 294.662V290.162C477.397 289.886 477.621 289.662 477.897 289.662C478.173 289.662 478.397 289.886 478.397 290.162V294.162H482.397C482.673 294.162 482.897 294.386 482.897 294.662C482.897 294.938 482.673 295.162 482.397 295.162H477.897ZM534.986 226.26L535.339 225.906L534.986 226.26ZM477.543 294.309L478.971 292.881L479.678 293.588L478.251 295.016L477.543 294.309ZM481.825 290.027L484.68 287.172L485.387 287.88L482.532 290.734L481.825 290.027ZM487.534 284.318L490.388 281.464L491.096 282.171L488.241 285.025L487.534 284.318ZM493.243 278.609L496.097 275.755L496.804 276.462L493.95 279.316L493.243 278.609ZM498.952 272.9L501.806 270.046L502.513 270.753L499.659 273.607L498.952 272.9ZM504.661 267.191L507.515 264.337L508.222 265.044L505.368 267.898L504.661 267.191ZM510.37 261.482L513.224 258.628L513.931 259.335L511.077 262.19L510.37 261.482ZM516.078 255.774L518.933 252.919L519.64 253.626L516.786 256.481L516.078 255.774ZM521.787 250.065L524.642 247.21L525.349 247.917L522.494 250.772L521.787 250.065ZM527.496 244.356L530.351 241.501L531.058 242.208L528.203 245.063L527.496 244.356ZM533.205 238.647L534.632 237.22L535.339 237.927L533.912 239.354L533.205 238.647ZM534.632 237.22C534.987 236.865 535.298 236.484 535.567 236.083L536.398 236.64C536.093 237.094 535.74 237.526 535.339 237.927L534.632 237.22ZM536.686 233.38C536.877 232.415 536.877 231.418 536.686 230.452L537.667 230.258C537.883 231.352 537.883 232.48 537.667 233.574L536.686 233.38ZM535.567 227.749C535.298 227.349 534.987 226.968 534.632 226.613L535.339 225.906C535.74 226.307 536.093 226.738 536.398 227.193L535.567 227.749ZM534.632 226.613L533.22 225.2L533.927 224.493L535.339 225.906L534.632 226.613ZM530.394 222.375L527.569 219.55L528.276 218.843L531.102 221.668L530.394 222.375ZM524.744 216.725L521.919 213.9L522.626 213.193L525.451 216.018L524.744 216.725ZM519.094 211.074L516.268 208.249L516.976 207.542L519.801 210.367L519.094 211.074ZM513.443 205.424L510.618 202.599L511.325 201.892L514.15 204.717L513.443 205.424ZM507.793 199.774L504.968 196.948L505.675 196.241L508.5 199.066L507.793 199.774ZM502.142 194.123L499.317 191.298L500.024 190.591L502.849 193.416L502.142 194.123ZM496.492 188.473L493.667 185.648L494.374 184.94L497.199 187.766L496.492 188.473ZM490.842 182.822L488.016 179.997L488.723 179.29L491.549 182.115L490.842 182.822ZM485.191 177.172L482.366 174.347L483.073 173.64L485.898 176.465L485.191 177.172ZM479.541 171.522L476.715 168.696L477.423 167.989L480.248 170.814L479.541 171.522ZM473.89 165.871L471.065 163.046L471.772 162.339L474.597 165.164L473.89 165.871ZM468.24 160.221L465.415 157.395L466.122 156.688L468.947 159.514L468.24 160.221ZM462.589 154.57L459.764 151.745L460.471 151.038L463.297 153.863L462.589 154.57ZM456.939 148.92L454.114 146.095L454.821 145.387L457.646 148.213L456.939 148.92ZM451.289 143.269L448.463 140.444L449.17 139.737L451.996 142.562L451.289 143.269ZM445.638 137.619L444.226 136.206L444.933 135.499L446.345 136.912L445.638 137.619Z" fill="#D97706"/>
<path d="M392.411 179.735C392.135 179.735 391.911 179.511 391.911 179.235V174.735C391.911 174.459 392.135 174.235 392.411 174.235C392.687 174.235 392.911 174.459 392.911 174.735V178.735H396.911C397.187 178.735 397.411 178.959 397.411 179.235C397.411 179.511 397.187 179.735 396.911 179.735H392.411ZM449.5 110.833L449.146 111.186L449.5 110.833ZM449.5 122.146L449.146 121.793L449.5 122.146ZM392.765 53.3904L394.192 54.8176L393.485 55.5247L392.058 54.0975L392.765 53.3904ZM397.046 57.6721L399.901 60.5265L399.194 61.2336L396.339 58.3792L397.046 57.6721ZM402.755 63.3809L405.61 66.2354L404.903 66.9425L402.048 64.088L402.755 63.3809ZM408.464 69.0898L411.319 71.9443L410.612 72.6514L407.757 69.7969L408.464 69.0898ZM414.173 74.7987L417.028 77.6531L416.32 78.3602L413.466 75.5058L414.173 74.7987ZM419.882 80.5076L422.736 83.362L422.029 84.0691L419.175 81.2147L419.882 80.5076ZM425.591 86.2165L428.445 89.0709L427.738 89.778L424.884 86.9236L425.591 86.2165ZM431.3 91.9253L434.154 94.7798L433.447 95.4869L430.593 92.6325L431.3 91.9253ZM437.009 97.6342L439.863 100.489L439.156 101.196L436.301 98.3413L437.009 97.6342ZM442.717 103.343L445.572 106.198L444.865 106.905L442.01 104.05L442.717 103.343ZM448.426 109.052L449.854 110.479L449.146 111.186L447.719 109.759L448.426 109.052ZM449.854 110.479C450.255 110.88 450.607 111.312 450.912 111.766L450.081 112.323C449.813 111.922 449.501 111.541 449.146 111.186L449.854 110.479ZM452.181 114.831C452.397 115.925 452.397 117.054 452.181 118.148L451.2 117.954C451.391 116.988 451.391 115.991 451.2 115.026L452.181 114.831ZM450.912 121.213C450.607 121.668 450.255 122.099 449.854 122.5L449.146 121.793C449.501 121.438 449.812 121.057 450.081 120.657L450.912 121.213ZM449.854 122.5L448.426 123.927L447.719 123.22L449.146 121.793L449.854 122.5ZM445.572 126.782L442.717 129.636L442.01 128.929L444.865 126.075L445.572 126.782ZM439.863 132.491L437.009 135.345L436.301 134.638L439.156 131.783L439.863 132.491ZM434.154 138.199L431.3 141.054L430.593 140.347L433.447 137.492L434.154 138.199ZM428.445 143.908L425.591 146.763L424.884 146.056L427.738 143.201L428.445 143.908ZM422.736 149.617L419.882 152.472L419.175 151.765L422.029 148.91L422.736 149.617ZM417.027 155.326L414.173 158.181L413.466 157.473L416.32 154.619L417.027 155.326ZM411.319 161.035L408.464 163.889L407.757 163.182L410.611 160.328L411.319 161.035ZM405.61 166.744L402.755 169.598L402.048 168.891L404.903 166.037L405.61 166.744ZM399.901 172.453L397.046 175.307L396.339 174.6L399.194 171.746L399.901 172.453ZM394.192 178.162L392.765 179.589L392.058 178.882L393.485 177.455L394.192 178.162Z" fill="#D97706"/>
</g>
<defs>
<clipPath id="clip0_2617_6395">
<rect width="640" height="480" fill="white"/>
</clipPath>
</defs>
</svg>
