<svg width="353" height="260" viewBox="0 0 353 260" fill="none" xmlns="http://www.w3.org/2000/svg">
<path d="M37.6665 19.0128V237.987" stroke="#F4F4F5" stroke-width="0.5"/>
<path d="M57.6665 19.0128V237.987" stroke="#F4F4F5" stroke-width="0.5"/>
<path d="M77.6665 19.0128V237.987" stroke="#F4F4F5" stroke-width="0.5"/>
<path d="M97.6665 19.0128V237.987" stroke="#E4E4E7" stroke-width="0.5"/>
<path d="M117.667 19.0128V237.987" stroke="#F4F4F5" stroke-width="0.5"/>
<path d="M137.667 19.0128V237.987" stroke="#F4F4F5" stroke-width="0.5"/>
<path d="M157.667 19.0128V237.987" stroke="#F4F4F5" stroke-width="0.5"/>
<path d="M177.667 19.0128V237.987" stroke="#E4E4E7" stroke-width="0.5"/>
<path d="M197.667 19.0128V237.987" stroke="#F4F4F5" stroke-width="0.5"/>
<path d="M217.667 19.0128V237.987" stroke="#F4F4F5" stroke-width="0.5"/>
<path d="M237.667 19.0128V237.987" stroke="#F4F4F5" stroke-width="0.5"/>
<path d="M257.667 19.0128V237.987" stroke="#E4E4E7" stroke-width="0.5"/>
<path d="M277.667 19.0128V237.987" stroke="#F4F4F5" stroke-width="0.5"/>
<path d="M297.667 19.0128V237.987" stroke="#F4F4F5" stroke-width="0.5"/>
<path d="M314.667 19.0128L37.6665 19.0128" stroke="#F4F4F5" stroke-width="0.5"/>
<path d="M314.667 39.0128L37.6665 39.0128" stroke="#F4F4F5" stroke-width="0.5"/>
<path d="M314.667 59.0128L37.6665 59.0128" stroke="#E4E4E7" stroke-width="0.5"/>
<path d="M314.667 79.0129L37.6665 79.0129" stroke="#F4F4F5" stroke-width="0.5"/>
<path d="M314.667 99.0129L37.6665 99.0129" stroke="#F4F4F5" stroke-width="0.5"/>
<path d="M314.667 119.013L37.6665 119.013" stroke="#F4F4F5" stroke-width="0.5"/>
<path d="M314.667 139.013L37.6665 139.013" stroke="#E4E4E7" stroke-width="0.5"/>
<path d="M314.667 159.013L37.6665 159.013" stroke="#F4F4F5" stroke-width="0.5"/>
<path d="M314.667 179.013L37.6665 179.013" stroke="#F4F4F5" stroke-width="0.5"/>
<path d="M314.667 199.013L37.6665 199.013" stroke="#F4F4F5" stroke-width="0.5"/>
<path d="M314.667 219.013L37.6665 219.013" stroke="#F4F4F5" stroke-width="0.5"/>
<path d="M314.667 239.013L37.6665 239.013" stroke="#F4F4F5" stroke-width="0.5"/>
<path d="M314.667 259.013L37.6665 259.013" stroke="#F4F4F5" stroke-width="0.5"/>
<rect x="280.552" y="0.5" width="72.4478" height="218.974" fill="url(#paint0_linear_2648_19263)"/>
<rect x="37.6665" y="71.9568" width="71.4568" height="277.333" transform="rotate(-90 37.6665 71.9568)" fill="url(#paint1_linear_2648_19263)"/>
<rect width="111.282" height="277.333" transform="matrix(-4.8707e-08 1 1 3.92282e-08 37.6665 145.218)" fill="url(#paint2_linear_2648_19263)"/>
<rect width="72.4478" height="218.974" transform="matrix(-1 0 0 1 73.1143 0.5)" fill="url(#paint3_linear_2648_19263)"/>
<defs>
<linearGradient id="paint0_linear_2648_19263" x1="353" y1="109.987" x2="280.552" y2="109.987" gradientUnits="userSpaceOnUse">
<stop stop-color="white"/>
<stop offset="1" stop-color="white" stop-opacity="0"/>
</linearGradient>
<linearGradient id="paint1_linear_2648_19263" x1="109.123" y1="210.624" x2="37.6665" y2="210.624" gradientUnits="userSpaceOnUse">
<stop stop-color="white"/>
<stop offset="1" stop-color="white" stop-opacity="0"/>
</linearGradient>
<linearGradient id="paint2_linear_2648_19263" x1="111.282" y1="138.667" x2="-1.57513e-06" y2="138.667" gradientUnits="userSpaceOnUse">
<stop offset="0.720472" stop-color="white"/>
<stop offset="1" stop-color="white" stop-opacity="0"/>
</linearGradient>
<linearGradient id="paint3_linear_2648_19263" x1="72.4478" y1="109.487" x2="-1.02545e-06" y2="109.487" gradientUnits="userSpaceOnUse">
<stop stop-color="white"/>
<stop offset="1" stop-color="white" stop-opacity="0"/>
</linearGradient>
</defs>
</svg>
