<svg width="1120" height="480" viewBox="0 0 1120 480" fill="none" xmlns="http://www.w3.org/2000/svg">
<rect width="1120" height="480" fill="#0F0F11"/>
<path d="M319.365 180.944C354.561 145.748 411.626 145.748 446.822 180.944L505.061 239.183L438.587 305.657C404.907 339.337 350.3 339.337 316.62 305.657V305.657C282.94 271.976 282.94 217.37 316.62 183.69L319.365 180.944Z" stroke="url(#paint0_angular_768_27975)" stroke-width="50"/>
<path d="M774.363 330.001C724.658 379.707 644.069 379.707 594.363 330.001L504.363 240.001L594.363 150.001C644.069 100.295 724.658 100.295 774.363 150.001V150.001C824.069 199.707 824.069 280.295 774.363 330.001V330.001Z" stroke="url(#paint1_angular_768_27975)" stroke-width="50"/>
<path fill-rule="evenodd" clip-rule="evenodd" d="M493.266 215.723L458.051 250.937L222.971 250.937V284.157L134.936 233.33L222.971 182.503V215.723L493.266 215.723Z" fill="#60A5FA"/>
<path d="M317.869 227.529V224.869H331.803V227.529H326.4V242.33H323.283V227.529H317.869ZM337.146 242.6C335.873 242.6 334.771 242.326 333.842 241.779C332.92 241.225 332.209 240.455 331.709 239.471C331.209 238.479 330.959 237.33 330.959 236.025C330.959 234.729 331.213 233.584 331.721 232.592C332.229 231.592 332.932 230.811 333.83 230.248C334.736 229.686 335.787 229.404 336.982 229.404C337.842 229.404 338.631 229.549 339.35 229.838C340.076 230.127 340.709 230.549 341.248 231.104C341.787 231.658 342.205 232.342 342.502 233.154C342.799 233.959 342.947 234.881 342.947 235.92V236.787H332.248V234.736H341.447L340.088 235.311C340.088 234.592 339.967 233.971 339.725 233.447C339.482 232.916 339.131 232.506 338.67 232.217C338.217 231.92 337.666 231.771 337.018 231.771C336.377 231.771 335.822 231.92 335.354 232.217C334.893 232.506 334.537 232.912 334.287 233.436C334.037 233.951 333.912 234.545 333.912 235.217V236.564C333.912 237.33 334.045 237.99 334.311 238.545C334.576 239.092 334.955 239.514 335.447 239.811C335.939 240.1 336.525 240.244 337.205 240.244C337.674 240.244 338.096 240.178 338.471 240.045C338.846 239.904 339.162 239.705 339.42 239.447C339.678 239.182 339.869 238.869 339.994 238.51L342.771 238.768C342.6 239.525 342.252 240.193 341.729 240.771C341.205 241.35 340.553 241.799 339.771 242.119C338.99 242.439 338.115 242.6 337.146 242.6ZM350.131 242.611C349.123 242.611 348.225 242.459 347.436 242.154C346.654 241.85 346.018 241.404 345.525 240.818C345.041 240.232 344.744 239.518 344.635 238.674L347.529 238.439C347.646 239.057 347.924 239.529 348.361 239.857C348.799 240.178 349.385 240.338 350.119 240.338C350.854 240.338 351.432 240.193 351.854 239.904C352.275 239.615 352.486 239.252 352.486 238.814C352.486 238.439 352.338 238.135 352.041 237.9C351.744 237.658 351.318 237.479 350.764 237.361L348.596 236.904C347.393 236.654 346.482 236.229 345.865 235.627C345.256 235.018 344.951 234.24 344.951 233.295C344.951 232.514 345.162 231.834 345.584 231.256C346.014 230.67 346.611 230.217 347.377 229.896C348.15 229.568 349.049 229.404 350.072 229.404C351.072 229.404 351.939 229.561 352.674 229.873C353.416 230.186 354.006 230.627 354.443 231.197C354.881 231.76 355.146 232.428 355.24 233.201L352.486 233.436C352.416 232.928 352.178 232.506 351.771 232.17C351.365 231.826 350.818 231.654 350.131 231.654C349.482 231.654 348.955 231.799 348.549 232.088C348.15 232.369 347.951 232.725 347.951 233.154C347.951 233.529 348.096 233.838 348.385 234.08C348.674 234.322 349.111 234.506 349.697 234.631L351.924 235.1C353.158 235.357 354.068 235.771 354.654 236.342C355.248 236.904 355.545 237.643 355.545 238.557C355.545 239.377 355.314 240.092 354.854 240.701C354.393 241.303 353.752 241.771 352.932 242.107C352.119 242.443 351.186 242.611 350.131 242.611ZM364.299 229.627V232.018H356.74V229.627H364.299ZM358.768 226.369H361.768V238.721C361.768 239.174 361.861 239.498 362.049 239.693C362.244 239.889 362.576 239.986 363.045 239.986C363.217 239.986 363.42 239.979 363.654 239.963C363.896 239.947 364.092 239.932 364.24 239.916L364.463 242.283C364.197 242.33 363.893 242.361 363.549 242.377C363.213 242.4 362.885 242.412 362.564 242.412C361.299 242.412 360.35 242.131 359.717 241.568C359.084 241.006 358.768 240.174 358.768 239.072V226.369ZM366.408 242.33V229.627H369.408V242.33H366.408ZM367.908 227.787C367.408 227.787 366.986 227.627 366.643 227.307C366.307 226.979 366.139 226.58 366.139 226.111C366.139 225.635 366.307 225.236 366.643 224.916C366.986 224.596 367.408 224.436 367.908 224.436C368.408 224.436 368.826 224.596 369.162 224.916C369.506 225.236 369.678 225.635 369.678 226.111C369.678 226.58 369.506 226.979 369.162 227.307C368.818 227.627 368.4 227.787 367.908 227.787ZM375.291 235.029V242.33H372.291V229.627H375.197L375.209 232.826H374.787C375.17 231.709 375.721 230.861 376.439 230.283C377.158 229.705 378.053 229.416 379.123 229.416C380.006 229.416 380.779 229.607 381.443 229.99C382.107 230.365 382.627 230.92 383.002 231.654C383.377 232.381 383.564 233.275 383.564 234.338V242.33H380.564V234.807C380.564 233.908 380.342 233.221 379.896 232.744C379.459 232.26 378.842 232.018 378.045 232.018C377.514 232.018 377.041 232.127 376.627 232.346C376.213 232.564 375.885 232.9 375.643 233.354C375.408 233.799 375.291 234.357 375.291 235.029ZM392.084 247.439C391.014 247.439 390.084 247.291 389.295 246.994C388.514 246.705 387.881 246.295 387.396 245.764C386.92 245.232 386.6 244.619 386.436 243.924L389.201 243.514C389.311 243.818 389.486 244.092 389.729 244.334C389.979 244.584 390.299 244.779 390.689 244.92C391.08 245.068 391.545 245.143 392.084 245.143C393.014 245.143 393.744 244.904 394.275 244.428C394.814 243.959 395.084 243.256 395.084 242.318V240.162H394.967C394.756 240.568 394.482 240.936 394.146 241.264C393.811 241.584 393.404 241.838 392.928 242.025C392.451 242.205 391.893 242.295 391.252 242.295C390.213 242.295 389.287 242.041 388.475 241.533C387.662 241.018 387.025 240.287 386.564 239.342C386.104 238.389 385.873 237.252 385.873 235.932C385.873 234.596 386.104 233.443 386.564 232.475C387.033 231.498 387.674 230.744 388.486 230.213C389.299 229.682 390.221 229.416 391.252 229.416C391.893 229.416 392.455 229.518 392.939 229.721C393.424 229.916 393.838 230.182 394.182 230.518C394.525 230.846 394.807 231.213 395.025 231.619H395.107V229.627H398.061V242.166C398.061 243.393 397.799 244.393 397.275 245.166C396.76 245.947 396.049 246.521 395.143 246.889C394.244 247.256 393.225 247.439 392.084 247.439ZM392.014 239.869C392.67 239.869 393.232 239.709 393.701 239.389C394.178 239.061 394.541 238.6 394.791 238.006C395.041 237.412 395.166 236.709 395.166 235.896C395.166 235.092 395.041 234.389 394.791 233.787C394.541 233.186 394.178 232.717 393.701 232.381C393.232 232.045 392.67 231.877 392.014 231.877C391.373 231.877 390.822 232.041 390.361 232.369C389.9 232.697 389.545 233.162 389.295 233.764C389.053 234.365 388.932 235.076 388.932 235.896C388.932 236.725 389.053 237.436 389.295 238.029C389.545 238.623 389.9 239.08 390.361 239.4C390.822 239.713 391.373 239.869 392.014 239.869Z" fill="#111827"/>
<defs>
<radialGradient id="paint0_angular_768_27975" cx="0" cy="0" r="1" gradientUnits="userSpaceOnUse" gradientTransform="translate(380.349 241.928) rotate(-1.26098) scale(156.466 156.314)">
<stop stop-color="#1D4ED8"/>
<stop offset="1" stop-color="#1D4ED8" stop-opacity="0"/>
</radialGradient>
<radialGradient id="paint1_angular_768_27975" cx="0" cy="0" r="1" gradientUnits="userSpaceOnUse" gradientTransform="translate(684.363 240.001) rotate(180) scale(225.775)">
<stop stop-color="#1D4ED8"/>
<stop offset="1" stop-color="#1D4ED8" stop-opacity="0"/>
</radialGradient>
</defs>
</svg>
