<svg width="730" height="361" viewBox="0 0 730 361" fill="none" xmlns="http://www.w3.org/2000/svg">
<path d="M184.715 121.913C219.911 86.7169 276.976 86.7169 312.172 121.913L370.41 180.152L303.937 246.626C270.256 280.306 215.65 280.306 181.97 246.626V246.626C148.289 212.945 148.289 158.339 181.97 124.658L184.715 121.913Z" stroke="#1D4ED8" stroke-width="50"/>
<path d="M639.713 270.97C590.007 320.675 509.418 320.675 459.713 270.97L369.713 180.97L459.713 90.9697C509.419 41.264 590.007 41.2641 639.713 90.9697V90.9697C689.419 140.675 689.419 221.264 639.713 270.97V270.97Z" stroke="#1D4ED8" stroke-width="50"/>
<path d="M335.067 180.265L370.533 144.855L348.42 122.642L312.959 158.046L335.067 180.265Z" fill="url(#paint0_linear_990_113929)"/>
<path d="M391.714 238.592L427.18 203.182L405.066 180.97L369.605 216.373L391.714 238.592Z" fill="url(#paint1_linear_990_113929)"/>
<path fill-rule="evenodd" clip-rule="evenodd" d="M358.615 156.692L323.401 191.906L88.3203 191.906V225.126L0.285156 174.299L88.3203 123.472V156.692L358.615 156.692Z" fill="#60A5FA"/>
<path d="M183.219 168.498V165.838H197.152V168.498H191.75V183.299H188.633V168.498H183.219ZM202.496 183.568C201.223 183.568 200.121 183.295 199.191 182.748C198.27 182.193 197.559 181.424 197.059 180.439C196.559 179.447 196.309 178.299 196.309 176.994C196.309 175.697 196.562 174.553 197.07 173.561C197.578 172.561 198.281 171.779 199.18 171.217C200.086 170.654 201.137 170.373 202.332 170.373C203.191 170.373 203.98 170.518 204.699 170.807C205.426 171.096 206.059 171.518 206.598 172.072C207.137 172.627 207.555 173.311 207.852 174.123C208.148 174.928 208.297 175.85 208.297 176.889V177.756H197.598V175.705H206.797L205.438 176.279C205.438 175.561 205.316 174.939 205.074 174.416C204.832 173.885 204.48 173.475 204.02 173.186C203.566 172.889 203.016 172.74 202.367 172.74C201.727 172.74 201.172 172.889 200.703 173.186C200.242 173.475 199.887 173.881 199.637 174.404C199.387 174.92 199.262 175.514 199.262 176.186V177.533C199.262 178.299 199.395 178.959 199.66 179.514C199.926 180.061 200.305 180.482 200.797 180.779C201.289 181.068 201.875 181.213 202.555 181.213C203.023 181.213 203.445 181.146 203.82 181.014C204.195 180.873 204.512 180.674 204.77 180.416C205.027 180.15 205.219 179.838 205.344 179.479L208.121 179.736C207.949 180.494 207.602 181.162 207.078 181.74C206.555 182.318 205.902 182.768 205.121 183.088C204.34 183.408 203.465 183.568 202.496 183.568ZM215.48 183.58C214.473 183.58 213.574 183.428 212.785 183.123C212.004 182.818 211.367 182.373 210.875 181.787C210.391 181.201 210.094 180.486 209.984 179.643L212.879 179.408C212.996 180.025 213.273 180.498 213.711 180.826C214.148 181.146 214.734 181.307 215.469 181.307C216.203 181.307 216.781 181.162 217.203 180.873C217.625 180.584 217.836 180.221 217.836 179.783C217.836 179.408 217.688 179.104 217.391 178.869C217.094 178.627 216.668 178.447 216.113 178.33L213.945 177.873C212.742 177.623 211.832 177.197 211.215 176.596C210.605 175.986 210.301 175.209 210.301 174.264C210.301 173.482 210.512 172.803 210.934 172.225C211.363 171.639 211.961 171.186 212.727 170.865C213.5 170.537 214.398 170.373 215.422 170.373C216.422 170.373 217.289 170.529 218.023 170.842C218.766 171.154 219.355 171.596 219.793 172.166C220.23 172.729 220.496 173.396 220.59 174.17L217.836 174.404C217.766 173.896 217.527 173.475 217.121 173.139C216.715 172.795 216.168 172.623 215.48 172.623C214.832 172.623 214.305 172.768 213.898 173.057C213.5 173.338 213.301 173.693 213.301 174.123C213.301 174.498 213.445 174.807 213.734 175.049C214.023 175.291 214.461 175.475 215.047 175.6L217.273 176.068C218.508 176.326 219.418 176.74 220.004 177.311C220.598 177.873 220.895 178.611 220.895 179.525C220.895 180.346 220.664 181.061 220.203 181.67C219.742 182.271 219.102 182.74 218.281 183.076C217.469 183.412 216.535 183.58 215.48 183.58ZM229.648 170.596V172.986H222.09V170.596H229.648ZM224.117 167.338H227.117V179.689C227.117 180.143 227.211 180.467 227.398 180.662C227.594 180.857 227.926 180.955 228.395 180.955C228.566 180.955 228.77 180.947 229.004 180.932C229.246 180.916 229.441 180.9 229.59 180.885L229.812 183.252C229.547 183.299 229.242 183.33 228.898 183.346C228.562 183.369 228.234 183.381 227.914 183.381C226.648 183.381 225.699 183.1 225.066 182.537C224.434 181.975 224.117 181.143 224.117 180.041V167.338ZM231.758 183.299V170.596H234.758V183.299H231.758ZM233.258 168.756C232.758 168.756 232.336 168.596 231.992 168.275C231.656 167.947 231.488 167.549 231.488 167.08C231.488 166.604 231.656 166.205 231.992 165.885C232.336 165.564 232.758 165.404 233.258 165.404C233.758 165.404 234.176 165.564 234.512 165.885C234.855 166.205 235.027 166.604 235.027 167.08C235.027 167.549 234.855 167.947 234.512 168.275C234.168 168.596 233.75 168.756 233.258 168.756ZM240.641 175.998V183.299H237.641V170.596H240.547L240.559 173.795H240.137C240.52 172.678 241.07 171.83 241.789 171.252C242.508 170.674 243.402 170.385 244.473 170.385C245.355 170.385 246.129 170.576 246.793 170.959C247.457 171.334 247.977 171.889 248.352 172.623C248.727 173.35 248.914 174.244 248.914 175.307V183.299H245.914V175.775C245.914 174.877 245.691 174.189 245.246 173.713C244.809 173.229 244.191 172.986 243.395 172.986C242.863 172.986 242.391 173.096 241.977 173.314C241.562 173.533 241.234 173.869 240.992 174.322C240.758 174.768 240.641 175.326 240.641 175.998ZM257.434 188.408C256.363 188.408 255.434 188.26 254.645 187.963C253.863 187.674 253.23 187.264 252.746 186.732C252.27 186.201 251.949 185.588 251.785 184.893L254.551 184.482C254.66 184.787 254.836 185.061 255.078 185.303C255.328 185.553 255.648 185.748 256.039 185.889C256.43 186.037 256.895 186.111 257.434 186.111C258.363 186.111 259.094 185.873 259.625 185.396C260.164 184.928 260.434 184.225 260.434 183.287V181.131H260.316C260.105 181.537 259.832 181.904 259.496 182.232C259.16 182.553 258.754 182.807 258.277 182.994C257.801 183.174 257.242 183.264 256.602 183.264C255.562 183.264 254.637 183.01 253.824 182.502C253.012 181.986 252.375 181.256 251.914 180.311C251.453 179.357 251.223 178.221 251.223 176.9C251.223 175.564 251.453 174.412 251.914 173.443C252.383 172.467 253.023 171.713 253.836 171.182C254.648 170.65 255.57 170.385 256.602 170.385C257.242 170.385 257.805 170.486 258.289 170.689C258.773 170.885 259.188 171.15 259.531 171.486C259.875 171.814 260.156 172.182 260.375 172.588H260.457V170.596H263.41V183.135C263.41 184.361 263.148 185.361 262.625 186.135C262.109 186.916 261.398 187.49 260.492 187.857C259.594 188.225 258.574 188.408 257.434 188.408ZM257.363 180.838C258.02 180.838 258.582 180.678 259.051 180.357C259.527 180.029 259.891 179.568 260.141 178.975C260.391 178.381 260.516 177.678 260.516 176.865C260.516 176.061 260.391 175.357 260.141 174.756C259.891 174.154 259.527 173.686 259.051 173.35C258.582 173.014 258.02 172.846 257.363 172.846C256.723 172.846 256.172 173.01 255.711 173.338C255.25 173.666 254.895 174.131 254.645 174.732C254.402 175.334 254.281 176.045 254.281 176.865C254.281 177.693 254.402 178.404 254.645 178.998C254.895 179.592 255.25 180.049 255.711 180.369C256.172 180.682 256.723 180.838 257.363 180.838Z" fill="#111827"/>
<path d="M323.313 191.954L358.779 156.544L301.199 156.717L301.212 191.884L323.313 191.954Z" fill="url(#paint2_linear_990_113929)"/>
<defs>
<linearGradient id="paint0_linear_990_113929" x1="328.977" y1="141.335" x2="351.515" y2="163.873" gradientUnits="userSpaceOnUse">
<stop stop-color="#1E40AF" stop-opacity="0"/>
<stop offset="1" stop-color="#1E40AF"/>
</linearGradient>
<linearGradient id="paint1_linear_990_113929" x1="385.623" y1="199.663" x2="408.161" y2="222.201" gradientUnits="userSpaceOnUse">
<stop stop-color="#1E40AF"/>
<stop offset="1" stop-color="#1E40AF" stop-opacity="0"/>
</linearGradient>
<linearGradient id="paint2_linear_990_113929" x1="301.199" y1="175.563" x2="339.771" y2="175.563" gradientUnits="userSpaceOnUse">
<stop stop-color="#3B82F6" stop-opacity="0"/>
<stop offset="1" stop-color="#3B82F6"/>
</linearGradient>
</defs>
</svg>
