<svg width="730" height="360" viewBox="0 0 730 360" fill="none" xmlns="http://www.w3.org/2000/svg">
<path d="M184.716 120.944C219.912 85.7472 276.977 85.7472 312.173 120.944L370.411 179.182L303.938 245.656C270.257 279.336 215.651 279.336 181.97 245.656V245.656C148.29 211.976 148.29 157.369 181.971 123.689L184.716 120.944Z" stroke="#2563EB" stroke-width="50"/>
<path d="M639.714 270C590.008 319.706 509.419 319.706 459.714 270L369.714 180L459.714 89.9999C509.42 40.2943 590.008 40.2944 639.714 90V90C689.42 139.706 689.42 220.294 639.714 270V270Z" stroke="#2563EB" stroke-width="50"/>
<path d="M335.068 179.295L370.534 143.885L348.421 121.672L312.96 157.076L335.068 179.295Z" fill="url(#paint0_linear_990_114087)"/>
<path d="M391.715 237.623L427.181 202.212L405.067 180L369.606 215.404L391.715 237.623Z" fill="url(#paint1_linear_990_114087)"/>
<path fill-rule="evenodd" clip-rule="evenodd" d="M358.616 155.722L323.402 190.936L88.3213 190.936V224.156L0.286133 173.329L88.3213 122.502V155.722L358.616 155.722Z" fill="#2563EB"/>
<path d="M183.22 167.528V164.868H197.153V167.528H191.751V182.329H188.634V167.528H183.22ZM202.497 182.599C201.224 182.599 200.122 182.325 199.192 181.778C198.271 181.224 197.56 180.454 197.06 179.47C196.56 178.478 196.31 177.329 196.31 176.024C196.31 174.728 196.563 173.583 197.071 172.591C197.579 171.591 198.282 170.81 199.181 170.247C200.087 169.685 201.138 169.403 202.333 169.403C203.192 169.403 203.981 169.548 204.7 169.837C205.427 170.126 206.06 170.548 206.599 171.103C207.138 171.657 207.556 172.341 207.853 173.153C208.149 173.958 208.298 174.88 208.298 175.919V176.786H197.599V174.735H206.798L205.438 175.31C205.438 174.591 205.317 173.97 205.075 173.446C204.833 172.915 204.481 172.505 204.021 172.216C203.567 171.919 203.017 171.771 202.368 171.771C201.728 171.771 201.173 171.919 200.704 172.216C200.243 172.505 199.888 172.911 199.638 173.435C199.388 173.95 199.263 174.544 199.263 175.216V176.563C199.263 177.329 199.396 177.989 199.661 178.544C199.927 179.091 200.306 179.513 200.798 179.81C201.29 180.099 201.876 180.243 202.556 180.243C203.024 180.243 203.446 180.177 203.821 180.044C204.196 179.903 204.513 179.704 204.771 179.446C205.028 179.181 205.22 178.868 205.345 178.509L208.122 178.767C207.95 179.524 207.603 180.192 207.079 180.771C206.556 181.349 205.903 181.798 205.122 182.118C204.341 182.438 203.466 182.599 202.497 182.599ZM215.481 182.61C214.474 182.61 213.575 182.458 212.786 182.153C212.005 181.849 211.368 181.403 210.876 180.817C210.392 180.231 210.095 179.517 209.985 178.673L212.88 178.438C212.997 179.056 213.274 179.528 213.712 179.856C214.149 180.177 214.735 180.337 215.47 180.337C216.204 180.337 216.782 180.192 217.204 179.903C217.626 179.614 217.837 179.251 217.837 178.813C217.837 178.438 217.688 178.134 217.392 177.899C217.095 177.657 216.669 177.478 216.114 177.36L213.946 176.903C212.743 176.653 211.833 176.228 211.216 175.626C210.606 175.017 210.302 174.239 210.302 173.294C210.302 172.513 210.513 171.833 210.935 171.255C211.364 170.669 211.962 170.216 212.728 169.896C213.501 169.567 214.399 169.403 215.423 169.403C216.423 169.403 217.29 169.56 218.024 169.872C218.767 170.185 219.356 170.626 219.794 171.196C220.231 171.759 220.497 172.427 220.591 173.2L217.837 173.435C217.767 172.927 217.528 172.505 217.122 172.169C216.716 171.825 216.169 171.653 215.481 171.653C214.833 171.653 214.306 171.798 213.899 172.087C213.501 172.368 213.302 172.724 213.302 173.153C213.302 173.528 213.446 173.837 213.735 174.079C214.024 174.321 214.462 174.505 215.048 174.63L217.274 175.099C218.509 175.356 219.419 175.771 220.005 176.341C220.599 176.903 220.896 177.642 220.896 178.556C220.896 179.376 220.665 180.091 220.204 180.7C219.743 181.302 219.103 181.771 218.282 182.106C217.47 182.442 216.536 182.61 215.481 182.61ZM229.649 169.626V172.017H222.091V169.626H229.649ZM224.118 166.368H227.118V178.72C227.118 179.173 227.212 179.497 227.399 179.692C227.595 179.888 227.927 179.985 228.396 179.985C228.567 179.985 228.771 179.978 229.005 179.962C229.247 179.946 229.442 179.931 229.591 179.915L229.813 182.282C229.548 182.329 229.243 182.36 228.899 182.376C228.563 182.399 228.235 182.411 227.915 182.411C226.649 182.411 225.7 182.13 225.067 181.567C224.435 181.005 224.118 180.173 224.118 179.071V166.368ZM231.759 182.329V169.626H234.759V182.329H231.759ZM233.259 167.786C232.759 167.786 232.337 167.626 231.993 167.306C231.657 166.978 231.489 166.579 231.489 166.11C231.489 165.634 231.657 165.235 231.993 164.915C232.337 164.595 232.759 164.435 233.259 164.435C233.759 164.435 234.177 164.595 234.513 164.915C234.856 165.235 235.028 165.634 235.028 166.11C235.028 166.579 234.856 166.978 234.513 167.306C234.169 167.626 233.751 167.786 233.259 167.786ZM240.642 175.028V182.329H237.642V169.626H240.548L240.56 172.825H240.138C240.521 171.708 241.071 170.86 241.79 170.282C242.509 169.704 243.403 169.415 244.474 169.415C245.356 169.415 246.13 169.606 246.794 169.989C247.458 170.364 247.978 170.919 248.353 171.653C248.728 172.38 248.915 173.274 248.915 174.337V182.329H245.915V174.806C245.915 173.907 245.692 173.22 245.247 172.743C244.81 172.259 244.192 172.017 243.396 172.017C242.864 172.017 242.392 172.126 241.978 172.345C241.563 172.563 241.235 172.899 240.993 173.353C240.759 173.798 240.642 174.356 240.642 175.028ZM257.435 187.438C256.364 187.438 255.435 187.29 254.646 186.993C253.864 186.704 253.231 186.294 252.747 185.763C252.271 185.231 251.95 184.618 251.786 183.923L254.552 183.513C254.661 183.817 254.837 184.091 255.079 184.333C255.329 184.583 255.649 184.778 256.04 184.919C256.431 185.067 256.896 185.142 257.435 185.142C258.364 185.142 259.095 184.903 259.626 184.427C260.165 183.958 260.435 183.255 260.435 182.317V180.161H260.317C260.106 180.567 259.833 180.935 259.497 181.263C259.161 181.583 258.755 181.837 258.278 182.024C257.802 182.204 257.243 182.294 256.603 182.294C255.563 182.294 254.638 182.04 253.825 181.532C253.013 181.017 252.376 180.286 251.915 179.341C251.454 178.388 251.224 177.251 251.224 175.931C251.224 174.595 251.454 173.442 251.915 172.474C252.384 171.497 253.024 170.743 253.837 170.212C254.649 169.681 255.571 169.415 256.603 169.415C257.243 169.415 257.806 169.517 258.29 169.72C258.774 169.915 259.188 170.181 259.532 170.517C259.876 170.845 260.157 171.212 260.376 171.618H260.458V169.626H263.411V182.165C263.411 183.392 263.149 184.392 262.626 185.165C262.11 185.946 261.399 186.521 260.493 186.888C259.595 187.255 258.575 187.438 257.435 187.438ZM257.364 179.868C258.021 179.868 258.583 179.708 259.052 179.388C259.528 179.06 259.892 178.599 260.142 178.005C260.392 177.411 260.517 176.708 260.517 175.896C260.517 175.091 260.392 174.388 260.142 173.786C259.892 173.185 259.528 172.716 259.052 172.38C258.583 172.044 258.021 171.876 257.364 171.876C256.724 171.876 256.173 172.04 255.712 172.368C255.251 172.696 254.896 173.161 254.646 173.763C254.403 174.364 254.282 175.075 254.282 175.896C254.282 176.724 254.403 177.435 254.646 178.028C254.896 178.622 255.251 179.079 255.712 179.399C256.173 179.712 256.724 179.868 257.364 179.868Z" fill="white"/>
<path d="M323.314 190.985L358.78 155.574L301.2 155.747L301.213 190.915L323.314 190.985Z" fill="url(#paint2_linear_990_114087)"/>
<defs>
<linearGradient id="paint0_linear_990_114087" x1="328.978" y1="140.365" x2="351.516" y2="162.903" gradientUnits="userSpaceOnUse">
<stop stop-color="#1D4ED8" stop-opacity="0"/>
<stop offset="1" stop-color="#1D4ED8"/>
</linearGradient>
<linearGradient id="paint1_linear_990_114087" x1="385.624" y1="198.693" x2="408.162" y2="221.231" gradientUnits="userSpaceOnUse">
<stop stop-color="#1D4ED8"/>
<stop offset="1" stop-color="#1D4ED8" stop-opacity="0"/>
</linearGradient>
<linearGradient id="paint2_linear_990_114087" x1="301.2" y1="174.593" x2="339.772" y2="174.593" gradientUnits="userSpaceOnUse">
<stop stop-color="#1E40AF" stop-opacity="0"/>
<stop offset="1" stop-color="#1E40AF"/>
</linearGradient>
</defs>
</svg>
