<svg width="600" height="289" viewBox="0 0 600 289" fill="none" xmlns="http://www.w3.org/2000/svg">
<path d="M151.29 100.424C180.241 71.4725 227.181 71.4725 256.132 100.424L304.037 148.329L249.358 203.007C221.653 230.712 176.736 230.712 149.032 203.007V203.007C121.328 175.303 121.328 130.386 149.032 102.682L151.29 100.424Z" stroke="#1E40AF" stroke-width="40"/>
<path d="M275.94 148.346L304.199 120.131L286.579 102.433L258.324 130.642L275.94 148.346Z" fill="url(#paint0_linear_2490_152743)"/>
<path fill-rule="evenodd" clip-rule="evenodd" d="M295.163 128.998L266.197 157.964L72.8285 157.964V185.29L0.414062 143.481L72.8285 101.673L72.8285 128.998L295.163 128.998Z" fill="#60A5FA"/>
<path d="M139.455 138.44V135.931H151.32V138.44H146.887V150.481H143.898V138.44H139.455ZM156.145 150.706C155.051 150.706 154.107 150.478 153.312 150.022C152.518 149.56 151.906 148.916 151.477 148.089C151.047 147.256 150.832 146.279 150.832 145.159C150.832 144.065 151.047 143.102 151.477 142.269C151.906 141.429 152.508 140.774 153.283 140.306C154.064 139.83 154.973 139.593 156.008 139.593C156.737 139.593 157.411 139.713 158.029 139.954C158.654 140.188 159.195 140.54 159.65 141.009C160.113 141.471 160.471 142.044 160.725 142.728C160.985 143.405 161.115 144.186 161.115 145.071V145.872H151.975V144.036H159.699L158.361 144.505C158.361 143.958 158.27 143.483 158.088 143.079C157.912 142.669 157.652 142.353 157.307 142.132C156.962 141.91 156.542 141.8 156.047 141.8C155.552 141.8 155.129 141.914 154.777 142.142C154.426 142.363 154.156 142.669 153.967 143.06C153.785 143.45 153.693 143.903 153.693 144.417V145.706C153.693 146.305 153.794 146.816 153.996 147.239C154.204 147.656 154.497 147.972 154.875 148.187C155.253 148.401 155.695 148.509 156.203 148.509C156.555 148.509 156.87 148.46 157.15 148.362C157.437 148.258 157.678 148.112 157.873 147.923C158.075 147.728 158.228 147.493 158.332 147.22L160.969 147.542C160.812 148.174 160.513 148.727 160.07 149.202C159.628 149.671 159.071 150.039 158.4 150.306C157.736 150.573 156.984 150.706 156.145 150.706ZM167.297 150.706C166.418 150.706 165.637 150.579 164.953 150.325C164.27 150.065 163.713 149.687 163.283 149.192C162.86 148.698 162.596 148.105 162.492 147.415L165.256 147.103C165.367 147.591 165.594 147.962 165.939 148.216C166.291 148.463 166.757 148.587 167.336 148.587C167.889 148.587 168.326 148.483 168.645 148.274C168.964 148.066 169.123 147.799 169.123 147.474C169.123 147.194 169.006 146.966 168.771 146.79C168.537 146.614 168.192 146.478 167.736 146.38L165.881 146.009C164.846 145.8 164.068 145.439 163.547 144.925C163.026 144.41 162.766 143.75 162.766 142.942C162.766 142.259 162.951 141.67 163.322 141.175C163.693 140.674 164.217 140.286 164.895 140.013C165.572 139.739 166.366 139.603 167.277 139.603C168.15 139.603 168.905 139.729 169.543 139.983C170.188 140.237 170.702 140.595 171.086 141.058C171.47 141.52 171.711 142.07 171.809 142.708L169.191 143.011C169.107 142.627 168.905 142.311 168.586 142.063C168.273 141.81 167.857 141.683 167.336 141.683C166.848 141.683 166.447 141.787 166.135 141.995C165.822 142.197 165.666 142.461 165.666 142.786C165.666 143.06 165.773 143.287 165.988 143.47C166.203 143.652 166.548 143.792 167.023 143.89L168.986 144.28C170.035 144.489 170.812 144.834 171.32 145.315C171.828 145.791 172.082 146.412 172.082 147.181C172.082 147.89 171.877 148.509 171.467 149.036C171.063 149.563 170.5 149.974 169.777 150.267C169.061 150.56 168.234 150.706 167.297 150.706ZM179.562 139.769V142.005H172.99V139.769H179.562ZM174.592 137.093H177.502V147.288C177.502 147.64 177.577 147.894 177.727 148.05C177.876 148.2 178.133 148.274 178.498 148.274C178.628 148.274 178.798 148.265 179.006 148.245C179.214 148.226 179.374 148.209 179.484 148.196L179.768 150.413C179.488 150.478 179.188 150.521 178.869 150.54C178.557 150.566 178.247 150.579 177.941 150.579C176.835 150.579 175.998 150.328 175.432 149.827C174.872 149.326 174.592 148.587 174.592 147.61V137.093ZM181.32 150.481V139.769H184.23V150.481H181.32ZM182.775 138.382C182.32 138.382 181.936 138.235 181.623 137.942C181.311 137.649 181.154 137.291 181.154 136.868C181.154 136.445 181.311 136.087 181.623 135.794C181.936 135.501 182.32 135.354 182.775 135.354C183.231 135.354 183.615 135.501 183.928 135.794C184.24 136.08 184.396 136.438 184.396 136.868C184.396 137.291 184.237 137.649 183.918 137.942C183.605 138.235 183.225 138.382 182.775 138.382ZM189.484 144.358V150.481H186.574V139.769H189.357L189.387 142.474H189.113C189.413 141.562 189.855 140.856 190.441 140.354C191.034 139.853 191.796 139.603 192.727 139.603C193.475 139.603 194.126 139.765 194.68 140.091C195.233 140.416 195.663 140.885 195.969 141.497C196.281 142.109 196.438 142.841 196.438 143.694V150.481H193.527V144.212C193.527 143.535 193.355 143.007 193.01 142.63C192.665 142.252 192.186 142.063 191.574 142.063C191.164 142.063 190.803 142.151 190.49 142.327C190.178 142.496 189.93 142.754 189.748 143.099C189.572 143.437 189.484 143.857 189.484 144.358ZM203.635 154.769C202.704 154.769 201.9 154.645 201.223 154.397C200.546 154.15 200.002 153.808 199.592 153.372C199.182 152.936 198.905 152.435 198.762 151.868L201.369 151.399C201.454 151.621 201.59 151.826 201.779 152.015C201.968 152.203 202.215 152.353 202.521 152.464C202.827 152.581 203.195 152.64 203.625 152.64C204.361 152.64 204.934 152.461 205.344 152.103C205.76 151.744 205.969 151.201 205.969 150.472V148.606H205.812C205.656 148.938 205.445 149.238 205.178 149.505C204.911 149.772 204.579 149.987 204.182 150.149C203.791 150.306 203.322 150.384 202.775 150.384C201.929 150.384 201.171 150.182 200.5 149.778C199.829 149.368 199.299 148.769 198.908 147.981C198.524 147.194 198.332 146.23 198.332 145.091C198.332 143.919 198.527 142.926 198.918 142.112C199.315 141.299 199.849 140.677 200.52 140.247C201.19 139.817 201.942 139.603 202.775 139.603C203.335 139.603 203.817 139.694 204.221 139.876C204.624 140.052 204.963 140.286 205.236 140.579C205.51 140.866 205.728 141.168 205.891 141.487H205.969V139.769H208.85V150.286C208.85 151.308 208.625 152.148 208.176 152.806C207.733 153.47 207.121 153.961 206.34 154.28C205.559 154.606 204.657 154.769 203.635 154.769ZM203.635 148.128C204.13 148.128 204.553 148.004 204.904 147.757C205.262 147.509 205.536 147.158 205.725 146.702C205.913 146.24 206.008 145.693 206.008 145.062C206.008 144.43 205.913 143.88 205.725 143.411C205.536 142.942 205.266 142.578 204.914 142.317C204.562 142.057 204.136 141.927 203.635 141.927C203.14 141.927 202.717 142.057 202.365 142.317C202.02 142.578 201.757 142.942 201.574 143.411C201.392 143.88 201.301 144.43 201.301 145.062C201.301 145.693 201.392 146.24 201.574 146.702C201.757 147.158 202.02 147.509 202.365 147.757C202.717 148.004 203.14 148.128 203.635 148.128Z" fill="#111827"/>
<path d="M266.125 158.004L295.298 128.877L247.935 129.019L247.946 157.946L266.125 158.004Z" fill="url(#paint1_linear_2490_152743)"/>
<path d="M525.554 223.03C484.668 263.916 418.379 263.916 377.493 223.03L303.462 148.999L377.493 74.9687C418.379 34.0827 484.668 34.0827 525.554 74.9686V74.9686C566.44 115.855 566.44 182.144 525.554 223.03V223.03Z" stroke="#1E40AF" stroke-width="40"/>
<path d="M321.059 195.062L349.409 166.757L331.732 149.001L303.387 177.301L321.059 195.062Z" fill="url(#paint2_linear_2490_152743)"/>
<defs>
<linearGradient id="paint0_linear_2490_152743" x1="271.087" y1="117.327" x2="289.045" y2="135.285" gradientUnits="userSpaceOnUse">
<stop stop-color="#052B97" stop-opacity="0"/>
<stop offset="1" stop-color="#052B97" stop-opacity="0.686275"/>
</linearGradient>
<linearGradient id="paint1_linear_2490_152743" x1="247.936" y1="144.521" x2="279.663" y2="144.521" gradientUnits="userSpaceOnUse">
<stop stop-color="#3991FF" stop-opacity="0"/>
<stop offset="1" stop-color="#3991FF"/>
</linearGradient>
<linearGradient id="paint2_linear_2490_152743" x1="316.191" y1="163.943" x2="334.206" y2="181.959" gradientUnits="userSpaceOnUse">
<stop stop-color="#052B97"/>
<stop offset="1" stop-color="#052B97" stop-opacity="0"/>
</linearGradient>
</defs>
</svg>
