<svg width="796" height="405" viewBox="0 0 796 405" fill="none" xmlns="http://www.w3.org/2000/svg">
<path d="M494.26 94.7203L389.676 34.3389L285.093 94.7203" stroke="#D4D4D8" stroke-width="1.5" stroke-dasharray="6 6"/>
<path d="M124.9 61.2393L300.279 365.006" stroke="#D4D4D8" stroke-width="1.5" stroke-dasharray="6 6"/>
<path d="M643.668 61.2393L468.289 365.006" stroke="#D4D4D8" stroke-width="1.5" stroke-dasharray="6 6"/>
<g filter="url(#filter0_dd_429_84220)">
<rect width="50.2864" height="50.2864" rx="25.1432" transform="matrix(1 0 0 -1 363.546 65.7056)" fill="#DBEAFE"/>
<rect width="50.2864" height="50.2864" rx="25.1432" transform="matrix(1 0 0 -1 363.546 65.7056)" stroke="#2563EB"/>
<path fill-rule="evenodd" clip-rule="evenodd" d="M388.689 41.0455C393.849 41.0455 398.355 39.5184 400.771 37.2476V40.4317C400.771 41.8175 399.705 43.3025 397.468 44.4998C395.274 45.6746 392.173 46.4317 388.693 46.4317C385.213 46.4317 382.112 45.6746 379.918 44.4998C377.681 43.3025 376.615 41.8175 376.615 40.4317V37.2549C379.033 39.5217 383.535 41.0455 388.689 41.0455ZM374.615 40.4317V33.4317C374.615 33.2399 374.669 33.0608 374.763 32.9086C375.256 28.9476 381.302 25.8179 388.689 25.8179C396.066 25.8179 402.107 28.9394 402.613 32.893C402.713 33.0485 402.771 33.2334 402.771 33.4317V40.4317V47.4317C402.771 49.9119 400.909 51.9269 398.412 53.2631C395.874 54.6218 392.436 55.4317 388.693 55.4317C384.95 55.4317 381.512 54.6218 378.974 53.2631C376.477 51.9269 374.615 49.9119 374.615 47.4317V40.4317ZM400.771 44.5981V47.4317C400.771 48.8175 399.705 50.3025 397.468 51.4998C395.274 52.6746 392.173 53.4317 388.693 53.4317C385.213 53.4317 382.112 52.6746 379.918 51.4998C377.681 50.3025 376.615 48.8175 376.615 47.4317V44.5981C377.286 45.2319 378.09 45.79 378.974 46.2631C381.512 47.6218 384.95 48.4317 388.693 48.4317C392.436 48.4317 395.874 47.6218 398.412 46.2631C399.296 45.79 400.1 45.2319 400.771 44.5981Z" fill="#2563EB"/>
</g>
<path d="M494.116 94.9795L108.301 316.855" stroke="#52525B" stroke-width="1.5" stroke-dasharray="6 6"/>
<path d="M285.285 94.9795L671.1 316.855" stroke="#52525B" stroke-width="1.5" stroke-dasharray="6 6"/>
<path d="M115.003 312.565L288.926 92.4391" stroke="#52525B" stroke-width="1.5" stroke-dasharray="6 6"/>
<path d="M668.572 312.565L494.649 92.4391" stroke="#52525B" stroke-width="1.5" stroke-dasharray="6 6"/>
<path d="M391.406 274.7L114.494 314.6" stroke="#52525B" stroke-width="1.5" stroke-dasharray="6 6"/>
<path d="M388.689 274.7L665.601 314.6" stroke="#52525B" stroke-width="1.5" stroke-dasharray="6 6"/>
<g filter="url(#filter1_dd_429_84220)">
<rect width="50.2864" height="50.2864" rx="25.1432" transform="matrix(1 0 0 -1 469.064 120.123)" fill="#DBEAFE"/>
<rect width="50.2864" height="50.2864" rx="25.1432" transform="matrix(1 0 0 -1 469.064 120.123)" stroke="#2563EB"/>
<path fill-rule="evenodd" clip-rule="evenodd" d="M483.555 86.9989C483.219 87.191 483.219 87.6762 483.556 87.8677L494.167 93.9013C494.322 93.9892 494.512 93.9884 494.665 93.8992L504.966 87.925C505.3 87.7316 505.298 87.2495 504.964 87.0583L494.455 81.0556C494.302 80.9678 494.113 80.9678 493.959 81.0556L483.555 86.9989ZM506.812 89.4567C506.812 89.0714 506.394 88.8309 506.061 89.0242L495.355 95.2335C495.2 95.3229 495.106 95.4877 495.106 95.666L495.106 108.337C495.106 108.72 495.52 108.961 495.854 108.771L506.56 102.655C506.716 102.566 506.812 102.4 506.812 102.221V89.4567ZM492.858 108.94C493.191 109.13 493.606 108.89 493.606 108.506L493.606 95.5983C493.606 95.4185 493.509 95.2525 493.353 95.1636L482.35 88.9075C482.017 88.718 481.603 88.9587 481.603 89.3421V102.221C481.603 102.4 481.699 102.566 481.855 102.655L492.858 108.94Z" fill="#2563EB"/>
</g>
<g filter="url(#filter2_dd_429_84220)">
<rect width="50.2864" height="50.2864" rx="25.1432" transform="matrix(1 0 0 -1 363.546 179.605)" fill="#DBEAFE"/>
<rect width="50.2864" height="50.2864" rx="25.1432" transform="matrix(1 0 0 -1 363.546 179.605)" stroke="#2563EB"/>
<path fill-rule="evenodd" clip-rule="evenodd" d="M386.592 143.45C386.04 143.45 385.592 143.898 385.592 144.45C385.592 145.002 386.04 145.45 386.592 145.45H390.882C391.434 145.45 391.882 145.002 391.882 144.45C391.882 143.898 391.434 143.45 390.882 143.45H386.592ZM382.966 147.25C382.966 146.698 383.414 146.25 383.966 146.25H393.508C394.06 146.25 394.508 146.698 394.508 147.25C394.508 147.802 394.06 148.25 393.508 148.25H383.966C383.414 148.25 382.966 147.802 382.966 147.25ZM377.455 151.117C377.455 150.012 378.351 149.117 379.455 149.117H397.923C399.027 149.117 399.923 150.012 399.923 151.117V163.348C399.923 164.453 399.027 165.348 397.923 165.348H379.455C378.351 165.348 377.455 164.453 377.455 163.348V151.117ZM384.033 160.163C385.579 160.163 386.833 158.909 386.833 157.363C386.833 155.816 385.579 154.563 384.033 154.563C382.486 154.563 381.233 155.816 381.233 157.363C381.233 158.909 382.486 160.163 384.033 160.163ZM395.924 157.363C395.924 158.909 394.67 160.163 393.124 160.163C391.578 160.163 390.324 158.909 390.324 157.363C390.324 155.816 391.578 154.563 393.124 154.563C394.67 154.563 395.924 155.816 395.924 157.363ZM400.487 160.079V154.646C401.705 154.651 402.689 155.64 402.689 156.857V157.878C402.689 159.093 401.703 160.079 400.487 160.079ZM376.891 154.646V160.079C375.675 160.079 374.689 159.093 374.689 157.878V156.857C374.689 155.64 375.673 154.651 376.891 154.646Z" fill="#2563EB"/>
</g>
<g filter="url(#filter3_dd_429_84220)">
<rect width="50.2864" height="50.2864" rx="25.1432" transform="matrix(1 0 0 -1 260.002 120.123)" fill="#DBEAFE"/>
<rect width="50.2864" height="50.2864" rx="25.1432" transform="matrix(1 0 0 -1 260.002 120.123)" stroke="#2563EB"/>
<path fill-rule="evenodd" clip-rule="evenodd" d="M280.5 89.3158C280.788 87.4568 281.22 85.7962 281.754 84.4255C282.262 83.1228 282.848 82.1197 283.461 81.455C283.754 81.1371 284.04 80.9095 284.316 80.7586C284.602 80.7412 284.89 80.7324 285.18 80.7324C285.47 80.7324 285.758 80.7412 286.044 80.7586C286.32 80.9095 286.606 81.1371 286.899 81.455C287.512 82.1197 288.098 83.1228 288.606 84.4255C289.141 85.7962 289.572 87.4568 289.861 89.3158H280.5ZM278.983 89.3158H272.267C273.957 85.2894 277.476 82.2202 281.785 81.147C281.243 81.9035 280.766 82.8316 280.357 83.8806C279.756 85.4217 279.285 87.2695 278.983 89.3158ZM288.575 81.147C289.117 81.9035 289.595 82.8316 290.004 83.8806C290.605 85.4217 291.075 87.2695 291.378 89.3158H298.094C296.403 85.2894 292.884 82.2202 288.575 81.147ZM290.057 90.8158H280.303C280.169 92.0587 280.097 93.3721 280.097 94.7324C280.097 96.0927 280.169 97.4061 280.303 98.6491H290.057C290.191 97.4061 290.263 96.0927 290.263 94.7324C290.263 93.3721 290.191 92.0587 290.057 90.8158ZM291.566 98.6491C291.695 97.3957 291.763 96.0828 291.763 94.7324C291.763 93.382 291.695 92.0691 291.566 90.8158H298.625C298.986 92.0586 299.18 93.3729 299.18 94.7324C299.18 96.0919 298.986 97.4062 298.625 98.6491H291.566ZM289.861 100.149H280.5C280.788 102.008 281.22 103.669 281.754 105.039C282.262 106.342 282.848 107.345 283.461 108.01C283.754 108.328 284.04 108.555 284.316 108.706C284.602 108.724 284.89 108.732 285.18 108.732C285.47 108.732 285.758 108.724 286.044 108.706C286.32 108.555 286.606 108.328 286.899 108.01C287.512 107.345 288.098 106.342 288.606 105.039C289.141 103.669 289.572 102.008 289.861 100.149ZM288.575 108.318C289.117 107.561 289.595 106.633 290.004 105.584C290.605 104.043 291.075 102.195 291.378 100.149H298.094C296.403 104.175 292.884 107.245 288.575 108.318ZM281.785 108.318C281.243 107.561 280.766 106.633 280.357 105.584C279.756 104.043 279.285 102.195 278.983 100.149H272.267C273.957 104.175 277.476 107.245 281.785 108.318ZM278.795 98.6491H271.735C271.374 97.4062 271.18 96.0919 271.18 94.7324C271.18 93.3729 271.374 92.0586 271.735 90.8158H278.795C278.665 92.0691 278.597 93.382 278.597 94.7324C278.597 96.0828 278.665 97.3957 278.795 98.6491Z" fill="#2563EB"/>
</g>
<rect x="675.689" y="260.134" width="105.92" height="104.872" rx="52.4358" fill="#FAFAFA"/>
<path fill-rule="evenodd" clip-rule="evenodd" d="M728.524 293.916C724.831 293.916 721.857 296.874 721.857 300.499C721.857 304.124 724.831 307.082 728.524 307.082C732.217 307.082 735.191 304.124 735.191 300.499C735.191 296.874 732.217 293.916 728.524 293.916ZM719.857 300.499C719.857 295.748 723.748 291.916 728.524 291.916C733.3 291.916 737.191 295.748 737.191 300.499C737.191 303.683 735.443 306.455 732.851 307.937C735.166 308.893 737.088 310.595 738.313 312.739C738.333 312.774 738.35 312.809 738.365 312.844H749.383C749.659 312.844 749.883 313.068 749.883 313.344V333.037C749.883 333.313 749.659 333.537 749.383 333.537H707.916C707.64 333.537 707.416 333.313 707.416 333.037V313.344C707.416 313.068 707.64 312.844 707.916 312.844H718.687C718.706 312.796 718.729 312.748 718.756 312.701C719.981 310.574 721.895 308.887 724.196 307.936C721.605 306.455 719.857 303.683 719.857 300.499ZM721.047 312.844H735.999C734.32 310.565 731.599 309.082 728.523 309.082C725.448 309.082 722.726 310.565 721.047 312.844ZM730.931 316.892C731.451 317.079 731.721 317.652 731.534 318.171L727.68 328.887C727.493 329.407 726.92 329.677 726.4 329.49C725.881 329.303 725.611 328.73 725.798 328.21L729.652 317.495C729.839 316.975 730.412 316.705 730.931 316.892ZM724.504 319.499C724.897 319.888 724.9 320.521 724.512 320.914L722.607 322.84C722.414 323.034 722.414 323.348 722.607 323.543L724.512 325.469C724.9 325.862 724.897 326.495 724.504 326.883C724.111 327.272 723.478 327.268 723.09 326.876L720.141 323.895C719.756 323.505 719.756 322.878 720.141 322.488L723.09 319.507C723.478 319.114 724.111 319.111 724.504 319.499ZM734.241 319.507C733.853 319.114 733.22 319.111 732.827 319.499C732.434 319.888 732.431 320.521 732.819 320.914L734.725 322.84C734.917 323.034 734.917 323.348 734.725 323.543L732.819 325.469C732.431 325.862 732.434 326.495 732.827 326.883C733.22 327.272 733.853 327.268 734.241 326.876L737.19 323.895C737.575 323.505 737.575 322.878 737.19 322.488L734.241 319.507Z" fill="#2563EB"/>
<circle cx="728.892" cy="312.532" r="52.4078" stroke="#2563EB" stroke-width="2"/>
<rect x="761.586" y="316.729" width="33.5589" height="33.5589" rx="16.7795" fill="#DBEAFE"/>
<rect x="761.586" y="316.729" width="33.5589" height="33.5589" rx="16.7795" stroke="#2563EB"/>
<path d="M772.139 337.282L768.366 333.508L772.139 329.734" stroke="#2563EB" stroke-width="1.5" stroke-linecap="round" stroke-linejoin="round"/>
<path d="M780.832 326.726L775.899 340.291" stroke="#2563EB" stroke-width="1.5" stroke-linecap="round" stroke-linejoin="round"/>
<path d="M784.592 329.734L788.366 333.508L784.592 337.282" stroke="#2563EB" stroke-width="1.5" stroke-linecap="round" stroke-linejoin="round"/>
<rect x="671.1" y="265.724" width="33.5589" height="33.5589" rx="16.7795" fill="#DBEAFE"/>
<rect x="671.1" y="265.724" width="33.5589" height="33.5589" rx="16.7795" stroke="#2563EB"/>
<path fill-rule="evenodd" clip-rule="evenodd" d="M685.988 273.985C686.227 273.847 686.533 273.929 686.671 274.168L687.527 275.65C687.975 275.559 688.439 275.512 688.914 275.512C689.389 275.512 689.853 275.559 690.301 275.65L691.157 274.168C691.223 274.053 691.332 273.969 691.46 273.935C691.588 273.901 691.725 273.919 691.84 273.985L694.828 275.711C694.943 275.777 695.027 275.886 695.061 276.014C695.096 276.142 695.078 276.279 695.011 276.394L694.155 277.876C694.767 278.568 695.243 279.382 695.544 280.278H697.254C697.53 280.278 697.754 280.502 697.754 280.778V284.229C697.754 284.505 697.53 284.729 697.254 284.729H695.544C695.243 285.625 694.767 286.439 694.155 287.131L695.011 288.614C695.149 288.853 695.067 289.159 694.828 289.297L691.84 291.022C691.725 291.089 691.588 291.106 691.46 291.072C691.332 291.038 691.223 290.954 691.157 290.839L690.301 289.357C689.852 289.448 689.388 289.495 688.914 289.495C688.439 289.495 687.975 289.448 687.527 289.357L686.671 290.839C686.533 291.078 686.227 291.16 685.988 291.022L682.999 289.297C682.885 289.23 682.801 289.121 682.767 288.993C682.732 288.865 682.75 288.729 682.816 288.614L683.673 287.131C683.122 286.508 682.681 285.786 682.379 284.995H683.463C683.756 285.634 684.158 286.214 684.647 286.709C684.805 286.87 684.836 287.116 684.724 287.31L683.932 288.681L686.055 289.906L686.845 288.537C686.958 288.343 687.186 288.247 687.404 288.303C687.886 288.428 688.392 288.495 688.914 288.495C689.436 288.495 689.942 288.428 690.424 288.303C690.641 288.247 690.87 288.343 690.982 288.537L691.773 289.906L693.895 288.681L693.104 287.31C692.992 287.116 693.023 286.87 693.181 286.709C693.889 285.991 694.417 285.096 694.692 284.097C694.751 283.88 694.949 283.729 695.174 283.729H696.754V281.278H695.174C694.949 281.278 694.751 281.128 694.692 280.911C694.417 279.911 693.889 279.016 693.181 278.298C693.023 278.137 692.992 277.891 693.104 277.697L693.895 276.327L691.773 275.101L690.983 276.47C690.87 276.664 690.642 276.76 690.424 276.704C689.942 276.579 689.436 276.512 688.914 276.512C688.392 276.512 687.886 276.579 687.404 276.704C687.186 276.76 686.958 276.664 686.845 276.47L686.055 275.101L683.932 276.327L684.723 277.697C684.836 277.891 684.804 278.137 684.647 278.298C684.169 278.783 683.773 279.348 683.482 279.972H682.395C682.696 279.197 683.132 278.489 683.672 277.876L682.816 276.394C682.75 276.279 682.732 276.142 682.766 276.014C682.801 275.886 682.885 275.777 682.999 275.711L685.988 273.985ZM688.847 279.562C689.807 279.562 690.661 280.022 691.198 280.735H689.661C688.685 280.735 687.893 281.527 687.893 282.504C687.893 283.48 688.685 284.272 689.661 284.272H691.198C690.661 284.985 689.807 285.445 688.847 285.445C687.701 285.445 686.708 284.791 686.222 283.833L686.214 283.818L686.209 283.808C686.1 283.586 685.848 283.482 685.619 283.55L680.052 283.55C679.474 283.55 679.005 283.082 679.005 282.504C679.005 281.926 679.474 281.457 680.052 281.457H685.771C685.974 281.457 686.148 281.337 686.226 281.165L686.229 281.16L686.235 281.148C686.726 280.205 687.712 279.562 688.847 279.562ZM692.23 281.696C692.17 281.72 692.107 281.731 692.045 281.731V281.735L689.661 281.735C689.237 281.735 688.893 282.079 688.893 282.504C688.893 282.928 689.237 283.272 689.661 283.272H692.045V283.276C692.107 283.276 692.17 283.288 692.23 283.312C692.487 283.414 692.612 283.705 692.51 283.961C691.931 285.416 690.51 286.445 688.847 286.445C687.419 286.445 686.169 285.686 685.478 284.55H680.052C678.921 284.55 678.005 283.634 678.005 282.504C678.005 281.373 678.921 280.457 680.052 280.457H685.478C686.169 279.322 687.419 278.562 688.847 278.562C690.51 278.562 691.931 279.592 692.51 281.046C692.612 281.303 692.487 281.593 692.23 281.696Z" fill="#2563EB"/>
<circle cx="710.44" cy="264.627" r="4.50326" fill="#2563EB"/>
<circle cx="676.484" cy="313.018" r="4.50326" fill="#2563EB"/>
<circle cx="758.44" cy="355.92" r="4.50326" fill="#2563EB"/>
<circle cx="780.7" cy="303.756" r="4.50326" fill="#2563EB"/>
<path d="M494.26 217.303L389.676 277.684L285.093 217.303" stroke="#D4D4D8" stroke-width="1.5" stroke-dasharray="6 6"/>
<path d="M285.093 115.992V215.668" stroke="#D4D4D8" stroke-width="1.5" stroke-dasharray="6 6"/>
<path d="M494.31 115.992V215.668" stroke="#D4D4D8" stroke-width="1.5" stroke-dasharray="6 6"/>
<g filter="url(#filter4_dd_429_84220)">
<rect width="50.2864" height="50.2864" rx="25.1432" transform="matrix(1 0 0 -1 363.546 299.729)" fill="#DBEAFE"/>
<rect width="50.2864" height="50.2864" rx="25.1432" transform="matrix(1 0 0 -1 363.546 299.729)" stroke="#2563EB"/>
<path fill-rule="evenodd" clip-rule="evenodd" d="M391.799 280.476C391.937 280.715 392.243 280.797 392.482 280.659L395.401 278.974C395.641 278.836 395.722 278.53 395.584 278.291L394.706 276.77C394.594 276.575 394.626 276.33 394.777 276.162C394.927 275.996 395.07 275.823 395.206 275.644L398.948 278.598V283.67C398.948 283.761 398.96 283.848 398.983 283.931C398.122 284.304 397.521 285.161 397.521 286.159C397.521 287.5 398.608 288.587 399.949 288.587C401.289 288.587 402.376 287.5 402.376 286.159C402.376 285.161 401.774 284.304 400.914 283.931C400.936 283.848 400.948 283.76 400.948 283.67V278.113C400.948 277.807 400.808 277.518 400.568 277.328L396.37 274.015C396.321 273.976 396.27 273.943 396.216 273.915C396.314 273.688 396.402 273.455 396.479 273.218C396.549 273.004 396.745 272.853 396.97 272.853H398.724C399 272.853 399.224 272.63 399.224 272.353V268.982C399.224 268.706 399 268.482 398.724 268.482H396.97C396.745 268.482 396.549 268.331 396.479 268.117C396.12 267.015 395.534 266.016 394.777 265.173C394.626 265.006 394.594 264.761 394.706 264.566L395.584 263.045C395.723 262.806 395.641 262.5 395.401 262.362L392.482 260.676C392.243 260.538 391.937 260.62 391.799 260.859L390.922 262.379C390.809 262.574 390.581 262.668 390.361 262.622C389.812 262.506 389.243 262.445 388.66 262.445C388.077 262.445 387.507 262.506 386.959 262.622C386.739 262.668 386.51 262.574 386.398 262.379L385.521 260.859C385.382 260.62 385.077 260.538 384.838 260.676L381.918 262.362C381.679 262.5 381.597 262.806 381.735 263.045L382.613 264.566C382.726 264.761 382.693 265.006 382.543 265.173C381.785 266.016 381.2 267.015 380.841 268.117C380.771 268.331 380.575 268.482 380.35 268.482H378.596C378.32 268.482 378.096 268.706 378.096 268.982V272.353C378.096 272.63 378.32 272.853 378.596 272.853H380.35C380.575 272.853 380.771 273.004 380.841 273.218C380.921 273.464 381.012 273.706 381.115 273.941C381.078 273.963 381.042 273.987 381.008 274.015L376.81 277.328C376.569 277.518 376.429 277.807 376.429 278.113L376.429 283.67C376.429 283.761 376.441 283.848 376.464 283.931C375.603 284.304 375.002 285.161 375.002 286.159C375.002 287.5 376.089 288.587 377.429 288.587C378.77 288.587 379.857 287.5 379.857 286.159C379.857 285.161 379.255 284.304 378.395 283.931C378.417 283.848 378.429 283.76 378.429 283.67V278.598L382.135 275.672C382.265 275.841 382.401 276.005 382.543 276.162C382.693 276.33 382.726 276.575 382.613 276.769L381.735 278.291C381.597 278.53 381.679 278.836 381.918 278.974L384.838 280.659C385.077 280.797 385.382 280.715 385.521 280.476L386.398 278.957C386.51 278.762 386.739 278.668 386.959 278.714C387.198 278.765 387.442 278.805 387.689 278.834V283.107C387.689 283.18 387.697 283.252 387.712 283.32C386.858 283.696 386.261 284.55 386.261 285.543C386.261 286.884 387.348 287.971 388.689 287.971C390.03 287.971 391.117 286.884 391.117 285.543C391.117 284.55 390.52 283.696 389.666 283.32C389.681 283.252 389.689 283.18 389.689 283.107V278.826C389.916 278.798 390.14 278.761 390.361 278.714C390.581 278.668 390.809 278.762 390.922 278.957L391.799 280.476ZM388.66 275.95C391.577 275.95 393.942 273.585 393.942 270.668C393.942 267.751 391.577 265.386 388.66 265.386C385.743 265.386 383.378 267.751 383.378 270.668C383.378 273.585 385.743 275.95 388.66 275.95Z" fill="#2563EB"/>
</g>
<rect x="5.44403" y="259.681" width="105.92" height="104.872" rx="52.4358" fill="#FAFAFA"/>
<path fill-rule="evenodd" clip-rule="evenodd" d="M58.2785 293.463C54.586 293.463 51.6115 296.42 51.6115 300.046C51.6115 303.671 54.586 306.628 58.2785 306.628C61.971 306.628 64.9455 303.671 64.9455 300.046C64.9455 296.42 61.971 293.463 58.2785 293.463ZM49.6115 300.046C49.6115 295.295 53.5023 291.463 58.2785 291.463C63.0547 291.463 66.9455 295.295 66.9455 300.046C66.9455 303.23 65.1971 306.002 62.6057 307.483C64.9202 308.44 66.843 310.142 68.0677 312.286C68.0874 312.321 68.1048 312.356 68.12 312.391H79.1376C79.4137 312.391 79.6376 312.615 79.6376 312.891V332.584C79.6376 332.86 79.4137 333.084 79.1376 333.084H37.6709C37.3947 333.084 37.1709 332.86 37.1709 332.584V312.891C37.1709 312.615 37.3947 312.391 37.6709 312.391H48.4417C48.4604 312.343 48.4831 312.295 48.51 312.248C49.7358 310.121 51.6498 308.434 53.9508 307.483C51.3596 306.002 49.6115 303.23 49.6115 300.046ZM50.8018 312.391H65.754C64.0749 310.112 61.3532 308.628 58.2779 308.628C55.2027 308.628 52.481 310.112 50.8018 312.391ZM60.6859 316.439C61.2055 316.626 61.4753 317.199 61.2884 317.718L57.4343 328.434C57.2474 328.954 56.6745 329.223 56.1549 329.036C55.6352 328.85 55.3654 328.277 55.5523 327.757L59.4064 317.041C59.5933 316.522 60.1662 316.252 60.6859 316.439ZM54.2587 319.046C54.6513 319.435 54.6548 320.068 54.2664 320.46L52.3613 322.387C52.1686 322.581 52.1686 322.895 52.3613 323.09L54.2664 325.016C54.6548 325.409 54.6513 326.042 54.2587 326.43C53.866 326.819 53.2329 326.815 52.8445 326.422L49.896 323.441C49.5106 323.052 49.5106 322.425 49.896 322.035L52.8445 319.054C53.2329 318.661 53.866 318.658 54.2587 319.046ZM63.9959 319.054C63.6075 318.661 62.9743 318.658 62.5817 319.046C62.189 319.435 62.1855 320.068 62.5739 320.46L64.4791 322.387C64.6718 322.581 64.6718 322.895 64.4791 323.09L62.5739 325.016C62.1855 325.409 62.189 326.042 62.5817 326.43C62.9743 326.819 63.6075 326.815 63.9959 326.422L66.9443 323.441C67.3297 323.052 67.3297 322.425 66.9443 322.035L63.9959 319.054Z" fill="#2563EB"/>
<circle cx="58.6466" cy="312.079" r="52.4078" stroke="#2563EB" stroke-width="2"/>
<rect x="91.3408" y="316.276" width="33.5589" height="33.5589" rx="16.7795" fill="#DBEAFE"/>
<rect x="91.3408" y="316.276" width="33.5589" height="33.5589" rx="16.7795" stroke="#2563EB"/>
<path d="M101.894 336.829L98.1203 333.055L101.894 329.281" stroke="#2563EB" stroke-width="1.5" stroke-linecap="round" stroke-linejoin="round"/>
<path d="M110.587 326.272L105.654 339.838" stroke="#2563EB" stroke-width="1.5" stroke-linecap="round" stroke-linejoin="round"/>
<path d="M114.347 329.281L118.12 333.055L114.347 336.829" stroke="#2563EB" stroke-width="1.5" stroke-linecap="round" stroke-linejoin="round"/>
<rect x="0.854736" y="265.271" width="33.5589" height="33.5589" rx="16.7795" fill="#DBEAFE"/>
<rect x="0.854736" y="265.271" width="33.5589" height="33.5589" rx="16.7795" stroke="#2563EB"/>
<path fill-rule="evenodd" clip-rule="evenodd" d="M15.7427 273.532C15.9818 273.394 16.2876 273.476 16.4257 273.715L17.2811 275.196C17.7299 275.106 18.1939 275.059 18.6685 275.059C19.1431 275.059 19.6071 275.106 20.0558 275.196L20.9112 273.715C20.9775 273.6 21.0867 273.516 21.2148 273.482C21.3429 273.448 21.4794 273.466 21.5942 273.532L24.5829 275.257C24.6977 275.324 24.7815 275.433 24.8159 275.561C24.8502 275.689 24.8322 275.826 24.7659 275.94L23.9099 277.423C24.5212 278.115 24.9979 278.929 25.2984 279.825H27.0087C27.2849 279.825 27.5087 280.049 27.5087 280.325V283.776C27.5087 284.052 27.2849 284.276 27.0087 284.276H25.2983C24.9977 285.172 24.5211 285.986 23.9098 286.678L24.7659 288.161C24.9039 288.4 24.822 288.705 24.5829 288.844L21.5942 290.569C21.4793 290.635 21.3429 290.653 21.2148 290.619C21.0867 290.585 20.9775 290.501 20.9112 290.386L20.0556 288.904C19.607 288.995 19.143 289.042 18.6685 289.042C18.1939 289.042 17.73 288.995 17.2813 288.904L16.4257 290.386C16.2877 290.625 15.9819 290.707 15.7427 290.569L12.754 288.844C12.6392 288.777 12.5554 288.668 12.5211 288.54C12.4867 288.412 12.5047 288.275 12.571 288.161L13.4272 286.678C12.8769 286.055 12.4357 285.333 12.1339 284.542H13.2176C13.5105 285.181 13.913 285.761 14.4012 286.256C14.5592 286.416 14.5906 286.662 14.4782 286.857L13.687 288.228L15.8097 289.453L16.6 288.084C16.7124 287.889 16.941 287.794 17.1586 287.85C17.6405 287.975 18.1463 288.042 18.6685 288.042C19.1907 288.042 19.6965 287.975 20.1783 287.85C20.3959 287.794 20.6245 287.89 20.7369 288.084L21.5272 289.453L23.6499 288.228L22.8588 286.857C22.7463 286.663 22.7778 286.417 22.9357 286.256C23.6438 285.538 24.1713 284.643 24.4462 283.643C24.5059 283.426 24.7032 283.276 24.9283 283.276H26.5087V280.825H24.9284C24.7033 280.825 24.5059 280.675 24.4463 280.458C24.1715 279.458 23.6439 278.563 22.9358 277.844C22.7779 277.684 22.7464 277.438 22.8589 277.243L23.6499 275.873L21.5272 274.648L20.7371 276.016C20.6247 276.211 20.3961 276.307 20.1785 276.25C19.6966 276.125 19.1907 276.059 18.6685 276.059C18.1463 276.059 17.6403 276.125 17.1585 276.25C16.9408 276.307 16.7122 276.211 16.5998 276.017L15.8097 274.648L13.687 275.873L14.478 277.244C14.5905 277.438 14.559 277.684 14.4011 277.845C13.9231 278.33 13.5273 278.895 13.2361 279.519H12.1493C12.4506 278.744 12.8861 278.035 13.427 277.423L12.571 275.94C12.5047 275.826 12.4867 275.689 12.521 275.561C12.5553 275.433 12.6391 275.324 12.754 275.257L15.7427 273.532ZM18.6014 279.109C19.5619 279.109 20.4155 279.569 20.9526 280.282H19.4159C18.4395 280.282 17.6479 281.074 17.6479 282.05C17.6479 283.027 18.4395 283.818 19.4159 283.818H20.9527C20.4156 284.532 19.5619 284.992 18.6014 284.992C17.456 284.992 16.4625 284.337 15.9764 283.38L15.969 283.365L15.9638 283.355C15.8542 283.133 15.6029 283.029 15.374 283.097L9.80624 283.097C9.22829 283.097 8.75977 282.628 8.75977 282.05C8.75977 281.473 9.22829 281.004 9.80624 281.004H15.526C15.7281 281.004 15.9022 280.884 15.981 280.712L15.9838 280.707L15.9898 280.695C16.4806 279.752 17.4664 279.109 18.6014 279.109ZM21.985 281.242C21.9243 281.267 21.8616 281.278 21.8 281.278V281.282L19.4159 281.282C18.9917 281.282 18.6479 281.626 18.6479 282.05C18.6479 282.475 18.9917 282.818 19.4159 282.818H21.8V282.823C21.8616 282.823 21.9243 282.834 21.985 282.859C22.2416 282.961 22.3667 283.252 22.2646 283.508C21.6854 284.963 20.2642 285.992 18.6014 285.992C17.1732 285.992 15.9233 285.232 15.2322 284.097H9.80624C8.676 284.097 7.75977 283.181 7.75977 282.05C7.75977 280.92 8.676 280.004 9.80624 280.004H15.2322C15.9233 278.869 17.1733 278.109 18.6014 278.109C20.2642 278.109 21.6854 279.138 22.2646 280.593C22.3667 280.849 22.2416 281.14 21.985 281.242Z" fill="#2563EB"/>
<circle cx="40.1947" cy="264.174" r="4.50326" fill="#2563EB"/>
<circle cx="6.23899" cy="312.565" r="4.50326" fill="#2563EB"/>
<circle cx="88.1947" cy="355.467" r="4.50326" fill="#2563EB"/>
<circle cx="110.454" cy="303.303" r="4.50326" fill="#2563EB"/>
<defs>
<filter id="filter0_dd_429_84220" x="347.046" y="0.919434" width="83.2863" height="83.2861" filterUnits="userSpaceOnUse" color-interpolation-filters="sRGB">
<feFlood flood-opacity="0" result="BackgroundImageFix"/>
<feColorMatrix in="SourceAlpha" type="matrix" values="0 0 0 0 0 0 0 0 0 0 0 0 0 0 0 0 0 0 127 0" result="hardAlpha"/>
<feOffset dy="2"/>
<feGaussianBlur stdDeviation="8"/>
<feColorMatrix type="matrix" values="0 0 0 0 0.0588235 0 0 0 0 0.0588235 0 0 0 0 0.0666667 0 0 0 0.08 0"/>
<feBlend mode="normal" in2="BackgroundImageFix" result="effect1_dropShadow_429_84220"/>
<feColorMatrix in="SourceAlpha" type="matrix" values="0 0 0 0 0 0 0 0 0 0 0 0 0 0 0 0 0 0 127 0" result="hardAlpha"/>
<feMorphology radius="1" operator="dilate" in="SourceAlpha" result="effect2_dropShadow_429_84220"/>
<feOffset/>
<feColorMatrix type="matrix" values="0 0 0 0 0.0588235 0 0 0 0 0.0588235 0 0 0 0 0.0666667 0 0 0 0.1 0"/>
<feBlend mode="normal" in2="effect1_dropShadow_429_84220" result="effect2_dropShadow_429_84220"/>
<feBlend mode="normal" in="SourceGraphic" in2="effect2_dropShadow_429_84220" result="shape"/>
</filter>
<filter id="filter1_dd_429_84220" x="452.564" y="55.3369" width="83.2863" height="83.2861" filterUnits="userSpaceOnUse" color-interpolation-filters="sRGB">
<feFlood flood-opacity="0" result="BackgroundImageFix"/>
<feColorMatrix in="SourceAlpha" type="matrix" values="0 0 0 0 0 0 0 0 0 0 0 0 0 0 0 0 0 0 127 0" result="hardAlpha"/>
<feOffset dy="2"/>
<feGaussianBlur stdDeviation="8"/>
<feColorMatrix type="matrix" values="0 0 0 0 0.0588235 0 0 0 0 0.0588235 0 0 0 0 0.0666667 0 0 0 0.08 0"/>
<feBlend mode="normal" in2="BackgroundImageFix" result="effect1_dropShadow_429_84220"/>
<feColorMatrix in="SourceAlpha" type="matrix" values="0 0 0 0 0 0 0 0 0 0 0 0 0 0 0 0 0 0 127 0" result="hardAlpha"/>
<feMorphology radius="1" operator="dilate" in="SourceAlpha" result="effect2_dropShadow_429_84220"/>
<feOffset/>
<feColorMatrix type="matrix" values="0 0 0 0 0.0588235 0 0 0 0 0.0588235 0 0 0 0 0.0666667 0 0 0 0.1 0"/>
<feBlend mode="normal" in2="effect1_dropShadow_429_84220" result="effect2_dropShadow_429_84220"/>
<feBlend mode="normal" in="SourceGraphic" in2="effect2_dropShadow_429_84220" result="shape"/>
</filter>
<filter id="filter2_dd_429_84220" x="347.046" y="114.819" width="83.2863" height="83.2861" filterUnits="userSpaceOnUse" color-interpolation-filters="sRGB">
<feFlood flood-opacity="0" result="BackgroundImageFix"/>
<feColorMatrix in="SourceAlpha" type="matrix" values="0 0 0 0 0 0 0 0 0 0 0 0 0 0 0 0 0 0 127 0" result="hardAlpha"/>
<feOffset dy="2"/>
<feGaussianBlur stdDeviation="8"/>
<feColorMatrix type="matrix" values="0 0 0 0 0.0588235 0 0 0 0 0.0588235 0 0 0 0 0.0666667 0 0 0 0.08 0"/>
<feBlend mode="normal" in2="BackgroundImageFix" result="effect1_dropShadow_429_84220"/>
<feColorMatrix in="SourceAlpha" type="matrix" values="0 0 0 0 0 0 0 0 0 0 0 0 0 0 0 0 0 0 127 0" result="hardAlpha"/>
<feMorphology radius="1" operator="dilate" in="SourceAlpha" result="effect2_dropShadow_429_84220"/>
<feOffset/>
<feColorMatrix type="matrix" values="0 0 0 0 0.0588235 0 0 0 0 0.0588235 0 0 0 0 0.0666667 0 0 0 0.1 0"/>
<feBlend mode="normal" in2="effect1_dropShadow_429_84220" result="effect2_dropShadow_429_84220"/>
<feBlend mode="normal" in="SourceGraphic" in2="effect2_dropShadow_429_84220" result="shape"/>
</filter>
<filter id="filter3_dd_429_84220" x="243.502" y="55.3369" width="83.2864" height="83.2861" filterUnits="userSpaceOnUse" color-interpolation-filters="sRGB">
<feFlood flood-opacity="0" result="BackgroundImageFix"/>
<feColorMatrix in="SourceAlpha" type="matrix" values="0 0 0 0 0 0 0 0 0 0 0 0 0 0 0 0 0 0 127 0" result="hardAlpha"/>
<feOffset dy="2"/>
<feGaussianBlur stdDeviation="8"/>
<feColorMatrix type="matrix" values="0 0 0 0 0.0588235 0 0 0 0 0.0588235 0 0 0 0 0.0666667 0 0 0 0.08 0"/>
<feBlend mode="normal" in2="BackgroundImageFix" result="effect1_dropShadow_429_84220"/>
<feColorMatrix in="SourceAlpha" type="matrix" values="0 0 0 0 0 0 0 0 0 0 0 0 0 0 0 0 0 0 127 0" result="hardAlpha"/>
<feMorphology radius="1" operator="dilate" in="SourceAlpha" result="effect2_dropShadow_429_84220"/>
<feOffset/>
<feColorMatrix type="matrix" values="0 0 0 0 0.0588235 0 0 0 0 0.0588235 0 0 0 0 0.0666667 0 0 0 0.1 0"/>
<feBlend mode="normal" in2="effect1_dropShadow_429_84220" result="effect2_dropShadow_429_84220"/>
<feBlend mode="normal" in="SourceGraphic" in2="effect2_dropShadow_429_84220" result="shape"/>
</filter>
<filter id="filter4_dd_429_84220" x="347.046" y="234.943" width="83.2863" height="83.2861" filterUnits="userSpaceOnUse" color-interpolation-filters="sRGB">
<feFlood flood-opacity="0" result="BackgroundImageFix"/>
<feColorMatrix in="SourceAlpha" type="matrix" values="0 0 0 0 0 0 0 0 0 0 0 0 0 0 0 0 0 0 127 0" result="hardAlpha"/>
<feOffset dy="2"/>
<feGaussianBlur stdDeviation="8"/>
<feColorMatrix type="matrix" values="0 0 0 0 0.0588235 0 0 0 0 0.0588235 0 0 0 0 0.0666667 0 0 0 0.08 0"/>
<feBlend mode="normal" in2="BackgroundImageFix" result="effect1_dropShadow_429_84220"/>
<feColorMatrix in="SourceAlpha" type="matrix" values="0 0 0 0 0 0 0 0 0 0 0 0 0 0 0 0 0 0 127 0" result="hardAlpha"/>
<feMorphology radius="1" operator="dilate" in="SourceAlpha" result="effect2_dropShadow_429_84220"/>
<feOffset/>
<feColorMatrix type="matrix" values="0 0 0 0 0.0588235 0 0 0 0 0.0588235 0 0 0 0 0.0666667 0 0 0 0.1 0"/>
<feBlend mode="normal" in2="effect1_dropShadow_429_84220" result="effect2_dropShadow_429_84220"/>
<feBlend mode="normal" in="SourceGraphic" in2="effect2_dropShadow_429_84220" result="shape"/>
</filter>
</defs>
</svg>
