<svg width="796" height="405" viewBox="0 0 796 405" fill="none" xmlns="http://www.w3.org/2000/svg">
<path d="M494.406 94.2701L389.822 33.8887L285.238 94.2701" stroke="#3F3F46" stroke-width="1.5" stroke-dasharray="6 6"/>
<path d="M125.045 60.7891L300.424 364.555" stroke="#3F3F46" stroke-width="1.5" stroke-dasharray="6 6"/>
<path d="M643.813 60.7891L468.434 364.555" stroke="#3F3F46" stroke-width="1.5" stroke-dasharray="6 6"/>
<g filter="url(#filter0_dd_617_85217)">
<rect width="50.2864" height="50.2864" rx="25.1432" transform="matrix(1 0 0 -1 363.691 65.2559)" fill="#091842"/>
<rect width="50.2864" height="50.2864" rx="25.1432" transform="matrix(1 0 0 -1 363.691 65.2559)" stroke="#1E40AF"/>
<path fill-rule="evenodd" clip-rule="evenodd" d="M388.835 40.5968C393.994 40.5968 398.5 39.0697 400.916 36.7989V39.983C400.916 41.3687 399.851 42.8538 397.614 44.0511C395.419 45.2259 392.318 45.983 388.838 45.983C385.359 45.983 382.258 45.2259 380.063 44.0511C377.826 42.8538 376.761 41.3687 376.761 39.983V36.8062C379.178 39.073 383.68 40.5968 388.835 40.5968ZM374.761 39.983V32.983C374.761 32.7912 374.815 32.612 374.908 32.4598C375.401 28.4988 381.448 25.3691 388.835 25.3691C396.212 25.3691 402.252 28.4907 402.759 32.4443C402.858 32.5998 402.916 32.7846 402.916 32.983V39.983V46.983C402.916 49.4632 401.054 51.4782 398.558 52.8144C396.019 54.1731 392.581 54.983 388.838 54.983C385.096 54.983 381.658 54.1731 379.119 52.8144C376.623 51.4782 374.761 49.4632 374.761 46.983V39.983ZM400.916 44.1494V46.983C400.916 48.3687 399.851 49.8538 397.614 51.0511C395.419 52.2259 392.318 52.983 388.838 52.983C385.359 52.983 382.258 52.2259 380.063 51.0511C377.826 49.8538 376.761 48.3687 376.761 46.983V44.1494C377.431 44.7832 378.235 45.3413 379.119 45.8144C381.658 47.1731 385.096 47.983 388.838 47.983C392.581 47.983 396.019 47.1731 398.558 45.8144C399.442 45.3413 400.246 44.7832 400.916 44.1494Z" fill="#60A5FA"/>
</g>
<path d="M494.261 94.5293L108.446 316.405" stroke="#E4E4E7" stroke-width="1.5" stroke-dasharray="6 6"/>
<path d="M285.43 94.5293L671.245 316.405" stroke="#E4E4E7" stroke-width="1.5" stroke-dasharray="6 6"/>
<path d="M115.148 312.114L289.071 91.9879" stroke="#E4E4E7" stroke-width="1.5" stroke-dasharray="6 6"/>
<path d="M668.717 312.114L494.794 91.9879" stroke="#E4E4E7" stroke-width="1.5" stroke-dasharray="6 6"/>
<path d="M391.551 274.249L114.639 314.15" stroke="#E4E4E7" stroke-width="1.5" stroke-dasharray="6 6"/>
<path d="M388.835 274.249L665.747 314.15" stroke="#E4E4E7" stroke-width="1.5" stroke-dasharray="6 6"/>
<g filter="url(#filter1_dd_617_85217)">
<rect width="50.2864" height="50.2864" rx="25.1432" transform="matrix(1 0 0 -1 469.21 119.674)" fill="#091842"/>
<rect width="50.2864" height="50.2864" rx="25.1432" transform="matrix(1 0 0 -1 469.21 119.674)" stroke="#1E40AF"/>
<path fill-rule="evenodd" clip-rule="evenodd" d="M483.701 86.5502C483.365 86.7423 483.365 87.2275 483.702 87.419L494.313 93.4526C494.468 93.5405 494.658 93.5397 494.811 93.4505L505.112 87.4763C505.446 87.2829 505.444 86.8008 505.11 86.6096L494.601 80.6069C494.448 80.5191 494.259 80.5191 494.105 80.6069L483.701 86.5502ZM506.958 89.008C506.958 88.6227 506.54 88.3822 506.207 88.5755L495.501 94.7847C495.346 94.8742 495.251 95.039 495.251 95.2173L495.251 107.888C495.251 108.272 495.666 108.512 495.999 108.322L506.706 102.206C506.862 102.117 506.958 101.951 506.958 101.772V89.008ZM493.003 108.491C493.337 108.682 493.751 108.441 493.751 108.057L493.751 95.1495C493.751 94.9697 493.655 94.8038 493.499 94.7149L482.496 88.4588C482.163 88.2692 481.749 88.51 481.749 88.8934V101.772C481.749 101.951 481.845 102.117 482.001 102.206L493.003 108.491Z" fill="#60A5FA"/>
</g>
<g filter="url(#filter2_dd_617_85217)">
<rect width="50.2864" height="50.2864" rx="25.1432" transform="matrix(1 0 0 -1 363.691 179.154)" fill="#091842"/>
<rect width="50.2864" height="50.2864" rx="25.1432" transform="matrix(1 0 0 -1 363.691 179.154)" stroke="#1E40AF"/>
<path fill-rule="evenodd" clip-rule="evenodd" d="M386.738 143C386.186 143 385.738 143.448 385.738 144C385.738 144.552 386.186 145 386.738 145H391.027C391.58 145 392.027 144.552 392.027 144C392.027 143.448 391.58 143 391.027 143H386.738ZM383.112 146.8C383.112 146.248 383.56 145.8 384.112 145.8H393.654C394.206 145.8 394.654 146.248 394.654 146.8C394.654 147.352 394.206 147.8 393.654 147.8H384.112C383.56 147.8 383.112 147.352 383.112 146.8ZM377.601 150.667C377.601 149.562 378.497 148.667 379.601 148.667H398.069C399.173 148.667 400.069 149.562 400.069 150.667V162.898C400.069 164.003 399.173 164.898 398.069 164.898H379.601C378.497 164.898 377.601 164.003 377.601 162.898V150.667ZM384.179 159.713C385.725 159.713 386.979 158.459 386.979 156.913C386.979 155.366 385.725 154.113 384.179 154.113C382.632 154.113 381.379 155.366 381.379 156.913C381.379 158.459 382.632 159.713 384.179 159.713ZM396.07 156.913C396.07 158.459 394.816 159.713 393.27 159.713C391.724 159.713 390.47 158.459 390.47 156.913C390.47 155.366 391.724 154.113 393.27 154.113C394.816 154.113 396.07 155.366 396.07 156.913ZM400.633 159.629V154.196C401.851 154.201 402.835 155.189 402.835 156.407V157.427C402.835 158.643 401.849 159.629 400.633 159.629ZM377.037 154.196V159.629C375.821 159.629 374.835 158.643 374.835 157.427V156.407C374.835 155.189 375.819 154.201 377.037 154.196Z" fill="#60A5FA"/>
</g>
<g filter="url(#filter3_dd_617_85217)">
<rect width="50.2864" height="50.2864" rx="25.1432" transform="matrix(1 0 0 -1 260.147 119.674)" fill="#091842"/>
<rect width="50.2864" height="50.2864" rx="25.1432" transform="matrix(1 0 0 -1 260.147 119.674)" stroke="#1E40AF"/>
<path fill-rule="evenodd" clip-rule="evenodd" d="M280.646 88.8665C280.934 87.0076 281.366 85.347 281.9 83.9762C282.408 82.6736 282.994 81.6705 283.607 81.0058C283.9 80.6879 284.186 80.4603 284.462 80.3094C284.748 80.292 285.036 80.2832 285.326 80.2832C285.616 80.2832 285.904 80.292 286.19 80.3094C286.466 80.4603 286.752 80.6879 287.045 81.0058C287.658 81.6705 288.244 82.6736 288.752 83.9762C289.287 85.347 289.718 87.0076 290.007 88.8665H280.646ZM279.129 88.8665H272.413C274.103 84.8402 277.622 81.771 281.931 80.6977C281.389 81.4543 280.912 82.3824 280.503 83.4314C279.902 84.9725 279.431 86.8203 279.129 88.8665ZM288.721 80.6977C289.263 81.4543 289.741 82.3824 290.15 83.4314C290.751 84.9725 291.221 86.8203 291.524 88.8665H298.24C296.549 84.8402 293.03 81.771 288.721 80.6977ZM290.203 90.3665H280.449C280.315 91.6095 280.243 92.9229 280.243 94.2832C280.243 95.6435 280.315 96.9569 280.449 98.1999H290.203C290.337 96.9569 290.41 95.6435 290.41 94.2832C290.41 92.9229 290.337 91.6095 290.203 90.3665ZM291.712 98.1999C291.841 96.9465 291.91 95.6336 291.91 94.2832C291.91 92.9328 291.841 91.6199 291.712 90.3665H298.771C299.132 91.6094 299.326 92.9237 299.326 94.2832C299.326 95.6427 299.132 96.957 298.771 98.1999H291.712ZM290.007 99.6999H280.646C280.934 101.559 281.366 103.219 281.9 104.59C282.408 105.893 282.994 106.896 283.607 107.561C283.9 107.878 284.186 108.106 284.462 108.257C284.748 108.274 285.036 108.283 285.326 108.283C285.616 108.283 285.904 108.274 286.19 108.257C286.466 108.106 286.752 107.878 287.045 107.561C287.658 106.896 288.244 105.893 288.752 104.59C289.287 103.219 289.718 101.559 290.007 99.6999ZM288.721 107.869C289.263 107.112 289.741 106.184 290.15 105.135C290.751 103.594 291.221 101.746 291.524 99.6999H298.24C296.549 103.726 293.03 106.795 288.721 107.869ZM281.931 107.869C281.389 107.112 280.912 106.184 280.503 105.135C279.902 103.594 279.431 101.746 279.129 99.6999H272.413C274.103 103.726 277.622 106.795 281.931 107.869ZM278.941 98.1999H271.881C271.52 96.957 271.326 95.6427 271.326 94.2832C271.326 92.9237 271.52 91.6094 271.881 90.3665H278.941C278.811 91.6199 278.743 92.9328 278.743 94.2832C278.743 95.6336 278.811 96.9465 278.941 98.1999Z" fill="#60A5FA"/>
</g>
<rect x="675.834" y="259.684" width="105.92" height="104.872" rx="52.4358" fill="#0F0F11"/>
<path fill-rule="evenodd" clip-rule="evenodd" d="M728.668 293.465C724.976 293.465 722.001 296.422 722.001 300.048C722.001 303.673 724.976 306.63 728.668 306.63C732.361 306.63 735.335 303.673 735.335 300.048C735.335 296.422 732.361 293.465 728.668 293.465ZM720.001 300.048C720.001 295.297 723.892 291.465 728.668 291.465C733.444 291.465 737.335 295.297 737.335 300.048C737.335 303.232 735.587 306.004 732.995 307.485C735.31 308.442 737.233 310.144 738.457 312.288C738.477 312.322 738.494 312.358 738.51 312.393H749.527C749.803 312.393 750.027 312.617 750.027 312.893V332.586C750.027 332.862 749.803 333.086 749.527 333.086H708.061C707.784 333.086 707.561 332.862 707.561 332.586V312.893C707.561 312.617 707.784 312.393 708.061 312.393H718.831C718.85 312.344 718.873 312.297 718.9 312.25C720.125 310.123 722.039 308.436 724.34 307.485C721.749 306.004 720.001 303.232 720.001 300.048ZM721.191 312.393H736.144C734.465 310.114 731.743 308.63 728.668 308.63C725.592 308.63 722.871 310.114 721.191 312.393ZM731.076 316.441C731.595 316.628 731.865 317.201 731.678 317.72L727.824 328.436C727.637 328.956 727.064 329.225 726.545 329.038C726.025 328.852 725.755 328.279 725.942 327.759L729.796 317.043C729.983 316.524 730.556 316.254 731.076 316.441ZM724.648 319.048C725.041 319.437 725.044 320.07 724.656 320.462L722.751 322.389C722.558 322.583 722.558 322.897 722.751 323.092L724.656 325.018C725.044 325.411 725.041 326.044 724.648 326.432C724.256 326.82 723.623 326.817 723.234 326.424L720.286 323.443C719.9 323.054 719.9 322.427 720.286 322.037L723.234 319.056C723.623 318.663 724.256 318.66 724.648 319.048ZM734.386 319.056C733.997 318.663 733.364 318.66 732.971 319.048C732.579 319.437 732.575 320.07 732.964 320.462L734.869 322.389C735.061 322.583 735.061 322.897 734.869 323.092L732.964 325.018C732.575 325.411 732.579 326.044 732.971 326.432C733.364 326.82 733.997 326.817 734.386 326.424L737.334 323.443C737.719 323.054 737.719 322.427 737.334 322.037L734.386 319.056Z" fill="#60A5FA"/>
<circle cx="729.037" cy="312.082" r="52.4078" stroke="#1E40AF" stroke-width="2"/>
<rect x="761.731" y="316.279" width="33.5589" height="33.5589" rx="16.7795" fill="#091842"/>
<rect x="761.731" y="316.279" width="33.5589" height="33.5589" rx="16.7795" stroke="#1E40AF"/>
<path d="M772.284 336.833L768.511 333.059L772.284 329.285" stroke="#60A5FA" stroke-width="1.5" stroke-linecap="round" stroke-linejoin="round"/>
<path d="M780.977 326.275L776.044 339.841" stroke="#60A5FA" stroke-width="1.5" stroke-linecap="round" stroke-linejoin="round"/>
<path d="M784.737 329.285L788.511 333.059L784.737 336.833" stroke="#60A5FA" stroke-width="1.5" stroke-linecap="round" stroke-linejoin="round"/>
<rect x="671.245" y="265.273" width="33.5589" height="33.5589" rx="16.7795" fill="#091842"/>
<rect x="671.245" y="265.273" width="33.5589" height="33.5589" rx="16.7795" stroke="#1E40AF"/>
<path fill-rule="evenodd" clip-rule="evenodd" d="M686.133 273.534C686.372 273.396 686.678 273.478 686.816 273.717L687.672 275.198C688.12 275.108 688.585 275.061 689.059 275.061C689.534 275.061 689.998 275.108 690.446 275.198L691.302 273.717C691.368 273.602 691.477 273.518 691.605 273.484C691.734 273.45 691.87 273.468 691.985 273.534L694.974 275.259C695.088 275.326 695.172 275.435 695.206 275.563C695.241 275.691 695.223 275.828 695.157 275.942L694.301 277.425C694.912 278.117 695.389 278.931 695.689 279.827H697.399C697.675 279.827 697.899 280.051 697.899 280.327V283.778C697.899 284.054 697.675 284.278 697.399 284.278H695.689C695.388 285.174 694.912 285.988 694.3 286.68L695.157 288.162C695.295 288.402 695.213 288.707 694.973 288.846L691.985 290.571C691.87 290.637 691.733 290.655 691.605 290.621C691.477 290.587 691.368 290.503 691.302 290.388L690.446 288.906C689.998 288.997 689.534 289.044 689.059 289.044C688.585 289.044 688.121 288.997 687.672 288.906L686.816 290.388C686.678 290.627 686.372 290.709 686.133 290.571L683.145 288.846C683.03 288.779 682.946 288.67 682.912 288.542C682.877 288.414 682.895 288.277 682.962 288.162L683.818 286.68C683.268 286.057 682.826 285.335 682.525 284.544H683.608C683.901 285.183 684.304 285.763 684.792 286.258C684.95 286.418 684.981 286.664 684.869 286.859L684.078 288.229L686.2 289.455L686.991 288.086C687.103 287.891 687.332 287.796 687.549 287.852C688.031 287.977 688.537 288.044 689.059 288.044C689.581 288.044 690.087 287.977 690.569 287.852C690.787 287.796 691.015 287.891 691.128 288.086L691.918 289.455L694.04 288.229L693.249 286.859C693.137 286.664 693.168 286.419 693.326 286.258C694.034 285.54 694.562 284.645 694.837 283.645C694.896 283.428 695.094 283.278 695.319 283.278H696.899V280.827H695.319C695.094 280.827 694.897 280.677 694.837 280.46C694.562 279.46 694.035 278.565 693.326 277.846C693.169 277.686 693.137 277.44 693.25 277.245L694.041 275.875L691.918 274.65L691.128 276.018C691.015 276.213 690.787 276.309 690.569 276.252C690.087 276.127 689.581 276.061 689.059 276.061C688.537 276.061 688.031 276.127 687.549 276.252C687.331 276.309 687.103 276.213 686.99 276.018L686.2 274.65L684.078 275.875L684.869 277.245C684.981 277.44 684.95 277.686 684.792 277.846C684.314 278.331 683.918 278.897 683.627 279.521H682.54C682.841 278.746 683.277 278.037 683.818 277.425L682.962 275.942C682.895 275.828 682.877 275.691 682.912 275.563C682.946 275.435 683.03 275.326 683.145 275.259L686.133 273.534ZM688.992 279.111C689.952 279.111 690.806 279.571 691.343 280.284H689.807C688.83 280.284 688.038 281.076 688.038 282.052C688.038 283.029 688.83 283.82 689.807 283.82H691.343C690.806 284.534 689.953 284.994 688.992 284.994C687.847 284.994 686.853 284.339 686.367 283.382L686.36 283.367L686.354 283.356C686.245 283.135 685.994 283.031 685.765 283.099L680.197 283.099C679.619 283.099 679.15 282.63 679.15 282.052C679.15 281.474 679.619 281.006 680.197 281.006H685.917C686.119 281.006 686.293 280.886 686.372 280.713L686.374 280.709L686.38 280.697C686.871 279.754 687.857 279.111 688.992 279.111ZM692.376 281.244C692.315 281.269 692.252 281.28 692.191 281.28V281.284L689.807 281.284C689.382 281.284 689.038 281.628 689.038 282.052C689.038 282.477 689.382 282.82 689.807 282.82H692.191V282.825C692.252 282.825 692.315 282.836 692.376 282.861C692.632 282.963 692.757 283.253 692.655 283.51C692.076 284.965 690.655 285.994 688.992 285.994C687.564 285.994 686.314 285.234 685.623 284.099H680.197C679.067 284.099 678.15 283.183 678.15 282.052C678.15 280.922 679.067 280.006 680.197 280.006H685.623C686.314 278.871 687.564 278.111 688.992 278.111C690.655 278.111 692.076 279.14 692.655 280.595C692.757 280.851 692.632 281.142 692.376 281.244Z" fill="#60A5FA"/>
<circle cx="710.585" cy="264.177" r="4.50326" fill="#60A5FA"/>
<circle cx="676.629" cy="312.568" r="4.50326" fill="#60A5FA"/>
<circle cx="758.585" cy="355.47" r="4.50326" fill="#60A5FA"/>
<circle cx="780.845" cy="303.306" r="4.50326" fill="#60A5FA"/>
<path d="M494.406 216.853L389.822 277.234L285.238 216.853" stroke="#3F3F46" stroke-width="1.5" stroke-dasharray="6 6"/>
<path d="M285.238 115.541V215.217" stroke="#3F3F46" stroke-width="1.5" stroke-dasharray="6 6"/>
<path d="M494.455 115.541V215.217" stroke="#3F3F46" stroke-width="1.5" stroke-dasharray="6 6"/>
<g filter="url(#filter4_dd_617_85217)">
<rect width="50.2864" height="50.2864" rx="25.1432" transform="matrix(1 0 0 -1 363.691 299.279)" fill="#091842"/>
<rect width="50.2864" height="50.2864" rx="25.1432" transform="matrix(1 0 0 -1 363.691 299.279)" stroke="#1E40AF"/>
<path fill-rule="evenodd" clip-rule="evenodd" d="M391.945 280.027C392.083 280.266 392.388 280.348 392.628 280.21L395.547 278.524C395.786 278.386 395.868 278.081 395.73 277.841L394.852 276.32C394.739 276.126 394.772 275.881 394.923 275.713C395.072 275.546 395.216 275.373 395.352 275.195L399.094 278.149V283.221C399.094 283.311 399.106 283.399 399.128 283.482C398.268 283.855 397.667 284.712 397.667 285.71C397.667 287.05 398.754 288.137 400.094 288.137C401.435 288.137 402.522 287.05 402.522 285.71C402.522 284.712 401.92 283.855 401.06 283.482C401.082 283.399 401.094 283.311 401.094 283.221V277.664C401.094 277.358 400.954 277.069 400.714 276.879L396.516 273.565C396.467 273.527 396.415 273.493 396.362 273.465C396.46 273.238 396.547 273.006 396.625 272.769C396.694 272.555 396.89 272.404 397.115 272.404H398.869C399.146 272.404 399.369 272.18 399.369 271.904V268.533C399.369 268.257 399.146 268.033 398.869 268.033H397.115C396.89 268.033 396.694 267.882 396.625 267.668C396.265 266.566 395.68 265.566 394.923 264.724C394.772 264.557 394.739 264.312 394.852 264.117L395.73 262.596C395.868 262.357 395.786 262.051 395.547 261.913L392.628 260.227C392.388 260.089 392.083 260.171 391.945 260.41L391.067 261.93C390.955 262.124 390.727 262.219 390.507 262.172C389.958 262.057 389.389 261.996 388.805 261.996C388.222 261.996 387.653 262.057 387.104 262.172C386.884 262.219 386.656 262.125 386.544 261.93L385.666 260.41C385.528 260.171 385.222 260.089 384.983 260.227L382.064 261.913C381.825 262.051 381.743 262.357 381.881 262.596L382.759 264.117C382.871 264.312 382.839 264.557 382.688 264.724C381.931 265.566 381.345 266.566 380.986 267.668C380.917 267.882 380.721 268.033 380.496 268.033H378.742C378.466 268.033 378.242 268.257 378.242 268.533V271.904C378.242 272.18 378.466 272.404 378.742 272.404H380.496C380.721 272.404 380.916 272.555 380.986 272.769C381.066 273.015 381.158 273.256 381.26 273.492C381.224 273.514 381.188 273.538 381.153 273.565L376.955 276.879C376.715 277.069 376.575 277.358 376.575 277.664L376.575 283.221C376.575 283.311 376.587 283.399 376.609 283.482C375.749 283.855 375.147 284.712 375.147 285.71C375.147 287.05 376.234 288.137 377.575 288.137C378.916 288.137 380.003 287.05 380.003 285.71C380.003 284.712 379.401 283.855 378.541 283.482C378.563 283.399 378.575 283.311 378.575 283.221V278.149L382.281 275.223C382.411 275.392 382.546 275.555 382.688 275.713C382.839 275.881 382.871 276.125 382.759 276.32L381.881 277.841C381.743 278.081 381.825 278.386 382.064 278.524L384.983 280.21C385.222 280.348 385.528 280.266 385.666 280.027L386.544 278.507C386.656 278.313 386.884 278.219 387.104 278.265C387.344 278.315 387.588 278.355 387.835 278.384V282.658C387.835 282.731 387.843 282.802 387.857 282.871C387.003 283.247 386.407 284.101 386.407 285.094C386.407 286.435 387.494 287.522 388.835 287.522C390.175 287.522 391.262 286.435 391.262 285.094C391.262 284.101 390.666 283.247 389.812 282.871C389.827 282.802 389.835 282.731 389.835 282.658V278.377C390.062 278.349 390.286 278.311 390.507 278.265C390.727 278.219 390.955 278.313 391.067 278.507L391.945 280.027ZM388.805 275.501C391.723 275.501 394.087 273.136 394.087 270.219C394.087 267.302 391.723 264.937 388.805 264.937C385.888 264.937 383.524 267.302 383.524 270.219C383.524 273.136 385.888 275.501 388.805 275.501Z" fill="#60A5FA"/>
</g>
<rect x="5.58887" y="259.23" width="105.92" height="104.872" rx="52.4358" fill="#0F0F11"/>
<path fill-rule="evenodd" clip-rule="evenodd" d="M58.423 293.012C54.7305 293.012 51.756 295.969 51.756 299.594C51.756 303.22 54.7305 306.177 58.423 306.177C62.1156 306.177 65.0901 303.22 65.0901 299.594C65.0901 295.969 62.1156 293.012 58.423 293.012ZM49.756 299.594C49.756 294.844 53.6468 291.012 58.423 291.012C63.1993 291.012 67.0901 294.844 67.0901 299.594C67.0901 302.779 65.3417 305.551 62.7502 307.032C65.0647 307.989 66.9876 309.69 68.2123 311.835C68.232 311.869 68.2494 311.905 68.2646 311.94H79.2821C79.5582 311.94 79.7821 312.164 79.7821 312.44V332.133C79.7821 332.409 79.5582 332.633 79.2821 332.633H37.8154C37.5393 332.633 37.3154 332.409 37.3154 332.133V312.44C37.3154 312.164 37.5393 311.94 37.8154 311.94H48.5863C48.6049 311.891 48.6277 311.843 48.6546 311.797C49.8803 309.67 51.7943 307.983 54.0954 307.032C51.5042 305.55 49.756 302.779 49.756 299.594ZM50.9464 311.94H65.8986C64.2194 309.66 61.4977 308.177 58.4225 308.177C55.3472 308.177 52.6256 309.66 50.9464 311.94ZM60.8304 315.988C61.3501 316.175 61.6199 316.747 61.4329 317.267L57.5788 327.983C57.3919 328.502 56.8191 328.772 56.2994 328.585C55.7797 328.398 55.5099 327.826 55.6969 327.306L59.551 316.59C59.7379 316.071 60.3107 315.801 60.8304 315.988ZM54.4032 318.595C54.7959 318.983 54.7993 319.617 54.411 320.009L52.5058 321.935C52.3131 322.13 52.3131 322.444 52.5058 322.639L54.411 324.565C54.7993 324.957 54.7959 325.591 54.4032 325.979C54.0106 326.367 53.3774 326.364 52.989 325.971L50.0405 322.99C49.6552 322.601 49.6552 321.973 50.0405 321.584L52.989 318.603C53.3774 318.21 54.0106 318.207 54.4032 318.595ZM64.1404 318.603C63.752 318.21 63.1189 318.207 62.7262 318.595C62.3335 318.983 62.3301 319.617 62.7185 320.009L64.6236 321.935C64.8163 322.13 64.8163 322.444 64.6236 322.639L62.7185 324.565C62.3301 324.957 62.3335 325.591 62.7262 325.979C63.1189 326.367 63.752 326.364 64.1404 325.971L67.0889 322.99C67.4743 322.601 67.4743 321.973 67.0889 321.584L64.1404 318.603Z" fill="#60A5FA"/>
<circle cx="58.7915" cy="311.628" r="52.4078" stroke="#1E40AF" stroke-width="2"/>
<rect x="91.4863" y="315.826" width="33.5589" height="33.5589" rx="16.7795" fill="#091842"/>
<rect x="91.4863" y="315.826" width="33.5589" height="33.5589" rx="16.7795" stroke="#1E40AF"/>
<path d="M102.039 336.379L98.2656 332.606L102.039 328.832" stroke="#60A5FA" stroke-width="1.5" stroke-linecap="round" stroke-linejoin="round"/>
<path d="M110.732 325.822L105.799 339.387" stroke="#60A5FA" stroke-width="1.5" stroke-linecap="round" stroke-linejoin="round"/>
<path d="M114.492 328.832L118.266 332.606L114.492 336.379" stroke="#60A5FA" stroke-width="1.5" stroke-linecap="round" stroke-linejoin="round"/>
<rect x="1" y="264.82" width="33.5589" height="33.5589" rx="16.7795" fill="#091842"/>
<rect x="1" y="264.82" width="33.5589" height="33.5589" rx="16.7795" stroke="#1E40AF"/>
<path fill-rule="evenodd" clip-rule="evenodd" d="M15.8882 273.081C16.1273 272.943 16.4331 273.025 16.5712 273.264L17.4266 274.745C17.8754 274.655 18.3394 274.608 18.814 274.608C19.2886 274.608 19.7526 274.655 20.2013 274.745L21.0567 273.264C21.123 273.149 21.2322 273.065 21.3603 273.031C21.4884 272.996 21.6249 273.014 21.7397 273.081L24.7284 274.806C24.8433 274.873 24.927 274.982 24.9614 275.11C24.9957 275.238 24.9777 275.374 24.9114 275.489L24.0554 276.972C24.6667 277.664 25.1434 278.478 25.4439 279.374H27.1542C27.4304 279.374 27.6542 279.598 27.6542 279.874V283.325C27.6542 283.601 27.4304 283.825 27.1542 283.825H25.4438C25.1432 284.72 24.6666 285.535 24.0553 286.227L24.9114 287.709C25.0495 287.949 24.9675 288.254 24.7284 288.392L21.7397 290.118C21.6248 290.184 21.4884 290.202 21.3603 290.168C21.2322 290.134 21.123 290.05 21.0567 289.935L20.2012 288.453C19.7525 288.543 19.2885 288.591 18.814 288.591C18.3395 288.591 17.8755 288.543 17.4268 288.453L16.5712 289.935C16.4332 290.174 16.1274 290.256 15.8882 290.118L12.8995 288.392C12.7847 288.326 12.7009 288.217 12.6666 288.089C12.6322 287.961 12.6502 287.824 12.7165 287.709L13.5727 286.226C13.0224 285.604 12.5812 284.882 12.2794 284.09H13.3631C13.6561 284.73 14.0585 285.31 14.5467 285.805C14.7047 285.965 14.7361 286.211 14.6237 286.406L13.8325 287.776L15.9552 289.002L16.7455 287.633C16.8579 287.438 17.0865 287.343 17.3041 287.399C17.786 287.524 18.2918 287.591 18.814 287.591C19.3362 287.591 19.842 287.524 20.3238 287.399C20.5414 287.343 20.77 287.438 20.8824 287.633L21.6727 289.002L23.7954 287.776L23.0043 286.406C22.8918 286.211 22.9233 285.965 23.0812 285.805C23.7893 285.087 24.3168 284.191 24.5917 283.192C24.6514 282.975 24.8487 282.825 25.0738 282.825H26.6542V280.374H25.0739C24.8488 280.374 24.6515 280.223 24.5918 280.006C24.317 279.007 23.7894 278.112 23.0814 277.393C22.9234 277.233 22.892 276.987 23.0044 276.792L23.7954 275.422L21.6727 274.197L20.8826 275.565C20.7702 275.76 20.5416 275.856 20.324 275.799C19.8421 275.674 19.3362 275.608 18.814 275.608C18.2918 275.608 17.7858 275.674 17.304 275.799C17.0863 275.856 16.8578 275.76 16.7453 275.565L15.9552 274.197L13.8325 275.422L14.6235 276.792C14.736 276.987 14.7045 277.233 14.5466 277.393C14.0686 277.878 13.6728 278.444 13.3816 279.068H12.2948C12.5961 278.292 13.0316 277.584 13.5725 276.972L12.7165 275.489C12.6502 275.374 12.6322 275.238 12.6665 275.11C12.7009 274.982 12.7847 274.873 12.8995 274.806L15.8882 273.081ZM18.7469 278.658C19.7074 278.658 20.561 279.118 21.0981 279.831H19.5614C18.585 279.831 17.7934 280.623 17.7934 281.599C17.7934 282.576 18.585 283.367 19.5614 283.367H21.0982C20.5611 284.08 19.7074 284.541 18.7469 284.541C17.6015 284.541 16.608 283.886 16.1219 282.928L16.1145 282.914L16.1093 282.903C15.9997 282.682 15.7484 282.578 15.5195 282.646L9.95175 282.646C9.3738 282.646 8.90527 282.177 8.90527 281.599C8.90527 281.021 9.3738 280.553 9.95175 280.553H15.6715C15.8736 280.553 16.0477 280.433 16.1265 280.26L16.1293 280.255L16.1353 280.244C16.6262 279.301 17.6119 278.658 18.7469 278.658ZM22.1305 280.791C22.0698 280.815 22.0071 280.827 21.9455 280.827V280.831L19.5614 280.831C19.1373 280.831 18.7934 281.175 18.7934 281.599C18.7934 282.023 19.1373 282.367 19.5614 282.367H21.9455V282.372C22.0071 282.372 22.0698 282.383 22.1305 282.407C22.3871 282.51 22.5122 282.8 22.4101 283.057C21.8309 284.511 20.4097 285.541 18.7469 285.541C17.3188 285.541 16.0688 284.781 15.3777 283.646H9.95175C8.82151 283.646 7.90527 282.73 7.90527 281.599C7.90527 280.469 8.82151 279.553 9.95175 279.553H15.3777C16.0688 278.417 17.3188 277.658 18.7469 277.658C20.4097 277.658 21.8309 278.687 22.4101 280.142C22.5122 280.398 22.3871 280.689 22.1305 280.791Z" fill="#60A5FA"/>
<circle cx="40.3402" cy="263.724" r="4.50326" fill="#60A5FA"/>
<circle cx="6.38411" cy="312.115" r="4.50326" fill="#60A5FA"/>
<circle cx="88.3402" cy="355.017" r="4.50326" fill="#60A5FA"/>
<circle cx="110.6" cy="302.853" r="4.50326" fill="#60A5FA"/>
<defs>
<filter id="filter0_dd_617_85217" x="347.191" y="0.46875" width="83.2861" height="83.2871" filterUnits="userSpaceOnUse" color-interpolation-filters="sRGB">
<feFlood flood-opacity="0" result="BackgroundImageFix"/>
<feColorMatrix in="SourceAlpha" type="matrix" values="0 0 0 0 0 0 0 0 0 0 0 0 0 0 0 0 0 0 127 0" result="hardAlpha"/>
<feOffset dy="2"/>
<feGaussianBlur stdDeviation="8"/>
<feColorMatrix type="matrix" values="0 0 0 0 0.0588235 0 0 0 0 0.0588235 0 0 0 0 0.0666667 0 0 0 0.08 0"/>
<feBlend mode="normal" in2="BackgroundImageFix" result="effect1_dropShadow_617_85217"/>
<feColorMatrix in="SourceAlpha" type="matrix" values="0 0 0 0 0 0 0 0 0 0 0 0 0 0 0 0 0 0 127 0" result="hardAlpha"/>
<feMorphology radius="1" operator="dilate" in="SourceAlpha" result="effect2_dropShadow_617_85217"/>
<feOffset/>
<feColorMatrix type="matrix" values="0 0 0 0 0.0588235 0 0 0 0 0.0588235 0 0 0 0 0.0666667 0 0 0 0.1 0"/>
<feBlend mode="normal" in2="effect1_dropShadow_617_85217" result="effect2_dropShadow_617_85217"/>
<feBlend mode="normal" in="SourceGraphic" in2="effect2_dropShadow_617_85217" result="shape"/>
</filter>
<filter id="filter1_dd_617_85217" x="452.71" y="54.8867" width="83.2861" height="83.2871" filterUnits="userSpaceOnUse" color-interpolation-filters="sRGB">
<feFlood flood-opacity="0" result="BackgroundImageFix"/>
<feColorMatrix in="SourceAlpha" type="matrix" values="0 0 0 0 0 0 0 0 0 0 0 0 0 0 0 0 0 0 127 0" result="hardAlpha"/>
<feOffset dy="2"/>
<feGaussianBlur stdDeviation="8"/>
<feColorMatrix type="matrix" values="0 0 0 0 0.0588235 0 0 0 0 0.0588235 0 0 0 0 0.0666667 0 0 0 0.08 0"/>
<feBlend mode="normal" in2="BackgroundImageFix" result="effect1_dropShadow_617_85217"/>
<feColorMatrix in="SourceAlpha" type="matrix" values="0 0 0 0 0 0 0 0 0 0 0 0 0 0 0 0 0 0 127 0" result="hardAlpha"/>
<feMorphology radius="1" operator="dilate" in="SourceAlpha" result="effect2_dropShadow_617_85217"/>
<feOffset/>
<feColorMatrix type="matrix" values="0 0 0 0 0.0588235 0 0 0 0 0.0588235 0 0 0 0 0.0666667 0 0 0 0.1 0"/>
<feBlend mode="normal" in2="effect1_dropShadow_617_85217" result="effect2_dropShadow_617_85217"/>
<feBlend mode="normal" in="SourceGraphic" in2="effect2_dropShadow_617_85217" result="shape"/>
</filter>
<filter id="filter2_dd_617_85217" x="347.191" y="114.367" width="83.2861" height="83.2871" filterUnits="userSpaceOnUse" color-interpolation-filters="sRGB">
<feFlood flood-opacity="0" result="BackgroundImageFix"/>
<feColorMatrix in="SourceAlpha" type="matrix" values="0 0 0 0 0 0 0 0 0 0 0 0 0 0 0 0 0 0 127 0" result="hardAlpha"/>
<feOffset dy="2"/>
<feGaussianBlur stdDeviation="8"/>
<feColorMatrix type="matrix" values="0 0 0 0 0.0588235 0 0 0 0 0.0588235 0 0 0 0 0.0666667 0 0 0 0.08 0"/>
<feBlend mode="normal" in2="BackgroundImageFix" result="effect1_dropShadow_617_85217"/>
<feColorMatrix in="SourceAlpha" type="matrix" values="0 0 0 0 0 0 0 0 0 0 0 0 0 0 0 0 0 0 127 0" result="hardAlpha"/>
<feMorphology radius="1" operator="dilate" in="SourceAlpha" result="effect2_dropShadow_617_85217"/>
<feOffset/>
<feColorMatrix type="matrix" values="0 0 0 0 0.0588235 0 0 0 0 0.0588235 0 0 0 0 0.0666667 0 0 0 0.1 0"/>
<feBlend mode="normal" in2="effect1_dropShadow_617_85217" result="effect2_dropShadow_617_85217"/>
<feBlend mode="normal" in="SourceGraphic" in2="effect2_dropShadow_617_85217" result="shape"/>
</filter>
<filter id="filter3_dd_617_85217" x="243.647" y="54.8867" width="83.2861" height="83.2871" filterUnits="userSpaceOnUse" color-interpolation-filters="sRGB">
<feFlood flood-opacity="0" result="BackgroundImageFix"/>
<feColorMatrix in="SourceAlpha" type="matrix" values="0 0 0 0 0 0 0 0 0 0 0 0 0 0 0 0 0 0 127 0" result="hardAlpha"/>
<feOffset dy="2"/>
<feGaussianBlur stdDeviation="8"/>
<feColorMatrix type="matrix" values="0 0 0 0 0.0588235 0 0 0 0 0.0588235 0 0 0 0 0.0666667 0 0 0 0.08 0"/>
<feBlend mode="normal" in2="BackgroundImageFix" result="effect1_dropShadow_617_85217"/>
<feColorMatrix in="SourceAlpha" type="matrix" values="0 0 0 0 0 0 0 0 0 0 0 0 0 0 0 0 0 0 127 0" result="hardAlpha"/>
<feMorphology radius="1" operator="dilate" in="SourceAlpha" result="effect2_dropShadow_617_85217"/>
<feOffset/>
<feColorMatrix type="matrix" values="0 0 0 0 0.0588235 0 0 0 0 0.0588235 0 0 0 0 0.0666667 0 0 0 0.1 0"/>
<feBlend mode="normal" in2="effect1_dropShadow_617_85217" result="effect2_dropShadow_617_85217"/>
<feBlend mode="normal" in="SourceGraphic" in2="effect2_dropShadow_617_85217" result="shape"/>
</filter>
<filter id="filter4_dd_617_85217" x="347.191" y="234.492" width="83.2861" height="83.2871" filterUnits="userSpaceOnUse" color-interpolation-filters="sRGB">
<feFlood flood-opacity="0" result="BackgroundImageFix"/>
<feColorMatrix in="SourceAlpha" type="matrix" values="0 0 0 0 0 0 0 0 0 0 0 0 0 0 0 0 0 0 127 0" result="hardAlpha"/>
<feOffset dy="2"/>
<feGaussianBlur stdDeviation="8"/>
<feColorMatrix type="matrix" values="0 0 0 0 0.0588235 0 0 0 0 0.0588235 0 0 0 0 0.0666667 0 0 0 0.08 0"/>
<feBlend mode="normal" in2="BackgroundImageFix" result="effect1_dropShadow_617_85217"/>
<feColorMatrix in="SourceAlpha" type="matrix" values="0 0 0 0 0 0 0 0 0 0 0 0 0 0 0 0 0 0 127 0" result="hardAlpha"/>
<feMorphology radius="1" operator="dilate" in="SourceAlpha" result="effect2_dropShadow_617_85217"/>
<feOffset/>
<feColorMatrix type="matrix" values="0 0 0 0 0.0588235 0 0 0 0 0.0588235 0 0 0 0 0.0666667 0 0 0 0.1 0"/>
<feBlend mode="normal" in2="effect1_dropShadow_617_85217" result="effect2_dropShadow_617_85217"/>
<feBlend mode="normal" in="SourceGraphic" in2="effect2_dropShadow_617_85217" result="shape"/>
</filter>
</defs>
</svg>
