<svg width="704" height="380" viewBox="0 0 704 380" fill="none" xmlns="http://www.w3.org/2000/svg">
<rect width="704" height="380" fill="#FAFAFA"/>
<path d="M203.29 141.424C232.241 112.473 279.181 112.473 308.132 141.424L356.037 189.329L301.358 244.007C273.653 271.712 228.736 271.712 201.032 244.007V244.007C173.328 216.303 173.328 171.386 201.032 143.682L203.29 141.424Z" stroke="#2563EB" stroke-width="40"/>
<path d="M327.941 189.346L356.2 161.131L338.58 143.433L310.325 171.642L327.941 189.346Z" fill="url(#paint0_linear_966_59215)"/>
<path fill-rule="evenodd" clip-rule="evenodd" d="M347.163 169.998L318.197 198.964L124.829 198.964V226.29L52.4146 184.481L124.829 142.673L124.829 169.998L347.163 169.998Z" fill="#2563EB"/>
<path d="M191.456 179.44V176.931H203.321V179.44H198.887V191.481H195.899V179.44H191.456ZM208.145 191.706C207.051 191.706 206.107 191.478 205.313 191.022C204.519 190.56 203.907 189.916 203.477 189.089C203.047 188.256 202.833 187.279 202.833 186.159C202.833 185.065 203.047 184.102 203.477 183.269C203.907 182.429 204.509 181.774 205.284 181.306C206.065 180.83 206.973 180.593 208.008 180.593C208.737 180.593 209.411 180.713 210.03 180.954C210.655 181.188 211.195 181.54 211.651 182.009C212.113 182.471 212.471 183.044 212.725 183.728C212.986 184.405 213.116 185.186 213.116 186.071V186.872H203.975V185.036H211.7L210.362 185.505C210.362 184.958 210.271 184.483 210.088 184.079C209.913 183.669 209.652 183.353 209.307 183.132C208.962 182.91 208.542 182.8 208.047 182.8C207.553 182.8 207.129 182.914 206.778 183.142C206.426 183.363 206.156 183.669 205.967 184.06C205.785 184.45 205.694 184.903 205.694 185.417V186.706C205.694 187.305 205.795 187.816 205.997 188.239C206.205 188.656 206.498 188.972 206.875 189.187C207.253 189.401 207.696 189.509 208.204 189.509C208.555 189.509 208.871 189.46 209.151 189.362C209.437 189.258 209.678 189.112 209.874 188.923C210.075 188.728 210.228 188.493 210.333 188.22L212.969 188.542C212.813 189.174 212.514 189.727 212.071 190.202C211.628 190.671 211.071 191.039 210.401 191.306C209.737 191.573 208.985 191.706 208.145 191.706ZM219.297 191.706C218.418 191.706 217.637 191.579 216.954 191.325C216.27 191.065 215.713 190.687 215.284 190.192C214.861 189.698 214.597 189.105 214.493 188.415L217.256 188.103C217.367 188.591 217.595 188.962 217.94 189.216C218.292 189.463 218.757 189.587 219.336 189.587C219.89 189.587 220.326 189.483 220.645 189.274C220.964 189.066 221.124 188.799 221.124 188.474C221.124 188.194 221.006 187.966 220.772 187.79C220.538 187.614 220.193 187.478 219.737 187.38L217.881 187.009C216.846 186.8 216.068 186.439 215.547 185.925C215.027 185.41 214.766 184.75 214.766 183.942C214.766 183.259 214.952 182.67 215.323 182.175C215.694 181.674 216.218 181.286 216.895 181.013C217.572 180.739 218.366 180.603 219.278 180.603C220.15 180.603 220.905 180.729 221.543 180.983C222.188 181.237 222.702 181.595 223.086 182.058C223.471 182.52 223.711 183.07 223.809 183.708L221.192 184.011C221.107 183.627 220.905 183.311 220.586 183.063C220.274 182.81 219.857 182.683 219.336 182.683C218.848 182.683 218.448 182.787 218.135 182.995C217.823 183.197 217.667 183.461 217.667 183.786C217.667 184.06 217.774 184.287 217.989 184.47C218.204 184.652 218.549 184.792 219.024 184.89L220.987 185.28C222.035 185.489 222.813 185.834 223.321 186.315C223.829 186.791 224.083 187.412 224.083 188.181C224.083 188.89 223.877 189.509 223.467 190.036C223.064 190.563 222.5 190.974 221.778 191.267C221.062 191.56 220.235 191.706 219.297 191.706ZM231.563 180.769V183.005H224.991V180.769H231.563ZM226.592 178.093H229.502V188.288C229.502 188.64 229.577 188.894 229.727 189.05C229.877 189.2 230.134 189.274 230.499 189.274C230.629 189.274 230.798 189.265 231.006 189.245C231.215 189.226 231.374 189.209 231.485 189.196L231.768 191.413C231.488 191.478 231.189 191.521 230.87 191.54C230.557 191.566 230.248 191.579 229.942 191.579C228.835 191.579 227.999 191.328 227.432 190.827C226.872 190.326 226.592 189.587 226.592 188.61V178.093ZM233.321 191.481V180.769H236.231V191.481H233.321ZM234.776 179.382C234.32 179.382 233.936 179.235 233.624 178.942C233.311 178.649 233.155 178.291 233.155 177.868C233.155 177.445 233.311 177.087 233.624 176.794C233.936 176.501 234.32 176.354 234.776 176.354C235.232 176.354 235.616 176.501 235.928 176.794C236.241 177.08 236.397 177.438 236.397 177.868C236.397 178.291 236.237 178.649 235.918 178.942C235.606 179.235 235.225 179.382 234.776 179.382ZM241.485 185.358V191.481H238.575V180.769H241.358L241.387 183.474H241.114C241.413 182.562 241.856 181.856 242.442 181.354C243.034 180.853 243.796 180.603 244.727 180.603C245.476 180.603 246.127 180.765 246.68 181.091C247.234 181.416 247.663 181.885 247.969 182.497C248.282 183.109 248.438 183.841 248.438 184.694V191.481H245.528V185.212C245.528 184.535 245.355 184.007 245.01 183.63C244.665 183.252 244.187 183.063 243.575 183.063C243.165 183.063 242.803 183.151 242.491 183.327C242.178 183.496 241.931 183.754 241.749 184.099C241.573 184.437 241.485 184.857 241.485 185.358ZM255.635 195.769C254.704 195.769 253.9 195.645 253.223 195.397C252.546 195.15 252.002 194.808 251.592 194.372C251.182 193.936 250.905 193.435 250.762 192.868L253.37 192.399C253.454 192.621 253.591 192.826 253.78 193.015C253.969 193.203 254.216 193.353 254.522 193.464C254.828 193.581 255.196 193.64 255.625 193.64C256.361 193.64 256.934 193.461 257.344 193.103C257.761 192.744 257.969 192.201 257.969 191.472V189.606H257.813C257.657 189.938 257.445 190.238 257.178 190.505C256.911 190.772 256.579 190.987 256.182 191.149C255.792 191.306 255.323 191.384 254.776 191.384C253.93 191.384 253.171 191.182 252.5 190.778C251.83 190.368 251.299 189.769 250.909 188.981C250.525 188.194 250.333 187.23 250.333 186.091C250.333 184.919 250.528 183.926 250.918 183.112C251.316 182.299 251.849 181.677 252.52 181.247C253.191 180.817 253.943 180.603 254.776 180.603C255.336 180.603 255.818 180.694 256.221 180.876C256.625 181.052 256.963 181.286 257.237 181.579C257.51 181.866 257.728 182.168 257.891 182.487H257.969V180.769H260.85V191.286C260.85 192.308 260.625 193.148 260.176 193.806C259.734 194.47 259.122 194.961 258.34 195.28C257.559 195.606 256.657 195.769 255.635 195.769ZM255.635 189.128C256.13 189.128 256.553 189.004 256.905 188.757C257.263 188.509 257.536 188.158 257.725 187.702C257.914 187.24 258.008 186.693 258.008 186.062C258.008 185.43 257.914 184.88 257.725 184.411C257.536 183.942 257.266 183.578 256.915 183.317C256.563 183.057 256.137 182.927 255.635 182.927C255.14 182.927 254.717 183.057 254.366 183.317C254.021 183.578 253.757 183.942 253.575 184.411C253.392 184.88 253.301 185.43 253.301 186.062C253.301 186.693 253.392 187.24 253.575 187.702C253.757 188.158 254.021 188.509 254.366 188.757C254.717 189.004 255.14 189.128 255.635 189.128Z" fill="white"/>
<path d="M318.126 199.004L347.299 169.877L299.936 170.019L299.946 198.946L318.126 199.004Z" fill="url(#paint1_linear_966_59215)"/>
<path d="M577.555 264.03C536.669 304.916 470.379 304.916 429.493 264.03L355.463 189.999L429.493 115.969C470.379 75.0827 536.669 75.0827 577.555 115.969V115.969C618.441 156.855 618.441 223.144 577.555 264.03V264.03Z" stroke="#2563EB" stroke-width="40"/>
<path d="M373.059 236.062L401.409 207.757L383.732 190.001L355.386 218.301L373.059 236.062Z" fill="url(#paint2_linear_966_59215)"/>
<defs>
<linearGradient id="paint0_linear_966_59215" x1="323.088" y1="158.327" x2="341.046" y2="176.285" gradientUnits="userSpaceOnUse">
<stop stop-color="#1D4ED8" stop-opacity="0"/>
<stop offset="1" stop-color="#1D4ED8" stop-opacity="0.686275"/>
</linearGradient>
<linearGradient id="paint1_linear_966_59215" x1="299.936" y1="185.521" x2="331.663" y2="185.521" gradientUnits="userSpaceOnUse">
<stop stop-color="#1E40AF" stop-opacity="0"/>
<stop offset="1" stop-color="#1E40AF"/>
</linearGradient>
<linearGradient id="paint2_linear_966_59215" x1="368.19" y1="204.943" x2="386.206" y2="222.959" gradientUnits="userSpaceOnUse">
<stop stop-color="#1D4ED8"/>
<stop offset="1" stop-color="#1D4ED8" stop-opacity="0"/>
</linearGradient>
</defs>
</svg>
