<svg width="280" height="161" viewBox="0 0 280 161" fill="none" xmlns="http://www.w3.org/2000/svg">
<rect width="280" height="160" transform="translate(0 0.910156)" fill="#FAFAFA"/>
<path d="M79.2924 61.0915C91.0245 49.3594 110.046 49.3594 121.778 61.0915L141.191 80.5043L119.033 102.662C107.806 113.889 89.6041 113.889 78.3773 102.662V102.662C67.1506 91.4355 67.1506 73.2333 78.3773 62.0066L79.2924 61.0915Z" stroke="url(#paint0_angular_966_61371)" stroke-width="20"/>
<path d="M230.792 110.91C214.223 127.479 187.36 127.479 170.792 110.91L140.792 80.9102L170.792 50.9102C187.36 34.3416 214.223 34.3416 230.792 50.9102V50.9102C247.36 67.4787 247.36 94.3416 230.792 110.91V110.91Z" stroke="url(#paint1_angular_966_61371)" stroke-width="20"/>
<path fill-rule="evenodd" clip-rule="evenodd" d="M136.648 70.9161L124.87 82.6542L48.5515 82.6542V93.7275L19.2064 76.7851L48.5515 59.8428V70.9161L136.648 70.9161Z" fill="#2563EB"/>
<path d="M81.9388 74.2566V73.3126H86.9152V74.2566H84.9893V79.5645H83.869V74.2566H81.9388Z" fill="white"/>
<path d="M89.244 79.661C88.7712 79.661 88.3642 79.5617 88.0229 79.3631C87.6845 79.1645 87.4229 78.8847 87.2383 78.5239C87.0565 78.1631 86.9656 77.7379 86.9656 77.2483C86.9656 76.7644 87.0551 76.3406 87.2341 75.977C87.4159 75.6133 87.6719 75.3294 88.002 75.1252C88.3348 74.9182 88.7251 74.8147 89.1726 74.8147C89.4579 74.8147 89.7293 74.8609 89.9866 74.9532C90.2468 75.0455 90.4762 75.1881 90.6748 75.3812C90.8762 75.5742 91.0328 75.8203 91.1447 76.1196C91.2594 76.4161 91.3167 76.77 91.3167 77.1812V77.5253H87.4817V76.7826H90.7755L90.2636 77.0008C90.2636 76.7378 90.223 76.5071 90.1419 76.3085C90.0608 76.107 89.9391 75.9504 89.7768 75.8385C89.6174 75.7266 89.4174 75.6707 89.1768 75.6707C88.9363 75.6707 88.732 75.728 88.5642 75.8427C88.3964 75.9546 88.2677 76.1056 88.1782 76.2959C88.0915 76.4833 88.0481 76.6931 88.0481 76.9253V77.4372C88.0481 77.7337 88.0985 77.984 88.1992 78.1882C88.2999 78.3924 88.4411 78.5463 88.623 78.6498C88.8048 78.7533 89.016 78.805 89.2565 78.805C89.416 78.805 89.56 78.7826 89.6887 78.7379C89.8202 78.6903 89.9335 78.6218 90.0286 78.5323C90.1237 78.44 90.195 78.3281 90.2426 78.1966L91.2454 78.4022C91.1699 78.654 91.0412 78.875 90.8594 79.0652C90.6776 79.2526 90.4496 79.3995 90.1754 79.5057C89.9041 79.6092 89.5936 79.661 89.244 79.661Z" fill="white"/>
<path d="M94.0315 79.661C93.6707 79.661 93.3518 79.6092 93.0748 79.5057C92.7979 79.4022 92.5699 79.2512 92.3909 79.0526C92.2147 78.854 92.1 78.6134 92.0468 78.3309L93.0664 78.1379C93.1308 78.37 93.2441 78.5435 93.4063 78.6582C93.5714 78.7701 93.7867 78.826 94.0525 78.826C94.321 78.826 94.5336 78.7729 94.6903 78.6666C94.8497 78.5575 94.9294 78.4232 94.9294 78.2638C94.9294 78.1295 94.8777 78.019 94.7742 77.9323C94.6707 77.8428 94.5112 77.7742 94.2959 77.7267L93.4944 77.5546C93.0525 77.4595 92.7224 77.3029 92.5042 77.0847C92.286 76.8665 92.1769 76.5854 92.1769 76.2413C92.1769 75.9504 92.2566 75.6986 92.4161 75.486C92.5755 75.2735 92.7965 75.1084 93.079 74.9909C93.3644 74.8734 93.6944 74.8147 94.0693 74.8147C94.4245 74.8147 94.7294 74.8651 94.984 74.9658C95.2413 75.0665 95.4483 75.2077 95.605 75.3895C95.7644 75.5686 95.8749 75.7798 95.9365 76.0231L94.963 76.2161C94.9099 76.0511 94.8133 75.9126 94.6735 75.8007C94.5336 75.6861 94.3364 75.6287 94.0819 75.6287C93.8497 75.6287 93.6553 75.6805 93.4986 75.784C93.3448 75.8847 93.2678 76.0147 93.2678 76.1742C93.2678 76.3112 93.3196 76.4245 93.4231 76.5141C93.5266 76.6036 93.6972 76.6735 93.935 76.7238L94.7322 76.8917C95.177 76.9868 95.5071 77.1392 95.7225 77.349C95.9379 77.5588 96.0456 77.8288 96.0456 78.1589C96.0456 78.4554 95.9602 78.7169 95.7896 78.9435C95.619 79.1673 95.3812 79.3435 95.0763 79.4722C94.7742 79.5981 94.4259 79.661 94.0315 79.661Z" fill="white"/>
<path d="M99.1505 74.8734V75.7294H96.4861V74.8734H99.1505ZM97.1533 73.7573H98.2442V78.2428C98.2442 78.4134 98.2806 78.5393 98.3533 78.6204C98.426 78.6987 98.5449 78.7379 98.71 78.7379C98.7603 78.7379 98.8261 78.7323 98.9072 78.7211C98.9911 78.7071 99.0582 78.6945 99.1086 78.6833L99.2806 79.5267C99.1603 79.5631 99.0372 79.5883 98.9114 79.6023C98.7855 79.619 98.6652 79.6274 98.5505 79.6274C98.1002 79.6274 97.7547 79.5155 97.5141 79.2918C97.2736 79.068 97.1533 78.7491 97.1533 78.3351V73.7573Z" fill="white"/>
<path d="M100.019 79.5645V74.8734H101.11V79.5645H100.019ZM100.565 74.2105C100.391 74.2105 100.241 74.1517 100.116 74.0343C99.9925 73.9168 99.931 73.7769 99.931 73.6147C99.931 73.4468 99.9925 73.3056 100.116 73.1909C100.241 73.0734 100.391 73.0146 100.565 73.0146C100.741 73.0146 100.89 73.0734 101.014 73.1909C101.139 73.3056 101.202 73.4468 101.202 73.6147C101.202 73.7769 101.139 73.9168 101.014 74.0343C100.89 74.1517 100.741 74.2105 100.565 74.2105Z" fill="white"/>
<path d="M103.359 76.8162V79.5645H102.268V74.8734H103.3L103.317 76.0315H103.229C103.36 75.6259 103.553 75.3224 103.808 75.121C104.063 74.9168 104.381 74.8147 104.765 74.8147C105.086 74.8147 105.368 74.8832 105.608 75.0203C105.849 75.1574 106.035 75.3574 106.166 75.6203C106.3 75.8833 106.368 76.2036 106.368 76.5812V79.5645H105.277V76.749C105.277 76.4357 105.195 76.1896 105.033 76.0105C104.871 75.8315 104.647 75.742 104.362 75.742C104.169 75.742 103.997 75.784 103.846 75.8679C103.695 75.9518 103.576 76.0749 103.489 76.2371C103.402 76.3966 103.359 76.5896 103.359 76.8162Z" fill="white"/>
<path d="M109.552 81.4191C109.177 81.4191 108.85 81.3715 108.57 81.2764C108.293 81.1813 108.065 81.0512 107.886 80.8862C107.71 80.724 107.583 80.5393 107.505 80.3323L108.428 80.0009C108.478 80.0876 108.547 80.1771 108.633 80.2694C108.723 80.3617 108.84 80.4372 108.986 80.496C109.134 80.5575 109.321 80.5883 109.548 80.5883C109.887 80.5883 110.158 80.5086 110.362 80.3491C110.566 80.1925 110.668 79.9463 110.668 79.6106V78.7253H110.576C110.523 78.8372 110.445 78.9533 110.341 79.0736C110.238 79.1911 110.098 79.2904 109.921 79.3715C109.748 79.4526 109.526 79.4932 109.254 79.4932C108.896 79.4932 108.57 79.4092 108.277 79.2414C107.986 79.0708 107.754 78.8162 107.58 78.4777C107.41 78.1393 107.324 77.7155 107.324 77.2064C107.324 76.6917 107.411 76.2567 107.584 75.9014C107.758 75.5462 107.99 75.2763 108.281 75.0916C108.575 74.907 108.902 74.8147 109.263 74.8147C109.54 74.8147 109.768 74.8609 109.947 74.9532C110.126 75.0455 110.268 75.1574 110.375 75.2888C110.481 75.4175 110.562 75.5378 110.618 75.6497H110.677V74.8734H111.747V79.5771C111.747 79.9939 111.652 80.3379 111.461 80.6093C111.271 80.8834 111.011 81.0862 110.681 81.2177C110.351 81.352 109.975 81.4191 109.552 81.4191ZM109.561 78.633C109.798 78.633 110 78.577 110.165 78.4652C110.33 78.3505 110.456 78.1854 110.542 77.97C110.629 77.7546 110.673 77.4973 110.673 77.198C110.673 76.9015 110.629 76.6427 110.542 76.4217C110.459 76.198 110.334 76.0245 110.169 75.9014C110.004 75.7756 109.801 75.7126 109.561 75.7126C109.314 75.7126 109.107 75.7784 108.94 75.9098C108.775 76.0385 108.65 76.2147 108.566 76.4385C108.482 76.6595 108.44 76.9127 108.44 77.198C108.44 77.4861 108.482 77.7379 108.566 77.9533C108.653 78.1686 108.779 78.3365 108.944 78.4568C109.112 78.5743 109.317 78.633 109.561 78.633Z" fill="white"/>
<defs>
<radialGradient id="paint0_angular_966_61371" cx="0" cy="0" r="1" gradientUnits="userSpaceOnUse" gradientTransform="translate(99.6202 81.4194) rotate(-1.26098) scale(52.1552 52.1047)">
<stop stop-color="#1D4ED8"/>
<stop offset="1" stop-color="#1D4ED8" stop-opacity="0"/>
</radialGradient>
<radialGradient id="paint1_angular_966_61371" cx="0" cy="0" r="1" gradientUnits="userSpaceOnUse" gradientTransform="translate(200.792 80.9102) rotate(180) scale(75.2585)">
<stop stop-color="#1D4ED8"/>
<stop offset="1" stop-color="#1D4ED8" stop-opacity="0"/>
</radialGradient>
</defs>
</svg>
