<svg width="242" height="121" viewBox="0 0 242 121" fill="none" xmlns="http://www.w3.org/2000/svg">
<rect width="242" height="121" fill="#1E1E1E"/>
<g id="320">
<path d="M-139 -3636C-139 -3637.1 -138.105 -3638 -137 -3638H1864C1865.1 -3638 1866 -3637.1 1866 -3636V4947C1866 4948.1 1865.1 4949 1864 4949H-137C-138.105 4949 -139 4948.1 -139 4947V-3636Z" fill="#404040"/>
<path d="M-137 -3637H1864V-3639H-137V-3637ZM1865 -3636V4947H1867V-3636H1865ZM1864 4948H-137V4950H1864V4948ZM-138 4947V-3636H-140V4947H-138ZM-137 4948C-137.552 4948 -138 4947.55 -138 4947H-140C-140 4948.66 -138.657 4950 -137 4950V4948ZM1865 4947C1865 4947.55 1864.55 4948 1864 4948V4950C1865.66 4950 1867 4948.66 1867 4947H1865ZM1864 -3637C1864.55 -3637 1865 -3636.55 1865 -3636H1867C1867 -3637.66 1865.66 -3639 1864 -3639V-3637ZM-137 -3639C-138.657 -3639 -140 -3637.66 -140 -3636H-138C-138 -3636.55 -137.552 -3637 -137 -3637V-3639Z" fill="white" fill-opacity="0.1"/>
<g id="WebPage 1934" clip-path="url(#clip0_0_1)">
<rect width="320" height="8387" transform="translate(-39 -3538)" fill="#0F0F11"/>
<g id="Frame 1000001655">
<g id="Frame 1000003102" clip-path="url(#clip1_0_1)">
<g id="Frame 1000001672">
<g id="Frame 1000001755">
<g id="Illustation">
<rect width="280" height="160" transform="translate(-19 -19.5)" fill="#0F0F11"/>
<g id="Group 1000001297">
<path id="Rectangle 1" d="M60.2923 40.6814C72.0244 28.9493 91.0459 28.9492 102.778 40.6814L122.191 60.0942L100.033 82.2521C88.8062 93.4789 70.604 93.4789 59.3772 82.2521V82.2521C48.1504 71.0254 48.1504 52.8232 59.3772 41.5964L60.2923 40.6814Z" stroke="url(#paint0_angular_0_1)" stroke-width="20"/>
<path id="Rectangle 1_2" d="M211.793 90.5C195.224 107.069 168.362 107.069 151.793 90.5L121.793 60.5L151.793 30.5C168.362 13.9315 195.224 13.9315 211.793 30.5V30.5C228.362 47.0685 228.362 73.9315 211.793 90.5V90.5Z" stroke="url(#paint1_angular_0_1)" stroke-width="20"/>
<path id="Subtract" fill-rule="evenodd" clip-rule="evenodd" d="M117.649 50.506L105.87 62.244L29.5521 62.244L29.5521 73.3174L0.207031 56.375L29.5521 39.4326L29.5521 50.506L117.649 50.506Z" fill="#60A5FA"/>
<g id="Testing">
<path d="M62.9395 53.8465V52.9024H67.9158V53.8465H65.9899V59.1543H64.8696V53.8465H62.9395Z" fill="#111827"/>
<path d="M70.2446 59.2508C69.7718 59.2508 69.3648 59.1515 69.0235 58.9529C68.6851 58.7543 68.4235 58.4746 68.2389 58.1137C68.0571 57.7529 67.9662 57.3277 67.9662 56.8382C67.9662 56.3543 68.0557 55.9305 68.2347 55.5668C68.4165 55.2032 68.6725 54.9192 69.0026 54.715C69.3354 54.508 69.7257 54.4045 70.1732 54.4045C70.4586 54.4045 70.7299 54.4507 70.9872 54.543C71.2474 54.6353 71.4768 54.778 71.6754 54.971C71.8768 55.164 72.0334 55.4102 72.1453 55.7095C72.26 56.006 72.3174 56.3598 72.3174 56.771V57.1151H68.4823V56.3724H71.7761L71.2642 56.5906C71.2642 56.3277 71.2236 56.0969 71.1425 55.8983C71.0614 55.6969 70.9397 55.5402 70.7774 55.4284C70.618 55.3165 70.418 55.2605 70.1774 55.2605C69.9369 55.2605 69.7327 55.3179 69.5648 55.4325C69.397 55.5444 69.2683 55.6955 69.1788 55.8857C69.0921 56.0731 69.0487 56.2829 69.0487 56.5151V57.027C69.0487 57.3235 69.0991 57.5739 69.1998 57.7781C69.3005 57.9823 69.4417 58.1361 69.6236 58.2396C69.8054 58.3431 70.0166 58.3949 70.2572 58.3949C70.4166 58.3949 70.5607 58.3725 70.6893 58.3277C70.8208 58.2802 70.9341 58.2116 71.0292 58.1221C71.1243 58.0298 71.1956 57.9179 71.2432 57.7865L72.246 57.9921C72.1705 58.2438 72.0418 58.4648 71.86 58.655C71.6782 58.8424 71.4502 58.9893 71.1761 59.0956C70.9047 59.1991 70.5942 59.2508 70.2446 59.2508Z" fill="#111827"/>
<path d="M75.0321 59.2508C74.6713 59.2508 74.3524 59.1991 74.0754 59.0956C73.7985 58.9921 73.5705 58.841 73.3915 58.6424C73.2153 58.4438 73.1006 58.2033 73.0474 57.9207L74.0671 57.7277C74.1314 57.9599 74.2447 58.1333 74.4069 58.248C74.572 58.3599 74.7874 58.4159 75.0531 58.4159C75.3216 58.4159 75.5342 58.3627 75.6909 58.2564C75.8503 58.1473 75.93 58.013 75.93 57.8536C75.93 57.7193 75.8783 57.6088 75.7748 57.5221C75.6713 57.4326 75.5119 57.3641 75.2965 57.3165L74.495 57.1445C74.0531 57.0494 73.723 56.8927 73.5048 56.6745C73.2866 56.4564 73.1775 56.1752 73.1775 55.8312C73.1775 55.5402 73.2572 55.2885 73.4167 55.0759C73.5761 54.8633 73.7971 54.6983 74.0796 54.5808C74.365 54.4633 74.695 54.4045 75.0699 54.4045C75.4251 54.4045 75.73 54.4549 75.9846 54.5556C76.2419 54.6563 76.4489 54.7976 76.6056 54.9794C76.765 55.1584 76.8755 55.3696 76.9371 55.613L75.9636 55.806C75.9105 55.6409 75.814 55.5025 75.6741 55.3906C75.5342 55.2759 75.337 55.2186 75.0825 55.2186C74.8503 55.2186 74.6559 55.2703 74.4992 55.3738C74.3454 55.4745 74.2685 55.6046 74.2685 55.764C74.2685 55.9011 74.3202 56.0144 74.4237 56.1039C74.5272 56.1934 74.6978 56.2633 74.9356 56.3137L75.7328 56.4815C76.1776 56.5766 76.5077 56.7291 76.7231 56.9389C76.9385 57.1487 77.0462 57.4186 77.0462 57.7487C77.0462 58.0452 76.9608 58.3068 76.7902 58.5333C76.6196 58.7571 76.3818 58.9333 76.0769 59.062C75.7748 59.1879 75.4265 59.2508 75.0321 59.2508Z" fill="#111827"/>
<path d="M80.1511 54.4633V55.3193H77.4867V54.4633H80.1511ZM78.1539 53.3472H79.2448V57.8326C79.2448 58.0033 79.2812 58.1291 79.3539 58.2103C79.4267 58.2886 79.5455 58.3277 79.7106 58.3277C79.7609 58.3277 79.8267 58.3221 79.9078 58.311C79.9917 58.297 80.0588 58.2844 80.1092 58.2732L80.2812 59.1166C80.1609 59.1529 80.0379 59.1781 79.912 59.1921C79.7861 59.2089 79.6658 59.2173 79.5511 59.2173C79.1008 59.2173 78.7553 59.1054 78.5147 58.8816C78.2742 58.6578 78.1539 58.3389 78.1539 57.9249V53.3472Z" fill="#111827"/>
<path d="M81.0197 59.1543V54.4633H82.1106V59.1543H81.0197ZM81.5652 53.8003C81.3917 53.8003 81.2421 53.7416 81.1162 53.6241C80.9931 53.5066 80.9316 53.3668 80.9316 53.2045C80.9316 53.0367 80.9931 52.8954 81.1162 52.7807C81.2421 52.6632 81.3917 52.6045 81.5652 52.6045C81.7414 52.6045 81.8911 52.6632 82.0141 52.7807C82.14 52.8954 82.203 53.0367 82.203 53.2045C82.203 53.3668 82.14 53.5066 82.0141 53.6241C81.8911 53.7416 81.7414 53.8003 81.5652 53.8003Z" fill="#111827"/>
<path d="M84.3597 56.406V59.1543H83.2687V54.4633H84.3009L84.3177 55.6214H84.2296C84.3611 55.2158 84.5541 54.9123 84.8086 54.7108C85.0632 54.5066 85.3821 54.4045 85.7653 54.4045C86.087 54.4045 86.3681 54.4731 86.6087 54.6101C86.8492 54.7472 87.0353 54.9472 87.1667 55.2102C87.301 55.4731 87.3681 55.7934 87.3681 56.171V59.1543H86.2772V56.3389C86.2772 56.0256 86.1961 55.7794 86.0338 55.6004C85.8716 55.4214 85.6478 55.3318 85.3625 55.3318C85.1695 55.3318 84.9974 55.3738 84.8464 55.4577C84.6953 55.5416 84.5765 55.6647 84.4897 55.827C84.403 55.9864 84.3597 56.1794 84.3597 56.406Z" fill="#111827"/>
<path d="M90.5529 61.0089C90.178 61.0089 89.8507 60.9614 89.571 60.8663C89.2941 60.7712 89.0661 60.6411 88.8871 60.4761C88.7108 60.3138 88.5836 60.1292 88.5052 59.9222L89.4283 59.5907C89.4787 59.6774 89.5472 59.7669 89.6339 59.8593C89.7235 59.9516 89.8409 60.0271 89.9864 60.0858C90.1347 60.1474 90.3221 60.1781 90.5487 60.1781C90.8871 60.1781 91.1585 60.0984 91.3627 59.939C91.5669 59.7823 91.669 59.5362 91.669 59.2005V58.3151H91.5767C91.5235 58.427 91.4452 58.5431 91.3417 58.6634C91.2382 58.7809 91.0983 58.8802 90.9221 58.9613C90.7487 59.0424 90.5263 59.083 90.2549 59.083C89.8969 59.083 89.571 58.9991 89.2773 58.8312C88.9864 58.6606 88.7542 58.4061 88.5808 58.0676C88.4101 57.7291 88.3248 57.3053 88.3248 56.7962C88.3248 56.2815 88.4115 55.8465 88.585 55.4913C88.7584 55.136 88.9906 54.8661 89.2815 54.6815C89.5752 54.4969 89.9025 54.4045 90.2633 54.4045C90.5403 54.4045 90.7682 54.4507 90.9473 54.543C91.1263 54.6353 91.269 54.7472 91.3753 54.8787C91.4816 55.0074 91.5627 55.1276 91.6186 55.2395H91.6774V54.4633H92.7473V59.1669C92.7473 59.5837 92.6522 59.9278 92.462 60.1991C92.2718 60.4733 92.0116 60.6761 91.6816 60.8075C91.3515 60.9418 90.9752 61.0089 90.5529 61.0089ZM90.5612 58.2228C90.799 58.2228 91.0004 58.1669 91.1655 58.055C91.3305 57.9403 91.4564 57.7753 91.5431 57.5599C91.6298 57.3445 91.6732 57.0871 91.6732 56.7878C91.6732 56.4913 91.6298 56.2326 91.5431 56.0116C91.4592 55.7878 91.3347 55.6144 91.1697 55.4913C91.0046 55.3654 90.8018 55.3025 90.5612 55.3025C90.3151 55.3025 90.1081 55.3682 89.9402 55.4997C89.7752 55.6284 89.6507 55.8046 89.5668 56.0284C89.4829 56.2494 89.4409 56.5025 89.4409 56.7878C89.4409 57.076 89.4829 57.3277 89.5668 57.5431C89.6535 57.7585 89.7794 57.9263 89.9444 58.0466C90.1123 58.1641 90.3179 58.2228 90.5612 58.2228Z" fill="#111827"/>
</g>
</g>
</g>
</g>
</g>
<g id="Border">
</g>
</g>
</g>
</g>
</g>
<defs>
<radialGradient id="paint0_angular_0_1" cx="0" cy="0" r="1" gradientUnits="userSpaceOnUse" gradientTransform="translate(80.6201 61.0092) rotate(-1.26098) scale(52.1552 52.1047)">
<stop stop-color="#1D4ED8"/>
<stop offset="1" stop-color="#1D4ED8" stop-opacity="0"/>
</radialGradient>
<radialGradient id="paint1_angular_0_1" cx="0" cy="0" r="1" gradientUnits="userSpaceOnUse" gradientTransform="translate(181.793 60.5) rotate(180) scale(75.2585)">
<stop stop-color="#1D4ED8"/>
<stop offset="1" stop-color="#1D4ED8" stop-opacity="0"/>
</radialGradient>
<clipPath id="clip0_0_1">
<rect width="320" height="8387" fill="white" transform="translate(-39 -3538)"/>
</clipPath>
<clipPath id="clip1_0_1">
<rect width="320" height="740" fill="white" transform="translate(-39 -559.5)"/>
</clipPath>
</defs>
</svg>
