<svg width="1120" height="480" viewBox="0 0 1120 480" fill="none" xmlns="http://www.w3.org/2000/svg">
<rect width="1120" height="480" fill="#FAFAFA"/>
<path d="M319.365 180.944C354.561 145.748 411.626 145.748 446.822 180.944L505.061 239.183L438.587 305.657C404.906 339.337 350.3 339.337 316.62 305.657V305.657C282.939 271.976 282.939 217.37 316.62 183.69L319.365 180.944Z" stroke="url(#paint0_angular_909_115298)" stroke-width="50"/>
<path d="M774.363 330.001C724.658 379.707 644.069 379.707 594.363 330.001L504.363 240.001L594.363 150.001C644.069 100.295 724.658 100.295 774.363 150.001V150.001C824.069 199.707 824.069 280.295 774.363 330.001V330.001Z" stroke="url(#paint1_angular_909_115298)" stroke-width="50"/>
<path fill-rule="evenodd" clip-rule="evenodd" d="M493.266 215.723L458.052 250.937L222.971 250.937V284.157L134.936 233.33L222.971 182.503V215.723L493.266 215.723Z" fill="#2563EB"/>
<path d="M317.869 227.529V224.869H331.802V227.529H326.4V242.33H323.283V227.529H317.869ZM337.146 242.6C335.873 242.6 334.771 242.326 333.841 241.779C332.92 241.225 332.209 240.455 331.709 239.471C331.209 238.479 330.959 237.33 330.959 236.025C330.959 234.729 331.212 233.584 331.72 232.592C332.228 231.592 332.931 230.811 333.83 230.248C334.736 229.686 335.787 229.404 336.982 229.404C337.841 229.404 338.63 229.549 339.349 229.838C340.076 230.127 340.709 230.549 341.248 231.104C341.787 231.658 342.205 232.342 342.502 233.154C342.798 233.959 342.947 234.881 342.947 235.92V236.787H332.248V234.736H341.447L340.087 235.311C340.087 234.592 339.966 233.971 339.724 233.447C339.482 232.916 339.13 232.506 338.67 232.217C338.216 231.92 337.666 231.771 337.017 231.771C336.377 231.771 335.822 231.92 335.353 232.217C334.892 232.506 334.537 232.912 334.287 233.436C334.037 233.951 333.912 234.545 333.912 235.217V236.564C333.912 237.33 334.045 237.99 334.31 238.545C334.576 239.092 334.955 239.514 335.447 239.811C335.939 240.1 336.525 240.244 337.205 240.244C337.673 240.244 338.095 240.178 338.47 240.045C338.845 239.904 339.162 239.705 339.42 239.447C339.677 239.182 339.869 238.869 339.994 238.51L342.771 238.768C342.599 239.525 342.252 240.193 341.728 240.771C341.205 241.35 340.552 241.799 339.771 242.119C338.99 242.439 338.115 242.6 337.146 242.6ZM350.13 242.611C349.123 242.611 348.224 242.459 347.435 242.154C346.654 241.85 346.017 241.404 345.525 240.818C345.041 240.232 344.744 239.518 344.634 238.674L347.529 238.439C347.646 239.057 347.923 239.529 348.361 239.857C348.798 240.178 349.384 240.338 350.119 240.338C350.853 240.338 351.431 240.193 351.853 239.904C352.275 239.615 352.486 239.252 352.486 238.814C352.486 238.439 352.337 238.135 352.041 237.9C351.744 237.658 351.318 237.479 350.763 237.361L348.595 236.904C347.392 236.654 346.482 236.229 345.865 235.627C345.255 235.018 344.951 234.24 344.951 233.295C344.951 232.514 345.162 231.834 345.584 231.256C346.013 230.67 346.611 230.217 347.377 229.896C348.15 229.568 349.048 229.404 350.072 229.404C351.072 229.404 351.939 229.561 352.673 229.873C353.416 230.186 354.005 230.627 354.443 231.197C354.88 231.76 355.146 232.428 355.24 233.201L352.486 233.436C352.416 232.928 352.177 232.506 351.771 232.17C351.365 231.826 350.818 231.654 350.13 231.654C349.482 231.654 348.955 231.799 348.548 232.088C348.15 232.369 347.951 232.725 347.951 233.154C347.951 233.529 348.095 233.838 348.384 234.08C348.673 234.322 349.111 234.506 349.697 234.631L351.923 235.1C353.158 235.357 354.068 235.771 354.654 236.342C355.248 236.904 355.545 237.643 355.545 238.557C355.545 239.377 355.314 240.092 354.853 240.701C354.392 241.303 353.752 241.771 352.931 242.107C352.119 242.443 351.185 242.611 350.13 242.611ZM364.298 229.627V232.018H356.74V229.627H364.298ZM358.767 226.369H361.767V238.721C361.767 239.174 361.861 239.498 362.048 239.693C362.244 239.889 362.576 239.986 363.045 239.986C363.216 239.986 363.42 239.979 363.654 239.963C363.896 239.947 364.091 239.932 364.24 239.916L364.462 242.283C364.197 242.33 363.892 242.361 363.548 242.377C363.212 242.4 362.884 242.412 362.564 242.412C361.298 242.412 360.349 242.131 359.716 241.568C359.084 241.006 358.767 240.174 358.767 239.072V226.369ZM366.408 242.33V229.627H369.408V242.33H366.408ZM367.908 227.787C367.408 227.787 366.986 227.627 366.642 227.307C366.306 226.979 366.138 226.58 366.138 226.111C366.138 225.635 366.306 225.236 366.642 224.916C366.986 224.596 367.408 224.436 367.908 224.436C368.408 224.436 368.826 224.596 369.162 224.916C369.505 225.236 369.677 225.635 369.677 226.111C369.677 226.58 369.505 226.979 369.162 227.307C368.818 227.627 368.4 227.787 367.908 227.787ZM375.291 235.029V242.33H372.291V229.627H375.197L375.209 232.826H374.787C375.17 231.709 375.72 230.861 376.439 230.283C377.158 229.705 378.052 229.416 379.123 229.416C380.005 229.416 380.779 229.607 381.443 229.99C382.107 230.365 382.627 230.92 383.002 231.654C383.377 232.381 383.564 233.275 383.564 234.338V242.33H380.564V234.807C380.564 233.908 380.341 233.221 379.896 232.744C379.459 232.26 378.841 232.018 378.045 232.018C377.513 232.018 377.041 232.127 376.627 232.346C376.212 232.564 375.884 232.9 375.642 233.354C375.408 233.799 375.291 234.357 375.291 235.029ZM392.084 247.439C391.013 247.439 390.084 247.291 389.295 246.994C388.513 246.705 387.88 246.295 387.396 245.764C386.92 245.232 386.599 244.619 386.435 243.924L389.201 243.514C389.31 243.818 389.486 244.092 389.728 244.334C389.978 244.584 390.298 244.779 390.689 244.92C391.08 245.068 391.545 245.143 392.084 245.143C393.013 245.143 393.744 244.904 394.275 244.428C394.814 243.959 395.084 243.256 395.084 242.318V240.162H394.966C394.755 240.568 394.482 240.936 394.146 241.264C393.81 241.584 393.404 241.838 392.927 242.025C392.451 242.205 391.892 242.295 391.252 242.295C390.212 242.295 389.287 242.041 388.474 241.533C387.662 241.018 387.025 240.287 386.564 239.342C386.103 238.389 385.873 237.252 385.873 235.932C385.873 234.596 386.103 233.443 386.564 232.475C387.033 231.498 387.673 230.744 388.486 230.213C389.298 229.682 390.22 229.416 391.252 229.416C391.892 229.416 392.455 229.518 392.939 229.721C393.423 229.916 393.837 230.182 394.181 230.518C394.525 230.846 394.806 231.213 395.025 231.619H395.107V229.627H398.06V242.166C398.06 243.393 397.798 244.393 397.275 245.166C396.759 245.947 396.048 246.521 395.142 246.889C394.244 247.256 393.224 247.439 392.084 247.439ZM392.013 239.869C392.67 239.869 393.232 239.709 393.701 239.389C394.177 239.061 394.541 238.6 394.791 238.006C395.041 237.412 395.166 236.709 395.166 235.896C395.166 235.092 395.041 234.389 394.791 233.787C394.541 233.186 394.177 232.717 393.701 232.381C393.232 232.045 392.67 231.877 392.013 231.877C391.373 231.877 390.822 232.041 390.361 232.369C389.9 232.697 389.545 233.162 389.295 233.764C389.052 234.365 388.931 235.076 388.931 235.896C388.931 236.725 389.052 237.436 389.295 238.029C389.545 238.623 389.9 239.08 390.361 239.4C390.822 239.713 391.373 239.869 392.013 239.869Z" fill="white"/>
<defs>
<radialGradient id="paint0_angular_909_115298" cx="0" cy="0" r="1" gradientUnits="userSpaceOnUse" gradientTransform="translate(380.348 241.928) rotate(-1.26098) scale(156.466 156.314)">
<stop stop-color="#3B82F6"/>
<stop offset="1" stop-color="#3B82F6" stop-opacity="0"/>
</radialGradient>
<radialGradient id="paint1_angular_909_115298" cx="0" cy="0" r="1" gradientUnits="userSpaceOnUse" gradientTransform="translate(684.363 240.001) rotate(180) scale(225.775)">
<stop stop-color="#3B82F6"/>
<stop offset="1" stop-color="#3B82F6" stop-opacity="0"/>
</radialGradient>
</defs>
</svg>
