<svg width="280" height="161" viewBox="0 0 280 161" fill="none" xmlns="http://www.w3.org/2000/svg">
<rect width="280" height="160" transform="translate(0 0.780273)" fill="#FAFAFA"/>
<rect x="30" y="64.7803" width="32" height="32" rx="4" fill="#3B82F6"/>
<path d="M55.2894 72.9357L51.1751 70.9564C50.6964 70.7251 50.127 70.8226 49.7527 71.197L41.8723 78.3874L38.438 75.7831C38.1192 75.5388 37.6699 75.5588 37.3736 75.8288L36.2737 76.8312C35.9093 77.16 35.9093 77.7331 36.2705 78.0618L39.2492 80.7799L36.2705 83.4979C35.9093 83.8267 35.9093 84.3998 36.2737 84.7285L37.3736 85.731C37.673 86.001 38.1192 86.021 38.438 85.7766L41.8723 83.1692L49.7564 90.3627C50.1277 90.7371 50.697 90.8346 51.1758 90.6033L55.2938 88.6209C55.7269 88.4128 56 87.9765 56 87.4947V74.0607C56 73.5819 55.7231 73.1426 55.2906 72.9345L55.2894 72.9357ZM51.002 85.3216L45.0191 80.7805L51.002 76.2394V85.3216Z" fill="white"/>
<rect x="70" y="64.7803" width="32" height="32" rx="4" fill="#3B82F6"/>
<path fill-rule="evenodd" clip-rule="evenodd" d="M76 70.7803H96V90.7803H76V70.7803ZM85.3999 87.0302H77.8999V88.2802H85.3999V87.0302ZM83.2499 73.3802V74.8802H82.0999V80.1302H83.2499V81.6802H79.1499V80.1302H80.2999V74.8802H79.1499V73.3802H83.2499ZM85.5999 81.4302C86.1111 81.6854 86.679 81.8059 87.2499 81.7802C87.9547 81.7444 88.6332 81.5009 89.1999 81.0802C89.5264 80.7819 89.7679 80.4023 89.8999 79.9802C90.0509 79.5641 90.1188 79.1224 90.0999 78.6802V73.2802H88.2499V78.6302C88.2889 79.0057 88.1815 79.3819 87.9499 79.6802C87.758 79.9225 87.4581 80.0537 87.1499 80.0302C86.8696 80.0415 86.5919 79.972 86.3499 79.8302C86.0927 79.6598 85.8575 79.4583 85.6499 79.2302L84.4999 80.5302C84.8089 80.8944 85.1816 81.1994 85.5999 81.4302Z" fill="white"/>
<rect x="110" y="64.7803" width="32" height="32" rx="4" fill="#3B82F6"/>
<path fill-rule="evenodd" clip-rule="evenodd" d="M134.215 75.1194L129.897 70.7803V81.8894L133.509 87.3218L134.244 86.5243L134.215 75.1194ZM122.015 70.7811L133.09 87.681L129.991 90.7801L118.91 73.9177L122.015 70.7811ZM122.104 90.7803L117.785 86.4411L117.756 75.0362L118.491 74.2387L122.104 79.6712V90.7803Z" fill="white"/>
<rect x="150" y="64.7803" width="32" height="32" rx="4" fill="#3B82F6"/>
<path d="M156.596 81.3294V81.3123V78.7016H157.168V81.5302C157.195 81.7582 157.175 81.9891 157.111 82.2094C157.046 82.4296 156.938 82.6346 156.792 82.812C156.522 83.0453 156.175 83.1715 155.818 83.1667L155.758 82.7394C155.989 82.7395 156.211 82.6543 156.382 82.5001C156.536 82.3207 156.596 82.0771 156.596 81.3294ZM160.866 80.9923C160.866 81.3128 160.866 81.5991 160.891 81.8469H160.383L160.349 81.3384C160.242 81.5183 160.09 81.6669 159.908 81.7689C159.726 81.871 159.519 81.923 159.31 81.9195C158.815 81.9195 158.225 81.6504 158.225 80.5522V78.7278H158.798V80.4369C158.798 81.0308 158.981 81.4282 159.498 81.4282C159.605 81.4293 159.71 81.4092 159.809 81.369C159.907 81.3288 159.997 81.2694 160.072 81.1942C160.147 81.119 160.207 81.0295 160.247 80.931C160.287 80.8325 160.307 80.727 160.306 80.6206V78.7064H160.879V80.9753L160.866 80.9923ZM161.951 79.7443C161.951 79.3469 161.951 79.0222 161.925 78.7274H162.438L162.464 79.2615C162.578 79.0685 162.742 78.9102 162.94 78.8033C163.137 78.6965 163.359 78.6451 163.583 78.6547C164.344 78.6547 164.916 79.2914 164.916 80.24C164.916 81.3594 164.228 81.9149 163.485 81.9149C163.295 81.9234 163.105 81.8826 162.936 81.7965C162.766 81.7105 162.621 81.582 162.515 81.4235V83.1326H161.951V79.7571V79.7443ZM162.515 80.5775C162.517 80.655 162.525 80.7323 162.541 80.8082C162.589 80.998 162.7 81.1661 162.854 81.286C163.009 81.406 163.199 81.4709 163.395 81.4705C163.998 81.4705 164.352 80.9792 164.352 80.2656C164.352 79.6418 164.019 79.1077 163.417 79.1077C163.178 79.1272 162.955 79.233 162.789 79.4053C162.623 79.5775 162.526 79.8044 162.515 80.0434V80.5775ZM165.936 78.7245L166.624 80.5661C166.697 80.7712 166.774 81.019 166.825 81.2028C166.885 81.0148 166.949 80.7755 167.026 80.5533L167.65 78.7245H168.252L167.398 80.9464C166.97 82.0146 166.71 82.5658 166.317 82.8991C166.119 83.0799 165.877 83.2065 165.616 83.2665L165.475 82.788C165.658 82.7279 165.827 82.6337 165.975 82.5102C166.183 82.3404 166.349 82.1237 166.458 81.8779C166.481 81.8353 166.497 81.7891 166.505 81.7411C166.5 81.6896 166.487 81.6391 166.466 81.5916L165.304 78.716H165.928L165.936 78.7245ZM169.772 77.8281V78.7254H170.593V79.1527H169.772V80.8362C169.772 81.2207 169.883 81.4429 170.2 81.4429C170.312 81.4448 170.424 81.4318 170.533 81.4045L170.559 81.8317C170.395 81.8883 170.223 81.9144 170.05 81.9087C169.936 81.9158 169.821 81.8981 169.714 81.8568C169.607 81.8155 169.51 81.7516 169.43 81.6694C169.256 81.4366 169.177 81.1465 169.208 80.8575V79.1484H168.721V78.7211H169.217V77.9606L169.772 77.8281ZM171.647 80.3857C171.636 80.5306 171.656 80.6763 171.706 80.8127C171.756 80.9491 171.836 81.073 171.938 81.1758C172.041 81.2786 172.165 81.3578 172.301 81.4081C172.438 81.4583 172.584 81.4783 172.728 81.4667C173.022 81.4732 173.313 81.4179 173.583 81.3043L173.681 81.7316C173.35 81.8682 172.993 81.9337 172.634 81.9239C172.425 81.9382 172.216 81.9071 172.02 81.8328C171.824 81.7585 171.646 81.6427 171.5 81.4933C171.353 81.3439 171.24 81.1645 171.169 80.9675C171.098 80.7704 171.07 80.5603 171.088 80.3515C171.088 79.4115 171.647 78.668 172.562 78.668C173.587 78.668 173.844 79.5653 173.844 80.1378C173.849 80.2261 173.849 80.3145 173.844 80.4028H171.635L171.647 80.3857ZM173.322 79.9584C173.339 79.8442 173.331 79.7277 173.298 79.6169C173.266 79.5061 173.21 79.4035 173.135 79.3161C173.06 79.2286 172.967 79.1583 172.862 79.1099C172.757 79.0615 172.643 79.0361 172.528 79.0355C172.293 79.0525 172.073 79.1565 171.911 79.3272C171.749 79.498 171.656 79.7231 171.652 79.9584H173.322ZM174.712 79.6961C174.712 79.3287 174.712 79.0125 174.687 78.7219H175.199V79.333H175.225C175.279 79.1444 175.39 78.9772 175.543 78.8547C175.696 78.7322 175.884 78.6604 176.08 78.6493C176.134 78.6422 176.188 78.6422 176.242 78.6493V79.1834C176.177 79.1759 176.111 79.1759 176.045 79.1834C175.852 79.1909 175.667 79.2688 175.526 79.4025C175.385 79.5361 175.298 79.7165 175.281 79.9098C175.265 79.9972 175.256 80.0858 175.255 80.1747V81.8368H174.691V79.7004L174.712 79.6961Z" fill="white"/>
<path fill-rule="evenodd" clip-rule="evenodd" d="M175.189 82.8166C175.356 82.1377 175.465 81.5346 175.516 80.9543C175.469 81.5948 175.358 82.2177 175.189 82.8166ZM174.944 83.5625C174.035 84.5455 172.296 85.9103 169.189 86.5608C167.906 86.8959 164.421 87.2417 160.738 85.9438C159.885 85.6101 157.978 84.6695 157.058 83.5369C158.402 87.1475 161.901 89.7217 166.006 89.7217C170.101 89.7217 173.593 87.1597 174.944 83.5625ZM175.449 78.9329C175.404 78.6344 175.344 78.3262 175.269 78.0018C175.344 78.3067 175.404 78.6173 175.449 78.9329ZM174.944 76.9545C173.594 73.3561 170.102 70.793 166.006 70.793C161.905 70.793 158.409 73.362 157.062 76.9669C157.585 76.3701 158.841 75.2169 161.024 74.4527C162.437 73.9104 166.002 73.1615 169.556 74.0314C170.641 74.2719 173.042 74.9427 174.944 76.9545Z" fill="white"/>
<ellipse cx="173.016" cy="70.2293" rx="1.45991" ry="1.44901" fill="white"/>
<ellipse cx="157.447" cy="72.1076" rx="1.05101" ry="1.04316" fill="white"/>
<ellipse cx="158.898" cy="90.9557" rx="1.83857" ry="1.82484" fill="white"/>
<path d="M190 64.7803V96.7803" stroke="#D4D4D8"/>
<rect x="199" y="64.7803" width="51" height="32" rx="4" fill="#EEEEF0"/>
<path d="M202.871 83.7803L204.984 77.96H205.844L207.984 83.7803H207.203L205.969 80.3271C205.893 80.1136 205.805 79.848 205.703 79.5303C205.604 79.21 205.483 78.8024 205.34 78.3076H205.48C205.34 78.8076 205.217 79.2204 205.113 79.5459C205.012 79.8688 204.927 80.1292 204.859 80.3271L203.66 83.7803H202.871ZM203.934 82.1553V81.5068H206.922V82.1553H203.934ZM209.512 81.1631V83.7803H208.809V79.4131H209.484L209.488 80.4717H209.391C209.523 80.068 209.712 79.7816 209.957 79.6123C210.204 79.443 210.493 79.3584 210.824 79.3584C211.118 79.3584 211.376 79.4196 211.598 79.542C211.819 79.6618 211.991 79.8441 212.113 80.0889C212.238 80.3311 212.301 80.637 212.301 81.0068V83.7803H211.598V81.0654C211.598 80.7295 211.509 80.4665 211.332 80.2764C211.158 80.0863 210.918 79.9912 210.613 79.9912C210.405 79.9912 210.217 80.0368 210.051 80.1279C209.884 80.2191 209.753 80.3519 209.656 80.5264C209.56 80.7008 209.512 80.9131 209.512 81.1631ZM215.172 83.874C214.81 83.874 214.49 83.7816 214.211 83.5967C213.932 83.4118 213.715 83.1501 213.559 82.8115C213.402 82.473 213.324 82.0719 213.324 81.6084C213.324 81.1475 213.402 80.749 213.559 80.4131C213.717 80.0745 213.936 79.8141 214.215 79.6318C214.493 79.4495 214.814 79.3584 215.176 79.3584C215.46 79.3584 215.685 79.4053 215.852 79.499C216.018 79.5928 216.146 79.6995 216.234 79.8193C216.326 79.9365 216.395 80.0342 216.441 80.1123H216.496V77.96H217.199V83.7803H216.52V83.1045H216.441C216.395 83.1852 216.324 83.2868 216.23 83.4092C216.139 83.529 216.009 83.637 215.84 83.7334C215.673 83.8271 215.451 83.874 215.172 83.874ZM215.277 83.2451C215.543 83.2451 215.767 83.1761 215.949 83.0381C216.132 82.8975 216.27 82.7035 216.363 82.4561C216.457 82.2087 216.504 81.9235 216.504 81.6006C216.504 81.2777 216.457 80.9964 216.363 80.7568C216.272 80.5146 216.135 80.3258 215.953 80.1904C215.771 80.055 215.546 79.9873 215.277 79.9873C215.001 79.9873 214.771 80.0589 214.586 80.2021C214.404 80.3454 214.267 80.5394 214.176 80.7842C214.085 81.0264 214.039 81.2985 214.039 81.6006C214.039 81.9053 214.085 82.1826 214.176 82.4326C214.27 82.68 214.409 82.8779 214.594 83.0264C214.779 83.1722 215.007 83.2451 215.277 83.2451ZM220.684 83.7803V79.4131H221.367L221.371 80.3896H221.316C221.376 80.1527 221.47 79.9574 221.598 79.8037C221.728 79.6475 221.879 79.5303 222.051 79.4521C222.225 79.374 222.406 79.335 222.594 79.335C222.911 79.335 223.168 79.4326 223.363 79.6279C223.561 79.8232 223.689 80.0798 223.746 80.3975H223.652C223.704 80.1787 223.799 79.9899 223.938 79.8311C224.076 79.6722 224.242 79.5498 224.438 79.4639C224.635 79.3779 224.85 79.335 225.082 79.335C225.335 79.335 225.565 79.3896 225.773 79.499C225.982 79.6084 226.147 79.7738 226.27 79.9951C226.395 80.2165 226.457 80.4964 226.457 80.835V83.7803H225.75V80.8545C225.75 80.5394 225.661 80.3141 225.484 80.1787C225.31 80.0433 225.105 79.9756 224.871 79.9756C224.676 79.9756 224.507 80.0173 224.363 80.1006C224.223 80.1813 224.113 80.2933 224.035 80.4365C223.96 80.5798 223.922 80.7438 223.922 80.9287V83.7803H223.219V80.7842C223.219 80.542 223.138 80.3467 222.977 80.1982C222.815 80.0498 222.611 79.9756 222.363 79.9756C222.194 79.9756 222.034 80.016 221.883 80.0967C221.734 80.1748 221.615 80.292 221.523 80.4482C221.432 80.6045 221.387 80.7985 221.387 81.0303V83.7803H220.684ZM229.469 83.874C229.073 83.874 228.725 83.7803 228.426 83.5928C228.129 83.4053 227.897 83.1423 227.73 82.8037C227.564 82.4652 227.48 82.0719 227.48 81.624C227.48 81.1683 227.564 80.7712 227.73 80.4326C227.897 80.0915 228.129 79.8271 228.426 79.6396C228.725 79.4521 229.073 79.3584 229.469 79.3584C229.867 79.3584 230.216 79.4521 230.516 79.6396C230.815 79.8271 231.048 80.0915 231.215 80.4326C231.382 80.7712 231.465 81.1683 231.465 81.624C231.465 82.0719 231.382 82.4652 231.215 82.8037C231.048 83.1423 230.815 83.4053 230.516 83.5928C230.216 83.7803 229.867 83.874 229.469 83.874ZM229.469 83.2451C229.763 83.2451 230.005 83.1696 230.195 83.0186C230.385 82.8675 230.526 82.6696 230.617 82.4248C230.708 82.1774 230.754 81.9105 230.754 81.624C230.754 81.335 230.708 81.0667 230.617 80.8193C230.526 80.5693 230.385 80.3688 230.195 80.2178C230.005 80.0641 229.763 79.9873 229.469 79.9873C229.177 79.9873 228.938 80.0641 228.75 80.2178C228.562 80.3688 228.423 80.568 228.332 80.8154C228.241 81.0628 228.195 81.3324 228.195 81.624C228.195 81.9105 228.241 82.1774 228.332 82.4248C228.423 82.6696 228.562 82.8675 228.75 83.0186C228.938 83.1696 229.177 83.2451 229.469 83.2451ZM232.488 83.7803V79.4131H233.168V80.085H233.215C233.296 79.8636 233.439 79.6865 233.645 79.5537C233.853 79.4183 234.087 79.3506 234.348 79.3506C234.4 79.3506 234.461 79.3519 234.531 79.3545C234.604 79.3571 234.661 79.3597 234.703 79.3623V80.0693C234.682 80.0641 234.63 80.0563 234.547 80.0459C234.464 80.0355 234.375 80.0303 234.281 80.0303C234.073 80.0303 233.885 80.0745 233.719 80.1631C233.555 80.249 233.426 80.3688 233.332 80.5225C233.238 80.6735 233.191 80.848 233.191 81.0459V83.7803H232.488ZM237.207 83.874C236.785 83.874 236.421 83.7803 236.113 83.5928C235.809 83.4053 235.573 83.1436 235.406 82.8076C235.242 82.4717 235.16 82.0798 235.16 81.6318C235.16 81.1839 235.241 80.7894 235.402 80.4482C235.564 80.1071 235.792 79.8402 236.086 79.6475C236.383 79.4548 236.729 79.3584 237.125 79.3584C237.357 79.3584 237.585 79.3975 237.809 79.4756C238.035 79.5511 238.24 79.6748 238.422 79.8467C238.607 80.016 238.754 80.2399 238.863 80.5186C238.973 80.7972 239.027 81.1383 239.027 81.542V81.835H235.637V81.2412H238.648L238.32 81.46C238.32 81.1735 238.275 80.9196 238.184 80.6982C238.095 80.4743 237.962 80.2998 237.785 80.1748C237.608 80.0472 237.388 79.9834 237.125 79.9834C236.862 79.9834 236.637 80.0485 236.449 80.1787C236.262 80.3063 236.118 80.4743 236.02 80.6826C235.921 80.8883 235.871 81.1097 235.871 81.3467V81.7412C235.871 82.0641 235.927 82.3389 236.039 82.5654C236.151 82.7894 236.307 82.96 236.508 83.0771C236.711 83.1917 236.945 83.249 237.211 83.249C237.383 83.249 237.539 83.2243 237.68 83.1748C237.82 83.1253 237.941 83.0511 238.043 82.9521C238.145 82.8506 238.223 82.7256 238.277 82.5771L238.957 82.7646C238.889 82.9834 238.775 83.1761 238.613 83.3428C238.452 83.5094 238.251 83.6396 238.012 83.7334C237.775 83.8271 237.507 83.874 237.207 83.874ZM240.57 83.8311C240.424 83.8311 240.299 83.7803 240.195 83.6787C240.094 83.5745 240.043 83.4495 240.043 83.3037C240.043 83.1579 240.094 83.0342 240.195 82.9326C240.299 82.8285 240.424 82.7764 240.57 82.7764C240.716 82.7764 240.84 82.8285 240.941 82.9326C241.046 83.0342 241.098 83.1579 241.098 83.3037C241.098 83.4495 241.046 83.5745 240.941 83.6787C240.84 83.7803 240.716 83.8311 240.57 83.8311ZM242.875 83.8311C242.729 83.8311 242.604 83.7803 242.5 83.6787C242.398 83.5745 242.348 83.4495 242.348 83.3037C242.348 83.1579 242.398 83.0342 242.5 82.9326C242.604 82.8285 242.729 82.7764 242.875 82.7764C243.021 82.7764 243.145 82.8285 243.246 82.9326C243.35 83.0342 243.402 83.1579 243.402 83.3037C243.402 83.4495 243.35 83.5745 243.246 83.6787C243.145 83.7803 243.021 83.8311 242.875 83.8311ZM245.18 83.8311C245.034 83.8311 244.909 83.7803 244.805 83.6787C244.703 83.5745 244.652 83.4495 244.652 83.3037C244.652 83.1579 244.703 83.0342 244.805 82.9326C244.909 82.8285 245.034 82.7764 245.18 82.7764C245.326 82.7764 245.449 82.8285 245.551 82.9326C245.655 83.0342 245.707 83.1579 245.707 83.3037C245.707 83.4495 245.655 83.5745 245.551 83.6787C245.449 83.7803 245.326 83.8311 245.18 83.8311Z" fill="#111827"/>
</svg>
