<svg width="704" height="380" viewBox="0 0 704 380" fill="none" xmlns="http://www.w3.org/2000/svg">
<rect width="704" height="380" fill="#FAFAFA"/>
<rect x="52" y="148.75" width="92.5" height="82.5" rx="4" fill="#2563EB"/>
<path d="M124.26 168.037L112.74 162.495C111.4 161.847 109.806 162.12 108.757 163.168L86.6923 183.302L77.0763 176.01C76.1839 175.325 74.9257 175.381 74.0962 176.137L71.0163 178.944C69.996 179.865 69.996 181.469 71.0075 182.39L79.3478 190L71.0075 197.611C69.996 198.531 69.996 200.136 71.0163 201.057L74.0962 203.864C74.9344 204.62 76.1839 204.676 77.0763 203.991L86.6923 196.69L108.768 216.832C109.807 217.881 111.402 218.154 112.742 217.506L124.273 211.955C125.485 211.373 126.25 210.151 126.25 208.802V171.187C126.25 169.846 125.475 168.616 124.264 168.033L124.26 168.037ZM112.256 202.717L95.5033 190.002L112.256 177.287V202.717Z" fill="white"/>
<rect x="168.5" y="148.75" width="92.5" height="82.5" rx="4" fill="#2563EB"/>
<path fill-rule="evenodd" clip-rule="evenodd" d="M186.75 162H242.75V218H186.75V162ZM213.07 207.5H192.07V211H213.07V207.5ZM207.05 169.28V173.48H203.83V188.18H207.05V192.52H195.57V188.18H198.79V173.48H195.57V169.28H207.05ZM213.63 191.82C215.061 192.534 216.651 192.872 218.25 192.8C220.223 192.7 222.123 192.018 223.71 190.84C224.624 190.004 225.3 188.942 225.67 187.76C226.093 186.595 226.283 185.358 226.23 184.12V169H221.05V183.98C221.159 185.031 220.858 186.085 220.21 186.92C219.672 187.598 218.833 187.966 217.97 187.9C217.185 187.931 216.407 187.737 215.73 187.34C215.009 186.863 214.351 186.298 213.77 185.66L210.55 189.3C211.415 190.32 212.459 191.174 213.63 191.82Z" fill="white"/>
<rect x="285" y="148.75" width="92.5" height="82.5" rx="4" fill="#2563EB"/>
<path fill-rule="evenodd" clip-rule="evenodd" d="M354.252 174.15L342.16 162V193.105L352.275 208.316L354.333 206.083L354.252 174.15ZM320.092 162.002L351.102 209.322L342.424 218L311.398 170.785L320.092 162.002ZM320.34 218L308.248 205.85L308.167 173.917L310.225 171.684L320.34 186.895V218Z" fill="white"/>
<rect x="401.5" y="148.75" width="92.5" height="82.5" rx="4" fill="#2563EB"/>
<path d="M422.672 191.465V191.419V184.457H424.199V192C424.269 192.608 424.217 193.224 424.045 193.811C423.873 194.399 423.584 194.945 423.196 195.418C422.475 196.04 421.55 196.377 420.598 196.364L420.438 195.225C421.053 195.225 421.645 194.998 422.102 194.587C422.512 194.108 422.672 193.459 422.672 191.465ZM434.058 190.566C434.058 191.42 434.058 192.184 434.127 192.845H432.771L432.68 191.489C432.396 191.969 431.99 192.365 431.504 192.637C431.018 192.909 430.468 193.048 429.911 193.038C428.589 193.038 427.017 192.321 427.017 189.392V184.527H428.544V189.085C428.544 190.668 429.033 191.728 430.412 191.728C430.696 191.731 430.977 191.677 431.24 191.57C431.503 191.463 431.741 191.305 431.942 191.104C432.142 190.904 432.301 190.665 432.408 190.402C432.515 190.14 432.569 189.858 432.566 189.575V184.47H434.092V190.52L434.058 190.566ZM436.952 187.238C436.952 186.178 436.952 185.312 436.884 184.526H438.251L438.32 185.95C438.624 185.436 439.063 185.013 439.589 184.728C440.114 184.444 440.708 184.307 441.305 184.332C443.333 184.332 444.86 186.03 444.86 188.559C444.86 191.545 443.026 193.026 441.043 193.026C440.535 193.049 440.031 192.94 439.578 192.71C439.125 192.481 438.738 192.138 438.456 191.716V196.273H436.952V187.272V187.238ZM438.456 189.46C438.461 189.666 438.483 189.872 438.525 190.075C438.654 190.581 438.948 191.029 439.361 191.349C439.774 191.669 440.281 191.842 440.804 191.841C442.41 191.841 443.356 190.531 443.356 188.628C443.356 186.964 442.467 185.54 440.861 185.54C440.225 185.592 439.63 185.874 439.187 186.334C438.745 186.793 438.485 187.398 438.456 188.035V189.46ZM447.58 184.518L449.415 189.429C449.608 189.976 449.814 190.637 449.95 191.127C450.11 190.626 450.281 189.988 450.486 189.395L452.149 184.518H453.756L451.477 190.443C450.338 193.292 449.643 194.762 448.594 195.65C448.066 196.133 447.423 196.47 446.726 196.63L446.35 195.354C446.837 195.194 447.289 194.943 447.683 194.614C448.239 194.161 448.68 193.583 448.97 192.927C449.033 192.814 449.075 192.69 449.096 192.563C449.083 192.425 449.048 192.291 448.993 192.164L445.894 184.496H447.557L447.58 184.518ZM457.809 182.128V184.521H459.997V185.66H457.809V190.149C457.809 191.175 458.105 191.767 458.949 191.767C459.248 191.772 459.547 191.738 459.837 191.665L459.906 192.804C459.47 192.955 459.011 193.025 458.55 193.009C458.245 193.028 457.939 192.981 457.654 192.871C457.369 192.761 457.111 192.59 456.898 192.371C456.434 191.75 456.222 190.977 456.305 190.206V185.649H455.006V184.509H456.328V182.481L457.809 182.128ZM462.809 188.948C462.779 189.334 462.832 189.723 462.966 190.087C463.1 190.451 463.311 190.781 463.585 191.055C463.859 191.329 464.19 191.54 464.553 191.674C464.917 191.808 465.306 191.862 465.692 191.831C466.474 191.848 467.25 191.701 467.971 191.398L468.233 192.537C467.349 192.902 466.398 193.076 465.441 193.05C464.884 193.088 464.325 193.005 463.803 192.807C463.28 192.609 462.807 192.3 462.415 191.902C462.023 191.503 461.722 191.025 461.533 190.5C461.343 189.974 461.269 189.414 461.317 188.857C461.317 186.35 462.809 184.368 465.248 184.368C467.982 184.368 468.666 186.76 468.666 188.287C468.681 188.522 468.681 188.758 468.666 188.994H462.775L462.809 188.948ZM467.276 187.809C467.32 187.504 467.298 187.193 467.212 186.898C467.126 186.603 466.977 186.329 466.776 186.096C466.576 185.863 466.327 185.675 466.048 185.546C465.768 185.417 465.464 185.349 465.157 185.347C464.531 185.393 463.944 185.67 463.512 186.126C463.08 186.581 462.833 187.181 462.821 187.809H467.276ZM470.983 187.109C470.983 186.129 470.983 185.286 470.914 184.511H472.282V186.141H472.35C472.493 185.638 472.79 185.192 473.198 184.866C473.607 184.539 474.107 184.347 474.629 184.318C474.772 184.299 474.918 184.299 475.062 184.318V185.742C474.888 185.722 474.712 185.722 474.538 185.742C474.02 185.762 473.528 185.97 473.153 186.326C472.777 186.683 472.545 187.164 472.498 187.679C472.455 187.912 472.433 188.148 472.43 188.385V192.818H470.926V187.121L470.983 187.109Z" fill="white"/>
<path fill-rule="evenodd" clip-rule="evenodd" d="M472.253 195.429C472.698 193.619 472.991 192.01 473.125 190.463C473 192.171 472.703 193.832 472.253 195.429ZM471.6 197.418C469.178 200.04 464.539 203.679 456.253 205.414C452.834 206.307 443.54 207.23 433.718 203.768C431.443 202.879 426.359 200.37 423.905 197.35C427.488 206.978 436.819 213.843 447.765 213.843C458.685 213.843 467.997 207.011 471.6 197.418ZM472.946 185.073C472.827 184.277 472.667 183.455 472.467 182.59C472.667 183.403 472.827 184.231 472.946 185.073ZM471.602 179.797C468.001 170.201 458.687 163.366 447.765 163.366C436.83 163.366 427.507 170.217 423.916 179.83C425.31 178.239 428.658 175.163 434.482 173.125C438.247 171.679 447.756 169.682 457.233 172.002C460.125 172.643 466.527 174.432 471.602 179.797Z" fill="white"/>
<ellipse cx="466.458" cy="161.864" rx="3.8931" ry="3.86402" fill="white"/>
<ellipse cx="424.943" cy="166.873" rx="2.8027" ry="2.78176" fill="white"/>
<ellipse cx="428.81" cy="217.134" rx="4.90286" ry="4.86623" fill="white"/>
<path d="M518 148.75V231.25" stroke="#D4D4D8" stroke-width="3"/>
<rect x="542" y="148.75" width="110" height="82.5" rx="4" fill="#EEEEF0"/>
<path d="M553.367 196L557.523 184.359H559.695L563.914 196H561.992L559.727 189.516C559.549 188.984 559.354 188.367 559.141 187.664C558.932 186.956 558.688 186.102 558.406 185.102H558.781C558.51 186.107 558.268 186.966 558.055 187.68C557.846 188.393 557.661 189.005 557.5 189.516L555.289 196H553.367ZM555.625 192.938V191.453H561.656V192.938H555.625ZM567.125 190.875V196H565.414V187.32H567.047L567.062 189.445H566.867C567.122 188.669 567.49 188.102 567.969 187.742C568.453 187.383 569.039 187.203 569.727 187.203C570.32 187.203 570.839 187.328 571.281 187.578C571.729 187.828 572.076 188.198 572.32 188.688C572.57 189.172 572.695 189.773 572.695 190.492V196H570.984V190.711C570.984 190.076 570.82 189.581 570.492 189.227C570.169 188.872 569.721 188.695 569.148 188.695C568.763 188.695 568.417 188.781 568.109 188.953C567.807 189.12 567.568 189.365 567.391 189.688C567.214 190.01 567.125 190.406 567.125 190.875ZM578.195 196.172C577.492 196.172 576.865 195.992 576.312 195.633C575.766 195.268 575.336 194.75 575.023 194.078C574.711 193.406 574.555 192.607 574.555 191.68C574.555 190.742 574.711 189.94 575.023 189.273C575.341 188.602 575.773 188.089 576.32 187.734C576.872 187.38 577.497 187.203 578.195 187.203C578.721 187.203 579.148 187.289 579.477 187.461C579.805 187.633 580.065 187.836 580.258 188.07C580.456 188.305 580.609 188.521 580.719 188.719H580.805V184.359H582.516V196H580.844V194.648H580.719C580.609 194.846 580.456 195.065 580.258 195.305C580.06 195.539 579.794 195.742 579.461 195.914C579.133 196.086 578.711 196.172 578.195 196.172ZM578.57 194.711C579.06 194.711 579.471 194.583 579.805 194.328C580.143 194.073 580.401 193.716 580.578 193.258C580.755 192.799 580.844 192.268 580.844 191.664C580.844 191.06 580.755 190.534 580.578 190.086C580.406 189.638 580.151 189.289 579.812 189.039C579.474 188.789 579.06 188.664 578.57 188.664C578.076 188.664 577.659 188.794 577.32 189.055C576.982 189.315 576.727 189.672 576.555 190.125C576.388 190.573 576.305 191.086 576.305 191.664C576.305 192.247 576.391 192.768 576.562 193.227C576.734 193.685 576.99 194.047 577.328 194.312C577.667 194.578 578.081 194.711 578.57 194.711ZM589.008 196V187.32H590.641L590.68 189.312H590.547C590.672 188.828 590.865 188.43 591.125 188.117C591.385 187.799 591.69 187.562 592.039 187.406C592.388 187.25 592.753 187.172 593.133 187.172C593.763 187.172 594.276 187.367 594.672 187.758C595.073 188.148 595.341 188.685 595.477 189.367H595.258C595.367 188.898 595.562 188.503 595.844 188.18C596.125 187.852 596.461 187.602 596.852 187.43C597.247 187.258 597.674 187.172 598.133 187.172C598.648 187.172 599.115 187.284 599.531 187.508C599.948 187.732 600.279 188.065 600.523 188.508C600.768 188.945 600.891 189.497 600.891 190.164V196H599.18V190.336C599.18 189.747 599.016 189.323 598.688 189.062C598.365 188.802 597.982 188.672 597.539 188.672C597.18 188.672 596.87 188.747 596.609 188.898C596.349 189.049 596.146 189.26 596 189.531C595.859 189.797 595.789 190.104 595.789 190.453V196H594.109V190.219C594.109 189.75 593.958 189.375 593.656 189.094C593.354 188.812 592.971 188.672 592.508 188.672C592.19 188.672 591.893 188.747 591.617 188.898C591.346 189.044 591.128 189.263 590.961 189.555C590.799 189.841 590.719 190.198 590.719 190.625V196H589.008ZM606.82 196.18C606.003 196.18 605.289 195.995 604.68 195.625C604.076 195.25 603.604 194.727 603.266 194.055C602.927 193.378 602.758 192.594 602.758 191.703C602.758 190.802 602.927 190.016 603.266 189.344C603.604 188.667 604.076 188.141 604.68 187.766C605.289 187.391 606.003 187.203 606.82 187.203C607.638 187.203 608.352 187.391 608.961 187.766C609.576 188.141 610.049 188.667 610.383 189.344C610.721 190.016 610.891 190.802 610.891 191.703C610.891 192.594 610.721 193.378 610.383 194.055C610.049 194.727 609.576 195.25 608.961 195.625C608.352 195.995 607.638 196.18 606.82 196.18ZM606.82 194.734C607.346 194.734 607.781 194.599 608.125 194.328C608.474 194.052 608.732 193.685 608.898 193.227C609.07 192.763 609.156 192.255 609.156 191.703C609.156 191.141 609.07 190.63 608.898 190.172C608.732 189.708 608.474 189.339 608.125 189.062C607.781 188.786 607.346 188.648 606.82 188.648C606.299 188.648 605.867 188.786 605.523 189.062C605.18 189.339 604.922 189.708 604.75 190.172C604.583 190.63 604.5 191.141 604.5 191.703C604.5 192.26 604.583 192.768 604.75 193.227C604.922 193.685 605.18 194.052 605.523 194.328C605.867 194.599 606.299 194.734 606.82 194.734ZM612.758 196V187.32H614.406V188.711H614.492C614.654 188.242 614.93 187.875 615.32 187.609C615.716 187.339 616.172 187.203 616.688 187.203C616.797 187.203 616.919 187.208 617.055 187.219C617.195 187.224 617.31 187.232 617.398 187.242V188.867C617.336 188.852 617.216 188.833 617.039 188.812C616.862 188.792 616.682 188.781 616.5 188.781C616.115 188.781 615.766 188.865 615.453 189.031C615.146 189.193 614.904 189.422 614.727 189.719C614.555 190.01 614.469 190.352 614.469 190.742V196H612.758ZM622.32 196.18C621.466 196.18 620.729 195.995 620.109 195.625C619.49 195.255 619.013 194.737 618.68 194.07C618.346 193.398 618.18 192.615 618.18 191.719C618.18 190.828 618.344 190.044 618.672 189.367C619.005 188.69 619.471 188.161 620.07 187.781C620.674 187.396 621.378 187.203 622.18 187.203C622.69 187.203 623.177 187.286 623.641 187.453C624.109 187.62 624.526 187.88 624.891 188.234C625.255 188.589 625.544 189.042 625.758 189.594C625.971 190.146 626.078 190.807 626.078 191.578V192.172H619.117V190.891H625.195L624.398 191.312C624.398 190.781 624.312 190.312 624.141 189.906C623.974 189.5 623.727 189.185 623.398 188.961C623.076 188.732 622.672 188.617 622.188 188.617C621.703 188.617 621.289 188.734 620.945 188.969C620.607 189.198 620.346 189.505 620.164 189.891C619.982 190.271 619.891 190.69 619.891 191.148V192C619.891 192.589 619.992 193.091 620.195 193.508C620.398 193.919 620.682 194.232 621.047 194.445C621.417 194.659 621.846 194.766 622.336 194.766C622.664 194.766 622.958 194.719 623.219 194.625C623.484 194.531 623.711 194.391 623.898 194.203C624.086 194.016 624.229 193.786 624.328 193.516L625.938 193.859C625.807 194.318 625.576 194.721 625.242 195.07C624.909 195.419 624.495 195.693 624 195.891C623.505 196.083 622.945 196.18 622.32 196.18ZM629.141 196.117C628.823 196.117 628.552 196.008 628.328 195.789C628.104 195.565 627.992 195.294 627.992 194.977C627.992 194.659 628.104 194.388 628.328 194.164C628.552 193.94 628.823 193.828 629.141 193.828C629.464 193.828 629.734 193.94 629.953 194.164C630.177 194.388 630.289 194.659 630.289 194.977C630.289 195.294 630.177 195.565 629.953 195.789C629.734 196.008 629.464 196.117 629.141 196.117ZM633.859 196.117C633.542 196.117 633.271 196.008 633.047 195.789C632.823 195.565 632.711 195.294 632.711 194.977C632.711 194.659 632.823 194.388 633.047 194.164C633.271 193.94 633.542 193.828 633.859 193.828C634.182 193.828 634.453 193.94 634.672 194.164C634.896 194.388 635.008 194.659 635.008 194.977C635.008 195.294 634.896 195.565 634.672 195.789C634.453 196.008 634.182 196.117 633.859 196.117ZM638.578 196.117C638.26 196.117 637.99 196.008 637.766 195.789C637.542 195.565 637.43 195.294 637.43 194.977C637.43 194.659 637.542 194.388 637.766 194.164C637.99 193.94 638.26 193.828 638.578 193.828C638.901 193.828 639.172 193.94 639.391 194.164C639.615 194.388 639.727 194.659 639.727 194.977C639.727 195.294 639.615 195.565 639.391 195.789C639.172 196.008 638.901 196.117 638.578 196.117Z" fill="#111827"/>
</svg>
