<svg width="815" height="430" viewBox="0 0 815 430" fill="none" xmlns="http://www.w3.org/2000/svg">
<g filter="url(#filter0_dd_448_176462)">
<rect x="708.13" y="315.28" width="88.2998" height="88.2998" rx="44.1499" fill="#DBEAFE"/>
<path d="M749.866 374.757H754.695" stroke="#2563EB" stroke-width="2" stroke-linecap="round" stroke-linejoin="round"/>
<path d="M739.973 345.584H764.588" stroke="#2563EB" stroke-width="2" stroke-linecap="round" stroke-linejoin="round"/>
<path d="M739.973 370.071H764.588" stroke="#2563EB" stroke-width="2" stroke-linecap="round" stroke-linejoin="round"/>
<path d="M739.973 341.43C739.973 340.326 740.868 339.43 741.973 339.43H762.588C763.693 339.43 764.588 340.326 764.588 341.43V377.43C764.588 378.535 763.693 379.43 762.588 379.43H741.973C740.868 379.43 739.973 378.535 739.973 377.43V341.43Z" stroke="#2563EB" stroke-width="2" stroke-linejoin="round"/>
</g>
<g filter="url(#filter1_dd_448_176462)">
<rect x="708.131" y="164.85" width="88.2998" height="88.2998" rx="44.1499" fill="#DBEAFE"/>
<path d="M732.281 191.727H772.281V219H732.281V191.727Z" stroke="#2563EB" stroke-width="2" stroke-linejoin="round"/>
<path d="M732.281 226.272L772.281 226.272" stroke="#2563EB" stroke-width="2" stroke-linecap="round"/>
<ellipse cx="752.281" cy="197.181" rx="1.81818" ry="1.81818" fill="#2563EB"/>
</g>
<g filter="url(#filter2_dd_448_176462)">
<rect x="708.131" y="14.4199" width="88.2998" height="88.2998" rx="44.1499" fill="#DBEAFE"/>
<path d="M749.424 74.2842H740.853" stroke="#2563EB" stroke-width="2" stroke-linecap="round" stroke-linejoin="round"/>
<path d="M766.567 48.5698H760.853" stroke="#2563EB" stroke-width="2" stroke-linecap="round" stroke-linejoin="round"/>
<path d="M766.567 54.2842H760.853" stroke="#2563EB" stroke-width="2" stroke-linecap="round" stroke-linejoin="round"/>
<path d="M770.852 42.8555H756.567C755.778 42.8555 755.138 43.4951 755.138 44.284V72.8555C755.138 73.6445 755.778 74.284 756.567 74.284H770.852C771.641 74.284 772.281 73.6445 772.281 72.8555V44.284C772.281 43.4951 771.641 42.8555 770.852 42.8555Z" stroke="#2563EB" stroke-width="2" stroke-linecap="round" stroke-linejoin="round"/>
<path d="M745.138 68.5698V74.2841" stroke="#2563EB" stroke-width="2" stroke-linecap="round" stroke-linejoin="round"/>
<path d="M763.71 69.9981C764.893 69.9981 765.853 69.0387 765.853 67.8553C765.853 66.6718 764.893 65.7124 763.71 65.7124C762.526 65.7124 761.567 66.6718 761.567 67.8553C761.567 69.0387 762.526 69.9981 763.71 69.9981Z" fill="#2563EB"/>
<path d="M750.853 49.9985H732.281V68.57H750.853" stroke="#2563EB" stroke-width="2" stroke-linecap="round" stroke-linejoin="round"/>
</g>
<path d="M692.484 364.673C692.484 367.619 694.872 370.007 697.817 370.007C700.763 370.007 703.151 367.619 703.151 364.673C703.151 361.728 700.763 359.34 697.817 359.34C694.872 359.34 692.484 361.728 692.484 364.673ZM511.339 216.44L512.12 215.815L511.339 216.44ZM623.962 357.17L623.181 357.795L623.962 357.17ZM339.283 209.937H342.292V207.937H339.283V209.937ZM348.309 209.937H354.326V207.937H348.309V209.937ZM360.342 209.937H366.359V207.937H360.342V209.937ZM372.376 209.937H378.393V207.937H372.376V209.937ZM384.41 209.937H390.427V207.937H384.41V209.937ZM396.444 209.937H402.461V207.937H396.444V209.937ZM408.478 209.937H414.495V207.937H408.478V209.937ZM420.512 209.937H426.529V207.937H420.512V209.937ZM432.546 209.937H438.563V207.937H432.546V209.937ZM444.58 209.937H450.597V207.937H444.58V209.937ZM456.614 209.937H462.63V207.937H456.614V209.937ZM468.647 209.937H474.664V207.937H468.647V209.937ZM480.681 209.937H486.698V207.937H480.681V209.937ZM492.715 209.937H495.724V207.937H492.715V209.937ZM495.724 209.937C497.158 209.937 498.572 210.098 499.944 210.411L500.388 208.461C498.872 208.115 497.308 207.937 495.724 207.937V209.937ZM507.551 214.066C508.652 214.942 509.662 215.945 510.558 217.065L512.12 215.815C511.13 214.578 510.013 213.469 508.796 212.501L507.551 214.066ZM510.558 217.065L512.435 219.41L513.997 218.161L512.12 215.815L510.558 217.065ZM516.189 224.101L519.943 228.792L521.505 227.543L517.751 222.852L516.189 224.101ZM523.698 233.483L527.452 238.174L529.013 236.925L525.259 232.234L523.698 233.483ZM531.206 242.865L534.96 247.556L536.521 246.307L532.767 241.616L531.206 242.865ZM538.714 252.247L542.468 256.938L544.03 255.689L540.275 250.998L538.714 252.247ZM546.222 261.629L549.976 266.32L551.538 265.071L547.784 260.38L546.222 261.629ZM553.73 271.011L557.484 275.702L559.046 274.453L555.292 269.762L553.73 271.011ZM561.239 280.393L564.993 285.084L566.554 283.835L562.8 279.144L561.239 280.393ZM568.747 289.775L572.501 294.466L574.062 293.217L570.308 288.526L568.747 289.775ZM576.255 299.157L580.009 303.848L581.571 302.599L577.817 297.908L576.255 299.157ZM583.763 308.539L587.517 313.23L589.079 311.981L585.325 307.29L583.763 308.539ZM591.271 317.921L595.026 322.612L596.587 321.363L592.833 316.672L591.271 317.921ZM598.78 327.303L602.534 331.994L604.095 330.745L600.341 326.054L598.78 327.303ZM606.288 336.685L610.042 341.376L611.603 340.127L607.849 335.436L606.288 336.685ZM613.796 346.067L617.55 350.758L619.112 349.509L615.358 344.818L613.796 346.067ZM621.304 355.449L623.181 357.795L624.743 356.545L622.866 354.2L621.304 355.449ZM623.181 357.795C624.172 359.032 625.288 360.141 626.505 361.109L627.75 359.544C626.649 358.668 625.639 357.665 624.743 356.545L623.181 357.795ZM634.913 365.149C636.429 365.494 637.993 365.673 639.577 365.673V363.673C638.143 363.673 636.729 363.511 635.357 363.199L634.913 365.149ZM639.577 365.673H642.489V363.673H639.577V365.673ZM648.313 365.673H654.137V363.673H648.313V365.673ZM659.961 365.673H665.785V363.673H659.961V365.673ZM671.609 365.673H677.433V363.673H671.609V365.673ZM683.257 365.673H689.081V363.673H683.257V365.673ZM694.905 365.673H697.817V363.673H694.905V365.673Z" fill="#52525B"/>
<path d="M693.162 62.0476C693.162 59.1021 695.55 56.7142 698.495 56.7142C701.441 56.7142 703.829 59.1021 703.829 62.0476C703.829 64.9931 701.441 67.3809 698.495 67.3809C695.55 67.3809 693.162 64.9931 693.162 62.0476ZM511.329 201.783L510.563 201.14L511.329 201.783ZM622.435 69.2015L623.201 69.8438L622.435 69.2015ZM339.283 207.937H342.297V209.937H339.283V207.937ZM348.325 207.937H354.352V209.937H348.325V207.937ZM360.38 207.937H366.407V209.937H360.38V207.937ZM372.435 207.937H378.462V209.937H372.435V207.937ZM384.49 207.937H390.518V209.937H384.49V207.937ZM396.545 207.937H402.573V209.937H396.545V207.937ZM408.6 207.937H414.628V209.937H408.6V207.937ZM420.655 207.937H426.683V209.937H420.655V207.937ZM432.711 207.937H438.738V209.937H432.711V207.937ZM444.766 207.937H450.793V209.937H444.766V207.937ZM456.821 207.937H462.848V209.937H456.821V207.937ZM468.876 207.937H474.904V209.937H468.876V207.937ZM480.931 207.937H486.959V209.937H480.931V207.937ZM492.986 207.937H496V209.937H492.986V207.937ZM496 207.937C497.397 207.937 498.776 207.783 500.115 207.486L500.549 209.438C499.068 209.767 497.544 209.937 496 209.937V207.937ZM507.574 204.005C508.662 203.169 509.665 202.211 510.563 201.14L512.096 202.425C511.104 203.608 509.995 204.667 508.792 205.591L507.574 204.005ZM510.563 201.14L512.547 198.773L514.08 200.057L512.096 202.425L510.563 201.14ZM516.515 194.038L520.483 189.303L522.016 190.587L518.048 195.322L516.515 194.038ZM524.451 184.568L528.419 179.833L529.952 181.117L525.984 185.852L524.451 184.568ZM532.387 175.098L536.355 170.363L537.888 171.647L533.92 176.382L532.387 175.098ZM540.323 165.627L544.291 160.892L545.824 162.177L541.856 166.912L540.323 165.627ZM548.259 156.157L552.227 151.422L553.76 152.707L549.792 157.442L548.259 156.157ZM556.195 146.687L560.164 141.952L561.696 143.237L557.728 147.972L556.195 146.687ZM564.132 137.217L568.1 132.482L569.633 133.767L565.664 138.502L564.132 137.217ZM572.068 127.747L576.036 123.012L577.569 124.297L573.601 129.032L572.068 127.747ZM580.004 118.277L583.972 113.542L585.505 114.827L581.537 119.562L580.004 118.277ZM587.94 108.807L591.908 104.072L593.441 105.357L589.473 110.092L587.94 108.807ZM595.876 99.337L599.844 94.6019L601.377 95.8865L597.409 100.622L595.876 99.337ZM603.812 89.8669L607.78 85.1319L609.313 86.4165L605.345 91.1515L603.812 89.8669ZM611.748 80.3968L615.716 75.6618L617.249 76.9464L613.281 81.6814L611.748 80.3968ZM619.684 70.9267L621.668 68.5592L623.201 69.8438L621.217 72.2113L619.684 70.9267ZM621.668 68.5592C622.66 67.3759 623.769 66.3167 624.972 65.3931L626.19 66.9792C625.102 67.8148 624.099 68.7731 623.201 69.8438L621.668 68.5592ZM633.215 61.5459C634.696 61.2175 636.22 61.0476 637.764 61.0476V63.0476C636.367 63.0476 634.988 63.2013 633.649 63.4985L633.215 61.5459ZM637.764 61.0476H640.801V63.0476H637.764V61.0476ZM646.874 61.0476H652.947V63.0476H646.874V61.0476ZM659.02 61.0476H665.093V63.0476H659.02V61.0476ZM671.166 61.0476H677.239V63.0476H671.166V61.0476ZM683.312 61.0476H689.385V63.0476H683.312V61.0476ZM695.459 61.0476H698.495V63.0476H695.459V61.0476Z" fill="#52525B"/>
<path d="M700.818 209.002C700.818 206.056 698.43 203.668 695.485 203.667C692.539 203.666 690.151 206.053 690.151 208.998C690.151 211.944 692.539 214.332 695.484 214.333C698.43 214.334 700.818 211.947 700.818 209.002ZM695.484 208L692.543 207.999L692.543 209.999L695.484 210L695.484 208ZM686.66 207.997L680.776 207.995L680.776 209.995L686.659 209.997L686.66 207.997ZM674.893 207.993L669.01 207.992L669.01 209.992L674.893 209.993L674.893 207.993ZM663.126 207.99L657.243 207.988L657.243 209.988L663.126 209.99L663.126 207.99ZM651.36 207.986L645.477 207.984L645.476 209.984L651.36 209.986L651.36 207.986ZM639.593 207.982L633.71 207.98L633.71 209.98L639.593 209.982L639.593 207.982ZM627.827 207.979L621.943 207.977L621.943 209.977L627.827 209.979L627.827 207.979ZM616.06 207.975L610.177 207.973L610.177 209.973L616.06 209.975L616.06 207.975ZM604.294 207.971L598.41 207.969L598.41 209.969L604.294 209.971L604.294 207.971ZM592.527 207.967L586.644 207.966L586.644 209.966L592.527 209.967L592.527 207.967ZM580.761 207.964L574.877 207.962L574.877 209.962L580.76 209.964L580.761 207.964ZM568.994 207.96L563.111 207.958L563.111 209.958L568.994 209.96L568.994 207.96ZM557.227 207.956L551.344 207.954L551.344 209.954L557.227 209.956L557.227 207.956ZM545.461 207.953L542.519 207.952L542.519 209.952L545.461 209.953L545.461 207.953ZM542.519 207.952L539.425 207.951L539.425 209.951L542.519 209.952L542.519 207.952ZM533.236 207.949L527.047 207.947L527.047 209.947L533.236 209.949L533.236 207.949ZM520.858 207.945L514.669 207.943L514.668 209.943L520.858 209.945L520.858 207.945ZM508.48 207.941L505.385 207.94L505.385 209.94L508.479 209.941L508.48 207.941Z" fill="#52525B"/>
<rect x="784.231" y="43.6592" width="29.8214" height="29.8214" rx="14.9107" fill="#3B82F6"/>
<rect x="784.231" y="43.6592" width="29.8214" height="29.8214" rx="14.9107" stroke="#2563EB"/>
<path fill-rule="evenodd" clip-rule="evenodd" d="M800.08 50.9219L798.711 50.6089C798.814 50.6089 798.924 50.6015 799.048 50.5931C799.207 50.5822 799.391 50.5698 799.611 50.5698C800.433 50.5698 801.098 50.8437 801.724 51.1957C801.81 51.239 801.885 51.3301 801.96 51.4228C802.022 51.4977 802.084 51.5736 802.154 51.6261C802.467 51.7434 802.78 51.8217 803.093 51.7825V51.6652C803.445 51.7434 803.797 52.1346 803.797 52.4085H802.193C802.154 52.4085 802.076 52.4476 802.036 52.4867C802.076 52.5258 802.154 52.6041 802.193 52.6041C802.267 52.6041 802.347 52.6019 802.432 52.5996C802.707 52.5921 803.029 52.5834 803.327 52.6432C803.322 52.6522 803.316 52.6618 803.31 52.6718C803.188 52.8771 802.963 53.2564 802.702 52.9953C802.702 52.917 801.176 52.9561 800.785 53.0344C800.706 53.0344 800.628 53.1909 800.667 53.2691C800.842 53.6946 801.258 53.9599 801.647 54.2086C801.866 54.3486 802.077 54.4833 802.232 54.6383C803.327 55.4989 803.68 56.2813 803.445 57.7679C802.857 60.0848 801.933 60.4759 800.132 61.2381C799.896 61.3381 799.644 61.4445 799.376 61.5625C798.711 61.8755 798.32 62.6188 798.437 63.3621C798.711 64.966 801.254 65.3963 801.763 63.5185C801.919 62.7753 801.724 61.719 800.315 61.4061C800.941 61.1322 801.528 60.8193 802.076 60.4672C802.154 60.3889 802.232 60.3889 802.31 60.4672C803.875 61.9146 804.266 64.5748 801.684 66.1396C799.846 67.1567 797.538 66.2961 796.794 64.3401C796.051 62.345 797.225 60.1933 799.298 59.763C800.785 59.5283 802.31 57.9635 801.645 56.5161C801.35 55.8666 800.498 55.2171 799.778 54.6685C799.544 54.4901 799.324 54.3224 799.142 54.1689C799.039 54.107 798.87 54.1212 798.683 54.137C798.514 54.1512 798.33 54.1668 798.164 54.1297C798.242 54.0711 798.289 54.0126 798.337 53.9542C798.385 53.8958 798.432 53.8374 798.51 53.7787C798.158 53.5621 797.94 53.5324 797.67 53.4957C797.55 53.4794 797.42 53.4617 797.264 53.4256C797.381 53.1909 797.888 52.9175 798.24 52.8784C798.229 52.7763 798.222 52.6882 798.216 52.6112C798.177 52.1276 798.173 52.0809 797.499 51.7434C797.9 51.4758 798.255 51.5351 798.599 51.5927C798.96 51.653 799.309 51.7114 799.689 51.3913C799.22 51.2349 798.75 51.0784 798.32 50.8045C798.541 50.8192 798.757 50.8583 798.973 50.8971C799.331 50.9617 799.687 51.0258 800.054 50.977L800.08 50.9219ZM796.794 60.9757C794.917 59.8022 794.799 56.829 796.912 55.5381C798.477 54.5601 800.237 54.9121 801.411 56.6334C801.567 56.9073 801.567 57.3376 801.489 57.6505C801.176 58.7068 800.393 59.2936 799.337 59.5283C799.65 59.2936 799.885 58.9415 799.963 58.5503C800.315 56.3596 796.912 56.1249 797.068 58.4721C797.029 59.1371 797.538 59.6065 798.516 59.763C798.007 60.076 797.577 60.3498 797.107 60.9366C797.029 61.054 796.951 61.054 796.794 60.9757ZM796.323 62.673C795.721 62.7856 795.085 62.9043 794.486 63.1665C794.76 62.032 795.738 61.2496 796.912 61.2496C796.599 61.6408 796.442 62.1493 796.403 62.6579C796.376 62.6629 796.35 62.6679 796.323 62.673ZM801.37 51.8751L801.487 51.9924L801.33 52.0707C801.252 52.1098 801.213 52.0707 801.174 52.0315C801.096 51.9142 801.33 51.8359 801.37 51.8751Z" fill="white"/>
<rect x="784.231" y="194.089" width="29.8214" height="29.8214" rx="14.9107" fill="#3B82F6"/>
<rect x="784.231" y="194.089" width="29.8214" height="29.8214" rx="14.9107" stroke="#2563EB"/>
<path fill-rule="evenodd" clip-rule="evenodd" d="M800.08 201.352L798.711 201.039C798.814 201.039 798.924 201.032 799.048 201.023C799.207 201.012 799.391 201 799.611 201C800.433 201 801.098 201.274 801.724 201.626C801.81 201.669 801.885 201.76 801.96 201.853C802.022 201.928 802.084 202.004 802.154 202.056C802.467 202.174 802.78 202.252 803.093 202.213V202.095C803.445 202.174 803.797 202.565 803.797 202.839H802.193C802.154 202.839 802.076 202.878 802.036 202.917C802.076 202.956 802.154 203.034 802.193 203.034C802.267 203.034 802.347 203.032 802.432 203.03C802.707 203.022 803.029 203.014 803.327 203.073C803.322 203.082 803.316 203.092 803.31 203.102C803.188 203.307 802.963 203.687 802.702 203.425C802.702 203.347 801.176 203.386 800.785 203.465C800.706 203.465 800.628 203.621 800.667 203.699C800.842 204.125 801.258 204.39 801.647 204.639C801.866 204.779 802.077 204.913 802.232 205.068C803.327 205.929 803.68 206.712 803.445 208.198C802.857 210.515 801.933 210.906 800.132 211.668C799.896 211.768 799.644 211.875 799.376 211.993C798.711 212.306 798.32 213.049 798.437 213.792C798.711 215.396 801.254 215.826 801.763 213.949C801.919 213.205 801.724 212.149 800.315 211.836C800.941 211.562 801.528 211.249 802.076 210.897C802.154 210.819 802.232 210.819 802.31 210.897C803.875 212.345 804.266 215.005 801.684 216.57C799.846 217.587 797.538 216.726 796.794 214.77C796.051 212.775 797.225 210.624 799.298 210.193C800.785 209.958 802.31 208.394 801.645 206.946C801.35 206.297 800.498 205.647 799.778 205.099C799.544 204.92 799.324 204.753 799.142 204.599C799.039 204.537 798.87 204.551 798.683 204.567C798.514 204.581 798.33 204.597 798.164 204.56C798.242 204.501 798.289 204.443 798.337 204.384C798.385 204.326 798.432 204.268 798.51 204.209C798.158 203.992 797.94 203.963 797.67 203.926C797.55 203.91 797.42 203.892 797.264 203.856C797.381 203.621 797.888 203.348 798.24 203.309C798.229 203.206 798.222 203.118 798.216 203.041C798.177 202.558 798.173 202.511 797.499 202.174C797.9 201.906 798.255 201.965 798.599 202.023C798.96 202.083 799.309 202.142 799.689 201.822C799.22 201.665 798.75 201.509 798.32 201.235C798.541 201.249 798.757 201.288 798.973 201.327C799.331 201.392 799.687 201.456 800.054 201.407L800.08 201.352ZM796.794 211.406C794.917 210.232 794.799 207.259 796.912 205.968C798.477 204.99 800.237 205.342 801.411 207.064C801.567 207.337 801.567 207.768 801.489 208.081C801.176 209.137 800.393 209.724 799.337 209.958C799.65 209.724 799.885 209.372 799.963 208.98C800.315 206.79 796.912 206.555 797.068 208.902C797.029 209.567 797.538 210.037 798.516 210.193C798.007 210.506 797.577 210.78 797.107 211.367C797.029 211.484 796.951 211.484 796.794 211.406ZM796.323 213.103C795.721 213.216 795.085 213.335 794.486 213.597C794.76 212.462 795.738 211.68 796.912 211.68C796.599 212.071 796.442 212.58 796.403 213.088C796.376 213.093 796.35 213.098 796.323 213.103ZM801.37 202.305L801.487 202.423L801.33 202.501C801.252 202.54 801.213 202.501 801.174 202.462C801.096 202.344 801.33 202.266 801.37 202.305Z" fill="white"/>
<rect x="784.231" y="344.52" width="29.8214" height="29.8214" rx="14.9107" fill="#3B82F6"/>
<rect x="784.231" y="344.52" width="29.8214" height="29.8214" rx="14.9107" stroke="#2563EB"/>
<path fill-rule="evenodd" clip-rule="evenodd" d="M800.08 351.782L798.711 351.469C798.814 351.469 798.924 351.462 799.048 351.453C799.207 351.443 799.391 351.43 799.611 351.43C800.433 351.43 801.098 351.704 801.724 352.056C801.81 352.099 801.885 352.19 801.96 352.283C802.022 352.358 802.084 352.434 802.154 352.486C802.467 352.604 802.78 352.682 803.093 352.643V352.526C803.445 352.604 803.797 352.995 803.797 353.269H802.193C802.154 353.269 802.076 353.308 802.036 353.347C802.076 353.386 802.154 353.464 802.193 353.464C802.267 353.464 802.347 353.462 802.432 353.46C802.707 353.452 803.029 353.444 803.327 353.504C803.322 353.513 803.316 353.522 803.31 353.532C803.188 353.737 802.963 354.117 802.702 353.856C802.702 353.777 801.176 353.816 800.785 353.895C800.706 353.895 800.628 354.051 800.667 354.129C800.842 354.555 801.258 354.82 801.647 355.069C801.866 355.209 802.077 355.344 802.232 355.499C803.327 356.359 803.68 357.142 803.445 358.628C802.857 360.945 801.933 361.336 800.132 362.098C799.896 362.198 799.644 362.305 799.376 362.423C798.711 362.736 798.32 363.479 798.437 364.222C798.711 365.826 801.254 366.257 801.763 364.379C801.919 363.636 801.724 362.579 800.315 362.266C800.941 361.993 801.528 361.68 802.076 361.328C802.154 361.249 802.232 361.249 802.31 361.328C803.875 362.775 804.266 365.435 801.684 367C799.846 368.017 797.538 367.156 796.794 365.2C796.051 363.205 797.225 361.054 799.298 360.623C800.785 360.389 802.31 358.824 801.645 357.376C801.35 356.727 800.498 356.077 799.778 355.529C799.544 355.35 799.324 355.183 799.142 355.029C799.039 354.967 798.87 354.982 798.683 354.997C798.514 355.012 798.33 355.027 798.164 354.99C798.242 354.931 798.289 354.873 798.337 354.815C798.385 354.756 798.432 354.698 798.51 354.639C798.158 354.422 797.94 354.393 797.67 354.356C797.55 354.34 797.42 354.322 797.264 354.286C797.381 354.051 797.888 353.778 798.24 353.739C798.229 353.637 798.222 353.549 798.216 353.472C798.177 352.988 798.173 352.941 797.499 352.604C797.9 352.336 798.255 352.395 798.599 352.453C798.96 352.513 799.309 352.572 799.689 352.252C799.22 352.095 798.75 351.939 798.32 351.665C798.541 351.68 798.757 351.719 798.973 351.757C799.331 351.822 799.687 351.886 800.054 351.837L800.08 351.782ZM796.794 361.836C794.917 360.663 794.799 357.689 796.912 356.398C798.477 355.42 800.237 355.773 801.411 357.494C801.567 357.768 801.567 358.198 801.489 358.511C801.176 359.567 800.393 360.154 799.337 360.389C799.65 360.154 799.885 359.802 799.963 359.411C800.315 357.22 796.912 356.985 797.068 359.332C797.029 359.997 797.538 360.467 798.516 360.623C798.007 360.936 797.577 361.21 797.107 361.797C797.029 361.914 796.951 361.914 796.794 361.836ZM796.323 363.533C795.721 363.646 795.085 363.765 794.486 364.027C794.76 362.892 795.738 362.11 796.912 362.11C796.599 362.501 796.442 363.01 796.403 363.518C796.376 363.523 796.35 363.528 796.323 363.533ZM801.37 352.735L801.487 352.853L801.33 352.931C801.252 352.97 801.213 352.931 801.174 352.892C801.096 352.775 801.33 352.696 801.37 352.735Z" fill="white"/>
<path d="M82.54 139.293L162.213 192.792" stroke="#52525B" stroke-width="2" stroke-dasharray="6 6"/>
<path d="M310.901 139.293L220.929 199.708" stroke="#52525B" stroke-width="2" stroke-dasharray="6 6"/>
<path d="M82.54 286.256L162.213 232.757" stroke="#52525B" stroke-width="2" stroke-dasharray="6 6"/>
<path d="M310.901 286.256L219.546 224.913" stroke="#52525B" stroke-width="2" stroke-dasharray="6 6"/>
<path d="M51.4028 293.099L51.8055 129.326" stroke="#52525B" stroke-width="2" stroke-dasharray="6 6"/>
<path d="M338.029 293.099L338.431 129.326" stroke="#52525B" stroke-width="2" stroke-dasharray="6 6"/>
<path d="M338.039 129.947L193.435 47.4058L81.0727 112.476M339.459 294.313L197.626 376.253L74.7846 306.372" stroke="#52525B" stroke-width="2" stroke-dasharray="6 6"/>
<g filter="url(#filter3_dd_448_176462)">
<rect width="68.8314" height="68.8314" rx="34.4157" transform="matrix(1 0 0 -1 16.6104 332.367)" fill="#DBEAFE"/>
<rect width="68.8314" height="68.8314" rx="34.4157" transform="matrix(1 0 0 -1 16.6104 332.367)" stroke="#2563EB"/>
<path d="M48.8698 281.889C48.8698 281.905 49.0573 282.257 49.2917 282.694C49.5261 283.124 49.6901 283.491 49.6667 283.514C49.6433 283.53 48.987 283.78 48.2136 284.053C47.4324 284.335 46.8152 284.569 46.823 284.577C46.8308 284.585 47.7136 284.678 48.7761 284.78C50.0573 284.897 50.7292 284.983 50.7761 285.038C50.8151 285.077 51.112 285.553 51.4323 286.085L52.0104 287.053L52.112 286.811C52.1667 286.686 52.3464 286.257 52.5026 285.874L52.7917 285.178L54.3307 285.014C55.1744 284.921 55.9244 284.85 56.0026 284.85L56.1354 284.796C56.1354 284.772 55.5651 284.538 54.8619 284.272C54.1666 284.014 53.5885 283.788 53.5885 283.78C53.5885 283.772 53.737 283.405 53.9245 282.96C54.1041 282.514 54.2448 282.139 54.237 282.132C54.2213 282.116 53.6276 282.296 52.9245 282.522L51.6511 282.944L50.2839 282.405C48.9402 281.874 48.8698 281.85 48.8698 281.889ZM57.3541 286.507C55.7213 287.155 54.3776 287.694 54.3698 287.71C54.3541 287.725 55.5729 288.217 57.0729 288.811L59.7916 289.881L60.0806 289.764C63.1118 288.585 65.8618 287.491 65.854 287.475L60.3931 285.327C60.3384 285.335 58.9791 285.858 57.3541 286.507ZM41.6824 285.874C40.1122 286.038 38.7997 286.491 38.245 287.069C37.8622 287.46 37.7997 287.796 38.0419 288.202C38.3934 288.811 39.5497 289.319 41.1434 289.577C41.8621 289.702 43.9637 289.678 44.6902 289.553C46.3933 289.256 47.5027 288.71 47.7605 288.022C47.8542 287.764 47.8542 287.733 47.7605 287.483C47.5027 286.819 46.4168 286.264 44.8074 285.983C43.9949 285.85 42.4793 285.796 41.6824 285.874ZM70.8461 287.764C70.768 287.866 70.4789 288.1 70.1977 288.288C69.3696 288.819 68.3071 289.303 61.6743 292.163C57.0104 294.163 55.8229 294.694 54.2135 295.467C52.4245 296.319 51.6823 296.561 50.7839 296.561C49.9792 296.561 49.4948 296.42 47.9949 295.756C47.3933 295.491 44.9324 294.46 42.534 293.46C32.0263 289.092 31.831 288.999 31.2685 288.389L31.0342 288.131V292.249L31.2998 292.506C31.5576 292.756 32.4248 293.28 32.7295 293.366C32.8154 293.389 33.3857 293.624 34.0029 293.889C34.62 294.155 37.6356 295.42 40.7059 296.702C45.784 298.819 46.9402 299.303 48.6745 300.061C49.5886 300.467 50.0964 300.569 50.9636 300.538C51.5964 300.514 51.7839 300.475 52.3385 300.288C52.6979 300.17 53.3151 299.905 53.7135 299.702C55.0338 299.038 56.6275 298.334 62.979 295.6C68.9555 293.022 69.7367 292.663 70.3852 292.217C71.0492 291.741 71.0258 291.858 71.0258 289.561C71.0258 288.46 71.018 287.561 71.0102 287.561L70.8461 287.764ZM49.9245 290.452C47.4792 290.827 45.4558 291.147 45.4168 291.163C45.3621 291.178 51.5104 293.764 51.7682 293.835L54.5807 289.796C54.5729 289.741 54.5807 289.733 49.9245 290.452ZM70.8852 294.545C70.8305 294.639 70.5727 294.858 70.3305 295.038C69.5336 295.585 68.3383 296.131 61.0728 299.256C56.8932 301.061 55.5807 301.639 54.3385 302.241C52.3229 303.217 51.8386 303.373 50.7604 303.373C49.9245 303.366 49.4089 303.233 48.2995 302.733C47.2292 302.241 46.0339 301.741 41.2371 299.749C32.8701 296.28 31.9092 295.842 31.3154 295.272L31.0264 294.999V299.061L31.3545 299.374C31.8857 299.874 31.831 299.842 40.7996 303.577C44.0887 304.944 47.1902 306.248 47.6902 306.475C49.0105 307.069 49.3933 307.209 49.9167 307.319C51.1354 307.569 52.0417 307.366 54.0182 306.405C55.3073 305.78 56.8775 305.084 60.6822 303.444C67.9165 300.327 69.6977 299.522 70.2289 299.17C70.4164 299.038 70.6742 298.827 70.7992 298.686L71.0258 298.436V296.405C71.0258 295.288 71.018 294.374 71.0102 294.374L70.8852 294.545ZM70.8148 301.202C70.3383 301.803 69.3774 302.264 61.9165 305.475C57.0494 307.577 55.5651 308.233 53.9635 308.991C52.2839 309.787 51.7292 309.959 50.7604 309.959C50.0964 309.959 49.4245 309.803 48.6823 309.475C46.9402 308.709 45.7918 308.225 40.7059 306.108C34.9247 303.702 33.0732 302.913 32.456 302.608C31.8779 302.319 31.292 301.905 31.1592 301.694L31.0264 301.498V303.569C31.0264 305.944 30.9873 305.764 31.6201 306.194C32.3232 306.662 33.3701 307.131 40.3153 310.014C45.1668 312.03 46.9167 312.764 47.7761 313.155C49.5339 313.944 50.0026 314.069 50.987 314.014C51.8854 313.975 52.4714 313.78 54.026 313.037C55.6432 312.264 56.8385 311.725 62.1275 309.452C69.4711 306.287 70.268 305.905 70.8227 305.264L71.018 305.045V303.022C71.018 301.905 71.0102 300.991 71.0023 300.991L70.8148 301.202Z" fill="#2563EB"/>
</g>
<g filter="url(#filter4_dd_448_176462)">
<rect width="68.8314" height="68.8314" rx="34.4157" transform="matrix(1 0 0 -1 303.552 332.367)" fill="#DBEAFE"/>
<rect width="68.8314" height="68.8314" rx="34.4157" transform="matrix(1 0 0 -1 303.552 332.367)" stroke="#2563EB"/>
<path fill-rule="evenodd" clip-rule="evenodd" d="M335.896 284.042H340.039V287.79H335.896V284.042ZM330.148 288.579H326.005V292.328H330.148V288.579ZM325.215 293.107H321.072V296.856H325.215V293.107ZM330.148 293.107H326.005V296.856H330.148V293.107ZM330.937 293.107H335.081V296.856H330.937V293.107ZM340.013 293.107H335.87V296.856H340.013V293.107ZM340.803 293.107H344.946V296.856H340.803V293.107ZM330.937 288.579H335.081V292.328H330.937V288.579ZM340.013 288.579H335.87V292.328H340.013V288.579ZM352.542 294.104C356.192 293.512 357.968 295.189 357.968 295.189C357.968 295.189 356.883 299.431 351.753 299.036C348.3 307.323 341 311.861 331.233 311.861C317.62 311.861 317.62 299.431 318.113 297.557H345.242C346.722 297.557 347.708 297.162 348.3 296.866C346.228 293.019 349.089 289.566 349.089 289.566C349.089 289.566 352.147 291.243 352.542 294.104Z" fill="#2563EB"/>
</g>
<g filter="url(#filter5_dd_448_176462)">
<rect width="68.8314" height="68.8314" rx="34.4157" transform="matrix(1 0 0 -1 158.979 90.3403)" fill="#DBEAFE"/>
<rect width="68.8314" height="68.8314" rx="34.4157" transform="matrix(1 0 0 -1 158.979 90.3403)" stroke="#2563EB"/>
<path fill-rule="evenodd" clip-rule="evenodd" d="M193.395 56.6151C200.716 56.6151 207.115 54.4633 210.583 51.2561V55.7383C210.583 57.6788 209.09 59.7814 205.903 61.4868C202.78 63.1585 198.363 64.2383 193.401 64.2383C188.439 64.2383 184.021 63.1585 180.898 61.4868C177.712 59.7814 176.218 57.6788 176.218 55.7383V51.2664C179.689 54.4679 186.082 56.6151 193.395 56.6151ZM173.218 55.7383V45.7383C173.218 45.3981 173.332 45.0843 173.522 44.8327C174.366 39.2492 182.941 34.8613 193.395 34.8613C203.838 34.8613 212.406 39.2398 213.265 44.8147C213.464 45.0693 213.583 45.3899 213.583 45.7383V55.7383V65.7383C213.583 69.3205 210.895 72.218 207.319 74.1318C203.68 76.0794 198.757 77.2383 193.401 77.2383C188.045 77.2383 183.121 76.0794 179.482 74.1318C175.907 72.218 173.218 69.3205 173.218 65.7383V55.7383ZM210.583 61.8545V65.7383C210.583 67.6788 209.09 69.7814 205.903 71.4868C202.78 73.1585 198.363 74.2383 193.401 74.2383C188.439 74.2383 184.021 73.1585 180.898 71.4868C177.712 69.7814 176.218 67.6788 176.218 65.7383V61.8545C177.157 62.7191 178.269 63.4821 179.482 64.1318C183.121 66.0794 188.045 67.2383 193.401 67.2383C198.757 67.2383 203.68 66.0794 207.319 64.1318C208.533 63.4821 209.644 62.7191 210.583 61.8545Z" fill="#2563EB"/>
</g>
<g filter="url(#filter6_dd_448_176462)">
<rect width="68.8314" height="68.8314" rx="34.4157" transform="matrix(1 0 0 -1 158.979 246.245)" fill="#DBEAFE"/>
<rect width="68.8314" height="68.8314" rx="34.4157" transform="matrix(1 0 0 -1 158.979 246.245)" stroke="#2563EB"/>
<path fill-rule="evenodd" clip-rule="evenodd" d="M190.4 196.527C189.847 196.527 189.4 196.975 189.4 197.527C189.4 198.08 189.847 198.527 190.4 198.527H196.527C197.079 198.527 197.527 198.08 197.527 197.527C197.527 196.975 197.079 196.527 196.527 196.527H190.4ZM185.648 201.527C185.648 200.975 186.095 200.527 186.648 200.527H200.279C200.831 200.527 201.279 200.975 201.279 201.527C201.279 202.08 200.831 202.527 200.279 202.527H186.648C186.095 202.527 185.648 202.08 185.648 201.527ZM177.347 206.194C177.347 205.089 178.242 204.194 179.347 204.194H207.443C208.548 204.194 209.443 205.089 209.443 206.194V225.382C209.443 226.486 208.548 227.382 207.443 227.382H179.347C178.242 227.382 177.347 226.486 177.347 225.382V206.194ZM186.743 219.974C188.952 219.974 190.743 218.183 190.743 215.974C190.743 213.765 188.952 211.974 186.743 211.974C184.534 211.974 182.743 213.765 182.743 215.974C182.743 218.183 184.534 219.974 186.743 219.974ZM203.731 215.974C203.731 218.183 201.94 219.974 199.731 219.974C197.522 219.974 195.731 218.183 195.731 215.974C195.731 213.765 197.522 211.974 199.731 211.974C201.94 211.974 203.731 213.765 203.731 215.974ZM210.25 219.855V212.093C211.989 212.1 213.395 213.512 213.395 215.251V216.709C213.395 218.446 211.987 219.855 210.25 219.855ZM176.54 212.093V219.855C174.803 219.855 173.395 218.446 173.395 216.709V215.251C173.395 213.512 174.801 212.1 176.54 212.093Z" fill="#2563EB"/>
</g>
<g filter="url(#filter7_dd_448_176462)">
<rect width="68.8314" height="68.8314" rx="34.4157" transform="matrix(1 0 0 -1 17.3901 159.172)" fill="#DBEAFE"/>
<rect width="68.8314" height="68.8314" rx="34.4157" transform="matrix(1 0 0 -1 17.3901 159.172)" stroke="#2563EB"/>
<path fill-rule="evenodd" clip-rule="evenodd" d="M45.0857 116.736C45.4987 114.043 46.1211 111.637 46.8946 109.653C47.6221 107.787 48.4636 106.345 49.347 105.387C49.7251 104.977 50.0969 104.669 50.4595 104.451C50.9207 104.419 51.3862 104.403 51.8555 104.403C52.3247 104.403 52.7902 104.419 53.2514 104.451C53.614 104.669 53.9859 104.977 54.3639 105.387C55.2473 106.345 56.0889 107.787 56.8163 109.653C57.5898 111.637 58.2123 114.043 58.6252 116.736H45.0857ZM43.0634 116.736H33.3776C35.7953 110.916 40.883 106.484 47.1122 104.969C46.3227 106.055 45.6265 107.399 45.0312 108.926C44.169 111.138 43.4948 113.793 43.0634 116.736ZM56.5987 104.969C57.3883 106.055 58.0845 107.399 58.6797 108.926C59.5419 111.138 60.2162 113.793 60.6476 116.736H70.3333C67.9156 110.916 62.8279 106.484 56.5987 104.969ZM58.887 118.736H44.824C44.6278 120.533 44.5221 122.434 44.5221 124.403C44.5221 126.372 44.6278 128.272 44.824 130.069H58.8869C59.0832 128.272 59.1888 126.372 59.1888 124.403C59.1888 122.434 59.0832 120.533 58.887 118.736ZM60.8983 130.069C61.0882 128.258 61.1888 126.358 61.1888 124.403C61.1888 122.448 61.0882 120.548 60.8983 118.736H71.0414C71.5712 120.533 71.8555 122.435 71.8555 124.403C71.8555 126.371 71.5712 128.273 71.0414 130.069H60.8983ZM58.6252 132.069H45.0857C45.4987 134.763 46.1211 137.169 46.8946 139.153C47.6221 141.019 48.4636 142.461 49.347 143.419C49.7251 143.829 50.0969 144.137 50.4596 144.355C50.9208 144.387 51.3862 144.403 51.8555 144.403C52.3247 144.403 52.7901 144.387 53.2513 144.355C53.614 144.137 53.9858 143.829 54.3639 143.419C55.2473 142.461 56.0889 141.019 56.8163 139.153C57.5898 137.169 58.2123 134.763 58.6252 132.069ZM56.5987 143.837C57.3882 142.75 58.0845 141.406 58.6797 139.879C59.5419 137.668 60.2162 135.012 60.6476 132.069H70.3333C67.9156 137.89 62.8279 142.322 56.5987 143.837ZM47.1122 143.837C46.3227 142.75 45.6265 141.406 45.0312 139.879C44.169 137.668 43.4948 135.012 43.0634 132.069H33.3776C35.7953 137.89 40.883 142.322 47.1122 143.837ZM42.8126 130.069H32.6696C32.1398 128.273 31.8555 126.371 31.8555 124.403C31.8555 122.435 32.1398 120.533 32.6696 118.736H42.8126C42.6227 120.548 42.5221 122.448 42.5221 124.403C42.5221 126.358 42.6227 128.258 42.8126 130.069Z" fill="#2563EB"/>
</g>
<g filter="url(#filter8_dd_448_176462)">
<rect width="68.8314" height="68.8314" rx="34.4157" transform="matrix(1 0 0 -1 303.552 159.172)" fill="#DBEAFE"/>
<rect width="68.8314" height="68.8314" rx="34.4157" transform="matrix(1 0 0 -1 303.552 159.172)" stroke="#2563EB"/>
<path fill-rule="evenodd" clip-rule="evenodd" d="M322.352 113.582C322.015 113.774 322.016 114.259 322.353 114.451L338.018 123.358C338.172 123.446 338.362 123.445 338.516 123.356L353.731 114.532C354.065 114.338 354.063 113.856 353.729 113.665L338.216 104.803C338.062 104.715 337.873 104.715 337.72 104.803L322.352 113.582ZM355.974 116.411C355.974 116.026 355.556 115.785 355.223 115.978L339.428 125.139C339.274 125.228 339.179 125.393 339.179 125.571V144.247C339.179 144.631 339.594 144.871 339.927 144.681L355.722 135.658C355.878 135.569 355.974 135.404 355.974 135.224V116.411ZM336.431 144.923C336.765 145.113 337.179 144.872 337.179 144.488V125.473C337.179 125.293 337.083 125.127 336.926 125.038L320.709 115.817C320.375 115.627 319.961 115.868 319.961 116.251V135.224C319.961 135.404 320.058 135.569 320.213 135.658L336.431 144.923Z" fill="#2563EB"/>
</g>
<g filter="url(#filter9_dd_448_176462)">
<rect width="68.8314" height="68.8314" rx="34.4157" transform="matrix(1 0 0 -1 158.979 410.669)" fill="#DBEAFE"/>
<rect width="68.8314" height="68.8314" rx="34.4157" transform="matrix(1 0 0 -1 158.979 410.669)" stroke="#2563EB"/>
<path fill-rule="evenodd" clip-rule="evenodd" d="M197.944 384.853C198.082 385.092 198.388 385.174 198.627 385.036L203.169 382.413C203.408 382.275 203.49 381.969 203.352 381.73L201.909 379.231C201.796 379.036 201.829 378.791 201.981 378.625C202.333 378.245 202.659 377.842 202.958 377.418L208.479 381.776V389.23C208.479 389.308 208.488 389.383 208.505 389.456C207.064 389.877 206.012 391.208 206.012 392.785C206.012 394.701 207.564 396.253 209.48 396.253C211.395 396.253 212.948 394.701 212.948 392.785C212.948 391.208 211.895 389.877 210.454 389.456C210.47 389.383 210.479 389.308 210.479 389.23V381.292C210.479 380.986 210.339 380.696 210.099 380.507L204.102 375.773C204.06 375.74 204.016 375.71 203.971 375.685C204.206 375.189 204.408 374.674 204.573 374.143C204.639 373.928 204.836 373.777 205.061 373.777H207.944C208.22 373.777 208.444 373.554 208.444 373.277V368.033C208.444 367.757 208.22 367.533 207.944 367.533H205.061C204.836 367.533 204.639 367.382 204.573 367.167C204.048 365.478 203.153 363.952 201.981 362.685C201.829 362.52 201.796 362.275 201.909 362.08L203.352 359.58C203.49 359.341 203.408 359.035 203.169 358.897L198.627 356.275C198.388 356.137 198.082 356.218 197.944 356.458L196.502 358.955C196.39 359.15 196.162 359.245 195.942 359.195C195.109 359.008 194.242 358.909 193.353 358.909C192.463 358.909 191.596 359.008 190.763 359.195C190.544 359.245 190.315 359.15 190.203 358.955L188.761 356.458C188.623 356.218 188.317 356.137 188.078 356.275L183.536 358.897C183.297 359.035 183.215 359.341 183.353 359.58L184.796 362.08C184.909 362.275 184.877 362.52 184.724 362.685C183.553 363.952 182.657 365.478 182.133 367.167C182.066 367.382 181.87 367.533 181.645 367.533H178.762C178.485 367.533 178.262 367.757 178.262 368.033V373.277C178.262 373.554 178.485 373.777 178.762 373.777H181.645C181.87 373.777 182.066 373.928 182.133 374.143C182.302 374.688 182.51 375.216 182.753 375.724C182.731 375.739 182.708 375.755 182.687 375.773L176.69 380.507C176.449 380.696 176.309 380.986 176.309 381.292L176.309 389.23C176.309 389.308 176.318 389.383 176.335 389.456C174.894 389.877 173.841 391.208 173.841 392.785C173.841 394.701 175.394 396.253 177.309 396.253C179.225 396.253 180.778 394.701 180.778 392.785C180.778 391.208 179.725 389.877 178.284 389.456C178.3 389.383 178.309 389.308 178.309 389.23L178.309 381.776L183.777 377.46C184.068 377.869 184.384 378.258 184.724 378.625C184.877 378.79 184.909 379.036 184.796 379.23L183.353 381.73C183.215 381.97 183.297 382.275 183.536 382.413L188.078 385.036C188.317 385.174 188.623 385.092 188.761 384.853L190.203 382.355C190.315 382.16 190.544 382.066 190.763 382.115C191.294 382.235 191.839 382.318 192.395 382.363V388.426C192.395 388.478 192.399 388.53 192.406 388.58C190.972 389.006 189.926 390.334 189.926 391.906C189.926 393.821 191.479 395.374 193.394 395.374C195.31 395.374 196.863 393.821 196.863 391.906C196.863 390.334 195.817 389.006 194.383 388.58C194.39 388.53 194.395 388.478 194.395 388.426V382.356C194.921 382.31 195.438 382.229 195.942 382.115C196.162 382.066 196.39 382.16 196.502 382.355L197.944 384.853ZM193.353 378.201C197.52 378.201 200.898 374.823 200.898 370.655C200.898 366.488 197.52 363.11 193.353 363.11C189.185 363.11 185.807 366.488 185.807 370.655C185.807 374.823 189.185 378.201 193.353 378.201Z" fill="#2563EB"/>
</g>
<defs>
<filter id="filter0_dd_448_176462" x="692.13" y="301.28" width="120.3" height="120.3" filterUnits="userSpaceOnUse" color-interpolation-filters="sRGB">
<feFlood flood-opacity="0" result="BackgroundImageFix"/>
<feColorMatrix in="SourceAlpha" type="matrix" values="0 0 0 0 0 0 0 0 0 0 0 0 0 0 0 0 0 0 127 0" result="hardAlpha"/>
<feOffset dy="2"/>
<feGaussianBlur stdDeviation="8"/>
<feColorMatrix type="matrix" values="0 0 0 0 0.0588235 0 0 0 0 0.0588235 0 0 0 0 0.0666667 0 0 0 0.08 0"/>
<feBlend mode="normal" in2="BackgroundImageFix" result="effect1_dropShadow_448_176462"/>
<feColorMatrix in="SourceAlpha" type="matrix" values="0 0 0 0 0 0 0 0 0 0 0 0 0 0 0 0 0 0 127 0" result="hardAlpha"/>
<feMorphology radius="1" operator="dilate" in="SourceAlpha" result="effect2_dropShadow_448_176462"/>
<feOffset/>
<feColorMatrix type="matrix" values="0 0 0 0 0.0588235 0 0 0 0 0.0588235 0 0 0 0 0.0666667 0 0 0 0.1 0"/>
<feBlend mode="normal" in2="effect1_dropShadow_448_176462" result="effect2_dropShadow_448_176462"/>
<feBlend mode="normal" in="SourceGraphic" in2="effect2_dropShadow_448_176462" result="shape"/>
</filter>
<filter id="filter1_dd_448_176462" x="692.131" y="150.85" width="120.3" height="120.3" filterUnits="userSpaceOnUse" color-interpolation-filters="sRGB">
<feFlood flood-opacity="0" result="BackgroundImageFix"/>
<feColorMatrix in="SourceAlpha" type="matrix" values="0 0 0 0 0 0 0 0 0 0 0 0 0 0 0 0 0 0 127 0" result="hardAlpha"/>
<feOffset dy="2"/>
<feGaussianBlur stdDeviation="8"/>
<feColorMatrix type="matrix" values="0 0 0 0 0.0588235 0 0 0 0 0.0588235 0 0 0 0 0.0666667 0 0 0 0.08 0"/>
<feBlend mode="normal" in2="BackgroundImageFix" result="effect1_dropShadow_448_176462"/>
<feColorMatrix in="SourceAlpha" type="matrix" values="0 0 0 0 0 0 0 0 0 0 0 0 0 0 0 0 0 0 127 0" result="hardAlpha"/>
<feMorphology radius="1" operator="dilate" in="SourceAlpha" result="effect2_dropShadow_448_176462"/>
<feOffset/>
<feColorMatrix type="matrix" values="0 0 0 0 0.0588235 0 0 0 0 0.0588235 0 0 0 0 0.0666667 0 0 0 0.1 0"/>
<feBlend mode="normal" in2="effect1_dropShadow_448_176462" result="effect2_dropShadow_448_176462"/>
<feBlend mode="normal" in="SourceGraphic" in2="effect2_dropShadow_448_176462" result="shape"/>
</filter>
<filter id="filter2_dd_448_176462" x="692.131" y="0.419922" width="120.3" height="120.3" filterUnits="userSpaceOnUse" color-interpolation-filters="sRGB">
<feFlood flood-opacity="0" result="BackgroundImageFix"/>
<feColorMatrix in="SourceAlpha" type="matrix" values="0 0 0 0 0 0 0 0 0 0 0 0 0 0 0 0 0 0 127 0" result="hardAlpha"/>
<feOffset dy="2"/>
<feGaussianBlur stdDeviation="8"/>
<feColorMatrix type="matrix" values="0 0 0 0 0.0588235 0 0 0 0 0.0588235 0 0 0 0 0.0666667 0 0 0 0.08 0"/>
<feBlend mode="normal" in2="BackgroundImageFix" result="effect1_dropShadow_448_176462"/>
<feColorMatrix in="SourceAlpha" type="matrix" values="0 0 0 0 0 0 0 0 0 0 0 0 0 0 0 0 0 0 127 0" result="hardAlpha"/>
<feMorphology radius="1" operator="dilate" in="SourceAlpha" result="effect2_dropShadow_448_176462"/>
<feOffset/>
<feColorMatrix type="matrix" values="0 0 0 0 0.0588235 0 0 0 0 0.0588235 0 0 0 0 0.0666667 0 0 0 0.1 0"/>
<feBlend mode="normal" in2="effect1_dropShadow_448_176462" result="effect2_dropShadow_448_176462"/>
<feBlend mode="normal" in="SourceGraphic" in2="effect2_dropShadow_448_176462" result="shape"/>
</filter>
<filter id="filter3_dd_448_176462" x="0.110352" y="249.035" width="101.832" height="101.832" filterUnits="userSpaceOnUse" color-interpolation-filters="sRGB">
<feFlood flood-opacity="0" result="BackgroundImageFix"/>
<feColorMatrix in="SourceAlpha" type="matrix" values="0 0 0 0 0 0 0 0 0 0 0 0 0 0 0 0 0 0 127 0" result="hardAlpha"/>
<feOffset dy="2"/>
<feGaussianBlur stdDeviation="8"/>
<feColorMatrix type="matrix" values="0 0 0 0 0.0588235 0 0 0 0 0.0588235 0 0 0 0 0.0666667 0 0 0 0.08 0"/>
<feBlend mode="normal" in2="BackgroundImageFix" result="effect1_dropShadow_448_176462"/>
<feColorMatrix in="SourceAlpha" type="matrix" values="0 0 0 0 0 0 0 0 0 0 0 0 0 0 0 0 0 0 127 0" result="hardAlpha"/>
<feMorphology radius="1" operator="dilate" in="SourceAlpha" result="effect2_dropShadow_448_176462"/>
<feOffset/>
<feColorMatrix type="matrix" values="0 0 0 0 0.0588235 0 0 0 0 0.0588235 0 0 0 0 0.0666667 0 0 0 0.1 0"/>
<feBlend mode="normal" in2="effect1_dropShadow_448_176462" result="effect2_dropShadow_448_176462"/>
<feBlend mode="normal" in="SourceGraphic" in2="effect2_dropShadow_448_176462" result="shape"/>
</filter>
<filter id="filter4_dd_448_176462" x="287.052" y="249.035" width="101.832" height="101.832" filterUnits="userSpaceOnUse" color-interpolation-filters="sRGB">
<feFlood flood-opacity="0" result="BackgroundImageFix"/>
<feColorMatrix in="SourceAlpha" type="matrix" values="0 0 0 0 0 0 0 0 0 0 0 0 0 0 0 0 0 0 127 0" result="hardAlpha"/>
<feOffset dy="2"/>
<feGaussianBlur stdDeviation="8"/>
<feColorMatrix type="matrix" values="0 0 0 0 0.0588235 0 0 0 0 0.0588235 0 0 0 0 0.0666667 0 0 0 0.08 0"/>
<feBlend mode="normal" in2="BackgroundImageFix" result="effect1_dropShadow_448_176462"/>
<feColorMatrix in="SourceAlpha" type="matrix" values="0 0 0 0 0 0 0 0 0 0 0 0 0 0 0 0 0 0 127 0" result="hardAlpha"/>
<feMorphology radius="1" operator="dilate" in="SourceAlpha" result="effect2_dropShadow_448_176462"/>
<feOffset/>
<feColorMatrix type="matrix" values="0 0 0 0 0.0588235 0 0 0 0 0.0588235 0 0 0 0 0.0666667 0 0 0 0.1 0"/>
<feBlend mode="normal" in2="effect1_dropShadow_448_176462" result="effect2_dropShadow_448_176462"/>
<feBlend mode="normal" in="SourceGraphic" in2="effect2_dropShadow_448_176462" result="shape"/>
</filter>
<filter id="filter5_dd_448_176462" x="142.479" y="7.00879" width="101.832" height="101.832" filterUnits="userSpaceOnUse" color-interpolation-filters="sRGB">
<feFlood flood-opacity="0" result="BackgroundImageFix"/>
<feColorMatrix in="SourceAlpha" type="matrix" values="0 0 0 0 0 0 0 0 0 0 0 0 0 0 0 0 0 0 127 0" result="hardAlpha"/>
<feOffset dy="2"/>
<feGaussianBlur stdDeviation="8"/>
<feColorMatrix type="matrix" values="0 0 0 0 0.0588235 0 0 0 0 0.0588235 0 0 0 0 0.0666667 0 0 0 0.08 0"/>
<feBlend mode="normal" in2="BackgroundImageFix" result="effect1_dropShadow_448_176462"/>
<feColorMatrix in="SourceAlpha" type="matrix" values="0 0 0 0 0 0 0 0 0 0 0 0 0 0 0 0 0 0 127 0" result="hardAlpha"/>
<feMorphology radius="1" operator="dilate" in="SourceAlpha" result="effect2_dropShadow_448_176462"/>
<feOffset/>
<feColorMatrix type="matrix" values="0 0 0 0 0.0588235 0 0 0 0 0.0588235 0 0 0 0 0.0666667 0 0 0 0.1 0"/>
<feBlend mode="normal" in2="effect1_dropShadow_448_176462" result="effect2_dropShadow_448_176462"/>
<feBlend mode="normal" in="SourceGraphic" in2="effect2_dropShadow_448_176462" result="shape"/>
</filter>
<filter id="filter6_dd_448_176462" x="142.479" y="162.914" width="101.832" height="101.832" filterUnits="userSpaceOnUse" color-interpolation-filters="sRGB">
<feFlood flood-opacity="0" result="BackgroundImageFix"/>
<feColorMatrix in="SourceAlpha" type="matrix" values="0 0 0 0 0 0 0 0 0 0 0 0 0 0 0 0 0 0 127 0" result="hardAlpha"/>
<feOffset dy="2"/>
<feGaussianBlur stdDeviation="8"/>
<feColorMatrix type="matrix" values="0 0 0 0 0.0588235 0 0 0 0 0.0588235 0 0 0 0 0.0666667 0 0 0 0.08 0"/>
<feBlend mode="normal" in2="BackgroundImageFix" result="effect1_dropShadow_448_176462"/>
<feColorMatrix in="SourceAlpha" type="matrix" values="0 0 0 0 0 0 0 0 0 0 0 0 0 0 0 0 0 0 127 0" result="hardAlpha"/>
<feMorphology radius="1" operator="dilate" in="SourceAlpha" result="effect2_dropShadow_448_176462"/>
<feOffset/>
<feColorMatrix type="matrix" values="0 0 0 0 0.0588235 0 0 0 0 0.0588235 0 0 0 0 0.0666667 0 0 0 0.1 0"/>
<feBlend mode="normal" in2="effect1_dropShadow_448_176462" result="effect2_dropShadow_448_176462"/>
<feBlend mode="normal" in="SourceGraphic" in2="effect2_dropShadow_448_176462" result="shape"/>
</filter>
<filter id="filter7_dd_448_176462" x="0.890137" y="75.8403" width="101.832" height="101.832" filterUnits="userSpaceOnUse" color-interpolation-filters="sRGB">
<feFlood flood-opacity="0" result="BackgroundImageFix"/>
<feColorMatrix in="SourceAlpha" type="matrix" values="0 0 0 0 0 0 0 0 0 0 0 0 0 0 0 0 0 0 127 0" result="hardAlpha"/>
<feOffset dy="2"/>
<feGaussianBlur stdDeviation="8"/>
<feColorMatrix type="matrix" values="0 0 0 0 0.0588235 0 0 0 0 0.0588235 0 0 0 0 0.0666667 0 0 0 0.08 0"/>
<feBlend mode="normal" in2="BackgroundImageFix" result="effect1_dropShadow_448_176462"/>
<feColorMatrix in="SourceAlpha" type="matrix" values="0 0 0 0 0 0 0 0 0 0 0 0 0 0 0 0 0 0 127 0" result="hardAlpha"/>
<feMorphology radius="1" operator="dilate" in="SourceAlpha" result="effect2_dropShadow_448_176462"/>
<feOffset/>
<feColorMatrix type="matrix" values="0 0 0 0 0.0588235 0 0 0 0 0.0588235 0 0 0 0 0.0666667 0 0 0 0.1 0"/>
<feBlend mode="normal" in2="effect1_dropShadow_448_176462" result="effect2_dropShadow_448_176462"/>
<feBlend mode="normal" in="SourceGraphic" in2="effect2_dropShadow_448_176462" result="shape"/>
</filter>
<filter id="filter8_dd_448_176462" x="287.052" y="75.8403" width="101.832" height="101.832" filterUnits="userSpaceOnUse" color-interpolation-filters="sRGB">
<feFlood flood-opacity="0" result="BackgroundImageFix"/>
<feColorMatrix in="SourceAlpha" type="matrix" values="0 0 0 0 0 0 0 0 0 0 0 0 0 0 0 0 0 0 127 0" result="hardAlpha"/>
<feOffset dy="2"/>
<feGaussianBlur stdDeviation="8"/>
<feColorMatrix type="matrix" values="0 0 0 0 0.0588235 0 0 0 0 0.0588235 0 0 0 0 0.0666667 0 0 0 0.08 0"/>
<feBlend mode="normal" in2="BackgroundImageFix" result="effect1_dropShadow_448_176462"/>
<feColorMatrix in="SourceAlpha" type="matrix" values="0 0 0 0 0 0 0 0 0 0 0 0 0 0 0 0 0 0 127 0" result="hardAlpha"/>
<feMorphology radius="1" operator="dilate" in="SourceAlpha" result="effect2_dropShadow_448_176462"/>
<feOffset/>
<feColorMatrix type="matrix" values="0 0 0 0 0.0588235 0 0 0 0 0.0588235 0 0 0 0 0.0666667 0 0 0 0.1 0"/>
<feBlend mode="normal" in2="effect1_dropShadow_448_176462" result="effect2_dropShadow_448_176462"/>
<feBlend mode="normal" in="SourceGraphic" in2="effect2_dropShadow_448_176462" result="shape"/>
</filter>
<filter id="filter9_dd_448_176462" x="142.479" y="327.337" width="101.832" height="101.832" filterUnits="userSpaceOnUse" color-interpolation-filters="sRGB">
<feFlood flood-opacity="0" result="BackgroundImageFix"/>
<feColorMatrix in="SourceAlpha" type="matrix" values="0 0 0 0 0 0 0 0 0 0 0 0 0 0 0 0 0 0 127 0" result="hardAlpha"/>
<feOffset dy="2"/>
<feGaussianBlur stdDeviation="8"/>
<feColorMatrix type="matrix" values="0 0 0 0 0.0588235 0 0 0 0 0.0588235 0 0 0 0 0.0666667 0 0 0 0.08 0"/>
<feBlend mode="normal" in2="BackgroundImageFix" result="effect1_dropShadow_448_176462"/>
<feColorMatrix in="SourceAlpha" type="matrix" values="0 0 0 0 0 0 0 0 0 0 0 0 0 0 0 0 0 0 127 0" result="hardAlpha"/>
<feMorphology radius="1" operator="dilate" in="SourceAlpha" result="effect2_dropShadow_448_176462"/>
<feOffset/>
<feColorMatrix type="matrix" values="0 0 0 0 0.0588235 0 0 0 0 0.0588235 0 0 0 0 0.0666667 0 0 0 0.1 0"/>
<feBlend mode="normal" in2="effect1_dropShadow_448_176462" result="effect2_dropShadow_448_176462"/>
<feBlend mode="normal" in="SourceGraphic" in2="effect2_dropShadow_448_176462" result="shape"/>
</filter>
</defs>
</svg>
