<svg width="704" height="104" viewBox="0 0 704 104" fill="none" xmlns="http://www.w3.org/2000/svg">
<rect width="104" height="104" rx="4" fill="#2563EB"/>
<path d="M81.7261 26.8987L68.5604 20.5649C67.0285 19.8249 65.2065 20.1369 64.0085 21.3348L38.7912 44.3442L27.8015 36.0104C26.7816 35.2285 25.3436 35.2925 24.3956 36.1564L20.8757 39.3643C19.7098 40.4163 19.7098 42.2503 20.8657 43.3022L30.3975 52L20.8657 60.6978C19.7098 61.7497 19.7098 63.5837 20.8757 64.6357L24.3956 67.8436C25.3536 68.7075 26.7816 68.7715 27.8015 67.9896L38.7912 59.6458L64.0205 82.6652C65.2085 83.8631 67.0305 84.1751 68.5624 83.4351L81.7401 77.0913C83.126 76.4253 84 75.0294 84 73.4874V30.4986C84 28.9666 83.114 27.5607 81.7301 26.8947L81.7261 26.8987ZM68.0064 66.5336L48.861 52.002L68.0064 37.4704V66.5336Z" fill="white"/>
<rect x="136" width="104" height="104" rx="4" fill="#2563EB"/>
<path fill-rule="evenodd" clip-rule="evenodd" d="M156 20H220V84H156V20ZM186.08 71.9996H162.08V75.9996H186.08V71.9996ZM179.2 28.3196V33.1196H175.52V49.9196H179.2V54.8796H166.08V49.9196H169.76V33.1196H166.08V28.3196H179.2ZM186.72 54.0796C188.355 54.8965 190.173 55.282 192 55.1996C194.255 55.0853 196.426 54.3058 198.24 52.9596C199.284 52.0051 200.057 50.7904 200.48 49.4396C200.963 48.1081 201.18 46.6948 201.12 45.2796V27.9996H195.2V45.1196C195.325 46.3215 194.981 47.5252 194.24 48.4796C193.625 49.2553 192.666 49.675 191.68 49.5996C190.783 49.6358 189.894 49.4137 189.12 48.9596C188.297 48.4146 187.544 47.7697 186.88 47.0396L183.2 51.1996C184.188 52.3653 185.381 53.3412 186.72 54.0796Z" fill="white"/>
<rect x="272" width="104" height="104" rx="4" fill="#2563EB"/>
<path fill-rule="evenodd" clip-rule="evenodd" d="M350.288 33.8853L336.469 20V55.5491L348.029 72.933L350.381 70.381L350.288 33.8853ZM311.248 20.0026L346.688 74.0823L336.771 83.9995L301.312 30.0399L311.248 20.0026ZM311.531 84L297.712 70.1147L297.619 33.619L299.971 31.067L311.531 48.4509V84Z" fill="white"/>
<rect x="408" width="104" height="104" rx="4" fill="#2563EB"/>
<path d="M431.787 53.6471V53.5958V45.7638H433.504V54.2496C433.584 54.9335 433.526 55.6264 433.332 56.2871C433.138 56.9478 432.813 57.5627 432.376 58.0951C431.565 58.795 430.525 59.1735 429.454 59.159L429.274 57.8772C429.966 57.8776 430.632 57.6218 431.146 57.1593C431.607 56.621 431.787 55.8903 431.787 53.6471ZM444.597 52.636C444.597 53.5974 444.597 54.4562 444.674 55.1997H443.148L443.046 53.6743C442.727 54.214 442.27 54.6596 441.723 54.9658C441.176 55.272 440.558 55.4279 439.931 55.4176C438.444 55.4176 436.675 54.6101 436.675 51.3157V45.8423H438.393V50.9696C438.393 52.7514 438.944 53.9435 440.495 53.9435C440.814 53.9469 441.13 53.8866 441.426 53.7661C441.721 53.6455 441.99 53.4672 442.216 53.2416C442.441 53.0159 442.62 52.7475 442.74 52.452C442.861 52.1565 442.921 51.8399 442.917 51.5208V45.7782H444.635V52.5848L444.597 52.636ZM447.853 48.8919C447.853 47.6998 447.853 46.7256 447.776 45.8411H449.314L449.391 47.4434C449.734 46.8646 450.227 46.3895 450.818 46.069C451.41 45.7484 452.077 45.5944 452.749 45.6232C455.031 45.6232 456.749 47.5332 456.749 50.3789C456.749 53.7373 454.685 55.4037 452.454 55.4037C451.884 55.4291 451.316 55.3069 450.806 55.0486C450.296 54.7904 449.862 54.4049 449.545 53.9296V59.0569H447.853V48.9304V48.8919ZM449.545 51.3915C449.549 51.6241 449.575 51.8558 449.622 52.0837C449.767 52.6529 450.098 53.1573 450.562 53.5171C451.027 53.877 451.598 54.0717 452.185 54.0706C453.993 54.0706 455.057 52.5965 455.057 50.4558C455.057 48.5843 454.057 46.982 452.249 46.982C451.534 47.0406 450.865 47.358 450.367 47.8748C449.869 48.3916 449.577 49.0723 449.545 49.7892V51.3915ZM459.809 45.8326L461.873 51.3574C462.091 51.9726 462.321 52.7161 462.475 53.2673C462.655 52.7033 462.847 51.9854 463.078 51.3189L464.949 45.8326H466.757L464.193 52.4982C462.911 55.7028 462.129 57.3564 460.95 58.3562C460.356 58.8987 459.632 59.2785 458.848 59.4586L458.425 58.0229C458.973 57.8428 459.482 57.56 459.924 57.1897C460.55 56.6801 461.046 56.0301 461.373 55.2926C461.443 55.1649 461.49 55.0262 461.514 54.8824C461.499 54.7277 461.46 54.5763 461.398 54.4338L457.912 45.807H459.783L459.809 45.8326ZM471.316 43.1434V45.8352H473.778V47.1171H471.316V52.1675C471.316 53.3212 471.65 53.9877 472.598 53.9877C472.935 53.9932 473.271 53.9545 473.598 53.8724L473.675 55.1542C473.185 55.324 472.668 55.4022 472.15 55.3849C471.806 55.4064 471.463 55.3534 471.142 55.2295C470.821 55.1056 470.531 54.9137 470.291 54.6671C469.769 53.9688 469.531 53.0985 469.624 52.2316V47.1043H468.163V45.8224H469.65V43.5407L471.316 43.1434ZM476.942 50.816C476.907 51.2507 476.967 51.6878 477.118 52.0971C477.268 52.5063 477.506 52.878 477.814 53.1864C478.123 53.4947 478.494 53.7325 478.904 53.8832C479.313 54.0338 479.75 54.0938 480.185 54.0591C481.064 54.0787 481.938 53.9128 482.748 53.572L483.043 54.8538C482.048 55.2636 480.978 55.4602 479.903 55.4306C479.276 55.4736 478.647 55.3803 478.059 55.1574C477.471 54.9344 476.939 54.5869 476.498 54.1389C476.057 53.6908 475.719 53.1526 475.505 52.5614C475.292 51.9701 475.209 51.3397 475.263 50.7135C475.263 47.8934 476.942 45.663 479.685 45.663C482.761 45.663 483.53 48.3549 483.53 50.0725C483.547 50.3372 483.547 50.6026 483.53 50.8673H476.903L476.942 50.816ZM481.967 49.5342C482.016 49.1914 481.991 48.8421 481.895 48.5097C481.798 48.1773 481.631 47.8696 481.405 47.6072C481.179 47.3448 480.899 47.1339 480.585 46.9887C480.27 46.8435 479.929 46.7673 479.582 46.7654C478.878 46.8164 478.218 47.1285 477.732 47.6407C477.246 48.1529 476.969 48.8282 476.955 49.5342H481.967ZM486.137 48.7474C486.137 47.6451 486.137 46.6965 486.06 45.8248H487.598V47.6579H487.675C487.836 47.0921 488.17 46.5907 488.629 46.2232C489.089 45.8556 489.651 45.6402 490.239 45.6069C490.4 45.5857 490.564 45.5857 490.726 45.6069V47.2092C490.53 47.1865 490.332 47.1865 490.136 47.2092C489.554 47.2318 489 47.4654 488.578 47.8664C488.156 48.2674 487.894 48.8084 487.841 49.3884C487.794 49.6506 487.768 49.9165 487.765 50.1831V55.1695H486.073V48.7602L486.137 48.7474Z" fill="white"/>
<path fill-rule="evenodd" clip-rule="evenodd" d="M487.565 58.107C488.066 56.0708 488.395 54.2615 488.547 52.521C488.406 54.4424 488.072 56.3107 487.565 58.107ZM486.83 60.345C484.106 63.2941 478.887 67.3883 469.565 69.3398C465.719 70.3452 455.264 71.3827 444.214 67.4889C441.654 66.4879 435.935 63.6661 433.174 60.2683C437.205 71.1 447.702 78.8226 460.016 78.8226C472.302 78.8226 482.778 71.1365 486.83 60.345ZM488.345 46.4554C488.211 45.5602 488.032 44.6361 487.806 43.6635C488.031 44.5776 488.212 45.509 488.345 46.4554ZM486.833 40.5209C482.782 29.7258 472.304 22.0364 460.016 22.0364C447.715 22.0364 437.226 29.7435 433.186 40.5583C434.754 38.7678 438.521 35.3081 445.073 33.0155C449.309 31.3888 460.006 29.1421 470.668 31.7518C473.922 32.4733 481.124 34.4857 486.833 40.5209Z" fill="white"/>
<ellipse cx="481.046" cy="20.3465" rx="4.37974" ry="4.34703" fill="white"/>
<ellipse cx="434.342" cy="25.9811" rx="3.15303" ry="3.12948" fill="white"/>
<ellipse cx="438.692" cy="82.525" rx="5.51571" ry="5.47451" fill="white"/>
<path d="M544 0V104" stroke="#D4D4D8" stroke-width="3"/>
<rect x="576" width="128" height="104" rx="4" fill="#EEEEF0"/>
<path d="M596.367 58L600.523 46.3594H602.695L606.914 58H604.992L602.727 51.5156C602.549 50.9844 602.354 50.3672 602.141 49.6641C601.932 48.9557 601.688 48.1016 601.406 47.1016H601.781C601.51 48.1068 601.268 48.9661 601.055 49.6797C600.846 50.3932 600.661 51.0052 600.5 51.5156L598.289 58H596.367ZM598.625 54.9375V53.4531H604.656V54.9375H598.625ZM610.125 52.875V58H608.414V49.3203H610.047L610.062 51.4453H609.867C610.122 50.6693 610.49 50.1016 610.969 49.7422C611.453 49.3828 612.039 49.2031 612.727 49.2031C613.32 49.2031 613.839 49.3281 614.281 49.5781C614.729 49.8281 615.076 50.1979 615.32 50.6875C615.57 51.1719 615.695 51.7734 615.695 52.4922V58H613.984V52.7109C613.984 52.0755 613.82 51.5807 613.492 51.2266C613.169 50.8724 612.721 50.6953 612.148 50.6953C611.763 50.6953 611.417 50.7812 611.109 50.9531C610.807 51.1198 610.568 51.3646 610.391 51.6875C610.214 52.0104 610.125 52.4062 610.125 52.875ZM621.195 58.1719C620.492 58.1719 619.865 57.9922 619.312 57.6328C618.766 57.2682 618.336 56.75 618.023 56.0781C617.711 55.4062 617.555 54.6068 617.555 53.6797C617.555 52.7422 617.711 51.9401 618.023 51.2734C618.341 50.6016 618.773 50.0885 619.32 49.7344C619.872 49.3802 620.497 49.2031 621.195 49.2031C621.721 49.2031 622.148 49.2891 622.477 49.4609C622.805 49.6328 623.065 49.8359 623.258 50.0703C623.456 50.3047 623.609 50.5208 623.719 50.7188H623.805V46.3594H625.516V58H623.844V56.6484H623.719C623.609 56.8464 623.456 57.0651 623.258 57.3047C623.06 57.5391 622.794 57.7422 622.461 57.9141C622.133 58.0859 621.711 58.1719 621.195 58.1719ZM621.57 56.7109C622.06 56.7109 622.471 56.5833 622.805 56.3281C623.143 56.0729 623.401 55.7161 623.578 55.2578C623.755 54.7995 623.844 54.2682 623.844 53.6641C623.844 53.0599 623.755 52.5339 623.578 52.0859C623.406 51.638 623.151 51.2891 622.812 51.0391C622.474 50.7891 622.06 50.6641 621.57 50.6641C621.076 50.6641 620.659 50.7943 620.32 51.0547C619.982 51.3151 619.727 51.6719 619.555 52.125C619.388 52.5729 619.305 53.0859 619.305 53.6641C619.305 54.2474 619.391 54.7682 619.562 55.2266C619.734 55.6849 619.99 56.0469 620.328 56.3125C620.667 56.5781 621.081 56.7109 621.57 56.7109ZM632.008 58V49.3203H633.641L633.68 51.3125H633.547C633.672 50.8281 633.865 50.4297 634.125 50.1172C634.385 49.7995 634.69 49.5625 635.039 49.4062C635.388 49.25 635.753 49.1719 636.133 49.1719C636.763 49.1719 637.276 49.3672 637.672 49.7578C638.073 50.1484 638.341 50.6849 638.477 51.3672H638.258C638.367 50.8984 638.562 50.5026 638.844 50.1797C639.125 49.8516 639.461 49.6016 639.852 49.4297C640.247 49.2578 640.674 49.1719 641.133 49.1719C641.648 49.1719 642.115 49.2839 642.531 49.5078C642.948 49.7318 643.279 50.0651 643.523 50.5078C643.768 50.9453 643.891 51.4974 643.891 52.1641V58H642.18V52.3359C642.18 51.7474 642.016 51.3229 641.688 51.0625C641.365 50.8021 640.982 50.6719 640.539 50.6719C640.18 50.6719 639.87 50.7474 639.609 50.8984C639.349 51.0495 639.146 51.2604 639 51.5312C638.859 51.7969 638.789 52.1042 638.789 52.4531V58H637.109V52.2188C637.109 51.75 636.958 51.375 636.656 51.0938C636.354 50.8125 635.971 50.6719 635.508 50.6719C635.19 50.6719 634.893 50.7474 634.617 50.8984C634.346 51.0443 634.128 51.263 633.961 51.5547C633.799 51.8411 633.719 52.1979 633.719 52.625V58H632.008ZM649.82 58.1797C649.003 58.1797 648.289 57.9948 647.68 57.625C647.076 57.25 646.604 56.7266 646.266 56.0547C645.927 55.3776 645.758 54.5938 645.758 53.7031C645.758 52.8021 645.927 52.0156 646.266 51.3438C646.604 50.6667 647.076 50.1406 647.68 49.7656C648.289 49.3906 649.003 49.2031 649.82 49.2031C650.638 49.2031 651.352 49.3906 651.961 49.7656C652.576 50.1406 653.049 50.6667 653.383 51.3438C653.721 52.0156 653.891 52.8021 653.891 53.7031C653.891 54.5938 653.721 55.3776 653.383 56.0547C653.049 56.7266 652.576 57.25 651.961 57.625C651.352 57.9948 650.638 58.1797 649.82 58.1797ZM649.82 56.7344C650.346 56.7344 650.781 56.599 651.125 56.3281C651.474 56.0521 651.732 55.6849 651.898 55.2266C652.07 54.763 652.156 54.2552 652.156 53.7031C652.156 53.1406 652.07 52.6302 651.898 52.1719C651.732 51.7083 651.474 51.3385 651.125 51.0625C650.781 50.7865 650.346 50.6484 649.82 50.6484C649.299 50.6484 648.867 50.7865 648.523 51.0625C648.18 51.3385 647.922 51.7083 647.75 52.1719C647.583 52.6302 647.5 53.1406 647.5 53.7031C647.5 54.2604 647.583 54.7682 647.75 55.2266C647.922 55.6849 648.18 56.0521 648.523 56.3281C648.867 56.599 649.299 56.7344 649.82 56.7344ZM655.758 58V49.3203H657.406V50.7109H657.492C657.654 50.2422 657.93 49.875 658.32 49.6094C658.716 49.3385 659.172 49.2031 659.688 49.2031C659.797 49.2031 659.919 49.2083 660.055 49.2188C660.195 49.224 660.31 49.2318 660.398 49.2422V50.8672C660.336 50.8516 660.216 50.8333 660.039 50.8125C659.862 50.7917 659.682 50.7812 659.5 50.7812C659.115 50.7812 658.766 50.8646 658.453 51.0312C658.146 51.1927 657.904 51.4219 657.727 51.7188C657.555 52.0104 657.469 52.3516 657.469 52.7422V58H655.758ZM665.32 58.1797C664.466 58.1797 663.729 57.9948 663.109 57.625C662.49 57.2552 662.013 56.737 661.68 56.0703C661.346 55.3984 661.18 54.6146 661.18 53.7188C661.18 52.8281 661.344 52.0443 661.672 51.3672C662.005 50.6901 662.471 50.1615 663.07 49.7812C663.674 49.3958 664.378 49.2031 665.18 49.2031C665.69 49.2031 666.177 49.2865 666.641 49.4531C667.109 49.6198 667.526 49.8802 667.891 50.2344C668.255 50.5885 668.544 51.0417 668.758 51.5938C668.971 52.1458 669.078 52.8073 669.078 53.5781V54.1719H662.117V52.8906H668.195L667.398 53.3125C667.398 52.7812 667.312 52.3125 667.141 51.9062C666.974 51.5 666.727 51.1849 666.398 50.9609C666.076 50.7318 665.672 50.6172 665.188 50.6172C664.703 50.6172 664.289 50.7344 663.945 50.9688C663.607 51.1979 663.346 51.5052 663.164 51.8906C662.982 52.2708 662.891 52.6901 662.891 53.1484V54C662.891 54.5885 662.992 55.0911 663.195 55.5078C663.398 55.9193 663.682 56.2318 664.047 56.4453C664.417 56.6589 664.846 56.7656 665.336 56.7656C665.664 56.7656 665.958 56.7188 666.219 56.625C666.484 56.5312 666.711 56.3906 666.898 56.2031C667.086 56.0156 667.229 55.7865 667.328 55.5156L668.938 55.8594C668.807 56.3177 668.576 56.7214 668.242 57.0703C667.909 57.4193 667.495 57.6927 667 57.8906C666.505 58.0833 665.945 58.1797 665.32 58.1797ZM672.141 58.1172C671.823 58.1172 671.552 58.0078 671.328 57.7891C671.104 57.5651 670.992 57.2943 670.992 56.9766C670.992 56.6589 671.104 56.388 671.328 56.1641C671.552 55.9401 671.823 55.8281 672.141 55.8281C672.464 55.8281 672.734 55.9401 672.953 56.1641C673.177 56.388 673.289 56.6589 673.289 56.9766C673.289 57.2943 673.177 57.5651 672.953 57.7891C672.734 58.0078 672.464 58.1172 672.141 58.1172ZM676.859 58.1172C676.542 58.1172 676.271 58.0078 676.047 57.7891C675.823 57.5651 675.711 57.2943 675.711 56.9766C675.711 56.6589 675.823 56.388 676.047 56.1641C676.271 55.9401 676.542 55.8281 676.859 55.8281C677.182 55.8281 677.453 55.9401 677.672 56.1641C677.896 56.388 678.008 56.6589 678.008 56.9766C678.008 57.2943 677.896 57.5651 677.672 57.7891C677.453 58.0078 677.182 58.1172 676.859 58.1172ZM681.578 58.1172C681.26 58.1172 680.99 58.0078 680.766 57.7891C680.542 57.5651 680.43 57.2943 680.43 56.9766C680.43 56.6589 680.542 56.388 680.766 56.1641C680.99 55.9401 681.26 55.8281 681.578 55.8281C681.901 55.8281 682.172 55.9401 682.391 56.1641C682.615 56.388 682.727 56.6589 682.727 56.9766C682.727 57.2943 682.615 57.5651 682.391 57.7891C682.172 58.0078 681.901 58.1172 681.578 58.1172Z" fill="#111827"/>
</svg>
