<svg width="280" height="161" viewBox="0 0 280 161" fill="none" xmlns="http://www.w3.org/2000/svg">
<rect width="280" height="160" transform="translate(0 0.910156)" fill="#FAFAFA"/>
<rect x="30" y="60.9102" width="40" height="40" rx="4" fill="#3B82F6"/>
<path d="M61.1473 71.4971L56.2102 69.1219C55.6357 68.8444 54.9524 68.9614 54.5032 69.4106L45.0467 78.0391L40.9256 74.914C40.5431 74.6207 40.0039 74.6447 39.6484 74.9687L38.3284 76.1717C37.8912 76.5662 37.8912 77.2539 38.3246 77.6484L41.8991 80.9101L38.3246 84.1717C37.8912 84.5662 37.8912 85.2539 38.3284 85.6484L39.6484 86.8514C40.0076 87.1754 40.5431 87.1994 40.9256 86.9061L45.0467 83.7772L54.5077 92.4095C54.9532 92.8587 55.6364 92.9757 56.2109 92.6982L61.1525 90.3193C61.6723 90.0696 62 89.5461 62 88.9678V72.847C62 72.2725 61.6678 71.7453 61.1488 71.4956L61.1473 71.4971ZM56.0024 86.3602L48.8229 80.9108L56.0024 75.4615V86.3602Z" fill="white"/>
<rect x="78" y="60.9102" width="40" height="40" rx="4" fill="#3B82F6"/>
<path fill-rule="evenodd" clip-rule="evenodd" d="M86 68.9102H110V92.9102H86V68.9102ZM97.2798 88.41H88.2798V89.91H97.2798V88.41ZM94.6998 72.03V73.83H93.3198V80.13H94.6998V81.99H89.7798V80.13H91.1598V73.83H89.7798V72.03H94.6998ZM97.5198 81.69C98.1333 81.9963 98.8148 82.1409 99.4998 82.11C100.346 82.0671 101.16 81.7748 101.84 81.27C102.232 80.9121 102.522 80.4566 102.68 79.95C102.861 79.4507 102.943 78.9207 102.92 78.39V71.91H100.7V78.33C100.747 78.7807 100.618 79.2321 100.34 79.59C100.11 79.8809 99.7498 80.0383 99.3798 80.01C99.0435 80.0236 98.7103 79.9403 98.4198 79.77C98.1112 79.5656 97.829 79.3238 97.5798 79.05L96.1998 80.61C96.5706 81.0471 97.0179 81.4131 97.5198 81.69Z" fill="white"/>
<rect x="126" y="60.9102" width="40" height="40" rx="4" fill="#3B82F6"/>
<path fill-rule="evenodd" clip-rule="evenodd" d="M155.858 74.1171L150.676 68.9102V82.2411L155.011 88.76L155.893 87.803L155.858 74.1171ZM141.218 68.9111L154.508 89.191L150.789 92.91L137.492 72.6751L141.218 68.9111ZM141.324 92.9102L136.142 87.7032L136.107 74.0173L136.989 73.0603L141.324 79.5792V92.9102Z" fill="white"/>
<path d="M174 60.9102V100.91" stroke="#D4D4D8"/>
<rect x="183" y="60.9102" width="67" height="40" rx="4" fill="#EEEEF0"/>
<path d="M189.254 84.9102L191.896 77.6348H192.97L195.646 84.9102H194.669L193.126 80.5938C193.032 80.3268 192.921 79.9948 192.794 79.5977C192.67 79.1973 192.519 78.6878 192.34 78.0693H192.516C192.34 78.6943 192.187 79.2103 192.057 79.6172C191.93 80.0208 191.824 80.3464 191.739 80.5938L190.24 84.9102H189.254ZM190.582 82.8789V82.0684H194.317V82.8789H190.582ZM197.555 81.6387V84.9102H196.676V79.4512H197.521L197.525 80.7744H197.403C197.569 80.2699 197.805 79.9118 198.111 79.7002C198.421 79.4886 198.782 79.3828 199.195 79.3828C199.563 79.3828 199.885 79.4593 200.162 79.6123C200.439 79.762 200.654 79.9899 200.807 80.2959C200.963 80.5986 201.041 80.9811 201.041 81.4434V84.9102H200.162V81.5166C200.162 81.0967 200.051 80.7679 199.83 80.5303C199.612 80.2926 199.312 80.1738 198.932 80.1738C198.671 80.1738 198.437 80.2308 198.229 80.3447C198.02 80.4587 197.856 80.6247 197.735 80.8428C197.615 81.0609 197.555 81.3262 197.555 81.6387ZM204.63 85.0273C204.177 85.0273 203.777 84.9118 203.429 84.6807C203.08 84.4495 202.809 84.1224 202.613 83.6992C202.418 83.276 202.32 82.7747 202.32 82.1953C202.32 81.6191 202.418 81.1211 202.613 80.7012C202.812 80.278 203.085 79.9525 203.434 79.7246C203.782 79.4967 204.182 79.3828 204.635 79.3828C204.99 79.3828 205.271 79.4414 205.479 79.5586C205.688 79.6758 205.847 79.8092 205.958 79.959C206.072 80.1055 206.158 80.2275 206.217 80.3252H206.285V77.6348H207.164V84.9102H206.314V84.0654H206.217C206.158 84.1663 206.07 84.2933 205.953 84.4463C205.839 84.596 205.676 84.7311 205.465 84.8516C205.257 84.9688 204.978 85.0273 204.63 85.0273ZM204.762 84.2412C205.094 84.2412 205.374 84.1549 205.602 83.9824C205.829 83.8066 206.002 83.5641 206.119 83.2549C206.236 82.9456 206.295 82.5892 206.295 82.1855C206.295 81.7819 206.236 81.4303 206.119 81.1309C206.005 80.8281 205.834 80.5921 205.606 80.4229C205.379 80.2536 205.097 80.1689 204.762 80.1689C204.417 80.1689 204.129 80.2585 203.897 80.4375C203.67 80.6165 203.499 80.859 203.385 81.165C203.271 81.4678 203.214 81.8079 203.214 82.1855C203.214 82.5664 203.271 82.9131 203.385 83.2256C203.502 83.5348 203.676 83.7822 203.907 83.9678C204.138 84.1501 204.423 84.2412 204.762 84.2412ZM211.52 84.9102V79.4512H212.374L212.379 80.6719H212.311C212.385 80.3757 212.503 80.1315 212.662 79.9395C212.825 79.7441 213.014 79.5977 213.229 79.5C213.447 79.4023 213.673 79.3535 213.907 79.3535C214.304 79.3535 214.625 79.4756 214.869 79.7197C215.117 79.9639 215.276 80.2845 215.348 80.6816H215.23C215.296 80.4082 215.414 80.1722 215.587 79.9736C215.759 79.7751 215.968 79.6221 216.212 79.5146C216.459 79.4072 216.728 79.3535 217.018 79.3535C217.333 79.3535 217.621 79.4219 217.882 79.5586C218.142 79.6953 218.349 79.902 218.502 80.1787C218.658 80.4554 218.736 80.8053 218.736 81.2285V84.9102H217.853V81.2529C217.853 80.859 217.742 80.5775 217.521 80.4082C217.302 80.2389 217.047 80.1543 216.754 80.1543C216.51 80.1543 216.298 80.2064 216.119 80.3105C215.943 80.4115 215.807 80.5514 215.709 80.7305C215.615 80.9095 215.567 81.1146 215.567 81.3457V84.9102H214.688V81.165C214.688 80.8623 214.588 80.6182 214.386 80.4326C214.184 80.2471 213.928 80.1543 213.619 80.1543C213.408 80.1543 213.207 80.2048 213.019 80.3057C212.833 80.4033 212.683 80.5498 212.569 80.7451C212.455 80.9404 212.398 81.1829 212.398 81.4727V84.9102H211.52ZM222.501 85.0273C222.006 85.0273 221.572 84.9102 221.197 84.6758C220.826 84.4414 220.536 84.1126 220.328 83.6895C220.12 83.2663 220.016 82.7747 220.016 82.2148C220.016 81.6452 220.12 81.1488 220.328 80.7256C220.536 80.2992 220.826 79.9688 221.197 79.7344C221.572 79.5 222.006 79.3828 222.501 79.3828C222.999 79.3828 223.435 79.5 223.81 79.7344C224.184 79.9688 224.475 80.2992 224.684 80.7256C224.892 81.1488 224.996 81.6452 224.996 82.2148C224.996 82.7747 224.892 83.2663 224.684 83.6895C224.475 84.1126 224.184 84.4414 223.81 84.6758C223.435 84.9102 222.999 85.0273 222.501 85.0273ZM222.501 84.2412C222.869 84.2412 223.172 84.1468 223.409 83.958C223.647 83.7692 223.823 83.5218 223.937 83.2158C224.05 82.9066 224.107 82.5729 224.107 82.2148C224.107 81.8535 224.05 81.5182 223.937 81.209C223.823 80.8965 223.647 80.6458 223.409 80.457C223.172 80.265 222.869 80.1689 222.501 80.1689C222.136 80.1689 221.837 80.265 221.603 80.457C221.368 80.6458 221.194 80.8949 221.08 81.2041C220.966 81.5133 220.909 81.8503 220.909 82.2148C220.909 82.5729 220.966 82.9066 221.08 83.2158C221.194 83.5218 221.368 83.7692 221.603 83.958C221.837 84.1468 222.136 84.2412 222.501 84.2412ZM226.275 84.9102V79.4512H227.125V80.291H227.184C227.285 80.0143 227.464 79.793 227.721 79.627C227.981 79.4577 228.274 79.373 228.6 79.373C228.665 79.373 228.741 79.3747 228.829 79.3779C228.92 79.3812 228.992 79.3844 229.044 79.3877V80.2715C229.018 80.265 228.953 80.2552 228.849 80.2422C228.744 80.2292 228.634 80.2227 228.517 80.2227C228.256 80.2227 228.022 80.278 227.813 80.3887C227.608 80.4961 227.447 80.6458 227.33 80.8379C227.213 81.0267 227.154 81.2448 227.154 81.4922V84.9102H226.275ZM232.174 85.0273C231.646 85.0273 231.191 84.9102 230.807 84.6758C230.426 84.4414 230.131 84.1143 229.923 83.6943C229.718 83.2744 229.615 82.7845 229.615 82.2246C229.615 81.6647 229.716 81.1715 229.918 80.7451C230.12 80.3187 230.405 79.985 230.772 79.7441C231.144 79.5033 231.576 79.3828 232.071 79.3828C232.361 79.3828 232.646 79.4316 232.926 79.5293C233.209 79.6237 233.465 79.7783 233.692 79.9932C233.924 80.2048 234.107 80.4847 234.244 80.833C234.381 81.1813 234.449 81.6077 234.449 82.1123V82.4785H230.211V81.7363H233.976L233.565 82.0098C233.565 81.6517 233.508 81.3343 233.395 81.0576C233.284 80.7777 233.118 80.5596 232.896 80.4033C232.675 80.2438 232.4 80.1641 232.071 80.1641C231.743 80.1641 231.461 80.2454 231.227 80.4082C230.992 80.5677 230.813 80.7777 230.689 81.0381C230.566 81.2952 230.504 81.5719 230.504 81.8682V82.3613C230.504 82.765 230.574 83.1084 230.714 83.3916C230.854 83.6715 231.049 83.8848 231.3 84.0312C231.554 84.1745 231.847 84.2461 232.179 84.2461C232.394 84.2461 232.589 84.2152 232.765 84.1533C232.94 84.0915 233.092 83.9987 233.219 83.875C233.346 83.748 233.443 83.5918 233.512 83.4062L234.361 83.6406C234.277 83.9141 234.133 84.1549 233.932 84.3633C233.73 84.5716 233.479 84.7344 233.18 84.8516C232.883 84.9688 232.548 85.0273 232.174 85.0273ZM236.378 84.9736C236.196 84.9736 236.039 84.9102 235.909 84.7832C235.782 84.653 235.719 84.4967 235.719 84.3145C235.719 84.1322 235.782 83.9775 235.909 83.8506C236.039 83.7204 236.196 83.6553 236.378 83.6553C236.56 83.6553 236.715 83.7204 236.842 83.8506C236.972 83.9775 237.037 84.1322 237.037 84.3145C237.037 84.4967 236.972 84.653 236.842 84.7832C236.715 84.9102 236.56 84.9736 236.378 84.9736ZM239.259 84.9736C239.076 84.9736 238.92 84.9102 238.79 84.7832C238.663 84.653 238.6 84.4967 238.6 84.3145C238.6 84.1322 238.663 83.9775 238.79 83.8506C238.92 83.7204 239.076 83.6553 239.259 83.6553C239.441 83.6553 239.596 83.7204 239.723 83.8506C239.853 83.9775 239.918 84.1322 239.918 84.3145C239.918 84.4967 239.853 84.653 239.723 84.7832C239.596 84.9102 239.441 84.9736 239.259 84.9736ZM242.14 84.9736C241.957 84.9736 241.801 84.9102 241.671 84.7832C241.544 84.653 241.48 84.4967 241.48 84.3145C241.48 84.1322 241.544 83.9775 241.671 83.8506C241.801 83.7204 241.957 83.6553 242.14 83.6553C242.322 83.6553 242.477 83.7204 242.604 83.8506C242.734 83.9775 242.799 84.1322 242.799 84.3145C242.799 84.4967 242.734 84.653 242.604 84.7832C242.477 84.9102 242.322 84.9736 242.14 84.9736Z" fill="#111827"/>
</svg>
