<svg width="816" height="430" viewBox="0 0 816 430" fill="none" xmlns="http://www.w3.org/2000/svg">
<g filter="url(#filter0_dd_622_125195)">
<rect x="708.799" y="315.279" width="88.2998" height="88.2998" rx="44.1499" fill="#091842"/>
<path d="M750.535 374.756H755.363" stroke="#60A5FA" stroke-width="2" stroke-linecap="round" stroke-linejoin="round"/>
<path d="M740.641 345.584H765.257" stroke="#60A5FA" stroke-width="2" stroke-linecap="round" stroke-linejoin="round"/>
<path d="M740.641 370.07H765.257" stroke="#60A5FA" stroke-width="2" stroke-linecap="round" stroke-linejoin="round"/>
<path d="M740.641 341.43C740.641 340.325 741.537 339.43 742.641 339.43H763.256C764.361 339.43 765.257 340.325 765.257 341.43V377.43C765.257 378.534 764.361 379.43 763.257 379.43H742.641C741.537 379.43 740.641 378.534 740.641 377.43V341.43Z" stroke="#60A5FA" stroke-width="2" stroke-linejoin="round"/>
</g>
<g filter="url(#filter1_dd_622_125195)">
<rect x="708.799" y="164.85" width="88.2998" height="88.2998" rx="44.1499" fill="#091842"/>
<path d="M732.949 191.727H772.949V218.999H732.949V191.727Z" stroke="#60A5FA" stroke-width="2" stroke-linejoin="round"/>
<path d="M732.949 226.271L772.949 226.271" stroke="#60A5FA" stroke-width="2" stroke-linecap="round"/>
<ellipse cx="752.949" cy="197.181" rx="1.81818" ry="1.81818" fill="#60A5FA"/>
</g>
<g filter="url(#filter2_dd_622_125195)">
<rect x="708.8" y="14.4199" width="88.2998" height="88.2998" rx="44.1499" fill="#091842"/>
<path d="M750.092 74.2832H741.521" stroke="#60A5FA" stroke-width="2" stroke-linecap="round" stroke-linejoin="round"/>
<path d="M767.235 48.5703H761.521" stroke="#60A5FA" stroke-width="2" stroke-linecap="round" stroke-linejoin="round"/>
<path d="M767.235 54.2832H761.521" stroke="#60A5FA" stroke-width="2" stroke-linecap="round" stroke-linejoin="round"/>
<path d="M771.521 42.8555H757.235C756.446 42.8555 755.807 43.4951 755.807 44.284V72.8555C755.807 73.6445 756.446 74.284 757.235 74.284H771.521C772.31 74.284 772.949 73.6445 772.949 72.8555V44.284C772.949 43.4951 772.31 42.8555 771.521 42.8555Z" stroke="#60A5FA" stroke-width="2" stroke-linecap="round" stroke-linejoin="round"/>
<path d="M745.807 68.5703V74.2846" stroke="#60A5FA" stroke-width="2" stroke-linecap="round" stroke-linejoin="round"/>
<path d="M764.378 69.9986C765.562 69.9986 766.521 69.0392 766.521 67.8557C766.521 66.6723 765.562 65.7129 764.378 65.7129C763.195 65.7129 762.235 66.6723 762.235 67.8557C762.235 69.0392 763.195 69.9986 764.378 69.9986Z" fill="#60A5FA"/>
<path d="M751.521 49.998H732.95V68.5695H751.521" stroke="#60A5FA" stroke-width="2" stroke-linecap="round" stroke-linejoin="round"/>
</g>
<path d="M693.153 364.674C693.153 367.62 695.54 370.008 698.486 370.008C701.431 370.008 703.819 367.62 703.819 364.674C703.819 361.729 701.431 359.341 698.486 359.341C695.54 359.341 693.153 361.729 693.153 364.674ZM512.007 216.441L512.788 215.816L512.007 216.441ZM624.631 357.171L623.85 357.796L624.631 357.171ZM339.952 209.938H342.96V207.938H339.952V209.938ZM348.977 209.938H354.994V207.938H348.977V209.938ZM361.011 209.938H367.028V207.938H361.011V209.938ZM373.045 209.938H379.062V207.938H373.045V209.938ZM385.079 209.938H391.096V207.938H385.079V209.938ZM397.113 209.938H403.13V207.938H397.113V209.938ZM409.146 209.938H415.163V207.938H409.146V209.938ZM421.18 209.938H427.197V207.938H421.18V209.938ZM433.214 209.938H439.231V207.938H433.214V209.938ZM445.248 209.938H451.265V207.938H445.248V209.938ZM457.282 209.938H463.299V207.938H457.282V209.938ZM469.316 209.938H475.333V207.938H469.316V209.938ZM481.35 209.938H487.367V207.938H481.35V209.938ZM493.384 209.938H496.392V207.938H493.384V209.938ZM496.392 209.938C497.826 209.938 499.241 210.099 500.612 210.412L501.056 208.462C499.54 208.116 497.977 207.938 496.392 207.938V209.938ZM508.219 214.067C509.32 214.943 510.331 215.946 511.227 217.066L512.788 215.816C511.798 214.579 510.681 213.47 509.464 212.502L508.219 214.067ZM511.227 217.066L513.104 219.411L514.665 218.162L512.788 215.816L511.227 217.066ZM516.858 224.102L520.612 228.793L522.173 227.544L518.419 222.853L516.858 224.102ZM524.366 233.484L528.12 238.175L529.682 236.926L525.927 232.235L524.366 233.484ZM531.874 242.866L535.628 247.557L537.19 246.308L533.436 241.617L531.874 242.866ZM539.382 252.248L543.137 256.939L544.698 255.69L540.944 250.999L539.382 252.248ZM546.891 261.63L550.645 266.321L552.206 265.072L548.452 260.381L546.891 261.63ZM554.399 271.012L558.153 275.703L559.714 274.454L555.96 269.763L554.399 271.012ZM561.907 280.394L565.661 285.085L567.223 283.836L563.469 279.145L561.907 280.394ZM569.415 289.776L573.169 294.467L574.731 293.218L570.977 288.527L569.415 289.776ZM576.923 299.158L580.678 303.849L582.239 302.6L578.485 297.909L576.923 299.158ZM584.432 308.54L588.186 313.231L589.747 311.982L585.993 307.291L584.432 308.54ZM591.94 317.922L595.694 322.613L597.256 321.364L593.501 316.673L591.94 317.922ZM599.448 327.304L603.202 331.995L604.764 330.746L601.01 326.055L599.448 327.304ZM606.956 336.686L610.71 341.377L612.272 340.128L608.518 335.437L606.956 336.686ZM614.465 346.068L618.219 350.759L619.78 349.51L616.026 344.819L614.465 346.068ZM621.973 355.45L623.85 357.796L625.411 356.546L623.534 354.201L621.973 355.45ZM623.85 357.796C624.84 359.033 625.957 360.142 627.174 361.11L628.418 359.545C627.318 358.669 626.307 357.666 625.411 356.546L623.85 357.796ZM635.582 365.15C637.098 365.495 638.661 365.674 640.246 365.674V363.674C638.812 363.674 637.397 363.512 636.026 363.2L635.582 365.15ZM640.246 365.674H643.158V363.674H640.246V365.674ZM648.982 365.674H654.806V363.674H648.982V365.674ZM660.63 365.674H666.454V363.674H660.63V365.674ZM672.278 365.674H678.102V363.674H672.278V365.674ZM683.926 365.674H689.75V363.674H683.926V365.674ZM695.574 365.674H698.486V363.674H695.574V365.674Z" fill="#E4E4E7"/>
<path d="M693.83 62.0486C693.83 59.103 696.218 56.7152 699.164 56.7152C702.109 56.7152 704.497 59.103 704.497 62.0486C704.497 64.9941 702.109 67.3819 699.164 67.3819C696.218 67.3819 693.83 64.9941 693.83 62.0486ZM511.998 201.784L511.231 201.141L511.998 201.784ZM623.103 69.2025L623.87 69.8448L623.103 69.2025ZM339.952 207.938H342.965V209.938H339.952V207.938ZM348.993 207.938H355.021V209.938H348.993V207.938ZM361.048 207.938H367.076V209.938H361.048V207.938ZM373.103 207.938H379.131V209.938H373.103V207.938ZM385.158 207.938H391.186V209.938H385.158V207.938ZM397.214 207.938H403.241V209.938H397.214V207.938ZM409.269 207.938H415.296V209.938H409.269V207.938ZM421.324 207.938H427.352V209.938H421.324V207.938ZM433.379 207.938H439.407V209.938H433.379V207.938ZM445.434 207.938H451.462V209.938H445.434V207.938ZM457.489 207.938H463.517V209.938H457.489V207.938ZM469.545 207.938H475.572V209.938H469.545V207.938ZM481.6 207.938H487.627V209.938H481.6V207.938ZM493.655 207.938H496.669V209.938H493.655V207.938ZM496.669 207.938C498.066 207.938 499.445 207.784 500.784 207.487L501.217 209.439C499.737 209.768 498.213 209.938 496.669 209.938V207.938ZM508.242 204.006C509.33 203.17 510.334 202.212 511.231 201.141L512.764 202.426C511.772 203.609 510.663 204.668 509.461 205.592L508.242 204.006ZM511.231 201.141L513.215 198.774L514.748 200.058L512.764 202.426L511.231 201.141ZM517.183 194.039L521.151 189.304L522.684 190.588L518.716 195.323L517.183 194.039ZM525.119 184.569L529.087 179.834L530.62 181.118L526.652 185.853L525.119 184.569ZM533.056 175.099L537.024 170.364L538.557 171.648L534.588 176.383L533.056 175.099ZM540.992 165.628L544.96 160.893L546.493 162.178L542.525 166.913L540.992 165.628ZM548.928 156.158L552.896 151.423L554.429 152.708L550.461 157.443L548.928 156.158ZM556.864 146.688L560.832 141.953L562.365 143.238L558.397 147.973L556.864 146.688ZM564.8 137.218L568.768 132.483L570.301 133.768L566.333 138.503L564.8 137.218ZM572.736 127.748L576.704 123.013L578.237 124.298L574.269 129.033L572.736 127.748ZM580.672 118.278L584.64 113.543L586.173 114.828L582.205 119.563L580.672 118.278ZM588.608 108.808L592.576 104.073L594.109 105.358L590.141 110.093L588.608 108.808ZM596.545 99.3379L600.513 94.6029L602.046 95.8875L598.077 100.623L596.545 99.3379ZM604.481 89.8679L608.449 85.1328L609.982 86.4174L606.014 91.1525L604.481 89.8679ZM612.417 80.3978L616.385 75.6628L617.918 76.9474L613.95 81.6824L612.417 80.3978ZM620.353 70.9277L622.337 68.5602L623.87 69.8448L621.886 72.2123L620.353 70.9277ZM622.337 68.5602C623.329 67.3769 624.438 66.3177 625.64 65.3941L626.859 66.9802C625.771 67.8158 624.767 68.7741 623.87 69.8448L622.337 68.5602ZM633.884 61.5469C635.364 61.2184 636.889 61.0486 638.432 61.0486V63.0486C637.035 63.0486 635.656 63.2023 634.317 63.4994L633.884 61.5469ZM638.432 61.0486H641.469V63.0486H638.432V61.0486ZM647.542 61.0486H653.615V63.0486H647.542V61.0486ZM659.688 61.0486H665.761V63.0486H659.688V61.0486ZM671.835 61.0486H677.908V63.0486H671.835V61.0486ZM683.981 61.0486H690.054V63.0486H683.981V61.0486ZM696.127 61.0486H699.164V63.0486H696.127V61.0486Z" fill="#E4E4E7"/>
<path d="M701.486 209.002C701.486 206.056 699.099 203.668 696.153 203.667C693.208 203.666 690.82 206.053 690.819 208.998C690.819 211.944 693.207 214.332 696.153 214.333C699.098 214.334 701.486 211.947 701.486 209.002ZM696.153 208L693.211 207.999L693.211 209.999L696.153 210L696.153 208ZM687.328 207.997L681.445 207.995L681.445 209.995L687.328 209.997L687.328 207.997ZM675.561 207.993L669.678 207.992L669.678 209.992L675.561 209.993L675.561 207.993ZM663.795 207.99L657.912 207.988L657.911 209.988L663.795 209.99L663.795 207.99ZM652.028 207.986L646.145 207.984L646.145 209.984L652.028 209.986L652.028 207.986ZM640.262 207.982L634.378 207.98L634.378 209.98L640.262 209.982L640.262 207.982ZM628.495 207.979L622.612 207.977L622.612 209.977L628.495 209.979L628.495 207.979ZM616.729 207.975L610.845 207.973L610.845 209.973L616.729 209.975L616.729 207.975ZM604.962 207.971L599.079 207.969L599.079 209.969L604.962 209.971L604.962 207.971ZM593.196 207.967L587.312 207.966L587.312 209.966L593.195 209.967L593.196 207.967ZM581.429 207.964L575.546 207.962L575.546 209.962L581.429 209.964L581.429 207.964ZM569.662 207.96L563.779 207.958L563.779 209.958L569.662 209.96L569.662 207.96ZM557.896 207.956L552.013 207.954L552.013 209.954L557.896 209.956L557.896 207.956ZM546.129 207.953L543.188 207.952L543.188 209.952L546.129 209.953L546.129 207.953ZM543.188 207.952L540.093 207.951L540.093 209.951L543.188 209.952L543.188 207.952ZM533.904 207.949L527.715 207.947L527.715 209.947L533.904 209.949L533.904 207.949ZM521.526 207.945L515.337 207.943L515.337 209.943L521.526 209.945L521.526 207.945ZM509.148 207.941L506.054 207.94L506.053 209.94L509.148 209.941L509.148 207.941Z" fill="#E4E4E7"/>
<rect x="784.899" y="43.6582" width="29.8214" height="29.8214" rx="14.9107" fill="#1D4ED8"/>
<rect x="784.899" y="43.6582" width="29.8214" height="29.8214" rx="14.9107" stroke="#60A5FA"/>
<path fill-rule="evenodd" clip-rule="evenodd" d="M800.749 50.9204L799.38 50.6075C799.482 50.6075 799.592 50.6 799.716 50.5916C799.876 50.5808 800.059 50.5684 800.28 50.5684C801.101 50.5684 801.766 50.8422 802.392 51.1943C802.479 51.2375 802.553 51.3286 802.629 51.4213C802.69 51.4962 802.752 51.5721 802.822 51.6246C803.135 51.742 803.448 51.8202 803.761 51.7811V51.6637C804.113 51.742 804.465 52.1332 804.465 52.407H802.861C802.822 52.407 802.744 52.4461 802.705 52.4852C802.744 52.5244 802.822 52.6026 802.861 52.6026C802.935 52.6026 803.016 52.6004 803.101 52.5981C803.375 52.5907 803.697 52.582 803.996 52.6417C803.99 52.6508 803.985 52.6603 803.979 52.6703C803.857 52.8757 803.631 53.255 803.37 52.9938C803.37 52.9156 801.844 52.9547 801.453 53.0329C801.375 53.0329 801.297 53.1894 801.336 53.2676C801.511 53.6931 801.926 53.9584 802.315 54.2071C802.535 54.3471 802.746 54.4818 802.901 54.6368C803.996 55.4975 804.348 56.2799 804.113 57.7664C803.525 60.0834 802.601 60.4745 800.8 61.2366C800.564 61.3366 800.313 61.4431 800.045 61.5611C799.38 61.874 798.989 62.6173 799.106 63.3606C799.38 64.9645 801.923 65.3948 802.431 63.5171C802.588 62.7738 802.392 61.7176 800.984 61.4046C801.61 61.1308 802.196 60.8178 802.744 60.4657C802.822 60.3875 802.901 60.3875 802.979 60.4657C804.544 61.9132 804.935 64.5733 802.353 66.1381C800.514 67.1552 798.206 66.2946 797.463 64.3386C796.72 62.3435 797.893 60.1919 799.967 59.7616C801.453 59.5268 802.979 57.962 802.314 56.5146C802.019 55.8651 801.166 55.2156 800.446 54.667C800.212 54.4886 799.992 54.321 799.81 54.1674C799.707 54.1056 799.539 54.1198 799.351 54.1356C799.183 54.1498 798.999 54.1653 798.832 54.1283C798.91 54.0696 798.958 54.0112 799.005 53.9528C799.053 53.8943 799.101 53.8359 799.179 53.7773C798.827 53.5606 798.609 53.5309 798.339 53.4942C798.219 53.4779 798.089 53.4602 797.932 53.4241C798.05 53.1894 798.556 52.9161 798.908 52.877C798.897 52.7748 798.89 52.6867 798.884 52.6097C798.846 52.1262 798.842 52.0794 798.167 51.742C798.568 51.4743 798.923 51.5336 799.268 51.5913C799.628 51.6515 799.978 51.7099 800.358 51.3899C799.888 51.2334 799.419 51.0769 798.989 50.8031C799.209 50.8178 799.426 50.8568 799.641 50.8957C800 50.9603 800.356 51.0244 800.722 50.9755L800.749 50.9204ZM797.463 60.9743C795.585 59.8007 795.468 56.8276 797.58 55.5366C799.145 54.5586 800.905 54.9107 802.079 56.632C802.236 56.9058 802.236 57.3361 802.157 57.6491C801.844 58.7053 801.062 59.2921 800.006 59.5268C800.319 59.2921 800.553 58.94 800.632 58.5488C800.984 56.3581 797.58 56.1234 797.737 58.4706C797.698 59.1356 798.206 59.6051 799.184 59.7616C798.676 60.0745 798.245 60.3484 797.776 60.9352C797.698 61.0525 797.619 61.0525 797.463 60.9743ZM796.991 62.6715C796.389 62.7841 795.754 62.9029 795.155 63.165C795.429 62.0305 796.407 61.2481 797.58 61.2481C797.267 61.6393 797.111 62.1479 797.072 62.6564C797.045 62.6615 797.018 62.6665 796.991 62.6715ZM802.038 51.8736L802.155 51.991L801.999 52.0692C801.921 52.1083 801.881 52.0692 801.842 52.0301C801.764 51.9127 801.999 51.8345 802.038 51.8736Z" fill="#EEEEF0"/>
<rect x="784.899" y="194.09" width="29.8214" height="29.8214" rx="14.9107" fill="#1D4ED8"/>
<rect x="784.899" y="194.09" width="29.8214" height="29.8214" rx="14.9107" stroke="#60A5FA"/>
<path fill-rule="evenodd" clip-rule="evenodd" d="M800.749 201.352L799.38 201.039C799.482 201.039 799.592 201.032 799.716 201.023C799.876 201.012 800.059 201 800.28 201C801.101 201 801.766 201.274 802.392 201.626C802.479 201.669 802.553 201.76 802.629 201.853C802.69 201.928 802.752 202.004 802.822 202.056C803.135 202.174 803.448 202.252 803.761 202.213V202.095C804.113 202.174 804.465 202.565 804.465 202.839H802.861C802.822 202.839 802.744 202.878 802.705 202.917C802.744 202.956 802.822 203.034 802.861 203.034C802.935 203.034 803.016 203.032 803.101 203.03C803.375 203.022 803.697 203.014 803.996 203.073C803.99 203.082 803.985 203.092 803.979 203.102C803.857 203.307 803.631 203.687 803.37 203.425C803.37 203.347 801.844 203.386 801.453 203.465C801.375 203.465 801.297 203.621 801.336 203.699C801.511 204.125 801.926 204.39 802.315 204.639C802.535 204.779 802.746 204.913 802.901 205.068C803.996 205.929 804.348 206.712 804.113 208.198C803.525 210.515 802.601 210.906 800.8 211.668C800.564 211.768 800.313 211.875 800.045 211.993C799.38 212.306 798.989 213.049 799.106 213.792C799.38 215.396 801.923 215.826 802.431 213.949C802.588 213.205 802.392 212.149 800.984 211.836C801.61 211.562 802.196 211.249 802.744 210.897C802.822 210.819 802.901 210.819 802.979 210.897C804.544 212.345 804.935 215.005 802.353 216.57C800.514 217.587 798.206 216.726 797.463 214.77C796.72 212.775 797.893 210.624 799.967 210.193C801.453 209.958 802.979 208.394 802.314 206.946C802.019 206.297 801.166 205.647 800.446 205.099C800.212 204.92 799.992 204.753 799.81 204.599C799.707 204.537 799.539 204.551 799.351 204.567C799.183 204.581 798.999 204.597 798.832 204.56C798.91 204.501 798.958 204.443 799.005 204.384C799.053 204.326 799.101 204.268 799.179 204.209C798.827 203.992 798.609 203.963 798.339 203.926C798.219 203.91 798.089 203.892 797.932 203.856C798.05 203.621 798.556 203.348 798.908 203.309C798.897 203.206 798.89 203.118 798.884 203.041C798.846 202.558 798.842 202.511 798.167 202.174C798.568 201.906 798.923 201.965 799.268 202.023C799.628 202.083 799.978 202.142 800.358 201.822C799.888 201.665 799.419 201.509 798.989 201.235C799.209 201.249 799.426 201.288 799.641 201.327C800 201.392 800.356 201.456 800.722 201.407L800.749 201.352ZM797.463 211.406C795.585 210.232 795.468 207.259 797.58 205.968C799.145 204.99 800.905 205.342 802.079 207.064C802.236 207.337 802.236 207.768 802.157 208.081C801.844 209.137 801.062 209.724 800.006 209.958C800.319 209.724 800.553 209.372 800.632 208.98C800.984 206.79 797.58 206.555 797.737 208.902C797.698 209.567 798.206 210.037 799.184 210.193C798.676 210.506 798.245 210.78 797.776 211.367C797.698 211.484 797.619 211.484 797.463 211.406ZM796.991 213.103C796.389 213.216 795.754 213.335 795.155 213.597C795.429 212.462 796.407 211.68 797.58 211.68C797.267 212.071 797.111 212.58 797.072 213.088C797.045 213.093 797.018 213.098 796.991 213.103ZM802.038 202.305L802.155 202.423L801.999 202.501C801.921 202.54 801.881 202.501 801.842 202.462C801.764 202.344 801.999 202.266 802.038 202.305Z" fill="#EEEEF0"/>
<rect x="784.899" y="344.52" width="29.8214" height="29.8214" rx="14.9107" fill="#1D4ED8"/>
<rect x="784.899" y="344.52" width="29.8214" height="29.8214" rx="14.9107" stroke="#60A5FA"/>
<path fill-rule="evenodd" clip-rule="evenodd" d="M800.749 351.782L799.38 351.469C799.482 351.469 799.592 351.461 799.716 351.453C799.876 351.442 800.059 351.43 800.28 351.43C801.101 351.43 801.766 351.704 802.392 352.056C802.479 352.099 802.553 352.19 802.629 352.283C802.69 352.358 802.752 352.433 802.822 352.486C803.135 352.603 803.448 352.682 803.761 352.642V352.525C804.113 352.603 804.465 352.994 804.465 353.268H802.861C802.822 353.268 802.744 353.307 802.705 353.347C802.744 353.386 802.822 353.464 802.861 353.464C802.935 353.464 803.016 353.462 803.101 353.459C803.375 353.452 803.697 353.443 803.996 353.503C803.99 353.512 803.985 353.522 803.979 353.532C803.857 353.737 803.631 354.116 803.37 353.855C803.37 353.777 801.844 353.816 801.453 353.894C801.375 353.894 801.297 354.051 801.336 354.129C801.511 354.554 801.926 354.82 802.315 355.068C802.535 355.208 802.746 355.343 802.901 355.498C803.996 356.359 804.348 357.141 804.113 358.628C803.525 360.945 802.601 361.336 800.8 362.098C800.564 362.198 800.313 362.304 800.045 362.422C799.38 362.735 798.989 363.479 799.106 364.222C799.38 365.826 801.923 366.256 802.431 364.378C802.588 363.635 802.392 362.579 800.984 362.266C801.61 361.992 802.196 361.679 802.744 361.327C802.822 361.249 802.901 361.249 802.979 361.327C804.544 362.774 804.935 365.435 802.353 366.999C800.514 368.017 798.206 367.156 797.463 365.2C796.72 363.205 797.893 361.053 799.967 360.623C801.453 360.388 802.979 358.823 802.314 357.376C802.019 356.726 801.166 356.077 800.446 355.528C800.212 355.35 799.992 355.182 799.81 355.029C799.707 354.967 799.539 354.981 799.351 354.997C799.183 355.011 798.999 355.027 798.832 354.99C798.91 354.931 798.958 354.873 799.005 354.814C799.053 354.756 799.101 354.697 799.179 354.639C798.827 354.422 798.609 354.392 798.339 354.356C798.219 354.339 798.089 354.322 797.932 354.285C798.05 354.051 798.556 353.777 798.908 353.738C798.897 353.636 798.89 353.548 798.884 353.471C798.846 352.987 798.842 352.941 798.167 352.603C798.568 352.336 798.923 352.395 799.268 352.453C799.628 352.513 799.978 352.571 800.358 352.251C799.888 352.095 799.419 351.938 798.989 351.664C799.209 351.679 799.426 351.718 799.641 351.757C800 351.822 800.356 351.886 800.722 351.837L800.749 351.782ZM797.463 361.836C795.585 360.662 795.468 357.689 797.58 356.398C799.145 355.42 800.905 355.772 802.079 357.493C802.236 357.767 802.236 358.197 802.157 358.51C801.844 359.567 801.062 360.153 800.006 360.388C800.319 360.153 800.553 359.801 800.632 359.41C800.984 357.219 797.58 356.985 797.737 359.332C797.698 359.997 798.206 360.466 799.184 360.623C798.676 360.936 798.245 361.21 797.776 361.796C797.698 361.914 797.619 361.914 797.463 361.836ZM796.991 363.533C796.389 363.645 795.754 363.764 795.155 364.026C795.429 362.892 796.407 362.109 797.58 362.109C797.267 362.501 797.111 363.009 797.072 363.518C797.045 363.523 797.018 363.528 796.991 363.533ZM802.038 352.735L802.155 352.852L801.999 352.931C801.921 352.97 801.881 352.931 801.842 352.891C801.764 352.774 801.999 352.696 802.038 352.735Z" fill="#EEEEF0"/>
<path d="M83.2085 139.295L162.881 192.794" stroke="#E4E4E7" stroke-width="2" stroke-dasharray="6 6"/>
<path d="M311.57 139.295L221.597 199.71" stroke="#E4E4E7" stroke-width="2" stroke-dasharray="6 6"/>
<path d="M83.2085 286.258L162.881 232.759" stroke="#E4E4E7" stroke-width="2" stroke-dasharray="6 6"/>
<path d="M311.57 286.258L220.214 224.914" stroke="#E4E4E7" stroke-width="2" stroke-dasharray="6 6"/>
<path d="M52.0713 293.101L52.4739 129.328" stroke="#E4E4E7" stroke-width="2" stroke-dasharray="6 6"/>
<path d="M338.697 293.101L339.1 129.328" stroke="#E4E4E7" stroke-width="2" stroke-dasharray="6 6"/>
<path d="M338.708 129.948L194.104 47.4062L81.7412 112.476M340.128 294.313L198.294 376.254L75.4531 306.372" stroke="#E4E4E7" stroke-width="2" stroke-dasharray="6 6"/>
<g filter="url(#filter3_dd_622_125195)">
<rect width="68.8314" height="68.8314" rx="34.4157" transform="matrix(1 0 0 -1 17.2788 332.367)" fill="#091842"/>
<rect width="68.8314" height="68.8314" rx="34.4157" transform="matrix(1 0 0 -1 17.2788 332.367)" stroke="#1E40AF"/>
<path d="M49.5383 281.889C49.5383 281.905 49.7258 282.257 49.9602 282.694C50.1945 283.124 50.3586 283.491 50.3352 283.514C50.3117 283.53 49.6555 283.78 48.8821 284.053C48.1008 284.335 47.4836 284.569 47.4915 284.577C47.4993 284.585 48.3821 284.678 49.4446 284.78C50.7258 284.897 51.3977 284.983 51.4445 285.038C51.4836 285.077 51.7805 285.553 52.1008 286.085L52.6789 287.053L52.7804 286.811C52.8351 286.686 53.0148 286.257 53.1711 285.874L53.4601 285.178L54.9992 285.014C55.8429 284.921 56.5929 284.85 56.671 284.85L56.8038 284.796C56.8038 284.772 56.2335 284.538 55.5304 284.272C54.8351 284.014 54.257 283.788 54.257 283.78C54.257 283.772 54.4054 283.405 54.5929 282.96C54.7726 282.514 54.9132 282.139 54.9054 282.132C54.8898 282.116 54.296 282.296 53.5929 282.522L52.3195 282.944L50.9523 282.405C49.6086 281.874 49.5383 281.85 49.5383 281.889ZM58.0226 286.507C56.3898 287.155 55.046 287.694 55.0382 287.71C55.0226 287.725 56.2413 288.217 57.7413 288.811L60.46 289.881L60.7491 289.764C63.7803 288.585 66.5302 287.491 66.5224 287.475L61.0616 285.327C61.0069 285.335 59.6475 285.858 58.0226 286.507ZM42.3509 285.874C40.7806 286.038 39.4681 286.491 38.9135 287.069C38.5306 287.46 38.4681 287.796 38.7103 288.202C39.0619 288.811 40.2181 289.319 41.8119 289.577C42.5306 289.702 44.6321 289.678 45.3587 289.553C47.0618 289.256 48.1711 288.71 48.4289 288.022C48.5227 287.764 48.5227 287.733 48.4289 287.483C48.1711 286.819 47.0852 286.264 45.4759 285.983C44.6634 285.85 43.1478 285.796 42.3509 285.874ZM71.5146 287.764C71.4364 287.866 71.1474 288.1 70.8661 288.288C70.038 288.819 68.9755 289.303 62.3428 292.163C57.6788 294.163 56.4913 294.694 54.882 295.467C53.0929 296.319 52.3508 296.561 51.4523 296.561C50.6477 296.561 50.1633 296.42 48.6633 295.756C48.0618 295.491 45.6009 294.46 43.2025 293.46C32.6948 289.092 32.4995 288.999 31.937 288.389L31.7026 288.131V292.249L31.9682 292.506C32.2261 292.756 33.0932 293.28 33.3979 293.366C33.4838 293.389 34.0541 293.624 34.6713 293.889C35.2885 294.155 38.3041 295.42 41.3744 296.702C46.4524 298.819 47.6086 299.303 49.343 300.061C50.257 300.467 50.7648 300.569 51.632 300.538C52.2648 300.514 52.4523 300.475 53.007 300.288C53.3664 300.17 53.9836 299.905 54.382 299.702C55.7023 299.038 57.296 298.334 63.6475 295.6C69.624 293.022 70.4052 292.663 71.0536 292.217C71.7177 291.741 71.6942 291.858 71.6942 289.561C71.6942 288.46 71.6864 287.561 71.6786 287.561L71.5146 287.764ZM50.593 290.452C48.1477 290.827 46.1243 291.147 46.0852 291.163C46.0305 291.178 52.1789 293.764 52.4367 293.835L55.2492 289.796C55.2413 289.741 55.2492 289.733 50.593 290.452ZM71.5536 294.545C71.4989 294.639 71.2411 294.858 70.9989 295.038C70.2021 295.585 69.0068 296.131 61.7413 299.256C57.5616 301.061 56.2491 301.639 55.007 302.241C52.9914 303.217 52.507 303.373 51.4289 303.373C50.593 303.366 50.0774 303.233 48.968 302.733C47.8977 302.241 46.7024 301.741 41.9056 299.749C33.5385 296.28 32.5776 295.842 31.9839 295.272L31.6948 294.999V299.061L32.0229 299.374C32.5542 299.874 32.4995 299.842 41.4681 303.577C44.7571 304.944 47.8586 306.248 48.3586 306.475C49.6789 307.069 50.0617 307.209 50.5852 307.319C51.8039 307.569 52.7101 307.366 54.6867 306.405C55.9757 305.78 57.546 305.084 61.3506 303.444C68.5849 300.327 70.3661 299.522 70.8974 299.17C71.0849 299.038 71.3427 298.827 71.4677 298.686L71.6942 298.436V296.405C71.6942 295.288 71.6864 294.374 71.6786 294.374L71.5536 294.545ZM71.4833 301.202C71.0067 301.803 70.0458 302.264 62.585 305.475C57.7179 307.577 56.2335 308.233 54.632 308.991C52.9523 309.787 52.3976 309.959 51.4289 309.959C50.7648 309.959 50.093 309.803 49.3508 309.475C47.6086 308.709 46.4602 308.225 41.3744 306.108C35.5932 303.702 33.7417 302.913 33.1245 302.608C32.5464 302.319 31.9604 301.905 31.8276 301.694L31.6948 301.498V303.569C31.6948 305.944 31.6557 305.764 32.2885 306.194C32.9917 306.662 34.0385 307.131 40.9837 310.014C45.8352 312.03 47.5852 312.764 48.4446 313.155C50.2024 313.944 50.6711 314.069 51.6555 314.014C52.5539 313.975 53.1398 313.78 54.6945 313.037C56.3116 312.264 57.5069 311.725 62.7959 309.452C70.1396 306.287 70.9364 305.905 71.4911 305.264L71.6864 305.045V303.022C71.6864 301.905 71.6786 300.991 71.6708 300.991L71.4833 301.202Z" fill="#60A5FA"/>
</g>
<g filter="url(#filter4_dd_622_125195)">
<rect width="68.8314" height="68.8314" rx="34.4157" transform="matrix(1 0 0 -1 304.221 332.367)" fill="#091842"/>
<rect width="68.8314" height="68.8314" rx="34.4157" transform="matrix(1 0 0 -1 304.221 332.367)" stroke="#1E40AF"/>
<path fill-rule="evenodd" clip-rule="evenodd" d="M336.565 284.041H340.708V287.79H336.565V284.041ZM330.817 288.579H326.673V292.328H330.817V288.579ZM325.884 293.107H321.741V296.855H325.884V293.107ZM330.817 293.107H326.673V296.855H330.817V293.107ZM331.606 293.107H335.749V296.855H331.606V293.107ZM340.682 293.107H336.539V296.855H340.682V293.107ZM341.471 293.107H345.614V296.855H341.471V293.107ZM331.606 288.579H335.749V292.328H331.606V288.579ZM340.682 288.579H336.539V292.328H340.682V288.579ZM353.21 294.103C356.861 293.511 358.636 295.188 358.636 295.188C358.636 295.188 357.551 299.43 352.421 299.036C348.968 307.323 341.668 311.86 331.902 311.86C318.288 311.86 318.288 299.43 318.781 297.556H345.91C347.39 297.556 348.377 297.162 348.968 296.866C346.897 293.018 349.758 289.565 349.758 289.565C349.758 289.565 352.816 291.242 353.21 294.103Z" fill="#60A5FA"/>
</g>
<g filter="url(#filter5_dd_622_125195)">
<rect width="68.8314" height="68.8314" rx="34.4157" transform="matrix(1 0 0 -1 159.648 90.3418)" fill="#091842"/>
<rect width="68.8314" height="68.8314" rx="34.4157" transform="matrix(1 0 0 -1 159.648 90.3418)" stroke="#1E40AF"/>
<path fill-rule="evenodd" clip-rule="evenodd" d="M194.064 56.617C201.384 56.617 207.783 54.4653 211.252 51.2581V55.7402C211.252 57.6808 209.758 59.7833 206.572 61.4888C203.449 63.1605 199.031 64.2402 194.069 64.2402C189.107 64.2402 184.69 63.1605 181.567 61.4888C178.38 59.7833 176.887 57.6808 176.887 55.7402V51.2684C180.357 54.4699 186.751 56.617 194.064 56.617ZM173.887 55.7402V45.7402C173.887 45.4 174 45.0863 174.191 44.8347C175.034 39.2512 183.61 34.8633 194.064 34.8633C204.506 34.8633 213.074 39.2417 213.934 44.8166C214.133 45.0712 214.252 45.3918 214.252 45.7402V55.7402V65.7402C214.252 69.3225 211.563 72.2199 207.988 74.1337C204.349 76.0814 199.425 77.2402 194.069 77.2402C188.713 77.2402 183.789 76.0814 180.151 74.1337C176.575 72.2199 173.887 69.3225 173.887 65.7402V55.7402ZM211.252 61.8564V65.7402C211.252 67.6808 209.758 69.7833 206.572 71.4888C203.449 73.1605 199.031 74.2402 194.069 74.2402C189.107 74.2402 184.69 73.1605 181.567 71.4888C178.38 69.7833 176.887 67.6808 176.887 65.7402V61.8564C177.826 62.7211 178.937 63.4841 180.151 64.1337C183.789 66.0814 188.713 67.2402 194.069 67.2402C199.425 67.2402 204.349 66.0814 207.988 64.1337C209.201 63.4841 210.313 62.7211 211.252 61.8564Z" fill="#60A5FA"/>
</g>
<g filter="url(#filter6_dd_622_125195)">
<rect width="68.8314" height="68.8314" rx="34.4157" transform="matrix(1 0 0 -1 159.648 246.246)" fill="#091842"/>
<rect width="68.8314" height="68.8314" rx="34.4157" transform="matrix(1 0 0 -1 159.648 246.246)" stroke="#1E40AF"/>
<path fill-rule="evenodd" clip-rule="evenodd" d="M191.068 196.527C190.516 196.527 190.068 196.975 190.068 197.527C190.068 198.08 190.516 198.527 191.068 198.527H197.196C197.748 198.527 198.196 198.08 198.196 197.527C198.196 196.975 197.748 196.527 197.196 196.527H191.068ZM186.316 201.527C186.316 200.975 186.764 200.527 187.316 200.527H200.948C201.5 200.527 201.948 200.975 201.948 201.527C201.948 202.08 201.5 202.527 200.948 202.527H187.316C186.764 202.527 186.316 202.08 186.316 201.527ZM178.015 206.194C178.015 205.089 178.911 204.194 180.015 204.194H208.112C209.216 204.194 210.112 205.089 210.112 206.194V225.382C210.112 226.486 209.216 227.382 208.112 227.382H180.015C178.911 227.382 178.015 226.486 178.015 225.382V206.194ZM187.412 219.974C189.621 219.974 191.412 218.183 191.412 215.974C191.412 213.765 189.621 211.974 187.412 211.974C185.202 211.974 183.412 213.765 183.412 215.974C183.412 218.183 185.202 219.974 187.412 219.974ZM204.399 215.974C204.399 218.183 202.608 219.974 200.399 219.974C198.19 219.974 196.399 218.183 196.399 215.974C196.399 213.765 198.19 211.974 200.399 211.974C202.608 211.974 204.399 213.765 204.399 215.974ZM210.918 219.855V212.093C212.657 212.1 214.063 213.512 214.063 215.251V216.709C214.063 218.446 212.655 219.855 210.918 219.855ZM177.209 212.093V219.855C175.472 219.855 174.063 218.446 174.063 216.709V215.251C174.063 213.512 175.47 212.1 177.209 212.093Z" fill="#60A5FA"/>
</g>
<g filter="url(#filter7_dd_622_125195)">
<rect width="68.8314" height="68.8314" rx="34.4157" transform="matrix(1 0 0 -1 18.0586 159.172)" fill="#091842"/>
<rect width="68.8314" height="68.8314" rx="34.4157" transform="matrix(1 0 0 -1 18.0586 159.172)" stroke="#1E40AF"/>
<path fill-rule="evenodd" clip-rule="evenodd" d="M45.7546 116.736C46.1676 114.042 46.7901 111.636 47.5635 109.652C48.291 107.786 49.1326 106.345 50.016 105.386C50.394 104.976 50.7658 104.668 51.1285 104.45C51.5897 104.419 52.0552 104.402 52.5244 104.402C52.9937 104.402 53.4592 104.419 53.9203 104.45C54.283 104.668 54.6548 104.976 55.0329 105.386C55.9163 106.345 56.7578 107.786 57.4853 109.652C58.2588 111.636 58.8812 114.042 59.2942 116.736H45.7546ZM43.7323 116.736H34.0466C36.4643 110.915 41.5519 106.483 47.7811 104.968C46.9916 106.055 46.2954 107.399 45.7002 108.926C44.838 111.137 44.1637 113.793 43.7323 116.736ZM57.2677 104.968C58.0572 106.055 58.7534 107.399 59.3487 108.926C60.2108 111.137 60.8851 113.793 61.3165 116.736H71.0023C68.5846 110.915 63.4969 106.483 57.2677 104.968ZM59.5559 118.736H45.4929C45.2967 120.533 45.1911 122.433 45.1911 124.402C45.1911 126.371 45.2967 128.272 45.4929 130.069H59.5559C59.7521 128.272 59.8577 126.371 59.8577 124.402C59.8577 122.433 59.7521 120.533 59.5559 118.736ZM61.5673 130.069C61.7571 128.257 61.8577 126.358 61.8577 124.402C61.8577 122.447 61.7571 120.547 61.5673 118.736H71.7103C72.2401 120.532 72.5244 122.434 72.5244 124.402C72.5244 126.371 72.2401 128.272 71.7103 130.069H61.5673ZM59.2942 132.069H45.7547C46.1676 134.762 46.7901 137.169 47.5635 139.152C48.291 141.018 49.1326 142.46 50.016 143.418C50.394 143.829 50.7659 144.136 51.1286 144.354C51.5897 144.386 52.0552 144.402 52.5244 144.402C52.9936 144.402 53.4591 144.386 53.9202 144.354C54.2829 144.136 54.6548 143.829 55.0329 143.418C55.9163 142.46 56.7578 141.018 57.4853 139.152C58.2588 137.169 58.8812 134.762 59.2942 132.069ZM57.2676 143.837C58.0572 142.75 58.7534 141.406 59.3487 139.879C60.2108 137.668 60.8851 135.012 61.3165 132.069H71.0023C68.5846 137.889 63.4969 142.321 57.2676 143.837ZM47.7812 143.837C46.9916 142.75 46.2954 141.406 45.7002 139.879C44.838 137.668 44.1637 135.012 43.7323 132.069H34.0466C36.4643 137.889 41.552 142.321 47.7812 143.837ZM43.4815 130.069H33.3385C32.8087 128.272 32.5244 126.371 32.5244 124.402C32.5244 122.434 32.8087 120.532 33.3385 118.736H43.4815C43.2917 120.547 43.1911 122.447 43.1911 124.402C43.1911 126.358 43.2917 128.257 43.4815 130.069Z" fill="#60A5FA"/>
</g>
<g filter="url(#filter8_dd_622_125195)">
<rect width="68.8314" height="68.8314" rx="34.4157" transform="matrix(1 0 0 -1 304.221 159.172)" fill="#091842"/>
<rect width="68.8314" height="68.8314" rx="34.4157" transform="matrix(1 0 0 -1 304.221 159.172)" stroke="#1E40AF"/>
<path fill-rule="evenodd" clip-rule="evenodd" d="M323.02 113.581C322.684 113.773 322.684 114.258 323.021 114.45L338.686 123.357C338.841 123.445 339.03 123.444 339.184 123.355L354.4 114.531C354.733 114.337 354.732 113.855 354.397 113.664L338.884 104.802C338.73 104.714 338.542 104.714 338.388 104.802L323.02 113.581ZM356.642 116.41C356.642 116.025 356.225 115.784 355.892 115.977L340.097 125.138C339.943 125.227 339.848 125.392 339.848 125.57V144.246C339.848 144.63 340.262 144.87 340.596 144.68L356.39 135.657C356.546 135.568 356.642 135.403 356.642 135.223V116.41ZM337.1 144.922C337.433 145.112 337.848 144.871 337.848 144.487V125.472C337.848 125.292 337.751 125.126 337.595 125.037L321.377 115.816C321.044 115.626 320.63 115.867 320.63 116.25V135.223C320.63 135.403 320.726 135.568 320.882 135.657L337.1 144.922Z" fill="#60A5FA"/>
</g>
<g filter="url(#filter9_dd_622_125195)">
<rect width="68.8314" height="68.8314" rx="34.4157" transform="matrix(1 0 0 -1 159.647 410.67)" fill="#091842"/>
<rect width="68.8314" height="68.8314" rx="34.4157" transform="matrix(1 0 0 -1 159.647 410.67)" stroke="#1E40AF"/>
<path fill-rule="evenodd" clip-rule="evenodd" d="M198.613 384.854C198.751 385.093 199.057 385.175 199.296 385.037L203.838 382.415C204.077 382.277 204.159 381.971 204.021 381.732L202.577 379.232C202.465 379.037 202.497 378.792 202.65 378.627C203.001 378.247 203.328 377.843 203.627 377.419L209.148 381.778V389.232C209.148 389.309 209.157 389.385 209.173 389.457C207.732 389.879 206.68 391.21 206.68 392.787C206.68 394.702 208.233 396.255 210.148 396.255C212.063 396.255 213.616 394.702 213.616 392.787C213.616 391.209 212.563 389.878 211.122 389.457C211.139 389.385 211.148 389.309 211.148 389.232V381.293C211.148 380.987 211.008 380.698 210.767 380.508L204.77 375.774C204.728 375.741 204.684 375.712 204.639 375.686C204.875 375.191 205.076 374.676 205.241 374.145C205.308 373.93 205.504 373.779 205.729 373.779H208.613C208.889 373.779 209.113 373.555 209.113 373.279V368.034C209.113 367.758 208.889 367.534 208.613 367.534H205.729C205.504 367.534 205.308 367.384 205.241 367.169C204.716 365.48 203.821 363.954 202.65 362.686C202.497 362.521 202.465 362.276 202.577 362.081L204.021 359.581C204.159 359.342 204.077 359.036 203.838 358.898L199.296 356.276C199.057 356.138 198.751 356.22 198.613 356.459L197.171 358.957C197.058 359.151 196.83 359.246 196.611 359.197C195.778 359.009 194.911 358.91 194.021 358.91C193.131 358.91 192.265 359.009 191.432 359.197C191.212 359.246 190.984 359.151 190.871 358.957L189.429 356.459C189.291 356.22 188.986 356.138 188.746 356.276L184.205 358.898C183.965 359.036 183.883 359.342 184.022 359.581L185.465 362.081C185.577 362.276 185.545 362.521 185.392 362.687C184.221 363.954 183.326 365.48 182.801 367.169C182.735 367.384 182.538 367.534 182.313 367.534H179.43C179.154 367.534 178.93 367.758 178.93 368.034V373.279C178.93 373.555 179.154 373.779 179.43 373.779H182.313C182.538 373.779 182.735 373.93 182.801 374.145C182.971 374.69 183.179 375.218 183.422 375.726C183.399 375.741 183.377 375.757 183.355 375.774L177.358 380.508C177.118 380.698 176.978 380.987 176.978 381.293L176.978 389.232C176.978 389.309 176.986 389.385 177.003 389.457C175.562 389.879 174.51 391.21 174.51 392.787C174.51 394.702 176.062 396.255 177.978 396.255C179.893 396.255 181.446 394.702 181.446 392.787C181.446 391.209 180.393 389.878 178.952 389.457C178.969 389.385 178.978 389.309 178.978 389.232L178.978 381.778L184.446 377.461C184.736 377.87 185.053 378.259 185.392 378.627C185.545 378.792 185.577 379.037 185.465 379.232L184.022 381.732C183.884 381.971 183.965 382.277 184.205 382.415L188.746 385.037C188.986 385.175 189.291 385.093 189.43 384.854L190.871 382.357C190.984 382.162 191.212 382.067 191.432 382.117C191.963 382.236 192.507 382.32 193.063 382.364V388.427C193.063 388.48 193.067 388.532 193.075 388.582C191.641 389.007 190.595 390.335 190.595 391.907C190.595 393.823 192.148 395.375 194.063 395.375C195.978 395.375 197.531 393.823 197.531 391.907C197.531 390.335 196.485 389.007 195.051 388.582C195.059 388.532 195.063 388.48 195.063 388.427V382.357C195.59 382.311 196.106 382.23 196.611 382.117C196.83 382.067 197.058 382.162 197.171 382.357L198.613 384.854ZM194.021 378.203C198.189 378.203 201.567 374.824 201.567 370.657C201.567 366.49 198.189 363.111 194.021 363.111C189.854 363.111 186.476 366.49 186.476 370.657C186.476 374.824 189.854 378.203 194.021 378.203Z" fill="#60A5FA"/>
</g>
<defs>
<filter id="filter0_dd_622_125195" x="692.799" y="301.279" width="120.3" height="120.299" filterUnits="userSpaceOnUse" color-interpolation-filters="sRGB">
<feFlood flood-opacity="0" result="BackgroundImageFix"/>
<feColorMatrix in="SourceAlpha" type="matrix" values="0 0 0 0 0 0 0 0 0 0 0 0 0 0 0 0 0 0 127 0" result="hardAlpha"/>
<feOffset dy="2"/>
<feGaussianBlur stdDeviation="8"/>
<feColorMatrix type="matrix" values="0 0 0 0 0.0588235 0 0 0 0 0.0588235 0 0 0 0 0.0666667 0 0 0 0.08 0"/>
<feBlend mode="normal" in2="BackgroundImageFix" result="effect1_dropShadow_622_125195"/>
<feColorMatrix in="SourceAlpha" type="matrix" values="0 0 0 0 0 0 0 0 0 0 0 0 0 0 0 0 0 0 127 0" result="hardAlpha"/>
<feMorphology radius="1" operator="dilate" in="SourceAlpha" result="effect2_dropShadow_622_125195"/>
<feOffset/>
<feColorMatrix type="matrix" values="0 0 0 0 0.0588235 0 0 0 0 0.0588235 0 0 0 0 0.0666667 0 0 0 0.1 0"/>
<feBlend mode="normal" in2="effect1_dropShadow_622_125195" result="effect2_dropShadow_622_125195"/>
<feBlend mode="normal" in="SourceGraphic" in2="effect2_dropShadow_622_125195" result="shape"/>
</filter>
<filter id="filter1_dd_622_125195" x="692.799" y="150.85" width="120.3" height="120.299" filterUnits="userSpaceOnUse" color-interpolation-filters="sRGB">
<feFlood flood-opacity="0" result="BackgroundImageFix"/>
<feColorMatrix in="SourceAlpha" type="matrix" values="0 0 0 0 0 0 0 0 0 0 0 0 0 0 0 0 0 0 127 0" result="hardAlpha"/>
<feOffset dy="2"/>
<feGaussianBlur stdDeviation="8"/>
<feColorMatrix type="matrix" values="0 0 0 0 0.0588235 0 0 0 0 0.0588235 0 0 0 0 0.0666667 0 0 0 0.08 0"/>
<feBlend mode="normal" in2="BackgroundImageFix" result="effect1_dropShadow_622_125195"/>
<feColorMatrix in="SourceAlpha" type="matrix" values="0 0 0 0 0 0 0 0 0 0 0 0 0 0 0 0 0 0 127 0" result="hardAlpha"/>
<feMorphology radius="1" operator="dilate" in="SourceAlpha" result="effect2_dropShadow_622_125195"/>
<feOffset/>
<feColorMatrix type="matrix" values="0 0 0 0 0.0588235 0 0 0 0 0.0588235 0 0 0 0 0.0666667 0 0 0 0.1 0"/>
<feBlend mode="normal" in2="effect1_dropShadow_622_125195" result="effect2_dropShadow_622_125195"/>
<feBlend mode="normal" in="SourceGraphic" in2="effect2_dropShadow_622_125195" result="shape"/>
</filter>
<filter id="filter2_dd_622_125195" x="692.8" y="0.419922" width="120.3" height="120.299" filterUnits="userSpaceOnUse" color-interpolation-filters="sRGB">
<feFlood flood-opacity="0" result="BackgroundImageFix"/>
<feColorMatrix in="SourceAlpha" type="matrix" values="0 0 0 0 0 0 0 0 0 0 0 0 0 0 0 0 0 0 127 0" result="hardAlpha"/>
<feOffset dy="2"/>
<feGaussianBlur stdDeviation="8"/>
<feColorMatrix type="matrix" values="0 0 0 0 0.0588235 0 0 0 0 0.0588235 0 0 0 0 0.0666667 0 0 0 0.08 0"/>
<feBlend mode="normal" in2="BackgroundImageFix" result="effect1_dropShadow_622_125195"/>
<feColorMatrix in="SourceAlpha" type="matrix" values="0 0 0 0 0 0 0 0 0 0 0 0 0 0 0 0 0 0 127 0" result="hardAlpha"/>
<feMorphology radius="1" operator="dilate" in="SourceAlpha" result="effect2_dropShadow_622_125195"/>
<feOffset/>
<feColorMatrix type="matrix" values="0 0 0 0 0.0588235 0 0 0 0 0.0588235 0 0 0 0 0.0666667 0 0 0 0.1 0"/>
<feBlend mode="normal" in2="effect1_dropShadow_622_125195" result="effect2_dropShadow_622_125195"/>
<feBlend mode="normal" in="SourceGraphic" in2="effect2_dropShadow_622_125195" result="shape"/>
</filter>
<filter id="filter3_dd_622_125195" x="0.778809" y="249.035" width="101.832" height="101.832" filterUnits="userSpaceOnUse" color-interpolation-filters="sRGB">
<feFlood flood-opacity="0" result="BackgroundImageFix"/>
<feColorMatrix in="SourceAlpha" type="matrix" values="0 0 0 0 0 0 0 0 0 0 0 0 0 0 0 0 0 0 127 0" result="hardAlpha"/>
<feOffset dy="2"/>
<feGaussianBlur stdDeviation="8"/>
<feColorMatrix type="matrix" values="0 0 0 0 0.0588235 0 0 0 0 0.0588235 0 0 0 0 0.0666667 0 0 0 0.08 0"/>
<feBlend mode="normal" in2="BackgroundImageFix" result="effect1_dropShadow_622_125195"/>
<feColorMatrix in="SourceAlpha" type="matrix" values="0 0 0 0 0 0 0 0 0 0 0 0 0 0 0 0 0 0 127 0" result="hardAlpha"/>
<feMorphology radius="1" operator="dilate" in="SourceAlpha" result="effect2_dropShadow_622_125195"/>
<feOffset/>
<feColorMatrix type="matrix" values="0 0 0 0 0.0588235 0 0 0 0 0.0588235 0 0 0 0 0.0666667 0 0 0 0.1 0"/>
<feBlend mode="normal" in2="effect1_dropShadow_622_125195" result="effect2_dropShadow_622_125195"/>
<feBlend mode="normal" in="SourceGraphic" in2="effect2_dropShadow_622_125195" result="shape"/>
</filter>
<filter id="filter4_dd_622_125195" x="287.721" y="249.035" width="101.832" height="101.832" filterUnits="userSpaceOnUse" color-interpolation-filters="sRGB">
<feFlood flood-opacity="0" result="BackgroundImageFix"/>
<feColorMatrix in="SourceAlpha" type="matrix" values="0 0 0 0 0 0 0 0 0 0 0 0 0 0 0 0 0 0 127 0" result="hardAlpha"/>
<feOffset dy="2"/>
<feGaussianBlur stdDeviation="8"/>
<feColorMatrix type="matrix" values="0 0 0 0 0.0588235 0 0 0 0 0.0588235 0 0 0 0 0.0666667 0 0 0 0.08 0"/>
<feBlend mode="normal" in2="BackgroundImageFix" result="effect1_dropShadow_622_125195"/>
<feColorMatrix in="SourceAlpha" type="matrix" values="0 0 0 0 0 0 0 0 0 0 0 0 0 0 0 0 0 0 127 0" result="hardAlpha"/>
<feMorphology radius="1" operator="dilate" in="SourceAlpha" result="effect2_dropShadow_622_125195"/>
<feOffset/>
<feColorMatrix type="matrix" values="0 0 0 0 0.0588235 0 0 0 0 0.0588235 0 0 0 0 0.0666667 0 0 0 0.1 0"/>
<feBlend mode="normal" in2="effect1_dropShadow_622_125195" result="effect2_dropShadow_622_125195"/>
<feBlend mode="normal" in="SourceGraphic" in2="effect2_dropShadow_622_125195" result="shape"/>
</filter>
<filter id="filter5_dd_622_125195" x="143.148" y="7.00977" width="101.832" height="101.832" filterUnits="userSpaceOnUse" color-interpolation-filters="sRGB">
<feFlood flood-opacity="0" result="BackgroundImageFix"/>
<feColorMatrix in="SourceAlpha" type="matrix" values="0 0 0 0 0 0 0 0 0 0 0 0 0 0 0 0 0 0 127 0" result="hardAlpha"/>
<feOffset dy="2"/>
<feGaussianBlur stdDeviation="8"/>
<feColorMatrix type="matrix" values="0 0 0 0 0.0588235 0 0 0 0 0.0588235 0 0 0 0 0.0666667 0 0 0 0.08 0"/>
<feBlend mode="normal" in2="BackgroundImageFix" result="effect1_dropShadow_622_125195"/>
<feColorMatrix in="SourceAlpha" type="matrix" values="0 0 0 0 0 0 0 0 0 0 0 0 0 0 0 0 0 0 127 0" result="hardAlpha"/>
<feMorphology radius="1" operator="dilate" in="SourceAlpha" result="effect2_dropShadow_622_125195"/>
<feOffset/>
<feColorMatrix type="matrix" values="0 0 0 0 0.0588235 0 0 0 0 0.0588235 0 0 0 0 0.0666667 0 0 0 0.1 0"/>
<feBlend mode="normal" in2="effect1_dropShadow_622_125195" result="effect2_dropShadow_622_125195"/>
<feBlend mode="normal" in="SourceGraphic" in2="effect2_dropShadow_622_125195" result="shape"/>
</filter>
<filter id="filter6_dd_622_125195" x="143.148" y="162.914" width="101.832" height="101.832" filterUnits="userSpaceOnUse" color-interpolation-filters="sRGB">
<feFlood flood-opacity="0" result="BackgroundImageFix"/>
<feColorMatrix in="SourceAlpha" type="matrix" values="0 0 0 0 0 0 0 0 0 0 0 0 0 0 0 0 0 0 127 0" result="hardAlpha"/>
<feOffset dy="2"/>
<feGaussianBlur stdDeviation="8"/>
<feColorMatrix type="matrix" values="0 0 0 0 0.0588235 0 0 0 0 0.0588235 0 0 0 0 0.0666667 0 0 0 0.08 0"/>
<feBlend mode="normal" in2="BackgroundImageFix" result="effect1_dropShadow_622_125195"/>
<feColorMatrix in="SourceAlpha" type="matrix" values="0 0 0 0 0 0 0 0 0 0 0 0 0 0 0 0 0 0 127 0" result="hardAlpha"/>
<feMorphology radius="1" operator="dilate" in="SourceAlpha" result="effect2_dropShadow_622_125195"/>
<feOffset/>
<feColorMatrix type="matrix" values="0 0 0 0 0.0588235 0 0 0 0 0.0588235 0 0 0 0 0.0666667 0 0 0 0.1 0"/>
<feBlend mode="normal" in2="effect1_dropShadow_622_125195" result="effect2_dropShadow_622_125195"/>
<feBlend mode="normal" in="SourceGraphic" in2="effect2_dropShadow_622_125195" result="shape"/>
</filter>
<filter id="filter7_dd_622_125195" x="1.55859" y="75.8398" width="101.832" height="101.832" filterUnits="userSpaceOnUse" color-interpolation-filters="sRGB">
<feFlood flood-opacity="0" result="BackgroundImageFix"/>
<feColorMatrix in="SourceAlpha" type="matrix" values="0 0 0 0 0 0 0 0 0 0 0 0 0 0 0 0 0 0 127 0" result="hardAlpha"/>
<feOffset dy="2"/>
<feGaussianBlur stdDeviation="8"/>
<feColorMatrix type="matrix" values="0 0 0 0 0.0588235 0 0 0 0 0.0588235 0 0 0 0 0.0666667 0 0 0 0.08 0"/>
<feBlend mode="normal" in2="BackgroundImageFix" result="effect1_dropShadow_622_125195"/>
<feColorMatrix in="SourceAlpha" type="matrix" values="0 0 0 0 0 0 0 0 0 0 0 0 0 0 0 0 0 0 127 0" result="hardAlpha"/>
<feMorphology radius="1" operator="dilate" in="SourceAlpha" result="effect2_dropShadow_622_125195"/>
<feOffset/>
<feColorMatrix type="matrix" values="0 0 0 0 0.0588235 0 0 0 0 0.0588235 0 0 0 0 0.0666667 0 0 0 0.1 0"/>
<feBlend mode="normal" in2="effect1_dropShadow_622_125195" result="effect2_dropShadow_622_125195"/>
<feBlend mode="normal" in="SourceGraphic" in2="effect2_dropShadow_622_125195" result="shape"/>
</filter>
<filter id="filter8_dd_622_125195" x="287.721" y="75.8398" width="101.832" height="101.832" filterUnits="userSpaceOnUse" color-interpolation-filters="sRGB">
<feFlood flood-opacity="0" result="BackgroundImageFix"/>
<feColorMatrix in="SourceAlpha" type="matrix" values="0 0 0 0 0 0 0 0 0 0 0 0 0 0 0 0 0 0 127 0" result="hardAlpha"/>
<feOffset dy="2"/>
<feGaussianBlur stdDeviation="8"/>
<feColorMatrix type="matrix" values="0 0 0 0 0.0588235 0 0 0 0 0.0588235 0 0 0 0 0.0666667 0 0 0 0.08 0"/>
<feBlend mode="normal" in2="BackgroundImageFix" result="effect1_dropShadow_622_125195"/>
<feColorMatrix in="SourceAlpha" type="matrix" values="0 0 0 0 0 0 0 0 0 0 0 0 0 0 0 0 0 0 127 0" result="hardAlpha"/>
<feMorphology radius="1" operator="dilate" in="SourceAlpha" result="effect2_dropShadow_622_125195"/>
<feOffset/>
<feColorMatrix type="matrix" values="0 0 0 0 0.0588235 0 0 0 0 0.0588235 0 0 0 0 0.0666667 0 0 0 0.1 0"/>
<feBlend mode="normal" in2="effect1_dropShadow_622_125195" result="effect2_dropShadow_622_125195"/>
<feBlend mode="normal" in="SourceGraphic" in2="effect2_dropShadow_622_125195" result="shape"/>
</filter>
<filter id="filter9_dd_622_125195" x="143.147" y="327.338" width="101.832" height="101.832" filterUnits="userSpaceOnUse" color-interpolation-filters="sRGB">
<feFlood flood-opacity="0" result="BackgroundImageFix"/>
<feColorMatrix in="SourceAlpha" type="matrix" values="0 0 0 0 0 0 0 0 0 0 0 0 0 0 0 0 0 0 127 0" result="hardAlpha"/>
<feOffset dy="2"/>
<feGaussianBlur stdDeviation="8"/>
<feColorMatrix type="matrix" values="0 0 0 0 0.0588235 0 0 0 0 0.0588235 0 0 0 0 0.0666667 0 0 0 0.08 0"/>
<feBlend mode="normal" in2="BackgroundImageFix" result="effect1_dropShadow_622_125195"/>
<feColorMatrix in="SourceAlpha" type="matrix" values="0 0 0 0 0 0 0 0 0 0 0 0 0 0 0 0 0 0 127 0" result="hardAlpha"/>
<feMorphology radius="1" operator="dilate" in="SourceAlpha" result="effect2_dropShadow_622_125195"/>
<feOffset/>
<feColorMatrix type="matrix" values="0 0 0 0 0.0588235 0 0 0 0 0.0588235 0 0 0 0 0.0666667 0 0 0 0.1 0"/>
<feBlend mode="normal" in2="effect1_dropShadow_622_125195" result="effect2_dropShadow_622_125195"/>
<feBlend mode="normal" in="SourceGraphic" in2="effect2_dropShadow_622_125195" result="shape"/>
</filter>
</defs>
</svg>
