<svg width="1120" height="480" viewBox="0 0 1120 480" fill="none" xmlns="http://www.w3.org/2000/svg">
<rect width="1120" height="480" fill="#FAFAFA"/>
<rect x="276" y="188" width="104" height="104" rx="4" fill="#3B82F6"/>
<path d="M357.726 214.899L344.56 208.565C343.028 207.825 341.207 208.137 340.009 209.335L314.791 232.344L303.802 224.01C302.782 223.229 301.344 223.293 300.396 224.156L296.876 227.364C295.71 228.416 295.71 230.25 296.866 231.302L306.397 240L296.866 248.698C295.71 249.75 295.71 251.584 296.876 252.636L300.396 255.844C301.354 256.708 302.782 256.772 303.802 255.99L314.791 247.646L340.021 270.665C341.209 271.863 343.03 272.175 344.562 271.435L357.74 265.091C359.126 264.425 360 263.029 360 261.487V218.499C360 216.967 359.114 215.561 357.73 214.895L357.726 214.899ZM344.006 254.534L324.861 240.002L344.006 225.47V254.534Z" fill="white"/>
<rect x="412" y="188" width="104" height="104" rx="4" fill="#3B82F6"/>
<path fill-rule="evenodd" clip-rule="evenodd" d="M432 208H496V272H432V208ZM462.08 260H438.08V264H462.08V260ZM455.2 216.32V221.12H451.52V237.92H455.2V242.88H442.08V237.92H445.76V221.12H442.08V216.32H455.2ZM462.72 242.08C464.355 242.896 466.173 243.282 468 243.2C470.255 243.085 472.426 242.306 474.24 240.96C475.284 240.005 476.057 238.79 476.48 237.44C476.963 236.108 477.18 234.695 477.12 233.28V216H471.2V233.12C471.325 234.321 470.981 235.525 470.24 236.48C469.625 237.255 468.666 237.675 467.68 237.6C466.783 237.636 465.894 237.414 465.12 236.96C464.297 236.415 463.544 235.77 462.88 235.04L459.2 239.2C460.188 240.365 461.381 241.341 462.72 242.08Z" fill="white"/>
<rect x="548" y="188" width="104" height="104" rx="4" fill="#3B82F6"/>
<path fill-rule="evenodd" clip-rule="evenodd" d="M626.288 221.885L612.469 208V243.549L624.029 260.933L626.381 258.381L626.288 221.885ZM587.248 208.003L622.688 262.082L612.771 272L577.312 218.04L587.248 208.003ZM587.531 272L573.712 258.115L573.619 221.619L575.971 219.067L587.531 236.451V272Z" fill="white"/>
<path d="M684 188V292" stroke="#D4D4D8" stroke-width="3"/>
<rect x="716" y="188" width="128" height="104" rx="4" fill="#EEEEF0"/>
<path d="M736.367 246L740.523 234.359H742.695L746.914 246H744.992L742.727 239.516C742.549 238.984 742.354 238.367 742.141 237.664C741.932 236.956 741.688 236.102 741.406 235.102H741.781C741.51 236.107 741.268 236.966 741.055 237.68C740.846 238.393 740.661 239.005 740.5 239.516L738.289 246H736.367ZM738.625 242.938V241.453H744.656V242.938H738.625ZM750.125 240.875V246H748.414V237.32H750.047L750.062 239.445H749.867C750.122 238.669 750.49 238.102 750.969 237.742C751.453 237.383 752.039 237.203 752.727 237.203C753.32 237.203 753.839 237.328 754.281 237.578C754.729 237.828 755.076 238.198 755.32 238.688C755.57 239.172 755.695 239.773 755.695 240.492V246H753.984V240.711C753.984 240.076 753.82 239.581 753.492 239.227C753.169 238.872 752.721 238.695 752.148 238.695C751.763 238.695 751.417 238.781 751.109 238.953C750.807 239.12 750.568 239.365 750.391 239.688C750.214 240.01 750.125 240.406 750.125 240.875ZM761.195 246.172C760.492 246.172 759.865 245.992 759.312 245.633C758.766 245.268 758.336 244.75 758.023 244.078C757.711 243.406 757.555 242.607 757.555 241.68C757.555 240.742 757.711 239.94 758.023 239.273C758.341 238.602 758.773 238.089 759.32 237.734C759.872 237.38 760.497 237.203 761.195 237.203C761.721 237.203 762.148 237.289 762.477 237.461C762.805 237.633 763.065 237.836 763.258 238.07C763.456 238.305 763.609 238.521 763.719 238.719H763.805V234.359H765.516V246H763.844V244.648H763.719C763.609 244.846 763.456 245.065 763.258 245.305C763.06 245.539 762.794 245.742 762.461 245.914C762.133 246.086 761.711 246.172 761.195 246.172ZM761.57 244.711C762.06 244.711 762.471 244.583 762.805 244.328C763.143 244.073 763.401 243.716 763.578 243.258C763.755 242.799 763.844 242.268 763.844 241.664C763.844 241.06 763.755 240.534 763.578 240.086C763.406 239.638 763.151 239.289 762.812 239.039C762.474 238.789 762.06 238.664 761.57 238.664C761.076 238.664 760.659 238.794 760.32 239.055C759.982 239.315 759.727 239.672 759.555 240.125C759.388 240.573 759.305 241.086 759.305 241.664C759.305 242.247 759.391 242.768 759.562 243.227C759.734 243.685 759.99 244.047 760.328 244.312C760.667 244.578 761.081 244.711 761.57 244.711ZM772.008 246V237.32H773.641L773.68 239.312H773.547C773.672 238.828 773.865 238.43 774.125 238.117C774.385 237.799 774.69 237.562 775.039 237.406C775.388 237.25 775.753 237.172 776.133 237.172C776.763 237.172 777.276 237.367 777.672 237.758C778.073 238.148 778.341 238.685 778.477 239.367H778.258C778.367 238.898 778.562 238.503 778.844 238.18C779.125 237.852 779.461 237.602 779.852 237.43C780.247 237.258 780.674 237.172 781.133 237.172C781.648 237.172 782.115 237.284 782.531 237.508C782.948 237.732 783.279 238.065 783.523 238.508C783.768 238.945 783.891 239.497 783.891 240.164V246H782.18V240.336C782.18 239.747 782.016 239.323 781.688 239.062C781.365 238.802 780.982 238.672 780.539 238.672C780.18 238.672 779.87 238.747 779.609 238.898C779.349 239.049 779.146 239.26 779 239.531C778.859 239.797 778.789 240.104 778.789 240.453V246H777.109V240.219C777.109 239.75 776.958 239.375 776.656 239.094C776.354 238.812 775.971 238.672 775.508 238.672C775.19 238.672 774.893 238.747 774.617 238.898C774.346 239.044 774.128 239.263 773.961 239.555C773.799 239.841 773.719 240.198 773.719 240.625V246H772.008ZM789.82 246.18C789.003 246.18 788.289 245.995 787.68 245.625C787.076 245.25 786.604 244.727 786.266 244.055C785.927 243.378 785.758 242.594 785.758 241.703C785.758 240.802 785.927 240.016 786.266 239.344C786.604 238.667 787.076 238.141 787.68 237.766C788.289 237.391 789.003 237.203 789.82 237.203C790.638 237.203 791.352 237.391 791.961 237.766C792.576 238.141 793.049 238.667 793.383 239.344C793.721 240.016 793.891 240.802 793.891 241.703C793.891 242.594 793.721 243.378 793.383 244.055C793.049 244.727 792.576 245.25 791.961 245.625C791.352 245.995 790.638 246.18 789.82 246.18ZM789.82 244.734C790.346 244.734 790.781 244.599 791.125 244.328C791.474 244.052 791.732 243.685 791.898 243.227C792.07 242.763 792.156 242.255 792.156 241.703C792.156 241.141 792.07 240.63 791.898 240.172C791.732 239.708 791.474 239.339 791.125 239.062C790.781 238.786 790.346 238.648 789.82 238.648C789.299 238.648 788.867 238.786 788.523 239.062C788.18 239.339 787.922 239.708 787.75 240.172C787.583 240.63 787.5 241.141 787.5 241.703C787.5 242.26 787.583 242.768 787.75 243.227C787.922 243.685 788.18 244.052 788.523 244.328C788.867 244.599 789.299 244.734 789.82 244.734ZM795.758 246V237.32H797.406V238.711H797.492C797.654 238.242 797.93 237.875 798.32 237.609C798.716 237.339 799.172 237.203 799.688 237.203C799.797 237.203 799.919 237.208 800.055 237.219C800.195 237.224 800.31 237.232 800.398 237.242V238.867C800.336 238.852 800.216 238.833 800.039 238.812C799.862 238.792 799.682 238.781 799.5 238.781C799.115 238.781 798.766 238.865 798.453 239.031C798.146 239.193 797.904 239.422 797.727 239.719C797.555 240.01 797.469 240.352 797.469 240.742V246H795.758ZM805.32 246.18C804.466 246.18 803.729 245.995 803.109 245.625C802.49 245.255 802.013 244.737 801.68 244.07C801.346 243.398 801.18 242.615 801.18 241.719C801.18 240.828 801.344 240.044 801.672 239.367C802.005 238.69 802.471 238.161 803.07 237.781C803.674 237.396 804.378 237.203 805.18 237.203C805.69 237.203 806.177 237.286 806.641 237.453C807.109 237.62 807.526 237.88 807.891 238.234C808.255 238.589 808.544 239.042 808.758 239.594C808.971 240.146 809.078 240.807 809.078 241.578V242.172H802.117V240.891H808.195L807.398 241.312C807.398 240.781 807.312 240.312 807.141 239.906C806.974 239.5 806.727 239.185 806.398 238.961C806.076 238.732 805.672 238.617 805.188 238.617C804.703 238.617 804.289 238.734 803.945 238.969C803.607 239.198 803.346 239.505 803.164 239.891C802.982 240.271 802.891 240.69 802.891 241.148V242C802.891 242.589 802.992 243.091 803.195 243.508C803.398 243.919 803.682 244.232 804.047 244.445C804.417 244.659 804.846 244.766 805.336 244.766C805.664 244.766 805.958 244.719 806.219 244.625C806.484 244.531 806.711 244.391 806.898 244.203C807.086 244.016 807.229 243.786 807.328 243.516L808.938 243.859C808.807 244.318 808.576 244.721 808.242 245.07C807.909 245.419 807.495 245.693 807 245.891C806.505 246.083 805.945 246.18 805.32 246.18ZM812.141 246.117C811.823 246.117 811.552 246.008 811.328 245.789C811.104 245.565 810.992 245.294 810.992 244.977C810.992 244.659 811.104 244.388 811.328 244.164C811.552 243.94 811.823 243.828 812.141 243.828C812.464 243.828 812.734 243.94 812.953 244.164C813.177 244.388 813.289 244.659 813.289 244.977C813.289 245.294 813.177 245.565 812.953 245.789C812.734 246.008 812.464 246.117 812.141 246.117ZM816.859 246.117C816.542 246.117 816.271 246.008 816.047 245.789C815.823 245.565 815.711 245.294 815.711 244.977C815.711 244.659 815.823 244.388 816.047 244.164C816.271 243.94 816.542 243.828 816.859 243.828C817.182 243.828 817.453 243.94 817.672 244.164C817.896 244.388 818.008 244.659 818.008 244.977C818.008 245.294 817.896 245.565 817.672 245.789C817.453 246.008 817.182 246.117 816.859 246.117ZM821.578 246.117C821.26 246.117 820.99 246.008 820.766 245.789C820.542 245.565 820.43 245.294 820.43 244.977C820.43 244.659 820.542 244.388 820.766 244.164C820.99 243.94 821.26 243.828 821.578 243.828C821.901 243.828 822.172 243.94 822.391 244.164C822.615 244.388 822.727 244.659 822.727 244.977C822.727 245.294 822.615 245.565 822.391 245.789C822.172 246.008 821.901 246.117 821.578 246.117Z" fill="#111827"/>
</svg>
