<svg width="280" height="161" viewBox="0 0 280 161" fill="none" xmlns="http://www.w3.org/2000/svg">
<rect width="280" height="160" transform="translate(0 0.5)" fill="#0F0F11"/>
<rect x="30" y="60.5" width="40" height="40" rx="4" fill="#1D4ED8"/>
<path d="M61.1473 71.0869L56.2102 68.7117C55.6357 68.4342 54.9524 68.5512 54.5032 69.0005L45.0467 77.629L40.9256 74.5038C40.5431 74.2106 40.0039 74.2346 39.6484 74.5586L38.3284 75.7615C37.8912 76.156 37.8912 76.8438 38.3246 77.2382L41.8991 80.4999L38.3246 83.7616C37.8912 84.1561 37.8912 84.8438 38.3284 85.2383L39.6484 86.4412C40.0076 86.7652 40.5431 86.7892 40.9256 86.496L45.0467 83.3671L54.5077 91.9993C54.9532 92.4486 55.6364 92.5656 56.2109 92.2881L61.1525 89.9091C61.6723 89.6594 62 89.1359 62 88.5577V72.4369C62 71.8624 61.6678 71.3352 61.1488 71.0854L61.1473 71.0869ZM56.0024 85.95L48.8229 80.5007L56.0024 75.0513V85.95Z" fill="#EEEEF0"/>
<rect x="78" y="60.5" width="40" height="40" rx="4" fill="#1D4ED8"/>
<path fill-rule="evenodd" clip-rule="evenodd" d="M86 68.5H110V92.5H86V68.5ZM97.2798 87.9999H88.2798V89.4999H97.2798V87.9999ZM94.6998 71.6199V73.4199H93.3198V79.7199H94.6998V81.5799H89.7798V79.7199H91.1598V73.4199H89.7798V71.6199H94.6998ZM97.5198 81.2799C98.1333 81.5862 98.8148 81.7308 99.4998 81.6999C100.346 81.657 101.16 81.3647 101.84 80.8599C102.232 80.5019 102.522 80.0464 102.68 79.5399C102.861 79.0406 102.943 78.5105 102.92 77.9799V71.4999H100.7V77.9199C100.747 78.3706 100.618 78.8219 100.34 79.1799C100.11 79.4707 99.7498 79.6281 99.3798 79.5999C99.0435 79.6134 98.7103 79.5301 98.4198 79.3599C98.1112 79.1555 97.829 78.9136 97.5798 78.6399L96.1998 80.1999C96.5706 80.637 97.0179 81.003 97.5198 81.2799Z" fill="#EEEEF0"/>
<rect x="126" y="60.5" width="40" height="40" rx="4" fill="#1D4ED8"/>
<path fill-rule="evenodd" clip-rule="evenodd" d="M155.856 73.707L150.674 68.5V81.8309L155.009 88.3499L155.891 87.3929L155.856 73.707ZM141.216 68.501L154.506 88.7809L150.787 92.4998L137.49 72.2649L141.216 68.501ZM141.322 92.5L136.14 87.293L136.105 73.6071L136.987 72.6501L141.322 79.1691V92.5Z" fill="#EEEEF0"/>
<path d="M174 60.5V100.5" stroke="#3F3F46"/>
<rect x="183" y="60.5" width="67" height="40" rx="4" fill="#27272A"/>
<path d="M189.254 84.5L191.896 77.2246H192.97L195.646 84.5H194.669L193.126 80.1836C193.032 79.9167 192.921 79.5846 192.794 79.1875C192.67 78.7871 192.519 78.2777 192.34 77.6592H192.516C192.34 78.2842 192.187 78.8001 192.057 79.207C191.93 79.6107 191.824 79.9362 191.739 80.1836L190.24 84.5H189.254ZM190.582 82.4688V81.6582H194.317V82.4688H190.582ZM197.555 81.2285V84.5H196.676V79.041H197.521L197.525 80.3643H197.403C197.569 79.8597 197.805 79.5016 198.111 79.29C198.421 79.0785 198.782 78.9727 199.195 78.9727C199.563 78.9727 199.885 79.0492 200.162 79.2021C200.439 79.3519 200.654 79.5798 200.807 79.8857C200.963 80.1885 201.041 80.571 201.041 81.0332V84.5H200.162V81.1064C200.162 80.6865 200.051 80.3577 199.83 80.1201C199.612 79.8825 199.312 79.7637 198.932 79.7637C198.671 79.7637 198.437 79.8206 198.229 79.9346C198.02 80.0485 197.856 80.2145 197.735 80.4326C197.615 80.6507 197.555 80.916 197.555 81.2285ZM204.63 84.6172C204.177 84.6172 203.777 84.5016 203.429 84.2705C203.08 84.0394 202.809 83.7122 202.613 83.2891C202.418 82.8659 202.32 82.3646 202.32 81.7852C202.32 81.209 202.418 80.7109 202.613 80.291C202.812 79.8678 203.085 79.5423 203.434 79.3145C203.782 79.0866 204.182 78.9727 204.635 78.9727C204.99 78.9727 205.271 79.0312 205.479 79.1484C205.688 79.2656 205.847 79.3991 205.958 79.5488C206.072 79.6953 206.158 79.8174 206.217 79.915H206.285V77.2246H207.164V84.5H206.314V83.6553H206.217C206.158 83.7562 206.07 83.8831 205.953 84.0361C205.839 84.1859 205.676 84.321 205.465 84.4414C205.257 84.5586 204.978 84.6172 204.63 84.6172ZM204.762 83.8311C205.094 83.8311 205.374 83.7448 205.602 83.5723C205.829 83.3965 206.002 83.154 206.119 82.8447C206.236 82.5355 206.295 82.179 206.295 81.7754C206.295 81.3717 206.236 81.0202 206.119 80.7207C206.005 80.418 205.834 80.182 205.606 80.0127C205.379 79.8434 205.097 79.7588 204.762 79.7588C204.417 79.7588 204.129 79.8483 203.897 80.0273C203.67 80.2064 203.499 80.4489 203.385 80.7549C203.271 81.0576 203.214 81.3978 203.214 81.7754C203.214 82.1562 203.271 82.5029 203.385 82.8154C203.502 83.1247 203.676 83.3721 203.907 83.5576C204.138 83.7399 204.423 83.8311 204.762 83.8311ZM211.52 84.5V79.041H212.374L212.379 80.2617H212.311C212.385 79.9655 212.503 79.7214 212.662 79.5293C212.825 79.334 213.014 79.1875 213.229 79.0898C213.447 78.9922 213.673 78.9434 213.907 78.9434C214.304 78.9434 214.625 79.0654 214.869 79.3096C215.117 79.5537 215.276 79.8743 215.348 80.2715H215.23C215.296 79.998 215.414 79.762 215.587 79.5635C215.759 79.3649 215.968 79.2119 216.212 79.1045C216.459 78.9971 216.728 78.9434 217.018 78.9434C217.333 78.9434 217.621 79.0117 217.882 79.1484C218.142 79.2852 218.349 79.4919 218.502 79.7686C218.658 80.0452 218.736 80.3952 218.736 80.8184V84.5H217.853V80.8428C217.853 80.4489 217.742 80.1673 217.521 79.998C217.302 79.8288 217.047 79.7441 216.754 79.7441C216.51 79.7441 216.298 79.7962 216.119 79.9004C215.943 80.0013 215.807 80.1413 215.709 80.3203C215.615 80.4993 215.567 80.7044 215.567 80.9355V84.5H214.688V80.7549C214.688 80.4521 214.588 80.208 214.386 80.0225C214.184 79.8369 213.928 79.7441 213.619 79.7441C213.408 79.7441 213.207 79.7946 213.019 79.8955C212.833 79.9932 212.683 80.1396 212.569 80.335C212.455 80.5303 212.398 80.7728 212.398 81.0625V84.5H211.52ZM222.501 84.6172C222.006 84.6172 221.572 84.5 221.197 84.2656C220.826 84.0312 220.536 83.7025 220.328 83.2793C220.12 82.8561 220.016 82.3646 220.016 81.8047C220.016 81.235 220.12 80.7386 220.328 80.3154C220.536 79.889 220.826 79.5586 221.197 79.3242C221.572 79.0898 222.006 78.9727 222.501 78.9727C222.999 78.9727 223.435 79.0898 223.81 79.3242C224.184 79.5586 224.475 79.889 224.684 80.3154C224.892 80.7386 224.996 81.235 224.996 81.8047C224.996 82.3646 224.892 82.8561 224.684 83.2793C224.475 83.7025 224.184 84.0312 223.81 84.2656C223.435 84.5 222.999 84.6172 222.501 84.6172ZM222.501 83.8311C222.869 83.8311 223.172 83.7367 223.409 83.5479C223.647 83.359 223.823 83.1117 223.937 82.8057C224.05 82.4964 224.107 82.1628 224.107 81.8047C224.107 81.4434 224.05 81.1081 223.937 80.7988C223.823 80.4863 223.647 80.2357 223.409 80.0469C223.172 79.8548 222.869 79.7588 222.501 79.7588C222.136 79.7588 221.837 79.8548 221.603 80.0469C221.368 80.2357 221.194 80.4847 221.08 80.7939C220.966 81.1032 220.909 81.4401 220.909 81.8047C220.909 82.1628 220.966 82.4964 221.08 82.8057C221.194 83.1117 221.368 83.359 221.603 83.5479C221.837 83.7367 222.136 83.8311 222.501 83.8311ZM226.275 84.5V79.041H227.125V79.8809H227.184C227.285 79.6042 227.464 79.3828 227.721 79.2168C227.981 79.0475 228.274 78.9629 228.6 78.9629C228.665 78.9629 228.741 78.9645 228.829 78.9678C228.92 78.971 228.992 78.9743 229.044 78.9775V79.8613C229.018 79.8548 228.953 79.8451 228.849 79.832C228.744 79.819 228.634 79.8125 228.517 79.8125C228.256 79.8125 228.022 79.8678 227.813 79.9785C227.608 80.0859 227.447 80.2357 227.33 80.4277C227.213 80.6165 227.154 80.8346 227.154 81.082V84.5H226.275ZM232.174 84.6172C231.646 84.6172 231.191 84.5 230.807 84.2656C230.426 84.0312 230.131 83.7041 229.923 83.2842C229.718 82.8643 229.615 82.3743 229.615 81.8145C229.615 81.2546 229.716 80.7614 229.918 80.335C230.12 79.9085 230.405 79.5749 230.772 79.334C231.144 79.0931 231.576 78.9727 232.071 78.9727C232.361 78.9727 232.646 79.0215 232.926 79.1191C233.209 79.2135 233.465 79.3682 233.692 79.583C233.924 79.7946 234.107 80.0745 234.244 80.4229C234.381 80.7712 234.449 81.1976 234.449 81.7021V82.0684H230.211V81.3262H233.976L233.565 81.5996C233.565 81.2415 233.508 80.9242 233.395 80.6475C233.284 80.3675 233.118 80.1494 232.896 79.9932C232.675 79.8337 232.4 79.7539 232.071 79.7539C231.743 79.7539 231.461 79.8353 231.227 79.998C230.992 80.1576 230.813 80.3675 230.689 80.6279C230.566 80.8851 230.504 81.1618 230.504 81.458V81.9512C230.504 82.3548 230.574 82.6982 230.714 82.9814C230.854 83.2614 231.049 83.4746 231.3 83.6211C231.554 83.7643 231.847 83.8359 232.179 83.8359C232.394 83.8359 232.589 83.805 232.765 83.7432C232.94 83.6813 233.092 83.5885 233.219 83.4648C233.346 83.3379 233.443 83.1816 233.512 82.9961L234.361 83.2305C234.277 83.5039 234.133 83.7448 233.932 83.9531C233.73 84.1615 233.479 84.3242 233.18 84.4414C232.883 84.5586 232.548 84.6172 232.174 84.6172ZM236.378 84.5635C236.196 84.5635 236.039 84.5 235.909 84.373C235.782 84.2428 235.719 84.0866 235.719 83.9043C235.719 83.722 235.782 83.5674 235.909 83.4404C236.039 83.3102 236.196 83.2451 236.378 83.2451C236.56 83.2451 236.715 83.3102 236.842 83.4404C236.972 83.5674 237.037 83.722 237.037 83.9043C237.037 84.0866 236.972 84.2428 236.842 84.373C236.715 84.5 236.56 84.5635 236.378 84.5635ZM239.259 84.5635C239.076 84.5635 238.92 84.5 238.79 84.373C238.663 84.2428 238.6 84.0866 238.6 83.9043C238.6 83.722 238.663 83.5674 238.79 83.4404C238.92 83.3102 239.076 83.2451 239.259 83.2451C239.441 83.2451 239.596 83.3102 239.723 83.4404C239.853 83.5674 239.918 83.722 239.918 83.9043C239.918 84.0866 239.853 84.2428 239.723 84.373C239.596 84.5 239.441 84.5635 239.259 84.5635ZM242.14 84.5635C241.957 84.5635 241.801 84.5 241.671 84.373C241.544 84.2428 241.48 84.0866 241.48 83.9043C241.48 83.722 241.544 83.5674 241.671 83.4404C241.801 83.3102 241.957 83.2451 242.14 83.2451C242.322 83.2451 242.477 83.3102 242.604 83.4404C242.734 83.5674 242.799 83.722 242.799 83.9043C242.799 84.0866 242.734 84.2428 242.604 84.373C242.477 84.5 242.322 84.5635 242.14 84.5635Z" fill="#EEEEF0"/>
</svg>
