<svg viewBox="0 0 320 350" fill="none" xmlns="http://www.w3.org/2000/svg" preserveAspectRatio="none">
<g clip-path="url(#clip0_926_346780)">
<rect width="320" height="350" fill="#0F0F11"/>
<path d="M0 -555V348.5" stroke="#27272A"/>
<path d="M32 -555V348.5" stroke="#27272A"/>
<path d="M64 -555V348.5" stroke="#27272A"/>
<path d="M96 -555V348.5" stroke="#27272A"/>
<path d="M128 -555V348.5" stroke="#27272A"/>
<path d="M160 -555V348.5" stroke="#27272A"/>
<path d="M192 -555V348.5" stroke="#27272A"/>
<path d="M224 -555V348.5" stroke="#27272A"/>
<path d="M256 -555V348.5" stroke="#27272A"/>
<path d="M288 -555V348.5" stroke="#27272A"/>
<path d="M320 -555V348.5" stroke="#27272A"/>
<path d="M320 21L1.41962e-05 21" stroke="#27272A"/>
<path d="M320 53L1.41962e-05 53" stroke="#27272A"/>
<path d="M320 85L1.41962e-05 85" stroke="#27272A"/>
<path d="M320 117L1.41962e-05 117" stroke="#27272A"/>
<path d="M320 149L1.41962e-05 149" stroke="#27272A"/>
<path d="M320 181L1.41962e-05 181" stroke="#27272A"/>
<path d="M320 213L1.41962e-05 213" stroke="#27272A"/>
<path d="M320 245L1.41962e-05 245" stroke="#27272A"/>
<path d="M320 277L1.41962e-05 277" stroke="#27272A"/>
<path d="M320 309L1.41962e-05 309" stroke="#27272A"/>
<path d="M320 341L1.41962e-05 341" stroke="#27272A"/>
<rect y="348.502" width="903.501" height="38.5703" transform="rotate(-90 0 348.502)" fill="url(#paint0_linear_926_346780)"/>
<rect x="320" y="-555" width="903.501" height="40" transform="rotate(90 320 -555)" fill="url(#paint1_linear_926_346780)"/>
<rect width="320" height="39.9769" transform="matrix(1 0 0 -1 0 349.5)" fill="url(#paint2_linear_926_346780)"/>
<rect y="-555" width="320" height="735.594" fill="url(#paint3_linear_926_346780)"/>
<rect x="96.6953" y="180.5" width="127.236" height="33.293" fill="#1D4ED8"/>
<path d="M223.932 180.5H318.578V213.793H223.932V180.5Z" fill="url(#paint4_linear_926_346780)"/>
<path d="M96.7168 180.5H0.447264V213.076H96.7168V180.5Z" fill="url(#paint5_linear_926_346780)"/>
<rect width="96" height="32" transform="translate(127.994 85.5)" fill="#1D4ED8"/>
<path d="M161.611 107.656C160.596 107.656 159.692 107.417 158.9 106.938C158.109 106.458 157.484 105.773 157.025 104.883C156.572 103.987 156.346 102.922 156.346 101.688C156.346 100.448 156.572 99.3828 157.025 98.4922C157.484 97.5964 158.109 96.9089 158.9 96.4297C159.697 95.9453 160.601 95.7031 161.611 95.7031C162.226 95.7031 162.804 95.7917 163.346 95.9688C163.887 96.1458 164.369 96.4062 164.791 96.75C165.218 97.0885 165.572 97.5 165.854 97.9844C166.135 98.4688 166.325 99.0208 166.424 99.6406H164.635C164.557 99.2656 164.426 98.9349 164.244 98.6484C164.062 98.362 163.835 98.1198 163.564 97.9219C163.299 97.7188 163.002 97.5677 162.674 97.4688C162.346 97.3698 161.997 97.3203 161.627 97.3203C160.95 97.3203 160.346 97.4896 159.814 97.8281C159.283 98.1667 158.867 98.6615 158.564 99.3125C158.262 99.9635 158.111 100.755 158.111 101.688C158.111 102.62 158.262 103.411 158.564 104.062C158.872 104.708 159.291 105.201 159.822 105.539C160.354 105.872 160.955 106.039 161.627 106.039C161.992 106.039 162.338 105.99 162.666 105.891C162.999 105.786 163.299 105.635 163.564 105.438C163.835 105.24 164.062 104.997 164.244 104.711C164.432 104.424 164.562 104.094 164.635 103.719H166.424C166.335 104.302 166.156 104.833 165.885 105.312C165.614 105.792 165.265 106.208 164.838 106.562C164.416 106.911 163.932 107.182 163.385 107.375C162.843 107.562 162.252 107.656 161.611 107.656ZM172.002 107.68C171.184 107.68 170.471 107.495 169.861 107.125C169.257 106.75 168.786 106.227 168.447 105.555C168.109 104.878 167.939 104.094 167.939 103.203C167.939 102.302 168.109 101.516 168.447 100.844C168.786 100.167 169.257 99.6406 169.861 99.2656C170.471 98.8906 171.184 98.7031 172.002 98.7031C172.82 98.7031 173.533 98.8906 174.143 99.2656C174.757 99.6406 175.231 100.167 175.564 100.844C175.903 101.516 176.072 102.302 176.072 103.203C176.072 104.094 175.903 104.878 175.564 105.555C175.231 106.227 174.757 106.75 174.143 107.125C173.533 107.495 172.82 107.68 172.002 107.68ZM172.002 106.234C172.528 106.234 172.963 106.099 173.307 105.828C173.656 105.552 173.913 105.185 174.08 104.727C174.252 104.263 174.338 103.755 174.338 103.203C174.338 102.641 174.252 102.13 174.08 101.672C173.913 101.208 173.656 100.839 173.307 100.562C172.963 100.286 172.528 100.148 172.002 100.148C171.481 100.148 171.049 100.286 170.705 100.562C170.361 100.839 170.104 101.208 169.932 101.672C169.765 102.13 169.682 102.641 169.682 103.203C169.682 103.76 169.765 104.268 169.932 104.727C170.104 105.185 170.361 105.552 170.705 105.828C171.049 106.099 171.481 106.234 172.002 106.234ZM181.174 107.672C180.471 107.672 179.843 107.492 179.291 107.133C178.744 106.768 178.314 106.25 178.002 105.578C177.689 104.906 177.533 104.107 177.533 103.18C177.533 102.242 177.689 101.44 178.002 100.773C178.32 100.102 178.752 99.5885 179.299 99.2344C179.851 98.8802 180.476 98.7031 181.174 98.7031C181.7 98.7031 182.127 98.7891 182.455 98.9609C182.783 99.1328 183.044 99.3359 183.236 99.5703C183.434 99.8047 183.588 100.021 183.697 100.219H183.783V95.8594H185.494V107.5H183.822V106.148H183.697C183.588 106.346 183.434 106.565 183.236 106.805C183.038 107.039 182.773 107.242 182.439 107.414C182.111 107.586 181.689 107.672 181.174 107.672ZM181.549 106.211C182.038 106.211 182.45 106.083 182.783 105.828C183.122 105.573 183.38 105.216 183.557 104.758C183.734 104.299 183.822 103.768 183.822 103.164C183.822 102.56 183.734 102.034 183.557 101.586C183.385 101.138 183.13 100.789 182.791 100.539C182.452 100.289 182.038 100.164 181.549 100.164C181.054 100.164 180.637 100.294 180.299 100.555C179.96 100.815 179.705 101.172 179.533 101.625C179.367 102.073 179.283 102.586 179.283 103.164C179.283 103.747 179.369 104.268 179.541 104.727C179.713 105.185 179.968 105.547 180.307 105.812C180.645 106.078 181.059 106.211 181.549 106.211ZM191.502 107.68C190.648 107.68 189.911 107.495 189.291 107.125C188.671 106.755 188.195 106.237 187.861 105.57C187.528 104.898 187.361 104.115 187.361 103.219C187.361 102.328 187.525 101.544 187.854 100.867C188.187 100.19 188.653 99.6615 189.252 99.2812C189.856 98.8958 190.559 98.7031 191.361 98.7031C191.872 98.7031 192.359 98.7865 192.822 98.9531C193.291 99.1198 193.708 99.3802 194.072 99.7344C194.437 100.089 194.726 100.542 194.939 101.094C195.153 101.646 195.26 102.307 195.26 103.078V103.672H188.299V102.391H194.377L193.58 102.812C193.58 102.281 193.494 101.812 193.322 101.406C193.156 101 192.908 100.685 192.58 100.461C192.257 100.232 191.854 100.117 191.369 100.117C190.885 100.117 190.471 100.234 190.127 100.469C189.788 100.698 189.528 101.005 189.346 101.391C189.163 101.771 189.072 102.19 189.072 102.648V103.5C189.072 104.089 189.174 104.591 189.377 105.008C189.58 105.419 189.864 105.732 190.229 105.945C190.598 106.159 191.028 106.266 191.518 106.266C191.846 106.266 192.14 106.219 192.4 106.125C192.666 106.031 192.893 105.891 193.08 105.703C193.268 105.516 193.411 105.286 193.51 105.016L195.119 105.359C194.989 105.818 194.757 106.221 194.424 106.57C194.09 106.919 193.676 107.193 193.182 107.391C192.687 107.583 192.127 107.68 191.502 107.68Z" fill="#EEEEF0"/>
<rect width="96" height="32" transform="translate(64 277.5)" fill="#1D4ED8"/>
<path d="M96.1719 289.391V287.859H105.219V289.391H101.586V299.5H99.8125V289.391H96.1719ZM109.43 299.68C108.576 299.68 107.839 299.495 107.219 299.125C106.599 298.755 106.122 298.237 105.789 297.57C105.456 296.898 105.289 296.115 105.289 295.219C105.289 294.328 105.453 293.544 105.781 292.867C106.115 292.19 106.581 291.661 107.18 291.281C107.784 290.896 108.487 290.703 109.289 290.703C109.799 290.703 110.286 290.786 110.75 290.953C111.219 291.12 111.635 291.38 112 291.734C112.365 292.089 112.654 292.542 112.867 293.094C113.081 293.646 113.188 294.307 113.188 295.078V295.672H106.227V294.391H112.305L111.508 294.812C111.508 294.281 111.422 293.812 111.25 293.406C111.083 293 110.836 292.685 110.508 292.461C110.185 292.232 109.781 292.117 109.297 292.117C108.812 292.117 108.398 292.234 108.055 292.469C107.716 292.698 107.456 293.005 107.273 293.391C107.091 293.771 107 294.19 107 294.648V295.5C107 296.089 107.102 296.591 107.305 297.008C107.508 297.419 107.792 297.732 108.156 297.945C108.526 298.159 108.956 298.266 109.445 298.266C109.773 298.266 110.068 298.219 110.328 298.125C110.594 298.031 110.82 297.891 111.008 297.703C111.195 297.516 111.339 297.286 111.438 297.016L113.047 297.359C112.917 297.818 112.685 298.221 112.352 298.57C112.018 298.919 111.604 299.193 111.109 299.391C110.615 299.583 110.055 299.68 109.43 299.68ZM118.148 299.68C117.513 299.68 116.948 299.589 116.453 299.406C115.964 299.219 115.56 298.945 115.242 298.586C114.93 298.221 114.727 297.779 114.633 297.258L116.25 296.961C116.365 297.414 116.583 297.75 116.906 297.969C117.229 298.188 117.646 298.297 118.156 298.297C118.708 298.297 119.146 298.182 119.469 297.953C119.797 297.724 119.961 297.448 119.961 297.125C119.961 296.844 119.857 296.615 119.648 296.438C119.445 296.255 119.141 296.117 118.734 296.023L117.273 295.695C116.466 295.513 115.865 295.224 115.469 294.828C115.073 294.427 114.875 293.914 114.875 293.289C114.875 292.773 115.018 292.323 115.305 291.938C115.591 291.547 115.987 291.245 116.492 291.031C116.997 290.812 117.578 290.703 118.234 290.703C118.859 290.703 119.398 290.797 119.852 290.984C120.305 291.172 120.669 291.432 120.945 291.766C121.227 292.099 121.422 292.49 121.531 292.938L119.984 293.242C119.885 292.924 119.698 292.648 119.422 292.414C119.151 292.174 118.76 292.055 118.25 292.055C117.776 292.055 117.38 292.161 117.062 292.375C116.75 292.589 116.594 292.862 116.594 293.195C116.594 293.482 116.701 293.716 116.914 293.898C117.128 294.076 117.466 294.216 117.93 294.32L119.336 294.633C120.143 294.815 120.742 295.102 121.133 295.492C121.523 295.878 121.719 296.375 121.719 296.984C121.719 297.516 121.568 297.984 121.266 298.391C120.964 298.792 120.544 299.107 120.008 299.336C119.471 299.565 118.852 299.68 118.148 299.68ZM127.336 290.82V292.211H122.594V290.82H127.336ZM123.883 288.719H125.594V297.156C125.594 297.505 125.667 297.76 125.812 297.922C125.958 298.078 126.201 298.156 126.539 298.156C126.633 298.156 126.753 298.148 126.898 298.133C127.044 298.112 127.169 298.091 127.273 298.07L127.547 299.445C127.37 299.503 127.177 299.542 126.969 299.562C126.76 299.589 126.557 299.602 126.359 299.602C125.568 299.602 124.956 299.404 124.523 299.008C124.096 298.607 123.883 298.039 123.883 297.305V288.719Z" fill="#EEEEF0"/>
<path d="M156.521 123.121C156.521 125.33 158.312 127.121 160.521 127.121C162.731 127.121 164.521 125.33 164.521 123.121C164.521 120.912 162.731 119.121 160.521 119.121C158.312 119.121 156.521 120.912 156.521 123.121ZM161.271 177.188L161.271 123.121L159.771 123.121L159.771 177.188L161.271 177.188Z" fill="#1E40AF"/>
<path d="M283.891 123.121C283.891 125.33 285.681 127.121 287.891 127.121C290.1 127.121 291.891 125.33 291.891 123.121C291.891 120.912 290.1 119.121 287.891 119.121C285.681 119.121 283.891 120.912 283.891 123.121ZM288.641 177.188L288.641 123.121L287.141 123.121L287.141 177.188L288.641 177.188Z" fill="#3F3F46"/>
<path d="M60 123.121C60 125.33 61.7909 127.121 64 127.121C66.2091 127.121 68 125.33 68 123.121C68 120.912 66.2091 119.121 64 119.121C61.7909 119.121 60 120.912 60 123.121ZM64.75 177.188L64.75 123.121L63.25 123.121L63.25 177.188L64.75 177.188Z" fill="#3F3F46"/>
<path d="M123.994 271.076C123.994 273.285 125.785 275.076 127.994 275.076C130.203 275.076 131.994 273.285 131.994 271.076C131.994 268.867 130.203 267.076 127.994 267.076C125.785 267.076 123.994 268.867 123.994 271.076ZM128.744 271.076V216.076H127.244V271.076H128.744Z" fill="#1E40AF"/>
<path d="M252.006 271.076C252.006 273.285 253.797 275.076 256.006 275.076C258.215 275.076 260.006 273.285 260.006 271.076C260.006 268.867 258.215 267.076 256.006 267.076C253.797 267.076 252.006 268.867 252.006 271.076ZM256.756 271.076V216.076H255.256V271.076H256.756Z" fill="#3F3F46"/>
<path d="M127.933 196.642C127.844 196.552 127.844 196.408 127.933 196.318L132.532 191.729C132.622 191.639 132.767 191.639 132.856 191.729L137.455 196.318C137.545 196.408 137.545 196.552 137.455 196.642L132.856 201.231C132.767 201.321 132.622 201.321 132.532 201.231L127.933 196.642Z" fill="#EEEEF0"/>
<path d="M129.721 188.567C129.631 188.478 129.486 188.478 129.397 188.567L121.61 196.338C121.521 196.428 121.521 196.572 121.61 196.662L129.397 204.433C129.486 204.522 129.631 204.522 129.721 204.433L131.004 203.152C131.094 203.063 131.094 202.918 131.004 202.829L124.795 196.632C124.706 196.543 124.706 196.398 124.795 196.309L130.974 190.141C131.064 190.052 131.064 189.907 130.974 189.818L129.721 188.567Z" fill="#EEEEF0"/>
<path d="M141.521 202.367V190.633H143.562V197.506L146.112 194.052H148.416L145.421 198.083L148.482 202.367H146.178L143.562 198.709V202.367H141.521Z" fill="#EEEEF0"/>
<path d="M193.629 199.108C193.64 199.595 193.767 199.95 194.01 200.173C194.264 200.385 194.624 200.491 195.09 200.491C196.074 200.491 196.952 200.459 197.725 200.395L198.169 200.348L198.201 201.921C196.984 202.218 195.883 202.366 194.899 202.366C193.703 202.366 192.836 202.048 192.296 201.413C191.756 200.777 191.486 199.744 191.486 198.313C191.486 195.463 192.656 194.038 194.994 194.038C197.301 194.038 198.455 195.235 198.455 197.63L198.296 199.108H193.629ZM196.36 197.487C196.36 196.851 196.259 196.411 196.058 196.167C195.857 195.913 195.502 195.786 194.994 195.786C194.497 195.786 194.143 195.918 193.931 196.183C193.73 196.438 193.624 196.872 193.613 197.487H196.36Z" fill="#EEEEF0"/>
<path d="M190.218 196.04H188.266V199.299C188.266 199.617 188.271 199.845 188.282 199.982C188.303 200.11 188.361 200.221 188.456 200.316C188.562 200.412 188.721 200.459 188.932 200.459L190.139 200.427L190.234 202.128C189.525 202.287 188.985 202.367 188.615 202.367C187.663 202.367 187.012 202.155 186.662 201.731C186.313 201.296 186.139 200.502 186.139 199.347V196.04V194.038V190.636H188.266V194.038H190.218V196.04Z" fill="#EEEEF0"/>
<path d="M182.381 202.367V194.038H184.508V202.367H182.381ZM182.381 192.798V190.636H184.508V192.798H182.381Z" fill="#EEEEF0"/>
<path d="M178.623 202.367L178.623 190.638H180.75L180.75 202.367H178.623Z" fill="#EEEEF0"/>
<path d="M176.992 190.638L176.992 202.367H174.881V201.842C174.14 202.192 173.5 202.367 172.961 202.367C171.807 202.367 171.003 202.033 170.548 201.365C170.093 200.698 169.865 199.643 169.865 198.202C169.865 196.751 170.135 195.696 170.675 195.039C171.225 194.372 172.05 194.038 173.151 194.038C173.49 194.038 173.961 194.091 174.564 194.197L174.865 194.26L174.865 190.638H176.992ZM174.643 200.269L174.865 200.221V196.041C174.283 195.935 173.765 195.882 173.31 195.882C172.453 195.882 172.024 196.645 172.024 198.171C172.024 198.997 172.119 199.585 172.31 199.935C172.5 200.285 172.812 200.459 173.246 200.459C173.691 200.459 174.156 200.396 174.643 200.269Z" fill="#EEEEF0"/>
<path d="M166.485 194.038H168.612V202.366H166.501V201.731C165.739 202.154 165.077 202.366 164.516 202.366C163.416 202.366 162.675 202.064 162.294 201.46C161.913 200.846 161.723 199.823 161.723 198.393V194.038H163.85V198.425C163.85 199.209 163.913 199.744 164.04 200.03C164.167 200.316 164.474 200.459 164.961 200.459C165.426 200.459 165.866 200.385 166.278 200.237L166.485 200.173V194.038Z" fill="#EEEEF0"/>
<path d="M154.007 195.134C154.568 194.403 155.505 194.038 156.817 194.038C158.129 194.038 159.066 194.403 159.627 195.134C160.187 195.855 160.468 196.872 160.468 198.186C160.468 200.973 159.251 202.366 156.817 202.366C154.383 202.366 153.166 200.973 153.166 198.186C153.166 196.872 153.446 195.855 154.007 195.134ZM155.642 199.982C155.865 200.364 156.256 200.554 156.817 200.554C157.378 200.554 157.764 200.364 157.976 199.982C158.198 199.601 158.309 199.002 158.309 198.186C158.309 197.37 158.198 196.777 157.976 196.406C157.764 196.035 157.378 195.85 156.817 195.85C156.256 195.85 155.865 196.035 155.642 196.406C155.431 196.777 155.325 197.37 155.325 198.186C155.325 199.002 155.431 199.601 155.642 199.982Z" fill="#EEEEF0"/>
<path d="M149.785 202.367L149.736 190.638H151.863L151.912 202.367H149.785Z" fill="#EEEEF0"/>
<rect x="256.006" y="85.5" width="75" height="32" fill="#27272A"/>
<rect x="256.006" y="85.5" width="75" height="32" stroke="#27272A" stroke-width="0.5"/>
<path d="M269.193 107.688C268.313 107.688 267.55 107.549 266.904 107.273C266.264 106.992 265.761 106.591 265.396 106.07C265.037 105.549 264.839 104.927 264.803 104.203H266.584C266.62 104.635 266.756 104.995 266.99 105.281C267.23 105.568 267.54 105.784 267.92 105.93C268.3 106.07 268.722 106.141 269.186 106.141C269.68 106.141 270.12 106.062 270.506 105.906C270.891 105.75 271.193 105.531 271.412 105.25C271.636 104.969 271.748 104.641 271.748 104.266C271.748 103.932 271.654 103.659 271.467 103.445C271.279 103.227 271.019 103.044 270.686 102.898C270.357 102.753 269.975 102.622 269.537 102.508L268.186 102.148C267.206 101.888 266.449 101.508 265.912 101.008C265.381 100.503 265.115 99.8516 265.115 99.0547C265.115 98.3828 265.295 97.7943 265.654 97.2891C266.019 96.7839 266.511 96.3932 267.131 96.1172C267.756 95.8411 268.462 95.7031 269.248 95.7031C270.05 95.7031 270.753 95.8438 271.357 96.125C271.967 96.401 272.443 96.7865 272.787 97.2812C273.136 97.7708 273.318 98.3333 273.334 98.9688H271.607C271.55 98.4219 271.303 97.9974 270.865 97.6953C270.428 97.3932 269.876 97.2422 269.209 97.2422C268.74 97.2422 268.331 97.3177 267.982 97.4688C267.633 97.6146 267.363 97.8177 267.17 98.0781C266.982 98.3333 266.889 98.6276 266.889 98.9609C266.889 99.3151 266.998 99.6068 267.217 99.8359C267.436 100.06 267.706 100.24 268.029 100.375C268.357 100.51 268.683 100.62 269.006 100.703L270.146 101C270.542 101.099 270.938 101.232 271.334 101.398C271.73 101.56 272.092 101.768 272.42 102.023C272.748 102.273 273.011 102.583 273.209 102.953C273.407 103.323 273.506 103.763 273.506 104.273C273.506 104.935 273.334 105.523 272.99 106.039C272.652 106.555 272.16 106.958 271.514 107.25C270.873 107.542 270.1 107.688 269.193 107.688ZM279.186 107.68C278.331 107.68 277.594 107.495 276.975 107.125C276.355 106.755 275.878 106.237 275.545 105.57C275.212 104.898 275.045 104.115 275.045 103.219C275.045 102.328 275.209 101.544 275.537 100.867C275.87 100.19 276.337 99.6615 276.936 99.2812C277.54 98.8958 278.243 98.7031 279.045 98.7031C279.555 98.7031 280.042 98.7865 280.506 98.9531C280.975 99.1198 281.391 99.3802 281.756 99.7344C282.12 100.089 282.41 100.542 282.623 101.094C282.837 101.646 282.943 102.307 282.943 103.078V103.672H275.982V102.391H282.061L281.264 102.812C281.264 102.281 281.178 101.812 281.006 101.406C280.839 101 280.592 100.685 280.264 100.461C279.941 100.232 279.537 100.117 279.053 100.117C278.568 100.117 278.154 100.234 277.811 100.469C277.472 100.698 277.212 101.005 277.029 101.391C276.847 101.771 276.756 102.19 276.756 102.648V103.5C276.756 104.089 276.857 104.591 277.061 105.008C277.264 105.419 277.548 105.732 277.912 105.945C278.282 106.159 278.712 106.266 279.201 106.266C279.529 106.266 279.824 106.219 280.084 106.125C280.35 106.031 280.576 105.891 280.764 105.703C280.951 105.516 281.094 105.286 281.193 105.016L282.803 105.359C282.673 105.818 282.441 106.221 282.107 106.57C281.774 106.919 281.36 107.193 280.865 107.391C280.37 107.583 279.811 107.68 279.186 107.68ZM288.545 98.8203V100.211H283.803V98.8203H288.545ZM285.092 96.7188H286.803V105.156C286.803 105.505 286.876 105.76 287.021 105.922C287.167 106.078 287.41 106.156 287.748 106.156C287.842 106.156 287.962 106.148 288.107 106.133C288.253 106.112 288.378 106.091 288.482 106.07L288.756 107.445C288.579 107.503 288.386 107.542 288.178 107.562C287.969 107.589 287.766 107.602 287.568 107.602C286.777 107.602 286.165 107.404 285.732 107.008C285.305 106.607 285.092 106.039 285.092 105.305V96.7188ZM293.178 107.617C292.589 107.617 292.068 107.492 291.615 107.242C291.167 106.992 290.818 106.622 290.568 106.133C290.324 105.643 290.201 105.039 290.201 104.32V98.8203H291.912V104.109C291.912 104.745 292.076 105.24 292.404 105.594C292.732 105.948 293.18 106.125 293.748 106.125C294.139 106.125 294.485 106.042 294.787 105.875C295.094 105.703 295.334 105.456 295.506 105.133C295.683 104.805 295.771 104.409 295.771 103.945V98.8203H297.49V107.5H295.85L295.842 105.375H296.037C295.777 106.156 295.402 106.727 294.912 107.086C294.428 107.44 293.85 107.617 293.178 107.617ZM299.764 110.766V98.8203H301.428V100.219H301.561C301.67 100.021 301.821 99.8047 302.014 99.5703C302.206 99.3359 302.467 99.1328 302.795 98.9609C303.128 98.7891 303.555 98.7031 304.076 98.7031C304.779 98.7031 305.404 98.8802 305.951 99.2344C306.498 99.5885 306.928 100.102 307.24 100.773C307.558 101.44 307.717 102.242 307.717 103.18C307.717 104.107 307.561 104.906 307.248 105.578C306.941 106.25 306.514 106.768 305.967 107.133C305.42 107.492 304.79 107.672 304.076 107.672C303.571 107.672 303.152 107.586 302.818 107.414C302.485 107.242 302.219 107.039 302.021 106.805C301.829 106.565 301.675 106.346 301.561 106.148H301.475V110.766H299.764ZM303.701 106.211C304.196 106.211 304.613 106.078 304.951 105.812C305.29 105.547 305.545 105.185 305.717 104.727C305.889 104.268 305.975 103.747 305.975 103.164C305.975 102.586 305.889 102.073 305.717 101.625C305.545 101.172 305.29 100.815 304.951 100.555C304.618 100.294 304.201 100.164 303.701 100.164C303.212 100.164 302.798 100.289 302.459 100.539C302.126 100.789 301.87 101.138 301.693 101.586C301.521 102.034 301.436 102.56 301.436 103.164C301.436 103.768 301.524 104.299 301.701 104.758C301.878 105.216 302.136 105.573 302.475 105.828C302.813 106.083 303.222 106.211 303.701 106.211ZM313.943 107.5V95.8594H315.717V105.969H321.014V107.5H313.943ZM326.482 107.68C325.665 107.68 324.951 107.495 324.342 107.125C323.738 106.75 323.266 106.227 322.928 105.555C322.589 104.878 322.42 104.094 322.42 103.203C322.42 102.302 322.589 101.516 322.928 100.844C323.266 100.167 323.738 99.6406 324.342 99.2656C324.951 98.8906 325.665 98.7031 326.482 98.7031C327.3 98.7031 328.014 98.8906 328.623 99.2656C329.238 99.6406 329.712 100.167 330.045 100.844C330.383 101.516 330.553 102.302 330.553 103.203C330.553 104.094 330.383 104.878 330.045 105.555C329.712 106.227 329.238 106.75 328.623 107.125C328.014 107.495 327.3 107.68 326.482 107.68ZM326.482 106.234C327.008 106.234 327.443 106.099 327.787 105.828C328.136 105.552 328.394 105.185 328.561 104.727C328.732 104.263 328.818 103.755 328.818 103.203C328.818 102.641 328.732 102.13 328.561 101.672C328.394 101.208 328.136 100.839 327.787 100.562C327.443 100.286 327.008 100.148 326.482 100.148C325.962 100.148 325.529 100.286 325.186 100.562C324.842 100.839 324.584 101.208 324.412 101.672C324.245 102.13 324.162 102.641 324.162 103.203C324.162 103.76 324.245 104.268 324.412 104.727C324.584 105.185 324.842 105.552 325.186 105.828C325.529 106.099 325.962 106.234 326.482 106.234ZM336.076 107.68C335.258 107.68 334.545 107.495 333.936 107.125C333.326 106.75 332.852 106.227 332.514 105.555C332.18 104.878 332.014 104.094 332.014 103.203C332.014 102.302 332.18 101.516 332.514 100.844C332.852 100.167 333.326 99.6406 333.936 99.2656C334.545 98.8906 335.258 98.7031 336.076 98.7031C336.535 98.7031 336.962 98.763 337.357 98.8828C337.758 99.0026 338.118 99.1771 338.436 99.4062C338.753 99.6302 339.021 99.9062 339.24 100.234C339.459 100.557 339.62 100.922 339.725 101.328L338.092 101.672C338.04 101.448 337.954 101.242 337.834 101.055C337.714 100.867 337.568 100.708 337.396 100.578C337.23 100.443 337.035 100.339 336.811 100.266C336.592 100.188 336.35 100.148 336.084 100.148C335.563 100.148 335.131 100.286 334.787 100.562C334.443 100.833 334.186 101.201 334.014 101.664C333.842 102.122 333.756 102.635 333.756 103.203C333.756 103.76 333.842 104.268 334.014 104.727C334.186 105.185 334.441 105.552 334.779 105.828C335.123 106.099 335.558 106.234 336.084 106.234C336.355 106.234 336.602 106.198 336.826 106.125C337.05 106.047 337.248 105.938 337.42 105.797C337.597 105.656 337.743 105.49 337.857 105.297C337.977 105.099 338.066 104.883 338.123 104.648L339.748 105C339.649 105.411 339.488 105.784 339.264 106.117C339.045 106.445 338.774 106.727 338.451 106.961C338.133 107.195 337.771 107.375 337.365 107.5C336.964 107.62 336.535 107.68 336.076 107.68ZM344.803 107.672C344.105 107.672 343.48 107.492 342.928 107.133C342.381 106.768 341.951 106.25 341.639 105.578C341.326 104.906 341.17 104.107 341.17 103.18C341.17 102.242 341.329 101.44 341.646 100.773C341.964 100.102 342.399 99.5885 342.951 99.2344C343.503 98.8802 344.128 98.7031 344.826 98.7031C345.347 98.7031 345.771 98.7891 346.1 98.9609C346.433 99.1276 346.696 99.3307 346.889 99.5703C347.081 99.8047 347.23 100.021 347.334 100.219H347.428V98.8203H349.131V107.5H347.443V106.148H347.334C347.23 106.346 347.076 106.565 346.873 106.805C346.675 107.044 346.41 107.25 346.076 107.422C345.743 107.589 345.318 107.672 344.803 107.672ZM345.201 106.211C345.686 106.211 346.097 106.083 346.436 105.828C346.774 105.573 347.029 105.216 347.201 104.758C347.378 104.299 347.467 103.768 347.467 103.164C347.467 102.56 347.378 102.034 347.201 101.586C347.029 101.138 346.774 100.789 346.436 100.539C346.102 100.289 345.691 100.164 345.201 100.164C344.701 100.164 344.282 100.294 343.943 100.555C343.605 100.81 343.35 101.164 343.178 101.617C343.006 102.065 342.92 102.581 342.92 103.164C342.92 103.747 343.006 104.268 343.178 104.727C343.355 105.185 343.613 105.547 343.951 105.812C344.29 106.078 344.706 106.211 345.201 106.211ZM353.115 95.8594V107.5H351.404V95.8594H353.115ZM359.725 107.5V95.8594H367.107V97.3906H361.498V100.859H366.709V102.375H361.498V105.969H367.154V107.5H359.725ZM370.928 102.375V107.5H369.217V98.8203H370.85L370.865 100.945H370.67C370.925 100.169 371.292 99.6016 371.771 99.2422C372.256 98.8828 372.842 98.7031 373.529 98.7031C374.123 98.7031 374.641 98.8281 375.084 99.0781C375.532 99.3281 375.878 99.6979 376.123 100.188C376.373 100.672 376.498 101.273 376.498 101.992V107.5H374.787V102.211C374.787 101.576 374.623 101.081 374.295 100.727C373.972 100.372 373.524 100.195 372.951 100.195C372.566 100.195 372.219 100.281 371.912 100.453C371.61 100.62 371.37 100.865 371.193 101.188C371.016 101.51 370.928 101.906 370.928 102.375ZM380.99 107.5L377.709 98.8203H379.553L381.271 103.734C381.459 104.266 381.62 104.799 381.756 105.336C381.896 105.872 382.04 106.404 382.186 106.93H381.686C381.831 106.404 381.972 105.875 382.107 105.344C382.243 104.807 382.402 104.271 382.584 103.734L384.295 98.8203H386.131L382.85 107.5H380.99Z" fill="#52525B"/>
<path d="M264.006 102.258H386.475V103.484H264.006V102.258Z" fill="#52525B"/>
<rect x="213.053" y="277.5" width="86" height="32" fill="#27272A"/>
<rect x="213.053" y="277.5" width="86" height="32" stroke="#27272A" stroke-width="0.5"/>
<path d="M238.318 299.5V287.859H242.615C243.438 287.859 244.12 287.995 244.662 288.266C245.209 288.531 245.618 288.896 245.889 289.359C246.16 289.818 246.295 290.336 246.295 290.914C246.295 291.398 246.206 291.807 246.029 292.141C245.852 292.469 245.615 292.734 245.318 292.938C245.021 293.141 244.691 293.289 244.326 293.383V293.484C244.722 293.51 245.105 293.638 245.475 293.867C245.844 294.096 246.149 294.419 246.389 294.836C246.628 295.253 246.748 295.758 246.748 296.352C246.748 296.951 246.607 297.487 246.326 297.961C246.045 298.435 245.613 298.81 245.029 299.086C244.446 299.362 243.701 299.5 242.795 299.5H238.318ZM240.092 297.977H242.623C243.451 297.977 244.05 297.818 244.42 297.5C244.79 297.177 244.975 296.768 244.975 296.273C244.975 295.898 244.881 295.56 244.693 295.258C244.511 294.956 244.248 294.716 243.904 294.539C243.566 294.362 243.162 294.273 242.693 294.273H240.092V297.977ZM240.092 292.891H242.459C242.855 292.891 243.209 292.818 243.521 292.672C243.839 292.521 244.089 292.31 244.271 292.039C244.454 291.763 244.545 291.44 244.545 291.07C244.545 290.581 244.376 290.177 244.037 289.859C243.699 289.536 243.186 289.375 242.498 289.375H240.092V292.891ZM251.646 299.617C251.058 299.617 250.537 299.492 250.084 299.242C249.636 298.992 249.287 298.622 249.037 298.133C248.792 297.643 248.67 297.039 248.67 296.32V290.82H250.381V296.109C250.381 296.745 250.545 297.24 250.873 297.594C251.201 297.948 251.649 298.125 252.217 298.125C252.607 298.125 252.954 298.042 253.256 297.875C253.563 297.703 253.803 297.456 253.975 297.133C254.152 296.805 254.24 296.409 254.24 295.945V290.82H255.959V299.5H254.318L254.311 297.375H254.506C254.245 298.156 253.87 298.727 253.381 299.086C252.896 299.44 252.318 299.617 251.646 299.617ZM258.232 299.5V290.82H259.943V299.5H258.232ZM259.092 289.477C258.8 289.477 258.548 289.378 258.334 289.18C258.126 288.977 258.021 288.737 258.021 288.461C258.021 288.174 258.126 287.932 258.334 287.734C258.548 287.536 258.8 287.438 259.092 287.438C259.389 287.438 259.644 287.536 259.857 287.734C260.071 287.932 260.178 288.174 260.178 288.461C260.178 288.737 260.071 288.977 259.857 289.18C259.644 289.378 259.389 289.477 259.092 289.477ZM263.912 287.859V299.5H262.201V287.859H263.912ZM269.404 299.672C268.701 299.672 268.074 299.492 267.521 299.133C266.975 298.768 266.545 298.25 266.232 297.578C265.92 296.906 265.764 296.107 265.764 295.18C265.764 294.242 265.92 293.44 266.232 292.773C266.55 292.102 266.982 291.589 267.529 291.234C268.081 290.88 268.706 290.703 269.404 290.703C269.93 290.703 270.357 290.789 270.686 290.961C271.014 291.133 271.274 291.336 271.467 291.57C271.665 291.805 271.818 292.021 271.928 292.219H272.014V287.859H273.725V299.5H272.053V298.148H271.928C271.818 298.346 271.665 298.565 271.467 298.805C271.269 299.039 271.003 299.242 270.67 299.414C270.342 299.586 269.92 299.672 269.404 299.672ZM269.779 298.211C270.269 298.211 270.68 298.083 271.014 297.828C271.352 297.573 271.61 297.216 271.787 296.758C271.964 296.299 272.053 295.768 272.053 295.164C272.053 294.56 271.964 294.034 271.787 293.586C271.615 293.138 271.36 292.789 271.021 292.539C270.683 292.289 270.269 292.164 269.779 292.164C269.285 292.164 268.868 292.294 268.529 292.555C268.191 292.815 267.936 293.172 267.764 293.625C267.597 294.073 267.514 294.586 267.514 295.164C267.514 295.747 267.6 296.268 267.771 296.727C267.943 297.185 268.199 297.547 268.537 297.812C268.876 298.078 269.29 298.211 269.779 298.211Z" fill="#52525B"/>
<path d="M237.053 294.258H274.857V295.484H237.053V294.258Z" fill="#52525B"/>
<rect x="-11.0059" y="85.5" width="107" height="32" fill="#27272A"/>
<rect x="-11.0059" y="85.5" width="107" height="32" stroke="#27272A" stroke-width="0.5"/>
<path d="M20.541 107.5H17.666V105.945H20.4395C21.3249 105.945 22.0592 105.781 22.6426 105.453C23.2259 105.12 23.6634 104.635 23.9551 104C24.2467 103.359 24.3926 102.581 24.3926 101.664C24.3926 100.753 24.2467 99.9818 23.9551 99.3516C23.6686 98.7161 23.2389 98.2344 22.666 97.9062C22.0983 97.5781 21.39 97.4141 20.541 97.4141H17.6035V95.8594H20.6582C21.804 95.8594 22.7832 96.0911 23.5957 96.5547C24.4134 97.0182 25.041 97.6849 25.4785 98.5547C25.9212 99.4193 26.1426 100.456 26.1426 101.664C26.1426 102.872 25.9212 103.914 25.4785 104.789C25.041 105.659 24.403 106.328 23.5645 106.797C22.7311 107.266 21.7233 107.5 20.541 107.5ZM18.5332 95.8594V107.5H16.7598V95.8594H18.5332ZM31.8613 107.68C31.0072 107.68 30.2702 107.495 29.6504 107.125C29.0306 106.755 28.554 106.237 28.2207 105.57C27.8874 104.898 27.7207 104.115 27.7207 103.219C27.7207 102.328 27.8848 101.544 28.2129 100.867C28.5462 100.19 29.0124 99.6615 29.6113 99.2812C30.2155 98.8958 30.9186 98.7031 31.7207 98.7031C32.2311 98.7031 32.7181 98.7865 33.1816 98.9531C33.6504 99.1198 34.0671 99.3802 34.4316 99.7344C34.7962 100.089 35.0853 100.542 35.2988 101.094C35.5124 101.646 35.6191 102.307 35.6191 103.078V103.672H28.6582V102.391H34.7363L33.9395 102.812C33.9395 102.281 33.8535 101.812 33.6816 101.406C33.515 101 33.2676 100.685 32.9395 100.461C32.6165 100.232 32.2129 100.117 31.7285 100.117C31.2441 100.117 30.8301 100.234 30.4863 100.469C30.1478 100.698 29.8874 101.005 29.7051 101.391C29.5228 101.771 29.4316 102.19 29.4316 102.648V103.5C29.4316 104.089 29.5332 104.591 29.7363 105.008C29.9395 105.419 30.2233 105.732 30.5879 105.945C30.9577 106.159 31.3874 106.266 31.877 106.266C32.2051 106.266 32.4993 106.219 32.7598 106.125C33.0254 106.031 33.252 105.891 33.4395 105.703C33.627 105.516 33.7702 105.286 33.8691 105.016L35.4785 105.359C35.3483 105.818 35.1165 106.221 34.7832 106.57C34.4499 106.919 34.0358 107.193 33.541 107.391C33.0462 107.583 32.4863 107.68 31.8613 107.68ZM37.4551 110.766V98.8203H39.1191V100.219H39.252C39.3613 100.021 39.5124 99.8047 39.7051 99.5703C39.8978 99.3359 40.1582 99.1328 40.4863 98.9609C40.8197 98.7891 41.2467 98.7031 41.7676 98.7031C42.4707 98.7031 43.0957 98.8802 43.6426 99.2344C44.1895 99.5885 44.6191 100.102 44.9316 100.773C45.2493 101.44 45.4082 102.242 45.4082 103.18C45.4082 104.107 45.252 104.906 44.9395 105.578C44.6322 106.25 44.2051 106.768 43.6582 107.133C43.1113 107.492 42.4811 107.672 41.7676 107.672C41.2624 107.672 40.8431 107.586 40.5098 107.414C40.1764 107.242 39.9108 107.039 39.7129 106.805C39.5202 106.565 39.3665 106.346 39.252 106.148H39.166V110.766H37.4551ZM41.3926 106.211C41.8874 106.211 42.304 106.078 42.6426 105.812C42.9811 105.547 43.2363 105.185 43.4082 104.727C43.5801 104.268 43.666 103.747 43.666 103.164C43.666 102.586 43.5801 102.073 43.4082 101.625C43.2363 101.172 42.9811 100.815 42.6426 100.555C42.3092 100.294 41.8926 100.164 41.3926 100.164C40.903 100.164 40.4889 100.289 40.1504 100.539C39.8171 100.789 39.5618 101.138 39.3848 101.586C39.2129 102.034 39.127 102.56 39.127 103.164C39.127 103.768 39.2155 104.299 39.3926 104.758C39.5697 105.216 39.8275 105.573 40.166 105.828C40.5046 106.083 40.9134 106.211 41.3926 106.211ZM48.9941 95.8594V107.5H47.2832V95.8594H48.9941ZM54.9082 107.68C54.0905 107.68 53.377 107.495 52.7676 107.125C52.1634 106.75 51.6921 106.227 51.3535 105.555C51.015 104.878 50.8457 104.094 50.8457 103.203C50.8457 102.302 51.015 101.516 51.3535 100.844C51.6921 100.167 52.1634 99.6406 52.7676 99.2656C53.377 98.8906 54.0905 98.7031 54.9082 98.7031C55.7259 98.7031 56.4395 98.8906 57.0488 99.2656C57.6634 99.6406 58.1374 100.167 58.4707 100.844C58.8092 101.516 58.9785 102.302 58.9785 103.203C58.9785 104.094 58.8092 104.878 58.4707 105.555C58.1374 106.227 57.6634 106.75 57.0488 107.125C56.4395 107.495 55.7259 107.68 54.9082 107.68ZM54.9082 106.234C55.4342 106.234 55.8691 106.099 56.2129 105.828C56.5618 105.552 56.8197 105.185 56.9863 104.727C57.1582 104.263 57.2441 103.755 57.2441 103.203C57.2441 102.641 57.1582 102.13 56.9863 101.672C56.8197 101.208 56.5618 100.839 56.2129 100.562C55.8691 100.286 55.4342 100.148 54.9082 100.148C54.3874 100.148 53.9551 100.286 53.6113 100.562C53.2676 100.839 53.0098 101.208 52.8379 101.672C52.6712 102.13 52.5879 102.641 52.5879 103.203C52.5879 103.76 52.6712 104.268 52.8379 104.727C53.0098 105.185 53.2676 105.552 53.6113 105.828C53.9551 106.099 54.3874 106.234 54.9082 106.234ZM60.4551 110.656L60.8301 109.258L61.1035 109.297C61.3848 109.365 61.6374 109.38 61.8613 109.344C62.0905 109.307 62.2858 109.198 62.4473 109.016C62.6139 108.833 62.7493 108.565 62.8535 108.211L63.0645 107.531L59.7598 98.8203H61.6035L63.3223 103.734C63.5098 104.271 63.6686 104.807 63.7988 105.344C63.929 105.875 64.0671 106.404 64.2129 106.93H63.6973C63.8431 106.404 63.9837 105.872 64.1191 105.336C64.2598 104.799 64.4238 104.266 64.6113 103.734L66.3613 98.8203H68.1895L64.4004 108.742C64.2285 109.201 64.015 109.583 63.7598 109.891C63.5046 110.198 63.2025 110.43 62.8535 110.586C62.5046 110.742 62.0983 110.82 61.6348 110.82C61.3796 110.82 61.1478 110.802 60.9395 110.766C60.7311 110.734 60.5697 110.698 60.4551 110.656Z" fill="#52525B"/>
<path d="M15.4941 102.258H68.5332V103.484H15.4941V102.258Z" fill="#52525B"/>
</g>
<defs>
<linearGradient id="paint0_linear_926_346780" x1="451.75" y1="348.502" x2="451.75" y2="387.072" gradientUnits="userSpaceOnUse">
<stop offset="0.51887" stop-color="#0F0F11"/>
<stop offset="1" stop-color="#0F0F11" stop-opacity="0"/>
</linearGradient>
<linearGradient id="paint1_linear_926_346780" x1="771.75" y1="-555" x2="771.75" y2="-515" gradientUnits="userSpaceOnUse">
<stop offset="0.51887" stop-color="#0F0F11"/>
<stop offset="1" stop-color="#0F0F11" stop-opacity="0"/>
</linearGradient>
<linearGradient id="paint2_linear_926_346780" x1="160" y1="0" x2="160" y2="39.9769" gradientUnits="userSpaceOnUse">
<stop offset="0.322335" stop-color="#0F0F11"/>
<stop offset="1" stop-color="#0F0F11" stop-opacity="0"/>
</linearGradient>
<linearGradient id="paint3_linear_926_346780" x1="160" y1="-555" x2="160" y2="180.594" gradientUnits="userSpaceOnUse">
<stop offset="0.76" stop-color="#0F0F11"/>
<stop offset="1" stop-color="#0F0F11" stop-opacity="0"/>
</linearGradient>
<linearGradient id="paint4_linear_926_346780" x1="223.932" y1="197.146" x2="318.578" y2="197.146" gradientUnits="userSpaceOnUse">
<stop offset="0.5" stop-color="#27272A"/>
<stop offset="1" stop-color="#0F0F11" stop-opacity="0"/>
</linearGradient>
<linearGradient id="paint5_linear_926_346780" x1="96.7168" y1="196.788" x2="0.447266" y2="196.788" gradientUnits="userSpaceOnUse">
<stop offset="0.5" stop-color="#27272A"/>
<stop offset="1" stop-color="#0F0F11" stop-opacity="0"/>
</linearGradient>
<clipPath id="clip0_926_346780">
<rect width="320" height="350" fill="white"/>
</clipPath>
</defs>
</svg>
