<svg viewBox="0 0 321 350" fill="none" xmlns="http://www.w3.org/2000/svg" preserveAspectRatio="none">
<g clip-path="url(#clip0_926_346901)">
<rect width="320" height="350" transform="translate(0.5)" fill="#FAFAFA"/>
<path d="M0.5 -555V348.5" stroke="#E4E4E7"/>
<path d="M32.5 -555V348.5" stroke="#E4E4E7"/>
<path d="M64.5 -555V348.5" stroke="#E4E4E7"/>
<path d="M96.5 -555V348.5" stroke="#E4E4E7"/>
<path d="M128.5 -555V348.5" stroke="#E4E4E7"/>
<path d="M160.5 -555V348.5" stroke="#E4E4E7"/>
<path d="M192.5 -555V348.5" stroke="#E4E4E7"/>
<path d="M224.5 -555V348.5" stroke="#E4E4E7"/>
<path d="M256.5 -555V348.5" stroke="#E4E4E7"/>
<path d="M288.5 -555V348.5" stroke="#E4E4E7"/>
<path d="M320.5 -555V348.5" stroke="#E4E4E7"/>
<path d="M320.5 21L0.500014 21" stroke="#E4E4E7"/>
<path d="M320.5 53L0.500014 53" stroke="#E4E4E7"/>
<path d="M320.5 85L0.500014 85" stroke="#E4E4E7"/>
<path d="M320.5 117L0.500014 117" stroke="#E4E4E7"/>
<path d="M320.5 149L0.500014 149" stroke="#E4E4E7"/>
<path d="M320.5 181L0.500014 181" stroke="#E4E4E7"/>
<path d="M320.5 213L0.500014 213" stroke="#E4E4E7"/>
<path d="M320.5 245L0.500014 245" stroke="#E4E4E7"/>
<path d="M320.5 277L0.500014 277" stroke="#E4E4E7"/>
<path d="M320.5 309L0.500014 309" stroke="#E4E4E7"/>
<path d="M320.5 341L0.500014 341" stroke="#E4E4E7"/>
<rect x="0.5" y="348.502" width="903.501" height="38.5703" transform="rotate(-90 0.5 348.502)" fill="url(#paint0_linear_926_346901)"/>
<rect x="320.5" y="-555" width="903.501" height="40" transform="rotate(90 320.5 -555)" fill="url(#paint1_linear_926_346901)"/>
<rect width="320" height="39.9769" transform="matrix(1 0 0 -1 0.5 349.5)" fill="url(#paint2_linear_926_346901)"/>
<rect x="0.5" y="-555" width="320" height="735.594" fill="url(#paint3_linear_926_346901)"/>
<rect x="97.1953" y="180.5" width="127.236" height="33.293" fill="#3B82F6"/>
<path d="M224.432 180.5H319.078V213.793H224.432V180.5Z" fill="url(#paint4_linear_926_346901)"/>
<path d="M97.2168 180.5H0.947264V213.076H97.2168V180.5Z" fill="url(#paint5_linear_926_346901)"/>
<rect width="96" height="32" transform="translate(128.494 85.5)" fill="#3B82F6"/>
<path d="M162.111 107.656C161.096 107.656 160.192 107.417 159.4 106.938C158.609 106.458 157.984 105.773 157.525 104.883C157.072 103.987 156.846 102.922 156.846 101.688C156.846 100.448 157.072 99.3828 157.525 98.4922C157.984 97.5964 158.609 96.9089 159.4 96.4297C160.197 95.9453 161.101 95.7031 162.111 95.7031C162.726 95.7031 163.304 95.7917 163.846 95.9688C164.387 96.1458 164.869 96.4062 165.291 96.75C165.718 97.0885 166.072 97.5 166.354 97.9844C166.635 98.4688 166.825 99.0208 166.924 99.6406H165.135C165.057 99.2656 164.926 98.9349 164.744 98.6484C164.562 98.362 164.335 98.1198 164.064 97.9219C163.799 97.7188 163.502 97.5677 163.174 97.4688C162.846 97.3698 162.497 97.3203 162.127 97.3203C161.45 97.3203 160.846 97.4896 160.314 97.8281C159.783 98.1667 159.367 98.6615 159.064 99.3125C158.762 99.9635 158.611 100.755 158.611 101.688C158.611 102.62 158.762 103.411 159.064 104.062C159.372 104.708 159.791 105.201 160.322 105.539C160.854 105.872 161.455 106.039 162.127 106.039C162.492 106.039 162.838 105.99 163.166 105.891C163.499 105.786 163.799 105.635 164.064 105.438C164.335 105.24 164.562 104.997 164.744 104.711C164.932 104.424 165.062 104.094 165.135 103.719H166.924C166.835 104.302 166.656 104.833 166.385 105.312C166.114 105.792 165.765 106.208 165.338 106.562C164.916 106.911 164.432 107.182 163.885 107.375C163.343 107.562 162.752 107.656 162.111 107.656ZM172.502 107.68C171.684 107.68 170.971 107.495 170.361 107.125C169.757 106.75 169.286 106.227 168.947 105.555C168.609 104.878 168.439 104.094 168.439 103.203C168.439 102.302 168.609 101.516 168.947 100.844C169.286 100.167 169.757 99.6406 170.361 99.2656C170.971 98.8906 171.684 98.7031 172.502 98.7031C173.32 98.7031 174.033 98.8906 174.643 99.2656C175.257 99.6406 175.731 100.167 176.064 100.844C176.403 101.516 176.572 102.302 176.572 103.203C176.572 104.094 176.403 104.878 176.064 105.555C175.731 106.227 175.257 106.75 174.643 107.125C174.033 107.495 173.32 107.68 172.502 107.68ZM172.502 106.234C173.028 106.234 173.463 106.099 173.807 105.828C174.156 105.552 174.413 105.185 174.58 104.727C174.752 104.263 174.838 103.755 174.838 103.203C174.838 102.641 174.752 102.13 174.58 101.672C174.413 101.208 174.156 100.839 173.807 100.562C173.463 100.286 173.028 100.148 172.502 100.148C171.981 100.148 171.549 100.286 171.205 100.562C170.861 100.839 170.604 101.208 170.432 101.672C170.265 102.13 170.182 102.641 170.182 103.203C170.182 103.76 170.265 104.268 170.432 104.727C170.604 105.185 170.861 105.552 171.205 105.828C171.549 106.099 171.981 106.234 172.502 106.234ZM181.674 107.672C180.971 107.672 180.343 107.492 179.791 107.133C179.244 106.768 178.814 106.25 178.502 105.578C178.189 104.906 178.033 104.107 178.033 103.18C178.033 102.242 178.189 101.44 178.502 100.773C178.82 100.102 179.252 99.5885 179.799 99.2344C180.351 98.8802 180.976 98.7031 181.674 98.7031C182.2 98.7031 182.627 98.7891 182.955 98.9609C183.283 99.1328 183.544 99.3359 183.736 99.5703C183.934 99.8047 184.088 100.021 184.197 100.219H184.283V95.8594H185.994V107.5H184.322V106.148H184.197C184.088 106.346 183.934 106.565 183.736 106.805C183.538 107.039 183.273 107.242 182.939 107.414C182.611 107.586 182.189 107.672 181.674 107.672ZM182.049 106.211C182.538 106.211 182.95 106.083 183.283 105.828C183.622 105.573 183.88 105.216 184.057 104.758C184.234 104.299 184.322 103.768 184.322 103.164C184.322 102.56 184.234 102.034 184.057 101.586C183.885 101.138 183.63 100.789 183.291 100.539C182.952 100.289 182.538 100.164 182.049 100.164C181.554 100.164 181.137 100.294 180.799 100.555C180.46 100.815 180.205 101.172 180.033 101.625C179.867 102.073 179.783 102.586 179.783 103.164C179.783 103.747 179.869 104.268 180.041 104.727C180.213 105.185 180.468 105.547 180.807 105.812C181.145 106.078 181.559 106.211 182.049 106.211ZM192.002 107.68C191.148 107.68 190.411 107.495 189.791 107.125C189.171 106.755 188.695 106.237 188.361 105.57C188.028 104.898 187.861 104.115 187.861 103.219C187.861 102.328 188.025 101.544 188.354 100.867C188.687 100.19 189.153 99.6615 189.752 99.2812C190.356 98.8958 191.059 98.7031 191.861 98.7031C192.372 98.7031 192.859 98.7865 193.322 98.9531C193.791 99.1198 194.208 99.3802 194.572 99.7344C194.937 100.089 195.226 100.542 195.439 101.094C195.653 101.646 195.76 102.307 195.76 103.078V103.672H188.799V102.391H194.877L194.08 102.812C194.08 102.281 193.994 101.812 193.822 101.406C193.656 101 193.408 100.685 193.08 100.461C192.757 100.232 192.354 100.117 191.869 100.117C191.385 100.117 190.971 100.234 190.627 100.469C190.288 100.698 190.028 101.005 189.846 101.391C189.663 101.771 189.572 102.19 189.572 102.648V103.5C189.572 104.089 189.674 104.591 189.877 105.008C190.08 105.419 190.364 105.732 190.729 105.945C191.098 106.159 191.528 106.266 192.018 106.266C192.346 106.266 192.64 106.219 192.9 106.125C193.166 106.031 193.393 105.891 193.58 105.703C193.768 105.516 193.911 105.286 194.01 105.016L195.619 105.359C195.489 105.818 195.257 106.221 194.924 106.57C194.59 106.919 194.176 107.193 193.682 107.391C193.187 107.583 192.627 107.68 192.002 107.68Z" fill="white"/>
<rect width="96" height="32" transform="translate(64.5 277.5)" fill="#3B82F6"/>
<path d="M96.6719 289.391V287.859H105.719V289.391H102.086V299.5H100.312V289.391H96.6719ZM109.93 299.68C109.076 299.68 108.339 299.495 107.719 299.125C107.099 298.755 106.622 298.237 106.289 297.57C105.956 296.898 105.789 296.115 105.789 295.219C105.789 294.328 105.953 293.544 106.281 292.867C106.615 292.19 107.081 291.661 107.68 291.281C108.284 290.896 108.987 290.703 109.789 290.703C110.299 290.703 110.786 290.786 111.25 290.953C111.719 291.12 112.135 291.38 112.5 291.734C112.865 292.089 113.154 292.542 113.367 293.094C113.581 293.646 113.688 294.307 113.688 295.078V295.672H106.727V294.391H112.805L112.008 294.812C112.008 294.281 111.922 293.812 111.75 293.406C111.583 293 111.336 292.685 111.008 292.461C110.685 292.232 110.281 292.117 109.797 292.117C109.312 292.117 108.898 292.234 108.555 292.469C108.216 292.698 107.956 293.005 107.773 293.391C107.591 293.771 107.5 294.19 107.5 294.648V295.5C107.5 296.089 107.602 296.591 107.805 297.008C108.008 297.419 108.292 297.732 108.656 297.945C109.026 298.159 109.456 298.266 109.945 298.266C110.273 298.266 110.568 298.219 110.828 298.125C111.094 298.031 111.32 297.891 111.508 297.703C111.695 297.516 111.839 297.286 111.938 297.016L113.547 297.359C113.417 297.818 113.185 298.221 112.852 298.57C112.518 298.919 112.104 299.193 111.609 299.391C111.115 299.583 110.555 299.68 109.93 299.68ZM118.648 299.68C118.013 299.68 117.448 299.589 116.953 299.406C116.464 299.219 116.06 298.945 115.742 298.586C115.43 298.221 115.227 297.779 115.133 297.258L116.75 296.961C116.865 297.414 117.083 297.75 117.406 297.969C117.729 298.188 118.146 298.297 118.656 298.297C119.208 298.297 119.646 298.182 119.969 297.953C120.297 297.724 120.461 297.448 120.461 297.125C120.461 296.844 120.357 296.615 120.148 296.438C119.945 296.255 119.641 296.117 119.234 296.023L117.773 295.695C116.966 295.513 116.365 295.224 115.969 294.828C115.573 294.427 115.375 293.914 115.375 293.289C115.375 292.773 115.518 292.323 115.805 291.938C116.091 291.547 116.487 291.245 116.992 291.031C117.497 290.812 118.078 290.703 118.734 290.703C119.359 290.703 119.898 290.797 120.352 290.984C120.805 291.172 121.169 291.432 121.445 291.766C121.727 292.099 121.922 292.49 122.031 292.938L120.484 293.242C120.385 292.924 120.198 292.648 119.922 292.414C119.651 292.174 119.26 292.055 118.75 292.055C118.276 292.055 117.88 292.161 117.562 292.375C117.25 292.589 117.094 292.862 117.094 293.195C117.094 293.482 117.201 293.716 117.414 293.898C117.628 294.076 117.966 294.216 118.43 294.32L119.836 294.633C120.643 294.815 121.242 295.102 121.633 295.492C122.023 295.878 122.219 296.375 122.219 296.984C122.219 297.516 122.068 297.984 121.766 298.391C121.464 298.792 121.044 299.107 120.508 299.336C119.971 299.565 119.352 299.68 118.648 299.68ZM127.836 290.82V292.211H123.094V290.82H127.836ZM124.383 288.719H126.094V297.156C126.094 297.505 126.167 297.76 126.312 297.922C126.458 298.078 126.701 298.156 127.039 298.156C127.133 298.156 127.253 298.148 127.398 298.133C127.544 298.112 127.669 298.091 127.773 298.07L128.047 299.445C127.87 299.503 127.677 299.542 127.469 299.562C127.26 299.589 127.057 299.602 126.859 299.602C126.068 299.602 125.456 299.404 125.023 299.008C124.596 298.607 124.383 298.039 124.383 297.305V288.719Z" fill="white"/>
<path d="M157.021 123.121C157.021 125.33 158.812 127.121 161.021 127.121C163.231 127.121 165.021 125.33 165.021 123.121C165.021 120.912 163.231 119.121 161.021 119.121C158.812 119.121 157.021 120.912 157.021 123.121ZM161.771 177.188L161.771 123.121L160.271 123.121L160.271 177.188L161.771 177.188Z" fill="#2563EB"/>
<path d="M284.391 123.121C284.391 125.33 286.181 127.121 288.391 127.121C290.6 127.121 292.391 125.33 292.391 123.121C292.391 120.912 290.6 119.121 288.391 119.121C286.181 119.121 284.391 120.912 284.391 123.121ZM289.141 177.188L289.141 123.121L287.641 123.121L287.641 177.188L289.141 177.188Z" fill="#D4D4D8"/>
<path d="M60.5 123.121C60.5 125.33 62.2909 127.121 64.5 127.121C66.7091 127.121 68.5 125.33 68.5 123.121C68.5 120.912 66.7091 119.121 64.5 119.121C62.2909 119.121 60.5 120.912 60.5 123.121ZM65.25 177.188L65.25 123.121L63.75 123.121L63.75 177.188L65.25 177.188Z" fill="#D4D4D8"/>
<path d="M124.494 271.076C124.494 273.285 126.285 275.076 128.494 275.076C130.703 275.076 132.494 273.285 132.494 271.076C132.494 268.867 130.703 267.076 128.494 267.076C126.285 267.076 124.494 268.867 124.494 271.076ZM129.244 271.076V216.076H127.744V271.076H129.244Z" fill="#2563EB"/>
<path d="M252.506 271.076C252.506 273.285 254.297 275.076 256.506 275.076C258.715 275.076 260.506 273.285 260.506 271.076C260.506 268.867 258.715 267.076 256.506 267.076C254.297 267.076 252.506 268.867 252.506 271.076ZM257.256 271.076V216.076H255.756V271.076H257.256Z" fill="#D4D4D8"/>
<path d="M128.433 196.642C128.344 196.552 128.344 196.408 128.433 196.318L133.032 191.729C133.122 191.639 133.267 191.639 133.356 191.729L137.955 196.318C138.045 196.408 138.045 196.552 137.955 196.642L133.356 201.231C133.267 201.321 133.122 201.321 133.032 201.231L128.433 196.642Z" fill="white"/>
<path d="M130.221 188.567C130.131 188.478 129.986 188.478 129.897 188.567L122.11 196.338C122.021 196.428 122.021 196.572 122.11 196.662L129.897 204.433C129.986 204.522 130.131 204.522 130.221 204.433L131.504 203.152C131.594 203.063 131.594 202.918 131.504 202.829L125.295 196.632C125.206 196.543 125.206 196.398 125.295 196.309L131.474 190.141C131.564 190.052 131.564 189.907 131.474 189.818L130.221 188.567Z" fill="white"/>
<path d="M142.021 202.367V190.633H144.062V197.506L146.612 194.052H148.916L145.921 198.083L148.982 202.367H146.678L144.062 198.709V202.367H142.021Z" fill="white"/>
<path d="M194.129 199.108C194.14 199.595 194.267 199.95 194.51 200.173C194.764 200.385 195.124 200.491 195.59 200.491C196.574 200.491 197.452 200.459 198.225 200.395L198.669 200.348L198.701 201.921C197.484 202.218 196.383 202.366 195.399 202.366C194.203 202.366 193.336 202.048 192.796 201.413C192.256 200.777 191.986 199.744 191.986 198.313C191.986 195.463 193.156 194.038 195.494 194.038C197.801 194.038 198.955 195.235 198.955 197.63L198.796 199.108H194.129ZM196.86 197.487C196.86 196.851 196.759 196.411 196.558 196.167C196.357 195.913 196.002 195.786 195.494 195.786C194.997 195.786 194.643 195.918 194.431 196.183C194.23 196.438 194.124 196.872 194.113 197.487H196.86Z" fill="white"/>
<path d="M190.718 196.04H188.766V199.299C188.766 199.617 188.771 199.845 188.782 199.982C188.803 200.11 188.861 200.221 188.956 200.316C189.062 200.412 189.221 200.459 189.432 200.459L190.639 200.427L190.734 202.128C190.025 202.287 189.485 202.367 189.115 202.367C188.163 202.367 187.512 202.155 187.162 201.731C186.813 201.296 186.639 200.502 186.639 199.347V196.04V194.038V190.636H188.766V194.038H190.718V196.04Z" fill="white"/>
<path d="M182.881 202.367V194.038H185.008V202.367H182.881ZM182.881 192.798V190.636H185.008V192.798H182.881Z" fill="white"/>
<path d="M179.123 202.367L179.123 190.638H181.25L181.25 202.367H179.123Z" fill="white"/>
<path d="M177.492 190.638L177.492 202.367H175.381V201.842C174.64 202.192 174 202.367 173.461 202.367C172.307 202.367 171.503 202.033 171.048 201.365C170.593 200.698 170.365 199.643 170.365 198.202C170.365 196.751 170.635 195.696 171.175 195.039C171.725 194.372 172.55 194.038 173.651 194.038C173.99 194.038 174.461 194.091 175.064 194.197L175.365 194.26L175.365 190.638H177.492ZM175.143 200.269L175.365 200.221V196.041C174.783 195.935 174.265 195.882 173.81 195.882C172.953 195.882 172.524 196.645 172.524 198.171C172.524 198.997 172.619 199.585 172.81 199.935C173 200.285 173.312 200.459 173.746 200.459C174.191 200.459 174.656 200.396 175.143 200.269Z" fill="white"/>
<path d="M166.985 194.038H169.112V202.366H167.001V201.731C166.239 202.154 165.577 202.366 165.016 202.366C163.916 202.366 163.175 202.064 162.794 201.46C162.413 200.846 162.223 199.823 162.223 198.393V194.038H164.35V198.425C164.35 199.209 164.413 199.744 164.54 200.03C164.667 200.316 164.974 200.459 165.461 200.459C165.926 200.459 166.366 200.385 166.778 200.237L166.985 200.173V194.038Z" fill="white"/>
<path d="M154.507 195.134C155.068 194.403 156.005 194.038 157.317 194.038C158.629 194.038 159.566 194.403 160.127 195.134C160.687 195.855 160.968 196.872 160.968 198.186C160.968 200.973 159.751 202.366 157.317 202.366C154.883 202.366 153.666 200.973 153.666 198.186C153.666 196.872 153.946 195.855 154.507 195.134ZM156.142 199.982C156.365 200.364 156.756 200.554 157.317 200.554C157.878 200.554 158.264 200.364 158.476 199.982C158.698 199.601 158.809 199.002 158.809 198.186C158.809 197.37 158.698 196.777 158.476 196.406C158.264 196.035 157.878 195.85 157.317 195.85C156.756 195.85 156.365 196.035 156.142 196.406C155.931 196.777 155.825 197.37 155.825 198.186C155.825 199.002 155.931 199.601 156.142 199.982Z" fill="white"/>
<path d="M150.285 202.367L150.236 190.638H152.363L152.412 202.367H150.285Z" fill="white"/>
<rect x="256.506" y="85.5" width="75" height="32" fill="#EEEEF0"/>
<rect x="256.506" y="85.5" width="75" height="32" stroke="#E4E4E7" stroke-width="0.5"/>
<path d="M269.693 107.688C268.813 107.688 268.05 107.549 267.404 107.273C266.764 106.992 266.261 106.591 265.896 106.07C265.537 105.549 265.339 104.927 265.303 104.203H267.084C267.12 104.635 267.256 104.995 267.49 105.281C267.73 105.568 268.04 105.784 268.42 105.93C268.8 106.07 269.222 106.141 269.686 106.141C270.18 106.141 270.62 106.062 271.006 105.906C271.391 105.75 271.693 105.531 271.912 105.25C272.136 104.969 272.248 104.641 272.248 104.266C272.248 103.932 272.154 103.659 271.967 103.445C271.779 103.227 271.519 103.044 271.186 102.898C270.857 102.753 270.475 102.622 270.037 102.508L268.686 102.148C267.706 101.888 266.949 101.508 266.412 101.008C265.881 100.503 265.615 99.8516 265.615 99.0547C265.615 98.3828 265.795 97.7943 266.154 97.2891C266.519 96.7839 267.011 96.3932 267.631 96.1172C268.256 95.8411 268.962 95.7031 269.748 95.7031C270.55 95.7031 271.253 95.8438 271.857 96.125C272.467 96.401 272.943 96.7865 273.287 97.2812C273.636 97.7708 273.818 98.3333 273.834 98.9688H272.107C272.05 98.4219 271.803 97.9974 271.365 97.6953C270.928 97.3932 270.376 97.2422 269.709 97.2422C269.24 97.2422 268.831 97.3177 268.482 97.4688C268.133 97.6146 267.863 97.8177 267.67 98.0781C267.482 98.3333 267.389 98.6276 267.389 98.9609C267.389 99.3151 267.498 99.6068 267.717 99.8359C267.936 100.06 268.206 100.24 268.529 100.375C268.857 100.51 269.183 100.62 269.506 100.703L270.646 101C271.042 101.099 271.438 101.232 271.834 101.398C272.23 101.56 272.592 101.768 272.92 102.023C273.248 102.273 273.511 102.583 273.709 102.953C273.907 103.323 274.006 103.763 274.006 104.273C274.006 104.935 273.834 105.523 273.49 106.039C273.152 106.555 272.66 106.958 272.014 107.25C271.373 107.542 270.6 107.688 269.693 107.688ZM279.686 107.68C278.831 107.68 278.094 107.495 277.475 107.125C276.855 106.755 276.378 106.237 276.045 105.57C275.712 104.898 275.545 104.115 275.545 103.219C275.545 102.328 275.709 101.544 276.037 100.867C276.37 100.19 276.837 99.6615 277.436 99.2812C278.04 98.8958 278.743 98.7031 279.545 98.7031C280.055 98.7031 280.542 98.7865 281.006 98.9531C281.475 99.1198 281.891 99.3802 282.256 99.7344C282.62 100.089 282.91 100.542 283.123 101.094C283.337 101.646 283.443 102.307 283.443 103.078V103.672H276.482V102.391H282.561L281.764 102.812C281.764 102.281 281.678 101.812 281.506 101.406C281.339 101 281.092 100.685 280.764 100.461C280.441 100.232 280.037 100.117 279.553 100.117C279.068 100.117 278.654 100.234 278.311 100.469C277.972 100.698 277.712 101.005 277.529 101.391C277.347 101.771 277.256 102.19 277.256 102.648V103.5C277.256 104.089 277.357 104.591 277.561 105.008C277.764 105.419 278.048 105.732 278.412 105.945C278.782 106.159 279.212 106.266 279.701 106.266C280.029 106.266 280.324 106.219 280.584 106.125C280.85 106.031 281.076 105.891 281.264 105.703C281.451 105.516 281.594 105.286 281.693 105.016L283.303 105.359C283.173 105.818 282.941 106.221 282.607 106.57C282.274 106.919 281.86 107.193 281.365 107.391C280.87 107.583 280.311 107.68 279.686 107.68ZM289.045 98.8203V100.211H284.303V98.8203H289.045ZM285.592 96.7188H287.303V105.156C287.303 105.505 287.376 105.76 287.521 105.922C287.667 106.078 287.91 106.156 288.248 106.156C288.342 106.156 288.462 106.148 288.607 106.133C288.753 106.112 288.878 106.091 288.982 106.07L289.256 107.445C289.079 107.503 288.886 107.542 288.678 107.562C288.469 107.589 288.266 107.602 288.068 107.602C287.277 107.602 286.665 107.404 286.232 107.008C285.805 106.607 285.592 106.039 285.592 105.305V96.7188ZM293.678 107.617C293.089 107.617 292.568 107.492 292.115 107.242C291.667 106.992 291.318 106.622 291.068 106.133C290.824 105.643 290.701 105.039 290.701 104.32V98.8203H292.412V104.109C292.412 104.745 292.576 105.24 292.904 105.594C293.232 105.948 293.68 106.125 294.248 106.125C294.639 106.125 294.985 106.042 295.287 105.875C295.594 105.703 295.834 105.456 296.006 105.133C296.183 104.805 296.271 104.409 296.271 103.945V98.8203H297.99V107.5H296.35L296.342 105.375H296.537C296.277 106.156 295.902 106.727 295.412 107.086C294.928 107.44 294.35 107.617 293.678 107.617ZM300.264 110.766V98.8203H301.928V100.219H302.061C302.17 100.021 302.321 99.8047 302.514 99.5703C302.706 99.3359 302.967 99.1328 303.295 98.9609C303.628 98.7891 304.055 98.7031 304.576 98.7031C305.279 98.7031 305.904 98.8802 306.451 99.2344C306.998 99.5885 307.428 100.102 307.74 100.773C308.058 101.44 308.217 102.242 308.217 103.18C308.217 104.107 308.061 104.906 307.748 105.578C307.441 106.25 307.014 106.768 306.467 107.133C305.92 107.492 305.29 107.672 304.576 107.672C304.071 107.672 303.652 107.586 303.318 107.414C302.985 107.242 302.719 107.039 302.521 106.805C302.329 106.565 302.175 106.346 302.061 106.148H301.975V110.766H300.264ZM304.201 106.211C304.696 106.211 305.113 106.078 305.451 105.812C305.79 105.547 306.045 105.185 306.217 104.727C306.389 104.268 306.475 103.747 306.475 103.164C306.475 102.586 306.389 102.073 306.217 101.625C306.045 101.172 305.79 100.815 305.451 100.555C305.118 100.294 304.701 100.164 304.201 100.164C303.712 100.164 303.298 100.289 302.959 100.539C302.626 100.789 302.37 101.138 302.193 101.586C302.021 102.034 301.936 102.56 301.936 103.164C301.936 103.768 302.024 104.299 302.201 104.758C302.378 105.216 302.636 105.573 302.975 105.828C303.313 106.083 303.722 106.211 304.201 106.211ZM314.443 107.5V95.8594H316.217V105.969H321.514V107.5H314.443ZM326.982 107.68C326.165 107.68 325.451 107.495 324.842 107.125C324.238 106.75 323.766 106.227 323.428 105.555C323.089 104.878 322.92 104.094 322.92 103.203C322.92 102.302 323.089 101.516 323.428 100.844C323.766 100.167 324.238 99.6406 324.842 99.2656C325.451 98.8906 326.165 98.7031 326.982 98.7031C327.8 98.7031 328.514 98.8906 329.123 99.2656C329.738 99.6406 330.212 100.167 330.545 100.844C330.883 101.516 331.053 102.302 331.053 103.203C331.053 104.094 330.883 104.878 330.545 105.555C330.212 106.227 329.738 106.75 329.123 107.125C328.514 107.495 327.8 107.68 326.982 107.68ZM326.982 106.234C327.508 106.234 327.943 106.099 328.287 105.828C328.636 105.552 328.894 105.185 329.061 104.727C329.232 104.263 329.318 103.755 329.318 103.203C329.318 102.641 329.232 102.13 329.061 101.672C328.894 101.208 328.636 100.839 328.287 100.562C327.943 100.286 327.508 100.148 326.982 100.148C326.462 100.148 326.029 100.286 325.686 100.562C325.342 100.839 325.084 101.208 324.912 101.672C324.745 102.13 324.662 102.641 324.662 103.203C324.662 103.76 324.745 104.268 324.912 104.727C325.084 105.185 325.342 105.552 325.686 105.828C326.029 106.099 326.462 106.234 326.982 106.234ZM336.576 107.68C335.758 107.68 335.045 107.495 334.436 107.125C333.826 106.75 333.352 106.227 333.014 105.555C332.68 104.878 332.514 104.094 332.514 103.203C332.514 102.302 332.68 101.516 333.014 100.844C333.352 100.167 333.826 99.6406 334.436 99.2656C335.045 98.8906 335.758 98.7031 336.576 98.7031C337.035 98.7031 337.462 98.763 337.857 98.8828C338.258 99.0026 338.618 99.1771 338.936 99.4062C339.253 99.6302 339.521 99.9062 339.74 100.234C339.959 100.557 340.12 100.922 340.225 101.328L338.592 101.672C338.54 101.448 338.454 101.242 338.334 101.055C338.214 100.867 338.068 100.708 337.896 100.578C337.73 100.443 337.535 100.339 337.311 100.266C337.092 100.188 336.85 100.148 336.584 100.148C336.063 100.148 335.631 100.286 335.287 100.562C334.943 100.833 334.686 101.201 334.514 101.664C334.342 102.122 334.256 102.635 334.256 103.203C334.256 103.76 334.342 104.268 334.514 104.727C334.686 105.185 334.941 105.552 335.279 105.828C335.623 106.099 336.058 106.234 336.584 106.234C336.855 106.234 337.102 106.198 337.326 106.125C337.55 106.047 337.748 105.938 337.92 105.797C338.097 105.656 338.243 105.49 338.357 105.297C338.477 105.099 338.566 104.883 338.623 104.648L340.248 105C340.149 105.411 339.988 105.784 339.764 106.117C339.545 106.445 339.274 106.727 338.951 106.961C338.633 107.195 338.271 107.375 337.865 107.5C337.464 107.62 337.035 107.68 336.576 107.68ZM345.303 107.672C344.605 107.672 343.98 107.492 343.428 107.133C342.881 106.768 342.451 106.25 342.139 105.578C341.826 104.906 341.67 104.107 341.67 103.18C341.67 102.242 341.829 101.44 342.146 100.773C342.464 100.102 342.899 99.5885 343.451 99.2344C344.003 98.8802 344.628 98.7031 345.326 98.7031C345.847 98.7031 346.271 98.7891 346.6 98.9609C346.933 99.1276 347.196 99.3307 347.389 99.5703C347.581 99.8047 347.73 100.021 347.834 100.219H347.928V98.8203H349.631V107.5H347.943V106.148H347.834C347.73 106.346 347.576 106.565 347.373 106.805C347.175 107.044 346.91 107.25 346.576 107.422C346.243 107.589 345.818 107.672 345.303 107.672ZM345.701 106.211C346.186 106.211 346.597 106.083 346.936 105.828C347.274 105.573 347.529 105.216 347.701 104.758C347.878 104.299 347.967 103.768 347.967 103.164C347.967 102.56 347.878 102.034 347.701 101.586C347.529 101.138 347.274 100.789 346.936 100.539C346.602 100.289 346.191 100.164 345.701 100.164C345.201 100.164 344.782 100.294 344.443 100.555C344.105 100.81 343.85 101.164 343.678 101.617C343.506 102.065 343.42 102.581 343.42 103.164C343.42 103.747 343.506 104.268 343.678 104.727C343.855 105.185 344.113 105.547 344.451 105.812C344.79 106.078 345.206 106.211 345.701 106.211ZM353.615 95.8594V107.5H351.904V95.8594H353.615ZM360.225 107.5V95.8594H367.607V97.3906H361.998V100.859H367.209V102.375H361.998V105.969H367.654V107.5H360.225ZM371.428 102.375V107.5H369.717V98.8203H371.35L371.365 100.945H371.17C371.425 100.169 371.792 99.6016 372.271 99.2422C372.756 98.8828 373.342 98.7031 374.029 98.7031C374.623 98.7031 375.141 98.8281 375.584 99.0781C376.032 99.3281 376.378 99.6979 376.623 100.188C376.873 100.672 376.998 101.273 376.998 101.992V107.5H375.287V102.211C375.287 101.576 375.123 101.081 374.795 100.727C374.472 100.372 374.024 100.195 373.451 100.195C373.066 100.195 372.719 100.281 372.412 100.453C372.11 100.62 371.87 100.865 371.693 101.188C371.516 101.51 371.428 101.906 371.428 102.375ZM381.49 107.5L378.209 98.8203H380.053L381.771 103.734C381.959 104.266 382.12 104.799 382.256 105.336C382.396 105.872 382.54 106.404 382.686 106.93H382.186C382.331 106.404 382.472 105.875 382.607 105.344C382.743 104.807 382.902 104.271 383.084 103.734L384.795 98.8203H386.631L383.35 107.5H381.49Z" fill="#9CA3AF"/>
<path d="M264.506 102.258H386.975V103.484H264.506V102.258Z" fill="#9CA3AF"/>
<rect x="213.553" y="277.5" width="86" height="32" fill="#EEEEF0"/>
<rect x="213.553" y="277.5" width="86" height="32" stroke="#E4E4E7" stroke-width="0.5"/>
<path d="M238.818 299.5V287.859H243.115C243.938 287.859 244.62 287.995 245.162 288.266C245.709 288.531 246.118 288.896 246.389 289.359C246.66 289.818 246.795 290.336 246.795 290.914C246.795 291.398 246.706 291.807 246.529 292.141C246.352 292.469 246.115 292.734 245.818 292.938C245.521 293.141 245.191 293.289 244.826 293.383V293.484C245.222 293.51 245.605 293.638 245.975 293.867C246.344 294.096 246.649 294.419 246.889 294.836C247.128 295.253 247.248 295.758 247.248 296.352C247.248 296.951 247.107 297.487 246.826 297.961C246.545 298.435 246.113 298.81 245.529 299.086C244.946 299.362 244.201 299.5 243.295 299.5H238.818ZM240.592 297.977H243.123C243.951 297.977 244.55 297.818 244.92 297.5C245.29 297.177 245.475 296.768 245.475 296.273C245.475 295.898 245.381 295.56 245.193 295.258C245.011 294.956 244.748 294.716 244.404 294.539C244.066 294.362 243.662 294.273 243.193 294.273H240.592V297.977ZM240.592 292.891H242.959C243.355 292.891 243.709 292.818 244.021 292.672C244.339 292.521 244.589 292.31 244.771 292.039C244.954 291.763 245.045 291.44 245.045 291.07C245.045 290.581 244.876 290.177 244.537 289.859C244.199 289.536 243.686 289.375 242.998 289.375H240.592V292.891ZM252.146 299.617C251.558 299.617 251.037 299.492 250.584 299.242C250.136 298.992 249.787 298.622 249.537 298.133C249.292 297.643 249.17 297.039 249.17 296.32V290.82H250.881V296.109C250.881 296.745 251.045 297.24 251.373 297.594C251.701 297.948 252.149 298.125 252.717 298.125C253.107 298.125 253.454 298.042 253.756 297.875C254.063 297.703 254.303 297.456 254.475 297.133C254.652 296.805 254.74 296.409 254.74 295.945V290.82H256.459V299.5H254.818L254.811 297.375H255.006C254.745 298.156 254.37 298.727 253.881 299.086C253.396 299.44 252.818 299.617 252.146 299.617ZM258.732 299.5V290.82H260.443V299.5H258.732ZM259.592 289.477C259.3 289.477 259.048 289.378 258.834 289.18C258.626 288.977 258.521 288.737 258.521 288.461C258.521 288.174 258.626 287.932 258.834 287.734C259.048 287.536 259.3 287.438 259.592 287.438C259.889 287.438 260.144 287.536 260.357 287.734C260.571 287.932 260.678 288.174 260.678 288.461C260.678 288.737 260.571 288.977 260.357 289.18C260.144 289.378 259.889 289.477 259.592 289.477ZM264.412 287.859V299.5H262.701V287.859H264.412ZM269.904 299.672C269.201 299.672 268.574 299.492 268.021 299.133C267.475 298.768 267.045 298.25 266.732 297.578C266.42 296.906 266.264 296.107 266.264 295.18C266.264 294.242 266.42 293.44 266.732 292.773C267.05 292.102 267.482 291.589 268.029 291.234C268.581 290.88 269.206 290.703 269.904 290.703C270.43 290.703 270.857 290.789 271.186 290.961C271.514 291.133 271.774 291.336 271.967 291.57C272.165 291.805 272.318 292.021 272.428 292.219H272.514V287.859H274.225V299.5H272.553V298.148H272.428C272.318 298.346 272.165 298.565 271.967 298.805C271.769 299.039 271.503 299.242 271.17 299.414C270.842 299.586 270.42 299.672 269.904 299.672ZM270.279 298.211C270.769 298.211 271.18 298.083 271.514 297.828C271.852 297.573 272.11 297.216 272.287 296.758C272.464 296.299 272.553 295.768 272.553 295.164C272.553 294.56 272.464 294.034 272.287 293.586C272.115 293.138 271.86 292.789 271.521 292.539C271.183 292.289 270.769 292.164 270.279 292.164C269.785 292.164 269.368 292.294 269.029 292.555C268.691 292.815 268.436 293.172 268.264 293.625C268.097 294.073 268.014 294.586 268.014 295.164C268.014 295.747 268.1 296.268 268.271 296.727C268.443 297.185 268.699 297.547 269.037 297.812C269.376 298.078 269.79 298.211 270.279 298.211Z" fill="#9CA3AF"/>
<path d="M237.553 294.258H275.357V295.484H237.553V294.258Z" fill="#9CA3AF"/>
<rect x="-10.5059" y="85.5" width="107" height="32" fill="#EEEEF0"/>
<rect x="-10.5059" y="85.5" width="107" height="32" stroke="#E4E4E7" stroke-width="0.5"/>
<path d="M21.041 107.5H18.166V105.945H20.9395C21.8249 105.945 22.5592 105.781 23.1426 105.453C23.7259 105.12 24.1634 104.635 24.4551 104C24.7467 103.359 24.8926 102.581 24.8926 101.664C24.8926 100.753 24.7467 99.9818 24.4551 99.3516C24.1686 98.7161 23.7389 98.2344 23.166 97.9062C22.5983 97.5781 21.89 97.4141 21.041 97.4141H18.1035V95.8594H21.1582C22.304 95.8594 23.2832 96.0911 24.0957 96.5547C24.9134 97.0182 25.541 97.6849 25.9785 98.5547C26.4212 99.4193 26.6426 100.456 26.6426 101.664C26.6426 102.872 26.4212 103.914 25.9785 104.789C25.541 105.659 24.903 106.328 24.0645 106.797C23.2311 107.266 22.2233 107.5 21.041 107.5ZM19.0332 95.8594V107.5H17.2598V95.8594H19.0332ZM32.3613 107.68C31.5072 107.68 30.7702 107.495 30.1504 107.125C29.5306 106.755 29.054 106.237 28.7207 105.57C28.3874 104.898 28.2207 104.115 28.2207 103.219C28.2207 102.328 28.3848 101.544 28.7129 100.867C29.0462 100.19 29.5124 99.6615 30.1113 99.2812C30.7155 98.8958 31.4186 98.7031 32.2207 98.7031C32.7311 98.7031 33.2181 98.7865 33.6816 98.9531C34.1504 99.1198 34.5671 99.3802 34.9316 99.7344C35.2962 100.089 35.5853 100.542 35.7988 101.094C36.0124 101.646 36.1191 102.307 36.1191 103.078V103.672H29.1582V102.391H35.2363L34.4395 102.812C34.4395 102.281 34.3535 101.812 34.1816 101.406C34.015 101 33.7676 100.685 33.4395 100.461C33.1165 100.232 32.7129 100.117 32.2285 100.117C31.7441 100.117 31.3301 100.234 30.9863 100.469C30.6478 100.698 30.3874 101.005 30.2051 101.391C30.0228 101.771 29.9316 102.19 29.9316 102.648V103.5C29.9316 104.089 30.0332 104.591 30.2363 105.008C30.4395 105.419 30.7233 105.732 31.0879 105.945C31.4577 106.159 31.8874 106.266 32.377 106.266C32.7051 106.266 32.9993 106.219 33.2598 106.125C33.5254 106.031 33.752 105.891 33.9395 105.703C34.127 105.516 34.2702 105.286 34.3691 105.016L35.9785 105.359C35.8483 105.818 35.6165 106.221 35.2832 106.57C34.9499 106.919 34.5358 107.193 34.041 107.391C33.5462 107.583 32.9863 107.68 32.3613 107.68ZM37.9551 110.766V98.8203H39.6191V100.219H39.752C39.8613 100.021 40.0124 99.8047 40.2051 99.5703C40.3978 99.3359 40.6582 99.1328 40.9863 98.9609C41.3197 98.7891 41.7467 98.7031 42.2676 98.7031C42.9707 98.7031 43.5957 98.8802 44.1426 99.2344C44.6895 99.5885 45.1191 100.102 45.4316 100.773C45.7493 101.44 45.9082 102.242 45.9082 103.18C45.9082 104.107 45.752 104.906 45.4395 105.578C45.1322 106.25 44.7051 106.768 44.1582 107.133C43.6113 107.492 42.9811 107.672 42.2676 107.672C41.7624 107.672 41.3431 107.586 41.0098 107.414C40.6764 107.242 40.4108 107.039 40.2129 106.805C40.0202 106.565 39.8665 106.346 39.752 106.148H39.666V110.766H37.9551ZM41.8926 106.211C42.3874 106.211 42.804 106.078 43.1426 105.812C43.4811 105.547 43.7363 105.185 43.9082 104.727C44.0801 104.268 44.166 103.747 44.166 103.164C44.166 102.586 44.0801 102.073 43.9082 101.625C43.7363 101.172 43.4811 100.815 43.1426 100.555C42.8092 100.294 42.3926 100.164 41.8926 100.164C41.403 100.164 40.9889 100.289 40.6504 100.539C40.3171 100.789 40.0618 101.138 39.8848 101.586C39.7129 102.034 39.627 102.56 39.627 103.164C39.627 103.768 39.7155 104.299 39.8926 104.758C40.0697 105.216 40.3275 105.573 40.666 105.828C41.0046 106.083 41.4134 106.211 41.8926 106.211ZM49.4941 95.8594V107.5H47.7832V95.8594H49.4941ZM55.4082 107.68C54.5905 107.68 53.877 107.495 53.2676 107.125C52.6634 106.75 52.1921 106.227 51.8535 105.555C51.515 104.878 51.3457 104.094 51.3457 103.203C51.3457 102.302 51.515 101.516 51.8535 100.844C52.1921 100.167 52.6634 99.6406 53.2676 99.2656C53.877 98.8906 54.5905 98.7031 55.4082 98.7031C56.2259 98.7031 56.9395 98.8906 57.5488 99.2656C58.1634 99.6406 58.6374 100.167 58.9707 100.844C59.3092 101.516 59.4785 102.302 59.4785 103.203C59.4785 104.094 59.3092 104.878 58.9707 105.555C58.6374 106.227 58.1634 106.75 57.5488 107.125C56.9395 107.495 56.2259 107.68 55.4082 107.68ZM55.4082 106.234C55.9342 106.234 56.3691 106.099 56.7129 105.828C57.0618 105.552 57.3197 105.185 57.4863 104.727C57.6582 104.263 57.7441 103.755 57.7441 103.203C57.7441 102.641 57.6582 102.13 57.4863 101.672C57.3197 101.208 57.0618 100.839 56.7129 100.562C56.3691 100.286 55.9342 100.148 55.4082 100.148C54.8874 100.148 54.4551 100.286 54.1113 100.562C53.7676 100.839 53.5098 101.208 53.3379 101.672C53.1712 102.13 53.0879 102.641 53.0879 103.203C53.0879 103.76 53.1712 104.268 53.3379 104.727C53.5098 105.185 53.7676 105.552 54.1113 105.828C54.4551 106.099 54.8874 106.234 55.4082 106.234ZM60.9551 110.656L61.3301 109.258L61.6035 109.297C61.8848 109.365 62.1374 109.38 62.3613 109.344C62.5905 109.307 62.7858 109.198 62.9473 109.016C63.1139 108.833 63.2493 108.565 63.3535 108.211L63.5645 107.531L60.2598 98.8203H62.1035L63.8223 103.734C64.0098 104.271 64.1686 104.807 64.2988 105.344C64.429 105.875 64.5671 106.404 64.7129 106.93H64.1973C64.3431 106.404 64.4837 105.872 64.6191 105.336C64.7598 104.799 64.9238 104.266 65.1113 103.734L66.8613 98.8203H68.6895L64.9004 108.742C64.7285 109.201 64.515 109.583 64.2598 109.891C64.0046 110.198 63.7025 110.43 63.3535 110.586C63.0046 110.742 62.5983 110.82 62.1348 110.82C61.8796 110.82 61.6478 110.802 61.4395 110.766C61.2311 110.734 61.0697 110.698 60.9551 110.656Z" fill="#9CA3AF"/>
<path d="M15.9941 102.258H69.0332V103.484H15.9941V102.258Z" fill="#9CA3AF"/>
</g>
<defs>
<linearGradient id="paint0_linear_926_346901" x1="452.25" y1="348.502" x2="452.25" y2="387.072" gradientUnits="userSpaceOnUse">
<stop offset="0.51887" stop-color="#FAFAFA"/>
<stop offset="1" stop-color="#FAFAFA" stop-opacity="0"/>
</linearGradient>
<linearGradient id="paint1_linear_926_346901" x1="772.25" y1="-555" x2="772.25" y2="-515" gradientUnits="userSpaceOnUse">
<stop offset="0.51887" stop-color="#FAFAFA"/>
<stop offset="1" stop-color="#FAFAFA" stop-opacity="0"/>
</linearGradient>
<linearGradient id="paint2_linear_926_346901" x1="160" y1="0" x2="160" y2="39.9769" gradientUnits="userSpaceOnUse">
<stop offset="0.322335" stop-color="#FAFAFA"/>
<stop offset="1" stop-color="#FAFAFA" stop-opacity="0"/>
</linearGradient>
<linearGradient id="paint3_linear_926_346901" x1="160.5" y1="-555" x2="160.5" y2="180.594" gradientUnits="userSpaceOnUse">
<stop offset="0.76" stop-color="#FAFAFA"/>
<stop offset="1" stop-color="#FAFAFA" stop-opacity="0"/>
</linearGradient>
<linearGradient id="paint4_linear_926_346901" x1="224.432" y1="197.146" x2="319.078" y2="197.146" gradientUnits="userSpaceOnUse">
<stop offset="0.5" stop-color="#E4E4E7"/>
<stop offset="1" stop-color="#FAFAFA" stop-opacity="0"/>
</linearGradient>
<linearGradient id="paint5_linear_926_346901" x1="97.2168" y1="196.788" x2="0.947266" y2="196.788" gradientUnits="userSpaceOnUse">
<stop offset="0.5" stop-color="#E4E4E7"/>
<stop offset="1" stop-color="#FAFAFA" stop-opacity="0"/>
</linearGradient>
<clipPath id="clip0_926_346901">
<rect width="320" height="350" fill="white" transform="translate(0.5)"/>
</clipPath>
</defs>
</svg>
