<svg width="520" height="308" viewBox="0 0 520 308" fill="none" xmlns="http://www.w3.org/2000/svg">
<path d="M54.4394 103.554C84.5056 73.4873 133.253 73.4873 163.319 103.554L213.069 153.303L156.284 210.088C127.513 238.859 80.8655 238.859 52.0943 210.088V210.088C23.3232 181.317 23.3232 134.67 52.0943 105.899L54.4394 103.554Z" stroke="#2563EB" stroke-width="41"/>
<path d="M183.891 153.322L213.238 124.021L194.94 105.64L165.597 134.936L183.891 153.322Z" fill="url(#paint0_linear_990_114185)"/>
<path d="M443.118 230.882C400.658 273.343 331.815 273.343 289.355 230.882L212.473 154L289.355 77.1182C331.815 34.6575 400.658 34.6575 443.118 77.1182V77.1182C485.579 119.579 485.579 188.421 443.118 230.882V230.882Z" stroke="#2563EB" stroke-width="41"/>
<path d="M230.497 201.383L259.661 172.265L241.477 154L212.318 183.112L230.497 201.383Z" fill="url(#paint1_linear_990_114185)"/>
<path d="M86.6093 167.723L74.5334 155.648L86.6093 143.572" stroke="#111827" stroke-width="3" stroke-linecap="round" stroke-linejoin="round"/>
<path d="M114.426 133.943L98.6411 177.352" stroke="#111827" stroke-width="3" stroke-linecap="round" stroke-linejoin="round"/>
<path d="M126.458 143.572L138.533 155.648L126.458 167.723" stroke="#111827" stroke-width="3" stroke-linecap="round" stroke-linejoin="round"/>
<path d="M354.202 147C352.003 146.438 349.71 146.35 347.474 146.742C345.239 147.135 343.112 147.998 341.236 149.275C339.36 150.551 337.776 152.213 336.591 154.148C335.406 156.084 334.646 158.249 334.362 160.501C334.078 162.753 334.276 165.039 334.942 167.209C335.609 169.378 336.73 171.381 338.23 173.084C339.73 174.787 341.576 176.151 343.644 177.087C345.711 178.022 347.955 178.507 350.224 178.509H380.783C382.719 178.509 384.625 177.962 386.148 176.766C388.365 175.024 391.312 172.39 393.664 169.366C395.837 166.468 397.291 163.094 397.905 159.524C398.519 155.954 398.276 152.289 397.196 148.832C396.116 145.374 394.229 142.222 391.692 139.637C389.155 137.051 386.04 135.105 382.603 133.96C379.167 132.814 375.507 132.501 371.926 133.048C368.345 133.594 364.945 134.983 362.006 137.101C359.067 139.219 356.674 142.005 355.023 145.229C353.372 148.454 352.511 152.024 352.51 155.647" stroke="#111827" stroke-width="3" stroke-linecap="round" stroke-linejoin="round"/>
<defs>
<linearGradient id="paint0_linear_990_114185" x1="178.851" y1="121.108" x2="197.501" y2="139.758" gradientUnits="userSpaceOnUse">
<stop stop-color="#1D4ED8" stop-opacity="0"/>
<stop offset="1" stop-color="#1D4ED8"/>
</linearGradient>
<linearGradient id="paint1_linear_990_114185" x1="225.489" y1="169.371" x2="244.022" y2="187.904" gradientUnits="userSpaceOnUse">
<stop stop-color="#1D4ED8"/>
<stop offset="1" stop-color="#1D4ED8" stop-opacity="0"/>
</linearGradient>
</defs>
</svg>
