<svg width="1120" height="480" viewBox="0 0 1120 480" fill="none" xmlns="http://www.w3.org/2000/svg">
<rect width="1120" height="480" fill="#FAFAFA"/>
<path d="M319.365 180.945C354.561 145.749 411.626 145.749 446.822 180.945L505.061 239.183L438.587 305.657C404.907 339.338 350.3 339.338 316.62 305.657V305.657C282.94 271.977 282.94 217.37 316.62 183.69L319.365 180.945Z" stroke="url(#paint0_angular_909_112385)" stroke-width="50"/>
<path d="M774.364 330C724.659 379.706 644.07 379.706 594.364 330L504.364 240L594.364 150C644.07 100.294 724.659 100.294 774.364 150V150C824.07 199.706 824.07 280.294 774.364 330V330Z" stroke="url(#paint1_angular_909_112385)" stroke-width="50"/>
<path d="M362.899 255.251L352.323 244.675L362.899 234.099" stroke="#111827" stroke-width="3" stroke-linecap="round" stroke-linejoin="round"/>
<path d="M387.261 225.667L373.437 263.683" stroke="#111827" stroke-width="3" stroke-linecap="round" stroke-linejoin="round"/>
<path d="M397.797 234.099L408.373 244.675L397.797 255.251" stroke="#111827" stroke-width="3" stroke-linecap="round" stroke-linejoin="round"/>
<path d="M673.825 232.429C671.899 231.936 669.891 231.86 667.933 232.203C665.975 232.546 664.113 233.302 662.47 234.421C660.827 235.539 659.44 236.994 658.402 238.689C657.364 240.384 656.698 242.28 656.449 244.252C656.201 246.224 656.374 248.227 656.958 250.127C657.542 252.027 658.524 253.781 659.837 255.272C661.151 256.764 662.767 257.959 664.578 258.778C666.389 259.597 668.354 260.022 670.341 260.024H696.735C698.671 260.024 700.579 259.477 702.091 258.268C703.995 256.745 706.425 254.535 708.385 252.016C710.288 249.478 711.561 246.524 712.099 243.397C712.637 240.271 712.424 237.061 711.478 234.033C710.532 231.005 708.88 228.245 706.658 225.98C704.436 223.716 701.708 222.012 698.698 221.008C695.689 220.005 692.484 219.731 689.347 220.209C686.211 220.688 683.233 221.904 680.66 223.759C678.086 225.614 675.99 228.054 674.544 230.878C673.098 233.702 672.344 236.829 672.344 240.001" stroke="#111827" stroke-width="3" stroke-linecap="round" stroke-linejoin="round"/>
<defs>
<radialGradient id="paint0_angular_909_112385" cx="0" cy="0" r="1" gradientUnits="userSpaceOnUse" gradientTransform="translate(380.349 241.929) rotate(-1.26098) scale(156.466 156.314)">
<stop stop-color="#3B82F6"/>
<stop offset="1" stop-color="#3B82F6" stop-opacity="0"/>
</radialGradient>
<radialGradient id="paint1_angular_909_112385" cx="0" cy="0" r="1" gradientUnits="userSpaceOnUse" gradientTransform="translate(684.364 240) rotate(180) scale(225.775)">
<stop stop-color="#3B82F6"/>
<stop offset="1" stop-color="#3B82F6" stop-opacity="0"/>
</radialGradient>
</defs>
</svg>
