<svg width="520" height="308" viewBox="0 0 520 308" fill="none" xmlns="http://www.w3.org/2000/svg">
<path d="M54.4391 103.523C84.5054 73.457 133.252 73.457 163.319 103.523L213.068 153.273L156.284 210.058C127.512 238.829 80.8652 238.829 52.0941 210.058V210.058C23.323 181.287 23.3229 134.639 52.0941 105.868L54.4391 103.523Z" stroke="#1D4ED8" stroke-width="41"/>
<path d="M183.892 153.291L213.239 123.99L194.941 105.61L165.598 134.906L183.892 153.291Z" fill="url(#paint0_linear_990_114065)"/>
<path d="M443.118 230.852C400.658 273.312 331.815 273.312 289.354 230.852L212.473 153.97L289.354 77.0879C331.815 34.6272 400.658 34.6272 443.118 77.0878V77.0878C485.579 119.549 485.579 188.391 443.118 230.852V230.852Z" stroke="#1D4ED8" stroke-width="41"/>
<path d="M230.498 201.353L259.662 172.235L241.478 153.97L212.318 183.082L230.498 201.353Z" fill="url(#paint1_linear_990_114065)"/>
<path d="M86.609 167.693L74.5332 155.617L86.609 143.541" stroke="#EEEEF0" stroke-width="3" stroke-linecap="round" stroke-linejoin="round"/>
<path d="M114.426 133.913L98.6406 177.321" stroke="#EEEEF0" stroke-width="3" stroke-linecap="round" stroke-linejoin="round"/>
<path d="M126.457 143.541L138.533 155.617L126.457 167.693" stroke="#EEEEF0" stroke-width="3" stroke-linecap="round" stroke-linejoin="round"/>
<path d="M354.203 146.97C352.004 146.408 349.71 146.32 347.475 146.712C345.239 147.104 343.113 147.967 341.237 149.244C339.36 150.521 337.777 152.182 336.592 154.118C335.407 156.054 334.647 158.219 334.362 160.471C334.078 162.722 334.276 165.009 334.943 167.178C335.61 169.348 336.731 171.35 338.231 173.053C339.731 174.757 341.576 176.121 343.644 177.057C345.712 177.992 347.955 178.477 350.225 178.479H380.783C382.719 178.479 384.626 177.932 386.148 176.736C388.365 174.994 391.312 172.36 393.664 169.335C395.838 166.437 397.291 163.064 397.905 159.494C398.52 155.924 398.276 152.259 397.196 148.801C396.116 145.344 394.23 142.192 391.693 139.607C389.156 137.021 386.041 135.075 382.604 133.929C379.167 132.784 375.508 132.471 371.927 133.017C368.346 133.563 364.946 134.953 362.007 137.071C359.068 139.189 356.674 141.975 355.023 145.199C353.372 148.423 352.511 151.994 352.511 155.616" stroke="#EEEEF0" stroke-width="3" stroke-linecap="round" stroke-linejoin="round"/>
<defs>
<linearGradient id="paint0_linear_990_114065" x1="178.852" y1="121.078" x2="197.502" y2="139.728" gradientUnits="userSpaceOnUse">
<stop stop-color="#1E40AF" stop-opacity="0"/>
<stop offset="1" stop-color="#1E40AF"/>
</linearGradient>
<linearGradient id="paint1_linear_990_114065" x1="225.49" y1="169.341" x2="244.023" y2="187.874" gradientUnits="userSpaceOnUse">
<stop stop-color="#1E40AF"/>
<stop offset="1" stop-color="#1E40AF" stop-opacity="0"/>
</linearGradient>
</defs>
</svg>
