<svg width="520" height="308" viewBox="0 0 520 308" fill="none" xmlns="http://www.w3.org/2000/svg">
<path d="M54.4391 103.523C84.5054 73.457 133.252 73.457 163.319 103.523L213.068 153.273L156.284 210.058C127.512 238.829 80.8652 238.829 52.0941 210.058V210.058C23.323 181.287 23.3229 134.639 52.0941 105.868L54.4391 103.523Z" stroke="#3B82F6" stroke-width="41"/>
<path d="M183.891 153.291L213.238 123.99L194.94 105.61L165.597 134.906L183.891 153.291Z" fill="url(#paint0_linear_990_114173)"/>
<path d="M443.119 230.852C400.658 273.312 331.816 273.312 289.355 230.852L212.473 153.97L289.355 77.0879C331.816 34.6272 400.658 34.6272 443.119 77.0878V77.0878C485.579 119.549 485.579 188.391 443.119 230.852V230.852Z" stroke="#3B82F6" stroke-width="41"/>
<path d="M230.497 201.353L259.661 172.235L241.477 153.97L212.318 183.082L230.497 201.353Z" fill="url(#paint1_linear_990_114173)"/>
<path d="M86.609 167.693L74.5332 155.617L86.609 143.541" stroke="#111827" stroke-width="3" stroke-linecap="round" stroke-linejoin="round"/>
<path d="M114.426 133.913L98.6411 177.321" stroke="#111827" stroke-width="3" stroke-linecap="round" stroke-linejoin="round"/>
<path d="M126.458 143.541L138.533 155.617L126.458 167.693" stroke="#111827" stroke-width="3" stroke-linecap="round" stroke-linejoin="round"/>
<path d="M354.202 146.97C352.003 146.408 349.71 146.32 347.474 146.712C345.239 147.104 343.112 147.967 341.236 149.244C339.36 150.521 337.776 152.182 336.591 154.118C335.406 156.054 334.646 158.219 334.362 160.471C334.078 162.722 334.276 165.009 334.942 167.178C335.609 169.348 336.73 171.35 338.23 173.053C339.73 174.757 341.576 176.121 343.644 177.057C345.711 177.992 347.955 178.477 350.224 178.479H380.783C382.719 178.479 384.625 177.932 386.148 176.736C388.365 174.994 391.312 172.36 393.664 169.335C395.837 166.437 397.291 163.064 397.905 159.494C398.519 155.924 398.276 152.259 397.196 148.801C396.116 145.344 394.229 142.192 391.692 139.607C389.155 137.021 386.04 135.075 382.603 133.929C379.167 132.784 375.507 132.471 371.926 133.017C368.345 133.563 364.945 134.953 362.006 137.071C359.067 139.189 356.674 141.975 355.023 145.199C353.372 148.423 352.511 151.994 352.51 155.616" stroke="#111827" stroke-width="3" stroke-linecap="round" stroke-linejoin="round"/>
<defs>
<linearGradient id="paint0_linear_990_114173" x1="178.851" y1="121.078" x2="197.501" y2="139.728" gradientUnits="userSpaceOnUse">
<stop stop-color="#1D4ED8" stop-opacity="0"/>
<stop offset="1" stop-color="#1D4ED8"/>
</linearGradient>
<linearGradient id="paint1_linear_990_114173" x1="225.489" y1="169.341" x2="244.022" y2="187.874" gradientUnits="userSpaceOnUse">
<stop stop-color="#1D4ED8"/>
<stop offset="1" stop-color="#1D4ED8" stop-opacity="0"/>
</linearGradient>
</defs>
</svg>
