<svg width="280" height="161" viewBox="0 0 280 161" fill="none" xmlns="http://www.w3.org/2000/svg">
<rect width="280" height="160" transform="translate(0 0.910156)" fill="#FAFAFA"/>
<path d="M54.5296 59.7704C67.0439 47.2562 87.3335 47.2562 99.8478 59.7704L120.555 80.4774L96.9197 104.113C84.9445 116.088 65.5288 116.088 53.5536 104.113V104.113C41.5784 92.1374 41.5784 72.7217 53.5536 60.7465L54.5296 59.7704Z" stroke="url(#paint0_angular_966_62492)" stroke-width="20"/>
<path d="M216.13 112.91C198.457 130.583 169.803 130.583 152.13 112.91L120.13 80.9102L152.13 48.9101C169.803 31.237 198.457 31.237 216.13 48.9102V48.9102C233.803 66.5833 233.803 95.237 216.13 112.91V112.91Z" stroke="url(#paint1_angular_966_62492)" stroke-width="20"/>
<path d="M68.2412 86.2837L63.4109 81.4534L68.2412 76.623" stroke="#111827" stroke-linecap="round" stroke-linejoin="round"/>
<path d="M79.3679 72.7715L73.054 90.1348" stroke="#111827" stroke-linecap="round" stroke-linejoin="round"/>
<path d="M84.1807 76.623L89.011 81.4534L84.1807 86.2837" stroke="#111827" stroke-linecap="round" stroke-linejoin="round"/>
<path d="M179.319 77.4511C178.439 77.2263 177.522 77.1912 176.628 77.3481C175.734 77.5049 174.883 77.8502 174.132 78.3609C173.382 78.8717 172.749 79.5362 172.274 80.3104C171.8 81.0847 171.496 81.9509 171.383 82.8515C171.269 83.7522 171.348 84.6668 171.615 85.5345C171.882 86.4023 172.33 87.2034 172.93 87.8846C173.53 88.5659 174.268 89.1117 175.095 89.4859C175.923 89.86 176.82 90.054 177.728 90.0549H188.171C190.107 90.0549 192.036 89.5234 193.446 88.1967C194.012 87.6643 194.593 87.0538 195.104 86.3974C195.973 85.2381 196.554 83.8889 196.8 82.4609C197.046 81.0329 196.948 79.5669 196.516 78.1838C196.084 76.8007 195.33 75.5401 194.315 74.5058C193.3 73.4716 192.054 72.6932 190.679 72.235C189.305 71.7767 187.841 71.6517 186.408 71.8702C184.976 72.0886 183.616 72.6443 182.44 73.4915C181.265 74.3387 180.307 75.4531 179.647 76.7428C178.987 78.0326 178.642 79.4608 178.642 80.9098" stroke="#111827" stroke-linecap="round" stroke-linejoin="round"/>
<defs>
<radialGradient id="paint0_angular_966_62492" cx="0" cy="0" r="1" gradientUnits="userSpaceOnUse" gradientTransform="translate(76.2127 81.4535) rotate(-1.26098) scale(55.6322 55.5783)">
<stop stop-color="#1D4ED8"/>
<stop offset="1" stop-color="#1D4ED8" stop-opacity="0"/>
</radialGradient>
<radialGradient id="paint1_angular_966_62492" cx="0" cy="0" r="1" gradientUnits="userSpaceOnUse" gradientTransform="translate(184.13 80.9102) rotate(180) scale(80.2757)">
<stop stop-color="#1D4ED8"/>
<stop offset="1" stop-color="#1D4ED8" stop-opacity="0"/>
</radialGradient>
</defs>
</svg>
