<svg width="529" height="392" viewBox="0 0 529 392" fill="none" xmlns="http://www.w3.org/2000/svg">
<path d="M66.0132 103.053L125.418 142.942" stroke="#52525B" stroke-width="2" stroke-dasharray="6 6"/>
<path d="M236.281 103.053L165.251 150.748" stroke="#52525B" stroke-width="2" stroke-dasharray="6 6"/>
<path d="M66.0132 212.63L125.418 172.741" stroke="#52525B" stroke-width="2" stroke-dasharray="6 6"/>
<path d="M427.621 341.111L167.249 166.275" stroke="#52525B" stroke-width="2" stroke-dasharray="6 6"/>
<path d="M42.7974 217.731L43.0976 95.6211" stroke="#52525B" stroke-width="2" stroke-dasharray="6 6"/>
<path d="M256.508 217.731L256.808 95.6211" stroke="#52525B" stroke-width="2" stroke-dasharray="6 6"/>
<path d="M256.515 96.0841L148.697 34.5405L64.9187 83.0571M257.574 218.637L151.822 279.732L60.2303 227.628" stroke="#52525B" stroke-width="2" stroke-dasharray="6 6"/>
<g filter="url(#filter0_dd_448_174037)">
<rect width="51.3213" height="51.3213" rx="25.6607" transform="matrix(1 0 0 -1 16.8555 247.01)" fill="#DBEAFE"/>
<rect width="51.3213" height="51.3213" rx="25.6607" transform="matrix(1 0 0 -1 16.8555 247.01)" stroke="#2563EB"/>
<path d="M41.0069 210.106C41.0069 210.117 41.1381 210.363 41.3022 210.669C41.4663 210.97 41.5811 211.227 41.5647 211.243C41.5483 211.254 41.0889 211.429 40.5475 211.621C40.0007 211.818 39.5686 211.982 39.5741 211.987C39.5796 211.993 40.1975 212.058 40.9413 212.129C41.8381 212.211 42.3084 212.271 42.3412 212.31C42.3686 212.337 42.5764 212.671 42.8006 213.043L43.2053 213.721L43.2764 213.551C43.3147 213.464 43.4404 213.163 43.5498 212.895L43.7522 212.408L44.8295 212.293C45.4201 212.228 45.9451 212.179 45.9998 212.179L46.0928 212.14C46.0928 212.124 45.6935 211.96 45.2014 211.774C44.7146 211.593 44.31 211.435 44.31 211.429C44.31 211.424 44.4139 211.167 44.5451 210.855C44.6709 210.543 44.7693 210.281 44.7639 210.275C44.7529 210.264 44.3373 210.39 43.8451 210.549L42.9537 210.844L41.9967 210.467C41.0561 210.095 41.0069 210.079 41.0069 210.106ZM46.9459 213.338C45.8029 213.792 44.8623 214.169 44.8568 214.18C44.8459 214.191 45.699 214.536 46.749 214.951L48.6521 215.7L48.8544 215.618C50.9763 214.793 52.9013 214.027 52.8958 214.016L49.0732 212.512C49.0349 212.518 48.0834 212.884 46.9459 213.338ZM35.9757 212.895C34.8765 213.01 33.9578 213.327 33.5695 213.732C33.3015 214.005 33.2578 214.24 33.4273 214.525C33.6734 214.951 34.4828 215.307 35.5984 215.487C36.1015 215.575 37.5726 215.558 38.0812 215.471C39.2733 215.263 40.0499 214.88 40.2303 214.399C40.296 214.218 40.296 214.196 40.2303 214.021C40.0499 213.557 39.2897 213.168 38.1632 212.971C37.5944 212.878 36.5335 212.84 35.9757 212.895ZM56.3903 214.218C56.3356 214.289 56.1332 214.453 55.9364 214.585C55.3567 214.957 54.6129 215.296 49.97 217.297C46.7052 218.697 45.874 219.069 44.7475 219.61C43.4951 220.207 42.9756 220.376 42.3467 220.376C41.7834 220.376 41.4444 220.278 40.3944 219.813C39.9733 219.627 38.2507 218.905 36.5718 218.205C29.2164 215.148 29.0797 215.082 28.686 214.656L28.5219 214.475V217.357L28.7078 217.538C28.8883 217.713 29.4953 218.079 29.7086 218.139C29.7688 218.156 30.168 218.32 30.6 218.506C31.032 218.692 33.1429 219.578 35.2921 220.474C38.8468 221.956 39.6561 222.296 40.8702 222.826C41.51 223.11 41.8655 223.181 42.4725 223.16C42.9155 223.143 43.0467 223.116 43.435 222.985C43.6865 222.903 44.1186 222.717 44.3975 222.574C45.3217 222.11 46.4373 221.617 50.8833 219.703C55.0668 217.899 55.6137 217.647 56.0676 217.335C56.5324 217.002 56.516 217.084 56.516 215.476C56.516 214.705 56.5106 214.076 56.5051 214.076L56.3903 214.218ZM41.7452 216.1C40.0335 216.362 38.6171 216.586 38.5897 216.597C38.5515 216.608 42.8553 218.418 43.0358 218.467L45.0045 215.64C44.999 215.602 45.0045 215.596 41.7452 216.1ZM56.4176 218.965C56.3793 219.031 56.1989 219.184 56.0293 219.31C55.4715 219.692 54.6348 220.075 49.549 222.263C46.6232 223.526 45.7045 223.931 44.835 224.352C43.424 225.035 43.085 225.145 42.3303 225.145C41.7452 225.139 41.3842 225.046 40.6077 224.696C39.8585 224.352 39.0218 224.002 35.664 222.607C29.8071 220.179 29.1344 219.873 28.7188 219.474L28.5164 219.282V222.126L28.7461 222.345C29.118 222.695 29.0797 222.673 35.3578 225.287C37.6601 226.244 39.8311 227.157 40.1811 227.316C41.1053 227.731 41.3733 227.83 41.7397 227.906C42.5928 228.081 43.2272 227.939 44.6107 227.267C45.5131 226.829 46.6123 226.342 49.2755 225.194C54.3395 223.012 55.5864 222.449 55.9582 222.203C56.0895 222.11 56.27 221.962 56.3575 221.864L56.516 221.689V220.267C56.516 219.485 56.5106 218.845 56.5051 218.845L56.4176 218.965ZM56.3684 223.624C56.0348 224.046 55.3622 224.368 50.1396 226.616C46.7326 228.087 45.6935 228.546 44.5725 229.077C43.3967 229.635 43.0084 229.755 42.3303 229.755C41.8655 229.755 41.3952 229.645 40.8756 229.416C39.6561 228.88 38.8522 228.541 35.2921 227.059C31.2453 225.374 29.9492 224.822 29.5172 224.609C29.1125 224.406 28.7024 224.117 28.6094 223.969L28.5164 223.832V225.281C28.5164 226.944 28.4891 226.818 28.9321 227.119C29.4242 227.447 30.157 227.775 35.0187 229.793C38.4147 231.204 39.6397 231.718 40.2413 231.992C41.4717 232.544 41.7998 232.631 42.4889 232.593C43.1178 232.566 43.5279 232.429 44.6162 231.909C45.7482 231.368 46.5849 230.991 50.2872 229.399C55.4278 227.185 55.9856 226.917 56.3739 226.468L56.5106 226.315V224.899C56.5106 224.117 56.5051 223.477 56.4996 223.477L56.3684 223.624Z" fill="#2563EB"/>
</g>
<g filter="url(#filter1_dd_448_174037)">
<rect width="51.3213" height="51.3213" rx="25.6607" transform="matrix(1 0 0 -1 230.801 247.01)" fill="#DBEAFE"/>
<rect width="51.3213" height="51.3213" rx="25.6607" transform="matrix(1 0 0 -1 230.801 247.01)" stroke="#2563EB"/>
<path d="M269.467 210.368L263.707 207.596C263.037 207.273 262.24 207.409 261.716 207.933L250.683 218L245.875 214.354C245.429 214.012 244.8 214.04 244.385 214.418L242.845 215.821C242.335 216.281 242.335 217.084 242.841 217.544L247.011 221.349L242.841 225.155C242.335 225.615 242.335 226.417 242.845 226.877L244.385 228.281C244.804 228.659 245.429 228.687 245.875 228.345L250.683 224.694L261.721 234.765C262.241 235.289 263.038 235.426 263.708 235.102L269.473 232.327C270.08 232.035 270.462 231.425 270.462 230.75V211.942C270.462 211.272 270.074 210.657 269.469 210.366L269.467 210.368ZM263.465 227.708L255.089 221.35L263.465 214.993V227.708Z" fill="#2563EB"/>
</g>
<g filter="url(#filter2_dd_448_174037)">
<rect width="51.3213" height="51.3213" rx="25.6607" transform="matrix(1 0 0 -1 123.007 66.5527)" fill="#DBEAFE"/>
<rect width="51.3213" height="51.3213" rx="25.6607" transform="matrix(1 0 0 -1 123.007 66.5527)" stroke="#2563EB"/>
<path fill-rule="evenodd" clip-rule="evenodd" d="M148.668 41.3751C153.828 41.3751 158.334 39.848 160.749 37.5772V40.7613C160.749 42.1471 159.684 43.6321 157.447 44.8294C155.252 46.0042 152.152 46.7613 148.672 46.7613C145.192 46.7613 142.091 46.0042 139.896 44.8294C137.659 43.6321 136.594 42.1471 136.594 40.7613V37.5845C139.012 39.8513 143.514 41.3751 148.668 41.3751ZM134.594 40.7613V33.7613C134.594 33.5695 134.648 33.3903 134.742 33.2381C135.234 29.2772 141.281 26.1475 148.668 26.1475C156.045 26.1475 162.085 29.269 162.592 33.2226C162.692 33.3781 162.749 33.5629 162.749 33.7613V40.7613V47.7613C162.749 50.2415 160.887 52.2565 158.391 53.5927C155.853 54.9514 152.414 55.7613 148.672 55.7613C144.929 55.7613 141.491 54.9514 138.952 53.5927C136.456 52.2565 134.594 50.2415 134.594 47.7613V40.7613ZM160.749 44.9277V47.7613C160.749 49.1471 159.684 50.6321 157.447 51.8294C155.252 53.0042 152.152 53.7613 148.672 53.7613C145.192 53.7613 142.091 53.0042 139.896 51.8294C137.659 50.6321 136.594 49.1471 136.594 47.7613V44.9277C137.264 45.5615 138.069 46.1196 138.952 46.5927C141.491 47.9514 144.929 48.7613 148.672 48.7613C152.414 48.7613 155.853 47.9514 158.391 46.5927C159.275 46.1196 160.079 45.5615 160.749 44.9277Z" fill="#2563EB"/>
</g>
<g filter="url(#filter3_dd_448_174037)">
<rect width="51.3213" height="51.3213" rx="25.6607" transform="matrix(1 0 0 -1 123.007 182.797)" fill="#DBEAFE"/>
<rect width="51.3213" height="51.3213" rx="25.6607" transform="matrix(1 0 0 -1 123.007 182.797)" stroke="#2563EB"/>
<path fill-rule="evenodd" clip-rule="evenodd" d="M146.571 146.125C146.019 146.125 145.571 146.572 145.571 147.125C145.571 147.677 146.019 148.125 146.571 148.125H150.86C151.413 148.125 151.86 147.677 151.86 147.125C151.86 146.572 151.413 146.125 150.86 146.125H146.571ZM142.945 149.924C142.945 149.372 143.392 148.924 143.945 148.924H153.487C154.039 148.924 154.487 149.372 154.487 149.924C154.487 150.477 154.039 150.924 153.487 150.924H143.945C143.392 150.924 142.945 150.477 142.945 149.924ZM137.434 153.791C137.434 152.687 138.329 151.791 139.434 151.791H157.901C159.006 151.791 159.901 152.687 159.901 153.791V166.023C159.901 167.127 159.006 168.023 157.901 168.023H139.434C138.329 168.023 137.434 167.127 137.434 166.023V153.791ZM144.011 162.837C145.558 162.837 146.811 161.584 146.811 160.037C146.811 158.491 145.558 157.237 144.011 157.237C142.465 157.237 141.211 158.491 141.211 160.037C141.211 161.584 142.465 162.837 144.011 162.837ZM155.903 160.037C155.903 161.584 154.649 162.837 153.103 162.837C151.556 162.837 150.303 161.584 150.303 160.037C150.303 158.491 151.556 157.237 153.103 157.237C154.649 157.237 155.903 158.491 155.903 160.037ZM160.466 162.754V157.32C161.683 157.326 162.668 158.314 162.668 159.531V160.552C162.668 161.768 161.682 162.754 160.466 162.754ZM136.869 157.32V162.754C135.653 162.754 134.668 161.768 134.668 160.552V159.531C134.668 158.314 135.652 157.326 136.869 157.32Z" fill="#2563EB"/>
</g>
<g filter="url(#filter4_dd_448_174037)">
<rect width="51.3213" height="51.3213" rx="25.6607" transform="matrix(1 0 0 -1 17.4365 117.874)" fill="#DBEAFE"/>
<rect width="51.3213" height="51.3213" rx="25.6607" transform="matrix(1 0 0 -1 17.4365 117.874)" stroke="#2563EB"/>
<path fill-rule="evenodd" clip-rule="evenodd" d="M38.4518 86.5487C38.7404 84.6897 39.1719 83.0291 39.7063 81.6584C40.2142 80.3557 40.8005 79.3526 41.4132 78.6879C41.7062 78.3701 41.9922 78.1425 42.2685 77.9915C42.5542 77.9742 42.8422 77.9653 43.1323 77.9653C43.4224 77.9653 43.7105 77.9742 43.9962 77.9915C44.2724 78.1425 44.5585 78.3701 44.8515 78.6879C45.4642 79.3526 46.0504 80.3557 46.5583 81.6584C47.0928 83.0291 47.5243 84.6897 47.8129 86.5487H38.4518ZM36.9347 86.5487H30.2187C31.9096 82.5223 35.4286 79.4531 39.7371 78.3799C39.1953 79.1364 38.7178 80.0645 38.3088 81.1135C37.7079 82.6546 37.2374 84.5024 36.9347 86.5487ZM46.5276 78.3799C47.0693 79.1364 47.5469 80.0645 47.9559 81.1135C48.5568 82.6546 49.0273 84.5024 49.33 86.5487H56.0459C54.3551 82.5223 50.836 79.4531 46.5276 78.3799ZM48.0095 88.0487H38.2551C38.1211 89.2916 38.049 90.605 38.049 91.9653C38.049 93.3256 38.1211 94.639 38.2552 95.882H48.0095C48.1435 94.639 48.2157 93.3256 48.2157 91.9653C48.2157 90.605 48.1435 89.2916 48.0095 88.0487ZM49.5178 95.882C49.6472 94.6286 49.7157 93.3158 49.7157 91.9653C49.7157 90.6149 49.6472 89.302 49.5178 88.0487H56.5771C56.9385 89.2915 57.1323 90.6058 57.1323 91.9653C57.1323 93.3249 56.9385 94.6391 56.5771 95.882H49.5178ZM47.8128 97.382H38.4518C38.7404 99.2409 39.1719 100.901 39.7063 102.272C40.2142 103.575 40.8005 104.578 41.4132 105.243C41.7062 105.561 41.9923 105.788 42.2685 105.939C42.5542 105.957 42.8423 105.965 43.1323 105.965C43.4224 105.965 43.7104 105.957 43.9961 105.939C44.2724 105.788 44.5585 105.561 44.8515 105.243C45.4642 104.578 46.0504 103.575 46.5583 102.272C47.0928 100.901 47.5243 99.2409 47.8128 97.382ZM46.5275 105.551C47.0693 104.794 47.5469 103.866 47.9559 102.817C48.5568 101.276 49.0272 99.4282 49.33 97.382H56.0459C54.355 101.408 50.836 104.478 46.5275 105.551ZM39.7371 105.551C39.1954 104.794 38.7178 103.866 38.3088 102.817C37.7079 101.276 37.2374 99.4282 36.9347 97.382H30.2187C31.9096 101.408 35.4286 104.478 39.7371 105.551ZM36.7468 95.882H29.6876C29.3261 94.6391 29.1323 93.3249 29.1323 91.9653C29.1323 90.6058 29.3261 89.2915 29.6876 88.0487H36.7468C36.6175 89.302 36.549 90.6149 36.549 91.9653C36.549 93.3158 36.6175 94.6286 36.7468 95.882Z" fill="#2563EB"/>
</g>
<g filter="url(#filter5_dd_448_174037)">
<rect width="51.3213" height="51.3213" rx="25.6607" transform="matrix(1 0 0 -1 230.801 117.874)" fill="#DBEAFE"/>
<rect width="51.3213" height="51.3213" rx="25.6607" transform="matrix(1 0 0 -1 230.801 117.874)" stroke="#2563EB"/>
<path fill-rule="evenodd" clip-rule="evenodd" d="M245.81 84.2318C245.474 84.4239 245.474 84.9091 245.811 85.1006L256.422 91.1342C256.577 91.2221 256.766 91.2213 256.92 91.1321L267.221 85.1579C267.554 84.9645 267.553 84.4824 267.218 84.2912L256.71 78.2885C256.556 78.2007 256.368 78.2007 256.214 78.2885L245.81 84.2318ZM269.066 86.6897C269.066 86.3043 268.649 86.0638 268.316 86.2571L257.609 92.4664C257.455 92.5558 257.36 92.7206 257.36 92.8989L257.36 105.569C257.36 105.953 257.775 106.194 258.108 106.004L268.814 99.8877C268.97 99.7987 269.066 99.633 269.066 99.4536V86.6897ZM255.112 106.173C255.445 106.363 255.86 106.123 255.86 105.739L255.86 92.8312C255.86 92.6514 255.764 92.4854 255.607 92.3965L244.605 86.1404C244.271 85.9509 243.858 86.1916 243.858 86.575V99.4536C243.858 99.633 243.954 99.7987 244.11 99.8877L255.112 106.173Z" fill="#2563EB"/>
</g>
<g filter="url(#filter6_dd_448_174037)">
<rect width="51.3213" height="51.3213" rx="25.6607" transform="matrix(1 0 0 -1 123.007 305.393)" fill="#DBEAFE"/>
<rect width="51.3213" height="51.3213" rx="25.6607" transform="matrix(1 0 0 -1 123.007 305.393)" stroke="#2563EB"/>
<path fill-rule="evenodd" clip-rule="evenodd" d="M151.778 285.622C151.916 285.861 152.221 285.943 152.461 285.805L155.38 284.12C155.619 283.982 155.701 283.676 155.563 283.437L154.685 281.916C154.572 281.721 154.605 281.476 154.756 281.308C154.905 281.142 155.049 280.969 155.185 280.79L158.927 283.744V288.816C158.927 288.907 158.939 288.994 158.961 289.077C158.101 289.45 157.5 290.307 157.5 291.305C157.5 292.646 158.587 293.733 159.927 293.733C161.268 293.733 162.355 292.646 162.355 291.305C162.355 290.307 161.753 289.45 160.893 289.077C160.915 288.994 160.927 288.906 160.927 288.816V283.259C160.927 282.953 160.787 282.664 160.547 282.474L156.349 279.161C156.3 279.122 156.248 279.089 156.195 279.061C156.293 278.834 156.38 278.601 156.458 278.364C156.527 278.15 156.723 277.999 156.948 277.999H158.702C158.979 277.999 159.202 277.776 159.202 277.499V274.128C159.202 273.852 158.979 273.628 158.702 273.628H156.948C156.723 273.628 156.527 273.477 156.458 273.263C156.098 272.161 155.513 271.162 154.756 270.319C154.605 270.152 154.572 269.907 154.685 269.712L155.563 268.191C155.701 267.952 155.619 267.646 155.38 267.508L152.461 265.822C152.221 265.684 151.916 265.766 151.778 266.005L150.9 267.525C150.788 267.72 150.56 267.814 150.34 267.768C149.791 267.652 149.222 267.591 148.638 267.591C148.055 267.591 147.486 267.652 146.937 267.768C146.717 267.814 146.489 267.72 146.377 267.525L145.499 266.005C145.361 265.766 145.055 265.684 144.816 265.822L141.897 267.508C141.658 267.646 141.576 267.952 141.714 268.191L142.592 269.712C142.704 269.907 142.672 270.152 142.521 270.319C141.764 271.162 141.178 272.161 140.819 273.263C140.75 273.477 140.554 273.628 140.329 273.628H138.575C138.299 273.628 138.075 273.852 138.075 274.128V277.499C138.075 277.776 138.299 277.999 138.575 277.999H140.329C140.554 277.999 140.75 278.15 140.819 278.364C140.899 278.61 140.991 278.852 141.093 279.087C141.057 279.109 141.021 279.133 140.986 279.161L136.788 282.474C136.548 282.664 136.408 282.953 136.408 283.259L136.408 288.816C136.408 288.907 136.42 288.994 136.442 289.077C135.582 289.45 134.98 290.307 134.98 291.305C134.98 292.646 136.067 293.733 137.408 293.733C138.749 293.733 139.836 292.646 139.836 291.305C139.836 290.307 139.234 289.45 138.374 289.077C138.396 288.994 138.408 288.906 138.408 288.816V283.744L142.114 280.818C142.244 280.987 142.379 281.151 142.521 281.308C142.672 281.476 142.704 281.721 142.592 281.915L141.714 283.437C141.576 283.676 141.658 283.982 141.897 284.12L144.816 285.805C145.055 285.943 145.361 285.861 145.499 285.622L146.377 284.103C146.489 283.908 146.717 283.814 146.937 283.86C147.177 283.911 147.421 283.951 147.668 283.98V288.253C147.668 288.326 147.676 288.398 147.69 288.466C146.836 288.842 146.24 289.696 146.24 290.689C146.24 292.03 147.327 293.117 148.668 293.117C150.008 293.117 151.095 292.03 151.095 290.689C151.095 289.696 150.499 288.842 149.645 288.466C149.66 288.398 149.668 288.326 149.668 288.253V283.972C149.895 283.944 150.119 283.907 150.34 283.86C150.56 283.814 150.788 283.908 150.9 284.103L151.778 285.622ZM148.638 281.096C151.556 281.096 153.92 278.731 153.92 275.814C153.92 272.897 151.556 270.532 148.638 270.532C145.721 270.532 143.357 272.897 143.357 275.814C143.357 278.731 145.721 281.096 148.638 281.096Z" fill="#2563EB"/>
</g>
<rect x="427.621" y="291.453" width="99.2321" height="99.2321" rx="49.616" fill="#FAFAFA"/>
<path fill-rule="evenodd" clip-rule="evenodd" d="M477.07 316.363C472.236 316.363 468.347 320.234 468.347 324.974C468.347 329.713 472.236 333.584 477.07 333.584C481.903 333.584 485.792 329.713 485.792 324.974C485.792 320.234 481.903 316.363 477.07 316.363ZM465.347 324.974C465.347 318.546 470.611 313.363 477.07 313.363C483.528 313.363 488.792 318.546 488.792 324.974C488.792 329.164 486.555 332.826 483.208 334.867C486.192 336.177 488.669 338.415 490.267 341.211C490.308 341.284 490.343 341.359 490.371 341.435H505.048C505.324 341.435 505.548 341.658 505.548 341.935V368.525C505.548 368.801 505.324 369.025 505.048 369.025H449.426C449.15 369.025 448.926 368.801 448.926 368.525V341.935C448.926 341.658 449.15 341.435 449.426 341.435H463.777C463.808 341.341 463.849 341.249 463.9 341.16C465.499 338.387 467.965 336.169 470.931 334.866C467.584 332.825 465.347 329.164 465.347 324.974ZM467.308 341.435H486.829C484.615 338.492 481.07 336.584 477.069 336.584C473.068 336.584 469.522 338.492 467.308 341.435ZM480.167 347.145C480.686 347.332 480.956 347.905 480.769 348.424L475.63 362.712C475.443 363.232 474.87 363.501 474.351 363.314C473.831 363.127 473.561 362.555 473.748 362.035L478.887 347.747C479.074 347.228 479.647 346.958 480.167 347.145ZM471.475 350.545C471.868 350.933 471.871 351.566 471.483 351.959L468.595 354.879C468.402 355.074 468.402 355.387 468.595 355.582L471.483 358.502C471.871 358.894 471.868 359.528 471.475 359.916C471.083 360.304 470.45 360.301 470.061 359.908L466.13 355.934C465.744 355.544 465.744 354.917 466.13 354.527L470.061 350.552C470.45 350.16 471.083 350.156 471.475 350.545ZM484.456 350.552C484.067 350.16 483.434 350.156 483.041 350.545C482.649 350.933 482.645 351.566 483.034 351.959L485.922 354.879C486.114 355.074 486.114 355.387 485.922 355.582L483.034 358.502C482.645 358.894 482.649 359.528 483.041 359.916C483.434 360.304 484.067 360.301 484.456 359.908L488.387 355.934C488.772 355.544 488.772 354.917 488.387 354.527L484.456 350.552Z" fill="#2563EB"/>
<circle cx="477.529" cy="341.153" r="49.616" stroke="#2563EB" stroke-width="2"/>
<path d="M464.153 91.0957L291.137 390.769" stroke="#D4D4D8" stroke-width="2" stroke-dasharray="6 6"/>
<rect x="285" y="185.731" width="32" height="32" rx="16" fill="#DBEAFE"/>
<rect x="285" y="185.731" width="32" height="32" rx="16" stroke="#2563EB"/>
<path fill-rule="evenodd" clip-rule="evenodd" d="M304.21 193.972C304.338 193.937 304.474 193.955 304.589 194.022L307.279 195.575C307.394 195.641 307.477 195.75 307.512 195.878C307.546 196.006 307.528 196.143 307.462 196.258L306.709 197.561C307.245 198.174 307.664 198.891 307.934 199.679H309.437C309.713 199.679 309.937 199.903 309.937 200.179V203.285C309.937 203.561 309.713 203.785 309.437 203.785H307.934C307.664 204.572 307.245 205.289 306.709 205.902L307.462 207.206C307.528 207.32 307.546 207.457 307.512 207.585C307.477 207.713 307.394 207.822 307.279 207.889L304.589 209.442C304.35 209.58 304.044 209.498 303.906 209.259L303.154 207.956C302.758 208.033 302.349 208.074 301.931 208.074C301.513 208.074 301.104 208.033 300.708 207.956L299.956 209.259C299.889 209.373 299.78 209.457 299.652 209.492C299.524 209.526 299.387 209.508 299.273 209.442L296.583 207.889C296.344 207.751 296.262 207.445 296.4 207.206L297.152 205.902C296.66 205.339 296.266 204.687 295.996 203.974H297.08C297.34 204.536 297.696 205.045 298.126 205.482C298.284 205.642 298.315 205.888 298.203 206.083L297.516 207.273L299.34 208.326L300.026 207.137C300.138 206.942 300.367 206.846 300.585 206.903C301.014 207.014 301.465 207.074 301.931 207.074C302.397 207.074 302.848 207.014 303.277 206.903C303.495 206.847 303.723 206.942 303.836 207.137L304.522 208.326L306.346 207.273L305.659 206.083C305.546 205.888 305.578 205.642 305.736 205.482C306.367 204.841 306.837 204.043 307.083 203.152C307.142 202.935 307.34 202.785 307.565 202.785H308.937V200.679H307.565C307.34 200.679 307.142 200.528 307.083 200.311C306.838 199.42 306.367 198.622 305.736 197.981C305.578 197.821 305.546 197.575 305.659 197.38L306.346 196.191L304.522 195.138L303.836 196.326C303.723 196.521 303.495 196.616 303.277 196.56C302.848 196.448 302.397 196.389 301.931 196.389C301.465 196.389 301.014 196.448 300.584 196.56C300.367 196.616 300.138 196.521 300.026 196.326L299.34 195.138L297.516 196.191L298.203 197.38C298.315 197.575 298.284 197.821 298.126 197.981C297.705 198.408 297.356 198.905 297.097 199.453H296.01C296.279 198.754 296.668 198.115 297.152 197.561L296.4 196.258C296.262 196.018 296.344 195.713 296.583 195.575L299.273 194.022C299.387 193.955 299.524 193.937 299.652 193.972C299.78 194.006 299.889 194.09 299.956 194.205L300.708 195.507C301.104 195.43 301.513 195.389 301.931 195.389C302.349 195.389 302.758 195.43 303.154 195.507L303.906 194.205C303.972 194.09 304.081 194.006 304.21 193.972ZM301.87 199.134C302.682 199.134 303.407 199.506 303.884 200.09H302.604C301.697 200.09 300.962 200.825 300.962 201.732C300.962 202.638 301.697 203.373 302.604 203.373L303.884 203.373C303.407 203.957 302.682 204.329 301.87 204.329C300.86 204.329 299.983 203.752 299.553 202.906L299.546 202.891L299.541 202.883C299.433 202.664 299.186 202.56 298.959 202.623L293.955 202.623C293.462 202.623 293.063 202.224 293.063 201.732C293.063 201.239 293.462 200.84 293.955 200.84L299.103 200.84C299.304 200.84 299.478 200.721 299.557 200.549L299.564 200.535C299.998 199.702 300.868 199.134 301.87 199.134ZM304.934 201.051C304.873 201.075 304.811 201.086 304.749 201.086L304.749 201.09L302.604 201.09C302.249 201.09 301.962 201.377 301.962 201.732C301.962 202.086 302.249 202.373 302.604 202.373L304.749 202.373V202.377C304.811 202.377 304.873 202.388 304.934 202.412C305.191 202.515 305.316 202.805 305.214 203.062C304.685 204.389 303.388 205.329 301.87 205.329C300.577 205.329 299.444 204.646 298.81 203.623H293.955C292.91 203.623 292.063 202.776 292.063 201.732C292.063 200.687 292.91 199.84 293.955 199.84L298.81 199.84C299.444 198.817 300.577 198.134 301.87 198.134C303.388 198.134 304.685 199.074 305.214 200.401C305.316 200.658 305.191 200.949 304.934 201.051Z" fill="#2563EB"/>
<rect x="215.425" y="161.688" width="32" height="32" rx="16" fill="#DBEAFE"/>
<rect x="215.425" y="161.688" width="32" height="32" rx="16" stroke="#2563EB"/>
<path fill-rule="evenodd" clip-rule="evenodd" d="M224.687 170.109C224.907 169.889 225.263 169.889 225.482 170.109L227.007 171.633C227.776 171.171 228.676 170.905 229.638 170.905C230.606 170.905 231.511 171.174 232.283 171.641L233.815 170.109C234.034 169.889 234.391 169.889 234.61 170.109C234.83 170.329 234.83 170.685 234.61 170.905L233.499 172.016C232.752 172.037 232.036 172.18 231.369 172.424C230.846 172.172 230.258 172.03 229.638 172.03C227.833 172.03 226.309 173.228 225.815 174.872H228.178C227.93 175.224 227.715 175.601 227.536 175.997H225.647L225.647 176.021V178.182C225.647 179.629 226.418 180.897 227.571 181.597C227.841 182.179 228.192 182.717 228.61 183.195C227.043 182.875 225.736 181.839 225.048 180.443H222.969C222.659 180.443 222.407 180.191 222.407 179.881C222.407 179.57 222.659 179.318 222.969 179.318H224.649C224.569 178.965 224.525 178.597 224.522 178.22H222.969C222.659 178.22 222.407 177.968 222.407 177.658C222.407 177.347 222.659 177.095 222.969 177.095H224.522V176.021L224.522 175.997H222.969C222.659 175.997 222.407 175.746 222.407 175.435C222.407 175.124 222.659 174.872 222.969 174.872H224.652C224.879 173.882 225.394 173.001 226.104 172.322L224.687 170.905C224.467 170.685 224.467 170.329 224.687 170.109ZM228.57 178.759C228.57 175.93 230.863 173.636 233.693 173.636C236.522 173.636 238.816 175.93 238.816 178.759C238.816 179.877 238.458 180.911 237.851 181.753C237.538 181.695 237.203 181.787 236.961 182.029C236.72 182.271 236.627 182.606 236.685 182.918C235.843 183.525 234.81 183.883 233.693 183.883C230.863 183.883 228.57 181.589 228.57 178.759ZM237.257 183.739C236.253 184.459 235.022 184.883 233.693 184.883C230.311 184.883 227.57 182.141 227.57 178.759C227.57 175.378 230.311 172.636 233.693 172.636C237.075 172.636 239.816 175.378 239.816 178.759C239.816 180.089 239.392 181.321 238.672 182.325L240.585 184.239C240.976 184.629 240.976 185.262 240.585 185.653C240.195 186.043 239.562 186.043 239.171 185.653L237.257 183.739ZM233.462 174.872C233.404 174.68 233.332 174.494 233.248 174.316C233.684 174.273 234.098 174.301 234.484 174.375C234.539 174.538 234.586 174.703 234.625 174.872H235.849C236.26 175.097 236.598 175.358 236.846 175.596C236.777 175.828 236.561 175.997 236.307 175.997H234.754L234.754 176.022V177.095H236.307C236.618 177.095 236.87 177.347 236.87 177.658C236.87 177.968 236.618 178.22 236.307 178.22H234.754C234.752 178.597 234.708 178.965 234.628 179.318H236.307C236.618 179.318 236.869 179.57 236.869 179.881C236.869 180.191 236.618 180.443 236.307 180.443H234.229C233.725 181.464 232.892 182.292 231.867 182.788C231.418 182.568 231.042 182.306 230.727 182.023C232.402 181.549 233.629 180.009 233.629 178.182V176.022L233.629 175.997H230.22C230.632 175.481 231.104 175.103 231.486 174.872H233.462ZM230.201 177.658V181.464C229.536 180.629 229.299 179.736 229.275 179.233C229.18 178.422 229.311 177.708 229.563 177.1C229.588 177.097 229.613 177.095 229.638 177.095C229.949 177.095 230.201 177.347 230.201 177.658Z" fill="#2563EB"/>
<rect x="231.76" y="254.072" width="32" height="32" rx="16" fill="#DBEAFE"/>
<rect x="231.76" y="254.072" width="32" height="32" rx="16" stroke="#2563EB"/>
<path d="M242.156 273.468L238.76 270.072L242.156 266.675" stroke="#2563EB" stroke-linecap="round" stroke-linejoin="round"/>
<path d="M249.98 263.967L245.54 276.176" stroke="#2563EB" stroke-linecap="round" stroke-linejoin="round"/>
<path d="M253.364 266.675L256.76 270.072L253.364 273.468" stroke="#2563EB" stroke-linecap="round" stroke-linejoin="round"/>
<defs>
<filter id="filter0_dd_448_174037" x="0.355469" y="181.188" width="84.3213" height="84.3213" filterUnits="userSpaceOnUse" color-interpolation-filters="sRGB">
<feFlood flood-opacity="0" result="BackgroundImageFix"/>
<feColorMatrix in="SourceAlpha" type="matrix" values="0 0 0 0 0 0 0 0 0 0 0 0 0 0 0 0 0 0 127 0" result="hardAlpha"/>
<feOffset dy="2"/>
<feGaussianBlur stdDeviation="8"/>
<feColorMatrix type="matrix" values="0 0 0 0 0.0588235 0 0 0 0 0.0588235 0 0 0 0 0.0666667 0 0 0 0.08 0"/>
<feBlend mode="normal" in2="BackgroundImageFix" result="effect1_dropShadow_448_174037"/>
<feColorMatrix in="SourceAlpha" type="matrix" values="0 0 0 0 0 0 0 0 0 0 0 0 0 0 0 0 0 0 127 0" result="hardAlpha"/>
<feMorphology radius="1" operator="dilate" in="SourceAlpha" result="effect2_dropShadow_448_174037"/>
<feOffset/>
<feColorMatrix type="matrix" values="0 0 0 0 0.0588235 0 0 0 0 0.0588235 0 0 0 0 0.0666667 0 0 0 0.1 0"/>
<feBlend mode="normal" in2="effect1_dropShadow_448_174037" result="effect2_dropShadow_448_174037"/>
<feBlend mode="normal" in="SourceGraphic" in2="effect2_dropShadow_448_174037" result="shape"/>
</filter>
<filter id="filter1_dd_448_174037" x="214.301" y="181.188" width="84.3213" height="84.3213" filterUnits="userSpaceOnUse" color-interpolation-filters="sRGB">
<feFlood flood-opacity="0" result="BackgroundImageFix"/>
<feColorMatrix in="SourceAlpha" type="matrix" values="0 0 0 0 0 0 0 0 0 0 0 0 0 0 0 0 0 0 127 0" result="hardAlpha"/>
<feOffset dy="2"/>
<feGaussianBlur stdDeviation="8"/>
<feColorMatrix type="matrix" values="0 0 0 0 0.0588235 0 0 0 0 0.0588235 0 0 0 0 0.0666667 0 0 0 0.08 0"/>
<feBlend mode="normal" in2="BackgroundImageFix" result="effect1_dropShadow_448_174037"/>
<feColorMatrix in="SourceAlpha" type="matrix" values="0 0 0 0 0 0 0 0 0 0 0 0 0 0 0 0 0 0 127 0" result="hardAlpha"/>
<feMorphology radius="1" operator="dilate" in="SourceAlpha" result="effect2_dropShadow_448_174037"/>
<feOffset/>
<feColorMatrix type="matrix" values="0 0 0 0 0.0588235 0 0 0 0 0.0588235 0 0 0 0 0.0666667 0 0 0 0.1 0"/>
<feBlend mode="normal" in2="effect1_dropShadow_448_174037" result="effect2_dropShadow_448_174037"/>
<feBlend mode="normal" in="SourceGraphic" in2="effect2_dropShadow_448_174037" result="shape"/>
</filter>
<filter id="filter2_dd_448_174037" x="106.507" y="0.731445" width="84.3213" height="84.3213" filterUnits="userSpaceOnUse" color-interpolation-filters="sRGB">
<feFlood flood-opacity="0" result="BackgroundImageFix"/>
<feColorMatrix in="SourceAlpha" type="matrix" values="0 0 0 0 0 0 0 0 0 0 0 0 0 0 0 0 0 0 127 0" result="hardAlpha"/>
<feOffset dy="2"/>
<feGaussianBlur stdDeviation="8"/>
<feColorMatrix type="matrix" values="0 0 0 0 0.0588235 0 0 0 0 0.0588235 0 0 0 0 0.0666667 0 0 0 0.08 0"/>
<feBlend mode="normal" in2="BackgroundImageFix" result="effect1_dropShadow_448_174037"/>
<feColorMatrix in="SourceAlpha" type="matrix" values="0 0 0 0 0 0 0 0 0 0 0 0 0 0 0 0 0 0 127 0" result="hardAlpha"/>
<feMorphology radius="1" operator="dilate" in="SourceAlpha" result="effect2_dropShadow_448_174037"/>
<feOffset/>
<feColorMatrix type="matrix" values="0 0 0 0 0.0588235 0 0 0 0 0.0588235 0 0 0 0 0.0666667 0 0 0 0.1 0"/>
<feBlend mode="normal" in2="effect1_dropShadow_448_174037" result="effect2_dropShadow_448_174037"/>
<feBlend mode="normal" in="SourceGraphic" in2="effect2_dropShadow_448_174037" result="shape"/>
</filter>
<filter id="filter3_dd_448_174037" x="106.507" y="116.976" width="84.3213" height="84.3213" filterUnits="userSpaceOnUse" color-interpolation-filters="sRGB">
<feFlood flood-opacity="0" result="BackgroundImageFix"/>
<feColorMatrix in="SourceAlpha" type="matrix" values="0 0 0 0 0 0 0 0 0 0 0 0 0 0 0 0 0 0 127 0" result="hardAlpha"/>
<feOffset dy="2"/>
<feGaussianBlur stdDeviation="8"/>
<feColorMatrix type="matrix" values="0 0 0 0 0.0588235 0 0 0 0 0.0588235 0 0 0 0 0.0666667 0 0 0 0.08 0"/>
<feBlend mode="normal" in2="BackgroundImageFix" result="effect1_dropShadow_448_174037"/>
<feColorMatrix in="SourceAlpha" type="matrix" values="0 0 0 0 0 0 0 0 0 0 0 0 0 0 0 0 0 0 127 0" result="hardAlpha"/>
<feMorphology radius="1" operator="dilate" in="SourceAlpha" result="effect2_dropShadow_448_174037"/>
<feOffset/>
<feColorMatrix type="matrix" values="0 0 0 0 0.0588235 0 0 0 0 0.0588235 0 0 0 0 0.0666667 0 0 0 0.1 0"/>
<feBlend mode="normal" in2="effect1_dropShadow_448_174037" result="effect2_dropShadow_448_174037"/>
<feBlend mode="normal" in="SourceGraphic" in2="effect2_dropShadow_448_174037" result="shape"/>
</filter>
<filter id="filter4_dd_448_174037" x="0.936523" y="52.0522" width="84.3213" height="84.3213" filterUnits="userSpaceOnUse" color-interpolation-filters="sRGB">
<feFlood flood-opacity="0" result="BackgroundImageFix"/>
<feColorMatrix in="SourceAlpha" type="matrix" values="0 0 0 0 0 0 0 0 0 0 0 0 0 0 0 0 0 0 127 0" result="hardAlpha"/>
<feOffset dy="2"/>
<feGaussianBlur stdDeviation="8"/>
<feColorMatrix type="matrix" values="0 0 0 0 0.0588235 0 0 0 0 0.0588235 0 0 0 0 0.0666667 0 0 0 0.08 0"/>
<feBlend mode="normal" in2="BackgroundImageFix" result="effect1_dropShadow_448_174037"/>
<feColorMatrix in="SourceAlpha" type="matrix" values="0 0 0 0 0 0 0 0 0 0 0 0 0 0 0 0 0 0 127 0" result="hardAlpha"/>
<feMorphology radius="1" operator="dilate" in="SourceAlpha" result="effect2_dropShadow_448_174037"/>
<feOffset/>
<feColorMatrix type="matrix" values="0 0 0 0 0.0588235 0 0 0 0 0.0588235 0 0 0 0 0.0666667 0 0 0 0.1 0"/>
<feBlend mode="normal" in2="effect1_dropShadow_448_174037" result="effect2_dropShadow_448_174037"/>
<feBlend mode="normal" in="SourceGraphic" in2="effect2_dropShadow_448_174037" result="shape"/>
</filter>
<filter id="filter5_dd_448_174037" x="214.301" y="52.0522" width="84.3213" height="84.3213" filterUnits="userSpaceOnUse" color-interpolation-filters="sRGB">
<feFlood flood-opacity="0" result="BackgroundImageFix"/>
<feColorMatrix in="SourceAlpha" type="matrix" values="0 0 0 0 0 0 0 0 0 0 0 0 0 0 0 0 0 0 127 0" result="hardAlpha"/>
<feOffset dy="2"/>
<feGaussianBlur stdDeviation="8"/>
<feColorMatrix type="matrix" values="0 0 0 0 0.0588235 0 0 0 0 0.0588235 0 0 0 0 0.0666667 0 0 0 0.08 0"/>
<feBlend mode="normal" in2="BackgroundImageFix" result="effect1_dropShadow_448_174037"/>
<feColorMatrix in="SourceAlpha" type="matrix" values="0 0 0 0 0 0 0 0 0 0 0 0 0 0 0 0 0 0 127 0" result="hardAlpha"/>
<feMorphology radius="1" operator="dilate" in="SourceAlpha" result="effect2_dropShadow_448_174037"/>
<feOffset/>
<feColorMatrix type="matrix" values="0 0 0 0 0.0588235 0 0 0 0 0.0588235 0 0 0 0 0.0666667 0 0 0 0.1 0"/>
<feBlend mode="normal" in2="effect1_dropShadow_448_174037" result="effect2_dropShadow_448_174037"/>
<feBlend mode="normal" in="SourceGraphic" in2="effect2_dropShadow_448_174037" result="shape"/>
</filter>
<filter id="filter6_dd_448_174037" x="106.507" y="239.572" width="84.3213" height="84.3213" filterUnits="userSpaceOnUse" color-interpolation-filters="sRGB">
<feFlood flood-opacity="0" result="BackgroundImageFix"/>
<feColorMatrix in="SourceAlpha" type="matrix" values="0 0 0 0 0 0 0 0 0 0 0 0 0 0 0 0 0 0 127 0" result="hardAlpha"/>
<feOffset dy="2"/>
<feGaussianBlur stdDeviation="8"/>
<feColorMatrix type="matrix" values="0 0 0 0 0.0588235 0 0 0 0 0.0588235 0 0 0 0 0.0666667 0 0 0 0.08 0"/>
<feBlend mode="normal" in2="BackgroundImageFix" result="effect1_dropShadow_448_174037"/>
<feColorMatrix in="SourceAlpha" type="matrix" values="0 0 0 0 0 0 0 0 0 0 0 0 0 0 0 0 0 0 127 0" result="hardAlpha"/>
<feMorphology radius="1" operator="dilate" in="SourceAlpha" result="effect2_dropShadow_448_174037"/>
<feOffset/>
<feColorMatrix type="matrix" values="0 0 0 0 0.0588235 0 0 0 0 0.0588235 0 0 0 0 0.0666667 0 0 0 0.1 0"/>
<feBlend mode="normal" in2="effect1_dropShadow_448_174037" result="effect2_dropShadow_448_174037"/>
<feBlend mode="normal" in="SourceGraphic" in2="effect2_dropShadow_448_174037" result="shape"/>
</filter>
</defs>
</svg>
