<svg width="704" height="380" viewBox="0 0 704 380" fill="none" xmlns="http://www.w3.org/2000/svg">
<rect width="704" height="380" fill="#FAFAFA"/>
<path d="M146.439 139.553C176.506 109.487 225.253 109.487 255.319 139.553L305.069 189.303L248.284 246.088C219.513 274.859 172.865 274.859 144.094 246.088V246.088C115.323 217.316 115.323 170.669 144.094 141.898L146.439 139.553Z" stroke="#2563EB" stroke-width="41"/>
<path d="M275.891 189.322L305.238 160.021L286.94 141.641L257.597 170.936L275.891 189.322Z" fill="url(#paint0_linear_2490_151407)"/>
<path d="M535.118 266.882C492.658 309.342 423.815 309.343 381.355 266.882L304.473 190L381.355 113.118C423.815 70.6575 492.658 70.6574 535.118 113.118V113.118C577.579 155.579 577.579 224.421 535.118 266.882V266.882Z" stroke="#2563EB" stroke-width="41"/>
<path d="M322.497 237.383L351.661 208.265L333.477 190L304.318 219.112L322.497 237.383Z" fill="url(#paint1_linear_2490_151407)"/>
<path d="M178.609 203.724L166.533 191.648L178.609 179.572" stroke="#111827" stroke-width="3" stroke-linecap="round" stroke-linejoin="round"/>
<path d="M206.426 169.943L190.641 213.352" stroke="#111827" stroke-width="3" stroke-linecap="round" stroke-linejoin="round"/>
<path d="M218.458 179.572L230.533 191.648L218.458 203.724" stroke="#111827" stroke-width="3" stroke-linecap="round" stroke-linejoin="round"/>
<path d="M446.202 183C444.003 182.438 441.71 182.35 439.474 182.742C437.239 183.134 435.112 183.998 433.236 185.274C431.36 186.551 429.776 188.213 428.591 190.148C427.406 192.084 426.646 194.249 426.362 196.501C426.078 198.753 426.276 201.039 426.942 203.208C427.609 205.378 428.73 207.381 430.23 209.084C431.73 210.787 433.576 212.151 435.644 213.087C437.711 214.022 439.955 214.507 442.224 214.509H472.783C474.719 214.509 476.625 213.962 478.148 212.766C480.365 211.024 483.312 208.39 485.664 205.366C487.837 202.467 489.291 199.094 489.905 195.524C490.519 191.954 490.276 188.289 489.196 184.832C488.116 181.374 486.229 178.222 483.692 175.637C481.155 173.051 478.04 171.105 474.603 169.96C471.167 168.814 467.507 168.501 463.926 169.047C460.345 169.594 456.945 170.983 454.006 173.101C451.067 175.219 448.674 178.005 447.023 181.229C445.372 184.454 444.511 188.024 444.51 191.647" stroke="#111827" stroke-width="3" stroke-linecap="round" stroke-linejoin="round"/>
<defs>
<linearGradient id="paint0_linear_2490_151407" x1="270.851" y1="157.109" x2="289.501" y2="175.758" gradientUnits="userSpaceOnUse">
<stop stop-color="#1D4ED8" stop-opacity="0"/>
<stop offset="1" stop-color="#1D4ED8"/>
</linearGradient>
<linearGradient id="paint1_linear_2490_151407" x1="317.489" y1="205.371" x2="336.022" y2="223.904" gradientUnits="userSpaceOnUse">
<stop stop-color="#1D4ED8"/>
<stop offset="1" stop-color="#1D4ED8" stop-opacity="0"/>
</linearGradient>
</defs>
</svg>
