<svg width="529" height="392" viewBox="0 0 529 392" fill="none" xmlns="http://www.w3.org/2000/svg">
<path d="M66.0132 103.053L125.418 142.942" stroke="#E4E4E7" stroke-width="2" stroke-dasharray="6 6"/>
<path d="M236.282 103.053L165.251 150.748" stroke="#E4E4E7" stroke-width="2" stroke-dasharray="6 6"/>
<path d="M66.0132 212.629L125.418 172.74" stroke="#E4E4E7" stroke-width="2" stroke-dasharray="6 6"/>
<path d="M427.621 341.109L167.249 166.274" stroke="#E4E4E7" stroke-width="2" stroke-dasharray="6 6"/>
<path d="M42.7974 217.729L43.0976 95.6191" stroke="#E4E4E7" stroke-width="2" stroke-dasharray="6 6"/>
<path d="M256.508 217.729L256.808 95.6191" stroke="#E4E4E7" stroke-width="2" stroke-dasharray="6 6"/>
<path d="M256.515 96.0827L148.697 34.5391L64.9187 83.0557M257.574 218.635L151.822 279.731L60.2303 227.626" stroke="#E4E4E7" stroke-width="2" stroke-dasharray="6 6"/>
<g filter="url(#filter0_dd_622_123051)">
<rect width="51.3213" height="51.3213" rx="25.6607" transform="matrix(1 0 0 -1 16.8555 247.01)" fill="#091842"/>
<rect width="51.3213" height="51.3213" rx="25.6607" transform="matrix(1 0 0 -1 16.8555 247.01)" stroke="#1E40AF"/>
<path d="M41.0069 210.106C41.0069 210.117 41.1381 210.363 41.3022 210.67C41.4663 210.97 41.5811 211.227 41.5647 211.244C41.5483 211.255 41.0889 211.43 40.5475 211.621C40.0007 211.818 39.5686 211.982 39.5741 211.988C39.5796 211.993 40.1975 212.059 40.9413 212.13C41.8381 212.212 42.3084 212.272 42.3412 212.31C42.3686 212.338 42.5764 212.671 42.8006 213.043L43.2053 213.721L43.2764 213.552C43.3147 213.464 43.4404 213.163 43.5498 212.895L43.7522 212.409L44.8295 212.294C45.4201 212.228 45.9451 212.179 45.9998 212.179L46.0928 212.141C46.0928 212.124 45.6935 211.96 45.2014 211.774C44.7146 211.594 44.31 211.435 44.31 211.43C44.31 211.424 44.4139 211.167 44.5451 210.856C44.6709 210.544 44.7693 210.281 44.7639 210.276C44.7529 210.265 44.3373 210.391 43.8451 210.549L42.9537 210.845L41.9967 210.467C41.0561 210.095 41.0069 210.079 41.0069 210.106ZM46.9459 213.338C45.8029 213.792 44.8623 214.17 44.8568 214.181C44.8459 214.191 45.699 214.536 46.749 214.952L48.6521 215.701L48.8544 215.619C50.9763 214.793 52.9013 214.027 52.8958 214.016L49.0732 212.513C49.0349 212.518 48.0834 212.884 46.9459 213.338ZM35.9757 212.895C34.8765 213.01 33.9578 213.327 33.5695 213.732C33.3015 214.006 33.2578 214.241 33.4273 214.525C33.6734 214.952 34.4828 215.307 35.5984 215.488C36.1015 215.575 37.5726 215.559 38.0812 215.471C39.2733 215.263 40.0499 214.881 40.2303 214.399C40.296 214.219 40.296 214.197 40.2303 214.022C40.0499 213.557 39.2897 213.169 38.1632 212.972C37.5944 212.879 36.5335 212.841 35.9757 212.895ZM56.3903 214.219C56.3356 214.29 56.1332 214.454 55.9364 214.585C55.3567 214.957 54.6129 215.296 49.97 217.298C46.7052 218.698 45.874 219.07 44.7475 219.611C43.4951 220.207 42.9756 220.377 42.3467 220.377C41.7834 220.377 41.4444 220.278 40.3944 219.813C39.9733 219.627 38.2507 218.905 36.5718 218.205C29.2164 215.148 29.0797 215.083 28.686 214.656L28.5219 214.476V217.358L28.7078 217.538C28.8883 217.713 29.4953 218.08 29.7086 218.14C29.7688 218.156 30.168 218.32 30.6 218.506C31.032 218.692 33.1429 219.578 35.2921 220.475C38.8468 221.957 39.6561 222.296 40.8702 222.826C41.51 223.111 41.8655 223.182 42.4725 223.16C42.9155 223.144 43.0467 223.116 43.435 222.985C43.6865 222.903 44.1186 222.717 44.3975 222.575C45.3217 222.11 46.4373 221.618 50.8833 219.704C55.0668 217.899 55.6137 217.648 56.0676 217.336C56.5324 217.002 56.516 217.084 56.516 215.477C56.516 214.706 56.5106 214.077 56.5051 214.077L56.3903 214.219ZM41.7452 216.1C40.0335 216.363 38.6171 216.587 38.5897 216.598C38.5515 216.609 42.8553 218.419 43.0358 218.468L45.0045 215.641C44.999 215.602 45.0045 215.597 41.7452 216.1ZM56.4176 218.966C56.3793 219.031 56.1989 219.184 56.0293 219.31C55.4715 219.693 54.6348 220.076 49.549 222.263C46.6232 223.526 45.7045 223.931 44.835 224.352C43.424 225.036 43.085 225.145 42.3303 225.145C41.7452 225.14 41.3842 225.047 40.6077 224.697C39.8585 224.352 39.0218 224.002 35.664 222.608C29.8071 220.18 29.1344 219.873 28.7188 219.474L28.5164 219.283V222.127L28.7461 222.345C29.118 222.695 29.0797 222.673 35.3578 225.287C37.6601 226.244 39.8311 227.158 40.1811 227.316C41.1053 227.732 41.3733 227.83 41.7397 227.907C42.5928 228.082 43.2272 227.94 44.6107 227.267C45.5131 226.83 46.6123 226.343 49.2755 225.194C54.3395 223.012 55.5864 222.449 55.9582 222.203C56.0895 222.11 56.27 221.962 56.3575 221.864L56.516 221.689V220.267C56.516 219.485 56.5106 218.845 56.5051 218.845L56.4176 218.966ZM56.3684 223.625C56.0348 224.046 55.3622 224.369 50.1396 226.616C46.7326 228.087 45.6935 228.547 44.5725 229.077C43.3967 229.635 43.0084 229.755 42.3303 229.755C41.8655 229.755 41.3952 229.646 40.8756 229.416C39.6561 228.88 38.8522 228.541 35.2921 227.059C31.2453 225.375 29.9492 224.823 29.5172 224.609C29.1125 224.407 28.7024 224.117 28.6094 223.969L28.5164 223.833V225.282C28.5164 226.944 28.4891 226.819 28.9321 227.119C29.4242 227.448 30.157 227.776 35.0187 229.794C38.4147 231.205 39.6397 231.719 40.2413 231.992C41.4717 232.544 41.7998 232.632 42.4889 232.594C43.1178 232.566 43.5279 232.429 44.6162 231.91C45.7482 231.369 46.5849 230.991 50.2872 229.4C55.4278 227.185 55.9856 226.917 56.3739 226.469L56.5106 226.316V224.899C56.5106 224.117 56.5051 223.477 56.4996 223.477L56.3684 223.625Z" fill="#60A5FA"/>
</g>
<g filter="url(#filter1_dd_622_123051)">
<rect width="51.3213" height="51.3213" rx="25.6607" transform="matrix(1 0 0 -1 230.801 247.01)" fill="#091842"/>
<rect width="51.3213" height="51.3213" rx="25.6607" transform="matrix(1 0 0 -1 230.801 247.01)" stroke="#1E40AF"/>
<path d="M269.467 210.367L263.707 207.596C263.037 207.272 262.24 207.409 261.716 207.933L250.683 217.999L245.875 214.353C245.429 214.011 244.8 214.039 244.385 214.417L242.845 215.821C242.335 216.281 242.335 217.083 242.841 217.544L247.011 221.349L242.841 225.154C242.335 225.614 242.335 226.417 242.845 226.877L244.385 228.28C244.804 228.658 245.429 228.686 245.875 228.344L250.683 224.694L261.721 234.765C262.241 235.289 263.038 235.425 263.708 235.102L269.473 232.326C270.08 232.035 270.462 231.424 270.462 230.75V211.942C270.462 211.272 270.074 210.657 269.469 210.365L269.467 210.367ZM263.465 227.707L255.089 221.35L263.465 214.992V227.707Z" fill="#60A5FA"/>
</g>
<g filter="url(#filter2_dd_622_123051)">
<rect width="51.3213" height="51.3213" rx="25.6607" transform="matrix(1 0 0 -1 123.007 66.5527)" fill="#091842"/>
<rect width="51.3213" height="51.3213" rx="25.6607" transform="matrix(1 0 0 -1 123.007 66.5527)" stroke="#1E40AF"/>
<path fill-rule="evenodd" clip-rule="evenodd" d="M148.668 41.376C153.828 41.376 158.334 39.849 160.75 37.5782V40.7623C160.75 42.148 159.684 43.6331 157.447 44.8304C155.253 46.0051 152.152 46.7623 148.672 46.7623C145.192 46.7623 142.091 46.0051 139.897 44.8304C137.66 43.6331 136.594 42.148 136.594 40.7623V37.5855C139.012 39.8523 143.514 41.376 148.668 41.376ZM134.594 40.7623V33.7623C134.594 33.5705 134.648 33.3913 134.742 33.2391C135.235 29.2781 141.281 26.1484 148.668 26.1484C156.045 26.1484 162.086 29.2699 162.592 33.2236C162.692 33.3791 162.75 33.5639 162.75 33.7623V40.7623V47.7623C162.75 50.2425 160.888 52.2575 158.391 53.5937C155.853 54.9524 152.415 55.7623 148.672 55.7623C144.929 55.7623 141.491 54.9524 138.953 53.5937C136.456 52.2575 134.594 50.2425 134.594 47.7623V40.7623ZM160.75 44.9287V47.7623C160.75 49.148 159.684 50.6331 157.447 51.8304C155.253 53.0051 152.152 53.7623 148.672 53.7623C145.192 53.7623 142.091 53.0051 139.897 51.8304C137.66 50.6331 136.594 49.148 136.594 47.7623V44.9287C137.265 45.5624 138.069 46.1206 138.953 46.5937C141.491 47.9524 144.929 48.7623 148.672 48.7623C152.415 48.7623 155.853 47.9524 158.391 46.5937C159.275 46.1206 160.079 45.5624 160.75 44.9287Z" fill="#60A5FA"/>
</g>
<g filter="url(#filter3_dd_622_123051)">
<rect width="51.3213" height="51.3213" rx="25.6607" transform="matrix(1 0 0 -1 123.007 182.795)" fill="#091842"/>
<rect width="51.3213" height="51.3213" rx="25.6607" transform="matrix(1 0 0 -1 123.007 182.795)" stroke="#1E40AF"/>
<path fill-rule="evenodd" clip-rule="evenodd" d="M146.571 146.123C146.019 146.123 145.571 146.571 145.571 147.123C145.571 147.675 146.019 148.123 146.571 148.123H150.86C151.413 148.123 151.86 147.675 151.86 147.123C151.86 146.571 151.413 146.123 150.86 146.123H146.571ZM142.945 149.923C142.945 149.371 143.393 148.923 143.945 148.923H153.487C154.039 148.923 154.487 149.371 154.487 149.923C154.487 150.475 154.039 150.923 153.487 150.923H143.945C143.393 150.923 142.945 150.475 142.945 149.923ZM137.434 153.79C137.434 152.685 138.33 151.79 139.434 151.79H157.902C159.006 151.79 159.902 152.685 159.902 153.79V166.021C159.902 167.126 159.006 168.021 157.902 168.021H139.434C138.33 168.021 137.434 167.126 137.434 166.021V153.79ZM144.012 162.836C145.558 162.836 146.812 161.582 146.812 160.036C146.812 158.489 145.558 157.236 144.012 157.236C142.465 157.236 141.212 158.489 141.212 160.036C141.212 161.582 142.465 162.836 144.012 162.836ZM155.903 160.036C155.903 161.582 154.649 162.836 153.103 162.836C151.557 162.836 150.303 161.582 150.303 160.036C150.303 158.489 151.557 157.236 153.103 157.236C154.649 157.236 155.903 158.489 155.903 160.036ZM160.466 162.752V157.319C161.684 157.324 162.668 158.312 162.668 159.53V160.55C162.668 161.766 161.682 162.752 160.466 162.752ZM136.87 157.319V162.752C135.654 162.752 134.668 161.766 134.668 160.55V159.53C134.668 158.312 135.652 157.324 136.87 157.319Z" fill="#60A5FA"/>
</g>
<g filter="url(#filter4_dd_622_123051)">
<rect width="51.3213" height="51.3213" rx="25.6607" transform="matrix(1 0 0 -1 17.4365 117.873)" fill="#091842"/>
<rect width="51.3213" height="51.3213" rx="25.6607" transform="matrix(1 0 0 -1 17.4365 117.873)" stroke="#1E40AF"/>
<path fill-rule="evenodd" clip-rule="evenodd" d="M38.4518 86.5482C38.7404 84.6892 39.1719 83.0287 39.7063 81.6579C40.2142 80.3552 40.8005 79.3521 41.4132 78.6874C41.7062 78.3696 41.9922 78.142 42.2685 77.9911C42.5542 77.9737 42.8422 77.9648 43.1323 77.9648C43.4224 77.9648 43.7105 77.9737 43.9962 77.9911C44.2724 78.142 44.5585 78.3696 44.8515 78.6874C45.4642 79.3521 46.0504 80.3552 46.5583 81.6579C47.0928 83.0287 47.5243 84.6892 47.8129 86.5482H38.4518ZM36.9347 86.5482H30.2187C31.9096 82.5218 35.4286 79.4527 39.7371 78.3794C39.1953 79.1359 38.7178 80.064 38.3088 81.113C37.7079 82.6542 37.2374 84.502 36.9347 86.5482ZM46.5276 78.3794C47.0693 79.1359 47.5469 80.064 47.9559 81.113C48.5568 82.6542 49.0273 84.502 49.33 86.5482H56.0459C54.3551 82.5218 50.836 79.4527 46.5276 78.3794ZM48.0095 88.0482H38.2551C38.1211 89.2912 38.049 90.6045 38.049 91.9648C38.049 93.3251 38.1211 94.6385 38.2552 95.8815H48.0095C48.1435 94.6385 48.2157 93.3251 48.2157 91.9648C48.2157 90.6045 48.1435 89.2912 48.0095 88.0482ZM49.5178 95.8815C49.6472 94.6281 49.7157 93.3153 49.7157 91.9648C49.7157 90.6144 49.6472 89.3015 49.5178 88.0482H56.5771C56.9385 89.2911 57.1323 90.6053 57.1323 91.9648C57.1323 93.3244 56.9385 94.6386 56.5771 95.8815H49.5178ZM47.8128 97.3815H38.4518C38.7404 99.2404 39.1719 100.901 39.7063 102.272C40.2142 103.574 40.8005 104.578 41.4132 105.242C41.7062 105.56 41.9923 105.788 42.2685 105.939C42.5542 105.956 42.8423 105.965 43.1323 105.965C43.4224 105.965 43.7104 105.956 43.9961 105.939C44.2724 105.788 44.5585 105.56 44.8515 105.242C45.4642 104.578 46.0504 103.574 46.5583 102.272C47.0928 100.901 47.5243 99.2404 47.8128 97.3815ZM46.5275 105.55C47.0693 104.794 47.5469 103.866 47.9559 102.817C48.5568 101.276 49.0272 99.4277 49.33 97.3815H56.0459C54.355 101.408 50.836 104.477 46.5275 105.55ZM39.7371 105.55C39.1954 104.794 38.7178 103.866 38.3088 102.817C37.7079 101.276 37.2374 99.4277 36.9347 97.3815H30.2187C31.9096 101.408 35.4286 104.477 39.7371 105.55ZM36.7468 95.8815H29.6876C29.3261 94.6386 29.1323 93.3244 29.1323 91.9648C29.1323 90.6053 29.3261 89.2911 29.6876 88.0482H36.7468C36.6175 89.3015 36.549 90.6144 36.549 91.9648C36.549 93.3153 36.6175 94.6281 36.7468 95.8815Z" fill="#60A5FA"/>
</g>
<g filter="url(#filter5_dd_622_123051)">
<rect width="51.3213" height="51.3213" rx="25.6607" transform="matrix(1 0 0 -1 230.801 117.873)" fill="#091842"/>
<rect width="51.3213" height="51.3213" rx="25.6607" transform="matrix(1 0 0 -1 230.801 117.873)" stroke="#1E40AF"/>
<path fill-rule="evenodd" clip-rule="evenodd" d="M245.81 84.2318C245.473 84.4239 245.474 84.9091 245.811 85.1006L256.422 91.1342C256.576 91.2221 256.766 91.2213 256.92 91.1321L267.221 85.1579C267.554 84.9645 267.553 84.4824 267.218 84.2912L256.71 78.2885C256.556 78.2007 256.367 78.2007 256.214 78.2885L245.81 84.2318ZM269.066 86.6897C269.066 86.3043 268.649 86.0638 268.315 86.2571L257.609 92.4664C257.455 92.5558 257.36 92.7206 257.36 92.8989L257.36 105.569C257.36 105.953 257.775 106.194 258.108 106.004L268.814 99.8877C268.97 99.7987 269.066 99.633 269.066 99.4536V86.6897ZM255.112 106.173C255.445 106.363 255.86 106.123 255.86 105.739L255.86 92.8312C255.86 92.6514 255.763 92.4854 255.607 92.3965L244.605 86.1404C244.271 85.9509 243.857 86.1916 243.857 86.575V99.4536C243.857 99.633 243.954 99.7987 244.109 99.8877L255.112 106.173Z" fill="#60A5FA"/>
</g>
<g filter="url(#filter6_dd_622_123051)">
<rect width="51.3213" height="51.3213" rx="25.6607" transform="matrix(1 0 0 -1 123.007 305.393)" fill="#091842"/>
<rect width="51.3213" height="51.3213" rx="25.6607" transform="matrix(1 0 0 -1 123.007 305.393)" stroke="#1E40AF"/>
<path fill-rule="evenodd" clip-rule="evenodd" d="M151.778 285.623C151.916 285.862 152.221 285.944 152.461 285.806L155.38 284.12C155.619 283.982 155.701 283.676 155.563 283.437L154.685 281.916C154.572 281.721 154.605 281.476 154.756 281.309C154.905 281.142 155.049 280.969 155.185 280.79L158.927 283.744V288.817C158.927 288.907 158.939 288.994 158.961 289.077C158.101 289.451 157.5 290.308 157.5 291.305C157.5 292.646 158.587 293.733 159.927 293.733C161.268 293.733 162.355 292.646 162.355 291.305C162.355 290.308 161.753 289.451 160.893 289.077C160.915 288.994 160.927 288.907 160.927 288.817V283.26C160.927 282.954 160.787 282.665 160.547 282.475L156.349 279.161C156.3 279.122 156.248 279.089 156.195 279.061C156.293 278.834 156.38 278.602 156.458 278.365C156.527 278.151 156.723 278 156.948 278H158.702C158.979 278 159.202 277.776 159.202 277.5V274.129C159.202 273.853 158.979 273.629 158.702 273.629H156.948C156.723 273.629 156.527 273.478 156.458 273.264C156.098 272.162 155.513 271.162 154.756 270.32C154.605 270.152 154.572 269.907 154.685 269.713L155.563 268.192C155.701 267.952 155.619 267.647 155.38 267.509L152.461 265.823C152.221 265.685 151.916 265.767 151.778 266.006L150.9 267.525C150.788 267.72 150.56 267.814 150.34 267.768C149.791 267.653 149.222 267.592 148.638 267.592C148.055 267.592 147.486 267.653 146.937 267.768C146.717 267.814 146.489 267.72 146.377 267.525L145.499 266.006C145.361 265.767 145.055 265.685 144.816 265.823L141.897 267.509C141.658 267.647 141.576 267.952 141.714 268.192L142.592 269.713C142.704 269.908 142.672 270.152 142.521 270.32C141.764 271.162 141.178 272.162 140.819 273.264C140.75 273.478 140.554 273.629 140.329 273.629H138.575C138.299 273.629 138.075 273.853 138.075 274.129V277.5C138.075 277.776 138.299 278 138.575 278H140.329C140.554 278 140.75 278.151 140.819 278.365C140.899 278.611 140.991 278.852 141.093 279.087C141.057 279.109 141.021 279.134 140.986 279.161L136.788 282.475C136.548 282.665 136.408 282.954 136.408 283.26L136.408 288.817C136.408 288.907 136.42 288.994 136.442 289.077C135.582 289.451 134.98 290.308 134.98 291.305C134.98 292.646 136.067 293.733 137.408 293.733C138.749 293.733 139.836 292.646 139.836 291.305C139.836 290.308 139.234 289.451 138.374 289.077C138.396 288.994 138.408 288.907 138.408 288.817V283.744L142.114 280.819C142.244 280.988 142.379 281.151 142.521 281.309C142.672 281.476 142.704 281.721 142.592 281.916L141.714 283.437C141.576 283.676 141.658 283.982 141.897 284.12L144.816 285.806C145.055 285.944 145.361 285.862 145.499 285.623L146.377 284.103C146.489 283.908 146.717 283.814 146.937 283.861C147.177 283.911 147.421 283.951 147.668 283.98V288.254C147.668 288.327 147.676 288.398 147.69 288.467C146.836 288.843 146.24 289.697 146.24 290.69C146.24 292.031 147.327 293.117 148.668 293.117C150.008 293.117 151.095 292.031 151.095 290.69C151.095 289.697 150.499 288.843 149.645 288.467C149.66 288.398 149.668 288.327 149.668 288.254V283.973C149.895 283.945 150.119 283.907 150.34 283.861C150.56 283.814 150.788 283.908 150.9 284.103L151.778 285.623ZM148.638 281.096C151.556 281.096 153.92 278.732 153.92 275.815C153.92 272.897 151.556 270.533 148.638 270.533C145.721 270.533 143.357 272.897 143.357 275.815C143.357 278.732 145.721 281.096 148.638 281.096Z" fill="#60A5FA"/>
</g>
<rect x="427.621" y="291.451" width="99.2321" height="99.2321" rx="49.616" fill="#0F0F11"/>
<path fill-rule="evenodd" clip-rule="evenodd" d="M477.069 316.361C472.236 316.361 468.347 320.232 468.347 324.972C468.347 329.711 472.236 333.582 477.069 333.582C481.902 333.582 485.792 329.711 485.792 324.972C485.792 320.232 481.902 316.361 477.069 316.361ZM465.347 324.972C465.347 318.544 470.611 313.361 477.069 313.361C483.528 313.361 488.792 318.544 488.792 324.972C488.792 329.162 486.555 332.824 483.207 334.865C486.191 336.176 488.669 338.413 490.266 341.21C490.308 341.282 490.342 341.357 490.371 341.433H505.048C505.324 341.433 505.548 341.656 505.548 341.933V368.523C505.548 368.799 505.324 369.023 505.048 369.023H449.426C449.15 369.023 448.926 368.799 448.926 368.523V341.933C448.926 341.656 449.15 341.433 449.426 341.433H463.777C463.808 341.339 463.849 341.247 463.9 341.158C465.498 338.385 467.964 336.167 470.931 334.864C467.584 332.823 465.347 329.162 465.347 324.972ZM467.308 341.433H486.829C484.615 338.49 481.069 336.582 477.069 336.582C473.068 336.582 469.522 338.49 467.308 341.433ZM480.166 347.143C480.686 347.33 480.956 347.903 480.769 348.422L475.63 362.71C475.443 363.23 474.87 363.499 474.351 363.312C473.831 363.126 473.561 362.553 473.748 362.033L478.887 347.746C479.074 347.226 479.647 346.956 480.166 347.143ZM471.475 350.543C471.868 350.931 471.871 351.564 471.483 351.957L468.595 354.877C468.402 355.072 468.402 355.385 468.595 355.58L471.483 358.5C471.871 358.892 471.868 359.526 471.475 359.914C471.082 360.302 470.449 360.299 470.061 359.906L466.13 355.932C465.744 355.542 465.744 354.915 466.13 354.525L470.061 350.55C470.449 350.158 471.082 350.154 471.475 350.543ZM484.455 350.55C484.067 350.158 483.434 350.154 483.041 350.543C482.649 350.931 482.645 351.564 483.033 351.957L485.921 354.877C486.114 355.072 486.114 355.385 485.921 355.58L483.033 358.5C482.645 358.892 482.649 359.526 483.041 359.914C483.434 360.302 484.067 360.299 484.455 359.906L488.387 355.932C488.772 355.542 488.772 354.915 488.387 354.525L484.455 350.55Z" fill="#60A5FA"/>
<circle cx="477.529" cy="341.151" r="49.616" stroke="#1E40AF" stroke-width="2"/>
<path d="M464.153 91.0957L291.137 390.769" stroke="#3F3F46" stroke-width="2" stroke-dasharray="6 6"/>
<rect x="285" y="185.73" width="32" height="32" rx="16" fill="#091842"/>
<rect x="285" y="185.73" width="32" height="32" rx="16" stroke="#1E40AF"/>
<path fill-rule="evenodd" clip-rule="evenodd" d="M304.21 193.97C304.338 193.936 304.474 193.954 304.589 194.02L307.279 195.573C307.394 195.639 307.477 195.749 307.512 195.877C307.546 196.005 307.528 196.141 307.462 196.256L306.709 197.559C307.245 198.172 307.664 198.89 307.934 199.677H309.437C309.713 199.677 309.937 199.901 309.937 200.177V203.283C309.937 203.559 309.713 203.783 309.437 203.783H307.934C307.664 204.571 307.245 205.288 306.709 205.901L307.462 207.204C307.528 207.319 307.546 207.456 307.512 207.584C307.477 207.712 307.394 207.821 307.279 207.887L304.589 209.44C304.35 209.578 304.044 209.496 303.906 209.257L303.154 207.955C302.758 208.032 302.349 208.072 301.931 208.072C301.513 208.072 301.104 208.032 300.708 207.955L299.956 209.257C299.889 209.372 299.78 209.456 299.652 209.49C299.524 209.524 299.387 209.506 299.273 209.44L296.583 207.887C296.344 207.749 296.262 207.443 296.4 207.204L297.152 205.901C296.66 205.337 296.266 204.685 295.996 203.972H297.08C297.34 204.534 297.696 205.044 298.126 205.48C298.284 205.64 298.315 205.886 298.203 206.081L297.516 207.271L299.34 208.324L300.026 207.135C300.138 206.941 300.367 206.845 300.585 206.902C301.014 207.013 301.465 207.072 301.931 207.072C302.397 207.072 302.848 207.013 303.277 206.902C303.495 206.845 303.723 206.941 303.836 207.136L304.522 208.324L306.346 207.271L305.659 206.081C305.546 205.886 305.578 205.641 305.736 205.48C306.367 204.84 306.837 204.041 307.083 203.151C307.142 202.934 307.34 202.783 307.565 202.783H308.937V200.677H307.565C307.34 200.677 307.142 200.527 307.083 200.31C306.838 199.419 306.367 198.62 305.736 197.98C305.578 197.82 305.546 197.574 305.659 197.379L306.346 196.189L304.522 195.136L303.836 196.325C303.723 196.519 303.495 196.615 303.277 196.558C302.848 196.447 302.397 196.388 301.931 196.388C301.465 196.388 301.014 196.447 300.584 196.559C300.367 196.615 300.138 196.519 300.026 196.325L299.34 195.136L297.516 196.189L298.203 197.379C298.315 197.574 298.284 197.82 298.126 197.98C297.705 198.407 297.356 198.904 297.097 199.452H296.01C296.279 198.753 296.668 198.113 297.152 197.559L296.4 196.256C296.262 196.017 296.344 195.711 296.583 195.573L299.273 194.02C299.387 193.954 299.524 193.936 299.652 193.97C299.78 194.004 299.889 194.088 299.956 194.203L300.708 195.505C301.104 195.428 301.513 195.388 301.931 195.388C302.349 195.388 302.758 195.428 303.154 195.505L303.906 194.203C303.972 194.088 304.081 194.004 304.21 193.97ZM301.87 199.133C302.682 199.133 303.407 199.505 303.884 200.089H302.604C301.697 200.089 300.962 200.824 300.962 201.73C300.962 202.637 301.697 203.371 302.604 203.371L303.884 203.371C303.407 203.955 302.682 204.328 301.87 204.328C300.86 204.328 299.983 203.75 299.553 202.905L299.546 202.89L299.541 202.882C299.433 202.663 299.186 202.558 298.959 202.622L293.955 202.622C293.462 202.622 293.063 202.223 293.063 201.73C293.063 201.238 293.462 200.838 293.955 200.838L299.103 200.838C299.304 200.838 299.478 200.719 299.557 200.548L299.564 200.534C299.998 199.7 300.868 199.133 301.87 199.133ZM304.934 201.049C304.873 201.074 304.811 201.085 304.749 201.085L304.749 201.089L302.604 201.089C302.249 201.089 301.962 201.376 301.962 201.73C301.962 202.084 302.249 202.371 302.604 202.371L304.749 202.371V202.375C304.811 202.375 304.873 202.387 304.934 202.411C305.191 202.513 305.316 202.804 305.214 203.06C304.685 204.388 303.388 205.328 301.87 205.328C300.577 205.328 299.444 204.645 298.81 203.622H293.955C292.91 203.622 292.063 202.775 292.063 201.73C292.063 200.685 292.91 199.838 293.955 199.838L298.81 199.838C299.444 198.815 300.577 198.133 301.87 198.133C303.388 198.133 304.685 199.072 305.214 200.4C305.316 200.656 305.191 200.947 304.934 201.049Z" fill="#60A5FA"/>
<rect x="215.425" y="161.688" width="32" height="32" rx="16" fill="#091842"/>
<rect x="215.425" y="161.688" width="32" height="32" rx="16" stroke="#1E40AF"/>
<path fill-rule="evenodd" clip-rule="evenodd" d="M224.687 170.108C224.907 169.888 225.263 169.888 225.482 170.108L227.007 171.632C227.776 171.17 228.676 170.904 229.638 170.904C230.606 170.904 231.511 171.173 232.283 171.64L233.815 170.108C234.034 169.888 234.391 169.888 234.61 170.108C234.83 170.328 234.83 170.684 234.61 170.904L233.499 172.015C232.752 172.036 232.036 172.179 231.369 172.423C230.846 172.171 230.258 172.029 229.638 172.029C227.833 172.029 226.309 173.227 225.815 174.871H228.178C227.93 175.223 227.715 175.6 227.536 175.996H225.647L225.647 176.021V178.181C225.647 179.628 226.418 180.896 227.571 181.596C227.841 182.178 228.192 182.716 228.61 183.194C227.043 182.874 225.736 181.838 225.048 180.442H222.969C222.659 180.442 222.407 180.19 222.407 179.88C222.407 179.569 222.659 179.317 222.969 179.317H224.649C224.569 178.964 224.525 178.596 224.522 178.219H222.969C222.659 178.219 222.407 177.967 222.407 177.657C222.407 177.346 222.659 177.094 222.969 177.094H224.522V176.021L224.522 175.996H222.969C222.659 175.996 222.407 175.745 222.407 175.434C222.407 175.123 222.659 174.871 222.969 174.871H224.652C224.879 173.881 225.394 173 226.104 172.321L224.687 170.904C224.467 170.684 224.467 170.328 224.687 170.108ZM228.57 178.758C228.57 175.929 230.863 173.635 233.693 173.635C236.522 173.635 238.816 175.929 238.816 178.758C238.816 179.876 238.458 180.91 237.851 181.752C237.538 181.694 237.203 181.786 236.961 182.028C236.72 182.27 236.627 182.605 236.685 182.917C235.843 183.524 234.81 183.882 233.693 183.882C230.863 183.882 228.57 181.588 228.57 178.758ZM237.257 183.738C236.253 184.458 235.022 184.882 233.693 184.882C230.311 184.882 227.57 182.14 227.57 178.758C227.57 175.377 230.311 172.635 233.693 172.635C237.075 172.635 239.816 175.377 239.816 178.758C239.816 180.088 239.392 181.32 238.672 182.324L240.585 184.238C240.976 184.628 240.976 185.261 240.585 185.652C240.195 186.042 239.562 186.042 239.171 185.652L237.257 183.738ZM233.462 174.871C233.404 174.679 233.332 174.493 233.248 174.315C233.684 174.272 234.098 174.3 234.484 174.374C234.539 174.537 234.586 174.702 234.625 174.871H235.849C236.26 175.096 236.598 175.357 236.846 175.595C236.777 175.827 236.561 175.996 236.307 175.996H234.754L234.754 176.021V177.094H236.307C236.618 177.094 236.87 177.346 236.87 177.657C236.87 177.967 236.618 178.219 236.307 178.219H234.754C234.752 178.596 234.708 178.964 234.628 179.317H236.307C236.618 179.317 236.869 179.569 236.869 179.88C236.869 180.19 236.618 180.442 236.307 180.442H234.229C233.725 181.463 232.892 182.291 231.867 182.787C231.418 182.567 231.042 182.305 230.727 182.022C232.402 181.548 233.629 180.008 233.629 178.181V176.021L233.629 175.996H230.22C230.632 175.48 231.104 175.102 231.486 174.871H233.462ZM230.201 177.657V181.463C229.536 180.628 229.299 179.735 229.275 179.232C229.18 178.421 229.311 177.707 229.563 177.099C229.588 177.096 229.613 177.094 229.638 177.094C229.949 177.094 230.201 177.346 230.201 177.657Z" fill="#60A5FA"/>
<rect x="231.76" y="254.07" width="32" height="32" rx="16" fill="#091842"/>
<rect x="231.76" y="254.07" width="32" height="32" rx="16" stroke="#1E40AF"/>
<path d="M242.156 273.468L238.76 270.072L242.156 266.676" stroke="#60A5FA" stroke-linecap="round" stroke-linejoin="round"/>
<path d="M249.98 263.967L245.54 276.175" stroke="#60A5FA" stroke-linecap="round" stroke-linejoin="round"/>
<path d="M253.363 266.676L256.76 270.072L253.363 273.468" stroke="#60A5FA" stroke-linecap="round" stroke-linejoin="round"/>
<defs>
<filter id="filter0_dd_622_123051" x="0.355469" y="181.188" width="84.3213" height="84.3223" filterUnits="userSpaceOnUse" color-interpolation-filters="sRGB">
<feFlood flood-opacity="0" result="BackgroundImageFix"/>
<feColorMatrix in="SourceAlpha" type="matrix" values="0 0 0 0 0 0 0 0 0 0 0 0 0 0 0 0 0 0 127 0" result="hardAlpha"/>
<feOffset dy="2"/>
<feGaussianBlur stdDeviation="8"/>
<feColorMatrix type="matrix" values="0 0 0 0 0.0588235 0 0 0 0 0.0588235 0 0 0 0 0.0666667 0 0 0 0.08 0"/>
<feBlend mode="normal" in2="BackgroundImageFix" result="effect1_dropShadow_622_123051"/>
<feColorMatrix in="SourceAlpha" type="matrix" values="0 0 0 0 0 0 0 0 0 0 0 0 0 0 0 0 0 0 127 0" result="hardAlpha"/>
<feMorphology radius="1" operator="dilate" in="SourceAlpha" result="effect2_dropShadow_622_123051"/>
<feOffset/>
<feColorMatrix type="matrix" values="0 0 0 0 0.0588235 0 0 0 0 0.0588235 0 0 0 0 0.0666667 0 0 0 0.1 0"/>
<feBlend mode="normal" in2="effect1_dropShadow_622_123051" result="effect2_dropShadow_622_123051"/>
<feBlend mode="normal" in="SourceGraphic" in2="effect2_dropShadow_622_123051" result="shape"/>
</filter>
<filter id="filter1_dd_622_123051" x="214.301" y="181.188" width="84.3213" height="84.3223" filterUnits="userSpaceOnUse" color-interpolation-filters="sRGB">
<feFlood flood-opacity="0" result="BackgroundImageFix"/>
<feColorMatrix in="SourceAlpha" type="matrix" values="0 0 0 0 0 0 0 0 0 0 0 0 0 0 0 0 0 0 127 0" result="hardAlpha"/>
<feOffset dy="2"/>
<feGaussianBlur stdDeviation="8"/>
<feColorMatrix type="matrix" values="0 0 0 0 0.0588235 0 0 0 0 0.0588235 0 0 0 0 0.0666667 0 0 0 0.08 0"/>
<feBlend mode="normal" in2="BackgroundImageFix" result="effect1_dropShadow_622_123051"/>
<feColorMatrix in="SourceAlpha" type="matrix" values="0 0 0 0 0 0 0 0 0 0 0 0 0 0 0 0 0 0 127 0" result="hardAlpha"/>
<feMorphology radius="1" operator="dilate" in="SourceAlpha" result="effect2_dropShadow_622_123051"/>
<feOffset/>
<feColorMatrix type="matrix" values="0 0 0 0 0.0588235 0 0 0 0 0.0588235 0 0 0 0 0.0666667 0 0 0 0.1 0"/>
<feBlend mode="normal" in2="effect1_dropShadow_622_123051" result="effect2_dropShadow_622_123051"/>
<feBlend mode="normal" in="SourceGraphic" in2="effect2_dropShadow_622_123051" result="shape"/>
</filter>
<filter id="filter2_dd_622_123051" x="106.507" y="0.730469" width="84.3213" height="84.3223" filterUnits="userSpaceOnUse" color-interpolation-filters="sRGB">
<feFlood flood-opacity="0" result="BackgroundImageFix"/>
<feColorMatrix in="SourceAlpha" type="matrix" values="0 0 0 0 0 0 0 0 0 0 0 0 0 0 0 0 0 0 127 0" result="hardAlpha"/>
<feOffset dy="2"/>
<feGaussianBlur stdDeviation="8"/>
<feColorMatrix type="matrix" values="0 0 0 0 0.0588235 0 0 0 0 0.0588235 0 0 0 0 0.0666667 0 0 0 0.08 0"/>
<feBlend mode="normal" in2="BackgroundImageFix" result="effect1_dropShadow_622_123051"/>
<feColorMatrix in="SourceAlpha" type="matrix" values="0 0 0 0 0 0 0 0 0 0 0 0 0 0 0 0 0 0 127 0" result="hardAlpha"/>
<feMorphology radius="1" operator="dilate" in="SourceAlpha" result="effect2_dropShadow_622_123051"/>
<feOffset/>
<feColorMatrix type="matrix" values="0 0 0 0 0.0588235 0 0 0 0 0.0588235 0 0 0 0 0.0666667 0 0 0 0.1 0"/>
<feBlend mode="normal" in2="effect1_dropShadow_622_123051" result="effect2_dropShadow_622_123051"/>
<feBlend mode="normal" in="SourceGraphic" in2="effect2_dropShadow_622_123051" result="shape"/>
</filter>
<filter id="filter3_dd_622_123051" x="106.507" y="116.973" width="84.3213" height="84.3223" filterUnits="userSpaceOnUse" color-interpolation-filters="sRGB">
<feFlood flood-opacity="0" result="BackgroundImageFix"/>
<feColorMatrix in="SourceAlpha" type="matrix" values="0 0 0 0 0 0 0 0 0 0 0 0 0 0 0 0 0 0 127 0" result="hardAlpha"/>
<feOffset dy="2"/>
<feGaussianBlur stdDeviation="8"/>
<feColorMatrix type="matrix" values="0 0 0 0 0.0588235 0 0 0 0 0.0588235 0 0 0 0 0.0666667 0 0 0 0.08 0"/>
<feBlend mode="normal" in2="BackgroundImageFix" result="effect1_dropShadow_622_123051"/>
<feColorMatrix in="SourceAlpha" type="matrix" values="0 0 0 0 0 0 0 0 0 0 0 0 0 0 0 0 0 0 127 0" result="hardAlpha"/>
<feMorphology radius="1" operator="dilate" in="SourceAlpha" result="effect2_dropShadow_622_123051"/>
<feOffset/>
<feColorMatrix type="matrix" values="0 0 0 0 0.0588235 0 0 0 0 0.0588235 0 0 0 0 0.0666667 0 0 0 0.1 0"/>
<feBlend mode="normal" in2="effect1_dropShadow_622_123051" result="effect2_dropShadow_622_123051"/>
<feBlend mode="normal" in="SourceGraphic" in2="effect2_dropShadow_622_123051" result="shape"/>
</filter>
<filter id="filter4_dd_622_123051" x="0.936523" y="52.0508" width="84.3213" height="84.3223" filterUnits="userSpaceOnUse" color-interpolation-filters="sRGB">
<feFlood flood-opacity="0" result="BackgroundImageFix"/>
<feColorMatrix in="SourceAlpha" type="matrix" values="0 0 0 0 0 0 0 0 0 0 0 0 0 0 0 0 0 0 127 0" result="hardAlpha"/>
<feOffset dy="2"/>
<feGaussianBlur stdDeviation="8"/>
<feColorMatrix type="matrix" values="0 0 0 0 0.0588235 0 0 0 0 0.0588235 0 0 0 0 0.0666667 0 0 0 0.08 0"/>
<feBlend mode="normal" in2="BackgroundImageFix" result="effect1_dropShadow_622_123051"/>
<feColorMatrix in="SourceAlpha" type="matrix" values="0 0 0 0 0 0 0 0 0 0 0 0 0 0 0 0 0 0 127 0" result="hardAlpha"/>
<feMorphology radius="1" operator="dilate" in="SourceAlpha" result="effect2_dropShadow_622_123051"/>
<feOffset/>
<feColorMatrix type="matrix" values="0 0 0 0 0.0588235 0 0 0 0 0.0588235 0 0 0 0 0.0666667 0 0 0 0.1 0"/>
<feBlend mode="normal" in2="effect1_dropShadow_622_123051" result="effect2_dropShadow_622_123051"/>
<feBlend mode="normal" in="SourceGraphic" in2="effect2_dropShadow_622_123051" result="shape"/>
</filter>
<filter id="filter5_dd_622_123051" x="214.301" y="52.0508" width="84.3213" height="84.3223" filterUnits="userSpaceOnUse" color-interpolation-filters="sRGB">
<feFlood flood-opacity="0" result="BackgroundImageFix"/>
<feColorMatrix in="SourceAlpha" type="matrix" values="0 0 0 0 0 0 0 0 0 0 0 0 0 0 0 0 0 0 127 0" result="hardAlpha"/>
<feOffset dy="2"/>
<feGaussianBlur stdDeviation="8"/>
<feColorMatrix type="matrix" values="0 0 0 0 0.0588235 0 0 0 0 0.0588235 0 0 0 0 0.0666667 0 0 0 0.08 0"/>
<feBlend mode="normal" in2="BackgroundImageFix" result="effect1_dropShadow_622_123051"/>
<feColorMatrix in="SourceAlpha" type="matrix" values="0 0 0 0 0 0 0 0 0 0 0 0 0 0 0 0 0 0 127 0" result="hardAlpha"/>
<feMorphology radius="1" operator="dilate" in="SourceAlpha" result="effect2_dropShadow_622_123051"/>
<feOffset/>
<feColorMatrix type="matrix" values="0 0 0 0 0.0588235 0 0 0 0 0.0588235 0 0 0 0 0.0666667 0 0 0 0.1 0"/>
<feBlend mode="normal" in2="effect1_dropShadow_622_123051" result="effect2_dropShadow_622_123051"/>
<feBlend mode="normal" in="SourceGraphic" in2="effect2_dropShadow_622_123051" result="shape"/>
</filter>
<filter id="filter6_dd_622_123051" x="106.507" y="239.57" width="84.3213" height="84.3223" filterUnits="userSpaceOnUse" color-interpolation-filters="sRGB">
<feFlood flood-opacity="0" result="BackgroundImageFix"/>
<feColorMatrix in="SourceAlpha" type="matrix" values="0 0 0 0 0 0 0 0 0 0 0 0 0 0 0 0 0 0 127 0" result="hardAlpha"/>
<feOffset dy="2"/>
<feGaussianBlur stdDeviation="8"/>
<feColorMatrix type="matrix" values="0 0 0 0 0.0588235 0 0 0 0 0.0588235 0 0 0 0 0.0666667 0 0 0 0.08 0"/>
<feBlend mode="normal" in2="BackgroundImageFix" result="effect1_dropShadow_622_123051"/>
<feColorMatrix in="SourceAlpha" type="matrix" values="0 0 0 0 0 0 0 0 0 0 0 0 0 0 0 0 0 0 127 0" result="hardAlpha"/>
<feMorphology radius="1" operator="dilate" in="SourceAlpha" result="effect2_dropShadow_622_123051"/>
<feOffset/>
<feColorMatrix type="matrix" values="0 0 0 0 0.0588235 0 0 0 0 0.0588235 0 0 0 0 0.0666667 0 0 0 0.1 0"/>
<feBlend mode="normal" in2="effect1_dropShadow_622_123051" result="effect2_dropShadow_622_123051"/>
<feBlend mode="normal" in="SourceGraphic" in2="effect2_dropShadow_622_123051" result="shape"/>
</filter>
</defs>
</svg>
