<svg width="704" height="380" viewBox="0 0 704 380" fill="none" xmlns="http://www.w3.org/2000/svg">
<rect width="704" height="380" fill="#0F0F11"/>
<path d="M146.439 139.553C176.505 109.487 225.252 109.487 255.319 139.553L305.068 189.303L248.284 246.088C219.512 274.859 172.865 274.859 144.094 246.088V246.088C115.323 217.316 115.323 170.669 144.094 141.898L146.439 139.553Z" stroke="#1E40AF" stroke-width="41"/>
<path d="M275.892 189.322L305.239 160.021L286.941 141.641L257.598 170.936L275.892 189.322Z" fill="url(#paint0_linear_2490_152999)"/>
<path d="M535.118 266.882C492.658 309.342 423.815 309.343 381.354 266.882L304.473 190L381.354 113.118C423.815 70.6575 492.658 70.6574 535.118 113.118V113.118C577.579 155.579 577.579 224.421 535.118 266.882V266.882Z" stroke="#1E40AF" stroke-width="41"/>
<path d="M322.498 237.383L351.662 208.265L333.478 190L304.318 219.112L322.498 237.383Z" fill="url(#paint1_linear_2490_152999)"/>
<path d="M178.609 203.724L166.533 191.648L178.609 179.572" stroke="#EEEEF0" stroke-width="3" stroke-linecap="round" stroke-linejoin="round"/>
<path d="M206.426 169.943L190.641 213.352" stroke="#EEEEF0" stroke-width="3" stroke-linecap="round" stroke-linejoin="round"/>
<path d="M218.457 179.572L230.533 191.648L218.457 203.724" stroke="#EEEEF0" stroke-width="3" stroke-linecap="round" stroke-linejoin="round"/>
<path d="M446.203 183C444.004 182.438 441.71 182.35 439.475 182.742C437.239 183.134 435.113 183.998 433.237 185.274C431.36 186.551 429.777 188.213 428.592 190.148C427.407 192.084 426.647 194.249 426.362 196.501C426.078 198.753 426.276 201.039 426.943 203.208C427.61 205.378 428.731 207.381 430.231 209.084C431.731 210.787 433.576 212.151 435.644 213.087C437.712 214.022 439.955 214.507 442.225 214.509H472.783C474.719 214.509 476.626 213.962 478.148 212.766C480.365 211.024 483.312 208.39 485.664 205.366C487.838 202.467 489.291 199.094 489.905 195.524C490.52 191.954 490.276 188.289 489.196 184.832C488.116 181.374 486.23 178.222 483.693 175.637C481.156 173.051 478.041 171.105 474.604 169.96C471.167 168.814 467.508 168.501 463.927 169.047C460.346 169.594 456.946 170.983 454.007 173.101C451.068 175.219 448.674 178.005 447.023 181.229C445.372 184.454 444.511 188.024 444.511 191.647" stroke="#EEEEF0" stroke-width="3" stroke-linecap="round" stroke-linejoin="round"/>
<defs>
<linearGradient id="paint0_linear_2490_152999" x1="270.852" y1="157.109" x2="289.502" y2="175.758" gradientUnits="userSpaceOnUse">
<stop stop-color="#052B97" stop-opacity="0"/>
<stop offset="1" stop-color="#052B97"/>
</linearGradient>
<linearGradient id="paint1_linear_2490_152999" x1="317.49" y1="205.371" x2="336.023" y2="223.904" gradientUnits="userSpaceOnUse">
<stop stop-color="#052B97"/>
<stop offset="1" stop-color="#052B97" stop-opacity="0"/>
</linearGradient>
</defs>
</svg>
