<svg width="832" height="424" viewBox="0 0 832 424" fill="none" xmlns="http://www.w3.org/2000/svg">
<path d="M645.169 200.528C642.223 200.528 639.836 202.916 639.836 205.861C639.836 208.807 642.223 211.195 645.169 211.195C648.114 211.195 650.502 208.807 650.502 205.861C650.502 202.916 648.114 200.528 645.169 200.528ZM645.169 204.861H642.113V206.861H645.169V204.861ZM636 204.861H629.887V206.861H636V204.861ZM623.774 204.861H617.661V206.861H623.774V204.861ZM611.548 204.861H605.436V206.861H611.548V204.861ZM599.323 204.861H593.21V206.861H599.323V204.861ZM587.097 204.861H580.984V206.861H587.097V204.861ZM574.872 204.861H568.759V206.861H574.872V204.861ZM562.646 204.861H556.533V206.861H562.646V204.861ZM550.42 204.861H544.308V206.861H550.42V204.861ZM538.195 204.861H532.082V206.861H538.195V204.861ZM525.969 204.861H519.856V206.861H525.969V204.861ZM513.744 204.861H507.631V206.861H513.744V204.861ZM501.518 204.861H495.405V206.861H501.518V204.861ZM489.292 204.861H483.179V206.861H489.292V204.861ZM477.067 204.861H470.954V206.861H477.067V204.861ZM464.841 204.861H458.728V206.861H464.841V204.861ZM452.615 204.861H446.503V206.861H452.615V204.861ZM440.39 204.861H434.277V206.861H440.39V204.861ZM428.164 204.861H422.051V206.861H428.164V204.861ZM415.939 204.861L409.826 204.861V206.861L415.939 206.861V204.861ZM403.713 204.861H397.6V206.861H403.713V204.861ZM391.487 204.861H385.375V206.861H391.487V204.861ZM379.262 204.861H373.149V206.861H379.262V204.861ZM367.036 204.861H360.923V206.861H367.036V204.861ZM354.81 204.861H348.698V206.861H354.81V204.861ZM342.585 204.861H339.528V206.861H342.585V204.861Z" fill="#E4E4E7"/>
<path d="M366.938 116.445L645.168 207.141" stroke="#E4E4E7" stroke-width="2" stroke-dasharray="6 6"/>
<path d="M366.938 295.035L645.168 204.339" stroke="#E4E4E7" stroke-width="2" stroke-dasharray="6 6"/>
<path d="M82.6094 133.205L162.282 186.704" stroke="#E4E4E7" stroke-width="2" stroke-dasharray="6 6"/>
<path d="M310.971 133.205L220.998 193.62" stroke="#E4E4E7" stroke-width="2" stroke-dasharray="6 6"/>
<path d="M82.6094 280.168L162.282 226.669" stroke="#E4E4E7" stroke-width="2" stroke-dasharray="6 6"/>
<path d="M310.971 280.168L219.615 218.824" stroke="#E4E4E7" stroke-width="2" stroke-dasharray="6 6"/>
<path d="M51.4717 287.011L51.8743 123.238" stroke="#E4E4E7" stroke-width="2" stroke-dasharray="6 6"/>
<path d="M338.099 287.011L338.501 123.238" stroke="#E4E4E7" stroke-width="2" stroke-dasharray="6 6"/>
<path d="M338.108 123.858L193.504 41.3164L81.1416 106.386M339.528 288.224L197.695 370.164L74.8535 300.282" stroke="#E4E4E7" stroke-width="2" stroke-dasharray="6 6"/>
<g filter="url(#filter0_dd_622_120887)">
<rect width="68.8314" height="68.8314" rx="34.4157" transform="matrix(1 0 0 -1 16.6797 326.277)" fill="#091842"/>
<rect width="68.8314" height="68.8314" rx="34.4157" transform="matrix(1 0 0 -1 16.6797 326.277)" stroke="#1E40AF"/>
<path d="M48.9397 275.8C48.9397 275.815 49.1272 276.167 49.3615 276.604C49.5959 277.034 49.76 277.401 49.7365 277.425C49.7131 277.44 49.0569 277.69 48.2834 277.964C47.5022 278.245 46.885 278.479 46.8928 278.487C46.9006 278.495 47.7834 278.589 48.8459 278.69C50.1272 278.807 50.799 278.893 50.8459 278.948C50.885 278.987 51.1818 279.464 51.5021 279.995L52.0802 280.964L52.1818 280.721C52.2365 280.596 52.4162 280.167 52.5724 279.784L52.8615 279.089L54.4005 278.925C55.2443 278.831 55.9943 278.76 56.0724 278.76L56.2052 278.706C56.2052 278.682 55.6349 278.448 54.9318 278.182C54.2365 277.925 53.6584 277.698 53.6584 277.69C53.6584 277.682 53.8068 277.315 53.9943 276.87C54.174 276.425 54.3146 276.05 54.3068 276.042C54.2912 276.026 53.6974 276.206 52.9943 276.432L51.7209 276.854L50.3537 276.315C49.01 275.784 48.9397 275.76 48.9397 275.8ZM57.4239 280.417C55.7911 281.065 54.4474 281.604 54.4396 281.62C54.424 281.635 55.6427 282.128 57.1427 282.721L59.8614 283.792L60.1504 283.674C63.1817 282.495 65.9316 281.401 65.9238 281.385L60.4629 279.237C60.4083 279.245 59.0489 279.768 57.4239 280.417ZM41.7523 279.784C40.182 279.948 38.8695 280.401 38.3148 280.979C37.932 281.37 37.8695 281.706 38.1117 282.112C38.4633 282.721 39.6195 283.229 41.2132 283.487C41.932 283.612 44.0335 283.589 44.76 283.464C46.4631 283.167 47.5725 282.62 47.8303 281.932C47.9241 281.674 47.9241 281.643 47.8303 281.393C47.5725 280.729 46.4866 280.174 44.8772 279.893C44.0647 279.76 42.5491 279.706 41.7523 279.784ZM70.9159 281.674C70.8378 281.776 70.5487 282.01 70.2675 282.198C69.4394 282.729 68.3769 283.214 61.7442 286.073C57.0802 288.073 55.8927 288.604 54.2833 289.377C52.4943 290.229 51.7521 290.471 50.8537 290.471C50.049 290.471 49.5647 290.331 48.0647 289.667C47.4631 289.401 45.0022 288.37 42.6038 287.37C32.0962 283.003 31.9009 282.909 31.3384 282.299L31.104 282.042V286.159L31.3696 286.417C31.6274 286.667 32.4946 287.19 32.7993 287.276C32.8852 287.299 33.4555 287.534 34.0727 287.799C34.6899 288.065 37.7055 289.331 40.7757 290.612C45.8538 292.729 47.01 293.213 48.7444 293.971C49.6584 294.377 50.1662 294.479 51.0334 294.448C51.6662 294.424 51.8537 294.385 52.4084 294.198C52.7677 294.081 53.3849 293.815 53.7833 293.612C55.1036 292.948 56.6974 292.245 63.0488 289.51C69.0253 286.932 69.8066 286.573 70.455 286.128C71.119 285.651 71.0956 285.768 71.0956 283.471C71.0956 282.37 71.0878 281.471 71.08 281.471L70.9159 281.674ZM49.9943 284.362C47.5491 284.737 45.5257 285.057 45.4866 285.073C45.4319 285.088 51.5803 287.674 51.8381 287.745L54.6505 283.706C54.6427 283.651 54.6505 283.643 49.9943 284.362ZM70.955 288.456C70.9003 288.549 70.6425 288.768 70.4003 288.948C69.6034 289.495 68.4081 290.042 61.1426 293.166C56.963 294.971 55.6505 295.549 54.4083 296.151C52.3927 297.127 51.9084 297.284 50.8303 297.284C49.9943 297.276 49.4787 297.143 48.3694 296.643C47.2991 296.151 46.1038 295.651 41.307 293.659C32.9399 290.19 31.979 289.752 31.3852 289.182L31.0962 288.909V292.971L31.4243 293.284C31.9555 293.784 31.9009 293.752 40.8695 297.487C44.1585 298.854 47.26 300.159 47.76 300.385C49.0803 300.979 49.4631 301.12 49.9865 301.229C51.2053 301.479 52.1115 301.276 54.088 300.315C55.3771 299.69 56.9474 298.995 60.752 297.354C67.9863 294.237 69.7675 293.432 70.2987 293.081C70.4862 292.948 70.744 292.737 70.869 292.596L71.0956 292.346V290.315C71.0956 289.198 71.0878 288.284 71.08 288.284L70.955 288.456ZM70.8847 295.112C70.4081 295.713 69.4472 296.174 61.9864 299.385C57.1192 301.487 55.6349 302.143 54.0333 302.901C52.3537 303.698 51.799 303.869 50.8303 303.869C50.1662 303.869 49.4944 303.713 48.7522 303.385C47.01 302.619 45.8616 302.135 40.7757 300.018C34.9946 297.612 33.143 296.823 32.5258 296.518C31.9477 296.229 31.3618 295.815 31.229 295.604L31.0962 295.409V297.479C31.0962 299.854 31.0571 299.674 31.6899 300.104C32.393 300.573 33.4399 301.041 40.3851 303.924C45.2366 305.94 46.9866 306.674 47.8459 307.065C49.6037 307.854 50.0725 307.979 51.0568 307.924C51.9553 307.885 52.5412 307.69 54.0958 306.948C55.713 306.174 56.9083 305.635 62.1973 303.362C69.5409 300.198 70.3378 299.815 70.8925 299.174L71.0878 298.955V296.932C71.0878 295.815 71.08 294.901 71.0722 294.901L70.8847 295.112Z" fill="#60A5FA"/>
</g>
<g filter="url(#filter1_dd_622_120887)">
<rect width="68.8314" height="68.8314" rx="34.4157" transform="matrix(1 0 0 -1 303.621 326.277)" fill="#091842"/>
<rect width="68.8314" height="68.8314" rx="34.4157" transform="matrix(1 0 0 -1 303.621 326.277)" stroke="#1E40AF"/>
<path fill-rule="evenodd" clip-rule="evenodd" d="M335.965 277.951H340.109V281.7H335.965V277.951ZM330.217 282.489H326.074V286.238H330.217V282.489ZM325.285 287.017H321.141V290.765H325.285V287.017ZM330.217 287.017H326.074V290.765H330.217V287.017ZM331.007 287.017H335.15V290.765H331.007V287.017ZM340.083 287.017H335.939V290.765H340.083V287.017ZM340.872 287.017H345.015V290.765H340.872V287.017ZM331.007 282.489H335.15V286.238H331.007V282.489ZM340.083 282.489H335.939V286.238H340.083V282.489ZM352.611 288.013C356.261 287.422 358.037 289.099 358.037 289.099C358.037 289.099 356.952 293.341 351.822 292.946C348.369 301.233 341.069 305.771 331.303 305.771C317.689 305.771 317.689 293.341 318.182 291.466H345.311C346.791 291.466 347.777 291.072 348.369 290.776C346.298 286.928 349.159 283.476 349.159 283.476C349.159 283.476 352.217 285.153 352.611 288.013Z" fill="#60A5FA"/>
</g>
<g filter="url(#filter2_dd_622_120887)">
<rect width="68.8314" height="68.8314" rx="34.4157" transform="matrix(1 0 0 -1 159.049 84.252)" fill="#091842"/>
<rect width="68.8314" height="68.8314" rx="34.4157" transform="matrix(1 0 0 -1 159.049 84.252)" stroke="#1E40AF"/>
<path fill-rule="evenodd" clip-rule="evenodd" d="M193.465 50.5272C200.786 50.5272 207.185 48.3755 210.653 45.1683V49.6504C210.653 51.5909 209.159 53.6935 205.973 55.399C202.85 57.0706 198.432 58.1504 193.471 58.1504C188.509 58.1504 184.091 57.0706 180.968 55.399C177.782 53.6935 176.288 51.5909 176.288 49.6504V45.1785C179.759 48.3801 186.152 50.5272 193.465 50.5272ZM173.288 49.6504V39.6504C173.288 39.3102 173.401 38.9965 173.592 38.7448C174.436 33.1613 183.011 28.7734 193.465 28.7734C203.908 28.7734 212.476 33.1519 213.335 38.7268C213.534 38.9814 213.653 39.302 213.653 39.6504V49.6504V59.6504C213.653 63.2326 210.964 66.1301 207.389 68.0439C203.75 69.9915 198.827 71.1504 193.471 71.1504C188.114 71.1504 183.191 69.9915 179.552 68.0439C175.977 66.1301 173.288 63.2326 173.288 59.6504V49.6504ZM210.653 55.7666V59.6504C210.653 61.5909 209.159 63.6935 205.973 65.399C202.85 67.0706 198.432 68.1504 193.471 68.1504C188.509 68.1504 184.091 67.0706 180.968 65.399C177.782 63.6935 176.288 61.5909 176.288 59.6504V55.7666C177.227 56.6312 178.338 57.3942 179.552 58.0439C183.191 59.9915 188.114 61.1504 193.471 61.1504C198.827 61.1504 203.75 59.9915 207.389 58.0439C208.603 57.3942 209.714 56.6312 210.653 55.7666Z" fill="#60A5FA"/>
</g>
<g filter="url(#filter3_dd_622_120887)">
<rect width="68.8314" height="68.8314" rx="34.4157" transform="matrix(1 0 0 -1 159.049 240.156)" fill="#091842"/>
<rect width="68.8314" height="68.8314" rx="34.4157" transform="matrix(1 0 0 -1 159.049 240.156)" stroke="#1E40AF"/>
<path fill-rule="evenodd" clip-rule="evenodd" d="M190.469 190.438C189.917 190.438 189.469 190.885 189.469 191.438C189.469 191.99 189.917 192.438 190.469 192.438H196.597C197.149 192.438 197.597 191.99 197.597 191.438C197.597 190.885 197.149 190.438 196.597 190.438H190.469ZM185.717 195.437C185.717 194.885 186.165 194.437 186.717 194.437H200.349C200.901 194.437 201.349 194.885 201.349 195.437C201.349 195.99 200.901 196.437 200.349 196.437H186.717C186.165 196.437 185.717 195.99 185.717 195.437ZM177.417 200.104C177.417 199 178.312 198.104 179.417 198.104H207.513C208.618 198.104 209.513 199 209.513 200.104V219.292C209.513 220.396 208.618 221.292 207.513 221.292H179.417C178.312 221.292 177.417 220.396 177.417 219.292V200.104ZM186.813 213.884C189.022 213.884 190.813 212.093 190.813 209.884C190.813 207.675 189.022 205.884 186.813 205.884C184.604 205.884 182.813 207.675 182.813 209.884C182.813 212.093 184.604 213.884 186.813 213.884ZM203.8 209.884C203.8 212.093 202.01 213.884 199.801 213.884C197.591 213.884 195.801 212.093 195.801 209.884C195.801 207.675 197.591 205.884 199.801 205.884C202.01 205.884 203.8 207.675 203.8 209.884ZM210.32 213.765V206.003C212.059 206.01 213.465 207.422 213.465 209.162V210.619C213.465 212.356 212.057 213.765 210.32 213.765ZM176.61 206.003V213.765C174.873 213.765 173.465 212.356 173.465 210.619V209.162C173.465 207.422 174.871 206.01 176.61 206.003Z" fill="#60A5FA"/>
</g>
<g filter="url(#filter4_dd_622_120887)">
<rect width="68.8314" height="68.8314" rx="34.4157" transform="matrix(1 0 0 -1 17.459 153.082)" fill="#091842"/>
<rect width="68.8314" height="68.8314" rx="34.4157" transform="matrix(1 0 0 -1 17.459 153.082)" stroke="#1E40AF"/>
<path fill-rule="evenodd" clip-rule="evenodd" d="M45.155 110.646C45.568 107.952 46.1905 105.546 46.9639 103.562C47.6914 101.696 48.533 100.255 49.4164 99.2963C49.7944 98.8862 50.1662 98.5784 50.5289 98.3605C50.9901 98.3287 51.4555 98.3125 51.9248 98.3125C52.3941 98.3125 52.8595 98.3287 53.3207 98.3605C53.6834 98.5784 54.0552 98.8862 54.4332 99.2963C55.3167 100.255 56.1582 101.696 56.8857 103.562C57.6592 105.546 58.2816 107.952 58.6946 110.646H45.155ZM43.1327 110.646H33.4469C35.8646 104.825 40.9523 100.393 47.1815 98.8783C46.392 99.9649 45.6958 101.309 45.1006 102.836C44.2384 105.047 43.5641 107.703 43.1327 110.646ZM56.6681 98.8783C57.4576 99.9649 58.1538 101.309 58.7491 102.836C59.6112 105.047 60.2855 107.703 60.7169 110.646H70.4027C67.985 104.825 62.8973 100.393 56.6681 98.8783ZM58.9563 112.646H44.8933C44.6971 114.443 44.5915 116.344 44.5915 118.312C44.5915 120.281 44.6971 122.182 44.8933 123.979H58.9563C59.1525 122.182 59.2581 120.281 59.2581 118.312C59.2581 116.344 59.1525 114.443 58.9563 112.646ZM60.9677 123.979C61.1575 122.168 61.2581 120.268 61.2581 118.312C61.2581 116.357 61.1575 114.457 60.9677 112.646H71.1107C71.6405 114.442 71.9248 116.344 71.9248 118.312C71.9248 120.281 71.6405 122.183 71.1107 123.979H60.9677ZM58.6946 125.979H45.155C45.568 128.673 46.1905 131.079 46.9639 133.063C47.6914 134.928 48.533 136.37 49.4164 137.329C49.7944 137.739 50.1663 138.047 50.529 138.265C50.9901 138.296 51.4556 138.312 51.9248 138.312C52.394 138.312 52.8595 138.296 53.3206 138.265C53.6833 138.047 54.0552 137.739 54.4332 137.329C55.3167 136.37 56.1582 134.928 56.8857 133.063C57.6591 131.079 58.2816 128.673 58.6946 125.979ZM56.668 137.747C57.4576 136.66 58.1538 135.316 58.7491 133.789C59.6112 131.578 60.2855 128.922 60.7169 125.979H70.4027C67.985 131.8 62.8973 136.232 56.668 137.747ZM47.1816 137.747C46.392 136.66 45.6958 135.316 45.1006 133.789C44.2384 131.578 43.5641 128.922 43.1327 125.979H33.4469C35.8646 131.8 40.9524 136.232 47.1816 137.747ZM42.8819 123.979H32.7389C32.2091 122.183 31.9248 120.281 31.9248 118.312C31.9248 116.344 32.2091 114.442 32.7389 112.646H42.8819C42.6921 114.457 42.5915 116.357 42.5915 118.312C42.5915 120.268 42.6921 122.168 42.8819 123.979Z" fill="#60A5FA"/>
</g>
<g filter="url(#filter5_dd_622_120887)">
<rect width="68.8314" height="68.8314" rx="34.4157" transform="matrix(1 0 0 -1 303.621 153.082)" fill="#091842"/>
<rect width="68.8314" height="68.8314" rx="34.4157" transform="matrix(1 0 0 -1 303.621 153.082)" stroke="#1E40AF"/>
<path fill-rule="evenodd" clip-rule="evenodd" d="M322.422 107.491C322.085 107.683 322.086 108.168 322.423 108.36L338.088 117.267C338.242 117.355 338.432 117.354 338.586 117.265L353.801 108.441C354.135 108.247 354.133 107.765 353.798 107.574L338.286 98.7123C338.132 98.6245 337.943 98.6245 337.789 98.7123L322.422 107.491ZM356.044 110.32C356.044 109.935 355.626 109.694 355.293 109.888L339.498 119.048C339.344 119.137 339.249 119.302 339.249 119.48V138.156C339.249 138.54 339.664 138.78 339.997 138.59L355.792 129.567C355.948 129.478 356.044 129.313 356.044 129.133V110.32ZM336.501 138.832C336.834 139.022 337.249 138.781 337.249 138.398V119.382C337.249 119.202 337.152 119.036 336.996 118.947L320.778 109.726C320.445 109.536 320.031 109.777 320.031 110.16V129.133C320.031 129.313 320.127 129.478 320.283 129.567L336.501 138.832Z" fill="#60A5FA"/>
</g>
<g filter="url(#filter6_dd_622_120887)">
<rect width="68.8314" height="68.8314" rx="34.4157" transform="matrix(1 0 0 -1 159.049 404.58)" fill="#091842"/>
<rect width="68.8314" height="68.8314" rx="34.4157" transform="matrix(1 0 0 -1 159.049 404.58)" stroke="#1E40AF"/>
<path fill-rule="evenodd" clip-rule="evenodd" d="M198.015 378.764C198.153 379.003 198.459 379.085 198.698 378.947L203.24 376.325C203.479 376.187 203.561 375.881 203.423 375.642L201.98 373.142C201.867 372.947 201.9 372.702 202.052 372.537C202.403 372.157 202.73 371.754 203.029 371.33L208.55 375.688V383.142C208.55 383.22 208.559 383.295 208.576 383.368C207.135 383.789 206.082 385.12 206.082 386.697C206.082 388.612 207.635 390.165 209.55 390.165C211.466 390.165 213.019 388.612 213.019 386.697C213.019 385.12 211.966 383.788 210.525 383.367C210.541 383.295 210.55 383.219 210.55 383.142V375.203C210.55 374.897 210.41 374.608 210.17 374.418L204.173 369.684C204.131 369.651 204.087 369.622 204.042 369.597C204.277 369.101 204.478 368.586 204.643 368.055C204.71 367.84 204.906 367.689 205.131 367.689H208.015C208.291 367.689 208.515 367.465 208.515 367.189V361.944C208.515 361.668 208.291 361.444 208.015 361.444H205.131C204.906 361.444 204.71 361.294 204.643 361.079C204.119 359.39 203.223 357.864 202.052 356.597C201.9 356.431 201.867 356.186 201.98 355.991L203.423 353.492C203.561 353.252 203.479 352.947 203.24 352.809L198.698 350.186C198.459 350.048 198.153 350.13 198.015 350.369L196.573 352.867C196.461 353.062 196.232 353.156 196.013 353.107C195.18 352.919 194.313 352.82 193.424 352.82C192.534 352.82 191.667 352.919 190.834 353.107C190.615 353.156 190.386 353.062 190.274 352.867L188.832 350.369C188.694 350.13 188.388 350.048 188.149 350.186L183.607 352.808C183.368 352.947 183.286 353.252 183.424 353.491L184.867 355.991C184.98 356.186 184.947 356.432 184.795 356.597C183.624 357.864 182.728 359.39 182.204 361.079C182.137 361.294 181.941 361.444 181.716 361.444H178.832C178.556 361.444 178.332 361.668 178.332 361.944V367.189C178.332 367.465 178.556 367.689 178.832 367.689H181.716C181.941 367.689 182.137 367.84 182.204 368.055C182.373 368.6 182.581 369.128 182.824 369.636C182.801 369.651 182.779 369.667 182.757 369.684L176.76 374.418C176.52 374.608 176.38 374.897 176.38 375.203L176.38 383.142C176.38 383.22 176.389 383.295 176.405 383.368C174.965 383.789 173.912 385.12 173.912 386.697C173.912 388.612 175.465 390.165 177.38 390.165C179.296 390.165 180.848 388.612 180.848 386.697C180.848 385.12 179.796 383.788 178.354 383.367C178.371 383.295 178.38 383.219 178.38 383.142L178.38 375.688L183.848 371.372C184.139 371.78 184.455 372.169 184.795 372.537C184.947 372.702 184.98 372.947 184.867 373.142L183.424 375.642C183.286 375.881 183.368 376.187 183.607 376.325L188.149 378.947C188.388 379.085 188.694 379.003 188.832 378.764L190.274 376.267C190.386 376.072 190.615 375.977 190.834 376.027C191.365 376.146 191.91 376.23 192.465 376.275V382.337C192.465 382.39 192.469 382.442 192.477 382.492C191.043 382.918 189.997 384.245 189.997 385.817C189.997 387.733 191.55 389.285 193.465 389.285C195.381 389.285 196.933 387.733 196.933 385.817C196.933 384.245 195.887 382.918 194.453 382.492C194.461 382.442 194.465 382.39 194.465 382.337V376.268C194.992 376.221 195.509 376.14 196.013 376.027C196.232 375.977 196.461 376.072 196.573 376.267L198.015 378.764ZM193.424 372.113C197.591 372.113 200.969 368.734 200.969 364.567C200.969 360.4 197.591 357.021 193.424 357.021C189.256 357.021 185.878 360.4 185.878 364.567C185.878 368.734 189.256 372.113 193.424 372.113Z" fill="#60A5FA"/>
</g>
<path fill-rule="evenodd" clip-rule="evenodd" d="M725.687 175.787C718.924 175.787 713.479 181.204 713.479 187.839C713.479 194.474 718.924 199.891 725.687 199.891C732.45 199.891 737.895 194.474 737.895 187.839C737.895 181.204 732.45 175.787 725.687 175.787ZM709.479 187.839C709.479 178.953 716.756 171.787 725.687 171.787C734.617 171.787 741.895 178.953 741.895 187.839C741.895 193.691 738.739 198.796 734.033 201.601C738.231 203.406 741.718 206.531 743.955 210.449C744.005 210.537 744.048 210.626 744.083 210.717H764.768C765.044 210.717 765.268 210.941 765.268 211.217V248.564C765.268 248.84 765.044 249.064 764.768 249.064H687.071C686.795 249.064 686.571 248.84 686.571 248.564V211.217C686.571 210.941 686.795 210.717 687.071 210.717H707.301C707.342 210.602 707.394 210.488 707.457 210.378C709.696 206.493 713.166 203.395 717.339 201.601C712.634 198.796 709.479 193.69 709.479 187.839ZM712.014 210.717H739.357C736.267 206.578 731.297 203.891 725.686 203.891C720.074 203.891 715.104 206.578 712.014 210.717ZM729.859 219.021C730.379 219.208 730.649 219.781 730.462 220.3L723.319 240.158C723.133 240.678 722.56 240.947 722.04 240.76C721.52 240.574 721.251 240.001 721.438 239.481L728.58 219.623C728.767 219.104 729.339 218.834 729.859 219.021ZM717.637 223.656C718.03 224.045 718.034 224.678 717.645 225.071L713.225 229.54C713.032 229.735 713.032 230.048 713.225 230.243L717.645 234.713C718.034 235.105 718.03 235.738 717.637 236.127C717.245 236.515 716.612 236.512 716.223 236.119L710.759 230.595C710.374 230.205 710.374 229.578 710.759 229.188L716.223 223.664C716.612 223.271 717.245 223.268 717.637 223.656ZM735.675 223.664C735.287 223.271 734.654 223.268 734.261 223.656C733.868 224.045 733.865 224.678 734.253 225.071L738.674 229.54C738.867 229.735 738.867 230.048 738.674 230.243L734.253 234.713C733.865 235.105 733.868 235.738 734.261 236.127C734.654 236.515 735.287 236.512 735.675 236.119L741.139 230.595C741.525 230.205 741.525 229.578 741.139 229.188L735.675 223.664Z" fill="#60A5FA"/>
<circle cx="725.92" cy="210.21" r="80.7508" stroke="#1E40AF" stroke-width="3"/>
<rect x="783.321" y="221.828" width="48" height="48" rx="24" fill="#091842"/>
<rect x="783.321" y="221.828" width="48" height="48" rx="24" stroke="#1E40AF"/>
<path d="M797.359 251.867L791.321 245.829L797.359 239.791" stroke="#60A5FA" stroke-width="2" stroke-linecap="round" stroke-linejoin="round"/>
<path d="M811.267 234.977L803.375 256.681" stroke="#60A5FA" stroke-width="2" stroke-linecap="round" stroke-linejoin="round"/>
<path d="M817.283 239.791L823.321 245.829L817.283 251.867" stroke="#60A5FA" stroke-width="2" stroke-linecap="round" stroke-linejoin="round"/>
<rect x="639.332" y="142.275" width="48" height="48" rx="24" fill="#091842"/>
<rect x="639.332" y="142.275" width="48" height="48" rx="24" stroke="#1E40AF"/>
<path fill-rule="evenodd" clip-rule="evenodd" d="M660.206 152.472C660.684 152.196 661.296 152.36 661.572 152.838L662.869 155.085C663.556 154.956 664.264 154.888 664.987 154.888C665.71 154.888 666.418 154.956 667.105 155.085L668.402 152.838C668.535 152.608 668.753 152.441 669.009 152.372C669.265 152.303 669.538 152.339 669.768 152.472L674.55 155.233C675.028 155.509 675.192 156.121 674.916 156.599L673.618 158.847C674.537 159.915 675.262 161.155 675.738 162.514H678.331C678.884 162.514 679.331 162.962 679.331 163.514V169.036C679.331 169.588 678.884 170.036 678.331 170.036H675.738C675.262 171.395 674.537 172.635 673.618 173.702L674.916 175.951C675.192 176.429 675.028 177.041 674.55 177.317L669.768 180.078C669.538 180.211 669.265 180.246 669.009 180.178C668.753 180.109 668.535 179.942 668.402 179.712L667.105 177.465C666.418 177.594 665.71 177.661 664.987 177.661C664.264 177.661 663.556 177.594 662.869 177.465L661.572 179.712C661.439 179.942 661.221 180.109 660.965 180.178C660.708 180.246 660.435 180.211 660.206 180.078L655.424 177.317C655.194 177.184 655.027 176.966 654.958 176.71C654.889 176.454 654.925 176.181 655.058 175.951L656.356 173.702C655.488 172.694 654.793 171.532 654.318 170.261H656.486C656.941 171.23 657.558 172.109 658.302 172.864C658.618 173.184 658.681 173.676 658.456 174.066L657.29 176.085L660.34 177.846L661.504 175.829C661.729 175.439 662.186 175.248 662.621 175.361C663.376 175.557 664.169 175.661 664.987 175.661C665.805 175.661 666.598 175.557 667.352 175.361C667.788 175.248 668.245 175.44 668.47 175.829L669.634 177.846L672.684 176.085L671.518 174.066C671.293 173.676 671.356 173.184 671.672 172.864C672.782 171.738 673.608 170.336 674.038 168.771C674.158 168.337 674.552 168.036 675.003 168.036H677.331V164.514H675.003C674.553 164.514 674.158 164.213 674.039 163.779C673.608 162.214 672.782 160.811 671.672 159.686C671.356 159.365 671.293 158.873 671.518 158.484L672.684 156.465L669.634 154.704L668.47 156.721C668.245 157.11 667.788 157.301 667.353 157.188C666.598 156.993 665.805 156.888 664.987 156.888C664.169 156.888 663.376 156.993 662.621 157.189C662.186 157.302 661.729 157.11 661.504 156.721L660.34 154.704L657.29 156.465L658.455 158.484C658.68 158.873 658.617 159.365 658.302 159.686C657.574 160.424 656.969 161.281 656.516 162.225H654.342C654.816 160.979 655.502 159.839 656.356 158.847L655.058 156.599C654.782 156.121 654.945 155.509 655.424 155.233L660.206 152.472ZM664.88 161.768C666.202 161.768 667.392 162.338 668.217 163.246H666.183C664.51 163.246 663.154 164.602 663.154 166.275C663.154 167.948 664.51 169.304 666.183 169.304H668.217C667.392 170.212 666.202 170.781 664.88 170.781C663.127 170.781 661.606 169.781 660.86 168.315C660.855 168.305 660.85 168.295 660.845 168.285L660.839 168.273C660.624 167.84 660.138 167.63 659.688 167.749H650.807C649.993 167.749 649.333 167.089 649.333 166.275C649.333 165.461 649.993 164.801 650.807 164.801L659.959 164.801C660.36 164.801 660.706 164.564 660.866 164.223C660.87 164.215 660.874 164.207 660.879 164.199C661.631 162.753 663.141 161.768 664.88 161.768ZM670.367 165.168C670.246 165.216 670.121 165.239 669.997 165.239V165.246L666.183 165.246C665.615 165.246 665.154 165.707 665.154 166.275C665.154 166.843 665.615 167.304 666.183 167.304H669.997V167.311C670.121 167.311 670.246 167.334 670.367 167.382C670.88 167.586 671.131 168.168 670.926 168.681C669.971 171.082 667.625 172.781 664.88 172.781C662.562 172.781 660.53 171.57 659.378 169.749L650.807 169.749C648.889 169.749 647.333 168.194 647.333 166.275C647.333 164.356 648.889 162.801 650.807 162.801L659.378 162.801C660.53 160.98 662.562 159.768 664.88 159.768C667.625 159.768 669.971 161.468 670.926 163.869C671.131 164.382 670.88 164.964 670.367 165.168Z" fill="#60A5FA"/>
<circle cx="692.409" cy="136.439" r="5.8374" fill="#60A5FA"/>
<circle cx="645.169" cy="206.132" r="5.8374" fill="#60A5FA"/>
<circle cx="775.097" cy="275.968" r="5.8374" fill="#60A5FA"/>
<circle cx="806.67" cy="198.833" r="5.8374" fill="#60A5FA"/>
<defs>
<filter id="filter0_dd_622_120887" x="0.179688" y="242.945" width="101.831" height="101.832" filterUnits="userSpaceOnUse" color-interpolation-filters="sRGB">
<feFlood flood-opacity="0" result="BackgroundImageFix"/>
<feColorMatrix in="SourceAlpha" type="matrix" values="0 0 0 0 0 0 0 0 0 0 0 0 0 0 0 0 0 0 127 0" result="hardAlpha"/>
<feOffset dy="2"/>
<feGaussianBlur stdDeviation="8"/>
<feColorMatrix type="matrix" values="0 0 0 0 0.0588235 0 0 0 0 0.0588235 0 0 0 0 0.0666667 0 0 0 0.08 0"/>
<feBlend mode="normal" in2="BackgroundImageFix" result="effect1_dropShadow_622_120887"/>
<feColorMatrix in="SourceAlpha" type="matrix" values="0 0 0 0 0 0 0 0 0 0 0 0 0 0 0 0 0 0 127 0" result="hardAlpha"/>
<feMorphology radius="1" operator="dilate" in="SourceAlpha" result="effect2_dropShadow_622_120887"/>
<feOffset/>
<feColorMatrix type="matrix" values="0 0 0 0 0.0588235 0 0 0 0 0.0588235 0 0 0 0 0.0666667 0 0 0 0.1 0"/>
<feBlend mode="normal" in2="effect1_dropShadow_622_120887" result="effect2_dropShadow_622_120887"/>
<feBlend mode="normal" in="SourceGraphic" in2="effect2_dropShadow_622_120887" result="shape"/>
</filter>
<filter id="filter1_dd_622_120887" x="287.121" y="242.945" width="101.831" height="101.832" filterUnits="userSpaceOnUse" color-interpolation-filters="sRGB">
<feFlood flood-opacity="0" result="BackgroundImageFix"/>
<feColorMatrix in="SourceAlpha" type="matrix" values="0 0 0 0 0 0 0 0 0 0 0 0 0 0 0 0 0 0 127 0" result="hardAlpha"/>
<feOffset dy="2"/>
<feGaussianBlur stdDeviation="8"/>
<feColorMatrix type="matrix" values="0 0 0 0 0.0588235 0 0 0 0 0.0588235 0 0 0 0 0.0666667 0 0 0 0.08 0"/>
<feBlend mode="normal" in2="BackgroundImageFix" result="effect1_dropShadow_622_120887"/>
<feColorMatrix in="SourceAlpha" type="matrix" values="0 0 0 0 0 0 0 0 0 0 0 0 0 0 0 0 0 0 127 0" result="hardAlpha"/>
<feMorphology radius="1" operator="dilate" in="SourceAlpha" result="effect2_dropShadow_622_120887"/>
<feOffset/>
<feColorMatrix type="matrix" values="0 0 0 0 0.0588235 0 0 0 0 0.0588235 0 0 0 0 0.0666667 0 0 0 0.1 0"/>
<feBlend mode="normal" in2="effect1_dropShadow_622_120887" result="effect2_dropShadow_622_120887"/>
<feBlend mode="normal" in="SourceGraphic" in2="effect2_dropShadow_622_120887" result="shape"/>
</filter>
<filter id="filter2_dd_622_120887" x="142.549" y="0.919922" width="101.831" height="101.832" filterUnits="userSpaceOnUse" color-interpolation-filters="sRGB">
<feFlood flood-opacity="0" result="BackgroundImageFix"/>
<feColorMatrix in="SourceAlpha" type="matrix" values="0 0 0 0 0 0 0 0 0 0 0 0 0 0 0 0 0 0 127 0" result="hardAlpha"/>
<feOffset dy="2"/>
<feGaussianBlur stdDeviation="8"/>
<feColorMatrix type="matrix" values="0 0 0 0 0.0588235 0 0 0 0 0.0588235 0 0 0 0 0.0666667 0 0 0 0.08 0"/>
<feBlend mode="normal" in2="BackgroundImageFix" result="effect1_dropShadow_622_120887"/>
<feColorMatrix in="SourceAlpha" type="matrix" values="0 0 0 0 0 0 0 0 0 0 0 0 0 0 0 0 0 0 127 0" result="hardAlpha"/>
<feMorphology radius="1" operator="dilate" in="SourceAlpha" result="effect2_dropShadow_622_120887"/>
<feOffset/>
<feColorMatrix type="matrix" values="0 0 0 0 0.0588235 0 0 0 0 0.0588235 0 0 0 0 0.0666667 0 0 0 0.1 0"/>
<feBlend mode="normal" in2="effect1_dropShadow_622_120887" result="effect2_dropShadow_622_120887"/>
<feBlend mode="normal" in="SourceGraphic" in2="effect2_dropShadow_622_120887" result="shape"/>
</filter>
<filter id="filter3_dd_622_120887" x="142.549" y="156.824" width="101.831" height="101.832" filterUnits="userSpaceOnUse" color-interpolation-filters="sRGB">
<feFlood flood-opacity="0" result="BackgroundImageFix"/>
<feColorMatrix in="SourceAlpha" type="matrix" values="0 0 0 0 0 0 0 0 0 0 0 0 0 0 0 0 0 0 127 0" result="hardAlpha"/>
<feOffset dy="2"/>
<feGaussianBlur stdDeviation="8"/>
<feColorMatrix type="matrix" values="0 0 0 0 0.0588235 0 0 0 0 0.0588235 0 0 0 0 0.0666667 0 0 0 0.08 0"/>
<feBlend mode="normal" in2="BackgroundImageFix" result="effect1_dropShadow_622_120887"/>
<feColorMatrix in="SourceAlpha" type="matrix" values="0 0 0 0 0 0 0 0 0 0 0 0 0 0 0 0 0 0 127 0" result="hardAlpha"/>
<feMorphology radius="1" operator="dilate" in="SourceAlpha" result="effect2_dropShadow_622_120887"/>
<feOffset/>
<feColorMatrix type="matrix" values="0 0 0 0 0.0588235 0 0 0 0 0.0588235 0 0 0 0 0.0666667 0 0 0 0.1 0"/>
<feBlend mode="normal" in2="effect1_dropShadow_622_120887" result="effect2_dropShadow_622_120887"/>
<feBlend mode="normal" in="SourceGraphic" in2="effect2_dropShadow_622_120887" result="shape"/>
</filter>
<filter id="filter4_dd_622_120887" x="0.958984" y="69.75" width="101.831" height="101.832" filterUnits="userSpaceOnUse" color-interpolation-filters="sRGB">
<feFlood flood-opacity="0" result="BackgroundImageFix"/>
<feColorMatrix in="SourceAlpha" type="matrix" values="0 0 0 0 0 0 0 0 0 0 0 0 0 0 0 0 0 0 127 0" result="hardAlpha"/>
<feOffset dy="2"/>
<feGaussianBlur stdDeviation="8"/>
<feColorMatrix type="matrix" values="0 0 0 0 0.0588235 0 0 0 0 0.0588235 0 0 0 0 0.0666667 0 0 0 0.08 0"/>
<feBlend mode="normal" in2="BackgroundImageFix" result="effect1_dropShadow_622_120887"/>
<feColorMatrix in="SourceAlpha" type="matrix" values="0 0 0 0 0 0 0 0 0 0 0 0 0 0 0 0 0 0 127 0" result="hardAlpha"/>
<feMorphology radius="1" operator="dilate" in="SourceAlpha" result="effect2_dropShadow_622_120887"/>
<feOffset/>
<feColorMatrix type="matrix" values="0 0 0 0 0.0588235 0 0 0 0 0.0588235 0 0 0 0 0.0666667 0 0 0 0.1 0"/>
<feBlend mode="normal" in2="effect1_dropShadow_622_120887" result="effect2_dropShadow_622_120887"/>
<feBlend mode="normal" in="SourceGraphic" in2="effect2_dropShadow_622_120887" result="shape"/>
</filter>
<filter id="filter5_dd_622_120887" x="287.121" y="69.75" width="101.831" height="101.832" filterUnits="userSpaceOnUse" color-interpolation-filters="sRGB">
<feFlood flood-opacity="0" result="BackgroundImageFix"/>
<feColorMatrix in="SourceAlpha" type="matrix" values="0 0 0 0 0 0 0 0 0 0 0 0 0 0 0 0 0 0 127 0" result="hardAlpha"/>
<feOffset dy="2"/>
<feGaussianBlur stdDeviation="8"/>
<feColorMatrix type="matrix" values="0 0 0 0 0.0588235 0 0 0 0 0.0588235 0 0 0 0 0.0666667 0 0 0 0.08 0"/>
<feBlend mode="normal" in2="BackgroundImageFix" result="effect1_dropShadow_622_120887"/>
<feColorMatrix in="SourceAlpha" type="matrix" values="0 0 0 0 0 0 0 0 0 0 0 0 0 0 0 0 0 0 127 0" result="hardAlpha"/>
<feMorphology radius="1" operator="dilate" in="SourceAlpha" result="effect2_dropShadow_622_120887"/>
<feOffset/>
<feColorMatrix type="matrix" values="0 0 0 0 0.0588235 0 0 0 0 0.0588235 0 0 0 0 0.0666667 0 0 0 0.1 0"/>
<feBlend mode="normal" in2="effect1_dropShadow_622_120887" result="effect2_dropShadow_622_120887"/>
<feBlend mode="normal" in="SourceGraphic" in2="effect2_dropShadow_622_120887" result="shape"/>
</filter>
<filter id="filter6_dd_622_120887" x="142.549" y="321.248" width="101.831" height="101.832" filterUnits="userSpaceOnUse" color-interpolation-filters="sRGB">
<feFlood flood-opacity="0" result="BackgroundImageFix"/>
<feColorMatrix in="SourceAlpha" type="matrix" values="0 0 0 0 0 0 0 0 0 0 0 0 0 0 0 0 0 0 127 0" result="hardAlpha"/>
<feOffset dy="2"/>
<feGaussianBlur stdDeviation="8"/>
<feColorMatrix type="matrix" values="0 0 0 0 0.0588235 0 0 0 0 0.0588235 0 0 0 0 0.0666667 0 0 0 0.08 0"/>
<feBlend mode="normal" in2="BackgroundImageFix" result="effect1_dropShadow_622_120887"/>
<feColorMatrix in="SourceAlpha" type="matrix" values="0 0 0 0 0 0 0 0 0 0 0 0 0 0 0 0 0 0 127 0" result="hardAlpha"/>
<feMorphology radius="1" operator="dilate" in="SourceAlpha" result="effect2_dropShadow_622_120887"/>
<feOffset/>
<feColorMatrix type="matrix" values="0 0 0 0 0.0588235 0 0 0 0 0.0588235 0 0 0 0 0.0666667 0 0 0 0.1 0"/>
<feBlend mode="normal" in2="effect1_dropShadow_622_120887" result="effect2_dropShadow_622_120887"/>
<feBlend mode="normal" in="SourceGraphic" in2="effect2_dropShadow_622_120887" result="shape"/>
</filter>
</defs>
</svg>
