<svg width="832" height="361" viewBox="0 0 832 361" fill="none" xmlns="http://www.w3.org/2000/svg">
<path d="M708.356 304.191L523.236 71.1154V202.107L416.315 265.523L708.356 304.191Z" fill="url(#paint0_linear_966_43025)"/>
<path d="M113.844 312.064L300.15 77.5758L300.15 202.107L407.071 265.524L113.844 312.064Z" fill="url(#paint1_linear_966_43025)"/>
<path d="M522.823 73.5341L411.98 9.53857L301.136 73.5341" stroke="#D4D4D8" stroke-width="3" stroke-dasharray="10 10"/>
<path d="M131.355 38.048L317.232 359.996" stroke="#D4D4D8" stroke-width="3" stroke-dasharray="6 6"/>
<path d="M681.175 38.048L495.298 359.996" stroke="#D4D4D8" stroke-width="3" stroke-dasharray="10 10"/>
<path d="M522.671 73.8079L113.763 308.964" stroke="#60A5FA" stroke-width="3" stroke-dasharray="10 10"/>
<path d="M301.341 73.8079L709.165 304.691" stroke="#60A5FA" stroke-width="3" stroke-dasharray="10 10"/>
<path d="M305.199 71.1154L120.866 304.417" stroke="#60A5FA" stroke-width="3" stroke-dasharray="10 10"/>
<path d="M523.236 71.1154L707.914 303.899" stroke="#60A5FA" stroke-width="3" stroke-dasharray="10 10"/>
<path d="M413.813 264.285L120.326 306.574" stroke="#60A5FA" stroke-width="3" stroke-dasharray="10 10"/>
<path d="M410.934 264.285L707.854 303.959" stroke="#60A5FA" stroke-width="3" stroke-dasharray="10 10"/>
<path d="M522.823 203.452L411.98 267.447L301.136 203.452" stroke="#D4D4D8" stroke-width="3" stroke-dasharray="10 10"/>
<path d="M301.136 96.0782V201.72" stroke="#D4D4D8" stroke-width="3" stroke-dasharray="10 10"/>
<path d="M522.877 96.0782V201.72" stroke="#D4D4D8" stroke-width="3" stroke-dasharray="10 10"/>
<rect x="715.112" y="248.852" width="112.26" height="111.149" rx="55.5744" fill="#FAFAFA"/>
<path fill-rule="evenodd" clip-rule="evenodd" d="M771.099 282.965C766.801 282.965 763.337 286.407 763.337 290.631C763.337 294.854 766.801 298.297 771.099 298.297C775.396 298.297 778.861 294.854 778.861 290.631C778.861 286.407 775.396 282.965 771.099 282.965ZM761.337 290.631C761.337 285.282 765.718 280.965 771.099 280.965C776.48 280.965 780.861 285.282 780.861 290.631C780.861 294.323 778.774 297.523 775.711 299.152C778.451 300.209 780.73 302.182 782.162 304.691C782.172 304.707 782.181 304.723 782.189 304.74H795.009C795.285 304.74 795.509 304.964 795.509 305.24V327.889C795.509 328.165 795.285 328.389 795.009 328.389H747.476C747.2 328.389 746.976 328.165 746.976 327.889V305.24C746.976 304.964 747.2 304.74 747.476 304.74H760.011C760.025 304.709 760.041 304.678 760.059 304.647C761.493 302.159 763.761 300.203 766.486 299.151C763.424 297.523 761.337 294.322 761.337 290.631ZM762.377 304.74H779.819C777.879 302.051 774.698 300.297 771.098 300.297C767.499 300.297 764.317 302.051 762.377 304.74ZM773.802 309.5C774.321 309.687 774.591 310.26 774.404 310.78L770 323.026C769.813 323.546 769.24 323.816 768.72 323.629C768.2 323.442 767.931 322.869 768.118 322.349L772.522 310.103C772.709 309.583 773.282 309.313 773.802 309.5ZM766.404 312.447C766.797 312.836 766.8 313.469 766.412 313.861L764.086 316.213C763.893 316.408 763.893 316.722 764.086 316.917L766.412 319.269C766.8 319.661 766.797 320.294 766.404 320.683C766.012 321.071 765.378 321.068 764.99 320.675L761.62 317.268C761.235 316.879 761.235 316.251 761.62 315.862L764.99 312.455C765.378 312.062 766.012 312.059 766.404 312.447ZM777.531 312.455C777.143 312.062 776.51 312.059 776.117 312.447C775.725 312.836 775.721 313.469 776.109 313.861L778.436 316.213C778.628 316.408 778.628 316.722 778.436 316.917L776.109 319.269C775.721 319.661 775.725 320.294 776.117 320.683C776.51 321.071 777.143 321.068 777.531 320.675L780.901 317.268C781.286 316.879 781.286 316.251 780.901 315.862L777.531 312.455Z" fill="#2563EB"/>
<circle cx="771.499" cy="304.385" r="55.5446" stroke="#2563EB" stroke-width="2"/>
<ellipse cx="751.943" cy="252.281" rx="4.7728" ry="4.7728" fill="#2563EB"/>
<ellipse cx="715.955" cy="304.899" rx="4.7728" ry="4.7728" fill="#2563EB"/>
<ellipse cx="802.816" cy="350.368" rx="4.7728" ry="4.7728" fill="#2563EB"/>
<ellipse cx="826.408" cy="295.082" rx="4.7728" ry="4.7728" fill="#2563EB"/>
<rect x="4.74939" y="248.37" width="112.26" height="111.149" rx="55.5744" fill="#FAFAFA"/>
<path fill-rule="evenodd" clip-rule="evenodd" d="M60.7358 282.482C56.4383 282.482 52.9735 285.925 52.9735 290.148C52.9735 294.372 56.4383 297.814 60.7358 297.814C65.0332 297.814 68.4981 294.372 68.4981 290.148C68.4981 285.925 65.0332 282.482 60.7358 282.482ZM50.9735 290.148C50.9735 284.799 55.3547 280.482 60.7358 280.482C66.1169 280.482 70.4981 284.799 70.4981 290.148C70.4981 293.84 68.4107 297.041 65.3479 298.669C68.088 299.727 70.3666 301.699 71.7994 304.208C71.8088 304.224 71.8176 304.241 71.8259 304.258H84.6461C84.9223 304.258 85.1461 304.481 85.1461 304.758V327.406C85.1461 327.682 84.9223 327.906 84.6461 327.906H37.1128C36.8367 327.906 36.6128 327.682 36.6128 327.406V304.758C36.6128 304.481 36.8367 304.258 37.1128 304.258H49.6483C49.6623 304.226 49.6781 304.195 49.6956 304.165C51.13 301.676 53.3984 299.72 56.1231 298.669C53.0606 297.04 50.9735 293.84 50.9735 290.148ZM52.0142 304.258H69.456C67.5163 301.569 64.3345 299.814 60.7351 299.814C57.1357 299.814 53.954 301.569 52.0142 304.258ZM63.4387 309.018C63.9584 309.205 64.2282 309.777 64.0412 310.297L59.6365 322.544C59.4496 323.063 58.8768 323.333 58.3571 323.146C57.8374 322.959 57.5676 322.386 57.7546 321.867L62.1593 309.62C62.3462 309.101 62.919 308.831 63.4387 309.018ZM56.0412 311.965C56.4339 312.353 56.4374 312.986 56.049 313.379L53.7226 315.731C53.5299 315.926 53.5299 316.239 53.7226 316.434L56.049 318.786C56.4374 319.179 56.4339 319.812 56.0412 320.2C55.6486 320.589 55.0154 320.585 54.627 320.193L51.2573 316.786C50.872 316.396 50.872 315.769 51.2573 315.379L54.627 311.972C55.0154 311.58 55.6486 311.576 56.0412 311.965ZM67.1683 311.972C66.78 311.58 66.1468 311.576 65.7541 311.965C65.3615 312.353 65.358 312.986 65.7464 313.379L68.0728 315.731C68.2655 315.926 68.2655 316.239 68.0728 316.434L65.7464 318.786C65.358 319.179 65.3615 319.812 65.7541 320.2C66.1468 320.589 66.78 320.585 67.1683 320.193L70.538 316.786C70.9234 316.396 70.9234 315.769 70.538 315.379L67.1683 311.972Z" fill="#2563EB"/>
<circle cx="61.1365" cy="303.904" r="55.5446" stroke="#2563EB" stroke-width="2"/>
<ellipse cx="41.5803" cy="251.811" rx="4.7728" ry="4.7728" fill="#2563EB"/>
<ellipse cx="5.59201" cy="304.419" rx="4.7728" ry="4.7728" fill="#2563EB"/>
<ellipse cx="92.4532" cy="349.888" rx="4.7728" ry="4.7728" fill="#2563EB"/>
<ellipse cx="116.045" cy="294.602" rx="4.7728" ry="4.7728" fill="#2563EB"/>
<circle cx="411.98" cy="9.53759" r="9.53869" fill="#2563EB"/>
<circle cx="522.671" cy="73.8069" r="9.53869" fill="#2563EB"/>
<circle cx="301.341" cy="73.8069" r="9.53869" fill="#2563EB"/>
<circle cx="522.671" cy="205.251" r="9.53869" fill="#2563EB"/>
<circle cx="301.341" cy="205.251" r="9.53869" fill="#2563EB"/>
<circle cx="411.98" cy="139.36" r="9.53869" fill="#2563EB"/>
<circle cx="411.98" cy="267.446" r="9.53869" fill="#2563EB"/>
<defs>
<linearGradient id="paint0_linear_966_43025" x1="522.385" y1="200.094" x2="710.644" y2="308.269" gradientUnits="userSpaceOnUse">
<stop stop-color="#DBEAFE"/>
<stop offset="1" stop-color="#DBEAFE" stop-opacity="0"/>
</linearGradient>
<linearGradient id="paint1_linear_966_43025" x1="301" y1="200.094" x2="112.741" y2="308.269" gradientUnits="userSpaceOnUse">
<stop stop-color="#DBEAFE"/>
<stop offset="1" stop-color="#DBEAFE" stop-opacity="0"/>
</linearGradient>
</defs>
</svg>
