<svg width="280" height="161" viewBox="0 0 280 161" fill="none" xmlns="http://www.w3.org/2000/svg">
<rect width="280" height="160" transform="translate(0 0.910156)" fill="#FAFAFA"/>
<path d="M209.21 115.41L157.788 50.667V87.0536L128.088 104.669L209.21 115.41Z" fill="url(#paint0_linear_966_61912)"/>
<path d="M44.0675 117.597L95.8193 52.4609L95.8193 87.053L125.52 104.669L44.0675 117.597Z" fill="url(#paint1_linear_966_61912)"/>
<path d="M157.673 51.3391L126.883 33.5625L96.0934 51.3391" stroke="#D4D4D8" stroke-dasharray="4 4"/>
<path d="M48.9318 41.4795L100.564 130.91" stroke="#D4D4D8" stroke-dasharray="4 4"/>
<path d="M201.66 41.4795L150.027 130.91" stroke="#D4D4D8" stroke-dasharray="4 4"/>
<path d="M157.631 51.4131L44.0448 116.734" stroke="#60A5FA" stroke-dasharray="4 4"/>
<path d="M96.15 51.4131L209.435 115.547" stroke="#60A5FA" stroke-dasharray="4 4"/>
<path d="M97.2217 50.667L46.0179 115.473" stroke="#60A5FA" stroke-dasharray="4 4"/>
<path d="M157.788 50.667L209.087 115.329" stroke="#60A5FA" stroke-dasharray="4 4"/>
<path d="M127.392 104.323L45.868 116.07" stroke="#60A5FA" stroke-dasharray="4 4"/>
<path d="M126.593 104.323L209.071 115.344" stroke="#60A5FA" stroke-dasharray="4 4"/>
<path d="M157.673 87.4256L126.883 105.202L96.0934 87.4256" stroke="#D4D4D8" stroke-dasharray="4 4"/>
<path d="M96.0934 57.6006V86.9457" stroke="#D4D4D8" stroke-dasharray="4 4"/>
<path d="M157.688 57.6006V86.9457" stroke="#D4D4D8" stroke-dasharray="4 4"/>
<rect x="211.087" y="100.035" width="31.1835" height="30.8748" rx="15.4374" fill="#FAFAFA"/>
<path fill-rule="evenodd" clip-rule="evenodd" d="M226.631 108.235C225.153 108.235 223.96 109.419 223.96 110.874C223.96 112.329 225.153 113.513 226.631 113.513C228.108 113.513 229.301 112.329 229.301 110.874C229.301 109.419 228.108 108.235 226.631 108.235ZM223.46 110.874C223.46 109.138 224.882 107.735 226.631 107.735C228.379 107.735 229.801 109.138 229.801 110.874C229.801 112.141 229.044 113.23 227.955 113.726C228.923 114.049 229.731 114.714 230.232 115.577H234.268C234.544 115.577 234.768 115.801 234.768 116.077V122.96C234.768 123.236 234.544 123.46 234.268 123.46H219.09C218.814 123.46 218.59 123.236 218.59 122.96V116.077C218.59 115.801 218.814 115.577 219.09 115.577H223.029C223.53 114.714 224.338 114.049 225.306 113.726C224.217 113.23 223.46 112.141 223.46 110.874ZM223.621 115.577H229.64C228.981 114.632 227.88 114.013 226.631 114.013C225.381 114.013 224.28 114.632 223.621 115.577ZM227.503 117.242C227.633 117.289 227.701 117.432 227.654 117.562L226.186 121.644C226.139 121.774 225.996 121.842 225.866 121.795C225.736 121.748 225.669 121.605 225.715 121.475L227.184 117.393C227.23 117.263 227.374 117.196 227.503 117.242ZM225.007 118.205C225.105 118.303 225.106 118.461 225.009 118.559L224.408 119.167C224.215 119.362 224.215 119.676 224.408 119.87L225.009 120.479C225.106 120.577 225.105 120.735 225.007 120.832C224.909 120.929 224.751 120.928 224.654 120.83L223.53 119.695C223.434 119.597 223.434 119.44 223.53 119.343L224.654 118.207C224.751 118.109 224.909 118.108 225.007 118.205ZM228.716 118.207C228.619 118.109 228.46 118.108 228.362 118.205C228.264 118.303 228.263 118.461 228.36 118.559L228.962 119.167C229.154 119.362 229.154 119.676 228.962 119.87L228.36 120.479C228.263 120.577 228.264 120.735 228.362 120.832C228.46 120.929 228.619 120.928 228.716 120.83L229.839 119.695C229.935 119.597 229.935 119.44 229.839 119.343L228.716 118.207Z" fill="#2563EB"/>
<circle cx="226.75" cy="115.462" r="15.4291" stroke="#2563EB" stroke-width="0.5"/>
<ellipse cx="221.318" cy="100.989" rx="1.32578" ry="1.32578" fill="#2563EB"/>
<ellipse cx="211.321" cy="115.606" rx="1.32578" ry="1.32578" fill="#2563EB"/>
<ellipse cx="235.449" cy="128.237" rx="1.32578" ry="1.32578" fill="#2563EB"/>
<ellipse cx="242.003" cy="112.878" rx="1.32578" ry="1.32578" fill="#2563EB"/>
<rect x="13.7632" y="100.035" width="31.1835" height="30.8748" rx="15.4374" fill="#FAFAFA"/>
<path fill-rule="evenodd" clip-rule="evenodd" d="M29.307 108.235C27.8294 108.235 26.6362 109.419 26.6362 110.874C26.6362 112.329 27.8294 113.513 29.307 113.513C30.7846 113.513 31.9778 112.329 31.9778 110.874C31.9778 109.419 30.7846 108.235 29.307 108.235ZM26.1362 110.874C26.1362 109.138 27.5584 107.735 29.307 107.735C31.0555 107.735 32.4778 109.138 32.4778 110.874C32.4778 112.141 31.7204 113.23 30.6316 113.726C31.5991 114.049 32.4074 114.714 32.9082 115.577H36.9438C37.2199 115.577 37.4438 115.801 37.4438 116.077V122.96C37.4438 123.236 37.2199 123.46 36.9438 123.46H21.766C21.4898 123.46 21.266 123.236 21.266 122.96V116.077C21.266 115.801 21.4898 115.577 21.766 115.577H25.7053C26.2062 114.714 27.0146 114.049 27.9822 113.726C26.8935 113.23 26.1362 112.141 26.1362 110.874ZM26.2977 115.577H32.3159C31.6577 114.632 30.5559 114.013 29.3068 114.013C28.0577 114.013 26.9558 114.632 26.2977 115.577ZM30.1798 117.242C30.3097 117.289 30.3771 117.432 30.3304 117.562L28.8622 121.644C28.8154 121.774 28.6722 121.842 28.5423 121.795C28.4124 121.748 28.3449 121.605 28.3917 121.475L29.8599 117.393C29.9066 117.263 30.0498 117.196 30.1798 117.242ZM27.6835 118.205C27.7817 118.303 27.7826 118.461 27.6855 118.559L27.0839 119.167C26.8912 119.362 26.8912 119.676 27.0839 119.87L27.6855 120.479C27.7826 120.577 27.7817 120.735 27.6835 120.832C27.5854 120.929 27.4271 120.928 27.33 120.83L26.2068 119.695C26.1104 119.597 26.1104 119.44 26.2068 119.343L27.33 118.207C27.4271 118.109 27.5854 118.108 27.6835 118.205ZM31.3919 118.207C31.2948 118.109 31.1365 118.108 31.0384 118.205C30.9402 118.303 30.9393 118.461 31.0364 118.559L31.638 119.167C31.8307 119.362 31.8307 119.676 31.638 119.87L31.0364 120.479C30.9393 120.577 30.9402 120.735 31.0384 120.832C31.1365 120.929 31.2948 120.928 31.3919 120.83L32.5152 119.695C32.6115 119.597 32.6115 119.44 32.5152 119.343L31.3919 118.207Z" fill="#2563EB"/>
<circle cx="29.4263" cy="115.462" r="15.4291" stroke="#2563EB" stroke-width="0.5"/>
<ellipse cx="23.994" cy="100.989" rx="1.32578" ry="1.32578" fill="#2563EB"/>
<ellipse cx="13.9973" cy="115.606" rx="1.32578" ry="1.32578" fill="#2563EB"/>
<ellipse cx="38.1253" cy="128.237" rx="1.32578" ry="1.32578" fill="#2563EB"/>
<ellipse cx="44.6788" cy="112.878" rx="1.32578" ry="1.32578" fill="#2563EB"/>
<ellipse cx="126.883" cy="33.5608" rx="2.64965" ry="2.64965" fill="#3B82F6"/>
<ellipse cx="157.631" cy="51.4133" rx="2.64965" ry="2.64965" fill="#3B82F6"/>
<ellipse cx="96.15" cy="51.4133" rx="2.64965" ry="2.64965" fill="#3B82F6"/>
<ellipse cx="157.631" cy="87.926" rx="2.64965" ry="2.64965" fill="#3B82F6"/>
<ellipse cx="96.15" cy="87.926" rx="2.64965" ry="2.64965" fill="#3B82F6"/>
<ellipse cx="126.883" cy="69.6233" rx="2.64965" ry="2.64965" fill="#3B82F6"/>
<ellipse cx="126.883" cy="105.202" rx="2.64965" ry="2.64965" fill="#3B82F6"/>
<defs>
<linearGradient id="paint0_linear_966_61912" x1="157.552" y1="86.4945" x2="209.846" y2="116.543" gradientUnits="userSpaceOnUse">
<stop stop-color="#DBEAFE"/>
<stop offset="1" stop-color="#DBEAFE" stop-opacity="0"/>
</linearGradient>
<linearGradient id="paint1_linear_966_61912" x1="96.0555" y1="86.4939" x2="43.7611" y2="116.543" gradientUnits="userSpaceOnUse">
<stop stop-color="#DBEAFE"/>
<stop offset="1" stop-color="#DBEAFE" stop-opacity="0"/>
</linearGradient>
</defs>
</svg>
