<svg width="832" height="424" viewBox="0 0 832 424" fill="none" xmlns="http://www.w3.org/2000/svg">
<path d="M645.169 200.529C642.223 200.529 639.835 202.917 639.835 205.862C639.835 208.808 642.223 211.196 645.169 211.196C648.114 211.196 650.502 208.808 650.502 205.862C650.502 202.917 648.114 200.529 645.169 200.529ZM645.169 204.862H642.112V206.862H645.169V204.862ZM635.999 204.862H629.887V206.862H635.999V204.862ZM623.774 204.862H617.661V206.862H623.774V204.862ZM611.548 204.862H605.435V206.862H611.548V204.862ZM599.323 204.862H593.21V206.862H599.323V204.862ZM587.097 204.862H580.984V206.862H587.097V204.862ZM574.871 204.862H568.759V206.862H574.871V204.862ZM562.646 204.862H556.533V206.862H562.646V204.862ZM550.42 204.862H544.307V206.862H550.42V204.862ZM538.195 204.862H532.082V206.862H538.195V204.862ZM525.969 204.862H519.856V206.862H525.969V204.862ZM513.743 204.862H507.63V206.862H513.743V204.862ZM501.518 204.862H495.405V206.862H501.518V204.862ZM489.292 204.862H483.179V206.862H489.292V204.862ZM477.066 204.862H470.954V206.862H477.066V204.862ZM464.841 204.862H458.728V206.862H464.841V204.862ZM452.615 204.862H446.502V206.862H452.615V204.862ZM440.39 204.862H434.277V206.862H440.39V204.862ZM428.164 204.862H422.051V206.862H428.164V204.862ZM415.938 204.862L409.826 204.862V206.862L415.938 206.862V204.862ZM403.713 204.862H397.6V206.862H403.713V204.862ZM391.487 204.862H385.374V206.862H391.487V204.862ZM379.261 204.862H373.149V206.862H379.261V204.862ZM367.036 204.862H360.923V206.862H367.036V204.862ZM354.81 204.862H348.697V206.862H354.81V204.862ZM342.585 204.862H339.528V206.862H342.585V204.862Z" fill="#52525B"/>
<path d="M366.939 116.445L645.169 207.141" stroke="#52525B" stroke-width="2" stroke-dasharray="6 6"/>
<path d="M366.939 295.035L645.169 204.339" stroke="#52525B" stroke-width="2" stroke-dasharray="6 6"/>
<path d="M82.609 133.204L162.282 186.703" stroke="#52525B" stroke-width="2" stroke-dasharray="6 6"/>
<path d="M310.97 133.204L220.998 193.619" stroke="#52525B" stroke-width="2" stroke-dasharray="6 6"/>
<path d="M82.609 280.167L162.282 226.669" stroke="#52525B" stroke-width="2" stroke-dasharray="6 6"/>
<path d="M310.97 280.167L219.615 218.824" stroke="#52525B" stroke-width="2" stroke-dasharray="6 6"/>
<path d="M51.4717 287.01L51.8743 123.237" stroke="#52525B" stroke-width="2" stroke-dasharray="6 6"/>
<path d="M338.098 287.01L338.501 123.237" stroke="#52525B" stroke-width="2" stroke-dasharray="6 6"/>
<path d="M338.108 123.858L193.504 41.3169L81.1414 106.387M339.528 288.224L197.695 370.164L74.8534 300.283" stroke="#52525B" stroke-width="2" stroke-dasharray="6 6"/>
<g filter="url(#filter0_dd_448_171730)">
<rect width="68.8314" height="68.8314" rx="34.4157" transform="matrix(1 0 0 -1 16.6793 326.278)" fill="#DBEAFE"/>
<rect width="68.8314" height="68.8314" rx="34.4157" transform="matrix(1 0 0 -1 16.6793 326.278)" stroke="#2563EB"/>
<path d="M48.9389 275.801C48.9389 275.816 49.1264 276.168 49.3608 276.605C49.5952 277.035 49.7592 277.402 49.7358 277.426C49.7124 277.441 49.0561 277.691 48.2827 277.965C47.5015 278.246 46.8843 278.48 46.8921 278.488C46.8999 278.496 47.7827 278.59 48.8452 278.691C50.1264 278.808 50.7983 278.894 50.8452 278.949C50.8842 278.988 51.1811 279.465 51.5014 279.996L52.0795 280.965L52.1811 280.722C52.2358 280.597 52.4154 280.168 52.5717 279.785L52.8608 279.09L54.3998 278.925C55.2435 278.832 55.9935 278.761 56.0716 278.761L56.2045 278.707C56.2045 278.683 55.6342 278.449 54.931 278.183C54.2357 277.926 53.6576 277.699 53.6576 277.691C53.6576 277.683 53.8061 277.316 53.9936 276.871C54.1732 276.426 54.3139 276.051 54.306 276.043C54.2904 276.027 53.6967 276.207 52.9936 276.433L51.7201 276.855L50.353 276.316C49.0092 275.785 48.9389 275.761 48.9389 275.801ZM57.4232 280.418C55.7904 281.066 54.4467 281.605 54.4389 281.621C54.4232 281.636 55.642 282.129 57.1419 282.722L59.8607 283.793L60.1497 283.675C63.1809 282.496 65.9309 281.402 65.9231 281.386L60.4622 279.238C60.4075 279.246 59.0482 279.769 57.4232 280.418ZM41.7515 279.785C40.1812 279.949 38.8688 280.402 38.3141 280.98C37.9313 281.371 37.8688 281.707 38.111 282.113C38.4625 282.722 39.6188 283.23 41.2125 283.488C41.9312 283.613 44.0328 283.589 44.7593 283.464C46.4624 283.168 47.5718 282.621 47.8296 281.933C47.9233 281.675 47.9233 281.644 47.8296 281.394C47.5718 280.73 46.4858 280.175 44.8765 279.894C44.064 279.761 42.5484 279.707 41.7515 279.785ZM70.9152 281.675C70.8371 281.777 70.548 282.011 70.2668 282.199C69.4386 282.73 68.3762 283.214 61.7434 286.074C57.0794 288.074 55.892 288.605 54.2826 289.378C52.4936 290.23 51.7514 290.472 50.853 290.472C50.0483 290.472 49.5639 290.332 48.0639 289.668C47.4624 289.402 45.0015 288.371 42.6031 287.371C32.0954 283.004 31.9001 282.91 31.3376 282.3L31.1033 282.043V286.16L31.3689 286.418C31.6267 286.668 32.4939 287.191 32.7985 287.277C32.8845 287.3 33.4548 287.535 34.072 287.8C34.6891 288.066 37.7047 289.332 40.775 290.613C45.853 292.73 47.0093 293.214 48.7436 293.972C49.6577 294.378 50.1655 294.48 51.0327 294.449C51.6655 294.425 51.853 294.386 52.4076 294.199C52.767 294.082 53.3842 293.816 53.7826 293.613C55.1029 292.949 56.6966 292.246 63.0481 289.511C69.0246 286.933 69.8058 286.574 70.4543 286.129C71.1183 285.652 71.0949 285.769 71.0949 283.472C71.0949 282.371 71.0871 281.472 71.0792 281.472L70.9152 281.675ZM49.9936 284.363C47.5483 284.738 45.5249 285.058 45.4859 285.074C45.4312 285.089 51.5795 287.675 51.8373 287.746L54.6498 283.707C54.642 283.652 54.6498 283.644 49.9936 284.363ZM70.9543 288.457C70.8996 288.55 70.6418 288.769 70.3996 288.949C69.6027 289.496 68.4074 290.043 61.1419 293.167C56.9623 294.972 55.6498 295.55 54.4076 296.152C52.392 297.128 51.9076 297.285 50.8295 297.285C49.9936 297.277 49.478 297.144 48.3686 296.644C47.2983 296.152 46.103 295.652 41.3062 293.66C32.9392 290.191 31.9782 289.753 31.3845 289.183L31.0954 288.91V292.972L31.4236 293.285C31.9548 293.785 31.9001 293.753 40.8687 297.488C44.1578 298.855 47.2593 300.16 47.7593 300.386C49.0796 300.98 49.4624 301.12 49.9858 301.23C51.2045 301.48 52.1108 301.277 54.0873 300.316C55.3763 299.691 56.9466 298.996 60.7513 297.355C67.9855 294.238 69.7668 293.433 70.298 293.082C70.4855 292.949 70.7433 292.738 70.8683 292.597L71.0949 292.347V290.316C71.0949 289.199 71.0871 288.285 71.0792 288.285L70.9543 288.457ZM70.8839 295.113C70.4074 295.714 69.4465 296.175 61.9856 299.386C57.1185 301.488 55.6342 302.144 54.0326 302.902C52.353 303.699 51.7983 303.87 50.8295 303.87C50.1655 303.87 49.4936 303.714 48.7514 303.386C47.0093 302.62 45.8609 302.136 40.775 300.019C34.9938 297.613 33.1423 296.824 32.5251 296.519C31.947 296.23 31.3611 295.816 31.2283 295.605L31.0954 295.41V297.48C31.0954 299.855 31.0564 299.675 31.6892 300.105C32.3923 300.574 33.4392 301.042 40.3844 303.925C45.2359 305.941 46.9858 306.675 47.8452 307.066C49.603 307.855 50.0717 307.98 51.0561 307.925C51.9545 307.886 52.5404 307.691 54.0951 306.949C55.7123 306.175 56.9076 305.636 62.1966 303.363C69.5402 300.199 70.3371 299.816 70.8917 299.175L71.0871 298.956V296.933C71.0871 295.816 71.0792 294.902 71.0714 294.902L70.8839 295.113Z" fill="#2563EB"/>
</g>
<g filter="url(#filter1_dd_448_171730)">
<rect width="68.8314" height="68.8314" rx="34.4157" transform="matrix(1 0 0 -1 303.621 326.278)" fill="#DBEAFE"/>
<rect width="68.8314" height="68.8314" rx="34.4157" transform="matrix(1 0 0 -1 303.621 326.278)" stroke="#2563EB"/>
<path fill-rule="evenodd" clip-rule="evenodd" d="M335.965 277.953H340.108V281.701H335.965V277.953ZM330.217 282.491H326.074V286.239H330.217V282.491ZM325.284 287.018H321.141V290.767H325.284V287.018ZM330.217 287.018H326.074V290.767H330.217V287.018ZM331.006 287.018H335.15V290.767H331.006V287.018ZM340.082 287.018H335.939V290.767H340.082V287.018ZM340.871 287.018H345.015V290.767H340.871V287.018ZM331.006 282.491H335.15V286.239H331.006V282.491ZM340.082 282.491H335.939V286.239H340.082V282.491ZM352.611 288.015C356.261 287.423 358.037 289.1 358.037 289.1C358.037 289.1 356.952 293.342 351.822 292.947C348.369 301.234 341.069 305.772 331.302 305.772C317.689 305.772 317.689 293.342 318.182 291.468H345.311C346.791 291.468 347.777 291.073 348.369 290.777C346.297 286.93 349.158 283.477 349.158 283.477C349.158 283.477 352.216 285.154 352.611 288.015Z" fill="#2563EB"/>
</g>
<g filter="url(#filter2_dd_448_171730)">
<rect width="68.8314" height="68.8314" rx="34.4157" transform="matrix(1 0 0 -1 159.048 84.2515)" fill="#DBEAFE"/>
<rect width="68.8314" height="68.8314" rx="34.4157" transform="matrix(1 0 0 -1 159.048 84.2515)" stroke="#2563EB"/>
<path fill-rule="evenodd" clip-rule="evenodd" d="M193.464 50.5262C200.785 50.5262 207.184 48.3745 210.652 45.1673V49.6494C210.652 51.59 209.158 53.6925 205.972 55.398C202.849 57.0696 198.431 58.1494 193.47 58.1494C188.508 58.1494 184.09 57.0696 180.967 55.398C177.781 53.6925 176.287 51.59 176.287 49.6494V45.1776C179.758 48.3791 186.151 50.5262 193.464 50.5262ZM173.287 49.6494V39.6494C173.287 39.3092 173.4 38.9955 173.591 38.7438C174.435 33.1604 183.01 28.7725 193.464 28.7725C203.907 28.7725 212.475 33.1509 213.334 38.7258C213.533 38.9804 213.652 39.301 213.652 39.6494V49.6494V59.6494C213.652 63.2317 210.963 66.1291 207.388 68.0429C203.749 69.9905 198.826 71.1494 193.47 71.1494C188.113 71.1494 183.19 69.9905 179.551 68.0429C175.976 66.1291 173.287 63.2317 173.287 59.6494V49.6494ZM210.652 55.7656V59.6494C210.652 61.59 209.158 63.6925 205.972 65.398C202.849 67.0696 198.431 68.1494 193.47 68.1494C188.508 68.1494 184.09 67.0696 180.967 65.398C177.781 63.6925 176.287 61.59 176.287 59.6494V55.7656C177.226 56.6303 178.337 57.3933 179.551 58.0429C183.19 59.9905 188.113 61.1494 193.47 61.1494C198.826 61.1494 203.749 59.9905 207.388 58.0429C208.602 57.3933 209.713 56.6303 210.652 55.7656Z" fill="#2563EB"/>
</g>
<g filter="url(#filter3_dd_448_171730)">
<rect width="68.8314" height="68.8314" rx="34.4157" transform="matrix(1 0 0 -1 159.048 240.156)" fill="#DBEAFE"/>
<rect width="68.8314" height="68.8314" rx="34.4157" transform="matrix(1 0 0 -1 159.048 240.156)" stroke="#2563EB"/>
<path fill-rule="evenodd" clip-rule="evenodd" d="M190.469 190.438C189.916 190.438 189.469 190.886 189.469 191.438C189.469 191.991 189.916 192.438 190.469 192.438H196.596C197.148 192.438 197.596 191.991 197.596 191.438C197.596 190.886 197.148 190.438 196.596 190.438H190.469ZM185.717 195.438C185.717 194.886 186.164 194.438 186.717 194.438H200.348C200.9 194.438 201.348 194.886 201.348 195.438C201.348 195.991 200.9 196.438 200.348 196.438H186.717C186.164 196.438 185.717 195.991 185.717 195.438ZM177.416 200.105C177.416 199.001 178.311 198.105 179.416 198.105H207.512C208.617 198.105 209.512 199.001 209.512 200.105V219.293C209.512 220.397 208.617 221.293 207.512 221.293H179.416C178.311 221.293 177.416 220.397 177.416 219.293V200.105ZM186.812 213.885C189.021 213.885 190.812 212.094 190.812 209.885C190.812 207.676 189.021 205.885 186.812 205.885C184.603 205.885 182.812 207.676 182.812 209.885C182.812 212.094 184.603 213.885 186.812 213.885ZM203.8 209.885C203.8 212.094 202.009 213.885 199.8 213.885C197.591 213.885 195.8 212.094 195.8 209.885C195.8 207.676 197.591 205.885 199.8 205.885C202.009 205.885 203.8 207.676 203.8 209.885ZM210.319 213.766V206.004C212.058 206.011 213.464 207.423 213.464 209.162V210.62C213.464 212.357 212.056 213.766 210.319 213.766ZM176.609 206.004V213.766C174.872 213.766 173.464 212.357 173.464 210.62V209.162C173.464 207.423 174.87 206.011 176.609 206.004Z" fill="#2563EB"/>
</g>
<g filter="url(#filter4_dd_448_171730)">
<rect width="68.8314" height="68.8314" rx="34.4157" transform="matrix(1 0 0 -1 17.4589 153.083)" fill="#DBEAFE"/>
<rect width="68.8314" height="68.8314" rx="34.4157" transform="matrix(1 0 0 -1 17.4589 153.083)" stroke="#2563EB"/>
<path fill-rule="evenodd" clip-rule="evenodd" d="M45.1548 110.647C45.5677 107.954 46.1902 105.548 46.9637 103.564C47.6912 101.698 48.5327 100.256 49.4161 99.2978C49.7942 98.8877 50.166 98.5799 50.5286 98.3619C50.9898 98.3301 51.4553 98.314 51.9246 98.314C52.3938 98.314 52.8593 98.3301 53.3205 98.3619C53.6831 98.5799 54.055 98.8877 54.433 99.2978C55.3164 100.256 56.158 101.698 56.8854 103.564C57.6589 105.548 58.2814 107.954 58.6943 110.647H45.1548ZM43.1324 110.647H33.4467C35.8644 104.827 40.9521 100.395 47.1813 98.8798C46.3918 99.9663 45.6956 101.311 45.1003 102.837C44.2381 105.049 43.5639 107.705 43.1324 110.647ZM56.6678 98.8798C57.4574 99.9663 58.1536 101.311 58.7488 102.837C59.611 105.049 60.2852 107.705 60.7167 110.647H70.4024C67.9847 104.827 62.897 100.395 56.6678 98.8798ZM58.956 112.647H44.8931C44.6969 114.445 44.5912 116.345 44.5912 118.314C44.5912 120.283 44.6969 122.183 44.8931 123.981H58.956C59.1523 122.183 59.2579 120.283 59.2579 118.314C59.2579 116.345 59.1523 114.445 58.956 112.647ZM60.9674 123.981C61.1573 122.169 61.2579 120.269 61.2579 118.314C61.2579 116.359 61.1573 114.459 60.9674 112.647H71.1104C71.6402 114.444 71.9246 116.346 71.9246 118.314C71.9246 120.282 71.6402 122.184 71.1104 123.981H60.9674ZM58.6943 125.981H45.1548C45.5677 128.674 46.1902 131.08 46.9637 133.064C47.6912 134.93 48.5327 136.372 49.4161 137.33C49.7942 137.74 50.166 138.048 50.5287 138.266C50.9899 138.298 51.4553 138.314 51.9246 138.314C52.3938 138.314 52.8592 138.298 53.3204 138.266C53.6831 138.048 54.0549 137.74 54.433 137.33C55.3164 136.372 56.158 134.93 56.8854 133.064C57.6589 131.08 58.2814 128.674 58.6943 125.981ZM56.6678 137.748C57.4573 136.662 58.1535 135.317 58.7488 133.791C59.611 131.579 60.2852 128.923 60.7167 125.981H70.4024C67.9847 131.801 62.897 136.233 56.6678 137.748ZM47.1813 137.748C46.3918 136.662 45.6956 135.317 45.1003 133.791C44.2381 131.579 43.5639 128.923 43.1325 125.981H33.4467C35.8644 131.801 40.9521 136.233 47.1813 137.748ZM42.8817 123.981H32.7387C32.2089 122.184 31.9246 120.282 31.9246 118.314C31.9246 116.346 32.2089 114.444 32.7387 112.647H42.8817C42.6918 114.459 42.5912 116.359 42.5912 118.314C42.5912 120.269 42.6918 122.169 42.8817 123.981Z" fill="#2563EB"/>
</g>
<g filter="url(#filter5_dd_448_171730)">
<rect width="68.8314" height="68.8314" rx="34.4157" transform="matrix(1 0 0 -1 303.621 153.083)" fill="#DBEAFE"/>
<rect width="68.8314" height="68.8314" rx="34.4157" transform="matrix(1 0 0 -1 303.621 153.083)" stroke="#2563EB"/>
<path fill-rule="evenodd" clip-rule="evenodd" d="M322.421 107.493C322.085 107.685 322.085 108.17 322.422 108.362L338.087 117.269C338.241 117.357 338.431 117.356 338.585 117.267L353.801 108.443C354.134 108.249 354.132 107.767 353.798 107.576L338.285 98.7143C338.131 98.6265 337.942 98.6265 337.789 98.7143L322.421 107.493ZM356.043 110.322C356.043 109.937 355.626 109.696 355.292 109.89L339.497 119.05C339.343 119.139 339.248 119.304 339.248 119.482V138.158C339.248 138.542 339.663 138.782 339.996 138.592L355.791 129.569C355.947 129.48 356.043 129.315 356.043 129.135V110.322ZM336.5 138.834C336.834 139.024 337.248 138.783 337.248 138.4V119.384C337.248 119.204 337.152 119.038 336.995 118.949L320.778 109.728C320.444 109.538 320.031 109.779 320.031 110.162V129.135C320.031 129.315 320.127 129.48 320.283 129.569L336.5 138.834Z" fill="#2563EB"/>
</g>
<g filter="url(#filter6_dd_448_171730)">
<rect width="68.8314" height="68.8314" rx="34.4157" transform="matrix(1 0 0 -1 159.048 404.58)" fill="#DBEAFE"/>
<rect width="68.8314" height="68.8314" rx="34.4157" transform="matrix(1 0 0 -1 159.048 404.58)" stroke="#2563EB"/>
<path fill-rule="evenodd" clip-rule="evenodd" d="M198.014 378.764C198.152 379.003 198.457 379.085 198.697 378.947L203.238 376.324C203.478 376.186 203.559 375.881 203.421 375.641L201.978 373.142C201.866 372.947 201.898 372.702 202.051 372.536C202.402 372.156 202.728 371.753 203.027 371.329L208.549 375.687V383.141C208.549 383.219 208.557 383.295 208.574 383.367C207.133 383.788 206.081 385.119 206.081 386.696C206.081 388.612 207.633 390.164 209.549 390.164C211.464 390.164 213.017 388.612 213.017 386.696C213.017 385.119 211.964 383.788 210.523 383.367C210.54 383.294 210.549 383.219 210.549 383.141V375.203C210.549 374.897 210.408 374.607 210.168 374.418L204.171 369.684C204.129 369.651 204.085 369.621 204.04 369.596C204.275 369.1 204.477 368.585 204.642 368.054C204.709 367.839 204.905 367.688 205.13 367.688H208.013C208.289 367.688 208.513 367.465 208.513 367.188V361.944C208.513 361.668 208.289 361.444 208.013 361.444H205.13C204.905 361.444 204.709 361.293 204.642 361.078C204.117 359.389 203.222 357.863 202.051 356.596C201.898 356.431 201.866 356.186 201.978 355.991L203.421 353.491C203.56 353.252 203.478 352.946 203.238 352.808L198.697 350.186C198.457 350.048 198.152 350.13 198.014 350.369L196.572 352.866C196.459 353.061 196.231 353.156 196.011 353.106C195.178 352.919 194.312 352.82 193.422 352.82C192.532 352.82 191.665 352.919 190.832 353.106C190.613 353.156 190.385 353.061 190.272 352.866L188.83 350.369C188.692 350.13 188.386 350.048 188.147 350.186L183.605 352.808C183.366 352.946 183.284 353.252 183.422 353.491L184.866 355.991C184.978 356.186 184.946 356.431 184.793 356.596C183.622 357.863 182.727 359.389 182.202 361.078C182.135 361.293 181.939 361.444 181.714 361.444H178.831C178.555 361.444 178.331 361.668 178.331 361.944V367.189C178.331 367.465 178.555 367.688 178.831 367.688H181.714C181.939 367.688 182.135 367.839 182.202 368.054C182.371 368.599 182.579 369.127 182.823 369.635C182.8 369.65 182.778 369.667 182.756 369.684L176.759 374.418C176.519 374.607 176.378 374.897 176.378 375.203L176.378 383.141C176.378 383.219 176.387 383.295 176.404 383.367C174.963 383.788 173.911 385.119 173.911 386.696C173.911 388.612 175.463 390.164 177.379 390.164C179.294 390.164 180.847 388.612 180.847 386.696C180.847 385.119 179.794 383.788 178.353 383.367C178.37 383.294 178.378 383.219 178.378 383.141L178.378 375.687L183.846 371.371C184.137 371.78 184.454 372.169 184.793 372.536C184.946 372.702 184.978 372.947 184.866 373.142L183.422 375.642C183.284 375.881 183.366 376.186 183.605 376.325L188.147 378.947C188.386 379.085 188.692 379.003 188.83 378.764L190.272 376.266C190.385 376.072 190.613 375.977 190.832 376.026C191.363 376.146 191.908 376.229 192.464 376.274V382.337C192.464 382.39 192.468 382.441 192.476 382.492C191.042 382.917 189.996 384.245 189.996 385.817C189.996 387.732 191.548 389.285 193.464 389.285C195.379 389.285 196.932 387.732 196.932 385.817C196.932 384.245 195.886 382.917 194.452 382.492C194.46 382.441 194.464 382.39 194.464 382.337V376.267C194.99 376.221 195.507 376.14 196.011 376.026C196.231 375.977 196.459 376.072 196.572 376.266L198.014 378.764ZM193.422 372.112C197.589 372.112 200.968 368.734 200.968 364.567C200.968 360.399 197.589 357.021 193.422 357.021C189.255 357.021 185.876 360.399 185.876 364.567C185.876 368.734 189.255 372.112 193.422 372.112Z" fill="#2563EB"/>
</g>
<path fill-rule="evenodd" clip-rule="evenodd" d="M725.687 175.787C718.923 175.787 713.478 181.204 713.478 187.839C713.478 194.474 718.923 199.891 725.687 199.891C732.45 199.891 737.895 194.474 737.895 187.839C737.895 181.204 732.45 175.787 725.687 175.787ZM709.478 187.839C709.478 178.953 716.756 171.787 725.687 171.787C734.617 171.787 741.895 178.953 741.895 187.839C741.895 193.691 738.739 198.796 734.033 201.601C738.231 203.406 741.717 206.531 743.955 210.449C744.005 210.537 744.047 210.626 744.083 210.717H764.768C765.044 210.717 765.268 210.941 765.268 211.217V248.564C765.268 248.84 765.044 249.064 764.768 249.064H687.071C686.795 249.064 686.571 248.84 686.571 248.564V211.217C686.571 210.941 686.795 210.717 687.071 210.717H707.301C707.342 210.602 707.393 210.488 707.457 210.378C709.696 206.493 713.166 203.395 717.339 201.601C712.634 198.796 709.478 193.69 709.478 187.839ZM712.014 210.717H739.357C736.267 206.578 731.297 203.891 725.685 203.891C720.074 203.891 715.104 206.578 712.014 210.717ZM729.859 219.021C730.379 219.208 730.648 219.781 730.461 220.3L723.319 240.158C723.132 240.678 722.56 240.947 722.04 240.76C721.52 240.574 721.25 240.001 721.437 239.481L728.58 219.623C728.766 219.104 729.339 218.834 729.859 219.021ZM717.637 223.656C718.03 224.045 718.033 224.678 717.645 225.071L713.224 229.54C713.032 229.735 713.032 230.048 713.224 230.243L717.645 234.713C718.033 235.105 718.03 235.738 717.637 236.127C717.245 236.515 716.611 236.512 716.223 236.119L710.759 230.595C710.374 230.205 710.374 229.578 710.759 229.188L716.223 223.664C716.611 223.271 717.245 223.268 717.637 223.656ZM735.675 223.664C735.287 223.271 734.653 223.268 734.261 223.656C733.868 224.045 733.865 224.678 734.253 225.071L738.674 229.54C738.866 229.735 738.866 230.048 738.674 230.243L734.253 234.713C733.865 235.105 733.868 235.738 734.261 236.127C734.653 236.515 735.287 236.512 735.675 236.119L741.139 230.595C741.524 230.205 741.524 229.578 741.139 229.188L735.675 223.664Z" fill="#2563EB"/>
<circle cx="725.919" cy="210.209" r="80.7508" stroke="#2563EB" stroke-width="3"/>
<rect x="783.321" y="221.829" width="48" height="48" rx="24" fill="#DBEAFE"/>
<rect x="783.321" y="221.829" width="48" height="48" rx="24" stroke="#2563EB"/>
<path d="M797.358 251.867L791.321 245.829L797.358 239.791" stroke="#2563EB" stroke-width="2" stroke-linecap="round" stroke-linejoin="round"/>
<path d="M811.267 234.977L803.375 256.681" stroke="#2563EB" stroke-width="2" stroke-linecap="round" stroke-linejoin="round"/>
<path d="M817.283 239.791L823.321 245.829L817.283 251.867" stroke="#2563EB" stroke-width="2" stroke-linecap="round" stroke-linejoin="round"/>
<rect x="639.331" y="142.275" width="48" height="48" rx="24" fill="#DBEAFE"/>
<rect x="639.331" y="142.275" width="48" height="48" rx="24" stroke="#2563EB"/>
<path fill-rule="evenodd" clip-rule="evenodd" d="M660.205 152.472C660.683 152.196 661.295 152.36 661.571 152.838L662.868 155.085C663.555 154.956 664.263 154.888 664.986 154.888C665.709 154.888 666.417 154.956 667.104 155.085L668.401 152.838C668.534 152.608 668.752 152.441 669.008 152.372C669.264 152.303 669.537 152.339 669.767 152.472L674.549 155.233C675.027 155.509 675.191 156.121 674.915 156.599L673.617 158.847C674.536 159.915 675.261 161.155 675.737 162.514H678.33C678.883 162.514 679.33 162.962 679.33 163.514V169.036C679.33 169.588 678.883 170.036 678.33 170.036H675.737C675.261 171.395 674.536 172.635 673.617 173.702L674.915 175.951C675.191 176.429 675.027 177.041 674.549 177.317L669.767 180.078C669.537 180.211 669.264 180.246 669.008 180.178C668.752 180.109 668.534 179.942 668.401 179.712L667.104 177.465C666.417 177.594 665.709 177.661 664.986 177.661C664.263 177.661 663.555 177.594 662.868 177.465L661.571 179.712C661.438 179.942 661.22 180.109 660.964 180.178C660.707 180.246 660.434 180.211 660.205 180.078L655.423 177.317C655.193 177.184 655.026 176.966 654.957 176.71C654.888 176.454 654.924 176.181 655.057 175.951L656.355 173.702C655.487 172.694 654.792 171.532 654.317 170.261H656.485C656.94 171.23 657.557 172.109 658.301 172.864C658.617 173.184 658.68 173.676 658.455 174.066L657.289 176.085L660.339 177.846L661.503 175.829C661.728 175.439 662.185 175.248 662.62 175.361C663.375 175.557 664.168 175.661 664.986 175.661C665.804 175.661 666.597 175.557 667.351 175.361C667.787 175.248 668.244 175.44 668.469 175.829L669.633 177.846L672.683 176.085L671.517 174.066C671.292 173.676 671.355 173.184 671.671 172.864C672.781 171.738 673.607 170.336 674.037 168.771C674.157 168.337 674.551 168.036 675.002 168.036H677.33V164.514H675.002C674.552 164.514 674.157 164.213 674.038 163.779C673.607 162.214 672.781 160.811 671.671 159.686C671.355 159.365 671.293 158.873 671.517 158.484L672.683 156.465L669.633 154.704L668.469 156.721C668.244 157.11 667.787 157.301 667.352 157.188C666.597 156.993 665.804 156.888 664.986 156.888C664.168 156.888 663.375 156.993 662.62 157.189C662.185 157.302 661.728 157.11 661.503 156.721L660.339 154.704L657.289 156.465L658.454 158.484C658.679 158.873 658.616 159.365 658.301 159.686C657.573 160.424 656.968 161.281 656.515 162.225H654.341C654.815 160.979 655.501 159.839 656.355 158.847L655.057 156.599C654.781 156.121 654.944 155.509 655.423 155.233L660.205 152.472ZM664.879 161.768C666.201 161.768 667.391 162.338 668.216 163.246H666.182C664.509 163.246 663.153 164.602 663.153 166.275C663.153 167.948 664.509 169.304 666.182 169.304H668.216C667.391 170.212 666.201 170.781 664.879 170.781C663.126 170.781 661.605 169.781 660.859 168.315C660.854 168.305 660.849 168.295 660.844 168.285L660.838 168.273C660.623 167.84 660.137 167.63 659.687 167.749H650.806C649.992 167.749 649.332 167.089 649.332 166.275C649.332 165.461 649.992 164.801 650.806 164.801L659.958 164.801C660.359 164.801 660.705 164.564 660.865 164.223C660.869 164.215 660.873 164.207 660.878 164.199C661.63 162.753 663.14 161.768 664.879 161.768ZM670.366 165.168C670.245 165.216 670.12 165.239 669.996 165.239V165.246L666.182 165.246C665.614 165.246 665.153 165.707 665.153 166.275C665.153 166.843 665.614 167.304 666.182 167.304H669.996V167.311C670.12 167.311 670.245 167.334 670.366 167.382C670.88 167.586 671.13 168.168 670.926 168.681C669.97 171.082 667.624 172.781 664.879 172.781C662.561 172.781 660.529 171.57 659.377 169.749L650.806 169.749C648.888 169.749 647.332 168.194 647.332 166.275C647.332 164.356 648.888 162.801 650.806 162.801L659.377 162.801C660.529 160.98 662.561 159.768 664.879 159.768C667.624 159.768 669.97 161.468 670.926 163.869C671.13 164.382 670.88 164.964 670.366 165.168Z" fill="#2563EB"/>
<circle cx="692.408" cy="136.438" r="5.8374" fill="#2563EB"/>
<circle cx="645.168" cy="206.132" r="5.8374" fill="#2563EB"/>
<circle cx="775.097" cy="275.968" r="5.8374" fill="#2563EB"/>
<circle cx="806.67" cy="198.833" r="5.8374" fill="#2563EB"/>
<defs>
<filter id="filter0_dd_448_171730" x="0.179321" y="242.946" width="101.831" height="101.832" filterUnits="userSpaceOnUse" color-interpolation-filters="sRGB">
<feFlood flood-opacity="0" result="BackgroundImageFix"/>
<feColorMatrix in="SourceAlpha" type="matrix" values="0 0 0 0 0 0 0 0 0 0 0 0 0 0 0 0 0 0 127 0" result="hardAlpha"/>
<feOffset dy="2"/>
<feGaussianBlur stdDeviation="8"/>
<feColorMatrix type="matrix" values="0 0 0 0 0.0588235 0 0 0 0 0.0588235 0 0 0 0 0.0666667 0 0 0 0.08 0"/>
<feBlend mode="normal" in2="BackgroundImageFix" result="effect1_dropShadow_448_171730"/>
<feColorMatrix in="SourceAlpha" type="matrix" values="0 0 0 0 0 0 0 0 0 0 0 0 0 0 0 0 0 0 127 0" result="hardAlpha"/>
<feMorphology radius="1" operator="dilate" in="SourceAlpha" result="effect2_dropShadow_448_171730"/>
<feOffset/>
<feColorMatrix type="matrix" values="0 0 0 0 0.0588235 0 0 0 0 0.0588235 0 0 0 0 0.0666667 0 0 0 0.1 0"/>
<feBlend mode="normal" in2="effect1_dropShadow_448_171730" result="effect2_dropShadow_448_171730"/>
<feBlend mode="normal" in="SourceGraphic" in2="effect2_dropShadow_448_171730" result="shape"/>
</filter>
<filter id="filter1_dd_448_171730" x="287.121" y="242.946" width="101.831" height="101.832" filterUnits="userSpaceOnUse" color-interpolation-filters="sRGB">
<feFlood flood-opacity="0" result="BackgroundImageFix"/>
<feColorMatrix in="SourceAlpha" type="matrix" values="0 0 0 0 0 0 0 0 0 0 0 0 0 0 0 0 0 0 127 0" result="hardAlpha"/>
<feOffset dy="2"/>
<feGaussianBlur stdDeviation="8"/>
<feColorMatrix type="matrix" values="0 0 0 0 0.0588235 0 0 0 0 0.0588235 0 0 0 0 0.0666667 0 0 0 0.08 0"/>
<feBlend mode="normal" in2="BackgroundImageFix" result="effect1_dropShadow_448_171730"/>
<feColorMatrix in="SourceAlpha" type="matrix" values="0 0 0 0 0 0 0 0 0 0 0 0 0 0 0 0 0 0 127 0" result="hardAlpha"/>
<feMorphology radius="1" operator="dilate" in="SourceAlpha" result="effect2_dropShadow_448_171730"/>
<feOffset/>
<feColorMatrix type="matrix" values="0 0 0 0 0.0588235 0 0 0 0 0.0588235 0 0 0 0 0.0666667 0 0 0 0.1 0"/>
<feBlend mode="normal" in2="effect1_dropShadow_448_171730" result="effect2_dropShadow_448_171730"/>
<feBlend mode="normal" in="SourceGraphic" in2="effect2_dropShadow_448_171730" result="shape"/>
</filter>
<filter id="filter2_dd_448_171730" x="142.548" y="0.919922" width="101.831" height="101.832" filterUnits="userSpaceOnUse" color-interpolation-filters="sRGB">
<feFlood flood-opacity="0" result="BackgroundImageFix"/>
<feColorMatrix in="SourceAlpha" type="matrix" values="0 0 0 0 0 0 0 0 0 0 0 0 0 0 0 0 0 0 127 0" result="hardAlpha"/>
<feOffset dy="2"/>
<feGaussianBlur stdDeviation="8"/>
<feColorMatrix type="matrix" values="0 0 0 0 0.0588235 0 0 0 0 0.0588235 0 0 0 0 0.0666667 0 0 0 0.08 0"/>
<feBlend mode="normal" in2="BackgroundImageFix" result="effect1_dropShadow_448_171730"/>
<feColorMatrix in="SourceAlpha" type="matrix" values="0 0 0 0 0 0 0 0 0 0 0 0 0 0 0 0 0 0 127 0" result="hardAlpha"/>
<feMorphology radius="1" operator="dilate" in="SourceAlpha" result="effect2_dropShadow_448_171730"/>
<feOffset/>
<feColorMatrix type="matrix" values="0 0 0 0 0.0588235 0 0 0 0 0.0588235 0 0 0 0 0.0666667 0 0 0 0.1 0"/>
<feBlend mode="normal" in2="effect1_dropShadow_448_171730" result="effect2_dropShadow_448_171730"/>
<feBlend mode="normal" in="SourceGraphic" in2="effect2_dropShadow_448_171730" result="shape"/>
</filter>
<filter id="filter3_dd_448_171730" x="142.548" y="156.825" width="101.831" height="101.832" filterUnits="userSpaceOnUse" color-interpolation-filters="sRGB">
<feFlood flood-opacity="0" result="BackgroundImageFix"/>
<feColorMatrix in="SourceAlpha" type="matrix" values="0 0 0 0 0 0 0 0 0 0 0 0 0 0 0 0 0 0 127 0" result="hardAlpha"/>
<feOffset dy="2"/>
<feGaussianBlur stdDeviation="8"/>
<feColorMatrix type="matrix" values="0 0 0 0 0.0588235 0 0 0 0 0.0588235 0 0 0 0 0.0666667 0 0 0 0.08 0"/>
<feBlend mode="normal" in2="BackgroundImageFix" result="effect1_dropShadow_448_171730"/>
<feColorMatrix in="SourceAlpha" type="matrix" values="0 0 0 0 0 0 0 0 0 0 0 0 0 0 0 0 0 0 127 0" result="hardAlpha"/>
<feMorphology radius="1" operator="dilate" in="SourceAlpha" result="effect2_dropShadow_448_171730"/>
<feOffset/>
<feColorMatrix type="matrix" values="0 0 0 0 0.0588235 0 0 0 0 0.0588235 0 0 0 0 0.0666667 0 0 0 0.1 0"/>
<feBlend mode="normal" in2="effect1_dropShadow_448_171730" result="effect2_dropShadow_448_171730"/>
<feBlend mode="normal" in="SourceGraphic" in2="effect2_dropShadow_448_171730" result="shape"/>
</filter>
<filter id="filter4_dd_448_171730" x="0.958862" y="69.7515" width="101.831" height="101.832" filterUnits="userSpaceOnUse" color-interpolation-filters="sRGB">
<feFlood flood-opacity="0" result="BackgroundImageFix"/>
<feColorMatrix in="SourceAlpha" type="matrix" values="0 0 0 0 0 0 0 0 0 0 0 0 0 0 0 0 0 0 127 0" result="hardAlpha"/>
<feOffset dy="2"/>
<feGaussianBlur stdDeviation="8"/>
<feColorMatrix type="matrix" values="0 0 0 0 0.0588235 0 0 0 0 0.0588235 0 0 0 0 0.0666667 0 0 0 0.08 0"/>
<feBlend mode="normal" in2="BackgroundImageFix" result="effect1_dropShadow_448_171730"/>
<feColorMatrix in="SourceAlpha" type="matrix" values="0 0 0 0 0 0 0 0 0 0 0 0 0 0 0 0 0 0 127 0" result="hardAlpha"/>
<feMorphology radius="1" operator="dilate" in="SourceAlpha" result="effect2_dropShadow_448_171730"/>
<feOffset/>
<feColorMatrix type="matrix" values="0 0 0 0 0.0588235 0 0 0 0 0.0588235 0 0 0 0 0.0666667 0 0 0 0.1 0"/>
<feBlend mode="normal" in2="effect1_dropShadow_448_171730" result="effect2_dropShadow_448_171730"/>
<feBlend mode="normal" in="SourceGraphic" in2="effect2_dropShadow_448_171730" result="shape"/>
</filter>
<filter id="filter5_dd_448_171730" x="287.121" y="69.7515" width="101.831" height="101.832" filterUnits="userSpaceOnUse" color-interpolation-filters="sRGB">
<feFlood flood-opacity="0" result="BackgroundImageFix"/>
<feColorMatrix in="SourceAlpha" type="matrix" values="0 0 0 0 0 0 0 0 0 0 0 0 0 0 0 0 0 0 127 0" result="hardAlpha"/>
<feOffset dy="2"/>
<feGaussianBlur stdDeviation="8"/>
<feColorMatrix type="matrix" values="0 0 0 0 0.0588235 0 0 0 0 0.0588235 0 0 0 0 0.0666667 0 0 0 0.08 0"/>
<feBlend mode="normal" in2="BackgroundImageFix" result="effect1_dropShadow_448_171730"/>
<feColorMatrix in="SourceAlpha" type="matrix" values="0 0 0 0 0 0 0 0 0 0 0 0 0 0 0 0 0 0 127 0" result="hardAlpha"/>
<feMorphology radius="1" operator="dilate" in="SourceAlpha" result="effect2_dropShadow_448_171730"/>
<feOffset/>
<feColorMatrix type="matrix" values="0 0 0 0 0.0588235 0 0 0 0 0.0588235 0 0 0 0 0.0666667 0 0 0 0.1 0"/>
<feBlend mode="normal" in2="effect1_dropShadow_448_171730" result="effect2_dropShadow_448_171730"/>
<feBlend mode="normal" in="SourceGraphic" in2="effect2_dropShadow_448_171730" result="shape"/>
</filter>
<filter id="filter6_dd_448_171730" x="142.548" y="321.249" width="101.831" height="101.832" filterUnits="userSpaceOnUse" color-interpolation-filters="sRGB">
<feFlood flood-opacity="0" result="BackgroundImageFix"/>
<feColorMatrix in="SourceAlpha" type="matrix" values="0 0 0 0 0 0 0 0 0 0 0 0 0 0 0 0 0 0 127 0" result="hardAlpha"/>
<feOffset dy="2"/>
<feGaussianBlur stdDeviation="8"/>
<feColorMatrix type="matrix" values="0 0 0 0 0.0588235 0 0 0 0 0.0588235 0 0 0 0 0.0666667 0 0 0 0.08 0"/>
<feBlend mode="normal" in2="BackgroundImageFix" result="effect1_dropShadow_448_171730"/>
<feColorMatrix in="SourceAlpha" type="matrix" values="0 0 0 0 0 0 0 0 0 0 0 0 0 0 0 0 0 0 127 0" result="hardAlpha"/>
<feMorphology radius="1" operator="dilate" in="SourceAlpha" result="effect2_dropShadow_448_171730"/>
<feOffset/>
<feColorMatrix type="matrix" values="0 0 0 0 0.0588235 0 0 0 0 0.0588235 0 0 0 0 0.0666667 0 0 0 0.1 0"/>
<feBlend mode="normal" in2="effect1_dropShadow_448_171730" result="effect2_dropShadow_448_171730"/>
<feBlend mode="normal" in="SourceGraphic" in2="effect2_dropShadow_448_171730" result="shape"/>
</filter>
</defs>
</svg>
