<svg width="1120" height="480" viewBox="0 0 1120 480" fill="none" xmlns="http://www.w3.org/2000/svg">
<rect width="1120" height="480" fill="#0F0F11"/>
<path d="M852.355 364.191L667.235 131.115V262.107L560.314 325.523L852.355 364.191Z" fill="url(#paint0_linear_842_31066)"/>
<path d="M257.844 372.064L444.15 137.576L444.15 262.107L551.07 325.524L257.844 372.064Z" fill="url(#paint1_linear_842_31066)"/>
<path d="M666.822 133.534L555.978 69.5386L445.135 133.534" stroke="#3F3F46" stroke-width="3" stroke-dasharray="10 10"/>
<path d="M275.354 98.048L461.23 419.996" stroke="#3F3F46" stroke-width="3" stroke-dasharray="6 6"/>
<path d="M825.174 98.048L639.297 419.996" stroke="#3F3F46" stroke-width="3" stroke-dasharray="10 10"/>
<path d="M666.669 133.808L257.762 368.964" stroke="#3B82F6" stroke-width="3" stroke-dasharray="10 10"/>
<path d="M445.34 133.808L853.164 364.691" stroke="#3B82F6" stroke-width="3" stroke-dasharray="10 10"/>
<path d="M449.198 131.115L264.865 364.417" stroke="#3B82F6" stroke-width="3" stroke-dasharray="10 10"/>
<path d="M667.234 131.115L851.913 363.899" stroke="#3B82F6" stroke-width="3" stroke-dasharray="10 10"/>
<path d="M557.812 324.285L264.326 366.574" stroke="#3B82F6" stroke-width="3" stroke-dasharray="10 10"/>
<path d="M554.934 324.285L851.854 363.959" stroke="#3B82F6" stroke-width="3" stroke-dasharray="10 10"/>
<path d="M666.822 263.452L555.978 327.447L445.135 263.452" stroke="#3F3F46" stroke-width="3" stroke-dasharray="10 10"/>
<path d="M445.135 156.078V261.72" stroke="#3F3F46" stroke-width="3" stroke-dasharray="10 10"/>
<path d="M666.875 156.078V261.72" stroke="#3F3F46" stroke-width="3" stroke-dasharray="10 10"/>
<rect x="859.111" y="308.852" width="112.26" height="111.149" rx="55.5744" fill="#0F0F11"/>
<path fill-rule="evenodd" clip-rule="evenodd" d="M915.1 342.965C910.802 342.965 907.337 346.407 907.337 350.631C907.337 354.854 910.802 358.297 915.1 358.297C919.397 358.297 922.862 354.854 922.862 350.631C922.862 346.407 919.397 342.965 915.1 342.965ZM905.337 350.631C905.337 345.282 909.718 340.965 915.1 340.965C920.481 340.965 924.862 345.282 924.862 350.631C924.862 354.323 922.774 357.523 919.712 359.152C922.452 360.209 924.73 362.182 926.163 364.691C926.173 364.707 926.181 364.723 926.19 364.74H939.01C939.286 364.74 939.51 364.964 939.51 365.24V387.889C939.51 388.165 939.286 388.389 939.01 388.389H891.477C891.2 388.389 890.977 388.165 890.977 387.889V365.24C890.977 364.964 891.2 364.74 891.477 364.74H904.012C904.026 364.709 904.042 364.678 904.059 364.647C905.494 362.159 907.762 360.203 910.487 359.151C907.424 357.523 905.337 354.322 905.337 350.631ZM906.378 364.74H923.82C921.88 362.051 918.698 360.297 915.099 360.297C911.499 360.297 908.318 362.051 906.378 364.74ZM917.802 369.5C918.322 369.687 918.592 370.26 918.405 370.78L914 383.026C913.813 383.546 913.241 383.816 912.721 383.629C912.201 383.442 911.931 382.869 912.118 382.349L916.523 370.103C916.71 369.583 917.283 369.313 917.802 369.5ZM910.405 372.447C910.798 372.836 910.801 373.469 910.413 373.861L908.086 376.213C907.894 376.408 907.894 376.722 908.086 376.917L910.413 379.269C910.801 379.661 910.798 380.294 910.405 380.683C910.012 381.071 909.379 381.068 908.991 380.675L905.621 377.268C905.236 376.879 905.236 376.251 905.621 375.862L908.991 372.455C909.379 372.062 910.012 372.059 910.405 372.447ZM921.532 372.455C921.144 372.062 920.511 372.059 920.118 372.447C919.725 372.836 919.722 373.469 920.11 373.861L922.437 376.213C922.629 376.408 922.629 376.722 922.437 376.917L920.11 379.269C919.722 379.661 919.725 380.294 920.118 380.683C920.511 381.071 921.144 381.068 921.532 380.675L924.902 377.268C925.287 376.879 925.287 376.251 924.902 375.862L921.532 372.455Z" fill="#60A5FA"/>
<circle cx="915.498" cy="364.385" r="55.5446" stroke="#60A5FA" stroke-width="2"/>
<ellipse cx="895.941" cy="312.281" rx="4.7728" ry="4.7728" fill="#60A5FA"/>
<ellipse cx="859.954" cy="364.899" rx="4.7728" ry="4.7728" fill="#60A5FA"/>
<ellipse cx="946.816" cy="410.368" rx="4.7728" ry="4.7728" fill="#60A5FA"/>
<ellipse cx="970.41" cy="355.082" rx="4.7728" ry="4.7728" fill="#60A5FA"/>
<rect x="148.748" y="308.37" width="112.26" height="111.149" rx="55.5744" fill="#0F0F11"/>
<path fill-rule="evenodd" clip-rule="evenodd" d="M204.734 342.482C200.437 342.482 196.972 345.925 196.972 350.148C196.972 354.372 200.437 357.814 204.734 357.814C209.032 357.814 212.497 354.372 212.497 350.148C212.497 345.925 209.032 342.482 204.734 342.482ZM194.972 350.148C194.972 344.799 199.353 340.482 204.734 340.482C210.115 340.482 214.497 344.799 214.497 350.148C214.497 353.84 212.409 357.041 209.346 358.669C212.087 359.727 214.365 361.699 215.798 364.208C215.807 364.224 215.816 364.241 215.824 364.258H228.645C228.921 364.258 229.145 364.481 229.145 364.758V387.406C229.145 387.682 228.921 387.906 228.645 387.906H181.111C180.835 387.906 180.611 387.682 180.611 387.406V364.758C180.611 364.481 180.835 364.258 181.111 364.258H193.647C193.661 364.226 193.677 364.195 193.694 364.165C195.128 361.676 197.397 359.72 200.122 358.669C197.059 357.04 194.972 353.84 194.972 350.148ZM196.013 364.258H213.455C211.515 361.569 208.333 359.814 204.734 359.814C201.134 359.814 197.953 361.569 196.013 364.258ZM207.437 369.018C207.957 369.205 208.227 369.777 208.04 370.297L203.635 382.544C203.448 383.063 202.875 383.333 202.356 383.146C201.836 382.959 201.566 382.386 201.753 381.867L206.158 369.62C206.345 369.101 206.918 368.831 207.437 369.018ZM200.04 371.965C200.432 372.353 200.436 372.986 200.048 373.379L197.721 375.731C197.528 375.926 197.528 376.239 197.721 376.434L200.048 378.786C200.436 379.179 200.432 379.812 200.04 380.2C199.647 380.589 199.014 380.585 198.626 380.193L195.256 376.786C194.87 376.396 194.87 375.769 195.256 375.379L198.626 371.972C199.014 371.58 199.647 371.576 200.04 371.965ZM211.167 371.972C210.778 371.58 210.145 371.576 209.753 371.965C209.36 372.353 209.357 372.986 209.745 373.379L212.071 375.731C212.264 375.926 212.264 376.239 212.071 376.434L209.745 378.786C209.357 379.179 209.36 379.812 209.753 380.2C210.145 380.589 210.778 380.585 211.167 380.193L214.537 376.786C214.922 376.396 214.922 375.769 214.537 375.379L211.167 371.972Z" fill="#60A5FA"/>
<circle cx="205.136" cy="363.904" r="55.5446" stroke="#3B82F6" stroke-width="2"/>
<ellipse cx="185.579" cy="311.811" rx="4.7728" ry="4.7728" fill="#3B82F6"/>
<ellipse cx="149.591" cy="364.419" rx="4.7728" ry="4.7728" fill="#3B82F6"/>
<ellipse cx="236.452" cy="409.888" rx="4.7728" ry="4.7728" fill="#3B82F6"/>
<ellipse cx="260.044" cy="354.602" rx="4.7728" ry="4.7728" fill="#3B82F6"/>
<circle cx="555.978" cy="69.5376" r="9.53869" fill="#1D4ED8"/>
<circle cx="666.67" cy="133.807" r="9.53869" fill="#1D4ED8"/>
<circle cx="445.339" cy="133.807" r="9.53869" fill="#1D4ED8"/>
<circle cx="666.67" cy="265.251" r="9.53869" fill="#1D4ED8"/>
<circle cx="445.339" cy="265.251" r="9.53869" fill="#1D4ED8"/>
<circle cx="555.978" cy="199.36" r="9.53869" fill="#1D4ED8"/>
<circle cx="555.978" cy="327.446" r="9.53869" fill="#1D4ED8"/>
<defs>
<linearGradient id="paint0_linear_842_31066" x1="666.385" y1="260.094" x2="854.643" y2="368.269" gradientUnits="userSpaceOnUse">
<stop stop-color="#091842"/>
<stop offset="1" stop-color="#091842" stop-opacity="0"/>
</linearGradient>
<linearGradient id="paint1_linear_842_31066" x1="445" y1="260.094" x2="256.741" y2="368.269" gradientUnits="userSpaceOnUse">
<stop stop-color="#091842"/>
<stop offset="1" stop-color="#091842" stop-opacity="0"/>
</linearGradient>
</defs>
</svg>
