<svg width="1120" height="480" viewBox="0 0 1120 480" fill="none" xmlns="http://www.w3.org/2000/svg">
<rect width="1120" height="480" fill="#FAFAFA"/>
<path d="M852.356 364.191L667.236 131.115V262.107L560.315 325.523L852.356 364.191Z" fill="url(#paint0_linear_909_110892)"/>
<path d="M257.844 372.064L444.15 137.576L444.15 262.107L551.071 325.524L257.844 372.064Z" fill="url(#paint1_linear_909_110892)"/>
<path d="M666.823 133.534L555.98 69.5386L445.136 133.534" stroke="#D4D4D8" stroke-width="3" stroke-dasharray="10 10"/>
<path d="M275.355 98.048L461.232 419.996" stroke="#D4D4D8" stroke-width="3" stroke-dasharray="6 6"/>
<path d="M825.175 98.048L639.298 419.996" stroke="#D4D4D8" stroke-width="3" stroke-dasharray="10 10"/>
<path d="M666.671 133.808L257.763 368.964" stroke="#60A5FA" stroke-width="3" stroke-dasharray="10 10"/>
<path d="M445.341 133.808L853.165 364.691" stroke="#60A5FA" stroke-width="3" stroke-dasharray="10 10"/>
<path d="M449.199 131.115L264.866 364.417" stroke="#60A5FA" stroke-width="3" stroke-dasharray="10 10"/>
<path d="M667.236 131.115L851.914 363.899" stroke="#60A5FA" stroke-width="3" stroke-dasharray="10 10"/>
<path d="M557.813 324.285L264.326 366.574" stroke="#60A5FA" stroke-width="3" stroke-dasharray="10 10"/>
<path d="M554.934 324.285L851.854 363.959" stroke="#60A5FA" stroke-width="3" stroke-dasharray="10 10"/>
<path d="M666.823 263.452L555.98 327.447L445.136 263.452" stroke="#D4D4D8" stroke-width="3" stroke-dasharray="10 10"/>
<path d="M445.136 156.078V261.72" stroke="#D4D4D8" stroke-width="3" stroke-dasharray="10 10"/>
<path d="M666.877 156.078V261.72" stroke="#D4D4D8" stroke-width="3" stroke-dasharray="10 10"/>
<rect x="859.112" y="308.852" width="112.26" height="111.149" rx="55.5744" fill="#FAFAFA"/>
<path fill-rule="evenodd" clip-rule="evenodd" d="M915.099 342.965C910.801 342.965 907.337 346.407 907.337 350.631C907.337 354.854 910.801 358.297 915.099 358.297C919.396 358.297 922.861 354.854 922.861 350.631C922.861 346.407 919.396 342.965 915.099 342.965ZM905.337 350.631C905.337 345.282 909.718 340.965 915.099 340.965C920.48 340.965 924.861 345.282 924.861 350.631C924.861 354.323 922.774 357.523 919.711 359.152C922.451 360.209 924.73 362.182 926.162 364.69C926.172 364.707 926.181 364.723 926.189 364.74H939.009C939.285 364.74 939.509 364.964 939.509 365.24V387.889C939.509 388.165 939.285 388.389 939.009 388.389H891.476C891.2 388.389 890.976 388.165 890.976 387.889V365.24C890.976 364.964 891.2 364.74 891.476 364.74H904.011C904.025 364.709 904.041 364.678 904.059 364.647C905.493 362.159 907.761 360.203 910.486 359.151C907.424 357.523 905.337 354.322 905.337 350.631ZM906.377 364.74H923.819C921.879 362.051 918.698 360.297 915.098 360.297C911.499 360.297 908.317 362.051 906.377 364.74ZM917.802 369.5C918.321 369.687 918.591 370.26 918.404 370.78L914 383.026C913.813 383.546 913.24 383.815 912.72 383.629C912.2 383.442 911.931 382.869 912.118 382.349L916.522 370.103C916.709 369.583 917.282 369.313 917.802 369.5ZM910.404 372.447C910.797 372.835 910.8 373.469 910.412 373.861L908.086 376.213C907.893 376.408 907.893 376.722 908.086 376.917L910.412 379.269C910.8 379.661 910.797 380.294 910.404 380.683C910.012 381.071 909.378 381.068 908.99 380.675L905.62 377.268C905.235 376.879 905.235 376.251 905.62 375.862L908.99 372.455C909.378 372.062 910.012 372.059 910.404 372.447ZM921.531 372.455C921.143 372.062 920.51 372.059 920.117 372.447C919.725 372.835 919.721 373.469 920.109 373.861L922.436 376.213C922.628 376.408 922.628 376.722 922.436 376.917L920.109 379.269C919.721 379.661 919.725 380.294 920.117 380.683C920.51 381.071 921.143 381.068 921.531 380.675L924.901 377.268C925.286 376.879 925.286 376.251 924.901 375.862L921.531 372.455Z" fill="#2563EB"/>
<circle cx="915.499" cy="364.385" r="55.5446" stroke="#2563EB" stroke-width="2"/>
<ellipse cx="895.943" cy="312.281" rx="4.7728" ry="4.7728" fill="#2563EB"/>
<ellipse cx="859.955" cy="364.899" rx="4.7728" ry="4.7728" fill="#2563EB"/>
<ellipse cx="946.816" cy="410.368" rx="4.7728" ry="4.7728" fill="#2563EB"/>
<ellipse cx="970.408" cy="355.082" rx="4.7728" ry="4.7728" fill="#2563EB"/>
<rect x="148.749" y="308.37" width="112.26" height="111.149" rx="55.5744" fill="#FAFAFA"/>
<path fill-rule="evenodd" clip-rule="evenodd" d="M204.736 342.482C200.438 342.482 196.973 345.925 196.973 350.148C196.973 354.372 200.438 357.814 204.736 357.814C209.033 357.814 212.498 354.372 212.498 350.148C212.498 345.925 209.033 342.482 204.736 342.482ZM194.973 350.148C194.973 344.799 199.355 340.482 204.736 340.482C210.117 340.482 214.498 344.799 214.498 350.148C214.498 353.84 212.411 357.041 209.348 358.669C212.088 359.727 214.367 361.699 215.799 364.208C215.809 364.224 215.818 364.241 215.826 364.258H228.646C228.922 364.258 229.146 364.481 229.146 364.758V387.406C229.146 387.682 228.922 387.906 228.646 387.906H181.113C180.837 387.906 180.613 387.682 180.613 387.406V364.758C180.613 364.481 180.837 364.258 181.113 364.258H193.648C193.662 364.226 193.678 364.195 193.696 364.165C195.13 361.676 197.398 359.72 200.123 358.669C197.061 357.04 194.973 353.84 194.973 350.148ZM196.014 364.258H213.456C211.516 361.569 208.335 359.814 204.735 359.814C201.136 359.814 197.954 361.569 196.014 364.258ZM207.439 369.018C207.958 369.205 208.228 369.777 208.041 370.297L203.637 382.544C203.45 383.063 202.877 383.333 202.357 383.146C201.837 382.959 201.568 382.386 201.755 381.867L206.159 369.62C206.346 369.101 206.919 368.831 207.439 369.018ZM200.041 371.965C200.434 372.353 200.437 372.986 200.049 373.379L197.723 375.731C197.53 375.926 197.53 376.239 197.723 376.434L200.049 378.786C200.437 379.179 200.434 379.812 200.041 380.2C199.649 380.589 199.015 380.585 198.627 380.193L195.257 376.786C194.872 376.396 194.872 375.769 195.257 375.379L198.627 371.972C199.015 371.58 199.649 371.576 200.041 371.965ZM211.168 371.972C210.78 371.58 210.147 371.576 209.754 371.965C209.361 372.353 209.358 372.986 209.746 373.379L212.073 375.731C212.265 375.926 212.265 376.239 212.073 376.434L209.746 378.786C209.358 379.179 209.361 379.812 209.754 380.2C210.147 380.589 210.78 380.585 211.168 380.193L214.538 376.786C214.923 376.396 214.923 375.769 214.538 375.379L211.168 371.972Z" fill="#2563EB"/>
<circle cx="205.137" cy="363.904" r="55.5446" stroke="#60A5FA" stroke-width="2"/>
<ellipse cx="185.58" cy="311.811" rx="4.7728" ry="4.7728" fill="#60A5FA"/>
<ellipse cx="149.592" cy="364.419" rx="4.7728" ry="4.7728" fill="#60A5FA"/>
<ellipse cx="236.453" cy="409.888" rx="4.7728" ry="4.7728" fill="#60A5FA"/>
<ellipse cx="260.045" cy="354.602" rx="4.7728" ry="4.7728" fill="#60A5FA"/>
<circle cx="555.98" cy="69.5376" r="9.53869" fill="#3B82F6"/>
<circle cx="666.671" cy="133.807" r="9.53869" fill="#3B82F6"/>
<circle cx="445.341" cy="133.807" r="9.53869" fill="#3B82F6"/>
<circle cx="666.671" cy="265.251" r="9.53869" fill="#3B82F6"/>
<circle cx="445.341" cy="265.251" r="9.53869" fill="#3B82F6"/>
<circle cx="555.98" cy="199.36" r="9.53869" fill="#3B82F6"/>
<circle cx="555.98" cy="327.446" r="9.53869" fill="#3B82F6"/>
<defs>
<linearGradient id="paint0_linear_909_110892" x1="666.385" y1="260.094" x2="854.644" y2="368.269" gradientUnits="userSpaceOnUse">
<stop stop-color="#DBEAFE"/>
<stop offset="1" stop-color="#FAFAFA" stop-opacity="0"/>
</linearGradient>
<linearGradient id="paint1_linear_909_110892" x1="445" y1="260.094" x2="256.741" y2="368.269" gradientUnits="userSpaceOnUse">
<stop stop-color="#DBEAFE"/>
<stop offset="1" stop-color="#FAFAFA" stop-opacity="0"/>
</linearGradient>
</defs>
</svg>
