<svg width="704" height="380" viewBox="0 0 704 380" fill="none" xmlns="http://www.w3.org/2000/svg">
<rect width="704" height="380" fill="#0F0F11"/>
<path d="M580.853 287.218L435.943 104.769V207.307L352.246 256.95L580.853 287.218Z" fill="url(#paint0_linear_2490_152762)"/>
<path d="M115.475 293.38L261.313 109.824L261.313 207.306L345.01 256.948L115.475 293.38Z" fill="url(#paint1_linear_2490_152762)"/>
<path d="M435.621 106.661L348.853 56.5654L262.086 106.661" stroke="#3F3F46" stroke-width="3" stroke-dasharray="10 10"/>
<path d="M129.182 78.8809L274.684 330.899" stroke="#3F3F46" stroke-width="3" stroke-dasharray="6 6"/>
<path d="M559.576 78.8809L414.073 330.899" stroke="#3F3F46" stroke-width="3" stroke-dasharray="10 10"/>
<path d="M435.502 106.874L115.412 290.952" stroke="#3B82F6" stroke-width="3" stroke-dasharray="10 10"/>
<path d="M262.245 106.874L581.486 287.607" stroke="#3B82F6" stroke-width="3" stroke-dasharray="10 10"/>
<path d="M265.265 104.769L120.971 287.395" stroke="#3B82F6" stroke-width="3" stroke-dasharray="10 10"/>
<path d="M435.943 104.769L580.508 286.99" stroke="#3B82F6" stroke-width="3" stroke-dasharray="10 10"/>
<path d="M350.287 255.979L120.549 289.082" stroke="#3B82F6" stroke-width="3" stroke-dasharray="10 10"/>
<path d="M348.033 255.979L580.46 287.035" stroke="#3B82F6" stroke-width="3" stroke-dasharray="10 10"/>
<path d="M435.621 208.358L348.853 258.453L262.086 208.358" stroke="#3F3F46" stroke-width="3" stroke-dasharray="10 10"/>
<path d="M262.086 124.308V207.003" stroke="#3F3F46" stroke-width="3" stroke-dasharray="10 10"/>
<path d="M435.662 124.308V207.003" stroke="#3F3F46" stroke-width="3" stroke-dasharray="10 10"/>
<rect x="586.143" y="243.895" width="87.8764" height="87.0063" rx="43.5031" fill="#0F0F11"/>
<path fill-rule="evenodd" clip-rule="evenodd" d="M629.973 271.551C626.885 271.551 624.401 274.023 624.401 277.05C624.401 280.077 626.885 282.55 629.973 282.55C633.061 282.55 635.545 280.077 635.545 277.05C635.545 274.023 633.061 271.551 629.973 271.551ZM622.401 277.05C622.401 272.898 625.802 269.551 629.973 269.551C634.144 269.551 637.545 272.898 637.545 277.05C637.545 279.733 636.125 282.08 633.995 283.405C635.893 284.254 637.469 285.686 638.488 287.471C638.518 287.524 638.542 287.577 638.562 287.632H647.781C648.057 287.632 648.281 287.856 648.281 288.132V304.869C648.281 305.145 648.057 305.369 647.781 305.369H612.381C612.105 305.369 611.881 305.145 611.881 304.869V288.132C611.881 287.856 612.105 287.632 612.381 287.632H621.39C621.412 287.566 621.44 287.501 621.476 287.438C622.496 285.668 624.064 284.249 625.95 283.405C623.821 282.08 622.401 279.733 622.401 277.05ZM623.743 287.632H636.202C634.785 285.762 632.523 284.55 629.973 284.55C627.422 284.55 625.161 285.762 623.743 287.632ZM632.085 290.967C632.605 291.154 632.874 291.727 632.687 292.247L629.384 301.431C629.197 301.951 628.624 302.221 628.104 302.034C627.585 301.847 627.315 301.274 627.502 300.755L630.805 291.57C630.992 291.05 631.565 290.78 632.085 290.967ZM626.628 293.235C627.021 293.623 627.024 294.256 626.636 294.649L625.152 296.149C624.959 296.344 624.959 296.658 625.152 296.853L626.636 298.353C627.024 298.746 627.021 299.379 626.628 299.767C626.235 300.156 625.602 300.152 625.214 299.759L622.687 297.204C622.301 296.815 622.301 296.187 622.687 295.798L625.214 293.243C625.602 292.85 626.235 292.847 626.628 293.235ZM634.975 293.243C634.587 292.85 633.954 292.847 633.561 293.235C633.168 293.623 633.165 294.256 633.553 294.649L635.037 296.149C635.23 296.344 635.23 296.658 635.037 296.853L633.553 298.353C633.165 298.746 633.168 299.379 633.561 299.767C633.954 300.156 634.587 300.152 634.975 299.759L637.503 297.204C637.888 296.815 637.888 296.187 637.503 295.798L634.975 293.243Z" fill="#60A5FA"/>
<circle cx="630.283" cy="287.368" r="43.4798" stroke="#60A5FA" stroke-width="2"/>
<ellipse cx="614.974" cy="246.58" rx="3.7361" ry="3.7361" fill="#60A5FA"/>
<ellipse cx="586.802" cy="287.77" rx="3.7361" ry="3.7361" fill="#60A5FA"/>
<ellipse cx="654.797" cy="323.362" rx="3.7361" ry="3.7361" fill="#60A5FA"/>
<ellipse cx="673.263" cy="280.085" rx="3.7361" ry="3.7361" fill="#60A5FA"/>
<rect x="30.0762" y="243.523" width="87.8764" height="87.0063" rx="43.5031" fill="#0F0F11"/>
<path fill-rule="evenodd" clip-rule="evenodd" d="M73.9067 271.18C70.8191 271.18 68.335 273.652 68.335 276.679C68.335 279.706 70.8191 282.179 73.9067 282.179C76.9943 282.179 79.4784 279.706 79.4784 276.679C79.4784 273.652 76.9943 271.18 73.9067 271.18ZM66.335 276.679C66.335 272.527 69.7354 269.18 73.9067 269.18C78.078 269.18 81.4784 272.527 81.4784 276.679C81.4784 279.362 80.0589 281.709 77.9291 283.034C79.8267 283.883 81.4021 285.315 82.4215 287.1C82.4514 287.152 82.4761 287.206 82.4956 287.261H91.7145C91.9906 287.261 92.2145 287.485 92.2145 287.761V304.498C92.2145 304.774 91.9906 304.998 91.7145 304.998H56.3145C56.0383 304.998 55.8145 304.774 55.8145 304.498V287.761C55.8145 287.485 56.0383 287.261 56.3145 287.261H65.3238C65.3451 287.195 65.3737 287.13 65.41 287.067C66.43 285.297 67.9978 283.878 69.8839 283.034C67.7543 281.708 66.335 279.362 66.335 276.679ZM67.6764 287.261H80.136C78.7182 285.391 76.4569 284.179 73.9062 284.179C71.3555 284.179 69.0942 285.391 67.6764 287.261ZM76.0185 290.596C76.5382 290.783 76.808 291.356 76.621 291.876L73.3175 301.06C73.1306 301.58 72.5578 301.85 72.0381 301.663C71.5184 301.476 71.2486 300.903 71.4355 300.383L74.7391 291.199C74.926 290.679 75.4988 290.409 76.0185 290.596ZM70.5616 292.864C70.9543 293.252 70.9577 293.885 70.5693 294.278L69.0854 295.778C68.8927 295.973 68.8927 296.287 69.0854 296.482L70.5693 297.982C70.9577 298.375 70.9543 299.008 70.5616 299.396C70.1689 299.784 69.5358 299.781 69.1474 299.388L66.6201 296.833C66.2347 296.444 66.2347 295.816 66.6201 295.427L69.1474 292.872C69.5358 292.479 70.1689 292.475 70.5616 292.864ZM78.9089 292.872C78.5205 292.479 77.8873 292.475 77.4947 292.864C77.102 293.252 77.0985 293.885 77.4869 294.278L78.9709 295.778C79.1635 295.973 79.1635 296.287 78.9709 296.482L77.4869 297.982C77.0985 298.375 77.102 299.008 77.4947 299.396C77.8873 299.784 78.5205 299.781 78.9089 299.388L81.4361 296.833C81.8215 296.444 81.8215 295.816 81.4361 295.427L78.9089 292.872Z" fill="#60A5FA"/>
<circle cx="74.2162" cy="286.994" r="43.4798" stroke="#60A5FA" stroke-width="2"/>
<ellipse cx="58.908" cy="246.216" rx="3.7361" ry="3.7361" fill="#60A5FA"/>
<ellipse cx="30.7361" cy="287.397" rx="3.7361" ry="3.7361" fill="#60A5FA"/>
<ellipse cx="98.7302" cy="322.989" rx="3.7361" ry="3.7361" fill="#60A5FA"/>
<ellipse cx="117.199" cy="279.713" rx="3.7361" ry="3.7361" fill="#60A5FA"/>
<ellipse cx="348.854" cy="56.5645" rx="7.46681" ry="7.46681" fill="#1E40AF"/>
<ellipse cx="435.502" cy="106.873" rx="7.46681" ry="7.46681" fill="#1E40AF"/>
<ellipse cx="262.246" cy="106.873" rx="7.46681" ry="7.46681" fill="#1E40AF"/>
<ellipse cx="435.502" cy="209.767" rx="7.46681" ry="7.46681" fill="#1E40AF"/>
<ellipse cx="262.246" cy="209.767" rx="7.46681" ry="7.46681" fill="#1E40AF"/>
<ellipse cx="348.854" cy="158.188" rx="7.46681" ry="7.46681" fill="#1E40AF"/>
<ellipse cx="348.854" cy="258.453" rx="7.46681" ry="7.46681" fill="#1E40AF"/>
<defs>
<linearGradient id="paint0_linear_2490_152762" x1="435.277" y1="205.732" x2="582.644" y2="290.41" gradientUnits="userSpaceOnUse">
<stop stop-color="#091842"/>
<stop offset="1" stop-color="#091842" stop-opacity="0"/>
</linearGradient>
<linearGradient id="paint1_linear_2490_152762" x1="261.979" y1="205.73" x2="114.611" y2="290.409" gradientUnits="userSpaceOnUse">
<stop stop-color="#091842"/>
<stop offset="1" stop-color="#091842" stop-opacity="0"/>
</linearGradient>
</defs>
</svg>
