<svg width="704" height="380" viewBox="0 0 704 380" fill="none" xmlns="http://www.w3.org/2000/svg">
<rect width="704" height="380" fill="#FAFAFA"/>
<path d="M580.853 287.218L435.943 104.769V207.307L352.247 256.95L580.853 287.218Z" fill="url(#paint0_linear_2490_151262)"/>
<path d="M115.475 293.38L261.314 109.824L261.314 207.306L345.01 256.948L115.475 293.38Z" fill="url(#paint1_linear_2490_151262)"/>
<path d="M435.621 106.661L348.853 56.5654L262.086 106.661" stroke="#D4D4D8" stroke-width="3" stroke-dasharray="10 10"/>
<path d="M129.183 78.8809L274.685 330.899" stroke="#D4D4D8" stroke-width="3" stroke-dasharray="6 6"/>
<path d="M559.577 78.8809L414.074 330.899" stroke="#D4D4D8" stroke-width="3" stroke-dasharray="10 10"/>
<path d="M435.501 106.874L115.411 290.952" stroke="#60A5FA" stroke-width="3" stroke-dasharray="10 10"/>
<path d="M262.246 106.874L581.487 287.607" stroke="#60A5FA" stroke-width="3" stroke-dasharray="10 10"/>
<path d="M265.266 104.769L120.971 287.395" stroke="#60A5FA" stroke-width="3" stroke-dasharray="10 10"/>
<path d="M435.943 104.769L580.508 286.99" stroke="#60A5FA" stroke-width="3" stroke-dasharray="10 10"/>
<path d="M350.288 255.979L120.549 289.082" stroke="#60A5FA" stroke-width="3" stroke-dasharray="10 10"/>
<path d="M348.034 255.979L580.461 287.035" stroke="#60A5FA" stroke-width="3" stroke-dasharray="10 10"/>
<path d="M435.621 208.358L348.853 258.453L262.086 208.358" stroke="#D4D4D8" stroke-width="3" stroke-dasharray="10 10"/>
<path d="M262.086 124.308V207.003" stroke="#D4D4D8" stroke-width="3" stroke-dasharray="10 10"/>
<path d="M435.662 124.308V207.003" stroke="#D4D4D8" stroke-width="3" stroke-dasharray="10 10"/>
<rect x="586.142" y="243.895" width="87.8764" height="87.0063" rx="43.5031" fill="#FAFAFA"/>
<path fill-rule="evenodd" clip-rule="evenodd" d="M629.973 271.551C626.885 271.551 624.401 274.023 624.401 277.05C624.401 280.077 626.885 282.55 629.973 282.55C633.06 282.55 635.545 280.077 635.545 277.05C635.545 274.023 633.06 271.551 629.973 271.551ZM622.401 277.05C622.401 272.898 625.802 269.551 629.973 269.551C634.144 269.551 637.545 272.898 637.545 277.05C637.545 279.733 636.125 282.08 633.995 283.405C635.893 284.254 637.468 285.686 638.488 287.471C638.518 287.524 638.542 287.577 638.562 287.632H647.781C648.057 287.632 648.281 287.856 648.281 288.132V304.869C648.281 305.145 648.057 305.369 647.781 305.369H612.381C612.104 305.369 611.881 305.145 611.881 304.869V288.132C611.881 287.856 612.104 287.632 612.381 287.632H621.39C621.411 287.566 621.44 287.501 621.476 287.438C622.496 285.668 624.064 284.249 625.95 283.405C623.82 282.08 622.401 279.733 622.401 277.05ZM623.743 287.632H636.202C634.784 285.762 632.523 284.55 629.972 284.55C627.422 284.55 625.16 285.762 623.743 287.632ZM632.085 290.967C632.604 291.154 632.874 291.727 632.687 292.247L629.384 301.431C629.197 301.951 628.624 302.221 628.104 302.034C627.585 301.847 627.315 301.274 627.502 300.755L630.805 291.57C630.992 291.05 631.565 290.78 632.085 290.967ZM626.628 293.235C627.02 293.623 627.024 294.256 626.636 294.649L625.152 296.149C624.959 296.344 624.959 296.658 625.152 296.853L626.636 298.353C627.024 298.746 627.02 299.379 626.628 299.767C626.235 300.156 625.602 300.152 625.214 299.759L622.686 297.204C622.301 296.815 622.301 296.187 622.686 295.798L625.214 293.243C625.602 292.85 626.235 292.847 626.628 293.235ZM634.975 293.243C634.587 292.85 633.953 292.847 633.561 293.235C633.168 293.623 633.165 294.256 633.553 294.649L635.037 296.149C635.23 296.344 635.23 296.658 635.037 296.853L633.553 298.353C633.165 298.746 633.168 299.379 633.561 299.767C633.953 300.156 634.587 300.152 634.975 299.759L637.502 297.204C637.888 296.815 637.888 296.187 637.502 295.798L634.975 293.243Z" fill="#2563EB"/>
<circle cx="630.282" cy="287.368" r="43.4798" stroke="#2563EB" stroke-width="2"/>
<ellipse cx="614.973" cy="246.58" rx="3.7361" ry="3.7361" fill="#2563EB"/>
<ellipse cx="586.802" cy="287.77" rx="3.7361" ry="3.7361" fill="#2563EB"/>
<ellipse cx="654.796" cy="323.362" rx="3.7361" ry="3.7361" fill="#2563EB"/>
<ellipse cx="673.264" cy="280.085" rx="3.7361" ry="3.7361" fill="#2563EB"/>
<rect x="30.0764" y="243.523" width="87.8764" height="87.0063" rx="43.5031" fill="#FAFAFA"/>
<path fill-rule="evenodd" clip-rule="evenodd" d="M73.9069 271.18C70.8193 271.18 68.3352 273.652 68.3352 276.679C68.3352 279.706 70.8193 282.179 73.9069 282.179C76.9946 282.179 79.4787 279.706 79.4787 276.679C79.4787 273.652 76.9946 271.18 73.9069 271.18ZM66.3352 276.679C66.3352 272.527 69.7356 269.18 73.9069 269.18C78.0782 269.18 81.4787 272.527 81.4787 276.679C81.4787 279.362 80.0591 281.709 77.9293 283.034C79.827 283.883 81.4023 285.315 82.4217 287.1C82.4516 287.152 82.4763 287.206 82.4959 287.261H91.7147C91.9908 287.261 92.2147 287.485 92.2147 287.761V304.498C92.2147 304.774 91.9908 304.998 91.7147 304.998H56.3147C56.0386 304.998 55.8147 304.774 55.8147 304.498V287.761C55.8147 287.485 56.0386 287.261 56.3147 287.261H65.324C65.3454 287.195 65.374 287.13 65.4102 287.067C66.4302 285.297 67.998 283.878 69.8842 283.034C67.7546 281.708 66.3352 279.362 66.3352 276.679ZM67.6767 287.261H80.1362C78.7185 285.391 76.4571 284.179 73.9064 284.179C71.3558 284.179 69.0944 285.391 67.6767 287.261ZM76.0187 290.596C76.5384 290.783 76.8082 291.356 76.6213 291.876L73.3178 301.06C73.1308 301.58 72.558 301.85 72.0383 301.663C71.5186 301.476 71.2489 300.903 71.4358 300.383L74.7393 291.199C74.9262 290.679 75.499 290.409 76.0187 290.596ZM70.5618 292.864C70.9545 293.252 70.958 293.885 70.5696 294.278L69.0856 295.778C68.8929 295.973 68.8929 296.287 69.0856 296.482L70.5696 297.982C70.958 298.375 70.9545 299.008 70.5618 299.396C70.1692 299.784 69.536 299.781 69.1476 299.388L66.6204 296.833C66.235 296.444 66.235 295.816 66.6204 295.427L69.1476 292.872C69.536 292.479 70.1692 292.475 70.5618 292.864ZM78.9091 292.872C78.5207 292.479 77.8876 292.475 77.4949 292.864C77.1022 293.252 77.0988 293.885 77.4872 294.278L78.9711 295.778C79.1638 295.973 79.1638 296.287 78.9711 296.482L77.4872 297.982C77.0988 298.375 77.1022 299.008 77.4949 299.396C77.8876 299.784 78.5207 299.781 78.9091 299.388L81.4364 296.833C81.8218 296.444 81.8218 295.816 81.4364 295.427L78.9091 292.872Z" fill="#2563EB"/>
<circle cx="74.2159" cy="286.994" r="43.4798" stroke="#2563EB" stroke-width="2"/>
<ellipse cx="58.9072" cy="246.216" rx="3.7361" ry="3.7361" fill="#2563EB"/>
<ellipse cx="30.7361" cy="287.397" rx="3.7361" ry="3.7361" fill="#2563EB"/>
<ellipse cx="98.7302" cy="322.989" rx="3.7361" ry="3.7361" fill="#2563EB"/>
<ellipse cx="117.198" cy="279.713" rx="3.7361" ry="3.7361" fill="#2563EB"/>
<ellipse cx="348.853" cy="56.5645" rx="7.46681" ry="7.46681" fill="#2563EB"/>
<ellipse cx="435.501" cy="106.873" rx="7.46681" ry="7.46681" fill="#2563EB"/>
<ellipse cx="262.246" cy="106.873" rx="7.46681" ry="7.46681" fill="#2563EB"/>
<ellipse cx="435.501" cy="209.767" rx="7.46681" ry="7.46681" fill="#2563EB"/>
<ellipse cx="262.246" cy="209.767" rx="7.46681" ry="7.46681" fill="#2563EB"/>
<ellipse cx="348.853" cy="158.188" rx="7.46681" ry="7.46681" fill="#2563EB"/>
<ellipse cx="348.853" cy="258.453" rx="7.46681" ry="7.46681" fill="#2563EB"/>
<defs>
<linearGradient id="paint0_linear_2490_151262" x1="435.277" y1="205.732" x2="582.645" y2="290.41" gradientUnits="userSpaceOnUse">
<stop stop-color="#DBEAFE"/>
<stop offset="1" stop-color="#DBEAFE" stop-opacity="0"/>
</linearGradient>
<linearGradient id="paint1_linear_2490_151262" x1="261.979" y1="205.73" x2="114.612" y2="290.409" gradientUnits="userSpaceOnUse">
<stop stop-color="#DBEAFE"/>
<stop offset="1" stop-color="#DBEAFE" stop-opacity="0"/>
</linearGradient>
</defs>
</svg>
