<svg width="280" height="161" viewBox="0 0 280 161" fill="none" xmlns="http://www.w3.org/2000/svg">
<rect width="280" height="160" transform="translate(0 0.5)" fill="#0F0F11"/>
<path d="M209.211 115L157.788 50.2568V86.6434L128.088 104.259L209.211 115Z" fill="url(#paint0_linear_926_96346)"/>
<path d="M44.0675 117.187L95.8193 52.0508L95.8193 86.6428L125.52 104.259L44.0675 117.187Z" fill="url(#paint1_linear_926_96346)"/>
<path d="M157.674 50.9289L126.884 33.1523L96.0938 50.9289" stroke="#3F3F46" stroke-dasharray="4 4"/>
<path d="M48.9316 41.0693L100.564 130.5" stroke="#3F3F46" stroke-dasharray="4 4"/>
<path d="M201.66 41.0693L150.027 130.5" stroke="#3F3F46" stroke-dasharray="4 4"/>
<path d="M157.631 51.0029L44.0449 116.324" stroke="#3B82F6" stroke-dasharray="4 4"/>
<path d="M96.1506 51.0029L209.436 115.137" stroke="#3B82F6" stroke-dasharray="4 4"/>
<path d="M97.2213 50.2568L46.0176 115.063" stroke="#3B82F6" stroke-dasharray="4 4"/>
<path d="M157.787 50.2568L209.087 114.919" stroke="#3B82F6" stroke-dasharray="4 4"/>
<path d="M127.393 103.913L45.8691 115.66" stroke="#3B82F6" stroke-dasharray="4 4"/>
<path d="M126.594 103.913L209.072 114.934" stroke="#3B82F6" stroke-dasharray="4 4"/>
<path d="M157.674 87.0154L126.884 104.792L96.0938 87.0154" stroke="#3F3F46" stroke-dasharray="4 4"/>
<path d="M96.0938 57.1904V86.5355" stroke="#3F3F46" stroke-dasharray="4 4"/>
<path d="M157.688 57.1904V86.5355" stroke="#3F3F46" stroke-dasharray="4 4"/>
<rect x="211.088" y="99.625" width="31.1835" height="30.8748" rx="15.4374" fill="#0F0F11"/>
<path fill-rule="evenodd" clip-rule="evenodd" d="M226.631 107.825C225.153 107.825 223.96 109.009 223.96 110.464C223.96 111.919 225.153 113.103 226.631 113.103C228.108 113.103 229.302 111.919 229.302 110.464C229.302 109.009 228.108 107.825 226.631 107.825ZM223.46 110.464C223.46 108.728 224.882 107.325 226.631 107.325C228.379 107.325 229.802 108.728 229.802 110.464C229.802 111.731 229.044 112.82 227.955 113.316C228.923 113.639 229.731 114.304 230.232 115.167H234.268C234.544 115.167 234.768 115.391 234.768 115.667V122.55C234.768 122.826 234.544 123.05 234.268 123.05H219.09C218.814 123.05 218.59 122.826 218.59 122.55V115.667C218.59 115.391 218.814 115.167 219.09 115.167H223.029C223.53 114.304 224.338 113.638 225.306 113.316C224.217 112.82 223.46 111.731 223.46 110.464ZM223.622 115.167H229.64C228.982 114.222 227.88 113.603 226.631 113.603C225.382 113.603 224.28 114.222 223.622 115.167ZM227.504 116.832C227.634 116.879 227.701 117.022 227.654 117.152L226.186 121.234C226.139 121.364 225.996 121.431 225.866 121.385C225.736 121.338 225.669 121.195 225.716 121.065L227.184 116.983C227.23 116.853 227.374 116.785 227.504 116.832ZM225.007 117.795C225.106 117.892 225.106 118.051 225.009 118.149L224.408 118.757C224.215 118.952 224.215 119.265 224.408 119.46L225.009 120.068C225.106 120.167 225.106 120.325 225.007 120.422C224.909 120.519 224.751 120.518 224.654 120.42L223.531 119.284C223.434 119.187 223.434 119.03 223.531 118.933L224.654 117.797C224.751 117.699 224.909 117.698 225.007 117.795ZM228.716 117.797C228.619 117.699 228.46 117.698 228.362 117.795C228.264 117.892 228.263 118.051 228.36 118.149L228.962 118.757C229.155 118.952 229.155 119.265 228.962 119.46L228.36 120.068C228.263 120.167 228.264 120.325 228.362 120.422C228.46 120.519 228.619 120.518 228.716 120.42L229.839 119.284C229.935 119.187 229.935 119.03 229.839 118.933L228.716 117.797Z" fill="#60A5FA"/>
<circle cx="226.751" cy="115.052" r="15.4291" stroke="#60A5FA" stroke-width="0.5"/>
<ellipse cx="221.318" cy="100.579" rx="1.32578" ry="1.32578" fill="#60A5FA"/>
<ellipse cx="211.322" cy="115.196" rx="1.32578" ry="1.32578" fill="#60A5FA"/>
<ellipse cx="235.451" cy="127.827" rx="1.32578" ry="1.32578" fill="#60A5FA"/>
<ellipse cx="242.004" cy="112.467" rx="1.32578" ry="1.32578" fill="#60A5FA"/>
<rect x="13.7637" y="99.625" width="31.1835" height="30.8748" rx="15.4374" fill="#0F0F11"/>
<path fill-rule="evenodd" clip-rule="evenodd" d="M29.3066 107.825C27.829 107.825 26.6359 109.009 26.6359 110.464C26.6359 111.919 27.829 113.103 29.3066 113.103C30.7843 113.103 31.9774 111.919 31.9774 110.464C31.9774 109.009 30.7843 107.825 29.3066 107.825ZM26.1359 110.464C26.1359 108.728 27.5581 107.325 29.3066 107.325C31.0552 107.325 32.4774 108.728 32.4774 110.464C32.4774 111.731 31.7201 112.82 30.6312 113.316C31.5987 113.639 32.407 114.304 32.9078 115.167H36.9434C37.2195 115.167 37.4434 115.391 37.4434 115.667V122.55C37.4434 122.826 37.2195 123.05 36.9434 123.05H21.7656C21.4895 123.05 21.2656 122.826 21.2656 122.55V115.667C21.2656 115.391 21.4895 115.167 21.7656 115.167H25.705C26.2058 114.304 27.0142 113.638 27.9818 113.316C26.8931 112.82 26.1359 111.731 26.1359 110.464ZM26.2973 115.167H32.3155C31.6574 114.222 30.5555 113.603 29.3064 113.603C28.0573 113.603 26.9554 114.222 26.2973 115.167ZM30.1794 116.832C30.3093 116.879 30.3768 117.022 30.33 117.152L28.8618 121.234C28.8151 121.364 28.6719 121.431 28.5419 121.385C28.412 121.338 28.3446 121.195 28.3913 121.065L29.8595 116.983C29.9063 116.853 30.0495 116.785 30.1794 116.832ZM27.6832 117.795C27.7813 117.892 27.7822 118.051 27.6851 118.149L27.0835 118.757C26.8909 118.952 26.8909 119.265 27.0835 119.46L27.6851 120.068C27.7822 120.167 27.7813 120.325 27.6832 120.422C27.585 120.519 27.4267 120.518 27.3296 120.42L26.2064 119.284C26.11 119.187 26.11 119.03 26.2064 118.933L27.3296 117.797C27.4267 117.699 27.585 117.698 27.6832 117.795ZM31.3916 117.797C31.2945 117.699 31.1362 117.698 31.038 117.795C30.9398 117.892 30.939 118.051 31.0361 118.149L31.6376 118.757C31.8303 118.952 31.8303 119.265 31.6376 119.46L31.0361 120.068C30.939 120.167 30.9398 120.325 31.038 120.422C31.1362 120.519 31.2945 120.518 31.3916 120.42L32.5148 119.284C32.6111 119.187 32.6111 119.03 32.5148 118.933L31.3916 117.797Z" fill="#60A5FA"/>
<circle cx="29.4272" cy="115.052" r="15.4291" stroke="#60A5FA" stroke-width="0.5"/>
<ellipse cx="23.9938" cy="100.579" rx="1.32578" ry="1.32578" fill="#60A5FA"/>
<ellipse cx="13.9977" cy="115.196" rx="1.32578" ry="1.32578" fill="#60A5FA"/>
<ellipse cx="38.1266" cy="127.827" rx="1.32578" ry="1.32578" fill="#60A5FA"/>
<ellipse cx="44.6793" cy="112.467" rx="1.32578" ry="1.32578" fill="#60A5FA"/>
<ellipse cx="126.884" cy="33.1506" rx="2.64965" ry="2.64965" fill="#1D4ED8"/>
<ellipse cx="157.632" cy="51.0032" rx="2.64965" ry="2.64965" fill="#1D4ED8"/>
<ellipse cx="96.1497" cy="51.0032" rx="2.64965" ry="2.64965" fill="#1D4ED8"/>
<ellipse cx="157.632" cy="87.5159" rx="2.64965" ry="2.64965" fill="#1D4ED8"/>
<ellipse cx="96.1497" cy="87.5159" rx="2.64965" ry="2.64965" fill="#1D4ED8"/>
<ellipse cx="126.884" cy="69.2131" rx="2.64965" ry="2.64965" fill="#1D4ED8"/>
<ellipse cx="126.884" cy="104.792" rx="2.64965" ry="2.64965" fill="#1D4ED8"/>
<defs>
<linearGradient id="paint0_linear_926_96346" x1="157.552" y1="86.0844" x2="209.846" y2="116.133" gradientUnits="userSpaceOnUse">
<stop stop-color="#091842"/>
<stop offset="1" stop-color="#091842" stop-opacity="0"/>
</linearGradient>
<linearGradient id="paint1_linear_926_96346" x1="96.0555" y1="86.0837" x2="43.7611" y2="116.132" gradientUnits="userSpaceOnUse">
<stop stop-color="#091842"/>
<stop offset="1" stop-color="#091842" stop-opacity="0"/>
</linearGradient>
</defs>
</svg>
