<svg width="90" height="84" viewBox="0 0 90 84" fill="none" xmlns="http://www.w3.org/2000/svg">
<g id="Badge" clip-path="url(#clip0_3273_17808)">
<g id="Group">
<path id="Vector" d="M7.4 29.2C12.8 13.3 27.8 1.8 45.5 1.8C63.2 1.8 78.3 13.3 83.6 29.2H85.5C80.1 12.3 64.2 0 45.5 0C26.8 0 11 12.3 5.5 29.2H7.4Z" fill="#60A5FA"/>
<path id="Vector_2" d="M83.6 54.8999C78.2 70.7999 63.2 82.1999 45.5 82.1999C27.8 82.1999 12.8 70.7999 7.4 54.8999H5.5C11 71.6999 26.8 83.9999 45.4 83.9999C64 83.9999 79.9 71.7999 85.3 54.8999H83.4H83.6Z" fill="#60A5FA"/>
<path id="Vector_3" d="M8.99844 29.2002C14.2984 14.1002 28.6984 3.3002 45.4984 3.3002C62.2984 3.3002 76.6984 14.1002 81.9984 29.2002H82.5984C77.2984 13.8002 62.6984 2.7002 45.4984 2.7002C28.2984 2.7002 13.6984 13.8002 8.39844 29.2002H8.99844Z" fill="#60A5FA"/>
<path id="Vector_4" d="M81.9977 54.8999C76.6977 69.8999 62.2977 80.5999 45.5977 80.5999C28.8977 80.5999 14.4977 69.7999 9.19766 54.8999H8.59766C13.9977 70.1999 28.4977 81.1999 45.6977 81.1999C62.8977 81.1999 77.3977 70.1999 82.7977 54.8999H82.1977H81.9977Z" fill="#60A5FA"/>
<path id="Vector_5" d="M25.8977 29.0998C30.0977 22.6998 37.2977 18.4998 45.4977 18.4998C53.6977 18.4998 60.8977 22.6998 65.0977 29.0998H65.8977C61.5977 22.2998 54.0977 17.7998 45.4977 17.7998C36.8977 17.7998 29.3977 22.2998 25.0977 29.0998H25.8977Z" fill="#60A5FA"/>
<path id="Vector_6" d="M65.0977 54.8999C60.8977 61.2999 53.6977 65.3999 45.4977 65.3999C37.2977 65.3999 30.0977 61.1999 25.8977 54.8999H25.0977C29.3977 61.5999 36.8977 66.0999 45.4977 66.0999C54.0977 66.0999 61.5977 61.5999 65.8977 54.8999H65.0977Z" fill="#60A5FA"/>
<path id="Vector_7" d="M89.9984 30.3999H0.898438V32.1999H89.9984V30.3999Z" fill="#60A5FA"/>
<path id="Vector_8" d="M89.9984 51.8999H0.898438V53.6999H89.9984V51.8999Z" fill="#60A5FA"/>
<path id="Vector_9" d="M30.2984 49.4002C28.9984 49.4002 27.7984 49.1002 26.7984 48.5002C25.7984 47.9002 24.8984 47.0002 24.2984 45.9002C23.6984 44.8002 23.3984 43.4002 23.3984 41.8002C23.3984 40.2002 23.6984 38.8002 24.2984 37.7002C24.8984 36.6002 25.6984 35.7002 26.7984 35.1002C27.7984 34.5002 28.9984 34.2002 30.2984 34.2002C31.5984 34.2002 32.7984 34.5002 33.7984 35.1002C34.7984 35.7002 35.6984 36.6002 36.2984 37.7002C36.8984 38.8002 37.1984 40.2002 37.1984 41.8002C37.1984 43.4002 36.8984 44.8002 36.2984 45.9002C35.6984 47.0002 34.8984 47.9002 33.7984 48.5002C32.7984 49.1002 31.5984 49.4002 30.2984 49.4002ZM30.2984 46.7002C31.0984 46.7002 31.6984 46.5002 32.2984 46.1002C32.8984 45.7002 33.2984 45.2002 33.5984 44.4002C33.8984 43.7002 34.0984 42.8002 34.0984 41.7002C34.0984 40.6002 33.8984 39.7002 33.5984 39.0002C33.2984 38.3002 32.7984 37.7002 32.2984 37.3002C31.6984 36.9002 31.0984 36.7002 30.2984 36.7002C29.4984 36.7002 28.8984 36.9002 28.2984 37.3002C27.6984 37.7002 27.2984 38.2002 26.9984 39.0002C26.6984 39.7002 26.4984 40.6002 26.4984 41.7002C26.4984 42.8002 26.6984 43.6002 26.9984 44.4002C27.2984 45.1002 27.7984 45.7002 28.2984 46.1002C28.8984 46.5002 29.4984 46.7002 30.2984 46.7002Z" fill="#60A5FA"/>
<path id="Vector_10" d="M46.5992 49.4002C45.3992 49.4002 44.3992 49.2002 43.4992 48.9002C42.5992 48.5002 41.8992 48.0002 41.4992 47.3002C40.9992 46.6002 40.7992 45.7002 40.6992 44.7002H43.5992C43.5992 45.2002 43.7992 45.6002 43.9992 45.9002C44.2992 46.2002 44.5992 46.5002 44.9992 46.6002C45.3992 46.8002 45.8992 46.8002 46.4992 46.8002C47.0992 46.8002 47.4992 46.8002 47.8992 46.6002C48.2992 46.4002 48.5992 46.2002 48.7992 45.9002C48.9992 45.6002 49.0992 45.3002 49.0992 44.9002C49.0992 44.5002 48.9992 44.3002 48.7992 44.1002C48.5992 43.9002 48.2992 43.7002 47.8992 43.5002C47.4992 43.3002 47.0992 43.2002 46.4992 43.1002L44.8992 42.7002C43.6992 42.4002 42.6992 41.9002 41.9992 41.3002C41.2992 40.7002 40.8992 39.8002 40.8992 38.7002C40.8992 37.6002 41.0992 37.0002 41.5992 36.4002C42.0992 35.7002 42.6992 35.2002 43.5992 34.8002C44.3992 34.4002 45.3992 34.2002 46.4992 34.2002C47.5992 34.2002 48.4992 34.4002 49.2992 34.8002C50.0992 35.2002 50.6992 35.7002 51.1992 36.4002C51.6992 37.1002 51.8992 37.8002 51.8992 38.7002H48.9992C48.9992 38.1002 48.6992 37.6002 48.1992 37.3002C47.6992 37.0002 47.0992 36.8002 46.3992 36.8002C45.6992 36.8002 45.4992 36.8002 45.0992 37.0002C44.6992 37.1002 44.4992 37.3002 44.2992 37.6002C44.0992 37.9002 43.9992 38.2002 43.9992 38.5002C43.9992 38.8002 44.0992 39.2002 44.2992 39.4002C44.4992 39.6002 44.7992 39.8002 45.1992 40.0002C45.5992 40.1002 45.8992 40.3002 46.3992 40.4002L47.6992 40.7002C48.2992 40.8002 48.8992 41.0002 49.3992 41.3002C49.8992 41.5002 50.3992 41.8002 50.7992 42.2002C51.1992 42.5002 51.4992 43.0002 51.6992 43.4002C51.8992 43.9002 51.9992 44.4002 51.9992 45.0002C51.9992 45.9002 51.7992 46.7002 51.2992 47.3002C50.7992 48.0002 50.1992 48.5002 49.3992 48.8002C48.4992 49.2002 47.4992 49.3002 46.2992 49.3002L46.5992 49.4002Z" fill="#60A5FA"/>
<path id="Vector_11" d="M61.4977 49.4002C60.2977 49.4002 59.2977 49.2002 58.3977 48.9002C57.4977 48.5002 56.7977 48.0002 56.3977 47.3002C55.8977 46.6002 55.6977 45.7002 55.5977 44.7002H58.4977C58.4977 45.2002 58.6977 45.6002 58.8977 45.9002C59.1977 46.2002 59.4977 46.5002 59.8977 46.6002C60.2977 46.8002 60.7977 46.8002 61.3977 46.8002C61.9977 46.8002 62.3977 46.8002 62.7977 46.6002C63.1977 46.4002 63.4977 46.2002 63.6977 45.9002C63.8977 45.6002 63.9977 45.3002 63.9977 44.9002C63.9977 44.5002 63.8977 44.3002 63.6977 44.1002C63.4977 43.9002 63.1977 43.7002 62.7977 43.5002C62.3977 43.3002 61.9977 43.2002 61.3977 43.1002L59.7977 42.7002C58.5977 42.4002 57.5977 41.9002 56.8977 41.3002C56.1977 40.7002 55.7977 39.8002 55.7977 38.7002C55.7977 37.6002 55.9977 37.0002 56.4977 36.4002C56.9977 35.7002 57.5977 35.2002 58.4977 34.8002C59.2977 34.4002 60.2977 34.2002 61.3977 34.2002C62.4977 34.2002 63.3977 34.4002 64.1977 34.8002C64.9977 35.2002 65.5977 35.7002 66.0977 36.4002C66.5977 37.1002 66.7977 37.8002 66.7977 38.7002H63.8977C63.8977 38.1002 63.5977 37.6002 63.0977 37.3002C62.5977 37.0002 61.9977 36.8002 61.2977 36.8002C60.5977 36.8002 60.3977 36.8002 59.9977 37.0002C59.5977 37.1002 59.3977 37.3002 59.1977 37.6002C58.9977 37.9002 58.8977 38.2002 58.8977 38.5002C58.8977 38.8002 58.9977 39.2002 59.1977 39.4002C59.3977 39.6002 59.6977 39.8002 60.0977 40.0002C60.4977 40.1002 60.7977 40.3002 61.2977 40.4002L62.5977 40.7002C63.1977 40.8002 63.7977 41.0002 64.2977 41.3002C64.7977 41.5002 65.2977 41.8002 65.6977 42.2002C66.0977 42.5002 66.3977 43.0002 66.5977 43.4002C66.7977 43.9002 66.8977 44.4002 66.8977 45.0002C66.8977 45.9002 66.6977 46.7002 66.1977 47.3002C65.6977 48.0002 65.0977 48.5002 64.2977 48.8002C63.3977 49.2002 62.3977 49.3002 61.1977 49.3002L61.4977 49.4002Z" fill="#60A5FA"/>
<path id="Vector_12" d="M23.3977 26.3C23.0977 26.7 22.6977 27.1 22.1977 27.3C21.6977 27.5 21.1977 27.6 20.6977 27.5C20.1977 27.5 19.5977 27.2 19.0977 26.8C18.5977 26.4 18.1977 26 17.8977 25.5C17.6977 25 17.5977 24.5 17.5977 24C17.5977 23.5 17.7977 23 18.0977 22.6C18.3977 22.2 18.7977 21.8 19.2977 21.7C19.7977 21.5 20.2977 21.5 20.7977 21.5C21.2977 21.5 21.8977 21.8 22.3977 22.2C22.8977 22.6 23.2977 23 23.5977 23.5C23.7977 24 23.8977 24.5 23.8977 25C23.8977 25.5 23.6977 26 23.3977 26.4V26.3ZM22.5977 25.8C22.7977 25.5 22.8977 25.2 22.8977 24.9C22.8977 24.6 22.8977 24.2 22.6977 23.9C22.4977 23.6 22.1977 23.2 21.7977 23C21.3977 22.7 20.9977 22.5 20.5977 22.4C20.1977 22.4 19.8977 22.4 19.5977 22.4C19.2977 22.5 18.9977 22.7 18.7977 23C18.5977 23.3 18.4977 23.6 18.4977 23.9C18.4977 24.2 18.4977 24.6 18.7977 24.9C18.9977 25.2 19.2977 25.6 19.6977 25.9C20.0977 26.2 20.4977 26.4 20.8977 26.4C21.2977 26.4 21.5977 26.4 21.8977 26.4C22.1977 26.3 22.4977 26.1 22.6977 25.8H22.5977Z" fill="#60A5FA"/>
<path id="Vector_13" d="M25.4969 23.4002L21.2969 18.8002L22.9969 17.3002C23.3969 17.0002 23.6969 16.8002 24.0969 16.7002C24.4969 16.7002 24.7969 16.7002 25.0969 16.7002C25.3969 16.8002 25.6969 17.0002 25.9969 17.3002C26.2969 17.6002 26.3969 17.9002 26.4969 18.2002C26.4969 18.5002 26.4969 18.9002 26.4969 19.2002C26.4969 19.5002 26.0969 19.9002 25.7969 20.2002L24.6969 21.2002L24.1969 20.6002L25.2969 19.6002C25.4969 19.4002 25.6969 19.2002 25.6969 19.0002C25.6969 18.8002 25.6969 18.6002 25.6969 18.4002C25.6969 18.2002 25.4969 18.0002 25.3969 17.8002C25.1969 17.6002 25.0969 17.5002 24.8969 17.4002C24.6969 17.4002 24.4969 17.4002 24.2969 17.4002C24.0969 17.4002 23.8969 17.6002 23.5969 17.8002L22.6969 18.6002L26.3969 22.6002L25.6969 23.2002L25.4969 23.4002Z" fill="#60A5FA"/>
<path id="Vector_14" d="M29.4992 20.0001L26.1992 14.7001L29.4992 12.6001L29.8992 13.3001L27.3992 14.9001L28.3992 16.5001L30.7992 15.0001L31.1992 15.7001L28.7992 17.2001L29.7992 18.8001L32.3992 17.2001L32.7992 17.9001L29.3992 20.0001H29.4992Z" fill="#60A5FA"/>
<path id="Vector_15" d="M33.5984 17.4998L31.3984 11.5998L32.3984 11.1998L35.8984 13.8998C35.9984 13.8998 36.0984 14.0998 36.2984 14.1998C36.4984 14.2998 36.5984 14.4998 36.7984 14.5998C36.9984 14.7998 37.1984 14.8998 37.2984 15.0998H37.1984C37.0984 14.8998 36.9984 14.6998 36.8984 14.4998C36.8984 14.2998 36.6984 14.0998 36.5984 13.8998C36.5984 13.6998 36.4984 13.5998 36.3984 13.3998L35.1984 10.0998L36.0984 9.7998L38.2984 15.6998L37.2984 16.0998L34.1984 13.6998C33.9984 13.5998 33.8984 13.3998 33.6984 13.2998C33.4984 13.1998 33.3984 12.9998 33.0984 12.7998C32.8984 12.5998 32.5984 12.3998 32.2984 12.0998H32.3984C32.4984 12.2998 32.5984 12.5998 32.6984 12.7998C32.7984 12.9998 32.8984 13.2998 32.9984 13.4998C33.0984 13.6998 33.0984 13.7998 33.1984 13.9998L34.3984 17.0998L33.4984 17.3998L33.5984 17.4998Z" fill="#60A5FA"/>
<path id="Vector_16" d="M43.5977 15.1C43.0977 15.1 42.6977 15.1 42.3977 15C41.9977 14.9 41.7977 14.7 41.4977 14.4C41.2977 14.1 41.1977 13.8 41.0977 13.4H42.0977C42.0977 13.6 42.1977 13.7 42.3977 13.9C42.4977 14 42.6977 14.1 42.8977 14.2C43.0977 14.2 43.2977 14.2 43.5977 14.2C43.8977 14.2 44.0977 14.2 44.2977 14C44.4977 14 44.6977 13.8 44.7977 13.6C44.8977 13.4 44.9977 13.3 44.8977 13.1C44.8977 12.9 44.8977 12.8 44.6977 12.7C44.5977 12.6 44.3977 12.5 44.2977 12.4C44.0977 12.4 43.8977 12.3 43.6977 12.2H42.9977C42.4977 12 42.0977 11.8 41.7977 11.5C41.4977 11.3 41.2977 10.9 41.2977 10.5C41.2977 10.1 41.2977 9.8 41.4977 9.5C41.6977 9.2 41.8977 9 42.1977 8.8C42.4977 8.6 42.8977 8.5 43.2977 8.5C43.6977 8.5 44.0977 8.5 44.3977 8.6C44.6977 8.7 44.9977 8.9 45.1977 9.2C45.3977 9.4 45.4977 9.7 45.5977 10.1H44.6977C44.6977 9.9 44.4977 9.7 44.2977 9.5C44.0977 9.4 43.7977 9.3 43.3977 9.3C43.0977 9.3 42.8977 9.3 42.7977 9.5C42.5977 9.5 42.4977 9.7 42.3977 9.9C42.3977 10 42.2977 10.2 42.2977 10.4C42.2977 10.6 42.2977 10.8 42.4977 10.9C42.5977 11 42.7977 11.1 42.9977 11.2C43.1977 11.2 43.2977 11.3 43.4977 11.3H44.0977C44.2977 11.5 44.4977 11.5 44.6977 11.6C44.8977 11.6 45.0977 11.8 45.2977 11.9C45.4977 12 45.5977 12.2 45.7977 12.4C45.8977 12.6 45.9977 12.8 45.9977 13.1C45.9977 13.5 45.9977 13.8 45.7977 14.1C45.5977 14.4 45.3977 14.6 45.0977 14.8C44.7977 15 44.3977 15.1 43.8977 15.1H43.5977Z" fill="#60A5FA"/>
<path id="Vector_17" d="M49.2993 15.1999C48.7993 15.1999 48.2993 14.8999 47.8993 14.5999C47.4993 14.2999 47.1993 13.8999 47.0993 13.3999C46.8993 12.8999 46.8993 12.2999 46.9993 11.5999C46.9993 10.8999 47.2993 10.3999 47.5993 9.89987C47.8993 9.49987 48.2993 9.09987 48.6993 8.89987C49.1993 8.69987 49.6993 8.59988 50.1993 8.69988C50.6993 8.79988 51.1993 8.99988 51.5993 9.29988C51.9993 9.59988 52.2993 9.99988 52.3993 10.4999C52.5993 10.9999 52.5993 11.5999 52.4993 12.2999C52.4993 12.9999 52.1993 13.4999 51.8993 13.9999C51.5993 14.3999 51.1993 14.7999 50.7993 14.9999C50.3993 15.1999 49.7993 15.2999 49.2993 15.1999ZM49.3993 14.3999C49.7993 14.3999 50.0993 14.3999 50.3993 14.2999C50.6993 14.1999 50.9993 13.8999 51.1993 13.5999C51.3993 13.2999 51.4993 12.8999 51.5993 12.3999C51.5993 11.8999 51.5993 11.4999 51.5993 11.0999C51.4993 10.6999 51.2993 10.3999 50.9993 10.1999C50.6993 9.99987 50.3993 9.89988 50.0993 9.79988C49.6993 9.79988 49.3993 9.79987 49.0993 9.89987C48.7993 9.99987 48.4993 10.2999 48.2993 10.5999C48.0993 10.8999 47.9993 11.2999 47.8993 11.7999C47.8993 12.2999 47.8993 12.6999 47.8993 13.0999C47.9993 13.4999 48.1993 13.7999 48.4993 13.9999C48.7993 14.1999 49.0993 14.2999 49.3993 14.3999Z" fill="#60A5FA"/>
<path id="Vector_18" d="M55.1977 16.8C54.6977 16.6 54.3977 16.4 54.0977 16.1C53.7977 15.8 53.5977 15.4 53.5977 15C53.5977 14.6 53.5977 14.2 53.6977 13.8L55.1977 10L56.0977 10.3L54.6977 14.1C54.5977 14.4 54.5977 14.6 54.6977 14.9C54.6977 15.1 54.7977 15.4 54.9977 15.6C55.1977 15.8 55.3977 16 55.6977 16.1C55.9977 16.2 56.2977 16.2 56.4977 16.2C56.7977 16.2 56.9977 16.1 57.1977 15.9C57.3977 15.7 57.4977 15.5 57.5977 15.3L58.9977 11.5L59.8977 11.8L58.3977 15.6C58.1977 16 57.9977 16.3 57.6977 16.6C57.3977 16.8 56.9977 17 56.5977 17C56.1977 17 55.6977 17 55.2977 16.8H55.1977Z" fill="#60A5FA"/>
<path id="Vector_19" d="M58.3984 18.0998L61.7984 12.7998L63.6984 13.9998C64.0984 14.2998 64.3984 14.4998 64.5984 14.8998C64.7984 15.1998 64.8984 15.4998 64.7984 15.8998C64.7984 16.1998 64.6984 16.5998 64.4984 16.8998C64.2984 17.1998 63.9984 17.4998 63.7984 17.5998C63.4984 17.7998 63.1984 17.7998 62.7984 17.7998C62.3984 17.7998 62.0984 17.5998 61.6984 17.2998L60.2984 16.3998L60.6984 15.6998L61.9984 16.5998C62.2984 16.7998 62.4984 16.8998 62.6984 16.8998C62.8984 16.8998 63.0984 16.8998 63.2984 16.8998C63.4984 16.8998 63.5984 16.6998 63.6984 16.4998C63.7984 16.2998 63.8984 16.0998 63.8984 15.8998C63.8984 15.6998 63.8984 15.4998 63.7984 15.2998C63.6984 15.0998 63.4984 14.8998 63.1984 14.7998L62.1984 14.1998L59.2984 18.7998L58.4984 18.2998L58.3984 18.0998ZM61.3984 19.9998L61.5984 16.7998L62.4984 17.3998L62.2984 20.5998L61.3984 19.9998Z" fill="#60A5FA"/>
<path id="Vector_20" d="M64.5977 22.8001C64.1977 22.4001 63.9977 22.0001 63.7977 21.5001C63.6977 21.0001 63.6977 20.5001 63.7977 20.0001C63.9977 19.5001 64.2977 19.0001 64.6977 18.5001C65.1977 18.0001 65.6977 17.7001 66.1977 17.5001C66.6977 17.3001 67.1977 17.3001 67.6977 17.5001C68.1977 17.6001 68.5977 17.9001 68.9977 18.2001C69.1977 18.4001 69.3977 18.7001 69.5977 18.9001C69.6977 19.2001 69.7977 19.5001 69.8977 19.7001C69.8977 20.0001 69.8977 20.3001 69.8977 20.6001C69.8977 20.9001 69.6977 21.2001 69.4977 21.5001L68.7977 20.8001C68.8977 20.6001 68.9977 20.5001 68.9977 20.3001C68.9977 20.1001 68.9977 19.9001 68.9977 19.8001C68.9977 19.6001 68.9977 19.5001 68.7977 19.3001C68.7977 19.1001 68.5977 19.0001 68.4977 18.9001C68.1977 18.7001 67.8977 18.5001 67.5977 18.4001C67.2977 18.4001 66.8977 18.4001 66.5977 18.5001C66.1977 18.6001 65.8977 18.9001 65.4977 19.2001C65.1977 19.6001 64.8977 19.9001 64.7977 20.3001C64.6977 20.7001 64.6977 21.0001 64.7977 21.3001C64.7977 21.6001 64.9977 21.9001 65.2977 22.2001C65.3977 22.3001 65.5977 22.4001 65.7977 22.5001C65.9977 22.5001 66.0977 22.6001 66.2977 22.7001C66.4977 22.7001 66.6977 22.7001 66.7977 22.7001C66.9977 22.7001 67.0977 22.6001 67.2977 22.5001L67.9977 23.2001C67.7977 23.4001 67.4977 23.5001 67.1977 23.6001C66.8977 23.6001 66.5977 23.7001 66.2977 23.6001C65.9977 23.6001 65.6977 23.6001 65.3977 23.4001C65.0977 23.2001 64.8977 23.1001 64.5977 22.8001Z" fill="#60A5FA"/>
<path id="Vector_21" d="M66.9984 25.2001L72.1984 21.6001L74.3984 24.8001L73.6984 25.3001L71.9984 22.8001L70.4984 23.9001L72.0984 26.2001L71.3984 26.7001L69.7984 24.4001L68.1984 25.5001L69.8984 28.0001L69.1984 28.5001L66.8984 25.2001H66.9984Z" fill="#60A5FA"/>
<g id="Group_2">
<path id="Vector_22" d="M22.2969 67.9002L28.1969 64.2002L29.1969 65.0002L26.9969 71.6002L26.1969 70.9002L27.4969 67.3002C27.5969 67.0002 27.6969 66.7002 27.8969 66.3002C28.0969 65.9002 28.2969 65.5002 28.4969 64.9002H28.6969C28.1969 65.4002 27.7969 65.7002 27.4969 65.9002C27.1969 66.1002 26.8969 66.3002 26.5969 66.5002L23.3969 68.6002L22.5969 67.9002H22.2969ZM24.3969 67.3002L24.8969 66.6002L27.5969 68.7002L27.0969 69.4002L24.3969 67.3002Z" fill="#60A5FA"/>
<path id="Vector_23" d="M30.6977 73.7002C30.1977 73.4002 29.7977 73.1002 29.4977 72.6002C29.1977 72.2002 29.0977 71.7002 29.0977 71.1002C29.0977 70.5002 29.2977 70.0002 29.5977 69.3002C29.8977 68.7002 30.2977 68.2002 30.6977 67.9002C31.1977 67.6002 31.5977 67.4002 32.1977 67.3002C32.7977 67.2002 33.1977 67.3002 33.6977 67.6002C33.9977 67.8002 34.2977 68.0002 34.4977 68.2002C34.6977 68.4002 34.8977 68.7002 34.9977 69.0002C35.0977 69.3002 35.1977 69.6002 35.1977 69.9002C35.1977 70.2002 35.1977 70.5002 35.0977 70.8002L34.1977 70.3002C34.1977 70.1002 34.1977 69.9002 34.1977 69.7002C34.1977 69.5002 34.1977 69.3002 33.9977 69.2002C33.9977 69.0002 33.7977 68.9002 33.6977 68.8002C33.5977 68.7002 33.3977 68.6002 33.1977 68.5002C32.8977 68.3002 32.4977 68.3002 32.1977 68.3002C31.8977 68.3002 31.4977 68.5002 31.1977 68.7002C30.8977 68.9002 30.5977 69.3002 30.3977 69.8002C30.1977 70.3002 29.9977 70.7002 29.9977 71.1002C29.9977 71.5002 29.9977 71.9002 30.2977 72.2002C30.4977 72.5002 30.6977 72.7002 31.0977 72.9002C31.3977 73.1002 31.6977 73.1002 31.9977 73.1002C32.2977 73.1002 32.5977 73.1002 32.7977 72.8002C32.9977 72.5002 33.2977 72.4002 33.3977 72.1002L33.5977 72.3002L31.8977 71.5002L32.2977 70.8002L34.5977 72.0002L34.2977 72.7002C34.0977 73.2002 33.6977 73.6002 33.2977 73.8002C32.8977 74.1002 32.4977 74.2002 31.9977 74.2002C31.4977 74.2002 31.0977 74.1002 30.5977 73.9002L30.6977 73.7002Z" fill="#60A5FA"/>
<path id="Vector_24" d="M35.3984 75.6003L36.9984 69.3003L39.2984 69.9003C39.7984 70.0003 40.1984 70.2003 40.4984 70.5003C40.7984 70.8003 40.9984 71.1003 40.9984 71.4003C40.9984 71.8003 40.9984 72.1003 40.9984 72.5003C40.9984 72.9003 40.6984 73.2003 40.4984 73.5003C40.2984 73.8003 39.8984 74.0003 39.5984 74.0003C39.1984 74.0003 38.7984 74.0003 38.2984 74.0003L36.6984 73.6003L36.8984 72.8003L38.3984 73.2003C38.6984 73.2003 38.9984 73.2003 39.1984 73.2003C39.3984 73.2003 39.5984 73.0003 39.6984 72.9003C39.7984 72.8003 39.8984 72.5003 39.9984 72.3003C39.9984 72.1003 39.9984 71.8003 39.9984 71.6003C39.9984 71.4003 39.8984 71.2003 39.6984 71.1003C39.4984 70.9003 39.2984 70.8003 38.9984 70.7003L37.7984 70.4003L36.3984 75.9003L35.3984 75.7003V75.6003Z" fill="#60A5FA"/>
<path id="Vector_25" d="M41.8984 77L42.2984 70.5H43.2984L42.8984 76.2L45.8984 76.4V77.3L41.8984 77Z" fill="#60A5FA"/>
<path id="Vector_26" d="M52.7964 73.3003V74.1003C52.8964 74.1003 50.0964 74.6003 50.0964 74.6003V73.8003C49.9964 73.8003 52.7964 73.3003 52.7964 73.3003Z" fill="#60A5FA"/>
<path id="Vector_27" d="M60.0959 74.3003C59.6959 74.5003 59.2959 74.6003 58.8959 74.6003C58.4959 74.6003 58.1959 74.6003 57.8959 74.4003C57.5959 74.2003 57.3959 74.0003 57.1959 73.7003L58.0959 73.3003C58.0959 73.5003 58.2959 73.6003 58.4959 73.7003C58.6959 73.7003 58.7959 73.8003 59.0959 73.8003C59.2959 73.8003 59.4959 73.8003 59.6959 73.6003C59.8959 73.5003 60.0959 73.4003 60.2959 73.2003C60.4959 73.0003 60.4959 72.9003 60.5959 72.7003C60.5959 72.5003 60.5959 72.3003 60.5959 72.1003C60.5959 71.9003 60.3959 71.7003 60.1959 71.6003C59.9959 71.5003 59.7959 71.4003 59.5959 71.4003C59.3959 71.4003 59.0959 71.4003 58.7959 71.6003L58.2959 71.8003L57.9959 71.1003L58.4959 70.9003C58.6959 70.9003 58.8959 70.7003 58.9959 70.5003C59.0959 70.3003 59.1959 70.2003 59.1959 70.0003C59.1959 69.8003 59.1959 69.6003 59.1959 69.4003C59.1959 69.2003 58.9959 69.1003 58.8959 69.0003C58.7959 68.9003 58.5959 68.8003 58.3959 68.8003C58.1959 68.8003 57.9959 68.8003 57.7959 68.9003C57.5959 68.9003 57.3959 69.1003 57.2959 69.2003C57.1959 69.3003 57.0959 69.5003 56.9959 69.7003C56.9959 69.9003 56.9959 70.1003 56.9959 70.2003L56.0959 70.6003C55.9959 70.3003 55.8959 69.9003 56.0959 69.6003C56.2959 69.3003 56.2959 69.0003 56.5959 68.7003C56.8959 68.4003 57.0959 68.2003 57.4959 68.0003C57.8959 67.8003 58.1959 67.8003 58.5959 67.8003C58.8959 67.8003 59.2959 67.9003 59.4959 68.1003C59.7959 68.3003 59.9959 68.5003 60.0959 68.8003C60.2959 69.1003 60.2959 69.5003 60.1959 69.8003C60.1959 70.1003 59.8959 70.4003 59.6959 70.6003C59.9959 70.6003 60.1959 70.6003 60.4959 70.6003C60.6959 70.6003 60.9959 70.7003 61.0959 70.9003C61.2959 71.1003 61.3959 71.3003 61.4959 71.5003C61.5959 71.8003 61.6959 72.2003 61.5959 72.5003C61.5959 72.8003 61.3959 73.2003 61.0959 73.5003C60.7959 73.8003 60.4959 74.0003 60.0959 74.2003V74.3003Z" fill="#60A5FA"/>
<path id="Vector_28" d="M64.1983 72.0003C63.9983 72.0003 63.8984 72.1003 63.6984 72.0003C63.4984 72.0003 63.3984 71.9003 63.2984 71.7003C63.2984 71.5003 63.1984 71.4003 63.2984 71.2003C63.2984 71.0003 63.3983 70.9003 63.5983 70.8003C63.7983 70.8003 63.8983 70.7003 64.0983 70.8003C64.2983 70.8003 64.3984 70.9003 64.4984 71.1003C64.4984 71.3003 64.5984 71.4003 64.4984 71.6003C64.4984 71.8003 64.3983 71.9003 64.1983 72.0003Z" fill="#60A5FA"/>
<path id="Vector_29" d="M68.0969 69.3002C67.6969 69.6002 67.2969 69.8002 66.8969 69.8002C66.4969 69.8002 65.9969 69.8002 65.4969 69.5002C64.9969 69.2002 64.5969 68.8002 64.0969 68.3002C63.5969 67.8002 63.2969 67.2002 63.1969 66.7002C62.9969 66.2002 62.9969 65.7002 63.0969 65.3002C63.1969 64.9002 63.3969 64.5002 63.7969 64.2002C64.1969 63.9002 64.5969 63.7002 64.9969 63.7002C65.3969 63.7002 65.8969 63.7002 66.3969 64.0002C66.8969 64.3002 67.2969 64.7002 67.7969 65.2002C68.2969 65.7002 68.5969 66.3002 68.7969 66.8002C68.9969 67.3002 68.9969 67.8002 68.8969 68.2002C68.7969 68.6002 68.4969 69.0002 68.1969 69.3002H68.0969ZM67.4969 68.6002C67.6969 68.4002 67.8969 68.2002 67.8969 67.9002C67.8969 67.6002 67.8969 67.3002 67.6969 66.9002C67.4969 66.5002 67.2969 66.2002 66.9969 65.8002C66.6969 65.4002 66.2969 65.1002 65.9969 64.9002C65.6969 64.7002 65.3969 64.6002 65.0969 64.6002C64.7969 64.6002 64.5969 64.6002 64.2969 64.9002C63.9969 65.2002 63.8969 65.3002 63.8969 65.6002C63.8969 65.9002 63.8969 66.2002 64.0969 66.6002C64.2969 67.0002 64.4969 67.3002 64.7969 67.7002C65.0969 68.1002 65.4969 68.4002 65.7969 68.6002C66.0969 68.8002 66.3969 68.9002 66.6969 68.9002C66.9969 68.9002 67.1969 68.9002 67.4969 68.6002Z" fill="#60A5FA"/>
</g>
</g>
</g>
<defs>
<clipPath id="clip0_3273_17808">
<rect width="90" height="84" fill="white"/>
</clipPath>
</defs>
</svg>
