<svg width="90" height="85" viewBox="0 0 90 85" fill="none" xmlns="http://www.w3.org/2000/svg">
<g id="Group">
<g id="Group_2">
<g id="Group_3">
<g id="Group_4">
<g id="Group_5">
<path id="Vector" d="M7.39086 30.1631C12.7535 14.2372 27.8136 2.73703 45.522 2.73703C63.2305 2.73703 78.2905 14.2422 83.6532 30.1631H85.5167C80.0882 13.2497 64.218 0.969727 45.522 0.969727C26.8261 0.969727 10.9558 13.2497 5.52734 30.1631H7.39086Z" fill="#60A5FA"/>
<path id="Vector_2" d="M83.6128 55.9082C78.2147 71.7633 63.1851 83.2026 45.5272 83.2026C27.8694 83.2026 12.8398 71.7633 7.44164 55.9082H5.57812C11.0471 72.7558 26.8819 84.9699 45.5272 84.9699C64.1725 84.9699 80.0073 72.7558 85.4764 55.9082H83.6128Z" fill="#60A5FA"/>
</g>
<g id="Group_6">
<path id="Vector_3" d="M9.03107 30.1632C14.3279 15.1082 28.6841 4.28663 45.5215 4.28663C62.359 4.28663 76.7152 15.1082 82.012 30.1632H82.6349C77.3127 14.779 62.6932 3.69922 45.5215 3.69922C28.3498 3.69922 13.7304 14.779 8.4082 30.1632H9.03107Z" fill="#60A5FA"/>
<path id="Vector_4" d="M81.9728 55.9077C76.6405 70.8918 62.3198 81.6526 45.5279 81.6526C28.736 81.6526 14.4153 70.8918 9.07794 55.9077H8.45508C13.8177 71.221 28.4018 82.24 45.5228 82.24C62.6439 82.24 77.233 71.221 82.5906 55.9077H81.9677H81.9728Z" fill="#60A5FA"/>
</g>
</g>
<g id="Group_7">
<path id="Vector_5" d="M25.8908 30.1173C30.0888 23.7216 37.32 19.4882 45.5286 19.4882C53.7372 19.4882 60.9634 23.7216 65.1664 30.1173H65.9463C61.6673 23.3469 54.117 18.835 45.5337 18.835C36.9504 18.835 29.4001 23.3469 25.1211 30.1173H25.9009H25.8908Z" fill="#60A5FA"/>
<path id="Vector_6" d="M65.1101 55.9077C60.902 62.2578 53.696 66.4508 45.528 66.4508C37.3599 66.4508 30.154 62.2528 25.9459 55.9077H25.166C29.4551 62.6326 36.975 67.1091 45.528 67.1091C54.0809 67.1091 61.6008 62.6376 65.8899 55.9077H65.1101Z" fill="#60A5FA"/>
</g>
</g>
<g id="Group_8">
<path id="Vector_7" d="M89.9992 31.3481L0.859375 31.3481L0.859375 33.1154L89.9992 33.1154V31.3481Z" fill="#60A5FA"/>
<path id="Vector_8" d="M89.9992 52.8237L0.859375 52.8237L0.859375 54.591L89.9992 54.591V52.8237Z" fill="#60A5FA"/>
</g>
</g>
<g id="Group_9">
<g id="Group_10">
<path id="Vector_9" d="M30.3112 50.3833C29.0097 50.3833 27.845 50.0845 26.8069 49.492C25.7688 48.8995 24.9485 48.0387 24.3459 46.9094C23.7433 45.7802 23.4395 44.418 23.4395 42.8229C23.4395 41.2277 23.7433 39.8554 24.3459 38.7211C24.9485 37.5918 25.7688 36.7259 26.8069 36.1334C27.845 35.541 29.0148 35.2422 30.3112 35.2422C31.6075 35.2422 32.7874 35.541 33.8204 36.1334C34.8535 36.7259 35.6738 37.5868 36.2764 38.7211C36.879 39.8503 37.1829 41.2176 37.1829 42.8229C37.1829 44.4281 36.879 45.7802 36.2764 46.9094C35.6738 48.0387 34.8535 48.8995 33.8204 49.492C32.7874 50.0845 31.6126 50.3833 30.3112 50.3833ZM30.3112 47.6994C31.0758 47.6994 31.7443 47.512 32.3165 47.1424C32.8887 46.7676 33.3293 46.2207 33.6483 45.4915C33.9622 44.7623 34.1243 43.8761 34.1243 42.8279C34.1243 41.7797 33.9673 40.8732 33.6483 40.144C33.3343 39.4148 32.8887 38.8629 32.3165 38.4932C31.7443 38.1185 31.0809 37.9362 30.3112 37.9362C29.5415 37.9362 28.8882 38.1235 28.3109 38.4983C27.7336 38.873 27.2931 39.425 26.9741 40.1542C26.6601 40.8834 26.4981 41.7746 26.4981 42.8279C26.4981 43.8812 26.655 44.7623 26.9741 45.4865C27.288 46.2106 27.7336 46.7626 28.3109 47.1373C28.8882 47.512 29.5516 47.6994 30.3112 47.6994Z" fill="#60A5FA"/>
<path id="Vector_10" d="M46.5495 50.4031C45.3696 50.4031 44.3416 50.2208 43.4706 49.8613C42.5996 49.5018 41.916 48.9599 41.4299 48.251C40.9437 47.542 40.6855 46.6609 40.6602 45.6178H43.5972C43.6377 46.114 43.7846 46.5242 44.0428 46.8584C44.3011 47.1926 44.6404 47.4408 45.0708 47.6028C45.5012 47.7699 45.9823 47.8509 46.5241 47.8509C47.066 47.8509 47.5369 47.775 47.9319 47.618C48.332 47.461 48.6409 47.2433 48.8687 46.9597C49.0915 46.6761 49.203 46.347 49.203 45.9722C49.203 45.638 49.1017 45.3544 48.8991 45.1266C48.6966 44.8987 48.4079 44.7012 48.0332 44.5392C47.6585 44.372 47.1977 44.2303 46.6609 44.1037L45.0404 43.6985C43.7947 43.3947 42.8174 42.9187 42.1135 42.2705C41.4096 41.6223 41.0551 40.7615 41.0551 39.693C41.0551 38.8017 41.2932 38.027 41.7742 37.3585C42.2502 36.6952 42.9085 36.1736 43.7441 35.8039C44.5796 35.4343 45.5316 35.252 46.595 35.252C47.6585 35.252 48.6307 35.4393 49.441 35.809C50.2512 36.1837 50.8842 36.7002 51.3399 37.3636C51.7957 38.027 52.0286 38.7916 52.0438 39.6525H49.127C49.0764 39.06 48.8232 38.5992 48.3725 38.2802C47.9218 37.9561 47.3192 37.794 46.5697 37.794C46.0633 37.794 45.6278 37.8649 45.2632 38.0118C44.8986 38.1586 44.6252 38.3561 44.4378 38.6144C44.2505 38.8726 44.1542 39.1663 44.1542 39.4955C44.1542 39.8601 44.2606 40.1589 44.4783 40.4019C44.6961 40.645 44.9847 40.8374 45.3493 40.9843C45.7139 41.1311 46.0988 41.2577 46.509 41.354L47.8458 41.678C48.4636 41.8148 49.0409 42.0021 49.5777 42.2401C50.1145 42.4781 50.5803 42.7668 50.9804 43.1162C51.3804 43.4656 51.6944 43.8707 51.9172 44.3467C52.14 44.8227 52.2464 45.3696 52.2464 45.9874C52.2464 46.8787 52.0235 47.6534 51.5729 48.3168C51.1222 48.9802 50.474 49.4916 49.6233 49.8562C48.7725 50.2208 47.7496 50.3981 46.5596 50.3981L46.5495 50.4031Z" fill="#60A5FA"/>
<path id="Vector_11" d="M61.5143 50.4036C60.3344 50.4036 59.3065 50.2213 58.4355 49.8618C57.5645 49.5023 56.8809 48.9604 56.3947 48.2515C55.9086 47.5425 55.6503 46.6614 55.625 45.6182H58.5621C58.6026 46.1145 58.7494 46.5247 59.0077 46.8589C59.266 47.1931 59.6052 47.4412 60.0357 47.6033C60.4661 47.7704 60.9472 47.8514 61.489 47.8514C62.0308 47.8514 62.5018 47.7755 62.8968 47.6185C63.2968 47.4615 63.6057 47.2438 63.8336 46.9602C64.0564 46.6766 64.1678 46.3474 64.1678 45.9727C64.1678 45.6385 64.0665 45.3549 63.864 45.127C63.6614 44.8992 63.3728 44.7017 62.998 44.5396C62.6233 44.3725 62.1625 44.2307 61.6257 44.1041L60.0053 43.699C58.7596 43.3952 57.7822 42.9192 57.0784 42.271C56.3745 41.6228 56.02 40.762 56.02 39.6935C56.02 38.8022 56.258 38.0275 56.7391 37.359C57.2151 36.6957 57.8734 36.1741 58.7089 35.8044C59.5445 35.4347 60.4965 35.2524 61.5599 35.2524C62.6233 35.2524 63.5956 35.4398 64.4058 35.8095C65.216 36.1842 65.849 36.7007 66.3048 37.3641C66.7605 38.0275 66.9935 38.7921 67.0087 39.653H64.0918C64.0412 39.0605 63.788 38.5997 63.3373 38.2807C62.8866 37.9566 62.284 37.7945 61.5346 37.7945C61.0282 37.7945 60.5927 37.8654 60.2281 38.0123C59.8635 38.1591 59.59 38.3566 59.4027 38.6149C59.2153 38.8731 59.1191 39.1668 59.1191 39.496C59.1191 39.8606 59.2254 40.1594 59.4432 40.4024C59.6609 40.6455 59.9496 40.8379 60.3142 40.9848C60.6788 41.1316 61.0636 41.2582 61.4738 41.3544L62.8107 41.6785C63.4285 41.8153 64.0058 42.0026 64.5425 42.2406C65.0793 42.4786 65.5452 42.7673 65.9452 43.1167C66.3453 43.4661 66.6592 43.8712 66.8821 44.3472C67.1049 44.8232 67.2112 45.3701 67.2112 45.9879C67.2112 46.8792 66.9884 47.6539 66.5377 48.3173C66.087 48.9807 65.4388 49.4921 64.5881 49.8567C63.7374 50.2213 62.7145 50.3986 61.5245 50.3986L61.5143 50.4036Z" fill="#60A5FA"/>
</g>
<g id="Group_11">
<g id="Group_12">
<path id="Vector_12" d="M23.357 27.2973C23.043 27.7379 22.6531 28.0518 22.1973 28.2493C21.7416 28.4468 21.2453 28.5025 20.7085 28.4215C20.1768 28.3405 19.6401 28.1025 19.0982 27.7126C18.5564 27.3226 18.1614 26.8821 17.9133 26.4061C17.6651 25.925 17.5639 25.4389 17.6044 24.9375C17.6449 24.4413 17.8221 23.9703 18.1411 23.5348C18.4551 23.0993 18.845 22.7803 19.3008 22.5879C19.7565 22.3955 20.2528 22.3398 20.7845 22.4208C21.3162 22.5018 21.858 22.7398 22.3999 23.1297C22.9417 23.5196 23.3316 23.9551 23.5798 24.4362C23.8279 24.9173 23.9292 25.4034 23.8887 25.8997C23.8482 26.3959 23.6709 26.8618 23.3519 27.2973H23.357ZM22.648 26.7859C22.8556 26.4972 22.9721 26.1883 22.9924 25.8541C23.0126 25.5199 22.9316 25.1857 22.7442 24.8514C22.5569 24.5122 22.2581 24.1982 21.8479 23.9045C21.4327 23.6057 21.0377 23.4184 20.6579 23.3475C20.2781 23.2766 19.9338 23.3019 19.6249 23.4285C19.316 23.5551 19.0577 23.7576 18.8501 24.0463C18.6425 24.3349 18.526 24.6489 18.5057 24.9831C18.4855 25.3173 18.5716 25.6515 18.7589 25.9908C18.9463 26.3301 19.2451 26.6441 19.6552 26.9428C20.0654 27.2365 20.4553 27.4188 20.8351 27.4897C21.2149 27.5606 21.5593 27.5353 21.8682 27.4087C22.1771 27.2821 22.4404 27.0745 22.648 26.7859Z" fill="#60A5FA"/>
<path id="Vector_13" d="M25.5405 24.4059L21.3223 19.7775L22.9832 18.2633C23.3377 17.9393 23.6972 17.7367 24.0568 17.6506C24.4163 17.5645 24.7556 17.5848 25.0797 17.7013C25.4038 17.8177 25.6975 18.0203 25.9557 18.3089C26.214 18.5925 26.3912 18.9065 26.4773 19.2407C26.5634 19.5749 26.5482 19.9192 26.4317 20.2687C26.3153 20.6181 26.0773 20.9523 25.7177 21.2814L24.5834 22.3145L24.0365 21.7169L25.0999 20.7447C25.3278 20.537 25.4747 20.3294 25.5456 20.1218C25.6165 19.9142 25.6215 19.7116 25.5607 19.5192C25.5 19.3217 25.3936 19.1394 25.2367 18.9672C25.0797 18.7951 24.9024 18.6685 24.7151 18.5925C24.5277 18.5165 24.3252 18.5064 24.1125 18.5571C23.8998 18.6077 23.682 18.7394 23.4491 18.952L22.5781 19.7471L26.2444 23.7678L25.5354 24.416L25.5405 24.4059Z" fill="#60A5FA"/>
<path id="Vector_14" d="M29.4591 20.9872L26.1523 15.6701L29.4996 13.5889L29.9351 14.2877L27.3981 15.8626L28.3855 17.4476L30.7402 15.9841L31.1707 16.6829L28.8159 18.1464L29.8338 19.7871L32.3911 18.197L32.8266 18.8958L29.454 20.9872H29.4591Z" fill="#60A5FA"/>
<path id="Vector_15" d="M33.5962 18.4611L31.4238 12.587L32.4619 12.2021L35.9661 14.8809C36.0826 14.967 36.2143 15.0784 36.3662 15.205C36.5181 15.3316 36.6801 15.4785 36.8574 15.6405C37.0346 15.8026 37.2169 15.9849 37.4043 16.1824L37.2929 16.2229C37.1865 16.0102 37.0853 15.7924 36.9941 15.5798C36.903 15.3671 36.8169 15.1645 36.7409 14.9721C36.665 14.7797 36.6042 14.6227 36.5535 14.491L35.318 11.1489L36.2295 10.8096L38.4019 16.6837L37.3638 17.0686L34.2242 14.6733C34.0571 14.5417 33.8899 14.4049 33.7228 14.2733C33.5557 14.1366 33.3734 13.9796 33.1658 13.7973C32.9582 13.615 32.71 13.3922 32.4113 13.1339L32.5531 13.0833C32.6746 13.3668 32.786 13.6352 32.8924 13.8783C32.9987 14.1264 33.0899 14.3442 33.1658 14.5315C33.2418 14.7189 33.3025 14.8759 33.3481 14.9924L34.5077 18.1269L33.5962 18.4611Z" fill="#60A5FA"/>
<path id="Vector_16" d="M43.6184 16.0452C43.1526 16.0756 42.7424 16.0351 42.3879 15.9085C42.0334 15.7869 41.7499 15.5945 41.5372 15.3312C41.3245 15.0679 41.1928 14.7488 41.1473 14.3691L42.1094 14.3032C42.1448 14.5311 42.2309 14.7083 42.3677 14.8501C42.5044 14.9868 42.6766 15.0881 42.8892 15.1438C43.0969 15.1995 43.3197 15.2198 43.5577 15.2046C43.821 15.1843 44.0539 15.1286 44.2565 15.0324C44.454 14.9362 44.611 14.8045 44.7224 14.6476C44.8338 14.4855 44.8794 14.3032 44.8642 14.1057C44.849 13.9234 44.7882 13.7766 44.6768 13.6702C44.5654 13.5639 44.4135 13.4727 44.2312 13.412C44.0489 13.3461 43.8413 13.2955 43.6134 13.2499L42.869 13.1031C42.3474 13.0018 41.9372 12.8296 41.6283 12.5815C41.3245 12.3334 41.1523 11.9941 41.1219 11.5687C41.0966 11.2092 41.1726 10.8851 41.3448 10.6015C41.522 10.3179 41.7701 10.0901 42.0942 9.91788C42.4183 9.74571 42.788 9.64443 43.2083 9.61405C43.6336 9.58366 44.0185 9.6343 44.3527 9.7609C44.6869 9.8875 44.9604 10.0749 45.1629 10.323C45.3655 10.5711 45.487 10.8598 45.5174 11.1889L44.5857 11.2548C44.535 10.9712 44.3882 10.7585 44.14 10.6218C43.897 10.48 43.5931 10.4243 43.2387 10.4496C42.9855 10.4698 42.7728 10.5205 42.5905 10.6116C42.4082 10.7028 42.2714 10.8243 42.1803 10.9661C42.0891 11.113 42.0486 11.275 42.0588 11.4472C42.074 11.6447 42.1449 11.8017 42.2765 11.9131C42.4082 12.0245 42.5601 12.1106 42.7424 12.1713C42.9247 12.2321 43.0918 12.2726 43.2538 12.308L43.8716 12.4245C44.0742 12.46 44.2818 12.5157 44.4996 12.5866C44.7173 12.6575 44.9199 12.7537 45.1072 12.8752C45.2946 12.9967 45.4516 13.1537 45.5782 13.3461C45.7048 13.5386 45.7757 13.7766 45.7959 14.0551C45.8212 14.4096 45.7504 14.7286 45.5883 15.0172C45.4263 15.3059 45.1781 15.5439 44.8439 15.7262C44.5097 15.9085 44.0995 16.0199 43.6083 16.0503L43.6184 16.0452Z" fill="#60A5FA"/>
<path id="Vector_17" d="M49.2936 16.2175C48.7568 16.1415 48.296 15.9491 47.9061 15.6351C47.5162 15.3212 47.2377 14.911 47.0604 14.3995C46.8832 13.8881 46.8427 13.3057 46.9338 12.6424C47.025 11.979 47.2275 11.427 47.5364 10.9865C47.8453 10.5459 48.2302 10.2269 48.686 10.0294C49.1468 9.83189 49.643 9.77112 50.1798 9.84708C50.7166 9.92304 51.1774 10.1155 51.5623 10.4294C51.9471 10.7434 52.2307 11.1536 52.4029 11.665C52.5801 12.1765 52.6206 12.7639 52.5295 13.4273C52.4383 14.0856 52.2358 14.6426 51.9269 15.0832C51.618 15.5237 51.2382 15.8427 50.7824 16.0402C50.3267 16.2377 49.8304 16.2985 49.2936 16.2225V16.2175ZM49.4152 15.3515C49.7696 15.4022 50.0937 15.3515 50.3976 15.2199C50.7014 15.0832 50.9596 14.8502 51.1673 14.5312C51.3749 14.2122 51.5167 13.7969 51.5876 13.2956C51.6585 12.7892 51.6332 12.3537 51.5217 11.984C51.4053 11.6144 51.223 11.3257 50.9698 11.108C50.7166 10.8953 50.4127 10.7586 50.0583 10.713C49.7038 10.6624 49.3747 10.713 49.0658 10.8447C48.7619 10.9814 48.5037 11.2143 48.291 11.5384C48.0783 11.8625 47.9416 12.2727 47.8707 12.7791C47.7998 13.2804 47.8251 13.7108 47.9365 14.0805C48.053 14.4451 48.2353 14.7388 48.4935 14.9566C48.7467 15.1743 49.0556 15.306 49.4101 15.3566L49.4152 15.3515Z" fill="#60A5FA"/>
<path id="Vector_18" d="M55.1518 17.7262C54.6809 17.549 54.3062 17.3009 54.0226 16.9869C53.739 16.6729 53.5618 16.3235 53.4909 15.9336C53.42 15.5437 53.4605 15.1487 53.6124 14.7385L55.0657 10.895L55.9621 11.2343L54.534 15.0018C54.4328 15.2652 54.4024 15.5234 54.4429 15.7716C54.4834 16.0197 54.5847 16.2425 54.7568 16.4451C54.929 16.6426 55.162 16.7995 55.4557 16.9109C55.7494 17.0223 56.0228 17.0578 56.2811 17.0223C56.5393 16.9869 56.7621 16.8856 56.9546 16.7236C57.147 16.5615 57.2939 16.3488 57.3951 16.0855L58.8232 12.3129L59.7245 12.6522L58.2712 16.4957C58.1142 16.9059 57.8813 17.23 57.5724 17.473C57.2635 17.7161 56.8938 17.863 56.4786 17.9085C56.0583 17.9592 55.6177 17.8933 55.1518 17.7161V17.7262Z" fill="#60A5FA"/>
<path id="Vector_19" d="M58.4316 19.0229L61.7941 13.7412L63.688 14.9464C64.0931 15.2047 64.3868 15.4933 64.5691 15.8073C64.7514 16.1212 64.8324 16.4453 64.8071 16.7846C64.7818 17.1188 64.6653 17.4531 64.4627 17.7771C64.2551 18.1012 64.007 18.3443 63.7133 18.5013C63.4196 18.6583 63.0955 18.719 62.741 18.6836C62.3815 18.6431 62.0017 18.4962 61.5915 18.2329L60.1686 17.3265L60.6091 16.6378L61.9511 17.4936C62.2093 17.6607 62.4423 17.7569 62.6499 17.7822C62.8575 17.8075 63.0449 17.7822 63.2069 17.686C63.374 17.5948 63.5158 17.4531 63.6424 17.2556C63.769 17.0581 63.8399 16.8606 63.8551 16.6681C63.8703 16.4757 63.8247 16.2884 63.7133 16.1061C63.6019 15.9238 63.4145 15.7516 63.1563 15.5845L62.1637 14.9515L59.2419 19.5444L58.4316 19.0279V19.0229ZM61.4345 20.932L61.6725 17.7316L62.5689 18.3038L62.3511 21.5194L61.4345 20.937V20.932Z" fill="#60A5FA"/>
<path id="Vector_20" d="M64.6174 23.7624C64.2274 23.3877 63.9692 22.9573 63.8426 22.4762C63.716 21.9951 63.7312 21.4989 63.8882 20.9824C64.0502 20.4658 64.3591 19.9696 64.825 19.4936C65.2909 19.0125 65.777 18.6833 66.2884 18.5112C66.7999 18.3339 67.2962 18.3036 67.7823 18.415C68.2684 18.5264 68.7039 18.7694 69.0939 19.1442C69.3319 19.372 69.5192 19.6252 69.661 19.8936C69.8028 20.162 69.8939 20.4456 69.9294 20.7342C69.9648 21.0229 69.9497 21.3166 69.8737 21.6052C69.7977 21.8939 69.6661 22.1774 69.4736 22.4559L68.785 21.7875C68.8964 21.6204 68.9673 21.4432 69.0027 21.2659C69.0382 21.0887 69.0381 20.9115 69.0128 20.7342C68.9824 20.557 68.9267 20.3899 68.8356 20.2278C68.7444 20.0658 68.628 19.9189 68.4912 19.7822C68.233 19.5341 67.9393 19.372 67.6101 19.3062C67.281 19.2353 66.9366 19.2708 66.5771 19.4075C66.2176 19.5442 65.8631 19.7923 65.5086 20.1569C65.1592 20.5215 64.9212 20.8811 64.7946 21.2507C64.668 21.6153 64.6477 21.9597 64.7288 22.2838C64.8098 22.6079 64.9769 22.8965 65.2301 23.1446C65.3719 23.2814 65.5238 23.3928 65.6859 23.4738C65.8479 23.5548 66.0201 23.6105 66.1973 23.6358C66.3745 23.6612 66.5518 23.651 66.729 23.6105C66.9063 23.57 67.0784 23.489 67.2455 23.3776L67.9393 24.0511C67.6912 24.2384 67.4228 24.3752 67.1392 24.4562C66.8556 24.5372 66.567 24.5676 66.2733 24.5473C65.9795 24.5271 65.6909 24.4511 65.4073 24.3195C65.1238 24.1878 64.8604 24.0055 64.6123 23.7624H64.6174Z" fill="#60A5FA"/>
<path id="Vector_21" d="M66.9766 26.1576L72.1316 22.5977L74.3699 25.8436L73.6913 26.3146L71.9949 23.8586L70.4605 24.9169L72.0354 27.1957L71.3619 27.6616L69.787 25.3828L68.202 26.4817L69.9136 28.9579L69.2351 29.4238L66.9816 26.1576H66.9766Z" fill="#60A5FA"/>
</g>
<g id="Group_13">
<path id="Vector_22" d="M16.5977 61.8224L23.3377 59.7969L24.077 60.7995L20.1576 66.6635L19.5043 65.7773L21.7122 62.5516C21.8945 62.2934 22.1122 61.9946 22.3705 61.6553C22.6288 61.316 22.9377 60.916 23.3023 60.4552L23.4238 60.6223C22.8718 60.84 22.3908 61.0223 21.9907 61.1692C21.5907 61.316 21.2463 61.4376 20.9627 61.5287L17.2509 62.7036L16.5977 61.8174V61.8224ZM18.765 61.8174L19.4486 61.316L21.4894 64.0961L20.8058 64.5975L18.765 61.8174Z" fill="#60A5FA"/>
<path id="Vector_23" d="M22.141 68.6942L26.4554 63.6606L28.2582 65.2051C28.643 65.5394 28.9064 65.8888 29.0431 66.2534C29.1798 66.618 29.2051 66.9826 29.1241 67.337C29.0431 67.6915 28.8658 68.0257 28.6025 68.3346C28.3341 68.6435 28.0303 68.8714 27.691 69.0031C27.3517 69.1398 26.9871 69.1651 26.6073 69.0891C26.2276 69.0081 25.8427 68.8056 25.4477 68.4714L24.2121 67.413L24.7691 66.7597L25.9288 67.7523C26.1769 67.965 26.4149 68.0916 26.6428 68.1371C26.8707 68.1827 27.0833 68.1625 27.2808 68.0764C27.4783 67.9903 27.6606 67.8485 27.8176 67.6662C27.9797 67.4788 28.0911 67.2763 28.1417 67.0686C28.1974 66.861 28.1822 66.6483 28.1012 66.4306C28.0202 66.2129 27.8531 66.0002 27.5999 65.7875L26.6529 64.9773L22.9006 69.3525L22.1309 68.6942H22.141Z" fill="#60A5FA"/>
<path id="Vector_24" d="M27.1953 72.8317L32.3352 68.021L33.4442 68.5932L32.5377 75.5865L31.5604 75.0801L32.1073 71.2113C32.1529 70.8973 32.2187 70.5327 32.2997 70.1175C32.3807 69.7022 32.482 69.206 32.6036 68.6236L32.7859 68.7198C32.3858 69.1604 32.0415 69.5402 31.7478 69.8491C31.454 70.158 31.2009 70.4213 30.9882 70.6289L28.1828 73.333L27.2054 72.8266L27.1953 72.8317ZM29.1348 71.8645L29.5247 71.115L32.5884 72.695L32.1984 73.4444L29.1348 71.8645Z" fill="#60A5FA"/>
<path id="Vector_25" d="M37.7027 77.1053C37.1457 76.9837 36.6748 76.7407 36.2899 76.376C35.9101 76.0114 35.6468 75.5557 35.505 75.0037C35.3632 74.4518 35.3683 73.8289 35.5202 73.1402C35.6721 72.4465 35.9304 71.8793 36.295 71.4387C36.6545 70.9982 37.0849 70.6944 37.5863 70.5222C38.0876 70.3551 38.6143 70.3298 39.1763 70.4513C39.5156 70.5272 39.8296 70.6488 40.1081 70.8108C40.3866 70.9729 40.6246 71.1805 40.817 71.4185C41.0095 71.6565 41.1563 71.9299 41.2525 72.2338C41.3488 72.5376 41.3842 72.8668 41.3639 73.2212L40.3714 73.0035C40.3714 72.7908 40.3461 72.5933 40.2752 72.411C40.2094 72.2287 40.1132 72.0667 39.9866 71.9249C39.865 71.7831 39.7182 71.6616 39.546 71.5653C39.3738 71.4691 39.1865 71.3982 38.9839 71.3527C38.6143 71.2716 38.2598 71.2919 37.9256 71.4134C37.5913 71.535 37.2976 71.7578 37.0495 72.0819C36.8014 72.406 36.6191 72.8263 36.5026 73.3478C36.3861 73.8694 36.376 74.3302 36.4672 74.7303C36.5583 75.1303 36.7305 75.4544 36.9837 75.7025C37.2369 75.9507 37.5458 76.1178 37.9154 76.1988C38.118 76.2444 38.3155 76.2596 38.5079 76.2393C38.7003 76.2241 38.8826 76.1786 39.0599 76.1026C39.2371 76.0266 39.389 75.9203 39.5258 75.7836C39.6625 75.6468 39.7739 75.4797 39.86 75.2873L40.8575 75.5101C40.736 75.819 40.574 76.0874 40.3664 76.3203C40.1587 76.5533 39.9157 76.7406 39.6372 76.8875C39.3586 77.0344 39.0548 77.1255 38.7307 77.161C38.4066 77.1964 38.0623 77.1812 37.7078 77.1002L37.7027 77.1053Z" fill="#60A5FA"/>
<path id="Vector_26" d="M43.4957 77.8649L43.3691 71.2362L44.3819 71.216L44.4376 74.0214L47.7241 73.9555L47.6684 71.1501L48.6862 71.1299L48.8128 77.7585L47.795 77.7788L47.7393 74.8265L44.4528 74.8924L44.5085 77.8446L43.4957 77.8649Z" fill="#60A5FA"/>
<path id="Vector_27" d="M52.1499 77.2169L50.4434 70.806L54.4793 69.7324L54.7021 70.573L51.6486 71.3833L52.155 73.2923L54.9907 72.5378L55.2135 73.3784L52.3778 74.1329L52.9044 76.1079L55.9833 75.2875L56.2061 76.1332L52.1448 77.2118L52.1499 77.2169Z" fill="#60A5FA"/>
<path id="Vector_28" d="M62.37 73.3832L61.975 72.7654L62.613 69.5903C62.6738 69.2612 62.7244 68.9776 62.7498 68.7345C62.7801 68.4915 62.7801 68.2788 62.7498 68.0914C62.7244 67.904 62.6586 67.7268 62.5523 67.5597C62.4307 67.3723 62.2839 67.2407 62.1117 67.1596C61.9395 67.0786 61.7572 67.0533 61.5597 67.0736C61.3622 67.0989 61.1698 67.1698 60.9825 67.2913C60.785 67.4179 60.6381 67.5698 60.5419 67.7471C60.4457 67.9243 60.4052 68.1117 60.4204 68.3091C60.4356 68.5066 60.5065 68.7092 60.6331 68.9067L59.8127 69.4333C59.595 69.094 59.4835 68.7446 59.4734 68.3902C59.4633 68.0357 59.5544 67.6964 59.7367 67.3825C59.9191 67.0685 60.1824 66.795 60.5318 66.5722C60.8862 66.3444 61.2407 66.2127 61.6003 66.1823C61.9598 66.1519 62.289 66.2026 62.5979 66.3444C62.9017 66.4861 63.1549 66.7039 63.3473 67.0077C63.479 67.2103 63.5701 67.4382 63.6157 67.6812C63.6663 67.9243 63.6714 68.2281 63.6359 68.5978C63.6005 68.9675 63.5245 69.4333 63.403 70.0056L63.0435 71.8488L63.0739 71.8944L65.5754 70.2891L66.0464 71.0183L62.3598 73.3832H62.37Z" fill="#60A5FA"/>
<path id="Vector_29" d="M68.8107 68.8053C68.674 68.9268 68.5119 68.9825 68.3347 68.9724C68.1524 68.9623 68.0055 68.8863 67.884 68.7496C67.7625 68.6129 67.7118 68.4559 67.722 68.2786C67.7321 68.1014 67.8081 67.9495 67.9448 67.8279C68.0815 67.7064 68.2385 67.6507 68.4157 67.6608C68.593 67.671 68.7449 67.7419 68.8664 67.8786C68.9879 68.0153 69.0436 68.1774 69.0335 68.3546C69.0234 68.5318 68.9474 68.6837 68.8158 68.8053H68.8107Z" fill="#60A5FA"/>
<path id="Vector_30" d="M72.7758 64.6936C72.4568 65.0937 72.077 65.352 71.6415 65.4684C71.206 65.5849 70.73 65.5596 70.2186 65.3925C69.702 65.2254 69.1653 64.9215 68.5981 64.4708C68.036 64.0252 67.6208 63.5644 67.3423 63.0935C67.0688 62.6225 66.9372 62.1668 66.9524 61.711C66.9675 61.2603 67.1346 60.835 67.4537 60.4349C67.7727 60.0349 68.1525 59.7766 68.588 59.6601C69.0285 59.5437 69.5046 59.569 70.0211 59.7361C70.5376 59.9032 71.0744 60.207 71.6365 60.6577C72.1986 61.1084 72.6188 61.5642 72.8923 62.03C73.1708 62.4959 73.2974 62.9567 73.2822 63.4074C73.262 63.8581 73.0949 64.2885 72.7708 64.6936H72.7758ZM72.1023 64.1467C72.2948 63.9087 72.3758 63.6404 72.3555 63.3517C72.3302 63.058 72.2087 62.7542 71.9808 62.4301C71.7529 62.106 71.4339 61.7819 71.0187 61.4477C70.5984 61.1135 70.2084 60.8704 69.8388 60.7185C69.4742 60.5666 69.145 60.5159 68.8564 60.5564C68.5677 60.5969 68.3247 60.7387 68.1373 60.9767C67.9449 61.2147 67.8638 61.4831 67.8892 61.7718C67.9145 62.0655 68.036 62.3744 68.2639 62.6985C68.4867 63.0226 68.8108 63.3517 69.2311 63.6859C69.6463 64.0202 70.0413 64.2582 70.4059 64.405C70.7705 64.5519 71.0997 64.6025 71.3883 64.562C71.677 64.5215 71.92 64.3797 72.1074 64.1417L72.1023 64.1467Z" fill="#60A5FA"/>
</g>
</g>
</g>
</g>
</svg>
