<svg width="51" height="49" viewBox="0 0 51 49" fill="none" xmlns="http://www.w3.org/2000/svg">
<path d="M3.73088 17.5921C6.79526 8.49154 15.401 1.92004 25.5201 1.92004C35.6393 1.92004 44.245 8.49443 47.3094 17.5921H48.3742C45.2722 7.92728 36.2035 0.910156 25.5201 0.910156C14.8367 0.910156 5.76802 7.92728 2.66602 17.5921H3.73088Z" fill="#60A5FA"/>
<path d="M47.2866 32.3037C44.2019 41.3638 35.6136 47.9005 25.5234 47.9005C15.4332 47.9005 6.84482 41.3638 3.76018 32.3037H2.69531C5.82046 41.9309 14.8689 48.9104 25.5234 48.9104C36.1778 48.9104 45.2263 41.9309 48.3514 32.3037H47.2866Z" fill="#60A5FA"/>
<path d="M4.66842 17.592C7.69519 8.98914 15.8987 2.80539 25.5201 2.80539C35.1415 2.80539 43.3451 8.98914 46.3718 17.592H46.7277C43.6865 8.80105 35.3325 2.46973 25.5201 2.46973C15.7077 2.46973 7.35373 8.80105 4.3125 17.592H4.66842Z" fill="#60A5FA"/>
<path d="M46.348 32.3027C43.301 40.8651 35.1177 47.0141 25.5224 47.0141C15.927 47.0141 7.74373 40.8651 4.69381 32.3027H4.33789C7.40227 41.0532 15.736 47.3498 25.5195 47.3498C35.3029 47.3498 43.6396 41.0532 46.701 32.3027H46.3451H46.348Z" fill="#60A5FA"/>
<path d="M14.3031 17.5662C16.702 13.9115 20.8341 11.4924 25.5247 11.4924C30.2153 11.4924 34.3446 13.9115 36.7463 17.5662H37.1919C34.7468 13.6974 30.4324 11.1191 25.5276 11.1191C20.6229 11.1191 16.3084 13.6974 13.8633 17.5662H14.3089H14.3031Z" fill="#60A5FA"/>
<path d="M36.7138 32.3037C34.3092 35.9324 30.1915 38.3283 25.5241 38.3283C20.8566 38.3283 16.7389 35.9295 14.3343 32.3037H13.8887C16.3396 36.1465 20.6367 38.7045 25.5241 38.7045C30.4115 38.7045 34.7085 36.1494 37.1595 32.3037H36.7138Z" fill="#60A5FA"/>
<path d="M50.9371 18.2695L0 18.2695L0 19.2794L50.9371 19.2794V18.2695Z" fill="#60A5FA"/>
<path d="M50.9371 30.541L0 30.541L0 31.5509L50.9371 31.5509V30.541Z" fill="#60A5FA"/>
<path d="M16.831 29.1462C16.0873 29.1462 15.4218 28.9755 14.8286 28.6369C14.2354 28.2983 13.7666 27.8064 13.4223 27.1611C13.0779 26.5158 12.9043 25.7375 12.9043 24.8259C12.9043 23.9144 13.0779 23.1303 13.4223 22.4821C13.7666 21.8368 14.2354 21.342 14.8286 21.0034C15.4218 20.6649 16.0902 20.4941 16.831 20.4941C17.5718 20.4941 18.246 20.6649 18.8363 21.0034C19.4266 21.342 19.8954 21.8339 20.2397 22.4821C20.5841 23.1274 20.7577 23.9087 20.7577 24.8259C20.7577 25.7432 20.5841 26.5158 20.2397 27.1611C19.8954 27.8064 19.4266 28.2983 18.8363 28.6369C18.246 28.9755 17.5747 29.1462 16.831 29.1462ZM16.831 27.6125C17.2679 27.6125 17.6499 27.5055 17.9769 27.2942C18.3039 27.0801 18.5556 26.7676 18.7379 26.3509C18.9173 25.9342 19.0099 25.4278 19.0099 24.8288C19.0099 24.2299 18.9202 23.7119 18.7379 23.2952C18.5585 22.8785 18.3039 22.5631 17.9769 22.3519C17.6499 22.1377 17.2708 22.0336 16.831 22.0336C16.3912 22.0336 16.0179 22.1406 15.688 22.3548C15.3581 22.5689 15.1064 22.8843 14.9241 23.301C14.7447 23.7177 14.6521 24.227 14.6521 24.8288C14.6521 25.4307 14.7418 25.9342 14.9241 26.348C15.1035 26.7618 15.3581 27.0772 15.688 27.2913C16.0179 27.5055 16.3969 27.6125 16.831 27.6125Z" fill="#60A5FA"/>
<path d="M26.1114 29.1568C25.4372 29.1568 24.8498 29.0527 24.3521 28.8472C23.8544 28.6418 23.4637 28.3322 23.1859 27.927C22.9081 27.5219 22.7606 27.0184 22.7461 26.4223H24.4244C24.4476 26.7059 24.5315 26.9403 24.6791 27.1313C24.8266 27.3223 25.0205 27.4641 25.2665 27.5567C25.5124 27.6521 25.7873 27.6984 26.0969 27.6984C26.4066 27.6984 26.6757 27.655 26.9014 27.5653C27.13 27.4756 27.3065 27.3512 27.4367 27.1892C27.564 27.0271 27.6277 26.839 27.6277 26.6249C27.6277 26.4339 27.5698 26.2719 27.4541 26.1417C27.3383 26.0114 27.1734 25.8986 26.9593 25.806C26.7451 25.7105 26.4818 25.6295 26.1751 25.5571L25.2491 25.3256C24.5373 25.152 23.9788 24.88 23.5766 24.5096C23.1744 24.1392 22.9718 23.6473 22.9718 23.0368C22.9718 22.5275 23.1078 22.0847 23.3827 21.7028C23.6547 21.3237 24.0309 21.0257 24.5083 20.8144C24.9858 20.6032 25.5298 20.499 26.1375 20.499C26.7451 20.499 27.3007 20.6061 27.7637 20.8173C28.2267 21.0315 28.5884 21.3266 28.8488 21.7057C29.1092 22.0847 29.2424 22.5217 29.251 23.0136H27.5843C27.5554 22.6751 27.4107 22.4117 27.1531 22.2294C26.8956 22.0442 26.5513 21.9516 26.123 21.9516C25.8336 21.9516 25.5848 21.9922 25.3764 22.0761C25.1681 22.16 25.0118 22.2728 24.9048 22.4204C24.7977 22.568 24.7427 22.7358 24.7427 22.9239C24.7427 23.1323 24.8035 23.303 24.9279 23.4419C25.0523 23.5808 25.2173 23.6907 25.4256 23.7746C25.634 23.8586 25.8539 23.9309 26.0883 23.9859L26.8522 24.1711C27.2052 24.2492 27.5351 24.3563 27.8418 24.4923C28.1485 24.6283 28.4148 24.7932 28.6434 24.9929C28.872 25.1925 29.0514 25.424 29.1787 25.696C29.306 25.968 29.3668 26.2806 29.3668 26.6336C29.3668 27.1429 29.2395 27.5856 28.9819 27.9647C28.7244 28.3437 28.354 28.636 27.8679 28.8443C27.3817 29.0527 26.7972 29.154 26.1172 29.154L26.1114 29.1568Z" fill="#60A5FA"/>
<path d="M34.6622 29.1578C33.988 29.1578 33.4006 29.0537 32.9029 28.8482C32.4052 28.6428 32.0145 28.3331 31.7367 27.928C31.4589 27.5229 31.3113 27.0194 31.2969 26.4233H32.9752C32.9984 26.7069 33.0823 26.9413 33.2298 27.1323C33.3774 27.3232 33.5713 27.465 33.8173 27.5576C34.0632 27.6531 34.3381 27.6994 34.6477 27.6994C34.9574 27.6994 35.2265 27.656 35.4522 27.5663C35.6808 27.4766 35.8573 27.3522 35.9875 27.1901C36.1148 27.0281 36.1785 26.84 36.1785 26.6259C36.1785 26.4349 36.1206 26.2728 36.0049 26.1426C35.8891 26.0124 35.7242 25.8996 35.51 25.807C35.2959 25.7115 35.0326 25.6305 34.7259 25.5581L33.7999 25.3266C33.0881 25.153 32.5296 24.881 32.1274 24.5106C31.7251 24.1402 31.5226 23.6483 31.5226 23.0377C31.5226 22.5285 31.6586 22.0857 31.9335 21.7038C32.2055 21.3247 32.5817 21.0266 33.0591 20.8154C33.5366 20.6042 34.0806 20.5 34.6882 20.5C35.2959 20.5 35.8515 20.6071 36.3145 20.8183C36.7775 21.0324 37.1392 21.3276 37.3996 21.7067C37.66 22.0857 37.7931 22.5227 37.8018 23.0146H36.1351C36.1061 22.676 35.9615 22.4127 35.7039 22.2304C35.4464 22.0452 35.102 21.9526 34.6738 21.9526C34.3844 21.9526 34.1356 21.9931 33.9272 22.077C33.7189 22.161 33.5626 22.2738 33.4556 22.4214C33.3485 22.569 33.2935 22.7368 33.2935 22.9249C33.2935 23.1332 33.3543 23.304 33.4787 23.4428C33.6031 23.5817 33.7681 23.6917 33.9764 23.7756C34.1847 23.8595 34.4047 23.9319 34.6391 23.9869L35.403 24.1721C35.756 24.2502 36.0859 24.3572 36.3926 24.4932C36.6993 24.6292 36.9656 24.7942 37.1942 24.9938C37.4228 25.1935 37.6022 25.425 37.7295 25.697C37.8568 25.969 37.9176 26.2815 37.9176 26.6346C37.9176 27.1438 37.7902 27.5866 37.5327 27.9656C37.2752 28.3447 36.9048 28.637 36.4187 28.8453C35.9325 29.0537 35.348 29.1549 34.668 29.1549L34.6622 29.1578Z" fill="#60A5FA"/>
<path d="M12.8566 15.9546C12.6772 16.2064 12.4544 16.3858 12.194 16.4986C11.9335 16.6115 11.6499 16.6433 11.3432 16.597C11.0394 16.5507 10.7327 16.4147 10.423 16.1919C10.1134 15.9691 9.8877 15.7174 9.74591 15.4453C9.60413 15.1704 9.54626 14.8927 9.56941 14.6062C9.59255 14.3226 9.69383 14.0535 9.87613 13.8046C10.0555 13.5558 10.2784 13.3735 10.5388 13.2635C10.7992 13.1536 11.0828 13.1217 11.3866 13.168C11.6905 13.2143 12.0001 13.3503 12.3097 13.5732C12.6193 13.796 12.8421 14.0448 12.9839 14.3197C13.1257 14.5946 13.1836 14.8724 13.1604 15.156C13.1373 15.4396 13.036 15.7058 12.8537 15.9546H12.8566ZM12.4515 15.6624C12.5701 15.4974 12.6367 15.3209 12.6483 15.1299C12.6598 14.939 12.6135 14.748 12.5065 14.557C12.3994 14.3631 12.2287 14.1837 11.9943 14.0159C11.757 13.8452 11.5313 13.7381 11.3143 13.6976C11.0973 13.6571 10.9005 13.6715 10.724 13.7439C10.5475 13.8162 10.3999 13.932 10.2812 14.0969C10.1626 14.2618 10.0961 14.4412 10.0845 14.6322C10.0729 14.8232 10.1221 15.0142 10.2292 15.2081C10.3362 15.4019 10.5069 15.5813 10.7413 15.7521C10.9757 15.9199 11.1985 16.0241 11.4156 16.0646C11.6326 16.1051 11.8293 16.0906 12.0059 16.0183C12.1824 15.9459 12.3328 15.8273 12.4515 15.6624Z" fill="#60A5FA"/>
<path d="M14.1038 14.3025L11.6934 11.6577L12.6425 10.7925C12.845 10.6073 13.0505 10.4916 13.2559 10.4424C13.4614 10.3932 13.6553 10.4048 13.8405 10.4713C14.0257 10.5379 14.1935 10.6536 14.3411 10.8185C14.4886 10.9806 14.5899 11.16 14.6391 11.351C14.6883 11.542 14.6796 11.7387 14.6131 11.9384C14.5465 12.1381 14.4105 12.329 14.2051 12.5171L13.5569 13.1074L13.2444 12.766L13.852 12.2104C13.9822 12.0918 14.0662 11.9731 14.1067 11.8545C14.1472 11.7358 14.1501 11.6201 14.1153 11.5101C14.0806 11.3973 14.0199 11.2931 13.9302 11.1947C13.8405 11.0963 13.7392 11.024 13.6321 10.9806C13.525 10.9372 13.4093 10.9314 13.2878 10.9603C13.1662 10.9893 13.0418 11.0645 12.9087 11.186L12.411 11.6403L14.506 13.9379L14.1009 14.3083L14.1038 14.3025Z" fill="#60A5FA"/>
<path d="M16.3446 12.3487L14.4551 9.31039L16.3678 8.12109L16.6166 8.52042L15.1669 9.42035L15.7312 10.3261L17.0767 9.48979L17.3227 9.88912L15.9771 10.7254L16.5588 11.6629L18.0201 10.7543L18.2689 11.1536L16.3417 12.3487H16.3446Z" fill="#60A5FA"/>
<path d="M18.7082 10.9055L17.4668 7.54888L18.06 7.32896L20.0624 8.8597C20.129 8.9089 20.2042 8.97256 20.291 9.0449C20.3778 9.11724 20.4704 9.20116 20.5717 9.29375C20.673 9.38635 20.7771 9.49052 20.8842 9.60337L20.8205 9.62652C20.7598 9.50499 20.7019 9.38056 20.6498 9.25903C20.5977 9.13749 20.5485 9.02175 20.5051 8.91179C20.4617 8.80183 20.427 8.71213 20.3981 8.63689L19.692 6.72708L20.2129 6.5332L21.4543 9.88985L20.8611 10.1098L19.067 8.74107C18.9715 8.66583 18.876 8.5877 18.7805 8.51247C18.685 8.43434 18.5809 8.34463 18.4622 8.24046C18.3436 8.13629 18.2018 8.00897 18.0311 7.86139L18.1121 7.83245C18.1815 7.9945 18.2452 8.14787 18.306 8.28676C18.3667 8.42855 18.4188 8.55298 18.4622 8.66004C18.5056 8.76711 18.5403 8.85681 18.5664 8.92337L19.229 10.7145L18.7082 10.9055Z" fill="#60A5FA"/>
<path d="M24.4351 9.52458C24.1689 9.54194 23.9345 9.51879 23.732 9.44645C23.5294 9.377 23.3674 9.26704 23.2459 9.11657C23.1243 8.9661 23.0491 8.7838 23.023 8.56677L23.5728 8.52916C23.5931 8.65937 23.6423 8.76065 23.7204 8.84167C23.7985 8.9198 23.8969 8.97767 24.0185 9.00951C24.1371 9.04134 24.2644 9.05291 24.4004 9.04423C24.5509 9.03265 24.684 9.00082 24.7998 8.94584C24.9126 8.89086 25.0023 8.81563 25.066 8.72593C25.1296 8.63333 25.1557 8.52916 25.147 8.4163C25.1383 8.31213 25.1036 8.22822 25.0399 8.16745C24.9763 8.10668 24.8895 8.0546 24.7853 8.01987C24.6811 7.98225 24.5625 7.95332 24.4323 7.92728L24.0069 7.84336C23.7088 7.78549 23.4745 7.6871 23.2979 7.54531C23.1243 7.40352 23.0259 7.20965 23.0086 6.96658C22.9941 6.76113 23.0375 6.57594 23.1359 6.41389C23.2372 6.25185 23.379 6.12163 23.5642 6.02325C23.7493 5.92486 23.9606 5.86699 24.2008 5.84963C24.4438 5.83227 24.6638 5.8612 24.8547 5.93355C25.0457 6.00589 25.202 6.11295 25.3177 6.25474C25.4335 6.39653 25.5029 6.56147 25.5203 6.74956L24.9878 6.78718C24.9589 6.62513 24.875 6.5036 24.7332 6.42547C24.5943 6.34445 24.4207 6.31261 24.2181 6.32708C24.0734 6.33866 23.9519 6.36759 23.8477 6.41968C23.7436 6.47177 23.6654 6.54121 23.6134 6.62224C23.5613 6.70615 23.5381 6.79875 23.5439 6.89713C23.5526 7.00999 23.5931 7.09969 23.6683 7.16335C23.7436 7.22701 23.8304 7.2762 23.9345 7.31093C24.0387 7.34565 24.1342 7.3688 24.2268 7.38906L24.5798 7.45561C24.6956 7.47587 24.8142 7.5077 24.9386 7.54821C25.0631 7.58872 25.1788 7.6437 25.2859 7.71315C25.393 7.78259 25.4827 7.8723 25.555 7.98226C25.6273 8.09221 25.6678 8.22822 25.6794 8.38737C25.6939 8.58992 25.6534 8.77223 25.5608 8.93716C25.4682 9.1021 25.3264 9.2381 25.1354 9.34227C24.9444 9.44645 24.71 9.51011 24.4294 9.52747L24.4351 9.52458Z" fill="#60A5FA"/>
<path d="M27.6781 9.62315C27.3714 9.57975 27.1081 9.46979 26.8852 9.29038C26.6624 9.11097 26.5033 8.87659 26.402 8.58433C26.3007 8.29207 26.2776 7.9593 26.3297 7.58023C26.3817 7.20116 26.4975 6.88575 26.674 6.634C26.8505 6.38225 27.0704 6.19995 27.3309 6.0871C27.5942 5.97425 27.8778 5.93952 28.1845 5.98293C28.4912 6.02633 28.7545 6.13629 28.9745 6.3157C29.1944 6.49511 29.3564 6.72949 29.4548 7.02175C29.5561 7.31401 29.5792 7.64968 29.5272 8.02875C29.4751 8.40492 29.3593 8.72322 29.1828 8.97497C29.0063 9.22672 28.7893 9.40902 28.5288 9.52187C28.2684 9.63473 27.9848 9.66945 27.6781 9.62605V9.62315ZM27.7476 9.12834C27.9501 9.15727 28.1353 9.12834 28.3089 9.0531C28.4825 8.97497 28.6301 8.84186 28.7488 8.65956C28.8674 8.47726 28.9484 8.23998 28.9889 7.95351C29.0294 7.66415 29.015 7.41529 28.9513 7.20405C28.8848 6.99282 28.7806 6.82788 28.6359 6.70345C28.4912 6.58192 28.3176 6.50379 28.1151 6.47775C27.9125 6.44881 27.7244 6.47775 27.5479 6.55298C27.3743 6.63111 27.2267 6.76422 27.1052 6.94941C26.9836 7.13461 26.9055 7.36899 26.865 7.65836C26.8245 7.94483 26.8389 8.19079 26.9026 8.40203C26.9692 8.61037 27.0733 8.7782 27.2209 8.90263C27.3656 9.02706 27.5421 9.10229 27.7447 9.13123L27.7476 9.12834Z" fill="#60A5FA"/>
<path d="M31.0251 10.4856C30.756 10.3843 30.5419 10.2425 30.3798 10.0631C30.2178 9.8837 30.1165 9.68403 30.076 9.46122C30.0355 9.23841 30.0586 9.01271 30.1454 8.77832L30.9759 6.58203L31.4881 6.77591L30.6721 8.92879C30.6142 9.07926 30.5968 9.22684 30.62 9.36863C30.6431 9.51041 30.701 9.63774 30.7994 9.75348C30.8978 9.86633 31.0309 9.95604 31.1987 10.0197C31.3665 10.0834 31.5228 10.1036 31.6704 10.0834C31.818 10.0631 31.9453 10.0052 32.0552 9.91263C32.1652 9.82004 32.2491 9.6985 32.307 9.54803L33.123 7.39226L33.6381 7.58613L32.8076 9.78242C32.7179 10.0168 32.5848 10.202 32.4083 10.3409C32.2318 10.4798 32.0205 10.5637 31.7832 10.5897C31.5431 10.6187 31.2913 10.5811 31.0251 10.4798V10.4856Z" fill="#60A5FA"/>
<path d="M32.8984 11.2261L34.8198 8.20801L35.9021 8.8967C36.1335 9.04427 36.3014 9.20921 36.4055 9.38862C36.5097 9.56803 36.556 9.75322 36.5416 9.9471C36.5271 10.1381 36.4605 10.3291 36.3448 10.5143C36.2261 10.6994 36.0844 10.8383 35.9165 10.928C35.7487 11.0178 35.5635 11.0525 35.3609 11.0322C35.1555 11.0091 34.9385 10.9252 34.7041 10.7747L33.891 10.2567L34.1427 9.86318L34.9095 10.3522C35.0571 10.4477 35.1902 10.5027 35.3089 10.5171C35.4275 10.5316 35.5346 10.5171 35.6272 10.4622C35.7226 10.4101 35.8037 10.3291 35.876 10.2162C35.9484 10.1034 35.9889 9.9905 35.9975 9.88054C36.0062 9.77058 35.9802 9.66352 35.9165 9.55935C35.8529 9.45517 35.7458 9.35679 35.5982 9.2613L35.0311 8.89959L33.3614 11.5241L32.8984 11.229V11.2261ZM34.6144 12.317L34.7504 10.4882L35.2626 10.8152L35.1381 12.6527L34.6144 12.3199V12.317Z" fill="#60A5FA"/>
<path d="M36.4345 13.9348C36.2117 13.7207 36.0641 13.4747 35.9918 13.1999C35.9195 12.925 35.9281 12.6414 36.0178 12.3462C36.1104 12.0511 36.287 11.7675 36.5532 11.4955C36.8194 11.2206 37.0972 11.0325 37.3894 10.9341C37.6817 10.8328 37.9653 10.8155 38.2431 10.8791C38.5209 10.9428 38.7697 11.0817 38.9925 11.2958C39.1285 11.426 39.2356 11.5707 39.3166 11.7241C39.3976 11.8774 39.4497 12.0395 39.47 12.2044C39.4902 12.3694 39.4816 12.5372 39.4381 12.7021C39.3947 12.8671 39.3195 13.0291 39.2095 13.1883L38.816 12.8063C38.8797 12.7108 38.9202 12.6095 38.9404 12.5083C38.9607 12.407 38.9607 12.3057 38.9462 12.2044C38.9289 12.1032 38.897 12.0077 38.8449 11.9151C38.7929 11.8225 38.7263 11.7386 38.6482 11.6604C38.5006 11.5186 38.3328 11.426 38.1447 11.3884C37.9566 11.3479 37.7598 11.3682 37.5544 11.4463C37.3489 11.5244 37.1464 11.6662 36.9438 11.8746C36.7442 12.0829 36.6082 12.2883 36.5358 12.4996C36.4635 12.7079 36.4519 12.9047 36.4982 13.0899C36.5445 13.2751 36.64 13.44 36.7847 13.5818C36.8657 13.6599 36.9525 13.7236 37.0451 13.7699C37.1377 13.8162 37.2361 13.848 37.3374 13.8625C37.4386 13.877 37.5399 13.8712 37.6412 13.848C37.7425 13.8249 37.8409 13.7786 37.9363 13.7149L38.3328 14.0998C38.191 14.2068 38.0376 14.285 37.8756 14.3313C37.7135 14.3776 37.5486 14.3949 37.3808 14.3834C37.2129 14.3718 37.048 14.3284 36.8859 14.2531C36.7239 14.1779 36.5734 14.0737 36.4316 13.9348H36.4345Z" fill="#60A5FA"/>
<path d="M37.7832 15.3028L40.7289 13.2686L42.0079 15.1234L41.6202 15.3925L40.6508 13.9891L39.774 14.5939L40.674 15.896L40.2891 16.1622L39.3892 14.8601L38.4835 15.488L39.4615 16.903L39.0738 17.1692L37.7861 15.3028H37.7832Z" fill="#60A5FA"/>
<path d="M8.99414 35.6829L12.8456 34.5254L13.2681 35.0983L11.0284 38.4492L10.6551 37.9428L11.9167 36.0995C12.0209 35.952 12.1453 35.7812 12.2929 35.5874C12.4405 35.3935 12.617 35.1649 12.8253 34.9016L12.8948 34.9971C12.5794 35.1215 12.3045 35.2257 12.0759 35.3096C11.8473 35.3935 11.6505 35.4629 11.4885 35.515L9.36742 36.1864L8.99414 35.68V35.6829ZM10.2326 35.68L10.6233 35.3935L11.7894 36.9821L11.3988 37.2686L10.2326 35.68Z" fill="#60A5FA"/>
<path d="M12.162 39.6097L14.6274 36.7334L15.6576 37.616C15.8775 37.8069 16.028 38.0066 16.1061 38.2149C16.1842 38.4233 16.1987 38.6316 16.1524 38.8342C16.1061 39.0367 16.0048 39.2277 15.8543 39.4042C15.701 39.5808 15.5274 39.711 15.3335 39.7862C15.1396 39.8643 14.9313 39.8788 14.7142 39.8354C14.4972 39.7891 14.2773 39.6734 14.0516 39.4824L13.3455 38.8776L13.6638 38.5043L14.3265 39.0715C14.4683 39.193 14.6043 39.2653 14.7345 39.2914C14.8647 39.3174 14.9862 39.3059 15.0991 39.2567C15.2119 39.2075 15.3161 39.1265 15.4058 39.0223C15.4984 38.9152 15.5621 38.7995 15.591 38.6808C15.6229 38.5622 15.6142 38.4407 15.5679 38.3162C15.5216 38.1918 15.4261 38.0703 15.2814 37.9487L14.7403 37.4858L12.5961 39.9859L12.1562 39.6097H12.162Z" fill="#60A5FA"/>
<path d="M15.0508 41.9736L17.9878 39.2246L18.6216 39.5516L18.1036 43.5477L17.5451 43.2584L17.8576 41.0476C17.8837 40.8682 17.9213 40.6599 17.9676 40.4226C18.0139 40.1853 18.0718 39.9017 18.1412 39.569L18.2454 39.6239C18.0168 39.8757 17.82 40.0927 17.6522 40.2692C17.4843 40.4457 17.3397 40.5962 17.2181 40.7148L15.615 42.2601L15.0566 41.9707L15.0508 41.9736ZM16.159 41.4209L16.3819 40.9926L18.1325 41.8955L17.9097 42.3237L16.159 41.4209Z" fill="#60A5FA"/>
<path d="M21.0548 44.4159C20.7365 44.3464 20.4673 44.2075 20.2474 43.9992C20.0304 43.7909 19.8799 43.5304 19.7989 43.215C19.7179 42.8996 19.7208 42.5437 19.8076 42.1502C19.8944 41.7537 20.042 41.4296 20.2503 41.1779C20.4558 40.9261 20.7017 40.7525 20.9882 40.6541C21.2747 40.5586 21.5756 40.5442 21.8968 40.6136C22.0907 40.657 22.2701 40.7265 22.4292 40.8191C22.5884 40.9117 22.7244 41.0303 22.8343 41.1663C22.9443 41.3023 23.0282 41.4586 23.0832 41.6322C23.1382 41.8058 23.1584 41.9939 23.1469 42.1965L22.5797 42.072C22.5797 41.9505 22.5652 41.8376 22.5247 41.7335C22.4871 41.6293 22.4321 41.5367 22.3598 41.4557C22.2903 41.3747 22.2064 41.3052 22.108 41.2502C22.0097 41.1952 21.9026 41.1547 21.7868 41.1287C21.5756 41.0824 21.3731 41.094 21.1821 41.1634C20.9911 41.2329 20.8233 41.3602 20.6815 41.5454C20.5397 41.7306 20.4355 41.9708 20.369 42.2688C20.3024 42.5668 20.2966 42.8302 20.3487 43.0588C20.4008 43.2874 20.4992 43.4726 20.6438 43.6143C20.7885 43.7561 20.965 43.8516 21.1763 43.8979C21.292 43.924 21.4049 43.9326 21.5148 43.9211C21.6248 43.9124 21.729 43.8863 21.8303 43.8429C21.9315 43.7995 22.0183 43.7388 22.0965 43.6606C22.1746 43.5825 22.2383 43.487 22.2875 43.3771L22.8575 43.5044C22.788 43.6809 22.6955 43.8343 22.5768 43.9674C22.4582 44.1005 22.3193 44.2075 22.1601 44.2915C22.001 44.3754 21.8274 44.4275 21.6422 44.4477C21.457 44.468 21.2602 44.4593 21.0576 44.413L21.0548 44.4159Z" fill="#60A5FA"/>
<path d="M24.3653 44.8505L24.293 41.0627L24.8717 41.0511L24.9035 42.6542L26.7815 42.6166L26.7497 41.0135L27.3313 41.002L27.4037 44.7898L26.822 44.8013L26.7902 43.1143L24.9122 43.1519L24.944 44.8389L24.3653 44.8505Z" fill="#60A5FA"/>
<path d="M29.3091 44.48L28.334 40.8166L30.6402 40.2031L30.7676 40.6835L29.0227 41.1465L29.312 42.2374L30.9325 41.8062L31.0598 42.2866L29.4394 42.7177L29.7403 43.8462L31.4996 43.3775L31.627 43.8607L29.3062 44.4771L29.3091 44.48Z" fill="#60A5FA"/>
<path d="M35.1497 42.2895L34.924 41.9365L35.2886 40.1222C35.3234 39.9341 35.3523 39.7721 35.3668 39.6332C35.3841 39.4943 35.3841 39.3727 35.3668 39.2657C35.3523 39.1586 35.3147 39.0573 35.2539 38.9618C35.1845 38.8548 35.1006 38.7795 35.0022 38.7332C34.9038 38.6869 34.7996 38.6725 34.6868 38.6841C34.5739 38.6985 34.464 38.739 34.3569 38.8085C34.244 38.8808 34.1601 38.9676 34.1051 39.0689C34.0502 39.1702 34.027 39.2773 34.0357 39.3901C34.0444 39.503 34.0849 39.6187 34.1572 39.7316L33.6885 40.0325C33.564 39.8386 33.5004 39.639 33.4946 39.4364C33.4888 39.2338 33.5409 39.04 33.6451 38.8606C33.7492 38.6812 33.8997 38.5249 34.0993 38.3976C34.3019 38.2674 34.5045 38.1921 34.7099 38.1748C34.9154 38.1574 35.1035 38.1863 35.28 38.2674C35.4536 38.3484 35.5983 38.4728 35.7082 38.6464C35.7835 38.7622 35.8355 38.8924 35.8616 39.0313C35.8905 39.1702 35.8934 39.3438 35.8732 39.555C35.8529 39.7663 35.8095 40.0325 35.7401 40.3595L35.5346 41.4128L35.552 41.4388L36.9814 40.5215L37.2505 40.9382L35.144 42.2895H35.1497Z" fill="#60A5FA"/>
<path d="M38.8299 39.6732C38.7518 39.7426 38.6592 39.7745 38.5579 39.7687C38.4537 39.7629 38.3698 39.7195 38.3004 39.6414C38.2309 39.5632 38.202 39.4735 38.2078 39.3722C38.2135 39.271 38.2569 39.1842 38.3351 39.1147C38.4132 39.0453 38.5029 39.0134 38.6042 39.0192C38.7055 39.025 38.7923 39.0655 38.8617 39.1437C38.9312 39.2218 38.963 39.3144 38.9572 39.4157C38.9514 39.5169 38.908 39.6037 38.8328 39.6732H38.8299Z" fill="#60A5FA"/>
<path d="M41.096 37.3235C40.9137 37.5521 40.6966 37.6997 40.4478 37.7663C40.1989 37.8328 39.9269 37.8184 39.6347 37.7229C39.3395 37.6274 39.0328 37.4538 38.7087 37.1962C38.3875 36.9416 38.1502 36.6783 37.9911 36.4092C37.8348 36.14 37.7596 35.8796 37.7683 35.6192C37.7769 35.3616 37.8724 35.1186 38.0547 34.89C38.237 34.6614 38.454 34.5138 38.7029 34.4473C38.9546 34.3807 39.2267 34.3952 39.5218 34.4907C39.817 34.5861 40.1237 34.7598 40.4449 35.0173C40.7661 35.2748 41.0062 35.5353 41.1625 35.8015C41.3217 36.0677 41.394 36.331 41.3853 36.5886C41.3737 36.8461 41.2783 37.0921 41.0931 37.3235H41.096ZM40.7111 37.011C40.8211 36.875 40.8674 36.7217 40.8558 36.5567C40.8413 36.3889 40.7719 36.2153 40.6417 36.0301C40.5114 35.8449 40.3291 35.6597 40.0919 35.4687C39.8517 35.2777 39.6289 35.1388 39.4176 35.052C39.2093 34.9652 39.0212 34.9363 38.8563 34.9594C38.6913 34.9826 38.5524 35.0636 38.4454 35.1996C38.3354 35.3356 38.2891 35.489 38.3036 35.6539C38.318 35.8217 38.3875 35.9983 38.5177 36.1834C38.645 36.3686 38.8302 36.5567 39.0704 36.7477C39.3077 36.9387 39.5334 37.0747 39.7417 37.1586C39.9501 37.2425 40.1382 37.2715 40.3031 37.2483C40.468 37.2252 40.6069 37.1441 40.714 37.0081L40.7111 37.011Z" fill="#60A5FA"/>
</svg>
