<svg width="90" height="84" viewBox="0 0 90 84" fill="none" xmlns="http://www.w3.org/2000/svg">
<g id="Group">
<g id="Group_2">
<g id="Group_3">
<g id="Group_4">
<g id="Group_5">
<path id="Vector" d="M7.39086 29.1934C12.7535 13.2674 27.8136 1.7673 45.522 1.7673C63.2305 1.7673 78.2905 13.2725 83.6532 29.1934H85.5167C80.0882 12.28 64.218 0 45.522 0C26.8261 0 10.9558 12.28 5.52734 29.1934H7.39086Z" fill="#2563EB"/>
<path id="Vector_2" d="M83.6128 54.9385C78.2147 70.7936 63.1851 82.2329 45.5272 82.2329C27.8694 82.2329 12.8398 70.7936 7.44164 54.9385H5.57812C11.0471 71.7861 26.8819 84.0002 45.5272 84.0002C64.1725 84.0002 80.0073 71.7861 85.4764 54.9385H83.6128Z" fill="#2563EB"/>
</g>
<g id="Group_6">
<path id="Vector_3" d="M9.03107 29.1934C14.3279 14.1385 28.6841 3.3169 45.5215 3.3169C62.359 3.3169 76.7152 14.1385 82.012 29.1934H82.6349C77.3127 13.8093 62.6932 2.72949 45.5215 2.72949C28.3498 2.72949 13.7304 13.8093 8.4082 29.1934H9.03107Z" fill="#2563EB"/>
<path id="Vector_4" d="M81.9718 54.938C76.6395 69.9221 62.3188 80.6829 45.5269 80.6829C28.735 80.6829 14.4143 69.9221 9.07697 54.938H8.4541C13.8168 70.2512 28.4008 81.2703 45.5219 81.2703C62.6429 81.2703 77.232 70.2512 82.5896 54.938H81.9668H81.9718Z" fill="#2563EB"/>
</g>
</g>
<g id="Group_7">
<path id="Vector_5" d="M25.8908 29.1476C30.0888 22.7519 37.32 18.5185 45.5286 18.5185C53.7372 18.5185 60.9634 22.7519 65.1664 29.1476H65.9463C61.6673 22.3772 54.117 17.8652 45.5337 17.8652C36.9504 17.8652 29.4001 22.3772 25.1211 29.1476H25.9009H25.8908Z" fill="#2563EB"/>
<path id="Vector_6" d="M65.111 54.938C60.9029 61.2881 53.697 65.481 45.5289 65.481C37.3609 65.481 30.1549 61.2831 25.9468 54.938H25.167C29.4561 61.6628 36.976 66.1393 45.5289 66.1393C54.0819 66.1393 61.6018 61.6679 65.8909 54.938H65.111Z" fill="#2563EB"/>
</g>
</g>
<g id="Group_8">
<path id="Vector_7" d="M90.0002 30.3784L0.860352 30.3784L0.860352 32.1457L90.0002 32.1457V30.3784Z" fill="#2563EB"/>
<path id="Vector_8" d="M90.0002 51.854L0.860352 51.854L0.860352 53.6213L90.0002 53.6213V51.854Z" fill="#2563EB"/>
</g>
</g>
<g id="Group_9">
<g id="Group_10">
<path id="Vector_9" d="M30.3121 49.4135C29.0107 49.4135 27.846 49.1148 26.8079 48.5223C25.7698 47.9298 24.9495 47.0689 24.3469 45.9397C23.7443 44.8104 23.4404 43.4483 23.4404 41.8531C23.4404 40.258 23.7443 38.8857 24.3469 37.7514C24.9495 36.6221 25.7698 35.7562 26.8079 35.1637C27.846 34.5712 29.0158 34.2725 30.3121 34.2725C31.6085 34.2725 32.7884 34.5712 33.8214 35.1637C34.8545 35.7562 35.6748 36.617 36.2774 37.7514C36.88 38.8806 37.1839 40.2479 37.1839 41.8531C37.1839 43.4584 36.88 44.8104 36.2774 45.9397C35.6748 47.0689 34.8545 47.9298 33.8214 48.5223C32.7884 49.1148 31.6136 49.4135 30.3121 49.4135ZM30.3121 46.7297C31.0768 46.7297 31.7452 46.5423 32.3174 46.1726C32.8897 45.7979 33.3302 45.251 33.6493 44.5218C33.9632 43.7926 34.1253 42.9064 34.1253 41.8582C34.1253 40.81 33.9683 39.9035 33.6493 39.1743C33.3353 38.4451 32.8897 37.8932 32.3174 37.5235C31.7452 37.1488 31.0819 36.9665 30.3121 36.9665C29.5424 36.9665 28.8892 37.1538 28.3119 37.5286C27.7346 37.9033 27.2941 38.4552 26.975 39.1844C26.6611 39.9137 26.499 40.8049 26.499 41.8582C26.499 42.9115 26.656 43.7926 26.975 44.5167C27.289 45.2409 27.7346 45.7928 28.3119 46.1676C28.8892 46.5423 29.5526 46.7297 30.3121 46.7297Z" fill="#2563EB"/>
<path id="Vector_10" d="M46.5514 49.4334C45.3715 49.4334 44.3436 49.2511 43.4726 48.8916C42.6016 48.532 41.918 47.9902 41.4318 47.2813C40.9457 46.5723 40.6874 45.6912 40.6621 44.648H43.5992C43.6397 45.1443 43.7865 45.5545 44.0448 45.8887C44.3031 46.2229 44.6423 46.471 45.0728 46.6331C45.5032 46.8002 45.9843 46.8812 46.5261 46.8812C47.0679 46.8812 47.5389 46.8053 47.9339 46.6483C48.3339 46.4913 48.6428 46.2735 48.8707 45.99C49.0935 45.7064 49.2049 45.3772 49.2049 45.0025C49.2049 44.6683 49.1036 44.3847 48.9011 44.1568C48.6985 43.929 48.4099 43.7315 48.0351 43.5694C47.6604 43.4023 47.1996 43.2605 46.6628 43.1339L45.0424 42.7288C43.7967 42.425 42.8193 41.949 42.1154 41.3008C41.4116 40.6526 41.0571 39.7917 41.0571 38.7233C41.0571 37.832 41.2951 37.0572 41.7762 36.3888C42.2522 35.7254 42.9105 35.2039 43.746 34.8342C44.5816 34.4645 45.5336 34.2822 46.597 34.2822C47.6604 34.2822 48.6327 34.4696 49.4429 34.8393C50.2531 35.214 50.8861 35.7305 51.3419 36.3939C51.7976 37.0572 52.0306 37.8219 52.0458 38.6828H49.129C49.0783 38.0903 48.8251 37.6295 48.3744 37.3104C47.9237 36.9864 47.3211 36.8243 46.5717 36.8243C46.0653 36.8243 45.6298 36.8952 45.2652 37.0421C44.9006 37.1889 44.6271 37.3864 44.4398 37.6447C44.2524 37.9029 44.1562 38.1966 44.1562 38.5258C44.1562 38.8904 44.2625 39.1891 44.4803 39.4322C44.698 39.6753 44.9867 39.8677 45.3513 40.0146C45.7159 40.1614 46.1007 40.288 46.5109 40.3842L47.8478 40.7083C48.4656 40.845 49.0429 41.0324 49.5796 41.2704C50.1164 41.5084 50.5823 41.7971 50.9823 42.1465C51.3824 42.4959 51.6964 42.901 51.9192 43.377C52.142 43.853 52.2483 44.3999 52.2483 45.0177C52.2483 45.9089 52.0255 46.6837 51.5748 47.3471C51.1241 48.0105 50.476 48.5219 49.6252 48.8865C48.7745 49.2511 47.7516 49.4284 46.5616 49.4284L46.5514 49.4334Z" fill="#2563EB"/>
<path id="Vector_11" d="M61.5153 49.4339C60.3354 49.4339 59.3074 49.2516 58.4365 48.8921C57.5655 48.5325 56.8818 47.9907 56.3957 47.2817C55.9096 46.5728 55.6513 45.6917 55.626 44.6485H58.563C58.6036 45.1448 58.7504 45.555 59.0087 45.8892C59.2669 46.2234 59.6062 46.4715 60.0366 46.6336C60.4671 46.8007 60.9481 46.8817 61.49 46.8817C62.0318 46.8817 62.5028 46.8057 62.8977 46.6488C63.2978 46.4918 63.6067 46.274 63.8346 45.9905C64.0574 45.7069 64.1688 45.3777 64.1688 45.003C64.1688 44.6688 64.0675 44.3852 63.865 44.1573C63.6624 43.9294 63.3737 43.732 62.999 43.5699C62.6243 43.4028 62.1635 43.261 61.6267 43.1344L60.0063 42.7293C58.7605 42.4255 57.7832 41.9495 57.0793 41.3013C56.3754 40.6531 56.021 39.7922 56.021 38.7238C56.021 37.8325 56.259 37.0577 56.74 36.3893C57.216 35.7259 57.8743 35.2043 58.7099 34.8347C59.5454 34.465 60.4975 34.2827 61.5609 34.2827C62.6243 34.2827 63.5966 34.4701 64.4068 34.8397C65.217 35.2145 65.85 35.731 66.3057 36.3944C66.7615 37.0577 66.9944 37.8224 67.0096 38.6832H64.0928C64.0422 38.0908 63.789 37.63 63.3383 37.3109C62.8876 36.9868 62.285 36.8248 61.5356 36.8248C61.0292 36.8248 60.5937 36.8957 60.2291 37.0425C59.8645 37.1894 59.591 37.3869 59.4037 37.6451C59.2163 37.9034 59.1201 38.1971 59.1201 38.5263C59.1201 38.8909 59.2264 39.1896 59.4442 39.4327C59.6619 39.6758 59.9506 39.8682 60.3152 40.0151C60.6798 40.1619 61.0646 40.2885 61.4748 40.3847L62.8117 40.7088C63.4295 40.8455 64.0067 41.0329 64.5435 41.2709C65.0803 41.5089 65.5462 41.7975 65.9462 42.1469C66.3463 42.4964 66.6602 42.9015 66.883 43.3775C67.1058 43.8535 67.2122 44.4004 67.2122 45.0182C67.2122 45.9094 66.9894 46.6842 66.5387 47.3476C66.088 48.0109 65.4398 48.5224 64.5891 48.887C63.7384 49.2516 62.7155 49.4288 61.5254 49.4288L61.5153 49.4339Z" fill="#2563EB"/>
</g>
<g id="Group_11">
<g id="Group_12">
<path id="Vector_12" d="M23.3589 26.3276C23.0449 26.7681 22.655 27.0821 22.1993 27.2796C21.7435 27.4771 21.2473 27.5328 20.7105 27.4518C20.1788 27.3707 19.642 27.1327 19.1002 26.7428C18.5583 26.3529 18.1633 25.9123 17.9152 25.4363C17.6671 24.9553 17.5658 24.4691 17.6063 23.9678C17.6468 23.4715 17.8241 23.0006 18.1431 22.5651C18.4571 22.1296 18.847 21.8106 19.3027 21.6182C19.7585 21.4257 20.2547 21.37 20.7865 21.451C21.3182 21.5321 21.86 21.7701 22.4018 22.16C22.9437 22.5499 23.3336 22.9854 23.5817 23.4665C23.8299 23.9476 23.9311 24.4337 23.8906 24.93C23.8501 25.4262 23.6729 25.8921 23.3539 26.3276H23.3589ZM22.65 25.8161C22.8576 25.5275 22.974 25.2186 22.9943 24.8844C23.0146 24.5502 22.9335 24.2159 22.7462 23.8817C22.5588 23.5424 22.26 23.2285 21.8499 22.9348C21.4346 22.636 21.0396 22.4486 20.6599 22.3777C20.2801 22.3068 19.9357 22.3322 19.6268 22.4588C19.3179 22.5854 19.0597 22.7879 18.852 23.0766C18.6444 23.3652 18.528 23.6792 18.5077 24.0134C18.4874 24.3476 18.5735 24.6818 18.7609 25.0211C18.9483 25.3604 19.247 25.6743 19.6572 25.9731C20.0674 26.2668 20.4573 26.4491 20.8371 26.52C21.2169 26.5909 21.5612 26.5656 21.8701 26.439C22.179 26.3124 22.4423 26.1048 22.65 25.8161Z" fill="#2563EB"/>
<path id="Vector_13" d="M25.5415 23.4361L21.3232 18.8077L22.9842 17.2936C23.3387 16.9695 23.6982 16.767 24.0577 16.6809C24.4173 16.5948 24.7566 16.6151 25.0807 16.7315C25.4048 16.848 25.6984 17.0506 25.9567 17.3392C26.215 17.6228 26.3922 17.9367 26.4783 18.271C26.5644 18.6052 26.5492 18.9495 26.4327 19.2989C26.3162 19.6483 26.0782 19.9826 25.7187 20.3117L24.5844 21.3447L24.0375 20.7472L25.1009 19.7749C25.3288 19.5673 25.4756 19.3597 25.5465 19.1521C25.6174 18.9445 25.6225 18.7419 25.5617 18.5495C25.501 18.352 25.3946 18.1697 25.2376 17.9975C25.0807 17.8253 24.9034 17.6987 24.7161 17.6228C24.5287 17.5468 24.3261 17.5367 24.1135 17.5873C23.9008 17.638 23.683 17.7696 23.4501 17.9823L22.5791 18.7773L26.2454 22.7981L25.5364 23.4463L25.5415 23.4361Z" fill="#2563EB"/>
<path id="Vector_14" d="M29.462 20.0175L26.1553 14.7004L29.5025 12.6191L29.938 13.318L27.401 14.8928L28.3885 16.4778L30.7432 15.0144L31.1736 15.7132L28.8189 17.1767L29.8367 18.8174L32.394 17.2273L32.8295 17.9261L29.4569 20.0175H29.462Z" fill="#2563EB"/>
<path id="Vector_15" d="M33.5992 17.4914L31.4268 11.6173L32.4649 11.2324L35.9691 13.9112C36.0855 13.9973 36.2172 14.1087 36.3691 14.2353C36.521 14.3619 36.6831 14.5088 36.8603 14.6708C37.0375 14.8329 37.2199 15.0152 37.4072 15.2126L37.2958 15.2532C37.1895 15.0405 37.0882 14.8227 36.997 14.61C36.9059 14.3974 36.8198 14.1948 36.7439 14.0024C36.6679 13.8099 36.6071 13.653 36.5565 13.5213L35.3209 10.1791L36.2324 9.83984L38.4048 15.714L37.3667 16.0988L34.2271 13.7036C34.06 13.5719 33.8929 13.4352 33.7258 13.3036C33.5586 13.1668 33.3764 13.0098 33.1687 12.8275C32.9611 12.6452 32.713 12.4224 32.4142 12.1642L32.556 12.1135C32.6775 12.3971 32.7889 12.6655 32.8953 12.9086C33.0016 13.1567 33.0928 13.3744 33.1687 13.5618C33.2447 13.7492 33.3055 13.9062 33.351 14.0226L34.5107 17.1572L33.5992 17.4914Z" fill="#2563EB"/>
<path id="Vector_16" d="M43.6204 15.0755C43.1545 15.1059 42.7443 15.0653 42.3899 14.9388C42.0354 14.8172 41.7518 14.6248 41.5391 14.3615C41.3265 14.0981 41.1948 13.7791 41.1492 13.3993L42.1113 13.3335C42.1468 13.5614 42.2329 13.7386 42.3696 13.8804C42.5063 14.0171 42.6785 14.1184 42.8912 14.1741C43.0988 14.2298 43.3216 14.2501 43.5596 14.2349C43.823 14.2146 44.0559 14.1589 44.2585 14.0627C44.4559 13.9665 44.6129 13.8348 44.7243 13.6778C44.8357 13.5158 44.8813 13.3335 44.8661 13.136C44.8509 12.9537 44.7902 12.8068 44.6788 12.7005C44.5673 12.5942 44.4154 12.503 44.2331 12.4422C44.0508 12.3764 43.8432 12.3258 43.6153 12.2802L42.8709 12.1333C42.3494 12.0321 41.9392 11.8599 41.6303 11.6118C41.3265 11.3636 41.1543 11.0244 41.1239 10.599C41.0986 10.2395 41.1745 9.91536 41.3467 9.63178C41.5239 9.34821 41.7721 9.12033 42.0962 8.94815C42.4202 8.77598 42.7899 8.6747 43.2102 8.64432C43.6356 8.61394 44.0205 8.66458 44.3547 8.79117C44.6889 8.91777 44.9623 9.10514 45.1649 9.35327C45.3674 9.6014 45.489 9.89004 45.5194 10.2192L44.5876 10.285C44.537 10.0014 44.3901 9.78877 44.142 9.65204C43.8989 9.51025 43.5951 9.45455 43.2406 9.47987C42.9874 9.50012 42.7747 9.55076 42.5924 9.64191C42.4101 9.73306 42.2734 9.8546 42.1823 9.99639C42.0911 10.1432 42.0506 10.3053 42.0607 10.4775C42.0759 10.6749 42.1468 10.8319 42.2785 10.9433C42.4101 11.0547 42.562 11.1408 42.7443 11.2016C42.9266 11.2624 43.0938 11.3029 43.2558 11.3383L43.8736 11.4548C44.0761 11.4902 44.2838 11.5459 44.5015 11.6168C44.7193 11.6877 44.9218 11.7839 45.1092 11.9055C45.2965 12.027 45.4535 12.184 45.5801 12.3764C45.7067 12.5688 45.7776 12.8069 45.7979 13.0854C45.8232 13.4398 45.7523 13.7589 45.5903 14.0475C45.4282 14.3361 45.1801 14.5742 44.8459 14.7565C44.5117 14.9388 44.1015 15.0502 43.6103 15.0805L43.6204 15.0755Z" fill="#2563EB"/>
<path id="Vector_17" d="M49.2965 15.2477C48.7598 15.1718 48.299 14.9794 47.909 14.6654C47.5191 14.3514 47.2406 13.9413 47.0634 13.4298C46.8861 12.9183 46.8456 12.336 46.9368 11.6726C47.0279 11.0093 47.2305 10.4573 47.5394 10.0167C47.8483 9.57617 48.2331 9.25715 48.6889 9.05965C49.1497 8.86216 49.646 8.80139 50.1827 8.87735C50.7195 8.95331 51.1803 9.14574 51.5652 9.4597C51.95 9.77366 52.2336 10.1838 52.4058 10.6953C52.583 11.2067 52.6235 11.7942 52.5324 12.4575C52.4412 13.1158 52.2387 13.6729 51.9298 14.1134C51.6209 14.554 51.2411 14.873 50.7853 15.0705C50.3296 15.268 49.8333 15.3288 49.2965 15.2528V15.2477ZM49.4181 14.3818C49.7726 14.4325 50.0967 14.3818 50.4005 14.2502C50.7043 14.1134 50.9626 13.8805 51.1702 13.5615C51.3778 13.2424 51.5196 12.8272 51.5905 12.3259C51.6614 11.8195 51.6361 11.384 51.5247 11.0143C51.4082 10.6447 51.2259 10.356 50.9727 10.1383C50.7195 9.92558 50.4157 9.78886 50.0612 9.74328C49.7067 9.69264 49.3776 9.74328 49.0687 9.87494C48.7648 10.0117 48.5066 10.2446 48.2939 10.5687C48.0812 10.8928 47.9445 11.303 47.8736 11.8094C47.8027 12.3107 47.828 12.7411 47.9394 13.1108C48.0559 13.4754 48.2382 13.7691 48.4965 13.9868C48.7497 14.2046 49.0586 14.3362 49.413 14.3869L49.4181 14.3818Z" fill="#2563EB"/>
<path id="Vector_18" d="M55.1548 16.7565C54.6838 16.5793 54.3091 16.3311 54.0255 16.0172C53.7419 15.7032 53.5647 15.3538 53.4938 14.9639C53.4229 14.574 53.4634 14.179 53.6153 13.7688L55.0687 9.92529L55.965 10.2646L54.537 14.0321C54.4357 14.2954 54.4053 14.5537 54.4458 14.8018C54.4863 15.05 54.5876 15.2728 54.7598 15.4753C54.9319 15.6728 55.1649 15.8298 55.4586 15.9412C55.7523 16.0526 56.0258 16.0881 56.284 16.0526C56.5423 16.0172 56.7651 15.9159 56.9575 15.7538C57.1499 15.5918 57.2968 15.3791 57.3981 15.1158L58.8261 11.3432L59.7275 11.6825L58.2741 15.526C58.1171 15.9361 57.8842 16.2602 57.5753 16.5033C57.2664 16.7464 56.8967 16.8932 56.4815 16.9388C56.0612 16.9894 55.6206 16.9236 55.1548 16.7464V16.7565Z" fill="#2563EB"/>
<path id="Vector_19" d="M58.4326 18.0531L61.7951 12.7715L63.6889 13.9767C64.0941 14.235 64.3878 14.5236 64.5701 14.8376C64.7524 15.1515 64.8334 15.4756 64.8081 15.8149C64.7827 16.1491 64.6663 16.4833 64.4637 16.8074C64.2561 17.1315 64.008 17.3746 63.7143 17.5316C63.4206 17.6885 63.0965 17.7493 62.742 17.7139C62.3825 17.6733 62.0027 17.5265 61.5925 17.2632L60.1695 16.3567L60.6101 15.668L61.952 16.5238C62.2103 16.6909 62.4432 16.7872 62.6509 16.8125C62.8585 16.8378 63.0458 16.8125 63.2079 16.7163C63.375 16.6251 63.5168 16.4833 63.6434 16.2858C63.77 16.0883 63.8409 15.8908 63.8561 15.6984C63.8712 15.506 63.8257 15.3186 63.7143 15.1363C63.6029 14.954 63.4155 14.7819 63.1572 14.6147L62.1647 13.9818L59.2428 18.5747L58.4326 18.0582V18.0531ZM61.4355 19.9622L61.6735 16.7618L62.5698 17.3341L62.3521 20.5496L61.4355 19.9673V19.9622Z" fill="#2563EB"/>
<path id="Vector_20" d="M64.6193 22.7927C64.2294 22.418 63.9711 21.9875 63.8445 21.5065C63.7179 21.0254 63.7331 20.5291 63.8901 20.0126C64.0522 19.4961 64.3611 18.9998 64.8269 18.5238C65.2928 18.0428 65.7789 17.7136 66.2904 17.5414C66.8019 17.3642 67.2981 17.3338 67.7843 17.4452C68.2704 17.5566 68.7059 17.7997 69.0958 18.1744C69.3338 18.4023 69.5212 18.6555 69.663 18.9239C69.8047 19.1923 69.8959 19.4759 69.9313 19.7645C69.9668 20.0531 69.9516 20.3468 69.8756 20.6355C69.7997 20.9241 69.668 21.2077 69.4756 21.4862L68.7869 20.8178C68.8983 20.6507 68.9692 20.4734 69.0047 20.2962C69.0401 20.119 69.0401 19.9417 69.0148 19.7645C68.9844 19.5873 68.9287 19.4201 68.8375 19.2581C68.7464 19.0961 68.6299 18.9492 68.4932 18.8125C68.2349 18.5644 67.9412 18.4023 67.6121 18.3365C67.2829 18.2656 66.9386 18.301 66.579 18.4378C66.2195 18.5745 65.865 18.8226 65.5106 19.1872C65.1612 19.5518 64.9232 19.9113 64.7966 20.281C64.67 20.6456 64.6497 20.99 64.7307 21.3141C64.8117 21.6381 64.9789 21.9268 65.232 22.1749C65.3738 22.3116 65.5258 22.423 65.6878 22.5041C65.8499 22.5851 66.022 22.6408 66.1993 22.6661C66.3765 22.6914 66.5537 22.6813 66.731 22.6408C66.9082 22.6003 67.0804 22.5193 67.2475 22.4079L67.9412 23.0814C67.6931 23.2687 67.4247 23.4054 67.1411 23.4865C66.8576 23.5675 66.5689 23.5979 66.2752 23.5776C65.9815 23.5574 65.6929 23.4814 65.4093 23.3497C65.1257 23.2181 64.8624 23.0358 64.6142 22.7927H64.6193Z" fill="#2563EB"/>
<path id="Vector_21" d="M66.9785 25.1879L72.1336 21.6279L74.3718 24.8739L73.6933 25.3448L71.9968 22.8888L70.4625 23.9472L72.0373 26.226L71.3639 26.6918L69.789 24.4131L68.204 25.5119L69.9156 27.9882L69.237 28.4541L66.9836 25.1879H66.9785Z" fill="#2563EB"/>
</g>
<g id="Group_13">
<path id="Vector_22" d="M16.5996 60.8527L23.3397 58.8271L24.079 59.8298L20.1595 65.6938L19.5063 64.8076L21.7141 61.5819C21.8964 61.3237 22.1142 61.0249 22.3725 60.6856C22.6307 60.3463 22.9396 59.9463 23.3042 59.4855L23.4257 59.6526C22.8738 59.8703 22.3927 60.0526 21.9927 60.1995C21.5926 60.3463 21.2483 60.4679 20.9647 60.559L17.2528 61.7338L16.5996 60.8476V60.8527ZM18.767 60.8476L19.4506 60.3463L21.4913 63.1264L20.8077 63.6277L18.767 60.8476Z" fill="#2563EB"/>
<path id="Vector_23" d="M22.1429 67.7244L26.4574 62.6909L28.2601 64.2354C28.645 64.5696 28.9083 64.919 29.045 65.2836C29.1818 65.6482 29.2071 66.0128 29.1261 66.3673C29.045 66.7218 28.8678 67.056 28.6045 67.3649C28.3361 67.6738 28.0322 67.9017 27.693 68.0333C27.3537 68.1701 26.9891 68.1954 26.6093 68.1194C26.2295 68.0384 25.8446 67.8358 25.4497 67.5016L24.2141 66.4433L24.7711 65.79L25.9307 66.7826C26.1789 66.9952 26.4169 67.1218 26.6448 67.1674C26.8726 67.213 27.0853 67.1927 27.2828 67.1066C27.4803 67.0206 27.6626 66.8788 27.8196 66.6965C27.9816 66.5091 28.093 66.3065 28.1437 66.0989C28.1994 65.8913 28.1842 65.6786 28.1032 65.4609C28.0221 65.2431 27.855 65.0304 27.6018 64.8178L26.6549 64.0075L22.9025 68.3827L22.1328 67.7244H22.1429Z" fill="#2563EB"/>
<path id="Vector_24" d="M27.1982 71.862L32.3381 67.0513L33.4471 67.6235L32.5407 74.6167L31.5633 74.1103L32.1102 70.2415C32.1558 69.9276 32.2216 69.563 32.3026 69.1477C32.3837 68.7325 32.485 68.2362 32.6065 67.6539L32.7888 67.7501C32.3887 68.1906 32.0444 68.5704 31.7507 68.8793C31.457 69.1882 31.2038 69.4516 30.9911 69.6592L28.1857 72.3633L27.2084 71.8569L27.1982 71.862ZM29.1377 70.8948L29.5276 70.1453L32.5913 71.7252L32.2014 72.4747L29.1377 70.8948Z" fill="#2563EB"/>
<path id="Vector_25" d="M37.7047 76.1355C37.1477 76.014 36.6767 75.7709 36.2919 75.4063C35.9121 75.0417 35.6488 74.586 35.507 74.034C35.3652 73.482 35.3702 72.8592 35.5222 72.1705C35.6741 71.4767 35.9323 70.9096 36.2969 70.469C36.6565 70.0285 37.0869 69.7246 37.5882 69.5525C38.0896 69.3853 38.6162 69.36 39.1783 69.4816C39.5176 69.5575 39.8315 69.679 40.1101 69.8411C40.3886 70.0031 40.6266 70.2108 40.819 70.4488C41.0114 70.6868 41.1583 70.9602 41.2545 71.264C41.3507 71.5679 41.3861 71.897 41.3659 72.2515L40.3734 72.0338C40.3734 71.8211 40.3481 71.6236 40.2772 71.4413C40.2113 71.259 40.1151 71.0969 39.9885 70.9551C39.867 70.8134 39.7201 70.6918 39.548 70.5956C39.3758 70.4994 39.1884 70.4285 38.9859 70.3829C38.6162 70.3019 38.2617 70.3222 37.9275 70.4437C37.5933 70.5652 37.2996 70.788 37.0515 71.1121C36.8033 71.4362 36.621 71.8565 36.5046 72.3781C36.3881 72.8997 36.378 73.3605 36.4691 73.7606C36.5603 74.1606 36.7324 74.4847 36.9856 74.7328C37.2388 74.981 37.5477 75.1481 37.9174 75.2291C38.1199 75.2747 38.3174 75.2899 38.5099 75.2696C38.7023 75.2544 38.8846 75.2088 39.0618 75.1329C39.2391 75.0569 39.391 74.9506 39.5277 74.8138C39.6644 74.6771 39.7758 74.51 39.8619 74.3176L40.8595 74.5404C40.738 74.8493 40.5759 75.1177 40.3683 75.3506C40.1607 75.5836 39.9176 75.7709 39.6391 75.9178C39.3606 76.0646 39.0568 76.1558 38.7327 76.1912C38.4086 76.2267 38.0642 76.2115 37.7098 76.1305L37.7047 76.1355Z" fill="#2563EB"/>
<path id="Vector_26" d="M43.4977 76.8951L43.3711 70.2665L44.3839 70.2462L44.4396 73.0516L47.7261 72.9858L47.6703 70.1804L48.6882 70.1602L48.8148 76.7888L47.7969 76.8091L47.7412 73.8568L44.4548 73.9226L44.5105 76.8749L43.4977 76.8951Z" fill="#2563EB"/>
<path id="Vector_27" d="M52.1518 76.2471L50.4453 69.8362L54.4812 68.7627L54.7041 69.6033L51.6505 70.4135L52.1569 72.3226L54.9927 71.5681L55.2155 72.4087L52.3797 73.1632L52.9064 75.1381L55.9852 74.3178L56.208 75.1635L52.1468 76.2421L52.1518 76.2471Z" fill="#2563EB"/>
<path id="Vector_28" d="M62.3709 72.4134L61.976 71.7957L62.614 68.6206C62.6748 68.2914 62.7254 68.0079 62.7507 67.7648C62.7811 67.5217 62.7811 67.309 62.7507 67.1217C62.7254 66.9343 62.6596 66.7571 62.5533 66.59C62.4317 66.4026 62.2849 66.2709 62.1127 66.1899C61.9405 66.1089 61.7582 66.0836 61.5607 66.1038C61.3632 66.1292 61.1708 66.2 60.9834 66.3216C60.7859 66.4482 60.6391 66.6001 60.5429 66.7773C60.4467 66.9546 60.4061 67.1419 60.4213 67.3394C60.4365 67.5369 60.5074 67.7395 60.634 67.937L59.8137 68.4636C59.5959 68.1243 59.4845 67.7749 59.4744 67.4204C59.4643 67.066 59.5554 66.7267 59.7377 66.4127C59.92 66.0988 60.1833 65.8253 60.5327 65.6025C60.8872 65.3746 61.2417 65.243 61.6012 65.2126C61.9608 65.1822 62.2899 65.2328 62.5988 65.3746C62.9027 65.5164 63.1558 65.7342 63.3483 66.038C63.4799 66.2406 63.5711 66.4684 63.6167 66.7115C63.6673 66.9546 63.6724 67.2584 63.6369 67.6281C63.6015 67.9977 63.5255 68.4636 63.404 69.0358L63.0445 70.8791L63.0748 70.9247L65.5764 69.3194L66.0473 70.0486L62.3608 72.4134H62.3709Z" fill="#2563EB"/>
<path id="Vector_29" d="M68.8127 67.8356C68.6759 67.9571 68.5139 68.0128 68.3366 68.0027C68.1543 67.9925 68.0075 67.9166 67.886 67.7799C67.7644 67.6431 67.7138 67.4861 67.7239 67.3089C67.734 67.1317 67.81 66.9798 67.9467 66.8582C68.0835 66.7367 68.2404 66.681 68.4177 66.6911C68.5949 66.7012 68.7468 66.7721 68.8684 66.9089C68.9899 67.0456 69.0456 67.2076 69.0355 67.3849C69.0253 67.5621 68.9494 67.714 68.8177 67.8356H68.8127Z" fill="#2563EB"/>
<path id="Vector_30" d="M72.7778 63.7239C72.4588 64.124 72.079 64.3822 71.6435 64.4987C71.208 64.6152 70.732 64.5898 70.2205 64.4227C69.704 64.2556 69.1672 63.9518 68.6001 63.5011C68.038 63.0555 67.6227 62.5947 67.3442 62.1237C67.0708 61.6528 66.9391 61.197 66.9543 60.7413C66.9695 60.2906 67.1366 59.8652 67.4556 59.4652C67.7747 59.0651 68.1544 58.8069 68.5899 58.6904C69.0305 58.5739 69.5065 58.5993 70.023 58.7664C70.5395 58.9335 71.0763 59.2373 71.6384 59.688C72.2005 60.1387 72.6208 60.5944 72.8942 61.0603C73.1728 61.5262 73.2994 61.987 73.2842 62.4377C73.2639 62.8884 73.0968 63.3188 72.7727 63.7239H72.7778ZM72.1043 63.177C72.2967 62.939 72.3777 62.6706 72.3575 62.382C72.3322 62.0883 72.2106 61.7844 71.9828 61.4604C71.7549 61.1363 71.4359 60.8122 71.0206 60.478C70.6003 60.1437 70.2104 59.9007 69.8407 59.7488C69.4761 59.5968 69.147 59.5462 68.8583 59.5867C68.5697 59.6272 68.3266 59.769 68.1393 60.007C67.9468 60.245 67.8658 60.5134 67.8911 60.8021C67.9164 61.0958 68.038 61.4047 68.2659 61.7287C68.4887 62.0528 68.8128 62.382 69.2331 62.7162C69.6483 63.0504 70.0433 63.2884 70.4079 63.4353C70.7725 63.5821 71.1016 63.6328 71.3903 63.5923C71.6789 63.5517 71.922 63.41 72.1094 63.172L72.1043 63.177Z" fill="#2563EB"/>
</g>
</g>
</g>
</g>
</svg>
