<svg width="51" height="49" viewBox="0 0 51 49" fill="none" xmlns="http://www.w3.org/2000/svg">
<path d="M3.73173 17.5921C6.79612 8.49154 15.4019 1.92004 25.521 1.92004C35.6401 1.92004 44.2458 8.49443 47.3102 17.5921H48.3751C45.2731 7.92728 36.2044 0.910156 25.521 0.910156C14.8376 0.910156 5.76887 7.92728 2.66687 17.5921H3.73173Z" fill="#2563EB"/>
<path d="M47.2872 32.3037C44.2025 41.3638 35.6142 47.9005 25.524 47.9005C15.4338 47.9005 6.84543 41.3638 3.76079 32.3037H2.69592C5.82107 41.9309 14.8695 48.9104 25.524 48.9104C36.1784 48.9104 45.2269 41.9309 48.352 32.3037H47.2872Z" fill="#2563EB"/>
<path d="M4.66903 17.592C7.6958 8.98914 15.8993 2.80539 25.5207 2.80539C35.1421 2.80539 43.3457 8.98914 46.3724 17.592H46.7283C43.6871 8.80105 35.3331 2.46973 25.5207 2.46973C15.7083 2.46973 7.35434 8.80105 4.31311 17.592H4.66903Z" fill="#2563EB"/>
<path d="M46.3496 32.3027C43.3026 40.8651 35.1193 47.0141 25.5239 47.0141C15.9286 47.0141 7.74532 40.8651 4.6954 32.3027H4.33948C7.40386 41.0532 15.7376 47.3498 25.5211 47.3498C35.3045 47.3498 43.6411 41.0532 46.7026 32.3027H46.3467H46.3496Z" fill="#2563EB"/>
<path d="M14.3032 17.5662C16.7021 13.9115 20.8342 11.4924 25.5248 11.4924C30.2155 11.4924 34.3447 13.9115 36.7464 17.5662H37.1921C34.7469 13.6974 30.4325 11.1191 25.5277 11.1191C20.623 11.1191 16.3085 13.6974 13.8634 17.5662H14.309H14.3032Z" fill="#2563EB"/>
<path d="M36.7145 32.3037C34.3098 35.9324 30.1921 38.3283 25.5247 38.3283C20.8572 38.3283 16.7395 35.9295 14.3349 32.3037H13.8893C16.3402 36.1465 20.6373 38.7045 25.5247 38.7045C30.4121 38.7045 34.7092 36.1494 37.1601 32.3037H36.7145Z" fill="#2563EB"/>
<path d="M50.9371 18.2695L0 18.2695L0 19.2794L50.9371 19.2794V18.2695Z" fill="#2563EB"/>
<path d="M50.9371 30.541L0 30.541L0 31.5509L50.9371 31.5509V30.541Z" fill="#2563EB"/>
<path d="M16.8297 29.1462C16.086 29.1462 15.4204 28.9755 14.8272 28.6369C14.234 28.2983 13.7653 27.8064 13.4209 27.1611C13.0766 26.5158 12.903 25.7375 12.903 24.8259C12.903 23.9144 13.0766 23.1303 13.4209 22.4821C13.7653 21.8368 14.234 21.342 14.8272 21.0034C15.4204 20.6649 16.0889 20.4941 16.8297 20.4941C17.5704 20.4941 18.2446 20.6649 18.835 21.0034C19.4253 21.342 19.894 21.8339 20.2384 22.4821C20.5827 23.1274 20.7563 23.9087 20.7563 24.8259C20.7563 25.7432 20.5827 26.5158 20.2384 27.1611C19.894 27.8064 19.4253 28.2983 18.835 28.6369C18.2446 28.9755 17.5733 29.1462 16.8297 29.1462ZM16.8297 27.6125C17.2666 27.6125 17.6486 27.5055 17.9755 27.2942C18.3025 27.0801 18.5543 26.7676 18.7366 26.3509C18.916 25.9342 19.0086 25.4278 19.0086 24.8288C19.0086 24.2299 18.9189 23.7119 18.7366 23.2952C18.5572 22.8785 18.3025 22.5631 17.9755 22.3519C17.6486 22.1377 17.2695 22.0336 16.8297 22.0336C16.3898 22.0336 16.0165 22.1406 15.6867 22.3548C15.3568 22.5689 15.105 22.8843 14.9227 23.301C14.7433 23.7177 14.6507 24.227 14.6507 24.8288C14.6507 25.4307 14.7404 25.9342 14.9227 26.348C15.1021 26.7618 15.3568 27.0772 15.6867 27.2913C16.0165 27.5055 16.3956 27.6125 16.8297 27.6125Z" fill="#2563EB"/>
<path d="M26.1091 29.1568C25.4349 29.1568 24.8475 29.0527 24.3498 28.8472C23.852 28.6418 23.4614 28.3322 23.1836 27.927C22.9058 27.5219 22.7582 27.0184 22.7438 26.4223H24.4221C24.4452 26.7059 24.5292 26.9403 24.6767 27.1313C24.8243 27.3223 25.0182 27.4641 25.2641 27.5567C25.5101 27.6521 25.785 27.6984 26.0946 27.6984C26.4042 27.6984 26.6734 27.655 26.8991 27.5653C27.1277 27.4756 27.3042 27.3512 27.4344 27.1892C27.5617 27.0271 27.6254 26.839 27.6254 26.6249C27.6254 26.4339 27.5675 26.2719 27.4518 26.1417C27.336 26.0114 27.1711 25.8986 26.9569 25.806C26.7428 25.7105 26.4795 25.6295 26.1728 25.5571L25.2468 25.3256C24.5349 25.152 23.9765 24.88 23.5743 24.5096C23.172 24.1392 22.9695 23.6473 22.9695 23.0368C22.9695 22.5275 23.1055 22.0847 23.3804 21.7028C23.6524 21.3237 24.0286 21.0257 24.506 20.8144C24.9835 20.6032 25.5275 20.499 26.1351 20.499C26.7428 20.499 27.2984 20.6061 27.7614 20.8173C28.2244 21.0315 28.5861 21.3266 28.8465 21.7057C29.1069 22.0847 29.24 22.5217 29.2487 23.0136H27.582C27.553 22.6751 27.4084 22.4117 27.1508 22.2294C26.8933 22.0442 26.5489 21.9516 26.1207 21.9516C25.8313 21.9516 25.5825 21.9922 25.3741 22.0761C25.1658 22.16 25.0095 22.2728 24.9024 22.4204C24.7954 22.568 24.7404 22.7358 24.7404 22.9239C24.7404 23.1323 24.8012 23.303 24.9256 23.4419C25.05 23.5808 25.215 23.6907 25.4233 23.7746C25.6316 23.8586 25.8516 23.9309 26.0859 23.9859L26.8499 24.1711C27.2029 24.2492 27.5328 24.3563 27.8395 24.4923C28.1462 24.6283 28.4125 24.7932 28.6411 24.9929C28.8697 25.1925 29.0491 25.424 29.1764 25.696C29.3037 25.968 29.3645 26.2806 29.3645 26.6336C29.3645 27.1429 29.2371 27.5856 28.9796 27.9647C28.7221 28.3437 28.3517 28.636 27.8656 28.8443C27.3794 29.0527 26.7949 29.154 26.1149 29.154L26.1091 29.1568Z" fill="#2563EB"/>
<path d="M34.66 29.1578C33.9858 29.1578 33.3984 29.0537 32.9007 28.8482C32.403 28.6428 32.0123 28.3331 31.7345 27.928C31.4567 27.5229 31.3091 27.0194 31.2947 26.4233H32.973C32.9962 26.7069 33.0801 26.9413 33.2276 27.1323C33.3752 27.3232 33.5691 27.465 33.8151 27.5576C34.061 27.6531 34.3359 27.6994 34.6455 27.6994C34.9552 27.6994 35.2243 27.656 35.45 27.5663C35.6786 27.4766 35.8551 27.3522 35.9853 27.1901C36.1126 27.0281 36.1763 26.84 36.1763 26.6259C36.1763 26.4349 36.1184 26.2728 36.0027 26.1426C35.8869 26.0124 35.722 25.8996 35.5078 25.807C35.2937 25.7115 35.0304 25.6305 34.7237 25.5581L33.7977 25.3266C33.0859 25.153 32.5274 24.881 32.1252 24.5106C31.7229 24.1402 31.5204 23.6483 31.5204 23.0377C31.5204 22.5285 31.6564 22.0857 31.9313 21.7038C32.2033 21.3247 32.5795 21.0266 33.0569 20.8154C33.5344 20.6042 34.0784 20.5 34.686 20.5C35.2937 20.5 35.8493 20.6071 36.3123 20.8183C36.7753 21.0324 37.137 21.3276 37.3974 21.7067C37.6578 22.0857 37.7909 22.5227 37.7996 23.0146H36.1329C36.1039 22.676 35.9593 22.4127 35.7017 22.2304C35.4442 22.0452 35.0998 21.9526 34.6716 21.9526C34.3822 21.9526 34.1334 21.9931 33.925 22.077C33.7167 22.161 33.5604 22.2738 33.4534 22.4214C33.3463 22.569 33.2913 22.7368 33.2913 22.9249C33.2913 23.1332 33.3521 23.304 33.4765 23.4428C33.6009 23.5817 33.7659 23.6917 33.9742 23.7756C34.1826 23.8595 34.4025 23.9319 34.6369 23.9869L35.4008 24.1721C35.7538 24.2502 36.0837 24.3572 36.3904 24.4932C36.6971 24.6292 36.9634 24.7942 37.192 24.9938C37.4206 25.1935 37.6 25.425 37.7273 25.697C37.8546 25.969 37.9154 26.2815 37.9154 26.6346C37.9154 27.1438 37.7881 27.5866 37.5305 27.9656C37.273 28.3447 36.9026 28.637 36.4165 28.8453C35.9303 29.0537 35.3458 29.1549 34.6658 29.1549L34.66 29.1578Z" fill="#2563EB"/>
<path d="M12.8562 15.9546C12.6768 16.2064 12.454 16.3858 12.1936 16.4986C11.9332 16.6115 11.6496 16.6433 11.3429 16.597C11.039 16.5507 10.7323 16.4147 10.4227 16.1919C10.1131 15.9691 9.88734 15.7174 9.74555 15.4453C9.60376 15.1704 9.54589 14.8927 9.56904 14.6062C9.59219 14.3226 9.69347 14.0535 9.87577 13.8046C10.0552 13.5558 10.278 13.3735 10.5384 13.2635C10.7988 13.1536 11.0824 13.1217 11.3863 13.168C11.6901 13.2143 11.9997 13.3503 12.3093 13.5732C12.619 13.796 12.8418 14.0448 12.9836 14.3197C13.1253 14.5946 13.1832 14.8724 13.1601 15.156C13.1369 15.4396 13.0356 15.7058 12.8533 15.9546H12.8562ZM12.4511 15.6624C12.5698 15.4974 12.6363 15.3209 12.6479 15.1299C12.6595 14.939 12.6132 14.748 12.5061 14.557C12.399 14.3631 12.2283 14.1837 11.9939 14.0159C11.7566 13.8452 11.5309 13.7381 11.3139 13.6976C11.0969 13.6571 10.9001 13.6715 10.7236 13.7439C10.5471 13.8162 10.3995 13.932 10.2809 14.0969C10.1622 14.2618 10.0957 14.4412 10.0841 14.6322C10.0725 14.8232 10.1217 15.0142 10.2288 15.2081C10.3359 15.4019 10.5066 15.5813 10.741 15.7521C10.9754 15.9199 11.1982 16.0241 11.4152 16.0646C11.6322 16.1051 11.829 16.0906 12.0055 16.0183C12.182 15.9459 12.3325 15.8273 12.4511 15.6624Z" fill="#2563EB"/>
<path d="M14.1035 14.3025L11.6931 11.6577L12.6422 10.7925C12.8448 10.6073 13.0502 10.4916 13.2557 10.4424C13.4611 10.3932 13.655 10.4048 13.8402 10.4713C14.0254 10.5379 14.1932 10.6536 14.3408 10.8185C14.4884 10.9806 14.5897 11.16 14.6389 11.351C14.688 11.542 14.6794 11.7387 14.6128 11.9384C14.5463 12.1381 14.4103 12.329 14.2048 12.5171L13.5566 13.1074L13.2441 12.766L13.8518 12.2104C13.982 12.0918 14.0659 11.9731 14.1064 11.8545C14.1469 11.7358 14.1498 11.6201 14.1151 11.5101C14.0804 11.3973 14.0196 11.2931 13.9299 11.1947C13.8402 11.0963 13.7389 11.024 13.6319 10.9806C13.5248 10.9372 13.4091 10.9314 13.2875 10.9603C13.166 10.9893 13.0416 11.0645 12.9085 11.186L12.4107 11.6403L14.5058 13.9379L14.1006 14.3083L14.1035 14.3025Z" fill="#2563EB"/>
<path d="M16.3435 12.3487L14.454 9.31039L16.3667 8.12109L16.6155 8.52042L15.1658 9.42035L15.7301 10.3261L17.0756 9.48979L17.3216 9.88912L15.976 10.7254L16.5577 11.6629L18.019 10.7543L18.2678 11.1536L16.3406 12.3487H16.3435Z" fill="#2563EB"/>
<path d="M18.7077 10.9055L17.4663 7.54888L18.0595 7.32896L20.0619 8.8597C20.1285 8.9089 20.2037 8.97256 20.2905 9.0449C20.3773 9.11724 20.4699 9.20116 20.5712 9.29375C20.6725 9.38635 20.7767 9.49052 20.8837 9.60337L20.8201 9.62652C20.7593 9.50499 20.7014 9.38056 20.6493 9.25903C20.5972 9.13749 20.5481 9.02175 20.5046 8.91179C20.4612 8.80183 20.4265 8.71213 20.3976 8.63689L19.6915 6.72708L20.2124 6.5332L21.4538 9.88985L20.8606 10.1098L19.0665 8.74107C18.971 8.66583 18.8755 8.5877 18.78 8.51247C18.6845 8.43434 18.5804 8.34463 18.4617 8.24046C18.3431 8.13629 18.2013 8.00897 18.0306 7.86139L18.1116 7.83245C18.181 7.9945 18.2447 8.14787 18.3055 8.28676C18.3662 8.42855 18.4183 8.55298 18.4617 8.66004C18.5051 8.76711 18.5399 8.85681 18.5659 8.92337L19.2285 10.7145L18.7077 10.9055Z" fill="#2563EB"/>
<path d="M24.4343 9.52458C24.1681 9.54194 23.9337 9.51879 23.7311 9.44645C23.5286 9.377 23.3665 9.26704 23.245 9.11657C23.1235 8.9661 23.0482 8.7838 23.0222 8.56677L23.572 8.52916C23.5922 8.65937 23.6414 8.76065 23.7196 8.84167C23.7977 8.9198 23.8961 8.97767 24.0176 9.00951C24.1362 9.04134 24.2636 9.05291 24.3996 9.04423C24.55 9.03265 24.6832 9.00082 24.7989 8.94584C24.9118 8.89086 25.0014 8.81563 25.0651 8.72593C25.1288 8.63333 25.1548 8.52916 25.1461 8.4163C25.1375 8.31213 25.1027 8.22822 25.0391 8.16745C24.9754 8.10668 24.8886 8.0546 24.7844 8.01987C24.6803 7.98225 24.5616 7.95332 24.4314 7.92728L24.006 7.84336C23.708 7.78549 23.4736 7.6871 23.2971 7.54531C23.1235 7.40352 23.0251 7.20965 23.0077 6.96658C22.9933 6.76113 23.0367 6.57594 23.135 6.41389C23.2363 6.25185 23.3781 6.12163 23.5633 6.02325C23.7485 5.92486 23.9597 5.86699 24.1999 5.84963C24.443 5.83227 24.6629 5.8612 24.8539 5.93355C25.0449 6.00589 25.2011 6.11295 25.3169 6.25474C25.4326 6.39653 25.5021 6.56147 25.5194 6.74956L24.987 6.78718C24.958 6.62513 24.8741 6.5036 24.7323 6.42547C24.5934 6.34445 24.4198 6.31261 24.2173 6.32708C24.0726 6.33866 23.9511 6.36759 23.8469 6.41968C23.7427 6.47177 23.6646 6.54121 23.6125 6.62224C23.5604 6.70615 23.5373 6.79875 23.5431 6.89713C23.5517 7.00999 23.5922 7.09969 23.6675 7.16335C23.7427 7.22701 23.8295 7.2762 23.9337 7.31093C24.0379 7.34565 24.1334 7.3688 24.226 7.38906L24.579 7.45561C24.6947 7.47587 24.8134 7.5077 24.9378 7.54821C25.0622 7.58872 25.178 7.6437 25.285 7.71315C25.3921 7.78259 25.4818 7.8723 25.5541 7.98226C25.6265 8.09221 25.667 8.22822 25.6786 8.38737C25.693 8.58992 25.6525 8.77223 25.5599 8.93716C25.4673 9.1021 25.3255 9.2381 25.1346 9.34227C24.9436 9.44645 24.7092 9.51011 24.4285 9.52747L24.4343 9.52458Z" fill="#2563EB"/>
<path d="M27.6776 9.62315C27.3709 9.57975 27.1076 9.46979 26.8848 9.29038C26.6619 9.11097 26.5028 8.87659 26.4015 8.58433C26.3002 8.29207 26.2771 7.9593 26.3292 7.58023C26.3813 7.20116 26.497 6.88575 26.6735 6.634C26.85 6.38225 27.07 6.19995 27.3304 6.0871C27.5937 5.97425 27.8773 5.93952 28.184 5.98293C28.4907 6.02633 28.7541 6.13629 28.974 6.3157C29.1939 6.49511 29.3559 6.72949 29.4543 7.02175C29.5556 7.31401 29.5788 7.64968 29.5267 8.02875C29.4746 8.40492 29.3588 8.72322 29.1823 8.97497C29.0058 9.22672 28.7888 9.40902 28.5284 9.52187C28.2679 9.63473 27.9843 9.66945 27.6776 9.62605V9.62315ZM27.7471 9.12834C27.9496 9.15727 28.1348 9.12834 28.3084 9.0531C28.4821 8.97497 28.6296 8.84186 28.7483 8.65956C28.8669 8.47726 28.9479 8.23998 28.9884 7.95351C29.029 7.66415 29.0145 7.41529 28.9508 7.20405C28.8843 6.99282 28.7801 6.82788 28.6354 6.70345C28.4907 6.58192 28.3171 6.50379 28.1146 6.47775C27.912 6.44881 27.7239 6.47775 27.5474 6.55298C27.3738 6.63111 27.2262 6.76422 27.1047 6.94941C26.9831 7.13461 26.905 7.36899 26.8645 7.65836C26.824 7.94483 26.8385 8.19079 26.9021 8.40203C26.9687 8.61037 27.0728 8.7782 27.2204 8.90263C27.3651 9.02706 27.5416 9.10229 27.7442 9.13123L27.7471 9.12834Z" fill="#2563EB"/>
<path d="M31.0252 10.4856C30.7561 10.3843 30.542 10.2425 30.3799 10.0631C30.2179 9.8837 30.1166 9.68403 30.0761 9.46122C30.0356 9.23841 30.0587 9.01271 30.1455 8.77832L30.976 6.58203L31.4882 6.77591L30.6722 8.92879C30.6143 9.07926 30.597 9.22684 30.6201 9.36863C30.6433 9.51041 30.7011 9.63774 30.7995 9.75348C30.8979 9.86633 31.031 9.95604 31.1988 10.0197C31.3667 10.0834 31.5229 10.1036 31.6705 10.0834C31.8181 10.0631 31.9454 10.0052 32.0554 9.91263C32.1653 9.82004 32.2492 9.6985 32.3071 9.54803L33.1231 7.39226L33.6382 7.58613L32.8077 9.78242C32.718 10.0168 32.5849 10.202 32.4084 10.3409C32.2319 10.4798 32.0206 10.5637 31.7834 10.5897C31.5432 10.6187 31.2914 10.5811 31.0252 10.4798V10.4856Z" fill="#2563EB"/>
<path d="M32.8984 11.2261L34.8198 8.20801L35.9021 8.8967C36.1335 9.04427 36.3014 9.20921 36.4055 9.38862C36.5097 9.56803 36.556 9.75322 36.5416 9.9471C36.5271 10.1381 36.4605 10.3291 36.3448 10.5143C36.2261 10.6994 36.0844 10.8383 35.9165 10.928C35.7487 11.0178 35.5635 11.0525 35.3609 11.0322C35.1555 11.0091 34.9385 10.9252 34.7041 10.7747L33.891 10.2567L34.1427 9.86318L34.9095 10.3522C35.0571 10.4477 35.1902 10.5027 35.3089 10.5171C35.4275 10.5316 35.5346 10.5171 35.6272 10.4622C35.7226 10.4101 35.8037 10.3291 35.876 10.2162C35.9484 10.1034 35.9889 9.9905 35.9975 9.88054C36.0062 9.77058 35.9802 9.66352 35.9165 9.55935C35.8529 9.45517 35.7458 9.35679 35.5982 9.2613L35.0311 8.89959L33.3614 11.5241L32.8984 11.229V11.2261ZM34.6144 12.317L34.7504 10.4882L35.2626 10.8152L35.1381 12.6527L34.6144 12.3199V12.317Z" fill="#2563EB"/>
<path d="M36.4337 13.9348C36.2109 13.7207 36.0633 13.4747 35.9909 13.1999C35.9186 12.925 35.9273 12.6414 36.017 12.3462C36.1096 12.0511 36.2861 11.7675 36.5523 11.4955C36.8185 11.2206 37.0963 11.0325 37.3886 10.9341C37.6808 10.8328 37.9644 10.8155 38.2422 10.8791C38.52 10.9428 38.7689 11.0817 38.9917 11.2958C39.1277 11.426 39.2347 11.5707 39.3158 11.7241C39.3968 11.8774 39.4489 12.0395 39.4691 12.2044C39.4894 12.3694 39.4807 12.5372 39.4373 12.7021C39.3939 12.8671 39.3187 13.0291 39.2087 13.1883L38.8152 12.8063C38.8788 12.7108 38.9193 12.6095 38.9396 12.5083C38.9598 12.407 38.9598 12.3057 38.9454 12.2044C38.928 12.1032 38.8962 12.0077 38.8441 11.9151C38.792 11.8225 38.7255 11.7386 38.6473 11.6604C38.4997 11.5186 38.3319 11.426 38.1438 11.3884C37.9557 11.3479 37.759 11.3682 37.5535 11.4463C37.3481 11.5244 37.1455 11.6662 36.943 11.8746C36.7433 12.0829 36.6073 12.2883 36.535 12.4996C36.4626 12.7079 36.451 12.9047 36.4973 13.0899C36.5436 13.2751 36.6391 13.44 36.7838 13.5818C36.8648 13.6599 36.9516 13.7236 37.0442 13.7699C37.1368 13.8162 37.2352 13.848 37.3365 13.8625C37.4378 13.877 37.5391 13.8712 37.6403 13.848C37.7416 13.8249 37.84 13.7786 37.9355 13.7149L38.3319 14.0998C38.1901 14.2068 38.0368 14.285 37.8747 14.3313C37.7127 14.3776 37.5477 14.3949 37.3799 14.3834C37.2121 14.3718 37.0471 14.3284 36.8851 14.2531C36.723 14.1779 36.5726 14.0737 36.4308 13.9348H36.4337Z" fill="#2563EB"/>
<path d="M37.7819 15.3028L40.7276 13.2686L42.0066 15.1234L41.6189 15.3925L40.6495 13.9891L39.7727 14.5939L40.6726 15.896L40.2878 16.1622L39.3878 14.8601L38.4821 15.488L39.4602 16.903L39.0724 17.1692L37.7848 15.3028H37.7819Z" fill="#2563EB"/>
<path d="M8.99365 35.6829L12.8451 34.5254L13.2676 35.0983L11.0279 38.4492L10.6546 37.9428L11.9162 36.0995C12.0204 35.952 12.1448 35.7812 12.2924 35.5874C12.44 35.3935 12.6165 35.1649 12.8249 34.9016L12.8943 34.9971C12.5789 35.1215 12.304 35.2257 12.0754 35.3096C11.8468 35.3935 11.65 35.4629 11.488 35.515L9.36693 36.1864L8.99365 35.68V35.6829ZM10.2321 35.68L10.6228 35.3935L11.7889 36.9821L11.3983 37.2686L10.2321 35.68Z" fill="#2563EB"/>
<path d="M12.1615 39.6097L14.6269 36.7334L15.6571 37.616C15.877 37.8069 16.0275 38.0066 16.1056 38.2149C16.1837 38.4233 16.1982 38.6316 16.1519 38.8342C16.1056 39.0367 16.0043 39.2277 15.8539 39.4042C15.7005 39.5808 15.5269 39.711 15.333 39.7862C15.1391 39.8643 14.9308 39.8788 14.7138 39.8354C14.4967 39.7891 14.2768 39.6734 14.0511 39.4824L13.3451 38.8776L13.6634 38.5043L14.326 39.0715C14.4678 39.193 14.6038 39.2653 14.734 39.2914C14.8642 39.3174 14.9858 39.3059 15.0986 39.2567C15.2115 39.2075 15.3156 39.1265 15.4053 39.0223C15.4979 38.9152 15.5616 38.7995 15.5905 38.6808C15.6224 38.5622 15.6137 38.4407 15.5674 38.3162C15.5211 38.1918 15.4256 38.0703 15.2809 37.9487L14.7398 37.4858L12.5956 39.9859L12.1558 39.6097H12.1615Z" fill="#2563EB"/>
<path d="M15.0498 41.9736L17.9869 39.2246L18.6206 39.5516L18.1026 43.5477L17.5441 43.2584L17.8566 41.0476C17.8827 40.8682 17.9203 40.6599 17.9666 40.4226C18.0129 40.1853 18.0708 39.9017 18.1402 39.569L18.2444 39.6239C18.0158 39.8757 17.819 40.0927 17.6512 40.2692C17.4834 40.4457 17.3387 40.5962 17.2172 40.7148L15.6141 42.2601L15.0556 41.9707L15.0498 41.9736ZM16.1581 41.4209L16.3809 40.9926L18.1315 41.8955L17.9087 42.3237L16.1581 41.4209Z" fill="#2563EB"/>
<path d="M21.0537 44.4159C20.7354 44.3464 20.4662 44.2075 20.2463 43.9992C20.0293 43.7909 19.8788 43.5304 19.7978 43.215C19.7168 42.8996 19.7197 42.5437 19.8065 42.1502C19.8933 41.7537 20.0409 41.4296 20.2492 41.1779C20.4547 40.9261 20.7006 40.7525 20.9871 40.6541C21.2736 40.5586 21.5745 40.5442 21.8957 40.6136C22.0896 40.657 22.269 40.7265 22.4281 40.8191C22.5873 40.9117 22.7233 41.0303 22.8333 41.1663C22.9432 41.3023 23.0271 41.4586 23.0821 41.6322C23.1371 41.8058 23.1573 41.9939 23.1458 42.1965L22.5786 42.072C22.5786 41.9505 22.5641 41.8376 22.5236 41.7335C22.486 41.6293 22.431 41.5367 22.3587 41.4557C22.2892 41.3747 22.2053 41.3052 22.1069 41.2502C22.0086 41.1952 21.9015 41.1547 21.7857 41.1287C21.5745 41.0824 21.372 41.094 21.181 41.1634C20.99 41.2329 20.8222 41.3602 20.6804 41.5454C20.5386 41.7306 20.4344 41.9708 20.3679 42.2688C20.3013 42.5668 20.2955 42.8302 20.3476 43.0588C20.3997 43.2874 20.4981 43.4726 20.6428 43.6143C20.7874 43.7561 20.9639 43.8516 21.1752 43.8979C21.2909 43.924 21.4038 43.9326 21.5137 43.9211C21.6237 43.9124 21.7279 43.8863 21.8292 43.8429C21.9304 43.7995 22.0172 43.7388 22.0954 43.6606C22.1735 43.5825 22.2372 43.487 22.2864 43.3771L22.8564 43.5044C22.7869 43.6809 22.6944 43.8343 22.5757 43.9674C22.4571 44.1005 22.3182 44.2075 22.159 44.2915C21.9999 44.3754 21.8263 44.4275 21.6411 44.4477C21.4559 44.468 21.2591 44.4593 21.0566 44.413L21.0537 44.4159Z" fill="#2563EB"/>
<path d="M24.364 44.8505L24.2916 41.0627L24.8704 41.0511L24.9022 42.6542L26.7802 42.6166L26.7483 41.0135L27.33 41.002L27.4023 44.7898L26.8207 44.8013L26.7889 43.1143L24.9109 43.1519L24.9427 44.8389L24.364 44.8505Z" fill="#2563EB"/>
<path d="M29.3093 44.48L28.3341 40.8166L30.6404 40.2031L30.7677 40.6835L29.0228 41.1465L29.3122 42.2374L30.9326 41.8062L31.0599 42.2866L29.4395 42.7177L29.7404 43.8462L31.4998 43.3775L31.6271 43.8607L29.3064 44.4771L29.3093 44.48Z" fill="#2563EB"/>
<path d="M35.1488 42.2895L34.9231 41.9365L35.2877 40.1222C35.3224 39.9341 35.3513 39.7721 35.3658 39.6332C35.3832 39.4943 35.3832 39.3727 35.3658 39.2657C35.3513 39.1586 35.3137 39.0573 35.2529 38.9618C35.1835 38.8548 35.0996 38.7795 35.0012 38.7332C34.9028 38.6869 34.7986 38.6725 34.6858 38.6841C34.5729 38.6985 34.463 38.739 34.3559 38.8085C34.2431 38.8808 34.1591 38.9676 34.1042 39.0689C34.0492 39.1702 34.026 39.2773 34.0347 39.3901C34.0434 39.503 34.0839 39.6187 34.1562 39.7316L33.6875 40.0325C33.5631 39.8386 33.4994 39.639 33.4936 39.4364C33.4878 39.2338 33.5399 39.04 33.6441 38.8606C33.7482 38.6812 33.8987 38.5249 34.0984 38.3976C34.3009 38.2674 34.5035 38.1921 34.7089 38.1748C34.9144 38.1574 35.1025 38.1863 35.279 38.2674C35.4526 38.3484 35.5973 38.4728 35.7072 38.6464C35.7825 38.7622 35.8346 38.8924 35.8606 39.0313C35.8895 39.1702 35.8924 39.3438 35.8722 39.555C35.8519 39.7663 35.8085 40.0325 35.7391 40.3595L35.5336 41.4128L35.551 41.4388L36.9805 40.5215L37.2496 40.9382L35.143 42.2895H35.1488Z" fill="#2563EB"/>
<path d="M38.8299 39.6732C38.7518 39.7426 38.6592 39.7745 38.5579 39.7687C38.4537 39.7629 38.3698 39.7195 38.3004 39.6414C38.2309 39.5632 38.202 39.4735 38.2078 39.3722C38.2135 39.271 38.2569 39.1842 38.3351 39.1147C38.4132 39.0453 38.5029 39.0134 38.6042 39.0192C38.7055 39.025 38.7923 39.0655 38.8617 39.1437C38.9312 39.2218 38.963 39.3144 38.9572 39.4157C38.9514 39.5169 38.908 39.6037 38.8328 39.6732H38.8299Z" fill="#2563EB"/>
<path d="M41.0956 37.3235C40.9133 37.5521 40.6963 37.6997 40.4474 37.7663C40.1986 37.8328 39.9265 37.8184 39.6343 37.7229C39.3391 37.6274 39.0324 37.4538 38.7083 37.1962C38.3871 36.9416 38.1498 36.6783 37.9907 36.4092C37.8344 36.14 37.7592 35.8796 37.7679 35.6192C37.7766 35.3616 37.8721 35.1186 38.0544 34.89C38.2367 34.6614 38.4537 34.5138 38.7025 34.4473C38.9543 34.3807 39.2263 34.3952 39.5214 34.4907C39.8166 34.5861 40.1233 34.7598 40.4445 35.0173C40.7657 35.2748 41.0059 35.5353 41.1621 35.8015C41.3213 36.0677 41.3936 36.331 41.385 36.5886C41.3734 36.8461 41.2779 37.0921 41.0927 37.3235H41.0956ZM40.7107 37.011C40.8207 36.875 40.867 36.7217 40.8554 36.5567C40.8409 36.3889 40.7715 36.2153 40.6413 36.0301C40.5111 35.8449 40.3288 35.6597 40.0915 35.4687C39.8513 35.2777 39.6285 35.1388 39.4173 35.052C39.2089 34.9652 39.0208 34.9363 38.8559 34.9594C38.691 34.9826 38.5521 35.0636 38.445 35.1996C38.335 35.3356 38.2887 35.489 38.3032 35.6539C38.3177 35.8217 38.3871 35.9983 38.5173 36.1834C38.6447 36.3686 38.8299 36.5567 39.07 36.7477C39.3073 36.9387 39.533 37.0747 39.7414 37.1586C39.9497 37.2425 40.1378 37.2715 40.3027 37.2483C40.4677 37.2252 40.6066 37.1441 40.7136 37.0081L40.7107 37.011Z" fill="#2563EB"/>
</svg>
