<svg width="90" height="84" viewBox="0 0 90 84" fill="none" xmlns="http://www.w3.org/2000/svg">
<g id="Badge" clip-path="url(#clip0_3273_23825)">
<g id="Group">
<path id="Vector" d="M7.4 29.2C12.8 13.3 27.8 1.8 45.5 1.8C63.2 1.8 78.3 13.3 83.6 29.2H85.5C80.1 12.3 64.2 0 45.5 0C26.8 0 11 12.3 5.5 29.2H7.4Z" fill="#2563EB"/>
<path id="Vector_2" d="M83.6 54.8999C78.2 70.7999 63.2 82.1999 45.5 82.1999C27.8 82.1999 12.8 70.7999 7.4 54.8999H5.5C11 71.6999 26.8 83.9999 45.4 83.9999C64 83.9999 79.9 71.7999 85.3 54.8999H83.4H83.6Z" fill="#2563EB"/>
<path id="Vector_3" d="M9.00039 29.2002C14.3004 14.1002 28.7004 3.3002 45.5004 3.3002C62.3004 3.3002 76.7004 14.1002 82.0004 29.2002H82.6004C77.3004 13.8002 62.7004 2.7002 45.5004 2.7002C28.3004 2.7002 13.7004 13.8002 8.40039 29.2002H9.00039Z" fill="#2563EB"/>
<path id="Vector_4" d="M82.0006 54.8999C76.7006 69.8999 62.3006 80.5999 45.6006 80.5999C28.9006 80.5999 14.5006 69.7999 9.20059 54.8999H8.60059C14.0006 70.1999 28.5006 81.1999 45.7006 81.1999C62.9006 81.1999 77.4006 70.1999 82.8006 54.8999H82.2006H82.0006Z" fill="#2563EB"/>
<path id="Vector_5" d="M25.9006 29.0998C30.1006 22.6998 37.3006 18.4998 45.5006 18.4998C53.7006 18.4998 60.9006 22.6998 65.1006 29.0998H65.9006C61.6006 22.2998 54.1006 17.7998 45.5006 17.7998C36.9006 17.7998 29.4006 22.2998 25.1006 29.0998H25.9006Z" fill="#2563EB"/>
<path id="Vector_6" d="M65.1006 54.8999C60.9006 61.2999 53.7006 65.3999 45.5006 65.3999C37.3006 65.3999 30.1006 61.1999 25.9006 54.8999H25.1006C29.4006 61.5999 36.9006 66.0999 45.5006 66.0999C54.1006 66.0999 61.6006 61.5999 65.9006 54.8999H65.1006Z" fill="#2563EB"/>
<path id="Vector_7" d="M90.0004 30.3999H0.900391V32.1999H90.0004V30.3999Z" fill="#2563EB"/>
<path id="Vector_8" d="M90.0004 51.8999H0.900391V53.6999H90.0004V51.8999Z" fill="#2563EB"/>
<path id="Vector_9" d="M30.3004 49.4002C29.0004 49.4002 27.8004 49.1002 26.8004 48.5002C25.8004 47.9002 24.9004 47.0002 24.3004 45.9002C23.7004 44.8002 23.4004 43.4002 23.4004 41.8002C23.4004 40.2002 23.7004 38.8002 24.3004 37.7002C24.9004 36.6002 25.7004 35.7002 26.8004 35.1002C27.8004 34.5002 29.0004 34.2002 30.3004 34.2002C31.6004 34.2002 32.8004 34.5002 33.8004 35.1002C34.8004 35.7002 35.7004 36.6002 36.3004 37.7002C36.9004 38.8002 37.2004 40.2002 37.2004 41.8002C37.2004 43.4002 36.9004 44.8002 36.3004 45.9002C35.7004 47.0002 34.9004 47.9002 33.8004 48.5002C32.8004 49.1002 31.6004 49.4002 30.3004 49.4002ZM30.3004 46.7002C31.1004 46.7002 31.7004 46.5002 32.3004 46.1002C32.9004 45.7002 33.3004 45.2002 33.6004 44.4002C33.9004 43.7002 34.1004 42.8002 34.1004 41.7002C34.1004 40.6002 33.9004 39.7002 33.6004 39.0002C33.3004 38.3002 32.8004 37.7002 32.3004 37.3002C31.7004 36.9002 31.1004 36.7002 30.3004 36.7002C29.5004 36.7002 28.9004 36.9002 28.3004 37.3002C27.7004 37.7002 27.3004 38.2002 27.0004 39.0002C26.7004 39.7002 26.5004 40.6002 26.5004 41.7002C26.5004 42.8002 26.7004 43.6002 27.0004 44.4002C27.3004 45.1002 27.8004 45.7002 28.3004 46.1002C28.9004 46.5002 29.5004 46.7002 30.3004 46.7002Z" fill="#2563EB"/>
<path id="Vector_10" d="M46.6002 49.4002C45.4002 49.4002 44.4002 49.2002 43.5002 48.9002C42.6002 48.5002 41.9002 48.0002 41.5002 47.3002C41.0002 46.6002 40.8002 45.7002 40.7002 44.7002H43.6002C43.6002 45.2002 43.8002 45.6002 44.0002 45.9002C44.3002 46.2002 44.6002 46.5002 45.0002 46.6002C45.4002 46.8002 45.9002 46.8002 46.5002 46.8002C47.1002 46.8002 47.5002 46.8002 47.9002 46.6002C48.3002 46.4002 48.6002 46.2002 48.8002 45.9002C49.0002 45.6002 49.1002 45.3002 49.1002 44.9002C49.1002 44.5002 49.0002 44.3002 48.8002 44.1002C48.6002 43.9002 48.3002 43.7002 47.9002 43.5002C47.5002 43.3002 47.1002 43.2002 46.5002 43.1002L44.9002 42.7002C43.7002 42.4002 42.7002 41.9002 42.0002 41.3002C41.3002 40.7002 40.9002 39.8002 40.9002 38.7002C40.9002 37.6002 41.1002 37.0002 41.6002 36.4002C42.1002 35.7002 42.7002 35.2002 43.6002 34.8002C44.4002 34.4002 45.4002 34.2002 46.5002 34.2002C47.6002 34.2002 48.5002 34.4002 49.3002 34.8002C50.1002 35.2002 50.7002 35.7002 51.2002 36.4002C51.7002 37.1002 51.9002 37.8002 51.9002 38.7002H49.0002C49.0002 38.1002 48.7002 37.6002 48.2002 37.3002C47.7002 37.0002 47.1002 36.8002 46.4002 36.8002C45.7002 36.8002 45.5002 36.8002 45.1002 37.0002C44.7002 37.1002 44.5002 37.3002 44.3002 37.6002C44.1002 37.9002 44.0002 38.2002 44.0002 38.5002C44.0002 38.8002 44.1002 39.2002 44.3002 39.4002C44.5002 39.6002 44.8002 39.8002 45.2002 40.0002C45.6002 40.1002 45.9002 40.3002 46.4002 40.4002L47.7002 40.7002C48.3002 40.8002 48.9002 41.0002 49.4002 41.3002C49.9002 41.5002 50.4002 41.8002 50.8002 42.2002C51.2002 42.5002 51.5002 43.0002 51.7002 43.4002C51.9002 43.9002 52.0002 44.4002 52.0002 45.0002C52.0002 45.9002 51.8002 46.7002 51.3002 47.3002C50.8002 48.0002 50.2002 48.5002 49.4002 48.8002C48.5002 49.2002 47.5002 49.3002 46.3002 49.3002L46.6002 49.4002Z" fill="#2563EB"/>
<path id="Vector_11" d="M61.5006 49.4002C60.3006 49.4002 59.3006 49.2002 58.4006 48.9002C57.5006 48.5002 56.8006 48.0002 56.4006 47.3002C55.9006 46.6002 55.7006 45.7002 55.6006 44.7002H58.5006C58.5006 45.2002 58.7006 45.6002 58.9006 45.9002C59.2006 46.2002 59.5006 46.5002 59.9006 46.6002C60.3006 46.8002 60.8006 46.8002 61.4006 46.8002C62.0006 46.8002 62.4006 46.8002 62.8006 46.6002C63.2006 46.4002 63.5006 46.2002 63.7006 45.9002C63.9006 45.6002 64.0006 45.3002 64.0006 44.9002C64.0006 44.5002 63.9006 44.3002 63.7006 44.1002C63.5006 43.9002 63.2006 43.7002 62.8006 43.5002C62.4006 43.3002 62.0006 43.2002 61.4006 43.1002L59.8006 42.7002C58.6006 42.4002 57.6006 41.9002 56.9006 41.3002C56.2006 40.7002 55.8006 39.8002 55.8006 38.7002C55.8006 37.6002 56.0006 37.0002 56.5006 36.4002C57.0006 35.7002 57.6006 35.2002 58.5006 34.8002C59.3006 34.4002 60.3006 34.2002 61.4006 34.2002C62.5006 34.2002 63.4006 34.4002 64.2006 34.8002C65.0006 35.2002 65.6006 35.7002 66.1006 36.4002C66.6006 37.1002 66.8006 37.8002 66.8006 38.7002H63.9006C63.9006 38.1002 63.6006 37.6002 63.1006 37.3002C62.6006 37.0002 62.0006 36.8002 61.3006 36.8002C60.6006 36.8002 60.4006 36.8002 60.0006 37.0002C59.6006 37.1002 59.4006 37.3002 59.2006 37.6002C59.0006 37.9002 58.9006 38.2002 58.9006 38.5002C58.9006 38.8002 59.0006 39.2002 59.2006 39.4002C59.4006 39.6002 59.7006 39.8002 60.1006 40.0002C60.5006 40.1002 60.8006 40.3002 61.3006 40.4002L62.6006 40.7002C63.2006 40.8002 63.8006 41.0002 64.3006 41.3002C64.8006 41.5002 65.3006 41.8002 65.7006 42.2002C66.1006 42.5002 66.4006 43.0002 66.6006 43.4002C66.8006 43.9002 66.9006 44.4002 66.9006 45.0002C66.9006 45.9002 66.7006 46.7002 66.2006 47.3002C65.7006 48.0002 65.1006 48.5002 64.3006 48.8002C63.4006 49.2002 62.4006 49.3002 61.2006 49.3002L61.5006 49.4002Z" fill="#2563EB"/>
<path id="Vector_12" d="M23.4006 26.3C23.1006 26.7 22.7006 27.1 22.2006 27.3C21.7006 27.5 21.2006 27.6 20.7006 27.5C20.2006 27.5 19.6006 27.2 19.1006 26.8C18.6006 26.4 18.2006 26 17.9006 25.5C17.7006 25 17.6006 24.5 17.6006 24C17.6006 23.5 17.8006 23 18.1006 22.6C18.4006 22.2 18.8006 21.8 19.3006 21.7C19.8006 21.5 20.3006 21.5 20.8006 21.5C21.3006 21.5 21.9006 21.8 22.4006 22.2C22.9006 22.6 23.3006 23 23.6006 23.5C23.8006 24 23.9006 24.5 23.9006 25C23.9006 25.5 23.7006 26 23.4006 26.4V26.3ZM22.6006 25.8C22.8006 25.5 22.9006 25.2 22.9006 24.9C22.9006 24.6 22.9006 24.2 22.7006 23.9C22.5006 23.6 22.2006 23.2 21.8006 23C21.4006 22.7 21.0006 22.5 20.6006 22.4C20.2006 22.4 19.9006 22.4 19.6006 22.4C19.3006 22.5 19.0006 22.7 18.8006 23C18.6006 23.3 18.5006 23.6 18.5006 23.9C18.5006 24.2 18.5006 24.6 18.8006 24.9C19.0006 25.2 19.3006 25.6 19.7006 25.9C20.1006 26.2 20.5006 26.4 20.9006 26.4C21.3006 26.4 21.6006 26.4 21.9006 26.4C22.2006 26.3 22.5006 26.1 22.7006 25.8H22.6006Z" fill="#2563EB"/>
<path id="Vector_13" d="M25.5008 23.4002L21.3008 18.8002L23.0008 17.3002C23.4008 17.0002 23.7008 16.8002 24.1008 16.7002C24.5008 16.7002 24.8008 16.7002 25.1008 16.7002C25.4008 16.8002 25.7008 17.0002 26.0008 17.3002C26.3008 17.6002 26.4008 17.9002 26.5008 18.2002C26.5008 18.5002 26.5008 18.9002 26.5008 19.2002C26.5008 19.5002 26.1008 19.9002 25.8008 20.2002L24.7008 21.2002L24.2008 20.6002L25.3008 19.6002C25.5008 19.4002 25.7008 19.2002 25.7008 19.0002C25.7008 18.8002 25.7008 18.6002 25.7008 18.4002C25.7008 18.2002 25.5008 18.0002 25.4008 17.8002C25.2008 17.6002 25.1008 17.5002 24.9008 17.4002C24.7008 17.4002 24.5008 17.4002 24.3008 17.4002C24.1008 17.4002 23.9008 17.6002 23.6008 17.8002L22.7008 18.6002L26.4008 22.6002L25.7008 23.2002L25.5008 23.4002Z" fill="#2563EB"/>
<path id="Vector_14" d="M29.5002 20.0001L26.2002 14.7001L29.5002 12.6001L29.9002 13.3001L27.4002 14.9001L28.4002 16.5001L30.8002 15.0001L31.2002 15.7001L28.8002 17.2001L29.8002 18.8001L32.4002 17.2001L32.8002 17.9001L29.4002 20.0001H29.5002Z" fill="#2563EB"/>
<path id="Vector_15" d="M33.6004 17.4998L31.4004 11.5998L32.4004 11.1998L35.9004 13.8998C36.0004 13.8998 36.1004 14.0998 36.3004 14.1998C36.5004 14.2998 36.6004 14.4998 36.8004 14.5998C37.0004 14.7998 37.2004 14.8998 37.3004 15.0998H37.2004C37.1004 14.8998 37.0004 14.6998 36.9004 14.4998C36.9004 14.2998 36.7004 14.0998 36.6004 13.8998C36.6004 13.6998 36.5004 13.5998 36.4004 13.3998L35.2004 10.0998L36.1004 9.7998L38.3004 15.6998L37.3004 16.0998L34.2004 13.6998C34.0004 13.5998 33.9004 13.3998 33.7004 13.2998C33.5004 13.1998 33.4004 12.9998 33.1004 12.7998C32.9004 12.5998 32.6004 12.3998 32.3004 12.0998H32.4004C32.5004 12.2998 32.6004 12.5998 32.7004 12.7998C32.8004 12.9998 32.9004 13.2998 33.0004 13.4998C33.1004 13.6998 33.1004 13.7998 33.2004 13.9998L34.4004 17.0998L33.5004 17.3998L33.6004 17.4998Z" fill="#2563EB"/>
<path id="Vector_16" d="M43.6006 15.1C43.1006 15.1 42.7006 15.1 42.4006 15C42.0006 14.9 41.8006 14.7 41.5006 14.4C41.3006 14.1 41.2006 13.8 41.1006 13.4H42.1006C42.1006 13.6 42.2006 13.7 42.4006 13.9C42.5006 14 42.7006 14.1 42.9006 14.2C43.1006 14.2 43.3006 14.2 43.6006 14.2C43.9006 14.2 44.1006 14.2 44.3006 14C44.5006 14 44.7006 13.8 44.8006 13.6C44.9006 13.4 45.0006 13.3 44.9006 13.1C44.9006 12.9 44.9006 12.8 44.7006 12.7C44.6006 12.6 44.4006 12.5 44.3006 12.4C44.1006 12.4 43.9006 12.3 43.7006 12.2H43.0006C42.5006 12 42.1006 11.8 41.8006 11.5C41.5006 11.3 41.3006 10.9 41.3006 10.5C41.3006 10.1 41.3006 9.8 41.5006 9.5C41.7006 9.2 41.9006 9 42.2006 8.8C42.5006 8.6 42.9006 8.5 43.3006 8.5C43.7006 8.5 44.1006 8.5 44.4006 8.6C44.7006 8.7 45.0006 8.9 45.2006 9.2C45.4006 9.4 45.5006 9.7 45.6006 10.1H44.7006C44.7006 9.9 44.5006 9.7 44.3006 9.5C44.1006 9.4 43.8006 9.3 43.4006 9.3C43.1006 9.3 42.9006 9.3 42.8006 9.5C42.6006 9.5 42.5006 9.7 42.4006 9.9C42.4006 10 42.3006 10.2 42.3006 10.4C42.3006 10.6 42.3006 10.8 42.5006 10.9C42.6006 11 42.8006 11.1 43.0006 11.2C43.2006 11.2 43.3006 11.3 43.5006 11.3H44.1006C44.3006 11.5 44.5006 11.5 44.7006 11.6C44.9006 11.6 45.1006 11.8 45.3006 11.9C45.5006 12 45.6006 12.2 45.8006 12.4C45.9006 12.6 46.0006 12.8 46.0006 13.1C46.0006 13.5 46.0006 13.8 45.8006 14.1C45.6006 14.4 45.4006 14.6 45.1006 14.8C44.8006 15 44.4006 15.1 43.9006 15.1H43.6006Z" fill="#2563EB"/>
<path id="Vector_17" d="M49.3003 15.1999C48.8003 15.1999 48.3003 14.8999 47.9003 14.5999C47.5003 14.2999 47.2003 13.8999 47.1003 13.3999C46.9003 12.8999 46.9003 12.2999 47.0003 11.5999C47.0003 10.8999 47.3003 10.3999 47.6003 9.89987C47.9003 9.49987 48.3003 9.09987 48.7003 8.89987C49.2003 8.69987 49.7003 8.59988 50.2003 8.69988C50.7003 8.79988 51.2003 8.99988 51.6003 9.29988C52.0003 9.59988 52.3003 9.99988 52.4003 10.4999C52.6003 10.9999 52.6003 11.5999 52.5003 12.2999C52.5003 12.9999 52.2003 13.4999 51.9003 13.9999C51.6003 14.3999 51.2003 14.7999 50.8003 14.9999C50.4003 15.1999 49.8003 15.2999 49.3003 15.1999ZM49.4003 14.3999C49.8003 14.3999 50.1003 14.3999 50.4003 14.2999C50.7003 14.1999 51.0003 13.8999 51.2003 13.5999C51.4003 13.2999 51.5003 12.8999 51.6003 12.3999C51.6003 11.8999 51.6003 11.4999 51.6003 11.0999C51.5003 10.6999 51.3003 10.3999 51.0003 10.1999C50.7003 9.99987 50.4003 9.89988 50.1003 9.79988C49.7003 9.79988 49.4003 9.79987 49.1003 9.89987C48.8003 9.99987 48.5003 10.2999 48.3003 10.5999C48.1003 10.8999 48.0003 11.2999 47.9003 11.7999C47.9003 12.2999 47.9003 12.6999 47.9003 13.0999C48.0003 13.4999 48.2003 13.7999 48.5003 13.9999C48.8003 14.1999 49.1003 14.2999 49.4003 14.3999Z" fill="#2563EB"/>
<path id="Vector_18" d="M55.2006 16.8C54.7006 16.6 54.4006 16.4 54.1006 16.1C53.8006 15.8 53.6006 15.4 53.6006 15C53.6006 14.6 53.6006 14.2 53.7006 13.8L55.2006 10L56.1006 10.3L54.7006 14.1C54.6006 14.4 54.6006 14.6 54.7006 14.9C54.7006 15.1 54.8006 15.4 55.0006 15.6C55.2006 15.8 55.4006 16 55.7006 16.1C56.0006 16.2 56.3006 16.2 56.5006 16.2C56.8006 16.2 57.0006 16.1 57.2006 15.9C57.4006 15.7 57.5006 15.5 57.6006 15.3L59.0006 11.5L59.9006 11.8L58.4006 15.6C58.2006 16 58.0006 16.3 57.7006 16.6C57.4006 16.8 57.0006 17 56.6006 17C56.2006 17 55.7006 17 55.3006 16.8H55.2006Z" fill="#2563EB"/>
<path id="Vector_19" d="M58.4004 18.0998L61.8004 12.7998L63.7004 13.9998C64.1004 14.2998 64.4004 14.4998 64.6004 14.8998C64.8004 15.1998 64.9004 15.4998 64.8004 15.8998C64.8004 16.1998 64.7004 16.5998 64.5004 16.8998C64.3004 17.1998 64.0004 17.4998 63.8004 17.5998C63.5004 17.7998 63.2004 17.7998 62.8004 17.7998C62.4004 17.7998 62.1004 17.5998 61.7004 17.2998L60.3004 16.3998L60.7004 15.6998L62.0004 16.5998C62.3004 16.7998 62.5004 16.8998 62.7004 16.8998C62.9004 16.8998 63.1004 16.8998 63.3004 16.8998C63.5004 16.8998 63.6004 16.6998 63.7004 16.4998C63.8004 16.2998 63.9004 16.0998 63.9004 15.8998C63.9004 15.6998 63.9004 15.4998 63.8004 15.2998C63.7004 15.0998 63.5004 14.8998 63.2004 14.7998L62.2004 14.1998L59.3004 18.7998L58.5004 18.2998L58.4004 18.0998ZM61.4004 19.9998L61.6004 16.7998L62.5004 17.3998L62.3004 20.5998L61.4004 19.9998Z" fill="#2563EB"/>
<path id="Vector_20" d="M64.6006 22.8001C64.2006 22.4001 64.0006 22.0001 63.8006 21.5001C63.7006 21.0001 63.7006 20.5001 63.8006 20.0001C64.0006 19.5001 64.3006 19.0001 64.7006 18.5001C65.2006 18.0001 65.7006 17.7001 66.2006 17.5001C66.7006 17.3001 67.2006 17.3001 67.7006 17.5001C68.2006 17.6001 68.6006 17.9001 69.0006 18.2001C69.2006 18.4001 69.4006 18.7001 69.6006 18.9001C69.7006 19.2001 69.8006 19.5001 69.9006 19.7001C69.9006 20.0001 69.9006 20.3001 69.9006 20.6001C69.9006 20.9001 69.7006 21.2001 69.5006 21.5001L68.8006 20.8001C68.9006 20.6001 69.0006 20.5001 69.0006 20.3001C69.0006 20.1001 69.0006 19.9001 69.0006 19.8001C69.0006 19.6001 69.0006 19.5001 68.8006 19.3001C68.8006 19.1001 68.6006 19.0001 68.5006 18.9001C68.2006 18.7001 67.9006 18.5001 67.6006 18.4001C67.3006 18.4001 66.9006 18.4001 66.6006 18.5001C66.2006 18.6001 65.9006 18.9001 65.5006 19.2001C65.2006 19.6001 64.9006 19.9001 64.8006 20.3001C64.7006 20.7001 64.7006 21.0001 64.8006 21.3001C64.8006 21.6001 65.0006 21.9001 65.3006 22.2001C65.4006 22.3001 65.6006 22.4001 65.8006 22.5001C66.0006 22.5001 66.1006 22.6001 66.3006 22.7001C66.5006 22.7001 66.7006 22.7001 66.8006 22.7001C67.0006 22.7001 67.1006 22.6001 67.3006 22.5001L68.0006 23.2001C67.8006 23.4001 67.5006 23.5001 67.2006 23.6001C66.9006 23.6001 66.6006 23.7001 66.3006 23.6001C66.0006 23.6001 65.7006 23.6001 65.4006 23.4001C65.1006 23.2001 64.9006 23.1001 64.6006 22.8001Z" fill="#2563EB"/>
<path id="Vector_21" d="M67.0004 25.2001L72.2004 21.6001L74.4004 24.8001L73.7004 25.3001L72.0004 22.8001L70.5004 23.9001L72.1004 26.2001L71.4004 26.7001L69.8004 24.4001L68.2004 25.5001L69.9004 28.0001L69.2004 28.5001L66.9004 25.2001H67.0004Z" fill="#2563EB"/>
<g id="Group_2">
<path id="Vector_22" d="M22.3008 67.9002L28.2008 64.2002L29.2008 65.0002L27.0008 71.6002L26.2008 70.9002L27.5008 67.3002C27.6008 67.0002 27.7008 66.7002 27.9008 66.3002C28.1008 65.9002 28.3008 65.5002 28.5008 64.9002H28.7008C28.2008 65.4002 27.8008 65.7002 27.5008 65.9002C27.2008 66.1002 26.9008 66.3002 26.6008 66.5002L23.4008 68.6002L22.6008 67.9002H22.3008ZM24.4008 67.3002L24.9008 66.6002L27.6008 68.7002L27.1008 69.4002L24.4008 67.3002Z" fill="#2563EB"/>
<path id="Vector_23" d="M30.7006 73.7002C30.2006 73.4002 29.8006 73.1002 29.5006 72.6002C29.2006 72.2002 29.1006 71.7002 29.1006 71.1002C29.1006 70.5002 29.3006 70.0002 29.6006 69.3002C29.9006 68.7002 30.3006 68.2002 30.7006 67.9002C31.2006 67.6002 31.6006 67.4002 32.2006 67.3002C32.8006 67.2002 33.2006 67.3002 33.7006 67.6002C34.0006 67.8002 34.3006 68.0002 34.5006 68.2002C34.7006 68.4002 34.9006 68.7002 35.0006 69.0002C35.1006 69.3002 35.2006 69.6002 35.2006 69.9002C35.2006 70.2002 35.2006 70.5002 35.1006 70.8002L34.2006 70.3002C34.2006 70.1002 34.2006 69.9002 34.2006 69.7002C34.2006 69.5002 34.2006 69.3002 34.0006 69.2002C34.0006 69.0002 33.8006 68.9002 33.7006 68.8002C33.6006 68.7002 33.4006 68.6002 33.2006 68.5002C32.9006 68.3002 32.5006 68.3002 32.2006 68.3002C31.9006 68.3002 31.5006 68.5002 31.2006 68.7002C30.9006 68.9002 30.6006 69.3002 30.4006 69.8002C30.2006 70.3002 30.0006 70.7002 30.0006 71.1002C30.0006 71.5002 30.0006 71.9002 30.3006 72.2002C30.5006 72.5002 30.7006 72.7002 31.1006 72.9002C31.4006 73.1002 31.7006 73.1002 32.0006 73.1002C32.3006 73.1002 32.6006 73.1002 32.8006 72.8002C33.0006 72.5002 33.3006 72.4002 33.4006 72.1002L33.6006 72.3002L31.9006 71.5002L32.3006 70.8002L34.6006 72.0002L34.3006 72.7002C34.1006 73.2002 33.7006 73.6002 33.3006 73.8002C32.9006 74.1002 32.5006 74.2002 32.0006 74.2002C31.5006 74.2002 31.1006 74.1002 30.6006 73.9002L30.7006 73.7002Z" fill="#2563EB"/>
<path id="Vector_24" d="M35.4004 75.6003L37.0004 69.3003L39.3004 69.9003C39.8004 70.0003 40.2004 70.2003 40.5004 70.5003C40.8004 70.8003 41.0004 71.1003 41.0004 71.4003C41.0004 71.8003 41.0004 72.1003 41.0004 72.5003C41.0004 72.9003 40.7004 73.2003 40.5004 73.5003C40.3004 73.8003 39.9004 74.0003 39.6004 74.0003C39.2004 74.0003 38.8004 74.0003 38.3004 74.0003L36.7004 73.6003L36.9004 72.8003L38.4004 73.2003C38.7004 73.2003 39.0004 73.2003 39.2004 73.2003C39.4004 73.2003 39.6004 73.0003 39.7004 72.9003C39.8004 72.8003 39.9004 72.5003 40.0004 72.3003C40.0004 72.1003 40.0004 71.8003 40.0004 71.6003C40.0004 71.4003 39.9004 71.2003 39.7004 71.1003C39.5004 70.9003 39.3004 70.8003 39.0004 70.7003L37.8004 70.4003L36.4004 75.9003L35.4004 75.7003V75.6003Z" fill="#2563EB"/>
<path id="Vector_25" d="M41.9004 77L42.3004 70.5H43.3004L42.9004 76.2L45.9004 76.4V77.3L41.9004 77Z" fill="#2563EB"/>
<path id="Vector_26" d="M52.8012 73.3003V74.1003C52.9012 74.1003 50.1012 74.6003 50.1012 74.6003V73.8003C50.0012 73.8003 52.8012 73.3003 52.8012 73.3003Z" fill="#2563EB"/>
<path id="Vector_27" d="M60.1008 74.3003C59.7008 74.5003 59.3008 74.6003 58.9008 74.6003C58.5008 74.6003 58.2008 74.6003 57.9008 74.4003C57.6008 74.2003 57.4008 74.0003 57.2008 73.7003L58.1008 73.3003C58.1008 73.5003 58.3008 73.6003 58.5008 73.7003C58.7008 73.7003 58.8008 73.8003 59.1008 73.8003C59.3008 73.8003 59.5008 73.8003 59.7008 73.6003C59.9008 73.5003 60.1008 73.4003 60.3008 73.2003C60.5008 73.0003 60.5008 72.9003 60.6008 72.7003C60.6008 72.5003 60.6008 72.3003 60.6008 72.1003C60.6008 71.9003 60.4008 71.7003 60.2008 71.6003C60.0008 71.5003 59.8008 71.4003 59.6008 71.4003C59.4008 71.4003 59.1008 71.4003 58.8008 71.6003L58.3008 71.8003L58.0008 71.1003L58.5008 70.9003C58.7008 70.9003 58.9008 70.7003 59.0008 70.5003C59.1008 70.3003 59.2008 70.2003 59.2008 70.0003C59.2008 69.8003 59.2008 69.6003 59.2008 69.4003C59.2008 69.2003 59.0008 69.1003 58.9008 69.0003C58.8008 68.9003 58.6008 68.8003 58.4008 68.8003C58.2008 68.8003 58.0008 68.8003 57.8008 68.9003C57.6008 68.9003 57.4008 69.1003 57.3008 69.2003C57.2008 69.3003 57.1008 69.5003 57.0008 69.7003C57.0008 69.9003 57.0008 70.1003 57.0008 70.2003L56.1008 70.6003C56.0008 70.3003 55.9008 69.9003 56.1008 69.6003C56.3008 69.3003 56.3008 69.0003 56.6008 68.7003C56.9008 68.4003 57.1008 68.2003 57.5008 68.0003C57.9008 67.8003 58.2008 67.8003 58.6008 67.8003C58.9008 67.8003 59.3008 67.9003 59.5008 68.1003C59.8008 68.3003 60.0008 68.5003 60.1008 68.8003C60.3008 69.1003 60.3008 69.5003 60.2008 69.8003C60.2008 70.1003 59.9008 70.4003 59.7008 70.6003C60.0008 70.6003 60.2008 70.6003 60.5008 70.6003C60.7008 70.6003 61.0008 70.7003 61.1008 70.9003C61.3008 71.1003 61.4008 71.3003 61.5008 71.5003C61.6008 71.8003 61.7008 72.2003 61.6008 72.5003C61.6008 72.8003 61.4008 73.2003 61.1008 73.5003C60.8008 73.8003 60.5008 74.0003 60.1008 74.2003V74.3003Z" fill="#2563EB"/>
<path id="Vector_28" d="M64.2003 72.0003C64.0003 72.0003 63.9003 72.1003 63.7003 72.0003C63.5003 72.0003 63.4003 71.9003 63.3003 71.7003C63.3003 71.5003 63.2003 71.4003 63.3003 71.2003C63.3003 71.0003 63.4003 70.9003 63.6003 70.8003C63.8003 70.8003 63.9003 70.7003 64.1003 70.8003C64.3003 70.8003 64.4003 70.9003 64.5003 71.1003C64.5003 71.3003 64.6003 71.4003 64.5003 71.6003C64.5003 71.8003 64.4003 71.9003 64.2003 72.0003Z" fill="#2563EB"/>
<path id="Vector_29" d="M68.1008 69.3002C67.7008 69.6002 67.3008 69.8002 66.9008 69.8002C66.5008 69.8002 66.0008 69.8002 65.5008 69.5002C65.0008 69.2002 64.6008 68.8002 64.1008 68.3002C63.6008 67.8002 63.3008 67.2002 63.2008 66.7002C63.0008 66.2002 63.0008 65.7002 63.1008 65.3002C63.2008 64.9002 63.4008 64.5002 63.8008 64.2002C64.2008 63.9002 64.6008 63.7002 65.0008 63.7002C65.4008 63.7002 65.9008 63.7002 66.4008 64.0002C66.9008 64.3002 67.3008 64.7002 67.8008 65.2002C68.3008 65.7002 68.6008 66.3002 68.8008 66.8002C69.0008 67.3002 69.0008 67.8002 68.9008 68.2002C68.8008 68.6002 68.5008 69.0002 68.2008 69.3002H68.1008ZM67.5008 68.6002C67.7008 68.4002 67.9008 68.2002 67.9008 67.9002C67.9008 67.6002 67.9008 67.3002 67.7008 66.9002C67.5008 66.5002 67.3008 66.2002 67.0008 65.8002C66.7008 65.4002 66.3008 65.1002 66.0008 64.9002C65.7008 64.7002 65.4008 64.6002 65.1008 64.6002C64.8008 64.6002 64.6008 64.6002 64.3008 64.9002C64.0008 65.2002 63.9008 65.3002 63.9008 65.6002C63.9008 65.9002 63.9008 66.2002 64.1008 66.6002C64.3008 67.0002 64.5008 67.3002 64.8008 67.7002C65.1008 68.1002 65.5008 68.4002 65.8008 68.6002C66.1008 68.8002 66.4008 68.9002 66.7008 68.9002C67.0008 68.9002 67.2008 68.9002 67.5008 68.6002Z" fill="#2563EB"/>
</g>
</g>
</g>
<defs>
<clipPath id="clip0_3273_23825">
<rect width="90" height="84" fill="white"/>
</clipPath>
</defs>
</svg>
