<svg width="640" height="928" viewBox="0 0 640 928" fill="none" xmlns="http://www.w3.org/2000/svg">
<rect width="640" height="928" fill="white"/>
<path d="M240.613 167.41L296.599 205.003" stroke="#1E40AF" stroke-width="2" stroke-dasharray="6 6"/>
<path d="M401.082 167.41L345.096 205.003" stroke="#1E40AF" stroke-width="2" stroke-dasharray="6 6"/>
<path d="M240.613 270.68L296.599 233.087" stroke="#1E40AF" stroke-width="2" stroke-dasharray="6 6"/>
<path d="M401.082 270.68L345.096 233.087" stroke="#1E40AF" stroke-width="2" stroke-dasharray="6 6"/>
<path d="M219.848 160.842L321.461 102.841L421.149 160.406L420.866 275.488L318.516 333.92L218.851 276.341L219.848 160.842Z" stroke="#1E40AF" stroke-width="2" stroke-dasharray="6 6"/>
<path d="M294.901 88.4946L294.901 117.52L319.612 131.681L319.618 103.33L294.901 88.4946Z" fill="#1E40AF"/>
<path d="M319.621 103.328L345.096 88.5122L345.083 116.728L319.618 131.682L319.621 103.328Z" fill="#2563EB"/>
<path d="M294.901 88.4943L320.338 74L345.099 88.5088L319.621 103.341L294.901 88.4943Z" fill="#60A5FA"/>
<path d="M294.901 204.034L294.901 233.06L319.612 247.221L319.618 218.869L294.901 204.034Z" fill="#1E40AF"/>
<path d="M319.621 218.867L345.096 204.052L345.083 232.268L319.618 247.221L319.621 218.867Z" fill="#2563EB"/>
<path d="M294.901 204.034L320.338 189.54L345.099 204.048L319.621 218.88L294.901 204.034Z" fill="#60A5FA"/>
<path d="M294.901 319.574L294.901 348.599L319.612 362.761L319.618 334.409L294.901 319.574Z" fill="#1E40AF"/>
<path d="M319.621 334.407L345.096 319.592L345.083 347.807L319.618 362.761L319.621 334.407Z" fill="#2563EB"/>
<path d="M294.901 319.574L320.338 305.079L345.099 319.588L319.621 334.42L294.901 319.574Z" fill="#60A5FA"/>
<path d="M396.05 266.378L396.05 295.403L420.761 309.565L420.766 281.213L396.05 266.378Z" fill="#1E40AF"/>
<path d="M420.77 281.211L446.245 266.396L446.232 294.611L420.767 309.565L420.77 281.211Z" fill="#2563EB"/>
<path d="M396.05 266.378L421.487 251.883L446.248 266.392L420.77 281.224L396.05 266.378Z" fill="#60A5FA"/>
<path d="M396.05 140.409L396.05 169.434L420.761 183.596L420.766 155.244L396.05 140.409Z" fill="#1E40AF"/>
<path d="M420.77 155.242L446.245 140.427L446.232 168.642L420.767 183.596L420.77 155.242Z" fill="#2563EB"/>
<path d="M396.05 140.409L421.487 125.914L446.248 140.423L420.77 155.255L396.05 140.409Z" fill="#60A5FA"/>
<path d="M193.751 266.378L193.752 295.403L218.462 309.565L218.468 281.213L193.751 266.378Z" fill="#1E40AF"/>
<path d="M218.472 281.211L243.947 266.396L243.934 294.611L218.468 309.565L218.472 281.211Z" fill="#2563EB"/>
<path d="M193.752 266.378L219.189 251.883L243.95 266.392L218.471 281.224L193.752 266.378Z" fill="#60A5FA"/>
<path d="M193.751 140.409L193.752 169.434L218.462 183.596L218.468 155.244L193.751 140.409Z" fill="#1E40AF"/>
<path d="M218.472 155.242L243.947 140.427L243.934 168.642L218.468 183.596L218.472 155.242Z" fill="#2563EB"/>
<path d="M193.752 140.409L219.189 125.914L243.95 140.423L218.471 155.255L193.752 140.409Z" fill="#60A5FA"/>
<path d="M218.468 313.516L289.029 487.896" stroke="#1E40AF" stroke-width="2" stroke-dasharray="6 6"/>
<path d="M420.955 312.208L350.917 488.269" stroke="#1E40AF" stroke-width="2" stroke-dasharray="6 6"/>
<path d="M218.468 688.188L287.794 505.34" stroke="#1E40AF" stroke-width="2" stroke-dasharray="6 6"/>
<path d="M420.955 689.496L351.671 504.829" stroke="#1E40AF" stroke-width="2" stroke-dasharray="6 6"/>
<ellipse cx="319.721" cy="737.451" rx="116.549" ry="116.549" fill="#EFF6FF" stroke="#1E40AF" stroke-width="2" stroke-dasharray="6 6"/>
<path d="M283.947 782L291.447 786.33V777.67L283.947 782ZM403.51 767.461V781.5H405.01V767.461H403.51ZM403.76 781.25H290.697V782.75H403.76V781.25ZM403.51 781.5C403.51 781.362 403.622 781.25 403.76 781.25V782.75C404.451 782.75 405.01 782.191 405.01 781.5H403.51Z" fill="#2563EB"/>
<path d="M401.915 716.429L406.245 708.929H397.585L401.915 716.429ZM344.105 690.056H401.415V688.556H344.105V690.056ZM401.165 689.806V709.679H402.665V689.806H401.165ZM401.415 690.056C401.277 690.056 401.165 689.944 401.165 689.806H402.665C402.665 689.116 402.105 688.556 401.415 688.556V690.056Z" fill="#2563EB"/>
<path d="M290.175 689.377L297.675 693.707L297.675 685.047L290.175 689.377ZM296.925 690.127L303.126 690.127L303.126 688.627L296.925 688.627L296.925 690.127Z" fill="#2563EB"/>
<path d="M340.34 689.377L332.84 685.047L332.84 693.707L340.34 689.377ZM327.39 690.127L333.59 690.127L333.59 688.627L327.39 688.627L327.39 690.127Z" fill="#2563EB"/>
<path d="M287.265 689.291L279.765 684.961V693.621L287.265 689.291ZM280.515 688.541H244.21V690.041H280.515V688.541ZM242.96 689.791V737.45H244.46V689.791H242.96ZM244.21 688.541C243.52 688.541 242.96 689.1 242.96 689.791H244.46C244.46 689.929 244.348 690.041 244.21 690.041V688.541Z" fill="#2563EB"/>
<rect x="236.439" y="748.692" width="36.0951" height="36.0951" rx="18.0476" fill="#DBEAFE"/>
<path fill-rule="evenodd" clip-rule="evenodd" d="M254.434 758.816C252.915 758.816 251.684 760.047 251.684 761.566C251.684 763.085 252.915 764.316 254.434 764.316C255.952 764.316 257.183 763.085 257.183 761.566C257.183 760.047 255.952 758.816 254.434 758.816ZM250.684 761.566C250.684 759.495 252.363 757.816 254.434 757.816C256.504 757.816 258.183 759.495 258.183 761.566C258.183 762.905 257.481 764.08 256.425 764.743C257.366 765.169 258.146 765.886 258.65 766.778C258.665 766.804 258.676 766.83 258.686 766.857H262.987C263.263 766.857 263.487 767.081 263.487 767.357V775.225C263.487 775.501 263.263 775.725 262.987 775.725H245.987C245.711 775.725 245.487 775.501 245.487 775.225V767.357C245.487 767.081 245.711 766.857 245.987 766.857H250.184C250.194 766.824 250.208 766.793 250.226 766.762C250.73 765.877 251.507 765.166 252.441 764.743C251.386 764.08 250.684 762.905 250.684 761.566ZM251.357 766.857H257.51C256.809 765.921 255.691 765.316 254.433 765.316C253.175 765.316 252.058 765.921 251.357 766.857ZM255.478 768.524C255.738 768.616 255.874 768.902 255.782 769.162L254.148 773.755C254.055 774.015 253.769 774.151 253.509 774.058C253.249 773.966 253.113 773.68 253.206 773.42L254.839 768.827C254.932 768.567 255.218 768.431 255.478 768.524ZM252.781 769.656C252.979 769.849 252.982 770.166 252.789 770.363L252.223 770.942C252.033 771.136 252.033 771.447 252.223 771.641L252.789 772.219C252.982 772.417 252.979 772.733 252.781 772.926C252.584 773.119 252.267 773.116 252.074 772.918L250.824 771.641C250.634 771.447 250.634 771.136 250.824 770.942L252.074 769.664C252.267 769.467 252.584 769.463 252.781 769.656ZM256.913 769.664C256.72 769.467 256.403 769.463 256.206 769.656C256.009 769.849 256.005 770.166 256.198 770.363L256.764 770.942C256.954 771.136 256.954 771.447 256.764 771.641L256.198 772.219C256.005 772.417 256.009 772.733 256.206 772.926C256.403 773.119 256.72 773.116 256.913 772.918L258.163 771.641C258.353 771.447 258.353 771.136 258.163 770.942L256.913 769.664Z" fill="#2563EB"/>
<rect x="383.867" y="719.403" width="36.0951" height="36.0951" rx="18.0476" fill="#DBEAFE"/>
<g clip-path="url(#clip0_141_39879)">
<path fill-rule="evenodd" clip-rule="evenodd" d="M394.914 728.45C393.809 728.45 392.914 729.346 392.914 730.45V744.45C392.914 745.555 393.809 746.45 394.914 746.45H408.914C410.019 746.45 410.914 745.555 410.914 744.45V730.45C410.914 729.346 410.019 728.45 408.914 728.45H394.914ZM402.759 730.569L401.527 730.287C401.619 730.287 401.718 730.28 401.829 730.273C401.973 730.263 402.138 730.252 402.337 730.252C403.076 730.252 403.674 730.498 404.237 730.815C404.315 730.854 404.382 730.936 404.451 731.019C404.506 731.087 404.562 731.155 404.625 731.202C404.906 731.308 405.188 731.378 405.469 731.343V731.237C405.786 731.308 406.103 731.66 406.103 731.906H404.66C404.625 731.906 404.554 731.941 404.519 731.977C404.554 732.012 404.625 732.082 404.66 732.082C404.726 732.082 404.799 732.08 404.875 732.078C405.122 732.072 405.412 732.064 405.681 732.117C405.676 732.126 405.671 732.134 405.665 732.143C405.555 732.328 405.352 732.669 405.117 732.434C405.117 732.364 403.745 732.399 403.393 732.47C403.322 732.47 403.252 732.61 403.287 732.681C403.445 733.064 403.818 733.302 404.169 733.526C404.366 733.652 404.556 733.773 404.695 733.913C405.681 734.687 405.997 735.391 405.786 736.729C405.257 738.814 404.426 739.166 402.805 739.851C402.593 739.941 402.366 740.037 402.125 740.143C401.527 740.425 401.175 741.094 401.281 741.763C401.527 743.206 403.815 743.593 404.273 741.903C404.413 741.235 404.237 740.284 402.97 740.003C403.533 739.756 404.061 739.475 404.554 739.158C404.625 739.087 404.695 739.087 404.765 739.158C406.173 740.46 406.526 742.854 404.202 744.262C402.548 745.177 400.471 744.403 399.802 742.643C399.133 740.847 400.189 738.911 402.055 738.524C403.393 738.313 404.765 736.905 404.167 735.602C403.901 735.018 403.135 734.434 402.487 733.94C402.276 733.779 402.078 733.629 401.914 733.49C401.821 733.435 401.67 733.447 401.501 733.462C401.35 733.474 401.184 733.488 401.034 733.455C401.105 733.402 401.228 733.341 401.351 733.279C401.474 733.218 401.597 733.156 401.668 733.103C401.373 732.922 401.048 732.901 400.732 732.881C400.558 732.87 400.387 732.859 400.224 732.822C400.33 732.61 400.858 732.294 401.175 732.258C401.142 731.945 401.132 731.794 401.059 731.686C400.976 731.563 400.81 731.495 400.436 731.308C400.797 731.067 401.116 731.12 401.426 731.172C401.751 731.226 402.065 731.279 402.407 730.991C401.985 730.85 401.562 730.709 401.175 730.463C401.378 730.477 401.581 730.516 401.784 730.556C402.109 730.619 402.434 730.682 402.759 730.639V730.569ZM404.237 731.449L404.132 731.343C404.097 731.308 403.885 731.378 403.956 731.484C403.991 731.519 404.026 731.554 404.097 731.519L404.237 731.449ZM399.802 739.615C398.112 738.559 398.007 735.884 399.908 734.722C401.316 733.842 402.9 734.159 403.956 735.708C404.097 735.954 404.097 736.342 404.026 736.623C403.745 737.574 403.041 738.102 402.09 738.313C402.372 738.102 402.583 737.785 402.653 737.433C402.97 735.462 399.908 735.25 400.048 737.362C400.013 737.961 400.471 738.383 401.351 738.524C400.893 738.806 400.506 739.052 400.084 739.58C400.013 739.686 399.943 739.686 399.802 739.615ZM399.378 741.143C398.836 741.244 398.264 741.351 397.725 741.587C397.972 740.566 398.852 739.862 399.908 739.862C399.626 740.214 399.485 740.671 399.45 741.129C399.426 741.134 399.402 741.138 399.378 741.143Z" fill="#2563EB"/>
</g>
<rect x="301.411" y="720.692" width="36.0951" height="36.0951" rx="18.0476" fill="#DBEAFE"/>
<path d="M319.458 751.74C326.638 751.74 332.458 745.919 332.458 738.74C332.458 731.56 326.638 725.74 319.458 725.74C312.278 725.74 306.458 731.56 306.458 738.74C306.458 745.919 312.278 751.74 319.458 751.74Z" stroke="#2563EB" stroke-width="2" stroke-miterlimit="10"/>
<path d="M307.198 734.406H331.717" stroke="#2563EB" stroke-width="2" stroke-linecap="round" stroke-linejoin="round"/>
<path d="M307.199 743.073H331.718" stroke="#2563EB" stroke-width="2" stroke-linecap="round" stroke-linejoin="round"/>
<path d="M319.458 751.391C322.45 751.391 324.875 745.727 324.875 738.74C324.875 731.753 322.45 726.089 319.458 726.089C316.467 726.089 314.042 731.753 314.042 738.74C314.042 745.727 316.467 751.391 319.458 751.391Z" stroke="#2563EB" stroke-width="2" stroke-miterlimit="10"/>
<path fill-rule="evenodd" clip-rule="evenodd" d="M248.518 739.74V742.589C248.518 745.064 247.152 746.115 244.82 747.227C244.544 747.359 244.22 747.352 243.949 747.21C241.556 745.963 240.242 745.007 240.242 742.589L240.242 739.739C240.242 739.187 240.69 738.74 241.242 738.74H244.38H247.518C248.071 738.74 248.518 739.187 248.518 739.74ZM246.718 741.868C246.917 741.677 246.925 741.36 246.734 741.161C246.544 740.961 246.227 740.954 246.027 741.144L243.716 743.35L242.733 742.412C242.534 742.221 242.217 742.229 242.026 742.428C241.836 742.628 241.843 742.945 242.043 743.135L243.371 744.403C243.564 744.588 243.868 744.588 244.061 744.403L246.718 741.868Z" fill="#2563EB"/>
<path d="M275.274 779.867L275.654 777.897C275.749 777.407 275.146 777.096 274.801 777.458L270.637 781.824C270.389 782.084 270.488 782.513 270.825 782.638L273.154 783.502C273.387 783.589 273.521 783.833 273.469 784.076L273.045 786.042C272.939 786.535 273.547 786.858 273.896 786.492L278.056 782.132C278.302 781.874 278.207 781.45 277.876 781.321L275.583 780.428C275.358 780.34 275.228 780.104 275.274 779.867Z" fill="#2563EB"/>
<path fill-rule="evenodd" clip-rule="evenodd" d="M306.875 682.109C306.875 681.557 307.323 681.109 307.875 681.109H323.875C324.427 681.109 324.875 681.557 324.875 682.109V686.654C324.875 687.207 324.427 687.654 323.875 687.654H307.875C307.323 687.654 306.875 687.207 306.875 686.654V682.109ZM321.193 685.609C321.871 685.609 322.42 685.059 322.42 684.382C322.42 683.704 321.871 683.154 321.193 683.154C320.515 683.154 319.966 683.704 319.966 684.382C319.966 685.059 320.515 685.609 321.193 685.609ZM306.875 691.927C306.875 691.375 307.323 690.927 307.875 690.927H323.875C324.427 690.927 324.875 691.375 324.875 691.927V696.473C324.875 697.025 324.427 697.473 323.875 697.473H307.875C307.323 697.473 306.875 697.025 306.875 696.473V691.927ZM321.193 695.427C321.871 695.427 322.42 694.878 322.42 694.2C322.42 693.522 321.871 692.973 321.193 692.973C320.515 692.973 319.966 693.522 319.966 694.2C319.966 694.878 320.515 695.427 321.193 695.427Z" fill="#2563EB"/>
<path d="M309.492 764.663C309.119 764.663 308.786 764.573 308.493 764.394C308.202 764.212 307.973 763.954 307.805 763.62C307.639 763.284 307.556 762.886 307.556 762.425C307.556 761.962 307.639 761.563 307.805 761.229C307.973 760.894 308.202 760.635 308.493 760.453C308.786 760.271 309.119 760.181 309.492 760.181C309.713 760.181 309.921 760.213 310.116 760.277C310.313 760.342 310.49 760.437 310.646 760.562C310.803 760.685 310.933 760.835 311.036 761.013C311.142 761.188 311.214 761.389 311.253 761.613H310.696C310.665 761.463 310.611 761.331 310.535 761.218C310.461 761.104 310.369 761.009 310.26 760.931C310.152 760.853 310.033 760.794 309.902 760.755C309.771 760.716 309.635 760.696 309.492 760.696C309.23 760.696 308.994 760.763 308.783 760.896C308.572 761.028 308.405 761.224 308.282 761.481C308.159 761.737 308.098 762.052 308.098 762.425C308.098 762.796 308.159 763.11 308.282 763.368C308.407 763.624 308.575 763.818 308.786 763.951C308.997 764.082 309.232 764.147 309.492 764.147C309.635 764.147 309.771 764.128 309.902 764.089C310.033 764.048 310.152 763.989 310.26 763.913C310.369 763.835 310.461 763.739 310.535 763.626C310.611 763.511 310.665 763.379 310.696 763.23H311.253C311.216 763.453 311.145 763.652 311.039 763.828C310.936 764.004 310.806 764.154 310.649 764.279C310.493 764.404 310.316 764.5 310.119 764.566C309.924 764.631 309.715 764.663 309.492 764.663ZM313.377 764.675C313.08 764.675 312.819 764.604 312.595 764.464C312.372 764.323 312.198 764.126 312.073 763.872C311.948 763.618 311.886 763.323 311.886 762.987C311.886 762.646 311.948 762.348 312.073 762.094C312.198 761.838 312.372 761.64 312.595 761.499C312.819 761.358 313.08 761.288 313.377 761.288C313.676 761.288 313.938 761.358 314.162 761.499C314.387 761.64 314.562 761.838 314.687 762.094C314.812 762.348 314.874 762.646 314.874 762.987C314.874 763.323 314.812 763.618 314.687 763.872C314.562 764.126 314.387 764.323 314.162 764.464C313.938 764.604 313.676 764.675 313.377 764.675ZM313.377 764.203C313.598 764.203 313.779 764.146 313.922 764.033C314.064 763.92 314.17 763.771 314.238 763.588C314.307 763.402 314.341 763.202 314.341 762.987C314.341 762.771 314.307 762.569 314.238 762.384C314.17 762.196 314.064 762.046 313.922 761.933C313.779 761.817 313.598 761.76 313.377 761.76C313.158 761.76 312.979 761.817 312.838 761.933C312.697 762.046 312.593 762.195 312.524 762.381C312.456 762.566 312.422 762.769 312.422 762.987C312.422 763.202 312.456 763.402 312.524 763.588C312.593 763.771 312.697 763.92 312.838 764.033C312.979 764.146 313.158 764.203 313.377 764.203ZM315.642 764.604V761.329H316.151V761.833H316.187C316.247 761.667 316.354 761.534 316.509 761.435C316.665 761.333 316.841 761.282 317.036 761.282C317.075 761.282 317.121 761.283 317.174 761.285C317.229 761.287 317.271 761.289 317.303 761.291V761.821C317.287 761.817 317.248 761.812 317.186 761.804C317.123 761.796 317.057 761.792 316.986 761.792C316.83 761.792 316.689 761.825 316.564 761.892C316.441 761.956 316.345 762.046 316.274 762.161C316.204 762.274 316.169 762.405 316.169 762.554V764.604H315.642ZM319.181 764.675C318.864 764.675 318.591 764.604 318.36 764.464C318.132 764.323 317.955 764.127 317.83 763.875C317.707 763.623 317.646 763.329 317.646 762.993C317.646 762.657 317.706 762.361 317.827 762.105C317.948 761.85 318.119 761.649 318.34 761.505C318.562 761.36 318.822 761.288 319.119 761.288C319.293 761.288 319.464 761.317 319.632 761.376C319.802 761.433 319.955 761.525 320.092 761.654C320.23 761.781 320.341 761.949 320.423 762.158C320.505 762.367 320.546 762.623 320.546 762.926V763.146H318.003V762.7H320.262L320.016 762.864C320.016 762.649 319.981 762.459 319.913 762.293C319.847 762.125 319.747 761.994 319.614 761.9C319.481 761.805 319.316 761.757 319.119 761.757C318.922 761.757 318.753 761.806 318.612 761.903C318.472 761.999 318.364 762.125 318.29 762.281C318.216 762.436 318.179 762.602 318.179 762.779V763.075C318.179 763.317 318.221 763.523 318.305 763.693C318.389 763.861 318.506 763.989 318.656 764.077C318.809 764.163 318.984 764.206 319.184 764.206C319.312 764.206 319.43 764.188 319.535 764.15C319.641 764.113 319.731 764.058 319.808 763.983C319.884 763.907 319.942 763.813 319.983 763.702L320.493 763.843C320.442 764.007 320.356 764.151 320.235 764.276C320.114 764.401 319.964 764.499 319.784 764.569C319.606 764.64 319.405 764.675 319.181 764.675ZM324.416 764.604H323.361V764.112H324.381C324.736 764.112 325.03 764.045 325.263 763.91C325.497 763.773 325.672 763.578 325.787 763.324C325.902 763.07 325.96 762.767 325.96 762.413C325.96 762.063 325.902 761.764 325.787 761.514C325.674 761.262 325.504 761.068 325.277 760.934C325.053 760.799 324.771 760.731 324.434 760.731H323.338V760.239H324.472C324.897 760.239 325.261 760.326 325.562 760.5C325.864 760.674 326.096 760.924 326.256 761.25C326.418 761.574 326.499 761.962 326.499 762.413C326.499 762.868 326.418 763.26 326.256 763.588C326.094 763.914 325.857 764.165 325.547 764.341C325.236 764.517 324.859 764.604 324.416 764.604ZM323.61 760.239V764.604H323.054V760.239H323.61ZM327.384 764.604V760.239H328.04L329.815 763.031C329.862 763.104 329.919 763.196 329.985 763.31C330.052 763.423 330.123 763.551 330.199 763.693C330.277 763.836 330.354 763.988 330.428 764.15H330.349C330.331 763.982 330.318 763.822 330.311 763.67C330.303 763.516 330.298 763.374 330.296 763.245C330.294 763.116 330.293 763.007 330.293 762.917V760.239H330.85V764.604H330.188L328.605 762.12C328.533 762.005 328.46 761.887 328.386 761.766C328.313 761.643 328.23 761.498 328.137 761.332C328.043 761.164 327.927 760.957 327.788 760.711H327.891C327.9 760.928 327.909 761.128 327.917 761.312C327.925 761.495 327.931 761.655 327.935 761.792C327.94 761.929 327.943 762.036 327.943 762.114V764.604H327.384ZM333.305 764.681C332.99 764.681 332.717 764.63 332.484 764.528C332.254 764.427 332.073 764.285 331.942 764.104C331.812 763.92 331.737 763.706 331.72 763.462H332.291C332.307 763.626 332.362 763.762 332.458 763.869C332.554 763.975 332.676 764.054 332.824 764.106C332.975 764.157 333.135 764.183 333.305 764.183C333.502 764.183 333.679 764.15 333.835 764.086C333.993 764.021 334.118 763.931 334.21 763.813C334.302 763.696 334.348 763.561 334.348 763.406C334.348 763.266 334.308 763.151 334.228 763.063C334.149 762.976 334.045 762.903 333.914 762.847C333.783 762.79 333.64 762.74 333.483 762.697L332.956 762.548C332.604 762.448 332.331 762.306 332.136 762.12C331.94 761.935 331.843 761.697 331.843 761.408C331.843 761.162 331.909 760.947 332.042 760.764C332.175 760.578 332.354 760.435 332.581 760.333C332.808 760.231 333.062 760.181 333.343 760.181C333.63 760.181 333.884 760.231 334.104 760.333C334.325 760.435 334.499 760.573 334.626 760.749C334.755 760.923 334.823 761.12 334.831 761.341H334.286C334.261 761.128 334.159 760.964 333.981 760.849C333.804 760.731 333.585 760.673 333.325 760.673C333.138 760.673 332.973 760.704 332.83 760.767C332.689 760.827 332.58 760.911 332.502 761.019C332.424 761.124 332.385 761.245 332.385 761.382C332.385 761.534 332.432 761.657 332.525 761.751C332.621 761.843 332.733 761.915 332.862 761.968C332.993 762.019 333.111 762.059 333.217 762.088L333.653 762.208C333.771 762.239 333.899 762.282 334.04 762.337C334.183 762.392 334.318 762.465 334.447 762.557C334.576 762.646 334.682 762.762 334.764 762.902C334.848 763.041 334.89 763.212 334.89 763.415C334.89 763.653 334.827 763.868 334.702 764.06C334.579 764.251 334.399 764.402 334.163 764.514C333.927 764.625 333.641 764.681 333.305 764.681Z" fill="black"/>
<path d="M298.016 674.993H296.961V674.501H297.981C298.336 674.501 298.63 674.434 298.863 674.299C299.097 674.162 299.272 673.967 299.387 673.713C299.502 673.459 299.56 673.156 299.56 672.802C299.56 672.452 299.502 672.153 299.387 671.903C299.274 671.651 299.104 671.457 298.877 671.323C298.653 671.188 298.372 671.12 298.034 671.12H296.938V670.628H298.072C298.498 670.628 298.861 670.715 299.162 670.889C299.464 671.063 299.696 671.313 299.856 671.639C300.018 671.963 300.099 672.351 300.099 672.802C300.099 673.257 300.018 673.649 299.856 673.977C299.694 674.303 299.458 674.554 299.147 674.73C298.836 674.906 298.459 674.993 298.016 674.993ZM297.21 670.628V674.993H296.654V670.628H297.21ZM302.296 675.064C301.98 675.064 301.707 674.993 301.476 674.853C301.248 674.712 301.071 674.516 300.946 674.264C300.823 674.012 300.761 673.718 300.761 673.382C300.761 673.046 300.822 672.75 300.943 672.494C301.064 672.239 301.235 672.038 301.456 671.894C301.678 671.749 301.938 671.677 302.235 671.677C302.409 671.677 302.58 671.706 302.748 671.765C302.917 671.822 303.071 671.914 303.208 672.043C303.346 672.17 303.457 672.338 303.539 672.547C303.621 672.756 303.662 673.012 303.662 673.315V673.534H301.119V673.089H303.377L303.131 673.253C303.131 673.038 303.097 672.848 303.029 672.682C302.962 672.514 302.863 672.383 302.73 672.289C302.597 672.194 302.432 672.146 302.235 672.146C302.038 672.146 301.869 672.195 301.728 672.292C301.587 672.388 301.48 672.514 301.406 672.67C301.332 672.824 301.294 672.99 301.294 673.168V673.464C301.294 673.706 301.336 673.912 301.42 674.082C301.504 674.25 301.622 674.378 301.772 674.466C301.924 674.552 302.1 674.595 302.299 674.595C302.428 674.595 302.545 674.576 302.651 674.539C302.756 674.502 302.847 674.447 302.923 674.372C303 674.296 303.058 674.202 303.099 674.091L303.609 674.232C303.558 674.396 303.472 674.54 303.351 674.665C303.23 674.79 303.08 674.888 302.9 674.958C302.722 675.029 302.521 675.064 302.296 675.064ZM305.247 674.993L303.996 671.718H304.573L305.27 673.66C305.344 673.862 305.407 674.063 305.458 674.264C305.51 674.463 305.565 674.656 305.622 674.844H305.428C305.485 674.656 305.539 674.463 305.589 674.264C305.642 674.063 305.705 673.862 305.777 673.66L306.474 671.718H307.051L305.8 674.993H305.247ZM307.675 674.993V671.718H308.203V674.993H307.675ZM307.942 671.182C307.842 671.182 307.756 671.148 307.684 671.079C307.612 671.011 307.576 670.929 307.576 670.833C307.576 670.736 307.612 670.654 307.684 670.587C307.756 670.519 307.842 670.485 307.942 670.485C308.043 670.485 308.13 670.519 308.203 670.587C308.275 670.654 308.311 670.736 308.311 670.833C308.311 670.929 308.275 671.011 308.203 671.079C308.13 671.148 308.043 671.182 307.942 671.182ZM310.461 675.064C310.165 675.064 309.904 674.993 309.679 674.853C309.457 674.712 309.283 674.515 309.158 674.261C309.033 674.007 308.97 673.712 308.97 673.376C308.97 673.034 309.033 672.737 309.158 672.483C309.283 672.227 309.457 672.029 309.679 671.888C309.904 671.747 310.165 671.677 310.461 671.677C310.62 671.677 310.769 671.698 310.91 671.739C311.05 671.78 311.178 671.839 311.293 671.917C311.411 671.993 311.511 672.088 311.595 672.201C311.679 672.313 311.744 672.44 311.789 672.582L311.282 672.726C311.258 672.642 311.222 672.565 311.173 672.494C311.125 672.424 311.065 672.364 310.995 672.313C310.926 672.26 310.847 672.22 310.757 672.193C310.667 672.163 310.569 672.149 310.461 672.149C310.243 672.149 310.063 672.206 309.922 672.322C309.782 672.435 309.677 672.584 309.609 672.77C309.541 672.955 309.506 673.157 309.506 673.376C309.506 673.591 309.541 673.791 309.609 673.977C309.677 674.16 309.782 674.309 309.922 674.422C310.063 674.535 310.243 674.592 310.461 674.592C310.571 674.592 310.671 674.577 310.763 674.548C310.855 674.519 310.936 674.478 311.006 674.425C311.079 674.37 311.139 674.306 311.188 674.232C311.237 674.157 311.273 674.076 311.296 673.989L311.8 674.132C311.757 674.279 311.693 674.409 311.607 674.525C311.523 674.638 311.422 674.736 311.305 674.818C311.188 674.898 311.058 674.958 310.916 674.999C310.773 675.042 310.622 675.064 310.461 675.064ZM313.933 675.064C313.617 675.064 313.343 674.993 313.113 674.853C312.884 674.712 312.708 674.516 312.583 674.264C312.459 674.012 312.398 673.718 312.398 673.382C312.398 673.046 312.458 672.75 312.58 672.494C312.701 672.239 312.872 672.038 313.092 671.894C313.315 671.749 313.575 671.677 313.872 671.677C314.045 671.677 314.216 671.706 314.384 671.765C314.554 671.822 314.708 671.914 314.844 672.043C314.983 672.17 315.093 672.338 315.175 672.547C315.257 672.756 315.298 673.012 315.298 673.315V673.534H312.755V673.089H315.014L314.768 673.253C314.768 673.038 314.734 672.848 314.666 672.682C314.599 672.514 314.5 672.383 314.367 672.289C314.234 672.194 314.069 672.146 313.872 672.146C313.674 672.146 313.505 672.195 313.365 672.292C313.224 672.388 313.117 672.514 313.042 672.67C312.968 672.824 312.931 672.99 312.931 673.168V673.464C312.931 673.706 312.973 673.912 313.057 674.082C313.141 674.25 313.258 674.378 313.409 674.466C313.561 674.552 313.737 674.595 313.936 674.595C314.065 674.595 314.182 674.576 314.288 674.539C314.393 674.502 314.484 674.447 314.56 674.372C314.636 674.296 314.695 674.202 314.736 674.091L315.246 674.232C315.195 674.396 315.109 674.54 314.988 674.665C314.867 674.79 314.716 674.888 314.537 674.958C314.359 675.029 314.158 675.064 313.933 675.064ZM317.806 674.993V670.628H319.3C319.64 670.628 319.919 670.691 320.138 670.816C320.359 670.939 320.522 671.105 320.627 671.314C320.735 671.523 320.789 671.757 320.789 672.017C320.789 672.277 320.735 672.512 320.627 672.723C320.522 672.934 320.36 673.102 320.141 673.227C319.922 673.352 319.643 673.414 319.303 673.414H318.246V672.925H319.277C319.507 672.925 319.693 672.886 319.833 672.808C319.974 672.728 320.076 672.619 320.138 672.483C320.203 672.344 320.235 672.189 320.235 672.017C320.235 671.845 320.203 671.692 320.138 671.557C320.076 671.42 319.973 671.313 319.831 671.235C319.69 671.156 319.503 671.117 319.271 671.117H318.363V674.993H317.806ZM321.574 674.993V671.718H322.083V672.222H322.119C322.179 672.056 322.287 671.923 322.441 671.823C322.597 671.722 322.773 671.671 322.968 671.671C323.007 671.671 323.053 671.672 323.106 671.674C323.161 671.676 323.204 671.678 323.235 671.68V672.21C323.219 672.206 323.18 672.2 323.118 672.193C323.055 672.185 322.989 672.181 322.918 672.181C322.762 672.181 322.622 672.214 322.497 672.281C322.374 672.345 322.277 672.435 322.207 672.55C322.136 672.663 322.101 672.794 322.101 672.943V674.993H321.574ZM325.069 675.064C324.772 675.064 324.511 674.993 324.287 674.853C324.064 674.712 323.89 674.515 323.765 674.261C323.64 674.007 323.578 673.712 323.578 673.376C323.578 673.034 323.64 672.737 323.765 672.483C323.89 672.227 324.064 672.029 324.287 671.888C324.511 671.747 324.772 671.677 325.069 671.677C325.368 671.677 325.629 671.747 325.854 671.888C326.079 672.029 326.253 672.227 326.378 672.483C326.503 672.737 326.566 673.034 326.566 673.376C326.566 673.712 326.503 674.007 326.378 674.261C326.253 674.515 326.079 674.712 325.854 674.853C325.629 674.993 325.368 675.064 325.069 675.064ZM325.069 674.592C325.29 674.592 325.471 674.535 325.614 674.422C325.756 674.309 325.862 674.16 325.93 673.977C325.999 673.791 326.033 673.591 326.033 673.376C326.033 673.159 325.999 672.958 325.93 672.773C325.862 672.585 325.756 672.435 325.614 672.322C325.471 672.206 325.29 672.149 325.069 672.149C324.85 672.149 324.67 672.206 324.53 672.322C324.389 672.435 324.285 672.584 324.216 672.77C324.148 672.955 324.114 673.157 324.114 673.376C324.114 673.591 324.148 673.791 324.216 673.977C324.285 674.16 324.389 674.309 324.53 674.422C324.67 674.535 324.85 674.592 325.069 674.592ZM326.926 674.993L328.218 673.11L328.215 673.514L326.994 671.718H327.609L328.016 672.354C328.122 672.518 328.212 672.671 328.289 672.814C328.367 672.956 328.447 673.094 328.529 673.227H328.253C328.337 673.094 328.414 672.956 328.482 672.814C328.552 672.671 328.641 672.518 328.749 672.354L329.165 671.718H329.768L328.541 673.537V673.148L329.821 674.993H329.208L328.728 674.258C328.625 674.098 328.535 673.949 328.458 673.813C328.384 673.674 328.307 673.541 328.227 673.414H328.505C328.425 673.541 328.351 673.674 328.283 673.813C328.214 673.949 328.127 674.098 328.022 674.258L327.536 674.993H326.926ZM330.421 676.18L330.556 675.723L330.612 675.738C330.719 675.765 330.817 675.772 330.905 675.758C330.993 675.746 331.072 675.703 331.142 675.629C331.212 675.555 331.274 675.44 331.327 675.283L331.42 675.011L330.169 671.718H330.747L331.444 673.66C331.518 673.864 331.581 674.065 331.631 674.264C331.682 674.463 331.736 674.656 331.792 674.844H331.599C331.656 674.656 331.709 674.463 331.76 674.264C331.813 674.063 331.875 673.862 331.948 673.66L332.651 671.718H333.225L331.787 675.483C331.72 675.656 331.64 675.799 331.546 675.91C331.455 676.024 331.347 676.107 331.224 676.159C331.101 676.214 330.962 676.241 330.808 676.241C330.714 676.241 330.633 676.235 330.565 676.221C330.497 676.207 330.449 676.194 330.421 676.18Z" fill="black"/>
<path d="M388.256 761.787L387.067 757.422H387.635L388.327 760.1C388.364 760.242 388.399 760.388 388.432 760.536C388.465 760.683 388.498 760.832 388.529 760.985C388.56 761.135 388.589 761.29 388.617 761.45H388.549C388.579 761.29 388.609 761.135 388.64 760.985C388.671 760.832 388.705 760.683 388.74 760.536C388.775 760.388 388.811 760.242 388.848 760.1L389.554 757.422H390.187L390.887 760.1C390.926 760.242 390.962 760.388 390.996 760.536C391.031 760.683 391.065 760.832 391.098 760.985C391.131 761.135 391.163 761.29 391.192 761.45H391.116C391.145 761.29 391.175 761.135 391.207 760.985C391.238 760.832 391.271 760.683 391.306 760.536C391.341 760.388 391.376 760.242 391.412 760.1L392.1 757.422H392.674L391.479 761.787H390.832L390.082 759.022C390.033 758.842 389.986 758.647 389.941 758.436C389.896 758.223 389.852 757.978 389.809 757.7H389.926C389.883 757.962 389.841 758.197 389.8 758.404C389.759 758.609 389.71 758.815 389.654 759.022L388.907 761.787H388.256ZM393.29 761.787V758.512H393.817V761.787H393.29ZM393.556 757.976C393.457 757.976 393.371 757.942 393.298 757.873C393.226 757.805 393.19 757.723 393.19 757.627C393.19 757.53 393.226 757.448 393.298 757.381C393.371 757.313 393.457 757.279 393.556 757.279C393.658 757.279 393.745 757.313 393.817 757.381C393.889 757.448 393.925 757.53 393.925 757.627C393.925 757.723 393.889 757.805 393.817 757.873C393.745 757.942 393.658 757.976 393.556 757.976ZM394.743 761.787V758.512H395.252V759.016H395.288C395.348 758.85 395.456 758.717 395.61 758.617C395.766 758.516 395.942 758.465 396.137 758.465C396.176 758.465 396.222 758.466 396.275 758.468C396.33 758.47 396.373 758.472 396.404 758.474V759.004C396.388 759 396.349 758.994 396.287 758.987C396.224 758.979 396.158 758.975 396.087 758.975C395.931 758.975 395.791 759.008 395.666 759.074C395.542 759.139 395.446 759.229 395.375 759.344C395.305 759.457 395.27 759.588 395.27 759.737V761.787H394.743ZM398.282 761.858C397.965 761.858 397.692 761.787 397.461 761.647C397.233 761.506 397.056 761.31 396.931 761.058C396.808 760.806 396.747 760.512 396.747 760.176C396.747 759.84 396.807 759.544 396.928 759.288C397.049 759.032 397.22 758.832 397.441 758.688C397.664 758.543 397.923 758.471 398.22 758.471C398.394 758.471 398.565 758.5 398.733 758.559C398.903 758.615 399.056 758.708 399.193 758.837C399.332 758.964 399.442 759.132 399.524 759.341C399.606 759.55 399.647 759.806 399.647 760.109V760.328H397.104V759.883H399.363L399.117 760.047C399.117 759.832 399.083 759.642 399.014 759.476C398.948 759.308 398.848 759.177 398.715 759.083C398.583 758.988 398.417 758.94 398.22 758.94C398.023 758.94 397.854 758.989 397.713 759.086C397.573 759.182 397.465 759.308 397.391 759.464C397.317 759.618 397.28 759.784 397.28 759.962V760.258C397.28 760.5 397.322 760.706 397.406 760.876C397.49 761.044 397.607 761.172 397.757 761.26C397.91 761.346 398.085 761.389 398.285 761.389C398.414 761.389 398.531 761.37 398.636 761.333C398.742 761.296 398.833 761.24 398.909 761.166C398.985 761.09 399.043 760.996 399.084 760.885L399.594 761.026C399.543 761.19 399.458 761.334 399.336 761.459C399.215 761.584 399.065 761.682 398.885 761.752C398.708 761.823 398.506 761.858 398.282 761.858ZM401.73 763.082C401.488 763.082 401.278 763.051 401.1 762.989C400.924 762.928 400.778 762.847 400.661 762.745C400.543 762.644 400.451 762.533 400.382 762.414L400.81 762.139C400.857 762.201 400.915 762.271 400.983 762.347C401.053 762.423 401.147 762.488 401.264 762.54C401.383 762.595 401.539 762.622 401.73 762.622C401.992 762.622 402.207 762.56 402.375 762.435C402.544 762.31 402.629 762.113 402.629 761.843V761.187H402.58C402.542 761.249 402.49 761.323 402.421 761.409C402.355 761.495 402.258 761.572 402.131 761.638C402.006 761.702 401.838 761.735 401.627 761.735C401.366 761.735 401.13 761.673 400.921 761.55C400.712 761.425 400.547 761.243 400.426 761.005C400.305 760.767 400.245 760.477 400.245 760.135C400.245 759.797 400.304 759.504 400.423 759.256C400.542 759.006 400.707 758.813 400.916 758.676C401.126 758.539 401.368 758.471 401.639 758.471C401.85 758.471 402.018 758.506 402.143 758.576C402.27 758.645 402.368 758.724 402.436 758.814C402.504 758.904 402.557 758.978 402.594 759.036H402.644V758.512H403.157V761.872C403.157 762.154 403.093 762.383 402.966 762.561C402.839 762.74 402.667 762.872 402.451 762.956C402.236 763.04 401.996 763.082 401.73 763.082ZM401.715 761.266C401.915 761.266 402.083 761.221 402.219 761.131C402.356 761.039 402.459 760.908 402.53 760.739C402.6 760.567 402.635 760.362 402.635 760.123C402.635 759.891 402.6 759.687 402.53 759.511C402.461 759.333 402.359 759.195 402.222 759.095C402.085 758.993 401.917 758.943 401.715 758.943C401.508 758.943 401.335 758.996 401.197 759.104C401.058 759.209 400.954 759.351 400.883 759.529C400.815 759.706 400.781 759.905 400.781 760.123C400.781 760.348 400.816 760.546 400.886 760.718C400.957 760.89 401.061 761.025 401.2 761.122C401.338 761.218 401.51 761.266 401.715 761.266ZM405.193 761.828C404.972 761.828 404.778 761.783 404.61 761.694C404.444 761.602 404.314 761.464 404.22 761.281C404.128 761.097 404.083 760.867 404.083 760.592V758.512H404.61V760.548C404.61 760.8 404.676 760.997 404.809 761.14C404.942 761.282 405.123 761.354 405.351 761.354C405.507 761.354 405.647 761.32 405.77 761.251C405.895 761.183 405.994 761.083 406.066 760.952C406.138 760.82 406.174 760.66 406.174 760.475V758.512H406.705V761.787H406.195V760.993H406.265C406.164 761.3 406.019 761.516 405.832 761.641C405.646 761.766 405.433 761.828 405.193 761.828ZM408.858 761.858C408.588 761.858 408.349 761.788 408.14 761.65C407.933 761.511 407.77 761.315 407.651 761.061C407.534 760.807 407.475 760.506 407.475 760.158C407.475 759.813 407.535 759.514 407.654 759.262C407.773 759.008 407.937 758.813 408.146 758.676C408.357 758.539 408.598 758.471 408.87 758.471C409.081 758.471 409.249 758.506 409.374 758.576C409.499 758.645 409.594 758.724 409.661 758.814C409.727 758.904 409.778 758.978 409.813 759.036H409.857V758.512H410.381V761.787H409.86V761.281H409.813C409.778 761.341 409.725 761.417 409.655 761.509C409.586 761.601 409.489 761.682 409.362 761.752C409.235 761.823 409.067 761.858 408.858 761.858ZM408.946 761.386C409.145 761.386 409.313 761.334 409.45 761.231C409.586 761.125 409.69 760.98 409.76 760.794C409.831 760.609 409.866 760.395 409.866 760.153C409.866 759.91 409.831 759.699 409.76 759.52C409.692 759.338 409.589 759.197 409.453 759.095C409.316 758.993 409.147 758.943 408.946 758.943C408.739 758.943 408.566 758.996 408.427 759.104C408.289 759.209 408.184 759.354 408.114 759.537C408.045 759.719 408.011 759.924 408.011 760.153C408.011 760.381 408.046 760.589 408.117 760.777C408.187 760.962 408.292 761.111 408.43 761.222C408.569 761.331 408.741 761.386 408.946 761.386ZM411.307 761.787V758.512H411.817V759.016H411.852C411.913 758.85 412.02 758.717 412.174 758.617C412.331 758.516 412.506 758.465 412.702 758.465C412.741 758.465 412.787 758.466 412.839 758.468C412.894 758.47 412.937 758.472 412.968 758.474V759.004C412.953 759 412.914 758.994 412.851 758.987C412.789 758.979 412.722 758.975 412.652 758.975C412.496 758.975 412.355 759.008 412.23 759.074C412.107 759.139 412.01 759.229 411.94 759.344C411.87 759.457 411.834 759.588 411.834 759.737V761.787H411.307ZM414.697 761.858C414.425 761.858 414.185 761.788 413.976 761.65C413.767 761.511 413.604 761.315 413.487 761.061C413.37 760.807 413.311 760.506 413.311 760.158C413.311 759.813 413.37 759.514 413.487 759.262C413.606 759.008 413.77 758.813 413.979 758.676C414.188 758.539 414.428 758.471 414.7 758.471C414.913 758.471 415.082 758.506 415.207 758.576C415.332 758.647 415.427 758.727 415.494 758.817C415.562 758.905 415.614 758.978 415.649 759.036H415.69V757.422H416.217V761.787H415.708V761.281H415.649C415.614 761.341 415.561 761.417 415.491 761.509C415.422 761.599 415.325 761.68 415.198 761.752C415.073 761.823 414.906 761.858 414.697 761.858ZM414.776 761.386C414.975 761.386 415.143 761.334 415.28 761.231C415.417 761.125 415.52 760.98 415.59 760.794C415.661 760.609 415.696 760.395 415.696 760.153C415.696 759.91 415.661 759.699 415.59 759.52C415.522 759.338 415.419 759.197 415.283 759.095C415.146 758.993 414.977 758.943 414.776 758.943C414.569 758.943 414.396 758.996 414.257 759.104C414.121 759.211 414.018 759.357 413.95 759.54C413.881 759.722 413.847 759.926 413.847 760.153C413.847 760.381 413.881 760.589 413.95 760.777C414.02 760.962 414.125 761.111 414.263 761.222C414.402 761.331 414.573 761.386 414.776 761.386Z" fill="black"/>
<path d="M249.046 792.775V788.41H251.706V788.902H249.603V790.326H251.562V790.818H249.603V792.283H251.732V792.775H249.046ZM253.118 790.812V792.775H252.591V789.5H253.098L253.101 790.294H253.027C253.127 789.991 253.269 789.776 253.452 789.649C253.638 789.522 253.854 789.459 254.103 789.459C254.323 789.459 254.517 789.505 254.683 789.597C254.849 789.687 254.978 789.823 255.069 790.007C255.163 790.188 255.21 790.418 255.21 790.695V792.775H254.683V790.739C254.683 790.487 254.616 790.29 254.483 790.147C254.353 790.005 254.173 789.934 253.944 789.934C253.788 789.934 253.647 789.968 253.522 790.036C253.397 790.104 253.299 790.204 253.227 790.335C253.154 790.466 253.118 790.625 253.118 790.812ZM256.994 792.775L255.743 789.5H256.32L257.018 791.442C257.092 791.644 257.154 791.845 257.205 792.046C257.258 792.245 257.312 792.438 257.369 792.626H257.176C257.232 792.438 257.286 792.245 257.337 792.046C257.39 791.845 257.452 791.644 257.524 791.442L258.222 789.5H258.799L257.548 792.775H256.994Z" fill="black"/>
<path d="M147.09 768.183L157.09 773.957L157.09 762.41L147.09 768.183ZM231.641 768.183L221.641 762.41L221.641 773.957L231.641 768.183ZM156.09 769.183L222.641 769.183L222.641 767.183L156.09 767.183L156.09 769.183Z" fill="#2563EB"/>
<rect x="290" y="470" width="60" height="60" rx="30" fill="#EFF6FF"/>
<rect x="290" y="470" width="60" height="60" rx="30" stroke="#1E40AF" stroke-width="2" stroke-dasharray="6 6"/>
<path d="M316.808 500.283C316.629 500.105 316.629 499.815 316.808 499.637L325.987 490.457C326.166 490.279 326.455 490.279 326.634 490.457L335.814 499.637C335.992 499.815 335.992 500.105 335.814 500.283L326.634 509.463C326.455 509.641 326.166 509.641 325.987 509.463L316.808 500.283Z" fill="#2563EB"/>
<path d="M320.375 484.134C320.197 483.955 319.908 483.955 319.729 484.134L304.186 499.677C304.008 499.855 304.008 500.145 304.186 500.323L319.729 515.866C319.908 516.045 320.197 516.045 320.375 515.866L322.937 513.304C323.116 513.126 323.116 512.836 322.937 512.658L310.543 500.264C310.365 500.085 310.365 499.796 310.543 499.617L322.878 487.283C323.056 487.104 323.056 486.815 322.878 486.636L320.375 484.134Z" fill="#2563EB"/>
<defs>
<clipPath id="clip0_141_39879">
<rect width="18" height="18" fill="white" transform="translate(392.914 728.45)"/>
</clipPath>
</defs>
</svg>
