<svg width="377" height="200" viewBox="0 0 377 200" fill="none" xmlns="http://www.w3.org/2000/svg">
<path d="M5.5459 17.1709C4.78483 17.1709 4.12402 17.0501 3.56348 16.8086C3.00293 16.5671 2.56315 16.223 2.24414 15.7764C1.92969 15.3252 1.75651 14.7897 1.72461 14.1699H3.29004C3.32194 14.5391 3.44043 14.8444 3.64551 15.0859C3.85514 15.3275 4.1263 15.5075 4.45898 15.626C4.79167 15.7445 5.15169 15.8037 5.53906 15.8037C5.97201 15.8037 6.35482 15.7376 6.6875 15.6055C7.02474 15.4688 7.29134 15.2773 7.4873 15.0312C7.68327 14.7806 7.78125 14.4912 7.78125 14.1631C7.78125 13.8669 7.69466 13.6253 7.52148 13.4385C7.35286 13.2471 7.12272 13.0898 6.83105 12.9668C6.54395 12.8392 6.21582 12.7275 5.84668 12.6318L4.65723 12.3037C3.82324 12.0804 3.17155 11.75 2.70215 11.3125C2.2373 10.875 2.00488 10.3076 2.00488 9.61035C2.00488 9.02246 2.16211 8.50977 2.47656 8.07227C2.79557 7.63021 3.22624 7.28841 3.76855 7.04688C4.31543 6.80078 4.93066 6.67773 5.61426 6.67773C6.31152 6.67773 6.92448 6.80078 7.45312 7.04688C7.98633 7.28841 8.40332 7.62109 8.7041 8.04492C9.00944 8.46875 9.16895 8.95182 9.18262 9.49414H7.66504C7.61491 9.0293 7.39844 8.66927 7.01562 8.41406C6.63737 8.15885 6.15885 8.03125 5.58008 8.03125C5.16992 8.03125 4.81217 8.09505 4.50684 8.22266C4.20605 8.35026 3.97135 8.52799 3.80273 8.75586C3.63867 8.97917 3.55664 9.23438 3.55664 9.52148C3.55664 9.84505 3.65462 10.1071 3.85059 10.3076C4.05111 10.5036 4.29264 10.6608 4.5752 10.7793C4.8623 10.8932 5.13574 10.9844 5.39551 11.0527L6.38672 11.3125C6.71029 11.3945 7.04297 11.5062 7.38477 11.6475C7.73112 11.7842 8.05013 11.9642 8.3418 12.1875C8.63346 12.4062 8.86816 12.6797 9.0459 13.0078C9.22819 13.3314 9.31934 13.7233 9.31934 14.1836C9.31934 14.7578 9.17122 15.2705 8.875 15.7217C8.57878 16.1729 8.14811 16.5283 7.58301 16.7881C7.02246 17.0433 6.34342 17.1709 5.5459 17.1709ZM14.3574 17.1572C13.6055 17.1572 12.9561 16.9954 12.4092 16.6719C11.8623 16.3483 11.4408 15.8926 11.1445 15.3047C10.8529 14.7168 10.707 14.0264 10.707 13.2334C10.707 12.4495 10.8506 11.7591 11.1377 11.1621C11.4294 10.5651 11.8395 10.1003 12.3682 9.76758C12.8968 9.43034 13.5166 9.26172 14.2275 9.26172C14.665 9.26172 15.0866 9.33464 15.4922 9.48047C15.8978 9.62174 16.2624 9.84505 16.5859 10.1504C16.9095 10.4557 17.1647 10.8522 17.3516 11.3398C17.543 11.8229 17.6387 12.4108 17.6387 13.1035V13.6367H11.5479V12.5156H16.8662L16.1621 12.8848C16.1621 12.4154 16.0892 12.0029 15.9434 11.6475C15.7975 11.2874 15.5811 11.0072 15.2939 10.8066C15.0114 10.6061 14.6559 10.5059 14.2275 10.5059C13.8037 10.5059 13.4414 10.6084 13.1406 10.8135C12.8398 11.0186 12.6097 11.2897 12.4502 11.627C12.2952 11.9596 12.2178 12.3242 12.2178 12.7207V13.4863C12.2178 14.0104 12.3066 14.4548 12.4844 14.8193C12.6667 15.1794 12.9196 15.4528 13.2432 15.6396C13.5667 15.8219 13.9427 15.9131 14.3711 15.9131C14.6536 15.9131 14.9089 15.8743 15.1367 15.7969C15.3646 15.7148 15.5605 15.5941 15.7246 15.4346C15.8932 15.2705 16.0208 15.07 16.1074 14.833L17.5225 15.168C17.3994 15.5599 17.1921 15.9062 16.9004 16.207C16.6133 16.5078 16.2533 16.7425 15.8203 16.9111C15.3919 17.0752 14.9043 17.1572 14.3574 17.1572ZM20.7969 6.81445V17H19.293V6.81445H20.7969ZM26.1152 17.1572C25.3633 17.1572 24.7139 16.9954 24.167 16.6719C23.6201 16.3483 23.1986 15.8926 22.9023 15.3047C22.6107 14.7168 22.4648 14.0264 22.4648 13.2334C22.4648 12.4495 22.6084 11.7591 22.8955 11.1621C23.1872 10.5651 23.5973 10.1003 24.126 9.76758C24.6546 9.43034 25.2744 9.26172 25.9854 9.26172C26.4229 9.26172 26.8444 9.33464 27.25 9.48047C27.6556 9.62174 28.0202 9.84505 28.3438 10.1504C28.6673 10.4557 28.9225 10.8522 29.1094 11.3398C29.3008 11.8229 29.3965 12.4108 29.3965 13.1035V13.6367H23.3057V12.5156H28.624L27.9199 12.8848C27.9199 12.4154 27.847 12.0029 27.7012 11.6475C27.5553 11.2874 27.3389 11.0072 27.0518 10.8066C26.7692 10.6061 26.4137 10.5059 25.9854 10.5059C25.5615 10.5059 25.1992 10.6084 24.8984 10.8135C24.5977 11.0186 24.3675 11.2897 24.208 11.627C24.0531 11.9596 23.9756 12.3242 23.9756 12.7207V13.4863C23.9756 14.0104 24.0645 14.4548 24.2422 14.8193C24.4245 15.1794 24.6774 15.4528 25.001 15.6396C25.3245 15.8219 25.7005 15.9131 26.1289 15.9131C26.4115 15.9131 26.6667 15.8743 26.8945 15.7969C27.1224 15.7148 27.3184 15.5941 27.4824 15.4346C27.651 15.2705 27.7786 15.07 27.8652 14.833L29.2803 15.168C29.1572 15.5599 28.9499 15.9062 28.6582 16.207C28.3711 16.5078 28.0111 16.7425 27.5781 16.9111C27.1497 17.0752 26.6621 17.1572 26.1152 17.1572ZM34.2637 17.1572C33.5436 17.1572 32.917 16.9932 32.3838 16.665C31.8506 16.3369 31.4359 15.8766 31.1396 15.2842C30.8434 14.6917 30.6953 14.0036 30.6953 13.2197C30.6953 12.4268 30.8434 11.734 31.1396 11.1416C31.4359 10.5446 31.8506 10.082 32.3838 9.75391C32.917 9.42578 33.5436 9.26172 34.2637 9.26172C34.6602 9.26172 35.0316 9.31413 35.3779 9.41895C35.7243 9.51921 36.0365 9.66732 36.3145 9.86328C36.597 10.0547 36.834 10.2917 37.0254 10.5742C37.2214 10.8522 37.3672 11.1667 37.4629 11.5176L36.0342 11.8594C35.984 11.6634 35.9066 11.4857 35.8018 11.3262C35.6969 11.1621 35.5693 11.0208 35.4189 10.9023C35.2731 10.7839 35.1022 10.6927 34.9062 10.6289C34.7148 10.5651 34.5029 10.5332 34.2705 10.5332C33.8102 10.5332 33.4274 10.6562 33.1221 10.9023C32.8213 11.1439 32.5957 11.4674 32.4453 11.873C32.2995 12.2786 32.2266 12.7275 32.2266 13.2197C32.2266 13.7074 32.2995 14.154 32.4453 14.5596C32.5957 14.9606 32.8213 15.2819 33.1221 15.5234C33.4274 15.765 33.8102 15.8857 34.2705 15.8857C34.5075 15.8857 34.724 15.8538 34.9199 15.79C35.1159 15.7217 35.2913 15.6283 35.4463 15.5098C35.6012 15.3867 35.7311 15.2409 35.8359 15.0723C35.9408 14.8991 36.016 14.71 36.0615 14.5049L37.4834 14.8467C37.3923 15.2067 37.2487 15.5303 37.0527 15.8174C36.8568 16.0999 36.6175 16.3415 36.335 16.542C36.057 16.7425 35.7425 16.8952 35.3916 17C35.0407 17.1048 34.6647 17.1572 34.2637 17.1572ZM42.3984 9.35742V10.5811H38.2559V9.35742H42.3984ZM39.3701 7.53906H40.874V14.9355C40.874 15.2409 40.9378 15.4665 41.0654 15.6123C41.1976 15.7536 41.4118 15.8242 41.708 15.8242C41.7855 15.8242 41.888 15.8151 42.0156 15.7969C42.1432 15.7786 42.2526 15.7604 42.3438 15.7422L42.6104 16.9453C42.4508 17 42.2799 17.0387 42.0977 17.0615C41.9154 17.0889 41.7354 17.1025 41.5576 17.1025C40.8649 17.1025 40.3271 16.9248 39.9443 16.5693C39.5615 16.2093 39.3701 15.7057 39.3701 15.0586V7.53906ZM50.8477 17.1572C50.1276 17.1572 49.501 16.9932 48.9678 16.665C48.4346 16.3369 48.0199 15.8766 47.7236 15.2842C47.4274 14.6917 47.2793 14.0036 47.2793 13.2197C47.2793 12.4268 47.4274 11.734 47.7236 11.1416C48.0199 10.5446 48.4346 10.082 48.9678 9.75391C49.501 9.42578 50.1276 9.26172 50.8477 9.26172C51.2441 9.26172 51.6156 9.31413 51.9619 9.41895C52.3083 9.51921 52.6204 9.66732 52.8984 9.86328C53.181 10.0547 53.418 10.2917 53.6094 10.5742C53.8053 10.8522 53.9512 11.1667 54.0469 11.5176L52.6182 11.8594C52.568 11.6634 52.4906 11.4857 52.3857 11.3262C52.2809 11.1621 52.1533 11.0208 52.0029 10.9023C51.8571 10.7839 51.6862 10.6927 51.4902 10.6289C51.2988 10.5651 51.0869 10.5332 50.8545 10.5332C50.3942 10.5332 50.0114 10.6562 49.7061 10.9023C49.4053 11.1439 49.1797 11.4674 49.0293 11.873C48.8835 12.2786 48.8105 12.7275 48.8105 13.2197C48.8105 13.7074 48.8835 14.154 49.0293 14.5596C49.1797 14.9606 49.4053 15.2819 49.7061 15.5234C50.0114 15.765 50.3942 15.8857 50.8545 15.8857C51.0915 15.8857 51.3079 15.8538 51.5039 15.79C51.6999 15.7217 51.8753 15.6283 52.0303 15.5098C52.1852 15.3867 52.3151 15.2409 52.4199 15.0723C52.5247 14.8991 52.5999 14.71 52.6455 14.5049L54.0674 14.8467C53.9762 15.2067 53.8327 15.5303 53.6367 15.8174C53.4408 16.0999 53.2015 16.3415 52.9189 16.542C52.641 16.7425 52.3265 16.8952 51.9756 17C51.6247 17.1048 51.2487 17.1572 50.8477 17.1572ZM57.2188 6.81445V17H55.7148V6.81445H57.2188ZM62.4551 17.1572C61.7396 17.1572 61.113 16.9932 60.5752 16.665C60.042 16.3369 59.6273 15.8766 59.3311 15.2842C59.0348 14.6917 58.8867 14.0036 58.8867 13.2197C58.8867 12.4268 59.0348 11.734 59.3311 11.1416C59.6273 10.5446 60.042 10.082 60.5752 9.75391C61.113 9.42578 61.7396 9.26172 62.4551 9.26172C63.1751 9.26172 63.8018 9.42578 64.335 9.75391C64.8727 10.082 65.2897 10.5446 65.5859 11.1416C65.8822 11.734 66.0303 12.4268 66.0303 13.2197C66.0303 14.0036 65.8822 14.6917 65.5859 15.2842C65.2897 15.8766 64.8727 16.3369 64.335 16.665C63.8018 16.9932 63.1751 17.1572 62.4551 17.1572ZM62.4551 15.8857C62.9199 15.8857 63.3027 15.765 63.6035 15.5234C63.9089 15.2773 64.1344 14.9538 64.2803 14.5527C64.4307 14.1471 64.5059 13.7028 64.5059 13.2197C64.5059 12.7321 64.4307 12.2855 64.2803 11.8799C64.1344 11.4697 63.9089 11.1439 63.6035 10.9023C63.3027 10.6562 62.9199 10.5332 62.4551 10.5332C61.9948 10.5332 61.6143 10.6562 61.3135 10.9023C61.0127 11.1439 60.7871 11.4674 60.6367 11.873C60.4909 12.2786 60.418 12.7275 60.418 13.2197C60.418 13.7028 60.4909 14.1471 60.6367 14.5527C60.7871 14.9538 61.0127 15.2773 61.3135 15.5234C61.6143 15.765 61.9948 15.8857 62.4551 15.8857ZM70.3096 17.0957C69.79 17.0957 69.3343 16.9863 68.9424 16.7676C68.5505 16.5488 68.2451 16.2253 68.0264 15.7969C67.8122 15.3685 67.7051 14.8398 67.7051 14.2109V9.35742H69.209V14.0264C69.209 14.5778 69.3525 15.0085 69.6396 15.3184C69.9313 15.6283 70.3255 15.7832 70.8223 15.7832C71.1641 15.7832 71.4671 15.7103 71.7314 15.5645C72.0003 15.4141 72.2122 15.1976 72.3672 14.915C72.5221 14.6279 72.5996 14.2839 72.5996 13.8828V9.35742H74.1035V17H72.668L72.6611 15.127H72.8047C72.5814 15.8197 72.2555 16.321 71.8271 16.6309C71.3988 16.9408 70.8929 17.0957 70.3096 17.0957ZM78.9707 17.1504C78.3509 17.1504 77.7995 16.9932 77.3164 16.6787C76.8333 16.3597 76.4551 15.9062 76.1816 15.3184C75.9082 14.7259 75.7715 14.0195 75.7715 13.1992C75.7715 12.3698 75.9105 11.6611 76.1885 11.0732C76.4665 10.4854 76.847 10.0365 77.3301 9.72656C77.8132 9.41667 78.36 9.26172 78.9707 9.26172C79.4447 9.26172 79.8252 9.34147 80.1123 9.50098C80.404 9.65592 80.6318 9.83822 80.7959 10.0479C80.96 10.2575 81.0853 10.4421 81.1719 10.6016H81.2539V6.81445H82.7578V17H81.2949V15.8037H81.1719C81.0853 15.9678 80.9577 16.1546 80.7891 16.3643C80.6204 16.5739 80.3903 16.7585 80.0986 16.918C79.807 17.0729 79.431 17.1504 78.9707 17.1504ZM79.2988 15.8721C79.7272 15.8721 80.0872 15.7581 80.3789 15.5303C80.6751 15.3024 80.8984 14.988 81.0488 14.5869C81.2038 14.1813 81.2812 13.7142 81.2812 13.1855C81.2812 12.6523 81.2061 12.1898 81.0557 11.7979C80.9053 11.4014 80.682 11.0938 80.3857 10.875C80.0941 10.6517 79.7318 10.54 79.2988 10.54C78.8568 10.54 78.4876 10.6562 78.1914 10.8887C77.8997 11.1211 77.6787 11.4378 77.5283 11.8389C77.3825 12.2354 77.3096 12.6842 77.3096 13.1855C77.3096 13.6914 77.3848 14.1471 77.5352 14.5527C77.6855 14.9583 77.9089 15.2796 78.2051 15.5166C78.5013 15.7536 78.8659 15.8721 79.2988 15.8721ZM88.5137 19.8574V9.35742H89.9766V10.6016H90.0996C90.1908 10.4421 90.3161 10.2575 90.4756 10.0479C90.6396 9.83822 90.8652 9.65592 91.1523 9.50098C91.444 9.34147 91.8291 9.26172 92.3076 9.26172C92.9183 9.26172 93.4629 9.41667 93.9414 9.72656C94.4245 10.0365 94.805 10.4854 95.083 11.0732C95.361 11.6611 95.5 12.3698 95.5 13.1992C95.5 14.0195 95.3633 14.7259 95.0898 15.3184C94.8164 15.9062 94.4382 16.3597 93.9551 16.6787C93.4766 16.9932 92.9274 17.1504 92.3076 17.1504C91.8473 17.1504 91.4691 17.0729 91.1729 16.918C90.8812 16.7585 90.651 16.5739 90.4824 16.3643C90.3184 16.1546 90.1908 15.9678 90.0996 15.8037H90.0176V19.8574H88.5137ZM91.9727 15.8721C92.4102 15.8721 92.777 15.7536 93.0732 15.5166C93.3695 15.2796 93.5905 14.9583 93.7363 14.5527C93.8867 14.1471 93.9619 13.6914 93.9619 13.1855C93.9619 12.6842 93.8867 12.2354 93.7363 11.8389C93.5905 11.4378 93.3695 11.1211 93.0732 10.8887C92.7816 10.6562 92.4147 10.54 91.9727 10.54C91.5443 10.54 91.182 10.6517 90.8857 10.875C90.5895 11.0938 90.3662 11.4014 90.2158 11.7979C90.0654 12.1898 89.9902 12.6523 89.9902 13.1855C89.9902 13.7142 90.0654 14.1813 90.2158 14.5869C90.3708 14.988 90.5964 15.3024 90.8926 15.5303C91.1888 15.7581 91.5488 15.8721 91.9727 15.8721ZM97.168 17V9.35742H98.624V10.5879H98.7061C98.8473 10.1686 99.0934 9.84049 99.4443 9.60352C99.7952 9.36654 100.194 9.24805 100.641 9.24805C100.736 9.24805 100.846 9.2526 100.969 9.26172C101.092 9.26628 101.194 9.27539 101.276 9.28906V10.7246C101.222 10.7064 101.117 10.6882 100.962 10.6699C100.807 10.6517 100.65 10.6426 100.49 10.6426C100.144 10.6426 99.8317 10.7155 99.5537 10.8613C99.2757 11.0072 99.0592 11.21 98.9043 11.4697C98.7493 11.7249 98.6719 12.0212 98.6719 12.3584V17H97.168ZM105.521 17.1572C104.806 17.1572 104.179 16.9932 103.642 16.665C103.108 16.3369 102.694 15.8766 102.397 15.2842C102.101 14.6917 101.953 14.0036 101.953 13.2197C101.953 12.4268 102.101 11.734 102.397 11.1416C102.694 10.5446 103.108 10.082 103.642 9.75391C104.179 9.42578 104.806 9.26172 105.521 9.26172C106.242 9.26172 106.868 9.42578 107.401 9.75391C107.939 10.082 108.356 10.5446 108.652 11.1416C108.949 11.734 109.097 12.4268 109.097 13.2197C109.097 14.0036 108.949 14.6917 108.652 15.2842C108.356 15.8766 107.939 16.3369 107.401 16.665C106.868 16.9932 106.242 17.1572 105.521 17.1572ZM105.521 15.8857C105.986 15.8857 106.369 15.765 106.67 15.5234C106.975 15.2773 107.201 14.9538 107.347 14.5527C107.497 14.1471 107.572 13.7028 107.572 13.2197C107.572 12.7321 107.497 12.2855 107.347 11.8799C107.201 11.4697 106.975 11.1439 106.67 10.9023C106.369 10.6562 105.986 10.5332 105.521 10.5332C105.061 10.5332 104.681 10.6562 104.38 10.9023C104.079 11.1439 103.854 11.4674 103.703 11.873C103.557 12.2786 103.484 12.7275 103.484 13.2197C103.484 13.7028 103.557 14.1471 103.703 14.5527C103.854 14.9538 104.079 15.2773 104.38 15.5234C104.681 15.765 105.061 15.8857 105.521 15.8857ZM112.699 17L109.814 9.35742H111.441L112.952 13.6982C113.121 14.1768 113.264 14.6576 113.383 15.1406C113.501 15.6191 113.627 16.0954 113.759 16.5693H113.308C113.435 16.0954 113.558 15.6191 113.677 15.1406C113.795 14.6576 113.937 14.1768 114.101 13.6982L115.611 9.35742H117.225L114.34 17H112.699ZM118.564 17V9.35742H120.068V17H118.564ZM119.323 8.18848C119.063 8.18848 118.84 8.10189 118.653 7.92871C118.471 7.75553 118.38 7.5459 118.38 7.2998C118.38 7.04915 118.471 6.83724 118.653 6.66406C118.84 6.49089 119.063 6.4043 119.323 6.4043C119.583 6.4043 119.806 6.49089 119.993 6.66406C120.18 6.83724 120.273 7.04915 120.273 7.2998C120.273 7.5459 120.18 7.75553 119.993 7.92871C119.806 8.10189 119.583 8.18848 119.323 8.18848ZM124.936 17.1504C124.316 17.1504 123.764 16.9932 123.281 16.6787C122.798 16.3597 122.42 15.9062 122.146 15.3184C121.873 14.7259 121.736 14.0195 121.736 13.1992C121.736 12.3698 121.875 11.6611 122.153 11.0732C122.431 10.4854 122.812 10.0365 123.295 9.72656C123.778 9.41667 124.325 9.26172 124.936 9.26172C125.41 9.26172 125.79 9.34147 126.077 9.50098C126.369 9.65592 126.597 9.83822 126.761 10.0479C126.925 10.2575 127.05 10.4421 127.137 10.6016H127.219V6.81445H128.723V17H127.26V15.8037H127.137C127.05 15.9678 126.923 16.1546 126.754 16.3643C126.585 16.5739 126.355 16.7585 126.063 16.918C125.772 17.0729 125.396 17.1504 124.936 17.1504ZM125.264 15.8721C125.692 15.8721 126.052 15.7581 126.344 15.5303C126.64 15.3024 126.863 14.988 127.014 14.5869C127.169 14.1813 127.246 13.7142 127.246 13.1855C127.246 12.6523 127.171 12.1898 127.021 11.7979C126.87 11.4014 126.647 11.0938 126.351 10.875C126.059 10.6517 125.697 10.54 125.264 10.54C124.822 10.54 124.452 10.6562 124.156 10.8887C123.865 11.1211 123.644 11.4378 123.493 11.8389C123.347 12.2354 123.274 12.6842 123.274 13.1855C123.274 13.6914 123.35 14.1471 123.5 14.5527C123.65 14.9583 123.874 15.2796 124.17 15.5166C124.466 15.7536 124.831 15.8721 125.264 15.8721ZM134.041 17.1572C133.289 17.1572 132.64 16.9954 132.093 16.6719C131.546 16.3483 131.124 15.8926 130.828 15.3047C130.536 14.7168 130.391 14.0264 130.391 13.2334C130.391 12.4495 130.534 11.7591 130.821 11.1621C131.113 10.5651 131.523 10.1003 132.052 9.76758C132.58 9.43034 133.2 9.26172 133.911 9.26172C134.349 9.26172 134.77 9.33464 135.176 9.48047C135.581 9.62174 135.946 9.84505 136.27 10.1504C136.593 10.4557 136.848 10.8522 137.035 11.3398C137.227 11.8229 137.322 12.4108 137.322 13.1035V13.6367H131.231V12.5156H136.55L135.846 12.8848C135.846 12.4154 135.773 12.0029 135.627 11.6475C135.481 11.2874 135.265 11.0072 134.978 10.8066C134.695 10.6061 134.34 10.5059 133.911 10.5059C133.487 10.5059 133.125 10.6084 132.824 10.8135C132.523 11.0186 132.293 11.2897 132.134 11.627C131.979 11.9596 131.901 12.3242 131.901 12.7207V13.4863C131.901 14.0104 131.99 14.4548 132.168 14.8193C132.35 15.1794 132.603 15.4528 132.927 15.6396C133.25 15.8219 133.626 15.9131 134.055 15.9131C134.337 15.9131 134.592 15.8743 134.82 15.7969C135.048 15.7148 135.244 15.5941 135.408 15.4346C135.577 15.2705 135.704 15.07 135.791 14.833L137.206 15.168C137.083 15.5599 136.876 15.9062 136.584 16.207C136.297 16.5078 135.937 16.7425 135.504 16.9111C135.076 17.0752 134.588 17.1572 134.041 17.1572ZM138.977 17V9.35742H140.433V10.5879H140.515C140.656 10.1686 140.902 9.84049 141.253 9.60352C141.604 9.36654 142.003 9.24805 142.449 9.24805C142.545 9.24805 142.654 9.2526 142.777 9.26172C142.9 9.26628 143.003 9.27539 143.085 9.28906V10.7246C143.03 10.7064 142.925 10.6882 142.771 10.6699C142.616 10.6517 142.458 10.6426 142.299 10.6426C141.952 10.6426 141.64 10.7155 141.362 10.8613C141.084 11.0072 140.868 11.21 140.713 11.4697C140.558 11.7249 140.48 12.0212 140.48 12.3584V17H138.977Z" fill="#111827"/>
<g clip-path="url(#clip0_3891_40928)">
<rect x="1" y="28" width="375" height="36" rx="4" fill="white"/>
<path d="M365 43.5L360 48.5L355 43.5" stroke="#111827" stroke-linecap="round" stroke-linejoin="round"/>
</g>
<rect x="1" y="28" width="375" height="36" rx="4" stroke="#E4E4E7"/>
<rect x="1.5" y="96.5" width="164" height="103" rx="3.5" fill="white"/>
<rect x="1.5" y="96.5" width="164" height="103" rx="3.5" stroke="#E4E4E7"/>
<path fill-rule="evenodd" clip-rule="evenodd" d="M83.5 148C92.3366 148 99.5 140.837 99.5 132C99.5 123.163 92.3366 116 83.5 116C74.6661 116 67.5043 123.159 67.5 131.992H73.5879C73.5922 126.521 78.0283 122.088 83.5 122.088C88.9743 122.088 93.4121 126.526 93.4121 132C93.4121 137.474 88.9743 141.912 83.5 141.912L83.4807 141.912V148L83.5 148ZM83.4805 135.605H77.2933V141.793H83.4805V135.605ZM77.2933 141.813H72.5389V137.837H68.5631V141.813H72.5387V146.567H77.2933V141.813Z" fill="#111827"/>
<path d="M42.4365 175H39.9209V173.633H42.3545C43.1247 173.633 43.765 173.489 44.2754 173.202C44.7858 172.915 45.1686 172.493 45.4238 171.938C45.679 171.377 45.8066 170.696 45.8066 169.894C45.8066 169.096 45.679 168.422 45.4238 167.87C45.1732 167.319 44.7972 166.899 44.2959 166.612C43.7992 166.325 43.1794 166.182 42.4365 166.182H39.8662V164.814H42.5391C43.5417 164.814 44.4007 165.017 45.1162 165.423C45.8317 165.828 46.3809 166.412 46.7637 167.173C47.1465 167.929 47.3379 168.836 47.3379 169.894C47.3379 170.955 47.1442 171.867 46.7568 172.628C46.374 173.389 45.8158 173.975 45.082 174.385C44.3529 174.795 43.471 175 42.4365 175ZM40.6865 164.814V175H39.1279V164.814H40.6865ZM49.1152 175V167.357H50.6191V175H49.1152ZM49.874 166.188C49.6143 166.188 49.391 166.102 49.2041 165.929C49.0218 165.756 48.9307 165.546 48.9307 165.3C48.9307 165.049 49.0218 164.837 49.2041 164.664C49.391 164.491 49.6143 164.404 49.874 164.404C50.1338 164.404 50.3571 164.491 50.5439 164.664C50.7308 164.837 50.8242 165.049 50.8242 165.3C50.8242 165.546 50.7308 165.756 50.5439 165.929C50.3571 166.102 50.1338 166.188 49.874 166.188ZM55.835 178.021C55.2471 178.021 54.7367 177.946 54.3037 177.796C53.8708 177.646 53.513 177.445 53.2305 177.194C52.9525 176.944 52.7406 176.666 52.5947 176.36L53.8525 175.766C53.9437 175.911 54.0645 176.064 54.2148 176.224C54.3698 176.388 54.5771 176.527 54.8369 176.641C55.0967 176.755 55.4294 176.812 55.835 176.812C56.4183 176.812 56.89 176.673 57.25 176.395C57.6146 176.121 57.7969 175.69 57.7969 175.103V173.612H57.667C57.5758 173.781 57.4482 173.963 57.2842 174.159C57.1247 174.355 56.8991 174.526 56.6074 174.672C56.3203 174.813 55.9443 174.884 55.4795 174.884C54.8779 174.884 54.3356 174.743 53.8525 174.46C53.374 174.177 52.9935 173.758 52.7109 173.202C52.4284 172.646 52.2871 171.963 52.2871 171.151C52.2871 170.34 52.4261 169.645 52.7041 169.066C52.9867 168.483 53.3695 168.036 53.8525 167.727C54.3402 167.417 54.8893 167.262 55.5 167.262C55.9694 167.262 56.3499 167.339 56.6416 167.494C56.9378 167.649 57.168 167.834 57.332 168.048C57.5007 168.257 57.6283 168.442 57.7148 168.602H57.8242V167.357H59.2939V175.109C59.2939 175.779 59.1413 176.328 58.8359 176.757C58.5352 177.19 58.1227 177.509 57.5986 177.714C57.0791 177.919 56.4912 178.021 55.835 178.021ZM55.8281 173.633C56.2565 173.633 56.6165 173.535 56.9082 173.339C57.2044 173.138 57.4277 172.851 57.5781 172.478C57.7285 172.099 57.8037 171.65 57.8037 171.131C57.8037 170.616 57.7285 170.165 57.5781 169.777C57.4277 169.39 57.2044 169.087 56.9082 168.868C56.6165 168.649 56.2565 168.54 55.8281 168.54C55.3861 168.54 55.0169 168.656 54.7207 168.889C54.4245 169.117 54.2012 169.426 54.0508 169.818C53.9004 170.206 53.8252 170.643 53.8252 171.131C53.8252 171.628 53.9004 172.065 54.0508 172.443C54.2012 172.817 54.4245 173.109 54.7207 173.318C55.0215 173.528 55.3906 173.633 55.8281 173.633ZM61.3242 175V167.357H62.8281V175H61.3242ZM62.083 166.188C61.8232 166.188 61.5999 166.102 61.4131 165.929C61.2308 165.756 61.1396 165.546 61.1396 165.3C61.1396 165.049 61.2308 164.837 61.4131 164.664C61.5999 164.491 61.8232 164.404 62.083 164.404C62.3428 164.404 62.5661 164.491 62.7529 164.664C62.9398 164.837 63.0332 165.049 63.0332 165.3C63.0332 165.546 62.9398 165.756 62.7529 165.929C62.5661 166.102 62.3428 166.188 62.083 166.188ZM68.1191 167.357V168.581H63.9766V167.357H68.1191ZM65.0908 165.539H66.5947V172.936C66.5947 173.241 66.6585 173.466 66.7861 173.612C66.9183 173.754 67.1325 173.824 67.4287 173.824C67.5062 173.824 67.6087 173.815 67.7363 173.797C67.8639 173.779 67.9733 173.76 68.0645 173.742L68.3311 174.945C68.1715 175 68.0007 175.039 67.8184 175.062C67.6361 175.089 67.4561 175.103 67.2783 175.103C66.5856 175.103 66.0479 174.925 65.665 174.569C65.2822 174.209 65.0908 173.706 65.0908 173.059V165.539ZM72.3232 175.15C71.708 175.15 71.1589 174.993 70.6758 174.679C70.1973 174.36 69.819 173.906 69.541 173.318C69.2676 172.726 69.1309 172.02 69.1309 171.199C69.1309 170.37 69.2699 169.661 69.5479 169.073C69.8304 168.485 70.2132 168.036 70.6963 167.727C71.1839 167.417 71.7331 167.262 72.3438 167.262C72.8132 167.262 73.1914 167.339 73.4785 167.494C73.7702 167.649 73.9958 167.834 74.1553 168.048C74.3193 168.257 74.4447 168.442 74.5312 168.602H74.627V167.357H76.1172V175H74.6338V173.804H74.5312C74.4447 173.968 74.3171 174.157 74.1484 174.371C73.9798 174.581 73.7497 174.763 73.458 174.918C73.1663 175.073 72.7881 175.15 72.3232 175.15ZM72.6719 173.872C73.1003 173.872 73.4603 173.758 73.752 173.53C74.0482 173.302 74.2715 172.988 74.4219 172.587C74.5723 172.181 74.6475 171.714 74.6475 171.186C74.6475 170.652 74.5723 170.19 74.4219 169.798C74.2715 169.401 74.0482 169.094 73.752 168.875C73.4603 168.652 73.1003 168.54 72.6719 168.54C72.2298 168.54 71.8607 168.656 71.5645 168.889C71.2682 169.117 71.0449 169.431 70.8945 169.832C70.7441 170.229 70.6689 170.68 70.6689 171.186C70.6689 171.691 70.7441 172.147 70.8945 172.553C71.0449 172.958 71.2682 173.28 71.5645 173.517C71.8652 173.754 72.2344 173.872 72.6719 173.872ZM79.6445 164.814V175H78.1406V164.814H79.6445ZM89.7617 175.137C88.8822 175.137 88.0938 174.929 87.3965 174.515C86.7038 174.095 86.1569 173.496 85.7559 172.717C85.3594 171.933 85.1611 170.999 85.1611 169.914C85.1611 168.825 85.3594 167.891 85.7559 167.111C86.1569 166.327 86.7038 165.726 87.3965 165.307C88.0938 164.887 88.8822 164.678 89.7617 164.678C90.6413 164.678 91.4251 164.887 92.1133 165.307C92.806 165.726 93.3506 166.327 93.7471 167.111C94.1481 167.891 94.3486 168.825 94.3486 169.914C94.3486 170.999 94.1481 171.933 93.7471 172.717C93.3506 173.496 92.806 174.095 92.1133 174.515C91.4251 174.929 90.6413 175.137 89.7617 175.137ZM89.7617 173.715C90.3405 173.715 90.8577 173.571 91.3135 173.284C91.7738 172.993 92.1361 172.564 92.4004 171.999C92.6693 171.429 92.8037 170.734 92.8037 169.914C92.8037 169.085 92.6693 168.387 92.4004 167.822C92.1361 167.253 91.7738 166.824 91.3135 166.537C90.8577 166.245 90.3405 166.1 89.7617 166.1C89.1784 166.1 88.6566 166.245 88.1963 166.537C87.736 166.829 87.3714 167.259 87.1025 167.829C86.8382 168.394 86.7061 169.089 86.7061 169.914C86.7061 170.734 86.8382 171.427 87.1025 171.992C87.3714 172.557 87.736 172.986 88.1963 173.277C88.6566 173.569 89.1784 173.715 89.7617 173.715ZM99.3457 175.157C98.6257 175.157 97.999 174.993 97.4658 174.665C96.9326 174.337 96.5179 173.877 96.2217 173.284C95.9255 172.692 95.7773 172.004 95.7773 171.22C95.7773 170.427 95.9255 169.734 96.2217 169.142C96.5179 168.545 96.9326 168.082 97.4658 167.754C97.999 167.426 98.6257 167.262 99.3457 167.262C99.7422 167.262 100.114 167.314 100.46 167.419C100.806 167.519 101.118 167.667 101.396 167.863C101.679 168.055 101.916 168.292 102.107 168.574C102.303 168.852 102.449 169.167 102.545 169.518L101.116 169.859C101.066 169.663 100.989 169.486 100.884 169.326C100.779 169.162 100.651 169.021 100.501 168.902C100.355 168.784 100.184 168.693 99.9883 168.629C99.7969 168.565 99.585 168.533 99.3525 168.533C98.8923 168.533 98.5094 168.656 98.2041 168.902C97.9033 169.144 97.6777 169.467 97.5273 169.873C97.3815 170.279 97.3086 170.728 97.3086 171.22C97.3086 171.707 97.3815 172.154 97.5273 172.56C97.6777 172.961 97.9033 173.282 98.2041 173.523C98.5094 173.765 98.8923 173.886 99.3525 173.886C99.5895 173.886 99.806 173.854 100.002 173.79C100.198 173.722 100.373 173.628 100.528 173.51C100.683 173.387 100.813 173.241 100.918 173.072C101.023 172.899 101.098 172.71 101.144 172.505L102.565 172.847C102.474 173.207 102.331 173.53 102.135 173.817C101.939 174.1 101.7 174.341 101.417 174.542C101.139 174.743 100.825 174.895 100.474 175C100.123 175.105 99.7467 175.157 99.3457 175.157ZM107.508 175.157C106.756 175.157 106.106 174.995 105.56 174.672C105.013 174.348 104.591 173.893 104.295 173.305C104.003 172.717 103.857 172.026 103.857 171.233C103.857 170.45 104.001 169.759 104.288 169.162C104.58 168.565 104.99 168.1 105.519 167.768C106.047 167.43 106.667 167.262 107.378 167.262C107.815 167.262 108.237 167.335 108.643 167.48C109.048 167.622 109.413 167.845 109.736 168.15C110.06 168.456 110.315 168.852 110.502 169.34C110.693 169.823 110.789 170.411 110.789 171.104V171.637H104.698V170.516H110.017L109.312 170.885C109.312 170.415 109.24 170.003 109.094 169.647C108.948 169.287 108.731 169.007 108.444 168.807C108.162 168.606 107.806 168.506 107.378 168.506C106.954 168.506 106.592 168.608 106.291 168.813C105.99 169.019 105.76 169.29 105.601 169.627C105.446 169.96 105.368 170.324 105.368 170.721V171.486C105.368 172.01 105.457 172.455 105.635 172.819C105.817 173.179 106.07 173.453 106.394 173.64C106.717 173.822 107.093 173.913 107.521 173.913C107.804 173.913 108.059 173.874 108.287 173.797C108.515 173.715 108.711 173.594 108.875 173.435C109.044 173.271 109.171 173.07 109.258 172.833L110.673 173.168C110.55 173.56 110.342 173.906 110.051 174.207C109.764 174.508 109.404 174.743 108.971 174.911C108.542 175.075 108.055 175.157 107.508 175.157ZM115.28 175.15C114.665 175.15 114.116 174.993 113.633 174.679C113.154 174.36 112.776 173.906 112.498 173.318C112.225 172.726 112.088 172.02 112.088 171.199C112.088 170.37 112.227 169.661 112.505 169.073C112.787 168.485 113.17 168.036 113.653 167.727C114.141 167.417 114.69 167.262 115.301 167.262C115.77 167.262 116.148 167.339 116.436 167.494C116.727 167.649 116.953 167.834 117.112 168.048C117.276 168.257 117.402 168.442 117.488 168.602H117.584V167.357H119.074V175H117.591V173.804H117.488C117.402 173.968 117.274 174.157 117.105 174.371C116.937 174.581 116.707 174.763 116.415 174.918C116.123 175.073 115.745 175.15 115.28 175.15ZM115.629 173.872C116.057 173.872 116.417 173.758 116.709 173.53C117.005 173.302 117.229 172.988 117.379 172.587C117.529 172.181 117.604 171.714 117.604 171.186C117.604 170.652 117.529 170.19 117.379 169.798C117.229 169.401 117.005 169.094 116.709 168.875C116.417 168.652 116.057 168.54 115.629 168.54C115.187 168.54 114.818 168.656 114.521 168.889C114.225 169.117 114.002 169.431 113.852 169.832C113.701 170.229 113.626 170.68 113.626 171.186C113.626 171.691 113.701 172.147 113.852 172.553C114.002 172.958 114.225 173.28 114.521 173.517C114.822 173.754 115.191 173.872 115.629 173.872ZM122.602 170.475V175H121.098V167.357H122.533L122.547 169.23H122.39C122.613 168.547 122.937 168.048 123.36 167.733C123.784 167.419 124.297 167.262 124.898 167.262C125.418 167.262 125.871 167.371 126.259 167.59C126.646 167.809 126.949 168.132 127.168 168.561C127.387 168.984 127.496 169.513 127.496 170.146V175H125.992V170.331C125.992 169.78 125.849 169.349 125.562 169.039C125.274 168.729 124.88 168.574 124.379 168.574C124.042 168.574 123.739 168.649 123.47 168.8C123.201 168.946 122.989 169.16 122.834 169.442C122.679 169.725 122.602 170.069 122.602 170.475Z" fill="#111827"/>
<rect x="186.5" y="96.5" width="189" height="103" rx="3.5" fill="white"/>
<rect x="186.5" y="96.5" width="189" height="103" rx="3.5" stroke="#E4E4E7"/>
<path fill-rule="evenodd" clip-rule="evenodd" d="M274.018 129.382C274.018 129.776 274.061 130.095 274.135 130.329C274.22 130.563 274.327 130.819 274.476 131.095C274.529 131.181 274.55 131.266 274.55 131.34C274.55 131.447 274.486 131.553 274.348 131.659L273.677 132.106C273.582 132.17 273.486 132.202 273.401 132.202C273.294 132.202 273.188 132.149 273.081 132.053C272.932 131.894 272.805 131.723 272.698 131.553C272.592 131.372 272.485 131.17 272.368 130.925C271.538 131.904 270.495 132.394 269.239 132.394C268.345 132.394 267.632 132.138 267.111 131.628C266.589 131.117 266.323 130.436 266.323 129.584C266.323 128.679 266.643 127.945 267.292 127.392C267.941 126.838 268.803 126.562 269.899 126.562C270.261 126.562 270.634 126.593 271.027 126.647C271.421 126.7 271.826 126.785 272.251 126.881V126.104C272.251 125.295 272.081 124.731 271.751 124.401C271.411 124.071 270.836 123.911 270.016 123.911C269.644 123.911 269.261 123.954 268.867 124.05C268.473 124.146 268.09 124.263 267.717 124.412C267.547 124.486 267.419 124.529 267.345 124.55C267.27 124.571 267.217 124.582 267.175 124.582C267.026 124.582 266.951 124.476 266.951 124.252V123.731C266.951 123.56 266.972 123.433 267.026 123.358C267.079 123.284 267.175 123.209 267.324 123.135C267.696 122.943 268.143 122.783 268.665 122.656C269.186 122.517 269.74 122.453 270.325 122.453C271.591 122.453 272.517 122.741 273.113 123.315C273.699 123.89 273.997 124.763 273.997 125.934V129.382H274.018ZM269.697 131C270.048 131 270.41 130.936 270.793 130.808C271.176 130.68 271.517 130.446 271.804 130.127C271.975 129.925 272.102 129.701 272.166 129.446C272.23 129.19 272.273 128.882 272.273 128.52V128.073C271.964 127.998 271.634 127.934 271.293 127.892C270.953 127.849 270.623 127.828 270.293 127.828C269.58 127.828 269.058 127.966 268.707 128.254C268.356 128.541 268.186 128.946 268.186 129.478C268.186 129.978 268.313 130.35 268.58 130.606C268.835 130.872 269.207 131 269.697 131ZM278.243 132.149C278.052 132.149 277.924 132.117 277.839 132.043C277.754 131.979 277.679 131.83 277.615 131.628L275.114 123.401C275.05 123.188 275.018 123.049 275.018 122.975C275.018 122.805 275.104 122.709 275.274 122.709H276.317C276.519 122.709 276.657 122.741 276.732 122.815C276.817 122.879 276.881 123.028 276.945 123.23L278.733 130.276L280.393 123.23C280.446 123.017 280.51 122.879 280.595 122.815C280.68 122.751 280.829 122.709 281.021 122.709H281.872C282.075 122.709 282.213 122.741 282.298 122.815C282.383 122.879 282.458 123.028 282.5 123.23L284.182 130.361L286.023 123.23C286.087 123.017 286.162 122.879 286.236 122.815C286.321 122.751 286.46 122.709 286.651 122.709H287.641C287.811 122.709 287.907 122.794 287.907 122.975C287.907 123.02 287.899 123.066 287.89 123.118L287.886 123.145C287.875 123.209 287.854 123.294 287.811 123.411L285.246 131.638C285.182 131.851 285.108 131.989 285.023 132.053C284.938 132.117 284.799 132.16 284.618 132.16H283.703C283.501 132.16 283.362 132.128 283.277 132.053C283.192 131.979 283.118 131.84 283.075 131.628L281.425 124.763L279.786 131.617C279.733 131.83 279.669 131.968 279.584 132.043C279.499 132.117 279.35 132.149 279.159 132.149H278.243ZM291.919 132.436C291.366 132.436 290.812 132.373 290.28 132.245C289.748 132.117 289.333 131.979 289.056 131.819C288.886 131.723 288.769 131.617 288.726 131.521C288.684 131.425 288.663 131.319 288.663 131.223V130.68C288.663 130.457 288.748 130.35 288.907 130.35C288.971 130.35 289.035 130.361 289.099 130.382C289.14 130.396 289.195 130.419 289.257 130.444L289.257 130.445C289.291 130.459 289.327 130.474 289.365 130.489C289.727 130.648 290.121 130.776 290.536 130.861C290.961 130.946 291.377 130.989 291.802 130.989C292.473 130.989 292.994 130.872 293.356 130.638C293.718 130.404 293.91 130.063 293.91 129.627C293.91 129.329 293.814 129.084 293.622 128.882C293.431 128.679 293.069 128.499 292.547 128.328L291.004 127.849C290.227 127.605 289.652 127.243 289.301 126.764C288.95 126.295 288.769 125.774 288.769 125.221C288.769 124.774 288.865 124.38 289.056 124.039C289.248 123.699 289.503 123.401 289.823 123.166C290.142 122.922 290.504 122.741 290.93 122.613C291.355 122.485 291.802 122.432 292.271 122.432C292.505 122.432 292.749 122.443 292.984 122.475C293.228 122.507 293.452 122.549 293.675 122.592C293.888 122.645 294.09 122.698 294.282 122.762C294.474 122.826 294.623 122.89 294.729 122.954C294.878 123.039 294.984 123.124 295.048 123.22C295.112 123.305 295.144 123.422 295.144 123.571V124.071C295.144 124.295 295.059 124.412 294.899 124.412C294.814 124.412 294.676 124.369 294.495 124.284C293.888 124.007 293.207 123.869 292.451 123.869C291.845 123.869 291.366 123.965 291.036 124.167C290.706 124.369 290.536 124.678 290.536 125.114C290.536 125.412 290.642 125.668 290.855 125.87C291.068 126.072 291.462 126.274 292.026 126.455L293.537 126.934C294.303 127.179 294.857 127.519 295.187 127.956C295.517 128.392 295.676 128.892 295.676 129.446C295.676 129.903 295.58 130.318 295.4 130.68C295.208 131.042 294.953 131.361 294.623 131.617C294.293 131.883 293.899 132.075 293.441 132.213C292.962 132.362 292.462 132.436 291.919 132.436ZM293.931 137.609C290.429 140.195 285.342 141.568 280.968 141.568C274.837 141.568 269.314 139.301 265.142 135.533C264.812 135.235 265.11 134.831 265.504 135.065C270.016 137.683 275.582 139.269 281.34 139.269C285.225 139.269 289.493 138.46 293.42 136.8C294.005 136.534 294.505 137.183 293.931 137.609ZM291.291 135.81C292.43 135.672 294.942 135.374 295.389 135.948C295.836 136.513 294.889 138.886 294.463 139.94C294.335 140.259 294.612 140.387 294.899 140.142C296.772 138.567 297.262 135.278 296.879 134.799C296.496 134.331 293.207 133.926 291.206 135.331C290.897 135.555 290.951 135.853 291.291 135.81Z" fill="#111827"/>
<path d="M206.349 175L209.972 164.814H211.886L215.577 175H213.889L211.906 169.333C211.751 168.873 211.58 168.33 211.394 167.706C211.211 167.082 210.999 166.332 210.758 165.457H211.072C210.84 166.341 210.63 167.1 210.443 167.733C210.261 168.362 210.099 168.896 209.958 169.333L208.037 175H206.349ZM208.311 172.313V171.015H213.608V172.313H208.311ZM216.938 175V167.357H218.366L218.407 169.128H218.291C218.4 168.695 218.569 168.34 218.797 168.062C219.025 167.784 219.291 167.576 219.597 167.439C219.902 167.298 220.221 167.228 220.554 167.228C221.11 167.228 221.559 167.401 221.9 167.747C222.242 168.089 222.472 168.567 222.591 169.183H222.399C222.5 168.763 222.673 168.408 222.919 168.116C223.165 167.825 223.461 167.604 223.808 167.453C224.159 167.303 224.532 167.228 224.929 167.228C225.38 167.228 225.788 167.326 226.152 167.521C226.521 167.717 226.813 168.009 227.027 168.396C227.242 168.784 227.349 169.267 227.349 169.846V175H225.838V169.996C225.838 169.486 225.697 169.117 225.414 168.889C225.132 168.661 224.797 168.547 224.409 168.547C224.095 168.547 223.824 168.613 223.596 168.745C223.368 168.877 223.192 169.062 223.069 169.299C222.946 169.531 222.885 169.8 222.885 170.105V175H221.401V169.9C221.401 169.49 221.269 169.162 221.005 168.916C220.745 168.67 220.412 168.547 220.007 168.547C219.729 168.547 219.469 168.613 219.228 168.745C218.991 168.873 218.799 169.064 218.653 169.319C218.512 169.57 218.441 169.88 218.441 170.249V175H216.938ZM232.216 175.15C231.601 175.15 231.051 174.993 230.568 174.679C230.09 174.36 229.712 173.906 229.434 173.318C229.16 172.726 229.023 172.02 229.023 171.199C229.023 170.37 229.162 169.661 229.44 169.073C229.723 168.485 230.106 168.036 230.589 167.727C231.076 167.417 231.626 167.262 232.236 167.262C232.706 167.262 233.084 167.339 233.371 167.494C233.663 167.649 233.888 167.834 234.048 168.048C234.212 168.257 234.337 168.442 234.424 168.602H234.52V167.357H236.01V175H234.526V173.804H234.424C234.337 173.968 234.21 174.157 234.041 174.371C233.872 174.581 233.642 174.763 233.351 174.918C233.059 175.073 232.681 175.15 232.216 175.15ZM232.564 173.872C232.993 173.872 233.353 173.758 233.645 173.53C233.941 173.302 234.164 172.988 234.314 172.587C234.465 172.181 234.54 171.714 234.54 171.186C234.54 170.652 234.465 170.19 234.314 169.798C234.164 169.401 233.941 169.094 233.645 168.875C233.353 168.652 232.993 168.54 232.564 168.54C232.122 168.54 231.753 168.656 231.457 168.889C231.161 169.117 230.938 169.431 230.787 169.832C230.637 170.229 230.562 170.68 230.562 171.186C230.562 171.691 230.637 172.147 230.787 172.553C230.938 172.958 231.161 173.28 231.457 173.517C231.758 173.754 232.127 173.872 232.564 173.872ZM237.869 175V173.975L241.984 168.738V168.67H237.999V167.357H243.864V168.465L239.906 173.619V173.688H244.001V175H237.869ZM248.848 175.157C248.132 175.157 247.506 174.993 246.968 174.665C246.435 174.337 246.02 173.877 245.724 173.284C245.427 172.692 245.279 172.004 245.279 171.22C245.279 170.427 245.427 169.734 245.724 169.142C246.02 168.545 246.435 168.082 246.968 167.754C247.506 167.426 248.132 167.262 248.848 167.262C249.568 167.262 250.194 167.426 250.728 167.754C251.265 168.082 251.682 168.545 251.979 169.142C252.275 169.734 252.423 170.427 252.423 171.22C252.423 172.004 252.275 172.692 251.979 173.284C251.682 173.877 251.265 174.337 250.728 174.665C250.194 174.993 249.568 175.157 248.848 175.157ZM248.848 173.886C249.312 173.886 249.695 173.765 249.996 173.523C250.301 173.277 250.527 172.954 250.673 172.553C250.823 172.147 250.898 171.703 250.898 171.22C250.898 170.732 250.823 170.285 250.673 169.88C250.527 169.47 250.301 169.144 249.996 168.902C249.695 168.656 249.312 168.533 248.848 168.533C248.387 168.533 248.007 168.656 247.706 168.902C247.405 169.144 247.18 169.467 247.029 169.873C246.883 170.279 246.811 170.728 246.811 171.22C246.811 171.703 246.883 172.147 247.029 172.553C247.18 172.954 247.405 173.277 247.706 173.523C248.007 173.765 248.387 173.886 248.848 173.886ZM255.602 170.475V175H254.098V167.357H255.533L255.547 169.23H255.39C255.613 168.547 255.937 168.048 256.36 167.733C256.784 167.419 257.297 167.262 257.898 167.262C258.418 167.262 258.871 167.371 259.259 167.59C259.646 167.809 259.949 168.132 260.168 168.561C260.387 168.984 260.496 169.513 260.496 170.146V175H258.992V170.331C258.992 169.78 258.849 169.349 258.562 169.039C258.274 168.729 257.88 168.574 257.379 168.574C257.042 168.574 256.739 168.649 256.47 168.8C256.201 168.946 255.989 169.16 255.834 169.442C255.679 169.725 255.602 170.069 255.602 170.475ZM268.351 175L265.589 164.814H267.229L268.699 170.652C268.79 171.012 268.875 171.386 268.952 171.773C269.03 172.161 269.105 172.553 269.178 172.949C269.255 173.346 269.328 173.742 269.396 174.139H269.164C269.237 173.742 269.312 173.346 269.39 172.949C269.467 172.553 269.547 172.161 269.629 171.773C269.711 171.386 269.8 171.012 269.896 170.652L271.406 164.814H273.115L274.612 170.652C274.708 171.012 274.797 171.386 274.879 171.773C274.961 172.161 275.041 172.553 275.118 172.949C275.2 173.346 275.278 173.742 275.351 174.139H275.104C275.177 173.742 275.25 173.346 275.323 172.949C275.396 172.553 275.474 172.161 275.556 171.773C275.642 171.386 275.727 171.012 275.809 170.652L277.278 164.814H278.933L276.157 175H274.359L272.739 168.964C272.616 168.49 272.502 167.975 272.397 167.419C272.293 166.863 272.186 166.252 272.076 165.587H272.432C272.318 166.225 272.213 166.815 272.117 167.357C272.026 167.9 271.91 168.435 271.769 168.964L270.155 175H268.351ZM282.877 175.157C282.125 175.157 281.476 174.995 280.929 174.672C280.382 174.348 279.96 173.893 279.664 173.305C279.372 172.717 279.227 172.026 279.227 171.233C279.227 170.45 279.37 169.759 279.657 169.162C279.949 168.565 280.359 168.1 280.888 167.768C281.416 167.43 282.036 167.262 282.747 167.262C283.185 167.262 283.606 167.335 284.012 167.48C284.417 167.622 284.782 167.845 285.105 168.15C285.429 168.456 285.684 168.852 285.871 169.34C286.062 169.823 286.158 170.411 286.158 171.104V171.637H280.067V170.516H285.386L284.682 170.885C284.682 170.415 284.609 170.003 284.463 169.647C284.317 169.287 284.101 169.007 283.813 168.807C283.531 168.606 283.175 168.506 282.747 168.506C282.323 168.506 281.961 168.608 281.66 168.813C281.359 169.019 281.129 169.29 280.97 169.627C280.815 169.96 280.737 170.324 280.737 170.721V171.486C280.737 172.01 280.826 172.455 281.004 172.819C281.186 173.179 281.439 173.453 281.763 173.64C282.086 173.822 282.462 173.913 282.891 173.913C283.173 173.913 283.428 173.874 283.656 173.797C283.884 173.715 284.08 173.594 284.244 173.435C284.413 173.271 284.54 173.07 284.627 172.833L286.042 173.168C285.919 173.56 285.712 173.906 285.42 174.207C285.133 174.508 284.773 174.743 284.34 174.911C283.911 175.075 283.424 175.157 282.877 175.157ZM291.606 175.15C291.146 175.15 290.768 175.073 290.472 174.918C290.18 174.758 289.95 174.574 289.781 174.364C289.617 174.155 289.49 173.968 289.398 173.804H289.275V175H287.812V164.814H289.316V168.602H289.398C289.49 168.442 289.615 168.257 289.774 168.048C289.938 167.838 290.164 167.656 290.451 167.501C290.743 167.341 291.128 167.262 291.606 167.262C292.217 167.262 292.762 167.417 293.24 167.727C293.723 168.036 294.104 168.485 294.382 169.073C294.66 169.661 294.799 170.37 294.799 171.199C294.799 172.02 294.662 172.726 294.389 173.318C294.115 173.906 293.737 174.36 293.254 174.679C292.775 174.993 292.226 175.15 291.606 175.15ZM291.271 173.872C291.709 173.872 292.076 173.754 292.372 173.517C292.668 173.28 292.889 172.958 293.035 172.553C293.186 172.147 293.261 171.691 293.261 171.186C293.261 170.684 293.186 170.235 293.035 169.839C292.889 169.438 292.668 169.121 292.372 168.889C292.08 168.656 291.714 168.54 291.271 168.54C290.843 168.54 290.481 168.652 290.185 168.875C289.888 169.094 289.665 169.401 289.515 169.798C289.364 170.19 289.289 170.652 289.289 171.186C289.289 171.714 289.364 172.181 289.515 172.587C289.67 172.988 289.895 173.302 290.191 173.53C290.488 173.758 290.848 173.872 291.271 173.872ZM303.733 175.171C302.972 175.171 302.312 175.05 301.751 174.809C301.19 174.567 300.751 174.223 300.432 173.776C300.117 173.325 299.944 172.79 299.912 172.17H301.478C301.509 172.539 301.628 172.844 301.833 173.086C302.043 173.327 302.314 173.507 302.646 173.626C302.979 173.744 303.339 173.804 303.727 173.804C304.16 173.804 304.542 173.738 304.875 173.605C305.212 173.469 305.479 173.277 305.675 173.031C305.871 172.781 305.969 172.491 305.969 172.163C305.969 171.867 305.882 171.625 305.709 171.438C305.54 171.247 305.31 171.09 305.019 170.967C304.731 170.839 304.403 170.728 304.034 170.632L302.845 170.304C302.011 170.08 301.359 169.75 300.89 169.312C300.425 168.875 300.192 168.308 300.192 167.61C300.192 167.022 300.35 166.51 300.664 166.072C300.983 165.63 301.414 165.288 301.956 165.047C302.503 164.801 303.118 164.678 303.802 164.678C304.499 164.678 305.112 164.801 305.641 165.047C306.174 165.288 306.591 165.621 306.892 166.045C307.197 166.469 307.356 166.952 307.37 167.494H305.853C305.802 167.029 305.586 166.669 305.203 166.414C304.825 166.159 304.346 166.031 303.768 166.031C303.357 166.031 303 166.095 302.694 166.223C302.394 166.35 302.159 166.528 301.99 166.756C301.826 166.979 301.744 167.234 301.744 167.521C301.744 167.845 301.842 168.107 302.038 168.308C302.239 168.504 302.48 168.661 302.763 168.779C303.05 168.893 303.323 168.984 303.583 169.053L304.574 169.312C304.898 169.395 305.23 169.506 305.572 169.647C305.919 169.784 306.238 169.964 306.529 170.188C306.821 170.406 307.056 170.68 307.233 171.008C307.416 171.331 307.507 171.723 307.507 172.184C307.507 172.758 307.359 173.271 307.062 173.722C306.766 174.173 306.336 174.528 305.771 174.788C305.21 175.043 304.531 175.171 303.733 175.171ZM312.545 175.157C311.793 175.157 311.144 174.995 310.597 174.672C310.05 174.348 309.628 173.893 309.332 173.305C309.04 172.717 308.895 172.026 308.895 171.233C308.895 170.45 309.038 169.759 309.325 169.162C309.617 168.565 310.027 168.1 310.556 167.768C311.084 167.43 311.704 167.262 312.415 167.262C312.853 167.262 313.274 167.335 313.68 167.48C314.085 167.622 314.45 167.845 314.773 168.15C315.097 168.456 315.352 168.852 315.539 169.34C315.73 169.823 315.826 170.411 315.826 171.104V171.637H309.735V170.516H315.054L314.35 170.885C314.35 170.415 314.277 170.003 314.131 169.647C313.985 169.287 313.769 169.007 313.481 168.807C313.199 168.606 312.843 168.506 312.415 168.506C311.991 168.506 311.629 168.608 311.328 168.813C311.027 169.019 310.797 169.29 310.638 169.627C310.483 169.96 310.405 170.324 310.405 170.721V171.486C310.405 172.01 310.494 172.455 310.672 172.819C310.854 173.179 311.107 173.453 311.431 173.64C311.754 173.822 312.13 173.913 312.559 173.913C312.841 173.913 313.096 173.874 313.324 173.797C313.552 173.715 313.748 173.594 313.912 173.435C314.081 173.271 314.208 173.07 314.295 172.833L315.71 173.168C315.587 173.56 315.38 173.906 315.088 174.207C314.801 174.508 314.441 174.743 314.008 174.911C313.579 175.075 313.092 175.157 312.545 175.157ZM317.48 175V167.357H318.937V168.588H319.019C319.16 168.169 319.406 167.84 319.757 167.604C320.108 167.367 320.507 167.248 320.953 167.248C321.049 167.248 321.158 167.253 321.281 167.262C321.404 167.266 321.507 167.275 321.589 167.289V168.725C321.534 168.706 321.429 168.688 321.274 168.67C321.119 168.652 320.962 168.643 320.803 168.643C320.456 168.643 320.144 168.715 319.866 168.861C319.588 169.007 319.372 169.21 319.217 169.47C319.062 169.725 318.984 170.021 318.984 170.358V175H317.48ZM325.301 175L322.416 167.357H324.043L325.554 171.698C325.722 172.177 325.866 172.658 325.984 173.141C326.103 173.619 326.228 174.095 326.36 174.569H325.909C326.037 174.095 326.16 173.619 326.278 173.141C326.397 172.658 326.538 172.177 326.702 171.698L328.213 167.357H329.826L326.941 175H325.301ZM331.166 175V167.357H332.67V175H331.166ZM331.925 166.188C331.665 166.188 331.442 166.102 331.255 165.929C331.073 165.756 330.981 165.546 330.981 165.3C330.981 165.049 331.073 164.837 331.255 164.664C331.442 164.491 331.665 164.404 331.925 164.404C332.185 164.404 332.408 164.491 332.595 164.664C332.782 164.837 332.875 165.049 332.875 165.3C332.875 165.546 332.782 165.756 332.595 165.929C332.408 166.102 332.185 166.188 331.925 166.188ZM337.906 175.157C337.186 175.157 336.56 174.993 336.026 174.665C335.493 174.337 335.078 173.877 334.782 173.284C334.486 172.692 334.338 172.004 334.338 171.22C334.338 170.427 334.486 169.734 334.782 169.142C335.078 168.545 335.493 168.082 336.026 167.754C336.56 167.426 337.186 167.262 337.906 167.262C338.303 167.262 338.674 167.314 339.021 167.419C339.367 167.519 339.679 167.667 339.957 167.863C340.24 168.055 340.477 168.292 340.668 168.574C340.864 168.852 341.01 169.167 341.105 169.518L339.677 169.859C339.627 169.663 339.549 169.486 339.444 169.326C339.34 169.162 339.212 169.021 339.062 168.902C338.916 168.784 338.745 168.693 338.549 168.629C338.357 168.565 338.146 168.533 337.913 168.533C337.453 168.533 337.07 168.656 336.765 168.902C336.464 169.144 336.238 169.467 336.088 169.873C335.942 170.279 335.869 170.728 335.869 171.22C335.869 171.707 335.942 172.154 336.088 172.56C336.238 172.961 336.464 173.282 336.765 173.523C337.07 173.765 337.453 173.886 337.913 173.886C338.15 173.886 338.367 173.854 338.562 173.79C338.758 173.722 338.934 173.628 339.089 173.51C339.244 173.387 339.374 173.241 339.479 173.072C339.583 172.899 339.659 172.71 339.704 172.505L341.126 172.847C341.035 173.207 340.891 173.53 340.695 173.817C340.499 174.1 340.26 174.341 339.978 174.542C339.7 174.743 339.385 174.895 339.034 175C338.683 175.105 338.307 175.157 337.906 175.157ZM343.888 175.103C343.605 175.103 343.366 175.005 343.17 174.809C342.974 174.613 342.876 174.376 342.876 174.098C342.876 173.815 342.974 173.578 343.17 173.387C343.366 173.191 343.605 173.093 343.888 173.093C344.166 173.093 344.403 173.191 344.599 173.387C344.795 173.578 344.893 173.815 344.893 174.098C344.893 174.376 344.795 174.613 344.599 174.809C344.403 175.005 344.166 175.103 343.888 175.103ZM348.133 175.103C347.85 175.103 347.611 175.005 347.415 174.809C347.219 174.613 347.121 174.376 347.121 174.098C347.121 173.815 347.219 173.578 347.415 173.387C347.611 173.191 347.85 173.093 348.133 173.093C348.411 173.093 348.648 173.191 348.844 173.387C349.04 173.578 349.138 173.815 349.138 174.098C349.138 174.376 349.04 174.613 348.844 174.809C348.648 175.005 348.411 175.103 348.133 175.103ZM352.385 175.103C352.102 175.103 351.863 175.005 351.667 174.809C351.471 174.613 351.373 174.376 351.373 174.098C351.373 173.815 351.471 173.578 351.667 173.387C351.863 173.191 352.102 173.093 352.385 173.093C352.663 173.093 352.9 173.191 353.096 173.387C353.292 173.578 353.39 173.815 353.39 174.098C353.39 174.376 353.292 174.613 353.096 174.809C352.9 175.005 352.663 175.103 352.385 175.103Z" fill="#111827"/>
<defs>
<clipPath id="clip0_3891_40928">
<rect x="1" y="28" width="375" height="36" rx="4" fill="white"/>
</clipPath>
</defs>
</svg>
