<svg width="482" height="200" viewBox="0 0 482 200" fill="none" xmlns="http://www.w3.org/2000/svg">
<path d="M5.5459 17.1709C4.78483 17.1709 4.12402 17.0501 3.56348 16.8086C3.00293 16.5671 2.56315 16.223 2.24414 15.7764C1.92969 15.3252 1.75651 14.7897 1.72461 14.1699H3.29004C3.32194 14.5391 3.44043 14.8444 3.64551 15.0859C3.85514 15.3275 4.1263 15.5075 4.45898 15.626C4.79167 15.7445 5.15169 15.8037 5.53906 15.8037C5.97201 15.8037 6.35482 15.7376 6.6875 15.6055C7.02474 15.4688 7.29134 15.2773 7.4873 15.0312C7.68327 14.7806 7.78125 14.4912 7.78125 14.1631C7.78125 13.8669 7.69466 13.6253 7.52148 13.4385C7.35286 13.2471 7.12272 13.0898 6.83105 12.9668C6.54395 12.8392 6.21582 12.7275 5.84668 12.6318L4.65723 12.3037C3.82324 12.0804 3.17155 11.75 2.70215 11.3125C2.2373 10.875 2.00488 10.3076 2.00488 9.61035C2.00488 9.02246 2.16211 8.50977 2.47656 8.07227C2.79557 7.63021 3.22624 7.28841 3.76855 7.04688C4.31543 6.80078 4.93066 6.67773 5.61426 6.67773C6.31152 6.67773 6.92448 6.80078 7.45312 7.04688C7.98633 7.28841 8.40332 7.62109 8.7041 8.04492C9.00944 8.46875 9.16895 8.95182 9.18262 9.49414H7.66504C7.61491 9.0293 7.39844 8.66927 7.01562 8.41406C6.63737 8.15885 6.15885 8.03125 5.58008 8.03125C5.16992 8.03125 4.81217 8.09505 4.50684 8.22266C4.20605 8.35026 3.97135 8.52799 3.80273 8.75586C3.63867 8.97917 3.55664 9.23438 3.55664 9.52148C3.55664 9.84505 3.65462 10.1071 3.85059 10.3076C4.05111 10.5036 4.29264 10.6608 4.5752 10.7793C4.8623 10.8932 5.13574 10.9844 5.39551 11.0527L6.38672 11.3125C6.71029 11.3945 7.04297 11.5062 7.38477 11.6475C7.73112 11.7842 8.05013 11.9642 8.3418 12.1875C8.63346 12.4062 8.86816 12.6797 9.0459 13.0078C9.22819 13.3314 9.31934 13.7233 9.31934 14.1836C9.31934 14.7578 9.17122 15.2705 8.875 15.7217C8.57878 16.1729 8.14811 16.5283 7.58301 16.7881C7.02246 17.0433 6.34342 17.1709 5.5459 17.1709ZM14.3574 17.1572C13.6055 17.1572 12.9561 16.9954 12.4092 16.6719C11.8623 16.3483 11.4408 15.8926 11.1445 15.3047C10.8529 14.7168 10.707 14.0264 10.707 13.2334C10.707 12.4495 10.8506 11.7591 11.1377 11.1621C11.4294 10.5651 11.8395 10.1003 12.3682 9.76758C12.8968 9.43034 13.5166 9.26172 14.2275 9.26172C14.665 9.26172 15.0866 9.33464 15.4922 9.48047C15.8978 9.62174 16.2624 9.84505 16.5859 10.1504C16.9095 10.4557 17.1647 10.8522 17.3516 11.3398C17.543 11.8229 17.6387 12.4108 17.6387 13.1035V13.6367H11.5479V12.5156H16.8662L16.1621 12.8848C16.1621 12.4154 16.0892 12.0029 15.9434 11.6475C15.7975 11.2874 15.5811 11.0072 15.2939 10.8066C15.0114 10.6061 14.6559 10.5059 14.2275 10.5059C13.8037 10.5059 13.4414 10.6084 13.1406 10.8135C12.8398 11.0186 12.6097 11.2897 12.4502 11.627C12.2952 11.9596 12.2178 12.3242 12.2178 12.7207V13.4863C12.2178 14.0104 12.3066 14.4548 12.4844 14.8193C12.6667 15.1794 12.9196 15.4528 13.2432 15.6396C13.5667 15.8219 13.9427 15.9131 14.3711 15.9131C14.6536 15.9131 14.9089 15.8743 15.1367 15.7969C15.3646 15.7148 15.5605 15.5941 15.7246 15.4346C15.8932 15.2705 16.0208 15.07 16.1074 14.833L17.5225 15.168C17.3994 15.5599 17.1921 15.9062 16.9004 16.207C16.6133 16.5078 16.2533 16.7425 15.8203 16.9111C15.3919 17.0752 14.9043 17.1572 14.3574 17.1572ZM20.7969 6.81445V17H19.293V6.81445H20.7969ZM26.1152 17.1572C25.3633 17.1572 24.7139 16.9954 24.167 16.6719C23.6201 16.3483 23.1986 15.8926 22.9023 15.3047C22.6107 14.7168 22.4648 14.0264 22.4648 13.2334C22.4648 12.4495 22.6084 11.7591 22.8955 11.1621C23.1872 10.5651 23.5973 10.1003 24.126 9.76758C24.6546 9.43034 25.2744 9.26172 25.9854 9.26172C26.4229 9.26172 26.8444 9.33464 27.25 9.48047C27.6556 9.62174 28.0202 9.84505 28.3438 10.1504C28.6673 10.4557 28.9225 10.8522 29.1094 11.3398C29.3008 11.8229 29.3965 12.4108 29.3965 13.1035V13.6367H23.3057V12.5156H28.624L27.9199 12.8848C27.9199 12.4154 27.847 12.0029 27.7012 11.6475C27.5553 11.2874 27.3389 11.0072 27.0518 10.8066C26.7692 10.6061 26.4137 10.5059 25.9854 10.5059C25.5615 10.5059 25.1992 10.6084 24.8984 10.8135C24.5977 11.0186 24.3675 11.2897 24.208 11.627C24.0531 11.9596 23.9756 12.3242 23.9756 12.7207V13.4863C23.9756 14.0104 24.0645 14.4548 24.2422 14.8193C24.4245 15.1794 24.6774 15.4528 25.001 15.6396C25.3245 15.8219 25.7005 15.9131 26.1289 15.9131C26.4115 15.9131 26.6667 15.8743 26.8945 15.7969C27.1224 15.7148 27.3184 15.5941 27.4824 15.4346C27.651 15.2705 27.7786 15.07 27.8652 14.833L29.2803 15.168C29.1572 15.5599 28.9499 15.9062 28.6582 16.207C28.3711 16.5078 28.0111 16.7425 27.5781 16.9111C27.1497 17.0752 26.6621 17.1572 26.1152 17.1572ZM34.2637 17.1572C33.5436 17.1572 32.917 16.9932 32.3838 16.665C31.8506 16.3369 31.4359 15.8766 31.1396 15.2842C30.8434 14.6917 30.6953 14.0036 30.6953 13.2197C30.6953 12.4268 30.8434 11.734 31.1396 11.1416C31.4359 10.5446 31.8506 10.082 32.3838 9.75391C32.917 9.42578 33.5436 9.26172 34.2637 9.26172C34.6602 9.26172 35.0316 9.31413 35.3779 9.41895C35.7243 9.51921 36.0365 9.66732 36.3145 9.86328C36.597 10.0547 36.834 10.2917 37.0254 10.5742C37.2214 10.8522 37.3672 11.1667 37.4629 11.5176L36.0342 11.8594C35.984 11.6634 35.9066 11.4857 35.8018 11.3262C35.6969 11.1621 35.5693 11.0208 35.4189 10.9023C35.2731 10.7839 35.1022 10.6927 34.9062 10.6289C34.7148 10.5651 34.5029 10.5332 34.2705 10.5332C33.8102 10.5332 33.4274 10.6562 33.1221 10.9023C32.8213 11.1439 32.5957 11.4674 32.4453 11.873C32.2995 12.2786 32.2266 12.7275 32.2266 13.2197C32.2266 13.7074 32.2995 14.154 32.4453 14.5596C32.5957 14.9606 32.8213 15.2819 33.1221 15.5234C33.4274 15.765 33.8102 15.8857 34.2705 15.8857C34.5075 15.8857 34.724 15.8538 34.9199 15.79C35.1159 15.7217 35.2913 15.6283 35.4463 15.5098C35.6012 15.3867 35.7311 15.2409 35.8359 15.0723C35.9408 14.8991 36.016 14.71 36.0615 14.5049L37.4834 14.8467C37.3923 15.2067 37.2487 15.5303 37.0527 15.8174C36.8568 16.0999 36.6175 16.3415 36.335 16.542C36.057 16.7425 35.7425 16.8952 35.3916 17C35.0407 17.1048 34.6647 17.1572 34.2637 17.1572ZM42.3984 9.35742V10.5811H38.2559V9.35742H42.3984ZM39.3701 7.53906H40.874V14.9355C40.874 15.2409 40.9378 15.4665 41.0654 15.6123C41.1976 15.7536 41.4118 15.8242 41.708 15.8242C41.7855 15.8242 41.888 15.8151 42.0156 15.7969C42.1432 15.7786 42.2526 15.7604 42.3438 15.7422L42.6104 16.9453C42.4508 17 42.2799 17.0387 42.0977 17.0615C41.9154 17.0889 41.7354 17.1025 41.5576 17.1025C40.8649 17.1025 40.3271 16.9248 39.9443 16.5693C39.5615 16.2093 39.3701 15.7057 39.3701 15.0586V7.53906ZM50.8477 17.1572C50.1276 17.1572 49.501 16.9932 48.9678 16.665C48.4346 16.3369 48.0199 15.8766 47.7236 15.2842C47.4274 14.6917 47.2793 14.0036 47.2793 13.2197C47.2793 12.4268 47.4274 11.734 47.7236 11.1416C48.0199 10.5446 48.4346 10.082 48.9678 9.75391C49.501 9.42578 50.1276 9.26172 50.8477 9.26172C51.2441 9.26172 51.6156 9.31413 51.9619 9.41895C52.3083 9.51921 52.6204 9.66732 52.8984 9.86328C53.181 10.0547 53.418 10.2917 53.6094 10.5742C53.8053 10.8522 53.9512 11.1667 54.0469 11.5176L52.6182 11.8594C52.568 11.6634 52.4906 11.4857 52.3857 11.3262C52.2809 11.1621 52.1533 11.0208 52.0029 10.9023C51.8571 10.7839 51.6862 10.6927 51.4902 10.6289C51.2988 10.5651 51.0869 10.5332 50.8545 10.5332C50.3942 10.5332 50.0114 10.6562 49.7061 10.9023C49.4053 11.1439 49.1797 11.4674 49.0293 11.873C48.8835 12.2786 48.8105 12.7275 48.8105 13.2197C48.8105 13.7074 48.8835 14.154 49.0293 14.5596C49.1797 14.9606 49.4053 15.2819 49.7061 15.5234C50.0114 15.765 50.3942 15.8857 50.8545 15.8857C51.0915 15.8857 51.3079 15.8538 51.5039 15.79C51.6999 15.7217 51.8753 15.6283 52.0303 15.5098C52.1852 15.3867 52.3151 15.2409 52.4199 15.0723C52.5247 14.8991 52.5999 14.71 52.6455 14.5049L54.0674 14.8467C53.9762 15.2067 53.8327 15.5303 53.6367 15.8174C53.4408 16.0999 53.2015 16.3415 52.9189 16.542C52.641 16.7425 52.3265 16.8952 51.9756 17C51.6247 17.1048 51.2487 17.1572 50.8477 17.1572ZM57.2188 6.81445V17H55.7148V6.81445H57.2188ZM62.4551 17.1572C61.7396 17.1572 61.113 16.9932 60.5752 16.665C60.042 16.3369 59.6273 15.8766 59.3311 15.2842C59.0348 14.6917 58.8867 14.0036 58.8867 13.2197C58.8867 12.4268 59.0348 11.734 59.3311 11.1416C59.6273 10.5446 60.042 10.082 60.5752 9.75391C61.113 9.42578 61.7396 9.26172 62.4551 9.26172C63.1751 9.26172 63.8018 9.42578 64.335 9.75391C64.8727 10.082 65.2897 10.5446 65.5859 11.1416C65.8822 11.734 66.0303 12.4268 66.0303 13.2197C66.0303 14.0036 65.8822 14.6917 65.5859 15.2842C65.2897 15.8766 64.8727 16.3369 64.335 16.665C63.8018 16.9932 63.1751 17.1572 62.4551 17.1572ZM62.4551 15.8857C62.9199 15.8857 63.3027 15.765 63.6035 15.5234C63.9089 15.2773 64.1344 14.9538 64.2803 14.5527C64.4307 14.1471 64.5059 13.7028 64.5059 13.2197C64.5059 12.7321 64.4307 12.2855 64.2803 11.8799C64.1344 11.4697 63.9089 11.1439 63.6035 10.9023C63.3027 10.6562 62.9199 10.5332 62.4551 10.5332C61.9948 10.5332 61.6143 10.6562 61.3135 10.9023C61.0127 11.1439 60.7871 11.4674 60.6367 11.873C60.4909 12.2786 60.418 12.7275 60.418 13.2197C60.418 13.7028 60.4909 14.1471 60.6367 14.5527C60.7871 14.9538 61.0127 15.2773 61.3135 15.5234C61.6143 15.765 61.9948 15.8857 62.4551 15.8857ZM70.3096 17.0957C69.79 17.0957 69.3343 16.9863 68.9424 16.7676C68.5505 16.5488 68.2451 16.2253 68.0264 15.7969C67.8122 15.3685 67.7051 14.8398 67.7051 14.2109V9.35742H69.209V14.0264C69.209 14.5778 69.3525 15.0085 69.6396 15.3184C69.9313 15.6283 70.3255 15.7832 70.8223 15.7832C71.1641 15.7832 71.4671 15.7103 71.7314 15.5645C72.0003 15.4141 72.2122 15.1976 72.3672 14.915C72.5221 14.6279 72.5996 14.2839 72.5996 13.8828V9.35742H74.1035V17H72.668L72.6611 15.127H72.8047C72.5814 15.8197 72.2555 16.321 71.8271 16.6309C71.3988 16.9408 70.8929 17.0957 70.3096 17.0957ZM78.9707 17.1504C78.3509 17.1504 77.7995 16.9932 77.3164 16.6787C76.8333 16.3597 76.4551 15.9062 76.1816 15.3184C75.9082 14.7259 75.7715 14.0195 75.7715 13.1992C75.7715 12.3698 75.9105 11.6611 76.1885 11.0732C76.4665 10.4854 76.847 10.0365 77.3301 9.72656C77.8132 9.41667 78.36 9.26172 78.9707 9.26172C79.4447 9.26172 79.8252 9.34147 80.1123 9.50098C80.404 9.65592 80.6318 9.83822 80.7959 10.0479C80.96 10.2575 81.0853 10.4421 81.1719 10.6016H81.2539V6.81445H82.7578V17H81.2949V15.8037H81.1719C81.0853 15.9678 80.9577 16.1546 80.7891 16.3643C80.6204 16.5739 80.3903 16.7585 80.0986 16.918C79.807 17.0729 79.431 17.1504 78.9707 17.1504ZM79.2988 15.8721C79.7272 15.8721 80.0872 15.7581 80.3789 15.5303C80.6751 15.3024 80.8984 14.988 81.0488 14.5869C81.2038 14.1813 81.2812 13.7142 81.2812 13.1855C81.2812 12.6523 81.2061 12.1898 81.0557 11.7979C80.9053 11.4014 80.682 11.0938 80.3857 10.875C80.0941 10.6517 79.7318 10.54 79.2988 10.54C78.8568 10.54 78.4876 10.6562 78.1914 10.8887C77.8997 11.1211 77.6787 11.4378 77.5283 11.8389C77.3825 12.2354 77.3096 12.6842 77.3096 13.1855C77.3096 13.6914 77.3848 14.1471 77.5352 14.5527C77.6855 14.9583 77.9089 15.2796 78.2051 15.5166C78.5013 15.7536 78.8659 15.8721 79.2988 15.8721ZM88.5137 19.8574V9.35742H89.9766V10.6016H90.0996C90.1908 10.4421 90.3161 10.2575 90.4756 10.0479C90.6396 9.83822 90.8652 9.65592 91.1523 9.50098C91.444 9.34147 91.8291 9.26172 92.3076 9.26172C92.9183 9.26172 93.4629 9.41667 93.9414 9.72656C94.4245 10.0365 94.805 10.4854 95.083 11.0732C95.361 11.6611 95.5 12.3698 95.5 13.1992C95.5 14.0195 95.3633 14.7259 95.0898 15.3184C94.8164 15.9062 94.4382 16.3597 93.9551 16.6787C93.4766 16.9932 92.9274 17.1504 92.3076 17.1504C91.8473 17.1504 91.4691 17.0729 91.1729 16.918C90.8812 16.7585 90.651 16.5739 90.4824 16.3643C90.3184 16.1546 90.1908 15.9678 90.0996 15.8037H90.0176V19.8574H88.5137ZM91.9727 15.8721C92.4102 15.8721 92.777 15.7536 93.0732 15.5166C93.3695 15.2796 93.5905 14.9583 93.7363 14.5527C93.8867 14.1471 93.9619 13.6914 93.9619 13.1855C93.9619 12.6842 93.8867 12.2354 93.7363 11.8389C93.5905 11.4378 93.3695 11.1211 93.0732 10.8887C92.7816 10.6562 92.4147 10.54 91.9727 10.54C91.5443 10.54 91.182 10.6517 90.8857 10.875C90.5895 11.0938 90.3662 11.4014 90.2158 11.7979C90.0654 12.1898 89.9902 12.6523 89.9902 13.1855C89.9902 13.7142 90.0654 14.1813 90.2158 14.5869C90.3708 14.988 90.5964 15.3024 90.8926 15.5303C91.1888 15.7581 91.5488 15.8721 91.9727 15.8721ZM97.168 17V9.35742H98.624V10.5879H98.7061C98.8473 10.1686 99.0934 9.84049 99.4443 9.60352C99.7952 9.36654 100.194 9.24805 100.641 9.24805C100.736 9.24805 100.846 9.2526 100.969 9.26172C101.092 9.26628 101.194 9.27539 101.276 9.28906V10.7246C101.222 10.7064 101.117 10.6882 100.962 10.6699C100.807 10.6517 100.65 10.6426 100.49 10.6426C100.144 10.6426 99.8317 10.7155 99.5537 10.8613C99.2757 11.0072 99.0592 11.21 98.9043 11.4697C98.7493 11.7249 98.6719 12.0212 98.6719 12.3584V17H97.168ZM105.521 17.1572C104.806 17.1572 104.179 16.9932 103.642 16.665C103.108 16.3369 102.694 15.8766 102.397 15.2842C102.101 14.6917 101.953 14.0036 101.953 13.2197C101.953 12.4268 102.101 11.734 102.397 11.1416C102.694 10.5446 103.108 10.082 103.642 9.75391C104.179 9.42578 104.806 9.26172 105.521 9.26172C106.242 9.26172 106.868 9.42578 107.401 9.75391C107.939 10.082 108.356 10.5446 108.652 11.1416C108.949 11.734 109.097 12.4268 109.097 13.2197C109.097 14.0036 108.949 14.6917 108.652 15.2842C108.356 15.8766 107.939 16.3369 107.401 16.665C106.868 16.9932 106.242 17.1572 105.521 17.1572ZM105.521 15.8857C105.986 15.8857 106.369 15.765 106.67 15.5234C106.975 15.2773 107.201 14.9538 107.347 14.5527C107.497 14.1471 107.572 13.7028 107.572 13.2197C107.572 12.7321 107.497 12.2855 107.347 11.8799C107.201 11.4697 106.975 11.1439 106.67 10.9023C106.369 10.6562 105.986 10.5332 105.521 10.5332C105.061 10.5332 104.681 10.6562 104.38 10.9023C104.079 11.1439 103.854 11.4674 103.703 11.873C103.557 12.2786 103.484 12.7275 103.484 13.2197C103.484 13.7028 103.557 14.1471 103.703 14.5527C103.854 14.9538 104.079 15.2773 104.38 15.5234C104.681 15.765 105.061 15.8857 105.521 15.8857ZM112.699 17L109.814 9.35742H111.441L112.952 13.6982C113.121 14.1768 113.264 14.6576 113.383 15.1406C113.501 15.6191 113.627 16.0954 113.759 16.5693H113.308C113.435 16.0954 113.558 15.6191 113.677 15.1406C113.795 14.6576 113.937 14.1768 114.101 13.6982L115.611 9.35742H117.225L114.34 17H112.699ZM118.564 17V9.35742H120.068V17H118.564ZM119.323 8.18848C119.063 8.18848 118.84 8.10189 118.653 7.92871C118.471 7.75553 118.38 7.5459 118.38 7.2998C118.38 7.04915 118.471 6.83724 118.653 6.66406C118.84 6.49089 119.063 6.4043 119.323 6.4043C119.583 6.4043 119.806 6.49089 119.993 6.66406C120.18 6.83724 120.273 7.04915 120.273 7.2998C120.273 7.5459 120.18 7.75553 119.993 7.92871C119.806 8.10189 119.583 8.18848 119.323 8.18848ZM124.936 17.1504C124.316 17.1504 123.764 16.9932 123.281 16.6787C122.798 16.3597 122.42 15.9062 122.146 15.3184C121.873 14.7259 121.736 14.0195 121.736 13.1992C121.736 12.3698 121.875 11.6611 122.153 11.0732C122.431 10.4854 122.812 10.0365 123.295 9.72656C123.778 9.41667 124.325 9.26172 124.936 9.26172C125.41 9.26172 125.79 9.34147 126.077 9.50098C126.369 9.65592 126.597 9.83822 126.761 10.0479C126.925 10.2575 127.05 10.4421 127.137 10.6016H127.219V6.81445H128.723V17H127.26V15.8037H127.137C127.05 15.9678 126.923 16.1546 126.754 16.3643C126.585 16.5739 126.355 16.7585 126.063 16.918C125.772 17.0729 125.396 17.1504 124.936 17.1504ZM125.264 15.8721C125.692 15.8721 126.052 15.7581 126.344 15.5303C126.64 15.3024 126.863 14.988 127.014 14.5869C127.169 14.1813 127.246 13.7142 127.246 13.1855C127.246 12.6523 127.171 12.1898 127.021 11.7979C126.87 11.4014 126.647 11.0938 126.351 10.875C126.059 10.6517 125.697 10.54 125.264 10.54C124.822 10.54 124.452 10.6562 124.156 10.8887C123.865 11.1211 123.644 11.4378 123.493 11.8389C123.347 12.2354 123.274 12.6842 123.274 13.1855C123.274 13.6914 123.35 14.1471 123.5 14.5527C123.65 14.9583 123.874 15.2796 124.17 15.5166C124.466 15.7536 124.831 15.8721 125.264 15.8721ZM134.041 17.1572C133.289 17.1572 132.64 16.9954 132.093 16.6719C131.546 16.3483 131.124 15.8926 130.828 15.3047C130.536 14.7168 130.391 14.0264 130.391 13.2334C130.391 12.4495 130.534 11.7591 130.821 11.1621C131.113 10.5651 131.523 10.1003 132.052 9.76758C132.58 9.43034 133.2 9.26172 133.911 9.26172C134.349 9.26172 134.77 9.33464 135.176 9.48047C135.581 9.62174 135.946 9.84505 136.27 10.1504C136.593 10.4557 136.848 10.8522 137.035 11.3398C137.227 11.8229 137.322 12.4108 137.322 13.1035V13.6367H131.231V12.5156H136.55L135.846 12.8848C135.846 12.4154 135.773 12.0029 135.627 11.6475C135.481 11.2874 135.265 11.0072 134.978 10.8066C134.695 10.6061 134.34 10.5059 133.911 10.5059C133.487 10.5059 133.125 10.6084 132.824 10.8135C132.523 11.0186 132.293 11.2897 132.134 11.627C131.979 11.9596 131.901 12.3242 131.901 12.7207V13.4863C131.901 14.0104 131.99 14.4548 132.168 14.8193C132.35 15.1794 132.603 15.4528 132.927 15.6396C133.25 15.8219 133.626 15.9131 134.055 15.9131C134.337 15.9131 134.592 15.8743 134.82 15.7969C135.048 15.7148 135.244 15.5941 135.408 15.4346C135.577 15.2705 135.704 15.07 135.791 14.833L137.206 15.168C137.083 15.5599 136.876 15.9062 136.584 16.207C136.297 16.5078 135.937 16.7425 135.504 16.9111C135.076 17.0752 134.588 17.1572 134.041 17.1572ZM138.977 17V9.35742H140.433V10.5879H140.515C140.656 10.1686 140.902 9.84049 141.253 9.60352C141.604 9.36654 142.003 9.24805 142.449 9.24805C142.545 9.24805 142.654 9.2526 142.777 9.26172C142.9 9.26628 143.003 9.27539 143.085 9.28906V10.7246C143.03 10.7064 142.925 10.6882 142.771 10.6699C142.616 10.6517 142.458 10.6426 142.299 10.6426C141.952 10.6426 141.64 10.7155 141.362 10.8613C141.084 11.0072 140.868 11.21 140.713 11.4697C140.558 11.7249 140.48 12.0212 140.48 12.3584V17H138.977Z" fill="#111827"/>
<g clip-path="url(#clip0_3947_20849)">
<rect x="1" y="28" width="480" height="36" rx="4" fill="white"/>
<path d="M470 43.5L465 48.5L460 43.5" stroke="#111827" stroke-linecap="round" stroke-linejoin="round"/>
</g>
<rect x="1" y="28" width="480" height="36" rx="4" stroke="#E4E4E7"/>
<rect x="1.5" y="96.5" width="111" height="103" rx="3.5" fill="white"/>
<rect x="1.5" y="96.5" width="111" height="103" rx="3.5" stroke="#E4E4E7"/>
<path fill-rule="evenodd" clip-rule="evenodd" d="M57 148C65.8366 148 73 140.837 73 132C73 123.163 65.8366 116 57 116C48.1661 116 41.0043 123.159 41 131.992H47.0879C47.0922 126.521 51.5283 122.088 57 122.088C62.4743 122.088 66.9121 126.526 66.9121 132C66.9121 137.474 62.4743 141.912 57 141.912L56.9807 141.912V148L57 148ZM56.9805 135.605H50.7933V141.793H56.9805V135.605ZM50.7933 141.813H46.0389V137.837H42.0631V141.813H46.0387V146.567H50.7933V141.813Z" fill="#111827"/>
<path d="M15.9365 175H13.4209V173.633H15.8545C16.6247 173.633 17.265 173.489 17.7754 173.202C18.2858 172.915 18.6686 172.493 18.9238 171.938C19.179 171.377 19.3066 170.696 19.3066 169.894C19.3066 169.096 19.179 168.422 18.9238 167.87C18.6732 167.319 18.2972 166.899 17.7959 166.612C17.2992 166.325 16.6794 166.182 15.9365 166.182H13.3662V164.814H16.0391C17.0417 164.814 17.9007 165.017 18.6162 165.423C19.3317 165.828 19.8809 166.412 20.2637 167.173C20.6465 167.929 20.8379 168.836 20.8379 169.894C20.8379 170.955 20.6442 171.867 20.2568 172.628C19.874 173.389 19.3158 173.975 18.582 174.385C17.8529 174.795 16.971 175 15.9365 175ZM14.1865 164.814V175H12.6279V164.814H14.1865ZM22.6152 175V167.357H24.1191V175H22.6152ZM23.374 166.188C23.1143 166.188 22.891 166.102 22.7041 165.929C22.5218 165.756 22.4307 165.546 22.4307 165.3C22.4307 165.049 22.5218 164.837 22.7041 164.664C22.891 164.491 23.1143 164.404 23.374 164.404C23.6338 164.404 23.8571 164.491 24.0439 164.664C24.2308 164.837 24.3242 165.049 24.3242 165.3C24.3242 165.546 24.2308 165.756 24.0439 165.929C23.8571 166.102 23.6338 166.188 23.374 166.188ZM29.335 178.021C28.7471 178.021 28.2367 177.946 27.8037 177.796C27.3708 177.646 27.013 177.445 26.7305 177.194C26.4525 176.944 26.2406 176.666 26.0947 176.36L27.3525 175.766C27.4437 175.911 27.5645 176.064 27.7148 176.224C27.8698 176.388 28.0771 176.527 28.3369 176.641C28.5967 176.755 28.9294 176.812 29.335 176.812C29.9183 176.812 30.39 176.673 30.75 176.395C31.1146 176.121 31.2969 175.69 31.2969 175.103V173.612H31.167C31.0758 173.781 30.9482 173.963 30.7842 174.159C30.6247 174.355 30.3991 174.526 30.1074 174.672C29.8203 174.813 29.4443 174.884 28.9795 174.884C28.3779 174.884 27.8356 174.743 27.3525 174.46C26.874 174.177 26.4935 173.758 26.2109 173.202C25.9284 172.646 25.7871 171.963 25.7871 171.151C25.7871 170.34 25.9261 169.645 26.2041 169.066C26.4867 168.483 26.8695 168.036 27.3525 167.727C27.8402 167.417 28.3893 167.262 29 167.262C29.4694 167.262 29.8499 167.339 30.1416 167.494C30.4378 167.649 30.668 167.834 30.832 168.048C31.0007 168.257 31.1283 168.442 31.2148 168.602H31.3242V167.357H32.7939V175.109C32.7939 175.779 32.6413 176.328 32.3359 176.757C32.0352 177.19 31.6227 177.509 31.0986 177.714C30.5791 177.919 29.9912 178.021 29.335 178.021ZM29.3281 173.633C29.7565 173.633 30.1165 173.535 30.4082 173.339C30.7044 173.138 30.9277 172.851 31.0781 172.478C31.2285 172.099 31.3037 171.65 31.3037 171.131C31.3037 170.616 31.2285 170.165 31.0781 169.777C30.9277 169.39 30.7044 169.087 30.4082 168.868C30.1165 168.649 29.7565 168.54 29.3281 168.54C28.8861 168.54 28.5169 168.656 28.2207 168.889C27.9245 169.117 27.7012 169.426 27.5508 169.818C27.4004 170.206 27.3252 170.643 27.3252 171.131C27.3252 171.628 27.4004 172.065 27.5508 172.443C27.7012 172.817 27.9245 173.109 28.2207 173.318C28.5215 173.528 28.8906 173.633 29.3281 173.633ZM34.8242 175V167.357H36.3281V175H34.8242ZM35.583 166.188C35.3232 166.188 35.0999 166.102 34.9131 165.929C34.7308 165.756 34.6396 165.546 34.6396 165.3C34.6396 165.049 34.7308 164.837 34.9131 164.664C35.0999 164.491 35.3232 164.404 35.583 164.404C35.8428 164.404 36.0661 164.491 36.2529 164.664C36.4398 164.837 36.5332 165.049 36.5332 165.3C36.5332 165.546 36.4398 165.756 36.2529 165.929C36.0661 166.102 35.8428 166.188 35.583 166.188ZM41.6191 167.357V168.581H37.4766V167.357H41.6191ZM38.5908 165.539H40.0947V172.936C40.0947 173.241 40.1585 173.466 40.2861 173.612C40.4183 173.754 40.6325 173.824 40.9287 173.824C41.0062 173.824 41.1087 173.815 41.2363 173.797C41.3639 173.779 41.4733 173.76 41.5645 173.742L41.8311 174.945C41.6715 175 41.5007 175.039 41.3184 175.062C41.1361 175.089 40.9561 175.103 40.7783 175.103C40.0856 175.103 39.5479 174.925 39.165 174.569C38.7822 174.209 38.5908 173.706 38.5908 173.059V165.539ZM45.8232 175.15C45.208 175.15 44.6589 174.993 44.1758 174.679C43.6973 174.36 43.319 173.906 43.041 173.318C42.7676 172.726 42.6309 172.02 42.6309 171.199C42.6309 170.37 42.7699 169.661 43.0479 169.073C43.3304 168.485 43.7132 168.036 44.1963 167.727C44.6839 167.417 45.2331 167.262 45.8438 167.262C46.3132 167.262 46.6914 167.339 46.9785 167.494C47.2702 167.649 47.4958 167.834 47.6553 168.048C47.8193 168.257 47.9447 168.442 48.0312 168.602H48.127V167.357H49.6172V175H48.1338V173.804H48.0312C47.9447 173.968 47.8171 174.157 47.6484 174.371C47.4798 174.581 47.2497 174.763 46.958 174.918C46.6663 175.073 46.2881 175.15 45.8232 175.15ZM46.1719 173.872C46.6003 173.872 46.9603 173.758 47.252 173.53C47.5482 173.302 47.7715 172.988 47.9219 172.587C48.0723 172.181 48.1475 171.714 48.1475 171.186C48.1475 170.652 48.0723 170.19 47.9219 169.798C47.7715 169.401 47.5482 169.094 47.252 168.875C46.9603 168.652 46.6003 168.54 46.1719 168.54C45.7298 168.54 45.3607 168.656 45.0645 168.889C44.7682 169.117 44.5449 169.431 44.3945 169.832C44.2441 170.229 44.1689 170.68 44.1689 171.186C44.1689 171.691 44.2441 172.147 44.3945 172.553C44.5449 172.958 44.7682 173.28 45.0645 173.517C45.3652 173.754 45.7344 173.872 46.1719 173.872ZM53.1445 164.814V175H51.6406V164.814H53.1445ZM63.2617 175.137C62.3822 175.137 61.5938 174.929 60.8965 174.515C60.2038 174.095 59.6569 173.496 59.2559 172.717C58.8594 171.933 58.6611 170.999 58.6611 169.914C58.6611 168.825 58.8594 167.891 59.2559 167.111C59.6569 166.327 60.2038 165.726 60.8965 165.307C61.5938 164.887 62.3822 164.678 63.2617 164.678C64.1413 164.678 64.9251 164.887 65.6133 165.307C66.306 165.726 66.8506 166.327 67.2471 167.111C67.6481 167.891 67.8486 168.825 67.8486 169.914C67.8486 170.999 67.6481 171.933 67.2471 172.717C66.8506 173.496 66.306 174.095 65.6133 174.515C64.9251 174.929 64.1413 175.137 63.2617 175.137ZM63.2617 173.715C63.8405 173.715 64.3577 173.571 64.8135 173.284C65.2738 172.993 65.6361 172.564 65.9004 171.999C66.1693 171.429 66.3037 170.734 66.3037 169.914C66.3037 169.085 66.1693 168.387 65.9004 167.822C65.6361 167.253 65.2738 166.824 64.8135 166.537C64.3577 166.245 63.8405 166.1 63.2617 166.1C62.6784 166.1 62.1566 166.245 61.6963 166.537C61.236 166.829 60.8714 167.259 60.6025 167.829C60.3382 168.394 60.2061 169.089 60.2061 169.914C60.2061 170.734 60.3382 171.427 60.6025 171.992C60.8714 172.557 61.236 172.986 61.6963 173.277C62.1566 173.569 62.6784 173.715 63.2617 173.715ZM72.8457 175.157C72.1257 175.157 71.499 174.993 70.9658 174.665C70.4326 174.337 70.0179 173.877 69.7217 173.284C69.4255 172.692 69.2773 172.004 69.2773 171.22C69.2773 170.427 69.4255 169.734 69.7217 169.142C70.0179 168.545 70.4326 168.082 70.9658 167.754C71.499 167.426 72.1257 167.262 72.8457 167.262C73.2422 167.262 73.6136 167.314 73.96 167.419C74.3063 167.519 74.6185 167.667 74.8965 167.863C75.179 168.055 75.416 168.292 75.6074 168.574C75.8034 168.852 75.9492 169.167 76.0449 169.518L74.6162 169.859C74.5661 169.663 74.4886 169.486 74.3838 169.326C74.279 169.162 74.1514 169.021 74.001 168.902C73.8551 168.784 73.6842 168.693 73.4883 168.629C73.2969 168.565 73.085 168.533 72.8525 168.533C72.3923 168.533 72.0094 168.656 71.7041 168.902C71.4033 169.144 71.1777 169.467 71.0273 169.873C70.8815 170.279 70.8086 170.728 70.8086 171.22C70.8086 171.707 70.8815 172.154 71.0273 172.56C71.1777 172.961 71.4033 173.282 71.7041 173.523C72.0094 173.765 72.3923 173.886 72.8525 173.886C73.0895 173.886 73.306 173.854 73.502 173.79C73.6979 173.722 73.8734 173.628 74.0283 173.51C74.1833 173.387 74.3132 173.241 74.418 173.072C74.5228 172.899 74.598 172.71 74.6436 172.505L76.0654 172.847C75.9743 173.207 75.8307 173.53 75.6348 173.817C75.4388 174.1 75.1995 174.341 74.917 174.542C74.639 174.743 74.3245 174.895 73.9736 175C73.6227 175.105 73.2467 175.157 72.8457 175.157ZM81.0078 175.157C80.2559 175.157 79.6064 174.995 79.0596 174.672C78.5127 174.348 78.0911 173.893 77.7949 173.305C77.5033 172.717 77.3574 172.026 77.3574 171.233C77.3574 170.45 77.501 169.759 77.7881 169.162C78.0798 168.565 78.4899 168.1 79.0186 167.768C79.5472 167.43 80.167 167.262 80.8779 167.262C81.3154 167.262 81.737 167.335 82.1426 167.48C82.5482 167.622 82.9128 167.845 83.2363 168.15C83.5599 168.456 83.8151 168.852 84.002 169.34C84.1934 169.823 84.2891 170.411 84.2891 171.104V171.637H78.1982V170.516H83.5166L82.8125 170.885C82.8125 170.415 82.7396 170.003 82.5938 169.647C82.4479 169.287 82.2314 169.007 81.9443 168.807C81.6618 168.606 81.3063 168.506 80.8779 168.506C80.4541 168.506 80.0918 168.608 79.791 168.813C79.4902 169.019 79.2601 169.29 79.1006 169.627C78.9456 169.96 78.8682 170.324 78.8682 170.721V171.486C78.8682 172.01 78.957 172.455 79.1348 172.819C79.3171 173.179 79.57 173.453 79.8936 173.64C80.2171 173.822 80.5931 173.913 81.0215 173.913C81.304 173.913 81.5592 173.874 81.7871 173.797C82.015 173.715 82.2109 173.594 82.375 173.435C82.5436 173.271 82.6712 173.07 82.7578 172.833L84.1729 173.168C84.0498 173.56 83.8424 173.906 83.5508 174.207C83.2637 174.508 82.9036 174.743 82.4707 174.911C82.0423 175.075 81.5547 175.157 81.0078 175.157ZM88.7803 175.15C88.165 175.15 87.6159 174.993 87.1328 174.679C86.6543 174.36 86.276 173.906 85.998 173.318C85.7246 172.726 85.5879 172.02 85.5879 171.199C85.5879 170.37 85.7269 169.661 86.0049 169.073C86.2874 168.485 86.6702 168.036 87.1533 167.727C87.641 167.417 88.1901 167.262 88.8008 167.262C89.2702 167.262 89.6484 167.339 89.9355 167.494C90.2272 167.649 90.4528 167.834 90.6123 168.048C90.7764 168.257 90.9017 168.442 90.9883 168.602H91.084V167.357H92.5742V175H91.0908V173.804H90.9883C90.9017 173.968 90.7741 174.157 90.6055 174.371C90.4368 174.581 90.2067 174.763 89.915 174.918C89.6234 175.073 89.2451 175.15 88.7803 175.15ZM89.1289 173.872C89.5573 173.872 89.9173 173.758 90.209 173.53C90.5052 173.302 90.7285 172.988 90.8789 172.587C91.0293 172.181 91.1045 171.714 91.1045 171.186C91.1045 170.652 91.0293 170.19 90.8789 169.798C90.7285 169.401 90.5052 169.094 90.209 168.875C89.9173 168.652 89.5573 168.54 89.1289 168.54C88.6868 168.54 88.3177 168.656 88.0215 168.889C87.7253 169.117 87.502 169.431 87.3516 169.832C87.2012 170.229 87.126 170.68 87.126 171.186C87.126 171.691 87.2012 172.147 87.3516 172.553C87.502 172.958 87.7253 173.28 88.0215 173.517C88.3223 173.754 88.6914 173.872 89.1289 173.872ZM96.1016 170.475V175H94.5977V167.357H96.0332L96.0469 169.23H95.8896C96.113 168.547 96.4365 168.048 96.8604 167.733C97.2842 167.419 97.7969 167.262 98.3984 167.262C98.918 167.262 99.3714 167.371 99.7588 167.59C100.146 167.809 100.449 168.132 100.668 168.561C100.887 168.984 100.996 169.513 100.996 170.146V175H99.4922V170.331C99.4922 169.78 99.3486 169.349 99.0615 169.039C98.7744 168.729 98.3802 168.574 97.8789 168.574C97.5417 168.574 97.2386 168.649 96.9697 168.8C96.7008 168.946 96.4889 169.16 96.334 169.442C96.179 169.725 96.1016 170.069 96.1016 170.475Z" fill="#111827"/>
<rect x="145.5" y="96.5" width="191" height="103" rx="3.5" fill="white"/>
<rect x="145.5" y="96.5" width="191" height="103" rx="3.5" stroke="#E4E4E7"/>
<path fill-rule="evenodd" clip-rule="evenodd" d="M234.018 129.382C234.018 129.776 234.061 130.095 234.135 130.329C234.22 130.563 234.327 130.819 234.476 131.095C234.529 131.181 234.55 131.266 234.55 131.34C234.55 131.447 234.486 131.553 234.348 131.659L233.677 132.106C233.582 132.17 233.486 132.202 233.401 132.202C233.294 132.202 233.188 132.149 233.081 132.053C232.932 131.894 232.805 131.723 232.698 131.553C232.592 131.372 232.485 131.17 232.368 130.925C231.538 131.904 230.495 132.394 229.239 132.394C228.345 132.394 227.632 132.138 227.111 131.628C226.589 131.117 226.323 130.436 226.323 129.584C226.323 128.679 226.643 127.945 227.292 127.392C227.941 126.838 228.803 126.562 229.899 126.562C230.261 126.562 230.634 126.593 231.027 126.647C231.421 126.7 231.826 126.785 232.251 126.881V126.104C232.251 125.295 232.081 124.731 231.751 124.401C231.411 124.071 230.836 123.911 230.016 123.911C229.644 123.911 229.261 123.954 228.867 124.05C228.473 124.146 228.09 124.263 227.717 124.412C227.547 124.486 227.419 124.529 227.345 124.55C227.27 124.571 227.217 124.582 227.175 124.582C227.026 124.582 226.951 124.476 226.951 124.252V123.731C226.951 123.56 226.972 123.433 227.026 123.358C227.079 123.284 227.175 123.209 227.324 123.135C227.696 122.943 228.143 122.783 228.665 122.656C229.186 122.517 229.74 122.453 230.325 122.453C231.591 122.453 232.517 122.741 233.113 123.315C233.699 123.89 233.997 124.763 233.997 125.934V129.382H234.018ZM229.697 131C230.048 131 230.41 130.936 230.793 130.808C231.176 130.68 231.517 130.446 231.804 130.127C231.975 129.925 232.102 129.701 232.166 129.446C232.23 129.19 232.273 128.882 232.273 128.52V128.073C231.964 127.998 231.634 127.934 231.293 127.892C230.953 127.849 230.623 127.828 230.293 127.828C229.58 127.828 229.058 127.966 228.707 128.254C228.356 128.541 228.186 128.946 228.186 129.478C228.186 129.978 228.313 130.35 228.58 130.606C228.835 130.872 229.207 131 229.697 131ZM238.243 132.149C238.052 132.149 237.924 132.117 237.839 132.043C237.754 131.979 237.679 131.83 237.615 131.628L235.114 123.401C235.05 123.188 235.018 123.049 235.018 122.975C235.018 122.805 235.104 122.709 235.274 122.709H236.317C236.519 122.709 236.657 122.741 236.732 122.815C236.817 122.879 236.881 123.028 236.945 123.23L238.733 130.276L240.393 123.23C240.446 123.017 240.51 122.879 240.595 122.815C240.68 122.751 240.829 122.709 241.021 122.709H241.872C242.075 122.709 242.213 122.741 242.298 122.815C242.383 122.879 242.458 123.028 242.5 123.23L244.182 130.361L246.023 123.23C246.087 123.017 246.162 122.879 246.236 122.815C246.321 122.751 246.46 122.709 246.651 122.709H247.641C247.811 122.709 247.907 122.794 247.907 122.975C247.907 123.02 247.899 123.066 247.89 123.118L247.886 123.145C247.875 123.209 247.854 123.294 247.811 123.411L245.246 131.638C245.182 131.851 245.108 131.989 245.023 132.053C244.938 132.117 244.799 132.16 244.618 132.16H243.703C243.501 132.16 243.362 132.128 243.277 132.053C243.192 131.979 243.118 131.84 243.075 131.628L241.425 124.763L239.786 131.617C239.733 131.83 239.669 131.968 239.584 132.043C239.499 132.117 239.35 132.149 239.159 132.149H238.243ZM251.919 132.436C251.366 132.436 250.812 132.373 250.28 132.245C249.748 132.117 249.333 131.979 249.056 131.819C248.886 131.723 248.769 131.617 248.726 131.521C248.684 131.425 248.663 131.319 248.663 131.223V130.68C248.663 130.457 248.748 130.35 248.907 130.35C248.971 130.35 249.035 130.361 249.099 130.382C249.14 130.396 249.195 130.419 249.257 130.444L249.257 130.445C249.291 130.459 249.327 130.474 249.365 130.489C249.727 130.648 250.121 130.776 250.536 130.861C250.961 130.946 251.377 130.989 251.802 130.989C252.473 130.989 252.994 130.872 253.356 130.638C253.718 130.404 253.91 130.063 253.91 129.627C253.91 129.329 253.814 129.084 253.622 128.882C253.431 128.679 253.069 128.499 252.547 128.328L251.004 127.849C250.227 127.605 249.652 127.243 249.301 126.764C248.95 126.295 248.769 125.774 248.769 125.221C248.769 124.774 248.865 124.38 249.056 124.039C249.248 123.699 249.503 123.401 249.823 123.166C250.142 122.922 250.504 122.741 250.93 122.613C251.355 122.485 251.802 122.432 252.271 122.432C252.505 122.432 252.749 122.443 252.984 122.475C253.228 122.507 253.452 122.549 253.675 122.592C253.888 122.645 254.09 122.698 254.282 122.762C254.474 122.826 254.623 122.89 254.729 122.954C254.878 123.039 254.984 123.124 255.048 123.22C255.112 123.305 255.144 123.422 255.144 123.571V124.071C255.144 124.295 255.059 124.412 254.899 124.412C254.814 124.412 254.676 124.369 254.495 124.284C253.888 124.007 253.207 123.869 252.451 123.869C251.845 123.869 251.366 123.965 251.036 124.167C250.706 124.369 250.536 124.678 250.536 125.114C250.536 125.412 250.642 125.668 250.855 125.87C251.068 126.072 251.462 126.274 252.026 126.455L253.537 126.934C254.303 127.179 254.857 127.519 255.187 127.956C255.517 128.392 255.676 128.892 255.676 129.446C255.676 129.903 255.58 130.318 255.4 130.68C255.208 131.042 254.953 131.361 254.623 131.617C254.293 131.883 253.899 132.075 253.441 132.213C252.962 132.362 252.462 132.436 251.919 132.436ZM253.931 137.609C250.429 140.195 245.342 141.568 240.968 141.568C234.837 141.568 229.314 139.301 225.142 135.533C224.812 135.235 225.11 134.831 225.504 135.065C230.016 137.683 235.582 139.269 241.34 139.269C245.225 139.269 249.493 138.46 253.42 136.8C254.005 136.534 254.505 137.183 253.931 137.609ZM251.291 135.81C252.43 135.672 254.942 135.374 255.389 135.948C255.836 136.513 254.889 138.886 254.463 139.94C254.335 140.259 254.612 140.387 254.899 140.142C256.772 138.567 257.262 135.278 256.879 134.799C256.496 134.331 253.207 133.926 251.206 135.331C250.897 135.555 250.951 135.853 251.291 135.81Z" fill="#111827"/>
<path d="M165.349 175L168.972 164.814H170.886L174.577 175H172.889L170.906 169.333C170.751 168.873 170.58 168.33 170.394 167.706C170.211 167.082 169.999 166.332 169.758 165.457H170.072C169.84 166.341 169.63 167.1 169.443 167.733C169.261 168.362 169.099 168.896 168.958 169.333L167.037 175H165.349ZM167.311 172.313V171.015H172.608V172.313H167.311ZM175.938 175V167.357H177.366L177.407 169.128H177.291C177.4 168.695 177.569 168.34 177.797 168.062C178.025 167.784 178.291 167.576 178.597 167.439C178.902 167.298 179.221 167.228 179.554 167.228C180.11 167.228 180.559 167.401 180.9 167.747C181.242 168.089 181.472 168.567 181.591 169.183H181.399C181.5 168.763 181.673 168.408 181.919 168.116C182.165 167.825 182.461 167.604 182.808 167.453C183.159 167.303 183.532 167.228 183.929 167.228C184.38 167.228 184.788 167.326 185.152 167.521C185.521 167.717 185.813 168.009 186.027 168.396C186.242 168.784 186.349 169.267 186.349 169.846V175H184.838V169.996C184.838 169.486 184.697 169.117 184.414 168.889C184.132 168.661 183.797 168.547 183.409 168.547C183.095 168.547 182.824 168.613 182.596 168.745C182.368 168.877 182.192 169.062 182.069 169.299C181.946 169.531 181.885 169.8 181.885 170.105V175H180.401V169.9C180.401 169.49 180.269 169.162 180.005 168.916C179.745 168.67 179.412 168.547 179.007 168.547C178.729 168.547 178.469 168.613 178.228 168.745C177.991 168.873 177.799 169.064 177.653 169.319C177.512 169.57 177.441 169.88 177.441 170.249V175H175.938ZM191.216 175.15C190.601 175.15 190.051 174.993 189.568 174.679C189.09 174.36 188.712 173.906 188.434 173.318C188.16 172.726 188.023 172.02 188.023 171.199C188.023 170.37 188.162 169.661 188.44 169.073C188.723 168.485 189.106 168.036 189.589 167.727C190.076 167.417 190.626 167.262 191.236 167.262C191.706 167.262 192.084 167.339 192.371 167.494C192.663 167.649 192.888 167.834 193.048 168.048C193.212 168.257 193.337 168.442 193.424 168.602H193.52V167.357H195.01V175H193.526V173.804H193.424C193.337 173.968 193.21 174.157 193.041 174.371C192.872 174.581 192.642 174.763 192.351 174.918C192.059 175.073 191.681 175.15 191.216 175.15ZM191.564 173.872C191.993 173.872 192.353 173.758 192.645 173.53C192.941 173.302 193.164 172.988 193.314 172.587C193.465 172.181 193.54 171.714 193.54 171.186C193.54 170.652 193.465 170.19 193.314 169.798C193.164 169.401 192.941 169.094 192.645 168.875C192.353 168.652 191.993 168.54 191.564 168.54C191.122 168.54 190.753 168.656 190.457 168.889C190.161 169.117 189.938 169.431 189.787 169.832C189.637 170.229 189.562 170.68 189.562 171.186C189.562 171.691 189.637 172.147 189.787 172.553C189.938 172.958 190.161 173.28 190.457 173.517C190.758 173.754 191.127 173.872 191.564 173.872ZM196.869 175V173.975L200.984 168.738V168.67H196.999V167.357H202.864V168.465L198.906 173.619V173.688H203.001V175H196.869ZM207.848 175.157C207.132 175.157 206.506 174.993 205.968 174.665C205.435 174.337 205.02 173.877 204.724 173.284C204.427 172.692 204.279 172.004 204.279 171.22C204.279 170.427 204.427 169.734 204.724 169.142C205.02 168.545 205.435 168.082 205.968 167.754C206.506 167.426 207.132 167.262 207.848 167.262C208.568 167.262 209.194 167.426 209.728 167.754C210.265 168.082 210.682 168.545 210.979 169.142C211.275 169.734 211.423 170.427 211.423 171.22C211.423 172.004 211.275 172.692 210.979 173.284C210.682 173.877 210.265 174.337 209.728 174.665C209.194 174.993 208.568 175.157 207.848 175.157ZM207.848 173.886C208.312 173.886 208.695 173.765 208.996 173.523C209.301 173.277 209.527 172.954 209.673 172.553C209.823 172.147 209.898 171.703 209.898 171.22C209.898 170.732 209.823 170.285 209.673 169.88C209.527 169.47 209.301 169.144 208.996 168.902C208.695 168.656 208.312 168.533 207.848 168.533C207.387 168.533 207.007 168.656 206.706 168.902C206.405 169.144 206.18 169.467 206.029 169.873C205.883 170.279 205.811 170.728 205.811 171.22C205.811 171.703 205.883 172.147 206.029 172.553C206.18 172.954 206.405 173.277 206.706 173.523C207.007 173.765 207.387 173.886 207.848 173.886ZM214.602 170.475V175H213.098V167.357H214.533L214.547 169.23H214.39C214.613 168.547 214.937 168.048 215.36 167.733C215.784 167.419 216.297 167.262 216.898 167.262C217.418 167.262 217.871 167.371 218.259 167.59C218.646 167.809 218.949 168.132 219.168 168.561C219.387 168.984 219.496 169.513 219.496 170.146V175H217.992V170.331C217.992 169.78 217.849 169.349 217.562 169.039C217.274 168.729 216.88 168.574 216.379 168.574C216.042 168.574 215.739 168.649 215.47 168.8C215.201 168.946 214.989 169.16 214.834 169.442C214.679 169.725 214.602 170.069 214.602 170.475ZM227.351 175L224.589 164.814H226.229L227.699 170.652C227.79 171.012 227.875 171.386 227.952 171.773C228.03 172.161 228.105 172.553 228.178 172.949C228.255 173.346 228.328 173.742 228.396 174.139H228.164C228.237 173.742 228.312 173.346 228.39 172.949C228.467 172.553 228.547 172.161 228.629 171.773C228.711 171.386 228.8 171.012 228.896 170.652L230.406 164.814H232.115L233.612 170.652C233.708 171.012 233.797 171.386 233.879 171.773C233.961 172.161 234.041 172.553 234.118 172.949C234.2 173.346 234.278 173.742 234.351 174.139H234.104C234.177 173.742 234.25 173.346 234.323 172.949C234.396 172.553 234.474 172.161 234.556 171.773C234.642 171.386 234.727 171.012 234.809 170.652L236.278 164.814H237.933L235.157 175H233.359L231.739 168.964C231.616 168.49 231.502 167.975 231.397 167.419C231.293 166.863 231.186 166.252 231.076 165.587H231.432C231.318 166.225 231.213 166.815 231.117 167.357C231.026 167.9 230.91 168.435 230.769 168.964L229.155 175H227.351ZM241.877 175.157C241.125 175.157 240.476 174.995 239.929 174.672C239.382 174.348 238.96 173.893 238.664 173.305C238.372 172.717 238.227 172.026 238.227 171.233C238.227 170.45 238.37 169.759 238.657 169.162C238.949 168.565 239.359 168.1 239.888 167.768C240.416 167.43 241.036 167.262 241.747 167.262C242.185 167.262 242.606 167.335 243.012 167.48C243.417 167.622 243.782 167.845 244.105 168.15C244.429 168.456 244.684 168.852 244.871 169.34C245.062 169.823 245.158 170.411 245.158 171.104V171.637H239.067V170.516H244.386L243.682 170.885C243.682 170.415 243.609 170.003 243.463 169.647C243.317 169.287 243.101 169.007 242.813 168.807C242.531 168.606 242.175 168.506 241.747 168.506C241.323 168.506 240.961 168.608 240.66 168.813C240.359 169.019 240.129 169.29 239.97 169.627C239.815 169.96 239.737 170.324 239.737 170.721V171.486C239.737 172.01 239.826 172.455 240.004 172.819C240.186 173.179 240.439 173.453 240.763 173.64C241.086 173.822 241.462 173.913 241.891 173.913C242.173 173.913 242.428 173.874 242.656 173.797C242.884 173.715 243.08 173.594 243.244 173.435C243.413 173.271 243.54 173.07 243.627 172.833L245.042 173.168C244.919 173.56 244.712 173.906 244.42 174.207C244.133 174.508 243.773 174.743 243.34 174.911C242.911 175.075 242.424 175.157 241.877 175.157ZM250.606 175.15C250.146 175.15 249.768 175.073 249.472 174.918C249.18 174.758 248.95 174.574 248.781 174.364C248.617 174.155 248.49 173.968 248.398 173.804H248.275V175H246.812V164.814H248.316V168.602H248.398C248.49 168.442 248.615 168.257 248.774 168.048C248.938 167.838 249.164 167.656 249.451 167.501C249.743 167.341 250.128 167.262 250.606 167.262C251.217 167.262 251.762 167.417 252.24 167.727C252.723 168.036 253.104 168.485 253.382 169.073C253.66 169.661 253.799 170.37 253.799 171.199C253.799 172.02 253.662 172.726 253.389 173.318C253.115 173.906 252.737 174.36 252.254 174.679C251.775 174.993 251.226 175.15 250.606 175.15ZM250.271 173.872C250.709 173.872 251.076 173.754 251.372 173.517C251.668 173.28 251.889 172.958 252.035 172.553C252.186 172.147 252.261 171.691 252.261 171.186C252.261 170.684 252.186 170.235 252.035 169.839C251.889 169.438 251.668 169.121 251.372 168.889C251.08 168.656 250.714 168.54 250.271 168.54C249.843 168.54 249.481 168.652 249.185 168.875C248.888 169.094 248.665 169.401 248.515 169.798C248.364 170.19 248.289 170.652 248.289 171.186C248.289 171.714 248.364 172.181 248.515 172.587C248.67 172.988 248.895 173.302 249.191 173.53C249.488 173.758 249.848 173.872 250.271 173.872ZM262.733 175.171C261.972 175.171 261.312 175.05 260.751 174.809C260.19 174.567 259.751 174.223 259.432 173.776C259.117 173.325 258.944 172.79 258.912 172.17H260.478C260.509 172.539 260.628 172.844 260.833 173.086C261.043 173.327 261.314 173.507 261.646 173.626C261.979 173.744 262.339 173.804 262.727 173.804C263.16 173.804 263.542 173.738 263.875 173.605C264.212 173.469 264.479 173.277 264.675 173.031C264.871 172.781 264.969 172.491 264.969 172.163C264.969 171.867 264.882 171.625 264.709 171.438C264.54 171.247 264.31 171.09 264.019 170.967C263.731 170.839 263.403 170.728 263.034 170.632L261.845 170.304C261.011 170.08 260.359 169.75 259.89 169.312C259.425 168.875 259.192 168.308 259.192 167.61C259.192 167.022 259.35 166.51 259.664 166.072C259.983 165.63 260.414 165.288 260.956 165.047C261.503 164.801 262.118 164.678 262.802 164.678C263.499 164.678 264.112 164.801 264.641 165.047C265.174 165.288 265.591 165.621 265.892 166.045C266.197 166.469 266.356 166.952 266.37 167.494H264.853C264.802 167.029 264.586 166.669 264.203 166.414C263.825 166.159 263.346 166.031 262.768 166.031C262.357 166.031 262 166.095 261.694 166.223C261.394 166.35 261.159 166.528 260.99 166.756C260.826 166.979 260.744 167.234 260.744 167.521C260.744 167.845 260.842 168.107 261.038 168.308C261.239 168.504 261.48 168.661 261.763 168.779C262.05 168.893 262.323 168.984 262.583 169.053L263.574 169.312C263.898 169.395 264.23 169.506 264.572 169.647C264.919 169.784 265.238 169.964 265.529 170.188C265.821 170.406 266.056 170.68 266.233 171.008C266.416 171.331 266.507 171.723 266.507 172.184C266.507 172.758 266.359 173.271 266.062 173.722C265.766 174.173 265.336 174.528 264.771 174.788C264.21 175.043 263.531 175.171 262.733 175.171ZM271.545 175.157C270.793 175.157 270.144 174.995 269.597 174.672C269.05 174.348 268.628 173.893 268.332 173.305C268.04 172.717 267.895 172.026 267.895 171.233C267.895 170.45 268.038 169.759 268.325 169.162C268.617 168.565 269.027 168.1 269.556 167.768C270.084 167.43 270.704 167.262 271.415 167.262C271.853 167.262 272.274 167.335 272.68 167.48C273.085 167.622 273.45 167.845 273.773 168.15C274.097 168.456 274.352 168.852 274.539 169.34C274.73 169.823 274.826 170.411 274.826 171.104V171.637H268.735V170.516H274.054L273.35 170.885C273.35 170.415 273.277 170.003 273.131 169.647C272.985 169.287 272.769 169.007 272.481 168.807C272.199 168.606 271.843 168.506 271.415 168.506C270.991 168.506 270.629 168.608 270.328 168.813C270.027 169.019 269.797 169.29 269.638 169.627C269.483 169.96 269.405 170.324 269.405 170.721V171.486C269.405 172.01 269.494 172.455 269.672 172.819C269.854 173.179 270.107 173.453 270.431 173.64C270.754 173.822 271.13 173.913 271.559 173.913C271.841 173.913 272.096 173.874 272.324 173.797C272.552 173.715 272.748 173.594 272.912 173.435C273.081 173.271 273.208 173.07 273.295 172.833L274.71 173.168C274.587 173.56 274.38 173.906 274.088 174.207C273.801 174.508 273.441 174.743 273.008 174.911C272.579 175.075 272.092 175.157 271.545 175.157ZM276.48 175V167.357H277.937V168.588H278.019C278.16 168.169 278.406 167.84 278.757 167.604C279.108 167.367 279.507 167.248 279.953 167.248C280.049 167.248 280.158 167.253 280.281 167.262C280.404 167.266 280.507 167.275 280.589 167.289V168.725C280.534 168.706 280.429 168.688 280.274 168.67C280.119 168.652 279.962 168.643 279.803 168.643C279.456 168.643 279.144 168.715 278.866 168.861C278.588 169.007 278.372 169.21 278.217 169.47C278.062 169.725 277.984 170.021 277.984 170.358V175H276.48ZM284.301 175L281.416 167.357H283.043L284.554 171.698C284.722 172.177 284.866 172.658 284.984 173.141C285.103 173.619 285.228 174.095 285.36 174.569H284.909C285.037 174.095 285.16 173.619 285.278 173.141C285.397 172.658 285.538 172.177 285.702 171.698L287.213 167.357H288.826L285.941 175H284.301ZM290.166 175V167.357H291.67V175H290.166ZM290.925 166.188C290.665 166.188 290.442 166.102 290.255 165.929C290.073 165.756 289.981 165.546 289.981 165.3C289.981 165.049 290.073 164.837 290.255 164.664C290.442 164.491 290.665 164.404 290.925 164.404C291.185 164.404 291.408 164.491 291.595 164.664C291.782 164.837 291.875 165.049 291.875 165.3C291.875 165.546 291.782 165.756 291.595 165.929C291.408 166.102 291.185 166.188 290.925 166.188ZM296.906 175.157C296.186 175.157 295.56 174.993 295.026 174.665C294.493 174.337 294.078 173.877 293.782 173.284C293.486 172.692 293.338 172.004 293.338 171.22C293.338 170.427 293.486 169.734 293.782 169.142C294.078 168.545 294.493 168.082 295.026 167.754C295.56 167.426 296.186 167.262 296.906 167.262C297.303 167.262 297.674 167.314 298.021 167.419C298.367 167.519 298.679 167.667 298.957 167.863C299.24 168.055 299.477 168.292 299.668 168.574C299.864 168.852 300.01 169.167 300.105 169.518L298.677 169.859C298.627 169.663 298.549 169.486 298.444 169.326C298.34 169.162 298.212 169.021 298.062 168.902C297.916 168.784 297.745 168.693 297.549 168.629C297.357 168.565 297.146 168.533 296.913 168.533C296.453 168.533 296.07 168.656 295.765 168.902C295.464 169.144 295.238 169.467 295.088 169.873C294.942 170.279 294.869 170.728 294.869 171.22C294.869 171.707 294.942 172.154 295.088 172.56C295.238 172.961 295.464 173.282 295.765 173.523C296.07 173.765 296.453 173.886 296.913 173.886C297.15 173.886 297.367 173.854 297.562 173.79C297.758 173.722 297.934 173.628 298.089 173.51C298.244 173.387 298.374 173.241 298.479 173.072C298.583 172.899 298.659 172.71 298.704 172.505L300.126 172.847C300.035 173.207 299.891 173.53 299.695 173.817C299.499 174.1 299.26 174.341 298.978 174.542C298.7 174.743 298.385 174.895 298.034 175C297.683 175.105 297.307 175.157 296.906 175.157ZM305.068 175.157C304.316 175.157 303.667 174.995 303.12 174.672C302.573 174.348 302.152 173.893 301.855 173.305C301.564 172.717 301.418 172.026 301.418 171.233C301.418 170.45 301.562 169.759 301.849 169.162C302.14 168.565 302.55 168.1 303.079 167.768C303.608 167.43 304.228 167.262 304.938 167.262C305.376 167.262 305.798 167.335 306.203 167.48C306.609 167.622 306.973 167.845 307.297 168.15C307.62 168.456 307.876 168.852 308.062 169.34C308.254 169.823 308.35 170.411 308.35 171.104V171.637H302.259V170.516H307.577L306.873 170.885C306.873 170.415 306.8 170.003 306.654 169.647C306.508 169.287 306.292 169.007 306.005 168.807C305.722 168.606 305.367 168.506 304.938 168.506C304.515 168.506 304.152 168.608 303.852 168.813C303.551 169.019 303.321 169.29 303.161 169.627C303.006 169.96 302.929 170.324 302.929 170.721V171.486C302.929 172.01 303.018 172.455 303.195 172.819C303.378 173.179 303.631 173.453 303.954 173.64C304.278 173.822 304.654 173.913 305.082 173.913C305.365 173.913 305.62 173.874 305.848 173.797C306.076 173.715 306.271 173.594 306.436 173.435C306.604 173.271 306.732 173.07 306.818 172.833L308.233 173.168C308.11 173.56 307.903 173.906 307.611 174.207C307.324 174.508 306.964 174.743 306.531 174.911C306.103 175.075 305.615 175.157 305.068 175.157ZM312.745 175.157C312.194 175.157 311.701 175.077 311.269 174.918C310.84 174.758 310.487 174.524 310.209 174.214C309.936 173.899 309.753 173.517 309.662 173.065L311.077 172.771C311.182 173.168 311.378 173.462 311.665 173.653C311.952 173.845 312.317 173.94 312.759 173.94C313.242 173.94 313.627 173.84 313.914 173.64C314.201 173.435 314.345 173.191 314.345 172.908C314.345 172.662 314.256 172.459 314.078 172.3C313.905 172.14 313.636 172.022 313.271 171.944L311.986 171.65C311.275 171.491 310.747 171.236 310.4 170.885C310.054 170.534 309.881 170.085 309.881 169.538C309.881 169.082 310.008 168.684 310.264 168.342C310.519 168 310.868 167.736 311.31 167.549C311.752 167.357 312.262 167.262 312.841 167.262C313.392 167.262 313.864 167.341 314.256 167.501C314.648 167.66 314.965 167.884 315.206 168.171C315.452 168.458 315.628 168.791 315.732 169.169L314.386 169.463C314.29 169.194 314.124 168.959 313.887 168.759C313.65 168.554 313.306 168.451 312.854 168.451C312.44 168.451 312.093 168.545 311.815 168.731C311.537 168.918 311.398 169.155 311.398 169.442C311.398 169.698 311.49 169.905 311.672 170.064C311.859 170.219 312.162 170.345 312.581 170.44L313.812 170.714C314.518 170.873 315.042 171.124 315.384 171.466C315.726 171.808 315.896 172.245 315.896 172.778C315.896 173.243 315.762 173.656 315.493 174.016C315.229 174.371 314.86 174.651 314.386 174.856C313.916 175.057 313.369 175.157 312.745 175.157Z" fill="#111827"/>
<rect x="369.5" y="96.5" width="111" height="103" rx="3.5" fill="white"/>
<rect x="369.5" y="96.5" width="111" height="103" rx="3.5" stroke="#E4E4E7"/>
<path fill-rule="evenodd" clip-rule="evenodd" d="M417.048 127.414L426.484 119.233L416.258 141.863H409L417.048 127.414ZM423.712 132.495L427.738 121.147L441 144.767H416.454L431.432 142.194L423.712 132.495Z" fill="#111827"/>
<path d="M405.349 175L408.972 164.814H410.886L414.577 175H412.889L410.906 169.333C410.751 168.873 410.58 168.33 410.394 167.706C410.211 167.082 409.999 166.332 409.758 165.457H410.072C409.84 166.341 409.63 167.1 409.443 167.733C409.261 168.362 409.099 168.896 408.958 169.333L407.037 175H405.349ZM407.311 172.313V171.015H412.608V172.313H407.311ZM415.773 175V173.975L419.889 168.738V168.67H415.903V167.357H421.769V168.465L417.811 173.619V173.688H421.905V175H415.773ZM426.376 175.096C425.856 175.096 425.401 174.986 425.009 174.768C424.617 174.549 424.312 174.225 424.093 173.797C423.879 173.368 423.771 172.84 423.771 172.211V167.357H425.275V172.026C425.275 172.578 425.419 173.008 425.706 173.318C425.998 173.628 426.392 173.783 426.889 173.783C427.23 173.783 427.534 173.71 427.798 173.564C428.067 173.414 428.279 173.198 428.434 172.915C428.589 172.628 428.666 172.284 428.666 171.883V167.357H430.17V175H428.734L428.728 173.127H428.871C428.648 173.82 428.322 174.321 427.894 174.631C427.465 174.941 426.959 175.096 426.376 175.096ZM432.193 175V167.357H433.649V168.588H433.731C433.873 168.169 434.119 167.84 434.47 167.604C434.821 167.367 435.219 167.248 435.666 167.248C435.762 167.248 435.871 167.253 435.994 167.262C436.117 167.266 436.22 167.275 436.302 167.289V168.725C436.247 168.706 436.142 168.688 435.987 168.67C435.832 168.652 435.675 168.643 435.516 168.643C435.169 168.643 434.857 168.715 434.579 168.861C434.301 169.007 434.085 169.21 433.93 169.47C433.775 169.725 433.697 170.021 433.697 170.358V175H432.193ZM440.629 175.157C439.877 175.157 439.228 174.995 438.681 174.672C438.134 174.348 437.712 173.893 437.416 173.305C437.124 172.717 436.979 172.026 436.979 171.233C436.979 170.45 437.122 169.759 437.409 169.162C437.701 168.565 438.111 168.1 438.64 167.768C439.168 167.43 439.788 167.262 440.499 167.262C440.937 167.262 441.358 167.335 441.764 167.48C442.169 167.622 442.534 167.845 442.857 168.15C443.181 168.456 443.436 168.852 443.623 169.34C443.814 169.823 443.91 170.411 443.91 171.104V171.637H437.819V170.516H443.138L442.434 170.885C442.434 170.415 442.361 170.003 442.215 169.647C442.069 169.287 441.853 169.007 441.565 168.807C441.283 168.606 440.927 168.506 440.499 168.506C440.075 168.506 439.713 168.608 439.412 168.813C439.111 169.019 438.881 169.29 438.722 169.627C438.567 169.96 438.489 170.324 438.489 170.721V171.486C438.489 172.01 438.578 172.455 438.756 172.819C438.938 173.179 439.191 173.453 439.515 173.64C439.838 173.822 440.214 173.913 440.643 173.913C440.925 173.913 441.18 173.874 441.408 173.797C441.636 173.715 441.832 173.594 441.996 173.435C442.165 173.271 442.292 173.07 442.379 172.833L443.794 173.168C443.671 173.56 443.464 173.906 443.172 174.207C442.885 174.508 442.525 174.743 442.092 174.911C441.663 175.075 441.176 175.157 440.629 175.157Z" fill="#111827"/>
<defs>
<clipPath id="clip0_3947_20849">
<rect x="1" y="28" width="480" height="36" rx="4" fill="white"/>
</clipPath>
</defs>
</svg>
