<svg width="519" height="200" viewBox="0 0 519 200" fill="none" xmlns="http://www.w3.org/2000/svg">
<path d="M5.5459 17.1709C4.78483 17.1709 4.12402 17.0501 3.56348 16.8086C3.00293 16.5671 2.56315 16.223 2.24414 15.7764C1.92969 15.3252 1.75651 14.7897 1.72461 14.1699H3.29004C3.32194 14.5391 3.44043 14.8444 3.64551 15.0859C3.85514 15.3275 4.1263 15.5075 4.45898 15.626C4.79167 15.7445 5.15169 15.8037 5.53906 15.8037C5.97201 15.8037 6.35482 15.7376 6.6875 15.6055C7.02474 15.4688 7.29134 15.2773 7.4873 15.0312C7.68327 14.7806 7.78125 14.4912 7.78125 14.1631C7.78125 13.8669 7.69466 13.6253 7.52148 13.4385C7.35286 13.2471 7.12272 13.0898 6.83105 12.9668C6.54395 12.8392 6.21582 12.7275 5.84668 12.6318L4.65723 12.3037C3.82324 12.0804 3.17155 11.75 2.70215 11.3125C2.2373 10.875 2.00488 10.3076 2.00488 9.61035C2.00488 9.02246 2.16211 8.50977 2.47656 8.07227C2.79557 7.63021 3.22624 7.28841 3.76855 7.04688C4.31543 6.80078 4.93066 6.67773 5.61426 6.67773C6.31152 6.67773 6.92448 6.80078 7.45312 7.04688C7.98633 7.28841 8.40332 7.62109 8.7041 8.04492C9.00944 8.46875 9.16895 8.95182 9.18262 9.49414H7.66504C7.61491 9.0293 7.39844 8.66927 7.01562 8.41406C6.63737 8.15885 6.15885 8.03125 5.58008 8.03125C5.16992 8.03125 4.81217 8.09505 4.50684 8.22266C4.20605 8.35026 3.97135 8.52799 3.80273 8.75586C3.63867 8.97917 3.55664 9.23438 3.55664 9.52148C3.55664 9.84505 3.65462 10.1071 3.85059 10.3076C4.05111 10.5036 4.29264 10.6608 4.5752 10.7793C4.8623 10.8932 5.13574 10.9844 5.39551 11.0527L6.38672 11.3125C6.71029 11.3945 7.04297 11.5062 7.38477 11.6475C7.73112 11.7842 8.05013 11.9642 8.3418 12.1875C8.63346 12.4062 8.86816 12.6797 9.0459 13.0078C9.22819 13.3314 9.31934 13.7233 9.31934 14.1836C9.31934 14.7578 9.17122 15.2705 8.875 15.7217C8.57878 16.1729 8.14811 16.5283 7.58301 16.7881C7.02246 17.0433 6.34342 17.1709 5.5459 17.1709ZM14.3574 17.1572C13.6055 17.1572 12.9561 16.9954 12.4092 16.6719C11.8623 16.3483 11.4408 15.8926 11.1445 15.3047C10.8529 14.7168 10.707 14.0264 10.707 13.2334C10.707 12.4495 10.8506 11.7591 11.1377 11.1621C11.4294 10.5651 11.8395 10.1003 12.3682 9.76758C12.8968 9.43034 13.5166 9.26172 14.2275 9.26172C14.665 9.26172 15.0866 9.33464 15.4922 9.48047C15.8978 9.62174 16.2624 9.84505 16.5859 10.1504C16.9095 10.4557 17.1647 10.8522 17.3516 11.3398C17.543 11.8229 17.6387 12.4108 17.6387 13.1035V13.6367H11.5479V12.5156H16.8662L16.1621 12.8848C16.1621 12.4154 16.0892 12.0029 15.9434 11.6475C15.7975 11.2874 15.5811 11.0072 15.2939 10.8066C15.0114 10.6061 14.6559 10.5059 14.2275 10.5059C13.8037 10.5059 13.4414 10.6084 13.1406 10.8135C12.8398 11.0186 12.6097 11.2897 12.4502 11.627C12.2952 11.9596 12.2178 12.3242 12.2178 12.7207V13.4863C12.2178 14.0104 12.3066 14.4548 12.4844 14.8193C12.6667 15.1794 12.9196 15.4528 13.2432 15.6396C13.5667 15.8219 13.9427 15.9131 14.3711 15.9131C14.6536 15.9131 14.9089 15.8743 15.1367 15.7969C15.3646 15.7148 15.5605 15.5941 15.7246 15.4346C15.8932 15.2705 16.0208 15.07 16.1074 14.833L17.5225 15.168C17.3994 15.5599 17.1921 15.9062 16.9004 16.207C16.6133 16.5078 16.2533 16.7425 15.8203 16.9111C15.3919 17.0752 14.9043 17.1572 14.3574 17.1572ZM20.7969 6.81445V17H19.293V6.81445H20.7969ZM26.1152 17.1572C25.3633 17.1572 24.7139 16.9954 24.167 16.6719C23.6201 16.3483 23.1986 15.8926 22.9023 15.3047C22.6107 14.7168 22.4648 14.0264 22.4648 13.2334C22.4648 12.4495 22.6084 11.7591 22.8955 11.1621C23.1872 10.5651 23.5973 10.1003 24.126 9.76758C24.6546 9.43034 25.2744 9.26172 25.9854 9.26172C26.4229 9.26172 26.8444 9.33464 27.25 9.48047C27.6556 9.62174 28.0202 9.84505 28.3438 10.1504C28.6673 10.4557 28.9225 10.8522 29.1094 11.3398C29.3008 11.8229 29.3965 12.4108 29.3965 13.1035V13.6367H23.3057V12.5156H28.624L27.9199 12.8848C27.9199 12.4154 27.847 12.0029 27.7012 11.6475C27.5553 11.2874 27.3389 11.0072 27.0518 10.8066C26.7692 10.6061 26.4137 10.5059 25.9854 10.5059C25.5615 10.5059 25.1992 10.6084 24.8984 10.8135C24.5977 11.0186 24.3675 11.2897 24.208 11.627C24.0531 11.9596 23.9756 12.3242 23.9756 12.7207V13.4863C23.9756 14.0104 24.0645 14.4548 24.2422 14.8193C24.4245 15.1794 24.6774 15.4528 25.001 15.6396C25.3245 15.8219 25.7005 15.9131 26.1289 15.9131C26.4115 15.9131 26.6667 15.8743 26.8945 15.7969C27.1224 15.7148 27.3184 15.5941 27.4824 15.4346C27.651 15.2705 27.7786 15.07 27.8652 14.833L29.2803 15.168C29.1572 15.5599 28.9499 15.9062 28.6582 16.207C28.3711 16.5078 28.0111 16.7425 27.5781 16.9111C27.1497 17.0752 26.6621 17.1572 26.1152 17.1572ZM34.2637 17.1572C33.5436 17.1572 32.917 16.9932 32.3838 16.665C31.8506 16.3369 31.4359 15.8766 31.1396 15.2842C30.8434 14.6917 30.6953 14.0036 30.6953 13.2197C30.6953 12.4268 30.8434 11.734 31.1396 11.1416C31.4359 10.5446 31.8506 10.082 32.3838 9.75391C32.917 9.42578 33.5436 9.26172 34.2637 9.26172C34.6602 9.26172 35.0316 9.31413 35.3779 9.41895C35.7243 9.51921 36.0365 9.66732 36.3145 9.86328C36.597 10.0547 36.834 10.2917 37.0254 10.5742C37.2214 10.8522 37.3672 11.1667 37.4629 11.5176L36.0342 11.8594C35.984 11.6634 35.9066 11.4857 35.8018 11.3262C35.6969 11.1621 35.5693 11.0208 35.4189 10.9023C35.2731 10.7839 35.1022 10.6927 34.9062 10.6289C34.7148 10.5651 34.5029 10.5332 34.2705 10.5332C33.8102 10.5332 33.4274 10.6562 33.1221 10.9023C32.8213 11.1439 32.5957 11.4674 32.4453 11.873C32.2995 12.2786 32.2266 12.7275 32.2266 13.2197C32.2266 13.7074 32.2995 14.154 32.4453 14.5596C32.5957 14.9606 32.8213 15.2819 33.1221 15.5234C33.4274 15.765 33.8102 15.8857 34.2705 15.8857C34.5075 15.8857 34.724 15.8538 34.9199 15.79C35.1159 15.7217 35.2913 15.6283 35.4463 15.5098C35.6012 15.3867 35.7311 15.2409 35.8359 15.0723C35.9408 14.8991 36.016 14.71 36.0615 14.5049L37.4834 14.8467C37.3923 15.2067 37.2487 15.5303 37.0527 15.8174C36.8568 16.0999 36.6175 16.3415 36.335 16.542C36.057 16.7425 35.7425 16.8952 35.3916 17C35.0407 17.1048 34.6647 17.1572 34.2637 17.1572ZM42.3984 9.35742V10.5811H38.2559V9.35742H42.3984ZM39.3701 7.53906H40.874V14.9355C40.874 15.2409 40.9378 15.4665 41.0654 15.6123C41.1976 15.7536 41.4118 15.8242 41.708 15.8242C41.7855 15.8242 41.888 15.8151 42.0156 15.7969C42.1432 15.7786 42.2526 15.7604 42.3438 15.7422L42.6104 16.9453C42.4508 17 42.2799 17.0387 42.0977 17.0615C41.9154 17.0889 41.7354 17.1025 41.5576 17.1025C40.8649 17.1025 40.3271 16.9248 39.9443 16.5693C39.5615 16.2093 39.3701 15.7057 39.3701 15.0586V7.53906ZM50.8477 17.1572C50.1276 17.1572 49.501 16.9932 48.9678 16.665C48.4346 16.3369 48.0199 15.8766 47.7236 15.2842C47.4274 14.6917 47.2793 14.0036 47.2793 13.2197C47.2793 12.4268 47.4274 11.734 47.7236 11.1416C48.0199 10.5446 48.4346 10.082 48.9678 9.75391C49.501 9.42578 50.1276 9.26172 50.8477 9.26172C51.2441 9.26172 51.6156 9.31413 51.9619 9.41895C52.3083 9.51921 52.6204 9.66732 52.8984 9.86328C53.181 10.0547 53.418 10.2917 53.6094 10.5742C53.8053 10.8522 53.9512 11.1667 54.0469 11.5176L52.6182 11.8594C52.568 11.6634 52.4906 11.4857 52.3857 11.3262C52.2809 11.1621 52.1533 11.0208 52.0029 10.9023C51.8571 10.7839 51.6862 10.6927 51.4902 10.6289C51.2988 10.5651 51.0869 10.5332 50.8545 10.5332C50.3942 10.5332 50.0114 10.6562 49.7061 10.9023C49.4053 11.1439 49.1797 11.4674 49.0293 11.873C48.8835 12.2786 48.8105 12.7275 48.8105 13.2197C48.8105 13.7074 48.8835 14.154 49.0293 14.5596C49.1797 14.9606 49.4053 15.2819 49.7061 15.5234C50.0114 15.765 50.3942 15.8857 50.8545 15.8857C51.0915 15.8857 51.3079 15.8538 51.5039 15.79C51.6999 15.7217 51.8753 15.6283 52.0303 15.5098C52.1852 15.3867 52.3151 15.2409 52.4199 15.0723C52.5247 14.8991 52.5999 14.71 52.6455 14.5049L54.0674 14.8467C53.9762 15.2067 53.8327 15.5303 53.6367 15.8174C53.4408 16.0999 53.2015 16.3415 52.9189 16.542C52.641 16.7425 52.3265 16.8952 51.9756 17C51.6247 17.1048 51.2487 17.1572 50.8477 17.1572ZM57.2188 6.81445V17H55.7148V6.81445H57.2188ZM62.4551 17.1572C61.7396 17.1572 61.113 16.9932 60.5752 16.665C60.042 16.3369 59.6273 15.8766 59.3311 15.2842C59.0348 14.6917 58.8867 14.0036 58.8867 13.2197C58.8867 12.4268 59.0348 11.734 59.3311 11.1416C59.6273 10.5446 60.042 10.082 60.5752 9.75391C61.113 9.42578 61.7396 9.26172 62.4551 9.26172C63.1751 9.26172 63.8018 9.42578 64.335 9.75391C64.8727 10.082 65.2897 10.5446 65.5859 11.1416C65.8822 11.734 66.0303 12.4268 66.0303 13.2197C66.0303 14.0036 65.8822 14.6917 65.5859 15.2842C65.2897 15.8766 64.8727 16.3369 64.335 16.665C63.8018 16.9932 63.1751 17.1572 62.4551 17.1572ZM62.4551 15.8857C62.9199 15.8857 63.3027 15.765 63.6035 15.5234C63.9089 15.2773 64.1344 14.9538 64.2803 14.5527C64.4307 14.1471 64.5059 13.7028 64.5059 13.2197C64.5059 12.7321 64.4307 12.2855 64.2803 11.8799C64.1344 11.4697 63.9089 11.1439 63.6035 10.9023C63.3027 10.6562 62.9199 10.5332 62.4551 10.5332C61.9948 10.5332 61.6143 10.6562 61.3135 10.9023C61.0127 11.1439 60.7871 11.4674 60.6367 11.873C60.4909 12.2786 60.418 12.7275 60.418 13.2197C60.418 13.7028 60.4909 14.1471 60.6367 14.5527C60.7871 14.9538 61.0127 15.2773 61.3135 15.5234C61.6143 15.765 61.9948 15.8857 62.4551 15.8857ZM70.3096 17.0957C69.79 17.0957 69.3343 16.9863 68.9424 16.7676C68.5505 16.5488 68.2451 16.2253 68.0264 15.7969C67.8122 15.3685 67.7051 14.8398 67.7051 14.2109V9.35742H69.209V14.0264C69.209 14.5778 69.3525 15.0085 69.6396 15.3184C69.9313 15.6283 70.3255 15.7832 70.8223 15.7832C71.1641 15.7832 71.4671 15.7103 71.7314 15.5645C72.0003 15.4141 72.2122 15.1976 72.3672 14.915C72.5221 14.6279 72.5996 14.2839 72.5996 13.8828V9.35742H74.1035V17H72.668L72.6611 15.127H72.8047C72.5814 15.8197 72.2555 16.321 71.8271 16.6309C71.3988 16.9408 70.8929 17.0957 70.3096 17.0957ZM78.9707 17.1504C78.3509 17.1504 77.7995 16.9932 77.3164 16.6787C76.8333 16.3597 76.4551 15.9062 76.1816 15.3184C75.9082 14.7259 75.7715 14.0195 75.7715 13.1992C75.7715 12.3698 75.9105 11.6611 76.1885 11.0732C76.4665 10.4854 76.847 10.0365 77.3301 9.72656C77.8132 9.41667 78.36 9.26172 78.9707 9.26172C79.4447 9.26172 79.8252 9.34147 80.1123 9.50098C80.404 9.65592 80.6318 9.83822 80.7959 10.0479C80.96 10.2575 81.0853 10.4421 81.1719 10.6016H81.2539V6.81445H82.7578V17H81.2949V15.8037H81.1719C81.0853 15.9678 80.9577 16.1546 80.7891 16.3643C80.6204 16.5739 80.3903 16.7585 80.0986 16.918C79.807 17.0729 79.431 17.1504 78.9707 17.1504ZM79.2988 15.8721C79.7272 15.8721 80.0872 15.7581 80.3789 15.5303C80.6751 15.3024 80.8984 14.988 81.0488 14.5869C81.2038 14.1813 81.2812 13.7142 81.2812 13.1855C81.2812 12.6523 81.2061 12.1898 81.0557 11.7979C80.9053 11.4014 80.682 11.0938 80.3857 10.875C80.0941 10.6517 79.7318 10.54 79.2988 10.54C78.8568 10.54 78.4876 10.6562 78.1914 10.8887C77.8997 11.1211 77.6787 11.4378 77.5283 11.8389C77.3825 12.2354 77.3096 12.6842 77.3096 13.1855C77.3096 13.6914 77.3848 14.1471 77.5352 14.5527C77.6855 14.9583 77.9089 15.2796 78.2051 15.5166C78.5013 15.7536 78.8659 15.8721 79.2988 15.8721ZM88.5137 19.8574V9.35742H89.9766V10.6016H90.0996C90.1908 10.4421 90.3161 10.2575 90.4756 10.0479C90.6396 9.83822 90.8652 9.65592 91.1523 9.50098C91.444 9.34147 91.8291 9.26172 92.3076 9.26172C92.9183 9.26172 93.4629 9.41667 93.9414 9.72656C94.4245 10.0365 94.805 10.4854 95.083 11.0732C95.361 11.6611 95.5 12.3698 95.5 13.1992C95.5 14.0195 95.3633 14.7259 95.0898 15.3184C94.8164 15.9062 94.4382 16.3597 93.9551 16.6787C93.4766 16.9932 92.9274 17.1504 92.3076 17.1504C91.8473 17.1504 91.4691 17.0729 91.1729 16.918C90.8812 16.7585 90.651 16.5739 90.4824 16.3643C90.3184 16.1546 90.1908 15.9678 90.0996 15.8037H90.0176V19.8574H88.5137ZM91.9727 15.8721C92.4102 15.8721 92.777 15.7536 93.0732 15.5166C93.3695 15.2796 93.5905 14.9583 93.7363 14.5527C93.8867 14.1471 93.9619 13.6914 93.9619 13.1855C93.9619 12.6842 93.8867 12.2354 93.7363 11.8389C93.5905 11.4378 93.3695 11.1211 93.0732 10.8887C92.7816 10.6562 92.4147 10.54 91.9727 10.54C91.5443 10.54 91.182 10.6517 90.8857 10.875C90.5895 11.0938 90.3662 11.4014 90.2158 11.7979C90.0654 12.1898 89.9902 12.6523 89.9902 13.1855C89.9902 13.7142 90.0654 14.1813 90.2158 14.5869C90.3708 14.988 90.5964 15.3024 90.8926 15.5303C91.1888 15.7581 91.5488 15.8721 91.9727 15.8721ZM97.168 17V9.35742H98.624V10.5879H98.7061C98.8473 10.1686 99.0934 9.84049 99.4443 9.60352C99.7952 9.36654 100.194 9.24805 100.641 9.24805C100.736 9.24805 100.846 9.2526 100.969 9.26172C101.092 9.26628 101.194 9.27539 101.276 9.28906V10.7246C101.222 10.7064 101.117 10.6882 100.962 10.6699C100.807 10.6517 100.65 10.6426 100.49 10.6426C100.144 10.6426 99.8317 10.7155 99.5537 10.8613C99.2757 11.0072 99.0592 11.21 98.9043 11.4697C98.7493 11.7249 98.6719 12.0212 98.6719 12.3584V17H97.168ZM105.521 17.1572C104.806 17.1572 104.179 16.9932 103.642 16.665C103.108 16.3369 102.694 15.8766 102.397 15.2842C102.101 14.6917 101.953 14.0036 101.953 13.2197C101.953 12.4268 102.101 11.734 102.397 11.1416C102.694 10.5446 103.108 10.082 103.642 9.75391C104.179 9.42578 104.806 9.26172 105.521 9.26172C106.242 9.26172 106.868 9.42578 107.401 9.75391C107.939 10.082 108.356 10.5446 108.652 11.1416C108.949 11.734 109.097 12.4268 109.097 13.2197C109.097 14.0036 108.949 14.6917 108.652 15.2842C108.356 15.8766 107.939 16.3369 107.401 16.665C106.868 16.9932 106.242 17.1572 105.521 17.1572ZM105.521 15.8857C105.986 15.8857 106.369 15.765 106.67 15.5234C106.975 15.2773 107.201 14.9538 107.347 14.5527C107.497 14.1471 107.572 13.7028 107.572 13.2197C107.572 12.7321 107.497 12.2855 107.347 11.8799C107.201 11.4697 106.975 11.1439 106.67 10.9023C106.369 10.6562 105.986 10.5332 105.521 10.5332C105.061 10.5332 104.681 10.6562 104.38 10.9023C104.079 11.1439 103.854 11.4674 103.703 11.873C103.557 12.2786 103.484 12.7275 103.484 13.2197C103.484 13.7028 103.557 14.1471 103.703 14.5527C103.854 14.9538 104.079 15.2773 104.38 15.5234C104.681 15.765 105.061 15.8857 105.521 15.8857ZM112.699 17L109.814 9.35742H111.441L112.952 13.6982C113.121 14.1768 113.264 14.6576 113.383 15.1406C113.501 15.6191 113.627 16.0954 113.759 16.5693H113.308C113.435 16.0954 113.558 15.6191 113.677 15.1406C113.795 14.6576 113.937 14.1768 114.101 13.6982L115.611 9.35742H117.225L114.34 17H112.699ZM118.564 17V9.35742H120.068V17H118.564ZM119.323 8.18848C119.063 8.18848 118.84 8.10189 118.653 7.92871C118.471 7.75553 118.38 7.5459 118.38 7.2998C118.38 7.04915 118.471 6.83724 118.653 6.66406C118.84 6.49089 119.063 6.4043 119.323 6.4043C119.583 6.4043 119.806 6.49089 119.993 6.66406C120.18 6.83724 120.273 7.04915 120.273 7.2998C120.273 7.5459 120.18 7.75553 119.993 7.92871C119.806 8.10189 119.583 8.18848 119.323 8.18848ZM124.936 17.1504C124.316 17.1504 123.764 16.9932 123.281 16.6787C122.798 16.3597 122.42 15.9062 122.146 15.3184C121.873 14.7259 121.736 14.0195 121.736 13.1992C121.736 12.3698 121.875 11.6611 122.153 11.0732C122.431 10.4854 122.812 10.0365 123.295 9.72656C123.778 9.41667 124.325 9.26172 124.936 9.26172C125.41 9.26172 125.79 9.34147 126.077 9.50098C126.369 9.65592 126.597 9.83822 126.761 10.0479C126.925 10.2575 127.05 10.4421 127.137 10.6016H127.219V6.81445H128.723V17H127.26V15.8037H127.137C127.05 15.9678 126.923 16.1546 126.754 16.3643C126.585 16.5739 126.355 16.7585 126.063 16.918C125.772 17.0729 125.396 17.1504 124.936 17.1504ZM125.264 15.8721C125.692 15.8721 126.052 15.7581 126.344 15.5303C126.64 15.3024 126.863 14.988 127.014 14.5869C127.169 14.1813 127.246 13.7142 127.246 13.1855C127.246 12.6523 127.171 12.1898 127.021 11.7979C126.87 11.4014 126.647 11.0938 126.351 10.875C126.059 10.6517 125.697 10.54 125.264 10.54C124.822 10.54 124.452 10.6562 124.156 10.8887C123.865 11.1211 123.644 11.4378 123.493 11.8389C123.347 12.2354 123.274 12.6842 123.274 13.1855C123.274 13.6914 123.35 14.1471 123.5 14.5527C123.65 14.9583 123.874 15.2796 124.17 15.5166C124.466 15.7536 124.831 15.8721 125.264 15.8721ZM134.041 17.1572C133.289 17.1572 132.64 16.9954 132.093 16.6719C131.546 16.3483 131.124 15.8926 130.828 15.3047C130.536 14.7168 130.391 14.0264 130.391 13.2334C130.391 12.4495 130.534 11.7591 130.821 11.1621C131.113 10.5651 131.523 10.1003 132.052 9.76758C132.58 9.43034 133.2 9.26172 133.911 9.26172C134.349 9.26172 134.77 9.33464 135.176 9.48047C135.581 9.62174 135.946 9.84505 136.27 10.1504C136.593 10.4557 136.848 10.8522 137.035 11.3398C137.227 11.8229 137.322 12.4108 137.322 13.1035V13.6367H131.231V12.5156H136.55L135.846 12.8848C135.846 12.4154 135.773 12.0029 135.627 11.6475C135.481 11.2874 135.265 11.0072 134.978 10.8066C134.695 10.6061 134.34 10.5059 133.911 10.5059C133.487 10.5059 133.125 10.6084 132.824 10.8135C132.523 11.0186 132.293 11.2897 132.134 11.627C131.979 11.9596 131.901 12.3242 131.901 12.7207V13.4863C131.901 14.0104 131.99 14.4548 132.168 14.8193C132.35 15.1794 132.603 15.4528 132.927 15.6396C133.25 15.8219 133.626 15.9131 134.055 15.9131C134.337 15.9131 134.592 15.8743 134.82 15.7969C135.048 15.7148 135.244 15.5941 135.408 15.4346C135.577 15.2705 135.704 15.07 135.791 14.833L137.206 15.168C137.083 15.5599 136.876 15.9062 136.584 16.207C136.297 16.5078 135.937 16.7425 135.504 16.9111C135.076 17.0752 134.588 17.1572 134.041 17.1572ZM138.977 17V9.35742H140.433V10.5879H140.515C140.656 10.1686 140.902 9.84049 141.253 9.60352C141.604 9.36654 142.003 9.24805 142.449 9.24805C142.545 9.24805 142.654 9.2526 142.777 9.26172C142.9 9.26628 143.003 9.27539 143.085 9.28906V10.7246C143.03 10.7064 142.925 10.6882 142.771 10.6699C142.616 10.6517 142.458 10.6426 142.299 10.6426C141.952 10.6426 141.64 10.7155 141.362 10.8613C141.084 11.0072 140.868 11.21 140.713 11.4697C140.558 11.7249 140.48 12.0212 140.48 12.3584V17H138.977Z" fill="#111827"/>
<g clip-path="url(#clip0_2076_35731)">
<rect x="1" y="28" width="517" height="36" rx="4" fill="white"/>
<path d="M507 43.5L502 48.5L497 43.5" stroke="#111827" stroke-linecap="round" stroke-linejoin="round"/>
</g>
<rect x="1" y="28" width="517" height="36" rx="4" stroke="#E4E4E7"/>
<rect x="1.5" y="96.5" width="130" height="103" rx="3.5" fill="white"/>
<rect x="1.5" y="96.5" width="130" height="103" rx="3.5" stroke="#E4E4E7"/>
<path fill-rule="evenodd" clip-rule="evenodd" d="M66.5 148C75.3366 148 82.5 140.837 82.5 132C82.5 123.163 75.3366 116 66.5 116C57.6661 116 50.5043 123.159 50.5 131.992H56.5879C56.5922 126.521 61.0283 122.088 66.5 122.088C71.9743 122.088 76.4121 126.526 76.4121 132C76.4121 137.474 71.9743 141.912 66.5 141.912L66.4807 141.912V148L66.5 148ZM66.4805 135.605H60.2933V141.793H66.4805V135.605ZM60.2933 141.813H55.5389V137.837H51.5631V141.813H55.5387V146.567H60.2933V141.813Z" fill="#111827"/>
<path d="M25.4365 175H22.9209V173.633H25.3545C26.1247 173.633 26.765 173.489 27.2754 173.202C27.7858 172.915 28.1686 172.493 28.4238 171.938C28.679 171.377 28.8066 170.696 28.8066 169.894C28.8066 169.096 28.679 168.422 28.4238 167.87C28.1732 167.319 27.7972 166.899 27.2959 166.612C26.7992 166.325 26.1794 166.182 25.4365 166.182H22.8662V164.814H25.5391C26.5417 164.814 27.4007 165.017 28.1162 165.423C28.8317 165.828 29.3809 166.412 29.7637 167.173C30.1465 167.929 30.3379 168.836 30.3379 169.894C30.3379 170.955 30.1442 171.867 29.7568 172.628C29.374 173.389 28.8158 173.975 28.082 174.385C27.3529 174.795 26.471 175 25.4365 175ZM23.6865 164.814V175H22.1279V164.814H23.6865ZM32.1152 175V167.357H33.6191V175H32.1152ZM32.874 166.188C32.6143 166.188 32.391 166.102 32.2041 165.929C32.0218 165.756 31.9307 165.546 31.9307 165.3C31.9307 165.049 32.0218 164.837 32.2041 164.664C32.391 164.491 32.6143 164.404 32.874 164.404C33.1338 164.404 33.3571 164.491 33.5439 164.664C33.7308 164.837 33.8242 165.049 33.8242 165.3C33.8242 165.546 33.7308 165.756 33.5439 165.929C33.3571 166.102 33.1338 166.188 32.874 166.188ZM38.835 178.021C38.2471 178.021 37.7367 177.946 37.3037 177.796C36.8708 177.646 36.513 177.445 36.2305 177.194C35.9525 176.944 35.7406 176.666 35.5947 176.36L36.8525 175.766C36.9437 175.911 37.0645 176.064 37.2148 176.224C37.3698 176.388 37.5771 176.527 37.8369 176.641C38.0967 176.755 38.4294 176.812 38.835 176.812C39.4183 176.812 39.89 176.673 40.25 176.395C40.6146 176.121 40.7969 175.69 40.7969 175.103V173.612H40.667C40.5758 173.781 40.4482 173.963 40.2842 174.159C40.1247 174.355 39.8991 174.526 39.6074 174.672C39.3203 174.813 38.9443 174.884 38.4795 174.884C37.8779 174.884 37.3356 174.743 36.8525 174.46C36.374 174.177 35.9935 173.758 35.7109 173.202C35.4284 172.646 35.2871 171.963 35.2871 171.151C35.2871 170.34 35.4261 169.645 35.7041 169.066C35.9867 168.483 36.3695 168.036 36.8525 167.727C37.3402 167.417 37.8893 167.262 38.5 167.262C38.9694 167.262 39.3499 167.339 39.6416 167.494C39.9378 167.649 40.168 167.834 40.332 168.048C40.5007 168.257 40.6283 168.442 40.7148 168.602H40.8242V167.357H42.2939V175.109C42.2939 175.779 42.1413 176.328 41.8359 176.757C41.5352 177.19 41.1227 177.509 40.5986 177.714C40.0791 177.919 39.4912 178.021 38.835 178.021ZM38.8281 173.633C39.2565 173.633 39.6165 173.535 39.9082 173.339C40.2044 173.138 40.4277 172.851 40.5781 172.478C40.7285 172.099 40.8037 171.65 40.8037 171.131C40.8037 170.616 40.7285 170.165 40.5781 169.777C40.4277 169.39 40.2044 169.087 39.9082 168.868C39.6165 168.649 39.2565 168.54 38.8281 168.54C38.3861 168.54 38.0169 168.656 37.7207 168.889C37.4245 169.117 37.2012 169.426 37.0508 169.818C36.9004 170.206 36.8252 170.643 36.8252 171.131C36.8252 171.628 36.9004 172.065 37.0508 172.443C37.2012 172.817 37.4245 173.109 37.7207 173.318C38.0215 173.528 38.3906 173.633 38.8281 173.633ZM44.3242 175V167.357H45.8281V175H44.3242ZM45.083 166.188C44.8232 166.188 44.5999 166.102 44.4131 165.929C44.2308 165.756 44.1396 165.546 44.1396 165.3C44.1396 165.049 44.2308 164.837 44.4131 164.664C44.5999 164.491 44.8232 164.404 45.083 164.404C45.3428 164.404 45.5661 164.491 45.7529 164.664C45.9398 164.837 46.0332 165.049 46.0332 165.3C46.0332 165.546 45.9398 165.756 45.7529 165.929C45.5661 166.102 45.3428 166.188 45.083 166.188ZM51.1191 167.357V168.581H46.9766V167.357H51.1191ZM48.0908 165.539H49.5947V172.936C49.5947 173.241 49.6585 173.466 49.7861 173.612C49.9183 173.754 50.1325 173.824 50.4287 173.824C50.5062 173.824 50.6087 173.815 50.7363 173.797C50.8639 173.779 50.9733 173.76 51.0645 173.742L51.3311 174.945C51.1715 175 51.0007 175.039 50.8184 175.062C50.6361 175.089 50.4561 175.103 50.2783 175.103C49.5856 175.103 49.0479 174.925 48.665 174.569C48.2822 174.209 48.0908 173.706 48.0908 173.059V165.539ZM55.3232 175.15C54.708 175.15 54.1589 174.993 53.6758 174.679C53.1973 174.36 52.819 173.906 52.541 173.318C52.2676 172.726 52.1309 172.02 52.1309 171.199C52.1309 170.37 52.2699 169.661 52.5479 169.073C52.8304 168.485 53.2132 168.036 53.6963 167.727C54.1839 167.417 54.7331 167.262 55.3438 167.262C55.8132 167.262 56.1914 167.339 56.4785 167.494C56.7702 167.649 56.9958 167.834 57.1553 168.048C57.3193 168.257 57.4447 168.442 57.5312 168.602H57.627V167.357H59.1172V175H57.6338V173.804H57.5312C57.4447 173.968 57.3171 174.157 57.1484 174.371C56.9798 174.581 56.7497 174.763 56.458 174.918C56.1663 175.073 55.7881 175.15 55.3232 175.15ZM55.6719 173.872C56.1003 173.872 56.4603 173.758 56.752 173.53C57.0482 173.302 57.2715 172.988 57.4219 172.587C57.5723 172.181 57.6475 171.714 57.6475 171.186C57.6475 170.652 57.5723 170.19 57.4219 169.798C57.2715 169.401 57.0482 169.094 56.752 168.875C56.4603 168.652 56.1003 168.54 55.6719 168.54C55.2298 168.54 54.8607 168.656 54.5645 168.889C54.2682 169.117 54.0449 169.431 53.8945 169.832C53.7441 170.229 53.6689 170.68 53.6689 171.186C53.6689 171.691 53.7441 172.147 53.8945 172.553C54.0449 172.958 54.2682 173.28 54.5645 173.517C54.8652 173.754 55.2344 173.872 55.6719 173.872ZM62.6445 164.814V175H61.1406V164.814H62.6445ZM72.7617 175.137C71.8822 175.137 71.0938 174.929 70.3965 174.515C69.7038 174.095 69.1569 173.496 68.7559 172.717C68.3594 171.933 68.1611 170.999 68.1611 169.914C68.1611 168.825 68.3594 167.891 68.7559 167.111C69.1569 166.327 69.7038 165.726 70.3965 165.307C71.0938 164.887 71.8822 164.678 72.7617 164.678C73.6413 164.678 74.4251 164.887 75.1133 165.307C75.806 165.726 76.3506 166.327 76.7471 167.111C77.1481 167.891 77.3486 168.825 77.3486 169.914C77.3486 170.999 77.1481 171.933 76.7471 172.717C76.3506 173.496 75.806 174.095 75.1133 174.515C74.4251 174.929 73.6413 175.137 72.7617 175.137ZM72.7617 173.715C73.3405 173.715 73.8577 173.571 74.3135 173.284C74.7738 172.993 75.1361 172.564 75.4004 171.999C75.6693 171.429 75.8037 170.734 75.8037 169.914C75.8037 169.085 75.6693 168.387 75.4004 167.822C75.1361 167.253 74.7738 166.824 74.3135 166.537C73.8577 166.245 73.3405 166.1 72.7617 166.1C72.1784 166.1 71.6566 166.245 71.1963 166.537C70.736 166.829 70.3714 167.259 70.1025 167.829C69.8382 168.394 69.7061 169.089 69.7061 169.914C69.7061 170.734 69.8382 171.427 70.1025 171.992C70.3714 172.557 70.736 172.986 71.1963 173.277C71.6566 173.569 72.1784 173.715 72.7617 173.715ZM82.3457 175.157C81.6257 175.157 80.999 174.993 80.4658 174.665C79.9326 174.337 79.5179 173.877 79.2217 173.284C78.9255 172.692 78.7773 172.004 78.7773 171.22C78.7773 170.427 78.9255 169.734 79.2217 169.142C79.5179 168.545 79.9326 168.082 80.4658 167.754C80.999 167.426 81.6257 167.262 82.3457 167.262C82.7422 167.262 83.1136 167.314 83.46 167.419C83.8063 167.519 84.1185 167.667 84.3965 167.863C84.679 168.055 84.916 168.292 85.1074 168.574C85.3034 168.852 85.4492 169.167 85.5449 169.518L84.1162 169.859C84.0661 169.663 83.9886 169.486 83.8838 169.326C83.779 169.162 83.6514 169.021 83.501 168.902C83.3551 168.784 83.1842 168.693 82.9883 168.629C82.7969 168.565 82.585 168.533 82.3525 168.533C81.8923 168.533 81.5094 168.656 81.2041 168.902C80.9033 169.144 80.6777 169.467 80.5273 169.873C80.3815 170.279 80.3086 170.728 80.3086 171.22C80.3086 171.707 80.3815 172.154 80.5273 172.56C80.6777 172.961 80.9033 173.282 81.2041 173.523C81.5094 173.765 81.8923 173.886 82.3525 173.886C82.5895 173.886 82.806 173.854 83.002 173.79C83.1979 173.722 83.3734 173.628 83.5283 173.51C83.6833 173.387 83.8132 173.241 83.918 173.072C84.0228 172.899 84.098 172.71 84.1436 172.505L85.5654 172.847C85.4743 173.207 85.3307 173.53 85.1348 173.817C84.9388 174.1 84.6995 174.341 84.417 174.542C84.139 174.743 83.8245 174.895 83.4736 175C83.1227 175.105 82.7467 175.157 82.3457 175.157ZM90.5078 175.157C89.7559 175.157 89.1064 174.995 88.5596 174.672C88.0127 174.348 87.5911 173.893 87.2949 173.305C87.0033 172.717 86.8574 172.026 86.8574 171.233C86.8574 170.45 87.001 169.759 87.2881 169.162C87.5798 168.565 87.9899 168.1 88.5186 167.768C89.0472 167.43 89.667 167.262 90.3779 167.262C90.8154 167.262 91.237 167.335 91.6426 167.48C92.0482 167.622 92.4128 167.845 92.7363 168.15C93.0599 168.456 93.3151 168.852 93.502 169.34C93.6934 169.823 93.7891 170.411 93.7891 171.104V171.637H87.6982V170.516H93.0166L92.3125 170.885C92.3125 170.415 92.2396 170.003 92.0938 169.647C91.9479 169.287 91.7314 169.007 91.4443 168.807C91.1618 168.606 90.8063 168.506 90.3779 168.506C89.9541 168.506 89.5918 168.608 89.291 168.813C88.9902 169.019 88.7601 169.29 88.6006 169.627C88.4456 169.96 88.3682 170.324 88.3682 170.721V171.486C88.3682 172.01 88.457 172.455 88.6348 172.819C88.8171 173.179 89.07 173.453 89.3936 173.64C89.7171 173.822 90.0931 173.913 90.5215 173.913C90.804 173.913 91.0592 173.874 91.2871 173.797C91.515 173.715 91.7109 173.594 91.875 173.435C92.0436 173.271 92.1712 173.07 92.2578 172.833L93.6729 173.168C93.5498 173.56 93.3424 173.906 93.0508 174.207C92.7637 174.508 92.4036 174.743 91.9707 174.911C91.5423 175.075 91.0547 175.157 90.5078 175.157ZM98.2803 175.15C97.665 175.15 97.1159 174.993 96.6328 174.679C96.1543 174.36 95.776 173.906 95.498 173.318C95.2246 172.726 95.0879 172.02 95.0879 171.199C95.0879 170.37 95.2269 169.661 95.5049 169.073C95.7874 168.485 96.1702 168.036 96.6533 167.727C97.141 167.417 97.6901 167.262 98.3008 167.262C98.7702 167.262 99.1484 167.339 99.4355 167.494C99.7272 167.649 99.9528 167.834 100.112 168.048C100.276 168.257 100.402 168.442 100.488 168.602H100.584V167.357H102.074V175H100.591V173.804H100.488C100.402 173.968 100.274 174.157 100.105 174.371C99.9368 174.581 99.7067 174.763 99.415 174.918C99.1234 175.073 98.7451 175.15 98.2803 175.15ZM98.6289 173.872C99.0573 173.872 99.4173 173.758 99.709 173.53C100.005 173.302 100.229 172.988 100.379 172.587C100.529 172.181 100.604 171.714 100.604 171.186C100.604 170.652 100.529 170.19 100.379 169.798C100.229 169.401 100.005 169.094 99.709 168.875C99.4173 168.652 99.0573 168.54 98.6289 168.54C98.1868 168.54 97.8177 168.656 97.5215 168.889C97.2253 169.117 97.002 169.431 96.8516 169.832C96.7012 170.229 96.626 170.68 96.626 171.186C96.626 171.691 96.7012 172.147 96.8516 172.553C97.002 172.958 97.2253 173.28 97.5215 173.517C97.8223 173.754 98.1914 173.872 98.6289 173.872ZM105.602 170.475V175H104.098V167.357H105.533L105.547 169.23H105.39C105.613 168.547 105.937 168.048 106.36 167.733C106.784 167.419 107.297 167.262 107.898 167.262C108.418 167.262 108.871 167.371 109.259 167.59C109.646 167.809 109.949 168.132 110.168 168.561C110.387 168.984 110.496 169.513 110.496 170.146V175H108.992V170.331C108.992 169.78 108.849 169.349 108.562 169.039C108.274 168.729 107.88 168.574 107.379 168.574C107.042 168.574 106.739 168.649 106.47 168.8C106.201 168.946 105.989 169.16 105.834 169.442C105.679 169.725 105.602 170.069 105.602 170.475Z" fill="#111827"/>
<rect x="164.5" y="96.5" width="191" height="103" rx="3.5" fill="white"/>
<rect x="164.5" y="96.5" width="191" height="103" rx="3.5" stroke="#E4E4E7"/>
<path fill-rule="evenodd" clip-rule="evenodd" d="M253.018 129.382C253.018 129.776 253.061 130.095 253.135 130.329C253.22 130.563 253.327 130.819 253.476 131.095C253.529 131.181 253.55 131.266 253.55 131.34C253.55 131.447 253.486 131.553 253.348 131.659L252.677 132.106C252.582 132.17 252.486 132.202 252.401 132.202C252.294 132.202 252.188 132.149 252.081 132.053C251.932 131.894 251.805 131.723 251.698 131.553C251.592 131.372 251.485 131.17 251.368 130.925C250.538 131.904 249.495 132.394 248.239 132.394C247.345 132.394 246.632 132.138 246.111 131.628C245.589 131.117 245.323 130.436 245.323 129.584C245.323 128.679 245.643 127.945 246.292 127.392C246.941 126.838 247.803 126.562 248.899 126.562C249.261 126.562 249.634 126.593 250.027 126.647C250.421 126.7 250.826 126.785 251.251 126.881V126.104C251.251 125.295 251.081 124.731 250.751 124.401C250.411 124.071 249.836 123.911 249.016 123.911C248.644 123.911 248.261 123.954 247.867 124.05C247.473 124.146 247.09 124.263 246.717 124.412C246.547 124.486 246.419 124.529 246.345 124.55C246.27 124.571 246.217 124.582 246.175 124.582C246.026 124.582 245.951 124.476 245.951 124.252V123.731C245.951 123.56 245.972 123.433 246.026 123.358C246.079 123.284 246.175 123.209 246.324 123.135C246.696 122.943 247.143 122.783 247.665 122.656C248.186 122.517 248.74 122.453 249.325 122.453C250.591 122.453 251.517 122.741 252.113 123.315C252.699 123.89 252.997 124.763 252.997 125.934V129.382H253.018ZM248.697 131C249.048 131 249.41 130.936 249.793 130.808C250.176 130.68 250.517 130.446 250.804 130.127C250.975 129.925 251.102 129.701 251.166 129.446C251.23 129.19 251.273 128.882 251.273 128.52V128.073C250.964 127.998 250.634 127.934 250.293 127.892C249.953 127.849 249.623 127.828 249.293 127.828C248.58 127.828 248.058 127.966 247.707 128.254C247.356 128.541 247.186 128.946 247.186 129.478C247.186 129.978 247.313 130.35 247.58 130.606C247.835 130.872 248.207 131 248.697 131ZM257.243 132.149C257.052 132.149 256.924 132.117 256.839 132.043C256.754 131.979 256.679 131.83 256.615 131.628L254.114 123.401C254.05 123.188 254.018 123.049 254.018 122.975C254.018 122.805 254.104 122.709 254.274 122.709H255.317C255.519 122.709 255.657 122.741 255.732 122.815C255.817 122.879 255.881 123.028 255.945 123.23L257.733 130.276L259.393 123.23C259.446 123.017 259.51 122.879 259.595 122.815C259.68 122.751 259.829 122.709 260.021 122.709H260.872C261.075 122.709 261.213 122.741 261.298 122.815C261.383 122.879 261.458 123.028 261.5 123.23L263.182 130.361L265.023 123.23C265.087 123.017 265.162 122.879 265.236 122.815C265.321 122.751 265.46 122.709 265.651 122.709H266.641C266.811 122.709 266.907 122.794 266.907 122.975C266.907 123.02 266.899 123.066 266.89 123.118L266.886 123.145C266.875 123.209 266.854 123.294 266.811 123.411L264.246 131.638C264.182 131.851 264.108 131.989 264.023 132.053C263.938 132.117 263.799 132.16 263.618 132.16H262.703C262.501 132.16 262.362 132.128 262.277 132.053C262.192 131.979 262.118 131.84 262.075 131.628L260.425 124.763L258.786 131.617C258.733 131.83 258.669 131.968 258.584 132.043C258.499 132.117 258.35 132.149 258.159 132.149H257.243ZM270.919 132.436C270.366 132.436 269.812 132.373 269.28 132.245C268.748 132.117 268.333 131.979 268.056 131.819C267.886 131.723 267.769 131.617 267.726 131.521C267.684 131.425 267.663 131.319 267.663 131.223V130.68C267.663 130.457 267.748 130.35 267.907 130.35C267.971 130.35 268.035 130.361 268.099 130.382C268.14 130.396 268.195 130.419 268.257 130.444L268.257 130.445C268.291 130.459 268.327 130.474 268.365 130.489C268.727 130.648 269.121 130.776 269.536 130.861C269.961 130.946 270.377 130.989 270.802 130.989C271.473 130.989 271.994 130.872 272.356 130.638C272.718 130.404 272.91 130.063 272.91 129.627C272.91 129.329 272.814 129.084 272.622 128.882C272.431 128.679 272.069 128.499 271.547 128.328L270.004 127.849C269.227 127.605 268.652 127.243 268.301 126.764C267.95 126.295 267.769 125.774 267.769 125.221C267.769 124.774 267.865 124.38 268.056 124.039C268.248 123.699 268.503 123.401 268.823 123.166C269.142 122.922 269.504 122.741 269.93 122.613C270.355 122.485 270.802 122.432 271.271 122.432C271.505 122.432 271.749 122.443 271.984 122.475C272.228 122.507 272.452 122.549 272.675 122.592C272.888 122.645 273.09 122.698 273.282 122.762C273.474 122.826 273.623 122.89 273.729 122.954C273.878 123.039 273.984 123.124 274.048 123.22C274.112 123.305 274.144 123.422 274.144 123.571V124.071C274.144 124.295 274.059 124.412 273.899 124.412C273.814 124.412 273.676 124.369 273.495 124.284C272.888 124.007 272.207 123.869 271.451 123.869C270.845 123.869 270.366 123.965 270.036 124.167C269.706 124.369 269.536 124.678 269.536 125.114C269.536 125.412 269.642 125.668 269.855 125.87C270.068 126.072 270.462 126.274 271.026 126.455L272.537 126.934C273.303 127.179 273.857 127.519 274.187 127.956C274.517 128.392 274.676 128.892 274.676 129.446C274.676 129.903 274.58 130.318 274.4 130.68C274.208 131.042 273.953 131.361 273.623 131.617C273.293 131.883 272.899 132.075 272.441 132.213C271.962 132.362 271.462 132.436 270.919 132.436ZM272.931 137.609C269.429 140.195 264.342 141.568 259.968 141.568C253.837 141.568 248.314 139.301 244.142 135.533C243.812 135.235 244.11 134.831 244.504 135.065C249.016 137.683 254.582 139.269 260.34 139.269C264.225 139.269 268.493 138.46 272.42 136.8C273.005 136.534 273.505 137.183 272.931 137.609ZM270.291 135.81C271.43 135.672 273.942 135.374 274.389 135.948C274.836 136.513 273.889 138.886 273.463 139.94C273.335 140.259 273.612 140.387 273.899 140.142C275.772 138.567 276.262 135.278 275.879 134.799C275.496 134.331 272.207 133.926 270.206 135.331C269.897 135.555 269.951 135.853 270.291 135.81Z" fill="#111827"/>
<path d="M184.349 175L187.972 164.814H189.886L193.577 175H191.889L189.906 169.333C189.751 168.873 189.58 168.33 189.394 167.706C189.211 167.082 188.999 166.332 188.758 165.457H189.072C188.84 166.341 188.63 167.1 188.443 167.733C188.261 168.362 188.099 168.896 187.958 169.333L186.037 175H184.349ZM186.311 172.313V171.015H191.608V172.313H186.311ZM194.938 175V167.357H196.366L196.407 169.128H196.291C196.4 168.695 196.569 168.34 196.797 168.062C197.025 167.784 197.291 167.576 197.597 167.439C197.902 167.298 198.221 167.228 198.554 167.228C199.11 167.228 199.559 167.401 199.9 167.747C200.242 168.089 200.472 168.567 200.591 169.183H200.399C200.5 168.763 200.673 168.408 200.919 168.116C201.165 167.825 201.461 167.604 201.808 167.453C202.159 167.303 202.532 167.228 202.929 167.228C203.38 167.228 203.788 167.326 204.152 167.521C204.521 167.717 204.813 168.009 205.027 168.396C205.242 168.784 205.349 169.267 205.349 169.846V175H203.838V169.996C203.838 169.486 203.697 169.117 203.414 168.889C203.132 168.661 202.797 168.547 202.409 168.547C202.095 168.547 201.824 168.613 201.596 168.745C201.368 168.877 201.192 169.062 201.069 169.299C200.946 169.531 200.885 169.8 200.885 170.105V175H199.401V169.9C199.401 169.49 199.269 169.162 199.005 168.916C198.745 168.67 198.412 168.547 198.007 168.547C197.729 168.547 197.469 168.613 197.228 168.745C196.991 168.873 196.799 169.064 196.653 169.319C196.512 169.57 196.441 169.88 196.441 170.249V175H194.938ZM210.216 175.15C209.601 175.15 209.051 174.993 208.568 174.679C208.09 174.36 207.712 173.906 207.434 173.318C207.16 172.726 207.023 172.02 207.023 171.199C207.023 170.37 207.162 169.661 207.44 169.073C207.723 168.485 208.106 168.036 208.589 167.727C209.076 167.417 209.626 167.262 210.236 167.262C210.706 167.262 211.084 167.339 211.371 167.494C211.663 167.649 211.888 167.834 212.048 168.048C212.212 168.257 212.337 168.442 212.424 168.602H212.52V167.357H214.01V175H212.526V173.804H212.424C212.337 173.968 212.21 174.157 212.041 174.371C211.872 174.581 211.642 174.763 211.351 174.918C211.059 175.073 210.681 175.15 210.216 175.15ZM210.564 173.872C210.993 173.872 211.353 173.758 211.645 173.53C211.941 173.302 212.164 172.988 212.314 172.587C212.465 172.181 212.54 171.714 212.54 171.186C212.54 170.652 212.465 170.19 212.314 169.798C212.164 169.401 211.941 169.094 211.645 168.875C211.353 168.652 210.993 168.54 210.564 168.54C210.122 168.54 209.753 168.656 209.457 168.889C209.161 169.117 208.938 169.431 208.787 169.832C208.637 170.229 208.562 170.68 208.562 171.186C208.562 171.691 208.637 172.147 208.787 172.553C208.938 172.958 209.161 173.28 209.457 173.517C209.758 173.754 210.127 173.872 210.564 173.872ZM215.869 175V173.975L219.984 168.738V168.67H215.999V167.357H221.864V168.465L217.906 173.619V173.688H222.001V175H215.869ZM226.848 175.157C226.132 175.157 225.506 174.993 224.968 174.665C224.435 174.337 224.02 173.877 223.724 173.284C223.427 172.692 223.279 172.004 223.279 171.22C223.279 170.427 223.427 169.734 223.724 169.142C224.02 168.545 224.435 168.082 224.968 167.754C225.506 167.426 226.132 167.262 226.848 167.262C227.568 167.262 228.194 167.426 228.728 167.754C229.265 168.082 229.682 168.545 229.979 169.142C230.275 169.734 230.423 170.427 230.423 171.22C230.423 172.004 230.275 172.692 229.979 173.284C229.682 173.877 229.265 174.337 228.728 174.665C228.194 174.993 227.568 175.157 226.848 175.157ZM226.848 173.886C227.312 173.886 227.695 173.765 227.996 173.523C228.301 173.277 228.527 172.954 228.673 172.553C228.823 172.147 228.898 171.703 228.898 171.22C228.898 170.732 228.823 170.285 228.673 169.88C228.527 169.47 228.301 169.144 227.996 168.902C227.695 168.656 227.312 168.533 226.848 168.533C226.387 168.533 226.007 168.656 225.706 168.902C225.405 169.144 225.18 169.467 225.029 169.873C224.883 170.279 224.811 170.728 224.811 171.22C224.811 171.703 224.883 172.147 225.029 172.553C225.18 172.954 225.405 173.277 225.706 173.523C226.007 173.765 226.387 173.886 226.848 173.886ZM233.602 170.475V175H232.098V167.357H233.533L233.547 169.23H233.39C233.613 168.547 233.937 168.048 234.36 167.733C234.784 167.419 235.297 167.262 235.898 167.262C236.418 167.262 236.871 167.371 237.259 167.59C237.646 167.809 237.949 168.132 238.168 168.561C238.387 168.984 238.496 169.513 238.496 170.146V175H236.992V170.331C236.992 169.78 236.849 169.349 236.562 169.039C236.274 168.729 235.88 168.574 235.379 168.574C235.042 168.574 234.739 168.649 234.47 168.8C234.201 168.946 233.989 169.16 233.834 169.442C233.679 169.725 233.602 170.069 233.602 170.475ZM246.351 175L243.589 164.814H245.229L246.699 170.652C246.79 171.012 246.875 171.386 246.952 171.773C247.03 172.161 247.105 172.553 247.178 172.949C247.255 173.346 247.328 173.742 247.396 174.139H247.164C247.237 173.742 247.312 173.346 247.39 172.949C247.467 172.553 247.547 172.161 247.629 171.773C247.711 171.386 247.8 171.012 247.896 170.652L249.406 164.814H251.115L252.612 170.652C252.708 171.012 252.797 171.386 252.879 171.773C252.961 172.161 253.041 172.553 253.118 172.949C253.2 173.346 253.278 173.742 253.351 174.139H253.104C253.177 173.742 253.25 173.346 253.323 172.949C253.396 172.553 253.474 172.161 253.556 171.773C253.642 171.386 253.727 171.012 253.809 170.652L255.278 164.814H256.933L254.157 175H252.359L250.739 168.964C250.616 168.49 250.502 167.975 250.397 167.419C250.293 166.863 250.186 166.252 250.076 165.587H250.432C250.318 166.225 250.213 166.815 250.117 167.357C250.026 167.9 249.91 168.435 249.769 168.964L248.155 175H246.351ZM260.877 175.157C260.125 175.157 259.476 174.995 258.929 174.672C258.382 174.348 257.96 173.893 257.664 173.305C257.372 172.717 257.227 172.026 257.227 171.233C257.227 170.45 257.37 169.759 257.657 169.162C257.949 168.565 258.359 168.1 258.888 167.768C259.416 167.43 260.036 167.262 260.747 167.262C261.185 167.262 261.606 167.335 262.012 167.48C262.417 167.622 262.782 167.845 263.105 168.15C263.429 168.456 263.684 168.852 263.871 169.34C264.062 169.823 264.158 170.411 264.158 171.104V171.637H258.067V170.516H263.386L262.682 170.885C262.682 170.415 262.609 170.003 262.463 169.647C262.317 169.287 262.101 169.007 261.813 168.807C261.531 168.606 261.175 168.506 260.747 168.506C260.323 168.506 259.961 168.608 259.66 168.813C259.359 169.019 259.129 169.29 258.97 169.627C258.815 169.96 258.737 170.324 258.737 170.721V171.486C258.737 172.01 258.826 172.455 259.004 172.819C259.186 173.179 259.439 173.453 259.763 173.64C260.086 173.822 260.462 173.913 260.891 173.913C261.173 173.913 261.428 173.874 261.656 173.797C261.884 173.715 262.08 173.594 262.244 173.435C262.413 173.271 262.54 173.07 262.627 172.833L264.042 173.168C263.919 173.56 263.712 173.906 263.42 174.207C263.133 174.508 262.773 174.743 262.34 174.911C261.911 175.075 261.424 175.157 260.877 175.157ZM269.606 175.15C269.146 175.15 268.768 175.073 268.472 174.918C268.18 174.758 267.95 174.574 267.781 174.364C267.617 174.155 267.49 173.968 267.398 173.804H267.275V175H265.812V164.814H267.316V168.602H267.398C267.49 168.442 267.615 168.257 267.774 168.048C267.938 167.838 268.164 167.656 268.451 167.501C268.743 167.341 269.128 167.262 269.606 167.262C270.217 167.262 270.762 167.417 271.24 167.727C271.723 168.036 272.104 168.485 272.382 169.073C272.66 169.661 272.799 170.37 272.799 171.199C272.799 172.02 272.662 172.726 272.389 173.318C272.115 173.906 271.737 174.36 271.254 174.679C270.775 174.993 270.226 175.15 269.606 175.15ZM269.271 173.872C269.709 173.872 270.076 173.754 270.372 173.517C270.668 173.28 270.889 172.958 271.035 172.553C271.186 172.147 271.261 171.691 271.261 171.186C271.261 170.684 271.186 170.235 271.035 169.839C270.889 169.438 270.668 169.121 270.372 168.889C270.08 168.656 269.714 168.54 269.271 168.54C268.843 168.54 268.481 168.652 268.185 168.875C267.888 169.094 267.665 169.401 267.515 169.798C267.364 170.19 267.289 170.652 267.289 171.186C267.289 171.714 267.364 172.181 267.515 172.587C267.67 172.988 267.895 173.302 268.191 173.53C268.488 173.758 268.848 173.872 269.271 173.872ZM281.733 175.171C280.972 175.171 280.312 175.05 279.751 174.809C279.19 174.567 278.751 174.223 278.432 173.776C278.117 173.325 277.944 172.79 277.912 172.17H279.478C279.509 172.539 279.628 172.844 279.833 173.086C280.043 173.327 280.314 173.507 280.646 173.626C280.979 173.744 281.339 173.804 281.727 173.804C282.16 173.804 282.542 173.738 282.875 173.605C283.212 173.469 283.479 173.277 283.675 173.031C283.871 172.781 283.969 172.491 283.969 172.163C283.969 171.867 283.882 171.625 283.709 171.438C283.54 171.247 283.31 171.09 283.019 170.967C282.731 170.839 282.403 170.728 282.034 170.632L280.845 170.304C280.011 170.08 279.359 169.75 278.89 169.312C278.425 168.875 278.192 168.308 278.192 167.61C278.192 167.022 278.35 166.51 278.664 166.072C278.983 165.63 279.414 165.288 279.956 165.047C280.503 164.801 281.118 164.678 281.802 164.678C282.499 164.678 283.112 164.801 283.641 165.047C284.174 165.288 284.591 165.621 284.892 166.045C285.197 166.469 285.356 166.952 285.37 167.494H283.853C283.802 167.029 283.586 166.669 283.203 166.414C282.825 166.159 282.346 166.031 281.768 166.031C281.357 166.031 281 166.095 280.694 166.223C280.394 166.35 280.159 166.528 279.99 166.756C279.826 166.979 279.744 167.234 279.744 167.521C279.744 167.845 279.842 168.107 280.038 168.308C280.239 168.504 280.48 168.661 280.763 168.779C281.05 168.893 281.323 168.984 281.583 169.053L282.574 169.312C282.898 169.395 283.23 169.506 283.572 169.647C283.919 169.784 284.238 169.964 284.529 170.188C284.821 170.406 285.056 170.68 285.233 171.008C285.416 171.331 285.507 171.723 285.507 172.184C285.507 172.758 285.359 173.271 285.062 173.722C284.766 174.173 284.336 174.528 283.771 174.788C283.21 175.043 282.531 175.171 281.733 175.171ZM290.545 175.157C289.793 175.157 289.144 174.995 288.597 174.672C288.05 174.348 287.628 173.893 287.332 173.305C287.04 172.717 286.895 172.026 286.895 171.233C286.895 170.45 287.038 169.759 287.325 169.162C287.617 168.565 288.027 168.1 288.556 167.768C289.084 167.43 289.704 167.262 290.415 167.262C290.853 167.262 291.274 167.335 291.68 167.48C292.085 167.622 292.45 167.845 292.773 168.15C293.097 168.456 293.352 168.852 293.539 169.34C293.73 169.823 293.826 170.411 293.826 171.104V171.637H287.735V170.516H293.054L292.35 170.885C292.35 170.415 292.277 170.003 292.131 169.647C291.985 169.287 291.769 169.007 291.481 168.807C291.199 168.606 290.843 168.506 290.415 168.506C289.991 168.506 289.629 168.608 289.328 168.813C289.027 169.019 288.797 169.29 288.638 169.627C288.483 169.96 288.405 170.324 288.405 170.721V171.486C288.405 172.01 288.494 172.455 288.672 172.819C288.854 173.179 289.107 173.453 289.431 173.64C289.754 173.822 290.13 173.913 290.559 173.913C290.841 173.913 291.096 173.874 291.324 173.797C291.552 173.715 291.748 173.594 291.912 173.435C292.081 173.271 292.208 173.07 292.295 172.833L293.71 173.168C293.587 173.56 293.38 173.906 293.088 174.207C292.801 174.508 292.441 174.743 292.008 174.911C291.579 175.075 291.092 175.157 290.545 175.157ZM295.48 175V167.357H296.937V168.588H297.019C297.16 168.169 297.406 167.84 297.757 167.604C298.108 167.367 298.507 167.248 298.953 167.248C299.049 167.248 299.158 167.253 299.281 167.262C299.404 167.266 299.507 167.275 299.589 167.289V168.725C299.534 168.706 299.429 168.688 299.274 168.67C299.119 168.652 298.962 168.643 298.803 168.643C298.456 168.643 298.144 168.715 297.866 168.861C297.588 169.007 297.372 169.21 297.217 169.47C297.062 169.725 296.984 170.021 296.984 170.358V175H295.48ZM303.301 175L300.416 167.357H302.043L303.554 171.698C303.722 172.177 303.866 172.658 303.984 173.141C304.103 173.619 304.228 174.095 304.36 174.569H303.909C304.037 174.095 304.16 173.619 304.278 173.141C304.397 172.658 304.538 172.177 304.702 171.698L306.213 167.357H307.826L304.941 175H303.301ZM309.166 175V167.357H310.67V175H309.166ZM309.925 166.188C309.665 166.188 309.442 166.102 309.255 165.929C309.073 165.756 308.981 165.546 308.981 165.3C308.981 165.049 309.073 164.837 309.255 164.664C309.442 164.491 309.665 164.404 309.925 164.404C310.185 164.404 310.408 164.491 310.595 164.664C310.782 164.837 310.875 165.049 310.875 165.3C310.875 165.546 310.782 165.756 310.595 165.929C310.408 166.102 310.185 166.188 309.925 166.188ZM315.906 175.157C315.186 175.157 314.56 174.993 314.026 174.665C313.493 174.337 313.078 173.877 312.782 173.284C312.486 172.692 312.338 172.004 312.338 171.22C312.338 170.427 312.486 169.734 312.782 169.142C313.078 168.545 313.493 168.082 314.026 167.754C314.56 167.426 315.186 167.262 315.906 167.262C316.303 167.262 316.674 167.314 317.021 167.419C317.367 167.519 317.679 167.667 317.957 167.863C318.24 168.055 318.477 168.292 318.668 168.574C318.864 168.852 319.01 169.167 319.105 169.518L317.677 169.859C317.627 169.663 317.549 169.486 317.444 169.326C317.34 169.162 317.212 169.021 317.062 168.902C316.916 168.784 316.745 168.693 316.549 168.629C316.357 168.565 316.146 168.533 315.913 168.533C315.453 168.533 315.07 168.656 314.765 168.902C314.464 169.144 314.238 169.467 314.088 169.873C313.942 170.279 313.869 170.728 313.869 171.22C313.869 171.707 313.942 172.154 314.088 172.56C314.238 172.961 314.464 173.282 314.765 173.523C315.07 173.765 315.453 173.886 315.913 173.886C316.15 173.886 316.367 173.854 316.562 173.79C316.758 173.722 316.934 173.628 317.089 173.51C317.244 173.387 317.374 173.241 317.479 173.072C317.583 172.899 317.659 172.71 317.704 172.505L319.126 172.847C319.035 173.207 318.891 173.53 318.695 173.817C318.499 174.1 318.26 174.341 317.978 174.542C317.7 174.743 317.385 174.895 317.034 175C316.683 175.105 316.307 175.157 315.906 175.157ZM324.068 175.157C323.316 175.157 322.667 174.995 322.12 174.672C321.573 174.348 321.152 173.893 320.855 173.305C320.564 172.717 320.418 172.026 320.418 171.233C320.418 170.45 320.562 169.759 320.849 169.162C321.14 168.565 321.55 168.1 322.079 167.768C322.608 167.43 323.228 167.262 323.938 167.262C324.376 167.262 324.798 167.335 325.203 167.48C325.609 167.622 325.973 167.845 326.297 168.15C326.62 168.456 326.876 168.852 327.062 169.34C327.254 169.823 327.35 170.411 327.35 171.104V171.637H321.259V170.516H326.577L325.873 170.885C325.873 170.415 325.8 170.003 325.654 169.647C325.508 169.287 325.292 169.007 325.005 168.807C324.722 168.606 324.367 168.506 323.938 168.506C323.515 168.506 323.152 168.608 322.852 168.813C322.551 169.019 322.321 169.29 322.161 169.627C322.006 169.96 321.929 170.324 321.929 170.721V171.486C321.929 172.01 322.018 172.455 322.195 172.819C322.378 173.179 322.631 173.453 322.954 173.64C323.278 173.822 323.654 173.913 324.082 173.913C324.365 173.913 324.62 173.874 324.848 173.797C325.076 173.715 325.271 173.594 325.436 173.435C325.604 173.271 325.732 173.07 325.818 172.833L327.233 173.168C327.11 173.56 326.903 173.906 326.611 174.207C326.324 174.508 325.964 174.743 325.531 174.911C325.103 175.075 324.615 175.157 324.068 175.157ZM331.745 175.157C331.194 175.157 330.701 175.077 330.269 174.918C329.84 174.758 329.487 174.524 329.209 174.214C328.936 173.899 328.753 173.517 328.662 173.065L330.077 172.771C330.182 173.168 330.378 173.462 330.665 173.653C330.952 173.845 331.317 173.94 331.759 173.94C332.242 173.94 332.627 173.84 332.914 173.64C333.201 173.435 333.345 173.191 333.345 172.908C333.345 172.662 333.256 172.459 333.078 172.3C332.905 172.14 332.636 172.022 332.271 171.944L330.986 171.65C330.275 171.491 329.747 171.236 329.4 170.885C329.054 170.534 328.881 170.085 328.881 169.538C328.881 169.082 329.008 168.684 329.264 168.342C329.519 168 329.868 167.736 330.31 167.549C330.752 167.357 331.262 167.262 331.841 167.262C332.392 167.262 332.864 167.341 333.256 167.501C333.648 167.66 333.965 167.884 334.206 168.171C334.452 168.458 334.628 168.791 334.732 169.169L333.386 169.463C333.29 169.194 333.124 168.959 332.887 168.759C332.65 168.554 332.306 168.451 331.854 168.451C331.44 168.451 331.093 168.545 330.815 168.731C330.537 168.918 330.398 169.155 330.398 169.442C330.398 169.698 330.49 169.905 330.672 170.064C330.859 170.219 331.162 170.345 331.581 170.44L332.812 170.714C333.518 170.873 334.042 171.124 334.384 171.466C334.726 171.808 334.896 172.245 334.896 172.778C334.896 173.243 334.762 173.656 334.493 174.016C334.229 174.371 333.86 174.651 333.386 174.856C332.916 175.057 332.369 175.157 331.745 175.157Z" fill="#111827"/>
<rect x="388.5" y="96.5" width="129" height="103" rx="3.5" fill="white"/>
<rect x="388.5" y="96.5" width="129" height="103" rx="3.5" stroke="#E4E4E7"/>
<path fill-rule="evenodd" clip-rule="evenodd" d="M445.048 127.414L454.484 119.233L444.258 141.863H437L445.048 127.414ZM451.712 132.495L455.738 121.147L469 144.767H444.454L459.432 142.194L451.712 132.495Z" fill="#111827"/>
<path d="M433.349 175L436.972 164.814H438.886L442.577 175H440.889L438.906 169.333C438.751 168.873 438.58 168.33 438.394 167.706C438.211 167.082 437.999 166.332 437.758 165.457H438.072C437.84 166.341 437.63 167.1 437.443 167.733C437.261 168.362 437.099 168.896 436.958 169.333L435.037 175H433.349ZM435.311 172.313V171.015H440.608V172.313H435.311ZM443.773 175V173.975L447.889 168.738V168.67H443.903V167.357H449.769V168.465L445.811 173.619V173.688H449.905V175H443.773ZM454.376 175.096C453.856 175.096 453.401 174.986 453.009 174.768C452.617 174.549 452.312 174.225 452.093 173.797C451.879 173.368 451.771 172.84 451.771 172.211V167.357H453.275V172.026C453.275 172.578 453.419 173.008 453.706 173.318C453.998 173.628 454.392 173.783 454.889 173.783C455.23 173.783 455.534 173.71 455.798 173.564C456.067 173.414 456.279 173.198 456.434 172.915C456.589 172.628 456.666 172.284 456.666 171.883V167.357H458.17V175H456.734L456.728 173.127H456.871C456.648 173.82 456.322 174.321 455.894 174.631C455.465 174.941 454.959 175.096 454.376 175.096ZM460.193 175V167.357H461.649V168.588H461.731C461.873 168.169 462.119 167.84 462.47 167.604C462.821 167.367 463.219 167.248 463.666 167.248C463.762 167.248 463.871 167.253 463.994 167.262C464.117 167.266 464.22 167.275 464.302 167.289V168.725C464.247 168.706 464.142 168.688 463.987 168.67C463.832 168.652 463.675 168.643 463.516 168.643C463.169 168.643 462.857 168.715 462.579 168.861C462.301 169.007 462.085 169.21 461.93 169.47C461.775 169.725 461.697 170.021 461.697 170.358V175H460.193ZM468.629 175.157C467.877 175.157 467.228 174.995 466.681 174.672C466.134 174.348 465.712 173.893 465.416 173.305C465.124 172.717 464.979 172.026 464.979 171.233C464.979 170.45 465.122 169.759 465.409 169.162C465.701 168.565 466.111 168.1 466.64 167.768C467.168 167.43 467.788 167.262 468.499 167.262C468.937 167.262 469.358 167.335 469.764 167.48C470.169 167.622 470.534 167.845 470.857 168.15C471.181 168.456 471.436 168.852 471.623 169.34C471.814 169.823 471.91 170.411 471.91 171.104V171.637H465.819V170.516H471.138L470.434 170.885C470.434 170.415 470.361 170.003 470.215 169.647C470.069 169.287 469.853 169.007 469.565 168.807C469.283 168.606 468.927 168.506 468.499 168.506C468.075 168.506 467.713 168.608 467.412 168.813C467.111 169.019 466.881 169.29 466.722 169.627C466.567 169.96 466.489 170.324 466.489 170.721V171.486C466.489 172.01 466.578 172.455 466.756 172.819C466.938 173.179 467.191 173.453 467.515 173.64C467.838 173.822 468.214 173.913 468.643 173.913C468.925 173.913 469.18 173.874 469.408 173.797C469.636 173.715 469.832 173.594 469.996 173.435C470.165 173.271 470.292 173.07 470.379 172.833L471.794 173.168C471.671 173.56 471.464 173.906 471.172 174.207C470.885 174.508 470.525 174.743 470.092 174.911C469.663 175.075 469.176 175.157 468.629 175.157Z" fill="#111827"/>
<defs>
<clipPath id="clip0_2076_35731">
<rect x="1" y="28" width="517" height="36" rx="4" fill="white"/>
</clipPath>
</defs>
</svg>
