<svg width="602" height="235" viewBox="0 0 602 235" fill="none" xmlns="http://www.w3.org/2000/svg">
<path d="M5.5791 17.9542C4.81803 17.9542 4.15723 17.8335 3.59668 17.5919C3.03613 17.3504 2.59635 17.0063 2.27734 16.5597C1.96289 16.1085 1.78971 15.573 1.75781 14.9532H3.32324C3.35514 15.3224 3.47363 15.6277 3.67871 15.8693C3.88835 16.1108 4.15951 16.2908 4.49219 16.4093C4.82487 16.5278 5.1849 16.587 5.57227 16.587C6.00521 16.587 6.38802 16.521 6.7207 16.3888C7.05794 16.2521 7.32454 16.0607 7.52051 15.8146C7.71647 15.5639 7.81445 15.2745 7.81445 14.9464C7.81445 14.6502 7.72786 14.4087 7.55469 14.2218C7.38607 14.0304 7.15592 13.8732 6.86426 13.7501C6.57715 13.6225 6.24902 13.5109 5.87988 13.4152L4.69043 13.087C3.85645 12.8637 3.20475 12.5333 2.73535 12.0958C2.27051 11.6583 2.03809 11.0909 2.03809 10.3937C2.03809 9.80579 2.19531 9.29309 2.50977 8.85559C2.82878 8.41353 3.25944 8.07174 3.80176 7.8302C4.34863 7.58411 4.96387 7.46106 5.64746 7.46106C6.34473 7.46106 6.95768 7.58411 7.48633 7.8302C8.01953 8.07174 8.43652 8.40442 8.7373 8.82825C9.04264 9.25208 9.20215 9.73515 9.21582 10.2775H7.69824C7.64811 9.81262 7.43164 9.4526 7.04883 9.19739C6.67057 8.94218 6.19206 8.81458 5.61328 8.81458C5.20312 8.81458 4.84538 8.87838 4.54004 9.00598C4.23926 9.13359 4.00456 9.31132 3.83594 9.53918C3.67188 9.76249 3.58984 10.0177 3.58984 10.3048C3.58984 10.6284 3.68783 10.8904 3.88379 11.0909C4.08431 11.2869 4.32585 11.4441 4.6084 11.5626C4.89551 11.6766 5.16895 11.7677 5.42871 11.8361L6.41992 12.0958C6.74349 12.1779 7.07617 12.2895 7.41797 12.4308C7.76432 12.5675 8.08333 12.7475 8.375 12.9708C8.66667 13.1896 8.90137 13.463 9.0791 13.7911C9.26139 14.1147 9.35254 14.5066 9.35254 14.9669C9.35254 15.5411 9.20443 16.0538 8.9082 16.505C8.61198 16.9562 8.18132 17.3116 7.61621 17.5714C7.05566 17.8266 6.37663 17.9542 5.5791 17.9542ZM14.3906 17.9406C13.6387 17.9406 12.9893 17.7788 12.4424 17.4552C11.8955 17.1316 11.474 16.6759 11.1777 16.088C10.8861 15.5001 10.7402 14.8097 10.7402 14.0167C10.7402 13.2329 10.8838 12.5424 11.1709 11.9454C11.4626 11.3484 11.8727 10.8836 12.4014 10.5509C12.93 10.2137 13.5498 10.045 14.2607 10.045C14.6982 10.045 15.1198 10.118 15.5254 10.2638C15.931 10.4051 16.2956 10.6284 16.6191 10.9337C16.9427 11.2391 17.1979 11.6355 17.3848 12.1232C17.5762 12.6062 17.6719 13.1941 17.6719 13.8868V14.42H11.5811V13.299H16.8994L16.1953 13.6681C16.1953 13.1987 16.1224 12.7863 15.9766 12.4308C15.8307 12.0708 15.6143 11.7905 15.3271 11.59C15.0446 11.3894 14.6891 11.2892 14.2607 11.2892C13.8369 11.2892 13.4746 11.3917 13.1738 11.5968C12.873 11.8019 12.6429 12.073 12.4834 12.4103C12.3285 12.743 12.251 13.1075 12.251 13.504V14.2697C12.251 14.7937 12.3398 15.2381 12.5176 15.6027C12.6999 15.9627 12.9528 16.2361 13.2764 16.423C13.5999 16.6053 13.9759 16.6964 14.4043 16.6964C14.6868 16.6964 14.9421 16.6577 15.1699 16.5802C15.3978 16.4982 15.5938 16.3774 15.7578 16.2179C15.9264 16.0538 16.054 15.8533 16.1406 15.6163L17.5557 15.9513C17.4326 16.3432 17.2253 16.6896 16.9336 16.9904C16.6465 17.2911 16.2865 17.5258 15.8535 17.6945C15.4251 17.8585 14.9375 17.9406 14.3906 17.9406ZM20.8301 7.59778V17.7833H19.3262V7.59778H20.8301ZM26.1484 17.9406C25.3965 17.9406 24.7471 17.7788 24.2002 17.4552C23.6533 17.1316 23.2318 16.6759 22.9355 16.088C22.6439 15.5001 22.498 14.8097 22.498 14.0167C22.498 13.2329 22.6416 12.5424 22.9287 11.9454C23.2204 11.3484 23.6305 10.8836 24.1592 10.5509C24.6878 10.2137 25.3076 10.045 26.0186 10.045C26.4561 10.045 26.8776 10.118 27.2832 10.2638C27.6888 10.4051 28.0534 10.6284 28.377 10.9337C28.7005 11.2391 28.9557 11.6355 29.1426 12.1232C29.334 12.6062 29.4297 13.1941 29.4297 13.8868V14.42H23.3389V13.299H28.6572L27.9531 13.6681C27.9531 13.1987 27.8802 12.7863 27.7344 12.4308C27.5885 12.0708 27.3721 11.7905 27.085 11.59C26.8024 11.3894 26.4469 11.2892 26.0186 11.2892C25.5947 11.2892 25.2324 11.3917 24.9316 11.5968C24.6309 11.8019 24.4007 12.073 24.2412 12.4103C24.0863 12.743 24.0088 13.1075 24.0088 13.504V14.2697C24.0088 14.7937 24.0977 15.2381 24.2754 15.6027C24.4577 15.9627 24.7106 16.2361 25.0342 16.423C25.3577 16.6053 25.7337 16.6964 26.1621 16.6964C26.4447 16.6964 26.6999 16.6577 26.9277 16.5802C27.1556 16.4982 27.3516 16.3774 27.5156 16.2179C27.6842 16.0538 27.8118 15.8533 27.8984 15.6163L29.3135 15.9513C29.1904 16.3432 28.9831 16.6896 28.6914 16.9904C28.4043 17.2911 28.0443 17.5258 27.6113 17.6945C27.1829 17.8585 26.6953 17.9406 26.1484 17.9406ZM34.2969 17.9406C33.5768 17.9406 32.9502 17.7765 32.417 17.4484C31.8838 17.1202 31.4691 16.66 31.1729 16.0675C30.8766 15.4751 30.7285 14.7869 30.7285 14.0031C30.7285 13.2101 30.8766 12.5174 31.1729 11.9249C31.4691 11.3279 31.8838 10.8654 32.417 10.5372C32.9502 10.2091 33.5768 10.045 34.2969 10.045C34.6934 10.045 35.0648 10.0975 35.4111 10.2023C35.7575 10.3025 36.0697 10.4506 36.3477 10.6466C36.6302 10.838 36.8672 11.075 37.0586 11.3575C37.2546 11.6355 37.4004 11.95 37.4961 12.3009L36.0674 12.6427C36.0173 12.4467 35.9398 12.269 35.835 12.1095C35.7301 11.9454 35.6025 11.8042 35.4521 11.6857C35.3063 11.5672 35.1354 11.476 34.9395 11.4122C34.748 11.3484 34.5361 11.3165 34.3037 11.3165C33.8434 11.3165 33.4606 11.4396 33.1553 11.6857C32.8545 11.9272 32.6289 12.2508 32.4785 12.6564C32.3327 13.062 32.2598 13.5109 32.2598 14.0031C32.2598 14.4907 32.3327 14.9373 32.4785 15.3429C32.6289 15.7439 32.8545 16.0652 33.1553 16.3068C33.4606 16.5483 33.8434 16.6691 34.3037 16.6691C34.5407 16.6691 34.7572 16.6372 34.9531 16.5734C35.1491 16.505 35.3245 16.4116 35.4795 16.2931C35.6344 16.17 35.7643 16.0242 35.8691 15.8556C35.974 15.6824 36.0492 15.4933 36.0947 15.2882L37.5166 15.63C37.4255 15.99 37.2819 16.3136 37.0859 16.6007C36.89 16.8833 36.6507 17.1248 36.3682 17.3253C36.0902 17.5258 35.7757 17.6785 35.4248 17.7833C35.0739 17.8881 34.6979 17.9406 34.2969 17.9406ZM42.4316 10.1407V11.3644H38.2891V10.1407H42.4316ZM39.4033 8.32239H40.9072V15.7189C40.9072 16.0242 40.971 16.2498 41.0986 16.3956C41.2308 16.5369 41.445 16.6075 41.7412 16.6075C41.8187 16.6075 41.9212 16.5984 42.0488 16.5802C42.1764 16.562 42.2858 16.5437 42.377 16.5255L42.6436 17.7286C42.484 17.7833 42.3132 17.8221 42.1309 17.8448C41.9486 17.8722 41.7686 17.8859 41.5908 17.8859C40.8981 17.8859 40.3604 17.7081 39.9775 17.3527C39.5947 16.9926 39.4033 16.4891 39.4033 15.8419V8.32239ZM50.8809 17.9406C50.1608 17.9406 49.5342 17.7765 49.001 17.4484C48.4678 17.1202 48.0531 16.66 47.7568 16.0675C47.4606 15.4751 47.3125 14.7869 47.3125 14.0031C47.3125 13.2101 47.4606 12.5174 47.7568 11.9249C48.0531 11.3279 48.4678 10.8654 49.001 10.5372C49.5342 10.2091 50.1608 10.045 50.8809 10.045C51.2773 10.045 51.6488 10.0975 51.9951 10.2023C52.3415 10.3025 52.6536 10.4506 52.9316 10.6466C53.2142 10.838 53.4512 11.075 53.6426 11.3575C53.8385 11.6355 53.9844 11.95 54.0801 12.3009L52.6514 12.6427C52.6012 12.4467 52.5238 12.269 52.4189 12.1095C52.3141 11.9454 52.1865 11.8042 52.0361 11.6857C51.8903 11.5672 51.7194 11.476 51.5234 11.4122C51.332 11.3484 51.1201 11.3165 50.8877 11.3165C50.4274 11.3165 50.0446 11.4396 49.7393 11.6857C49.4385 11.9272 49.2129 12.2508 49.0625 12.6564C48.9167 13.062 48.8438 13.5109 48.8438 14.0031C48.8438 14.4907 48.9167 14.9373 49.0625 15.3429C49.2129 15.7439 49.4385 16.0652 49.7393 16.3068C50.0446 16.5483 50.4274 16.6691 50.8877 16.6691C51.1247 16.6691 51.3411 16.6372 51.5371 16.5734C51.7331 16.505 51.9085 16.4116 52.0635 16.2931C52.2184 16.17 52.3483 16.0242 52.4531 15.8556C52.5579 15.6824 52.6331 15.4933 52.6787 15.2882L54.1006 15.63C54.0094 15.99 53.8659 16.3136 53.6699 16.6007C53.474 16.8833 53.2347 17.1248 52.9521 17.3253C52.6742 17.5258 52.3597 17.6785 52.0088 17.7833C51.6579 17.8881 51.2819 17.9406 50.8809 17.9406ZM57.252 7.59778V17.7833H55.748V7.59778H57.252ZM62.4883 17.9406C61.7728 17.9406 61.1462 17.7765 60.6084 17.4484C60.0752 17.1202 59.6605 16.66 59.3643 16.0675C59.068 15.4751 58.9199 14.7869 58.9199 14.0031C58.9199 13.2101 59.068 12.5174 59.3643 11.9249C59.6605 11.3279 60.0752 10.8654 60.6084 10.5372C61.1462 10.2091 61.7728 10.045 62.4883 10.045C63.2083 10.045 63.835 10.2091 64.3682 10.5372C64.9059 10.8654 65.3229 11.3279 65.6191 11.9249C65.9154 12.5174 66.0635 13.2101 66.0635 14.0031C66.0635 14.7869 65.9154 15.4751 65.6191 16.0675C65.3229 16.66 64.9059 17.1202 64.3682 17.4484C63.835 17.7765 63.2083 17.9406 62.4883 17.9406ZM62.4883 16.6691C62.9531 16.6691 63.3359 16.5483 63.6367 16.3068C63.9421 16.0607 64.1676 15.7371 64.3135 15.3361C64.4639 14.9305 64.5391 14.4861 64.5391 14.0031C64.5391 13.5154 64.4639 13.0688 64.3135 12.6632C64.1676 12.2531 63.9421 11.9272 63.6367 11.6857C63.3359 11.4396 62.9531 11.3165 62.4883 11.3165C62.028 11.3165 61.6475 11.4396 61.3467 11.6857C61.0459 11.9272 60.8203 12.2508 60.6699 12.6564C60.5241 13.062 60.4512 13.5109 60.4512 14.0031C60.4512 14.4861 60.5241 14.9305 60.6699 15.3361C60.8203 15.7371 61.0459 16.0607 61.3467 16.3068C61.6475 16.5483 62.028 16.6691 62.4883 16.6691ZM70.3428 17.879C69.8232 17.879 69.3675 17.7697 68.9756 17.5509C68.5837 17.3322 68.2783 17.0086 68.0596 16.5802C67.8454 16.1518 67.7383 15.6232 67.7383 14.9943V10.1407H69.2422V14.8097C69.2422 15.3611 69.3857 15.7918 69.6729 16.1017C69.9645 16.4116 70.3587 16.5665 70.8555 16.5665C71.1973 16.5665 71.5003 16.4936 71.7646 16.3478C72.0335 16.1974 72.2454 15.9809 72.4004 15.6984C72.5553 15.4113 72.6328 15.0672 72.6328 14.6661V10.1407H74.1367V17.7833H72.7012L72.6943 15.9103H72.8379C72.6146 16.603 72.2887 17.1043 71.8604 17.4142C71.432 17.7241 70.9261 17.879 70.3428 17.879ZM79.0039 17.9337C78.3841 17.9337 77.8327 17.7765 77.3496 17.462C76.8665 17.143 76.4883 16.6896 76.2148 16.1017C75.9414 15.5092 75.8047 14.8029 75.8047 13.9825C75.8047 13.1531 75.9437 12.4445 76.2217 11.8566C76.4997 11.2687 76.8802 10.8198 77.3633 10.5099C77.8464 10.2 78.3932 10.045 79.0039 10.045C79.4779 10.045 79.8584 10.1248 80.1455 10.2843C80.4372 10.4392 80.665 10.6215 80.8291 10.8312C80.9932 11.0408 81.1185 11.2254 81.2051 11.3849H81.2871V7.59778H82.791V17.7833H81.3281V16.587H81.2051C81.1185 16.7511 80.9909 16.9379 80.8223 17.1476C80.6536 17.3572 80.4235 17.5418 80.1318 17.7013C79.8402 17.8562 79.4642 17.9337 79.0039 17.9337ZM79.332 16.6554C79.7604 16.6554 80.1204 16.5415 80.4121 16.3136C80.7083 16.0857 80.9316 15.7713 81.082 15.3702C81.237 14.9646 81.3145 14.4975 81.3145 13.9689C81.3145 13.4357 81.2393 12.9731 81.0889 12.5812C80.9385 12.1847 80.7152 11.8771 80.4189 11.6583C80.1273 11.435 79.765 11.3234 79.332 11.3234C78.89 11.3234 78.5208 11.4396 78.2246 11.672C77.9329 11.9044 77.7119 12.2212 77.5615 12.6222C77.4157 13.0187 77.3428 13.4676 77.3428 13.9689C77.3428 14.4747 77.418 14.9305 77.5684 15.3361C77.7188 15.7417 77.9421 16.0629 78.2383 16.2999C78.5345 16.5369 78.8991 16.6554 79.332 16.6554ZM88.5469 20.6407V10.1407H90.0098V11.3849H90.1328C90.224 11.2254 90.3493 11.0408 90.5088 10.8312C90.6729 10.6215 90.8984 10.4392 91.1855 10.2843C91.4772 10.1248 91.8623 10.045 92.3408 10.045C92.9515 10.045 93.4961 10.2 93.9746 10.5099C94.4577 10.8198 94.8382 11.2687 95.1162 11.8566C95.3942 12.4445 95.5332 13.1531 95.5332 13.9825C95.5332 14.8029 95.3965 15.5092 95.123 16.1017C94.8496 16.6896 94.4714 17.143 93.9883 17.462C93.5098 17.7765 92.9606 17.9337 92.3408 17.9337C91.8805 17.9337 91.5023 17.8562 91.2061 17.7013C90.9144 17.5418 90.6842 17.3572 90.5156 17.1476C90.3516 16.9379 90.224 16.7511 90.1328 16.587H90.0508V20.6407H88.5469ZM92.0059 16.6554C92.4434 16.6554 92.8102 16.5369 93.1064 16.2999C93.4027 16.0629 93.6237 15.7417 93.7695 15.3361C93.9199 14.9305 93.9951 14.4747 93.9951 13.9689C93.9951 13.4676 93.9199 13.0187 93.7695 12.6222C93.6237 12.2212 93.4027 11.9044 93.1064 11.672C92.8148 11.4396 92.4479 11.3234 92.0059 11.3234C91.5775 11.3234 91.2152 11.435 90.9189 11.6583C90.6227 11.8771 90.3994 12.1847 90.249 12.5812C90.0986 12.9731 90.0234 13.4357 90.0234 13.9689C90.0234 14.4975 90.0986 14.9646 90.249 15.3702C90.404 15.7713 90.6296 16.0857 90.9258 16.3136C91.222 16.5415 91.582 16.6554 92.0059 16.6554ZM97.2012 17.7833V10.1407H98.6572V11.3712H98.7393C98.8805 10.9519 99.1266 10.6238 99.4775 10.3868C99.8285 10.1499 100.227 10.0314 100.674 10.0314C100.77 10.0314 100.879 10.0359 101.002 10.045C101.125 10.0496 101.228 10.0587 101.31 10.0724V11.5079C101.255 11.4897 101.15 11.4715 100.995 11.4532C100.84 11.435 100.683 11.4259 100.523 11.4259C100.177 11.4259 99.8649 11.4988 99.5869 11.6447C99.3089 11.7905 99.0924 11.9933 98.9375 12.2531C98.7826 12.5083 98.7051 12.8045 98.7051 13.1417V17.7833H97.2012ZM105.555 17.9406C104.839 17.9406 104.213 17.7765 103.675 17.4484C103.142 17.1202 102.727 16.66 102.431 16.0675C102.134 15.4751 101.986 14.7869 101.986 14.0031C101.986 13.2101 102.134 12.5174 102.431 11.9249C102.727 11.3279 103.142 10.8654 103.675 10.5372C104.213 10.2091 104.839 10.045 105.555 10.045C106.275 10.045 106.901 10.2091 107.435 10.5372C107.972 10.8654 108.389 11.3279 108.686 11.9249C108.982 12.5174 109.13 13.2101 109.13 14.0031C109.13 14.7869 108.982 15.4751 108.686 16.0675C108.389 16.66 107.972 17.1202 107.435 17.4484C106.901 17.7765 106.275 17.9406 105.555 17.9406ZM105.555 16.6691C106.02 16.6691 106.402 16.5483 106.703 16.3068C107.008 16.0607 107.234 15.7371 107.38 15.3361C107.53 14.9305 107.605 14.4861 107.605 14.0031C107.605 13.5154 107.53 13.0688 107.38 12.6632C107.234 12.2531 107.008 11.9272 106.703 11.6857C106.402 11.4396 106.02 11.3165 105.555 11.3165C105.094 11.3165 104.714 11.4396 104.413 11.6857C104.112 11.9272 103.887 12.2508 103.736 12.6564C103.59 13.062 103.518 13.5109 103.518 14.0031C103.518 14.4861 103.59 14.9305 103.736 15.3361C103.887 15.7371 104.112 16.0607 104.413 16.3068C104.714 16.5483 105.094 16.6691 105.555 16.6691ZM112.732 17.7833L109.848 10.1407H111.475L112.985 14.4816C113.154 14.9601 113.298 15.4409 113.416 15.924C113.535 16.4025 113.66 16.8787 113.792 17.3527H113.341C113.468 16.8787 113.591 16.4025 113.71 15.924C113.828 15.4409 113.97 14.9601 114.134 14.4816L115.645 10.1407H117.258L114.373 17.7833H112.732ZM118.598 17.7833V10.1407H120.102V17.7833H118.598ZM119.356 8.9718C119.097 8.9718 118.873 8.88521 118.687 8.71204C118.504 8.53886 118.413 8.32922 118.413 8.08313C118.413 7.83248 118.504 7.62056 118.687 7.44739C118.873 7.27421 119.097 7.18762 119.356 7.18762C119.616 7.18762 119.84 7.27421 120.026 7.44739C120.213 7.62056 120.307 7.83248 120.307 8.08313C120.307 8.32922 120.213 8.53886 120.026 8.71204C119.84 8.88521 119.616 8.9718 119.356 8.9718ZM124.969 17.9337C124.349 17.9337 123.798 17.7765 123.314 17.462C122.831 17.143 122.453 16.6896 122.18 16.1017C121.906 15.5092 121.77 14.8029 121.77 13.9825C121.77 13.1531 121.909 12.4445 122.187 11.8566C122.465 11.2687 122.845 10.8198 123.328 10.5099C123.811 10.2 124.358 10.045 124.969 10.045C125.443 10.045 125.823 10.1248 126.11 10.2843C126.402 10.4392 126.63 10.6215 126.794 10.8312C126.958 11.0408 127.083 11.2254 127.17 11.3849H127.252V7.59778H128.756V17.7833H127.293V16.587H127.17C127.083 16.7511 126.956 16.9379 126.787 17.1476C126.618 17.3572 126.388 17.5418 126.097 17.7013C125.805 17.8562 125.429 17.9337 124.969 17.9337ZM125.297 16.6554C125.725 16.6554 126.085 16.5415 126.377 16.3136C126.673 16.0857 126.896 15.7713 127.047 15.3702C127.202 14.9646 127.279 14.4975 127.279 13.9689C127.279 13.4357 127.204 12.9731 127.054 12.5812C126.903 12.1847 126.68 11.8771 126.384 11.6583C126.092 11.435 125.73 11.3234 125.297 11.3234C124.855 11.3234 124.486 11.4396 124.189 11.672C123.898 11.9044 123.677 12.2212 123.526 12.6222C123.381 13.0187 123.308 13.4676 123.308 13.9689C123.308 14.4747 123.383 14.9305 123.533 15.3361C123.684 15.7417 123.907 16.0629 124.203 16.2999C124.499 16.5369 124.864 16.6554 125.297 16.6554ZM134.074 17.9406C133.322 17.9406 132.673 17.7788 132.126 17.4552C131.579 17.1316 131.158 16.6759 130.861 16.088C130.57 15.5001 130.424 14.8097 130.424 14.0167C130.424 13.2329 130.567 12.5424 130.854 11.9454C131.146 11.3484 131.556 10.8836 132.085 10.5509C132.614 10.2137 133.233 10.045 133.944 10.045C134.382 10.045 134.803 10.118 135.209 10.2638C135.615 10.4051 135.979 10.6284 136.303 10.9337C136.626 11.2391 136.882 11.6355 137.068 12.1232C137.26 12.6062 137.355 13.1941 137.355 13.8868V14.42H131.265V13.299H136.583L135.879 13.6681C135.879 13.1987 135.806 12.7863 135.66 12.4308C135.514 12.0708 135.298 11.7905 135.011 11.59C134.728 11.3894 134.373 11.2892 133.944 11.2892C133.521 11.2892 133.158 11.3917 132.857 11.5968C132.557 11.8019 132.326 12.073 132.167 12.4103C132.012 12.743 131.935 13.1075 131.935 13.504V14.2697C131.935 14.7937 132.023 15.2381 132.201 15.6027C132.383 15.9627 132.636 16.2361 132.96 16.423C133.284 16.6053 133.66 16.6964 134.088 16.6964C134.37 16.6964 134.626 16.6577 134.854 16.5802C135.081 16.4982 135.277 16.3774 135.441 16.2179C135.61 16.0538 135.738 15.8533 135.824 15.6163L137.239 15.9513C137.116 16.3432 136.909 16.6896 136.617 16.9904C136.33 17.2911 135.97 17.5258 135.537 17.6945C135.109 17.8585 134.621 17.9406 134.074 17.9406ZM139.01 17.7833V10.1407H140.466V11.3712H140.548C140.689 10.9519 140.935 10.6238 141.286 10.3868C141.637 10.1499 142.036 10.0314 142.482 10.0314C142.578 10.0314 142.688 10.0359 142.811 10.045C142.934 10.0496 143.036 10.0587 143.118 10.0724V11.5079C143.063 11.4897 142.959 11.4715 142.804 11.4532C142.649 11.435 142.492 11.4259 142.332 11.4259C141.986 11.4259 141.674 11.4988 141.396 11.6447C141.118 11.7905 140.901 11.9933 140.746 12.2531C140.591 12.5083 140.514 12.8045 140.514 13.1417V17.7833H139.01Z" fill="#111827"/>
<g clip-path="url(#clip0_3891_34949)">
<rect x="1.0332" y="28.7833" width="600" height="36" rx="4" fill="white"/>
<path d="M590.033 44.2833L585.033 49.2833L580.033 44.2833" stroke="#111827" stroke-linecap="round" stroke-linejoin="round"/>
</g>
<rect x="1.0332" y="28.7833" width="600" height="36" rx="4" stroke="#E4E4E7"/>
<rect x="1.5332" y="97.2833" width="177.667" height="103" rx="3.5" fill="white"/>
<rect x="1.5332" y="97.2833" width="177.667" height="103" rx="3.5" stroke="#E4E4E7"/>
<path fill-rule="evenodd" clip-rule="evenodd" d="M90.3667 148.783C99.2033 148.783 106.367 141.62 106.367 132.783C106.367 123.947 99.2033 116.783 90.3667 116.783C81.5328 116.783 74.371 123.942 74.3667 132.775H80.4546C80.4589 127.305 84.895 122.871 90.3667 122.871C95.841 122.871 100.279 127.309 100.279 132.783C100.279 138.258 95.841 142.695 90.3667 142.695L90.3474 142.695V148.783L90.3667 148.783ZM90.3472 136.389H84.16V142.576H90.3472V136.389ZM84.16 142.596H79.4056V138.62H75.4298V142.596H79.4054V147.351H84.16V142.596Z" fill="#111827"/>
<path d="M49.3032 175.783H46.7876V174.416H49.2212C49.9914 174.416 50.6317 174.273 51.1421 173.985C51.6525 173.698 52.0353 173.277 52.2905 172.721C52.5457 172.16 52.6733 171.479 52.6733 170.677C52.6733 169.879 52.5457 169.205 52.2905 168.653C52.0399 168.102 51.6639 167.683 51.1626 167.396C50.6659 167.109 50.0461 166.965 49.3032 166.965H46.7329V165.598H49.4058C50.4084 165.598 51.2674 165.801 51.9829 166.206C52.6984 166.612 53.2476 167.195 53.6304 167.956C54.0132 168.713 54.2046 169.62 54.2046 170.677C54.2046 171.739 54.0109 172.65 53.6235 173.411C53.2407 174.172 52.6825 174.758 51.9487 175.168C51.2196 175.578 50.3377 175.783 49.3032 175.783ZM47.5532 165.598V175.783H45.9946V165.598H47.5532ZM55.9819 175.783V168.141H57.4858V175.783H55.9819ZM56.7407 166.972C56.481 166.972 56.2576 166.885 56.0708 166.712C55.8885 166.539 55.7974 166.329 55.7974 166.083C55.7974 165.832 55.8885 165.621 56.0708 165.447C56.2576 165.274 56.481 165.188 56.7407 165.188C57.0005 165.188 57.2238 165.274 57.4106 165.447C57.5975 165.621 57.6909 165.832 57.6909 166.083C57.6909 166.329 57.5975 166.539 57.4106 166.712C57.2238 166.885 57.0005 166.972 56.7407 166.972ZM62.7017 178.805C62.1138 178.805 61.6034 178.73 61.1704 178.579C60.7375 178.429 60.3797 178.228 60.0972 177.978C59.8192 177.727 59.6073 177.449 59.4614 177.144L60.7192 176.549C60.8104 176.695 60.9312 176.847 61.0815 177.007C61.2365 177.171 61.4438 177.31 61.7036 177.424C61.9634 177.538 62.2961 177.595 62.7017 177.595C63.285 177.595 63.7567 177.456 64.1167 177.178C64.4813 176.904 64.6636 176.474 64.6636 175.886V174.396H64.5337C64.4425 174.564 64.3149 174.747 64.1509 174.943C63.9914 175.138 63.7658 175.309 63.4741 175.455C63.187 175.596 62.811 175.667 62.3462 175.667C61.7446 175.667 61.2023 175.526 60.7192 175.243C60.2407 174.961 59.8602 174.541 59.5776 173.985C59.2951 173.429 59.1538 172.746 59.1538 171.935C59.1538 171.123 59.2928 170.429 59.5708 169.85C59.8534 169.266 60.2362 168.82 60.7192 168.51C61.2069 168.2 61.756 168.045 62.3667 168.045C62.8361 168.045 63.2166 168.123 63.5083 168.277C63.8045 168.432 64.0347 168.617 64.1987 168.831C64.3674 169.041 64.495 169.225 64.5815 169.385H64.6909V168.141H66.1606V175.893C66.1606 176.563 66.008 177.112 65.7026 177.54C65.4019 177.973 64.9894 178.292 64.4653 178.497C63.9458 178.702 63.3579 178.805 62.7017 178.805ZM62.6948 174.416C63.1232 174.416 63.4832 174.318 63.7749 174.122C64.0711 173.922 64.2944 173.635 64.4448 173.261C64.5952 172.883 64.6704 172.434 64.6704 171.914C64.6704 171.399 64.5952 170.948 64.4448 170.561C64.2944 170.173 64.0711 169.87 63.7749 169.651C63.4832 169.433 63.1232 169.323 62.6948 169.323C62.2528 169.323 61.8836 169.44 61.5874 169.672C61.2912 169.9 61.0679 170.21 60.9175 170.602C60.7671 170.989 60.6919 171.427 60.6919 171.914C60.6919 172.411 60.7671 172.848 60.9175 173.227C61.0679 173.6 61.2912 173.892 61.5874 174.102C61.8882 174.311 62.2573 174.416 62.6948 174.416ZM68.1909 175.783V168.141H69.6948V175.783H68.1909ZM68.9497 166.972C68.6899 166.972 68.4666 166.885 68.2798 166.712C68.0975 166.539 68.0063 166.329 68.0063 166.083C68.0063 165.832 68.0975 165.621 68.2798 165.447C68.4666 165.274 68.6899 165.188 68.9497 165.188C69.2095 165.188 69.4328 165.274 69.6196 165.447C69.8065 165.621 69.8999 165.832 69.8999 166.083C69.8999 166.329 69.8065 166.539 69.6196 166.712C69.4328 166.885 69.2095 166.972 68.9497 166.972ZM74.9858 168.141V169.364H70.8433V168.141H74.9858ZM71.9575 166.322H73.4614V173.719C73.4614 174.024 73.5252 174.25 73.6528 174.396C73.785 174.537 73.9992 174.608 74.2954 174.608C74.3729 174.608 74.4754 174.598 74.603 174.58C74.7306 174.562 74.84 174.544 74.9312 174.526L75.1978 175.729C75.0382 175.783 74.8674 175.822 74.6851 175.845C74.5028 175.872 74.3228 175.886 74.145 175.886C73.4523 175.886 72.9146 175.708 72.5317 175.353C72.1489 174.993 71.9575 174.489 71.9575 173.842V166.322ZM79.1899 175.934C78.5747 175.934 78.0256 175.776 77.5425 175.462C77.064 175.143 76.6857 174.69 76.4077 174.102C76.1343 173.509 75.9976 172.803 75.9976 171.983C75.9976 171.153 76.1366 170.444 76.4146 169.857C76.6971 169.269 77.0799 168.82 77.563 168.51C78.0506 168.2 78.5998 168.045 79.2104 168.045C79.6799 168.045 80.0581 168.123 80.3452 168.277C80.6369 168.432 80.8625 168.617 81.022 168.831C81.186 169.041 81.3114 169.225 81.3979 169.385H81.4937V168.141H82.9839V175.783H81.5005V174.587H81.3979C81.3114 174.751 81.1838 174.94 81.0151 175.154C80.8465 175.364 80.6164 175.546 80.3247 175.701C80.033 175.856 79.6548 175.934 79.1899 175.934ZM79.5386 174.655C79.967 174.655 80.327 174.541 80.6187 174.314C80.9149 174.086 81.1382 173.771 81.2886 173.37C81.439 172.965 81.5142 172.498 81.5142 171.969C81.5142 171.436 81.439 170.973 81.2886 170.581C81.1382 170.185 80.9149 169.877 80.6187 169.658C80.327 169.435 79.967 169.323 79.5386 169.323C79.0965 169.323 78.7274 169.44 78.4312 169.672C78.1349 169.9 77.9116 170.214 77.7612 170.615C77.6108 171.012 77.5356 171.463 77.5356 171.969C77.5356 172.475 77.6108 172.93 77.7612 173.336C77.9116 173.742 78.1349 174.063 78.4312 174.3C78.7319 174.537 79.1011 174.655 79.5386 174.655ZM86.5112 165.598V175.783H85.0073V165.598H86.5112ZM96.6284 175.92C95.7489 175.92 94.9604 175.713 94.2632 175.298C93.5705 174.879 93.0236 174.279 92.6226 173.5C92.2261 172.716 92.0278 171.782 92.0278 170.697C92.0278 169.608 92.2261 168.674 92.6226 167.895C93.0236 167.111 93.5705 166.509 94.2632 166.09C94.9604 165.671 95.7489 165.461 96.6284 165.461C97.508 165.461 98.2918 165.671 98.98 166.09C99.6727 166.509 100.217 167.111 100.614 167.895C101.015 168.674 101.215 169.608 101.215 170.697C101.215 171.782 101.015 172.716 100.614 173.5C100.217 174.279 99.6727 174.879 98.98 175.298C98.2918 175.713 97.508 175.92 96.6284 175.92ZM96.6284 174.498C97.2072 174.498 97.7244 174.355 98.1802 174.068C98.6405 173.776 99.0028 173.347 99.2671 172.782C99.536 172.213 99.6704 171.518 99.6704 170.697C99.6704 169.868 99.536 169.171 99.2671 168.606C99.0028 168.036 98.6405 167.608 98.1802 167.32C97.7244 167.029 97.2072 166.883 96.6284 166.883C96.0451 166.883 95.5233 167.029 95.063 167.32C94.6027 167.612 94.2381 168.043 93.9692 168.612C93.7049 169.178 93.5728 169.873 93.5728 170.697C93.5728 171.518 93.7049 172.21 93.9692 172.776C94.2381 173.341 94.6027 173.769 95.063 174.061C95.5233 174.352 96.0451 174.498 96.6284 174.498ZM106.212 175.941C105.492 175.941 104.866 175.776 104.333 175.448C103.799 175.12 103.385 174.66 103.088 174.068C102.792 173.475 102.644 172.787 102.644 172.003C102.644 171.21 102.792 170.517 103.088 169.925C103.385 169.328 103.799 168.865 104.333 168.537C104.866 168.209 105.492 168.045 106.212 168.045C106.609 168.045 106.98 168.097 107.327 168.202C107.673 168.303 107.985 168.451 108.263 168.647C108.546 168.838 108.783 169.075 108.974 169.358C109.17 169.636 109.316 169.95 109.412 170.301L107.983 170.643C107.933 170.447 107.855 170.269 107.75 170.109C107.646 169.945 107.518 169.804 107.368 169.686C107.222 169.567 107.051 169.476 106.855 169.412C106.664 169.348 106.452 169.317 106.219 169.317C105.759 169.317 105.376 169.44 105.071 169.686C104.77 169.927 104.544 170.251 104.394 170.656C104.248 171.062 104.175 171.511 104.175 172.003C104.175 172.491 104.248 172.937 104.394 173.343C104.544 173.744 104.77 174.065 105.071 174.307C105.376 174.548 105.759 174.669 106.219 174.669C106.456 174.669 106.673 174.637 106.869 174.573C107.065 174.505 107.24 174.412 107.395 174.293C107.55 174.17 107.68 174.024 107.785 173.856C107.889 173.682 107.965 173.493 108.01 173.288L109.432 173.63C109.341 173.99 109.197 174.314 109.001 174.601C108.806 174.883 108.566 175.125 108.284 175.325C108.006 175.526 107.691 175.679 107.34 175.783C106.989 175.888 106.613 175.941 106.212 175.941ZM114.375 175.941C113.623 175.941 112.973 175.779 112.426 175.455C111.879 175.132 111.458 174.676 111.162 174.088C110.87 173.5 110.724 172.81 110.724 172.017C110.724 171.233 110.868 170.542 111.155 169.945C111.446 169.348 111.857 168.884 112.385 168.551C112.914 168.214 113.534 168.045 114.245 168.045C114.682 168.045 115.104 168.118 115.509 168.264C115.915 168.405 116.279 168.628 116.603 168.934C116.927 169.239 117.182 169.636 117.369 170.123C117.56 170.606 117.656 171.194 117.656 171.887V172.42H111.565V171.299H116.883L116.179 171.668C116.179 171.199 116.106 170.786 115.96 170.431C115.815 170.071 115.598 169.79 115.311 169.59C115.028 169.389 114.673 169.289 114.245 169.289C113.821 169.289 113.458 169.392 113.158 169.597C112.857 169.802 112.627 170.073 112.467 170.41C112.312 170.743 112.235 171.108 112.235 171.504V172.27C112.235 172.794 112.324 173.238 112.501 173.603C112.684 173.963 112.937 174.236 113.26 174.423C113.584 174.605 113.96 174.696 114.388 174.696C114.671 174.696 114.926 174.658 115.154 174.58C115.382 174.498 115.578 174.377 115.742 174.218C115.91 174.054 116.038 173.853 116.125 173.616L117.54 173.951C117.417 174.343 117.209 174.69 116.917 174.99C116.63 175.291 116.27 175.526 115.837 175.694C115.409 175.859 114.921 175.941 114.375 175.941ZM122.147 175.934C121.532 175.934 120.983 175.776 120.5 175.462C120.021 175.143 119.643 174.69 119.365 174.102C119.091 173.509 118.955 172.803 118.955 171.983C118.955 171.153 119.094 170.444 119.372 169.857C119.654 169.269 120.037 168.82 120.52 168.51C121.008 168.2 121.557 168.045 122.167 168.045C122.637 168.045 123.015 168.123 123.302 168.277C123.594 168.432 123.819 168.617 123.979 168.831C124.143 169.041 124.268 169.225 124.355 169.385H124.451V168.141H125.941V175.783H124.458V174.587H124.355C124.268 174.751 124.141 174.94 123.972 175.154C123.804 175.364 123.573 175.546 123.282 175.701C122.99 175.856 122.612 175.934 122.147 175.934ZM122.496 174.655C122.924 174.655 123.284 174.541 123.576 174.314C123.872 174.086 124.095 173.771 124.246 173.37C124.396 172.965 124.471 172.498 124.471 171.969C124.471 171.436 124.396 170.973 124.246 170.581C124.095 170.185 123.872 169.877 123.576 169.658C123.284 169.435 122.924 169.323 122.496 169.323C122.054 169.323 121.684 169.44 121.388 169.672C121.092 169.9 120.869 170.214 120.718 170.615C120.568 171.012 120.493 171.463 120.493 171.969C120.493 172.475 120.568 172.93 120.718 173.336C120.869 173.742 121.092 174.063 121.388 174.3C121.689 174.537 122.058 174.655 122.496 174.655ZM129.468 171.258V175.783H127.964V168.141H129.4L129.414 170.014H129.256C129.48 169.33 129.803 168.831 130.227 168.517C130.651 168.202 131.164 168.045 131.765 168.045C132.285 168.045 132.738 168.154 133.125 168.373C133.513 168.592 133.816 168.915 134.035 169.344C134.253 169.768 134.363 170.296 134.363 170.93V175.783H132.859V171.114C132.859 170.563 132.715 170.132 132.428 169.822C132.141 169.512 131.747 169.358 131.246 169.358C130.908 169.358 130.605 169.433 130.336 169.583C130.068 169.729 129.856 169.943 129.701 170.226C129.546 170.508 129.468 170.852 129.468 171.258Z" fill="#111827"/>
<rect x="212.2" y="97.2833" width="177.667" height="103" rx="3.5" fill="white"/>
<rect x="212.2" y="97.2833" width="177.667" height="103" rx="3.5" stroke="#E4E4E7"/>
<path fill-rule="evenodd" clip-rule="evenodd" d="M294.051 130.165C294.051 130.559 294.094 130.878 294.168 131.112C294.253 131.347 294.36 131.602 294.509 131.879C294.562 131.964 294.583 132.049 294.583 132.124C294.583 132.23 294.52 132.336 294.381 132.443L293.711 132.89C293.615 132.954 293.519 132.986 293.434 132.986C293.328 132.986 293.221 132.932 293.115 132.837C292.966 132.677 292.838 132.507 292.732 132.336C292.625 132.155 292.519 131.953 292.402 131.708C291.571 132.688 290.528 133.177 289.273 133.177C288.379 133.177 287.666 132.922 287.144 132.411C286.623 131.9 286.356 131.219 286.356 130.367C286.356 129.463 286.676 128.728 287.325 128.175C287.974 127.622 288.836 127.345 289.932 127.345C290.294 127.345 290.667 127.377 291.061 127.43C291.454 127.483 291.859 127.568 292.285 127.664V126.887C292.285 126.078 292.114 125.514 291.784 125.184C291.444 124.854 290.869 124.695 290.05 124.695C289.677 124.695 289.294 124.737 288.9 124.833C288.506 124.929 288.123 125.046 287.751 125.195C287.58 125.27 287.453 125.312 287.378 125.333C287.304 125.355 287.25 125.365 287.208 125.365C287.059 125.365 286.984 125.259 286.984 125.035V124.514C286.984 124.344 287.006 124.216 287.059 124.141C287.112 124.067 287.208 123.992 287.357 123.918C287.729 123.726 288.176 123.567 288.698 123.439C289.219 123.301 289.773 123.237 290.358 123.237C291.625 123.237 292.551 123.524 293.147 124.099C293.732 124.674 294.03 125.546 294.03 126.717V130.165H294.051ZM289.73 131.783C290.081 131.783 290.443 131.719 290.826 131.591C291.21 131.464 291.55 131.23 291.838 130.91C292.008 130.708 292.136 130.485 292.199 130.229C292.263 129.974 292.306 129.665 292.306 129.303V128.856C291.997 128.782 291.667 128.718 291.327 128.675C290.986 128.633 290.656 128.611 290.326 128.611C289.613 128.611 289.092 128.75 288.74 129.037C288.389 129.324 288.219 129.729 288.219 130.261C288.219 130.761 288.347 131.134 288.613 131.389C288.868 131.655 289.241 131.783 289.73 131.783ZM298.276 132.932C298.085 132.932 297.957 132.9 297.872 132.826C297.787 132.762 297.712 132.613 297.649 132.411L295.147 124.184C295.084 123.971 295.052 123.833 295.052 123.758C295.052 123.588 295.137 123.492 295.307 123.492H296.35C296.552 123.492 296.691 123.524 296.765 123.599C296.85 123.662 296.914 123.811 296.978 124.014L298.766 131.059L300.426 124.014C300.48 123.801 300.543 123.662 300.629 123.599C300.714 123.535 300.863 123.492 301.054 123.492H301.906C302.108 123.492 302.246 123.524 302.331 123.599C302.417 123.662 302.491 123.811 302.534 124.014L304.215 131.144L306.056 124.014C306.12 123.801 306.195 123.662 306.269 123.599C306.354 123.535 306.493 123.492 306.684 123.492H307.674C307.844 123.492 307.94 123.577 307.94 123.758C307.94 123.804 307.932 123.849 307.924 123.901L307.919 123.929C307.908 123.992 307.887 124.078 307.844 124.195L305.279 132.422C305.216 132.634 305.141 132.773 305.056 132.837C304.971 132.9 304.832 132.943 304.652 132.943H303.736C303.534 132.943 303.396 132.911 303.311 132.837C303.225 132.762 303.151 132.624 303.108 132.411L301.459 125.546L299.82 132.4C299.766 132.613 299.703 132.751 299.617 132.826C299.532 132.9 299.383 132.932 299.192 132.932H298.276ZM311.953 133.22C311.399 133.22 310.846 133.156 310.314 133.028C309.781 132.9 309.366 132.762 309.09 132.602C308.919 132.507 308.802 132.4 308.76 132.304C308.717 132.209 308.696 132.102 308.696 132.006V131.464C308.696 131.24 308.781 131.134 308.941 131.134C309.004 131.134 309.068 131.144 309.132 131.166C309.173 131.179 309.228 131.202 309.29 131.228L309.29 131.228C309.324 131.242 309.361 131.257 309.398 131.272C309.76 131.432 310.154 131.559 310.569 131.645C310.995 131.73 311.41 131.772 311.835 131.772C312.506 131.772 313.027 131.655 313.389 131.421C313.751 131.187 313.943 130.846 313.943 130.41C313.943 130.112 313.847 129.867 313.655 129.665C313.464 129.463 313.102 129.282 312.58 129.112L311.037 128.633C310.26 128.388 309.686 128.026 309.334 127.547C308.983 127.079 308.802 126.557 308.802 126.004C308.802 125.557 308.898 125.163 309.09 124.823C309.281 124.482 309.537 124.184 309.856 123.95C310.175 123.705 310.537 123.524 310.963 123.396C311.388 123.269 311.835 123.215 312.304 123.215C312.538 123.215 312.783 123.226 313.017 123.258C313.262 123.29 313.485 123.333 313.709 123.375C313.921 123.428 314.124 123.482 314.315 123.545C314.507 123.609 314.656 123.673 314.762 123.737C314.911 123.822 315.018 123.907 315.082 124.003C315.145 124.088 315.177 124.205 315.177 124.354V124.854C315.177 125.078 315.092 125.195 314.933 125.195C314.847 125.195 314.709 125.152 314.528 125.067C313.921 124.791 313.24 124.652 312.485 124.652C311.878 124.652 311.399 124.748 311.069 124.95C310.739 125.152 310.569 125.461 310.569 125.897C310.569 126.195 310.675 126.451 310.888 126.653C311.101 126.855 311.495 127.058 312.059 127.238L313.57 127.717C314.337 127.962 314.89 128.303 315.22 128.739C315.55 129.175 315.709 129.676 315.709 130.229C315.709 130.687 315.614 131.102 315.433 131.464C315.241 131.826 314.986 132.145 314.656 132.4C314.326 132.666 313.932 132.858 313.474 132.996C312.996 133.145 312.495 133.22 311.953 133.22ZM313.964 138.392C310.462 140.978 305.375 142.351 301.001 142.351C294.871 142.351 289.347 140.084 285.175 136.317C284.845 136.019 285.143 135.614 285.537 135.848C290.049 138.467 295.616 140.052 301.373 140.052C305.258 140.052 309.526 139.243 313.453 137.583C314.038 137.317 314.539 137.966 313.964 138.392ZM311.324 136.593C312.463 136.455 314.975 136.157 315.422 136.732C315.869 137.296 314.922 139.669 314.496 140.723C314.368 141.042 314.645 141.17 314.932 140.925C316.806 139.35 317.295 136.061 316.912 135.582C316.529 135.114 313.24 134.71 311.239 136.114C310.931 136.338 310.984 136.636 311.324 136.593Z" fill="#111827"/>
<path d="M225.382 175.783L229.005 165.598H230.919L234.61 175.783H232.922L230.939 170.116C230.785 169.656 230.614 169.114 230.427 168.489C230.244 167.865 230.033 167.115 229.791 166.24H230.105C229.873 167.124 229.663 167.883 229.477 168.517C229.294 169.146 229.132 169.679 228.991 170.116L227.07 175.783H225.382ZM227.344 173.097V171.798H232.642V173.097H227.344ZM235.971 175.783V168.141H237.399L237.44 169.911H237.324C237.434 169.478 237.602 169.123 237.83 168.845C238.058 168.567 238.325 168.359 238.63 168.223C238.935 168.082 239.254 168.011 239.587 168.011C240.143 168.011 240.592 168.184 240.934 168.53C241.275 168.872 241.506 169.351 241.624 169.966H241.433C241.533 169.547 241.706 169.191 241.952 168.9C242.198 168.608 242.494 168.387 242.841 168.236C243.192 168.086 243.565 168.011 243.962 168.011C244.413 168.011 244.821 168.109 245.186 168.305C245.555 168.501 245.846 168.792 246.061 169.18C246.275 169.567 246.382 170.05 246.382 170.629V175.783H244.871V170.779C244.871 170.269 244.73 169.9 244.447 169.672C244.165 169.444 243.83 169.33 243.442 169.33C243.128 169.33 242.857 169.396 242.629 169.528C242.401 169.661 242.226 169.845 242.103 170.082C241.979 170.315 241.918 170.583 241.918 170.889V175.783H240.435V170.684C240.435 170.274 240.302 169.945 240.038 169.699C239.778 169.453 239.446 169.33 239.04 169.33C238.762 169.33 238.502 169.396 238.261 169.528C238.024 169.656 237.832 169.847 237.687 170.103C237.545 170.353 237.475 170.663 237.475 171.032V175.783H235.971ZM251.249 175.934C250.634 175.934 250.085 175.776 249.602 175.462C249.123 175.143 248.745 174.69 248.467 174.102C248.193 173.509 248.057 172.803 248.057 171.983C248.057 171.153 248.196 170.444 248.474 169.857C248.756 169.269 249.139 168.82 249.622 168.51C250.11 168.2 250.659 168.045 251.27 168.045C251.739 168.045 252.117 168.123 252.404 168.277C252.696 168.432 252.922 168.617 253.081 168.831C253.245 169.041 253.37 169.225 253.457 169.385H253.553V168.141H255.043V175.783H253.56V174.587H253.457C253.37 174.751 253.243 174.94 253.074 175.154C252.906 175.364 252.675 175.546 252.384 175.701C252.092 175.856 251.714 175.934 251.249 175.934ZM251.598 174.655C252.026 174.655 252.386 174.541 252.678 174.314C252.974 174.086 253.197 173.771 253.348 173.37C253.498 172.965 253.573 172.498 253.573 171.969C253.573 171.436 253.498 170.973 253.348 170.581C253.197 170.185 252.974 169.877 252.678 169.658C252.386 169.435 252.026 169.323 251.598 169.323C251.156 169.323 250.786 169.44 250.49 169.672C250.194 169.9 249.971 170.214 249.82 170.615C249.67 171.012 249.595 171.463 249.595 171.969C249.595 172.475 249.67 172.93 249.82 173.336C249.971 173.742 250.194 174.063 250.49 174.3C250.791 174.537 251.16 174.655 251.598 174.655ZM256.902 175.783V174.758L261.018 169.522V169.453H257.032V168.141H262.897V169.248L258.939 174.402V174.471H263.034V175.783H256.902ZM267.881 175.941C267.165 175.941 266.539 175.776 266.001 175.448C265.468 175.12 265.053 174.66 264.757 174.068C264.461 173.475 264.312 172.787 264.312 172.003C264.312 171.21 264.461 170.517 264.757 169.925C265.053 169.328 265.468 168.865 266.001 168.537C266.539 168.209 267.165 168.045 267.881 168.045C268.601 168.045 269.228 168.209 269.761 168.537C270.299 168.865 270.715 169.328 271.012 169.925C271.308 170.517 271.456 171.21 271.456 172.003C271.456 172.787 271.308 173.475 271.012 174.068C270.715 174.66 270.299 175.12 269.761 175.448C269.228 175.776 268.601 175.941 267.881 175.941ZM267.881 174.669C268.346 174.669 268.729 174.548 269.029 174.307C269.335 174.061 269.56 173.737 269.706 173.336C269.856 172.93 269.932 172.486 269.932 172.003C269.932 171.515 269.856 171.069 269.706 170.663C269.56 170.253 269.335 169.927 269.029 169.686C268.729 169.44 268.346 169.317 267.881 169.317C267.421 169.317 267.04 169.44 266.739 169.686C266.438 169.927 266.213 170.251 266.062 170.656C265.917 171.062 265.844 171.511 265.844 172.003C265.844 172.486 265.917 172.93 266.062 173.336C266.213 173.737 266.438 174.061 266.739 174.307C267.04 174.548 267.421 174.669 267.881 174.669ZM274.635 171.258V175.783H273.131V168.141H274.566L274.58 170.014H274.423C274.646 169.33 274.97 168.831 275.394 168.517C275.817 168.202 276.33 168.045 276.932 168.045C277.451 168.045 277.905 168.154 278.292 168.373C278.679 168.592 278.982 168.915 279.201 169.344C279.42 169.768 279.529 170.296 279.529 170.93V175.783H278.025V171.114C278.025 170.563 277.882 170.132 277.595 169.822C277.308 169.512 276.913 169.358 276.412 169.358C276.075 169.358 275.772 169.433 275.503 169.583C275.234 169.729 275.022 169.943 274.867 170.226C274.712 170.508 274.635 170.852 274.635 171.258ZM287.384 175.783L284.622 165.598H286.263L287.732 171.436C287.824 171.796 287.908 172.169 287.985 172.557C288.063 172.944 288.138 173.336 288.211 173.733C288.288 174.129 288.361 174.526 288.43 174.922H288.197C288.27 174.526 288.345 174.129 288.423 173.733C288.5 173.336 288.58 172.944 288.662 172.557C288.744 172.169 288.833 171.796 288.929 171.436L290.439 165.598H292.148L293.646 171.436C293.741 171.796 293.83 172.169 293.912 172.557C293.994 172.944 294.074 173.336 294.151 173.733C294.233 174.129 294.311 174.526 294.384 174.922H294.138C294.211 174.526 294.284 174.129 294.356 173.733C294.429 173.336 294.507 172.944 294.589 172.557C294.675 172.169 294.76 171.796 294.842 171.436L296.312 165.598H297.966L295.19 175.783H293.393L291.772 169.747C291.649 169.273 291.535 168.758 291.431 168.202C291.326 167.646 291.219 167.036 291.109 166.37H291.465C291.351 167.008 291.246 167.598 291.15 168.141C291.059 168.683 290.943 169.219 290.802 169.747L289.188 175.783H287.384ZM301.91 175.941C301.158 175.941 300.509 175.779 299.962 175.455C299.415 175.132 298.993 174.676 298.697 174.088C298.406 173.5 298.26 172.81 298.26 172.017C298.26 171.233 298.403 170.542 298.69 169.945C298.982 169.348 299.392 168.884 299.921 168.551C300.45 168.214 301.069 168.045 301.78 168.045C302.218 168.045 302.639 168.118 303.045 168.264C303.451 168.405 303.815 168.628 304.139 168.934C304.462 169.239 304.717 169.636 304.904 170.123C305.096 170.606 305.191 171.194 305.191 171.887V172.42H299.101V171.299H304.419L303.715 171.668C303.715 171.199 303.642 170.786 303.496 170.431C303.35 170.071 303.134 169.79 302.847 169.59C302.564 169.389 302.209 169.289 301.78 169.289C301.356 169.289 300.994 169.392 300.693 169.597C300.393 169.802 300.162 170.073 300.003 170.41C299.848 170.743 299.771 171.108 299.771 171.504V172.27C299.771 172.794 299.859 173.238 300.037 173.603C300.219 173.963 300.472 174.236 300.796 174.423C301.119 174.605 301.495 174.696 301.924 174.696C302.206 174.696 302.462 174.658 302.689 174.58C302.917 174.498 303.113 174.377 303.277 174.218C303.446 174.054 303.574 173.853 303.66 173.616L305.075 173.951C304.952 174.343 304.745 174.69 304.453 174.99C304.166 175.291 303.806 175.526 303.373 175.694C302.945 175.859 302.457 175.941 301.91 175.941ZM310.64 175.934C310.179 175.934 309.801 175.856 309.505 175.701C309.213 175.542 308.983 175.357 308.814 175.148C308.65 174.938 308.523 174.751 308.432 174.587H308.309V175.783H306.846V165.598H308.35V169.385H308.432C308.523 169.225 308.648 169.041 308.808 168.831C308.972 168.622 309.197 168.439 309.484 168.284C309.776 168.125 310.161 168.045 310.64 168.045C311.25 168.045 311.795 168.2 312.273 168.51C312.757 168.82 313.137 169.269 313.415 169.857C313.693 170.444 313.832 171.153 313.832 171.983C313.832 172.803 313.695 173.509 313.422 174.102C313.148 174.69 312.77 175.143 312.287 175.462C311.809 175.776 311.259 175.934 310.64 175.934ZM310.305 174.655C310.742 174.655 311.109 174.537 311.405 174.3C311.701 174.063 311.923 173.742 312.068 173.336C312.219 172.93 312.294 172.475 312.294 171.969C312.294 171.468 312.219 171.019 312.068 170.622C311.923 170.221 311.701 169.904 311.405 169.672C311.114 169.44 310.747 169.323 310.305 169.323C309.876 169.323 309.514 169.435 309.218 169.658C308.922 169.877 308.698 170.185 308.548 170.581C308.397 170.973 308.322 171.436 308.322 171.969C308.322 172.498 308.397 172.965 308.548 173.37C308.703 173.771 308.928 174.086 309.225 174.314C309.521 174.541 309.881 174.655 310.305 174.655ZM322.767 175.954C322.006 175.954 321.345 175.833 320.784 175.592C320.224 175.35 319.784 175.006 319.465 174.56C319.15 174.109 318.977 173.573 318.945 172.953H320.511C320.543 173.322 320.661 173.628 320.866 173.869C321.076 174.111 321.347 174.291 321.68 174.409C322.012 174.528 322.372 174.587 322.76 174.587C323.193 174.587 323.576 174.521 323.908 174.389C324.245 174.252 324.512 174.061 324.708 173.815C324.904 173.564 325.002 173.275 325.002 172.946C325.002 172.65 324.915 172.409 324.742 172.222C324.574 172.03 324.343 171.873 324.052 171.75C323.765 171.623 323.437 171.511 323.067 171.415L321.878 171.087C321.044 170.864 320.392 170.533 319.923 170.096C319.458 169.658 319.226 169.091 319.226 168.394C319.226 167.806 319.383 167.293 319.697 166.856C320.016 166.414 320.447 166.072 320.989 165.83C321.536 165.584 322.151 165.461 322.835 165.461C323.532 165.461 324.145 165.584 324.674 165.83C325.207 166.072 325.624 166.404 325.925 166.828C326.23 167.252 326.39 167.735 326.403 168.277H324.886C324.836 167.813 324.619 167.453 324.236 167.197C323.858 166.942 323.38 166.815 322.801 166.815C322.391 166.815 322.033 166.878 321.728 167.006C321.427 167.134 321.192 167.311 321.023 167.539C320.859 167.762 320.777 168.018 320.777 168.305C320.777 168.628 320.875 168.89 321.071 169.091C321.272 169.287 321.513 169.444 321.796 169.563C322.083 169.677 322.356 169.768 322.616 169.836L323.607 170.096C323.931 170.178 324.264 170.29 324.605 170.431C324.952 170.568 325.271 170.748 325.562 170.971C325.854 171.19 326.089 171.463 326.267 171.791C326.449 172.115 326.54 172.507 326.54 172.967C326.54 173.541 326.392 174.054 326.096 174.505C325.799 174.956 325.369 175.312 324.804 175.571C324.243 175.827 323.564 175.954 322.767 175.954ZM331.578 175.941C330.826 175.941 330.177 175.779 329.63 175.455C329.083 175.132 328.661 174.676 328.365 174.088C328.074 173.5 327.928 172.81 327.928 172.017C327.928 171.233 328.071 170.542 328.358 169.945C328.65 169.348 329.06 168.884 329.589 168.551C330.118 168.214 330.737 168.045 331.448 168.045C331.886 168.045 332.307 168.118 332.713 168.264C333.118 168.405 333.483 168.628 333.807 168.934C334.13 169.239 334.385 169.636 334.572 170.123C334.764 170.606 334.859 171.194 334.859 171.887V172.42H328.769V171.299H334.087L333.383 171.668C333.383 171.199 333.31 170.786 333.164 170.431C333.018 170.071 332.802 169.79 332.515 169.59C332.232 169.389 331.877 169.289 331.448 169.289C331.024 169.289 330.662 169.392 330.361 169.597C330.061 169.802 329.83 170.073 329.671 170.41C329.516 170.743 329.438 171.108 329.438 171.504V172.27C329.438 172.794 329.527 173.238 329.705 173.603C329.887 173.963 330.14 174.236 330.464 174.423C330.787 174.605 331.163 174.696 331.592 174.696C331.874 174.696 332.13 174.658 332.357 174.58C332.585 174.498 332.781 174.377 332.945 174.218C333.114 174.054 333.242 173.853 333.328 173.616L334.743 173.951C334.62 174.343 334.413 174.69 334.121 174.99C333.834 175.291 333.474 175.526 333.041 175.694C332.613 175.859 332.125 175.941 331.578 175.941ZM336.514 175.783V168.141H337.97V169.371H338.052C338.193 168.952 338.439 168.624 338.79 168.387C339.141 168.15 339.54 168.031 339.986 168.031C340.082 168.031 340.191 168.036 340.314 168.045C340.438 168.05 340.54 168.059 340.622 168.072V169.508C340.567 169.49 340.463 169.471 340.308 169.453C340.153 169.435 339.995 169.426 339.836 169.426C339.49 169.426 339.177 169.499 338.899 169.645C338.621 169.79 338.405 169.993 338.25 170.253C338.095 170.508 338.018 170.804 338.018 171.142V175.783H336.514ZM344.334 175.783L341.449 168.141H343.076L344.587 172.482C344.756 172.96 344.899 173.441 345.018 173.924C345.136 174.402 345.261 174.879 345.394 175.353H344.942C345.07 174.879 345.193 174.402 345.312 173.924C345.43 173.441 345.571 172.96 345.735 172.482L347.246 168.141H348.859L345.975 175.783H344.334ZM350.199 175.783V168.141H351.703V175.783H350.199ZM350.958 166.972C350.698 166.972 350.475 166.885 350.288 166.712C350.106 166.539 350.015 166.329 350.015 166.083C350.015 165.832 350.106 165.621 350.288 165.447C350.475 165.274 350.698 165.188 350.958 165.188C351.218 165.188 351.441 165.274 351.628 165.447C351.815 165.621 351.908 165.832 351.908 166.083C351.908 166.329 351.815 166.539 351.628 166.712C351.441 166.885 351.218 166.972 350.958 166.972ZM356.939 175.941C356.219 175.941 355.593 175.776 355.06 175.448C354.526 175.12 354.112 174.66 353.815 174.068C353.519 173.475 353.371 172.787 353.371 172.003C353.371 171.21 353.519 170.517 353.815 169.925C354.112 169.328 354.526 168.865 355.06 168.537C355.593 168.209 356.219 168.045 356.939 168.045C357.336 168.045 357.707 168.097 358.054 168.202C358.4 168.303 358.712 168.451 358.99 168.647C359.273 168.838 359.51 169.075 359.701 169.358C359.897 169.636 360.043 169.95 360.139 170.301L358.71 170.643C358.66 170.447 358.582 170.269 358.478 170.109C358.373 169.945 358.245 169.804 358.095 169.686C357.949 169.567 357.778 169.476 357.582 169.412C357.391 169.348 357.179 169.317 356.946 169.317C356.486 169.317 356.103 169.44 355.798 169.686C355.497 169.927 355.271 170.251 355.121 170.656C354.975 171.062 354.902 171.511 354.902 172.003C354.902 172.491 354.975 172.937 355.121 173.343C355.271 173.744 355.497 174.065 355.798 174.307C356.103 174.548 356.486 174.669 356.946 174.669C357.183 174.669 357.4 174.637 357.596 174.573C357.792 174.505 357.967 174.412 358.122 174.293C358.277 174.17 358.407 174.024 358.512 173.856C358.617 173.682 358.692 173.493 358.737 173.288L360.159 173.63C360.068 173.99 359.924 174.314 359.729 174.601C359.533 174.883 359.293 175.125 359.011 175.325C358.733 175.526 358.418 175.679 358.067 175.783C357.716 175.888 357.34 175.941 356.939 175.941ZM365.102 175.941C364.35 175.941 363.7 175.779 363.153 175.455C362.606 175.132 362.185 174.676 361.889 174.088C361.597 173.5 361.451 172.81 361.451 172.017C361.451 171.233 361.595 170.542 361.882 169.945C362.174 169.348 362.584 168.884 363.112 168.551C363.641 168.214 364.261 168.045 364.972 168.045C365.409 168.045 365.831 168.118 366.236 168.264C366.642 168.405 367.007 168.628 367.33 168.934C367.654 169.239 367.909 169.636 368.096 170.123C368.287 170.606 368.383 171.194 368.383 171.887V172.42H362.292V171.299H367.61L366.906 171.668C366.906 171.199 366.833 170.786 366.688 170.431C366.542 170.071 366.325 169.79 366.038 169.59C365.756 169.389 365.4 169.289 364.972 169.289C364.548 169.289 364.186 169.392 363.885 169.597C363.584 169.802 363.354 170.073 363.194 170.41C363.039 170.743 362.962 171.108 362.962 171.504V172.27C362.962 172.794 363.051 173.238 363.229 173.603C363.411 173.963 363.664 174.236 363.987 174.423C364.311 174.605 364.687 174.696 365.115 174.696C365.398 174.696 365.653 174.658 365.881 174.58C366.109 174.498 366.305 174.377 366.469 174.218C366.637 174.054 366.765 173.853 366.852 173.616L368.267 173.951C368.144 174.343 367.936 174.69 367.645 174.99C367.357 175.291 366.997 175.526 366.564 175.694C366.136 175.859 365.648 175.941 365.102 175.941ZM372.778 175.941C372.227 175.941 371.735 175.861 371.302 175.701C370.873 175.542 370.52 175.307 370.242 174.997C369.969 174.683 369.786 174.3 369.695 173.849L371.11 173.555C371.215 173.951 371.411 174.245 371.698 174.437C371.985 174.628 372.35 174.724 372.792 174.724C373.275 174.724 373.66 174.623 373.947 174.423C374.234 174.218 374.378 173.974 374.378 173.692C374.378 173.445 374.289 173.243 374.111 173.083C373.938 172.924 373.669 172.805 373.305 172.728L372.02 172.434C371.309 172.274 370.78 172.019 370.434 171.668C370.087 171.317 369.914 170.868 369.914 170.321C369.914 169.866 370.042 169.467 370.297 169.125C370.552 168.783 370.901 168.519 371.343 168.332C371.785 168.141 372.295 168.045 372.874 168.045C373.425 168.045 373.897 168.125 374.289 168.284C374.681 168.444 374.998 168.667 375.239 168.954C375.485 169.241 375.661 169.574 375.766 169.952L374.419 170.246C374.323 169.977 374.157 169.743 373.92 169.542C373.683 169.337 373.339 169.234 372.888 169.234C372.473 169.234 372.127 169.328 371.849 169.515C371.571 169.702 371.432 169.939 371.432 170.226C371.432 170.481 371.523 170.688 371.705 170.848C371.892 171.003 372.195 171.128 372.614 171.224L373.845 171.497C374.551 171.657 375.075 171.907 375.417 172.249C375.759 172.591 375.93 173.028 375.93 173.562C375.93 174.026 375.795 174.439 375.526 174.799C375.262 175.154 374.893 175.435 374.419 175.64C373.95 175.84 373.403 175.941 372.778 175.941Z" fill="#111827"/>
<rect x="422.867" y="97.2833" width="177.667" height="103" rx="3.5" fill="white"/>
<rect x="422.867" y="97.2833" width="177.667" height="103" rx="3.5" stroke="#E4E4E7"/>
<path fill-rule="evenodd" clip-rule="evenodd" d="M503.749 128.197L513.184 120.016L502.958 142.646H495.7L503.749 128.197ZM510.412 133.278L514.439 121.93L527.7 145.55H503.154L518.132 142.977L510.412 133.278Z" fill="#111827"/>
<path d="M492.049 175.783L495.672 165.598H497.586L501.277 175.783H499.589L497.606 170.116C497.451 169.656 497.281 169.114 497.094 168.489C496.911 167.865 496.7 167.115 496.458 166.24H496.772C496.54 167.124 496.33 167.883 496.144 168.517C495.961 169.146 495.799 169.679 495.658 170.116L493.737 175.783H492.049ZM494.011 173.097V171.798H499.309V173.097H494.011ZM502.474 175.783V174.758L506.589 169.522V169.453H502.604V168.141H508.469V169.248L504.511 174.402V174.471H508.605V175.783H502.474ZM513.076 175.879C512.557 175.879 512.101 175.77 511.709 175.551C511.317 175.332 511.012 175.009 510.793 174.58C510.579 174.152 510.472 173.623 510.472 172.994V168.141H511.976V172.81C511.976 173.361 512.119 173.792 512.406 174.102C512.698 174.412 513.092 174.567 513.589 174.567C513.931 174.567 514.234 174.494 514.498 174.348C514.767 174.197 514.979 173.981 515.134 173.698C515.289 173.411 515.366 173.067 515.366 172.666V168.141H516.87V175.783H515.435L515.428 173.91H515.571C515.348 174.603 515.022 175.104 514.594 175.414C514.165 175.724 513.66 175.879 513.076 175.879ZM518.894 175.783V168.141H520.35V169.371H520.432C520.573 168.952 520.819 168.624 521.17 168.387C521.521 168.15 521.92 168.031 522.366 168.031C522.462 168.031 522.571 168.036 522.694 168.045C522.817 168.05 522.92 168.059 523.002 168.072V169.508C522.947 169.49 522.842 169.471 522.688 169.453C522.533 169.435 522.375 169.426 522.216 169.426C521.869 169.426 521.557 169.499 521.279 169.645C521.001 169.79 520.785 169.993 520.63 170.253C520.475 170.508 520.397 170.804 520.397 171.142V175.783H518.894ZM527.329 175.941C526.577 175.941 525.928 175.779 525.381 175.455C524.834 175.132 524.412 174.676 524.116 174.088C523.825 173.5 523.679 172.81 523.679 172.017C523.679 171.233 523.822 170.542 524.109 169.945C524.401 169.348 524.811 168.884 525.34 168.551C525.868 168.214 526.488 168.045 527.199 168.045C527.637 168.045 528.058 168.118 528.464 168.264C528.869 168.405 529.234 168.628 529.558 168.934C529.881 169.239 530.136 169.636 530.323 170.123C530.515 170.606 530.61 171.194 530.61 171.887V172.42H524.52V171.299H529.838L529.134 171.668C529.134 171.199 529.061 170.786 528.915 170.431C528.769 170.071 528.553 169.79 528.266 169.59C527.983 169.389 527.628 169.289 527.199 169.289C526.775 169.289 526.413 169.392 526.112 169.597C525.812 169.802 525.581 170.073 525.422 170.41C525.267 170.743 525.189 171.108 525.189 171.504V172.27C525.189 172.794 525.278 173.238 525.456 173.603C525.638 173.963 525.891 174.236 526.215 174.423C526.538 174.605 526.914 174.696 527.343 174.696C527.625 174.696 527.881 174.658 528.108 174.58C528.336 174.498 528.532 174.377 528.696 174.218C528.865 174.054 528.993 173.853 529.079 173.616L530.494 173.951C530.371 174.343 530.164 174.69 529.872 174.99C529.585 175.291 529.225 175.526 528.792 175.694C528.364 175.859 527.876 175.941 527.329 175.941Z" fill="#111827"/>
<defs>
<clipPath id="clip0_3891_34949">
<rect x="1.0332" y="28.7833" width="600" height="36" rx="4" fill="white"/>
</clipPath>
</defs>
</svg>
