<svg width="242" height="208" viewBox="0 0 242 208" fill="none" xmlns="http://www.w3.org/2000/svg">
<path d="M5.5459 17.1709C4.78483 17.1709 4.12402 17.0501 3.56348 16.8086C3.00293 16.5671 2.56315 16.223 2.24414 15.7764C1.92969 15.3252 1.75651 14.7897 1.72461 14.1699H3.29004C3.32194 14.5391 3.44043 14.8444 3.64551 15.0859C3.85514 15.3275 4.1263 15.5075 4.45898 15.626C4.79167 15.7445 5.15169 15.8037 5.53906 15.8037C5.97201 15.8037 6.35482 15.7376 6.6875 15.6055C7.02474 15.4688 7.29134 15.2773 7.4873 15.0312C7.68327 14.7806 7.78125 14.4912 7.78125 14.1631C7.78125 13.8669 7.69466 13.6253 7.52148 13.4385C7.35286 13.2471 7.12272 13.0898 6.83105 12.9668C6.54395 12.8392 6.21582 12.7275 5.84668 12.6318L4.65723 12.3037C3.82324 12.0804 3.17155 11.75 2.70215 11.3125C2.2373 10.875 2.00488 10.3076 2.00488 9.61035C2.00488 9.02246 2.16211 8.50977 2.47656 8.07227C2.79557 7.63021 3.22624 7.28841 3.76855 7.04688C4.31543 6.80078 4.93066 6.67773 5.61426 6.67773C6.31152 6.67773 6.92448 6.80078 7.45312 7.04688C7.98633 7.28841 8.40332 7.62109 8.7041 8.04492C9.00944 8.46875 9.16895 8.95182 9.18262 9.49414H7.66504C7.61491 9.0293 7.39844 8.66927 7.01562 8.41406C6.63737 8.15885 6.15885 8.03125 5.58008 8.03125C5.16992 8.03125 4.81217 8.09505 4.50684 8.22266C4.20605 8.35026 3.97135 8.52799 3.80273 8.75586C3.63867 8.97917 3.55664 9.23438 3.55664 9.52148C3.55664 9.84505 3.65462 10.1071 3.85059 10.3076C4.05111 10.5036 4.29264 10.6608 4.5752 10.7793C4.8623 10.8932 5.13574 10.9844 5.39551 11.0527L6.38672 11.3125C6.71029 11.3945 7.04297 11.5062 7.38477 11.6475C7.73112 11.7842 8.05013 11.9642 8.3418 12.1875C8.63346 12.4062 8.86816 12.6797 9.0459 13.0078C9.22819 13.3314 9.31934 13.7233 9.31934 14.1836C9.31934 14.7578 9.17122 15.2705 8.875 15.7217C8.57878 16.1729 8.14811 16.5283 7.58301 16.7881C7.02246 17.0433 6.34342 17.1709 5.5459 17.1709ZM14.3574 17.1572C13.6055 17.1572 12.9561 16.9954 12.4092 16.6719C11.8623 16.3483 11.4408 15.8926 11.1445 15.3047C10.8529 14.7168 10.707 14.0264 10.707 13.2334C10.707 12.4495 10.8506 11.7591 11.1377 11.1621C11.4294 10.5651 11.8395 10.1003 12.3682 9.76758C12.8968 9.43034 13.5166 9.26172 14.2275 9.26172C14.665 9.26172 15.0866 9.33464 15.4922 9.48047C15.8978 9.62174 16.2624 9.84505 16.5859 10.1504C16.9095 10.4557 17.1647 10.8522 17.3516 11.3398C17.543 11.8229 17.6387 12.4108 17.6387 13.1035V13.6367H11.5479V12.5156H16.8662L16.1621 12.8848C16.1621 12.4154 16.0892 12.0029 15.9434 11.6475C15.7975 11.2874 15.5811 11.0072 15.2939 10.8066C15.0114 10.6061 14.6559 10.5059 14.2275 10.5059C13.8037 10.5059 13.4414 10.6084 13.1406 10.8135C12.8398 11.0186 12.6097 11.2897 12.4502 11.627C12.2952 11.9596 12.2178 12.3242 12.2178 12.7207V13.4863C12.2178 14.0104 12.3066 14.4548 12.4844 14.8193C12.6667 15.1794 12.9196 15.4528 13.2432 15.6396C13.5667 15.8219 13.9427 15.9131 14.3711 15.9131C14.6536 15.9131 14.9089 15.8743 15.1367 15.7969C15.3646 15.7148 15.5605 15.5941 15.7246 15.4346C15.8932 15.2705 16.0208 15.07 16.1074 14.833L17.5225 15.168C17.3994 15.5599 17.1921 15.9062 16.9004 16.207C16.6133 16.5078 16.2533 16.7425 15.8203 16.9111C15.3919 17.0752 14.9043 17.1572 14.3574 17.1572ZM20.7969 6.81445V17H19.293V6.81445H20.7969ZM26.1152 17.1572C25.3633 17.1572 24.7139 16.9954 24.167 16.6719C23.6201 16.3483 23.1986 15.8926 22.9023 15.3047C22.6107 14.7168 22.4648 14.0264 22.4648 13.2334C22.4648 12.4495 22.6084 11.7591 22.8955 11.1621C23.1872 10.5651 23.5973 10.1003 24.126 9.76758C24.6546 9.43034 25.2744 9.26172 25.9854 9.26172C26.4229 9.26172 26.8444 9.33464 27.25 9.48047C27.6556 9.62174 28.0202 9.84505 28.3438 10.1504C28.6673 10.4557 28.9225 10.8522 29.1094 11.3398C29.3008 11.8229 29.3965 12.4108 29.3965 13.1035V13.6367H23.3057V12.5156H28.624L27.9199 12.8848C27.9199 12.4154 27.847 12.0029 27.7012 11.6475C27.5553 11.2874 27.3389 11.0072 27.0518 10.8066C26.7692 10.6061 26.4137 10.5059 25.9854 10.5059C25.5615 10.5059 25.1992 10.6084 24.8984 10.8135C24.5977 11.0186 24.3675 11.2897 24.208 11.627C24.0531 11.9596 23.9756 12.3242 23.9756 12.7207V13.4863C23.9756 14.0104 24.0645 14.4548 24.2422 14.8193C24.4245 15.1794 24.6774 15.4528 25.001 15.6396C25.3245 15.8219 25.7005 15.9131 26.1289 15.9131C26.4115 15.9131 26.6667 15.8743 26.8945 15.7969C27.1224 15.7148 27.3184 15.5941 27.4824 15.4346C27.651 15.2705 27.7786 15.07 27.8652 14.833L29.2803 15.168C29.1572 15.5599 28.9499 15.9062 28.6582 16.207C28.3711 16.5078 28.0111 16.7425 27.5781 16.9111C27.1497 17.0752 26.6621 17.1572 26.1152 17.1572ZM34.2637 17.1572C33.5436 17.1572 32.917 16.9932 32.3838 16.665C31.8506 16.3369 31.4359 15.8766 31.1396 15.2842C30.8434 14.6917 30.6953 14.0036 30.6953 13.2197C30.6953 12.4268 30.8434 11.734 31.1396 11.1416C31.4359 10.5446 31.8506 10.082 32.3838 9.75391C32.917 9.42578 33.5436 9.26172 34.2637 9.26172C34.6602 9.26172 35.0316 9.31413 35.3779 9.41895C35.7243 9.51921 36.0365 9.66732 36.3145 9.86328C36.597 10.0547 36.834 10.2917 37.0254 10.5742C37.2214 10.8522 37.3672 11.1667 37.4629 11.5176L36.0342 11.8594C35.984 11.6634 35.9066 11.4857 35.8018 11.3262C35.6969 11.1621 35.5693 11.0208 35.4189 10.9023C35.2731 10.7839 35.1022 10.6927 34.9062 10.6289C34.7148 10.5651 34.5029 10.5332 34.2705 10.5332C33.8102 10.5332 33.4274 10.6562 33.1221 10.9023C32.8213 11.1439 32.5957 11.4674 32.4453 11.873C32.2995 12.2786 32.2266 12.7275 32.2266 13.2197C32.2266 13.7074 32.2995 14.154 32.4453 14.5596C32.5957 14.9606 32.8213 15.2819 33.1221 15.5234C33.4274 15.765 33.8102 15.8857 34.2705 15.8857C34.5075 15.8857 34.724 15.8538 34.9199 15.79C35.1159 15.7217 35.2913 15.6283 35.4463 15.5098C35.6012 15.3867 35.7311 15.2409 35.8359 15.0723C35.9408 14.8991 36.016 14.71 36.0615 14.5049L37.4834 14.8467C37.3923 15.2067 37.2487 15.5303 37.0527 15.8174C36.8568 16.0999 36.6175 16.3415 36.335 16.542C36.057 16.7425 35.7425 16.8952 35.3916 17C35.0407 17.1048 34.6647 17.1572 34.2637 17.1572ZM42.3984 9.35742V10.5811H38.2559V9.35742H42.3984ZM39.3701 7.53906H40.874V14.9355C40.874 15.2409 40.9378 15.4665 41.0654 15.6123C41.1976 15.7536 41.4118 15.8242 41.708 15.8242C41.7855 15.8242 41.888 15.8151 42.0156 15.7969C42.1432 15.7786 42.2526 15.7604 42.3438 15.7422L42.6104 16.9453C42.4508 17 42.2799 17.0387 42.0977 17.0615C41.9154 17.0889 41.7354 17.1025 41.5576 17.1025C40.8649 17.1025 40.3271 16.9248 39.9443 16.5693C39.5615 16.2093 39.3701 15.7057 39.3701 15.0586V7.53906ZM50.8477 17.1572C50.1276 17.1572 49.501 16.9932 48.9678 16.665C48.4346 16.3369 48.0199 15.8766 47.7236 15.2842C47.4274 14.6917 47.2793 14.0036 47.2793 13.2197C47.2793 12.4268 47.4274 11.734 47.7236 11.1416C48.0199 10.5446 48.4346 10.082 48.9678 9.75391C49.501 9.42578 50.1276 9.26172 50.8477 9.26172C51.2441 9.26172 51.6156 9.31413 51.9619 9.41895C52.3083 9.51921 52.6204 9.66732 52.8984 9.86328C53.181 10.0547 53.418 10.2917 53.6094 10.5742C53.8053 10.8522 53.9512 11.1667 54.0469 11.5176L52.6182 11.8594C52.568 11.6634 52.4906 11.4857 52.3857 11.3262C52.2809 11.1621 52.1533 11.0208 52.0029 10.9023C51.8571 10.7839 51.6862 10.6927 51.4902 10.6289C51.2988 10.5651 51.0869 10.5332 50.8545 10.5332C50.3942 10.5332 50.0114 10.6562 49.7061 10.9023C49.4053 11.1439 49.1797 11.4674 49.0293 11.873C48.8835 12.2786 48.8105 12.7275 48.8105 13.2197C48.8105 13.7074 48.8835 14.154 49.0293 14.5596C49.1797 14.9606 49.4053 15.2819 49.7061 15.5234C50.0114 15.765 50.3942 15.8857 50.8545 15.8857C51.0915 15.8857 51.3079 15.8538 51.5039 15.79C51.6999 15.7217 51.8753 15.6283 52.0303 15.5098C52.1852 15.3867 52.3151 15.2409 52.4199 15.0723C52.5247 14.8991 52.5999 14.71 52.6455 14.5049L54.0674 14.8467C53.9762 15.2067 53.8327 15.5303 53.6367 15.8174C53.4408 16.0999 53.2015 16.3415 52.9189 16.542C52.641 16.7425 52.3265 16.8952 51.9756 17C51.6247 17.1048 51.2487 17.1572 50.8477 17.1572ZM57.2188 6.81445V17H55.7148V6.81445H57.2188ZM62.4551 17.1572C61.7396 17.1572 61.113 16.9932 60.5752 16.665C60.042 16.3369 59.6273 15.8766 59.3311 15.2842C59.0348 14.6917 58.8867 14.0036 58.8867 13.2197C58.8867 12.4268 59.0348 11.734 59.3311 11.1416C59.6273 10.5446 60.042 10.082 60.5752 9.75391C61.113 9.42578 61.7396 9.26172 62.4551 9.26172C63.1751 9.26172 63.8018 9.42578 64.335 9.75391C64.8727 10.082 65.2897 10.5446 65.5859 11.1416C65.8822 11.734 66.0303 12.4268 66.0303 13.2197C66.0303 14.0036 65.8822 14.6917 65.5859 15.2842C65.2897 15.8766 64.8727 16.3369 64.335 16.665C63.8018 16.9932 63.1751 17.1572 62.4551 17.1572ZM62.4551 15.8857C62.9199 15.8857 63.3027 15.765 63.6035 15.5234C63.9089 15.2773 64.1344 14.9538 64.2803 14.5527C64.4307 14.1471 64.5059 13.7028 64.5059 13.2197C64.5059 12.7321 64.4307 12.2855 64.2803 11.8799C64.1344 11.4697 63.9089 11.1439 63.6035 10.9023C63.3027 10.6562 62.9199 10.5332 62.4551 10.5332C61.9948 10.5332 61.6143 10.6562 61.3135 10.9023C61.0127 11.1439 60.7871 11.4674 60.6367 11.873C60.4909 12.2786 60.418 12.7275 60.418 13.2197C60.418 13.7028 60.4909 14.1471 60.6367 14.5527C60.7871 14.9538 61.0127 15.2773 61.3135 15.5234C61.6143 15.765 61.9948 15.8857 62.4551 15.8857ZM70.3096 17.0957C69.79 17.0957 69.3343 16.9863 68.9424 16.7676C68.5505 16.5488 68.2451 16.2253 68.0264 15.7969C67.8122 15.3685 67.7051 14.8398 67.7051 14.2109V9.35742H69.209V14.0264C69.209 14.5778 69.3525 15.0085 69.6396 15.3184C69.9313 15.6283 70.3255 15.7832 70.8223 15.7832C71.1641 15.7832 71.4671 15.7103 71.7314 15.5645C72.0003 15.4141 72.2122 15.1976 72.3672 14.915C72.5221 14.6279 72.5996 14.2839 72.5996 13.8828V9.35742H74.1035V17H72.668L72.6611 15.127H72.8047C72.5814 15.8197 72.2555 16.321 71.8271 16.6309C71.3988 16.9408 70.8929 17.0957 70.3096 17.0957ZM78.9707 17.1504C78.3509 17.1504 77.7995 16.9932 77.3164 16.6787C76.8333 16.3597 76.4551 15.9062 76.1816 15.3184C75.9082 14.7259 75.7715 14.0195 75.7715 13.1992C75.7715 12.3698 75.9105 11.6611 76.1885 11.0732C76.4665 10.4854 76.847 10.0365 77.3301 9.72656C77.8132 9.41667 78.36 9.26172 78.9707 9.26172C79.4447 9.26172 79.8252 9.34147 80.1123 9.50098C80.404 9.65592 80.6318 9.83822 80.7959 10.0479C80.96 10.2575 81.0853 10.4421 81.1719 10.6016H81.2539V6.81445H82.7578V17H81.2949V15.8037H81.1719C81.0853 15.9678 80.9577 16.1546 80.7891 16.3643C80.6204 16.5739 80.3903 16.7585 80.0986 16.918C79.807 17.0729 79.431 17.1504 78.9707 17.1504ZM79.2988 15.8721C79.7272 15.8721 80.0872 15.7581 80.3789 15.5303C80.6751 15.3024 80.8984 14.988 81.0488 14.5869C81.2038 14.1813 81.2812 13.7142 81.2812 13.1855C81.2812 12.6523 81.2061 12.1898 81.0557 11.7979C80.9053 11.4014 80.682 11.0938 80.3857 10.875C80.0941 10.6517 79.7318 10.54 79.2988 10.54C78.8568 10.54 78.4876 10.6562 78.1914 10.8887C77.8997 11.1211 77.6787 11.4378 77.5283 11.8389C77.3825 12.2354 77.3096 12.6842 77.3096 13.1855C77.3096 13.6914 77.3848 14.1471 77.5352 14.5527C77.6855 14.9583 77.9089 15.2796 78.2051 15.5166C78.5013 15.7536 78.8659 15.8721 79.2988 15.8721ZM88.5137 19.8574V9.35742H89.9766V10.6016H90.0996C90.1908 10.4421 90.3161 10.2575 90.4756 10.0479C90.6396 9.83822 90.8652 9.65592 91.1523 9.50098C91.444 9.34147 91.8291 9.26172 92.3076 9.26172C92.9183 9.26172 93.4629 9.41667 93.9414 9.72656C94.4245 10.0365 94.805 10.4854 95.083 11.0732C95.361 11.6611 95.5 12.3698 95.5 13.1992C95.5 14.0195 95.3633 14.7259 95.0898 15.3184C94.8164 15.9062 94.4382 16.3597 93.9551 16.6787C93.4766 16.9932 92.9274 17.1504 92.3076 17.1504C91.8473 17.1504 91.4691 17.0729 91.1729 16.918C90.8812 16.7585 90.651 16.5739 90.4824 16.3643C90.3184 16.1546 90.1908 15.9678 90.0996 15.8037H90.0176V19.8574H88.5137ZM91.9727 15.8721C92.4102 15.8721 92.777 15.7536 93.0732 15.5166C93.3695 15.2796 93.5905 14.9583 93.7363 14.5527C93.8867 14.1471 93.9619 13.6914 93.9619 13.1855C93.9619 12.6842 93.8867 12.2354 93.7363 11.8389C93.5905 11.4378 93.3695 11.1211 93.0732 10.8887C92.7816 10.6562 92.4147 10.54 91.9727 10.54C91.5443 10.54 91.182 10.6517 90.8857 10.875C90.5895 11.0938 90.3662 11.4014 90.2158 11.7979C90.0654 12.1898 89.9902 12.6523 89.9902 13.1855C89.9902 13.7142 90.0654 14.1813 90.2158 14.5869C90.3708 14.988 90.5964 15.3024 90.8926 15.5303C91.1888 15.7581 91.5488 15.8721 91.9727 15.8721ZM97.168 17V9.35742H98.624V10.5879H98.7061C98.8473 10.1686 99.0934 9.84049 99.4443 9.60352C99.7952 9.36654 100.194 9.24805 100.641 9.24805C100.736 9.24805 100.846 9.2526 100.969 9.26172C101.092 9.26628 101.194 9.27539 101.276 9.28906V10.7246C101.222 10.7064 101.117 10.6882 100.962 10.6699C100.807 10.6517 100.65 10.6426 100.49 10.6426C100.144 10.6426 99.8317 10.7155 99.5537 10.8613C99.2757 11.0072 99.0592 11.21 98.9043 11.4697C98.7493 11.7249 98.6719 12.0212 98.6719 12.3584V17H97.168ZM105.521 17.1572C104.806 17.1572 104.179 16.9932 103.642 16.665C103.108 16.3369 102.694 15.8766 102.397 15.2842C102.101 14.6917 101.953 14.0036 101.953 13.2197C101.953 12.4268 102.101 11.734 102.397 11.1416C102.694 10.5446 103.108 10.082 103.642 9.75391C104.179 9.42578 104.806 9.26172 105.521 9.26172C106.242 9.26172 106.868 9.42578 107.401 9.75391C107.939 10.082 108.356 10.5446 108.652 11.1416C108.949 11.734 109.097 12.4268 109.097 13.2197C109.097 14.0036 108.949 14.6917 108.652 15.2842C108.356 15.8766 107.939 16.3369 107.401 16.665C106.868 16.9932 106.242 17.1572 105.521 17.1572ZM105.521 15.8857C105.986 15.8857 106.369 15.765 106.67 15.5234C106.975 15.2773 107.201 14.9538 107.347 14.5527C107.497 14.1471 107.572 13.7028 107.572 13.2197C107.572 12.7321 107.497 12.2855 107.347 11.8799C107.201 11.4697 106.975 11.1439 106.67 10.9023C106.369 10.6562 105.986 10.5332 105.521 10.5332C105.061 10.5332 104.681 10.6562 104.38 10.9023C104.079 11.1439 103.854 11.4674 103.703 11.873C103.557 12.2786 103.484 12.7275 103.484 13.2197C103.484 13.7028 103.557 14.1471 103.703 14.5527C103.854 14.9538 104.079 15.2773 104.38 15.5234C104.681 15.765 105.061 15.8857 105.521 15.8857ZM112.699 17L109.814 9.35742H111.441L112.952 13.6982C113.121 14.1768 113.264 14.6576 113.383 15.1406C113.501 15.6191 113.627 16.0954 113.759 16.5693H113.308C113.435 16.0954 113.558 15.6191 113.677 15.1406C113.795 14.6576 113.937 14.1768 114.101 13.6982L115.611 9.35742H117.225L114.34 17H112.699ZM118.564 17V9.35742H120.068V17H118.564ZM119.323 8.18848C119.063 8.18848 118.84 8.10189 118.653 7.92871C118.471 7.75553 118.38 7.5459 118.38 7.2998C118.38 7.04915 118.471 6.83724 118.653 6.66406C118.84 6.49089 119.063 6.4043 119.323 6.4043C119.583 6.4043 119.806 6.49089 119.993 6.66406C120.18 6.83724 120.273 7.04915 120.273 7.2998C120.273 7.5459 120.18 7.75553 119.993 7.92871C119.806 8.10189 119.583 8.18848 119.323 8.18848ZM124.936 17.1504C124.316 17.1504 123.764 16.9932 123.281 16.6787C122.798 16.3597 122.42 15.9062 122.146 15.3184C121.873 14.7259 121.736 14.0195 121.736 13.1992C121.736 12.3698 121.875 11.6611 122.153 11.0732C122.431 10.4854 122.812 10.0365 123.295 9.72656C123.778 9.41667 124.325 9.26172 124.936 9.26172C125.41 9.26172 125.79 9.34147 126.077 9.50098C126.369 9.65592 126.597 9.83822 126.761 10.0479C126.925 10.2575 127.05 10.4421 127.137 10.6016H127.219V6.81445H128.723V17H127.26V15.8037H127.137C127.05 15.9678 126.923 16.1546 126.754 16.3643C126.585 16.5739 126.355 16.7585 126.063 16.918C125.772 17.0729 125.396 17.1504 124.936 17.1504ZM125.264 15.8721C125.692 15.8721 126.052 15.7581 126.344 15.5303C126.64 15.3024 126.863 14.988 127.014 14.5869C127.169 14.1813 127.246 13.7142 127.246 13.1855C127.246 12.6523 127.171 12.1898 127.021 11.7979C126.87 11.4014 126.647 11.0938 126.351 10.875C126.059 10.6517 125.697 10.54 125.264 10.54C124.822 10.54 124.452 10.6562 124.156 10.8887C123.865 11.1211 123.644 11.4378 123.493 11.8389C123.347 12.2354 123.274 12.6842 123.274 13.1855C123.274 13.6914 123.35 14.1471 123.5 14.5527C123.65 14.9583 123.874 15.2796 124.17 15.5166C124.466 15.7536 124.831 15.8721 125.264 15.8721ZM134.041 17.1572C133.289 17.1572 132.64 16.9954 132.093 16.6719C131.546 16.3483 131.124 15.8926 130.828 15.3047C130.536 14.7168 130.391 14.0264 130.391 13.2334C130.391 12.4495 130.534 11.7591 130.821 11.1621C131.113 10.5651 131.523 10.1003 132.052 9.76758C132.58 9.43034 133.2 9.26172 133.911 9.26172C134.349 9.26172 134.77 9.33464 135.176 9.48047C135.581 9.62174 135.946 9.84505 136.27 10.1504C136.593 10.4557 136.848 10.8522 137.035 11.3398C137.227 11.8229 137.322 12.4108 137.322 13.1035V13.6367H131.231V12.5156H136.55L135.846 12.8848C135.846 12.4154 135.773 12.0029 135.627 11.6475C135.481 11.2874 135.265 11.0072 134.978 10.8066C134.695 10.6061 134.34 10.5059 133.911 10.5059C133.487 10.5059 133.125 10.6084 132.824 10.8135C132.523 11.0186 132.293 11.2897 132.134 11.627C131.979 11.9596 131.901 12.3242 131.901 12.7207V13.4863C131.901 14.0104 131.99 14.4548 132.168 14.8193C132.35 15.1794 132.603 15.4528 132.927 15.6396C133.25 15.8219 133.626 15.9131 134.055 15.9131C134.337 15.9131 134.592 15.8743 134.82 15.7969C135.048 15.7148 135.244 15.5941 135.408 15.4346C135.577 15.2705 135.704 15.07 135.791 14.833L137.206 15.168C137.083 15.5599 136.876 15.9062 136.584 16.207C136.297 16.5078 135.937 16.7425 135.504 16.9111C135.076 17.0752 134.588 17.1572 134.041 17.1572ZM138.977 17V9.35742H140.433V10.5879H140.515C140.656 10.1686 140.902 9.84049 141.253 9.60352C141.604 9.36654 142.003 9.24805 142.449 9.24805C142.545 9.24805 142.654 9.2526 142.777 9.26172C142.9 9.26628 143.003 9.27539 143.085 9.28906V10.7246C143.03 10.7064 142.925 10.6882 142.771 10.6699C142.616 10.6517 142.458 10.6426 142.299 10.6426C141.952 10.6426 141.64 10.7155 141.362 10.8613C141.084 11.0072 140.868 11.21 140.713 11.4697C140.558 11.7249 140.48 12.0212 140.48 12.3584V17H138.977Z" fill="#111827"/>
<g clip-path="url(#clip0_3938_58494)">
<rect x="1" y="28" width="240" height="36" rx="4" fill="white"/>
<path d="M230 43.5L225 48.5L220 43.5" stroke="#111827" stroke-linecap="round" stroke-linejoin="round"/>
</g>
<rect x="1" y="28" width="240" height="36" rx="4" stroke="#E4E4E7"/>
<rect x="1.5" y="84.5" width="109" height="123" rx="3.5" fill="white"/>
<rect x="1.5" y="84.5" width="109" height="123" rx="3.5" stroke="#E4E4E7"/>
<path fill-rule="evenodd" clip-rule="evenodd" d="M56 136C64.8366 136 72 128.837 72 120C72 111.163 64.8366 104 56 104C47.1661 104 40.0043 111.159 40 119.992H46.0879C46.0922 114.521 50.5283 110.088 56 110.088C61.4743 110.088 65.9121 114.526 65.9121 120C65.9121 125.474 61.4743 129.912 56 129.912L55.9807 129.912V136L56 136ZM55.9805 123.605H49.7933V129.793H55.9805V123.605ZM49.7933 129.813H45.0389V125.837H41.0631V129.813H45.0387V134.567H49.7933V129.813Z" fill="#111827"/>
<path d="M37.9365 163H35.4209V161.633H37.8545C38.6247 161.633 39.265 161.489 39.7754 161.202C40.2858 160.915 40.6686 160.493 40.9238 159.938C41.179 159.377 41.3066 158.696 41.3066 157.894C41.3066 157.096 41.179 156.422 40.9238 155.87C40.6732 155.319 40.2972 154.899 39.7959 154.612C39.2992 154.325 38.6794 154.182 37.9365 154.182H35.3662V152.814H38.0391C39.0417 152.814 39.9007 153.017 40.6162 153.423C41.3317 153.828 41.8809 154.412 42.2637 155.173C42.6465 155.929 42.8379 156.836 42.8379 157.894C42.8379 158.955 42.6442 159.867 42.2568 160.628C41.874 161.389 41.3158 161.975 40.582 162.385C39.8529 162.795 38.971 163 37.9365 163ZM36.1865 152.814V163H34.6279V152.814H36.1865ZM44.6152 163V155.357H46.1191V163H44.6152ZM45.374 154.188C45.1143 154.188 44.891 154.102 44.7041 153.929C44.5218 153.756 44.4307 153.546 44.4307 153.3C44.4307 153.049 44.5218 152.837 44.7041 152.664C44.891 152.491 45.1143 152.404 45.374 152.404C45.6338 152.404 45.8571 152.491 46.0439 152.664C46.2308 152.837 46.3242 153.049 46.3242 153.3C46.3242 153.546 46.2308 153.756 46.0439 153.929C45.8571 154.102 45.6338 154.188 45.374 154.188ZM51.335 166.021C50.7471 166.021 50.2367 165.946 49.8037 165.796C49.3708 165.646 49.013 165.445 48.7305 165.194C48.4525 164.944 48.2406 164.666 48.0947 164.36L49.3525 163.766C49.4437 163.911 49.5645 164.064 49.7148 164.224C49.8698 164.388 50.0771 164.527 50.3369 164.641C50.5967 164.755 50.9294 164.812 51.335 164.812C51.9183 164.812 52.39 164.673 52.75 164.395C53.1146 164.121 53.2969 163.69 53.2969 163.103V161.612H53.167C53.0758 161.781 52.9482 161.963 52.7842 162.159C52.6247 162.355 52.3991 162.526 52.1074 162.672C51.8203 162.813 51.4443 162.884 50.9795 162.884C50.3779 162.884 49.8356 162.743 49.3525 162.46C48.874 162.177 48.4935 161.758 48.2109 161.202C47.9284 160.646 47.7871 159.963 47.7871 159.151C47.7871 158.34 47.9261 157.645 48.2041 157.066C48.4867 156.483 48.8695 156.036 49.3525 155.727C49.8402 155.417 50.3893 155.262 51 155.262C51.4694 155.262 51.8499 155.339 52.1416 155.494C52.4378 155.649 52.668 155.834 52.832 156.048C53.0007 156.257 53.1283 156.442 53.2148 156.602H53.3242V155.357H54.7939V163.109C54.7939 163.779 54.6413 164.328 54.3359 164.757C54.0352 165.19 53.6227 165.509 53.0986 165.714C52.5791 165.919 51.9912 166.021 51.335 166.021ZM51.3281 161.633C51.7565 161.633 52.1165 161.535 52.4082 161.339C52.7044 161.138 52.9277 160.851 53.0781 160.478C53.2285 160.099 53.3037 159.65 53.3037 159.131C53.3037 158.616 53.2285 158.165 53.0781 157.777C52.9277 157.39 52.7044 157.087 52.4082 156.868C52.1165 156.649 51.7565 156.54 51.3281 156.54C50.8861 156.54 50.5169 156.656 50.2207 156.889C49.9245 157.117 49.7012 157.426 49.5508 157.818C49.4004 158.206 49.3252 158.643 49.3252 159.131C49.3252 159.628 49.4004 160.065 49.5508 160.443C49.7012 160.817 49.9245 161.109 50.2207 161.318C50.5215 161.528 50.8906 161.633 51.3281 161.633ZM56.8242 163V155.357H58.3281V163H56.8242ZM57.583 154.188C57.3232 154.188 57.0999 154.102 56.9131 153.929C56.7308 153.756 56.6396 153.546 56.6396 153.3C56.6396 153.049 56.7308 152.837 56.9131 152.664C57.0999 152.491 57.3232 152.404 57.583 152.404C57.8428 152.404 58.0661 152.491 58.2529 152.664C58.4398 152.837 58.5332 153.049 58.5332 153.3C58.5332 153.546 58.4398 153.756 58.2529 153.929C58.0661 154.102 57.8428 154.188 57.583 154.188ZM63.6191 155.357V156.581H59.4766V155.357H63.6191ZM60.5908 153.539H62.0947V160.936C62.0947 161.241 62.1585 161.466 62.2861 161.612C62.4183 161.754 62.6325 161.824 62.9287 161.824C63.0062 161.824 63.1087 161.815 63.2363 161.797C63.3639 161.779 63.4733 161.76 63.5645 161.742L63.8311 162.945C63.6715 163 63.5007 163.039 63.3184 163.062C63.1361 163.089 62.9561 163.103 62.7783 163.103C62.0856 163.103 61.5479 162.925 61.165 162.569C60.7822 162.209 60.5908 161.706 60.5908 161.059V153.539ZM67.8232 163.15C67.208 163.15 66.6589 162.993 66.1758 162.679C65.6973 162.36 65.319 161.906 65.041 161.318C64.7676 160.726 64.6309 160.02 64.6309 159.199C64.6309 158.37 64.7699 157.661 65.0479 157.073C65.3304 156.485 65.7132 156.036 66.1963 155.727C66.6839 155.417 67.2331 155.262 67.8438 155.262C68.3132 155.262 68.6914 155.339 68.9785 155.494C69.2702 155.649 69.4958 155.834 69.6553 156.048C69.8193 156.257 69.9447 156.442 70.0312 156.602H70.127V155.357H71.6172V163H70.1338V161.804H70.0312C69.9447 161.968 69.8171 162.157 69.6484 162.371C69.4798 162.581 69.2497 162.763 68.958 162.918C68.6663 163.073 68.2881 163.15 67.8232 163.15ZM68.1719 161.872C68.6003 161.872 68.9603 161.758 69.252 161.53C69.5482 161.302 69.7715 160.988 69.9219 160.587C70.0723 160.181 70.1475 159.714 70.1475 159.186C70.1475 158.652 70.0723 158.19 69.9219 157.798C69.7715 157.401 69.5482 157.094 69.252 156.875C68.9603 156.652 68.6003 156.54 68.1719 156.54C67.7298 156.54 67.3607 156.656 67.0645 156.889C66.7682 157.117 66.5449 157.431 66.3945 157.832C66.2441 158.229 66.1689 158.68 66.1689 159.186C66.1689 159.691 66.2441 160.147 66.3945 160.553C66.5449 160.958 66.7682 161.28 67.0645 161.517C67.3652 161.754 67.7344 161.872 68.1719 161.872ZM75.1445 152.814V163H73.6406V152.814H75.1445ZM38.873 183.137C37.9935 183.137 37.2051 182.929 36.5078 182.515C35.8151 182.095 35.2682 181.496 34.8672 180.717C34.4707 179.933 34.2725 178.999 34.2725 177.914C34.2725 176.825 34.4707 175.891 34.8672 175.111C35.2682 174.327 35.8151 173.726 36.5078 173.307C37.2051 172.887 37.9935 172.678 38.873 172.678C39.7526 172.678 40.5365 172.887 41.2246 173.307C41.9173 173.726 42.4619 174.327 42.8584 175.111C43.2594 175.891 43.46 176.825 43.46 177.914C43.46 178.999 43.2594 179.933 42.8584 180.717C42.4619 181.496 41.9173 182.095 41.2246 182.515C40.5365 182.929 39.7526 183.137 38.873 183.137ZM38.873 181.715C39.4518 181.715 39.9691 181.571 40.4248 181.284C40.8851 180.993 41.2474 180.564 41.5117 179.999C41.7806 179.429 41.915 178.734 41.915 177.914C41.915 177.085 41.7806 176.387 41.5117 175.822C41.2474 175.253 40.8851 174.824 40.4248 174.537C39.9691 174.245 39.4518 174.1 38.873 174.1C38.2897 174.1 37.7679 174.245 37.3076 174.537C36.8473 174.829 36.4827 175.259 36.2139 175.829C35.9495 176.394 35.8174 177.089 35.8174 177.914C35.8174 178.734 35.9495 179.427 36.2139 179.992C36.4827 180.557 36.8473 180.986 37.3076 181.277C37.7679 181.569 38.2897 181.715 38.873 181.715ZM48.457 183.157C47.737 183.157 47.1104 182.993 46.5771 182.665C46.0439 182.337 45.6292 181.877 45.333 181.284C45.0368 180.692 44.8887 180.004 44.8887 179.22C44.8887 178.427 45.0368 177.734 45.333 177.142C45.6292 176.545 46.0439 176.082 46.5771 175.754C47.1104 175.426 47.737 175.262 48.457 175.262C48.8535 175.262 49.2249 175.314 49.5713 175.419C49.9176 175.519 50.2298 175.667 50.5078 175.863C50.7904 176.055 51.0273 176.292 51.2188 176.574C51.4147 176.852 51.5605 177.167 51.6562 177.518L50.2275 177.859C50.1774 177.663 50.0999 177.486 49.9951 177.326C49.8903 177.162 49.7627 177.021 49.6123 176.902C49.4665 176.784 49.2956 176.693 49.0996 176.629C48.9082 176.565 48.6963 176.533 48.4639 176.533C48.0036 176.533 47.6208 176.656 47.3154 176.902C47.0146 177.144 46.7891 177.467 46.6387 177.873C46.4928 178.279 46.4199 178.728 46.4199 179.22C46.4199 179.707 46.4928 180.154 46.6387 180.56C46.7891 180.961 47.0146 181.282 47.3154 181.523C47.6208 181.765 48.0036 181.886 48.4639 181.886C48.7008 181.886 48.9173 181.854 49.1133 181.79C49.3092 181.722 49.4847 181.628 49.6396 181.51C49.7946 181.387 49.9245 181.241 50.0293 181.072C50.1341 180.899 50.2093 180.71 50.2549 180.505L51.6768 180.847C51.5856 181.207 51.4421 181.53 51.2461 181.817C51.0501 182.1 50.8109 182.341 50.5283 182.542C50.2503 182.743 49.9359 182.895 49.585 183C49.234 183.105 48.8581 183.157 48.457 183.157ZM56.6191 183.157C55.8672 183.157 55.2178 182.995 54.6709 182.672C54.124 182.348 53.7025 181.893 53.4062 181.305C53.1146 180.717 52.9688 180.026 52.9688 179.233C52.9688 178.45 53.1123 177.759 53.3994 177.162C53.6911 176.565 54.1012 176.1 54.6299 175.768C55.1585 175.43 55.7783 175.262 56.4893 175.262C56.9268 175.262 57.3483 175.335 57.7539 175.48C58.1595 175.622 58.5241 175.845 58.8477 176.15C59.1712 176.456 59.4264 176.852 59.6133 177.34C59.8047 177.823 59.9004 178.411 59.9004 179.104V179.637H53.8096V178.516H59.1279L58.4238 178.885C58.4238 178.415 58.3509 178.003 58.2051 177.647C58.0592 177.287 57.8428 177.007 57.5557 176.807C57.2731 176.606 56.9176 176.506 56.4893 176.506C56.0654 176.506 55.7031 176.608 55.4023 176.813C55.1016 177.019 54.8714 177.29 54.7119 177.627C54.557 177.96 54.4795 178.324 54.4795 178.721V179.486C54.4795 180.01 54.5684 180.455 54.7461 180.819C54.9284 181.179 55.1813 181.453 55.5049 181.64C55.8285 181.822 56.2044 181.913 56.6328 181.913C56.9154 181.913 57.1706 181.874 57.3984 181.797C57.6263 181.715 57.8223 181.594 57.9863 181.435C58.1549 181.271 58.2826 181.07 58.3691 180.833L59.7842 181.168C59.6611 181.56 59.4538 181.906 59.1621 182.207C58.875 182.508 58.515 182.743 58.082 182.911C57.6536 183.075 57.166 183.157 56.6191 183.157ZM64.3916 183.15C63.7764 183.15 63.2272 182.993 62.7441 182.679C62.2656 182.36 61.8874 181.906 61.6094 181.318C61.3359 180.726 61.1992 180.02 61.1992 179.199C61.1992 178.37 61.3382 177.661 61.6162 177.073C61.8988 176.485 62.2816 176.036 62.7646 175.727C63.2523 175.417 63.8014 175.262 64.4121 175.262C64.8815 175.262 65.2598 175.339 65.5469 175.494C65.8385 175.649 66.0641 175.834 66.2236 176.048C66.3877 176.257 66.513 176.442 66.5996 176.602H66.6953V175.357H68.1855V183H66.7021V181.804H66.5996C66.513 181.968 66.3854 182.157 66.2168 182.371C66.0482 182.581 65.818 182.763 65.5264 182.918C65.2347 183.073 64.8564 183.15 64.3916 183.15ZM64.7402 181.872C65.1686 181.872 65.5286 181.758 65.8203 181.53C66.1165 181.302 66.3398 180.988 66.4902 180.587C66.6406 180.181 66.7158 179.714 66.7158 179.186C66.7158 178.652 66.6406 178.19 66.4902 177.798C66.3398 177.401 66.1165 177.094 65.8203 176.875C65.5286 176.652 65.1686 176.54 64.7402 176.54C64.2982 176.54 63.929 176.656 63.6328 176.889C63.3366 177.117 63.1133 177.431 62.9629 177.832C62.8125 178.229 62.7373 178.68 62.7373 179.186C62.7373 179.691 62.8125 180.147 62.9629 180.553C63.1133 180.958 63.3366 181.28 63.6328 181.517C63.9336 181.754 64.3027 181.872 64.7402 181.872ZM71.7129 178.475V183H70.209V175.357H71.6445L71.6582 177.23H71.501C71.7243 176.547 72.0479 176.048 72.4717 175.733C72.8955 175.419 73.4082 175.262 74.0098 175.262C74.5293 175.262 74.9827 175.371 75.3701 175.59C75.7575 175.809 76.0605 176.132 76.2793 176.561C76.498 176.984 76.6074 177.513 76.6074 178.146V183H75.1035V178.331C75.1035 177.78 74.96 177.349 74.6729 177.039C74.3857 176.729 73.9915 176.574 73.4902 176.574C73.153 176.574 72.8499 176.649 72.5811 176.8C72.3122 176.946 72.1003 177.16 71.9453 177.442C71.7904 177.725 71.7129 178.069 71.7129 178.475Z" fill="#111827"/>
<rect x="131.5" y="84.5" width="109" height="123" rx="3.5" fill="white"/>
<rect x="131.5" y="84.5" width="109" height="123" rx="3.5" stroke="#E4E4E7"/>
<path fill-rule="evenodd" clip-rule="evenodd" d="M179.018 117.382C179.018 117.776 179.061 118.095 179.135 118.329C179.22 118.563 179.327 118.819 179.476 119.095C179.529 119.181 179.55 119.266 179.55 119.34C179.55 119.447 179.486 119.553 179.348 119.659L178.677 120.106C178.582 120.17 178.486 120.202 178.401 120.202C178.294 120.202 178.188 120.149 178.081 120.053C177.932 119.894 177.805 119.723 177.698 119.553C177.592 119.372 177.485 119.17 177.368 118.925C176.538 119.904 175.495 120.394 174.239 120.394C173.345 120.394 172.632 120.138 172.111 119.628C171.589 119.117 171.323 118.436 171.323 117.584C171.323 116.679 171.643 115.945 172.292 115.392C172.941 114.838 173.803 114.562 174.899 114.562C175.261 114.562 175.634 114.593 176.027 114.647C176.421 114.7 176.826 114.785 177.251 114.881V114.104C177.251 113.295 177.081 112.731 176.751 112.401C176.411 112.071 175.836 111.911 175.016 111.911C174.644 111.911 174.261 111.954 173.867 112.05C173.473 112.146 173.09 112.263 172.717 112.412C172.547 112.486 172.419 112.529 172.345 112.55C172.27 112.571 172.217 112.582 172.175 112.582C172.026 112.582 171.951 112.476 171.951 112.252V111.731C171.951 111.56 171.972 111.433 172.026 111.358C172.079 111.284 172.175 111.209 172.324 111.135C172.696 110.943 173.143 110.783 173.665 110.656C174.186 110.517 174.74 110.453 175.325 110.453C176.591 110.453 177.517 110.741 178.113 111.315C178.699 111.89 178.997 112.763 178.997 113.934V117.382H179.018ZM174.697 119C175.048 119 175.41 118.936 175.793 118.808C176.176 118.68 176.517 118.446 176.804 118.127C176.975 117.925 177.102 117.701 177.166 117.446C177.23 117.19 177.273 116.882 177.273 116.52V116.073C176.964 115.998 176.634 115.934 176.293 115.892C175.953 115.849 175.623 115.828 175.293 115.828C174.58 115.828 174.058 115.966 173.707 116.254C173.356 116.541 173.186 116.946 173.186 117.478C173.186 117.978 173.313 118.35 173.58 118.606C173.835 118.872 174.207 119 174.697 119ZM183.243 120.149C183.052 120.149 182.924 120.117 182.839 120.043C182.754 119.979 182.679 119.83 182.615 119.628L180.114 111.401C180.05 111.188 180.018 111.049 180.018 110.975C180.018 110.805 180.104 110.709 180.274 110.709H181.317C181.519 110.709 181.657 110.741 181.732 110.815C181.817 110.879 181.881 111.028 181.945 111.23L183.733 118.276L185.393 111.23C185.446 111.017 185.51 110.879 185.595 110.815C185.68 110.751 185.829 110.709 186.021 110.709H186.872C187.075 110.709 187.213 110.741 187.298 110.815C187.383 110.879 187.458 111.028 187.5 111.23L189.182 118.361L191.023 111.23C191.087 111.017 191.162 110.879 191.236 110.815C191.321 110.751 191.46 110.709 191.651 110.709H192.641C192.811 110.709 192.907 110.794 192.907 110.975C192.907 111.02 192.899 111.066 192.89 111.118L192.886 111.145C192.875 111.209 192.854 111.294 192.811 111.411L190.246 119.638C190.182 119.851 190.108 119.989 190.023 120.053C189.938 120.117 189.799 120.16 189.618 120.16H188.703C188.501 120.16 188.362 120.128 188.277 120.053C188.192 119.979 188.118 119.84 188.075 119.628L186.425 112.763L184.786 119.617C184.733 119.83 184.669 119.968 184.584 120.043C184.499 120.117 184.35 120.149 184.159 120.149H183.243ZM196.919 120.436C196.366 120.436 195.812 120.373 195.28 120.245C194.748 120.117 194.333 119.979 194.056 119.819C193.886 119.723 193.769 119.617 193.726 119.521C193.684 119.425 193.663 119.319 193.663 119.223V118.68C193.663 118.457 193.748 118.35 193.907 118.35C193.971 118.35 194.035 118.361 194.099 118.382C194.14 118.396 194.195 118.419 194.257 118.444L194.257 118.445C194.291 118.459 194.327 118.474 194.365 118.489C194.727 118.648 195.121 118.776 195.536 118.861C195.961 118.946 196.377 118.989 196.802 118.989C197.473 118.989 197.994 118.872 198.356 118.638C198.718 118.404 198.91 118.063 198.91 117.627C198.91 117.329 198.814 117.084 198.622 116.882C198.431 116.679 198.069 116.499 197.547 116.328L196.004 115.849C195.227 115.605 194.652 115.243 194.301 114.764C193.95 114.295 193.769 113.774 193.769 113.221C193.769 112.774 193.865 112.38 194.056 112.039C194.248 111.699 194.503 111.401 194.823 111.166C195.142 110.922 195.504 110.741 195.93 110.613C196.355 110.485 196.802 110.432 197.271 110.432C197.505 110.432 197.749 110.443 197.984 110.475C198.228 110.507 198.452 110.549 198.675 110.592C198.888 110.645 199.09 110.698 199.282 110.762C199.474 110.826 199.623 110.89 199.729 110.954C199.878 111.039 199.984 111.124 200.048 111.22C200.112 111.305 200.144 111.422 200.144 111.571V112.071C200.144 112.295 200.059 112.412 199.899 112.412C199.814 112.412 199.676 112.369 199.495 112.284C198.888 112.007 198.207 111.869 197.451 111.869C196.845 111.869 196.366 111.965 196.036 112.167C195.706 112.369 195.536 112.678 195.536 113.114C195.536 113.412 195.642 113.668 195.855 113.87C196.068 114.072 196.462 114.274 197.026 114.455L198.537 114.934C199.303 115.179 199.857 115.519 200.187 115.956C200.517 116.392 200.676 116.892 200.676 117.446C200.676 117.903 200.58 118.318 200.4 118.68C200.208 119.042 199.953 119.361 199.623 119.617C199.293 119.883 198.899 120.075 198.441 120.213C197.962 120.362 197.462 120.436 196.919 120.436ZM198.931 125.609C195.429 128.195 190.342 129.568 185.968 129.568C179.837 129.568 174.314 127.301 170.142 123.533C169.812 123.235 170.11 122.831 170.504 123.065C175.016 125.683 180.582 127.269 186.34 127.269C190.225 127.269 194.493 126.46 198.42 124.8C199.005 124.534 199.505 125.183 198.931 125.609ZM196.291 123.81C197.43 123.672 199.942 123.374 200.389 123.948C200.836 124.513 199.889 126.886 199.463 127.94C199.335 128.259 199.612 128.387 199.899 128.142C201.772 126.567 202.262 123.278 201.879 122.799C201.496 122.331 198.207 121.926 196.206 123.331C195.897 123.555 195.951 123.853 196.291 123.81Z" fill="#111827"/>
<path d="M141.621 163L145.244 152.814H147.158L150.85 163H149.161L147.179 157.333C147.024 156.873 146.853 156.33 146.666 155.706C146.484 155.082 146.272 154.332 146.03 153.457H146.345C146.112 154.341 145.903 155.1 145.716 155.733C145.534 156.362 145.372 156.896 145.23 157.333L143.31 163H141.621ZM143.583 160.313V159.015H148.881V160.313H143.583ZM152.21 163V155.357H153.639L153.68 157.128H153.563C153.673 156.695 153.841 156.34 154.069 156.062C154.297 155.784 154.564 155.576 154.869 155.439C155.174 155.298 155.493 155.228 155.826 155.228C156.382 155.228 156.831 155.401 157.173 155.747C157.515 156.089 157.745 156.567 157.863 157.183H157.672C157.772 156.763 157.945 156.408 158.191 156.116C158.438 155.825 158.734 155.604 159.08 155.453C159.431 155.303 159.805 155.228 160.201 155.228C160.652 155.228 161.06 155.326 161.425 155.521C161.794 155.717 162.086 156.009 162.3 156.396C162.514 156.784 162.621 157.267 162.621 157.846V163H161.11V157.996C161.11 157.486 160.969 157.117 160.687 156.889C160.404 156.661 160.069 156.547 159.682 156.547C159.367 156.547 159.096 156.613 158.868 156.745C158.64 156.877 158.465 157.062 158.342 157.299C158.219 157.531 158.157 157.8 158.157 158.105V163H156.674V157.9C156.674 157.49 156.542 157.162 156.277 156.916C156.018 156.67 155.685 156.547 155.279 156.547C155.001 156.547 154.742 156.613 154.5 156.745C154.263 156.873 154.072 157.064 153.926 157.319C153.785 157.57 153.714 157.88 153.714 158.249V163H152.21ZM167.488 163.15C166.873 163.15 166.324 162.993 165.841 162.679C165.362 162.36 164.984 161.906 164.706 161.318C164.433 160.726 164.296 160.02 164.296 159.199C164.296 158.37 164.435 157.661 164.713 157.073C164.995 156.485 165.378 156.036 165.861 155.727C166.349 155.417 166.898 155.262 167.509 155.262C167.978 155.262 168.356 155.339 168.644 155.494C168.935 155.649 169.161 155.834 169.32 156.048C169.484 156.257 169.61 156.442 169.696 156.602H169.792V155.357H171.282V163H169.799V161.804H169.696C169.61 161.968 169.482 162.157 169.313 162.371C169.145 162.581 168.915 162.763 168.623 162.918C168.331 163.073 167.953 163.15 167.488 163.15ZM167.837 161.872C168.265 161.872 168.625 161.758 168.917 161.53C169.213 161.302 169.437 160.988 169.587 160.587C169.737 160.181 169.812 159.714 169.812 159.186C169.812 158.652 169.737 158.19 169.587 157.798C169.437 157.401 169.213 157.094 168.917 156.875C168.625 156.652 168.265 156.54 167.837 156.54C167.395 156.54 167.026 156.656 166.729 156.889C166.433 157.117 166.21 157.431 166.06 157.832C165.909 158.229 165.834 158.68 165.834 159.186C165.834 159.691 165.909 160.147 166.06 160.553C166.21 160.958 166.433 161.28 166.729 161.517C167.03 161.754 167.399 161.872 167.837 161.872ZM173.142 163V161.975L177.257 156.738V156.67H173.271V155.357H179.137V156.465L175.179 161.619V161.688H179.273V163H173.142ZM184.12 163.157C183.405 163.157 182.778 162.993 182.24 162.665C181.707 162.337 181.292 161.877 180.996 161.284C180.7 160.692 180.552 160.004 180.552 159.22C180.552 158.427 180.7 157.734 180.996 157.142C181.292 156.545 181.707 156.082 182.24 155.754C182.778 155.426 183.405 155.262 184.12 155.262C184.84 155.262 185.467 155.426 186 155.754C186.538 156.082 186.955 156.545 187.251 157.142C187.547 157.734 187.695 158.427 187.695 159.22C187.695 160.004 187.547 160.692 187.251 161.284C186.955 161.877 186.538 162.337 186 162.665C185.467 162.993 184.84 163.157 184.12 163.157ZM184.12 161.886C184.585 161.886 184.968 161.765 185.269 161.523C185.574 161.277 185.799 160.954 185.945 160.553C186.096 160.147 186.171 159.703 186.171 159.22C186.171 158.732 186.096 158.285 185.945 157.88C185.799 157.47 185.574 157.144 185.269 156.902C184.968 156.656 184.585 156.533 184.12 156.533C183.66 156.533 183.279 156.656 182.979 156.902C182.678 157.144 182.452 157.467 182.302 157.873C182.156 158.279 182.083 158.728 182.083 159.22C182.083 159.703 182.156 160.147 182.302 160.553C182.452 160.954 182.678 161.277 182.979 161.523C183.279 161.765 183.66 161.886 184.12 161.886ZM190.874 158.475V163H189.37V155.357H190.806L190.819 157.23H190.662C190.885 156.547 191.209 156.048 191.633 155.733C192.057 155.419 192.569 155.262 193.171 155.262C193.69 155.262 194.144 155.371 194.531 155.59C194.919 155.809 195.222 156.132 195.44 156.561C195.659 156.984 195.769 157.513 195.769 158.146V163H194.265V158.331C194.265 157.78 194.121 157.349 193.834 157.039C193.547 156.729 193.153 156.574 192.651 156.574C192.314 156.574 192.011 156.649 191.742 156.8C191.473 156.946 191.261 157.16 191.106 157.442C190.951 157.725 190.874 158.069 190.874 158.475ZM203.623 163L200.861 152.814H202.502L203.972 158.652C204.063 159.012 204.147 159.386 204.225 159.773C204.302 160.161 204.377 160.553 204.45 160.949C204.528 161.346 204.601 161.742 204.669 162.139H204.437C204.509 161.742 204.585 161.346 204.662 160.949C204.74 160.553 204.819 160.161 204.901 159.773C204.983 159.386 205.072 159.012 205.168 158.652L206.679 152.814H208.388L209.885 158.652C209.98 159.012 210.069 159.386 210.151 159.773C210.233 160.161 210.313 160.553 210.391 160.949C210.473 161.346 210.55 161.742 210.623 162.139H210.377C210.45 161.742 210.523 161.346 210.596 160.949C210.669 160.553 210.746 160.161 210.828 159.773C210.915 159.386 210.999 159.012 211.081 158.652L212.551 152.814H214.205L211.43 163H209.632L208.012 156.964C207.889 156.49 207.775 155.975 207.67 155.419C207.565 154.863 207.458 154.252 207.349 153.587H207.704C207.59 154.225 207.485 154.815 207.39 155.357C207.299 155.9 207.182 156.435 207.041 156.964L205.428 163H203.623ZM218.149 163.157C217.397 163.157 216.748 162.995 216.201 162.672C215.654 162.348 215.233 161.893 214.937 161.305C214.645 160.717 214.499 160.026 214.499 159.233C214.499 158.45 214.643 157.759 214.93 157.162C215.221 156.565 215.632 156.1 216.16 155.768C216.689 155.43 217.309 155.262 218.02 155.262C218.457 155.262 218.879 155.335 219.284 155.48C219.69 155.622 220.054 155.845 220.378 156.15C220.701 156.456 220.957 156.852 221.144 157.34C221.335 157.823 221.431 158.411 221.431 159.104V159.637H215.34V158.516H220.658L219.954 158.885C219.954 158.415 219.881 158.003 219.735 157.647C219.59 157.287 219.373 157.007 219.086 156.807C218.803 156.606 218.448 156.506 218.02 156.506C217.596 156.506 217.233 156.608 216.933 156.813C216.632 157.019 216.402 157.29 216.242 157.627C216.087 157.96 216.01 158.324 216.01 158.721V159.486C216.01 160.01 216.099 160.455 216.276 160.819C216.459 161.179 216.712 161.453 217.035 161.64C217.359 161.822 217.735 161.913 218.163 161.913C218.446 161.913 218.701 161.874 218.929 161.797C219.157 161.715 219.353 161.594 219.517 161.435C219.685 161.271 219.813 161.07 219.899 160.833L221.314 161.168C221.191 161.56 220.984 161.906 220.692 162.207C220.405 162.508 220.045 162.743 219.612 162.911C219.184 163.075 218.696 163.157 218.149 163.157ZM226.879 163.15C226.419 163.15 226.04 163.073 225.744 162.918C225.452 162.758 225.222 162.574 225.054 162.364C224.89 162.155 224.762 161.968 224.671 161.804H224.548V163H223.085V152.814H224.589V156.602H224.671C224.762 156.442 224.887 156.257 225.047 156.048C225.211 155.838 225.437 155.656 225.724 155.501C226.015 155.341 226.4 155.262 226.879 155.262C227.49 155.262 228.034 155.417 228.513 155.727C228.996 156.036 229.376 156.485 229.654 157.073C229.932 157.661 230.071 158.37 230.071 159.199C230.071 160.02 229.935 160.726 229.661 161.318C229.388 161.906 229.009 162.36 228.526 162.679C228.048 162.993 227.499 163.15 226.879 163.15ZM226.544 161.872C226.981 161.872 227.348 161.754 227.645 161.517C227.941 161.28 228.162 160.958 228.308 160.553C228.458 160.147 228.533 159.691 228.533 159.186C228.533 158.684 228.458 158.235 228.308 157.839C228.162 157.438 227.941 157.121 227.645 156.889C227.353 156.656 226.986 156.54 226.544 156.54C226.116 156.54 225.753 156.652 225.457 156.875C225.161 157.094 224.938 157.401 224.787 157.798C224.637 158.19 224.562 158.652 224.562 159.186C224.562 159.714 224.637 160.181 224.787 160.587C224.942 160.988 225.168 161.302 225.464 161.53C225.76 161.758 226.12 161.872 226.544 161.872ZM161.37 183.171C160.609 183.171 159.948 183.05 159.388 182.809C158.827 182.567 158.387 182.223 158.068 181.776C157.754 181.325 157.581 180.79 157.549 180.17H159.114C159.146 180.539 159.265 180.844 159.47 181.086C159.679 181.327 159.951 181.507 160.283 181.626C160.616 181.744 160.976 181.804 161.363 181.804C161.796 181.804 162.179 181.738 162.512 181.605C162.849 181.469 163.116 181.277 163.312 181.031C163.507 180.781 163.605 180.491 163.605 180.163C163.605 179.867 163.519 179.625 163.346 179.438C163.177 179.247 162.947 179.09 162.655 178.967C162.368 178.839 162.04 178.728 161.671 178.632L160.481 178.304C159.647 178.08 158.996 177.75 158.526 177.312C158.062 176.875 157.829 176.308 157.829 175.61C157.829 175.022 157.986 174.51 158.301 174.072C158.62 173.63 159.05 173.288 159.593 173.047C160.14 172.801 160.755 172.678 161.438 172.678C162.136 172.678 162.749 172.801 163.277 173.047C163.811 173.288 164.228 173.621 164.528 174.045C164.834 174.469 164.993 174.952 165.007 175.494H163.489C163.439 175.029 163.223 174.669 162.84 174.414C162.462 174.159 161.983 174.031 161.404 174.031C160.994 174.031 160.636 174.095 160.331 174.223C160.03 174.35 159.796 174.528 159.627 174.756C159.463 174.979 159.381 175.234 159.381 175.521C159.381 175.845 159.479 176.107 159.675 176.308C159.875 176.504 160.117 176.661 160.399 176.779C160.687 176.893 160.96 176.984 161.22 177.053L162.211 177.312C162.535 177.395 162.867 177.506 163.209 177.647C163.555 177.784 163.874 177.964 164.166 178.188C164.458 178.406 164.692 178.68 164.87 179.008C165.052 179.331 165.144 179.723 165.144 180.184C165.144 180.758 164.995 181.271 164.699 181.722C164.403 182.173 163.972 182.528 163.407 182.788C162.847 183.043 162.168 183.171 161.37 183.171ZM170.182 183.157C169.43 183.157 168.78 182.995 168.233 182.672C167.687 182.348 167.265 181.893 166.969 181.305C166.677 180.717 166.531 180.026 166.531 179.233C166.531 178.45 166.675 177.759 166.962 177.162C167.254 176.565 167.664 176.1 168.192 175.768C168.721 175.43 169.341 175.262 170.052 175.262C170.489 175.262 170.911 175.335 171.316 175.48C171.722 175.622 172.087 175.845 172.41 176.15C172.734 176.456 172.989 176.852 173.176 177.34C173.367 177.823 173.463 178.411 173.463 179.104V179.637H167.372V178.516H172.69L171.986 178.885C171.986 178.415 171.913 178.003 171.768 177.647C171.622 177.287 171.405 177.007 171.118 176.807C170.836 176.606 170.48 176.506 170.052 176.506C169.628 176.506 169.266 176.608 168.965 176.813C168.664 177.019 168.434 177.29 168.274 177.627C168.119 177.96 168.042 178.324 168.042 178.721V179.486C168.042 180.01 168.131 180.455 168.309 180.819C168.491 181.179 168.744 181.453 169.067 181.64C169.391 181.822 169.767 181.913 170.195 181.913C170.478 181.913 170.733 181.874 170.961 181.797C171.189 181.715 171.385 181.594 171.549 181.435C171.717 181.271 171.845 181.07 171.932 180.833L173.347 181.168C173.224 181.56 173.016 181.906 172.725 182.207C172.438 182.508 172.077 182.743 171.645 182.911C171.216 183.075 170.729 183.157 170.182 183.157ZM175.117 183V175.357H176.573V176.588H176.655C176.797 176.169 177.043 175.84 177.394 175.604C177.744 175.367 178.143 175.248 178.59 175.248C178.686 175.248 178.795 175.253 178.918 175.262C179.041 175.266 179.144 175.275 179.226 175.289V176.725C179.171 176.706 179.066 176.688 178.911 176.67C178.756 176.652 178.599 176.643 178.439 176.643C178.093 176.643 177.781 176.715 177.503 176.861C177.225 177.007 177.008 177.21 176.854 177.47C176.699 177.725 176.621 178.021 176.621 178.358V183H175.117ZM182.938 183L180.053 175.357H181.68L183.19 179.698C183.359 180.177 183.503 180.658 183.621 181.141C183.74 181.619 183.865 182.095 183.997 182.569H183.546C183.674 182.095 183.797 181.619 183.915 181.141C184.034 180.658 184.175 180.177 184.339 179.698L185.85 175.357H187.463L184.578 183H182.938ZM188.803 183V175.357H190.307V183H188.803ZM189.562 174.188C189.302 174.188 189.078 174.102 188.892 173.929C188.709 173.756 188.618 173.546 188.618 173.3C188.618 173.049 188.709 172.837 188.892 172.664C189.078 172.491 189.302 172.404 189.562 172.404C189.821 172.404 190.045 172.491 190.231 172.664C190.418 172.837 190.512 173.049 190.512 173.3C190.512 173.546 190.418 173.756 190.231 173.929C190.045 174.102 189.821 174.188 189.562 174.188ZM195.543 183.157C194.823 183.157 194.196 182.993 193.663 182.665C193.13 182.337 192.715 181.877 192.419 181.284C192.123 180.692 191.975 180.004 191.975 179.22C191.975 178.427 192.123 177.734 192.419 177.142C192.715 176.545 193.13 176.082 193.663 175.754C194.196 175.426 194.823 175.262 195.543 175.262C195.939 175.262 196.311 175.314 196.657 175.419C197.004 175.519 197.316 175.667 197.594 175.863C197.876 176.055 198.113 176.292 198.305 176.574C198.501 176.852 198.646 177.167 198.742 177.518L197.313 177.859C197.263 177.663 197.186 177.486 197.081 177.326C196.976 177.162 196.849 177.021 196.698 176.902C196.552 176.784 196.382 176.693 196.186 176.629C195.994 176.565 195.782 176.533 195.55 176.533C195.09 176.533 194.707 176.656 194.401 176.902C194.101 177.144 193.875 177.467 193.725 177.873C193.579 178.279 193.506 178.728 193.506 179.22C193.506 179.707 193.579 180.154 193.725 180.56C193.875 180.961 194.101 181.282 194.401 181.523C194.707 181.765 195.09 181.886 195.55 181.886C195.787 181.886 196.003 181.854 196.199 181.79C196.395 181.722 196.571 181.628 196.726 181.51C196.881 181.387 197.01 181.241 197.115 181.072C197.22 180.899 197.295 180.71 197.341 180.505L198.763 180.847C198.672 181.207 198.528 181.53 198.332 181.817C198.136 182.1 197.897 182.341 197.614 182.542C197.336 182.743 197.022 182.895 196.671 183C196.32 183.105 195.944 183.157 195.543 183.157ZM203.705 183.157C202.953 183.157 202.304 182.995 201.757 182.672C201.21 182.348 200.788 181.893 200.492 181.305C200.201 180.717 200.055 180.026 200.055 179.233C200.055 178.45 200.198 177.759 200.485 177.162C200.777 176.565 201.187 176.1 201.716 175.768C202.244 175.43 202.864 175.262 203.575 175.262C204.013 175.262 204.434 175.335 204.84 175.48C205.245 175.622 205.61 175.845 205.934 176.15C206.257 176.456 206.512 176.852 206.699 177.34C206.891 177.823 206.986 178.411 206.986 179.104V179.637H200.896V178.516H206.214L205.51 178.885C205.51 178.415 205.437 178.003 205.291 177.647C205.145 177.287 204.929 177.007 204.642 176.807C204.359 176.606 204.004 176.506 203.575 176.506C203.151 176.506 202.789 176.608 202.488 176.813C202.188 177.019 201.957 177.29 201.798 177.627C201.643 177.96 201.565 178.324 201.565 178.721V179.486C201.565 180.01 201.654 180.455 201.832 180.819C202.014 181.179 202.267 181.453 202.591 181.64C202.914 181.822 203.29 181.913 203.719 181.913C204.001 181.913 204.257 181.874 204.484 181.797C204.712 181.715 204.908 181.594 205.072 181.435C205.241 181.271 205.368 181.07 205.455 180.833L206.87 181.168C206.747 181.56 206.54 181.906 206.248 182.207C205.961 182.508 205.601 182.743 205.168 182.911C204.74 183.075 204.252 183.157 203.705 183.157ZM211.382 183.157C210.83 183.157 210.338 183.077 209.905 182.918C209.477 182.758 209.124 182.524 208.846 182.214C208.572 181.899 208.39 181.517 208.299 181.065L209.714 180.771C209.819 181.168 210.015 181.462 210.302 181.653C210.589 181.845 210.953 181.94 211.396 181.94C211.879 181.94 212.264 181.84 212.551 181.64C212.838 181.435 212.981 181.191 212.981 180.908C212.981 180.662 212.893 180.459 212.715 180.3C212.542 180.14 212.273 180.022 211.908 179.944L210.623 179.65C209.912 179.491 209.383 179.236 209.037 178.885C208.691 178.534 208.518 178.085 208.518 177.538C208.518 177.082 208.645 176.684 208.9 176.342C209.156 176 209.504 175.736 209.946 175.549C210.388 175.357 210.899 175.262 211.478 175.262C212.029 175.262 212.501 175.341 212.893 175.501C213.285 175.66 213.601 175.884 213.843 176.171C214.089 176.458 214.264 176.791 214.369 177.169L213.022 177.463C212.927 177.194 212.76 176.959 212.523 176.759C212.286 176.554 211.942 176.451 211.491 176.451C211.076 176.451 210.73 176.545 210.452 176.731C210.174 176.918 210.035 177.155 210.035 177.442C210.035 177.698 210.126 177.905 210.309 178.064C210.495 178.219 210.799 178.345 211.218 178.44L212.448 178.714C213.155 178.873 213.679 179.124 214.021 179.466C214.362 179.808 214.533 180.245 214.533 180.778C214.533 181.243 214.399 181.656 214.13 182.016C213.866 182.371 213.496 182.651 213.022 182.856C212.553 183.057 212.006 183.157 211.382 183.157Z" fill="#111827"/>
<defs>
<clipPath id="clip0_3938_58494">
<rect x="1" y="28" width="240" height="36" rx="4" fill="white"/>
</clipPath>
</defs>
</svg>
