<svg width="517" height="393" viewBox="0 0 517 393" fill="none" xmlns="http://www.w3.org/2000/svg">
<path d="M86.8423 92.3999L161.569 135.598C166.923 138.693 166.891 146.434 161.511 149.483L88.1683 191.061" stroke="url(#paint0_linear_3947_18732)" stroke-width="2" stroke-linecap="round"/>
<path d="M427.238 94.2876L357.319 134.673C351.951 137.773 351.996 145.536 357.4 148.574L420.414 183.998" stroke="url(#paint1_linear_3947_18732)" stroke-width="2" stroke-linecap="round"/>
<g filter="url(#filter0_f_3947_18732)">
<ellipse cx="15.8847" cy="11.1211" rx="15.8847" ry="11.1211" transform="matrix(0.865806 0.500381 -0.499619 0.866245 245.925 282.267)" fill="#1D4ED8" fill-opacity="0.5"/>
</g>
<rect x="48.0732" y="163.547" width="55.0318" height="55.0318" rx="27.5159" fill="url(#paint2_linear_3947_18732)"/>
<path fill-rule="evenodd" clip-rule="evenodd" d="M68.6074 188.445C68.6074 188.839 68.65 189.158 68.7245 189.392C68.8096 189.626 68.916 189.882 69.065 190.158C69.1182 190.244 69.1395 190.329 69.1395 190.403C69.1395 190.51 69.0757 190.616 68.9373 190.722L68.2668 191.169C68.171 191.233 68.0752 191.265 67.9901 191.265C67.8837 191.265 67.7772 191.212 67.6708 191.116C67.5218 190.957 67.3941 190.786 67.2877 190.616C67.1812 190.435 67.0748 190.233 66.9577 189.988C66.1276 190.967 65.0846 191.457 63.8287 191.457C62.9347 191.457 62.2217 191.201 61.7002 190.691C61.1787 190.18 60.9126 189.499 60.9126 188.647C60.9126 187.742 61.2319 187.008 61.8811 186.455C62.5303 185.901 63.3924 185.625 64.4886 185.625C64.8505 185.625 65.223 185.656 65.6167 185.71C66.0105 185.763 66.415 185.848 66.8407 185.944V185.167C66.8407 184.358 66.6704 183.794 66.3405 183.464C65.9999 183.134 65.4252 182.974 64.6057 182.974C64.2332 182.974 63.85 183.017 63.4562 183.113C63.0625 183.209 62.6793 183.326 62.3068 183.475C62.1365 183.549 62.0088 183.592 61.9343 183.613C61.8598 183.634 61.8066 183.645 61.764 183.645C61.615 183.645 61.5405 183.539 61.5405 183.315V182.794C61.5405 182.623 61.5618 182.496 61.615 182.421C61.6682 182.347 61.764 182.272 61.913 182.198C62.2855 182.006 62.7325 181.846 63.254 181.719C63.7755 181.58 64.329 181.516 64.9143 181.516C66.1808 181.516 67.1067 181.804 67.7027 182.378C68.2881 182.953 68.5861 183.826 68.5861 184.997V188.445H68.6074ZM64.2864 190.063C64.6376 190.063 64.9995 189.999 65.3826 189.871C65.7657 189.743 66.1063 189.509 66.3937 189.19C66.564 188.988 66.6917 188.764 66.7555 188.509C66.8194 188.253 66.862 187.945 66.862 187.583V187.136C66.5533 187.061 66.2234 186.997 65.8828 186.955C65.5422 186.912 65.2123 186.891 64.8824 186.891C64.1693 186.891 63.6478 187.029 63.2966 187.317C62.9454 187.604 62.7751 188.009 62.7751 188.541C62.7751 189.041 62.9028 189.413 63.1689 189.669C63.4243 189.935 63.7968 190.063 64.2864 190.063ZM72.8326 191.212C72.641 191.212 72.5133 191.18 72.4282 191.106C72.343 191.042 72.2685 190.893 72.2047 190.691L69.7036 182.464C69.6397 182.251 69.6078 182.112 69.6078 182.038C69.6078 181.868 69.693 181.772 69.8632 181.772H70.9062C71.1085 181.772 71.2468 181.804 71.3213 181.878C71.4065 181.942 71.4703 182.091 71.5342 182.293L73.3222 189.339L74.9825 182.293C75.0357 182.08 75.0995 181.942 75.1847 181.878C75.2698 181.814 75.4188 181.772 75.6104 181.772H76.4618C76.664 181.772 76.8024 181.804 76.8875 181.878C76.9727 181.942 77.0472 182.091 77.0898 182.293L78.7713 189.424L80.6125 182.293C80.6764 182.08 80.7509 181.942 80.8254 181.878C80.9105 181.814 81.0489 181.772 81.2405 181.772H82.2303C82.4005 181.772 82.4963 181.857 82.4963 182.038C82.4963 182.083 82.4886 182.129 82.4797 182.181L82.475 182.208C82.4644 182.272 82.4431 182.357 82.4005 182.474L79.8356 190.701C79.7718 190.914 79.6973 191.052 79.6121 191.116C79.527 191.18 79.3886 191.223 79.2077 191.223H78.2924C78.0902 191.223 77.9518 191.191 77.8667 191.116C77.7815 191.042 77.707 190.903 77.6645 190.691L76.0148 183.826L74.3758 190.68C74.3226 190.893 74.2587 191.031 74.1736 191.106C74.0885 191.18 73.9395 191.212 73.7479 191.212H72.8326ZM86.5087 191.499C85.9553 191.499 85.4018 191.436 84.8697 191.308C84.3375 191.18 83.9225 191.042 83.6458 190.882C83.4755 190.786 83.3584 190.68 83.3158 190.584C83.2733 190.488 83.252 190.382 83.252 190.286V189.743C83.252 189.52 83.3371 189.413 83.4968 189.413C83.5606 189.413 83.6245 189.424 83.6883 189.445C83.7296 189.459 83.7841 189.482 83.8463 189.507L83.8464 189.508C83.8805 189.522 83.9168 189.537 83.9544 189.552C84.3163 189.711 84.71 189.839 85.1251 189.924C85.5508 190.009 85.9659 190.052 86.3916 190.052C87.0621 190.052 87.5836 189.935 87.9455 189.701C88.3073 189.467 88.4989 189.126 88.4989 188.69C88.4989 188.392 88.4031 188.147 88.2115 187.945C88.02 187.742 87.6581 187.562 87.1366 187.391L85.5934 186.912C84.8165 186.668 84.2418 186.306 83.8905 185.827C83.5393 185.358 83.3584 184.837 83.3584 184.284C83.3584 183.837 83.4542 183.443 83.6458 183.102C83.8373 182.762 84.0928 182.464 84.412 182.229C84.7313 181.985 85.0932 181.804 85.5189 181.676C85.9446 181.548 86.3916 181.495 86.8599 181.495C87.094 181.495 87.3388 181.506 87.573 181.538C87.8178 181.57 88.0413 181.612 88.2648 181.655C88.4776 181.708 88.6798 181.761 88.8714 181.825C89.063 181.889 89.212 181.953 89.3184 182.017C89.4674 182.102 89.5738 182.187 89.6377 182.283C89.7015 182.368 89.7335 182.485 89.7335 182.634V183.134C89.7335 183.358 89.6483 183.475 89.4887 183.475C89.4035 183.475 89.2652 183.432 89.0843 183.347C88.4776 183.07 87.7965 182.932 87.0408 182.932C86.4342 182.932 85.9553 183.028 85.6253 183.23C85.2954 183.432 85.1251 183.741 85.1251 184.177C85.1251 184.475 85.2315 184.731 85.4444 184.933C85.6573 185.135 86.051 185.337 86.6151 185.518L88.1264 185.997C88.8927 186.242 89.4461 186.582 89.776 187.019C90.106 187.455 90.2656 187.955 90.2656 188.509C90.2656 188.966 90.1698 189.381 89.9889 189.743C89.7973 190.105 89.5419 190.424 89.212 190.68C88.882 190.946 88.4883 191.138 88.0306 191.276C87.5517 191.425 87.0515 191.499 86.5087 191.499ZM88.5201 196.672C85.0186 199.258 79.9313 200.631 75.5571 200.631C69.4268 200.631 63.9031 198.364 59.7311 194.596C59.4012 194.298 59.6992 193.894 60.093 194.128C64.6056 196.746 70.1718 198.332 75.9296 198.332C79.8142 198.332 84.082 197.523 88.0092 195.863C88.5946 195.597 89.0948 196.246 88.5201 196.672ZM85.8806 194.873C87.0194 194.735 89.5311 194.437 89.9781 195.011C90.4251 195.575 89.4779 197.949 89.0521 199.002C88.9244 199.322 89.2012 199.449 89.4885 199.205C91.3617 197.63 91.8512 194.341 91.4681 193.862C91.0849 193.394 87.7963 192.989 85.7954 194.394C85.4868 194.618 85.54 194.916 85.8806 194.873Z" fill="white"/>
<path fill-rule="evenodd" clip-rule="evenodd" d="M426.696 72.474C426.996 70.6389 427.43 68.9996 427.96 67.6394C428.487 66.2884 429.089 65.2633 429.707 64.5929C430.257 63.9959 430.76 63.7398 431.196 63.6914C431.248 63.6908 431.3 63.6906 431.352 63.6906C431.404 63.6906 431.456 63.6908 431.508 63.6914C431.944 63.7398 432.446 63.9959 432.997 64.5929C433.615 65.2633 434.217 66.2884 434.744 67.6394C435.274 68.9996 435.708 70.6389 436.008 72.474H426.696ZM424.671 72.474H417.907C419.67 68.4576 423.18 65.3818 427.475 64.2082C426.953 64.9792 426.493 65.8956 426.097 66.9129C425.478 68.4988 424.991 70.3875 424.671 72.474ZM435.229 64.2082C435.751 64.9792 436.211 65.8956 436.607 66.9129C437.226 68.4988 437.712 70.3875 438.032 72.474H444.796C443.034 68.4576 439.524 65.3818 435.229 64.2082ZM436.272 74.474H426.432C426.305 75.712 426.237 77.0162 426.237 78.3657C426.237 79.7152 426.305 81.0194 426.432 82.2574H436.272C436.398 81.0194 436.467 79.7152 436.467 78.3657C436.467 77.0162 436.398 75.712 436.272 74.474ZM438.282 82.2574C438.403 81.0072 438.467 79.7035 438.467 78.3657C438.467 77.0279 438.403 75.7242 438.282 74.474H445.505C445.845 75.7134 446.027 77.0183 446.027 78.3657C446.027 79.7131 445.845 81.018 445.505 82.2574H438.282ZM436.008 84.2574H426.696C426.996 86.0924 427.43 87.7318 427.96 89.092C428.487 90.4429 429.089 91.4681 429.707 92.1385C430.258 92.7356 430.76 92.9917 431.196 93.04C431.248 93.0406 431.3 93.0408 431.352 93.0408C431.404 93.0408 431.456 93.0406 431.507 93.04C431.944 92.9917 432.446 92.7356 432.997 92.1385C433.615 91.4681 434.217 90.4429 434.744 89.092C435.274 87.7318 435.708 86.0924 436.008 84.2574ZM435.229 92.5232C435.751 91.7522 436.211 90.8358 436.607 89.8185C437.226 88.2325 437.712 86.3439 438.032 84.2574H444.796C443.034 88.2738 439.524 91.3496 435.229 92.5232ZM427.475 92.5232C426.953 91.7522 426.493 90.8358 426.097 89.8185C425.478 88.2325 424.991 86.3439 424.671 84.2574H417.907C419.67 88.2738 423.18 91.3496 427.475 92.5232ZM424.422 82.2574H417.198C416.858 81.018 416.677 79.7131 416.677 78.3657C416.677 77.0183 416.858 75.7134 417.198 74.474H424.422C424.301 75.7242 424.237 77.0279 424.237 78.3657C424.237 79.7035 424.301 81.0072 424.422 82.2574Z" fill="url(#paint3_linear_3947_18732)"/>
<path fill-rule="evenodd" clip-rule="evenodd" d="M83.811 72.474C84.1106 70.6389 84.5443 68.9996 85.0746 67.6394C85.6014 66.2884 86.2038 65.2633 86.8218 64.5929C87.3721 63.9959 87.8745 63.7398 88.3108 63.6914C88.3627 63.6908 88.4146 63.6906 88.4666 63.6906C88.5187 63.6906 88.5706 63.6908 88.6225 63.6914C89.0588 63.7398 89.5612 63.9959 90.1115 64.5929C90.7294 65.2633 91.3319 66.2884 91.8587 67.6394C92.389 68.9996 92.8227 70.6389 93.1223 72.474H83.811ZM81.7861 72.474H75.0221C76.7847 68.4576 80.2943 65.3818 84.5893 64.2082C84.0678 64.9792 83.6079 65.8956 83.2113 66.9129C82.5929 68.4988 82.1062 70.3875 81.7861 72.474ZM92.344 64.2082C92.8655 64.9792 93.3254 65.8956 93.722 66.9129C94.3404 68.4988 94.8271 70.3875 95.1472 72.474H101.911C100.149 68.4576 96.639 65.3818 92.344 64.2082ZM93.3865 74.474H83.5468C83.4201 75.712 83.352 77.0162 83.352 78.3657C83.352 79.7152 83.4201 81.0194 83.5468 82.2574H93.3865C93.5132 81.0194 93.5813 79.7152 93.5813 78.3657C93.5813 77.0162 93.5132 75.712 93.3865 74.474ZM95.3964 82.2574C95.5175 81.0072 95.5813 79.7035 95.5813 78.3657C95.5813 77.0279 95.5175 75.7242 95.3964 74.474H102.62C102.96 75.7134 103.142 77.0183 103.142 78.3657C103.142 79.7131 102.96 81.018 102.62 82.2574H95.3964ZM93.1223 84.2574H83.811C84.1106 86.0924 84.5443 87.7318 85.0746 89.092C85.6014 90.4429 86.2038 91.4681 86.8218 92.1385C87.3723 92.7356 87.8748 92.9917 88.3112 93.04C88.3629 93.0406 88.4148 93.0408 88.4666 93.0408C88.5185 93.0408 88.5704 93.0406 88.6221 93.04C89.0585 92.9917 89.561 92.7356 90.1115 92.1385C90.7294 91.4681 91.3319 90.4429 91.8587 89.092C92.389 87.7318 92.8227 86.0924 93.1223 84.2574ZM92.3439 92.5232C92.8655 91.7522 93.3254 90.8358 93.722 89.8185C94.3404 88.2325 94.8271 86.3439 95.1472 84.2574H101.911C100.149 88.2738 96.639 91.3496 92.3439 92.5232ZM84.5894 92.5232C84.0678 91.7522 83.6079 90.8358 83.2113 89.8185C82.5929 88.2325 82.1062 86.3439 81.7861 84.2574H75.0221C76.7847 88.2738 80.2943 91.3496 84.5894 92.5232ZM81.5369 82.2574H74.3131C73.9731 81.018 73.7915 79.7131 73.7915 78.3657C73.7915 77.0183 73.9731 75.7134 74.3131 74.474H81.5369C81.4158 75.7242 81.352 77.0279 81.352 78.3657C81.352 79.7035 81.4158 81.0072 81.5369 82.2574Z" fill="url(#paint4_linear_3947_18732)"/>
<path fill-rule="evenodd" clip-rule="evenodd" d="M284.992 6.12598H265.338C264.253 6.12598 263.373 7.00592 263.373 8.09139V47.3997C263.373 48.4852 264.253 49.3651 265.338 49.3651H284.992C286.078 49.3651 286.958 48.4852 286.958 47.3997V8.09139C286.958 7.00592 286.078 6.12598 284.992 6.12598ZM270.235 13.9877C270.235 13.4354 270.682 12.9877 271.235 12.9877H279.096C279.648 12.9877 280.096 13.4354 280.096 13.9877C280.096 14.54 279.648 14.9877 279.096 14.9877H271.235C270.682 14.9877 270.235 14.54 270.235 13.9877ZM271.235 20.8492C270.682 20.8492 270.235 21.297 270.235 21.8492C270.235 22.4015 270.682 22.8492 271.235 22.8492H279.096C279.648 22.8492 280.096 22.4015 280.096 21.8492C280.096 21.297 279.648 20.8492 279.096 20.8492H271.235ZM275.165 43.4689C276.793 43.4689 278.113 42.149 278.113 40.5208C278.113 38.8926 276.793 37.5726 275.165 37.5726C273.536 37.5726 272.216 38.8926 272.216 40.5208C272.216 42.149 273.536 43.4689 275.165 43.4689ZM260.129 13.7446H232.926C232.373 13.7446 231.926 14.1923 231.926 14.7446V38.295C231.926 38.8473 232.373 39.295 232.926 39.295H245.527V39.295V46.1565H240.631C240.079 46.1565 239.631 46.6042 239.631 47.1565C239.631 47.7087 240.079 48.1565 240.631 48.1565H246.505L246.527 48.1567L246.549 48.1565H252.423C252.976 48.1565 253.423 47.7087 253.423 47.1565C253.423 46.6042 252.976 46.1565 252.423 46.1565H247.527V39.295V39.295H260.129C260.681 39.295 261.129 38.8473 261.129 38.295V14.7446C261.129 14.1923 260.681 13.7446 260.129 13.7446Z" fill="url(#paint5_linear_3947_18732)"/>
<rect x="412.192" y="163.547" width="55.0318" height="55.0318" rx="27.5159" fill="url(#paint6_linear_3947_18732)"/>
<path fill-rule="evenodd" clip-rule="evenodd" d="M439.708 207.063C448.545 207.063 455.708 199.9 455.708 191.063C455.708 182.226 448.545 175.063 439.708 175.063C430.875 175.063 423.713 182.222 423.708 191.055H429.796C429.801 185.584 434.237 181.151 439.708 181.151C445.183 181.151 449.621 185.589 449.621 191.063C449.621 196.537 445.183 200.975 439.708 200.975L439.689 200.975V207.063L439.708 207.063ZM439.689 194.668H433.502V200.856H439.689V194.668ZM433.502 200.876H428.747V196.9H424.772V200.876H428.747V205.63H433.502V200.876Z" fill="white"/>
<path d="M376.203 321.505L504.185 247.141C509.501 244.052 509.49 236.369 504.165 233.295L464.204 210.228" stroke="url(#paint7_linear_3947_18732)" stroke-width="2" stroke-linecap="round"/>
<path d="M137.07 322.163L12.5042 249.269C7.20714 246.169 7.22928 238.506 12.5441 235.437L53.6072 211.724" stroke="url(#paint8_linear_3947_18732)" stroke-width="2" stroke-linecap="round"/>
<path d="M259.44 118.411L259.44 58.9305" stroke="url(#paint9_linear_3947_18732)" stroke-width="2" stroke-linecap="round"/>
<path d="M140.331 187.262L259.496 118.411L376.514 186.035L374.758 321.755L256.074 390.326L139.115 322.757L140.331 187.262Z" stroke="#1E40AF" stroke-width="2" stroke-dasharray="6 6"/>
<path d="M165.024 198.169L165.013 308.274L256.449 361.061L256.471 256.223L165.024 198.169Z" fill="#1E40AF"/>
<path d="M256.483 256.215L351.861 197.38L351.858 306.015L256.447 361.051L256.483 256.215Z" fill="#2563EB"/>
<path d="M165.023 198.174L259.138 140.107L351.858 197.388L256.483 256.272L165.023 198.174Z" fill="#60A5FA"/>
<defs>
<filter id="filter0_f_3947_18732" x="159.285" y="207.359" width="189.674" height="184.979" filterUnits="userSpaceOnUse" color-interpolation-filters="sRGB">
<feFlood flood-opacity="0" result="BackgroundImageFix"/>
<feBlend mode="normal" in="SourceGraphic" in2="BackgroundImageFix" result="shape"/>
<feGaussianBlur stdDeviation="40" result="effect1_foregroundBlur_3947_18732"/>
</filter>
<linearGradient id="paint0_linear_3947_18732" x1="69.0023" y1="95.5118" x2="87.8275" y2="191.062" gradientUnits="userSpaceOnUse">
<stop stop-color="#D97706" stop-opacity="0"/>
<stop offset="1" stop-color="#D97706"/>
</linearGradient>
<linearGradient id="paint1_linear_3947_18732" x1="451.317" y1="101.063" x2="430.624" y2="190.184" gradientUnits="userSpaceOnUse">
<stop stop-color="#D97706" stop-opacity="0"/>
<stop offset="1" stop-color="#D97706"/>
</linearGradient>
<linearGradient id="paint2_linear_3947_18732" x1="71.1523" y1="163.503" x2="80.9968" y2="219.639" gradientUnits="userSpaceOnUse">
<stop stop-color="#3B82F6"/>
<stop offset="1" stop-color="#1E3A8A"/>
</linearGradient>
<linearGradient id="paint3_linear_3947_18732" x1="428.986" y1="63.667" x2="434.236" y2="93.6063" gradientUnits="userSpaceOnUse">
<stop stop-color="#3B82F6"/>
<stop offset="1" stop-color="#1E3A8A"/>
</linearGradient>
<linearGradient id="paint4_linear_3947_18732" x1="86.1003" y1="63.667" x2="91.3507" y2="93.6063" gradientUnits="userSpaceOnUse">
<stop stop-color="#3B82F6"/>
<stop offset="1" stop-color="#1E3A8A"/>
</linearGradient>
<linearGradient id="paint5_linear_3947_18732" x1="255.005" y1="6.09123" x2="261.152" y2="50.7075" gradientUnits="userSpaceOnUse">
<stop stop-color="#3B82F6"/>
<stop offset="1" stop-color="#1E3A8A"/>
</linearGradient>
<linearGradient id="paint6_linear_3947_18732" x1="435.271" y1="163.503" x2="445.116" y2="219.639" gradientUnits="userSpaceOnUse">
<stop stop-color="#3B82F6"/>
<stop offset="1" stop-color="#1E3A8A"/>
</linearGradient>
<linearGradient id="paint7_linear_3947_18732" x1="435.277" y1="197.748" x2="389.596" y2="326.266" gradientUnits="userSpaceOnUse">
<stop stop-color="#D97706" stop-opacity="0"/>
<stop offset="0.334962" stop-color="#D97706"/>
</linearGradient>
<linearGradient id="paint8_linear_3947_18732" x1="61.7316" y1="203.793" x2="124.057" y2="328.657" gradientUnits="userSpaceOnUse">
<stop offset="0.0058099" stop-color="#D97706" stop-opacity="0"/>
<stop offset="0.413612" stop-color="#D97706"/>
</linearGradient>
<linearGradient id="paint9_linear_3947_18732" x1="259.44" y1="58.9306" x2="245.901" y2="99.6165" gradientUnits="userSpaceOnUse">
<stop stop-color="#D97706" stop-opacity="0"/>
<stop offset="0.727821" stop-color="#D97706"/>
</linearGradient>
</defs>
</svg>

