<svg width="514" height="232" viewBox="0 0 514 232" fill="none" xmlns="http://www.w3.org/2000/svg">
<g filter="url(#filter0_dd_3947_20848)">
<path d="M23.6719 23.4929C23.6188 23.0223 23.4001 22.6577 23.0156 22.3991C22.6312 22.1373 22.1473 22.0064 21.5639 22.0064C21.1463 22.0064 20.785 22.0727 20.4801 22.2053C20.1752 22.3345 19.9382 22.5135 19.7692 22.7422C19.6035 22.9676 19.5206 23.2244 19.5206 23.5128C19.5206 23.7547 19.5769 23.9635 19.6896 24.1392C19.8056 24.3149 19.9564 24.4624 20.142 24.5817C20.331 24.6977 20.5331 24.7955 20.7486 24.875C20.964 24.9512 21.1712 25.0142 21.37 25.0639L22.3643 25.3224C22.6892 25.402 23.0223 25.5097 23.3636 25.6456C23.705 25.7815 24.0215 25.9605 24.3132 26.1825C24.6049 26.4046 24.8402 26.6797 25.0192 27.0078C25.2015 27.3359 25.2926 27.7287 25.2926 28.1861C25.2926 28.7628 25.1435 29.2749 24.8452 29.7223C24.5502 30.1697 24.121 30.5227 23.5575 30.7812C22.9974 31.0398 22.3196 31.169 21.5241 31.169C20.7618 31.169 20.1023 31.0481 19.5455 30.8061C18.9886 30.5642 18.5528 30.2211 18.2379 29.777C17.9231 29.3295 17.7491 28.7992 17.7159 28.1861H19.2571C19.2869 28.554 19.4063 28.8606 19.6151 29.1058C19.8272 29.3478 20.0973 29.5284 20.4254 29.6477C20.7569 29.7637 21.1198 29.8217 21.5142 29.8217C21.9484 29.8217 22.3345 29.7538 22.6726 29.6179C23.014 29.4787 23.2824 29.2865 23.478 29.0412C23.6735 28.7926 23.7713 28.5026 23.7713 28.1712C23.7713 27.8696 23.6851 27.6226 23.5128 27.4304C23.3438 27.2382 23.1134 27.0791 22.8217 26.9531C22.5334 26.8272 22.2069 26.7161 21.8423 26.62L20.6392 26.2919C19.8239 26.0698 19.1776 25.7434 18.7003 25.3125C18.2263 24.8816 17.9893 24.3116 17.9893 23.6023C17.9893 23.0156 18.1484 22.5036 18.4666 22.0661C18.7848 21.6286 19.2157 21.2888 19.7592 21.0469C20.3028 20.8016 20.916 20.679 21.5987 20.679C22.2881 20.679 22.8963 20.8 23.4233 21.0419C23.9536 21.2839 24.3712 21.617 24.6761 22.0412C24.9811 22.4621 25.1402 22.946 25.1534 23.4929H23.6719ZM30.3002 31.1541C29.5479 31.1541 28.8999 30.9934 28.3564 30.6719C27.8161 30.3471 27.3985 29.8913 27.1035 29.3047C26.8118 28.7147 26.666 28.0237 26.666 27.2315C26.666 26.4493 26.8118 25.7599 27.1035 25.1634C27.3985 24.5668 27.8095 24.1011 28.3365 23.7663C28.8668 23.4316 29.4866 23.2642 30.1958 23.2642C30.6267 23.2642 31.0443 23.3355 31.4487 23.478C31.853 23.6205 32.216 23.8442 32.5375 24.1491C32.859 24.4541 33.1125 24.8501 33.2981 25.3374C33.4837 25.8213 33.5765 26.4096 33.5765 27.1023V27.6293H27.5062V26.5156H32.1199C32.1199 26.1245 32.0403 25.7782 31.8812 25.4766C31.7221 25.1716 31.4984 24.9313 31.21 24.7557C30.925 24.58 30.5903 24.4922 30.2058 24.4922C29.7882 24.4922 29.4236 24.5949 29.112 24.8004C28.8038 25.0026 28.5652 25.2678 28.3961 25.5959C28.2304 25.9207 28.1475 26.2737 28.1475 26.6548V27.5249C28.1475 28.0353 28.237 28.4695 28.416 28.8274C28.5983 29.1854 28.8519 29.4588 29.1767 29.6477C29.5015 29.8333 29.881 29.9261 30.3152 29.9261C30.5969 29.9261 30.8538 29.8864 31.0858 29.8068C31.3178 29.724 31.5183 29.6013 31.6873 29.4389C31.8564 29.2765 31.9856 29.076 32.0751 28.8374L33.4821 29.0909C33.3694 29.5052 33.1672 29.8681 32.8755 30.1797C32.5872 30.4879 32.2243 30.7282 31.7868 30.9006C31.3526 31.0696 30.8571 31.1541 30.3002 31.1541ZM36.7124 20.8182V31H35.2259V20.8182H36.7124ZM42.0034 31.1541C41.251 31.1541 40.603 30.9934 40.0595 30.6719C39.5192 30.3471 39.1016 29.8913 38.8066 29.3047C38.515 28.7147 38.3691 28.0237 38.3691 27.2315C38.3691 26.4493 38.515 25.7599 38.8066 25.1634C39.1016 24.5668 39.5126 24.1011 40.0396 23.7663C40.5699 23.4316 41.1897 23.2642 41.899 23.2642C42.3298 23.2642 42.7475 23.3355 43.1518 23.478C43.5562 23.6205 43.9191 23.8442 44.2406 24.1491C44.5621 24.4541 44.8156 24.8501 45.0012 25.3374C45.1868 25.8213 45.2797 26.4096 45.2797 27.1023V27.6293H39.2093V26.5156H43.823C43.823 26.1245 43.7434 25.7782 43.5843 25.4766C43.4252 25.1716 43.2015 24.9313 42.9132 24.7557C42.6281 24.58 42.2934 24.4922 41.9089 24.4922C41.4913 24.4922 41.1267 24.5949 40.8152 24.8004C40.5069 25.0026 40.2683 25.2678 40.0993 25.5959C39.9335 25.9207 39.8507 26.2737 39.8507 26.6548V27.5249C39.8507 28.0353 39.9402 28.4695 40.1191 28.8274C40.3014 29.1854 40.555 29.4588 40.8798 29.6477C41.2046 29.8333 41.5841 29.9261 42.0183 29.9261C42.3 29.9261 42.5569 29.8864 42.7889 29.8068C43.0209 29.724 43.2214 29.6013 43.3904 29.4389C43.5595 29.2765 43.6887 29.076 43.7782 28.8374L45.1852 29.0909C45.0725 29.5052 44.8703 29.8681 44.5787 30.1797C44.2903 30.4879 43.9274 30.7282 43.4899 30.9006C43.0557 31.0696 42.5602 31.1541 42.0034 31.1541ZM50.1456 31.1541C49.4065 31.1541 48.7701 30.9867 48.2365 30.652C47.7062 30.3139 47.2985 29.8482 47.0135 29.255C46.7285 28.6617 46.5859 27.9822 46.5859 27.2166C46.5859 26.4411 46.7318 25.7566 47.0234 25.1634C47.3151 24.5668 47.7261 24.1011 48.2564 23.7663C48.7867 23.4316 49.4115 23.2642 50.1307 23.2642C50.7107 23.2642 51.2277 23.3719 51.6818 23.5874C52.1359 23.7995 52.5021 24.0978 52.7805 24.4822C53.0623 24.8667 53.2296 25.3158 53.2827 25.8295H51.8359C51.7564 25.4716 51.5741 25.1634 51.2891 24.9048C51.0073 24.6463 50.6295 24.517 50.1555 24.517C49.7412 24.517 49.3783 24.6264 49.0668 24.8452C48.7585 25.0606 48.5182 25.3688 48.3459 25.7699C48.1735 26.1676 48.0874 26.6383 48.0874 27.1818C48.0874 27.7386 48.1719 28.2192 48.3409 28.6236C48.5099 29.0279 48.7486 29.3411 49.0568 29.5632C49.3684 29.7853 49.7346 29.8963 50.1555 29.8963C50.4373 29.8963 50.6925 29.8449 50.9212 29.7422C51.1532 29.6361 51.3471 29.4853 51.5028 29.2898C51.6619 29.0942 51.773 28.8589 51.8359 28.5838H53.2827C53.2296 29.0777 53.0689 29.5185 52.8004 29.9062C52.532 30.294 52.1723 30.599 51.7216 30.821C51.2741 31.0431 50.7488 31.1541 50.1456 31.1541ZM58.437 23.3636V24.5568H54.2658V23.3636H58.437ZM55.3844 21.5341H56.8709V28.7578C56.8709 29.0462 56.914 29.2633 57.0002 29.4091C57.0864 29.5516 57.1974 29.6494 57.3333 29.7024C57.4725 29.7521 57.6233 29.777 57.7857 29.777C57.905 29.777 58.0094 29.7687 58.0989 29.7521C58.1884 29.7356 58.258 29.7223 58.3077 29.7124L58.5762 30.9403C58.49 30.9735 58.3674 31.0066 58.2083 31.0398C58.0492 31.0762 57.8503 31.0961 57.6117 31.0994C57.2206 31.1061 56.856 31.0365 56.5179 30.8906C56.1799 30.7448 55.9064 30.5194 55.6976 30.2145C55.4888 29.9096 55.3844 29.5268 55.3844 29.0661V21.5341ZM67.003 31.1541C66.2639 31.1541 65.6275 30.9867 65.0939 30.652C64.5636 30.3139 64.156 29.8482 63.8709 29.255C63.5859 28.6617 63.4434 27.9822 63.4434 27.2166C63.4434 26.4411 63.5892 25.7566 63.8809 25.1634C64.1725 24.5668 64.5835 24.1011 65.1138 23.7663C65.6441 23.4316 66.2689 23.2642 66.9881 23.2642C67.5681 23.2642 68.0852 23.3719 68.5392 23.5874C68.9933 23.7995 69.3596 24.0978 69.638 24.4822C69.9197 24.8667 70.0871 25.3158 70.1401 25.8295H68.6934C68.6138 25.4716 68.4315 25.1634 68.1465 24.9048C67.8648 24.6463 67.4869 24.517 67.013 24.517C66.5987 24.517 66.2357 24.6264 65.9242 24.8452C65.6159 25.0606 65.3757 25.3688 65.2033 25.7699C65.031 26.1676 64.9448 26.6383 64.9448 27.1818C64.9448 27.7386 65.0293 28.2192 65.1983 28.6236C65.3674 29.0279 65.606 29.3411 65.9142 29.5632C66.2258 29.7853 66.592 29.8963 67.013 29.8963C67.2947 29.8963 67.5499 29.8449 67.7786 29.7422C68.0106 29.6361 68.2045 29.4853 68.3603 29.2898C68.5194 29.0942 68.6304 28.8589 68.6934 28.5838H70.1401C70.0871 29.0777 69.9263 29.5185 69.6578 29.9062C69.3894 30.294 69.0298 30.599 68.579 30.821C68.1316 31.0431 67.6062 31.1541 67.003 31.1541ZM73.2163 20.8182V31H71.7298V20.8182H73.2163ZM78.4327 31.1541C77.7168 31.1541 77.092 30.9901 76.5584 30.6619C76.0248 30.3338 75.6105 29.8748 75.3155 29.2848C75.0205 28.6948 74.873 28.0054 74.873 27.2166C74.873 26.4245 75.0205 25.7318 75.3155 25.1385C75.6105 24.5452 76.0248 24.0845 76.5584 23.7564C77.092 23.4283 77.7168 23.2642 78.4327 23.2642C79.1486 23.2642 79.7734 23.4283 80.307 23.7564C80.8406 24.0845 81.2549 24.5452 81.5499 25.1385C81.8449 25.7318 81.9924 26.4245 81.9924 27.2166C81.9924 28.0054 81.8449 28.6948 81.5499 29.2848C81.2549 29.8748 80.8406 30.3338 80.307 30.6619C79.7734 30.9901 79.1486 31.1541 78.4327 31.1541ZM78.4377 29.9062C78.9017 29.9062 79.2862 29.7836 79.5911 29.5384C79.896 29.2931 80.1214 28.9666 80.2672 28.5589C80.4164 28.1513 80.4909 27.7022 80.4909 27.2116C80.4909 26.7244 80.4164 26.277 80.2672 25.8693C80.1214 25.4583 79.896 25.1286 79.5911 24.88C79.2862 24.6314 78.9017 24.5071 78.4377 24.5071C77.9703 24.5071 77.5826 24.6314 77.2743 24.88C76.9694 25.1286 76.7424 25.4583 76.5932 25.8693C76.4474 26.277 76.3745 26.7244 76.3745 27.2116C76.3745 27.7022 76.4474 28.1513 76.5932 28.5589C76.7424 28.9666 76.9694 29.2931 77.2743 29.5384C77.5826 29.7836 77.9703 29.9062 78.4377 29.9062ZM88.489 27.8331V23.3636H89.9805V31H88.5188V29.6776H88.4393C88.2636 30.0852 87.9819 30.425 87.5941 30.6967C87.2096 30.9652 86.7307 31.0994 86.1573 31.0994C85.6668 31.0994 85.2326 30.9917 84.8548 30.7763C84.4802 30.5575 84.1853 30.2344 83.9698 29.8068C83.7577 29.3793 83.6516 28.8506 83.6516 28.2209V23.3636H85.1381V28.0419C85.1381 28.5623 85.2823 28.9766 85.5707 29.2848C85.859 29.593 86.2335 29.7472 86.6942 29.7472C86.9727 29.7472 87.2494 29.6776 87.5245 29.5384C87.8029 29.3991 88.0333 29.1887 88.2156 28.907C88.4012 28.6252 88.4923 28.2673 88.489 27.8331ZM94.8365 31.1491C94.22 31.1491 93.6698 30.9917 93.1859 30.6768C92.7053 30.3587 92.3275 29.9062 92.0524 29.3196C91.7806 28.7296 91.6447 28.022 91.6447 27.1967C91.6447 26.3714 91.7823 25.6655 92.0574 25.0788C92.3358 24.4922 92.7169 24.0431 93.2008 23.7315C93.6847 23.42 94.2333 23.2642 94.8464 23.2642C95.3204 23.2642 95.7015 23.3438 95.9899 23.5028C96.2815 23.6586 96.5069 23.8409 96.666 24.0497C96.8284 24.2585 96.9544 24.4425 97.0439 24.6016H97.1333V20.8182H98.6199V31H97.1681V29.8118H97.0439C96.9544 29.9742 96.8251 30.1598 96.6561 30.3686C96.4904 30.5774 96.2617 30.7597 95.97 30.9155C95.6783 31.0713 95.3005 31.1491 94.8365 31.1491ZM95.1646 29.8814C95.5922 29.8814 95.9534 29.7687 96.2484 29.5433C96.5467 29.3146 96.7721 28.9981 96.9245 28.5938C97.0803 28.1894 97.1582 27.7187 97.1582 27.1818C97.1582 26.6515 97.082 26.1875 96.9295 25.7898C96.777 25.392 96.5533 25.0821 96.2583 24.8601C95.9634 24.638 95.5988 24.527 95.1646 24.527C94.7172 24.527 94.3443 24.643 94.046 24.875C93.7477 25.107 93.5223 25.4235 93.3699 25.8246C93.2207 26.2256 93.1461 26.678 93.1461 27.1818C93.1461 27.6922 93.2224 28.1513 93.3748 28.5589C93.5273 28.9666 93.7527 29.2898 94.051 29.5284C94.3526 29.7637 94.7238 29.8814 95.1646 29.8814ZM104.447 33.8636V23.3636H105.898V24.6016H106.023C106.109 24.4425 106.233 24.2585 106.395 24.0497C106.558 23.8409 106.783 23.6586 107.072 23.5028C107.36 23.3438 107.741 23.2642 108.215 23.2642C108.831 23.2642 109.382 23.42 109.866 23.7315C110.349 24.0431 110.729 24.4922 111.004 25.0788C111.282 25.6655 111.422 26.3714 111.422 27.1967C111.422 28.022 111.284 28.7296 111.009 29.3196C110.734 29.9062 110.356 30.3587 109.876 30.6768C109.395 30.9917 108.846 31.1491 108.23 31.1491C107.766 31.1491 107.386 31.0713 107.091 30.9155C106.8 30.7597 106.571 30.5774 106.405 30.3686C106.24 30.1598 106.112 29.9742 106.023 29.8118H105.933V33.8636H104.447ZM105.903 27.1818C105.903 27.7187 105.981 28.1894 106.137 28.5938C106.293 28.9981 106.518 29.3146 106.813 29.5433C107.108 29.7687 107.469 29.8814 107.897 29.8814C108.341 29.8814 108.712 29.7637 109.01 29.5284C109.309 29.2898 109.534 28.9666 109.687 28.5589C109.842 28.1513 109.92 27.6922 109.92 27.1818C109.92 26.678 109.844 26.2256 109.692 25.8246C109.542 25.4235 109.317 25.107 109.015 24.875C108.717 24.643 108.344 24.527 107.897 24.527C107.466 24.527 107.101 24.638 106.803 24.8601C106.508 25.0821 106.284 25.392 106.132 25.7898C105.979 26.1875 105.903 26.6515 105.903 27.1818ZM113.087 31V23.3636H114.524V24.5767H114.604C114.743 24.1657 114.988 23.8426 115.339 23.6072C115.694 23.3686 116.095 23.2493 116.542 23.2493C116.635 23.2493 116.745 23.2526 116.871 23.2592C117 23.2659 117.101 23.2741 117.174 23.2841V24.706C117.114 24.6894 117.008 24.6712 116.856 24.6513C116.703 24.6281 116.551 24.6165 116.398 24.6165C116.047 24.6165 115.734 24.6911 115.459 24.8402C115.187 24.986 114.971 25.1899 114.812 25.4517C114.653 25.7102 114.574 26.0052 114.574 26.3366V31H113.087ZM121.403 31.1541C120.688 31.1541 120.063 30.9901 119.529 30.6619C118.996 30.3338 118.581 29.8748 118.286 29.2848C117.991 28.6948 117.844 28.0054 117.844 27.2166C117.844 26.4245 117.991 25.7318 118.286 25.1385C118.581 24.5452 118.996 24.0845 119.529 23.7564C120.063 23.4283 120.688 23.2642 121.403 23.2642C122.119 23.2642 122.744 23.4283 123.278 23.7564C123.811 24.0845 124.226 24.5452 124.521 25.1385C124.816 25.7318 124.963 26.4245 124.963 27.2166C124.963 28.0054 124.816 28.6948 124.521 29.2848C124.226 29.8748 123.811 30.3338 123.278 30.6619C122.744 30.9901 122.119 31.1541 121.403 31.1541ZM121.408 29.9062C121.872 29.9062 122.257 29.7836 122.562 29.5384C122.867 29.2931 123.092 28.9666 123.238 28.5589C123.387 28.1513 123.462 27.7022 123.462 27.2116C123.462 26.7244 123.387 26.277 123.238 25.8693C123.092 25.4583 122.867 25.1286 122.562 24.88C122.257 24.6314 121.872 24.5071 121.408 24.5071C120.941 24.5071 120.553 24.6314 120.245 24.88C119.94 25.1286 119.713 25.4583 119.564 25.8693C119.418 26.277 119.345 26.7244 119.345 27.2116C119.345 27.7022 119.418 28.1513 119.564 28.5589C119.713 28.9666 119.94 29.2931 120.245 29.5384C120.553 29.7836 120.941 29.9062 121.408 29.9062ZM132.895 23.3636L130.126 31H128.535L125.761 23.3636H127.357L129.291 29.2401H129.37L131.299 23.3636H132.895ZM134.292 31V23.3636H135.779V31H134.292ZM135.043 22.1854C134.784 22.1854 134.562 22.0992 134.377 21.9268C134.194 21.7512 134.103 21.5424 134.103 21.3004C134.103 21.0552 134.194 20.8464 134.377 20.674C134.562 20.4983 134.784 20.4105 135.043 20.4105C135.301 20.4105 135.522 20.4983 135.704 20.674C135.89 20.8464 135.983 21.0552 135.983 21.3004C135.983 21.5424 135.89 21.7512 135.704 21.9268C135.522 22.0992 135.301 22.1854 135.043 22.1854ZM140.637 31.1491C140.021 31.1491 139.471 30.9917 138.987 30.6768C138.506 30.3587 138.128 29.9062 137.853 29.3196C137.581 28.7296 137.445 28.022 137.445 27.1967C137.445 26.3714 137.583 25.6655 137.858 25.0788C138.137 24.4922 138.518 24.0431 139.002 23.7315C139.485 23.42 140.034 23.2642 140.647 23.2642C141.121 23.2642 141.502 23.3438 141.791 23.5028C142.082 23.6586 142.308 23.8409 142.467 24.0497C142.629 24.2585 142.755 24.4425 142.845 24.6016H142.934V20.8182H144.421V31H142.969V29.8118H142.845C142.755 29.9742 142.626 30.1598 142.457 30.3686C142.291 30.5774 142.062 30.7597 141.771 30.9155C141.479 31.0713 141.101 31.1491 140.637 31.1491ZM140.965 29.8814C141.393 29.8814 141.754 29.7687 142.049 29.5433C142.347 29.3146 142.573 28.9981 142.725 28.5938C142.881 28.1894 142.959 27.7187 142.959 27.1818C142.959 26.6515 142.883 26.1875 142.73 25.7898C142.578 25.392 142.354 25.0821 142.059 24.8601C141.764 24.638 141.4 24.527 140.965 24.527C140.518 24.527 140.145 24.643 139.847 24.875C139.548 25.107 139.323 25.4235 139.171 25.8246C139.021 26.2256 138.947 26.678 138.947 27.1818C138.947 27.6922 139.023 28.1513 139.176 28.5589C139.328 28.9666 139.553 29.2898 139.852 29.5284C140.153 29.7637 140.525 29.8814 140.965 29.8814ZM149.833 31.1541C149.081 31.1541 148.433 30.9934 147.89 30.6719C147.349 30.3471 146.932 29.8913 146.637 29.3047C146.345 28.7147 146.199 28.0237 146.199 27.2315C146.199 26.4493 146.345 25.7599 146.637 25.1634C146.932 24.5668 147.343 24.1011 147.87 23.7663C148.4 23.4316 149.02 23.2642 149.729 23.2642C150.16 23.2642 150.578 23.3355 150.982 23.478C151.386 23.6205 151.749 23.8442 152.071 24.1491C152.392 24.4541 152.646 24.8501 152.831 25.3374C153.017 25.8213 153.11 26.4096 153.11 27.1023V27.6293H147.039V26.5156H151.653C151.653 26.1245 151.574 25.7782 151.414 25.4766C151.255 25.1716 151.032 24.9313 150.743 24.7557C150.458 24.58 150.123 24.4922 149.739 24.4922C149.321 24.4922 148.957 24.5949 148.645 24.8004C148.337 25.0026 148.098 25.2678 147.929 25.5959C147.764 25.9207 147.681 26.2737 147.681 26.6548V27.5249C147.681 28.0353 147.77 28.4695 147.949 28.8274C148.132 29.1854 148.385 29.4588 148.71 29.6477C149.035 29.8333 149.414 29.9261 149.848 29.9261C150.13 29.9261 150.387 29.8864 150.619 29.8068C150.851 29.724 151.051 29.6013 151.221 29.4389C151.39 29.2765 151.519 29.076 151.608 28.8374L153.015 29.0909C152.903 29.5052 152.7 29.8681 152.409 30.1797C152.12 30.4879 151.757 30.7282 151.32 30.9006C150.886 31.0696 150.39 31.1541 149.833 31.1541ZM154.759 31V23.3636H156.196V24.5767H156.275C156.415 24.1657 156.66 23.8426 157.011 23.6072C157.366 23.3686 157.767 23.2493 158.214 23.2493C158.307 23.2493 158.416 23.2526 158.542 23.2592C158.672 23.2659 158.773 23.2741 158.846 23.2841V24.706C158.786 24.6894 158.68 24.6712 158.528 24.6513C158.375 24.6281 158.223 24.6165 158.07 24.6165C157.719 24.6165 157.406 24.6911 157.131 24.8402C156.859 24.986 156.643 25.1899 156.484 25.4517C156.325 25.7102 156.246 26.0052 156.246 26.3366V31H154.759Z" fill="#111827"/>
<g clip-path="url(#clip0_3947_20848)">
<rect x="17" y="42" width="480" height="36" rx="4" fill="white"/>
<path d="M486 57.5L481 62.5L476 57.5" stroke="#111827" stroke-linecap="round" stroke-linejoin="round"/>
</g>
<rect x="17" y="42" width="480" height="36" rx="4" stroke="#E4E4E7"/>
<rect x="17.5" y="110.5" width="112" height="103" rx="3.5" fill="white"/>
<rect x="17.5" y="110.5" width="112" height="103" rx="3.5" stroke="#E4E4E7"/>
<path fill-rule="evenodd" clip-rule="evenodd" d="M73.5 162C82.3366 162 89.5 154.837 89.5 146C89.5 137.163 82.3366 130 73.5 130C64.6661 130 57.5043 137.159 57.5 145.992H63.5879C63.5922 140.521 68.0283 136.088 73.5 136.088C78.9743 136.088 83.4121 140.526 83.4121 146C83.4121 151.474 78.9743 155.912 73.5 155.912L73.4807 155.912V162L73.5 162ZM73.4805 149.605H67.2933V155.793H73.4805V149.605ZM67.2933 155.813H62.5389V151.837H58.5631V155.813H62.5387V160.567H67.2933V155.813Z" fill="#111827"/>
<path d="M32.9148 189H29.6186V178.818H33.0192C34.0168 178.818 34.8736 179.022 35.5895 179.43C36.3054 179.834 36.8539 180.416 37.2351 181.175C37.6196 181.93 37.8118 182.837 37.8118 183.894C37.8118 184.955 37.6179 185.866 37.2301 186.629C36.8456 187.391 36.2888 187.978 35.5597 188.388C34.8305 188.796 33.9489 189 32.9148 189ZM31.1548 187.658H32.8303C33.6058 187.658 34.2505 187.512 34.7642 187.22C35.2779 186.925 35.6624 186.499 35.9176 185.942C36.1728 185.382 36.3004 184.7 36.3004 183.894C36.3004 183.095 36.1728 182.418 35.9176 181.861C35.6657 181.304 35.2895 180.881 34.7891 180.593C34.2886 180.305 33.6671 180.161 32.9247 180.161H31.1548V187.658ZM39.6028 189V181.364H41.0893V189H39.6028ZM40.3535 180.185C40.095 180.185 39.8729 180.099 39.6873 179.927C39.505 179.751 39.4139 179.542 39.4139 179.3C39.4139 179.055 39.505 178.846 39.6873 178.674C39.8729 178.498 40.095 178.411 40.3535 178.411C40.612 178.411 40.8324 178.498 41.0147 178.674C41.2003 178.846 41.2931 179.055 41.2931 179.3C41.2931 179.542 41.2003 179.751 41.0147 179.927C40.8324 180.099 40.612 180.185 40.3535 180.185ZM46.2908 192.023C45.6843 192.023 45.1623 191.943 44.7248 191.784C44.2906 191.625 43.936 191.415 43.6609 191.153C43.3858 190.891 43.1803 190.604 43.0444 190.293L44.3221 189.766C44.4116 189.911 44.5309 190.066 44.68 190.228C44.8325 190.394 45.038 190.535 45.2965 190.651C45.5584 190.767 45.8948 190.825 46.3058 190.825C46.8692 190.825 47.3349 190.687 47.7028 190.412C48.0707 190.14 48.2546 189.706 48.2546 189.109V187.608H48.1602C48.0707 187.77 47.9414 187.951 47.7724 188.15C47.6067 188.349 47.378 188.521 47.0863 188.667C46.7946 188.813 46.4151 188.886 45.9478 188.886C45.3446 188.886 44.801 188.745 44.3171 188.463C43.8365 188.178 43.4554 187.759 43.1737 187.205C42.8952 186.648 42.756 185.964 42.756 185.152C42.756 184.34 42.8936 183.644 43.1687 183.064C43.4471 182.484 43.8282 182.04 44.3121 181.732C44.796 181.42 45.3446 181.264 45.9577 181.264C46.4317 181.264 46.8145 181.344 47.1062 181.503C47.3978 181.659 47.6249 181.841 47.7873 182.05C47.953 182.259 48.0806 182.442 48.1701 182.602H48.2795V181.364H49.7362V189.169C49.7362 189.825 49.5837 190.364 49.2788 190.785C48.9738 191.206 48.5612 191.517 48.0408 191.719C47.5238 191.922 46.9405 192.023 46.2908 192.023ZM46.2759 187.653C46.7035 187.653 47.0647 187.553 47.3597 187.354C47.658 187.152 47.8834 186.864 48.0359 186.489C48.1916 186.112 48.2695 185.659 48.2695 185.132C48.2695 184.618 48.1933 184.166 48.0408 183.775C47.8884 183.384 47.6647 183.079 47.3697 182.86C47.0747 182.638 46.7101 182.527 46.2759 182.527C45.8285 182.527 45.4556 182.643 45.1573 182.875C44.859 183.104 44.6336 183.415 44.4812 183.81C44.332 184.204 44.2575 184.645 44.2575 185.132C44.2575 185.633 44.3337 186.072 44.4862 186.45C44.6386 186.827 44.864 187.122 45.1623 187.335C45.4639 187.547 45.8351 187.653 46.2759 187.653ZM51.7298 189V181.364H53.2163V189H51.7298ZM52.4805 180.185C52.2219 180.185 51.9999 180.099 51.8143 179.927C51.632 179.751 51.5408 179.542 51.5408 179.3C51.5408 179.055 51.632 178.846 51.8143 178.674C51.9999 178.498 52.2219 178.411 52.4805 178.411C52.739 178.411 52.9594 178.498 53.1417 178.674C53.3273 178.846 53.4201 179.055 53.4201 179.3C53.4201 179.542 53.3273 179.751 53.1417 179.927C52.9594 180.099 52.739 180.185 52.4805 180.185ZM58.7807 181.364V182.557H54.6096V181.364H58.7807ZM55.7282 179.534H57.2147V186.758C57.2147 187.046 57.2578 187.263 57.3439 187.409C57.4301 187.552 57.5411 187.649 57.677 187.702C57.8162 187.752 57.967 187.777 58.1294 187.777C58.2488 187.777 58.3532 187.769 58.4426 187.752C58.5321 187.736 58.6017 187.722 58.6515 187.712L58.9199 188.94C58.8337 188.973 58.7111 189.007 58.552 189.04C58.3929 189.076 58.1941 189.096 57.9554 189.099C57.5643 189.106 57.1998 189.036 56.8617 188.891C56.5236 188.745 56.2502 188.519 56.0414 188.214C55.8326 187.91 55.7282 187.527 55.7282 187.066V179.534ZM62.6474 189.169C62.1635 189.169 61.726 189.08 61.3349 188.901C60.9438 188.718 60.6339 188.455 60.4052 188.11C60.1798 187.765 60.0671 187.343 60.0671 186.842C60.0671 186.411 60.15 186.057 60.3157 185.778C60.4814 185.5 60.7051 185.28 60.9869 185.117C61.2686 184.955 61.5835 184.832 61.9315 184.749C62.2795 184.666 62.6341 184.603 62.9954 184.56C63.4528 184.507 63.824 184.464 64.109 184.431C64.3941 184.395 64.6012 184.337 64.7305 184.257C64.8597 184.178 64.9244 184.048 64.9244 183.869V183.835C64.9244 183.4 64.8017 183.064 64.5565 182.825C64.3145 182.587 63.9532 182.467 63.4727 182.467C62.9722 182.467 62.5778 182.578 62.2894 182.8C62.0044 183.019 61.8072 183.263 61.6978 183.531L60.3008 183.213C60.4665 182.749 60.7085 182.375 61.0266 182.089C61.3481 181.801 61.7177 181.592 62.1353 181.463C62.5529 181.33 62.9921 181.264 63.4528 181.264C63.7577 181.264 64.0808 181.301 64.4222 181.374C64.7669 181.443 65.0884 181.572 65.3867 181.761C65.6883 181.95 65.9353 182.22 66.1275 182.572C66.3197 182.92 66.4158 183.372 66.4158 183.929V189H64.9641V187.956H64.9045C64.8084 188.148 64.6642 188.337 64.4719 188.523C64.2797 188.708 64.0328 188.862 63.7312 188.985C63.4296 189.108 63.0683 189.169 62.6474 189.169ZM62.9705 187.976C63.3815 187.976 63.7328 187.895 64.0245 187.732C64.3195 187.57 64.5432 187.358 64.6957 187.096C64.8514 186.831 64.9293 186.547 64.9293 186.246V185.261C64.8763 185.314 64.7736 185.364 64.6211 185.411C64.4719 185.454 64.3013 185.492 64.109 185.525C63.9168 185.555 63.7295 185.583 63.5472 185.609C63.3649 185.633 63.2125 185.652 63.0898 185.669C62.8015 185.705 62.538 185.767 62.2994 185.853C62.064 185.939 61.8751 186.063 61.7326 186.226C61.5934 186.385 61.5238 186.597 61.5238 186.862C61.5238 187.23 61.6597 187.509 61.9315 187.697C62.2032 187.883 62.5496 187.976 62.9705 187.976ZM69.8823 178.818V189H68.3958V178.818H69.8823ZM84.551 183.909C84.551 184.996 84.3521 185.931 83.9544 186.713C83.5566 187.492 83.0114 188.092 82.3187 188.513C81.6293 188.93 80.8455 189.139 79.9672 189.139C79.0855 189.139 78.2984 188.93 77.6056 188.513C76.9163 188.092 76.3727 187.49 75.975 186.708C75.5772 185.926 75.3784 184.993 75.3784 183.909C75.3784 182.822 75.5772 181.889 75.975 181.11C76.3727 180.328 76.9163 179.728 77.6056 179.31C78.2984 178.889 79.0855 178.679 79.9672 178.679C80.8455 178.679 81.6293 178.889 82.3187 179.31C83.0114 179.728 83.5566 180.328 83.9544 181.11C84.3521 181.889 84.551 182.822 84.551 183.909ZM83.0297 183.909C83.0297 183.08 82.8954 182.383 82.627 181.816C82.3618 181.246 81.9972 180.815 81.5332 180.523C81.0725 180.228 80.5505 180.081 79.9672 180.081C79.3805 180.081 78.8568 180.228 78.3961 180.523C77.9354 180.815 77.5708 181.246 77.3024 181.816C77.0372 182.383 76.9047 183.08 76.9047 183.909C76.9047 184.738 77.0372 185.437 77.3024 186.007C77.5708 186.574 77.9354 187.005 78.3961 187.3C78.8568 187.591 79.3805 187.737 79.9672 187.737C80.5505 187.737 81.0725 187.591 81.5332 187.3C81.9972 187.005 82.3618 186.574 82.627 186.007C82.8954 185.437 83.0297 184.738 83.0297 183.909ZM89.5636 189.154C88.8245 189.154 88.1881 188.987 87.6545 188.652C87.1242 188.314 86.7165 187.848 86.4315 187.255C86.1464 186.662 86.0039 185.982 86.0039 185.217C86.0039 184.441 86.1497 183.757 86.4414 183.163C86.7331 182.567 87.1441 182.101 87.6744 181.766C88.2047 181.432 88.8294 181.264 89.5487 181.264C90.1287 181.264 90.6457 181.372 91.0998 181.587C91.5539 181.799 91.9201 182.098 92.1985 182.482C92.4802 182.867 92.6476 183.316 92.7006 183.83H91.2539C91.1744 183.472 90.9921 183.163 90.707 182.905C90.4253 182.646 90.0475 182.517 89.5735 182.517C89.1592 182.517 88.7963 182.626 88.4847 182.845C88.1765 183.061 87.9362 183.369 87.7638 183.77C87.5915 184.168 87.5053 184.638 87.5053 185.182C87.5053 185.739 87.5898 186.219 87.7589 186.624C87.9279 187.028 88.1665 187.341 88.4748 187.563C88.7863 187.785 89.1526 187.896 89.5735 187.896C89.8552 187.896 90.1104 187.845 90.3391 187.742C90.5711 187.636 90.765 187.485 90.9208 187.29C91.0799 187.094 91.1909 186.859 91.2539 186.584H92.7006C92.6476 187.078 92.4869 187.518 92.2184 187.906C91.9499 188.294 91.5903 188.599 91.1396 188.821C90.6921 189.043 90.1668 189.154 89.5636 189.154ZM97.5815 189.154C96.8291 189.154 96.1812 188.993 95.6376 188.672C95.0974 188.347 94.6797 187.891 94.3848 187.305C94.0931 186.715 93.9473 186.024 93.9473 185.232C93.9473 184.449 94.0931 183.76 94.3848 183.163C94.6797 182.567 95.0907 182.101 95.6177 181.766C96.148 181.432 96.7678 181.264 97.4771 181.264C97.908 181.264 98.3256 181.335 98.7299 181.478C99.1343 181.621 99.4972 181.844 99.8187 182.149C100.14 182.454 100.394 182.85 100.579 183.337C100.765 183.821 100.858 184.41 100.858 185.102V185.629H94.7875V184.516H99.4011C99.4011 184.125 99.3216 183.778 99.1625 183.477C99.0034 183.172 98.7797 182.931 98.4913 182.756C98.2063 182.58 97.8715 182.492 97.487 182.492C97.0694 182.492 96.7048 182.595 96.3933 182.8C96.085 183.003 95.8464 183.268 95.6774 183.596C95.5117 183.921 95.4288 184.274 95.4288 184.655V185.525C95.4288 186.035 95.5183 186.469 95.6973 186.827C95.8796 187.185 96.1331 187.459 96.4579 187.648C96.7827 187.833 97.1622 187.926 97.5964 187.926C97.8781 187.926 98.135 187.886 98.367 187.807C98.599 187.724 98.7995 187.601 98.9686 187.439C99.1376 187.277 99.2669 187.076 99.3564 186.837L100.763 187.091C100.651 187.505 100.448 187.868 100.157 188.18C99.8684 188.488 99.5055 188.728 99.068 188.901C98.6338 189.07 98.1383 189.154 97.5815 189.154ZM104.729 189.169C104.246 189.169 103.808 189.08 103.417 188.901C103.026 188.718 102.716 188.455 102.487 188.11C102.262 187.765 102.149 187.343 102.149 186.842C102.149 186.411 102.232 186.057 102.398 185.778C102.563 185.5 102.787 185.28 103.069 185.117C103.351 184.955 103.665 184.832 104.013 184.749C104.362 184.666 104.716 184.603 105.077 184.56C105.535 184.507 105.906 184.464 106.191 184.431C106.476 184.395 106.683 184.337 106.812 184.257C106.942 184.178 107.006 184.048 107.006 183.869V183.835C107.006 183.4 106.884 183.064 106.638 182.825C106.397 182.587 106.035 182.467 105.555 182.467C105.054 182.467 104.66 182.578 104.371 182.8C104.086 183.019 103.889 183.263 103.78 183.531L102.383 183.213C102.549 182.749 102.79 182.375 103.109 182.089C103.43 181.801 103.8 181.592 104.217 181.463C104.635 181.33 105.074 181.264 105.535 181.264C105.84 181.264 106.163 181.301 106.504 181.374C106.849 181.443 107.17 181.572 107.469 181.761C107.77 181.95 108.017 182.22 108.21 182.572C108.402 182.92 108.498 183.372 108.498 183.929V189H107.046V187.956H106.987C106.89 188.148 106.746 188.337 106.554 188.523C106.362 188.708 106.115 188.862 105.813 188.985C105.512 189.108 105.15 189.169 104.729 189.169ZM105.053 187.976C105.464 187.976 105.815 187.895 106.107 187.732C106.402 187.57 106.625 187.358 106.778 187.096C106.933 186.831 107.011 186.547 107.011 186.246V185.261C106.958 185.314 106.856 185.364 106.703 185.411C106.554 185.454 106.383 185.492 106.191 185.525C105.999 185.555 105.812 185.583 105.629 185.609C105.447 185.633 105.295 185.652 105.172 185.669C104.884 185.705 104.62 185.767 104.381 185.853C104.146 185.939 103.957 186.063 103.815 186.226C103.675 186.385 103.606 186.597 103.606 186.862C103.606 187.23 103.742 187.509 104.013 187.697C104.285 187.883 104.632 187.976 105.053 187.976ZM111.964 184.466V189H110.478V181.364H111.905V182.607H111.999C112.175 182.202 112.45 181.877 112.824 181.632C113.202 181.387 113.678 181.264 114.251 181.264C114.772 181.264 115.227 181.374 115.618 181.592C116.01 181.808 116.313 182.129 116.528 182.557C116.744 182.984 116.851 183.513 116.851 184.143V189H115.365V184.322C115.365 183.768 115.221 183.336 114.932 183.024C114.644 182.709 114.248 182.552 113.744 182.552C113.399 182.552 113.093 182.626 112.824 182.776C112.559 182.925 112.349 183.143 112.193 183.432C112.041 183.717 111.964 184.062 111.964 184.466Z" fill="#111827"/>
<rect x="162.5" y="110.5" width="189" height="103" rx="3.5" fill="white"/>
<rect x="162.5" y="110.5" width="189" height="103" rx="3.5" stroke="#E4E4E7"/>
<path fill-rule="evenodd" clip-rule="evenodd" d="M250.018 143.382C250.018 143.776 250.061 144.095 250.135 144.329C250.22 144.563 250.327 144.819 250.476 145.095C250.529 145.181 250.55 145.266 250.55 145.34C250.55 145.447 250.486 145.553 250.348 145.659L249.677 146.106C249.582 146.17 249.486 146.202 249.401 146.202C249.294 146.202 249.188 146.149 249.081 146.053C248.932 145.894 248.805 145.723 248.698 145.553C248.592 145.372 248.485 145.17 248.368 144.925C247.538 145.904 246.495 146.394 245.239 146.394C244.345 146.394 243.632 146.138 243.111 145.628C242.589 145.117 242.323 144.436 242.323 143.584C242.323 142.679 242.643 141.945 243.292 141.392C243.941 140.838 244.803 140.562 245.899 140.562C246.261 140.562 246.634 140.593 247.027 140.647C247.421 140.7 247.826 140.785 248.251 140.881V140.104C248.251 139.295 248.081 138.731 247.751 138.401C247.411 138.071 246.836 137.911 246.016 137.911C245.644 137.911 245.261 137.954 244.867 138.05C244.473 138.146 244.09 138.263 243.717 138.412C243.547 138.486 243.419 138.529 243.345 138.55C243.27 138.571 243.217 138.582 243.175 138.582C243.026 138.582 242.951 138.476 242.951 138.252V137.731C242.951 137.56 242.972 137.433 243.026 137.358C243.079 137.284 243.175 137.209 243.324 137.135C243.696 136.943 244.143 136.783 244.665 136.656C245.186 136.517 245.74 136.453 246.325 136.453C247.591 136.453 248.517 136.741 249.113 137.315C249.699 137.89 249.997 138.763 249.997 139.934V143.382H250.018ZM245.697 145C246.048 145 246.41 144.936 246.793 144.808C247.176 144.68 247.517 144.446 247.804 144.127C247.975 143.925 248.102 143.701 248.166 143.446C248.23 143.19 248.273 142.882 248.273 142.52V142.073C247.964 141.998 247.634 141.934 247.293 141.892C246.953 141.849 246.623 141.828 246.293 141.828C245.58 141.828 245.058 141.966 244.707 142.254C244.356 142.541 244.186 142.946 244.186 143.478C244.186 143.978 244.313 144.35 244.58 144.606C244.835 144.872 245.207 145 245.697 145ZM254.243 146.149C254.052 146.149 253.924 146.117 253.839 146.043C253.754 145.979 253.679 145.83 253.615 145.628L251.114 137.401C251.05 137.188 251.018 137.049 251.018 136.975C251.018 136.805 251.104 136.709 251.274 136.709H252.317C252.519 136.709 252.657 136.741 252.732 136.815C252.817 136.879 252.881 137.028 252.945 137.23L254.733 144.276L256.393 137.23C256.446 137.017 256.51 136.879 256.595 136.815C256.68 136.751 256.829 136.709 257.021 136.709H257.872C258.075 136.709 258.213 136.741 258.298 136.815C258.383 136.879 258.458 137.028 258.5 137.23L260.182 144.361L262.023 137.23C262.087 137.017 262.162 136.879 262.236 136.815C262.321 136.751 262.46 136.709 262.651 136.709H263.641C263.811 136.709 263.907 136.794 263.907 136.975C263.907 137.02 263.899 137.066 263.89 137.118L263.886 137.145C263.875 137.209 263.854 137.294 263.811 137.411L261.246 145.638C261.182 145.851 261.108 145.989 261.023 146.053C260.938 146.117 260.799 146.16 260.618 146.16H259.703C259.501 146.16 259.362 146.128 259.277 146.053C259.192 145.979 259.118 145.84 259.075 145.628L257.425 138.763L255.786 145.617C255.733 145.83 255.669 145.968 255.584 146.043C255.499 146.117 255.35 146.149 255.159 146.149H254.243ZM267.919 146.436C267.366 146.436 266.812 146.373 266.28 146.245C265.748 146.117 265.333 145.979 265.056 145.819C264.886 145.723 264.769 145.617 264.726 145.521C264.684 145.425 264.663 145.319 264.663 145.223V144.68C264.663 144.457 264.748 144.35 264.907 144.35C264.971 144.35 265.035 144.361 265.099 144.382C265.14 144.396 265.195 144.419 265.257 144.444L265.257 144.445C265.291 144.459 265.327 144.474 265.365 144.489C265.727 144.648 266.121 144.776 266.536 144.861C266.961 144.946 267.377 144.989 267.802 144.989C268.473 144.989 268.994 144.872 269.356 144.638C269.718 144.404 269.91 144.063 269.91 143.627C269.91 143.329 269.814 143.084 269.622 142.882C269.431 142.679 269.069 142.499 268.547 142.328L267.004 141.849C266.227 141.605 265.652 141.243 265.301 140.764C264.95 140.295 264.769 139.774 264.769 139.221C264.769 138.774 264.865 138.38 265.056 138.039C265.248 137.699 265.503 137.401 265.823 137.166C266.142 136.922 266.504 136.741 266.93 136.613C267.355 136.485 267.802 136.432 268.271 136.432C268.505 136.432 268.749 136.443 268.984 136.475C269.228 136.507 269.452 136.549 269.675 136.592C269.888 136.645 270.09 136.698 270.282 136.762C270.474 136.826 270.623 136.89 270.729 136.954C270.878 137.039 270.984 137.124 271.048 137.22C271.112 137.305 271.144 137.422 271.144 137.571V138.071C271.144 138.295 271.059 138.412 270.899 138.412C270.814 138.412 270.676 138.369 270.495 138.284C269.888 138.007 269.207 137.869 268.451 137.869C267.845 137.869 267.366 137.965 267.036 138.167C266.706 138.369 266.536 138.678 266.536 139.114C266.536 139.412 266.642 139.668 266.855 139.87C267.068 140.072 267.462 140.274 268.026 140.455L269.537 140.934C270.303 141.179 270.857 141.519 271.187 141.956C271.517 142.392 271.676 142.892 271.676 143.446C271.676 143.903 271.58 144.318 271.4 144.68C271.208 145.042 270.953 145.361 270.623 145.617C270.293 145.883 269.899 146.075 269.441 146.213C268.962 146.362 268.462 146.436 267.919 146.436ZM269.931 151.609C266.429 154.195 261.342 155.568 256.968 155.568C250.837 155.568 245.314 153.301 241.142 149.533C240.812 149.235 241.11 148.831 241.504 149.065C246.016 151.683 251.582 153.269 257.34 153.269C261.225 153.269 265.493 152.46 269.42 150.8C270.005 150.534 270.505 151.183 269.931 151.609ZM267.291 149.81C268.43 149.672 270.942 149.374 271.389 149.948C271.836 150.513 270.889 152.886 270.463 153.94C270.335 154.259 270.612 154.387 270.899 154.142C272.772 152.567 273.262 149.278 272.879 148.799C272.496 148.331 269.207 147.926 267.206 149.331C266.897 149.555 266.951 149.853 267.291 149.81Z" fill="#111827"/>
<path d="M183.979 189H182.348L186.012 178.818H187.787L191.451 189H189.82L186.942 180.668H186.862L183.979 189ZM184.252 185.013H189.542V186.305H184.252V185.013ZM192.802 189V181.364H194.229V182.607H194.323C194.482 182.186 194.743 181.857 195.104 181.622C195.465 181.384 195.898 181.264 196.401 181.264C196.912 181.264 197.339 181.384 197.684 181.622C198.032 181.861 198.289 182.189 198.455 182.607H198.534C198.717 182.199 199.007 181.874 199.404 181.632C199.802 181.387 200.276 181.264 200.826 181.264C201.519 181.264 202.084 181.481 202.521 181.915C202.962 182.35 203.183 183.004 203.183 183.879V189H201.696V184.018C201.696 183.501 201.555 183.127 201.274 182.895C200.992 182.663 200.655 182.547 200.264 182.547C199.78 182.547 199.404 182.696 199.136 182.994C198.867 183.289 198.733 183.669 198.733 184.133V189H197.252V183.924C197.252 183.51 197.122 183.177 196.864 182.925C196.605 182.673 196.269 182.547 195.855 182.547C195.573 182.547 195.313 182.621 195.074 182.771C194.839 182.916 194.648 183.12 194.502 183.382C194.36 183.644 194.289 183.947 194.289 184.292V189H192.802ZM207.397 189.169C206.913 189.169 206.476 189.08 206.085 188.901C205.694 188.718 205.384 188.455 205.155 188.11C204.93 187.765 204.817 187.343 204.817 186.842C204.817 186.411 204.9 186.057 205.066 185.778C205.231 185.5 205.455 185.28 205.737 185.117C206.019 184.955 206.333 184.832 206.681 184.749C207.029 184.666 207.384 184.603 207.745 184.56C208.203 184.507 208.574 184.464 208.859 184.431C209.144 184.395 209.351 184.337 209.48 184.257C209.61 184.178 209.674 184.048 209.674 183.869V183.835C209.674 183.4 209.552 183.064 209.306 182.825C209.065 182.587 208.703 182.467 208.223 182.467C207.722 182.467 207.328 182.578 207.039 182.8C206.754 183.019 206.557 183.263 206.448 183.531L205.051 183.213C205.217 182.749 205.458 182.375 205.777 182.089C206.098 181.801 206.468 181.592 206.885 181.463C207.303 181.33 207.742 181.264 208.203 181.264C208.508 181.264 208.831 181.301 209.172 181.374C209.517 181.443 209.838 181.572 210.137 181.761C210.438 181.95 210.685 182.22 210.877 182.572C211.07 182.92 211.166 183.372 211.166 183.929V189H209.714V187.956H209.654C209.558 188.148 209.414 188.337 209.222 188.523C209.03 188.708 208.783 188.862 208.481 188.985C208.18 189.108 207.818 189.169 207.397 189.169ZM207.721 187.976C208.132 187.976 208.483 187.895 208.775 187.732C209.069 187.57 209.293 187.358 209.446 187.096C209.601 186.831 209.679 186.547 209.679 186.246V185.261C209.626 185.314 209.524 185.364 209.371 185.411C209.222 185.454 209.051 185.492 208.859 185.525C208.667 185.555 208.48 185.583 208.297 185.609C208.115 185.633 207.962 185.652 207.84 185.669C207.551 185.705 207.288 185.767 207.049 185.853C206.814 185.939 206.625 186.063 206.483 186.226C206.343 186.385 206.274 186.597 206.274 186.862C206.274 187.23 206.41 187.509 206.681 187.697C206.953 187.883 207.3 187.976 207.721 187.976ZM212.987 189V187.981L217.123 182.726V182.656H213.121V181.364H218.977V182.447L215 187.638V187.707H219.117V189H212.987ZM223.868 189.154C223.152 189.154 222.528 188.99 221.994 188.662C221.46 188.334 221.046 187.875 220.751 187.285C220.456 186.695 220.309 186.005 220.309 185.217C220.309 184.424 220.456 183.732 220.751 183.138C221.046 182.545 221.46 182.085 221.994 181.756C222.528 181.428 223.152 181.264 223.868 181.264C224.584 181.264 225.209 181.428 225.743 181.756C226.276 182.085 226.69 182.545 226.985 183.138C227.28 183.732 227.428 184.424 227.428 185.217C227.428 186.005 227.28 186.695 226.985 187.285C226.69 187.875 226.276 188.334 225.743 188.662C225.209 188.99 224.584 189.154 223.868 189.154ZM223.873 187.906C224.337 187.906 224.722 187.784 225.027 187.538C225.332 187.293 225.557 186.967 225.703 186.559C225.852 186.151 225.926 185.702 225.926 185.212C225.926 184.724 225.852 184.277 225.703 183.869C225.557 183.458 225.332 183.129 225.027 182.88C224.722 182.631 224.337 182.507 223.873 182.507C223.406 182.507 223.018 182.631 222.71 182.88C222.405 183.129 222.178 183.458 222.029 183.869C221.883 184.277 221.81 184.724 221.81 185.212C221.81 185.702 221.883 186.151 222.029 186.559C222.178 186.967 222.405 187.293 222.71 187.538C223.018 187.784 223.406 187.906 223.873 187.906ZM230.574 184.466V189H229.087V181.364H230.514V182.607H230.608C230.784 182.202 231.059 181.877 231.434 181.632C231.812 181.387 232.287 181.264 232.861 181.264C233.381 181.264 233.837 181.374 234.228 181.592C234.619 181.808 234.922 182.129 235.138 182.557C235.353 182.984 235.461 183.513 235.461 184.143V189H233.974V184.322C233.974 183.768 233.83 183.336 233.542 183.024C233.253 182.709 232.857 182.552 232.354 182.552C232.009 182.552 231.702 182.626 231.434 182.776C231.169 182.925 230.958 183.143 230.802 183.432C230.65 183.717 230.574 184.062 230.574 184.466ZM243.272 189L240.449 178.818H242.064L244.048 186.703H244.142L246.206 178.818H247.806L249.87 186.708H249.964L251.943 178.818H253.564L250.735 189H249.189L247.046 181.374H246.966L244.824 189H243.272ZM257.384 189.154C256.632 189.154 255.984 188.993 255.44 188.672C254.9 188.347 254.482 187.891 254.188 187.305C253.896 186.715 253.75 186.024 253.75 185.232C253.75 184.449 253.896 183.76 254.188 183.163C254.482 182.567 254.893 182.101 255.42 181.766C255.951 181.432 256.571 181.264 257.28 181.264C257.711 181.264 258.128 181.335 258.533 181.478C258.937 181.621 259.3 181.844 259.621 182.149C259.943 182.454 260.196 182.85 260.382 183.337C260.568 183.821 260.661 184.41 260.661 185.102V185.629H254.59V184.516H259.204C259.204 184.125 259.124 183.778 258.965 183.477C258.806 183.172 258.582 182.931 258.294 182.756C258.009 182.58 257.674 182.492 257.29 182.492C256.872 182.492 256.508 182.595 256.196 182.8C255.888 183.003 255.649 183.268 255.48 183.596C255.314 183.921 255.232 184.274 255.232 184.655V185.525C255.232 186.035 255.321 186.469 255.5 186.827C255.682 187.185 255.936 187.459 256.261 187.648C256.585 187.833 256.965 187.926 257.399 187.926C257.681 187.926 257.938 187.886 258.17 187.807C258.402 187.724 258.602 187.601 258.771 187.439C258.94 187.277 259.07 187.076 259.159 186.837L260.566 187.091C260.453 187.505 260.251 187.868 259.96 188.18C259.671 188.488 259.308 188.728 258.871 188.901C258.437 189.07 257.941 189.154 257.384 189.154ZM262.429 189V178.818H263.916V182.602H264.005C264.091 182.442 264.216 182.259 264.378 182.05C264.54 181.841 264.766 181.659 265.054 181.503C265.343 181.344 265.724 181.264 266.198 181.264C266.814 181.264 267.364 181.42 267.848 181.732C268.332 182.043 268.712 182.492 268.987 183.079C269.265 183.665 269.404 184.371 269.404 185.197C269.404 186.022 269.267 186.73 268.992 187.32C268.717 187.906 268.339 188.359 267.858 188.677C267.378 188.992 266.829 189.149 266.213 189.149C265.749 189.149 265.369 189.071 265.074 188.915C264.782 188.76 264.554 188.577 264.388 188.369C264.222 188.16 264.095 187.974 264.005 187.812H263.881V189H262.429ZM263.886 185.182C263.886 185.719 263.964 186.189 264.119 186.594C264.275 186.998 264.501 187.315 264.796 187.543C265.091 187.769 265.452 187.881 265.879 187.881C266.324 187.881 266.695 187.764 266.993 187.528C267.291 187.29 267.517 186.967 267.669 186.559C267.825 186.151 267.903 185.692 267.903 185.182C267.903 184.678 267.827 184.226 267.674 183.825C267.525 183.424 267.3 183.107 266.998 182.875C266.7 182.643 266.327 182.527 265.879 182.527C265.449 182.527 265.084 182.638 264.786 182.86C264.491 183.082 264.267 183.392 264.115 183.79C263.962 184.187 263.886 184.652 263.886 185.182ZM280.451 181.493C280.398 181.022 280.179 180.658 279.795 180.399C279.41 180.137 278.927 180.006 278.343 180.006C277.926 180.006 277.564 180.073 277.259 180.205C276.954 180.335 276.718 180.513 276.548 180.742C276.383 180.968 276.3 181.224 276.3 181.513C276.3 181.755 276.356 181.964 276.469 182.139C276.585 182.315 276.736 182.462 276.921 182.582C277.11 182.698 277.312 182.795 277.528 182.875C277.743 182.951 277.95 183.014 278.149 183.064L279.144 183.322C279.468 183.402 279.802 183.51 280.143 183.646C280.484 183.781 280.801 183.96 281.093 184.183C281.384 184.405 281.619 184.68 281.798 185.008C281.981 185.336 282.072 185.729 282.072 186.186C282.072 186.763 281.923 187.275 281.624 187.722C281.329 188.17 280.9 188.523 280.337 188.781C279.777 189.04 279.099 189.169 278.303 189.169C277.541 189.169 276.882 189.048 276.325 188.806C275.768 188.564 275.332 188.221 275.017 187.777C274.702 187.33 274.528 186.799 274.495 186.186H276.036C276.066 186.554 276.186 186.861 276.394 187.106C276.606 187.348 276.877 187.528 277.205 187.648C277.536 187.764 277.899 187.822 278.294 187.822C278.728 187.822 279.114 187.754 279.452 187.618C279.793 187.479 280.062 187.286 280.257 187.041C280.453 186.793 280.551 186.503 280.551 186.171C280.551 185.87 280.464 185.623 280.292 185.43C280.123 185.238 279.893 185.079 279.601 184.953C279.313 184.827 278.986 184.716 278.622 184.62L277.419 184.292C276.603 184.07 275.957 183.743 275.48 183.312C275.006 182.882 274.769 182.312 274.769 181.602C274.769 181.016 274.928 180.504 275.246 180.066C275.564 179.629 275.995 179.289 276.539 179.047C277.082 178.802 277.695 178.679 278.378 178.679C279.067 178.679 279.676 178.8 280.203 179.042C280.733 179.284 281.151 179.617 281.455 180.041C281.76 180.462 281.919 180.946 281.933 181.493H280.451ZM287.08 189.154C286.327 189.154 285.679 188.993 285.136 188.672C284.595 188.347 284.178 187.891 283.883 187.305C283.591 186.715 283.445 186.024 283.445 185.232C283.445 184.449 283.591 183.76 283.883 183.163C284.178 182.567 284.589 182.101 285.116 181.766C285.646 181.432 286.266 181.264 286.975 181.264C287.406 181.264 287.824 181.335 288.228 181.478C288.632 181.621 288.995 181.844 289.317 182.149C289.638 182.454 289.892 182.85 290.077 183.337C290.263 183.821 290.356 184.41 290.356 185.102V185.629H284.286V184.516H288.899C288.899 184.125 288.82 183.778 288.661 183.477C288.501 183.172 288.278 182.931 287.989 182.756C287.704 182.58 287.37 182.492 286.985 182.492C286.567 182.492 286.203 182.595 285.891 182.8C285.583 183.003 285.344 183.268 285.175 183.596C285.01 183.921 284.927 184.274 284.927 184.655V185.525C284.927 186.035 285.016 186.469 285.195 186.827C285.378 187.185 285.631 187.459 285.956 187.648C286.281 187.833 286.66 187.926 287.094 187.926C287.376 187.926 287.633 187.886 287.865 187.807C288.097 187.724 288.298 187.601 288.467 187.439C288.636 187.277 288.765 187.076 288.854 186.837L290.261 187.091C290.149 187.505 289.946 187.868 289.655 188.18C289.366 188.488 289.004 188.728 288.566 188.901C288.132 189.07 287.636 189.154 287.08 189.154ZM292.005 189V181.364H293.442V182.577H293.521C293.661 182.166 293.906 181.843 294.257 181.607C294.612 181.369 295.013 181.249 295.46 181.249C295.553 181.249 295.663 181.253 295.789 181.259C295.918 181.266 296.019 181.274 296.092 181.284V182.706C296.032 182.689 295.926 182.671 295.774 182.651C295.621 182.628 295.469 182.616 295.316 182.616C294.965 182.616 294.652 182.691 294.377 182.84C294.105 182.986 293.889 183.19 293.73 183.452C293.571 183.71 293.492 184.005 293.492 184.337V189H292.005ZM304.143 181.364L301.374 189H299.783L297.009 181.364H298.605L300.539 187.24H300.618L302.547 181.364H304.143ZM305.54 189V181.364H307.027V189H305.54ZM306.291 180.185C306.032 180.185 305.81 180.099 305.625 179.927C305.443 179.751 305.351 179.542 305.351 179.3C305.351 179.055 305.443 178.846 305.625 178.674C305.81 178.498 306.032 178.411 306.291 178.411C306.55 178.411 306.77 178.498 306.952 178.674C307.138 178.846 307.231 179.055 307.231 179.3C307.231 179.542 307.138 179.751 306.952 179.927C306.77 180.099 306.55 180.185 306.291 180.185ZM312.243 189.154C311.504 189.154 310.868 188.987 310.334 188.652C309.804 188.314 309.396 187.848 309.111 187.255C308.826 186.662 308.684 185.982 308.684 185.217C308.684 184.441 308.829 183.757 309.121 183.163C309.413 182.567 309.824 182.101 310.354 181.766C310.884 181.432 311.509 181.264 312.228 181.264C312.808 181.264 313.325 181.372 313.779 181.587C314.234 181.799 314.6 182.098 314.878 182.482C315.16 182.867 315.327 183.316 315.38 183.83H313.934C313.854 183.472 313.672 183.163 313.387 182.905C313.105 182.646 312.727 182.517 312.253 182.517C311.839 182.517 311.476 182.626 311.164 182.845C310.856 183.061 310.616 183.369 310.444 183.77C310.271 184.168 310.185 184.638 310.185 185.182C310.185 185.739 310.27 186.219 310.439 186.624C310.608 187.028 310.846 187.341 311.154 187.563C311.466 187.785 311.832 187.896 312.253 187.896C312.535 187.896 312.79 187.845 313.019 187.742C313.251 187.636 313.445 187.485 313.6 187.29C313.76 187.094 313.871 186.859 313.934 186.584H315.38C315.327 187.078 315.167 187.518 314.898 187.906C314.63 188.294 314.27 188.599 313.819 188.821C313.372 189.043 312.846 189.154 312.243 189.154ZM320.261 189.154C319.509 189.154 318.861 188.993 318.317 188.672C317.777 188.347 317.359 187.891 317.064 187.305C316.773 186.715 316.627 186.024 316.627 185.232C316.627 184.449 316.773 183.76 317.064 183.163C317.359 182.567 317.77 182.101 318.297 181.766C318.828 181.432 319.448 181.264 320.157 181.264C320.588 181.264 321.005 181.335 321.41 181.478C321.814 181.621 322.177 181.844 322.498 182.149C322.82 182.454 323.073 182.85 323.259 183.337C323.445 183.821 323.537 184.41 323.537 185.102V185.629H317.467V184.516H322.081C322.081 184.125 322.001 183.778 321.842 183.477C321.683 183.172 321.459 182.931 321.171 182.756C320.886 182.58 320.551 182.492 320.167 182.492C319.749 182.492 319.385 182.595 319.073 182.8C318.765 183.003 318.526 183.268 318.357 183.596C318.191 183.921 318.108 184.274 318.108 184.655V185.525C318.108 186.035 318.198 186.469 318.377 186.827C318.559 187.185 318.813 187.459 319.138 187.648C319.462 187.833 319.842 187.926 320.276 187.926C320.558 187.926 320.815 187.886 321.047 187.807C321.279 187.724 321.479 187.601 321.648 187.439C321.817 187.277 321.947 187.076 322.036 186.837L323.443 187.091C323.33 187.505 323.128 187.868 322.836 188.18C322.548 188.488 322.185 188.728 321.748 188.901C321.314 189.07 320.818 189.154 320.261 189.154ZM330.909 183.228L329.562 183.467C329.505 183.294 329.416 183.13 329.293 182.974C329.174 182.819 329.012 182.691 328.806 182.592C328.601 182.492 328.344 182.442 328.036 182.442C327.615 182.442 327.263 182.537 326.982 182.726C326.7 182.911 326.559 183.152 326.559 183.447C326.559 183.702 326.653 183.907 326.842 184.063C327.031 184.219 327.336 184.347 327.757 184.446L328.97 184.724C329.673 184.887 330.196 185.137 330.541 185.475C330.886 185.813 331.058 186.252 331.058 186.793C331.058 187.25 330.926 187.658 330.661 188.016C330.399 188.37 330.032 188.649 329.562 188.851C329.094 189.053 328.553 189.154 327.936 189.154C327.081 189.154 326.383 188.972 325.843 188.607C325.303 188.239 324.971 187.717 324.849 187.041L326.286 186.822C326.375 187.197 326.559 187.48 326.837 187.673C327.116 187.862 327.479 187.956 327.926 187.956C328.413 187.956 328.803 187.855 329.094 187.653C329.386 187.447 329.532 187.197 329.532 186.902C329.532 186.663 329.442 186.463 329.263 186.3C329.088 186.138 328.818 186.015 328.453 185.933L327.161 185.649C326.448 185.487 325.921 185.228 325.58 184.874C325.241 184.519 325.072 184.07 325.072 183.526C325.072 183.076 325.198 182.681 325.45 182.343C325.702 182.005 326.05 181.741 326.494 181.553C326.938 181.36 327.447 181.264 328.021 181.264C328.846 181.264 329.496 181.443 329.969 181.801C330.443 182.156 330.757 182.631 330.909 183.228Z" fill="#111827"/>
<rect x="384.5" y="110.5" width="112" height="103" rx="3.5" fill="white"/>
<rect x="384.5" y="110.5" width="112" height="103" rx="3.5" stroke="#E4E4E7"/>
<path fill-rule="evenodd" clip-rule="evenodd" d="M432.548 141.414L441.984 133.233L431.758 155.863H424.5L432.548 141.414ZM439.212 146.495L443.238 135.147L456.5 158.767H431.954L446.932 156.194L439.212 146.495Z" fill="#111827"/>
<path d="M422.479 189H420.848L424.512 178.818H426.287L429.951 189H428.32L425.442 180.668H425.362L422.479 189ZM422.752 185.013H428.042V186.305H422.752V185.013ZM431.143 189V187.981L435.279 182.726V182.656H431.277V181.364H437.134V182.447L433.156 187.638V187.707H437.273V189H431.143ZM443.864 185.833V181.364H445.355V189H443.894V187.678H443.814C443.639 188.085 443.357 188.425 442.969 188.697C442.585 188.965 442.106 189.099 441.532 189.099C441.042 189.099 440.608 188.992 440.23 188.776C439.855 188.558 439.56 188.234 439.345 187.807C439.133 187.379 439.027 186.851 439.027 186.221V181.364H440.513V186.042C440.513 186.562 440.657 186.977 440.946 187.285C441.234 187.593 441.609 187.747 442.069 187.747C442.348 187.747 442.624 187.678 442.9 187.538C443.178 187.399 443.408 187.189 443.591 186.907C443.776 186.625 443.867 186.267 443.864 185.833ZM447.353 189V181.364H448.79V182.577H448.869C449.008 182.166 449.254 181.843 449.605 181.607C449.96 181.369 450.361 181.249 450.808 181.249C450.901 181.249 451.01 181.253 451.136 181.259C451.265 181.266 451.367 181.274 451.439 181.284V182.706C451.38 182.689 451.274 182.671 451.121 182.651C450.969 182.628 450.816 182.616 450.664 182.616C450.313 182.616 449.999 182.691 449.724 182.84C449.452 182.986 449.237 183.19 449.078 183.452C448.919 183.71 448.839 184.005 448.839 184.337V189H447.353ZM455.744 189.154C454.991 189.154 454.343 188.993 453.8 188.672C453.259 188.347 452.842 187.891 452.547 187.305C452.255 186.715 452.109 186.024 452.109 185.232C452.109 184.449 452.255 183.76 452.547 183.163C452.842 182.567 453.253 182.101 453.78 181.766C454.31 181.432 454.93 181.264 455.639 181.264C456.07 181.264 456.488 181.335 456.892 181.478C457.296 181.621 457.659 181.844 457.981 182.149C458.302 182.454 458.556 182.85 458.741 183.337C458.927 183.821 459.02 184.41 459.02 185.102V185.629H452.95V184.516H457.563C457.563 184.125 457.484 183.778 457.325 183.477C457.165 183.172 456.942 182.931 456.653 182.756C456.368 182.58 456.034 182.492 455.649 182.492C455.232 182.492 454.867 182.595 454.555 182.8C454.247 183.003 454.009 183.268 453.839 183.596C453.674 183.921 453.591 184.274 453.591 184.655V185.525C453.591 186.035 453.68 186.469 453.859 186.827C454.042 187.185 454.295 187.459 454.62 187.648C454.945 187.833 455.324 187.926 455.759 187.926C456.04 187.926 456.297 187.886 456.529 187.807C456.761 187.724 456.962 187.601 457.131 187.439C457.3 187.277 457.429 187.076 457.518 186.837L458.925 187.091C458.813 187.505 458.611 187.868 458.319 188.18C458.031 188.488 457.668 188.728 457.23 188.901C456.796 189.07 456.3 189.154 455.744 189.154Z" fill="#111827"/>
</g>
<defs>
<filter id="filter0_dd_3947_20848" x="0.5" y="0" width="513" height="232" filterUnits="userSpaceOnUse" color-interpolation-filters="sRGB">
<feFlood flood-opacity="0" result="BackgroundImageFix"/>
<feColorMatrix in="SourceAlpha" type="matrix" values="0 0 0 0 0 0 0 0 0 0 0 0 0 0 0 0 0 0 127 0" result="hardAlpha"/>
<feOffset dy="2"/>
<feGaussianBlur stdDeviation="8"/>
<feColorMatrix type="matrix" values="0 0 0 0 0.129412 0 0 0 0 0.168627 0 0 0 0 0.211765 0 0 0 0.08 0"/>
<feBlend mode="normal" in2="BackgroundImageFix" result="effect1_dropShadow_3947_20848"/>
<feColorMatrix in="SourceAlpha" type="matrix" values="0 0 0 0 0 0 0 0 0 0 0 0 0 0 0 0 0 0 127 0" result="hardAlpha"/>
<feMorphology radius="1" operator="dilate" in="SourceAlpha" result="effect2_dropShadow_3947_20848"/>
<feOffset/>
<feColorMatrix type="matrix" values="0 0 0 0 0.0235294 0 0 0 0 0.172549 0 0 0 0 0.321569 0 0 0 0.1 0"/>
<feBlend mode="normal" in2="effect1_dropShadow_3947_20848" result="effect2_dropShadow_3947_20848"/>
<feBlend mode="normal" in="SourceGraphic" in2="effect2_dropShadow_3947_20848" result="shape"/>
</filter>
<clipPath id="clip0_3947_20848">
<rect x="17" y="42" width="480" height="36" rx="4" fill="white"/>
</clipPath>
</defs>
</svg>

