<svg width="1120" height="480" viewBox="0 0 1120 480" fill="none" xmlns="http://www.w3.org/2000/svg">
<g clip-path="url(#clip0_2146_34264)">
<rect width="1120" height="480" fill="#FAFAFA"/>
<path d="M1018.49 371.476C1041.73 383.045 1048.47 310.097 1069.25 319.032C1090.02 327.968 1106.04 411.476 1120 462.454V479.616H561.705V350.366C576.127 402.613 596.42 424.06 612.459 388.772C628.498 353.483 641.96 270.984 663.213 239.148C684.467 207.311 692.555 344.058 713.967 350.344C735.379 356.631 745.768 282.928 764.721 276.384C783.675 269.84 793.746 330.474 815.475 319.684C837.205 308.894 845.214 228.052 866.23 208.193C887.245 188.334 895.81 267.08 916.984 270.984C938.158 274.888 949.895 208.215 967.738 218.052C985.581 227.89 995.256 359.906 1018.49 371.476Z" fill="url(#paint0_linear_2146_34264)"/>
<path d="M1120 462.454C1106.04 411.476 1090.02 327.968 1069.25 319.032C1048.47 310.097 1041.73 383.045 1018.49 371.476C995.256 359.906 985.581 227.89 967.738 218.052C949.895 208.215 938.158 274.888 916.984 270.984C895.81 267.08 887.245 188.334 866.23 208.193C845.214 228.052 837.205 308.894 815.475 319.684C793.746 330.474 783.675 269.84 764.721 276.384C745.768 282.928 735.379 356.631 713.967 350.344C692.555 344.058 684.467 207.311 663.213 239.148C641.96 270.984 631.203 355.751 612.459 388.772C593.715 421.793 582.806 408.456 560.451 348.653" stroke="#93C5FD" stroke-width="2" stroke-linejoin="round"/>
<path fill-rule="evenodd" clip-rule="evenodd" d="M34.1587 312.403H49.3968C55.0073 312.403 59.5556 319.661 59.5556 328.615V479.616H24V328.615C24 319.661 28.5482 312.403 34.1587 312.403Z" fill="#D4D4D8"/>
<path fill-rule="evenodd" clip-rule="evenodd" d="M93.7144 271.347H108.952C114.563 271.347 119.111 278.124 119.111 286.485V479.615H83.5557V286.485C83.5557 278.124 88.1039 271.347 93.7144 271.347Z" fill="#D4D4D8"/>
<path fill-rule="evenodd" clip-rule="evenodd" d="M153.27 335.066H168.508C174.119 335.066 178.667 341.008 178.667 348.338V479.615H143.111V348.338C143.111 341.008 147.66 335.066 153.27 335.066Z" fill="#D4D4D8"/>
<path fill-rule="evenodd" clip-rule="evenodd" d="M212.825 376.772H228.063C233.674 376.772 238.222 382.418 238.222 389.383V479.616H202.667V389.383C202.667 382.418 207.215 376.772 212.825 376.772Z" fill="#D4D4D8"/>
<path fill-rule="evenodd" clip-rule="evenodd" d="M272.381 271.347H287.619C293.23 271.347 297.778 275.574 297.778 280.789V479.616H262.222V280.789C262.222 275.574 266.77 271.347 272.381 271.347Z" fill="#D4D4D8"/>
<path fill-rule="evenodd" clip-rule="evenodd" d="M331.937 219.229H347.175C352.785 219.229 357.333 223.896 357.333 229.653V479.616H321.778V229.653C321.778 223.896 326.326 219.229 331.937 219.229Z" fill="#D4D4D8"/>
<path fill-rule="evenodd" clip-rule="evenodd" d="M391.492 271.347H406.73C412.341 271.347 416.889 276.23 416.889 282.254V479.616H381.333V282.254C381.333 276.23 385.882 271.347 391.492 271.347Z" fill="#D4D4D8"/>
<path fill-rule="evenodd" clip-rule="evenodd" d="M451.047 238.856H466.285C471.896 238.856 476.444 243.385 476.444 248.973V479.615H440.889V248.973C440.889 243.385 445.437 238.856 451.047 238.856Z" fill="#D4D4D8"/>
<path fill-rule="evenodd" clip-rule="evenodd" d="M510.603 219.229H525.841C531.452 219.229 536 223.801 536 229.441V479.615H500.444V229.441C500.444 223.801 504.993 219.229 510.603 219.229Z" fill="#D4D4D8"/>
<path fill-rule="evenodd" clip-rule="evenodd" d="M0 478.202C0 477.811 0.141886 477.478 0.425658 477.202C0.70943 476.926 1.05197 476.788 1.45329 476.788H558.547C558.948 476.788 559.291 476.926 559.574 477.202C559.858 477.478 560 477.811 560 478.202C560 478.592 559.858 478.925 559.574 479.201C559.291 479.478 558.948 479.616 558.547 479.616H1.45329C1.05197 479.616 0.70943 479.478 0.425658 479.201C0.141886 478.925 0 478.592 0 478.202Z" fill="white"/>
<rect x="1060.44" y="447.306" width="35.5556" height="32.6943" fill="#FCD34D"/>
<rect x="1060.44" y="410.978" width="35.5556" height="36.328" fill="#2563EB"/>
<path d="M1060.44 377.728C1060.44 372.205 1064.92 367.728 1070.44 367.728H1086C1091.52 367.728 1096 372.205 1096 377.728V410.978H1060.44V377.728Z" fill="#93C5FD"/>
<rect x="1000.89" y="447.306" width="35.5556" height="32.6943" fill="#FCD34D"/>
<rect x="1000.89" y="428.859" width="35.5556" height="18.4465" fill="#2563EB"/>
<path d="M1000.89 384.986C1000.89 379.463 1005.37 374.986 1010.89 374.986H1026.44C1031.97 374.986 1036.44 379.463 1036.44 384.986V428.859H1000.89V384.986Z" fill="#93C5FD"/>
<rect x="941.333" y="447.306" width="35.5556" height="32.6943" fill="#FCD34D"/>
<rect x="941.333" y="322.156" width="35.5556" height="125.15" fill="#2563EB"/>
<path d="M941.333 252.513C941.333 246.99 945.811 242.513 951.333 242.513H966.889C972.412 242.513 976.889 246.99 976.889 252.513V322.156H941.333V252.513Z" fill="#93C5FD"/>
<rect x="881.778" y="447.306" width="35.5556" height="32.6943" fill="#FCD34D"/>
<rect x="881.778" y="396.86" width="35.5556" height="50.4454" fill="#2563EB"/>
<path d="M881.778 279.268C881.778 273.746 886.255 269.268 891.778 269.268H907.333C912.856 269.268 917.333 273.746 917.333 279.268V396.86H881.778V279.268Z" fill="#93C5FD"/>
<rect x="822.222" y="447.306" width="35.5556" height="32.6943" fill="#FCD34D"/>
<rect x="822.222" y="363.964" width="35.5556" height="83.3415" fill="#2563EB"/>
<path d="M822.222 320.568C822.222 315.045 826.699 310.568 832.222 310.568H847.778C853.301 310.568 857.778 315.045 857.778 320.568V363.964H822.222V320.568Z" fill="#93C5FD"/>
<rect x="762.667" y="447.306" width="35.5556" height="32.6943" fill="#FCD34D"/>
<rect x="762.667" y="385.428" width="35.5556" height="61.8779" fill="#2563EB"/>
<path d="M762.667 320.371C762.667 314.848 767.144 310.371 772.667 310.371H788.222C793.745 310.371 798.222 314.848 798.222 320.371V385.428H762.667V320.371Z" fill="#93C5FD"/>
<rect x="703.111" y="447.306" width="35.5556" height="32.6943" fill="#FCD34D"/>
<rect x="703.111" y="406.101" width="35.5556" height="41.2048" fill="#2563EB"/>
<path d="M703.111 362.652C703.111 357.129 707.588 352.652 713.111 352.652H728.667C734.19 352.652 738.667 357.129 738.667 362.652V406.101H703.111V362.652Z" fill="#93C5FD"/>
<rect x="643.556" y="447.306" width="35.5556" height="32.6943" fill="#FCD34D"/>
<rect x="643.556" y="357.611" width="35.5556" height="89.6949" fill="#2563EB"/>
<path d="M643.556 295.607C643.556 290.084 648.033 285.607 653.556 285.607H669.111C674.634 285.607 679.111 290.084 679.111 295.607V357.59H643.556V295.607Z" fill="#93C5FD"/>
<rect x="584" y="448.07" width="35.5556" height="31.9304" fill="#FCD34D"/>
<rect x="584" y="436.116" width="35.5556" height="11.9542" fill="#2563EB"/>
<path d="M584 418.101C584 412.578 588.477 408.101 594 408.101H609.556C615.078 408.101 619.556 412.578 619.556 418.101V436.116H584V418.101Z" fill="#93C5FD"/>
<path fill-rule="evenodd" clip-rule="evenodd" d="M1120 478.415C1120 477.978 1119.86 477.604 1119.57 477.295C1119.29 476.985 1118.95 476.83 1118.55 476.83H561.453C561.052 476.83 560.709 476.985 560.426 477.295C560.142 477.604 560 477.978 560 478.415C560 478.853 560.142 479.227 560.426 479.536C560.709 479.846 561.052 480 561.453 480H1118.55C1118.95 480 1119.29 479.846 1119.57 479.536C1119.86 479.227 1120 478.853 1120 478.415Z" fill="white"/>
<path d="M203.636 458.652C157.023 470.459 145.445 408.632 101.818 405.133C58.1915 401.634 28 423.396 0 475.42V478.155H560L561.705 351.383C546.186 323.1 531.238 292.462 509.091 281.815C466.932 261.549 449.75 352.115 407.273 356.099C364.795 360.083 341.25 292.042 305.454 302.082C269.659 312.121 250.25 446.845 203.636 458.652Z" fill="url(#paint1_linear_2146_34264)" fill-opacity="0.5"/>
<path d="M0 477.493C28 425.47 62.9791 402.661 101.818 405.133C140.657 407.605 157.023 470.459 203.636 458.652C250.25 446.845 269.659 312.121 305.454 302.082C341.25 292.042 364.795 360.083 407.273 356.099C449.75 352.115 466.932 261.549 509.091 281.815C531.008 292.351 545.262 321.374 560.61 349.408" stroke="white" stroke-width="2" stroke-linejoin="round"/>
<path d="M560 79.2264L554.227 84.9999L560 90.7734L565.774 84.9999L560 79.2264ZM559 84.9999L559 478.415L561 478.415L561 84.9999L559 84.9999Z" fill="#52525B"/>
<path d="M550 173.596L539.818 173.596L539.818 169.778C539.818 168.996 539.954 168.34 540.226 167.809C540.498 167.276 540.879 166.873 541.369 166.601C541.857 166.326 542.425 166.189 543.075 166.189C543.728 166.189 544.294 166.328 544.775 166.606C545.252 166.881 545.622 167.287 545.884 167.824C546.142 168.361 546.271 169.021 546.271 169.803L546.271 172.522L544.74 172.522L544.74 170.052C544.74 169.594 544.677 169.22 544.551 168.928C544.422 168.636 544.235 168.421 543.989 168.282C543.741 168.139 543.436 168.068 543.075 168.068C542.713 168.068 542.405 168.139 542.15 168.282C541.891 168.424 541.696 168.641 541.563 168.933C541.427 169.225 541.359 169.601 541.359 170.061L541.359 171.752L550 171.752L550 173.596ZM545.386 168.336L550 165.816L550 167.874L545.386 170.35L545.386 168.336ZM550.149 161.299C550.149 162.065 549.99 162.726 549.672 163.283C549.35 163.836 548.896 164.262 548.31 164.56C547.72 164.859 547.025 165.008 546.227 165.008C545.441 165.008 544.752 164.859 544.158 164.56C543.562 164.259 543.098 163.838 542.766 163.298C542.432 162.757 542.264 162.123 542.264 161.393C542.264 160.923 542.34 160.479 542.493 160.061C542.642 159.64 542.874 159.269 543.189 158.947C543.504 158.623 543.905 158.367 544.392 158.182C544.876 157.996 545.453 157.903 546.122 157.903L546.674 157.903L546.674 164.163L545.461 164.163L545.461 159.629C545.116 159.632 544.81 159.706 544.541 159.852C544.269 159.998 544.056 160.202 543.9 160.464C543.744 160.722 543.666 161.024 543.666 161.369C543.666 161.737 543.756 162.06 543.935 162.338C544.11 162.617 544.342 162.834 544.631 162.989C544.916 163.142 545.229 163.22 545.57 163.223L546.629 163.223C547.073 163.223 547.455 163.142 547.773 162.979C548.088 162.817 548.33 162.59 548.499 162.298C548.664 162.007 548.747 161.665 548.747 161.274C548.747 161.012 548.711 160.775 548.638 160.563C548.562 160.351 548.451 160.167 548.305 160.011C548.159 159.856 547.978 159.738 547.763 159.658L547.952 157.978C548.396 158.084 548.784 158.286 549.115 158.585C549.443 158.88 549.698 159.257 549.881 159.718C550.06 160.179 550.149 160.706 550.149 161.299ZM544.382 150.345L544.561 151.986C544.395 152.032 544.24 152.114 544.094 152.23C543.948 152.342 543.83 152.495 543.741 152.687C543.651 152.879 543.607 153.115 543.607 153.393C543.607 153.767 543.688 154.082 543.85 154.338C544.013 154.589 544.223 154.714 544.482 154.71C544.704 154.714 544.884 154.633 545.023 154.467C545.163 154.298 545.277 154.019 545.366 153.632L545.645 152.329C545.801 151.607 546.048 151.07 546.386 150.718C546.724 150.364 547.166 150.185 547.713 150.181C548.194 150.185 548.618 150.325 548.986 150.604C549.35 150.879 549.635 151.262 549.841 151.752C550.046 152.243 550.149 152.806 550.149 153.443C550.149 154.377 549.954 155.13 549.562 155.7C549.168 156.27 548.62 156.61 547.917 156.719L547.748 154.964C548.093 154.884 548.353 154.715 548.528 154.457C548.704 154.198 548.792 153.862 548.792 153.448C548.792 153.02 548.704 152.677 548.528 152.419C548.353 152.157 548.136 152.026 547.877 152.026C547.658 152.026 547.478 152.11 547.335 152.279C547.193 152.445 547.083 152.704 547.007 153.055L546.734 154.357C546.581 155.09 546.324 155.632 545.963 155.983C545.598 156.334 545.138 156.508 544.581 156.505C544.11 156.508 543.703 156.381 543.358 156.122C543.01 155.861 542.741 155.498 542.553 155.034C542.36 154.566 542.264 154.028 542.264 153.418C542.264 152.523 542.455 151.819 542.836 151.305C543.217 150.788 543.732 150.468 544.382 150.345ZM550.149 145.366C550.149 146.112 549.985 146.758 549.657 147.305C549.329 147.852 548.87 148.276 548.28 148.578C547.69 148.876 547 149.025 546.212 149.025C545.423 149.025 544.732 148.876 544.138 148.578C543.545 148.276 543.085 147.852 542.756 147.305C542.428 146.758 542.264 146.112 542.264 145.366C542.264 144.621 542.428 143.974 542.756 143.427C543.085 142.881 543.545 142.458 544.138 142.16C544.732 141.858 545.423 141.707 546.212 141.707C547 141.707 547.69 141.858 548.28 142.16C548.87 142.458 549.329 142.881 549.657 143.427C549.985 143.974 550.149 144.621 550.149 145.366ZM548.707 145.356C548.707 144.952 548.596 144.614 548.374 144.342C548.149 144.07 547.847 143.868 547.469 143.736C547.092 143.6 546.671 143.532 546.207 143.532C545.739 143.532 545.317 143.6 544.939 143.736C544.558 143.868 544.254 144.07 544.029 144.342C543.804 144.614 543.691 144.952 543.691 145.356C543.691 145.771 543.804 146.115 544.029 146.39C544.254 146.662 544.558 146.866 544.939 147.002C545.317 147.135 545.739 147.201 546.207 147.201C546.671 147.201 547.092 147.135 547.469 147.002C547.847 146.866 548.149 146.662 548.374 146.39C548.596 146.115 548.707 145.771 548.707 145.356ZM546.788 135.313L542.364 135.313L542.364 133.513L550 133.513L550 135.258L548.643 135.258L548.643 135.337C549.07 135.51 549.42 135.793 549.692 136.188C549.964 136.579 550.099 137.061 550.099 137.634C550.099 138.135 549.988 138.577 549.766 138.962C549.541 139.343 549.214 139.641 548.787 139.857C548.356 140.072 547.836 140.18 547.226 140.18L542.364 140.18L542.364 138.38L546.947 138.38C547.431 138.38 547.816 138.247 548.101 137.982C548.386 137.717 548.528 137.369 548.528 136.938C548.528 136.673 548.464 136.416 548.335 136.168C548.205 135.919 548.013 135.715 547.758 135.556C547.499 135.394 547.176 135.313 546.788 135.313ZM550 131.662L542.364 131.662L542.364 129.917L543.636 129.917L543.636 129.838C543.196 129.698 542.856 129.46 542.617 129.122C542.375 128.78 542.254 128.391 542.254 127.953C542.254 127.854 542.259 127.743 542.269 127.62C542.276 127.494 542.287 127.39 542.304 127.307L543.96 127.307C543.933 127.383 543.91 127.504 543.89 127.67C543.867 127.832 543.855 127.99 543.855 128.142C543.855 128.47 543.926 128.765 544.069 129.027C544.208 129.286 544.402 129.49 544.651 129.639C544.899 129.788 545.186 129.862 545.511 129.862L550 129.862L550 131.662ZM550.149 123.095C550.149 123.857 549.982 124.512 549.647 125.059C549.312 125.602 548.85 126.021 548.26 126.316C547.667 126.608 546.984 126.754 546.212 126.754C545.436 126.754 544.752 126.605 544.158 126.306C543.562 126.008 543.098 125.587 542.766 125.044C542.432 124.497 542.264 123.851 542.264 123.105C542.264 122.485 542.379 121.936 542.607 121.459C542.833 120.979 543.152 120.596 543.567 120.311C543.978 120.026 544.458 119.863 545.009 119.824L545.009 121.544C544.641 121.613 544.334 121.779 544.089 122.041C543.84 122.299 543.716 122.646 543.716 123.08C543.716 123.448 543.815 123.771 544.014 124.049C544.21 124.328 544.491 124.545 544.859 124.701C545.227 124.853 545.668 124.929 546.182 124.929C546.702 124.929 547.15 124.853 547.524 124.701C547.895 124.548 548.182 124.334 548.384 124.059C548.583 123.781 548.683 123.454 548.683 123.08C548.683 122.815 548.633 122.578 548.533 122.369C548.431 122.157 548.283 121.98 548.091 121.837C547.899 121.695 547.665 121.597 547.39 121.544L547.39 119.824C547.93 119.867 548.409 120.026 548.827 120.301C549.241 120.576 549.566 120.95 549.801 121.424C550.033 121.898 550.149 122.455 550.149 123.095ZM550.149 114.965C550.149 115.731 549.99 116.392 549.672 116.949C549.35 117.502 548.896 117.928 548.31 118.226C547.72 118.525 547.025 118.674 546.227 118.674C545.441 118.674 544.752 118.525 544.158 118.226C543.562 117.925 543.098 117.504 542.766 116.964C542.432 116.423 542.264 115.789 542.264 115.06C542.264 114.589 542.34 114.145 542.493 113.727C542.642 113.306 542.874 112.935 543.189 112.613C543.504 112.289 543.905 112.033 544.392 111.848C544.876 111.662 545.453 111.569 546.122 111.569L546.674 111.569L546.674 117.829L545.461 117.829L545.461 113.295C545.116 113.298 544.81 113.372 544.541 113.518C544.269 113.664 544.056 113.868 543.9 114.13C543.744 114.388 543.666 114.69 543.666 115.035C543.666 115.403 543.756 115.726 543.935 116.004C544.11 116.283 544.342 116.5 544.631 116.655C544.916 116.808 545.229 116.886 545.57 116.889L546.629 116.889C547.073 116.889 547.455 116.808 547.773 116.645C548.088 116.483 548.33 116.256 548.499 115.964C548.664 115.673 548.747 115.331 548.747 114.94C548.747 114.678 548.711 114.441 548.638 114.229C548.562 114.017 548.451 113.833 548.305 113.677C548.159 113.522 547.978 113.404 547.763 113.324L547.952 111.644C548.396 111.75 548.784 111.952 549.115 112.251C549.443 112.546 549.698 112.923 549.881 113.384C550.06 113.845 550.149 114.372 550.149 114.965ZM544.382 104.011L544.561 105.652C544.395 105.698 544.24 105.78 544.094 105.896C543.948 106.008 543.83 106.161 543.741 106.353C543.651 106.545 543.607 106.781 543.607 107.059C543.607 107.434 543.688 107.748 543.85 108.004C544.013 108.255 544.223 108.38 544.482 108.376C544.704 108.38 544.884 108.299 545.023 108.133C545.163 107.964 545.277 107.685 545.366 107.298L545.645 105.995C545.801 105.273 546.048 104.736 546.386 104.384C546.724 104.03 547.166 103.851 547.713 103.847C548.194 103.851 548.618 103.992 548.986 104.27C549.35 104.545 549.635 104.928 549.841 105.418C550.046 105.909 550.149 106.472 550.149 107.109C550.149 108.043 549.954 108.796 549.562 109.366C549.168 109.936 548.62 110.276 547.917 110.385L547.748 108.63C548.093 108.55 548.353 108.381 548.528 108.123C548.704 107.864 548.792 107.528 548.792 107.114C548.792 106.686 548.704 106.343 548.528 106.085C548.353 105.823 548.136 105.692 547.877 105.692C547.658 105.692 547.478 105.776 547.335 105.945C547.193 106.111 547.083 106.37 547.007 106.721L546.734 108.023C546.581 108.756 546.324 109.298 545.963 109.649C545.598 110.001 545.138 110.175 544.581 110.171C544.11 110.175 543.703 110.047 543.358 109.788C543.01 109.527 542.741 109.164 542.553 108.7C542.36 108.232 542.264 107.694 542.264 107.084C542.264 106.189 542.455 105.485 542.836 104.971C543.217 104.454 543.732 104.134 544.382 104.011Z" fill="#4B5563"/>
<rect x="30" y="30" width="20" height="20" rx="4" fill="#93C5FD"/>
<path d="M64.8011 37.3636C64.7415 36.8598 64.4995 36.4688 64.0753 36.1903C63.651 35.9119 63.1307 35.7727 62.5142 35.7727C62.0634 35.7727 61.669 35.8456 61.331 35.9915C60.9962 36.1373 60.7344 36.3378 60.5455 36.593C60.3598 36.8482 60.267 37.1383 60.267 37.4631C60.267 37.7348 60.3317 37.9685 60.4609 38.1641C60.5935 38.3563 60.7625 38.517 60.968 38.6463C61.1735 38.7723 61.389 38.8767 61.6143 38.9595C61.8397 39.0391 62.0469 39.1037 62.2358 39.1534L63.2699 39.4318C63.535 39.5014 63.83 39.5975 64.1548 39.7202C64.483 39.8428 64.7962 40.0102 65.0945 40.2223C65.3961 40.4311 65.6446 40.6996 65.8402 41.0277C66.0357 41.3558 66.1335 41.7585 66.1335 42.2358C66.1335 42.786 65.9893 43.2831 65.701 43.7273C65.416 44.1714 64.9983 44.5244 64.4482 44.7862C63.9013 45.0481 63.2367 45.179 62.4545 45.179C61.7254 45.179 61.094 45.0613 60.5604 44.826C60.0301 44.5907 59.6125 44.2625 59.3075 43.8416C59.0059 43.4207 58.8352 42.9318 58.7955 42.375H60.0682C60.1013 42.7595 60.2306 43.0777 60.456 43.3295C60.6847 43.5781 60.973 43.7637 61.321 43.8864C61.6723 44.0057 62.0502 44.0653 62.4545 44.0653C62.9252 44.0653 63.3478 43.9891 63.7223 43.8366C64.0968 43.6809 64.3935 43.4654 64.6122 43.1903C64.831 42.9119 64.9403 42.5871 64.9403 42.2159C64.9403 41.8778 64.8459 41.6027 64.657 41.3906C64.468 41.1785 64.2195 41.0062 63.9112 40.8736C63.603 40.741 63.2699 40.625 62.9119 40.5256L61.6591 40.1676C60.8636 39.9389 60.2339 39.6125 59.7699 39.1882C59.3059 38.764 59.0739 38.2088 59.0739 37.5227C59.0739 36.9527 59.228 36.4555 59.5362 36.0312C59.8478 35.6037 60.2654 35.2723 60.7891 35.0369C61.3161 34.7983 61.9044 34.679 62.554 34.679C63.2102 34.679 63.7936 34.7966 64.304 35.032C64.8144 35.264 65.2188 35.5821 65.517 35.9865C65.8187 36.3909 65.9777 36.8499 65.9943 37.3636H64.8011ZM68.0016 47.8636V37.3636H69.1351V38.5767H69.2743C69.3605 38.4441 69.4798 38.2751 69.6323 38.0696C69.7881 37.8608 70.0101 37.6752 70.2985 37.5128C70.5901 37.3471 70.9846 37.2642 71.4817 37.2642C72.1247 37.2642 72.6915 37.425 73.182 37.7464C73.6725 38.0679 74.0553 38.5237 74.3304 39.1136C74.6055 39.7036 74.7431 40.3996 74.7431 41.2017C74.7431 42.0104 74.6055 42.7114 74.3304 43.3047C74.0553 43.8946 73.6742 44.352 73.187 44.6768C72.6998 44.9983 72.138 45.1591 71.5016 45.1591C71.0111 45.1591 70.6183 45.0779 70.3233 44.9155C70.0283 44.7498 69.8013 44.5625 69.6422 44.3537C69.4831 44.1416 69.3605 43.9659 69.2743 43.8267H69.1749V47.8636H68.0016ZM69.155 41.1818C69.155 41.7585 69.2395 42.2673 69.4086 42.7081C69.5776 43.1456 69.8245 43.4886 70.1493 43.7372C70.4741 43.9825 70.8719 44.1051 71.3425 44.1051C71.833 44.1051 72.2424 43.9759 72.5705 43.7173C72.9019 43.4555 73.1505 43.1042 73.3162 42.6634C73.4853 42.2192 73.5698 41.7254 73.5698 41.1818C73.5698 40.6449 73.4869 40.161 73.3212 39.7301C73.1588 39.2959 72.9119 38.9529 72.5804 38.701C72.2523 38.4458 71.8397 38.3182 71.3425 38.3182C70.8652 38.3182 70.4642 38.4392 70.1394 38.6811C69.8146 38.9197 69.5693 39.2545 69.4036 39.6854C69.2379 40.1129 69.155 40.6117 69.155 41.1818ZM79.6351 45.1591C78.9457 45.1591 78.3409 44.995 77.8205 44.6669C77.3034 44.3388 76.8991 43.8797 76.6074 43.2898C76.3191 42.6998 76.1749 42.0104 76.1749 41.2216C76.1749 40.4261 76.3191 39.7318 76.6074 39.1385C76.8991 38.5452 77.3034 38.0845 77.8205 37.7564C78.3409 37.4283 78.9457 37.2642 79.6351 37.2642C80.3245 37.2642 80.9277 37.4283 81.4448 37.7564C81.9651 38.0845 82.3695 38.5452 82.6578 39.1385C82.9495 39.7318 83.0953 40.4261 83.0953 41.2216C83.0953 42.0104 82.9495 42.6998 82.6578 43.2898C82.3695 43.8797 81.9651 44.3388 81.4448 44.6669C80.9277 44.995 80.3245 45.1591 79.6351 45.1591ZM79.6351 44.1051C80.1588 44.1051 80.5897 43.9709 80.9277 43.7024C81.2658 43.4339 81.516 43.081 81.6784 42.6435C81.8409 42.206 81.9221 41.732 81.9221 41.2216C81.9221 40.7112 81.8409 40.2356 81.6784 39.7947C81.516 39.3539 81.2658 38.9976 80.9277 38.7259C80.5897 38.4541 80.1588 38.3182 79.6351 38.3182C79.1114 38.3182 78.6806 38.4541 78.3425 38.7259C78.0044 38.9976 77.7542 39.3539 77.5918 39.7947C77.4294 40.2356 77.3482 40.7112 77.3482 41.2216C77.3482 41.732 77.4294 42.206 77.5918 42.6435C77.7542 43.081 78.0044 43.4339 78.3425 43.7024C78.6806 43.9709 79.1114 44.1051 79.6351 44.1051ZM88.2074 37.3636V38.358H84.25V37.3636H88.2074ZM85.4034 35.5341H86.5767V42.8125C86.5767 43.1439 86.6248 43.3925 86.7209 43.5582C86.8203 43.7206 86.9463 43.83 87.0987 43.8864C87.2545 43.9394 87.4186 43.9659 87.5909 43.9659C87.7202 43.9659 87.8262 43.9593 87.9091 43.946C87.992 43.9295 88.0582 43.9162 88.108 43.9062L88.3466 44.9602C88.267 44.9901 88.156 45.0199 88.0135 45.0497C87.871 45.0829 87.6903 45.0994 87.4716 45.0994C87.1402 45.0994 86.8153 45.0282 86.4972 44.8857C86.1823 44.7431 85.9205 44.526 85.7116 44.2344C85.5062 43.9427 85.4034 43.5748 85.4034 43.1307V35.5341Z" fill="#111827"/>
<rect x="101" y="30" width="20" height="20" rx="4" fill="#2563EB"/>
<path d="M130.233 45V34.8182H133.673C134.469 34.8182 135.122 34.9541 135.632 35.2259C136.143 35.4943 136.52 35.8639 136.766 36.3345C137.011 36.8052 137.134 37.3404 137.134 37.9403C137.134 38.5402 137.011 39.0722 136.766 39.5362C136.52 40.0002 136.144 40.3648 135.637 40.63C135.13 40.8918 134.482 41.0227 133.693 41.0227H130.909V39.9091H133.653C134.197 39.9091 134.634 39.8295 134.966 39.6705C135.301 39.5114 135.543 39.286 135.692 38.9943C135.844 38.6993 135.92 38.348 135.92 37.9403C135.92 37.5327 135.844 37.1764 135.692 36.8714C135.539 36.5665 135.296 36.3312 134.961 36.1655C134.626 35.9964 134.184 35.9119 133.634 35.9119H131.466V45H130.233ZM135.026 40.4261L137.531 45H136.099L133.634 40.4261H135.026ZM142.149 45.1591C141.413 45.1591 140.778 44.9967 140.244 44.6719C139.714 44.3438 139.305 43.8864 139.017 43.2997C138.731 42.7098 138.589 42.0237 138.589 41.2415C138.589 40.4593 138.731 39.7699 139.017 39.1733C139.305 38.5734 139.706 38.1061 140.22 37.7713C140.737 37.4332 141.34 37.2642 142.029 37.2642C142.427 37.2642 142.82 37.3305 143.208 37.4631C143.595 37.5956 143.948 37.8111 144.267 38.1094C144.585 38.4044 144.838 38.7955 145.027 39.2827C145.216 39.7699 145.311 40.3698 145.311 41.0824V41.5795H139.424V40.5653H144.117C144.117 40.1345 144.031 39.75 143.859 39.4119C143.69 39.0739 143.448 38.8071 143.133 38.6115C142.821 38.416 142.454 38.3182 142.029 38.3182C141.562 38.3182 141.158 38.4342 140.816 38.6662C140.478 38.8949 140.218 39.1932 140.036 39.5611C139.853 39.929 139.762 40.3234 139.762 40.7443V41.4205C139.762 41.9972 139.862 42.486 140.061 42.8871C140.263 43.2848 140.543 43.5881 140.901 43.7969C141.259 44.0024 141.675 44.1051 142.149 44.1051C142.457 44.1051 142.735 44.062 142.984 43.9759C143.236 43.8864 143.453 43.7538 143.635 43.5781C143.817 43.3991 143.958 43.1771 144.058 42.9119L145.191 43.2301C145.072 43.6146 144.871 43.9527 144.59 44.2443C144.308 44.5327 143.96 44.758 143.546 44.9205C143.131 45.0795 142.666 45.1591 142.149 45.1591ZM152.504 39.0739L151.45 39.3722C151.384 39.1965 151.286 39.0258 151.157 38.8601C151.031 38.6911 150.859 38.5518 150.64 38.4425C150.421 38.3331 150.141 38.2784 149.8 38.2784C149.333 38.2784 148.943 38.3861 148.632 38.6016C148.323 38.8137 148.169 39.0838 148.169 39.4119C148.169 39.7036 148.275 39.9339 148.487 40.103C148.7 40.272 149.031 40.4129 149.482 40.5256L150.615 40.804C151.298 40.9697 151.807 41.2232 152.142 41.5646C152.476 41.9027 152.644 42.3385 152.644 42.8722C152.644 43.3097 152.518 43.7008 152.266 44.0455C152.017 44.3902 151.669 44.6619 151.222 44.8608C150.774 45.0597 150.254 45.1591 149.661 45.1591C148.882 45.1591 148.237 44.9901 147.727 44.652C147.216 44.3139 146.893 43.8201 146.757 43.1705L147.871 42.892C147.977 43.303 148.177 43.6113 148.472 43.8168C148.771 44.0223 149.16 44.125 149.641 44.125C150.188 44.125 150.622 44.009 150.943 43.777C151.268 43.5417 151.431 43.2599 151.431 42.9318C151.431 42.6667 151.338 42.4446 151.152 42.2656C150.967 42.0833 150.682 41.9474 150.297 41.858L149.024 41.5597C148.325 41.3939 147.811 41.1371 147.483 40.7891C147.158 40.4377 146.996 39.9986 146.996 39.4716C146.996 39.0407 147.117 38.6596 147.359 38.3281C147.604 37.9967 147.937 37.7365 148.358 37.5476C148.782 37.3587 149.263 37.2642 149.8 37.2642C150.556 37.2642 151.149 37.4299 151.58 37.7614C152.014 38.0928 152.322 38.5303 152.504 39.0739ZM157.612 45.1591C156.876 45.1591 156.241 44.9967 155.707 44.6719C155.177 44.3438 154.768 43.8864 154.479 43.2997C154.194 42.7098 154.052 42.0237 154.052 41.2415C154.052 40.4593 154.194 39.7699 154.479 39.1733C154.768 38.5734 155.169 38.1061 155.683 37.7713C156.2 37.4332 156.803 37.2642 157.492 37.2642C157.89 37.2642 158.283 37.3305 158.67 37.4631C159.058 37.5956 159.411 37.8111 159.729 38.1094C160.048 38.4044 160.301 38.7955 160.49 39.2827C160.679 39.7699 160.773 40.3698 160.773 41.0824V41.5795H154.887V40.5653H159.58C159.58 40.1345 159.494 39.75 159.322 39.4119C159.153 39.0739 158.911 38.8071 158.596 38.6115C158.284 38.416 157.916 38.3182 157.492 38.3182C157.025 38.3182 156.621 38.4342 156.279 38.6662C155.941 38.8949 155.681 39.1932 155.499 39.5611C155.316 39.929 155.225 40.3234 155.225 40.7443V41.4205C155.225 41.9972 155.325 42.486 155.523 42.8871C155.726 43.2848 156.006 43.5881 156.364 43.7969C156.722 44.0024 157.138 44.1051 157.612 44.1051C157.92 44.1051 158.198 44.062 158.447 43.9759C158.699 43.8864 158.916 43.7538 159.098 43.5781C159.28 43.3991 159.421 43.1771 159.521 42.9119L160.654 43.2301C160.535 43.6146 160.334 43.9527 160.053 44.2443C159.771 44.5327 159.423 44.758 159.009 44.9205C158.594 45.0795 158.129 45.1591 157.612 45.1591ZM162.558 45V37.3636H163.692V38.517H163.771C163.911 38.1392 164.162 37.8326 164.527 37.5973C164.892 37.362 165.303 37.2443 165.76 37.2443C165.846 37.2443 165.954 37.246 166.083 37.2493C166.212 37.2526 166.31 37.2576 166.376 37.2642V38.4574C166.337 38.4474 166.246 38.4325 166.103 38.4126C165.964 38.3894 165.816 38.3778 165.661 38.3778C165.289 38.3778 164.958 38.4557 164.666 38.6115C164.378 38.764 164.149 38.9761 163.98 39.2479C163.814 39.5163 163.732 39.8229 163.732 40.1676V45H162.558ZM174.244 37.3636L171.42 45H170.227L167.403 37.3636H168.676L170.784 43.4489H170.863L172.971 37.3636H174.244ZM178.721 45.1591C177.985 45.1591 177.35 44.9967 176.817 44.6719C176.286 44.3438 175.877 43.8864 175.589 43.2997C175.304 42.7098 175.161 42.0237 175.161 41.2415C175.161 40.4593 175.304 39.7699 175.589 39.1733C175.877 38.5734 176.278 38.1061 176.792 37.7713C177.309 37.4332 177.912 37.2642 178.602 37.2642C178.999 37.2642 179.392 37.3305 179.78 37.4631C180.168 37.5956 180.521 37.8111 180.839 38.1094C181.157 38.4044 181.411 38.7955 181.599 39.2827C181.788 39.7699 181.883 40.3698 181.883 41.0824V41.5795H175.996V40.5653H180.69C180.69 40.1345 180.603 39.75 180.431 39.4119C180.262 39.0739 180.02 38.8071 179.705 38.6115C179.394 38.416 179.026 38.3182 178.602 38.3182C178.134 38.3182 177.73 38.4342 177.388 38.6662C177.05 38.8949 176.79 39.1932 176.608 39.5611C176.426 39.929 176.335 40.3234 176.335 40.7443V41.4205C176.335 41.9972 176.434 42.486 176.633 42.8871C176.835 43.2848 177.115 43.5881 177.473 43.7969C177.831 44.0024 178.247 44.1051 178.721 44.1051C179.029 44.1051 179.308 44.062 179.556 43.9759C179.808 43.8864 180.025 43.7538 180.207 43.5781C180.39 43.3991 180.531 43.1771 180.63 42.9119L181.763 43.2301C181.644 43.6146 181.444 43.9527 181.162 44.2443C180.88 44.5327 180.532 44.758 180.118 44.9205C179.704 45.0795 179.238 45.1591 178.721 45.1591ZM186.551 45.1591C185.915 45.1591 185.353 44.9983 184.866 44.6768C184.379 44.352 183.997 43.8946 183.722 43.3047C183.447 42.7114 183.31 42.0104 183.31 41.2017C183.31 40.3996 183.447 39.7036 183.722 39.1136C183.997 38.5237 184.38 38.0679 184.871 37.7464C185.361 37.425 185.928 37.2642 186.571 37.2642C187.068 37.2642 187.461 37.3471 187.749 37.5128C188.041 37.6752 188.263 37.8608 188.415 38.0696C188.571 38.2751 188.692 38.4441 188.778 38.5767H188.878V34.8182H190.051V45H188.918V43.8267H188.778C188.692 43.9659 188.57 44.1416 188.411 44.3537C188.251 44.5625 188.024 44.7498 187.729 44.9155C187.434 45.0779 187.042 45.1591 186.551 45.1591ZM186.71 44.1051C187.181 44.1051 187.579 43.9825 187.903 43.7372C188.228 43.4886 188.475 43.1456 188.644 42.7081C188.813 42.2673 188.898 41.7585 188.898 41.1818C188.898 40.6117 188.815 40.1129 188.649 39.6854C188.483 39.2545 188.238 38.9197 187.913 38.6811C187.589 38.4392 187.188 38.3182 186.71 38.3182C186.213 38.3182 185.799 38.4458 185.467 38.701C185.139 38.9529 184.892 39.2959 184.727 39.7301C184.564 40.161 184.483 40.6449 184.483 41.1818C184.483 41.7254 184.566 42.2192 184.732 42.6634C184.901 43.1042 185.149 43.4555 185.477 43.7173C185.809 43.9759 186.22 44.1051 186.71 44.1051Z" fill="#111827"/>
<rect x="204" y="30" width="20" height="20" rx="4" fill="#FCD34D"/>
<path d="M241.824 39.9091C241.824 40.983 241.63 41.911 241.242 42.6932C240.854 43.4754 240.322 44.0786 239.646 44.5028C238.97 44.9271 238.198 45.1392 237.33 45.1392C236.461 45.1392 235.689 44.9271 235.013 44.5028C234.337 44.0786 233.805 43.4754 233.417 42.6932C233.029 41.911 232.835 40.983 232.835 39.9091C232.835 38.8352 233.029 37.9072 233.417 37.125C233.805 36.3428 234.337 35.7396 235.013 35.3153C235.689 34.8911 236.461 34.679 237.33 34.679C238.198 34.679 238.97 34.8911 239.646 35.3153C240.322 35.7396 240.854 36.3428 241.242 37.125C241.63 37.9072 241.824 38.8352 241.824 39.9091ZM240.631 39.9091C240.631 39.0275 240.483 38.2834 240.188 37.6768C239.897 37.0703 239.5 36.6113 239 36.2997C238.503 35.9882 237.946 35.8324 237.33 35.8324C236.713 35.8324 236.155 35.9882 235.654 36.2997C235.157 36.6113 234.761 37.0703 234.466 37.6768C234.174 38.2834 234.028 39.0275 234.028 39.9091C234.028 40.7907 234.174 41.5348 234.466 42.1413C234.761 42.7479 235.157 43.2069 235.654 43.5185C236.155 43.83 236.713 43.9858 237.33 43.9858C237.946 43.9858 238.503 43.83 239 43.5185C239.5 43.2069 239.897 42.7479 240.188 42.1413C240.483 41.5348 240.631 40.7907 240.631 39.9091ZM244.911 40.4062V45H243.738V37.3636H244.871V38.5568H244.971C245.15 38.169 245.422 37.8575 245.786 37.6222C246.151 37.3835 246.621 37.2642 247.198 37.2642C247.715 37.2642 248.168 37.3703 248.555 37.5824C248.943 37.7912 249.245 38.1094 249.46 38.5369C249.676 38.9612 249.783 39.4981 249.783 40.1477V45H248.61V40.2273C248.61 39.6274 248.454 39.16 248.143 38.8253C247.831 38.4872 247.404 38.3182 246.86 38.3182C246.486 38.3182 246.151 38.3994 245.856 38.5618C245.564 38.7242 245.334 38.9612 245.165 39.2727C244.996 39.5843 244.911 39.9621 244.911 40.4062ZM256.302 40.0881V41.1818H251.848V40.0881H256.302ZM261.25 45.1591C260.614 45.1591 260.052 44.9983 259.565 44.6768C259.078 44.352 258.697 43.8946 258.422 43.3047C258.146 42.7114 258.009 42.0104 258.009 41.2017C258.009 40.3996 258.146 39.7036 258.422 39.1136C258.697 38.5237 259.079 38.0679 259.57 37.7464C260.06 37.425 260.627 37.2642 261.27 37.2642C261.767 37.2642 262.16 37.3471 262.449 37.5128C262.74 37.6752 262.962 37.8608 263.115 38.0696C263.27 38.2751 263.391 38.4441 263.478 38.5767H263.577V34.8182H264.75V45H263.617V43.8267H263.478C263.391 43.9659 263.269 44.1416 263.11 44.3537C262.951 44.5625 262.724 44.7498 262.429 44.9155C262.134 45.0779 261.741 45.1591 261.25 45.1591ZM261.409 44.1051C261.88 44.1051 262.278 43.9825 262.603 43.7372C262.927 43.4886 263.174 43.1456 263.343 42.7081C263.512 42.2673 263.597 41.7585 263.597 41.1818C263.597 40.6117 263.514 40.1129 263.348 39.6854C263.183 39.2545 262.937 38.9197 262.613 38.6811C262.288 38.4392 261.887 38.3182 261.409 38.3182C260.912 38.3182 260.498 38.4458 260.167 38.701C259.838 38.9529 259.592 39.2959 259.426 39.7301C259.263 40.161 259.182 40.6449 259.182 41.1818C259.182 41.7254 259.265 42.2192 259.431 42.6634C259.6 43.1042 259.848 43.4555 260.176 43.7173C260.508 43.9759 260.919 44.1051 261.409 44.1051ZM270.264 45.1591C269.528 45.1591 268.893 44.9967 268.36 44.6719C267.829 44.3438 267.42 43.8864 267.132 43.2997C266.847 42.7098 266.704 42.0237 266.704 41.2415C266.704 40.4593 266.847 39.7699 267.132 39.1733C267.42 38.5734 267.821 38.1061 268.335 37.7713C268.852 37.4332 269.455 37.2642 270.145 37.2642C270.542 37.2642 270.935 37.3305 271.323 37.4631C271.711 37.5956 272.064 37.8111 272.382 38.1094C272.7 38.4044 272.953 38.7955 273.142 39.2827C273.331 39.7699 273.426 40.3698 273.426 41.0824V41.5795H267.539V40.5653H272.233C272.233 40.1345 272.146 39.75 271.974 39.4119C271.805 39.0739 271.563 38.8071 271.248 38.6115C270.937 38.416 270.569 38.3182 270.145 38.3182C269.677 38.3182 269.273 38.4342 268.931 38.6662C268.593 38.8949 268.333 39.1932 268.151 39.5611C267.969 39.929 267.877 40.3234 267.877 40.7443V41.4205C267.877 41.9972 267.977 42.486 268.176 42.8871C268.378 43.2848 268.658 43.5881 269.016 43.7969C269.374 44.0024 269.79 44.1051 270.264 44.1051C270.572 44.1051 270.85 44.062 271.099 43.9759C271.351 43.8864 271.568 43.7538 271.75 43.5781C271.933 43.3991 272.074 43.1771 272.173 42.9119L273.306 43.2301C273.187 43.6146 272.987 43.9527 272.705 44.2443C272.423 44.5327 272.075 44.758 271.661 44.9205C271.247 45.0795 270.781 45.1591 270.264 45.1591ZM275.211 45V37.3636H276.344V38.5568H276.444C276.603 38.1491 276.859 37.8326 277.214 37.6072C277.569 37.3786 277.995 37.2642 278.492 37.2642C278.996 37.2642 279.415 37.3786 279.75 37.6072C280.088 37.8326 280.351 38.1491 280.54 38.5568H280.62C280.815 38.1624 281.109 37.8492 281.5 37.6172C281.891 37.3819 282.36 37.2642 282.907 37.2642C283.589 37.2642 284.148 37.478 284.582 37.9055C285.016 38.3298 285.233 38.991 285.233 39.8892V45H284.06V39.8892C284.06 39.3258 283.906 38.9231 283.598 38.6811C283.289 38.4392 282.926 38.3182 282.509 38.3182C281.972 38.3182 281.556 38.4806 281.261 38.8054C280.966 39.1269 280.819 39.5346 280.819 40.0284V45H279.625V39.7699C279.625 39.3357 279.484 38.986 279.203 38.7209C278.921 38.4524 278.558 38.3182 278.114 38.3182C277.809 38.3182 277.524 38.3994 277.259 38.5618C276.997 38.7242 276.785 38.9496 276.623 39.2379C276.463 39.523 276.384 39.8527 276.384 40.2273V45H275.211ZM289.626 45.179C289.142 45.179 288.703 45.0878 288.308 44.9055C287.914 44.7199 287.601 44.4531 287.369 44.1051C287.137 43.7538 287.021 43.3295 287.021 42.8324C287.021 42.3949 287.107 42.0402 287.279 41.7685C287.451 41.4934 287.682 41.2779 287.97 41.1222C288.259 40.9664 288.577 40.8504 288.925 40.7741C289.276 40.6946 289.629 40.6316 289.984 40.5852C290.448 40.5256 290.824 40.4808 291.112 40.451C291.404 40.4179 291.616 40.3632 291.749 40.2869C291.884 40.2107 291.952 40.0781 291.952 39.8892V39.8494C291.952 39.3589 291.818 38.9777 291.55 38.706C291.285 38.4342 290.882 38.2983 290.342 38.2983C289.781 38.2983 289.342 38.4209 289.024 38.6662C288.706 38.9115 288.482 39.1733 288.353 39.4517L287.239 39.054C287.438 38.59 287.703 38.2287 288.035 37.9702C288.37 37.7083 288.734 37.526 289.129 37.4233C289.526 37.3172 289.917 37.2642 290.302 37.2642C290.547 37.2642 290.829 37.294 291.147 37.3537C291.469 37.41 291.778 37.5277 292.077 37.7067C292.378 37.8857 292.629 38.1558 292.827 38.517C293.026 38.8783 293.126 39.3622 293.126 39.9688V45H291.952V43.9659H291.893C291.813 44.1316 291.681 44.3089 291.495 44.4979C291.309 44.6868 291.063 44.8475 290.754 44.9801C290.446 45.1127 290.07 45.179 289.626 45.179ZM289.805 44.125C290.269 44.125 290.66 44.0339 290.978 43.8516C291.299 43.6693 291.541 43.4339 291.704 43.1456C291.87 42.8572 291.952 42.554 291.952 42.2358V41.1619C291.903 41.2216 291.793 41.2763 291.624 41.326C291.459 41.3724 291.266 41.4138 291.048 41.4503C290.832 41.4834 290.622 41.5133 290.416 41.5398C290.214 41.563 290.05 41.5829 289.924 41.5994C289.619 41.6392 289.334 41.7038 289.069 41.7933C288.807 41.8795 288.595 42.0104 288.433 42.1861C288.273 42.3584 288.194 42.5937 288.194 42.892C288.194 43.2997 288.345 43.608 288.646 43.8168C288.951 44.0223 289.337 44.125 289.805 44.125ZM296.441 40.4062V45H295.267V37.3636H296.401V38.5568H296.5C296.679 38.169 296.951 37.8575 297.316 37.6222C297.68 37.3835 298.151 37.2642 298.727 37.2642C299.244 37.2642 299.697 37.3703 300.085 37.5824C300.472 37.7912 300.774 38.1094 300.99 38.5369C301.205 38.9612 301.313 39.4981 301.313 40.1477V45H300.139V40.2273C300.139 39.6274 299.984 39.16 299.672 38.8253C299.36 38.4872 298.933 38.3182 298.389 38.3182C298.015 38.3182 297.68 38.3994 297.385 38.5618C297.093 38.7242 296.863 38.9612 296.694 39.2727C296.525 39.5843 296.441 39.9621 296.441 40.4062ZM306.34 45.1591C305.704 45.1591 305.142 44.9983 304.655 44.6768C304.168 44.352 303.786 43.8946 303.511 43.3047C303.236 42.7114 303.099 42.0104 303.099 41.2017C303.099 40.3996 303.236 39.7036 303.511 39.1136C303.786 38.5237 304.169 38.0679 304.66 37.7464C305.15 37.425 305.717 37.2642 306.36 37.2642C306.857 37.2642 307.25 37.3471 307.538 37.5128C307.83 37.6752 308.052 37.8608 308.205 38.0696C308.36 38.2751 308.481 38.4441 308.567 38.5767H308.667V34.8182H309.84V45H308.707V43.8267H308.567C308.481 43.9659 308.359 44.1416 308.2 44.3537C308.04 44.5625 307.813 44.7498 307.518 44.9155C307.223 45.0779 306.831 45.1591 306.34 45.1591ZM306.499 44.1051C306.97 44.1051 307.368 43.9825 307.692 43.7372C308.017 43.4886 308.264 43.1456 308.433 42.7081C308.602 42.2673 308.687 41.7585 308.687 41.1818C308.687 40.6117 308.604 40.1129 308.438 39.6854C308.272 39.2545 308.027 38.9197 307.702 38.6811C307.378 38.4392 306.977 38.3182 306.499 38.3182C306.002 38.3182 305.588 38.4458 305.256 38.701C304.928 38.9529 304.681 39.2959 304.516 39.7301C304.353 40.161 304.272 40.6449 304.272 41.1818C304.272 41.7254 304.355 42.2192 304.521 42.6634C304.69 43.1042 304.938 43.4555 305.266 43.7173C305.598 43.9759 306.009 44.1051 306.499 44.1051Z" fill="#111827"/>
</g>
<defs>
<linearGradient id="paint0_linear_2146_34264" x1="840.853" y1="232.366" x2="840.853" y2="479.616" gradientUnits="userSpaceOnUse">
<stop stop-color="#93C5FD" stop-opacity="0.5"/>
<stop offset="1" stop-color="#93C5FD" stop-opacity="0.01"/>
</linearGradient>
<linearGradient id="paint1_linear_2146_34264" x1="560" y1="275.869" x2="560" y2="528.189" gradientUnits="userSpaceOnUse">
<stop offset="0.401042" stop-color="white"/>
<stop offset="1" stop-color="white" stop-opacity="0.01"/>
</linearGradient>
<clipPath id="clip0_2146_34264">
<rect width="1120" height="480" fill="white"/>
</clipPath>
</defs>
</svg>
