<svg width="1120" height="480" viewBox="0 0 1120 480" fill="none" xmlns="http://www.w3.org/2000/svg">
<g clip-path="url(#clip0_2051_31975)">
<rect width="1120" height="480" fill="#FAFAFA"/>
<g filter="url(#filter0_f_2051_31975)">
<ellipse cx="560" cy="279.033" rx="105.761" ry="64.8867" fill="#BFDBFE"/>
</g>
<path d="M349.476 -188.432L-457.054 277.217M377.907 -172.018L-428.622 293.632M406.338 -155.603L-400.191 310.047M434.769 -139.188L-371.76 326.462M463.201 -122.773L-343.328 342.877M491.632 -106.358L-314.897 359.292M520.063 -89.9434L-286.466 375.706M548.495 -73.5286L-258.034 392.121M576.926 -57.1137L-229.603 408.536M605.357 -40.6989L-201.172 424.951M633.789 -24.2841L-172.74 441.366M662.22 -7.86928L-144.309 457.78M690.651 8.54555L-115.878 474.195M719.083 24.9604L-87.4464 490.61M747.514 41.3752L-59.0151 507.025M775.945 57.79L-30.5838 523.44M804.376 74.2049L-2.1525 539.855M832.808 90.6197L26.2789 556.269M861.239 107.035L54.7102 572.684M889.671 123.449L83.1415 589.099M918.102 139.864L111.573 605.514M946.533 156.279L140.004 621.929M974.964 172.694L168.435 638.344M1003.4 189.109L196.867 654.758M1031.83 205.524L225.298 671.173M1060.26 221.938L253.729 687.588M1088.69 238.353L282.161 704.003M1117.12 254.768L310.592 720.418M1145.55 271.183L339.023 736.833M1173.98 287.598L367.455 753.247M-485.276 293.753L351.356 776.783M-456.427 277.097L380.206 760.127M-427.578 260.441L409.055 743.471M-398.728 243.785L437.905 726.815M-369.879 227.128L466.754 710.159M-341.029 210.472L495.603 693.502M-312.18 193.816L524.453 676.846M-283.331 177.16L553.302 660.19M-254.481 160.504L582.152 643.534M-225.632 143.847L611.001 626.878M-196.782 127.191L639.85 610.221M-167.933 110.535L668.7 593.565M-139.084 93.8788L697.549 576.909M-110.234 77.2225L726.399 560.253M-81.3847 60.5663L755.248 543.596M-52.5353 43.9101L784.097 526.94M-23.6859 27.2539L812.947 510.284M5.16351 10.5977L841.796 493.628M34.0129 -6.05852L870.646 476.972M62.8622 -22.7147L899.495 460.315M91.7117 -39.3709L928.344 443.659M120.561 -56.0272L957.194 427.003M149.41 -72.6834L986.043 410.347M178.26 -89.3396L1014.89 393.691M207.109 -105.996L1043.74 377.034M235.959 -122.652L1072.59 360.378M264.808 -139.308L1101.44 343.722M293.657 -155.964L1130.29 327.066M322.507 -172.621L1159.14 310.409M351.356 -189.277L1187.99 293.753" stroke="#E4E4E7"/>
<rect width="1120.29" height="143.747" transform="matrix(1 0 0 -1 -0.285156 480)" fill="url(#paint0_linear_2051_31975)"/>
<rect x="-0.285156" width="1120.29" height="157.825" fill="url(#paint1_linear_2051_31975)"/>
<rect y="480" width="480" height="483.815" transform="rotate(-90 0 480)" fill="url(#paint2_linear_2051_31975)"/>
<rect width="480" height="485.084" transform="matrix(4.37114e-08 -1 -1 -4.37114e-08 1121.27 480)" fill="url(#paint3_linear_2051_31975)"/>
<path d="M540.386 186.301L453.093 135.924C443.337 130.293 438.458 127.478 433.102 127.478C427.745 127.477 422.867 130.292 413.109 135.922L308.771 196.121C299.09 201.707 294.249 204.5 288.93 204.519C283.611 204.537 278.751 201.778 269.031 196.259L-20.8571 31.6692" stroke="url(#paint4_linear_2051_31975)" stroke-width="2" stroke-linecap="round" stroke-dasharray="6 6"/>
<path d="M1121.36 454.583L965.299 364.56C955.467 358.889 950.55 356.053 945.157 356.072C939.763 356.092 934.867 358.963 925.076 364.706L821.655 425.367C811.859 431.112 806.961 433.985 801.565 434.004C796.169 434.022 791.251 431.183 781.416 425.504L583.985 311.508" stroke="url(#paint5_linear_2051_31975)" stroke-width="2" stroke-linecap="round" stroke-dasharray="6 6"/>
<path d="M600.607 192.136L618.819 181.515C620.786 180.368 621.769 179.794 622.364 179.267C625.97 176.065 625.945 170.423 622.31 167.254C621.711 166.731 620.722 166.167 618.744 165.037V165.037C616.756 163.902 615.762 163.334 615.162 162.81C611.517 159.629 611.507 153.967 615.14 150.774C615.739 150.248 616.731 149.676 618.715 148.534L724.783 87.4458C735.444 81.3053 740.775 78.235 740.783 73.6191C740.79 69.0031 735.469 65.9159 724.827 59.7414L600.924 -12.1443" stroke="url(#paint6_linear_2051_31975)" stroke-width="2" stroke-linecap="round" stroke-dasharray="6 6"/>
<path d="M608.469 252.764L727.55 184.196C737.306 178.578 742.184 175.769 747.538 175.773C752.892 175.776 757.766 178.592 767.515 184.222L813.2 210.607C822.97 216.25 827.855 219.071 833.219 219.069C838.582 219.068 843.466 216.243 853.232 210.595L1123.32 54.3849" stroke="url(#paint7_linear_2051_31975)" stroke-width="2" stroke-linecap="round" stroke-dasharray="6 6"/>
<path d="M-20.5337 483.707L181.252 368.317C190.985 362.751 195.852 359.968 201.186 359.978C206.519 359.987 211.376 362.788 221.089 368.389L294.911 410.955C304.679 416.588 309.564 419.404 314.925 419.4C320.286 419.396 325.166 416.572 334.926 410.925L529.308 298.445" stroke="url(#paint8_linear_2051_31975)" stroke-width="2" stroke-linecap="round" stroke-dasharray="6 6"/>
<path d="M499.079 206.491L499.58 296.611L573.639 339.332L573.656 253.835L499.079 206.491Z" fill="#1E40AF"/>
<path d="M573.665 253.828L651.448 205.847L651.303 294.381L573.636 339.324L573.665 253.828Z" fill="#2563EB"/>
<path d="M499.079 206.494L575.831 159.139L651.446 205.853L573.666 253.874L499.079 206.494Z" fill="#60A5FA"/>
<g filter="url(#filter1_d_2051_31975)">
<circle cx="3.32924" cy="3.32924" r="3.32924" transform="matrix(0.83205 0.5547 -0.830139 0.557556 641.753 131.128)" fill="white"/>
<circle cx="3.32924" cy="3.32924" r="4.32924" transform="matrix(0.83205 0.5547 -0.830139 0.557556 641.753 131.128)" stroke="#D97706" stroke-width="2"/>
</g>
<g filter="url(#filter2_d_2051_31975)">
<circle cx="3.32924" cy="3.32924" r="3.32924" transform="matrix(0.83205 0.5547 -0.830139 0.557556 464.779 138.99)" fill="white"/>
<circle cx="3.32924" cy="3.32924" r="4.32924" transform="matrix(0.83205 0.5547 -0.830139 0.557556 464.779 138.99)" stroke="#D97706" stroke-width="2"/>
</g>
<g filter="url(#filter3_d_2051_31975)">
<circle cx="3.32924" cy="3.32924" r="3.32924" transform="matrix(0.83205 0.5547 -0.830139 0.557556 891.191 185.093)" fill="white"/>
<circle cx="3.32924" cy="3.32924" r="4.32924" transform="matrix(0.83205 0.5547 -0.830139 0.557556 891.191 185.093)" stroke="#D97706" stroke-width="2"/>
</g>
<g filter="url(#filter4_d_2051_31975)">
<circle cx="3.32924" cy="3.32924" r="3.32924" transform="matrix(0.83205 0.5547 -0.830139 0.557556 713.194 382.087)" fill="white"/>
<circle cx="3.32924" cy="3.32924" r="4.32924" transform="matrix(0.83205 0.5547 -0.830139 0.557556 713.194 382.087)" stroke="#D97706" stroke-width="2"/>
</g>
<g filter="url(#filter5_d_2051_31975)">
<circle cx="3.32924" cy="3.32924" r="3.32924" transform="matrix(0.83205 0.5547 -0.830139 0.557556 378.18 383.574)" fill="white"/>
<circle cx="3.32924" cy="3.32924" r="4.32924" transform="matrix(0.83205 0.5547 -0.830139 0.557556 378.18 383.574)" stroke="#D97706" stroke-width="2"/>
</g>
<path fill-rule="evenodd" clip-rule="evenodd" d="M158.293 178.48V141.035C158.293 141.035 219.924 110.246 220.412 110.512L281.377 141.346V178.746C281.377 178.746 281.51 179.368 281.021 179.634L220.901 214.195C220.457 214.461 219.701 214.461 219.257 214.195L158.604 179.323C158.159 179.057 158.293 178.48 158.293 178.48Z" fill="#EDEDED"/>
<path fill-rule="evenodd" clip-rule="evenodd" d="M158.604 140.414L218.724 105.853C219.168 105.587 219.924 105.587 220.368 105.853L280.977 140.725C281.421 140.991 281.421 141.435 280.977 141.701L220.901 176.217C220.457 176.484 219.701 176.484 219.257 176.217L158.604 141.39C158.159 141.124 158.159 140.68 158.604 140.414Z" fill="#F3F3F3"/>
<path fill-rule="evenodd" clip-rule="evenodd" d="M220.743 176.383L219.864 214.4C219.598 214.4 219.277 214.449 219.055 214.36L158.446 179.488C158.001 179.222 158.09 178.601 158.09 178.601V141.201L220.743 176.383Z" fill="#E3E3E3"/>
<path fill-rule="evenodd" clip-rule="evenodd" d="M234.208 181.864L271.908 160.775V184.865L234.208 206.546V181.864Z" fill="#C4C4C4" fill-opacity="0.6"/>
<path fill-rule="evenodd" clip-rule="evenodd" d="M271.907 184.7L250.883 172.611L271.907 160.775V184.7Z" fill="#797B84" fill-opacity="0.5"/>
<path opacity="0.4" d="M110 210.766L158.191 179.261L219.864 214.4L171.674 244.871L110 210.766Z" fill="url(#paint9_linear_2051_31975)"/>
<path fill-rule="evenodd" clip-rule="evenodd" d="M191.667 389.085V351.64C191.667 351.64 253.298 320.85 253.787 321.116L314.751 351.951V389.351C314.751 389.351 314.885 389.972 314.396 390.238L254.276 424.799C253.832 425.066 253.076 425.066 252.632 424.799L191.978 389.928C191.534 389.662 191.667 389.085 191.667 389.085Z" fill="#EDEDED"/>
<path fill-rule="evenodd" clip-rule="evenodd" d="M191.979 351.019L252.099 316.458C252.543 316.192 253.298 316.192 253.743 316.458L314.352 351.329C314.796 351.596 314.796 352.039 314.352 352.305L254.276 386.822C253.832 387.088 253.076 387.088 252.632 386.822L191.979 351.995C191.534 351.729 191.534 351.285 191.979 351.019Z" fill="#F3F3F3"/>
<path fill-rule="evenodd" clip-rule="evenodd" d="M254.118 386.987L253.239 425.005C252.972 425.005 252.652 425.053 252.429 424.964L191.82 390.093C191.376 389.827 191.465 389.206 191.465 389.206V351.805L254.118 386.987Z" fill="#E3E3E3"/>
<path fill-rule="evenodd" clip-rule="evenodd" d="M267.583 392.469L305.282 371.38V395.469L267.583 417.151V392.469Z" fill="#C4C4C4" fill-opacity="0.6"/>
<path fill-rule="evenodd" clip-rule="evenodd" d="M305.282 395.305L284.257 383.215L305.282 371.38V395.305Z" fill="#797B84" fill-opacity="0.5"/>
<path opacity="0.4" d="M143.375 421.37L191.565 389.866L253.239 425.005L205.049 455.476L143.375 421.37Z" fill="url(#paint10_linear_2051_31975)"/>
<path fill-rule="evenodd" clip-rule="evenodd" d="M722.841 112.119V88.167C722.841 88.167 683.417 68.4716 683.104 68.6419L644.107 88.3657V112.29C644.107 112.29 644.022 112.687 644.335 112.857L682.792 134.965C683.076 135.135 683.559 135.135 683.843 134.965L722.642 112.659C722.926 112.488 722.841 112.119 722.841 112.119Z" fill="#EDEDED"/>
<path fill-rule="evenodd" clip-rule="evenodd" d="M722.641 87.7696L684.184 65.6619C683.9 65.4917 683.417 65.4917 683.132 65.6619L644.363 87.9682C644.078 88.1385 644.078 88.4223 644.363 88.5926L682.791 110.672C683.076 110.842 683.559 110.842 683.843 110.672L722.641 88.3939C722.925 88.2237 722.925 87.9399 722.641 87.7696Z" fill="#F3F3F3"/>
<path fill-rule="evenodd" clip-rule="evenodd" d="M682.893 110.778L683.455 135.096C683.625 135.096 683.831 135.127 683.973 135.07L722.742 112.764C723.027 112.594 722.97 112.196 722.97 112.196V88.2726L682.893 110.778Z" fill="#E3E3E3"/>
<path fill-rule="evenodd" clip-rule="evenodd" d="M674.28 114.284L650.164 100.794V116.203L674.28 130.072V114.284Z" fill="#C4C4C4" fill-opacity="0.6"/>
<path fill-rule="evenodd" clip-rule="evenodd" d="M650.164 116.098L663.613 108.365L650.164 100.794V116.098Z" fill="#797B84" fill-opacity="0.5"/>
<path opacity="0.4" d="M753.731 132.771L722.905 112.619L683.454 135.096L714.281 154.588L753.731 132.771Z" fill="url(#paint11_linear_2051_31975)"/>
<path fill-rule="evenodd" clip-rule="evenodd" d="M996.447 161.501V133.033C996.447 133.033 949.592 109.625 949.22 109.827L902.872 133.269V161.703C902.872 161.703 902.77 162.176 903.142 162.378L948.849 188.653C949.187 188.856 949.761 188.856 950.099 188.653L996.211 162.142C996.549 161.94 996.447 161.501 996.447 161.501Z" fill="#EDEDED"/>
<path fill-rule="evenodd" clip-rule="evenodd" d="M996.211 132.561L950.504 106.286C950.166 106.083 949.592 106.083 949.254 106.286L903.175 132.797C902.838 132.999 902.838 133.337 903.175 133.539L948.849 159.781C949.186 159.983 949.761 159.983 950.098 159.781L996.211 133.303C996.549 133.101 996.549 132.763 996.211 132.561Z" fill="#F3F3F3"/>
<path fill-rule="evenodd" clip-rule="evenodd" d="M948.969 159.906L949.637 188.809C949.84 188.809 950.084 188.846 950.253 188.779L996.331 162.267C996.669 162.065 996.601 161.593 996.601 161.593V133.159L948.969 159.906Z" fill="#E3E3E3"/>
<path fill-rule="evenodd" clip-rule="evenodd" d="M938.732 164.074L910.07 148.041V166.355L938.732 182.839V164.074Z" fill="#C4C4C4" fill-opacity="0.6"/>
<path fill-rule="evenodd" clip-rule="evenodd" d="M910.071 166.23L926.055 157.039L910.071 148.041V166.23Z" fill="#797B84" fill-opacity="0.5"/>
<path opacity="0.4" d="M1033.16 186.046L996.525 162.095L949.637 188.809L986.274 211.975L1033.16 186.046Z" fill="url(#paint12_linear_2051_31975)"/>
<path fill-rule="evenodd" clip-rule="evenodd" d="M942.521 404.596V362.755C942.521 362.755 873.654 328.349 873.107 328.647L804.985 363.102V404.893C804.985 404.893 804.836 405.587 805.382 405.885L872.561 444.504C873.058 444.801 873.902 444.801 874.398 444.504L942.173 405.538C942.67 405.24 942.521 404.596 942.521 404.596Z" fill="#EDEDED"/>
<path fill-rule="evenodd" clip-rule="evenodd" d="M942.173 362.06L874.994 323.441C874.497 323.144 873.653 323.144 873.157 323.441L805.431 362.407C804.935 362.705 804.935 363.201 805.431 363.498L872.561 402.067C873.057 402.365 873.901 402.365 874.398 402.067L942.173 363.151C942.669 362.853 942.669 362.358 942.173 362.06Z" fill="#F3F3F3"/>
<path fill-rule="evenodd" clip-rule="evenodd" d="M872.738 402.252L873.72 444.733C874.018 444.733 874.376 444.787 874.624 444.688L942.35 405.722C942.846 405.425 942.747 404.731 942.747 404.731V362.939L872.738 402.252Z" fill="#E3E3E3"/>
<path fill-rule="evenodd" clip-rule="evenodd" d="M857.692 408.377L815.566 384.812V411.73L857.692 435.957V408.377Z" fill="#C4C4C4" fill-opacity="0.6"/>
<path fill-rule="evenodd" clip-rule="evenodd" d="M815.566 411.546L839.06 398.037L815.566 384.812V411.546Z" fill="#797B84" fill-opacity="0.5"/>
<path opacity="0.4" d="M996.484 440.672L942.635 405.469L873.72 444.733L927.569 478.782L996.484 440.672Z" fill="url(#paint13_linear_2051_31975)"/>
<path fill-rule="evenodd" clip-rule="evenodd" d="M878.28 269.867C878.28 269.315 877.832 268.867 877.28 268.867C876.728 268.867 876.28 269.315 876.28 269.867V274.41C876.28 274.411 876.28 274.411 876.28 274.411H869.195C869.195 274.411 869.195 274.411 869.195 274.41V269.867C869.195 269.315 868.747 268.867 868.195 268.867C867.642 268.867 867.195 269.315 867.195 269.867V274.41C867.195 274.411 867.195 274.411 867.195 274.411H858.594C858.041 274.411 857.594 274.858 857.594 275.411V284.011H853.051C852.499 284.011 852.051 284.458 852.051 285.011C852.051 285.563 852.499 286.011 853.051 286.011H857.594V293.097H853.051C852.499 293.097 852.051 293.545 852.051 294.097C852.051 294.649 852.499 295.097 853.051 295.097H857.594V303.697C857.594 304.25 858.041 304.697 858.594 304.697H867.195V309.24C867.195 309.792 867.642 310.24 868.195 310.24C868.747 310.24 869.195 309.792 869.195 309.24V304.697H876.28V309.24C876.28 309.792 876.728 310.24 877.28 310.24C877.832 310.24 878.28 309.792 878.28 309.24V304.697H886.88C887.433 304.697 887.88 304.25 887.88 303.697V295.097C887.881 295.097 887.881 295.097 887.881 295.097H892.424C892.976 295.097 893.424 294.649 893.424 294.097C893.424 293.545 892.976 293.097 892.424 293.097H887.881C887.881 293.097 887.881 293.097 887.88 293.097V286.011C887.881 286.011 887.881 286.011 887.881 286.011H892.424C892.976 286.011 893.424 285.563 893.424 285.011C893.424 284.458 892.976 284.011 892.424 284.011H887.881C887.881 284.011 887.881 284.011 887.88 284.011V275.411C887.88 274.858 887.433 274.411 886.88 274.411H878.28C878.28 274.411 878.28 274.411 878.28 274.41V269.867ZM866.437 284.754C866.437 283.925 867.108 283.254 867.937 283.254H877.537C878.366 283.254 879.037 283.925 879.037 284.754V294.354C879.037 295.183 878.366 295.854 877.537 295.854H867.937C867.108 295.854 866.437 295.183 866.437 294.354V284.754ZM868.437 285.254V293.854H877.037V285.254H868.437Z" fill="#2563EB"/>
<path fill-rule="evenodd" clip-rule="evenodd" d="M259.662 258.753C259.662 258.201 259.214 257.753 258.662 257.753C258.109 257.753 257.662 258.201 257.662 258.753V262.033H250.575V258.753C250.575 258.201 250.127 257.753 249.575 257.753C249.022 257.753 248.575 258.201 248.575 258.753V262.033H238.712C238.159 262.033 237.712 262.481 237.712 263.033V272.896H234.432C233.879 272.896 233.432 273.344 233.432 273.896C233.432 274.449 233.879 274.896 234.432 274.896H237.712V281.983H234.432C233.879 281.983 233.432 282.43 233.432 282.983C233.432 283.535 233.879 283.983 234.432 283.983H237.712V293.846C237.712 294.398 238.159 294.846 238.712 294.846H248.575V298.126C248.575 298.678 249.022 299.126 249.575 299.126C250.127 299.126 250.575 298.678 250.575 298.126V294.846H257.662V298.126C257.662 298.678 258.109 299.126 258.662 299.126C259.214 299.126 259.662 298.678 259.662 298.126V294.846H269.524C270.076 294.846 270.524 294.398 270.524 293.846V283.983H273.804C274.356 283.983 274.804 283.535 274.804 282.983C274.804 282.43 274.356 281.983 273.804 281.983H270.524V274.896H273.804C274.356 274.896 274.804 274.449 274.804 273.896C274.804 273.344 274.356 272.896 273.804 272.896H270.524V263.033C270.524 262.481 270.076 262.033 269.524 262.033H259.662V258.753ZM242.033 282.932C242.419 283.082 242.854 282.891 243.004 282.505L243.707 280.7H247.178L247.949 282.525C248.11 282.906 248.55 283.085 248.931 282.924C249.313 282.762 249.492 282.322 249.33 281.941L246.035 274.143C245.916 273.861 245.639 273.68 245.333 273.685C245.028 273.689 244.756 273.878 244.645 274.162L241.606 281.961C241.456 282.346 241.647 282.781 242.033 282.932ZM246.544 279.2H244.292L245.372 276.428L246.544 279.2ZM251.645 273.685C251.215 273.685 250.866 274.033 250.866 274.463V279.047V282.444C250.866 282.858 251.202 283.194 251.616 283.194C252.031 283.194 252.366 282.858 252.366 282.444V279.797H252.507L256.919 283.048C257.252 283.293 257.721 283.222 257.967 282.889C258.213 282.555 258.142 282.086 257.808 281.84L255.036 279.797H255.057C256.745 279.797 258.114 278.429 258.114 276.741C258.114 275.053 256.745 273.685 255.057 273.685H251.645ZM255.057 278.297H252.366V275.185H255.057C255.917 275.185 256.614 275.882 256.614 276.741C256.614 277.6 255.917 278.297 255.057 278.297ZM261.007 274.09C260.847 273.783 260.499 273.624 260.163 273.706C259.827 273.788 259.591 274.089 259.591 274.435V282.44C259.591 282.854 259.926 283.19 260.341 283.19C260.755 283.19 261.091 282.854 261.091 282.44V277.512L262.418 280.073C262.546 280.32 262.8 280.476 263.078 280.478C263.356 280.48 263.613 280.328 263.744 280.083L265.18 277.413V282.44C265.18 282.854 265.516 283.19 265.93 283.19C266.345 283.19 266.68 282.854 266.68 282.44V274.435C266.68 274.091 266.447 273.791 266.113 273.708C265.78 273.624 265.433 273.777 265.27 274.08L263.096 278.122L261.007 274.09Z" fill="#2563EB"/>
<path fill-rule="evenodd" clip-rule="evenodd" d="M198.79 49.0938C198.79 48.5415 199.238 48.0938 199.79 48.0938H239.79C240.343 48.0938 240.79 48.5415 240.79 49.0938V78.5938C240.79 79.1461 240.343 79.5938 239.79 79.5938H199.79C199.238 79.5938 198.79 79.1461 198.79 78.5938V49.0938ZM219.777 62.9921L210.325 57.7276L219.79 52.4315L229.332 57.7711L220.105 63.013C220.045 62.9879 219.98 62.974 219.911 62.974C219.864 62.974 219.82 62.9803 219.777 62.9921ZM230.122 58.4724L220.411 63.9893V75.2076L230.122 69.7736V58.4724ZM219.411 75.3432V63.933L209.458 58.389V69.7736L219.411 75.3432ZM212.79 85.5937C212.238 85.5937 211.79 86.0414 211.79 86.5937C211.79 87.146 212.238 87.5937 212.79 87.5937H226.79C227.342 87.5937 227.79 87.146 227.79 86.5937C227.79 86.0414 227.342 85.5937 226.79 85.5937H212.79Z" fill="#2563EB"/>
<path fill-rule="evenodd" clip-rule="evenodd" d="M932.693 63.0332C932.141 63.0332 931.693 63.4809 931.693 64.0332V98.0332C931.693 98.5855 932.141 99.0332 932.693 99.0332H966.693C967.245 99.0332 967.693 98.5855 967.693 98.0332V64.0332C967.693 63.4809 967.245 63.0332 966.693 63.0332H932.693ZM937.593 67.8336C937.593 67.5574 937.369 67.3336 937.093 67.3336C936.817 67.3336 936.593 67.5574 936.593 67.8336V71.5058C936.593 71.782 936.817 72.0058 937.093 72.0058C937.369 72.0058 937.593 71.782 937.593 71.5058V67.8336ZM960.682 80.7703C960.965 80.2961 960.81 79.6822 960.336 79.3991C959.862 79.116 959.248 79.2709 958.965 79.7451L954.765 86.7797C954.301 87.5109 954.032 88.3781 954.032 89.308C954.032 91.9182 956.148 94.0342 958.758 94.0342C961.369 94.0342 963.485 91.9182 963.485 89.308C963.485 86.6978 961.369 84.5818 958.758 84.5818C958.637 84.5818 958.517 84.5863 958.398 84.5953L960.682 80.7703ZM956.032 89.308C956.032 88.8257 956.157 88.3727 956.377 87.9796C956.382 87.9724 956.386 87.9651 956.391 87.9577L956.462 87.8375C956.947 87.0822 957.794 86.5818 958.758 86.5818C960.264 86.5818 961.485 87.8024 961.485 89.308C961.485 90.8137 960.264 92.0342 958.758 92.0342C957.253 92.0342 956.032 90.8137 956.032 89.308ZM947.449 81.5832C947.82 81.3355 948.265 81.2239 948.709 81.2676C949.153 81.3114 949.568 81.5076 949.883 81.823L949.884 81.8239C950.063 82.0024 950.205 82.2146 950.301 82.4481C950.398 82.6817 950.448 82.932 950.448 83.1848V83.1861C950.448 83.6321 950.293 84.0643 950.01 84.4091C949.727 84.7538 949.333 84.9898 948.896 85.0768C948.78 85.0999 948.662 85.1122 948.545 85.1137L948.494 85.1137C948.188 85.1096 947.885 85.0325 947.611 84.8862C947.218 84.676 946.909 84.3359 946.739 83.9238C946.568 83.5118 946.546 83.0533 946.675 82.6265C946.804 82.1997 947.078 81.831 947.449 81.5832ZM948.547 87.1138C948.529 87.1139 948.511 87.1139 948.492 87.1138C948.017 87.119 947.551 87.2619 947.153 87.5282C946.679 87.8444 946.331 88.3149 946.165 88.8596C946 89.4042 946.029 89.9893 946.247 90.5151C946.464 91.0409 946.858 91.475 947.36 91.7433C947.862 92.0116 948.441 92.0975 948.999 91.9865C949.558 91.8755 950.06 91.5743 950.421 91.1343C950.782 90.6944 950.979 90.1428 950.979 89.5737L950.979 89.5724C950.98 89.2497 950.917 88.9301 950.793 88.6319C950.67 88.3338 950.488 88.063 950.26 87.8351L950.259 87.8342C949.857 87.4317 949.327 87.1813 948.761 87.1255C948.689 87.1184 948.618 87.1146 948.547 87.1138ZM944.891 84.6892C945.102 85.1991 945.417 85.6549 945.811 86.0303C945.07 86.5964 944.523 87.3823 944.251 88.279C943.952 89.2664 944.004 90.3272 944.399 91.2805C944.794 92.2338 945.507 93.0207 946.417 93.5071C947.327 93.9935 948.378 94.1494 949.39 93.9481C950.402 93.7468 951.312 93.2008 951.967 92.4031C952.622 91.6056 952.979 90.6059 952.979 89.5742L952.979 89.575L951.979 89.5737H952.979V89.5742C952.98 88.9883 952.865 88.4079 952.641 87.8666C952.417 87.3251 952.088 86.8333 951.673 86.4194C951.533 86.2794 951.384 86.1496 951.228 86.0305C951.344 85.9203 951.454 85.8025 951.556 85.6778C952.132 84.9755 952.447 84.0952 952.448 83.1866L952.448 83.1874L951.448 83.1861H952.448V83.1866C952.448 82.6706 952.347 82.1595 952.149 81.6827C951.952 81.2059 951.662 80.7728 951.297 80.4082C950.654 79.766 949.809 79.3663 948.905 79.2773C948 79.1882 947.093 79.4155 946.338 79.9203C945.582 80.4252 945.025 81.1764 944.761 82.0459C944.497 82.9155 944.543 83.8497 944.891 84.6892ZM936.335 84.7947C936.789 84.4815 937.412 84.5963 937.725 85.0512L939.455 87.5628L941.184 85.0512C941.497 84.5963 942.12 84.4815 942.575 84.7947C943.029 85.1079 943.144 85.7305 942.831 86.1854L940.669 89.3262L942.831 92.4669C943.144 92.9218 943.029 93.5445 942.574 93.8576C942.12 94.1708 941.497 94.056 941.184 93.6011L939.455 91.0896L937.725 93.6011C937.412 94.056 936.79 94.1708 936.335 93.8576C935.88 93.5445 935.765 92.9218 936.078 92.4669L938.24 89.3262L936.078 86.1854C935.765 85.7305 935.88 85.1079 936.335 84.7947ZM940.693 67.3336C940.969 67.3336 941.193 67.5575 941.193 67.8336V71.5059C941.193 71.782 940.969 72.0059 940.693 72.0059C940.417 72.0059 940.193 71.782 940.193 71.5059V67.8336C940.193 67.5575 940.417 67.3336 940.693 67.3336ZM944.793 67.8336C944.793 67.5575 944.569 67.3336 944.293 67.3336C944.017 67.3336 943.793 67.5575 943.793 67.8336V71.5059C943.793 71.782 944.017 72.0059 944.293 72.0059C944.569 72.0059 944.793 71.782 944.793 71.5059V67.8336ZM947.893 67.3336C948.169 67.3336 948.393 67.5575 948.393 67.8336V71.5059C948.393 71.782 948.169 72.0059 947.893 72.0059C947.617 72.0059 947.393 71.782 947.393 71.5059V67.8336C947.393 67.5575 947.617 67.3336 947.893 67.3336ZM951.993 67.8336C951.993 67.5575 951.769 67.3336 951.493 67.3336C951.217 67.3336 950.993 67.5575 950.993 67.8336V71.5059C950.993 71.782 951.217 72.0059 951.493 72.0059C951.769 72.0059 951.993 71.782 951.993 71.5059V67.8336ZM955.093 67.3336C955.37 67.3336 955.593 67.5575 955.593 67.8336V71.5059C955.593 71.782 955.37 72.0059 955.093 72.0059C954.817 72.0059 954.593 71.782 954.593 71.5059V67.8336C954.593 67.5575 954.817 67.3336 955.093 67.3336ZM959.194 67.8336C959.194 67.5575 958.97 67.3336 958.694 67.3336C958.417 67.3336 958.194 67.5575 958.194 67.8336V71.5059C958.194 71.782 958.417 72.0059 958.694 72.0059C958.97 72.0059 959.194 71.782 959.194 71.5059V67.8336ZM962.294 67.3336C962.57 67.3336 962.794 67.5575 962.794 67.8336V71.5059C962.794 71.782 962.57 72.0059 962.294 72.0059C962.018 72.0059 961.794 71.782 961.794 71.5059V67.8336C961.794 67.5575 962.018 67.3336 962.294 67.3336Z" fill="#2563EB"/>
<path fill-rule="evenodd" clip-rule="evenodd" d="M670.893 32.5089C670.893 31.9566 671.341 31.5089 671.893 31.5089H693.893C694.445 31.5089 694.893 31.9566 694.893 32.5089V54.5089C694.893 55.0612 694.445 55.5089 693.893 55.5089H671.893C671.341 55.5089 670.893 55.0612 670.893 54.5089V32.5089ZM683.893 36.8419C684.09 36.8244 684.29 36.8155 684.492 36.8155H686.987C687.539 36.8155 687.987 37.2632 687.987 37.8155C687.987 38.3677 687.539 38.8155 686.987 38.8155H684.492C684.289 38.8155 684.089 38.8284 683.893 38.8534V48.1645C684.089 48.1895 684.289 48.2024 684.492 48.2024H686.987C687.539 48.2024 687.987 48.6502 687.987 49.2024C687.987 49.7547 687.539 50.2024 686.987 50.2024H684.492C684.29 50.2024 684.09 50.1935 683.893 50.176V51.8936C683.893 52.4459 683.445 52.8936 682.893 52.8936C682.34 52.8936 681.893 52.4459 681.893 51.8936V49.6789C679.487 48.6642 677.799 46.2837 677.799 43.5089C677.799 40.7342 679.487 38.3537 681.893 37.339V35.1241C681.893 34.5718 682.34 34.1241 682.893 34.1241C683.445 34.1241 683.893 34.5718 683.893 35.1241V36.8419ZM681.893 39.6005C680.63 40.4417 679.799 41.8782 679.799 43.5089C679.799 45.1397 680.63 46.5761 681.893 47.4174V39.6005Z" fill="#2563EB"/>
<path d="M872.738 362.754L872.738 314.554" stroke="#D97706" stroke-width="2" stroke-linecap="round" stroke-dasharray="6 6"/>
<path d="M254.118 351.64L254.118 303.439" stroke="#D97706" stroke-width="2" stroke-linecap="round" stroke-dasharray="6 6"/>
<path d="M219.79 141.201L219.79 93" stroke="#D97706" stroke-width="2" stroke-linecap="round" stroke-dasharray="6 6"/>
<path d="M949.693 133.033L949.693 103.033" stroke="#D97706" stroke-width="2" stroke-linecap="round" stroke-dasharray="6 6"/>
<path d="M683.454 89.5089L683.454 59.5089" stroke="#D97706" stroke-width="2" stroke-linecap="round" stroke-dasharray="6 6"/>
</g>
<defs>
<filter id="filter0_f_2051_31975" x="254.239" y="14.1466" width="611.522" height="529.773" filterUnits="userSpaceOnUse" color-interpolation-filters="sRGB">
<feFlood flood-opacity="0" result="BackgroundImageFix"/>
<feBlend mode="normal" in="SourceGraphic" in2="BackgroundImageFix" result="shape"/>
<feGaussianBlur stdDeviation="100" result="effect1_foregroundBlur_2051_31975"/>
</filter>
<filter id="filter1_d_2051_31975" x="623.496" y="122.64" width="36.5273" height="32.3828" filterUnits="userSpaceOnUse" color-interpolation-filters="sRGB">
<feFlood flood-opacity="0" result="BackgroundImageFix"/>
<feColorMatrix in="SourceAlpha" type="matrix" values="0 0 0 0 0 0 0 0 0 0 0 0 0 0 0 0 0 0 127 0" result="hardAlpha"/>
<feMorphology radius="2" operator="dilate" in="SourceAlpha" result="effect1_dropShadow_2051_31975"/>
<feOffset dy="4"/>
<feGaussianBlur stdDeviation="5"/>
<feComposite in2="hardAlpha" operator="out"/>
<feColorMatrix type="matrix" values="0 0 0 0 1 0 0 0 0 0.984314 0 0 0 0 0.921569 0 0 0 1 0"/>
<feBlend mode="normal" in2="BackgroundImageFix" result="effect1_dropShadow_2051_31975"/>
<feBlend mode="normal" in="SourceGraphic" in2="effect1_dropShadow_2051_31975" result="shape"/>
</filter>
<filter id="filter2_d_2051_31975" x="446.522" y="130.501" width="36.5273" height="32.3828" filterUnits="userSpaceOnUse" color-interpolation-filters="sRGB">
<feFlood flood-opacity="0" result="BackgroundImageFix"/>
<feColorMatrix in="SourceAlpha" type="matrix" values="0 0 0 0 0 0 0 0 0 0 0 0 0 0 0 0 0 0 127 0" result="hardAlpha"/>
<feMorphology radius="2" operator="dilate" in="SourceAlpha" result="effect1_dropShadow_2051_31975"/>
<feOffset dy="4"/>
<feGaussianBlur stdDeviation="5"/>
<feComposite in2="hardAlpha" operator="out"/>
<feColorMatrix type="matrix" values="0 0 0 0 1 0 0 0 0 0.984314 0 0 0 0 0.921569 0 0 0 1 0"/>
<feBlend mode="normal" in2="BackgroundImageFix" result="effect1_dropShadow_2051_31975"/>
<feBlend mode="normal" in="SourceGraphic" in2="effect1_dropShadow_2051_31975" result="shape"/>
</filter>
<filter id="filter3_d_2051_31975" x="872.934" y="176.604" width="36.5273" height="32.3828" filterUnits="userSpaceOnUse" color-interpolation-filters="sRGB">
<feFlood flood-opacity="0" result="BackgroundImageFix"/>
<feColorMatrix in="SourceAlpha" type="matrix" values="0 0 0 0 0 0 0 0 0 0 0 0 0 0 0 0 0 0 127 0" result="hardAlpha"/>
<feMorphology radius="2" operator="dilate" in="SourceAlpha" result="effect1_dropShadow_2051_31975"/>
<feOffset dy="4"/>
<feGaussianBlur stdDeviation="5"/>
<feComposite in2="hardAlpha" operator="out"/>
<feColorMatrix type="matrix" values="0 0 0 0 1 0 0 0 0 0.984314 0 0 0 0 0.921569 0 0 0 1 0"/>
<feBlend mode="normal" in2="BackgroundImageFix" result="effect1_dropShadow_2051_31975"/>
<feBlend mode="normal" in="SourceGraphic" in2="effect1_dropShadow_2051_31975" result="shape"/>
</filter>
<filter id="filter4_d_2051_31975" x="694.937" y="373.599" width="36.5273" height="32.3828" filterUnits="userSpaceOnUse" color-interpolation-filters="sRGB">
<feFlood flood-opacity="0" result="BackgroundImageFix"/>
<feColorMatrix in="SourceAlpha" type="matrix" values="0 0 0 0 0 0 0 0 0 0 0 0 0 0 0 0 0 0 127 0" result="hardAlpha"/>
<feMorphology radius="2" operator="dilate" in="SourceAlpha" result="effect1_dropShadow_2051_31975"/>
<feOffset dy="4"/>
<feGaussianBlur stdDeviation="5"/>
<feComposite in2="hardAlpha" operator="out"/>
<feColorMatrix type="matrix" values="0 0 0 0 1 0 0 0 0 0.984314 0 0 0 0 0.921569 0 0 0 1 0"/>
<feBlend mode="normal" in2="BackgroundImageFix" result="effect1_dropShadow_2051_31975"/>
<feBlend mode="normal" in="SourceGraphic" in2="effect1_dropShadow_2051_31975" result="shape"/>
</filter>
<filter id="filter5_d_2051_31975" x="359.923" y="375.085" width="36.5273" height="32.3828" filterUnits="userSpaceOnUse" color-interpolation-filters="sRGB">
<feFlood flood-opacity="0" result="BackgroundImageFix"/>
<feColorMatrix in="SourceAlpha" type="matrix" values="0 0 0 0 0 0 0 0 0 0 0 0 0 0 0 0 0 0 127 0" result="hardAlpha"/>
<feMorphology radius="2" operator="dilate" in="SourceAlpha" result="effect1_dropShadow_2051_31975"/>
<feOffset dy="4"/>
<feGaussianBlur stdDeviation="5"/>
<feComposite in2="hardAlpha" operator="out"/>
<feColorMatrix type="matrix" values="0 0 0 0 1 0 0 0 0 0.984314 0 0 0 0 0.921569 0 0 0 1 0"/>
<feBlend mode="normal" in2="BackgroundImageFix" result="effect1_dropShadow_2051_31975"/>
<feBlend mode="normal" in="SourceGraphic" in2="effect1_dropShadow_2051_31975" result="shape"/>
</filter>
<linearGradient id="paint0_linear_2051_31975" x1="560.143" y1="0" x2="560.143" y2="143.747" gradientUnits="userSpaceOnUse">
<stop stop-color="#FAFAFA"/>
<stop offset="1" stop-color="#FAFAFA" stop-opacity="0"/>
</linearGradient>
<linearGradient id="paint1_linear_2051_31975" x1="559.857" y1="0" x2="559.857" y2="157.825" gradientUnits="userSpaceOnUse">
<stop stop-color="#FAFAFA"/>
<stop offset="1" stop-color="#FAFAFA" stop-opacity="0"/>
</linearGradient>
<linearGradient id="paint2_linear_2051_31975" x1="240" y1="480" x2="240" y2="963.815" gradientUnits="userSpaceOnUse">
<stop stop-color="#FAFAFA"/>
<stop offset="1" stop-color="#FAFAFA" stop-opacity="0"/>
</linearGradient>
<linearGradient id="paint3_linear_2051_31975" x1="240" y1="0" x2="240" y2="485.084" gradientUnits="userSpaceOnUse">
<stop stop-color="#FAFAFA"/>
<stop offset="1" stop-color="#FAFAFA" stop-opacity="0"/>
</linearGradient>
<linearGradient id="paint4_linear_2051_31975" x1="524.392" y1="179.573" x2="170.257" y2="101.906" gradientUnits="userSpaceOnUse">
<stop stop-color="#D97706"/>
<stop offset="1" stop-color="#D97706" stop-opacity="0"/>
</linearGradient>
<linearGradient id="paint5_linear_2051_31975" x1="590.657" y1="311.508" x2="941.497" y2="369.241" gradientUnits="userSpaceOnUse">
<stop stop-color="#D97706"/>
<stop offset="1" stop-color="#D97706" stop-opacity="0"/>
</linearGradient>
<linearGradient id="paint6_linear_2051_31975" x1="721.391" y1="89.9957" x2="610.303" y2="186.16" gradientUnits="userSpaceOnUse">
<stop stop-color="#D97706" stop-opacity="0"/>
<stop offset="1" stop-color="#D97706"/>
</linearGradient>
<linearGradient id="paint7_linear_2051_31975" x1="635.373" y1="238.252" x2="992.483" y2="133.12" gradientUnits="userSpaceOnUse">
<stop stop-color="#D97706"/>
<stop offset="1" stop-color="#D97706" stop-opacity="0"/>
</linearGradient>
<linearGradient id="paint8_linear_2051_31975" x1="521.113" y1="298.445" x2="196" y2="353.124" gradientUnits="userSpaceOnUse">
<stop stop-color="#D97706"/>
<stop offset="1" stop-color="#D97706" stop-opacity="0"/>
</linearGradient>
<linearGradient id="paint9_linear_2051_31975" x1="177.695" y1="222.315" x2="193.198" y2="197.36" gradientUnits="userSpaceOnUse">
<stop offset="0.132597" stop-color="#C4C4C4" stop-opacity="0"/>
<stop offset="1" stop-color="#484848"/>
</linearGradient>
<linearGradient id="paint10_linear_2051_31975" x1="211.07" y1="432.919" x2="226.573" y2="407.964" gradientUnits="userSpaceOnUse">
<stop offset="0.132597" stop-color="#C4C4C4" stop-opacity="0"/>
<stop offset="1" stop-color="#484848"/>
</linearGradient>
<linearGradient id="paint11_linear_2051_31975" x1="710.429" y1="140.159" x2="700.512" y2="124.196" gradientUnits="userSpaceOnUse">
<stop offset="0.132597" stop-color="#C4C4C4" stop-opacity="0"/>
<stop offset="1" stop-color="#484848"/>
</linearGradient>
<linearGradient id="paint12_linear_2051_31975" x1="981.696" y1="194.826" x2="969.91" y2="175.854" gradientUnits="userSpaceOnUse">
<stop offset="0.132597" stop-color="#C4C4C4" stop-opacity="0"/>
<stop offset="1" stop-color="#484848"/>
</linearGradient>
<linearGradient id="paint13_linear_2051_31975" x1="920.841" y1="453.577" x2="903.517" y2="425.692" gradientUnits="userSpaceOnUse">
<stop offset="0.132597" stop-color="#C4C4C4" stop-opacity="0"/>
<stop offset="1" stop-color="#484848"/>
</linearGradient>
<clipPath id="clip0_2051_31975">
<rect width="1120" height="480" fill="white"/>
</clipPath>
</defs>
</svg>
