<svg width="1440" height="992" viewBox="0 0 1440 992" fill="none" xmlns="http://www.w3.org/2000/svg">
<path d="M718.119 6.31434L-88.41 471.964M746.55 22.7292L-59.9786 488.379M774.982 39.144L-31.5473 504.794M803.413 55.5588L-3.11605 521.209M831.844 71.9736L25.3153 537.623M860.276 88.3885L53.7466 554.038M888.707 104.803L82.1779 570.453M917.138 121.218L110.609 586.868M945.57 137.633L139.041 603.283M974.001 154.048L167.472 619.698M1002.43 170.463L195.903 636.112M1030.86 186.877L224.335 652.527M1059.29 203.292L252.766 668.942M1087.73 219.707L281.197 685.357M1116.16 236.122L309.628 701.772M1144.59 252.537L338.06 718.187M1173.02 268.952L366.491 734.601M1201.45 285.366L394.922 751.016M1229.88 301.781L423.354 767.431M1258.31 318.196L451.785 783.846M1286.75 334.611L480.216 800.261M1315.18 351.026L508.648 816.676M1343.61 367.441L537.079 833.09M1372.04 383.855L565.51 849.505M1400.47 400.27L593.942 865.92M1428.9 416.685L622.373 882.335M1457.33 433.1L650.804 898.75M1485.76 449.515L679.236 915.165M1514.2 465.93L707.667 931.579M1542.63 482.344L736.098 947.994M-116.633 488.5L720 971.53M-87.7834 471.844L748.849 954.874M-58.934 455.188L777.699 938.218M-30.0846 438.531L806.548 921.561M-1.23521 421.875L835.398 904.905M27.6142 405.219L864.247 888.249M56.4636 388.563L893.096 871.593M85.313 371.907L921.946 854.937M114.162 355.25L950.795 838.28M143.012 338.594L979.645 821.624M171.861 321.938L1008.49 804.968M200.711 305.282L1037.34 788.312M229.56 288.625L1066.19 771.656M258.409 271.969L1095.04 754.999M287.259 255.313L1123.89 738.343M316.108 238.657L1152.74 721.687M344.958 222.001L1181.59 705.031M373.807 205.344L1210.44 688.375M402.656 188.688L1239.29 671.718M431.506 172.032L1268.14 655.062M460.355 155.376L1296.99 638.406M489.205 138.72L1325.84 621.75M518.054 122.063L1354.69 605.094M546.903 105.407L1383.54 588.437M575.753 88.7509L1412.39 571.781M604.602 72.0947L1441.23 555.125M633.452 55.4385L1470.08 538.469M662.301 38.7823L1498.93 521.812M691.15 22.1261L1527.78 505.156M720 5.46985L1556.63 488.5" stroke="#27272A"/>
<path d="M110.24 521.662L-696.289 987.311M138.671 538.076L-667.858 1003.73M167.103 554.491L-639.426 1020.14M195.534 570.906L-610.995 1036.56M223.965 587.321L-582.564 1052.97M252.397 603.736L-554.132 1069.39M280.828 620.151L-525.701 1085.8M309.259 636.565L-497.27 1102.22M337.691 652.98L-468.838 1118.63M366.122 669.395L-440.407 1135.04M394.553 685.81L-411.976 1151.46M422.985 702.225L-383.544 1167.87M451.416 718.64L-355.113 1184.29M479.847 735.054L-326.682 1200.7M508.279 751.469L-298.25 1217.12M536.71 767.884L-269.819 1233.53M565.141 784.299L-241.388 1249.95M593.573 800.714L-212.956 1266.36M622.004 817.129L-184.525 1282.78M650.435 833.543L-156.094 1299.19M678.866 849.958L-127.663 1315.61M707.298 866.373L-99.2312 1332.02M735.729 882.788L-70.7999 1348.44M764.161 899.203L-42.3685 1364.85M792.592 915.618L-13.9372 1381.27M821.023 932.032L14.4941 1397.68M849.455 948.447L42.9255 1414.1M877.886 964.862L71.3568 1430.51M906.317 981.277L99.7881 1446.93M934.748 997.692L128.219 1463.34M-724.512 1003.85L112.121 1486.88M-695.662 987.191L140.97 1470.22M-666.813 970.535L169.82 1453.57M-637.964 953.879L198.669 1436.91M-609.114 937.222L227.519 1420.25M-580.265 920.566L256.368 1403.6M-551.415 903.91L285.217 1386.94M-522.566 887.254L314.067 1370.28M-493.716 870.598L342.916 1353.63M-464.867 853.941L371.766 1336.97M-436.018 837.285L400.615 1320.32M-407.168 820.629L429.464 1303.66M-378.319 803.973L458.314 1287M-349.469 787.317L487.163 1270.35M-320.62 770.66L516.013 1253.69M-291.771 754.004L544.862 1237.03M-262.921 737.348L573.712 1220.38M-234.072 720.692L602.561 1203.72M-205.222 704.035L631.41 1187.07M-176.373 687.379L660.26 1170.41M-147.524 670.723L689.109 1153.75M-118.674 654.067L717.958 1137.1M-89.8249 637.411L746.808 1120.44M-60.9755 620.754L775.657 1103.78M-32.1261 604.098L804.507 1087.13M-3.27667 587.442L833.356 1070.47M25.5728 570.786L862.205 1053.82M54.4221 554.13L891.055 1037.16M83.2715 537.473L919.904 1020.5M112.121 520.817L948.754 1003.85" stroke="#27272A"/>
<path d="M1543.05 416.355L736.523 882.005M1571.48 432.77L764.954 898.42M1599.91 449.185L793.385 914.835M1628.35 465.6L821.817 931.249M1656.78 482.015L850.248 947.664M1685.21 498.429L878.679 964.079M1713.64 514.844L907.111 980.494M1742.07 531.259L935.542 996.909M1770.5 547.674L963.973 1013.32M1798.93 564.089L992.404 1029.74M1827.36 580.504L1020.84 1046.15M1855.8 596.918L1049.27 1062.57M1884.23 613.333L1077.7 1078.98M1912.66 629.748L1106.13 1095.4M1941.09 646.163L1134.56 1111.81M1969.52 662.578L1162.99 1128.23M1997.95 678.992L1191.42 1144.64M2026.38 695.407L1219.86 1161.06M2054.82 711.822L1248.29 1177.47M2083.25 728.237L1276.72 1193.89M2111.68 744.652L1305.15 1210.3M2140.11 761.067L1333.58 1226.72M2168.54 777.481L1362.01 1243.13M2196.97 793.896L1390.44 1259.55M2225.4 810.311L1418.87 1275.96M2253.83 826.726L1447.31 1292.38M2282.27 843.141L1475.74 1308.79M2310.7 859.556L1504.17 1325.21M2339.13 875.971L1532.6 1341.62M2367.56 892.385L1561.03 1358.04M708.3 898.541L1544.93 1381.57M737.149 881.885L1573.78 1364.91M765.999 865.228L1602.63 1348.26M794.848 848.572L1631.48 1331.6M823.697 831.916L1660.33 1314.95M852.547 815.26L1689.18 1298.29M881.396 798.604L1718.03 1281.63M910.246 781.947L1746.88 1264.98M939.095 765.291L1775.73 1248.32M967.944 748.635L1804.58 1231.67M996.794 731.979L1833.43 1215.01M1025.64 715.323L1862.28 1198.35M1054.49 698.666L1891.13 1181.7M1083.34 682.01L1919.97 1165.04M1112.19 665.354L1948.82 1148.38M1141.04 648.698L1977.67 1131.73M1169.89 632.041L2006.52 1115.07M1198.74 615.385L2035.37 1098.42M1227.59 598.729L2064.22 1081.76M1256.44 582.073L2093.07 1065.1M1285.29 565.417L2121.92 1048.45M1314.14 548.76L2150.77 1031.79M1342.99 532.104L2179.62 1015.13M1371.84 515.448L2208.47 998.478M1400.69 498.792L2237.32 981.822M1429.53 482.136L2266.17 965.166M1458.38 465.479L2295.02 948.509M1487.23 448.823L2323.87 931.853M1516.08 432.167L2352.72 915.197M1544.93 415.511L2381.57 898.541" stroke="#27272A"/>
<path d="M1410.51 -393.45L603.982 72.1999M1438.94 -377.035L632.413 88.6148M1467.37 -360.62L660.844 105.03M1495.8 -344.205L689.276 121.444M1524.24 -327.791L717.707 137.859M1552.67 -311.376L746.138 154.274M1581.1 -294.961L774.57 170.689M1609.53 -278.546L803.001 187.104M1637.96 -262.131L831.432 203.519M1666.39 -245.716L859.863 219.933M1694.82 -229.302L888.295 236.348M1723.26 -212.887L916.726 252.763M1751.69 -196.472L945.157 269.178M1780.12 -180.057L973.589 285.593M1808.55 -163.642L1002.02 302.008M1836.98 -147.227L1030.45 318.422M1865.41 -130.813L1058.88 334.837M1893.84 -114.398L1087.31 351.252M1922.27 -97.9829L1115.75 367.667M1950.71 -81.5681L1144.18 384.082M1979.14 -65.1533L1172.61 400.496M2007.57 -48.7384L1201.04 416.911M2036 -32.3236L1229.47 433.326M2064.43 -15.9087L1257.9 449.741M2092.86 0.506104L1286.33 466.156M2121.29 16.921L1314.76 482.571M2149.73 33.3358L1343.2 498.986M2178.16 49.7506L1371.63 515.4M2206.59 66.1655L1400.06 531.815M2235.02 82.5803L1428.49 548.23M575.759 88.7358L1412.39 571.766M604.608 72.0797L1441.24 555.11M633.458 55.4234L1470.09 538.454M662.307 38.7672L1498.94 521.797M691.156 22.111L1527.79 505.141M720.006 5.45477L1556.64 488.485M748.855 -11.2014L1585.49 471.829M777.705 -27.8576L1614.34 455.172M806.554 -44.5139L1643.19 438.516M835.403 -61.1701L1672.04 421.86M864.253 -77.8263L1700.89 405.204M893.102 -94.4825L1729.73 388.548M921.952 -111.139L1758.58 371.891M950.801 -127.795L1787.43 355.235M979.65 -144.451L1816.28 338.579M1008.5 -161.107L1845.13 321.923M1037.35 -177.764L1873.98 305.267M1066.2 -194.42L1902.83 288.61M1095.05 -211.076L1931.68 271.954M1123.9 -227.732L1960.53 255.298M1152.75 -244.388L1989.38 238.642M1181.6 -261.045L2018.23 221.986M1210.45 -277.701L2047.08 205.329M1239.29 -294.357L2075.93 188.673M1268.14 -311.013L2104.78 172.017M1296.99 -327.669L2133.63 155.361M1325.84 -344.326L2162.48 138.704M1354.69 -360.982L2191.33 122.048M1383.54 -377.638L2220.17 105.392M1412.39 -394.294L2249.02 88.7358" stroke="#27272A"/>
<path d="M95.3007 -553.27L-711.228 -87.6198M123.732 -536.855L-682.797 -71.205M152.163 -520.44L-654.366 -54.7902M180.595 -504.025L-625.934 -38.3754M209.026 -487.61L-597.503 -21.9605M237.457 -471.195L-569.072 -5.54572M265.889 -454.781L-540.64 10.8691M294.32 -438.366L-512.209 27.2839M322.751 -421.951L-483.778 43.6988M351.182 -405.536L-455.346 60.1136M379.614 -389.121L-426.915 76.5284M408.045 -372.706L-398.484 92.9432M436.476 -356.292L-370.053 109.358M464.908 -339.877L-341.621 125.773M493.339 -323.462L-313.19 142.188M521.771 -307.047L-284.759 158.603M550.202 -290.632L-256.327 175.017M578.633 -274.217L-227.896 191.432M607.064 -257.803L-199.465 207.847M635.496 -241.388L-171.033 224.262M663.927 -224.973L-142.602 240.677M692.358 -208.558L-114.171 257.092M720.79 -192.143L-85.7393 273.506M749.221 -175.728L-57.308 289.921M777.652 -159.314L-28.8766 306.336M806.084 -142.899L-0.445312 322.751M834.515 -126.484L27.986 339.166M862.946 -110.069L56.4174 355.581M891.378 -93.6543L84.8487 371.995M919.809 -77.2395L113.28 388.41M-739.451 -71.084L97.1815 411.946M-710.602 -87.7401L126.031 395.29M-681.752 -104.396L154.88 378.634M-652.903 -121.053L183.73 361.978M-624.054 -137.709L212.579 345.321M-595.204 -154.365L241.429 328.665M-566.355 -171.021L270.278 312.009M-537.505 -187.677L299.127 295.353M-508.656 -204.334L327.977 278.697M-479.807 -220.99L356.826 262.04M-450.957 -237.646L385.676 245.384M-422.108 -254.302L414.525 228.728M-393.258 -270.958L443.375 212.072M-364.409 -287.615L472.224 195.415M-335.56 -304.271L501.073 178.759M-306.71 -320.927L529.923 162.103M-277.861 -337.583L558.772 145.447M-249.011 -354.24L587.621 128.791M-220.162 -370.896L616.471 112.134M-191.313 -387.552L645.32 95.4782M-162.463 -404.208L674.17 78.822M-133.614 -420.864L703.019 62.1658M-104.764 -437.521L731.868 45.5096M-75.915 -454.177L760.718 28.8533M-47.0656 -470.833L789.567 12.1971M-18.2161 -487.489L818.417 -4.45911M10.6333 -504.145L847.266 -21.1154M39.4827 -520.802L876.115 -37.7715M68.3321 -537.458L904.965 -54.4278M97.1815 -554.114L933.814 -71.084" stroke="#27272A"/>
</svg>
