<svg width="640" height="480" viewBox="0 0 640 480" fill="none" xmlns="http://www.w3.org/2000/svg">
<rect width="640" height="480" fill="#F4F4F5"/>
<path d="M318.285 364.574L318.285 478.615" stroke="#D97706" stroke-dasharray="4 4"/>
<path d="M226.331 174.532L194.359 204.414C190.313 208.196 188.016 213.487 188.016 219.025V271.387" stroke="#D97706" stroke-dasharray="4 4"/>
<path d="M417.917 174.532L449.889 204.414C453.936 208.196 456.232 213.487 456.232 219.025V271.387" stroke="#D97706" stroke-dasharray="4 4"/>
<path d="M238.892 322.599L294.267 374.355C298.314 378.137 300.611 383.428 300.611 388.967V478.615" stroke="#D97706" stroke-dasharray="4 4"/>
<path d="M401.656 322.599L346.281 374.355C342.235 378.137 339.938 383.428 339.938 388.967V478.615" stroke="#D97706" stroke-dasharray="4 4"/>
<path d="M304.529 146.852L247.653 203.728C244.957 206.423 240.593 206.423 237.908 203.728L180.823 146.642C178.127 143.946 178.127 139.583 180.823 136.897L237.698 80.0218C240.394 77.326 244.758 77.326 247.443 80.0218L304.529 137.107C307.224 139.792 307.224 144.156 304.529 146.852Z" fill="#EFF6FF" stroke="#2563EB"/>
<path fill-rule="evenodd" clip-rule="evenodd" d="M252.941 124.213C247.824 124.213 243.676 128.361 243.676 133.478C243.676 138.595 247.824 142.744 252.941 142.744C258.058 142.744 262.206 138.595 262.206 133.478C262.206 128.361 258.058 124.213 252.941 124.213ZM241.676 133.478C241.676 127.257 246.72 122.213 252.941 122.213C259.163 122.213 264.206 127.257 264.206 133.478C264.206 139.7 259.163 144.744 252.941 144.744C246.72 144.744 241.676 139.7 241.676 133.478ZM252.941 126.49C253.493 126.49 253.941 126.938 253.941 127.49V128.201H255.508C256.06 128.201 256.508 128.649 256.508 129.201C256.508 129.754 256.06 130.201 255.508 130.201H251.658C251.356 130.201 251.067 130.321 250.853 130.535C250.64 130.748 250.52 131.038 250.52 131.34C250.52 131.642 250.64 131.931 250.853 132.145C251.067 132.359 251.356 132.478 251.658 132.478H254.224C255.057 132.478 255.855 132.809 256.444 133.398C257.032 133.986 257.363 134.785 257.363 135.617C257.363 136.449 257.032 137.248 256.444 137.836C255.855 138.425 255.057 138.756 254.224 138.756H253.941V139.466C253.941 140.018 253.493 140.466 252.941 140.466C252.389 140.466 251.941 140.018 251.941 139.466V138.756H250.375C249.823 138.756 249.375 138.308 249.375 137.756C249.375 137.203 249.823 136.756 250.375 136.756H252.922L252.941 136.755L252.96 136.756H254.224C254.526 136.756 254.816 136.636 255.029 136.422C255.243 136.209 255.363 135.919 255.363 135.617C255.363 135.315 255.243 135.025 255.029 134.812C254.816 134.598 254.526 134.478 254.224 134.478H251.658C250.826 134.478 250.027 134.148 249.439 133.559C248.85 132.971 248.52 132.172 248.52 131.34C248.52 130.508 248.85 129.709 249.439 129.121C250.027 128.532 250.826 128.201 251.658 128.201H251.941V127.49C251.941 126.938 252.389 126.49 252.941 126.49ZM262.206 159.536V143.332C262.959 142.624 263.631 141.83 264.206 140.967V160.536C264.206 161.088 263.759 161.536 263.206 161.536H222.147C221.594 161.536 221.147 161.088 221.147 160.536V140.219C221.146 140.204 221.146 140.189 221.146 140.174C221.146 140.159 221.146 140.144 221.147 140.129V132.11C221.147 131.558 221.594 131.11 222.147 131.11H239.622C239.507 131.762 239.439 132.429 239.421 133.11H223.147V139.174H240.67C240.996 139.876 241.38 140.544 241.817 141.174H223.147V159.536H262.206ZM250.571 153.22C250.019 153.22 249.571 153.667 249.571 154.22C249.571 154.772 250.019 155.22 250.571 155.22H256.888C257.441 155.22 257.888 154.772 257.888 154.22C257.888 153.667 257.441 153.22 256.888 153.22H250.571ZM240.096 154.22C240.096 153.667 240.544 153.22 241.096 153.22H244.253C244.806 153.22 245.253 153.667 245.253 154.22C245.253 154.772 244.806 155.22 244.253 155.22H241.096C240.544 155.22 240.096 154.772 240.096 154.22Z" fill="#2563EB"/>
<path fill-rule="evenodd" clip-rule="evenodd" d="M243.677 133.472C243.677 128.355 247.825 124.206 252.942 124.206C258.059 124.206 262.207 128.355 262.207 133.472C262.207 138.588 258.059 142.737 252.942 142.737C247.825 142.737 243.677 138.588 243.677 133.472ZM252.942 122.206C246.72 122.206 241.677 127.25 241.677 133.472C241.677 139.693 246.72 144.737 252.942 144.737C259.163 144.737 264.207 139.693 264.207 133.472C264.207 127.25 259.163 122.206 252.942 122.206ZM253.941 127.483C253.941 126.931 253.494 126.483 252.941 126.483C252.389 126.483 251.941 126.931 251.941 127.483V128.194H251.658C250.826 128.194 250.028 128.525 249.439 129.114C248.851 129.702 248.52 130.5 248.52 131.333C248.52 132.165 248.851 132.964 249.439 133.552C250.028 134.141 250.826 134.471 251.658 134.471H254.225C254.527 134.471 254.816 134.591 255.03 134.805C255.243 135.018 255.363 135.308 255.363 135.61C255.363 135.912 255.243 136.202 255.03 136.415C254.816 136.629 254.527 136.749 254.225 136.749H252.959C252.953 136.748 252.947 136.748 252.941 136.748C252.935 136.748 252.93 136.748 252.924 136.749H250.375C249.823 136.749 249.375 137.196 249.375 137.749C249.375 138.301 249.823 138.749 250.375 138.749H251.941V139.46C251.941 140.012 252.389 140.46 252.941 140.46C253.494 140.46 253.941 140.012 253.941 139.46V138.749H254.225C255.057 138.749 255.855 138.418 256.444 137.829C257.033 137.241 257.363 136.442 257.363 135.61C257.363 134.778 257.033 133.979 256.444 133.391C255.855 132.802 255.057 132.471 254.225 132.471H251.658C251.357 132.471 251.067 132.351 250.853 132.138C250.64 131.924 250.52 131.635 250.52 131.333C250.52 131.031 250.64 130.741 250.853 130.528C251.067 130.314 251.357 130.194 251.658 130.194H252.908C252.919 130.195 252.93 130.195 252.941 130.195C252.953 130.195 252.964 130.195 252.975 130.194H255.508C256.06 130.194 256.508 129.747 256.508 129.194C256.508 128.642 256.06 128.194 255.508 128.194H253.941V127.483Z" fill="#2563EB"/>
<path d="M336.447 149.443L393.326 206.318C396.022 209.014 400.386 209.014 403.071 206.318L460.16 149.233C462.856 146.537 462.856 142.173 460.16 139.488L403.281 82.6124C400.585 79.9166 396.221 79.9166 393.535 82.6124L336.447 139.698C333.761 142.383 333.761 146.747 336.447 149.443Z" fill="#EFF6FF" stroke="#2563EB"/>
<path fill-rule="evenodd" clip-rule="evenodd" d="M405.566 126.258C405.842 125.78 406.454 125.616 406.932 125.892L413.478 129.671C413.707 129.804 413.875 130.022 413.943 130.278C414.012 130.534 413.976 130.807 413.844 131.037L411.935 134.343C413.302 135.877 414.363 137.69 415.023 139.687H418.838C419.39 139.687 419.838 140.134 419.838 140.687V148.244C419.838 148.797 419.39 149.244 418.838 149.244H415.023C414.363 151.241 413.301 153.054 411.934 154.587L413.843 157.894C413.976 158.124 414.012 158.396 413.943 158.653C413.875 158.909 413.707 159.127 413.477 159.26L406.932 163.039C406.703 163.171 406.43 163.207 406.173 163.139C405.917 163.07 405.699 162.902 405.566 162.673L403.658 159.368C402.661 159.574 401.629 159.682 400.573 159.682C399.516 159.682 398.484 159.574 397.486 159.368L395.579 162.673C395.446 162.902 395.228 163.07 394.971 163.139C394.715 163.207 394.442 163.171 394.213 163.039L387.667 159.26C387.189 158.984 387.025 158.372 387.301 157.894L389.211 154.587C388 153.229 387.028 151.651 386.364 149.921H388.531C389.178 151.348 390.073 152.64 391.16 153.743C391.475 154.063 391.538 154.555 391.313 154.945L389.533 158.028L394.347 160.807L396.125 157.727C396.35 157.337 396.807 157.146 397.242 157.259C398.305 157.535 399.421 157.682 400.573 157.682C401.724 157.682 402.84 157.535 403.903 157.259C404.338 157.146 404.795 157.337 405.02 157.727L406.798 160.807L411.611 158.028L409.831 154.945C409.607 154.555 409.669 154.063 409.985 153.743C411.547 152.159 412.711 150.183 413.317 147.979C413.437 147.545 413.831 147.244 414.281 147.244H417.838V141.687H414.282C413.831 141.687 413.437 141.386 413.317 140.952C412.711 138.747 411.547 136.772 409.986 135.187C409.67 134.867 409.607 134.375 409.832 133.985L411.611 130.903L406.798 128.124L405.02 131.203C404.796 131.593 404.338 131.784 403.903 131.671C402.84 131.395 401.724 131.248 400.573 131.248C399.421 131.248 398.305 131.396 397.242 131.671C396.806 131.784 396.349 131.593 396.124 131.204L394.346 128.124L389.533 130.903L391.313 133.986C391.538 134.375 391.475 134.867 391.159 135.188C390.095 136.268 389.215 137.53 388.571 138.922H386.397C387.061 137.226 388.02 135.679 389.21 134.343L387.301 131.037C387.169 130.807 387.133 130.534 387.201 130.278C387.27 130.022 387.438 129.804 387.667 129.671L394.212 125.892C394.691 125.616 395.302 125.78 395.579 126.258L397.486 129.562C398.483 129.356 399.516 129.248 400.573 129.248C401.629 129.248 402.661 129.356 403.659 129.562L405.566 126.258ZM400.426 137.928C402.628 137.928 404.577 139.017 405.762 140.688H402.209C400.123 140.688 398.432 142.379 398.432 144.465C398.432 146.551 400.123 148.242 402.209 148.242H405.762C404.577 149.913 402.628 151.002 400.426 151.002C397.879 151.002 395.671 149.547 394.591 147.417C394.587 147.407 394.582 147.398 394.577 147.388L394.564 147.363C394.343 146.917 393.833 146.708 393.372 146.852H381.164C379.846 146.852 378.777 145.783 378.777 144.465C378.777 143.147 379.846 142.079 381.164 142.079L393.69 142.079C394.096 142.079 394.445 141.837 394.602 141.49C394.609 141.478 394.616 141.466 394.622 141.454C395.713 139.357 397.903 137.928 400.426 137.928ZM407.8 142.607C407.679 142.656 407.554 142.679 407.43 142.679L407.43 142.688H402.209C401.228 142.688 400.432 143.484 400.432 144.465C400.432 145.447 401.228 146.242 402.209 146.242H407.43L407.43 146.252C407.554 146.252 407.679 146.275 407.8 146.323C408.314 146.528 408.564 147.109 408.36 147.622C407.105 150.773 404.027 153.002 400.426 153.002C397.313 153.002 394.592 151.337 393.101 148.852H381.164C378.741 148.852 376.777 146.888 376.777 144.465C376.777 142.043 378.741 140.079 381.164 140.079L393.101 140.079C394.592 137.594 397.313 135.928 400.426 135.928C404.027 135.928 407.105 138.158 408.36 141.308C408.564 141.822 408.314 142.403 407.8 142.607Z" fill="#2563EB"/>
<path d="M258.05 477.282V480H377.82V477.23L258.05 477.282Z" fill="#E4E4E7"/>
<path d="M266.245 302.021L212.389 355.877C209.836 358.429 205.704 358.429 203.161 355.877L149.107 301.822C146.554 299.269 146.554 295.137 149.107 292.595L202.963 238.739C205.516 236.186 209.648 236.186 212.19 238.739L266.245 292.793C268.798 295.336 268.798 299.468 266.245 302.021Z" fill="#EFF6FF" stroke="#2563EB"/>
<path d="M203.9 301.084L185.776 290.511L212.962 275.408L229.576 285.98L203.9 301.084Z" stroke="#2563EB" stroke-width="2" stroke-linejoin="round"/>
<path d="M203.9 319.208V301.083L229.576 285.98V304.104L203.9 319.208Z" stroke="#2563EB" stroke-width="2" stroke-linejoin="round"/>
<path d="M185.776 308.635V290.511L203.9 301.084V319.208L185.776 308.635Z" stroke="#2563EB" stroke-width="2" stroke-linejoin="round"/>
<path d="M212.962 296.666L212.962 313.166" stroke="#2563EB" stroke-width="2" stroke-linecap="round" stroke-linejoin="round"/>
<path d="M222.024 291.194L222.024 307.981" stroke="#2563EB" stroke-width="2" stroke-linecap="round" stroke-linejoin="round"/>
<path d="M369.93 305.676L426.809 362.552C429.505 365.248 433.869 365.248 436.555 362.552L493.644 305.467C496.34 302.771 496.34 298.407 493.644 295.722L436.765 238.846C434.069 236.15 429.705 236.15 427.019 238.846L369.93 295.931C367.245 298.617 367.245 302.981 369.93 305.676Z" fill="#EFF6FF" stroke="#2563EB"/>
<path d="M431.791 300.699C442.878 300.699 451.866 295.797 451.866 289.749C451.866 283.702 442.878 278.799 431.791 278.799C420.704 278.799 411.716 283.702 411.716 289.749C411.716 295.797 420.704 300.699 431.791 300.699Z" stroke="#2563EB" stroke-width="2" stroke-linecap="round" stroke-linejoin="round"/>
<path d="M411.716 289.749V300.699C411.716 306.746 420.704 311.649 431.791 311.649C442.878 311.649 451.866 306.746 451.866 300.699V289.749" stroke="#2563EB" stroke-width="2" stroke-linecap="round" stroke-linejoin="round"/>
<path d="M411.716 300.699V311.649C411.716 317.696 420.704 322.599 431.791 322.599C442.878 322.599 451.866 317.696 451.866 311.649V300.699" stroke="#2563EB" stroke-width="2" stroke-linecap="round" stroke-linejoin="round"/>
<path d="M256.187 371.802L313.062 428.677C315.758 431.373 320.122 431.373 322.807 428.677L379.892 371.592C382.588 368.896 382.588 364.532 379.892 361.847L323.017 304.971C320.321 302.275 315.957 302.275 313.272 304.971L256.187 362.057C253.491 364.752 253.491 369.116 256.187 371.802Z" fill="white" stroke="#D97706"/>
<path d="M318.038 388.724C330.133 388.724 339.938 378.919 339.938 366.824C339.938 354.729 330.133 344.924 318.038 344.924C305.943 344.924 296.138 354.729 296.138 366.824C296.138 378.919 305.943 388.724 318.038 388.724Z" stroke="#111827" stroke-width="2" stroke-miterlimit="10"/>
<path d="M296.138 366.824H339.938" stroke="#111827" stroke-width="2" stroke-linecap="round" stroke-linejoin="round"/>
<path d="M318.038 388.136C323.077 388.136 327.163 378.594 327.163 366.824C327.163 355.054 323.077 345.512 318.038 345.512C312.998 345.512 308.913 355.054 308.913 366.824C308.913 378.594 312.998 388.136 318.038 388.136Z" stroke="#111827" stroke-width="2" stroke-miterlimit="10"/>
</svg>
