<svg width="546" height="415" viewBox="0 0 546 415" fill="none" xmlns="http://www.w3.org/2000/svg">
<path d="M272.474 222.633L272.474 412.978" stroke="#D97706" stroke-dasharray="4 4"/>
<path d="M87.3062 144.528L108.299 157.439C114.217 161.079 117.822 167.528 117.822 174.475V214.4" stroke="#D97706" stroke-dasharray="4 4"/>
<path d="M462.633 144.528L441.64 157.439C435.722 161.079 432.117 167.528 432.117 174.475V214.4" stroke="#D97706" stroke-dasharray="4 4"/>
<path d="M176.459 100.27L143.401 131.168C139.354 134.95 137.057 140.241 137.057 145.779V199.872" stroke="#D97706" stroke-dasharray="4 4"/>
<path d="M373.479 100.27L406.538 131.168C410.584 134.95 412.881 140.241 412.881 145.779V199.872" stroke="#D97706" stroke-dasharray="4 4"/>
<path d="M189.377 252.537L250.197 305.883C254.526 309.681 257.008 315.16 257.008 320.919V412.978" stroke="#D97706" stroke-dasharray="4 4"/>
<path d="M356.757 252.537L295.77 305.882C291.428 309.679 288.937 315.167 288.937 320.936V412.978" stroke="#D97706" stroke-dasharray="4 4"/>
<path d="M256.875 71.805L198.386 130.294C195.614 133.066 191.126 133.066 188.365 130.294L129.66 71.5893C126.888 68.8169 126.888 64.3294 129.66 61.5679L188.149 3.07925C190.921 0.306917 195.409 0.306917 198.17 3.07925L256.875 61.7836C259.647 64.5452 259.647 69.0327 256.875 71.805Z" fill="#EFF6FF" stroke="#2563EB"/>
<path fill-rule="evenodd" clip-rule="evenodd" d="M203.824 48.4956C198.547 48.4956 194.268 52.7741 194.268 58.0518C194.268 63.3296 198.547 67.6081 203.824 67.6081C209.102 67.6081 213.381 63.3296 213.381 58.0518C213.381 52.7741 209.102 48.4956 203.824 48.4956ZM192.268 58.0518C192.268 51.6695 197.442 46.4956 203.824 46.4956C210.207 46.4956 215.381 51.6695 215.381 58.0518C215.381 64.4342 210.207 69.6081 203.824 69.6081C197.442 69.6081 192.268 64.4342 192.268 58.0518ZM203.824 50.8939C204.377 50.8939 204.824 51.3416 204.824 51.8939V52.6535H206.463C207.016 52.6535 207.463 53.1012 207.463 53.6535C207.463 54.2058 207.016 54.6535 206.463 54.6535H202.505C202.187 54.6535 201.882 54.7798 201.657 55.0047C201.432 55.2296 201.306 55.5346 201.306 55.8527C201.306 56.1707 201.432 56.4758 201.657 56.7007C201.882 56.9256 202.187 57.0519 202.505 57.0519H205.144C205.992 57.0519 206.806 57.389 207.406 57.9889C208.006 58.5889 208.343 59.4026 208.343 60.2511C208.343 61.0996 208.006 61.9133 207.406 62.5133C206.806 63.1133 205.992 63.4503 205.144 63.4503H204.824V64.2088C204.824 64.7611 204.377 65.2088 203.824 65.2088C203.272 65.2088 202.824 64.7611 202.824 64.2088V63.4503H201.185C200.633 63.4503 200.185 63.0026 200.185 62.4503C200.185 61.8981 200.633 61.4503 201.185 61.4503H203.805L203.824 61.4502L203.844 61.4503H205.144C205.462 61.4503 205.767 61.324 205.992 61.0991C206.217 60.8742 206.343 60.5692 206.343 60.2511C206.343 59.9331 206.217 59.628 205.992 59.4032C205.767 59.1783 205.462 59.0519 205.144 59.0519H202.505C201.656 59.0519 200.843 58.7148 200.243 58.1149C199.643 57.5149 199.306 56.7012 199.306 55.8527C199.306 55.0042 199.643 54.1905 200.243 53.5905C200.843 52.9905 201.656 52.6535 202.505 52.6535H202.824V51.8939C202.824 51.3416 203.272 50.8939 203.824 50.8939ZM213.381 84.8767V68.1584C214.131 67.4484 214.803 66.6557 215.381 65.7949V85.8767C215.381 86.429 214.933 86.8767 214.381 86.8767H172.156C171.604 86.8767 171.156 86.429 171.156 85.8767V64.9833C171.156 64.9681 171.155 64.9529 171.155 64.9375C171.155 64.9221 171.156 64.9069 171.156 64.8917V56.6444C171.156 56.0922 171.604 55.6444 172.156 55.6444H190.123C190.009 56.2966 189.941 56.9644 189.921 57.6444H173.156V63.9375H191.218C191.546 64.6379 191.93 65.3066 192.365 65.9375H173.156V84.8767H213.381ZM201.387 78.3815C200.835 78.3815 200.387 78.8292 200.387 79.3815C200.387 79.9338 200.835 80.3815 201.387 80.3815H207.883C208.436 80.3815 208.883 79.9338 208.883 79.3815C208.883 78.8292 208.436 78.3815 207.883 78.3815H201.387ZM190.643 79.3815C190.643 78.8292 191.091 78.3815 191.643 78.3815H194.89C195.442 78.3815 195.89 78.8292 195.89 79.3815C195.89 79.9338 195.442 80.3815 194.89 80.3815H191.643C191.091 80.3815 190.643 79.9338 190.643 79.3815Z" fill="#2563EB"/>
<path fill-rule="evenodd" clip-rule="evenodd" d="M194.269 58.045C194.269 52.7672 198.547 48.4888 203.825 48.4888C209.103 48.4888 213.381 52.7672 213.381 58.045C213.381 63.3228 209.103 67.6013 203.825 67.6013C198.547 67.6013 194.269 63.3228 194.269 58.045ZM203.825 46.4888C197.442 46.4888 192.269 51.6627 192.269 58.045C192.269 64.4273 197.442 69.6013 203.825 69.6013C210.207 69.6013 215.381 64.4273 215.381 58.045C215.381 51.6627 210.207 46.4888 203.825 46.4888ZM204.824 51.8867C204.824 51.3344 204.377 50.8867 203.824 50.8867C203.272 50.8867 202.824 51.3344 202.824 51.8867V52.6464H202.505C201.657 52.6464 200.843 52.9835 200.243 53.5834C199.643 54.1834 199.306 54.9971 199.306 55.8456C199.306 56.6941 199.643 57.5078 200.243 58.1078C200.843 58.7078 201.657 59.0448 202.505 59.0448H205.144C205.462 59.0448 205.767 59.1712 205.992 59.3961C206.217 59.621 206.344 59.926 206.344 60.244C206.344 60.5621 206.217 60.8671 205.992 61.092C205.767 61.3169 205.462 61.4433 205.144 61.4433H203.835C203.831 61.4432 203.828 61.4432 203.824 61.4432C203.821 61.4432 203.818 61.4432 203.814 61.4433H201.186C200.633 61.4433 200.186 61.891 200.186 62.4433C200.186 62.9956 200.633 63.4433 201.186 63.4433H202.824V64.2035C202.824 64.7558 203.272 65.2035 203.824 65.2035C204.377 65.2035 204.824 64.7558 204.824 64.2035V63.4433H205.144C205.993 63.4433 206.807 63.1062 207.407 62.5062C208.006 61.9063 208.344 61.0925 208.344 60.244C208.344 59.3956 208.006 58.5818 207.407 57.9819C206.807 57.3819 205.993 57.0448 205.144 57.0448H202.505C202.187 57.0448 201.882 56.9185 201.657 56.6936C201.432 56.4687 201.306 56.1637 201.306 55.8456C201.306 55.5276 201.432 55.2225 201.657 54.9976C201.882 54.7727 202.187 54.6464 202.505 54.6464H203.789C203.801 54.6468 203.813 54.647 203.824 54.647C203.836 54.647 203.848 54.6468 203.859 54.6464H206.464C207.016 54.6464 207.464 54.1987 207.464 53.6464C207.464 53.0941 207.016 52.6464 206.464 52.6464H204.824V51.8867Z" fill="#2563EB"/>
<path d="M289.698 74.4691L348.19 132.958C350.963 135.73 355.451 135.73 358.212 132.958L416.92 74.2533C419.693 71.481 419.693 66.9935 416.92 64.2319L358.428 5.74331C355.656 2.97098 351.168 2.97098 348.406 5.74331L289.698 64.4477C286.937 67.2092 286.937 71.6967 289.698 74.4691Z" fill="#EFF6FF" stroke="#2563EB"/>
<path fill-rule="evenodd" clip-rule="evenodd" d="M360.803 50.641C361.079 50.1627 361.69 49.9989 362.169 50.275L368.9 54.1611C369.378 54.4372 369.542 55.0488 369.266 55.5271L367.292 58.9449C368.707 60.5272 369.804 62.4004 370.483 64.4646H374.426C374.978 64.4646 375.426 64.9123 375.426 65.4646V73.2367C375.426 73.789 374.978 74.2367 374.426 74.2367H370.483C369.804 76.3007 368.706 78.1737 367.292 79.7559L369.266 83.1741C369.398 83.4038 369.434 83.6768 369.365 83.9329C369.297 84.1891 369.129 84.4075 368.9 84.5401L362.169 88.4262C361.69 88.7023 361.079 88.5385 360.803 88.0602L358.83 84.6444C357.801 84.858 356.734 84.9701 355.643 84.9701C354.551 84.9701 353.485 84.858 352.455 84.6443L350.483 88.0602C350.206 88.5385 349.595 88.7023 349.117 88.4262L342.386 84.5401C341.907 84.264 341.744 83.6524 342.02 83.1741L343.993 79.7557C342.746 78.3607 341.746 76.7396 341.061 74.9608H343.228C343.896 76.436 344.82 77.7716 345.943 78.911C346.258 79.2314 346.321 79.7233 346.096 80.113L344.252 83.3081L349.251 86.1941L351.093 83.0022C351.318 82.6127 351.775 82.4213 352.211 82.5342C353.306 82.8185 354.456 82.9701 355.643 82.9701C356.829 82.9701 357.979 82.8186 359.075 82.5343C359.51 82.4214 359.967 82.6128 360.192 83.0022L362.035 86.1942L367.033 83.3081L365.189 80.1132C364.964 79.7235 365.027 79.2316 365.343 78.9111C366.952 77.2786 368.151 75.2431 368.776 72.9715C368.896 72.5375 369.29 72.2367 369.74 72.2367H373.426V66.4646H369.741C369.29 66.4646 368.896 66.1638 368.776 65.7297C368.152 63.4579 366.952 61.4224 365.343 59.7896C365.027 59.4692 364.964 58.9773 365.189 58.5876L367.034 55.3931L362.035 52.5071L360.192 55.6984C359.967 56.0878 359.51 56.2793 359.075 56.1663C357.98 55.882 356.83 55.7304 355.643 55.7304C354.456 55.7304 353.306 55.882 352.21 56.1663C351.775 56.2793 351.318 56.0879 351.093 55.6984L349.251 52.5071L344.252 55.3931L346.096 58.5878C346.321 58.9775 346.258 59.4694 345.942 59.7898C344.842 60.906 343.934 62.2104 343.269 63.6498H341.096C341.78 61.9065 342.767 60.3165 343.993 58.9451L342.02 55.5271C341.887 55.2974 341.851 55.0245 341.92 54.7683C341.988 54.5121 342.156 54.2937 342.386 54.1611L349.117 50.275C349.595 49.9989 350.206 50.1627 350.483 50.641L352.454 54.0563C353.484 53.8426 354.551 53.7304 355.643 53.7304C356.734 53.7304 357.801 53.8425 358.831 54.0562L360.803 50.641ZM355.492 62.5999C357.785 62.5999 359.813 63.744 361.034 65.4946H357.326C355.197 65.4946 353.47 67.2209 353.47 69.3504C353.47 71.4799 355.197 73.2062 357.326 73.2062H361.034C359.814 74.9571 357.786 76.1014 355.492 76.1014C352.862 76.1014 350.581 74.5976 349.466 72.3985C349.462 72.3887 349.457 72.3791 349.452 72.3695L349.439 72.3433C349.217 71.8955 348.704 71.6872 348.242 71.8333L335.684 71.8333C334.313 71.8333 333.201 70.7217 333.201 69.3505C333.201 67.9793 334.313 66.8677 335.684 66.8677H348.566C348.972 66.8677 349.321 66.6257 349.478 66.278C349.485 66.2657 349.492 66.2532 349.498 66.2405C350.624 64.0752 352.887 62.5999 355.492 62.5999ZM363.065 67.4137C362.944 67.462 362.818 67.4849 362.695 67.4849L362.695 67.4946H357.326C356.301 67.4946 355.47 68.3255 355.47 69.3504C355.47 70.3754 356.301 71.2062 357.326 71.2062H362.695V71.2164C362.818 71.2163 362.944 71.2392 363.065 71.2876C363.578 71.4919 363.829 72.0735 363.624 72.5866C362.338 75.816 359.183 78.1014 355.492 78.1014C352.296 78.1014 349.502 76.388 347.975 73.8333H335.684C333.208 73.8333 331.201 71.8263 331.201 69.3505C331.201 66.8747 333.208 64.8677 335.684 64.8677H347.975C349.502 62.3133 352.296 60.5999 355.492 60.5999C359.183 60.5999 362.338 62.8853 363.624 66.1147C363.829 66.6278 363.578 67.2093 363.065 67.4137Z" fill="#2563EB"/>
<path d="M3.07925 120.445L61.5679 178.934C64.3402 181.706 68.8277 181.706 71.5893 178.934L130.294 120.229C133.066 117.457 133.066 112.97 130.294 110.208L71.805 51.7194C69.0327 48.9471 64.5452 48.9471 61.7836 51.7194L3.07925 110.424C0.306917 113.196 0.306917 117.684 3.07925 120.445Z" fill="#EFF6FF" stroke="#2563EB"/>
<path d="M66.6863 115.326C78.0878 115.326 87.3306 110.285 87.3306 104.066C87.3306 97.8469 78.0878 92.8054 66.6863 92.8054C55.2848 92.8054 46.042 97.8469 46.042 104.066C46.042 110.285 55.2848 115.326 66.6863 115.326Z" stroke="#2563EB" stroke-width="2" stroke-linecap="round" stroke-linejoin="round"/>
<path d="M46.042 104.066V115.326C46.042 121.545 55.2848 126.587 66.6863 126.587C78.0878 126.587 87.3306 121.545 87.3306 115.326V104.066" stroke="#2563EB" stroke-width="2" stroke-linecap="round" stroke-linejoin="round"/>
<path d="M46.042 115.326V126.587C46.042 132.806 55.2848 137.847 66.6863 137.847C78.0878 137.847 87.3306 132.806 87.3306 126.587V115.326" stroke="#2563EB" stroke-width="2" stroke-linecap="round" stroke-linejoin="round"/>
<path d="M415.706 120.444L474.195 178.933C476.967 181.705 481.455 181.705 484.216 178.933L542.921 120.229C545.693 117.456 545.693 112.969 542.921 110.207L484.432 51.7187C481.66 48.9463 477.172 48.9463 474.411 51.7187L415.706 110.423C412.934 113.195 412.934 117.683 415.706 120.444Z" fill="#EFF6FF" stroke="#2563EB"/>
<path d="M479.314 115.326C490.715 115.326 499.958 110.284 499.958 104.065C499.958 97.8464 490.715 92.8049 479.314 92.8049C467.912 92.8049 458.669 97.8464 458.669 104.065C458.669 110.284 467.912 115.326 479.314 115.326Z" stroke="#2563EB" stroke-width="2" stroke-linecap="round" stroke-linejoin="round"/>
<path d="M458.669 104.065V115.326C458.669 121.545 467.912 126.586 479.314 126.586C490.715 126.586 499.958 121.545 499.958 115.326V104.065" stroke="#2563EB" stroke-width="2" stroke-linecap="round" stroke-linejoin="round"/>
<path d="M458.669 115.326V126.586C458.669 132.805 467.912 137.847 479.314 137.847C490.715 137.847 499.958 132.805 499.958 126.586V115.326" stroke="#2563EB" stroke-width="2" stroke-linecap="round" stroke-linejoin="round"/>
<path d="M209.078 411.607V414.402H332.245V411.554L209.078 411.607Z" fill="#E4E4E7"/>
<path d="M224.367 235.132L165.88 293.62C163.107 296.392 158.62 296.392 155.858 293.62L97.1554 234.917C94.3831 232.144 94.3831 227.657 97.1554 224.895L155.643 166.408C158.415 163.636 162.902 163.636 165.664 166.408L224.367 225.111C227.139 227.873 227.139 232.36 224.367 235.132Z" fill="#EFF6FF" stroke="#2563EB"/>
<path d="M156.661 234.115L136.978 222.633L166.502 206.231L184.545 217.713L156.661 234.115Z" stroke="#2563EB" stroke-width="2" stroke-linejoin="round"/>
<path d="M156.661 253.797V234.114L184.545 217.712V237.395L156.661 253.797Z" stroke="#2563EB" stroke-width="2" stroke-linejoin="round"/>
<path d="M136.978 242.316V222.633L156.661 234.115V253.797L136.978 242.316Z" stroke="#2563EB" stroke-width="2" stroke-linejoin="round"/>
<path d="M166.502 229.317L166.502 247.237" stroke="#2563EB" stroke-width="2" stroke-linecap="round" stroke-linejoin="round"/>
<path d="M176.343 223.375L176.343 241.606" stroke="#2563EB" stroke-width="2" stroke-linecap="round" stroke-linejoin="round"/>
<path d="M324.132 235.134L382.624 293.622C385.397 296.395 389.884 296.395 392.646 293.622L451.354 234.918C454.127 232.146 454.127 227.658 451.354 224.897L392.862 166.408C390.089 163.636 385.602 163.636 382.84 166.408L324.132 225.112C321.37 227.874 321.37 232.362 324.132 235.134Z" fill="#EFF6FF" stroke="#2563EB"/>
<path d="M383.864 233.898L365.226 223.026L393.183 207.494L410.268 218.367L383.864 233.898Z" stroke="#2563EB" stroke-width="2" stroke-linejoin="round"/>
<path d="M383.864 252.536V233.898L410.268 218.367V237.005L383.864 252.536Z" stroke="#2563EB" stroke-width="2" stroke-linejoin="round"/>
<path d="M365.226 241.664V223.026L383.864 233.898V252.536L365.226 241.664Z" stroke="#2563EB" stroke-width="2" stroke-linejoin="round"/>
<path d="M393.184 229.356L393.184 246.324" stroke="#2563EB" stroke-width="2" stroke-linecap="round" stroke-linejoin="round"/>
<path d="M402.502 223.729L402.502 240.992" stroke="#2563EB" stroke-width="2" stroke-linecap="round" stroke-linejoin="round"/>
<path d="M208.615 173.135L267.104 231.623C269.876 234.396 274.363 234.396 277.125 231.623L335.829 172.919C338.602 170.147 338.602 165.659 335.829 162.897L277.341 104.409C274.568 101.637 270.081 101.637 267.319 104.409L208.615 163.113C205.843 165.886 205.843 170.373 208.615 173.135Z" fill="white" stroke="#D97706"/>
<path fill-rule="evenodd" clip-rule="evenodd" d="M264.94 155.034C264.94 151.095 268.133 147.902 272.072 147.902C276.011 147.902 279.204 151.095 279.204 155.034C279.204 158.972 276.011 162.166 272.072 162.166C268.133 162.166 264.94 158.972 264.94 155.034ZM272.072 145.902C267.029 145.902 262.94 149.99 262.94 155.034C262.94 158.469 264.838 161.462 267.642 163.021C265.297 163.966 263.324 165.638 262.002 167.757H251.069C250.517 167.757 250.069 168.205 250.069 168.757V189.13C250.069 189.683 250.517 190.13 251.069 190.13H293.342C293.894 190.13 294.342 189.683 294.342 189.13V168.757C294.342 168.205 293.894 167.757 293.342 167.757H282.141C280.82 165.638 278.847 163.966 276.502 163.021C279.307 161.462 281.204 158.47 281.204 155.034C281.204 149.99 277.116 145.902 272.072 145.902ZM279.683 167.757H264.461C266.27 165.563 269.008 164.166 272.072 164.166C275.135 164.166 277.874 165.563 279.683 167.757ZM252.069 169.757V188.13H292.342V169.757H252.069ZM275.079 174.01C275.268 173.491 275 172.918 274.481 172.729C273.962 172.54 273.388 172.808 273.199 173.327L269.363 183.877C269.174 184.396 269.442 184.97 269.961 185.159C270.48 185.347 271.054 185.08 271.243 184.561L275.079 174.01ZM268.085 176.716C268.476 176.326 268.476 175.692 268.085 175.302C267.695 174.911 267.062 174.911 266.671 175.302L263.736 178.237C263.346 178.627 263.346 179.261 263.736 179.651L266.671 182.586C267.062 182.977 267.695 182.977 268.085 182.586C268.476 182.196 268.476 181.562 268.085 181.172L265.858 178.944L268.085 176.716ZM276.356 175.302C276.747 174.911 277.38 174.911 277.77 175.302L280.705 178.237C281.096 178.627 281.096 179.261 280.705 179.651L277.77 182.586C277.38 182.977 276.747 182.977 276.356 182.586C275.966 182.196 275.966 181.562 276.356 181.172L278.584 178.944L276.356 176.716C275.966 176.326 275.966 175.692 276.356 175.302Z" fill="#111827"/>
</svg>
