<svg width="516" height="336" viewBox="0 0 516 336" fill="none" xmlns="http://www.w3.org/2000/svg">
<path d="M10.3366 6.81818V17H8.92472L3.74929 9.53267H3.65483V17H2.11861V6.81818H3.54048L8.72088 14.2955H8.81534V6.81818H10.3366ZM14.6806 17.169C14.1967 17.169 13.7592 17.0795 13.3681 16.9006C12.977 16.7183 12.6671 16.4548 12.4384 16.1101C12.213 15.7654 12.1003 15.3428 12.1003 14.8423C12.1003 14.4115 12.1832 14.0568 12.3489 13.7784C12.5146 13.5 12.7383 13.2796 13.0201 13.1172C13.3018 12.9548 13.6167 12.8321 13.9647 12.7493C14.3127 12.6664 14.6673 12.6035 15.0286 12.5604C15.486 12.5073 15.8572 12.4643 16.1422 12.4311C16.4273 12.3946 16.6344 12.3366 16.7637 12.2571C16.8929 12.1776 16.9576 12.0483 16.9576 11.8693V11.8345C16.9576 11.4003 16.8349 11.0639 16.5897 10.8253C16.3477 10.5866 15.9864 10.4673 15.5059 10.4673C15.0054 10.4673 14.611 10.5784 14.3226 10.8004C14.0376 11.0192 13.8404 11.2628 13.731 11.5312L12.334 11.2131C12.4997 10.7491 12.7417 10.3745 13.0598 10.0895C13.3813 9.80114 13.7509 9.59233 14.1685 9.46307C14.5861 9.33049 15.0253 9.2642 15.486 9.2642C15.7909 9.2642 16.1141 9.30066 16.4554 9.37358C16.8001 9.44318 17.1216 9.57244 17.4199 9.76136C17.7215 9.95028 17.9685 10.2204 18.1607 10.5717C18.3529 10.9197 18.449 11.3722 18.449 11.929V17H16.9973V15.956H16.9377C16.8416 16.1482 16.6974 16.3371 16.5051 16.5227C16.3129 16.7083 16.066 16.8625 15.7644 16.9851C15.4628 17.1077 15.1015 17.169 14.6806 17.169ZM15.0037 15.9759C15.4147 15.9759 15.766 15.8946 16.0577 15.7322C16.3527 15.5698 16.5764 15.3577 16.7289 15.0959C16.8846 14.8307 16.9625 14.5473 16.9625 14.2457V13.2614C16.9095 13.3144 16.8068 13.3641 16.6543 13.4105C16.5051 13.4536 16.3345 13.4917 16.1422 13.5249C15.95 13.5547 15.7627 13.5829 15.5804 13.6094C15.3981 13.6326 15.2457 13.6525 15.123 13.669C14.8347 13.7055 14.5712 13.7668 14.3326 13.853C14.0972 13.9392 13.9083 14.0634 13.7658 14.2259C13.6266 14.3849 13.557 14.5971 13.557 14.8622C13.557 15.2301 13.6929 15.5085 13.9647 15.6974C14.2364 15.883 14.5828 15.9759 15.0037 15.9759ZM20.429 17V9.36364H21.8558V10.6065H21.9503C22.1094 10.1856 22.3696 9.85748 22.7308 9.62216C23.0921 9.38352 23.5246 9.2642 24.0284 9.2642C24.5388 9.2642 24.9664 9.38352 25.3111 9.62216C25.6591 9.8608 25.916 10.1889 26.0817 10.6065H26.1612C26.3435 10.1989 26.6335 9.87405 27.0312 9.6321C27.429 9.38684 27.9029 9.2642 28.4531 9.2642C29.1458 9.2642 29.7109 9.4813 30.1484 9.91548C30.5893 10.3497 30.8097 11.0043 30.8097 11.8793V17H29.3232V12.0185C29.3232 11.5014 29.1823 11.1269 28.9006 10.8949C28.6188 10.6629 28.2824 10.5469 27.8913 10.5469C27.4074 10.5469 27.0312 10.696 26.7628 10.9943C26.4943 11.2893 26.3601 11.6688 26.3601 12.1328V17H24.8786V11.924C24.8786 11.5097 24.7493 11.1766 24.4908 10.9247C24.2322 10.6728 23.8958 10.5469 23.4815 10.5469C23.1998 10.5469 22.9396 10.6214 22.701 10.7706C22.4657 10.9164 22.2751 11.1203 22.1293 11.3821C21.9867 11.6439 21.9155 11.9472 21.9155 12.2919V17H20.429ZM36.0932 17.1541C35.3408 17.1541 34.6929 16.9934 34.1493 16.6719C33.6091 16.3471 33.1915 15.8913 32.8965 15.3047C32.6048 14.7147 32.459 14.0237 32.459 13.2315C32.459 12.4493 32.6048 11.7599 32.8965 11.1634C33.1915 10.5668 33.6025 10.1011 34.1294 9.76633C34.6597 9.43158 35.2795 9.2642 35.9888 9.2642C36.4197 9.2642 36.8373 9.33546 37.2417 9.47798C37.646 9.6205 38.0089 9.84422 38.3304 10.1491C38.6519 10.4541 38.9055 10.8501 39.0911 11.3374C39.2767 11.8213 39.3695 12.4096 39.3695 13.1023V13.6293H33.2992V12.5156H37.9128C37.9128 12.1245 37.8333 11.7782 37.6742 11.4766C37.5151 11.1716 37.2914 10.9313 37.003 10.7557C36.718 10.58 36.3832 10.4922 35.9988 10.4922C35.5811 10.4922 35.2166 10.5949 34.905 10.8004C34.5968 11.0026 34.3581 11.2678 34.1891 11.5959C34.0234 11.9207 33.9405 12.2737 33.9405 12.6548V13.5249C33.9405 14.0353 34.03 14.4695 34.209 14.8274C34.3913 15.1854 34.6448 15.4588 34.9696 15.6477C35.2944 15.8333 35.6739 15.9261 36.1081 15.9261C36.3899 15.9261 36.6467 15.8864 36.8787 15.8068C37.1107 15.724 37.3113 15.6013 37.4803 15.4389C37.6493 15.2765 37.7786 15.076 37.8681 14.8374L39.275 15.0909C39.1623 15.5052 38.9602 15.8681 38.6685 16.1797C38.3801 16.4879 38.0172 16.7282 37.5797 16.9006C37.1455 17.0696 36.65 17.1541 36.0932 17.1541Z" fill="#111827"/>
<g clip-path="url(#clip0_2617_6188)">
<rect x="1" y="28" width="514" height="36" rx="4" fill="white"/>
<path d="M504 43.5L499 48.5L494 43.5" stroke="#111827" stroke-linecap="round" stroke-linejoin="round"/>
</g>
<rect x="1" y="28" width="514" height="36" rx="4" stroke="#E4E4E7"/>
<rect x="1.5" y="96.5" width="149" height="103" rx="3.5" fill="white"/>
<rect x="1.5" y="96.5" width="149" height="103" rx="3.5" stroke="#E4E4E7"/>
<path d="M73.0162 119.563C74.4589 117.962 75.6815 116.36 75.9504 116.017C75.9749 115.994 76.0238 115.994 76.0482 116.017C76.2927 116.36 77.5398 117.962 78.9824 119.563C91.306 134.273 77.0507 144.202 77.0507 144.202L76.9285 144.271C76.8307 145.804 76.5617 148 76.5617 148H76.0238H75.4858C75.4858 148 75.2169 145.804 75.1191 144.271L74.9968 144.179C74.9479 144.202 60.6927 134.273 73.0162 119.563ZM75.9993 143.974C75.9993 143.974 76.6351 143.47 76.8062 143.196V143.173L76.0238 127.159C76.0238 127.113 75.9504 127.113 75.9504 127.159L75.168 143.173V143.196C75.3391 143.47 75.9993 143.974 75.9993 143.974Z" fill="#111827"/>
<path d="M44.1186 164.818H45.983L49.2244 172.733H49.3438L52.5852 164.818H54.4496V175H52.9879V167.632H52.8935L49.8906 174.985H48.6776L45.6747 167.627H45.5803V175H44.1186V164.818ZM59.7804 175.154C59.0645 175.154 58.4397 174.99 57.9061 174.662C57.3725 174.334 56.9582 173.875 56.6632 173.285C56.3682 172.695 56.2207 172.005 56.2207 171.217C56.2207 170.424 56.3682 169.732 56.6632 169.138C56.9582 168.545 57.3725 168.085 57.9061 167.756C58.4397 167.428 59.0645 167.264 59.7804 167.264C60.4963 167.264 61.121 167.428 61.6547 167.756C62.1883 168.085 62.6026 168.545 62.8975 169.138C63.1925 169.732 63.34 170.424 63.34 171.217C63.34 172.005 63.1925 172.695 62.8975 173.285C62.6026 173.875 62.1883 174.334 61.6547 174.662C61.121 174.99 60.4963 175.154 59.7804 175.154ZM59.7853 173.906C60.2493 173.906 60.6338 173.784 60.9387 173.538C61.2437 173.293 61.469 172.967 61.6149 172.559C61.764 172.151 61.8386 171.702 61.8386 171.212C61.8386 170.724 61.764 170.277 61.6149 169.869C61.469 169.458 61.2437 169.129 60.9387 168.88C60.6338 168.631 60.2493 168.507 59.7853 168.507C59.318 168.507 58.9302 168.631 58.622 168.88C58.3171 169.129 58.09 169.458 57.9409 169.869C57.795 170.277 57.7221 170.724 57.7221 171.212C57.7221 171.702 57.795 172.151 57.9409 172.559C58.09 172.967 58.3171 173.293 58.622 173.538C58.9302 173.784 59.318 173.906 59.7853 173.906ZM66.4858 170.466V175H64.9993V167.364H66.4261V168.607H66.5206C66.6963 168.202 66.9714 167.877 67.3459 167.632C67.7237 167.387 68.1993 167.264 68.7727 167.264C69.2931 167.264 69.7488 167.374 70.1399 167.592C70.531 167.808 70.8343 168.129 71.0497 168.557C71.2652 168.984 71.3729 169.513 71.3729 170.143V175H69.8864V170.322C69.8864 169.768 69.7422 169.336 69.4538 169.024C69.1655 168.709 68.7694 168.552 68.2656 168.552C67.9209 168.552 67.6143 168.626 67.3459 168.776C67.0807 168.925 66.8703 169.143 66.7145 169.432C66.562 169.717 66.4858 170.062 66.4858 170.466ZM76.5682 178.023C75.9616 178.023 75.4396 177.943 75.0021 177.784C74.5679 177.625 74.2133 177.415 73.9382 177.153C73.6631 176.891 73.4576 176.604 73.3217 176.293L74.5994 175.766C74.6889 175.911 74.8082 176.066 74.9574 176.228C75.1098 176.394 75.3153 176.535 75.5739 176.651C75.8357 176.767 76.1721 176.825 76.5831 176.825C77.1465 176.825 77.6122 176.687 77.9801 176.412C78.348 176.14 78.532 175.706 78.532 175.109V173.608H78.4375C78.348 173.77 78.2188 173.951 78.0497 174.15C77.884 174.349 77.6553 174.521 77.3636 174.667C77.072 174.813 76.6925 174.886 76.2251 174.886C75.6219 174.886 75.0784 174.745 74.5945 174.463C74.1139 174.178 73.7327 173.759 73.451 173.205C73.1726 172.648 73.0334 171.964 73.0334 171.152C73.0334 170.34 73.1709 169.644 73.446 169.064C73.7244 168.484 74.1056 168.04 74.5895 167.732C75.0734 167.42 75.6219 167.264 76.2351 167.264C76.709 167.264 77.0919 167.344 77.3835 167.503C77.6752 167.659 77.9022 167.841 78.0646 168.05C78.2304 168.259 78.358 168.442 78.4474 168.602H78.5568V167.364H80.0135V175.169C80.0135 175.825 79.861 176.364 79.5561 176.785C79.2512 177.206 78.8385 177.517 78.3182 177.719C77.8011 177.922 77.2178 178.023 76.5682 178.023ZM76.5533 173.653C76.9808 173.653 77.3421 173.553 77.6371 173.354C77.9354 173.152 78.1607 172.864 78.3132 172.489C78.469 172.112 78.5469 171.659 78.5469 171.132C78.5469 170.618 78.4706 170.166 78.3182 169.775C78.1657 169.384 77.942 169.079 77.647 168.86C77.352 168.638 76.9875 168.527 76.5533 168.527C76.1058 168.527 75.733 168.643 75.4347 168.875C75.1364 169.104 74.911 169.415 74.7585 169.81C74.6094 170.204 74.5348 170.645 74.5348 171.132C74.5348 171.633 74.611 172.072 74.7635 172.45C74.916 172.827 75.1413 173.122 75.4396 173.335C75.7412 173.547 76.1125 173.653 76.5533 173.653ZM85.2237 175.154C84.5078 175.154 83.883 174.99 83.3494 174.662C82.8158 174.334 82.4015 173.875 82.1065 173.285C81.8116 172.695 81.6641 172.005 81.6641 171.217C81.6641 170.424 81.8116 169.732 82.1065 169.138C82.4015 168.545 82.8158 168.085 83.3494 167.756C83.883 167.428 84.5078 167.264 85.2237 167.264C85.9396 167.264 86.5644 167.428 87.098 167.756C87.6316 168.085 88.0459 168.545 88.3409 169.138C88.6359 169.732 88.7834 170.424 88.7834 171.217C88.7834 172.005 88.6359 172.695 88.3409 173.285C88.0459 173.875 87.6316 174.334 87.098 174.662C86.5644 174.99 85.9396 175.154 85.2237 175.154ZM85.2287 173.906C85.6927 173.906 86.0772 173.784 86.3821 173.538C86.687 173.293 86.9124 172.967 87.0582 172.559C87.2074 172.151 87.282 171.702 87.282 171.212C87.282 170.724 87.2074 170.277 87.0582 169.869C86.9124 169.458 86.687 169.129 86.3821 168.88C86.0772 168.631 85.6927 168.507 85.2287 168.507C84.7614 168.507 84.3736 168.631 84.0653 168.88C83.7604 169.129 83.5334 169.458 83.3842 169.869C83.2384 170.277 83.1655 170.724 83.1655 171.212C83.1655 171.702 83.2384 172.151 83.3842 172.559C83.5334 172.967 83.7604 173.293 84.0653 173.538C84.3736 173.784 84.7614 173.906 85.2287 173.906ZM93.8581 175H90.562V164.818H93.9625C94.9602 164.818 95.8169 165.022 96.5328 165.43C97.2488 165.834 97.7973 166.416 98.1784 167.175C98.5629 167.93 98.7551 168.837 98.7551 169.894C98.7551 170.955 98.5613 171.866 98.1735 172.629C97.789 173.391 97.2322 173.978 96.503 174.388C95.7739 174.796 94.8922 175 93.8581 175ZM92.0982 173.658H93.7736C94.5492 173.658 95.1938 173.512 95.7076 173.22C96.2213 172.925 96.6058 172.499 96.861 171.942C97.1162 171.382 97.2438 170.7 97.2438 169.894C97.2438 169.095 97.1162 168.418 96.861 167.861C96.6091 167.304 96.2329 166.881 95.7324 166.593C95.2319 166.305 94.6105 166.161 93.8681 166.161H92.0982V173.658ZM100.665 175V164.818H104.394C105.117 164.818 105.715 164.937 106.189 165.176C106.663 165.411 107.018 165.731 107.253 166.136C107.488 166.537 107.606 166.989 107.606 167.493C107.606 167.917 107.528 168.275 107.372 168.567C107.216 168.855 107.008 169.087 106.746 169.263C106.487 169.435 106.202 169.561 105.891 169.641V169.74C106.229 169.757 106.558 169.866 106.88 170.068C107.205 170.267 107.473 170.55 107.685 170.918C107.897 171.286 108.004 171.734 108.004 172.261C108.004 172.781 107.881 173.248 107.636 173.663C107.394 174.074 107.019 174.4 106.512 174.642C106.005 174.881 105.357 175 104.568 175H100.665ZM102.202 173.683H104.419C105.155 173.683 105.682 173.54 106 173.255C106.318 172.97 106.477 172.614 106.477 172.186C106.477 171.865 106.396 171.57 106.234 171.301C106.071 171.033 105.839 170.819 105.538 170.66C105.239 170.501 104.885 170.421 104.474 170.421H102.202V173.683ZM102.202 169.223H104.26C104.605 169.223 104.915 169.157 105.19 169.024C105.468 168.892 105.688 168.706 105.851 168.467C106.017 168.225 106.099 167.94 106.099 167.612C106.099 167.191 105.952 166.838 105.657 166.553C105.362 166.268 104.91 166.126 104.3 166.126H102.202V169.223Z" fill="#111827"/>
<rect x="183.5" y="96.5" width="149" height="103" rx="3.5" fill="white"/>
<rect x="183.5" y="96.5" width="149" height="103" rx="3.5" stroke="#E4E4E7"/>
<path d="M256.275 119.151C256.275 119.163 256.425 119.444 256.613 119.794C256.8 120.138 256.931 120.432 256.913 120.451C256.894 120.463 256.369 120.663 255.75 120.882C255.125 121.107 254.631 121.294 254.638 121.301C254.644 121.307 255.35 121.382 256.2 121.463C257.225 121.557 257.763 121.626 257.8 121.669C257.831 121.701 258.069 122.082 258.325 122.507L258.788 123.282L258.869 123.088C258.913 122.988 259.056 122.644 259.181 122.338L259.413 121.782L260.644 121.651C261.319 121.576 261.919 121.519 261.981 121.519L262.088 121.476C262.088 121.457 261.631 121.269 261.069 121.057C260.513 120.851 260.05 120.669 260.05 120.663C260.05 120.657 260.169 120.363 260.319 120.007C260.463 119.651 260.575 119.351 260.569 119.344C260.556 119.332 260.081 119.476 259.519 119.657L258.5 119.994L257.406 119.563C256.331 119.138 256.275 119.119 256.275 119.151ZM263.063 122.844C261.756 123.363 260.681 123.794 260.675 123.807C260.663 123.819 261.638 124.213 262.838 124.688L265.013 125.544L265.244 125.451C267.669 124.507 269.869 123.632 269.862 123.619L265.494 121.901C265.45 121.907 264.363 122.326 263.063 122.844ZM250.525 122.338C249.269 122.469 248.219 122.832 247.775 123.294C247.469 123.607 247.419 123.876 247.613 124.201C247.894 124.688 248.819 125.094 250.094 125.301C250.669 125.401 252.35 125.382 252.931 125.282C254.294 125.044 255.181 124.607 255.388 124.057C255.463 123.851 255.463 123.826 255.388 123.626C255.181 123.094 254.313 122.651 253.025 122.426C252.375 122.319 251.163 122.276 250.525 122.338ZM273.856 123.851C273.794 123.932 273.562 124.119 273.337 124.269C272.675 124.694 271.825 125.082 266.519 127.369C262.788 128.969 261.838 129.394 260.55 130.013C259.119 130.694 258.525 130.888 257.806 130.888C257.163 130.888 256.775 130.776 255.575 130.244C255.094 130.032 253.125 129.207 251.206 128.407C242.8 124.913 242.644 124.838 242.194 124.351L242.007 124.144V127.438L242.219 127.644C242.425 127.844 243.119 128.263 243.363 128.332C243.432 128.351 243.888 128.538 244.382 128.751C244.875 128.963 247.288 129.976 249.744 131.001C253.806 132.694 254.731 133.082 256.119 133.688C256.85 134.013 257.256 134.094 257.95 134.069C258.456 134.05 258.606 134.019 259.05 133.869C259.338 133.775 259.831 133.563 260.15 133.4C261.206 132.869 262.481 132.307 267.563 130.119C272.344 128.057 272.969 127.769 273.487 127.413C274.019 127.032 274 127.126 274 125.288C274 124.407 273.994 123.688 273.987 123.688L273.856 123.851ZM257.119 126.001C255.163 126.301 253.544 126.557 253.513 126.569C253.469 126.582 258.388 128.651 258.594 128.707L260.844 125.476C260.838 125.432 260.844 125.426 257.119 126.001ZM273.887 129.276C273.844 129.351 273.637 129.526 273.444 129.669C272.806 130.107 271.85 130.544 266.038 133.044C262.694 134.488 261.644 134.95 260.65 135.432C259.038 136.213 258.65 136.338 257.788 136.338C257.119 136.332 256.706 136.225 255.819 135.825C254.963 135.432 254.006 135.032 250.169 133.438C243.475 130.663 242.707 130.313 242.232 129.857L242 129.638V132.888L242.263 133.138C242.688 133.538 242.644 133.513 249.819 136.5C252.45 137.594 254.931 138.638 255.331 138.819C256.388 139.294 256.694 139.407 257.113 139.494C258.088 139.694 258.813 139.532 260.394 138.763C261.425 138.263 262.681 137.707 265.725 136.394C271.512 133.9 272.937 133.257 273.362 132.976C273.512 132.869 273.719 132.701 273.819 132.588L274 132.388V130.763C274 129.869 273.994 129.138 273.987 129.138L273.887 129.276ZM273.831 134.6C273.45 135.082 272.681 135.45 266.713 138.019C262.819 139.7 261.631 140.225 260.35 140.832C259.006 141.469 258.563 141.607 257.788 141.607C257.256 141.607 256.719 141.482 256.125 141.219C254.731 140.607 253.813 140.219 249.744 138.525C245.119 136.6 243.638 135.969 243.144 135.725C242.682 135.494 242.213 135.163 242.107 134.994L242 134.838V136.494C242 138.394 241.969 138.25 242.475 138.594C243.038 138.969 243.875 139.344 249.432 141.65C253.313 143.263 254.713 143.85 255.4 144.163C256.806 144.794 257.181 144.894 257.969 144.85C258.688 144.819 259.156 144.663 260.4 144.069C261.694 143.45 262.65 143.019 266.881 141.2C272.756 138.669 273.394 138.363 273.837 137.85L273.994 137.675V136.057C273.994 135.163 273.987 134.432 273.981 134.432L273.831 134.6Z" fill="#111827"/>
<path d="M240.619 175V164.818H244.248C245.037 164.818 245.691 164.954 246.212 165.226C246.735 165.498 247.126 165.874 247.385 166.354C247.643 166.832 247.773 167.384 247.773 168.01C247.773 168.633 247.642 169.182 247.38 169.656C247.121 170.126 246.73 170.492 246.207 170.754C245.686 171.016 245.032 171.147 244.243 171.147H241.494V169.825H244.104C244.601 169.825 245.005 169.753 245.317 169.611C245.632 169.468 245.862 169.261 246.008 168.989C246.154 168.718 246.227 168.391 246.227 168.01C246.227 167.625 246.152 167.292 246.003 167.011C245.857 166.729 245.627 166.513 245.312 166.364C245 166.212 244.591 166.136 244.084 166.136H242.155V175H240.619ZM245.645 170.406L248.161 175H246.411L243.945 170.406H245.645ZM252.718 175.154C251.966 175.154 251.318 174.993 250.774 174.672C250.234 174.347 249.816 173.891 249.521 173.305C249.23 172.715 249.084 172.024 249.084 171.232C249.084 170.449 249.23 169.76 249.521 169.163C249.816 168.567 250.227 168.101 250.754 167.766C251.285 167.432 251.905 167.264 252.614 167.264C253.045 167.264 253.462 167.335 253.867 167.478C254.271 167.621 254.634 167.844 254.955 168.149C255.277 168.454 255.53 168.85 255.716 169.337C255.902 169.821 255.994 170.41 255.994 171.102V171.629H249.924V170.516H254.538C254.538 170.125 254.458 169.778 254.299 169.477C254.14 169.172 253.916 168.931 253.628 168.756C253.343 168.58 253.008 168.492 252.624 168.492C252.206 168.492 251.842 168.595 251.53 168.8C251.222 169.003 250.983 169.268 250.814 169.596C250.648 169.921 250.566 170.274 250.566 170.655V171.525C250.566 172.035 250.655 172.469 250.834 172.827C251.016 173.185 251.27 173.459 251.595 173.648C251.919 173.833 252.299 173.926 252.733 173.926C253.015 173.926 253.272 173.886 253.504 173.807C253.736 173.724 253.936 173.601 254.105 173.439C254.274 173.277 254.404 173.076 254.493 172.837L255.9 173.091C255.787 173.505 255.585 173.868 255.294 174.18C255.005 174.488 254.642 174.728 254.205 174.901C253.771 175.07 253.275 175.154 252.718 175.154ZM260.502 175.149C259.886 175.149 259.336 174.992 258.852 174.677C258.371 174.359 257.993 173.906 257.718 173.32C257.447 172.73 257.311 172.022 257.311 171.197C257.311 170.371 257.448 169.665 257.723 169.079C258.002 168.492 258.383 168.043 258.867 167.732C259.351 167.42 259.899 167.264 260.512 167.264C260.986 167.264 261.368 167.344 261.656 167.503C261.948 167.659 262.173 167.841 262.332 168.05C262.494 168.259 262.62 168.442 262.71 168.602H262.799V164.818H264.286V175H262.834V173.812H262.71C262.62 173.974 262.491 174.16 262.322 174.369C262.156 174.577 261.928 174.76 261.636 174.915C261.344 175.071 260.967 175.149 260.502 175.149ZM260.831 173.881C261.258 173.881 261.619 173.769 261.914 173.543C262.213 173.315 262.438 172.998 262.591 172.594C262.746 172.189 262.824 171.719 262.824 171.182C262.824 170.652 262.748 170.187 262.596 169.79C262.443 169.392 262.219 169.082 261.924 168.86C261.629 168.638 261.265 168.527 260.831 168.527C260.383 168.527 260.01 168.643 259.712 168.875C259.414 169.107 259.188 169.424 259.036 169.825C258.887 170.226 258.812 170.678 258.812 171.182C258.812 171.692 258.888 172.151 259.041 172.559C259.193 172.967 259.419 173.29 259.717 173.528C260.019 173.764 260.39 173.881 260.831 173.881ZM266.407 175V167.364H267.894V175H266.407ZM267.158 166.185C266.9 166.185 266.678 166.099 266.492 165.927C266.31 165.751 266.219 165.542 266.219 165.3C266.219 165.055 266.31 164.846 266.492 164.674C266.678 164.498 266.9 164.411 267.158 164.411C267.417 164.411 267.637 164.498 267.819 164.674C268.005 164.846 268.098 165.055 268.098 165.3C268.098 165.542 268.005 165.751 267.819 165.927C267.637 166.099 267.417 166.185 267.158 166.185ZM275.616 169.228L274.269 169.467C274.212 169.294 274.123 169.13 274 168.974C273.881 168.819 273.719 168.691 273.513 168.592C273.308 168.492 273.051 168.442 272.743 168.442C272.322 168.442 271.97 168.537 271.689 168.726C271.407 168.911 271.266 169.152 271.266 169.447C271.266 169.702 271.36 169.907 271.549 170.063C271.738 170.219 272.043 170.347 272.464 170.446L273.677 170.724C274.38 170.887 274.904 171.137 275.248 171.475C275.593 171.813 275.765 172.252 275.765 172.793C275.765 173.25 275.633 173.658 275.368 174.016C275.106 174.37 274.739 174.649 274.269 174.851C273.801 175.053 273.26 175.154 272.643 175.154C271.788 175.154 271.09 174.972 270.55 174.607C270.01 174.239 269.678 173.717 269.556 173.041L270.993 172.822C271.082 173.197 271.266 173.48 271.544 173.673C271.823 173.862 272.186 173.956 272.633 173.956C273.12 173.956 273.51 173.855 273.801 173.653C274.093 173.447 274.239 173.197 274.239 172.902C274.239 172.663 274.15 172.463 273.971 172.3C273.795 172.138 273.525 172.015 273.16 171.933L271.868 171.649C271.155 171.487 270.628 171.228 270.287 170.874C269.949 170.519 269.779 170.07 269.779 169.526C269.779 169.076 269.905 168.681 270.157 168.343C270.409 168.005 270.757 167.741 271.201 167.553C271.645 167.36 272.154 167.264 272.728 167.264C273.553 167.264 274.203 167.443 274.676 167.801C275.15 168.156 275.464 168.631 275.616 169.228Z" fill="#111827"/>
<rect x="365.5" y="96.5" width="149" height="103" rx="3.5" fill="white"/>
<rect x="365.5" y="96.5" width="149" height="103" rx="3.5" stroke="#E4E4E7"/>
<path fill-rule="evenodd" clip-rule="evenodd" d="M449.019 139.289C449.016 139.314 449.013 139.335 449.011 139.354C448.928 142.695 448.39 144.614 447.547 145.809C446.58 147.195 445.375 147.562 444.02 147.852C440.534 148.597 439.799 146.352 439.39 145.09C439.382 145.067 439.375 145.046 439.367 145.025C439.351 144.978 439.336 144.934 439.318 144.888C439.142 144.407 439.028 143.802 438.951 143.119C438.878 142.468 438.842 141.795 438.816 141.118C438.81 141.004 438.806 140.863 438.802 140.711C438.798 140.599 438.795 140.481 438.79 140.362C438.785 140.166 438.796 139.98 438.811 139.809C438.425 139.981 438.018 140.102 437.601 140.171C436.535 140.352 435.578 140.182 435.004 140.037C434.523 139.918 433.913 139.638 433.535 139.281C433.473 139.224 433.411 139.157 433.359 139.095C433.039 139.359 432.708 139.545 432.371 139.664C431.12 140.114 430.018 139.644 429.061 138.578C428.368 137.813 427.747 136.685 427.199 135.387C425.616 131.632 424.571 126.216 424.504 124.882C423.946 113.719 433.986 116.388 436.722 117.319C437.202 117.033 437.716 116.809 438.253 116.652C438.998 116.43 439.825 116.311 440.741 116.326C441.206 116.332 441.667 116.363 442.132 116.409C442.454 116.444 442.775 116.491 443.094 116.549C444.212 116.228 446.829 115.654 449.456 116.28C451.256 116.709 453.098 117.661 454.587 119.559C455.57 120.816 455.56 123.676 454.649 126.966C453.993 129.345 452.886 132.03 451.381 134.528C451.717 134.445 452.25 134.332 453.093 134.156C453.749 134.021 454.262 134.068 454.634 134.249C455.281 134.559 455.56 135.071 455.513 135.739C455.493 136.08 455.353 136.416 455.125 136.737C454.748 137.249 453.925 137.895 452.948 138.351C452.472 138.568 451.856 138.739 451.22 138.847C450.579 138.956 449.911 139.002 449.337 138.976H449.28L449.058 138.956C449.053 139.007 449.047 139.059 449.037 139.116C449.03 139.189 449.024 139.245 449.019 139.289ZM448.949 134.823C448.365 134.988 447.527 135.294 447.614 136.99C447.573 137.492 447.418 138.904 447.242 140.28C447.097 141.407 446.942 142.545 446.833 143.197C446.678 144.086 446.435 144.728 445.996 145.178C445.561 145.633 444.899 145.933 443.921 146.145C442.804 146.383 442.101 146.15 441.646 145.762C441.175 145.364 440.927 144.79 440.771 144.402C440.627 144.03 440.518 143.037 440.456 141.707C440.394 140.373 440.384 138.733 440.42 137.073C440.42 137.046 440.421 137.02 440.421 136.993C440.426 136.667 440.432 136.364 440.321 136.049C440.187 135.681 439.949 135.35 439.654 135.138C439.38 134.942 438.987 134.807 438.651 134.838C438.588 134.844 438.526 134.854 438.465 134.869C438.522 134.642 438.604 134.394 438.698 134.131C438.815 133.801 438.844 133.702 438.879 133.606C438.92 133.492 438.972 133.382 439.194 132.893C439.753 131.647 440.466 130.054 439.67 126.355C439.442 125.321 438.863 124.778 438.134 124.55C437.668 124.406 437.151 124.395 436.639 124.473C436.147 124.55 435.656 124.701 435.222 124.876C434.949 124.99 434.686 125.125 434.435 125.28C434.606 123.118 435.547 117.976 440.714 118.064C444.997 118.131 447.402 120.94 448.51 122.952C448.789 123.453 448.98 123.904 449.099 124.245L449.101 124.248C449.11 124.273 449.12 124.298 449.125 124.323C446.596 124.059 445.582 124.938 445.37 126.267C445.07 128.135 446.591 130.861 447.361 132.242C447.379 132.274 447.397 132.305 447.414 132.336C447.569 132.615 447.687 132.827 447.728 132.93C448.033 133.669 448.411 134.145 448.711 134.512C448.73 134.537 448.749 134.561 448.767 134.584C448.837 134.673 448.9 134.753 448.949 134.823ZM437.896 136.54C437.347 137.239 437.176 137.45 435.475 137.802C435.17 137.864 434.962 137.931 434.838 137.994C434.994 138.102 435.232 138.2 435.438 138.252C435.858 138.356 436.556 138.485 437.295 138.356C438.025 138.232 438.806 137.859 439.442 136.975C439.572 136.794 439.545 136.546 439.478 136.344C439.406 136.147 439.282 135.971 439.137 135.868C439.028 135.79 438.852 135.723 438.728 135.733C438.652 135.738 438.58 135.771 438.527 135.826C438.303 136.052 438.092 136.29 437.896 136.54ZM434.59 134.187C434.714 134.32 434.845 134.446 434.983 134.564C434.154 135.448 433.352 136.357 432.578 137.29C432.294 137.631 432.025 137.838 431.776 137.926C431.321 138.092 430.851 137.843 430.39 137.331C429.837 136.716 429.314 135.759 428.844 134.642C427.344 131.088 426.356 125.993 426.294 124.747C425.869 116.202 433.644 118.1 436.049 118.892C433.385 121.509 433.504 126.19 433.509 126.226C433.505 126.323 433.512 126.442 433.52 126.594C433.522 126.62 433.523 126.648 433.525 126.676C433.571 127.405 433.654 128.807 433.437 130.364C433.382 130.743 433.373 131.127 433.411 131.507C433.509 132.547 433.944 133.478 434.59 134.187ZM449.29 122.523C448.453 120.992 446.922 119.042 444.485 117.966C445.654 117.728 447.537 117.521 449.425 118.064C450.754 118.452 452.089 119.213 453.18 120.604C453.811 121.416 453.692 123.671 452.927 126.439C452.265 128.844 451.106 131.59 449.518 134.089C449.483 134.048 449.448 134.003 449.413 133.958L449.41 133.954C449.394 133.939 449.379 133.918 449.363 133.897C450.284 132.387 450.108 130.928 449.942 129.558C449.875 129.02 449.813 128.502 449.828 128.011C449.848 127.517 449.91 127.094 449.97 126.687C449.973 126.668 449.976 126.649 449.978 126.63C450.066 126.081 450.144 125.559 450.123 124.923C450.123 124.915 450.125 124.907 450.126 124.9C450.127 124.892 450.128 124.884 450.128 124.876C450.154 124.726 450.097 124.385 449.942 123.951C449.766 123.457 449.548 122.979 449.29 122.523ZM434.413 126.485C434.409 126.397 434.404 126.309 434.404 126.221C434.409 126.2 434.906 125.973 435.558 125.704C435.936 125.554 436.355 125.419 436.768 125.357C437.161 125.3 437.544 125.3 437.87 125.404C438.299 125.538 438.651 125.88 438.791 126.542C439.53 129.961 438.884 131.398 438.377 132.526C438.119 133.094 438.041 133.313 437.944 133.589C437.92 133.657 437.895 133.728 437.866 133.808C437.758 134.105 437.663 134.389 437.596 134.662L437.586 134.662C437.455 134.657 437.318 134.652 437.187 134.631C436.442 134.528 435.764 134.145 435.252 133.581C434.708 132.986 434.374 132.228 434.301 131.424C434.27 131.125 434.275 130.809 434.321 130.488C434.554 128.828 434.466 127.374 434.42 126.624C434.418 126.578 434.416 126.532 434.413 126.485ZM438.134 125.999C437.836 125.839 437.387 125.778 437.057 125.849C436.827 125.906 436.729 126.019 436.722 126.153C436.714 126.287 436.798 126.443 436.933 126.588C437.073 126.733 437.27 126.862 437.492 126.893H437.497C437.725 126.925 437.937 126.847 438.092 126.743C438.258 126.63 438.366 126.474 438.382 126.366C438.397 126.226 438.304 126.097 438.134 125.999ZM446.249 126.407C446.389 125.533 447.18 124.974 449.228 125.228C449.223 125.678 449.161 126.081 449.094 126.5L449.087 126.546C449.022 126.983 448.953 127.44 448.933 127.985C448.918 128.517 448.982 129.065 449.048 129.627L449.052 129.661C449.187 130.768 449.326 131.937 448.788 133.075C448.706 132.93 448.628 132.764 448.551 132.588C448.483 132.428 448.338 132.159 448.142 131.812C447.418 130.514 446.001 127.969 446.249 126.407ZM449.401 135.623C449.429 135.614 449.456 135.607 449.482 135.599C450.536 136.394 452.298 136.066 453.464 135.849L453.475 135.847C453.196 136.116 452.741 136.421 452.197 136.675C451.67 136.917 450.842 137.083 450.066 137.129C449.621 137.15 449.202 137.14 448.887 137.073C448.685 137.036 448.551 136.995 448.509 136.954C448.458 135.893 448.944 135.755 449.255 135.667L449.259 135.666C449.307 135.65 449.356 135.636 449.401 135.623ZM448.204 126.237C448.334 126.102 448.411 125.942 448.396 125.849C448.38 125.74 448.277 125.662 448.117 125.626C447.977 125.59 447.791 125.585 447.594 125.611C447.398 125.642 447.222 125.698 447.098 125.766C446.949 125.851 446.889 125.947 446.89 126.042C446.893 126.182 447.027 126.321 447.211 126.423C447.367 126.507 447.524 126.537 447.674 126.52C447.866 126.499 448.048 126.399 448.204 126.237ZM453.268 134.978C450.925 135.464 450.226 135.159 450.02 134.962C451.783 132.283 453.066 129.283 453.785 126.676C454.623 123.645 454.69 121.09 453.883 120.055C452.658 118.493 451.163 117.64 449.673 117.21C447.418 116.559 445.194 116.879 443.978 117.164C443.956 117.169 443.935 117.173 443.915 117.178C443.851 117.192 443.798 117.204 443.751 117.215C443.725 117.226 443.264 117.355 442.938 117.443C442.261 117.277 441.521 117.179 440.73 117.169C439.096 117.143 437.833 117.557 436.856 118.224C435.211 117.614 424.871 114.195 425.399 124.788C425.466 126.076 426.48 131.336 428.021 134.988C428.533 136.198 429.102 137.238 429.723 137.931C430.436 138.717 431.218 139.074 432.071 138.769C432.474 138.624 432.878 138.335 433.266 137.864C434.357 136.55 435.355 135.469 435.728 135.076C436.144 135.3 436.595 135.449 437.063 135.516C437.208 135.536 437.355 135.548 437.502 135.552C437.502 135.573 437.502 135.593 437.507 135.614C437.398 135.735 437.293 135.859 437.192 135.986C436.799 136.488 436.675 136.643 435.299 136.928C434.678 137.057 434.306 137.228 434.104 137.419C433.892 137.616 433.825 137.838 433.856 138.066C433.887 138.262 433.99 138.433 434.145 138.578C434.409 138.826 434.859 139.028 435.221 139.121C435.718 139.245 436.546 139.395 437.45 139.24C438.133 139.121 438.852 138.831 439.504 138.242C439.494 139.504 439.514 140.719 439.561 141.749C439.628 143.161 439.752 144.263 439.944 144.733C440.135 145.209 440.435 145.918 441.066 146.45C441.707 146.989 442.659 147.33 444.107 147.02C445.266 146.771 446.068 146.393 446.642 145.799C447.216 145.204 447.526 144.418 447.713 143.347C447.821 142.716 447.981 141.558 448.126 140.388C448.245 139.457 448.354 138.537 448.426 137.88C448.514 137.906 448.613 137.931 448.711 137.952C449.109 138.03 449.601 138.05 450.113 138.025C450.987 137.973 451.944 137.776 452.57 137.487C453.413 137.094 454.101 136.566 454.401 136.152C454.53 135.971 454.608 135.795 454.618 135.624C454.639 135.345 454.52 135.133 454.251 135.004C454.044 134.906 453.723 134.885 453.268 134.978Z" fill="#111827"/>
<path d="M401.119 175V164.818H404.748C405.54 164.818 406.196 164.962 406.717 165.251C407.237 165.539 407.626 165.933 407.885 166.434C408.143 166.931 408.273 167.491 408.273 168.114C408.273 168.741 408.142 169.304 407.88 169.805C407.621 170.302 407.23 170.696 406.707 170.988C406.186 171.276 405.532 171.42 404.743 171.42H402.247V170.118H404.604C405.104 170.118 405.51 170.032 405.822 169.859C406.133 169.684 406.362 169.445 406.508 169.143C406.654 168.842 406.727 168.499 406.727 168.114C406.727 167.73 406.654 167.388 406.508 167.09C406.362 166.792 406.132 166.558 405.817 166.389C405.505 166.22 405.094 166.136 404.584 166.136H402.655V175H401.119ZM413.075 175.154C412.359 175.154 411.735 174.99 411.201 174.662C410.667 174.334 410.253 173.875 409.958 173.285C409.663 172.695 409.516 172.005 409.516 171.217C409.516 170.424 409.663 169.732 409.958 169.138C410.253 168.545 410.667 168.085 411.201 167.756C411.735 167.428 412.359 167.264 413.075 167.264C413.791 167.264 414.416 167.428 414.95 167.756C415.483 168.085 415.897 168.545 416.192 169.138C416.487 169.732 416.635 170.424 416.635 171.217C416.635 172.005 416.487 172.695 416.192 173.285C415.897 173.875 415.483 174.334 414.95 174.662C414.416 174.99 413.791 175.154 413.075 175.154ZM413.08 173.906C413.544 173.906 413.929 173.784 414.234 173.538C414.539 173.293 414.764 172.967 414.91 172.559C415.059 172.151 415.134 171.702 415.134 171.212C415.134 170.724 415.059 170.277 414.91 169.869C414.764 169.458 414.539 169.129 414.234 168.88C413.929 168.631 413.544 168.507 413.08 168.507C412.613 168.507 412.225 168.631 411.917 168.88C411.612 169.129 411.385 169.458 411.236 169.869C411.09 170.277 411.017 170.724 411.017 171.212C411.017 171.702 411.09 172.151 411.236 172.559C411.385 172.967 411.612 173.293 411.917 173.538C412.225 173.784 412.613 173.906 413.08 173.906ZM424.017 169.228L422.669 169.467C422.613 169.294 422.523 169.13 422.401 168.974C422.281 168.819 422.119 168.691 421.914 168.592C421.708 168.492 421.451 168.442 421.143 168.442C420.722 168.442 420.371 168.537 420.089 168.726C419.807 168.911 419.666 169.152 419.666 169.447C419.666 169.702 419.761 169.907 419.95 170.063C420.139 170.219 420.444 170.347 420.865 170.446L422.078 170.724C422.78 170.887 423.304 171.137 423.649 171.475C423.993 171.813 424.166 172.252 424.166 172.793C424.166 173.25 424.033 173.658 423.768 174.016C423.506 174.37 423.14 174.649 422.669 174.851C422.202 175.053 421.66 175.154 421.044 175.154C420.188 175.154 419.491 174.972 418.95 174.607C418.41 174.239 418.079 173.717 417.956 173.041L419.393 172.822C419.482 173.197 419.666 173.48 419.945 173.673C420.223 173.862 420.586 173.956 421.034 173.956C421.521 173.956 421.91 173.855 422.202 173.653C422.494 173.447 422.639 173.197 422.639 172.902C422.639 172.663 422.55 172.463 422.371 172.3C422.195 172.138 421.925 172.015 421.561 171.933L420.268 171.649C419.555 171.487 419.028 171.228 418.687 170.874C418.349 170.519 418.18 170.07 418.18 169.526C418.18 169.076 418.306 168.681 418.558 168.343C418.81 168.005 419.158 167.741 419.602 167.553C420.046 167.36 420.555 167.264 421.128 167.264C421.953 167.264 422.603 167.443 423.077 167.801C423.551 168.156 423.864 168.631 424.017 169.228ZM429.365 167.364V168.557H425.194V167.364H429.365ZM426.312 165.534H427.799V172.758C427.799 173.046 427.842 173.263 427.928 173.409C428.014 173.552 428.125 173.649 428.261 173.702C428.4 173.752 428.551 173.777 428.713 173.777C428.833 173.777 428.937 173.769 429.027 173.752C429.116 173.736 429.186 173.722 429.235 173.712L429.504 174.94C429.418 174.973 429.295 175.007 429.136 175.04C428.977 175.076 428.778 175.096 428.539 175.099C428.148 175.106 427.784 175.036 427.446 174.891C427.108 174.745 426.834 174.519 426.625 174.214C426.417 173.91 426.312 173.527 426.312 173.066V165.534ZM434.129 178.023C433.522 178.023 433 177.943 432.563 177.784C432.128 177.625 431.774 177.415 431.499 177.153C431.224 176.891 431.018 176.604 430.882 176.293L432.16 175.766C432.249 175.911 432.369 176.066 432.518 176.228C432.67 176.394 432.876 176.535 433.134 176.651C433.396 176.767 433.733 176.825 434.144 176.825C434.707 176.825 435.173 176.687 435.541 176.412C435.909 176.14 436.093 175.706 436.093 175.109V173.608H435.998C435.909 173.77 435.779 173.951 435.61 174.15C435.445 174.349 435.216 174.521 434.924 174.667C434.633 174.813 434.253 174.886 433.786 174.886C433.182 174.886 432.639 174.745 432.155 174.463C431.674 174.178 431.293 173.759 431.012 173.205C430.733 172.648 430.594 171.964 430.594 171.152C430.594 170.34 430.731 169.644 431.007 169.064C431.285 168.484 431.666 168.04 432.15 167.732C432.634 167.42 433.182 167.264 433.796 167.264C434.27 167.264 434.652 167.344 434.944 167.503C435.236 167.659 435.463 167.841 435.625 168.05C435.791 168.259 435.919 168.442 436.008 168.602H436.117V167.364H437.574V175.169C437.574 175.825 437.422 176.364 437.117 176.785C436.812 177.206 436.399 177.517 435.879 177.719C435.362 177.922 434.778 178.023 434.129 178.023ZM434.114 173.653C434.541 173.653 434.903 173.553 435.198 173.354C435.496 173.152 435.721 172.864 435.874 172.489C436.03 172.112 436.107 171.659 436.107 171.132C436.107 170.618 436.031 170.166 435.879 169.775C435.726 169.384 435.503 169.079 435.208 168.86C434.913 168.638 434.548 168.527 434.114 168.527C433.666 168.527 433.294 168.643 432.995 168.875C432.697 169.104 432.472 169.415 432.319 169.81C432.17 170.204 432.095 170.645 432.095 171.132C432.095 171.633 432.172 172.072 432.324 172.45C432.477 172.827 432.702 173.122 433 173.335C433.302 173.547 433.673 173.653 434.114 173.653ZM439.568 175V167.364H441.004V168.577H441.084C441.223 168.166 441.468 167.843 441.82 167.607C442.174 167.369 442.575 167.249 443.023 167.249C443.116 167.249 443.225 167.253 443.351 167.259C443.48 167.266 443.581 167.274 443.654 167.284V168.706C443.595 168.689 443.489 168.671 443.336 168.651C443.184 168.628 443.031 168.616 442.879 168.616C442.527 168.616 442.214 168.691 441.939 168.84C441.667 168.986 441.452 169.19 441.293 169.452C441.134 169.71 441.054 170.005 441.054 170.337V175H439.568ZM447.958 175.154C447.206 175.154 446.558 174.993 446.015 174.672C445.474 174.347 445.057 173.891 444.762 173.305C444.47 172.715 444.324 172.024 444.324 171.232C444.324 170.449 444.47 169.76 444.762 169.163C445.057 168.567 445.468 168.101 445.995 167.766C446.525 167.432 447.145 167.264 447.854 167.264C448.285 167.264 448.703 167.335 449.107 167.478C449.511 167.621 449.874 167.844 450.196 168.149C450.517 168.454 450.771 168.85 450.956 169.337C451.142 169.821 451.235 170.41 451.235 171.102V171.629H445.164V170.516H449.778C449.778 170.125 449.699 169.778 449.539 169.477C449.38 169.172 449.157 168.931 448.868 168.756C448.583 168.58 448.248 168.492 447.864 168.492C447.446 168.492 447.082 168.595 446.77 168.8C446.462 169.003 446.223 169.268 446.054 169.596C445.889 169.921 445.806 170.274 445.806 170.655V171.525C445.806 172.035 445.895 172.469 446.074 172.827C446.257 173.185 446.51 173.459 446.835 173.648C447.16 173.833 447.539 173.926 447.973 173.926C448.255 173.926 448.512 173.886 448.744 173.807C448.976 173.724 449.176 173.601 449.346 173.439C449.515 173.277 449.644 173.076 449.733 172.837L451.14 173.091C451.028 173.505 450.825 173.868 450.534 174.18C450.245 174.488 449.882 174.728 449.445 174.901C449.011 175.07 448.515 175.154 447.958 175.154ZM458.557 167.493C458.504 167.022 458.285 166.658 457.9 166.399C457.516 166.137 457.032 166.006 456.449 166.006C456.031 166.006 455.67 166.073 455.365 166.205C455.06 166.335 454.823 166.513 454.654 166.742C454.488 166.968 454.405 167.224 454.405 167.513C454.405 167.755 454.462 167.964 454.574 168.139C454.69 168.315 454.841 168.462 455.027 168.582C455.216 168.698 455.418 168.795 455.633 168.875C455.849 168.951 456.056 169.014 456.255 169.064L457.249 169.322C457.574 169.402 457.907 169.51 458.248 169.646C458.59 169.781 458.906 169.96 459.198 170.183C459.49 170.405 459.725 170.68 459.904 171.008C460.086 171.336 460.177 171.729 460.177 172.186C460.177 172.763 460.028 173.275 459.73 173.722C459.435 174.17 459.006 174.523 458.442 174.781C457.882 175.04 457.204 175.169 456.409 175.169C455.647 175.169 454.987 175.048 454.43 174.806C453.873 174.564 453.438 174.221 453.123 173.777C452.808 173.33 452.634 172.799 452.601 172.186H454.142C454.172 172.554 454.291 172.861 454.5 173.106C454.712 173.348 454.982 173.528 455.31 173.648C455.642 173.764 456.005 173.822 456.399 173.822C456.833 173.822 457.219 173.754 457.557 173.618C457.899 173.479 458.167 173.286 458.363 173.041C458.558 172.793 458.656 172.503 458.656 172.171C458.656 171.87 458.57 171.623 458.398 171.43C458.229 171.238 457.998 171.079 457.706 170.953C457.418 170.827 457.092 170.716 456.727 170.62L455.524 170.292C454.709 170.07 454.062 169.743 453.585 169.312C453.111 168.882 452.874 168.312 452.874 167.602C452.874 167.016 453.033 166.504 453.351 166.066C453.67 165.629 454.1 165.289 454.644 165.047C455.188 164.802 455.801 164.679 456.483 164.679C457.173 164.679 457.781 164.8 458.308 165.042C458.838 165.284 459.256 165.617 459.561 166.041C459.866 166.462 460.025 166.946 460.038 167.493H458.557ZM465.757 171.699H467.268L468.332 173.086L468.834 173.702L470.529 175.915H468.958L467.825 174.438L467.437 173.901L465.757 171.699ZM470.858 169.909C470.858 170.996 470.659 171.931 470.261 172.713C469.863 173.492 469.318 174.092 468.625 174.513C467.936 174.93 467.152 175.139 466.274 175.139C465.392 175.139 464.605 174.93 463.912 174.513C463.223 174.092 462.679 173.49 462.282 172.708C461.884 171.926 461.685 170.993 461.685 169.909C461.685 168.822 461.884 167.889 462.282 167.11C462.679 166.328 463.223 165.728 463.912 165.31C464.605 164.889 465.392 164.679 466.274 164.679C467.152 164.679 467.936 164.889 468.625 165.31C469.318 165.728 469.863 166.328 470.261 167.11C470.659 167.889 470.858 168.822 470.858 169.909ZM469.336 169.909C469.336 169.08 469.202 168.383 468.934 167.816C468.668 167.246 468.304 166.815 467.84 166.523C467.379 166.228 466.857 166.081 466.274 166.081C465.687 166.081 465.163 166.228 464.703 166.523C464.242 166.815 463.877 167.246 463.609 167.816C463.344 168.383 463.211 169.08 463.211 169.909C463.211 170.738 463.344 171.437 463.609 172.007C463.877 172.574 464.242 173.005 464.703 173.3C465.163 173.591 465.687 173.737 466.274 173.737C466.857 173.737 467.379 173.591 467.84 173.3C468.304 173.005 468.668 172.574 468.934 172.007C469.202 171.437 469.336 170.738 469.336 169.909ZM472.773 175V164.818H474.309V173.678H478.923V175H472.773Z" fill="#111827"/>
<rect x="1.5" y="232.5" width="149" height="103" rx="3.5" fill="white"/>
<rect x="1.5" y="232.5" width="149" height="103" rx="3.5" stroke="#E4E4E7"/>
<path d="M86.0001 271.5C86.0001 272.826 85.3014 273.476 84 273.499V273.5H68V273.499C66.6986 273.476 66 272.826 66 271.5C66 270.174 66.6986 269.524 68 269.501V269.5H84V269.501C85.3014 269.524 86.0001 270.174 86.0001 271.5ZM84 274.501V274.5H68V274.501C66.6986 274.524 66 275.174 66 276.5C66 277.826 66.6986 278.476 68 278.499V278.5H84V278.499C85.3013 278.476 86.0001 277.826 86.0001 276.5C86.0001 275.174 85.3014 274.524 84 274.501ZM89.0001 263.502V263.501C87.6987 263.524 87 264.174 87 265.5V276.5C87 277.826 87.6986 278.476 89.0001 278.499V278.497C90.952 278.428 92 276.478 92 272.5V267.5C92.0001 264.848 90.952 263.548 89.0001 263.502ZM63 263.501V263.502C61.048 263.548 60 264.848 60 267.5V272.5C60 276.478 61.048 278.428 63 278.497V278.499C64.3014 278.476 64.9999 277.826 64.9999 276.5V265.5C64.9999 264.174 64.3014 263.524 63 263.501ZM89.0001 262.5C89.0001 259.185 87.2533 257.56 84 257.503V257.5H68V257.503C64.7467 257.56 63 259.185 63 262.5V262.502C64.952 262.536 66 263.511 66 265.5C66 267.489 67.048 268.464 69 268.498V268.5H83V268.498C84.9521 268.464 86.0001 267.489 86.0001 265.5C86.0001 263.511 87.048 262.536 89.0001 262.502V262.5Z" fill="#111827"/>
<path d="M54.0753 304.129H52.5241C52.4645 303.798 52.3535 303.506 52.1911 303.254C52.0286 303.002 51.8298 302.789 51.5945 302.613C51.3591 302.437 51.0956 302.305 50.804 302.215C50.5156 302.126 50.209 302.081 49.8842 302.081C49.2976 302.081 48.7723 302.228 48.3082 302.523C47.8475 302.818 47.483 303.251 47.2145 303.821C46.9493 304.391 46.8168 305.087 46.8168 305.909C46.8168 306.738 46.9493 307.437 47.2145 308.007C47.483 308.577 47.8492 309.008 48.3132 309.3C48.7772 309.591 49.2992 309.737 49.8793 309.737C50.2008 309.737 50.5057 309.694 50.794 309.608C51.0857 309.518 51.3492 309.388 51.5845 309.215C51.8198 309.043 52.0187 308.832 52.1811 308.584C52.3468 308.332 52.4612 308.044 52.5241 307.719L54.0753 307.724C53.9924 308.224 53.8317 308.685 53.593 309.106C53.3577 309.523 53.0545 309.885 52.6832 310.19C52.3153 310.491 51.8944 310.725 51.4205 310.891C50.9465 311.056 50.4295 311.139 49.8693 311.139C48.9877 311.139 48.2022 310.93 47.5128 310.513C46.8234 310.092 46.2798 309.49 45.8821 308.708C45.4877 307.926 45.2905 306.993 45.2905 305.909C45.2905 304.822 45.4893 303.889 45.8871 303.11C46.2848 302.328 46.8284 301.728 47.5178 301.31C48.2071 300.889 48.991 300.679 49.8693 300.679C50.4096 300.679 50.9134 300.757 51.3807 300.913C51.8513 301.065 52.2739 301.29 52.6484 301.589C53.023 301.884 53.3329 302.245 53.5781 302.673C53.8234 303.097 53.9891 303.582 54.0753 304.129ZM59.0108 311.154C58.2949 311.154 57.6702 310.99 57.1365 310.662C56.6029 310.334 56.1886 309.875 55.8936 309.285C55.5987 308.695 55.4512 308.005 55.4512 307.217C55.4512 306.424 55.5987 305.732 55.8936 305.138C56.1886 304.545 56.6029 304.085 57.1365 303.756C57.6702 303.428 58.2949 303.264 59.0108 303.264C59.7267 303.264 60.3515 303.428 60.8851 303.756C61.4187 304.085 61.833 304.545 62.128 305.138C62.423 305.732 62.5705 306.424 62.5705 307.217C62.5705 308.005 62.423 308.695 62.128 309.285C61.833 309.875 61.4187 310.334 60.8851 310.662C60.3515 310.99 59.7267 311.154 59.0108 311.154ZM59.0158 309.906C59.4798 309.906 59.8643 309.784 60.1692 309.538C60.4741 309.293 60.6995 308.967 60.8453 308.559C60.9945 308.151 61.0691 307.702 61.0691 307.212C61.0691 306.724 60.9945 306.277 60.8453 305.869C60.6995 305.458 60.4741 305.129 60.1692 304.88C59.8643 304.631 59.4798 304.507 59.0158 304.507C58.5485 304.507 58.1607 304.631 57.8525 304.88C57.5475 305.129 57.3205 305.458 57.1713 305.869C57.0255 306.277 56.9526 306.724 56.9526 307.212C56.9526 307.702 57.0255 308.151 57.1713 308.559C57.3205 308.967 57.5475 309.293 57.8525 309.538C58.1607 309.784 58.5485 309.906 59.0158 309.906ZM69.0671 307.833V303.364H70.5586V311H69.0969V309.678H69.0174C68.8417 310.085 68.56 310.425 68.1722 310.697C67.7878 310.965 67.3088 311.099 66.7354 311.099C66.2449 311.099 65.8107 310.992 65.4329 310.776C65.0584 310.558 64.7634 310.234 64.5479 309.807C64.3358 309.379 64.2298 308.851 64.2298 308.221V303.364H65.7163V308.042C65.7163 308.562 65.8604 308.977 66.1488 309.285C66.4371 309.593 66.8117 309.747 67.2724 309.747C67.5508 309.747 67.8275 309.678 68.1026 309.538C68.381 309.399 68.6114 309.189 68.7937 308.907C68.9793 308.625 69.0704 308.267 69.0671 307.833ZM75.7725 311.154C75.0334 311.154 74.3971 310.987 73.8635 310.652C73.3332 310.314 72.9255 309.848 72.6404 309.255C72.3554 308.662 72.2129 307.982 72.2129 307.217C72.2129 306.441 72.3587 305.757 72.6504 305.163C72.9421 304.567 73.353 304.101 73.8833 303.766C74.4136 303.432 75.0384 303.264 75.7576 303.264C76.3377 303.264 76.8547 303.372 77.3088 303.587C77.7628 303.799 78.1291 304.098 78.4075 304.482C78.6892 304.867 78.8566 305.316 78.9096 305.83H77.4629C77.3833 305.472 77.2011 305.163 76.916 304.905C76.6343 304.646 76.2565 304.517 75.7825 304.517C75.3682 304.517 75.0053 304.626 74.6937 304.845C74.3855 305.061 74.1452 305.369 73.9728 305.77C73.8005 306.168 73.7143 306.638 73.7143 307.182C73.7143 307.739 73.7988 308.219 73.9679 308.624C74.1369 309.028 74.3755 309.341 74.6838 309.563C74.9953 309.785 75.3616 309.896 75.7825 309.896C76.0642 309.896 76.3194 309.845 76.5481 309.742C76.7801 309.636 76.974 309.485 77.1298 309.29C77.2889 309.094 77.3999 308.859 77.4629 308.584H78.9096C78.8566 309.078 78.6958 309.518 78.4274 309.906C78.1589 310.294 77.7993 310.599 77.3485 310.821C76.9011 311.043 76.3758 311.154 75.7725 311.154ZM81.9858 306.466V311H80.4993V300.818H81.9659V304.607H82.0604C82.2393 304.196 82.5128 303.869 82.8807 303.627C83.2486 303.385 83.7292 303.264 84.3224 303.264C84.8461 303.264 85.3035 303.372 85.6946 303.587C86.089 303.803 86.3939 304.124 86.6094 304.552C86.8281 304.976 86.9375 305.506 86.9375 306.143V311H85.451V306.322C85.451 305.762 85.3068 305.327 85.0185 305.019C84.7301 304.708 84.3291 304.552 83.8153 304.552C83.464 304.552 83.1491 304.626 82.8707 304.776C82.5956 304.925 82.3786 305.143 82.2195 305.432C82.0637 305.717 81.9858 306.062 81.9858 306.466ZM92.3366 311H89.0405V300.818H92.4411C93.4387 300.818 94.2955 301.022 95.0114 301.43C95.7273 301.834 96.2758 302.416 96.657 303.175C97.0414 303.93 97.2337 304.837 97.2337 305.894C97.2337 306.955 97.0398 307.866 96.652 308.629C96.2675 309.391 95.7107 309.978 94.9815 310.388C94.2524 310.796 93.3707 311 92.3366 311ZM90.5767 309.658H92.2521C93.0277 309.658 93.6723 309.512 94.1861 309.22C94.6998 308.925 95.0843 308.499 95.3395 307.942C95.5947 307.382 95.7223 306.7 95.7223 305.894C95.7223 305.095 95.5947 304.418 95.3395 303.861C95.0876 303.304 94.7114 302.881 94.2109 302.593C93.7105 302.305 93.089 302.161 92.3466 302.161H90.5767V309.658ZM99.144 311V300.818H102.873C103.595 300.818 104.193 300.937 104.667 301.176C105.141 301.411 105.496 301.731 105.731 302.136C105.967 302.537 106.084 302.989 106.084 303.493C106.084 303.917 106.006 304.275 105.851 304.567C105.695 304.855 105.486 305.087 105.224 305.263C104.966 305.435 104.681 305.561 104.369 305.641V305.74C104.707 305.757 105.037 305.866 105.358 306.068C105.683 306.267 105.952 306.55 106.164 306.918C106.376 307.286 106.482 307.734 106.482 308.261C106.482 308.781 106.359 309.248 106.114 309.663C105.872 310.074 105.498 310.4 104.991 310.642C104.483 310.881 103.836 311 103.047 311H99.144ZM100.68 309.683H102.898C103.633 309.683 104.16 309.54 104.479 309.255C104.797 308.97 104.956 308.614 104.956 308.186C104.956 307.865 104.875 307.57 104.712 307.301C104.55 307.033 104.318 306.819 104.016 306.66C103.718 306.501 103.363 306.421 102.952 306.421H100.68V309.683ZM100.68 305.223H102.738C103.083 305.223 103.393 305.157 103.668 305.024C103.947 304.892 104.167 304.706 104.329 304.467C104.495 304.225 104.578 303.94 104.578 303.612C104.578 303.191 104.43 302.838 104.135 302.553C103.84 302.268 103.388 302.126 102.778 302.126H100.68V305.223Z" fill="#111827"/>
<rect x="183.5" y="232.5" width="149" height="103" rx="3.5" fill="white"/>
<rect x="183.5" y="232.5" width="149" height="103" rx="3.5" stroke="#E4E4E7"/>
<path d="M273.857 257.693C273.77 257.619 273.66 257.58 273.547 257.584C273.237 257.584 272.838 257.793 272.624 257.911L272.538 257.955C272.177 258.129 271.785 258.228 271.384 258.245C270.974 258.258 270.621 258.282 270.16 258.329C267.432 258.61 266.216 260.701 265.044 262.722C264.407 263.822 263.748 264.959 262.845 265.84C262.657 266.021 262.458 266.189 262.249 266.345C261.314 267.042 260.14 267.534 259.222 267.885C258.342 268.221 257.383 268.524 256.454 268.816C255.605 269.083 254.802 269.335 254.065 269.61C253.732 269.734 253.45 269.828 253.2 269.911C252.529 270.13 252.043 270.297 251.336 270.784C251.06 270.973 250.783 271.177 250.594 271.33C250.032 271.778 249.535 272.302 249.117 272.887C248.757 273.427 248.341 273.927 247.876 274.38C247.728 274.527 247.462 274.599 247.066 274.599C246.6 274.599 246.037 274.503 245.439 274.401C244.841 274.3 244.189 274.183 243.643 274.183C243.199 274.183 242.861 274.255 242.607 274.401C242.607 274.401 242.181 274.65 242 274.972L242.177 275.051C242.451 275.2 242.705 275.384 242.933 275.597C243.169 275.817 243.432 276.004 243.717 276.155C243.809 276.19 243.892 276.244 243.962 276.314C243.886 276.423 243.777 276.564 243.663 276.714C243.033 277.538 242.667 278.058 242.877 278.342C242.978 278.395 243.091 278.42 243.205 278.416C244.578 278.416 245.315 278.059 246.249 277.608C246.518 277.477 246.794 277.341 247.121 277.204C247.667 276.967 248.254 276.59 248.876 276.19C249.7 275.661 250.552 275.114 251.377 274.848C252.056 274.641 252.764 274.542 253.475 274.554C254.347 274.554 255.266 274.671 256.152 274.784C256.813 274.869 257.496 274.956 258.167 275.002C258.428 275.018 258.669 275.025 258.905 275.025C259.219 275.026 259.532 275.01 259.844 274.976L259.918 274.95C260.39 274.661 260.61 274.04 260.823 273.44C260.96 273.054 261.076 272.707 261.259 272.486C261.27 272.475 261.282 272.465 261.295 272.457C261.304 272.452 261.314 272.45 261.324 272.452C261.333 272.453 261.342 272.458 261.349 272.466C261.351 272.471 261.351 272.477 261.349 272.483C261.24 274.83 260.294 276.319 259.339 277.644L258.691 278.323C258.691 278.323 259.583 278.323 260.092 278.127C261.947 277.573 263.348 276.351 264.367 274.402C264.618 273.902 264.842 273.389 265.039 272.865C265.056 272.821 265.218 272.74 265.201 272.966C265.201 273.033 265.193 273.107 265.187 273.185C265.187 273.23 265.181 273.277 265.178 273.324C265.151 273.652 265.069 274.343 265.069 274.343L265.642 274.037C267.023 273.164 268.088 271.403 268.896 268.663C269.233 267.522 269.478 266.388 269.695 265.39C269.955 264.19 270.179 263.161 270.435 262.762C270.838 262.135 271.452 261.712 272.047 261.301C272.128 261.245 272.209 261.192 272.289 261.133C273.037 260.608 273.78 260.002 273.943 258.873V258.848C274.067 258.006 273.966 257.796 273.857 257.693Z" fill="#111827"/>
<path d="M228.619 300.818H230.483L233.724 308.733H233.844L237.085 300.818H238.95V311H237.488V303.632H237.393L234.391 310.985H233.178L230.175 303.627H230.08V311H228.619V300.818ZM243.286 311.169C242.802 311.169 242.365 311.08 241.974 310.901C241.582 310.718 241.273 310.455 241.044 310.11C240.818 309.765 240.706 309.343 240.706 308.842C240.706 308.411 240.789 308.057 240.954 307.778C241.12 307.5 241.344 307.28 241.626 307.117C241.907 306.955 242.222 306.832 242.57 306.749C242.918 306.666 243.273 306.603 243.634 306.56C244.091 306.507 244.463 306.464 244.748 306.431C245.033 306.395 245.24 306.337 245.369 306.257C245.498 306.178 245.563 306.048 245.563 305.869V305.835C245.563 305.4 245.44 305.064 245.195 304.825C244.953 304.587 244.592 304.467 244.111 304.467C243.611 304.467 243.216 304.578 242.928 304.8C242.643 305.019 242.446 305.263 242.336 305.531L240.939 305.213C241.105 304.749 241.347 304.375 241.665 304.089C241.987 303.801 242.356 303.592 242.774 303.463C243.192 303.33 243.631 303.264 244.091 303.264C244.396 303.264 244.72 303.301 245.061 303.374C245.406 303.443 245.727 303.572 246.025 303.761C246.327 303.95 246.574 304.22 246.766 304.572C246.958 304.92 247.055 305.372 247.055 305.929V311H245.603V309.956H245.543C245.447 310.148 245.303 310.337 245.111 310.523C244.918 310.708 244.671 310.862 244.37 310.985C244.068 311.108 243.707 311.169 243.286 311.169ZM243.609 309.976C244.02 309.976 244.372 309.895 244.663 309.732C244.958 309.57 245.182 309.358 245.334 309.096C245.49 308.831 245.568 308.547 245.568 308.246V307.261C245.515 307.314 245.412 307.364 245.26 307.411C245.111 307.454 244.94 307.492 244.748 307.525C244.555 307.555 244.368 307.583 244.186 307.609C244.004 307.633 243.851 307.652 243.729 307.669C243.44 307.705 243.177 307.767 242.938 307.853C242.703 307.939 242.514 308.063 242.371 308.226C242.232 308.385 242.162 308.597 242.162 308.862C242.162 309.23 242.298 309.509 242.57 309.697C242.842 309.883 243.188 309.976 243.609 309.976ZM249.034 311V303.364H250.471V304.577H250.551C250.69 304.166 250.935 303.843 251.287 303.607C251.641 303.369 252.042 303.249 252.49 303.249C252.583 303.249 252.692 303.253 252.818 303.259C252.947 303.266 253.048 303.274 253.121 303.284V304.706C253.061 304.689 252.955 304.671 252.803 304.651C252.65 304.628 252.498 304.616 252.346 304.616C251.994 304.616 251.681 304.691 251.406 304.84C251.134 304.986 250.919 305.19 250.76 305.452C250.6 305.71 250.521 306.005 250.521 306.337V311H249.034ZM254.407 311V303.364H255.894V311H254.407ZM255.158 302.185C254.9 302.185 254.678 302.099 254.492 301.927C254.31 301.751 254.219 301.542 254.219 301.3C254.219 301.055 254.31 300.846 254.492 300.674C254.678 300.498 254.9 300.411 255.158 300.411C255.417 300.411 255.637 300.498 255.819 300.674C256.005 300.846 256.098 301.055 256.098 301.3C256.098 301.542 256.005 301.751 255.819 301.927C255.637 302.099 255.417 302.185 255.158 302.185ZM260.116 311.169C259.632 311.169 259.195 311.08 258.804 310.901C258.413 310.718 258.103 310.455 257.874 310.11C257.649 309.765 257.536 309.343 257.536 308.842C257.536 308.411 257.619 308.057 257.784 307.778C257.95 307.5 258.174 307.28 258.456 307.117C258.737 306.955 259.052 306.832 259.4 306.749C259.748 306.666 260.103 306.603 260.464 306.56C260.922 306.507 261.293 306.464 261.578 306.431C261.863 306.395 262.07 306.337 262.199 306.257C262.328 306.178 262.393 306.048 262.393 305.869V305.835C262.393 305.4 262.27 305.064 262.025 304.825C261.783 304.587 261.422 304.467 260.941 304.467C260.441 304.467 260.047 304.578 259.758 304.8C259.473 305.019 259.276 305.263 259.167 305.531L257.77 305.213C257.935 304.749 258.177 304.375 258.495 304.089C258.817 303.801 259.186 303.592 259.604 303.463C260.022 303.33 260.461 303.264 260.922 303.264C261.226 303.264 261.55 303.301 261.891 303.374C262.236 303.443 262.557 303.572 262.855 303.761C263.157 303.95 263.404 304.22 263.596 304.572C263.788 304.92 263.885 305.372 263.885 305.929V311H262.433V309.956H262.373C262.277 310.148 262.133 310.337 261.941 310.523C261.748 310.708 261.502 310.862 261.2 310.985C260.898 311.108 260.537 311.169 260.116 311.169ZM260.439 309.976C260.85 309.976 261.202 309.895 261.493 309.732C261.788 309.57 262.012 309.358 262.164 309.096C262.32 308.831 262.398 308.547 262.398 308.246V307.261C262.345 307.314 262.242 307.364 262.09 307.411C261.941 307.454 261.77 307.492 261.578 307.525C261.386 307.555 261.198 307.583 261.016 307.609C260.834 307.633 260.681 307.652 260.559 307.669C260.27 307.705 260.007 307.767 259.768 307.853C259.533 307.939 259.344 308.063 259.201 308.226C259.062 308.385 258.993 308.597 258.993 308.862C258.993 309.23 259.128 309.509 259.4 309.697C259.672 309.883 260.018 309.976 260.439 309.976ZM272.985 311H269.689V300.818H273.089C274.087 300.818 274.944 301.022 275.66 301.43C276.376 301.834 276.924 302.416 277.305 303.175C277.69 303.93 277.882 304.837 277.882 305.894C277.882 306.955 277.688 307.866 277.3 308.629C276.916 309.391 276.359 309.978 275.63 310.388C274.901 310.796 274.019 311 272.985 311ZM271.225 309.658H272.901C273.676 309.658 274.321 309.512 274.835 309.22C275.348 308.925 275.733 308.499 275.988 307.942C276.243 307.382 276.371 306.7 276.371 305.894C276.371 305.095 276.243 304.418 275.988 303.861C275.736 303.304 275.36 302.881 274.859 302.593C274.359 302.305 273.737 302.161 272.995 302.161H271.225V309.658ZM279.792 311V300.818H283.521C284.244 300.818 284.842 300.937 285.316 301.176C285.79 301.411 286.144 301.731 286.38 302.136C286.615 302.537 286.733 302.989 286.733 303.493C286.733 303.917 286.655 304.275 286.499 304.567C286.343 304.855 286.135 305.087 285.873 305.263C285.614 305.435 285.329 305.561 285.018 305.641V305.74C285.356 305.757 285.685 305.866 286.007 306.068C286.332 306.267 286.6 306.55 286.812 306.918C287.024 307.286 287.131 307.734 287.131 308.261C287.131 308.781 287.008 309.248 286.763 309.663C286.521 310.074 286.146 310.4 285.639 310.642C285.132 310.881 284.484 311 283.695 311H279.792ZM281.329 309.683H283.546C284.282 309.683 284.809 309.54 285.127 309.255C285.445 308.97 285.604 308.614 285.604 308.186C285.604 307.865 285.523 307.57 285.361 307.301C285.198 307.033 284.966 306.819 284.665 306.66C284.366 306.501 284.012 306.421 283.601 306.421H281.329V309.683ZM281.329 305.223H283.387C283.732 305.223 284.041 305.157 284.317 305.024C284.595 304.892 284.815 304.706 284.978 304.467C285.144 304.225 285.226 303.94 285.226 303.612C285.226 303.191 285.079 302.838 284.784 302.553C284.489 302.268 284.037 302.126 283.427 302.126H281.329V305.223Z" fill="#111827"/>
<rect x="365.5" y="232.5" width="149" height="103" rx="3.5" fill="white"/>
<rect x="365.5" y="232.5" width="149" height="103" rx="3.5" stroke="#E4E4E7"/>
<path fill-rule="evenodd" clip-rule="evenodd" d="M435.406 254.02L439.573 252V259.231L435.406 260.146L435.406 254.02ZM428.176 278.411V257.272L426.368 258.226V277.457L428.176 278.411ZM451.825 278.411V257.272L453.632 258.226V277.457L451.825 278.411ZM439.573 276.631L435.406 275.753L435.406 282.017L439.573 283.862V276.631ZM434.653 258.678L429.13 257.222L429.08 278.511L434.603 277.055V274.896L440.226 273.892L445.498 274.946V277.055L450.921 278.511V257.222L445.498 258.728V261.088L439.975 262.142L434.653 261.038V258.678ZM444.745 264.502L440.577 264V271.783L444.745 271.18L444.745 264.502ZM435.406 264.502L439.573 264V271.783L435.406 271.18L435.406 264.502ZM440.578 252L444.745 254.02L444.745 260.284L440.578 259.369V252ZM444.745 275.753L440.578 276.631V284L444.745 282.017L444.745 275.753ZM439.987 260.099L437.362 260.716L439.961 261.385L442.638 260.768L439.987 260.099ZM437.362 275.264L439.987 274.647L442.638 275.316L439.961 275.933L437.362 275.264Z" fill="#111827"/>
<path d="M412.172 303.493C412.119 303.022 411.9 302.658 411.516 302.399C411.131 302.137 410.647 302.006 410.064 302.006C409.646 302.006 409.285 302.073 408.98 302.205C408.675 302.335 408.438 302.513 408.269 302.742C408.103 302.968 408.021 303.224 408.021 303.513C408.021 303.755 408.077 303.964 408.19 304.139C408.306 304.315 408.456 304.462 408.642 304.582C408.831 304.698 409.033 304.795 409.249 304.875C409.464 304.951 409.671 305.014 409.87 305.064L410.864 305.322C411.189 305.402 411.522 305.51 411.864 305.646C412.205 305.781 412.522 305.96 412.813 306.183C413.105 306.405 413.34 306.68 413.519 307.008C413.701 307.336 413.793 307.729 413.793 308.186C413.793 308.763 413.643 309.275 413.345 309.722C413.05 310.17 412.621 310.523 412.058 310.781C411.497 311.04 410.82 311.169 410.024 311.169C409.262 311.169 408.602 311.048 408.045 310.806C407.489 310.564 407.053 310.221 406.738 309.777C406.423 309.33 406.249 308.799 406.216 308.186H407.757C407.787 308.554 407.906 308.861 408.115 309.106C408.327 309.348 408.597 309.528 408.925 309.648C409.257 309.764 409.62 309.822 410.014 309.822C410.448 309.822 410.835 309.754 411.173 309.618C411.514 309.479 411.782 309.286 411.978 309.041C412.174 308.793 412.271 308.503 412.271 308.171C412.271 307.87 412.185 307.623 412.013 307.43C411.844 307.238 411.613 307.079 411.322 306.953C411.033 306.827 410.707 306.716 410.342 306.62L409.139 306.292C408.324 306.07 407.678 305.743 407.2 305.312C406.726 304.882 406.489 304.312 406.489 303.602C406.489 303.016 406.648 302.504 406.967 302.066C407.285 301.629 407.716 301.289 408.259 301.047C408.803 300.802 409.416 300.679 410.099 300.679C410.788 300.679 411.396 300.8 411.923 301.042C412.454 301.284 412.871 301.617 413.176 302.041C413.481 302.462 413.64 302.946 413.653 303.493H412.172ZM419.034 311.139C418.351 311.139 417.741 311.022 417.204 310.786C416.671 310.551 416.248 310.224 415.937 309.807C415.628 309.386 415.463 308.899 415.439 308.345H417.001C417.02 308.647 417.122 308.909 417.304 309.131C417.489 309.349 417.731 309.518 418.03 309.638C418.328 309.757 418.659 309.817 419.024 309.817C419.425 309.817 419.78 309.747 420.088 309.608C420.399 309.469 420.643 309.275 420.819 309.026C420.994 308.774 421.082 308.484 421.082 308.156C421.082 307.815 420.994 307.515 420.819 307.256C420.646 306.995 420.393 306.789 420.058 306.64C419.727 306.491 419.326 306.416 418.855 306.416H417.995V305.163H418.855C419.233 305.163 419.564 305.095 419.849 304.96C420.138 304.824 420.363 304.635 420.525 304.393C420.688 304.147 420.769 303.861 420.769 303.533C420.769 303.218 420.698 302.944 420.555 302.712C420.416 302.477 420.217 302.293 419.959 302.161C419.703 302.028 419.402 301.962 419.054 301.962C418.722 301.962 418.412 302.023 418.124 302.146C417.839 302.265 417.607 302.437 417.428 302.663C417.249 302.885 417.153 303.152 417.14 303.463H415.653C415.67 302.913 415.832 302.429 416.14 302.011C416.452 301.594 416.863 301.267 417.373 301.032C417.884 300.797 418.451 300.679 419.074 300.679C419.727 300.679 420.29 300.807 420.764 301.062C421.241 301.314 421.609 301.65 421.868 302.071C422.13 302.492 422.259 302.953 422.256 303.453C422.259 304.023 422.1 304.507 421.778 304.905C421.46 305.303 421.036 305.569 420.506 305.705V305.785C421.182 305.888 421.705 306.156 422.077 306.59C422.451 307.024 422.637 307.563 422.633 308.206C422.637 308.766 422.481 309.268 422.166 309.712C421.854 310.156 421.429 310.506 420.888 310.761C420.348 311.013 419.73 311.139 419.034 311.139ZM428.357 311V300.818H432.086C432.808 300.818 433.406 300.937 433.88 301.176C434.354 301.411 434.709 301.731 434.944 302.136C435.18 302.537 435.297 302.989 435.297 303.493C435.297 303.917 435.219 304.275 435.064 304.567C434.908 304.855 434.699 305.087 434.437 305.263C434.179 305.435 433.894 305.561 433.582 305.641V305.74C433.92 305.757 434.25 305.866 434.571 306.068C434.896 306.267 435.165 306.55 435.377 306.918C435.589 307.286 435.695 307.734 435.695 308.261C435.695 308.781 435.572 309.248 435.327 309.663C435.085 310.074 434.711 310.4 434.203 310.642C433.696 310.881 433.048 311 432.26 311H428.357ZM429.893 309.683H432.11C432.846 309.683 433.373 309.54 433.691 309.255C434.01 308.97 434.169 308.614 434.169 308.186C434.169 307.865 434.087 307.57 433.925 307.301C433.763 307.033 433.531 306.819 433.229 306.66C432.931 306.501 432.576 306.421 432.165 306.421H429.893V309.683ZM429.893 305.223H431.951C432.296 305.223 432.606 305.157 432.881 305.024C433.159 304.892 433.38 304.706 433.542 304.467C433.708 304.225 433.791 303.94 433.791 303.612C433.791 303.191 433.643 302.838 433.348 302.553C433.053 302.268 432.601 302.126 431.991 302.126H429.893V305.223ZM442.235 307.833V303.364H443.727V311H442.265V309.678H442.185C442.01 310.085 441.728 310.425 441.34 310.697C440.956 310.965 440.477 311.099 439.903 311.099C439.413 311.099 438.979 310.992 438.601 310.776C438.226 310.558 437.931 310.234 437.716 309.807C437.504 309.379 437.398 308.851 437.398 308.221V303.364H438.884V308.042C438.884 308.562 439.028 308.977 439.317 309.285C439.605 309.593 439.98 309.747 440.44 309.747C440.719 309.747 440.996 309.678 441.271 309.538C441.549 309.399 441.779 309.189 441.962 308.907C442.147 308.625 442.238 308.267 442.235 307.833ZM448.941 311.154C448.201 311.154 447.565 310.987 447.031 310.652C446.501 310.314 446.093 309.848 445.808 309.255C445.523 308.662 445.381 307.982 445.381 307.217C445.381 306.441 445.527 305.757 445.818 305.163C446.11 304.567 446.521 304.101 447.051 303.766C447.582 303.432 448.206 303.264 448.926 303.264C449.506 303.264 450.023 303.372 450.477 303.587C450.931 303.799 451.297 304.098 451.575 304.482C451.857 304.867 452.025 305.316 452.078 305.83H450.631C450.551 305.472 450.369 305.163 450.084 304.905C449.802 304.646 449.424 304.517 448.95 304.517C448.536 304.517 448.173 304.626 447.862 304.845C447.553 305.061 447.313 305.369 447.141 305.77C446.968 306.168 446.882 306.638 446.882 307.182C446.882 307.739 446.967 308.219 447.136 308.624C447.305 309.028 447.544 309.341 447.852 309.563C448.163 309.785 448.53 309.896 448.95 309.896C449.232 309.896 449.487 309.845 449.716 309.742C449.948 309.636 450.142 309.485 450.298 309.29C450.457 309.094 450.568 308.859 450.631 308.584H452.078C452.025 309.078 451.864 309.518 451.595 309.906C451.327 310.294 450.967 310.599 450.517 310.821C450.069 311.043 449.544 311.154 448.941 311.154ZM455.034 308.41L455.025 306.595H455.283L458.326 303.364H460.105L456.635 307.043H456.402L455.034 308.41ZM453.667 311V300.818H455.154V311H453.667ZM458.49 311L455.755 307.371L456.779 306.332L460.314 311H458.49ZM464.437 311.154C463.685 311.154 463.037 310.993 462.493 310.672C461.953 310.347 461.535 309.891 461.24 309.305C460.949 308.715 460.803 308.024 460.803 307.232C460.803 306.449 460.949 305.76 461.24 305.163C461.535 304.567 461.946 304.101 462.473 303.766C463.003 303.432 463.623 303.264 464.333 303.264C464.763 303.264 465.181 303.335 465.585 303.478C465.99 303.621 466.353 303.844 466.674 304.149C466.996 304.454 467.249 304.85 467.435 305.337C467.62 305.821 467.713 306.41 467.713 307.102V307.629H461.643V306.516H466.257C466.257 306.125 466.177 305.778 466.018 305.477C465.859 305.172 465.635 304.931 465.347 304.756C465.062 304.58 464.727 304.492 464.343 304.492C463.925 304.492 463.56 304.595 463.249 304.8C462.941 305.003 462.702 305.268 462.533 305.596C462.367 305.921 462.284 306.274 462.284 306.655V307.525C462.284 308.035 462.374 308.469 462.553 308.827C462.735 309.185 462.989 309.459 463.313 309.648C463.638 309.833 464.018 309.926 464.452 309.926C464.734 309.926 464.99 309.886 465.222 309.807C465.454 309.724 465.655 309.601 465.824 309.439C465.993 309.277 466.122 309.076 466.212 308.837L467.619 309.091C467.506 309.505 467.304 309.868 467.012 310.18C466.724 310.488 466.361 310.728 465.923 310.901C465.489 311.07 464.994 311.154 464.437 311.154ZM472.927 303.364V304.557H468.756V303.364H472.927ZM469.875 301.534H471.361V308.758C471.361 309.046 471.404 309.263 471.49 309.409C471.577 309.552 471.688 309.649 471.824 309.702C471.963 309.752 472.114 309.777 472.276 309.777C472.395 309.777 472.5 309.769 472.589 309.752C472.679 309.736 472.748 309.722 472.798 309.712L473.066 310.94C472.98 310.973 472.858 311.007 472.699 311.04C472.539 311.076 472.341 311.096 472.102 311.099C471.711 311.106 471.346 311.036 471.008 310.891C470.67 310.745 470.397 310.519 470.188 310.214C469.979 309.91 469.875 309.527 469.875 309.066V301.534Z" fill="#111827"/>
<defs>
<clipPath id="clip0_2617_6188">
<rect x="1" y="28" width="514" height="36" rx="4" fill="white"/>
</clipPath>
</defs>
</svg>
