<svg width="1120" height="480" viewBox="0 0 1120 480" fill="none" xmlns="http://www.w3.org/2000/svg">
<rect width="1120" height="480" fill="#0F0F11"/>
<path d="M354.435 189.554C384.501 159.487 433.249 159.487 463.315 189.554L513.065 239.303L456.28 296.088C427.509 324.859 380.861 324.859 352.09 296.088V296.088C323.319 267.317 323.319 220.67 352.09 191.899L354.435 189.554Z" stroke="#1D4ED8" stroke-width="41"/>
<path d="M483.888 239.322L513.235 210.021L494.937 191.64L465.594 220.936L483.888 239.322Z" fill="url(#paint0_linear_842_31471)"/>
<path d="M743.116 316.882C700.656 359.343 631.813 359.343 589.353 316.882L512.471 240L589.353 163.118C631.813 120.658 700.656 120.658 743.116 163.118V163.118C785.577 205.579 785.577 274.421 743.116 316.882V316.882Z" stroke="#1D4ED8" stroke-width="41"/>
<path d="M530.492 287.383L559.656 258.265L541.472 240L512.312 269.112L530.492 287.383Z" fill="url(#paint1_linear_842_31471)"/>
<path d="M386.607 253.723L374.531 241.648L386.607 229.572" stroke="#EEEEF0" stroke-width="3" stroke-linecap="round" stroke-linejoin="round"/>
<path d="M414.426 219.943L398.641 263.352" stroke="#EEEEF0" stroke-width="3" stroke-linecap="round" stroke-linejoin="round"/>
<path d="M426.457 229.572L438.533 241.648L426.457 253.723" stroke="#EEEEF0" stroke-width="3" stroke-linecap="round" stroke-linejoin="round"/>
<path d="M654.201 233C652.002 232.438 649.708 232.35 647.473 232.742C645.237 233.135 643.111 233.998 641.235 235.275C639.358 236.551 637.775 238.213 636.59 240.148C635.405 242.084 634.645 244.249 634.36 246.501C634.076 248.753 634.274 251.039 634.941 253.209C635.608 255.378 636.729 257.381 638.229 259.084C639.729 260.787 641.574 262.151 643.642 263.087C645.71 264.022 647.953 264.507 650.223 264.509H680.781C682.718 264.509 684.624 263.962 686.146 262.766C688.363 261.024 691.31 258.39 693.663 255.366C695.836 252.468 697.289 249.094 697.904 245.524C698.518 241.954 698.275 238.289 697.194 234.832C696.114 231.374 694.228 228.222 691.691 225.637C689.154 223.051 686.039 221.105 682.602 219.96C679.165 218.814 675.506 218.501 671.925 219.048C668.344 219.594 664.944 220.983 662.005 223.101C659.066 225.219 656.672 228.005 655.021 231.229C653.37 234.454 652.509 238.024 652.509 241.647" stroke="#EEEEF0" stroke-width="3" stroke-linecap="round" stroke-linejoin="round"/>
<defs>
<linearGradient id="paint0_linear_842_31471" x1="478.848" y1="207.108" x2="497.498" y2="225.758" gradientUnits="userSpaceOnUse">
<stop stop-color="#1E40AF" stop-opacity="0"/>
<stop offset="1" stop-color="#1E40AF"/>
</linearGradient>
<linearGradient id="paint1_linear_842_31471" x1="525.484" y1="255.371" x2="544.017" y2="273.904" gradientUnits="userSpaceOnUse">
<stop stop-color="#1E40AF"/>
<stop offset="1" stop-color="#1E40AF" stop-opacity="0"/>
</linearGradient>
</defs>
</svg>
